<?xml version="1.0" encoding="utf-8" ?><svg version="1.1" xmlns = 'http://www.w3.org/2000/svg'><defs><font id='web' horiz-adv-x="1000">
<font-face font-family="web" descent="-426" cap-height="1434" units-per-em="2048" bbox="-328,-410,2261,1970" x-height="1024" ascent="1622" />
<missing-glyph horiz-adv-x="471" d="" /><glyph horiz-adv-x="424" d="" unicode=" " />
<glyph horiz-adv-x="555" d="M 373 1370 C 373 1337 371 1305 369 1273 C 366 1241 362 1207 358 1171 C 354 1135 349 1096 343 1054 C 337 1012 332 964 326 911 C 320 862 315 814 313 767 C 311 720 309 674 309 630 C 308 586 307 543 307 503 C 307 462 306 424 305 389 C 305 387 302 385 296 383 C 290 381 284 381 279 381 C 274 381 269 381 263 383 C 257 385 254 387 254 389 C 252 425 251 463 251 504 C 251 544 250 587 249 631 C 248 675 246 720 244 767 C 241 814 237 862 231 911 C 224 964 218 1012 212 1054 C 206 1096 200 1136 196 1172 C 192 1208 188 1242 186 1274 C 183 1306 182 1338 182 1370 C 182 1388 183 1405 186 1423 C 188 1441 193 1457 200 1471 C 207 1485 217 1496 229 1505 C 241 1513 256 1518 276 1518 C 296 1518 312 1513 325 1505 C 337 1496 347 1485 354 1471 C 361 1457 366 1441 369 1423 C 371 1405 373 1388 373 1370 Z M 387 94 C 387 79 384 65 378 52 C 372 39 365 28 355 19 C 345 9 333 2 320 -3 C 307 -9 293 -12 279 -12 C 263 -12 249 -9 236 -3 C 223 2 212 9 203 19 C 193 28 186 39 180 52 C 174 65 172 79 172 94 C 172 108 174 122 180 136 C 186 149 193 160 203 170 C 212 179 223 186 236 192 C 249 198 263 201 279 201 C 293 201 307 198 320 192 C 333 186 345 179 355 170 C 365 160 372 149 378 136 C 384 122 387 108 387 94 Z" unicode="!" />
<glyph horiz-adv-x="766" d="M 623 1409 C 623 1389 621 1362 617 1327 C 613 1292 607 1253 601 1210 C 594 1166 586 1120 578 1071 C 570 1022 561 974 553 926 C 551 920 545 918 537 918 C 532 918 528 918 525 919 C 521 919 519 922 518 926 C 510 973 501 1021 493 1070 C 485 1119 477 1165 471 1209 C 464 1253 459 1292 455 1327 C 451 1362 449 1389 449 1409 C 449 1439 455 1465 469 1485 C 482 1505 505 1516 537 1516 C 568 1516 590 1505 603 1485 C 616 1465 623 1439 623 1409 Z M 319 1409 C 319 1389 316 1362 312 1327 C 308 1292 302 1253 296 1210 C 289 1166 282 1120 274 1071 C 266 1022 258 974 250 926 C 248 920 241 918 229 918 C 220 918 215 920 213 926 C 204 972 195 1020 187 1069 C 179 1118 171 1164 165 1208 C 158 1252 153 1291 149 1327 C 145 1362 143 1389 143 1409 C 143 1439 149 1465 162 1485 C 175 1505 197 1516 229 1516 C 261 1516 284 1505 298 1485 C 312 1465 319 1439 319 1409 Z" unicode="&#x22;" />
<glyph horiz-adv-x="1544" d="M 1341 1004 L 1323 879 L 983 879 L 932 539 L 1272 539 L 1253 414 L 909 414 L 842 -6 L 782 -6 L 850 414 L 590 414 L 524 -6 L 463 -6 L 528 414 L 195 414 L 213 539 L 551 539 L 604 879 L 264 879 L 283 1004 L 625 1004 L 686 1391 L 745 1391 L 684 1004 L 944 1004 L 1004 1391 L 1063 1391 L 1006 1004 L 1341 1004 Z M 924 879 L 666 879 L 610 539 L 868 539 L 924 879 Z" unicode="#" />
<glyph horiz-adv-x="1098" d="M 1026 397 C 1026 351 1017 304 1000 258 C 982 211 956 169 921 131 C 885 93 841 61 788 36 C 735 10 673 -3 602 -6 L 602 -279 L 541 -279 L 541 -12 C 452 -12 377 -2 317 18 C 257 38 208 62 171 92 C 134 121 108 153 92 187 C 76 221 68 253 68 281 C 68 303 71 323 78 339 C 84 355 93 369 104 379 C 115 389 128 396 142 401 C 156 405 170 408 186 408 C 204 408 220 405 233 399 C 245 393 255 386 263 377 C 271 367 276 357 280 346 C 283 334 285 323 285 311 C 285 299 283 287 280 276 C 277 265 272 255 264 245 C 256 235 246 225 232 215 C 218 205 200 194 178 184 C 198 165 220 148 243 132 C 266 116 292 102 321 90 C 350 78 382 68 418 61 C 454 53 495 49 541 49 L 541 653 C 520 662 500 670 480 678 C 460 685 437 694 412 705 C 382 717 350 732 318 750 C 285 768 255 790 228 816 C 201 842 179 874 161 910 C 143 946 135 989 135 1038 C 135 1090 144 1138 163 1182 C 182 1226 209 1264 245 1296 C 280 1328 323 1354 373 1374 C 423 1393 479 1405 541 1409 L 541 1516 L 602 1516 L 602 1411 C 655 1409 701 1403 741 1393 C 780 1383 813 1370 841 1355 C 868 1339 890 1322 907 1304 C 924 1286 937 1268 947 1250 C 956 1232 962 1215 966 1200 C 969 1184 971 1172 971 1163 C 971 1143 968 1127 963 1114 C 957 1100 950 1089 942 1080 C 934 1071 924 1065 913 1061 C 902 1057 891 1055 879 1055 C 867 1055 856 1056 845 1060 C 833 1063 823 1068 814 1075 C 804 1081 797 1090 791 1100 C 785 1110 782 1123 782 1137 C 782 1160 789 1179 803 1195 C 817 1211 839 1228 870 1247 C 858 1257 845 1267 831 1278 C 817 1288 801 1299 781 1309 C 761 1319 736 1328 708 1336 C 679 1344 644 1350 602 1354 L 602 805 C 633 793 663 782 693 770 C 723 758 757 741 795 721 C 829 703 861 683 889 661 C 917 639 942 615 962 589 C 982 563 998 534 1009 502 C 1020 470 1026 435 1026 397 Z M 883 326 C 883 340 881 358 879 381 C 877 404 869 429 855 456 C 841 483 820 511 790 539 C 760 567 718 592 664 616 L 602 643 L 602 55 C 646 61 686 73 721 89 C 755 105 785 124 809 148 C 833 171 851 198 864 228 C 876 258 883 290 883 326 Z M 541 817 L 541 1356 C 501 1351 465 1341 433 1327 C 400 1313 372 1295 349 1275 C 325 1254 307 1231 294 1205 C 280 1179 274 1152 274 1124 C 274 1096 276 1069 281 1044 C 286 1019 296 995 310 972 C 324 949 343 927 368 906 C 393 885 426 865 467 846 C 476 842 486 838 498 833 C 510 828 524 823 541 817 Z" unicode="$" />
<glyph horiz-adv-x="1673" d="M 1548 387 C 1548 327 1540 273 1525 225 C 1509 176 1488 134 1460 99 C 1432 64 1400 37 1363 18 C 1325 0 1285 -10 1241 -10 C 1197 -10 1157 0 1120 18 C 1082 37 1050 64 1023 99 C 995 134 974 176 959 225 C 943 273 936 327 936 387 C 936 446 943 500 958 549 C 973 598 994 640 1021 675 C 1048 709 1080 736 1118 755 C 1155 774 1196 784 1241 784 C 1285 784 1326 774 1364 755 C 1401 736 1433 709 1461 675 C 1488 640 1509 598 1525 549 C 1540 500 1548 446 1548 387 Z M 1303 1501 L 455 -20 L 371 -20 L 1219 1501 L 1303 1501 Z M 739 1092 C 739 1032 731 978 715 929 C 699 880 678 838 651 803 C 623 768 591 741 553 722 C 515 703 474 694 430 694 C 386 694 346 703 309 722 C 271 741 239 768 212 803 C 184 838 163 880 148 929 C 132 978 125 1032 125 1092 C 125 1151 132 1205 148 1254 C 163 1302 184 1344 211 1379 C 238 1414 270 1441 308 1460 C 345 1479 386 1489 430 1489 C 474 1489 516 1479 554 1460 C 592 1441 624 1414 652 1379 C 679 1344 700 1302 716 1254 C 731 1205 739 1151 739 1092 Z M 1423 387 C 1423 448 1418 500 1410 544 C 1401 587 1389 622 1373 650 C 1357 677 1338 697 1316 710 C 1294 722 1269 729 1241 729 C 1213 729 1189 722 1167 710 C 1145 697 1126 677 1110 650 C 1094 622 1082 587 1074 544 C 1065 500 1061 448 1061 387 C 1061 325 1065 273 1074 230 C 1082 186 1094 151 1110 124 C 1126 96 1145 76 1167 64 C 1189 51 1213 45 1241 45 C 1268 45 1293 51 1315 63 C 1337 75 1357 95 1373 123 C 1389 150 1401 185 1410 229 C 1418 272 1423 325 1423 387 Z M 614 1092 C 614 1153 609 1205 601 1249 C 592 1292 580 1327 564 1355 C 548 1382 528 1402 506 1415 C 483 1427 458 1434 430 1434 C 402 1434 378 1427 356 1415 C 334 1402 315 1382 299 1355 C 283 1327 271 1292 263 1249 C 254 1205 250 1153 250 1092 C 250 1030 254 978 263 935 C 271 891 283 856 299 829 C 315 801 334 781 356 769 C 378 756 402 750 430 750 C 458 750 483 756 506 768 C 528 780 548 800 564 828 C 580 855 592 890 601 934 C 609 977 614 1030 614 1092 Z" unicode="%" />
<glyph horiz-adv-x="1548" d="M 1556 61 C 1537 49 1518 38 1500 28 C 1482 18 1462 9 1440 1 C 1418 -6 1394 -12 1368 -16 C 1342 -20 1311 -23 1276 -23 C 1212 -23 1151 -6 1095 26 C 1039 59 987 103 940 158 C 871 99 802 54 734 23 C 665 -7 591 -23 512 -23 C 434 -23 366 -11 310 11 C 253 34 206 64 170 102 C 133 139 106 182 89 230 C 71 278 63 328 63 379 C 63 474 95 562 161 643 C 227 723 328 795 465 858 C 451 886 437 915 425 945 C 412 974 401 1003 392 1031 C 382 1059 375 1087 370 1114 C 364 1140 362 1166 362 1190 C 362 1233 370 1274 386 1314 C 402 1354 425 1389 456 1419 C 486 1449 524 1473 569 1491 C 613 1509 665 1518 723 1518 C 777 1518 825 1509 865 1492 C 905 1475 938 1453 964 1426 C 990 1399 1010 1369 1023 1337 C 1035 1304 1042 1272 1042 1241 C 1042 1193 1032 1148 1013 1107 C 993 1066 966 1029 930 996 C 894 962 852 933 802 908 C 752 882 696 862 635 846 C 659 800 685 756 712 714 C 738 672 765 632 791 594 C 809 564 827 537 844 513 C 860 488 877 464 894 441 C 910 417 927 394 945 371 C 963 347 982 323 1004 297 C 1038 333 1067 369 1092 405 C 1117 441 1138 474 1154 505 C 1170 535 1183 562 1191 584 C 1199 606 1204 621 1204 629 C 1204 653 1197 673 1183 689 C 1169 705 1146 717 1114 725 C 1100 728 1088 731 1078 735 C 1068 739 1063 745 1063 754 L 1063 782 L 1505 782 L 1505 754 C 1505 745 1499 738 1487 732 C 1475 726 1462 721 1448 717 C 1428 711 1410 705 1396 699 C 1382 693 1367 683 1353 671 C 1339 658 1323 641 1307 619 C 1291 597 1271 566 1247 528 C 1236 511 1223 491 1208 469 C 1192 446 1175 422 1157 398 C 1139 374 1119 349 1099 324 C 1079 299 1058 276 1038 256 C 1090 194 1142 145 1196 111 C 1249 76 1305 59 1364 59 C 1390 59 1419 64 1450 75 C 1480 85 1510 97 1538 111 L 1556 61 Z M 913 1241 C 913 1279 907 1313 895 1341 C 883 1369 868 1392 849 1411 C 830 1429 808 1443 784 1452 C 760 1461 735 1466 709 1466 C 679 1466 651 1460 627 1450 C 602 1440 581 1425 563 1407 C 545 1389 532 1367 522 1341 C 512 1315 508 1287 508 1257 C 508 1194 517 1132 536 1072 C 555 1011 580 951 610 893 C 658 910 698 929 732 951 C 765 972 793 994 816 1016 C 838 1038 856 1061 869 1084 C 881 1106 891 1128 898 1148 C 904 1168 908 1186 910 1202 C 912 1218 913 1231 913 1241 Z M 903 199 C 859 252 816 307 774 363 C 732 419 693 474 657 530 C 647 544 635 562 623 582 C 610 602 596 625 582 649 C 567 673 552 698 536 726 C 520 753 504 781 489 811 C 437 783 395 754 361 726 C 327 697 300 667 280 637 C 260 607 245 575 237 543 C 229 511 225 477 225 442 C 225 388 232 338 248 294 C 264 249 287 211 319 179 C 350 147 389 122 436 104 C 482 86 537 78 600 78 C 656 78 708 89 758 111 C 807 133 855 163 903 199 Z" unicode="&#x26;" />
<glyph horiz-adv-x="463" d="M 319 1409 C 319 1389 316 1362 312 1327 C 308 1292 302 1253 296 1210 C 289 1166 282 1120 274 1071 C 266 1022 258 974 250 926 C 248 920 241 918 229 918 C 220 918 215 920 213 926 C 204 972 195 1020 187 1069 C 179 1118 171 1164 165 1208 C 158 1252 153 1291 149 1327 C 145 1362 143 1389 143 1409 C 143 1439 149 1465 162 1485 C 175 1505 197 1516 229 1516 C 261 1516 284 1505 298 1485 C 312 1465 319 1439 319 1409 Z" unicode="'" />
<glyph horiz-adv-x="682" d="M 651 -346 L 610 -387 C 540 -333 474 -271 414 -201 C 353 -131 300 -56 256 25 C 212 106 177 192 151 283 C 125 374 113 469 113 567 C 113 658 125 748 149 838 C 173 927 208 1013 252 1095 C 296 1177 348 1253 409 1325 C 470 1397 537 1461 610 1518 L 651 1475 C 587 1426 531 1369 483 1304 C 435 1238 394 1167 361 1089 C 327 1011 302 928 285 840 C 268 752 260 661 260 567 C 260 363 293 185 359 33 C 425 -118 522 -244 651 -346 Z" unicode="(" />
<glyph horiz-adv-x="682" d="M 571 567 C 571 469 558 374 532 283 C 506 192 471 106 427 25 C 383 -56 330 -131 270 -201 C 209 -271 144 -333 74 -387 L 33 -346 C 161 -244 259 -118 325 33 C 391 185 424 363 424 567 C 424 661 415 752 398 840 C 381 928 356 1011 323 1089 C 289 1167 248 1238 200 1304 C 151 1369 95 1426 33 1475 L 74 1518 C 146 1461 213 1397 274 1325 C 335 1253 388 1177 432 1095 C 476 1013 510 927 534 838 C 558 748 571 658 571 567 Z" unicode=")" />
<glyph horiz-adv-x="836" d="M 758 1286 C 758 1262 745 1243 719 1227 C 696 1213 677 1205 661 1202 C 645 1199 627 1196 609 1193 C 591 1190 569 1185 544 1178 C 519 1170 486 1156 446 1135 C 472 1121 496 1110 516 1102 C 536 1094 553 1088 569 1084 C 584 1080 598 1077 610 1075 C 622 1073 633 1071 644 1069 C 655 1067 666 1063 678 1059 C 689 1055 702 1048 717 1040 C 730 1032 740 1022 746 1012 C 752 1001 756 990 756 979 C 756 961 749 946 736 934 C 722 921 707 915 690 915 C 678 915 667 917 657 923 C 646 928 636 935 626 943 C 616 951 607 959 599 969 C 591 978 584 987 578 995 C 571 1003 564 1011 557 1019 C 550 1027 541 1035 531 1043 C 521 1051 507 1061 491 1071 C 475 1081 454 1094 430 1108 C 430 1078 432 1052 436 1032 C 439 1012 442 994 446 980 C 450 965 454 952 458 942 C 462 931 466 920 470 910 C 474 900 477 889 479 877 C 481 865 483 850 483 834 C 483 810 476 793 462 782 C 448 771 433 766 418 766 C 397 766 380 772 367 784 C 354 796 348 813 348 834 C 348 850 349 865 351 877 C 353 889 356 900 360 910 C 363 920 367 930 371 941 C 375 951 380 964 384 979 C 388 993 391 1011 395 1031 C 398 1051 401 1077 403 1108 C 377 1095 357 1084 341 1074 C 325 1064 311 1056 301 1048 C 291 1040 282 1032 276 1026 C 270 1019 264 1012 258 1006 C 250 996 242 985 234 975 C 226 965 217 955 208 947 C 199 939 189 932 179 926 C 169 920 157 918 145 918 C 125 918 109 924 96 936 C 82 948 76 963 76 981 C 76 1005 89 1024 115 1040 C 130 1048 144 1055 156 1059 C 168 1063 179 1067 190 1069 C 201 1071 213 1073 225 1075 C 237 1077 250 1080 265 1084 C 280 1088 298 1094 318 1102 C 338 1110 361 1121 389 1135 C 361 1149 338 1159 318 1167 C 298 1175 280 1181 265 1185 C 249 1189 236 1192 224 1194 C 212 1196 201 1198 190 1200 C 179 1202 168 1206 156 1210 C 144 1214 131 1220 117 1229 C 102 1237 92 1246 86 1256 C 80 1266 78 1276 78 1288 C 78 1305 84 1320 97 1333 C 110 1345 125 1352 143 1352 C 154 1352 165 1349 175 1345 C 185 1340 195 1334 205 1326 C 215 1318 224 1310 232 1301 C 240 1291 248 1282 256 1272 C 262 1263 269 1255 276 1247 C 282 1239 291 1230 301 1222 C 311 1214 325 1205 341 1195 C 357 1185 377 1173 403 1161 C 401 1190 399 1215 396 1235 C 393 1255 390 1272 386 1287 C 382 1301 377 1314 373 1325 C 369 1335 365 1346 362 1356 C 358 1366 355 1378 353 1390 C 351 1402 350 1416 350 1434 C 350 1455 357 1471 371 1483 C 385 1495 401 1501 418 1501 C 437 1501 453 1495 466 1483 C 478 1471 485 1454 485 1434 C 485 1416 483 1402 481 1390 C 479 1378 476 1367 472 1357 C 468 1346 464 1335 460 1325 C 456 1315 452 1302 448 1288 C 444 1273 441 1255 438 1235 C 434 1215 432 1190 432 1161 C 456 1175 476 1187 492 1197 C 508 1207 521 1215 532 1223 C 542 1231 551 1238 557 1244 C 563 1250 569 1257 575 1264 C 582 1272 590 1282 598 1292 C 606 1302 614 1311 624 1320 C 633 1328 643 1335 654 1341 C 664 1347 676 1350 688 1350 C 707 1350 723 1343 737 1331 C 751 1318 758 1303 758 1286 Z" unicode="*" />
<glyph horiz-adv-x="1544" d="M 1311 559 L 817 559 L 817 84 L 727 84 L 727 559 L 233 559 L 233 641 L 727 641 L 727 1116 L 817 1116 L 817 641 L 1311 641 L 1311 559 Z" unicode="+" />
<glyph horiz-adv-x="446" d="M 332 66 C 332 38 327 8 318 -26 C 309 -60 295 -94 275 -128 C 255 -162 230 -196 199 -228 C 168 -260 131 -289 88 -313 L 55 -283 C 75 -268 96 -251 117 -232 C 137 -213 157 -192 175 -169 C 193 -145 210 -119 225 -91 C 240 -62 252 -30 262 4 C 232 4 208 7 190 13 C 172 19 158 26 148 35 C 138 44 131 54 128 65 C 124 76 123 88 123 100 C 123 116 125 131 131 143 C 136 155 143 166 152 175 C 161 183 172 190 184 194 C 196 198 208 201 221 201 C 241 201 259 197 273 191 C 287 184 299 175 308 163 C 316 151 322 136 326 120 C 330 104 332 86 332 66 Z" unicode="," />
<glyph horiz-adv-x="635" d="M 545 403 L 90 403 L 90 512 L 545 512 L 545 403 Z" unicode="-" />
<glyph horiz-adv-x="446" d="M 334 94 C 334 79 331 65 325 52 C 319 39 312 28 302 19 C 292 9 280 2 267 -3 C 253 -9 239 -12 225 -12 C 195 -12 169 -1 149 18 C 129 38 119 64 119 94 C 119 108 121 122 127 136 C 133 149 140 160 150 170 C 159 179 170 186 183 192 C 196 198 210 201 225 201 C 239 201 253 198 267 192 C 280 186 292 179 302 170 C 312 160 319 149 325 136 C 331 122 334 108 334 94 Z" unicode="." />
<glyph horiz-adv-x="905" d="M 825 1495 L 53 -389 L -39 -389 L 729 1495 L 825 1495 Z" unicode="/" />
<glyph horiz-adv-x="1198" d="M 1112 700 C 1112 592 1099 493 1074 405 C 1049 316 1014 240 969 177 C 924 114 870 65 808 31 C 746 -2 677 -20 602 -20 C 525 -20 455 -2 392 31 C 328 65 274 114 229 177 C 183 240 148 316 123 405 C 98 493 86 592 86 700 C 86 806 98 904 123 993 C 147 1082 182 1158 228 1222 C 273 1285 327 1334 391 1370 C 454 1405 524 1423 602 1423 C 678 1423 747 1405 809 1370 C 871 1334 925 1285 970 1222 C 1015 1158 1050 1082 1075 993 C 1099 904 1112 806 1112 700 Z M 940 700 C 940 821 931 924 915 1008 C 899 1092 876 1161 847 1214 C 817 1266 782 1304 740 1328 C 698 1352 652 1364 602 1364 C 550 1364 502 1352 460 1328 C 418 1304 382 1265 352 1212 C 322 1159 298 1091 282 1007 C 266 923 258 820 258 700 C 258 579 266 476 282 392 C 298 308 322 239 352 187 C 382 134 418 96 460 72 C 502 48 550 37 602 37 C 652 37 697 48 739 72 C 780 95 815 133 845 186 C 875 238 898 307 915 391 C 931 475 940 578 940 700 Z" unicode="0" />
<glyph horiz-adv-x="764" d="M 680 0 L 137 0 L 137 33 C 137 37 139 41 144 44 C 148 47 154 49 162 51 C 169 53 178 54 188 56 C 198 57 208 59 219 61 C 241 65 260 68 275 72 C 290 76 302 81 311 87 C 319 93 325 102 329 113 C 332 123 334 138 334 156 L 334 1239 L 102 1239 L 102 1280 L 438 1407 L 483 1407 L 483 156 C 483 138 484 123 488 113 C 491 102 497 93 506 87 C 514 81 526 76 541 72 C 555 68 574 65 598 61 C 608 59 619 57 629 56 C 639 54 647 53 655 51 C 662 49 668 47 673 44 C 677 41 680 37 680 33 L 680 0 Z" unicode="1" />
<glyph horiz-adv-x="1006" d="M 940 1075 C 940 1029 932 985 917 944 C 901 902 881 863 856 826 C 831 789 803 754 772 722 C 740 690 708 660 676 632 C 644 604 612 579 582 557 C 552 534 526 514 504 496 C 472 470 440 443 410 417 C 379 390 349 362 319 333 C 289 304 259 273 229 240 C 199 207 169 171 139 133 L 715 133 C 735 133 753 134 769 138 C 785 141 799 148 812 158 C 824 168 835 182 845 200 C 854 218 862 242 870 272 C 872 278 874 282 877 285 C 879 288 882 290 886 291 C 889 291 893 291 897 291 C 901 291 905 291 909 291 L 938 291 L 930 0 L 47 0 L 47 102 C 69 136 97 175 132 219 C 166 262 204 306 245 352 C 285 398 327 444 371 490 C 415 536 457 579 498 621 C 534 657 568 694 601 731 C 633 767 662 805 686 843 C 710 881 730 921 744 962 C 758 1003 766 1046 766 1092 C 766 1133 758 1170 744 1204 C 730 1237 709 1265 683 1289 C 656 1312 624 1330 587 1343 C 549 1355 507 1362 461 1362 C 427 1362 396 1356 366 1346 C 336 1335 309 1321 285 1305 C 261 1289 240 1271 224 1251 C 208 1231 197 1212 193 1194 C 215 1176 233 1159 247 1142 C 261 1124 268 1102 268 1075 C 268 1047 260 1024 244 1007 C 228 989 206 981 180 981 C 142 981 115 992 97 1015 C 79 1037 70 1068 70 1106 C 70 1143 82 1180 106 1218 C 130 1256 162 1290 203 1320 C 243 1350 290 1375 344 1394 C 398 1413 454 1423 514 1423 C 578 1423 637 1414 690 1398 C 742 1382 787 1359 824 1329 C 861 1299 890 1262 910 1219 C 930 1176 940 1128 940 1075 Z" unicode="2" />
<glyph horiz-adv-x="1022" d="M 965 406 C 965 358 957 315 943 275 C 928 235 908 200 883 169 C 857 137 827 110 793 86 C 758 62 721 43 682 27 C 642 11 601 0 559 -8 C 516 -16 474 -20 432 -20 C 374 -20 321 -13 271 -1 C 221 11 178 29 141 52 C 104 75 75 102 54 134 C 33 166 23 201 23 240 C 23 251 25 263 29 276 C 33 288 39 300 48 311 C 56 321 67 330 81 337 C 95 344 111 348 131 348 C 147 348 162 345 174 340 C 186 334 197 328 205 320 C 213 312 219 304 223 295 C 227 286 229 278 229 270 C 229 256 227 243 225 233 C 222 222 218 212 214 203 C 209 194 203 185 197 177 C 191 169 184 160 176 150 C 183 135 194 121 210 108 C 225 94 243 82 265 72 C 286 62 310 54 337 48 C 363 42 392 39 422 39 C 484 39 539 49 585 70 C 631 91 669 119 699 153 C 729 187 751 225 766 268 C 780 311 788 355 788 399 C 788 459 778 509 759 551 C 739 593 711 627 673 653 C 635 679 589 698 533 710 C 477 722 414 728 342 729 L 342 788 C 420 795 485 807 536 823 C 587 839 627 860 657 887 C 687 914 707 947 719 986 C 731 1025 737 1072 737 1126 C 737 1154 731 1182 720 1210 C 709 1238 693 1264 671 1286 C 649 1308 621 1327 587 1341 C 553 1355 513 1362 467 1362 C 434 1362 405 1359 380 1354 C 354 1348 331 1341 311 1332 C 290 1322 271 1312 255 1300 C 239 1288 223 1275 209 1262 C 221 1250 232 1240 241 1232 C 250 1223 257 1215 263 1207 C 268 1199 272 1190 275 1181 C 277 1171 279 1161 279 1149 C 279 1121 270 1098 253 1082 C 236 1065 212 1057 180 1057 C 152 1057 129 1067 111 1087 C 93 1107 84 1135 84 1171 C 84 1207 96 1241 121 1272 C 145 1302 177 1329 216 1351 C 255 1373 299 1391 347 1404 C 395 1416 444 1423 492 1423 C 550 1423 605 1415 656 1400 C 707 1385 751 1364 789 1337 C 827 1310 856 1278 878 1240 C 900 1202 911 1160 911 1114 C 911 1068 902 1027 884 992 C 866 956 842 925 812 899 C 781 873 745 850 705 832 C 665 814 622 798 578 786 L 580 760 C 626 755 672 745 718 730 C 764 715 805 693 841 665 C 877 637 907 601 930 559 C 953 517 965 466 965 406 Z" unicode="3" />
<glyph horiz-adv-x="1049" d="M 1026 381 L 803 381 L 803 152 C 803 134 804 119 806 109 C 808 98 811 89 817 83 C 822 77 829 72 839 68 C 849 64 861 61 877 57 C 890 53 902 50 912 46 C 922 42 928 37 928 29 L 928 0 L 528 0 L 528 29 C 528 37 533 42 544 46 C 554 50 566 53 580 57 C 595 61 607 64 617 68 C 626 72 633 77 639 83 C 644 89 648 98 650 109 C 652 119 653 134 653 152 L 653 381 L -14 381 L -14 449 L 727 1423 L 803 1423 L 803 463 L 1026 463 L 1026 381 Z M 653 463 L 653 1219 L 80 463 L 653 463 Z" unicode="4" />
<glyph horiz-adv-x="1030" d="M 969 465 C 969 391 954 324 926 264 C 898 204 859 154 811 112 C 762 70 706 37 642 14 C 578 -8 510 -20 438 -20 C 384 -20 333 -13 286 -1 C 239 11 198 29 163 52 C 128 74 101 101 81 132 C 61 163 51 197 51 233 C 51 247 53 260 57 274 C 61 288 67 300 76 311 C 84 322 96 331 110 338 C 124 344 140 348 160 348 C 175 348 188 345 200 340 C 211 334 220 328 228 320 C 236 312 242 303 246 294 C 250 284 252 276 252 268 C 252 254 251 241 249 231 C 247 221 243 211 239 203 C 235 194 229 185 223 177 C 217 168 209 158 201 147 C 207 133 218 119 234 106 C 250 93 269 82 291 72 C 313 62 338 54 366 48 C 393 42 421 39 451 39 C 507 39 556 50 598 72 C 640 94 676 123 705 159 C 734 195 756 235 771 281 C 785 326 793 372 793 418 C 793 470 786 520 774 566 C 762 612 742 652 716 686 C 690 720 656 747 615 767 C 574 787 525 797 467 797 C 435 797 406 794 379 789 C 352 784 326 777 302 768 C 278 758 254 747 232 733 C 209 719 186 702 164 684 L 123 711 L 160 1401 L 713 1401 C 737 1401 757 1401 772 1402 C 786 1403 798 1406 806 1411 C 814 1415 820 1422 824 1431 C 828 1439 832 1452 836 1468 C 840 1481 843 1488 847 1490 C 851 1492 856 1493 864 1493 L 895 1493 L 879 1270 L 225 1270 L 203 780 C 262 818 316 845 366 861 C 416 877 464 885 510 885 C 591 885 661 872 719 846 C 777 820 824 787 861 747 C 898 706 925 661 943 611 C 960 561 969 513 969 465 Z" unicode="5" />
<glyph horiz-adv-x="1137" d="M 1077 463 C 1077 399 1065 337 1042 279 C 1018 221 985 169 942 125 C 899 81 847 45 786 19 C 724 -6 656 -20 580 -20 C 501 -20 431 -3 370 28 C 308 60 257 106 215 164 C 173 222 141 291 119 372 C 97 452 86 541 86 637 C 86 703 91 769 103 834 C 114 899 131 961 154 1019 C 176 1077 205 1130 239 1180 C 273 1229 313 1272 359 1308 C 405 1344 456 1372 514 1392 C 572 1412 635 1423 705 1423 C 750 1423 791 1418 829 1408 C 866 1398 898 1385 924 1368 C 950 1351 971 1331 986 1309 C 1000 1286 1008 1261 1008 1235 C 1008 1205 1000 1180 984 1162 C 968 1144 946 1135 918 1135 C 884 1135 860 1143 846 1160 C 832 1177 825 1201 823 1231 L 815 1327 C 811 1329 804 1332 796 1336 C 787 1340 776 1343 764 1347 C 752 1351 738 1354 722 1357 C 706 1360 690 1362 672 1362 C 620 1362 570 1350 521 1326 C 471 1302 427 1263 388 1209 C 348 1155 316 1083 292 995 C 267 906 254 797 252 668 C 312 725 376 770 444 804 C 512 837 586 854 666 854 C 726 854 782 844 832 824 C 882 804 926 777 962 742 C 998 707 1027 666 1047 618 C 1067 570 1077 519 1077 463 Z M 905 442 C 905 483 899 523 887 562 C 875 601 857 636 833 666 C 808 696 776 720 738 738 C 700 756 654 766 600 766 C 558 766 517 759 479 746 C 441 732 406 716 376 698 C 345 680 319 661 298 642 C 276 623 262 608 254 596 C 254 530 260 463 273 397 C 286 331 306 271 333 218 C 360 165 395 122 437 89 C 479 55 528 39 586 39 C 642 39 690 50 730 73 C 770 95 803 125 829 163 C 855 200 874 243 886 292 C 898 340 905 390 905 442 Z" unicode="6" />
<glyph horiz-adv-x="944" d="M 956 1321 C 886 1215 821 1117 761 1025 C 700 933 647 841 602 750 C 557 658 522 564 496 466 C 470 368 457 261 457 145 C 457 87 450 44 437 16 C 424 -11 398 -25 358 -25 C 324 -25 298 -15 281 3 C 264 22 256 54 256 100 C 256 136 264 182 282 237 C 299 292 322 353 352 419 C 381 485 415 556 454 630 C 492 704 533 778 577 852 C 621 926 665 998 711 1069 C 757 1139 801 1204 844 1264 L 193 1264 C 177 1264 164 1261 154 1257 C 144 1253 135 1246 129 1238 C 122 1229 117 1218 113 1206 C 109 1194 106 1179 102 1163 C 100 1151 95 1145 88 1145 C 81 1145 74 1145 68 1145 L 31 1145 L 55 1413 C 69 1411 87 1410 107 1409 C 127 1407 148 1406 172 1405 C 196 1404 220 1403 246 1402 C 271 1401 296 1401 322 1401 L 956 1401 L 956 1321 Z" unicode="7" />
<glyph horiz-adv-x="1063" d="M 1014 373 C 1014 312 1000 257 972 209 C 944 160 907 118 861 84 C 815 50 761 23 700 5 C 638 -13 574 -23 508 -23 C 438 -23 374 -14 318 4 C 261 22 213 47 174 79 C 134 111 104 148 83 192 C 61 236 51 283 51 334 C 51 382 61 426 81 466 C 101 506 127 542 159 574 C 191 606 228 634 270 658 C 311 682 353 701 397 717 C 353 738 314 761 280 786 C 245 810 215 837 191 865 C 167 893 148 924 135 957 C 121 989 115 1025 115 1063 C 115 1117 126 1166 149 1210 C 172 1254 203 1292 242 1324 C 281 1356 326 1380 377 1397 C 428 1414 482 1423 539 1423 C 599 1423 654 1415 704 1401 C 754 1387 796 1366 832 1340 C 868 1313 895 1281 915 1243 C 934 1205 944 1164 944 1118 C 944 1079 935 1042 917 1008 C 899 973 875 941 846 912 C 817 883 784 857 747 835 C 710 813 673 795 635 782 C 693 757 746 731 793 704 C 840 677 880 647 913 615 C 945 582 970 546 988 506 C 1005 466 1014 422 1014 373 Z M 821 1120 C 821 1154 814 1185 800 1215 C 786 1245 767 1271 742 1293 C 716 1315 686 1332 650 1345 C 614 1357 574 1364 530 1364 C 488 1364 449 1358 414 1346 C 379 1334 349 1317 324 1296 C 299 1274 280 1249 266 1219 C 252 1189 246 1157 246 1122 C 246 1078 255 1041 274 1009 C 293 977 318 948 350 924 C 382 900 418 878 459 860 C 500 841 542 823 586 807 C 614 820 643 836 671 854 C 699 872 725 894 747 920 C 769 945 786 974 800 1007 C 814 1040 821 1078 821 1120 Z M 872 332 C 872 362 867 389 859 414 C 851 438 839 461 824 482 C 809 502 791 521 770 538 C 749 555 726 570 702 584 C 667 603 631 620 594 635 C 556 650 514 668 467 690 C 441 678 412 663 380 647 C 348 630 317 608 289 582 C 260 555 236 522 217 483 C 197 443 188 396 188 340 C 188 294 196 253 212 216 C 228 179 250 147 280 121 C 309 94 344 73 386 59 C 427 44 473 37 524 37 C 568 37 610 43 652 56 C 694 69 731 88 764 113 C 796 138 822 169 842 206 C 862 242 872 284 872 332 Z" unicode="8" />
<glyph horiz-adv-x="1137" d="M 1049 766 C 1049 702 1043 639 1032 575 C 1021 511 1004 451 982 393 C 960 335 932 280 898 230 C 864 180 824 136 778 99 C 732 62 680 33 622 12 C 564 -9 500 -20 430 -20 C 378 -20 332 -15 292 -5 C 252 5 219 18 192 36 C 164 53 144 73 130 96 C 116 119 109 144 109 170 C 109 200 118 224 136 241 C 154 257 177 266 205 266 C 235 266 257 257 269 240 C 281 222 289 200 293 174 L 303 72 C 313 63 332 55 358 49 C 384 42 419 39 461 39 C 492 39 524 44 557 54 C 589 64 621 81 652 104 C 683 127 712 157 740 193 C 767 229 791 273 812 325 C 833 377 850 437 863 506 C 876 574 884 652 887 739 C 824 679 758 632 690 598 C 622 564 549 547 471 547 C 409 547 353 557 303 577 C 253 597 210 625 174 661 C 138 697 110 739 90 787 C 70 835 61 888 61 944 C 61 1008 72 1069 96 1127 C 120 1185 153 1235 197 1279 C 240 1323 292 1358 353 1384 C 414 1410 482 1423 557 1423 C 639 1423 710 1405 772 1370 C 833 1334 884 1287 925 1227 C 966 1167 997 1097 1018 1018 C 1038 938 1049 854 1049 766 Z M 879 805 C 879 849 876 894 870 940 C 864 985 856 1028 844 1070 C 832 1111 816 1149 798 1185 C 780 1221 758 1252 733 1279 C 708 1305 680 1326 648 1341 C 616 1356 581 1364 543 1364 C 488 1364 441 1353 402 1331 C 362 1309 330 1280 305 1244 C 280 1207 262 1164 250 1115 C 238 1066 233 1015 233 961 C 233 918 238 877 250 838 C 262 798 280 764 305 734 C 329 704 361 680 400 662 C 438 644 485 635 539 635 C 579 635 618 641 655 655 C 692 668 726 684 756 703 C 786 721 811 740 833 759 C 854 778 869 793 879 805 Z" unicode="9" />
<glyph horiz-adv-x="500" d="M 360 788 C 360 773 357 759 351 746 C 345 733 338 722 328 713 C 318 703 306 696 293 690 C 280 684 266 682 252 682 C 237 682 223 684 210 690 C 197 696 186 703 176 713 C 166 722 159 733 153 746 C 147 759 145 773 145 788 C 145 802 147 816 153 830 C 159 843 166 854 176 864 C 186 873 197 880 210 886 C 223 892 237 895 252 895 C 266 895 280 892 293 886 C 306 880 318 873 328 864 C 338 854 345 843 351 830 C 357 816 360 802 360 788 Z M 360 94 C 360 79 357 65 351 52 C 345 39 338 28 328 19 C 318 9 306 2 293 -3 C 280 -9 266 -12 252 -12 C 237 -12 223 -9 210 -3 C 197 2 186 9 176 19 C 166 28 159 39 153 52 C 147 65 145 79 145 94 C 145 108 147 122 153 136 C 159 149 166 160 176 170 C 186 179 197 186 210 192 C 223 198 237 201 252 201 C 266 201 280 198 293 192 C 306 186 318 179 328 170 C 338 160 345 149 351 136 C 357 122 360 108 360 94 Z" unicode=":" />
<glyph horiz-adv-x="524" d="M 360 788 C 360 773 357 759 351 746 C 345 733 338 722 328 713 C 318 703 306 696 293 690 C 280 684 266 682 252 682 C 237 682 223 684 210 690 C 197 696 186 703 176 713 C 166 722 159 733 153 746 C 147 759 145 773 145 788 C 145 802 147 816 153 830 C 159 843 166 854 176 864 C 186 873 197 880 210 886 C 223 892 237 895 252 895 C 266 895 280 892 293 886 C 306 880 318 873 328 864 C 338 854 345 843 351 830 C 357 816 360 802 360 788 Z M 360 66 C 360 38 355 8 346 -26 C 337 -60 323 -94 303 -128 C 283 -162 258 -196 228 -228 C 197 -260 160 -289 117 -313 L 84 -283 C 104 -268 125 -251 146 -232 C 166 -213 186 -192 204 -169 C 222 -145 239 -119 254 -91 C 269 -62 281 -30 291 4 C 261 4 237 7 219 13 C 201 19 187 26 177 35 C 167 44 160 54 157 65 C 153 76 152 88 152 100 C 152 116 154 131 160 143 C 165 155 172 166 181 175 C 190 183 201 190 213 194 C 225 198 237 201 250 201 C 270 201 288 197 302 191 C 316 184 328 175 336 163 C 344 151 350 136 354 120 C 358 104 360 86 360 66 Z" unicode=";" />
<glyph horiz-adv-x="1544" d="M 1284 96 L 262 561 L 262 639 L 1284 1104 L 1284 1012 L 360 600 L 1284 188 L 1284 96 Z" unicode="&#x3C;" />
<glyph horiz-adv-x="1544" d="M 1294 692 L 252 692 L 252 770 L 1294 770 L 1294 692 Z M 1294 356 L 252 356 L 252 434 L 1294 434 L 1294 356 Z" unicode="=" />
<glyph horiz-adv-x="1544" d="M 1284 561 L 262 96 L 262 188 L 1186 602 L 262 1012 L 262 1104 L 1284 639 L 1284 561 Z" unicode="&#x3E;" />
<glyph horiz-adv-x="877" d="M 807 1221 C 807 1188 802 1158 794 1131 C 785 1104 773 1078 757 1053 C 741 1028 723 1003 701 978 C 679 953 655 926 629 897 C 585 849 550 805 524 764 C 498 722 479 682 465 642 C 451 602 442 563 438 523 C 433 483 430 441 428 397 C 428 393 425 388 421 383 C 417 377 409 375 399 375 C 385 375 376 377 372 383 C 367 388 365 393 365 397 C 364 428 365 462 369 498 C 373 534 379 571 389 610 C 398 649 410 689 426 730 C 441 771 460 812 483 854 C 505 894 525 929 545 961 C 564 992 581 1021 595 1049 C 609 1077 620 1104 628 1130 C 636 1156 641 1184 641 1214 C 641 1264 634 1305 620 1337 C 606 1369 587 1395 565 1414 C 543 1432 518 1445 490 1453 C 462 1460 435 1464 408 1464 C 392 1464 374 1462 356 1458 C 338 1454 320 1447 303 1439 C 285 1430 269 1419 254 1405 C 239 1391 227 1375 217 1356 C 230 1343 240 1331 248 1321 C 256 1311 261 1302 265 1294 C 269 1286 271 1279 272 1273 C 273 1267 274 1261 274 1257 C 274 1224 266 1200 251 1184 C 236 1168 215 1161 188 1161 C 156 1161 130 1170 112 1190 C 93 1209 84 1234 84 1266 C 84 1294 91 1323 107 1353 C 122 1383 145 1410 175 1434 C 205 1458 243 1478 288 1494 C 332 1510 384 1518 442 1518 C 497 1518 547 1510 592 1496 C 637 1482 675 1462 707 1436 C 739 1410 763 1378 781 1342 C 798 1306 807 1265 807 1221 Z M 508 94 C 508 79 505 65 499 52 C 493 39 486 28 476 19 C 466 9 454 2 441 -3 C 427 -9 413 -12 399 -12 C 369 -12 343 -1 323 18 C 303 38 293 64 293 94 C 293 108 295 122 301 136 C 307 149 314 160 324 170 C 333 179 344 186 357 192 C 370 198 384 201 399 201 C 413 201 427 198 441 192 C 454 186 466 179 476 170 C 486 160 493 149 499 136 C 505 122 508 108 508 94 Z" unicode="?" />
<glyph horiz-adv-x="1970" d="M 1823 635 C 1823 583 1817 531 1805 479 C 1793 427 1777 378 1755 330 C 1733 282 1706 238 1674 197 C 1642 155 1607 119 1567 89 C 1527 59 1483 35 1435 18 C 1387 0 1336 -8 1282 -8 C 1254 -8 1231 -3 1213 4 C 1195 12 1181 23 1171 37 C 1161 51 1154 67 1150 85 C 1146 103 1143 123 1143 143 C 1111 119 1082 99 1058 82 C 1033 64 1009 50 986 39 C 962 27 938 19 914 14 C 890 8 862 6 831 6 C 791 6 757 12 728 24 C 698 36 674 53 654 75 C 634 97 620 125 610 157 C 600 189 596 224 596 264 C 596 306 601 349 612 392 C 623 434 639 476 660 517 C 681 557 707 597 737 635 C 767 673 800 708 838 741 C 891 789 945 824 999 847 C 1053 869 1107 881 1163 881 C 1201 881 1234 875 1263 863 C 1292 851 1320 829 1346 799 L 1423 866 L 1452 866 L 1298 260 C 1292 241 1287 220 1283 198 C 1278 176 1276 156 1276 139 C 1276 107 1282 84 1296 70 C 1310 56 1326 49 1346 49 C 1383 49 1419 56 1453 72 C 1487 88 1519 109 1549 137 C 1579 165 1606 198 1630 236 C 1654 274 1675 316 1693 361 C 1710 406 1723 454 1733 504 C 1742 554 1747 605 1747 657 C 1747 735 1732 809 1704 879 C 1676 948 1635 1009 1581 1061 C 1527 1113 1461 1154 1383 1184 C 1305 1214 1216 1229 1118 1229 C 1000 1229 891 1207 791 1163 C 691 1119 604 1059 530 983 C 456 906 399 815 357 711 C 315 607 295 494 295 373 C 295 265 313 168 350 80 C 386 -7 438 -82 504 -145 C 570 -207 649 -256 741 -290 C 833 -324 935 -342 1047 -342 C 1149 -342 1250 -326 1348 -294 C 1446 -262 1544 -211 1642 -141 L 1667 -188 C 1473 -333 1267 -406 1049 -406 C 909 -406 785 -385 675 -345 C 565 -305 473 -249 397 -177 C 321 -105 262 -21 222 76 C 182 174 162 280 162 395 C 162 478 173 558 195 635 C 217 712 249 784 290 851 C 330 918 379 979 436 1034 C 493 1088 556 1135 626 1175 C 695 1214 769 1244 849 1266 C 929 1287 1012 1298 1098 1298 C 1208 1298 1308 1281 1398 1249 C 1487 1217 1563 1171 1626 1113 C 1689 1054 1738 984 1772 903 C 1806 822 1823 733 1823 635 Z M 1264 739 C 1264 767 1255 788 1238 804 C 1220 819 1192 827 1153 827 C 1111 827 1071 818 1033 802 C 995 785 958 756 924 715 C 898 685 875 653 855 618 C 834 582 816 546 801 509 C 786 471 774 434 766 396 C 758 358 754 321 754 287 C 754 153 814 86 934 86 C 950 86 967 89 985 95 C 1003 101 1022 110 1041 120 C 1059 130 1077 143 1095 157 C 1112 171 1128 187 1143 203 L 1251 629 C 1256 650 1259 671 1261 691 C 1263 711 1264 727 1264 739 Z" unicode="@" />
<glyph horiz-adv-x="1409" d="M 1425 0 L 999 0 L 999 29 C 999 37 1004 42 1015 46 C 1025 50 1037 53 1051 57 C 1082 65 1102 74 1111 82 C 1119 90 1124 98 1124 106 C 1124 110 1122 117 1120 125 C 1118 133 1115 141 1112 150 C 1109 159 1106 168 1103 177 C 1099 185 1096 193 1094 199 L 995 442 L 340 442 L 238 199 C 236 194 233 187 230 179 C 226 170 223 161 220 152 C 217 142 214 133 212 125 C 210 116 209 110 209 106 C 209 98 213 90 222 82 C 230 74 251 65 283 57 C 296 53 308 50 319 46 C 330 42 336 37 336 29 L 336 0 L -18 0 L -18 29 C -18 37 -11 43 0 48 C 12 52 25 58 39 66 C 53 72 65 81 75 92 C 85 103 93 115 101 127 C 109 139 115 150 121 162 C 126 174 131 184 135 193 L 631 1311 L 584 1409 C 582 1413 580 1415 580 1417 C 580 1418 580 1421 580 1425 C 580 1427 581 1429 583 1431 C 585 1433 588 1434 590 1436 C 612 1446 632 1457 648 1468 C 664 1479 683 1493 705 1511 C 707 1513 708 1515 710 1515 C 712 1515 713 1516 715 1516 C 718 1516 720 1515 720 1514 C 720 1512 721 1511 723 1509 L 1282 145 C 1284 137 1288 129 1293 121 C 1297 112 1303 103 1311 95 C 1318 87 1327 79 1337 73 C 1347 66 1360 61 1374 57 C 1387 53 1399 50 1409 46 C 1419 42 1425 37 1425 29 L 1425 0 Z M 971 504 L 674 1227 L 367 504 L 971 504 Z" unicode="A" />
<glyph horiz-adv-x="1276" d="M 1214 397 C 1214 343 1201 293 1177 245 C 1152 197 1116 154 1068 118 C 1020 82 961 53 891 32 C 821 10 741 0 651 0 L 74 0 L 74 29 C 74 37 79 42 89 46 C 99 50 111 53 125 57 C 140 61 152 64 162 68 C 172 72 179 77 185 83 C 190 89 194 98 196 109 C 198 119 199 134 199 152 L 199 1343 C 199 1361 198 1375 196 1386 C 194 1396 190 1405 185 1411 C 179 1417 172 1422 162 1426 C 152 1430 140 1434 125 1438 C 111 1441 99 1444 89 1448 C 79 1452 74 1458 74 1466 L 74 1495 L 590 1495 C 682 1495 761 1486 829 1469 C 896 1451 952 1427 996 1396 C 1040 1365 1072 1328 1094 1286 C 1115 1243 1126 1197 1126 1147 C 1126 1107 1118 1067 1103 1029 C 1087 990 1065 955 1035 923 C 1005 891 967 863 923 840 C 879 816 828 800 770 791 L 770 774 C 832 768 891 757 945 739 C 999 721 1046 697 1086 667 C 1126 636 1157 598 1180 554 C 1202 509 1214 457 1214 397 Z M 948 1122 C 948 1170 941 1214 928 1253 C 915 1292 893 1325 863 1352 C 832 1379 791 1400 741 1414 C 690 1428 627 1436 551 1436 L 358 1436 L 358 807 L 578 807 C 644 807 701 814 748 830 C 795 845 833 866 863 894 C 893 921 914 954 928 993 C 941 1031 948 1074 948 1122 Z M 1034 403 C 1034 461 1025 512 1007 554 C 989 596 961 630 923 657 C 885 684 835 704 773 717 C 711 730 637 737 549 737 L 358 737 L 358 59 L 594 59 C 670 59 736 66 792 81 C 847 96 893 118 929 148 C 965 177 991 213 1008 256 C 1025 298 1034 347 1034 403 Z" unicode="B" />
<glyph horiz-adv-x="1284" d="M 1280 281 C 1262 249 1237 216 1205 180 C 1173 144 1133 112 1087 82 C 1041 52 988 27 929 7 C 869 -13 805 -23 735 -23 C 658 -23 588 -13 526 7 C 463 27 407 54 357 90 C 307 125 264 167 228 215 C 192 263 161 316 137 373 C 113 429 95 489 83 551 C 71 613 66 677 66 741 C 66 826 75 905 93 977 C 111 1049 135 1113 166 1171 C 197 1228 234 1278 276 1322 C 318 1365 363 1401 411 1430 C 459 1459 510 1481 562 1496 C 614 1510 665 1518 717 1518 C 749 1518 779 1516 807 1512 C 835 1508 863 1503 891 1495 C 919 1487 947 1477 975 1465 C 1003 1453 1032 1438 1063 1421 C 1074 1415 1084 1409 1093 1405 C 1101 1401 1110 1399 1118 1399 C 1132 1399 1146 1406 1159 1421 C 1163 1424 1165 1428 1167 1432 C 1168 1436 1170 1438 1174 1438 L 1204 1438 L 1204 1096 L 1157 1096 C 1151 1096 1147 1097 1143 1099 C 1139 1101 1137 1106 1135 1114 C 1120 1162 1101 1208 1077 1250 C 1053 1292 1024 1329 991 1360 C 957 1391 919 1415 877 1433 C 835 1451 789 1460 739 1460 C 703 1460 667 1454 629 1443 C 591 1431 553 1414 517 1390 C 480 1366 445 1336 412 1298 C 379 1260 350 1215 325 1163 C 300 1111 280 1050 266 982 C 251 913 244 836 244 750 C 244 634 257 532 283 444 C 309 356 344 283 389 224 C 434 164 487 120 547 90 C 607 60 672 45 741 45 C 786 45 828 50 868 60 C 908 70 944 83 978 99 C 1011 115 1041 133 1069 153 C 1096 173 1120 193 1142 214 C 1163 234 1181 254 1197 274 C 1213 293 1225 310 1235 324 L 1280 281 Z" unicode="C" />
<glyph horiz-adv-x="1440" d="M 1374 748 C 1374 635 1355 533 1317 441 C 1279 349 1226 270 1157 205 C 1088 139 1005 89 908 53 C 811 17 703 0 584 0 L 74 0 L 74 29 C 74 37 79 42 89 46 C 99 50 111 53 125 57 C 140 61 152 64 162 68 C 172 72 179 77 185 83 C 190 89 194 98 196 109 C 198 119 199 134 199 152 L 199 1343 C 199 1361 198 1375 196 1386 C 194 1396 190 1405 185 1411 C 179 1417 172 1422 162 1426 C 152 1430 140 1434 125 1438 C 111 1441 99 1444 89 1448 C 79 1452 74 1458 74 1466 L 74 1495 L 541 1495 C 673 1495 791 1477 895 1441 C 999 1405 1086 1355 1157 1289 C 1227 1223 1281 1145 1318 1053 C 1355 961 1374 860 1374 748 Z M 1196 748 C 1196 866 1180 968 1150 1054 C 1119 1140 1075 1212 1017 1268 C 959 1324 887 1366 803 1394 C 719 1422 623 1436 516 1436 L 358 1436 L 358 59 L 549 59 C 651 59 742 72 822 98 C 902 124 970 165 1026 221 C 1081 277 1123 348 1152 435 C 1181 522 1196 626 1196 748 Z" unicode="D" />
<glyph horiz-adv-x="1206" d="M 1161 0 L 74 0 L 74 29 C 74 37 79 42 89 46 C 99 50 111 53 125 57 C 140 61 152 64 162 68 C 172 72 179 77 185 83 C 190 89 194 98 196 109 C 198 119 199 134 199 152 L 199 1343 C 199 1361 198 1375 196 1386 C 194 1396 190 1405 185 1411 C 179 1417 172 1422 162 1426 C 152 1430 140 1434 125 1438 C 111 1441 99 1444 89 1448 C 79 1452 74 1458 74 1466 L 74 1495 L 879 1495 C 892 1495 907 1495 923 1496 C 939 1497 956 1499 972 1501 C 988 1503 1005 1505 1021 1507 C 1037 1509 1051 1511 1063 1513 L 1063 1245 L 1030 1245 C 1018 1245 1009 1247 1003 1251 C 997 1255 993 1261 991 1270 C 981 1301 972 1327 963 1348 C 953 1369 941 1386 926 1399 C 910 1412 891 1421 867 1427 C 843 1433 813 1436 776 1436 L 358 1436 L 358 799 L 618 799 C 640 799 657 801 670 806 C 682 811 693 818 701 828 C 709 837 717 848 723 862 C 729 876 735 891 743 909 C 747 917 752 925 758 932 C 764 938 774 942 788 942 L 815 942 L 815 602 L 782 602 C 772 602 763 605 756 612 C 749 619 743 628 739 639 C 731 658 723 674 717 687 C 710 699 702 709 694 717 C 686 724 676 729 665 732 C 653 735 639 737 623 737 L 358 737 L 358 59 L 874 59 C 904 59 930 63 951 71 C 972 79 991 92 1007 109 C 1023 126 1037 148 1050 174 C 1062 200 1076 230 1090 266 C 1093 274 1096 282 1099 290 C 1101 297 1108 301 1118 301 L 1161 301 L 1161 0 Z" unicode="E" />
<glyph horiz-adv-x="1147" d="M 1122 1237 L 1087 1237 C 1073 1237 1065 1239 1061 1243 C 1057 1247 1055 1253 1053 1262 C 1045 1290 1036 1316 1027 1338 C 1018 1360 1006 1378 991 1392 C 976 1406 957 1417 933 1425 C 909 1432 878 1436 840 1436 L 358 1436 L 358 793 L 674 793 C 694 793 711 794 723 798 C 735 802 746 808 755 816 C 763 824 771 836 778 850 C 784 864 792 881 801 903 C 805 913 809 921 815 927 C 820 933 828 936 840 936 L 864 936 L 864 596 L 827 596 C 815 596 808 599 804 607 C 800 615 796 623 793 633 C 785 653 777 670 770 683 C 762 695 754 705 746 712 C 737 719 727 724 717 727 C 706 729 693 731 678 731 L 358 731 L 358 152 C 358 134 359 119 361 109 C 363 98 367 89 373 83 C 379 77 386 72 396 68 C 406 64 418 61 434 57 C 447 53 459 50 469 46 C 479 42 485 37 485 29 L 485 0 L 74 0 L 74 29 C 74 37 79 42 89 46 C 99 50 111 53 125 57 C 140 61 152 64 162 68 C 172 72 179 77 185 83 C 190 89 194 98 196 109 C 198 119 199 134 199 152 L 199 1343 C 199 1361 198 1375 196 1386 C 194 1396 190 1405 185 1411 C 179 1417 172 1422 162 1426 C 152 1430 140 1434 125 1438 C 111 1441 99 1444 89 1448 C 79 1452 74 1458 74 1466 L 74 1495 L 944 1495 C 959 1495 975 1495 992 1497 C 1008 1498 1025 1500 1041 1502 C 1057 1504 1072 1506 1086 1508 C 1100 1510 1112 1511 1122 1513 L 1122 1237 Z" unicode="F" />
<glyph horiz-adv-x="1446" d="M 1419 113 C 1381 99 1338 85 1290 69 C 1242 53 1192 39 1140 25 C 1087 11 1033 0 977 -9 C 921 -18 867 -23 813 -23 C 726 -23 647 -13 577 7 C 506 27 443 54 388 90 C 332 125 284 167 244 215 C 204 263 170 316 144 373 C 117 429 97 489 85 551 C 72 613 66 677 66 741 C 66 824 75 901 93 972 C 111 1043 137 1107 169 1165 C 201 1223 238 1274 282 1318 C 326 1362 373 1398 423 1428 C 473 1458 526 1480 582 1495 C 637 1510 692 1518 748 1518 C 807 1518 864 1511 920 1497 C 975 1483 1033 1459 1094 1423 C 1106 1415 1116 1410 1125 1406 C 1134 1402 1143 1401 1153 1401 C 1161 1401 1168 1402 1175 1406 C 1182 1409 1188 1413 1192 1419 C 1194 1423 1195 1427 1197 1431 C 1198 1435 1200 1438 1204 1438 L 1237 1438 L 1237 1096 L 1192 1096 C 1186 1096 1181 1097 1177 1099 C 1172 1101 1169 1106 1167 1114 C 1153 1161 1133 1206 1109 1248 C 1085 1290 1055 1326 1021 1358 C 987 1389 948 1414 904 1432 C 860 1450 812 1460 760 1460 C 718 1460 677 1454 635 1442 C 593 1430 554 1412 516 1388 C 478 1363 442 1331 409 1293 C 375 1255 346 1209 322 1157 C 298 1104 279 1044 265 976 C 251 908 244 832 244 748 C 244 636 258 536 287 448 C 316 360 356 285 408 223 C 459 161 520 114 590 82 C 660 49 736 33 819 33 C 883 33 936 38 979 48 C 1022 58 1057 73 1083 91 C 1109 109 1127 130 1138 154 C 1149 178 1155 203 1155 231 L 1155 479 C 1155 497 1153 511 1151 522 C 1149 532 1145 541 1139 547 C 1133 553 1125 557 1115 561 C 1105 565 1092 569 1077 573 C 1063 576 1051 580 1041 584 C 1031 588 1026 594 1026 602 L 1026 631 L 1321 631 C 1319 620 1317 608 1315 596 C 1313 584 1312 572 1311 560 C 1309 548 1308 536 1308 525 C 1307 514 1307 504 1307 496 L 1307 225 C 1307 215 1307 207 1308 200 C 1309 192 1312 186 1316 180 C 1320 174 1327 168 1336 164 C 1344 160 1356 156 1372 154 C 1387 150 1399 148 1407 148 C 1415 148 1419 144 1419 137 L 1419 113 Z" unicode="G" />
<glyph horiz-adv-x="1546" d="M 1473 0 L 1063 0 L 1063 29 C 1063 37 1068 42 1078 46 C 1088 50 1100 53 1114 57 C 1129 61 1141 64 1151 68 C 1161 72 1168 77 1174 83 C 1179 89 1183 98 1185 109 C 1187 119 1188 134 1188 152 L 1188 737 L 358 737 L 358 152 C 358 134 359 119 361 109 C 363 98 366 89 372 83 C 377 77 384 72 394 68 C 404 64 416 61 432 57 C 445 53 457 50 467 46 C 477 42 483 37 483 29 L 483 0 L 74 0 L 74 29 C 74 37 79 42 89 46 C 99 50 111 53 125 57 C 140 61 152 64 162 68 C 172 72 179 77 185 83 C 190 89 194 98 196 109 C 198 119 199 134 199 152 L 199 1343 C 199 1361 198 1375 196 1386 C 194 1396 190 1405 185 1411 C 179 1417 172 1422 162 1426 C 152 1430 140 1434 125 1438 C 111 1441 99 1444 89 1448 C 79 1452 74 1458 74 1466 L 74 1495 L 483 1495 L 483 1466 C 483 1458 477 1452 467 1448 C 457 1444 445 1441 432 1438 C 416 1434 404 1430 394 1426 C 384 1422 377 1417 372 1411 C 366 1405 363 1396 361 1386 C 359 1375 358 1361 358 1343 L 358 805 L 1188 805 L 1188 1343 C 1188 1361 1187 1375 1185 1386 C 1183 1396 1179 1405 1174 1411 C 1168 1417 1161 1422 1151 1426 C 1141 1430 1129 1434 1114 1438 C 1100 1441 1088 1444 1078 1448 C 1068 1452 1063 1458 1063 1466 L 1063 1495 L 1473 1495 L 1473 1466 C 1473 1458 1467 1452 1457 1448 C 1446 1444 1434 1441 1421 1438 C 1405 1434 1393 1430 1384 1426 C 1374 1422 1367 1417 1362 1411 C 1356 1405 1353 1396 1351 1386 C 1349 1375 1348 1361 1348 1343 L 1348 152 C 1348 134 1349 119 1351 109 C 1353 98 1356 89 1362 83 C 1367 77 1374 72 1384 68 C 1393 64 1405 61 1421 57 C 1434 53 1446 50 1457 46 C 1467 42 1473 37 1473 29 L 1473 0 Z" unicode="H" />
<glyph horiz-adv-x="578" d="M 494 0 L 84 0 L 84 29 C 84 37 89 42 99 46 C 109 50 121 53 135 57 C 150 61 162 64 172 68 C 182 72 189 77 195 83 C 200 89 204 98 206 109 C 208 119 209 134 209 152 L 209 1343 C 209 1361 208 1375 206 1386 C 204 1396 200 1405 195 1411 C 189 1417 182 1422 172 1426 C 162 1430 150 1434 135 1438 C 121 1441 109 1444 99 1448 C 89 1452 84 1458 84 1466 L 84 1495 L 494 1495 L 494 1466 C 494 1458 488 1452 478 1448 C 467 1444 455 1441 442 1438 C 426 1434 414 1430 405 1426 C 395 1422 388 1417 383 1411 C 377 1405 374 1396 372 1386 C 370 1375 369 1361 369 1343 L 369 152 C 369 134 370 119 372 109 C 374 98 377 89 383 83 C 388 77 395 72 405 68 C 414 64 426 61 442 57 C 455 53 467 50 478 46 C 488 42 494 37 494 29 L 494 0 Z" unicode="I" />
<glyph horiz-adv-x="909" d="M 856 1466 C 856 1458 850 1452 840 1448 C 830 1444 818 1441 805 1438 C 789 1434 777 1430 767 1426 C 757 1422 750 1417 745 1411 C 739 1405 736 1396 734 1386 C 732 1375 731 1361 731 1343 L 731 401 C 731 341 722 285 704 233 C 686 181 659 137 624 99 C 589 61 546 31 495 9 C 443 -12 384 -23 317 -23 C 271 -23 230 -16 192 -4 C 154 8 121 25 94 46 C 66 67 45 91 29 117 C 13 143 6 171 6 199 C 6 233 15 262 35 286 C 55 310 81 322 115 322 C 143 322 165 313 182 296 C 198 279 207 259 207 236 C 207 212 202 193 194 177 C 185 161 169 145 145 131 C 148 118 155 106 167 94 C 179 82 193 71 209 62 C 225 53 243 46 263 41 C 282 35 301 33 319 33 C 349 33 380 38 410 49 C 440 59 467 77 491 101 C 515 125 534 156 549 194 C 563 232 571 279 571 334 L 571 1343 C 571 1361 570 1375 568 1386 C 566 1396 562 1405 556 1411 C 550 1417 543 1422 533 1426 C 523 1430 511 1434 496 1438 C 482 1441 470 1444 459 1448 C 447 1452 442 1458 442 1466 L 442 1495 L 856 1495 L 856 1466 Z" unicode="J" />
<glyph horiz-adv-x="1305" d="M 1339 0 L 893 0 L 893 29 C 893 37 898 42 908 46 C 918 50 930 53 944 57 C 965 62 979 67 986 71 C 993 75 997 82 997 92 C 997 101 990 114 976 130 C 962 146 945 165 926 186 L 358 784 L 358 152 C 358 134 359 119 361 109 C 363 98 366 89 372 83 C 377 77 384 72 394 68 C 404 64 416 61 432 57 C 445 53 457 50 467 46 C 477 42 483 37 483 29 L 483 0 L 74 0 L 74 29 C 74 37 79 42 89 46 C 99 50 111 53 125 57 C 140 61 152 64 162 68 C 172 72 179 77 185 83 C 190 89 194 98 196 109 C 198 119 199 134 199 152 L 199 1343 C 199 1361 198 1375 196 1386 C 194 1396 190 1405 185 1411 C 179 1417 172 1422 162 1426 C 152 1430 140 1434 125 1438 C 111 1441 99 1444 89 1448 C 79 1452 74 1458 74 1466 L 74 1495 L 483 1495 L 483 1466 C 483 1458 477 1452 467 1448 C 457 1444 445 1441 432 1438 C 416 1434 404 1430 394 1426 C 384 1422 377 1417 372 1411 C 366 1405 363 1396 361 1386 C 359 1375 358 1361 358 1343 L 358 799 L 893 1309 C 905 1321 917 1334 929 1348 C 940 1362 946 1374 946 1386 C 946 1390 945 1394 944 1398 C 943 1402 940 1407 936 1412 C 931 1416 924 1421 916 1425 C 907 1429 895 1434 879 1438 C 865 1441 853 1444 843 1448 C 832 1452 827 1458 827 1466 L 827 1495 L 1243 1495 L 1243 1466 C 1243 1458 1236 1451 1224 1446 C 1211 1440 1198 1435 1184 1430 C 1167 1424 1152 1418 1139 1412 C 1126 1406 1113 1400 1101 1393 C 1089 1385 1076 1376 1063 1366 C 1049 1355 1034 1342 1018 1327 L 502 856 L 1171 143 C 1188 124 1206 107 1225 91 C 1244 75 1265 64 1288 57 C 1300 53 1312 49 1323 46 C 1333 42 1339 37 1339 29 L 1339 0 Z" unicode="K" />
<glyph horiz-adv-x="1163" d="M 1151 0 L 74 0 L 74 29 C 74 37 79 42 89 46 C 99 50 111 53 125 57 C 140 61 152 64 162 68 C 172 72 179 77 185 83 C 190 89 194 98 196 109 C 198 119 199 134 199 152 L 199 1343 C 199 1361 198 1375 196 1386 C 194 1396 190 1405 185 1411 C 179 1417 172 1422 162 1426 C 152 1430 140 1434 125 1438 C 111 1441 99 1444 89 1448 C 79 1452 74 1458 74 1466 L 74 1495 L 483 1495 L 483 1466 C 483 1458 477 1452 467 1448 C 457 1444 445 1441 432 1438 C 416 1434 404 1430 394 1426 C 384 1422 377 1417 372 1411 C 366 1405 363 1396 361 1386 C 359 1375 358 1361 358 1343 L 358 59 L 868 59 C 899 59 925 63 946 72 C 967 80 985 93 1001 111 C 1017 128 1031 150 1043 177 C 1055 204 1069 236 1083 272 C 1088 284 1092 293 1095 299 C 1098 304 1104 307 1112 307 L 1151 307 L 1151 0 Z" unicode="L" />
<glyph horiz-adv-x="1800" d="M 1726 0 L 1319 0 L 1319 29 C 1319 37 1324 42 1334 46 C 1344 50 1356 53 1370 57 C 1385 61 1397 64 1407 68 C 1417 72 1424 77 1430 83 C 1435 89 1439 98 1441 109 C 1443 119 1444 134 1444 152 L 1444 1403 L 905 16 C 903 10 900 6 895 3 C 890 0 881 -2 868 -2 C 854 -2 845 0 839 2 C 833 5 829 10 827 16 L 283 1413 L 283 195 C 283 169 288 147 298 128 C 308 108 325 91 350 76 C 372 61 389 51 399 46 C 409 41 414 35 414 27 L 414 0 L 70 0 L 70 27 C 70 29 70 32 72 35 C 73 37 76 40 81 44 C 85 48 92 52 100 57 C 108 61 119 68 133 76 C 158 89 175 106 185 127 C 194 148 199 171 199 195 L 199 1343 C 199 1361 198 1375 196 1386 C 194 1396 190 1405 185 1411 C 179 1417 172 1422 162 1426 C 152 1430 140 1434 125 1438 C 111 1441 99 1444 89 1448 C 79 1452 74 1458 74 1466 L 74 1495 L 414 1495 L 907 238 L 1393 1495 L 1726 1495 L 1726 1466 C 1726 1458 1720 1452 1710 1448 C 1700 1444 1688 1441 1675 1438 C 1659 1434 1647 1430 1638 1426 C 1628 1422 1621 1417 1616 1411 C 1610 1405 1607 1396 1605 1386 C 1603 1375 1602 1361 1602 1343 L 1602 152 C 1602 134 1603 119 1605 109 C 1607 98 1610 89 1616 83 C 1621 77 1628 72 1638 68 C 1647 64 1659 61 1675 57 C 1688 53 1700 50 1710 46 C 1720 42 1726 37 1726 29 L 1726 0 Z" unicode="M" />
<glyph horiz-adv-x="1483" d="M 1421 1468 C 1421 1464 1420 1461 1419 1459 C 1417 1457 1414 1454 1410 1450 C 1405 1446 1399 1442 1391 1438 C 1383 1433 1372 1427 1358 1419 C 1332 1405 1315 1388 1306 1367 C 1296 1346 1292 1324 1292 1300 L 1292 -8 L 1241 -8 L 283 1384 L 283 195 C 283 169 288 147 298 128 C 308 108 325 91 350 76 C 372 61 389 51 399 46 C 409 41 414 35 414 27 L 414 0 L 70 0 L 70 27 C 70 29 70 32 72 35 C 73 37 76 40 81 44 C 85 48 92 52 100 57 C 108 61 119 68 133 76 C 158 89 175 106 185 127 C 194 148 199 171 199 195 L 199 1343 C 199 1361 198 1375 196 1386 C 194 1396 190 1405 185 1411 C 179 1417 172 1422 162 1426 C 152 1430 140 1434 125 1438 C 111 1441 99 1444 89 1448 C 79 1452 74 1458 74 1466 L 74 1495 L 391 1495 L 1208 305 L 1208 1300 C 1208 1325 1203 1347 1193 1367 C 1183 1386 1165 1403 1141 1419 C 1118 1433 1102 1443 1092 1448 C 1082 1453 1077 1460 1077 1468 L 1077 1495 L 1421 1495 L 1421 1468 Z" unicode="N" />
<glyph horiz-adv-x="1495" d="M 1430 748 C 1430 636 1413 532 1381 438 C 1348 344 1302 262 1242 194 C 1182 126 1111 72 1028 34 C 944 -3 852 -23 750 -23 C 648 -23 555 -4 471 33 C 387 70 315 123 255 191 C 195 259 148 340 115 435 C 82 529 66 634 66 748 C 66 858 82 961 115 1055 C 148 1149 195 1231 255 1299 C 315 1367 387 1421 471 1460 C 555 1498 648 1518 750 1518 C 852 1518 944 1498 1028 1460 C 1111 1421 1182 1367 1242 1299 C 1302 1231 1348 1149 1381 1055 C 1413 961 1430 858 1430 748 Z M 1251 748 C 1251 863 1238 965 1214 1054 C 1190 1142 1156 1217 1112 1277 C 1068 1337 1015 1382 953 1413 C 891 1444 824 1460 750 1460 C 675 1460 607 1444 545 1413 C 483 1382 429 1337 385 1277 C 340 1217 305 1142 281 1054 C 256 965 244 863 244 748 C 244 632 256 529 281 441 C 305 352 340 277 385 217 C 429 156 483 110 545 79 C 607 48 675 33 750 33 C 824 33 891 48 953 78 C 1015 108 1068 152 1112 212 C 1156 271 1190 345 1214 435 C 1238 524 1251 628 1251 748 Z" unicode="O" />
<glyph horiz-adv-x="1159" d="M 1139 1116 C 1139 1061 1128 1008 1107 956 C 1085 904 1050 859 1002 819 C 954 779 891 746 813 722 C 735 698 640 686 528 686 L 358 686 L 358 152 C 358 134 359 119 361 109 C 363 98 367 89 373 83 C 379 77 386 72 396 68 C 406 64 418 61 434 57 C 447 53 459 50 469 46 C 479 42 485 37 485 29 L 485 0 L 74 0 L 74 29 C 74 37 79 42 89 46 C 99 50 111 53 125 57 C 140 61 152 64 162 68 C 172 72 179 77 185 83 C 190 89 194 98 196 109 C 198 119 199 134 199 152 L 199 1343 C 199 1361 198 1375 196 1386 C 194 1396 190 1405 185 1411 C 179 1417 172 1422 162 1426 C 152 1430 140 1434 125 1438 C 111 1441 99 1444 89 1448 C 79 1452 74 1458 74 1466 L 74 1495 L 584 1495 C 682 1495 767 1485 837 1465 C 907 1445 965 1417 1010 1383 C 1054 1349 1087 1309 1108 1263 C 1128 1217 1139 1168 1139 1116 Z M 961 1116 C 961 1164 952 1207 935 1247 C 918 1286 892 1320 858 1348 C 824 1376 781 1397 729 1413 C 677 1428 617 1436 549 1436 L 358 1436 L 358 752 L 557 752 C 627 752 687 760 738 777 C 788 793 830 817 863 849 C 896 881 921 919 937 964 C 953 1009 961 1060 961 1116 Z" unicode="P" />
<glyph horiz-adv-x="1499" d="M 1563 -238 C 1550 -249 1535 -262 1517 -276 C 1499 -290 1477 -303 1453 -315 C 1428 -327 1400 -337 1369 -345 C 1338 -353 1304 -358 1266 -358 C 1225 -358 1187 -353 1153 -343 C 1119 -333 1086 -319 1056 -303 C 1025 -286 995 -267 967 -246 C 938 -225 909 -204 881 -182 C 845 -155 815 -133 790 -115 C 764 -97 742 -81 722 -68 C 702 -55 684 -44 667 -35 C 649 -25 631 -16 612 -6 C 528 8 453 37 386 80 C 318 123 261 177 214 243 C 166 308 130 383 104 469 C 78 555 66 648 66 748 C 66 858 82 961 115 1055 C 148 1149 195 1231 255 1299 C 315 1367 386 1421 470 1460 C 554 1498 646 1518 748 1518 C 850 1518 942 1498 1026 1460 C 1110 1421 1181 1367 1241 1299 C 1301 1231 1347 1149 1380 1055 C 1413 961 1430 858 1430 748 C 1430 642 1415 545 1386 455 C 1356 365 1314 287 1259 220 C 1204 152 1138 98 1060 57 C 982 15 894 -8 797 -16 L 795 -27 C 811 -32 832 -39 856 -48 C 880 -57 907 -68 936 -80 C 965 -92 996 -106 1028 -121 C 1060 -135 1092 -150 1124 -166 C 1151 -179 1176 -190 1200 -199 C 1223 -208 1246 -215 1270 -221 C 1293 -226 1317 -230 1342 -232 C 1367 -234 1395 -236 1427 -236 C 1456 -236 1482 -231 1504 -222 C 1526 -213 1545 -205 1563 -197 L 1563 -238 Z M 1251 748 C 1251 862 1238 964 1214 1053 C 1190 1141 1155 1216 1111 1276 C 1067 1336 1014 1382 952 1413 C 890 1444 822 1460 748 1460 C 674 1460 606 1444 544 1413 C 482 1382 428 1336 384 1276 C 340 1216 305 1141 281 1053 C 256 964 244 862 244 748 C 244 632 256 530 281 442 C 305 353 340 278 384 218 C 428 158 482 112 544 81 C 606 50 674 35 748 35 C 822 35 890 49 952 79 C 1014 109 1067 153 1111 213 C 1155 273 1190 347 1214 436 C 1238 525 1251 629 1251 748 Z" unicode="Q" />
<glyph horiz-adv-x="1331" d="M 1386 0 L 1104 0 C 1084 30 1065 58 1047 86 C 1029 114 1010 142 992 171 C 973 199 953 229 933 261 C 912 293 890 327 866 365 C 837 409 808 452 780 493 C 752 533 721 569 688 600 C 655 631 619 656 579 674 C 539 692 494 702 442 702 L 358 702 L 358 152 C 358 134 359 119 361 109 C 363 98 366 89 372 83 C 377 77 384 72 394 68 C 404 64 416 61 432 57 C 445 53 457 50 467 46 C 477 42 483 37 483 29 L 483 0 L 74 0 L 74 29 C 74 37 79 42 89 46 C 99 50 111 53 125 57 C 140 61 152 64 162 68 C 172 72 179 77 185 83 C 190 89 194 98 196 109 C 198 119 199 134 199 152 L 199 1343 C 199 1361 198 1375 196 1386 C 194 1396 190 1405 185 1411 C 179 1417 172 1422 162 1426 C 152 1430 140 1434 125 1438 C 111 1441 99 1444 89 1448 C 79 1452 74 1458 74 1466 L 74 1495 L 606 1495 C 700 1495 781 1485 850 1466 C 919 1447 976 1421 1022 1388 C 1067 1354 1101 1315 1123 1269 C 1145 1223 1157 1174 1157 1120 C 1157 1076 1147 1034 1129 993 C 1111 952 1083 914 1045 880 C 1007 845 958 814 900 788 C 842 762 773 742 694 729 C 728 715 759 698 789 678 C 819 658 850 631 882 596 C 914 561 950 516 989 462 C 1027 407 1073 338 1126 256 C 1154 212 1178 178 1198 153 C 1218 127 1236 108 1252 95 C 1268 81 1282 72 1294 68 C 1306 63 1317 59 1327 57 C 1344 53 1358 49 1369 46 C 1380 42 1386 37 1386 29 L 1386 0 Z M 979 1120 C 979 1174 969 1220 949 1260 C 929 1300 901 1333 866 1359 C 830 1385 788 1404 740 1417 C 692 1429 640 1436 584 1436 L 358 1436 L 358 770 L 567 770 C 706 770 809 799 877 858 C 945 917 979 1004 979 1120 Z" unicode="R" />
<glyph horiz-adv-x="1145" d="M 1085 424 C 1085 372 1074 320 1054 267 C 1034 214 1003 166 961 123 C 919 80 866 45 802 18 C 738 -9 662 -23 575 -23 C 541 -23 507 -21 474 -17 C 440 -13 409 -7 379 -1 C 349 5 320 13 294 21 C 267 29 243 38 223 47 C 215 50 208 53 202 56 C 196 59 189 61 182 61 C 172 61 163 59 156 55 C 149 51 140 42 129 27 C 123 19 118 13 114 7 C 110 1 103 -2 94 -2 L 66 -2 L 66 381 L 109 381 C 115 381 119 379 123 377 C 127 374 131 366 137 354 C 159 295 187 245 220 205 C 252 164 288 131 326 106 C 364 81 404 63 446 52 C 488 40 531 35 575 35 C 623 35 668 41 712 54 C 756 66 794 86 827 112 C 860 138 886 172 906 213 C 926 253 936 302 936 358 C 936 404 928 444 913 477 C 897 510 877 539 852 563 C 826 587 797 607 764 624 C 731 640 697 656 662 670 C 640 678 619 686 599 693 C 579 700 560 707 541 714 C 522 720 503 727 483 735 C 463 742 442 750 420 760 C 318 801 242 852 193 914 C 143 976 119 1045 119 1122 C 119 1171 128 1219 147 1267 C 165 1314 193 1356 230 1394 C 266 1431 312 1461 366 1484 C 420 1506 483 1518 555 1518 C 571 1518 589 1516 610 1514 C 630 1512 652 1508 676 1502 C 700 1496 724 1487 750 1477 C 776 1467 801 1454 827 1438 C 835 1432 845 1427 855 1421 C 865 1415 874 1413 883 1413 C 890 1413 896 1415 902 1419 C 908 1423 915 1431 924 1442 C 926 1445 927 1447 929 1449 C 930 1451 932 1452 936 1452 L 967 1452 L 967 1124 L 918 1124 C 911 1124 906 1126 904 1130 C 902 1134 900 1139 899 1143 C 883 1196 862 1242 838 1282 C 813 1321 785 1354 754 1380 C 722 1406 688 1425 652 1438 C 616 1451 579 1458 541 1458 C 505 1458 471 1451 437 1439 C 403 1427 373 1410 347 1388 C 320 1366 298 1339 282 1309 C 266 1278 258 1244 258 1208 C 258 1169 263 1135 273 1106 C 283 1076 297 1050 316 1028 C 334 1005 356 985 382 968 C 408 951 437 936 469 922 C 488 913 508 904 529 896 C 550 888 571 880 591 872 C 611 864 631 856 650 850 C 668 843 685 837 700 831 C 769 804 828 776 877 747 C 925 718 965 687 996 654 C 1027 621 1050 586 1064 548 C 1078 510 1085 468 1085 424 Z" unicode="S" />
<glyph horiz-adv-x="1253" d="M 1245 1237 L 1210 1237 C 1196 1237 1188 1239 1184 1243 C 1180 1247 1178 1253 1176 1262 C 1168 1290 1159 1316 1151 1338 C 1142 1360 1130 1378 1115 1393 C 1100 1408 1081 1419 1057 1427 C 1033 1434 1003 1438 965 1438 L 707 1438 L 707 152 C 707 134 708 119 710 109 C 712 98 715 89 721 83 C 727 77 734 72 744 68 C 754 64 766 61 782 57 C 795 53 807 50 818 46 C 828 42 834 37 834 29 L 834 0 L 420 0 L 420 29 C 420 37 425 42 435 46 C 445 50 457 53 471 57 C 486 61 498 64 508 68 C 518 72 525 77 531 83 C 537 89 541 98 543 109 C 545 119 547 134 547 152 L 547 1438 L 289 1438 C 250 1438 219 1434 195 1427 C 171 1419 152 1408 138 1393 C 123 1378 111 1360 103 1338 C 94 1316 86 1290 78 1262 C 76 1253 73 1247 69 1243 C 65 1239 56 1237 43 1237 L 8 1237 L 8 1513 C 20 1511 35 1510 52 1508 C 69 1506 87 1504 105 1502 C 123 1500 142 1498 162 1497 C 181 1495 199 1495 217 1495 L 1036 1495 C 1053 1495 1071 1495 1091 1497 C 1110 1498 1129 1500 1147 1502 C 1165 1504 1183 1506 1200 1508 C 1217 1510 1232 1511 1245 1513 L 1245 1237 Z" unicode="T" />
<glyph horiz-adv-x="1464" d="M 1417 1468 C 1417 1464 1416 1461 1415 1459 C 1413 1457 1410 1454 1406 1450 C 1401 1446 1395 1442 1387 1438 C 1379 1433 1368 1427 1354 1419 C 1328 1405 1311 1388 1302 1367 C 1292 1346 1288 1324 1288 1300 L 1288 526 C 1288 457 1277 390 1256 324 C 1234 258 1202 200 1159 148 C 1115 96 1060 55 994 24 C 928 -7 850 -23 760 -23 C 661 -23 575 -9 503 16 C 431 42 371 79 324 126 C 276 172 241 227 218 290 C 195 353 184 422 184 496 L 184 1343 C 184 1361 183 1375 181 1386 C 179 1396 175 1405 170 1411 C 164 1417 157 1422 148 1426 C 138 1430 126 1434 111 1438 C 97 1441 85 1444 75 1448 C 64 1452 59 1458 59 1466 L 59 1495 L 469 1495 L 469 1466 C 469 1458 463 1452 453 1448 C 443 1444 431 1441 418 1438 C 402 1434 390 1430 380 1426 C 370 1422 363 1417 358 1411 C 352 1405 349 1396 347 1386 C 345 1375 344 1361 344 1343 L 344 512 C 344 444 353 383 372 329 C 390 275 418 229 454 191 C 490 153 534 124 586 104 C 638 84 698 74 766 74 C 842 74 907 84 962 105 C 1017 125 1062 155 1098 195 C 1134 235 1160 283 1178 341 C 1195 399 1204 465 1204 539 L 1204 1300 C 1204 1325 1199 1347 1189 1367 C 1179 1386 1161 1403 1137 1419 C 1114 1433 1098 1443 1088 1448 C 1078 1453 1073 1460 1073 1468 L 1073 1495 L 1417 1495 L 1417 1468 Z" unicode="U" />
<glyph horiz-adv-x="1427" d="M 1442 1466 C 1442 1458 1435 1451 1423 1446 C 1410 1441 1397 1436 1384 1430 C 1370 1422 1358 1415 1348 1407 C 1338 1399 1329 1390 1321 1380 C 1313 1370 1306 1358 1300 1345 C 1294 1332 1287 1317 1280 1300 L 745 -4 C 740 -13 733 -18 725 -18 L 711 -18 C 706 -18 702 -16 700 -14 C 698 -11 696 -8 694 -4 L 129 1350 C 121 1369 110 1386 97 1402 C 84 1417 63 1429 35 1438 C 21 1442 9 1445 0 1449 C -10 1452 -16 1458 -16 1466 L -16 1495 L 410 1495 L 410 1466 C 410 1458 404 1452 394 1448 C 383 1444 371 1441 358 1438 C 342 1434 329 1430 320 1426 C 311 1422 304 1418 300 1414 C 295 1410 292 1406 291 1402 C 289 1398 289 1393 289 1389 C 289 1384 290 1378 292 1370 C 294 1362 297 1353 300 1344 C 303 1335 306 1326 310 1318 C 313 1309 316 1302 319 1296 L 764 221 L 1186 1296 C 1188 1300 1190 1307 1193 1316 C 1196 1325 1199 1334 1202 1344 C 1204 1354 1207 1363 1209 1372 C 1211 1380 1212 1387 1212 1391 C 1212 1399 1207 1406 1198 1414 C 1188 1421 1168 1429 1137 1438 C 1123 1441 1111 1444 1101 1448 C 1090 1452 1085 1458 1085 1466 L 1085 1495 L 1442 1495 L 1442 1466 Z" unicode="V" />
<glyph horiz-adv-x="2093" d="M 2111 1466 C 2111 1458 2104 1451 2092 1446 C 2080 1441 2067 1436 2054 1430 C 2040 1422 2027 1415 2017 1407 C 2007 1399 1998 1391 1990 1381 C 1982 1371 1975 1359 1969 1346 C 1963 1332 1956 1316 1950 1298 L 1464 -4 C 1462 -7 1460 -10 1458 -12 C 1455 -14 1452 -16 1448 -16 L 1430 -16 C 1425 -16 1421 -15 1417 -14 C 1413 -12 1411 -9 1409 -4 L 1061 1028 L 690 -4 C 688 -12 683 -16 676 -16 L 655 -16 C 651 -16 647 -15 644 -13 C 640 -11 638 -8 637 -4 L 133 1352 C 125 1371 115 1388 102 1403 C 88 1417 67 1429 39 1438 C 25 1442 13 1445 3 1449 C -6 1452 -12 1458 -12 1466 L -12 1495 L 410 1495 L 410 1466 C 410 1458 404 1452 394 1448 C 383 1444 371 1441 358 1438 C 342 1434 329 1430 321 1426 C 312 1422 305 1418 301 1414 C 296 1410 293 1407 292 1403 C 291 1399 291 1395 291 1391 C 291 1386 292 1379 294 1371 C 296 1363 298 1354 301 1345 C 304 1335 307 1326 311 1317 C 314 1307 317 1300 319 1294 L 705 240 L 1024 1128 L 938 1352 C 930 1370 920 1387 907 1402 C 893 1417 872 1429 844 1438 C 830 1442 818 1445 808 1449 C 798 1452 793 1458 793 1466 L 793 1495 L 1210 1495 L 1210 1466 C 1210 1458 1204 1452 1194 1448 C 1184 1444 1172 1441 1159 1438 C 1143 1434 1130 1430 1122 1426 C 1113 1422 1106 1418 1102 1414 C 1097 1410 1094 1407 1093 1403 C 1092 1399 1092 1395 1092 1391 C 1092 1386 1093 1379 1095 1371 C 1097 1363 1099 1354 1102 1345 C 1105 1335 1108 1326 1112 1317 C 1115 1307 1118 1300 1120 1294 L 1481 233 L 1855 1298 C 1857 1304 1859 1311 1862 1321 C 1865 1330 1868 1339 1871 1348 C 1873 1357 1875 1366 1877 1374 C 1879 1382 1880 1389 1880 1393 C 1880 1399 1875 1405 1867 1413 C 1858 1421 1838 1429 1806 1438 C 1792 1441 1780 1444 1770 1448 C 1760 1452 1755 1458 1755 1466 L 1755 1495 L 2111 1495 L 2111 1466 Z" unicode="W" />
<glyph horiz-adv-x="1284" d="M 1315 0 L 870 0 L 870 29 C 870 37 875 42 886 46 C 896 50 908 53 922 57 C 938 61 950 65 959 69 C 967 73 974 77 979 81 C 983 85 986 89 987 93 C 988 97 989 101 989 106 C 989 110 987 117 983 126 C 979 135 974 144 969 154 C 963 164 958 173 952 182 C 946 191 942 198 940 203 L 610 690 L 285 211 C 279 203 272 194 266 184 C 260 174 254 165 249 156 C 243 146 239 137 236 129 C 232 120 231 112 231 106 C 231 98 236 90 246 82 C 256 74 277 65 309 57 C 322 53 334 50 344 46 C 354 42 360 37 360 29 L 360 0 L -18 0 L -18 29 C -18 37 -11 43 1 49 C 14 55 27 60 41 66 C 73 79 100 97 122 120 C 144 143 163 166 180 190 L 571 743 L 154 1350 C 146 1361 139 1371 133 1380 C 127 1389 120 1397 113 1404 C 106 1411 98 1417 89 1423 C 79 1429 67 1434 53 1438 C 39 1442 27 1445 17 1449 C 7 1452 2 1458 2 1466 L 2 1495 L 444 1495 L 444 1466 C 444 1458 438 1452 428 1448 C 418 1444 406 1441 393 1438 C 377 1434 364 1430 355 1426 C 346 1422 339 1418 335 1414 C 330 1410 327 1406 326 1402 C 324 1398 324 1393 324 1389 C 324 1384 326 1377 330 1368 C 334 1359 338 1350 344 1340 C 350 1330 355 1321 361 1312 C 367 1303 371 1296 375 1292 L 674 852 L 983 1300 C 987 1306 991 1313 997 1321 C 1002 1329 1007 1337 1011 1345 C 1015 1353 1019 1360 1023 1368 C 1026 1376 1028 1383 1028 1389 C 1028 1397 1023 1405 1013 1413 C 1003 1421 982 1429 950 1438 C 936 1441 924 1444 914 1448 C 904 1452 899 1458 899 1466 L 899 1495 L 1266 1495 L 1266 1466 C 1266 1462 1264 1458 1260 1455 C 1256 1452 1252 1449 1246 1446 C 1240 1443 1233 1440 1226 1438 C 1219 1435 1212 1432 1206 1430 C 1176 1416 1151 1398 1131 1374 C 1110 1350 1091 1326 1075 1303 L 713 799 L 1161 145 C 1167 137 1173 128 1179 120 C 1185 112 1193 104 1201 96 C 1209 88 1218 80 1228 74 C 1238 67 1250 61 1264 57 C 1277 53 1289 49 1299 46 C 1309 42 1315 37 1315 29 L 1315 0 Z" unicode="X" />
<glyph horiz-adv-x="1272" d="M 1305 1466 C 1305 1458 1298 1451 1286 1446 C 1273 1441 1260 1436 1247 1430 C 1233 1424 1220 1416 1210 1408 C 1199 1400 1189 1390 1179 1380 C 1169 1370 1160 1358 1151 1346 C 1141 1333 1132 1319 1122 1303 L 723 688 L 723 152 C 723 134 724 119 726 109 C 728 98 731 89 737 83 C 743 77 751 72 761 68 C 771 64 783 61 799 57 C 812 53 824 50 834 46 C 844 42 850 37 850 29 L 850 0 L 436 0 L 436 29 C 436 37 441 42 451 46 C 461 50 473 53 487 57 C 502 61 515 64 525 68 C 535 72 542 77 548 83 C 554 89 558 98 560 109 C 562 119 563 134 563 152 L 563 678 L 117 1350 C 109 1361 103 1371 97 1380 C 91 1389 84 1397 76 1404 C 68 1411 60 1417 50 1423 C 40 1429 28 1434 14 1438 C 0 1442 -11 1445 -21 1449 C -31 1452 -37 1458 -37 1466 L -37 1495 L 406 1495 L 406 1466 C 406 1458 400 1452 390 1448 C 379 1444 367 1441 354 1438 C 338 1434 325 1430 316 1426 C 307 1422 300 1418 296 1414 C 291 1410 288 1406 287 1402 C 285 1398 285 1393 285 1389 C 285 1384 286 1377 290 1369 C 294 1360 298 1351 304 1341 C 309 1331 314 1321 320 1312 C 325 1303 330 1296 334 1290 L 688 758 L 1030 1298 C 1034 1304 1038 1312 1043 1321 C 1048 1330 1053 1339 1057 1348 C 1061 1357 1065 1365 1068 1373 C 1071 1381 1073 1387 1073 1391 C 1073 1399 1068 1406 1059 1414 C 1049 1421 1029 1429 997 1438 C 983 1441 971 1444 961 1448 C 951 1452 946 1458 946 1466 L 946 1495 L 1305 1495 L 1305 1466 Z" unicode="Y" />
<glyph horiz-adv-x="1225" d="M 1174 -18 C 1148 -14 1117 -10 1079 -6 C 1041 -2 1003 0 965 0 L 37 0 L 37 14 C 37 24 40 35 46 45 C 52 55 58 66 66 78 L 967 1436 L 399 1436 C 361 1436 330 1432 307 1425 C 283 1417 264 1406 249 1392 C 234 1378 222 1360 213 1338 C 204 1316 196 1290 188 1262 C 186 1253 183 1247 179 1243 C 175 1239 167 1237 154 1237 L 119 1237 L 119 1513 C 144 1509 175 1505 213 1501 C 250 1497 288 1495 328 1495 L 1159 1495 C 1159 1480 1155 1467 1149 1455 C 1142 1443 1134 1431 1126 1419 L 231 59 L 885 59 C 917 59 944 65 968 77 C 992 89 1012 105 1030 125 C 1048 145 1062 169 1074 195 C 1086 221 1096 248 1104 276 C 1106 284 1109 291 1113 295 C 1117 299 1125 301 1139 301 L 1174 301 L 1174 -18 Z" unicode="Z" />
<glyph horiz-adv-x="647" d="M 578 -389 L 137 -389 L 137 1495 L 578 1495 L 578 1440 L 260 1440 L 260 -334 L 578 -334 L 578 -389 Z" unicode="[" />
<glyph horiz-adv-x="905" d="M 950 -389 L 856 -389 L 80 1495 L 176 1495 L 950 -389 Z" unicode="\" />
<glyph horiz-adv-x="647" d="M 510 -389 L 72 -389 L 72 -334 L 387 -334 L 387 1440 L 72 1440 L 72 1495 L 510 1495 L 510 -389 Z" unicode="]" />
<glyph horiz-adv-x="1544" d="M 1217 709 L 1122 709 L 774 1407 L 422 709 L 328 709 L 733 1495 L 811 1495 L 1217 709 Z" unicode="^" />
<glyph horiz-adv-x="1036" d="M 1051 -197 L -14 -197 L -14 -139 L 1051 -139 L 1051 -197 Z" unicode="_" />
<glyph horiz-adv-x="831" d="M 637 1012 L 604 991 L 303 1174 C 253 1203 229 1234 229 1266 C 229 1286 234 1304 245 1320 C 256 1335 272 1343 293 1343 C 302 1343 311 1342 319 1341 C 327 1340 335 1338 343 1334 C 351 1330 359 1324 368 1316 C 376 1308 386 1298 397 1286 L 637 1012 Z" unicode="`" />
<glyph horiz-adv-x="922" d="M 946 72 C 926 42 903 21 877 8 C 851 -5 826 -12 803 -12 C 785 -12 768 -9 752 -4 C 735 1 719 9 705 21 C 691 33 678 47 667 65 C 656 82 648 103 643 127 C 554 30 457 -18 352 -18 C 312 -18 273 -12 237 -2 C 200 8 168 24 140 45 C 112 66 89 92 72 124 C 55 156 47 193 47 236 C 47 282 59 323 84 360 C 108 397 145 429 194 455 C 243 481 304 502 377 516 C 450 530 535 537 633 537 C 633 589 627 635 617 674 C 607 712 592 744 573 769 C 554 794 531 813 505 825 C 479 837 450 844 418 844 C 408 844 397 843 385 842 C 372 840 359 838 346 836 C 332 833 319 829 307 825 C 294 820 283 815 274 809 C 283 793 289 780 293 768 C 297 756 299 742 299 727 C 299 715 296 704 292 694 C 287 684 281 675 273 667 C 265 659 255 653 245 649 C 234 645 223 643 211 643 C 195 643 181 646 169 652 C 157 658 148 665 141 674 C 133 683 128 693 124 705 C 120 716 119 727 119 737 C 119 757 125 776 139 795 C 153 813 172 830 198 845 C 223 859 254 871 290 880 C 326 888 368 893 414 893 C 481 893 537 885 583 869 C 629 853 666 830 694 801 C 722 771 742 736 754 694 C 766 652 772 606 772 555 L 772 164 C 772 136 779 113 794 97 C 808 80 829 72 856 72 C 870 72 883 74 893 78 C 903 82 913 88 924 96 L 946 72 Z M 633 236 L 633 485 C 487 485 378 464 306 422 C 233 380 197 323 197 252 C 197 187 214 138 250 104 C 285 70 333 53 393 53 C 421 53 449 58 478 68 C 506 78 532 91 555 108 C 578 125 597 145 611 167 C 625 189 633 212 633 236 Z" unicode="a" />
<glyph horiz-adv-x="1010" d="M 967 451 C 967 387 956 327 934 270 C 912 213 881 163 842 121 C 802 78 756 44 702 19 C 648 -5 589 -18 526 -18 C 493 -18 464 -15 438 -10 C 412 -4 390 1 370 9 C 350 17 332 25 316 34 C 300 43 286 51 274 59 C 270 62 265 65 260 68 C 254 70 249 72 244 72 C 240 72 234 68 228 61 C 221 53 212 43 201 29 C 194 20 188 12 183 6 C 178 0 173 -6 168 -12 C 164 -16 160 -18 158 -18 C 156 -18 153 -18 150 -18 C 141 -18 137 -13 137 -4 L 137 1339 C 137 1352 136 1363 134 1373 C 132 1382 129 1390 124 1397 C 119 1404 112 1410 103 1416 C 94 1422 82 1428 68 1434 C 59 1437 50 1440 40 1442 C 30 1444 25 1448 25 1454 L 25 1481 L 279 1495 L 279 750 C 293 768 310 785 329 801 C 348 817 369 832 393 844 C 416 856 441 866 468 874 C 495 881 524 885 555 885 C 611 885 664 875 714 855 C 764 835 807 806 845 768 C 883 730 912 685 934 631 C 956 577 967 517 967 451 Z M 813 463 C 813 519 805 569 790 613 C 774 657 754 694 728 724 C 702 754 673 776 639 792 C 605 807 569 815 532 815 C 502 815 474 811 448 803 C 421 795 397 785 375 773 C 353 761 334 747 318 733 C 301 718 288 704 279 690 L 279 129 C 286 122 296 114 310 105 C 324 95 340 86 359 78 C 378 69 400 62 424 56 C 448 50 476 47 506 47 C 546 47 584 54 621 69 C 658 84 691 108 719 142 C 747 175 770 218 787 271 C 804 323 813 387 813 463 Z" unicode="b" />
<glyph horiz-adv-x="801" d="M 813 174 C 800 152 783 130 763 108 C 742 85 717 64 688 46 C 659 27 626 12 589 0 C 552 -12 511 -18 467 -18 C 408 -18 353 -7 302 12 C 250 32 205 62 167 100 C 129 138 98 185 76 241 C 54 296 43 358 43 428 C 43 488 53 546 74 602 C 95 658 125 707 163 750 C 201 792 247 826 301 851 C 354 876 413 889 479 889 C 531 889 575 883 612 872 C 648 860 678 846 702 829 C 725 811 742 792 753 772 C 764 752 770 733 770 715 C 770 705 768 694 764 683 C 760 672 755 662 748 653 C 740 644 731 637 720 631 C 708 625 695 623 680 623 C 655 623 634 630 617 646 C 600 662 592 681 592 705 C 592 720 594 734 598 747 C 602 760 610 776 621 795 C 613 799 604 804 594 809 C 584 813 573 818 561 822 C 548 826 533 829 516 832 C 499 834 479 836 457 836 C 415 836 378 826 346 806 C 314 786 286 760 264 726 C 242 692 225 652 213 606 C 201 560 195 511 195 459 C 195 405 200 354 212 305 C 223 256 241 213 265 175 C 289 137 319 107 356 85 C 392 62 436 51 487 51 C 523 51 555 55 583 64 C 611 72 636 84 659 99 C 682 113 703 130 723 149 C 742 168 761 188 780 209 L 813 174 Z" unicode="c" />
<glyph horiz-adv-x="1032" d="M 981 18 L 735 -2 L 735 125 C 719 105 701 87 681 70 C 661 53 639 38 615 26 C 591 13 565 3 538 -4 C 510 -12 481 -16 451 -16 C 394 -16 341 -5 292 16 C 242 38 199 69 162 109 C 125 149 96 197 75 253 C 53 309 43 372 43 442 C 43 500 53 556 73 610 C 93 663 121 710 157 751 C 193 791 237 824 288 848 C 339 872 395 885 457 885 C 487 885 516 881 543 875 C 569 868 594 859 616 847 C 638 835 659 821 678 805 C 697 789 715 772 731 754 L 731 1339 C 731 1355 729 1369 726 1380 C 722 1391 717 1400 711 1407 C 705 1414 697 1420 688 1424 C 678 1428 667 1432 655 1436 C 639 1440 628 1442 620 1444 C 612 1446 608 1450 608 1458 L 608 1481 L 872 1495 L 872 160 C 872 139 873 123 875 112 C 877 100 880 91 885 85 C 890 79 897 74 906 72 C 914 69 925 66 938 63 C 951 59 961 57 969 55 C 977 53 981 48 981 41 L 981 18 Z M 731 178 L 731 696 C 721 709 708 723 692 737 C 676 751 658 763 637 775 C 615 787 592 796 566 804 C 540 811 513 815 483 815 C 444 815 407 807 373 793 C 338 779 308 756 282 725 C 256 693 235 653 220 604 C 204 555 197 496 197 426 C 197 366 204 313 219 267 C 234 221 254 182 280 150 C 305 118 334 94 368 78 C 402 61 437 53 475 53 C 505 53 533 57 560 65 C 586 73 611 83 633 95 C 655 107 674 120 691 135 C 707 149 721 164 731 178 Z" unicode="d" />
<glyph horiz-adv-x="881" d="M 850 487 L 190 487 C 190 419 196 359 209 306 C 222 252 241 207 267 169 C 293 131 325 103 364 83 C 402 63 448 53 500 53 C 533 53 564 56 594 64 C 623 72 651 83 677 97 C 703 111 727 127 750 146 C 773 164 795 185 815 207 L 846 176 C 834 156 817 134 795 112 C 773 89 746 68 714 49 C 682 29 645 13 605 1 C 565 -11 521 -18 475 -18 C 403 -18 341 -6 287 18 C 233 42 188 74 152 115 C 116 156 88 203 70 257 C 52 310 43 366 43 426 C 43 484 52 540 72 596 C 91 652 119 702 156 746 C 193 790 238 825 292 852 C 345 879 405 893 473 893 C 521 893 563 887 601 875 C 638 863 670 848 698 828 C 726 808 749 785 768 759 C 787 732 803 703 815 673 C 827 643 835 612 841 580 C 846 548 849 517 850 487 Z M 709 541 C 705 585 699 625 689 662 C 679 699 665 731 646 758 C 627 785 603 806 573 821 C 543 836 507 844 465 844 C 431 844 398 837 368 823 C 338 809 310 788 286 762 C 262 736 241 704 225 667 C 209 629 198 587 193 541 L 709 541 Z" unicode="e" />
<glyph horiz-adv-x="553" d="M 655 1399 C 655 1389 653 1378 650 1368 C 646 1358 641 1348 634 1340 C 627 1332 618 1325 607 1320 C 595 1315 582 1313 567 1313 C 544 1313 524 1320 506 1334 C 488 1348 479 1367 479 1391 C 479 1400 479 1408 480 1416 C 480 1423 483 1432 487 1444 C 480 1442 471 1439 460 1436 C 448 1432 436 1426 423 1418 C 410 1410 397 1398 384 1383 C 370 1368 358 1348 347 1324 C 336 1300 327 1270 321 1234 C 314 1198 311 1156 311 1106 L 311 860 L 555 860 L 555 807 L 313 807 L 313 127 C 313 112 314 100 316 91 C 318 81 321 74 326 68 C 330 62 337 58 345 54 C 353 50 364 47 377 45 C 389 41 399 39 408 37 C 417 35 422 30 422 23 L 422 0 L 70 0 L 70 23 C 70 30 73 35 81 37 C 88 39 98 41 111 45 C 123 47 134 50 142 54 C 150 58 156 62 160 68 C 164 74 167 81 169 91 C 171 100 172 112 172 127 L 172 807 L 61 807 L 61 829 C 61 836 66 841 76 843 C 86 845 98 848 113 852 C 125 854 134 858 142 862 C 150 866 156 871 160 878 C 164 884 167 892 169 902 C 171 912 172 924 172 938 C 172 1012 179 1082 195 1150 C 211 1217 234 1276 264 1327 C 294 1378 332 1419 378 1449 C 424 1479 477 1495 537 1495 C 559 1495 577 1492 592 1486 C 607 1480 619 1473 629 1464 C 638 1454 645 1444 649 1433 C 653 1421 655 1410 655 1399 Z" unicode="f" />
<glyph horiz-adv-x="924" d="M 952 831 C 952 821 950 813 946 806 C 942 799 938 793 932 788 C 926 782 919 778 912 776 C 905 773 899 772 893 772 C 879 772 868 774 859 778 C 850 782 844 786 840 791 C 832 796 824 801 816 807 C 808 812 798 815 788 815 C 774 815 761 812 750 806 C 739 800 728 791 717 780 C 748 738 768 700 778 668 C 788 636 793 605 793 575 C 793 533 784 494 768 456 C 751 418 727 384 695 355 C 663 326 625 303 580 286 C 534 268 483 260 426 260 C 416 260 405 260 392 262 C 378 263 364 265 350 268 C 335 270 321 273 307 277 C 293 281 280 285 270 289 L 154 100 C 172 100 190 101 210 103 C 229 104 250 105 273 107 C 295 108 320 109 348 110 C 375 110 406 111 440 111 C 522 111 590 104 644 92 C 697 79 739 62 769 40 C 799 18 820 -6 832 -34 C 844 -62 850 -91 850 -121 C 850 -166 837 -206 813 -242 C 789 -277 756 -307 716 -331 C 675 -355 628 -374 574 -387 C 520 -399 464 -406 406 -406 C 297 -406 214 -392 158 -366 C 102 -339 74 -302 74 -254 C 74 -242 75 -231 79 -220 C 83 -209 88 -199 96 -191 C 103 -182 112 -175 124 -170 C 135 -164 148 -162 164 -162 C 188 -162 209 -169 225 -184 C 241 -198 250 -217 250 -240 C 250 -255 248 -268 244 -278 C 240 -288 234 -301 225 -315 C 232 -319 242 -323 256 -327 C 269 -331 284 -335 300 -339 C 316 -343 334 -346 353 -348 C 371 -350 390 -352 408 -352 C 438 -352 471 -349 507 -344 C 543 -339 576 -330 608 -316 C 640 -302 666 -282 687 -256 C 708 -230 719 -197 719 -156 C 719 -105 691 -68 636 -45 C 580 -21 496 -10 383 -10 C 339 -10 299 -10 263 -12 C 227 -13 191 -16 154 -20 C 122 -23 97 -26 81 -30 C 64 -33 49 -35 37 -35 C 31 -35 26 -34 21 -33 C 16 -31 14 -28 14 -23 C 14 -16 15 -10 19 -5 C 23 0 27 6 31 12 L 227 311 C 170 347 129 387 104 431 C 78 475 66 523 66 575 C 66 622 75 665 94 704 C 113 743 139 777 172 805 C 205 833 244 854 289 870 C 333 885 382 893 434 893 C 488 893 536 885 577 870 C 618 854 657 831 694 799 C 715 831 741 856 772 872 C 803 888 835 897 868 899 C 890 899 910 893 927 882 C 943 871 952 854 952 831 Z M 651 580 C 651 614 646 647 638 679 C 629 711 615 739 597 763 C 579 787 556 806 528 820 C 500 834 466 842 428 842 C 388 842 354 834 326 820 C 298 805 274 785 256 761 C 238 737 224 709 216 678 C 207 646 203 614 203 580 C 203 496 223 431 264 384 C 304 336 362 313 436 313 C 468 313 498 320 525 334 C 551 348 574 368 593 393 C 611 417 626 446 636 478 C 646 510 651 544 651 580 Z" unicode="g" />
<glyph horiz-adv-x="1075" d="M 1026 0 L 676 0 L 676 23 C 676 30 679 35 687 37 C 694 39 704 41 717 45 C 729 47 740 50 748 54 C 756 58 762 62 766 68 C 770 74 773 81 775 91 C 777 100 778 112 778 127 L 778 592 C 778 628 772 659 761 687 C 750 714 735 737 715 755 C 695 773 672 786 646 795 C 620 804 591 809 561 809 C 535 809 509 805 483 797 C 457 789 433 780 411 768 C 388 756 367 742 348 727 C 329 711 313 696 301 680 L 301 127 C 301 112 301 100 303 91 C 305 81 308 74 312 68 C 316 62 323 58 331 54 C 339 50 349 47 362 45 C 374 41 384 39 392 37 C 399 35 403 30 403 23 L 403 0 L 57 0 L 57 23 C 57 30 60 35 68 37 C 76 39 86 41 98 45 C 110 47 121 50 129 54 C 137 58 144 62 148 68 C 152 74 155 81 157 91 C 159 100 160 112 160 127 L 160 1339 C 160 1355 159 1369 157 1380 C 155 1390 151 1399 146 1406 C 141 1413 134 1419 126 1423 C 117 1427 106 1432 94 1436 C 80 1439 70 1442 62 1444 C 54 1446 51 1450 51 1458 L 51 1481 L 301 1495 L 301 739 C 322 760 344 780 367 798 C 390 816 414 831 440 844 C 465 857 492 867 521 874 C 550 881 582 885 616 885 C 665 885 709 878 747 864 C 785 850 817 830 843 805 C 869 779 888 748 902 712 C 915 675 922 634 922 590 L 922 127 C 922 112 922 100 924 91 C 926 81 929 74 934 68 C 938 62 945 58 953 54 C 961 50 972 47 985 45 C 997 41 1007 39 1015 37 C 1022 35 1026 30 1026 23 L 1026 0 Z" unicode="h" />
<glyph horiz-adv-x="481" d="M 332 1262 C 332 1248 329 1236 324 1224 C 318 1212 311 1201 302 1192 C 293 1183 283 1176 271 1171 C 259 1165 246 1163 233 1163 C 219 1163 207 1165 195 1171 C 183 1176 173 1183 164 1192 C 155 1201 148 1212 143 1224 C 137 1236 135 1248 135 1262 C 135 1275 137 1287 143 1299 C 148 1311 155 1321 164 1330 C 173 1339 183 1346 195 1352 C 207 1357 219 1360 233 1360 C 246 1360 259 1357 271 1352 C 283 1346 293 1339 302 1330 C 311 1321 318 1311 324 1299 C 329 1287 332 1275 332 1262 Z M 418 0 L 72 0 L 72 23 C 72 30 75 35 83 37 C 90 39 100 41 113 45 C 125 47 136 50 144 54 C 152 58 158 62 162 68 C 166 74 169 81 171 91 C 173 100 174 112 174 127 L 174 723 C 174 738 173 751 171 762 C 169 772 166 781 161 789 C 156 796 149 802 141 807 C 133 811 122 815 109 819 C 95 822 85 825 77 827 C 69 829 66 834 66 842 L 66 864 L 315 879 L 315 127 C 315 112 315 100 317 91 C 319 81 322 74 327 68 C 331 62 338 58 346 54 C 354 50 364 47 377 45 C 389 41 398 39 406 37 C 414 35 418 30 418 23 L 418 0 Z" unicode="i" />
<glyph horiz-adv-x="453" d="M 328 1262 C 328 1248 325 1236 320 1224 C 314 1212 307 1201 298 1192 C 289 1183 279 1176 267 1171 C 255 1165 242 1163 229 1163 C 215 1163 203 1165 191 1171 C 179 1176 169 1183 160 1192 C 151 1201 144 1212 139 1224 C 133 1236 131 1248 131 1262 C 131 1275 133 1287 139 1299 C 144 1311 151 1321 160 1330 C 169 1339 179 1346 191 1352 C 203 1357 215 1360 229 1360 C 242 1360 255 1357 267 1352 C 279 1346 289 1339 298 1330 C 307 1321 314 1311 320 1299 C 325 1287 328 1275 328 1262 Z M 322 102 C 322 32 315 -33 301 -95 C 287 -156 265 -209 237 -255 C 209 -301 173 -337 129 -363 C 85 -389 33 -403 -27 -403 C -49 -403 -67 -400 -83 -394 C -98 -388 -110 -380 -120 -371 C -129 -361 -136 -351 -140 -339 C -144 -327 -147 -316 -147 -305 C -147 -295 -145 -285 -142 -275 C -138 -265 -133 -256 -126 -248 C -119 -240 -110 -233 -99 -228 C -87 -223 -74 -221 -59 -221 C -36 -221 -16 -228 1 -242 C 18 -256 27 -275 27 -299 C 27 -308 26 -316 26 -324 C 25 -331 22 -340 18 -352 C 30 -349 46 -344 64 -337 C 82 -329 100 -314 117 -291 C 134 -268 149 -235 161 -191 C 173 -147 180 -88 180 -14 L 180 723 C 180 738 179 751 177 762 C 175 772 171 781 166 789 C 160 796 153 802 145 807 C 136 811 125 815 111 819 C 90 823 76 826 68 828 C 60 830 57 834 57 842 L 57 864 L 322 879 L 322 102 Z" unicode="j" />
<glyph horiz-adv-x="946" d="M 965 0 L 596 0 L 596 23 C 596 30 599 34 607 36 C 614 37 624 39 637 43 C 649 45 659 48 666 51 C 672 53 677 56 680 59 C 683 61 685 64 685 66 C 685 68 686 71 686 74 C 686 82 682 91 675 103 C 667 114 659 125 651 137 L 418 453 L 299 346 L 299 127 C 299 112 299 100 301 91 C 303 81 306 74 311 68 C 315 62 322 58 330 54 C 338 50 349 47 362 45 C 374 41 384 39 392 37 C 399 35 403 30 403 23 L 403 0 L 57 0 L 57 23 C 57 30 60 35 68 37 C 76 39 86 41 98 45 C 110 47 121 50 129 54 C 137 58 144 62 148 68 C 152 74 155 81 157 91 C 159 100 160 112 160 127 L 160 1339 C 160 1355 159 1369 157 1380 C 155 1390 151 1399 146 1406 C 141 1413 134 1419 126 1423 C 117 1427 106 1432 94 1436 C 80 1439 70 1442 62 1444 C 54 1446 51 1450 51 1458 L 51 1481 L 301 1495 L 301 414 L 594 680 C 624 706 644 728 656 746 C 668 763 674 774 674 780 C 674 787 670 794 664 800 C 658 806 644 811 623 817 C 610 820 600 822 593 824 C 585 826 582 830 582 838 L 582 860 L 920 860 L 920 838 C 920 830 915 825 907 823 C 898 820 888 817 877 813 C 857 807 833 795 803 778 C 773 761 738 735 698 700 L 516 541 L 809 145 C 821 127 832 113 842 101 C 851 89 860 80 868 73 C 876 65 884 59 893 55 C 901 51 912 47 924 45 C 936 41 945 39 953 37 C 961 35 965 30 965 23 L 965 0 Z" unicode="k" />
<glyph horiz-adv-x="463" d="M 406 0 L 59 0 L 59 23 C 59 30 62 35 70 37 C 78 39 88 41 100 45 C 112 47 123 50 131 54 C 139 58 146 62 150 68 C 154 74 157 81 159 91 C 161 100 162 112 162 127 L 162 1339 C 162 1369 157 1391 149 1405 C 140 1418 122 1428 96 1436 C 82 1439 72 1442 64 1444 C 56 1446 53 1450 53 1458 L 53 1481 L 303 1495 L 303 127 C 303 112 303 100 305 91 C 307 81 310 74 314 68 C 318 62 325 58 333 54 C 341 50 351 47 365 45 C 377 41 386 39 394 37 C 402 35 406 30 406 23 L 406 0 Z" unicode="l" />
<glyph horiz-adv-x="1651" d="M 1602 0 L 1251 0 L 1251 23 C 1251 30 1254 35 1262 37 C 1270 39 1280 41 1292 45 C 1304 47 1315 50 1323 54 C 1331 58 1337 62 1342 68 C 1346 74 1349 81 1351 91 C 1353 100 1354 112 1354 127 L 1354 592 C 1354 660 1337 712 1304 750 C 1271 788 1219 807 1149 807 C 1129 807 1108 804 1086 799 C 1064 794 1042 787 1020 777 C 998 767 978 756 958 742 C 938 728 920 712 905 694 L 905 127 C 905 112 906 100 908 91 C 910 81 913 74 918 68 C 922 62 929 58 937 54 C 945 50 956 47 969 45 C 981 41 990 39 998 37 C 1006 35 1010 30 1010 23 L 1010 0 L 659 0 L 659 23 C 659 30 662 35 670 37 C 678 39 688 41 700 45 C 712 47 723 50 731 54 C 739 58 746 62 750 68 C 754 74 757 81 759 91 C 761 100 762 112 762 127 L 762 596 C 762 627 757 656 748 682 C 739 708 726 730 708 749 C 690 768 668 783 642 793 C 616 803 585 809 551 809 C 531 809 509 805 487 799 C 465 792 443 783 422 771 C 400 759 380 746 361 730 C 342 714 326 698 313 680 L 313 127 C 313 112 313 100 315 91 C 317 81 320 74 325 68 C 329 62 336 58 344 54 C 352 50 362 47 375 45 C 387 41 396 39 404 37 C 412 35 416 30 416 23 L 416 0 L 70 0 L 70 23 C 70 30 73 35 81 37 C 88 39 98 41 111 45 C 123 47 134 50 142 54 C 150 58 156 62 160 68 C 164 74 167 81 169 91 C 171 100 172 112 172 127 L 172 723 C 172 752 167 773 159 787 C 150 801 132 811 106 819 C 92 822 82 825 74 827 C 66 829 63 834 63 842 L 63 864 L 309 879 L 309 735 C 327 755 347 775 367 793 C 387 811 408 827 432 841 C 456 855 482 865 511 873 C 539 881 572 885 608 885 C 672 885 726 872 772 846 C 818 820 855 784 885 737 C 907 760 930 781 953 799 C 976 817 1000 833 1025 846 C 1049 858 1075 868 1102 875 C 1129 881 1158 885 1190 885 C 1238 885 1282 878 1320 864 C 1358 850 1391 830 1417 805 C 1443 779 1462 748 1476 712 C 1490 675 1497 634 1497 590 L 1497 127 C 1497 112 1497 100 1499 91 C 1501 81 1504 74 1509 68 C 1514 62 1521 58 1529 54 C 1537 50 1547 47 1561 45 C 1573 41 1582 39 1590 37 C 1598 35 1602 30 1602 23 L 1602 0 Z" unicode="m" />
<glyph horiz-adv-x="1087" d="M 1038 0 L 688 0 L 688 23 C 688 30 691 35 699 37 C 707 39 717 41 729 45 C 741 47 752 50 760 54 C 768 58 774 62 779 68 C 783 74 786 81 788 91 C 790 100 791 112 791 127 L 791 592 C 791 628 785 659 774 687 C 762 714 747 737 728 755 C 708 773 685 786 659 795 C 632 804 603 809 573 809 C 547 809 521 805 496 797 C 470 789 446 780 423 768 C 400 756 379 742 360 727 C 341 711 325 696 313 680 L 313 127 C 313 112 313 100 315 91 C 317 81 320 74 325 68 C 329 62 336 58 344 54 C 352 50 362 47 375 45 C 387 41 396 39 404 37 C 412 35 416 30 416 23 L 416 0 L 70 0 L 70 23 C 70 30 73 35 81 37 C 88 39 98 41 111 45 C 123 47 134 50 142 54 C 150 58 156 62 160 68 C 164 74 167 81 169 91 C 171 100 172 112 172 127 L 172 723 C 172 738 171 751 169 762 C 167 772 164 781 159 789 C 154 796 147 802 139 807 C 130 811 119 815 106 819 C 92 822 82 825 74 827 C 66 829 63 834 63 842 L 63 864 L 309 879 L 309 735 C 351 779 398 815 450 843 C 502 871 561 885 629 885 C 677 885 721 878 759 864 C 797 850 829 830 855 805 C 881 779 900 748 914 712 C 927 675 934 634 934 590 L 934 127 C 934 112 934 100 936 91 C 938 81 941 74 946 68 C 950 62 957 58 965 54 C 973 50 984 47 997 45 C 1009 41 1019 39 1027 37 C 1034 35 1038 30 1038 23 L 1038 0 Z" unicode="n" />
<glyph horiz-adv-x="965" d="M 922 440 C 922 372 911 311 889 255 C 867 199 837 150 799 110 C 760 70 713 38 659 16 C 605 -6 545 -18 481 -18 C 415 -18 356 -6 302 15 C 248 37 202 69 164 109 C 126 149 96 197 75 253 C 53 309 43 370 43 438 C 43 504 53 564 75 620 C 96 676 126 724 164 764 C 202 804 248 836 302 859 C 356 881 415 893 481 893 C 545 893 605 881 659 859 C 713 837 760 806 799 766 C 837 726 867 678 889 622 C 911 566 922 506 922 440 Z M 770 440 C 770 502 763 558 751 608 C 738 658 719 700 695 734 C 670 768 640 795 604 813 C 568 831 527 840 481 840 C 435 840 395 830 359 812 C 323 794 293 767 269 733 C 245 699 226 657 214 607 C 201 557 195 500 195 438 C 195 309 219 210 269 141 C 319 71 389 37 481 37 C 527 37 568 46 604 64 C 640 82 670 108 695 142 C 719 176 738 219 751 269 C 763 319 770 376 770 440 Z" unicode="o" />
<glyph horiz-adv-x="1034" d="M 991 446 C 991 386 981 328 961 272 C 941 216 912 166 876 123 C 840 80 796 46 746 20 C 695 -5 639 -18 578 -18 C 516 -18 463 -5 418 19 C 373 44 335 75 303 113 L 303 -264 C 303 -279 303 -291 305 -300 C 307 -309 310 -317 314 -323 C 318 -329 325 -333 333 -337 C 341 -340 351 -343 365 -346 C 377 -349 386 -352 394 -354 C 402 -356 406 -361 406 -369 L 406 -391 L 59 -391 L 59 -369 C 59 -361 62 -356 70 -354 C 78 -352 88 -349 100 -346 C 112 -343 123 -340 131 -337 C 139 -333 146 -329 150 -323 C 154 -317 157 -309 159 -300 C 161 -291 162 -279 162 -264 L 162 723 C 162 738 161 751 159 762 C 157 772 154 781 149 789 C 144 796 137 802 129 807 C 120 811 109 815 96 819 C 82 822 72 825 64 827 C 56 829 53 834 53 842 L 53 864 L 299 879 L 299 743 C 315 761 333 779 353 797 C 373 814 395 829 419 842 C 443 855 468 865 496 873 C 524 881 553 885 584 885 C 640 885 692 874 742 854 C 792 833 835 804 872 766 C 908 728 937 682 959 628 C 980 574 991 513 991 446 Z M 838 463 C 838 519 830 569 815 613 C 800 657 780 694 754 724 C 728 754 699 776 665 792 C 631 807 596 815 559 815 C 529 815 500 811 474 803 C 447 795 423 785 401 773 C 379 761 359 747 343 733 C 326 718 313 704 303 690 L 303 170 C 313 156 325 143 341 129 C 357 115 375 102 397 90 C 418 78 441 69 467 62 C 493 54 521 51 551 51 C 589 51 626 58 661 74 C 696 90 727 114 753 148 C 779 181 799 224 815 276 C 830 328 838 390 838 463 Z" unicode="p" />
<glyph horiz-adv-x="1008" d="M 975 -391 L 629 -391 L 629 -369 C 629 -361 632 -356 640 -354 C 647 -352 657 -349 670 -346 C 682 -343 693 -340 701 -337 C 709 -333 715 -329 719 -323 C 723 -317 726 -309 728 -300 C 730 -291 731 -279 731 -264 L 731 119 C 717 101 700 84 680 68 C 660 52 639 37 615 25 C 591 12 566 2 538 -5 C 510 -12 481 -16 451 -16 C 394 -16 341 -5 292 17 C 242 39 199 70 162 110 C 125 150 96 198 75 255 C 53 312 43 376 43 446 C 43 504 54 561 78 615 C 102 669 134 716 175 758 C 216 799 264 832 320 856 C 375 880 434 893 498 893 C 528 893 555 890 579 885 C 603 879 624 873 643 865 C 662 857 679 849 694 840 C 708 831 722 823 735 815 C 739 811 743 808 749 806 C 755 804 760 803 766 803 C 770 803 775 806 782 813 C 788 820 797 831 809 846 C 815 854 820 861 826 867 C 831 873 836 880 842 887 C 846 891 849 893 851 893 C 853 893 856 893 860 893 C 863 893 866 891 868 889 C 870 886 872 883 872 879 L 872 -264 C 872 -279 872 -291 874 -300 C 876 -309 879 -317 884 -323 C 888 -329 895 -333 903 -337 C 911 -340 921 -343 934 -346 C 946 -349 955 -352 963 -354 C 971 -356 975 -361 975 -369 L 975 -391 Z M 731 176 L 731 743 C 720 751 708 760 694 770 C 680 780 664 789 646 797 C 628 805 607 812 584 818 C 560 824 534 827 504 827 C 463 827 424 819 387 804 C 350 789 317 766 289 734 C 261 702 238 660 222 610 C 205 560 197 500 197 430 C 197 370 204 316 219 270 C 234 223 254 183 280 151 C 305 119 334 94 368 78 C 402 61 437 53 475 53 C 505 53 533 56 560 64 C 586 72 611 82 633 94 C 655 106 674 119 691 133 C 707 147 721 162 731 176 Z" unicode="q" />
<glyph horiz-adv-x="686" d="M 702 793 C 702 782 700 771 697 760 C 693 749 688 739 681 730 C 674 721 665 714 654 708 C 642 702 629 700 614 700 C 602 700 592 702 582 706 C 572 710 563 715 555 723 C 547 730 541 739 537 749 C 532 759 530 770 530 782 C 530 785 530 788 530 792 C 530 796 530 799 532 803 C 508 799 484 787 458 768 C 432 748 409 725 388 697 C 366 669 348 638 334 604 C 320 570 313 536 313 502 L 313 127 C 313 112 314 100 316 91 C 318 81 321 74 326 68 C 330 62 337 58 345 54 C 353 50 364 47 377 45 C 389 41 399 39 407 37 C 415 35 420 30 420 23 L 420 0 L 70 0 L 70 23 C 70 30 73 35 81 37 C 88 39 98 41 111 45 C 123 47 134 50 142 54 C 150 58 156 62 160 68 C 164 74 167 81 169 91 C 171 100 172 112 172 127 L 172 723 C 172 738 171 751 169 762 C 167 772 164 781 159 789 C 154 796 147 802 139 807 C 130 811 119 815 106 819 C 92 822 82 825 74 827 C 66 829 63 834 63 842 L 63 864 L 305 879 L 305 649 C 327 691 351 726 377 756 C 403 786 429 810 455 829 C 481 848 506 862 530 871 C 554 880 576 885 596 885 C 614 885 630 882 644 877 C 657 871 668 864 677 856 C 685 848 692 838 696 827 C 700 816 702 805 702 793 Z" unicode="r" />
<glyph horiz-adv-x="801" d="M 756 244 C 756 215 748 185 734 154 C 719 123 697 95 668 70 C 639 44 603 23 559 7 C 515 -9 464 -18 406 -18 C 358 -18 313 -13 270 -4 C 227 4 189 17 156 33 C 123 49 97 68 78 90 C 58 112 49 136 49 162 C 49 172 50 182 54 193 C 58 204 63 214 71 223 C 78 232 87 239 99 245 C 110 251 123 254 139 254 C 163 254 184 246 200 231 C 216 215 225 196 225 174 C 225 158 223 145 219 135 C 215 125 209 112 201 98 C 209 92 219 85 231 78 C 243 70 258 63 276 57 C 293 51 313 45 336 41 C 359 37 386 35 416 35 C 442 35 469 38 495 46 C 521 53 545 64 566 78 C 586 92 603 109 616 129 C 628 149 635 173 635 199 C 635 227 626 250 608 269 C 590 288 563 307 526 326 C 504 336 482 345 460 354 C 437 362 415 370 393 378 C 371 385 350 392 331 399 C 311 405 295 412 281 418 C 245 433 216 449 193 465 C 169 481 151 499 137 517 C 123 535 113 555 107 575 C 101 595 98 617 98 641 C 98 674 106 706 124 736 C 142 766 166 792 196 815 C 226 837 260 855 299 869 C 337 882 378 889 420 889 C 469 889 512 884 548 876 C 584 868 613 857 637 843 C 660 829 677 814 688 797 C 699 779 705 761 705 743 C 705 733 703 722 699 711 C 695 700 690 690 682 681 C 674 672 665 665 654 659 C 642 653 629 651 614 651 C 589 651 568 658 552 674 C 536 689 528 708 528 731 C 528 746 530 759 534 770 C 538 781 545 794 553 809 C 538 815 520 821 498 827 C 476 833 447 836 410 836 C 384 836 359 832 337 824 C 315 816 295 806 279 793 C 262 780 249 765 239 747 C 229 729 225 710 225 690 C 225 658 233 632 250 610 C 267 588 296 568 336 549 C 353 540 373 531 396 523 C 418 515 442 506 466 497 C 490 488 514 479 539 470 C 563 460 586 450 608 440 C 635 426 658 413 677 399 C 695 385 710 370 722 354 C 734 338 742 321 748 303 C 753 285 756 265 756 244 Z" unicode="s" />
<glyph horiz-adv-x="553" d="M 555 47 C 547 40 535 33 521 25 C 506 17 489 10 470 4 C 451 -1 430 -7 408 -11 C 386 -15 363 -18 340 -18 C 303 -18 273 -13 249 -4 C 225 4 206 16 192 32 C 178 48 168 66 162 88 C 156 109 154 132 154 158 L 154 807 L 41 807 L 41 829 C 41 836 45 841 53 843 C 61 845 73 848 88 852 C 112 858 131 866 143 878 C 155 889 162 909 162 938 L 162 1128 C 162 1133 163 1138 166 1142 C 169 1146 174 1149 180 1151 L 295 1167 L 295 860 L 530 860 L 530 807 L 295 807 L 295 160 C 295 144 297 129 301 115 C 305 101 311 90 321 80 C 330 70 342 63 357 57 C 372 51 390 49 412 49 C 418 49 427 49 437 51 C 447 53 457 55 469 58 C 480 61 492 65 504 69 C 516 73 527 78 537 84 L 555 47 Z" unicode="t" />
<glyph horiz-adv-x="1069" d="M 1018 18 L 772 -2 L 772 131 C 750 109 728 88 706 70 C 683 52 659 36 634 23 C 608 10 581 0 553 -7 C 524 -14 493 -18 459 -18 C 409 -18 366 -11 328 3 C 290 17 258 37 232 63 C 206 89 187 120 174 156 C 160 192 154 232 154 276 L 154 723 C 154 739 153 752 151 763 C 149 774 145 783 140 790 C 135 797 128 803 120 807 C 111 811 100 815 88 819 C 74 822 64 825 56 827 C 48 829 45 834 45 842 L 45 864 L 297 879 L 297 268 C 297 232 302 200 314 173 C 325 146 341 124 361 107 C 381 89 404 76 431 68 C 457 59 486 55 516 55 C 540 55 565 58 589 66 C 613 73 637 83 659 95 C 681 107 701 122 719 139 C 737 155 754 173 768 193 L 768 723 C 768 738 767 751 765 762 C 763 772 759 781 754 789 C 748 796 741 802 732 807 C 723 811 712 815 698 819 C 684 822 673 825 665 827 C 657 829 653 834 653 842 L 653 864 L 909 879 L 909 160 C 909 139 910 123 912 112 C 914 100 917 91 922 85 C 927 79 934 74 943 72 C 951 69 962 66 975 63 C 988 59 998 57 1006 55 C 1014 53 1018 48 1018 41 L 1018 18 Z" unicode="u" />
<glyph horiz-adv-x="913" d="M 938 838 C 938 829 934 824 927 823 C 919 821 909 818 897 813 C 887 809 879 805 871 800 C 863 795 856 788 848 780 C 840 772 833 761 825 747 C 817 733 809 715 799 694 L 481 -8 C 479 -12 475 -14 471 -14 L 444 -14 C 442 -14 439 -13 437 -12 C 435 -11 433 -10 432 -8 L 86 764 C 80 777 72 787 64 795 C 56 803 43 809 25 815 C 12 818 2 821 -5 823 C -12 825 -16 830 -16 838 L -16 860 L 334 860 L 334 838 C 334 830 330 825 322 823 C 314 821 305 818 293 815 C 280 811 270 808 263 805 C 255 801 250 798 246 795 C 242 791 240 788 239 784 C 238 780 238 777 238 774 C 238 766 240 756 245 745 C 249 734 254 724 258 715 L 502 168 L 735 698 C 741 712 747 726 751 738 C 755 750 758 760 758 770 C 758 772 757 776 756 780 C 755 784 753 788 749 792 C 745 796 740 800 732 804 C 724 808 714 811 702 815 C 690 818 680 821 673 823 C 665 825 662 830 662 838 L 662 860 L 938 860 L 938 838 Z" unicode="v" />
<glyph horiz-adv-x="1407" d="M 1419 838 C 1420 829 1417 824 1410 823 C 1402 821 1392 818 1380 813 C 1370 809 1362 805 1355 800 C 1347 795 1340 788 1333 780 C 1326 772 1319 761 1312 747 C 1304 733 1296 715 1288 694 L 1004 -6 C 1000 -10 997 -12 993 -12 L 967 -12 C 961 -12 958 -10 956 -6 L 705 666 L 459 -6 C 459 -10 456 -12 451 -12 L 418 -12 C 416 -12 413 -11 411 -10 C 409 -9 407 -8 406 -6 L 98 764 C 92 778 84 789 76 796 C 67 803 53 809 35 815 C 22 818 12 821 6 823 C 0 825 -4 830 -4 838 L -4 860 L 344 860 L 344 838 C 344 830 340 825 332 823 C 324 821 313 818 301 815 C 288 811 278 808 271 805 C 264 801 259 798 255 795 C 251 791 249 788 249 784 C 248 780 248 777 248 774 C 248 766 249 756 253 746 C 256 735 260 725 264 715 L 473 193 L 713 860 L 774 860 L 1024 193 L 1225 698 C 1230 712 1234 726 1238 738 C 1241 750 1243 760 1243 770 C 1243 776 1239 783 1233 792 C 1227 801 1211 809 1186 815 C 1173 818 1163 821 1156 823 C 1148 825 1144 830 1143 838 L 1143 860 L 1419 860 L 1419 838 Z" unicode="w" />
<glyph horiz-adv-x="938" d="M 946 0 L 604 0 L 604 23 C 604 29 607 33 614 35 C 620 37 630 39 643 43 C 650 45 657 48 664 53 C 670 58 674 64 674 72 C 674 80 669 89 660 101 C 650 113 641 125 631 137 L 436 385 L 252 158 C 247 152 242 145 236 137 C 230 129 224 120 219 112 C 214 104 210 96 206 89 C 202 81 201 76 201 72 C 201 65 204 59 212 55 C 219 50 229 46 242 43 C 254 39 264 37 272 35 C 280 33 285 29 285 23 L 285 0 L -8 0 L -8 23 C -8 30 -4 35 4 37 C 12 39 22 41 35 45 C 47 47 57 51 66 55 C 75 59 84 65 94 73 C 104 80 114 89 125 101 C 135 113 148 127 164 145 L 403 426 L 168 715 C 153 733 140 748 130 760 C 120 772 111 781 103 789 C 95 797 87 803 81 807 C 74 811 67 813 59 815 C 47 818 36 821 28 823 C 20 825 16 830 16 838 L 16 860 L 358 860 L 358 838 C 358 831 354 827 348 825 C 341 823 331 820 319 817 C 311 815 304 811 298 806 C 292 801 289 795 289 788 C 289 780 293 770 302 759 C 311 747 321 735 332 723 L 496 512 L 651 702 C 655 708 661 715 667 723 C 673 731 678 739 683 747 C 688 755 692 763 696 771 C 700 778 702 784 702 788 C 702 794 698 800 691 805 C 683 809 674 813 662 817 C 649 820 638 823 630 825 C 622 827 618 831 618 838 L 618 860 L 911 860 L 911 838 C 911 830 907 825 899 823 C 891 821 880 818 868 815 C 856 812 845 808 836 804 C 827 800 818 794 809 787 C 799 779 789 770 778 758 C 767 746 754 732 739 715 L 528 473 L 795 145 C 809 127 822 112 832 100 C 842 88 851 78 859 70 C 867 62 874 57 881 53 C 887 49 895 46 903 45 C 915 41 926 39 934 37 C 942 35 946 30 946 23 L 946 0 Z" unicode="x" />
<glyph horiz-adv-x="913" d="M 938 838 C 938 829 934 824 927 823 C 919 821 909 818 897 813 C 887 809 879 805 871 800 C 863 795 856 788 848 780 C 840 772 833 761 825 747 C 817 733 809 715 799 694 L 487 -8 C 449 -94 413 -163 379 -215 C 345 -267 314 -306 285 -334 C 255 -362 228 -380 203 -389 C 178 -398 155 -403 135 -403 C 115 -403 98 -400 84 -395 C 70 -389 58 -382 49 -373 C 39 -364 32 -354 27 -343 C 22 -332 20 -321 20 -309 C 20 -299 21 -288 25 -278 C 28 -267 33 -257 41 -249 C 48 -240 57 -233 69 -227 C 80 -221 93 -219 109 -219 C 120 -219 130 -221 140 -226 C 150 -230 158 -237 166 -245 C 173 -253 179 -262 183 -273 C 187 -283 190 -295 190 -307 C 190 -310 189 -315 189 -321 C 188 -327 187 -332 186 -336 C 204 -330 224 -316 245 -296 C 266 -276 287 -250 308 -219 C 329 -188 350 -153 370 -115 C 390 -76 408 -36 426 6 L 86 764 C 80 777 72 787 64 795 C 56 803 43 809 25 815 C 12 818 2 821 -5 823 C -12 825 -16 830 -16 838 L -16 860 L 334 860 L 334 838 C 334 830 330 825 322 823 C 314 821 305 818 293 815 C 280 811 270 808 263 805 C 256 801 251 798 247 794 C 243 790 241 787 241 783 C 240 779 240 775 240 772 C 240 764 241 755 245 745 C 248 735 252 725 258 715 L 502 168 L 735 698 C 741 712 747 726 751 738 C 755 750 758 760 758 770 C 758 772 757 776 756 780 C 755 784 753 788 749 792 C 745 796 740 800 732 804 C 724 808 714 811 702 815 C 690 818 680 821 673 823 C 665 825 662 830 662 838 L 662 860 L 938 860 L 938 838 Z" unicode="y" />
<glyph horiz-adv-x="819" d="M 780 -4 C 766 -2 750 -1 730 -1 C 710 0 693 0 678 0 L 27 0 L 27 29 C 27 39 28 48 30 58 C 32 68 37 78 45 88 L 612 809 L 287 809 C 251 809 221 797 199 773 C 176 749 156 709 139 653 C 136 643 130 639 121 639 L 80 639 L 80 866 C 95 864 114 863 138 862 C 162 860 185 860 209 860 L 762 860 L 762 827 C 762 817 761 807 759 797 C 757 787 751 778 743 768 L 178 51 L 578 51 C 597 51 614 54 628 62 C 642 70 654 81 665 95 C 675 109 685 126 693 147 C 701 167 708 191 715 217 C 718 228 722 235 726 239 C 730 242 737 244 745 244 L 780 244 L 780 -4 Z" unicode="z" />
<glyph horiz-adv-x="766" d="M 700 -401 C 634 -399 575 -387 521 -365 C 467 -343 421 -313 382 -276 C 343 -239 313 -196 292 -146 C 270 -96 260 -44 260 12 C 260 56 262 97 267 137 C 271 176 274 216 274 256 C 274 329 257 389 224 435 C 190 481 135 512 59 528 L 59 573 C 136 589 191 620 224 665 C 257 709 274 769 274 844 C 274 884 271 923 267 962 C 262 1001 260 1043 260 1087 C 260 1143 270 1196 292 1246 C 313 1296 343 1339 382 1376 C 420 1413 467 1443 521 1465 C 575 1487 634 1499 700 1501 L 700 1454 C 644 1440 597 1423 559 1405 C 521 1386 491 1364 469 1338 C 447 1312 431 1283 422 1250 C 412 1216 408 1178 408 1135 C 408 1086 409 1043 413 1006 C 416 968 418 932 418 897 C 418 861 411 826 398 792 C 385 758 367 725 343 695 C 319 664 290 636 256 612 C 222 588 184 568 143 553 C 184 537 222 516 256 492 C 290 467 319 439 343 409 C 367 378 385 345 398 310 C 411 275 418 239 418 203 C 418 167 416 131 413 93 C 409 55 408 13 408 -35 C 408 -78 412 -116 422 -150 C 431 -183 447 -212 469 -238 C 491 -264 521 -286 559 -305 C 597 -323 644 -340 700 -354 L 700 -401 Z" unicode="{" />
<glyph horiz-adv-x="111" d="M 111 -389 L 0 -389 L 0 1495 L 111 1495 L 111 -389 Z" unicode="|" />
<glyph horiz-adv-x="766" d="M 707 528 C 629 512 574 481 541 435 C 508 389 492 329 492 256 C 492 216 494 176 499 137 C 503 97 506 56 506 12 C 506 -44 495 -96 474 -146 C 452 -196 422 -239 383 -276 C 344 -313 298 -343 244 -365 C 190 -387 130 -399 66 -401 L 66 -354 C 122 -340 168 -323 206 -305 C 244 -286 274 -264 296 -238 C 318 -212 334 -183 344 -150 C 353 -116 358 -78 358 -35 C 358 13 356 55 353 93 C 349 131 348 167 348 203 C 348 239 354 275 367 310 C 380 345 399 378 423 409 C 447 439 476 467 510 492 C 544 516 581 537 623 553 C 581 568 544 588 510 612 C 476 636 447 664 423 695 C 399 725 380 758 367 792 C 354 826 348 861 348 897 C 348 932 349 968 353 1006 C 356 1043 358 1086 358 1135 C 358 1178 353 1216 344 1250 C 334 1283 318 1312 296 1338 C 274 1364 244 1386 206 1405 C 168 1423 122 1440 66 1454 L 66 1501 C 131 1499 191 1487 245 1465 C 299 1443 345 1413 384 1376 C 422 1339 452 1296 474 1246 C 495 1196 506 1143 506 1087 C 506 1043 503 1001 499 962 C 494 923 492 884 492 844 C 492 769 508 709 541 665 C 574 620 629 589 707 573 L 707 528 Z" unicode="}" />
<glyph horiz-adv-x="1544" d="M 1325 795 C 1321 749 1310 704 1293 662 C 1275 619 1252 581 1224 548 C 1195 514 1161 488 1123 468 C 1084 448 1041 438 995 438 C 976 438 959 439 943 443 C 927 447 910 453 893 461 C 876 469 858 479 838 492 C 818 504 796 519 770 537 C 745 553 722 568 700 582 C 678 596 657 609 636 620 C 615 630 594 639 574 645 C 554 651 533 655 512 655 C 479 655 450 647 426 633 C 401 619 380 600 363 578 C 346 555 333 530 323 503 C 313 476 306 450 303 426 L 250 426 C 254 471 264 515 282 557 C 300 599 323 637 352 670 C 380 702 414 728 452 748 C 490 768 532 778 578 778 C 602 778 624 776 643 773 C 662 769 680 764 697 757 C 714 750 731 741 749 730 C 766 719 786 706 809 692 C 833 676 857 660 880 645 C 902 629 924 616 945 604 C 965 592 985 582 1004 575 C 1023 568 1042 565 1061 565 C 1095 565 1124 572 1149 586 C 1173 600 1194 619 1211 642 C 1228 664 1241 689 1251 716 C 1261 743 1268 769 1272 795 L 1325 795 Z" unicode="~" />
<glyph horiz-adv-x="424" d="" unicode="" />
<glyph horiz-adv-x="555" d="M 383 1014 C 383 998 380 984 374 971 C 368 958 361 947 352 938 C 342 928 331 921 318 915 C 304 909 290 907 276 907 C 261 907 247 909 234 915 C 221 921 210 928 200 938 C 190 947 182 958 176 971 C 170 984 168 998 168 1014 C 168 1028 170 1042 176 1055 C 182 1068 190 1079 200 1089 C 210 1098 221 1105 234 1111 C 247 1117 261 1120 276 1120 C 290 1120 304 1117 318 1111 C 331 1105 342 1098 352 1089 C 361 1079 368 1068 374 1055 C 380 1042 383 1028 383 1014 Z M 373 -262 C 373 -280 371 -297 369 -315 C 366 -333 361 -349 354 -363 C 347 -377 338 -388 326 -397 C 314 -405 298 -410 279 -410 C 259 -410 242 -405 230 -397 C 217 -388 207 -377 200 -363 C 193 -349 188 -333 186 -315 C 183 -297 182 -280 182 -262 C 182 -229 183 -197 186 -165 C 188 -133 192 -99 196 -63 C 200 -27 205 12 211 54 C 217 96 223 143 229 197 C 235 245 239 293 241 340 C 243 387 245 433 246 477 C 246 521 247 564 247 605 C 247 645 248 683 250 719 C 250 721 253 722 259 724 C 265 726 270 727 276 727 C 280 727 286 726 292 724 C 298 722 301 721 301 719 C 302 683 303 644 303 604 C 303 563 304 521 305 477 C 306 433 308 387 311 340 C 313 293 318 245 324 197 C 330 143 336 95 342 53 C 348 11 353 -28 358 -64 C 362 -100 366 -134 369 -166 C 371 -198 373 -230 373 -262 Z" unicode="" />
<glyph horiz-adv-x="963" d="M 889 438 C 877 418 861 398 843 377 C 825 355 803 336 777 318 C 751 300 722 284 690 271 C 658 257 622 249 582 246 L 582 -18 L 518 -18 L 518 248 C 462 250 409 261 360 283 C 311 304 268 334 232 372 C 195 410 166 455 145 509 C 123 562 113 622 113 688 C 113 744 122 798 141 850 C 160 902 187 948 223 990 C 258 1032 300 1066 350 1093 C 399 1120 454 1137 516 1143 L 516 1366 L 580 1366 L 580 1141 C 624 1140 662 1134 696 1123 C 729 1112 757 1098 780 1081 C 802 1064 819 1045 831 1025 C 842 1005 848 985 848 965 C 848 947 845 932 840 920 C 834 908 827 898 819 891 C 810 883 800 878 790 875 C 779 871 768 870 758 870 C 732 870 711 876 693 889 C 675 902 666 923 666 952 C 666 965 668 979 673 995 C 678 1011 686 1029 696 1051 C 682 1059 661 1067 633 1076 C 604 1085 568 1090 524 1090 C 482 1090 445 1080 413 1061 C 381 1042 355 1016 334 983 C 313 950 297 912 287 868 C 277 824 272 777 272 727 C 272 677 277 628 289 580 C 300 531 317 487 341 448 C 365 409 395 377 432 353 C 469 329 513 317 565 317 C 599 317 629 321 657 330 C 685 339 710 351 733 366 C 756 381 777 398 797 418 C 816 437 835 457 854 477 L 889 438 Z" unicode="" />
<glyph horiz-adv-x="1124" d="M 1145 172 C 1129 148 1111 125 1093 103 C 1075 80 1054 59 1030 41 C 1006 23 980 8 950 -3 C 920 -14 885 -20 846 -20 C 806 -20 770 -14 739 -2 C 708 9 680 24 655 43 C 629 62 606 83 585 107 C 563 131 542 155 522 180 C 506 150 488 122 469 98 C 450 73 429 52 407 34 C 385 16 360 3 333 -6 C 306 -15 276 -20 244 -20 C 220 -20 196 -16 172 -9 C 148 -1 126 9 108 24 C 89 39 74 58 62 80 C 50 102 45 128 45 158 C 45 193 51 223 64 249 C 76 275 93 296 114 313 C 135 329 159 342 186 350 C 213 358 241 362 270 362 C 306 362 340 356 374 346 C 408 336 444 321 483 303 C 480 345 474 384 466 420 C 458 455 448 487 437 515 C 426 543 415 568 404 589 C 392 609 383 626 375 639 C 371 645 368 651 364 657 C 360 663 356 670 352 680 L 100 680 L 100 735 L 322 735 C 303 781 288 826 276 871 C 264 915 258 964 258 1018 C 258 1068 268 1118 290 1167 C 311 1215 342 1259 382 1297 C 422 1335 470 1365 527 1388 C 583 1411 647 1423 717 1423 C 767 1423 812 1416 854 1404 C 896 1391 931 1374 961 1353 C 991 1332 1014 1308 1030 1280 C 1046 1252 1055 1224 1055 1194 C 1055 1172 1052 1154 1046 1140 C 1040 1125 1033 1113 1024 1104 C 1014 1094 1004 1087 992 1083 C 980 1079 969 1077 958 1077 C 946 1077 934 1078 922 1082 C 910 1085 899 1090 890 1098 C 881 1106 874 1115 868 1127 C 862 1139 860 1153 860 1169 C 860 1177 860 1185 862 1193 C 863 1201 866 1209 871 1218 C 876 1227 884 1237 894 1247 C 904 1257 918 1268 936 1280 C 900 1312 866 1334 832 1345 C 798 1356 765 1362 731 1362 C 686 1362 644 1355 606 1343 C 568 1331 534 1312 506 1287 C 478 1262 456 1231 440 1194 C 424 1156 416 1113 416 1063 C 416 1037 418 1011 424 985 C 430 959 437 932 447 904 C 456 876 466 848 478 820 C 490 792 502 763 514 735 L 899 735 L 899 680 L 535 680 C 542 659 548 640 554 622 C 560 604 564 587 568 571 C 572 555 575 539 577 524 C 579 508 580 493 580 477 C 580 445 578 410 574 373 C 570 336 563 298 551 258 C 573 240 597 223 623 205 C 649 187 676 172 704 158 C 732 144 761 132 791 124 C 821 115 853 111 887 111 C 904 111 923 112 943 116 C 963 119 984 124 1004 132 C 1024 139 1043 148 1061 160 C 1079 171 1096 185 1110 201 L 1145 172 Z M 465 223 C 437 244 407 263 375 280 C 343 296 306 305 266 305 C 242 305 220 301 201 293 C 181 285 165 275 151 262 C 137 248 127 233 120 216 C 112 198 109 180 109 162 C 109 144 111 127 116 111 C 121 95 129 80 140 68 C 151 56 165 46 183 39 C 201 32 222 29 248 29 C 270 29 293 33 315 41 C 337 49 358 61 378 77 C 398 93 415 114 430 138 C 445 162 457 191 465 223 Z" unicode="" />
<glyph horiz-adv-x="1143" d="M 1106 221 C 1086 181 1061 147 1030 117 C 998 87 964 61 926 41 C 888 21 850 5 810 -4 C 770 -14 732 -20 696 -20 C 622 -20 556 -6 499 21 C 442 48 393 86 352 136 C 311 186 278 246 254 316 C 229 386 212 463 203 549 L 57 549 L 57 604 L 199 604 C 199 612 198 622 198 632 C 198 642 198 651 198 661 C 198 670 197 679 197 687 C 197 695 197 701 197 705 C 197 709 197 714 197 719 C 197 723 198 729 199 736 C 199 743 200 751 201 761 C 202 771 203 783 205 799 L 57 799 L 57 854 L 213 854 C 227 940 249 1019 280 1089 C 310 1159 349 1219 395 1269 C 441 1318 494 1356 555 1383 C 616 1409 684 1423 758 1423 C 803 1423 844 1418 882 1408 C 920 1398 952 1385 979 1368 C 1006 1351 1027 1331 1042 1309 C 1057 1286 1065 1261 1065 1235 C 1065 1205 1057 1180 1041 1162 C 1025 1144 1003 1135 975 1135 C 941 1135 917 1144 904 1162 C 890 1180 883 1203 881 1231 L 872 1327 C 868 1329 861 1332 853 1336 C 845 1340 834 1343 822 1347 C 809 1351 795 1354 779 1357 C 763 1360 745 1362 727 1362 C 677 1362 631 1350 590 1326 C 549 1302 513 1269 482 1225 C 450 1181 424 1127 404 1065 C 383 1002 368 932 360 854 L 827 854 L 827 799 L 356 799 C 354 774 354 755 354 742 C 354 728 354 715 354 702 C 354 688 354 673 354 657 C 354 641 354 623 356 604 L 764 604 L 764 549 L 358 549 C 364 475 375 408 393 348 C 411 288 435 237 465 195 C 495 153 531 120 574 97 C 616 74 666 63 723 63 C 755 63 787 66 818 73 C 848 80 878 91 906 107 C 934 122 962 142 988 168 C 1014 193 1040 224 1065 260 L 1106 221 Z" unicode="" />
<glyph horiz-adv-x="1268" d="M 1247 1372 C 1247 1364 1240 1357 1228 1352 C 1216 1347 1203 1341 1190 1335 C 1162 1323 1138 1306 1120 1285 C 1102 1263 1083 1238 1065 1208 L 803 795 L 1081 795 L 1081 739 L 764 739 L 707 643 L 707 565 L 1081 565 L 1081 510 L 709 510 L 709 152 C 709 134 710 119 712 109 C 714 98 717 89 723 83 C 728 77 735 72 745 68 C 754 64 766 61 782 57 C 795 53 807 50 818 46 C 828 42 834 37 834 29 L 834 0 L 436 0 L 436 29 C 436 37 441 42 451 46 C 461 50 473 53 487 57 C 502 61 514 64 524 68 C 534 72 541 77 547 83 C 552 89 556 98 558 109 C 560 119 561 134 561 152 L 561 510 L 188 510 L 188 565 L 563 565 L 563 637 L 496 739 L 190 739 L 190 795 L 457 795 L 158 1255 C 150 1267 143 1277 137 1286 C 131 1295 124 1303 117 1310 C 109 1317 101 1323 91 1329 C 81 1334 69 1339 55 1343 C 41 1347 29 1351 19 1355 C 9 1358 4 1364 4 1372 L 4 1401 L 426 1401 L 426 1372 C 426 1364 421 1358 411 1354 C 401 1350 390 1346 377 1343 C 361 1339 348 1335 339 1331 C 329 1327 322 1324 318 1320 C 313 1316 310 1313 309 1309 C 307 1305 307 1300 307 1296 C 307 1291 309 1284 313 1276 C 317 1267 321 1258 327 1248 C 332 1238 338 1228 344 1219 C 350 1209 354 1202 358 1196 L 674 715 L 979 1206 C 983 1213 988 1221 993 1230 C 998 1238 1003 1247 1007 1256 C 1011 1264 1015 1272 1018 1279 C 1020 1286 1022 1292 1022 1296 C 1022 1304 1017 1312 1008 1320 C 998 1327 978 1335 946 1343 C 932 1346 921 1350 912 1354 C 903 1358 899 1364 899 1372 L 899 1401 L 1247 1401 L 1247 1372 Z" unicode="" />
<glyph horiz-adv-x="1137" d="M 1012 573 C 1012 519 994 465 958 411 C 922 356 867 304 793 254 C 825 232 850 211 870 191 C 889 170 904 149 915 128 C 925 107 932 86 936 65 C 940 44 942 22 942 0 C 942 -41 931 -80 910 -118 C 889 -156 861 -189 825 -219 C 789 -248 748 -271 701 -289 C 654 -306 605 -315 553 -315 C 491 -315 437 -307 389 -293 C 341 -278 301 -259 268 -237 C 234 -214 209 -189 192 -161 C 174 -133 166 -106 166 -80 C 166 -58 168 -40 174 -26 C 180 -12 187 0 196 7 C 205 15 215 21 226 25 C 237 29 248 31 258 31 C 270 31 282 29 294 26 C 306 23 316 18 325 12 C 334 5 341 -3 347 -15 C 353 -26 356 -40 356 -57 C 356 -64 355 -71 354 -79 C 353 -86 350 -94 346 -102 C 341 -110 334 -118 324 -127 C 314 -136 301 -146 285 -156 C 303 -170 320 -183 338 -195 C 355 -207 374 -217 395 -226 C 415 -235 439 -242 465 -248 C 491 -253 521 -256 555 -256 C 594 -256 629 -249 661 -237 C 692 -224 718 -208 740 -189 C 762 -169 778 -148 790 -126 C 801 -103 807 -82 807 -63 C 807 -46 806 -30 806 -16 C 806 -1 803 13 798 28 C 792 42 783 57 771 72 C 759 87 741 103 718 121 C 694 138 664 157 627 178 C 589 198 543 221 489 246 C 429 272 377 298 333 324 C 288 350 251 377 221 405 C 191 433 168 464 153 497 C 138 529 131 566 131 606 C 131 629 135 653 143 679 C 151 705 163 731 181 758 C 198 784 221 812 249 840 C 277 868 312 896 354 924 C 320 947 293 969 273 990 C 253 1010 237 1031 226 1051 C 215 1071 208 1091 204 1111 C 200 1131 199 1153 199 1176 C 199 1217 209 1257 229 1296 C 249 1334 277 1368 313 1398 C 349 1428 391 1452 439 1470 C 487 1488 538 1497 594 1497 C 654 1497 707 1489 754 1475 C 800 1460 840 1441 872 1418 C 904 1395 929 1369 946 1340 C 962 1311 971 1283 971 1255 C 971 1235 968 1218 962 1204 C 956 1190 949 1179 941 1171 C 933 1163 923 1157 913 1153 C 903 1149 893 1147 883 1147 C 871 1147 859 1148 847 1151 C 835 1153 824 1158 814 1165 C 804 1172 795 1181 789 1193 C 783 1205 780 1219 780 1237 C 780 1243 780 1249 782 1257 C 783 1264 786 1272 791 1280 C 796 1288 804 1297 814 1306 C 824 1315 838 1325 856 1335 C 834 1349 813 1362 795 1374 C 776 1386 757 1396 737 1405 C 717 1414 695 1421 672 1426 C 648 1431 621 1434 590 1434 C 550 1434 515 1427 483 1414 C 451 1401 424 1385 401 1366 C 378 1346 360 1325 348 1303 C 336 1280 330 1259 330 1241 C 330 1223 330 1206 331 1191 C 332 1175 336 1160 342 1146 C 348 1131 357 1116 369 1102 C 381 1087 399 1071 423 1055 C 446 1038 475 1020 511 1001 C 546 981 589 960 641 936 C 703 906 758 877 805 851 C 851 825 890 798 921 770 C 951 742 974 713 989 681 C 1004 649 1012 613 1012 573 Z M 885 485 C 885 512 882 537 876 561 C 870 585 860 607 846 628 C 832 649 815 669 793 688 C 771 706 745 724 713 741 C 682 757 652 773 622 788 C 592 802 563 816 537 830 C 510 843 485 855 463 867 C 441 878 422 889 406 899 C 384 884 363 868 345 851 C 327 833 311 816 298 798 C 284 780 274 762 267 744 C 259 726 256 710 256 694 C 256 636 270 586 299 546 C 328 505 373 468 434 436 C 468 416 499 400 525 386 C 551 372 575 360 598 349 C 620 338 643 327 665 317 C 687 307 713 295 741 283 C 761 295 779 309 797 325 C 814 341 829 359 842 377 C 855 395 865 413 873 432 C 881 450 885 468 885 485 Z" unicode="" />
<glyph horiz-adv-x="831" d="M 696 1147 C 696 1135 693 1123 689 1112 C 684 1100 677 1090 669 1082 C 660 1074 650 1067 639 1062 C 627 1057 615 1055 602 1055 C 588 1055 576 1057 565 1062 C 553 1067 543 1074 535 1082 C 526 1090 519 1100 515 1112 C 510 1123 508 1135 508 1147 C 508 1159 510 1170 515 1182 C 519 1193 526 1203 535 1211 C 543 1219 553 1226 565 1231 C 576 1236 588 1239 602 1239 C 615 1239 627 1236 639 1231 C 650 1226 660 1219 669 1211 C 677 1203 684 1193 689 1182 C 693 1170 696 1159 696 1147 Z M 324 1147 C 324 1122 315 1100 297 1082 C 279 1064 256 1055 229 1055 C 215 1055 203 1057 192 1062 C 180 1067 170 1074 162 1082 C 153 1090 146 1100 142 1112 C 137 1123 135 1135 135 1147 C 135 1159 137 1170 142 1182 C 146 1193 153 1203 162 1211 C 170 1219 180 1226 192 1231 C 203 1236 215 1239 229 1239 C 256 1239 279 1229 297 1211 C 315 1193 324 1171 324 1147 Z" unicode="" />
<glyph horiz-adv-x="1671" d="M 1606 729 C 1606 660 1597 594 1579 531 C 1561 468 1535 409 1502 355 C 1469 300 1429 250 1383 206 C 1336 161 1284 123 1227 91 C 1170 59 1109 35 1043 18 C 977 0 908 -8 836 -8 C 764 -8 694 0 628 18 C 562 35 500 59 443 91 C 386 123 334 161 288 206 C 242 250 202 300 169 355 C 136 409 111 468 93 531 C 75 594 66 660 66 729 C 66 797 75 863 93 927 C 111 990 136 1049 169 1104 C 202 1158 242 1208 288 1253 C 334 1297 386 1336 443 1368 C 500 1400 562 1424 628 1442 C 694 1459 764 1468 836 1468 C 908 1468 977 1459 1043 1442 C 1109 1424 1170 1400 1227 1368 C 1284 1336 1336 1297 1383 1253 C 1429 1208 1469 1158 1502 1104 C 1535 1049 1561 990 1579 927 C 1597 863 1606 797 1606 729 Z M 1542 729 C 1542 791 1533 852 1517 910 C 1500 968 1476 1023 1446 1074 C 1416 1125 1379 1172 1337 1214 C 1294 1256 1246 1292 1194 1322 C 1142 1352 1085 1375 1025 1392 C 965 1408 902 1417 836 1417 C 770 1417 706 1408 646 1392 C 586 1375 530 1352 478 1322 C 426 1292 378 1256 336 1214 C 293 1172 256 1125 226 1074 C 196 1023 172 968 156 910 C 139 852 131 791 131 729 C 131 666 139 605 156 547 C 172 489 196 434 226 383 C 256 332 293 286 336 244 C 378 202 426 167 478 137 C 530 107 586 83 647 67 C 707 51 770 43 836 43 C 902 43 965 51 1025 67 C 1085 83 1142 107 1194 137 C 1246 167 1294 202 1337 244 C 1379 286 1416 332 1446 383 C 1476 434 1500 489 1517 547 C 1533 605 1542 666 1542 729 Z M 1169 481 C 1159 465 1146 447 1128 427 C 1110 407 1087 388 1060 370 C 1033 352 1002 337 967 325 C 931 313 892 307 850 307 C 784 307 727 318 677 341 C 627 363 585 394 551 432 C 517 470 492 515 475 565 C 457 615 449 667 449 721 C 449 790 460 851 484 904 C 508 956 538 1000 576 1035 C 614 1070 656 1096 702 1114 C 748 1132 794 1141 840 1141 C 876 1141 910 1135 942 1125 C 973 1114 1005 1099 1038 1081 C 1051 1072 1064 1071 1077 1079 C 1083 1084 1088 1088 1091 1091 C 1094 1094 1098 1096 1102 1096 L 1128 1096 L 1128 891 L 1090 891 C 1084 891 1080 892 1077 894 C 1074 896 1072 899 1071 903 C 1063 928 1052 952 1039 975 C 1026 997 1011 1017 993 1034 C 975 1051 955 1065 933 1075 C 911 1085 887 1090 862 1090 C 832 1090 802 1083 771 1070 C 739 1056 711 1035 685 1006 C 659 976 637 939 621 893 C 604 847 596 791 596 727 C 596 669 602 617 616 573 C 630 529 648 492 672 462 C 696 432 723 409 755 394 C 786 378 820 371 856 371 C 894 371 928 376 959 388 C 990 399 1017 412 1040 428 C 1063 443 1082 459 1097 476 C 1112 492 1123 506 1130 516 L 1169 481 Z" unicode="" />
<glyph horiz-adv-x="903" d="M 821 729 C 803 705 785 688 765 676 C 745 664 726 659 709 659 C 697 659 684 660 672 662 C 659 664 646 669 634 677 C 621 684 609 695 599 709 C 588 723 579 742 571 766 C 536 724 498 694 458 678 C 418 661 379 653 342 653 C 310 653 279 657 251 666 C 223 675 198 689 176 707 C 154 725 137 747 125 773 C 112 799 106 830 106 864 C 106 898 114 930 131 961 C 147 992 174 1019 211 1043 C 247 1066 295 1085 354 1099 C 412 1113 483 1120 567 1122 C 565 1200 550 1261 524 1305 C 498 1348 457 1370 403 1370 C 387 1370 370 1368 350 1364 C 330 1360 312 1352 297 1341 C 304 1329 309 1318 312 1308 C 315 1298 317 1288 317 1276 C 317 1255 310 1238 296 1224 C 282 1210 264 1204 244 1204 C 230 1204 218 1206 208 1211 C 198 1216 190 1223 184 1231 C 178 1239 173 1247 170 1257 C 167 1266 166 1275 166 1284 C 166 1300 171 1317 183 1334 C 195 1350 211 1365 232 1378 C 252 1390 277 1401 306 1409 C 335 1417 367 1421 401 1421 C 455 1421 500 1414 537 1400 C 573 1386 603 1366 625 1341 C 647 1316 662 1286 672 1250 C 681 1214 686 1175 686 1133 L 686 813 C 686 788 691 769 703 755 C 715 741 733 735 758 735 C 765 735 772 736 780 739 C 788 741 796 745 805 750 L 821 729 Z M 567 881 L 567 1073 C 451 1071 365 1053 309 1020 C 253 987 225 940 225 879 C 225 827 239 787 269 760 C 299 732 337 719 383 719 C 405 719 428 723 450 733 C 472 743 492 755 509 771 C 526 787 540 804 551 823 C 561 842 567 861 567 881 Z" unicode="" />
<glyph horiz-adv-x="891" d="M 803 102 L 735 102 L 465 399 C 457 408 451 417 446 427 C 440 437 438 447 438 459 C 438 470 440 480 446 490 C 451 499 457 508 465 518 L 735 815 L 803 815 L 573 459 L 803 102 Z M 457 102 L 389 102 L 119 399 C 111 408 105 417 100 427 C 94 437 92 447 92 459 C 92 470 94 480 100 490 C 105 499 111 508 119 518 L 389 815 L 457 815 L 229 459 L 457 102 Z" unicode="" />
<glyph horiz-adv-x="1544" d="M 1274 104 L 1184 104 L 1184 580 L 233 580 L 233 662 L 1274 662 L 1274 104 Z" unicode="" />
<glyph horiz-adv-x="635" d="M 545 403 L 90 403 L 90 512 L 545 512 L 545 403 Z" unicode="" />
<glyph horiz-adv-x="1018" d="M 985 1034 C 985 970 972 911 947 855 C 922 799 888 750 845 709 C 801 667 751 635 693 611 C 635 587 573 575 508 575 C 442 575 381 587 324 611 C 266 635 216 667 173 709 C 129 750 95 799 70 855 C 45 911 33 970 33 1034 C 33 1097 45 1157 70 1213 C 95 1269 129 1317 173 1359 C 216 1401 266 1434 324 1458 C 381 1482 442 1495 508 1495 C 573 1495 635 1482 693 1458 C 751 1434 801 1401 845 1359 C 888 1317 922 1269 947 1213 C 972 1157 985 1097 985 1034 Z M 936 1034 C 936 1091 924 1145 902 1196 C 880 1246 849 1291 811 1329 C 772 1367 727 1397 675 1419 C 623 1441 567 1452 508 1452 C 448 1452 393 1441 341 1419 C 289 1397 244 1367 206 1329 C 168 1291 137 1246 115 1196 C 93 1145 82 1091 82 1034 C 82 976 93 922 115 872 C 137 822 168 778 206 740 C 244 702 289 673 341 651 C 393 629 448 618 508 618 C 567 618 623 629 675 651 C 727 673 772 702 811 740 C 849 778 880 822 902 872 C 924 922 936 976 936 1034 Z M 709 1137 C 709 1105 700 1077 682 1055 C 664 1033 637 1014 600 999 L 707 788 L 629 788 L 528 989 L 418 989 L 418 788 L 346 788 L 346 1280 L 543 1280 C 563 1280 582 1277 602 1271 C 622 1265 640 1257 656 1245 C 672 1233 684 1219 694 1201 C 704 1183 709 1161 709 1137 Z M 629 1135 C 629 1163 620 1184 602 1198 C 584 1212 562 1219 537 1219 L 418 1219 L 418 1053 L 535 1053 C 544 1053 554 1054 565 1057 C 576 1060 586 1065 596 1072 C 605 1078 613 1087 619 1097 C 625 1107 629 1120 629 1135 Z" unicode="" />
<glyph horiz-adv-x="831" d="M 719 1108 L 113 1108 L 113 1196 L 719 1196 L 719 1108 Z" unicode="" />
<glyph horiz-adv-x="659" d="M 602 1231 C 602 1194 594 1160 580 1128 C 566 1096 546 1068 522 1044 C 497 1020 468 1001 435 987 C 402 973 367 967 330 967 C 292 967 257 973 224 987 C 190 1001 161 1020 137 1044 C 112 1068 92 1096 78 1128 C 64 1160 57 1194 57 1231 C 57 1267 64 1301 78 1333 C 92 1365 112 1393 137 1417 C 161 1441 190 1460 224 1474 C 257 1488 292 1495 330 1495 C 367 1495 402 1488 435 1474 C 468 1460 497 1441 522 1417 C 546 1393 566 1365 580 1333 C 594 1301 602 1267 602 1231 Z M 514 1231 C 514 1256 509 1280 500 1304 C 491 1328 478 1349 462 1367 C 446 1385 426 1399 404 1410 C 381 1421 356 1427 330 1427 C 302 1427 276 1421 253 1410 C 230 1399 211 1385 195 1367 C 179 1349 166 1328 158 1304 C 149 1280 145 1256 145 1231 C 145 1205 149 1180 158 1156 C 166 1132 179 1112 195 1094 C 211 1076 230 1061 253 1050 C 276 1039 302 1034 330 1034 C 356 1034 381 1039 404 1050 C 426 1061 446 1076 462 1094 C 478 1112 491 1132 500 1156 C 509 1180 514 1205 514 1231 Z" unicode="" />
<glyph horiz-adv-x="1544" d="M 1311 707 L 817 707 L 817 252 L 727 252 L 727 707 L 233 707 L 233 788 L 727 788 L 727 1243 L 817 1243 L 817 788 L 1311 788 L 1311 707 Z M 1311 0 L 233 0 L 233 82 L 1311 82 L 1311 0 Z" unicode="" />
<glyph horiz-adv-x="893" d="M 741 840 L 737 655 L 150 655 L 150 729 C 164 747 181 769 202 794 C 222 818 245 844 271 871 C 296 898 323 926 351 954 C 379 982 407 1009 436 1036 C 462 1058 485 1080 506 1102 C 526 1123 544 1144 559 1165 C 574 1186 586 1207 594 1229 C 602 1251 606 1274 606 1298 C 606 1344 589 1381 557 1407 C 525 1433 480 1446 422 1446 C 405 1446 389 1444 373 1440 C 357 1436 343 1430 330 1423 C 316 1415 305 1407 295 1397 C 285 1387 278 1377 274 1366 C 301 1340 315 1316 315 1292 C 315 1273 308 1258 296 1247 C 283 1236 267 1231 248 1231 C 218 1231 196 1238 184 1253 C 172 1268 166 1287 166 1311 C 166 1333 173 1356 189 1379 C 204 1402 225 1423 251 1441 C 277 1459 308 1474 344 1486 C 380 1497 418 1503 459 1503 C 502 1503 541 1497 576 1487 C 611 1477 641 1462 665 1443 C 689 1424 708 1402 721 1376 C 734 1350 741 1321 741 1290 C 741 1264 736 1240 727 1216 C 717 1192 705 1170 690 1148 C 674 1126 657 1106 637 1087 C 617 1068 596 1050 576 1033 C 555 1016 535 1001 515 987 C 495 973 477 961 461 950 C 427 927 391 899 353 865 C 315 831 278 795 244 756 L 588 756 C 599 756 609 756 619 758 C 629 759 637 762 645 767 C 653 772 660 779 666 789 C 672 798 676 811 680 827 C 682 836 685 840 691 840 C 696 840 702 840 709 840 L 741 840 Z" unicode="" />
<glyph horiz-adv-x="901" d="M 756 903 C 756 860 745 822 724 790 C 703 758 676 731 643 709 C 609 687 572 670 531 659 C 489 648 448 643 408 643 C 368 643 332 647 298 655 C 264 663 235 675 211 689 C 186 703 166 720 152 740 C 138 759 131 780 131 803 C 131 811 132 820 136 830 C 139 839 144 847 150 855 C 156 862 165 868 175 873 C 185 878 197 881 211 881 C 224 881 235 879 245 875 C 255 871 263 866 270 860 C 276 854 281 848 284 842 C 287 835 289 829 289 823 C 289 809 286 796 280 785 C 274 773 267 762 258 750 C 271 733 290 720 315 712 C 339 704 367 700 397 700 C 435 700 468 705 496 717 C 524 729 547 744 566 763 C 584 781 598 802 607 826 C 616 850 621 874 621 899 C 621 931 616 959 606 982 C 596 1005 579 1024 557 1039 C 535 1053 506 1064 470 1071 C 434 1078 390 1082 338 1083 L 338 1133 C 390 1135 432 1141 465 1150 C 497 1159 523 1172 541 1188 C 559 1204 572 1223 578 1246 C 584 1268 588 1295 588 1325 C 588 1339 584 1353 578 1368 C 572 1382 562 1396 549 1408 C 535 1420 518 1429 498 1437 C 477 1444 452 1448 424 1448 C 395 1448 370 1444 349 1437 C 328 1429 308 1420 289 1409 C 300 1394 307 1381 311 1371 C 315 1361 317 1349 317 1337 C 317 1318 310 1303 297 1291 C 284 1279 267 1274 246 1274 C 224 1274 206 1280 192 1293 C 177 1305 170 1324 170 1350 C 170 1371 178 1391 194 1410 C 210 1428 232 1444 258 1458 C 284 1472 313 1483 345 1491 C 377 1499 408 1503 440 1503 C 480 1503 518 1498 553 1489 C 588 1479 618 1466 644 1450 C 669 1434 689 1414 703 1391 C 717 1368 725 1343 725 1317 C 725 1273 706 1236 669 1205 C 632 1173 580 1145 514 1120 C 550 1108 584 1095 614 1082 C 644 1068 669 1053 690 1036 C 711 1019 727 1000 739 978 C 750 956 756 931 756 903 Z" unicode="" />
<glyph horiz-adv-x="831" d="M 668 1266 C 668 1234 643 1203 594 1174 L 293 991 L 260 1014 L 500 1286 C 520 1309 538 1324 553 1332 C 568 1339 585 1343 604 1343 C 624 1343 640 1335 651 1320 C 662 1305 668 1287 668 1266 Z" unicode="" />
<glyph horiz-adv-x="1239" d="M 1085 -287 L 852 -287 L 852 1430 L 684 1430 L 684 -287 L 449 -287 L 449 -258 C 449 -250 452 -244 458 -241 C 464 -238 477 -233 496 -227 C 512 -222 524 -217 534 -211 C 544 -205 551 -198 556 -191 C 561 -184 564 -176 566 -168 C 568 -160 569 -151 569 -141 L 569 657 C 547 657 519 657 486 659 C 453 660 418 664 382 672 C 345 680 308 692 271 709 C 234 726 201 750 171 782 C 141 813 117 853 99 901 C 81 949 72 1009 72 1081 C 72 1143 81 1200 99 1251 C 117 1302 146 1346 186 1382 C 226 1418 276 1445 338 1465 C 399 1485 473 1495 559 1495 L 1085 1495 L 1085 1466 C 1085 1458 1081 1452 1073 1448 C 1065 1444 1053 1440 1036 1434 C 1020 1428 1007 1423 998 1419 C 989 1415 982 1410 978 1404 C 973 1398 970 1391 969 1383 C 967 1375 967 1364 967 1350 L 967 -141 C 967 -151 967 -160 968 -169 C 969 -177 972 -185 976 -192 C 980 -199 987 -205 997 -211 C 1007 -217 1020 -222 1038 -227 C 1056 -232 1069 -236 1075 -240 C 1081 -244 1085 -250 1085 -258 L 1085 -287 Z M 569 719 L 569 1425 C 505 1425 454 1414 414 1394 C 374 1373 343 1346 321 1314 C 298 1282 282 1245 274 1205 C 266 1165 262 1125 262 1087 C 262 1039 267 992 278 948 C 289 904 307 865 331 831 C 355 797 387 769 426 749 C 465 729 513 719 569 719 Z" unicode="" />
<glyph horiz-adv-x="426" d="M 324 705 C 324 689 321 675 315 662 C 309 649 302 638 292 629 C 282 619 270 612 257 606 C 243 600 229 598 215 598 C 200 598 186 600 173 606 C 160 612 149 619 140 629 C 130 638 123 649 117 662 C 111 675 109 689 109 705 C 109 735 119 760 139 780 C 159 800 185 811 215 811 C 229 811 243 808 257 802 C 270 796 282 789 292 780 C 302 770 309 759 315 746 C 321 733 324 719 324 705 Z" unicode="" />
<glyph horiz-adv-x="831" d="M 627 -246 C 627 -264 622 -282 614 -300 C 605 -318 592 -334 574 -348 C 556 -362 533 -373 506 -382 C 478 -390 446 -395 410 -395 C 370 -395 333 -386 298 -369 C 263 -351 233 -331 209 -309 L 233 -272 C 257 -288 282 -304 309 -318 C 335 -332 364 -340 395 -340 C 418 -340 437 -337 453 -331 C 468 -325 480 -317 489 -308 C 497 -299 503 -289 507 -279 C 510 -268 512 -258 512 -248 C 512 -223 503 -201 485 -183 C 467 -165 435 -156 391 -156 L 369 -156 L 438 0 L 479 0 L 434 -106 C 500 -106 549 -117 580 -140 C 611 -163 627 -198 627 -246 Z" unicode="" />
<glyph horiz-adv-x="674" d="M 522 655 L 145 655 L 145 682 C 145 690 146 696 150 700 C 154 704 159 708 165 710 C 171 712 179 714 187 715 C 195 716 204 717 213 719 C 227 721 238 724 246 728 C 254 731 261 735 265 739 C 269 743 271 748 272 754 C 273 760 274 767 274 776 L 274 1370 L 131 1370 L 131 1411 L 354 1491 L 397 1491 L 397 776 C 397 760 401 748 409 739 C 417 729 433 723 459 719 C 475 717 490 714 503 711 C 515 707 522 699 522 686 L 522 655 Z" unicode="" />
<glyph horiz-adv-x="903" d="M 807 1036 C 807 980 798 929 780 882 C 762 835 738 794 707 760 C 675 726 638 699 594 680 C 550 660 503 651 451 651 C 399 651 351 660 308 679 C 265 698 228 725 197 759 C 165 793 141 833 124 881 C 106 928 98 980 98 1036 C 98 1091 106 1142 124 1189 C 141 1236 165 1277 197 1311 C 228 1345 265 1372 308 1392 C 351 1411 399 1421 451 1421 C 503 1421 550 1411 594 1392 C 638 1372 675 1345 707 1311 C 738 1277 762 1236 780 1189 C 798 1142 807 1091 807 1036 Z M 676 1036 C 676 1086 671 1131 662 1172 C 653 1212 639 1247 621 1276 C 603 1305 579 1328 551 1344 C 523 1360 489 1368 451 1368 C 413 1368 380 1360 352 1344 C 324 1328 301 1305 283 1276 C 265 1247 251 1212 242 1172 C 233 1131 229 1086 229 1036 C 229 986 233 940 242 900 C 251 859 265 824 283 795 C 301 766 324 744 352 728 C 380 712 413 705 451 705 C 489 705 523 712 551 728 C 579 744 603 766 621 795 C 639 824 653 859 662 900 C 671 940 676 986 676 1036 Z" unicode="" />
<glyph horiz-adv-x="891" d="M 797 459 C 797 447 794 437 789 427 C 784 417 778 408 770 399 L 502 102 L 432 102 L 659 459 L 432 815 L 502 815 L 770 518 C 778 508 784 499 789 490 C 794 480 797 470 797 459 Z M 451 459 C 451 447 448 437 443 427 C 438 417 432 408 424 399 L 156 102 L 86 102 L 315 459 L 86 815 L 156 815 L 424 518 C 432 508 438 499 443 490 C 448 480 451 470 451 459 Z" unicode="" />
<glyph horiz-adv-x="1413" d="M 1396 225 L 1253 225 L 1253 88 C 1253 76 1257 68 1265 62 C 1273 56 1282 51 1290 47 C 1297 43 1304 41 1311 41 C 1317 40 1321 37 1321 31 L 1321 0 L 1061 0 L 1061 31 C 1061 38 1064 42 1071 44 C 1077 45 1085 47 1093 49 C 1102 53 1111 57 1121 63 C 1131 68 1136 76 1136 88 L 1136 225 L 712 225 L 712 281 L 1165 844 L 1253 844 L 1253 293 L 1396 293 L 1396 225 Z M 1134 293 L 1134 715 L 796 293 L 1134 293 Z M 1202 1501 L 354 -20 L 270 -20 L 1118 1501 L 1202 1501 Z M 522 655 L 145 655 L 145 682 C 145 690 146 696 150 700 C 154 704 159 708 165 710 C 171 712 179 714 187 715 C 195 716 204 717 213 719 C 227 721 238 724 246 728 C 254 731 261 735 265 739 C 269 743 271 748 272 754 C 273 760 274 767 274 776 L 274 1370 L 131 1370 L 131 1411 L 354 1491 L 397 1491 L 397 776 C 397 760 401 748 409 739 C 417 729 433 723 459 719 C 475 717 490 714 503 711 C 515 707 522 699 522 686 L 522 655 Z" unicode="" />
<glyph horiz-adv-x="1597" d="M 522 655 L 145 655 L 145 682 C 145 690 146 696 150 700 C 154 704 159 708 165 710 C 171 712 179 714 187 715 C 195 716 204 717 213 719 C 227 721 238 724 246 728 C 254 731 261 735 265 739 C 269 743 271 748 272 754 C 273 760 274 767 274 776 L 274 1370 L 131 1370 L 131 1411 L 354 1491 L 397 1491 L 397 776 C 397 760 401 748 409 739 C 417 729 433 723 459 719 C 475 717 490 714 503 711 C 515 707 522 699 522 686 L 522 655 Z M 1455 185 L 1451 0 L 864 0 L 864 74 C 878 92 895 114 916 139 C 936 163 959 189 985 216 C 1010 243 1037 271 1065 299 C 1093 327 1121 354 1150 381 C 1176 403 1199 425 1220 447 C 1240 468 1258 489 1273 510 C 1288 531 1300 552 1308 574 C 1316 596 1320 619 1320 643 C 1320 689 1303 726 1271 752 C 1239 778 1194 791 1136 791 C 1119 791 1103 789 1087 785 C 1071 781 1057 775 1044 768 C 1030 760 1019 752 1009 742 C 999 732 992 722 988 711 C 1015 685 1029 661 1029 637 C 1029 618 1022 603 1010 592 C 997 581 981 576 962 576 C 932 576 910 583 898 598 C 886 613 880 632 880 656 C 880 678 887 701 903 724 C 918 747 939 768 965 786 C 991 804 1022 819 1058 831 C 1094 842 1132 848 1173 848 C 1216 848 1255 842 1290 832 C 1325 822 1355 807 1379 788 C 1403 769 1422 747 1435 721 C 1448 695 1455 666 1455 635 C 1455 609 1450 585 1441 561 C 1431 537 1419 515 1404 493 C 1388 471 1371 451 1351 432 C 1331 413 1310 395 1290 378 C 1269 361 1249 346 1229 332 C 1209 318 1191 306 1175 295 C 1141 272 1105 244 1067 210 C 1029 176 992 140 958 101 L 1302 101 C 1313 101 1323 101 1333 103 C 1343 104 1351 107 1359 112 C 1367 117 1374 124 1380 134 C 1386 143 1390 156 1394 172 C 1396 181 1399 185 1405 185 C 1410 185 1416 185 1423 185 L 1455 185 Z M 1202 1501 L 354 -20 L 270 -20 L 1118 1501 L 1202 1501 Z" unicode="" />
<glyph horiz-adv-x="1561" d="M 756 903 C 756 860 745 822 724 790 C 703 758 676 731 643 709 C 609 687 572 670 531 659 C 489 648 448 643 408 643 C 368 643 332 647 298 655 C 264 663 235 675 211 689 C 186 703 166 720 152 740 C 138 759 131 780 131 803 C 131 811 132 820 136 830 C 139 839 144 847 150 855 C 156 862 165 868 175 873 C 185 878 197 881 211 881 C 224 881 235 879 245 875 C 255 871 263 866 270 860 C 276 854 281 848 284 842 C 287 835 289 829 289 823 C 289 809 286 796 280 785 C 274 773 267 762 258 750 C 271 733 290 720 315 712 C 339 704 367 700 397 700 C 435 700 468 705 496 717 C 524 729 547 744 566 763 C 584 781 598 802 607 826 C 616 850 621 874 621 899 C 621 931 616 959 606 982 C 596 1005 579 1024 557 1039 C 535 1053 506 1064 470 1071 C 434 1078 390 1082 338 1083 L 338 1133 C 390 1135 432 1141 465 1150 C 497 1159 523 1172 541 1188 C 559 1204 572 1223 578 1246 C 584 1268 588 1295 588 1325 C 588 1339 584 1353 578 1368 C 572 1382 562 1396 549 1408 C 535 1420 518 1429 498 1437 C 477 1444 452 1448 424 1448 C 395 1448 370 1444 349 1437 C 328 1429 308 1420 289 1409 C 300 1394 307 1381 311 1371 C 315 1361 317 1349 317 1337 C 317 1318 310 1303 297 1291 C 284 1279 267 1274 246 1274 C 224 1274 206 1280 192 1293 C 177 1305 170 1324 170 1350 C 170 1371 178 1391 194 1410 C 210 1428 232 1444 258 1458 C 284 1472 313 1483 345 1491 C 377 1499 408 1503 440 1503 C 480 1503 518 1498 553 1489 C 588 1479 618 1466 644 1450 C 669 1434 689 1414 703 1391 C 717 1368 725 1343 725 1317 C 725 1273 706 1236 669 1205 C 632 1173 580 1145 514 1120 C 550 1108 584 1095 614 1082 C 644 1068 669 1053 690 1036 C 711 1019 727 1000 739 978 C 750 956 756 931 756 903 Z M 1541 225 L 1398 225 L 1398 88 C 1398 76 1402 68 1410 62 C 1418 56 1427 51 1435 47 C 1442 43 1449 41 1456 41 C 1462 40 1466 37 1466 31 L 1466 0 L 1206 0 L 1206 31 C 1206 38 1209 42 1216 44 C 1222 45 1230 47 1238 49 C 1247 53 1256 57 1266 63 C 1276 68 1281 76 1281 88 L 1281 225 L 857 225 L 857 281 L 1310 844 L 1398 844 L 1398 293 L 1541 293 L 1541 225 Z M 1279 293 L 1279 715 L 941 293 L 1279 293 Z M 1347 1501 L 499 -20 L 415 -20 L 1263 1501 L 1347 1501 Z" unicode="" />
<glyph horiz-adv-x="877" d="M 584 1014 C 584 998 581 984 575 971 C 569 958 562 947 553 938 C 543 928 532 921 519 915 C 505 909 491 907 477 907 C 462 907 448 909 435 915 C 422 921 411 928 401 938 C 391 947 383 958 377 971 C 371 984 369 998 369 1014 C 369 1028 371 1042 377 1055 C 383 1068 391 1079 401 1089 C 411 1098 422 1105 435 1111 C 448 1117 462 1120 477 1120 C 491 1120 505 1117 519 1111 C 532 1105 543 1098 553 1089 C 562 1079 569 1068 575 1055 C 581 1042 584 1028 584 1014 Z M 793 -158 C 793 -186 785 -215 770 -245 C 754 -275 731 -302 701 -326 C 671 -350 633 -370 589 -386 C 544 -402 492 -410 434 -410 C 378 -410 328 -402 284 -388 C 239 -374 201 -354 169 -328 C 137 -302 113 -270 96 -234 C 78 -198 70 -157 70 -113 C 70 -80 74 -50 83 -23 C 91 3 103 29 119 54 C 134 79 153 104 175 129 C 197 154 221 181 248 211 C 292 257 326 301 352 343 C 378 385 397 425 411 465 C 424 505 433 545 438 585 C 443 625 447 667 449 711 C 449 715 451 719 455 725 C 459 730 467 733 477 733 C 490 733 499 730 504 725 C 509 719 512 715 512 711 C 512 679 511 646 507 610 C 503 574 496 536 487 497 C 477 458 465 418 450 377 C 434 335 415 294 393 254 C 371 214 350 178 331 147 C 312 115 295 86 281 58 C 267 30 256 3 248 -22 C 240 -48 236 -76 236 -106 C 236 -156 243 -197 257 -229 C 271 -261 289 -287 311 -306 C 333 -324 357 -337 385 -345 C 413 -352 441 -356 469 -356 C 485 -356 502 -354 520 -350 C 538 -346 555 -339 573 -331 C 591 -322 607 -311 622 -297 C 637 -283 649 -267 659 -248 C 645 -235 635 -224 627 -214 C 619 -204 614 -195 610 -187 C 606 -179 604 -172 603 -166 C 602 -160 602 -154 602 -150 C 602 -116 609 -92 625 -76 C 640 -60 661 -53 688 -53 C 720 -53 745 -62 764 -82 C 783 -101 793 -126 793 -158 Z" unicode="" />
<glyph horiz-adv-x="1409" d="M 885 1630 L 854 1606 L 530 1755 C 501 1768 480 1783 466 1799 C 452 1815 446 1831 446 1847 C 446 1867 452 1885 464 1901 C 476 1917 493 1925 516 1925 C 529 1925 544 1922 560 1917 C 576 1912 594 1900 614 1882 L 885 1630 Z M 1425 0 L 999 0 L 999 29 C 999 37 1004 42 1015 46 C 1025 50 1037 53 1051 57 C 1082 65 1102 74 1111 82 C 1119 90 1124 98 1124 106 C 1124 110 1122 117 1120 125 C 1118 133 1115 141 1112 150 C 1109 159 1106 168 1103 177 C 1099 185 1096 193 1094 199 L 995 442 L 340 442 L 238 199 C 236 194 233 187 230 179 C 226 170 223 161 220 152 C 217 142 214 133 212 125 C 210 116 209 110 209 106 C 209 98 213 90 222 82 C 230 74 251 65 283 57 C 296 53 308 50 319 46 C 330 42 336 37 336 29 L 336 0 L -18 0 L -18 29 C -18 37 -11 43 0 48 C 12 52 25 58 39 66 C 53 72 65 81 75 92 C 85 103 93 115 101 127 C 109 139 115 150 121 162 C 126 174 131 184 135 193 L 631 1311 L 584 1409 C 582 1413 580 1415 580 1417 C 580 1418 580 1421 580 1425 C 580 1427 581 1429 583 1431 C 585 1433 588 1434 590 1436 C 612 1446 632 1457 648 1468 C 664 1479 683 1493 705 1511 C 707 1513 708 1515 710 1515 C 712 1515 713 1516 715 1516 C 718 1516 720 1515 720 1514 C 720 1512 721 1511 723 1509 L 1282 145 C 1284 137 1288 129 1293 121 C 1297 112 1303 103 1311 95 C 1318 87 1327 79 1337 73 C 1347 66 1360 61 1374 57 C 1387 53 1399 50 1409 46 C 1419 42 1425 37 1425 29 L 1425 0 Z M 971 504 L 674 1227 L 367 504 L 971 504 Z" unicode="" />
<glyph horiz-adv-x="1409" d="M 942 1847 C 942 1831 935 1814 921 1798 C 907 1782 886 1767 858 1755 L 535 1606 L 504 1630 L 774 1882 C 793 1900 811 1912 827 1917 C 843 1922 858 1925 870 1925 C 894 1925 912 1917 924 1901 C 936 1885 942 1867 942 1847 Z M 1425 0 L 999 0 L 999 29 C 999 37 1004 42 1015 46 C 1025 50 1037 53 1051 57 C 1082 65 1102 74 1111 82 C 1119 90 1124 98 1124 106 C 1124 110 1122 117 1120 125 C 1118 133 1115 141 1112 150 C 1109 159 1106 168 1103 177 C 1099 185 1096 193 1094 199 L 995 442 L 340 442 L 238 199 C 236 194 233 187 230 179 C 226 170 223 161 220 152 C 217 142 214 133 212 125 C 210 116 209 110 209 106 C 209 98 213 90 222 82 C 230 74 251 65 283 57 C 296 53 308 50 319 46 C 330 42 336 37 336 29 L 336 0 L -18 0 L -18 29 C -18 37 -11 43 0 48 C 12 52 25 58 39 66 C 53 72 65 81 75 92 C 85 103 93 115 101 127 C 109 139 115 150 121 162 C 126 174 131 184 135 193 L 631 1311 L 584 1409 C 582 1413 580 1415 580 1417 C 580 1418 580 1421 580 1425 C 580 1427 581 1429 583 1431 C 585 1433 588 1434 590 1436 C 612 1446 632 1457 648 1468 C 664 1479 683 1493 705 1511 C 707 1513 708 1515 710 1515 C 712 1515 713 1516 715 1516 C 718 1516 720 1515 720 1514 C 720 1512 721 1511 723 1509 L 1282 145 C 1284 137 1288 129 1293 121 C 1297 112 1303 103 1311 95 C 1318 87 1327 79 1337 73 C 1347 66 1360 61 1374 57 C 1387 53 1399 50 1409 46 C 1419 42 1425 37 1425 29 L 1425 0 Z M 971 504 L 674 1227 L 367 504 L 971 504 Z" unicode="" />
<glyph horiz-adv-x="1409" d="M 1004 1581 L 954 1581 L 698 1788 L 436 1581 L 389 1581 L 641 1909 L 752 1909 L 1004 1581 Z M 1425 0 L 999 0 L 999 29 C 999 37 1004 42 1015 46 C 1025 50 1037 53 1051 57 C 1082 65 1102 74 1111 82 C 1119 90 1124 98 1124 106 C 1124 110 1122 117 1120 125 C 1118 133 1115 141 1112 150 C 1109 159 1106 168 1103 177 C 1099 185 1096 193 1094 199 L 995 442 L 340 442 L 238 199 C 236 194 233 187 230 179 C 226 170 223 161 220 152 C 217 142 214 133 212 125 C 210 116 209 110 209 106 C 209 98 213 90 222 82 C 230 74 251 65 283 57 C 296 53 308 50 319 46 C 330 42 336 37 336 29 L 336 0 L -18 0 L -18 29 C -18 37 -11 43 0 48 C 12 52 25 58 39 66 C 53 72 65 81 75 92 C 85 103 93 115 101 127 C 109 139 115 150 121 162 C 126 174 131 184 135 193 L 631 1311 L 584 1409 C 582 1413 580 1415 580 1417 C 580 1418 580 1421 580 1425 C 580 1427 581 1429 583 1431 C 585 1433 588 1434 590 1436 C 612 1446 632 1457 648 1468 C 664 1479 683 1493 705 1511 C 707 1513 708 1515 710 1515 C 712 1515 713 1516 715 1516 C 718 1516 720 1515 720 1514 C 720 1512 721 1511 723 1509 L 1282 145 C 1284 137 1288 129 1293 121 C 1297 112 1303 103 1311 95 C 1318 87 1327 79 1337 73 C 1347 66 1360 61 1374 57 C 1387 53 1399 50 1409 46 C 1419 42 1425 37 1425 29 L 1425 0 Z M 971 504 L 674 1227 L 367 504 L 971 504 Z" unicode="" />
<glyph horiz-adv-x="1409" d="M 1028 1858 C 1026 1826 1020 1797 1010 1771 C 1000 1745 986 1722 968 1703 C 950 1683 930 1668 906 1658 C 882 1647 857 1642 831 1642 C 819 1642 807 1642 797 1644 C 786 1645 775 1647 764 1651 C 753 1654 741 1659 729 1665 C 717 1671 702 1678 686 1688 C 658 1703 633 1717 611 1729 C 589 1741 566 1747 543 1747 C 513 1747 489 1735 470 1712 C 450 1689 439 1662 436 1630 L 387 1630 C 388 1662 394 1691 405 1717 C 415 1743 429 1766 447 1786 C 465 1805 485 1820 509 1831 C 532 1841 557 1847 584 1847 C 614 1847 641 1843 663 1835 C 685 1827 707 1816 731 1802 C 757 1786 782 1773 805 1761 C 827 1749 849 1743 870 1743 C 884 1743 898 1746 911 1752 C 923 1758 935 1766 945 1777 C 955 1787 963 1800 969 1814 C 975 1828 979 1842 981 1858 L 1028 1858 Z M 1425 0 L 999 0 L 999 29 C 999 37 1004 42 1015 46 C 1025 50 1037 53 1051 57 C 1082 65 1102 74 1111 82 C 1119 90 1124 98 1124 106 C 1124 110 1122 117 1120 125 C 1118 133 1115 141 1112 150 C 1109 159 1106 168 1103 177 C 1099 185 1096 193 1094 199 L 995 442 L 340 442 L 238 199 C 236 194 233 187 230 179 C 226 170 223 161 220 152 C 217 142 214 133 212 125 C 210 116 209 110 209 106 C 209 98 213 90 222 82 C 230 74 251 65 283 57 C 296 53 308 50 319 46 C 330 42 336 37 336 29 L 336 0 L -18 0 L -18 29 C -18 37 -11 43 0 48 C 12 52 25 58 39 66 C 53 72 65 81 75 92 C 85 103 93 115 101 127 C 109 139 115 150 121 162 C 126 174 131 184 135 193 L 631 1311 L 584 1409 C 582 1413 580 1415 580 1417 C 580 1418 580 1421 580 1425 C 580 1427 581 1429 583 1431 C 585 1433 588 1434 590 1436 C 612 1446 632 1457 648 1468 C 664 1479 683 1493 705 1511 C 707 1513 708 1515 710 1515 C 712 1515 713 1516 715 1516 C 718 1516 720 1515 720 1514 C 720 1512 721 1511 723 1509 L 1282 145 C 1284 137 1288 129 1293 121 C 1297 112 1303 103 1311 95 C 1318 87 1327 79 1337 73 C 1347 66 1360 61 1374 57 C 1387 53 1399 50 1409 46 C 1419 42 1425 37 1425 29 L 1425 0 Z M 971 504 L 674 1227 L 367 504 L 971 504 Z" unicode="" />
<glyph horiz-adv-x="1409" d="M 997 1724 C 997 1711 994 1699 989 1688 C 984 1676 977 1666 969 1658 C 960 1649 950 1642 938 1637 C 926 1632 914 1630 901 1630 C 887 1630 875 1632 863 1637 C 851 1642 841 1649 833 1658 C 824 1666 817 1676 812 1688 C 807 1699 805 1711 805 1724 C 805 1736 807 1748 812 1760 C 817 1772 824 1782 833 1791 C 841 1799 851 1806 863 1811 C 875 1816 887 1819 901 1819 C 914 1819 926 1816 938 1811 C 950 1806 960 1799 969 1791 C 977 1782 984 1772 989 1760 C 994 1748 997 1736 997 1724 Z M 573 1724 C 573 1711 570 1699 565 1688 C 560 1676 553 1666 545 1658 C 536 1649 526 1642 514 1637 C 502 1632 490 1630 477 1630 C 463 1630 450 1632 438 1637 C 426 1642 416 1649 408 1658 C 400 1666 393 1676 388 1688 C 383 1699 381 1711 381 1724 C 381 1736 383 1748 388 1760 C 393 1772 400 1782 408 1791 C 416 1799 426 1806 438 1811 C 450 1816 463 1819 477 1819 C 490 1819 502 1816 514 1811 C 526 1806 536 1799 545 1791 C 553 1782 560 1772 565 1760 C 570 1748 573 1736 573 1724 Z M 1425 0 L 999 0 L 999 29 C 999 37 1004 42 1015 46 C 1025 50 1037 53 1051 57 C 1082 65 1102 74 1111 82 C 1119 90 1124 98 1124 106 C 1124 110 1122 117 1120 125 C 1118 133 1115 141 1112 150 C 1109 159 1106 168 1103 177 C 1099 185 1096 193 1094 199 L 995 442 L 340 442 L 238 199 C 236 194 233 187 230 179 C 226 170 223 161 220 152 C 217 142 214 133 212 125 C 210 116 209 110 209 106 C 209 98 213 90 222 82 C 230 74 251 65 283 57 C 296 53 308 50 319 46 C 330 42 336 37 336 29 L 336 0 L -18 0 L -18 29 C -18 37 -11 43 0 48 C 12 52 25 58 39 66 C 53 72 65 81 75 92 C 85 103 93 115 101 127 C 109 139 115 150 121 162 C 126 174 131 184 135 193 L 631 1311 L 584 1409 C 582 1413 580 1415 580 1417 C 580 1418 580 1421 580 1425 C 580 1427 581 1429 583 1431 C 585 1433 588 1434 590 1436 C 612 1446 632 1457 648 1468 C 664 1479 683 1493 705 1511 C 707 1513 708 1515 710 1515 C 712 1515 713 1516 715 1516 C 718 1516 720 1515 720 1514 C 720 1512 721 1511 723 1509 L 1282 145 C 1284 137 1288 129 1293 121 C 1297 112 1303 103 1311 95 C 1318 87 1327 79 1337 73 C 1347 66 1360 61 1374 57 C 1387 53 1399 50 1409 46 C 1419 42 1425 37 1425 29 L 1425 0 Z M 971 504 L 674 1227 L 367 504 L 971 504 Z" unicode="" />
<glyph horiz-adv-x="1409" d="M 807 1776 C 807 1826 796 1863 776 1888 C 756 1912 727 1925 690 1925 C 650 1925 620 1912 600 1888 C 579 1863 569 1826 569 1776 C 569 1725 579 1687 600 1663 C 620 1638 650 1626 690 1626 C 727 1626 756 1638 776 1663 C 796 1687 807 1725 807 1776 Z M 897 1776 C 897 1748 891 1722 881 1698 C 871 1674 856 1653 838 1636 C 820 1618 798 1605 773 1595 C 747 1585 720 1581 690 1581 C 660 1581 632 1585 606 1595 C 580 1605 557 1618 539 1636 C 520 1653 505 1674 495 1698 C 484 1722 479 1748 479 1776 C 479 1804 484 1829 495 1853 C 505 1877 520 1897 539 1915 C 557 1932 580 1945 606 1955 C 632 1965 660 1970 690 1970 C 720 1970 747 1965 773 1955 C 798 1945 820 1932 838 1915 C 856 1897 871 1877 881 1853 C 891 1829 897 1804 897 1776 Z M 1425 0 L 999 0 L 999 29 C 999 37 1004 42 1015 46 C 1025 50 1037 53 1051 57 C 1082 65 1102 74 1111 82 C 1119 90 1124 98 1124 106 C 1124 110 1122 117 1120 125 C 1118 133 1115 141 1112 150 C 1109 159 1106 168 1103 177 C 1099 185 1096 193 1094 199 L 995 442 L 340 442 L 238 199 C 236 194 233 187 230 179 C 226 170 223 161 220 152 C 217 142 214 133 212 125 C 210 116 209 110 209 106 C 209 98 213 90 222 82 C 230 74 251 65 283 57 C 296 53 308 50 319 46 C 330 42 336 37 336 29 L 336 0 L -18 0 L -18 29 C -18 37 -11 43 0 48 C 12 52 25 58 39 66 C 53 72 65 81 75 92 C 85 103 93 115 101 127 C 109 139 115 150 121 162 C 126 174 131 184 135 193 L 631 1311 L 584 1409 C 582 1413 580 1415 580 1417 C 580 1418 580 1421 580 1425 C 580 1427 581 1429 583 1431 C 585 1433 588 1434 590 1436 C 612 1446 632 1457 648 1468 C 664 1479 683 1493 705 1511 C 707 1513 708 1515 710 1515 C 712 1515 713 1516 715 1516 C 718 1516 720 1515 720 1514 C 720 1512 721 1511 723 1509 L 1282 145 C 1284 137 1288 129 1293 121 C 1297 112 1303 103 1311 95 C 1318 87 1327 79 1337 73 C 1347 66 1360 61 1374 57 C 1387 53 1399 50 1409 46 C 1419 42 1425 37 1425 29 L 1425 0 Z M 971 504 L 674 1227 L 367 504 L 971 504 Z" unicode="" />
<glyph horiz-adv-x="1942" d="M 1896 0 L 817 0 L 817 29 C 817 37 822 42 832 46 C 842 50 854 53 868 57 C 883 61 895 64 905 68 C 915 72 922 77 928 83 C 933 89 937 98 939 109 C 941 119 942 134 942 152 L 944 737 L 494 737 L 244 199 C 242 194 239 187 236 179 C 232 170 229 161 225 152 C 221 142 218 133 216 125 C 214 116 213 110 213 106 C 212 102 212 98 214 94 C 216 90 219 86 224 82 C 229 78 236 73 246 69 C 256 65 269 61 285 57 C 298 53 310 50 320 46 C 330 42 336 37 336 29 L 336 0 L -18 0 L -18 29 C -16 37 -9 43 2 48 C 14 52 27 58 41 66 C 55 72 67 81 78 92 C 88 103 98 115 106 127 C 114 139 120 150 126 162 C 132 174 137 184 141 193 L 666 1300 C 668 1304 670 1311 674 1319 C 677 1327 680 1336 683 1345 C 686 1354 689 1363 691 1371 C 693 1379 695 1385 696 1389 C 696 1397 691 1405 682 1413 C 672 1421 652 1429 621 1438 C 608 1441 596 1444 585 1448 C 574 1452 569 1458 569 1466 L 569 1495 L 1614 1495 C 1627 1495 1642 1495 1658 1496 C 1674 1497 1691 1499 1707 1501 C 1723 1503 1740 1505 1756 1507 C 1772 1509 1786 1511 1798 1513 L 1798 1245 L 1765 1245 C 1753 1245 1744 1247 1738 1251 C 1732 1255 1728 1261 1726 1270 C 1716 1301 1707 1327 1698 1348 C 1688 1369 1676 1386 1661 1399 C 1645 1412 1626 1421 1602 1427 C 1578 1433 1548 1436 1511 1436 L 1102 1436 L 1102 799 L 1362 799 C 1383 799 1400 801 1413 806 C 1426 811 1437 818 1445 828 C 1453 837 1460 848 1466 862 C 1472 876 1479 891 1487 909 C 1491 917 1495 925 1501 932 C 1507 938 1517 942 1532 942 L 1559 942 L 1559 602 L 1526 602 C 1515 602 1506 605 1499 612 C 1492 619 1487 628 1483 639 C 1475 658 1467 674 1460 687 C 1453 699 1445 709 1437 717 C 1429 724 1419 729 1408 732 C 1396 735 1382 737 1366 737 L 1102 737 L 1102 59 L 1610 59 C 1640 59 1666 63 1687 71 C 1708 79 1726 92 1742 109 C 1758 126 1772 148 1785 174 C 1797 200 1811 230 1825 266 C 1828 274 1831 282 1834 290 C 1836 297 1843 301 1853 301 L 1896 301 L 1896 0 Z M 944 799 L 944 1260 C 944 1284 943 1307 943 1329 C 943 1351 940 1370 936 1387 C 932 1404 924 1418 914 1428 C 904 1438 889 1444 870 1444 C 856 1444 843 1438 831 1427 C 819 1416 807 1402 796 1384 C 784 1366 773 1345 763 1323 C 753 1301 743 1279 733 1257 L 522 799 L 944 799 Z" unicode="" />
<glyph horiz-adv-x="1284" d="M 1280 281 C 1262 249 1237 216 1205 180 C 1173 144 1134 112 1088 82 C 1042 52 989 27 931 7 C 872 -13 808 -23 739 -23 L 702 -106 C 771 -106 821 -117 852 -140 C 883 -163 899 -198 899 -246 C 899 -264 894 -282 885 -300 C 876 -318 862 -334 844 -348 C 826 -362 803 -374 775 -383 C 747 -392 715 -397 678 -397 C 656 -397 636 -394 617 -389 C 597 -384 579 -378 562 -370 C 545 -362 529 -352 514 -342 C 499 -331 485 -320 473 -309 L 498 -272 C 522 -288 548 -304 575 -319 C 602 -334 632 -342 664 -342 C 688 -342 707 -339 723 -333 C 738 -327 750 -319 759 -310 C 767 -300 773 -290 777 -279 C 780 -268 782 -258 782 -248 C 782 -236 780 -224 776 -213 C 772 -201 765 -191 755 -183 C 745 -175 733 -168 717 -163 C 701 -158 682 -156 659 -156 L 637 -156 L 696 -23 C 624 -19 558 -7 500 15 C 441 37 388 66 342 102 C 295 138 254 179 220 227 C 185 275 156 326 134 382 C 111 437 94 495 83 556 C 71 617 66 679 66 741 C 66 826 75 905 93 977 C 111 1049 135 1113 166 1171 C 197 1228 234 1278 276 1322 C 318 1365 363 1401 411 1430 C 459 1459 510 1481 562 1496 C 614 1510 665 1518 717 1518 C 749 1518 779 1516 807 1512 C 835 1508 863 1503 891 1495 C 919 1487 947 1477 975 1465 C 1003 1453 1032 1438 1063 1421 C 1074 1415 1084 1409 1093 1405 C 1101 1401 1110 1399 1118 1399 C 1132 1399 1146 1406 1159 1421 C 1163 1424 1165 1428 1167 1432 C 1168 1436 1170 1438 1174 1438 L 1204 1438 L 1204 1096 L 1157 1096 C 1151 1096 1147 1097 1143 1099 C 1139 1101 1137 1106 1135 1114 C 1120 1162 1101 1208 1077 1250 C 1053 1292 1024 1329 991 1360 C 957 1391 919 1415 877 1433 C 835 1451 789 1460 739 1460 C 703 1460 667 1454 629 1443 C 591 1431 553 1414 517 1390 C 480 1366 445 1336 412 1298 C 379 1260 350 1215 325 1163 C 300 1111 280 1050 266 982 C 251 913 244 836 244 750 C 244 634 257 532 283 444 C 309 356 344 283 389 224 C 434 164 487 120 547 90 C 607 60 672 45 741 45 C 786 45 828 50 868 60 C 908 70 944 83 978 99 C 1011 115 1041 133 1069 153 C 1096 173 1120 193 1142 214 C 1163 234 1181 254 1197 274 C 1213 293 1225 310 1235 324 L 1280 281 Z" unicode="" />
<glyph horiz-adv-x="1206" d="M 822 1630 L 791 1606 L 467 1755 C 438 1768 417 1783 403 1799 C 389 1815 383 1831 383 1847 C 383 1867 389 1885 401 1901 C 413 1917 430 1925 453 1925 C 466 1925 481 1922 497 1917 C 513 1912 531 1900 551 1882 L 822 1630 Z M 1161 0 L 74 0 L 74 29 C 74 37 79 42 89 46 C 99 50 111 53 125 57 C 140 61 152 64 162 68 C 172 72 179 77 185 83 C 190 89 194 98 196 109 C 198 119 199 134 199 152 L 199 1343 C 199 1361 198 1375 196 1386 C 194 1396 190 1405 185 1411 C 179 1417 172 1422 162 1426 C 152 1430 140 1434 125 1438 C 111 1441 99 1444 89 1448 C 79 1452 74 1458 74 1466 L 74 1495 L 879 1495 C 892 1495 907 1495 923 1496 C 939 1497 956 1499 972 1501 C 988 1503 1005 1505 1021 1507 C 1037 1509 1051 1511 1063 1513 L 1063 1245 L 1030 1245 C 1018 1245 1009 1247 1003 1251 C 997 1255 993 1261 991 1270 C 981 1301 972 1327 963 1348 C 953 1369 941 1386 926 1399 C 910 1412 891 1421 867 1427 C 843 1433 813 1436 776 1436 L 358 1436 L 358 799 L 618 799 C 640 799 657 801 670 806 C 682 811 693 818 701 828 C 709 837 717 848 723 862 C 729 876 735 891 743 909 C 747 917 752 925 758 932 C 764 938 774 942 788 942 L 815 942 L 815 602 L 782 602 C 772 602 763 605 756 612 C 749 619 743 628 739 639 C 731 658 723 674 717 687 C 710 699 702 709 694 717 C 686 724 676 729 665 732 C 653 735 639 737 623 737 L 358 737 L 358 59 L 874 59 C 904 59 930 63 951 71 C 972 79 991 92 1007 109 C 1023 126 1037 148 1050 174 C 1062 200 1076 230 1090 266 C 1093 274 1096 282 1099 290 C 1101 297 1108 301 1118 301 L 1161 301 L 1161 0 Z" unicode="" />
<glyph horiz-adv-x="1206" d="M 946 1847 C 946 1831 939 1814 925 1798 C 911 1782 890 1767 862 1755 L 539 1606 L 508 1630 L 778 1882 C 797 1900 815 1912 831 1917 C 847 1922 862 1925 874 1925 C 898 1925 916 1917 928 1901 C 940 1885 946 1867 946 1847 Z M 1161 0 L 74 0 L 74 29 C 74 37 79 42 89 46 C 99 50 111 53 125 57 C 140 61 152 64 162 68 C 172 72 179 77 185 83 C 190 89 194 98 196 109 C 198 119 199 134 199 152 L 199 1343 C 199 1361 198 1375 196 1386 C 194 1396 190 1405 185 1411 C 179 1417 172 1422 162 1426 C 152 1430 140 1434 125 1438 C 111 1441 99 1444 89 1448 C 79 1452 74 1458 74 1466 L 74 1495 L 879 1495 C 892 1495 907 1495 923 1496 C 939 1497 956 1499 972 1501 C 988 1503 1005 1505 1021 1507 C 1037 1509 1051 1511 1063 1513 L 1063 1245 L 1030 1245 C 1018 1245 1009 1247 1003 1251 C 997 1255 993 1261 991 1270 C 981 1301 972 1327 963 1348 C 953 1369 941 1386 926 1399 C 910 1412 891 1421 867 1427 C 843 1433 813 1436 776 1436 L 358 1436 L 358 799 L 618 799 C 640 799 657 801 670 806 C 682 811 693 818 701 828 C 709 837 717 848 723 862 C 729 876 735 891 743 909 C 747 917 752 925 758 932 C 764 938 774 942 788 942 L 815 942 L 815 602 L 782 602 C 772 602 763 605 756 612 C 749 619 743 628 739 639 C 731 658 723 674 717 687 C 710 699 702 709 694 717 C 686 724 676 729 665 732 C 653 735 639 737 623 737 L 358 737 L 358 59 L 874 59 C 904 59 930 63 951 71 C 972 79 991 92 1007 109 C 1023 126 1037 148 1050 174 C 1062 200 1076 230 1090 266 C 1093 274 1096 282 1099 290 C 1101 297 1108 301 1118 301 L 1161 301 L 1161 0 Z" unicode="" />
<glyph horiz-adv-x="1206" d="M 914 1593 L 864 1593 L 608 1800 L 346 1593 L 299 1593 L 551 1921 L 662 1921 L 914 1593 Z M 1161 0 L 74 0 L 74 29 C 74 37 79 42 89 46 C 99 50 111 53 125 57 C 140 61 152 64 162 68 C 172 72 179 77 185 83 C 190 89 194 98 196 109 C 198 119 199 134 199 152 L 199 1343 C 199 1361 198 1375 196 1386 C 194 1396 190 1405 185 1411 C 179 1417 172 1422 162 1426 C 152 1430 140 1434 125 1438 C 111 1441 99 1444 89 1448 C 79 1452 74 1458 74 1466 L 74 1495 L 879 1495 C 892 1495 907 1495 923 1496 C 939 1497 956 1499 972 1501 C 988 1503 1005 1505 1021 1507 C 1037 1509 1051 1511 1063 1513 L 1063 1245 L 1030 1245 C 1018 1245 1009 1247 1003 1251 C 997 1255 993 1261 991 1270 C 981 1301 972 1327 963 1348 C 953 1369 941 1386 926 1399 C 910 1412 891 1421 867 1427 C 843 1433 813 1436 776 1436 L 358 1436 L 358 799 L 618 799 C 640 799 657 801 670 806 C 682 811 693 818 701 828 C 709 837 717 848 723 862 C 729 876 735 891 743 909 C 747 917 752 925 758 932 C 764 938 774 942 788 942 L 815 942 L 815 602 L 782 602 C 772 602 763 605 756 612 C 749 619 743 628 739 639 C 731 658 723 674 717 687 C 710 699 702 709 694 717 C 686 724 676 729 665 732 C 653 735 639 737 623 737 L 358 737 L 358 59 L 874 59 C 904 59 930 63 951 71 C 972 79 991 92 1007 109 C 1023 126 1037 148 1050 174 C 1062 200 1076 230 1090 266 C 1093 274 1096 282 1099 290 C 1101 297 1108 301 1118 301 L 1161 301 L 1161 0 Z" unicode="" />
<glyph horiz-adv-x="1206" d="M 932 1736 C 932 1723 929 1711 924 1700 C 919 1688 912 1678 904 1670 C 895 1661 885 1654 873 1649 C 861 1644 849 1642 836 1642 C 822 1642 810 1644 798 1649 C 786 1654 776 1661 768 1670 C 759 1678 752 1688 747 1700 C 742 1711 740 1723 740 1736 C 740 1748 742 1760 747 1772 C 752 1784 759 1794 768 1803 C 776 1811 786 1818 798 1823 C 810 1828 822 1831 836 1831 C 849 1831 861 1828 873 1823 C 885 1818 895 1811 904 1803 C 912 1794 919 1784 924 1772 C 929 1760 932 1748 932 1736 Z M 508 1736 C 508 1723 505 1711 500 1700 C 495 1688 488 1678 480 1670 C 471 1661 461 1654 449 1649 C 437 1644 425 1642 412 1642 C 398 1642 385 1644 373 1649 C 361 1654 351 1661 343 1670 C 335 1678 328 1688 323 1700 C 318 1711 316 1723 316 1736 C 316 1748 318 1760 323 1772 C 328 1784 335 1794 343 1803 C 351 1811 361 1818 373 1823 C 385 1828 398 1831 412 1831 C 425 1831 437 1828 449 1823 C 461 1818 471 1811 480 1803 C 488 1794 495 1784 500 1772 C 505 1760 508 1748 508 1736 Z M 1161 0 L 74 0 L 74 29 C 74 37 79 42 89 46 C 99 50 111 53 125 57 C 140 61 152 64 162 68 C 172 72 179 77 185 83 C 190 89 194 98 196 109 C 198 119 199 134 199 152 L 199 1343 C 199 1361 198 1375 196 1386 C 194 1396 190 1405 185 1411 C 179 1417 172 1422 162 1426 C 152 1430 140 1434 125 1438 C 111 1441 99 1444 89 1448 C 79 1452 74 1458 74 1466 L 74 1495 L 879 1495 C 892 1495 907 1495 923 1496 C 939 1497 956 1499 972 1501 C 988 1503 1005 1505 1021 1507 C 1037 1509 1051 1511 1063 1513 L 1063 1245 L 1030 1245 C 1018 1245 1009 1247 1003 1251 C 997 1255 993 1261 991 1270 C 981 1301 972 1327 963 1348 C 953 1369 941 1386 926 1399 C 910 1412 891 1421 867 1427 C 843 1433 813 1436 776 1436 L 358 1436 L 358 799 L 618 799 C 640 799 657 801 670 806 C 682 811 693 818 701 828 C 709 837 717 848 723 862 C 729 876 735 891 743 909 C 747 917 752 925 758 932 C 764 938 774 942 788 942 L 815 942 L 815 602 L 782 602 C 772 602 763 605 756 612 C 749 619 743 628 739 639 C 731 658 723 674 717 687 C 710 699 702 709 694 717 C 686 724 676 729 665 732 C 653 735 639 737 623 737 L 358 737 L 358 59 L 874 59 C 904 59 930 63 951 71 C 972 79 991 92 1007 109 C 1023 126 1037 148 1050 174 C 1062 200 1076 230 1090 266 C 1093 274 1096 282 1099 290 C 1101 297 1108 301 1118 301 L 1161 301 L 1161 0 Z" unicode="" />
<glyph horiz-adv-x="578" d="M 525 1630 L 494 1606 L 170 1755 C 141 1768 120 1783 106 1799 C 92 1815 86 1831 86 1847 C 86 1867 92 1885 104 1901 C 116 1917 133 1925 156 1925 C 169 1925 184 1922 200 1917 C 216 1912 234 1900 254 1882 L 525 1630 Z M 494 0 L 84 0 L 84 29 C 84 37 89 42 99 46 C 109 50 121 53 135 57 C 150 61 162 64 172 68 C 182 72 189 77 195 83 C 200 89 204 98 206 109 C 208 119 209 134 209 152 L 209 1343 C 209 1361 208 1375 206 1386 C 204 1396 200 1405 195 1411 C 189 1417 182 1422 172 1426 C 162 1430 150 1434 135 1438 C 121 1441 109 1444 99 1448 C 89 1452 84 1458 84 1466 L 84 1495 L 494 1495 L 494 1466 C 494 1458 488 1452 478 1448 C 467 1444 455 1441 442 1438 C 426 1434 414 1430 405 1426 C 395 1422 388 1417 383 1411 C 377 1405 374 1396 372 1386 C 370 1375 369 1361 369 1343 L 369 152 C 369 134 370 119 372 109 C 374 98 377 89 383 83 C 388 77 395 72 405 68 C 414 64 426 61 442 57 C 455 53 467 50 478 46 C 488 42 494 37 494 29 L 494 0 Z" unicode="" />
<glyph horiz-adv-x="578" d="M 506 1847 C 506 1831 499 1814 485 1798 C 471 1782 450 1767 422 1755 L 99 1606 L 68 1630 L 338 1882 C 357 1900 375 1912 391 1917 C 407 1922 422 1925 434 1925 C 458 1925 476 1917 488 1901 C 500 1885 506 1867 506 1847 Z M 494 0 L 84 0 L 84 29 C 84 37 89 42 99 46 C 109 50 121 53 135 57 C 150 61 162 64 172 68 C 182 72 189 77 195 83 C 200 89 204 98 206 109 C 208 119 209 134 209 152 L 209 1343 C 209 1361 208 1375 206 1386 C 204 1396 200 1405 195 1411 C 189 1417 182 1422 172 1426 C 162 1430 150 1434 135 1438 C 121 1441 109 1444 99 1448 C 89 1452 84 1458 84 1466 L 84 1495 L 494 1495 L 494 1466 C 494 1458 488 1452 478 1448 C 467 1444 455 1441 442 1438 C 426 1434 414 1430 405 1426 C 395 1422 388 1417 383 1411 C 377 1405 374 1396 372 1386 C 370 1375 369 1361 369 1343 L 369 152 C 369 134 370 119 372 109 C 374 98 377 89 383 83 C 388 77 395 72 405 68 C 414 64 426 61 442 57 C 455 53 467 50 478 46 C 488 42 494 37 494 29 L 494 0 Z" unicode="" />
<glyph horiz-adv-x="578" d="M 575 1593 L 526 1593 L 291 1800 L 49 1593 L 2 1593 L 233 1921 L 344 1921 L 575 1593 Z M 494 0 L 84 0 L 84 29 C 84 37 89 42 99 46 C 109 50 121 53 135 57 C 150 61 162 64 172 68 C 182 72 189 77 195 83 C 200 89 204 98 206 109 C 208 119 209 134 209 152 L 209 1343 C 209 1361 208 1375 206 1386 C 204 1396 200 1405 195 1411 C 189 1417 182 1422 172 1426 C 162 1430 150 1434 135 1438 C 121 1441 109 1444 99 1448 C 89 1452 84 1458 84 1466 L 84 1495 L 494 1495 L 494 1466 C 494 1458 488 1452 478 1448 C 467 1444 455 1441 442 1438 C 426 1434 414 1430 405 1426 C 395 1422 388 1417 383 1411 C 377 1405 374 1396 372 1386 C 370 1375 369 1361 369 1343 L 369 152 C 369 134 370 119 372 109 C 374 98 377 89 383 83 C 388 77 395 72 405 68 C 414 64 426 61 442 57 C 455 53 467 50 478 46 C 488 42 494 37 494 29 L 494 0 Z" unicode="" />
<glyph horiz-adv-x="578" d="M 582 1737 C 582 1724 579 1712 574 1700 C 569 1688 562 1678 554 1670 C 545 1661 535 1654 523 1649 C 511 1644 498 1642 485 1642 C 471 1642 459 1644 447 1649 C 435 1654 425 1661 417 1670 C 408 1678 401 1688 396 1700 C 391 1712 389 1724 389 1737 C 389 1749 391 1761 396 1773 C 401 1784 408 1794 417 1803 C 425 1811 435 1818 447 1823 C 459 1828 471 1831 485 1831 C 498 1831 511 1828 523 1823 C 535 1818 545 1811 554 1803 C 562 1794 569 1784 574 1773 C 579 1761 582 1749 582 1737 Z M 190 1737 C 190 1724 187 1712 182 1700 C 177 1688 170 1678 162 1670 C 153 1661 143 1654 131 1649 C 119 1644 107 1642 94 1642 C 80 1642 67 1644 55 1649 C 43 1654 33 1661 25 1670 C 17 1678 10 1688 5 1700 C 0 1712 -2 1724 -2 1737 C -2 1749 0 1761 5 1773 C 10 1784 17 1794 25 1803 C 33 1811 43 1818 55 1823 C 67 1828 80 1831 94 1831 C 107 1831 119 1828 131 1823 C 143 1818 153 1811 162 1803 C 170 1794 177 1784 182 1773 C 187 1761 190 1749 190 1737 Z M 494 0 L 84 0 L 84 29 C 84 37 89 42 99 46 C 109 50 121 53 135 57 C 150 61 162 64 172 68 C 182 72 189 77 195 83 C 200 89 204 98 206 109 C 208 119 209 134 209 152 L 209 1343 C 209 1361 208 1375 206 1386 C 204 1396 200 1405 195 1411 C 189 1417 182 1422 172 1426 C 162 1430 150 1434 135 1438 C 121 1441 109 1444 99 1448 C 89 1452 84 1458 84 1466 L 84 1495 L 494 1495 L 494 1466 C 494 1458 488 1452 478 1448 C 467 1444 455 1441 442 1438 C 426 1434 414 1430 405 1426 C 395 1422 388 1417 383 1411 C 377 1405 374 1396 372 1386 C 370 1375 369 1361 369 1343 L 369 152 C 369 134 370 119 372 109 C 374 98 377 89 383 83 C 388 77 395 72 405 68 C 414 64 426 61 442 57 C 455 53 467 50 478 46 C 488 42 494 37 494 29 L 494 0 Z" unicode="" />
<glyph horiz-adv-x="1483" d="M 1111 1870 C 1109 1838 1103 1809 1093 1783 C 1083 1757 1069 1734 1051 1715 C 1033 1695 1013 1680 989 1670 C 965 1659 940 1654 914 1654 C 902 1654 890 1654 880 1656 C 869 1657 858 1659 847 1663 C 836 1666 824 1671 812 1677 C 800 1683 785 1690 769 1700 C 741 1715 716 1729 694 1741 C 672 1753 649 1759 626 1759 C 596 1759 572 1747 553 1724 C 533 1701 522 1674 519 1642 L 470 1642 C 471 1674 477 1703 488 1729 C 498 1755 512 1778 530 1798 C 548 1817 568 1832 592 1843 C 615 1853 640 1859 667 1859 C 697 1859 724 1855 746 1847 C 768 1839 790 1828 814 1814 C 840 1798 865 1785 888 1773 C 910 1761 932 1755 953 1755 C 967 1755 981 1758 994 1764 C 1006 1770 1018 1778 1028 1789 C 1038 1799 1046 1812 1052 1826 C 1058 1840 1062 1854 1064 1870 L 1111 1870 Z M 1421 1468 C 1421 1464 1420 1461 1419 1459 C 1417 1457 1414 1454 1410 1450 C 1405 1446 1399 1442 1391 1438 C 1383 1433 1372 1427 1358 1419 C 1332 1405 1315 1388 1306 1367 C 1296 1346 1292 1324 1292 1300 L 1292 -8 L 1241 -8 L 283 1384 L 283 195 C 283 169 288 147 298 128 C 308 108 325 91 350 76 C 372 61 389 51 399 46 C 409 41 414 35 414 27 L 414 0 L 70 0 L 70 27 C 70 29 70 32 72 35 C 73 37 76 40 81 44 C 85 48 92 52 100 57 C 108 61 119 68 133 76 C 158 89 175 106 185 127 C 194 148 199 171 199 195 L 199 1343 C 199 1361 198 1375 196 1386 C 194 1396 190 1405 185 1411 C 179 1417 172 1422 162 1426 C 152 1430 140 1434 125 1438 C 111 1441 99 1444 89 1448 C 79 1452 74 1458 74 1466 L 74 1495 L 391 1495 L 1208 305 L 1208 1300 C 1208 1325 1203 1347 1193 1367 C 1183 1386 1165 1403 1141 1419 C 1118 1433 1102 1443 1092 1448 C 1082 1453 1077 1460 1077 1468 L 1077 1495 L 1421 1495 L 1421 1468 Z" unicode="" />
<glyph horiz-adv-x="1495" d="M 966 1630 L 935 1606 L 611 1755 C 582 1768 561 1783 547 1799 C 533 1815 527 1831 527 1847 C 527 1867 533 1885 545 1901 C 557 1917 574 1925 597 1925 C 610 1925 625 1922 641 1917 C 657 1912 675 1900 695 1882 L 966 1630 Z M 1430 748 C 1430 636 1413 532 1381 438 C 1348 344 1302 262 1242 194 C 1182 126 1111 72 1028 34 C 944 -3 852 -23 750 -23 C 648 -23 555 -4 471 33 C 387 70 315 123 255 191 C 195 259 148 340 115 435 C 82 529 66 634 66 748 C 66 858 82 961 115 1055 C 148 1149 195 1231 255 1299 C 315 1367 387 1421 471 1460 C 555 1498 648 1518 750 1518 C 852 1518 944 1498 1028 1460 C 1111 1421 1182 1367 1242 1299 C 1302 1231 1348 1149 1381 1055 C 1413 961 1430 858 1430 748 Z M 1251 748 C 1251 863 1238 965 1214 1054 C 1190 1142 1156 1217 1112 1277 C 1068 1337 1015 1382 953 1413 C 891 1444 824 1460 750 1460 C 675 1460 607 1444 545 1413 C 483 1382 429 1337 385 1277 C 340 1217 305 1142 281 1054 C 256 965 244 863 244 748 C 244 632 256 529 281 441 C 305 352 340 277 385 217 C 429 156 483 110 545 79 C 607 48 675 33 750 33 C 824 33 891 48 953 78 C 1015 108 1068 152 1112 212 C 1156 271 1190 345 1214 435 C 1238 524 1251 628 1251 748 Z" unicode="" />
<glyph horiz-adv-x="1495" d="M 993 1847 C 993 1831 986 1814 972 1798 C 958 1782 937 1767 909 1755 L 586 1606 L 555 1630 L 825 1882 C 844 1900 862 1912 878 1917 C 894 1922 909 1925 921 1925 C 945 1925 963 1917 975 1901 C 987 1885 993 1867 993 1847 Z M 1430 748 C 1430 636 1413 532 1381 438 C 1348 344 1302 262 1242 194 C 1182 126 1111 72 1028 34 C 944 -3 852 -23 750 -23 C 648 -23 555 -4 471 33 C 387 70 315 123 255 191 C 195 259 148 340 115 435 C 82 529 66 634 66 748 C 66 858 82 961 115 1055 C 148 1149 195 1231 255 1299 C 315 1367 387 1421 471 1460 C 555 1498 648 1518 750 1518 C 852 1518 944 1498 1028 1460 C 1111 1421 1182 1367 1242 1299 C 1302 1231 1348 1149 1381 1055 C 1413 961 1430 858 1430 748 Z M 1251 748 C 1251 863 1238 965 1214 1054 C 1190 1142 1156 1217 1112 1277 C 1068 1337 1015 1382 953 1413 C 891 1444 824 1460 750 1460 C 675 1460 607 1444 545 1413 C 483 1382 429 1337 385 1277 C 340 1217 305 1142 281 1054 C 256 965 244 863 244 748 C 244 632 256 529 281 441 C 305 352 340 277 385 217 C 429 156 483 110 545 79 C 607 48 675 33 750 33 C 824 33 891 48 953 78 C 1015 108 1068 152 1112 212 C 1156 271 1190 345 1214 435 C 1238 524 1251 628 1251 748 Z" unicode="" />
<glyph horiz-adv-x="1495" d="M 1053 1593 L 1003 1593 L 747 1800 L 485 1593 L 438 1593 L 690 1921 L 801 1921 L 1053 1593 Z M 1430 748 C 1430 636 1413 532 1381 438 C 1348 344 1302 262 1242 194 C 1182 126 1111 72 1028 34 C 944 -3 852 -23 750 -23 C 648 -23 555 -4 471 33 C 387 70 315 123 255 191 C 195 259 148 340 115 435 C 82 529 66 634 66 748 C 66 858 82 961 115 1055 C 148 1149 195 1231 255 1299 C 315 1367 387 1421 471 1460 C 555 1498 648 1518 750 1518 C 852 1518 944 1498 1028 1460 C 1111 1421 1182 1367 1242 1299 C 1302 1231 1348 1149 1381 1055 C 1413 961 1430 858 1430 748 Z M 1251 748 C 1251 863 1238 965 1214 1054 C 1190 1142 1156 1217 1112 1277 C 1068 1337 1015 1382 953 1413 C 891 1444 824 1460 750 1460 C 675 1460 607 1444 545 1413 C 483 1382 429 1337 385 1277 C 340 1217 305 1142 281 1054 C 256 965 244 863 244 748 C 244 632 256 529 281 441 C 305 352 340 277 385 217 C 429 156 483 110 545 79 C 607 48 675 33 750 33 C 824 33 891 48 953 78 C 1015 108 1068 152 1112 212 C 1156 271 1190 345 1214 435 C 1238 524 1251 628 1251 748 Z" unicode="" />
<glyph horiz-adv-x="1495" d="M 1066 1870 C 1064 1838 1058 1809 1048 1783 C 1038 1757 1024 1734 1006 1715 C 988 1695 968 1680 944 1670 C 920 1659 895 1654 869 1654 C 857 1654 845 1654 835 1656 C 824 1657 813 1659 802 1663 C 791 1666 779 1671 767 1677 C 755 1683 740 1690 724 1700 C 696 1715 671 1729 649 1741 C 627 1753 604 1759 581 1759 C 551 1759 527 1747 508 1724 C 488 1701 477 1674 474 1642 L 425 1642 C 426 1674 432 1703 443 1729 C 453 1755 467 1778 485 1798 C 503 1817 523 1832 547 1843 C 570 1853 595 1859 622 1859 C 652 1859 679 1855 701 1847 C 723 1839 745 1828 769 1814 C 795 1798 820 1785 843 1773 C 865 1761 887 1755 908 1755 C 922 1755 936 1758 949 1764 C 961 1770 973 1778 983 1789 C 993 1799 1001 1812 1007 1826 C 1013 1840 1017 1854 1019 1870 L 1066 1870 Z M 1430 748 C 1430 636 1413 532 1381 438 C 1348 344 1302 262 1242 194 C 1182 126 1111 72 1028 34 C 944 -3 852 -23 750 -23 C 648 -23 555 -4 471 33 C 387 70 315 123 255 191 C 195 259 148 340 115 435 C 82 529 66 634 66 748 C 66 858 82 961 115 1055 C 148 1149 195 1231 255 1299 C 315 1367 387 1421 471 1460 C 555 1498 648 1518 750 1518 C 852 1518 944 1498 1028 1460 C 1111 1421 1182 1367 1242 1299 C 1302 1231 1348 1149 1381 1055 C 1413 961 1430 858 1430 748 Z M 1251 748 C 1251 863 1238 965 1214 1054 C 1190 1142 1156 1217 1112 1277 C 1068 1337 1015 1382 953 1413 C 891 1444 824 1460 750 1460 C 675 1460 607 1444 545 1413 C 483 1382 429 1337 385 1277 C 340 1217 305 1142 281 1054 C 256 965 244 863 244 748 C 244 632 256 529 281 441 C 305 352 340 277 385 217 C 429 156 483 110 545 79 C 607 48 675 33 750 33 C 824 33 891 48 953 78 C 1015 108 1068 152 1112 212 C 1156 271 1190 345 1214 435 C 1238 524 1251 628 1251 748 Z" unicode="" />
<glyph horiz-adv-x="1495" d="M 1054 1736 C 1054 1723 1051 1711 1046 1700 C 1041 1688 1034 1678 1026 1670 C 1017 1661 1007 1654 995 1649 C 983 1644 971 1642 958 1642 C 944 1642 932 1644 920 1649 C 908 1654 898 1661 890 1670 C 881 1678 874 1688 869 1700 C 864 1711 862 1723 862 1736 C 862 1748 864 1760 869 1772 C 874 1784 881 1794 890 1803 C 898 1811 908 1818 920 1823 C 932 1828 944 1831 958 1831 C 971 1831 983 1828 995 1823 C 1007 1818 1017 1811 1026 1803 C 1034 1794 1041 1784 1046 1772 C 1051 1760 1054 1748 1054 1736 Z M 630 1736 C 630 1723 627 1711 622 1700 C 617 1688 610 1678 602 1670 C 593 1661 583 1654 571 1649 C 559 1644 547 1642 534 1642 C 520 1642 507 1644 495 1649 C 483 1654 473 1661 465 1670 C 457 1678 450 1688 445 1700 C 440 1711 438 1723 438 1736 C 438 1748 440 1760 445 1772 C 450 1784 457 1794 465 1803 C 473 1811 483 1818 495 1823 C 507 1828 520 1831 534 1831 C 547 1831 559 1828 571 1823 C 583 1818 593 1811 602 1803 C 610 1794 617 1784 622 1772 C 627 1760 630 1748 630 1736 Z M 1430 748 C 1430 636 1413 532 1381 438 C 1348 344 1302 262 1242 194 C 1182 126 1111 72 1028 34 C 944 -3 852 -23 750 -23 C 648 -23 555 -4 471 33 C 387 70 315 123 255 191 C 195 259 148 340 115 435 C 82 529 66 634 66 748 C 66 858 82 961 115 1055 C 148 1149 195 1231 255 1299 C 315 1367 387 1421 471 1460 C 555 1498 648 1518 750 1518 C 852 1518 944 1498 1028 1460 C 1111 1421 1182 1367 1242 1299 C 1302 1231 1348 1149 1381 1055 C 1413 961 1430 858 1430 748 Z M 1251 748 C 1251 863 1238 965 1214 1054 C 1190 1142 1156 1217 1112 1277 C 1068 1337 1015 1382 953 1413 C 891 1444 824 1460 750 1460 C 675 1460 607 1444 545 1413 C 483 1382 429 1337 385 1277 C 340 1217 305 1142 281 1054 C 256 965 244 863 244 748 C 244 632 256 529 281 441 C 305 352 340 277 385 217 C 429 156 483 110 545 79 C 607 48 675 33 750 33 C 824 33 891 48 953 78 C 1015 108 1068 152 1112 212 C 1156 271 1190 345 1214 435 C 1238 524 1251 628 1251 748 Z" unicode="" />
<glyph horiz-adv-x="1544" d="M 1233 209 L 1176 152 L 770 545 L 367 152 L 309 209 L 715 600 L 309 991 L 367 1049 L 770 657 L 1176 1049 L 1233 991 L 827 600 L 1233 209 Z" unicode="" />
<glyph horiz-adv-x="1495" d="M 1430 748 C 1430 636 1413 532 1381 438 C 1348 344 1302 262 1242 194 C 1182 126 1111 72 1028 34 C 944 -3 852 -23 750 -23 C 690 -23 632 -16 578 -2 C 524 12 473 32 426 59 L 342 -98 L 256 -98 L 360 100 C 314 132 273 171 237 216 C 201 260 170 310 145 365 C 119 420 100 480 86 544 C 72 608 66 676 66 748 C 66 858 82 961 115 1055 C 148 1149 195 1231 255 1299 C 315 1367 387 1421 471 1460 C 555 1498 648 1518 750 1518 C 809 1518 865 1511 918 1497 C 971 1483 1021 1462 1069 1436 L 1143 1573 L 1229 1573 L 1135 1395 C 1180 1361 1221 1321 1257 1276 C 1293 1230 1324 1180 1350 1125 C 1376 1070 1395 1011 1409 948 C 1423 884 1430 818 1430 748 Z M 1253 748 C 1253 874 1238 984 1209 1078 C 1180 1172 1139 1250 1087 1311 L 463 129 C 544 65 640 33 750 33 C 824 33 891 48 953 78 C 1015 108 1068 152 1112 212 C 1156 271 1191 345 1216 435 C 1240 524 1253 628 1253 748 Z M 1032 1364 C 950 1428 856 1460 750 1460 C 675 1460 606 1444 544 1413 C 482 1382 428 1337 384 1277 C 339 1217 304 1142 279 1054 C 254 965 242 863 242 748 C 242 619 256 508 285 414 C 313 320 354 242 406 182 L 1032 1364 Z" unicode="" />
<glyph horiz-adv-x="1464" d="M 946 1630 L 915 1606 L 591 1755 C 562 1768 541 1783 527 1799 C 513 1815 507 1831 507 1847 C 507 1867 513 1885 525 1901 C 537 1917 554 1925 577 1925 C 590 1925 605 1922 621 1917 C 637 1912 655 1900 675 1882 L 946 1630 Z M 1417 1468 C 1417 1464 1416 1461 1415 1459 C 1413 1457 1410 1454 1406 1450 C 1401 1446 1395 1442 1387 1438 C 1379 1433 1368 1427 1354 1419 C 1328 1405 1311 1388 1302 1367 C 1292 1346 1288 1324 1288 1300 L 1288 526 C 1288 457 1277 390 1256 324 C 1234 258 1202 200 1159 148 C 1115 96 1060 55 994 24 C 928 -7 850 -23 760 -23 C 661 -23 575 -9 503 16 C 431 42 371 79 324 126 C 276 172 241 227 218 290 C 195 353 184 422 184 496 L 184 1343 C 184 1361 183 1375 181 1386 C 179 1396 175 1405 170 1411 C 164 1417 157 1422 148 1426 C 138 1430 126 1434 111 1438 C 97 1441 85 1444 75 1448 C 64 1452 59 1458 59 1466 L 59 1495 L 469 1495 L 469 1466 C 469 1458 463 1452 453 1448 C 443 1444 431 1441 418 1438 C 402 1434 390 1430 380 1426 C 370 1422 363 1417 358 1411 C 352 1405 349 1396 347 1386 C 345 1375 344 1361 344 1343 L 344 512 C 344 444 353 383 372 329 C 390 275 418 229 454 191 C 490 153 534 124 586 104 C 638 84 698 74 766 74 C 842 74 907 84 962 105 C 1017 125 1062 155 1098 195 C 1134 235 1160 283 1178 341 C 1195 399 1204 465 1204 539 L 1204 1300 C 1204 1325 1199 1347 1189 1367 C 1179 1386 1161 1403 1137 1419 C 1114 1433 1098 1443 1088 1448 C 1078 1453 1073 1460 1073 1468 L 1073 1495 L 1417 1495 L 1417 1468 Z" unicode="" />
<glyph horiz-adv-x="1464" d="M 1036 1847 C 1036 1831 1029 1814 1015 1798 C 1001 1782 980 1767 952 1755 L 629 1606 L 598 1630 L 868 1882 C 887 1900 905 1912 921 1917 C 937 1922 952 1925 964 1925 C 988 1925 1006 1917 1018 1901 C 1030 1885 1036 1867 1036 1847 Z M 1417 1468 C 1417 1464 1416 1461 1415 1459 C 1413 1457 1410 1454 1406 1450 C 1401 1446 1395 1442 1387 1438 C 1379 1433 1368 1427 1354 1419 C 1328 1405 1311 1388 1302 1367 C 1292 1346 1288 1324 1288 1300 L 1288 526 C 1288 457 1277 390 1256 324 C 1234 258 1202 200 1159 148 C 1115 96 1060 55 994 24 C 928 -7 850 -23 760 -23 C 661 -23 575 -9 503 16 C 431 42 371 79 324 126 C 276 172 241 227 218 290 C 195 353 184 422 184 496 L 184 1343 C 184 1361 183 1375 181 1386 C 179 1396 175 1405 170 1411 C 164 1417 157 1422 148 1426 C 138 1430 126 1434 111 1438 C 97 1441 85 1444 75 1448 C 64 1452 59 1458 59 1466 L 59 1495 L 469 1495 L 469 1466 C 469 1458 463 1452 453 1448 C 443 1444 431 1441 418 1438 C 402 1434 390 1430 380 1426 C 370 1422 363 1417 358 1411 C 352 1405 349 1396 347 1386 C 345 1375 344 1361 344 1343 L 344 512 C 344 444 353 383 372 329 C 390 275 418 229 454 191 C 490 153 534 124 586 104 C 638 84 698 74 766 74 C 842 74 907 84 962 105 C 1017 125 1062 155 1098 195 C 1134 235 1160 283 1178 341 C 1195 399 1204 465 1204 539 L 1204 1300 C 1204 1325 1199 1347 1189 1367 C 1179 1386 1161 1403 1137 1419 C 1114 1433 1098 1443 1088 1448 C 1078 1453 1073 1460 1073 1468 L 1073 1495 L 1417 1495 L 1417 1468 Z" unicode="" />
<glyph horiz-adv-x="1464" d="M 1073 1593 L 1023 1593 L 767 1800 L 505 1593 L 458 1593 L 710 1921 L 821 1921 L 1073 1593 Z M 1417 1468 C 1417 1464 1416 1461 1415 1459 C 1413 1457 1410 1454 1406 1450 C 1401 1446 1395 1442 1387 1438 C 1379 1433 1368 1427 1354 1419 C 1328 1405 1311 1388 1302 1367 C 1292 1346 1288 1324 1288 1300 L 1288 526 C 1288 457 1277 390 1256 324 C 1234 258 1202 200 1159 148 C 1115 96 1060 55 994 24 C 928 -7 850 -23 760 -23 C 661 -23 575 -9 503 16 C 431 42 371 79 324 126 C 276 172 241 227 218 290 C 195 353 184 422 184 496 L 184 1343 C 184 1361 183 1375 181 1386 C 179 1396 175 1405 170 1411 C 164 1417 157 1422 148 1426 C 138 1430 126 1434 111 1438 C 97 1441 85 1444 75 1448 C 64 1452 59 1458 59 1466 L 59 1495 L 469 1495 L 469 1466 C 469 1458 463 1452 453 1448 C 443 1444 431 1441 418 1438 C 402 1434 390 1430 380 1426 C 370 1422 363 1417 358 1411 C 352 1405 349 1396 347 1386 C 345 1375 344 1361 344 1343 L 344 512 C 344 444 353 383 372 329 C 390 275 418 229 454 191 C 490 153 534 124 586 104 C 638 84 698 74 766 74 C 842 74 907 84 962 105 C 1017 125 1062 155 1098 195 C 1134 235 1160 283 1178 341 C 1195 399 1204 465 1204 539 L 1204 1300 C 1204 1325 1199 1347 1189 1367 C 1179 1386 1161 1403 1137 1419 C 1114 1433 1098 1443 1088 1448 C 1078 1453 1073 1460 1073 1468 L 1073 1495 L 1417 1495 L 1417 1468 Z" unicode="" />
<glyph horiz-adv-x="1464" d="M 1062 1736 C 1062 1723 1059 1711 1054 1700 C 1049 1688 1042 1678 1034 1670 C 1025 1661 1015 1654 1003 1649 C 991 1644 979 1642 966 1642 C 952 1642 940 1644 928 1649 C 916 1654 906 1661 898 1670 C 889 1678 882 1688 877 1700 C 872 1711 870 1723 870 1736 C 870 1748 872 1760 877 1772 C 882 1784 889 1794 898 1803 C 906 1811 916 1818 928 1823 C 940 1828 952 1831 966 1831 C 979 1831 991 1828 1003 1823 C 1015 1818 1025 1811 1034 1803 C 1042 1794 1049 1784 1054 1772 C 1059 1760 1062 1748 1062 1736 Z M 638 1736 C 638 1723 635 1711 630 1700 C 625 1688 618 1678 610 1670 C 601 1661 591 1654 579 1649 C 567 1644 555 1642 542 1642 C 528 1642 515 1644 503 1649 C 491 1654 481 1661 473 1670 C 465 1678 458 1688 453 1700 C 448 1711 446 1723 446 1736 C 446 1748 448 1760 453 1772 C 458 1784 465 1794 473 1803 C 481 1811 491 1818 503 1823 C 515 1828 528 1831 542 1831 C 555 1831 567 1828 579 1823 C 591 1818 601 1811 610 1803 C 618 1794 625 1784 630 1772 C 635 1760 638 1748 638 1736 Z M 1417 1468 C 1417 1464 1416 1461 1415 1459 C 1413 1457 1410 1454 1406 1450 C 1401 1446 1395 1442 1387 1438 C 1379 1433 1368 1427 1354 1419 C 1328 1405 1311 1388 1302 1367 C 1292 1346 1288 1324 1288 1300 L 1288 526 C 1288 457 1277 390 1256 324 C 1234 258 1202 200 1159 148 C 1115 96 1060 55 994 24 C 928 -7 850 -23 760 -23 C 661 -23 575 -9 503 16 C 431 42 371 79 324 126 C 276 172 241 227 218 290 C 195 353 184 422 184 496 L 184 1343 C 184 1361 183 1375 181 1386 C 179 1396 175 1405 170 1411 C 164 1417 157 1422 148 1426 C 138 1430 126 1434 111 1438 C 97 1441 85 1444 75 1448 C 64 1452 59 1458 59 1466 L 59 1495 L 469 1495 L 469 1466 C 469 1458 463 1452 453 1448 C 443 1444 431 1441 418 1438 C 402 1434 390 1430 380 1426 C 370 1422 363 1417 358 1411 C 352 1405 349 1396 347 1386 C 345 1375 344 1361 344 1343 L 344 512 C 344 444 353 383 372 329 C 390 275 418 229 454 191 C 490 153 534 124 586 104 C 638 84 698 74 766 74 C 842 74 907 84 962 105 C 1017 125 1062 155 1098 195 C 1134 235 1160 283 1178 341 C 1195 399 1204 465 1204 539 L 1204 1300 C 1204 1325 1199 1347 1189 1367 C 1179 1386 1161 1403 1137 1419 C 1114 1433 1098 1443 1088 1448 C 1078 1453 1073 1460 1073 1468 L 1073 1495 L 1417 1495 L 1417 1468 Z" unicode="" />
<glyph horiz-adv-x="1272" d="M 1305 1466 C 1305 1458 1298 1451 1286 1446 C 1273 1441 1260 1436 1247 1430 C 1233 1424 1220 1416 1210 1408 C 1199 1400 1189 1390 1179 1380 C 1169 1370 1160 1358 1151 1346 C 1141 1333 1132 1319 1122 1303 L 723 688 L 723 152 C 723 134 724 119 726 109 C 728 98 731 89 737 83 C 743 77 751 72 761 68 C 771 64 783 61 799 57 C 812 53 824 50 834 46 C 844 42 850 37 850 29 L 850 0 L 436 0 L 436 29 C 436 37 441 42 451 46 C 461 50 473 53 487 57 C 502 61 515 64 525 68 C 535 72 542 77 548 83 C 554 89 558 98 560 109 C 562 119 563 134 563 152 L 563 678 L 117 1350 C 109 1361 103 1371 97 1380 C 91 1389 84 1397 76 1404 C 68 1411 60 1417 50 1423 C 40 1429 28 1434 14 1438 C 0 1442 -11 1445 -21 1449 C -31 1452 -37 1458 -37 1466 L -37 1495 L 406 1495 L 406 1466 C 406 1458 400 1452 390 1448 C 379 1444 367 1441 354 1438 C 338 1434 325 1430 316 1426 C 307 1422 300 1418 296 1414 C 291 1410 288 1406 287 1402 C 285 1398 285 1393 285 1389 C 285 1384 286 1377 290 1369 C 294 1360 298 1351 304 1341 C 309 1331 314 1321 320 1312 C 325 1303 330 1296 334 1290 L 688 758 L 1030 1298 C 1034 1304 1038 1312 1043 1321 C 1048 1330 1053 1339 1057 1348 C 1061 1357 1065 1365 1068 1373 C 1071 1381 1073 1387 1073 1391 C 1073 1399 1068 1406 1059 1414 C 1049 1421 1029 1429 997 1438 C 983 1441 971 1444 961 1448 C 951 1452 946 1458 946 1466 L 946 1495 L 1305 1495 L 1305 1466 Z M 954 1847 C 954 1831 947 1814 933 1798 C 919 1782 898 1767 870 1755 L 547 1606 L 516 1630 L 786 1882 C 805 1900 823 1912 839 1917 C 855 1922 870 1925 882 1925 C 906 1925 924 1917 936 1901 C 948 1885 954 1867 954 1847 Z" unicode="" />
<glyph horiz-adv-x="1073" d="M 1030 381 C 1030 329 1020 278 1002 230 C 983 182 957 139 924 103 C 891 66 852 37 808 15 C 763 -7 715 -18 664 -18 C 622 -18 587 -14 557 -7 C 527 0 502 10 483 22 C 464 34 450 48 441 64 C 432 80 428 96 428 113 C 428 119 429 128 432 138 C 435 148 440 158 447 168 C 453 178 462 186 472 193 C 482 199 495 203 510 203 C 533 203 551 195 564 179 C 577 163 584 145 584 127 C 584 121 582 110 579 96 C 575 81 567 66 555 51 C 559 47 566 44 574 42 C 582 39 590 37 598 35 C 606 33 614 31 622 30 C 630 29 636 29 641 29 C 679 29 713 38 743 57 C 773 75 798 101 818 134 C 838 166 853 204 863 248 C 873 291 879 337 879 387 C 879 451 871 507 857 554 C 842 601 821 640 793 670 C 765 700 730 722 690 736 C 650 750 604 758 553 758 L 520 758 C 486 758 469 771 469 797 C 469 812 473 823 481 829 C 489 835 496 838 504 838 L 553 838 C 588 838 619 845 647 860 C 675 875 698 897 718 925 C 737 953 752 986 762 1026 C 772 1065 778 1109 778 1159 C 778 1206 772 1247 761 1283 C 749 1318 734 1347 714 1371 C 694 1395 670 1412 642 1424 C 614 1436 584 1442 551 1442 C 467 1442 405 1407 364 1339 C 323 1271 303 1169 303 1034 L 303 0 L 59 0 L 59 23 C 59 30 62 35 70 37 C 78 39 88 41 100 45 C 112 47 123 50 131 54 C 139 58 146 62 150 68 C 154 74 157 81 159 91 C 161 100 162 112 162 127 L 162 1018 C 162 1094 172 1162 192 1222 C 212 1281 239 1331 275 1371 C 311 1411 353 1442 402 1463 C 451 1484 505 1495 563 1495 C 615 1495 662 1487 706 1471 C 750 1455 787 1433 819 1405 C 851 1376 875 1342 893 1303 C 911 1263 920 1220 920 1174 C 920 1134 915 1095 906 1057 C 896 1019 880 983 857 951 C 833 919 802 890 762 864 C 722 838 671 818 610 803 C 693 795 762 777 816 751 C 870 724 913 691 945 653 C 977 614 999 571 1011 524 C 1023 477 1030 429 1030 381 Z" unicode="" />
<glyph horiz-adv-x="922" d="M 946 72 C 926 42 903 21 877 8 C 851 -5 826 -12 803 -12 C 785 -12 768 -9 752 -4 C 735 1 719 9 705 21 C 691 33 678 47 667 65 C 656 82 648 103 643 127 C 554 30 457 -18 352 -18 C 312 -18 273 -12 237 -2 C 200 8 168 24 140 45 C 112 66 89 92 72 124 C 55 156 47 193 47 236 C 47 282 59 323 84 360 C 108 397 145 429 194 455 C 243 481 304 502 377 516 C 450 530 535 537 633 537 C 633 589 627 635 617 674 C 607 712 592 744 573 769 C 554 794 531 813 505 825 C 479 837 450 844 418 844 C 408 844 397 843 385 842 C 372 840 359 838 346 836 C 332 833 319 829 307 825 C 294 820 283 815 274 809 C 283 793 289 780 293 768 C 297 756 299 742 299 727 C 299 715 296 704 292 694 C 287 684 281 675 273 667 C 265 659 255 653 245 649 C 234 645 223 643 211 643 C 195 643 181 646 169 652 C 157 658 148 665 141 674 C 133 683 128 693 124 705 C 120 716 119 727 119 737 C 119 757 125 776 139 795 C 153 813 172 830 198 845 C 223 859 254 871 290 880 C 326 888 368 893 414 893 C 481 893 537 885 583 869 C 629 853 666 830 694 801 C 722 771 742 736 754 694 C 766 652 772 606 772 555 L 772 164 C 772 136 779 113 794 97 C 808 80 829 72 856 72 C 870 72 883 74 893 78 C 903 82 913 88 924 96 L 946 72 Z M 633 236 L 633 485 C 487 485 378 464 306 422 C 233 380 197 323 197 252 C 197 187 214 138 250 104 C 285 70 333 53 393 53 C 421 53 449 58 478 68 C 506 78 532 91 555 108 C 578 125 597 145 611 167 C 625 189 633 212 633 236 Z M 631 1012 L 598 991 L 297 1174 C 247 1203 223 1234 223 1266 C 223 1286 228 1304 239 1320 C 250 1335 266 1343 287 1343 C 296 1343 305 1342 313 1341 C 321 1340 329 1338 337 1334 C 345 1330 353 1324 362 1316 C 370 1308 380 1298 391 1286 L 631 1012 Z" unicode="" />
<glyph horiz-adv-x="922" d="M 946 72 C 926 42 903 21 877 8 C 851 -5 826 -12 803 -12 C 785 -12 768 -9 752 -4 C 735 1 719 9 705 21 C 691 33 678 47 667 65 C 656 82 648 103 643 127 C 554 30 457 -18 352 -18 C 312 -18 273 -12 237 -2 C 200 8 168 24 140 45 C 112 66 89 92 72 124 C 55 156 47 193 47 236 C 47 282 59 323 84 360 C 108 397 145 429 194 455 C 243 481 304 502 377 516 C 450 530 535 537 633 537 C 633 589 627 635 617 674 C 607 712 592 744 573 769 C 554 794 531 813 505 825 C 479 837 450 844 418 844 C 408 844 397 843 385 842 C 372 840 359 838 346 836 C 332 833 319 829 307 825 C 294 820 283 815 274 809 C 283 793 289 780 293 768 C 297 756 299 742 299 727 C 299 715 296 704 292 694 C 287 684 281 675 273 667 C 265 659 255 653 245 649 C 234 645 223 643 211 643 C 195 643 181 646 169 652 C 157 658 148 665 141 674 C 133 683 128 693 124 705 C 120 716 119 727 119 737 C 119 757 125 776 139 795 C 153 813 172 830 198 845 C 223 859 254 871 290 880 C 326 888 368 893 414 893 C 481 893 537 885 583 869 C 629 853 666 830 694 801 C 722 771 742 736 754 694 C 766 652 772 606 772 555 L 772 164 C 772 136 779 113 794 97 C 808 80 829 72 856 72 C 870 72 883 74 893 78 C 903 82 913 88 924 96 L 946 72 Z M 633 236 L 633 485 C 487 485 378 464 306 422 C 233 380 197 323 197 252 C 197 187 214 138 250 104 C 285 70 333 53 393 53 C 421 53 449 58 478 68 C 506 78 532 91 555 108 C 578 125 597 145 611 167 C 625 189 633 212 633 236 Z M 678 1266 C 678 1234 653 1203 604 1174 L 303 991 L 270 1014 L 510 1286 C 530 1309 548 1324 563 1332 C 578 1339 595 1343 614 1343 C 634 1343 650 1335 661 1320 C 672 1305 678 1287 678 1266 Z" unicode="" />
<glyph horiz-adv-x="922" d="M 946 72 C 926 42 903 21 877 8 C 851 -5 826 -12 803 -12 C 785 -12 768 -9 752 -4 C 735 1 719 9 705 21 C 691 33 678 47 667 65 C 656 82 648 103 643 127 C 554 30 457 -18 352 -18 C 312 -18 273 -12 237 -2 C 200 8 168 24 140 45 C 112 66 89 92 72 124 C 55 156 47 193 47 236 C 47 282 59 323 84 360 C 108 397 145 429 194 455 C 243 481 304 502 377 516 C 450 530 535 537 633 537 C 633 589 627 635 617 674 C 607 712 592 744 573 769 C 554 794 531 813 505 825 C 479 837 450 844 418 844 C 408 844 397 843 385 842 C 372 840 359 838 346 836 C 332 833 319 829 307 825 C 294 820 283 815 274 809 C 283 793 289 780 293 768 C 297 756 299 742 299 727 C 299 715 296 704 292 694 C 287 684 281 675 273 667 C 265 659 255 653 245 649 C 234 645 223 643 211 643 C 195 643 181 646 169 652 C 157 658 148 665 141 674 C 133 683 128 693 124 705 C 120 716 119 727 119 737 C 119 757 125 776 139 795 C 153 813 172 830 198 845 C 223 859 254 871 290 880 C 326 888 368 893 414 893 C 481 893 537 885 583 869 C 629 853 666 830 694 801 C 722 771 742 736 754 694 C 766 652 772 606 772 555 L 772 164 C 772 136 779 113 794 97 C 808 80 829 72 856 72 C 870 72 883 74 893 78 C 903 82 913 88 924 96 L 946 72 Z M 633 236 L 633 485 C 487 485 378 464 306 422 C 233 380 197 323 197 252 C 197 187 214 138 250 104 C 285 70 333 53 393 53 C 421 53 449 58 478 68 C 506 78 532 91 555 108 C 578 125 597 145 611 167 C 625 189 633 212 633 236 Z M 714 993 L 673 993 L 432 1204 L 186 993 L 145 993 L 376 1325 L 483 1325 L 714 993 Z" unicode="" />
<glyph horiz-adv-x="922" d="M 946 72 C 926 42 903 21 877 8 C 851 -5 826 -12 803 -12 C 785 -12 768 -9 752 -4 C 735 1 719 9 705 21 C 691 33 678 47 667 65 C 656 82 648 103 643 127 C 554 30 457 -18 352 -18 C 312 -18 273 -12 237 -2 C 200 8 168 24 140 45 C 112 66 89 92 72 124 C 55 156 47 193 47 236 C 47 282 59 323 84 360 C 108 397 145 429 194 455 C 243 481 304 502 377 516 C 450 530 535 537 633 537 C 633 589 627 635 617 674 C 607 712 592 744 573 769 C 554 794 531 813 505 825 C 479 837 450 844 418 844 C 408 844 397 843 385 842 C 372 840 359 838 346 836 C 332 833 319 829 307 825 C 294 820 283 815 274 809 C 283 793 289 780 293 768 C 297 756 299 742 299 727 C 299 715 296 704 292 694 C 287 684 281 675 273 667 C 265 659 255 653 245 649 C 234 645 223 643 211 643 C 195 643 181 646 169 652 C 157 658 148 665 141 674 C 133 683 128 693 124 705 C 120 716 119 727 119 737 C 119 757 125 776 139 795 C 153 813 172 830 198 845 C 223 859 254 871 290 880 C 326 888 368 893 414 893 C 481 893 537 885 583 869 C 629 853 666 830 694 801 C 722 771 742 736 754 694 C 766 652 772 606 772 555 L 772 164 C 772 136 779 113 794 97 C 808 80 829 72 856 72 C 870 72 883 74 893 78 C 903 82 913 88 924 96 L 946 72 Z M 633 236 L 633 485 C 487 485 378 464 306 422 C 233 380 197 323 197 252 C 197 187 214 138 250 104 C 285 70 333 53 393 53 C 421 53 449 58 478 68 C 506 78 532 91 555 108 C 578 125 597 145 611 167 C 625 189 633 212 633 236 Z M 729 1280 C 727 1249 721 1220 711 1193 C 701 1166 689 1143 673 1123 C 657 1103 639 1087 619 1076 C 598 1064 576 1059 552 1059 C 540 1059 529 1059 520 1061 C 511 1062 502 1064 493 1068 C 483 1071 473 1076 462 1082 C 450 1088 437 1096 421 1106 C 393 1122 369 1136 350 1146 C 330 1156 310 1161 290 1161 C 276 1161 263 1157 251 1151 C 239 1145 229 1136 220 1126 C 211 1115 204 1103 198 1089 C 192 1075 188 1061 186 1047 L 145 1047 C 147 1077 152 1105 162 1131 C 172 1157 185 1180 201 1200 C 217 1220 235 1235 256 1247 C 276 1258 299 1264 323 1264 C 337 1264 350 1263 361 1261 C 372 1259 383 1257 393 1253 C 403 1249 413 1245 423 1240 C 433 1234 444 1228 456 1221 C 485 1202 509 1187 528 1177 C 547 1166 566 1161 585 1161 C 599 1161 612 1164 624 1171 C 636 1177 646 1186 655 1197 C 663 1208 670 1221 676 1235 C 682 1249 686 1264 688 1280 L 729 1280 Z" unicode="" />
<glyph horiz-adv-x="922" d="M 946 72 C 926 42 903 21 877 8 C 851 -5 826 -12 803 -12 C 785 -12 768 -9 752 -4 C 735 1 719 9 705 21 C 691 33 678 47 667 65 C 656 82 648 103 643 127 C 554 30 457 -18 352 -18 C 312 -18 273 -12 237 -2 C 200 8 168 24 140 45 C 112 66 89 92 72 124 C 55 156 47 193 47 236 C 47 282 59 323 84 360 C 108 397 145 429 194 455 C 243 481 304 502 377 516 C 450 530 535 537 633 537 C 633 589 627 635 617 674 C 607 712 592 744 573 769 C 554 794 531 813 505 825 C 479 837 450 844 418 844 C 408 844 397 843 385 842 C 372 840 359 838 346 836 C 332 833 319 829 307 825 C 294 820 283 815 274 809 C 283 793 289 780 293 768 C 297 756 299 742 299 727 C 299 715 296 704 292 694 C 287 684 281 675 273 667 C 265 659 255 653 245 649 C 234 645 223 643 211 643 C 195 643 181 646 169 652 C 157 658 148 665 141 674 C 133 683 128 693 124 705 C 120 716 119 727 119 737 C 119 757 125 776 139 795 C 153 813 172 830 198 845 C 223 859 254 871 290 880 C 326 888 368 893 414 893 C 481 893 537 885 583 869 C 629 853 666 830 694 801 C 722 771 742 736 754 694 C 766 652 772 606 772 555 L 772 164 C 772 136 779 113 794 97 C 808 80 829 72 856 72 C 870 72 883 74 893 78 C 903 82 913 88 924 96 L 946 72 Z M 633 236 L 633 485 C 487 485 378 464 306 422 C 233 380 197 323 197 252 C 197 187 214 138 250 104 C 285 70 333 53 393 53 C 421 53 449 58 478 68 C 506 78 532 91 555 108 C 578 125 597 145 611 167 C 625 189 633 212 633 236 Z M 720 1147 C 720 1135 717 1123 713 1112 C 708 1100 701 1090 693 1082 C 684 1074 674 1067 663 1062 C 651 1057 639 1055 626 1055 C 612 1055 600 1057 589 1062 C 577 1067 567 1074 559 1082 C 550 1090 543 1100 539 1112 C 534 1123 532 1135 532 1147 C 532 1159 534 1170 539 1182 C 543 1193 550 1203 559 1211 C 567 1219 577 1226 589 1231 C 600 1236 612 1239 626 1239 C 639 1239 651 1236 663 1231 C 674 1226 684 1219 693 1211 C 701 1203 708 1193 713 1182 C 717 1170 720 1159 720 1147 Z M 348 1147 C 348 1122 339 1100 321 1082 C 303 1064 280 1055 253 1055 C 239 1055 227 1057 216 1062 C 204 1067 194 1074 186 1082 C 177 1090 170 1100 166 1112 C 161 1123 159 1135 159 1147 C 159 1159 161 1170 166 1182 C 170 1193 177 1203 186 1211 C 194 1219 204 1226 216 1231 C 227 1236 239 1239 253 1239 C 280 1239 303 1229 321 1211 C 339 1193 348 1171 348 1147 Z" unicode="" />
<glyph horiz-adv-x="922" d="M 946 72 C 926 42 903 21 877 8 C 851 -5 826 -12 803 -12 C 785 -12 768 -9 752 -4 C 735 1 719 9 705 21 C 691 33 678 47 667 65 C 656 82 648 103 643 127 C 554 30 457 -18 352 -18 C 312 -18 273 -12 237 -2 C 200 8 168 24 140 45 C 112 66 89 92 72 124 C 55 156 47 193 47 236 C 47 282 59 323 84 360 C 108 397 145 429 194 455 C 243 481 304 502 377 516 C 450 530 535 537 633 537 C 633 589 627 635 617 674 C 607 712 592 744 573 769 C 554 794 531 813 505 825 C 479 837 450 844 418 844 C 408 844 397 843 385 842 C 372 840 359 838 346 836 C 332 833 319 829 307 825 C 294 820 283 815 274 809 C 283 793 289 780 293 768 C 297 756 299 742 299 727 C 299 715 296 704 292 694 C 287 684 281 675 273 667 C 265 659 255 653 245 649 C 234 645 223 643 211 643 C 195 643 181 646 169 652 C 157 658 148 665 141 674 C 133 683 128 693 124 705 C 120 716 119 727 119 737 C 119 757 125 776 139 795 C 153 813 172 830 198 845 C 223 859 254 871 290 880 C 326 888 368 893 414 893 C 481 893 537 885 583 869 C 629 853 666 830 694 801 C 722 771 742 736 754 694 C 766 652 772 606 772 555 L 772 164 C 772 136 779 113 794 97 C 808 80 829 72 856 72 C 870 72 883 74 893 78 C 903 82 913 88 924 96 L 946 72 Z M 633 236 L 633 485 C 487 485 378 464 306 422 C 233 380 197 323 197 252 C 197 187 214 138 250 104 C 285 70 333 53 393 53 C 421 53 449 58 478 68 C 506 78 532 91 555 108 C 578 125 597 145 611 167 C 625 189 633 212 633 236 Z M 657 1174 C 657 1146 651 1120 641 1096 C 631 1072 616 1051 598 1034 C 580 1016 558 1003 533 993 C 507 983 480 979 450 979 C 420 979 392 983 366 993 C 340 1003 317 1016 299 1034 C 280 1051 265 1072 255 1096 C 244 1120 239 1146 239 1174 C 239 1202 244 1227 255 1251 C 265 1275 280 1295 299 1313 C 317 1330 340 1343 366 1353 C 392 1363 420 1368 450 1368 C 480 1368 507 1363 533 1353 C 558 1343 580 1330 598 1313 C 616 1295 631 1275 641 1251 C 651 1227 657 1202 657 1174 Z M 569 1174 C 569 1224 558 1261 537 1286 C 516 1310 487 1323 450 1323 C 410 1323 380 1310 359 1286 C 337 1261 327 1224 327 1174 C 327 1123 337 1085 359 1061 C 380 1036 410 1024 450 1024 C 487 1024 516 1036 537 1061 C 558 1085 569 1123 569 1174 Z" unicode="" />
<glyph horiz-adv-x="1448" d="M 1417 487 L 758 487 C 758 419 764 359 777 306 C 789 252 808 207 834 169 C 860 131 892 103 931 83 C 969 63 1015 53 1067 53 C 1100 53 1131 56 1161 64 C 1191 72 1219 83 1245 97 C 1271 111 1295 127 1318 146 C 1340 164 1362 185 1382 207 L 1413 176 C 1401 156 1384 134 1362 112 C 1340 89 1313 68 1281 49 C 1249 29 1212 13 1172 1 C 1132 -11 1088 -18 1042 -18 C 956 -18 884 -1 825 32 C 766 65 719 110 684 166 C 656 131 629 102 603 78 C 576 54 549 35 522 21 C 495 7 467 -3 439 -9 C 411 -15 382 -18 352 -18 C 312 -18 273 -12 237 -2 C 200 8 168 24 140 45 C 112 66 89 92 72 124 C 55 156 47 193 47 236 C 47 282 59 323 84 360 C 108 397 145 429 194 455 C 243 481 304 502 377 516 C 450 530 535 537 633 537 C 633 589 627 635 617 674 C 607 712 592 744 573 769 C 554 794 531 813 505 825 C 479 837 450 844 418 844 C 408 844 397 843 385 842 C 372 840 359 838 346 836 C 332 833 319 829 307 825 C 294 820 283 815 274 809 C 283 793 289 780 293 768 C 297 756 299 742 299 727 C 299 715 296 704 292 694 C 287 684 281 675 273 667 C 265 659 255 653 245 649 C 234 645 223 643 211 643 C 195 643 181 646 169 652 C 157 658 148 665 141 674 C 133 683 128 693 124 705 C 120 716 119 727 119 737 C 119 757 125 776 139 795 C 153 813 172 830 198 845 C 223 859 254 871 290 880 C 326 888 368 893 414 893 C 498 893 566 879 616 851 C 666 823 703 786 727 739 C 764 784 809 821 861 850 C 913 878 973 893 1040 893 C 1088 893 1130 887 1168 875 C 1205 863 1237 848 1265 828 C 1293 808 1316 785 1335 759 C 1354 732 1370 703 1382 673 C 1394 643 1402 612 1408 580 C 1413 548 1416 517 1417 487 Z M 1276 541 C 1272 585 1266 625 1256 662 C 1246 699 1232 731 1213 758 C 1194 785 1170 806 1140 821 C 1110 836 1074 844 1032 844 C 998 844 965 837 935 823 C 905 809 877 788 853 762 C 829 736 808 704 792 667 C 776 629 765 587 760 541 L 1276 541 Z M 633 236 L 633 485 C 487 485 378 464 306 422 C 233 380 197 323 197 252 C 197 187 214 138 250 104 C 285 70 333 53 393 53 C 421 53 449 58 478 68 C 506 78 532 91 555 108 C 578 125 597 145 611 167 C 625 189 633 212 633 236 Z" unicode="" />
<glyph horiz-adv-x="801" d="M 813 174 C 801 152 784 131 764 109 C 744 87 720 66 692 48 C 664 29 633 13 598 1 C 562 -10 523 -17 481 -18 L 444 -106 C 511 -106 560 -117 591 -140 C 621 -163 637 -198 637 -246 C 637 -264 632 -282 624 -300 C 615 -318 602 -334 584 -348 C 566 -362 543 -373 516 -382 C 488 -390 456 -395 420 -395 C 380 -395 343 -386 308 -369 C 273 -351 243 -331 219 -309 L 244 -272 C 267 -288 292 -304 319 -318 C 345 -332 374 -340 406 -340 C 429 -340 448 -337 463 -331 C 478 -325 490 -317 499 -308 C 507 -299 513 -289 517 -279 C 520 -268 522 -258 522 -248 C 522 -236 520 -224 516 -213 C 512 -201 505 -191 495 -183 C 485 -175 473 -168 458 -163 C 442 -158 423 -156 401 -156 L 379 -156 L 440 -18 C 384 -15 332 -3 284 19 C 236 41 194 71 158 109 C 122 147 94 192 74 246 C 53 300 43 360 43 428 C 43 488 53 546 74 602 C 95 658 125 707 163 750 C 201 792 247 826 301 851 C 354 876 413 889 479 889 C 531 889 575 883 612 872 C 648 860 678 846 702 829 C 725 811 742 792 753 772 C 764 752 770 733 770 715 C 770 705 768 694 764 683 C 760 672 755 662 748 653 C 740 644 731 637 720 631 C 708 625 695 623 680 623 C 655 623 634 630 617 646 C 600 662 592 681 592 705 C 592 720 594 734 598 747 C 602 760 610 776 621 795 C 613 799 604 804 594 809 C 584 813 573 818 561 822 C 548 826 533 829 516 832 C 499 834 479 836 457 836 C 415 836 378 826 346 806 C 314 786 286 760 264 726 C 242 692 225 652 213 606 C 201 560 195 511 195 459 C 195 405 200 354 212 305 C 223 256 241 213 265 175 C 289 137 319 107 356 85 C 392 62 436 51 487 51 C 523 51 555 55 583 64 C 611 72 636 84 659 99 C 682 113 703 130 723 149 C 742 168 761 188 780 209 L 813 174 Z" unicode="" />
<glyph horiz-adv-x="881" d="M 850 487 L 190 487 C 190 419 196 359 209 306 C 222 252 241 207 267 169 C 293 131 325 103 364 83 C 402 63 448 53 500 53 C 533 53 564 56 594 64 C 623 72 651 83 677 97 C 703 111 727 127 750 146 C 773 164 795 185 815 207 L 846 176 C 834 156 817 134 795 112 C 773 89 746 68 714 49 C 682 29 645 13 605 1 C 565 -11 521 -18 475 -18 C 403 -18 341 -6 287 18 C 233 42 188 74 152 115 C 116 156 88 203 70 257 C 52 310 43 366 43 426 C 43 484 52 540 72 596 C 91 652 119 702 156 746 C 193 790 238 825 292 852 C 345 879 405 893 473 893 C 521 893 563 887 601 875 C 638 863 670 848 698 828 C 726 808 749 785 768 759 C 787 732 803 703 815 673 C 827 643 835 612 841 580 C 846 548 849 517 850 487 Z M 709 541 C 705 585 699 625 689 662 C 679 699 665 731 646 758 C 627 785 603 806 573 821 C 543 836 507 844 465 844 C 431 844 398 837 368 823 C 338 809 310 788 286 762 C 262 736 241 704 225 667 C 209 629 198 587 193 541 L 709 541 Z M 684 1012 L 651 991 L 350 1174 C 300 1203 276 1234 276 1266 C 276 1286 281 1304 292 1320 C 303 1335 319 1343 340 1343 C 349 1343 358 1342 366 1341 C 374 1340 382 1338 390 1334 C 398 1330 406 1324 415 1316 C 423 1308 433 1298 444 1286 L 684 1012 Z" unicode="" />
<glyph horiz-adv-x="881" d="M 850 487 L 190 487 C 190 419 196 359 209 306 C 222 252 241 207 267 169 C 293 131 325 103 364 83 C 402 63 448 53 500 53 C 533 53 564 56 594 64 C 623 72 651 83 677 97 C 703 111 727 127 750 146 C 773 164 795 185 815 207 L 846 176 C 834 156 817 134 795 112 C 773 89 746 68 714 49 C 682 29 645 13 605 1 C 565 -11 521 -18 475 -18 C 403 -18 341 -6 287 18 C 233 42 188 74 152 115 C 116 156 88 203 70 257 C 52 310 43 366 43 426 C 43 484 52 540 72 596 C 91 652 119 702 156 746 C 193 790 238 825 292 852 C 345 879 405 893 473 893 C 521 893 563 887 601 875 C 638 863 670 848 698 828 C 726 808 749 785 768 759 C 787 732 803 703 815 673 C 827 643 835 612 841 580 C 846 548 849 517 850 487 Z M 709 541 C 705 585 699 625 689 662 C 679 699 665 731 646 758 C 627 785 603 806 573 821 C 543 836 507 844 465 844 C 431 844 398 837 368 823 C 338 809 310 788 286 762 C 262 736 241 704 225 667 C 209 629 198 587 193 541 L 709 541 Z M 713 1266 C 713 1234 688 1203 639 1174 L 338 991 L 305 1014 L 545 1286 C 565 1309 583 1324 598 1332 C 613 1339 630 1343 649 1343 C 669 1343 685 1335 696 1320 C 707 1305 713 1287 713 1266 Z" unicode="" />
</font>
</defs>
</svg>
