<?xml version="1.0" encoding="utf-8" ?><svg version="1.1" xmlns = 'http://www.w3.org/2000/svg'><defs><font id='web' horiz-adv-x="1000">
<font-face font-family="web" descent="-426" cap-height="1434" units-per-em="2048" bbox="-428,-455,2363,2013" x-height="1024" ascent="1622" />
<missing-glyph horiz-adv-x="537" d="" /><glyph horiz-adv-x="430" d="" unicode=" " />
<glyph horiz-adv-x="539" d="M 657 1374 C 657 1362 656 1349 655 1337 C 653 1325 651 1311 647 1295 C 643 1279 637 1260 629 1238 C 621 1216 610 1189 596 1157 C 580 1121 567 1090 555 1062 C 543 1034 532 1007 522 983 C 512 958 502 934 493 911 C 484 887 475 862 465 835 C 455 808 444 778 432 746 C 420 713 407 675 393 633 C 388 619 383 603 377 587 C 371 571 366 555 360 539 C 354 523 349 509 345 496 C 340 483 336 473 334 467 L 238 494 C 252 564 264 630 276 690 C 288 750 298 807 306 863 C 314 918 321 972 327 1026 C 333 1080 337 1136 340 1194 C 342 1232 345 1271 350 1310 C 354 1348 362 1383 374 1413 C 386 1443 402 1468 424 1487 C 445 1506 474 1516 510 1516 C 531 1516 551 1512 569 1505 C 587 1498 602 1488 615 1476 C 628 1464 638 1449 646 1431 C 653 1413 657 1394 657 1374 Z M 362 143 C 362 120 357 99 349 79 C 341 59 330 42 316 28 C 302 13 285 1 266 -7 C 247 -15 227 -20 207 -20 C 185 -20 165 -15 147 -7 C 128 1 112 13 98 28 C 84 42 73 59 65 79 C 57 99 53 120 53 143 C 53 165 57 185 65 205 C 73 225 84 242 98 257 C 112 271 128 283 147 292 C 165 300 185 305 207 305 C 227 305 247 300 266 292 C 285 283 302 271 316 257 C 330 242 341 225 349 205 C 357 185 362 165 362 143 Z" unicode="!" />
<glyph horiz-adv-x="827" d="M 936 1384 C 936 1374 934 1361 931 1344 C 927 1327 924 1314 920 1305 L 711 850 L 625 870 L 678 1350 C 684 1409 699 1451 723 1477 C 747 1503 779 1516 821 1516 C 860 1516 889 1504 908 1481 C 926 1457 936 1425 936 1384 Z M 584 1384 C 584 1374 582 1361 578 1344 C 574 1327 571 1314 567 1305 L 358 850 L 272 870 L 326 1350 C 332 1409 347 1451 371 1477 C 395 1503 427 1516 469 1516 C 508 1516 537 1504 556 1481 C 574 1457 584 1425 584 1384 Z" unicode="&#x22;" />
<glyph horiz-adv-x="1440" d="M 1399 1044 L 1337 838 L 1049 838 L 973 571 L 1268 571 L 1206 365 L 911 365 L 801 -18 L 686 -18 L 797 365 L 563 365 L 455 -18 L 340 -18 L 449 365 L 166 365 L 227 571 L 512 571 L 588 838 L 295 838 L 358 1044 L 649 1044 L 754 1403 L 868 1403 L 764 1044 L 995 1044 L 1100 1403 L 1214 1403 L 1110 1044 L 1399 1044 Z M 934 838 L 702 838 L 627 571 L 858 571 L 934 838 Z" unicode="#" />
<glyph horiz-adv-x="1073" d="M 1094 1120 C 1094 1096 1090 1075 1083 1058 C 1076 1041 1067 1027 1056 1016 C 1045 1005 1033 997 1019 992 C 1005 987 991 985 977 985 C 960 985 944 988 928 994 C 912 1000 897 1008 885 1019 C 873 1030 863 1043 855 1059 C 847 1074 844 1091 844 1110 C 844 1122 846 1137 851 1154 C 856 1171 868 1195 887 1225 C 875 1231 863 1237 850 1243 C 837 1249 819 1255 797 1260 L 686 807 C 726 781 764 756 799 730 C 834 704 864 675 890 645 C 916 614 936 580 951 543 C 965 505 973 462 973 414 C 973 354 963 298 943 246 C 923 194 893 148 853 109 C 813 69 762 38 700 14 C 638 -10 565 -23 481 -27 L 416 -283 L 317 -283 L 381 -23 C 326 -17 277 -4 235 14 C 192 32 156 55 127 82 C 98 109 76 139 61 172 C 46 204 39 238 39 272 C 39 287 41 303 47 319 C 52 335 60 350 71 364 C 82 377 96 388 114 397 C 131 405 152 410 176 410 C 200 410 220 405 237 397 C 254 389 268 378 278 366 C 288 353 296 339 301 324 C 306 309 309 295 309 281 C 309 255 304 232 296 213 C 287 193 274 174 258 156 C 269 148 280 142 290 136 C 300 130 312 125 324 121 C 336 116 349 112 363 109 C 377 105 393 102 412 100 L 535 596 C 487 626 446 655 413 684 C 379 713 352 743 331 775 C 309 807 294 841 284 877 C 274 913 270 953 270 997 C 270 1022 273 1049 281 1078 C 288 1106 300 1135 316 1164 C 332 1192 352 1220 376 1246 C 400 1272 430 1296 464 1316 C 498 1336 537 1353 581 1366 C 625 1378 674 1385 729 1386 L 758 1493 L 856 1493 L 827 1378 C 868 1370 905 1358 938 1342 C 971 1326 999 1306 1022 1283 C 1045 1260 1063 1235 1075 1207 C 1087 1179 1094 1150 1094 1120 Z M 700 1268 C 629 1256 574 1233 535 1197 C 496 1161 477 1116 477 1061 C 477 1043 478 1026 481 1010 C 484 993 490 976 499 960 C 508 944 521 927 537 910 C 553 892 574 874 600 856 L 700 1268 Z M 772 324 C 772 368 760 408 736 444 C 712 480 675 517 625 555 L 510 94 C 554 98 592 106 625 119 C 657 132 685 149 707 169 C 729 189 745 212 756 238 C 766 264 772 293 772 324 Z" unicode="$" />
<glyph horiz-adv-x="1673" d="M 1640 481 C 1640 423 1630 364 1611 305 C 1592 246 1565 193 1529 145 C 1493 97 1448 57 1396 27 C 1343 -2 1283 -18 1217 -18 C 1173 -18 1136 -9 1106 8 C 1076 25 1051 48 1032 76 C 1013 104 999 135 991 170 C 983 205 979 240 979 276 C 979 315 983 355 992 395 C 1000 435 1013 474 1029 512 C 1045 549 1066 584 1090 617 C 1114 650 1141 679 1171 703 C 1201 727 1235 747 1272 761 C 1308 775 1348 782 1391 782 C 1433 782 1470 775 1502 761 C 1533 747 1559 727 1580 701 C 1600 675 1615 643 1625 606 C 1635 568 1640 527 1640 481 Z M 1466 1331 L 397 -88 L 258 23 L 1155 1090 L 1147 1100 C 1128 1088 1107 1074 1085 1060 C 1062 1046 1036 1032 1008 1018 C 979 1004 947 991 912 979 C 876 967 837 958 795 952 C 783 903 765 856 741 811 C 717 766 688 726 654 692 C 619 657 579 629 534 609 C 488 588 439 578 385 578 C 341 578 304 587 274 605 C 244 623 219 646 200 674 C 181 702 167 733 158 768 C 149 802 145 836 145 870 C 145 909 149 949 158 990 C 166 1030 179 1069 196 1107 C 212 1145 233 1180 257 1213 C 281 1246 308 1275 339 1299 C 370 1323 404 1343 441 1357 C 478 1371 518 1378 561 1378 C 600 1378 635 1371 666 1358 C 696 1345 722 1326 743 1302 C 764 1278 780 1248 791 1213 C 801 1178 807 1139 807 1096 C 807 1088 807 1081 807 1074 C 807 1067 806 1060 805 1053 C 885 1065 955 1086 1017 1115 C 1078 1144 1132 1176 1178 1211 C 1224 1246 1263 1281 1296 1316 C 1328 1351 1356 1381 1378 1407 L 1466 1331 Z M 637 1169 C 637 1183 635 1198 632 1212 C 629 1226 624 1239 617 1250 C 610 1260 601 1269 591 1276 C 580 1282 567 1286 551 1286 C 528 1286 509 1278 493 1263 C 477 1247 469 1226 469 1200 C 469 1188 471 1174 475 1160 C 479 1145 487 1131 499 1117 C 510 1103 525 1090 545 1079 C 564 1067 588 1059 618 1055 C 623 1076 627 1096 631 1114 C 635 1132 637 1151 637 1169 Z M 1464 563 C 1464 580 1462 596 1460 611 C 1458 626 1454 639 1448 650 C 1442 660 1433 669 1423 675 C 1412 681 1398 684 1382 684 C 1358 684 1337 677 1319 665 C 1301 652 1286 635 1272 615 C 1258 594 1246 570 1235 544 C 1224 517 1214 489 1204 461 C 1200 450 1196 434 1190 414 C 1184 394 1178 371 1172 347 C 1166 323 1161 297 1157 271 C 1153 244 1151 219 1151 197 C 1151 163 1157 135 1170 113 C 1183 91 1206 80 1239 80 C 1259 80 1278 86 1295 99 C 1312 111 1328 128 1343 149 C 1357 169 1370 193 1382 220 C 1394 247 1405 275 1415 303 C 1419 313 1423 329 1429 349 C 1434 369 1439 391 1445 415 C 1450 439 1454 463 1458 489 C 1462 515 1464 539 1464 563 Z M 604 958 C 566 969 536 982 512 998 C 488 1013 469 1030 455 1048 C 441 1066 430 1084 424 1104 C 417 1124 412 1144 410 1165 C 399 1140 390 1120 384 1105 C 378 1089 372 1073 367 1057 C 363 1045 359 1029 353 1009 C 347 988 342 965 337 941 C 331 916 327 890 323 864 C 319 838 317 813 317 791 C 317 755 323 726 337 706 C 351 686 374 676 408 676 C 430 676 452 684 472 701 C 492 718 511 740 528 767 C 544 794 559 824 572 858 C 585 892 596 925 604 958 Z" unicode="%" />
<glyph horiz-adv-x="1548" d="M 1565 821 L 1548 745 C 1546 736 1543 729 1541 724 C 1539 718 1535 714 1529 710 C 1523 706 1515 701 1505 697 C 1495 693 1480 688 1462 682 C 1447 676 1434 670 1422 663 C 1410 655 1398 644 1384 629 C 1370 613 1353 593 1334 568 C 1315 543 1291 511 1262 471 C 1232 431 1199 391 1164 352 C 1128 313 1091 273 1051 231 C 1057 223 1065 215 1073 207 C 1081 198 1092 190 1104 183 C 1116 175 1131 169 1149 165 C 1166 160 1187 158 1212 158 C 1236 158 1258 160 1279 164 C 1300 168 1320 174 1338 181 C 1356 187 1372 195 1388 203 C 1404 211 1419 220 1434 229 L 1470 170 C 1473 164 1476 158 1480 150 C 1483 142 1485 135 1485 127 C 1485 109 1473 92 1450 74 C 1426 56 1396 41 1359 27 C 1322 13 1281 1 1236 -7 C 1190 -15 1146 -20 1102 -20 C 1072 -20 1046 -17 1024 -13 C 1001 -9 980 -2 960 5 C 940 13 920 23 901 35 C 882 47 862 60 842 76 C 811 60 782 47 756 35 C 730 23 703 13 677 5 C 651 -2 623 -9 595 -13 C 567 -17 535 -20 500 -20 C 431 -20 370 -9 316 12 C 262 34 217 63 181 99 C 144 135 116 177 97 225 C 77 273 68 323 68 375 C 68 429 75 477 90 521 C 105 565 125 604 150 638 C 175 672 204 703 237 730 C 270 756 305 780 341 801 C 377 821 414 839 452 855 C 489 871 525 885 559 897 C 553 943 548 981 546 1011 C 544 1041 543 1068 543 1092 C 543 1158 553 1218 574 1270 C 594 1322 622 1367 657 1403 C 692 1439 733 1467 780 1487 C 826 1506 876 1516 928 1516 C 976 1516 1020 1508 1059 1493 C 1098 1477 1131 1456 1159 1430 C 1186 1403 1207 1372 1222 1336 C 1237 1300 1245 1263 1245 1223 C 1245 1179 1237 1139 1223 1104 C 1209 1069 1190 1038 1167 1010 C 1143 982 1117 958 1087 938 C 1057 918 1027 900 996 885 C 965 870 935 857 906 847 C 876 837 851 828 829 821 C 835 789 842 754 850 716 C 858 678 868 639 880 599 C 892 559 905 518 920 477 C 935 436 953 396 973 358 C 1001 386 1027 412 1050 436 C 1072 460 1092 482 1108 504 C 1124 525 1136 545 1144 565 C 1152 585 1157 605 1157 627 C 1157 645 1152 659 1142 667 C 1132 675 1120 682 1108 688 C 1094 694 1083 699 1075 703 C 1067 707 1062 710 1058 714 C 1054 717 1051 720 1050 724 C 1049 728 1049 733 1049 739 C 1049 745 1049 752 1051 759 C 1052 765 1053 770 1055 772 L 1069 821 L 1565 821 Z M 1051 1233 C 1051 1251 1048 1270 1043 1288 C 1037 1306 1029 1323 1019 1338 C 1009 1353 996 1365 981 1375 C 966 1384 949 1389 930 1389 C 906 1389 884 1382 865 1370 C 845 1358 829 1341 816 1321 C 802 1301 792 1277 785 1251 C 777 1224 774 1197 774 1169 C 774 1136 776 1101 782 1065 C 788 1029 793 993 799 958 C 883 981 946 1017 988 1066 C 1030 1114 1051 1170 1051 1233 Z M 760 190 C 744 216 729 246 713 278 C 697 310 681 347 665 390 C 649 433 634 483 620 540 C 605 596 591 663 578 739 C 558 733 536 723 510 709 C 484 694 459 673 435 646 C 411 619 391 585 375 544 C 358 502 350 452 350 393 C 350 345 357 304 372 270 C 387 236 406 207 429 184 C 452 161 477 144 505 133 C 533 122 559 117 584 117 C 604 117 623 119 640 124 C 657 128 673 134 687 141 C 701 148 715 156 727 165 C 739 173 750 182 760 190 Z" unicode="&#x26;" />
<glyph horiz-adv-x="475" d="M 584 1384 C 584 1374 582 1361 578 1344 C 574 1327 571 1314 567 1305 L 358 850 L 272 870 L 326 1350 C 332 1409 347 1451 371 1477 C 395 1503 427 1516 469 1516 C 508 1516 537 1504 556 1481 C 574 1457 584 1425 584 1384 Z" unicode="'" />
<glyph horiz-adv-x="674" d="M 866 1464 C 826 1422 788 1383 754 1346 C 720 1308 687 1268 657 1225 C 627 1181 598 1132 570 1078 C 542 1023 515 957 489 881 C 466 817 445 754 427 692 C 409 630 393 567 380 505 C 367 443 357 379 350 315 C 343 250 340 183 340 115 C 340 67 343 20 351 -26 C 358 -73 367 -118 377 -160 C 387 -202 398 -240 409 -275 C 419 -309 428 -338 436 -360 L 377 -391 C 351 -345 322 -293 291 -237 C 260 -181 231 -120 205 -54 C 179 11 157 80 139 154 C 121 228 113 305 113 387 C 113 409 114 437 117 469 C 119 501 124 536 131 575 C 137 614 146 656 158 700 C 169 744 184 790 202 837 C 220 884 241 932 266 980 C 290 1028 320 1075 354 1122 C 388 1168 425 1211 465 1251 C 505 1291 546 1327 588 1360 C 630 1392 671 1422 712 1448 C 753 1474 791 1496 827 1516 L 866 1464 Z" unicode="(" />
<glyph horiz-adv-x="674" d="M 602 737 C 602 703 598 658 592 604 C 586 549 574 489 557 423 C 539 357 515 287 483 215 C 451 143 410 72 360 2 C 326 -44 288 -87 248 -127 C 208 -166 167 -202 125 -235 C 83 -267 42 -297 2 -323 C -38 -349 -76 -371 -111 -391 L -150 -340 C -108 -298 -70 -259 -36 -222 C -2 -184 29 -144 59 -101 C 88 -57 116 -8 143 46 C 169 101 196 167 223 244 C 245 308 266 371 284 433 C 302 495 318 557 331 619 C 344 681 354 745 362 809 C 369 873 373 940 373 1010 C 373 1056 369 1103 363 1150 C 356 1197 348 1242 338 1284 C 328 1326 317 1364 307 1399 C 296 1433 287 1462 279 1485 L 336 1516 C 362 1470 391 1418 422 1362 C 453 1305 482 1244 509 1178 C 535 1112 557 1043 575 969 C 593 895 602 817 602 737 Z" unicode=")" />
<glyph horiz-adv-x="1069" d="M 1090 895 C 1090 886 1088 876 1085 866 C 1082 855 1077 845 1069 836 C 1061 827 1051 820 1039 814 C 1026 808 1010 805 991 805 C 986 805 980 805 972 806 C 964 806 955 809 945 813 C 935 817 924 823 914 831 C 903 839 893 850 883 864 C 867 887 854 906 844 920 C 834 934 825 946 817 956 C 808 966 799 974 789 982 C 779 990 766 999 750 1010 C 750 986 750 963 752 939 C 754 915 760 891 770 868 C 779 846 786 829 792 816 C 797 803 801 792 804 783 C 807 774 809 766 810 759 C 810 752 811 744 811 735 C 811 721 808 707 804 694 C 799 680 792 668 784 658 C 775 648 765 639 754 633 C 742 626 730 623 717 623 C 705 623 694 625 682 631 C 670 636 660 643 650 653 C 640 662 633 673 627 687 C 621 701 618 716 618 733 C 618 742 618 751 620 760 C 622 768 624 778 628 788 C 632 798 637 810 643 824 C 649 837 656 853 664 872 C 675 898 681 923 683 949 C 685 974 686 994 686 1010 C 676 1007 666 1004 658 1001 C 649 997 640 993 632 987 C 624 981 615 973 607 963 C 598 953 588 940 578 924 C 566 907 555 891 545 877 C 535 863 524 850 513 840 C 502 829 490 820 477 814 C 463 808 448 805 432 805 C 405 805 382 813 363 831 C 343 849 334 872 334 901 C 334 910 335 921 339 933 C 343 945 349 956 358 968 C 366 979 378 989 392 998 C 406 1006 424 1012 446 1016 C 474 1020 496 1024 514 1027 C 531 1029 546 1032 560 1035 C 574 1038 588 1042 602 1047 C 616 1052 633 1059 655 1069 C 633 1077 616 1084 602 1089 C 588 1094 574 1098 560 1102 C 546 1106 531 1109 513 1112 C 495 1114 472 1118 444 1122 C 425 1125 409 1131 395 1139 C 381 1147 369 1156 360 1167 C 351 1177 344 1189 340 1201 C 336 1213 334 1225 334 1237 C 334 1265 343 1288 363 1306 C 382 1324 405 1333 432 1333 C 448 1333 463 1330 477 1324 C 490 1318 502 1309 513 1299 C 524 1288 535 1275 545 1261 C 555 1246 566 1230 578 1214 C 588 1198 598 1185 607 1175 C 615 1165 624 1157 632 1151 C 640 1145 649 1140 658 1137 C 666 1133 676 1130 686 1128 C 686 1134 685 1142 685 1153 C 685 1163 684 1175 683 1188 C 681 1200 679 1213 676 1227 C 673 1241 669 1254 664 1266 C 654 1286 647 1303 641 1317 C 635 1331 630 1343 627 1353 C 623 1363 621 1372 620 1380 C 618 1388 618 1397 618 1407 C 618 1421 620 1435 626 1449 C 632 1462 639 1474 649 1484 C 658 1494 669 1501 681 1507 C 693 1513 705 1516 719 1516 C 731 1516 742 1513 753 1507 C 764 1501 774 1492 782 1482 C 790 1471 797 1459 803 1445 C 808 1431 811 1417 811 1401 C 811 1392 810 1384 810 1378 C 809 1371 807 1363 804 1354 C 801 1345 797 1334 792 1321 C 786 1308 779 1291 770 1270 C 760 1246 754 1223 752 1199 C 750 1175 750 1152 750 1128 C 766 1138 778 1147 788 1155 C 798 1163 807 1171 816 1181 C 824 1190 833 1202 843 1216 C 853 1230 866 1250 883 1274 C 894 1291 908 1305 926 1316 C 944 1327 965 1333 991 1333 C 1009 1333 1025 1330 1038 1324 C 1051 1318 1061 1310 1069 1301 C 1076 1292 1081 1282 1085 1272 C 1088 1262 1090 1252 1090 1243 C 1090 1227 1086 1212 1080 1198 C 1074 1184 1066 1171 1056 1161 C 1046 1150 1034 1141 1022 1135 C 1009 1128 996 1124 983 1124 C 959 1122 938 1121 920 1119 C 901 1117 883 1115 867 1112 C 851 1108 835 1103 821 1097 C 806 1090 791 1081 776 1069 C 791 1057 806 1047 821 1041 C 836 1034 852 1029 868 1026 C 884 1022 902 1020 920 1018 C 938 1016 959 1015 983 1014 C 995 1012 1008 1009 1021 1003 C 1033 997 1045 988 1055 978 C 1065 968 1074 955 1080 941 C 1086 927 1090 911 1090 895 Z" unicode="*" />
<glyph horiz-adv-x="1516" d="M 1362 512 L 901 512 L 901 51 L 727 51 L 727 512 L 266 512 L 266 686 L 727 686 L 727 1147 L 901 1147 L 901 686 L 1362 686 L 1362 512 Z" unicode="+" />
<glyph horiz-adv-x="537" d="M 371 102 C 371 54 362 9 345 -35 C 327 -79 303 -122 272 -164 C 252 -189 233 -211 214 -229 C 194 -247 175 -262 155 -276 C 135 -289 116 -300 97 -310 C 78 -320 59 -329 41 -338 L 0 -246 C 38 -227 70 -207 94 -185 C 118 -163 137 -142 151 -122 C 165 -102 175 -83 181 -65 C 187 -47 193 -32 197 -20 C 187 -16 174 -10 159 -4 C 144 2 130 12 116 24 C 102 36 90 52 80 71 C 70 89 66 113 66 141 C 66 165 70 187 79 207 C 88 227 100 244 114 258 C 128 272 144 284 162 292 C 180 300 197 305 215 305 C 237 305 258 299 278 289 C 297 279 313 265 327 247 C 341 229 351 207 359 183 C 367 158 371 131 371 102 Z" unicode="," />
<glyph horiz-adv-x="555" d="M 522 557 L 461 319 L 37 319 L 96 557 L 522 557 Z" unicode="-" />
<glyph horiz-adv-x="537" d="M 369 143 C 369 120 364 99 356 79 C 348 59 337 42 323 28 C 309 13 292 1 274 -7 C 255 -15 235 -20 215 -20 C 193 -20 173 -15 155 -7 C 136 1 119 13 105 28 C 91 42 79 59 71 79 C 63 99 59 120 59 143 C 59 165 63 185 71 205 C 79 225 91 242 105 257 C 119 271 136 283 155 292 C 173 300 193 305 215 305 C 235 305 255 300 274 292 C 292 283 309 271 323 257 C 337 242 348 225 356 205 C 364 185 369 165 369 143 Z" unicode="." />
<glyph horiz-adv-x="770" d="M 961 1495 L -57 -389 L -227 -389 L 791 1495 L 961 1495 Z" unicode="/" />
<glyph horiz-adv-x="1065" d="M 1083 893 C 1083 821 1076 748 1064 676 C 1051 603 1032 533 1008 465 C 983 397 952 334 916 275 C 880 216 838 165 792 121 C 745 77 693 43 636 18 C 579 -7 517 -20 451 -20 C 383 -20 327 -4 282 26 C 237 56 201 96 174 145 C 147 193 128 247 117 307 C 105 366 100 425 100 483 C 100 554 106 626 119 699 C 132 771 151 841 175 909 C 199 977 230 1040 266 1099 C 302 1158 343 1209 389 1253 C 435 1297 486 1331 542 1357 C 598 1382 658 1395 723 1395 C 787 1395 841 1382 887 1358 C 932 1334 969 1299 998 1255 C 1027 1211 1048 1158 1062 1096 C 1076 1034 1083 967 1083 893 Z M 844 1065 C 844 1092 841 1117 837 1141 C 833 1165 825 1185 815 1203 C 805 1221 791 1235 775 1245 C 759 1255 739 1260 715 1260 C 675 1260 641 1247 612 1223 C 582 1198 556 1166 534 1126 C 512 1086 492 1040 476 990 C 459 939 444 888 430 836 C 426 822 421 803 415 780 C 409 756 403 730 397 700 C 390 670 383 639 377 606 C 370 572 364 538 358 504 C 352 470 348 436 345 404 C 341 371 340 341 340 313 C 340 287 342 262 347 238 C 351 214 359 193 369 175 C 379 157 393 142 411 131 C 429 120 451 115 477 115 C 509 115 538 127 566 152 C 593 177 618 210 642 250 C 665 290 686 336 705 387 C 724 437 741 489 756 541 C 759 555 764 573 770 596 C 776 619 782 645 788 674 C 794 703 801 734 808 767 C 814 800 820 834 826 868 C 831 902 835 936 839 970 C 842 1003 844 1035 844 1065 Z" unicode="0" />
<glyph horiz-adv-x="676" d="M 705 1393 L 422 252 C 420 248 419 244 419 239 C 418 234 417 229 416 224 C 415 218 414 213 414 209 C 414 204 414 201 414 199 C 414 177 420 162 432 154 C 444 146 458 139 475 133 C 495 125 509 117 515 109 C 521 101 524 93 524 86 C 524 78 523 72 521 67 C 519 61 517 54 514 45 L 500 0 L -31 0 L -20 49 C -17 61 -15 72 -13 80 C -11 88 -8 95 -4 101 C 0 107 6 111 14 115 C 22 118 33 121 47 125 C 49 125 55 127 63 129 C 71 131 79 133 89 137 C 98 141 107 145 116 151 C 125 156 132 162 137 170 C 142 177 148 192 154 215 C 160 237 166 263 174 291 L 395 1169 L 211 1169 L 231 1257 C 233 1263 235 1269 238 1273 C 240 1277 245 1281 252 1285 C 258 1289 268 1293 281 1298 C 293 1303 310 1310 332 1319 L 516 1393 L 705 1393 Z" unicode="1" />
<glyph horiz-adv-x="977" d="M 1016 1040 C 1016 1011 1012 981 1006 950 C 1000 918 988 886 972 852 C 956 818 933 783 904 747 C 874 711 837 674 791 637 C 765 615 731 590 690 560 C 648 530 603 498 554 463 C 504 427 452 390 398 350 C 344 310 290 269 238 229 L 623 229 C 635 229 646 229 657 230 C 667 231 677 234 686 238 C 695 242 703 249 711 257 C 718 265 725 277 731 293 C 737 307 743 319 748 328 C 752 336 757 343 761 347 C 765 351 770 353 776 354 C 782 354 789 354 797 354 L 868 346 L 778 0 L -66 0 L -45 94 C -41 110 -38 122 -36 131 C -34 140 -30 148 -26 156 C -22 164 -15 172 -7 181 C 1 189 14 201 31 217 C 42 227 65 249 100 281 C 135 313 177 351 227 395 C 249 413 269 430 287 446 C 305 461 323 476 341 491 C 359 505 376 520 394 536 C 412 551 431 568 453 586 C 485 612 518 643 554 678 C 590 713 622 751 652 792 C 681 833 705 877 725 924 C 744 970 754 1019 754 1069 C 754 1093 749 1117 741 1140 C 733 1163 721 1183 705 1200 C 689 1217 669 1231 646 1241 C 623 1251 597 1257 569 1257 C 551 1257 535 1255 520 1253 C 505 1251 490 1247 476 1242 C 461 1236 446 1230 432 1222 C 417 1214 401 1204 385 1192 C 401 1175 416 1156 428 1136 C 440 1115 446 1091 446 1065 C 446 1045 442 1027 435 1009 C 428 991 418 976 406 963 C 394 949 379 939 363 931 C 346 923 328 920 309 920 C 288 920 269 924 253 932 C 236 940 222 950 210 964 C 198 978 189 993 183 1011 C 177 1028 174 1046 174 1065 C 174 1105 184 1145 204 1185 C 224 1224 254 1259 292 1290 C 330 1321 375 1346 429 1366 C 482 1385 542 1395 608 1395 C 664 1395 717 1387 767 1372 C 816 1356 859 1334 896 1304 C 933 1274 962 1236 984 1192 C 1005 1148 1016 1097 1016 1040 Z" unicode="2" />
<glyph horiz-adv-x="991" d="M 1010 1077 C 1010 1020 999 972 978 934 C 956 895 928 863 894 837 C 859 811 820 790 777 774 C 734 758 691 745 649 735 C 683 719 716 701 748 683 C 780 664 808 642 833 617 C 857 591 877 562 892 528 C 907 494 915 454 915 408 C 915 341 901 281 874 228 C 846 175 809 130 763 94 C 716 57 661 29 599 9 C 537 -10 471 -20 401 -20 C 345 -20 291 -14 241 -3 C 191 8 147 25 109 48 C 71 70 40 99 18 133 C -4 167 -16 206 -16 252 C -16 272 -12 290 -5 307 C 1 323 10 338 22 350 C 34 362 48 372 64 379 C 80 385 97 389 115 389 C 132 389 149 386 165 380 C 181 374 195 365 207 353 C 219 341 229 326 237 308 C 244 290 248 268 248 244 C 248 228 246 214 244 202 C 241 189 237 176 233 162 C 254 148 276 137 299 129 C 322 121 349 117 379 117 C 426 117 467 126 501 145 C 535 164 563 190 585 223 C 607 255 623 293 633 337 C 643 381 649 427 649 477 C 649 494 646 511 641 529 C 635 547 628 563 620 578 C 611 593 601 607 589 619 C 577 631 565 640 553 647 C 538 654 524 660 511 665 C 498 669 485 673 471 676 C 457 678 443 680 427 682 C 411 683 393 684 373 686 L 408 815 C 451 815 487 817 516 821 C 544 825 568 830 588 836 C 607 842 623 849 636 858 C 648 866 660 877 672 889 C 701 920 721 953 732 989 C 742 1024 748 1062 748 1102 C 748 1153 734 1191 706 1217 C 678 1242 643 1255 600 1255 C 575 1255 552 1251 531 1245 C 510 1239 490 1232 471 1225 C 476 1209 479 1198 481 1190 C 482 1182 483 1174 483 1165 C 483 1147 479 1131 473 1116 C 467 1101 458 1088 448 1077 C 437 1066 424 1057 409 1051 C 394 1045 378 1042 362 1042 C 342 1042 325 1045 310 1053 C 294 1060 281 1070 271 1082 C 260 1094 252 1107 246 1122 C 240 1137 238 1152 238 1167 C 238 1201 247 1233 267 1261 C 287 1289 313 1313 346 1333 C 379 1353 417 1368 460 1379 C 502 1389 546 1395 592 1395 C 652 1395 708 1387 760 1373 C 811 1358 855 1337 892 1310 C 929 1282 958 1249 979 1210 C 999 1170 1010 1126 1010 1077 Z" unicode="3" />
<glyph horiz-adv-x="1026" d="M 1036 1393 L 821 512 L 997 512 L 963 369 L 780 369 L 752 231 C 750 223 748 214 746 204 C 744 193 743 185 743 180 C 743 164 747 153 757 145 C 767 137 782 129 803 119 C 817 110 825 99 825 86 C 825 80 823 72 821 63 C 819 53 817 45 815 37 L 805 0 L 332 0 L 342 49 C 344 61 347 71 349 80 C 351 88 354 95 358 101 C 362 107 369 111 377 115 C 385 119 396 122 410 125 C 422 127 432 129 440 132 C 448 135 456 140 462 147 C 468 154 473 164 478 176 C 482 188 488 205 494 225 L 532 369 L 6 369 L 49 545 L 860 1393 L 1036 1393 Z M 715 1042 L 711 1047 L 207 512 L 573 512 L 715 1042 Z" unicode="4" />
<glyph horiz-adv-x="991" d="M 1096 1458 L 997 1141 L 453 1141 L 334 795 C 362 807 386 819 408 829 C 430 839 451 847 471 854 C 491 860 512 865 534 869 C 556 872 580 874 608 874 C 666 874 717 864 761 846 C 804 828 840 803 868 771 C 896 739 917 701 931 658 C 945 615 952 569 952 520 C 952 476 946 432 935 389 C 923 345 907 304 885 264 C 863 224 836 186 804 152 C 772 117 736 87 696 62 C 655 36 610 16 560 2 C 510 -12 457 -20 401 -20 C 346 -20 295 -13 247 -1 C 199 11 158 30 123 54 C 88 78 60 107 40 141 C 20 175 10 214 10 258 C 10 273 12 289 18 306 C 23 322 31 338 43 352 C 54 366 68 377 85 387 C 101 396 121 401 145 401 C 164 401 182 397 198 390 C 214 383 227 373 239 361 C 250 349 259 334 265 318 C 271 302 274 284 274 266 C 274 245 271 227 265 212 C 259 197 248 178 233 156 C 258 144 283 134 308 126 C 333 117 362 113 395 113 C 437 113 475 121 511 139 C 547 157 578 181 604 213 C 630 245 651 283 666 327 C 680 371 688 419 688 473 C 688 506 683 536 674 563 C 665 590 651 613 633 633 C 615 652 592 667 564 678 C 536 688 503 694 465 694 C 444 694 425 692 408 690 C 391 687 374 683 357 677 C 340 671 322 663 303 653 C 284 643 262 632 238 618 L 168 698 L 406 1374 L 895 1374 C 907 1374 918 1374 926 1376 C 934 1378 941 1381 947 1385 C 953 1389 958 1395 964 1403 C 969 1411 975 1421 983 1434 C 987 1442 991 1448 996 1452 C 1000 1456 1011 1458 1028 1458 L 1096 1458 Z" unicode="5" />
<glyph horiz-adv-x="1024" d="M 1085 1163 C 1085 1135 1080 1112 1072 1093 C 1064 1073 1053 1057 1041 1045 C 1028 1032 1014 1023 998 1017 C 982 1011 966 1008 952 1008 C 934 1008 916 1011 900 1018 C 884 1025 869 1035 857 1048 C 844 1060 834 1075 826 1093 C 818 1110 815 1129 815 1151 C 815 1168 817 1184 821 1198 C 825 1212 832 1227 842 1245 C 829 1254 816 1260 804 1263 C 791 1266 777 1268 762 1268 C 749 1268 733 1265 713 1260 C 693 1255 672 1245 649 1231 C 626 1216 603 1195 579 1169 C 555 1142 532 1107 512 1065 C 505 1051 498 1035 491 1019 C 483 1002 475 982 467 960 C 458 937 449 910 440 880 C 430 850 420 814 410 772 C 434 785 456 797 478 807 C 499 817 520 825 541 832 C 561 839 582 844 604 848 C 625 852 648 854 672 854 C 718 854 760 844 799 826 C 837 808 870 783 898 751 C 926 719 947 680 963 636 C 979 592 987 544 987 492 C 987 425 974 361 949 299 C 924 237 890 183 846 136 C 802 88 751 50 691 22 C 631 -5 567 -20 498 -20 C 438 -20 383 -7 335 16 C 286 40 244 74 210 118 C 175 161 148 212 130 271 C 111 330 102 395 102 465 C 102 533 109 604 124 677 C 138 749 160 820 188 889 C 216 958 251 1023 292 1084 C 332 1145 378 1199 430 1245 C 482 1291 539 1327 601 1354 C 663 1381 730 1395 801 1395 C 843 1395 881 1389 916 1377 C 950 1365 980 1349 1005 1329 C 1030 1309 1050 1284 1064 1256 C 1078 1228 1085 1197 1085 1163 Z M 723 516 C 723 540 719 563 713 585 C 707 607 697 626 683 643 C 669 660 652 674 632 684 C 611 694 587 700 559 700 C 539 700 521 697 503 692 C 485 687 468 681 452 673 C 436 665 421 657 408 649 C 394 640 383 632 373 625 C 369 613 366 601 363 588 C 359 574 356 561 353 547 C 349 533 346 519 343 505 C 340 491 338 479 336 467 C 332 445 330 422 328 396 C 326 370 326 346 326 324 C 326 292 330 263 338 238 C 346 212 357 191 371 173 C 385 155 402 142 422 133 C 442 123 463 119 487 119 C 525 119 559 130 589 154 C 618 178 643 208 663 246 C 683 284 698 326 708 374 C 718 421 723 468 723 516 Z" unicode="6" />
<glyph horiz-adv-x="862" d="M 1067 1374 L 1026 1233 C 974 1175 920 1113 866 1045 C 811 977 759 907 711 833 C 662 759 618 683 580 605 C 541 527 512 449 492 371 C 488 359 484 341 479 318 C 474 294 469 270 464 246 C 459 221 454 198 450 176 C 445 154 442 139 440 129 C 436 111 430 94 422 77 C 414 59 405 43 393 29 C 381 14 366 2 350 -6 C 333 -15 313 -20 291 -20 C 271 -20 252 -15 236 -7 C 220 1 206 13 194 28 C 182 42 173 59 167 79 C 161 99 158 120 158 143 C 158 174 162 206 171 240 C 180 273 192 306 206 340 C 220 373 236 405 254 437 C 271 469 288 498 305 526 C 321 552 337 578 353 603 C 369 627 387 653 406 679 C 425 705 446 734 470 764 C 494 794 521 827 553 865 C 584 903 619 945 659 992 C 699 1038 745 1091 797 1151 L 381 1151 C 355 1151 338 1148 329 1144 C 320 1139 313 1132 307 1124 C 293 1102 281 1085 271 1071 C 261 1057 251 1047 243 1040 C 234 1033 225 1029 217 1027 C 208 1025 198 1026 186 1030 L 139 1042 L 254 1397 C 267 1393 281 1390 295 1388 C 309 1385 324 1383 340 1381 C 356 1379 374 1377 394 1376 C 414 1374 436 1374 461 1374 L 1067 1374 Z" unicode="7" />
<glyph horiz-adv-x="1042" d="M 1038 1073 C 1038 1024 1030 982 1014 948 C 998 913 978 883 954 858 C 929 833 901 812 871 796 C 840 780 810 766 780 754 C 814 728 845 702 872 676 C 899 650 922 624 940 596 C 958 568 971 539 981 509 C 990 478 995 444 995 408 C 995 350 983 295 960 243 C 936 191 903 145 861 106 C 818 66 767 35 708 12 C 649 -11 584 -23 512 -23 C 446 -23 386 -13 332 6 C 278 25 233 51 195 85 C 157 118 127 157 107 202 C 86 246 76 294 76 344 C 76 386 83 426 98 464 C 113 502 135 536 164 568 C 192 600 227 628 269 652 C 311 676 358 695 412 711 C 390 731 369 753 350 775 C 331 797 315 821 301 845 C 287 869 276 895 268 923 C 260 950 256 980 256 1012 C 256 1066 266 1117 288 1164 C 309 1211 338 1252 375 1286 C 412 1320 456 1347 506 1367 C 556 1387 610 1397 668 1397 C 723 1397 773 1389 819 1373 C 864 1357 903 1335 936 1307 C 968 1279 993 1245 1011 1205 C 1029 1165 1038 1121 1038 1073 Z M 856 1081 C 856 1111 850 1137 840 1161 C 830 1185 816 1205 798 1222 C 780 1238 759 1251 736 1260 C 712 1269 688 1274 662 1274 C 635 1274 610 1269 587 1259 C 564 1249 544 1235 528 1219 C 511 1202 498 1183 489 1162 C 479 1140 475 1118 475 1096 C 475 1062 480 1033 490 1008 C 500 982 514 959 532 938 C 550 917 572 897 598 878 C 623 859 651 839 682 819 C 720 837 751 856 774 878 C 797 899 815 921 827 944 C 839 967 846 990 850 1014 C 854 1037 856 1059 856 1081 Z M 764 330 C 764 364 758 394 746 421 C 734 447 718 472 696 495 C 674 518 648 541 618 564 C 587 586 552 611 514 637 C 434 601 376 559 339 509 C 301 459 283 398 283 326 C 283 290 289 259 303 232 C 317 205 336 182 360 164 C 384 145 412 131 444 122 C 476 113 510 109 547 111 C 581 111 611 118 638 131 C 665 144 688 161 707 181 C 725 201 739 224 749 250 C 759 276 764 302 764 330 Z" unicode="8" />
<glyph horiz-adv-x="1024" d="M 1028 909 C 1028 840 1020 769 1006 697 C 991 625 970 554 942 485 C 914 416 879 351 839 290 C 798 228 752 175 700 129 C 648 83 591 47 529 20 C 467 -6 400 -20 330 -20 C 288 -20 249 -14 214 -3 C 179 8 149 24 124 45 C 99 65 80 90 66 118 C 52 146 45 177 45 211 C 45 237 49 260 58 280 C 66 300 77 316 91 329 C 104 342 119 352 135 358 C 151 364 166 367 180 367 C 198 367 215 363 231 357 C 247 350 262 340 274 328 C 286 316 296 301 304 284 C 311 266 315 247 315 227 C 315 209 312 193 308 177 C 304 161 298 144 291 127 C 302 119 314 113 327 110 C 339 107 353 106 369 106 C 381 106 397 108 417 113 C 437 117 458 127 481 142 C 504 156 527 177 551 204 C 575 230 597 265 618 309 C 624 323 631 339 639 355 C 647 371 655 391 663 413 C 671 435 680 462 690 493 C 700 523 710 560 721 604 C 697 590 674 577 653 567 C 631 557 610 548 590 541 C 569 534 548 529 527 525 C 505 521 483 520 459 520 C 409 520 365 529 326 547 C 287 565 254 591 227 623 C 199 655 178 694 164 738 C 150 782 143 831 143 883 C 143 949 156 1012 182 1074 C 208 1136 244 1190 290 1238 C 336 1285 389 1323 451 1352 C 512 1380 577 1395 647 1395 C 713 1395 770 1382 818 1358 C 866 1334 905 1300 936 1257 C 967 1213 990 1162 1005 1103 C 1020 1043 1028 979 1028 909 Z M 805 1061 C 805 1125 790 1173 760 1206 C 730 1238 691 1255 643 1255 C 605 1255 571 1243 542 1220 C 513 1197 489 1167 469 1130 C 449 1092 433 1050 423 1004 C 413 957 408 910 408 862 C 408 838 411 814 418 792 C 424 769 434 749 448 732 C 462 714 479 700 500 690 C 520 679 545 674 573 674 C 592 674 610 676 628 681 C 646 686 662 692 678 700 C 694 708 708 716 721 725 C 734 733 746 742 756 750 C 758 761 761 773 765 787 C 769 800 772 814 776 828 C 780 842 783 855 787 869 C 790 882 793 895 795 907 C 796 917 797 929 799 943 C 800 956 801 969 802 983 C 803 997 804 1010 804 1024 C 804 1037 805 1049 805 1061 Z" unicode="9" />
<glyph horiz-adv-x="584" d="M 518 719 C 518 696 513 675 505 655 C 497 635 486 618 472 603 C 458 588 441 576 423 568 C 404 559 385 555 365 555 C 343 555 323 559 304 568 C 285 576 269 588 255 603 C 241 618 229 635 221 655 C 213 675 209 696 209 719 C 209 741 213 761 221 781 C 229 801 241 818 255 833 C 269 847 285 859 304 868 C 323 876 343 881 365 881 C 385 881 404 876 423 868 C 441 859 458 847 472 833 C 486 818 497 801 505 781 C 513 761 518 741 518 719 Z M 393 143 C 393 120 389 99 381 79 C 373 59 362 42 348 28 C 334 13 317 1 299 -7 C 280 -15 260 -20 240 -20 C 218 -20 198 -15 179 -7 C 160 1 144 13 130 28 C 116 42 104 59 96 79 C 88 99 84 120 84 143 C 84 165 88 185 96 205 C 104 225 116 242 130 257 C 144 271 160 283 179 292 C 198 300 218 305 240 305 C 260 305 280 300 299 292 C 317 283 334 271 348 257 C 362 242 373 225 381 205 C 389 185 393 165 393 143 Z" unicode=":" />
<glyph horiz-adv-x="584" d="M 518 719 C 518 696 514 675 506 655 C 498 635 487 618 473 603 C 459 588 442 576 424 568 C 405 559 385 555 365 555 C 343 555 323 559 304 568 C 285 576 269 588 255 603 C 241 618 229 635 221 655 C 213 675 209 696 209 719 C 209 741 213 761 221 781 C 229 801 241 818 255 833 C 269 847 285 859 304 868 C 323 876 343 881 365 881 C 385 881 405 876 424 868 C 442 859 459 847 473 833 C 487 818 498 801 506 781 C 514 761 518 741 518 719 Z M 393 102 C 393 54 384 9 367 -35 C 349 -79 325 -122 293 -164 C 273 -189 254 -211 234 -229 C 214 -247 195 -262 175 -276 C 155 -289 136 -300 117 -310 C 98 -320 79 -329 61 -338 L 20 -246 C 58 -227 90 -207 114 -185 C 138 -163 157 -142 171 -122 C 185 -102 196 -83 202 -65 C 208 -47 213 -32 217 -20 C 207 -16 194 -10 179 -4 C 164 2 150 12 137 24 C 123 36 112 52 102 71 C 92 89 88 113 88 141 C 88 165 92 187 101 207 C 110 227 122 244 136 258 C 150 272 167 284 185 292 C 203 300 220 305 238 305 C 260 305 281 299 301 289 C 320 279 336 265 350 247 C 363 229 373 207 381 183 C 389 158 393 131 393 102 Z" unicode=";" />
<glyph horiz-adv-x="1516" d="M 1311 39 L 274 522 L 274 674 L 1311 1157 L 1311 963 L 489 598 L 1311 233 L 1311 39 Z" unicode="&#x3C;" />
<glyph horiz-adv-x="1516" d="M 1341 700 L 287 700 L 287 874 L 1341 874 L 1341 700 Z M 1341 324 L 287 324 L 287 498 L 1341 498 L 1341 324 Z" unicode="=" />
<glyph horiz-adv-x="1516" d="M 1360 522 L 324 39 L 324 233 L 1145 598 L 324 963 L 324 1157 L 1360 674 L 1360 522 Z" unicode="&#x3E;" />
<glyph horiz-adv-x="852" d="M 930 1198 C 930 1156 924 1120 913 1090 C 902 1059 886 1030 864 1003 C 842 976 816 949 784 923 C 752 896 716 866 676 834 C 637 804 605 774 580 745 C 554 716 533 688 516 660 C 499 632 485 604 474 578 C 463 551 453 525 444 500 L 334 510 C 337 549 343 585 352 617 C 361 649 373 679 387 707 C 401 735 418 763 438 791 C 457 819 479 848 504 879 C 528 909 551 937 573 965 C 595 993 614 1021 630 1049 C 646 1077 658 1107 668 1137 C 677 1167 682 1200 682 1235 C 682 1260 679 1282 673 1302 C 667 1322 659 1338 649 1351 C 639 1364 628 1374 616 1381 C 604 1387 591 1391 578 1391 C 564 1391 552 1388 542 1383 C 531 1378 522 1373 514 1368 C 519 1358 524 1347 528 1336 C 532 1325 535 1310 535 1292 C 535 1269 531 1249 524 1232 C 517 1215 508 1201 496 1189 C 484 1177 470 1169 454 1163 C 438 1157 422 1155 406 1155 C 385 1155 367 1158 351 1166 C 335 1174 321 1184 310 1196 C 299 1208 291 1221 285 1237 C 279 1252 276 1268 276 1284 C 276 1328 287 1366 310 1396 C 332 1426 360 1449 393 1467 C 426 1485 461 1497 498 1505 C 535 1512 568 1516 598 1516 C 648 1516 693 1507 734 1491 C 774 1474 809 1451 838 1422 C 867 1393 890 1359 906 1321 C 922 1282 930 1241 930 1198 Z M 475 143 C 475 120 471 99 463 79 C 455 59 444 42 430 28 C 416 13 399 1 380 -7 C 361 -15 341 -20 319 -20 C 297 -20 277 -15 259 -7 C 240 1 224 13 210 28 C 196 42 186 59 178 79 C 170 99 166 120 166 143 C 166 165 170 185 178 205 C 186 225 196 242 210 257 C 224 271 240 283 259 292 C 277 300 297 305 319 305 C 341 305 361 300 380 292 C 399 283 416 271 430 257 C 444 242 455 225 463 205 C 471 185 475 165 475 143 Z" unicode="?" />
<glyph horiz-adv-x="1860" d="M 1772 680 C 1772 620 1765 561 1753 504 C 1740 447 1722 393 1698 342 C 1674 290 1646 243 1612 200 C 1578 157 1539 120 1496 89 C 1452 58 1405 34 1353 16 C 1301 -1 1246 -10 1188 -10 C 1160 -10 1136 -5 1118 5 C 1100 15 1085 27 1073 41 C 1061 55 1052 71 1046 87 C 1039 103 1034 117 1030 129 C 1017 113 1002 97 984 81 C 966 65 947 50 926 36 C 904 22 881 11 855 3 C 829 -5 802 -10 774 -10 C 736 -10 702 -2 672 11 C 642 25 618 46 598 72 C 578 98 562 129 552 165 C 542 201 537 241 537 285 C 537 338 543 389 556 439 C 569 489 587 535 610 579 C 633 622 660 661 692 697 C 724 733 759 763 797 789 C 835 815 875 835 917 849 C 959 863 1003 870 1047 870 C 1090 870 1124 865 1148 855 C 1172 845 1192 833 1206 821 C 1219 811 1232 802 1244 795 C 1256 787 1268 784 1280 784 C 1286 784 1291 784 1296 786 C 1300 787 1306 790 1314 795 C 1321 800 1331 807 1343 817 C 1355 827 1373 840 1395 856 C 1398 859 1402 862 1407 866 C 1412 870 1419 872 1427 872 C 1436 872 1441 870 1443 866 C 1445 862 1446 858 1446 852 C 1446 850 1445 846 1443 840 C 1441 834 1440 827 1438 820 C 1436 812 1434 805 1432 798 C 1430 790 1428 784 1427 780 L 1288 260 C 1282 241 1278 223 1275 205 C 1271 187 1270 173 1270 164 C 1270 152 1274 143 1283 137 C 1291 130 1298 127 1303 127 C 1349 127 1394 141 1436 171 C 1478 201 1516 241 1548 292 C 1580 342 1605 401 1624 468 C 1643 535 1653 606 1653 680 C 1653 751 1640 818 1616 881 C 1591 943 1555 998 1508 1045 C 1461 1091 1403 1128 1335 1155 C 1266 1182 1188 1196 1100 1196 C 1023 1196 950 1185 881 1164 C 812 1142 748 1112 689 1074 C 629 1035 576 989 528 935 C 480 881 440 821 406 756 C 372 691 346 621 328 547 C 310 473 301 396 301 317 C 301 220 315 132 345 54 C 375 -24 417 -91 472 -147 C 527 -203 593 -246 671 -276 C 749 -306 836 -322 932 -322 C 1041 -322 1143 -306 1237 -276 C 1331 -245 1423 -200 1513 -141 L 1552 -233 C 1455 -302 1354 -354 1248 -390 C 1142 -426 1036 -444 928 -444 C 805 -444 694 -425 595 -387 C 495 -349 410 -295 340 -227 C 270 -159 216 -77 178 18 C 140 113 121 218 121 332 C 121 418 132 501 155 583 C 178 665 211 742 253 815 C 295 887 345 954 404 1015 C 462 1075 527 1128 599 1172 C 670 1216 746 1250 828 1274 C 910 1298 995 1311 1083 1311 C 1187 1311 1282 1295 1367 1265 C 1451 1234 1524 1191 1584 1135 C 1644 1079 1690 1013 1723 936 C 1755 858 1772 773 1772 680 Z M 1157 647 C 1157 657 1155 668 1152 680 C 1148 692 1143 703 1135 714 C 1127 724 1116 733 1103 741 C 1089 748 1073 752 1053 752 C 1026 752 1000 745 976 733 C 952 721 929 704 909 684 C 888 663 869 639 852 611 C 835 583 821 553 809 522 C 797 490 787 458 781 426 C 775 393 772 361 772 330 C 772 307 774 286 779 267 C 783 248 790 232 800 218 C 810 204 822 193 836 185 C 850 177 866 174 885 174 C 925 174 959 183 988 203 C 1017 222 1043 245 1067 272 L 1147 592 C 1148 597 1150 605 1153 617 C 1155 629 1157 639 1157 647 Z" unicode="@" />
<glyph horiz-adv-x="1352" d="M 1288 78 C 1288 72 1287 66 1285 58 C 1283 50 1282 42 1280 35 L 1272 0 L 772 0 L 784 59 C 786 69 788 77 791 82 C 794 86 797 90 801 94 C 807 98 815 103 824 109 C 832 115 841 120 849 126 C 857 132 863 137 869 141 C 875 145 879 148 881 150 C 885 153 888 157 890 163 C 892 168 893 174 893 180 C 893 185 892 194 890 208 C 888 221 886 231 885 238 L 864 369 L 340 369 L 250 217 C 246 213 243 206 239 197 C 235 187 233 179 233 172 C 233 157 237 146 247 139 C 256 131 264 126 272 123 C 286 117 297 110 304 104 C 311 98 315 90 315 80 C 315 76 314 71 314 67 C 313 62 312 58 311 55 L 299 0 L -129 0 L -115 63 C -112 74 -109 83 -105 90 C -101 97 -96 103 -91 107 C -86 111 -81 114 -75 116 C -69 118 -63 119 -57 121 C -44 124 -33 128 -25 132 C -17 136 -9 141 -1 149 C 6 156 14 166 23 179 C 31 192 43 209 57 231 L 700 1210 L 664 1411 L 836 1493 C 854 1502 867 1508 875 1511 C 883 1514 891 1516 899 1516 C 905 1516 911 1515 915 1513 C 919 1511 923 1508 927 1502 C 930 1496 933 1488 935 1478 C 937 1468 940 1454 944 1436 L 1153 291 C 1159 256 1164 229 1169 209 C 1174 189 1179 174 1185 164 C 1190 154 1196 147 1203 143 C 1210 139 1219 135 1229 133 C 1243 128 1255 124 1263 120 C 1271 116 1276 111 1280 107 C 1284 102 1286 97 1287 93 C 1287 88 1288 83 1288 78 Z M 836 512 L 750 1014 L 436 512 L 836 512 Z" unicode="A" />
<glyph horiz-adv-x="1253" d="M 1292 1159 C 1292 1093 1277 1037 1249 989 C 1221 941 1183 901 1137 869 C 1091 837 1038 813 979 796 C 920 779 860 769 799 766 L 799 762 C 811 760 829 756 853 752 C 877 748 904 740 933 730 C 962 720 992 706 1023 690 C 1053 673 1081 651 1106 625 C 1131 599 1152 567 1168 531 C 1184 494 1192 451 1192 401 C 1192 380 1189 356 1183 328 C 1177 300 1166 272 1151 242 C 1136 212 1116 183 1091 154 C 1066 125 1035 99 997 76 C 959 53 915 35 864 21 C 812 7 752 0 684 0 L -41 0 L -31 57 C -29 69 -27 78 -25 86 C -23 93 -21 99 -17 105 C -13 110 -7 115 1 119 C 9 123 20 127 35 133 C 45 136 53 140 61 144 C 69 148 76 154 82 162 C 88 170 93 180 98 192 C 103 204 108 220 113 240 L 354 1214 C 358 1228 361 1245 365 1264 C 369 1283 371 1300 371 1315 C 371 1326 367 1335 361 1341 C 354 1347 342 1354 324 1364 C 311 1370 302 1374 296 1378 C 290 1382 287 1388 287 1397 C 287 1402 287 1407 289 1413 C 290 1418 291 1423 291 1427 L 309 1495 L 844 1495 C 918 1495 984 1486 1040 1468 C 1096 1450 1142 1425 1180 1395 C 1217 1364 1245 1328 1264 1288 C 1282 1247 1292 1204 1292 1159 Z M 1014 1143 C 1014 1177 1009 1207 999 1231 C 989 1255 976 1274 959 1290 C 942 1305 922 1317 900 1325 C 877 1333 853 1340 828 1344 C 802 1348 776 1350 749 1351 C 722 1351 696 1352 670 1352 L 545 842 C 581 842 614 843 645 844 C 675 844 704 846 730 850 C 756 853 780 858 802 865 C 824 871 846 881 866 893 C 878 901 893 912 911 926 C 928 940 944 957 959 977 C 974 997 987 1021 998 1049 C 1008 1077 1014 1108 1014 1143 Z M 913 469 C 913 507 906 540 893 566 C 879 592 862 614 840 631 C 818 647 792 660 764 670 C 736 679 707 686 677 690 C 647 694 617 696 588 697 C 558 697 532 698 508 698 L 373 152 L 571 152 C 605 152 635 154 662 159 C 688 164 712 171 732 179 C 752 187 770 196 785 206 C 800 216 813 227 823 238 C 852 268 874 303 890 345 C 905 386 913 427 913 469 Z" unicode="B" />
<glyph horiz-adv-x="1231" d="M 1397 1425 L 1296 1036 L 1206 1036 C 1197 1036 1190 1038 1186 1042 C 1181 1046 1177 1052 1175 1058 C 1173 1064 1171 1070 1171 1077 C 1171 1084 1171 1090 1171 1096 C 1171 1119 1170 1141 1168 1163 C 1166 1185 1161 1206 1153 1227 C 1141 1258 1125 1283 1106 1302 C 1087 1321 1067 1336 1046 1346 C 1024 1356 1003 1363 981 1367 C 959 1370 940 1372 924 1372 C 874 1372 829 1363 787 1347 C 745 1331 707 1308 673 1280 C 639 1252 608 1218 581 1180 C 553 1142 529 1101 508 1057 C 486 1013 468 967 453 920 C 438 873 426 827 416 781 C 406 735 399 690 395 647 C 391 604 389 565 389 530 C 389 486 394 442 405 400 C 416 357 433 319 457 286 C 480 252 510 225 547 205 C 583 184 628 174 680 174 C 718 174 755 178 790 187 C 825 195 859 209 892 227 C 925 245 958 267 991 295 C 1023 322 1057 354 1092 391 L 1147 324 C 1150 320 1154 315 1159 308 C 1164 300 1167 293 1167 285 C 1167 273 1160 258 1148 239 C 1136 219 1118 198 1096 176 C 1073 154 1046 131 1014 108 C 982 84 946 63 907 44 C 868 25 826 10 781 -2 C 736 -14 689 -20 641 -20 C 573 -20 506 -6 442 20 C 378 46 321 85 271 136 C 221 186 181 248 151 322 C 121 396 106 479 106 573 C 106 642 113 713 128 787 C 142 861 164 933 194 1003 C 224 1073 261 1139 305 1201 C 349 1263 401 1317 461 1364 C 521 1410 588 1447 663 1475 C 737 1502 819 1516 909 1516 C 949 1516 984 1513 1015 1507 C 1045 1501 1073 1494 1099 1484 C 1124 1474 1148 1461 1170 1447 C 1192 1433 1215 1417 1239 1399 L 1294 1425 L 1397 1425 Z" unicode="C" />
<glyph horiz-adv-x="1386" d="M 1417 870 C 1417 788 1408 711 1392 641 C 1376 571 1353 506 1325 448 C 1296 389 1263 336 1225 289 C 1187 241 1146 200 1104 164 C 1077 142 1046 121 1012 101 C 977 81 939 63 899 48 C 859 33 816 21 770 13 C 724 4 676 0 627 0 L -41 0 L -31 57 C -29 69 -27 78 -25 86 C -23 93 -21 99 -17 105 C -13 110 -7 115 1 119 C 9 123 20 127 35 133 C 45 136 53 140 61 144 C 69 148 76 154 82 162 C 88 170 93 180 98 192 C 103 204 108 220 113 240 L 354 1214 C 358 1228 361 1245 365 1264 C 369 1283 371 1300 371 1315 C 371 1326 367 1335 361 1341 C 354 1347 342 1354 324 1364 C 311 1370 302 1374 296 1378 C 290 1382 287 1388 287 1397 C 287 1402 287 1407 289 1413 C 290 1418 291 1423 291 1427 L 309 1495 L 791 1495 C 895 1495 986 1480 1064 1450 C 1142 1420 1207 1378 1259 1324 C 1311 1269 1351 1203 1377 1126 C 1403 1049 1417 964 1417 870 Z M 1139 981 C 1139 1005 1136 1032 1132 1062 C 1127 1092 1119 1121 1107 1151 C 1095 1180 1080 1208 1061 1234 C 1041 1260 1017 1282 987 1298 C 947 1319 903 1333 853 1341 C 803 1348 742 1352 672 1352 L 373 145 L 498 145 C 532 145 569 147 610 151 C 650 155 691 164 733 178 C 775 192 815 212 854 238 C 892 264 926 300 956 344 C 982 382 1007 425 1029 472 C 1051 519 1071 569 1087 623 C 1103 677 1116 733 1125 793 C 1134 853 1139 915 1139 981 Z" unicode="D" />
<glyph horiz-adv-x="1188" d="M 1294 1516 L 1200 1161 L 1130 1161 C 1122 1161 1116 1161 1111 1162 C 1106 1163 1102 1166 1098 1171 C 1094 1176 1089 1184 1085 1194 C 1081 1204 1075 1217 1069 1235 C 1061 1253 1052 1268 1042 1281 C 1031 1294 1015 1305 994 1313 C 973 1321 945 1327 910 1331 C 874 1335 828 1337 772 1337 L 666 1337 L 545 840 L 680 840 C 704 840 725 841 741 845 C 757 849 772 854 784 861 C 796 868 806 876 816 886 C 826 896 836 907 846 920 C 850 925 853 928 857 930 C 860 931 864 932 870 932 L 952 932 L 856 535 L 782 535 C 774 535 768 535 764 536 C 760 537 756 540 754 544 C 751 548 749 553 747 561 C 745 568 743 578 741 590 C 735 626 720 652 696 670 C 672 687 635 696 586 696 L 508 696 L 371 143 L 647 143 C 699 143 744 150 783 164 C 822 178 855 195 883 215 C 911 234 933 253 950 273 C 966 293 978 308 985 319 C 996 336 1004 347 1010 351 C 1015 355 1022 358 1030 358 L 1130 358 L 1030 -20 C 1020 -19 1005 -17 986 -15 C 966 -13 944 -10 920 -8 C 896 -6 870 -4 843 -2 C 816 0 790 0 766 0 L -41 0 L -31 57 C -29 69 -27 78 -25 86 C -23 93 -21 99 -17 105 C -13 110 -7 115 1 119 C 9 123 20 127 35 133 C 45 136 53 140 61 144 C 69 148 76 154 82 162 C 88 170 93 180 98 192 C 103 204 108 220 113 240 L 354 1214 C 358 1228 361 1245 365 1264 C 369 1283 371 1300 371 1315 C 371 1326 367 1335 361 1341 C 354 1347 342 1354 324 1364 C 311 1370 302 1374 296 1378 C 290 1382 287 1388 287 1397 C 287 1402 287 1407 289 1413 C 290 1418 291 1423 291 1427 L 309 1495 L 1014 1495 C 1048 1495 1087 1496 1131 1500 C 1175 1504 1229 1509 1294 1516 Z" unicode="E" />
<glyph horiz-adv-x="1145" d="M 1380 1516 L 1292 1155 L 1204 1155 C 1192 1155 1183 1160 1178 1170 C 1172 1180 1166 1197 1159 1221 C 1147 1259 1125 1288 1093 1308 C 1061 1327 1016 1337 958 1337 L 668 1337 L 547 842 L 721 842 C 747 842 768 843 784 845 C 800 847 813 852 825 858 C 837 864 848 872 859 883 C 869 893 883 907 899 924 C 906 932 912 936 917 938 C 921 939 926 940 932 940 L 1016 940 L 913 549 L 829 549 C 815 549 806 555 802 569 C 798 583 794 598 791 616 C 789 626 786 637 782 647 C 778 657 771 665 760 673 C 748 680 731 686 709 691 C 686 695 655 698 616 698 L 510 698 L 408 281 C 403 265 399 248 395 230 C 391 211 389 194 389 180 C 389 168 392 160 399 154 C 406 148 419 140 438 131 C 449 125 458 120 465 116 C 471 112 475 106 475 98 C 475 92 474 87 473 82 C 471 76 470 72 469 68 L 451 0 L -41 0 L -31 57 C -29 69 -27 78 -25 86 C -23 93 -21 99 -17 105 C -13 110 -7 115 1 119 C 9 123 20 127 35 133 C 45 136 53 140 61 144 C 69 148 76 154 82 162 C 88 170 93 180 98 192 C 103 204 108 220 113 240 L 354 1214 C 358 1228 361 1245 365 1264 C 369 1283 371 1300 371 1315 C 371 1326 367 1335 361 1341 C 354 1347 342 1354 324 1364 C 311 1370 302 1374 296 1378 C 290 1382 287 1388 287 1397 C 287 1402 287 1407 289 1413 C 290 1418 291 1423 291 1427 L 309 1495 L 1096 1495 C 1110 1495 1125 1495 1142 1496 C 1159 1496 1179 1497 1202 1499 C 1224 1501 1250 1503 1279 1506 C 1308 1508 1342 1512 1380 1516 Z" unicode="F" />
<glyph horiz-adv-x="1380" d="M 1413 1419 L 1309 1024 L 1255 1024 C 1241 1024 1229 1024 1221 1026 C 1212 1027 1205 1030 1200 1036 C 1195 1041 1191 1049 1189 1059 C 1186 1069 1184 1084 1182 1102 C 1180 1118 1178 1136 1176 1154 C 1173 1172 1169 1189 1164 1207 C 1159 1224 1152 1240 1144 1256 C 1135 1272 1124 1286 1110 1298 C 1082 1324 1049 1342 1013 1354 C 976 1366 941 1372 907 1372 C 841 1372 782 1359 731 1333 C 679 1307 634 1272 596 1230 C 557 1187 524 1138 498 1084 C 471 1029 449 973 433 915 C 417 857 405 800 398 744 C 390 688 387 637 387 592 C 387 532 394 474 408 418 C 422 362 444 312 474 268 C 504 224 541 189 586 163 C 630 136 683 123 743 123 C 783 123 817 127 843 137 C 869 146 891 158 907 172 C 923 186 936 203 945 221 C 953 239 961 256 967 274 C 971 286 975 299 979 313 C 983 327 986 342 990 357 C 993 371 996 386 998 401 C 1000 415 1001 429 1001 442 C 1001 453 998 463 994 472 C 989 481 976 491 956 502 C 942 509 931 515 924 520 C 916 525 913 531 913 539 C 913 543 913 548 914 554 C 915 560 916 565 918 569 L 934 631 L 1337 631 C 1314 575 1296 529 1283 493 C 1270 457 1260 428 1254 404 C 1247 380 1243 360 1241 344 C 1239 328 1239 313 1239 297 C 1239 269 1242 250 1249 238 C 1255 226 1264 215 1276 205 C 1282 199 1286 195 1290 191 C 1294 187 1297 184 1299 181 C 1301 177 1303 173 1304 169 C 1304 164 1305 158 1305 152 C 1305 138 1302 126 1298 116 C 1293 106 1287 97 1279 90 C 1271 82 1261 76 1251 71 C 1241 65 1230 61 1219 57 C 1200 49 1176 41 1146 33 C 1116 24 1082 16 1044 8 C 1006 0 964 -6 919 -12 C 874 -17 828 -20 780 -20 C 724 -20 669 -14 615 -3 C 560 8 508 25 458 49 C 408 73 361 103 318 139 C 275 175 238 217 207 267 C 175 317 151 373 133 437 C 115 501 106 572 106 651 C 106 723 114 795 132 866 C 149 937 174 1005 207 1069 C 239 1133 279 1192 326 1247 C 373 1301 426 1348 486 1388 C 545 1428 610 1459 680 1482 C 750 1504 825 1516 905 1516 C 955 1516 1000 1511 1038 1503 C 1076 1495 1110 1484 1139 1472 C 1167 1459 1192 1445 1213 1431 C 1233 1416 1252 1403 1268 1391 L 1317 1419 L 1413 1419 Z" unicode="G" />
<glyph horiz-adv-x="1485" d="M 1657 1495 L 1649 1438 C 1647 1426 1645 1416 1643 1409 C 1641 1401 1638 1395 1634 1390 C 1630 1384 1623 1379 1615 1375 C 1607 1371 1595 1366 1581 1362 C 1571 1358 1562 1354 1554 1350 C 1546 1345 1540 1339 1534 1331 C 1528 1323 1522 1313 1517 1301 C 1512 1289 1507 1273 1503 1255 L 1264 281 C 1259 265 1255 248 1251 230 C 1247 211 1245 194 1245 180 C 1245 168 1248 160 1255 154 C 1262 148 1275 140 1294 131 C 1305 125 1314 120 1321 116 C 1327 112 1331 106 1331 98 C 1331 92 1330 87 1329 82 C 1327 76 1326 72 1325 68 L 1307 0 L 815 0 L 825 57 C 827 69 829 78 831 86 C 833 93 836 99 840 105 C 844 110 850 115 858 119 C 866 123 877 127 891 133 C 901 136 909 140 917 144 C 925 148 932 154 938 162 C 944 170 949 180 954 192 C 959 204 964 220 969 240 L 1081 692 L 508 692 L 408 281 C 403 265 399 248 395 230 C 391 211 389 194 389 180 C 389 168 392 160 399 154 C 406 148 419 140 438 131 C 449 125 458 120 465 116 C 471 112 475 106 475 98 C 475 92 474 87 473 82 C 471 76 470 72 469 68 L 451 0 L -41 0 L -31 57 C -29 69 -27 78 -25 86 C -23 93 -21 99 -17 105 C -13 110 -7 115 1 119 C 9 123 20 127 35 133 C 45 136 53 140 61 144 C 69 148 76 154 82 162 C 88 170 93 180 98 192 C 103 204 108 220 113 240 L 354 1214 C 358 1228 361 1245 365 1264 C 369 1283 371 1300 371 1315 C 371 1326 367 1335 361 1341 C 354 1347 342 1354 324 1364 C 311 1370 302 1374 296 1378 C 290 1382 287 1388 287 1397 C 287 1402 287 1407 289 1413 C 290 1418 291 1423 291 1427 L 309 1495 L 801 1495 L 793 1438 C 791 1426 789 1416 787 1409 C 785 1401 782 1395 778 1390 C 774 1384 767 1379 759 1375 C 751 1371 739 1366 725 1362 C 715 1358 706 1354 698 1350 C 690 1345 684 1339 678 1331 C 672 1323 666 1313 661 1301 C 656 1289 651 1273 647 1255 L 545 836 L 1116 836 L 1210 1214 C 1214 1228 1218 1245 1222 1264 C 1225 1283 1227 1300 1227 1315 C 1227 1326 1223 1335 1217 1341 C 1211 1347 1198 1354 1180 1364 C 1167 1370 1158 1374 1152 1378 C 1146 1382 1143 1388 1143 1397 C 1143 1402 1143 1407 1145 1413 C 1146 1418 1147 1423 1147 1427 L 1165 1495 L 1657 1495 Z" unicode="H" />
<glyph horiz-adv-x="643" d="M 811 1495 L 801 1438 C 799 1426 797 1416 795 1409 C 793 1401 791 1395 787 1390 C 783 1384 777 1379 769 1375 C 761 1371 749 1366 735 1362 C 725 1358 716 1354 708 1350 C 700 1345 692 1339 686 1331 C 680 1323 674 1313 669 1301 C 664 1289 659 1273 655 1255 L 414 281 C 410 265 406 248 402 230 C 398 211 397 194 397 180 C 397 168 400 160 408 154 C 415 148 428 140 446 131 C 458 125 468 120 475 116 C 481 112 485 106 485 98 C 485 92 484 87 483 82 C 481 76 480 72 479 68 L 461 0 L -35 0 L -25 57 C -23 69 -21 78 -19 86 C -17 93 -15 99 -11 105 C -7 110 -1 115 7 119 C 15 123 26 127 41 133 C 51 136 60 140 68 144 C 76 148 83 154 89 162 C 95 170 101 180 106 192 C 111 204 116 220 121 240 L 362 1214 C 365 1228 369 1245 373 1264 C 377 1283 379 1300 379 1315 C 379 1326 375 1335 368 1341 C 361 1347 348 1354 330 1364 C 317 1370 307 1374 301 1378 C 294 1382 291 1388 291 1397 C 291 1402 291 1407 293 1413 C 294 1418 295 1423 297 1427 L 315 1495 L 811 1495 Z" unicode="I" />
<glyph horiz-adv-x="897" d="M 1079 1495 L 1069 1438 C 1067 1426 1065 1416 1063 1408 C 1061 1400 1057 1394 1053 1389 C 1049 1383 1043 1379 1035 1375 C 1027 1371 1015 1366 1001 1362 C 991 1358 982 1354 974 1350 C 966 1345 959 1339 953 1331 C 947 1323 941 1313 937 1301 C 932 1289 928 1273 924 1255 L 750 475 C 712 307 650 183 564 102 C 477 20 361 -20 217 -20 C 160 -20 113 -11 75 6 C 37 23 7 44 -14 69 C -36 93 -52 119 -62 147 C -71 174 -76 198 -76 219 C -76 243 -72 265 -65 285 C -58 305 -48 322 -36 337 C -23 351 -8 363 8 371 C 24 379 43 383 63 383 C 85 383 104 378 121 370 C 137 362 151 351 163 338 C 174 325 182 311 188 296 C 194 280 197 266 197 252 C 197 242 196 231 194 219 C 192 207 190 197 188 187 C 185 177 182 168 180 160 C 178 152 176 147 176 145 C 185 137 195 131 205 127 C 215 123 227 121 242 121 C 276 121 305 132 329 154 C 353 176 373 203 390 235 C 406 267 420 302 430 338 C 440 374 449 406 455 434 L 631 1214 C 635 1230 638 1248 642 1266 C 645 1284 647 1300 647 1315 C 647 1326 644 1335 639 1341 C 633 1347 621 1354 602 1364 C 590 1370 580 1374 573 1378 C 566 1382 563 1388 563 1397 C 563 1402 563 1407 565 1413 C 566 1418 567 1423 569 1427 L 588 1495 L 1079 1495 Z" unicode="J" />
<glyph horiz-adv-x="1368" d="M 1516 1495 L 1507 1452 C 1503 1434 1500 1421 1498 1411 C 1495 1401 1491 1393 1486 1387 C 1480 1381 1473 1375 1464 1371 C 1454 1367 1441 1362 1425 1356 C 1413 1351 1397 1343 1379 1331 C 1361 1319 1340 1304 1317 1287 C 1294 1270 1269 1251 1241 1230 C 1213 1209 1184 1187 1153 1165 L 702 829 L 1085 297 C 1105 269 1122 246 1136 229 C 1149 211 1162 197 1175 185 C 1187 173 1201 163 1217 154 C 1232 145 1252 135 1278 123 C 1287 119 1295 115 1301 110 C 1307 105 1311 96 1311 84 C 1311 78 1310 72 1309 66 C 1308 60 1306 53 1303 43 L 1290 0 L 752 0 L 762 49 C 764 61 766 70 768 78 C 770 86 772 92 776 97 C 780 102 785 106 792 110 C 799 113 809 117 821 121 C 824 122 829 124 836 128 C 842 131 846 138 846 150 C 846 153 845 157 843 163 C 841 169 835 178 827 190 L 494 659 L 406 281 C 401 265 397 248 393 230 C 389 211 387 194 387 180 C 387 168 390 160 397 154 C 404 148 417 140 436 131 C 447 125 456 120 463 116 C 469 112 473 106 473 98 C 473 92 472 87 471 82 C 469 76 468 72 467 68 L 449 0 L -41 0 L -31 57 C -29 69 -27 78 -25 86 C -23 93 -21 99 -17 105 C -13 110 -7 115 1 119 C 9 123 20 127 35 133 C 45 136 53 140 61 144 C 69 148 76 154 82 162 C 88 170 93 180 98 192 C 103 204 108 220 113 240 L 354 1214 C 358 1228 361 1245 365 1264 C 369 1283 371 1300 371 1315 C 371 1326 367 1335 361 1341 C 354 1347 342 1354 324 1364 C 311 1370 302 1374 296 1378 C 290 1382 287 1388 287 1397 C 287 1402 287 1407 289 1413 C 290 1418 291 1423 291 1427 L 309 1495 L 799 1495 L 791 1438 C 789 1426 787 1416 785 1409 C 783 1401 780 1395 776 1390 C 772 1384 765 1379 757 1375 C 749 1371 737 1366 723 1362 C 713 1358 704 1354 696 1350 C 688 1345 682 1339 676 1331 C 670 1323 664 1313 659 1301 C 654 1289 649 1273 645 1255 L 557 903 L 1049 1278 C 1053 1280 1058 1284 1065 1290 C 1071 1296 1078 1302 1084 1308 C 1090 1314 1096 1320 1101 1326 C 1105 1332 1108 1337 1108 1341 C 1108 1345 1105 1349 1099 1352 C 1093 1355 1083 1360 1069 1368 C 1059 1373 1051 1377 1047 1381 C 1042 1384 1040 1390 1040 1399 C 1040 1404 1040 1409 1042 1414 C 1044 1419 1045 1424 1047 1430 L 1065 1495 L 1516 1495 Z" unicode="K" />
<glyph horiz-adv-x="1194" d="M 1169 356 L 1075 -20 C 1031 -14 983 -10 933 -6 C 883 -2 834 0 786 0 L -41 0 L -31 57 C -29 69 -27 78 -25 86 C -23 93 -21 99 -17 105 C -13 110 -7 115 1 119 C 9 123 20 127 35 133 C 45 136 53 140 61 144 C 69 148 76 154 82 162 C 88 170 93 180 98 192 C 103 204 108 220 113 240 L 354 1214 C 358 1228 361 1245 365 1264 C 369 1283 371 1300 371 1315 C 371 1326 367 1335 361 1341 C 354 1347 342 1354 324 1364 C 311 1370 302 1374 296 1378 C 290 1382 287 1388 287 1397 C 287 1402 287 1407 289 1413 C 290 1418 291 1423 291 1427 L 309 1495 L 801 1495 L 793 1438 C 791 1426 789 1416 787 1409 C 785 1401 782 1395 778 1390 C 774 1384 767 1379 759 1375 C 751 1371 739 1366 725 1362 C 715 1358 706 1354 698 1350 C 690 1345 684 1339 678 1331 C 672 1323 666 1313 661 1301 C 656 1289 651 1273 647 1255 L 373 143 L 621 143 C 685 143 738 146 780 153 C 822 160 859 171 889 187 C 919 202 946 222 969 246 C 992 270 1016 300 1042 334 C 1046 338 1049 342 1052 345 C 1054 348 1057 350 1060 352 C 1062 354 1065 355 1069 355 C 1072 355 1077 356 1083 356 L 1169 356 Z" unicode="L" />
<glyph horiz-adv-x="1702" d="M 1876 1495 L 1866 1438 C 1864 1426 1862 1416 1860 1409 C 1858 1401 1856 1395 1852 1390 C 1848 1384 1842 1379 1834 1375 C 1826 1371 1814 1366 1800 1362 C 1790 1358 1781 1354 1773 1350 C 1765 1345 1759 1339 1753 1331 C 1747 1323 1741 1313 1736 1301 C 1731 1289 1726 1273 1722 1255 L 1481 281 C 1477 265 1472 248 1468 230 C 1464 211 1462 194 1462 180 C 1462 168 1465 160 1473 154 C 1480 148 1493 140 1511 131 C 1523 125 1533 120 1539 116 C 1545 112 1548 106 1548 98 C 1548 92 1547 87 1546 82 C 1544 76 1543 72 1542 68 L 1526 0 L 1042 0 L 1053 57 C 1055 69 1056 78 1058 86 C 1060 93 1063 99 1067 105 C 1071 110 1077 115 1085 119 C 1093 123 1104 127 1118 133 C 1128 136 1136 140 1144 144 C 1152 148 1159 154 1165 162 C 1171 170 1176 180 1181 192 C 1185 204 1190 220 1196 240 L 1432 1167 L 1423 1171 L 745 0 L 639 0 L 520 1184 L 512 1184 L 291 281 C 287 265 282 248 278 230 C 274 211 272 194 272 180 C 272 168 275 160 283 154 C 290 148 303 140 322 131 C 333 125 342 120 348 116 C 354 112 358 106 358 98 C 358 92 357 87 356 82 C 354 76 353 72 352 68 L 334 0 L -41 0 L -31 57 C -29 69 -27 78 -25 86 C -23 93 -21 99 -17 105 C -13 110 -7 115 1 119 C 9 123 20 127 35 133 C 45 136 53 140 61 144 C 69 148 76 154 82 162 C 88 170 93 180 98 192 C 103 204 108 220 113 240 L 354 1214 C 358 1228 361 1245 365 1264 C 369 1283 371 1300 371 1315 C 371 1326 367 1335 361 1341 C 354 1347 342 1354 324 1364 C 311 1370 302 1374 296 1378 C 290 1382 287 1388 287 1397 C 287 1402 287 1407 289 1413 C 290 1418 291 1423 291 1427 L 309 1495 L 743 1495 L 842 471 L 846 471 L 1458 1495 L 1876 1495 Z" unicode="M" />
<glyph horiz-adv-x="1376" d="M 1556 1495 L 1546 1438 C 1544 1426 1542 1416 1540 1409 C 1538 1401 1536 1395 1532 1390 C 1528 1384 1522 1379 1514 1375 C 1506 1371 1495 1366 1481 1362 C 1471 1358 1462 1354 1454 1350 C 1446 1346 1439 1340 1433 1332 C 1427 1324 1421 1314 1417 1302 C 1412 1290 1407 1274 1403 1255 L 1092 0 L 958 0 L 508 1155 L 291 281 C 287 265 282 248 278 230 C 274 211 272 194 272 180 C 272 168 275 160 283 154 C 290 148 303 140 322 131 C 333 125 342 120 348 116 C 354 112 358 106 358 98 C 358 92 357 87 356 82 C 354 76 353 72 352 68 L 334 0 L -41 0 L -31 57 C -29 69 -27 78 -25 86 C -23 93 -21 99 -17 105 C -13 110 -7 115 1 119 C 9 123 20 127 35 133 C 45 136 53 140 61 144 C 69 148 76 154 82 162 C 88 170 93 180 98 192 C 103 204 108 220 113 240 L 354 1214 C 358 1228 361 1245 365 1264 C 369 1283 371 1300 371 1315 C 371 1326 367 1335 361 1341 C 354 1347 342 1354 324 1364 C 311 1370 302 1374 296 1378 C 290 1382 287 1388 287 1397 C 287 1402 287 1407 289 1413 C 290 1418 291 1423 291 1427 L 309 1495 L 672 1495 L 1053 516 L 1225 1214 C 1229 1229 1233 1246 1237 1265 C 1241 1283 1243 1300 1243 1315 C 1243 1326 1239 1335 1232 1341 C 1225 1347 1212 1354 1194 1364 C 1182 1370 1173 1374 1167 1378 C 1160 1382 1157 1388 1157 1397 C 1157 1402 1157 1407 1159 1413 C 1160 1418 1161 1423 1163 1427 L 1182 1495 L 1556 1495 Z" unicode="N" />
<glyph horiz-adv-x="1405" d="M 1430 862 C 1430 780 1421 701 1403 626 C 1385 550 1359 480 1326 415 C 1293 349 1253 290 1207 237 C 1161 183 1109 137 1052 99 C 995 61 933 31 867 11 C 801 -9 731 -20 659 -20 C 619 -20 578 -14 536 -4 C 493 6 451 23 411 46 C 370 68 331 97 295 132 C 258 166 226 208 199 257 C 171 305 149 361 133 423 C 117 485 109 555 109 633 C 109 713 117 791 135 866 C 153 940 178 1010 211 1076 C 244 1142 284 1202 330 1256 C 376 1310 427 1356 484 1394 C 541 1432 603 1462 669 1484 C 735 1505 804 1516 877 1516 C 917 1516 959 1510 1003 1499 C 1046 1488 1088 1471 1129 1448 C 1170 1424 1209 1395 1245 1360 C 1281 1324 1313 1282 1341 1234 C 1368 1186 1390 1131 1406 1069 C 1422 1007 1430 938 1430 862 Z M 1153 991 C 1153 1045 1146 1095 1134 1142 C 1122 1188 1103 1229 1079 1263 C 1055 1297 1025 1323 989 1343 C 953 1362 912 1372 866 1372 C 804 1372 750 1356 702 1326 C 654 1296 613 1256 577 1206 C 541 1156 511 1100 487 1038 C 463 976 443 912 428 848 C 412 784 401 721 395 661 C 388 601 385 548 385 504 C 385 448 391 397 403 351 C 415 304 434 264 458 230 C 482 196 513 170 549 151 C 585 132 626 123 674 123 C 720 123 762 131 800 149 C 838 167 872 191 904 221 C 935 251 963 287 987 327 C 1011 367 1033 411 1051 457 C 1069 503 1085 550 1098 599 C 1111 648 1122 696 1130 743 C 1138 790 1143 835 1147 877 C 1151 919 1153 957 1153 991 Z" unicode="O" />
<glyph horiz-adv-x="1169" d="M 1296 1102 C 1296 1020 1280 952 1249 896 C 1217 840 1175 794 1121 760 C 1067 726 1005 701 933 686 C 861 671 785 664 705 664 L 502 664 L 408 281 C 403 265 399 248 395 230 C 391 211 389 194 389 180 C 389 168 392 160 399 154 C 406 148 419 140 438 131 C 449 125 458 120 465 116 C 471 112 475 106 475 98 C 475 92 474 87 473 82 C 471 76 470 72 469 68 L 451 0 L -41 0 L -31 57 C -29 69 -27 78 -25 86 C -23 93 -21 99 -17 105 C -13 110 -7 115 1 119 C 9 123 20 127 35 133 C 45 136 53 140 61 144 C 69 148 76 154 82 162 C 88 170 93 180 98 192 C 103 204 108 220 113 240 L 354 1214 C 358 1228 361 1245 365 1264 C 369 1283 371 1300 371 1315 C 371 1326 367 1335 361 1341 C 354 1347 342 1354 324 1364 C 311 1370 302 1374 296 1378 C 290 1382 287 1388 287 1397 C 287 1402 287 1407 289 1413 C 290 1418 291 1423 291 1427 L 309 1495 L 799 1495 C 863 1495 925 1488 985 1474 C 1045 1460 1098 1437 1144 1406 C 1190 1374 1226 1334 1254 1284 C 1282 1234 1296 1174 1296 1102 Z M 1020 1120 C 1020 1160 1011 1196 995 1229 C 978 1262 954 1288 922 1307 C 906 1317 890 1324 874 1330 C 858 1335 841 1339 822 1342 C 803 1345 782 1347 758 1348 C 734 1349 705 1350 672 1352 L 539 807 L 647 807 C 690 807 733 811 776 819 C 819 827 861 844 901 870 C 917 880 933 895 948 913 C 962 931 975 951 986 973 C 996 995 1005 1018 1011 1044 C 1017 1069 1020 1094 1020 1120 Z" unicode="P" />
<glyph horiz-adv-x="1405" d="M 1430 862 C 1430 788 1422 716 1408 648 C 1393 579 1372 514 1345 454 C 1317 394 1284 338 1246 286 C 1208 234 1165 189 1118 149 C 1071 109 1020 76 966 49 C 911 22 854 3 795 -8 L 795 -12 C 807 -18 823 -25 842 -34 C 860 -43 879 -52 897 -62 C 915 -71 931 -80 946 -88 C 960 -96 970 -101 975 -104 C 994 -118 1011 -131 1026 -141 C 1041 -151 1055 -160 1068 -167 C 1081 -174 1094 -179 1107 -183 C 1119 -186 1133 -188 1147 -188 C 1161 -188 1177 -186 1194 -183 C 1210 -180 1231 -176 1257 -170 L 1272 -223 C 1273 -227 1274 -231 1275 -236 C 1275 -240 1276 -246 1276 -252 C 1276 -260 1274 -266 1272 -272 C 1269 -278 1264 -283 1257 -289 C 1250 -293 1239 -299 1225 -307 C 1211 -314 1194 -321 1174 -329 C 1154 -336 1131 -342 1106 -348 C 1080 -353 1054 -356 1026 -356 C 972 -356 923 -346 877 -326 C 831 -306 790 -278 756 -242 C 713 -199 677 -163 647 -133 C 617 -103 590 -77 567 -56 C 544 -35 524 -18 506 -6 C 488 6 471 17 453 25 C 414 41 374 64 334 96 C 293 128 256 168 223 218 C 189 267 162 326 141 395 C 119 463 109 543 109 633 C 109 713 117 791 135 866 C 153 940 178 1010 211 1076 C 244 1142 284 1202 330 1256 C 376 1310 427 1356 484 1394 C 541 1432 603 1462 669 1484 C 735 1505 804 1516 877 1516 C 917 1516 959 1510 1003 1499 C 1046 1488 1088 1471 1129 1448 C 1170 1424 1209 1395 1245 1360 C 1281 1324 1313 1282 1341 1234 C 1368 1186 1390 1131 1406 1069 C 1422 1007 1430 938 1430 862 Z M 1153 991 C 1153 1045 1146 1095 1134 1142 C 1122 1188 1103 1229 1079 1263 C 1055 1297 1025 1323 989 1343 C 953 1362 912 1372 866 1372 C 804 1372 750 1356 702 1326 C 654 1296 613 1256 577 1206 C 541 1156 511 1100 487 1038 C 463 976 443 912 428 848 C 412 784 401 721 395 661 C 388 601 385 548 385 504 C 385 448 391 397 403 350 C 415 302 434 261 458 227 C 482 193 513 166 549 146 C 585 126 626 117 674 117 C 720 117 762 125 800 143 C 838 161 872 185 904 216 C 935 246 963 282 987 323 C 1011 364 1033 408 1051 454 C 1069 500 1085 548 1098 597 C 1111 646 1122 694 1130 742 C 1138 789 1143 834 1147 877 C 1151 919 1153 957 1153 991 Z" unicode="Q" />
<glyph horiz-adv-x="1331" d="M 1305 1106 C 1305 1057 1297 1014 1283 976 C 1268 938 1248 904 1223 876 C 1198 848 1169 824 1135 804 C 1101 784 1064 768 1026 756 C 988 744 948 735 907 729 C 865 723 825 719 786 719 L 786 707 C 798 706 811 705 824 703 C 836 701 849 695 863 687 C 877 678 891 665 905 647 C 919 629 933 605 948 573 L 1092 266 C 1104 238 1115 216 1124 199 C 1132 182 1141 168 1150 158 C 1158 147 1168 139 1178 133 C 1188 127 1202 123 1219 119 C 1237 115 1247 110 1250 105 C 1253 99 1255 94 1255 88 C 1255 86 1254 82 1252 74 C 1250 66 1248 57 1245 47 L 1231 0 L 907 0 L 643 625 C 633 646 621 665 607 682 C 592 698 574 707 553 707 L 512 707 L 408 281 C 403 265 399 248 395 230 C 391 211 389 194 389 180 C 389 168 392 160 399 154 C 406 148 419 140 438 131 C 449 125 458 120 465 116 C 471 112 475 106 475 98 C 475 92 474 87 473 82 C 471 76 470 72 469 68 L 451 0 L -41 0 L -31 57 C -29 69 -27 78 -25 86 C -23 93 -21 99 -17 105 C -13 110 -7 115 1 119 C 9 123 20 127 35 133 C 45 136 53 140 61 144 C 69 148 76 154 82 162 C 88 170 93 180 98 192 C 103 204 108 220 113 240 L 354 1214 C 358 1228 361 1245 365 1264 C 369 1283 371 1300 371 1315 C 371 1326 367 1335 361 1341 C 354 1347 342 1354 324 1364 C 311 1370 302 1374 296 1378 C 290 1382 287 1388 287 1397 C 287 1402 287 1407 289 1413 C 290 1418 291 1423 291 1427 L 309 1495 L 741 1495 C 786 1495 831 1493 877 1489 C 923 1485 966 1479 1008 1469 C 1050 1459 1089 1445 1125 1427 C 1161 1409 1193 1385 1219 1357 C 1245 1328 1266 1293 1282 1252 C 1297 1211 1305 1162 1305 1106 Z M 1030 1139 C 1030 1175 1024 1206 1013 1231 C 1001 1255 987 1275 969 1291 C 951 1307 931 1319 910 1327 C 888 1335 867 1341 847 1345 C 827 1349 809 1351 793 1351 C 777 1351 765 1352 758 1352 L 672 1352 L 549 850 L 655 850 C 677 850 698 850 717 850 C 735 850 753 852 771 854 C 789 856 807 860 825 865 C 843 870 863 877 885 887 C 907 897 927 910 945 928 C 963 945 978 965 991 988 C 1003 1010 1013 1035 1020 1061 C 1026 1087 1030 1113 1030 1139 Z" unicode="R" />
<glyph horiz-adv-x="1010" d="M 1135 1462 L 1044 1114 L 956 1114 C 950 1114 946 1114 943 1116 C 939 1118 936 1121 934 1126 C 932 1130 930 1137 928 1145 C 926 1153 924 1164 922 1178 C 915 1210 904 1238 889 1262 C 874 1286 856 1306 836 1322 C 815 1338 792 1351 766 1359 C 740 1367 714 1372 686 1372 C 653 1372 622 1367 594 1357 C 565 1347 540 1333 519 1316 C 498 1298 481 1278 469 1254 C 457 1230 451 1204 451 1176 C 451 1150 454 1126 462 1105 C 469 1083 479 1064 491 1047 C 503 1030 517 1015 533 1002 C 548 988 564 977 580 967 C 596 957 613 945 631 933 C 649 921 666 909 684 897 C 702 885 718 874 734 864 C 750 853 763 844 774 838 C 804 816 833 793 859 767 C 885 741 907 714 926 686 C 944 657 959 627 969 595 C 979 563 985 530 985 496 C 985 424 972 356 947 294 C 922 231 886 176 840 130 C 793 84 736 47 670 20 C 603 -6 528 -20 446 -20 C 420 -20 398 -18 378 -16 C 358 -13 339 -9 321 -5 C 303 0 286 5 270 11 C 253 17 235 24 217 31 C 199 37 183 43 171 47 C 159 51 148 54 140 56 C 132 58 125 60 119 61 C 113 62 108 63 104 63 C 96 63 90 62 84 60 C 78 58 71 54 65 49 C 59 44 52 38 44 30 C 36 22 28 12 18 0 L -96 0 L 6 401 L 92 401 C 106 401 116 399 122 396 C 128 392 131 386 133 377 C 134 351 138 329 144 309 C 150 289 162 269 180 248 C 196 228 214 211 235 196 C 255 180 277 167 301 157 C 325 146 350 138 376 132 C 402 126 428 123 455 123 C 496 123 534 128 570 140 C 605 151 636 167 662 188 C 688 209 708 234 723 264 C 737 293 745 326 745 362 C 745 391 740 417 732 441 C 723 464 711 485 697 504 C 683 523 667 540 649 555 C 631 570 614 584 596 596 C 582 605 568 613 556 621 C 543 628 530 635 518 643 C 506 650 493 657 481 665 C 468 673 454 682 440 692 C 407 714 377 737 350 762 C 322 787 299 815 279 846 C 259 876 244 911 233 949 C 222 987 217 1031 217 1081 C 217 1141 228 1198 251 1251 C 274 1304 306 1350 348 1390 C 390 1429 440 1460 498 1482 C 556 1504 621 1516 692 1516 C 726 1516 757 1513 785 1507 C 813 1501 838 1495 862 1487 C 886 1479 908 1470 928 1460 C 948 1450 967 1442 987 1434 L 1036 1462 L 1135 1462 Z" unicode="S" />
<glyph horiz-adv-x="1223" d="M 1458 1516 L 1370 1165 L 1313 1165 C 1301 1165 1291 1165 1284 1165 C 1276 1165 1271 1167 1267 1169 C 1263 1171 1259 1174 1257 1178 C 1255 1182 1253 1188 1251 1196 C 1243 1228 1233 1254 1221 1273 C 1209 1291 1194 1305 1176 1315 C 1158 1325 1138 1331 1114 1333 C 1090 1335 1063 1337 1032 1337 L 954 1337 L 694 281 C 690 265 686 248 683 230 C 679 211 678 194 678 180 C 678 168 681 160 687 154 C 693 148 706 140 725 131 C 737 125 747 120 753 116 C 759 112 762 106 762 98 C 762 92 761 87 760 82 C 758 76 758 72 758 68 L 739 0 L 248 0 L 256 57 C 257 69 258 78 260 86 C 262 93 265 99 269 105 C 273 110 280 115 288 119 C 296 123 308 127 324 133 C 334 136 342 140 350 144 C 358 148 365 154 371 162 C 377 170 382 180 387 192 C 391 204 396 220 401 240 L 674 1337 L 584 1337 C 542 1337 508 1334 482 1330 C 456 1325 433 1317 415 1306 C 396 1295 379 1280 364 1262 C 349 1243 331 1220 311 1192 C 303 1181 295 1173 287 1169 C 279 1165 268 1163 254 1163 L 174 1163 L 262 1516 C 304 1512 340 1508 368 1505 C 396 1502 423 1500 449 1499 C 474 1497 501 1496 530 1496 C 558 1495 595 1495 639 1495 L 1077 1495 C 1087 1495 1102 1495 1122 1496 C 1142 1496 1164 1497 1188 1498 C 1212 1499 1238 1500 1265 1502 C 1292 1503 1318 1504 1343 1506 C 1367 1508 1390 1509 1410 1511 C 1430 1513 1446 1514 1458 1516 Z" unicode="T" />
<glyph horiz-adv-x="1432" d="M 1622 1495 L 1614 1438 C 1612 1426 1611 1416 1609 1409 C 1607 1401 1604 1395 1600 1390 C 1596 1384 1589 1379 1581 1375 C 1572 1371 1560 1366 1546 1362 C 1536 1358 1527 1354 1519 1350 C 1511 1346 1505 1340 1499 1332 C 1493 1324 1487 1314 1482 1302 C 1477 1290 1472 1274 1468 1255 L 1276 471 C 1252 373 1220 292 1180 228 C 1140 164 1094 114 1043 77 C 992 39 937 13 877 -1 C 817 -15 755 -23 692 -23 C 612 -23 539 -14 475 3 C 411 21 356 48 310 85 C 264 122 229 169 205 226 C 180 282 168 350 168 428 C 168 446 168 465 170 483 C 171 501 173 518 175 534 C 177 550 179 564 181 576 C 183 588 186 598 188 606 L 340 1214 C 344 1228 348 1245 352 1264 C 356 1283 358 1300 358 1315 C 358 1326 354 1335 347 1341 C 340 1347 327 1354 309 1364 C 297 1370 288 1374 282 1378 C 275 1382 272 1388 272 1397 C 272 1402 272 1407 274 1413 C 276 1418 277 1423 279 1427 L 295 1495 L 788 1495 L 778 1438 C 776 1426 774 1416 772 1409 C 770 1401 768 1395 764 1390 C 760 1384 754 1379 746 1375 C 738 1371 727 1366 713 1362 C 703 1358 694 1354 686 1350 C 678 1345 671 1339 665 1331 C 659 1323 653 1313 649 1301 C 644 1289 639 1273 635 1255 L 459 549 C 457 542 456 533 454 523 C 452 512 450 500 449 488 C 447 475 446 462 445 448 C 444 434 444 421 444 408 C 444 378 449 349 460 319 C 470 289 487 262 510 238 C 533 214 563 194 599 179 C 635 163 679 156 731 156 C 787 156 836 165 879 183 C 921 201 958 225 988 255 C 1018 285 1043 319 1063 358 C 1083 397 1098 437 1108 479 L 1288 1214 C 1292 1229 1295 1246 1299 1265 C 1303 1283 1305 1300 1305 1315 C 1305 1326 1301 1335 1295 1341 C 1288 1347 1275 1354 1257 1364 C 1245 1370 1236 1374 1230 1378 C 1224 1382 1221 1388 1221 1397 C 1221 1402 1221 1407 1223 1413 C 1224 1418 1225 1423 1225 1427 L 1243 1495 L 1622 1495 Z" unicode="U" />
<glyph horiz-adv-x="1346" d="M 1604 1495 L 1597 1452 C 1594 1434 1591 1419 1588 1409 C 1584 1399 1579 1391 1573 1385 C 1567 1379 1558 1374 1547 1370 C 1536 1366 1522 1361 1505 1356 C 1495 1352 1486 1347 1478 1339 C 1469 1331 1461 1323 1453 1313 C 1445 1303 1438 1294 1432 1284 C 1425 1274 1419 1265 1415 1257 L 635 -6 L 524 -6 L 334 1249 C 330 1268 327 1284 325 1296 C 323 1308 320 1317 316 1325 C 312 1332 307 1338 301 1342 C 295 1346 286 1351 276 1356 C 262 1362 252 1366 244 1370 C 236 1374 231 1377 227 1380 C 223 1382 221 1385 220 1387 C 219 1389 219 1393 219 1397 L 236 1495 L 727 1495 L 719 1452 C 716 1438 714 1427 712 1418 C 710 1408 706 1400 702 1393 C 697 1386 691 1380 683 1375 C 675 1369 663 1364 649 1360 C 637 1356 628 1352 622 1350 C 616 1347 611 1344 608 1342 C 605 1340 603 1337 603 1334 C 602 1331 602 1327 602 1323 C 602 1319 602 1315 602 1311 C 602 1306 603 1301 603 1296 C 603 1291 603 1286 603 1282 C 603 1278 604 1275 604 1274 L 733 420 L 1178 1161 C 1182 1169 1189 1181 1198 1196 C 1207 1211 1216 1226 1225 1242 C 1233 1258 1241 1272 1247 1286 C 1253 1299 1257 1309 1257 1315 C 1257 1323 1254 1330 1250 1338 C 1245 1345 1232 1354 1212 1366 C 1198 1373 1190 1378 1186 1381 C 1182 1384 1180 1390 1180 1399 C 1180 1405 1180 1411 1182 1417 C 1183 1423 1184 1427 1186 1430 L 1202 1495 L 1604 1495 Z" unicode="V" />
<glyph horiz-adv-x="1946" d="M 2204 1495 L 2179 1399 C 2151 1384 2129 1372 2113 1362 C 2096 1352 2082 1343 2070 1333 C 2058 1323 2047 1311 2037 1297 C 2027 1283 2015 1265 2003 1243 L 1282 -6 L 1159 -6 L 1081 895 L 569 -6 L 446 -6 L 336 1225 C 333 1253 331 1275 329 1292 C 327 1308 325 1321 321 1331 C 317 1340 311 1347 305 1351 C 298 1355 288 1358 276 1362 C 253 1366 237 1371 229 1375 C 221 1379 217 1387 217 1399 C 217 1401 217 1405 219 1413 C 220 1421 221 1426 221 1430 L 236 1495 L 729 1495 L 719 1452 C 715 1438 712 1426 710 1416 C 708 1406 705 1398 701 1392 C 697 1386 691 1380 683 1376 C 675 1371 665 1366 651 1362 C 641 1358 633 1355 627 1353 C 621 1351 616 1349 613 1347 C 610 1345 608 1344 607 1342 C 606 1340 606 1339 606 1337 C 606 1329 606 1321 606 1312 C 606 1302 607 1293 607 1284 C 607 1274 608 1266 608 1258 C 608 1250 609 1243 610 1239 L 666 453 L 1055 1145 C 1051 1193 1047 1230 1044 1257 C 1040 1283 1036 1304 1032 1318 C 1028 1332 1022 1341 1016 1347 C 1009 1352 1001 1357 991 1362 C 972 1370 960 1376 954 1380 C 948 1384 946 1390 946 1399 C 946 1405 946 1411 948 1417 C 949 1423 950 1427 952 1430 L 969 1495 L 1438 1495 L 1413 1399 C 1391 1389 1373 1380 1359 1374 C 1345 1367 1334 1359 1326 1351 C 1318 1343 1314 1333 1312 1321 C 1310 1309 1309 1293 1311 1274 L 1376 457 L 1819 1239 C 1828 1254 1835 1267 1840 1279 C 1844 1291 1847 1303 1847 1317 C 1847 1324 1845 1331 1841 1338 C 1837 1345 1824 1354 1804 1366 C 1790 1373 1780 1378 1776 1381 C 1771 1384 1769 1390 1769 1399 C 1769 1403 1769 1408 1771 1415 C 1773 1422 1774 1427 1776 1430 L 1790 1495 L 2204 1495 Z" unicode="W" />
<glyph horiz-adv-x="1290" d="M 1518 1495 L 1493 1399 C 1466 1387 1444 1378 1428 1371 C 1411 1363 1396 1356 1384 1349 C 1372 1341 1360 1333 1350 1323 C 1339 1313 1327 1301 1313 1286 L 858 797 L 1073 248 C 1080 229 1091 208 1105 186 C 1119 163 1138 145 1163 133 C 1173 127 1181 123 1188 120 C 1194 116 1199 113 1203 110 C 1206 107 1208 104 1210 100 C 1211 96 1212 92 1212 86 C 1212 80 1211 73 1209 66 C 1207 59 1206 52 1204 45 L 1190 0 L 690 0 L 700 49 C 702 61 705 71 707 79 C 709 87 711 94 715 100 C 719 105 724 109 730 113 C 736 116 746 119 758 123 C 764 124 769 126 775 128 C 780 130 785 133 789 138 C 793 142 797 148 799 156 C 801 164 803 174 803 188 C 803 201 801 214 798 227 C 794 240 790 252 786 262 L 645 616 L 301 246 C 295 239 288 230 279 219 C 270 208 266 193 266 174 C 266 159 269 148 275 142 C 281 136 293 128 311 119 C 321 113 327 108 329 102 C 331 96 332 91 332 88 C 332 75 330 61 326 45 L 315 0 L -125 0 L -117 49 C -115 63 -112 76 -108 88 C -104 99 -99 106 -92 109 C -78 113 -66 118 -55 123 C -44 127 -33 133 -22 139 C -11 145 0 153 11 163 C 22 172 35 184 49 199 L 586 764 L 379 1257 C 371 1275 364 1291 359 1303 C 353 1315 348 1326 342 1334 C 336 1342 329 1348 321 1353 C 313 1358 303 1362 291 1366 C 283 1368 276 1371 268 1376 C 260 1380 256 1388 256 1399 C 256 1404 256 1410 258 1416 C 259 1422 260 1427 262 1430 L 281 1495 L 776 1495 L 768 1452 C 764 1437 761 1425 759 1415 C 757 1405 753 1396 747 1389 C 741 1382 734 1376 724 1371 C 714 1365 700 1360 682 1356 C 676 1354 670 1351 664 1347 C 658 1343 655 1333 655 1319 C 655 1313 656 1306 658 1298 C 660 1290 662 1285 664 1282 L 788 944 L 1069 1257 C 1071 1259 1075 1262 1079 1267 C 1083 1271 1088 1277 1092 1283 C 1096 1289 1100 1296 1103 1304 C 1106 1312 1108 1320 1108 1329 C 1108 1336 1105 1343 1101 1349 C 1097 1355 1088 1360 1075 1364 C 1067 1366 1059 1369 1051 1375 C 1042 1380 1038 1388 1038 1399 C 1038 1404 1038 1410 1040 1416 C 1041 1422 1042 1427 1044 1430 L 1063 1495 L 1518 1495 Z" unicode="X" />
<glyph horiz-adv-x="1272" d="M 1534 1495 L 1507 1399 C 1477 1379 1453 1364 1435 1353 C 1417 1341 1402 1331 1391 1323 C 1379 1315 1370 1307 1363 1301 C 1356 1294 1349 1286 1341 1276 L 811 664 L 719 281 C 715 265 710 248 706 230 C 702 211 700 194 700 180 C 700 168 703 160 711 154 C 718 148 731 140 750 131 C 761 125 770 120 776 116 C 782 112 786 106 786 98 C 786 92 785 87 784 82 C 782 76 781 72 780 68 L 762 0 L 270 0 L 281 57 C 283 69 284 78 286 86 C 288 93 291 99 295 105 C 299 110 305 115 313 119 C 321 123 332 127 346 133 C 356 136 365 140 373 144 C 381 148 388 154 394 162 C 400 170 405 180 410 192 C 414 204 419 220 424 240 L 539 698 L 356 1235 C 348 1259 341 1278 335 1292 C 329 1306 323 1318 316 1326 C 309 1334 301 1341 292 1346 C 282 1350 270 1355 254 1360 C 250 1360 246 1362 241 1364 C 236 1366 231 1368 227 1371 C 222 1374 218 1378 215 1383 C 212 1387 211 1393 211 1399 C 211 1404 211 1410 212 1416 C 212 1422 213 1427 215 1430 L 231 1495 L 731 1495 L 723 1452 C 719 1430 714 1413 708 1399 C 702 1385 689 1374 668 1366 C 656 1362 646 1358 639 1356 C 632 1353 627 1350 623 1347 C 619 1344 617 1340 616 1336 C 614 1332 614 1326 614 1319 C 614 1313 614 1309 615 1305 C 615 1301 616 1298 618 1294 C 619 1290 621 1285 623 1280 C 625 1275 627 1268 631 1260 L 770 850 L 1114 1264 C 1124 1276 1133 1287 1139 1299 C 1145 1310 1149 1321 1149 1331 C 1149 1340 1144 1347 1135 1353 C 1126 1358 1119 1362 1114 1364 C 1106 1367 1098 1371 1090 1376 C 1082 1380 1079 1388 1079 1399 C 1079 1401 1079 1405 1081 1413 C 1082 1421 1083 1426 1083 1430 L 1098 1495 L 1534 1495 Z" unicode="Y" />
<glyph horiz-adv-x="1169" d="M 1360 1495 L 1331 1364 L 285 150 L 639 150 C 697 150 746 155 786 167 C 826 178 860 193 888 211 C 916 229 939 249 958 272 C 976 295 994 318 1010 342 C 1018 353 1026 360 1034 362 C 1042 364 1053 365 1067 365 L 1141 365 L 1044 0 L -96 0 C -91 27 -86 50 -81 70 C -76 90 -70 107 -64 122 C -58 137 -51 150 -43 162 C -35 173 -27 184 -18 195 L 967 1337 L 618 1337 C 578 1337 542 1333 511 1325 C 480 1317 453 1307 431 1295 C 408 1283 389 1268 375 1252 C 361 1236 350 1219 342 1202 C 334 1183 327 1172 321 1168 C 315 1164 309 1163 301 1163 L 213 1163 L 303 1495 L 1360 1495 Z" unicode="Z" />
<glyph horiz-adv-x="674" d="M 862 1495 L 838 1395 L 633 1395 L 213 -285 L 424 -285 L 401 -385 L -66 -385 L 403 1495 L 862 1495 Z" unicode="[" />
<glyph horiz-adv-x="770" d="M 784 -389 L 629 -389 L 162 1495 L 319 1495 L 784 -389 Z" unicode="\" />
<glyph horiz-adv-x="674" d="M 776 1495 L 307 -385 L -152 -385 L -129 -285 L 78 -285 L 496 1395 L 287 1395 L 309 1495 L 776 1495 Z" unicode="]" />
<glyph horiz-adv-x="1516" d="M 1389 643 L 1194 643 L 829 1321 L 465 643 L 270 643 L 754 1495 L 905 1495 L 1389 643 Z" unicode="^" />
<glyph horiz-adv-x="973" d="M 864 -102 L 836 -211 L -150 -211 L -121 -102 L 864 -102 Z" unicode="_" />
<glyph horiz-adv-x="797" d="M 698 1016 L 639 973 L 356 1159 C 322 1181 297 1202 283 1222 C 269 1241 262 1261 262 1282 C 262 1308 269 1332 285 1352 C 301 1372 323 1382 352 1382 C 360 1382 368 1381 378 1380 C 388 1378 398 1375 408 1371 C 418 1367 428 1360 439 1352 C 449 1344 460 1333 471 1319 L 698 1016 Z" unicode="`" />
<glyph horiz-adv-x="1018" d="M 971 854 C 971 848 969 840 966 829 C 962 817 959 806 956 795 L 827 256 C 823 238 819 222 816 206 C 812 190 811 178 811 168 C 811 157 814 148 822 141 C 830 134 837 131 844 131 C 849 131 854 131 858 131 C 862 131 866 132 870 133 C 874 134 878 136 884 138 C 890 140 897 143 907 147 L 924 100 C 928 88 930 78 930 70 C 930 60 923 50 910 40 C 897 30 880 20 860 11 C 840 2 817 -5 793 -11 C 769 -17 745 -20 723 -20 C 693 -20 669 -15 650 -5 C 631 4 616 16 604 30 C 592 44 584 60 578 76 C 572 92 567 107 563 121 C 549 105 532 88 513 72 C 494 55 473 40 450 26 C 427 12 402 1 376 -7 C 349 -15 321 -20 291 -20 C 249 -20 211 -12 179 4 C 146 20 118 42 96 71 C 73 99 56 134 44 174 C 32 214 27 257 27 305 C 27 357 33 408 47 458 C 60 507 78 553 102 596 C 126 638 154 677 187 712 C 219 747 255 777 294 802 C 332 827 373 846 417 860 C 460 874 504 881 549 881 C 593 881 628 875 655 865 C 681 855 703 843 721 831 C 736 821 749 812 761 805 C 772 798 784 795 797 795 C 803 795 808 795 814 796 C 819 797 826 800 834 805 C 842 809 853 816 866 826 C 878 835 895 848 915 864 C 919 867 925 871 931 876 C 937 880 944 883 952 883 C 961 883 966 880 968 874 C 970 868 971 861 971 854 Z M 676 647 C 676 657 673 668 669 681 C 664 693 657 705 647 716 C 637 726 625 735 611 743 C 596 750 579 754 559 754 C 517 754 478 741 444 715 C 410 689 381 655 357 615 C 333 574 314 529 301 480 C 287 431 281 384 281 338 C 281 314 283 291 289 271 C 294 251 302 233 312 219 C 322 204 334 192 349 184 C 363 176 380 172 399 172 C 419 172 439 175 457 181 C 475 187 492 194 508 204 C 524 213 538 223 552 235 C 565 246 578 257 590 268 L 668 598 C 669 602 671 609 673 619 C 675 629 676 639 676 647 Z" unicode="a" />
<glyph horiz-adv-x="967" d="M 940 555 C 940 475 926 401 898 331 C 870 261 832 201 784 149 C 735 97 677 55 610 25 C 542 -4 469 -20 391 -20 C 324 -20 269 -11 227 6 C 185 24 151 46 127 72 C 103 98 86 125 77 155 C 67 185 63 212 63 236 C 63 260 65 285 70 310 C 74 334 80 360 86 387 L 289 1241 C 293 1260 296 1279 299 1297 C 301 1315 303 1331 303 1343 C 303 1350 299 1356 293 1362 C 287 1368 281 1372 276 1374 C 264 1379 253 1384 244 1389 C 235 1394 231 1401 231 1409 C 231 1412 231 1416 233 1420 C 235 1424 236 1429 238 1434 L 254 1495 L 596 1495 L 412 750 C 421 758 434 770 451 785 C 467 799 487 814 510 828 C 532 842 558 855 586 865 C 614 875 644 881 676 881 C 718 881 755 872 788 855 C 820 838 848 815 871 786 C 893 756 910 722 922 682 C 934 642 940 600 940 555 Z M 686 522 C 686 570 675 609 655 641 C 634 672 605 688 567 688 C 546 688 526 685 508 679 C 490 673 473 665 457 656 C 441 646 426 636 412 625 C 398 613 387 602 377 592 L 301 260 C 299 256 298 248 298 236 C 297 224 297 215 297 207 C 297 178 306 154 325 134 C 344 114 374 104 414 104 C 457 104 496 117 530 143 C 564 169 592 203 615 244 C 638 284 656 329 668 379 C 680 428 686 476 686 522 Z" unicode="b" />
<glyph horiz-adv-x="815" d="M 834 678 C 834 658 831 640 825 624 C 819 608 810 594 800 582 C 789 570 776 560 762 553 C 747 546 731 543 715 543 C 699 543 684 545 670 551 C 656 557 643 565 632 576 C 620 586 611 599 604 614 C 597 629 594 646 594 666 C 594 673 594 681 596 690 C 598 699 600 709 602 721 C 590 731 579 738 567 744 C 555 749 540 752 522 752 C 482 752 448 739 419 715 C 390 691 366 660 347 624 C 327 587 313 547 303 504 C 293 460 289 419 289 381 C 289 303 305 243 337 201 C 369 158 413 137 467 137 C 510 137 549 144 583 159 C 617 174 652 196 688 225 L 733 164 C 744 150 750 138 750 127 C 750 112 740 96 720 79 C 700 61 673 45 641 31 C 608 16 571 4 531 -5 C 490 -15 449 -20 408 -20 C 356 -20 307 -11 261 7 C 215 25 176 50 143 84 C 109 117 83 158 64 206 C 44 254 35 309 35 371 C 35 410 40 450 52 490 C 63 530 79 569 100 607 C 121 645 147 680 177 714 C 207 747 242 776 280 801 C 318 825 360 845 406 859 C 452 873 501 881 553 881 C 601 881 643 874 679 861 C 714 848 743 832 766 812 C 789 792 806 771 817 747 C 828 723 834 700 834 678 Z" unicode="c" />
<glyph horiz-adv-x="1018" d="M 1124 1495 L 827 256 C 823 238 819 222 816 206 C 812 190 811 177 811 168 C 811 157 814 148 822 141 C 830 134 837 131 844 131 C 849 131 854 131 858 131 C 862 131 866 132 871 133 C 875 134 880 136 886 138 C 892 140 899 143 909 147 L 926 100 C 930 88 932 78 932 70 C 932 60 925 50 912 40 C 898 30 881 20 861 11 C 840 2 817 -5 793 -11 C 769 -17 745 -20 723 -20 C 693 -20 669 -15 650 -6 C 631 3 616 15 604 29 C 592 43 582 58 576 74 C 570 90 565 106 563 121 C 553 109 538 96 520 80 C 501 64 480 48 456 33 C 432 18 406 5 378 -4 C 350 -14 321 -20 291 -20 C 249 -20 211 -11 179 5 C 146 21 118 44 96 74 C 73 103 56 137 44 177 C 32 217 27 259 27 305 C 27 357 33 408 47 458 C 60 507 78 553 102 596 C 126 638 154 677 187 712 C 219 747 255 777 294 802 C 332 827 373 846 417 860 C 460 874 504 881 549 881 C 587 881 619 875 645 864 C 671 853 695 839 719 823 L 817 1241 C 822 1260 826 1279 829 1297 C 832 1315 834 1331 834 1343 C 834 1350 830 1356 822 1362 C 814 1368 808 1372 803 1374 C 790 1379 779 1384 771 1389 C 762 1394 758 1401 758 1409 C 758 1412 758 1416 760 1420 C 761 1424 762 1429 764 1434 L 782 1495 L 1124 1495 Z M 674 649 C 674 659 671 670 667 683 C 663 695 656 707 646 718 C 636 728 624 737 610 745 C 596 752 579 756 559 756 C 517 756 478 742 444 716 C 410 690 381 656 357 616 C 333 575 314 530 301 481 C 287 431 281 384 281 338 C 281 314 283 291 289 271 C 294 251 302 233 312 219 C 322 204 334 192 349 184 C 363 176 380 172 399 172 C 419 172 439 175 457 181 C 475 187 491 194 507 204 C 523 213 537 223 550 235 C 563 246 576 257 588 268 L 666 600 C 667 604 669 611 671 621 C 673 631 674 641 674 649 Z" unicode="d" />
<glyph horiz-adv-x="846" d="M 842 666 C 842 621 833 583 816 552 C 798 520 776 494 748 473 C 720 452 689 435 655 423 C 620 411 585 401 551 395 C 517 389 484 385 453 383 C 422 381 397 381 377 381 L 276 381 L 276 342 C 276 306 281 276 291 250 C 301 224 315 202 333 185 C 350 168 370 155 392 147 C 414 139 437 135 461 135 C 504 135 546 146 588 168 C 630 190 675 222 723 266 L 762 221 C 770 211 776 204 781 200 C 785 195 788 188 788 180 C 788 169 778 152 760 130 C 741 108 714 85 680 63 C 645 41 603 21 554 5 C 504 -11 449 -20 389 -20 C 331 -20 280 -10 236 8 C 192 27 155 53 125 87 C 95 121 73 161 58 207 C 42 253 35 304 35 360 C 35 430 49 497 78 560 C 106 623 145 678 194 726 C 242 774 299 811 364 839 C 428 867 497 881 569 881 C 607 881 643 875 677 865 C 710 855 739 840 764 822 C 788 803 807 780 821 754 C 835 727 842 698 842 666 Z M 614 670 C 614 695 606 716 591 732 C 575 748 554 756 526 756 C 502 756 478 750 455 738 C 431 726 410 709 390 687 C 370 665 352 638 336 607 C 320 576 307 542 297 504 C 339 504 374 506 402 508 C 430 510 453 514 472 518 C 490 522 506 527 518 533 C 530 539 541 545 551 553 C 565 562 579 576 593 594 C 607 612 614 638 614 670 Z" unicode="e" />
<glyph horiz-adv-x="602" d="M 907 1337 C 907 1321 904 1305 898 1289 C 892 1273 883 1260 873 1248 C 862 1236 849 1226 834 1219 C 819 1211 803 1208 786 1208 C 773 1208 760 1210 748 1215 C 735 1219 723 1226 713 1234 C 702 1242 693 1253 686 1265 C 679 1277 675 1290 674 1305 C 672 1311 672 1319 672 1329 C 672 1339 672 1350 672 1364 C 656 1359 643 1353 632 1345 C 620 1337 610 1327 602 1313 C 593 1299 585 1280 578 1258 C 570 1236 563 1208 555 1174 L 485 870 L 705 870 L 670 727 L 453 727 L 291 0 L 45 0 L 209 727 L 106 727 L 125 803 C 127 813 130 821 132 828 C 134 834 138 840 143 844 C 148 848 155 851 163 854 C 171 856 181 859 195 862 C 202 863 209 865 216 867 C 223 869 229 872 235 877 C 241 882 246 889 251 899 C 256 908 260 920 264 936 L 299 1081 C 301 1092 306 1110 314 1135 C 322 1160 333 1188 347 1219 C 361 1249 379 1281 401 1314 C 422 1346 448 1376 478 1403 C 508 1429 542 1451 581 1469 C 619 1486 663 1495 713 1495 C 741 1495 768 1491 792 1483 C 816 1475 836 1465 853 1451 C 870 1437 883 1421 893 1402 C 902 1382 907 1361 907 1337 Z" unicode="f" />
<glyph horiz-adv-x="901" d="M 979 784 C 979 773 977 762 974 752 C 970 742 965 733 959 725 C 952 717 944 710 934 705 C 924 700 912 698 899 698 C 886 698 876 700 869 704 C 861 708 851 715 838 723 C 834 726 830 728 825 729 C 819 730 814 731 809 731 C 805 731 801 730 796 730 C 790 729 785 728 780 727 C 803 685 815 638 815 586 C 815 538 804 492 783 448 C 761 404 732 366 696 334 C 660 301 618 275 570 256 C 522 236 471 227 418 227 C 396 227 375 228 353 232 C 331 235 309 240 289 248 C 289 248 286 242 279 232 C 271 222 263 211 254 199 C 243 184 231 168 217 150 L 348 150 C 488 150 592 127 659 83 C 726 38 760 -24 760 -106 C 760 -160 746 -206 719 -244 C 692 -282 657 -313 614 -337 C 570 -361 521 -378 467 -389 C 413 -400 359 -406 305 -406 C 273 -406 238 -404 200 -400 C 162 -396 126 -388 94 -376 C 61 -364 34 -348 12 -327 C -9 -305 -20 -277 -20 -242 C -20 -230 -18 -217 -14 -205 C -10 -193 -3 -181 4 -171 C 12 -160 23 -151 35 -145 C 47 -138 62 -135 80 -135 C 98 -135 114 -138 126 -144 C 138 -150 148 -157 156 -167 C 164 -176 169 -186 173 -197 C 176 -208 178 -219 178 -229 C 178 -234 177 -240 177 -248 C 176 -255 175 -260 174 -262 C 195 -267 217 -271 239 -274 C 261 -277 288 -279 319 -279 C 331 -279 350 -277 375 -275 C 399 -272 424 -266 449 -258 C 474 -249 496 -236 515 -220 C 533 -203 543 -181 543 -154 C 543 -135 538 -119 529 -106 C 519 -92 504 -82 484 -74 C 464 -66 437 -60 404 -56 C 371 -52 331 -51 285 -51 C 277 -51 266 -51 250 -51 C 234 -51 216 -52 196 -53 C 176 -54 156 -55 134 -56 C 112 -56 91 -57 71 -58 C 51 -59 34 -60 19 -60 C 3 -60 -7 -61 -14 -61 C -23 -61 -31 -57 -38 -51 C -45 -45 -49 -36 -49 -25 C -49 -19 -47 -14 -44 -9 C -41 -4 -38 0 -35 6 L 182 301 C 150 325 124 356 104 392 C 84 428 74 470 74 518 C 74 558 82 600 100 643 C 117 686 143 725 178 761 C 212 796 256 825 308 847 C 360 869 422 881 492 881 C 538 881 580 873 619 859 C 657 845 691 825 719 801 C 729 808 739 816 750 825 C 761 834 773 842 786 850 C 798 858 812 864 826 869 C 840 874 854 877 870 877 C 883 877 896 875 909 871 C 922 867 934 861 944 853 C 954 845 963 836 969 824 C 975 812 979 799 979 784 Z M 598 596 C 598 649 587 689 565 715 C 543 741 513 754 475 754 C 445 754 418 745 396 729 C 374 713 355 692 340 666 C 325 640 314 612 306 580 C 298 548 295 517 295 487 C 295 467 297 449 303 432 C 309 414 317 399 328 386 C 338 373 351 363 367 355 C 383 347 400 344 420 344 C 444 344 466 350 488 364 C 510 377 529 395 545 418 C 561 441 573 468 583 499 C 593 529 598 562 598 596 Z" unicode="g" />
<glyph horiz-adv-x="1012" d="M 936 70 C 936 60 929 50 916 40 C 902 30 885 20 865 11 C 844 2 821 -5 797 -11 C 773 -17 749 -20 727 -20 C 697 -20 672 -16 652 -8 C 631 0 614 10 601 24 C 587 38 578 53 572 70 C 566 87 563 105 563 123 C 563 134 564 150 566 170 C 568 190 573 218 582 252 L 659 565 C 661 572 663 581 665 592 C 667 603 668 614 668 625 C 668 647 659 666 643 680 C 626 694 606 702 584 702 C 564 702 546 698 528 692 C 510 686 493 678 478 669 C 463 660 449 651 437 641 C 425 631 414 622 406 614 L 258 0 L 16 0 L 309 1241 C 314 1260 318 1279 321 1297 C 324 1315 326 1331 326 1343 C 326 1350 322 1356 315 1362 C 308 1368 302 1372 297 1374 C 284 1379 273 1384 265 1389 C 256 1394 252 1401 252 1409 C 252 1412 252 1416 254 1420 C 255 1424 256 1429 258 1434 L 276 1495 L 616 1495 L 438 766 C 452 776 468 788 486 802 C 504 815 523 827 545 839 C 567 851 590 861 616 869 C 642 877 670 881 700 881 C 734 881 764 875 791 863 C 818 851 841 835 860 815 C 878 795 893 771 903 744 C 913 717 918 689 918 659 C 918 618 914 582 907 551 C 899 520 893 493 887 471 L 831 256 C 827 240 823 224 820 207 C 816 190 815 177 815 168 C 815 157 819 148 827 141 C 835 134 842 131 848 131 C 853 131 858 131 862 131 C 866 131 870 132 874 133 C 878 134 883 136 889 138 C 895 140 903 143 913 147 L 930 100 C 934 88 936 78 936 70 Z" unicode="h" />
<glyph horiz-adv-x="524" d="M 582 1290 C 582 1268 578 1248 570 1230 C 562 1212 552 1196 539 1183 C 526 1169 511 1159 494 1151 C 476 1143 458 1139 438 1139 C 418 1139 400 1143 383 1151 C 365 1159 350 1169 337 1183 C 324 1196 314 1212 306 1230 C 298 1248 295 1268 295 1290 C 295 1310 298 1330 306 1348 C 314 1366 324 1381 337 1395 C 350 1409 365 1420 383 1428 C 400 1436 418 1440 438 1440 C 458 1440 476 1436 494 1428 C 511 1420 526 1409 539 1395 C 552 1381 562 1366 570 1348 C 578 1330 582 1310 582 1290 Z M 473 852 C 473 846 471 835 467 819 C 463 803 458 784 453 764 L 330 256 C 326 240 322 224 319 207 C 316 190 315 177 315 168 C 315 157 318 148 326 141 C 333 134 340 131 348 131 C 353 131 357 131 361 131 C 365 131 369 132 374 133 C 378 134 383 136 389 138 C 395 140 402 143 412 147 L 430 100 C 434 88 436 78 436 70 C 436 60 429 50 416 40 C 402 30 385 20 365 11 C 344 2 321 -5 297 -11 C 273 -17 249 -20 227 -20 C 197 -20 172 -16 152 -8 C 132 0 115 10 103 24 C 90 38 81 53 75 70 C 69 87 66 105 66 123 C 66 134 67 150 70 171 C 72 191 78 218 86 252 L 168 569 C 168 573 169 578 171 586 C 172 593 173 600 174 608 C 175 616 176 623 177 630 C 177 636 178 641 178 645 C 178 653 176 659 174 664 C 172 669 168 673 164 677 C 160 681 154 684 147 687 C 140 689 132 692 123 696 C 119 697 114 700 108 704 C 102 708 100 715 100 725 C 100 731 101 738 103 747 C 105 755 107 762 109 766 L 121 803 C 179 811 232 820 280 831 C 327 842 363 852 389 862 C 408 869 421 874 427 877 C 433 879 440 881 446 881 C 464 881 473 871 473 852 Z" unicode="i" />
<glyph horiz-adv-x="502" d="M 573 1290 C 573 1268 569 1248 562 1230 C 554 1212 544 1196 531 1183 C 518 1169 503 1159 486 1151 C 468 1143 450 1139 430 1139 C 410 1139 392 1143 375 1151 C 357 1159 342 1169 330 1183 C 317 1196 307 1212 300 1230 C 292 1248 289 1268 289 1290 C 289 1310 292 1330 300 1348 C 307 1366 317 1381 330 1395 C 342 1409 357 1420 375 1428 C 392 1436 410 1440 430 1440 C 450 1440 468 1436 486 1428 C 503 1420 518 1409 531 1395 C 544 1381 554 1366 562 1348 C 569 1330 573 1310 573 1290 Z M 481 852 C 481 846 479 835 475 819 C 471 803 467 784 463 764 L 313 86 C 305 54 298 24 291 -3 C 283 -30 274 -56 264 -82 C 254 -107 241 -132 227 -157 C 212 -182 194 -208 174 -236 C 162 -252 146 -269 128 -288 C 110 -306 88 -324 64 -340 C 40 -356 13 -369 -16 -380 C -45 -391 -76 -397 -109 -397 C -139 -397 -165 -392 -187 -383 C -209 -374 -227 -363 -242 -349 C -256 -335 -267 -319 -274 -302 C -281 -284 -285 -267 -285 -250 C -285 -233 -282 -217 -276 -203 C -270 -189 -263 -176 -253 -166 C -243 -155 -232 -146 -219 -140 C -206 -134 -192 -131 -178 -131 C -176 -131 -169 -131 -159 -133 C -148 -135 -137 -140 -125 -149 C -113 -157 -101 -171 -91 -190 C -80 -209 -74 -236 -72 -270 L -51 -270 C -45 -270 -38 -268 -32 -266 C -25 -263 -20 -260 -18 -256 C -12 -246 -5 -229 1 -205 C 8 -181 15 -151 23 -117 L 170 567 C 171 573 172 580 174 588 C 175 596 176 603 177 611 C 178 618 179 625 179 631 C 179 637 180 641 180 645 C 180 653 178 659 176 664 C 173 669 169 673 164 677 C 159 681 153 684 146 687 C 138 689 130 692 121 696 C 117 697 112 700 106 704 C 100 708 98 715 98 725 C 98 731 99 738 101 747 C 103 755 104 762 106 766 L 119 803 C 148 807 176 811 204 816 C 232 820 258 825 282 830 C 306 835 327 840 347 845 C 366 850 382 855 395 860 C 414 867 427 872 434 876 C 441 879 447 881 453 881 C 471 881 481 871 481 852 Z" unicode="j" />
<glyph horiz-adv-x="999" d="M 952 692 C 952 648 942 610 924 578 C 906 545 884 517 858 493 C 832 469 805 450 777 434 C 749 418 727 406 709 397 L 752 248 C 758 224 765 205 773 190 C 780 175 788 163 797 155 C 806 146 816 140 826 137 C 836 134 848 133 860 133 C 868 133 880 135 895 140 C 909 144 921 149 930 154 L 938 121 C 940 113 942 105 944 96 C 946 86 948 79 948 74 C 948 62 940 50 925 39 C 910 28 892 18 870 9 C 848 0 825 -6 800 -12 C 775 -17 753 -20 733 -20 C 701 -20 672 -14 647 -3 C 622 7 600 25 581 51 C 561 77 544 111 528 154 C 512 196 498 249 485 313 L 322 283 L 258 0 L 16 0 L 309 1241 C 314 1260 318 1279 321 1297 C 324 1315 326 1331 326 1343 C 326 1350 322 1356 315 1362 C 308 1368 302 1372 297 1374 C 284 1379 273 1384 265 1389 C 256 1394 252 1401 252 1409 C 252 1412 252 1416 254 1420 C 255 1424 256 1429 258 1434 L 276 1495 L 616 1495 L 442 784 C 462 795 484 806 506 818 C 528 829 551 839 575 849 C 599 858 624 866 650 872 C 676 878 703 881 731 881 C 765 881 796 876 824 867 C 851 857 874 844 893 827 C 912 810 927 790 937 767 C 947 744 952 719 952 692 Z M 705 633 C 705 655 696 676 680 694 C 663 712 641 721 614 721 C 606 721 596 720 584 718 C 571 716 556 713 538 707 C 520 701 499 691 477 679 C 455 666 431 649 406 627 L 354 422 C 386 426 423 434 464 444 C 504 454 542 467 578 483 C 614 499 644 520 668 545 C 692 569 705 599 705 633 Z" unicode="k" />
<glyph horiz-adv-x="498" d="M 606 1495 L 309 256 C 305 241 302 226 299 211 C 296 195 295 181 295 168 C 295 157 299 148 308 141 C 316 134 324 131 332 131 C 337 131 342 131 346 131 C 350 131 354 132 359 133 C 363 134 368 136 374 138 C 380 140 387 143 397 147 L 414 100 C 418 88 420 78 420 70 C 420 60 413 50 399 40 C 385 30 368 20 347 11 C 326 2 303 -5 279 -11 C 254 -17 231 -20 209 -20 C 179 -20 154 -16 134 -8 C 114 0 97 10 84 24 C 71 38 62 53 56 70 C 50 87 47 105 47 123 C 47 134 47 150 49 171 C 50 191 55 218 63 252 L 299 1241 C 304 1260 308 1279 311 1297 C 313 1315 315 1331 315 1343 C 315 1350 311 1356 305 1362 C 298 1368 293 1372 289 1374 C 275 1379 264 1384 256 1389 C 248 1394 244 1401 244 1409 C 244 1412 244 1416 246 1420 C 247 1424 248 1429 250 1434 L 266 1495 L 606 1495 Z" unicode="l" />
<glyph horiz-adv-x="1540" d="M 1464 70 C 1464 60 1457 50 1444 40 C 1430 30 1413 20 1393 11 C 1373 2 1350 -5 1326 -11 C 1302 -17 1279 -20 1257 -20 C 1227 -20 1202 -16 1182 -8 C 1161 0 1144 10 1131 24 C 1117 38 1107 53 1101 70 C 1095 87 1092 105 1092 123 C 1092 134 1093 150 1095 170 C 1097 190 1102 218 1110 252 L 1188 565 C 1190 572 1191 581 1193 592 C 1195 603 1196 614 1196 625 C 1196 647 1188 666 1173 680 C 1157 694 1138 702 1116 702 C 1096 702 1078 698 1061 692 C 1043 686 1027 678 1013 669 C 998 660 985 651 973 641 C 961 631 950 622 942 614 L 797 0 L 549 0 L 680 563 C 682 570 683 579 685 590 C 687 601 688 612 688 623 C 688 645 680 664 664 679 C 648 694 628 702 606 702 C 586 702 568 698 550 692 C 532 686 516 678 501 669 C 486 660 473 651 461 641 C 449 631 438 622 430 614 L 285 0 L 41 0 L 176 569 C 176 573 177 578 179 586 C 181 594 182 602 184 610 C 186 618 187 625 188 632 C 189 638 190 643 190 647 C 190 655 188 661 186 666 C 184 671 180 675 176 678 C 172 681 166 684 159 687 C 152 689 144 692 135 696 C 131 697 126 700 121 704 C 115 708 113 715 113 725 C 113 731 114 738 116 747 C 118 755 119 762 121 766 L 133 803 C 191 811 242 820 286 831 C 330 842 365 852 391 862 C 401 866 408 869 414 871 C 420 873 424 875 428 877 C 432 878 435 879 437 880 C 439 880 442 881 446 881 C 464 881 473 871 473 852 C 473 846 471 834 467 817 C 463 799 458 780 453 760 C 469 772 486 785 505 799 C 524 813 545 827 568 839 C 590 851 615 861 641 869 C 667 877 695 881 725 881 C 749 881 772 877 794 869 C 816 861 835 851 853 838 C 871 825 886 810 899 792 C 912 774 922 756 930 737 C 954 757 978 776 1002 794 C 1026 812 1050 827 1074 840 C 1098 853 1123 863 1149 870 C 1175 877 1203 881 1233 881 C 1267 881 1297 875 1323 863 C 1349 851 1372 835 1391 815 C 1409 795 1423 771 1433 744 C 1443 717 1448 689 1448 659 C 1448 618 1444 582 1437 551 C 1430 520 1423 493 1417 471 L 1360 256 C 1356 240 1352 224 1348 207 C 1344 190 1343 177 1343 168 C 1343 157 1347 148 1355 141 C 1363 134 1370 131 1378 131 C 1383 131 1387 131 1391 131 C 1395 131 1399 132 1404 133 C 1408 134 1413 136 1419 138 C 1425 140 1432 143 1442 147 L 1458 100 C 1462 88 1464 78 1464 70 Z" unicode="m" />
<glyph horiz-adv-x="1036" d="M 961 70 C 961 60 954 50 941 40 C 927 30 910 20 890 11 C 870 2 847 -5 823 -11 C 799 -17 776 -20 754 -20 C 724 -20 699 -16 678 -8 C 657 0 640 10 627 24 C 613 38 603 53 597 70 C 591 87 588 105 588 123 C 588 134 589 150 591 170 C 593 190 598 218 606 252 L 684 565 C 686 572 687 581 689 592 C 691 603 692 614 692 625 C 692 647 683 666 667 680 C 650 694 630 702 608 702 C 588 702 570 698 552 692 C 534 686 518 678 503 669 C 487 660 473 651 461 641 C 449 631 438 622 430 614 L 285 0 L 41 0 L 176 569 C 176 573 177 578 179 586 C 181 594 182 602 184 610 C 186 618 187 625 188 632 C 189 638 190 643 190 647 C 190 655 188 661 186 666 C 184 671 180 675 176 678 C 172 681 166 684 159 687 C 152 689 144 692 135 696 C 131 697 126 700 121 704 C 115 708 113 715 113 725 C 113 731 114 738 116 747 C 118 755 119 762 121 766 L 133 803 C 191 812 243 822 287 832 C 331 842 365 852 391 862 C 401 866 408 869 414 871 C 420 873 424 875 428 877 C 432 878 435 879 437 880 C 439 880 442 881 446 881 C 464 881 473 871 473 852 C 473 846 471 834 467 817 C 463 799 458 780 453 760 C 469 772 486 785 505 799 C 524 813 545 827 568 839 C 590 851 615 861 641 869 C 667 877 695 881 725 881 C 759 881 789 875 816 863 C 843 851 866 835 885 815 C 904 795 919 771 929 744 C 939 717 944 689 944 659 C 944 618 940 582 933 551 C 926 520 919 493 913 471 L 856 256 C 852 240 848 224 845 207 C 841 190 840 177 840 168 C 840 157 843 148 851 141 C 859 134 866 131 874 131 C 879 131 883 131 887 131 C 891 131 895 132 900 133 C 904 134 909 136 915 138 C 921 140 928 143 938 147 L 954 100 C 956 94 957 88 959 83 C 960 78 961 74 961 70 Z" unicode="n" />
<glyph horiz-adv-x="946" d="M 911 492 C 911 422 898 357 873 295 C 847 233 812 178 767 132 C 722 85 669 48 608 21 C 546 -6 480 -20 408 -20 C 342 -20 285 -8 238 16 C 191 40 153 70 123 107 C 93 144 70 185 56 230 C 42 274 35 317 35 358 C 35 424 46 489 69 552 C 91 615 124 671 167 720 C 209 768 261 807 323 837 C 384 866 454 881 532 881 C 580 881 626 872 672 855 C 718 838 758 813 794 780 C 829 747 857 706 879 658 C 900 610 911 554 911 492 Z M 662 592 C 662 617 658 640 652 660 C 645 680 636 698 624 712 C 612 726 598 736 582 744 C 566 752 548 756 530 756 C 515 756 500 753 484 749 C 468 744 453 736 438 725 C 423 713 409 698 395 680 C 381 661 369 638 358 610 C 334 552 316 497 304 443 C 291 389 285 330 285 268 C 285 230 290 201 302 179 C 313 157 326 141 341 130 C 356 118 371 111 386 108 C 400 105 411 104 418 104 C 430 104 444 106 460 112 C 475 118 490 127 506 139 C 521 151 536 166 550 184 C 564 202 577 223 588 248 C 596 267 604 289 613 315 C 622 341 630 368 637 398 C 644 428 650 459 655 492 C 659 524 662 558 662 592 Z" unicode="o" />
<glyph horiz-adv-x="1014" d="M 987 555 C 987 475 972 401 944 331 C 916 261 878 201 830 149 C 782 97 727 55 664 25 C 601 -4 535 -20 467 -20 C 447 -20 430 -18 414 -15 C 398 -12 383 -8 369 -3 C 355 1 343 7 331 14 C 319 21 307 29 295 37 L 195 -389 L -51 -389 L 176 569 C 176 573 177 578 179 586 C 181 594 182 602 184 610 C 186 618 187 625 188 632 C 189 638 190 643 190 647 C 190 655 188 661 186 666 C 184 671 180 675 176 678 C 172 681 166 684 159 687 C 152 689 144 692 135 696 C 131 697 126 700 121 704 C 115 708 113 715 113 725 C 113 731 114 738 116 747 C 118 755 119 762 121 766 L 133 803 C 191 812 243 822 287 832 C 331 842 365 852 391 862 C 401 866 408 869 414 871 C 420 873 424 875 428 877 C 432 878 435 879 437 880 C 439 880 442 881 446 881 C 464 881 473 871 473 852 C 473 848 472 843 470 835 C 468 827 466 819 464 809 C 462 799 459 788 457 776 C 454 764 451 753 449 743 C 457 752 471 764 489 780 C 507 795 528 810 552 825 C 576 840 602 853 631 864 C 659 875 689 881 721 881 C 763 881 801 872 834 855 C 867 838 895 815 918 786 C 940 756 957 722 969 682 C 981 642 987 600 987 555 Z M 733 522 C 733 570 722 609 702 641 C 681 672 652 688 614 688 C 592 688 572 685 554 679 C 536 673 519 665 503 656 C 487 646 473 636 460 625 C 447 613 436 602 426 592 L 348 260 C 346 256 345 248 343 238 C 341 228 340 219 340 211 C 340 201 342 189 347 177 C 352 164 359 152 369 142 C 379 131 391 122 406 115 C 421 107 439 104 459 104 C 502 104 541 117 575 143 C 609 169 637 203 661 244 C 684 284 702 329 714 379 C 726 428 733 476 733 522 Z" unicode="p" />
<glyph horiz-adv-x="991" d="M 971 854 C 971 848 969 840 966 829 C 962 817 959 806 956 795 L 676 -389 L 430 -389 L 559 121 C 545 105 528 88 510 72 C 491 55 470 40 448 26 C 425 12 401 1 375 -7 C 349 -15 321 -20 291 -20 C 249 -20 211 -12 179 4 C 146 20 118 42 96 71 C 73 99 56 134 44 174 C 32 214 27 257 27 305 C 27 357 33 408 47 458 C 60 507 78 553 102 596 C 126 638 154 677 187 712 C 219 747 255 777 294 802 C 332 827 373 846 417 860 C 460 874 504 881 549 881 C 591 881 625 875 653 865 C 681 855 703 843 721 831 C 736 821 749 812 761 805 C 772 798 784 795 797 795 C 803 795 808 795 814 796 C 819 797 826 800 834 805 C 842 809 853 816 866 826 C 878 835 895 848 915 864 C 919 867 925 871 931 876 C 937 880 944 883 952 883 C 961 883 966 880 968 874 C 970 868 971 861 971 854 Z M 674 647 C 674 657 671 668 667 681 C 663 693 656 705 646 716 C 636 726 624 735 610 743 C 596 750 579 754 559 754 C 517 754 478 741 444 715 C 410 689 381 655 357 615 C 333 574 314 529 301 480 C 287 431 281 384 281 338 C 281 314 283 291 289 271 C 294 251 302 233 312 219 C 322 204 334 192 349 184 C 363 176 380 172 399 172 C 419 172 439 175 457 181 C 475 187 491 194 507 204 C 523 213 537 223 550 235 C 563 246 576 257 588 268 L 666 598 C 667 602 669 609 671 619 C 673 629 674 639 674 647 Z" unicode="q" />
<glyph horiz-adv-x="692" d="M 745 745 C 745 729 742 714 738 698 C 733 682 725 667 715 654 C 705 640 692 629 676 621 C 660 612 640 608 618 608 C 588 608 566 614 551 628 C 535 642 524 659 516 680 C 507 674 498 666 488 658 C 478 649 467 635 456 616 C 445 597 434 571 422 538 C 410 505 397 461 385 406 L 291 0 L 49 0 L 158 469 C 167 508 173 542 175 571 C 177 600 178 619 178 629 C 178 645 176 657 174 666 C 172 675 168 682 162 687 C 156 692 149 696 140 699 C 130 701 119 704 106 707 C 96 708 88 711 83 716 C 78 721 76 732 76 750 L 76 801 C 124 812 162 822 191 831 C 219 839 245 848 268 856 C 271 856 276 858 282 861 C 288 864 295 867 302 870 C 308 872 314 875 320 877 C 325 879 328 881 330 881 C 340 881 347 874 353 861 C 358 847 362 832 365 814 C 367 796 369 779 370 761 C 370 743 371 730 371 721 L 371 662 L 375 662 C 387 686 401 710 417 736 C 432 762 449 785 468 807 C 487 829 509 846 533 860 C 557 874 584 881 614 881 C 637 881 657 877 674 869 C 690 861 704 851 714 839 C 724 826 732 811 737 795 C 742 779 745 762 745 745 Z" unicode="r" />
<glyph horiz-adv-x="723" d="M 711 694 C 711 674 707 656 700 642 C 693 628 684 616 673 607 C 662 598 650 592 638 588 C 625 584 613 582 602 582 C 588 582 574 584 561 589 C 548 594 537 601 527 611 C 517 620 509 631 503 645 C 497 658 494 673 494 690 C 494 697 494 705 495 714 C 496 723 498 733 502 745 C 482 750 466 753 453 755 C 440 757 432 758 428 758 C 399 758 374 751 353 739 C 332 727 322 708 322 684 C 322 676 322 669 324 661 C 326 653 330 644 336 635 C 342 625 350 615 362 604 C 373 592 388 580 408 567 L 535 479 C 551 467 567 453 583 438 C 599 422 613 405 625 387 C 637 368 646 348 653 326 C 660 304 664 282 664 258 C 664 218 655 180 637 146 C 619 112 594 82 563 57 C 531 32 494 12 451 -1 C 407 -15 361 -23 311 -23 C 259 -23 214 -16 175 -4 C 135 8 102 25 75 45 C 48 65 28 87 14 112 C 0 136 -6 161 -6 186 C -6 206 -2 225 4 241 C 10 257 19 271 31 283 C 42 294 55 303 70 309 C 84 315 99 319 115 319 C 151 319 179 308 197 286 C 215 264 225 237 225 205 C 225 195 223 185 220 173 C 217 161 214 149 211 137 C 227 127 246 118 266 111 C 286 103 307 100 330 100 C 348 100 364 102 378 107 C 392 112 405 119 415 127 C 425 135 432 145 438 156 C 443 166 446 178 446 190 C 446 213 438 234 422 252 C 406 270 382 290 350 313 L 213 412 C 171 442 143 474 127 508 C 111 542 104 575 104 608 C 104 647 112 683 130 717 C 148 750 172 779 202 803 C 232 827 267 846 307 860 C 347 874 390 881 436 881 C 472 881 507 876 541 867 C 574 858 603 845 629 829 C 654 812 674 792 689 770 C 703 747 711 722 711 694 Z" unicode="s" />
<glyph horiz-adv-x="590" d="M 655 870 L 621 727 L 442 727 L 324 233 C 322 227 321 218 319 207 C 317 195 317 185 317 176 C 317 139 341 121 389 121 C 406 121 424 124 443 130 C 462 136 480 145 498 156 L 518 106 C 519 102 520 97 522 91 C 523 85 524 79 524 74 C 524 64 517 53 504 42 C 490 31 473 21 451 12 C 429 2 405 -5 377 -11 C 349 -17 320 -20 291 -20 C 270 -20 247 -17 222 -12 C 197 -7 174 2 152 16 C 130 30 111 50 96 76 C 81 102 74 136 74 178 C 74 184 74 191 75 200 C 76 209 77 219 79 229 C 81 239 82 248 84 257 C 85 266 86 273 88 279 L 197 727 L 100 727 L 121 811 C 123 821 126 830 128 836 C 130 842 135 848 141 853 C 147 857 155 861 166 865 C 176 868 191 872 211 877 C 223 880 233 890 239 906 C 245 922 250 938 254 954 L 299 1143 C 304 1162 317 1174 339 1180 C 360 1185 388 1188 424 1188 L 555 1188 L 477 870 L 655 870 Z" unicode="t" />
<glyph horiz-adv-x="1032" d="M 985 852 C 985 850 984 847 983 842 C 982 837 981 832 980 826 C 979 820 978 815 976 809 C 974 803 973 798 973 795 L 842 256 C 838 238 834 222 831 206 C 828 190 827 177 827 168 C 827 157 830 148 838 141 C 845 134 852 131 860 131 C 865 131 869 131 873 131 C 877 131 881 132 886 133 C 890 134 895 136 901 138 C 907 140 914 143 924 147 L 942 100 C 946 88 948 78 948 70 C 948 60 941 50 928 40 C 914 30 897 20 877 11 C 856 2 833 -5 809 -11 C 785 -17 761 -20 739 -20 C 709 -20 685 -16 667 -8 C 648 0 633 10 621 22 C 609 34 600 47 594 62 C 588 76 583 90 580 104 C 563 90 545 76 526 62 C 506 47 485 34 462 22 C 439 10 414 0 388 -8 C 361 -16 333 -20 303 -20 C 269 -20 239 -14 213 -2 C 186 9 163 25 144 45 C 125 65 111 88 101 115 C 91 142 86 171 86 201 C 86 242 89 278 97 310 C 105 342 111 368 117 389 L 172 606 C 173 611 174 618 176 626 C 177 634 178 641 178 649 C 178 659 176 667 172 673 C 168 679 161 684 150 688 C 134 694 124 699 118 703 C 112 707 109 715 109 725 C 109 731 110 738 112 747 C 114 755 115 762 117 766 L 127 803 C 137 804 152 806 171 810 C 189 813 209 817 231 822 C 252 826 274 831 296 836 C 318 841 338 846 356 852 C 359 852 365 854 373 858 C 381 861 389 864 399 868 C 408 871 417 874 425 877 C 433 879 440 881 444 881 C 453 881 460 878 464 872 C 468 866 471 859 471 852 C 471 848 470 844 469 838 C 468 832 467 826 466 820 C 465 814 464 808 462 802 C 460 796 459 792 459 788 L 344 319 C 340 305 338 290 336 274 C 334 258 334 246 334 236 C 334 212 342 193 358 179 C 374 165 395 158 420 158 C 439 158 457 161 475 167 C 493 173 509 181 525 190 C 540 199 554 209 567 219 C 579 229 590 238 600 246 L 686 610 C 687 615 689 622 691 632 C 693 642 694 649 694 655 C 694 664 690 671 684 677 C 678 682 672 686 666 688 C 650 694 640 699 634 703 C 628 707 625 715 625 725 C 625 731 626 738 628 747 C 630 755 631 762 633 766 L 641 803 C 655 805 672 808 692 812 C 712 815 732 819 754 823 C 775 827 796 831 817 836 C 838 840 857 846 874 852 C 876 852 882 854 890 857 C 898 860 906 863 916 867 C 925 870 934 873 942 876 C 950 879 957 881 961 881 C 971 881 977 878 980 872 C 983 866 985 859 985 852 Z" unicode="u" />
<glyph horiz-adv-x="893" d="M 874 748 C 874 686 868 625 857 563 C 846 501 830 442 809 385 C 787 328 761 275 731 226 C 700 176 665 133 626 97 C 586 61 543 32 496 11 C 448 -9 398 -20 344 -20 C 308 -20 275 -14 244 -3 C 213 8 186 24 163 44 C 139 64 121 89 108 117 C 94 145 88 177 88 211 C 88 252 91 287 98 316 C 105 344 111 369 117 391 L 172 606 C 173 611 174 618 175 626 C 175 634 176 641 176 649 C 176 659 174 667 170 673 C 166 679 158 684 147 688 C 131 694 120 699 114 703 C 107 707 104 715 104 725 C 104 731 105 738 107 747 C 109 755 111 762 113 766 L 123 803 C 133 804 148 806 167 810 C 185 813 206 817 228 822 C 250 826 272 831 294 836 C 316 841 336 846 354 852 C 358 853 365 855 373 859 C 381 862 390 865 399 869 C 407 872 416 875 424 877 C 432 879 438 881 442 881 C 451 881 458 878 462 872 C 466 866 469 859 469 852 C 469 844 467 835 465 823 C 463 811 460 799 457 788 L 350 356 C 346 337 342 318 339 299 C 335 280 334 262 334 246 C 334 218 343 196 363 181 C 383 165 407 158 436 158 C 464 158 496 170 530 196 C 564 221 595 257 625 305 C 655 352 680 409 701 477 C 721 544 733 620 737 705 C 713 707 694 714 680 724 C 666 734 655 745 647 757 C 639 769 633 781 631 793 C 628 805 627 816 627 825 C 627 842 630 858 637 872 C 643 886 652 899 663 909 C 673 919 685 927 699 933 C 712 939 725 942 739 942 C 761 942 779 937 794 929 C 809 921 822 910 832 898 C 842 885 849 871 855 855 C 861 839 865 824 868 810 C 870 796 872 783 873 772 C 873 760 874 752 874 748 Z" unicode="v" />
<glyph horiz-adv-x="1380" d="M 1362 748 C 1362 686 1356 625 1345 563 C 1334 501 1318 442 1297 385 C 1276 328 1250 275 1220 226 C 1189 176 1154 133 1115 97 C 1076 61 1033 32 987 11 C 940 -9 890 -20 836 -20 C 779 -20 731 -6 692 21 C 653 49 626 85 612 131 C 599 115 583 98 563 80 C 543 62 520 46 496 31 C 471 16 445 4 418 -5 C 390 -15 363 -20 336 -20 C 300 -20 267 -14 237 -3 C 207 8 181 24 159 44 C 137 64 119 89 107 117 C 94 145 88 177 88 211 C 88 252 91 287 98 316 C 105 344 111 369 117 391 L 172 606 C 173 611 174 618 175 626 C 175 634 176 641 176 649 C 176 659 174 667 170 673 C 166 679 158 684 147 688 C 131 694 120 699 114 703 C 107 707 104 715 104 725 C 104 731 105 738 107 747 C 109 755 111 762 113 766 L 123 803 C 133 804 148 806 167 810 C 185 813 206 817 228 822 C 250 826 272 831 294 836 C 316 841 336 846 354 852 C 358 853 365 855 373 859 C 381 862 390 865 399 869 C 407 872 416 875 424 877 C 432 879 438 881 442 881 C 451 881 458 878 462 872 C 466 866 469 859 469 852 C 469 844 467 835 465 823 C 463 811 460 799 457 788 L 350 356 C 346 337 342 318 339 299 C 335 280 334 262 334 246 C 334 218 343 196 361 181 C 379 165 403 158 432 158 C 450 158 468 161 485 168 C 502 174 518 186 533 202 C 548 218 562 240 575 267 C 588 294 600 328 610 369 L 737 860 L 983 860 L 856 356 C 850 337 846 318 844 299 C 841 280 840 262 840 246 C 840 218 847 196 862 180 C 876 164 898 156 926 156 C 955 156 987 168 1021 194 C 1055 219 1086 255 1116 303 C 1145 351 1170 408 1190 476 C 1210 544 1222 620 1225 705 C 1201 707 1182 714 1168 724 C 1154 734 1143 745 1135 757 C 1127 769 1121 781 1118 793 C 1115 805 1114 816 1114 825 C 1114 842 1117 858 1124 872 C 1131 886 1140 899 1151 909 C 1162 919 1174 927 1188 933 C 1201 939 1214 942 1227 942 C 1249 942 1267 937 1282 929 C 1297 921 1310 910 1320 898 C 1330 885 1337 871 1343 855 C 1349 839 1353 824 1356 810 C 1358 796 1360 783 1361 772 C 1361 760 1362 752 1362 748 Z" unicode="w" />
<glyph horiz-adv-x="901" d="M 958 760 C 958 740 954 722 947 707 C 940 692 931 680 920 670 C 909 660 897 653 884 648 C 870 643 858 641 846 641 C 824 641 807 645 794 653 C 781 661 770 670 760 678 C 744 664 731 653 721 643 C 710 633 699 621 687 607 C 675 593 661 577 645 557 C 629 537 608 510 584 477 C 590 444 597 407 607 365 C 616 323 627 282 641 240 C 644 230 648 219 653 208 C 657 197 663 187 669 178 C 675 169 683 162 691 156 C 699 150 709 147 719 147 C 733 147 749 149 767 155 C 784 161 802 170 821 182 L 844 141 C 847 135 849 129 851 125 C 853 121 854 117 854 113 C 854 102 847 89 835 74 C 822 58 805 44 784 30 C 762 16 738 4 710 -5 C 682 -15 653 -20 623 -20 C 583 -20 551 -12 526 3 C 501 19 480 40 464 68 C 447 95 434 127 424 163 C 414 199 405 237 397 279 C 333 178 274 104 218 56 C 162 8 116 -16 80 -16 C 61 -16 44 -12 29 -5 C 13 2 0 12 -11 25 C -22 37 -31 51 -37 67 C -43 83 -47 99 -47 117 C -47 129 -44 143 -40 157 C -36 171 -29 185 -20 197 C -10 209 1 220 17 228 C 32 236 50 240 72 240 C 94 240 112 235 125 227 C 137 219 151 208 166 195 C 184 211 200 225 213 238 C 225 251 238 265 250 281 C 262 297 275 316 291 338 C 306 360 326 388 352 422 C 344 458 336 490 328 517 C 320 544 313 568 307 588 C 300 608 294 625 288 640 C 282 654 276 668 272 680 C 268 688 262 696 254 706 C 246 716 234 721 217 721 C 213 721 208 720 204 720 C 199 719 193 717 186 715 C 179 712 171 708 161 702 C 151 696 138 688 123 678 L 94 717 C 88 723 85 728 85 732 C 84 736 84 741 84 748 C 84 756 90 768 103 783 C 115 797 132 812 153 826 C 174 840 198 852 226 862 C 253 872 281 877 311 877 C 349 877 382 868 409 850 C 435 832 457 810 475 784 C 493 758 507 730 518 701 C 529 671 539 645 547 623 C 565 649 586 676 610 706 C 634 736 659 763 685 789 C 711 814 737 835 764 852 C 791 868 817 877 842 877 C 856 877 870 874 884 869 C 898 864 910 857 921 847 C 932 837 941 825 948 811 C 954 796 958 779 958 760 Z" unicode="x" />
<glyph horiz-adv-x="874" d="M 901 754 C 901 742 900 729 898 716 C 896 703 892 689 888 675 C 883 660 877 644 869 626 C 861 608 852 589 840 567 C 804 501 773 448 748 409 C 723 369 705 342 694 326 L 510 53 C 474 0 436 -52 396 -106 C 356 -160 315 -208 273 -252 C 230 -295 186 -330 141 -358 C 96 -385 50 -399 4 -399 C -22 -399 -45 -394 -67 -386 C -88 -377 -106 -365 -122 -351 C -137 -337 -149 -321 -157 -303 C -165 -285 -170 -266 -170 -248 C -170 -233 -167 -218 -162 -203 C -156 -188 -149 -175 -139 -164 C -129 -152 -116 -143 -102 -136 C -87 -128 -70 -125 -51 -125 C -47 -125 -39 -125 -27 -127 C -15 -128 -2 -132 11 -140 C 25 -148 37 -160 49 -177 C 61 -194 68 -218 72 -250 C 103 -236 132 -217 159 -193 C 186 -169 210 -144 231 -120 C 251 -95 268 -72 282 -51 C 295 -30 304 -16 309 -8 L 201 588 C 197 610 192 630 188 648 C 184 665 178 679 172 691 C 165 703 157 712 148 718 C 138 724 127 727 113 727 C 100 727 87 724 75 720 C 63 716 55 713 51 711 L 27 758 C 25 761 23 765 21 769 C 19 773 18 778 18 784 C 18 795 25 806 41 818 C 57 829 76 839 99 849 C 121 858 145 866 171 872 C 196 878 218 881 238 881 C 256 881 274 878 293 874 C 311 870 329 860 347 845 C 365 830 381 808 395 779 C 409 750 421 711 430 662 L 500 258 C 504 265 510 276 520 291 C 529 305 539 322 551 341 C 563 359 575 379 588 399 C 601 419 613 438 625 456 C 636 474 646 491 656 505 C 665 519 672 530 676 537 C 684 549 690 559 696 568 C 701 577 706 586 710 594 C 714 602 718 611 722 619 C 726 627 730 637 735 647 C 729 651 723 656 715 662 C 707 668 700 675 693 684 C 686 692 680 703 675 715 C 670 727 668 741 668 758 C 668 771 670 785 676 799 C 681 813 689 827 699 839 C 709 851 721 861 735 869 C 749 877 766 881 784 881 C 800 881 816 877 830 870 C 844 863 857 854 868 842 C 878 830 886 816 892 801 C 898 785 901 770 901 754 Z" unicode="y" />
<glyph horiz-adv-x="829" d="M 844 811 C 797 761 756 717 720 679 C 684 641 651 607 621 577 C 591 546 563 517 537 491 C 511 465 484 438 457 410 C 429 382 400 353 369 321 C 338 289 303 253 264 213 L 268 209 C 278 212 289 215 300 217 C 310 219 322 221 336 221 C 380 221 424 215 470 203 C 516 191 558 172 596 147 C 596 146 598 145 601 143 C 604 141 608 139 613 137 C 617 135 622 133 627 131 C 632 129 637 129 641 129 C 646 129 652 131 660 136 C 668 140 672 148 672 160 C 672 163 671 166 670 170 C 669 173 667 177 664 182 C 660 186 656 192 650 198 C 644 204 637 211 627 221 C 618 228 612 237 610 247 C 607 257 606 268 606 281 C 606 295 608 308 613 320 C 618 331 625 340 633 348 C 641 355 650 361 660 365 C 670 369 680 371 690 371 C 699 371 710 369 722 366 C 734 362 746 356 758 347 C 769 337 779 324 787 308 C 795 292 799 271 799 246 C 799 203 790 165 774 132 C 758 99 736 71 710 49 C 683 26 653 9 620 -2 C 587 -14 554 -20 520 -20 C 510 -20 502 -19 495 -19 C 487 -18 478 -17 466 -15 C 454 -13 437 -11 417 -8 C 397 -5 369 -1 334 4 C 330 4 322 5 311 6 C 299 7 286 8 271 9 C 256 10 240 11 223 12 C 206 13 190 14 176 14 C 150 14 128 13 110 12 C 92 11 76 10 62 8 C 48 6 34 5 22 3 C 10 1 -3 0 -18 0 L -47 68 L 528 666 L 524 670 C 512 666 499 664 485 662 C 471 660 453 659 432 659 C 425 659 413 659 396 661 C 378 663 360 665 340 667 C 320 669 302 671 285 673 C 267 675 256 676 250 676 C 232 676 217 673 205 669 C 192 664 181 658 172 651 C 162 644 154 636 147 628 C 140 620 134 612 129 606 L 86 637 C 78 642 73 648 72 654 C 70 660 70 664 70 666 C 70 668 72 675 76 687 C 80 698 86 711 94 727 C 102 743 113 759 127 777 C 141 795 157 811 177 826 C 196 840 218 852 244 862 C 269 872 298 877 330 877 C 338 877 345 876 352 876 C 359 876 368 875 378 874 C 388 872 402 870 419 868 C 436 866 459 863 487 860 C 511 856 544 854 586 854 C 618 854 645 855 667 858 C 689 860 708 864 724 868 C 739 872 752 876 763 881 C 773 886 783 891 793 897 L 844 811 Z" unicode="z" />
<glyph horiz-adv-x="713" d="M 893 1501 L 874 1413 C 824 1403 783 1390 751 1375 C 719 1360 692 1342 671 1321 C 650 1299 634 1274 622 1244 C 610 1214 601 1179 594 1139 C 586 1091 580 1048 576 1011 C 572 974 567 939 561 905 C 552 853 535 808 510 770 C 485 732 455 699 421 671 C 387 643 349 619 309 601 C 268 583 228 568 188 557 C 215 546 241 532 265 514 C 289 496 311 476 329 453 C 347 429 362 404 373 376 C 383 348 389 318 389 287 C 389 263 387 237 383 209 C 379 191 376 174 372 156 C 368 138 363 120 359 102 C 354 83 349 63 345 42 C 341 21 337 -1 334 -25 C 330 -45 328 -64 326 -81 C 324 -97 324 -114 324 -131 C 324 -154 325 -175 328 -195 C 331 -215 337 -233 347 -249 C 356 -265 370 -278 388 -290 C 406 -302 431 -311 461 -319 L 438 -403 C 386 -403 338 -394 296 -378 C 254 -362 218 -339 188 -310 C 158 -281 136 -246 120 -206 C 104 -166 96 -122 96 -74 C 96 -59 96 -44 96 -28 C 96 -12 98 2 102 18 C 110 60 121 101 134 143 C 146 184 156 224 164 264 C 167 280 169 296 171 312 C 173 327 174 342 174 358 C 174 380 172 400 169 418 C 165 436 159 453 150 467 C 140 481 128 493 112 503 C 96 513 75 522 49 528 L 68 608 C 104 614 136 623 164 635 C 192 646 215 661 235 681 C 255 700 271 724 283 753 C 295 782 305 818 313 860 C 319 898 325 937 329 979 C 333 1021 338 1062 346 1104 C 358 1167 381 1223 416 1273 C 451 1322 493 1363 543 1397 C 593 1431 648 1456 708 1474 C 768 1492 830 1501 893 1501 Z" unicode="{" />
<glyph horiz-adv-x="166" d="M 217 -389 L 53 -389 L 53 1495 L 217 1495 L 217 -389 Z" unicode="|" />
<glyph horiz-adv-x="713" d="M 696 569 L 678 489 C 640 482 608 473 580 462 C 552 451 529 436 509 417 C 489 397 473 373 461 344 C 449 315 439 280 432 238 C 426 200 420 160 416 118 C 412 76 406 35 399 -6 C 387 -69 364 -125 329 -175 C 293 -224 251 -265 201 -299 C 151 -333 95 -358 35 -376 C -24 -394 -85 -403 -147 -403 L -129 -315 C -79 -305 -38 -292 -6 -278 C 26 -263 53 -245 74 -223 C 95 -201 111 -176 123 -146 C 135 -116 144 -81 152 -41 C 160 6 166 48 170 86 C 174 123 178 159 184 193 C 192 243 209 288 234 327 C 259 365 289 399 323 427 C 357 455 395 478 436 496 C 476 514 517 529 557 541 C 529 551 502 565 478 583 C 454 601 433 621 415 645 C 397 668 382 694 372 722 C 361 750 356 779 356 811 C 356 823 356 836 357 848 C 358 860 360 874 362 889 C 367 923 374 959 384 995 C 394 1031 402 1074 410 1122 C 413 1142 416 1161 418 1178 C 420 1195 422 1212 422 1229 C 422 1252 420 1273 417 1293 C 414 1313 408 1330 399 1346 C 389 1362 375 1375 357 1387 C 339 1399 315 1409 285 1417 L 307 1501 C 359 1501 407 1492 449 1476 C 491 1460 527 1437 557 1408 C 586 1379 609 1344 625 1304 C 641 1263 649 1219 649 1171 C 649 1157 648 1142 647 1126 C 646 1110 644 1094 641 1079 C 633 1037 623 995 611 954 C 599 912 589 872 582 834 C 578 817 576 801 574 785 C 572 769 571 754 571 739 C 571 717 572 697 576 679 C 579 661 585 644 595 630 C 604 616 617 603 633 593 C 649 583 670 575 696 569 Z" unicode="}" />
<glyph horiz-adv-x="1516" d="M 1352 846 C 1348 782 1337 722 1319 668 C 1301 613 1276 566 1246 526 C 1216 486 1180 455 1138 433 C 1096 410 1050 399 999 399 C 979 399 960 400 944 404 C 927 408 910 414 893 422 C 875 430 856 441 836 455 C 816 468 792 484 766 504 C 744 520 723 534 705 547 C 686 560 668 571 651 581 C 633 591 616 598 600 604 C 583 609 565 612 547 612 C 519 612 496 605 477 591 C 458 577 442 560 430 538 C 417 516 407 490 400 462 C 392 434 387 405 383 375 L 258 375 C 261 438 272 497 290 551 C 308 605 333 651 364 691 C 394 730 430 761 472 783 C 514 805 560 817 610 817 C 636 817 658 815 678 811 C 698 807 716 802 734 794 C 751 786 769 777 787 765 C 805 753 826 739 850 723 C 872 707 893 692 912 678 C 930 664 948 651 965 641 C 982 631 998 623 1014 617 C 1030 611 1046 608 1063 608 C 1089 608 1112 614 1131 628 C 1150 641 1166 659 1179 681 C 1191 703 1201 729 1209 758 C 1217 786 1223 816 1227 846 L 1352 846 Z" unicode="~" />
<glyph horiz-adv-x="430" d="" unicode="" />
<glyph horiz-adv-x="539" d="M 524 967 C 524 945 520 924 512 904 C 504 884 493 867 479 853 C 465 838 449 826 431 818 C 412 809 392 805 371 805 C 349 805 329 809 311 818 C 292 826 275 838 261 853 C 247 867 235 884 227 904 C 219 924 215 945 215 967 C 215 989 219 1010 227 1030 C 235 1050 247 1067 261 1082 C 275 1096 292 1108 311 1117 C 329 1125 349 1130 371 1130 C 392 1130 412 1125 431 1117 C 449 1108 465 1096 479 1082 C 493 1067 504 1050 512 1030 C 520 1010 524 989 524 967 Z M 340 616 C 326 545 313 480 302 420 C 290 360 280 302 272 247 C 263 191 256 137 250 83 C 244 29 240 -26 238 -84 C 236 -123 232 -162 228 -200 C 223 -238 215 -273 204 -303 C 192 -333 176 -358 154 -377 C 132 -396 104 -406 68 -406 C 46 -406 26 -402 8 -395 C -9 -388 -25 -378 -38 -366 C -51 -354 -61 -339 -69 -322 C -76 -304 -80 -285 -80 -264 C -80 -252 -79 -240 -78 -228 C -76 -216 -74 -202 -70 -186 C -66 -170 -59 -150 -51 -128 C -43 -106 -32 -79 -18 -47 C -2 -11 10 20 22 48 C 34 76 45 102 55 127 C 65 151 74 175 83 199 C 92 222 102 247 112 274 C 122 301 132 331 144 364 C 156 396 169 434 184 477 C 188 491 194 506 200 522 C 206 538 211 554 217 570 C 222 586 227 600 232 613 C 237 626 241 636 244 643 L 340 616 Z" unicode="" />
<glyph horiz-adv-x="928" d="M 932 956 C 932 937 929 919 923 903 C 917 887 908 873 898 861 C 888 849 876 839 862 833 C 848 826 833 823 817 823 C 803 823 789 825 775 831 C 761 836 748 844 737 855 C 726 865 717 878 710 893 C 703 907 700 924 700 944 C 700 951 701 960 703 970 C 705 980 707 991 709 1004 C 697 1014 685 1022 673 1028 C 661 1034 646 1038 629 1038 C 602 1038 577 1032 555 1020 C 533 1008 513 993 495 973 C 477 953 461 931 447 905 C 433 879 421 851 412 823 C 403 794 396 765 392 736 C 387 706 385 679 385 653 C 385 574 402 513 437 471 C 471 429 517 408 573 408 C 595 408 615 409 634 413 C 653 417 671 422 689 430 C 707 437 724 446 741 457 C 757 468 775 481 793 496 L 836 432 C 845 418 850 406 850 395 C 850 379 840 363 821 346 C 802 328 777 312 745 298 C 713 284 677 272 636 262 C 595 252 553 248 510 248 L 502 248 L 436 -20 L 330 -20 L 403 260 C 359 271 320 289 288 313 C 256 337 229 365 208 399 C 187 432 172 469 162 510 C 152 550 147 593 147 639 C 147 675 151 712 161 751 C 171 789 185 827 203 864 C 221 901 244 936 271 970 C 298 1004 329 1034 364 1061 C 398 1087 436 1109 478 1126 C 520 1143 565 1154 614 1159 L 666 1366 L 770 1366 L 719 1157 C 757 1151 790 1141 817 1127 C 844 1112 866 1095 883 1076 C 900 1056 912 1036 920 1015 C 928 993 932 974 932 956 Z" unicode="" />
<glyph horiz-adv-x="1077" d="M 1106 1167 C 1106 1143 1102 1122 1094 1104 C 1086 1086 1075 1071 1063 1059 C 1051 1047 1037 1039 1023 1033 C 1008 1027 994 1024 981 1024 C 965 1024 951 1026 937 1032 C 923 1038 911 1046 901 1056 C 891 1066 883 1079 877 1094 C 871 1108 868 1125 868 1143 C 868 1161 870 1177 875 1190 C 879 1202 885 1216 891 1231 C 879 1240 866 1247 850 1252 C 834 1257 815 1260 795 1260 C 780 1260 763 1256 744 1249 C 724 1241 705 1229 687 1212 C 668 1194 651 1171 636 1143 C 620 1115 610 1080 604 1038 C 600 1010 598 985 598 963 C 597 940 597 917 597 894 C 597 871 596 847 596 821 C 595 795 593 767 590 735 L 856 735 L 827 623 L 571 623 C 561 585 551 552 540 522 C 528 492 516 465 502 440 C 488 414 474 390 459 367 C 443 343 428 319 412 295 C 426 283 442 270 462 256 C 482 242 503 230 527 218 C 551 206 576 196 603 188 C 629 180 656 176 684 176 C 695 176 708 177 722 179 C 736 181 748 184 758 190 C 758 216 762 239 770 258 C 778 276 788 291 800 303 C 812 314 825 322 839 328 C 853 333 867 336 881 336 C 899 336 915 332 930 324 C 945 316 958 306 968 293 C 978 280 986 265 992 248 C 998 231 1001 213 1001 195 C 1001 161 993 132 978 106 C 963 80 943 58 918 41 C 893 23 864 10 832 1 C 799 -7 765 -12 731 -12 C 695 -12 658 -6 619 5 C 580 17 542 31 506 49 C 469 66 435 84 403 104 C 371 124 344 142 324 158 C 292 100 260 55 228 25 C 196 -4 162 -20 125 -20 C 105 -20 88 -16 76 -9 C 63 -1 53 7 46 18 C 38 28 33 39 31 51 C 28 63 27 73 27 82 C 27 103 30 121 36 137 C 42 152 52 167 66 181 C 79 195 95 209 115 224 C 135 238 158 256 186 276 C 209 294 228 314 244 338 C 260 362 273 388 284 417 C 295 446 304 478 312 512 C 319 546 326 583 332 623 L 135 623 L 164 735 L 338 735 C 338 747 339 759 339 770 C 339 780 340 791 341 801 C 341 811 342 821 343 832 C 344 842 346 854 348 866 C 360 952 381 1028 411 1094 C 441 1160 477 1215 519 1259 C 561 1303 609 1337 662 1360 C 715 1383 771 1395 829 1395 C 871 1395 909 1389 943 1377 C 977 1365 1006 1348 1030 1328 C 1054 1307 1073 1283 1086 1255 C 1099 1227 1106 1198 1106 1167 Z" unicode="" />
<glyph horiz-adv-x="1159" d="M 1212 1169 C 1212 1141 1207 1118 1199 1099 C 1191 1080 1180 1065 1168 1053 C 1155 1041 1141 1032 1126 1026 C 1110 1020 1095 1018 1081 1018 C 1063 1018 1046 1021 1030 1028 C 1014 1034 999 1044 987 1056 C 974 1068 964 1082 957 1099 C 949 1116 946 1135 946 1157 C 946 1174 948 1190 952 1204 C 956 1218 963 1233 973 1251 C 959 1257 946 1262 934 1264 C 922 1266 908 1268 893 1268 C 815 1268 749 1233 693 1164 C 637 1095 589 996 549 868 L 911 868 L 889 764 L 522 764 C 516 737 510 712 505 688 C 499 664 494 638 489 608 L 801 608 L 778 504 L 475 504 C 473 486 471 470 471 455 C 471 440 471 426 471 412 C 471 318 490 249 529 206 C 568 162 623 141 694 141 C 724 141 754 146 784 158 C 814 169 844 184 873 202 C 901 220 928 241 953 264 C 977 287 999 310 1018 334 L 1063 272 C 1073 259 1079 247 1079 236 C 1079 226 1073 212 1063 196 C 1052 179 1037 161 1017 143 C 997 124 974 105 946 85 C 918 65 887 48 853 33 C 819 17 782 5 742 -5 C 702 -15 660 -20 616 -20 C 550 -20 492 -8 442 14 C 392 36 349 68 315 109 C 281 149 255 198 237 254 C 219 310 211 372 211 440 C 211 450 211 461 211 471 C 211 481 211 492 213 504 L 63 504 L 88 608 L 223 608 C 227 636 231 662 236 688 C 240 713 246 738 254 764 L 113 764 L 135 868 L 289 868 C 321 953 359 1028 405 1094 C 450 1160 500 1215 554 1259 C 608 1303 666 1337 728 1360 C 789 1383 851 1395 915 1395 C 959 1395 1000 1389 1037 1379 C 1073 1368 1105 1353 1131 1333 C 1157 1313 1177 1289 1191 1261 C 1205 1233 1212 1203 1212 1169 Z" unicode="" />
<glyph horiz-adv-x="1264" d="M 1423 1376 L 1413 1327 C 1410 1313 1408 1303 1406 1295 C 1404 1287 1401 1279 1396 1273 C 1391 1267 1383 1261 1373 1255 C 1363 1249 1348 1243 1329 1235 C 1322 1231 1314 1226 1304 1218 C 1294 1210 1284 1201 1274 1191 C 1263 1180 1252 1169 1242 1157 C 1231 1145 1222 1134 1214 1124 L 956 801 L 1198 801 L 1171 692 L 866 692 L 745 543 L 1141 543 L 1112 434 L 717 434 L 680 285 C 676 267 672 249 669 230 C 665 211 664 194 664 180 C 664 168 667 160 674 154 C 681 148 694 140 713 131 C 724 125 733 120 740 116 C 746 112 750 106 750 98 C 750 92 749 87 747 82 C 745 76 744 72 743 68 L 725 0 L 268 0 L 279 57 C 281 69 282 78 284 86 C 286 93 289 99 293 105 C 297 110 303 115 311 119 C 319 123 330 127 344 133 C 354 136 362 140 370 144 C 378 148 384 154 390 162 C 396 170 401 180 406 192 C 411 204 416 220 422 240 L 471 434 L 106 434 L 135 543 L 492 543 L 500 575 L 465 692 L 166 692 L 193 801 L 434 801 L 342 1106 C 329 1146 315 1177 300 1199 C 285 1221 269 1235 252 1241 C 236 1246 225 1252 219 1258 C 212 1264 209 1272 209 1284 C 209 1290 209 1296 211 1302 C 212 1308 213 1315 215 1323 L 229 1376 L 694 1376 L 686 1333 C 682 1311 677 1294 671 1280 C 665 1266 652 1255 631 1247 C 619 1243 609 1239 602 1236 C 595 1233 590 1230 586 1227 C 582 1223 580 1219 579 1215 C 578 1211 578 1205 578 1198 C 578 1188 579 1175 583 1160 C 586 1144 590 1129 594 1114 L 709 727 L 1012 1122 C 1014 1126 1018 1131 1024 1139 C 1029 1146 1034 1154 1039 1163 C 1043 1171 1047 1180 1051 1188 C 1055 1196 1057 1204 1057 1212 C 1057 1221 1053 1228 1045 1232 C 1037 1236 1029 1241 1022 1245 C 1014 1249 1006 1253 998 1258 C 990 1262 987 1270 987 1280 C 987 1282 987 1286 989 1294 C 990 1302 991 1307 991 1311 L 1004 1376 L 1423 1376 Z" unicode="" />
<glyph horiz-adv-x="973" d="M 1044 1255 C 1044 1207 1030 1171 1004 1145 C 978 1119 945 1106 905 1106 C 887 1106 870 1109 855 1115 C 840 1121 827 1130 816 1142 C 805 1154 797 1167 791 1183 C 785 1199 782 1216 782 1235 C 782 1259 788 1281 800 1299 C 812 1317 826 1334 844 1350 C 834 1354 824 1359 815 1365 C 806 1370 796 1375 785 1379 C 774 1383 762 1386 749 1389 C 735 1391 720 1393 702 1393 C 673 1393 647 1388 625 1379 C 603 1369 584 1357 569 1342 C 553 1326 542 1309 534 1289 C 526 1269 522 1249 522 1229 C 522 1207 525 1186 531 1168 C 537 1149 545 1131 556 1114 C 567 1096 580 1079 596 1062 C 611 1045 628 1027 647 1008 L 784 860 C 824 817 854 780 876 749 C 897 717 913 689 923 665 C 933 641 938 619 940 599 C 941 579 942 559 942 539 C 942 489 932 444 914 406 C 896 367 873 333 847 305 C 820 277 791 253 761 234 C 731 215 704 200 680 190 C 701 149 715 115 721 88 C 727 61 731 36 731 14 C 731 -37 722 -84 704 -127 C 686 -170 660 -207 626 -239 C 592 -271 550 -295 502 -313 C 453 -331 398 -340 338 -340 C 293 -340 254 -335 221 -326 C 188 -317 160 -305 136 -291 C 112 -277 93 -261 78 -243 C 62 -225 50 -208 41 -191 C 32 -173 26 -157 23 -142 C 19 -126 18 -114 18 -104 C 18 -80 21 -58 29 -40 C 36 -21 46 -5 59 6 C 72 18 87 28 105 35 C 123 41 142 45 162 45 C 180 45 196 41 211 35 C 225 29 238 20 249 9 C 259 -1 268 -14 274 -30 C 280 -45 283 -62 283 -80 C 283 -106 277 -128 265 -146 C 253 -163 239 -179 223 -195 C 232 -200 241 -205 250 -211 C 259 -217 269 -222 280 -227 C 290 -231 302 -235 315 -238 C 328 -240 344 -242 362 -242 C 392 -242 419 -237 442 -227 C 465 -217 484 -204 499 -188 C 514 -172 525 -154 533 -134 C 541 -114 545 -94 545 -74 C 545 -51 541 -30 535 -12 C 528 6 519 24 508 41 C 496 58 483 75 468 92 C 452 108 436 126 418 145 L 281 293 C 244 331 215 366 195 398 C 174 430 158 458 148 484 C 138 510 131 533 129 555 C 126 576 125 596 125 614 C 125 663 133 706 151 744 C 168 782 190 815 216 843 C 242 871 270 895 300 915 C 330 935 359 951 385 965 C 374 985 365 1003 359 1019 C 352 1035 347 1049 343 1063 C 339 1077 337 1090 336 1102 C 334 1114 334 1127 334 1141 C 334 1185 341 1229 357 1271 C 372 1313 396 1350 428 1383 C 460 1415 500 1441 550 1461 C 600 1481 659 1491 729 1491 C 779 1491 824 1484 864 1471 C 903 1457 936 1440 963 1418 C 989 1396 1009 1370 1023 1342 C 1037 1314 1044 1285 1044 1255 Z M 756 438 C 756 448 755 460 753 473 C 751 485 748 499 743 513 C 738 527 731 543 721 560 C 711 576 698 594 682 612 L 481 838 C 473 846 465 854 457 863 C 449 871 441 882 434 895 C 394 872 364 847 343 819 C 321 791 311 756 311 713 C 311 702 311 690 313 678 C 314 666 317 652 322 638 C 327 624 334 608 344 592 C 353 576 366 559 383 541 L 586 317 C 594 309 601 300 608 290 C 614 280 624 269 637 256 C 655 268 671 280 686 293 C 700 305 713 319 723 334 C 733 348 741 364 747 381 C 753 397 756 416 756 438 Z" unicode="" />
<glyph horiz-adv-x="797" d="M 819 1151 C 819 1133 815 1116 809 1100 C 802 1084 793 1071 782 1059 C 770 1047 757 1038 742 1032 C 726 1025 710 1022 694 1022 C 677 1022 661 1025 646 1032 C 631 1038 618 1047 606 1059 C 594 1071 585 1084 579 1100 C 572 1116 569 1133 569 1151 C 569 1169 572 1186 579 1202 C 585 1218 594 1231 606 1243 C 618 1255 631 1264 646 1271 C 661 1278 677 1282 694 1282 C 710 1282 726 1278 742 1271 C 757 1264 770 1255 782 1243 C 793 1231 802 1218 809 1202 C 815 1186 819 1169 819 1151 Z M 412 1151 C 412 1133 408 1116 402 1100 C 395 1084 386 1071 375 1059 C 364 1047 351 1038 336 1032 C 321 1025 305 1022 289 1022 C 271 1022 255 1025 240 1032 C 224 1038 211 1047 200 1059 C 188 1071 179 1084 173 1100 C 167 1116 164 1133 164 1151 C 164 1169 167 1186 173 1202 C 179 1218 188 1231 200 1243 C 211 1255 224 1264 240 1271 C 255 1278 271 1282 289 1282 C 305 1282 321 1278 336 1271 C 351 1264 364 1255 375 1243 C 386 1231 395 1218 402 1202 C 408 1186 412 1169 412 1151 Z" unicode="" />
<glyph horiz-adv-x="1659" d="M 1651 729 C 1651 659 1642 592 1624 528 C 1606 464 1581 404 1549 349 C 1516 293 1477 243 1431 198 C 1385 152 1333 113 1277 81 C 1221 49 1160 24 1095 6 C 1029 -11 961 -20 891 -20 C 819 -20 751 -11 686 6 C 621 24 560 49 504 81 C 448 113 397 152 351 198 C 305 243 265 293 233 349 C 200 404 175 464 157 528 C 139 592 131 659 131 729 C 131 798 139 865 157 929 C 175 993 200 1053 233 1109 C 265 1165 305 1215 351 1261 C 397 1307 448 1346 504 1379 C 560 1411 621 1436 687 1454 C 752 1472 820 1481 891 1481 C 961 1481 1029 1472 1095 1454 C 1160 1436 1221 1411 1277 1379 C 1333 1346 1385 1307 1431 1261 C 1477 1215 1516 1165 1549 1109 C 1581 1053 1606 993 1624 929 C 1642 865 1651 798 1651 729 Z M 1565 729 C 1565 791 1557 850 1541 908 C 1525 965 1503 1019 1474 1069 C 1445 1119 1410 1164 1369 1206 C 1328 1247 1283 1282 1233 1312 C 1183 1341 1129 1364 1071 1380 C 1013 1396 953 1405 891 1405 C 797 1405 709 1387 627 1351 C 545 1315 473 1267 413 1206 C 353 1144 305 1073 271 991 C 236 909 219 821 219 729 C 219 667 226 607 242 550 C 258 492 280 439 309 389 C 338 339 373 293 414 252 C 454 211 499 176 549 147 C 599 117 652 95 710 79 C 768 63 828 55 891 55 C 953 55 1013 63 1071 79 C 1129 95 1183 117 1233 147 C 1283 176 1328 211 1369 252 C 1410 293 1445 339 1474 389 C 1503 439 1525 492 1541 550 C 1557 607 1565 667 1565 729 Z M 1241 492 C 1231 470 1215 448 1195 424 C 1175 400 1150 377 1121 357 C 1092 337 1059 320 1022 307 C 985 293 945 287 901 287 C 832 287 772 298 720 322 C 668 345 625 377 591 417 C 556 457 530 503 513 555 C 495 607 487 663 487 721 C 487 794 499 858 525 913 C 550 968 582 1014 622 1051 C 661 1087 705 1115 753 1133 C 801 1151 849 1161 895 1161 C 933 1161 966 1156 996 1148 C 1026 1139 1058 1124 1092 1104 C 1095 1102 1097 1100 1099 1098 C 1100 1096 1102 1096 1106 1098 C 1117 1105 1125 1110 1129 1112 C 1133 1114 1139 1116 1145 1116 L 1198 1116 L 1198 868 L 1133 868 C 1120 868 1111 871 1106 877 C 1101 883 1097 891 1094 899 C 1087 920 1078 941 1067 961 C 1056 981 1043 998 1028 1014 C 1013 1029 996 1041 977 1051 C 958 1060 937 1065 915 1065 C 889 1065 862 1058 835 1046 C 807 1033 782 1013 760 986 C 738 959 719 924 705 882 C 691 839 684 787 684 727 C 684 673 689 625 701 584 C 712 542 728 508 748 480 C 768 452 792 430 820 416 C 848 402 878 395 911 395 C 945 395 977 400 1006 412 C 1034 423 1060 437 1082 453 C 1104 469 1123 487 1139 505 C 1155 523 1168 539 1178 553 L 1241 492 Z" unicode="" />
<glyph horiz-adv-x="942" d="M 999 1362 C 999 1358 998 1355 998 1351 C 997 1347 996 1343 995 1339 C 993 1333 992 1328 991 1324 C 989 1319 988 1315 987 1311 L 870 856 C 866 841 862 827 860 815 C 857 803 856 793 856 786 C 856 780 858 776 863 772 C 867 768 872 766 877 766 C 881 766 884 766 886 766 C 888 766 891 766 895 768 C 899 769 903 770 909 772 C 914 773 922 776 934 782 L 956 743 C 962 734 965 724 965 713 C 965 703 958 693 946 683 C 934 673 918 664 900 656 C 882 648 862 641 841 636 C 820 631 801 629 784 629 C 761 629 742 632 727 639 C 712 646 700 655 691 666 C 681 676 674 688 669 701 C 663 713 659 725 657 737 C 644 725 629 712 613 699 C 596 686 578 674 559 664 C 539 654 518 645 496 639 C 474 632 450 629 426 629 C 387 629 353 636 323 650 C 293 664 269 683 249 708 C 229 733 213 763 203 797 C 193 831 188 869 188 909 C 188 976 200 1039 226 1098 C 252 1157 286 1209 329 1253 C 371 1297 421 1331 477 1357 C 533 1382 591 1395 651 1395 C 690 1395 723 1390 749 1380 C 775 1370 795 1360 811 1350 C 819 1344 827 1340 837 1336 C 847 1332 856 1331 864 1331 C 868 1331 872 1331 876 1333 C 880 1335 884 1337 890 1341 C 895 1345 901 1350 909 1356 C 916 1362 925 1369 936 1378 C 939 1381 944 1385 951 1390 C 958 1394 965 1397 973 1397 C 985 1397 992 1393 995 1386 C 997 1379 999 1371 999 1362 Z M 756 1198 C 756 1206 754 1215 750 1225 C 746 1235 740 1245 732 1254 C 724 1263 713 1271 701 1277 C 688 1283 673 1286 655 1286 C 617 1286 582 1275 550 1253 C 518 1231 491 1202 469 1167 C 446 1132 428 1093 416 1051 C 403 1008 397 966 397 926 C 397 884 406 849 424 823 C 442 797 468 784 502 784 C 520 784 538 786 554 791 C 570 796 586 803 600 811 C 614 819 628 828 640 838 C 652 848 664 858 676 868 L 750 1155 C 751 1162 752 1169 754 1176 C 755 1183 756 1190 756 1198 Z" unicode="" />
<glyph horiz-adv-x="1053" d="M 1047 815 L 748 444 L 895 102 L 743 102 L 535 393 C 529 400 525 408 521 417 C 517 425 516 434 516 444 C 516 460 520 475 530 489 C 540 502 551 514 563 524 L 895 815 L 1047 815 Z M 635 815 L 338 444 L 483 102 L 332 102 L 123 393 C 117 400 113 408 109 417 C 105 425 104 434 104 444 C 104 460 108 475 118 489 C 128 502 139 514 152 524 L 483 815 L 635 815 Z" unicode="" />
<glyph horiz-adv-x="1516" d="M 1354 92 L 1180 92 L 1180 535 L 266 535 L 266 709 L 1354 709 L 1354 92 Z" unicode="" />
<glyph horiz-adv-x="555" d="M 522 557 L 461 319 L 37 319 L 96 557 L 522 557 Z" unicode="" />
<glyph horiz-adv-x="1024" d="M 1184 1034 C 1184 966 1171 903 1145 845 C 1119 786 1085 735 1041 691 C 997 647 945 612 886 587 C 826 561 763 549 696 549 C 628 549 565 561 506 587 C 447 612 396 647 352 691 C 308 735 273 786 247 845 C 221 903 209 966 209 1034 C 209 1101 221 1164 247 1224 C 273 1283 308 1335 352 1379 C 396 1423 447 1457 506 1483 C 565 1509 628 1522 696 1522 C 763 1522 826 1509 886 1483 C 945 1457 997 1423 1041 1379 C 1085 1335 1119 1283 1145 1224 C 1171 1164 1184 1101 1184 1034 Z M 1114 1034 C 1114 1092 1103 1146 1081 1197 C 1059 1247 1030 1292 992 1330 C 954 1368 909 1397 859 1419 C 808 1441 754 1452 696 1452 C 638 1452 583 1441 533 1419 C 482 1397 438 1368 400 1330 C 362 1292 333 1247 311 1197 C 289 1146 279 1092 279 1034 C 279 976 289 921 311 871 C 333 820 362 776 400 738 C 438 700 482 671 533 649 C 583 627 638 616 696 616 C 754 616 808 627 859 649 C 909 671 954 700 992 738 C 1030 776 1059 820 1081 871 C 1103 921 1114 976 1114 1034 Z M 901 764 L 791 764 L 700 969 L 610 969 L 610 764 L 508 764 L 508 1290 L 723 1290 C 745 1290 766 1286 788 1280 C 809 1273 828 1263 845 1250 C 861 1237 875 1221 885 1201 C 895 1181 901 1159 901 1133 C 901 1099 892 1068 875 1042 C 858 1016 833 996 801 983 L 901 764 Z M 786 1130 C 786 1152 779 1167 765 1177 C 751 1187 734 1192 715 1192 L 610 1192 L 610 1069 L 713 1069 C 719 1069 727 1070 736 1072 C 744 1074 752 1078 760 1083 C 767 1088 773 1094 778 1102 C 783 1110 786 1119 786 1130 Z" unicode="" />
<glyph horiz-adv-x="797" d="M 741 1227 L 705 1075 L 57 1075 L 94 1227 L 741 1227 Z" unicode="" />
<glyph horiz-adv-x="690" d="M 739 1212 C 739 1172 732 1135 718 1101 C 704 1067 684 1037 660 1012 C 635 986 606 966 574 952 C 541 937 506 930 469 930 C 431 930 396 937 363 952 C 330 966 301 986 277 1012 C 253 1037 234 1067 220 1101 C 206 1135 199 1172 199 1212 C 199 1251 206 1288 220 1322 C 234 1356 253 1386 277 1412 C 301 1438 330 1458 363 1473 C 396 1487 431 1495 469 1495 C 506 1495 541 1487 574 1473 C 606 1458 635 1438 660 1412 C 684 1386 704 1356 718 1322 C 732 1288 739 1251 739 1212 Z M 612 1212 C 612 1233 608 1253 601 1273 C 594 1293 584 1310 572 1325 C 560 1340 545 1352 527 1361 C 509 1369 490 1374 469 1374 C 447 1374 428 1369 411 1361 C 393 1352 378 1340 366 1325 C 354 1310 344 1293 338 1273 C 331 1253 328 1233 328 1212 C 328 1190 331 1170 338 1150 C 344 1130 354 1113 366 1099 C 378 1084 393 1072 411 1064 C 428 1055 447 1051 469 1051 C 490 1051 509 1055 527 1064 C 545 1072 560 1084 572 1099 C 584 1113 594 1130 601 1150 C 608 1170 612 1190 612 1212 Z" unicode="" />
<glyph horiz-adv-x="1516" d="M 1364 696 L 903 696 L 903 276 L 729 276 L 729 696 L 268 696 L 268 870 L 729 870 L 729 1290 L 903 1290 L 903 870 L 1364 870 L 1364 696 Z M 1364 0 L 268 0 L 268 174 L 1364 174 L 1364 0 Z" unicode="" />
<glyph horiz-adv-x="834" d="M 858 1288 C 858 1259 853 1232 844 1208 C 835 1183 824 1160 810 1140 C 796 1120 781 1102 765 1086 C 748 1070 732 1057 717 1047 L 627 983 C 569 943 519 909 478 882 C 436 855 404 835 381 823 L 387 813 L 616 813 C 624 813 631 813 638 814 C 644 815 651 818 657 822 C 663 826 670 832 676 841 C 682 849 688 861 694 877 C 696 883 699 888 704 892 C 709 896 721 897 741 893 L 780 885 L 723 664 L 166 664 L 195 768 C 235 810 271 843 302 869 C 333 894 356 912 371 924 L 522 1044 C 537 1056 554 1071 573 1089 C 591 1107 609 1127 625 1149 C 641 1171 654 1196 665 1223 C 676 1250 682 1279 682 1311 C 682 1329 678 1344 672 1357 C 665 1370 656 1381 646 1390 C 636 1399 624 1406 610 1410 C 596 1414 583 1417 569 1417 C 547 1417 529 1413 515 1407 C 501 1400 485 1391 469 1380 C 482 1368 491 1357 497 1347 C 503 1337 506 1325 506 1309 C 506 1297 503 1286 499 1275 C 495 1263 489 1253 481 1244 C 473 1234 463 1227 452 1221 C 440 1215 428 1212 414 1212 C 386 1212 363 1220 343 1237 C 323 1254 313 1277 313 1307 C 313 1330 319 1354 331 1378 C 343 1402 362 1425 386 1445 C 410 1465 439 1481 474 1494 C 508 1506 548 1513 594 1513 C 630 1513 664 1508 696 1500 C 728 1492 756 1478 780 1460 C 804 1442 823 1418 837 1390 C 851 1362 858 1328 858 1288 Z" unicode="" />
<glyph horiz-adv-x="831" d="M 852 1313 C 852 1281 845 1253 833 1231 C 820 1208 804 1189 784 1173 C 764 1157 742 1143 718 1133 C 693 1123 669 1114 645 1106 C 665 1094 683 1082 700 1070 C 717 1058 732 1044 744 1029 C 756 1014 766 997 773 979 C 780 961 784 940 784 918 C 784 878 776 841 760 809 C 744 776 721 748 692 724 C 662 700 627 682 585 670 C 543 657 497 651 446 651 C 408 651 373 654 341 662 C 308 669 279 680 255 695 C 230 709 211 727 197 749 C 183 771 176 796 176 825 C 176 852 184 875 201 893 C 217 911 240 920 268 920 C 293 920 314 911 330 895 C 346 878 354 853 354 819 C 354 811 353 804 353 798 C 352 792 351 784 350 776 C 376 757 404 748 436 748 C 466 748 491 753 512 764 C 533 775 550 790 564 808 C 577 826 587 846 593 870 C 599 894 602 918 602 944 C 602 971 597 993 587 1009 C 577 1025 563 1037 547 1046 C 530 1054 511 1060 490 1064 C 468 1067 446 1069 424 1071 L 449 1157 C 465 1157 480 1158 492 1158 C 504 1158 515 1158 525 1159 C 535 1160 544 1161 553 1163 C 562 1165 572 1167 584 1171 C 612 1180 635 1199 651 1228 C 667 1256 676 1289 676 1325 C 676 1353 667 1376 651 1392 C 634 1408 612 1417 586 1417 C 574 1417 563 1415 552 1413 C 540 1410 529 1406 518 1401 C 520 1391 521 1384 522 1379 C 523 1374 524 1370 524 1366 C 524 1352 521 1340 516 1330 C 510 1320 503 1311 495 1305 C 487 1299 478 1294 468 1291 C 458 1287 448 1286 438 1286 C 413 1286 393 1293 377 1309 C 361 1324 354 1344 354 1370 C 354 1390 359 1408 370 1426 C 380 1443 396 1458 416 1471 C 436 1484 459 1494 487 1502 C 515 1509 546 1513 580 1513 C 624 1513 662 1507 696 1496 C 730 1485 758 1470 781 1452 C 804 1434 822 1413 834 1389 C 846 1365 852 1339 852 1313 Z" unicode="" />
<glyph horiz-adv-x="797" d="M 762 1282 C 762 1261 755 1241 741 1222 C 727 1202 704 1181 670 1159 L 387 973 L 328 1016 L 555 1319 C 565 1333 576 1344 587 1352 C 597 1360 608 1367 618 1371 C 628 1375 637 1378 647 1380 C 657 1381 666 1382 674 1382 C 702 1382 723 1372 739 1352 C 754 1332 762 1308 762 1282 Z" unicode="" />
<glyph horiz-adv-x="1264" d="M 1411 1495 L 1403 1460 C 1399 1443 1396 1430 1394 1422 C 1392 1414 1388 1407 1384 1402 C 1379 1396 1372 1391 1362 1387 C 1352 1382 1337 1375 1317 1366 C 1311 1363 1306 1360 1301 1356 C 1296 1352 1291 1347 1286 1339 C 1281 1331 1276 1319 1271 1305 C 1266 1291 1261 1272 1255 1249 L 936 -31 C 934 -37 933 -44 931 -52 C 929 -60 927 -68 925 -76 C 923 -84 922 -92 921 -100 C 920 -108 920 -115 920 -121 C 920 -130 922 -138 926 -146 C 930 -154 938 -162 952 -170 C 960 -174 966 -178 972 -180 C 978 -182 982 -185 986 -187 C 990 -189 992 -192 994 -195 C 996 -198 997 -203 997 -209 C 997 -215 996 -221 995 -229 C 993 -236 992 -244 991 -252 L 981 -291 L 688 -291 L 1108 1386 L 952 1386 L 532 -291 L 256 -291 L 264 -256 C 268 -239 271 -226 273 -218 C 275 -209 278 -202 283 -197 C 287 -192 295 -187 305 -183 C 315 -178 330 -171 350 -162 C 355 -159 360 -156 365 -153 C 369 -149 374 -144 379 -136 C 384 -128 389 -116 395 -102 C 400 -88 406 -68 412 -43 L 575 610 C 545 612 513 615 481 619 C 449 623 417 629 386 639 C 354 648 325 661 297 677 C 269 693 244 714 223 740 C 201 766 184 797 172 835 C 160 873 154 918 154 971 C 154 1005 157 1041 163 1080 C 169 1119 181 1158 198 1197 C 215 1235 238 1273 267 1309 C 296 1345 333 1376 379 1404 C 425 1432 479 1454 543 1470 C 607 1486 682 1495 768 1495 L 1411 1495 Z M 768 1384 C 714 1382 668 1368 630 1340 C 591 1312 559 1277 534 1235 C 509 1192 491 1144 479 1092 C 467 1040 461 988 461 936 C 461 896 465 864 475 840 C 485 815 497 795 512 781 C 526 766 542 755 559 749 C 576 743 592 738 606 735 L 768 1384 Z" unicode="" />
<glyph horiz-adv-x="516" d="M 449 705 C 449 683 445 662 437 643 C 429 624 419 608 406 594 C 392 580 377 569 359 561 C 341 553 323 549 303 549 C 283 549 264 553 246 561 C 228 569 213 580 199 594 C 185 608 175 624 167 643 C 159 662 156 683 156 705 C 156 725 159 745 167 764 C 175 782 185 799 199 813 C 213 827 228 838 246 846 C 264 854 283 858 303 858 C 323 858 341 854 359 846 C 377 838 392 827 406 813 C 419 799 429 782 437 764 C 445 745 449 725 449 705 Z" unicode="" />
<glyph horiz-adv-x="797" d="M 578 -258 C 578 -279 573 -301 565 -324 C 556 -347 542 -368 522 -388 C 502 -407 476 -423 444 -436 C 412 -448 372 -455 326 -455 C 298 -455 271 -451 246 -444 C 221 -436 198 -427 176 -415 C 154 -403 135 -391 117 -377 C 99 -363 82 -350 68 -338 L 123 -262 C 135 -272 149 -282 163 -292 C 177 -302 192 -312 208 -320 C 224 -328 241 -335 259 -341 C 277 -347 297 -350 319 -350 C 337 -350 352 -347 364 -341 C 376 -335 385 -327 392 -319 C 398 -310 403 -301 406 -291 C 408 -281 410 -272 410 -264 C 410 -247 403 -231 389 -217 C 375 -202 353 -195 322 -195 C 308 -195 286 -197 258 -201 L 381 2 L 473 2 L 414 -100 C 467 -105 508 -122 536 -150 C 564 -178 578 -214 578 -258 Z" unicode="" />
<glyph horiz-adv-x="659" d="M 668 1516 L 498 864 C 494 852 492 839 490 827 C 488 815 487 804 487 795 C 487 785 490 776 497 767 C 503 757 514 749 528 743 C 537 739 546 736 554 734 C 562 732 567 728 567 723 C 567 717 566 712 566 708 C 565 704 564 698 563 692 L 555 664 L 178 664 L 184 688 C 187 699 190 707 192 712 C 194 717 198 721 203 724 C 207 726 213 729 221 732 C 228 735 238 740 252 748 C 258 750 264 753 270 756 C 276 759 281 764 287 770 C 293 776 298 785 304 796 C 309 807 314 822 319 840 L 455 1370 L 334 1370 L 346 1417 C 350 1435 357 1446 369 1450 L 541 1516 L 668 1516 Z" unicode="" />
<glyph horiz-adv-x="942" d="M 948 1061 C 948 1002 936 946 914 894 C 892 841 861 795 822 755 C 782 715 736 683 682 660 C 628 636 570 625 508 625 C 451 625 402 635 362 656 C 322 676 289 703 263 735 C 237 767 218 802 206 840 C 194 878 188 915 188 950 C 188 1006 198 1061 218 1115 C 238 1169 266 1216 304 1258 C 341 1299 386 1332 440 1357 C 493 1382 553 1395 621 1395 C 663 1395 703 1387 742 1373 C 781 1358 816 1336 847 1308 C 877 1280 902 1245 920 1204 C 938 1162 948 1115 948 1061 Z M 737 1149 C 737 1194 725 1228 703 1252 C 681 1276 653 1288 621 1288 C 593 1288 568 1281 546 1267 C 524 1253 504 1235 488 1213 C 471 1191 457 1165 445 1137 C 433 1108 423 1078 416 1047 C 408 1016 403 985 400 955 C 396 925 395 897 395 872 C 395 840 400 814 411 796 C 421 777 433 763 447 753 C 461 743 474 737 488 735 C 502 732 512 731 518 731 C 544 731 568 738 590 752 C 611 766 630 785 646 808 C 662 831 676 857 688 887 C 699 917 708 947 716 978 C 723 1009 728 1039 732 1069 C 735 1099 737 1125 737 1149 Z" unicode="" />
<glyph horiz-adv-x="1053" d="M 956 473 C 956 456 951 441 942 428 C 932 415 922 403 911 393 L 580 102 L 428 102 L 723 473 L 578 815 L 729 815 L 938 524 C 943 516 947 508 951 500 C 954 491 956 482 956 473 Z M 545 473 C 545 456 540 441 531 428 C 521 415 511 403 500 393 L 168 102 L 16 102 L 313 473 L 166 815 L 317 815 L 526 524 C 531 516 535 508 539 500 C 543 491 545 482 545 473 Z" unicode="" />
<glyph horiz-adv-x="1413" d="M 1435 852 L 1296 313 L 1407 313 L 1382 219 L 1267 219 C 1263 195 1259 177 1257 163 C 1254 149 1253 138 1253 129 C 1253 121 1255 112 1261 104 C 1266 96 1276 88 1292 80 C 1297 76 1302 72 1308 70 C 1313 68 1316 64 1316 59 C 1316 55 1315 51 1314 46 C 1313 41 1312 36 1310 31 L 1302 0 L 974 0 L 981 27 C 983 37 986 45 988 51 C 990 57 993 61 997 65 C 1001 68 1005 71 1011 74 C 1017 76 1024 80 1034 86 C 1040 88 1045 91 1051 93 C 1056 95 1061 98 1066 104 C 1070 110 1075 118 1079 129 C 1083 139 1088 154 1093 174 L 1103 219 L 739 219 L 776 332 L 1316 852 L 1435 852 Z M 1222 647 L 880 313 L 1130 313 L 1222 647 Z M 1399 1495 L 307 -20 L 176 -20 L 1268 1495 L 1399 1495 Z M 668 1516 L 498 864 C 494 852 492 839 490 827 C 488 815 487 804 487 795 C 487 785 490 776 497 767 C 503 757 514 749 528 743 C 537 739 546 736 554 734 C 562 732 567 728 567 723 C 567 717 566 712 566 708 C 565 704 564 698 563 692 L 555 664 L 178 664 L 184 688 C 187 699 190 707 192 712 C 194 717 198 721 203 724 C 207 726 213 729 221 732 C 228 735 238 740 252 748 C 258 750 264 753 270 756 C 276 759 281 764 287 770 C 293 776 298 785 304 796 C 309 807 314 822 319 840 L 455 1370 L 334 1370 L 346 1417 C 350 1435 357 1446 369 1450 L 541 1516 L 668 1516 Z" unicode="" />
<glyph horiz-adv-x="1597" d="M 668 1516 L 498 864 C 494 852 492 839 490 827 C 488 815 487 804 487 795 C 487 785 490 776 497 767 C 503 757 514 749 528 743 C 537 739 546 736 554 734 C 562 732 567 728 567 723 C 567 717 566 712 566 708 C 565 704 564 698 563 692 L 555 664 L 178 664 L 184 688 C 187 699 190 707 192 712 C 194 717 198 721 203 724 C 207 726 213 729 221 732 C 228 735 238 740 252 748 C 258 750 264 753 270 756 C 276 759 281 764 287 770 C 293 776 298 785 304 796 C 309 807 314 822 319 840 L 455 1370 L 334 1370 L 346 1417 C 350 1435 357 1446 369 1450 L 541 1516 L 668 1516 Z M 1496 625 C 1496 596 1491 569 1482 545 C 1473 520 1462 497 1448 477 C 1434 457 1419 439 1403 423 C 1386 407 1370 394 1355 384 L 1265 320 C 1207 280 1157 246 1116 219 C 1074 192 1042 172 1019 160 L 1025 150 L 1254 150 C 1262 150 1269 150 1276 151 C 1282 152 1289 155 1295 159 C 1301 163 1308 169 1314 178 C 1320 186 1326 198 1332 214 C 1334 220 1337 225 1342 229 C 1347 233 1359 234 1379 230 L 1418 222 L 1361 1 L 804 1 L 833 105 C 873 147 909 180 940 206 C 971 231 994 249 1009 261 L 1160 381 C 1175 393 1192 408 1211 426 C 1229 444 1247 464 1263 486 C 1279 508 1292 533 1303 560 C 1314 587 1320 616 1320 648 C 1320 666 1316 681 1310 694 C 1303 707 1294 718 1284 727 C 1274 736 1262 743 1248 747 C 1234 751 1221 754 1207 754 C 1185 754 1167 750 1153 744 C 1139 737 1123 728 1107 717 C 1120 705 1129 694 1135 684 C 1141 674 1144 662 1144 646 C 1144 634 1141 623 1137 612 C 1133 600 1127 590 1119 581 C 1111 571 1101 564 1090 558 C 1078 552 1066 549 1052 549 C 1024 549 1001 557 981 574 C 961 591 951 614 951 644 C 951 667 957 691 969 715 C 981 739 1000 762 1024 782 C 1048 802 1077 818 1112 831 C 1146 843 1186 850 1232 850 C 1268 850 1302 845 1334 837 C 1366 829 1394 815 1418 797 C 1442 779 1461 755 1475 727 C 1489 699 1496 665 1496 625 Z M 1393 1495 L 301 -20 L 170 -20 L 1262 1495 L 1393 1495 Z" unicode="" />
<glyph horiz-adv-x="1561" d="M 852 1313 C 852 1281 845 1253 833 1231 C 820 1208 804 1189 784 1173 C 764 1157 742 1143 718 1133 C 693 1123 669 1114 645 1106 C 665 1094 683 1082 700 1070 C 717 1058 732 1044 744 1029 C 756 1014 766 997 773 979 C 780 961 784 940 784 918 C 784 878 776 841 760 809 C 744 776 721 748 692 724 C 662 700 627 682 585 670 C 543 657 497 651 446 651 C 408 651 373 654 341 662 C 308 669 279 680 255 695 C 230 709 211 727 197 749 C 183 771 176 796 176 825 C 176 852 184 875 201 893 C 217 911 240 920 268 920 C 293 920 314 911 330 895 C 346 878 354 853 354 819 C 354 811 353 804 353 798 C 352 792 351 784 350 776 C 376 757 404 748 436 748 C 466 748 491 753 512 764 C 533 775 550 790 564 808 C 577 826 587 846 593 870 C 599 894 602 918 602 944 C 602 971 597 993 587 1009 C 577 1025 563 1037 547 1046 C 530 1054 511 1060 490 1064 C 468 1067 446 1069 424 1071 L 449 1157 C 465 1157 480 1158 492 1158 C 504 1158 515 1158 525 1159 C 535 1160 544 1161 553 1163 C 562 1165 572 1167 584 1171 C 612 1180 635 1199 651 1228 C 667 1256 676 1289 676 1325 C 676 1353 667 1376 651 1392 C 634 1408 612 1417 586 1417 C 574 1417 563 1415 552 1413 C 540 1410 529 1406 518 1401 C 520 1391 521 1384 522 1379 C 523 1374 524 1370 524 1366 C 524 1352 521 1340 516 1330 C 510 1320 503 1311 495 1305 C 487 1299 478 1294 468 1291 C 458 1287 448 1286 438 1286 C 413 1286 393 1293 377 1309 C 361 1324 354 1344 354 1370 C 354 1390 359 1408 370 1426 C 380 1443 396 1458 416 1471 C 436 1484 459 1494 487 1502 C 515 1509 546 1513 580 1513 C 624 1513 662 1507 696 1496 C 730 1485 758 1470 781 1452 C 804 1434 822 1413 834 1389 C 846 1365 852 1339 852 1313 Z M 1578 852 L 1439 313 L 1550 313 L 1525 219 L 1410 219 C 1406 195 1402 177 1400 163 C 1397 149 1396 138 1396 129 C 1396 121 1398 112 1404 104 C 1409 96 1419 88 1435 80 C 1440 76 1445 72 1451 70 C 1456 68 1459 64 1459 59 C 1459 55 1458 51 1457 46 C 1456 41 1455 36 1453 31 L 1445 0 L 1117 0 L 1124 27 C 1126 37 1129 45 1131 51 C 1133 57 1136 61 1140 65 C 1144 68 1148 71 1154 74 C 1160 76 1167 80 1177 86 C 1183 88 1188 91 1194 93 C 1199 95 1204 98 1209 104 C 1213 110 1218 118 1222 129 C 1226 139 1231 154 1236 174 L 1246 219 L 882 219 L 919 332 L 1459 852 L 1578 852 Z M 1365 647 L 1023 313 L 1273 313 L 1365 647 Z M 1546 1495 L 454 -20 L 323 -20 L 1415 1495 L 1546 1495 Z" unicode="" />
<glyph horiz-adv-x="852" d="M 727 967 C 727 945 723 924 715 904 C 707 884 696 867 682 853 C 668 838 651 826 633 818 C 614 809 594 805 573 805 C 551 805 531 809 512 818 C 493 826 477 838 463 853 C 449 867 438 884 430 904 C 422 924 418 945 418 967 C 418 989 422 1010 430 1030 C 438 1050 449 1067 463 1082 C 477 1096 493 1108 512 1117 C 531 1125 551 1130 573 1130 C 594 1130 614 1125 633 1117 C 651 1108 668 1096 682 1082 C 696 1067 707 1050 715 1030 C 723 1010 727 989 727 967 Z M 616 -174 C 616 -204 610 -230 600 -253 C 590 -276 576 -296 559 -314 C 541 -331 521 -345 499 -357 C 477 -369 454 -378 430 -386 C 406 -393 383 -398 359 -401 C 335 -404 314 -406 295 -406 C 245 -406 199 -397 159 -381 C 118 -364 83 -341 54 -312 C 25 -283 3 -249 -13 -211 C -29 -172 -37 -131 -37 -88 C -37 -47 -31 -11 -20 19 C -9 50 6 79 28 106 C 50 133 76 160 108 187 C 139 213 175 243 217 276 C 255 306 287 335 313 364 C 338 393 359 422 376 450 C 393 478 407 505 418 532 C 429 558 439 584 449 610 L 559 600 C 555 560 549 525 540 493 C 531 461 519 430 505 402 C 491 374 474 346 455 318 C 435 290 413 261 389 231 C 364 201 341 172 319 144 C 297 116 279 88 263 60 C 247 32 234 2 225 -27 C 215 -57 211 -90 211 -125 C 211 -176 221 -215 241 -241 C 261 -267 286 -281 315 -281 C 328 -281 340 -278 350 -273 C 360 -268 370 -263 379 -258 C 373 -248 368 -237 364 -226 C 360 -215 358 -200 358 -182 C 358 -159 361 -139 368 -122 C 375 -105 385 -91 397 -80 C 409 -68 422 -60 438 -54 C 454 -48 470 -45 487 -45 C 507 -45 526 -48 542 -56 C 558 -64 571 -74 582 -86 C 593 -98 601 -111 607 -127 C 613 -142 616 -158 616 -174 Z" unicode="" />
<glyph horiz-adv-x="1352" d="M 1085 1653 L 1030 1602 L 713 1751 C 691 1761 673 1771 659 1781 C 645 1791 633 1801 625 1811 C 616 1821 610 1832 607 1844 C 603 1855 602 1867 602 1880 C 602 1906 610 1929 627 1948 C 643 1966 669 1976 705 1976 C 718 1976 733 1973 750 1968 C 767 1962 786 1949 807 1929 L 1085 1653 Z M 1288 78 C 1288 72 1287 66 1285 58 C 1283 50 1282 42 1280 35 L 1272 0 L 772 0 L 784 59 C 786 69 788 77 791 82 C 794 86 797 90 801 94 C 807 98 815 103 824 109 C 832 115 841 120 849 126 C 857 132 863 137 869 141 C 875 145 879 148 881 150 C 885 153 888 157 890 163 C 892 168 893 174 893 180 C 893 185 892 194 890 208 C 888 221 886 231 885 238 L 864 369 L 340 369 L 250 217 C 246 213 243 206 239 197 C 235 187 233 179 233 172 C 233 157 237 146 247 139 C 256 131 264 126 272 123 C 286 117 297 110 304 104 C 311 98 315 90 315 80 C 315 76 314 71 314 67 C 313 62 312 58 311 55 L 299 0 L -129 0 L -115 63 C -112 74 -109 83 -105 90 C -101 97 -96 103 -91 107 C -86 111 -81 114 -75 116 C -69 118 -63 119 -57 121 C -44 124 -33 128 -25 132 C -17 136 -9 141 -1 149 C 6 156 14 166 23 179 C 31 192 43 209 57 231 L 700 1210 L 664 1411 L 836 1493 C 854 1502 867 1508 875 1511 C 883 1514 891 1516 899 1516 C 905 1516 911 1515 915 1513 C 919 1511 923 1508 927 1502 C 930 1496 933 1488 935 1478 C 937 1468 940 1454 944 1436 L 1153 291 C 1159 256 1164 229 1169 209 C 1174 189 1179 174 1185 164 C 1190 154 1196 147 1203 143 C 1210 139 1219 135 1229 133 C 1243 128 1255 124 1263 120 C 1271 116 1276 111 1280 107 C 1284 102 1286 97 1287 93 C 1287 88 1288 83 1288 78 Z M 836 512 L 750 1014 L 436 512 L 836 512 Z" unicode="" />
<glyph horiz-adv-x="1352" d="M 1108 1880 C 1108 1854 1100 1832 1084 1812 C 1068 1792 1039 1771 997 1751 L 676 1602 L 618 1653 L 903 1929 C 923 1948 942 1961 960 1967 C 977 1973 992 1976 1006 1976 C 1040 1976 1066 1966 1083 1948 C 1099 1929 1108 1906 1108 1880 Z M 1288 78 C 1288 72 1287 66 1285 58 C 1283 50 1282 42 1280 35 L 1272 0 L 772 0 L 784 59 C 786 69 788 77 791 82 C 794 86 797 90 801 94 C 807 98 815 103 824 109 C 832 115 841 120 849 126 C 857 132 863 137 869 141 C 875 145 879 148 881 150 C 885 153 888 157 890 163 C 892 168 893 174 893 180 C 893 185 892 194 890 208 C 888 221 886 231 885 238 L 864 369 L 340 369 L 250 217 C 246 213 243 206 239 197 C 235 187 233 179 233 172 C 233 157 237 146 247 139 C 256 131 264 126 272 123 C 286 117 297 110 304 104 C 311 98 315 90 315 80 C 315 76 314 71 314 67 C 313 62 312 58 311 55 L 299 0 L -129 0 L -115 63 C -112 74 -109 83 -105 90 C -101 97 -96 103 -91 107 C -86 111 -81 114 -75 116 C -69 118 -63 119 -57 121 C -44 124 -33 128 -25 132 C -17 136 -9 141 -1 149 C 6 156 14 166 23 179 C 31 192 43 209 57 231 L 700 1210 L 664 1411 L 836 1493 C 854 1502 867 1508 875 1511 C 883 1514 891 1516 899 1516 C 905 1516 911 1515 915 1513 C 919 1511 923 1508 927 1502 C 930 1496 933 1488 935 1478 C 937 1468 940 1454 944 1436 L 1153 291 C 1159 256 1164 229 1169 209 C 1174 189 1179 174 1185 164 C 1190 154 1196 147 1203 143 C 1210 139 1219 135 1229 133 C 1243 128 1255 124 1263 120 C 1271 116 1276 111 1280 107 C 1284 102 1286 97 1287 93 C 1287 88 1288 83 1288 78 Z M 836 512 L 750 1014 L 436 512 L 836 512 Z" unicode="" />
<glyph horiz-adv-x="1352" d="M 1151 1593 L 1024 1593 L 885 1786 L 641 1593 L 494 1593 L 838 1946 L 971 1946 L 1151 1593 Z M 1288 78 C 1288 72 1287 66 1285 58 C 1283 50 1282 42 1280 35 L 1272 0 L 772 0 L 784 59 C 786 69 788 77 791 82 C 794 86 797 90 801 94 C 807 98 815 103 824 109 C 832 115 841 120 849 126 C 857 132 863 137 869 141 C 875 145 879 148 881 150 C 885 153 888 157 890 163 C 892 168 893 174 893 180 C 893 185 892 194 890 208 C 888 221 886 231 885 238 L 864 369 L 340 369 L 250 217 C 246 213 243 206 239 197 C 235 187 233 179 233 172 C 233 157 237 146 247 139 C 256 131 264 126 272 123 C 286 117 297 110 304 104 C 311 98 315 90 315 80 C 315 76 314 71 314 67 C 313 62 312 58 311 55 L 299 0 L -129 0 L -115 63 C -112 74 -109 83 -105 90 C -101 97 -96 103 -91 107 C -86 111 -81 114 -75 116 C -69 118 -63 119 -57 121 C -44 124 -33 128 -25 132 C -17 136 -9 141 -1 149 C 6 156 14 166 23 179 C 31 192 43 209 57 231 L 700 1210 L 664 1411 L 836 1493 C 854 1502 867 1508 875 1511 C 883 1514 891 1516 899 1516 C 905 1516 911 1515 915 1513 C 919 1511 923 1508 927 1502 C 930 1496 933 1488 935 1478 C 937 1468 940 1454 944 1436 L 1153 291 C 1159 256 1164 229 1169 209 C 1174 189 1179 174 1185 164 C 1190 154 1196 147 1203 143 C 1210 139 1219 135 1229 133 C 1243 128 1255 124 1263 120 C 1271 116 1276 111 1280 107 C 1284 102 1286 97 1287 93 C 1287 88 1288 83 1288 78 Z M 836 512 L 750 1014 L 436 512 L 836 512 Z" unicode="" />
<glyph horiz-adv-x="1352" d="M 1221 1903 C 1213 1865 1200 1830 1184 1798 C 1168 1766 1149 1738 1127 1715 C 1105 1691 1082 1673 1056 1660 C 1030 1646 1003 1640 977 1640 C 953 1640 930 1643 906 1650 C 882 1657 857 1671 829 1692 C 807 1708 787 1719 769 1725 C 751 1731 731 1735 711 1735 C 699 1735 687 1732 676 1727 C 664 1722 654 1715 644 1707 C 634 1698 625 1687 618 1675 C 610 1662 605 1648 602 1634 L 518 1634 C 525 1671 536 1706 552 1738 C 567 1770 585 1797 607 1821 C 628 1844 651 1862 677 1876 C 703 1889 730 1896 758 1896 C 789 1896 815 1892 837 1885 C 859 1877 881 1865 905 1849 C 928 1831 949 1819 969 1812 C 988 1805 1007 1802 1026 1802 C 1049 1802 1071 1811 1092 1830 C 1113 1848 1128 1873 1137 1903 L 1221 1903 Z M 1288 78 C 1288 72 1287 66 1285 58 C 1283 50 1282 42 1280 35 L 1272 0 L 772 0 L 784 59 C 786 69 788 77 791 82 C 794 86 797 90 801 94 C 807 98 815 103 824 109 C 832 115 841 120 849 126 C 857 132 863 137 869 141 C 875 145 879 148 881 150 C 885 153 888 157 890 163 C 892 168 893 174 893 180 C 893 185 892 194 890 208 C 888 221 886 231 885 238 L 864 369 L 340 369 L 250 217 C 246 213 243 206 239 197 C 235 187 233 179 233 172 C 233 157 237 146 247 139 C 256 131 264 126 272 123 C 286 117 297 110 304 104 C 311 98 315 90 315 80 C 315 76 314 71 314 67 C 313 62 312 58 311 55 L 299 0 L -129 0 L -115 63 C -112 74 -109 83 -105 90 C -101 97 -96 103 -91 107 C -86 111 -81 114 -75 116 C -69 118 -63 119 -57 121 C -44 124 -33 128 -25 132 C -17 136 -9 141 -1 149 C 6 156 14 166 23 179 C 31 192 43 209 57 231 L 700 1210 L 664 1411 L 836 1493 C 854 1502 867 1508 875 1511 C 883 1514 891 1516 899 1516 C 905 1516 911 1515 915 1513 C 919 1511 923 1508 927 1502 C 930 1496 933 1488 935 1478 C 937 1468 940 1454 944 1436 L 1153 291 C 1159 256 1164 229 1169 209 C 1174 189 1179 174 1185 164 C 1190 154 1196 147 1203 143 C 1210 139 1219 135 1229 133 C 1243 128 1255 124 1263 120 C 1271 116 1276 111 1280 107 C 1284 102 1286 97 1287 93 C 1287 88 1288 83 1288 78 Z M 836 512 L 750 1014 L 436 512 L 836 512 Z" unicode="" />
<glyph horiz-adv-x="1352" d="M 770 1763 C 770 1745 766 1728 760 1712 C 754 1696 745 1683 734 1671 C 722 1659 709 1650 694 1644 C 679 1637 663 1634 647 1634 C 629 1634 613 1637 598 1644 C 583 1650 570 1659 559 1671 C 547 1683 538 1696 532 1712 C 525 1728 522 1745 522 1763 C 522 1781 525 1798 532 1814 C 538 1830 547 1843 559 1855 C 570 1867 583 1876 598 1883 C 613 1890 629 1894 647 1894 C 663 1894 679 1890 694 1883 C 709 1876 722 1867 734 1855 C 745 1843 754 1830 760 1814 C 766 1798 770 1781 770 1763 Z M 1190 1763 C 1190 1745 1186 1728 1180 1712 C 1173 1696 1164 1683 1153 1671 C 1141 1659 1128 1650 1113 1644 C 1097 1637 1081 1634 1065 1634 C 1047 1634 1031 1637 1016 1644 C 1001 1650 988 1659 977 1671 C 965 1683 956 1696 950 1712 C 943 1728 940 1745 940 1763 C 940 1781 943 1798 950 1814 C 956 1830 965 1843 977 1855 C 988 1867 1001 1876 1016 1883 C 1031 1890 1047 1894 1065 1894 C 1081 1894 1097 1890 1113 1883 C 1128 1876 1141 1867 1153 1855 C 1164 1843 1173 1830 1180 1814 C 1186 1798 1190 1781 1190 1763 Z M 1288 78 C 1288 72 1287 66 1285 58 C 1283 50 1282 42 1280 35 L 1272 0 L 772 0 L 784 59 C 786 69 788 77 791 82 C 794 86 797 90 801 94 C 807 98 815 103 824 109 C 832 115 841 120 849 126 C 857 132 863 137 869 141 C 875 145 879 148 881 150 C 885 153 888 157 890 163 C 892 168 893 174 893 180 C 893 185 892 194 890 208 C 888 221 886 231 885 238 L 864 369 L 340 369 L 250 217 C 246 213 243 206 239 197 C 235 187 233 179 233 172 C 233 157 237 146 247 139 C 256 131 264 126 272 123 C 286 117 297 110 304 104 C 311 98 315 90 315 80 C 315 76 314 71 314 67 C 313 62 312 58 311 55 L 299 0 L -129 0 L -115 63 C -112 74 -109 83 -105 90 C -101 97 -96 103 -91 107 C -86 111 -81 114 -75 116 C -69 118 -63 119 -57 121 C -44 124 -33 128 -25 132 C -17 136 -9 141 -1 149 C 6 156 14 166 23 179 C 31 192 43 209 57 231 L 700 1210 L 664 1411 L 836 1493 C 854 1502 867 1508 875 1511 C 883 1514 891 1516 899 1516 C 905 1516 911 1515 915 1513 C 919 1511 923 1508 927 1502 C 930 1496 933 1488 935 1478 C 937 1468 940 1454 944 1436 L 1153 291 C 1159 256 1164 229 1169 209 C 1174 189 1179 174 1185 164 C 1190 154 1196 147 1203 143 C 1210 139 1219 135 1229 133 C 1243 128 1255 124 1263 120 C 1271 116 1276 111 1280 107 C 1284 102 1286 97 1287 93 C 1287 88 1288 83 1288 78 Z M 836 512 L 750 1014 L 436 512 L 836 512 Z" unicode="" />
<glyph horiz-adv-x="1352" d="M 952 1817 C 952 1851 945 1878 933 1900 C 920 1922 899 1933 870 1933 C 848 1933 828 1928 812 1918 C 796 1908 782 1896 772 1880 C 762 1864 754 1846 749 1826 C 743 1806 741 1785 741 1765 C 741 1749 742 1735 744 1721 C 746 1707 751 1694 757 1683 C 763 1672 771 1663 781 1657 C 791 1650 805 1647 821 1647 C 843 1647 862 1651 878 1660 C 894 1669 908 1681 919 1697 C 930 1712 938 1730 944 1751 C 949 1771 952 1793 952 1817 Z M 1090 1810 C 1090 1774 1082 1742 1068 1712 C 1053 1682 1033 1657 1009 1635 C 984 1613 956 1597 924 1585 C 892 1573 859 1567 825 1567 C 792 1567 762 1572 735 1582 C 707 1592 684 1606 664 1624 C 644 1642 629 1663 618 1688 C 607 1712 602 1739 602 1769 C 602 1799 608 1828 621 1858 C 633 1887 651 1913 675 1936 C 698 1959 726 1978 758 1992 C 790 2006 826 2013 866 2013 C 899 2013 929 2007 957 1997 C 984 1987 1007 1972 1027 1954 C 1047 1936 1062 1914 1073 1890 C 1084 1865 1090 1838 1090 1810 Z M 1288 78 C 1288 72 1287 66 1285 58 C 1283 50 1282 42 1280 35 L 1272 0 L 772 0 L 784 59 C 786 69 788 77 791 82 C 794 86 797 90 801 94 C 807 98 815 103 824 109 C 832 115 841 120 849 126 C 857 132 863 137 869 141 C 875 145 879 148 881 150 C 885 153 888 157 890 163 C 892 168 893 174 893 180 C 893 185 892 194 890 208 C 888 221 886 231 885 238 L 864 369 L 340 369 L 250 217 C 246 213 243 206 239 197 C 235 187 233 179 233 172 C 233 157 237 146 247 139 C 256 131 264 126 272 123 C 286 117 297 110 304 104 C 311 98 315 90 315 80 C 315 76 314 71 314 67 C 313 62 312 58 311 55 L 299 0 L -129 0 L -115 63 C -112 74 -109 83 -105 90 C -101 97 -96 103 -91 107 C -86 111 -81 114 -75 116 C -69 118 -63 119 -57 121 C -44 124 -33 128 -25 132 C -17 136 -9 141 -1 149 C 6 156 14 166 23 179 C 31 192 43 209 57 231 L 700 1210 L 664 1411 L 836 1493 C 854 1502 867 1508 875 1511 C 883 1514 891 1516 899 1516 C 905 1516 911 1515 915 1513 C 919 1511 923 1508 927 1502 C 930 1496 933 1488 935 1478 C 937 1468 940 1454 944 1436 L 1153 291 C 1159 256 1164 229 1169 209 C 1174 189 1179 174 1185 164 C 1190 154 1196 147 1203 143 C 1210 139 1219 135 1229 133 C 1243 128 1255 124 1263 120 C 1271 116 1276 111 1280 107 C 1284 102 1286 97 1287 93 C 1287 88 1288 83 1288 78 Z M 836 512 L 750 1014 L 436 512 L 836 512 Z" unicode="" />
<glyph horiz-adv-x="1970" d="M 2077 1516 L 1982 1161 L 1913 1161 C 1902 1161 1893 1163 1887 1167 C 1881 1171 1875 1177 1871 1184 C 1867 1191 1863 1199 1861 1208 C 1858 1217 1855 1226 1851 1235 C 1847 1245 1842 1255 1837 1265 C 1831 1275 1824 1284 1815 1292 C 1801 1304 1782 1313 1760 1319 C 1737 1325 1713 1329 1689 1332 C 1664 1334 1639 1336 1615 1336 C 1591 1336 1570 1337 1554 1337 L 1448 1337 L 1327 840 L 1462 840 C 1486 840 1507 842 1525 847 C 1542 851 1557 857 1569 864 C 1581 870 1590 878 1598 886 C 1606 894 1612 901 1618 908 C 1624 914 1629 920 1635 925 C 1640 929 1646 932 1653 932 L 1735 932 L 1638 535 L 1565 535 C 1555 535 1547 536 1543 539 C 1538 541 1534 545 1532 550 C 1530 554 1528 560 1527 567 C 1526 574 1525 582 1524 590 C 1520 612 1513 630 1503 644 C 1493 658 1482 668 1468 676 C 1454 684 1438 689 1421 692 C 1404 694 1386 696 1368 696 L 1290 696 L 1153 143 L 1430 143 C 1464 143 1497 146 1529 154 C 1561 162 1592 173 1621 188 C 1650 203 1677 221 1702 243 C 1727 265 1749 290 1767 319 C 1773 328 1779 337 1785 345 C 1791 353 1800 358 1812 358 L 1913 358 L 1812 -20 C 1768 -14 1724 -10 1680 -6 C 1636 -2 1592 0 1548 0 L 741 0 L 752 57 C 754 70 757 81 759 89 C 761 97 764 103 768 108 C 772 113 778 117 786 121 C 793 124 803 128 817 133 C 831 138 842 144 850 151 C 858 157 865 165 871 173 C 877 181 881 191 885 202 C 888 213 891 226 895 240 L 1001 666 L 563 666 L 258 227 C 254 219 249 210 244 200 C 238 189 236 180 236 172 C 236 157 240 146 248 139 C 256 132 264 126 274 122 C 284 117 293 112 301 106 C 309 100 313 92 313 80 C 313 76 312 71 311 66 C 309 60 308 55 307 49 L 295 0 L -135 0 L -123 61 C -119 75 -113 88 -104 98 C -94 108 -79 115 -59 121 C -43 125 -29 131 -19 138 C -8 145 1 153 10 163 C 18 172 26 182 34 194 C 41 205 49 217 59 231 L 707 1137 C 713 1145 721 1157 731 1171 C 740 1185 749 1199 758 1215 C 767 1230 775 1245 781 1261 C 787 1276 791 1289 791 1300 C 791 1314 785 1326 774 1336 C 763 1346 751 1355 738 1363 C 725 1371 713 1379 702 1387 C 691 1395 686 1404 686 1415 C 686 1419 686 1423 687 1428 C 687 1433 688 1438 690 1444 L 707 1495 L 1796 1495 C 1843 1495 1890 1497 1937 1502 C 1984 1506 2031 1511 2077 1516 Z M 1153 1311 C 1153 1325 1150 1337 1145 1347 C 1139 1357 1128 1362 1112 1362 C 1096 1362 1081 1357 1067 1349 C 1053 1340 1040 1329 1028 1317 C 1016 1305 1005 1292 995 1278 C 985 1264 976 1251 969 1241 L 666 809 L 1036 809 L 1135 1210 C 1139 1226 1143 1243 1147 1260 C 1151 1277 1153 1294 1153 1311 Z" unicode="" />
<glyph horiz-adv-x="1231" d="M 1397 1425 L 1296 1036 L 1206 1036 C 1197 1036 1190 1038 1186 1042 C 1181 1046 1177 1052 1175 1058 C 1173 1064 1171 1070 1171 1077 C 1171 1084 1171 1090 1171 1096 C 1171 1119 1170 1141 1168 1163 C 1166 1185 1161 1206 1153 1227 C 1141 1258 1125 1283 1106 1302 C 1087 1321 1067 1336 1046 1346 C 1024 1356 1003 1363 981 1367 C 959 1370 940 1372 924 1372 C 874 1372 829 1363 787 1347 C 745 1331 707 1308 673 1280 C 639 1252 608 1218 581 1180 C 553 1142 529 1101 508 1057 C 486 1013 468 967 453 920 C 438 873 426 827 416 781 C 406 735 399 690 395 647 C 391 604 389 565 389 530 C 389 486 394 442 405 400 C 416 357 433 319 457 286 C 480 252 510 225 547 205 C 583 184 628 174 680 174 C 718 174 755 178 790 187 C 825 195 859 209 892 227 C 925 245 958 267 991 295 C 1023 322 1057 354 1092 391 L 1147 324 C 1150 320 1154 315 1159 308 C 1164 300 1167 293 1167 285 C 1167 274 1161 259 1150 241 C 1138 223 1122 203 1101 181 C 1079 159 1054 136 1024 114 C 994 92 961 71 925 52 C 888 32 848 16 806 3 C 763 -9 718 -17 672 -20 L 627 -100 C 679 -105 720 -122 750 -150 C 780 -178 795 -214 795 -258 C 795 -279 790 -301 781 -324 C 772 -347 757 -368 737 -388 C 717 -407 690 -423 658 -436 C 625 -448 585 -455 539 -455 C 511 -455 484 -451 459 -444 C 433 -436 410 -427 388 -415 C 366 -403 345 -391 327 -377 C 309 -363 293 -350 279 -338 L 334 -258 C 347 -268 361 -279 375 -290 C 389 -301 404 -311 420 -320 C 436 -328 453 -335 471 -341 C 489 -347 508 -350 530 -350 C 548 -350 564 -347 576 -341 C 588 -335 597 -327 605 -319 C 612 -310 617 -301 620 -291 C 623 -281 625 -272 625 -264 C 625 -247 617 -231 603 -217 C 588 -202 564 -195 532 -195 C 526 -195 518 -195 507 -196 C 496 -197 484 -199 471 -201 L 582 -16 C 518 -9 458 8 401 38 C 343 68 293 108 249 158 C 205 208 171 268 145 338 C 119 407 106 485 106 573 C 106 642 113 713 128 787 C 142 861 164 933 194 1003 C 224 1073 261 1139 305 1201 C 349 1263 401 1317 461 1364 C 521 1410 588 1447 663 1475 C 737 1502 819 1516 909 1516 C 949 1516 984 1513 1015 1507 C 1045 1501 1073 1494 1099 1484 C 1124 1474 1148 1461 1170 1447 C 1192 1433 1215 1417 1239 1399 L 1294 1425 L 1397 1425 Z" unicode="" />
<glyph horiz-adv-x="1188" d="M 1073 1653 L 1018 1602 L 701 1751 C 679 1761 661 1771 647 1781 C 633 1791 621 1801 613 1811 C 604 1821 598 1832 595 1844 C 591 1855 590 1867 590 1880 C 590 1906 598 1929 615 1948 C 631 1966 657 1976 693 1976 C 706 1976 721 1973 738 1968 C 755 1962 774 1949 795 1929 L 1073 1653 Z M 1294 1516 L 1200 1161 L 1130 1161 C 1122 1161 1116 1161 1111 1162 C 1106 1163 1102 1166 1098 1171 C 1094 1176 1089 1184 1085 1194 C 1081 1204 1075 1217 1069 1235 C 1061 1253 1052 1268 1042 1281 C 1031 1294 1015 1305 994 1313 C 973 1321 945 1327 910 1331 C 874 1335 828 1337 772 1337 L 666 1337 L 545 840 L 680 840 C 704 840 725 841 741 845 C 757 849 772 854 784 861 C 796 868 806 876 816 886 C 826 896 836 907 846 920 C 850 925 853 928 857 930 C 860 931 864 932 870 932 L 952 932 L 856 535 L 782 535 C 774 535 768 535 764 536 C 760 537 756 540 754 544 C 751 548 749 553 747 561 C 745 568 743 578 741 590 C 735 626 720 652 696 670 C 672 687 635 696 586 696 L 508 696 L 371 143 L 647 143 C 699 143 744 150 783 164 C 822 178 855 195 883 215 C 911 234 933 253 950 273 C 966 293 978 308 985 319 C 996 336 1004 347 1010 351 C 1015 355 1022 358 1030 358 L 1130 358 L 1030 -20 C 1020 -19 1005 -17 986 -15 C 966 -13 944 -10 920 -8 C 896 -6 870 -4 843 -2 C 816 0 790 0 766 0 L -41 0 L -31 57 C -29 69 -27 78 -25 86 C -23 93 -21 99 -17 105 C -13 110 -7 115 1 119 C 9 123 20 127 35 133 C 45 136 53 140 61 144 C 69 148 76 154 82 162 C 88 170 93 180 98 192 C 103 204 108 220 113 240 L 354 1214 C 358 1228 361 1245 365 1264 C 369 1283 371 1300 371 1315 C 371 1326 367 1335 361 1341 C 354 1347 342 1354 324 1364 C 311 1370 302 1374 296 1378 C 290 1382 287 1388 287 1397 C 287 1402 287 1407 289 1413 C 290 1418 291 1423 291 1427 L 309 1495 L 1014 1495 C 1048 1495 1087 1496 1131 1500 C 1175 1504 1229 1509 1294 1516 Z" unicode="" />
<glyph horiz-adv-x="1188" d="M 1171 1880 C 1171 1854 1163 1832 1147 1812 C 1131 1792 1102 1771 1060 1751 L 739 1602 L 681 1653 L 966 1929 C 986 1948 1005 1961 1023 1967 C 1040 1973 1055 1976 1069 1976 C 1103 1976 1129 1966 1146 1948 C 1162 1929 1171 1906 1171 1880 Z M 1294 1516 L 1200 1161 L 1130 1161 C 1122 1161 1116 1161 1111 1162 C 1106 1163 1102 1166 1098 1171 C 1094 1176 1089 1184 1085 1194 C 1081 1204 1075 1217 1069 1235 C 1061 1253 1052 1268 1042 1281 C 1031 1294 1015 1305 994 1313 C 973 1321 945 1327 910 1331 C 874 1335 828 1337 772 1337 L 666 1337 L 545 840 L 680 840 C 704 840 725 841 741 845 C 757 849 772 854 784 861 C 796 868 806 876 816 886 C 826 896 836 907 846 920 C 850 925 853 928 857 930 C 860 931 864 932 870 932 L 952 932 L 856 535 L 782 535 C 774 535 768 535 764 536 C 760 537 756 540 754 544 C 751 548 749 553 747 561 C 745 568 743 578 741 590 C 735 626 720 652 696 670 C 672 687 635 696 586 696 L 508 696 L 371 143 L 647 143 C 699 143 744 150 783 164 C 822 178 855 195 883 215 C 911 234 933 253 950 273 C 966 293 978 308 985 319 C 996 336 1004 347 1010 351 C 1015 355 1022 358 1030 358 L 1130 358 L 1030 -20 C 1020 -19 1005 -17 986 -15 C 966 -13 944 -10 920 -8 C 896 -6 870 -4 843 -2 C 816 0 790 0 766 0 L -41 0 L -31 57 C -29 69 -27 78 -25 86 C -23 93 -21 99 -17 105 C -13 110 -7 115 1 119 C 9 123 20 127 35 133 C 45 136 53 140 61 144 C 69 148 76 154 82 162 C 88 170 93 180 98 192 C 103 204 108 220 113 240 L 354 1214 C 358 1228 361 1245 365 1264 C 369 1283 371 1300 371 1315 C 371 1326 367 1335 361 1341 C 354 1347 342 1354 324 1364 C 311 1370 302 1374 296 1378 C 290 1382 287 1388 287 1397 C 287 1402 287 1407 289 1413 C 290 1418 291 1423 291 1427 L 309 1495 L 1014 1495 C 1048 1495 1087 1496 1131 1500 C 1175 1504 1229 1509 1294 1516 Z" unicode="" />
<glyph horiz-adv-x="1188" d="M 1145 1605 L 1018 1605 L 879 1798 L 635 1605 L 488 1605 L 832 1958 L 965 1958 L 1145 1605 Z M 1294 1516 L 1200 1161 L 1130 1161 C 1122 1161 1116 1161 1111 1162 C 1106 1163 1102 1166 1098 1171 C 1094 1176 1089 1184 1085 1194 C 1081 1204 1075 1217 1069 1235 C 1061 1253 1052 1268 1042 1281 C 1031 1294 1015 1305 994 1313 C 973 1321 945 1327 910 1331 C 874 1335 828 1337 772 1337 L 666 1337 L 545 840 L 680 840 C 704 840 725 841 741 845 C 757 849 772 854 784 861 C 796 868 806 876 816 886 C 826 896 836 907 846 920 C 850 925 853 928 857 930 C 860 931 864 932 870 932 L 952 932 L 856 535 L 782 535 C 774 535 768 535 764 536 C 760 537 756 540 754 544 C 751 548 749 553 747 561 C 745 568 743 578 741 590 C 735 626 720 652 696 670 C 672 687 635 696 586 696 L 508 696 L 371 143 L 647 143 C 699 143 744 150 783 164 C 822 178 855 195 883 215 C 911 234 933 253 950 273 C 966 293 978 308 985 319 C 996 336 1004 347 1010 351 C 1015 355 1022 358 1030 358 L 1130 358 L 1030 -20 C 1020 -19 1005 -17 986 -15 C 966 -13 944 -10 920 -8 C 896 -6 870 -4 843 -2 C 816 0 790 0 766 0 L -41 0 L -31 57 C -29 69 -27 78 -25 86 C -23 93 -21 99 -17 105 C -13 110 -7 115 1 119 C 9 123 20 127 35 133 C 45 136 53 140 61 144 C 69 148 76 154 82 162 C 88 170 93 180 98 192 C 103 204 108 220 113 240 L 354 1214 C 358 1228 361 1245 365 1264 C 369 1283 371 1300 371 1315 C 371 1326 367 1335 361 1341 C 354 1347 342 1354 324 1364 C 311 1370 302 1374 296 1378 C 290 1382 287 1388 287 1397 C 287 1402 287 1407 289 1413 C 290 1418 291 1423 291 1427 L 309 1495 L 1014 1495 C 1048 1495 1087 1496 1131 1500 C 1175 1504 1229 1509 1294 1516 Z" unicode="" />
<glyph horiz-adv-x="1188" d="M 774 1775 C 774 1757 770 1740 764 1724 C 758 1708 749 1695 738 1683 C 726 1671 713 1662 698 1656 C 683 1649 667 1646 651 1646 C 633 1646 617 1649 602 1656 C 587 1662 574 1671 563 1683 C 551 1695 542 1708 536 1724 C 529 1740 526 1757 526 1775 C 526 1793 529 1810 536 1826 C 542 1842 551 1855 563 1867 C 574 1879 587 1888 602 1895 C 617 1902 633 1906 651 1906 C 667 1906 683 1902 698 1895 C 713 1888 726 1879 738 1867 C 749 1855 758 1842 764 1826 C 770 1810 774 1793 774 1775 Z M 1194 1775 C 1194 1757 1190 1740 1184 1724 C 1177 1708 1168 1695 1157 1683 C 1145 1671 1132 1662 1117 1656 C 1101 1649 1085 1646 1069 1646 C 1051 1646 1035 1649 1020 1656 C 1005 1662 992 1671 981 1683 C 969 1695 960 1708 954 1724 C 947 1740 944 1757 944 1775 C 944 1793 947 1810 954 1826 C 960 1842 969 1855 981 1867 C 992 1879 1005 1888 1020 1895 C 1035 1902 1051 1906 1069 1906 C 1085 1906 1101 1902 1117 1895 C 1132 1888 1145 1879 1157 1867 C 1168 1855 1177 1842 1184 1826 C 1190 1810 1194 1793 1194 1775 Z M 1294 1516 L 1200 1161 L 1130 1161 C 1122 1161 1116 1161 1111 1162 C 1106 1163 1102 1166 1098 1171 C 1094 1176 1089 1184 1085 1194 C 1081 1204 1075 1217 1069 1235 C 1061 1253 1052 1268 1042 1281 C 1031 1294 1015 1305 994 1313 C 973 1321 945 1327 910 1331 C 874 1335 828 1337 772 1337 L 666 1337 L 545 840 L 680 840 C 704 840 725 841 741 845 C 757 849 772 854 784 861 C 796 868 806 876 816 886 C 826 896 836 907 846 920 C 850 925 853 928 857 930 C 860 931 864 932 870 932 L 952 932 L 856 535 L 782 535 C 774 535 768 535 764 536 C 760 537 756 540 754 544 C 751 548 749 553 747 561 C 745 568 743 578 741 590 C 735 626 720 652 696 670 C 672 687 635 696 586 696 L 508 696 L 371 143 L 647 143 C 699 143 744 150 783 164 C 822 178 855 195 883 215 C 911 234 933 253 950 273 C 966 293 978 308 985 319 C 996 336 1004 347 1010 351 C 1015 355 1022 358 1030 358 L 1130 358 L 1030 -20 C 1020 -19 1005 -17 986 -15 C 966 -13 944 -10 920 -8 C 896 -6 870 -4 843 -2 C 816 0 790 0 766 0 L -41 0 L -31 57 C -29 69 -27 78 -25 86 C -23 93 -21 99 -17 105 C -13 110 -7 115 1 119 C 9 123 20 127 35 133 C 45 136 53 140 61 144 C 69 148 76 154 82 162 C 88 170 93 180 98 192 C 103 204 108 220 113 240 L 354 1214 C 358 1228 361 1245 365 1264 C 369 1283 371 1300 371 1315 C 371 1326 367 1335 361 1341 C 354 1347 342 1354 324 1364 C 311 1370 302 1374 296 1378 C 290 1382 287 1388 287 1397 C 287 1402 287 1407 289 1413 C 290 1418 291 1423 291 1427 L 309 1495 L 1014 1495 C 1048 1495 1087 1496 1131 1500 C 1175 1504 1229 1509 1294 1516 Z" unicode="" />
<glyph horiz-adv-x="643" d="M 854 1653 L 799 1602 L 482 1751 C 460 1761 442 1771 428 1781 C 414 1791 402 1801 394 1811 C 385 1821 379 1832 376 1844 C 372 1855 371 1867 371 1880 C 371 1906 379 1929 396 1948 C 412 1966 438 1976 474 1976 C 487 1976 502 1973 519 1968 C 536 1962 555 1949 576 1929 L 854 1653 Z M 811 1495 L 801 1438 C 799 1426 797 1416 795 1409 C 793 1401 791 1395 787 1390 C 783 1384 777 1379 769 1375 C 761 1371 749 1366 735 1362 C 725 1358 716 1354 708 1350 C 700 1345 692 1339 686 1331 C 680 1323 674 1313 669 1301 C 664 1289 659 1273 655 1255 L 414 281 C 410 265 406 248 402 230 C 398 211 397 194 397 180 C 397 168 400 160 408 154 C 415 148 428 140 446 131 C 458 125 468 120 475 116 C 481 112 485 106 485 98 C 485 92 484 87 483 82 C 481 76 480 72 479 68 L 461 0 L -35 0 L -25 57 C -23 69 -21 78 -19 86 C -17 93 -15 99 -11 105 C -7 110 -1 115 7 119 C 15 123 26 127 41 133 C 51 136 60 140 68 144 C 76 148 83 154 89 162 C 95 170 101 180 106 192 C 111 204 116 220 121 240 L 362 1214 C 365 1228 369 1245 373 1264 C 377 1283 379 1300 379 1315 C 379 1326 375 1335 368 1341 C 361 1347 348 1354 330 1364 C 317 1370 307 1374 301 1378 C 294 1382 291 1388 291 1397 C 291 1402 291 1407 293 1413 C 294 1418 295 1423 297 1427 L 315 1495 L 811 1495 Z" unicode="" />
<glyph horiz-adv-x="643" d="M 867 1880 C 867 1854 859 1832 843 1812 C 827 1792 798 1771 756 1751 L 435 1602 L 377 1653 L 662 1929 C 682 1948 701 1961 719 1967 C 736 1973 751 1976 765 1976 C 799 1976 825 1966 842 1948 C 858 1929 867 1906 867 1880 Z M 811 1495 L 801 1438 C 799 1426 797 1416 795 1409 C 793 1401 791 1395 787 1390 C 783 1384 777 1379 769 1375 C 761 1371 749 1366 735 1362 C 725 1358 716 1354 708 1350 C 700 1345 692 1339 686 1331 C 680 1323 674 1313 669 1301 C 664 1289 659 1273 655 1255 L 414 281 C 410 265 406 248 402 230 C 398 211 397 194 397 180 C 397 168 400 160 408 154 C 415 148 428 140 446 131 C 458 125 468 120 475 116 C 481 112 485 106 485 98 C 485 92 484 87 483 82 C 481 76 480 72 479 68 L 461 0 L -35 0 L -25 57 C -23 69 -21 78 -19 86 C -17 93 -15 99 -11 105 C -7 110 -1 115 7 119 C 15 123 26 127 41 133 C 51 136 60 140 68 144 C 76 148 83 154 89 162 C 95 170 101 180 106 192 C 111 204 116 220 121 240 L 362 1214 C 365 1228 369 1245 373 1264 C 377 1283 379 1300 379 1315 C 379 1326 375 1335 368 1341 C 361 1347 348 1354 330 1364 C 317 1370 307 1374 301 1378 C 294 1382 291 1388 291 1397 C 291 1402 291 1407 293 1413 C 294 1418 295 1423 297 1427 L 315 1495 L 811 1495 Z" unicode="" />
<glyph horiz-adv-x="643" d="M 913 1606 L 788 1606 L 647 1798 L 406 1606 L 256 1606 L 602 1958 L 735 1958 L 913 1606 Z M 811 1495 L 801 1438 C 799 1426 797 1416 795 1409 C 793 1401 791 1395 787 1390 C 783 1384 777 1379 769 1375 C 761 1371 749 1366 735 1362 C 725 1358 716 1354 708 1350 C 700 1345 692 1339 686 1331 C 680 1323 674 1313 669 1301 C 664 1289 659 1273 655 1255 L 414 281 C 410 265 406 248 402 230 C 398 211 397 194 397 180 C 397 168 400 160 408 154 C 415 148 428 140 446 131 C 458 125 468 120 475 116 C 481 112 485 106 485 98 C 485 92 484 87 483 82 C 481 76 480 72 479 68 L 461 0 L -35 0 L -25 57 C -23 69 -21 78 -19 86 C -17 93 -15 99 -11 105 C -7 110 -1 115 7 119 C 15 123 26 127 41 133 C 51 136 60 140 68 144 C 76 148 83 154 89 162 C 95 170 101 180 106 192 C 111 204 116 220 121 240 L 362 1214 C 365 1228 369 1245 373 1264 C 377 1283 379 1300 379 1315 C 379 1326 375 1335 368 1341 C 361 1347 348 1354 330 1364 C 317 1370 307 1374 301 1378 C 294 1382 291 1388 291 1397 C 291 1402 291 1407 293 1413 C 294 1418 295 1423 297 1427 L 315 1495 L 811 1495 Z" unicode="" />
<glyph horiz-adv-x="643" d="M 524 1776 C 524 1758 520 1741 514 1725 C 508 1709 499 1696 488 1684 C 476 1672 463 1663 448 1657 C 433 1650 417 1647 401 1647 C 383 1647 367 1650 352 1657 C 337 1663 324 1672 313 1684 C 301 1696 292 1709 286 1725 C 279 1741 276 1758 276 1776 C 276 1794 279 1810 286 1826 C 292 1842 301 1856 313 1868 C 324 1880 337 1889 352 1896 C 367 1903 383 1907 401 1907 C 417 1907 433 1903 448 1896 C 463 1889 476 1880 488 1868 C 499 1856 508 1842 514 1826 C 520 1810 524 1794 524 1776 Z M 932 1776 C 932 1758 928 1741 922 1725 C 915 1709 906 1696 894 1684 C 882 1672 869 1663 854 1657 C 839 1650 823 1647 807 1647 C 789 1647 773 1650 758 1657 C 743 1663 730 1672 719 1684 C 707 1696 698 1709 692 1725 C 685 1741 682 1758 682 1776 C 682 1794 685 1810 692 1826 C 698 1842 707 1856 719 1868 C 730 1880 743 1889 758 1896 C 773 1903 789 1907 807 1907 C 823 1907 839 1903 854 1896 C 869 1889 882 1880 894 1868 C 906 1856 915 1842 922 1826 C 928 1810 932 1794 932 1776 Z M 811 1495 L 801 1438 C 799 1426 797 1416 795 1409 C 793 1401 791 1395 787 1390 C 783 1384 777 1379 769 1375 C 761 1371 749 1366 735 1362 C 725 1358 716 1354 708 1350 C 700 1345 692 1339 686 1331 C 680 1323 674 1313 669 1301 C 664 1289 659 1273 655 1255 L 414 281 C 410 265 406 248 402 230 C 398 211 397 194 397 180 C 397 168 400 160 408 154 C 415 148 428 140 446 131 C 458 125 468 120 475 116 C 481 112 485 106 485 98 C 485 92 484 87 483 82 C 481 76 480 72 479 68 L 461 0 L -35 0 L -25 57 C -23 69 -21 78 -19 86 C -17 93 -15 99 -11 105 C -7 110 -1 115 7 119 C 15 123 26 127 41 133 C 51 136 60 140 68 144 C 76 148 83 154 89 162 C 95 170 101 180 106 192 C 111 204 116 220 121 240 L 362 1214 C 365 1228 369 1245 373 1264 C 377 1283 379 1300 379 1315 C 379 1326 375 1335 368 1341 C 361 1347 348 1354 330 1364 C 317 1370 307 1374 301 1378 C 294 1382 291 1388 291 1397 C 291 1402 291 1407 293 1413 C 294 1418 295 1423 297 1427 L 315 1495 L 811 1495 Z" unicode="" />
<glyph horiz-adv-x="1376" d="M 1333 1915 C 1325 1877 1312 1842 1296 1810 C 1280 1778 1261 1750 1239 1727 C 1217 1703 1194 1685 1168 1672 C 1142 1658 1115 1652 1089 1652 C 1065 1652 1042 1655 1018 1662 C 994 1669 969 1683 941 1704 C 919 1720 899 1731 881 1737 C 863 1743 843 1747 823 1747 C 811 1747 799 1744 788 1739 C 776 1734 766 1727 756 1719 C 746 1710 737 1699 730 1687 C 722 1674 717 1660 714 1646 L 630 1646 C 637 1683 648 1718 664 1750 C 679 1782 697 1809 719 1833 C 740 1856 763 1874 789 1888 C 815 1901 842 1908 870 1908 C 901 1908 927 1904 949 1897 C 971 1889 993 1877 1017 1861 C 1040 1843 1061 1831 1081 1824 C 1100 1817 1119 1814 1138 1814 C 1161 1814 1183 1823 1204 1842 C 1225 1860 1240 1885 1249 1915 L 1333 1915 Z M 1556 1495 L 1546 1438 C 1544 1426 1542 1416 1540 1409 C 1538 1401 1536 1395 1532 1390 C 1528 1384 1522 1379 1514 1375 C 1506 1371 1495 1366 1481 1362 C 1471 1358 1462 1354 1454 1350 C 1446 1346 1439 1340 1433 1332 C 1427 1324 1421 1314 1417 1302 C 1412 1290 1407 1274 1403 1255 L 1092 0 L 958 0 L 508 1155 L 291 281 C 287 265 282 248 278 230 C 274 211 272 194 272 180 C 272 168 275 160 283 154 C 290 148 303 140 322 131 C 333 125 342 120 348 116 C 354 112 358 106 358 98 C 358 92 357 87 356 82 C 354 76 353 72 352 68 L 334 0 L -41 0 L -31 57 C -29 69 -27 78 -25 86 C -23 93 -21 99 -17 105 C -13 110 -7 115 1 119 C 9 123 20 127 35 133 C 45 136 53 140 61 144 C 69 148 76 154 82 162 C 88 170 93 180 98 192 C 103 204 108 220 113 240 L 354 1214 C 358 1228 361 1245 365 1264 C 369 1283 371 1300 371 1315 C 371 1326 367 1335 361 1341 C 354 1347 342 1354 324 1364 C 311 1370 302 1374 296 1378 C 290 1382 287 1388 287 1397 C 287 1402 287 1407 289 1413 C 290 1418 291 1423 291 1427 L 309 1495 L 672 1495 L 1053 516 L 1225 1214 C 1229 1229 1233 1246 1237 1265 C 1241 1283 1243 1300 1243 1315 C 1243 1326 1239 1335 1232 1341 C 1225 1347 1212 1354 1194 1364 C 1182 1370 1173 1374 1167 1378 C 1160 1382 1157 1388 1157 1397 C 1157 1402 1157 1407 1159 1413 C 1160 1418 1161 1423 1163 1427 L 1182 1495 L 1556 1495 Z" unicode="" />
<glyph horiz-adv-x="1405" d="M 1168 1653 L 1113 1602 L 796 1751 C 774 1761 756 1771 742 1781 C 728 1791 716 1801 708 1811 C 699 1821 693 1832 690 1844 C 686 1855 685 1867 685 1880 C 685 1906 693 1929 710 1948 C 726 1966 752 1976 788 1976 C 801 1976 816 1973 833 1968 C 850 1962 869 1949 890 1929 L 1168 1653 Z M 1430 862 C 1430 780 1421 701 1403 626 C 1385 550 1359 480 1326 415 C 1293 349 1253 290 1207 237 C 1161 183 1109 137 1052 99 C 995 61 933 31 867 11 C 801 -9 731 -20 659 -20 C 619 -20 578 -14 536 -4 C 493 6 451 23 411 46 C 370 68 331 97 295 132 C 258 166 226 208 199 257 C 171 305 149 361 133 423 C 117 485 109 555 109 633 C 109 713 117 791 135 866 C 153 940 178 1010 211 1076 C 244 1142 284 1202 330 1256 C 376 1310 427 1356 484 1394 C 541 1432 603 1462 669 1484 C 735 1505 804 1516 877 1516 C 917 1516 959 1510 1003 1499 C 1046 1488 1088 1471 1129 1448 C 1170 1424 1209 1395 1245 1360 C 1281 1324 1313 1282 1341 1234 C 1368 1186 1390 1131 1406 1069 C 1422 1007 1430 938 1430 862 Z M 1153 991 C 1153 1045 1146 1095 1134 1142 C 1122 1188 1103 1229 1079 1263 C 1055 1297 1025 1323 989 1343 C 953 1362 912 1372 866 1372 C 804 1372 750 1356 702 1326 C 654 1296 613 1256 577 1206 C 541 1156 511 1100 487 1038 C 463 976 443 912 428 848 C 412 784 401 721 395 661 C 388 601 385 548 385 504 C 385 448 391 397 403 351 C 415 304 434 264 458 230 C 482 196 513 170 549 151 C 585 132 626 123 674 123 C 720 123 762 131 800 149 C 838 167 872 191 904 221 C 935 251 963 287 987 327 C 1011 367 1033 411 1051 457 C 1069 503 1085 550 1098 599 C 1111 648 1122 696 1130 743 C 1138 790 1143 835 1147 877 C 1151 919 1153 957 1153 991 Z" unicode="" />
<glyph horiz-adv-x="1405" d="M 1189 1880 C 1189 1854 1181 1832 1165 1812 C 1149 1792 1120 1771 1078 1751 L 757 1602 L 699 1653 L 984 1929 C 1004 1948 1023 1961 1041 1967 C 1058 1973 1073 1976 1087 1976 C 1121 1976 1147 1966 1164 1948 C 1180 1929 1189 1906 1189 1880 Z M 1430 862 C 1430 780 1421 701 1403 626 C 1385 550 1359 480 1326 415 C 1293 349 1253 290 1207 237 C 1161 183 1109 137 1052 99 C 995 61 933 31 867 11 C 801 -9 731 -20 659 -20 C 619 -20 578 -14 536 -4 C 493 6 451 23 411 46 C 370 68 331 97 295 132 C 258 166 226 208 199 257 C 171 305 149 361 133 423 C 117 485 109 555 109 633 C 109 713 117 791 135 866 C 153 940 178 1010 211 1076 C 244 1142 284 1202 330 1256 C 376 1310 427 1356 484 1394 C 541 1432 603 1462 669 1484 C 735 1505 804 1516 877 1516 C 917 1516 959 1510 1003 1499 C 1046 1488 1088 1471 1129 1448 C 1170 1424 1209 1395 1245 1360 C 1281 1324 1313 1282 1341 1234 C 1368 1186 1390 1131 1406 1069 C 1422 1007 1430 938 1430 862 Z M 1153 991 C 1153 1045 1146 1095 1134 1142 C 1122 1188 1103 1229 1079 1263 C 1055 1297 1025 1323 989 1343 C 953 1362 912 1372 866 1372 C 804 1372 750 1356 702 1326 C 654 1296 613 1256 577 1206 C 541 1156 511 1100 487 1038 C 463 976 443 912 428 848 C 412 784 401 721 395 661 C 388 601 385 548 385 504 C 385 448 391 397 403 351 C 415 304 434 264 458 230 C 482 196 513 170 549 151 C 585 132 626 123 674 123 C 720 123 762 131 800 149 C 838 167 872 191 904 221 C 935 251 963 287 987 327 C 1011 367 1033 411 1051 457 C 1069 503 1085 550 1098 599 C 1111 648 1122 696 1130 743 C 1138 790 1143 835 1147 877 C 1151 919 1153 957 1153 991 Z" unicode="" />
<glyph horiz-adv-x="1405" d="M 1216 1605 L 1089 1605 L 950 1798 L 706 1605 L 559 1605 L 903 1958 L 1036 1958 L 1216 1605 Z M 1430 862 C 1430 780 1421 701 1403 626 C 1385 550 1359 480 1326 415 C 1293 349 1253 290 1207 237 C 1161 183 1109 137 1052 99 C 995 61 933 31 867 11 C 801 -9 731 -20 659 -20 C 619 -20 578 -14 536 -4 C 493 6 451 23 411 46 C 370 68 331 97 295 132 C 258 166 226 208 199 257 C 171 305 149 361 133 423 C 117 485 109 555 109 633 C 109 713 117 791 135 866 C 153 940 178 1010 211 1076 C 244 1142 284 1202 330 1256 C 376 1310 427 1356 484 1394 C 541 1432 603 1462 669 1484 C 735 1505 804 1516 877 1516 C 917 1516 959 1510 1003 1499 C 1046 1488 1088 1471 1129 1448 C 1170 1424 1209 1395 1245 1360 C 1281 1324 1313 1282 1341 1234 C 1368 1186 1390 1131 1406 1069 C 1422 1007 1430 938 1430 862 Z M 1153 991 C 1153 1045 1146 1095 1134 1142 C 1122 1188 1103 1229 1079 1263 C 1055 1297 1025 1323 989 1343 C 953 1362 912 1372 866 1372 C 804 1372 750 1356 702 1326 C 654 1296 613 1256 577 1206 C 541 1156 511 1100 487 1038 C 463 976 443 912 428 848 C 412 784 401 721 395 661 C 388 601 385 548 385 504 C 385 448 391 397 403 351 C 415 304 434 264 458 230 C 482 196 513 170 549 151 C 585 132 626 123 674 123 C 720 123 762 131 800 149 C 838 167 872 191 904 221 C 935 251 963 287 987 327 C 1011 367 1033 411 1051 457 C 1069 503 1085 550 1098 599 C 1111 648 1122 696 1130 743 C 1138 790 1143 835 1147 877 C 1151 919 1153 957 1153 991 Z" unicode="" />
<glyph horiz-adv-x="1405" d="M 1274 1915 C 1266 1877 1253 1842 1237 1810 C 1221 1778 1202 1750 1180 1727 C 1158 1703 1135 1685 1109 1672 C 1083 1658 1056 1652 1030 1652 C 1006 1652 983 1655 959 1662 C 935 1669 910 1683 882 1704 C 860 1720 840 1731 822 1737 C 804 1743 784 1747 764 1747 C 752 1747 740 1744 729 1739 C 717 1734 707 1727 697 1719 C 687 1710 678 1699 671 1687 C 663 1674 658 1660 655 1646 L 571 1646 C 578 1683 589 1718 605 1750 C 620 1782 638 1809 660 1833 C 681 1856 704 1874 730 1888 C 756 1901 783 1908 811 1908 C 842 1908 868 1904 890 1897 C 912 1889 934 1877 958 1861 C 981 1843 1002 1831 1022 1824 C 1041 1817 1060 1814 1079 1814 C 1102 1814 1124 1823 1145 1842 C 1166 1860 1181 1885 1190 1915 L 1274 1915 Z M 1430 862 C 1430 780 1421 701 1403 626 C 1385 550 1359 480 1326 415 C 1293 349 1253 290 1207 237 C 1161 183 1109 137 1052 99 C 995 61 933 31 867 11 C 801 -9 731 -20 659 -20 C 619 -20 578 -14 536 -4 C 493 6 451 23 411 46 C 370 68 331 97 295 132 C 258 166 226 208 199 257 C 171 305 149 361 133 423 C 117 485 109 555 109 633 C 109 713 117 791 135 866 C 153 940 178 1010 211 1076 C 244 1142 284 1202 330 1256 C 376 1310 427 1356 484 1394 C 541 1432 603 1462 669 1484 C 735 1505 804 1516 877 1516 C 917 1516 959 1510 1003 1499 C 1046 1488 1088 1471 1129 1448 C 1170 1424 1209 1395 1245 1360 C 1281 1324 1313 1282 1341 1234 C 1368 1186 1390 1131 1406 1069 C 1422 1007 1430 938 1430 862 Z M 1153 991 C 1153 1045 1146 1095 1134 1142 C 1122 1188 1103 1229 1079 1263 C 1055 1297 1025 1323 989 1343 C 953 1362 912 1372 866 1372 C 804 1372 750 1356 702 1326 C 654 1296 613 1256 577 1206 C 541 1156 511 1100 487 1038 C 463 976 443 912 428 848 C 412 784 401 721 395 661 C 388 601 385 548 385 504 C 385 448 391 397 403 351 C 415 304 434 264 458 230 C 482 196 513 170 549 151 C 585 132 626 123 674 123 C 720 123 762 131 800 149 C 838 167 872 191 904 221 C 935 251 963 287 987 327 C 1011 367 1033 411 1051 457 C 1069 503 1085 550 1098 599 C 1111 648 1122 696 1130 743 C 1138 790 1143 835 1147 877 C 1151 919 1153 957 1153 991 Z" unicode="" />
<glyph horiz-adv-x="1405" d="M 1430 862 C 1430 780 1421 701 1403 626 C 1385 550 1359 480 1326 415 C 1293 349 1253 290 1207 237 C 1161 183 1109 137 1052 99 C 995 61 933 31 867 11 C 801 -9 731 -20 659 -20 C 619 -20 578 -14 536 -4 C 493 6 451 23 411 46 C 370 68 331 97 295 132 C 258 166 226 208 199 257 C 171 305 149 361 133 423 C 117 485 109 555 109 633 C 109 713 117 791 135 866 C 153 940 178 1010 211 1076 C 244 1142 284 1202 330 1256 C 376 1310 427 1356 484 1394 C 541 1432 603 1462 669 1484 C 735 1505 804 1516 877 1516 C 917 1516 959 1510 1003 1499 C 1046 1488 1088 1471 1129 1448 C 1170 1424 1209 1395 1245 1360 C 1281 1324 1313 1282 1341 1234 C 1368 1186 1390 1131 1406 1069 C 1422 1007 1430 938 1430 862 Z M 1153 991 C 1153 1045 1146 1095 1134 1142 C 1122 1188 1103 1229 1079 1263 C 1055 1297 1025 1323 989 1343 C 953 1362 912 1372 866 1372 C 804 1372 750 1356 702 1326 C 654 1296 613 1256 577 1206 C 541 1156 511 1100 487 1038 C 463 976 443 912 428 848 C 412 784 401 721 395 661 C 388 601 385 548 385 504 C 385 448 391 397 403 351 C 415 304 434 264 458 230 C 482 196 513 170 549 151 C 585 132 626 123 674 123 C 720 123 762 131 800 149 C 838 167 872 191 904 221 C 935 251 963 287 987 327 C 1011 367 1033 411 1051 457 C 1069 503 1085 550 1098 599 C 1111 648 1122 696 1130 743 C 1138 790 1143 835 1147 877 C 1151 919 1153 957 1153 991 Z M 837 1775 C 837 1757 833 1740 827 1724 C 821 1708 812 1695 801 1683 C 789 1671 776 1662 761 1656 C 746 1649 730 1646 714 1646 C 696 1646 680 1649 665 1656 C 650 1662 637 1671 626 1683 C 614 1695 605 1708 599 1724 C 592 1740 589 1757 589 1775 C 589 1793 592 1810 599 1826 C 605 1842 614 1855 626 1867 C 637 1879 650 1888 665 1895 C 680 1902 696 1906 714 1906 C 730 1906 746 1902 761 1895 C 776 1888 789 1879 801 1867 C 812 1855 821 1842 827 1826 C 833 1810 837 1793 837 1775 Z M 1257 1775 C 1257 1757 1253 1740 1247 1724 C 1240 1708 1231 1695 1220 1683 C 1208 1671 1195 1662 1180 1656 C 1164 1649 1148 1646 1132 1646 C 1114 1646 1098 1649 1083 1656 C 1068 1662 1055 1671 1044 1683 C 1032 1695 1023 1708 1017 1724 C 1010 1740 1007 1757 1007 1775 C 1007 1793 1010 1810 1017 1826 C 1023 1842 1032 1855 1044 1867 C 1055 1879 1068 1888 1083 1895 C 1098 1902 1114 1906 1132 1906 C 1148 1906 1164 1902 1180 1895 C 1195 1888 1208 1879 1220 1867 C 1231 1855 1240 1842 1247 1826 C 1253 1810 1257 1793 1257 1775 Z" unicode="" />
<glyph horiz-adv-x="1516" d="M 1323 211 L 1200 88 L 813 483 L 422 90 L 299 213 L 694 602 L 305 989 L 426 1110 L 813 721 L 1200 1110 L 1321 989 L 932 602 L 1323 211 Z" unicode="" />
<glyph horiz-adv-x="1405" d="M 1456 1552 L 1278 1319 C 1300 1291 1321 1261 1340 1229 C 1358 1196 1374 1161 1388 1123 C 1401 1085 1411 1044 1419 1001 C 1426 957 1430 911 1430 862 C 1430 780 1421 701 1403 626 C 1385 550 1359 480 1326 415 C 1293 349 1253 290 1207 237 C 1161 183 1109 137 1052 99 C 995 61 933 31 867 11 C 801 -9 731 -20 659 -20 C 607 -20 554 -10 499 8 C 443 27 391 56 342 96 L 213 -72 L 70 -72 L 260 176 C 214 230 178 294 150 370 C 122 445 109 533 109 633 C 109 713 117 791 135 866 C 153 940 178 1010 211 1076 C 244 1142 284 1202 330 1256 C 376 1310 427 1356 484 1394 C 541 1432 603 1462 669 1484 C 735 1505 804 1516 877 1516 C 929 1516 982 1506 1038 1487 C 1094 1467 1146 1438 1196 1399 L 1313 1552 L 1456 1552 Z M 1087 1257 C 1062 1294 1031 1322 994 1342 C 957 1362 914 1372 866 1372 C 804 1372 750 1357 702 1328 C 654 1298 612 1259 576 1211 C 540 1163 509 1108 484 1047 C 459 985 439 922 423 858 C 407 794 396 731 389 669 C 382 607 379 552 379 504 C 379 477 380 450 383 423 C 386 395 391 371 397 350 L 1087 1257 Z M 1159 991 C 1159 1017 1157 1044 1154 1072 C 1151 1099 1147 1124 1141 1147 L 449 238 C 474 200 505 172 543 152 C 580 132 624 123 674 123 C 735 123 789 138 837 168 C 885 198 927 237 963 286 C 999 334 1029 390 1054 452 C 1079 514 1099 577 1115 641 C 1130 705 1141 768 1148 829 C 1155 890 1159 944 1159 991 Z" unicode="" />
</font>
</defs>
</svg>
