<?xml version="1.0" encoding="utf-8" ?><svg version="1.1" xmlns = 'http://www.w3.org/2000/svg'><defs><font id='web' horiz-adv-x="1000">
<font-face font-family="web" descent="-426" cap-height="1434" units-per-em="2048" bbox="-336,-416,2349,2032" x-height="1024" ascent="1622" />
<missing-glyph horiz-adv-x="471" d="" /><glyph horiz-adv-x="424" d="" unicode=" " />
<glyph horiz-adv-x="580" d="M 403 1362 C 403 1330 401 1299 398 1269 C 394 1239 390 1208 385 1174 C 380 1140 374 1103 368 1063 C 362 1023 356 976 350 924 C 344 876 340 828 338 781 C 335 733 333 687 332 642 C 331 597 330 554 330 514 C 330 473 329 435 328 401 C 328 397 323 393 315 388 C 307 383 299 381 291 381 C 283 381 276 383 268 388 C 260 393 256 397 256 401 C 254 435 253 473 253 514 C 252 555 251 598 250 643 C 249 687 247 733 244 781 C 241 828 237 876 231 924 C 224 976 217 1023 211 1064 C 205 1104 199 1141 194 1175 C 188 1209 184 1240 181 1270 C 177 1300 176 1330 176 1362 C 176 1381 177 1400 181 1419 C 185 1437 191 1454 200 1469 C 208 1483 220 1495 235 1504 C 249 1513 267 1518 289 1518 C 311 1518 329 1513 344 1504 C 358 1495 370 1483 379 1469 C 387 1454 393 1437 397 1419 C 401 1400 403 1381 403 1362 Z M 414 109 C 414 92 410 76 404 62 C 398 47 389 34 378 23 C 366 12 353 3 338 -2 C 323 -8 307 -12 289 -12 C 271 -12 254 -8 239 -2 C 224 3 211 12 201 23 C 191 34 183 47 177 62 C 171 76 168 92 168 109 C 168 125 171 140 177 154 C 183 168 191 180 201 191 C 211 202 224 211 239 217 C 254 223 271 227 289 227 C 307 227 323 223 338 217 C 353 211 366 202 378 191 C 389 180 398 168 404 154 C 410 140 414 125 414 109 Z" unicode="!" />
<glyph horiz-adv-x="815" d="M 674 1403 C 674 1383 671 1357 667 1323 C 662 1289 656 1250 649 1208 C 641 1165 633 1120 624 1072 C 615 1024 606 976 598 930 C 594 926 591 923 589 921 C 587 919 581 918 573 918 C 565 918 560 919 557 921 C 554 923 551 926 547 930 C 539 975 530 1022 521 1070 C 512 1118 504 1163 496 1206 C 488 1249 482 1288 478 1322 C 473 1356 471 1383 471 1403 C 471 1435 479 1462 495 1484 C 511 1505 537 1516 573 1516 C 609 1516 634 1505 650 1484 C 666 1462 674 1435 674 1403 Z M 346 1403 C 346 1383 343 1357 338 1323 C 333 1289 327 1250 319 1208 C 311 1165 303 1120 295 1072 C 286 1024 278 976 270 930 C 266 926 263 923 261 921 C 258 919 252 918 242 918 C 234 918 229 919 226 921 C 223 923 220 926 217 930 C 208 975 199 1022 190 1070 C 181 1118 173 1163 166 1206 C 158 1249 152 1288 148 1322 C 143 1356 141 1383 141 1403 C 141 1435 148 1462 164 1484 C 180 1505 206 1516 242 1516 C 278 1516 304 1505 321 1484 C 337 1462 346 1435 346 1403 Z" unicode="&#x22;" />
<glyph horiz-adv-x="1565" d="M 1366 1016 L 1343 866 L 1001 866 L 954 551 L 1296 551 L 1274 401 L 928 401 L 860 -18 L 780 -18 L 848 401 L 608 401 L 543 -18 L 461 -18 L 526 401 L 190 401 L 213 551 L 553 551 L 602 866 L 260 866 L 283 1016 L 627 1016 L 688 1403 L 768 1403 L 707 1016 L 946 1016 L 1006 1403 L 1085 1403 L 1028 1016 L 1366 1016 Z M 922 866 L 684 866 L 633 551 L 870 551 L 922 866 Z" unicode="#" />
<glyph horiz-adv-x="1124" d="M 1053 406 C 1053 358 1044 311 1027 265 C 1009 218 983 175 948 137 C 913 99 869 67 816 41 C 762 15 700 0 629 -6 L 629 -279 L 543 -279 L 543 -12 C 453 -10 378 0 318 21 C 257 41 208 67 171 97 C 133 127 106 159 90 193 C 74 227 66 259 66 289 C 66 313 69 334 77 351 C 84 368 94 382 106 393 C 118 403 131 411 147 416 C 163 421 179 424 197 424 C 217 424 235 421 249 415 C 263 409 275 401 284 391 C 293 381 300 369 304 356 C 308 343 311 330 311 317 C 311 291 304 268 291 248 C 277 228 251 208 213 190 C 229 176 247 163 268 149 C 288 135 312 123 339 112 C 366 101 396 92 430 84 C 464 76 501 72 543 72 L 543 645 C 526 652 508 659 489 666 C 469 673 447 682 422 692 C 390 704 358 719 324 738 C 290 756 260 779 232 807 C 204 834 182 866 164 903 C 146 939 137 982 137 1032 C 137 1085 146 1134 166 1178 C 186 1222 214 1260 250 1293 C 286 1325 328 1351 378 1371 C 428 1391 483 1403 543 1409 L 543 1516 L 629 1516 L 629 1411 C 683 1408 729 1401 768 1390 C 807 1379 840 1366 868 1350 C 895 1334 917 1316 934 1298 C 950 1279 963 1261 973 1243 C 982 1225 988 1208 992 1192 C 995 1176 997 1164 997 1155 C 997 1134 994 1116 988 1101 C 982 1086 974 1074 964 1064 C 954 1054 943 1047 931 1043 C 919 1038 906 1036 893 1036 C 880 1036 867 1038 854 1042 C 841 1046 829 1051 819 1059 C 809 1067 800 1076 794 1088 C 787 1099 784 1112 784 1128 C 784 1154 790 1175 804 1192 C 818 1208 836 1223 860 1237 C 851 1243 841 1251 830 1261 C 818 1270 804 1279 787 1288 C 769 1297 748 1305 723 1313 C 697 1320 666 1325 629 1329 L 629 817 C 655 805 683 794 713 782 C 743 770 777 754 815 735 C 851 717 883 696 912 674 C 941 652 966 627 987 600 C 1008 573 1024 543 1036 511 C 1047 479 1053 444 1053 406 Z M 543 836 L 543 1329 C 509 1325 477 1317 448 1305 C 418 1292 393 1276 371 1257 C 349 1238 332 1217 320 1193 C 307 1169 301 1144 301 1118 C 301 1091 303 1066 308 1042 C 313 1018 322 996 336 975 C 349 953 368 933 392 913 C 416 893 448 874 487 856 C 496 852 505 849 515 846 C 525 842 534 839 543 836 Z M 885 332 C 885 345 883 362 881 384 C 879 406 871 429 858 455 C 845 481 824 507 796 533 C 767 559 726 584 674 608 C 665 611 657 614 649 618 C 641 622 634 625 629 627 L 629 80 C 668 85 703 95 735 110 C 767 124 794 143 816 165 C 838 187 855 212 867 240 C 879 268 885 299 885 332 Z" unicode="$" />
<glyph horiz-adv-x="1743" d="M 1614 397 C 1614 336 1606 281 1590 231 C 1574 181 1551 138 1523 102 C 1494 66 1460 39 1422 19 C 1383 0 1341 -10 1296 -10 C 1251 -10 1209 0 1171 19 C 1133 39 1099 66 1071 102 C 1043 138 1021 181 1005 231 C 989 281 981 336 981 397 C 981 457 988 513 1004 563 C 1020 613 1042 656 1070 692 C 1098 728 1131 755 1170 775 C 1208 795 1250 805 1296 805 C 1342 805 1384 795 1423 775 C 1462 755 1496 728 1524 692 C 1552 656 1574 613 1590 563 C 1606 513 1614 457 1614 397 Z M 1348 1501 L 500 -20 L 391 -20 L 1239 1501 L 1348 1501 Z M 760 1081 C 760 1020 751 965 735 915 C 719 865 696 822 668 786 C 640 750 606 723 567 703 C 528 683 486 674 440 674 C 395 674 353 683 315 703 C 277 723 243 750 215 786 C 187 822 165 865 149 915 C 133 965 125 1020 125 1081 C 125 1141 133 1197 149 1247 C 165 1297 187 1340 215 1376 C 243 1412 276 1439 314 1459 C 352 1479 394 1489 440 1489 C 486 1489 528 1479 568 1459 C 607 1439 641 1412 669 1376 C 697 1340 720 1297 736 1247 C 752 1197 760 1141 760 1081 Z M 1468 397 C 1468 456 1464 507 1456 549 C 1448 591 1436 625 1422 651 C 1407 677 1389 697 1368 709 C 1346 721 1322 727 1296 727 C 1270 727 1246 721 1225 709 C 1204 697 1186 677 1172 651 C 1157 625 1146 591 1138 549 C 1130 507 1126 456 1126 397 C 1126 337 1130 287 1138 245 C 1146 203 1157 169 1172 143 C 1186 117 1204 98 1225 86 C 1246 74 1270 68 1296 68 C 1322 68 1345 74 1367 86 C 1388 98 1406 117 1421 143 C 1436 169 1448 202 1456 244 C 1464 286 1468 337 1468 397 Z M 614 1081 C 614 1140 610 1191 602 1233 C 594 1275 582 1309 567 1335 C 552 1361 534 1381 513 1393 C 491 1405 467 1411 440 1411 C 414 1411 390 1405 369 1393 C 348 1381 330 1361 316 1335 C 301 1309 290 1275 282 1233 C 274 1191 270 1140 270 1081 C 270 1021 274 971 282 929 C 290 887 301 853 316 827 C 330 801 348 782 369 770 C 390 758 414 752 440 752 C 466 752 490 758 512 770 C 534 782 552 801 567 827 C 582 853 594 886 602 928 C 610 970 614 1021 614 1081 Z" unicode="%" />
<glyph horiz-adv-x="1573" d="M 1585 68 C 1564 54 1544 42 1525 31 C 1505 20 1484 11 1462 3 C 1440 -5 1415 -11 1387 -16 C 1359 -20 1326 -23 1288 -23 C 1254 -23 1223 -19 1193 -11 C 1163 -3 1135 7 1108 22 C 1080 37 1053 55 1027 77 C 1001 99 974 124 948 152 C 882 99 814 57 744 25 C 674 -7 600 -23 524 -23 C 444 -23 374 -11 316 12 C 258 35 210 66 173 104 C 135 142 108 185 90 234 C 72 283 63 333 63 385 C 63 482 96 570 164 650 C 231 730 333 800 469 860 C 453 888 438 916 425 944 C 411 972 400 999 390 1027 C 380 1054 372 1081 366 1108 C 360 1134 358 1160 358 1184 C 358 1228 366 1270 383 1310 C 400 1350 425 1386 457 1417 C 489 1447 528 1472 575 1490 C 621 1508 675 1518 735 1518 C 791 1518 841 1509 883 1491 C 925 1473 959 1451 986 1423 C 1013 1395 1033 1365 1047 1331 C 1060 1297 1067 1265 1067 1233 C 1067 1183 1056 1138 1036 1098 C 1016 1057 988 1021 952 989 C 916 957 874 929 826 906 C 777 882 724 863 668 848 C 690 810 714 771 738 731 C 762 690 788 647 817 602 C 853 544 888 491 922 445 C 956 398 988 356 1018 319 C 1044 349 1069 380 1092 412 C 1115 444 1135 474 1152 503 C 1169 531 1182 557 1192 580 C 1201 602 1206 619 1206 629 C 1206 641 1204 651 1202 659 C 1199 667 1194 674 1187 681 C 1180 687 1170 694 1157 700 C 1143 706 1126 713 1106 721 C 1085 727 1071 732 1064 736 C 1056 740 1053 746 1053 756 L 1053 795 L 1538 795 L 1538 754 C 1538 746 1535 739 1530 734 C 1525 728 1519 724 1512 720 C 1504 716 1496 712 1488 710 C 1480 708 1472 706 1466 705 C 1451 701 1437 697 1425 693 C 1412 689 1398 681 1384 670 C 1370 659 1354 642 1336 620 C 1318 598 1296 566 1270 526 C 1236 474 1203 427 1169 384 C 1135 341 1100 301 1063 264 C 1117 203 1168 157 1218 127 C 1267 97 1320 82 1376 82 C 1390 82 1404 83 1420 87 C 1436 90 1451 94 1467 100 C 1483 105 1498 111 1513 117 C 1528 123 1542 130 1556 137 L 1585 68 Z M 899 203 C 859 250 818 301 778 355 C 738 409 698 466 659 528 C 637 562 613 602 585 649 C 557 696 528 746 498 799 C 450 773 411 746 379 719 C 347 692 322 664 303 636 C 283 607 270 577 262 547 C 254 517 250 485 250 451 C 250 398 257 350 272 307 C 287 263 310 226 340 196 C 370 165 408 141 454 125 C 499 108 552 100 612 100 C 666 100 716 109 764 129 C 812 149 857 173 899 203 Z M 913 1233 C 913 1269 907 1300 897 1326 C 886 1352 872 1374 854 1392 C 836 1409 815 1422 792 1431 C 769 1439 745 1444 721 1444 C 693 1444 667 1439 644 1429 C 621 1419 601 1406 585 1389 C 568 1372 555 1352 546 1329 C 536 1305 532 1280 532 1253 C 532 1219 534 1188 540 1158 C 545 1128 552 1100 562 1072 C 572 1044 583 1016 596 989 C 608 961 622 933 637 905 C 681 921 718 939 749 959 C 780 979 806 999 826 1020 C 846 1041 862 1062 874 1084 C 886 1105 894 1125 900 1144 C 906 1163 909 1180 911 1196 C 912 1211 913 1223 913 1233 Z" unicode="&#x26;" />
<glyph horiz-adv-x="487" d="M 346 1403 C 346 1383 343 1357 338 1323 C 333 1289 327 1250 319 1208 C 311 1165 303 1120 295 1072 C 286 1024 278 976 270 930 C 266 926 263 923 261 921 C 258 919 252 918 242 918 C 234 918 229 919 226 921 C 223 923 220 926 217 930 C 208 975 199 1022 190 1070 C 181 1118 173 1163 166 1206 C 158 1249 152 1288 148 1322 C 143 1356 141 1383 141 1403 C 141 1435 148 1462 164 1484 C 180 1505 206 1516 242 1516 C 278 1516 304 1505 321 1484 C 337 1462 346 1435 346 1403 Z" unicode="'" />
<glyph horiz-adv-x="707" d="M 682 -330 L 623 -389 C 551 -335 483 -273 421 -204 C 359 -135 305 -60 259 21 C 213 102 176 188 150 280 C 124 372 111 467 111 565 C 111 657 123 747 149 837 C 174 926 209 1012 255 1094 C 301 1176 355 1252 418 1324 C 480 1396 549 1460 623 1516 L 682 1456 C 618 1408 561 1353 512 1289 C 463 1225 422 1155 388 1079 C 354 1003 329 921 312 835 C 295 748 287 658 287 565 C 287 364 320 189 386 40 C 452 -108 551 -232 682 -330 Z" unicode="(" />
<glyph horiz-adv-x="707" d="M 598 565 C 598 467 584 372 558 280 C 532 188 496 102 450 21 C 404 -60 349 -135 287 -204 C 225 -273 158 -335 86 -389 L 27 -330 C 157 -232 256 -108 322 40 C 388 189 422 364 422 565 C 422 658 413 748 396 835 C 379 921 354 1003 320 1079 C 286 1155 245 1225 196 1289 C 147 1353 91 1408 27 1456 L 86 1516 C 160 1460 228 1396 291 1324 C 353 1252 407 1176 453 1094 C 499 1012 534 926 560 837 C 585 747 598 657 598 565 Z" unicode=")" />
<glyph horiz-adv-x="924" d="M 844 1255 C 844 1226 828 1203 797 1186 C 779 1176 764 1168 751 1164 C 738 1160 725 1156 713 1154 C 701 1152 688 1150 676 1148 C 663 1146 649 1144 633 1140 C 617 1136 598 1129 577 1121 C 555 1113 530 1101 502 1085 C 530 1069 555 1058 576 1050 C 597 1042 616 1035 632 1031 C 648 1027 663 1024 676 1023 C 688 1021 701 1019 713 1017 C 725 1015 737 1011 750 1007 C 763 1003 778 996 795 987 C 826 967 842 943 842 915 C 842 894 834 876 818 861 C 802 845 784 838 764 838 C 751 838 739 840 727 846 C 715 852 703 859 692 868 C 681 876 671 886 661 897 C 651 908 641 919 633 930 C 627 939 620 948 613 956 C 605 964 596 972 585 981 C 574 990 560 1000 544 1011 C 527 1021 506 1034 481 1049 C 481 1017 483 990 486 968 C 489 946 493 928 497 913 C 501 897 506 884 511 873 C 516 861 521 850 525 839 C 529 827 532 815 535 802 C 537 788 539 772 539 754 C 539 740 536 728 532 718 C 528 708 522 699 515 692 C 507 685 499 680 490 677 C 480 673 471 672 461 672 C 437 672 418 679 402 694 C 386 709 379 729 379 754 C 379 772 380 788 383 802 C 385 815 388 827 392 838 C 396 849 400 860 405 872 C 409 883 414 896 418 912 C 422 927 426 946 429 968 C 432 990 434 1017 436 1049 C 412 1035 392 1024 376 1014 C 360 1004 346 994 335 986 C 324 978 315 970 308 963 C 301 955 295 948 289 940 C 281 930 273 919 264 908 C 254 896 244 886 233 876 C 222 866 210 858 198 852 C 185 845 172 842 158 842 C 135 842 116 849 100 864 C 84 879 76 897 76 918 C 76 946 91 969 123 987 C 139 997 154 1004 168 1008 C 181 1012 194 1016 206 1018 C 218 1020 230 1022 243 1024 C 255 1025 270 1028 286 1032 C 302 1036 320 1042 342 1050 C 363 1058 388 1069 418 1085 C 388 1100 363 1112 342 1121 C 320 1129 301 1136 285 1140 C 269 1144 254 1147 242 1149 C 229 1151 217 1153 205 1156 C 193 1158 181 1162 168 1166 C 155 1170 141 1178 125 1188 C 108 1198 96 1208 89 1220 C 81 1231 78 1243 78 1257 C 78 1267 80 1276 84 1286 C 88 1296 94 1304 102 1311 C 109 1318 117 1324 127 1328 C 136 1332 146 1335 156 1335 C 168 1335 181 1332 193 1326 C 205 1320 217 1313 228 1305 C 239 1296 250 1286 260 1275 C 270 1264 279 1253 287 1243 C 293 1233 300 1224 307 1216 C 314 1208 323 1199 334 1190 C 344 1180 358 1170 374 1160 C 390 1149 412 1137 438 1124 C 436 1155 434 1181 431 1203 C 428 1225 424 1243 420 1259 C 416 1274 411 1287 407 1299 C 402 1311 398 1322 394 1334 C 390 1345 387 1357 385 1370 C 382 1383 381 1399 381 1419 C 381 1446 389 1466 405 1480 C 421 1494 440 1501 461 1501 C 483 1501 502 1493 518 1478 C 533 1463 541 1443 541 1419 C 541 1399 539 1383 537 1370 C 534 1357 531 1345 527 1334 C 523 1322 518 1311 513 1299 C 508 1287 503 1274 499 1259 C 495 1243 491 1225 488 1203 C 485 1181 483 1155 483 1124 C 507 1137 527 1149 544 1159 C 560 1169 574 1179 585 1187 C 596 1195 605 1203 612 1210 C 619 1217 625 1225 631 1233 C 637 1243 645 1253 655 1265 C 664 1276 674 1286 685 1296 C 696 1306 708 1314 721 1321 C 734 1327 748 1331 762 1331 C 785 1331 804 1323 820 1308 C 836 1293 844 1275 844 1255 Z" unicode="*" />
<glyph horiz-adv-x="1569" d="M 1335 547 L 842 547 L 842 72 L 727 72 L 727 547 L 233 547 L 233 653 L 727 653 L 727 1128 L 842 1128 L 842 653 L 1335 653 L 1335 547 Z" unicode="+" />
<glyph horiz-adv-x="471" d="M 365 76 C 365 46 359 13 349 -21 C 339 -56 323 -91 302 -126 C 280 -161 253 -195 219 -227 C 185 -259 146 -288 100 -313 L 53 -268 C 73 -254 94 -238 116 -221 C 137 -203 157 -184 177 -163 C 196 -141 213 -117 229 -90 C 245 -62 257 -32 266 2 C 235 2 210 6 191 13 C 171 19 156 28 145 38 C 134 48 127 60 123 73 C 119 86 117 99 117 113 C 117 132 120 149 126 163 C 132 177 141 189 152 199 C 162 209 175 216 189 221 C 203 226 217 229 233 229 C 258 229 279 225 296 218 C 313 210 327 200 337 187 C 347 173 354 157 358 138 C 362 119 365 98 365 76 Z" unicode="," />
<glyph horiz-adv-x="662" d="M 571 391 L 90 391 L 90 524 L 571 524 L 571 391 Z" unicode="-" />
<glyph horiz-adv-x="471" d="M 360 106 C 360 90 356 75 350 61 C 344 47 335 34 324 23 C 313 12 300 3 285 -2 C 270 -8 254 -12 236 -12 C 218 -12 202 -8 188 -2 C 174 3 161 12 151 23 C 140 34 132 47 126 61 C 120 75 117 90 117 106 C 117 122 120 137 126 151 C 132 165 140 178 151 188 C 161 198 174 207 188 213 C 202 219 218 223 236 223 C 254 223 270 219 285 213 C 300 207 313 198 324 188 C 335 178 344 165 350 151 C 356 137 360 122 360 106 Z" unicode="." />
<glyph horiz-adv-x="930" d="M 850 1495 L 78 -389 L -39 -389 L 729 1495 L 850 1495 Z" unicode="/" />
<glyph horiz-adv-x="1223" d="M 1137 700 C 1137 592 1124 493 1098 405 C 1072 316 1037 240 991 177 C 945 114 889 65 825 31 C 761 -2 690 -20 614 -20 C 536 -20 464 -2 399 31 C 334 65 278 114 232 177 C 186 240 150 316 124 405 C 98 493 86 592 86 700 C 86 807 98 905 124 994 C 149 1082 185 1158 231 1222 C 277 1286 333 1335 398 1370 C 463 1405 535 1423 614 1423 C 691 1423 762 1405 826 1370 C 890 1335 946 1286 992 1222 C 1038 1158 1073 1082 1099 994 C 1124 905 1137 807 1137 700 Z M 938 700 C 938 816 930 915 915 997 C 900 1078 879 1144 851 1195 C 823 1246 789 1283 749 1306 C 709 1329 664 1341 614 1341 C 562 1341 516 1329 476 1306 C 436 1282 401 1245 373 1194 C 344 1142 322 1076 307 995 C 292 914 285 816 285 700 C 285 584 292 485 307 404 C 322 323 344 257 373 206 C 401 155 436 118 476 95 C 516 72 562 61 614 61 C 662 61 707 72 747 95 C 787 117 821 154 849 204 C 877 254 899 320 915 402 C 930 483 938 582 938 700 Z" unicode="0" />
<glyph horiz-adv-x="788" d="M 707 0 L 135 0 L 135 43 C 135 53 138 61 145 67 C 151 73 160 77 170 81 C 180 84 192 86 205 88 C 217 90 230 92 242 94 C 262 96 279 100 291 106 C 303 112 313 119 319 127 C 325 135 329 146 331 158 C 333 170 334 185 334 203 L 334 1212 L 100 1212 L 100 1280 L 449 1407 L 508 1407 L 508 203 C 508 188 509 175 512 163 C 515 151 520 141 528 133 C 536 124 546 117 559 111 C 572 105 589 100 610 98 C 620 96 630 95 642 93 C 654 91 664 88 674 84 C 683 80 691 75 697 69 C 703 63 707 55 707 45 L 707 0 Z" unicode="1" />
<glyph horiz-adv-x="1030" d="M 965 1069 C 965 1023 957 979 941 938 C 925 896 905 857 880 820 C 854 783 826 748 794 716 C 762 684 729 654 697 626 C 664 598 632 572 602 550 C 571 527 544 507 522 489 C 458 439 397 387 337 334 C 277 280 222 221 172 156 L 723 156 C 741 156 758 157 773 159 C 788 161 802 166 814 174 C 826 182 837 193 846 209 C 855 224 863 245 870 272 C 872 280 874 286 878 290 C 882 294 886 297 890 299 C 894 300 899 301 905 301 C 910 301 916 301 922 301 L 963 301 L 954 0 L 47 0 L 47 115 C 68 149 96 187 131 230 C 165 272 203 316 244 362 C 285 408 328 454 373 500 C 417 546 460 589 502 631 C 538 666 572 701 604 737 C 636 772 664 808 688 845 C 712 882 731 920 745 960 C 759 1000 766 1041 766 1085 C 766 1124 759 1159 745 1191 C 731 1222 711 1249 685 1271 C 659 1293 628 1309 592 1321 C 556 1333 515 1339 471 1339 C 441 1339 411 1334 383 1325 C 354 1315 328 1303 306 1289 C 283 1274 264 1258 248 1240 C 232 1222 223 1206 219 1190 C 239 1173 257 1156 271 1138 C 285 1120 293 1097 293 1069 C 293 1037 284 1011 266 993 C 248 974 223 965 193 965 C 151 965 120 977 100 1001 C 80 1025 70 1058 70 1100 C 70 1137 82 1175 107 1213 C 131 1251 164 1286 206 1317 C 248 1348 296 1373 351 1393 C 406 1413 464 1423 526 1423 C 593 1423 654 1414 708 1398 C 762 1381 808 1357 846 1326 C 884 1295 913 1258 934 1215 C 954 1171 965 1123 965 1069 Z" unicode="2" />
<glyph horiz-adv-x="1047" d="M 989 412 C 989 364 981 320 966 280 C 951 240 931 204 905 172 C 879 140 848 112 813 88 C 778 64 740 44 700 28 C 659 12 617 0 573 -8 C 529 -16 486 -20 444 -20 C 384 -20 329 -13 278 0 C 226 12 182 30 144 54 C 106 78 77 106 55 139 C 33 172 23 208 23 248 C 23 260 25 274 29 288 C 33 302 40 314 50 326 C 60 338 72 347 88 355 C 103 363 121 367 143 367 C 162 367 179 363 193 357 C 207 351 218 343 227 334 C 236 325 243 316 247 306 C 251 296 254 287 254 279 C 254 263 252 250 250 239 C 247 227 243 217 239 208 C 234 198 228 190 222 182 C 216 174 209 165 203 156 C 209 144 219 133 233 122 C 247 111 265 101 285 92 C 305 83 328 76 354 71 C 379 65 406 63 434 63 C 494 63 547 73 591 93 C 635 113 672 139 701 171 C 730 203 752 240 766 281 C 780 322 788 364 788 406 C 788 464 778 513 759 553 C 739 593 711 625 673 650 C 635 675 589 693 533 704 C 477 715 414 721 342 721 L 342 801 C 420 807 485 818 536 833 C 587 847 627 867 657 893 C 687 918 707 949 719 987 C 731 1025 737 1070 737 1122 C 737 1148 731 1174 721 1200 C 711 1226 695 1249 674 1270 C 652 1290 625 1307 593 1320 C 561 1332 523 1339 479 1339 C 447 1339 418 1336 394 1331 C 370 1326 348 1320 329 1312 C 310 1304 293 1294 279 1284 C 265 1274 252 1263 240 1253 C 251 1243 261 1235 269 1228 C 277 1220 283 1212 288 1204 C 293 1196 297 1187 299 1177 C 301 1167 303 1156 303 1143 C 303 1113 293 1088 275 1069 C 256 1049 229 1040 193 1040 C 161 1040 135 1051 115 1073 C 94 1095 84 1125 84 1165 C 84 1201 96 1235 122 1267 C 147 1299 180 1326 220 1349 C 260 1372 305 1390 355 1403 C 405 1416 454 1423 504 1423 C 564 1423 621 1415 674 1400 C 726 1384 772 1363 811 1336 C 850 1308 881 1275 903 1237 C 925 1199 936 1156 936 1110 C 936 1062 926 1021 908 985 C 890 949 865 917 834 890 C 802 863 766 840 725 821 C 683 802 640 786 594 774 C 640 769 687 759 735 744 C 782 728 824 706 862 677 C 899 648 929 612 953 568 C 977 524 989 472 989 412 Z" unicode="3" />
<glyph horiz-adv-x="1073" d="M 1051 375 L 827 375 L 827 147 C 827 129 831 115 839 105 C 847 95 864 86 889 76 C 906 68 918 64 924 62 C 930 60 934 56 934 51 L 934 0 L 530 0 L 530 51 C 530 57 535 61 546 64 C 557 66 569 70 582 76 C 592 80 602 83 611 87 C 619 90 627 94 633 99 C 639 103 644 109 648 117 C 651 125 653 135 653 147 L 653 375 L -14 375 L -14 459 L 733 1423 L 827 1423 L 827 479 L 1051 479 L 1051 375 Z M 653 479 L 653 1184 L 109 479 L 653 479 Z" unicode="4" />
<glyph horiz-adv-x="1055" d="M 993 469 C 993 395 978 328 949 268 C 920 208 881 156 831 114 C 781 71 724 38 658 15 C 592 -8 523 -20 451 -20 C 395 -20 342 -13 294 0 C 245 13 203 31 167 55 C 131 78 102 106 82 138 C 61 170 51 204 51 242 C 51 257 53 272 58 287 C 62 302 69 315 79 327 C 89 339 101 348 117 356 C 132 363 150 367 172 367 C 189 367 204 364 217 358 C 230 352 241 344 250 335 C 258 326 265 316 269 306 C 273 295 276 285 276 276 C 276 260 275 247 273 237 C 271 226 268 216 264 207 C 260 198 254 189 248 181 C 242 173 235 164 227 154 C 233 142 243 131 258 120 C 272 109 290 99 312 91 C 333 83 356 76 382 71 C 408 65 435 63 463 63 C 517 63 564 73 605 94 C 646 115 680 143 708 177 C 736 211 757 250 771 293 C 785 336 793 380 793 424 C 793 474 787 520 775 564 C 763 608 745 646 720 678 C 694 710 662 736 622 755 C 582 774 535 784 479 784 C 417 784 363 774 316 754 C 268 734 222 705 178 668 L 123 705 L 160 1401 L 725 1401 C 747 1401 765 1401 778 1402 C 790 1403 800 1406 808 1410 C 815 1414 820 1419 824 1427 C 828 1435 832 1446 836 1460 C 841 1477 846 1487 852 1489 C 858 1491 866 1493 877 1493 L 920 1493 L 903 1247 L 250 1247 L 227 803 C 279 835 329 859 378 873 C 426 887 474 895 522 895 C 605 895 676 882 736 856 C 796 830 845 796 883 755 C 921 714 948 668 966 618 C 984 568 993 518 993 469 Z" unicode="5" />
<glyph horiz-adv-x="1163" d="M 1104 467 C 1104 402 1092 340 1068 282 C 1044 223 1009 171 965 127 C 921 82 867 46 804 20 C 740 -6 670 -20 592 -20 C 512 -20 440 -3 378 28 C 315 60 262 106 219 164 C 175 222 142 292 120 373 C 97 453 86 542 86 639 C 86 705 91 771 103 835 C 115 899 132 961 155 1019 C 178 1077 207 1131 242 1181 C 277 1230 318 1272 365 1308 C 411 1344 464 1372 523 1392 C 581 1412 646 1423 717 1423 C 764 1423 807 1417 846 1407 C 884 1397 917 1383 945 1365 C 973 1347 994 1327 1009 1303 C 1024 1279 1032 1253 1032 1227 C 1032 1193 1022 1165 1004 1145 C 985 1124 960 1114 930 1114 C 892 1114 865 1123 850 1142 C 835 1161 826 1187 823 1221 L 815 1309 C 812 1310 807 1312 800 1316 C 792 1319 783 1322 772 1326 C 760 1329 747 1332 732 1335 C 717 1337 701 1339 684 1339 C 634 1339 585 1327 537 1304 C 489 1281 446 1244 408 1193 C 370 1142 339 1076 315 994 C 291 912 278 812 276 694 C 301 718 328 740 358 761 C 388 782 420 800 454 815 C 488 830 523 842 561 851 C 598 859 637 864 678 864 C 740 864 798 853 850 833 C 902 813 947 785 985 750 C 1023 714 1052 672 1073 624 C 1093 575 1104 523 1104 467 Z M 905 446 C 905 485 899 523 888 560 C 877 597 860 630 836 659 C 812 687 782 710 745 728 C 708 745 664 754 612 754 C 571 754 532 747 495 735 C 458 723 425 708 395 691 C 365 673 340 656 320 638 C 300 620 286 605 279 594 C 279 530 285 467 297 404 C 309 340 329 283 355 233 C 381 182 414 141 454 110 C 494 78 542 63 598 63 C 652 63 698 73 737 95 C 775 117 807 145 832 181 C 857 216 875 257 887 303 C 899 349 905 396 905 446 Z" unicode="6" />
<glyph horiz-adv-x="969" d="M 981 1307 C 935 1238 890 1172 848 1110 C 806 1047 766 986 730 926 C 693 866 659 806 629 747 C 599 687 573 626 552 564 C 530 501 514 436 502 369 C 490 301 485 230 485 154 C 485 91 476 45 460 17 C 444 -10 414 -25 371 -25 C 333 -25 304 -14 284 6 C 264 26 254 61 254 111 C 254 147 262 192 280 247 C 297 301 320 361 349 427 C 378 492 412 561 451 633 C 489 705 530 777 573 849 C 616 921 660 990 704 1057 C 748 1124 790 1185 831 1241 L 205 1241 C 191 1241 179 1239 171 1236 C 162 1232 155 1227 150 1220 C 144 1213 140 1204 136 1194 C 132 1183 129 1171 127 1157 C 123 1142 117 1133 108 1131 C 99 1129 90 1128 80 1128 L 29 1128 L 55 1413 C 67 1411 84 1410 104 1408 C 124 1406 147 1405 172 1404 C 196 1403 222 1402 250 1402 C 277 1401 304 1401 332 1401 L 981 1401 L 981 1307 Z" unicode="7" />
<glyph horiz-adv-x="1079" d="M 1034 379 C 1034 317 1020 262 992 213 C 964 163 926 121 879 86 C 831 51 776 24 714 5 C 651 -13 585 -23 516 -23 C 444 -23 379 -13 321 5 C 263 23 213 49 173 81 C 132 113 101 152 79 196 C 57 240 47 288 47 340 C 47 389 57 434 77 475 C 97 515 122 551 154 583 C 186 615 221 642 259 665 C 297 687 335 705 373 719 C 335 737 301 758 269 781 C 237 804 209 830 186 858 C 162 886 144 916 131 949 C 117 982 111 1018 111 1057 C 111 1111 122 1161 146 1206 C 170 1251 202 1290 242 1322 C 282 1354 328 1378 381 1396 C 433 1414 489 1423 547 1423 C 609 1423 666 1415 718 1400 C 770 1385 814 1364 850 1337 C 886 1309 915 1277 935 1239 C 955 1201 965 1158 965 1112 C 965 1072 956 1034 938 998 C 920 962 897 930 869 901 C 841 872 810 847 776 826 C 742 805 710 789 678 778 C 730 756 778 733 822 707 C 866 681 903 653 935 621 C 966 589 990 553 1008 513 C 1025 473 1034 429 1034 379 Z M 817 1114 C 817 1146 810 1175 797 1203 C 783 1230 765 1254 741 1275 C 717 1295 687 1311 653 1323 C 619 1335 581 1341 539 1341 C 499 1341 462 1335 429 1324 C 395 1313 366 1298 342 1278 C 318 1258 299 1234 286 1206 C 272 1178 266 1148 266 1116 C 266 1074 275 1037 294 1007 C 312 977 337 950 368 928 C 399 905 434 885 473 868 C 512 850 552 833 594 817 C 620 829 647 844 674 862 C 700 880 724 901 746 925 C 767 949 784 976 797 1007 C 810 1038 817 1074 817 1114 Z M 868 338 C 868 366 863 391 855 415 C 847 439 835 460 821 480 C 807 499 790 516 770 532 C 750 548 728 562 705 575 C 669 593 633 610 596 625 C 559 640 519 657 475 676 C 451 666 424 653 394 637 C 363 621 334 601 307 576 C 279 550 256 519 237 482 C 218 445 209 400 209 346 C 209 303 216 264 232 229 C 247 194 269 164 297 139 C 325 114 359 95 399 81 C 439 67 483 61 532 61 C 574 61 616 67 656 79 C 696 91 732 108 764 132 C 795 156 820 185 839 219 C 858 253 868 293 868 338 Z" unicode="8" />
<glyph horiz-adv-x="1163" d="M 1075 766 C 1075 702 1069 639 1058 575 C 1046 511 1029 451 1007 393 C 984 335 955 280 921 230 C 886 180 845 136 799 99 C 752 62 699 33 640 12 C 580 -9 515 -20 444 -20 C 390 -20 342 -14 300 -4 C 258 6 224 21 196 39 C 168 57 146 78 132 102 C 118 126 111 151 111 178 C 111 213 121 240 141 259 C 161 277 187 287 219 287 C 254 287 279 277 294 258 C 308 238 317 214 319 184 L 328 88 C 336 82 352 76 377 71 C 402 65 435 63 475 63 C 521 63 568 74 616 97 C 664 120 707 157 746 209 C 785 260 817 327 843 409 C 869 491 883 592 887 711 C 861 686 832 663 802 642 C 772 620 740 602 706 587 C 672 571 637 559 600 550 C 563 541 525 537 485 537 C 421 537 364 547 312 568 C 260 589 215 618 178 654 C 141 690 112 733 92 782 C 71 831 61 884 61 940 C 61 1004 73 1066 97 1124 C 121 1182 156 1234 201 1278 C 245 1322 299 1358 362 1384 C 424 1410 494 1423 571 1423 C 654 1423 727 1405 790 1370 C 853 1335 906 1288 948 1228 C 990 1168 1021 1098 1043 1018 C 1064 938 1075 854 1075 766 Z M 883 807 C 883 850 880 893 874 937 C 868 980 860 1021 849 1061 C 837 1100 823 1137 805 1171 C 787 1205 766 1235 742 1260 C 718 1285 690 1305 660 1319 C 629 1333 595 1341 557 1341 C 504 1341 459 1330 421 1309 C 383 1288 353 1260 329 1225 C 305 1189 287 1148 276 1102 C 265 1056 260 1007 260 956 C 260 916 265 877 276 840 C 287 803 304 770 328 742 C 351 714 381 691 419 674 C 456 657 501 649 553 649 C 593 649 631 655 667 667 C 703 679 735 694 764 711 C 793 728 818 746 839 764 C 859 782 874 796 883 807 Z" unicode="9" />
<glyph horiz-adv-x="524" d="M 387 778 C 387 762 384 746 378 732 C 372 717 363 704 352 694 C 341 683 328 674 313 668 C 298 662 282 659 264 659 C 246 659 230 662 216 668 C 201 674 188 683 177 694 C 166 704 158 717 152 732 C 146 746 143 762 143 778 C 143 794 146 809 152 823 C 158 837 166 850 177 860 C 188 870 201 879 216 885 C 230 891 246 895 264 895 C 282 895 298 891 313 885 C 328 879 341 870 352 860 C 363 850 372 837 378 823 C 384 809 387 794 387 778 Z M 387 106 C 387 90 384 75 378 61 C 372 47 363 34 352 23 C 341 12 328 3 313 -2 C 298 -8 282 -12 264 -12 C 246 -12 230 -8 216 -2 C 201 3 188 12 177 23 C 166 34 158 47 152 61 C 146 75 143 90 143 106 C 143 122 146 137 152 151 C 158 165 166 178 177 188 C 188 198 201 207 216 213 C 230 219 246 223 264 223 C 282 223 298 219 313 213 C 328 207 341 198 352 188 C 363 178 372 165 378 151 C 384 137 387 122 387 106 Z" unicode=":" />
<glyph horiz-adv-x="524" d="M 387 778 C 387 762 384 746 378 732 C 372 717 363 704 352 694 C 341 683 328 674 313 668 C 298 662 282 659 264 659 C 246 659 230 662 216 668 C 201 674 188 683 177 694 C 166 704 158 717 152 732 C 146 746 143 762 143 778 C 143 794 146 809 152 823 C 158 837 166 850 177 860 C 188 870 201 879 216 885 C 230 891 246 895 264 895 C 282 895 298 891 313 885 C 328 879 341 870 352 860 C 363 850 372 837 378 823 C 384 809 387 794 387 778 Z M 391 76 C 391 46 385 13 375 -21 C 365 -56 349 -91 328 -126 C 307 -161 280 -195 247 -227 C 214 -259 175 -288 131 -313 L 80 -268 C 100 -254 121 -238 143 -221 C 165 -203 185 -184 205 -163 C 224 -141 241 -117 257 -90 C 273 -62 285 -32 293 2 C 262 2 237 6 217 13 C 197 19 182 28 171 38 C 160 48 153 60 149 73 C 145 86 143 99 143 113 C 143 132 146 149 153 163 C 160 177 169 189 181 199 C 192 209 205 216 219 221 C 233 226 248 229 264 229 C 288 229 308 225 324 218 C 340 210 353 200 363 187 C 373 173 380 157 384 138 C 388 119 391 98 391 76 Z" unicode=";" />
<glyph horiz-adv-x="1569" d="M 1309 78 L 262 543 L 262 657 L 1309 1122 L 1309 1004 L 379 600 L 1309 197 L 1309 78 Z" unicode="&#x3C;" />
<glyph horiz-adv-x="1569" d="M 1319 692 L 252 692 L 252 795 L 1319 795 L 1319 692 Z M 1319 332 L 252 332 L 252 434 L 1319 434 L 1319 332 Z" unicode="=" />
<glyph horiz-adv-x="1569" d="M 1309 543 L 262 78 L 262 197 L 1190 600 L 262 1004 L 262 1122 L 1309 657 L 1309 543 Z" unicode="&#x3E;" />
<glyph horiz-adv-x="901" d="M 834 1214 C 834 1180 829 1150 820 1124 C 811 1097 799 1071 783 1046 C 767 1021 747 996 725 972 C 702 947 677 920 649 891 C 605 845 571 803 546 763 C 521 723 502 683 489 645 C 476 607 467 568 463 530 C 458 492 455 452 453 410 C 453 403 450 395 444 387 C 438 379 427 375 412 375 C 392 375 380 379 374 387 C 368 395 365 403 365 410 C 364 440 365 473 369 509 C 373 545 379 582 389 621 C 398 659 410 699 426 740 C 441 780 460 821 483 862 C 505 903 526 939 546 969 C 565 999 581 1028 595 1054 C 609 1080 619 1105 627 1130 C 635 1155 639 1183 639 1214 C 639 1262 632 1302 619 1333 C 605 1364 588 1389 567 1407 C 546 1425 522 1437 496 1444 C 470 1450 444 1454 418 1454 C 402 1454 386 1452 369 1449 C 352 1445 336 1440 320 1432 C 304 1424 289 1415 276 1403 C 262 1391 252 1378 244 1362 C 269 1339 284 1319 290 1303 C 296 1287 299 1274 299 1264 C 299 1228 290 1201 272 1183 C 254 1165 231 1157 201 1157 C 165 1157 136 1167 115 1189 C 94 1211 84 1238 84 1272 C 84 1301 91 1330 107 1360 C 123 1389 146 1415 178 1439 C 209 1462 248 1481 294 1496 C 340 1510 393 1518 455 1518 C 512 1518 564 1510 611 1496 C 657 1481 697 1460 730 1434 C 763 1407 789 1375 807 1338 C 825 1300 834 1259 834 1214 Z M 532 109 C 532 92 529 76 523 62 C 517 47 508 34 498 23 C 487 12 474 3 459 -2 C 444 -8 428 -12 410 -12 C 392 -12 376 -8 362 -2 C 347 3 334 12 324 23 C 313 34 305 47 299 62 C 293 76 291 92 291 109 C 291 125 293 140 299 154 C 305 168 313 180 324 191 C 334 202 347 211 362 217 C 376 223 392 227 410 227 C 428 227 444 223 459 217 C 474 211 487 202 498 191 C 508 180 517 168 523 154 C 529 140 532 125 532 109 Z" unicode="?" />
<glyph horiz-adv-x="1991" d="M 1843 633 C 1843 580 1837 528 1825 476 C 1813 424 1795 374 1773 326 C 1751 278 1724 234 1692 193 C 1660 152 1623 117 1582 87 C 1541 57 1496 33 1448 16 C 1399 -1 1347 -10 1292 -10 C 1262 -10 1237 -5 1218 3 C 1198 11 1183 22 1172 36 C 1161 49 1154 64 1150 80 C 1146 96 1143 111 1143 127 C 1115 106 1089 88 1066 73 C 1043 57 1020 44 998 34 C 975 24 951 16 927 11 C 902 6 874 4 842 4 C 760 4 698 27 657 74 C 616 120 596 184 596 266 C 596 308 601 351 613 394 C 625 437 641 479 663 521 C 685 562 711 602 741 640 C 771 678 804 714 842 748 C 893 792 947 825 1004 849 C 1060 873 1117 885 1174 885 C 1214 885 1248 879 1278 868 C 1307 856 1333 837 1356 809 L 1432 872 L 1477 872 L 1319 260 C 1315 242 1310 223 1304 201 C 1298 179 1296 160 1296 143 C 1296 116 1301 96 1313 84 C 1324 72 1338 66 1356 66 C 1410 66 1461 82 1509 115 C 1557 148 1598 192 1633 247 C 1668 302 1696 365 1716 436 C 1736 506 1747 579 1747 655 C 1747 731 1733 802 1705 869 C 1677 936 1636 995 1583 1046 C 1530 1096 1465 1136 1389 1166 C 1312 1195 1225 1210 1128 1210 C 1050 1210 977 1200 907 1181 C 837 1161 772 1134 712 1098 C 652 1062 597 1019 548 969 C 499 919 457 863 423 801 C 388 739 361 673 343 601 C 324 529 315 453 315 375 C 315 270 333 175 369 89 C 405 3 455 -69 521 -130 C 586 -191 664 -238 755 -272 C 846 -305 947 -322 1057 -322 C 1162 -322 1263 -305 1361 -273 C 1459 -240 1557 -189 1655 -119 L 1690 -184 C 1490 -332 1280 -406 1059 -406 C 918 -406 792 -385 681 -345 C 570 -304 476 -248 399 -177 C 322 -105 263 -21 223 77 C 182 175 162 281 162 397 C 162 480 173 560 196 637 C 218 714 250 786 291 853 C 332 919 381 980 439 1035 C 497 1089 561 1136 631 1175 C 701 1214 776 1244 856 1266 C 936 1287 1020 1298 1108 1298 C 1220 1298 1321 1281 1412 1249 C 1502 1217 1579 1171 1643 1113 C 1707 1054 1756 984 1791 902 C 1825 820 1843 731 1843 633 Z M 1264 737 C 1264 760 1256 778 1240 792 C 1224 806 1198 813 1163 813 C 1121 813 1082 804 1046 787 C 1010 770 975 743 942 707 C 917 679 894 647 874 613 C 854 578 836 542 821 506 C 806 469 794 432 786 395 C 778 358 774 323 774 289 C 774 226 788 179 817 147 C 846 115 889 100 946 100 C 978 100 1011 109 1047 129 C 1083 148 1115 173 1143 205 L 1251 629 C 1256 650 1259 670 1261 690 C 1263 710 1264 725 1264 737 Z" unicode="@" />
<glyph horiz-adv-x="1434" d="M 1450 0 L 999 0 L 999 33 C 999 37 1001 41 1005 45 C 1009 49 1014 52 1020 56 C 1026 59 1032 62 1039 65 C 1046 68 1053 71 1059 74 C 1074 80 1088 86 1102 94 C 1115 101 1122 109 1122 119 C 1122 128 1118 141 1112 158 C 1105 175 1099 190 1094 203 L 997 434 L 362 434 L 266 203 C 263 197 260 190 258 183 C 255 175 252 168 250 161 C 248 153 246 146 244 140 C 242 134 242 129 242 125 C 242 113 248 103 260 93 C 272 83 289 75 311 68 C 331 60 347 54 357 48 C 367 42 373 34 373 23 L 373 0 L -18 0 L -18 31 C -18 42 -13 50 -4 56 C 4 61 13 67 23 74 C 35 82 47 90 57 98 C 67 106 77 114 86 124 C 95 134 104 145 112 158 C 120 171 129 187 137 205 L 629 1300 L 586 1393 C 582 1399 580 1403 579 1405 C 578 1407 578 1411 578 1417 C 578 1421 579 1423 582 1425 C 584 1427 588 1429 592 1432 C 613 1442 634 1453 655 1467 C 675 1481 695 1495 715 1511 C 716 1512 717 1513 719 1515 C 720 1517 723 1518 727 1518 C 732 1518 736 1516 739 1512 C 742 1508 745 1505 748 1501 L 1307 160 C 1314 143 1324 127 1336 112 C 1348 97 1365 86 1389 78 C 1403 72 1414 68 1422 66 C 1430 63 1436 61 1440 59 C 1444 57 1446 56 1448 54 C 1449 52 1450 49 1450 45 L 1450 0 Z M 963 520 L 688 1190 L 399 520 L 963 520 Z" unicode="A" />
<glyph horiz-adv-x="1311" d="M 1245 403 C 1245 349 1232 297 1206 248 C 1180 199 1143 156 1094 120 C 1045 83 985 54 913 32 C 841 10 760 0 668 0 L 70 0 L 70 45 C 70 50 70 54 72 56 C 74 58 77 61 82 63 C 86 65 93 67 101 69 C 109 71 119 75 131 80 C 145 85 157 89 166 93 C 175 96 182 100 187 104 C 191 108 194 113 196 119 C 198 125 199 133 199 145 L 199 1352 C 199 1360 198 1367 196 1373 C 194 1379 191 1384 187 1389 C 182 1394 175 1399 167 1403 C 158 1407 147 1411 133 1415 C 120 1419 110 1422 102 1425 C 94 1427 87 1430 83 1432 C 79 1434 76 1436 74 1439 C 72 1441 72 1445 72 1450 L 72 1495 L 606 1495 C 700 1495 782 1486 852 1468 C 921 1450 978 1425 1023 1393 C 1068 1361 1102 1324 1124 1281 C 1146 1238 1157 1191 1157 1141 C 1157 1100 1149 1060 1133 1022 C 1117 983 1093 947 1062 915 C 1031 883 993 855 947 832 C 901 808 848 792 788 782 C 852 776 911 765 967 747 C 1023 729 1071 705 1112 675 C 1153 644 1185 606 1209 561 C 1233 516 1245 463 1245 403 Z M 950 1116 C 950 1162 943 1204 931 1241 C 918 1278 897 1309 867 1335 C 837 1361 798 1380 749 1394 C 699 1408 638 1415 565 1415 L 385 1415 L 385 817 L 592 817 C 656 817 711 824 757 838 C 802 852 839 873 868 899 C 896 925 917 956 930 993 C 943 1029 950 1070 950 1116 Z M 1036 410 C 1036 466 1027 513 1010 553 C 992 593 965 625 927 651 C 889 676 841 695 781 707 C 721 719 648 725 563 725 L 385 725 L 385 80 L 608 80 C 682 80 746 87 800 101 C 854 115 898 137 933 165 C 968 193 994 227 1011 268 C 1027 309 1036 356 1036 410 Z" unicode="B" />
<glyph horiz-adv-x="1315" d="M 1315 293 C 1299 261 1274 227 1241 191 C 1208 154 1168 120 1120 88 C 1072 56 1017 30 955 9 C 893 -12 826 -23 752 -23 C 674 -23 603 -13 539 7 C 475 27 417 54 366 90 C 315 125 271 167 233 215 C 195 263 164 316 140 373 C 115 429 96 489 84 551 C 72 613 66 677 66 741 C 66 826 75 905 93 977 C 111 1049 137 1113 169 1171 C 201 1228 238 1278 282 1322 C 325 1365 371 1401 421 1430 C 470 1459 521 1481 575 1496 C 628 1510 681 1518 733 1518 C 765 1518 795 1516 825 1512 C 854 1508 883 1503 912 1495 C 940 1487 969 1477 997 1465 C 1025 1453 1055 1438 1087 1421 C 1097 1415 1106 1411 1114 1407 C 1122 1403 1129 1401 1137 1401 C 1143 1401 1148 1402 1153 1405 C 1157 1408 1163 1413 1169 1419 C 1174 1424 1178 1429 1181 1433 C 1184 1437 1188 1440 1192 1440 L 1235 1440 L 1235 1077 L 1176 1077 C 1167 1077 1160 1078 1154 1082 C 1148 1086 1144 1093 1141 1104 C 1127 1150 1108 1194 1085 1235 C 1061 1275 1033 1311 1001 1341 C 969 1371 932 1394 892 1412 C 851 1429 806 1438 758 1438 C 723 1438 687 1432 650 1421 C 612 1410 576 1393 540 1370 C 504 1346 470 1316 438 1280 C 406 1244 377 1200 353 1149 C 329 1098 309 1039 295 973 C 281 907 274 832 274 750 C 274 638 286 539 312 455 C 337 370 372 299 416 242 C 460 185 511 142 570 113 C 629 84 692 70 760 70 C 830 70 894 81 950 103 C 1006 125 1054 151 1095 181 C 1136 211 1170 241 1196 272 C 1222 303 1241 328 1253 346 L 1315 293 Z" unicode="C" />
<glyph horiz-adv-x="1473" d="M 1407 748 C 1407 636 1387 534 1349 442 C 1310 350 1255 271 1185 205 C 1115 139 1030 89 931 53 C 831 17 721 0 600 0 L 70 0 L 70 45 C 70 50 71 54 73 56 C 75 58 78 61 83 63 C 87 65 94 67 102 69 C 110 71 121 75 133 80 C 147 85 159 89 168 93 C 177 96 184 100 188 104 C 192 108 195 113 197 119 C 198 125 199 133 199 145 L 199 1352 C 199 1360 198 1367 196 1373 C 194 1379 191 1384 187 1389 C 182 1394 175 1399 167 1403 C 158 1407 147 1411 133 1415 C 120 1419 110 1422 102 1425 C 94 1427 87 1430 83 1432 C 79 1434 76 1436 74 1439 C 72 1441 72 1445 72 1450 L 72 1495 L 557 1495 C 692 1495 812 1477 918 1441 C 1023 1405 1112 1354 1185 1288 C 1257 1222 1312 1144 1350 1052 C 1388 960 1407 859 1407 748 Z M 1198 748 C 1198 861 1183 959 1153 1043 C 1123 1127 1079 1196 1022 1251 C 965 1306 895 1347 812 1374 C 729 1401 635 1415 530 1415 L 385 1415 L 385 80 L 563 80 C 663 80 753 92 832 118 C 910 144 977 184 1031 238 C 1085 292 1127 361 1155 445 C 1183 529 1198 630 1198 748 Z" unicode="D" />
<glyph horiz-adv-x="1233" d="M 1188 0 L 70 0 L 70 45 C 70 50 71 54 73 56 C 75 58 78 61 83 63 C 87 65 94 67 102 69 C 110 71 121 75 133 80 C 147 85 159 89 168 93 C 177 96 184 100 188 104 C 192 108 195 113 197 119 C 198 125 199 133 199 145 L 199 1352 C 199 1360 198 1367 196 1373 C 194 1379 191 1384 187 1389 C 182 1394 175 1399 167 1403 C 158 1407 147 1411 133 1415 C 120 1419 110 1422 102 1425 C 94 1427 87 1430 83 1432 C 79 1434 76 1436 74 1439 C 72 1441 72 1445 72 1450 L 72 1495 L 893 1495 C 907 1495 924 1495 943 1497 C 961 1498 980 1500 999 1502 C 1017 1504 1035 1506 1051 1508 C 1067 1510 1080 1511 1090 1513 L 1090 1227 L 1044 1227 C 1028 1227 1016 1229 1008 1235 C 1000 1241 995 1249 991 1260 C 979 1291 968 1317 959 1337 C 950 1357 939 1372 926 1384 C 912 1395 895 1403 875 1407 C 854 1411 826 1413 791 1413 L 385 1413 L 385 809 L 633 809 C 653 809 669 811 681 816 C 693 820 702 827 710 836 C 718 844 724 855 730 867 C 735 879 741 893 748 909 C 753 920 759 930 766 938 C 773 946 785 950 803 950 L 842 950 L 842 592 L 797 592 C 783 592 772 596 764 604 C 755 612 748 622 743 635 C 735 652 728 666 722 678 C 716 690 709 699 701 706 C 693 713 685 718 675 721 C 665 723 652 725 637 725 L 385 725 L 385 82 L 893 82 C 922 82 947 86 967 94 C 987 102 1004 114 1019 130 C 1034 146 1048 167 1060 192 C 1072 216 1084 245 1098 279 C 1100 283 1101 288 1103 293 C 1105 297 1107 302 1109 306 C 1111 310 1115 313 1119 315 C 1123 317 1129 319 1137 319 L 1188 319 L 1188 0 Z" unicode="E" />
<glyph horiz-adv-x="1174" d="M 1149 1221 L 1102 1221 C 1092 1221 1085 1221 1080 1223 C 1074 1224 1070 1226 1067 1229 C 1064 1232 1062 1235 1061 1239 C 1059 1243 1058 1247 1057 1253 C 1049 1283 1040 1308 1032 1328 C 1024 1348 1012 1365 998 1377 C 984 1389 965 1398 942 1404 C 919 1410 890 1413 854 1413 L 385 1413 L 385 803 L 688 803 C 706 803 721 804 733 808 C 745 811 754 817 762 825 C 770 833 776 843 782 856 C 788 868 795 884 803 903 C 808 916 814 926 821 933 C 828 940 839 944 854 944 L 891 944 L 891 586 L 842 586 C 827 586 816 590 810 599 C 804 608 799 618 795 629 C 787 647 780 661 774 673 C 768 685 761 694 753 701 C 745 707 737 712 727 715 C 717 717 706 719 692 719 L 385 719 L 385 150 C 385 136 386 126 388 119 C 390 112 394 106 400 102 C 405 98 412 94 421 91 C 430 88 441 84 455 80 C 466 76 475 72 482 70 C 489 67 495 65 499 63 C 503 61 505 58 507 56 C 509 53 510 49 510 45 L 510 0 L 72 0 L 72 45 C 72 50 72 54 74 56 C 76 58 79 61 84 63 C 88 65 95 67 103 69 C 111 71 121 75 133 80 C 147 85 159 89 168 93 C 177 96 184 100 188 104 C 192 108 195 113 197 119 C 198 125 199 133 199 145 L 199 1352 C 199 1360 198 1367 196 1373 C 194 1379 191 1384 187 1389 C 182 1394 175 1399 167 1403 C 158 1407 147 1411 133 1415 C 120 1419 110 1422 102 1425 C 94 1427 87 1430 83 1432 C 79 1434 76 1436 74 1439 C 72 1441 72 1445 72 1450 L 72 1495 L 958 1495 C 998 1495 1035 1497 1069 1502 C 1103 1507 1129 1511 1149 1513 L 1149 1221 Z" unicode="F" />
<glyph horiz-adv-x="1479" d="M 1452 113 C 1413 99 1369 85 1321 69 C 1272 53 1220 39 1166 25 C 1111 11 1055 0 998 -9 C 940 -18 884 -23 829 -23 C 741 -23 661 -13 589 7 C 517 27 452 54 396 90 C 340 125 291 167 249 215 C 207 263 173 316 146 373 C 119 429 99 489 86 551 C 72 613 66 677 66 741 C 66 824 75 901 94 972 C 112 1043 138 1107 171 1165 C 204 1223 243 1274 288 1318 C 332 1362 380 1398 432 1428 C 484 1458 538 1480 595 1495 C 651 1510 708 1518 764 1518 C 824 1518 883 1510 940 1496 C 997 1482 1056 1457 1118 1423 C 1129 1415 1139 1410 1147 1407 C 1155 1404 1163 1403 1171 1403 C 1177 1403 1183 1404 1188 1407 C 1192 1409 1196 1413 1200 1417 C 1204 1422 1207 1427 1211 1432 C 1214 1437 1218 1440 1223 1440 L 1268 1440 L 1268 1077 L 1210 1077 C 1202 1077 1194 1078 1188 1081 C 1182 1083 1177 1091 1174 1104 C 1160 1149 1142 1192 1118 1233 C 1094 1273 1065 1309 1032 1339 C 998 1369 960 1393 918 1411 C 875 1429 828 1438 778 1438 C 717 1438 657 1424 597 1398 C 537 1372 483 1331 435 1275 C 387 1219 348 1148 318 1061 C 288 974 274 870 274 748 C 274 640 288 544 316 458 C 344 372 384 298 434 238 C 484 178 544 131 613 99 C 681 67 756 51 838 51 C 899 51 950 56 991 66 C 1032 76 1065 89 1090 106 C 1115 123 1133 143 1143 166 C 1153 189 1159 214 1159 240 L 1159 485 C 1159 495 1158 504 1158 512 C 1157 520 1155 527 1152 533 C 1148 539 1143 544 1136 549 C 1128 554 1118 559 1104 565 C 1084 572 1069 578 1059 583 C 1049 587 1044 594 1044 602 L 1044 645 L 1356 645 C 1354 634 1353 622 1351 609 C 1349 596 1347 583 1345 570 C 1343 557 1342 545 1341 533 C 1339 521 1339 510 1339 500 L 1339 233 C 1339 225 1339 219 1340 213 C 1341 207 1343 201 1347 197 C 1351 192 1356 188 1364 185 C 1371 181 1381 178 1395 176 C 1409 173 1419 171 1427 170 C 1435 168 1440 167 1444 165 C 1448 163 1450 160 1451 158 C 1451 155 1452 151 1452 147 L 1452 113 Z" unicode="G" />
<glyph horiz-adv-x="1575" d="M 1501 0 L 1063 0 L 1063 45 C 1063 50 1063 54 1065 56 C 1067 58 1070 61 1075 63 C 1079 65 1086 67 1094 69 C 1102 71 1112 75 1124 80 C 1138 85 1150 89 1159 93 C 1168 96 1175 100 1179 104 C 1183 108 1186 113 1188 119 C 1189 125 1190 133 1190 145 L 1190 725 L 385 725 L 385 150 C 385 136 386 126 388 119 C 390 112 394 106 400 102 C 405 98 412 94 421 91 C 430 88 441 84 455 80 C 466 76 475 72 482 70 C 489 67 495 65 499 63 C 503 61 505 58 507 56 C 509 53 510 49 510 45 L 510 0 L 72 0 L 72 45 C 72 50 72 54 74 56 C 76 58 79 61 84 63 C 88 65 95 67 103 69 C 111 71 121 75 133 80 C 147 85 159 89 168 93 C 177 96 184 100 188 104 C 192 108 195 113 197 119 C 198 125 199 133 199 145 L 199 1352 C 199 1360 198 1367 196 1373 C 194 1379 191 1384 187 1389 C 182 1394 175 1399 167 1403 C 158 1407 147 1411 133 1415 C 120 1419 110 1422 102 1425 C 94 1427 87 1430 83 1432 C 79 1434 76 1436 74 1439 C 72 1441 72 1445 72 1450 L 72 1495 L 510 1495 L 510 1450 C 510 1445 509 1441 507 1439 C 505 1436 503 1433 499 1431 C 495 1429 489 1426 482 1424 C 475 1422 466 1419 455 1415 C 440 1410 428 1406 419 1404 C 410 1401 403 1398 398 1394 C 393 1390 390 1384 388 1378 C 386 1372 385 1363 385 1352 L 385 815 L 1190 815 L 1190 1352 C 1190 1360 1189 1368 1188 1374 C 1186 1380 1183 1385 1179 1390 C 1174 1394 1167 1399 1159 1403 C 1150 1407 1138 1411 1124 1415 C 1111 1419 1101 1422 1093 1425 C 1085 1427 1078 1430 1074 1432 C 1070 1434 1067 1436 1065 1439 C 1063 1441 1063 1445 1063 1450 L 1063 1495 L 1501 1495 L 1501 1450 C 1501 1445 1500 1441 1498 1439 C 1496 1436 1494 1433 1490 1431 C 1486 1429 1480 1426 1473 1424 C 1466 1422 1457 1419 1446 1415 C 1432 1410 1420 1406 1411 1404 C 1401 1401 1394 1398 1389 1394 C 1384 1390 1381 1384 1379 1378 C 1377 1372 1376 1363 1376 1352 L 1376 150 C 1376 138 1377 128 1379 121 C 1381 114 1385 108 1391 104 C 1396 99 1403 95 1412 92 C 1421 88 1432 84 1446 80 C 1457 76 1466 72 1473 70 C 1480 67 1486 65 1490 63 C 1494 61 1496 58 1498 56 C 1500 53 1501 49 1501 45 L 1501 0 Z" unicode="H" />
<glyph horiz-adv-x="604" d="M 520 0 L 82 0 L 82 45 C 82 50 82 54 84 56 C 86 58 89 61 94 63 C 98 65 105 67 113 69 C 121 71 131 75 143 80 C 157 85 169 89 178 93 C 187 96 194 100 198 104 C 202 108 205 113 207 119 C 208 125 209 133 209 145 L 209 1352 C 209 1360 208 1367 207 1373 C 205 1379 202 1384 198 1389 C 193 1394 186 1399 178 1403 C 169 1407 157 1411 143 1415 C 130 1419 120 1422 112 1425 C 104 1427 97 1430 93 1432 C 89 1434 86 1436 84 1439 C 82 1441 82 1445 82 1450 L 82 1495 L 520 1495 L 520 1450 C 520 1445 519 1441 517 1439 C 515 1436 513 1433 509 1431 C 505 1429 499 1426 492 1424 C 485 1422 476 1419 465 1415 C 451 1410 439 1406 430 1404 C 420 1401 413 1398 408 1394 C 403 1390 400 1384 398 1378 C 396 1372 395 1363 395 1352 L 395 150 C 395 136 396 126 398 119 C 400 112 404 106 410 102 C 415 98 422 94 431 91 C 440 88 451 84 465 80 C 476 76 485 72 492 70 C 499 67 505 65 509 63 C 513 61 515 58 517 56 C 519 53 520 49 520 45 L 520 0 Z" unicode="I" />
<glyph horiz-adv-x="936" d="M 883 1450 C 883 1445 882 1441 880 1439 C 878 1436 876 1433 872 1431 C 868 1429 862 1426 855 1424 C 847 1422 838 1419 827 1415 C 813 1410 801 1406 792 1404 C 783 1401 776 1398 771 1394 C 766 1390 763 1384 761 1378 C 759 1372 758 1363 758 1352 L 758 408 C 758 347 748 290 730 238 C 711 186 683 140 647 102 C 611 63 566 32 513 10 C 459 -11 398 -23 330 -23 C 282 -23 239 -17 199 -5 C 159 7 125 23 97 43 C 68 63 46 87 30 113 C 14 139 6 167 6 195 C 6 213 9 230 15 246 C 21 262 29 277 39 289 C 49 301 62 311 77 319 C 92 326 109 330 127 330 C 159 330 184 321 203 303 C 221 285 231 262 231 236 C 231 210 226 189 217 171 C 208 153 192 138 170 125 C 172 114 179 104 190 94 C 200 84 213 75 229 67 C 244 59 261 52 279 48 C 297 43 314 41 332 41 C 361 41 390 45 419 55 C 447 65 473 81 495 103 C 517 125 536 153 550 189 C 564 224 571 267 571 319 L 571 1352 C 571 1368 566 1380 558 1389 C 549 1398 530 1407 502 1415 C 489 1419 478 1422 470 1425 C 462 1427 455 1430 451 1432 C 446 1434 443 1436 441 1439 C 439 1441 438 1445 438 1450 L 438 1495 L 883 1495 L 883 1450 Z" unicode="J" />
<glyph horiz-adv-x="1356" d="M 1413 0 L 930 0 L 930 43 C 930 50 935 56 946 61 C 957 65 971 70 989 76 C 991 76 995 77 999 79 C 1003 80 1007 81 1011 83 C 1015 85 1018 87 1021 89 C 1024 91 1026 93 1026 96 C 1026 104 1021 115 1011 128 C 1001 141 991 153 981 164 L 385 786 L 385 150 C 385 136 386 126 388 119 C 390 112 394 106 400 102 C 405 98 412 94 421 91 C 430 88 441 84 455 80 C 466 76 475 72 482 70 C 489 67 495 65 499 63 C 503 61 505 58 507 56 C 509 53 510 49 510 45 L 510 0 L 72 0 L 72 45 C 72 50 72 54 74 56 C 76 58 79 61 84 63 C 88 65 95 67 103 69 C 111 71 121 75 133 80 C 147 85 159 89 168 93 C 177 96 184 100 188 104 C 192 108 195 113 197 119 C 198 125 199 133 199 145 L 199 1352 C 199 1360 198 1367 196 1373 C 194 1379 191 1384 187 1389 C 182 1394 175 1399 167 1403 C 158 1407 147 1411 133 1415 C 120 1419 110 1422 102 1425 C 94 1427 87 1430 83 1432 C 79 1434 76 1436 74 1439 C 72 1441 72 1445 72 1450 L 72 1495 L 510 1495 L 510 1450 C 510 1445 509 1441 507 1439 C 505 1436 503 1433 499 1431 C 495 1429 489 1426 482 1424 C 475 1422 466 1419 455 1415 C 440 1410 428 1406 419 1404 C 410 1401 403 1398 398 1394 C 393 1390 390 1384 388 1378 C 386 1372 385 1363 385 1352 L 385 799 L 924 1307 C 930 1312 936 1318 942 1325 C 948 1331 953 1338 958 1344 C 963 1350 967 1356 970 1361 C 973 1366 975 1370 975 1374 C 975 1383 969 1390 959 1395 C 949 1399 935 1405 918 1411 C 902 1416 890 1420 882 1424 C 874 1428 867 1432 863 1436 C 859 1440 856 1444 855 1450 C 854 1455 854 1462 854 1470 L 854 1495 L 1307 1495 L 1307 1452 C 1307 1446 1306 1442 1305 1439 C 1303 1435 1300 1432 1295 1430 C 1289 1427 1282 1424 1272 1421 C 1262 1418 1248 1414 1231 1409 C 1210 1403 1192 1396 1178 1390 C 1163 1383 1150 1376 1138 1368 C 1126 1360 1114 1351 1103 1341 C 1091 1331 1079 1321 1065 1309 L 561 852 L 1219 162 C 1229 151 1238 141 1248 133 C 1257 125 1267 117 1277 111 C 1287 104 1297 98 1309 93 C 1321 87 1334 82 1350 78 C 1362 74 1372 70 1380 68 C 1388 66 1395 64 1400 62 C 1404 60 1408 58 1410 56 C 1412 54 1413 51 1413 47 L 1413 0 Z" unicode="K" />
<glyph horiz-adv-x="1190" d="M 1178 0 L 70 0 L 70 45 C 70 50 70 54 72 56 C 74 58 77 61 82 63 C 86 65 93 67 101 69 C 109 71 119 75 131 80 C 145 85 157 89 166 93 C 175 96 182 100 187 104 C 191 108 194 113 196 119 C 198 125 199 133 199 145 L 199 1352 C 199 1360 198 1367 196 1373 C 194 1379 191 1384 187 1389 C 182 1394 175 1399 167 1403 C 158 1407 147 1411 133 1415 C 120 1419 110 1422 102 1425 C 94 1427 87 1430 83 1432 C 79 1434 76 1436 74 1439 C 72 1441 72 1445 72 1450 L 72 1495 L 510 1495 L 510 1450 C 510 1445 509 1441 507 1439 C 505 1436 503 1433 499 1431 C 495 1429 489 1426 482 1424 C 475 1422 466 1419 455 1415 C 440 1410 428 1406 419 1404 C 410 1401 403 1398 398 1394 C 393 1390 390 1384 388 1378 C 386 1372 385 1363 385 1352 L 385 82 L 885 82 C 915 82 939 86 959 94 C 979 102 996 115 1010 132 C 1024 148 1037 169 1049 195 C 1061 220 1073 250 1087 285 C 1093 301 1099 311 1104 317 C 1108 323 1116 326 1128 326 L 1178 326 L 1178 0 Z" unicode="L" />
<glyph horiz-adv-x="1833" d="M 1759 0 L 1323 0 L 1323 45 C 1323 50 1323 54 1325 56 C 1327 58 1330 61 1335 63 C 1339 65 1346 67 1354 69 C 1362 71 1372 75 1384 80 C 1398 85 1410 89 1419 93 C 1428 96 1435 100 1439 104 C 1443 108 1446 113 1448 119 C 1449 125 1450 133 1450 145 L 1450 1366 L 936 25 C 934 18 929 12 922 6 C 914 0 902 -2 885 -2 C 867 -2 854 0 845 5 C 836 9 830 16 827 25 L 309 1411 L 309 219 C 309 196 314 174 325 152 C 335 130 351 110 373 92 C 379 86 386 81 394 77 C 402 73 409 69 416 66 C 422 62 428 59 432 56 C 436 53 438 50 438 47 L 438 0 L 70 0 L 70 47 C 70 51 71 55 73 57 C 75 59 78 62 83 65 C 87 67 93 71 101 76 C 109 80 119 88 131 98 C 152 115 169 134 181 154 C 193 174 199 194 199 215 L 199 1352 C 199 1360 198 1367 196 1373 C 194 1379 191 1384 187 1389 C 182 1394 175 1399 167 1403 C 158 1407 147 1411 133 1415 C 120 1419 110 1422 102 1425 C 94 1427 87 1430 83 1432 C 79 1434 76 1436 74 1439 C 72 1441 72 1445 72 1450 L 72 1495 L 465 1495 L 928 264 L 1391 1495 L 1759 1495 L 1759 1450 C 1759 1445 1758 1441 1756 1439 C 1754 1436 1752 1433 1748 1431 C 1744 1429 1738 1426 1731 1424 C 1724 1422 1715 1419 1704 1415 C 1690 1410 1678 1406 1669 1404 C 1659 1401 1652 1398 1647 1394 C 1642 1390 1639 1384 1637 1378 C 1635 1372 1634 1363 1634 1352 L 1634 150 C 1634 136 1635 126 1637 119 C 1639 112 1643 106 1649 102 C 1654 98 1661 94 1670 91 C 1679 88 1690 84 1704 80 C 1715 76 1724 72 1731 70 C 1738 67 1744 65 1748 63 C 1752 61 1754 58 1756 56 C 1758 53 1759 49 1759 45 L 1759 0 Z" unicode="M" />
<glyph horiz-adv-x="1511" d="M 1452 1444 C 1452 1440 1450 1438 1448 1436 C 1446 1434 1442 1431 1437 1428 C 1432 1425 1426 1421 1418 1416 C 1410 1411 1401 1405 1391 1397 C 1365 1378 1347 1359 1337 1340 C 1326 1320 1321 1300 1321 1280 L 1321 -8 L 1249 -8 L 309 1333 L 309 219 C 309 200 313 179 322 156 C 330 133 345 112 367 94 C 375 86 383 81 391 77 C 399 73 406 70 412 67 C 418 64 422 61 426 59 C 430 56 432 53 432 49 L 432 0 L 70 0 L 70 49 C 70 53 71 56 73 58 C 75 60 78 63 83 66 C 87 69 93 73 101 78 C 109 82 119 90 131 100 C 152 117 169 135 181 155 C 193 175 199 195 199 217 L 199 1352 C 199 1360 198 1367 196 1373 C 194 1379 191 1384 187 1389 C 182 1394 175 1399 167 1403 C 158 1407 147 1411 133 1415 C 120 1419 110 1422 102 1425 C 94 1427 87 1430 83 1432 C 79 1434 76 1436 74 1439 C 72 1441 72 1445 72 1450 L 72 1495 L 412 1495 L 1210 352 L 1210 1278 C 1210 1300 1205 1322 1195 1342 C 1185 1362 1169 1380 1147 1397 C 1135 1405 1125 1411 1117 1416 C 1109 1421 1102 1425 1097 1428 C 1091 1431 1087 1433 1085 1435 C 1082 1437 1081 1439 1081 1442 L 1081 1495 L 1452 1495 L 1452 1444 Z" unicode="N" />
<glyph horiz-adv-x="1532" d="M 1466 748 C 1466 636 1449 532 1415 438 C 1381 344 1334 262 1273 194 C 1211 126 1138 72 1052 34 C 966 -3 872 -23 768 -23 C 664 -23 569 -4 483 33 C 397 70 323 123 261 191 C 199 259 151 340 117 435 C 83 529 66 634 66 748 C 66 859 83 962 117 1056 C 151 1150 199 1232 261 1300 C 323 1368 397 1422 483 1460 C 569 1498 664 1518 768 1518 C 872 1518 966 1498 1052 1460 C 1138 1422 1211 1368 1273 1300 C 1334 1232 1381 1150 1415 1056 C 1449 962 1466 859 1466 748 Z M 1257 748 C 1257 859 1245 958 1221 1044 C 1197 1130 1164 1202 1121 1260 C 1078 1318 1027 1363 967 1393 C 907 1423 840 1438 768 1438 C 694 1438 627 1423 567 1393 C 506 1363 454 1318 411 1260 C 367 1202 334 1130 310 1044 C 286 958 274 859 274 748 C 274 636 286 537 310 451 C 334 365 367 293 411 235 C 454 176 506 132 567 102 C 627 72 694 57 768 57 C 840 57 907 71 967 100 C 1027 129 1078 173 1121 231 C 1164 289 1197 361 1221 447 C 1245 533 1257 634 1257 748 Z" unicode="O" />
<glyph horiz-adv-x="1194" d="M 1171 1110 C 1171 1055 1160 1001 1138 949 C 1116 897 1080 850 1031 810 C 981 769 917 736 837 711 C 757 686 660 674 545 674 L 385 674 L 385 150 C 385 136 386 126 388 119 C 390 112 394 106 400 102 C 405 98 412 94 421 91 C 430 88 441 84 455 80 C 466 76 475 72 482 70 C 489 67 495 65 499 63 C 503 61 505 58 507 56 C 509 53 510 49 510 45 L 510 0 L 72 0 L 72 45 C 72 50 72 54 74 56 C 76 58 79 61 84 63 C 88 65 95 67 103 69 C 111 71 121 75 133 80 C 147 85 159 89 168 93 C 177 96 184 100 188 104 C 192 108 195 113 197 119 C 198 125 199 133 199 145 L 199 1352 C 199 1360 198 1367 196 1373 C 194 1379 191 1384 187 1389 C 182 1394 175 1399 167 1403 C 158 1407 147 1411 133 1415 C 120 1419 110 1422 102 1425 C 94 1427 87 1430 83 1432 C 79 1434 76 1436 74 1439 C 72 1441 72 1445 72 1450 L 72 1495 L 600 1495 C 701 1495 788 1484 860 1464 C 932 1444 992 1416 1038 1381 C 1084 1346 1117 1305 1139 1259 C 1160 1212 1171 1162 1171 1110 Z M 963 1110 C 963 1154 954 1195 938 1233 C 921 1270 896 1302 863 1329 C 830 1355 788 1376 738 1391 C 688 1405 629 1413 563 1413 L 385 1413 L 385 764 L 571 764 C 639 764 697 772 747 788 C 796 804 837 826 869 856 C 901 886 924 922 940 965 C 955 1007 963 1056 963 1110 Z" unicode="P" />
<glyph horiz-adv-x="1536" d="M 1593 -231 C 1581 -242 1565 -255 1547 -270 C 1529 -284 1507 -298 1481 -311 C 1455 -324 1426 -335 1394 -344 C 1361 -353 1324 -358 1284 -358 C 1242 -358 1204 -353 1170 -343 C 1135 -333 1102 -319 1071 -303 C 1039 -286 1009 -267 980 -246 C 950 -225 921 -204 891 -182 C 856 -156 826 -134 802 -116 C 777 -98 755 -82 736 -69 C 716 -56 698 -45 681 -35 C 664 -25 646 -16 627 -6 C 541 9 464 38 395 81 C 326 124 267 178 219 244 C 170 309 132 384 106 470 C 79 555 66 648 66 748 C 66 859 83 962 117 1056 C 151 1150 198 1232 260 1300 C 322 1368 396 1422 482 1460 C 568 1498 662 1518 766 1518 C 870 1518 965 1498 1051 1460 C 1137 1422 1210 1368 1272 1300 C 1333 1232 1381 1150 1415 1056 C 1449 962 1466 859 1466 748 C 1466 642 1450 545 1420 456 C 1390 367 1347 289 1292 223 C 1237 156 1171 102 1094 61 C 1017 20 932 -4 838 -14 C 872 -24 916 -40 970 -60 C 1024 -80 1085 -107 1151 -139 C 1177 -151 1202 -162 1225 -171 C 1247 -179 1270 -186 1293 -191 C 1316 -196 1340 -200 1364 -202 C 1388 -204 1416 -205 1446 -205 C 1462 -205 1476 -203 1490 -200 C 1503 -197 1516 -193 1528 -189 C 1540 -184 1551 -179 1562 -175 C 1572 -171 1583 -167 1593 -164 L 1593 -231 Z M 1257 748 C 1257 859 1245 958 1221 1044 C 1197 1130 1164 1202 1121 1260 C 1078 1318 1026 1363 966 1393 C 906 1423 839 1438 766 1438 C 693 1438 626 1423 566 1393 C 506 1363 454 1318 411 1260 C 367 1202 334 1130 310 1044 C 286 958 274 859 274 748 C 274 636 286 537 310 451 C 334 365 367 294 411 236 C 454 178 506 134 566 104 C 626 74 693 59 766 59 C 839 59 906 73 966 102 C 1026 131 1078 174 1121 232 C 1164 289 1197 361 1221 447 C 1245 533 1257 634 1257 748 Z" unicode="Q" />
<glyph horiz-adv-x="1360" d="M 1415 0 L 1116 0 C 1096 30 1076 58 1058 86 C 1040 114 1021 142 1002 171 C 983 199 963 229 942 261 C 921 293 898 327 874 365 C 846 407 818 448 791 488 C 763 527 734 562 702 592 C 670 622 634 645 595 663 C 556 681 511 690 461 690 L 385 690 L 385 150 C 385 136 386 126 388 119 C 390 112 394 106 400 102 C 405 98 412 94 421 91 C 430 88 441 84 455 80 C 466 76 475 72 482 70 C 489 67 495 65 499 63 C 503 61 505 58 507 56 C 509 53 510 49 510 45 L 510 0 L 72 0 L 72 45 C 72 50 72 54 74 56 C 76 58 79 61 84 63 C 88 65 95 67 103 69 C 111 71 121 75 133 80 C 147 85 159 89 168 93 C 177 96 184 100 188 104 C 192 108 195 113 197 119 C 198 125 199 133 199 145 L 199 1352 C 199 1360 198 1367 196 1373 C 194 1379 191 1384 187 1389 C 182 1394 175 1399 167 1403 C 158 1407 147 1411 133 1415 C 120 1419 110 1422 102 1425 C 94 1427 87 1430 83 1432 C 79 1434 76 1436 74 1439 C 72 1441 72 1445 72 1450 L 72 1495 L 625 1495 C 721 1495 804 1485 876 1466 C 947 1446 1006 1420 1053 1386 C 1099 1352 1134 1311 1157 1265 C 1180 1218 1192 1168 1192 1114 C 1192 1070 1182 1028 1163 987 C 1144 945 1116 907 1080 873 C 1043 838 998 808 944 782 C 890 756 828 737 758 725 C 774 718 790 710 806 701 C 822 691 838 679 855 664 C 872 649 890 631 910 609 C 929 587 951 560 975 528 C 999 496 1025 459 1054 417 C 1083 375 1116 326 1153 270 C 1167 248 1181 226 1197 205 C 1212 183 1227 164 1243 146 C 1259 128 1274 114 1290 102 C 1306 90 1321 82 1337 80 C 1353 76 1367 73 1377 71 C 1387 68 1395 65 1401 63 C 1407 60 1410 57 1412 54 C 1414 51 1415 47 1415 43 L 1415 0 Z M 983 1114 C 983 1165 973 1209 953 1247 C 933 1285 906 1316 872 1340 C 838 1364 797 1383 751 1395 C 704 1407 654 1413 600 1413 L 385 1413 L 385 782 L 582 782 C 716 782 817 810 883 866 C 949 922 983 1004 983 1114 Z" unicode="R" />
<glyph horiz-adv-x="1169" d="M 1110 436 C 1110 401 1105 365 1096 329 C 1086 293 1072 258 1053 224 C 1034 190 1010 158 982 128 C 954 98 920 71 882 49 C 843 27 799 9 750 -3 C 701 -16 647 -23 588 -23 C 553 -23 519 -21 485 -17 C 451 -13 419 -7 389 -1 C 358 5 329 13 302 21 C 275 29 251 38 231 47 C 225 49 219 51 213 54 C 207 57 201 59 195 59 C 186 59 179 57 174 54 C 168 50 161 43 152 31 C 144 22 138 14 132 8 C 126 1 117 -2 106 -2 L 66 -2 L 66 399 L 121 399 C 129 399 136 397 142 394 C 148 391 154 381 162 365 C 184 308 210 260 242 221 C 273 182 307 151 345 127 C 382 103 421 85 463 75 C 504 64 546 59 588 59 C 634 59 679 65 721 77 C 763 89 800 107 832 133 C 864 158 889 190 908 229 C 926 267 936 313 936 367 C 936 411 928 449 913 481 C 898 512 878 539 854 561 C 829 583 801 602 769 618 C 737 634 704 648 670 662 C 646 670 624 678 604 686 C 584 693 565 700 547 707 C 529 714 510 721 492 729 C 473 736 452 744 430 754 C 325 796 247 848 196 912 C 144 975 119 1044 119 1120 C 119 1170 128 1219 148 1267 C 167 1315 195 1357 233 1394 C 271 1431 317 1461 373 1484 C 429 1506 493 1518 567 1518 C 583 1518 602 1516 624 1514 C 645 1512 668 1508 692 1502 C 716 1496 741 1487 767 1477 C 793 1467 820 1454 846 1438 C 853 1434 861 1429 870 1423 C 879 1417 887 1415 895 1415 C 901 1416 906 1418 910 1421 C 914 1423 921 1429 930 1438 C 934 1442 937 1445 940 1449 C 942 1452 946 1454 950 1454 L 991 1454 L 991 1106 L 928 1106 C 918 1106 912 1108 908 1114 C 904 1119 901 1125 899 1133 C 883 1183 864 1227 840 1265 C 816 1303 788 1334 758 1360 C 728 1385 695 1404 660 1417 C 625 1429 589 1436 551 1436 C 519 1436 487 1430 455 1419 C 423 1408 394 1393 368 1373 C 342 1353 321 1329 305 1301 C 289 1273 281 1242 281 1208 C 281 1173 285 1142 294 1116 C 303 1089 316 1065 333 1045 C 350 1025 371 1007 397 991 C 422 975 451 960 483 946 C 502 938 522 929 544 921 C 565 913 586 905 607 897 C 628 889 648 882 667 875 C 686 868 703 862 719 856 C 790 828 850 799 900 769 C 950 739 990 706 1021 672 C 1052 637 1075 600 1089 561 C 1103 522 1110 480 1110 436 Z" unicode="S" />
<glyph horiz-adv-x="1280" d="M 1272 1214 L 1239 1214 C 1220 1214 1206 1218 1196 1226 C 1186 1234 1179 1245 1174 1260 C 1156 1314 1136 1353 1112 1378 C 1088 1402 1058 1415 1020 1415 L 733 1415 L 733 150 C 733 136 734 126 737 119 C 739 112 743 106 749 102 C 755 98 762 94 771 91 C 780 88 791 84 805 80 C 816 76 825 72 832 70 C 839 67 845 65 849 63 C 853 61 855 58 857 56 C 859 53 860 49 860 45 L 860 0 L 418 0 L 418 45 C 418 50 418 54 420 56 C 422 58 425 61 430 63 C 434 65 441 67 449 69 C 457 71 467 75 479 80 C 493 85 505 89 514 93 C 523 96 530 100 535 104 C 540 108 543 113 545 119 C 546 125 547 133 547 145 L 547 1415 L 264 1415 C 222 1415 190 1401 168 1375 C 146 1348 127 1310 113 1260 C 108 1245 100 1234 88 1226 C 76 1218 62 1214 47 1214 L 8 1214 L 8 1513 C 16 1511 30 1510 48 1508 C 66 1506 85 1504 107 1502 C 129 1500 151 1498 173 1497 C 195 1495 214 1495 231 1495 L 1051 1495 C 1065 1495 1082 1495 1103 1497 C 1124 1498 1145 1500 1167 1502 C 1189 1504 1209 1506 1228 1508 C 1247 1510 1262 1511 1272 1513 L 1272 1214 Z" unicode="T" />
<glyph horiz-adv-x="1493" d="M 1448 1444 C 1448 1438 1442 1432 1430 1426 C 1418 1420 1403 1410 1384 1397 C 1360 1380 1343 1363 1333 1346 C 1322 1329 1317 1310 1317 1290 L 1317 530 C 1317 460 1306 393 1284 327 C 1262 261 1228 202 1184 150 C 1139 98 1082 56 1014 24 C 946 -7 866 -23 774 -23 C 673 -23 586 -9 512 17 C 438 43 376 80 328 127 C 279 173 243 229 219 293 C 195 357 184 426 184 500 L 184 1352 C 184 1360 183 1367 182 1373 C 180 1379 177 1384 173 1389 C 168 1394 161 1399 153 1403 C 144 1407 133 1411 119 1415 C 106 1419 96 1422 88 1425 C 80 1427 73 1430 69 1432 C 64 1434 61 1436 59 1439 C 57 1441 57 1445 57 1450 L 57 1495 L 496 1495 L 496 1450 C 496 1445 495 1441 493 1439 C 491 1436 489 1433 485 1431 C 481 1429 475 1426 468 1424 C 460 1422 451 1419 440 1415 C 426 1410 414 1406 405 1404 C 396 1401 389 1398 384 1394 C 379 1390 376 1384 374 1378 C 372 1372 371 1363 371 1352 L 371 518 C 371 452 380 394 398 342 C 416 290 442 246 477 210 C 511 174 554 146 605 127 C 656 107 714 98 780 98 C 854 98 917 108 971 128 C 1024 148 1068 177 1103 215 C 1138 253 1164 300 1181 356 C 1197 411 1206 474 1206 545 L 1206 1288 C 1206 1309 1201 1329 1191 1347 C 1181 1365 1163 1382 1139 1399 C 1118 1412 1102 1421 1091 1427 C 1080 1433 1075 1438 1075 1444 L 1075 1495 L 1448 1495 L 1448 1444 Z" unicode="U" />
<glyph horiz-adv-x="1452" d="M 1466 1460 C 1466 1454 1465 1450 1464 1447 C 1462 1443 1460 1440 1457 1437 C 1453 1434 1449 1431 1443 1428 C 1437 1425 1431 1421 1423 1417 C 1407 1408 1393 1401 1382 1395 C 1371 1389 1362 1382 1354 1375 C 1346 1367 1338 1358 1332 1348 C 1326 1338 1319 1324 1313 1307 L 770 2 C 763 -11 752 -18 737 -18 L 723 -18 C 715 -18 710 -16 706 -12 C 702 -8 699 -4 696 2 L 129 1335 C 119 1357 107 1374 93 1386 C 79 1397 59 1407 35 1415 C 23 1419 13 1422 6 1424 C -1 1426 -7 1429 -11 1431 C -15 1433 -18 1435 -20 1438 C -22 1440 -23 1444 -23 1450 L -23 1495 L 424 1495 L 424 1456 C 424 1448 418 1440 406 1434 C 394 1428 381 1422 367 1417 C 353 1413 342 1407 332 1399 C 322 1391 317 1382 317 1372 C 317 1364 318 1355 322 1345 C 325 1335 328 1327 332 1319 L 774 262 L 1192 1307 C 1195 1315 1199 1326 1204 1340 C 1209 1354 1212 1364 1212 1372 C 1212 1380 1210 1386 1207 1391 C 1204 1396 1200 1401 1194 1405 C 1188 1409 1180 1412 1172 1415 C 1163 1418 1153 1421 1143 1425 C 1133 1429 1124 1432 1117 1434 C 1109 1436 1103 1439 1099 1442 C 1094 1444 1090 1447 1088 1451 C 1086 1455 1085 1460 1085 1468 L 1085 1495 L 1466 1495 L 1466 1460 Z" unicode="V" />
<glyph horiz-adv-x="2118" d="M 2136 1460 C 2136 1450 2133 1443 2127 1438 C 2121 1433 2109 1426 2091 1417 C 2073 1409 2059 1402 2049 1396 C 2038 1390 2029 1384 2022 1377 C 2014 1369 2008 1360 2002 1350 C 1996 1339 1989 1325 1982 1307 L 1489 4 C 1487 -1 1483 -6 1478 -10 C 1473 -14 1467 -16 1460 -16 L 1442 -16 C 1434 -16 1427 -14 1421 -11 C 1415 -8 1411 -3 1409 4 L 1073 989 L 715 4 C 711 -9 702 -16 688 -16 L 668 -16 C 653 -16 643 -9 637 4 L 133 1337 C 125 1355 113 1371 97 1384 C 80 1396 59 1407 35 1415 C 23 1419 13 1422 6 1425 C -1 1427 -7 1430 -11 1432 C -15 1434 -18 1436 -20 1439 C -22 1441 -23 1445 -23 1450 L -23 1495 L 432 1495 L 432 1458 C 432 1454 430 1450 426 1446 C 422 1442 417 1439 411 1436 C 405 1433 398 1430 391 1428 C 384 1425 378 1423 373 1421 C 360 1417 349 1410 339 1402 C 329 1394 324 1385 324 1376 C 324 1368 324 1359 326 1347 C 328 1335 330 1325 334 1317 L 715 285 L 1022 1116 L 932 1337 C 926 1352 916 1367 902 1381 C 888 1395 868 1407 842 1415 C 830 1419 820 1422 813 1424 C 805 1426 799 1429 795 1431 C 791 1433 788 1436 786 1439 C 784 1441 784 1445 784 1450 L 784 1495 L 1241 1495 L 1241 1458 C 1241 1452 1240 1448 1238 1446 C 1236 1443 1233 1440 1229 1438 C 1224 1435 1218 1432 1211 1429 C 1203 1426 1194 1422 1182 1417 C 1165 1409 1151 1402 1140 1396 C 1129 1390 1124 1382 1124 1374 C 1124 1372 1124 1368 1125 1363 C 1125 1358 1126 1353 1128 1347 C 1129 1341 1130 1335 1132 1329 C 1133 1323 1135 1317 1137 1313 L 1493 281 L 1866 1327 C 1874 1349 1878 1365 1878 1374 C 1878 1388 1871 1399 1857 1406 C 1843 1412 1826 1419 1806 1425 C 1782 1432 1766 1438 1758 1443 C 1749 1447 1745 1456 1745 1468 L 1745 1495 L 2136 1495 L 2136 1460 Z" unicode="W" />
<glyph horiz-adv-x="1307" d="M 1327 0 L 883 0 L 883 27 C 883 33 883 39 884 43 C 884 47 886 51 890 55 C 893 58 898 61 904 65 C 910 69 920 73 932 78 C 944 83 955 89 967 95 C 979 101 985 109 985 119 C 985 121 983 125 980 132 C 977 138 973 146 969 155 C 965 163 960 172 956 180 C 951 188 947 195 944 201 L 621 672 L 307 213 C 301 205 296 196 290 187 C 284 178 279 169 275 161 C 270 152 266 144 263 137 C 259 129 258 124 258 121 C 258 115 261 109 267 104 C 273 99 282 95 292 91 C 302 87 312 83 324 80 C 336 76 347 73 358 70 C 367 66 376 62 385 57 C 394 52 399 44 399 33 L 399 0 L -25 0 L -25 35 C -25 43 -23 50 -19 56 C -15 62 -2 69 18 76 C 36 81 52 87 66 93 C 80 99 93 107 105 117 C 117 127 129 138 141 152 C 153 166 166 183 180 203 L 567 745 L 164 1321 C 156 1333 149 1343 143 1351 C 137 1359 131 1366 124 1372 C 117 1378 108 1384 98 1390 C 88 1395 74 1401 57 1407 C 44 1411 34 1415 27 1419 C 20 1422 15 1425 11 1429 C 7 1433 5 1436 5 1440 C 4 1443 4 1447 4 1452 L 4 1495 L 453 1495 L 453 1468 C 453 1461 452 1455 452 1451 C 451 1447 449 1443 446 1440 C 443 1436 438 1433 432 1429 C 426 1425 417 1421 406 1417 C 391 1411 378 1405 367 1400 C 355 1395 350 1388 350 1380 C 350 1372 354 1360 363 1344 C 372 1328 383 1310 395 1292 L 686 866 L 1012 1337 C 1015 1341 1018 1348 1022 1356 C 1026 1364 1028 1370 1028 1376 C 1028 1382 1024 1388 1018 1392 C 1011 1396 1002 1400 992 1404 C 982 1408 970 1411 956 1414 C 942 1417 929 1421 915 1425 C 903 1428 893 1433 885 1439 C 877 1445 874 1454 874 1466 L 874 1495 L 1300 1495 L 1300 1460 C 1300 1452 1296 1444 1290 1437 C 1284 1430 1271 1424 1253 1419 C 1235 1413 1221 1408 1209 1403 C 1197 1398 1186 1391 1176 1383 C 1166 1374 1155 1362 1143 1348 C 1131 1333 1117 1314 1100 1290 L 739 797 L 1174 174 C 1182 161 1190 151 1196 143 C 1202 135 1208 128 1215 122 C 1222 116 1231 111 1241 106 C 1251 101 1264 95 1282 88 C 1293 83 1302 79 1308 75 C 1314 71 1318 67 1321 64 C 1324 60 1326 57 1326 53 C 1326 49 1327 46 1327 43 L 1327 0 Z" unicode="X" />
<glyph horiz-adv-x="1296" d="M 1333 1460 C 1333 1454 1332 1450 1330 1447 C 1328 1443 1326 1440 1323 1438 C 1319 1435 1315 1432 1309 1429 C 1303 1426 1296 1423 1288 1419 C 1273 1411 1261 1406 1251 1402 C 1241 1398 1231 1392 1223 1386 C 1214 1379 1205 1370 1196 1359 C 1186 1347 1175 1331 1161 1311 L 748 684 L 748 150 C 748 136 749 126 751 119 C 753 112 757 106 763 102 C 769 98 776 94 785 91 C 794 88 805 84 819 80 C 830 76 839 72 846 70 C 853 67 859 65 863 63 C 867 61 869 58 871 56 C 873 53 874 49 874 45 L 874 0 L 432 0 L 432 45 C 432 50 432 54 434 56 C 436 58 439 61 444 63 C 448 65 455 67 463 69 C 471 71 481 75 494 80 C 508 85 520 89 529 93 C 538 96 545 100 550 104 C 554 108 557 113 559 119 C 560 125 561 133 561 145 L 561 676 L 119 1333 C 111 1344 103 1354 97 1362 C 91 1370 84 1378 77 1385 C 70 1391 62 1397 53 1402 C 43 1406 32 1411 20 1415 C 8 1419 0 1422 -8 1424 C -15 1426 -21 1429 -25 1431 C -29 1433 -32 1436 -34 1439 C -36 1441 -37 1445 -37 1450 L -37 1495 L 418 1495 L 418 1468 C 418 1462 417 1458 417 1455 C 417 1452 415 1449 412 1447 C 409 1444 404 1441 398 1438 C 391 1435 381 1431 369 1425 C 350 1417 335 1410 325 1406 C 314 1401 309 1394 309 1386 C 309 1380 311 1372 316 1362 C 321 1351 326 1341 332 1333 L 698 776 L 1032 1294 C 1045 1314 1055 1333 1062 1349 C 1069 1365 1073 1376 1073 1384 C 1073 1391 1067 1397 1055 1403 C 1043 1409 1029 1415 1012 1421 C 988 1429 972 1436 964 1441 C 956 1446 952 1454 952 1464 L 952 1495 L 1333 1495 L 1333 1460 Z" unicode="Y" />
<glyph horiz-adv-x="1251" d="M 1200 -18 C 1188 -17 1174 -16 1158 -14 C 1142 -12 1124 -10 1104 -8 C 1084 -6 1064 -4 1042 -2 C 1020 0 999 0 977 0 L 37 0 L 37 27 C 37 38 40 49 46 60 C 52 70 59 82 68 94 L 954 1413 L 371 1413 C 349 1413 331 1409 315 1403 C 299 1397 286 1387 274 1374 C 262 1361 252 1345 243 1325 C 233 1305 224 1283 215 1257 C 209 1239 200 1227 190 1221 C 180 1215 168 1212 154 1212 L 119 1212 L 119 1511 C 127 1509 139 1508 155 1506 C 170 1504 186 1503 203 1501 C 219 1499 235 1498 251 1497 C 267 1495 279 1495 289 1495 L 1186 1495 L 1186 1485 C 1186 1464 1182 1448 1174 1437 C 1166 1426 1159 1415 1151 1403 L 270 82 L 899 82 C 923 82 944 85 964 92 C 983 98 1001 109 1017 125 C 1033 141 1049 161 1064 187 C 1078 213 1093 245 1108 283 C 1112 295 1117 304 1121 310 C 1125 316 1133 319 1147 319 L 1200 319 L 1200 -18 Z" unicode="Z" />
<glyph horiz-adv-x="672" d="M 602 -389 L 137 -389 L 137 1495 L 602 1495 L 602 1427 L 283 1427 L 283 -322 L 602 -322 L 602 -389 Z" unicode="[" />
<glyph horiz-adv-x="930" d="M 975 -389 L 856 -389 L 80 1495 L 201 1495 L 975 -389 Z" unicode="\" />
<glyph horiz-adv-x="672" d="M 535 -389 L 72 -389 L 72 -322 L 389 -322 L 389 1427 L 72 1427 L 72 1495 L 535 1495 L 535 -389 Z" unicode="]" />
<glyph horiz-adv-x="1569" d="M 1249 684 L 1126 684 L 784 1391 L 442 684 L 322 684 L 725 1495 L 844 1495 L 1249 684 Z" unicode="^" />
<glyph horiz-adv-x="1061" d="M 1075 -209 L -14 -209 L -14 -127 L 1075 -127 L 1075 -209 Z" unicode="_" />
<glyph horiz-adv-x="856" d="M 647 1028 L 610 1004 L 281 1186 C 251 1203 230 1220 218 1236 C 206 1252 201 1268 201 1284 C 201 1305 207 1323 220 1339 C 232 1354 250 1362 274 1362 C 282 1362 291 1361 299 1360 C 307 1359 316 1357 325 1353 C 334 1349 344 1343 354 1335 C 364 1327 375 1317 387 1305 L 647 1028 Z" unicode="`" />
<glyph horiz-adv-x="952" d="M 977 82 C 956 50 931 26 902 11 C 873 -4 845 -12 819 -12 C 800 -12 782 -9 764 -3 C 746 2 730 10 716 21 C 701 31 688 44 678 59 C 667 74 659 91 655 111 C 618 71 575 39 526 16 C 476 -6 424 -18 369 -18 C 327 -18 287 -12 249 -2 C 210 8 176 24 146 46 C 116 68 92 95 74 128 C 56 160 47 198 47 242 C 47 287 59 328 84 366 C 109 404 146 436 196 463 C 246 490 307 511 381 526 C 455 541 541 549 639 549 C 639 594 633 634 623 669 C 613 703 598 732 580 755 C 562 778 540 795 515 807 C 489 819 462 825 432 825 C 413 825 394 824 376 822 C 358 820 344 819 334 817 C 334 795 333 774 333 754 C 332 734 328 715 322 699 C 316 683 305 670 290 660 C 275 650 253 645 225 645 C 192 645 167 651 149 664 C 131 677 123 700 123 733 C 123 753 130 773 144 793 C 158 812 178 829 204 844 C 230 859 262 871 300 881 C 338 890 380 895 428 895 C 498 895 556 886 604 870 C 652 854 690 831 719 801 C 748 771 769 735 782 693 C 794 651 801 604 801 553 L 801 172 C 801 148 807 129 819 115 C 831 101 849 94 872 94 C 886 94 899 96 909 101 C 919 106 930 113 940 123 L 977 82 Z M 639 246 L 639 473 C 571 473 511 469 459 459 C 407 449 363 435 327 417 C 291 398 264 375 246 349 C 228 322 219 292 219 258 C 219 228 223 201 233 179 C 242 156 255 137 272 122 C 289 106 309 95 333 87 C 356 79 382 76 410 76 C 436 76 463 80 490 90 C 517 100 542 113 564 129 C 586 145 604 163 618 183 C 632 203 639 224 639 246 Z" unicode="a" />
<glyph horiz-adv-x="1051" d="M 1008 446 C 1008 386 997 328 976 272 C 955 216 925 166 885 123 C 845 80 795 46 737 20 C 679 -5 613 -18 539 -18 C 510 -18 483 -15 458 -11 C 432 -6 409 0 387 7 C 365 15 344 23 325 32 C 306 40 289 49 274 57 C 270 59 267 60 265 61 C 263 62 260 63 256 63 C 252 63 248 60 244 55 C 240 50 235 44 229 36 C 223 28 218 20 212 11 C 206 2 199 -6 193 -14 C 188 -19 182 -22 176 -22 C 170 -22 166 -23 164 -23 C 158 -23 153 -20 148 -15 C 143 -9 141 -3 141 4 L 141 1327 C 141 1339 140 1349 138 1357 C 136 1365 133 1372 129 1378 C 125 1384 119 1389 111 1394 C 103 1398 92 1403 80 1409 C 69 1413 58 1417 46 1423 C 34 1428 29 1434 29 1442 L 29 1481 L 307 1495 L 307 782 C 319 791 332 802 348 814 C 364 826 382 837 403 847 C 424 857 448 866 476 874 C 503 881 534 885 569 885 C 623 885 676 876 728 858 C 780 840 827 813 869 777 C 910 741 943 695 969 640 C 995 585 1008 520 1008 446 Z M 827 444 C 827 508 819 562 803 606 C 787 650 767 685 741 712 C 715 738 686 757 653 769 C 620 780 587 786 553 786 C 523 786 496 783 472 778 C 448 773 427 766 408 757 C 389 748 371 737 355 724 C 339 710 323 696 307 680 L 307 162 C 317 152 328 142 342 132 C 356 121 371 111 389 102 C 407 92 427 85 449 79 C 471 73 495 70 522 70 C 574 70 620 79 658 97 C 696 115 728 140 753 173 C 778 206 797 245 809 291 C 821 337 827 388 827 444 Z" unicode="b" />
<glyph horiz-adv-x="825" d="M 840 184 C 828 162 811 139 790 115 C 768 91 743 70 713 50 C 683 30 648 13 609 1 C 570 -11 527 -18 479 -18 C 419 -18 362 -8 310 12 C 257 32 211 61 171 99 C 131 137 100 183 77 238 C 54 293 43 356 43 426 C 43 486 53 544 75 600 C 97 656 127 705 167 747 C 206 789 253 822 308 847 C 363 872 424 885 492 885 C 542 885 587 879 625 868 C 663 857 694 843 720 825 C 745 807 764 788 776 766 C 788 744 795 722 795 700 C 795 678 792 661 786 648 C 780 634 772 624 763 617 C 753 610 743 605 731 603 C 719 601 708 600 696 600 C 664 600 638 607 618 621 C 598 635 588 658 588 692 C 588 704 590 719 595 735 C 600 751 606 766 614 782 C 604 787 587 793 563 801 C 539 809 505 813 461 813 C 421 813 387 803 357 785 C 327 766 303 741 283 709 C 263 677 248 639 238 596 C 228 552 223 506 223 457 C 223 407 228 360 238 314 C 248 268 265 228 287 193 C 309 157 338 129 373 108 C 408 86 450 76 500 76 C 534 76 564 80 592 89 C 620 97 645 109 669 124 C 692 138 714 155 734 173 C 754 191 773 211 793 231 L 840 184 Z" unicode="c" />
<glyph horiz-adv-x="1069" d="M 1018 18 L 752 -2 L 752 100 C 738 86 721 72 703 58 C 685 44 664 31 641 20 C 618 9 593 0 566 -6 C 539 -12 510 -16 479 -16 C 413 -16 353 -4 299 18 C 245 41 200 73 162 114 C 124 154 94 202 74 257 C 53 312 43 372 43 436 C 43 506 55 569 79 625 C 103 681 135 728 175 766 C 215 804 262 834 315 854 C 367 874 422 885 479 885 C 513 885 543 881 570 875 C 597 869 621 861 643 851 C 664 841 683 831 699 819 C 715 807 730 795 743 784 L 743 1331 C 743 1351 738 1367 730 1378 C 721 1389 704 1399 680 1409 C 662 1416 648 1421 637 1425 C 626 1429 621 1434 621 1442 L 621 1481 L 909 1495 L 909 147 C 909 136 909 127 910 121 C 911 115 914 109 918 105 C 922 101 927 97 935 94 C 943 90 953 86 967 82 C 984 76 997 72 1005 70 C 1013 68 1018 63 1018 57 L 1018 18 Z M 743 174 L 743 684 C 716 714 684 740 646 760 C 608 780 561 791 506 791 C 452 791 408 781 372 761 C 336 741 307 715 285 683 C 263 650 247 612 237 569 C 227 526 223 482 223 436 C 223 372 230 317 246 271 C 262 225 283 188 309 159 C 335 130 365 109 399 96 C 433 82 468 76 506 76 C 549 76 591 85 632 104 C 673 122 710 146 743 174 Z" unicode="d" />
<glyph horiz-adv-x="905" d="M 874 475 L 213 475 C 213 415 218 362 230 314 C 241 266 258 225 282 191 C 306 157 336 130 373 112 C 410 93 454 84 506 84 C 540 84 572 87 602 95 C 632 102 661 112 688 125 C 715 138 740 153 763 171 C 786 189 807 208 827 229 L 872 186 C 862 166 846 144 824 120 C 801 96 773 74 740 54 C 706 33 668 16 626 2 C 583 -11 537 -18 487 -18 C 413 -18 349 -6 294 18 C 238 42 192 74 155 115 C 118 156 90 203 71 257 C 52 310 43 366 43 426 C 43 484 53 541 73 597 C 93 653 122 703 160 747 C 198 791 244 826 299 854 C 353 881 415 895 485 895 C 535 895 580 889 620 877 C 659 865 693 848 722 828 C 750 807 774 783 794 755 C 813 727 829 698 841 667 C 853 635 861 603 866 571 C 871 538 874 506 874 475 Z M 713 555 C 709 591 703 626 693 659 C 683 691 669 720 651 744 C 633 768 609 788 581 802 C 552 816 517 823 477 823 C 445 823 414 816 385 803 C 355 790 329 772 305 748 C 281 724 262 696 246 663 C 230 630 220 594 215 555 L 713 555 Z" unicode="e" />
<glyph horiz-adv-x="578" d="M 688 1391 C 688 1363 679 1339 662 1321 C 645 1303 620 1294 588 1294 C 578 1294 568 1295 556 1299 C 544 1303 533 1309 523 1318 C 512 1327 503 1339 495 1355 C 487 1371 482 1391 481 1415 C 478 1414 472 1412 464 1410 C 456 1408 446 1403 435 1396 C 424 1388 412 1378 400 1365 C 388 1351 377 1333 367 1311 C 357 1288 348 1260 342 1227 C 335 1193 332 1153 332 1106 L 332 860 L 580 860 L 580 784 L 338 784 L 338 129 C 338 117 338 108 339 102 C 340 96 343 91 347 87 C 351 83 356 80 364 77 C 372 74 383 70 397 66 C 411 60 423 56 432 53 C 441 49 446 45 446 39 L 446 0 L 72 0 L 72 39 C 72 41 73 44 77 47 C 81 49 85 52 91 54 C 96 56 102 58 108 60 C 114 62 119 64 125 66 C 135 69 143 72 149 75 C 155 78 159 82 163 86 C 166 90 168 95 170 102 C 171 108 172 117 172 129 L 172 784 L 66 784 L 66 805 C 66 816 72 824 84 830 C 96 836 113 842 137 850 C 143 852 148 854 153 858 C 157 861 161 866 164 872 C 166 878 168 887 170 897 C 171 907 172 920 172 936 C 172 1008 180 1078 196 1146 C 212 1213 235 1272 267 1324 C 299 1376 338 1417 384 1448 C 430 1479 484 1495 545 1495 C 571 1495 594 1491 612 1485 C 630 1479 644 1471 656 1461 C 667 1451 675 1439 680 1427 C 685 1415 688 1403 688 1391 Z" unicode="f" />
<glyph horiz-adv-x="948" d="M 977 821 C 977 810 974 800 970 792 C 965 783 959 776 952 770 C 945 764 937 759 929 756 C 921 753 913 752 905 752 C 889 752 877 754 868 759 C 858 763 851 768 846 772 C 840 776 833 780 826 785 C 818 790 810 793 801 793 C 788 793 777 791 768 787 C 759 783 751 778 745 772 C 775 732 794 696 803 664 C 812 632 817 601 817 571 C 817 528 808 487 791 449 C 773 410 748 376 716 346 C 684 316 644 293 597 276 C 550 258 497 250 438 250 C 428 250 416 250 402 251 C 388 252 375 254 361 256 C 347 258 333 260 320 263 C 306 265 295 268 287 272 L 184 109 C 196 109 211 110 228 112 C 244 113 263 114 285 116 C 306 117 330 118 358 119 C 385 120 416 121 451 121 C 537 121 607 114 662 101 C 716 88 759 71 791 50 C 823 28 844 3 856 -24 C 868 -52 874 -82 874 -113 C 874 -159 861 -200 837 -236 C 812 -272 779 -303 737 -328 C 695 -353 647 -372 592 -386 C 536 -399 478 -406 418 -406 C 304 -406 219 -392 161 -365 C 103 -338 74 -298 74 -244 C 74 -221 83 -201 102 -185 C 120 -168 147 -160 182 -160 C 202 -160 219 -164 232 -172 C 245 -180 255 -190 263 -204 C 270 -218 275 -233 277 -250 C 279 -267 281 -285 281 -303 C 283 -304 289 -306 298 -309 C 306 -311 317 -314 329 -318 C 341 -321 355 -324 371 -326 C 386 -328 402 -330 420 -330 C 448 -330 480 -327 515 -323 C 549 -318 582 -309 612 -296 C 642 -283 668 -265 688 -242 C 708 -218 719 -188 719 -150 C 719 -101 692 -66 638 -46 C 584 -26 503 -16 395 -16 C 349 -16 308 -17 273 -21 C 238 -25 202 -28 166 -31 C 147 -33 132 -34 120 -36 C 108 -38 99 -39 91 -40 C 83 -41 75 -42 69 -42 C 62 -42 55 -43 47 -43 C 39 -43 32 -41 24 -38 C 16 -35 12 -29 12 -20 C 12 -12 14 -5 19 1 C 24 7 29 14 33 20 L 221 307 C 171 340 133 379 106 424 C 79 468 66 517 66 571 C 66 619 75 662 95 702 C 114 742 141 776 175 804 C 209 832 249 855 295 871 C 341 887 392 895 446 895 C 502 895 551 887 593 872 C 634 856 671 835 705 809 C 723 837 748 859 780 875 C 812 891 845 899 881 901 C 906 901 928 894 948 881 C 967 867 977 847 977 821 Z M 651 575 C 651 607 646 638 638 668 C 630 697 617 723 600 745 C 582 767 560 785 534 799 C 508 812 476 819 440 819 C 402 819 370 812 344 798 C 317 784 295 766 278 744 C 260 721 247 695 239 666 C 231 636 227 606 227 575 C 227 497 246 436 285 392 C 323 348 378 326 449 326 C 479 326 507 332 532 346 C 557 359 578 377 596 400 C 614 423 627 450 637 480 C 646 510 651 541 651 575 Z" unicode="g" />
<glyph horiz-adv-x="1102" d="M 1055 0 L 684 0 L 684 39 C 684 46 687 51 694 53 C 701 55 713 59 731 66 C 744 70 754 74 761 78 C 768 81 773 85 777 89 C 780 93 782 98 783 104 C 783 110 784 119 784 129 L 784 592 C 784 624 778 653 767 678 C 755 702 740 723 721 739 C 702 755 680 768 655 776 C 629 784 603 788 575 788 C 527 788 482 777 438 756 C 394 735 356 706 326 670 L 326 129 C 326 117 326 108 327 102 C 327 96 329 91 333 87 C 337 83 342 79 350 77 C 357 74 367 70 381 66 C 396 60 407 56 414 53 C 420 49 424 45 424 39 L 424 0 L 57 0 L 57 39 C 57 46 62 51 74 54 C 85 56 97 60 111 66 C 121 70 129 73 136 76 C 142 79 147 83 151 87 C 154 91 156 96 158 102 C 159 108 160 117 160 129 L 160 1331 C 160 1348 157 1363 151 1376 C 145 1388 132 1399 111 1407 C 96 1412 83 1417 71 1421 C 59 1425 53 1432 53 1442 L 53 1481 L 326 1495 L 326 756 C 342 772 361 787 382 803 C 403 818 426 832 452 844 C 477 856 505 865 535 873 C 565 881 597 885 633 885 C 684 885 729 877 769 863 C 808 849 841 829 868 803 C 895 777 915 745 929 708 C 943 671 950 630 950 586 L 950 129 C 950 118 950 109 951 103 C 951 97 953 92 957 88 C 961 84 966 80 974 77 C 982 74 992 70 1006 66 C 1023 59 1035 54 1043 52 C 1051 49 1055 45 1055 39 L 1055 0 Z" unicode="h" />
<glyph horiz-adv-x="506" d="M 371 1266 C 371 1250 368 1236 362 1222 C 356 1208 347 1195 337 1185 C 326 1174 313 1166 299 1160 C 285 1154 270 1151 254 1151 C 237 1151 221 1154 207 1160 C 193 1166 180 1174 170 1185 C 160 1195 152 1208 146 1222 C 140 1236 137 1250 137 1266 C 137 1281 140 1295 146 1309 C 152 1323 160 1335 170 1346 C 180 1356 193 1365 207 1371 C 221 1377 237 1380 254 1380 C 270 1380 285 1377 299 1371 C 313 1365 326 1356 337 1346 C 347 1335 356 1323 362 1309 C 368 1295 371 1281 371 1266 Z M 440 0 L 72 0 L 72 39 C 72 46 77 51 88 54 C 99 56 111 60 125 66 C 135 70 143 73 150 76 C 156 79 161 83 165 87 C 168 91 170 96 172 102 C 173 108 174 117 174 129 L 174 719 C 174 741 170 759 164 771 C 158 783 143 792 121 799 C 99 805 85 809 77 812 C 69 814 66 819 66 825 L 66 864 L 340 879 L 340 129 C 340 117 340 108 341 102 C 341 96 343 91 347 87 C 351 83 356 79 364 77 C 371 74 381 70 395 66 C 410 60 421 56 429 53 C 436 49 440 45 440 39 L 440 0 Z" unicode="i" />
<glyph horiz-adv-x="475" d="M 358 1266 C 358 1250 355 1236 349 1222 C 343 1208 334 1195 324 1185 C 314 1174 301 1166 287 1160 C 273 1154 258 1151 242 1151 C 225 1151 209 1154 195 1160 C 181 1166 168 1174 158 1185 C 148 1195 140 1208 134 1222 C 128 1236 125 1250 125 1266 C 125 1281 128 1295 134 1309 C 140 1323 148 1335 158 1346 C 168 1356 181 1365 195 1371 C 209 1377 225 1380 242 1380 C 258 1380 273 1377 287 1371 C 301 1365 314 1356 324 1346 C 334 1335 343 1323 349 1309 C 355 1295 358 1281 358 1266 Z M 346 125 C 346 47 339 -24 325 -89 C 311 -154 289 -210 260 -256 C 231 -302 194 -338 148 -364 C 102 -390 48 -403 -14 -403 C -36 -403 -56 -400 -74 -394 C -91 -388 -106 -381 -118 -372 C -130 -362 -139 -351 -145 -339 C -151 -327 -154 -314 -154 -301 C -154 -276 -146 -254 -130 -236 C -114 -218 -90 -209 -59 -209 C -50 -209 -40 -210 -29 -213 C -17 -215 -6 -221 4 -230 C 15 -238 25 -251 33 -267 C 41 -283 47 -305 51 -332 C 58 -328 69 -323 83 -317 C 97 -310 112 -297 126 -279 C 140 -261 153 -234 164 -199 C 174 -164 180 -117 180 -57 L 180 723 C 180 743 175 760 165 772 C 155 784 139 793 117 799 C 96 804 81 808 71 810 C 61 812 57 817 57 825 L 57 864 L 346 879 L 346 125 Z" unicode="j" />
<glyph horiz-adv-x="971" d="M 989 0 L 602 0 L 602 35 C 602 41 608 45 620 48 C 632 50 643 53 655 57 C 667 60 676 64 680 70 C 684 76 686 82 686 88 C 686 94 683 101 677 110 C 671 118 664 127 657 137 L 422 449 L 324 362 L 324 129 C 324 117 324 108 325 102 C 325 96 327 91 331 87 C 335 83 340 79 348 77 C 355 74 365 70 379 66 C 394 60 405 56 412 53 C 418 49 422 45 422 39 L 422 0 L 57 0 L 57 39 C 57 46 62 51 74 54 C 85 56 97 60 111 66 C 121 70 129 73 136 76 C 142 79 147 83 151 87 C 154 91 156 96 158 102 C 159 108 160 117 160 129 L 160 1331 C 160 1348 157 1363 151 1376 C 145 1388 132 1399 111 1407 C 96 1412 83 1417 71 1421 C 59 1425 53 1432 53 1442 L 53 1481 L 326 1495 L 326 442 L 592 682 C 610 698 626 714 638 729 C 650 743 657 754 657 760 C 657 767 651 774 640 780 C 629 786 612 792 590 797 C 570 800 558 804 553 808 C 547 812 545 817 545 823 L 545 860 L 948 860 L 948 823 C 948 815 942 808 931 803 C 920 798 910 794 901 791 C 871 781 844 770 821 758 C 798 746 774 731 749 713 C 723 694 695 671 663 643 C 631 615 591 581 543 541 L 831 162 C 847 140 864 121 882 103 C 899 85 917 74 936 68 C 956 60 970 55 978 51 C 985 47 989 41 989 33 L 989 0 Z" unicode="k" />
<glyph horiz-adv-x="487" d="M 426 0 L 59 0 L 59 39 C 59 46 64 51 76 54 C 87 56 99 60 113 66 C 123 70 131 73 138 76 C 144 79 149 83 153 87 C 156 91 158 96 160 102 C 161 108 162 117 162 129 L 162 1331 C 162 1348 159 1363 153 1376 C 147 1388 134 1399 113 1407 C 98 1412 85 1417 73 1421 C 61 1425 55 1432 55 1442 L 55 1481 L 328 1495 L 328 129 C 328 117 328 108 329 102 C 329 96 331 91 335 87 C 339 83 344 79 352 77 C 359 74 369 70 383 66 C 398 60 409 56 416 53 C 422 49 426 45 426 39 L 426 0 Z" unicode="l" />
<glyph horiz-adv-x="1677" d="M 1630 0 L 1260 0 L 1260 39 C 1260 46 1263 51 1270 53 C 1277 55 1289 59 1307 66 C 1320 70 1330 74 1337 78 C 1344 81 1349 85 1353 89 C 1356 93 1358 98 1359 104 C 1359 110 1360 119 1360 129 L 1360 592 C 1360 654 1343 702 1311 736 C 1279 770 1229 788 1163 788 C 1143 788 1123 785 1101 780 C 1079 775 1058 768 1037 759 C 1016 750 996 739 978 726 C 959 713 944 698 932 682 L 932 129 C 932 117 932 108 933 102 C 933 96 935 91 939 87 C 943 83 948 79 956 77 C 963 74 973 70 987 66 C 1002 60 1013 56 1020 53 C 1026 49 1030 45 1030 39 L 1030 0 L 664 0 L 664 39 C 664 46 669 51 680 54 C 691 56 703 60 717 66 C 727 70 735 73 742 76 C 748 79 753 83 757 87 C 760 91 762 96 764 102 C 765 108 766 117 766 129 L 766 596 C 766 624 761 650 752 674 C 743 698 730 718 713 735 C 696 751 675 764 650 774 C 624 783 595 788 563 788 C 543 788 523 784 502 778 C 480 772 459 763 439 753 C 418 742 399 729 381 715 C 363 701 349 686 338 670 L 338 129 C 338 117 338 108 339 102 C 339 96 341 91 345 87 C 349 83 354 79 362 77 C 369 74 379 70 393 66 C 408 60 419 56 426 53 C 432 49 436 45 436 39 L 436 0 L 70 0 L 70 39 C 70 46 75 51 86 54 C 97 56 109 60 123 66 C 133 70 141 73 148 76 C 154 79 159 83 163 87 C 166 91 168 96 170 102 C 171 108 172 117 172 129 L 172 719 C 172 741 168 759 162 771 C 156 783 141 792 119 799 C 97 805 83 809 75 812 C 67 814 63 819 63 825 L 63 864 L 332 879 L 332 756 C 346 771 363 786 381 802 C 399 817 419 831 442 843 C 465 855 491 865 521 873 C 550 881 583 885 621 885 C 687 885 743 872 791 847 C 839 822 875 788 901 745 C 923 766 946 785 969 803 C 991 820 1015 835 1039 847 C 1063 859 1088 868 1115 875 C 1142 881 1172 885 1204 885 C 1255 885 1301 877 1341 863 C 1381 849 1414 829 1442 803 C 1469 777 1490 745 1504 708 C 1518 671 1526 630 1526 586 L 1526 129 C 1526 118 1526 109 1527 103 C 1527 97 1529 92 1533 88 C 1537 84 1542 80 1550 77 C 1557 74 1567 70 1581 66 C 1598 59 1610 54 1618 52 C 1626 49 1630 45 1630 39 L 1630 0 Z" unicode="m" />
<glyph horiz-adv-x="1114" d="M 1067 0 L 696 0 L 696 39 C 696 46 699 51 706 53 C 713 55 725 59 743 66 C 756 70 766 74 774 78 C 781 81 786 85 790 89 C 793 93 795 98 796 104 C 796 110 797 119 797 129 L 797 592 C 797 625 791 654 781 679 C 770 703 755 724 736 740 C 717 756 695 768 670 776 C 644 784 617 788 588 788 C 564 788 540 785 516 779 C 492 773 469 765 447 755 C 425 744 404 731 386 717 C 367 703 351 687 338 670 L 338 129 C 338 117 338 108 339 102 C 339 96 341 91 345 87 C 349 83 354 79 362 77 C 369 74 379 70 393 66 C 408 60 419 56 426 53 C 432 49 436 45 436 39 L 436 0 L 70 0 L 70 39 C 70 46 75 51 86 54 C 97 56 109 60 123 66 C 133 70 141 73 148 76 C 154 79 159 83 163 87 C 166 91 168 96 170 102 C 171 108 172 117 172 129 L 172 719 C 172 741 168 759 162 771 C 156 783 141 792 119 799 C 97 805 83 809 75 812 C 67 814 63 819 63 825 L 63 864 L 332 879 L 332 756 C 349 771 368 786 390 802 C 411 817 434 831 460 843 C 486 855 514 865 544 873 C 574 881 607 885 643 885 C 694 885 739 877 779 863 C 819 849 852 829 880 803 C 907 777 928 745 942 708 C 956 671 963 630 963 586 L 963 129 C 963 118 963 109 964 103 C 964 97 966 92 970 88 C 974 84 979 80 987 77 C 994 74 1004 70 1018 66 C 1035 59 1047 54 1055 52 C 1063 49 1067 45 1067 39 L 1067 0 Z" unicode="n" />
<glyph horiz-adv-x="993" d="M 950 440 C 950 373 938 312 916 256 C 894 200 863 151 823 111 C 783 70 735 38 679 16 C 623 -6 562 -18 496 -18 C 428 -18 367 -6 311 15 C 255 37 208 69 168 109 C 128 149 98 197 76 253 C 54 309 43 370 43 438 C 43 504 54 565 76 621 C 98 677 128 725 168 765 C 208 805 255 837 311 860 C 367 883 428 895 496 895 C 562 895 623 883 679 861 C 735 838 783 806 823 766 C 863 726 894 678 916 622 C 938 566 950 506 950 440 Z M 772 440 C 772 499 766 552 754 599 C 742 646 724 686 701 718 C 677 750 648 775 614 793 C 580 810 540 819 496 819 C 452 819 412 810 378 793 C 344 775 315 750 292 718 C 268 685 251 645 239 598 C 227 550 221 497 221 438 C 221 317 244 224 292 158 C 339 92 407 59 496 59 C 540 59 580 67 614 84 C 648 101 677 126 701 159 C 724 191 742 231 754 279 C 766 326 772 380 772 440 Z" unicode="o" />
<glyph horiz-adv-x="1063" d="M 1020 446 C 1020 386 1009 328 988 272 C 967 216 938 166 900 123 C 862 80 816 46 762 20 C 708 -5 649 -18 584 -18 C 554 -18 527 -15 502 -9 C 476 -3 453 4 431 13 C 409 22 390 32 373 42 C 356 52 342 62 330 72 L 330 -262 C 330 -272 330 -281 332 -287 C 333 -293 335 -299 339 -303 C 343 -307 348 -310 355 -314 C 361 -317 370 -321 381 -326 C 399 -333 412 -337 419 -339 C 426 -340 430 -344 430 -352 L 430 -391 L 61 -391 L 61 -352 C 61 -348 63 -344 67 -342 C 71 -339 76 -337 82 -335 C 88 -333 94 -331 100 -330 C 106 -328 112 -327 117 -326 C 133 -320 145 -314 153 -306 C 160 -298 164 -283 164 -262 L 164 719 C 164 741 160 759 154 771 C 148 783 133 792 111 799 C 89 805 75 809 68 811 C 60 813 57 817 57 825 L 57 864 L 319 879 L 319 764 C 331 778 346 792 365 806 C 383 820 405 833 429 845 C 453 857 479 866 507 874 C 535 881 566 885 598 885 C 656 885 710 874 761 854 C 812 833 857 804 895 766 C 933 728 964 682 986 628 C 1008 574 1020 513 1020 446 Z M 840 463 C 840 516 832 563 818 605 C 804 646 784 681 760 709 C 736 737 707 758 675 773 C 643 787 609 795 573 795 C 546 795 520 791 495 784 C 470 776 447 767 425 756 C 403 745 384 733 368 719 C 352 705 339 692 330 680 L 330 172 C 354 147 387 125 428 106 C 469 87 515 78 567 78 C 605 78 640 85 674 99 C 707 113 736 135 760 166 C 784 196 804 236 818 285 C 832 333 840 393 840 463 Z" unicode="p" />
<glyph horiz-adv-x="1032" d="M 999 -391 L 629 -391 L 629 -352 C 629 -344 632 -339 640 -337 C 648 -335 660 -332 678 -326 C 690 -322 699 -318 706 -315 C 712 -311 717 -307 721 -303 C 724 -299 726 -293 727 -287 C 728 -281 729 -272 729 -262 L 729 94 C 715 84 701 73 685 61 C 669 49 650 37 630 27 C 610 17 587 8 562 2 C 537 -4 509 -8 479 -8 C 412 -8 352 3 298 26 C 244 49 199 81 161 121 C 123 161 93 209 73 263 C 53 317 43 376 43 440 C 43 508 56 569 82 625 C 108 681 143 729 187 769 C 231 809 281 840 337 862 C 393 884 452 895 512 895 C 559 895 602 887 642 873 C 681 858 718 839 754 817 C 762 813 767 810 769 810 C 771 809 774 809 778 809 C 781 809 785 811 790 816 C 794 820 799 826 805 834 C 811 842 817 850 824 859 C 830 868 837 877 844 885 C 848 890 853 893 859 894 C 865 894 870 895 872 895 C 877 895 882 892 887 887 C 892 881 895 875 895 868 L 895 -262 C 895 -272 895 -281 897 -287 C 898 -293 901 -299 905 -303 C 909 -307 914 -311 921 -315 C 927 -318 936 -322 946 -326 C 951 -328 957 -330 963 -332 C 969 -334 974 -336 980 -338 C 985 -340 989 -342 993 -344 C 997 -346 999 -349 999 -352 L 999 -391 Z M 729 172 L 729 731 C 719 739 708 747 694 756 C 680 765 665 773 647 781 C 629 789 610 795 590 800 C 570 804 548 807 526 807 C 487 807 449 800 413 788 C 377 775 344 754 316 726 C 288 698 265 661 248 616 C 231 570 223 515 223 451 C 223 383 231 325 247 279 C 263 233 285 195 311 167 C 337 138 367 117 401 105 C 435 92 469 86 504 86 C 546 86 586 94 625 110 C 663 126 698 146 729 172 Z" unicode="q" />
<glyph horiz-adv-x="711" d="M 727 784 C 727 770 725 757 721 745 C 717 733 711 722 703 712 C 695 702 684 695 672 689 C 660 683 645 680 629 680 C 601 680 580 688 564 705 C 548 722 535 745 526 774 C 503 772 480 762 458 746 C 436 730 416 709 398 684 C 380 658 365 630 354 598 C 343 566 338 533 338 500 L 338 129 C 338 117 338 108 340 102 C 341 96 344 91 348 87 C 352 83 357 79 365 77 C 373 74 383 70 397 66 C 412 60 424 56 433 53 C 441 49 446 45 446 39 L 446 0 L 70 0 L 70 39 C 70 46 75 51 86 54 C 97 56 109 60 123 66 C 133 70 141 73 148 76 C 154 79 159 83 163 87 C 166 91 168 96 170 102 C 171 108 172 117 172 129 L 172 719 C 172 741 168 759 162 771 C 156 783 141 792 119 799 C 97 805 83 809 75 812 C 67 814 63 819 63 825 L 63 864 L 324 879 L 324 680 C 379 754 430 807 476 838 C 522 869 564 885 604 885 C 624 885 642 882 658 876 C 674 870 687 863 697 854 C 707 844 714 833 719 821 C 724 809 727 796 727 784 Z" unicode="r" />
<glyph horiz-adv-x="827" d="M 782 246 C 782 218 774 189 759 158 C 744 127 721 99 691 73 C 661 47 623 25 577 8 C 531 -9 478 -18 418 -18 C 364 -18 314 -12 269 -1 C 224 9 185 23 153 41 C 120 59 94 79 76 101 C 58 123 49 145 49 168 C 49 182 50 196 54 209 C 58 222 64 233 73 243 C 81 252 92 259 106 265 C 120 271 136 274 156 274 C 186 274 209 265 226 248 C 243 230 252 207 252 178 C 252 164 248 151 241 138 C 234 124 229 115 225 109 C 236 99 250 91 268 84 C 285 77 303 71 322 66 C 341 61 360 57 379 55 C 398 52 415 51 430 51 C 458 51 484 54 509 61 C 534 67 556 77 576 90 C 595 103 610 119 622 138 C 633 157 639 179 639 203 C 639 225 631 244 616 261 C 600 278 579 294 553 308 C 526 322 495 335 460 348 C 424 360 386 373 346 387 C 296 403 255 421 223 439 C 191 457 165 477 147 497 C 129 517 116 539 109 563 C 101 586 98 611 98 637 C 98 669 107 700 125 731 C 143 761 168 788 199 812 C 229 836 264 855 304 869 C 344 883 385 891 428 891 C 480 891 524 886 562 876 C 600 866 631 854 655 839 C 679 824 697 808 709 791 C 721 773 727 757 727 743 C 727 709 717 683 699 665 C 681 647 657 639 629 639 C 613 639 598 642 586 648 C 574 654 563 662 555 672 C 547 682 540 693 536 706 C 532 719 530 733 530 748 C 530 753 531 762 534 775 C 536 787 539 797 541 805 C 532 806 519 809 502 813 C 485 817 458 819 420 819 C 396 819 374 815 354 808 C 333 800 315 790 300 778 C 284 766 272 751 263 734 C 254 716 250 698 250 678 C 250 656 256 637 268 621 C 280 605 297 591 321 578 C 344 564 373 551 408 538 C 443 525 484 510 530 494 C 578 476 619 458 651 441 C 683 424 709 406 729 387 C 748 368 762 347 770 325 C 778 302 782 276 782 246 Z" unicode="s" />
<glyph horiz-adv-x="578" d="M 580 53 C 573 47 562 40 547 32 C 532 24 514 16 494 9 C 473 1 450 -4 425 -10 C 400 -15 374 -18 348 -18 C 308 -18 276 -13 250 -4 C 224 5 204 18 189 34 C 174 50 164 70 158 93 C 152 115 150 140 150 166 L 150 784 L 37 784 L 37 819 C 37 823 38 826 40 829 C 42 832 46 835 52 838 C 58 840 65 843 75 846 C 84 849 96 853 111 858 C 127 864 138 870 146 877 C 154 883 158 895 158 911 L 158 1120 C 158 1127 160 1133 166 1139 C 171 1144 178 1147 186 1149 L 315 1167 L 315 860 L 551 860 L 551 784 L 315 784 L 315 168 C 315 140 323 117 339 99 C 355 81 382 72 420 72 C 426 72 435 73 446 75 C 456 77 468 79 480 83 C 492 87 505 91 517 96 C 529 100 541 105 551 111 L 580 53 Z" unicode="t" />
<glyph horiz-adv-x="1100" d="M 1049 18 L 784 -2 L 784 111 C 766 95 747 79 727 64 C 707 48 684 34 659 22 C 633 10 605 0 574 -7 C 542 -14 507 -18 469 -18 C 418 -18 373 -9 334 7 C 294 23 261 46 235 75 C 208 103 188 137 174 176 C 160 214 154 256 154 301 L 154 725 C 154 745 150 761 142 772 C 134 783 117 792 90 799 C 73 803 61 806 55 809 C 48 812 45 817 45 825 L 45 864 L 319 879 L 319 272 C 319 238 324 209 336 185 C 347 161 362 141 382 125 C 401 109 423 97 449 89 C 474 81 501 78 530 78 C 554 78 577 81 601 87 C 625 93 647 102 668 113 C 689 124 709 137 727 153 C 745 168 760 185 774 203 L 774 719 C 774 731 773 742 771 751 C 769 759 766 767 762 773 C 758 779 751 784 743 788 C 735 792 724 795 711 799 C 692 803 678 806 670 810 C 661 814 657 819 657 825 L 657 864 L 940 879 L 940 141 C 940 131 940 122 941 116 C 941 109 943 103 947 99 C 951 94 956 90 964 86 C 972 82 983 78 997 74 C 1013 68 1026 65 1035 63 C 1044 61 1049 57 1049 51 L 1049 18 Z" unicode="u" />
<glyph horiz-adv-x="954" d="M 979 821 C 979 815 974 810 964 806 C 954 802 943 798 932 793 C 909 782 890 767 876 747 C 862 727 849 704 838 680 L 520 -2 C 518 -7 515 -10 511 -12 C 507 -13 503 -14 498 -14 L 461 -14 C 455 -14 451 -13 447 -12 C 443 -10 440 -7 438 -2 L 88 748 C 86 750 85 753 84 757 C 82 761 80 765 77 769 C 73 773 68 778 62 783 C 55 787 46 792 35 797 C 17 804 4 809 -3 812 C -11 814 -16 819 -16 825 L -16 860 L 365 860 L 365 825 C 365 813 349 805 319 799 C 305 795 294 792 287 789 C 280 785 275 782 272 779 C 268 776 266 773 266 770 C 266 767 266 764 266 762 C 266 754 267 746 271 738 C 274 729 278 720 283 711 L 514 186 L 737 694 C 748 720 754 740 754 754 C 754 761 748 767 738 773 C 728 779 711 785 688 793 C 674 797 664 801 656 806 C 648 810 645 817 645 825 L 645 860 L 979 860 L 979 821 Z" unicode="v" />
<glyph horiz-adv-x="1450" d="M 1464 821 C 1464 815 1458 810 1448 806 C 1437 802 1426 798 1415 793 C 1391 782 1373 767 1359 748 C 1345 728 1335 709 1327 690 L 1051 2 C 1049 -3 1045 -7 1041 -9 C 1036 -11 1032 -12 1028 -12 L 995 -12 C 984 -12 977 -7 973 2 L 731 625 L 492 2 C 487 -7 481 -12 473 -12 L 428 -12 C 417 -12 410 -7 406 2 L 109 727 C 102 741 94 754 85 766 C 76 778 61 788 41 797 C 21 805 7 810 -1 812 C -9 814 -14 819 -14 825 L -14 860 L 365 860 L 365 819 C 365 813 361 810 355 808 C 348 806 337 803 322 799 C 307 795 296 790 289 786 C 281 782 276 778 273 774 C 270 770 268 767 268 764 C 268 761 268 758 268 756 C 268 750 268 744 270 737 C 272 729 274 723 276 717 L 477 203 L 725 860 L 801 860 L 1049 203 L 1223 690 C 1227 700 1230 712 1234 725 C 1237 737 1239 746 1239 752 C 1239 759 1234 766 1226 773 C 1217 780 1200 787 1176 795 C 1162 799 1151 803 1143 807 C 1134 811 1130 817 1130 823 L 1130 860 L 1464 860 L 1464 821 Z" unicode="w" />
<glyph horiz-adv-x="971" d="M 975 0 L 633 0 L 633 33 C 633 40 635 45 639 48 C 643 51 650 55 662 61 C 667 63 672 66 678 68 C 683 70 686 74 686 80 C 686 85 683 91 679 99 C 675 106 670 113 664 121 L 453 371 L 272 147 C 262 135 256 125 252 117 C 248 108 246 102 246 98 C 246 89 258 80 283 72 C 299 65 312 60 322 56 C 332 52 338 46 338 37 L 338 0 L -25 0 L -25 43 C -25 49 -20 54 -11 59 C -2 63 13 68 37 74 C 55 78 69 82 81 87 C 93 92 103 98 113 106 C 122 113 131 122 140 132 C 149 142 160 154 172 168 L 403 428 L 137 743 C 129 751 122 758 116 763 C 110 768 105 772 99 776 C 93 779 86 782 80 784 C 73 786 65 789 55 793 C 39 798 28 803 22 807 C 15 811 12 817 12 825 L 12 860 L 365 860 L 365 827 C 365 817 362 812 357 810 C 351 808 344 804 334 799 C 326 795 320 791 315 789 C 309 787 307 784 307 780 C 307 774 308 769 312 764 C 315 759 321 752 330 743 L 510 528 L 657 713 C 666 724 673 734 677 743 C 681 751 684 758 684 762 C 684 770 671 779 647 788 C 630 794 617 799 607 803 C 597 807 592 813 592 823 L 592 860 L 954 860 L 954 817 C 954 811 949 805 941 801 C 932 796 916 791 893 786 C 875 782 860 777 848 772 C 836 767 826 761 817 754 C 807 746 798 738 789 728 C 780 718 770 706 758 692 L 559 471 L 862 115 C 869 106 875 99 881 94 C 886 89 891 85 896 82 C 901 78 906 75 912 73 C 917 71 924 68 932 66 C 946 59 957 54 964 50 C 971 46 975 41 975 33 L 975 0 Z" unicode="x" />
<glyph horiz-adv-x="946" d="M 973 821 C 973 815 967 810 957 806 C 946 802 936 798 926 793 C 904 782 887 767 874 749 C 860 731 848 708 836 682 L 498 -59 C 465 -131 433 -189 403 -234 C 373 -279 344 -314 316 -339 C 288 -364 261 -381 236 -390 C 211 -398 188 -403 166 -403 C 116 -403 78 -393 54 -374 C 30 -355 18 -329 18 -297 C 18 -280 21 -265 27 -253 C 33 -241 41 -231 51 -223 C 61 -215 73 -209 87 -205 C 100 -201 114 -199 129 -199 C 143 -199 155 -201 166 -207 C 177 -212 186 -219 193 -228 C 200 -237 205 -247 209 -259 C 213 -271 215 -283 215 -295 C 230 -293 245 -286 260 -274 C 275 -262 290 -247 304 -230 C 318 -213 332 -194 345 -173 C 358 -151 370 -130 381 -109 C 391 -88 401 -68 409 -49 C 417 -29 424 -13 430 0 L 86 745 C 82 752 78 761 72 771 C 66 781 55 789 39 797 C 19 805 6 809 -2 811 C -10 812 -14 817 -14 825 L -14 860 L 367 860 L 367 823 C 367 817 363 813 356 811 C 348 809 337 806 322 803 C 301 799 287 792 280 782 C 273 772 270 764 270 756 C 270 754 271 747 274 737 C 276 727 279 719 283 713 L 516 184 L 745 717 C 748 723 750 728 751 733 C 751 737 752 742 752 748 C 752 754 746 761 736 771 C 726 781 709 789 686 797 C 672 801 662 805 654 809 C 646 813 643 819 643 827 L 643 860 L 973 860 L 973 821 Z" unicode="y" />
<glyph horiz-adv-x="844" d="M 805 -6 C 800 -5 793 -4 784 -4 C 775 -3 765 -2 754 -2 C 743 -1 732 0 721 0 C 709 0 699 0 690 0 L 27 0 L 27 23 C 27 33 30 42 36 50 C 42 58 49 67 55 76 L 623 791 L 299 791 C 265 791 238 779 218 757 C 198 735 180 698 164 647 C 162 641 158 635 152 631 C 146 627 140 625 133 625 L 80 625 L 80 868 C 91 866 110 865 138 863 C 165 861 193 860 221 860 L 786 860 L 786 817 C 786 809 785 799 783 786 C 781 773 775 761 766 750 L 225 68 L 590 68 C 608 68 623 71 636 78 C 649 85 660 95 670 108 C 679 121 687 137 695 156 C 702 174 709 195 715 219 C 719 233 724 243 731 247 C 737 251 746 254 758 254 L 805 254 L 805 -6 Z" unicode="z" />
<glyph horiz-adv-x="791" d="M 725 -403 C 656 -403 593 -392 536 -370 C 479 -348 430 -318 389 -280 C 348 -242 316 -197 294 -146 C 271 -94 260 -40 260 18 C 260 61 262 102 267 141 C 271 179 274 218 274 258 C 274 329 257 387 224 433 C 190 478 135 508 59 522 L 59 578 C 135 592 190 621 224 665 C 257 709 274 768 274 840 C 274 879 271 918 267 956 C 262 994 260 1035 260 1079 C 260 1137 271 1192 294 1244 C 316 1295 348 1340 389 1378 C 429 1416 478 1446 535 1468 C 592 1490 655 1501 725 1501 L 725 1442 C 669 1428 622 1411 584 1392 C 546 1373 516 1351 494 1326 C 471 1300 455 1271 446 1238 C 436 1205 432 1168 432 1126 C 432 1078 433 1035 437 999 C 440 962 442 926 442 891 C 442 855 435 819 421 784 C 407 749 389 716 366 686 C 343 656 316 629 286 605 C 255 581 222 563 188 551 C 222 538 255 520 286 496 C 316 472 343 445 366 415 C 389 385 407 352 421 316 C 435 280 442 244 442 207 C 442 171 440 135 437 99 C 433 62 432 19 432 -29 C 432 -71 436 -108 446 -141 C 455 -174 471 -203 494 -229 C 516 -254 546 -276 584 -295 C 622 -313 669 -330 725 -344 L 725 -403 Z" unicode="{" />
<glyph horiz-adv-x="135" d="M 135 -389 L 0 -389 L 0 1495 L 135 1495 L 135 -389 Z" unicode="|" />
<glyph horiz-adv-x="791" d="M 731 522 C 654 508 599 478 566 433 C 532 388 516 330 516 258 C 516 218 518 179 523 141 C 527 102 530 61 530 18 C 530 -40 518 -94 495 -146 C 472 -197 440 -242 399 -280 C 358 -318 309 -348 252 -370 C 195 -392 133 -403 66 -403 L 66 -344 C 122 -330 168 -313 206 -295 C 244 -276 274 -254 296 -229 C 318 -203 334 -174 344 -141 C 353 -108 358 -71 358 -29 C 358 19 356 62 353 99 C 349 135 348 171 348 207 C 348 244 354 280 368 316 C 382 352 400 385 423 415 C 446 445 473 472 504 496 C 535 520 568 538 602 551 C 568 563 535 581 504 605 C 473 629 446 656 423 686 C 400 716 382 749 368 784 C 354 819 348 855 348 891 C 348 926 349 962 353 999 C 356 1035 358 1078 358 1126 C 358 1168 353 1205 344 1238 C 334 1271 318 1300 296 1326 C 274 1351 244 1373 206 1392 C 168 1411 122 1428 66 1442 L 66 1501 C 134 1501 196 1490 253 1468 C 309 1446 358 1416 399 1378 C 440 1340 472 1295 495 1244 C 518 1192 530 1137 530 1079 C 530 1035 527 994 523 956 C 518 918 516 879 516 840 C 516 767 532 709 566 665 C 599 621 654 592 731 578 L 731 522 Z" unicode="}" />
<glyph horiz-adv-x="1569" d="M 1350 807 C 1347 759 1337 712 1319 666 C 1301 620 1278 579 1248 543 C 1218 507 1183 478 1142 456 C 1101 434 1056 424 1008 424 C 988 424 970 425 953 429 C 936 433 919 439 901 447 C 883 455 864 465 844 477 C 824 489 800 504 774 522 C 750 538 727 554 706 568 C 684 582 664 595 644 606 C 624 616 604 625 584 631 C 564 637 544 641 524 641 C 492 641 464 633 440 619 C 416 605 396 586 380 564 C 364 542 351 517 342 491 C 332 464 326 438 324 414 L 250 414 C 252 462 262 508 280 554 C 298 599 322 639 352 675 C 382 711 417 739 457 761 C 497 782 542 793 590 793 C 615 793 637 791 657 788 C 677 784 695 779 713 772 C 731 765 749 756 767 745 C 785 734 805 721 829 707 C 853 690 876 674 898 659 C 920 643 941 630 961 618 C 981 606 1000 597 1018 590 C 1036 583 1055 580 1073 580 C 1106 580 1135 587 1159 601 C 1183 615 1203 634 1219 656 C 1235 678 1248 703 1257 730 C 1266 756 1272 782 1276 807 L 1350 807 Z" unicode="~" />
<glyph horiz-adv-x="424" d="" unicode="" />
<glyph horiz-adv-x="580" d="M 412 999 C 412 983 409 968 403 954 C 397 940 388 927 378 916 C 367 905 354 896 340 890 C 325 884 309 881 291 881 C 273 881 256 884 241 890 C 225 896 212 905 201 916 C 190 927 181 940 175 954 C 169 968 166 983 166 999 C 166 1015 169 1031 175 1046 C 181 1060 190 1073 201 1084 C 212 1095 225 1104 241 1110 C 256 1116 273 1120 291 1120 C 309 1120 325 1116 340 1110 C 354 1104 367 1095 378 1084 C 388 1073 397 1060 403 1046 C 409 1031 412 1015 412 999 Z M 403 -254 C 403 -273 401 -292 397 -311 C 393 -329 387 -346 379 -361 C 370 -375 358 -387 344 -396 C 330 -405 312 -410 291 -410 C 269 -410 250 -405 236 -396 C 221 -387 209 -375 200 -361 C 191 -346 185 -329 181 -311 C 177 -292 176 -273 176 -254 C 176 -222 177 -191 181 -161 C 184 -131 188 -100 193 -66 C 198 -32 204 4 210 44 C 216 84 223 131 229 184 C 235 232 239 279 241 327 C 243 374 245 420 246 465 C 247 510 248 553 249 594 C 249 634 250 672 252 707 C 252 710 256 714 264 719 C 272 724 280 727 289 727 C 296 727 304 724 312 719 C 320 714 324 710 324 707 C 325 671 326 633 327 593 C 327 552 328 509 329 465 C 330 420 332 374 335 327 C 337 279 342 232 348 184 C 354 131 361 84 368 44 C 374 3 380 -33 385 -67 C 390 -101 394 -132 398 -162 C 401 -192 403 -222 403 -254 Z" unicode="" />
<glyph horiz-adv-x="987" d="M 915 444 C 903 424 888 403 870 382 C 851 360 829 340 804 322 C 778 304 749 288 717 274 C 684 260 648 252 610 248 L 610 -18 L 512 -18 L 512 248 C 458 250 407 262 359 284 C 311 305 268 334 232 372 C 196 409 167 454 145 507 C 123 560 113 620 113 688 C 113 744 122 798 142 850 C 161 902 188 949 223 990 C 258 1031 300 1065 349 1093 C 397 1120 451 1137 510 1143 L 510 1366 L 608 1366 L 608 1141 C 649 1139 686 1133 719 1122 C 751 1111 779 1097 802 1080 C 824 1062 842 1043 854 1022 C 866 1001 872 981 872 961 C 872 941 869 924 863 910 C 857 896 849 885 839 877 C 829 869 818 863 806 859 C 794 855 782 854 770 854 C 741 854 716 861 696 876 C 676 891 666 915 666 948 C 666 961 668 975 673 991 C 677 1006 684 1022 692 1038 C 684 1044 666 1051 640 1057 C 613 1063 579 1067 537 1067 C 496 1067 461 1058 431 1040 C 401 1022 376 997 356 966 C 336 935 321 899 311 858 C 301 817 297 773 297 727 C 297 679 302 633 313 587 C 323 541 340 499 363 463 C 385 426 414 396 450 374 C 485 351 528 340 578 340 C 612 340 642 344 670 353 C 698 362 723 374 746 389 C 768 403 789 420 809 439 C 829 458 848 478 866 498 L 915 444 Z" unicode="" />
<glyph horiz-adv-x="1151" d="M 1184 182 C 1166 158 1148 134 1129 110 C 1110 86 1088 64 1063 45 C 1038 25 1010 10 978 -2 C 946 -14 910 -20 868 -20 C 827 -20 790 -14 758 -2 C 726 9 697 24 671 42 C 645 60 621 81 600 103 C 578 125 559 146 541 168 C 526 141 510 116 492 93 C 474 70 453 50 431 34 C 408 17 383 4 355 -5 C 327 -15 296 -20 262 -20 C 236 -20 211 -16 186 -8 C 160 0 138 11 118 27 C 98 43 81 62 69 86 C 57 109 51 136 51 168 C 51 204 57 235 71 262 C 84 289 102 311 124 329 C 146 346 172 359 201 368 C 229 376 259 381 289 381 C 325 381 360 376 394 366 C 427 356 459 343 489 328 C 487 364 481 398 473 430 C 464 462 454 491 442 517 C 430 543 419 567 407 587 C 395 607 385 624 377 637 C 373 642 370 647 366 652 C 362 657 359 663 356 670 L 100 670 L 100 745 L 317 745 C 301 782 287 822 275 866 C 263 909 258 958 258 1012 C 258 1064 269 1114 291 1163 C 313 1212 344 1256 385 1295 C 425 1333 475 1364 533 1388 C 591 1411 657 1423 729 1423 C 779 1423 825 1416 868 1404 C 911 1392 948 1375 979 1354 C 1010 1333 1034 1308 1052 1280 C 1070 1251 1079 1220 1079 1188 C 1079 1164 1076 1145 1070 1130 C 1064 1114 1056 1102 1046 1093 C 1036 1083 1025 1077 1013 1073 C 1001 1069 989 1067 977 1067 C 963 1067 949 1068 936 1072 C 922 1075 910 1080 900 1088 C 889 1095 880 1105 874 1118 C 867 1130 864 1146 864 1165 C 864 1174 865 1183 867 1191 C 869 1199 872 1208 878 1217 C 884 1225 891 1234 901 1244 C 911 1253 924 1263 940 1274 C 906 1302 873 1321 840 1330 C 806 1338 774 1343 743 1343 C 699 1343 659 1337 623 1326 C 586 1314 554 1297 527 1273 C 499 1249 478 1220 463 1184 C 447 1148 440 1105 440 1057 C 440 1033 443 1008 449 982 C 455 956 462 930 471 904 C 480 878 490 851 502 824 C 513 797 524 771 535 745 L 924 745 L 924 670 L 563 670 C 575 636 586 604 595 574 C 603 544 608 513 608 481 C 608 448 606 414 604 378 C 602 342 595 305 584 268 C 604 253 627 238 651 222 C 675 206 701 191 729 178 C 756 165 785 154 815 146 C 845 137 876 133 909 133 C 926 133 945 134 966 138 C 986 142 1007 147 1027 155 C 1047 162 1066 172 1084 184 C 1102 196 1117 210 1130 227 L 1184 182 Z M 473 229 C 448 249 420 267 390 282 C 360 297 325 305 285 305 C 262 305 241 301 223 294 C 205 286 189 276 176 264 C 163 252 153 238 146 222 C 138 206 135 189 135 172 C 135 154 137 138 142 123 C 146 108 154 95 165 84 C 175 72 189 63 206 57 C 222 50 242 47 266 47 C 288 47 309 51 331 59 C 353 67 373 79 392 95 C 410 111 427 130 441 152 C 455 174 466 200 473 229 Z" unicode="" />
<glyph horiz-adv-x="1137" d="M 1114 231 C 1094 190 1069 154 1037 123 C 1005 91 969 65 931 44 C 892 23 852 7 810 -3 C 768 -14 729 -20 692 -20 C 616 -20 550 -6 492 21 C 434 48 384 86 343 136 C 302 185 269 244 245 313 C 220 381 203 457 195 541 L 45 541 L 45 616 L 186 616 L 186 664 C 186 684 186 704 187 723 C 188 742 190 763 193 786 L 45 786 L 45 862 L 205 862 C 219 946 241 1023 271 1092 C 301 1161 340 1220 386 1269 C 432 1318 486 1356 548 1383 C 609 1409 678 1423 754 1423 C 801 1423 844 1417 883 1407 C 922 1397 955 1383 983 1365 C 1011 1347 1032 1327 1048 1303 C 1063 1279 1071 1253 1071 1227 C 1071 1193 1061 1165 1043 1145 C 1024 1124 999 1114 969 1114 C 931 1114 904 1123 889 1142 C 874 1161 865 1187 862 1221 L 854 1309 C 851 1310 846 1312 839 1316 C 832 1319 823 1322 812 1326 C 800 1329 787 1332 772 1335 C 757 1337 741 1339 723 1339 C 675 1339 631 1327 591 1304 C 551 1281 517 1249 488 1207 C 458 1165 434 1115 414 1057 C 394 998 381 933 373 862 L 836 862 L 836 786 L 367 786 C 365 768 365 753 365 741 C 365 728 365 715 365 702 L 365 616 L 772 616 L 772 541 L 371 541 C 376 473 387 412 403 357 C 419 301 442 254 470 214 C 498 174 533 144 574 122 C 615 100 663 90 719 90 C 753 90 785 93 815 99 C 845 105 875 115 903 130 C 931 144 957 164 983 189 C 1009 214 1034 245 1059 283 L 1114 231 Z" unicode="" />
<glyph horiz-adv-x="1294" d="M 1290 1358 C 1290 1347 1287 1340 1281 1337 C 1275 1333 1263 1328 1247 1321 C 1233 1315 1222 1309 1212 1305 C 1202 1300 1192 1294 1183 1288 C 1173 1282 1164 1273 1154 1263 C 1144 1252 1134 1237 1122 1219 L 852 805 L 1110 805 L 1110 729 L 797 729 L 743 639 L 743 580 L 1110 580 L 1110 502 L 745 502 L 745 145 C 745 129 749 116 758 108 C 767 100 783 92 807 84 C 818 80 827 77 835 75 C 842 73 848 72 852 71 C 856 69 859 67 861 64 C 863 61 864 57 864 51 L 864 0 L 449 0 L 449 51 C 449 57 450 61 452 64 C 454 67 457 69 462 71 C 466 73 472 74 480 76 C 487 78 496 80 506 84 C 520 88 531 92 540 96 C 549 99 556 103 561 107 C 566 111 570 115 572 121 C 574 127 575 135 575 145 L 575 502 L 193 502 L 193 580 L 578 580 L 578 633 L 514 729 L 193 729 L 193 805 L 459 805 L 168 1239 C 152 1261 138 1278 124 1290 C 110 1302 92 1311 72 1317 C 66 1318 59 1319 52 1321 C 45 1323 39 1325 33 1327 C 27 1329 22 1332 18 1335 C 14 1338 12 1342 12 1346 L 12 1401 L 432 1401 L 432 1366 C 432 1354 427 1345 418 1339 C 409 1333 400 1328 391 1325 C 374 1319 360 1314 350 1308 C 339 1302 334 1295 334 1288 C 334 1280 337 1271 343 1261 C 349 1251 358 1238 369 1223 L 698 727 L 1026 1241 C 1032 1250 1037 1258 1041 1266 C 1045 1273 1047 1280 1047 1288 C 1047 1295 1042 1301 1033 1305 C 1023 1309 1009 1315 991 1323 C 985 1325 979 1327 973 1329 C 967 1331 961 1333 955 1336 C 949 1339 944 1343 940 1347 C 936 1351 934 1357 934 1364 L 934 1401 L 1290 1401 L 1290 1358 Z" unicode="" />
<glyph horiz-adv-x="1178" d="M 1053 571 C 1053 517 1035 462 999 407 C 963 352 910 302 838 256 C 868 236 892 217 911 197 C 930 177 945 156 955 136 C 965 115 973 94 977 72 C 981 50 983 28 983 6 C 983 -36 972 -76 950 -115 C 928 -154 898 -188 860 -218 C 822 -248 779 -272 729 -290 C 679 -308 627 -317 573 -317 C 507 -317 449 -309 399 -294 C 349 -278 306 -259 272 -236 C 237 -212 211 -186 193 -158 C 175 -129 166 -101 166 -74 C 166 -50 169 -30 176 -14 C 182 2 191 14 201 24 C 211 33 223 39 235 43 C 247 47 260 49 272 49 C 286 49 299 47 313 44 C 327 40 339 35 349 27 C 359 19 368 9 375 -3 C 381 -16 385 -32 385 -51 C 385 -59 384 -66 383 -74 C 382 -82 379 -90 375 -98 C 371 -106 364 -114 356 -122 C 348 -130 336 -138 322 -147 C 336 -158 350 -169 366 -179 C 381 -189 398 -199 418 -207 C 438 -215 460 -221 486 -226 C 511 -230 541 -233 575 -233 C 613 -233 647 -227 677 -215 C 707 -203 732 -189 753 -172 C 774 -154 790 -135 802 -115 C 813 -94 819 -75 819 -57 C 819 -41 818 -25 818 -11 C 817 2 814 17 809 31 C 804 45 795 59 783 73 C 771 87 753 103 730 119 C 706 135 676 153 640 173 C 603 192 558 214 504 238 C 442 264 387 291 341 317 C 294 343 255 371 224 400 C 193 429 170 460 154 493 C 138 526 131 563 131 604 C 131 627 134 652 142 678 C 150 704 162 730 180 757 C 197 784 219 811 247 838 C 275 865 308 892 348 918 C 316 939 291 960 272 980 C 252 1000 237 1019 226 1039 C 215 1059 208 1079 204 1099 C 200 1119 199 1141 199 1165 C 199 1207 209 1248 231 1288 C 252 1328 281 1363 319 1394 C 356 1424 400 1449 451 1467 C 501 1485 556 1495 614 1495 C 678 1495 734 1487 784 1472 C 833 1456 875 1437 909 1413 C 943 1389 968 1362 986 1332 C 1003 1302 1012 1273 1012 1245 C 1012 1222 1008 1203 1002 1188 C 996 1172 988 1160 978 1150 C 968 1140 957 1134 945 1130 C 933 1126 921 1124 909 1124 C 895 1124 882 1125 868 1129 C 854 1132 842 1138 831 1146 C 819 1154 810 1164 803 1178 C 796 1191 793 1207 793 1227 C 793 1233 793 1240 795 1248 C 796 1256 799 1264 803 1273 C 807 1281 814 1290 823 1298 C 831 1306 843 1315 858 1323 C 840 1333 823 1344 807 1354 C 790 1364 772 1373 753 1381 C 734 1389 713 1395 690 1400 C 667 1404 640 1407 610 1407 C 572 1407 538 1401 507 1389 C 476 1377 450 1362 428 1344 C 406 1326 388 1307 376 1287 C 364 1267 358 1248 358 1231 C 358 1205 359 1181 363 1160 C 367 1139 378 1118 398 1097 C 418 1076 448 1053 490 1028 C 532 1003 591 974 668 940 C 734 910 791 881 839 855 C 887 828 927 800 959 772 C 991 744 1014 713 1030 681 C 1045 648 1053 611 1053 571 Z M 899 485 C 899 511 896 535 890 557 C 884 579 874 600 861 620 C 847 640 830 658 808 676 C 786 694 760 711 729 727 C 697 743 665 759 635 774 C 605 788 576 802 550 815 C 523 827 499 839 477 850 C 455 860 436 870 422 879 C 402 865 384 851 368 835 C 351 819 336 803 324 787 C 311 771 301 754 294 738 C 286 721 283 705 283 690 C 283 662 286 637 293 614 C 300 591 311 570 325 550 C 339 530 358 512 380 495 C 402 478 429 462 459 446 C 494 427 525 411 551 398 C 577 384 601 372 624 361 C 646 350 669 340 691 330 C 713 320 737 309 764 297 C 782 308 800 321 816 336 C 832 351 847 367 859 384 C 871 400 881 417 888 435 C 895 452 899 469 899 485 Z" unicode="" />
<glyph horiz-adv-x="856" d="M 741 1167 C 741 1153 738 1140 733 1128 C 727 1116 720 1105 710 1096 C 700 1086 689 1079 677 1073 C 664 1067 651 1065 637 1065 C 623 1065 609 1067 596 1073 C 583 1079 572 1086 563 1096 C 553 1105 546 1116 540 1128 C 534 1140 532 1153 532 1167 C 532 1180 534 1193 540 1205 C 546 1217 553 1228 563 1238 C 572 1248 583 1255 596 1261 C 609 1267 623 1270 637 1270 C 651 1270 664 1267 677 1261 C 689 1255 700 1248 710 1238 C 720 1228 727 1217 733 1205 C 738 1193 741 1180 741 1167 Z M 324 1167 C 324 1153 321 1140 315 1128 C 309 1116 302 1105 293 1096 C 283 1086 272 1079 259 1073 C 246 1067 233 1065 219 1065 C 205 1065 191 1067 179 1073 C 166 1079 155 1086 145 1096 C 135 1105 128 1116 123 1128 C 117 1140 115 1153 115 1167 C 115 1180 117 1193 123 1205 C 128 1217 135 1228 145 1238 C 155 1248 166 1255 179 1261 C 191 1267 205 1270 219 1270 C 233 1270 246 1267 259 1261 C 272 1255 283 1248 293 1238 C 302 1228 309 1217 315 1205 C 321 1193 324 1180 324 1167 Z" unicode="" />
<glyph horiz-adv-x="1696" d="M 1630 729 C 1630 659 1620 592 1602 528 C 1584 464 1558 404 1524 349 C 1490 293 1450 243 1403 198 C 1355 152 1303 113 1245 81 C 1187 49 1125 24 1058 6 C 990 -11 920 -20 848 -20 C 774 -20 704 -11 637 6 C 570 24 508 49 450 81 C 392 113 340 152 293 198 C 245 243 205 293 171 349 C 137 404 111 464 93 528 C 75 592 66 659 66 729 C 66 798 75 865 93 929 C 111 993 137 1053 171 1109 C 205 1165 245 1215 293 1261 C 340 1307 392 1346 450 1379 C 508 1411 570 1436 638 1454 C 705 1472 775 1481 848 1481 C 920 1481 990 1472 1058 1454 C 1125 1436 1187 1411 1245 1379 C 1303 1346 1355 1307 1403 1261 C 1450 1215 1490 1165 1524 1109 C 1558 1053 1584 993 1602 929 C 1620 865 1630 798 1630 729 Z M 1542 729 C 1542 791 1533 850 1517 908 C 1501 965 1478 1019 1448 1069 C 1418 1119 1383 1164 1341 1206 C 1299 1247 1252 1282 1201 1312 C 1149 1341 1094 1364 1034 1380 C 974 1396 912 1405 848 1405 C 783 1405 721 1396 662 1380 C 602 1364 547 1341 496 1312 C 445 1282 399 1247 357 1206 C 315 1164 279 1119 249 1069 C 219 1019 196 965 180 908 C 164 850 156 791 156 729 C 156 636 173 549 209 467 C 245 385 294 313 356 252 C 418 191 492 143 576 108 C 660 72 751 55 848 55 C 945 55 1036 72 1120 108 C 1204 143 1278 191 1341 252 C 1403 313 1452 385 1488 467 C 1524 549 1542 636 1542 729 Z M 1184 483 C 1175 467 1161 448 1143 428 C 1125 408 1102 389 1075 371 C 1047 353 1016 337 980 325 C 944 313 905 307 862 307 C 796 307 737 318 687 341 C 637 363 595 394 561 432 C 527 470 502 514 485 564 C 467 614 459 666 459 721 C 459 791 471 852 495 904 C 519 956 550 1000 588 1035 C 626 1070 668 1096 714 1114 C 760 1132 806 1141 852 1141 C 889 1141 923 1136 954 1126 C 985 1116 1017 1101 1051 1083 C 1058 1081 1064 1079 1070 1077 C 1075 1075 1081 1077 1087 1081 C 1094 1086 1099 1090 1103 1092 C 1106 1094 1110 1096 1114 1096 L 1143 1096 L 1143 889 L 1102 889 C 1096 889 1091 890 1088 893 C 1085 895 1083 899 1081 903 C 1073 927 1063 951 1050 973 C 1037 995 1022 1014 1004 1031 C 986 1047 967 1060 945 1070 C 923 1080 899 1085 874 1085 C 844 1085 814 1078 783 1065 C 752 1052 724 1031 698 1003 C 672 974 651 937 635 892 C 618 846 610 791 610 727 C 610 669 616 618 630 574 C 643 530 661 494 685 464 C 708 434 735 412 767 397 C 798 382 832 375 868 375 C 906 375 941 380 972 392 C 1003 403 1030 416 1054 432 C 1077 448 1096 464 1111 480 C 1126 496 1137 510 1143 520 L 1184 483 Z" unicode="" />
<glyph horiz-adv-x="928" d="M 850 739 C 831 712 810 692 787 679 C 764 665 742 659 721 659 C 694 659 668 667 644 683 C 619 699 598 726 580 764 C 542 724 504 696 468 679 C 431 661 393 653 354 653 C 321 653 290 657 260 667 C 230 676 203 690 181 708 C 158 726 140 748 126 775 C 112 801 106 832 106 868 C 106 904 115 938 133 969 C 151 1000 178 1027 216 1050 C 253 1072 301 1090 359 1103 C 417 1116 487 1123 567 1124 C 563 1281 512 1360 416 1360 C 403 1360 391 1359 379 1357 C 367 1355 352 1354 336 1352 C 335 1330 333 1310 331 1292 C 329 1274 325 1258 319 1246 C 313 1233 304 1223 293 1216 C 281 1209 266 1206 248 1206 C 218 1206 197 1212 185 1225 C 172 1237 166 1256 166 1282 C 166 1298 171 1314 182 1330 C 192 1346 208 1361 229 1375 C 250 1389 276 1400 307 1408 C 338 1416 374 1421 414 1421 C 470 1421 517 1413 555 1399 C 593 1385 623 1365 646 1339 C 669 1313 686 1282 696 1246 C 706 1210 711 1170 711 1128 L 711 819 C 711 798 716 781 726 769 C 736 756 751 750 772 750 C 779 750 787 751 795 755 C 803 758 811 762 821 768 L 850 739 Z M 567 874 L 567 1067 C 458 1065 378 1047 326 1014 C 274 981 248 937 248 883 C 248 833 261 795 289 770 C 316 745 351 733 395 733 C 417 733 438 736 459 744 C 479 752 498 762 514 775 C 530 788 542 803 552 820 C 562 837 567 855 567 874 Z" unicode="" />
<glyph horiz-adv-x="940" d="M 862 102 L 766 102 L 494 393 C 485 402 478 412 472 423 C 466 433 463 445 463 459 C 463 472 466 484 472 494 C 478 504 485 514 494 524 L 766 815 L 862 815 L 625 459 L 862 102 Z M 492 102 L 395 102 L 123 393 C 114 402 107 412 101 423 C 95 433 92 445 92 459 C 92 472 95 484 101 494 C 107 504 114 514 123 524 L 395 815 L 492 815 L 256 459 L 492 102 Z" unicode="" />
<glyph horiz-adv-x="1569" d="M 1298 92 L 1184 92 L 1184 567 L 250 567 L 250 674 L 1298 674 L 1298 92 Z" unicode="" />
<glyph horiz-adv-x="662" d="M 571 391 L 90 391 L 90 524 L 571 524 L 571 391 Z" unicode="" />
<glyph horiz-adv-x="1042" d="M 1010 1022 C 1010 956 997 895 971 838 C 945 781 909 731 865 689 C 821 646 769 612 709 588 C 649 563 586 551 520 551 C 453 551 390 563 331 588 C 272 612 220 646 176 689 C 132 731 97 781 71 838 C 45 895 33 956 33 1022 C 33 1086 45 1147 71 1205 C 97 1263 132 1313 176 1356 C 220 1398 272 1432 331 1457 C 390 1482 453 1495 520 1495 C 586 1495 649 1482 709 1457 C 769 1432 821 1398 865 1356 C 909 1313 945 1263 971 1205 C 997 1147 1010 1086 1010 1022 Z M 936 1022 C 936 1078 925 1130 903 1179 C 881 1228 852 1271 815 1308 C 777 1344 733 1373 683 1395 C 632 1416 578 1427 520 1427 C 462 1427 408 1416 358 1395 C 308 1373 264 1344 227 1308 C 189 1271 160 1228 138 1179 C 116 1130 106 1078 106 1022 C 106 966 116 913 138 864 C 160 815 189 772 227 736 C 264 700 308 671 358 650 C 408 628 462 618 520 618 C 578 618 632 628 683 650 C 733 671 777 700 815 736 C 852 772 881 815 903 864 C 925 913 936 966 936 1022 Z M 739 1126 C 739 1092 730 1062 713 1036 C 696 1010 669 990 631 975 L 735 764 L 633 764 L 537 965 L 436 965 L 436 764 L 340 764 L 340 1280 L 555 1280 C 577 1280 600 1276 622 1270 C 644 1263 664 1253 681 1240 C 698 1227 712 1211 723 1192 C 733 1173 739 1151 739 1126 Z M 633 1124 C 633 1136 630 1147 625 1157 C 620 1166 614 1173 606 1179 C 598 1185 588 1189 578 1192 C 568 1194 557 1196 547 1196 L 436 1196 L 436 1051 L 545 1051 C 552 1051 561 1052 571 1055 C 581 1057 591 1061 600 1067 C 609 1073 617 1080 623 1090 C 629 1099 633 1110 633 1124 Z" unicode="" />
<glyph horiz-adv-x="856" d="M 731 1108 L 125 1108 L 125 1196 L 731 1196 L 731 1108 Z" unicode="" />
<glyph horiz-adv-x="664" d="M 606 1231 C 606 1194 598 1160 584 1128 C 569 1096 549 1068 524 1044 C 499 1020 470 1001 437 987 C 404 973 369 967 332 967 C 294 967 259 973 226 987 C 192 1001 163 1020 138 1044 C 113 1068 93 1096 79 1128 C 64 1160 57 1194 57 1231 C 57 1267 64 1301 79 1333 C 93 1365 113 1393 138 1417 C 163 1441 192 1460 226 1474 C 259 1488 294 1495 332 1495 C 369 1495 404 1488 437 1474 C 470 1460 499 1441 524 1417 C 549 1393 569 1365 584 1333 C 598 1301 606 1267 606 1231 Z M 494 1231 C 494 1253 490 1275 482 1295 C 474 1315 463 1333 449 1349 C 435 1365 418 1377 398 1387 C 378 1396 356 1401 332 1401 C 307 1401 285 1396 265 1387 C 245 1377 228 1365 214 1349 C 200 1333 189 1315 181 1295 C 173 1275 170 1253 170 1231 C 170 1208 173 1186 181 1166 C 189 1146 200 1128 214 1112 C 228 1096 245 1084 265 1075 C 285 1065 307 1061 332 1061 C 356 1061 378 1065 398 1075 C 418 1084 435 1096 449 1112 C 463 1128 474 1146 482 1166 C 490 1186 494 1208 494 1231 Z" unicode="" />
<glyph horiz-adv-x="1569" d="M 1335 694 L 842 694 L 842 240 L 727 240 L 727 694 L 233 694 L 233 801 L 727 801 L 727 1255 L 842 1255 L 842 801 L 1335 801 L 1335 694 Z M 1335 0 L 233 0 L 233 106 L 1335 106 L 1335 0 Z" unicode="" />
<glyph horiz-adv-x="918" d="M 766 852 L 762 649 L 150 649 L 150 735 C 164 754 181 776 202 801 C 223 825 246 851 272 878 C 297 904 324 932 353 960 C 381 988 410 1015 440 1042 C 464 1064 487 1085 507 1105 C 527 1125 545 1145 560 1165 C 574 1185 586 1205 594 1226 C 602 1246 606 1268 606 1292 C 606 1334 590 1366 560 1390 C 530 1413 488 1425 434 1425 C 419 1425 404 1423 390 1420 C 375 1416 361 1412 349 1406 C 337 1400 326 1393 317 1385 C 308 1377 302 1370 299 1362 C 311 1351 321 1339 329 1327 C 336 1314 340 1300 340 1286 C 340 1263 332 1245 317 1232 C 302 1218 283 1212 260 1212 C 226 1212 201 1220 187 1237 C 173 1254 166 1277 166 1305 C 166 1328 173 1351 189 1375 C 205 1399 226 1420 254 1439 C 282 1458 314 1473 351 1485 C 388 1497 428 1503 471 1503 C 516 1503 557 1497 593 1487 C 629 1476 660 1461 686 1442 C 712 1422 731 1399 745 1372 C 759 1345 766 1316 766 1284 C 766 1244 755 1207 735 1173 C 715 1139 690 1107 660 1078 C 630 1049 599 1023 566 1000 C 533 976 504 956 479 940 C 463 929 446 917 429 903 C 411 889 394 875 376 860 C 358 845 342 830 326 814 C 310 798 295 784 283 770 L 600 770 C 610 770 619 770 627 772 C 635 773 643 776 650 780 C 656 784 662 790 667 798 C 672 806 676 817 680 831 C 683 843 688 850 696 851 C 703 851 711 852 721 852 L 766 852 Z" unicode="" />
<glyph horiz-adv-x="926" d="M 780 903 C 780 859 769 821 747 788 C 725 754 697 726 663 704 C 629 682 590 665 548 654 C 505 642 462 637 420 637 C 378 637 340 641 305 650 C 270 658 240 670 214 685 C 188 700 167 718 153 739 C 138 759 131 781 131 805 C 131 815 132 825 136 835 C 140 845 145 855 153 863 C 161 871 170 878 182 884 C 193 890 207 893 223 893 C 239 893 252 890 264 886 C 275 881 284 875 292 868 C 299 861 304 853 308 845 C 311 837 313 829 313 823 C 313 807 310 794 305 782 C 299 770 293 760 285 750 C 295 739 311 730 334 724 C 356 718 382 715 410 715 C 446 715 477 720 503 731 C 529 741 551 755 569 773 C 586 790 599 810 608 832 C 616 854 621 876 621 899 C 621 930 616 956 606 978 C 596 999 579 1016 557 1030 C 535 1043 506 1052 470 1058 C 434 1064 390 1067 338 1067 L 338 1141 C 390 1143 432 1148 464 1156 C 496 1164 522 1175 540 1189 C 558 1203 571 1221 578 1243 C 584 1264 588 1289 588 1317 C 588 1330 585 1343 579 1356 C 573 1369 563 1381 551 1391 C 539 1401 523 1409 504 1415 C 484 1421 462 1425 436 1425 C 408 1425 384 1422 365 1416 C 346 1410 330 1404 317 1397 C 325 1387 332 1377 336 1367 C 340 1356 342 1343 342 1329 C 342 1308 334 1290 319 1276 C 303 1262 283 1255 258 1255 C 233 1255 212 1262 195 1277 C 178 1291 170 1313 170 1341 C 170 1363 178 1384 196 1404 C 213 1424 235 1441 262 1456 C 289 1470 319 1482 353 1490 C 387 1498 420 1503 453 1503 C 495 1503 535 1498 571 1488 C 607 1478 639 1465 666 1448 C 692 1431 713 1411 728 1388 C 742 1364 750 1339 750 1311 C 750 1288 745 1267 736 1248 C 726 1229 713 1212 697 1196 C 680 1180 660 1165 638 1152 C 615 1138 591 1126 565 1116 C 595 1106 623 1095 649 1083 C 675 1071 697 1056 717 1039 C 736 1022 751 1002 763 980 C 774 958 780 932 780 903 Z" unicode="" />
<glyph horiz-adv-x="856" d="M 664 1284 C 664 1268 658 1252 646 1236 C 634 1220 614 1203 584 1186 L 254 1004 L 217 1028 L 477 1305 C 499 1328 519 1343 537 1351 C 555 1358 572 1362 590 1362 C 613 1362 631 1354 644 1339 C 657 1323 664 1305 664 1284 Z" unicode="" />
<glyph horiz-adv-x="1280" d="M 1126 -287 L 862 -287 L 862 1413 L 709 1413 L 709 -287 L 444 -287 L 444 -246 C 444 -240 444 -236 446 -233 C 447 -229 450 -226 454 -224 C 458 -221 463 -218 470 -216 C 477 -213 486 -209 498 -205 C 512 -199 523 -193 532 -189 C 540 -184 547 -179 552 -173 C 557 -167 560 -161 562 -155 C 564 -148 565 -140 565 -131 L 565 645 C 544 645 517 645 485 647 C 453 648 418 652 382 660 C 346 668 309 680 272 698 C 235 715 202 739 172 771 C 142 803 118 843 100 893 C 81 942 72 1003 72 1075 C 72 1137 81 1194 100 1246 C 118 1298 148 1342 188 1379 C 228 1416 280 1445 343 1465 C 406 1485 482 1495 571 1495 L 1126 1495 L 1126 1454 C 1126 1448 1125 1444 1124 1441 C 1122 1438 1120 1435 1116 1433 C 1112 1430 1107 1427 1100 1424 C 1093 1421 1084 1417 1073 1413 C 1059 1407 1047 1403 1039 1399 C 1030 1395 1023 1391 1019 1386 C 1014 1381 1011 1375 1010 1368 C 1008 1361 1008 1351 1008 1339 L 1008 -131 C 1008 -140 1008 -148 1010 -155 C 1012 -161 1015 -167 1020 -173 C 1025 -179 1032 -184 1040 -189 C 1048 -193 1059 -199 1073 -205 C 1084 -209 1093 -213 1100 -216 C 1107 -218 1112 -221 1116 -224 C 1120 -226 1122 -229 1124 -233 C 1125 -236 1126 -240 1126 -246 L 1126 -287 Z M 565 721 L 565 1409 C 507 1409 461 1399 425 1379 C 389 1359 362 1334 342 1303 C 322 1272 308 1237 301 1198 C 294 1158 291 1119 291 1081 C 291 1033 295 988 305 944 C 314 900 329 862 351 829 C 372 796 400 770 435 750 C 470 730 513 721 565 721 Z" unicode="" />
<glyph horiz-adv-x="451" d="M 350 705 C 350 689 346 673 340 659 C 334 645 325 632 314 621 C 303 610 290 601 275 595 C 259 589 243 586 225 586 C 208 586 192 589 178 595 C 163 601 150 610 140 621 C 129 632 121 645 115 659 C 109 673 106 689 106 705 C 106 721 109 736 115 750 C 121 764 129 776 140 786 C 150 796 163 805 178 811 C 192 817 208 821 225 821 C 243 821 259 817 275 811 C 290 805 303 796 314 786 C 325 776 334 764 340 750 C 346 736 350 721 350 705 Z" unicode="" />
<glyph horiz-adv-x="856" d="M 672 -250 C 672 -270 667 -290 657 -310 C 647 -330 631 -347 611 -363 C 590 -378 564 -390 532 -400 C 500 -409 462 -414 418 -414 C 398 -414 379 -411 359 -405 C 339 -399 319 -391 300 -381 C 281 -371 263 -361 246 -349 C 228 -337 213 -326 199 -315 L 233 -260 C 245 -268 258 -276 272 -285 C 286 -293 300 -301 315 -308 C 330 -315 346 -321 362 -325 C 378 -329 396 -332 414 -332 C 436 -332 454 -329 468 -325 C 482 -320 493 -314 501 -306 C 509 -298 514 -290 517 -281 C 520 -271 522 -262 522 -252 C 522 -241 520 -231 516 -221 C 512 -211 506 -202 498 -195 C 490 -187 479 -181 465 -177 C 451 -172 434 -170 414 -170 C 407 -170 400 -170 393 -170 C 385 -170 378 -170 371 -172 L 449 0 L 514 0 L 471 -96 C 533 -96 582 -108 618 -132 C 654 -156 672 -195 672 -250 Z" unicode="" />
<glyph horiz-adv-x="698" d="M 547 645 L 145 645 L 145 686 C 145 695 147 702 151 708 C 155 713 161 717 168 720 C 175 723 183 725 193 727 C 203 729 213 731 223 733 C 235 735 244 738 251 740 C 257 742 262 745 266 749 C 269 752 271 756 272 760 C 273 764 274 770 274 778 L 274 1348 L 131 1348 L 131 1411 L 365 1491 L 422 1491 L 422 778 C 422 766 425 756 432 749 C 438 741 452 736 473 733 C 483 731 492 730 501 728 C 509 726 517 723 524 720 C 531 717 537 713 541 708 C 545 702 547 696 547 688 L 547 645 Z" unicode="" />
<glyph horiz-adv-x="928" d="M 831 1036 C 831 980 822 929 804 882 C 786 835 760 794 728 760 C 696 726 657 699 612 680 C 566 660 517 651 463 651 C 409 651 359 660 315 679 C 270 698 232 725 200 759 C 168 793 143 833 125 881 C 107 928 98 980 98 1036 C 98 1091 107 1142 125 1189 C 143 1236 168 1277 200 1311 C 232 1345 270 1372 315 1392 C 359 1411 409 1421 463 1421 C 517 1421 566 1411 612 1392 C 657 1372 696 1345 728 1311 C 760 1277 786 1236 804 1189 C 822 1142 831 1091 831 1036 Z M 678 1036 C 678 1084 673 1127 664 1165 C 655 1203 642 1236 624 1263 C 606 1290 583 1311 557 1326 C 530 1340 499 1348 463 1348 C 427 1348 396 1340 370 1326 C 344 1311 322 1290 304 1263 C 286 1236 273 1203 265 1165 C 256 1127 252 1084 252 1036 C 252 988 256 944 265 906 C 273 868 286 835 304 808 C 322 781 344 760 370 746 C 396 732 427 725 463 725 C 499 725 530 732 557 746 C 583 760 606 781 624 808 C 642 835 655 868 664 906 C 673 944 678 988 678 1036 Z" unicode="" />
<glyph horiz-adv-x="940" d="M 848 459 C 848 445 845 433 839 423 C 833 412 825 402 817 393 L 545 102 L 449 102 L 684 459 L 449 815 L 545 815 L 817 524 C 825 514 833 504 839 494 C 845 484 848 472 848 459 Z M 477 459 C 477 445 474 433 468 423 C 462 412 454 402 446 393 L 174 102 L 78 102 L 315 459 L 78 815 L 174 815 L 446 524 C 454 514 462 504 468 494 C 474 484 477 472 477 459 Z" unicode="" />
<glyph horiz-adv-x="1597" d="M 1515 221 L 1372 221 L 1372 98 C 1372 90 1375 84 1381 80 C 1387 76 1394 74 1400 72 C 1410 67 1419 63 1427 60 C 1435 56 1439 51 1439 43 L 1439 0 L 1155 0 L 1155 43 C 1155 52 1159 59 1167 63 C 1175 67 1185 70 1196 74 C 1203 76 1210 78 1218 81 C 1226 84 1230 90 1230 98 L 1230 221 L 806 221 L 806 295 L 1265 854 L 1372 854 L 1372 313 L 1515 313 L 1515 221 Z M 1228 313 L 1228 680 L 929 313 L 1228 313 Z M 1296 1501 L 448 -20 L 339 -20 L 1187 1501 L 1296 1501 Z M 592 645 L 190 645 L 190 686 C 190 695 192 702 196 708 C 200 713 206 717 213 720 C 220 723 228 725 238 727 C 248 729 258 731 268 733 C 280 735 289 738 296 740 C 302 742 307 745 311 749 C 314 752 316 756 317 760 C 318 764 319 770 319 778 L 319 1348 L 176 1348 L 176 1411 L 410 1491 L 467 1491 L 467 778 C 467 766 470 756 477 749 C 483 741 497 736 518 733 C 528 731 537 730 546 728 C 554 726 562 723 569 720 C 576 717 582 713 586 708 C 590 702 592 696 592 688 L 592 645 Z" unicode="" />
<glyph horiz-adv-x="1640" d="M 1568 203 L 1564 0 L 952 0 L 952 86 C 966 105 983 127 1004 152 C 1025 176 1048 202 1074 229 C 1099 255 1126 283 1155 311 C 1183 339 1212 366 1242 393 C 1266 415 1289 436 1309 456 C 1329 476 1347 496 1362 516 C 1376 536 1388 556 1396 577 C 1404 597 1408 619 1408 643 C 1408 685 1392 717 1362 741 C 1332 764 1290 776 1236 776 C 1221 776 1206 774 1192 771 C 1177 767 1163 763 1151 757 C 1139 751 1128 744 1119 736 C 1110 728 1104 721 1101 713 C 1113 702 1123 690 1131 678 C 1138 665 1142 651 1142 637 C 1142 614 1134 596 1119 583 C 1104 569 1085 563 1062 563 C 1028 563 1003 571 989 588 C 975 605 968 628 968 656 C 968 679 975 702 991 726 C 1007 750 1028 771 1056 790 C 1084 809 1116 824 1153 836 C 1190 848 1230 854 1273 854 C 1318 854 1359 848 1395 838 C 1431 827 1462 812 1488 793 C 1514 773 1533 750 1547 723 C 1561 696 1568 667 1568 635 C 1568 595 1557 558 1537 524 C 1517 490 1492 458 1462 429 C 1432 400 1401 374 1368 351 C 1335 327 1306 307 1281 291 C 1265 280 1248 268 1231 254 C 1213 240 1196 226 1178 211 C 1160 196 1144 181 1128 165 C 1112 149 1097 135 1085 121 L 1402 121 C 1412 121 1421 121 1429 123 C 1437 124 1445 127 1452 131 C 1458 135 1464 141 1469 149 C 1474 157 1478 168 1482 182 C 1485 194 1490 201 1498 202 C 1505 202 1513 203 1523 203 L 1568 203 Z M 1290 1501 L 442 -20 L 333 -20 L 1181 1501 L 1290 1501 Z M 585 645 L 183 645 L 183 686 C 183 695 185 702 189 708 C 193 713 199 717 206 720 C 213 723 221 725 231 727 C 241 729 251 731 261 733 C 273 735 282 738 289 740 C 295 742 300 745 304 749 C 307 752 309 756 310 760 C 311 764 312 770 312 778 L 312 1348 L 169 1348 L 169 1411 L 403 1491 L 460 1491 L 460 778 C 460 766 463 756 470 749 C 476 741 490 736 511 733 C 521 731 530 730 539 728 C 547 726 555 723 562 720 C 569 717 575 713 579 708 C 583 702 585 696 585 688 L 585 645 Z" unicode="" />
<glyph horiz-adv-x="1743" d="M 825 903 C 825 859 814 821 792 788 C 770 754 742 726 708 704 C 674 682 635 665 593 654 C 550 642 507 637 465 637 C 423 637 385 641 350 650 C 315 658 285 670 259 685 C 233 700 212 718 198 739 C 183 759 176 781 176 805 C 176 815 177 825 181 835 C 185 845 190 855 198 863 C 206 871 215 878 227 884 C 238 890 252 893 268 893 C 284 893 297 890 309 886 C 320 881 329 875 337 868 C 344 861 349 853 353 845 C 356 837 358 829 358 823 C 358 807 355 794 350 782 C 344 770 338 760 330 750 C 340 739 356 730 379 724 C 401 718 427 715 455 715 C 491 715 522 720 548 731 C 574 741 596 755 614 773 C 631 790 644 810 653 832 C 661 854 666 876 666 899 C 666 930 661 956 651 978 C 641 999 624 1016 602 1030 C 580 1043 551 1052 515 1058 C 479 1064 435 1067 383 1067 L 383 1141 C 435 1143 477 1148 509 1156 C 541 1164 567 1175 585 1189 C 603 1203 616 1221 623 1243 C 629 1264 633 1289 633 1317 C 633 1330 630 1343 624 1356 C 618 1369 608 1381 596 1391 C 584 1401 568 1409 549 1415 C 529 1421 507 1425 481 1425 C 453 1425 429 1422 410 1416 C 391 1410 375 1404 362 1397 C 370 1387 377 1377 381 1367 C 385 1356 387 1343 387 1329 C 387 1308 379 1290 364 1276 C 348 1262 328 1255 303 1255 C 278 1255 257 1262 240 1277 C 223 1291 215 1313 215 1341 C 215 1363 223 1384 241 1404 C 258 1424 280 1441 307 1456 C 334 1470 364 1482 398 1490 C 432 1498 465 1503 498 1503 C 540 1503 580 1498 616 1488 C 652 1478 684 1465 711 1448 C 737 1431 758 1411 773 1388 C 787 1364 795 1339 795 1311 C 795 1288 790 1267 781 1248 C 771 1229 758 1212 742 1196 C 725 1180 705 1165 683 1152 C 660 1138 636 1126 610 1116 C 640 1106 668 1095 694 1083 C 720 1071 742 1056 762 1039 C 781 1022 796 1002 808 980 C 819 958 825 932 825 903 Z M 1660 221 L 1517 221 L 1517 98 C 1517 90 1520 84 1526 80 C 1532 76 1539 74 1545 72 C 1555 67 1564 63 1572 60 C 1580 56 1584 51 1584 43 L 1584 0 L 1300 0 L 1300 43 C 1300 52 1304 59 1312 63 C 1320 67 1330 70 1341 74 C 1348 76 1355 78 1363 81 C 1371 84 1375 90 1375 98 L 1375 221 L 951 221 L 951 295 L 1410 854 L 1517 854 L 1517 313 L 1660 313 L 1660 221 Z M 1373 313 L 1373 680 L 1074 313 L 1373 313 Z M 1442 1501 L 594 -20 L 485 -20 L 1333 1501 L 1442 1501 Z" unicode="" />
<glyph horiz-adv-x="901" d="M 608 999 C 608 983 605 968 599 954 C 593 940 584 927 574 916 C 564 905 551 896 537 890 C 522 884 506 881 489 881 C 471 881 454 884 439 890 C 423 896 410 905 399 916 C 388 927 380 940 374 954 C 368 968 365 983 365 999 C 365 1015 368 1031 374 1046 C 380 1060 388 1073 399 1084 C 410 1095 423 1104 439 1110 C 454 1116 471 1120 489 1120 C 506 1120 522 1116 537 1110 C 551 1104 564 1095 574 1084 C 584 1073 593 1060 599 1046 C 605 1031 608 1015 608 999 Z M 813 -164 C 813 -193 805 -222 789 -252 C 773 -281 750 -307 719 -331 C 688 -354 649 -373 603 -388 C 556 -402 502 -410 440 -410 C 384 -410 333 -402 287 -388 C 241 -373 201 -352 169 -326 C 136 -299 111 -267 93 -230 C 75 -192 66 -151 66 -106 C 66 -72 70 -42 78 -15 C 86 11 98 37 114 62 C 129 87 148 112 170 137 C 192 161 216 188 244 217 C 287 263 321 306 347 346 C 373 386 392 425 406 463 C 419 501 428 540 433 578 C 437 616 440 656 442 698 C 442 704 445 712 451 720 C 457 728 469 733 487 733 C 504 733 516 728 522 720 C 528 712 532 704 532 698 C 532 667 531 634 527 598 C 523 562 517 525 508 487 C 499 448 487 408 472 368 C 457 327 438 286 416 246 C 393 204 372 168 353 138 C 334 107 318 79 304 53 C 290 27 279 1 271 -23 C 263 -47 260 -75 260 -106 C 260 -154 266 -194 279 -225 C 292 -256 309 -281 330 -299 C 350 -317 374 -329 400 -336 C 426 -342 453 -346 481 -346 C 495 -346 511 -344 528 -341 C 545 -337 561 -332 577 -324 C 593 -316 607 -307 621 -295 C 634 -283 645 -270 653 -254 C 639 -242 628 -232 620 -222 C 612 -212 607 -203 603 -195 C 599 -187 597 -179 597 -173 C 596 -167 596 -161 596 -156 C 596 -120 605 -93 624 -75 C 643 -57 668 -49 698 -49 C 734 -49 762 -59 782 -81 C 802 -103 813 -130 813 -164 Z" unicode="" />
<glyph horiz-adv-x="1434" d="M 928 1645 L 893 1618 L 543 1769 C 509 1783 485 1799 471 1816 C 456 1832 449 1848 449 1864 C 449 1884 455 1902 468 1918 C 481 1934 500 1942 526 1942 C 540 1942 556 1939 574 1933 C 592 1927 611 1914 633 1896 L 928 1645 Z M 1450 0 L 999 0 L 999 33 C 999 37 1001 41 1005 45 C 1009 49 1014 52 1020 56 C 1026 59 1032 62 1039 65 C 1046 68 1053 71 1059 74 C 1074 80 1088 86 1102 94 C 1115 101 1122 109 1122 119 C 1122 128 1118 141 1112 158 C 1105 175 1099 190 1094 203 L 997 434 L 362 434 L 266 203 C 263 197 260 190 258 183 C 255 175 252 168 250 161 C 248 153 246 146 244 140 C 242 134 242 129 242 125 C 242 113 248 103 260 93 C 272 83 289 75 311 68 C 331 60 347 54 357 48 C 367 42 373 34 373 23 L 373 0 L -18 0 L -18 31 C -18 42 -13 50 -4 56 C 4 61 13 67 23 74 C 35 82 47 90 57 98 C 67 106 77 114 86 124 C 95 134 104 145 112 158 C 120 171 129 187 137 205 L 629 1300 L 586 1393 C 582 1399 580 1403 579 1405 C 578 1407 578 1411 578 1417 C 578 1421 579 1423 582 1425 C 584 1427 588 1429 592 1432 C 613 1442 634 1453 655 1467 C 675 1481 695 1495 715 1511 C 716 1512 717 1513 719 1515 C 720 1517 723 1518 727 1518 C 732 1518 736 1516 739 1512 C 742 1508 745 1505 748 1501 L 1307 160 C 1314 143 1324 127 1336 112 C 1348 97 1365 86 1389 78 C 1403 72 1414 68 1422 66 C 1430 63 1436 61 1440 59 C 1444 57 1446 56 1448 54 C 1449 52 1450 49 1450 45 L 1450 0 Z M 963 520 L 688 1190 L 399 520 L 963 520 Z" unicode="" />
<glyph horiz-adv-x="1434" d="M 961 1864 C 961 1848 953 1832 938 1816 C 923 1799 899 1783 866 1769 L 516 1618 L 481 1645 L 776 1896 C 797 1914 816 1927 834 1933 C 852 1939 868 1942 883 1942 C 908 1942 927 1934 941 1918 C 954 1902 961 1884 961 1864 Z M 1450 0 L 999 0 L 999 33 C 999 37 1001 41 1005 45 C 1009 49 1014 52 1020 56 C 1026 59 1032 62 1039 65 C 1046 68 1053 71 1059 74 C 1074 80 1088 86 1102 94 C 1115 101 1122 109 1122 119 C 1122 128 1118 141 1112 158 C 1105 175 1099 190 1094 203 L 997 434 L 362 434 L 266 203 C 263 197 260 190 258 183 C 255 175 252 168 250 161 C 248 153 246 146 244 140 C 242 134 242 129 242 125 C 242 113 248 103 260 93 C 272 83 289 75 311 68 C 331 60 347 54 357 48 C 367 42 373 34 373 23 L 373 0 L -18 0 L -18 31 C -18 42 -13 50 -4 56 C 4 61 13 67 23 74 C 35 82 47 90 57 98 C 67 106 77 114 86 124 C 95 134 104 145 112 158 C 120 171 129 187 137 205 L 629 1300 L 586 1393 C 582 1399 580 1403 579 1405 C 578 1407 578 1411 578 1417 C 578 1421 579 1423 582 1425 C 584 1427 588 1429 592 1432 C 613 1442 634 1453 655 1467 C 675 1481 695 1495 715 1511 C 716 1512 717 1513 719 1515 C 720 1517 723 1518 727 1518 C 732 1518 736 1516 739 1512 C 742 1508 745 1505 748 1501 L 1307 160 C 1314 143 1324 127 1336 112 C 1348 97 1365 86 1389 78 C 1403 72 1414 68 1422 66 C 1430 63 1436 61 1440 59 C 1444 57 1446 56 1448 54 C 1449 52 1450 49 1450 45 L 1450 0 Z M 963 520 L 688 1190 L 399 520 L 963 520 Z" unicode="" />
<glyph horiz-adv-x="1434" d="M 1047 1589 L 985 1589 L 709 1796 L 430 1589 L 371 1589 L 647 1923 L 770 1923 L 1047 1589 Z M 1450 0 L 999 0 L 999 33 C 999 37 1001 41 1005 45 C 1009 49 1014 52 1020 56 C 1026 59 1032 62 1039 65 C 1046 68 1053 71 1059 74 C 1074 80 1088 86 1102 94 C 1115 101 1122 109 1122 119 C 1122 128 1118 141 1112 158 C 1105 175 1099 190 1094 203 L 997 434 L 362 434 L 266 203 C 263 197 260 190 258 183 C 255 175 252 168 250 161 C 248 153 246 146 244 140 C 242 134 242 129 242 125 C 242 113 248 103 260 93 C 272 83 289 75 311 68 C 331 60 347 54 357 48 C 367 42 373 34 373 23 L 373 0 L -18 0 L -18 31 C -18 42 -13 50 -4 56 C 4 61 13 67 23 74 C 35 82 47 90 57 98 C 67 106 77 114 86 124 C 95 134 104 145 112 158 C 120 171 129 187 137 205 L 629 1300 L 586 1393 C 582 1399 580 1403 579 1405 C 578 1407 578 1411 578 1417 C 578 1421 579 1423 582 1425 C 584 1427 588 1429 592 1432 C 613 1442 634 1453 655 1467 C 675 1481 695 1495 715 1511 C 716 1512 717 1513 719 1515 C 720 1517 723 1518 727 1518 C 732 1518 736 1516 739 1512 C 742 1508 745 1505 748 1501 L 1307 160 C 1314 143 1324 127 1336 112 C 1348 97 1365 86 1389 78 C 1403 72 1414 68 1422 66 C 1430 63 1436 61 1440 59 C 1444 57 1446 56 1448 54 C 1449 52 1450 49 1450 45 L 1450 0 Z M 963 520 L 688 1190 L 399 520 L 963 520 Z" unicode="" />
<glyph horiz-adv-x="1434" d="M 1055 1864 C 1053 1833 1047 1805 1035 1779 C 1023 1753 1008 1730 989 1711 C 969 1692 947 1677 921 1667 C 895 1656 868 1651 840 1651 C 826 1651 814 1651 803 1653 C 791 1654 780 1656 768 1660 C 756 1663 743 1668 729 1674 C 715 1680 698 1688 680 1698 C 656 1711 632 1724 606 1736 C 580 1748 554 1755 526 1755 C 510 1755 495 1752 482 1746 C 469 1740 458 1731 448 1721 C 438 1711 430 1699 424 1686 C 418 1672 414 1659 412 1645 L 354 1645 C 354 1675 360 1704 372 1730 C 384 1756 399 1778 419 1797 C 438 1816 460 1831 486 1842 C 512 1852 539 1858 569 1858 C 586 1858 601 1857 614 1855 C 627 1853 639 1850 651 1846 C 663 1842 674 1838 686 1832 C 698 1826 711 1820 727 1812 C 737 1807 748 1801 761 1795 C 773 1788 786 1781 800 1775 C 814 1769 827 1763 841 1759 C 854 1755 867 1753 879 1753 C 895 1753 909 1756 923 1762 C 937 1768 949 1776 959 1786 C 969 1796 978 1808 984 1822 C 990 1835 995 1849 997 1864 L 1055 1864 Z M 1450 0 L 999 0 L 999 33 C 999 37 1001 41 1005 45 C 1009 49 1014 52 1020 56 C 1026 59 1032 62 1039 65 C 1046 68 1053 71 1059 74 C 1074 80 1088 86 1102 94 C 1115 101 1122 109 1122 119 C 1122 128 1118 141 1112 158 C 1105 175 1099 190 1094 203 L 997 434 L 362 434 L 266 203 C 263 197 260 190 258 183 C 255 175 252 168 250 161 C 248 153 246 146 244 140 C 242 134 242 129 242 125 C 242 113 248 103 260 93 C 272 83 289 75 311 68 C 331 60 347 54 357 48 C 367 42 373 34 373 23 L 373 0 L -18 0 L -18 31 C -18 42 -13 50 -4 56 C 4 61 13 67 23 74 C 35 82 47 90 57 98 C 67 106 77 114 86 124 C 95 134 104 145 112 158 C 120 171 129 187 137 205 L 629 1300 L 586 1393 C 582 1399 580 1403 579 1405 C 578 1407 578 1411 578 1417 C 578 1421 579 1423 582 1425 C 584 1427 588 1429 592 1432 C 613 1442 634 1453 655 1467 C 675 1481 695 1495 715 1511 C 716 1512 717 1513 719 1515 C 720 1517 723 1518 727 1518 C 732 1518 736 1516 739 1512 C 742 1508 745 1505 748 1501 L 1307 160 C 1314 143 1324 127 1336 112 C 1348 97 1365 86 1389 78 C 1403 72 1414 68 1422 66 C 1430 63 1436 61 1440 59 C 1444 57 1446 56 1448 54 C 1449 52 1450 49 1450 45 L 1450 0 Z M 963 520 L 688 1190 L 399 520 L 963 520 Z" unicode="" />
<glyph horiz-adv-x="1434" d="M 1450 0 L 999 0 L 999 33 C 999 37 1001 41 1005 45 C 1009 49 1014 52 1020 56 C 1026 59 1032 62 1039 65 C 1046 68 1053 71 1059 74 C 1074 80 1088 86 1102 94 C 1115 101 1122 109 1122 119 C 1122 128 1118 141 1112 158 C 1105 175 1099 190 1094 203 L 997 434 L 362 434 L 266 203 C 263 197 260 190 258 183 C 255 175 252 168 250 161 C 248 153 246 146 244 140 C 242 134 242 129 242 125 C 242 113 248 103 260 93 C 272 83 289 75 311 68 C 331 60 347 54 357 48 C 367 42 373 34 373 23 L 373 0 L -18 0 L -18 31 C -18 42 -13 50 -4 56 C 4 61 13 67 23 74 C 35 82 47 90 57 98 C 67 106 77 114 86 124 C 95 134 104 145 112 158 C 120 171 129 187 137 205 L 629 1300 L 586 1393 C 582 1399 580 1403 579 1405 C 578 1407 578 1411 578 1417 C 578 1421 579 1423 582 1425 C 584 1427 588 1429 592 1432 C 613 1442 634 1453 655 1467 C 675 1481 695 1495 715 1511 C 716 1512 717 1513 719 1515 C 720 1517 723 1518 727 1518 C 732 1518 736 1516 739 1512 C 742 1508 745 1505 748 1501 L 1307 160 C 1314 143 1324 127 1336 112 C 1348 97 1365 86 1389 78 C 1403 72 1414 68 1422 66 C 1430 63 1436 61 1440 59 C 1444 57 1446 56 1448 54 C 1449 52 1450 49 1450 45 L 1450 0 Z M 963 520 L 688 1190 L 399 520 L 963 520 Z M 1017 1746 C 1017 1732 1014 1719 1009 1707 C 1003 1695 996 1684 986 1675 C 976 1665 965 1658 953 1652 C 940 1646 927 1644 913 1644 C 899 1644 885 1646 872 1652 C 859 1658 848 1665 839 1675 C 829 1684 822 1695 816 1707 C 810 1719 808 1732 808 1746 C 808 1759 810 1772 816 1784 C 822 1796 829 1807 839 1817 C 848 1827 859 1834 872 1840 C 885 1846 899 1849 913 1849 C 927 1849 940 1846 953 1840 C 965 1834 976 1827 986 1817 C 996 1807 1003 1796 1009 1784 C 1014 1772 1017 1759 1017 1746 Z M 600 1746 C 600 1732 597 1719 591 1707 C 585 1695 578 1684 569 1675 C 559 1665 548 1658 535 1652 C 522 1646 509 1644 495 1644 C 481 1644 467 1646 455 1652 C 442 1658 431 1665 421 1675 C 411 1684 404 1695 399 1707 C 393 1719 391 1732 391 1746 C 391 1759 393 1772 399 1784 C 404 1796 411 1807 421 1817 C 431 1827 442 1834 455 1840 C 467 1846 481 1849 495 1849 C 509 1849 522 1846 535 1840 C 548 1834 559 1827 569 1817 C 578 1807 585 1796 591 1784 C 597 1772 600 1759 600 1746 Z" unicode="" />
<glyph horiz-adv-x="1434" d="M 954 1808 C 954 1776 948 1746 936 1719 C 924 1691 907 1668 886 1648 C 864 1628 838 1612 808 1601 C 778 1590 745 1585 709 1585 C 672 1585 638 1590 608 1601 C 578 1612 552 1628 530 1648 C 508 1668 491 1691 479 1719 C 467 1746 461 1776 461 1808 C 461 1840 467 1869 479 1897 C 491 1924 508 1948 530 1968 C 552 1988 578 2003 608 2015 C 638 2026 672 2032 709 2032 C 745 2032 778 2026 808 2015 C 838 2003 864 1988 886 1968 C 907 1948 924 1924 936 1897 C 948 1869 954 1840 954 1808 Z M 842 1808 C 842 1862 830 1905 808 1936 C 785 1966 752 1982 709 1982 C 665 1982 632 1966 609 1936 C 586 1905 575 1862 575 1808 C 575 1754 586 1711 609 1680 C 632 1649 665 1634 709 1634 C 752 1634 785 1649 808 1680 C 830 1711 842 1754 842 1808 Z M 1450 0 L 999 0 L 999 33 C 999 37 1001 41 1005 45 C 1009 49 1014 52 1020 56 C 1026 59 1032 62 1039 65 C 1046 68 1053 71 1059 74 C 1074 80 1088 86 1102 94 C 1115 101 1122 109 1122 119 C 1122 128 1118 141 1112 158 C 1105 175 1099 190 1094 203 L 997 434 L 362 434 L 266 203 C 263 197 260 190 258 183 C 255 175 252 168 250 161 C 248 153 246 146 244 140 C 242 134 242 129 242 125 C 242 113 248 103 260 93 C 272 83 289 75 311 68 C 331 60 347 54 357 48 C 367 42 373 34 373 23 L 373 0 L -18 0 L -18 31 C -18 42 -13 50 -4 56 C 4 61 13 67 23 74 C 35 82 47 90 57 98 C 67 106 77 114 86 124 C 95 134 104 145 112 158 C 120 171 129 187 137 205 L 629 1300 L 586 1393 C 582 1399 580 1403 579 1405 C 578 1407 578 1411 578 1417 C 578 1421 579 1423 582 1425 C 584 1427 588 1429 592 1432 C 613 1442 634 1453 655 1467 C 675 1481 695 1495 715 1511 C 716 1512 717 1513 719 1515 C 720 1517 723 1518 727 1518 C 732 1518 736 1516 739 1512 C 742 1508 745 1505 748 1501 L 1307 160 C 1314 143 1324 127 1336 112 C 1348 97 1365 86 1389 78 C 1403 72 1414 68 1422 66 C 1430 63 1436 61 1440 59 C 1444 57 1446 56 1448 54 C 1449 52 1450 49 1450 45 L 1450 0 Z M 963 520 L 688 1190 L 399 520 L 963 520 Z" unicode="" />
<glyph horiz-adv-x="2005" d="M 1960 0 L 850 0 L 850 45 C 850 50 851 54 853 56 C 855 58 858 61 863 63 C 867 65 874 67 882 69 C 890 71 901 75 913 80 C 927 85 939 89 948 93 C 957 96 964 100 968 104 C 972 108 975 113 977 119 C 978 125 979 133 979 145 L 979 721 L 516 721 L 276 203 C 273 197 270 190 267 183 C 264 175 261 168 259 161 C 256 153 254 146 252 140 C 250 134 250 129 250 125 C 250 101 272 82 317 68 C 337 60 353 54 363 48 C 373 42 378 34 377 23 L 377 0 L -12 0 L -12 31 C -10 42 -5 50 3 56 C 12 61 21 67 31 74 C 44 82 56 90 67 98 C 78 106 88 114 98 124 C 107 134 116 145 125 158 C 133 171 142 187 150 205 L 643 1247 C 647 1257 652 1267 657 1279 C 662 1290 667 1301 671 1312 C 675 1322 678 1332 680 1341 C 682 1349 684 1356 684 1360 C 684 1366 683 1371 682 1376 C 680 1381 677 1386 673 1390 C 668 1394 661 1399 653 1403 C 644 1407 632 1411 618 1415 C 605 1419 595 1422 587 1425 C 579 1427 572 1430 568 1432 C 564 1434 561 1436 559 1439 C 557 1441 557 1445 557 1450 L 557 1495 L 1665 1495 C 1679 1495 1696 1495 1715 1497 C 1733 1498 1752 1500 1771 1502 C 1789 1504 1807 1506 1823 1508 C 1839 1510 1852 1511 1862 1513 L 1862 1227 L 1817 1227 C 1800 1227 1788 1229 1781 1235 C 1773 1241 1767 1249 1763 1260 C 1751 1291 1740 1317 1731 1337 C 1722 1357 1711 1372 1698 1384 C 1684 1395 1667 1403 1647 1407 C 1626 1411 1598 1413 1563 1413 L 1165 1413 L 1165 805 L 1405 805 C 1425 805 1441 807 1453 812 C 1465 816 1474 823 1482 832 C 1490 840 1496 851 1502 863 C 1507 875 1513 889 1520 905 C 1525 916 1531 926 1538 934 C 1545 942 1557 946 1575 946 L 1614 946 L 1614 588 L 1569 588 C 1555 588 1544 592 1536 600 C 1528 608 1521 618 1516 631 C 1508 648 1500 662 1494 674 C 1488 685 1481 694 1473 701 C 1465 708 1457 713 1447 716 C 1437 719 1424 721 1409 721 L 1165 721 L 1165 82 L 1665 82 C 1694 82 1719 86 1739 94 C 1759 102 1776 114 1791 130 C 1806 146 1820 167 1832 192 C 1844 216 1856 245 1870 279 C 1872 283 1873 288 1875 293 C 1877 297 1879 302 1881 306 C 1883 310 1887 313 1891 315 C 1895 317 1901 319 1909 319 L 1960 319 L 1960 0 Z M 979 803 L 979 1260 C 979 1284 978 1307 977 1327 C 975 1347 972 1363 966 1377 C 960 1390 952 1400 941 1408 C 929 1415 914 1419 895 1419 C 880 1419 867 1414 855 1406 C 843 1397 832 1385 822 1371 C 812 1356 802 1339 793 1319 C 783 1299 774 1279 764 1257 L 555 805 L 979 803 Z" unicode="" />
<glyph horiz-adv-x="1315" d="M 1315 293 C 1299 263 1276 230 1244 194 C 1212 158 1173 125 1127 94 C 1081 62 1028 36 969 14 C 909 -8 844 -20 774 -23 L 737 -98 C 769 -98 798 -100 824 -106 C 850 -112 873 -121 893 -134 C 912 -146 927 -162 938 -182 C 948 -201 954 -224 954 -252 C 954 -274 948 -295 938 -315 C 927 -335 911 -352 889 -367 C 867 -382 840 -394 808 -403 C 776 -411 738 -416 696 -416 C 665 -416 637 -412 613 -406 C 589 -399 567 -391 548 -381 C 528 -371 511 -360 496 -348 C 480 -336 467 -325 455 -315 L 492 -260 C 502 -268 514 -277 528 -286 C 542 -295 557 -303 573 -310 C 589 -317 606 -323 624 -327 C 642 -331 660 -334 680 -334 C 760 -334 801 -307 801 -254 C 801 -232 792 -213 774 -197 C 756 -180 726 -172 684 -172 C 676 -172 668 -172 660 -173 C 652 -173 644 -174 637 -176 L 711 -23 C 638 -19 571 -7 511 15 C 451 37 397 66 349 102 C 301 138 260 180 224 228 C 188 276 159 327 136 383 C 112 438 95 496 83 557 C 71 618 66 679 66 741 C 66 826 75 905 93 977 C 111 1049 137 1113 169 1171 C 201 1228 238 1278 282 1322 C 325 1365 371 1401 421 1430 C 470 1459 521 1481 575 1496 C 628 1510 681 1518 733 1518 C 765 1518 795 1516 825 1512 C 854 1508 883 1503 912 1495 C 940 1487 969 1477 997 1465 C 1025 1453 1055 1438 1087 1421 C 1097 1415 1106 1411 1114 1407 C 1122 1403 1129 1401 1137 1401 C 1143 1401 1148 1402 1153 1405 C 1157 1408 1163 1413 1169 1419 C 1174 1424 1178 1429 1181 1433 C 1184 1437 1188 1440 1192 1440 L 1235 1440 L 1235 1077 L 1176 1077 C 1167 1077 1160 1078 1154 1082 C 1148 1086 1144 1093 1141 1104 C 1127 1150 1108 1194 1085 1235 C 1061 1275 1033 1311 1001 1341 C 969 1371 932 1394 892 1412 C 851 1429 806 1438 758 1438 C 723 1438 687 1432 650 1421 C 612 1410 576 1393 540 1370 C 504 1346 470 1316 438 1280 C 406 1244 377 1200 353 1149 C 329 1098 309 1039 295 973 C 281 907 274 832 274 750 C 274 638 286 539 312 455 C 337 370 372 299 416 242 C 460 185 511 142 570 113 C 629 84 692 70 760 70 C 830 70 894 81 950 103 C 1006 125 1054 151 1095 181 C 1136 211 1170 241 1196 272 C 1222 303 1241 328 1253 346 L 1315 293 Z" unicode="" />
<glyph horiz-adv-x="1233" d="M 894 1645 L 859 1618 L 509 1769 C 475 1783 451 1799 437 1816 C 422 1832 415 1848 415 1864 C 415 1884 421 1902 434 1918 C 447 1934 466 1942 492 1942 C 506 1942 522 1939 540 1933 C 558 1927 577 1914 599 1896 L 894 1645 Z M 1188 0 L 70 0 L 70 45 C 70 50 71 54 73 56 C 75 58 78 61 83 63 C 87 65 94 67 102 69 C 110 71 121 75 133 80 C 147 85 159 89 168 93 C 177 96 184 100 188 104 C 192 108 195 113 197 119 C 198 125 199 133 199 145 L 199 1352 C 199 1360 198 1367 196 1373 C 194 1379 191 1384 187 1389 C 182 1394 175 1399 167 1403 C 158 1407 147 1411 133 1415 C 120 1419 110 1422 102 1425 C 94 1427 87 1430 83 1432 C 79 1434 76 1436 74 1439 C 72 1441 72 1445 72 1450 L 72 1495 L 893 1495 C 907 1495 924 1495 943 1497 C 961 1498 980 1500 999 1502 C 1017 1504 1035 1506 1051 1508 C 1067 1510 1080 1511 1090 1513 L 1090 1227 L 1044 1227 C 1028 1227 1016 1229 1008 1235 C 1000 1241 995 1249 991 1260 C 979 1291 968 1317 959 1337 C 950 1357 939 1372 926 1384 C 912 1395 895 1403 875 1407 C 854 1411 826 1413 791 1413 L 385 1413 L 385 809 L 633 809 C 653 809 669 811 681 816 C 693 820 702 827 710 836 C 718 844 724 855 730 867 C 735 879 741 893 748 909 C 753 920 759 930 766 938 C 773 946 785 950 803 950 L 842 950 L 842 592 L 797 592 C 783 592 772 596 764 604 C 755 612 748 622 743 635 C 735 652 728 666 722 678 C 716 690 709 699 701 706 C 693 713 685 718 675 721 C 665 723 652 725 637 725 L 385 725 L 385 82 L 893 82 C 922 82 947 86 967 94 C 987 102 1004 114 1019 130 C 1034 146 1048 167 1060 192 C 1072 216 1084 245 1098 279 C 1100 283 1101 288 1103 293 C 1105 297 1107 302 1109 306 C 1111 310 1115 313 1119 315 C 1123 317 1129 319 1137 319 L 1188 319 L 1188 0 Z" unicode="" />
<glyph horiz-adv-x="1233" d="M 886 1864 C 886 1848 878 1832 863 1816 C 848 1799 824 1783 791 1769 L 441 1618 L 406 1645 L 701 1896 C 722 1914 741 1927 759 1933 C 777 1939 793 1942 808 1942 C 833 1942 852 1934 866 1918 C 879 1902 886 1884 886 1864 Z M 1188 0 L 70 0 L 70 45 C 70 50 71 54 73 56 C 75 58 78 61 83 63 C 87 65 94 67 102 69 C 110 71 121 75 133 80 C 147 85 159 89 168 93 C 177 96 184 100 188 104 C 192 108 195 113 197 119 C 198 125 199 133 199 145 L 199 1352 C 199 1360 198 1367 196 1373 C 194 1379 191 1384 187 1389 C 182 1394 175 1399 167 1403 C 158 1407 147 1411 133 1415 C 120 1419 110 1422 102 1425 C 94 1427 87 1430 83 1432 C 79 1434 76 1436 74 1439 C 72 1441 72 1445 72 1450 L 72 1495 L 893 1495 C 907 1495 924 1495 943 1497 C 961 1498 980 1500 999 1502 C 1017 1504 1035 1506 1051 1508 C 1067 1510 1080 1511 1090 1513 L 1090 1227 L 1044 1227 C 1028 1227 1016 1229 1008 1235 C 1000 1241 995 1249 991 1260 C 979 1291 968 1317 959 1337 C 950 1357 939 1372 926 1384 C 912 1395 895 1403 875 1407 C 854 1411 826 1413 791 1413 L 385 1413 L 385 809 L 633 809 C 653 809 669 811 681 816 C 693 820 702 827 710 836 C 718 844 724 855 730 867 C 735 879 741 893 748 909 C 753 920 759 930 766 938 C 773 946 785 950 803 950 L 842 950 L 842 592 L 797 592 C 783 592 772 596 764 604 C 755 612 748 622 743 635 C 735 652 728 666 722 678 C 716 690 709 699 701 706 C 693 713 685 718 675 721 C 665 723 652 725 637 725 L 385 725 L 385 82 L 893 82 C 922 82 947 86 967 94 C 987 102 1004 114 1019 130 C 1034 146 1048 167 1060 192 C 1072 216 1084 245 1098 279 C 1100 283 1101 288 1103 293 C 1105 297 1107 302 1109 306 C 1111 310 1115 313 1119 315 C 1123 317 1129 319 1137 319 L 1188 319 L 1188 0 Z" unicode="" />
<glyph horiz-adv-x="1233" d="M 978 1603 L 916 1603 L 640 1810 L 361 1603 L 302 1603 L 578 1937 L 701 1937 L 978 1603 Z M 1188 0 L 70 0 L 70 45 C 70 50 71 54 73 56 C 75 58 78 61 83 63 C 87 65 94 67 102 69 C 110 71 121 75 133 80 C 147 85 159 89 168 93 C 177 96 184 100 188 104 C 192 108 195 113 197 119 C 198 125 199 133 199 145 L 199 1352 C 199 1360 198 1367 196 1373 C 194 1379 191 1384 187 1389 C 182 1394 175 1399 167 1403 C 158 1407 147 1411 133 1415 C 120 1419 110 1422 102 1425 C 94 1427 87 1430 83 1432 C 79 1434 76 1436 74 1439 C 72 1441 72 1445 72 1450 L 72 1495 L 893 1495 C 907 1495 924 1495 943 1497 C 961 1498 980 1500 999 1502 C 1017 1504 1035 1506 1051 1508 C 1067 1510 1080 1511 1090 1513 L 1090 1227 L 1044 1227 C 1028 1227 1016 1229 1008 1235 C 1000 1241 995 1249 991 1260 C 979 1291 968 1317 959 1337 C 950 1357 939 1372 926 1384 C 912 1395 895 1403 875 1407 C 854 1411 826 1413 791 1413 L 385 1413 L 385 809 L 633 809 C 653 809 669 811 681 816 C 693 820 702 827 710 836 C 718 844 724 855 730 867 C 735 879 741 893 748 909 C 753 920 759 930 766 938 C 773 946 785 950 803 950 L 842 950 L 842 592 L 797 592 C 783 592 772 596 764 604 C 755 612 748 622 743 635 C 735 652 728 666 722 678 C 716 690 709 699 701 706 C 693 713 685 718 675 721 C 665 723 652 725 637 725 L 385 725 L 385 82 L 893 82 C 922 82 947 86 967 94 C 987 102 1004 114 1019 130 C 1034 146 1048 167 1060 192 C 1072 216 1084 245 1098 279 C 1100 283 1101 288 1103 293 C 1105 297 1107 302 1109 306 C 1111 310 1115 313 1119 315 C 1123 317 1129 319 1137 319 L 1188 319 L 1188 0 Z" unicode="" />
<glyph horiz-adv-x="1233" d="M 1188 0 L 70 0 L 70 45 C 70 50 71 54 73 56 C 75 58 78 61 83 63 C 87 65 94 67 102 69 C 110 71 121 75 133 80 C 147 85 159 89 168 93 C 177 96 184 100 188 104 C 192 108 195 113 197 119 C 198 125 199 133 199 145 L 199 1352 C 199 1360 198 1367 196 1373 C 194 1379 191 1384 187 1389 C 182 1394 175 1399 167 1403 C 158 1407 147 1411 133 1415 C 120 1419 110 1422 102 1425 C 94 1427 87 1430 83 1432 C 79 1434 76 1436 74 1439 C 72 1441 72 1445 72 1450 L 72 1495 L 893 1495 C 907 1495 924 1495 943 1497 C 961 1498 980 1500 999 1502 C 1017 1504 1035 1506 1051 1508 C 1067 1510 1080 1511 1090 1513 L 1090 1227 L 1044 1227 C 1028 1227 1016 1229 1008 1235 C 1000 1241 995 1249 991 1260 C 979 1291 968 1317 959 1337 C 950 1357 939 1372 926 1384 C 912 1395 895 1403 875 1407 C 854 1411 826 1413 791 1413 L 385 1413 L 385 809 L 633 809 C 653 809 669 811 681 816 C 693 820 702 827 710 836 C 718 844 724 855 730 867 C 735 879 741 893 748 909 C 753 920 759 930 766 938 C 773 946 785 950 803 950 L 842 950 L 842 592 L 797 592 C 783 592 772 596 764 604 C 755 612 748 622 743 635 C 735 652 728 666 722 678 C 716 690 709 699 701 706 C 693 713 685 718 675 721 C 665 723 652 725 637 725 L 385 725 L 385 82 L 893 82 C 922 82 947 86 967 94 C 987 102 1004 114 1019 130 C 1034 146 1048 167 1060 192 C 1072 216 1084 245 1098 279 C 1100 283 1101 288 1103 293 C 1105 297 1107 302 1109 306 C 1111 310 1115 313 1119 315 C 1123 317 1129 319 1137 319 L 1188 319 L 1188 0 Z M 974 1746 C 974 1732 971 1719 966 1707 C 960 1695 953 1684 943 1675 C 933 1665 922 1658 910 1652 C 897 1646 884 1644 870 1644 C 856 1644 842 1646 829 1652 C 816 1658 805 1665 796 1675 C 786 1684 779 1695 773 1707 C 767 1719 765 1732 765 1746 C 765 1759 767 1772 773 1784 C 779 1796 786 1807 796 1817 C 805 1827 816 1834 829 1840 C 842 1846 856 1849 870 1849 C 884 1849 897 1846 910 1840 C 922 1834 933 1827 943 1817 C 953 1807 960 1796 966 1784 C 971 1772 974 1759 974 1746 Z M 557 1746 C 557 1732 554 1719 548 1707 C 542 1695 535 1684 526 1675 C 516 1665 505 1658 492 1652 C 479 1646 466 1644 452 1644 C 438 1644 424 1646 412 1652 C 399 1658 388 1665 378 1675 C 368 1684 361 1695 356 1707 C 350 1719 348 1732 348 1746 C 348 1759 350 1772 356 1784 C 361 1796 368 1807 378 1817 C 388 1827 399 1834 412 1840 C 424 1846 438 1849 452 1849 C 466 1849 479 1846 492 1840 C 505 1834 516 1827 526 1817 C 535 1807 542 1796 548 1784 C 554 1772 557 1759 557 1746 Z" unicode="" />
<glyph horiz-adv-x="604" d="M 562 1645 L 527 1618 L 177 1769 C 143 1783 119 1799 105 1816 C 90 1832 83 1848 83 1864 C 83 1884 89 1902 102 1918 C 115 1934 134 1942 160 1942 C 174 1942 190 1939 208 1933 C 226 1927 245 1914 267 1896 L 562 1645 Z M 520 0 L 82 0 L 82 45 C 82 50 82 54 84 56 C 86 58 89 61 94 63 C 98 65 105 67 113 69 C 121 71 131 75 143 80 C 157 85 169 89 178 93 C 187 96 194 100 198 104 C 202 108 205 113 207 119 C 208 125 209 133 209 145 L 209 1352 C 209 1360 208 1367 207 1373 C 205 1379 202 1384 198 1389 C 193 1394 186 1399 178 1403 C 169 1407 157 1411 143 1415 C 130 1419 120 1422 112 1425 C 104 1427 97 1430 93 1432 C 89 1434 86 1436 84 1439 C 82 1441 82 1445 82 1450 L 82 1495 L 520 1495 L 520 1450 C 520 1445 519 1441 517 1439 C 515 1436 513 1433 509 1431 C 505 1429 499 1426 492 1424 C 485 1422 476 1419 465 1415 C 451 1410 439 1406 430 1404 C 420 1401 413 1398 408 1394 C 403 1390 400 1384 398 1378 C 396 1372 395 1363 395 1352 L 395 150 C 395 136 396 126 398 119 C 400 112 404 106 410 102 C 415 98 422 94 431 91 C 440 88 451 84 465 80 C 476 76 485 72 492 70 C 499 67 505 65 509 63 C 513 61 515 58 517 56 C 519 53 520 49 520 45 L 520 0 Z" unicode="" />
<glyph horiz-adv-x="604" d="M 556 1864 C 556 1848 548 1832 533 1816 C 518 1799 494 1783 461 1769 L 111 1618 L 76 1645 L 371 1896 C 392 1914 411 1927 429 1933 C 447 1939 463 1942 478 1942 C 503 1942 522 1934 536 1918 C 549 1902 556 1884 556 1864 Z M 520 0 L 82 0 L 82 45 C 82 50 82 54 84 56 C 86 58 89 61 94 63 C 98 65 105 67 113 69 C 121 71 131 75 143 80 C 157 85 169 89 178 93 C 187 96 194 100 198 104 C 202 108 205 113 207 119 C 208 125 209 133 209 145 L 209 1352 C 209 1360 208 1367 207 1373 C 205 1379 202 1384 198 1389 C 193 1394 186 1399 178 1403 C 169 1407 157 1411 143 1415 C 130 1419 120 1422 112 1425 C 104 1427 97 1430 93 1432 C 89 1434 86 1436 84 1439 C 82 1441 82 1445 82 1450 L 82 1495 L 520 1495 L 520 1450 C 520 1445 519 1441 517 1439 C 515 1436 513 1433 509 1431 C 505 1429 499 1426 492 1424 C 485 1422 476 1419 465 1415 C 451 1410 439 1406 430 1404 C 420 1401 413 1398 408 1394 C 403 1390 400 1384 398 1378 C 396 1372 395 1363 395 1352 L 395 150 C 395 136 396 126 398 119 C 400 112 404 106 410 102 C 415 98 422 94 431 91 C 440 88 451 84 465 80 C 476 76 485 72 492 70 C 499 67 505 65 509 63 C 513 61 515 58 517 56 C 519 53 520 49 520 45 L 520 0 Z" unicode="" />
<glyph horiz-adv-x="604" d="M 612 1604 L 549 1604 L 303 1810 L 55 1604 L -6 1604 L 244 1937 L 362 1937 L 612 1604 Z M 520 0 L 82 0 L 82 45 C 82 50 82 54 84 56 C 86 58 89 61 94 63 C 98 65 105 67 113 69 C 121 71 131 75 143 80 C 157 85 169 89 178 93 C 187 96 194 100 198 104 C 202 108 205 113 207 119 C 208 125 209 133 209 145 L 209 1352 C 209 1360 208 1367 207 1373 C 205 1379 202 1384 198 1389 C 193 1394 186 1399 178 1403 C 169 1407 157 1411 143 1415 C 130 1419 120 1422 112 1425 C 104 1427 97 1430 93 1432 C 89 1434 86 1436 84 1439 C 82 1441 82 1445 82 1450 L 82 1495 L 520 1495 L 520 1450 C 520 1445 519 1441 517 1439 C 515 1436 513 1433 509 1431 C 505 1429 499 1426 492 1424 C 485 1422 476 1419 465 1415 C 451 1410 439 1406 430 1404 C 420 1401 413 1398 408 1394 C 403 1390 400 1384 398 1378 C 396 1372 395 1363 395 1352 L 395 150 C 395 136 396 126 398 119 C 400 112 404 106 410 102 C 415 98 422 94 431 91 C 440 88 451 84 465 80 C 476 76 485 72 492 70 C 499 67 505 65 509 63 C 513 61 515 58 517 56 C 519 53 520 49 520 45 L 520 0 Z" unicode="" />
<glyph horiz-adv-x="604" d="M 207 1757 C 207 1743 204 1729 198 1717 C 192 1705 185 1694 176 1684 C 166 1674 155 1667 142 1661 C 128 1655 114 1653 100 1653 C 85 1653 71 1655 58 1661 C 45 1667 34 1674 25 1684 C 15 1694 8 1705 2 1717 C -3 1729 -6 1743 -6 1757 C -6 1771 -3 1784 2 1797 C 8 1809 15 1820 25 1830 C 34 1840 45 1847 58 1853 C 71 1859 85 1862 100 1862 C 114 1862 128 1859 142 1853 C 155 1847 166 1840 176 1830 C 185 1820 192 1809 198 1797 C 204 1784 207 1771 207 1757 Z M 612 1757 C 612 1743 609 1729 603 1717 C 597 1705 590 1694 581 1684 C 571 1674 560 1667 547 1661 C 534 1655 520 1653 506 1653 C 490 1653 476 1655 463 1661 C 450 1667 439 1674 430 1684 C 420 1694 413 1705 407 1717 C 401 1729 399 1743 399 1757 C 399 1771 401 1784 407 1797 C 413 1809 420 1820 430 1830 C 439 1840 450 1847 463 1853 C 476 1859 490 1862 506 1862 C 520 1862 534 1859 547 1853 C 560 1847 571 1840 581 1830 C 590 1820 597 1809 603 1797 C 609 1784 612 1771 612 1757 Z M 520 0 L 82 0 L 82 45 C 82 50 82 54 84 56 C 86 58 89 61 94 63 C 98 65 105 67 113 69 C 121 71 131 75 143 80 C 157 85 169 89 178 93 C 187 96 194 100 198 104 C 202 108 205 113 207 119 C 208 125 209 133 209 145 L 209 1352 C 209 1360 208 1367 207 1373 C 205 1379 202 1384 198 1389 C 193 1394 186 1399 178 1403 C 169 1407 157 1411 143 1415 C 130 1419 120 1422 112 1425 C 104 1427 97 1430 93 1432 C 89 1434 86 1436 84 1439 C 82 1441 82 1445 82 1450 L 82 1495 L 520 1495 L 520 1450 C 520 1445 519 1441 517 1439 C 515 1436 513 1433 509 1431 C 505 1429 499 1426 492 1424 C 485 1422 476 1419 465 1415 C 451 1410 439 1406 430 1404 C 420 1401 413 1398 408 1394 C 403 1390 400 1384 398 1378 C 396 1372 395 1363 395 1352 L 395 150 C 395 136 396 126 398 119 C 400 112 404 106 410 102 C 415 98 422 94 431 91 C 440 88 451 84 465 80 C 476 76 485 72 492 70 C 499 67 505 65 509 63 C 513 61 515 58 517 56 C 519 53 520 49 520 45 L 520 0 Z" unicode="" />
<glyph horiz-adv-x="1511" d="M 1134 1874 C 1132 1843 1126 1815 1114 1789 C 1102 1763 1087 1740 1068 1721 C 1048 1702 1026 1687 1000 1677 C 974 1666 947 1661 919 1661 C 905 1661 893 1661 882 1663 C 870 1664 859 1666 847 1670 C 835 1673 822 1678 808 1684 C 794 1690 777 1698 759 1708 C 735 1721 711 1734 685 1746 C 659 1758 633 1765 605 1765 C 589 1765 574 1762 561 1756 C 548 1750 537 1741 527 1731 C 517 1721 509 1709 503 1696 C 497 1682 493 1669 491 1655 L 433 1655 C 433 1685 439 1714 451 1740 C 463 1766 478 1788 498 1807 C 517 1826 539 1841 565 1852 C 591 1862 618 1868 648 1868 C 665 1868 680 1867 693 1865 C 706 1863 718 1860 730 1856 C 742 1852 753 1848 765 1842 C 777 1836 790 1830 806 1822 C 816 1817 827 1811 840 1805 C 852 1798 865 1791 879 1785 C 893 1779 906 1773 920 1769 C 933 1765 946 1763 958 1763 C 974 1763 988 1766 1002 1772 C 1016 1778 1028 1786 1038 1796 C 1048 1806 1057 1818 1063 1832 C 1069 1845 1074 1859 1076 1874 L 1134 1874 Z M 1452 1444 C 1452 1440 1450 1438 1448 1436 C 1446 1434 1442 1431 1437 1428 C 1432 1425 1426 1421 1418 1416 C 1410 1411 1401 1405 1391 1397 C 1365 1378 1347 1359 1337 1340 C 1326 1320 1321 1300 1321 1280 L 1321 -8 L 1249 -8 L 309 1333 L 309 219 C 309 200 313 179 322 156 C 330 133 345 112 367 94 C 375 86 383 81 391 77 C 399 73 406 70 412 67 C 418 64 422 61 426 59 C 430 56 432 53 432 49 L 432 0 L 70 0 L 70 49 C 70 53 71 56 73 58 C 75 60 78 63 83 66 C 87 69 93 73 101 78 C 109 82 119 90 131 100 C 152 117 169 135 181 155 C 193 175 199 195 199 217 L 199 1352 C 199 1360 198 1367 196 1373 C 194 1379 191 1384 187 1389 C 182 1394 175 1399 167 1403 C 158 1407 147 1411 133 1415 C 120 1419 110 1422 102 1425 C 94 1427 87 1430 83 1432 C 79 1434 76 1436 74 1439 C 72 1441 72 1445 72 1450 L 72 1495 L 412 1495 L 1210 352 L 1210 1278 C 1210 1300 1205 1322 1195 1342 C 1185 1362 1169 1380 1147 1397 C 1135 1405 1125 1411 1117 1416 C 1109 1421 1102 1425 1097 1428 C 1091 1431 1087 1433 1085 1435 C 1082 1437 1081 1439 1081 1442 L 1081 1495 L 1452 1495 L 1452 1444 Z" unicode="" />
<glyph horiz-adv-x="1532" d="M 1007 1645 L 972 1618 L 622 1769 C 588 1783 564 1799 550 1816 C 535 1832 528 1848 528 1864 C 528 1884 534 1902 547 1918 C 560 1934 579 1942 605 1942 C 619 1942 635 1939 653 1933 C 671 1927 690 1914 712 1896 L 1007 1645 Z M 1466 748 C 1466 636 1449 532 1415 438 C 1381 344 1334 262 1273 194 C 1211 126 1138 72 1052 34 C 966 -3 872 -23 768 -23 C 664 -23 569 -4 483 33 C 397 70 323 123 261 191 C 199 259 151 340 117 435 C 83 529 66 634 66 748 C 66 859 83 962 117 1056 C 151 1150 199 1232 261 1300 C 323 1368 397 1422 483 1460 C 569 1498 664 1518 768 1518 C 872 1518 966 1498 1052 1460 C 1138 1422 1211 1368 1273 1300 C 1334 1232 1381 1150 1415 1056 C 1449 962 1466 859 1466 748 Z M 1257 748 C 1257 859 1245 958 1221 1044 C 1197 1130 1164 1202 1121 1260 C 1078 1318 1027 1363 967 1393 C 907 1423 840 1438 768 1438 C 694 1438 627 1423 567 1393 C 506 1363 454 1318 411 1260 C 367 1202 334 1130 310 1044 C 286 958 274 859 274 748 C 274 636 286 537 310 451 C 334 365 367 293 411 235 C 454 176 506 132 567 102 C 627 72 694 57 768 57 C 840 57 907 71 967 100 C 1027 129 1078 173 1121 231 C 1164 289 1197 361 1221 447 C 1245 533 1257 634 1257 748 Z" unicode="" />
<glyph horiz-adv-x="1532" d="M 1030 1864 C 1030 1848 1022 1832 1007 1816 C 992 1799 968 1783 935 1769 L 585 1618 L 550 1645 L 845 1896 C 866 1914 885 1927 903 1933 C 921 1939 937 1942 952 1942 C 977 1942 996 1934 1010 1918 C 1023 1902 1030 1884 1030 1864 Z M 1466 748 C 1466 636 1449 532 1415 438 C 1381 344 1334 262 1273 194 C 1211 126 1138 72 1052 34 C 966 -3 872 -23 768 -23 C 664 -23 569 -4 483 33 C 397 70 323 123 261 191 C 199 259 151 340 117 435 C 83 529 66 634 66 748 C 66 859 83 962 117 1056 C 151 1150 199 1232 261 1300 C 323 1368 397 1422 483 1460 C 569 1498 664 1518 768 1518 C 872 1518 966 1498 1052 1460 C 1138 1422 1211 1368 1273 1300 C 1334 1232 1381 1150 1415 1056 C 1449 962 1466 859 1466 748 Z M 1257 748 C 1257 859 1245 958 1221 1044 C 1197 1130 1164 1202 1121 1260 C 1078 1318 1027 1363 967 1393 C 907 1423 840 1438 768 1438 C 694 1438 627 1423 567 1393 C 506 1363 454 1318 411 1260 C 367 1202 334 1130 310 1044 C 286 958 274 859 274 748 C 274 636 286 537 310 451 C 334 365 367 293 411 235 C 454 176 506 132 567 102 C 627 72 694 57 768 57 C 840 57 907 71 967 100 C 1027 129 1078 173 1121 231 C 1164 289 1197 361 1221 447 C 1245 533 1257 634 1257 748 Z" unicode="" />
<glyph horiz-adv-x="1532" d="M 1102 1603 L 1040 1603 L 764 1810 L 485 1603 L 426 1603 L 702 1937 L 825 1937 L 1102 1603 Z M 1466 748 C 1466 636 1449 532 1415 438 C 1381 344 1334 262 1273 194 C 1211 126 1138 72 1052 34 C 966 -3 872 -23 768 -23 C 664 -23 569 -4 483 33 C 397 70 323 123 261 191 C 199 259 151 340 117 435 C 83 529 66 634 66 748 C 66 859 83 962 117 1056 C 151 1150 199 1232 261 1300 C 323 1368 397 1422 483 1460 C 569 1498 664 1518 768 1518 C 872 1518 966 1498 1052 1460 C 1138 1422 1211 1368 1273 1300 C 1334 1232 1381 1150 1415 1056 C 1449 962 1466 859 1466 748 Z M 1257 748 C 1257 859 1245 958 1221 1044 C 1197 1130 1164 1202 1121 1260 C 1078 1318 1027 1363 967 1393 C 907 1423 840 1438 768 1438 C 694 1438 627 1423 567 1393 C 506 1363 454 1318 411 1260 C 367 1202 334 1130 310 1044 C 286 958 274 859 274 748 C 274 636 286 537 310 451 C 334 365 367 293 411 235 C 454 176 506 132 567 102 C 627 72 694 57 768 57 C 840 57 907 71 967 100 C 1027 129 1078 173 1121 231 C 1164 289 1197 361 1221 447 C 1245 533 1257 634 1257 748 Z" unicode="" />
<glyph horiz-adv-x="1532" d="M 1116 1874 C 1114 1843 1108 1815 1096 1789 C 1084 1763 1069 1740 1050 1721 C 1030 1702 1008 1687 982 1677 C 956 1666 929 1661 901 1661 C 887 1661 875 1661 864 1663 C 852 1664 841 1666 829 1670 C 817 1673 804 1678 790 1684 C 776 1690 759 1698 741 1708 C 717 1721 693 1734 667 1746 C 641 1758 615 1765 587 1765 C 571 1765 556 1762 543 1756 C 530 1750 519 1741 509 1731 C 499 1721 491 1709 485 1696 C 479 1682 475 1669 473 1655 L 415 1655 C 415 1685 421 1714 433 1740 C 445 1766 460 1788 480 1807 C 499 1826 521 1841 547 1852 C 573 1862 600 1868 630 1868 C 647 1868 662 1867 675 1865 C 688 1863 700 1860 712 1856 C 724 1852 735 1848 747 1842 C 759 1836 772 1830 788 1822 C 798 1817 809 1811 822 1805 C 834 1798 847 1791 861 1785 C 875 1779 888 1773 902 1769 C 915 1765 928 1763 940 1763 C 956 1763 970 1766 984 1772 C 998 1778 1010 1786 1020 1796 C 1030 1806 1039 1818 1045 1832 C 1051 1845 1056 1859 1058 1874 L 1116 1874 Z M 1466 748 C 1466 636 1449 532 1415 438 C 1381 344 1334 262 1273 194 C 1211 126 1138 72 1052 34 C 966 -3 872 -23 768 -23 C 664 -23 569 -4 483 33 C 397 70 323 123 261 191 C 199 259 151 340 117 435 C 83 529 66 634 66 748 C 66 859 83 962 117 1056 C 151 1150 199 1232 261 1300 C 323 1368 397 1422 483 1460 C 569 1498 664 1518 768 1518 C 872 1518 966 1498 1052 1460 C 1138 1422 1211 1368 1273 1300 C 1334 1232 1381 1150 1415 1056 C 1449 962 1466 859 1466 748 Z M 1257 748 C 1257 859 1245 958 1221 1044 C 1197 1130 1164 1202 1121 1260 C 1078 1318 1027 1363 967 1393 C 907 1423 840 1438 768 1438 C 694 1438 627 1423 567 1393 C 506 1363 454 1318 411 1260 C 367 1202 334 1130 310 1044 C 286 958 274 859 274 748 C 274 636 286 537 310 451 C 334 365 367 293 411 235 C 454 176 506 132 567 102 C 627 72 694 57 768 57 C 840 57 907 71 967 100 C 1027 129 1078 173 1121 231 C 1164 289 1197 361 1221 447 C 1245 533 1257 634 1257 748 Z" unicode="" />
<glyph horiz-adv-x="1532" d="M 1466 748 C 1466 636 1449 532 1415 438 C 1381 344 1334 262 1273 194 C 1211 126 1138 72 1052 34 C 966 -3 872 -23 768 -23 C 664 -23 569 -4 483 33 C 397 70 323 123 261 191 C 199 259 151 340 117 435 C 83 529 66 634 66 748 C 66 859 83 962 117 1056 C 151 1150 199 1232 261 1300 C 323 1368 397 1422 483 1460 C 569 1498 664 1518 768 1518 C 872 1518 966 1498 1052 1460 C 1138 1422 1211 1368 1273 1300 C 1334 1232 1381 1150 1415 1056 C 1449 962 1466 859 1466 748 Z M 1257 748 C 1257 859 1245 958 1221 1044 C 1197 1130 1164 1202 1121 1260 C 1078 1318 1027 1363 967 1393 C 907 1423 840 1438 768 1438 C 694 1438 627 1423 567 1393 C 506 1363 454 1318 411 1260 C 367 1202 334 1130 310 1044 C 286 958 274 859 274 748 C 274 636 286 537 310 451 C 334 365 367 293 411 235 C 454 176 506 132 567 102 C 627 72 694 57 768 57 C 840 57 907 71 967 100 C 1027 129 1078 173 1121 231 C 1164 289 1197 361 1221 447 C 1245 533 1257 634 1257 748 Z M 1074 1746 C 1074 1732 1071 1719 1066 1707 C 1060 1695 1053 1684 1043 1675 C 1033 1665 1022 1658 1010 1652 C 997 1646 984 1644 970 1644 C 956 1644 942 1646 929 1652 C 916 1658 905 1665 896 1675 C 886 1684 879 1695 873 1707 C 867 1719 865 1732 865 1746 C 865 1759 867 1772 873 1784 C 879 1796 886 1807 896 1817 C 905 1827 916 1834 929 1840 C 942 1846 956 1849 970 1849 C 984 1849 997 1846 1010 1840 C 1022 1834 1033 1827 1043 1817 C 1053 1807 1060 1796 1066 1784 C 1071 1772 1074 1759 1074 1746 Z M 657 1746 C 657 1732 654 1719 648 1707 C 642 1695 635 1684 626 1675 C 616 1665 605 1658 592 1652 C 579 1646 566 1644 552 1644 C 538 1644 524 1646 512 1652 C 499 1658 488 1665 478 1675 C 468 1684 461 1695 456 1707 C 450 1719 448 1732 448 1746 C 448 1759 450 1772 456 1784 C 461 1796 468 1807 478 1817 C 488 1827 499 1834 512 1840 C 524 1846 538 1849 552 1849 C 566 1849 579 1846 592 1840 C 605 1834 616 1827 626 1817 C 635 1807 642 1796 648 1784 C 654 1772 657 1759 657 1746 Z" unicode="" />
<glyph horiz-adv-x="1569" d="M 1262 207 L 1188 135 L 784 528 L 381 135 L 305 207 L 711 600 L 305 991 L 379 1063 L 784 672 L 1188 1065 L 1262 991 L 858 600 L 1262 207 Z" unicode="" />
<glyph horiz-adv-x="1532" d="M 1466 748 C 1466 636 1449 532 1415 438 C 1381 344 1334 262 1273 194 C 1211 126 1138 72 1052 34 C 966 -3 872 -23 768 -23 C 709 -23 653 -16 599 -3 C 545 9 494 28 446 53 L 367 -98 L 270 -98 L 375 98 C 327 130 284 169 246 214 C 208 258 175 308 149 363 C 122 418 101 478 87 543 C 73 607 66 676 66 748 C 66 859 83 962 117 1056 C 151 1150 199 1232 261 1300 C 323 1368 397 1422 483 1460 C 569 1498 664 1518 768 1518 C 826 1518 882 1511 935 1498 C 987 1485 1037 1466 1085 1442 L 1155 1573 L 1251 1573 L 1159 1397 C 1206 1363 1249 1324 1287 1279 C 1325 1233 1357 1183 1383 1128 C 1409 1073 1430 1014 1444 950 C 1458 886 1466 818 1466 748 Z M 1262 748 C 1262 872 1247 980 1219 1072 C 1191 1164 1152 1238 1102 1296 L 496 145 C 534 115 575 92 621 78 C 667 64 716 57 768 57 C 840 57 907 71 968 100 C 1028 129 1080 173 1124 231 C 1167 289 1201 361 1225 447 C 1249 533 1262 634 1262 748 Z M 1038 1352 C 1000 1380 958 1402 913 1416 C 867 1430 819 1438 768 1438 C 694 1438 627 1423 566 1393 C 505 1363 453 1318 409 1260 C 365 1202 330 1130 306 1044 C 282 958 270 859 270 748 C 270 624 284 516 312 424 C 340 332 380 258 430 201 L 1038 1352 Z" unicode="" />
<glyph horiz-adv-x="1493" d="M 1028 1645 L 993 1618 L 643 1769 C 609 1783 585 1799 571 1816 C 556 1832 549 1848 549 1864 C 549 1884 555 1902 568 1918 C 581 1934 600 1942 626 1942 C 640 1942 656 1939 674 1933 C 692 1927 711 1914 733 1896 L 1028 1645 Z M 1448 1444 C 1448 1438 1442 1432 1430 1426 C 1418 1420 1403 1410 1384 1397 C 1360 1380 1343 1363 1333 1346 C 1322 1329 1317 1310 1317 1290 L 1317 530 C 1317 460 1306 393 1284 327 C 1262 261 1228 202 1184 150 C 1139 98 1082 56 1014 24 C 946 -7 866 -23 774 -23 C 673 -23 586 -9 512 17 C 438 43 376 80 328 127 C 279 173 243 229 219 293 C 195 357 184 426 184 500 L 184 1352 C 184 1360 183 1367 182 1373 C 180 1379 177 1384 173 1389 C 168 1394 161 1399 153 1403 C 144 1407 133 1411 119 1415 C 106 1419 96 1422 88 1425 C 80 1427 73 1430 69 1432 C 64 1434 61 1436 59 1439 C 57 1441 57 1445 57 1450 L 57 1495 L 496 1495 L 496 1450 C 496 1445 495 1441 493 1439 C 491 1436 489 1433 485 1431 C 481 1429 475 1426 468 1424 C 460 1422 451 1419 440 1415 C 426 1410 414 1406 405 1404 C 396 1401 389 1398 384 1394 C 379 1390 376 1384 374 1378 C 372 1372 371 1363 371 1352 L 371 518 C 371 452 380 394 398 342 C 416 290 442 246 477 210 C 511 174 554 146 605 127 C 656 107 714 98 780 98 C 854 98 917 108 971 128 C 1024 148 1068 177 1103 215 C 1138 253 1164 300 1181 356 C 1197 411 1206 474 1206 545 L 1206 1288 C 1206 1309 1201 1329 1191 1347 C 1181 1365 1163 1382 1139 1399 C 1118 1412 1102 1421 1091 1427 C 1080 1433 1075 1438 1075 1444 L 1075 1495 L 1448 1495 L 1448 1444 Z" unicode="" />
<glyph horiz-adv-x="1493" d="M 1047 1864 C 1047 1848 1039 1832 1024 1816 C 1009 1799 985 1783 952 1769 L 602 1618 L 567 1645 L 862 1896 C 883 1914 902 1927 920 1933 C 938 1939 954 1942 969 1942 C 994 1942 1013 1934 1027 1918 C 1040 1902 1047 1884 1047 1864 Z M 1448 1444 C 1448 1438 1442 1432 1430 1426 C 1418 1420 1403 1410 1384 1397 C 1360 1380 1343 1363 1333 1346 C 1322 1329 1317 1310 1317 1290 L 1317 530 C 1317 460 1306 393 1284 327 C 1262 261 1228 202 1184 150 C 1139 98 1082 56 1014 24 C 946 -7 866 -23 774 -23 C 673 -23 586 -9 512 17 C 438 43 376 80 328 127 C 279 173 243 229 219 293 C 195 357 184 426 184 500 L 184 1352 C 184 1360 183 1367 182 1373 C 180 1379 177 1384 173 1389 C 168 1394 161 1399 153 1403 C 144 1407 133 1411 119 1415 C 106 1419 96 1422 88 1425 C 80 1427 73 1430 69 1432 C 64 1434 61 1436 59 1439 C 57 1441 57 1445 57 1450 L 57 1495 L 496 1495 L 496 1450 C 496 1445 495 1441 493 1439 C 491 1436 489 1433 485 1431 C 481 1429 475 1426 468 1424 C 460 1422 451 1419 440 1415 C 426 1410 414 1406 405 1404 C 396 1401 389 1398 384 1394 C 379 1390 376 1384 374 1378 C 372 1372 371 1363 371 1352 L 371 518 C 371 452 380 394 398 342 C 416 290 442 246 477 210 C 511 174 554 146 605 127 C 656 107 714 98 780 98 C 854 98 917 108 971 128 C 1024 148 1068 177 1103 215 C 1138 253 1164 300 1181 356 C 1197 411 1206 474 1206 545 L 1206 1288 C 1206 1309 1201 1329 1191 1347 C 1181 1365 1163 1382 1139 1399 C 1118 1412 1102 1421 1091 1427 C 1080 1433 1075 1438 1075 1444 L 1075 1495 L 1448 1495 L 1448 1444 Z" unicode="" />
<glyph horiz-adv-x="1493" d="M 1116 1603 L 1054 1603 L 778 1810 L 499 1603 L 440 1603 L 716 1937 L 839 1937 L 1116 1603 Z M 1448 1444 C 1448 1438 1442 1432 1430 1426 C 1418 1420 1403 1410 1384 1397 C 1360 1380 1343 1363 1333 1346 C 1322 1329 1317 1310 1317 1290 L 1317 530 C 1317 460 1306 393 1284 327 C 1262 261 1228 202 1184 150 C 1139 98 1082 56 1014 24 C 946 -7 866 -23 774 -23 C 673 -23 586 -9 512 17 C 438 43 376 80 328 127 C 279 173 243 229 219 293 C 195 357 184 426 184 500 L 184 1352 C 184 1360 183 1367 182 1373 C 180 1379 177 1384 173 1389 C 168 1394 161 1399 153 1403 C 144 1407 133 1411 119 1415 C 106 1419 96 1422 88 1425 C 80 1427 73 1430 69 1432 C 64 1434 61 1436 59 1439 C 57 1441 57 1445 57 1450 L 57 1495 L 496 1495 L 496 1450 C 496 1445 495 1441 493 1439 C 491 1436 489 1433 485 1431 C 481 1429 475 1426 468 1424 C 460 1422 451 1419 440 1415 C 426 1410 414 1406 405 1404 C 396 1401 389 1398 384 1394 C 379 1390 376 1384 374 1378 C 372 1372 371 1363 371 1352 L 371 518 C 371 452 380 394 398 342 C 416 290 442 246 477 210 C 511 174 554 146 605 127 C 656 107 714 98 780 98 C 854 98 917 108 971 128 C 1024 148 1068 177 1103 215 C 1138 253 1164 300 1181 356 C 1197 411 1206 474 1206 545 L 1206 1288 C 1206 1309 1201 1329 1191 1347 C 1181 1365 1163 1382 1139 1399 C 1118 1412 1102 1421 1091 1427 C 1080 1433 1075 1438 1075 1444 L 1075 1495 L 1448 1495 L 1448 1444 Z" unicode="" />
<glyph horiz-adv-x="1493" d="M 1448 1444 C 1448 1438 1442 1432 1430 1426 C 1418 1420 1403 1410 1384 1397 C 1360 1380 1343 1363 1333 1346 C 1322 1329 1317 1310 1317 1290 L 1317 530 C 1317 460 1306 393 1284 327 C 1262 261 1228 202 1184 150 C 1139 98 1082 56 1014 24 C 946 -7 866 -23 774 -23 C 673 -23 586 -9 512 17 C 438 43 376 80 328 127 C 279 173 243 229 219 293 C 195 357 184 426 184 500 L 184 1352 C 184 1360 183 1367 182 1373 C 180 1379 177 1384 173 1389 C 168 1394 161 1399 153 1403 C 144 1407 133 1411 119 1415 C 106 1419 96 1422 88 1425 C 80 1427 73 1430 69 1432 C 64 1434 61 1436 59 1439 C 57 1441 57 1445 57 1450 L 57 1495 L 496 1495 L 496 1450 C 496 1445 495 1441 493 1439 C 491 1436 489 1433 485 1431 C 481 1429 475 1426 468 1424 C 460 1422 451 1419 440 1415 C 426 1410 414 1406 405 1404 C 396 1401 389 1398 384 1394 C 379 1390 376 1384 374 1378 C 372 1372 371 1363 371 1352 L 371 518 C 371 452 380 394 398 342 C 416 290 442 246 477 210 C 511 174 554 146 605 127 C 656 107 714 98 780 98 C 854 98 917 108 971 128 C 1024 148 1068 177 1103 215 C 1138 253 1164 300 1181 356 C 1197 411 1206 474 1206 545 L 1206 1288 C 1206 1309 1201 1329 1191 1347 C 1181 1365 1163 1382 1139 1399 C 1118 1412 1102 1421 1091 1427 C 1080 1433 1075 1438 1075 1444 L 1075 1495 L 1448 1495 L 1448 1444 Z M 1084 1746 C 1084 1732 1081 1719 1076 1707 C 1070 1695 1063 1684 1053 1675 C 1043 1665 1032 1658 1020 1652 C 1007 1646 994 1644 980 1644 C 966 1644 952 1646 939 1652 C 926 1658 915 1665 906 1675 C 896 1684 889 1695 883 1707 C 877 1719 875 1732 875 1746 C 875 1759 877 1772 883 1784 C 889 1796 896 1807 906 1817 C 915 1827 926 1834 939 1840 C 952 1846 966 1849 980 1849 C 994 1849 1007 1846 1020 1840 C 1032 1834 1043 1827 1053 1817 C 1063 1807 1070 1796 1076 1784 C 1081 1772 1084 1759 1084 1746 Z M 667 1746 C 667 1732 664 1719 658 1707 C 652 1695 645 1684 636 1675 C 626 1665 615 1658 602 1652 C 589 1646 576 1644 562 1644 C 548 1644 534 1646 522 1652 C 509 1658 498 1665 488 1675 C 478 1684 471 1695 466 1707 C 460 1719 458 1732 458 1746 C 458 1759 460 1772 466 1784 C 471 1796 478 1807 488 1817 C 498 1827 509 1834 522 1840 C 534 1846 548 1849 562 1849 C 576 1849 589 1846 602 1840 C 615 1834 626 1827 636 1817 C 645 1807 652 1796 658 1784 C 664 1772 667 1759 667 1746 Z" unicode="" />
<glyph horiz-adv-x="1296" d="M 1333 1460 C 1333 1454 1332 1450 1330 1447 C 1328 1443 1326 1440 1323 1438 C 1319 1435 1315 1432 1309 1429 C 1303 1426 1296 1423 1288 1419 C 1273 1411 1261 1406 1251 1402 C 1241 1398 1231 1392 1223 1386 C 1214 1379 1205 1370 1196 1359 C 1186 1347 1175 1331 1161 1311 L 748 684 L 748 150 C 748 136 749 126 751 119 C 753 112 757 106 763 102 C 769 98 776 94 785 91 C 794 88 805 84 819 80 C 830 76 839 72 846 70 C 853 67 859 65 863 63 C 867 61 869 58 871 56 C 873 53 874 49 874 45 L 874 0 L 432 0 L 432 45 C 432 50 432 54 434 56 C 436 58 439 61 444 63 C 448 65 455 67 463 69 C 471 71 481 75 494 80 C 508 85 520 89 529 93 C 538 96 545 100 550 104 C 554 108 557 113 559 119 C 560 125 561 133 561 145 L 561 676 L 119 1333 C 111 1344 103 1354 97 1362 C 91 1370 84 1378 77 1385 C 70 1391 62 1397 53 1402 C 43 1406 32 1411 20 1415 C 8 1419 0 1422 -8 1424 C -15 1426 -21 1429 -25 1431 C -29 1433 -32 1436 -34 1439 C -36 1441 -37 1445 -37 1450 L -37 1495 L 418 1495 L 418 1468 C 418 1462 417 1458 417 1455 C 417 1452 415 1449 412 1447 C 409 1444 404 1441 398 1438 C 391 1435 381 1431 369 1425 C 350 1417 335 1410 325 1406 C 314 1401 309 1394 309 1386 C 309 1380 311 1372 316 1362 C 321 1351 326 1341 332 1333 L 698 776 L 1032 1294 C 1045 1314 1055 1333 1062 1349 C 1069 1365 1073 1376 1073 1384 C 1073 1391 1067 1397 1055 1403 C 1043 1409 1029 1415 1012 1421 C 988 1429 972 1436 964 1441 C 956 1446 952 1454 952 1464 L 952 1495 L 1333 1495 L 1333 1460 Z M 1010 1864 C 1010 1848 1002 1832 987 1816 C 972 1799 948 1783 915 1769 L 565 1618 L 530 1645 L 825 1896 C 846 1914 865 1927 883 1933 C 901 1939 917 1942 932 1942 C 957 1942 976 1934 990 1918 C 1003 1902 1010 1884 1010 1864 Z" unicode="" />
<glyph horiz-adv-x="1100" d="M 1057 387 C 1057 333 1047 282 1028 234 C 1009 185 983 142 949 105 C 915 67 876 37 830 15 C 784 -6 734 -18 680 -18 C 638 -18 601 -14 571 -6 C 540 1 515 11 495 24 C 475 36 460 51 450 68 C 440 85 436 103 436 123 C 436 131 437 140 441 152 C 444 163 449 174 457 184 C 464 194 474 203 486 211 C 498 219 512 223 530 223 C 544 223 556 220 567 215 C 577 210 586 203 594 195 C 601 187 606 177 610 167 C 614 157 616 147 616 137 C 616 129 613 119 609 107 C 605 95 599 81 592 66 C 605 56 617 51 629 50 C 640 49 649 49 657 49 C 692 49 723 57 751 75 C 779 93 802 117 821 148 C 840 179 854 215 864 257 C 874 299 879 344 879 393 C 879 455 871 508 857 552 C 843 596 822 633 795 662 C 768 690 735 711 697 725 C 658 738 614 745 565 745 L 532 745 C 514 745 499 749 487 757 C 475 765 469 778 469 795 C 469 814 474 828 485 836 C 495 844 506 848 516 848 L 565 848 C 631 848 683 874 721 928 C 759 981 778 1056 778 1153 C 778 1197 772 1236 762 1270 C 751 1303 736 1331 717 1353 C 698 1375 675 1391 649 1402 C 623 1413 594 1419 563 1419 C 485 1419 427 1387 387 1323 C 347 1259 328 1160 328 1028 L 328 0 L 59 0 L 59 39 C 59 46 64 51 76 54 C 87 56 99 60 113 66 C 123 70 131 73 138 76 C 144 79 149 83 153 87 C 156 91 158 96 160 102 C 161 108 162 117 162 129 L 162 1014 C 162 1090 172 1158 193 1218 C 213 1278 242 1328 279 1369 C 315 1410 359 1441 409 1463 C 459 1484 515 1495 575 1495 C 628 1495 677 1487 722 1472 C 767 1456 806 1434 839 1406 C 872 1378 898 1344 916 1305 C 934 1265 944 1222 944 1174 C 944 1130 937 1088 925 1049 C 913 1010 894 975 868 943 C 842 911 810 883 770 860 C 730 836 682 818 627 805 C 709 797 777 780 832 755 C 887 729 931 698 965 660 C 998 622 1022 580 1036 533 C 1050 486 1057 437 1057 387 Z" unicode="" />
<glyph horiz-adv-x="952" d="M 977 82 C 956 50 931 26 902 11 C 873 -4 845 -12 819 -12 C 800 -12 782 -9 764 -3 C 746 2 730 10 716 21 C 701 31 688 44 678 59 C 667 74 659 91 655 111 C 618 71 575 39 526 16 C 476 -6 424 -18 369 -18 C 327 -18 287 -12 249 -2 C 210 8 176 24 146 46 C 116 68 92 95 74 128 C 56 160 47 198 47 242 C 47 287 59 328 84 366 C 109 404 146 436 196 463 C 246 490 307 511 381 526 C 455 541 541 549 639 549 C 639 594 633 634 623 669 C 613 703 598 732 580 755 C 562 778 540 795 515 807 C 489 819 462 825 432 825 C 413 825 394 824 376 822 C 358 820 344 819 334 817 C 334 795 333 774 333 754 C 332 734 328 715 322 699 C 316 683 305 670 290 660 C 275 650 253 645 225 645 C 192 645 167 651 149 664 C 131 677 123 700 123 733 C 123 753 130 773 144 793 C 158 812 178 829 204 844 C 230 859 262 871 300 881 C 338 890 380 895 428 895 C 498 895 556 886 604 870 C 652 854 690 831 719 801 C 748 771 769 735 782 693 C 794 651 801 604 801 553 L 801 172 C 801 148 807 129 819 115 C 831 101 849 94 872 94 C 886 94 899 96 909 101 C 919 106 930 113 940 123 L 977 82 Z M 639 246 L 639 473 C 571 473 511 469 459 459 C 407 449 363 435 327 417 C 291 398 264 375 246 349 C 228 322 219 292 219 258 C 219 228 223 201 233 179 C 242 156 255 137 272 122 C 289 106 309 95 333 87 C 356 79 382 76 410 76 C 436 76 463 80 490 90 C 517 100 542 113 564 129 C 586 145 604 163 618 183 C 632 203 639 224 639 246 Z M 685 1028 L 648 1004 L 319 1186 C 289 1203 268 1220 256 1236 C 244 1252 239 1268 239 1284 C 239 1305 245 1323 258 1339 C 270 1354 288 1362 312 1362 C 320 1362 329 1361 337 1360 C 345 1359 354 1357 363 1353 C 372 1349 382 1343 392 1335 C 402 1327 413 1317 425 1305 L 685 1028 Z" unicode="" />
<glyph horiz-adv-x="952" d="M 977 82 C 956 50 931 26 902 11 C 873 -4 845 -12 819 -12 C 800 -12 782 -9 764 -3 C 746 2 730 10 716 21 C 701 31 688 44 678 59 C 667 74 659 91 655 111 C 618 71 575 39 526 16 C 476 -6 424 -18 369 -18 C 327 -18 287 -12 249 -2 C 210 8 176 24 146 46 C 116 68 92 95 74 128 C 56 160 47 198 47 242 C 47 287 59 328 84 366 C 109 404 146 436 196 463 C 246 490 307 511 381 526 C 455 541 541 549 639 549 C 639 594 633 634 623 669 C 613 703 598 732 580 755 C 562 778 540 795 515 807 C 489 819 462 825 432 825 C 413 825 394 824 376 822 C 358 820 344 819 334 817 C 334 795 333 774 333 754 C 332 734 328 715 322 699 C 316 683 305 670 290 660 C 275 650 253 645 225 645 C 192 645 167 651 149 664 C 131 677 123 700 123 733 C 123 753 130 773 144 793 C 158 812 178 829 204 844 C 230 859 262 871 300 881 C 338 890 380 895 428 895 C 498 895 556 886 604 870 C 652 854 690 831 719 801 C 748 771 769 735 782 693 C 794 651 801 604 801 553 L 801 172 C 801 148 807 129 819 115 C 831 101 849 94 872 94 C 886 94 899 96 909 101 C 919 106 930 113 940 123 L 977 82 Z M 639 246 L 639 473 C 571 473 511 469 459 459 C 407 449 363 435 327 417 C 291 398 264 375 246 349 C 228 322 219 292 219 258 C 219 228 223 201 233 179 C 242 156 255 137 272 122 C 289 106 309 95 333 87 C 356 79 382 76 410 76 C 436 76 463 80 490 90 C 517 100 542 113 564 129 C 586 145 604 163 618 183 C 632 203 639 224 639 246 Z M 704 1284 C 704 1268 698 1252 686 1236 C 674 1220 654 1203 624 1186 L 294 1004 L 257 1028 L 517 1305 C 539 1328 559 1343 577 1351 C 595 1358 612 1362 630 1362 C 653 1362 671 1354 684 1339 C 697 1323 704 1305 704 1284 Z" unicode="" />
<glyph horiz-adv-x="952" d="M 977 82 C 956 50 931 26 902 11 C 873 -4 845 -12 819 -12 C 800 -12 782 -9 764 -3 C 746 2 730 10 716 21 C 701 31 688 44 678 59 C 667 74 659 91 655 111 C 618 71 575 39 526 16 C 476 -6 424 -18 369 -18 C 327 -18 287 -12 249 -2 C 210 8 176 24 146 46 C 116 68 92 95 74 128 C 56 160 47 198 47 242 C 47 287 59 328 84 366 C 109 404 146 436 196 463 C 246 490 307 511 381 526 C 455 541 541 549 639 549 C 639 594 633 634 623 669 C 613 703 598 732 580 755 C 562 778 540 795 515 807 C 489 819 462 825 432 825 C 413 825 394 824 376 822 C 358 820 344 819 334 817 C 334 795 333 774 333 754 C 332 734 328 715 322 699 C 316 683 305 670 290 660 C 275 650 253 645 225 645 C 192 645 167 651 149 664 C 131 677 123 700 123 733 C 123 753 130 773 144 793 C 158 812 178 829 204 844 C 230 859 262 871 300 881 C 338 890 380 895 428 895 C 498 895 556 886 604 870 C 652 854 690 831 719 801 C 748 771 769 735 782 693 C 794 651 801 604 801 553 L 801 172 C 801 148 807 129 819 115 C 831 101 849 94 872 94 C 886 94 899 96 909 101 C 919 106 930 113 940 123 L 977 82 Z M 639 246 L 639 473 C 571 473 511 469 459 459 C 407 449 363 435 327 417 C 291 398 264 375 246 349 C 228 322 219 292 219 258 C 219 228 223 201 233 179 C 242 156 255 137 272 122 C 289 106 309 95 333 87 C 356 79 382 76 410 76 C 436 76 463 80 490 90 C 517 100 542 113 564 129 C 586 145 604 163 618 183 C 632 203 639 224 639 246 Z M 766 1004 L 710 1004 L 444 1214 L 178 1004 L 122 1004 L 385 1343 L 503 1343 L 766 1004 Z" unicode="" />
<glyph horiz-adv-x="952" d="M 977 82 C 956 50 931 26 902 11 C 873 -4 845 -12 819 -12 C 800 -12 782 -9 764 -3 C 746 2 730 10 716 21 C 701 31 688 44 678 59 C 667 74 659 91 655 111 C 618 71 575 39 526 16 C 476 -6 424 -18 369 -18 C 327 -18 287 -12 249 -2 C 210 8 176 24 146 46 C 116 68 92 95 74 128 C 56 160 47 198 47 242 C 47 287 59 328 84 366 C 109 404 146 436 196 463 C 246 490 307 511 381 526 C 455 541 541 549 639 549 C 639 594 633 634 623 669 C 613 703 598 732 580 755 C 562 778 540 795 515 807 C 489 819 462 825 432 825 C 413 825 394 824 376 822 C 358 820 344 819 334 817 C 334 795 333 774 333 754 C 332 734 328 715 322 699 C 316 683 305 670 290 660 C 275 650 253 645 225 645 C 192 645 167 651 149 664 C 131 677 123 700 123 733 C 123 753 130 773 144 793 C 158 812 178 829 204 844 C 230 859 262 871 300 881 C 338 890 380 895 428 895 C 498 895 556 886 604 870 C 652 854 690 831 719 801 C 748 771 769 735 782 693 C 794 651 801 604 801 553 L 801 172 C 801 148 807 129 819 115 C 831 101 849 94 872 94 C 886 94 899 96 909 101 C 919 106 930 113 940 123 L 977 82 Z M 639 246 L 639 473 C 571 473 511 469 459 459 C 407 449 363 435 327 417 C 291 398 264 375 246 349 C 228 322 219 292 219 258 C 219 228 223 201 233 179 C 242 156 255 137 272 122 C 289 106 309 95 333 87 C 356 79 382 76 410 76 C 436 76 463 80 490 90 C 517 100 542 113 564 129 C 586 145 604 163 618 183 C 632 203 639 224 639 246 Z M 788 1284 C 786 1253 779 1224 769 1198 C 758 1172 744 1149 727 1129 C 709 1109 689 1094 666 1083 C 642 1072 617 1067 591 1067 C 578 1067 567 1067 557 1069 C 547 1070 537 1072 527 1076 C 517 1080 505 1085 493 1091 C 481 1097 466 1104 448 1114 C 426 1126 403 1139 379 1151 C 354 1163 329 1169 304 1169 C 288 1169 273 1165 261 1159 C 248 1153 237 1144 228 1134 C 218 1124 211 1112 205 1099 C 199 1086 196 1073 194 1059 L 142 1059 C 144 1089 150 1117 161 1143 C 172 1169 187 1192 205 1212 C 223 1231 243 1246 267 1257 C 290 1268 315 1274 341 1274 C 357 1274 371 1273 383 1271 C 395 1269 406 1266 417 1262 C 427 1258 438 1254 449 1249 C 459 1243 471 1237 485 1231 C 494 1225 505 1218 517 1211 C 529 1204 541 1198 554 1192 C 566 1186 579 1181 592 1177 C 604 1173 616 1171 628 1171 C 644 1171 658 1174 670 1181 C 682 1187 693 1196 702 1207 C 711 1217 718 1229 724 1243 C 730 1256 734 1270 736 1284 L 788 1284 Z" unicode="" />
<glyph horiz-adv-x="952" d="M 977 82 C 956 50 931 26 902 11 C 873 -4 845 -12 819 -12 C 800 -12 782 -9 764 -3 C 746 2 730 10 716 21 C 701 31 688 44 678 59 C 667 74 659 91 655 111 C 618 71 575 39 526 16 C 476 -6 424 -18 369 -18 C 327 -18 287 -12 249 -2 C 210 8 176 24 146 46 C 116 68 92 95 74 128 C 56 160 47 198 47 242 C 47 287 59 328 84 366 C 109 404 146 436 196 463 C 246 490 307 511 381 526 C 455 541 541 549 639 549 C 639 594 633 634 623 669 C 613 703 598 732 580 755 C 562 778 540 795 515 807 C 489 819 462 825 432 825 C 413 825 394 824 376 822 C 358 820 344 819 334 817 C 334 795 333 774 333 754 C 332 734 328 715 322 699 C 316 683 305 670 290 660 C 275 650 253 645 225 645 C 192 645 167 651 149 664 C 131 677 123 700 123 733 C 123 753 130 773 144 793 C 158 812 178 829 204 844 C 230 859 262 871 300 881 C 338 890 380 895 428 895 C 498 895 556 886 604 870 C 652 854 690 831 719 801 C 748 771 769 735 782 693 C 794 651 801 604 801 553 L 801 172 C 801 148 807 129 819 115 C 831 101 849 94 872 94 C 886 94 899 96 909 101 C 919 106 930 113 940 123 L 977 82 Z M 639 246 L 639 473 C 571 473 511 469 459 459 C 407 449 363 435 327 417 C 291 398 264 375 246 349 C 228 322 219 292 219 258 C 219 228 223 201 233 179 C 242 156 255 137 272 122 C 289 106 309 95 333 87 C 356 79 382 76 410 76 C 436 76 463 80 490 90 C 517 100 542 113 564 129 C 586 145 604 163 618 183 C 632 203 639 224 639 246 Z M 769 1167 C 769 1153 766 1140 761 1128 C 755 1116 748 1105 738 1096 C 728 1086 717 1079 705 1073 C 692 1067 679 1065 665 1065 C 651 1065 637 1067 624 1073 C 611 1079 600 1086 591 1096 C 581 1105 574 1116 568 1128 C 562 1140 560 1153 560 1167 C 560 1180 562 1193 568 1205 C 574 1217 581 1228 591 1238 C 600 1248 611 1255 624 1261 C 637 1267 651 1270 665 1270 C 679 1270 692 1267 705 1261 C 717 1255 728 1248 738 1238 C 748 1228 755 1217 761 1205 C 766 1193 769 1180 769 1167 Z M 352 1167 C 352 1153 349 1140 343 1128 C 337 1116 330 1105 321 1096 C 311 1086 300 1079 287 1073 C 274 1067 261 1065 247 1065 C 233 1065 219 1067 207 1073 C 194 1079 183 1086 173 1096 C 163 1105 156 1116 151 1128 C 145 1140 143 1153 143 1167 C 143 1180 145 1193 151 1205 C 156 1217 163 1228 173 1238 C 183 1248 194 1255 207 1261 C 219 1267 233 1270 247 1270 C 261 1270 274 1267 287 1261 C 300 1255 311 1248 321 1238 C 330 1228 337 1217 343 1205 C 349 1193 352 1180 352 1167 Z" unicode="" />
<glyph horiz-adv-x="952" d="M 977 82 C 956 50 931 26 902 11 C 873 -4 845 -12 819 -12 C 800 -12 782 -9 764 -3 C 746 2 730 10 716 21 C 701 31 688 44 678 59 C 667 74 659 91 655 111 C 618 71 575 39 526 16 C 476 -6 424 -18 369 -18 C 327 -18 287 -12 249 -2 C 210 8 176 24 146 46 C 116 68 92 95 74 128 C 56 160 47 198 47 242 C 47 287 59 328 84 366 C 109 404 146 436 196 463 C 246 490 307 511 381 526 C 455 541 541 549 639 549 C 639 594 633 634 623 669 C 613 703 598 732 580 755 C 562 778 540 795 515 807 C 489 819 462 825 432 825 C 413 825 394 824 376 822 C 358 820 344 819 334 817 C 334 795 333 774 333 754 C 332 734 328 715 322 699 C 316 683 305 670 290 660 C 275 650 253 645 225 645 C 192 645 167 651 149 664 C 131 677 123 700 123 733 C 123 753 130 773 144 793 C 158 812 178 829 204 844 C 230 859 262 871 300 881 C 338 890 380 895 428 895 C 498 895 556 886 604 870 C 652 854 690 831 719 801 C 748 771 769 735 782 693 C 794 651 801 604 801 553 L 801 172 C 801 148 807 129 819 115 C 831 101 849 94 872 94 C 886 94 899 96 909 101 C 919 106 930 113 940 123 L 977 82 Z M 639 246 L 639 473 C 571 473 511 469 459 459 C 407 449 363 435 327 417 C 291 398 264 375 246 349 C 228 322 219 292 219 258 C 219 228 223 201 233 179 C 242 156 255 137 272 122 C 289 106 309 95 333 87 C 356 79 382 76 410 76 C 436 76 463 80 490 90 C 517 100 542 113 564 129 C 586 145 604 163 618 183 C 632 203 639 224 639 246 Z M 706 1202 C 706 1170 700 1140 688 1113 C 676 1085 660 1062 639 1042 C 618 1022 593 1006 564 995 C 534 984 502 979 466 979 C 430 979 397 984 367 995 C 337 1006 312 1021 290 1041 C 268 1061 252 1084 240 1112 C 228 1139 222 1169 222 1202 C 222 1234 228 1263 240 1291 C 252 1318 268 1342 290 1362 C 312 1382 337 1397 367 1408 C 397 1419 430 1425 466 1425 C 502 1425 534 1419 564 1408 C 593 1397 618 1382 639 1362 C 660 1342 676 1318 688 1291 C 700 1263 706 1234 706 1202 Z M 591 1202 C 591 1256 580 1298 559 1329 C 538 1360 507 1376 466 1376 C 424 1376 392 1360 370 1329 C 348 1298 337 1256 337 1202 C 337 1148 348 1106 370 1075 C 392 1043 424 1028 466 1028 C 507 1028 538 1043 559 1075 C 580 1106 591 1148 591 1202 Z" unicode="" />
</font>
</defs>
</svg>
