<?xml version="1.0" encoding="utf-8" ?><svg version="1.1" xmlns = 'http://www.w3.org/2000/svg'><defs><font id='web' horiz-adv-x="1000">
<font-face font-family="web" descent="-208" cap-height="700" units-per-em="1000" bbox="-210,-210,1222,984" x-height="500" ascent="792" />
<missing-glyph horiz-adv-x="219" d="" /><glyph horiz-adv-x="219" d="" unicode=" " />
<glyph horiz-adv-x="281" d="M 255 742 C 277 742 292 735 302 721 C 311 707 316 692 316 675 C 316 670 315 665 315 659 C 314 653 313 647 312 643 C 304 613 294 585 282 558 C 269 531 254 494 236 448 C 220 406 205 362 192 317 C 178 272 167 234 159 203 C 158 200 155 197 151 195 C 146 193 141 192 137 192 C 128 192 122 195 118 201 C 114 207 113 211 114 214 C 120 246 129 285 140 331 C 150 377 158 422 164 467 C 170 516 174 556 176 586 C 177 616 181 645 189 674 C 193 692 201 707 213 721 C 224 735 238 742 255 742 Z M 101 131 C 120 131 136 124 150 111 C 163 97 170 81 170 63 C 170 44 163 28 150 14 C 136 0 120 -6 101 -6 C 82 -6 66 0 53 14 C 40 28 34 44 34 63 C 34 81 40 97 53 111 C 66 124 82 131 101 131 Z" unicode="!" />
<glyph horiz-adv-x="399" d="M 378 740 C 394 740 408 735 418 725 C 428 715 434 702 434 686 C 434 683 433 680 433 676 C 433 672 432 669 432 666 C 430 657 425 644 418 628 C 411 611 403 592 394 572 C 384 552 374 530 364 508 C 353 485 343 463 335 442 C 332 440 330 438 328 437 C 326 436 322 436 318 436 C 312 436 308 437 305 441 C 302 445 300 448 299 451 C 301 473 303 497 305 522 C 307 546 309 570 311 592 C 313 614 315 635 317 653 C 319 671 321 684 323 693 C 326 707 333 719 343 727 C 353 735 364 740 378 740 Z M 218 740 C 234 740 248 735 258 725 C 268 715 274 702 274 686 C 274 683 273 680 273 676 C 273 672 272 669 272 666 C 270 657 265 644 258 628 C 251 611 243 592 234 572 C 224 552 214 530 204 508 C 193 485 183 463 175 442 C 172 440 170 438 168 437 C 166 436 162 436 158 436 C 152 436 148 437 145 441 C 142 445 140 448 139 451 C 141 473 143 497 145 522 C 147 546 149 570 151 592 C 153 614 155 635 157 653 C 159 671 161 684 163 693 C 166 707 173 719 183 727 C 193 735 204 740 218 740 Z" unicode="&#x22;" />
<glyph horiz-adv-x="763" d="M 559 505 L 711 505 L 684 418 L 532 418 L 487 270 L 643 270 L 616 183 L 460 183 L 402 -9 L 351 -9 L 409 183 L 282 183 L 224 -9 L 173 -9 L 231 183 L 81 183 L 108 270 L 258 270 L 303 418 L 149 418 L 176 505 L 330 505 L 385 685 L 436 685 L 381 505 L 508 505 L 563 685 L 614 685 L 559 505 Z M 436 270 L 481 418 L 354 418 L 309 270 L 436 270 Z" unicode="#" />
<glyph horiz-adv-x="529" d="M 408 683 C 441 676 471 663 497 643 C 523 623 536 594 536 557 C 536 535 530 517 518 505 C 506 493 492 487 477 487 C 461 487 447 491 435 500 C 422 509 416 522 416 538 C 416 551 420 562 428 571 C 436 580 445 588 456 594 C 452 598 445 605 435 614 C 425 623 412 630 396 635 L 334 393 C 346 387 359 380 371 374 C 383 367 396 360 408 352 C 432 335 453 314 469 290 C 485 266 494 238 494 208 C 494 180 487 154 475 128 C 463 102 445 79 423 59 C 401 39 374 23 342 11 C 310 -1 276 -7 238 -7 L 236 -7 L 203 -136 L 156 -136 L 190 -4 C 167 -1 145 3 124 11 C 102 18 83 28 67 40 C 51 52 38 68 28 86 C 18 104 14 124 14 148 C 14 170 20 189 34 203 C 48 217 64 225 82 225 C 104 225 120 219 131 209 C 142 199 148 185 148 169 C 148 155 143 143 135 131 C 127 119 114 109 98 101 C 104 90 116 79 132 67 C 148 55 172 47 202 43 L 268 311 C 259 315 249 319 239 324 C 228 329 220 333 214 337 C 188 351 165 372 144 398 C 123 424 113 455 113 493 C 113 520 119 546 131 570 C 143 594 159 614 180 632 C 200 650 225 664 254 674 C 282 684 313 689 346 689 C 348 689 351 689 354 689 C 356 689 359 688 362 688 L 376 740 L 423 740 L 408 683 Z M 292 407 L 351 641 L 345 641 C 301 641 268 628 246 602 C 224 576 213 548 213 518 C 213 502 216 485 224 468 C 232 450 245 435 264 423 C 268 420 273 417 278 415 C 282 412 287 409 292 407 Z M 247 41 C 288 43 323 57 351 83 C 379 109 394 142 394 184 C 394 198 389 216 380 236 C 370 256 353 273 328 288 C 325 289 322 290 319 292 C 316 294 313 295 310 297 L 247 41 Z" unicode="$" />
<glyph horiz-adv-x="849" d="M 694 703 L 739 672 L 228 -36 L 166 12 L 599 565 L 596 567 C 591 563 583 558 573 550 C 562 542 549 535 533 527 C 517 519 498 511 476 505 C 454 498 430 494 403 492 C 392 436 368 392 331 358 C 293 324 252 307 208 307 C 170 307 137 321 109 351 C 81 380 67 418 67 465 C 67 492 72 519 82 547 C 92 575 107 599 125 621 C 143 642 164 659 189 673 C 214 687 241 694 270 694 C 309 694 341 678 366 648 C 391 617 404 580 406 536 C 444 540 478 549 508 561 C 538 573 565 588 589 604 C 613 620 633 636 651 654 C 668 672 682 688 694 703 Z M 322 537 C 322 541 323 545 323 550 C 323 554 323 559 323 563 C 323 593 318 615 308 630 C 298 644 283 652 264 652 C 253 652 244 649 236 643 C 228 637 224 629 224 617 C 224 601 231 585 247 569 C 262 553 287 542 322 537 Z M 209 356 C 237 356 260 369 278 396 C 296 423 308 456 315 494 C 281 500 252 512 228 529 C 204 546 191 570 188 602 C 175 574 166 545 160 514 C 154 482 152 454 152 428 C 152 403 157 385 168 373 C 178 361 192 356 209 356 Z M 708 378 C 748 378 780 362 806 331 C 832 299 845 262 845 218 C 845 187 839 158 828 131 C 816 103 801 79 783 59 C 765 38 744 21 720 9 C 696 -2 671 -9 646 -9 C 608 -9 575 5 547 35 C 519 65 505 103 505 149 C 505 176 510 203 520 231 C 530 259 545 283 563 305 C 581 326 602 343 627 357 C 652 371 679 378 708 378 Z M 647 37 C 667 37 684 44 698 59 C 712 74 724 92 733 114 C 742 135 749 158 753 183 C 757 207 760 229 760 249 C 760 277 755 297 746 311 C 736 325 722 332 703 332 C 681 332 663 323 649 307 C 634 290 622 270 614 247 C 605 223 599 199 595 173 C 591 147 590 125 590 107 C 590 83 595 66 606 54 C 616 42 630 37 647 37 Z" unicode="%" />
<glyph horiz-adv-x="741" d="M 503 396 L 745 396 L 740 368 C 738 360 733 353 725 349 C 716 345 706 341 696 338 C 686 335 678 332 672 330 C 665 327 658 323 651 318 C 644 313 636 306 627 296 C 617 286 606 273 592 257 C 575 236 556 215 536 193 C 515 171 494 150 473 131 C 489 106 508 87 528 75 C 548 63 570 57 594 57 C 606 57 620 59 636 65 C 652 70 668 77 685 85 L 697 37 C 673 22 650 10 627 2 C 603 -6 574 -11 538 -11 C 507 -11 480 -3 457 11 C 433 25 412 44 394 68 C 361 44 329 25 299 11 C 268 -3 236 -11 202 -11 C 169 -11 140 -6 116 3 C 91 12 71 24 55 40 C 39 56 27 74 19 95 C 11 115 7 137 7 161 C 7 220 27 271 68 314 C 109 357 167 394 241 425 C 237 443 233 462 231 482 C 228 501 227 519 227 537 C 227 564 231 590 241 615 C 250 639 263 661 281 680 C 299 698 321 713 347 724 C 373 735 402 741 436 741 C 461 741 483 737 501 730 C 519 722 533 713 545 701 C 556 689 564 675 570 660 C 575 645 578 630 578 616 C 578 568 557 526 517 492 C 477 458 422 430 354 409 C 364 369 379 327 397 284 C 415 241 431 204 447 173 C 463 187 479 203 494 221 C 509 239 522 255 532 269 C 540 281 546 291 550 299 C 553 307 555 313 555 317 C 555 323 552 327 548 330 C 543 333 535 338 523 344 C 511 349 504 353 501 356 C 498 359 497 364 498 370 L 503 396 Z M 342 455 C 376 467 402 480 422 496 C 441 512 455 527 465 543 C 475 558 481 572 483 586 C 485 599 487 610 487 618 C 487 640 480 658 467 670 C 454 682 439 688 423 688 C 390 688 366 674 352 648 C 337 621 330 590 330 554 C 330 539 331 523 333 507 C 335 491 338 473 342 455 Z M 251 68 C 272 68 292 72 310 80 C 328 88 347 98 366 110 C 345 145 325 184 307 226 C 289 268 271 319 254 377 C 204 352 169 324 149 294 C 129 263 119 230 119 195 C 119 159 129 128 151 104 C 173 80 206 68 251 68 Z" unicode="&#x26;" />
<glyph horiz-adv-x="239" d="M 218 740 C 234 740 248 735 258 725 C 268 715 274 702 274 686 C 274 683 273 680 273 676 C 273 672 272 669 272 666 C 270 657 265 644 258 628 C 251 611 243 592 234 572 C 224 552 214 530 204 508 C 193 485 183 463 175 442 C 172 440 170 438 168 437 C 166 436 162 436 158 436 C 152 436 148 437 145 441 C 142 445 140 448 139 451 C 141 473 143 497 145 522 C 147 546 149 570 151 592 C 153 614 155 635 157 653 C 159 671 161 684 163 693 C 166 707 173 719 183 727 C 193 735 204 740 218 740 Z" unicode="'" />
<glyph horiz-adv-x="332" d="M 404 740 L 431 701 C 339 637 267 555 213 455 C 159 355 132 238 132 104 C 132 52 138 3 151 -43 C 164 -89 185 -128 214 -161 L 169 -188 C 127 -146 94 -93 70 -30 C 46 32 35 99 35 169 C 35 233 44 292 64 348 C 83 403 109 454 143 500 C 176 546 215 590 260 630 C 305 670 353 706 404 740 Z" unicode="(" />
<glyph horiz-adv-x="332" d="M 158 739 C 200 697 232 644 256 582 C 280 519 292 453 292 383 C 292 319 282 259 263 204 C 243 148 217 97 184 51 C 150 4 111 -39 66 -79 C 21 -119 -26 -155 -77 -189 L -104 -150 C -12 -86 60 -4 114 96 C 168 196 195 313 195 448 C 195 500 188 549 175 595 C 161 640 141 679 113 712 L 158 739 Z" unicode=")" />
<glyph horiz-adv-x="489" d="M 449 650 C 461 650 472 646 480 638 C 488 630 492 620 492 609 C 492 601 490 594 486 588 C 482 581 477 575 469 571 C 457 563 446 559 438 557 C 429 555 420 554 411 553 C 402 552 392 550 380 547 C 368 543 353 536 335 526 C 353 516 368 509 380 506 C 392 502 402 500 411 499 C 420 498 429 497 437 495 C 445 493 456 489 468 482 C 476 477 482 471 486 464 C 489 456 491 449 491 443 C 491 431 486 421 478 413 C 470 405 460 401 450 401 C 437 401 425 405 413 415 C 401 425 392 435 384 447 C 377 455 370 463 363 471 C 356 478 342 488 320 501 C 320 479 322 462 325 450 C 327 438 330 428 334 420 C 337 412 340 404 343 396 C 345 388 347 378 347 364 C 347 349 342 338 334 331 C 326 323 316 320 306 320 C 293 320 283 324 275 332 C 267 340 264 350 264 364 C 264 378 265 388 268 396 C 270 404 273 412 276 420 C 279 428 282 437 285 449 C 288 461 290 478 291 501 C 270 489 256 480 248 473 C 240 466 233 459 229 452 C 221 442 212 431 201 420 C 189 408 177 403 163 403 C 150 403 140 407 132 415 C 124 423 120 432 120 444 C 120 451 121 458 125 465 C 129 471 135 477 143 482 C 155 489 165 493 174 495 C 182 497 191 498 200 499 C 208 500 218 502 230 506 C 242 509 257 516 276 526 C 257 536 242 542 230 546 C 218 549 208 551 200 553 C 191 555 182 556 174 558 C 166 560 156 564 144 572 C 135 576 129 582 126 589 C 122 596 121 603 121 610 C 121 621 125 631 133 639 C 141 647 151 652 162 652 C 174 652 186 647 198 637 C 210 627 220 617 228 606 C 234 597 241 589 248 581 C 254 573 269 564 292 552 C 291 574 289 590 286 602 C 283 614 280 624 277 632 C 274 640 271 648 269 656 C 266 664 265 675 265 689 C 265 703 269 714 277 722 C 285 729 295 733 306 733 C 318 733 328 729 336 721 C 344 713 348 702 348 689 C 348 675 346 664 344 656 C 341 648 338 640 335 632 C 331 624 328 614 326 602 C 323 590 321 574 321 552 C 341 563 356 572 364 579 C 372 586 378 593 383 601 C 390 611 399 621 411 633 C 422 644 435 650 449 650 Z" unicode="*" />
<glyph horiz-adv-x="745" d="M 648 329 L 648 257 L 424 257 L 424 35 L 350 35 L 350 257 L 126 257 L 126 329 L 350 329 L 350 551 L 424 551 L 424 329 L 648 329 Z" unicode="+" />
<glyph horiz-adv-x="243" d="M 93 130 C 115 130 131 123 143 110 C 154 97 160 81 160 61 C 160 43 156 25 150 5 C 143 -14 133 -33 119 -52 C 105 -70 88 -88 67 -105 C 45 -122 20 -137 -8 -150 L -34 -115 C -10 -100 12 -84 34 -66 C 56 -48 73 -26 85 0 C 60 4 43 12 35 23 C 26 34 22 46 22 59 C 22 81 29 98 45 111 C 60 123 76 130 93 130 Z" unicode="," />
<glyph horiz-adv-x="306" d="M 56 266 L 281 266 L 257 180 L 32 180 L 56 266 Z" unicode="-" />
<glyph horiz-adv-x="243" d="M 90 131 C 109 131 125 124 139 111 C 152 97 159 81 159 63 C 159 44 152 28 139 14 C 125 0 109 -6 90 -6 C 71 -6 55 0 42 14 C 29 28 23 44 23 63 C 23 81 29 97 42 111 C 55 124 71 131 90 131 Z" unicode="." />
<glyph horiz-adv-x="439" d="M 442 730 L 520 730 L -38 -190 L -115 -190 L 442 730 Z" unicode="/" />
<glyph horiz-adv-x="575" d="M 366 694 C 428 694 477 670 514 623 C 550 575 569 513 569 436 C 569 381 560 327 544 274 C 528 220 505 173 477 131 C 448 89 414 56 376 30 C 338 4 297 -9 253 -9 C 191 -9 142 14 105 60 C 68 106 50 169 50 249 C 50 303 58 357 74 411 C 90 465 113 512 141 554 C 169 596 203 629 242 655 C 280 681 322 694 366 694 Z M 254 48 C 287 48 317 63 343 93 C 369 123 390 160 408 205 C 426 249 439 298 448 350 C 457 402 462 451 462 496 C 462 545 453 581 436 604 C 418 626 394 638 364 638 C 330 638 301 622 275 592 C 249 562 227 524 209 479 C 191 434 178 385 169 333 C 160 280 156 232 156 189 C 156 139 164 103 182 81 C 199 59 223 48 254 48 Z" unicode="0" />
<glyph horiz-adv-x="383" d="M 309 687 L 365 687 L 223 116 C 221 108 219 101 218 95 C 217 89 217 85 217 83 C 217 74 220 68 226 64 C 232 60 241 56 252 53 C 257 51 264 48 274 45 C 283 42 288 38 288 34 C 288 31 287 28 287 26 C 286 24 285 21 285 19 L 280 0 L 9 0 L 16 28 C 17 34 22 39 30 41 C 38 43 48 47 61 52 C 75 57 87 62 95 66 C 103 70 109 79 113 92 L 236 584 L 130 584 L 141 627 L 309 687 Z" unicode="1" />
<glyph horiz-adv-x="490" d="M 296 694 C 326 694 354 689 379 680 C 404 671 426 659 444 644 C 462 629 476 611 486 591 C 496 571 501 549 501 527 C 501 491 493 459 477 431 C 461 403 442 378 419 356 C 395 334 370 314 343 296 C 315 278 290 260 268 244 C 224 212 188 185 159 163 C 129 141 103 119 79 97 L 310 97 C 328 97 342 100 354 108 C 366 115 377 129 389 149 C 393 157 398 162 402 164 C 406 166 411 167 417 167 L 452 167 L 405 0 L -29 0 L -10 80 C 2 94 18 110 37 129 C 56 148 76 168 98 188 C 120 208 142 229 165 249 C 188 269 210 287 231 304 C 285 347 324 386 349 422 C 374 458 387 495 387 533 C 387 561 376 586 356 606 C 335 626 309 637 277 637 C 254 637 232 632 212 624 C 191 615 177 604 169 592 C 177 584 183 575 189 565 C 195 555 198 545 198 533 C 198 515 192 501 181 490 C 169 479 155 474 139 474 C 117 474 101 480 90 493 C 78 506 73 523 73 543 C 73 561 78 580 90 598 C 102 616 118 632 138 646 C 158 660 182 672 209 681 C 236 689 265 694 296 694 Z" unicode="2" />
<glyph horiz-adv-x="494" d="M 295 694 C 323 694 350 690 375 683 C 400 675 422 665 440 652 C 458 638 472 623 483 605 C 493 587 499 567 499 547 C 499 524 494 503 485 484 C 475 464 463 447 447 432 C 431 417 412 404 391 394 C 369 383 347 375 324 370 C 360 359 392 341 419 315 C 446 289 460 255 460 214 C 460 180 452 150 438 122 C 423 94 403 71 379 52 C 355 32 326 17 293 7 C 260 -3 226 -9 190 -9 C 130 -9 81 4 43 30 C 4 56 -15 89 -15 129 C -15 147 -9 163 2 178 C 13 192 29 200 50 200 C 70 200 85 194 96 184 C 107 173 113 161 113 148 C 113 134 110 122 105 113 C 100 103 93 95 85 87 C 91 76 102 67 119 59 C 136 51 158 47 184 47 C 210 47 233 51 254 61 C 274 71 291 84 305 100 C 319 116 329 135 337 157 C 344 178 348 200 348 224 C 348 262 332 291 301 312 C 269 333 225 345 169 347 L 182 403 C 252 403 304 415 337 440 C 370 464 387 500 387 548 C 387 572 377 593 359 611 C 340 629 313 638 279 638 C 260 638 243 635 228 630 C 213 624 201 618 193 612 C 199 605 204 598 208 591 C 211 584 213 576 213 568 C 213 551 207 537 197 527 C 187 516 173 511 156 511 C 138 511 123 516 111 527 C 99 537 94 553 94 574 C 94 591 100 607 112 622 C 124 636 139 649 159 660 C 178 670 200 679 224 685 C 248 691 271 694 295 694 Z" unicode="3" />
<glyph horiz-adv-x="508" d="M 440 693 L 507 693 L 394 241 L 495 241 L 479 175 L 378 175 L 361 107 C 359 101 358 96 357 90 C 355 84 355 80 355 78 C 355 71 357 66 363 62 C 368 58 374 54 382 50 C 384 48 388 46 392 43 C 396 39 398 36 398 34 C 398 32 397 30 396 26 C 395 22 394 19 394 16 L 390 0 L 182 0 L 189 28 C 189 32 192 36 196 39 C 200 41 207 45 218 50 C 230 56 239 61 244 66 C 248 70 252 79 255 91 L 276 175 L -10 175 L 8 249 L 440 693 Z M 292 241 L 367 543 L 74 241 L 292 241 Z" unicode="4" />
<glyph horiz-adv-x="499" d="M 528 729 L 561 729 L 517 588 L 217 588 L 153 395 C 174 407 195 416 216 423 C 236 430 258 434 282 434 C 314 434 342 428 367 417 C 391 406 412 392 429 374 C 445 356 458 336 466 314 C 474 291 479 268 479 245 C 479 207 471 173 456 142 C 441 111 421 84 396 62 C 371 40 342 22 308 10 C 274 -2 240 -9 204 -9 C 143 -9 94 4 57 31 C 19 58 1 91 1 130 C 1 146 6 162 18 178 C 30 194 46 202 67 202 C 86 202 101 196 112 186 C 122 175 128 163 128 151 C 128 136 125 124 119 115 C 113 105 107 96 101 88 C 106 77 117 67 135 59 C 153 50 173 46 196 46 C 223 46 247 51 269 63 C 290 74 308 89 322 107 C 336 125 346 146 354 170 C 361 193 365 216 365 240 C 365 274 354 303 334 328 C 314 353 283 366 243 366 C 216 366 193 360 174 348 C 154 336 133 324 111 310 L 76 341 L 183 684 L 447 684 C 464 684 476 685 482 689 C 488 692 494 699 501 710 C 505 717 510 722 514 725 C 518 727 522 729 528 729 Z" unicode="5" />
<glyph horiz-adv-x="545" d="M 401 694 C 447 694 485 684 514 664 C 543 644 558 621 558 594 C 558 573 551 556 539 542 C 526 528 510 521 492 521 C 474 521 460 525 451 535 C 441 545 437 557 437 572 C 437 580 438 589 440 599 C 442 609 444 617 446 624 C 441 626 434 629 424 633 C 414 636 402 638 389 638 C 369 638 349 633 328 623 C 307 613 287 597 268 576 C 249 554 231 527 215 493 C 198 459 184 418 174 371 C 196 386 221 399 249 410 C 277 421 306 427 337 427 C 365 427 391 422 414 412 C 437 402 456 389 472 373 C 488 357 500 338 508 316 C 516 294 521 270 521 246 C 521 215 514 184 502 154 C 489 123 471 96 449 72 C 426 48 398 28 366 13 C 334 -1 298 -9 259 -9 C 224 -9 193 -2 167 10 C 140 22 118 40 100 62 C 82 84 69 110 60 141 C 51 172 47 206 47 242 C 47 297 55 352 73 406 C 91 460 115 509 147 551 C 179 593 216 628 260 654 C 303 680 350 694 401 694 Z M 259 46 C 283 46 305 52 323 64 C 341 76 357 92 369 112 C 381 131 391 153 397 177 C 403 201 406 224 406 247 C 406 277 397 302 380 324 C 362 346 336 357 302 357 C 272 357 243 350 216 336 C 189 322 171 311 162 302 C 159 286 157 271 155 257 C 153 243 152 228 152 214 C 152 191 154 169 158 149 C 162 129 168 111 177 96 C 185 80 196 68 210 59 C 224 50 240 46 259 46 Z" unicode="6" />
<glyph horiz-adv-x="449" d="M 234 684 L 542 684 L 527 626 C 489 577 453 531 419 488 C 385 444 355 401 329 359 C 303 316 281 272 263 227 C 245 182 232 134 224 82 C 219 50 211 27 199 13 C 187 -1 170 -9 149 -9 C 131 -9 118 -4 108 4 C 98 12 94 27 94 48 C 94 76 105 113 129 159 C 152 205 183 256 221 312 C 253 360 288 408 325 458 C 361 507 395 550 427 588 L 178 588 C 160 588 148 583 140 575 C 132 567 125 557 119 546 C 114 539 110 534 106 532 C 102 530 97 529 92 529 L 55 529 L 106 690 C 120 688 140 686 165 685 C 190 684 213 684 234 684 Z" unicode="7" />
<glyph horiz-adv-x="515" d="M 334 694 C 391 694 437 679 472 650 C 506 621 524 586 524 546 C 524 526 519 506 510 488 C 501 469 490 452 476 437 C 462 422 445 409 427 397 C 408 385 389 376 371 370 C 408 346 438 322 461 297 C 483 271 495 241 495 205 C 495 172 487 142 473 116 C 459 89 440 66 417 48 C 393 29 366 15 335 5 C 303 -5 271 -10 237 -10 C 169 -10 115 6 75 38 C 34 70 14 111 14 159 C 14 185 19 209 30 231 C 41 253 55 272 73 289 C 90 305 109 320 130 332 C 151 344 172 354 192 361 C 168 379 148 400 133 422 C 117 444 110 468 110 495 C 110 523 116 549 128 573 C 140 597 157 618 177 636 C 197 654 221 668 249 678 C 276 688 304 694 334 694 Z M 318 402 C 346 412 373 430 397 455 C 421 479 433 510 433 546 C 433 572 423 593 403 611 C 383 629 358 638 328 638 C 294 638 265 627 242 605 C 218 583 207 557 207 527 C 207 499 218 476 240 456 C 262 436 288 418 318 402 Z M 241 46 C 281 46 317 58 347 83 C 377 108 392 140 392 178 C 392 211 377 239 349 261 C 320 283 287 305 249 326 C 236 321 221 315 205 307 C 189 299 173 288 159 275 C 145 261 133 245 123 226 C 113 207 109 185 109 160 C 109 127 121 100 146 78 C 170 56 202 46 241 46 Z" unicode="8" />
<glyph horiz-adv-x="545" d="M 324 694 C 359 694 390 687 417 675 C 443 662 465 644 483 622 C 501 600 514 573 523 543 C 532 512 537 479 537 444 C 537 390 528 335 511 281 C 494 227 470 178 439 136 C 408 93 371 58 327 31 C 283 4 234 -9 181 -9 C 126 -9 85 1 58 23 C 30 44 17 68 17 95 C 17 115 23 131 36 145 C 49 159 65 166 85 166 C 101 166 114 161 124 153 C 133 144 138 132 138 118 C 138 112 137 104 135 94 C 133 83 131 72 129 62 C 133 58 141 55 153 52 C 165 48 178 47 193 47 C 235 47 277 67 317 109 C 357 151 389 220 412 316 C 389 299 363 285 335 274 C 306 262 276 257 246 257 C 192 257 148 274 115 308 C 81 342 65 386 65 439 C 65 471 71 503 85 534 C 98 564 116 591 140 615 C 163 639 190 658 222 672 C 254 686 288 694 324 694 Z M 423 384 C 425 400 428 415 430 431 C 432 447 433 462 433 477 C 433 521 424 558 407 590 C 390 622 363 638 325 638 C 303 638 283 631 265 619 C 247 607 231 591 219 572 C 206 553 196 531 189 507 C 182 483 179 459 179 436 C 179 403 187 377 205 357 C 222 337 248 328 284 328 C 313 328 341 334 368 348 C 394 362 413 374 423 384 Z" unicode="9" />
<glyph horiz-adv-x="277" d="M 172 437 C 191 437 207 430 221 417 C 234 403 241 387 241 369 C 241 350 234 334 221 320 C 207 306 191 300 172 300 C 153 300 137 306 124 320 C 111 334 105 350 105 369 C 105 387 111 403 124 417 C 137 430 153 437 172 437 Z M 101 131 C 120 131 136 124 150 111 C 163 97 170 81 170 63 C 170 44 163 28 150 14 C 136 0 120 -6 101 -6 C 82 -6 66 0 53 14 C 40 28 34 44 34 63 C 34 81 40 97 53 111 C 66 124 82 131 101 131 Z" unicode=":" />
<glyph horiz-adv-x="277" d="M 172 437 C 191 437 207 430 221 417 C 234 403 241 387 241 369 C 241 350 234 334 221 320 C 207 306 191 300 172 300 C 153 300 137 306 124 320 C 111 334 105 350 105 369 C 105 387 111 403 124 417 C 137 430 153 437 172 437 Z M 104 130 C 126 130 142 123 154 110 C 165 97 171 81 171 61 C 171 43 167 25 161 5 C 154 -14 144 -33 130 -52 C 116 -70 99 -88 78 -105 C 56 -122 31 -137 3 -150 L -23 -115 C 0 -100 23 -84 45 -66 C 67 -48 84 -26 96 0 C 71 4 54 12 46 23 C 37 34 33 46 33 59 C 33 81 40 98 56 111 C 71 123 87 130 104 130 Z" unicode=";" />
<glyph horiz-adv-x="745" d="M 646 104 L 646 22 L 130 257 L 130 329 L 646 564 L 646 482 L 222 293 L 646 104 Z" unicode="&#x3C;" />
<glyph horiz-adv-x="745" d="M 644 406 L 644 332 L 132 332 L 132 406 L 644 406 Z M 644 218 L 644 144 L 132 144 L 132 218 L 644 218 Z" unicode="=" />
<glyph horiz-adv-x="745" d="M 649 329 L 649 257 L 133 22 L 133 104 L 557 293 L 133 482 L 133 564 L 649 329 Z" unicode="&#x3E;" />
<glyph horiz-adv-x="422" d="M 274 740 C 297 740 319 736 341 730 C 363 724 382 715 398 703 C 414 691 428 675 438 657 C 448 639 453 618 453 595 C 453 557 442 526 421 500 C 400 474 372 445 336 415 C 290 376 258 341 241 310 C 223 278 210 243 202 205 C 201 202 198 199 192 196 C 186 192 180 191 173 191 C 164 191 157 193 153 198 C 148 203 146 207 147 210 C 151 239 161 272 177 309 C 193 346 215 384 244 422 C 261 444 276 463 288 479 C 300 495 311 509 319 523 C 327 536 332 549 336 563 C 340 576 342 592 342 610 C 342 640 334 662 319 674 C 303 686 286 693 267 693 C 255 693 243 690 230 685 C 216 679 206 672 199 663 C 206 654 211 646 214 639 C 216 632 218 626 218 621 C 218 601 212 585 201 575 C 190 564 177 559 161 559 C 140 559 124 565 113 577 C 102 589 97 603 97 620 C 97 634 101 649 109 663 C 117 677 129 690 144 702 C 159 713 178 722 200 729 C 222 736 246 740 274 740 Z M 154 131 C 173 131 189 124 203 111 C 216 97 223 81 223 63 C 223 44 216 28 203 14 C 189 0 173 -6 154 -6 C 135 -6 119 0 106 14 C 93 28 87 44 87 63 C 87 81 93 97 106 111 C 119 124 135 131 154 131 Z" unicode="?" />
<glyph horiz-adv-x="945" d="M 551 635 C 603 635 651 627 694 612 C 737 597 774 576 804 550 C 834 524 857 492 874 455 C 890 417 899 376 899 332 C 899 289 891 247 876 206 C 860 165 840 129 814 97 C 788 65 757 40 721 21 C 685 1 648 -8 608 -8 C 580 -8 561 0 551 13 C 541 27 535 42 535 57 C 514 39 493 25 472 14 C 451 2 426 -3 396 -3 C 358 -3 329 8 310 31 C 291 54 282 86 282 128 C 282 170 293 212 317 254 C 340 296 369 332 403 363 C 427 384 453 401 480 413 C 506 425 533 431 560 431 C 580 431 596 428 610 422 C 624 416 635 407 645 395 L 678 424 L 728 424 L 645 140 C 642 129 639 118 636 106 C 632 94 631 85 631 79 C 631 67 632 58 636 54 C 639 49 645 47 654 47 C 678 47 701 55 724 71 C 747 87 767 109 785 135 C 803 161 817 192 828 226 C 838 260 844 296 844 332 C 844 366 837 399 825 430 C 812 460 793 487 769 510 C 745 533 715 551 680 565 C 644 578 604 585 559 585 C 501 585 446 573 396 550 C 346 527 302 496 266 457 C 230 418 201 373 181 321 C 160 269 150 214 150 157 C 150 109 157 66 173 28 C 188 -10 210 -43 238 -70 C 266 -97 300 -118 340 -133 C 380 -148 424 -156 474 -156 C 530 -156 583 -148 631 -133 C 679 -118 725 -97 767 -69 L 785 -109 C 737 -141 687 -166 634 -183 C 580 -199 526 -208 472 -208 C 410 -208 353 -199 303 -181 C 252 -163 209 -137 174 -105 C 138 -72 111 -33 92 13 C 73 59 64 109 64 164 C 64 226 76 285 102 342 C 128 399 162 449 206 492 C 250 535 301 570 361 596 C 421 622 484 635 551 635 Z M 584 271 C 587 281 591 295 595 312 C 599 328 602 341 602 349 C 602 362 598 372 591 378 C 583 384 574 387 563 387 C 546 387 529 382 513 372 C 497 362 481 348 467 330 C 444 302 425 269 409 231 C 393 193 386 159 386 129 C 386 104 390 86 400 74 C 409 62 424 56 446 56 C 458 56 472 60 488 68 C 503 76 516 86 528 99 L 584 271 Z" unicode="@" />
<glyph horiz-adv-x="679" d="M 614 50 C 620 47 625 44 629 42 C 633 39 635 36 635 34 C 635 31 634 28 634 26 C 633 24 632 21 632 19 L 627 0 L 399 0 L 406 28 C 407 32 409 36 413 39 C 416 41 424 45 436 51 C 446 55 453 59 457 63 C 461 67 463 71 463 76 C 463 80 462 86 462 92 C 462 98 461 104 461 111 L 449 202 L 171 202 L 124 131 C 116 119 110 108 104 97 C 98 85 95 77 95 72 C 95 67 96 63 100 60 C 104 57 109 54 117 50 C 123 47 128 44 132 42 C 136 39 138 36 138 34 C 138 31 137 28 137 26 C 136 24 135 21 135 19 L 130 0 L -74 0 L -67 28 C -65 32 -63 36 -59 38 C -55 40 -48 45 -38 51 C -21 59 -9 67 -2 73 C 5 79 14 91 26 108 L 379 634 L 370 678 C 369 681 369 684 369 686 C 369 688 369 690 369 692 C 369 694 370 696 372 698 C 374 700 377 702 381 704 C 393 708 404 713 414 718 C 424 722 435 728 448 735 C 450 736 453 737 456 739 C 459 740 462 741 464 741 C 468 741 471 740 473 738 C 475 736 476 733 477 730 L 575 91 C 576 80 581 71 590 65 C 598 59 606 54 614 50 Z M 207 259 L 440 259 L 396 550 L 207 259 Z" unicode="A" />
<glyph horiz-adv-x="622" d="M 392 730 C 467 730 522 715 558 685 C 594 655 612 618 612 576 C 612 531 595 491 563 456 C 530 420 486 396 430 384 C 475 375 512 357 541 329 C 570 301 585 266 585 222 C 585 190 578 160 564 133 C 550 105 531 82 506 62 C 480 42 449 27 413 16 C 376 5 335 0 290 0 L -28 0 L -21 28 C -19 34 -17 38 -14 40 C -10 42 -3 45 9 51 C 23 57 31 63 35 67 C 38 71 41 79 44 91 L 175 614 C 177 622 178 629 179 635 C 180 641 181 646 181 648 C 181 656 178 663 174 667 C 169 671 163 676 156 680 C 150 682 145 685 141 688 C 137 690 135 693 135 696 C 135 698 135 701 136 703 C 136 705 137 708 138 711 L 143 730 L 392 730 Z M 310 409 C 372 409 417 424 446 455 C 475 485 490 525 490 574 C 490 604 479 629 457 647 C 435 665 398 674 348 674 L 301 674 L 235 409 L 310 409 Z M 254 57 C 328 57 380 72 412 103 C 444 133 460 178 460 236 C 460 274 446 303 419 322 C 392 340 348 350 286 350 L 220 350 L 147 57 L 254 57 Z" unicode="B" />
<glyph horiz-adv-x="624" d="M 652 700 L 683 700 L 637 515 L 605 515 C 598 515 593 517 590 521 C 587 525 585 529 585 534 C 580 578 565 613 539 641 C 513 669 477 683 433 683 C 396 683 361 671 329 649 C 296 627 268 597 244 560 C 220 523 200 480 186 431 C 172 382 165 331 165 279 C 165 201 182 144 216 107 C 250 70 292 52 343 52 C 371 52 398 56 423 65 C 447 74 469 85 488 98 C 507 110 523 123 537 136 C 551 149 561 160 569 168 L 602 122 C 592 108 578 93 561 78 C 543 62 523 48 501 35 C 478 21 453 10 425 2 C 397 -6 366 -11 334 -11 C 286 -11 244 -2 208 13 C 172 29 142 52 118 80 C 94 108 77 142 65 180 C 53 218 48 259 48 303 C 48 369 59 429 81 483 C 103 537 131 583 166 621 C 201 659 241 688 286 709 C 330 730 375 741 421 741 C 469 741 505 736 529 726 C 553 716 578 705 603 691 C 607 689 610 687 613 685 C 615 683 619 684 624 687 C 632 691 638 695 641 697 C 643 699 647 700 652 700 Z" unicode="C" />
<glyph horiz-adv-x="697" d="M 361 730 C 415 730 462 722 504 708 C 546 694 581 674 609 649 C 637 623 658 592 673 556 C 687 520 695 480 695 436 C 695 371 683 311 661 257 C 639 203 609 157 571 120 C 529 78 481 48 427 29 C 373 9 316 0 256 0 L -28 0 L -21 28 C -19 34 -17 38 -14 40 C -10 42 -3 45 9 51 C 23 57 31 63 35 67 C 38 71 41 79 44 91 L 175 614 C 177 622 178 629 179 635 C 180 641 181 646 181 648 C 181 656 178 663 174 667 C 169 671 163 676 156 680 C 150 682 145 685 141 688 C 137 690 135 693 135 696 C 135 698 135 701 136 703 C 136 705 137 708 138 711 L 143 730 L 361 730 Z M 479 149 C 510 183 534 226 551 278 C 568 330 577 390 577 456 C 577 528 555 583 513 619 C 471 655 412 673 337 673 L 301 673 L 147 57 L 239 57 C 287 57 330 63 370 76 C 409 88 445 113 479 149 Z" unicode="D" />
<glyph horiz-adv-x="583" d="M 522 730 C 528 730 537 730 548 731 C 558 731 569 732 579 733 C 589 733 599 734 609 735 C 618 735 625 736 630 737 L 591 581 L 569 581 C 560 581 554 582 551 585 C 548 587 546 591 546 597 C 543 612 540 625 538 635 C 535 645 531 652 525 658 C 519 663 511 667 500 669 C 488 671 473 672 454 672 L 301 672 L 234 403 L 315 403 C 335 403 350 406 360 413 C 370 419 381 431 393 448 C 397 453 401 457 406 461 C 410 464 417 466 426 466 L 453 466 L 406 277 L 380 277 C 372 277 366 279 362 284 C 358 288 356 293 356 298 C 352 315 347 327 341 334 C 335 340 323 344 307 344 L 220 344 L 148 58 L 335 58 C 369 58 396 64 415 78 C 433 92 455 116 479 152 C 483 158 486 163 490 167 C 494 170 499 172 506 172 L 537 172 L 494 0 L -28 0 L -21 28 C -19 34 -17 38 -14 40 C -10 42 -3 45 9 51 C 23 57 31 62 35 66 C 38 70 41 78 44 91 L 175 614 C 177 622 178 629 179 635 C 180 641 181 646 181 648 C 181 656 178 663 174 667 C 169 671 163 676 156 680 C 150 682 145 685 141 688 C 137 690 135 693 135 696 C 135 698 135 701 136 703 C 136 705 137 708 138 711 L 143 730 L 522 730 Z" unicode="E" />
<glyph horiz-adv-x="560" d="M 554 730 C 573 730 594 731 616 733 C 638 735 653 736 662 737 L 623 580 L 597 580 C 589 580 583 581 581 583 C 578 585 576 590 576 596 C 574 624 567 644 557 655 C 546 666 522 672 484 672 L 301 672 L 233 400 L 337 400 C 355 400 369 402 380 408 C 390 414 402 426 416 445 C 420 451 424 455 429 458 C 434 461 441 463 450 463 L 475 463 L 428 274 L 405 274 C 398 274 392 276 388 281 C 384 285 381 290 381 295 C 377 313 370 326 361 332 C 352 338 341 341 328 341 L 218 341 L 162 116 C 160 108 158 101 157 95 C 156 88 156 84 156 82 C 156 73 158 66 163 62 C 167 58 173 54 181 50 C 187 47 192 44 196 42 C 200 39 202 36 202 34 C 202 31 201 28 201 26 C 200 24 199 21 199 19 L 194 0 L -28 0 L -21 28 C -19 34 -17 38 -14 40 C -10 42 -3 45 9 51 C 23 57 31 62 35 66 C 38 70 41 78 44 91 L 175 614 C 177 622 178 629 179 635 C 180 641 181 646 181 648 C 181 656 178 663 174 667 C 169 671 163 676 156 680 C 150 682 145 685 141 688 C 137 690 135 693 135 696 C 135 698 135 701 136 703 C 136 705 137 708 138 711 L 143 730 L 554 730 Z" unicode="F" />
<glyph horiz-adv-x="701" d="M 668 695 L 700 695 L 653 513 L 622 513 C 615 513 610 514 607 518 C 604 522 602 526 602 532 C 596 578 579 614 551 642 C 523 669 486 683 439 683 C 400 683 364 672 331 650 C 297 628 268 598 244 562 C 219 526 200 484 186 436 C 172 388 165 339 165 289 C 165 213 184 154 224 110 C 264 66 315 44 379 44 C 419 44 447 51 461 67 C 475 82 485 102 492 128 L 511 205 C 513 213 514 220 515 226 C 516 232 517 237 517 239 C 517 247 514 254 509 258 C 504 262 498 267 491 271 C 485 273 480 276 476 279 C 472 281 470 284 470 287 C 470 289 470 292 471 294 C 471 296 472 299 473 302 L 478 321 L 655 321 C 650 309 645 297 640 284 C 635 270 632 260 630 252 L 604 147 C 603 143 602 138 601 133 C 599 128 599 123 599 119 C 599 114 601 110 605 108 C 609 106 613 104 618 102 C 626 99 633 96 637 94 C 641 91 643 88 643 86 C 643 85 642 83 642 80 C 641 76 640 73 640 71 L 636 55 C 600 40 560 25 517 11 C 473 -3 427 -11 377 -11 C 321 -11 272 -2 231 15 C 189 32 155 55 128 85 C 101 114 81 148 68 186 C 54 224 48 265 48 307 C 48 365 58 421 79 474 C 100 527 128 573 164 613 C 200 652 241 683 289 706 C 337 729 387 741 440 741 C 478 741 510 736 537 728 C 564 719 592 706 621 689 C 627 685 631 683 633 682 C 635 680 638 680 641 682 C 649 686 655 690 658 692 C 660 694 664 695 668 695 Z" unicode="G" />
<glyph horiz-adv-x="742" d="M 590 730 L 812 730 L 805 702 C 803 696 801 692 798 690 C 794 688 787 684 775 679 C 761 672 752 667 749 663 C 745 659 742 650 740 638 L 609 116 C 607 108 605 101 604 95 C 603 88 603 84 603 82 C 603 73 605 66 610 62 C 614 58 620 54 628 50 C 634 47 639 44 643 42 C 647 39 649 36 649 34 C 649 31 648 28 648 26 C 647 24 646 21 646 19 L 641 0 L 419 0 L 426 28 C 427 34 429 38 433 40 C 436 42 444 45 456 51 C 470 57 478 62 482 66 C 485 70 488 78 491 91 L 555 346 L 220 346 L 162 116 C 160 108 158 100 157 94 C 156 88 156 84 156 82 C 156 73 158 66 163 62 C 167 58 173 54 181 50 C 187 47 192 44 196 42 C 200 39 202 36 202 34 C 202 31 201 28 201 26 C 200 24 199 21 199 19 L 194 0 L -28 0 L -21 28 C -19 34 -17 38 -14 40 C -10 42 -3 45 9 51 C 23 57 31 63 35 67 C 38 71 41 79 44 91 L 175 614 C 177 622 178 629 179 635 C 180 641 181 646 181 648 C 181 656 178 663 174 667 C 169 671 163 676 156 680 C 150 682 145 685 141 688 C 137 690 135 693 135 696 C 135 698 135 701 136 703 C 136 705 137 708 138 711 L 143 730 L 365 730 L 358 702 C 356 696 354 692 351 690 C 347 688 340 684 328 679 C 314 672 305 666 302 662 C 298 658 295 650 293 638 L 235 406 L 570 406 L 622 614 C 624 621 625 628 626 635 C 627 641 628 646 628 648 C 628 656 625 663 621 667 C 616 671 610 676 603 680 C 597 682 592 685 588 688 C 584 690 582 693 582 696 C 582 698 582 701 583 703 C 583 705 584 708 585 711 L 590 730 Z" unicode="H" />
<glyph horiz-adv-x="301" d="M 145 730 L 369 730 L 362 702 C 360 696 358 692 355 690 C 351 688 344 684 332 679 C 318 672 309 666 305 662 C 301 658 298 650 296 638 L 165 116 C 163 108 161 100 160 94 C 159 88 159 84 159 82 C 159 73 161 66 166 62 C 171 58 177 54 185 50 C 191 47 196 44 200 42 C 204 39 206 36 206 34 C 206 31 205 28 205 26 C 204 24 203 21 203 19 L 198 0 L -26 0 L -19 28 C -17 34 -15 38 -12 40 C -8 42 -1 45 11 51 C 25 57 33 63 37 67 C 41 71 44 79 47 91 L 178 614 C 180 622 181 629 182 635 C 183 641 184 646 184 648 C 184 656 181 663 176 667 C 171 671 165 676 158 680 C 152 682 147 685 143 688 C 139 690 137 693 137 696 C 137 698 137 701 138 703 C 138 705 139 708 140 711 L 145 730 Z" unicode="I" />
<glyph horiz-adv-x="450" d="M 298 730 L 524 730 L 517 702 C 515 696 513 692 510 690 C 506 688 499 684 487 679 C 473 672 464 666 461 661 C 457 656 454 648 452 636 L 349 203 C 334 140 304 89 260 49 C 216 9 161 -11 95 -11 C 50 -11 16 0 -8 21 C -32 43 -44 67 -44 94 C -44 115 -38 134 -26 151 C -14 168 3 177 26 177 C 44 177 58 172 68 162 C 78 152 83 140 83 126 C 83 114 80 103 75 93 C 70 83 62 74 51 68 C 53 61 60 54 71 48 C 81 42 92 39 104 39 C 128 39 152 48 175 66 C 198 84 215 117 226 163 L 334 614 C 336 621 337 628 338 635 C 339 641 340 646 340 648 C 340 656 337 663 331 667 C 325 671 318 676 311 680 C 305 682 300 685 296 688 C 292 690 290 693 290 696 C 290 698 290 701 291 703 C 291 705 292 708 293 711 L 298 730 Z" unicode="J" />
<glyph horiz-adv-x="663" d="M 497 730 L 732 730 L 724 700 C 722 693 718 688 714 686 C 710 683 698 679 680 673 C 664 668 650 662 638 654 C 626 646 612 636 595 623 L 318 407 L 526 109 C 540 88 554 74 567 67 C 580 60 591 54 601 50 C 607 47 612 44 616 42 C 620 39 622 36 622 34 C 622 31 621 28 621 26 C 620 23 619 21 619 19 L 614 0 L 372 0 L 379 30 C 379 34 381 38 385 40 C 388 42 395 46 406 51 C 409 52 412 54 416 57 C 419 60 421 63 421 66 C 421 68 419 72 417 78 C 414 84 412 88 410 91 L 223 360 L 162 116 C 160 108 158 100 157 94 C 156 88 156 84 156 82 C 156 73 158 66 163 62 C 167 58 173 54 181 50 C 187 47 192 44 196 42 C 200 39 202 36 202 34 C 202 31 201 28 201 26 C 200 24 199 21 199 19 L 194 0 L -28 0 L -21 28 C -19 34 -17 38 -14 40 C -10 42 -3 45 9 51 C 23 57 31 63 35 67 C 38 71 41 79 44 91 L 175 614 C 177 622 178 629 179 635 C 180 641 181 646 181 648 C 181 656 178 663 174 667 C 169 671 163 676 156 680 C 150 682 145 685 141 688 C 137 690 135 693 135 696 C 135 698 135 701 136 703 C 136 705 137 708 138 711 L 143 730 L 365 730 L 358 702 C 356 696 354 692 351 690 C 347 688 340 684 328 679 C 314 672 305 666 302 662 C 298 658 295 650 293 638 L 235 412 L 466 600 C 484 614 498 627 510 639 C 521 650 527 657 527 661 C 527 665 525 669 523 672 C 520 674 516 677 510 680 C 504 682 499 685 495 688 C 491 690 489 693 489 696 C 489 698 489 701 490 703 C 490 705 491 708 492 711 L 497 730 Z" unicode="K" />
<glyph horiz-adv-x="569" d="M 503 173 L 534 173 L 491 0 L -28 0 L -21 28 C -19 34 -17 38 -14 40 C -10 42 -3 45 9 51 C 23 57 31 63 35 67 C 38 71 41 79 44 91 L 175 614 C 177 622 178 629 179 635 C 180 641 181 646 181 648 C 181 656 178 663 174 667 C 169 671 163 676 156 680 C 150 682 145 685 141 688 C 137 690 135 693 135 696 C 135 698 135 701 136 703 C 136 705 137 708 138 711 L 143 730 L 365 730 L 358 702 C 356 696 354 692 351 690 C 347 688 340 684 328 679 C 314 672 305 666 302 662 C 298 658 295 650 293 638 L 147 58 L 340 58 C 370 58 394 65 412 79 C 430 93 452 117 476 153 C 480 159 484 164 488 168 C 491 171 496 173 503 173 Z" unicode="L" />
<glyph horiz-adv-x="870" d="M 735 730 L 940 730 L 933 702 C 931 696 929 692 926 690 C 922 688 915 684 903 679 C 889 672 880 667 877 663 C 873 659 870 650 868 638 L 737 116 C 735 108 733 101 732 95 C 731 88 731 84 731 82 C 731 73 733 66 738 62 C 742 58 748 54 756 50 C 762 47 767 44 771 42 C 775 39 777 36 777 34 C 777 31 776 28 776 26 C 775 24 774 21 774 19 L 769 0 L 550 0 L 557 28 C 558 34 560 38 564 40 C 567 42 575 45 587 51 C 601 57 609 62 613 66 C 616 70 619 78 622 91 L 764 648 L 756 648 L 377 10 C 375 6 371 3 367 1 C 362 0 355 -2 346 -2 C 336 -2 330 0 328 2 C 325 4 323 7 323 10 L 260 644 L 252 644 L 123 128 C 121 122 120 115 119 107 C 117 99 117 93 117 91 C 117 84 118 78 121 73 C 123 67 129 61 138 55 C 142 51 147 48 151 44 C 155 40 158 36 158 34 C 158 31 157 28 157 26 C 156 24 155 21 155 19 L 150 0 L -29 0 L -22 29 C -21 33 -18 37 -14 40 C -10 43 -1 48 11 56 C 21 62 29 70 35 79 C 41 88 45 99 49 112 L 175 614 C 176 620 177 627 179 634 C 180 641 181 646 181 648 C 181 656 178 663 174 667 C 169 671 163 676 156 680 C 150 682 145 685 141 688 C 137 690 135 693 135 696 C 135 698 135 701 136 703 C 136 705 137 708 138 711 L 143 730 L 354 730 L 409 175 L 735 730 Z" unicode="M" />
<glyph horiz-adv-x="704" d="M 600 730 L 778 730 L 771 701 C 770 696 767 692 763 689 C 759 686 750 681 738 674 C 727 667 719 659 713 650 C 707 641 702 630 700 618 L 545 -6 L 498 -6 L 244 620 L 122 128 C 120 122 119 115 118 107 C 116 99 116 93 116 91 C 116 84 117 78 120 73 C 122 67 128 61 137 55 C 141 51 146 48 150 44 C 154 40 157 36 157 34 C 157 31 156 28 156 26 C 155 24 154 21 154 19 L 149 0 L -29 0 L -22 29 C -21 33 -18 37 -14 40 C -10 43 -1 48 11 56 C 21 62 29 70 35 79 C 41 88 45 99 49 112 L 174 614 C 176 621 177 628 178 635 C 179 641 180 646 180 648 C 180 656 177 663 173 667 C 169 671 163 676 156 680 C 150 682 145 685 141 688 C 137 690 135 693 135 696 C 135 698 135 701 136 703 C 136 705 137 708 138 711 L 143 730 L 316 730 L 528 202 L 627 602 C 629 609 630 616 631 624 C 632 631 633 636 633 639 C 633 645 631 651 629 657 C 626 662 620 668 612 675 C 607 678 602 682 598 686 C 594 690 592 693 592 696 C 592 698 592 701 593 703 C 593 705 594 708 595 711 L 600 730 Z" unicode="N" />
<glyph horiz-adv-x="730" d="M 447 741 C 489 741 527 733 561 718 C 595 702 625 681 649 655 C 673 628 691 596 704 560 C 717 523 724 484 724 442 C 724 383 714 326 694 272 C 674 217 647 169 612 127 C 577 85 535 52 486 27 C 437 1 384 -11 327 -11 C 285 -11 247 -3 213 11 C 179 25 149 46 125 72 C 101 98 82 130 68 167 C 54 204 48 244 48 288 C 48 346 57 402 77 457 C 97 511 124 560 159 602 C 193 644 235 677 285 703 C 334 728 388 741 447 741 Z M 330 47 C 372 47 410 59 444 85 C 478 110 508 143 532 183 C 556 223 574 268 587 320 C 600 371 607 423 607 475 C 607 539 592 590 564 627 C 536 664 496 683 444 683 C 400 683 360 669 325 643 C 290 616 261 582 237 541 C 213 500 195 454 183 404 C 171 353 165 304 165 257 C 165 191 179 139 207 102 C 235 65 276 47 330 47 Z" unicode="O" />
<glyph horiz-adv-x="579" d="M 395 730 C 435 730 469 725 499 716 C 528 706 552 694 571 678 C 589 662 603 644 612 624 C 620 603 625 581 625 559 C 625 529 618 500 606 472 C 594 443 574 418 548 396 C 521 374 487 356 445 343 C 403 329 354 323 296 323 L 214 323 L 162 116 C 160 108 158 100 157 94 C 156 88 156 84 156 82 C 156 73 158 66 163 62 C 167 58 173 54 181 50 C 187 47 192 44 196 42 C 200 39 202 36 202 34 C 202 31 201 28 201 26 C 200 24 199 21 199 19 L 194 0 L -28 0 L -21 28 C -19 34 -17 38 -14 40 C -10 42 -3 45 9 51 C 23 57 31 63 35 67 C 38 71 41 79 44 91 L 175 614 C 177 622 178 629 179 635 C 180 641 181 646 181 648 C 181 656 178 663 174 667 C 169 671 163 676 156 680 C 150 682 145 685 141 688 C 137 690 135 693 135 696 C 135 698 135 701 136 703 C 136 705 137 708 138 711 L 143 730 L 395 730 Z M 309 383 C 376 383 425 399 457 433 C 488 467 504 509 504 559 C 504 591 492 618 468 640 C 444 661 408 672 360 672 L 301 672 L 229 383 L 309 383 Z" unicode="P" />
<glyph horiz-adv-x="732" d="M 447 741 C 489 741 527 733 561 718 C 595 702 625 681 649 655 C 673 628 691 596 704 559 C 717 522 724 483 724 441 C 724 388 715 337 699 287 C 683 237 660 191 631 151 C 602 111 567 77 526 49 C 485 21 440 2 391 -6 C 405 -12 420 -19 438 -28 C 456 -37 473 -46 490 -55 C 512 -66 532 -74 550 -79 C 568 -83 589 -86 614 -86 C 626 -86 640 -83 654 -79 C 668 -75 682 -70 697 -64 L 683 -117 C 669 -127 648 -139 620 -153 C 591 -166 559 -173 523 -173 C 485 -173 454 -164 431 -147 C 407 -130 385 -111 363 -90 C 339 -66 321 -49 307 -37 C 293 -25 278 -15 264 -6 C 198 8 146 42 107 94 C 67 146 48 210 48 287 C 48 345 57 401 77 456 C 97 510 124 559 159 601 C 193 643 235 676 285 702 C 334 728 388 741 447 741 Z M 329 45 C 371 45 409 57 443 83 C 477 108 507 141 531 181 C 555 221 573 267 587 319 C 600 370 607 422 607 474 C 607 538 592 589 564 627 C 536 664 496 683 444 683 C 400 683 360 669 325 643 C 290 616 261 582 237 541 C 213 499 195 453 183 403 C 171 352 165 303 165 255 C 165 189 179 138 207 101 C 235 63 275 45 329 45 Z" unicode="Q" />
<glyph horiz-adv-x="650" d="M 411 730 C 488 730 545 713 581 681 C 617 649 635 610 635 565 C 635 515 615 471 577 431 C 538 391 479 363 400 349 C 408 343 417 336 425 327 C 433 318 442 306 451 290 C 459 274 469 254 481 229 C 492 204 505 173 520 137 C 528 115 536 97 544 85 C 551 73 563 63 581 55 C 589 51 598 47 606 44 C 614 40 618 37 618 34 C 618 31 617 28 617 26 C 616 24 615 21 615 19 L 610 0 L 459 0 L 384 178 C 375 198 367 218 359 237 C 351 256 342 273 332 287 C 322 301 310 313 296 322 C 282 330 265 335 245 335 L 216 335 L 162 116 C 160 108 158 100 157 94 C 156 88 156 84 156 82 C 156 73 158 66 163 62 C 167 58 173 54 181 50 C 187 47 192 44 196 42 C 200 39 202 36 202 34 C 202 31 201 28 201 26 C 200 24 199 21 199 19 L 194 0 L -28 0 L -21 28 C -19 34 -17 38 -14 40 C -10 42 -3 45 9 51 C 23 57 31 63 35 67 C 38 71 41 79 44 91 L 175 614 C 177 622 178 629 179 635 C 180 641 181 646 181 648 C 181 656 178 663 174 667 C 169 671 163 676 156 680 C 150 682 145 685 141 688 C 137 690 135 693 135 696 C 135 698 135 701 136 703 C 136 705 137 708 138 711 L 143 730 L 411 730 Z M 314 394 C 378 394 427 408 460 438 C 493 467 510 509 510 564 C 510 599 498 626 474 644 C 450 662 418 672 377 672 L 301 672 L 231 394 L 314 394 Z" unicode="R" />
<glyph horiz-adv-x="537" d="M 529 710 L 562 710 L 515 528 L 483 528 C 476 528 471 529 469 533 C 466 537 464 541 464 546 C 459 587 446 620 425 645 C 404 670 374 683 334 683 C 298 683 267 672 243 650 C 219 628 207 600 207 567 C 207 545 212 525 222 509 C 232 492 248 477 270 465 C 286 455 302 446 319 438 C 335 430 353 421 372 412 C 417 389 452 364 476 336 C 500 308 513 273 513 230 C 513 201 507 172 495 144 C 483 115 465 89 442 66 C 419 43 391 24 357 10 C 323 -3 285 -11 243 -11 C 201 -11 163 -5 131 7 C 98 19 76 27 66 32 C 63 33 60 34 57 36 C 53 37 51 38 49 38 C 45 38 42 37 39 35 C 36 33 34 30 32 28 C 28 22 23 17 17 15 C 11 13 6 12 2 12 L -32 12 L 19 215 L 50 215 C 56 215 60 213 64 210 C 67 207 70 200 72 190 C 84 134 106 96 140 76 C 174 56 210 47 249 47 C 296 47 335 60 365 88 C 395 116 411 152 411 196 C 411 226 401 250 383 267 C 365 283 342 298 316 312 C 297 322 280 330 265 337 C 250 344 234 352 218 361 C 174 383 145 410 129 441 C 113 471 106 504 106 539 C 106 565 111 590 122 614 C 133 638 149 660 169 679 C 189 697 214 712 243 724 C 271 735 303 741 339 741 C 358 741 380 738 405 733 C 430 727 455 717 481 703 C 485 700 488 698 491 697 C 494 696 498 697 503 700 C 510 704 515 707 518 708 C 520 709 524 710 529 710 Z" unicode="S" />
<glyph horiz-adv-x="608" d="M 604 730 C 612 730 621 730 632 731 C 642 731 653 732 664 733 C 675 733 685 734 695 735 C 704 735 711 736 716 737 L 676 577 L 657 577 C 647 577 640 579 636 583 C 632 587 629 593 629 599 C 625 625 618 644 609 656 C 599 667 584 673 564 673 L 459 673 L 318 116 C 316 108 314 100 313 94 C 312 88 312 84 312 82 C 312 73 314 67 319 63 C 324 59 330 55 338 51 C 344 48 349 45 353 43 C 357 40 359 37 359 35 C 359 32 358 29 358 27 C 357 24 356 21 356 19 L 351 0 L 127 0 L 134 28 C 135 34 137 38 141 40 C 144 42 152 45 164 51 C 178 57 186 63 190 67 C 194 71 197 79 200 91 L 346 673 L 246 673 C 226 673 208 667 193 656 C 177 645 161 626 145 599 C 141 593 136 588 130 584 C 124 579 116 577 108 577 L 81 577 L 121 737 C 125 736 132 735 140 735 C 148 734 157 733 167 733 C 176 732 185 731 195 731 C 204 730 212 730 218 730 L 604 730 Z" unicode="T" />
<glyph horiz-adv-x="718" d="M 612 730 L 793 730 L 786 701 C 785 696 782 692 778 689 C 774 686 765 681 753 674 C 742 667 734 659 728 649 C 722 639 717 628 715 616 L 626 259 C 617 223 604 189 588 157 C 571 124 550 95 525 71 C 499 46 469 26 434 11 C 398 -3 358 -11 313 -11 C 231 -11 170 7 130 44 C 90 81 70 128 70 186 C 70 196 71 208 73 224 C 75 239 77 252 80 262 L 169 614 C 171 622 172 629 173 635 C 174 641 175 646 175 648 C 175 656 172 663 168 667 C 163 671 157 676 150 680 C 144 682 139 685 135 688 C 131 690 129 693 129 696 C 129 698 129 701 130 703 C 130 705 131 708 132 711 L 137 730 L 359 730 L 352 702 C 350 696 348 692 345 690 C 341 688 334 684 322 679 C 308 672 299 666 296 661 C 292 655 289 648 287 638 L 193 265 C 191 256 189 244 187 229 C 185 214 184 202 184 193 C 184 153 197 121 223 97 C 249 73 284 62 330 62 C 392 62 442 81 478 119 C 514 157 539 207 555 269 L 639 602 C 640 607 641 614 643 622 C 644 630 645 636 645 639 C 645 645 643 651 641 657 C 639 662 633 668 624 675 C 619 677 614 681 610 685 C 606 689 604 693 604 696 C 604 698 604 701 605 703 C 605 705 606 708 607 711 L 612 730 Z" unicode="U" />
<glyph horiz-adv-x="691" d="M 605 730 L 809 730 L 802 702 C 800 697 798 693 794 691 C 790 689 783 685 773 679 C 756 670 744 663 737 657 C 729 651 720 639 709 622 L 305 4 C 302 0 299 -3 296 -5 C 292 -7 288 -8 283 -8 L 274 -8 C 269 -8 265 -7 261 -5 C 257 -3 255 0 255 6 L 156 639 C 154 649 149 658 141 664 C 132 670 124 676 117 680 C 111 682 106 685 102 688 C 98 690 96 693 96 696 C 96 698 96 701 97 703 C 97 705 98 708 99 711 L 104 730 L 332 730 L 325 702 C 323 697 321 693 318 691 C 314 688 307 684 295 679 C 284 674 277 670 273 666 C 269 662 268 658 268 654 C 268 649 268 643 268 637 C 268 631 269 625 270 619 L 339 166 L 611 599 C 619 612 626 624 632 634 C 637 644 640 652 640 658 C 640 662 638 666 634 669 C 630 672 625 676 618 680 C 612 682 607 685 603 688 C 599 690 597 693 597 696 C 597 698 597 701 598 703 C 598 705 599 708 600 711 L 605 730 Z" unicode="V" />
<glyph horiz-adv-x="995" d="M 909 730 L 1112 730 L 1105 702 C 1103 697 1101 693 1098 691 C 1094 689 1087 685 1077 679 C 1060 670 1048 663 1041 658 C 1033 652 1024 640 1013 622 L 636 4 C 634 1 632 -1 628 -4 C 624 -6 619 -8 615 -8 L 601 -8 C 595 -8 591 -6 588 -4 C 585 -1 583 2 583 7 L 546 458 L 282 5 C 279 0 276 -3 273 -5 C 269 -7 265 -8 261 -8 L 248 -8 C 243 -8 239 -6 236 -4 C 232 -2 230 1 230 6 L 159 639 C 158 649 153 658 144 664 C 134 670 126 676 119 680 C 113 682 108 685 104 688 C 100 690 98 693 98 696 C 98 698 98 701 99 703 C 99 705 100 708 101 711 L 106 730 L 334 730 L 327 702 C 325 697 323 693 320 691 C 316 688 309 684 297 679 C 286 674 279 670 275 666 C 271 662 270 658 270 654 C 270 649 270 643 270 637 C 270 630 270 623 271 617 L 316 180 L 535 554 L 524 638 C 523 647 518 655 510 663 C 502 670 494 676 487 680 C 481 682 476 685 472 688 C 468 690 466 693 466 696 C 466 698 466 701 467 703 C 467 705 468 708 469 711 L 474 730 L 700 730 L 693 702 C 691 697 689 693 686 691 C 682 688 675 684 663 679 C 652 674 644 670 640 666 C 635 662 633 658 633 654 C 633 649 633 643 633 635 C 633 627 633 620 634 616 L 672 177 L 915 596 C 923 609 929 621 935 633 C 941 644 944 652 944 658 C 944 662 942 666 938 669 C 934 672 929 676 922 680 C 916 682 911 685 907 688 C 903 690 901 693 901 696 C 901 698 901 701 902 703 C 902 705 903 708 904 711 L 909 730 Z" unicode="W" />
<glyph horiz-adv-x="644" d="M 523 730 L 730 730 L 723 702 C 721 696 719 691 716 689 C 712 687 704 683 692 678 C 682 673 671 666 659 658 C 647 649 631 634 613 614 L 401 383 L 518 100 C 523 87 528 77 534 70 C 540 62 549 56 561 51 C 567 48 572 45 576 43 C 580 40 582 37 582 35 C 582 32 581 29 581 27 C 580 24 579 21 579 19 L 574 0 L 349 0 L 356 28 C 357 34 359 38 362 40 C 365 42 373 46 386 51 C 396 54 402 58 404 62 C 406 66 407 70 407 73 C 407 75 406 80 404 88 C 402 96 400 105 396 115 L 316 311 L 126 97 C 123 94 120 90 116 85 C 112 79 110 74 110 70 C 110 66 111 62 114 59 C 117 55 122 52 129 50 C 136 47 143 44 149 42 C 155 40 158 37 158 35 C 158 32 157 29 157 27 C 156 24 155 21 155 19 L 150 0 L -63 0 L -56 28 C -54 34 -52 38 -49 40 C -45 42 -37 46 -25 52 C -15 56 -3 63 11 73 C 25 83 40 97 57 116 L 291 371 L 184 630 C 178 642 173 652 167 660 C 161 667 153 673 141 679 C 135 681 130 684 126 687 C 122 689 120 692 120 695 C 120 697 120 700 121 703 C 121 705 122 708 123 711 L 128 730 L 353 730 L 346 702 C 344 696 342 691 339 689 C 336 687 328 683 316 679 C 305 675 299 671 297 667 C 295 663 295 659 295 657 C 295 654 295 649 297 641 C 299 633 302 625 306 615 L 376 443 L 545 633 C 547 636 550 640 554 645 C 558 650 560 655 560 660 C 560 664 558 667 555 671 C 552 674 547 677 541 680 C 533 682 527 685 522 687 C 517 689 515 692 515 695 C 515 697 515 700 516 703 C 516 705 517 708 518 711 L 523 730 Z" unicode="X" />
<glyph horiz-adv-x="625" d="M 538 730 L 745 730 L 738 702 C 736 696 734 691 731 689 C 727 687 719 683 707 678 C 697 673 686 667 675 660 C 664 652 651 640 637 624 L 384 333 L 330 116 C 328 108 326 101 325 95 C 324 88 324 84 324 82 C 324 73 326 67 331 63 C 336 59 342 55 350 51 C 356 48 361 45 365 43 C 369 40 371 37 371 35 C 371 32 370 29 370 27 C 369 24 368 21 368 19 L 363 0 L 139 0 L 146 28 C 147 34 149 38 153 40 C 156 42 164 45 176 51 C 190 57 198 63 202 67 C 206 71 209 79 212 91 L 272 332 L 152 637 C 148 646 143 654 138 661 C 132 667 124 673 112 679 C 106 681 101 684 97 687 C 93 689 91 692 91 695 C 91 697 91 700 92 703 C 92 705 93 708 94 711 L 99 730 L 327 730 L 320 702 C 318 696 316 691 313 689 C 310 687 302 683 290 679 C 279 675 272 672 270 669 C 268 665 267 662 267 658 C 267 655 267 650 269 644 C 271 638 272 634 273 632 L 360 399 L 552 621 C 556 625 560 632 566 640 C 572 648 575 655 575 660 C 575 664 573 667 570 671 C 567 674 562 677 556 680 C 548 682 542 685 537 687 C 532 689 530 692 530 695 C 530 697 530 700 531 703 C 531 705 532 708 533 711 L 538 730 Z" unicode="Y" />
<glyph horiz-adv-x="592" d="M 257 730 L 665 730 L 661 712 C 658 701 654 693 650 687 C 645 681 640 675 634 669 L 119 58 L 354 58 C 380 58 403 64 421 77 C 439 90 460 114 484 150 C 488 156 492 161 496 165 C 499 169 505 171 514 171 L 547 171 L 502 -9 C 496 -8 489 -7 480 -6 C 471 -5 462 -4 452 -3 C 442 -2 432 -1 422 -1 C 412 0 403 0 397 0 L -44 0 L -37 24 C -35 30 -32 36 -28 41 C -24 46 -18 53 -11 62 L 504 672 L 283 672 C 264 672 247 666 232 654 C 217 642 203 625 190 601 C 185 593 180 587 174 583 C 168 579 160 577 150 577 L 123 577 L 165 739 C 175 737 189 735 209 733 C 229 731 245 730 257 730 Z" unicode="Z" />
<glyph horiz-adv-x="332" d="M 175 730 L 423 730 L 410 681 L 257 681 L 53 -141 L 207 -141 L 193 -190 L -55 -190 L 175 730 Z" unicode="[" />
<glyph horiz-adv-x="439" d="M 177 730 L 407 -190 L 336 -190 L 105 730 L 177 730 Z" unicode="\" />
<glyph horiz-adv-x="332" d="M 134 730 L 382 730 L 152 -190 L -96 -190 L -83 -141 L 70 -141 L 274 681 L 120 681 L 134 730 Z" unicode="]" />
<glyph horiz-adv-x="745" d="M 433 730 L 633 314 L 551 314 L 397 643 L 243 314 L 161 314 L 361 730 L 433 730 Z" unicode="^" />
<glyph horiz-adv-x="495" d="M -67 -50 L 434 -50 L 419 -103 L -82 -103 L -67 -50 Z" unicode="_" />
<glyph horiz-adv-x="389" d="M 204 645 L 323 503 L 299 486 L 146 576 C 131 584 120 593 114 602 C 108 610 105 619 105 629 C 105 641 109 651 117 660 C 125 669 136 674 149 674 C 157 674 166 672 175 669 C 183 665 193 657 204 645 Z" unicode="`" />
<glyph horiz-adv-x="492" d="M 461 74 L 471 33 C 462 25 447 16 425 6 C 403 -3 380 -9 356 -9 C 329 -9 311 -2 302 11 C 292 24 287 38 286 53 C 269 38 250 24 228 11 C 206 -1 182 -8 157 -8 C 109 -8 73 6 50 36 C 26 65 15 103 15 149 C 15 188 22 225 36 260 C 50 294 70 325 95 351 C 119 377 148 397 181 412 C 214 427 249 435 286 435 C 309 435 327 432 341 426 C 355 420 369 411 383 401 C 385 399 387 398 390 398 C 392 397 395 398 397 400 L 434 431 C 436 433 439 435 443 436 C 447 436 450 437 453 437 C 457 437 461 435 465 432 C 468 429 469 425 469 421 L 385 97 C 384 92 383 88 382 84 C 381 80 381 76 381 73 C 381 67 383 62 387 58 C 391 54 397 52 406 52 C 413 52 421 54 429 58 C 437 62 448 68 461 74 Z M 286 98 L 349 349 C 343 357 334 365 324 372 C 314 378 301 382 285 382 C 256 382 231 375 211 361 C 190 347 173 329 160 307 C 146 285 136 260 130 232 C 124 204 121 177 121 151 C 121 117 127 93 141 78 C 154 62 172 55 196 55 C 213 55 228 58 242 66 C 255 74 270 84 286 98 Z" unicode="a" />
<glyph horiz-adv-x="485" d="M 327 432 C 369 432 403 419 431 395 C 458 370 472 332 472 280 C 472 244 465 209 453 174 C 440 139 422 108 399 81 C 375 54 347 32 313 15 C 279 -1 242 -10 200 -10 C 169 -10 143 -5 123 3 C 103 12 86 23 74 36 C 62 48 53 62 48 77 C 42 92 40 106 40 118 C 40 130 41 142 44 155 C 47 167 50 180 53 193 L 159 619 C 161 627 162 634 164 642 C 166 649 167 654 167 656 C 167 664 165 669 163 672 C 160 675 155 679 148 683 C 142 685 136 688 132 691 C 128 693 126 696 126 699 C 126 700 126 702 127 705 C 127 708 128 711 129 714 L 133 730 L 287 730 L 199 383 C 213 393 230 403 252 415 C 273 426 298 432 327 432 Z M 203 42 C 231 42 256 49 276 64 C 296 78 313 97 327 119 C 340 141 350 167 356 195 C 362 223 366 250 366 277 C 366 311 359 334 345 347 C 331 359 312 366 290 366 C 265 366 245 361 230 352 C 215 343 199 331 183 317 L 145 155 C 143 148 142 140 140 132 C 138 123 138 116 138 112 C 138 94 142 77 152 63 C 161 49 178 42 203 42 Z" unicode="b" />
<glyph horiz-adv-x="394" d="M 263 433 C 311 433 346 423 367 403 C 387 383 398 363 398 342 C 398 317 391 300 379 291 C 367 281 353 277 339 277 C 323 277 310 281 299 289 C 288 297 283 309 283 326 C 283 331 284 338 287 347 C 290 356 294 364 298 371 C 294 373 289 376 281 379 C 273 381 262 383 249 383 C 228 383 210 376 194 364 C 178 351 165 335 155 315 C 145 295 137 272 132 248 C 127 223 125 198 125 174 C 125 142 131 114 145 90 C 158 66 182 54 217 54 C 245 54 270 61 290 76 C 310 90 330 107 350 127 L 378 89 C 369 78 359 67 348 55 C 336 43 323 33 309 24 C 294 14 277 6 259 0 C 241 -5 221 -9 199 -9 C 147 -9 104 6 70 38 C 36 70 20 113 20 168 C 20 200 25 233 37 265 C 48 297 64 325 86 350 C 107 374 133 394 163 410 C 193 425 226 433 263 433 Z" unicode="c" />
<glyph horiz-adv-x="502" d="M 397 730 L 556 730 L 399 98 C 398 93 397 89 396 85 C 395 81 395 77 395 74 C 395 68 396 62 400 58 C 404 54 410 52 419 52 C 426 52 434 54 442 58 C 450 62 461 68 474 75 L 484 34 C 475 26 460 16 438 6 C 416 -3 392 -9 368 -9 C 341 -9 323 -2 314 11 C 305 24 300 38 300 54 C 282 39 260 25 235 12 C 210 -1 185 -8 159 -8 C 109 -8 72 6 49 36 C 26 66 15 104 15 150 C 15 189 22 226 36 261 C 50 295 69 325 93 351 C 117 376 144 396 175 411 C 206 425 238 433 272 433 C 300 433 322 428 337 419 C 352 410 364 401 373 391 L 428 618 C 430 626 431 633 433 641 C 435 649 436 654 436 656 C 436 664 434 669 431 672 C 427 675 422 679 415 683 C 409 685 403 688 398 691 C 392 693 390 696 390 699 C 390 700 390 702 391 705 C 391 708 392 711 393 714 L 397 730 Z M 299 99 L 357 333 C 349 347 339 359 327 367 C 315 375 298 380 278 380 C 248 380 224 372 204 356 C 184 340 167 321 155 298 C 143 275 134 250 129 224 C 123 197 121 173 121 151 C 121 117 128 93 142 78 C 156 62 174 55 198 55 C 215 55 232 59 249 67 C 265 75 282 86 299 99 Z" unicode="d" />
<glyph horiz-adv-x="410" d="M 279 434 C 317 434 348 425 372 407 C 396 389 408 365 408 335 C 408 303 398 277 380 258 C 361 238 339 224 313 214 C 287 204 260 197 232 194 C 204 191 182 190 165 190 L 123 190 C 123 187 122 184 122 181 C 122 177 122 174 122 172 C 122 125 132 94 153 78 C 173 62 197 55 223 55 C 244 55 267 61 292 74 C 316 86 342 106 370 132 L 394 97 C 390 90 383 81 373 69 C 363 57 351 46 335 34 C 319 22 299 12 276 4 C 252 -4 225 -9 195 -9 C 157 -9 126 -2 103 11 C 80 25 63 41 51 60 C 39 78 31 97 27 117 C 23 137 21 153 21 166 C 21 200 27 233 40 266 C 52 298 70 327 93 352 C 115 376 142 396 174 411 C 206 426 241 434 279 434 Z M 127 233 C 149 234 172 236 194 239 C 216 242 235 247 253 255 C 270 262 284 272 295 286 C 305 299 311 316 311 338 C 311 354 305 366 295 373 C 284 380 273 384 261 384 C 231 384 204 371 179 347 C 154 323 137 285 127 233 Z" unicode="e" />
<glyph horiz-adv-x="283" d="M 366 730 C 394 730 414 723 424 711 C 434 698 440 684 440 670 C 440 654 434 641 424 630 C 414 619 400 614 382 614 C 371 614 359 618 347 626 C 335 634 328 650 328 674 C 323 672 317 669 311 665 C 305 661 298 654 291 645 C 284 635 277 623 270 607 C 263 591 256 570 250 544 L 219 420 L 333 420 L 320 367 L 208 367 L 125 0 L 24 0 L 108 367 L 58 367 L 65 391 C 66 396 69 400 75 404 C 80 408 90 412 105 417 C 111 419 116 423 120 427 C 123 431 125 436 127 444 C 135 481 147 517 161 552 C 175 586 193 617 213 643 C 233 669 256 690 282 706 C 307 722 335 730 366 730 Z" unicode="f" />
<glyph horiz-adv-x="461" d="M 453 441 C 467 441 478 437 488 430 C 497 423 502 412 502 398 C 502 384 497 374 487 366 C 477 358 467 355 459 355 C 451 355 444 356 440 359 C 435 361 431 364 428 367 C 426 369 424 370 421 372 C 418 374 415 375 413 375 C 410 375 406 373 402 371 C 398 369 395 366 393 364 C 399 353 403 342 406 330 C 409 318 411 307 411 297 C 411 273 406 251 397 229 C 387 207 374 188 356 172 C 338 156 317 143 291 133 C 265 123 237 118 206 118 C 196 118 184 119 172 121 C 160 123 149 125 141 128 L 94 60 C 106 60 120 62 137 64 C 153 66 174 67 199 67 C 270 67 319 57 346 39 C 372 20 386 -3 386 -31 C 386 -57 379 -81 365 -102 C 351 -122 333 -140 311 -154 C 289 -168 263 -179 233 -187 C 203 -194 171 -198 139 -198 C 87 -198 48 -191 23 -177 C -1 -163 -14 -144 -14 -122 C -14 -105 -8 -91 2 -81 C 13 -71 28 -66 46 -66 C 62 -66 75 -71 84 -83 C 93 -94 98 -107 98 -122 C 98 -124 97 -126 97 -129 C 97 -131 97 -134 97 -137 C 100 -139 106 -141 116 -143 C 125 -145 135 -147 147 -147 C 163 -147 179 -145 196 -142 C 213 -139 229 -134 243 -128 C 257 -121 268 -112 277 -101 C 286 -90 291 -77 291 -62 C 291 -45 280 -33 258 -25 C 236 -17 204 -14 164 -14 C 144 -14 125 -14 107 -16 C 89 -17 72 -18 58 -20 C 43 -22 31 -23 21 -25 C 11 -26 5 -27 3 -27 C -2 -27 -7 -25 -12 -23 C -16 -21 -19 -17 -19 -12 C -19 -8 -17 -4 -14 0 C -11 3 -8 6 -6 10 L 99 152 C 81 165 67 181 58 199 C 49 217 45 237 45 258 C 45 283 50 306 61 328 C 72 350 87 369 106 385 C 124 401 146 413 171 423 C 196 432 223 437 251 437 C 277 437 299 433 319 425 C 338 417 354 407 368 397 C 378 407 391 417 406 427 C 421 436 437 441 453 441 Z M 219 166 C 233 166 247 170 259 178 C 271 186 281 197 289 211 C 297 225 304 240 308 257 C 312 274 315 291 315 309 C 315 331 309 350 297 366 C 285 381 267 389 242 389 C 224 389 208 384 196 376 C 183 368 173 357 165 344 C 157 331 152 316 149 300 C 145 284 144 268 144 252 C 144 225 150 204 163 189 C 176 173 195 166 219 166 Z" unicode="g" />
<glyph horiz-adv-x="509" d="M 481 75 L 491 34 C 482 26 467 16 445 6 C 423 -3 400 -9 376 -9 C 346 -9 326 -2 315 10 C 304 23 299 38 299 55 C 299 61 299 68 301 76 C 302 84 304 92 306 101 L 354 286 C 355 291 356 296 357 301 C 357 306 358 311 358 316 C 358 333 354 346 346 355 C 338 363 326 368 308 368 C 288 368 268 361 247 348 C 225 335 206 321 190 306 L 113 0 L 13 0 L 167 619 C 169 627 170 634 172 642 C 174 649 175 654 175 656 C 175 664 173 669 171 672 C 168 675 163 679 156 683 C 150 685 144 688 140 691 C 136 693 134 696 134 699 C 134 700 134 702 135 705 C 135 708 136 711 137 714 L 141 730 L 296 730 L 204 370 C 222 384 244 398 269 412 C 294 425 321 432 351 432 C 391 432 419 422 435 404 C 451 386 460 361 460 329 C 460 322 459 315 458 307 C 457 299 456 292 454 284 L 406 99 C 405 95 404 91 403 87 C 402 83 402 79 402 76 C 402 70 403 64 407 59 C 411 54 417 52 426 52 C 433 52 441 54 449 58 C 457 62 468 68 481 75 Z" unicode="h" />
<glyph horiz-adv-x="258" d="M 231 682 C 249 682 263 675 275 663 C 287 650 293 635 293 618 C 293 601 287 586 275 574 C 263 561 248 555 230 555 C 212 555 198 561 186 574 C 174 586 168 601 168 618 C 168 635 174 650 186 663 C 198 675 213 682 231 682 Z M 227 74 L 237 33 C 228 25 213 16 191 6 C 169 -3 146 -9 122 -9 C 92 -9 72 -2 61 10 C 50 23 45 38 45 55 C 45 61 45 68 47 76 C 48 83 50 91 52 100 L 104 306 C 104 310 105 314 106 318 C 107 322 108 326 108 329 C 108 335 105 341 100 345 C 95 349 88 351 78 352 C 71 352 65 353 60 355 C 54 357 52 360 52 364 C 52 365 52 367 52 369 C 52 371 53 374 54 376 L 60 399 C 82 399 105 401 127 407 C 149 413 172 420 196 429 L 235 429 L 152 98 C 151 94 150 90 149 86 C 148 82 148 78 148 75 C 148 69 149 64 153 59 C 157 54 163 52 172 52 C 179 52 187 54 195 58 C 203 62 214 68 227 74 Z" unicode="i" />
<glyph horiz-adv-x="247" d="M 220 682 C 238 682 252 675 264 663 C 276 650 282 635 282 618 C 282 601 276 586 264 574 C 252 561 237 555 219 555 C 201 555 187 561 175 574 C 163 586 157 601 157 618 C 157 635 163 650 175 663 C 187 675 202 682 220 682 Z M 199 429 L 237 429 L 148 48 C 131 -25 104 -84 68 -130 C 31 -175 -16 -198 -74 -198 C -100 -198 -119 -191 -131 -179 C -143 -166 -149 -152 -149 -138 C -149 -122 -143 -109 -133 -99 C -122 -89 -108 -85 -90 -85 C -79 -85 -68 -89 -56 -99 C -44 -108 -38 -125 -37 -149 C -28 -146 -17 -138 -5 -124 C 6 -110 18 -82 28 -38 L 107 305 C 107 309 108 313 109 317 C 110 321 111 325 111 328 C 111 334 108 340 103 344 C 98 348 91 350 81 351 C 74 351 68 352 62 354 C 56 356 54 359 54 363 C 54 364 54 366 54 368 C 54 370 55 373 56 376 L 62 399 C 84 399 107 401 130 407 C 152 412 175 419 199 429 Z" unicode="j" />
<glyph horiz-adv-x="488" d="M 456 75 L 466 34 C 457 26 441 16 419 6 C 397 -3 376 -9 357 -9 C 331 -9 308 2 288 26 C 268 50 251 95 238 163 C 222 158 207 154 193 151 C 179 147 163 144 147 142 L 113 0 L 13 0 L 167 619 C 169 627 170 634 172 642 C 174 649 175 654 175 656 C 175 664 173 669 171 672 C 168 675 163 679 156 683 C 150 685 144 688 140 691 C 136 693 134 696 134 699 C 134 700 134 702 135 705 C 135 708 136 711 137 714 L 141 730 L 296 730 L 205 373 C 237 395 265 411 287 419 C 309 427 334 432 361 432 C 392 432 416 423 433 407 C 449 390 458 369 458 344 C 458 323 453 305 444 290 C 435 275 424 262 411 251 C 398 240 384 231 369 223 C 353 215 340 208 328 202 C 331 186 335 171 339 157 C 343 143 347 128 353 114 C 357 103 363 90 373 76 C 382 61 392 54 403 54 C 410 54 417 55 425 59 C 433 63 443 68 456 75 Z M 158 190 C 178 193 200 199 224 207 C 247 215 268 224 287 235 C 306 246 322 259 335 273 C 347 287 354 303 354 319 C 354 335 350 348 342 357 C 334 365 321 370 303 370 C 292 370 277 365 258 357 C 239 349 216 332 190 308 L 158 190 Z" unicode="k" />
<glyph horiz-adv-x="245" d="M 143 730 L 297 730 L 140 99 C 139 95 138 91 137 87 C 136 83 136 79 136 76 C 136 70 137 64 141 59 C 145 54 151 52 160 52 C 167 52 175 54 184 58 C 193 62 204 68 217 75 L 227 34 C 218 26 202 16 180 6 C 158 -3 134 -9 110 -9 C 80 -9 60 -2 49 10 C 38 23 33 38 33 55 C 33 61 33 68 35 76 C 36 84 38 92 40 101 L 169 618 C 171 626 172 633 174 641 C 176 649 177 654 177 656 C 177 664 175 669 173 672 C 170 675 165 679 158 683 C 152 685 146 688 142 691 C 138 693 136 696 136 699 C 136 700 136 702 137 705 C 137 708 138 711 139 714 L 143 730 Z" unicode="l" />
<glyph horiz-adv-x="770" d="M 742 74 L 752 33 C 743 25 728 16 706 6 C 684 -3 661 -9 637 -9 C 607 -9 587 -2 576 10 C 565 23 560 38 560 55 C 560 61 560 68 562 76 C 563 83 565 91 567 100 L 616 288 C 616 292 617 297 618 301 C 619 305 620 309 620 314 C 620 330 614 344 604 354 C 594 364 578 369 558 369 C 542 369 525 363 509 352 C 492 341 477 329 465 317 L 386 0 L 286 0 L 357 288 C 357 292 358 296 359 302 C 360 307 361 312 361 317 C 361 333 355 346 345 355 C 335 364 320 369 300 369 C 283 369 266 362 248 349 C 230 335 215 322 203 309 L 127 0 L 27 0 L 103 306 C 103 310 104 314 105 318 C 106 322 107 326 107 329 C 107 335 104 341 99 345 C 94 349 87 351 77 352 C 70 352 64 353 59 355 C 53 357 51 360 51 364 C 51 365 51 367 51 369 C 51 371 52 374 53 377 L 59 399 C 81 399 103 401 125 407 C 146 413 168 420 192 429 L 223 429 L 208 367 C 224 381 244 396 266 410 C 288 424 314 432 345 432 C 375 432 398 425 416 413 C 434 401 446 384 454 364 C 479 384 502 400 523 413 C 544 425 569 432 598 432 C 638 432 668 422 690 403 C 711 384 722 359 722 328 C 722 321 721 314 720 307 C 719 299 718 292 716 286 L 667 98 C 666 94 665 90 664 86 C 663 82 663 78 663 75 C 663 69 664 64 668 59 C 672 54 678 52 687 52 C 694 52 702 54 710 58 C 718 62 729 68 742 74 Z" unicode="m" />
<glyph horiz-adv-x="523" d="M 495 74 L 505 33 C 496 25 481 16 459 6 C 437 -3 414 -9 390 -9 C 360 -9 340 -2 329 10 C 318 23 313 38 313 55 C 313 61 313 68 315 76 C 316 83 318 91 320 100 L 369 288 C 370 292 371 297 372 302 C 372 307 373 312 373 317 C 373 335 367 348 356 356 C 345 364 331 369 313 369 C 292 369 272 362 253 349 C 233 335 217 321 203 307 L 127 0 L 27 0 L 103 306 C 103 310 104 314 105 318 C 106 322 107 326 107 329 C 107 335 104 341 99 345 C 94 349 87 351 77 352 C 70 352 64 353 59 355 C 53 357 51 360 51 364 C 51 365 51 367 51 369 C 51 371 52 374 53 377 L 59 399 C 81 399 103 401 125 407 C 146 413 168 420 192 429 L 222 429 L 207 366 C 225 380 247 395 272 410 C 297 424 325 432 356 432 C 396 432 425 422 445 404 C 465 386 475 361 475 330 C 475 323 474 316 473 308 C 472 300 471 293 469 286 L 420 98 C 419 94 418 90 417 86 C 416 82 416 78 416 75 C 416 69 417 64 421 59 C 425 54 431 52 440 52 C 447 52 455 54 463 58 C 471 62 482 68 495 74 Z" unicode="n" />
<glyph horiz-adv-x="468" d="M 273 436 C 331 436 374 418 404 383 C 434 347 449 303 449 251 C 449 215 442 182 430 150 C 417 118 400 91 378 67 C 356 43 329 25 299 11 C 268 -3 235 -10 199 -10 C 141 -10 96 7 66 42 C 35 77 20 121 20 174 C 20 206 25 238 37 270 C 49 302 66 330 88 354 C 110 378 136 398 168 413 C 199 428 234 436 273 436 Z M 204 41 C 226 41 246 47 264 60 C 282 73 297 90 309 112 C 321 134 330 158 336 186 C 342 214 345 242 345 271 C 345 306 339 334 327 355 C 315 375 295 386 266 386 C 242 386 221 379 203 365 C 185 351 170 333 158 311 C 146 289 138 265 132 238 C 126 211 124 184 124 158 C 124 122 129 93 141 72 C 153 51 174 41 204 41 Z" unicode="o" />
<glyph horiz-adv-x="496" d="M 344 432 C 388 432 422 418 446 391 C 470 364 483 327 483 281 C 483 247 476 212 464 177 C 452 142 434 111 412 84 C 390 56 363 34 331 17 C 299 0 263 -9 225 -9 C 199 -9 179 -4 165 4 C 150 12 138 21 129 30 L 76 -190 L -25 -190 L 99 305 C 99 309 100 313 101 317 C 102 321 103 325 103 328 C 103 334 100 340 95 344 C 90 348 83 350 73 351 C 66 351 60 352 55 354 C 49 356 47 359 47 363 C 47 364 47 366 47 368 C 47 370 48 373 49 376 L 55 399 C 77 399 99 401 121 407 C 142 412 164 419 188 429 L 218 429 L 204 369 C 219 381 239 395 265 410 C 291 424 317 432 344 432 Z M 224 43 C 248 43 270 50 289 64 C 308 78 324 97 337 119 C 350 141 360 167 367 195 C 373 223 377 252 377 280 C 377 309 371 331 359 347 C 347 363 329 371 307 371 C 284 371 263 364 245 351 C 226 338 211 326 201 315 L 144 85 C 152 74 162 64 174 56 C 186 47 203 43 224 43 Z" unicode="p" />
<glyph horiz-adv-x="486" d="M 457 437 C 461 437 465 435 468 432 C 471 428 472 424 472 420 L 320 -190 L 219 -190 L 279 45 C 264 35 246 24 226 13 C 206 1 184 -4 160 -4 C 110 -4 73 11 50 41 C 26 71 15 109 15 155 C 15 191 22 227 37 261 C 51 295 71 324 96 350 C 121 376 150 396 183 412 C 216 427 251 435 288 435 C 311 435 330 431 344 425 C 358 419 372 410 386 400 C 388 398 390 397 393 397 C 395 396 398 397 400 399 L 438 431 C 440 433 443 435 447 436 C 451 436 454 437 457 437 Z M 292 100 L 354 352 C 348 359 340 366 329 372 C 317 378 303 382 287 382 C 258 382 233 375 212 362 C 191 349 174 332 161 311 C 147 290 137 266 131 239 C 124 211 121 183 121 155 C 121 121 128 96 142 82 C 156 67 175 60 197 60 C 214 60 230 63 246 71 C 262 78 277 88 292 100 Z" unicode="q" />
<glyph horiz-adv-x="349" d="M 320 432 C 342 432 358 426 368 414 C 378 402 383 389 383 375 C 383 359 377 345 367 333 C 357 320 342 314 324 314 C 312 314 301 317 293 325 C 284 333 278 343 275 356 C 266 353 257 347 247 338 C 237 329 228 318 220 305 C 211 292 203 278 196 263 C 189 248 184 233 181 219 L 128 0 L 28 0 L 96 276 C 98 286 100 295 101 305 C 101 315 102 322 102 327 C 102 333 99 339 93 344 C 87 348 80 351 70 352 C 63 352 57 353 52 355 C 47 357 45 360 45 364 C 45 365 45 367 45 369 C 45 371 46 374 47 376 L 53 399 C 75 399 95 402 113 408 C 131 414 147 421 162 429 L 192 429 C 193 421 194 414 194 407 C 194 400 195 393 195 387 C 195 376 194 365 192 354 C 190 342 189 333 188 325 L 192 325 C 215 365 237 392 258 408 C 279 424 300 432 320 432 Z" unicode="r" />
<glyph horiz-adv-x="368" d="M 226 434 C 271 434 304 425 324 408 C 344 391 354 374 354 358 C 354 339 348 325 336 315 C 324 305 311 300 297 300 C 282 300 270 304 261 314 C 252 324 248 335 248 348 C 248 352 248 358 250 364 C 251 370 252 375 254 380 C 251 380 247 381 241 383 C 235 385 226 386 215 386 C 197 386 181 380 167 369 C 153 357 146 343 146 325 C 146 309 153 295 169 285 C 184 274 208 261 241 247 C 277 230 302 213 316 195 C 330 177 337 157 337 133 C 337 117 333 100 325 84 C 317 67 306 52 291 38 C 276 24 257 12 234 4 C 210 -4 183 -9 153 -9 C 103 -9 65 1 39 22 C 12 42 -1 64 -1 87 C -1 101 4 115 14 127 C 24 139 38 146 57 146 C 75 146 89 141 97 131 C 105 121 109 110 109 98 C 109 90 107 83 104 77 C 100 70 97 65 95 61 C 103 54 114 49 127 45 C 140 41 153 39 167 39 C 189 39 208 45 224 59 C 240 73 248 88 248 106 C 248 124 238 139 220 149 C 202 159 178 171 150 184 C 114 199 89 216 77 235 C 64 254 58 275 58 299 C 58 318 62 336 72 352 C 81 368 93 383 109 395 C 124 407 142 416 162 423 C 182 430 204 434 226 434 Z" unicode="s" />
<glyph horiz-adv-x="292" d="M 221 420 L 325 420 L 312 367 L 208 367 L 146 109 C 145 104 144 98 143 91 C 141 83 141 79 141 77 C 141 70 143 64 149 60 C 154 55 162 53 173 53 C 179 53 188 55 199 59 C 210 63 222 68 235 75 L 245 32 C 236 24 220 16 196 6 C 172 -4 147 -9 123 -9 C 91 -9 68 -2 56 10 C 44 22 38 39 38 59 C 38 64 38 71 39 79 C 40 87 42 94 44 102 L 108 367 L 56 367 L 64 395 C 65 400 68 404 74 407 C 79 409 89 413 105 418 C 113 420 119 423 123 427 C 127 430 130 435 132 443 L 157 540 C 158 546 160 550 164 553 C 167 555 171 557 175 558 L 259 569 L 221 420 Z" unicode="t" />
<glyph horiz-adv-x="517" d="M 487 74 L 497 33 C 488 25 473 16 451 6 C 429 -3 406 -9 382 -9 C 355 -9 337 -2 328 10 C 318 22 313 36 312 52 C 292 37 270 23 245 10 C 220 -2 191 -9 157 -9 C 117 -9 89 1 73 21 C 56 41 48 68 48 101 C 48 107 49 116 51 127 C 53 137 55 147 57 156 L 96 306 C 96 310 97 314 98 318 C 99 322 100 326 100 329 C 100 335 97 341 92 345 C 87 349 80 351 70 352 C 63 352 57 353 52 355 C 46 357 44 360 44 364 C 44 365 44 367 44 369 C 44 371 45 374 46 376 L 52 399 C 74 399 97 401 119 407 C 141 413 164 420 188 429 L 228 429 L 154 144 C 152 138 151 132 150 125 C 149 118 149 113 149 110 C 149 90 153 76 162 68 C 171 59 185 55 204 55 C 224 55 244 60 264 71 C 284 82 301 95 316 110 L 365 304 C 365 308 366 313 367 318 C 368 322 369 326 369 329 C 369 335 366 341 361 345 C 356 349 349 351 339 352 C 332 352 326 353 321 355 C 315 357 313 360 313 364 C 313 365 313 367 313 369 C 313 371 314 374 315 376 L 321 399 C 343 399 366 401 388 407 C 410 413 433 420 457 429 L 495 429 L 411 97 C 410 93 409 88 409 84 C 408 80 408 76 408 73 C 408 67 409 62 413 58 C 417 54 423 52 432 52 C 439 52 447 54 455 58 C 463 62 474 68 487 74 Z" unicode="u" />
<glyph horiz-adv-x="463" d="M 371 460 C 387 460 401 455 411 447 C 421 439 429 428 435 416 C 440 403 443 389 445 374 C 447 359 448 345 448 332 C 448 295 442 256 430 216 C 418 176 401 139 379 106 C 357 72 330 45 298 23 C 266 1 230 -10 190 -10 C 172 -10 154 -7 137 -2 C 120 2 105 9 92 19 C 79 29 69 41 61 56 C 53 70 49 87 49 107 C 49 114 49 123 51 134 C 53 145 55 155 57 164 L 95 307 C 95 311 96 315 97 319 C 98 323 99 326 99 329 C 99 335 96 341 91 345 C 86 349 79 351 69 352 C 62 352 56 353 51 355 C 45 356 43 359 43 363 C 43 364 43 366 43 368 C 43 370 44 373 45 376 L 51 399 C 73 399 96 401 118 407 C 140 412 162 419 186 429 L 228 429 L 158 168 C 156 161 155 152 153 140 C 151 128 151 120 151 116 C 151 99 155 85 163 73 C 171 61 186 56 209 56 C 223 56 236 59 250 66 C 264 73 277 82 289 93 C 301 104 311 117 321 131 C 331 145 339 160 346 174 C 360 206 370 235 375 261 C 379 286 382 313 383 342 C 355 347 337 355 328 365 C 318 375 314 388 314 405 C 314 422 319 435 331 445 C 342 455 355 460 371 460 Z" unicode="v" />
<glyph horiz-adv-x="711" d="M 617 460 C 633 460 647 455 657 447 C 667 439 675 428 681 416 C 686 403 689 389 691 374 C 693 359 694 345 694 332 C 694 298 688 262 676 222 C 664 182 648 145 627 111 C 605 77 579 48 547 25 C 515 2 480 -9 440 -9 C 412 -9 387 -3 364 9 C 340 21 323 39 313 63 C 294 45 273 29 249 14 C 225 -1 197 -9 165 -9 C 124 -9 94 2 76 25 C 57 48 48 76 48 109 C 48 115 48 124 50 135 C 52 145 54 155 57 164 L 95 307 C 95 311 96 315 97 319 C 98 323 99 326 99 329 C 99 335 96 341 91 345 C 86 349 79 352 69 353 C 62 353 56 354 51 356 C 45 357 43 360 43 364 C 43 365 43 367 43 369 C 43 371 44 374 45 377 L 51 400 C 73 400 96 402 119 407 C 141 412 164 419 188 429 L 227 429 L 154 152 C 152 146 151 139 150 131 C 148 123 148 117 148 114 C 148 96 151 82 159 71 C 167 59 181 54 203 54 C 219 54 236 60 252 72 C 268 84 282 96 295 109 L 375 423 L 475 423 L 409 166 C 407 158 405 148 404 138 C 402 128 402 120 402 116 C 402 99 405 85 413 73 C 421 61 436 56 459 56 C 487 56 513 68 537 92 C 561 116 580 144 594 175 C 608 207 618 236 622 261 C 626 286 629 313 630 342 C 602 347 584 355 574 365 C 564 375 560 388 560 405 C 560 422 565 435 577 445 C 588 455 601 460 617 460 Z" unicode="w" />
<glyph horiz-adv-x="431" d="M 406 431 C 421 431 434 426 444 418 C 454 410 460 397 460 379 C 460 361 454 348 442 339 C 430 329 419 325 408 325 C 399 325 391 326 384 329 C 377 332 370 338 363 347 C 347 332 333 317 322 303 C 310 289 291 264 265 229 C 269 209 275 189 281 167 C 287 145 292 127 298 113 C 302 99 309 86 317 73 C 325 60 335 54 348 54 C 355 54 363 55 371 59 C 379 63 389 68 402 74 L 411 33 C 402 25 387 16 365 6 C 343 -3 321 -9 299 -9 C 274 -9 253 2 236 24 C 219 46 204 88 192 148 C 156 92 125 52 99 28 C 73 4 50 -7 31 -7 C 10 -7 -4 0 -14 12 C -23 25 -28 39 -28 54 C -28 64 -23 75 -14 87 C -5 99 8 105 28 105 C 36 105 45 102 53 98 C 61 94 68 87 75 79 C 94 97 110 115 124 132 C 137 148 155 173 178 207 C 172 228 167 247 163 265 C 158 282 153 297 149 310 C 144 323 137 336 129 349 C 121 361 110 368 98 368 C 90 368 83 365 75 361 C 67 357 56 352 44 346 L 34 387 C 42 394 58 403 82 414 C 105 425 127 431 149 431 C 173 431 193 420 209 398 C 224 376 238 339 251 287 C 264 305 277 322 290 340 C 303 357 316 372 329 386 C 342 399 355 410 368 418 C 380 426 393 431 406 431 Z" unicode="x" />
<glyph horiz-adv-x="437" d="M 394 432 C 412 432 427 426 437 414 C 447 402 453 389 453 373 C 453 357 447 337 436 311 C 425 285 411 257 393 226 C 375 195 354 162 331 128 C 308 94 285 60 262 28 C 245 4 226 -20 206 -46 C 186 -72 164 -97 142 -119 C 119 -141 95 -159 71 -173 C 46 -187 21 -195 -5 -195 C -31 -195 -52 -188 -67 -174 C -81 -160 -89 -143 -89 -123 C -89 -110 -84 -98 -74 -86 C -64 -74 -50 -68 -32 -68 C -18 -68 -5 -73 6 -83 C 18 -93 25 -110 28 -135 C 41 -130 55 -122 70 -111 C 84 -100 98 -88 112 -75 C 126 -62 138 -49 150 -36 C 162 -23 171 -12 178 -4 C 172 29 166 62 160 95 C 154 128 147 159 141 187 C 135 215 129 239 123 261 C 117 283 113 299 109 310 C 105 322 99 335 92 347 C 84 359 74 366 62 366 C 54 366 46 364 38 360 C 29 356 18 351 6 346 L -3 388 C 7 396 23 406 46 416 C 68 426 89 432 109 432 C 141 432 164 419 180 395 C 195 370 208 335 220 289 C 228 256 234 222 239 188 C 244 154 249 123 253 97 C 272 125 289 154 305 182 C 320 210 334 236 346 261 C 352 273 356 282 359 290 C 362 297 366 308 371 322 C 360 328 351 335 344 343 C 336 351 333 362 333 376 C 333 388 338 401 349 413 C 359 425 374 432 394 432 Z" unicode="y" />
<glyph horiz-adv-x="401" d="M 408 435 L 423 401 L 98 84 C 104 85 113 87 125 90 C 136 92 149 94 165 94 C 183 94 199 91 212 87 C 225 83 237 78 247 72 C 257 66 267 61 277 57 C 286 53 296 51 306 51 C 310 51 314 52 319 55 C 324 58 327 64 327 73 C 327 80 324 86 320 90 C 316 94 311 98 307 102 C 302 106 297 110 293 116 C 289 121 287 129 287 140 C 287 154 292 164 303 172 C 314 180 325 184 336 184 C 345 184 356 180 369 172 C 381 164 388 147 388 122 C 388 99 383 79 375 63 C 367 47 356 33 343 23 C 330 12 315 4 298 -1 C 281 -6 264 -9 248 -9 C 232 -9 218 -7 207 -5 C 196 -3 185 0 175 2 C 165 5 153 8 141 10 C 129 12 114 14 96 14 C 79 14 63 12 48 9 C 32 6 11 2 -16 -3 L -31 31 L 290 345 C 280 342 268 339 255 337 C 241 335 229 334 219 334 C 204 334 190 335 178 338 C 165 340 149 342 131 342 C 113 342 99 337 89 327 C 79 317 70 307 62 297 L 31 317 C 31 319 33 327 38 339 C 43 351 51 364 62 377 C 72 390 86 402 104 413 C 121 423 142 429 167 429 C 183 429 195 428 203 426 C 211 424 218 423 226 421 C 233 419 242 417 252 415 C 262 413 277 413 297 413 C 329 413 352 415 367 420 C 381 424 395 429 408 435 Z" unicode="z" />
<glyph horiz-adv-x="369" d="M 174 539 C 179 567 190 594 208 618 C 225 642 247 662 273 679 C 299 696 328 709 360 719 C 392 728 426 733 462 733 L 454 696 C 400 685 358 669 330 647 C 301 625 283 595 276 556 C 272 533 269 512 267 494 C 265 476 263 458 261 442 C 257 418 249 398 238 380 C 227 362 214 346 200 332 C 185 318 169 307 151 297 C 133 287 116 278 100 272 C 122 260 139 242 153 220 C 166 197 173 170 173 140 C 173 134 172 127 172 121 C 171 115 170 108 170 102 C 167 85 163 68 158 50 C 153 32 149 11 145 -12 C 143 -22 142 -31 141 -39 C 139 -47 139 -55 139 -63 C 139 -89 146 -109 160 -123 C 174 -137 200 -149 238 -160 L 228 -197 C 168 -197 122 -181 92 -151 C 62 -121 47 -82 47 -36 C 47 -29 47 -22 48 -14 C 48 -6 49 1 51 9 C 55 29 60 50 67 70 C 73 90 78 110 82 129 C 83 137 84 144 85 152 C 86 160 87 167 87 175 C 87 196 82 214 73 229 C 63 243 45 254 19 260 L 27 295 C 65 301 94 314 116 332 C 138 350 152 379 159 420 C 162 438 164 458 166 478 C 167 498 170 518 174 539 Z" unicode="{" />
<glyph horiz-adv-x="74" d="M 92 730 L 92 -190 L 20 -190 L 20 730 L 92 730 Z" unicode="|" />
<glyph horiz-adv-x="369" d="M 276 361 C 276 340 280 322 290 307 C 299 292 317 282 344 277 L 337 242 C 299 235 269 222 247 204 C 225 186 210 157 204 117 C 200 98 198 78 197 58 C 195 38 193 17 189 -3 C 183 -31 172 -58 155 -82 C 137 -106 116 -126 90 -143 C 64 -160 34 -173 2 -183 C -29 -192 -63 -197 -99 -197 L -91 -159 C -36 -148 5 -132 34 -111 C 62 -89 80 -59 87 -20 C 91 3 94 24 96 42 C 97 60 99 77 102 94 C 106 117 113 138 124 156 C 135 174 148 189 163 203 C 177 217 193 229 211 239 C 229 249 246 257 263 264 C 241 276 223 293 210 316 C 196 339 190 366 190 397 C 190 403 190 409 191 415 C 191 421 192 427 193 434 C 195 450 199 468 204 486 C 209 504 214 525 218 548 C 219 558 220 567 222 575 C 223 583 224 592 224 600 C 224 626 217 646 203 660 C 189 674 163 686 126 697 L 135 733 C 195 733 240 717 270 687 C 300 657 316 618 316 572 C 316 565 315 558 315 550 C 314 542 313 534 312 527 C 308 506 302 486 296 466 C 289 446 284 426 281 408 C 279 399 278 391 277 383 C 276 375 276 368 276 361 Z" unicode="}" />
<glyph horiz-adv-x="745" d="M 612 404 L 665 404 C 663 376 658 350 650 326 C 641 301 629 279 614 261 C 599 242 581 227 561 216 C 540 205 517 200 493 200 C 473 200 455 204 439 212 C 423 220 402 233 376 251 C 354 265 334 278 317 289 C 300 300 282 306 264 306 C 250 306 237 302 227 295 C 217 288 208 279 202 268 C 195 257 189 245 185 231 C 181 217 178 204 176 192 L 123 192 C 124 219 129 245 138 270 C 147 294 159 316 174 334 C 189 352 207 367 228 378 C 248 388 271 394 295 394 C 319 394 340 390 356 383 C 372 375 391 364 414 349 C 436 334 456 320 474 308 C 491 296 508 290 524 290 C 538 290 550 293 560 300 C 570 307 579 316 586 327 C 593 338 599 350 603 364 C 607 378 610 391 612 404 Z" unicode="~" />
<glyph horiz-adv-x="219" d="" unicode="" />
<glyph horiz-adv-x="281" d="M 182 548 C 200 548 216 541 229 527 C 242 513 249 497 249 479 C 249 460 242 444 229 431 C 216 417 200 411 182 411 C 162 411 146 417 133 431 C 119 444 113 460 113 479 C 113 497 119 513 133 527 C 146 541 162 548 182 548 Z M 146 350 C 154 350 160 347 164 341 C 168 335 169 330 169 328 C 162 296 153 257 143 211 C 132 165 124 119 119 75 C 112 25 108 -14 107 -44 C 105 -74 101 -103 94 -132 C 89 -150 81 -165 70 -179 C 58 -193 44 -200 28 -200 C 6 -200 -9 -193 -19 -179 C -28 -165 -33 -150 -33 -133 C -33 -128 -32 -123 -32 -117 C -31 -111 -30 -105 -29 -101 C -21 -71 -11 -43 1 -16 C 13 10 29 47 47 94 C 63 136 77 179 91 224 C 104 269 115 307 124 339 C 124 341 127 344 132 346 C 136 348 141 350 146 350 Z" unicode="" />
<glyph horiz-adv-x="443" d="M 358 558 C 390 552 413 541 429 524 C 445 506 453 489 453 471 C 453 446 446 429 433 419 C 420 409 406 405 392 405 C 376 405 362 409 352 418 C 341 426 336 439 336 455 C 336 461 337 468 340 476 C 343 484 347 491 351 499 C 347 501 340 504 331 507 C 321 510 310 512 296 512 C 274 512 255 505 239 493 C 222 480 208 464 197 444 C 186 424 178 401 172 376 C 166 351 164 326 164 302 C 164 269 171 240 186 216 C 201 192 227 180 263 180 C 293 180 319 187 340 203 C 360 219 381 236 402 256 L 430 216 C 421 205 411 194 400 183 C 388 171 375 161 361 151 C 346 141 329 133 311 127 C 293 120 273 117 251 117 L 221 -9 L 168 -9 L 201 121 C 159 129 124 149 97 179 C 70 209 57 248 57 296 C 57 328 62 361 74 393 C 86 425 102 453 124 478 C 146 503 172 523 203 539 C 234 554 269 562 308 562 L 333 667 L 386 667 L 358 558 Z" unicode="" />
<glyph horiz-adv-x="539" d="M 412 694 C 460 694 497 682 525 660 C 552 638 566 611 566 580 C 566 552 559 533 545 521 C 531 509 517 504 503 504 C 488 504 475 508 463 516 C 451 524 446 537 446 555 C 446 567 448 578 454 587 C 459 596 468 605 480 615 C 470 625 459 631 449 635 C 439 638 427 640 413 640 C 371 640 337 624 310 592 C 283 560 270 520 270 472 C 270 455 270 439 272 425 C 274 410 276 395 279 380 L 467 380 L 452 324 L 287 324 C 288 316 289 307 290 297 C 290 287 291 278 291 270 C 291 249 287 227 279 205 C 271 183 261 161 250 141 C 269 127 289 114 309 102 C 329 90 352 85 378 85 C 400 85 420 89 438 97 C 456 105 472 118 488 135 L 515 93 C 492 66 468 42 442 22 C 416 1 385 -9 348 -9 C 314 -9 287 0 266 16 C 244 33 226 52 210 72 C 193 48 173 29 150 14 C 127 -1 101 -9 71 -9 C 47 -9 25 -1 5 14 C -15 29 -25 51 -25 80 C -25 98 -21 115 -13 130 C -5 144 5 157 17 167 C 29 177 43 185 59 191 C 75 197 90 200 105 200 C 119 200 134 198 149 194 C 164 190 179 184 194 176 C 196 182 197 189 199 197 C 200 205 201 214 201 222 C 201 242 198 260 194 277 C 189 294 184 310 179 324 L 58 324 L 72 380 L 168 380 C 166 390 164 400 163 411 C 161 421 161 433 161 446 C 161 475 167 504 179 534 C 191 564 207 590 229 614 C 251 638 277 657 308 672 C 339 686 374 694 412 694 Z M 78 33 C 96 33 113 40 131 55 C 149 69 162 89 171 114 C 162 124 152 132 140 138 C 128 144 113 148 97 148 C 77 148 61 142 49 130 C 36 118 30 102 30 83 C 30 70 33 58 41 48 C 49 38 61 33 78 33 Z" unicode="" />
<glyph horiz-adv-x="559" d="M 458 694 C 485 694 508 690 527 684 C 546 678 562 670 574 660 C 586 650 594 638 599 626 C 604 614 606 602 606 590 C 605 571 598 556 586 544 C 573 532 558 526 542 526 C 523 526 509 531 500 542 C 490 553 486 567 487 584 C 487 589 488 596 490 606 C 492 615 494 622 496 628 C 492 629 486 631 478 635 C 470 638 455 640 433 640 C 411 640 390 634 370 623 C 350 612 331 597 313 578 C 295 558 280 536 266 510 C 252 484 242 456 234 426 L 454 426 L 444 378 L 221 378 C 218 364 215 352 213 342 C 210 332 208 319 206 305 L 399 305 L 390 257 L 201 257 C 200 248 199 239 199 231 C 199 223 199 215 199 207 C 199 163 210 128 231 100 C 251 72 284 58 329 58 C 361 58 392 66 421 82 C 449 98 478 124 507 160 L 535 122 C 508 80 474 48 433 25 C 391 2 348 -9 304 -9 C 236 -9 185 11 150 52 C 115 93 97 147 97 214 C 97 220 97 227 97 235 C 97 242 98 249 98 257 L 28 257 L 37 305 L 103 305 C 105 319 107 331 110 342 C 113 353 116 365 119 378 L 51 378 L 61 426 L 135 426 C 164 506 206 571 261 620 C 315 669 381 694 458 694 Z" unicode="" />
<glyph horiz-adv-x="618" d="M 511 684 L 708 684 L 701 657 C 699 651 697 647 694 645 C 690 643 682 639 670 633 C 660 628 650 622 640 615 C 630 608 617 596 602 578 L 443 393 L 569 393 L 555 345 L 400 345 L 372 311 L 362 273 L 537 273 L 525 225 L 351 225 L 324 116 C 322 108 320 101 319 95 C 318 88 318 84 318 82 C 318 73 320 67 325 63 C 330 59 336 55 344 51 C 350 48 355 45 359 43 C 363 40 365 37 365 35 C 365 32 364 29 364 27 C 363 24 362 21 362 19 L 357 0 L 142 0 L 149 28 C 150 34 152 38 156 40 C 159 42 167 45 179 51 C 193 57 201 63 205 67 C 209 71 212 79 215 92 L 248 225 L 67 225 L 79 273 L 260 273 L 270 310 L 255 345 L 96 345 L 110 393 L 237 393 L 160 592 C 156 601 152 609 147 615 C 141 621 133 627 121 633 C 115 635 110 638 106 641 C 102 643 100 646 100 649 C 100 651 100 654 101 657 C 101 659 102 662 103 665 L 108 684 L 327 684 L 320 656 C 318 650 316 645 313 643 C 310 641 302 637 290 633 C 279 629 272 626 270 623 C 268 619 267 616 267 612 C 267 609 267 604 269 598 C 271 591 272 587 273 585 L 352 371 L 525 575 C 529 579 533 586 539 594 C 545 602 548 609 548 614 C 548 618 546 621 543 625 C 540 628 535 631 529 634 C 521 636 515 639 510 641 C 505 643 503 646 503 649 C 503 651 503 654 504 657 C 504 659 505 662 506 665 L 511 684 Z" unicode="" />
<glyph horiz-adv-x="556" d="M 372 730 C 401 730 427 726 450 718 C 472 710 491 700 507 688 C 523 676 535 662 543 646 C 551 630 556 615 556 599 C 556 573 549 554 537 542 C 525 529 510 523 494 523 C 478 523 464 527 452 537 C 440 546 434 560 434 578 C 434 589 437 599 443 608 C 449 617 458 626 471 635 C 460 645 447 655 431 664 C 415 673 394 678 367 678 C 329 678 300 667 281 645 C 261 623 252 600 252 576 C 252 560 259 543 274 527 C 288 510 320 487 368 459 C 415 431 451 403 475 376 C 499 348 511 318 511 286 C 511 252 499 221 477 193 C 455 164 422 138 378 114 C 396 99 409 83 417 65 C 425 47 429 29 429 12 C 429 -12 423 -35 411 -57 C 399 -79 384 -97 365 -113 C 345 -129 322 -141 296 -151 C 270 -160 242 -165 214 -165 C 184 -165 158 -161 135 -153 C 112 -145 93 -136 77 -124 C 61 -112 48 -98 40 -82 C 32 -66 28 -51 28 -35 C 28 -9 34 9 46 22 C 58 34 73 41 90 41 C 105 41 119 36 131 27 C 143 17 150 4 150 -14 C 150 -25 147 -35 141 -44 C 135 -53 125 -62 113 -71 C 123 -81 136 -91 152 -100 C 168 -108 189 -113 217 -113 C 255 -113 284 -102 304 -81 C 324 -59 334 -36 334 -12 C 334 4 326 20 311 37 C 295 54 264 77 216 106 C 168 134 133 161 109 189 C 85 216 73 246 73 279 C 73 312 84 343 106 372 C 128 400 162 427 206 451 C 188 465 176 481 168 499 C 160 517 157 534 157 552 C 157 576 162 599 174 621 C 186 643 201 662 221 678 C 240 694 263 706 289 716 C 315 725 343 730 372 730 Z M 339 138 C 361 151 380 167 396 185 C 412 203 420 224 420 250 C 420 268 415 284 406 299 C 396 314 382 329 364 343 C 342 359 321 374 300 389 C 279 403 261 416 245 427 C 222 413 203 398 187 380 C 171 362 164 340 164 315 C 164 297 168 280 178 265 C 187 250 201 236 220 222 C 241 206 262 190 283 176 C 303 161 322 148 339 138 Z" unicode="" />
<glyph horiz-adv-x="389" d="M 322 617 C 336 617 349 611 361 600 C 372 588 378 575 378 561 C 378 546 372 533 361 522 C 349 510 336 505 322 505 C 307 505 294 510 283 522 C 271 533 266 546 266 561 C 266 575 271 588 283 600 C 294 611 307 617 322 617 Z M 132 617 C 146 617 159 611 171 600 C 182 588 188 575 188 561 C 188 546 182 533 171 522 C 159 510 146 505 132 505 C 117 505 104 510 93 522 C 81 533 76 546 76 561 C 76 575 81 588 93 600 C 104 611 117 617 132 617 Z" unicode="" />
<glyph horiz-adv-x="799" d="M 428 723 C 480 723 528 713 574 694 C 619 674 658 648 691 616 C 724 583 750 544 770 499 C 789 454 799 406 799 356 C 799 305 789 257 770 213 C 750 168 724 129 691 96 C 658 63 619 37 574 18 C 528 0 480 -10 428 -10 C 376 -10 327 0 282 18 C 236 37 197 63 164 96 C 131 129 105 168 86 213 C 66 257 57 305 57 356 C 57 406 66 454 86 499 C 105 544 131 583 164 616 C 197 648 236 674 282 694 C 327 713 376 723 428 723 Z M 428 27 C 474 27 517 35 557 53 C 597 70 631 93 661 123 C 691 153 714 188 731 228 C 748 268 757 310 757 356 C 757 401 748 444 731 484 C 714 524 691 559 661 589 C 631 619 597 642 557 660 C 517 677 474 686 428 686 C 382 686 339 677 299 660 C 259 642 224 619 195 589 C 165 559 142 524 125 484 C 108 444 100 401 100 356 C 100 310 108 268 125 228 C 142 188 165 153 195 123 C 224 93 259 70 299 53 C 339 35 382 27 428 27 Z M 568 270 L 599 240 C 594 229 587 218 577 206 C 567 194 555 184 541 174 C 527 164 510 156 492 150 C 474 143 454 140 433 140 C 399 140 370 145 345 157 C 319 169 298 184 282 204 C 265 223 252 245 244 271 C 235 297 231 324 231 352 C 231 387 237 418 249 445 C 261 472 277 495 296 513 C 315 531 336 544 360 553 C 384 562 407 567 430 567 C 448 567 465 564 479 560 C 493 556 509 549 526 539 C 527 538 528 537 529 536 C 530 535 531 535 533 536 C 538 539 542 541 544 543 C 546 544 549 545 552 545 L 578 545 L 578 424 L 546 424 C 540 424 535 425 533 428 C 530 431 528 435 527 439 C 520 459 509 478 495 495 C 480 511 462 520 440 520 C 427 520 414 517 401 511 C 387 505 375 495 364 482 C 353 468 344 451 337 430 C 330 409 327 384 327 355 C 327 303 337 263 358 235 C 379 207 406 193 438 193 C 454 193 470 195 484 201 C 498 207 510 213 521 221 C 531 229 541 237 549 246 C 557 255 563 263 568 270 Z" unicode="" />
<glyph horiz-adv-x="449" d="M 460 695 C 462 695 464 693 466 690 C 468 687 469 684 469 680 C 469 678 468 673 466 666 C 464 659 464 656 464 656 L 406 430 C 404 422 402 415 401 408 C 399 401 399 395 399 391 C 399 385 401 381 405 377 C 409 373 413 371 418 371 C 420 371 421 371 423 371 C 425 371 427 371 430 372 C 430 372 432 373 434 374 C 436 374 438 375 442 376 L 449 364 C 449 363 450 362 450 360 C 450 358 451 356 451 354 C 451 349 448 344 443 340 C 437 336 431 332 423 329 C 415 326 406 324 397 322 C 388 320 380 320 373 320 C 354 320 341 325 333 337 C 325 349 320 365 316 385 C 297 366 278 350 260 338 C 241 326 220 320 198 320 C 164 320 137 332 119 357 C 100 381 91 414 91 454 C 91 487 97 518 109 548 C 121 577 137 602 157 624 C 177 645 200 662 226 675 C 252 687 280 694 308 694 C 326 694 341 692 353 688 C 365 684 375 679 382 675 C 386 672 390 669 395 667 C 399 665 403 664 406 664 C 410 664 412 664 414 665 C 415 665 417 667 420 670 C 422 672 425 674 429 677 C 433 680 437 684 443 689 C 445 691 448 693 451 694 C 454 694 457 695 460 695 Z M 364 575 C 364 578 365 582 366 586 C 367 590 368 593 368 597 C 368 607 363 617 354 629 C 345 640 330 646 310 646 C 289 646 270 640 253 629 C 236 617 222 603 211 586 C 199 568 190 549 184 528 C 178 506 175 486 175 467 C 175 446 179 428 189 414 C 199 399 214 392 235 392 C 255 392 273 396 288 406 C 302 416 316 426 328 436 L 364 575 Z" unicode="" />
<glyph horiz-adv-x="493" d="M 432 398 L 496 398 L 350 219 L 422 50 L 358 50 L 256 192 C 253 195 251 199 249 203 C 247 207 247 212 247 217 C 247 225 249 232 254 239 C 258 245 264 251 270 256 L 432 398 Z M 231 398 L 295 398 L 150 219 L 221 50 L 157 50 L 55 192 C 52 195 50 199 48 203 C 46 207 46 212 46 217 C 46 225 48 232 53 239 C 57 245 63 251 69 256 L 231 398 Z" unicode="" />
<glyph horiz-adv-x="745" d="M 644 339 L 644 55 L 570 55 L 570 267 L 132 267 L 132 339 L 644 339 Z" unicode="" />
<glyph horiz-adv-x="306" d="M 56 266 L 281 266 L 257 180 L 32 180 L 56 266 Z" unicode="" />
<glyph horiz-adv-x="489" d="M 321 743 C 353 743 384 736 413 724 C 442 711 467 694 489 673 C 510 651 527 626 540 597 C 552 568 559 537 559 505 C 559 472 552 441 540 412 C 527 383 510 358 489 337 C 467 315 442 298 413 286 C 384 274 353 268 321 268 C 288 268 257 274 228 286 C 199 298 174 315 153 337 C 131 358 114 383 102 412 C 89 441 83 472 83 505 C 83 537 89 568 102 597 C 114 626 131 651 153 673 C 174 694 199 711 228 724 C 257 736 288 743 321 743 Z M 321 301 C 349 301 375 306 400 317 C 425 327 447 342 465 360 C 483 378 498 400 509 425 C 519 450 525 477 525 505 C 525 533 519 559 509 584 C 498 609 483 631 465 649 C 447 667 425 682 400 693 C 375 703 349 709 321 709 C 293 709 266 703 241 693 C 216 682 194 667 176 649 C 158 631 143 609 133 584 C 122 559 117 533 117 505 C 117 477 122 450 133 425 C 143 400 158 378 176 360 C 194 342 216 327 241 317 C 266 306 293 301 321 301 Z M 374 482 L 423 375 L 369 375 L 325 475 L 281 475 L 281 375 L 231 375 L 231 632 L 336 632 C 357 632 377 625 395 612 C 413 599 423 580 423 555 C 423 538 418 523 410 511 C 402 498 390 488 374 482 Z M 331 524 C 337 524 345 526 354 531 C 362 535 367 543 367 554 C 367 564 363 572 356 577 C 349 581 341 584 332 584 L 281 584 L 281 524 L 331 524 Z" unicode="" />
<glyph horiz-adv-x="389" d="M 67 601 L 375 601 L 358 537 L 50 537 L 67 601 Z" unicode="" />
<glyph horiz-adv-x="324" d="M 221 740 C 258 740 290 726 318 699 C 345 672 359 640 359 603 C 359 565 345 533 318 506 C 290 479 258 466 221 466 C 183 466 151 479 124 506 C 96 533 83 565 83 603 C 83 640 96 672 124 699 C 151 726 183 740 221 740 Z M 221 514 C 245 514 265 523 280 541 C 294 559 302 579 302 603 C 302 626 294 647 280 665 C 265 683 245 692 221 692 C 196 692 176 683 161 665 C 146 647 139 626 139 603 C 139 579 146 559 161 541 C 176 523 196 514 221 514 Z" unicode="" />
<glyph horiz-adv-x="745" d="M 648 421 L 648 349 L 424 349 L 424 137 L 350 137 L 350 349 L 126 349 L 126 421 L 350 421 L 350 633 L 424 633 L 424 421 L 648 421 Z M 648 72 L 648 0 L 126 0 L 126 72 L 648 72 Z" unicode="" />
<glyph horiz-adv-x="396" d="M 283 734 C 323 734 355 723 380 701 C 405 679 418 653 418 623 C 418 602 412 583 402 565 C 392 547 379 530 363 516 C 347 501 330 488 312 476 C 294 464 277 454 261 445 C 235 430 215 418 200 410 C 184 401 170 391 158 381 L 293 381 C 302 381 309 382 315 386 C 320 389 325 396 330 407 C 332 413 336 417 340 419 C 344 421 348 422 353 422 L 378 422 L 349 313 L 66 313 L 78 363 C 94 382 117 403 146 426 C 174 448 203 470 232 491 C 264 514 289 536 307 557 C 325 578 334 602 334 628 C 334 644 327 659 315 671 C 303 683 287 689 267 689 C 256 689 245 686 234 682 C 223 678 215 673 211 668 C 216 663 220 658 223 653 C 225 647 227 641 227 635 C 227 622 223 612 215 604 C 207 596 197 593 183 593 C 168 593 156 597 148 606 C 140 614 136 625 136 638 C 136 660 150 682 180 703 C 209 723 243 734 283 734 Z" unicode="" />
<glyph horiz-adv-x="395" d="M 267 734 C 305 734 337 724 363 705 C 389 685 402 663 402 637 C 402 611 392 589 373 572 C 354 555 330 543 302 537 C 324 528 343 515 359 499 C 374 482 382 462 382 440 C 382 403 364 372 330 346 C 296 320 254 307 205 307 C 163 307 130 316 106 334 C 82 352 70 375 70 402 C 70 412 74 422 83 431 C 91 440 102 445 115 445 C 131 445 143 440 151 431 C 159 422 163 413 163 405 C 163 398 161 392 158 387 C 154 381 150 376 145 372 C 151 367 158 363 168 359 C 178 355 189 354 202 354 C 219 354 234 357 246 363 C 258 369 268 377 276 387 C 283 397 288 407 292 419 C 295 431 297 442 297 452 C 297 472 288 488 270 499 C 252 510 224 516 186 517 L 194 560 C 240 560 272 566 291 580 C 309 594 319 614 319 641 C 319 653 313 664 302 674 C 290 683 275 688 256 688 C 247 688 239 687 232 686 C 224 684 218 682 214 680 C 216 676 218 672 220 668 C 222 664 223 659 223 653 C 223 642 218 633 210 627 C 202 620 192 617 181 617 C 169 617 158 620 149 627 C 139 634 135 645 135 660 C 135 670 138 680 146 689 C 154 698 164 706 177 713 C 189 719 203 724 219 728 C 235 732 251 734 267 734 Z" unicode="" />
<glyph horiz-adv-x="389" d="M 317 674 C 329 674 339 669 347 660 C 355 651 359 641 359 629 C 359 620 355 611 347 602 C 339 593 328 584 314 576 L 155 486 L 131 503 L 260 645 C 271 657 281 665 290 669 C 299 672 308 674 317 674 Z" unicode="" />
<glyph horiz-adv-x="619" d="M 392 730 L 677 730 L 670 702 C 669 697 667 694 663 692 C 659 690 651 686 640 682 C 625 676 615 672 610 669 C 605 665 601 658 599 646 L 424 -56 C 422 -64 422 -71 425 -76 C 428 -81 435 -86 447 -92 C 456 -96 462 -100 465 -102 C 467 -104 468 -107 467 -112 L 460 -140 L 330 -140 L 535 682 L 463 682 L 258 -140 L 128 -140 L 135 -112 C 136 -107 138 -104 142 -102 C 146 -100 153 -96 165 -92 C 179 -86 189 -81 195 -77 C 200 -73 204 -66 206 -58 L 297 307 C 287 307 270 308 248 310 C 225 312 202 319 179 330 C 156 341 136 358 119 381 C 101 404 93 436 93 476 C 93 511 99 544 112 575 C 125 606 144 633 169 656 C 194 678 225 696 263 710 C 300 723 343 730 392 730 Z M 308 352 L 390 680 C 354 680 324 672 301 658 C 277 643 259 625 246 603 C 232 581 223 556 218 530 C 213 504 211 479 211 457 C 211 425 218 399 233 380 C 247 361 272 352 308 352 Z" unicode="" />
<glyph horiz-adv-x="233" d="M 142 412 C 161 412 177 405 191 392 C 204 378 211 362 211 344 C 211 325 204 309 191 295 C 177 281 161 275 142 275 C 123 275 107 281 94 295 C 81 309 75 325 75 344 C 75 362 81 378 94 392 C 107 405 123 412 142 412 Z" unicode="" />
<glyph horiz-adv-x="389" d="M 196 -46 C 224 -46 245 -52 261 -64 C 276 -76 284 -93 284 -115 C 284 -125 282 -135 278 -146 C 274 -156 267 -166 258 -175 C 248 -184 236 -191 221 -197 C 205 -203 186 -206 164 -206 C 136 -206 111 -200 90 -188 C 69 -176 52 -164 40 -152 L 63 -121 C 75 -129 88 -139 104 -149 C 119 -159 138 -164 160 -164 C 180 -164 192 -158 198 -148 C 204 -137 207 -127 207 -119 C 207 -110 203 -102 196 -94 C 189 -86 177 -83 160 -83 C 156 -83 153 -83 149 -83 C 145 -83 141 -84 137 -85 L 190 1 L 225 1 L 196 -46 Z" unicode="" />
<glyph horiz-adv-x="311" d="M 268 729 L 307 729 L 219 380 C 217 374 218 369 222 366 C 226 362 231 360 239 359 C 248 357 255 355 261 351 C 267 347 269 341 267 335 L 260 312 L 74 312 L 78 335 C 80 341 84 346 92 350 C 100 354 109 357 119 359 C 127 360 133 362 135 365 C 137 368 140 373 142 381 L 212 654 L 145 654 L 153 690 L 268 729 Z" unicode="" />
<glyph horiz-adv-x="449" d="M 296 694 C 315 694 334 690 352 683 C 370 676 386 666 400 652 C 414 638 425 622 433 602 C 441 582 446 559 446 533 C 446 504 440 476 430 450 C 420 424 405 401 387 382 C 369 362 347 347 322 335 C 297 323 270 318 241 318 C 215 318 192 323 174 333 C 155 343 140 355 128 371 C 116 387 108 404 102 423 C 96 441 94 459 94 476 C 94 503 98 530 108 556 C 117 582 130 606 148 626 C 165 646 186 663 211 675 C 236 687 264 694 296 694 Z M 246 365 C 268 365 287 372 302 388 C 317 404 329 422 338 444 C 346 465 352 487 356 511 C 360 534 362 554 362 570 C 362 593 355 612 343 626 C 330 640 314 647 296 647 C 272 647 253 639 238 624 C 222 609 210 591 202 570 C 193 549 187 527 183 504 C 179 480 178 460 178 443 C 178 426 180 412 186 402 C 192 392 198 384 206 378 C 214 372 221 369 229 367 C 237 365 242 365 246 365 Z" unicode="" />
<glyph horiz-adv-x="493" d="M 443 256 C 445 252 447 248 449 244 C 451 240 452 235 452 231 C 452 223 449 215 445 209 C 440 202 435 196 430 192 L 268 50 L 204 50 L 348 229 L 277 398 L 341 398 L 443 256 Z M 242 256 C 244 252 246 248 248 244 C 250 240 251 235 251 231 C 251 223 248 215 244 209 C 239 202 234 196 229 192 L 67 50 L 3 50 L 148 229 L 76 398 L 140 398 L 242 256 Z" unicode="" />
<glyph horiz-adv-x="739" d="M 652 733 L 715 733 L 141 -10 L 78 -10 L 652 733 Z M 268 729 L 307 729 L 219 380 C 217 374 218 369 222 366 C 226 362 231 360 239 359 C 248 357 255 355 261 351 C 267 347 269 341 267 335 L 260 312 L 74 312 L 78 335 C 80 341 84 346 92 350 C 100 354 109 357 119 359 C 127 360 133 362 135 365 C 137 368 140 373 142 381 L 212 654 L 145 654 L 153 690 L 268 729 Z M 638 419 L 694 419 L 627 154 L 692 154 L 678 103 L 614 103 L 602 54 C 601 49 602 46 605 45 C 608 44 612 42 616 40 C 622 37 626 34 628 31 C 630 27 630 24 630 21 L 624 0 L 482 0 L 488 23 C 488 26 490 29 494 32 C 497 35 503 38 513 41 C 517 43 521 45 523 46 C 525 46 527 49 528 54 L 540 103 L 352 103 L 364 149 L 638 419 Z M 552 154 L 592 314 L 430 154 L 552 154 Z" unicode="" />
<glyph horiz-adv-x="804" d="M 652 733 L 715 733 L 141 -10 L 78 -10 L 652 733 Z M 268 729 L 307 729 L 219 380 C 217 374 218 369 222 366 C 226 362 231 360 239 359 C 248 357 255 355 261 351 C 267 347 269 341 267 335 L 260 312 L 74 312 L 78 335 C 80 341 84 346 92 350 C 100 354 109 357 119 359 C 127 360 133 362 135 365 C 137 368 140 373 142 381 L 212 654 L 145 654 L 153 690 L 268 729 Z M 630 421 C 670 421 702 410 727 388 C 752 366 765 340 765 310 C 765 289 759 270 749 252 C 739 234 726 217 710 203 C 694 188 677 175 659 163 C 641 151 624 141 608 132 C 582 117 562 105 547 97 C 531 88 517 78 505 68 L 640 68 C 649 68 656 69 662 73 C 667 76 672 83 677 94 C 679 100 683 104 687 106 C 691 108 695 109 700 109 L 725 109 L 696 0 L 413 0 L 425 50 C 441 69 464 90 493 113 C 521 135 550 157 579 178 C 611 201 636 223 654 244 C 672 265 681 289 681 315 C 681 331 674 346 662 358 C 650 370 634 376 614 376 C 603 376 592 373 581 369 C 570 365 562 360 558 355 C 563 350 567 345 570 340 C 572 334 574 328 574 322 C 574 309 570 299 562 291 C 554 283 544 280 530 280 C 515 280 503 284 495 293 C 487 301 483 312 483 325 C 483 347 497 369 527 390 C 556 410 590 421 630 421 Z" unicode="" />
<glyph horiz-adv-x="801" d="M 267 734 C 305 734 337 724 363 705 C 389 685 402 663 402 637 C 402 611 392 589 373 572 C 354 555 330 543 302 537 C 324 528 343 515 359 499 C 374 482 382 462 382 440 C 382 403 364 372 330 346 C 296 320 254 307 205 307 C 163 307 130 316 106 334 C 82 352 70 375 70 402 C 70 412 74 422 83 431 C 91 440 102 445 115 445 C 131 445 143 440 151 431 C 159 422 163 413 163 405 C 163 398 161 392 158 387 C 154 381 150 376 145 372 C 151 367 158 363 168 359 C 178 355 189 354 202 354 C 219 354 234 357 246 363 C 258 369 268 377 276 387 C 283 397 288 407 292 419 C 295 431 297 442 297 452 C 297 472 288 488 270 499 C 252 510 224 516 186 517 L 194 560 C 240 560 272 566 291 580 C 309 594 319 614 319 641 C 319 653 313 664 302 674 C 290 683 275 688 256 688 C 247 688 239 687 232 686 C 224 684 218 682 214 680 C 216 676 218 672 220 668 C 222 664 223 659 223 653 C 223 642 218 633 210 627 C 202 620 192 617 181 617 C 169 617 158 620 149 627 C 139 634 135 645 135 660 C 135 670 138 680 146 689 C 154 698 164 706 177 713 C 189 719 203 724 219 728 C 235 732 251 734 267 734 Z M 713 733 L 776 733 L 202 -10 L 139 -10 L 713 733 Z M 699 419 L 755 419 L 688 154 L 753 154 L 739 103 L 675 103 L 663 54 C 662 49 663 46 666 45 C 669 44 673 42 677 40 C 683 37 687 34 689 31 C 691 27 691 24 691 21 L 685 0 L 543 0 L 549 23 C 549 26 551 29 555 32 C 558 35 564 38 574 41 C 578 43 582 45 584 46 C 586 46 588 49 589 54 L 601 103 L 413 103 L 425 149 L 699 419 Z M 613 154 L 653 314 L 491 154 L 613 154 Z" unicode="" />
<glyph horiz-adv-x="422" d="M 273 547 C 291 547 307 540 320 526 C 333 512 340 496 340 478 C 340 459 333 443 320 430 C 307 416 291 410 273 410 C 253 410 237 416 224 430 C 210 443 204 459 204 478 C 204 496 210 512 224 526 C 237 540 253 547 273 547 Z M 266 -18 C 286 -18 302 -24 313 -36 C 324 -48 330 -62 330 -79 C 330 -93 325 -108 317 -122 C 309 -136 297 -149 282 -161 C 267 -172 249 -181 227 -188 C 205 -195 180 -199 153 -199 C 129 -199 107 -195 85 -189 C 63 -183 44 -174 28 -162 C 12 -150 -1 -134 -11 -116 C -21 -98 -26 -77 -26 -54 C -26 -16 -15 15 5 41 C 26 67 55 95 91 126 C 137 164 168 199 186 231 C 203 262 216 297 225 336 C 225 338 228 341 234 345 C 240 348 246 350 254 350 C 262 350 269 347 274 342 C 278 337 280 333 280 331 C 275 301 265 268 249 231 C 233 194 211 157 183 119 C 165 96 150 77 138 61 C 126 45 116 31 108 18 C 100 4 94 -8 90 -22 C 86 -35 85 -51 85 -69 C 85 -99 92 -121 108 -133 C 123 -145 140 -152 160 -152 C 171 -152 183 -149 197 -144 C 210 -138 220 -131 228 -122 C 220 -113 215 -105 213 -98 C 210 -91 209 -85 209 -80 C 209 -60 214 -44 225 -34 C 236 -23 250 -18 266 -18 Z" unicode="" />
<glyph horiz-adv-x="679" d="M 410 929 L 544 801 L 521 782 L 358 855 C 342 861 331 869 323 879 C 315 889 312 898 312 908 C 312 919 316 929 324 939 C 332 948 343 953 357 953 C 364 953 372 951 381 948 C 390 945 400 939 410 929 Z M 614 50 C 620 47 625 44 629 42 C 633 39 635 36 635 34 C 635 31 634 28 634 26 C 633 24 632 21 632 19 L 627 0 L 399 0 L 406 28 C 407 32 409 36 413 39 C 416 41 424 45 436 51 C 446 55 453 59 457 63 C 461 67 463 71 463 76 C 463 80 462 86 462 92 C 462 98 461 104 461 111 L 449 202 L 171 202 L 124 131 C 116 119 110 108 104 97 C 98 85 95 77 95 72 C 95 67 96 63 100 60 C 104 57 109 54 117 50 C 123 47 128 44 132 42 C 136 39 138 36 138 34 C 138 31 137 28 137 26 C 136 24 135 21 135 19 L 130 0 L -74 0 L -67 28 C -65 32 -63 36 -59 38 C -55 40 -48 45 -38 51 C -21 59 -9 67 -2 73 C 5 79 14 91 26 108 L 379 634 L 370 678 C 369 681 369 684 369 686 C 369 688 369 690 369 692 C 369 694 370 696 372 698 C 374 700 377 702 381 704 C 393 708 404 713 414 718 C 424 722 435 728 448 735 C 450 736 453 737 456 739 C 459 740 462 741 464 741 C 468 741 471 740 473 738 C 475 736 476 733 477 730 L 575 91 C 576 80 581 71 590 65 C 598 59 606 54 614 50 Z M 207 259 L 440 259 L 396 550 L 207 259 Z" unicode="" />
<glyph horiz-adv-x="679" d="M 524 953 C 537 953 547 948 554 939 C 561 929 565 919 565 908 C 565 898 560 889 552 879 C 544 869 531 861 515 855 L 348 782 L 327 801 L 469 929 C 479 939 489 945 499 948 C 508 951 516 953 524 953 Z M 614 50 C 620 47 625 44 629 42 C 633 39 635 36 635 34 C 635 31 634 28 634 26 C 633 24 632 21 632 19 L 627 0 L 399 0 L 406 28 C 407 32 409 36 413 39 C 416 41 424 45 436 51 C 446 55 453 59 457 63 C 461 67 463 71 463 76 C 463 80 462 86 462 92 C 462 98 461 104 461 111 L 449 202 L 171 202 L 124 131 C 116 119 110 108 104 97 C 98 85 95 77 95 72 C 95 67 96 63 100 60 C 104 57 109 54 117 50 C 123 47 128 44 132 42 C 136 39 138 36 138 34 C 138 31 137 28 137 26 C 136 24 135 21 135 19 L 130 0 L -74 0 L -67 28 C -65 32 -63 36 -59 38 C -55 40 -48 45 -38 51 C -21 59 -9 67 -2 73 C 5 79 14 91 26 108 L 379 634 L 370 678 C 369 681 369 684 369 686 C 369 688 369 690 369 692 C 369 694 370 696 372 698 C 374 700 377 702 381 704 C 393 708 404 713 414 718 C 424 722 435 728 448 735 C 450 736 453 737 456 739 C 459 740 462 741 464 741 C 468 741 471 740 473 738 C 475 736 476 733 477 730 L 575 91 C 576 80 581 71 590 65 C 598 59 606 54 614 50 Z M 207 259 L 440 259 L 396 550 L 207 259 Z" unicode="" />
<glyph horiz-adv-x="679" d="M 506 951 L 605 778 L 565 778 L 467 874 L 315 778 L 273 778 L 446 951 L 506 951 Z M 614 50 C 620 47 625 44 629 42 C 633 39 635 36 635 34 C 635 31 634 28 634 26 C 633 24 632 21 632 19 L 627 0 L 399 0 L 406 28 C 407 32 409 36 413 39 C 416 41 424 45 436 51 C 446 55 453 59 457 63 C 461 67 463 71 463 76 C 463 80 462 86 462 92 C 462 98 461 104 461 111 L 449 202 L 171 202 L 124 131 C 116 119 110 108 104 97 C 98 85 95 77 95 72 C 95 67 96 63 100 60 C 104 57 109 54 117 50 C 123 47 128 44 132 42 C 136 39 138 36 138 34 C 138 31 137 28 137 26 C 136 24 135 21 135 19 L 130 0 L -74 0 L -67 28 C -65 32 -63 36 -59 38 C -55 40 -48 45 -38 51 C -21 59 -9 67 -2 73 C 5 79 14 91 26 108 L 379 634 L 370 678 C 369 681 369 684 369 686 C 369 688 369 690 369 692 C 369 694 370 696 372 698 C 374 700 377 702 381 704 C 393 708 404 713 414 718 C 424 722 435 728 448 735 C 450 736 453 737 456 739 C 459 740 462 741 464 741 C 468 741 471 740 473 738 C 475 736 476 733 477 730 L 575 91 C 576 80 581 71 590 65 C 598 59 606 54 614 50 Z M 207 259 L 440 259 L 396 550 L 207 259 Z" unicode="" />
<glyph horiz-adv-x="679" d="M 590 925 L 627 925 C 621 892 605 864 580 840 C 555 816 528 804 499 804 C 486 804 476 805 468 809 C 460 813 448 819 432 829 C 420 836 409 842 401 846 C 393 850 383 853 373 853 C 359 853 346 847 334 836 C 322 825 315 813 312 800 L 275 800 C 281 832 296 861 321 885 C 346 909 373 921 403 921 C 419 921 430 919 438 915 C 446 911 456 905 470 898 C 482 890 493 884 501 879 C 509 874 519 872 529 872 C 543 872 555 877 567 888 C 579 899 586 911 590 925 Z M 614 50 C 620 47 625 44 629 42 C 633 39 635 36 635 34 C 635 31 634 28 634 26 C 633 24 632 21 632 19 L 627 0 L 399 0 L 406 28 C 407 32 409 36 413 39 C 416 41 424 45 436 51 C 446 55 453 59 457 63 C 461 67 463 71 463 76 C 463 80 462 86 462 92 C 462 98 461 104 461 111 L 449 202 L 171 202 L 124 131 C 116 119 110 108 104 97 C 98 85 95 77 95 72 C 95 67 96 63 100 60 C 104 57 109 54 117 50 C 123 47 128 44 132 42 C 136 39 138 36 138 34 C 138 31 137 28 137 26 C 136 24 135 21 135 19 L 130 0 L -74 0 L -67 28 C -65 32 -63 36 -59 38 C -55 40 -48 45 -38 51 C -21 59 -9 67 -2 73 C 5 79 14 91 26 108 L 379 634 L 370 678 C 369 681 369 684 369 686 C 369 688 369 690 369 692 C 369 694 370 696 372 698 C 374 700 377 702 381 704 C 393 708 404 713 414 718 C 424 722 435 728 448 735 C 450 736 453 737 456 739 C 459 740 462 741 464 741 C 468 741 471 740 473 738 C 475 736 476 733 477 730 L 575 91 C 576 80 581 71 590 65 C 598 59 606 54 614 50 Z M 207 259 L 440 259 L 396 550 L 207 259 Z" unicode="" />
<glyph horiz-adv-x="679" d="M 541 912 C 555 912 568 906 580 895 C 591 883 597 870 597 856 C 597 841 591 828 580 817 C 568 805 555 800 541 800 C 526 800 513 805 502 817 C 490 828 485 841 485 856 C 485 870 490 883 502 895 C 513 906 526 912 541 912 Z M 327 912 C 341 912 354 906 366 895 C 377 883 383 870 383 856 C 383 841 377 828 366 817 C 354 805 341 800 327 800 C 312 800 299 805 288 817 C 276 828 271 841 271 856 C 271 870 276 883 288 895 C 299 906 312 912 327 912 Z M 614 50 C 620 47 625 44 629 42 C 633 39 635 36 635 34 C 635 31 634 28 634 26 C 633 24 632 21 632 19 L 627 0 L 399 0 L 406 28 C 407 32 409 36 413 39 C 416 41 424 45 436 51 C 446 55 453 59 457 63 C 461 67 463 71 463 76 C 463 80 462 86 462 92 C 462 98 461 104 461 111 L 449 202 L 171 202 L 124 131 C 116 119 110 108 104 97 C 98 85 95 77 95 72 C 95 67 96 63 100 60 C 104 57 109 54 117 50 C 123 47 128 44 132 42 C 136 39 138 36 138 34 C 138 31 137 28 137 26 C 136 24 135 21 135 19 L 130 0 L -74 0 L -67 28 C -65 32 -63 36 -59 38 C -55 40 -48 45 -38 51 C -21 59 -9 67 -2 73 C 5 79 14 91 26 108 L 379 634 L 370 678 C 369 681 369 684 369 686 C 369 688 369 690 369 692 C 369 694 370 696 372 698 C 374 700 377 702 381 704 C 393 708 404 713 414 718 C 424 722 435 728 448 735 C 450 736 453 737 456 739 C 459 740 462 741 464 741 C 468 741 471 740 473 738 C 475 736 476 733 477 730 L 575 91 C 576 80 581 71 590 65 C 598 59 606 54 614 50 Z M 207 259 L 440 259 L 396 550 L 207 259 Z" unicode="" />
<glyph horiz-adv-x="679" d="M 453 984 C 485 984 512 974 533 956 C 553 937 564 914 564 886 C 564 852 550 823 523 799 C 496 775 466 764 432 764 C 400 764 374 773 353 791 C 332 809 322 833 322 862 C 322 876 325 891 331 905 C 337 919 346 932 358 944 C 370 956 384 965 400 973 C 416 980 433 984 453 984 Z M 433 799 C 455 799 472 808 483 828 C 493 848 499 870 499 895 C 499 913 494 927 486 936 C 478 944 466 949 452 949 C 429 949 412 938 402 918 C 392 898 387 876 387 854 C 387 836 390 823 397 813 C 404 803 416 799 433 799 Z M 614 50 C 620 47 625 44 629 42 C 633 39 635 36 635 34 C 635 31 634 28 634 26 C 633 24 632 21 632 19 L 627 0 L 399 0 L 406 28 C 407 32 409 36 413 39 C 416 41 424 45 436 51 C 446 55 453 59 457 63 C 461 67 463 71 463 76 C 463 80 462 86 462 92 C 462 98 461 104 461 111 L 449 202 L 171 202 L 124 131 C 116 119 110 108 104 97 C 98 85 95 77 95 72 C 95 67 96 63 100 60 C 104 57 109 54 117 50 C 123 47 128 44 132 42 C 136 39 138 36 138 34 C 138 31 137 28 137 26 C 136 24 135 21 135 19 L 130 0 L -74 0 L -67 28 C -65 32 -63 36 -59 38 C -55 40 -48 45 -38 51 C -21 59 -9 67 -2 73 C 5 79 14 91 26 108 L 379 634 L 370 678 C 369 681 369 684 369 686 C 369 688 369 690 369 692 C 369 694 370 696 372 698 C 374 700 377 702 381 704 C 393 708 404 713 414 718 C 424 722 435 728 448 735 C 450 736 453 737 456 739 C 459 740 462 741 464 741 C 468 741 471 740 473 738 C 475 736 476 733 477 730 L 575 91 C 576 80 581 71 590 65 C 598 59 606 54 614 50 Z M 207 259 L 440 259 L 396 550 L 207 259 Z" unicode="" />
<glyph horiz-adv-x="967" d="M 906 730 C 912 730 921 730 932 731 C 942 731 953 732 963 733 C 973 733 983 734 993 735 C 1002 735 1009 736 1014 737 L 975 581 L 953 581 C 944 581 938 582 935 585 C 932 587 930 591 930 597 C 927 612 924 625 922 635 C 919 645 915 652 909 658 C 903 663 895 667 884 669 C 872 671 857 672 838 672 L 689 672 L 621 398 L 698 398 C 718 398 733 401 743 408 C 753 414 764 426 776 443 C 780 448 784 452 789 456 C 793 459 800 461 809 461 L 836 461 L 789 272 L 763 272 C 755 272 749 274 745 279 C 741 283 739 288 739 293 C 735 310 730 322 724 329 C 718 335 706 339 690 339 L 607 339 L 536 58 L 719 58 C 753 58 780 64 799 78 C 817 92 839 116 863 152 C 867 158 870 163 874 167 C 878 170 883 172 890 172 L 921 172 L 878 0 L 356 0 L 363 28 C 364 34 366 38 370 40 C 373 42 381 45 393 51 C 407 57 416 62 421 66 C 425 70 429 78 432 91 L 494 333 L 274 333 L 129 131 C 121 119 113 108 107 97 C 100 85 97 77 97 72 C 96 67 98 63 102 60 C 106 57 112 54 120 50 C 125 47 130 44 134 42 C 138 39 140 36 140 34 C 140 31 139 28 139 26 C 138 24 137 21 137 19 L 133 0 L -74 0 L -69 28 C -67 32 -65 36 -61 38 C -57 40 -49 45 -38 51 C -21 59 -9 67 -1 73 C 6 79 16 91 29 108 L 385 599 C 393 610 400 621 406 633 C 412 644 416 652 417 658 C 417 662 415 666 410 669 C 404 671 398 675 391 679 C 385 681 380 684 374 687 C 368 690 366 693 366 696 C 366 698 366 701 367 703 C 367 705 368 708 369 711 L 374 730 L 906 730 Z M 561 611 C 562 617 563 625 565 634 C 567 643 568 650 568 656 C 568 663 566 669 564 674 C 562 678 558 681 552 681 C 539 681 527 675 516 665 C 505 655 494 642 483 626 L 316 392 L 508 392 L 561 611 Z" unicode="" />
<glyph horiz-adv-x="624" d="M 652 700 L 683 700 L 637 515 L 605 515 C 598 515 593 517 590 521 C 587 525 585 529 585 534 C 580 578 565 613 539 641 C 513 669 477 683 433 683 C 396 683 361 671 329 649 C 296 627 268 597 244 560 C 220 523 200 480 186 431 C 172 382 165 331 165 279 C 165 201 182 144 216 107 C 250 70 292 52 343 52 C 371 52 398 56 423 65 C 447 74 469 85 488 98 C 507 110 523 123 537 136 C 551 149 561 160 569 168 L 602 122 C 592 108 578 94 562 79 C 546 63 527 49 505 36 C 483 23 458 12 431 3 C 403 -5 374 -10 343 -11 L 319 -50 C 347 -50 368 -56 384 -68 C 399 -80 407 -97 407 -119 C 407 -129 405 -139 401 -150 C 397 -160 390 -170 381 -179 C 371 -188 359 -195 344 -201 C 328 -207 309 -210 287 -210 C 259 -210 234 -204 213 -192 C 192 -180 175 -168 163 -156 L 186 -125 C 198 -133 211 -143 227 -153 C 242 -163 261 -168 283 -168 C 303 -168 315 -162 321 -152 C 327 -141 330 -131 330 -123 C 330 -114 326 -106 319 -98 C 312 -90 300 -87 283 -87 C 279 -87 275 -87 270 -88 C 265 -88 261 -89 257 -90 L 309 -10 C 265 -7 226 2 194 20 C 161 37 134 60 112 88 C 90 116 74 148 64 185 C 53 222 48 261 48 303 C 48 369 59 429 81 483 C 103 537 131 583 166 621 C 201 659 241 688 286 709 C 330 730 375 741 421 741 C 469 741 505 736 529 726 C 553 716 578 705 603 691 C 607 689 610 687 613 685 C 615 683 619 684 624 687 C 632 691 638 695 641 697 C 643 699 647 700 652 700 Z" unicode="" />
<glyph horiz-adv-x="583" d="M 384 929 L 518 801 L 495 782 L 332 855 C 316 861 305 869 297 879 C 289 889 286 898 286 908 C 286 919 290 929 298 939 C 306 948 317 953 331 953 C 338 953 346 951 355 948 C 364 945 374 939 384 929 Z M 522 730 C 528 730 537 730 548 731 C 558 731 569 732 579 733 C 589 733 599 734 609 735 C 618 735 625 736 630 737 L 591 581 L 569 581 C 560 581 554 582 551 585 C 548 587 546 591 546 597 C 543 612 540 625 538 635 C 535 645 531 652 525 658 C 519 663 511 667 500 669 C 488 671 473 672 454 672 L 301 672 L 234 403 L 315 403 C 335 403 350 406 360 413 C 370 419 381 431 393 448 C 397 453 401 457 406 461 C 410 464 417 466 426 466 L 453 466 L 406 277 L 380 277 C 372 277 366 279 362 284 C 358 288 356 293 356 298 C 352 315 347 327 341 334 C 335 340 323 344 307 344 L 220 344 L 148 58 L 335 58 C 369 58 396 64 415 78 C 433 92 455 116 479 152 C 483 158 486 163 490 167 C 494 170 499 172 506 172 L 537 172 L 494 0 L -28 0 L -21 28 C -19 34 -17 38 -14 40 C -10 42 -3 45 9 51 C 23 57 31 62 35 66 C 38 70 41 78 44 91 L 175 614 C 177 622 178 629 179 635 C 180 641 181 646 181 648 C 181 656 178 663 174 667 C 169 671 163 676 156 680 C 150 682 145 685 141 688 C 137 690 135 693 135 696 C 135 698 135 701 136 703 C 136 705 137 708 138 711 L 143 730 L 522 730 Z" unicode="" />
<glyph horiz-adv-x="583" d="M 508 953 C 521 953 531 948 538 939 C 545 929 549 919 549 908 C 549 898 544 889 536 879 C 528 869 515 861 499 855 L 332 782 L 311 801 L 453 929 C 463 939 473 945 483 948 C 492 951 500 953 508 953 Z M 522 730 C 528 730 537 730 548 731 C 558 731 569 732 579 733 C 589 733 599 734 609 735 C 618 735 625 736 630 737 L 591 581 L 569 581 C 560 581 554 582 551 585 C 548 587 546 591 546 597 C 543 612 540 625 538 635 C 535 645 531 652 525 658 C 519 663 511 667 500 669 C 488 671 473 672 454 672 L 301 672 L 234 403 L 315 403 C 335 403 350 406 360 413 C 370 419 381 431 393 448 C 397 453 401 457 406 461 C 410 464 417 466 426 466 L 453 466 L 406 277 L 380 277 C 372 277 366 279 362 284 C 358 288 356 293 356 298 C 352 315 347 327 341 334 C 335 340 323 344 307 344 L 220 344 L 148 58 L 335 58 C 369 58 396 64 415 78 C 433 92 455 116 479 152 C 483 158 486 163 490 167 C 494 170 499 172 506 172 L 537 172 L 494 0 L -28 0 L -21 28 C -19 34 -17 38 -14 40 C -10 42 -3 45 9 51 C 23 57 31 62 35 66 C 38 70 41 78 44 91 L 175 614 C 177 622 178 629 179 635 C 180 641 181 646 181 648 C 181 656 178 663 174 667 C 169 671 163 676 156 680 C 150 682 145 685 141 688 C 137 690 135 693 135 696 C 135 698 135 701 136 703 C 136 705 137 708 138 711 L 143 730 L 522 730 Z" unicode="" />
<glyph horiz-adv-x="583" d="M 459 951 L 558 778 L 518 778 L 420 874 L 268 778 L 226 778 L 399 951 L 459 951 Z M 522 730 C 528 730 537 730 548 731 C 558 731 569 732 579 733 C 589 733 599 734 609 735 C 618 735 625 736 630 737 L 591 581 L 569 581 C 560 581 554 582 551 585 C 548 587 546 591 546 597 C 543 612 540 625 538 635 C 535 645 531 652 525 658 C 519 663 511 667 500 669 C 488 671 473 672 454 672 L 301 672 L 234 403 L 315 403 C 335 403 350 406 360 413 C 370 419 381 431 393 448 C 397 453 401 457 406 461 C 410 464 417 466 426 466 L 453 466 L 406 277 L 380 277 C 372 277 366 279 362 284 C 358 288 356 293 356 298 C 352 315 347 327 341 334 C 335 340 323 344 307 344 L 220 344 L 148 58 L 335 58 C 369 58 396 64 415 78 C 433 92 455 116 479 152 C 483 158 486 163 490 167 C 494 170 499 172 506 172 L 537 172 L 494 0 L -28 0 L -21 28 C -19 34 -17 38 -14 40 C -10 42 -3 45 9 51 C 23 57 31 62 35 66 C 38 70 41 78 44 91 L 175 614 C 177 622 178 629 179 635 C 180 641 181 646 181 648 C 181 656 178 663 174 667 C 169 671 163 676 156 680 C 150 682 145 685 141 688 C 137 690 135 693 135 696 C 135 698 135 701 136 703 C 136 705 137 708 138 711 L 143 730 L 522 730 Z" unicode="" />
<glyph horiz-adv-x="583" d="M 522 912 C 536 912 549 906 561 895 C 572 883 578 870 578 856 C 578 841 572 828 561 817 C 549 805 536 800 522 800 C 507 800 494 805 483 817 C 471 828 466 841 466 856 C 466 870 471 883 483 895 C 494 906 507 912 522 912 Z M 308 912 C 322 912 335 906 347 895 C 358 883 364 870 364 856 C 364 841 358 828 347 817 C 335 805 322 800 308 800 C 293 800 280 805 269 817 C 257 828 252 841 252 856 C 252 870 257 883 269 895 C 280 906 293 912 308 912 Z M 522 730 C 528 730 537 730 548 731 C 558 731 569 732 579 733 C 589 733 599 734 609 735 C 618 735 625 736 630 737 L 591 581 L 569 581 C 560 581 554 582 551 585 C 548 587 546 591 546 597 C 543 612 540 625 538 635 C 535 645 531 652 525 658 C 519 663 511 667 500 669 C 488 671 473 672 454 672 L 301 672 L 234 403 L 315 403 C 335 403 350 406 360 413 C 370 419 381 431 393 448 C 397 453 401 457 406 461 C 410 464 417 466 426 466 L 453 466 L 406 277 L 380 277 C 372 277 366 279 362 284 C 358 288 356 293 356 298 C 352 315 347 327 341 334 C 335 340 323 344 307 344 L 220 344 L 148 58 L 335 58 C 369 58 396 64 415 78 C 433 92 455 116 479 152 C 483 158 486 163 490 167 C 494 170 499 172 506 172 L 537 172 L 494 0 L -28 0 L -21 28 C -19 34 -17 38 -14 40 C -10 42 -3 45 9 51 C 23 57 31 62 35 66 C 38 70 41 78 44 91 L 175 614 C 177 622 178 629 179 635 C 180 641 181 646 181 648 C 181 656 178 663 174 667 C 169 671 163 676 156 680 C 150 682 145 685 141 688 C 137 690 135 693 135 696 C 135 698 135 701 136 703 C 136 705 137 708 138 711 L 143 730 L 522 730 Z" unicode="" />
<glyph horiz-adv-x="301" d="M 253 929 L 387 801 L 364 782 L 201 855 C 185 861 174 869 166 879 C 158 889 155 898 155 908 C 155 919 159 929 167 939 C 175 948 186 953 200 953 C 207 953 215 951 224 948 C 233 945 243 939 253 929 Z M 145 730 L 369 730 L 362 702 C 360 696 358 692 355 690 C 351 688 344 684 332 679 C 318 672 309 666 305 662 C 301 658 298 650 296 638 L 165 116 C 163 108 161 100 160 94 C 159 88 159 84 159 82 C 159 73 161 66 166 62 C 171 58 177 54 185 50 C 191 47 196 44 200 42 C 204 39 206 36 206 34 C 206 31 205 28 205 26 C 204 24 203 21 203 19 L 198 0 L -26 0 L -19 28 C -17 34 -15 38 -12 40 C -8 42 -1 45 11 51 C 25 57 33 63 37 67 C 41 71 44 79 47 91 L 178 614 C 180 622 181 629 182 635 C 183 641 184 646 184 648 C 184 656 181 663 176 667 C 171 671 165 676 158 680 C 152 682 147 685 143 688 C 139 690 137 693 137 696 C 137 698 137 701 138 703 C 138 705 139 708 140 711 L 145 730 Z" unicode="" />
<glyph horiz-adv-x="301" d="M 355 953 C 368 953 378 948 385 939 C 392 929 396 919 396 908 C 396 898 391 889 383 879 C 375 869 362 861 346 855 L 179 782 L 158 801 L 300 929 C 310 939 320 945 330 948 C 339 951 347 953 355 953 Z M 145 730 L 369 730 L 362 702 C 360 696 358 692 355 690 C 351 688 344 684 332 679 C 318 672 309 666 305 662 C 301 658 298 650 296 638 L 165 116 C 163 108 161 100 160 94 C 159 88 159 84 159 82 C 159 73 161 66 166 62 C 171 58 177 54 185 50 C 191 47 196 44 200 42 C 204 39 206 36 206 34 C 206 31 205 28 205 26 C 204 24 203 21 203 19 L 198 0 L -26 0 L -19 28 C -17 34 -15 38 -12 40 C -8 42 -1 45 11 51 C 25 57 33 63 37 67 C 41 71 44 79 47 91 L 178 614 C 180 622 181 629 182 635 C 183 641 184 646 184 648 C 184 656 181 663 176 667 C 171 671 165 676 158 680 C 152 682 147 685 143 688 C 139 690 137 693 137 696 C 137 698 137 701 138 703 C 138 705 139 708 140 711 L 145 730 Z" unicode="" />
<glyph horiz-adv-x="301" d="M 326 951 L 420 778 L 380 778 L 287 874 L 140 778 L 98 778 L 266 951 L 326 951 Z M 145 730 L 369 730 L 362 702 C 360 696 358 692 355 690 C 351 688 344 684 332 679 C 318 672 309 666 305 662 C 301 658 298 650 296 638 L 165 116 C 163 108 161 100 160 94 C 159 88 159 84 159 82 C 159 73 161 66 166 62 C 171 58 177 54 185 50 C 191 47 196 44 200 42 C 204 39 206 36 206 34 C 206 31 205 28 205 26 C 204 24 203 21 203 19 L 198 0 L -26 0 L -19 28 C -17 34 -15 38 -12 40 C -8 42 -1 45 11 51 C 25 57 33 63 37 67 C 41 71 44 79 47 91 L 178 614 C 180 622 181 629 182 635 C 183 641 184 646 184 648 C 184 656 181 663 176 667 C 171 671 165 676 158 680 C 152 682 147 685 143 688 C 139 690 137 693 137 696 C 137 698 137 701 138 703 C 138 705 139 708 140 711 L 145 730 Z" unicode="" />
<glyph horiz-adv-x="301" d="M 377 912 C 391 912 404 906 416 895 C 427 883 433 870 433 856 C 433 841 427 828 416 817 C 404 805 391 800 377 800 C 362 800 349 805 338 817 C 326 828 321 841 321 856 C 321 870 326 883 338 895 C 349 906 362 912 377 912 Z M 174 912 C 188 912 201 906 213 895 C 224 883 230 870 230 856 C 230 841 224 828 213 817 C 201 805 188 800 174 800 C 159 800 146 805 135 817 C 123 828 118 841 118 856 C 118 870 123 883 135 895 C 146 906 159 912 174 912 Z M 145 730 L 369 730 L 362 702 C 360 696 358 692 355 690 C 351 688 344 684 332 679 C 318 672 309 666 305 662 C 301 658 298 650 296 638 L 165 116 C 163 108 161 100 160 94 C 159 88 159 84 159 82 C 159 73 161 66 166 62 C 171 58 177 54 185 50 C 191 47 196 44 200 42 C 204 39 206 36 206 34 C 206 31 205 28 205 26 C 204 24 203 21 203 19 L 198 0 L -26 0 L -19 28 C -17 34 -15 38 -12 40 C -8 42 -1 45 11 51 C 25 57 33 63 37 67 C 41 71 44 79 47 91 L 178 614 C 180 622 181 629 182 635 C 183 641 184 646 184 648 C 184 656 181 663 176 667 C 171 671 165 676 158 680 C 152 682 147 685 143 688 C 139 690 137 693 137 696 C 137 698 137 701 138 703 C 138 705 139 708 140 711 L 145 730 Z" unicode="" />
<glyph horiz-adv-x="704" d="M 631 927 L 668 927 C 662 894 646 866 621 842 C 596 818 569 806 540 806 C 527 806 517 807 509 811 C 501 815 489 821 473 831 C 461 838 450 844 442 848 C 434 852 424 855 414 855 C 400 855 387 849 375 838 C 363 827 356 815 353 802 L 316 802 C 322 834 337 863 362 887 C 387 911 414 923 444 923 C 460 923 471 921 479 917 C 487 913 497 907 511 900 C 523 892 534 886 542 881 C 550 876 560 874 570 874 C 584 874 596 879 608 890 C 620 901 627 913 631 927 Z M 600 730 L 778 730 L 771 701 C 770 696 767 692 763 689 C 759 686 750 681 738 674 C 727 667 719 659 713 650 C 707 641 702 630 700 618 L 545 -6 L 498 -6 L 244 619 L 122 128 C 120 122 119 115 118 107 C 116 99 116 93 116 91 C 116 84 117 78 120 73 C 122 67 128 61 137 55 C 141 51 146 48 150 44 C 154 40 157 36 157 34 C 157 31 156 28 156 26 C 155 24 154 21 154 19 L 149 0 L -29 0 L -22 29 C -21 33 -18 37 -14 40 C -10 43 -1 48 11 56 C 21 62 29 70 35 79 C 41 88 45 99 49 112 L 174 614 C 176 621 177 628 178 635 C 179 641 180 646 180 648 C 180 656 177 663 173 667 C 169 671 163 676 156 680 C 150 682 145 685 141 688 C 137 690 135 693 135 696 C 135 698 135 701 136 703 C 136 705 137 708 138 711 L 143 730 L 316 730 L 528 203 L 627 602 C 629 609 630 616 631 624 C 632 631 633 636 633 639 C 633 645 631 651 629 657 C 626 662 620 668 612 675 C 607 678 602 682 598 686 C 594 690 592 693 592 696 C 592 698 592 701 593 703 C 593 705 594 708 595 711 L 600 730 Z" unicode="" />
<glyph horiz-adv-x="730" d="M 444 929 L 578 801 L 555 782 L 392 855 C 376 861 365 869 357 879 C 349 889 346 898 346 908 C 346 919 350 929 358 939 C 366 948 377 953 391 953 C 398 953 406 951 415 948 C 424 945 434 939 444 929 Z M 447 741 C 489 741 527 733 561 718 C 595 702 625 681 649 655 C 673 628 691 596 704 560 C 717 523 724 484 724 442 C 724 383 714 326 694 272 C 674 217 647 169 612 127 C 577 85 535 52 486 27 C 437 1 384 -11 327 -11 C 285 -11 247 -3 213 11 C 179 25 149 46 125 72 C 101 98 82 130 68 167 C 54 204 48 244 48 288 C 48 346 57 402 77 457 C 97 511 124 560 159 602 C 193 644 235 677 285 703 C 334 728 388 741 447 741 Z M 330 47 C 372 47 410 59 444 85 C 478 110 508 143 532 183 C 556 223 574 268 587 320 C 600 371 607 423 607 475 C 607 539 592 590 564 627 C 536 664 496 683 444 683 C 400 683 360 669 325 643 C 290 616 261 582 237 541 C 213 500 195 454 183 404 C 171 353 165 304 165 257 C 165 191 179 139 207 102 C 235 65 276 47 330 47 Z" unicode="" />
<glyph horiz-adv-x="730" d="M 533 953 C 546 953 556 948 563 939 C 570 929 574 919 574 908 C 574 898 569 889 561 879 C 553 869 540 861 524 855 L 357 782 L 336 801 L 478 929 C 488 939 498 945 508 948 C 517 951 525 953 533 953 Z M 447 741 C 489 741 527 733 561 718 C 595 702 625 681 649 655 C 673 628 691 596 704 560 C 717 523 724 484 724 442 C 724 383 714 326 694 272 C 674 217 647 169 612 127 C 577 85 535 52 486 27 C 437 1 384 -11 327 -11 C 285 -11 247 -3 213 11 C 179 25 149 46 125 72 C 101 98 82 130 68 167 C 54 204 48 244 48 288 C 48 346 57 402 77 457 C 97 511 124 560 159 602 C 193 644 235 677 285 703 C 334 728 388 741 447 741 Z M 330 47 C 372 47 410 59 444 85 C 478 110 508 143 532 183 C 556 223 574 268 587 320 C 600 371 607 423 607 475 C 607 539 592 590 564 627 C 536 664 496 683 444 683 C 400 683 360 669 325 643 C 290 616 261 582 237 541 C 213 500 195 454 183 404 C 171 353 165 304 165 257 C 165 191 179 139 207 102 C 235 65 276 47 330 47 Z" unicode="" />
<glyph horiz-adv-x="730" d="M 515 951 L 614 778 L 574 778 L 476 874 L 324 778 L 282 778 L 455 951 L 515 951 Z M 447 741 C 489 741 527 733 561 718 C 595 702 625 681 649 655 C 673 628 691 596 704 560 C 717 523 724 484 724 442 C 724 383 714 326 694 272 C 674 217 647 169 612 127 C 577 85 535 52 486 27 C 437 1 384 -11 327 -11 C 285 -11 247 -3 213 11 C 179 25 149 46 125 72 C 101 98 82 130 68 167 C 54 204 48 244 48 288 C 48 346 57 402 77 457 C 97 511 124 560 159 602 C 193 644 235 677 285 703 C 334 728 388 741 447 741 Z M 330 47 C 372 47 410 59 444 85 C 478 110 508 143 532 183 C 556 223 574 268 587 320 C 600 371 607 423 607 475 C 607 539 592 590 564 627 C 536 664 496 683 444 683 C 400 683 360 669 325 643 C 290 616 261 582 237 541 C 213 500 195 454 183 404 C 171 353 165 304 165 257 C 165 191 179 139 207 102 C 235 65 276 47 330 47 Z" unicode="" />
<glyph horiz-adv-x="730" d="M 610 930 L 647 930 C 641 897 625 869 600 845 C 575 821 548 809 519 809 C 506 809 496 810 488 814 C 480 818 468 824 452 834 C 440 841 429 847 421 851 C 413 855 403 858 393 858 C 379 858 366 852 354 841 C 342 830 335 818 332 805 L 295 805 C 301 837 316 866 341 890 C 366 914 393 926 423 926 C 439 926 450 924 458 920 C 466 916 476 910 490 903 C 502 895 513 889 521 884 C 529 879 539 877 549 877 C 563 877 575 882 587 893 C 599 904 606 916 610 930 Z M 447 741 C 489 741 527 733 561 718 C 595 702 625 681 649 655 C 673 628 691 596 704 560 C 717 523 724 484 724 442 C 724 383 714 326 694 272 C 674 217 647 169 612 127 C 577 85 535 52 486 27 C 437 1 384 -11 327 -11 C 285 -11 247 -3 213 11 C 179 25 149 46 125 72 C 101 98 82 130 68 167 C 54 204 48 244 48 288 C 48 346 57 402 77 457 C 97 511 124 560 159 602 C 193 644 235 677 285 703 C 334 728 388 741 447 741 Z M 330 47 C 372 47 410 59 444 85 C 478 110 508 143 532 183 C 556 223 574 268 587 320 C 600 371 607 423 607 475 C 607 539 592 590 564 627 C 536 664 496 683 444 683 C 400 683 360 669 325 643 C 290 616 261 582 237 541 C 213 500 195 454 183 404 C 171 353 165 304 165 257 C 165 191 179 139 207 102 C 235 65 276 47 330 47 Z" unicode="" />
<glyph horiz-adv-x="730" d="M 583 912 C 597 912 610 906 622 895 C 633 883 639 870 639 856 C 639 841 633 828 622 817 C 610 805 597 800 583 800 C 568 800 555 805 544 817 C 532 828 527 841 527 856 C 527 870 532 883 544 895 C 555 906 568 912 583 912 Z M 369 912 C 383 912 396 906 408 895 C 419 883 425 870 425 856 C 425 841 419 828 408 817 C 396 805 383 800 369 800 C 354 800 341 805 330 817 C 318 828 313 841 313 856 C 313 870 318 883 330 895 C 341 906 354 912 369 912 Z M 447 741 C 489 741 527 733 561 718 C 595 702 625 681 649 655 C 673 628 691 596 704 560 C 717 523 724 484 724 442 C 724 383 714 326 694 272 C 674 217 647 169 612 127 C 577 85 535 52 486 27 C 437 1 384 -11 327 -11 C 285 -11 247 -3 213 11 C 179 25 149 46 125 72 C 101 98 82 130 68 167 C 54 204 48 244 48 288 C 48 346 57 402 77 457 C 97 511 124 560 159 602 C 193 644 235 677 285 703 C 334 728 388 741 447 741 Z M 330 47 C 372 47 410 59 444 85 C 478 110 508 143 532 183 C 556 223 574 268 587 320 C 600 371 607 423 607 475 C 607 539 592 590 564 627 C 536 664 496 683 444 683 C 400 683 360 669 325 643 C 290 616 261 582 237 541 C 213 500 195 454 183 404 C 171 353 165 304 165 257 C 165 191 179 139 207 102 C 235 65 276 47 330 47 Z" unicode="" />
<glyph horiz-adv-x="745" d="M 438 293 L 631 103 L 578 50 L 387 242 L 196 50 L 144 103 L 336 293 L 144 484 L 197 537 L 387 344 L 578 536 L 631 484 L 438 293 Z" unicode="" />
<glyph horiz-adv-x="730" d="M 637 665 C 663 638 684 605 700 567 C 716 528 724 486 724 442 C 724 383 714 326 694 272 C 674 217 647 169 612 127 C 577 85 535 52 486 27 C 437 1 384 -11 327 -11 C 297 -11 269 -6 243 1 C 217 9 193 21 171 36 L 108 -48 L 50 -48 L 135 66 C 108 92 87 125 71 163 C 55 201 48 242 48 288 C 48 346 57 402 77 457 C 97 511 124 560 159 602 C 193 644 235 677 285 703 C 334 728 388 741 447 741 C 475 741 503 737 529 729 C 555 721 579 709 601 695 L 655 768 L 713 768 L 637 665 Z M 185 132 L 558 638 C 544 652 527 663 508 671 C 489 679 468 683 444 683 C 400 683 360 670 325 644 C 290 618 261 584 237 543 C 213 502 194 456 182 406 C 169 355 163 305 163 257 C 163 232 165 209 169 188 C 173 167 178 148 185 132 Z M 330 47 C 372 47 410 59 445 84 C 479 108 509 140 533 180 C 557 220 575 265 589 317 C 602 369 609 421 609 475 C 609 499 607 522 603 543 C 599 563 593 582 586 599 L 213 93 C 227 78 243 67 263 59 C 283 51 305 47 330 47 Z" unicode="" />
<glyph horiz-adv-x="718" d="M 453 929 L 587 801 L 564 782 L 401 855 C 385 861 374 869 366 879 C 358 889 355 898 355 908 C 355 919 359 929 367 939 C 375 948 386 953 400 953 C 407 953 415 951 424 948 C 433 945 443 939 453 929 Z M 612 730 L 793 730 L 786 701 C 785 696 782 692 778 689 C 774 686 765 681 753 674 C 742 667 734 659 728 649 C 722 639 717 628 715 616 L 626 259 C 617 223 604 189 588 157 C 571 124 550 95 525 71 C 499 46 469 26 434 11 C 398 -3 358 -11 313 -11 C 231 -11 170 7 130 44 C 90 81 70 128 70 186 C 70 196 71 208 73 224 C 75 239 77 252 80 262 L 169 614 C 171 622 172 629 173 635 C 174 641 175 646 175 648 C 175 656 172 663 168 667 C 163 671 157 676 150 680 C 144 682 139 685 135 688 C 131 690 129 693 129 696 C 129 698 129 701 130 703 C 130 705 131 708 132 711 L 137 730 L 359 730 L 352 702 C 350 696 348 692 345 690 C 341 688 334 684 322 679 C 308 672 299 666 296 661 C 292 655 289 648 287 638 L 193 265 C 191 256 189 244 187 229 C 185 214 184 202 184 193 C 184 153 197 121 223 97 C 249 73 284 62 330 62 C 392 62 442 81 478 119 C 514 157 539 207 555 269 L 639 602 C 640 607 641 614 643 622 C 644 630 645 636 645 639 C 645 645 643 651 641 657 C 639 662 633 668 624 675 C 619 677 614 681 610 685 C 606 689 604 693 604 696 C 604 698 604 701 605 703 C 605 705 606 708 607 711 L 612 730 Z" unicode="" />
<glyph horiz-adv-x="718" d="M 561 953 C 574 953 584 948 591 939 C 598 929 602 919 602 908 C 602 898 597 889 589 879 C 581 869 568 861 552 855 L 385 782 L 364 801 L 506 929 C 516 939 526 945 536 948 C 545 951 553 953 561 953 Z M 612 730 L 793 730 L 786 701 C 785 696 782 692 778 689 C 774 686 765 681 753 674 C 742 667 734 659 728 649 C 722 639 717 628 715 616 L 626 259 C 617 223 604 189 588 157 C 571 124 550 95 525 71 C 499 46 469 26 434 11 C 398 -3 358 -11 313 -11 C 231 -11 170 7 130 44 C 90 81 70 128 70 186 C 70 196 71 208 73 224 C 75 239 77 252 80 262 L 169 614 C 171 622 172 629 173 635 C 174 641 175 646 175 648 C 175 656 172 663 168 667 C 163 671 157 676 150 680 C 144 682 139 685 135 688 C 131 690 129 693 129 696 C 129 698 129 701 130 703 C 130 705 131 708 132 711 L 137 730 L 359 730 L 352 702 C 350 696 348 692 345 690 C 341 688 334 684 322 679 C 308 672 299 666 296 661 C 292 655 289 648 287 638 L 193 265 C 191 256 189 244 187 229 C 185 214 184 202 184 193 C 184 153 197 121 223 97 C 249 73 284 62 330 62 C 392 62 442 81 478 119 C 514 157 539 207 555 269 L 639 602 C 640 607 641 614 643 622 C 644 630 645 636 645 639 C 645 645 643 651 641 657 C 639 662 633 668 624 675 C 619 677 614 681 610 685 C 606 689 604 693 604 696 C 604 698 604 701 605 703 C 605 705 606 708 607 711 L 612 730 Z" unicode="" />
<glyph horiz-adv-x="718" d="M 541 951 L 640 778 L 600 778 L 502 874 L 350 778 L 308 778 L 481 951 L 541 951 Z M 612 730 L 793 730 L 786 701 C 785 696 782 692 778 689 C 774 686 765 681 753 674 C 742 667 734 659 728 649 C 722 639 717 628 715 616 L 626 259 C 617 223 604 189 588 157 C 571 124 550 95 525 71 C 499 46 469 26 434 11 C 398 -3 358 -11 313 -11 C 231 -11 170 7 130 44 C 90 81 70 128 70 186 C 70 196 71 208 73 224 C 75 239 77 252 80 262 L 169 614 C 171 622 172 629 173 635 C 174 641 175 646 175 648 C 175 656 172 663 168 667 C 163 671 157 676 150 680 C 144 682 139 685 135 688 C 131 690 129 693 129 696 C 129 698 129 701 130 703 C 130 705 131 708 132 711 L 137 730 L 359 730 L 352 702 C 350 696 348 692 345 690 C 341 688 334 684 322 679 C 308 672 299 666 296 661 C 292 655 289 648 287 638 L 193 265 C 191 256 189 244 187 229 C 185 214 184 202 184 193 C 184 153 197 121 223 97 C 249 73 284 62 330 62 C 392 62 442 81 478 119 C 514 157 539 207 555 269 L 639 602 C 640 607 641 614 643 622 C 644 630 645 636 645 639 C 645 645 643 651 641 657 C 639 662 633 668 624 675 C 619 677 614 681 610 685 C 606 689 604 693 604 696 C 604 698 604 701 605 703 C 605 705 606 708 607 711 L 612 730 Z" unicode="" />
<glyph horiz-adv-x="718" d="M 597 912 C 611 912 624 906 636 895 C 647 883 653 870 653 856 C 653 841 647 828 636 817 C 624 805 611 800 597 800 C 582 800 569 805 558 817 C 546 828 541 841 541 856 C 541 870 546 883 558 895 C 569 906 582 912 597 912 Z M 383 912 C 397 912 410 906 422 895 C 433 883 439 870 439 856 C 439 841 433 828 422 817 C 410 805 397 800 383 800 C 368 800 355 805 344 817 C 332 828 327 841 327 856 C 327 870 332 883 344 895 C 355 906 368 912 383 912 Z M 612 730 L 793 730 L 786 701 C 785 696 782 692 778 689 C 774 686 765 681 753 674 C 742 667 734 659 728 649 C 722 639 717 628 715 616 L 626 259 C 617 223 604 189 588 157 C 571 124 550 95 525 71 C 499 46 469 26 434 11 C 398 -3 358 -11 313 -11 C 231 -11 170 7 130 44 C 90 81 70 128 70 186 C 70 196 71 208 73 224 C 75 239 77 252 80 262 L 169 614 C 171 622 172 629 173 635 C 174 641 175 646 175 648 C 175 656 172 663 168 667 C 163 671 157 676 150 680 C 144 682 139 685 135 688 C 131 690 129 693 129 696 C 129 698 129 701 130 703 C 130 705 131 708 132 711 L 137 730 L 359 730 L 352 702 C 350 696 348 692 345 690 C 341 688 334 684 322 679 C 308 672 299 666 296 661 C 292 655 289 648 287 638 L 193 265 C 191 256 189 244 187 229 C 185 214 184 202 184 193 C 184 153 197 121 223 97 C 249 73 284 62 330 62 C 392 62 442 81 478 119 C 514 157 539 207 555 269 L 639 602 C 640 607 641 614 643 622 C 644 630 645 636 645 639 C 645 645 643 651 641 657 C 639 662 633 668 624 675 C 619 677 614 681 610 685 C 606 689 604 693 604 696 C 604 698 604 701 605 703 C 605 705 606 708 607 711 L 612 730 Z" unicode="" />
<glyph horiz-adv-x="625" d="M 546 953 C 559 953 569 948 576 939 C 583 929 587 919 587 908 C 587 898 582 889 574 879 C 566 869 553 861 537 855 L 370 782 L 349 801 L 491 929 C 501 939 511 945 521 948 C 530 951 538 953 546 953 Z M 538 730 L 745 730 L 738 702 C 736 696 734 691 731 689 C 727 687 719 683 707 678 C 697 673 686 667 675 660 C 664 652 651 640 637 624 L 384 333 L 330 116 C 328 108 326 101 325 95 C 324 88 324 84 324 82 C 324 73 326 67 331 63 C 336 59 342 55 350 51 C 356 48 361 45 365 43 C 369 40 371 37 371 35 C 371 32 370 29 370 27 C 369 24 368 21 368 19 L 363 0 L 139 0 L 146 28 C 147 34 149 38 153 40 C 156 42 164 45 176 51 C 190 57 198 63 202 67 C 206 71 209 79 212 91 L 272 332 L 152 637 C 148 646 143 654 138 661 C 132 667 124 673 112 679 C 106 681 101 684 97 687 C 93 689 91 692 91 695 C 91 697 91 700 92 703 C 92 705 93 708 94 711 L 99 730 L 327 730 L 320 702 C 318 696 316 691 313 689 C 310 687 302 683 290 679 C 279 675 272 672 270 669 C 268 665 267 662 267 658 C 267 655 267 650 269 644 C 271 638 272 634 273 632 L 360 399 L 552 621 C 556 625 560 632 566 640 C 572 648 575 655 575 660 C 575 664 573 667 570 671 C 567 674 562 677 556 680 C 548 682 542 685 537 687 C 532 689 530 692 530 695 C 530 697 530 700 531 703 C 531 705 532 708 533 711 L 538 730 Z" unicode="" />
<glyph horiz-adv-x="524" d="M 369 729 C 412 729 449 717 480 693 C 511 669 527 634 527 588 C 527 566 523 545 517 525 C 510 504 499 485 485 467 C 471 449 453 433 431 419 C 409 405 384 395 354 388 C 408 375 447 352 470 320 C 492 288 504 251 504 210 C 504 180 498 152 487 126 C 476 99 461 76 442 56 C 423 36 401 20 375 8 C 349 -4 322 -10 294 -10 C 266 -10 240 -4 217 6 C 194 17 183 37 183 67 C 183 81 187 93 197 103 C 207 113 218 118 232 118 C 244 118 255 114 263 106 C 271 98 275 88 275 75 C 275 71 274 66 272 60 C 270 54 266 47 262 40 C 264 38 268 36 274 35 C 280 33 284 33 287 33 C 307 33 325 40 340 55 C 354 70 366 88 375 109 C 384 130 391 152 395 175 C 399 197 401 216 401 231 C 401 273 391 304 373 324 C 355 344 326 354 286 354 C 275 354 267 356 261 362 C 255 367 252 374 252 384 C 252 394 256 403 265 410 C 274 417 284 421 295 421 L 329 421 C 347 421 363 427 377 439 C 390 451 401 466 409 484 C 417 502 422 520 426 539 C 430 558 432 575 432 589 C 432 611 427 632 417 651 C 407 669 388 679 361 679 C 338 679 319 673 304 662 C 288 650 276 636 266 620 C 256 603 249 585 243 565 C 237 545 233 527 229 511 L 115 0 L 15 0 L 124 492 C 131 525 141 556 155 585 C 168 614 185 639 205 660 C 225 681 249 698 277 710 C 304 722 335 729 369 729 Z" unicode="" />
<glyph horiz-adv-x="492" d="M 281 645 L 400 503 L 376 486 L 223 576 C 208 584 197 593 191 602 C 185 610 182 619 182 629 C 182 641 186 651 194 660 C 202 669 213 674 226 674 C 234 674 243 672 252 669 C 260 665 270 657 281 645 Z M 461 74 L 471 33 C 462 25 447 16 425 6 C 403 -3 380 -9 356 -9 C 329 -9 311 -2 302 11 C 292 24 287 38 286 53 C 269 38 250 24 228 11 C 206 -1 182 -8 157 -8 C 109 -8 73 6 50 36 C 26 65 15 103 15 149 C 15 188 22 225 36 260 C 50 294 70 325 95 351 C 119 377 148 397 181 412 C 214 427 249 435 286 435 C 309 435 327 432 341 426 C 355 420 369 411 383 401 C 385 399 387 398 390 398 C 392 397 395 398 397 400 L 434 431 C 436 433 439 435 443 436 C 447 436 450 437 453 437 C 457 437 461 435 465 432 C 468 429 469 425 469 421 L 385 97 C 384 92 383 88 382 84 C 381 80 381 76 381 73 C 381 67 383 62 387 58 C 391 54 397 52 406 52 C 413 52 421 54 429 58 C 437 62 448 68 461 74 Z M 286 98 L 349 349 C 343 357 334 365 324 372 C 314 378 301 382 285 382 C 256 382 231 375 211 361 C 190 347 173 329 160 307 C 146 285 136 260 130 232 C 124 204 121 177 121 151 C 121 117 127 93 141 78 C 154 62 172 55 196 55 C 213 55 228 58 242 66 C 255 74 270 84 286 98 Z" unicode="" />
<glyph horiz-adv-x="492" d="M 394 674 C 406 674 416 669 424 660 C 432 651 436 641 436 629 C 436 620 432 611 424 602 C 416 593 405 584 391 576 L 232 486 L 208 503 L 337 645 C 348 657 358 665 367 669 C 376 672 385 674 394 674 Z M 461 74 L 471 33 C 462 25 447 16 425 6 C 403 -3 380 -9 356 -9 C 329 -9 311 -2 302 11 C 292 24 287 38 286 53 C 269 38 250 24 228 11 C 206 -1 182 -8 157 -8 C 109 -8 73 6 50 36 C 26 65 15 103 15 149 C 15 188 22 225 36 260 C 50 294 70 325 95 351 C 119 377 148 397 181 412 C 214 427 249 435 286 435 C 309 435 327 432 341 426 C 355 420 369 411 383 401 C 385 399 387 398 390 398 C 392 397 395 398 397 400 L 434 431 C 436 433 439 435 443 436 C 447 436 450 437 453 437 C 457 437 461 435 465 432 C 468 429 469 425 469 421 L 385 97 C 384 92 383 88 382 84 C 381 80 381 76 381 73 C 381 67 383 62 387 58 C 391 54 397 52 406 52 C 413 52 421 54 429 58 C 437 62 448 68 461 74 Z M 286 98 L 349 349 C 343 357 334 365 324 372 C 314 378 301 382 285 382 C 256 382 231 375 211 361 C 190 347 173 329 160 307 C 146 285 136 260 130 232 C 124 204 121 177 121 151 C 121 117 127 93 141 78 C 154 62 172 55 196 55 C 213 55 228 58 242 66 C 255 74 270 84 286 98 Z" unicode="" />
<glyph horiz-adv-x="492" d="M 361 660 L 449 482 L 409 482 L 318 583 L 176 482 L 135 482 L 301 660 L 361 660 Z M 461 74 L 471 33 C 462 25 447 16 425 6 C 403 -3 380 -9 356 -9 C 329 -9 311 -2 302 11 C 292 24 287 38 286 53 C 269 38 250 24 228 11 C 206 -1 182 -8 157 -8 C 109 -8 73 6 50 36 C 26 65 15 103 15 149 C 15 188 22 225 36 260 C 50 294 70 325 95 351 C 119 377 148 397 181 412 C 214 427 249 435 286 435 C 309 435 327 432 341 426 C 355 420 369 411 383 401 C 385 399 387 398 390 398 C 392 397 395 398 397 400 L 434 431 C 436 433 439 435 443 436 C 447 436 450 437 453 437 C 457 437 461 435 465 432 C 468 429 469 425 469 421 L 385 97 C 384 92 383 88 382 84 C 381 80 381 76 381 73 C 381 67 383 62 387 58 C 391 54 397 52 406 52 C 413 52 421 54 429 58 C 437 62 448 68 461 74 Z M 286 98 L 349 349 C 343 357 334 365 324 372 C 314 378 301 382 285 382 C 256 382 231 375 211 361 C 190 347 173 329 160 307 C 146 285 136 260 130 232 C 124 204 121 177 121 151 C 121 117 127 93 141 78 C 154 62 172 55 196 55 C 213 55 228 58 242 66 C 255 74 270 84 286 98 Z" unicode="" />
<glyph horiz-adv-x="492" d="M 423 638 L 459 638 C 453 605 439 577 417 553 C 395 529 370 517 344 517 C 332 517 322 518 314 522 C 305 525 294 532 281 542 C 270 550 261 556 254 560 C 246 564 238 566 228 566 C 215 566 204 560 194 549 C 184 538 177 526 174 513 L 138 513 C 143 545 157 574 179 598 C 201 622 225 634 252 634 C 266 634 278 632 286 628 C 294 624 303 619 315 611 C 327 602 336 595 344 591 C 351 587 359 585 368 585 C 380 585 392 590 402 601 C 412 612 419 624 423 638 Z M 461 74 L 471 33 C 462 25 447 16 425 6 C 403 -3 380 -9 356 -9 C 329 -9 311 -2 302 11 C 292 24 287 38 286 53 C 269 38 250 24 228 11 C 206 -1 182 -8 157 -8 C 109 -8 73 6 50 36 C 26 65 15 103 15 149 C 15 188 22 225 36 260 C 50 294 70 325 95 351 C 119 377 148 397 181 412 C 214 427 249 435 286 435 C 309 435 327 432 341 426 C 355 420 369 411 383 401 C 385 399 387 398 390 398 C 392 397 395 398 397 400 L 434 431 C 436 433 439 435 443 436 C 447 436 450 437 453 437 C 457 437 461 435 465 432 C 468 429 469 425 469 421 L 385 97 C 384 92 383 88 382 84 C 381 80 381 76 381 73 C 381 67 383 62 387 58 C 391 54 397 52 406 52 C 413 52 421 54 429 58 C 437 62 448 68 461 74 Z M 286 98 L 349 349 C 343 357 334 365 324 372 C 314 378 301 382 285 382 C 256 382 231 375 211 361 C 190 347 173 329 160 307 C 146 285 136 260 130 232 C 124 204 121 177 121 151 C 121 117 127 93 141 78 C 154 62 172 55 196 55 C 213 55 228 58 242 66 C 255 74 270 84 286 98 Z" unicode="" />
<glyph horiz-adv-x="492" d="M 394 617 C 408 617 421 611 433 600 C 444 588 450 575 450 561 C 450 546 444 533 433 522 C 421 510 408 505 394 505 C 379 505 366 510 355 522 C 343 533 338 546 338 561 C 338 575 343 588 355 600 C 366 611 379 617 394 617 Z M 204 617 C 218 617 231 611 243 600 C 254 588 260 575 260 561 C 260 546 254 533 243 522 C 231 510 218 505 204 505 C 189 505 176 510 165 522 C 153 533 148 546 148 561 C 148 575 153 588 165 600 C 176 611 189 617 204 617 Z M 461 74 L 471 33 C 462 25 447 16 425 6 C 403 -3 380 -9 356 -9 C 329 -9 311 -2 302 11 C 292 24 287 38 286 53 C 269 38 250 24 228 11 C 206 -1 182 -8 157 -8 C 109 -8 73 6 50 36 C 26 65 15 103 15 149 C 15 188 22 225 36 260 C 50 294 70 325 95 351 C 119 377 148 397 181 412 C 214 427 249 435 286 435 C 309 435 327 432 341 426 C 355 420 369 411 383 401 C 385 399 387 398 390 398 C 392 397 395 398 397 400 L 434 431 C 436 433 439 435 443 436 C 447 436 450 437 453 437 C 457 437 461 435 465 432 C 468 429 469 425 469 421 L 385 97 C 384 92 383 88 382 84 C 381 80 381 76 381 73 C 381 67 383 62 387 58 C 391 54 397 52 406 52 C 413 52 421 54 429 58 C 437 62 448 68 461 74 Z M 286 98 L 349 349 C 343 357 334 365 324 372 C 314 378 301 382 285 382 C 256 382 231 375 211 361 C 190 347 173 329 160 307 C 146 285 136 260 130 232 C 124 204 121 177 121 151 C 121 117 127 93 141 78 C 154 62 172 55 196 55 C 213 55 228 58 242 66 C 255 74 270 84 286 98 Z" unicode="" />
<glyph horiz-adv-x="492" d="M 309 706 C 341 706 367 696 387 678 C 407 659 417 636 417 608 C 417 574 404 545 378 521 C 352 497 322 486 288 486 C 256 486 231 495 211 513 C 191 531 181 555 181 584 C 181 598 184 613 190 627 C 196 641 204 654 216 666 C 227 678 240 687 256 695 C 272 702 289 706 309 706 Z M 289 521 C 311 521 328 530 339 550 C 349 570 355 592 355 617 C 355 635 350 649 342 658 C 334 666 322 671 308 671 C 285 671 268 660 258 640 C 248 620 243 598 243 576 C 243 558 246 545 253 535 C 260 525 272 521 289 521 Z M 461 74 L 471 33 C 462 25 447 16 425 6 C 403 -3 380 -9 356 -9 C 329 -9 311 -2 302 11 C 292 24 287 38 286 53 C 269 38 250 24 228 11 C 206 -1 182 -8 157 -8 C 109 -8 73 6 50 36 C 26 65 15 103 15 149 C 15 188 22 225 36 260 C 50 294 70 325 95 351 C 119 377 148 397 181 412 C 214 427 249 435 286 435 C 309 435 327 432 341 426 C 355 420 369 411 383 401 C 385 399 387 398 390 398 C 392 397 395 398 397 400 L 434 431 C 436 433 439 435 443 436 C 447 436 450 437 453 437 C 457 437 461 435 465 432 C 468 429 469 425 469 421 L 385 97 C 384 92 383 88 382 84 C 381 80 381 76 381 73 C 381 67 383 62 387 58 C 391 54 397 52 406 52 C 413 52 421 54 429 58 C 437 62 448 68 461 74 Z M 286 98 L 349 349 C 343 357 334 365 324 372 C 314 378 301 382 285 382 C 256 382 231 375 211 361 C 190 347 173 329 160 307 C 146 285 136 260 130 232 C 124 204 121 177 121 151 C 121 117 127 93 141 78 C 154 62 172 55 196 55 C 213 55 228 58 242 66 C 255 74 270 84 286 98 Z" unicode="" />
<glyph horiz-adv-x="688" d="M 557 434 C 595 434 626 425 650 407 C 674 389 686 365 686 335 C 686 303 676 277 657 258 C 638 238 616 224 590 214 C 564 204 537 197 509 194 C 481 191 459 190 442 190 L 400 190 C 400 187 399 184 399 181 C 399 177 399 174 399 172 C 399 125 409 94 430 78 C 451 62 475 55 501 55 C 522 55 545 61 570 74 C 594 86 620 106 648 132 L 672 97 C 668 90 661 81 651 69 C 641 57 629 46 613 34 C 597 22 577 12 554 4 C 530 -4 503 -9 473 -9 C 430 -9 397 0 373 16 C 349 33 332 51 322 71 C 294 42 268 22 242 10 C 216 -2 188 -8 158 -8 C 110 -8 74 6 50 36 C 26 65 15 103 15 149 C 15 188 22 225 36 260 C 50 294 70 325 94 351 C 118 377 146 397 179 412 C 212 427 247 435 284 435 C 303 435 319 432 333 427 C 347 422 358 416 368 409 C 370 407 372 406 375 406 C 377 405 380 406 382 408 L 417 431 C 420 433 423 434 427 435 C 430 436 433 437 436 437 C 440 437 444 435 446 432 C 448 429 449 425 449 421 L 446 405 C 462 413 480 420 498 426 C 516 431 536 434 557 434 Z M 404 233 C 426 234 449 236 471 239 C 493 242 513 247 531 255 C 548 262 562 272 573 286 C 583 299 589 316 589 338 C 589 354 583 366 573 373 C 562 380 551 384 539 384 C 509 384 482 371 457 347 C 431 323 414 285 404 233 Z M 281 95 L 346 358 C 339 364 331 369 321 374 C 311 379 299 382 283 382 C 254 382 229 375 209 361 C 188 347 171 329 158 307 C 145 285 136 260 130 232 C 124 204 121 177 121 151 C 121 117 127 93 140 78 C 153 62 171 55 195 55 C 211 55 226 58 239 64 C 252 70 266 80 281 95 Z" unicode="" />
<glyph horiz-adv-x="394" d="M 263 433 C 311 433 346 423 367 403 C 387 383 398 363 398 342 C 398 317 391 300 379 291 C 367 281 353 277 339 277 C 323 277 310 281 299 289 C 288 297 283 309 283 326 C 283 331 284 338 287 347 C 290 356 294 364 298 371 C 294 373 289 376 281 379 C 273 381 262 383 249 383 C 228 383 210 376 194 364 C 178 351 165 335 155 315 C 145 295 137 272 132 248 C 127 223 125 198 125 174 C 125 142 131 114 145 90 C 158 66 182 54 217 54 C 245 54 270 61 290 76 C 310 90 330 107 350 127 L 378 89 C 362 69 340 48 314 27 C 288 6 255 -5 216 -8 L 193 -46 C 221 -46 242 -52 258 -64 C 273 -76 281 -93 281 -115 C 281 -125 279 -135 275 -146 C 271 -156 264 -166 255 -175 C 245 -184 233 -191 218 -197 C 202 -203 183 -206 161 -206 C 133 -206 108 -200 87 -188 C 66 -176 49 -164 37 -152 L 60 -121 C 72 -129 85 -139 101 -149 C 116 -159 135 -164 157 -164 C 177 -164 189 -158 195 -148 C 201 -137 204 -127 204 -119 C 204 -110 200 -102 193 -94 C 186 -86 174 -83 157 -83 C 153 -83 150 -83 146 -83 C 142 -83 138 -84 134 -85 L 181 -8 C 134 -4 95 12 65 43 C 35 74 20 116 20 168 C 20 200 25 233 37 265 C 48 297 64 325 86 350 C 107 374 133 394 163 410 C 193 425 226 433 263 433 Z" unicode="" />
<glyph horiz-adv-x="410" d="M 252 645 L 371 503 L 347 486 L 194 576 C 179 584 168 593 162 602 C 156 610 153 619 153 629 C 153 641 157 651 165 660 C 173 669 184 674 197 674 C 205 674 214 672 223 669 C 231 665 241 657 252 645 Z M 279 434 C 317 434 348 425 372 407 C 396 389 408 365 408 335 C 408 303 398 277 380 258 C 361 238 339 224 313 214 C 287 204 260 197 232 194 C 204 191 182 190 165 190 L 123 190 C 123 187 122 184 122 181 C 122 177 122 174 122 172 C 122 125 132 94 153 78 C 173 62 197 55 223 55 C 244 55 267 61 292 74 C 316 86 342 106 370 132 L 394 97 C 390 90 383 81 373 69 C 363 57 351 46 335 34 C 319 22 299 12 276 4 C 252 -4 225 -9 195 -9 C 157 -9 126 -2 103 11 C 80 25 63 41 51 60 C 39 78 31 97 27 117 C 23 137 21 153 21 166 C 21 200 27 233 40 266 C 52 298 70 327 93 352 C 115 376 142 396 174 411 C 206 426 241 434 279 434 Z M 127 233 C 149 234 172 236 194 239 C 216 242 235 247 253 255 C 270 262 284 272 295 286 C 305 299 311 316 311 338 C 311 354 305 366 295 373 C 284 380 273 384 261 384 C 231 384 204 371 179 347 C 154 323 137 285 127 233 Z" unicode="" />
<glyph horiz-adv-x="410" d="M 358 674 C 370 674 380 669 388 660 C 396 651 400 641 400 629 C 400 620 396 611 388 602 C 380 593 369 584 355 576 L 196 486 L 172 503 L 301 645 C 312 657 322 665 331 669 C 340 672 349 674 358 674 Z M 279 434 C 317 434 348 425 372 407 C 396 389 408 365 408 335 C 408 303 398 277 380 258 C 361 238 339 224 313 214 C 287 204 260 197 232 194 C 204 191 182 190 165 190 L 123 190 C 123 187 122 184 122 181 C 122 177 122 174 122 172 C 122 125 132 94 153 78 C 173 62 197 55 223 55 C 244 55 267 61 292 74 C 316 86 342 106 370 132 L 394 97 C 390 90 383 81 373 69 C 363 57 351 46 335 34 C 319 22 299 12 276 4 C 252 -4 225 -9 195 -9 C 157 -9 126 -2 103 11 C 80 25 63 41 51 60 C 39 78 31 97 27 117 C 23 137 21 153 21 166 C 21 200 27 233 40 266 C 52 298 70 327 93 352 C 115 376 142 396 174 411 C 206 426 241 434 279 434 Z M 127 233 C 149 234 172 236 194 239 C 216 242 235 247 253 255 C 270 262 284 272 295 286 C 305 299 311 316 311 338 C 311 354 305 366 295 373 C 284 380 273 384 261 384 C 231 384 204 371 179 347 C 154 323 137 285 127 233 Z" unicode="" />
<glyph horiz-adv-x="410" d="M 331 660 L 419 482 L 379 482 L 288 583 L 146 482 L 105 482 L 271 660 L 331 660 Z M 279 434 C 317 434 348 425 372 407 C 396 389 408 365 408 335 C 408 303 398 277 380 258 C 361 238 339 224 313 214 C 287 204 260 197 232 194 C 204 191 182 190 165 190 L 123 190 C 123 187 122 184 122 181 C 122 177 122 174 122 172 C 122 125 132 94 153 78 C 173 62 197 55 223 55 C 244 55 267 61 292 74 C 316 86 342 106 370 132 L 394 97 C 390 90 383 81 373 69 C 363 57 351 46 335 34 C 319 22 299 12 276 4 C 252 -4 225 -9 195 -9 C 157 -9 126 -2 103 11 C 80 25 63 41 51 60 C 39 78 31 97 27 117 C 23 137 21 153 21 166 C 21 200 27 233 40 266 C 52 298 70 327 93 352 C 115 376 142 396 174 411 C 206 426 241 434 279 434 Z M 127 233 C 149 234 172 236 194 239 C 216 242 235 247 253 255 C 270 262 284 272 295 286 C 305 299 311 316 311 338 C 311 354 305 366 295 373 C 284 380 273 384 261 384 C 231 384 204 371 179 347 C 154 323 137 285 127 233 Z" unicode="" />
<glyph horiz-adv-x="410" d="M 369 617 C 383 617 396 611 408 600 C 419 588 425 575 425 561 C 425 546 419 533 408 522 C 396 510 383 505 369 505 C 354 505 341 510 330 522 C 318 533 313 546 313 561 C 313 575 318 588 330 600 C 341 611 354 617 369 617 Z M 179 617 C 193 617 206 611 218 600 C 229 588 235 575 235 561 C 235 546 229 533 218 522 C 206 510 193 505 179 505 C 164 505 151 510 140 522 C 128 533 123 546 123 561 C 123 575 128 588 140 600 C 151 611 164 617 179 617 Z M 279 434 C 317 434 348 425 372 407 C 396 389 408 365 408 335 C 408 303 398 277 380 258 C 361 238 339 224 313 214 C 287 204 260 197 232 194 C 204 191 182 190 165 190 L 123 190 C 123 187 122 184 122 181 C 122 177 122 174 122 172 C 122 125 132 94 153 78 C 173 62 197 55 223 55 C 244 55 267 61 292 74 C 316 86 342 106 370 132 L 394 97 C 390 90 383 81 373 69 C 363 57 351 46 335 34 C 319 22 299 12 276 4 C 252 -4 225 -9 195 -9 C 157 -9 126 -2 103 11 C 80 25 63 41 51 60 C 39 78 31 97 27 117 C 23 137 21 153 21 166 C 21 200 27 233 40 266 C 52 298 70 327 93 352 C 115 376 142 396 174 411 C 206 426 241 434 279 434 Z M 127 233 C 149 234 172 236 194 239 C 216 242 235 247 253 255 C 270 262 284 272 295 286 C 305 299 311 316 311 338 C 311 354 305 366 295 373 C 284 380 273 384 261 384 C 231 384 204 371 179 347 C 154 323 137 285 127 233 Z" unicode="" />
<glyph horiz-adv-x="260" d="M 159 645 L 276 503 L 251 486 L 100 577 C 85 585 74 594 68 603 C 61 611 58 620 59 629 C 59 641 64 651 73 660 C 81 669 92 674 105 674 C 113 674 122 672 130 669 C 138 665 148 657 159 645 Z M 228 74 L 238 33 C 229 25 214 16 192 6 C 170 -3 147 -9 123 -9 C 93 -9 73 -2 62 10 C 51 23 46 38 46 55 C 46 61 46 68 48 76 C 49 83 51 91 53 100 L 105 306 C 105 310 106 314 107 318 C 108 322 109 326 109 329 C 109 335 106 341 101 345 C 96 349 89 351 79 352 C 72 352 66 353 61 355 C 55 357 53 360 53 364 C 53 365 53 367 53 369 C 53 371 54 374 55 376 L 61 399 C 83 399 106 401 128 407 C 150 413 173 420 197 429 L 236 429 L 153 98 C 152 94 151 90 150 86 C 149 82 149 78 149 75 C 149 69 150 64 154 59 C 158 54 164 52 173 52 C 180 52 188 54 196 58 C 204 62 215 68 228 74 Z" unicode="" />
<glyph horiz-adv-x="260" d="M 262 674 C 274 674 285 669 293 660 C 301 651 305 641 305 629 C 305 620 301 611 294 602 C 287 593 276 584 262 576 L 106 486 L 82 503 L 206 645 C 216 657 226 665 235 669 C 244 672 253 674 262 674 Z M 228 74 L 238 33 C 229 25 214 16 192 6 C 170 -3 147 -9 123 -9 C 93 -9 73 -2 62 10 C 51 23 46 38 46 55 C 46 61 46 68 48 76 C 49 83 51 91 53 100 L 105 306 C 105 310 106 314 107 318 C 108 322 109 326 109 329 C 109 335 106 341 101 345 C 96 349 89 351 79 352 C 72 352 66 353 61 355 C 55 357 53 360 53 364 C 53 365 53 367 53 369 C 53 371 54 374 55 376 L 61 399 C 83 399 106 401 128 407 C 150 413 173 420 197 429 L 236 429 L 153 98 C 152 94 151 90 150 86 C 149 82 149 78 149 75 C 149 69 150 64 154 59 C 158 54 164 52 173 52 C 180 52 188 54 196 58 C 204 62 215 68 228 74 Z" unicode="" />
<glyph horiz-adv-x="262" d="M 232 655 L 307 482 L 267 482 L 191 578 L 64 482 L 23 482 L 172 655 L 232 655 Z M 229 74 L 239 33 C 230 25 215 16 193 6 C 171 -3 148 -9 124 -9 C 94 -9 74 -2 63 10 C 52 23 47 38 47 55 C 47 61 47 68 49 76 C 50 83 52 91 54 100 L 106 306 C 106 310 107 314 108 318 C 109 322 110 326 110 329 C 110 335 107 341 102 345 C 97 349 90 351 80 352 C 73 352 67 353 62 355 C 56 357 54 360 54 364 C 54 365 54 367 54 369 C 54 371 55 374 56 376 L 62 399 C 84 399 107 401 129 407 C 151 413 174 420 198 429 L 237 429 L 154 98 C 153 94 152 90 151 86 C 150 82 150 78 150 75 C 150 69 151 64 155 59 C 159 54 165 52 174 52 C 181 52 189 54 197 58 C 205 62 216 68 229 74 Z" unicode="" />
<glyph horiz-adv-x="262" d="M 264 617 C 278 617 291 611 303 600 C 314 588 320 575 320 561 C 320 546 314 533 303 522 C 291 510 278 505 264 505 C 249 505 236 510 225 522 C 213 533 208 546 208 561 C 208 575 213 588 225 600 C 236 611 249 617 264 617 Z M 93 617 C 107 617 120 611 132 600 C 143 588 149 575 149 561 C 149 546 143 533 132 522 C 120 510 107 505 93 505 C 78 505 65 510 54 522 C 42 533 37 546 37 561 C 37 575 42 588 54 600 C 65 611 78 617 93 617 Z M 229 74 L 239 33 C 230 25 215 16 193 6 C 171 -3 148 -9 124 -9 C 94 -9 74 -2 63 10 C 52 23 47 38 47 55 C 47 61 47 68 49 76 C 50 83 52 91 54 100 L 106 306 C 106 310 107 314 108 318 C 109 322 110 326 110 329 C 110 335 107 341 102 345 C 97 349 90 351 80 352 C 73 352 67 353 62 355 C 56 357 54 360 54 364 C 54 365 54 367 54 369 C 54 371 55 374 56 376 L 62 399 C 84 399 107 401 129 407 C 151 413 174 420 198 429 L 237 429 L 154 98 C 153 94 152 90 151 86 C 150 82 150 78 150 75 C 150 69 151 64 155 59 C 159 54 165 52 174 52 C 181 52 189 54 197 58 C 205 62 216 68 229 74 Z" unicode="" />
<glyph horiz-adv-x="523" d="M 448 638 L 484 638 C 478 605 464 577 442 553 C 420 529 395 517 369 517 C 357 517 347 518 339 522 C 330 525 319 532 306 542 C 295 550 286 556 279 560 C 271 564 263 566 253 566 C 240 566 229 560 219 549 C 209 538 202 526 199 513 L 163 513 C 168 545 182 574 204 598 C 226 622 250 634 277 634 C 291 634 303 632 311 628 C 319 624 328 619 340 611 C 352 602 361 595 369 591 C 376 587 384 585 393 585 C 405 585 417 590 427 601 C 437 612 444 624 448 638 Z M 495 74 L 505 33 C 496 25 481 16 459 6 C 437 -3 414 -9 390 -9 C 360 -9 340 -2 329 10 C 318 23 313 38 313 55 C 313 61 313 68 315 76 C 316 83 318 91 320 100 L 369 288 C 370 292 371 297 372 302 C 372 307 373 312 373 317 C 373 335 367 348 356 356 C 345 364 331 369 313 369 C 292 369 272 362 253 349 C 233 335 217 321 203 307 L 127 0 L 27 0 L 103 306 C 103 310 104 314 105 318 C 106 322 107 326 107 329 C 107 335 104 341 99 345 C 94 349 87 351 77 352 C 70 352 64 353 59 355 C 53 357 51 360 51 364 C 51 365 51 367 51 369 C 51 371 52 374 53 377 L 59 399 C 81 399 103 401 125 407 C 146 413 168 420 192 429 L 222 429 L 207 366 C 225 380 247 395 272 410 C 297 424 325 432 356 432 C 396 432 425 422 445 404 C 465 386 475 361 475 330 C 475 323 474 316 473 308 C 472 300 471 293 469 286 L 420 98 C 419 94 418 90 417 86 C 416 82 416 78 416 75 C 416 69 417 64 421 59 C 425 54 431 52 440 52 C 447 52 455 54 463 58 C 471 62 482 68 495 74 Z" unicode="" />
<glyph horiz-adv-x="468" d="M 263 645 L 382 503 L 358 486 L 205 576 C 190 584 179 593 173 602 C 167 610 164 619 164 629 C 164 641 168 651 176 660 C 184 669 195 674 208 674 C 216 674 225 672 234 669 C 242 665 252 657 263 645 Z M 273 436 C 331 436 374 418 404 383 C 434 347 449 303 449 251 C 449 215 442 182 430 150 C 417 118 400 91 378 67 C 356 43 329 25 299 11 C 268 -3 235 -10 199 -10 C 141 -10 96 7 66 42 C 35 77 20 121 20 174 C 20 206 25 238 37 270 C 49 302 66 330 88 354 C 110 378 136 398 168 413 C 199 428 234 436 273 436 Z M 204 41 C 226 41 246 47 264 60 C 282 73 297 90 309 112 C 321 134 330 158 336 186 C 342 214 345 242 345 271 C 345 306 339 334 327 355 C 315 375 295 386 266 386 C 242 386 221 379 203 365 C 185 351 170 333 158 311 C 146 289 138 265 132 238 C 126 211 124 184 124 158 C 124 122 129 93 141 72 C 153 51 174 41 204 41 Z" unicode="" />
<glyph horiz-adv-x="468" d="M 376 674 C 388 674 398 669 406 660 C 414 651 418 641 418 629 C 418 620 414 611 406 602 C 398 593 387 584 373 576 L 214 486 L 190 503 L 319 645 C 330 657 340 665 349 669 C 358 672 367 674 376 674 Z M 273 436 C 331 436 374 418 404 383 C 434 347 449 303 449 251 C 449 215 442 182 430 150 C 417 118 400 91 378 67 C 356 43 329 25 299 11 C 268 -3 235 -10 199 -10 C 141 -10 96 7 66 42 C 35 77 20 121 20 174 C 20 206 25 238 37 270 C 49 302 66 330 88 354 C 110 378 136 398 168 413 C 199 428 234 436 273 436 Z M 204 41 C 226 41 246 47 264 60 C 282 73 297 90 309 112 C 321 134 330 158 336 186 C 342 214 345 242 345 271 C 345 306 339 334 327 355 C 315 375 295 386 266 386 C 242 386 221 379 203 365 C 185 351 170 333 158 311 C 146 289 138 265 132 238 C 126 211 124 184 124 158 C 124 122 129 93 141 72 C 153 51 174 41 204 41 Z" unicode="" />
<glyph horiz-adv-x="468" d="M 338 660 L 426 482 L 386 482 L 295 583 L 153 482 L 112 482 L 278 660 L 338 660 Z M 273 436 C 331 436 374 418 404 383 C 434 347 449 303 449 251 C 449 215 442 182 430 150 C 417 118 400 91 378 67 C 356 43 329 25 299 11 C 268 -3 235 -10 199 -10 C 141 -10 96 7 66 42 C 35 77 20 121 20 174 C 20 206 25 238 37 270 C 49 302 66 330 88 354 C 110 378 136 398 168 413 C 199 428 234 436 273 436 Z M 204 41 C 226 41 246 47 264 60 C 282 73 297 90 309 112 C 321 134 330 158 336 186 C 342 214 345 242 345 271 C 345 306 339 334 327 355 C 315 375 295 386 266 386 C 242 386 221 379 203 365 C 185 351 170 333 158 311 C 146 289 138 265 132 238 C 126 211 124 184 124 158 C 124 122 129 93 141 72 C 153 51 174 41 204 41 Z" unicode="" />
<glyph horiz-adv-x="468" d="M 408 638 L 444 638 C 438 605 424 577 402 553 C 380 529 355 517 329 517 C 317 517 307 518 299 522 C 290 525 279 532 266 542 C 255 550 246 556 239 560 C 231 564 223 566 213 566 C 200 566 189 560 179 549 C 169 538 162 526 159 513 L 123 513 C 128 545 142 574 164 598 C 186 622 210 634 237 634 C 251 634 263 632 271 628 C 279 624 288 619 300 611 C 312 602 321 595 329 591 C 336 587 344 585 353 585 C 365 585 377 590 387 601 C 397 612 404 624 408 638 Z M 273 436 C 331 436 374 418 404 383 C 434 347 449 303 449 251 C 449 215 442 182 430 150 C 417 118 400 91 378 67 C 356 43 329 25 299 11 C 268 -3 235 -10 199 -10 C 141 -10 96 7 66 42 C 35 77 20 121 20 174 C 20 206 25 238 37 270 C 49 302 66 330 88 354 C 110 378 136 398 168 413 C 199 428 234 436 273 436 Z M 204 41 C 226 41 246 47 264 60 C 282 73 297 90 309 112 C 321 134 330 158 336 186 C 342 214 345 242 345 271 C 345 306 339 334 327 355 C 315 375 295 386 266 386 C 242 386 221 379 203 365 C 185 351 170 333 158 311 C 146 289 138 265 132 238 C 126 211 124 184 124 158 C 124 122 129 93 141 72 C 153 51 174 41 204 41 Z" unicode="" />
<glyph horiz-adv-x="468" d="M 378 617 C 392 617 405 611 417 600 C 428 588 434 575 434 561 C 434 546 428 533 417 522 C 405 510 392 505 378 505 C 363 505 350 510 339 522 C 327 533 322 546 322 561 C 322 575 327 588 339 600 C 350 611 363 617 378 617 Z M 188 617 C 202 617 215 611 227 600 C 238 588 244 575 244 561 C 244 546 238 533 227 522 C 215 510 202 505 188 505 C 173 505 160 510 149 522 C 137 533 132 546 132 561 C 132 575 137 588 149 600 C 160 611 173 617 188 617 Z M 273 436 C 331 436 374 418 404 383 C 434 347 449 303 449 251 C 449 215 442 182 430 150 C 417 118 400 91 378 67 C 356 43 329 25 299 11 C 268 -3 235 -10 199 -10 C 141 -10 96 7 66 42 C 35 77 20 121 20 174 C 20 206 25 238 37 270 C 49 302 66 330 88 354 C 110 378 136 398 168 413 C 199 428 234 436 273 436 Z M 204 41 C 226 41 246 47 264 60 C 282 73 297 90 309 112 C 321 134 330 158 336 186 C 342 214 345 242 345 271 C 345 306 339 334 327 355 C 315 375 295 386 266 386 C 242 386 221 379 203 365 C 185 351 170 333 158 311 C 146 289 138 265 132 238 C 126 211 124 184 124 158 C 124 122 129 93 141 72 C 153 51 174 41 204 41 Z" unicode="" />
<glyph horiz-adv-x="745" d="M 387 549 C 406 549 422 542 436 529 C 449 515 456 499 456 480 C 456 460 449 444 436 431 C 422 417 406 411 387 411 C 367 411 351 417 338 431 C 324 444 318 460 318 480 C 318 499 324 515 338 529 C 351 542 367 549 387 549 Z M 653 329 L 653 257 L 121 257 L 121 329 L 653 329 Z M 387 175 C 406 175 422 168 436 155 C 449 141 456 125 456 106 C 456 86 449 70 436 57 C 422 43 406 37 387 37 C 367 37 351 43 338 57 C 324 70 318 86 318 106 C 318 125 324 141 338 155 C 351 168 367 175 387 175 Z" unicode="" />
<glyph horiz-adv-x="468" d="M 402 470 L 449 470 L 392 393 C 410 376 424 355 434 331 C 444 307 449 280 449 251 C 449 215 442 182 430 150 C 417 118 400 91 378 67 C 356 43 329 25 299 11 C 268 -3 235 -10 199 -10 C 181 -10 165 -8 150 -4 C 134 0 120 5 108 12 L 64 -48 L 17 -48 L 77 33 C 59 49 45 70 35 94 C 25 118 20 145 20 174 C 20 206 25 238 37 270 C 49 302 66 330 88 354 C 110 378 136 398 168 413 C 199 428 234 436 273 436 C 289 436 305 434 320 430 C 334 426 348 421 361 415 L 402 470 Z M 128 99 L 323 364 C 316 370 308 376 299 380 C 289 384 278 386 266 386 C 242 386 220 379 202 366 C 184 352 169 335 157 313 C 145 291 137 267 131 240 C 125 212 122 185 122 158 C 122 147 122 136 123 126 C 124 116 126 107 128 99 Z M 204 41 C 226 41 247 47 265 60 C 283 73 298 90 310 111 C 322 132 331 157 337 185 C 343 213 347 241 347 271 C 347 281 346 291 345 301 C 344 311 343 319 341 327 L 147 63 C 153 56 161 51 171 47 C 180 43 191 41 204 41 Z" unicode="" />
<glyph horiz-adv-x="517" d="M 301 645 L 420 503 L 396 486 L 243 576 C 228 584 217 593 211 602 C 205 610 202 619 202 629 C 202 641 206 651 214 660 C 222 669 233 674 246 674 C 254 674 263 672 272 669 C 280 665 290 657 301 645 Z M 487 74 L 497 33 C 488 25 473 16 451 6 C 429 -3 406 -9 382 -9 C 355 -9 337 -2 328 10 C 318 22 313 36 312 52 C 292 37 270 23 245 10 C 220 -2 191 -9 157 -9 C 117 -9 89 1 73 21 C 56 41 48 68 48 101 C 48 107 49 116 51 127 C 53 137 55 147 57 156 L 96 306 C 96 310 97 314 98 318 C 99 322 100 326 100 329 C 100 335 97 341 92 345 C 87 349 80 351 70 352 C 63 352 57 353 52 355 C 46 357 44 360 44 364 C 44 365 44 367 44 369 C 44 371 45 374 46 376 L 52 399 C 74 399 97 401 119 407 C 141 413 164 420 188 429 L 228 429 L 154 144 C 152 138 151 132 150 125 C 149 118 149 113 149 110 C 149 90 153 76 162 68 C 171 59 185 55 204 55 C 224 55 244 60 264 71 C 284 82 301 95 316 110 L 365 304 C 365 308 366 313 367 318 C 368 322 369 326 369 329 C 369 335 366 341 361 345 C 356 349 349 351 339 352 C 332 352 326 353 321 355 C 315 357 313 360 313 364 C 313 365 313 367 313 369 C 313 371 314 374 315 376 L 321 399 C 343 399 366 401 388 407 C 410 413 433 420 457 429 L 495 429 L 411 97 C 410 93 409 88 409 84 C 408 80 408 76 408 73 C 408 67 409 62 413 58 C 417 54 423 52 432 52 C 439 52 447 54 455 58 C 463 62 474 68 487 74 Z" unicode="" />
<glyph horiz-adv-x="517" d="M 406 674 C 418 674 428 669 436 660 C 444 651 448 641 448 629 C 448 620 444 611 436 602 C 428 593 417 584 403 576 L 244 486 L 220 503 L 349 645 C 360 657 370 665 379 669 C 388 672 397 674 406 674 Z M 487 74 L 497 33 C 488 25 473 16 451 6 C 429 -3 406 -9 382 -9 C 355 -9 337 -2 328 10 C 318 22 313 36 312 52 C 292 37 270 23 245 10 C 220 -2 191 -9 157 -9 C 117 -9 89 1 73 21 C 56 41 48 68 48 101 C 48 107 49 116 51 127 C 53 137 55 147 57 156 L 96 306 C 96 310 97 314 98 318 C 99 322 100 326 100 329 C 100 335 97 341 92 345 C 87 349 80 351 70 352 C 63 352 57 353 52 355 C 46 357 44 360 44 364 C 44 365 44 367 44 369 C 44 371 45 374 46 376 L 52 399 C 74 399 97 401 119 407 C 141 413 164 420 188 429 L 228 429 L 154 144 C 152 138 151 132 150 125 C 149 118 149 113 149 110 C 149 90 153 76 162 68 C 171 59 185 55 204 55 C 224 55 244 60 264 71 C 284 82 301 95 316 110 L 365 304 C 365 308 366 313 367 318 C 368 322 369 326 369 329 C 369 335 366 341 361 345 C 356 349 349 351 339 352 C 332 352 326 353 321 355 C 315 357 313 360 313 364 C 313 365 313 367 313 369 C 313 371 314 374 315 376 L 321 399 C 343 399 366 401 388 407 C 410 413 433 420 457 429 L 495 429 L 411 97 C 410 93 409 88 409 84 C 408 80 408 76 408 73 C 408 67 409 62 413 58 C 417 54 423 52 432 52 C 439 52 447 54 455 58 C 463 62 474 68 487 74 Z" unicode="" />
<glyph horiz-adv-x="517" d="M 373 660 L 461 482 L 421 482 L 330 583 L 188 482 L 147 482 L 313 660 L 373 660 Z M 487 74 L 497 33 C 488 25 473 16 451 6 C 429 -3 406 -9 382 -9 C 355 -9 337 -2 328 10 C 318 22 313 36 312 52 C 292 37 270 23 245 10 C 220 -2 191 -9 157 -9 C 117 -9 89 1 73 21 C 56 41 48 68 48 101 C 48 107 49 116 51 127 C 53 137 55 147 57 156 L 96 306 C 96 310 97 314 98 318 C 99 322 100 326 100 329 C 100 335 97 341 92 345 C 87 349 80 351 70 352 C 63 352 57 353 52 355 C 46 357 44 360 44 364 C 44 365 44 367 44 369 C 44 371 45 374 46 376 L 52 399 C 74 399 97 401 119 407 C 141 413 164 420 188 429 L 228 429 L 154 144 C 152 138 151 132 150 125 C 149 118 149 113 149 110 C 149 90 153 76 162 68 C 171 59 185 55 204 55 C 224 55 244 60 264 71 C 284 82 301 95 316 110 L 365 304 C 365 308 366 313 367 318 C 368 322 369 326 369 329 C 369 335 366 341 361 345 C 356 349 349 351 339 352 C 332 352 326 353 321 355 C 315 357 313 360 313 364 C 313 365 313 367 313 369 C 313 371 314 374 315 376 L 321 399 C 343 399 366 401 388 407 C 410 413 433 420 457 429 L 495 429 L 411 97 C 410 93 409 88 409 84 C 408 80 408 76 408 73 C 408 67 409 62 413 58 C 417 54 423 52 432 52 C 439 52 447 54 455 58 C 463 62 474 68 487 74 Z" unicode="" />
<glyph horiz-adv-x="517" d="M 415 617 C 429 617 442 611 454 600 C 465 588 471 575 471 561 C 471 546 465 533 454 522 C 442 510 429 505 415 505 C 400 505 387 510 376 522 C 364 533 359 546 359 561 C 359 575 364 588 376 600 C 387 611 400 617 415 617 Z M 225 617 C 239 617 252 611 264 600 C 275 588 281 575 281 561 C 281 546 275 533 264 522 C 252 510 239 505 225 505 C 210 505 197 510 186 522 C 174 533 169 546 169 561 C 169 575 174 588 186 600 C 197 611 210 617 225 617 Z M 487 74 L 497 33 C 488 25 473 16 451 6 C 429 -3 406 -9 382 -9 C 355 -9 337 -2 328 10 C 318 22 313 36 312 52 C 292 37 270 23 245 10 C 220 -2 191 -9 157 -9 C 117 -9 89 1 73 21 C 56 41 48 68 48 101 C 48 107 49 116 51 127 C 53 137 55 147 57 156 L 96 306 C 96 310 97 314 98 318 C 99 322 100 326 100 329 C 100 335 97 341 92 345 C 87 349 80 351 70 352 C 63 352 57 353 52 355 C 46 357 44 360 44 364 C 44 365 44 367 44 369 C 44 371 45 374 46 376 L 52 399 C 74 399 97 401 119 407 C 141 413 164 420 188 429 L 228 429 L 154 144 C 152 138 151 132 150 125 C 149 118 149 113 149 110 C 149 90 153 76 162 68 C 171 59 185 55 204 55 C 224 55 244 60 264 71 C 284 82 301 95 316 110 L 365 304 C 365 308 366 313 367 318 C 368 322 369 326 369 329 C 369 335 366 341 361 345 C 356 349 349 351 339 352 C 332 352 326 353 321 355 C 315 357 313 360 313 364 C 313 365 313 367 313 369 C 313 371 314 374 315 376 L 321 399 C 343 399 366 401 388 407 C 410 413 433 420 457 429 L 495 429 L 411 97 C 410 93 409 88 409 84 C 408 80 408 76 408 73 C 408 67 409 62 413 58 C 417 54 423 52 432 52 C 439 52 447 54 455 58 C 463 62 474 68 487 74 Z" unicode="" />
<glyph horiz-adv-x="437" d="M 394 674 C 406 674 416 669 424 660 C 432 651 436 641 436 629 C 436 620 432 611 424 602 C 416 593 405 584 391 576 L 232 486 L 208 503 L 337 645 C 348 657 358 665 367 669 C 376 672 385 674 394 674 Z M 394 432 C 412 432 427 426 437 414 C 447 402 453 389 453 373 C 453 357 447 337 436 311 C 425 285 411 257 393 226 C 375 195 354 162 331 128 C 308 94 285 60 262 28 C 245 4 226 -20 206 -46 C 186 -72 164 -97 142 -119 C 119 -141 95 -159 71 -173 C 46 -187 21 -195 -5 -195 C -31 -195 -52 -188 -67 -174 C -81 -160 -89 -143 -89 -123 C -89 -110 -84 -98 -74 -86 C -64 -74 -50 -68 -32 -68 C -18 -68 -5 -73 6 -83 C 18 -93 25 -110 28 -135 C 41 -130 55 -122 70 -111 C 84 -100 98 -88 112 -75 C 126 -62 138 -49 150 -36 C 162 -23 171 -12 178 -4 C 172 29 166 62 160 95 C 154 128 147 159 141 187 C 135 215 129 239 123 261 C 117 283 113 299 109 310 C 105 322 99 335 92 347 C 84 359 74 366 62 366 C 54 366 46 364 38 360 C 29 356 18 351 6 346 L -3 388 C 7 396 23 406 46 416 C 68 426 89 432 109 432 C 141 432 164 419 180 395 C 195 370 208 335 220 289 C 228 256 234 222 239 188 C 244 154 249 123 253 97 C 272 125 289 154 305 182 C 320 210 334 236 346 261 C 352 273 356 282 359 290 C 362 297 366 308 371 322 C 360 328 351 335 344 343 C 336 351 333 362 333 376 C 333 388 338 401 349 413 C 359 425 374 432 394 432 Z" unicode="" />
<glyph horiz-adv-x="437" d="M 377 617 C 391 617 404 611 416 600 C 427 588 433 575 433 561 C 433 546 427 533 416 522 C 404 510 391 505 377 505 C 362 505 349 510 338 522 C 326 533 321 546 321 561 C 321 575 326 588 338 600 C 349 611 362 617 377 617 Z M 187 617 C 201 617 214 611 226 600 C 237 588 243 575 243 561 C 243 546 237 533 226 522 C 214 510 201 505 187 505 C 172 505 159 510 148 522 C 136 533 131 546 131 561 C 131 575 136 588 148 600 C 159 611 172 617 187 617 Z M 394 432 C 412 432 427 426 437 414 C 447 402 453 389 453 373 C 453 357 447 337 436 311 C 425 285 411 257 393 226 C 375 195 354 162 331 128 C 308 94 285 60 262 28 C 245 4 226 -20 206 -46 C 186 -72 164 -97 142 -119 C 119 -141 95 -159 71 -173 C 46 -187 21 -195 -5 -195 C -31 -195 -52 -188 -67 -174 C -81 -160 -89 -143 -89 -123 C -89 -110 -84 -98 -74 -86 C -64 -74 -50 -68 -32 -68 C -18 -68 -5 -73 6 -83 C 18 -93 25 -110 28 -135 C 41 -130 55 -122 70 -111 C 84 -100 98 -88 112 -75 C 126 -62 138 -49 150 -36 C 162 -23 171 -12 178 -4 C 172 29 166 62 160 95 C 154 128 147 159 141 187 C 135 215 129 239 123 261 C 117 283 113 299 109 310 C 105 322 99 335 92 347 C 84 359 74 366 62 366 C 54 366 46 364 38 360 C 29 356 18 351 6 346 L -3 388 C 7 396 23 406 46 416 C 68 426 89 432 109 432 C 141 432 164 419 180 395 C 195 370 208 335 220 289 C 228 256 234 222 239 188 C 244 154 249 123 253 97 C 272 125 289 154 305 182 C 320 210 334 236 346 261 C 352 273 356 282 359 290 C 362 297 366 308 371 322 C 360 328 351 335 344 343 C 336 351 333 362 333 376 C 333 388 338 401 349 413 C 359 425 374 432 394 432 Z" unicode="" />
<glyph horiz-adv-x="258" d="M 227 74 L 237 33 C 228 25 213 16 191 6 C 169 -3 146 -9 122 -9 C 92 -9 72 -2 61 10 C 50 23 45 38 45 55 C 45 61 45 68 47 76 C 48 83 50 91 52 100 L 104 306 C 104 310 105 314 106 318 C 107 322 108 326 108 329 C 108 335 105 341 100 345 C 95 349 88 351 78 352 C 71 352 65 353 60 355 C 54 357 52 360 52 364 C 52 365 52 367 52 369 C 52 371 53 374 54 376 L 60 399 C 82 399 105 401 127 407 C 149 413 172 420 196 429 L 235 429 L 152 98 C 151 94 150 90 149 86 C 148 82 148 78 148 75 C 148 69 149 64 153 59 C 157 54 163 52 172 52 C 179 52 187 54 195 58 C 203 62 214 68 227 74 Z" unicode="" />
<glyph horiz-adv-x="569" d="M 503 173 L 534 173 L 491 0 L -28 0 L -21 28 C -19 34 -17 38 -14 40 C -10 42 -3 45 9 51 C 23 57 31 63 35 67 C 38 71 41 79 44 91 L 102 322 L 27 282 L 41 339 L 116 379 L 175 614 C 177 622 178 629 179 635 C 180 641 181 646 181 648 C 181 656 178 663 174 667 C 169 671 163 676 156 680 C 150 682 145 685 141 688 C 137 690 135 693 135 696 C 135 698 135 701 136 703 C 136 705 137 708 138 711 L 143 730 L 365 730 L 358 702 C 356 696 354 692 351 690 C 347 688 340 684 328 679 C 314 672 305 666 302 662 C 298 658 295 650 293 638 L 238 421 L 378 496 L 363 437 L 224 364 L 147 58 L 340 58 C 370 58 394 65 412 79 C 430 93 452 117 476 153 C 480 159 484 164 488 168 C 491 171 496 173 503 173 Z" unicode="" />
<glyph horiz-adv-x="253" d="M 147 730 L 301 730 L 222 411 L 300 453 L 286 398 L 208 357 L 144 99 C 143 95 142 91 141 87 C 140 83 140 79 140 76 C 140 70 141 64 145 59 C 149 54 155 52 164 52 C 171 52 179 54 188 58 C 197 62 208 68 221 75 L 231 34 C 222 26 206 16 184 6 C 162 -3 138 -9 114 -9 C 84 -9 64 -2 53 10 C 42 23 37 38 37 55 C 37 61 37 68 39 76 C 40 84 42 92 44 101 L 99 323 L 26 283 L 40 339 L 113 377 L 173 618 C 175 626 176 633 178 641 C 180 649 181 654 181 656 C 181 664 179 669 177 672 C 174 675 169 679 162 683 C 156 685 150 688 146 691 C 142 693 140 696 140 699 C 140 700 140 702 141 705 C 141 708 142 711 143 714 L 147 730 Z" unicode="" />
<glyph horiz-adv-x="956" d="M 895 730 C 901 730 910 730 921 731 C 931 731 942 732 952 733 C 962 733 972 734 982 735 C 991 735 998 736 1003 737 L 964 581 L 942 581 C 933 581 927 582 924 585 C 921 587 919 591 919 597 C 916 612 913 625 911 635 C 908 645 904 652 898 658 C 892 663 884 667 873 669 C 861 671 846 672 827 672 L 678 672 L 611 403 L 688 403 C 708 403 723 406 733 413 C 743 419 754 431 766 448 C 770 453 774 457 779 461 C 783 464 790 466 799 466 L 826 466 L 779 277 L 753 277 C 745 277 739 279 735 284 C 731 288 729 293 729 298 C 725 315 720 327 714 334 C 708 340 696 344 680 344 L 597 344 L 525 58 L 708 58 C 742 58 769 64 788 78 C 806 92 828 116 852 152 C 856 158 859 163 863 167 C 867 170 872 172 879 172 L 910 172 L 867 0 L 384 0 C 330 0 282 7 240 21 C 198 35 163 55 135 81 C 106 106 84 137 70 173 C 55 209 48 250 48 294 C 48 358 58 417 80 471 C 102 525 132 571 171 609 C 210 647 257 676 313 698 C 369 719 430 730 497 730 L 895 730 Z M 550 604 C 551 610 552 618 554 627 C 556 636 557 643 557 647 C 556 659 550 667 540 669 C 529 671 516 673 500 673 C 441 673 390 662 348 641 C 305 620 270 592 244 556 C 217 520 197 479 185 432 C 172 385 166 336 166 284 C 166 242 171 207 183 178 C 195 148 210 125 229 107 C 248 89 269 75 293 67 C 317 59 341 55 365 55 C 385 55 399 59 407 67 C 415 75 421 91 427 113 L 550 604 Z" unicode="" />
<glyph horiz-adv-x="712" d="M 581 434 C 619 434 650 425 674 407 C 698 389 710 365 710 335 C 710 303 700 277 682 258 C 663 238 641 224 615 214 C 589 204 562 197 534 194 C 506 191 484 190 467 190 L 425 190 C 425 187 424 184 424 181 C 424 177 424 174 424 172 C 424 125 434 94 455 78 C 475 62 499 55 525 55 C 546 55 569 61 594 74 C 618 86 644 106 672 132 L 696 97 C 692 90 685 81 675 69 C 665 57 653 46 637 34 C 621 22 601 12 578 4 C 554 -4 527 -9 497 -9 C 461 -9 433 -1 411 12 C 389 26 372 43 360 62 C 339 40 315 23 287 10 C 259 -3 230 -10 198 -10 C 140 -10 95 7 65 42 C 35 77 20 121 20 174 C 20 206 25 238 37 270 C 49 302 65 330 87 354 C 109 378 135 398 167 413 C 198 428 233 436 272 436 C 304 436 332 429 355 415 C 378 401 396 384 410 362 C 432 384 458 401 487 414 C 516 427 547 434 581 434 Z M 203 41 C 225 41 245 47 263 60 C 281 73 295 90 307 112 C 319 134 328 158 334 186 C 340 214 343 242 343 271 C 343 306 337 334 326 355 C 314 375 294 386 265 386 C 241 386 220 379 202 365 C 184 351 169 333 158 311 C 146 289 138 265 132 238 C 126 211 124 184 124 158 C 124 122 129 93 141 72 C 152 51 173 41 203 41 Z M 429 233 C 451 234 474 236 496 239 C 518 242 537 247 555 255 C 572 262 586 272 597 286 C 607 299 613 316 613 338 C 613 354 607 366 597 373 C 586 380 575 384 563 384 C 533 384 506 371 481 347 C 456 323 439 285 429 233 Z" unicode="" />
<glyph horiz-adv-x="537" d="M 516 951 L 558 951 L 385 778 L 325 778 L 226 951 L 266 951 L 364 855 L 516 951 Z M 529 710 L 562 710 L 515 528 L 483 528 C 476 528 471 529 469 533 C 466 537 464 541 464 546 C 459 587 446 620 425 645 C 404 670 374 683 334 683 C 298 683 267 672 243 650 C 219 628 207 600 207 567 C 207 545 212 525 222 509 C 232 492 248 477 270 465 C 286 455 302 446 319 438 C 335 430 353 421 372 412 C 417 389 452 364 476 336 C 500 308 513 273 513 230 C 513 201 507 172 495 144 C 483 115 465 89 442 66 C 419 43 391 24 357 10 C 323 -3 285 -11 243 -11 C 201 -11 163 -5 131 7 C 98 19 76 27 66 32 C 63 33 60 34 57 36 C 53 37 51 38 49 38 C 45 38 42 37 39 35 C 36 33 34 30 32 28 C 28 22 23 17 17 15 C 11 13 6 12 2 12 L -32 12 L 19 215 L 50 215 C 56 215 60 213 64 210 C 67 207 70 200 72 190 C 84 134 106 96 140 76 C 174 56 210 47 249 47 C 296 47 335 60 365 88 C 395 116 411 152 411 196 C 411 226 401 250 383 267 C 365 283 342 298 316 312 C 297 322 280 330 265 337 C 250 344 234 352 218 361 C 174 383 145 410 129 441 C 113 471 106 504 106 539 C 106 565 111 590 122 614 C 133 638 149 660 169 679 C 189 697 214 712 243 724 C 271 735 303 741 339 741 C 358 741 380 738 405 733 C 430 727 455 717 481 703 C 485 700 488 698 491 697 C 494 696 498 697 503 700 C 510 704 515 707 518 708 C 520 709 524 710 529 710 Z" unicode="" />
<glyph horiz-adv-x="368" d="M 383 660 L 424 660 L 258 482 L 198 482 L 110 660 L 150 660 L 241 559 L 383 660 Z M 226 434 C 271 434 304 425 324 408 C 344 391 354 374 354 358 C 354 339 348 325 336 315 C 324 305 311 300 297 300 C 282 300 270 304 261 314 C 252 324 248 335 248 348 C 248 352 248 358 250 364 C 251 370 252 375 254 380 C 251 380 247 381 241 383 C 235 385 226 386 215 386 C 197 386 181 380 167 369 C 153 357 146 343 146 325 C 146 309 153 295 169 285 C 184 274 208 261 241 247 C 277 230 302 213 316 195 C 330 177 337 157 337 133 C 337 117 333 100 325 84 C 317 67 306 52 291 38 C 276 24 257 12 234 4 C 210 -4 183 -9 153 -9 C 103 -9 65 1 39 22 C 12 42 -1 64 -1 87 C -1 101 4 115 14 127 C 24 139 38 146 57 146 C 75 146 89 141 97 131 C 105 121 109 110 109 98 C 109 90 107 83 104 77 C 100 70 97 65 95 61 C 103 54 114 49 127 45 C 140 41 153 39 167 39 C 189 39 208 45 224 59 C 240 73 248 88 248 106 C 248 124 238 139 220 149 C 202 159 178 171 150 184 C 114 199 89 216 77 235 C 64 254 58 275 58 299 C 58 318 62 336 72 352 C 81 368 93 383 109 395 C 124 407 142 416 162 423 C 182 430 204 434 226 434 Z" unicode="" />
<glyph horiz-adv-x="625" d="M 555 912 C 569 912 582 906 594 895 C 605 883 611 870 611 856 C 611 841 605 828 594 817 C 582 805 569 800 555 800 C 540 800 527 805 516 817 C 504 828 499 841 499 856 C 499 870 504 883 516 895 C 527 906 540 912 555 912 Z M 341 912 C 355 912 368 906 380 895 C 391 883 397 870 397 856 C 397 841 391 828 380 817 C 368 805 355 800 341 800 C 326 800 313 805 302 817 C 290 828 285 841 285 856 C 285 870 290 883 302 895 C 313 906 326 912 341 912 Z M 538 730 L 745 730 L 738 702 C 736 696 734 691 731 689 C 727 687 719 683 707 678 C 697 673 686 667 675 660 C 664 652 651 640 637 624 L 384 333 L 330 116 C 328 108 326 101 325 95 C 324 88 324 84 324 82 C 324 73 326 67 331 63 C 336 59 342 55 350 51 C 356 48 361 45 365 43 C 369 40 371 37 371 35 C 371 32 370 29 370 27 C 369 24 368 21 368 19 L 363 0 L 139 0 L 146 28 C 147 34 149 38 153 40 C 156 42 164 45 176 51 C 190 57 198 63 202 67 C 206 71 209 79 212 91 L 272 332 L 152 637 C 148 646 143 654 138 661 C 132 667 124 673 112 679 C 106 681 101 684 97 687 C 93 689 91 692 91 695 C 91 697 91 700 92 703 C 92 705 93 708 94 711 L 99 730 L 327 730 L 320 702 C 318 696 316 691 313 689 C 310 687 302 683 290 679 C 279 675 272 672 270 669 C 268 665 267 662 267 658 C 267 655 267 650 269 644 C 271 638 272 634 273 632 L 360 399 L 552 621 C 556 625 560 632 566 640 C 572 648 575 655 575 660 C 575 664 573 667 570 671 C 567 674 562 677 556 680 C 548 682 542 685 537 687 C 532 689 530 692 530 695 C 530 697 530 700 531 703 C 531 705 532 708 533 711 L 538 730 Z" unicode="" />
<glyph horiz-adv-x="592" d="M 560 951 L 602 951 L 429 778 L 369 778 L 270 951 L 310 951 L 408 855 L 560 951 Z M 257 730 L 665 730 L 661 712 C 658 701 654 693 650 687 C 645 681 640 675 634 669 L 119 58 L 354 58 C 380 58 403 64 421 77 C 439 90 460 114 484 150 C 488 156 492 161 496 165 C 499 169 505 171 514 171 L 547 171 L 502 -9 C 496 -8 489 -7 480 -6 C 471 -5 462 -4 452 -3 C 442 -2 432 -1 422 -1 C 412 0 403 0 397 0 L -44 0 L -37 24 C -35 30 -32 36 -28 41 C -24 46 -18 53 -11 62 L 504 672 L 283 672 C 264 672 247 666 232 654 C 217 642 203 625 190 601 C 185 593 180 587 174 583 C 168 579 160 577 150 577 L 123 577 L 165 739 C 175 737 189 735 209 733 C 229 731 245 730 257 730 Z" unicode="" />
<glyph horiz-adv-x="401" d="M 390 660 L 431 660 L 265 482 L 205 482 L 117 660 L 157 660 L 248 559 L 390 660 Z M 408 435 L 423 401 L 98 84 C 104 85 113 87 125 90 C 136 92 149 94 165 94 C 183 94 199 91 212 87 C 225 83 237 78 247 72 C 257 66 267 61 277 57 C 286 53 296 51 306 51 C 310 51 314 52 319 55 C 324 58 327 64 327 73 C 327 80 324 86 320 90 C 316 94 311 98 307 102 C 302 106 297 110 293 116 C 289 121 287 129 287 140 C 287 154 292 164 303 172 C 314 180 325 184 336 184 C 345 184 356 180 369 172 C 381 164 388 147 388 122 C 388 99 383 79 375 63 C 367 47 356 33 343 23 C 330 12 315 4 298 -1 C 281 -6 264 -9 248 -9 C 232 -9 218 -7 207 -5 C 196 -3 185 0 175 2 C 165 5 153 8 141 10 C 129 12 114 14 96 14 C 79 14 63 12 48 9 C 32 6 11 2 -16 -3 L -31 31 L 290 345 C 280 342 268 339 255 337 C 241 335 229 334 219 334 C 204 334 190 335 178 338 C 165 340 149 342 131 342 C 113 342 99 337 89 327 C 79 317 70 307 62 297 L 31 317 C 31 319 33 327 38 339 C 43 351 51 364 62 377 C 72 390 86 402 104 413 C 121 423 142 429 167 429 C 183 429 195 428 203 426 C 211 424 218 423 226 421 C 233 419 242 417 252 415 C 262 413 277 413 297 413 C 329 413 352 415 367 420 C 381 424 395 429 408 435 Z" unicode="" />
<glyph horiz-adv-x="445" d="M 408 694 C 434 694 455 687 471 674 C 486 661 493 645 493 625 C 493 610 488 597 478 586 C 468 575 456 570 442 570 C 431 570 421 573 412 581 C 402 589 397 598 397 610 L 397 646 C 373 639 355 627 345 611 C 334 594 325 572 319 545 L 280 382 L 387 382 L 372 327 L 266 327 L 159 -137 L 57 -137 L 165 327 L 83 328 L 95 382 L 151 382 C 163 382 173 386 179 394 C 185 402 189 411 192 422 L 210 493 C 212 501 217 517 225 539 C 233 561 245 584 261 607 C 277 629 297 649 321 667 C 345 685 374 694 408 694 Z" unicode="" />
<glyph horiz-adv-x="389" d="M 286 660 L 374 482 L 334 482 L 243 583 L 101 482 L 60 482 L 226 660 L 286 660 Z" unicode="" />
<glyph horiz-adv-x="389" d="M 333 660 L 374 660 L 208 482 L 148 482 L 60 660 L 100 660 L 191 559 L 333 660 Z" unicode="" />
<glyph horiz-adv-x="389" d="M 67 601 L 375 601 L 358 537 L 50 537 L 67 601 Z" unicode="" />
<glyph horiz-adv-x="389" d="M 311 661 L 350 661 C 342 637 334 615 325 594 C 315 573 304 555 290 539 C 276 523 260 511 241 502 C 222 493 200 489 174 489 C 128 489 97 503 82 531 C 66 559 59 595 59 641 C 59 644 59 647 59 651 C 59 654 59 657 60 661 L 98 661 C 102 631 109 606 119 587 C 129 568 152 559 188 559 C 224 559 250 568 266 587 C 282 606 297 631 311 661 Z" unicode="" />
<glyph horiz-adv-x="389" d="M 226 642 C 244 642 258 635 270 623 C 282 610 288 595 288 578 C 288 561 282 546 270 534 C 258 521 243 515 225 515 C 207 515 193 521 181 534 C 169 546 163 561 163 578 C 163 595 169 610 181 623 C 193 635 208 642 226 642 Z" unicode="" />
<glyph horiz-adv-x="389" d="M 260 706 C 292 706 318 696 338 678 C 358 659 368 636 368 608 C 368 574 355 545 329 521 C 303 497 273 486 239 486 C 207 486 182 495 162 513 C 142 531 132 555 132 584 C 132 598 135 613 141 627 C 147 641 155 654 167 666 C 178 678 191 687 207 695 C 223 702 240 706 260 706 Z M 240 521 C 262 521 279 530 290 550 C 300 570 306 592 306 617 C 306 635 301 649 293 658 C 285 666 273 671 259 671 C 236 671 219 660 209 640 C 199 620 194 598 194 576 C 194 558 197 545 204 535 C 211 525 223 521 240 521 Z" unicode="" />
<glyph horiz-adv-x="389" d="M 337 638 L 373 638 C 367 605 353 577 331 553 C 309 529 284 517 258 517 C 246 517 236 518 228 522 C 219 525 208 532 195 542 C 184 550 175 556 168 560 C 160 564 152 566 142 566 C 129 566 118 560 108 549 C 98 538 91 526 88 513 L 52 513 C 57 545 71 574 93 598 C 115 622 139 634 166 634 C 180 634 192 632 200 628 C 208 624 217 619 229 611 C 241 602 250 595 258 591 C 265 587 273 585 282 585 C 294 585 306 590 316 601 C 326 612 333 624 337 638 Z" unicode="" />
<glyph horiz-adv-x="586" d="M 257 420 L 589 419 L 573 348 L 489 348 L 436 121 C 435 116 434 110 434 104 C 433 97 433 91 433 87 C 433 71 438 60 448 56 C 458 51 468 49 478 49 C 484 49 491 50 497 52 C 503 54 510 56 516 59 C 516 52 517 45 518 39 C 518 33 519 28 519 24 C 519 18 515 12 507 8 C 499 4 491 0 481 -2 C 471 -4 461 -6 451 -8 C 441 -9 434 -10 430 -10 C 401 -10 378 -2 360 12 C 342 27 333 50 333 81 C 333 88 333 96 335 106 C 336 115 338 124 340 132 L 390 348 L 283 347 C 279 330 275 309 269 283 C 263 257 257 231 251 206 C 245 186 238 163 230 138 C 221 113 210 90 197 68 C 184 46 169 28 151 13 C 133 -1 111 -9 87 -9 C 71 -9 57 -4 46 5 C 34 14 29 27 29 43 C 29 59 34 74 46 86 C 58 98 72 105 88 105 C 94 105 102 103 110 100 C 118 96 126 90 135 80 C 146 97 156 117 166 140 C 175 162 183 186 191 210 C 198 234 205 258 211 282 C 217 306 222 328 226 348 C 190 345 165 336 150 322 C 134 308 121 289 109 266 L 57 267 C 72 311 97 347 131 376 C 165 405 207 420 257 420 Z" unicode="" />
<glyph horiz-adv-x="545" d="M 54 259 L 516 259 L 496 187 L 34 187 L 54 259 Z" unicode="" />
<glyph horiz-adv-x="1085" d="M 54 259 L 1056 259 L 1036 187 L 34 187 L 54 259 Z" unicode="" />
<glyph horiz-adv-x="995" d="M -41 53 L 960 53 L 945 0 L -56 0 L -41 53 Z" unicode="" />
<glyph horiz-adv-x="243" d="M 280 743 L 306 710 C 282 695 260 679 239 661 C 218 643 202 621 190 595 C 212 590 227 583 236 574 C 244 564 249 553 249 541 C 249 518 242 500 228 487 C 214 473 197 467 178 467 C 156 467 140 472 130 484 C 119 496 114 511 114 531 C 114 547 117 564 123 584 C 129 604 139 623 153 642 C 167 661 184 679 205 697 C 226 715 251 730 280 743 Z" unicode="" />
<glyph horiz-adv-x="243" d="M 216 740 C 237 740 253 734 264 722 C 274 710 280 695 280 676 C 280 660 276 642 270 622 C 264 602 254 583 241 564 C 227 545 210 527 189 509 C 168 491 143 477 115 465 L 89 498 C 111 512 133 528 154 546 C 175 563 192 585 204 612 C 182 616 166 623 158 633 C 149 642 145 653 145 666 C 145 688 152 706 166 720 C 180 733 196 740 216 740 Z" unicode="" />
<glyph horiz-adv-x="243" d="M 92 130 C 113 130 129 124 140 112 C 150 100 156 85 156 66 C 156 50 152 32 146 12 C 140 -7 130 -26 117 -45 C 103 -64 86 -82 65 -100 C 44 -118 19 -133 -9 -145 L -35 -112 C -12 -97 9 -81 30 -64 C 51 -46 68 -24 80 2 C 58 6 42 13 34 23 C 25 32 21 43 21 56 C 21 78 28 96 42 110 C 56 123 72 130 92 130 Z" unicode="" />
<glyph horiz-adv-x="428" d="M 280 743 L 306 710 C 282 695 260 679 239 661 C 218 643 202 621 190 595 C 212 590 227 583 235 574 C 243 564 248 553 248 541 C 248 518 241 500 227 487 C 213 473 197 467 178 467 C 156 467 140 472 130 484 C 119 496 114 511 114 531 C 114 547 117 564 123 584 C 129 604 139 623 153 642 C 167 661 184 679 205 697 C 226 715 251 730 280 743 Z M 464 742 L 490 709 C 467 694 445 678 424 661 C 403 643 387 621 375 595 C 397 590 412 583 420 574 C 428 564 433 553 433 541 C 433 518 426 500 412 487 C 398 473 382 467 363 467 C 341 467 325 472 315 484 C 304 496 299 511 299 531 C 299 547 302 564 308 584 C 314 604 324 623 338 642 C 351 661 368 679 389 697 C 410 715 435 730 464 742 Z" unicode="" />
<glyph horiz-adv-x="428" d="M 401 740 C 422 740 438 734 449 722 C 459 710 465 695 465 676 C 465 660 461 642 455 622 C 449 602 439 583 426 564 C 412 545 395 527 374 509 C 353 491 328 477 300 465 L 274 498 C 296 512 318 528 339 546 C 360 563 377 585 389 612 C 367 616 351 623 343 633 C 335 642 331 653 331 666 C 331 688 337 706 351 720 C 365 733 381 740 401 740 Z M 216 740 C 237 740 253 734 264 722 C 274 710 280 695 280 676 C 280 660 276 642 270 622 C 264 602 254 583 241 564 C 227 545 210 527 189 509 C 168 491 143 477 115 465 L 89 498 C 111 512 133 528 154 546 C 175 563 192 585 204 612 C 182 616 166 623 158 633 C 150 642 146 653 146 666 C 146 688 152 706 166 720 C 180 733 196 740 216 740 Z" unicode="" />
<glyph horiz-adv-x="428" d="M 277 130 C 298 130 314 124 325 112 C 335 100 341 85 341 66 C 341 50 337 32 331 12 C 325 -7 315 -26 302 -45 C 288 -64 271 -82 250 -100 C 229 -118 204 -133 176 -145 L 150 -112 C 172 -97 194 -81 215 -64 C 236 -46 253 -24 265 2 C 243 6 227 13 219 23 C 211 32 207 43 207 56 C 207 78 213 96 227 110 C 241 123 257 130 277 130 Z M 92 130 C 113 130 129 124 140 112 C 150 100 156 85 156 66 C 156 50 152 32 146 12 C 140 -7 130 -26 117 -45 C 103 -64 86 -82 65 -100 C 44 -118 19 -133 -9 -145 L -35 -112 C -12 -97 9 -81 30 -64 C 51 -46 68 -24 80 2 C 58 6 42 13 34 23 C 26 32 22 43 22 56 C 22 78 28 96 42 110 C 56 123 72 130 92 130 Z" unicode="" />
<glyph horiz-adv-x="470" d="M 437 537 C 457 537 473 532 484 523 C 495 514 501 503 501 491 C 501 478 496 467 488 458 C 479 449 468 445 456 445 C 454 445 451 445 449 445 C 447 445 445 445 443 446 C 429 449 419 453 412 457 C 405 461 398 465 391 470 C 384 475 375 480 365 486 C 355 491 340 497 320 503 C 317 491 315 478 313 462 C 311 446 310 430 310 414 C 310 403 310 392 312 382 C 313 371 315 360 318 349 C 305 331 293 309 281 281 C 269 253 257 221 246 185 C 234 149 223 109 212 66 C 201 22 190 -22 179 -69 L 136 -58 C 156 23 174 99 190 169 C 205 239 213 295 213 337 C 213 343 212 350 212 356 C 211 362 210 369 210 376 C 228 396 244 419 256 446 C 268 473 277 495 282 512 C 270 514 259 515 251 515 C 243 515 235 516 229 516 C 218 516 209 515 202 514 C 194 513 188 513 182 513 C 164 513 147 516 133 522 C 118 528 111 541 111 560 C 111 572 115 583 124 592 C 132 600 143 605 156 605 C 158 605 159 605 161 605 C 163 605 165 604 167 604 C 180 600 190 596 197 592 C 204 588 211 583 218 579 C 225 575 234 570 245 565 C 255 559 271 554 291 549 C 293 563 295 575 297 586 C 299 597 300 607 300 615 C 300 623 299 631 299 638 C 298 644 298 651 298 658 C 298 684 302 703 310 715 C 318 727 330 733 348 733 C 360 733 371 729 379 721 C 387 713 392 702 392 690 C 392 688 392 686 392 684 C 392 682 391 680 391 678 C 387 664 383 653 379 645 C 374 637 369 628 364 620 C 358 611 353 601 347 589 C 341 577 336 560 330 540 C 341 537 351 535 360 534 C 369 533 377 533 384 533 C 394 533 404 533 412 535 C 420 536 428 537 437 537 Z" unicode="" />
<glyph horiz-adv-x="470" d="M 437 537 C 451 537 466 533 480 527 C 494 520 501 508 501 491 C 501 478 496 467 488 458 C 479 449 468 445 456 445 C 454 445 451 445 449 445 C 447 445 445 445 443 446 C 428 448 416 453 407 460 C 398 467 388 474 376 481 C 367 485 358 489 348 493 C 338 497 329 500 320 503 C 314 481 311 459 309 436 C 307 412 306 390 306 368 C 306 359 306 350 306 342 C 306 334 308 326 310 318 C 301 309 293 298 285 284 C 277 270 269 255 263 240 C 256 224 250 209 244 193 C 238 177 234 164 230 152 C 238 150 247 149 256 149 C 265 148 274 148 283 148 C 291 148 298 148 306 149 C 314 150 322 151 330 151 C 346 151 361 148 377 142 C 393 136 401 124 401 104 C 401 91 396 80 388 72 C 379 63 368 59 356 59 C 354 59 352 59 350 59 C 348 59 347 59 345 60 C 331 62 320 67 310 74 C 300 81 289 88 277 94 C 268 98 259 102 249 106 C 239 109 230 112 221 115 C 218 104 216 93 214 82 C 212 70 212 59 212 49 C 212 42 212 35 213 27 C 213 19 214 12 214 6 C 214 -12 211 -29 205 -45 C 199 -61 186 -69 164 -69 C 151 -69 140 -65 132 -57 C 124 -49 120 -38 120 -26 C 120 -24 120 -22 120 -20 C 120 -18 120 -16 121 -14 C 124 0 129 12 137 24 C 144 36 151 48 158 61 C 163 71 168 81 172 92 C 176 102 179 113 182 124 C 173 126 164 127 155 129 C 145 130 136 131 128 131 C 119 131 110 130 101 129 C 92 127 83 127 75 127 C 60 127 46 130 32 137 C 18 143 11 155 11 173 C 11 185 15 196 24 205 C 32 214 43 219 56 219 C 58 219 60 219 62 219 C 64 219 67 218 69 218 C 83 215 95 210 104 203 C 113 196 124 189 136 183 C 144 178 153 174 163 170 C 173 166 182 163 192 161 C 197 182 201 204 203 228 C 205 251 206 274 206 296 C 206 304 205 312 205 320 C 205 328 204 337 202 345 C 210 354 219 366 227 380 C 235 394 242 408 249 424 C 256 439 262 454 268 470 C 273 486 278 500 282 512 C 273 513 264 514 255 515 C 246 515 237 516 229 516 C 221 516 213 515 205 514 C 197 513 190 513 182 513 C 166 513 150 515 134 521 C 118 527 111 540 111 560 C 111 572 115 583 124 592 C 132 600 143 605 156 605 C 158 605 159 605 161 605 C 163 605 165 604 167 604 C 180 601 192 596 202 589 C 212 582 223 576 235 570 C 243 565 252 561 262 558 C 272 554 281 551 291 549 C 293 559 295 570 297 582 C 299 593 300 604 300 615 C 300 621 299 628 299 636 C 298 644 298 651 298 658 C 298 676 300 693 306 709 C 312 725 326 733 348 733 C 360 733 371 729 379 721 C 387 713 392 702 392 690 C 392 688 392 686 392 684 C 392 682 391 680 391 678 C 387 664 382 651 375 639 C 367 627 360 615 354 603 C 348 593 344 582 340 572 C 336 561 332 550 330 540 C 338 538 347 536 357 535 C 366 533 375 533 384 533 C 392 533 401 533 410 535 C 419 536 428 537 437 537 Z" unicode="" />
<glyph horiz-adv-x="412" d="M 207 544 C 233 544 258 538 282 528 C 305 518 325 504 343 486 C 360 468 374 448 384 425 C 394 401 400 376 400 350 C 400 323 394 298 384 275 C 374 251 360 231 343 213 C 325 195 305 181 282 171 C 258 161 233 156 207 156 C 180 156 155 161 131 171 C 107 181 87 195 70 213 C 52 231 38 251 28 275 C 18 298 13 323 13 350 C 13 376 18 401 28 425 C 38 448 52 468 70 486 C 87 504 107 518 131 528 C 155 538 180 544 207 544 Z" unicode="" />
<glyph horiz-adv-x="818" d="M 652 131 C 671 131 687 124 701 111 C 714 97 721 81 721 63 C 721 44 714 28 701 14 C 687 0 671 -6 652 -6 C 633 -6 617 0 604 14 C 591 28 585 44 585 63 C 585 81 591 97 604 111 C 617 124 633 131 652 131 Z M 379 131 C 398 131 414 124 428 111 C 441 97 448 81 448 63 C 448 44 441 28 428 14 C 414 0 398 -6 379 -6 C 360 -6 344 0 331 14 C 318 28 312 44 312 63 C 312 81 318 97 331 111 C 344 124 360 131 379 131 Z M 106 131 C 125 131 141 124 155 111 C 168 97 175 81 175 63 C 175 44 168 28 155 14 C 141 0 125 -6 106 -6 C 87 -6 71 0 58 14 C 45 28 39 44 39 63 C 39 81 45 97 58 111 C 71 124 87 131 106 131 Z" unicode="" />
<glyph horiz-adv-x="1226" d="M 694 703 L 739 672 L 228 -36 L 166 12 L 599 565 L 596 567 C 591 563 583 558 573 550 C 562 542 549 535 533 527 C 517 519 498 511 476 505 C 454 498 430 494 403 492 C 392 436 368 392 331 358 C 293 324 252 307 208 307 C 170 307 137 321 109 351 C 81 380 67 418 67 465 C 67 492 72 519 82 547 C 92 575 107 599 125 621 C 143 642 164 659 189 673 C 214 687 241 694 270 694 C 309 694 341 678 366 648 C 391 617 404 580 406 536 C 444 540 478 549 508 561 C 538 573 565 588 589 604 C 613 620 633 636 651 654 C 668 672 682 688 694 703 Z M 322 537 C 322 541 323 545 323 550 C 323 554 323 559 323 563 C 323 593 318 615 308 630 C 298 644 283 652 264 652 C 253 652 244 649 236 643 C 228 637 224 629 224 617 C 224 601 231 585 247 569 C 262 553 287 542 322 537 Z M 209 356 C 237 356 260 369 278 396 C 296 423 308 456 315 494 C 281 500 252 512 228 529 C 204 546 191 570 188 602 C 175 574 166 545 160 514 C 154 482 152 454 152 428 C 152 403 157 385 168 373 C 178 361 192 356 209 356 Z M 1085 378 C 1125 378 1157 362 1183 331 C 1209 299 1222 262 1222 218 C 1222 187 1216 158 1205 131 C 1193 103 1178 79 1160 59 C 1142 38 1121 21 1097 9 C 1073 -2 1048 -9 1023 -9 C 985 -9 952 5 924 35 C 896 65 882 103 882 149 C 882 176 887 203 897 231 C 907 259 922 283 940 305 C 958 326 979 343 1004 357 C 1029 371 1056 378 1085 378 Z M 708 378 C 748 378 780 362 806 331 C 832 299 845 262 845 218 C 845 187 839 158 828 131 C 816 103 801 79 783 59 C 765 38 744 21 720 9 C 696 -2 671 -9 646 -9 C 608 -9 575 5 547 35 C 519 65 505 103 505 149 C 505 176 510 203 520 231 C 530 259 545 283 563 305 C 581 326 602 343 627 357 C 652 371 679 378 708 378 Z M 1024 37 C 1044 37 1061 44 1075 59 C 1089 74 1101 92 1110 114 C 1119 135 1126 158 1130 183 C 1134 207 1137 229 1137 249 C 1137 277 1132 297 1123 311 C 1113 325 1099 332 1080 332 C 1058 332 1040 323 1026 307 C 1011 290 999 270 991 247 C 982 223 976 199 972 173 C 968 147 967 125 967 107 C 967 83 972 66 983 54 C 993 42 1007 37 1024 37 Z M 647 37 C 667 37 684 44 698 59 C 712 74 724 92 733 114 C 742 135 749 158 753 183 C 757 207 760 229 760 249 C 760 277 755 297 746 311 C 736 325 722 332 703 332 C 681 332 663 323 649 307 C 634 290 622 270 614 247 C 605 223 599 199 595 173 C 591 147 590 125 590 107 C 590 83 595 66 606 54 C 616 42 630 37 647 37 Z" unicode="" />
<glyph horiz-adv-x="292" d="M 231 398 L 295 398 L 150 219 L 221 50 L 157 50 L 55 192 C 52 195 50 199 48 203 C 46 207 46 212 46 217 C 46 225 48 232 53 239 C 57 245 63 251 69 256 L 231 398 Z" unicode="" />
<glyph horiz-adv-x="292" d="M 242 256 C 244 252 246 248 248 244 C 250 240 251 235 251 231 C 251 223 248 215 244 209 C 239 202 234 196 229 192 L 67 50 L 3 50 L 148 229 L 76 398 L 140 398 L 242 256 Z" unicode="" />
<glyph horiz-adv-x="139" d="M 364 733 L 427 733 L -147 -10 L -210 -10 L 364 733 Z" unicode="" />
<glyph horiz-adv-x="559" d="M 458 694 C 485 694 508 690 527 684 C 546 678 562 670 574 660 C 586 650 594 638 599 626 C 604 614 606 602 606 590 C 605 571 598 556 586 544 C 573 532 558 526 542 526 C 523 526 509 531 500 542 C 490 553 486 567 487 584 C 487 589 488 596 490 606 C 492 615 494 622 496 628 C 492 629 486 631 478 635 C 470 638 455 640 433 640 C 411 640 390 634 370 623 C 350 612 331 597 313 578 C 295 558 280 536 266 510 C 252 484 242 456 234 426 L 454 426 L 444 378 L 221 378 C 218 364 215 352 213 342 C 210 332 208 319 206 305 L 399 305 L 390 257 L 201 257 C 200 248 199 239 199 231 C 199 223 199 215 199 207 C 199 163 210 128 231 100 C 251 72 284 58 329 58 C 361 58 392 66 421 82 C 449 98 478 124 507 160 L 535 122 C 508 80 474 48 433 25 C 391 2 348 -9 304 -9 C 236 -9 185 11 150 52 C 115 93 97 147 97 214 C 97 220 97 227 97 235 C 97 242 98 249 98 257 L 28 257 L 37 305 L 103 305 C 105 319 107 331 110 342 C 113 353 116 365 119 378 L 51 378 L 61 426 L 135 426 C 164 506 206 571 261 620 C 315 669 381 694 458 694 Z" unicode="" />
<glyph horiz-adv-x="489" d="M 512 730 L 519 519 L 482 519 L 475 671 L 420 519 L 398 519 L 344 671 L 336 519 L 300 519 L 311 730 L 366 730 L 410 596 L 455 730 L 512 730 Z M 277 730 L 277 695 L 220 695 L 220 519 L 180 519 L 180 696 L 124 696 L 124 730 L 277 730 Z" unicode="" />
</font>
</defs>
</svg>
