<?xml version="1.0" encoding="utf-8" ?><svg version="1.1" xmlns = 'http://www.w3.org/2000/svg'><defs><font id='web' horiz-adv-x="1000">
<font-face font-family="web" descent="-426" cap-height="1434" units-per-em="2048" bbox="-261,-455,2293,2013" x-height="1024" ascent="1622" />
<missing-glyph horiz-adv-x="555" d="" /><glyph horiz-adv-x="417" d="" unicode=" " />
<glyph horiz-adv-x="567" d="M 441 1311 C 441 1282 438 1250 432 1216 C 426 1182 420 1145 412 1107 C 404 1067 395 1026 387 982 C 378 938 371 893 366 846 C 361 807 357 774 354 748 C 351 721 349 694 347 668 C 344 641 342 611 340 579 C 338 546 337 505 335 455 C 335 448 330 443 321 439 C 311 435 299 434 284 434 C 269 434 257 435 247 439 C 237 443 232 448 232 455 C 230 503 229 544 228 577 C 226 609 225 639 223 667 C 220 693 217 720 214 747 C 210 774 206 807 202 846 C 196 893 188 938 180 982 C 171 1026 163 1067 155 1107 C 147 1145 140 1182 134 1216 C 128 1250 126 1282 126 1311 C 126 1337 128 1363 133 1388 C 138 1412 147 1434 160 1454 C 172 1473 188 1488 209 1500 C 229 1512 255 1518 286 1518 C 315 1518 340 1512 360 1500 C 380 1488 396 1473 408 1454 C 420 1434 428 1412 433 1388 C 438 1363 441 1337 441 1311 Z M 445 143 C 445 120 440 99 432 79 C 423 59 412 42 398 28 C 383 13 366 1 346 -7 C 326 -15 306 -20 284 -20 C 261 -20 240 -15 220 -7 C 200 1 183 13 169 28 C 153 42 141 59 133 79 C 124 99 120 120 120 143 C 120 165 124 185 133 205 C 141 225 153 242 169 257 C 183 271 200 283 220 292 C 240 300 261 305 284 305 C 306 305 326 300 346 292 C 366 283 383 271 398 257 C 412 242 423 225 432 205 C 440 185 445 165 445 143 Z" unicode="!" />
<glyph horiz-adv-x="864" d="M 755 1362 C 755 1344 751 1317 745 1283 C 739 1248 731 1208 723 1163 C 713 1117 704 1067 694 1013 C 684 959 675 904 667 848 C 665 842 661 836 653 830 C 645 824 634 821 619 821 C 605 821 594 824 586 830 C 578 836 573 842 572 848 C 564 904 554 959 544 1013 C 534 1067 524 1117 516 1163 C 506 1209 499 1249 493 1284 C 487 1318 484 1344 484 1362 C 484 1388 487 1411 495 1431 C 503 1450 513 1466 527 1479 C 539 1491 554 1501 571 1507 C 587 1513 604 1516 622 1516 C 639 1516 656 1513 672 1507 C 688 1501 702 1491 715 1479 C 727 1466 736 1450 744 1431 C 751 1411 755 1388 755 1362 Z M 380 1362 C 380 1344 377 1317 371 1283 C 365 1248 357 1208 349 1163 C 339 1117 329 1067 319 1013 C 309 959 300 904 292 848 C 290 842 286 836 279 830 C 271 824 260 821 245 821 C 230 821 219 824 211 830 C 203 836 199 842 198 848 C 190 904 180 959 170 1013 C 160 1067 150 1117 142 1163 C 132 1209 125 1249 119 1284 C 113 1318 110 1344 110 1362 C 110 1388 113 1411 121 1431 C 129 1450 139 1466 152 1479 C 164 1491 179 1501 196 1507 C 212 1513 229 1516 247 1516 C 264 1516 281 1513 297 1507 C 313 1501 327 1491 340 1479 C 352 1466 361 1450 369 1431 C 376 1411 380 1388 380 1362 Z" unicode="&#x22;" />
<glyph horiz-adv-x="1518" d="M 1359 1044 L 1324 838 L 1021 838 L 978 571 L 1289 571 L 1254 365 L 943 365 L 880 -18 L 759 -18 L 822 365 L 579 365 L 515 -18 L 394 -18 L 458 365 L 159 365 L 194 571 L 493 571 L 536 838 L 228 838 L 263 1044 L 570 1044 L 630 1403 L 751 1403 L 691 1044 L 935 1044 L 994 1403 L 1115 1403 L 1056 1044 L 1359 1044 Z M 900 838 L 656 838 L 613 571 L 857 571 L 900 838 Z" unicode="#" />
<glyph horiz-adv-x="1057" d="M 1002 406 C 1002 354 993 304 975 257 C 957 209 930 167 896 130 C 861 92 819 61 769 36 C 719 10 663 -5 601 -12 L 601 -279 L 499 -279 L 499 -18 C 417 -16 348 -4 290 15 C 232 35 185 61 149 93 C 112 123 85 158 68 197 C 50 235 42 274 42 313 C 42 341 46 365 55 385 C 64 405 76 423 91 437 C 105 450 121 460 139 467 C 157 473 176 477 196 477 C 218 477 238 473 255 465 C 272 457 286 448 298 436 C 309 423 317 408 323 392 C 328 376 331 359 331 342 C 331 318 325 295 314 272 C 302 248 283 225 257 203 C 271 193 287 183 303 174 C 319 165 337 157 357 150 C 376 142 397 136 421 132 C 444 128 470 125 499 125 L 499 590 C 465 605 430 621 396 639 C 361 656 330 673 304 690 C 241 729 192 778 157 836 C 122 894 105 960 105 1032 C 105 1082 114 1130 133 1174 C 151 1218 178 1256 213 1290 C 247 1322 288 1349 337 1370 C 385 1390 439 1403 499 1407 L 499 1516 L 601 1516 L 601 1407 C 663 1402 716 1390 760 1372 C 804 1353 841 1331 870 1305 C 898 1278 919 1249 933 1218 C 946 1187 953 1157 953 1128 C 953 1102 949 1081 942 1063 C 934 1045 925 1030 913 1019 C 900 1007 886 999 871 993 C 855 987 840 985 824 985 C 808 985 792 987 777 993 C 762 998 749 1006 738 1016 C 726 1026 716 1038 709 1053 C 702 1067 699 1084 699 1104 C 699 1129 704 1149 714 1164 C 724 1179 739 1194 761 1210 C 735 1227 710 1240 685 1248 C 660 1256 632 1262 601 1264 L 601 856 C 632 840 664 823 698 805 C 732 786 761 769 787 754 C 856 712 909 663 946 607 C 983 551 1002 484 1002 406 Z M 499 897 L 499 1264 C 469 1260 444 1252 423 1241 C 401 1230 384 1217 370 1203 C 356 1188 345 1172 339 1155 C 332 1137 329 1120 329 1104 C 329 1084 331 1065 337 1047 C 342 1029 351 1011 365 994 C 377 976 395 958 417 942 C 439 926 466 911 499 897 Z M 781 334 C 781 355 778 375 773 393 C 767 411 758 429 745 447 C 731 463 712 480 689 497 C 666 513 637 531 601 549 L 601 135 C 627 141 651 149 673 161 C 695 173 714 187 730 205 C 746 221 758 240 767 262 C 776 284 781 308 781 334 Z" unicode="$" />
<glyph horiz-adv-x="1563" d="M 1537 397 C 1537 336 1528 281 1510 231 C 1492 181 1467 138 1437 103 C 1406 67 1370 39 1329 19 C 1288 0 1245 -10 1199 -10 C 1153 -10 1109 0 1068 19 C 1027 39 991 67 961 103 C 930 138 906 181 888 231 C 870 281 861 336 861 397 C 861 457 869 513 887 563 C 905 613 929 657 960 693 C 990 728 1026 755 1067 775 C 1108 795 1152 805 1199 805 C 1245 805 1289 795 1330 775 C 1371 755 1407 728 1438 693 C 1468 657 1492 613 1510 563 C 1528 513 1537 457 1537 397 Z M 1269 1501 L 458 -20 L 331 -20 L 1142 1501 L 1269 1501 Z M 738 1081 C 738 1020 729 965 711 915 C 693 865 668 822 638 787 C 607 751 571 723 530 703 C 489 683 446 674 400 674 C 354 674 310 683 269 703 C 228 723 192 751 162 787 C 131 822 107 865 89 915 C 71 965 62 1020 62 1081 C 62 1141 70 1197 88 1247 C 106 1297 130 1341 161 1377 C 191 1412 227 1439 268 1459 C 309 1479 353 1489 400 1489 C 446 1489 490 1479 531 1459 C 572 1439 608 1412 639 1377 C 669 1341 693 1297 711 1247 C 729 1197 738 1141 738 1081 Z M 1330 397 C 1330 451 1327 496 1321 534 C 1315 572 1306 603 1295 627 C 1283 650 1270 667 1254 678 C 1238 688 1219 694 1199 694 C 1178 694 1160 688 1144 678 C 1128 667 1114 650 1103 627 C 1091 603 1083 572 1077 534 C 1071 496 1068 451 1068 397 C 1068 343 1071 297 1077 259 C 1083 221 1091 191 1103 168 C 1114 144 1128 126 1144 116 C 1160 105 1178 100 1199 100 C 1219 100 1237 105 1253 116 C 1269 126 1283 143 1295 167 C 1306 190 1315 221 1321 259 C 1327 297 1330 343 1330 397 Z M 531 1081 C 531 1135 528 1180 522 1218 C 516 1256 507 1287 496 1311 C 484 1334 471 1351 455 1362 C 439 1372 420 1378 400 1378 C 379 1378 361 1372 345 1362 C 329 1351 315 1334 304 1311 C 292 1287 284 1256 278 1218 C 272 1180 269 1135 269 1081 C 269 1027 272 981 278 943 C 284 905 292 875 304 852 C 315 828 329 810 345 800 C 361 789 379 784 400 784 C 420 784 438 789 454 800 C 470 810 484 827 496 851 C 507 874 516 905 522 943 C 528 981 531 1027 531 1081 Z" unicode="%" />
<glyph horiz-adv-x="1618" d="M 1613 86 C 1593 70 1571 55 1549 43 C 1526 30 1501 19 1474 11 C 1446 1 1415 -5 1381 -10 C 1347 -15 1309 -18 1267 -18 C 1204 -18 1145 -5 1089 19 C 1033 43 980 77 931 121 C 875 79 814 46 750 20 C 685 -5 616 -18 544 -18 C 464 -18 393 -7 332 14 C 270 36 219 66 178 104 C 136 142 105 186 84 238 C 62 290 52 346 52 406 C 52 460 61 510 81 556 C 101 602 129 644 165 684 C 201 722 243 758 293 791 C 343 824 398 855 458 883 C 438 937 423 987 413 1033 C 403 1079 398 1123 398 1167 C 398 1213 407 1258 425 1300 C 443 1342 470 1380 506 1412 C 540 1444 582 1469 632 1488 C 682 1506 738 1516 802 1516 C 861 1516 912 1507 954 1489 C 996 1471 1031 1447 1059 1419 C 1086 1390 1106 1358 1119 1323 C 1131 1287 1138 1253 1138 1219 C 1138 1187 1133 1156 1123 1128 C 1113 1100 1096 1072 1070 1044 C 1044 1015 1007 986 961 957 C 915 927 855 896 781 862 C 795 832 811 799 827 765 C 843 730 862 692 884 651 C 906 607 930 564 955 522 C 980 480 1005 442 1031 406 C 1047 426 1063 445 1077 465 C 1091 485 1104 504 1114 523 C 1124 541 1131 557 1137 573 C 1143 589 1146 602 1146 614 C 1146 622 1145 629 1143 636 C 1141 642 1138 649 1134 655 C 1128 661 1121 666 1113 672 C 1104 678 1093 684 1080 692 C 1066 699 1055 705 1047 711 C 1039 717 1032 722 1028 728 C 1022 733 1019 738 1017 744 C 1015 749 1015 755 1015 762 L 1015 829 L 1541 829 L 1541 770 C 1541 762 1540 755 1538 750 C 1536 744 1533 739 1528 735 C 1522 729 1513 723 1502 717 C 1490 711 1475 702 1457 692 C 1432 678 1412 667 1397 658 C 1382 648 1369 639 1359 629 C 1347 618 1337 606 1327 592 C 1317 578 1306 561 1293 541 C 1287 531 1278 517 1268 501 C 1258 484 1246 465 1232 444 C 1217 422 1200 398 1181 373 C 1162 348 1141 323 1119 297 C 1160 253 1202 218 1245 193 C 1287 168 1331 156 1375 156 C 1404 156 1433 160 1461 169 C 1489 178 1515 189 1541 203 L 1613 86 Z M 820 231 C 785 274 752 319 721 367 C 689 415 660 464 632 516 C 610 557 590 596 572 633 C 553 670 536 706 521 741 C 456 703 409 665 380 627 C 351 589 337 544 337 492 C 337 450 343 411 356 373 C 369 335 388 302 414 274 C 438 245 469 222 506 205 C 543 188 586 180 634 180 C 664 180 695 184 727 194 C 759 203 790 215 820 231 Z M 916 1223 C 916 1246 912 1267 905 1285 C 898 1303 889 1318 878 1331 C 866 1343 853 1352 837 1358 C 821 1364 805 1368 789 1368 C 770 1368 753 1364 737 1357 C 721 1350 707 1341 696 1329 C 684 1316 674 1301 668 1283 C 661 1265 658 1245 658 1223 C 658 1195 662 1163 672 1128 C 681 1093 697 1049 720 997 C 761 1019 794 1040 820 1060 C 846 1080 866 1099 880 1118 C 894 1136 903 1153 908 1171 C 913 1188 916 1205 916 1223 Z" unicode="&#x26;" />
<glyph horiz-adv-x="489" d="M 380 1362 C 380 1344 377 1317 371 1283 C 365 1248 357 1208 349 1163 C 339 1117 329 1067 319 1013 C 309 959 300 904 292 848 C 290 842 286 836 279 830 C 271 824 260 821 245 821 C 230 821 219 824 211 830 C 203 836 199 842 198 848 C 190 904 180 959 170 1013 C 160 1067 150 1117 142 1163 C 132 1209 125 1249 119 1284 C 113 1318 110 1344 110 1362 C 110 1388 113 1411 121 1431 C 129 1450 139 1466 152 1479 C 164 1491 179 1501 196 1507 C 212 1513 229 1516 247 1516 C 264 1516 281 1513 297 1507 C 313 1501 327 1491 340 1479 C 352 1466 361 1450 369 1431 C 376 1411 380 1388 380 1362 Z" unicode="'" />
<glyph horiz-adv-x="711" d="M 654 -330 L 593 -383 C 523 -329 457 -268 397 -200 C 337 -132 284 -58 240 22 C 194 102 159 187 133 279 C 107 370 95 466 95 567 C 95 664 107 758 132 848 C 157 938 192 1023 237 1104 C 281 1184 334 1258 395 1328 C 455 1398 521 1461 593 1518 L 654 1462 C 610 1413 571 1357 535 1293 C 499 1229 469 1159 443 1083 C 417 1006 396 924 382 838 C 368 751 361 661 361 567 C 361 472 368 382 382 296 C 396 210 417 129 443 54 C 468 -21 499 -91 535 -155 C 571 -219 610 -278 654 -330 Z" unicode="(" />
<glyph horiz-adv-x="711" d="M 615 567 C 615 466 602 370 576 279 C 550 187 515 102 471 22 C 426 -58 373 -132 313 -200 C 252 -268 187 -329 118 -383 L 56 -330 C 99 -278 139 -219 175 -155 C 211 -91 242 -21 268 54 C 293 129 313 210 327 296 C 341 382 349 472 349 567 C 349 661 341 751 327 838 C 313 924 293 1006 267 1083 C 241 1159 210 1229 174 1293 C 138 1357 98 1413 56 1462 L 118 1518 C 188 1461 254 1398 315 1328 C 375 1258 428 1184 473 1104 C 517 1023 552 938 577 848 C 602 758 615 664 615 567 Z" unicode=")" />
<glyph horiz-adv-x="1128" d="M 962 895 C 962 886 960 876 957 866 C 953 855 948 845 941 837 C 933 827 922 820 909 814 C 895 808 879 805 859 805 C 853 805 846 805 838 806 C 829 806 820 809 810 813 C 799 817 788 823 776 831 C 764 839 754 850 744 864 C 727 887 713 906 703 920 C 693 934 683 947 675 957 C 665 966 655 974 645 982 C 634 990 620 999 603 1010 C 603 986 604 963 606 939 C 608 915 614 891 626 868 C 636 846 643 829 649 816 C 655 803 659 792 663 784 C 665 774 667 766 668 759 C 668 752 669 744 669 735 C 669 721 666 707 661 694 C 656 680 649 669 641 659 C 631 648 620 639 608 633 C 596 626 582 623 568 623 C 556 623 544 625 532 631 C 520 636 509 643 500 653 C 490 662 481 673 475 687 C 469 701 466 716 466 733 C 466 742 466 751 468 760 C 470 768 473 778 477 789 C 480 799 485 810 491 824 C 497 837 504 853 513 872 C 525 898 533 923 535 949 C 537 974 538 994 538 1010 C 527 1007 517 1004 508 1001 C 499 997 490 993 482 987 C 472 981 463 973 454 963 C 444 953 434 940 423 924 C 411 907 399 891 389 877 C 378 863 367 850 356 840 C 344 829 331 820 317 814 C 303 808 287 805 269 805 C 255 805 241 807 229 812 C 217 816 206 823 197 832 C 187 840 180 850 175 862 C 169 874 167 887 167 901 C 167 910 168 921 172 933 C 176 945 182 956 192 968 C 200 979 212 989 227 998 C 242 1006 261 1012 284 1016 C 313 1020 337 1024 355 1027 C 373 1029 390 1032 405 1036 C 419 1038 434 1042 449 1047 C 463 1052 482 1059 505 1069 C 482 1077 463 1084 449 1089 C 434 1094 419 1099 405 1103 C 390 1106 373 1109 355 1112 C 336 1114 312 1118 282 1122 C 262 1125 244 1131 230 1139 C 216 1147 204 1156 195 1167 C 185 1177 177 1189 173 1201 C 169 1213 167 1225 167 1237 C 167 1251 169 1264 175 1276 C 180 1288 187 1298 197 1307 C 206 1315 217 1321 229 1326 C 241 1330 255 1333 269 1333 C 287 1333 303 1330 317 1324 C 331 1318 344 1309 356 1299 C 367 1288 378 1275 389 1261 C 399 1246 411 1230 423 1214 C 434 1198 444 1185 454 1175 C 463 1165 472 1157 482 1151 C 490 1145 499 1140 508 1137 C 517 1133 527 1130 538 1128 C 538 1134 537 1142 537 1153 C 537 1163 536 1175 535 1188 C 533 1200 531 1213 527 1227 C 523 1241 519 1254 513 1266 C 503 1286 495 1303 489 1317 C 483 1331 478 1343 475 1353 C 471 1363 469 1372 468 1380 C 466 1388 466 1397 466 1407 C 466 1421 468 1435 474 1449 C 480 1462 488 1474 498 1484 C 507 1494 518 1501 530 1507 C 542 1513 556 1516 570 1516 C 582 1516 595 1513 607 1507 C 619 1501 629 1492 639 1482 C 648 1471 655 1459 661 1445 C 666 1431 669 1417 669 1401 C 669 1392 668 1384 668 1378 C 667 1371 665 1363 663 1355 C 659 1345 655 1334 649 1321 C 643 1308 636 1291 626 1270 C 614 1246 608 1223 606 1199 C 604 1175 603 1152 603 1128 C 620 1138 634 1147 645 1155 C 655 1163 665 1171 675 1181 C 683 1190 693 1202 703 1216 C 713 1230 727 1250 744 1274 C 756 1290 772 1304 790 1316 C 808 1327 831 1333 859 1333 C 878 1333 894 1330 908 1324 C 921 1318 932 1310 940 1302 C 948 1292 953 1282 957 1272 C 960 1262 962 1252 962 1243 C 962 1227 958 1212 952 1198 C 946 1184 937 1171 927 1161 C 916 1150 904 1141 890 1135 C 876 1128 863 1124 849 1124 C 824 1122 802 1121 783 1119 C 763 1117 745 1115 729 1112 C 711 1108 695 1103 679 1097 C 663 1090 648 1081 632 1069 C 648 1057 663 1047 679 1041 C 695 1034 711 1029 729 1026 C 745 1022 763 1020 783 1018 C 803 1016 825 1015 849 1014 C 863 1012 876 1009 890 1003 C 903 997 915 989 926 979 C 936 968 945 955 952 941 C 958 927 962 911 962 895 Z" unicode="*" />
<glyph horiz-adv-x="1518" d="M 1308 512 L 847 512 L 847 51 L 673 51 L 673 512 L 212 512 L 212 686 L 673 686 L 673 1147 L 847 1147 L 847 686 L 1308 686 L 1308 512 Z" unicode="+" />
<glyph horiz-adv-x="555" d="M 439 109 C 439 59 431 13 415 -29 C 399 -72 377 -112 351 -149 C 324 -185 293 -219 257 -249 C 221 -279 184 -305 146 -328 L 95 -258 C 125 -233 150 -208 170 -184 C 190 -160 206 -137 220 -116 C 232 -94 242 -75 248 -57 C 254 -39 259 -25 261 -14 C 249 -10 236 -5 220 0 C 204 6 188 16 174 28 C 158 39 145 54 135 73 C 125 91 120 115 120 143 C 120 167 124 188 133 208 C 142 228 154 245 169 260 C 183 274 199 285 218 293 C 236 301 255 305 275 305 C 325 305 364 287 394 253 C 424 218 439 170 439 109 Z" unicode="," />
<glyph horiz-adv-x="596" d="M 513 328 L 83 328 L 83 565 L 513 565 L 513 328 Z" unicode="-" />
<glyph horiz-adv-x="555" d="M 441 143 C 441 120 436 99 428 79 C 419 59 408 42 394 28 C 379 13 362 1 342 -7 C 322 -15 302 -20 280 -20 C 257 -20 236 -15 216 -7 C 196 1 178 13 164 28 C 149 42 137 59 129 79 C 120 99 116 120 116 143 C 116 165 120 185 129 205 C 137 225 149 242 164 257 C 178 271 196 283 216 292 C 236 300 257 305 280 305 C 302 305 322 300 342 292 C 362 283 379 271 394 257 C 408 242 419 225 428 205 C 436 185 441 165 441 143 Z" unicode="." />
<glyph horiz-adv-x="846" d="M 822 1495 L 91 -389 L -89 -389 L 640 1495 L 822 1495 Z" unicode="/" />
<glyph horiz-adv-x="1114" d="M 1060 700 C 1060 592 1047 494 1022 406 C 996 318 961 242 917 180 C 871 116 818 67 756 32 C 694 -2 628 -20 556 -20 C 484 -20 417 -2 356 32 C 295 67 242 116 198 180 C 152 242 117 318 92 406 C 66 494 54 592 54 700 C 54 806 66 904 92 993 C 117 1081 152 1157 198 1221 C 242 1284 295 1333 356 1368 C 417 1403 484 1421 556 1421 C 628 1421 694 1403 756 1368 C 818 1333 871 1284 917 1221 C 961 1157 996 1081 1022 993 C 1047 904 1060 806 1060 700 Z M 767 700 C 767 801 762 887 753 959 C 743 1030 730 1088 712 1134 C 694 1178 672 1211 646 1231 C 620 1251 590 1262 556 1262 C 522 1262 492 1251 466 1231 C 440 1211 418 1178 401 1134 C 383 1088 369 1030 360 959 C 351 887 347 801 347 700 C 347 598 351 512 360 441 C 369 370 383 312 401 268 C 418 222 440 189 466 169 C 492 149 522 139 556 139 C 590 139 620 149 646 169 C 672 189 694 222 712 268 C 730 312 743 370 753 441 C 762 512 767 598 767 700 Z" unicode="0" />
<glyph horiz-adv-x="737" d="M 703 0 L 101 0 L 101 66 C 101 78 103 89 109 99 C 115 109 131 119 157 129 C 177 137 195 145 209 151 C 223 157 235 164 244 171 C 252 177 257 185 261 195 C 265 204 267 216 267 231 L 267 1178 L 38 1178 L 38 1251 C 38 1262 41 1272 47 1282 C 53 1291 66 1299 85 1307 L 349 1407 L 540 1407 L 540 231 C 540 216 541 204 545 195 C 548 185 554 177 563 171 C 571 164 581 157 595 151 C 609 145 626 137 648 129 C 660 123 670 118 678 114 C 685 109 691 104 695 99 C 698 93 700 88 701 83 C 702 77 703 72 703 66 L 703 0 Z" unicode="1" />
<glyph horiz-adv-x="983" d="M 925 391 L 910 0 L 21 0 L 21 193 C 41 219 62 244 83 270 C 103 296 128 325 156 357 C 183 389 215 425 253 466 C 290 507 336 556 390 612 C 444 668 486 718 518 760 C 549 802 573 841 590 876 C 606 910 616 941 621 970 C 625 999 628 1029 628 1059 C 628 1129 610 1182 574 1220 C 538 1257 491 1276 431 1276 C 406 1276 380 1271 353 1262 C 325 1253 300 1240 277 1223 C 300 1206 317 1186 328 1163 C 339 1139 345 1115 345 1090 C 345 1072 342 1054 336 1037 C 330 1019 321 1004 309 991 C 297 977 282 966 264 958 C 246 950 225 946 202 946 C 176 946 153 950 133 959 C 113 967 97 979 84 994 C 70 1008 60 1025 54 1045 C 47 1065 44 1086 44 1108 C 44 1144 52 1180 70 1217 C 87 1254 113 1288 149 1318 C 183 1348 227 1372 280 1392 C 332 1411 394 1421 466 1421 C 536 1421 599 1412 655 1395 C 711 1377 760 1353 800 1323 C 839 1291 869 1254 891 1210 C 912 1166 923 1119 923 1067 C 923 1020 917 977 906 939 C 894 901 876 863 850 825 C 824 786 790 745 748 703 C 706 661 654 613 593 559 C 559 528 527 500 499 475 C 470 450 443 426 417 403 C 391 379 365 355 340 331 C 315 307 289 280 261 250 L 675 250 C 701 250 724 253 742 261 C 760 269 775 279 787 292 C 799 304 808 319 816 336 C 823 353 829 371 835 391 L 925 391 Z" unicode="2" />
<glyph horiz-adv-x="995" d="M 955 393 C 955 339 942 287 918 237 C 894 187 859 144 813 106 C 767 68 710 37 644 14 C 578 -8 503 -20 419 -20 C 363 -20 309 -13 259 0 C 208 13 164 32 126 56 C 87 79 56 107 34 139 C 12 171 1 207 1 246 C 1 272 5 296 14 317 C 22 338 34 356 49 371 C 63 385 80 395 99 403 C 117 410 137 414 157 414 C 177 414 197 410 215 402 C 233 394 248 384 262 372 C 275 358 285 343 293 326 C 300 308 304 290 304 270 C 304 254 302 239 298 223 C 294 207 285 190 273 172 C 291 156 312 145 335 137 C 357 129 381 125 407 125 C 447 125 482 131 514 145 C 546 159 573 178 595 204 C 617 228 633 258 645 293 C 657 327 663 366 663 408 C 663 446 657 483 646 517 C 635 551 618 582 594 608 C 569 633 537 653 499 669 C 460 684 413 692 359 694 C 351 694 345 694 340 696 C 335 697 333 701 333 709 L 333 825 C 333 831 335 835 340 837 C 345 839 351 840 359 842 C 401 844 439 852 473 865 C 506 878 534 895 558 917 C 581 937 599 962 611 990 C 623 1018 630 1048 630 1081 C 630 1115 624 1145 614 1170 C 603 1194 589 1215 571 1231 C 552 1246 531 1257 507 1265 C 483 1272 457 1276 431 1276 C 411 1276 391 1271 371 1262 C 351 1253 333 1243 318 1231 C 322 1218 326 1207 328 1197 C 330 1187 331 1177 331 1167 C 331 1147 327 1130 319 1114 C 311 1098 301 1085 289 1074 C 275 1062 260 1053 244 1047 C 228 1041 211 1038 194 1038 C 176 1038 159 1041 142 1047 C 125 1053 110 1063 98 1075 C 84 1087 74 1101 66 1119 C 58 1137 54 1157 54 1180 C 54 1212 63 1242 81 1271 C 99 1300 126 1326 160 1348 C 194 1370 235 1387 283 1401 C 331 1414 385 1421 445 1421 C 518 1421 583 1413 640 1399 C 696 1384 744 1363 784 1337 C 822 1309 852 1276 872 1238 C 892 1200 902 1157 902 1110 C 902 1074 894 1038 880 1003 C 865 967 844 935 817 906 C 789 876 755 850 715 828 C 675 806 631 792 581 784 L 581 776 C 647 768 704 752 752 728 C 799 704 838 675 868 641 C 898 606 920 567 934 525 C 948 482 955 438 955 393 Z" unicode="3" />
<glyph horiz-adv-x="1106" d="M 1068 362 L 861 362 L 861 240 C 861 224 862 212 864 202 C 866 192 869 184 874 177 C 878 169 885 162 893 156 C 901 150 911 143 923 135 C 942 121 955 110 962 102 C 968 94 972 84 972 72 L 972 0 L 480 0 L 480 72 C 480 78 480 83 481 87 C 482 91 485 96 489 101 C 492 105 497 110 503 115 C 509 120 518 127 529 135 C 541 143 552 151 560 157 C 568 163 574 170 580 178 C 584 185 588 193 590 203 C 592 212 593 224 593 240 L 593 362 L 24 362 L 24 522 L 658 1409 L 861 1409 L 861 526 L 1068 526 L 1068 362 Z M 593 526 L 593 1053 L 214 526 L 593 526 Z" unicode="4" />
<glyph horiz-adv-x="1003" d="M 964 451 C 964 377 949 311 921 253 C 893 195 855 146 807 106 C 759 65 703 34 639 12 C 575 -9 509 -20 439 -20 C 377 -20 320 -12 268 2 C 216 16 172 37 136 63 C 98 89 69 120 49 156 C 29 192 19 231 19 274 C 19 294 23 314 31 333 C 39 351 50 368 64 383 C 78 397 94 408 113 417 C 131 425 151 430 173 430 C 197 430 219 425 238 417 C 257 408 273 397 286 384 C 298 370 307 354 313 337 C 319 319 323 302 323 285 C 323 265 319 247 313 229 C 306 211 296 193 282 176 C 305 158 328 145 350 137 C 372 129 396 125 423 125 C 467 125 504 134 536 152 C 568 170 594 194 614 224 C 634 253 648 286 658 324 C 668 361 673 399 673 438 C 673 474 668 509 658 541 C 648 573 634 602 614 627 C 593 651 567 670 536 684 C 504 698 467 705 425 705 C 400 705 377 702 355 696 C 333 690 313 683 295 675 C 276 666 259 656 244 646 C 229 636 216 626 206 618 L 97 676 L 134 1397 L 687 1397 C 705 1397 721 1398 733 1400 C 745 1402 755 1407 763 1413 C 770 1419 776 1427 781 1438 C 785 1449 790 1463 794 1481 C 794 1482 794 1484 796 1486 C 798 1488 800 1489 802 1489 L 880 1489 L 863 1151 L 273 1151 L 255 786 C 298 821 343 846 391 862 C 439 877 490 885 544 885 C 604 885 660 874 712 853 C 763 832 807 803 845 765 C 882 727 911 681 932 628 C 953 574 964 515 964 451 Z" unicode="5" />
<glyph horiz-adv-x="1065" d="M 1021 463 C 1021 397 1009 335 987 277 C 965 218 934 167 894 123 C 854 79 806 44 750 18 C 694 -7 632 -20 564 -20 C 480 -20 407 -2 344 33 C 281 68 228 116 186 178 C 142 238 110 309 88 391 C 66 472 56 559 56 651 C 56 779 73 892 109 988 C 144 1084 191 1165 249 1229 C 306 1293 371 1341 444 1373 C 517 1405 591 1421 667 1421 C 720 1421 766 1414 805 1401 C 844 1387 877 1370 903 1349 C 928 1327 947 1302 959 1274 C 971 1246 978 1218 978 1190 C 978 1166 974 1144 967 1124 C 959 1104 949 1088 936 1074 C 922 1060 906 1049 888 1041 C 869 1033 848 1030 826 1030 C 804 1030 785 1033 767 1041 C 749 1049 733 1059 721 1073 C 707 1085 697 1100 690 1118 C 682 1136 679 1154 679 1174 C 679 1190 681 1204 685 1216 C 689 1228 695 1244 703 1264 C 689 1270 677 1273 669 1274 C 661 1275 651 1276 640 1276 C 619 1276 597 1273 574 1268 C 551 1262 529 1252 507 1238 C 485 1222 464 1202 444 1176 C 424 1150 407 1116 393 1076 C 377 1034 365 984 356 926 C 347 867 343 798 343 719 C 359 737 377 756 397 774 C 417 792 439 809 464 824 C 488 838 516 850 546 859 C 576 867 610 872 646 872 C 703 872 755 861 801 840 C 847 818 887 789 920 753 C 952 715 976 672 994 622 C 1012 572 1021 519 1021 463 Z M 734 438 C 734 482 729 519 720 551 C 710 583 698 609 682 630 C 666 650 647 665 625 675 C 603 685 579 690 554 690 C 532 690 511 686 491 679 C 471 672 452 663 435 653 C 417 641 400 629 385 615 C 370 601 357 588 345 575 L 345 500 C 345 382 362 292 396 231 C 430 169 481 139 548 139 C 574 139 599 144 622 155 C 644 165 664 183 681 207 C 697 231 710 262 720 300 C 729 338 734 384 734 438 Z" unicode="6" />
<glyph horiz-adv-x="952" d="M 937 1245 C 875 1145 820 1049 774 958 C 727 866 688 778 658 692 C 626 605 603 519 587 435 C 571 350 564 264 564 178 C 564 146 559 117 551 93 C 542 69 530 48 516 32 C 500 14 483 1 463 -7 C 443 -15 422 -20 400 -20 C 377 -20 356 -16 336 -8 C 316 0 299 10 285 25 C 270 39 258 56 250 78 C 241 99 237 124 237 152 C 237 188 244 231 259 280 C 273 328 293 381 319 437 C 344 492 373 550 407 611 C 441 671 477 732 516 794 C 554 855 593 916 633 976 C 673 1036 713 1093 753 1147 L 318 1147 C 290 1147 266 1145 246 1141 C 226 1137 208 1131 193 1121 C 177 1111 164 1097 152 1079 C 140 1061 129 1039 118 1012 L 36 1020 L 54 1407 C 108 1403 163 1401 219 1399 C 275 1397 330 1397 384 1397 L 937 1397 L 937 1245 Z" unicode="7" />
<glyph horiz-adv-x="1083" d="M 1048 406 C 1048 346 1034 290 1008 238 C 981 186 944 140 898 102 C 850 63 795 32 731 10 C 667 -11 599 -23 525 -23 C 440 -23 367 -12 306 8 C 244 28 194 56 154 90 C 114 123 84 161 65 204 C 45 247 36 291 36 336 C 36 378 43 417 59 453 C 74 489 95 521 121 551 C 146 580 175 606 209 628 C 243 650 278 669 316 684 C 274 713 240 742 214 771 C 187 799 166 828 151 857 C 135 885 125 914 119 944 C 113 973 110 1003 110 1034 C 110 1084 121 1132 143 1179 C 165 1226 195 1268 235 1304 C 274 1340 321 1368 375 1390 C 429 1412 489 1423 554 1423 C 614 1423 670 1416 721 1402 C 772 1388 816 1367 854 1341 C 890 1314 919 1281 939 1243 C 959 1204 970 1160 970 1112 C 970 1049 949 991 908 939 C 867 886 800 841 708 805 C 820 761 905 707 962 643 C 1019 579 1048 500 1048 406 Z M 744 1081 C 744 1107 738 1132 728 1154 C 718 1176 704 1196 687 1212 C 669 1228 648 1240 624 1249 C 600 1257 574 1262 548 1262 C 518 1262 491 1258 466 1250 C 440 1242 418 1230 400 1216 C 380 1201 365 1183 355 1163 C 344 1143 339 1120 339 1096 C 339 1072 344 1050 354 1030 C 364 1009 380 989 402 970 C 424 950 452 930 486 911 C 520 892 562 873 611 854 C 636 868 657 885 674 903 C 691 921 705 941 716 961 C 726 981 733 1001 737 1021 C 741 1041 744 1061 744 1081 Z M 792 334 C 792 370 779 406 755 440 C 731 474 689 504 630 530 C 592 546 554 563 516 580 C 478 596 445 611 417 625 C 393 611 373 595 355 575 C 337 555 322 534 310 512 C 297 488 287 464 281 439 C 274 414 271 390 271 367 C 271 332 277 300 291 272 C 304 244 323 220 347 200 C 370 180 398 164 431 153 C 464 142 500 137 540 137 C 580 137 615 142 646 152 C 677 162 704 177 726 195 C 747 213 763 234 775 258 C 786 282 792 307 792 334 Z" unicode="8" />
<glyph horiz-adv-x="1065" d="M 1009 748 C 1009 662 1001 583 985 511 C 969 439 946 375 918 319 C 889 262 855 212 817 170 C 778 127 736 92 691 64 C 645 36 598 15 548 1 C 498 -13 448 -20 398 -20 C 343 -20 296 -13 256 0 C 216 13 184 31 159 53 C 133 75 113 99 101 127 C 89 155 83 183 83 211 C 83 235 86 256 94 276 C 101 296 111 313 125 327 C 138 341 154 351 172 359 C 190 367 211 371 234 371 C 255 371 275 367 293 359 C 311 351 327 340 341 327 C 353 313 363 298 371 280 C 378 262 382 244 382 225 C 382 211 380 198 378 186 C 375 173 369 157 361 139 C 371 133 383 129 395 127 C 407 125 415 125 421 125 C 442 125 464 127 487 133 C 510 139 533 149 556 165 C 578 179 599 200 619 226 C 639 252 656 286 672 328 C 687 369 699 419 708 477 C 717 535 722 603 722 682 C 706 662 688 643 668 625 C 648 607 625 590 601 576 C 576 560 548 548 518 539 C 488 530 455 526 419 526 C 360 526 307 536 261 558 C 215 580 176 609 144 647 C 111 684 86 728 69 778 C 52 828 44 881 44 938 C 44 1003 55 1065 78 1124 C 101 1182 133 1234 175 1278 C 216 1322 265 1356 322 1382 C 379 1408 442 1421 511 1421 C 593 1421 666 1403 728 1368 C 790 1332 842 1284 884 1224 C 925 1162 956 1091 977 1009 C 998 927 1009 840 1009 748 Z M 720 825 L 720 907 C 720 1023 702 1112 668 1172 C 633 1232 583 1262 517 1262 C 490 1262 465 1256 443 1246 C 420 1235 400 1218 384 1194 C 367 1170 354 1138 345 1100 C 335 1062 331 1015 331 961 C 331 917 335 879 345 848 C 354 816 367 791 383 771 C 399 750 418 735 440 725 C 462 715 485 711 511 711 C 533 711 554 714 574 721 C 594 727 613 736 631 748 C 648 758 664 770 679 784 C 694 797 708 811 720 825 Z" unicode="9" />
<glyph horiz-adv-x="604" d="M 466 725 C 466 702 461 681 453 661 C 444 641 432 624 418 610 C 403 594 386 582 366 574 C 346 565 326 561 304 561 C 281 561 260 565 240 574 C 220 582 203 594 189 610 C 173 624 161 641 153 661 C 144 681 140 702 140 725 C 140 747 144 767 153 787 C 161 807 173 824 189 839 C 203 853 220 865 240 874 C 260 882 281 887 304 887 C 326 887 346 882 366 874 C 386 865 403 853 418 839 C 432 824 444 807 453 787 C 461 767 466 747 466 725 Z M 466 143 C 466 120 461 99 453 79 C 444 59 432 42 418 28 C 403 13 386 1 366 -7 C 346 -15 326 -20 304 -20 C 281 -20 260 -15 240 -7 C 220 1 203 13 189 28 C 173 42 161 59 153 79 C 144 99 140 120 140 143 C 140 165 144 185 153 205 C 161 225 173 242 189 257 C 203 271 220 283 240 292 C 260 300 281 305 304 305 C 326 305 346 300 366 292 C 386 283 403 271 418 257 C 432 242 444 225 453 205 C 461 185 466 165 466 143 Z" unicode=":" />
<glyph horiz-adv-x="604" d="M 466 725 C 466 702 461 681 453 661 C 444 641 432 624 418 610 C 403 594 386 582 366 574 C 346 565 326 561 304 561 C 281 561 260 565 240 574 C 220 582 203 594 189 610 C 173 624 161 641 153 661 C 144 681 140 702 140 725 C 140 747 144 767 153 787 C 161 807 173 824 189 839 C 203 853 220 865 240 874 C 260 882 281 887 304 887 C 326 887 346 882 366 874 C 386 865 403 853 418 839 C 432 824 444 807 453 787 C 461 767 466 747 466 725 Z M 466 109 C 466 59 458 13 442 -29 C 426 -72 404 -112 378 -149 C 351 -185 320 -219 284 -249 C 248 -279 211 -305 173 -328 L 122 -258 C 152 -233 177 -208 197 -184 C 217 -160 233 -137 247 -116 C 259 -94 269 -75 275 -57 C 281 -39 286 -25 288 -14 C 276 -10 263 -5 247 0 C 231 6 215 16 201 28 C 185 39 172 54 162 73 C 151 91 146 115 146 143 C 146 167 150 188 159 208 C 168 228 180 245 195 260 C 209 274 226 285 245 293 C 263 301 282 305 302 305 C 351 305 391 287 421 253 C 451 218 466 170 466 109 Z" unicode=";" />
<glyph horiz-adv-x="1518" d="M 1256 39 L 220 522 L 220 674 L 1256 1157 L 1256 963 L 435 598 L 1256 233 L 1256 39 Z" unicode="&#x3C;" />
<glyph horiz-adv-x="1518" d="M 1287 700 L 232 700 L 232 874 L 1287 874 L 1287 700 Z M 1287 324 L 232 324 L 232 498 L 1287 498 L 1287 324 Z" unicode="=" />
<glyph horiz-adv-x="1518" d="M 1297 522 L 261 39 L 261 233 L 1082 598 L 261 963 L 261 1157 L 1297 674 L 1297 522 Z" unicode="&#x3E;" />
<glyph horiz-adv-x="895" d="M 820 1200 C 820 1166 815 1136 807 1108 C 799 1080 787 1052 773 1026 C 757 999 739 972 718 946 C 697 919 674 890 650 860 C 615 816 585 779 561 749 C 537 719 517 690 503 662 C 487 634 476 604 470 572 C 463 540 460 501 460 455 C 460 448 455 443 445 440 C 435 437 422 436 407 436 C 392 436 379 437 369 440 C 358 443 353 448 353 455 C 353 503 353 545 355 580 C 357 614 361 647 368 678 C 374 708 383 739 396 771 C 408 802 425 839 447 881 C 465 917 481 948 495 975 C 508 1002 519 1027 527 1051 C 535 1073 540 1095 544 1116 C 548 1137 550 1160 550 1184 C 550 1219 546 1249 540 1273 C 533 1297 524 1316 512 1331 C 500 1345 485 1356 469 1362 C 452 1368 434 1372 415 1372 C 395 1372 377 1369 361 1363 C 345 1357 330 1349 318 1341 C 329 1321 338 1304 345 1290 C 351 1275 355 1260 355 1245 C 355 1220 351 1199 343 1181 C 335 1163 326 1148 314 1136 C 301 1124 286 1115 270 1109 C 254 1103 237 1100 220 1100 C 196 1100 176 1104 158 1112 C 140 1120 125 1131 113 1145 C 100 1158 90 1174 84 1192 C 78 1210 75 1230 75 1251 C 75 1281 82 1311 97 1343 C 112 1374 135 1403 166 1429 C 196 1454 235 1475 282 1491 C 328 1507 383 1516 447 1516 C 503 1516 554 1508 600 1492 C 646 1476 685 1454 718 1426 C 750 1398 775 1364 793 1326 C 811 1287 820 1245 820 1200 Z M 566 143 C 566 120 561 99 553 79 C 544 59 532 42 518 28 C 503 13 486 1 466 -7 C 446 -15 426 -20 404 -20 C 381 -20 360 -15 340 -7 C 320 1 303 13 289 28 C 274 42 262 59 254 79 C 245 99 241 120 241 143 C 241 165 245 185 254 205 C 262 225 274 242 289 257 C 303 271 320 283 340 292 C 360 300 381 305 404 305 C 426 305 446 300 466 292 C 486 283 503 271 518 257 C 532 242 544 225 553 205 C 561 185 566 165 566 143 Z" unicode="?" />
<glyph horiz-adv-x="1944" d="M 1838 678 C 1838 618 1831 559 1819 501 C 1806 443 1788 389 1764 339 C 1740 287 1710 240 1675 197 C 1640 154 1600 117 1556 87 C 1510 55 1460 31 1406 14 C 1351 -3 1292 -12 1230 -12 C 1200 -12 1176 -7 1157 3 C 1137 13 1121 25 1109 40 C 1096 54 1086 70 1080 86 C 1073 102 1068 117 1064 129 C 1050 113 1033 97 1015 81 C 997 65 976 50 954 37 C 930 23 905 11 879 3 C 852 -5 824 -10 794 -10 C 753 -10 717 -2 686 11 C 655 25 629 46 609 72 C 587 98 571 129 560 165 C 549 201 544 241 544 285 C 544 338 550 389 564 439 C 578 489 597 535 622 579 C 646 622 674 661 708 697 C 741 733 778 764 818 790 C 857 815 899 835 943 849 C 987 863 1033 870 1080 870 C 1125 870 1160 865 1186 855 C 1212 845 1232 833 1248 821 C 1262 811 1276 802 1288 795 C 1300 787 1313 784 1326 784 C 1332 784 1338 784 1343 786 C 1348 787 1355 790 1363 796 C 1370 800 1380 807 1393 817 C 1405 827 1423 840 1447 856 C 1450 859 1454 862 1460 866 C 1465 870 1472 872 1482 872 C 1491 872 1496 870 1498 866 C 1499 862 1500 858 1500 852 C 1500 850 1499 846 1498 840 C 1496 834 1495 827 1493 820 C 1491 812 1489 805 1487 798 C 1485 790 1483 784 1482 780 L 1334 260 C 1328 241 1324 223 1321 205 C 1317 187 1316 173 1316 164 C 1316 152 1320 143 1329 137 C 1338 130 1345 127 1351 127 C 1399 127 1446 142 1490 172 C 1534 202 1572 242 1606 293 C 1638 343 1664 401 1684 468 C 1703 534 1713 604 1713 678 C 1713 748 1700 815 1674 877 C 1648 939 1611 994 1562 1041 C 1512 1087 1452 1124 1380 1151 C 1308 1178 1227 1192 1136 1192 C 1056 1192 981 1181 909 1160 C 837 1138 771 1108 710 1070 C 648 1031 593 985 543 931 C 493 877 451 817 417 753 C 382 687 355 618 336 544 C 317 470 308 393 308 315 C 308 219 323 131 354 53 C 384 -25 428 -93 485 -149 C 541 -205 610 -248 691 -278 C 771 -308 862 -324 962 -324 C 1075 -324 1180 -308 1278 -278 C 1376 -247 1471 -202 1564 -143 L 1607 -238 C 1503 -308 1397 -359 1289 -393 C 1180 -427 1069 -444 957 -444 C 828 -444 712 -425 608 -388 C 504 -350 416 -298 344 -230 C 270 -162 214 -80 175 15 C 135 110 116 216 116 332 C 116 418 128 501 152 583 C 176 665 209 742 253 815 C 296 887 348 954 409 1015 C 470 1075 538 1128 613 1172 C 687 1216 766 1250 852 1274 C 937 1298 1026 1311 1119 1311 C 1227 1311 1326 1295 1415 1265 C 1503 1234 1579 1191 1642 1136 C 1704 1080 1753 1013 1787 935 C 1821 857 1838 772 1838 678 Z M 1197 647 C 1197 657 1195 668 1191 680 C 1187 692 1181 703 1173 714 C 1164 724 1152 733 1138 741 C 1124 748 1106 752 1086 752 C 1058 752 1031 745 1006 733 C 980 721 957 704 936 684 C 914 663 894 639 876 611 C 858 583 843 553 831 522 C 818 490 808 458 802 426 C 795 393 792 361 792 330 C 792 307 794 286 799 267 C 804 248 812 232 822 218 C 832 204 844 193 859 185 C 873 177 890 174 910 174 C 952 174 988 183 1018 203 C 1048 222 1076 245 1101 272 L 1187 592 C 1188 597 1190 605 1193 617 C 1195 629 1197 639 1197 647 Z" unicode="@" />
<glyph horiz-adv-x="1423" d="M 1435 0 L 904 0 L 904 72 C 904 78 904 84 905 89 C 905 94 907 99 911 105 C 913 109 918 114 924 120 C 930 125 938 131 949 139 C 964 149 975 159 981 169 C 987 178 990 188 990 199 C 990 207 988 216 985 226 C 981 236 977 248 972 260 C 969 265 965 274 960 287 C 955 299 950 312 945 325 C 941 332 938 340 935 348 C 931 356 928 364 925 373 L 374 373 C 371 367 368 361 366 355 C 364 349 361 343 359 337 C 355 327 350 317 346 307 C 342 297 338 288 335 281 C 327 263 320 247 316 233 C 312 219 310 207 310 197 C 310 184 313 173 321 165 C 328 156 339 147 353 139 C 365 133 374 128 381 124 C 387 120 392 116 396 112 C 399 107 401 102 402 96 C 403 90 404 83 404 74 L 404 0 L -11 0 L -11 76 C -11 82 -10 87 -10 91 C -10 95 -9 99 -7 103 C -4 107 0 111 6 116 C 12 120 20 127 32 135 C 50 148 64 159 76 168 C 87 177 97 186 105 194 C 112 202 118 210 123 219 C 128 228 134 240 140 254 L 527 1135 C 536 1155 543 1172 547 1186 C 551 1199 553 1212 553 1224 C 551 1236 547 1249 541 1263 C 534 1277 524 1295 511 1319 C 505 1329 502 1337 504 1343 C 505 1349 509 1356 517 1362 C 545 1382 574 1406 606 1432 C 638 1458 669 1483 699 1507 C 706 1513 712 1516 718 1516 C 724 1515 728 1511 732 1503 L 1281 268 C 1289 250 1296 235 1304 223 C 1312 211 1320 200 1329 192 C 1337 183 1345 175 1355 168 C 1365 160 1376 152 1390 143 C 1398 136 1406 130 1412 126 C 1418 122 1422 117 1426 113 C 1429 107 1431 102 1433 96 C 1434 90 1435 82 1435 72 L 1435 0 Z M 853 532 L 646 1001 L 441 532 L 853 532 Z" unicode="A" />
<glyph horiz-adv-x="1305" d="M 1244 399 C 1244 347 1233 298 1213 250 C 1192 202 1162 160 1123 123 C 1083 85 1035 55 978 33 C 920 11 855 0 781 0 L 79 0 L 79 72 C 79 84 81 94 86 103 C 91 111 104 123 126 137 C 138 145 147 152 154 158 C 161 164 167 171 171 179 C 175 185 177 193 179 203 C 180 212 181 224 181 240 L 181 1255 C 181 1269 180 1282 179 1292 C 177 1302 175 1310 171 1318 C 167 1325 161 1332 154 1338 C 147 1344 138 1352 126 1360 C 116 1367 107 1373 101 1378 C 95 1383 90 1388 87 1393 C 83 1397 81 1401 80 1406 C 79 1410 79 1416 79 1423 L 79 1495 L 755 1495 C 824 1495 885 1485 938 1467 C 990 1448 1034 1422 1070 1390 C 1105 1357 1132 1318 1150 1273 C 1168 1228 1177 1180 1177 1128 C 1177 1088 1168 1049 1152 1011 C 1135 973 1111 940 1081 910 C 1050 879 1013 853 969 832 C 925 811 876 797 822 791 C 882 785 937 772 989 754 C 1040 735 1085 709 1123 677 C 1161 644 1190 605 1212 559 C 1233 513 1244 459 1244 399 Z M 931 426 C 931 516 901 585 843 633 C 784 681 692 705 568 705 L 466 705 L 466 162 L 583 162 C 701 162 789 184 846 229 C 902 274 931 340 931 426 Z M 861 1100 C 861 1136 856 1169 846 1198 C 836 1227 820 1252 798 1273 C 776 1293 747 1308 713 1319 C 679 1329 637 1335 589 1335 L 466 1335 L 466 864 L 589 864 C 679 864 747 885 793 928 C 838 970 861 1028 861 1100 Z" unicode="B" />
<glyph horiz-adv-x="1272" d="M 1277 289 C 1269 270 1257 249 1241 227 C 1225 205 1205 182 1181 160 C 1156 136 1128 114 1096 93 C 1064 71 1030 52 993 36 C 955 18 914 5 871 -5 C 828 -15 783 -20 736 -20 C 658 -20 587 -10 523 10 C 459 30 401 57 351 93 C 300 127 256 169 218 217 C 180 265 148 317 123 374 C 97 430 78 489 66 551 C 54 613 48 677 48 741 C 48 826 57 904 75 976 C 93 1047 118 1112 150 1170 C 181 1227 218 1277 261 1320 C 303 1363 349 1399 399 1429 C 448 1457 499 1479 553 1494 C 607 1508 660 1516 714 1516 C 768 1516 820 1508 872 1494 C 924 1479 971 1456 1015 1425 C 1020 1421 1026 1418 1034 1416 C 1041 1414 1049 1413 1058 1413 C 1064 1413 1069 1413 1074 1414 C 1079 1415 1084 1417 1088 1419 C 1097 1423 1104 1426 1110 1429 C 1116 1432 1121 1435 1125 1437 C 1129 1439 1132 1440 1136 1441 C 1139 1441 1143 1442 1148 1442 L 1209 1442 L 1209 1051 L 1119 1051 C 1103 1051 1093 1053 1088 1058 C 1083 1062 1079 1069 1076 1077 C 1044 1163 1000 1229 945 1274 C 890 1318 825 1341 751 1341 C 703 1341 657 1330 611 1308 C 565 1286 524 1252 488 1205 C 451 1157 421 1096 399 1021 C 377 945 366 854 366 748 C 366 654 375 570 395 497 C 414 423 441 361 476 311 C 510 260 552 221 600 195 C 648 168 701 154 759 154 C 798 153 835 157 870 167 C 905 176 938 188 968 203 C 997 217 1024 233 1049 251 C 1073 269 1095 286 1114 304 C 1132 321 1148 337 1161 353 C 1173 368 1183 380 1189 389 L 1277 289 Z" unicode="C" />
<glyph horiz-adv-x="1436" d="M 1387 748 C 1387 636 1368 534 1332 442 C 1295 350 1245 272 1183 207 C 1119 141 1046 90 962 54 C 878 18 788 0 693 0 L 79 0 L 79 72 C 79 84 81 94 86 103 C 91 111 104 123 126 137 C 138 145 147 152 154 158 C 161 164 167 171 171 179 C 175 185 177 193 179 203 C 180 212 181 224 181 240 L 181 1255 C 181 1269 180 1282 179 1292 C 177 1302 175 1310 171 1318 C 167 1325 161 1332 154 1338 C 147 1344 138 1352 126 1360 C 116 1367 107 1373 101 1378 C 95 1383 90 1388 87 1393 C 83 1397 81 1401 80 1406 C 79 1410 79 1416 79 1423 L 79 1495 L 626 1495 C 740 1495 844 1476 938 1440 C 1031 1404 1111 1353 1178 1288 C 1244 1222 1296 1144 1332 1052 C 1368 960 1387 858 1387 748 Z M 1074 748 C 1074 845 1062 930 1038 1003 C 1014 1076 980 1137 936 1186 C 892 1234 838 1270 776 1294 C 713 1318 643 1331 566 1331 L 468 1331 L 468 164 L 568 164 C 648 164 720 175 783 197 C 846 219 899 254 943 302 C 985 349 1018 409 1040 483 C 1062 557 1074 645 1074 748 Z" unicode="D" />
<glyph horiz-adv-x="1231" d="M 1193 0 L 79 0 L 79 72 C 79 84 81 94 86 103 C 91 111 104 123 126 137 C 138 145 147 152 154 158 C 161 164 167 171 171 179 C 175 185 177 193 179 203 C 180 212 181 224 181 240 L 181 1255 C 181 1269 180 1281 179 1291 C 177 1301 175 1309 171 1317 C 167 1324 161 1331 154 1338 C 147 1344 138 1352 126 1360 C 116 1367 107 1373 101 1378 C 95 1383 90 1388 87 1393 C 83 1397 81 1401 80 1406 C 79 1410 79 1416 79 1423 L 79 1495 L 875 1495 C 885 1495 898 1495 914 1495 C 930 1495 946 1496 963 1498 C 979 1498 994 1499 1009 1500 C 1023 1500 1035 1501 1043 1503 C 1053 1503 1061 1504 1067 1504 C 1073 1504 1077 1504 1081 1503 C 1083 1501 1085 1498 1086 1494 C 1087 1490 1088 1484 1088 1477 L 1088 1155 L 1037 1155 C 1017 1155 1003 1157 994 1163 C 984 1168 977 1176 972 1188 C 956 1219 942 1244 930 1263 C 917 1281 902 1296 884 1306 C 865 1316 841 1322 813 1326 C 785 1329 747 1331 701 1331 L 468 1331 L 468 848 L 572 848 C 596 848 616 849 632 852 C 648 855 663 861 676 869 C 688 876 699 886 709 898 C 719 910 730 926 742 946 C 749 957 757 966 766 973 C 774 979 789 983 810 983 L 869 983 L 869 557 L 802 557 C 783 557 768 561 758 571 C 748 580 740 590 734 600 C 722 618 711 632 701 643 C 691 653 680 662 669 668 C 657 674 643 677 629 679 C 615 681 598 682 579 682 L 468 682 L 468 166 L 802 166 C 838 166 869 168 895 173 C 921 178 944 187 964 201 C 984 214 1002 232 1019 256 C 1035 279 1052 309 1070 346 C 1076 359 1082 369 1090 375 C 1097 381 1109 385 1125 385 L 1193 385 L 1193 0 Z" unicode="E" />
<glyph horiz-adv-x="1194" d="M 1168 1155 L 1099 1155 C 1079 1155 1065 1157 1055 1163 C 1045 1169 1038 1177 1035 1188 C 1025 1217 1014 1241 1002 1259 C 990 1277 974 1292 955 1303 C 935 1313 910 1319 880 1323 C 850 1327 811 1329 765 1329 L 468 1329 L 468 842 L 613 842 C 637 842 657 843 675 847 C 693 850 709 856 723 864 C 737 872 749 882 760 894 C 771 906 782 922 792 940 C 799 951 808 960 819 967 C 830 973 846 977 867 977 L 921 977 L 921 551 L 867 551 C 848 551 833 555 821 565 C 809 575 799 584 792 594 C 778 612 765 626 754 637 C 743 647 732 656 720 662 C 707 668 693 671 677 673 C 661 675 642 676 619 676 L 468 676 L 468 240 C 468 224 468 212 470 203 C 471 193 474 185 478 179 C 482 171 487 164 495 158 C 503 152 513 145 525 137 C 544 123 556 112 562 103 C 567 94 570 84 570 72 L 570 0 L 79 0 L 79 72 C 79 84 81 94 86 103 C 91 111 104 123 126 137 C 138 145 147 152 154 158 C 161 164 167 171 171 179 C 175 185 177 193 179 203 C 180 212 181 224 181 240 L 181 1255 C 181 1269 180 1281 179 1291 C 177 1301 175 1309 171 1317 C 167 1324 161 1331 154 1338 C 147 1344 138 1352 126 1360 C 116 1367 107 1373 101 1378 C 95 1383 90 1388 87 1393 C 83 1397 81 1401 80 1406 C 79 1410 79 1416 79 1423 L 79 1495 L 955 1495 C 965 1495 977 1495 993 1495 C 1009 1495 1025 1496 1041 1498 C 1057 1498 1072 1499 1087 1500 C 1101 1500 1113 1501 1121 1503 C 1142 1505 1155 1504 1160 1502 C 1165 1500 1168 1491 1168 1477 L 1168 1155 Z" unicode="F" />
<glyph horiz-adv-x="1444" d="M 1439 117 C 1399 101 1357 85 1313 69 C 1269 53 1221 38 1170 25 C 1118 11 1062 0 1002 -7 C 942 -15 876 -20 806 -20 C 719 -20 640 -10 569 10 C 498 30 435 57 379 93 C 323 127 274 169 232 217 C 190 265 156 317 129 374 C 101 430 81 489 68 551 C 54 613 48 677 48 741 C 48 825 57 903 75 975 C 93 1046 119 1110 151 1168 C 183 1225 221 1275 265 1319 C 309 1362 356 1398 407 1428 C 457 1457 510 1479 566 1494 C 622 1508 678 1516 734 1516 C 792 1516 845 1509 895 1495 C 944 1481 991 1460 1035 1432 C 1041 1427 1049 1423 1058 1420 C 1067 1416 1076 1415 1086 1415 C 1090 1415 1095 1415 1100 1417 C 1105 1418 1109 1419 1111 1421 C 1119 1425 1125 1429 1130 1432 C 1135 1434 1139 1437 1143 1439 C 1146 1440 1149 1441 1152 1441 C 1155 1441 1159 1442 1164 1442 L 1226 1442 L 1226 1051 L 1136 1051 C 1121 1051 1111 1053 1106 1058 C 1100 1062 1096 1069 1093 1077 C 1077 1119 1056 1158 1032 1192 C 1007 1226 979 1255 949 1279 C 918 1302 885 1320 849 1333 C 813 1345 776 1352 738 1352 C 690 1352 644 1340 600 1318 C 556 1295 516 1259 482 1211 C 446 1161 418 1098 397 1022 C 376 946 366 854 366 748 C 366 654 377 569 400 495 C 422 421 453 358 492 306 C 530 254 575 214 627 186 C 678 158 732 145 789 145 C 839 145 880 150 913 161 C 945 171 972 186 992 204 C 1011 222 1025 242 1033 266 C 1041 290 1045 314 1045 340 C 1045 367 1044 389 1042 407 C 1040 425 1037 440 1032 452 C 1026 463 1019 472 1009 480 C 999 488 985 496 968 504 C 948 513 935 522 927 530 C 919 538 916 549 916 563 L 916 645 L 1328 645 L 1328 387 C 1328 368 1328 351 1330 336 C 1331 321 1334 307 1340 295 C 1344 282 1352 270 1362 260 C 1372 250 1387 240 1406 231 C 1412 227 1417 224 1421 222 C 1425 220 1428 217 1431 214 C 1433 210 1435 206 1436 201 C 1437 196 1438 190 1439 182 L 1439 117 Z" unicode="G" />
<glyph horiz-adv-x="1550" d="M 1469 0 L 982 0 L 982 72 C 982 78 982 84 983 89 C 983 94 985 99 989 104 C 991 108 996 113 1002 118 C 1008 123 1016 129 1027 137 C 1039 145 1048 152 1055 158 C 1062 164 1068 171 1072 179 C 1076 185 1078 193 1080 203 C 1081 212 1082 224 1082 240 L 1082 686 L 468 686 L 468 240 C 468 224 468 212 470 203 C 471 193 474 185 478 179 C 482 171 487 164 494 158 C 501 152 511 145 523 137 C 534 129 543 123 549 118 C 555 113 560 108 564 104 C 566 99 568 94 569 89 C 569 84 570 78 570 72 L 570 0 L 79 0 L 79 72 C 79 78 79 84 80 89 C 80 94 82 99 86 104 C 88 108 93 113 99 118 C 105 123 113 129 124 137 C 136 145 145 152 153 158 C 161 164 167 171 171 179 C 175 185 177 193 179 203 C 180 212 181 224 181 240 L 181 1255 C 181 1269 180 1281 179 1291 C 177 1301 175 1309 171 1317 C 167 1324 161 1331 153 1337 C 145 1343 136 1351 124 1360 C 113 1367 105 1373 99 1378 C 93 1383 88 1388 86 1393 C 82 1397 80 1401 80 1406 C 79 1410 79 1416 79 1423 L 79 1495 L 570 1495 L 570 1423 C 570 1416 569 1410 568 1406 C 567 1402 565 1398 563 1394 C 559 1389 554 1384 548 1379 C 542 1374 533 1368 523 1360 C 511 1352 501 1344 494 1338 C 486 1332 481 1325 477 1318 C 473 1310 470 1302 469 1292 C 468 1282 468 1269 468 1255 L 468 852 L 1082 852 L 1082 1255 C 1082 1269 1081 1282 1080 1292 C 1078 1302 1076 1310 1072 1318 C 1068 1325 1062 1332 1055 1338 C 1048 1344 1039 1352 1027 1360 C 1016 1368 1008 1374 1002 1379 C 996 1384 991 1389 989 1394 C 985 1398 983 1402 983 1406 C 982 1410 982 1416 982 1423 L 982 1495 L 1469 1495 L 1469 1423 C 1469 1416 1468 1410 1468 1406 C 1467 1402 1465 1398 1463 1394 C 1459 1389 1455 1384 1449 1379 C 1443 1374 1434 1368 1424 1360 C 1412 1352 1402 1344 1395 1338 C 1388 1332 1383 1325 1379 1318 C 1375 1310 1372 1302 1371 1292 C 1369 1282 1369 1269 1369 1255 L 1369 240 C 1369 224 1369 212 1371 203 C 1372 193 1375 185 1379 179 C 1383 171 1388 164 1395 158 C 1402 152 1412 145 1424 137 C 1434 129 1443 123 1449 118 C 1455 113 1459 108 1463 104 C 1465 99 1467 94 1468 89 C 1468 84 1469 78 1469 72 L 1469 0 Z" unicode="H" />
<glyph horiz-adv-x="657" d="M 574 0 L 83 0 L 83 72 C 83 84 85 94 90 103 C 95 111 108 123 130 137 C 142 145 151 152 158 158 C 165 164 171 171 175 179 C 179 185 181 193 183 203 C 184 212 185 224 185 240 L 185 1255 C 185 1269 184 1282 183 1292 C 181 1302 179 1310 175 1318 C 171 1325 165 1332 158 1338 C 151 1344 142 1352 130 1360 C 120 1367 111 1373 105 1378 C 99 1383 94 1388 91 1393 C 87 1397 85 1401 84 1406 C 83 1410 83 1416 83 1423 L 83 1495 L 574 1495 L 574 1423 C 574 1416 573 1410 572 1406 C 571 1401 569 1397 567 1393 C 563 1388 559 1383 553 1378 C 547 1373 539 1367 529 1360 C 517 1351 507 1343 499 1337 C 491 1331 486 1324 482 1317 C 478 1309 475 1301 474 1291 C 472 1281 472 1269 472 1255 L 472 240 C 472 224 472 212 474 203 C 475 193 478 185 482 179 C 486 171 491 164 499 158 C 507 152 517 145 529 137 C 548 123 560 112 566 103 C 571 94 574 84 574 72 L 574 0 Z" unicode="I" />
<glyph horiz-adv-x="969" d="M 896 1423 C 896 1416 895 1410 894 1406 C 893 1402 891 1398 889 1394 C 885 1389 880 1384 874 1379 C 868 1374 859 1368 849 1360 C 837 1352 827 1344 820 1338 C 813 1332 808 1325 804 1318 C 800 1310 797 1302 796 1292 C 794 1282 794 1269 794 1255 L 794 451 C 794 383 784 321 764 264 C 744 206 715 157 677 115 C 638 73 591 40 535 16 C 479 -8 415 -20 343 -20 C 291 -20 244 -13 204 0 C 163 13 129 31 101 53 C 73 75 51 100 37 128 C 22 156 15 185 15 215 C 15 242 19 267 27 290 C 35 312 47 332 61 348 C 75 364 91 376 109 385 C 127 394 147 399 167 399 C 189 399 209 395 227 388 C 245 381 259 372 271 361 C 282 349 291 335 297 320 C 303 304 306 288 306 272 C 306 256 302 239 296 222 C 290 204 279 189 265 176 C 267 172 270 167 276 163 C 282 158 289 154 297 151 C 304 147 312 143 321 141 C 330 138 339 137 347 137 C 368 137 388 141 408 150 C 427 158 444 172 459 192 C 473 210 485 234 494 264 C 502 294 507 329 507 371 L 507 1255 C 507 1269 506 1281 505 1291 C 503 1301 501 1309 497 1317 C 493 1324 487 1331 479 1337 C 471 1343 462 1351 450 1360 C 440 1366 432 1372 426 1377 C 420 1382 415 1387 412 1392 C 408 1396 406 1400 405 1405 C 404 1410 404 1416 404 1423 L 404 1495 L 896 1495 L 896 1423 Z" unicode="J" />
<glyph horiz-adv-x="1450" d="M 1461 0 L 859 0 L 859 72 C 859 80 862 88 868 96 C 874 104 887 115 908 131 C 916 137 923 143 929 150 C 934 157 937 164 937 172 C 937 178 935 184 933 190 C 930 196 926 201 921 207 L 466 709 L 466 240 C 466 224 466 212 468 203 C 470 193 473 185 478 179 C 482 171 487 164 495 158 C 503 152 513 145 525 137 C 544 123 556 112 562 103 C 567 94 570 84 570 72 L 570 0 L 79 0 L 79 72 C 79 84 81 94 86 103 C 91 111 104 123 126 137 C 138 145 147 152 154 158 C 161 164 167 171 171 179 C 175 185 177 193 179 203 C 180 212 181 224 181 240 L 181 1255 C 181 1269 180 1282 179 1292 C 177 1302 175 1310 171 1318 C 167 1325 161 1332 154 1338 C 147 1344 138 1352 126 1360 C 116 1367 107 1373 101 1378 C 95 1383 90 1388 87 1393 C 83 1397 81 1401 80 1406 C 79 1410 79 1416 79 1423 L 79 1495 L 570 1495 L 570 1423 C 570 1416 569 1410 568 1406 C 567 1401 565 1397 563 1393 C 559 1388 555 1383 549 1378 C 543 1373 535 1367 525 1360 C 513 1351 503 1343 495 1337 C 487 1331 482 1324 478 1317 C 473 1309 470 1301 468 1291 C 466 1281 466 1269 466 1255 L 466 879 L 878 1268 C 887 1276 896 1286 904 1298 C 912 1310 916 1319 916 1327 C 916 1333 913 1340 907 1346 C 901 1352 892 1357 880 1362 C 868 1366 858 1371 852 1375 C 846 1379 842 1384 840 1390 C 837 1394 835 1399 835 1405 C 835 1410 835 1416 835 1423 L 835 1495 L 1347 1495 L 1347 1423 C 1347 1414 1346 1407 1345 1402 C 1344 1396 1342 1391 1338 1387 C 1333 1382 1326 1377 1317 1373 C 1307 1368 1295 1362 1279 1356 C 1258 1347 1239 1338 1223 1328 C 1206 1318 1190 1308 1175 1298 C 1159 1286 1144 1274 1129 1262 C 1113 1249 1097 1235 1080 1219 L 695 862 L 1283 240 C 1295 226 1307 214 1317 204 C 1327 194 1337 186 1347 178 C 1357 169 1367 160 1377 152 C 1387 144 1400 134 1414 123 C 1424 114 1433 107 1439 101 C 1445 95 1450 90 1454 86 C 1456 81 1458 76 1459 72 C 1460 67 1461 61 1461 55 L 1461 0 Z" unicode="K" />
<glyph horiz-adv-x="1216" d="M 1193 0 L 79 0 L 79 72 C 79 84 81 94 86 103 C 91 111 104 123 126 137 C 138 145 147 152 154 158 C 161 164 167 171 171 179 C 175 185 177 193 179 203 C 180 212 181 224 181 240 L 181 1255 C 181 1269 180 1281 179 1291 C 177 1301 175 1309 171 1317 C 167 1324 161 1331 154 1338 C 147 1344 138 1352 126 1360 C 116 1367 107 1373 101 1378 C 95 1383 90 1388 87 1393 C 83 1397 81 1401 80 1406 C 79 1410 79 1416 79 1423 L 79 1495 L 570 1495 L 570 1423 C 570 1416 569 1410 568 1406 C 567 1401 565 1397 563 1393 C 559 1388 555 1383 549 1378 C 543 1373 535 1367 525 1360 C 513 1351 503 1343 495 1337 C 487 1331 482 1324 478 1317 C 474 1309 471 1301 470 1291 C 468 1281 468 1269 468 1255 L 468 166 L 802 166 C 838 166 869 168 895 173 C 921 178 944 187 964 201 C 984 214 1002 232 1019 256 C 1035 279 1052 309 1070 346 C 1076 359 1082 369 1090 375 C 1097 381 1109 385 1125 385 L 1193 385 L 1193 0 Z" unicode="L" />
<glyph horiz-adv-x="1778" d="M 1697 0 L 1209 0 L 1209 72 C 1209 78 1209 83 1210 88 C 1211 93 1213 98 1217 103 C 1219 107 1224 112 1230 118 C 1236 123 1244 129 1254 137 C 1266 145 1275 152 1283 158 C 1290 164 1296 171 1300 179 C 1304 185 1306 193 1308 203 C 1309 212 1310 224 1310 240 L 1310 1255 L 892 18 C 890 10 886 5 881 3 C 875 1 868 0 859 0 L 818 0 C 804 0 795 1 791 3 C 786 5 783 10 781 18 L 380 1196 L 380 240 C 380 224 380 212 382 203 C 383 193 386 185 390 179 C 394 171 399 164 406 158 C 413 152 423 145 435 137 C 454 123 466 112 472 103 C 477 94 480 84 480 72 L 480 0 L 79 0 L 79 72 C 79 84 81 94 86 103 C 91 111 104 123 126 137 C 138 145 147 152 154 158 C 161 164 167 171 171 179 C 175 185 177 193 179 203 C 180 212 181 224 181 240 L 181 1255 C 181 1269 180 1282 179 1292 C 177 1302 175 1310 171 1318 C 167 1325 161 1332 154 1338 C 147 1344 138 1352 126 1360 C 116 1367 107 1373 101 1378 C 95 1383 90 1388 87 1393 C 83 1397 81 1401 80 1406 C 79 1410 79 1416 79 1423 L 79 1495 L 529 1495 C 539 1495 546 1494 552 1494 C 558 1493 563 1492 567 1490 C 570 1487 573 1483 575 1478 C 577 1473 579 1466 583 1458 L 898 512 L 1218 1477 C 1221 1485 1225 1490 1229 1492 C 1233 1494 1240 1495 1250 1495 L 1697 1495 L 1697 1423 C 1697 1416 1696 1410 1695 1406 C 1694 1401 1692 1397 1690 1393 C 1686 1388 1682 1383 1676 1378 C 1670 1373 1662 1367 1652 1360 C 1640 1351 1630 1343 1623 1337 C 1615 1331 1610 1324 1606 1317 C 1602 1309 1599 1301 1598 1291 C 1596 1281 1596 1269 1596 1255 L 1596 240 C 1596 224 1596 212 1598 203 C 1599 193 1602 185 1606 179 C 1610 171 1615 164 1623 158 C 1630 152 1640 145 1652 137 C 1671 123 1683 112 1689 103 C 1694 94 1697 84 1697 72 L 1697 0 Z" unicode="M" />
<glyph horiz-adv-x="1466" d="M 1383 1436 C 1383 1428 1382 1421 1382 1417 C 1381 1413 1379 1409 1376 1405 C 1372 1401 1367 1396 1360 1391 C 1353 1386 1344 1380 1332 1372 C 1321 1364 1312 1356 1306 1349 C 1300 1341 1295 1333 1293 1325 C 1289 1316 1287 1306 1286 1295 C 1285 1283 1285 1270 1285 1255 L 1285 14 C 1285 0 1283 -8 1280 -13 C 1276 -17 1268 -20 1256 -20 L 1164 -20 C 1152 -20 1141 -16 1133 -9 C 1125 -1 1118 6 1113 14 L 363 1174 L 363 233 C 363 218 364 206 366 197 C 368 187 371 179 377 173 C 381 165 387 158 395 152 C 403 146 413 139 425 131 C 444 116 456 104 462 96 C 467 88 470 78 470 66 L 470 0 L 79 0 L 79 66 C 79 72 79 77 80 82 C 81 86 83 91 87 96 C 89 100 94 105 100 111 C 106 116 115 123 126 131 C 138 139 147 146 154 152 C 161 158 167 165 171 173 C 175 179 177 187 179 197 C 180 206 181 218 181 233 L 181 1262 C 181 1276 180 1288 180 1297 C 179 1306 177 1314 174 1322 C 170 1328 164 1335 157 1341 C 149 1347 139 1356 126 1366 C 116 1374 108 1380 102 1385 C 96 1390 91 1395 88 1400 C 84 1404 82 1408 81 1413 C 79 1417 79 1423 79 1430 L 79 1495 L 447 1495 C 457 1495 465 1494 471 1494 C 477 1494 482 1492 487 1490 C 491 1487 495 1483 499 1477 C 503 1471 509 1462 517 1452 L 1101 555 L 1101 1255 C 1101 1269 1100 1282 1099 1293 C 1098 1303 1096 1313 1093 1323 C 1089 1331 1083 1340 1075 1348 C 1067 1356 1057 1366 1045 1376 C 1035 1384 1027 1390 1021 1395 C 1015 1400 1010 1405 1008 1410 C 1004 1414 1002 1419 1001 1424 C 1000 1428 1000 1434 1000 1440 L 1000 1495 L 1383 1495 L 1383 1436 Z" unicode="N" />
<glyph horiz-adv-x="1483" d="M 1435 748 C 1435 673 1427 602 1412 536 C 1396 469 1374 407 1346 351 C 1317 293 1282 242 1241 196 C 1200 150 1154 112 1103 80 C 1051 48 995 23 935 6 C 874 -11 810 -20 742 -20 C 640 -20 546 -1 461 36 C 376 73 303 126 242 194 C 180 261 133 342 99 436 C 65 530 48 634 48 748 C 48 822 55 892 71 959 C 86 1025 108 1087 138 1145 C 166 1201 201 1252 242 1298 C 283 1344 329 1383 381 1416 C 432 1448 488 1472 549 1490 C 609 1507 674 1516 742 1516 C 844 1516 937 1496 1022 1458 C 1107 1420 1180 1367 1242 1299 C 1302 1230 1350 1149 1384 1055 C 1418 961 1435 858 1435 748 Z M 1121 748 C 1121 844 1112 930 1094 1005 C 1076 1080 1050 1143 1018 1195 C 984 1246 944 1285 898 1312 C 851 1338 799 1352 742 1352 C 684 1352 632 1338 586 1312 C 539 1285 499 1246 466 1195 C 432 1143 406 1080 388 1005 C 370 930 361 844 361 748 C 361 650 370 564 388 489 C 406 414 432 351 466 301 C 499 249 539 210 586 184 C 632 158 684 145 742 145 C 799 145 851 157 898 183 C 944 208 984 246 1018 297 C 1050 347 1076 410 1094 486 C 1112 561 1121 648 1121 748 Z" unicode="O" />
<glyph horiz-adv-x="1202" d="M 1187 1079 C 1187 1025 1176 973 1156 922 C 1136 870 1104 825 1061 785 C 1017 745 961 712 893 688 C 825 663 744 651 650 651 L 468 651 L 468 240 C 468 224 468 212 470 203 C 471 193 474 185 478 179 C 482 171 487 164 495 158 C 503 152 513 145 525 137 C 544 123 556 112 562 103 C 567 94 570 84 570 72 L 570 0 L 79 0 L 79 72 C 79 84 81 94 86 103 C 91 111 104 123 126 137 C 138 145 147 152 154 158 C 161 164 167 171 171 179 C 175 185 177 193 179 203 C 180 212 181 224 181 240 L 181 1255 C 181 1269 180 1282 179 1292 C 177 1302 175 1310 171 1318 C 167 1325 161 1332 154 1338 C 147 1344 138 1352 126 1360 C 116 1367 107 1373 101 1378 C 95 1383 90 1388 87 1393 C 83 1397 81 1401 80 1406 C 79 1410 79 1416 79 1423 L 79 1495 L 693 1495 C 773 1495 844 1483 906 1459 C 967 1435 1019 1404 1061 1366 C 1102 1326 1133 1282 1155 1232 C 1176 1182 1187 1131 1187 1079 Z M 873 1071 C 873 1107 867 1140 855 1172 C 843 1203 826 1231 803 1255 C 779 1278 749 1296 713 1310 C 677 1324 636 1331 589 1331 L 468 1331 L 468 815 L 597 815 C 643 815 683 821 717 834 C 751 846 780 864 804 887 C 826 909 843 936 855 968 C 867 999 873 1033 873 1071 Z" unicode="P" />
<glyph horiz-adv-x="1483" d="M 1474 -229 C 1463 -239 1449 -251 1432 -265 C 1414 -279 1394 -293 1371 -306 C 1347 -318 1321 -329 1293 -338 C 1264 -347 1233 -352 1199 -352 C 1165 -352 1131 -346 1099 -336 C 1067 -326 1036 -313 1007 -297 C 977 -281 948 -263 921 -243 C 893 -223 867 -204 843 -186 C 811 -161 781 -139 755 -121 C 728 -102 703 -85 681 -71 C 658 -56 637 -43 617 -31 C 597 -19 577 -8 558 2 C 481 22 411 54 349 98 C 286 142 232 197 188 262 C 143 326 108 399 84 481 C 60 563 48 652 48 748 C 48 822 55 892 71 959 C 86 1025 108 1087 138 1145 C 166 1201 201 1252 242 1298 C 283 1344 329 1383 381 1416 C 432 1448 488 1472 549 1490 C 609 1507 674 1516 742 1516 C 844 1516 937 1496 1022 1458 C 1107 1420 1180 1367 1242 1299 C 1302 1230 1350 1149 1384 1055 C 1418 961 1435 858 1435 748 C 1435 656 1423 570 1399 490 C 1375 410 1342 338 1300 274 C 1256 210 1204 155 1143 110 C 1082 64 1015 31 941 10 C 969 2 996 -6 1021 -16 C 1046 -25 1070 -35 1093 -45 C 1124 -59 1151 -72 1173 -84 C 1195 -96 1216 -106 1235 -115 C 1253 -123 1272 -130 1290 -135 C 1308 -140 1328 -143 1351 -143 C 1377 -143 1400 -141 1418 -137 C 1436 -133 1455 -129 1474 -125 L 1474 -229 Z M 1121 748 C 1121 844 1112 930 1094 1006 C 1076 1081 1050 1145 1018 1197 C 984 1249 944 1288 898 1315 C 851 1342 799 1356 742 1356 C 684 1356 631 1342 585 1315 C 538 1288 498 1249 465 1197 C 431 1145 406 1081 388 1006 C 370 930 361 844 361 748 C 361 650 370 563 388 487 C 406 411 431 346 465 294 C 498 241 538 201 585 174 C 631 146 684 133 742 133 C 799 133 851 146 898 173 C 944 199 984 239 1018 291 C 1050 343 1076 407 1094 484 C 1112 560 1121 648 1121 748 Z" unicode="Q" />
<glyph horiz-adv-x="1386" d="M 1371 0 L 1023 0 C 977 72 936 139 899 199 C 861 259 828 312 800 360 C 760 425 726 478 697 520 C 667 561 640 594 616 618 C 590 641 566 657 543 666 C 519 675 494 680 468 680 L 468 240 C 468 224 468 212 470 203 C 471 193 474 185 478 179 C 482 171 487 164 495 158 C 503 152 513 145 525 137 C 544 123 556 112 562 103 C 567 94 570 84 570 72 L 570 0 L 79 0 L 79 72 C 79 84 81 94 86 103 C 91 111 104 123 126 137 C 138 145 147 152 154 158 C 161 164 167 171 171 179 C 175 185 177 193 179 203 C 180 212 181 224 181 240 L 181 1255 C 181 1269 180 1282 179 1292 C 177 1302 175 1310 171 1318 C 167 1325 161 1332 154 1338 C 147 1344 138 1352 126 1360 C 116 1367 107 1373 101 1378 C 95 1383 90 1388 87 1393 C 83 1397 81 1401 80 1406 C 79 1410 79 1416 79 1423 L 79 1495 L 761 1495 C 831 1495 894 1484 950 1463 C 1005 1441 1052 1413 1090 1377 C 1127 1340 1155 1297 1175 1249 C 1195 1200 1205 1148 1205 1094 C 1205 1050 1198 1008 1184 968 C 1170 928 1148 891 1120 858 C 1091 824 1055 794 1012 769 C 968 743 917 725 859 713 C 875 707 889 700 902 693 C 914 685 927 676 940 664 C 952 651 966 635 980 616 C 994 596 1010 571 1030 541 C 1048 510 1071 473 1097 429 C 1123 385 1154 333 1191 272 C 1203 252 1213 236 1222 224 C 1230 211 1239 200 1248 191 C 1256 181 1265 173 1274 166 C 1283 158 1294 151 1306 143 C 1318 134 1329 127 1337 121 C 1345 115 1352 109 1358 104 C 1362 98 1366 93 1368 88 C 1370 83 1371 78 1371 72 L 1371 0 Z M 886 1090 C 886 1130 879 1166 866 1196 C 853 1226 835 1252 812 1272 C 788 1292 759 1306 727 1316 C 695 1326 660 1331 622 1331 L 468 1331 L 468 836 L 585 836 C 631 836 672 840 709 850 C 746 860 778 875 805 896 C 831 916 851 943 865 975 C 879 1007 886 1045 886 1090 Z" unicode="R" />
<glyph horiz-adv-x="1124" d="M 1064 483 C 1064 415 1052 351 1030 291 C 1007 230 974 177 931 131 C 887 85 834 48 772 21 C 709 -6 638 -20 558 -20 C 526 -20 497 -18 471 -14 C 445 -10 421 -6 400 -1 C 378 5 359 11 343 17 C 326 23 312 28 300 33 C 286 38 275 42 266 45 C 256 47 248 49 241 49 C 232 49 224 47 216 44 C 208 40 200 32 191 20 C 185 12 178 6 171 4 C 164 1 156 0 148 0 L 81 0 C 75 0 72 1 70 3 C 68 5 67 8 67 12 L 67 412 L 157 412 C 167 412 174 410 179 407 C 183 404 189 397 196 387 C 220 345 246 308 274 278 C 302 248 332 223 364 203 C 394 183 426 168 459 159 C 492 149 525 145 558 145 C 600 145 639 151 673 164 C 707 176 736 193 760 215 C 784 236 802 261 815 289 C 828 317 835 347 835 379 C 835 430 818 475 785 514 C 751 553 698 584 626 608 C 604 615 580 623 556 631 C 532 639 509 646 487 654 C 465 660 445 666 427 672 C 409 678 396 682 388 686 C 336 705 291 729 253 757 C 215 785 185 816 161 850 C 137 884 119 920 108 959 C 96 998 91 1039 91 1081 C 91 1144 101 1202 123 1256 C 145 1310 175 1356 215 1396 C 253 1434 300 1465 355 1487 C 409 1509 470 1520 536 1520 C 588 1520 630 1515 662 1507 C 694 1499 723 1489 749 1477 C 758 1472 766 1468 774 1464 C 782 1460 789 1458 796 1458 C 803 1458 809 1459 814 1461 C 819 1463 826 1467 835 1475 C 842 1481 847 1485 850 1487 C 853 1489 859 1491 867 1491 L 939 1491 L 939 1090 L 867 1090 C 853 1090 844 1091 838 1095 C 832 1098 828 1102 826 1108 C 816 1136 803 1164 788 1193 C 773 1222 754 1249 732 1273 C 708 1296 680 1315 647 1331 C 614 1346 574 1354 527 1354 C 495 1354 466 1349 440 1339 C 414 1329 391 1315 373 1299 C 354 1282 339 1263 329 1242 C 319 1220 314 1198 314 1176 C 314 1154 316 1133 322 1115 C 327 1096 336 1079 349 1065 C 361 1049 378 1035 398 1023 C 418 1010 442 999 472 989 C 492 981 513 974 536 967 C 559 959 582 952 606 945 C 629 937 652 929 675 921 C 698 913 720 906 740 899 C 788 881 833 859 873 833 C 913 806 947 775 976 740 C 1004 704 1025 664 1041 621 C 1056 578 1064 532 1064 483 Z" unicode="S" />
<glyph horiz-adv-x="1288" d="M 1271 1149 L 1211 1149 C 1189 1149 1172 1153 1159 1162 C 1145 1170 1136 1181 1131 1194 C 1119 1221 1106 1243 1093 1261 C 1079 1279 1065 1293 1049 1304 C 1033 1314 1015 1321 996 1325 C 976 1329 955 1331 931 1331 L 787 1331 L 787 240 C 787 224 788 212 790 203 C 792 193 796 185 802 179 C 807 171 814 164 822 158 C 830 152 841 145 853 137 C 872 123 884 112 890 103 C 895 94 898 84 898 72 L 898 0 L 388 0 L 388 72 C 388 78 388 83 389 88 C 390 93 392 98 396 103 C 398 107 403 112 409 118 C 415 123 423 129 433 137 C 445 145 455 152 463 158 C 471 164 479 171 485 179 C 490 185 494 193 497 203 C 499 212 501 224 501 240 L 501 1331 L 357 1331 C 332 1331 310 1329 290 1325 C 270 1321 253 1314 237 1304 C 221 1293 206 1279 193 1261 C 180 1243 168 1221 157 1194 C 151 1181 142 1170 129 1162 C 116 1153 97 1149 73 1149 L 17 1149 L 17 1477 C 17 1491 19 1500 24 1502 C 28 1504 40 1505 60 1503 C 69 1501 80 1500 94 1500 C 107 1499 121 1498 136 1498 C 150 1496 164 1495 178 1495 C 192 1495 204 1495 214 1495 L 1072 1495 C 1082 1495 1095 1495 1109 1495 C 1123 1495 1138 1496 1153 1498 C 1167 1498 1181 1499 1195 1500 C 1208 1500 1219 1501 1228 1503 C 1247 1505 1259 1504 1264 1502 C 1268 1500 1271 1491 1271 1477 L 1271 1149 Z" unicode="T" />
<glyph horiz-adv-x="1528" d="M 1451 1434 C 1451 1427 1450 1421 1449 1416 C 1448 1411 1446 1407 1444 1403 C 1440 1398 1436 1393 1430 1388 C 1424 1383 1416 1377 1406 1370 C 1394 1361 1384 1353 1377 1347 C 1370 1341 1365 1334 1361 1327 C 1357 1319 1354 1311 1353 1302 C 1351 1292 1351 1280 1351 1266 L 1351 559 C 1351 486 1340 415 1318 346 C 1296 276 1263 215 1217 161 C 1171 106 1112 62 1040 29 C 968 -3 883 -20 783 -20 C 673 -20 580 -5 503 25 C 426 55 364 96 316 149 C 267 201 232 262 210 332 C 188 402 177 478 177 559 L 177 1255 C 177 1271 176 1283 176 1293 C 175 1302 173 1310 170 1318 C 166 1324 160 1331 153 1337 C 145 1343 135 1350 122 1360 C 111 1368 102 1374 96 1379 C 90 1384 85 1389 83 1394 C 79 1398 77 1402 76 1406 C 75 1410 75 1416 75 1423 L 75 1495 L 566 1495 L 566 1423 C 566 1415 565 1409 565 1404 C 564 1399 562 1395 560 1391 C 556 1387 552 1382 546 1378 C 540 1373 531 1367 521 1360 C 509 1351 499 1343 491 1337 C 483 1331 478 1324 474 1317 C 470 1309 467 1301 466 1291 C 464 1281 464 1269 464 1255 L 464 559 C 464 501 471 447 487 398 C 503 348 525 306 555 271 C 584 235 620 208 662 188 C 704 168 752 158 806 158 C 866 158 919 167 964 186 C 1009 204 1047 231 1077 266 C 1106 300 1128 342 1142 392 C 1156 442 1164 497 1164 559 L 1164 1266 C 1164 1280 1163 1292 1161 1302 C 1159 1312 1157 1320 1153 1328 C 1148 1335 1142 1342 1135 1348 C 1127 1354 1118 1362 1107 1370 C 1097 1377 1089 1383 1083 1388 C 1077 1393 1073 1398 1070 1403 C 1066 1407 1064 1411 1063 1416 C 1062 1421 1062 1427 1062 1434 L 1062 1495 L 1451 1495 L 1451 1434 Z" unicode="U" />
<glyph horiz-adv-x="1442" d="M 1435 1434 C 1435 1420 1432 1410 1427 1403 C 1421 1395 1411 1385 1396 1372 C 1381 1360 1369 1349 1360 1340 C 1350 1331 1342 1322 1335 1312 C 1327 1301 1319 1288 1312 1274 C 1305 1259 1297 1240 1287 1217 L 792 2 C 788 -5 785 -10 782 -13 C 778 -16 772 -18 763 -18 L 697 -18 C 687 -18 679 -16 675 -14 C 670 -11 666 -6 663 2 L 138 1255 C 130 1272 119 1289 103 1307 C 87 1325 64 1342 36 1360 C 24 1367 14 1373 8 1378 C 2 1383 -2 1388 -6 1393 C -8 1397 -10 1401 -10 1406 C -10 1410 -11 1416 -11 1423 L -11 1495 L 540 1495 L 540 1444 C 540 1436 539 1429 539 1425 C 538 1420 536 1416 534 1412 C 530 1408 526 1403 520 1399 C 514 1394 505 1388 495 1380 C 479 1369 467 1358 459 1347 C 451 1335 447 1323 447 1311 C 447 1302 448 1293 451 1284 C 454 1275 458 1265 462 1255 L 783 442 L 1099 1239 C 1105 1255 1109 1270 1112 1283 C 1115 1295 1117 1307 1117 1319 C 1117 1335 1112 1348 1103 1358 C 1093 1367 1081 1376 1066 1384 C 1045 1394 1031 1404 1023 1414 C 1015 1423 1011 1434 1011 1448 L 1011 1495 L 1435 1495 L 1435 1434 Z" unicode="V" />
<glyph horiz-adv-x="2038" d="M 2026 1434 C 2026 1420 2023 1410 2018 1403 C 2013 1395 2003 1385 1988 1372 C 1973 1360 1960 1349 1950 1340 C 1940 1331 1931 1322 1923 1312 C 1915 1301 1907 1288 1900 1274 C 1892 1259 1885 1240 1877 1217 L 1457 2 C 1455 -5 1452 -10 1448 -13 C 1444 -16 1437 -18 1428 -18 L 1359 -18 C 1348 -18 1340 -16 1336 -13 C 1331 -10 1327 -5 1324 2 L 1017 831 L 740 2 C 738 -5 735 -10 731 -13 C 727 -16 721 -18 712 -18 L 640 -18 C 629 -18 621 -16 617 -13 C 612 -10 608 -5 605 2 L 144 1249 C 138 1266 127 1284 112 1304 C 96 1324 74 1342 46 1360 C 34 1367 24 1373 18 1378 C 12 1383 7 1388 5 1393 C 1 1397 0 1401 0 1406 C 0 1410 -1 1416 -1 1423 L -1 1495 L 527 1495 L 527 1444 C 527 1434 526 1426 526 1420 C 526 1414 524 1408 522 1403 C 519 1397 515 1392 510 1387 C 505 1381 498 1375 488 1368 C 470 1355 458 1344 451 1334 C 444 1324 441 1312 441 1300 C 441 1292 442 1282 446 1272 C 449 1262 452 1252 456 1243 L 728 457 L 933 1067 L 869 1249 C 859 1274 847 1295 832 1312 C 817 1329 798 1345 775 1360 C 763 1366 755 1372 749 1377 C 743 1382 738 1387 736 1392 C 732 1396 730 1400 730 1405 C 730 1410 730 1416 730 1423 L 730 1495 L 1250 1495 L 1250 1444 C 1250 1436 1249 1429 1249 1425 C 1248 1420 1246 1416 1244 1412 C 1240 1407 1236 1402 1230 1398 C 1224 1393 1215 1387 1205 1380 C 1187 1368 1175 1356 1167 1345 C 1159 1334 1156 1323 1156 1311 C 1156 1302 1157 1293 1159 1285 C 1161 1276 1164 1266 1168 1255 L 1439 457 L 1691 1239 C 1696 1255 1700 1270 1702 1282 C 1704 1294 1705 1305 1705 1315 C 1705 1333 1701 1347 1693 1357 C 1685 1367 1672 1376 1656 1384 C 1636 1394 1623 1404 1615 1414 C 1607 1423 1603 1434 1603 1448 L 1603 1495 L 2026 1495 L 2026 1434 Z" unicode="W" />
<glyph horiz-adv-x="1372" d="M 1371 0 L 814 0 L 814 51 C 814 59 814 65 815 70 C 815 75 817 80 820 85 C 822 89 825 94 830 99 C 835 103 842 109 851 115 C 862 123 870 131 876 140 C 881 148 884 159 884 172 C 884 184 881 197 875 211 C 869 225 860 240 849 258 L 640 586 L 409 260 C 399 246 391 232 384 218 C 377 204 374 191 374 180 C 374 166 377 154 385 144 C 393 134 406 124 425 115 C 436 109 445 102 452 93 C 458 83 462 71 462 57 L 462 0 L 1 0 L 1 61 C 1 74 3 85 8 94 C 12 102 24 111 44 121 C 61 129 77 137 91 147 C 105 157 119 169 133 183 C 146 196 160 212 175 231 C 190 250 208 273 228 301 L 544 733 L 214 1237 C 204 1252 194 1265 184 1277 C 174 1288 165 1298 155 1308 C 145 1316 134 1325 122 1333 C 110 1341 96 1350 81 1360 C 69 1367 59 1373 53 1378 C 47 1383 42 1388 40 1393 C 36 1397 34 1401 34 1406 C 34 1410 34 1416 34 1423 L 34 1495 L 583 1495 L 583 1444 C 583 1436 582 1429 582 1424 C 581 1419 580 1414 578 1410 C 575 1405 571 1401 566 1397 C 561 1393 554 1388 546 1382 C 535 1374 527 1366 521 1358 C 515 1350 513 1340 513 1329 C 513 1317 515 1305 521 1291 C 526 1277 534 1262 546 1245 L 740 942 L 941 1227 C 953 1244 963 1260 971 1275 C 978 1290 982 1304 982 1317 C 982 1328 978 1339 972 1349 C 966 1359 955 1370 941 1380 C 931 1387 922 1396 915 1406 C 907 1416 904 1429 904 1444 L 904 1495 L 1340 1495 L 1340 1434 C 1340 1420 1337 1409 1332 1400 C 1326 1391 1314 1382 1295 1374 C 1270 1364 1245 1344 1220 1314 C 1194 1284 1164 1246 1129 1198 L 839 793 L 1187 258 C 1197 242 1206 229 1215 218 C 1223 206 1232 196 1242 188 C 1251 178 1261 170 1272 162 C 1283 154 1296 145 1312 137 C 1324 129 1333 123 1341 118 C 1348 113 1354 109 1359 105 C 1363 100 1366 95 1368 90 C 1370 84 1371 78 1371 72 L 1371 0 Z" unicode="X" />
<glyph horiz-adv-x="1280" d="M 1293 1434 C 1293 1420 1290 1410 1284 1404 C 1278 1397 1267 1387 1252 1374 C 1238 1362 1225 1351 1215 1342 C 1205 1333 1195 1323 1186 1313 C 1176 1302 1166 1290 1156 1276 C 1146 1262 1134 1244 1121 1223 L 794 680 L 794 240 C 794 224 794 212 796 203 C 797 193 800 185 804 179 C 808 171 813 164 820 158 C 827 152 837 145 849 137 C 859 130 867 124 873 119 C 879 113 884 108 888 104 C 891 98 893 93 894 88 C 895 83 896 78 896 72 L 896 0 L 404 0 L 404 72 C 404 84 406 94 411 103 C 416 111 429 123 450 137 C 462 145 471 152 479 158 C 487 164 493 171 497 179 C 501 185 503 193 505 203 C 506 212 507 224 507 240 L 507 680 L 140 1257 C 130 1272 117 1288 101 1306 C 85 1323 62 1341 32 1360 C 20 1366 12 1372 6 1377 C 0 1382 -4 1387 -8 1392 C -10 1396 -12 1400 -12 1405 C -12 1410 -13 1416 -13 1423 L -13 1495 L 533 1495 L 533 1444 C 533 1436 532 1429 532 1425 C 531 1420 529 1416 527 1412 C 523 1407 519 1402 513 1398 C 507 1393 498 1387 488 1380 C 474 1370 465 1362 460 1356 C 454 1349 452 1340 452 1329 C 452 1320 454 1310 458 1300 C 462 1289 468 1277 476 1264 L 716 866 L 947 1257 C 956 1273 963 1288 969 1301 C 975 1314 978 1325 978 1333 C 978 1344 974 1353 966 1361 C 958 1368 947 1376 933 1384 C 913 1394 899 1404 891 1414 C 882 1423 878 1434 878 1448 L 878 1495 L 1293 1495 L 1293 1434 Z" unicode="Y" />
<glyph horiz-adv-x="1262" d="M 1205 27 C 1205 19 1204 13 1203 9 C 1202 5 1200 2 1196 0 C 1192 -2 1186 -3 1179 -3 C 1171 -3 1162 -4 1150 -4 C 1141 -4 1129 -3 1115 -3 C 1101 -3 1086 -2 1071 -2 C 1055 -1 1040 0 1025 0 C 1010 0 998 0 988 0 L 32 0 L 32 74 C 32 95 35 113 42 127 C 48 141 57 156 69 174 L 830 1331 L 562 1331 C 504 1331 459 1329 425 1327 C 391 1325 363 1319 342 1310 C 320 1300 303 1285 289 1265 C 275 1245 261 1218 245 1184 C 239 1172 231 1163 221 1157 C 211 1150 196 1147 177 1147 L 112 1147 L 112 1477 C 112 1484 112 1490 113 1494 C 114 1498 116 1501 120 1503 C 122 1504 127 1504 133 1504 C 139 1504 147 1503 157 1503 C 165 1501 176 1500 191 1500 C 206 1499 222 1498 239 1498 C 255 1496 272 1495 288 1495 C 304 1495 318 1495 329 1495 L 1193 1495 L 1193 1411 C 1193 1402 1192 1394 1191 1387 C 1190 1380 1189 1374 1187 1368 C 1184 1361 1181 1354 1177 1347 C 1173 1340 1168 1332 1162 1323 L 396 166 L 783 166 C 831 166 870 169 901 175 C 932 181 958 190 980 204 C 1000 216 1018 233 1032 255 C 1046 276 1059 302 1072 332 C 1077 344 1082 353 1086 361 C 1090 368 1095 374 1100 379 C 1104 383 1109 386 1115 388 C 1121 390 1128 391 1136 391 L 1205 391 L 1205 27 Z" unicode="Z" />
<glyph horiz-adv-x="704" d="M 656 -385 L 155 -385 L 155 1495 L 656 1495 L 656 1403 L 409 1403 L 409 -295 L 656 -295 L 656 -385 Z" unicode="[" />
<glyph horiz-adv-x="846" d="M 935 -389 L 755 -389 L 24 1495 L 206 1495 L 935 -389 Z" unicode="\" />
<glyph horiz-adv-x="704" d="M 550 -385 L 48 -385 L 48 -295 L 296 -295 L 296 1403 L 48 1403 L 48 1495 L 550 1495 L 550 -385 Z" unicode="]" />
<glyph horiz-adv-x="1518" d="M 1318 643 L 1123 643 L 759 1321 L 394 643 L 200 643 L 683 1495 L 835 1495 L 1318 643 Z" unicode="^" />
<glyph horiz-adv-x="1026" d="M 1031 -211 L -5 -211 L -5 -102 L 1031 -102 L 1031 -211 Z" unicode="_" />
<glyph horiz-adv-x="842" d="M 638 1016 L 574 973 L 277 1159 C 241 1181 215 1202 201 1222 C 186 1241 179 1261 179 1282 C 179 1308 187 1332 203 1352 C 219 1372 243 1382 273 1382 C 281 1382 291 1381 301 1380 C 311 1378 321 1376 332 1372 C 342 1367 353 1360 364 1352 C 375 1344 386 1333 398 1319 L 638 1016 Z" unicode="`" />
<glyph horiz-adv-x="967" d="M 1000 113 C 991 95 979 79 965 64 C 951 49 935 36 917 25 C 898 13 878 4 857 -2 C 836 -8 815 -12 794 -12 C 756 -12 719 -3 685 15 C 651 33 623 62 603 102 C 586 82 567 64 546 49 C 525 34 503 22 480 12 C 456 2 431 -5 406 -10 C 380 -15 355 -18 331 -18 C 293 -18 256 -12 221 -1 C 185 9 154 26 128 48 C 100 70 78 97 62 130 C 46 162 38 200 38 244 C 38 289 49 331 71 371 C 93 411 127 445 172 475 C 216 504 272 527 339 544 C 406 560 484 569 574 569 C 574 631 562 678 538 710 C 514 742 477 758 425 758 C 410 758 398 756 388 754 C 378 752 372 750 368 748 C 361 695 344 656 318 631 C 291 606 261 594 228 594 C 209 594 192 597 178 603 C 163 609 151 618 141 630 C 131 640 123 653 118 668 C 112 682 110 698 110 715 C 110 735 116 756 128 778 C 140 800 160 820 187 838 C 213 855 246 869 287 880 C 327 891 376 897 433 897 C 503 897 564 887 614 869 C 664 850 706 824 738 792 C 770 758 793 719 808 673 C 822 627 830 578 830 524 L 830 229 C 830 205 836 188 850 177 C 863 165 880 160 902 160 C 910 160 919 161 928 165 C 937 168 945 172 951 176 C 953 173 956 169 960 164 C 964 159 969 154 974 148 C 978 142 983 135 988 129 C 992 123 996 117 1000 113 Z M 570 266 L 570 453 C 530 451 493 445 460 435 C 427 425 399 412 377 396 C 353 378 335 358 323 336 C 310 313 304 288 304 260 C 304 237 307 217 314 201 C 320 185 329 172 341 162 C 352 151 365 143 380 138 C 394 133 409 131 425 131 C 443 131 460 134 478 140 C 495 146 511 154 525 166 C 538 177 549 191 557 208 C 565 225 570 244 570 266 Z" unicode="a" />
<glyph horiz-adv-x="1063" d="M 1023 446 C 1023 386 1013 328 994 272 C 975 216 948 167 912 125 C 875 81 830 47 777 21 C 724 -5 664 -18 597 -18 C 547 -18 504 -12 466 0 C 428 12 393 27 361 47 C 351 53 344 57 338 61 C 332 64 327 66 323 67 C 318 67 313 65 307 63 C 301 60 294 56 284 51 C 274 46 266 42 258 38 C 250 34 242 29 234 25 C 224 20 214 15 202 9 C 190 3 176 -4 159 -12 C 148 -17 139 -19 133 -17 C 127 -15 124 -10 124 -2 L 124 1262 C 124 1278 123 1290 123 1300 C 122 1309 120 1317 118 1324 C 114 1330 110 1335 104 1341 C 98 1346 89 1352 79 1360 C 70 1365 63 1369 58 1373 C 52 1377 48 1380 46 1384 C 42 1386 40 1389 39 1393 C 38 1396 38 1401 38 1407 L 38 1473 L 384 1495 L 384 801 C 394 810 407 820 423 830 C 438 840 456 849 477 858 C 497 866 519 873 545 879 C 570 884 598 887 630 887 C 678 887 726 878 773 860 C 820 842 862 815 900 779 C 936 742 966 696 989 641 C 1011 585 1023 520 1023 446 Z M 757 442 C 757 498 751 544 740 581 C 729 618 715 648 697 671 C 679 693 658 708 635 717 C 611 726 587 731 562 731 C 522 731 488 724 460 710 C 432 696 406 675 384 649 L 384 201 C 390 194 399 187 409 179 C 419 171 432 163 446 157 C 459 150 474 144 490 140 C 506 135 524 133 544 133 C 580 133 612 140 639 155 C 665 169 688 190 706 217 C 723 243 736 276 744 314 C 752 352 757 394 757 442 Z" unicode="b" />
<glyph horiz-adv-x="844" d="M 865 190 C 852 168 835 145 813 121 C 791 97 765 74 734 54 C 702 33 666 16 625 2 C 584 -11 538 -18 486 -18 C 424 -18 367 -8 313 12 C 259 32 211 61 171 99 C 130 136 98 182 75 237 C 51 291 40 354 40 424 C 40 485 51 543 73 599 C 95 654 125 703 165 745 C 204 786 251 819 306 844 C 361 868 422 881 488 881 C 544 881 592 874 632 861 C 672 848 704 832 730 812 C 755 792 774 770 786 746 C 798 722 804 698 804 676 C 804 652 800 630 792 612 C 784 594 775 579 763 567 C 751 555 737 545 722 539 C 707 533 692 530 677 530 C 659 530 643 532 628 537 C 612 542 599 550 587 560 C 575 570 565 582 558 598 C 551 613 548 631 548 653 C 548 662 548 672 550 684 C 552 696 554 707 558 719 C 552 723 544 726 532 730 C 520 733 508 735 497 735 C 464 735 436 727 412 713 C 388 699 368 679 353 655 C 337 629 325 600 317 566 C 309 532 306 495 306 455 C 306 417 310 381 319 345 C 327 309 341 276 360 248 C 378 219 402 196 430 178 C 458 160 493 152 533 152 C 561 152 586 155 609 163 C 631 170 652 180 672 192 C 691 204 709 217 727 233 C 744 249 761 265 777 283 L 865 190 Z" unicode="c" />
<glyph horiz-adv-x="1067" d="M 1017 0 L 683 0 L 683 102 C 654 67 620 39 580 17 C 540 -5 491 -16 435 -16 C 375 -16 321 -4 273 18 C 224 41 183 73 149 114 C 114 154 87 201 68 256 C 49 311 40 370 40 434 C 40 505 50 569 72 625 C 94 681 123 728 159 768 C 195 806 236 836 284 856 C 331 876 381 887 433 887 C 463 887 491 884 515 879 C 539 873 560 867 580 859 C 598 850 615 840 630 829 C 645 818 659 807 671 795 L 671 1262 C 671 1278 670 1290 670 1300 C 669 1309 667 1317 665 1324 C 661 1330 656 1335 650 1341 C 644 1346 635 1352 624 1360 C 607 1370 596 1378 592 1383 C 587 1387 585 1395 585 1407 L 585 1473 L 931 1495 L 931 211 C 931 195 931 182 932 173 C 932 163 934 156 938 150 C 940 143 945 137 951 132 C 957 126 965 120 976 113 C 992 101 1003 93 1009 88 C 1014 83 1017 76 1017 66 L 1017 0 Z M 671 231 L 671 647 C 650 670 626 689 600 705 C 574 721 542 729 505 729 C 467 729 436 721 411 705 C 386 689 366 668 351 642 C 335 615 324 585 318 551 C 311 517 308 482 308 446 C 308 394 313 351 324 315 C 334 279 349 249 367 227 C 385 203 406 186 430 176 C 454 165 479 160 505 160 C 533 160 562 166 592 178 C 621 190 647 208 671 231 Z" unicode="d" />
<glyph horiz-adv-x="930" d="M 896 494 C 896 474 891 460 882 451 C 873 442 858 438 837 438 L 294 438 C 295 400 301 362 311 326 C 321 290 337 257 357 229 C 377 200 402 177 433 159 C 463 141 500 133 542 133 C 569 133 595 137 620 146 C 645 155 669 167 691 182 C 713 196 733 213 753 231 C 772 249 790 267 806 285 L 888 199 C 877 179 860 156 838 131 C 815 106 787 83 755 61 C 721 38 683 19 641 4 C 598 -10 551 -18 499 -18 C 423 -18 356 -5 299 20 C 242 45 194 79 156 121 C 117 162 88 209 69 262 C 49 315 40 370 40 426 C 40 484 49 541 67 597 C 85 653 113 704 151 749 C 188 793 235 828 291 856 C 347 883 414 897 490 897 C 558 897 618 884 669 860 C 720 835 762 803 796 765 C 829 726 854 683 871 635 C 887 587 896 540 896 494 Z M 626 575 C 626 599 623 622 618 643 C 612 664 604 683 593 699 C 581 714 565 726 547 735 C 528 743 505 748 478 748 C 456 748 435 743 416 735 C 397 726 380 714 366 699 C 350 683 338 665 328 644 C 318 623 312 600 308 575 L 626 575 Z" unicode="e" />
<glyph horiz-adv-x="629" d="M 746 1346 C 746 1306 735 1274 713 1248 C 691 1222 658 1210 615 1210 C 600 1210 585 1212 570 1218 C 554 1223 541 1231 529 1243 C 516 1254 506 1268 498 1286 C 490 1303 486 1324 486 1348 C 460 1338 442 1320 431 1292 C 420 1264 415 1222 415 1165 L 415 862 L 660 862 L 660 715 L 417 715 L 417 211 C 417 195 417 182 418 172 C 418 162 420 155 424 149 C 426 142 431 136 437 131 C 443 125 452 119 464 113 C 481 101 492 93 497 88 C 502 83 505 76 505 66 L 505 0 L 73 0 L 73 66 C 73 76 75 83 80 88 C 84 93 95 101 112 113 C 122 120 131 126 137 132 C 143 137 147 143 151 150 C 153 156 155 163 156 173 C 156 182 157 195 157 211 L 157 715 L 75 715 L 75 809 C 75 812 75 815 76 818 C 77 820 80 823 84 827 C 87 830 92 834 99 838 C 106 842 116 848 128 856 C 141 864 149 873 152 883 C 155 893 157 908 157 930 C 157 973 161 1017 169 1062 C 177 1107 189 1151 205 1193 C 220 1235 239 1274 262 1311 C 284 1348 310 1380 340 1408 C 369 1435 401 1457 437 1473 C 473 1489 512 1497 554 1497 C 590 1497 620 1492 644 1483 C 668 1473 688 1462 704 1448 C 718 1433 729 1417 736 1399 C 742 1381 746 1363 746 1346 Z" unicode="f" />
<glyph horiz-adv-x="952" d="M 982 797 C 982 782 979 769 974 758 C 968 747 962 738 954 731 C 946 723 937 717 927 713 C 917 709 907 707 898 707 C 880 707 865 709 852 715 C 838 720 828 725 822 731 C 812 739 802 744 792 745 C 782 745 775 744 771 741 C 790 715 804 687 813 657 C 821 627 826 597 826 567 C 826 524 817 483 801 444 C 785 405 761 371 729 341 C 697 311 657 287 610 269 C 562 251 507 242 445 242 C 421 242 398 244 375 248 C 351 252 328 258 306 266 L 257 156 C 277 159 302 161 332 163 C 362 165 393 166 425 166 C 581 166 698 144 776 101 C 853 57 892 -12 892 -109 C 892 -155 879 -197 855 -234 C 831 -270 797 -302 755 -328 C 712 -353 662 -372 605 -386 C 548 -399 487 -406 423 -406 C 362 -406 309 -401 264 -392 C 219 -383 182 -371 152 -356 C 122 -340 99 -322 84 -302 C 69 -281 62 -259 62 -236 C 62 -215 65 -197 72 -181 C 79 -165 88 -151 100 -141 C 110 -130 123 -122 137 -117 C 151 -111 165 -109 179 -109 C 214 -109 242 -119 262 -141 C 282 -163 292 -194 292 -236 C 294 -238 300 -241 310 -244 C 320 -247 331 -250 345 -253 C 357 -255 371 -257 385 -259 C 399 -261 411 -262 421 -262 C 447 -262 476 -259 507 -254 C 537 -248 566 -241 592 -231 C 618 -221 639 -208 657 -194 C 674 -179 683 -162 683 -143 C 683 -126 676 -112 664 -100 C 651 -88 633 -79 610 -73 C 586 -65 557 -60 523 -57 C 489 -54 451 -53 409 -53 L 200 -53 C 182 -53 161 -53 136 -55 C 111 -57 88 -59 67 -63 C 48 -65 36 -66 30 -64 C 24 -62 20 -58 17 -51 C 13 -42 13 -35 15 -30 C 17 -25 21 -17 28 -6 C 46 29 62 61 77 89 C 92 117 106 144 120 170 C 132 194 145 218 158 242 C 170 266 184 291 198 317 C 154 346 119 382 92 424 C 65 466 52 513 52 567 C 52 615 62 659 82 700 C 102 740 129 775 165 805 C 199 833 241 856 289 872 C 337 888 390 897 447 897 C 503 897 554 889 598 873 C 642 857 680 835 712 809 C 718 819 727 829 737 840 C 747 850 759 860 773 869 C 786 877 801 884 817 890 C 833 895 851 897 871 897 C 901 897 927 889 949 873 C 971 857 982 831 982 797 Z M 589 567 C 589 591 586 615 580 637 C 574 659 566 679 555 696 C 543 712 529 725 511 735 C 493 745 471 750 447 750 C 423 750 402 745 385 735 C 367 725 353 711 342 695 C 330 678 321 658 316 636 C 310 614 308 591 308 567 C 308 507 320 460 346 425 C 372 390 408 373 454 373 C 474 373 493 378 510 389 C 526 399 541 414 553 432 C 564 450 573 470 579 494 C 585 517 589 541 589 567 Z" unicode="g" />
<glyph horiz-adv-x="1102" d="M 1050 0 L 617 0 L 617 66 C 617 76 619 83 624 88 C 629 93 640 101 658 113 C 668 119 677 125 683 131 C 689 136 693 142 697 149 C 699 155 701 162 702 172 C 702 182 703 195 703 211 L 703 569 C 703 593 699 615 692 633 C 684 651 675 666 663 678 C 650 690 635 698 618 704 C 601 710 583 713 564 713 C 533 713 503 704 473 687 C 443 670 418 646 398 614 L 398 211 C 398 195 398 182 399 172 C 399 162 401 155 405 149 C 407 142 412 136 418 131 C 424 125 432 119 443 113 C 460 101 471 93 476 88 C 481 83 484 76 484 66 L 484 0 L 52 0 L 52 66 C 52 70 52 74 53 78 C 54 81 56 84 60 88 C 62 90 66 94 72 98 C 77 102 84 107 93 113 C 103 119 112 125 118 131 C 124 136 128 142 132 149 C 134 155 136 162 137 172 C 137 182 138 195 138 211 L 138 1262 C 138 1278 137 1290 137 1300 C 136 1309 134 1317 132 1324 C 128 1330 124 1335 118 1341 C 112 1346 103 1352 93 1360 C 84 1365 77 1369 72 1373 C 66 1377 62 1380 60 1384 C 56 1386 54 1389 53 1393 C 52 1396 52 1401 52 1407 L 52 1473 L 398 1495 L 398 774 C 430 806 468 833 513 855 C 557 876 611 887 675 887 C 721 887 762 880 798 866 C 834 852 864 832 889 806 C 913 780 931 748 944 712 C 957 675 964 634 964 590 L 964 211 C 964 195 964 182 964 172 C 964 162 966 155 970 149 C 972 142 977 136 983 131 C 989 125 997 119 1009 113 C 1026 101 1037 93 1042 88 C 1047 83 1050 76 1050 66 L 1050 0 Z" unicode="h" />
<glyph horiz-adv-x="559" d="M 505 0 L 73 0 L 73 66 C 73 76 75 83 80 88 C 85 93 96 101 114 113 C 125 119 134 125 140 131 C 146 136 150 142 154 149 C 156 155 158 162 158 172 C 158 182 159 195 159 211 L 159 645 C 159 661 158 675 158 685 C 157 695 155 703 153 710 C 149 716 144 722 138 727 C 132 731 123 737 112 745 C 94 756 83 764 79 770 C 75 776 73 783 73 793 L 73 858 L 419 881 L 419 211 C 419 195 419 182 420 172 C 420 162 422 155 426 149 C 428 142 433 136 439 131 C 445 125 453 119 464 113 C 481 101 492 93 497 88 C 502 83 505 76 505 66 L 505 0 Z M 441 1298 C 441 1276 437 1255 429 1236 C 421 1217 410 1201 396 1187 C 381 1172 364 1161 345 1153 C 326 1145 306 1141 284 1141 C 262 1141 242 1145 223 1153 C 204 1161 188 1172 174 1187 C 160 1201 148 1217 140 1236 C 132 1255 128 1276 128 1298 C 128 1319 132 1339 140 1359 C 148 1378 160 1395 174 1410 C 188 1424 204 1435 223 1443 C 242 1451 262 1456 284 1456 C 306 1456 326 1451 345 1443 C 364 1435 381 1424 396 1410 C 410 1395 421 1378 429 1359 C 437 1339 441 1319 441 1298 Z" unicode="i" />
<glyph horiz-adv-x="539" d="M 417 33 C 417 -30 407 -88 389 -142 C 371 -195 346 -241 314 -280 C 281 -318 243 -348 199 -370 C 155 -392 108 -403 58 -403 C 24 -403 -5 -398 -30 -390 C -54 -381 -75 -370 -91 -356 C -107 -341 -118 -325 -126 -307 C -134 -289 -138 -270 -138 -252 C -138 -236 -135 -220 -130 -205 C -124 -190 -117 -177 -107 -166 C -96 -154 -83 -144 -69 -137 C -54 -130 -37 -127 -19 -127 C 3 -127 21 -131 36 -139 C 51 -147 63 -158 72 -172 C 80 -184 86 -199 89 -215 C 92 -231 93 -248 91 -264 C 103 -264 113 -262 121 -259 C 129 -255 135 -249 141 -240 C 145 -230 149 -216 151 -200 C 153 -183 155 -161 155 -135 L 155 645 C 155 661 154 675 153 685 C 152 695 150 703 147 710 C 143 716 138 721 132 726 C 125 731 116 737 105 745 C 96 751 89 756 84 760 C 78 764 74 767 72 771 C 68 774 66 777 65 781 C 64 784 64 788 64 793 L 64 858 L 417 881 L 417 33 Z M 419 1298 C 419 1276 414 1255 406 1236 C 398 1217 387 1201 373 1187 C 359 1172 342 1161 323 1153 C 303 1145 283 1141 261 1141 C 239 1141 219 1145 200 1153 C 181 1161 165 1172 151 1187 C 137 1201 125 1217 117 1236 C 109 1255 105 1276 105 1298 C 105 1319 109 1339 117 1359 C 125 1378 137 1395 151 1410 C 165 1424 181 1435 200 1443 C 219 1451 239 1456 261 1456 C 283 1456 303 1451 323 1443 C 342 1435 359 1424 373 1410 C 387 1395 398 1378 406 1359 C 414 1339 419 1319 419 1298 Z" unicode="j" />
<glyph horiz-adv-x="1079" d="M 1088 0 L 583 0 L 583 66 C 583 76 585 83 589 87 C 593 91 603 99 619 111 C 631 118 641 125 647 133 C 653 140 656 148 656 156 C 656 162 653 169 649 178 C 645 186 639 196 632 207 C 615 231 601 251 590 268 C 578 284 568 299 560 313 C 550 326 541 339 533 351 C 524 363 514 377 503 393 L 398 313 L 398 211 C 398 195 398 182 399 172 C 399 162 401 155 405 149 C 407 142 412 136 418 131 C 424 125 432 119 443 113 C 451 107 458 102 464 98 C 469 94 473 90 477 88 C 479 84 481 81 482 78 C 483 74 484 70 484 66 L 484 0 L 52 0 L 52 66 C 52 70 52 74 53 78 C 54 81 56 84 60 88 C 62 90 66 94 72 98 C 77 102 84 107 93 113 C 103 119 112 125 118 131 C 124 136 128 142 132 149 C 134 155 136 162 137 172 C 137 182 138 195 138 211 L 138 1262 C 138 1278 137 1290 137 1300 C 136 1309 134 1317 132 1324 C 128 1330 124 1335 118 1341 C 112 1346 103 1352 93 1360 C 84 1365 77 1369 72 1373 C 66 1377 62 1380 60 1384 C 56 1386 54 1389 53 1393 C 52 1396 52 1401 52 1407 L 52 1473 L 398 1495 L 398 471 C 436 501 469 527 495 549 C 521 570 542 588 560 603 C 576 617 590 629 601 639 C 611 649 621 658 630 666 C 643 676 653 685 659 693 C 665 701 669 709 669 715 C 669 723 666 730 661 735 C 656 739 645 747 628 758 C 610 768 599 775 595 781 C 591 786 589 793 589 803 L 589 862 L 1056 862 L 1056 797 C 1056 786 1054 778 1050 772 C 1046 766 1034 759 1015 752 C 985 740 958 729 935 718 C 912 707 889 694 867 680 C 844 664 820 647 794 627 C 768 607 737 582 703 553 C 731 511 755 475 777 444 C 799 413 818 386 836 362 C 853 337 869 315 883 295 C 897 275 910 256 923 238 C 934 221 944 207 952 196 C 960 185 969 176 979 168 C 987 159 997 151 1008 144 C 1018 137 1032 129 1048 121 C 1065 111 1076 105 1081 101 C 1085 97 1088 91 1088 84 L 1088 0 Z" unicode="k" />
<glyph horiz-adv-x="537" d="M 484 0 L 52 0 L 52 66 C 52 70 52 74 53 78 C 54 81 56 84 60 88 C 62 90 66 94 72 98 C 77 102 84 107 93 113 C 103 119 112 125 118 131 C 124 136 128 142 132 149 C 134 155 136 162 137 172 C 137 182 138 195 138 211 L 138 1262 C 138 1278 137 1290 137 1300 C 136 1309 134 1317 132 1324 C 128 1330 124 1335 118 1341 C 112 1346 103 1352 93 1360 C 84 1365 77 1369 72 1373 C 66 1377 62 1380 60 1384 C 56 1386 54 1389 53 1393 C 52 1396 52 1401 52 1407 L 52 1473 L 398 1495 L 398 211 C 398 195 398 182 399 172 C 399 162 401 155 405 149 C 407 142 412 136 418 131 C 424 125 432 119 443 113 C 451 107 458 102 464 98 C 469 94 473 90 477 88 C 479 84 481 81 482 78 C 483 74 484 70 484 66 L 484 0 Z" unicode="l" />
<glyph horiz-adv-x="1640" d="M 1588 0 L 1158 0 L 1158 66 C 1158 70 1158 74 1159 78 C 1160 81 1162 84 1166 88 C 1168 90 1172 94 1178 98 C 1183 102 1190 107 1199 113 C 1209 119 1218 125 1224 131 C 1230 136 1234 142 1237 149 C 1239 155 1241 162 1241 172 C 1241 182 1242 195 1242 211 L 1242 569 C 1242 614 1229 649 1203 675 C 1177 700 1143 713 1101 713 C 1088 713 1075 711 1061 707 C 1047 703 1034 698 1022 692 C 1009 684 997 676 986 666 C 975 656 966 645 959 633 L 959 211 C 959 195 959 182 959 172 C 959 162 961 155 964 149 C 966 142 970 136 976 131 C 982 125 990 119 1002 113 C 1019 101 1030 93 1035 88 C 1040 83 1043 76 1043 66 L 1043 0 L 615 0 L 615 66 C 615 70 615 74 616 78 C 617 81 619 84 623 88 C 625 90 629 94 635 98 C 640 102 647 107 656 113 C 666 119 675 125 681 131 C 687 136 691 142 694 149 C 696 155 698 162 698 172 C 698 182 699 195 699 211 L 699 555 C 699 606 688 645 666 672 C 644 699 613 713 574 713 C 542 713 512 704 484 688 C 456 671 433 650 417 625 L 417 211 C 417 195 417 182 417 172 C 417 162 419 155 422 149 C 424 142 428 136 434 131 C 440 125 448 119 460 113 C 477 101 488 93 493 88 C 498 83 501 76 501 66 L 501 0 L 71 0 L 71 66 C 71 70 71 74 72 78 C 73 81 75 84 79 88 C 81 90 85 94 91 98 C 96 102 103 107 112 113 C 122 119 131 125 137 131 C 143 136 147 142 151 149 C 153 155 155 162 156 172 C 156 182 157 195 157 211 L 157 645 C 157 661 156 674 156 684 C 155 694 153 702 151 709 C 147 715 143 721 137 726 C 131 731 122 737 112 745 C 103 751 96 755 91 759 C 85 762 81 765 79 769 C 75 771 73 774 72 778 C 71 781 71 785 71 791 L 71 858 L 404 881 L 404 760 C 418 774 433 789 451 804 C 469 819 489 833 511 846 C 533 858 557 867 585 875 C 612 883 643 887 677 887 C 737 887 786 875 825 853 C 863 831 895 798 919 754 C 959 796 1002 828 1047 852 C 1091 875 1143 887 1203 887 C 1248 887 1289 880 1326 866 C 1363 852 1395 832 1421 806 C 1447 780 1467 748 1481 712 C 1495 675 1502 634 1502 590 L 1502 211 C 1502 195 1502 182 1503 172 C 1503 162 1505 155 1509 149 C 1511 142 1516 136 1522 131 C 1528 125 1536 119 1547 113 C 1555 107 1562 102 1568 98 C 1573 94 1577 90 1581 88 C 1583 84 1585 81 1586 78 C 1587 74 1588 70 1588 66 L 1588 0 Z" unicode="m" />
<glyph horiz-adv-x="1120" d="M 1068 0 L 636 0 L 636 66 C 636 76 638 83 643 88 C 648 93 659 101 677 113 C 687 119 696 125 702 131 C 708 136 712 142 716 149 C 718 155 720 162 721 172 C 721 182 722 195 722 211 L 722 569 C 722 593 718 614 711 632 C 703 650 694 664 682 676 C 669 686 654 694 637 699 C 620 704 602 707 583 707 C 567 707 551 705 535 701 C 519 697 503 692 489 686 C 474 678 460 669 448 659 C 435 649 425 637 417 625 L 417 211 C 417 195 417 182 418 173 C 418 163 420 156 424 150 C 426 143 431 137 437 132 C 443 126 451 120 462 113 C 479 101 490 93 495 88 C 500 83 503 76 503 66 L 503 0 L 71 0 L 71 66 C 71 76 73 83 78 88 C 83 93 94 101 112 113 C 122 119 131 125 137 131 C 143 136 147 142 151 149 C 153 155 155 162 156 172 C 156 182 157 195 157 211 L 157 645 C 157 661 156 674 156 684 C 155 694 153 702 151 709 C 147 715 143 721 137 726 C 131 731 122 737 112 745 C 103 751 96 755 91 759 C 85 762 81 765 79 769 C 75 771 73 774 72 778 C 71 781 71 785 71 791 L 71 858 L 404 881 L 404 768 C 420 784 438 799 458 813 C 478 827 501 840 525 852 C 549 862 575 871 603 877 C 631 883 661 887 693 887 C 739 887 780 880 816 866 C 852 852 882 832 907 806 C 931 780 950 748 963 712 C 975 675 982 634 982 590 L 982 211 C 982 195 982 182 983 173 C 983 163 985 156 989 150 C 991 143 996 137 1002 132 C 1008 126 1016 120 1027 113 C 1044 101 1055 93 1060 88 C 1065 83 1068 76 1068 66 L 1068 0 Z" unicode="n" />
<glyph horiz-adv-x="1003" d="M 964 438 C 964 372 952 311 930 255 C 907 199 875 151 835 111 C 794 70 745 38 689 16 C 632 -6 570 -18 503 -18 C 435 -18 372 -6 315 15 C 258 37 209 69 169 110 C 128 150 96 197 74 253 C 51 309 40 370 40 438 C 40 504 51 566 74 622 C 96 678 128 727 169 768 C 209 808 258 840 315 863 C 372 885 435 897 503 897 C 570 897 632 885 689 863 C 745 840 794 808 835 768 C 875 727 907 678 930 622 C 952 566 964 504 964 438 Z M 691 438 C 691 535 675 610 643 663 C 611 716 565 743 503 743 C 440 743 392 716 360 663 C 328 610 312 535 312 438 C 312 340 328 265 360 213 C 392 161 440 135 503 135 C 565 135 611 161 643 213 C 675 265 691 340 691 438 Z" unicode="o" />
<glyph horiz-adv-x="1057" d="M 1017 446 C 1017 386 1007 328 989 273 C 970 217 944 168 910 126 C 875 82 834 48 786 22 C 738 -3 684 -16 626 -16 C 598 -16 573 -13 551 -8 C 528 -3 507 2 489 10 C 470 17 453 25 438 35 C 423 44 410 53 398 63 L 398 -178 C 398 -194 398 -206 399 -216 C 400 -226 402 -234 406 -241 C 408 -247 413 -252 419 -258 C 425 -263 434 -269 445 -276 C 453 -282 460 -287 466 -291 C 471 -295 475 -298 479 -302 C 481 -304 483 -307 484 -311 C 485 -314 486 -318 486 -324 L 486 -389 L 52 -389 L 52 -324 C 52 -318 52 -314 53 -311 C 54 -307 56 -304 60 -302 C 62 -298 66 -295 72 -291 C 77 -287 84 -282 93 -276 C 103 -269 112 -263 118 -258 C 124 -252 128 -247 132 -241 C 134 -234 136 -226 137 -216 C 137 -206 138 -194 138 -178 L 138 645 C 138 661 137 674 137 684 C 136 694 134 702 132 709 C 128 715 124 721 118 726 C 112 731 103 737 93 745 C 84 751 77 755 72 759 C 66 762 62 765 60 769 C 56 771 54 774 53 778 C 52 781 52 785 52 791 L 52 858 L 386 881 L 386 770 C 397 783 411 796 428 810 C 444 824 463 836 485 848 C 506 859 529 868 555 876 C 581 883 608 887 638 887 C 690 887 739 876 785 856 C 831 835 871 806 906 768 C 940 730 967 683 987 629 C 1007 575 1017 514 1017 446 Z M 749 442 C 749 484 744 522 734 555 C 724 587 711 615 695 638 C 677 660 657 677 635 689 C 613 701 589 707 564 707 C 545 707 527 704 511 699 C 494 693 479 686 465 678 C 450 669 437 659 426 648 C 414 637 405 626 398 616 L 398 207 C 416 187 439 171 466 157 C 492 143 524 137 560 137 C 586 137 611 142 634 153 C 657 164 677 182 695 207 C 711 231 724 262 734 301 C 744 339 749 386 749 442 Z" unicode="p" />
<glyph horiz-adv-x="1036" d="M 1000 -389 L 566 -389 L 566 -324 C 566 -318 566 -314 567 -311 C 568 -307 570 -304 574 -301 C 576 -297 580 -294 586 -290 C 591 -286 598 -282 607 -276 C 618 -269 627 -263 633 -258 C 639 -252 644 -247 648 -241 C 650 -234 652 -226 653 -216 C 653 -206 654 -194 654 -178 L 654 82 C 642 72 628 63 614 53 C 600 43 584 35 566 27 C 548 19 528 12 506 7 C 484 2 459 0 431 0 C 373 0 320 12 272 36 C 224 60 183 92 149 134 C 114 174 87 221 68 275 C 49 329 40 386 40 446 C 40 514 51 575 75 631 C 98 686 129 733 168 773 C 206 812 249 842 298 864 C 347 886 398 897 450 897 C 484 897 515 895 541 891 C 567 887 591 881 613 874 C 634 866 654 856 673 845 C 692 833 712 821 734 807 C 742 801 748 797 753 795 C 757 792 762 791 766 792 C 770 792 774 793 778 796 C 782 798 788 803 794 809 C 800 814 808 822 818 832 C 828 842 839 852 850 862 C 856 868 862 874 868 880 C 874 886 881 893 888 899 L 914 881 L 914 -178 C 914 -194 914 -206 915 -216 C 915 -225 917 -233 921 -240 C 923 -246 928 -251 934 -257 C 940 -262 948 -268 959 -276 C 967 -282 973 -286 979 -290 C 984 -294 988 -297 992 -301 C 994 -304 996 -307 998 -311 C 999 -314 1000 -318 1000 -324 L 1000 -389 Z M 654 219 L 654 696 C 642 712 624 726 600 736 C 576 746 548 752 517 752 C 489 752 463 746 438 735 C 413 723 391 706 372 682 C 352 657 337 625 325 587 C 313 549 308 503 308 449 C 308 393 313 347 324 309 C 335 271 350 240 369 217 C 387 193 407 176 431 166 C 454 155 478 150 503 150 C 533 150 561 156 587 168 C 613 180 635 197 654 219 Z" unicode="q" />
<glyph horiz-adv-x="790" d="M 802 739 C 802 720 799 702 793 684 C 787 666 779 651 768 638 C 756 624 742 612 725 604 C 707 596 687 592 665 592 C 651 592 639 594 627 598 C 615 602 603 608 593 616 C 582 623 573 631 565 641 C 557 650 552 660 548 670 C 533 670 518 664 503 652 C 487 640 473 624 461 604 C 448 583 437 558 429 529 C 421 500 417 468 417 434 L 417 211 C 417 195 417 182 418 172 C 418 162 420 155 424 149 C 426 142 431 136 437 131 C 443 125 452 119 464 113 C 481 101 492 93 497 88 C 502 83 505 76 505 66 L 505 0 L 71 0 L 71 66 C 71 70 71 74 72 78 C 73 81 75 84 79 88 C 81 90 85 94 91 98 C 96 102 103 107 112 113 C 122 119 131 125 137 131 C 143 136 147 142 151 149 C 153 155 155 162 156 172 C 156 182 157 195 157 211 L 157 645 C 157 661 156 674 156 684 C 155 694 153 702 151 709 C 147 715 143 721 137 726 C 131 731 122 737 112 745 C 102 751 94 756 89 760 C 83 764 79 767 77 771 C 74 773 72 776 72 779 C 71 782 71 786 71 791 L 71 858 L 404 881 L 404 707 C 418 731 434 755 451 777 C 468 799 487 818 507 835 C 527 851 548 863 570 873 C 592 882 616 887 642 887 C 670 887 694 882 714 874 C 734 865 750 854 764 840 C 776 826 786 810 792 792 C 798 774 802 757 802 739 Z" unicode="r" />
<glyph horiz-adv-x="743" d="M 714 268 C 714 234 706 200 691 166 C 676 132 654 101 625 74 C 595 46 559 24 515 7 C 471 -9 419 -18 361 -18 C 311 -18 266 -12 225 -1 C 184 9 149 24 120 43 C 90 61 68 83 52 107 C 36 131 28 157 28 184 C 28 200 30 215 36 231 C 42 246 50 260 61 273 C 71 285 84 294 99 302 C 114 309 131 313 151 313 C 175 313 194 309 210 301 C 226 293 238 283 248 271 C 257 258 263 244 267 230 C 271 216 273 202 273 190 C 273 180 271 171 269 164 C 267 157 265 151 263 147 C 281 133 300 125 318 123 C 336 120 355 119 374 119 C 416 119 450 127 477 143 C 503 159 517 182 517 211 C 517 226 512 240 502 252 C 492 264 479 275 461 286 C 442 296 420 307 394 317 C 368 327 338 338 306 350 C 262 365 224 383 194 403 C 164 423 140 446 122 470 C 103 493 89 518 81 545 C 73 571 69 599 69 627 C 69 663 77 698 93 730 C 109 762 132 789 161 813 C 189 836 221 854 259 868 C 296 882 336 889 378 889 C 424 889 465 884 501 875 C 537 865 567 853 592 838 C 616 822 634 805 646 785 C 658 765 665 745 665 725 C 665 705 661 688 655 673 C 649 658 641 646 631 636 C 620 626 608 618 594 613 C 580 608 565 606 550 606 C 514 606 486 616 466 636 C 445 656 435 681 435 711 C 435 716 435 721 436 725 C 436 729 437 733 439 739 C 433 744 424 749 411 753 C 397 757 384 760 370 760 C 356 760 343 758 331 755 C 318 751 307 747 298 741 C 288 735 280 727 274 719 C 268 710 265 700 265 690 C 265 677 267 665 272 655 C 277 645 287 635 302 625 C 316 615 337 604 364 592 C 391 580 426 567 470 551 C 514 535 551 517 582 499 C 613 480 638 459 658 437 C 677 413 691 388 700 360 C 709 332 714 302 714 268 Z" unicode="s" />
<glyph horiz-adv-x="629" d="M 630 63 C 622 55 611 46 597 37 C 582 27 565 19 545 11 C 524 2 501 -4 475 -10 C 449 -15 422 -18 392 -18 C 345 -18 305 -11 273 2 C 241 16 215 35 195 59 C 175 83 160 111 151 143 C 142 175 138 209 138 246 L 138 715 L 54 715 L 54 801 C 54 804 54 807 55 810 C 56 813 58 816 62 820 C 65 823 70 827 78 832 C 85 836 95 842 107 850 C 123 859 135 870 141 882 C 147 894 151 910 151 932 L 151 1110 C 151 1115 152 1120 154 1125 C 156 1130 161 1133 169 1135 C 209 1141 247 1146 284 1150 C 320 1154 354 1159 384 1163 C 391 1163 395 1161 396 1158 C 397 1155 398 1150 398 1143 L 398 862 L 599 862 L 599 715 L 398 715 L 398 248 C 398 224 403 205 413 189 C 423 173 438 162 456 156 C 473 149 494 147 518 150 C 542 153 567 162 595 176 L 630 63 Z" unicode="t" />
<glyph horiz-adv-x="1094" d="M 1043 0 L 714 0 L 714 106 C 698 90 680 74 662 59 C 643 44 622 31 600 20 C 576 8 550 -1 522 -8 C 494 -14 462 -18 427 -18 C 381 -18 340 -10 304 6 C 268 22 238 44 214 73 C 189 101 170 135 157 173 C 144 211 138 253 138 299 L 138 645 C 138 661 137 674 137 684 C 136 694 134 702 132 709 C 128 715 123 721 117 726 C 111 731 102 737 91 745 C 83 751 76 755 71 759 C 65 762 61 765 59 769 C 56 771 54 774 53 778 C 52 781 52 785 52 791 L 52 858 L 398 881 L 398 299 C 398 274 401 253 409 235 C 416 217 426 202 439 190 C 451 178 466 169 483 163 C 500 157 518 154 538 154 C 568 154 598 162 627 178 C 656 194 679 214 697 240 L 697 664 C 697 674 696 683 695 691 C 694 698 692 705 689 711 C 685 717 679 722 673 727 C 667 732 658 738 648 745 C 639 751 632 755 627 759 C 621 762 617 765 615 769 C 612 771 610 774 610 778 C 609 781 609 785 609 791 L 609 858 L 957 881 L 957 211 C 957 195 957 182 958 173 C 958 163 960 156 964 150 C 966 143 971 137 977 132 C 983 126 991 120 1002 113 C 1019 101 1030 93 1035 88 C 1040 83 1043 76 1043 66 L 1043 0 Z" unicode="u" />
<glyph horiz-adv-x="969" d="M 970 795 C 970 784 968 776 966 771 C 963 766 956 761 945 756 C 925 746 910 737 899 728 C 887 719 878 709 872 699 C 864 687 858 674 852 660 C 846 646 840 629 832 610 L 570 -2 C 568 -7 566 -10 564 -12 C 562 -13 558 -14 552 -14 L 435 -14 C 427 -14 422 -13 419 -12 C 415 -10 413 -7 411 -2 L 110 674 C 101 691 91 704 80 714 C 68 723 53 733 34 745 C 19 752 10 758 8 763 C 6 767 5 774 5 782 L 5 862 L 474 862 C 474 858 473 854 473 850 C 473 846 473 842 473 838 C 472 831 472 825 472 819 C 472 813 472 808 472 805 C 472 795 469 787 464 780 C 458 772 446 763 427 752 C 412 743 402 734 396 724 C 390 714 388 703 388 692 C 388 686 388 680 390 674 C 392 668 394 661 396 655 L 550 291 L 685 616 C 692 632 697 646 699 658 C 701 670 703 680 703 690 C 703 703 698 714 688 723 C 678 732 662 743 640 756 C 627 763 618 770 612 776 C 606 782 603 790 603 799 L 603 862 L 970 862 L 970 795 Z" unicode="v" />
<glyph horiz-adv-x="1429" d="M 1428 795 C 1428 784 1426 776 1424 771 C 1422 766 1415 761 1404 756 C 1386 748 1372 740 1362 732 C 1351 724 1342 714 1335 704 C 1327 693 1320 680 1314 665 C 1308 650 1301 632 1293 610 L 1058 -2 C 1056 -7 1054 -10 1052 -12 C 1050 -13 1045 -14 1039 -14 L 921 -14 C 913 -14 908 -13 904 -12 C 900 -10 898 -7 896 -2 L 716 512 L 540 -2 C 538 -7 535 -10 533 -12 C 531 -13 527 -14 521 -14 L 404 -14 C 396 -14 391 -13 388 -12 C 384 -10 382 -7 380 -2 L 110 674 C 102 691 93 704 81 714 C 69 723 53 733 34 745 C 19 752 10 758 8 763 C 6 767 5 774 5 782 L 5 862 L 470 862 L 470 801 C 470 791 467 784 461 778 C 455 772 442 763 423 752 C 409 743 400 733 394 723 C 388 712 386 701 386 690 C 386 684 386 679 387 673 C 388 667 390 661 392 655 L 515 291 L 710 862 L 832 862 L 1033 293 L 1146 616 C 1151 631 1155 644 1158 656 C 1160 667 1162 676 1162 684 C 1162 698 1157 710 1147 720 C 1137 730 1121 741 1099 754 C 1085 761 1076 768 1070 775 C 1064 782 1062 790 1062 799 L 1062 862 L 1428 862 L 1428 795 Z" unicode="w" />
<glyph horiz-adv-x="1018" d="M 1009 0 L 529 0 L 529 59 C 529 68 531 76 537 83 C 543 89 550 96 560 104 C 568 110 575 117 581 125 C 587 133 591 141 591 150 C 591 158 588 166 583 175 C 578 183 570 193 560 205 L 462 322 L 353 203 C 343 192 336 182 331 172 C 325 162 323 153 323 147 C 323 139 325 133 329 129 C 333 125 339 121 349 115 C 359 107 366 102 372 98 C 378 94 382 90 386 88 C 388 84 390 81 391 78 C 391 74 392 70 392 66 L 392 0 L 13 0 L 13 68 C 13 77 16 85 23 93 C 30 101 44 110 64 121 C 84 131 102 141 116 150 C 130 159 142 168 154 178 C 164 187 175 197 185 208 C 195 219 206 232 220 248 L 378 418 L 153 676 C 136 695 120 711 106 723 C 92 735 76 749 60 764 C 48 774 39 782 35 788 C 30 794 28 801 28 809 L 28 862 L 480 862 L 480 801 C 480 791 477 783 472 777 C 466 770 459 763 450 756 C 444 752 440 747 436 743 C 432 739 431 734 431 729 C 431 725 433 718 439 710 C 445 701 453 690 464 678 L 556 565 L 654 672 C 666 685 675 696 681 706 C 686 715 689 723 689 731 C 689 737 687 742 685 746 C 683 750 679 753 675 756 C 663 763 653 770 645 776 C 636 782 632 790 632 799 L 632 862 L 988 862 L 988 811 C 988 801 985 792 979 786 C 973 779 963 771 949 762 C 927 748 910 737 897 728 C 884 718 872 709 862 700 C 850 690 839 680 829 669 C 818 657 805 643 789 627 L 640 469 L 865 205 C 873 195 881 186 889 179 C 896 171 904 164 913 158 C 921 151 930 144 940 137 C 950 129 963 121 978 111 C 990 102 998 94 1002 86 C 1006 78 1009 69 1009 61 L 1009 0 Z" unicode="x" />
<glyph horiz-adv-x="977" d="M 974 797 C 974 786 972 778 970 773 C 967 768 960 763 949 758 C 933 750 919 740 908 730 C 896 720 886 708 878 696 C 869 682 861 668 855 653 C 848 637 841 621 835 604 L 554 -57 C 525 -125 495 -181 463 -226 C 431 -271 399 -307 367 -335 C 335 -361 303 -380 273 -391 C 242 -402 213 -408 187 -408 C 158 -408 133 -404 111 -396 C 89 -388 71 -378 57 -366 C 41 -352 30 -337 22 -320 C 14 -303 11 -285 11 -266 C 11 -222 23 -189 47 -167 C 71 -144 101 -133 136 -133 C 152 -133 167 -135 181 -141 C 194 -147 205 -155 215 -165 C 224 -174 231 -185 237 -198 C 242 -210 245 -224 245 -238 C 277 -238 307 -221 336 -188 C 365 -154 392 -105 417 -41 L 116 676 C 111 686 106 695 100 702 C 94 708 89 714 83 720 C 76 724 69 729 61 733 C 53 737 44 742 34 748 C 19 754 10 760 8 765 C 6 769 5 776 5 784 L 5 862 L 472 862 L 472 793 C 472 783 469 775 464 767 C 458 759 446 750 427 739 C 412 731 402 723 396 717 C 390 710 388 702 388 694 C 388 689 388 684 390 678 C 391 672 393 665 396 659 L 548 266 L 687 610 C 693 626 697 640 701 651 C 704 662 706 672 706 680 C 706 691 700 701 688 710 C 676 718 658 729 636 743 C 624 750 615 757 608 764 C 600 770 597 778 597 786 L 597 862 L 974 862 L 974 797 Z" unicode="y" />
<glyph horiz-adv-x="889" d="M 853 16 C 853 6 850 1 846 0 C 842 -1 831 -2 814 -2 C 808 -2 801 -1 792 -1 C 783 -1 774 -1 764 -1 C 754 -1 744 0 734 0 C 724 0 716 0 710 0 L 34 0 L 34 63 C 34 75 36 86 40 95 C 44 104 50 114 58 125 L 515 711 L 392 711 C 358 711 330 710 309 709 C 287 707 270 703 257 697 C 243 690 231 679 222 665 C 213 650 204 630 194 604 C 191 598 186 592 178 588 C 170 584 160 582 148 582 L 85 582 L 85 852 C 85 861 86 866 90 868 C 94 869 102 869 116 868 C 121 866 129 865 139 865 C 149 864 159 864 171 864 C 181 863 192 862 202 862 C 212 862 221 862 228 862 L 835 862 L 835 754 C 835 744 833 736 830 729 C 827 722 821 713 812 702 L 384 152 L 568 152 C 588 152 607 154 623 159 C 639 163 654 171 667 181 C 679 191 691 203 701 219 C 711 235 722 254 732 276 C 739 291 745 301 750 306 C 755 310 763 313 773 313 L 853 313 L 853 16 Z" unicode="z" />
<glyph horiz-adv-x="772" d="M 718 -403 C 648 -402 583 -393 524 -376 C 464 -359 413 -335 370 -303 C 326 -271 291 -231 267 -184 C 242 -136 230 -82 230 -20 C 230 0 231 22 233 46 C 235 70 237 95 240 121 C 242 145 244 169 246 193 C 248 217 249 238 249 258 C 249 300 245 336 237 364 C 229 392 217 416 201 434 C 183 452 161 466 135 476 C 109 486 77 494 40 502 L 40 596 C 77 603 109 612 135 622 C 161 632 183 646 201 664 C 217 682 229 704 237 732 C 245 760 249 795 249 838 C 249 857 248 878 246 902 C 244 926 242 950 240 976 C 237 1000 235 1025 233 1049 C 231 1073 230 1096 230 1118 C 230 1180 242 1234 267 1282 C 291 1329 326 1369 370 1401 C 413 1433 464 1457 524 1474 C 583 1490 648 1499 718 1501 L 718 1415 C 668 1404 627 1392 595 1379 C 563 1366 539 1350 522 1331 C 504 1311 491 1287 485 1259 C 479 1230 476 1195 476 1153 C 476 1129 476 1105 478 1081 C 479 1056 480 1032 482 1009 C 483 985 484 963 486 942 C 487 920 488 901 488 885 C 488 837 479 795 463 759 C 447 723 424 691 396 665 C 367 638 333 615 295 597 C 257 579 215 563 171 549 C 215 535 257 518 295 500 C 333 481 367 459 396 433 C 424 406 447 375 463 339 C 479 303 488 261 488 213 C 488 195 487 176 486 155 C 484 134 483 112 482 89 C 480 65 479 41 478 17 C 476 -7 476 -31 476 -55 C 476 -97 479 -132 485 -161 C 491 -189 504 -214 522 -234 C 539 -253 563 -269 595 -282 C 627 -295 668 -307 718 -319 L 718 -403 Z" unicode="{" />
<glyph horiz-adv-x="176" d="M 175 -389 L 1 -389 L 1 1495 L 175 1495 L 175 -389 Z" unicode="|" />
<glyph horiz-adv-x="772" d="M 732 502 C 694 494 662 486 636 476 C 610 466 588 452 572 434 C 554 416 542 392 534 364 C 526 336 523 300 523 258 C 523 238 524 217 526 193 C 528 169 530 145 533 121 C 535 95 537 70 539 46 C 541 22 542 0 542 -20 C 542 -82 529 -136 505 -184 C 480 -231 446 -271 403 -303 C 359 -335 307 -359 248 -376 C 188 -393 124 -402 54 -403 L 54 -319 C 104 -307 144 -295 176 -282 C 208 -269 233 -253 251 -234 C 268 -214 280 -189 286 -161 C 292 -132 296 -97 296 -55 C 296 -31 295 -7 294 17 C 292 41 291 65 290 89 C 288 112 287 134 286 155 C 284 176 284 195 284 213 C 284 261 292 303 308 339 C 324 375 347 406 376 433 C 404 459 437 481 476 500 C 514 518 556 535 601 549 C 556 563 514 579 476 597 C 437 615 404 638 376 665 C 347 691 324 723 308 759 C 292 795 284 837 284 885 C 284 901 284 920 286 942 C 287 963 288 985 290 1009 C 291 1032 292 1056 294 1081 C 295 1105 296 1129 296 1153 C 296 1195 292 1230 286 1259 C 280 1287 268 1311 251 1331 C 233 1350 208 1366 176 1379 C 144 1392 104 1404 54 1415 L 54 1501 C 124 1499 188 1490 248 1474 C 307 1457 359 1433 403 1401 C 446 1369 480 1329 505 1282 C 529 1234 542 1180 542 1118 C 542 1096 541 1073 539 1049 C 537 1025 535 1000 533 976 C 530 950 528 926 526 902 C 524 878 523 857 523 838 C 523 795 526 760 534 732 C 542 704 554 682 572 664 C 588 646 610 632 636 622 C 662 612 694 603 732 596 L 732 502 Z" unicode="}" />
<glyph horiz-adv-x="1518" d="M 1306 846 C 1302 782 1291 722 1273 668 C 1255 613 1231 566 1201 527 C 1170 487 1134 455 1092 433 C 1050 410 1004 399 953 399 C 932 399 913 400 897 404 C 880 408 863 414 846 423 C 828 431 810 441 790 455 C 770 468 746 484 720 504 C 698 520 677 534 659 547 C 640 560 622 572 605 582 C 587 591 570 598 553 604 C 536 609 519 612 501 612 C 473 612 450 605 431 591 C 412 577 396 560 384 538 C 371 516 361 490 354 462 C 346 434 341 405 337 375 L 212 375 C 215 438 226 497 244 551 C 262 605 287 651 318 691 C 348 730 384 761 426 783 C 468 805 514 817 564 817 C 590 817 612 815 632 811 C 652 807 670 802 688 795 C 705 787 723 777 741 765 C 759 753 780 739 804 723 C 826 707 847 692 866 678 C 884 664 902 652 920 642 C 936 631 952 623 968 617 C 984 611 1000 608 1017 608 C 1043 608 1066 614 1085 628 C 1104 641 1120 659 1133 682 C 1145 704 1155 729 1163 758 C 1171 786 1177 816 1181 846 L 1306 846 Z" unicode="~" />
<glyph horiz-adv-x="567" d="M 447 969 C 447 947 442 926 434 906 C 425 886 413 869 399 855 C 384 840 367 828 347 820 C 327 811 306 807 284 807 C 262 807 241 811 221 820 C 201 828 184 840 170 855 C 155 869 143 886 135 906 C 126 926 122 947 122 969 C 122 991 126 1012 135 1032 C 143 1052 155 1069 170 1085 C 184 1099 201 1111 221 1120 C 241 1128 262 1133 284 1133 C 306 1133 327 1128 347 1120 C 367 1111 384 1099 399 1085 C 413 1069 425 1052 434 1032 C 442 1012 447 991 447 969 Z M 441 -199 C 441 -225 438 -251 433 -276 C 428 -300 420 -322 408 -342 C 395 -361 378 -376 358 -388 C 338 -400 312 -406 282 -406 C 252 -406 227 -400 207 -388 C 187 -376 171 -361 159 -342 C 147 -322 138 -300 133 -276 C 128 -251 126 -225 126 -199 C 126 -170 128 -138 134 -104 C 140 -70 147 -33 155 6 C 163 44 171 85 180 129 C 188 173 196 218 202 266 C 206 304 210 337 213 364 C 216 390 219 417 221 444 C 223 470 224 500 226 533 C 228 565 230 607 232 657 C 232 663 236 668 246 672 C 256 676 268 678 284 678 C 298 678 310 676 320 672 C 330 668 335 663 335 657 C 335 624 336 595 337 570 C 338 545 339 523 341 503 C 341 482 342 463 344 445 C 346 427 348 410 351 392 C 353 374 355 354 357 334 C 359 314 362 291 366 266 C 371 218 378 173 387 129 C 395 85 404 44 412 6 C 420 -33 426 -70 432 -104 C 438 -138 441 -170 441 -199 Z" unicode="" />
<glyph horiz-adv-x="920" d="M 882 446 C 869 426 853 406 835 386 C 816 365 794 346 768 328 C 742 310 712 294 678 280 C 644 266 606 256 564 250 L 564 -18 L 462 -18 L 462 252 C 406 259 355 274 308 296 C 260 318 220 347 186 384 C 151 420 124 464 104 516 C 84 567 75 626 75 692 C 75 748 84 802 103 854 C 121 905 148 951 182 991 C 215 1031 255 1064 303 1091 C 351 1117 404 1135 462 1143 L 462 1366 L 564 1366 L 564 1145 C 611 1141 652 1133 686 1121 C 720 1109 748 1094 770 1077 C 792 1059 808 1039 819 1018 C 829 996 835 974 835 952 C 835 928 831 907 823 889 C 815 871 805 856 793 845 C 781 833 767 824 753 818 C 738 812 724 809 710 809 C 694 809 679 811 665 816 C 650 820 637 828 625 838 C 613 847 603 859 596 874 C 588 889 585 907 585 928 C 585 936 586 945 588 956 C 590 967 593 979 599 993 C 589 1001 577 1008 561 1012 C 545 1016 532 1018 521 1018 C 493 1018 468 1010 446 996 C 424 982 405 962 389 936 C 372 910 359 878 350 842 C 341 806 337 766 337 723 C 337 681 341 640 350 602 C 358 564 372 530 390 502 C 407 472 429 449 457 432 C 484 414 516 406 554 406 C 582 406 607 409 631 417 C 655 425 677 435 697 448 C 717 460 735 475 752 491 C 769 507 785 523 800 541 L 882 446 Z" unicode="" />
<glyph horiz-adv-x="1132" d="M 1103 176 C 1085 148 1066 123 1044 100 C 1022 76 999 56 974 40 C 948 22 921 9 893 -1 C 864 -11 834 -16 802 -16 C 778 -16 755 -12 733 -6 C 711 0 688 9 666 22 C 642 34 618 50 593 70 C 568 90 541 113 511 141 C 477 89 438 50 395 23 C 352 -4 301 -18 241 -18 C 215 -18 188 -13 162 -4 C 135 5 111 19 91 38 C 69 56 52 79 39 106 C 25 132 19 163 19 199 C 19 236 25 269 39 297 C 52 325 69 349 91 369 C 112 388 136 403 163 413 C 189 423 216 428 243 428 C 264 428 287 426 311 422 C 335 418 364 408 400 393 C 396 413 391 432 387 450 C 382 468 376 486 370 504 C 362 522 354 541 344 561 C 334 581 322 603 308 629 L 87 629 L 87 737 L 257 737 C 240 782 227 826 218 868 C 208 910 204 953 204 997 C 204 1049 215 1101 238 1152 C 261 1202 294 1248 336 1288 C 378 1328 428 1360 486 1384 C 544 1408 609 1421 679 1421 C 731 1421 779 1413 823 1399 C 867 1385 906 1365 939 1341 C 971 1316 996 1287 1014 1255 C 1032 1222 1041 1187 1041 1151 C 1041 1121 1037 1095 1029 1074 C 1021 1053 1010 1036 996 1023 C 982 1009 965 998 946 992 C 927 986 907 983 886 983 C 868 983 851 986 835 992 C 819 998 805 1007 793 1019 C 780 1030 770 1044 763 1060 C 756 1076 753 1094 753 1114 C 753 1138 757 1161 767 1182 C 776 1202 788 1222 804 1241 C 786 1253 768 1261 750 1267 C 732 1273 713 1276 695 1276 C 659 1276 627 1269 600 1257 C 573 1244 551 1226 533 1204 C 515 1181 501 1154 492 1123 C 482 1091 478 1057 478 1020 C 478 998 480 976 484 954 C 488 932 494 909 502 886 C 509 862 517 838 527 814 C 536 789 546 763 556 737 L 878 737 L 878 629 L 591 629 C 598 599 603 574 606 553 C 609 532 611 512 611 492 C 611 464 608 434 604 402 C 599 370 593 340 585 311 C 615 296 642 284 665 274 C 688 264 709 257 728 252 C 746 246 764 241 780 239 C 796 237 814 236 832 236 C 865 236 899 241 934 251 C 968 261 1002 275 1035 293 L 1103 176 Z M 388 233 C 359 258 334 277 312 289 C 290 301 265 307 239 307 C 209 307 186 298 168 280 C 150 262 142 239 142 213 C 142 188 150 166 168 147 C 185 128 211 119 247 119 C 282 119 311 129 334 151 C 356 173 374 200 388 233 Z" unicode="" />
<glyph horiz-adv-x="1182" d="M 1148 246 C 1128 203 1102 165 1071 132 C 1039 99 1005 71 967 49 C 928 26 887 9 843 -2 C 799 -14 754 -20 710 -20 C 636 -20 570 -7 512 19 C 453 45 402 81 360 129 C 317 175 282 231 256 297 C 229 363 211 436 202 516 L 58 516 L 58 621 L 194 621 L 194 651 C 194 673 194 695 195 716 C 195 736 196 757 198 778 L 58 778 L 58 883 L 212 883 C 228 969 253 1046 287 1113 C 321 1180 362 1237 410 1283 C 457 1328 509 1362 567 1386 C 625 1409 685 1421 749 1421 C 813 1421 868 1414 914 1401 C 960 1388 997 1371 1027 1350 C 1055 1328 1076 1303 1089 1276 C 1102 1248 1109 1220 1109 1192 C 1109 1144 1095 1106 1068 1078 C 1041 1050 1005 1036 959 1036 C 937 1036 918 1039 900 1047 C 882 1054 867 1064 855 1077 C 842 1089 832 1104 826 1121 C 819 1138 816 1156 816 1176 C 816 1192 818 1205 822 1217 C 826 1229 832 1244 841 1264 C 826 1270 809 1273 791 1274 C 772 1275 757 1276 746 1276 C 676 1276 618 1244 572 1181 C 526 1118 495 1019 480 883 L 863 883 L 863 778 L 472 778 C 470 759 470 740 470 722 C 470 704 470 685 470 666 L 470 621 L 800 621 L 800 516 L 474 516 C 480 448 490 391 504 344 C 518 297 537 259 561 229 C 584 199 612 177 645 163 C 677 149 715 143 759 143 C 785 143 812 147 840 155 C 868 163 895 176 923 193 C 950 209 976 230 1000 255 C 1024 279 1046 308 1066 340 L 1148 246 Z" unicode="" />
<glyph horiz-adv-x="1219" d="M 1195 1335 C 1195 1323 1192 1314 1186 1309 C 1180 1303 1172 1297 1162 1290 C 1148 1280 1137 1270 1127 1262 C 1117 1254 1107 1245 1098 1235 C 1088 1224 1079 1212 1069 1198 C 1059 1184 1049 1167 1037 1147 L 830 799 L 1101 799 L 1101 694 L 771 694 L 738 641 L 738 537 L 1101 537 L 1101 432 L 740 432 L 740 236 C 740 220 741 208 743 199 C 745 190 748 182 754 176 C 758 168 764 162 772 156 C 780 150 790 143 802 135 C 821 121 834 110 841 102 C 847 94 851 84 851 72 L 851 0 L 363 0 L 363 72 C 363 78 363 83 365 87 C 366 91 368 96 372 101 C 375 105 380 110 387 115 C 393 120 402 127 413 135 C 425 143 435 151 443 158 C 451 165 458 172 463 180 C 467 187 471 195 473 204 C 475 212 476 223 476 236 L 476 432 L 118 432 L 118 537 L 478 537 L 478 641 L 443 694 L 118 694 L 118 799 L 382 799 L 146 1180 C 134 1197 122 1213 108 1229 C 94 1245 75 1260 50 1276 C 33 1284 23 1292 20 1298 C 16 1304 15 1313 15 1323 L 15 1399 L 503 1399 L 503 1346 C 503 1340 502 1334 502 1330 C 501 1326 499 1322 497 1319 C 494 1315 490 1311 485 1308 C 480 1304 474 1300 466 1296 C 450 1286 440 1278 435 1271 C 429 1263 427 1254 427 1243 C 427 1233 429 1221 434 1208 C 439 1194 446 1179 456 1163 L 669 801 L 871 1153 C 875 1160 879 1168 884 1177 C 888 1185 892 1194 896 1203 C 899 1211 902 1218 904 1226 C 906 1233 908 1239 908 1245 C 908 1257 903 1268 895 1276 C 886 1284 873 1292 857 1300 C 842 1307 831 1313 824 1319 C 817 1324 814 1333 814 1346 L 814 1399 L 1195 1399 L 1195 1335 Z" unicode="" />
<glyph horiz-adv-x="1100" d="M 998 569 C 998 541 994 513 986 485 C 978 456 966 428 950 400 C 932 371 910 343 884 316 C 857 288 825 262 787 238 C 815 216 839 194 858 174 C 877 153 892 132 904 111 C 914 89 922 67 926 45 C 930 23 933 -1 933 -27 C 933 -73 922 -116 901 -156 C 879 -196 850 -232 814 -262 C 776 -291 733 -314 683 -332 C 633 -349 579 -358 521 -358 C 464 -358 412 -350 365 -336 C 318 -321 278 -301 244 -277 C 210 -251 183 -222 165 -189 C 146 -155 136 -120 136 -82 C 136 -58 139 -36 147 -18 C 154 0 164 16 177 29 C 189 41 202 51 218 58 C 234 64 250 68 267 68 C 282 68 297 65 311 60 C 325 55 338 48 350 39 C 360 29 369 18 376 4 C 382 -10 386 -26 386 -45 C 386 -71 380 -93 369 -111 C 358 -129 343 -147 323 -166 C 345 -191 373 -211 406 -225 C 438 -239 479 -246 527 -246 C 559 -246 588 -241 615 -233 C 641 -224 664 -212 684 -198 C 703 -183 718 -166 729 -148 C 740 -129 746 -110 746 -90 C 746 -74 744 -60 742 -48 C 740 -35 735 -23 729 -12 C 721 0 711 11 698 23 C 685 35 668 48 647 62 C 625 75 599 90 568 107 C 536 123 499 142 456 164 C 393 195 339 226 295 256 C 250 286 213 317 185 350 C 156 382 135 417 121 453 C 107 489 101 529 101 573 C 101 633 118 691 153 747 C 188 802 240 853 308 899 C 280 921 257 943 239 965 C 221 986 206 1008 196 1030 C 184 1052 176 1074 172 1098 C 167 1121 165 1145 165 1171 C 165 1215 175 1256 197 1296 C 218 1335 247 1370 285 1400 C 321 1429 364 1452 413 1469 C 462 1486 514 1495 570 1495 C 628 1495 680 1487 728 1473 C 776 1458 817 1438 851 1414 C 884 1388 910 1359 929 1326 C 947 1292 957 1257 957 1221 C 957 1195 953 1173 946 1155 C 939 1136 930 1120 919 1108 C 907 1095 893 1086 877 1080 C 861 1074 845 1071 828 1071 C 813 1071 798 1073 784 1078 C 770 1082 757 1089 747 1099 C 735 1108 726 1119 720 1133 C 713 1147 710 1163 710 1182 C 710 1196 711 1208 715 1219 C 718 1229 723 1240 729 1250 C 735 1259 742 1268 751 1278 C 759 1287 769 1297 779 1307 C 756 1329 728 1348 695 1362 C 662 1376 619 1384 566 1384 C 533 1384 503 1379 477 1371 C 451 1362 429 1350 411 1336 C 392 1321 378 1304 368 1286 C 358 1268 353 1249 353 1231 C 353 1215 353 1201 355 1189 C 357 1176 361 1164 368 1152 C 374 1140 384 1127 397 1115 C 409 1102 427 1088 449 1074 C 471 1059 498 1043 530 1025 C 562 1007 602 987 648 965 C 707 935 759 906 803 877 C 847 848 883 818 913 787 C 941 755 963 722 977 686 C 991 650 998 611 998 569 Z M 814 485 C 814 507 810 526 804 544 C 798 562 788 578 776 594 C 763 608 747 622 729 636 C 711 649 689 662 665 676 C 621 699 577 724 531 750 C 485 776 442 800 400 823 C 363 800 334 773 313 742 C 292 710 282 680 282 651 C 282 630 284 611 290 594 C 295 577 303 561 315 547 C 326 531 341 516 359 502 C 377 488 399 473 425 459 C 441 449 462 437 486 423 C 510 409 536 394 562 380 C 587 365 612 351 636 339 C 660 326 681 316 699 309 C 735 331 763 359 783 391 C 803 423 814 455 814 485 Z" unicode="" />
<glyph horiz-adv-x="842" d="M 763 1151 C 763 1133 759 1116 752 1100 C 745 1084 736 1071 724 1060 C 712 1048 698 1038 682 1032 C 666 1025 650 1022 632 1022 C 614 1022 597 1025 581 1032 C 565 1038 551 1048 540 1060 C 528 1071 518 1084 511 1100 C 504 1116 501 1133 501 1151 C 501 1169 504 1186 511 1202 C 518 1218 528 1232 540 1244 C 551 1255 565 1264 581 1271 C 597 1278 614 1282 632 1282 C 650 1282 666 1278 682 1271 C 698 1264 712 1255 724 1244 C 736 1232 745 1218 752 1202 C 759 1186 763 1169 763 1151 Z M 343 1151 C 343 1133 339 1116 332 1100 C 325 1084 316 1071 305 1060 C 293 1048 279 1038 263 1032 C 247 1025 230 1022 212 1022 C 194 1022 177 1025 161 1032 C 145 1038 131 1048 120 1060 C 108 1071 98 1084 91 1100 C 84 1116 81 1133 81 1151 C 81 1169 84 1186 91 1202 C 98 1218 108 1232 120 1244 C 131 1255 145 1264 161 1271 C 177 1278 194 1282 212 1282 C 230 1282 247 1278 263 1271 C 279 1264 293 1255 305 1244 C 316 1232 325 1218 332 1202 C 339 1186 343 1169 343 1151 Z" unicode="" />
<glyph horiz-adv-x="1661" d="M 1590 729 C 1590 659 1581 592 1563 528 C 1545 464 1520 404 1488 349 C 1455 293 1416 243 1370 198 C 1324 152 1273 114 1217 82 C 1160 49 1099 24 1034 6 C 968 -11 900 -20 830 -20 C 723 -20 623 0 531 38 C 439 76 359 130 291 198 C 222 265 168 344 129 435 C 90 526 71 624 71 729 C 71 833 90 931 129 1023 C 168 1114 222 1194 291 1262 C 359 1330 439 1383 531 1422 C 623 1461 723 1481 830 1481 C 900 1481 968 1472 1034 1454 C 1099 1436 1160 1411 1217 1379 C 1273 1346 1324 1307 1370 1261 C 1416 1215 1455 1165 1488 1110 C 1520 1054 1545 993 1563 929 C 1581 865 1590 798 1590 729 Z M 1504 729 C 1504 791 1496 850 1480 908 C 1464 965 1442 1019 1414 1069 C 1384 1119 1349 1164 1308 1206 C 1267 1247 1222 1282 1172 1312 C 1122 1341 1068 1364 1010 1380 C 952 1396 892 1405 830 1405 C 736 1405 648 1387 566 1351 C 484 1315 414 1267 354 1206 C 293 1144 245 1073 211 991 C 176 909 159 821 159 729 C 159 667 166 607 182 550 C 198 492 220 439 250 389 C 278 339 313 293 353 252 C 393 211 439 176 489 147 C 538 117 591 95 649 79 C 707 63 767 55 830 55 C 892 55 952 63 1010 79 C 1068 95 1122 117 1172 147 C 1222 176 1267 211 1308 252 C 1349 293 1384 339 1414 389 C 1442 439 1464 492 1480 550 C 1496 607 1504 667 1504 729 Z M 1181 492 C 1171 470 1155 448 1135 424 C 1115 400 1090 378 1062 358 C 1032 337 999 320 962 307 C 925 293 885 287 841 287 C 772 287 712 298 660 322 C 608 345 565 377 531 417 C 496 457 470 503 453 555 C 435 607 427 663 427 721 C 427 794 439 858 464 913 C 489 968 522 1014 562 1051 C 601 1087 645 1115 693 1133 C 741 1151 789 1161 835 1161 C 872 1161 906 1156 936 1148 C 966 1139 997 1124 1031 1104 C 1034 1102 1036 1100 1038 1098 C 1039 1096 1041 1096 1045 1098 C 1056 1105 1064 1110 1068 1112 C 1072 1114 1078 1116 1084 1116 L 1138 1116 L 1138 868 L 1072 868 C 1060 868 1051 871 1046 877 C 1040 883 1036 891 1033 899 C 1026 920 1017 941 1006 961 C 995 981 982 998 968 1014 C 952 1029 935 1041 917 1051 C 898 1060 877 1065 855 1065 C 829 1065 802 1058 775 1046 C 747 1033 723 1013 701 987 C 678 959 659 924 645 882 C 631 839 624 787 624 727 C 624 673 629 625 641 584 C 652 542 668 508 689 480 C 709 452 732 430 760 416 C 788 402 818 395 851 395 C 885 395 917 400 945 412 C 973 423 999 437 1021 454 C 1043 470 1062 487 1078 505 C 1094 523 1107 539 1117 553 L 1181 492 Z" unicode="" />
<glyph horiz-adv-x="930" d="M 875 729 C 851 689 825 661 796 644 C 767 626 738 618 708 618 C 680 618 653 625 628 641 C 602 656 581 676 564 702 C 534 675 502 653 468 637 C 434 620 398 612 359 612 C 325 612 291 616 259 626 C 227 636 198 651 173 671 C 147 691 127 716 112 746 C 96 776 89 811 89 852 C 89 936 127 1003 203 1051 C 279 1099 388 1126 531 1130 C 527 1190 515 1233 495 1260 C 474 1286 449 1300 419 1300 C 410 1300 402 1299 395 1299 C 388 1298 381 1297 374 1296 C 372 1283 370 1269 367 1253 C 364 1237 358 1222 350 1208 C 341 1193 329 1181 315 1171 C 300 1161 281 1157 257 1157 C 221 1157 194 1166 175 1186 C 155 1205 146 1230 146 1260 C 146 1282 152 1303 166 1323 C 180 1342 199 1359 223 1374 C 247 1388 275 1400 308 1408 C 341 1416 377 1421 417 1421 C 476 1421 526 1413 566 1397 C 606 1381 639 1360 665 1333 C 689 1305 707 1272 718 1234 C 728 1196 734 1154 734 1110 L 734 801 C 734 787 736 778 742 772 C 748 766 755 764 765 764 C 765 764 768 764 772 766 C 776 767 782 769 788 772 C 793 774 798 776 803 780 C 808 783 812 787 816 791 L 875 729 Z M 533 854 L 533 1014 C 488 1012 450 1006 420 998 C 389 989 364 978 346 965 C 326 951 312 936 304 919 C 296 902 292 884 292 866 C 292 828 301 799 320 780 C 339 761 366 752 400 752 C 418 752 435 755 451 761 C 467 767 481 775 494 785 C 506 794 515 805 522 817 C 529 829 533 842 533 854 Z" unicode="" />
<glyph horiz-adv-x="1079" d="M 992 102 L 828 102 L 556 393 C 548 402 540 412 534 423 C 528 433 525 445 525 459 C 525 472 528 484 534 494 C 540 504 548 514 556 524 L 828 815 L 992 815 L 783 459 L 992 102 Z M 560 102 L 396 102 L 124 393 C 115 402 108 412 102 423 C 96 433 93 445 93 459 C 93 472 96 484 102 494 C 108 504 115 514 124 524 L 396 815 L 560 815 L 353 459 L 560 102 Z" unicode="" />
<glyph horiz-adv-x="1518" d="M 1299 92 L 1125 92 L 1125 535 L 212 535 L 212 709 L 1299 709 L 1299 92 Z" unicode="" />
<glyph horiz-adv-x="596" d="M 513 328 L 83 328 L 83 565 L 513 565 L 513 328 Z" unicode="" />
<glyph horiz-adv-x="1026" d="M 1000 1034 C 1000 966 987 903 961 845 C 935 786 901 735 857 691 C 813 647 761 612 702 587 C 642 561 579 549 513 549 C 445 549 382 561 323 587 C 264 612 213 647 169 691 C 125 735 90 786 64 845 C 38 903 26 966 26 1034 C 26 1101 38 1164 64 1224 C 90 1283 125 1335 169 1379 C 213 1423 264 1457 323 1483 C 382 1509 445 1522 513 1522 C 579 1522 642 1509 702 1483 C 761 1457 813 1423 857 1379 C 901 1335 935 1283 961 1224 C 987 1164 1000 1101 1000 1034 Z M 931 1034 C 931 1092 920 1146 898 1197 C 876 1247 846 1292 809 1330 C 771 1368 726 1397 676 1419 C 625 1441 571 1452 513 1452 C 455 1452 400 1441 350 1419 C 299 1397 255 1368 218 1330 C 180 1292 150 1247 128 1197 C 106 1146 95 1092 95 1034 C 95 976 106 921 128 871 C 150 820 180 776 218 739 C 255 701 299 671 350 649 C 400 627 455 616 513 616 C 571 616 625 627 676 649 C 726 671 771 701 809 739 C 846 776 876 820 898 871 C 920 921 931 976 931 1034 Z M 718 764 L 607 764 L 517 969 L 427 969 L 427 764 L 325 764 L 325 1290 L 540 1290 C 562 1290 583 1286 605 1280 C 626 1273 645 1263 662 1251 C 678 1237 692 1221 702 1201 C 712 1181 718 1159 718 1133 C 718 1099 709 1068 692 1042 C 675 1016 650 996 617 983 L 718 764 Z M 603 1130 C 603 1152 595 1167 581 1177 C 567 1187 550 1192 531 1192 L 427 1192 L 427 1069 L 529 1069 C 536 1069 544 1070 553 1072 C 561 1074 569 1078 577 1084 C 584 1088 590 1094 595 1102 C 600 1110 603 1119 603 1130 Z" unicode="" />
<glyph horiz-adv-x="842" d="M 744 1075 L 97 1075 L 97 1227 L 744 1227 L 744 1075 Z" unicode="" />
<glyph horiz-adv-x="754" d="M 677 1221 C 677 1179 669 1141 653 1105 C 637 1069 616 1038 590 1012 C 563 985 531 964 495 949 C 459 933 420 926 380 926 C 338 926 300 933 264 949 C 228 964 196 985 170 1012 C 143 1038 122 1069 106 1105 C 90 1141 83 1179 83 1221 C 83 1261 90 1300 106 1336 C 122 1372 143 1403 170 1430 C 196 1456 228 1477 264 1493 C 300 1508 338 1516 380 1516 C 420 1516 459 1508 495 1493 C 531 1477 563 1456 590 1430 C 616 1403 637 1372 653 1336 C 669 1300 677 1261 677 1221 Z M 536 1221 C 536 1243 532 1265 525 1285 C 517 1305 507 1323 494 1339 C 480 1354 463 1366 444 1375 C 424 1384 403 1389 380 1389 C 356 1389 335 1384 316 1375 C 296 1366 280 1354 267 1339 C 253 1323 242 1305 235 1285 C 227 1265 224 1243 224 1221 C 224 1198 227 1176 235 1156 C 242 1136 253 1118 267 1103 C 280 1087 296 1075 316 1066 C 335 1057 356 1053 380 1053 C 403 1053 424 1057 444 1066 C 463 1075 480 1087 494 1103 C 507 1118 517 1136 525 1156 C 532 1176 536 1198 536 1221 Z" unicode="" />
<glyph horiz-adv-x="1518" d="M 1308 696 L 847 696 L 847 276 L 673 276 L 673 696 L 212 696 L 212 870 L 673 870 L 673 1290 L 847 1290 L 847 870 L 1308 870 L 1308 696 Z M 1308 0 L 212 0 L 212 174 L 1308 174 L 1308 0 Z" unicode="" />
<glyph horiz-adv-x="836" d="M 734 893 L 724 649 L 116 649 L 116 772 C 141 804 176 840 220 882 C 264 923 311 968 361 1016 C 383 1036 403 1058 423 1082 C 443 1105 460 1128 475 1152 C 489 1175 500 1198 508 1221 C 516 1244 521 1266 521 1288 C 521 1325 511 1354 491 1376 C 471 1398 441 1409 400 1409 C 381 1409 362 1404 343 1396 C 323 1387 307 1377 294 1366 C 308 1351 318 1337 324 1323 C 330 1309 333 1296 333 1284 C 333 1272 330 1261 326 1250 C 322 1239 316 1229 308 1221 C 299 1211 288 1204 275 1198 C 262 1192 247 1190 230 1190 C 212 1190 196 1193 183 1199 C 170 1205 159 1213 151 1224 C 141 1234 134 1246 130 1260 C 126 1273 124 1287 124 1303 C 124 1325 131 1347 146 1371 C 160 1395 181 1416 208 1436 C 234 1455 266 1471 303 1484 C 340 1496 381 1503 427 1503 C 473 1503 514 1497 552 1487 C 589 1477 621 1462 648 1443 C 674 1423 694 1400 708 1372 C 722 1344 730 1314 730 1280 C 730 1242 722 1208 706 1178 C 690 1148 670 1120 646 1094 C 620 1068 592 1043 562 1021 C 532 998 502 976 472 954 C 452 940 434 926 417 914 C 400 902 384 890 369 879 C 353 867 337 855 322 843 C 307 831 292 819 277 807 L 562 807 C 578 807 595 810 612 817 C 629 824 642 834 650 848 C 653 855 656 862 660 870 C 664 878 667 885 669 893 L 734 893 Z" unicode="" />
<glyph horiz-adv-x="833" d="M 738 897 C 738 858 729 823 711 791 C 693 759 668 732 637 710 C 605 686 567 668 524 656 C 480 643 434 637 384 637 C 342 637 304 641 269 650 C 233 659 203 672 178 688 C 152 704 131 722 117 744 C 102 766 95 789 95 815 C 95 829 97 842 103 855 C 109 867 117 878 127 888 C 137 897 148 904 161 910 C 174 915 188 918 204 918 C 218 918 231 915 243 910 C 254 904 264 898 272 890 C 280 882 286 873 290 863 C 294 853 296 844 296 836 C 296 824 294 813 290 801 C 286 789 280 776 273 762 C 286 753 302 745 322 738 C 341 730 359 727 376 727 C 400 727 422 731 441 741 C 460 750 476 763 489 779 C 501 795 511 813 517 833 C 523 853 527 875 527 897 C 527 923 523 947 517 967 C 510 987 499 1003 484 1017 C 468 1029 448 1039 423 1046 C 398 1052 367 1056 331 1057 L 331 1149 C 363 1151 390 1155 412 1162 C 434 1169 451 1179 465 1192 C 477 1204 486 1219 492 1237 C 498 1255 501 1276 501 1300 C 501 1332 490 1358 470 1378 C 450 1398 421 1409 384 1409 C 369 1409 354 1406 340 1402 C 325 1397 310 1390 296 1382 C 304 1370 309 1360 311 1350 C 313 1340 314 1332 314 1325 C 314 1299 305 1279 289 1264 C 272 1248 250 1241 222 1241 C 210 1241 198 1243 186 1247 C 174 1251 164 1257 155 1265 C 145 1273 138 1282 132 1294 C 126 1306 124 1319 124 1335 C 124 1357 131 1379 147 1399 C 163 1419 184 1437 210 1453 C 236 1468 265 1480 299 1489 C 333 1498 368 1503 404 1503 C 449 1503 490 1497 527 1487 C 564 1477 596 1463 623 1445 C 649 1427 670 1406 684 1382 C 698 1358 706 1333 706 1307 C 706 1288 702 1269 695 1250 C 687 1231 677 1213 663 1197 C 649 1179 632 1164 612 1151 C 592 1137 570 1127 546 1120 L 546 1110 C 575 1102 601 1092 625 1078 C 649 1064 669 1047 686 1029 C 702 1010 715 989 724 967 C 733 945 738 921 738 897 Z" unicode="" />
<glyph horiz-adv-x="842" d="M 660 1282 C 660 1261 652 1241 638 1222 C 623 1202 598 1181 562 1159 L 265 973 L 202 1016 L 441 1319 C 452 1333 463 1344 474 1352 C 485 1360 496 1367 507 1372 C 517 1376 528 1378 538 1380 C 548 1381 557 1382 566 1382 C 596 1382 619 1372 635 1352 C 651 1332 660 1308 660 1282 Z" unicode="" />
<glyph horiz-adv-x="1292" d="M 1230 -291 L 935 -291 L 935 1386 L 779 1386 L 779 -291 L 484 -291 L 484 -256 C 484 -239 484 -226 484 -218 C 484 -209 486 -202 490 -198 C 493 -192 499 -187 509 -183 C 518 -178 532 -171 552 -162 C 556 -159 561 -156 565 -152 C 569 -148 573 -142 577 -134 C 580 -125 582 -113 584 -99 C 586 -85 587 -66 587 -43 L 587 610 C 555 610 520 611 481 613 C 442 615 403 620 363 630 C 323 639 284 653 246 672 C 208 691 174 718 145 752 C 115 785 91 827 73 878 C 55 929 46 991 46 1065 C 46 1096 48 1128 54 1162 C 59 1195 69 1228 84 1260 C 98 1292 118 1322 144 1350 C 169 1378 202 1403 242 1425 C 281 1446 329 1463 385 1476 C 441 1488 507 1495 583 1495 L 1230 1495 L 1230 1460 C 1230 1443 1230 1430 1230 1422 C 1230 1414 1228 1407 1225 1402 C 1221 1396 1214 1391 1204 1387 C 1194 1382 1180 1375 1162 1366 C 1156 1363 1152 1359 1148 1354 C 1144 1349 1140 1342 1137 1334 C 1133 1324 1131 1313 1129 1299 C 1127 1285 1127 1269 1127 1249 L 1127 -43 C 1127 -66 1127 -85 1129 -99 C 1131 -113 1133 -125 1137 -134 C 1140 -142 1144 -148 1148 -152 C 1152 -156 1156 -159 1162 -162 C 1180 -171 1194 -178 1204 -183 C 1214 -187 1221 -192 1225 -198 C 1228 -202 1230 -209 1230 -218 C 1230 -226 1230 -239 1230 -256 L 1230 -291 Z M 589 735 L 589 1384 C 546 1384 510 1375 481 1359 C 451 1342 428 1319 410 1291 C 392 1261 379 1227 371 1189 C 363 1150 359 1109 359 1065 C 359 991 366 932 381 888 C 396 844 415 811 439 789 C 461 766 486 751 513 745 C 540 738 565 735 589 735 Z" unicode="" />
<glyph horiz-adv-x="537" d="M 431 705 C 431 682 426 661 418 641 C 409 621 397 603 383 589 C 368 574 351 562 331 554 C 311 545 291 541 269 541 C 246 541 225 545 205 554 C 185 562 168 574 154 589 C 138 603 126 621 118 641 C 109 661 105 682 105 705 C 105 727 109 747 118 767 C 126 787 138 804 154 819 C 168 833 185 844 205 853 C 225 861 246 866 269 866 C 291 866 311 861 331 853 C 351 844 368 833 383 819 C 397 804 409 787 418 767 C 426 747 431 727 431 705 Z" unicode="" />
<glyph horiz-adv-x="842" d="M 675 -264 C 675 -285 671 -307 663 -329 C 655 -351 641 -372 623 -391 C 603 -409 578 -425 546 -437 C 514 -449 475 -455 429 -455 C 399 -455 370 -451 344 -444 C 317 -436 292 -427 269 -416 C 245 -404 222 -391 202 -377 C 181 -363 162 -350 146 -338 L 204 -264 C 218 -274 233 -285 249 -296 C 264 -306 280 -316 297 -325 C 313 -333 331 -339 350 -344 C 369 -349 390 -352 413 -352 C 429 -352 443 -349 454 -343 C 465 -337 474 -330 481 -322 C 487 -313 492 -304 495 -294 C 497 -284 499 -274 499 -266 C 499 -246 491 -230 476 -216 C 461 -202 435 -195 398 -195 C 392 -195 383 -195 371 -196 C 359 -197 347 -199 333 -201 L 450 0 L 546 0 L 486 -100 C 544 -105 590 -121 624 -149 C 658 -176 675 -214 675 -264 Z" unicode="" />
<glyph horiz-adv-x="661" d="M 542 643 L 142 643 L 142 694 C 142 699 144 703 148 707 C 152 711 159 715 171 721 C 185 727 198 732 208 737 C 218 741 226 747 232 753 C 238 758 242 764 245 771 C 247 778 249 787 249 799 L 249 1354 L 105 1354 L 105 1401 C 105 1407 107 1412 111 1417 C 115 1422 122 1427 132 1432 L 292 1493 L 437 1493 L 437 799 C 437 787 438 778 442 770 C 445 762 450 756 457 751 C 463 745 472 739 482 734 C 492 729 505 724 519 719 C 528 715 534 712 537 708 C 540 704 542 699 542 694 L 542 643 Z" unicode="" />
<glyph horiz-adv-x="926" d="M 849 1016 C 849 958 839 905 820 855 C 801 805 775 763 741 727 C 707 690 666 661 619 641 C 571 620 519 610 462 610 C 404 610 352 620 305 640 C 258 660 218 689 185 725 C 151 761 125 803 107 853 C 88 903 79 957 79 1016 C 79 1073 88 1126 107 1176 C 125 1225 151 1268 185 1305 C 218 1341 258 1369 305 1390 C 352 1410 404 1421 462 1421 C 519 1421 571 1410 619 1390 C 666 1369 707 1341 741 1305 C 775 1268 801 1225 820 1176 C 839 1126 849 1073 849 1016 Z M 632 1016 C 632 1106 617 1173 587 1216 C 557 1258 516 1280 462 1280 C 409 1280 368 1258 339 1216 C 310 1173 296 1106 296 1016 C 296 925 310 858 339 816 C 368 773 409 752 462 752 C 516 752 557 773 587 816 C 617 858 632 925 632 1016 Z" unicode="" />
<glyph horiz-adv-x="1075" d="M 982 459 C 982 445 979 433 973 423 C 967 412 959 402 951 393 L 679 102 L 515 102 L 722 459 L 517 815 L 681 815 L 951 524 C 959 514 967 504 973 494 C 979 484 982 472 982 459 Z M 550 459 C 550 445 547 433 541 423 C 535 412 527 402 519 393 L 247 102 L 83 102 L 292 459 L 85 815 L 249 815 L 519 524 C 527 514 535 504 541 494 C 547 484 550 472 550 459 Z" unicode="" />
<glyph horiz-adv-x="1411" d="M 1395 213 L 1268 213 L 1268 125 C 1268 112 1270 104 1274 101 C 1278 98 1286 94 1298 88 C 1313 80 1323 73 1328 67 C 1332 61 1335 55 1335 49 L 1335 0 L 1014 0 L 1014 49 C 1014 57 1015 64 1019 69 C 1022 74 1032 80 1049 88 C 1059 92 1068 96 1075 100 C 1081 103 1085 111 1085 125 L 1085 213 L 719 213 L 719 328 L 1126 854 L 1268 854 L 1268 313 L 1395 313 L 1395 213 Z M 1087 313 L 1087 649 L 827 313 L 1087 313 Z M 1202 1501 L 391 -20 L 264 -20 L 1075 1501 L 1202 1501 Z M 543 643 L 143 643 L 143 694 C 143 699 145 703 149 707 C 153 711 160 715 172 721 C 186 727 199 732 209 737 C 219 741 227 747 233 753 C 239 758 243 764 246 771 C 248 778 250 787 250 799 L 250 1354 L 106 1354 L 106 1401 C 106 1407 108 1412 112 1417 C 116 1422 123 1427 133 1432 L 293 1493 L 438 1493 L 438 799 C 438 787 439 778 443 770 C 446 762 451 756 458 751 C 464 745 473 739 483 734 C 493 729 506 724 520 719 C 529 715 535 712 538 708 C 541 704 543 699 543 694 L 543 643 Z" unicode="" />
<glyph horiz-adv-x="1543" d="M 1474 244 L 1464 0 L 856 0 L 856 123 C 881 155 916 191 960 233 C 1004 274 1051 319 1101 367 C 1123 387 1143 409 1163 433 C 1183 456 1200 479 1215 503 C 1229 526 1240 549 1248 572 C 1256 595 1261 617 1261 639 C 1261 676 1251 705 1231 727 C 1211 749 1181 760 1140 760 C 1121 760 1102 755 1083 747 C 1063 738 1047 728 1034 717 C 1048 702 1058 688 1064 674 C 1070 660 1073 647 1073 635 C 1073 623 1070 612 1066 601 C 1062 590 1056 580 1048 572 C 1039 562 1028 555 1015 549 C 1002 543 987 541 970 541 C 952 541 936 544 923 550 C 910 556 899 564 891 575 C 881 585 874 597 870 611 C 866 624 864 638 864 654 C 864 676 871 698 886 722 C 900 746 921 767 948 787 C 974 806 1006 822 1043 835 C 1080 847 1121 854 1167 854 C 1213 854 1254 848 1292 838 C 1329 828 1361 813 1388 794 C 1414 774 1434 751 1448 723 C 1462 695 1470 665 1470 631 C 1470 593 1462 559 1446 529 C 1430 499 1410 471 1386 445 C 1360 419 1332 394 1302 372 C 1272 349 1242 327 1212 305 C 1192 291 1174 277 1157 265 C 1140 253 1124 241 1109 230 C 1093 218 1077 206 1062 194 C 1047 182 1032 170 1017 158 L 1302 158 C 1318 158 1335 161 1352 168 C 1369 175 1382 185 1390 199 C 1393 206 1396 213 1400 221 C 1404 229 1407 236 1409 244 L 1474 244 Z M 1202 1501 L 391 -20 L 264 -20 L 1075 1501 L 1202 1501 Z M 543 643 L 143 643 L 143 694 C 143 699 145 703 149 707 C 153 711 160 715 172 721 C 186 727 199 732 209 737 C 219 741 227 747 233 753 C 239 758 243 764 246 771 C 248 778 250 787 250 799 L 250 1354 L 106 1354 L 106 1401 C 106 1407 108 1412 112 1417 C 116 1422 123 1427 133 1432 L 293 1493 L 438 1493 L 438 799 C 438 787 439 778 443 770 C 446 762 451 756 458 751 C 464 745 473 739 483 734 C 493 729 506 724 520 719 C 529 715 535 712 538 708 C 541 704 543 699 543 694 L 543 643 Z" unicode="" />
<glyph horiz-adv-x="1534" d="M 739 897 C 739 858 730 823 712 791 C 694 759 669 732 638 710 C 606 686 568 668 525 656 C 481 643 435 637 385 637 C 343 637 305 641 270 650 C 234 659 204 672 179 688 C 153 704 132 722 118 744 C 103 766 96 789 96 815 C 96 829 98 842 104 855 C 110 867 118 878 128 888 C 138 897 149 904 162 910 C 175 915 189 918 205 918 C 219 918 232 915 244 910 C 255 904 265 898 273 890 C 281 882 287 873 291 863 C 295 853 297 844 297 836 C 297 824 295 813 291 801 C 287 789 281 776 274 762 C 287 753 303 745 323 738 C 342 730 360 727 377 727 C 401 727 423 731 442 741 C 461 750 477 763 490 779 C 502 795 512 813 518 833 C 524 853 528 875 528 897 C 528 923 524 947 518 967 C 511 987 500 1003 485 1017 C 469 1029 449 1039 424 1046 C 399 1052 368 1056 332 1057 L 332 1149 C 364 1151 391 1155 413 1162 C 435 1169 452 1179 466 1192 C 478 1204 487 1219 493 1237 C 499 1255 502 1276 502 1300 C 502 1332 491 1358 471 1378 C 451 1398 422 1409 385 1409 C 370 1409 355 1406 341 1402 C 326 1397 311 1390 297 1382 C 305 1370 310 1360 312 1350 C 314 1340 315 1332 315 1325 C 315 1299 306 1279 290 1264 C 273 1248 251 1241 223 1241 C 211 1241 199 1243 187 1247 C 175 1251 165 1257 156 1265 C 146 1273 139 1282 133 1294 C 127 1306 125 1319 125 1335 C 125 1357 132 1379 148 1399 C 164 1419 185 1437 211 1453 C 237 1468 266 1480 300 1489 C 334 1498 369 1503 405 1503 C 450 1503 491 1497 528 1487 C 565 1477 597 1463 624 1445 C 650 1427 671 1406 685 1382 C 699 1358 707 1333 707 1307 C 707 1288 703 1269 696 1250 C 688 1231 678 1213 664 1197 C 650 1179 633 1164 613 1151 C 593 1137 571 1127 547 1120 L 547 1110 C 576 1102 602 1092 626 1078 C 650 1064 670 1047 687 1029 C 703 1010 716 989 725 967 C 734 945 739 921 739 897 Z M 1518 213 L 1391 213 L 1391 125 C 1391 112 1393 104 1397 101 C 1401 98 1409 94 1421 88 C 1436 80 1446 73 1451 67 C 1455 61 1458 55 1458 49 L 1458 0 L 1137 0 L 1137 49 C 1137 57 1138 64 1142 69 C 1145 74 1155 80 1172 88 C 1182 92 1191 96 1198 100 C 1204 103 1208 111 1208 125 L 1208 213 L 842 213 L 842 328 L 1249 854 L 1391 854 L 1391 313 L 1518 313 L 1518 213 Z M 1210 313 L 1210 649 L 950 313 L 1210 313 Z M 1325 1501 L 514 -20 L 387 -20 L 1198 1501 L 1325 1501 Z" unicode="" />
<glyph horiz-adv-x="895" d="M 654 969 C 654 947 649 926 641 906 C 632 886 620 869 606 855 C 591 840 574 828 554 820 C 534 811 512 807 490 807 C 468 807 447 811 427 820 C 407 828 391 840 377 855 C 362 869 350 886 342 906 C 333 926 329 947 329 969 C 329 991 333 1012 342 1032 C 350 1052 362 1069 377 1085 C 391 1099 407 1111 427 1120 C 447 1128 468 1133 490 1133 C 512 1133 534 1128 554 1120 C 574 1111 591 1099 606 1085 C 620 1069 632 1052 641 1032 C 649 1012 654 991 654 969 Z M 820 -139 C 820 -169 812 -199 797 -230 C 782 -261 759 -290 729 -316 C 698 -341 659 -362 612 -378 C 565 -394 510 -403 447 -403 C 391 -403 340 -395 294 -379 C 248 -363 210 -342 178 -314 C 145 -286 120 -252 102 -214 C 84 -175 75 -133 75 -88 C 75 -54 79 -24 87 4 C 95 32 107 59 123 86 C 137 112 155 138 176 165 C 197 192 220 221 245 252 C 279 295 309 332 333 362 C 357 392 377 422 393 450 C 407 478 418 507 425 539 C 431 571 435 610 435 657 C 435 663 440 668 450 671 C 460 674 472 676 488 676 C 502 676 515 674 526 671 C 536 668 542 663 542 657 C 542 608 541 566 539 532 C 537 497 533 464 527 434 C 520 403 510 372 498 341 C 485 309 468 273 447 231 C 428 195 412 163 399 136 C 386 109 376 84 368 62 C 360 38 354 16 350 -4 C 346 -25 345 -48 345 -72 C 345 -107 348 -137 355 -161 C 361 -185 371 -204 383 -219 C 395 -233 409 -244 426 -250 C 442 -256 460 -260 480 -260 C 499 -260 517 -257 533 -251 C 549 -245 564 -237 576 -229 C 564 -209 555 -192 549 -178 C 543 -163 540 -148 540 -133 C 540 -108 543 -87 551 -69 C 558 -51 568 -36 581 -24 C 593 -12 608 -3 624 3 C 640 9 657 12 675 12 C 698 12 719 8 737 0 C 755 -8 770 -19 783 -33 C 795 -46 804 -62 810 -80 C 816 -98 820 -118 820 -139 Z" unicode="" />
<glyph horiz-adv-x="1423" d="M 963 1653 L 904 1602 L 564 1751 C 541 1761 522 1770 508 1780 C 493 1790 481 1800 473 1811 C 464 1821 458 1832 454 1844 C 450 1855 449 1867 449 1880 C 449 1906 457 1929 474 1948 C 491 1966 518 1976 555 1976 C 569 1976 586 1973 604 1967 C 622 1961 642 1948 664 1929 L 963 1653 Z M 1436 0 L 905 0 L 905 72 C 905 78 905 84 906 89 C 906 94 908 99 912 105 C 914 109 919 114 925 120 C 931 125 939 131 950 139 C 965 149 976 159 982 169 C 988 178 991 188 991 199 C 991 207 989 216 986 226 C 982 236 978 248 973 260 C 970 265 966 274 961 287 C 956 299 951 312 946 325 C 942 332 939 340 936 348 C 932 356 929 364 926 373 L 375 373 C 372 367 369 361 367 355 C 365 349 362 343 360 337 C 356 327 351 317 347 307 C 343 297 339 288 336 281 C 328 263 321 247 317 233 C 313 219 311 207 311 197 C 311 184 314 173 322 165 C 329 156 340 147 354 139 C 366 133 375 128 382 124 C 388 120 393 116 397 112 C 400 107 402 102 403 96 C 404 90 405 83 405 74 L 405 0 L -10 0 L -10 76 C -10 82 -9 87 -9 91 C -9 95 -8 99 -6 103 C -3 107 1 111 7 116 C 13 120 21 127 33 135 C 51 148 65 159 77 168 C 88 177 98 186 106 194 C 113 202 119 210 124 219 C 129 228 135 240 141 254 L 528 1135 C 537 1155 544 1172 548 1186 C 552 1199 554 1212 554 1224 C 552 1236 548 1249 542 1263 C 535 1277 525 1295 512 1319 C 506 1329 503 1337 505 1343 C 506 1349 510 1356 518 1362 C 546 1382 575 1406 607 1432 C 639 1458 670 1483 700 1507 C 707 1513 713 1516 719 1516 C 725 1515 729 1511 733 1503 L 1282 268 C 1290 250 1297 235 1305 223 C 1313 211 1321 200 1330 192 C 1338 183 1346 175 1356 168 C 1366 160 1377 152 1391 143 C 1399 136 1407 130 1413 126 C 1419 122 1423 117 1427 113 C 1430 107 1432 102 1434 96 C 1435 90 1436 82 1436 72 L 1436 0 Z M 854 532 L 647 1001 L 442 532 L 854 532 Z" unicode="" />
<glyph horiz-adv-x="1423" d="M 988 1880 C 988 1854 980 1831 964 1811 C 948 1790 917 1770 873 1751 L 533 1602 L 474 1653 L 773 1929 C 794 1948 814 1961 832 1967 C 850 1973 867 1976 881 1976 C 918 1976 945 1966 962 1948 C 979 1929 988 1906 988 1880 Z M 1436 0 L 905 0 L 905 72 C 905 78 905 84 906 89 C 906 94 908 99 912 105 C 914 109 919 114 925 120 C 931 125 939 131 950 139 C 965 149 976 159 982 169 C 988 178 991 188 991 199 C 991 207 989 216 986 226 C 982 236 978 248 973 260 C 970 265 966 274 961 287 C 956 299 951 312 946 325 C 942 332 939 340 936 348 C 932 356 929 364 926 373 L 375 373 C 372 367 369 361 367 355 C 365 349 362 343 360 337 C 356 327 351 317 347 307 C 343 297 339 288 336 281 C 328 263 321 247 317 233 C 313 219 311 207 311 197 C 311 184 314 173 322 165 C 329 156 340 147 354 139 C 366 133 375 128 382 124 C 388 120 393 116 397 112 C 400 107 402 102 403 96 C 404 90 405 83 405 74 L 405 0 L -10 0 L -10 76 C -10 82 -9 87 -9 91 C -9 95 -8 99 -6 103 C -3 107 1 111 7 116 C 13 120 21 127 33 135 C 51 148 65 159 77 168 C 88 177 98 186 106 194 C 113 202 119 210 124 219 C 129 228 135 240 141 254 L 528 1135 C 537 1155 544 1172 548 1186 C 552 1199 554 1212 554 1224 C 552 1236 548 1249 542 1263 C 535 1277 525 1295 512 1319 C 506 1329 503 1337 505 1343 C 506 1349 510 1356 518 1362 C 546 1382 575 1406 607 1432 C 639 1458 670 1483 700 1507 C 707 1513 713 1516 719 1516 C 725 1515 729 1511 733 1503 L 1282 268 C 1290 250 1297 235 1305 223 C 1313 211 1321 200 1330 192 C 1338 183 1346 175 1356 168 C 1366 160 1377 152 1391 143 C 1399 136 1407 130 1413 126 C 1419 122 1423 117 1427 113 C 1430 107 1432 102 1434 96 C 1435 90 1436 82 1436 72 L 1436 0 Z M 854 532 L 647 1001 L 442 532 L 854 532 Z" unicode="" />
<glyph horiz-adv-x="1423" d="M 1040 1594 L 907 1594 L 696 1786 L 485 1594 L 352 1594 L 623 1946 L 770 1946 L 1040 1594 Z M 1436 0 L 905 0 L 905 72 C 905 78 905 84 906 89 C 906 94 908 99 912 105 C 914 109 919 114 925 120 C 931 125 939 131 950 139 C 965 149 976 159 982 169 C 988 178 991 188 991 199 C 991 207 989 216 986 226 C 982 236 978 248 973 260 C 970 265 966 274 961 287 C 956 299 951 312 946 325 C 942 332 939 340 936 348 C 932 356 929 364 926 373 L 375 373 C 372 367 369 361 367 355 C 365 349 362 343 360 337 C 356 327 351 317 347 307 C 343 297 339 288 336 281 C 328 263 321 247 317 233 C 313 219 311 207 311 197 C 311 184 314 173 322 165 C 329 156 340 147 354 139 C 366 133 375 128 382 124 C 388 120 393 116 397 112 C 400 107 402 102 403 96 C 404 90 405 83 405 74 L 405 0 L -10 0 L -10 76 C -10 82 -9 87 -9 91 C -9 95 -8 99 -6 103 C -3 107 1 111 7 116 C 13 120 21 127 33 135 C 51 148 65 159 77 168 C 88 177 98 186 106 194 C 113 202 119 210 124 219 C 129 228 135 240 141 254 L 528 1135 C 537 1155 544 1172 548 1186 C 552 1199 554 1212 554 1224 C 552 1236 548 1249 542 1263 C 535 1277 525 1295 512 1319 C 506 1329 503 1337 505 1343 C 506 1349 510 1356 518 1362 C 546 1382 575 1406 607 1432 C 639 1458 670 1483 700 1507 C 707 1513 713 1516 719 1516 C 725 1515 729 1511 733 1503 L 1282 268 C 1290 250 1297 235 1305 223 C 1313 211 1321 200 1330 192 C 1338 183 1346 175 1356 168 C 1366 160 1377 152 1391 143 C 1399 136 1407 130 1413 126 C 1419 122 1423 117 1427 113 C 1430 107 1432 102 1434 96 C 1435 90 1436 82 1436 72 L 1436 0 Z M 854 532 L 647 1001 L 442 532 L 854 532 Z" unicode="" />
<glyph horiz-adv-x="1423" d="M 1052 1903 C 1049 1865 1041 1830 1029 1798 C 1016 1766 1000 1738 981 1715 C 961 1691 938 1672 912 1659 C 886 1645 859 1639 830 1639 C 817 1639 805 1639 793 1641 C 781 1642 769 1645 757 1649 C 744 1653 731 1658 717 1665 C 703 1671 689 1680 673 1690 C 659 1698 647 1704 637 1710 C 626 1716 616 1720 607 1724 C 597 1727 587 1729 578 1731 C 568 1732 558 1733 548 1733 C 522 1733 499 1723 479 1705 C 459 1686 447 1662 443 1633 L 353 1633 C 355 1670 361 1705 373 1737 C 385 1769 400 1797 420 1821 C 439 1844 462 1862 488 1876 C 514 1890 542 1897 572 1897 C 588 1897 603 1896 617 1894 C 630 1892 643 1890 655 1887 C 667 1883 678 1878 690 1872 C 701 1866 714 1858 728 1850 C 756 1832 780 1820 798 1813 C 816 1806 835 1803 855 1803 C 881 1803 905 1812 925 1830 C 945 1848 957 1873 961 1903 L 1052 1903 Z M 1436 0 L 905 0 L 905 72 C 905 78 905 84 906 89 C 906 94 908 99 912 105 C 914 109 919 114 925 120 C 931 125 939 131 950 139 C 965 149 976 159 982 169 C 988 178 991 188 991 199 C 991 207 989 216 986 226 C 982 236 978 248 973 260 C 970 265 966 274 961 287 C 956 299 951 312 946 325 C 942 332 939 340 936 348 C 932 356 929 364 926 373 L 375 373 C 372 367 369 361 367 355 C 365 349 362 343 360 337 C 356 327 351 317 347 307 C 343 297 339 288 336 281 C 328 263 321 247 317 233 C 313 219 311 207 311 197 C 311 184 314 173 322 165 C 329 156 340 147 354 139 C 366 133 375 128 382 124 C 388 120 393 116 397 112 C 400 107 402 102 403 96 C 404 90 405 83 405 74 L 405 0 L -10 0 L -10 76 C -10 82 -9 87 -9 91 C -9 95 -8 99 -6 103 C -3 107 1 111 7 116 C 13 120 21 127 33 135 C 51 148 65 159 77 168 C 88 177 98 186 106 194 C 113 202 119 210 124 219 C 129 228 135 240 141 254 L 528 1135 C 537 1155 544 1172 548 1186 C 552 1199 554 1212 554 1224 C 552 1236 548 1249 542 1263 C 535 1277 525 1295 512 1319 C 506 1329 503 1337 505 1343 C 506 1349 510 1356 518 1362 C 546 1382 575 1406 607 1432 C 639 1458 670 1483 700 1507 C 707 1513 713 1516 719 1516 C 725 1515 729 1511 733 1503 L 1282 268 C 1290 250 1297 235 1305 223 C 1313 211 1321 200 1330 192 C 1338 183 1346 175 1356 168 C 1366 160 1377 152 1391 143 C 1399 136 1407 130 1413 126 C 1419 122 1423 117 1427 113 C 1430 107 1432 102 1434 96 C 1435 90 1436 82 1436 72 L 1436 0 Z M 854 532 L 647 1001 L 442 532 L 854 532 Z" unicode="" />
<glyph horiz-adv-x="1423" d="M 604 1764 C 604 1746 600 1729 593 1713 C 586 1697 577 1684 566 1673 C 554 1661 540 1651 524 1645 C 508 1638 491 1635 473 1635 C 455 1635 438 1638 422 1645 C 406 1651 393 1661 381 1673 C 369 1684 359 1697 352 1713 C 345 1729 342 1746 342 1764 C 342 1782 345 1798 352 1814 C 359 1830 369 1844 381 1856 C 393 1868 406 1877 422 1884 C 438 1891 455 1895 473 1895 C 491 1895 508 1891 524 1884 C 540 1877 554 1868 566 1856 C 577 1844 586 1830 593 1814 C 600 1798 604 1782 604 1764 Z M 1045 1764 C 1045 1746 1041 1729 1034 1713 C 1027 1697 1018 1684 1006 1673 C 994 1661 980 1651 964 1645 C 948 1638 932 1635 914 1635 C 896 1635 879 1638 863 1645 C 847 1651 833 1661 821 1673 C 809 1684 799 1697 792 1713 C 785 1729 782 1746 782 1764 C 782 1782 785 1798 792 1814 C 799 1830 809 1844 821 1856 C 833 1868 847 1877 863 1884 C 879 1891 896 1895 914 1895 C 932 1895 948 1891 964 1884 C 980 1877 994 1868 1006 1856 C 1018 1844 1027 1830 1034 1814 C 1041 1798 1045 1782 1045 1764 Z M 1436 0 L 905 0 L 905 72 C 905 78 905 84 906 89 C 906 94 908 99 912 105 C 914 109 919 114 925 120 C 931 125 939 131 950 139 C 965 149 976 159 982 169 C 988 178 991 188 991 199 C 991 207 989 216 986 226 C 982 236 978 248 973 260 C 970 265 966 274 961 287 C 956 299 951 312 946 325 C 942 332 939 340 936 348 C 932 356 929 364 926 373 L 375 373 C 372 367 369 361 367 355 C 365 349 362 343 360 337 C 356 327 351 317 347 307 C 343 297 339 288 336 281 C 328 263 321 247 317 233 C 313 219 311 207 311 197 C 311 184 314 173 322 165 C 329 156 340 147 354 139 C 366 133 375 128 382 124 C 388 120 393 116 397 112 C 400 107 402 102 403 96 C 404 90 405 83 405 74 L 405 0 L -10 0 L -10 76 C -10 82 -9 87 -9 91 C -9 95 -8 99 -6 103 C -3 107 1 111 7 116 C 13 120 21 127 33 135 C 51 148 65 159 77 168 C 88 177 98 186 106 194 C 113 202 119 210 124 219 C 129 228 135 240 141 254 L 528 1135 C 537 1155 544 1172 548 1186 C 552 1199 554 1212 554 1224 C 552 1236 548 1249 542 1263 C 535 1277 525 1295 512 1319 C 506 1329 503 1337 505 1343 C 506 1349 510 1356 518 1362 C 546 1382 575 1406 607 1432 C 639 1458 670 1483 700 1507 C 707 1513 713 1516 719 1516 C 725 1515 729 1511 733 1503 L 1282 268 C 1290 250 1297 235 1305 223 C 1313 211 1321 200 1330 192 C 1338 183 1346 175 1356 168 C 1366 160 1377 152 1391 143 C 1399 136 1407 130 1413 126 C 1419 122 1423 117 1427 113 C 1430 107 1432 102 1434 96 C 1435 90 1436 82 1436 72 L 1436 0 Z M 854 532 L 647 1001 L 442 532 L 854 532 Z" unicode="" />
<glyph horiz-adv-x="1423" d="M 1436 0 L 905 0 L 905 72 C 905 78 905 84 906 89 C 906 94 908 99 912 105 C 914 109 919 114 925 120 C 931 125 939 131 950 139 C 965 149 976 159 982 169 C 988 178 991 188 991 199 C 991 207 989 216 986 226 C 982 236 978 248 973 260 C 970 265 966 274 961 287 C 956 299 951 312 946 325 C 942 332 939 340 936 348 C 932 356 929 364 926 373 L 375 373 C 372 367 369 361 367 355 C 365 349 362 343 360 337 C 356 327 351 317 347 307 C 343 297 339 288 336 281 C 328 263 321 247 317 233 C 313 219 311 207 311 197 C 311 184 314 173 322 165 C 329 156 340 147 354 139 C 366 133 375 128 382 124 C 388 120 393 116 397 112 C 400 107 402 102 403 96 C 404 90 405 83 405 74 L 405 0 L -10 0 L -10 76 C -10 82 -9 87 -9 91 C -9 95 -8 99 -6 103 C -3 107 1 111 7 116 C 13 120 21 127 33 135 C 51 148 65 159 77 168 C 88 177 98 186 106 194 C 113 202 119 210 124 219 C 129 228 135 240 141 254 L 528 1135 C 537 1155 544 1172 548 1186 C 552 1199 554 1212 554 1224 C 552 1236 548 1249 542 1263 C 535 1277 525 1295 512 1319 C 506 1329 503 1337 505 1343 C 506 1349 510 1356 518 1362 C 546 1382 575 1406 607 1432 C 639 1458 670 1483 700 1507 C 707 1513 713 1516 719 1516 C 725 1515 729 1511 733 1503 L 1282 268 C 1290 250 1297 235 1305 223 C 1313 211 1321 200 1330 192 C 1338 183 1346 175 1356 168 C 1366 160 1377 152 1391 143 C 1399 136 1407 130 1413 126 C 1419 122 1423 117 1427 113 C 1430 107 1432 102 1434 96 C 1435 90 1436 82 1436 72 L 1436 0 Z M 854 532 L 647 1001 L 442 532 L 854 532 Z M 936 1789 C 936 1757 929 1727 917 1700 C 905 1672 888 1649 866 1629 C 844 1609 817 1593 786 1582 C 755 1571 721 1566 684 1566 C 646 1566 612 1571 581 1582 C 550 1593 524 1609 502 1629 C 480 1649 462 1672 450 1700 C 438 1727 432 1757 432 1789 C 432 1819 438 1848 450 1876 C 462 1903 480 1927 502 1948 C 524 1968 550 1983 581 1995 C 612 2007 646 2013 684 2013 C 721 2013 755 2007 786 1995 C 817 1983 844 1968 866 1948 C 888 1927 905 1903 917 1876 C 929 1848 936 1819 936 1789 Z M 790 1787 C 790 1805 788 1823 784 1839 C 780 1855 773 1869 765 1881 C 756 1893 745 1902 732 1909 C 718 1916 702 1920 684 1920 C 666 1920 651 1916 638 1909 C 624 1902 613 1893 605 1881 C 595 1869 588 1855 584 1839 C 579 1823 577 1805 577 1787 C 577 1769 579 1752 583 1736 C 587 1720 594 1706 604 1694 C 612 1682 623 1672 637 1665 C 650 1657 666 1654 684 1654 C 701 1654 716 1657 729 1665 C 742 1672 753 1682 763 1694 C 771 1706 778 1720 783 1736 C 787 1752 790 1769 790 1787 Z" unicode="" />
<glyph horiz-adv-x="1997" d="M 1959 0 L 851 0 L 851 72 C 851 84 853 94 858 103 C 863 111 876 123 898 137 C 910 145 919 152 926 158 C 933 164 939 171 943 179 C 947 185 949 193 951 203 C 952 212 953 224 953 240 L 953 643 L 505 643 C 490 611 476 581 463 553 C 450 525 438 498 426 472 C 416 450 406 428 396 407 C 386 385 378 366 370 349 C 362 331 355 316 349 304 C 343 292 340 284 339 281 C 331 262 324 246 320 232 C 316 218 314 207 314 197 C 314 184 317 173 325 165 C 332 156 343 147 357 139 C 369 133 378 128 385 124 C 391 120 397 116 401 112 C 404 107 406 102 407 96 C 408 90 409 83 409 74 L 409 0 L -11 0 L -11 76 C -11 82 -10 87 -10 91 C -10 95 -9 99 -7 103 C -4 107 0 111 6 116 C 12 120 20 127 32 135 C 50 148 64 159 76 168 C 87 177 97 186 105 194 C 112 202 118 210 123 219 C 128 228 134 240 140 254 L 552 1139 C 563 1163 573 1187 581 1209 C 589 1231 593 1250 593 1268 C 593 1281 590 1292 586 1300 C 581 1308 575 1315 568 1322 C 560 1328 550 1333 540 1339 C 530 1345 519 1352 507 1360 C 497 1367 488 1373 482 1378 C 476 1383 471 1388 468 1393 C 464 1397 462 1401 461 1406 C 460 1410 460 1416 460 1423 L 460 1495 L 1641 1495 C 1651 1495 1664 1495 1680 1495 C 1696 1495 1712 1496 1729 1498 C 1745 1498 1760 1499 1775 1500 C 1789 1500 1801 1501 1809 1503 C 1819 1503 1827 1504 1833 1504 C 1839 1504 1843 1504 1847 1503 C 1849 1501 1851 1498 1852 1494 C 1853 1490 1854 1484 1854 1477 L 1854 1155 L 1803 1155 C 1783 1155 1769 1157 1760 1163 C 1750 1168 1743 1176 1738 1188 C 1722 1219 1708 1244 1696 1263 C 1683 1281 1668 1296 1650 1306 C 1631 1316 1607 1322 1579 1326 C 1551 1329 1513 1331 1467 1331 L 1240 1331 L 1240 836 L 1338 836 C 1362 836 1382 837 1398 840 C 1414 843 1429 849 1442 857 C 1454 864 1465 874 1475 886 C 1485 898 1496 914 1508 934 C 1515 945 1523 954 1532 961 C 1540 967 1555 971 1576 971 L 1635 971 L 1635 545 L 1568 545 C 1549 545 1534 549 1524 558 C 1514 567 1506 577 1500 588 C 1488 606 1477 620 1467 631 C 1457 641 1446 650 1435 656 C 1423 661 1409 665 1395 667 C 1380 669 1363 670 1344 670 L 1240 670 L 1240 166 L 1568 166 C 1604 166 1635 168 1661 173 C 1687 178 1710 187 1730 201 C 1750 214 1768 232 1785 256 C 1801 279 1818 309 1836 346 C 1842 359 1848 369 1856 375 C 1863 381 1875 385 1891 385 L 1959 385 L 1959 0 Z M 953 809 L 953 1210 C 953 1229 952 1248 951 1266 C 950 1284 948 1301 944 1315 C 940 1329 933 1340 925 1349 C 917 1357 906 1362 892 1362 C 866 1362 845 1351 829 1330 C 813 1309 796 1279 779 1239 L 583 809 L 953 809 Z" unicode="" />
<glyph horiz-adv-x="1272" d="M 1277 289 C 1267 263 1248 233 1220 201 C 1192 168 1158 137 1117 107 C 1075 76 1026 49 972 26 C 918 3 859 -11 796 -18 L 746 -100 C 804 -105 850 -121 884 -149 C 918 -176 935 -214 935 -264 C 935 -285 931 -307 923 -329 C 915 -351 901 -372 883 -391 C 863 -409 838 -425 807 -437 C 775 -449 736 -455 689 -455 C 659 -455 630 -451 604 -444 C 577 -436 552 -427 529 -416 C 505 -404 482 -391 462 -377 C 442 -363 423 -350 407 -338 L 464 -264 C 478 -274 493 -285 509 -296 C 524 -306 540 -316 557 -325 C 573 -333 591 -339 610 -344 C 629 -349 650 -352 673 -352 C 689 -352 703 -349 714 -343 C 725 -337 734 -330 741 -322 C 747 -313 752 -304 755 -294 C 757 -284 759 -274 759 -266 C 759 -246 751 -230 736 -216 C 721 -202 695 -195 658 -195 C 652 -195 643 -195 632 -196 C 620 -197 607 -199 593 -201 L 697 -20 C 623 -16 556 -4 496 18 C 436 40 382 69 334 105 C 286 140 244 181 208 229 C 172 277 143 328 119 384 C 95 438 77 496 65 557 C 53 617 48 679 48 741 C 48 826 57 904 75 976 C 93 1047 118 1112 150 1170 C 181 1227 218 1277 261 1320 C 303 1363 349 1399 399 1429 C 448 1457 499 1479 553 1494 C 607 1508 660 1516 714 1516 C 768 1516 820 1508 872 1494 C 924 1479 971 1456 1015 1425 C 1020 1421 1026 1418 1034 1416 C 1041 1414 1049 1413 1058 1413 C 1064 1413 1069 1413 1074 1414 C 1079 1415 1084 1417 1088 1419 C 1097 1423 1104 1426 1110 1429 C 1116 1432 1121 1435 1125 1437 C 1129 1439 1132 1440 1136 1441 C 1139 1441 1143 1442 1148 1442 L 1209 1442 L 1209 1051 L 1119 1051 C 1103 1051 1093 1053 1088 1058 C 1083 1062 1079 1069 1076 1077 C 1044 1163 1000 1229 945 1274 C 890 1318 825 1341 751 1341 C 703 1341 657 1330 611 1308 C 565 1286 524 1252 488 1205 C 451 1157 421 1096 399 1021 C 377 945 366 854 366 748 C 366 654 375 570 395 497 C 414 423 441 361 476 311 C 510 260 552 221 600 195 C 648 168 701 154 759 154 C 798 153 835 157 870 167 C 905 176 938 188 968 203 C 997 217 1024 233 1049 251 C 1073 269 1095 286 1114 304 C 1132 321 1148 337 1161 353 C 1173 368 1183 380 1189 389 L 1277 289 Z" unicode="" />
<glyph horiz-adv-x="1231" d="M 865 1653 L 806 1602 L 466 1751 C 443 1761 424 1770 410 1780 C 395 1790 383 1800 375 1811 C 366 1821 360 1832 356 1844 C 352 1855 351 1867 351 1880 C 351 1906 359 1929 376 1948 C 393 1966 420 1976 457 1976 C 471 1976 488 1973 506 1967 C 524 1961 544 1948 566 1929 L 865 1653 Z M 1194 0 L 80 0 L 80 72 C 80 84 82 94 87 103 C 92 111 105 123 127 137 C 139 145 148 152 155 158 C 162 164 168 171 172 179 C 176 185 178 193 180 203 C 181 212 182 224 182 240 L 182 1255 C 182 1269 181 1281 180 1291 C 178 1301 176 1309 172 1317 C 168 1324 162 1331 155 1338 C 148 1344 139 1352 127 1360 C 117 1367 108 1373 102 1378 C 96 1383 91 1388 88 1393 C 84 1397 82 1401 81 1406 C 80 1410 80 1416 80 1423 L 80 1495 L 876 1495 C 886 1495 899 1495 915 1495 C 931 1495 947 1496 964 1498 C 980 1498 995 1499 1010 1500 C 1024 1500 1036 1501 1044 1503 C 1054 1503 1062 1504 1068 1504 C 1074 1504 1078 1504 1082 1503 C 1084 1501 1086 1498 1087 1494 C 1088 1490 1089 1484 1089 1477 L 1089 1155 L 1038 1155 C 1018 1155 1004 1157 995 1163 C 985 1168 978 1176 973 1188 C 957 1219 943 1244 931 1263 C 918 1281 903 1296 885 1306 C 866 1316 842 1322 814 1326 C 786 1329 748 1331 702 1331 L 469 1331 L 469 848 L 573 848 C 597 848 617 849 633 852 C 649 855 664 861 677 869 C 689 876 700 886 710 898 C 720 910 731 926 743 946 C 750 957 758 966 767 973 C 775 979 790 983 811 983 L 870 983 L 870 557 L 803 557 C 784 557 769 561 759 571 C 749 580 741 590 735 600 C 723 618 712 632 702 643 C 692 653 681 662 670 668 C 658 674 644 677 630 679 C 616 681 599 682 580 682 L 469 682 L 469 166 L 803 166 C 839 166 870 168 896 173 C 922 178 945 187 965 201 C 985 214 1003 232 1020 256 C 1036 279 1053 309 1071 346 C 1077 359 1083 369 1091 375 C 1098 381 1110 385 1126 385 L 1194 385 L 1194 0 Z" unicode="" />
<glyph horiz-adv-x="1231" d="M 953 1880 C 953 1854 945 1831 929 1811 C 913 1790 882 1770 838 1751 L 498 1602 L 439 1653 L 738 1929 C 759 1948 779 1961 797 1967 C 815 1973 832 1976 846 1976 C 883 1976 910 1966 927 1948 C 944 1929 953 1906 953 1880 Z M 1194 0 L 80 0 L 80 72 C 80 84 82 94 87 103 C 92 111 105 123 127 137 C 139 145 148 152 155 158 C 162 164 168 171 172 179 C 176 185 178 193 180 203 C 181 212 182 224 182 240 L 182 1255 C 182 1269 181 1281 180 1291 C 178 1301 176 1309 172 1317 C 168 1324 162 1331 155 1338 C 148 1344 139 1352 127 1360 C 117 1367 108 1373 102 1378 C 96 1383 91 1388 88 1393 C 84 1397 82 1401 81 1406 C 80 1410 80 1416 80 1423 L 80 1495 L 876 1495 C 886 1495 899 1495 915 1495 C 931 1495 947 1496 964 1498 C 980 1498 995 1499 1010 1500 C 1024 1500 1036 1501 1044 1503 C 1054 1503 1062 1504 1068 1504 C 1074 1504 1078 1504 1082 1503 C 1084 1501 1086 1498 1087 1494 C 1088 1490 1089 1484 1089 1477 L 1089 1155 L 1038 1155 C 1018 1155 1004 1157 995 1163 C 985 1168 978 1176 973 1188 C 957 1219 943 1244 931 1263 C 918 1281 903 1296 885 1306 C 866 1316 842 1322 814 1326 C 786 1329 748 1331 702 1331 L 469 1331 L 469 848 L 573 848 C 597 848 617 849 633 852 C 649 855 664 861 677 869 C 689 876 700 886 710 898 C 720 910 731 926 743 946 C 750 957 758 966 767 973 C 775 979 790 983 811 983 L 870 983 L 870 557 L 803 557 C 784 557 769 561 759 571 C 749 580 741 590 735 600 C 723 618 712 632 702 643 C 692 653 681 662 670 668 C 658 674 644 677 630 679 C 616 681 599 682 580 682 L 469 682 L 469 166 L 803 166 C 839 166 870 168 896 173 C 922 178 945 187 965 201 C 985 214 1003 232 1020 256 C 1036 279 1053 309 1071 346 C 1077 359 1083 369 1091 375 C 1098 381 1110 385 1126 385 L 1194 385 L 1194 0 Z" unicode="" />
<glyph horiz-adv-x="1231" d="M 981 1606 L 848 1606 L 637 1798 L 426 1606 L 293 1606 L 564 1958 L 711 1958 L 981 1606 Z M 1194 0 L 80 0 L 80 72 C 80 84 82 94 87 103 C 92 111 105 123 127 137 C 139 145 148 152 155 158 C 162 164 168 171 172 179 C 176 185 178 193 180 203 C 181 212 182 224 182 240 L 182 1255 C 182 1269 181 1281 180 1291 C 178 1301 176 1309 172 1317 C 168 1324 162 1331 155 1338 C 148 1344 139 1352 127 1360 C 117 1367 108 1373 102 1378 C 96 1383 91 1388 88 1393 C 84 1397 82 1401 81 1406 C 80 1410 80 1416 80 1423 L 80 1495 L 876 1495 C 886 1495 899 1495 915 1495 C 931 1495 947 1496 964 1498 C 980 1498 995 1499 1010 1500 C 1024 1500 1036 1501 1044 1503 C 1054 1503 1062 1504 1068 1504 C 1074 1504 1078 1504 1082 1503 C 1084 1501 1086 1498 1087 1494 C 1088 1490 1089 1484 1089 1477 L 1089 1155 L 1038 1155 C 1018 1155 1004 1157 995 1163 C 985 1168 978 1176 973 1188 C 957 1219 943 1244 931 1263 C 918 1281 903 1296 885 1306 C 866 1316 842 1322 814 1326 C 786 1329 748 1331 702 1331 L 469 1331 L 469 848 L 573 848 C 597 848 617 849 633 852 C 649 855 664 861 677 869 C 689 876 700 886 710 898 C 720 910 731 926 743 946 C 750 957 758 966 767 973 C 775 979 790 983 811 983 L 870 983 L 870 557 L 803 557 C 784 557 769 561 759 571 C 749 580 741 590 735 600 C 723 618 712 632 702 643 C 692 653 681 662 670 668 C 658 674 644 677 630 679 C 616 681 599 682 580 682 L 469 682 L 469 166 L 803 166 C 839 166 870 168 896 173 C 922 178 945 187 965 201 C 985 214 1003 232 1020 256 C 1036 279 1053 309 1071 346 C 1077 359 1083 369 1091 375 C 1098 381 1110 385 1126 385 L 1194 385 L 1194 0 Z" unicode="" />
<glyph horiz-adv-x="1231" d="M 547 1776 C 547 1758 543 1741 536 1725 C 529 1709 520 1696 509 1685 C 497 1673 483 1663 467 1657 C 451 1650 434 1647 416 1647 C 398 1647 381 1650 365 1657 C 349 1663 336 1673 324 1685 C 312 1696 302 1709 295 1725 C 288 1741 285 1758 285 1776 C 285 1794 288 1810 295 1826 C 302 1842 312 1856 324 1868 C 336 1880 349 1889 365 1896 C 381 1903 398 1907 416 1907 C 434 1907 451 1903 467 1896 C 483 1889 497 1880 509 1868 C 520 1856 529 1842 536 1826 C 543 1810 547 1794 547 1776 Z M 988 1776 C 988 1758 984 1741 977 1725 C 970 1709 961 1696 949 1685 C 937 1673 923 1663 907 1657 C 891 1650 875 1647 857 1647 C 839 1647 822 1650 806 1657 C 790 1663 776 1673 764 1685 C 752 1696 742 1709 735 1725 C 728 1741 725 1758 725 1776 C 725 1794 728 1810 735 1826 C 742 1842 752 1856 764 1868 C 776 1880 790 1889 806 1896 C 822 1903 839 1907 857 1907 C 875 1907 891 1903 907 1896 C 923 1889 937 1880 949 1868 C 961 1856 970 1842 977 1826 C 984 1810 988 1794 988 1776 Z M 1194 0 L 80 0 L 80 72 C 80 84 82 94 87 103 C 92 111 105 123 127 137 C 139 145 148 152 155 158 C 162 164 168 171 172 179 C 176 185 178 193 180 203 C 181 212 182 224 182 240 L 182 1255 C 182 1269 181 1281 180 1291 C 178 1301 176 1309 172 1317 C 168 1324 162 1331 155 1338 C 148 1344 139 1352 127 1360 C 117 1367 108 1373 102 1378 C 96 1383 91 1388 88 1393 C 84 1397 82 1401 81 1406 C 80 1410 80 1416 80 1423 L 80 1495 L 876 1495 C 886 1495 899 1495 915 1495 C 931 1495 947 1496 964 1498 C 980 1498 995 1499 1010 1500 C 1024 1500 1036 1501 1044 1503 C 1054 1503 1062 1504 1068 1504 C 1074 1504 1078 1504 1082 1503 C 1084 1501 1086 1498 1087 1494 C 1088 1490 1089 1484 1089 1477 L 1089 1155 L 1038 1155 C 1018 1155 1004 1157 995 1163 C 985 1168 978 1176 973 1188 C 957 1219 943 1244 931 1263 C 918 1281 903 1296 885 1306 C 866 1316 842 1322 814 1326 C 786 1329 748 1331 702 1331 L 469 1331 L 469 848 L 573 848 C 597 848 617 849 633 852 C 649 855 664 861 677 869 C 689 876 700 886 710 898 C 720 910 731 926 743 946 C 750 957 758 966 767 973 C 775 979 790 983 811 983 L 870 983 L 870 557 L 803 557 C 784 557 769 561 759 571 C 749 580 741 590 735 600 C 723 618 712 632 702 643 C 692 653 681 662 670 668 C 658 674 644 677 630 679 C 616 681 599 682 580 682 L 469 682 L 469 166 L 803 166 C 839 166 870 168 896 173 C 922 178 945 187 965 201 C 985 214 1003 232 1020 256 C 1036 279 1053 309 1071 346 C 1077 359 1083 369 1091 375 C 1098 381 1110 385 1126 385 L 1194 385 L 1194 0 Z" unicode="" />
<glyph horiz-adv-x="657" d="M 601 1653 L 542 1602 L 202 1751 C 179 1761 160 1770 146 1780 C 131 1790 119 1800 111 1811 C 102 1821 96 1832 92 1844 C 88 1855 87 1867 87 1880 C 87 1906 95 1929 112 1948 C 129 1966 156 1976 193 1976 C 207 1976 224 1973 242 1967 C 260 1961 280 1948 302 1929 L 601 1653 Z M 575 0 L 84 0 L 84 72 C 84 84 86 94 91 103 C 96 111 109 123 131 137 C 143 145 152 152 159 158 C 166 164 172 171 176 179 C 180 185 182 193 184 203 C 185 212 186 224 186 240 L 186 1255 C 186 1269 185 1282 184 1292 C 182 1302 180 1310 176 1318 C 172 1325 166 1332 159 1338 C 152 1344 143 1352 131 1360 C 121 1367 112 1373 106 1378 C 100 1383 95 1388 92 1393 C 88 1397 86 1401 85 1406 C 84 1410 84 1416 84 1423 L 84 1495 L 575 1495 L 575 1423 C 575 1416 574 1410 573 1406 C 572 1401 570 1397 568 1393 C 564 1388 560 1383 554 1378 C 548 1373 540 1367 530 1360 C 518 1351 508 1343 500 1337 C 492 1331 487 1324 483 1317 C 479 1309 476 1301 475 1291 C 473 1281 473 1269 473 1255 L 473 240 C 473 224 473 212 475 203 C 476 193 479 185 483 179 C 487 171 492 164 500 158 C 508 152 518 145 530 137 C 549 123 561 112 567 103 C 572 94 575 84 575 72 L 575 0 Z" unicode="" />
<glyph horiz-adv-x="657" d="M 613 1880 C 613 1854 605 1831 589 1811 C 573 1790 542 1770 498 1751 L 158 1602 L 99 1653 L 398 1929 C 419 1948 439 1961 457 1967 C 475 1973 492 1976 506 1976 C 543 1976 570 1966 587 1948 C 604 1929 613 1906 613 1880 Z M 575 0 L 84 0 L 84 72 C 84 84 86 94 91 103 C 96 111 109 123 131 137 C 143 145 152 152 159 158 C 166 164 172 171 176 179 C 180 185 182 193 184 203 C 185 212 186 224 186 240 L 186 1255 C 186 1269 185 1282 184 1292 C 182 1302 180 1310 176 1318 C 172 1325 166 1332 159 1338 C 152 1344 143 1352 131 1360 C 121 1367 112 1373 106 1378 C 100 1383 95 1388 92 1393 C 88 1397 86 1401 85 1406 C 84 1410 84 1416 84 1423 L 84 1495 L 575 1495 L 575 1423 C 575 1416 574 1410 573 1406 C 572 1401 570 1397 568 1393 C 564 1388 560 1383 554 1378 C 548 1373 540 1367 530 1360 C 518 1351 508 1343 500 1337 C 492 1331 487 1324 483 1317 C 479 1309 476 1301 475 1291 C 473 1281 473 1269 473 1255 L 473 240 C 473 224 473 212 475 203 C 476 193 479 185 483 179 C 487 171 492 164 500 158 C 508 152 518 145 530 137 C 549 123 561 112 567 103 C 572 94 575 84 575 72 L 575 0 Z" unicode="" />
<glyph horiz-adv-x="657" d="M 660 1606 L 527 1606 L 329 1798 L 130 1606 L -3 1606 L 255 1958 L 402 1958 L 660 1606 Z M 574 0 L 83 0 L 83 72 C 83 84 85 94 90 103 C 95 111 108 123 130 137 C 142 145 151 152 158 158 C 165 164 171 171 175 179 C 179 185 181 193 183 203 C 184 212 185 224 185 240 L 185 1255 C 185 1269 184 1282 183 1292 C 181 1302 179 1310 175 1318 C 171 1325 165 1332 158 1338 C 151 1344 142 1352 130 1360 C 120 1367 111 1373 105 1378 C 99 1383 94 1388 91 1393 C 87 1397 85 1401 84 1406 C 83 1410 83 1416 83 1423 L 83 1495 L 574 1495 L 574 1423 C 574 1416 573 1410 572 1406 C 571 1401 569 1397 567 1393 C 563 1388 559 1383 553 1378 C 547 1373 539 1367 529 1360 C 517 1351 507 1343 499 1337 C 491 1331 486 1324 482 1317 C 478 1309 475 1301 474 1291 C 472 1281 472 1269 472 1255 L 472 240 C 472 224 472 212 474 203 C 475 193 478 185 482 179 C 486 171 491 164 499 158 C 507 152 517 145 529 137 C 548 123 560 112 566 103 C 571 94 574 84 574 72 L 574 0 Z" unicode="" />
<glyph horiz-adv-x="657" d="M 253 1776 C 253 1758 249 1741 242 1725 C 235 1709 226 1696 215 1685 C 203 1673 189 1663 173 1657 C 157 1650 140 1647 122 1647 C 104 1647 87 1650 71 1657 C 55 1663 41 1673 30 1685 C 18 1696 8 1709 1 1725 C -5 1741 -9 1758 -9 1776 C -9 1794 -5 1810 1 1826 C 8 1842 18 1856 30 1868 C 41 1880 55 1889 71 1896 C 87 1903 104 1907 122 1907 C 140 1907 157 1903 173 1896 C 189 1889 203 1880 215 1868 C 226 1856 235 1842 242 1826 C 249 1810 253 1794 253 1776 Z M 669 1776 C 669 1758 665 1741 658 1725 C 651 1709 642 1696 630 1685 C 618 1673 604 1663 588 1657 C 572 1650 556 1647 538 1647 C 520 1647 503 1650 487 1657 C 471 1663 457 1673 446 1685 C 434 1696 424 1709 417 1725 C 410 1741 407 1758 407 1776 C 407 1794 410 1810 417 1826 C 424 1842 434 1856 446 1868 C 457 1880 471 1889 487 1896 C 503 1903 520 1907 538 1907 C 556 1907 572 1903 588 1896 C 604 1889 618 1880 630 1868 C 642 1856 651 1842 658 1826 C 665 1810 669 1794 669 1776 Z M 574 0 L 83 0 L 83 72 C 83 84 85 94 90 103 C 95 111 108 123 130 137 C 142 145 151 152 158 158 C 165 164 171 171 175 179 C 179 185 181 193 183 203 C 184 212 185 224 185 240 L 185 1255 C 185 1269 184 1282 183 1292 C 181 1302 179 1310 175 1318 C 171 1325 165 1332 158 1338 C 151 1344 142 1352 130 1360 C 120 1367 111 1373 105 1378 C 99 1383 94 1388 91 1393 C 87 1397 85 1401 84 1406 C 83 1410 83 1416 83 1423 L 83 1495 L 574 1495 L 574 1423 C 574 1416 573 1410 572 1406 C 571 1401 569 1397 567 1393 C 563 1388 559 1383 553 1378 C 547 1373 539 1367 529 1360 C 517 1351 507 1343 499 1337 C 491 1331 486 1324 482 1317 C 478 1309 475 1301 474 1291 C 472 1281 472 1269 472 1255 L 472 240 C 472 224 472 212 474 203 C 475 193 478 185 482 179 C 486 171 491 164 499 158 C 507 152 517 145 529 137 C 548 123 560 112 566 103 C 571 94 574 84 574 72 L 574 0 Z" unicode="" />
<glyph horiz-adv-x="1466" d="M 1114 1915 C 1111 1877 1103 1842 1091 1810 C 1078 1778 1062 1750 1043 1727 C 1023 1703 1000 1684 974 1671 C 948 1657 921 1651 892 1651 C 879 1651 867 1651 855 1653 C 843 1654 831 1657 819 1661 C 806 1665 793 1670 779 1677 C 765 1683 751 1692 735 1702 C 721 1710 709 1716 699 1722 C 688 1728 678 1732 669 1736 C 659 1739 649 1741 640 1743 C 630 1744 620 1745 610 1745 C 584 1745 561 1735 541 1717 C 521 1698 509 1674 505 1645 L 415 1645 C 417 1682 423 1717 435 1749 C 447 1781 462 1809 482 1833 C 501 1856 524 1874 550 1888 C 576 1902 604 1909 634 1909 C 650 1909 665 1908 679 1906 C 692 1904 705 1902 717 1899 C 729 1895 740 1890 752 1884 C 763 1878 776 1870 790 1862 C 818 1844 842 1832 860 1825 C 878 1818 897 1815 917 1815 C 943 1815 967 1824 987 1842 C 1007 1860 1019 1885 1023 1915 L 1114 1915 Z M 1384 1436 C 1384 1428 1383 1421 1383 1417 C 1382 1413 1380 1409 1377 1405 C 1373 1401 1368 1396 1361 1391 C 1354 1386 1345 1380 1333 1372 C 1322 1364 1313 1356 1307 1349 C 1301 1341 1296 1333 1294 1325 C 1290 1316 1288 1306 1287 1295 C 1286 1283 1286 1270 1286 1255 L 1286 14 C 1286 0 1284 -8 1281 -13 C 1277 -17 1269 -20 1257 -20 L 1165 -20 C 1153 -20 1142 -16 1134 -9 C 1126 -1 1119 6 1114 14 L 364 1174 L 364 233 C 364 218 365 206 367 197 C 369 187 372 179 378 173 C 382 165 388 158 396 152 C 404 146 414 139 426 131 C 445 116 457 104 463 96 C 468 88 471 78 471 66 L 471 0 L 80 0 L 80 66 C 80 72 80 77 81 82 C 82 86 84 91 88 96 C 90 100 95 105 101 111 C 107 116 116 123 127 131 C 139 139 148 146 155 152 C 162 158 168 165 172 173 C 176 179 178 187 180 197 C 181 206 182 218 182 233 L 182 1262 C 182 1276 181 1288 181 1297 C 180 1306 178 1314 175 1322 C 171 1328 165 1335 158 1341 C 150 1347 140 1356 127 1366 C 117 1374 109 1380 103 1385 C 97 1390 92 1395 89 1400 C 85 1404 83 1408 82 1413 C 80 1417 80 1423 80 1430 L 80 1495 L 448 1495 C 458 1495 466 1494 472 1494 C 478 1494 483 1492 488 1490 C 492 1487 496 1483 500 1477 C 504 1471 510 1462 518 1452 L 1102 555 L 1102 1255 C 1102 1269 1101 1282 1100 1293 C 1099 1303 1097 1313 1094 1323 C 1090 1331 1084 1340 1076 1348 C 1068 1356 1058 1366 1046 1376 C 1036 1384 1028 1390 1022 1395 C 1016 1400 1011 1405 1009 1410 C 1005 1414 1003 1419 1002 1424 C 1001 1428 1001 1434 1001 1440 L 1001 1495 L 1384 1495 L 1384 1436 Z" unicode="" />
<glyph horiz-adv-x="1483" d="M 983 1653 L 924 1602 L 584 1751 C 561 1761 542 1770 528 1780 C 513 1790 501 1800 493 1811 C 484 1821 478 1832 474 1844 C 470 1855 469 1867 469 1880 C 469 1906 477 1929 494 1948 C 511 1966 538 1976 575 1976 C 589 1976 606 1973 624 1967 C 642 1961 662 1948 684 1929 L 983 1653 Z M 1436 748 C 1436 673 1428 602 1413 536 C 1397 469 1375 407 1347 351 C 1318 293 1283 242 1242 196 C 1201 150 1155 112 1104 80 C 1052 48 996 23 936 6 C 875 -11 811 -20 743 -20 C 641 -20 547 -1 462 36 C 377 73 304 126 243 194 C 181 261 134 342 100 436 C 66 530 49 634 49 748 C 49 822 56 892 72 959 C 87 1025 109 1087 139 1145 C 167 1201 202 1252 243 1298 C 284 1344 330 1383 382 1416 C 433 1448 489 1472 550 1490 C 610 1507 675 1516 743 1516 C 845 1516 938 1496 1023 1458 C 1108 1420 1181 1367 1243 1299 C 1303 1230 1351 1149 1385 1055 C 1419 961 1436 858 1436 748 Z M 1122 748 C 1122 844 1113 930 1095 1005 C 1077 1080 1051 1143 1019 1195 C 985 1246 945 1285 899 1312 C 852 1338 800 1352 743 1352 C 685 1352 633 1338 587 1312 C 540 1285 500 1246 467 1195 C 433 1143 407 1080 389 1005 C 371 930 362 844 362 748 C 362 650 371 564 389 489 C 407 414 433 351 467 301 C 500 249 540 210 587 184 C 633 158 685 145 743 145 C 800 145 852 157 899 183 C 945 208 985 246 1019 297 C 1051 347 1077 410 1095 486 C 1113 561 1122 648 1122 748 Z" unicode="" />
<glyph horiz-adv-x="1483" d="M 1018 1880 C 1018 1854 1010 1831 994 1811 C 978 1790 947 1770 903 1751 L 563 1602 L 504 1653 L 803 1929 C 824 1948 844 1961 862 1967 C 880 1973 897 1976 911 1976 C 948 1976 975 1966 992 1948 C 1009 1929 1018 1906 1018 1880 Z M 1436 748 C 1436 673 1428 602 1413 536 C 1397 469 1375 407 1347 351 C 1318 293 1283 242 1242 196 C 1201 150 1155 112 1104 80 C 1052 48 996 23 936 6 C 875 -11 811 -20 743 -20 C 641 -20 547 -1 462 36 C 377 73 304 126 243 194 C 181 261 134 342 100 436 C 66 530 49 634 49 748 C 49 822 56 892 72 959 C 87 1025 109 1087 139 1145 C 167 1201 202 1252 243 1298 C 284 1344 330 1383 382 1416 C 433 1448 489 1472 550 1490 C 610 1507 675 1516 743 1516 C 845 1516 938 1496 1023 1458 C 1108 1420 1181 1367 1243 1299 C 1303 1230 1351 1149 1385 1055 C 1419 961 1436 858 1436 748 Z M 1122 748 C 1122 844 1113 930 1095 1005 C 1077 1080 1051 1143 1019 1195 C 985 1246 945 1285 899 1312 C 852 1338 800 1352 743 1352 C 685 1352 633 1338 587 1312 C 540 1285 500 1246 467 1195 C 433 1143 407 1080 389 1005 C 371 930 362 844 362 748 C 362 650 371 564 389 489 C 407 414 433 351 467 301 C 500 249 540 210 587 184 C 633 158 685 145 743 145 C 800 145 852 157 899 183 C 945 208 985 246 1019 297 C 1051 347 1077 410 1095 486 C 1113 561 1122 648 1122 748 Z" unicode="" />
<glyph horiz-adv-x="1483" d="M 1087 1606 L 954 1606 L 743 1798 L 532 1606 L 399 1606 L 670 1958 L 817 1958 L 1087 1606 Z M 1436 748 C 1436 673 1428 602 1413 536 C 1397 469 1375 407 1347 351 C 1318 293 1283 242 1242 196 C 1201 150 1155 112 1104 80 C 1052 48 996 23 936 6 C 875 -11 811 -20 743 -20 C 641 -20 547 -1 462 36 C 377 73 304 126 243 194 C 181 261 134 342 100 436 C 66 530 49 634 49 748 C 49 822 56 892 72 959 C 87 1025 109 1087 139 1145 C 167 1201 202 1252 243 1298 C 284 1344 330 1383 382 1416 C 433 1448 489 1472 550 1490 C 610 1507 675 1516 743 1516 C 845 1516 938 1496 1023 1458 C 1108 1420 1181 1367 1243 1299 C 1303 1230 1351 1149 1385 1055 C 1419 961 1436 858 1436 748 Z M 1122 748 C 1122 844 1113 930 1095 1005 C 1077 1080 1051 1143 1019 1195 C 985 1246 945 1285 899 1312 C 852 1338 800 1352 743 1352 C 685 1352 633 1338 587 1312 C 540 1285 500 1246 467 1195 C 433 1143 407 1080 389 1005 C 371 930 362 844 362 748 C 362 650 371 564 389 489 C 407 414 433 351 467 301 C 500 249 540 210 587 184 C 633 158 685 145 743 145 C 800 145 852 157 899 183 C 945 208 985 246 1019 297 C 1051 347 1077 410 1095 486 C 1113 561 1122 648 1122 748 Z" unicode="" />
<glyph horiz-adv-x="1483" d="M 1092 1915 C 1089 1877 1081 1842 1069 1810 C 1056 1778 1040 1750 1021 1727 C 1001 1703 978 1684 952 1671 C 926 1657 899 1651 870 1651 C 857 1651 845 1651 833 1653 C 821 1654 809 1657 797 1661 C 784 1665 771 1670 757 1677 C 743 1683 729 1692 713 1702 C 699 1710 687 1716 677 1722 C 666 1728 656 1732 647 1736 C 637 1739 627 1741 618 1743 C 608 1744 598 1745 588 1745 C 562 1745 539 1735 519 1717 C 499 1698 487 1674 483 1645 L 393 1645 C 395 1682 401 1717 413 1749 C 425 1781 440 1809 460 1833 C 479 1856 502 1874 528 1888 C 554 1902 582 1909 612 1909 C 628 1909 643 1908 657 1906 C 670 1904 683 1902 695 1899 C 707 1895 718 1890 730 1884 C 741 1878 754 1870 768 1862 C 796 1844 820 1832 838 1825 C 856 1818 875 1815 895 1815 C 921 1815 945 1824 965 1842 C 985 1860 997 1885 1001 1915 L 1092 1915 Z M 1436 748 C 1436 673 1428 602 1413 536 C 1397 469 1375 407 1347 351 C 1318 293 1283 242 1242 196 C 1201 150 1155 112 1104 80 C 1052 48 996 23 936 6 C 875 -11 811 -20 743 -20 C 641 -20 547 -1 462 36 C 377 73 304 126 243 194 C 181 261 134 342 100 436 C 66 530 49 634 49 748 C 49 822 56 892 72 959 C 87 1025 109 1087 139 1145 C 167 1201 202 1252 243 1298 C 284 1344 330 1383 382 1416 C 433 1448 489 1472 550 1490 C 610 1507 675 1516 743 1516 C 845 1516 938 1496 1023 1458 C 1108 1420 1181 1367 1243 1299 C 1303 1230 1351 1149 1385 1055 C 1419 961 1436 858 1436 748 Z M 1122 748 C 1122 844 1113 930 1095 1005 C 1077 1080 1051 1143 1019 1195 C 985 1246 945 1285 899 1312 C 852 1338 800 1352 743 1352 C 685 1352 633 1338 587 1312 C 540 1285 500 1246 467 1195 C 433 1143 407 1080 389 1005 C 371 930 362 844 362 748 C 362 650 371 564 389 489 C 407 414 433 351 467 301 C 500 249 540 210 587 184 C 633 158 685 145 743 145 C 800 145 852 157 899 183 C 945 208 985 246 1019 297 C 1051 347 1077 410 1095 486 C 1113 561 1122 648 1122 748 Z" unicode="" />
<glyph horiz-adv-x="1483" d="M 653 1776 C 653 1758 649 1741 642 1725 C 635 1709 626 1696 615 1685 C 603 1673 589 1663 573 1657 C 557 1650 540 1647 522 1647 C 504 1647 487 1650 471 1657 C 455 1663 442 1673 430 1685 C 418 1696 408 1709 401 1725 C 394 1741 391 1758 391 1776 C 391 1794 394 1810 401 1826 C 408 1842 418 1856 430 1868 C 442 1880 455 1889 471 1896 C 487 1903 504 1907 522 1907 C 540 1907 557 1903 573 1896 C 589 1889 603 1880 615 1868 C 626 1856 635 1842 642 1826 C 649 1810 653 1794 653 1776 Z M 1094 1776 C 1094 1758 1090 1741 1083 1725 C 1076 1709 1067 1696 1055 1685 C 1043 1673 1029 1663 1013 1657 C 997 1650 981 1647 963 1647 C 945 1647 928 1650 912 1657 C 896 1663 882 1673 870 1685 C 858 1696 848 1709 841 1725 C 834 1741 831 1758 831 1776 C 831 1794 834 1810 841 1826 C 848 1842 858 1856 870 1868 C 882 1880 896 1889 912 1896 C 928 1903 945 1907 963 1907 C 981 1907 997 1903 1013 1896 C 1029 1889 1043 1880 1055 1868 C 1067 1856 1076 1842 1083 1826 C 1090 1810 1094 1794 1094 1776 Z M 1436 748 C 1436 673 1428 602 1413 536 C 1397 469 1375 407 1347 351 C 1318 293 1283 242 1242 196 C 1201 150 1155 112 1104 80 C 1052 48 996 23 936 6 C 875 -11 811 -20 743 -20 C 641 -20 547 -1 462 36 C 377 73 304 126 243 194 C 181 261 134 342 100 436 C 66 530 49 634 49 748 C 49 822 56 892 72 959 C 87 1025 109 1087 139 1145 C 167 1201 202 1252 243 1298 C 284 1344 330 1383 382 1416 C 433 1448 489 1472 550 1490 C 610 1507 675 1516 743 1516 C 845 1516 938 1496 1023 1458 C 1108 1420 1181 1367 1243 1299 C 1303 1230 1351 1149 1385 1055 C 1419 961 1436 858 1436 748 Z M 1122 748 C 1122 844 1113 930 1095 1005 C 1077 1080 1051 1143 1019 1195 C 985 1246 945 1285 899 1312 C 852 1338 800 1352 743 1352 C 685 1352 633 1338 587 1312 C 540 1285 500 1246 467 1195 C 433 1143 407 1080 389 1005 C 371 930 362 844 362 748 C 362 650 371 564 389 489 C 407 414 433 351 467 301 C 500 249 540 210 587 184 C 633 158 685 145 743 145 C 800 145 852 157 899 183 C 945 208 985 246 1019 297 C 1051 347 1077 410 1095 486 C 1113 561 1122 648 1122 748 Z" unicode="" />
<glyph horiz-adv-x="1518" d="M 1269 211 L 1148 90 L 759 483 L 370 90 L 249 211 L 642 600 L 249 989 L 370 1110 L 759 717 L 1148 1110 L 1269 989 L 875 600 L 1269 211 Z" unicode="" />
<glyph horiz-adv-x="1468" d="M 1427 748 C 1427 673 1419 602 1404 536 C 1388 469 1366 407 1338 350 C 1309 293 1274 242 1234 196 C 1193 150 1147 112 1096 80 C 1044 48 988 23 928 6 C 867 -11 803 -20 735 -20 C 681 -20 629 -14 579 -2 C 529 9 481 25 436 47 L 362 -92 L 219 -92 L 328 115 C 284 148 245 187 210 231 C 174 275 144 323 119 377 C 94 431 75 489 61 551 C 47 613 41 678 41 748 C 41 822 48 892 64 959 C 79 1025 101 1087 130 1144 C 159 1201 194 1252 235 1298 C 276 1344 322 1383 374 1415 C 425 1447 481 1472 542 1490 C 602 1507 667 1516 735 1516 C 789 1516 841 1510 891 1498 C 941 1486 988 1468 1032 1446 L 1100 1573 L 1243 1573 L 1141 1378 C 1185 1344 1224 1304 1260 1260 C 1295 1216 1325 1167 1350 1113 C 1374 1059 1393 1002 1407 941 C 1420 879 1427 815 1427 748 Z M 1118 748 C 1118 838 1110 920 1095 993 C 1080 1065 1058 1127 1030 1178 L 526 217 C 555 193 587 175 621 163 C 655 151 693 145 735 145 C 792 145 844 157 891 183 C 938 208 978 246 1012 297 C 1046 347 1072 410 1090 486 C 1108 561 1118 648 1118 748 Z M 944 1280 C 886 1328 816 1352 735 1352 C 677 1352 625 1338 578 1312 C 530 1285 490 1246 456 1195 C 422 1143 396 1080 378 1005 C 359 930 350 844 350 748 C 350 656 357 574 372 502 C 387 429 409 367 438 317 L 944 1280 Z" unicode="" />
<glyph horiz-adv-x="1528" d="M 1005 1653 L 946 1602 L 606 1751 C 583 1761 564 1770 550 1780 C 535 1790 523 1800 515 1811 C 506 1821 500 1832 496 1844 C 492 1855 491 1867 491 1880 C 491 1906 499 1929 516 1948 C 533 1966 560 1976 597 1976 C 611 1976 628 1973 646 1967 C 664 1961 684 1948 706 1929 L 1005 1653 Z M 1452 1434 C 1452 1427 1451 1421 1450 1416 C 1449 1411 1447 1407 1445 1403 C 1441 1398 1437 1393 1431 1388 C 1425 1383 1417 1377 1407 1370 C 1395 1361 1385 1353 1378 1347 C 1371 1341 1366 1334 1362 1327 C 1358 1319 1355 1311 1354 1302 C 1352 1292 1352 1280 1352 1266 L 1352 559 C 1352 486 1341 415 1319 346 C 1297 276 1264 215 1218 161 C 1172 106 1113 62 1041 29 C 969 -3 884 -20 784 -20 C 674 -20 581 -5 504 25 C 427 55 365 96 317 149 C 268 201 233 262 211 332 C 189 402 178 478 178 559 L 178 1255 C 178 1271 177 1283 177 1293 C 176 1302 174 1310 171 1318 C 167 1324 161 1331 154 1337 C 146 1343 136 1350 123 1360 C 112 1368 103 1374 97 1379 C 91 1384 86 1389 84 1394 C 80 1398 78 1402 77 1406 C 76 1410 76 1416 76 1423 L 76 1495 L 567 1495 L 567 1423 C 567 1415 566 1409 566 1404 C 565 1399 563 1395 561 1391 C 557 1387 553 1382 547 1378 C 541 1373 532 1367 522 1360 C 510 1351 500 1343 492 1337 C 484 1331 479 1324 475 1317 C 471 1309 468 1301 467 1291 C 465 1281 465 1269 465 1255 L 465 559 C 465 501 472 447 488 398 C 504 348 526 306 556 271 C 585 235 621 208 663 188 C 705 168 753 158 807 158 C 867 158 920 167 965 186 C 1010 204 1048 231 1078 266 C 1107 300 1129 342 1143 392 C 1157 442 1165 497 1165 559 L 1165 1266 C 1165 1280 1164 1292 1162 1302 C 1160 1312 1158 1320 1154 1328 C 1149 1335 1143 1342 1136 1348 C 1128 1354 1119 1362 1108 1370 C 1098 1377 1090 1383 1084 1388 C 1078 1393 1074 1398 1071 1403 C 1067 1407 1065 1411 1064 1416 C 1063 1421 1063 1427 1063 1434 L 1063 1495 L 1452 1495 L 1452 1434 Z" unicode="" />
<glyph horiz-adv-x="1528" d="M 1065 1880 C 1065 1854 1057 1831 1041 1811 C 1025 1790 994 1770 950 1751 L 610 1602 L 551 1653 L 850 1929 C 871 1948 891 1961 909 1967 C 927 1973 944 1976 958 1976 C 995 1976 1022 1966 1039 1948 C 1056 1929 1065 1906 1065 1880 Z M 1452 1434 C 1452 1427 1451 1421 1450 1416 C 1449 1411 1447 1407 1445 1403 C 1441 1398 1437 1393 1431 1388 C 1425 1383 1417 1377 1407 1370 C 1395 1361 1385 1353 1378 1347 C 1371 1341 1366 1334 1362 1327 C 1358 1319 1355 1311 1354 1302 C 1352 1292 1352 1280 1352 1266 L 1352 559 C 1352 486 1341 415 1319 346 C 1297 276 1264 215 1218 161 C 1172 106 1113 62 1041 29 C 969 -3 884 -20 784 -20 C 674 -20 581 -5 504 25 C 427 55 365 96 317 149 C 268 201 233 262 211 332 C 189 402 178 478 178 559 L 178 1255 C 178 1271 177 1283 177 1293 C 176 1302 174 1310 171 1318 C 167 1324 161 1331 154 1337 C 146 1343 136 1350 123 1360 C 112 1368 103 1374 97 1379 C 91 1384 86 1389 84 1394 C 80 1398 78 1402 77 1406 C 76 1410 76 1416 76 1423 L 76 1495 L 567 1495 L 567 1423 C 567 1415 566 1409 566 1404 C 565 1399 563 1395 561 1391 C 557 1387 553 1382 547 1378 C 541 1373 532 1367 522 1360 C 510 1351 500 1343 492 1337 C 484 1331 479 1324 475 1317 C 471 1309 468 1301 467 1291 C 465 1281 465 1269 465 1255 L 465 559 C 465 501 472 447 488 398 C 504 348 526 306 556 271 C 585 235 621 208 663 188 C 705 168 753 158 807 158 C 867 158 920 167 965 186 C 1010 204 1048 231 1078 266 C 1107 300 1129 342 1143 392 C 1157 442 1165 497 1165 559 L 1165 1266 C 1165 1280 1164 1292 1162 1302 C 1160 1312 1158 1320 1154 1328 C 1149 1335 1143 1342 1136 1348 C 1128 1354 1119 1362 1108 1370 C 1098 1377 1090 1383 1084 1388 C 1078 1393 1074 1398 1071 1403 C 1067 1407 1065 1411 1064 1416 C 1063 1421 1063 1427 1063 1434 L 1063 1495 L 1452 1495 L 1452 1434 Z" unicode="" />
<glyph horiz-adv-x="1528" d="M 1117 1606 L 984 1606 L 773 1798 L 562 1606 L 429 1606 L 700 1958 L 847 1958 L 1117 1606 Z M 1452 1434 C 1452 1427 1451 1421 1450 1416 C 1449 1411 1447 1407 1445 1403 C 1441 1398 1437 1393 1431 1388 C 1425 1383 1417 1377 1407 1370 C 1395 1361 1385 1353 1378 1347 C 1371 1341 1366 1334 1362 1327 C 1358 1319 1355 1311 1354 1302 C 1352 1292 1352 1280 1352 1266 L 1352 559 C 1352 486 1341 415 1319 346 C 1297 276 1264 215 1218 161 C 1172 106 1113 62 1041 29 C 969 -3 884 -20 784 -20 C 674 -20 581 -5 504 25 C 427 55 365 96 317 149 C 268 201 233 262 211 332 C 189 402 178 478 178 559 L 178 1255 C 178 1271 177 1283 177 1293 C 176 1302 174 1310 171 1318 C 167 1324 161 1331 154 1337 C 146 1343 136 1350 123 1360 C 112 1368 103 1374 97 1379 C 91 1384 86 1389 84 1394 C 80 1398 78 1402 77 1406 C 76 1410 76 1416 76 1423 L 76 1495 L 567 1495 L 567 1423 C 567 1415 566 1409 566 1404 C 565 1399 563 1395 561 1391 C 557 1387 553 1382 547 1378 C 541 1373 532 1367 522 1360 C 510 1351 500 1343 492 1337 C 484 1331 479 1324 475 1317 C 471 1309 468 1301 467 1291 C 465 1281 465 1269 465 1255 L 465 559 C 465 501 472 447 488 398 C 504 348 526 306 556 271 C 585 235 621 208 663 188 C 705 168 753 158 807 158 C 867 158 920 167 965 186 C 1010 204 1048 231 1078 266 C 1107 300 1129 342 1143 392 C 1157 442 1165 497 1165 559 L 1165 1266 C 1165 1280 1164 1292 1162 1302 C 1160 1312 1158 1320 1154 1328 C 1149 1335 1143 1342 1136 1348 C 1128 1354 1119 1362 1108 1370 C 1098 1377 1090 1383 1084 1388 C 1078 1393 1074 1398 1071 1403 C 1067 1407 1065 1411 1064 1416 C 1063 1421 1063 1427 1063 1434 L 1063 1495 L 1452 1495 L 1452 1434 Z" unicode="" />
<glyph horiz-adv-x="1528" d="M 714 1776 C 714 1758 710 1741 703 1725 C 696 1709 687 1696 676 1685 C 664 1673 650 1663 634 1657 C 618 1650 601 1647 583 1647 C 565 1647 548 1650 532 1657 C 516 1663 503 1673 491 1685 C 479 1696 469 1709 462 1725 C 455 1741 452 1758 452 1776 C 452 1794 455 1810 462 1826 C 469 1842 479 1856 491 1868 C 503 1880 516 1889 532 1896 C 548 1903 565 1907 583 1907 C 601 1907 618 1903 634 1896 C 650 1889 664 1880 676 1868 C 687 1856 696 1842 703 1826 C 710 1810 714 1794 714 1776 Z M 1155 1776 C 1155 1758 1151 1741 1144 1725 C 1137 1709 1128 1696 1116 1685 C 1104 1673 1090 1663 1074 1657 C 1058 1650 1042 1647 1024 1647 C 1006 1647 989 1650 973 1657 C 957 1663 943 1673 931 1685 C 919 1696 909 1709 902 1725 C 895 1741 892 1758 892 1776 C 892 1794 895 1810 902 1826 C 909 1842 919 1856 931 1868 C 943 1880 957 1889 973 1896 C 989 1903 1006 1907 1024 1907 C 1042 1907 1058 1903 1074 1896 C 1090 1889 1104 1880 1116 1868 C 1128 1856 1137 1842 1144 1826 C 1151 1810 1155 1794 1155 1776 Z M 1452 1434 C 1452 1427 1451 1421 1450 1416 C 1449 1411 1447 1407 1445 1403 C 1441 1398 1437 1393 1431 1388 C 1425 1383 1417 1377 1407 1370 C 1395 1361 1385 1353 1378 1347 C 1371 1341 1366 1334 1362 1327 C 1358 1319 1355 1311 1354 1302 C 1352 1292 1352 1280 1352 1266 L 1352 559 C 1352 486 1341 415 1319 346 C 1297 276 1264 215 1218 161 C 1172 106 1113 62 1041 29 C 969 -3 884 -20 784 -20 C 674 -20 581 -5 504 25 C 427 55 365 96 317 149 C 268 201 233 262 211 332 C 189 402 178 478 178 559 L 178 1255 C 178 1271 177 1283 177 1293 C 176 1302 174 1310 171 1318 C 167 1324 161 1331 154 1337 C 146 1343 136 1350 123 1360 C 112 1368 103 1374 97 1379 C 91 1384 86 1389 84 1394 C 80 1398 78 1402 77 1406 C 76 1410 76 1416 76 1423 L 76 1495 L 567 1495 L 567 1423 C 567 1415 566 1409 566 1404 C 565 1399 563 1395 561 1391 C 557 1387 553 1382 547 1378 C 541 1373 532 1367 522 1360 C 510 1351 500 1343 492 1337 C 484 1331 479 1324 475 1317 C 471 1309 468 1301 467 1291 C 465 1281 465 1269 465 1255 L 465 559 C 465 501 472 447 488 398 C 504 348 526 306 556 271 C 585 235 621 208 663 188 C 705 168 753 158 807 158 C 867 158 920 167 965 186 C 1010 204 1048 231 1078 266 C 1107 300 1129 342 1143 392 C 1157 442 1165 497 1165 559 L 1165 1266 C 1165 1280 1164 1292 1162 1302 C 1160 1312 1158 1320 1154 1328 C 1149 1335 1143 1342 1136 1348 C 1128 1354 1119 1362 1108 1370 C 1098 1377 1090 1383 1084 1388 C 1078 1393 1074 1398 1071 1403 C 1067 1407 1065 1411 1064 1416 C 1063 1421 1063 1427 1063 1434 L 1063 1495 L 1452 1495 L 1452 1434 Z" unicode="" />
<glyph horiz-adv-x="1280" d="M 973 1880 C 973 1854 965 1831 949 1811 C 933 1790 902 1770 858 1751 L 518 1602 L 459 1653 L 758 1929 C 779 1948 799 1961 817 1967 C 835 1973 852 1976 866 1976 C 903 1976 930 1966 947 1948 C 964 1929 973 1906 973 1880 Z M 1294 1434 C 1294 1420 1291 1410 1285 1404 C 1279 1397 1268 1387 1253 1374 C 1239 1362 1226 1351 1216 1342 C 1206 1333 1196 1323 1187 1313 C 1177 1302 1167 1290 1157 1276 C 1147 1262 1135 1244 1122 1223 L 795 680 L 795 240 C 795 224 795 212 797 203 C 798 193 801 185 805 179 C 809 171 814 164 821 158 C 828 152 838 145 850 137 C 860 130 868 124 874 119 C 880 113 885 108 889 104 C 892 98 894 93 895 88 C 896 83 897 78 897 72 L 897 0 L 405 0 L 405 72 C 405 84 407 94 412 103 C 417 111 430 123 451 137 C 463 145 472 152 480 158 C 488 164 494 171 498 179 C 502 185 504 193 506 203 C 507 212 508 224 508 240 L 508 680 L 141 1257 C 131 1272 118 1288 102 1306 C 86 1323 63 1341 33 1360 C 21 1366 13 1372 7 1377 C 1 1382 -3 1387 -7 1392 C -9 1396 -11 1400 -11 1405 C -11 1410 -12 1416 -12 1423 L -12 1495 L 534 1495 L 534 1444 C 534 1436 533 1429 533 1425 C 532 1420 530 1416 528 1412 C 524 1407 520 1402 514 1398 C 508 1393 499 1387 489 1380 C 475 1370 466 1362 461 1356 C 455 1349 453 1340 453 1329 C 453 1320 455 1310 459 1300 C 463 1289 469 1277 477 1264 L 717 866 L 948 1257 C 957 1273 964 1288 970 1301 C 976 1314 979 1325 979 1333 C 979 1344 975 1353 967 1361 C 959 1368 948 1376 934 1384 C 914 1394 900 1404 892 1414 C 883 1423 879 1434 879 1448 L 879 1495 L 1294 1495 L 1294 1434 Z" unicode="" />
<glyph horiz-adv-x="1159" d="M 1117 397 C 1117 343 1106 291 1086 241 C 1066 191 1038 147 1002 109 C 965 70 921 39 871 16 C 821 -6 766 -18 706 -18 C 664 -18 627 -13 595 -5 C 563 2 536 14 515 30 C 493 45 477 63 466 85 C 455 106 450 130 450 156 C 450 164 451 175 455 189 C 458 202 464 215 474 229 C 482 241 494 252 510 262 C 525 271 544 276 568 276 C 586 276 603 272 617 266 C 631 260 642 252 651 242 C 659 232 666 220 670 208 C 674 196 677 184 677 172 C 677 164 675 153 671 140 C 667 126 663 115 658 106 C 662 104 666 102 670 100 C 674 98 679 98 685 98 C 707 98 728 105 748 121 C 768 136 785 157 800 185 C 814 211 825 243 833 280 C 841 317 845 357 845 401 C 845 455 839 502 829 540 C 818 578 802 609 782 633 C 761 656 736 673 706 684 C 676 694 641 700 603 700 C 597 700 594 700 592 701 C 590 701 588 702 585 702 C 551 702 526 710 512 728 C 497 745 490 767 490 793 C 490 817 497 839 511 858 C 525 877 544 887 570 887 L 599 887 C 625 887 648 892 668 904 C 687 916 703 932 716 954 C 728 974 738 1000 744 1030 C 750 1060 753 1093 753 1130 C 753 1166 749 1198 741 1225 C 733 1252 723 1274 709 1292 C 695 1309 678 1322 658 1330 C 638 1338 615 1343 591 1343 C 560 1343 533 1337 509 1325 C 485 1313 465 1294 449 1268 C 432 1242 419 1208 411 1168 C 402 1128 398 1080 398 1024 L 398 0 L 54 0 L 54 66 C 54 76 56 83 61 88 C 65 93 76 101 93 113 C 103 120 112 126 118 132 C 124 137 128 143 132 150 C 134 156 136 163 137 173 C 137 182 138 195 138 211 L 138 1008 C 138 1084 149 1153 172 1213 C 194 1273 226 1325 267 1367 C 307 1408 355 1440 411 1462 C 467 1484 528 1495 595 1495 C 653 1495 707 1487 757 1471 C 807 1455 851 1433 889 1405 C 925 1375 954 1340 975 1299 C 996 1258 1007 1213 1007 1163 C 1007 1117 1000 1075 986 1035 C 972 995 953 960 928 929 C 902 897 872 871 836 850 C 800 829 761 815 718 807 C 792 800 854 784 905 760 C 956 736 997 705 1029 669 C 1060 632 1082 590 1096 544 C 1110 497 1117 448 1117 397 Z" unicode="" />
<glyph horiz-adv-x="967" d="M 1001 113 C 992 95 980 79 966 64 C 952 49 936 36 918 25 C 899 13 879 4 858 -2 C 837 -8 816 -12 795 -12 C 757 -12 720 -3 686 15 C 652 33 624 62 604 102 C 587 82 568 64 547 49 C 526 34 504 22 481 12 C 457 2 432 -5 407 -10 C 381 -15 356 -18 332 -18 C 294 -18 257 -12 222 -1 C 186 9 155 26 129 48 C 101 70 79 97 63 130 C 47 162 39 200 39 244 C 39 289 50 331 72 371 C 94 411 128 445 173 475 C 217 504 273 527 340 544 C 407 560 485 569 575 569 C 575 631 563 678 539 710 C 515 742 478 758 426 758 C 411 758 399 756 389 754 C 379 752 373 750 369 748 C 362 695 345 656 319 631 C 292 606 262 594 229 594 C 210 594 193 597 179 603 C 164 609 152 618 142 630 C 132 640 124 653 119 668 C 113 682 111 698 111 715 C 111 735 117 756 129 778 C 141 800 161 820 188 838 C 214 855 247 869 288 880 C 328 891 377 897 434 897 C 504 897 565 887 615 869 C 665 850 707 824 739 792 C 771 758 794 719 809 673 C 823 627 831 578 831 524 L 831 229 C 831 205 837 188 851 177 C 864 165 881 160 903 160 C 911 160 920 161 929 165 C 938 168 946 172 952 176 C 954 173 957 169 961 164 C 965 159 970 154 975 148 C 979 142 984 135 989 129 C 993 123 997 117 1001 113 Z M 571 266 L 571 453 C 531 451 494 445 461 435 C 428 425 400 412 378 396 C 354 378 336 358 324 336 C 311 313 305 288 305 260 C 305 237 308 217 315 201 C 321 185 330 172 342 162 C 353 151 366 143 381 138 C 395 133 410 131 426 131 C 444 131 461 134 479 140 C 496 146 512 154 526 166 C 539 177 550 191 558 208 C 566 225 571 244 571 266 Z M 682 1016 L 618 973 L 321 1159 C 285 1181 259 1202 245 1222 C 230 1241 223 1261 223 1282 C 223 1308 231 1332 247 1352 C 263 1372 287 1382 317 1382 C 325 1382 335 1381 345 1380 C 355 1378 365 1376 376 1372 C 386 1367 397 1360 408 1352 C 419 1344 430 1333 442 1319 L 682 1016 Z" unicode="" />
<glyph horiz-adv-x="967" d="M 1001 113 C 992 95 980 79 966 64 C 952 49 936 36 918 25 C 899 13 879 4 858 -2 C 837 -8 816 -12 795 -12 C 757 -12 720 -3 686 15 C 652 33 624 62 604 102 C 587 82 568 64 547 49 C 526 34 504 22 481 12 C 457 2 432 -5 407 -10 C 381 -15 356 -18 332 -18 C 294 -18 257 -12 222 -1 C 186 9 155 26 129 48 C 101 70 79 97 63 130 C 47 162 39 200 39 244 C 39 289 50 331 72 371 C 94 411 128 445 173 475 C 217 504 273 527 340 544 C 407 560 485 569 575 569 C 575 631 563 678 539 710 C 515 742 478 758 426 758 C 411 758 399 756 389 754 C 379 752 373 750 369 748 C 362 695 345 656 319 631 C 292 606 262 594 229 594 C 210 594 193 597 179 603 C 164 609 152 618 142 630 C 132 640 124 653 119 668 C 113 682 111 698 111 715 C 111 735 117 756 129 778 C 141 800 161 820 188 838 C 214 855 247 869 288 880 C 328 891 377 897 434 897 C 504 897 565 887 615 869 C 665 850 707 824 739 792 C 771 758 794 719 809 673 C 823 627 831 578 831 524 L 831 229 C 831 205 837 188 851 177 C 864 165 881 160 903 160 C 911 160 920 161 929 165 C 938 168 946 172 952 176 C 954 173 957 169 961 164 C 965 159 970 154 975 148 C 979 142 984 135 989 129 C 993 123 997 117 1001 113 Z M 571 266 L 571 453 C 531 451 494 445 461 435 C 428 425 400 412 378 396 C 354 378 336 358 324 336 C 311 313 305 288 305 260 C 305 237 308 217 315 201 C 321 185 330 172 342 162 C 353 151 366 143 381 138 C 395 133 410 131 426 131 C 444 131 461 134 479 140 C 496 146 512 154 526 166 C 539 177 550 191 558 208 C 566 225 571 244 571 266 Z M 699 1282 C 699 1261 691 1241 677 1222 C 662 1202 637 1181 601 1159 L 304 973 L 241 1016 L 480 1319 C 491 1333 502 1344 513 1352 C 524 1360 535 1367 546 1372 C 556 1376 567 1378 577 1380 C 587 1381 596 1382 605 1382 C 635 1382 658 1372 674 1352 C 690 1332 699 1308 699 1282 Z" unicode="" />
<glyph horiz-adv-x="967" d="M 1001 113 C 992 95 980 79 966 64 C 952 49 936 36 918 25 C 899 13 879 4 858 -2 C 837 -8 816 -12 795 -12 C 757 -12 720 -3 686 15 C 652 33 624 62 604 102 C 587 82 568 64 547 49 C 526 34 504 22 481 12 C 457 2 432 -5 407 -10 C 381 -15 356 -18 332 -18 C 294 -18 257 -12 222 -1 C 186 9 155 26 129 48 C 101 70 79 97 63 130 C 47 162 39 200 39 244 C 39 289 50 331 72 371 C 94 411 128 445 173 475 C 217 504 273 527 340 544 C 407 560 485 569 575 569 C 575 631 563 678 539 710 C 515 742 478 758 426 758 C 411 758 399 756 389 754 C 379 752 373 750 369 748 C 362 695 345 656 319 631 C 292 606 262 594 229 594 C 210 594 193 597 179 603 C 164 609 152 618 142 630 C 132 640 124 653 119 668 C 113 682 111 698 111 715 C 111 735 117 756 129 778 C 141 800 161 820 188 838 C 214 855 247 869 288 880 C 328 891 377 897 434 897 C 504 897 565 887 615 869 C 665 850 707 824 739 792 C 771 758 794 719 809 673 C 823 627 831 578 831 524 L 831 229 C 831 205 837 188 851 177 C 864 165 881 160 903 160 C 911 160 920 161 929 165 C 938 168 946 172 952 176 C 954 173 957 169 961 164 C 965 159 970 154 975 148 C 979 142 984 135 989 129 C 993 123 997 117 1001 113 Z M 571 266 L 571 453 C 531 451 494 445 461 435 C 428 425 400 412 378 396 C 354 378 336 358 324 336 C 311 313 305 288 305 260 C 305 237 308 217 315 201 C 321 185 330 172 342 162 C 353 151 366 143 381 138 C 395 133 410 131 426 131 C 444 131 461 134 479 140 C 496 146 512 154 526 166 C 539 177 550 191 558 208 C 566 225 571 244 571 266 Z M 782 985 L 648 985 L 450 1192 L 251 985 L 118 985 L 376 1352 L 524 1352 L 782 985 Z" unicode="" />
</font>
</defs>
</svg>
