<?xml version="1.0" encoding="utf-8" ?><svg version="1.1" xmlns = 'http://www.w3.org/2000/svg'><defs><font id='web' horiz-adv-x="1000">
<font-face font-family="web" descent="-208" cap-height="700" units-per-em="1000" bbox="-224,-202,1201,962" x-height="500" ascent="792" />
<missing-glyph horiz-adv-x="196" d="" /><glyph horiz-adv-x="196" d="" unicode=" " />
<glyph horiz-adv-x="267" d="M 247 742 C 265 742 277 736 283 726 C 289 715 292 702 292 688 C 292 683 291 678 291 673 C 290 668 289 663 289 659 C 285 643 281 629 277 615 C 272 601 267 586 261 571 C 255 555 248 538 240 520 C 232 502 224 480 216 456 C 200 412 185 366 173 319 C 161 271 150 231 141 199 C 141 198 139 197 136 197 C 133 196 131 196 129 196 C 126 196 123 197 120 199 C 116 201 115 202 116 204 C 122 238 130 278 142 326 C 153 373 161 420 167 467 C 173 519 177 560 181 591 C 185 622 190 653 197 684 C 199 698 205 712 213 724 C 221 736 233 742 247 742 Z M 93 98 C 107 98 120 93 130 83 C 140 73 146 60 146 46 C 146 31 140 19 130 9 C 120 -1 107 -6 93 -6 C 78 -6 66 -1 56 9 C 46 19 41 31 41 46 C 41 60 46 73 56 83 C 66 93 78 98 93 98 Z" unicode="!" />
<glyph horiz-adv-x="370" d="M 365 740 C 377 740 388 736 396 729 C 404 721 408 711 408 699 C 408 696 407 693 406 689 C 405 685 404 681 404 679 C 396 656 388 636 380 618 C 372 600 365 583 357 567 C 349 551 341 534 333 516 C 325 498 316 478 307 455 C 307 454 305 454 303 454 C 301 454 299 454 299 454 C 297 454 296 454 294 455 C 292 456 290 457 290 458 C 292 480 294 503 297 528 C 300 552 303 576 306 598 C 309 620 312 641 315 660 C 317 679 320 694 322 705 C 324 717 330 725 338 731 C 346 737 355 740 365 740 Z M 214 740 C 226 740 237 736 245 729 C 253 721 257 711 257 699 C 257 696 256 693 255 689 C 254 685 253 681 253 679 C 245 656 237 636 229 618 C 221 600 214 583 206 567 C 198 551 190 534 182 516 C 174 498 165 478 156 455 C 156 454 154 454 152 454 C 150 454 148 454 148 454 C 146 454 145 454 143 455 C 141 456 139 457 139 458 C 141 480 143 503 146 528 C 149 552 152 576 155 598 C 158 620 161 641 164 660 C 166 679 169 694 171 705 C 173 717 179 725 187 731 C 195 737 204 740 214 740 Z" unicode="&#x22;" />
<glyph horiz-adv-x="754" d="M 543 490 L 710 490 L 691 429 L 524 429 L 472 263 L 645 263 L 626 202 L 453 202 L 390 -3 L 365 -3 L 428 202 L 287 202 L 224 -3 L 199 -3 L 262 202 L 95 202 L 113 263 L 281 263 L 333 429 L 160 429 L 178 490 L 352 490 L 411 679 L 436 679 L 377 490 L 518 490 L 577 679 L 602 679 L 543 490 Z M 447 263 L 499 429 L 358 429 L 306 263 L 447 263 Z" unicode="#" />
<glyph horiz-adv-x="536" d="M 399 685 C 443 678 476 663 499 640 C 522 617 534 591 534 563 C 534 550 529 538 520 527 C 511 516 499 511 485 511 C 472 511 462 514 454 522 C 446 530 442 538 442 548 C 442 561 445 571 451 579 C 457 587 466 595 477 605 C 471 615 462 624 449 634 C 436 643 417 651 392 658 L 326 388 C 340 380 355 373 369 365 C 383 357 395 350 407 343 C 431 326 452 306 469 282 C 485 258 494 232 494 204 C 494 176 488 150 476 124 C 464 98 447 76 425 57 C 403 37 376 22 345 10 C 314 -1 280 -7 243 -7 L 229 -7 C 229 -7 227 -13 224 -27 C 221 -40 218 -55 214 -71 C 210 -87 206 -102 203 -116 C 199 -129 198 -136 198 -136 L 169 -136 L 202 -5 C 143 0 98 17 67 45 C 36 73 21 106 21 142 C 21 154 25 166 35 178 C 44 189 56 195 72 195 C 86 195 97 191 105 183 C 113 175 117 166 117 158 C 117 144 114 132 108 124 C 102 115 93 106 82 98 C 87 86 98 72 116 56 C 134 39 165 28 209 23 L 283 325 C 273 329 263 334 254 338 C 244 342 234 348 224 354 C 214 359 203 366 191 374 C 179 382 167 393 157 405 C 147 417 138 432 131 448 C 124 464 121 483 121 505 C 121 532 127 557 140 580 C 153 602 170 622 191 638 C 212 654 236 666 264 675 C 291 684 319 689 349 689 C 353 689 356 689 360 689 C 364 689 368 688 372 688 L 384 740 L 413 740 L 399 685 Z M 300 396 L 365 661 C 358 661 352 662 348 662 C 344 662 340 662 337 662 C 313 662 293 658 275 650 C 257 642 241 631 229 619 C 217 607 207 593 201 577 C 194 561 191 546 191 532 C 191 506 195 484 205 466 C 215 448 232 432 257 418 C 261 415 267 412 274 408 C 280 404 289 400 300 396 Z M 245 20 C 295 20 337 33 371 61 C 405 88 423 127 423 177 C 423 196 417 217 407 239 C 397 261 375 281 343 299 C 338 301 333 304 328 307 C 323 309 317 313 309 317 L 236 20 L 245 20 Z" unicode="$" />
<glyph horiz-adv-x="855" d="M 717 704 L 744 686 L 204 -38 L 160 -6 L 654 608 L 651 611 C 637 602 622 592 604 580 C 586 568 567 557 545 547 C 523 536 500 526 475 518 C 449 510 422 505 394 503 C 391 477 384 453 372 429 C 360 405 345 384 327 366 C 309 348 290 333 268 322 C 246 311 224 306 202 306 C 166 306 135 321 110 351 C 85 381 73 418 73 463 C 73 490 78 517 88 545 C 98 573 112 598 130 620 C 147 642 168 660 192 674 C 216 688 243 695 271 695 C 290 695 307 690 323 682 C 339 673 352 661 363 646 C 374 631 382 614 388 594 C 394 574 397 554 397 532 C 437 536 474 544 508 557 C 542 570 572 585 599 603 C 625 620 649 638 669 656 C 689 674 705 690 717 704 Z M 341 527 C 341 537 342 545 342 552 C 342 558 343 564 343 569 C 343 600 336 625 324 644 C 312 662 293 672 268 672 C 250 672 236 666 226 656 C 215 645 210 633 210 619 C 210 611 211 602 215 592 C 219 582 226 572 236 563 C 246 554 259 546 276 540 C 293 533 315 529 341 527 Z M 203 328 C 219 328 235 333 249 343 C 263 353 276 367 288 383 C 299 399 309 418 317 438 C 325 458 332 478 337 498 C 297 501 263 513 234 534 C 205 555 191 587 192 630 C 166 596 149 559 141 521 C 133 483 129 451 129 425 C 129 394 135 370 149 353 C 163 336 181 328 203 328 Z M 714 379 C 732 379 749 374 765 366 C 781 357 794 345 805 331 C 816 317 825 300 831 280 C 837 260 840 240 840 219 C 840 188 834 159 823 131 C 812 103 798 79 780 58 C 762 37 742 20 718 8 C 694 -3 670 -10 646 -10 C 610 -10 580 4 554 33 C 528 62 516 99 516 145 C 516 172 521 200 531 228 C 541 256 554 281 572 303 C 590 325 611 344 635 358 C 659 372 686 379 714 379 Z M 647 12 C 670 12 690 20 708 38 C 725 55 739 76 751 100 C 762 124 770 151 776 179 C 782 207 785 231 785 252 C 785 284 778 310 766 329 C 753 347 734 357 709 357 C 683 357 662 347 644 328 C 626 309 612 286 602 260 C 591 233 583 205 578 176 C 573 147 571 123 571 104 C 571 75 578 52 592 36 C 606 20 624 12 647 12 Z" unicode="%" />
<glyph horiz-adv-x="757" d="M 533 380 L 754 380 L 751 368 C 749 363 746 360 741 358 C 735 356 730 355 724 354 C 712 350 703 347 695 344 C 687 341 679 337 671 331 C 663 325 653 317 643 306 C 633 295 620 280 604 261 C 586 239 566 215 544 190 C 522 164 498 141 472 121 C 494 87 518 63 542 49 C 566 35 592 28 622 28 C 634 28 649 30 665 36 C 681 41 694 46 706 52 L 711 31 C 692 20 672 10 650 2 C 628 -6 599 -11 563 -11 C 528 -11 500 -3 479 12 C 458 27 437 49 417 77 C 381 49 346 28 312 12 C 278 -3 243 -11 207 -11 C 176 -11 149 -6 126 3 C 102 13 83 25 67 41 C 51 57 40 75 32 96 C 24 116 21 138 21 160 C 21 216 41 266 81 308 C 121 350 180 388 260 421 C 253 443 248 465 245 486 C 242 507 241 527 241 546 C 241 572 245 596 254 620 C 262 644 275 664 292 682 C 309 700 330 714 355 725 C 380 735 409 741 442 741 C 465 741 485 737 503 730 C 520 722 534 713 545 702 C 556 691 564 678 570 664 C 575 650 578 636 578 622 C 578 574 557 532 515 498 C 473 463 413 436 337 417 C 351 367 369 318 391 270 C 413 221 436 178 458 141 C 480 161 501 182 519 204 C 537 225 552 244 564 260 C 572 272 579 284 585 295 C 590 306 593 313 593 317 C 593 324 589 331 582 338 C 575 344 565 349 551 353 C 544 355 539 356 535 358 C 531 360 529 361 529 363 C 529 364 529 365 529 367 C 529 369 530 371 531 373 L 533 380 Z M 332 438 C 375 452 409 469 434 487 C 458 505 476 523 488 540 C 500 557 507 573 510 588 C 512 603 514 615 514 624 C 514 654 505 677 489 693 C 473 709 453 717 431 717 C 391 717 361 701 342 671 C 323 640 314 604 314 562 C 314 545 315 526 318 506 C 320 486 325 463 332 438 Z M 255 38 C 281 38 305 44 329 56 C 352 68 376 82 401 99 C 375 141 352 184 331 228 C 309 272 287 329 265 398 C 199 367 154 334 132 299 C 110 263 99 227 99 191 C 99 147 112 110 138 81 C 164 52 203 38 255 38 Z" unicode="&#x26;" />
<glyph horiz-adv-x="220" d="M 214 740 C 226 740 237 736 245 729 C 253 721 257 711 257 699 C 257 696 256 693 255 689 C 254 685 253 681 253 679 C 245 656 237 636 229 618 C 221 600 214 583 206 567 C 198 551 190 534 182 516 C 174 498 165 478 156 455 C 156 454 154 454 152 454 C 150 454 148 454 148 454 C 146 454 145 454 143 455 C 141 456 139 457 139 458 C 141 480 143 503 146 528 C 149 552 152 576 155 598 C 158 620 161 641 164 660 C 166 679 169 694 171 705 C 173 717 179 725 187 731 C 195 737 204 740 214 740 Z" unicode="'" />
<glyph horiz-adv-x="340" d="M 407 740 L 421 720 C 375 688 333 651 295 609 C 257 567 224 521 198 471 C 171 420 150 364 136 303 C 121 241 114 175 114 104 C 114 42 122 -12 139 -59 C 156 -106 178 -144 205 -173 L 180 -190 C 139 -150 106 -98 81 -34 C 56 29 44 97 44 171 C 44 235 53 294 72 350 C 91 405 117 456 150 503 C 182 549 221 592 265 632 C 309 671 357 707 407 740 Z" unicode="(" />
<glyph horiz-adv-x="340" d="M 152 741 C 192 701 225 650 250 586 C 275 522 288 453 288 380 C 288 316 278 256 259 201 C 240 146 214 95 182 49 C 149 2 110 -40 66 -80 C 22 -120 -25 -156 -75 -189 L -89 -168 C -43 -136 -1 -99 37 -58 C 75 -16 107 29 134 80 C 160 130 181 186 196 248 C 210 310 218 376 218 448 C 218 510 209 564 192 611 C 175 658 153 696 127 725 L 152 741 Z" unicode=")" />
<glyph horiz-adv-x="430" d="M 425 659 C 434 659 442 656 449 650 C 455 644 459 636 459 628 C 459 622 457 616 454 612 C 451 607 446 603 440 599 C 429 592 420 588 412 587 C 404 585 395 584 386 582 C 377 580 366 578 354 575 C 342 571 326 564 307 554 C 326 544 342 537 355 533 C 367 529 378 526 387 525 C 395 523 403 522 411 520 C 419 518 428 514 439 508 C 445 504 450 499 453 494 C 456 488 458 483 458 478 C 458 469 454 462 448 456 C 442 450 434 447 426 447 C 415 447 405 451 395 460 C 385 469 377 478 371 486 C 364 494 356 502 348 509 C 340 516 323 527 299 541 C 299 519 301 502 304 490 C 307 478 310 468 313 460 C 316 452 319 444 321 437 C 323 429 325 419 325 407 C 325 396 321 388 314 382 C 307 376 300 374 293 374 C 283 374 274 377 268 383 C 262 389 259 397 259 407 C 259 419 260 429 262 436 C 264 443 267 451 270 459 C 273 467 276 477 279 489 C 282 501 284 519 286 541 C 261 528 244 518 236 511 C 227 504 220 497 215 491 C 207 481 199 472 191 462 C 182 452 172 448 160 448 C 150 448 142 451 136 457 C 129 463 126 470 126 479 C 126 485 127 490 130 495 C 133 499 138 504 145 508 C 156 514 166 518 174 520 C 182 522 190 523 199 525 C 207 526 218 529 230 533 C 242 537 259 544 279 554 C 259 564 242 571 230 575 C 218 579 207 581 198 583 C 189 584 181 586 173 588 C 165 590 156 594 146 600 C 139 604 134 608 131 613 C 128 618 127 623 127 629 C 127 637 130 645 136 651 C 142 657 150 660 159 660 C 169 660 179 655 189 647 C 199 639 207 630 214 621 C 220 612 228 604 236 597 C 244 589 261 579 286 567 C 285 588 283 605 280 617 C 277 629 274 639 271 647 C 268 655 265 662 263 670 C 261 677 260 687 260 700 C 260 710 263 718 270 724 C 277 730 285 733 293 733 C 302 733 310 730 316 724 C 322 718 326 710 326 700 C 326 687 324 677 322 670 C 320 662 317 655 314 647 C 311 639 308 629 305 617 C 302 605 300 588 300 567 C 324 580 340 590 349 597 C 357 603 364 610 370 617 C 376 625 384 634 393 644 C 402 654 413 659 425 659 Z" unicode="*" />
<glyph horiz-adv-x="754" d="M 657 313 L 657 273 L 416 273 L 416 41 L 372 41 L 372 273 L 131 273 L 131 313 L 372 313 L 372 545 L 416 545 L 416 313 L 657 313 Z" unicode="+" />
<glyph horiz-adv-x="218" d="M 79 98 C 97 98 111 92 120 82 C 129 71 134 58 134 43 C 134 10 121 -24 96 -60 C 70 -96 32 -124 -19 -145 L -32 -130 C -10 -117 12 -101 36 -81 C 60 -61 78 -35 92 -1 C 63 0 45 5 37 15 C 29 25 25 35 25 46 C 25 62 30 75 42 84 C 54 93 66 98 79 98 Z" unicode="," />
<glyph horiz-adv-x="312" d="M 53 250 L 275 250 L 262 197 L 40 197 L 53 250 Z" unicode="-" />
<glyph horiz-adv-x="218" d="M 79 98 C 93 98 106 93 116 83 C 126 73 132 60 132 46 C 132 31 126 19 116 9 C 106 -1 93 -6 79 -6 C 64 -6 52 -1 42 9 C 32 19 27 31 27 46 C 27 60 32 73 42 83 C 52 93 64 98 79 98 Z" unicode="." />
<glyph horiz-adv-x="442" d="M 458 730 L 507 730 L -66 -190 L -115 -190 L 458 730 Z" unicode="/" />
<glyph horiz-adv-x="584" d="M 369 695 C 432 695 481 670 517 622 C 552 574 570 510 570 431 C 570 377 562 324 546 271 C 530 218 509 171 481 130 C 453 88 419 55 381 29 C 343 3 301 -10 257 -10 C 197 -10 148 13 112 59 C 75 105 57 170 57 252 C 57 306 64 359 80 412 C 96 465 117 512 145 554 C 172 596 205 630 243 656 C 281 682 323 695 369 695 Z M 260 17 C 297 17 330 32 360 64 C 389 96 413 135 433 182 C 453 229 468 280 478 336 C 488 391 494 442 494 490 C 494 555 482 601 459 627 C 435 653 405 667 368 667 C 330 667 296 651 266 619 C 236 587 212 547 192 499 C 172 451 158 400 148 344 C 138 288 133 237 133 190 C 133 128 144 83 168 57 C 192 30 222 17 260 17 Z" unicode="0" />
<glyph horiz-adv-x="377" d="M 320 687 L 340 687 L 196 116 C 195 111 194 104 192 94 C 190 84 189 77 189 74 C 189 65 193 57 201 51 C 209 44 221 39 237 35 C 245 33 253 31 261 29 C 269 27 273 24 273 20 C 273 18 272 16 272 14 C 271 12 270 9 270 7 L 268 0 L 2 0 L 5 14 C 6 21 12 26 24 28 C 36 30 47 32 58 34 C 81 38 96 45 102 54 C 108 62 113 76 118 94 L 247 603 L 132 603 L 138 625 L 320 687 Z" unicode="1" />
<glyph horiz-adv-x="499" d="M 302 695 C 360 695 407 679 445 647 C 482 615 501 577 501 531 C 501 495 493 463 477 435 C 461 407 442 381 419 359 C 395 336 370 315 342 297 C 314 279 289 262 266 246 C 214 210 171 178 137 152 C 103 125 70 95 39 63 L 320 63 C 342 63 360 66 373 72 C 385 78 400 95 416 122 C 418 127 421 130 423 131 C 425 132 427 133 431 133 L 445 133 L 408 0 L -20 0 L -4 60 C 9 74 25 91 45 110 C 65 129 86 149 109 169 C 131 189 155 209 179 229 C 203 249 225 267 247 285 C 307 333 350 376 377 416 C 404 456 418 497 418 539 C 418 573 405 603 381 629 C 356 655 323 668 283 668 C 245 668 214 660 191 644 C 167 628 150 612 140 596 C 152 587 160 578 166 570 C 172 562 175 552 175 542 C 175 529 170 519 162 511 C 153 503 142 499 130 499 C 113 499 100 504 91 514 C 82 524 78 537 78 553 C 78 570 83 587 95 604 C 107 621 123 636 143 650 C 163 663 186 674 214 682 C 241 690 270 695 302 695 Z" unicode="2" />
<glyph horiz-adv-x="502" d="M 296 695 C 324 695 350 691 375 684 C 399 677 420 667 438 655 C 456 643 470 628 480 611 C 490 594 496 575 496 555 C 496 529 490 505 478 484 C 466 462 450 444 430 429 C 410 413 388 401 362 392 C 336 382 308 377 280 375 L 279 371 C 302 368 325 362 347 354 C 369 345 388 334 405 320 C 421 306 435 290 445 271 C 455 251 461 229 461 205 C 461 172 453 142 439 116 C 425 90 405 67 381 49 C 357 30 328 15 296 5 C 263 -4 229 -10 194 -10 C 134 -10 85 2 48 26 C 11 50 -7 81 -7 119 C -7 131 -2 143 6 155 C 14 166 26 172 42 172 C 56 172 68 168 76 160 C 84 152 89 144 89 135 C 89 120 86 109 80 101 C 74 93 66 85 58 78 C 64 63 79 49 102 36 C 124 22 152 16 185 16 C 217 16 245 21 269 32 C 293 43 314 58 330 76 C 346 94 358 116 366 140 C 374 164 379 189 379 216 C 379 260 361 294 326 320 C 291 346 245 360 187 362 L 194 388 C 269 388 325 403 361 432 C 397 460 416 501 416 555 C 416 585 404 612 382 634 C 360 656 327 668 283 668 C 257 668 233 663 213 655 C 193 647 174 637 158 625 C 170 615 179 607 183 601 C 187 594 190 586 190 578 C 190 567 186 557 178 549 C 170 540 159 536 147 536 C 133 536 121 540 113 549 C 104 557 100 569 100 585 C 100 601 106 615 118 629 C 130 643 145 654 163 664 C 181 674 202 681 226 687 C 250 692 273 695 296 695 Z" unicode="3" />
<glyph horiz-adv-x="516" d="M 465 695 L 511 695 L 395 226 L 504 226 L 493 186 L 384 186 L 360 86 C 359 81 358 75 356 69 C 354 62 354 58 354 56 C 354 49 355 44 359 40 C 363 36 371 31 385 27 C 393 24 398 22 402 22 C 405 21 407 19 407 17 C 407 15 406 14 406 12 C 406 10 405 9 405 7 L 403 0 L 210 0 L 213 14 C 213 17 215 19 219 21 C 223 22 230 24 240 27 C 253 31 263 36 269 42 C 275 48 280 58 284 72 L 312 186 L -14 186 L -4 229 L 465 695 Z M 322 226 L 414 601 L 36 226 L 322 226 Z" unicode="4" />
<glyph horiz-adv-x="507" d="M 543 728 L 556 728 L 523 619 L 202 619 L 123 371 C 155 391 183 405 207 415 C 231 424 257 429 286 429 C 317 429 345 423 369 412 C 393 401 413 387 429 370 C 445 352 458 332 466 309 C 474 286 479 263 479 239 C 479 203 471 170 456 140 C 441 109 421 83 396 61 C 371 39 342 21 309 9 C 275 -3 240 -10 203 -10 C 145 -10 97 2 61 27 C 25 52 7 83 7 120 C 7 132 11 144 20 155 C 28 166 41 172 57 172 C 71 172 83 168 91 160 C 99 152 103 144 103 135 C 103 121 100 111 95 103 C 89 95 82 86 72 77 C 78 62 94 48 118 35 C 142 22 169 16 200 16 C 232 16 261 22 285 35 C 309 48 330 65 346 86 C 362 106 375 130 383 156 C 391 182 395 209 395 236 C 395 256 392 276 386 294 C 380 312 371 329 359 343 C 347 357 331 368 313 376 C 294 384 272 389 247 389 C 218 389 193 383 171 372 C 149 361 127 348 107 334 L 85 351 L 190 684 L 458 684 C 482 684 497 686 505 690 C 512 694 520 703 529 718 C 531 721 534 723 536 725 C 538 727 540 728 543 728 Z" unicode="5" />
<glyph horiz-adv-x="555" d="M 409 695 C 455 695 491 686 519 669 C 546 651 560 630 560 604 C 560 589 555 576 546 565 C 537 554 525 549 511 549 C 498 549 488 552 481 560 C 473 567 470 575 470 585 C 470 598 471 609 473 617 C 475 625 479 633 484 642 C 480 645 471 650 457 657 C 443 664 423 668 398 668 C 374 668 349 661 323 649 C 297 637 273 617 250 591 C 226 564 205 529 186 485 C 166 441 151 387 139 325 C 170 352 200 374 230 392 C 260 409 295 418 335 418 C 365 418 392 413 416 403 C 440 393 460 381 476 365 C 492 349 504 329 513 307 C 521 285 526 261 526 237 C 526 207 519 178 507 148 C 495 118 477 92 455 69 C 432 45 405 26 373 12 C 341 -2 305 -10 266 -10 C 232 -10 201 -3 175 9 C 149 21 127 39 109 61 C 91 83 78 109 69 141 C 60 172 56 206 56 243 C 56 297 64 352 82 406 C 99 460 123 509 154 552 C 184 594 221 629 265 655 C 309 681 357 695 409 695 Z M 268 15 C 298 15 324 21 346 35 C 368 48 386 65 400 86 C 414 107 425 131 432 157 C 439 183 443 208 443 233 C 443 273 431 306 408 334 C 384 361 351 375 308 375 C 270 375 236 366 206 349 C 176 332 153 316 139 300 C 136 285 134 269 133 252 C 131 235 131 221 131 211 C 131 186 133 162 139 138 C 144 114 152 94 164 76 C 175 58 189 43 207 32 C 224 20 244 15 268 15 Z" unicode="6" />
<glyph horiz-adv-x="452" d="M 233 684 L 537 684 L 530 648 C 490 596 451 548 415 502 C 379 456 346 410 318 365 C 290 319 266 273 247 225 C 227 177 214 125 208 71 C 205 44 200 24 192 10 C 184 -3 170 -10 150 -10 C 137 -10 127 -6 120 1 C 113 9 110 20 110 35 C 110 63 121 100 143 146 C 165 192 195 244 233 302 C 268 354 307 409 351 467 C 395 524 435 575 473 621 L 171 621 C 149 621 133 616 124 606 C 114 596 105 585 97 571 C 94 566 92 563 90 561 C 88 559 86 559 84 559 L 67 559 L 108 690 C 122 689 141 688 165 686 C 189 684 212 684 233 684 Z" unicode="7" />
<glyph horiz-adv-x="523" d="M 337 695 C 392 695 437 681 472 654 C 507 626 525 593 525 554 C 525 510 507 472 473 440 C 438 408 395 385 343 371 C 389 345 426 318 454 292 C 482 265 496 232 496 193 C 496 161 489 133 475 108 C 461 82 442 61 419 43 C 395 25 368 12 337 3 C 306 -6 274 -11 241 -11 C 174 -11 121 4 81 35 C 41 66 21 105 21 152 C 21 179 27 204 40 227 C 52 250 69 270 89 287 C 109 304 131 318 156 330 C 181 342 205 351 229 357 C 195 380 168 404 148 428 C 128 452 118 479 118 510 C 118 536 124 560 136 583 C 148 605 164 625 184 641 C 204 657 227 670 254 680 C 280 690 308 695 337 695 Z M 328 383 C 362 395 393 415 421 444 C 448 472 462 508 462 551 C 462 584 450 612 427 634 C 403 656 372 668 334 668 C 292 668 256 655 228 630 C 199 604 185 574 185 538 C 185 503 199 474 228 450 C 256 426 290 403 328 383 Z M 246 15 C 296 15 338 28 373 55 C 408 82 426 119 426 166 C 426 186 421 205 412 221 C 402 237 390 252 374 266 C 358 280 339 293 317 306 C 295 318 273 331 249 345 C 235 339 218 332 199 322 C 180 312 162 300 146 285 C 129 270 115 252 103 230 C 91 208 86 183 86 154 C 86 114 101 80 131 54 C 161 28 200 15 246 15 Z" unicode="8" />
<glyph horiz-adv-x="555" d="M 328 695 C 362 695 393 688 420 675 C 446 662 468 644 486 622 C 503 600 516 573 525 542 C 534 510 539 477 539 441 C 539 387 530 333 513 279 C 496 225 472 176 442 134 C 411 91 373 56 329 30 C 285 3 235 -10 181 -10 C 129 -10 90 0 64 18 C 38 37 25 59 25 83 C 25 97 29 110 38 120 C 47 130 59 136 74 136 C 86 136 95 132 103 126 C 111 119 115 110 115 100 C 115 93 114 85 112 77 C 110 68 107 57 101 45 C 109 38 121 31 137 25 C 152 19 170 16 191 16 C 216 16 242 22 268 34 C 294 46 318 66 342 93 C 366 119 387 154 407 197 C 427 240 443 292 456 354 C 425 328 392 307 358 291 C 324 275 288 267 252 267 C 199 267 155 284 121 318 C 87 352 70 394 70 445 C 70 476 76 507 90 537 C 103 567 121 594 144 617 C 167 640 194 659 226 673 C 258 687 292 695 328 695 Z M 456 381 C 458 397 460 413 462 429 C 463 445 464 462 464 478 C 464 504 461 528 456 552 C 450 575 442 595 431 612 C 419 629 405 643 388 653 C 371 663 351 668 329 668 C 302 668 278 661 256 648 C 234 635 216 618 201 597 C 185 576 173 552 165 525 C 156 498 152 471 152 443 C 152 404 163 372 187 346 C 210 320 244 308 288 308 C 306 308 324 310 342 316 C 360 321 376 327 391 335 C 406 343 419 351 431 359 C 442 367 450 375 456 381 Z" unicode="9" />
<glyph horiz-adv-x="239" d="M 159 437 C 173 437 186 432 196 422 C 206 412 212 399 212 385 C 212 370 206 358 196 348 C 186 338 173 333 159 333 C 144 333 132 338 122 348 C 112 358 107 370 107 385 C 107 399 112 412 122 422 C 132 432 144 437 159 437 Z M 88 98 C 102 98 115 93 125 83 C 135 73 141 60 141 46 C 141 31 135 19 125 9 C 115 -1 102 -6 88 -6 C 73 -6 61 -1 51 9 C 41 19 36 31 36 46 C 36 60 41 73 51 83 C 61 93 73 98 88 98 Z" unicode=":" />
<glyph horiz-adv-x="256" d="M 159 437 C 173 437 186 432 196 422 C 206 412 212 399 212 385 C 212 370 206 358 196 348 C 186 338 173 333 159 333 C 144 333 132 338 122 348 C 112 358 107 370 107 385 C 107 399 112 412 122 422 C 132 432 144 437 159 437 Z M 89 98 C 107 98 121 92 130 82 C 139 71 144 58 144 43 C 144 10 131 -24 106 -60 C 80 -96 42 -124 -9 -145 L -22 -130 C 0 -117 22 -101 46 -81 C 70 -61 88 -35 102 -1 C 73 0 55 5 47 15 C 39 25 35 35 35 46 C 35 62 40 75 52 84 C 64 93 76 98 89 98 Z" unicode=";" />
<glyph horiz-adv-x="754" d="M 654 88 L 654 40 L 145 275 L 145 311 L 654 546 L 654 498 L 201 293 L 654 88 Z" unicode="&#x3C;" />
<glyph horiz-adv-x="754" d="M 649 382 L 649 344 L 140 344 L 140 382 L 649 382 Z M 649 206 L 649 168 L 140 168 L 140 206 L 649 206 Z" unicode="=" />
<glyph horiz-adv-x="754" d="M 649 311 L 649 275 L 140 40 L 140 88 L 593 293 L 140 498 L 140 546 L 649 311 Z" unicode="&#x3E;" />
<glyph horiz-adv-x="420" d="M 268 741 C 290 741 312 738 334 732 C 355 726 374 717 390 706 C 406 694 419 680 429 663 C 439 646 444 626 444 604 C 444 567 434 536 414 510 C 394 484 366 456 331 428 C 305 407 284 387 267 369 C 250 351 236 333 226 315 C 216 297 208 278 202 259 C 196 240 191 220 187 199 C 187 198 185 197 181 195 C 177 193 173 193 171 193 C 168 193 165 194 162 196 C 158 198 156 199 156 200 C 160 232 171 266 188 302 C 205 338 228 375 258 413 C 277 437 293 458 307 475 C 321 492 332 508 340 523 C 348 537 355 552 359 567 C 363 582 365 600 365 620 C 365 650 355 674 337 692 C 318 710 293 719 263 719 C 245 719 226 715 207 707 C 187 699 172 686 162 670 C 173 661 180 653 184 646 C 187 639 189 633 189 629 C 189 616 185 605 177 597 C 169 588 159 584 147 584 C 133 584 122 588 113 597 C 103 605 99 616 99 629 C 99 642 103 655 111 669 C 119 682 130 694 145 705 C 159 715 177 724 198 731 C 219 737 242 741 268 741 Z M 154 98 C 168 98 181 93 191 83 C 201 73 207 60 207 46 C 207 31 201 19 191 9 C 181 -1 168 -6 154 -6 C 139 -6 127 -1 117 9 C 107 19 102 31 102 46 C 102 60 107 73 117 83 C 127 93 139 98 154 98 Z" unicode="?" />
<glyph horiz-adv-x="962" d="M 541 634 C 595 634 643 626 687 610 C 731 594 768 571 799 543 C 829 515 853 481 870 441 C 886 401 895 357 895 310 C 895 272 888 234 876 196 C 863 158 845 125 822 96 C 799 66 771 42 739 24 C 706 5 670 -4 631 -4 C 603 -4 585 3 576 18 C 567 33 562 50 562 70 C 531 47 506 30 486 19 C 466 8 441 3 411 3 C 373 3 344 14 325 37 C 306 60 297 91 297 129 C 297 170 307 211 329 252 C 351 293 380 330 416 362 C 442 384 468 401 495 413 C 521 424 548 430 575 430 C 593 430 610 427 625 421 C 639 415 653 404 666 390 L 704 423 L 718 423 L 637 127 C 634 118 632 108 630 97 C 628 86 627 76 627 68 C 627 52 630 41 637 34 C 644 27 652 24 662 24 C 689 24 714 32 738 49 C 762 65 782 87 800 115 C 818 143 832 174 842 210 C 852 246 858 283 858 321 C 858 359 851 395 837 429 C 823 463 803 492 777 518 C 751 543 718 563 680 578 C 642 592 599 600 551 600 C 494 600 441 589 392 568 C 342 546 300 517 264 480 C 228 442 199 398 179 347 C 159 295 149 240 149 182 C 149 130 158 82 176 39 C 194 -3 219 -40 251 -70 C 283 -100 321 -124 367 -141 C 412 -158 462 -167 516 -167 C 566 -167 615 -159 663 -143 C 711 -127 759 -103 807 -69 L 819 -92 C 771 -127 722 -153 672 -171 C 621 -189 569 -198 517 -198 C 449 -198 389 -188 335 -168 C 281 -148 235 -121 199 -86 C 162 -51 134 -10 114 37 C 94 85 85 137 85 193 C 85 253 97 310 121 364 C 145 418 177 465 218 505 C 259 545 307 576 363 599 C 419 622 478 634 541 634 Z M 620 307 C 622 317 624 328 625 338 C 625 348 626 355 626 361 C 626 374 621 384 612 392 C 602 400 588 404 570 404 C 549 404 529 399 510 391 C 491 383 473 369 457 349 C 432 320 411 286 395 248 C 378 210 370 174 370 140 C 370 107 378 82 394 66 C 410 50 432 42 461 42 C 477 42 494 47 513 59 C 531 70 548 83 562 99 L 620 307 Z" unicode="@" />
<glyph horiz-adv-x="688" d="M 615 26 C 625 23 631 21 634 21 C 637 21 638 19 638 15 L 634 0 L 431 0 L 434 15 C 434 18 438 20 445 22 C 451 24 457 25 463 27 C 475 29 484 33 490 39 C 496 44 499 52 499 63 C 499 67 498 73 498 80 C 497 86 496 92 496 96 L 476 218 L 153 218 L 76 98 C 69 88 63 78 59 70 C 55 61 53 55 53 53 C 53 46 56 41 62 37 C 68 33 76 30 88 26 C 94 23 100 21 104 20 C 108 19 109 16 109 12 L 106 0 L -77 0 L -73 15 C -72 17 -69 19 -65 21 C -60 23 -55 24 -51 26 C -35 31 -22 40 -12 52 C -2 64 8 77 19 93 L 400 644 L 391 686 C 390 687 390 688 390 689 C 390 690 390 692 390 694 C 390 694 391 695 393 697 C 395 698 396 699 398 700 C 410 706 420 711 426 716 C 432 720 441 727 451 736 C 451 736 453 737 455 739 C 457 740 458 741 459 741 C 459 741 460 740 462 740 C 464 739 465 738 465 738 L 576 72 C 578 59 582 49 589 42 C 595 34 604 29 615 26 Z M 174 250 L 471 250 L 411 608 L 174 250 Z" unicode="A" />
<glyph horiz-adv-x="628" d="M 390 730 C 462 730 516 716 552 688 C 588 660 606 624 606 582 C 606 557 600 533 590 510 C 580 487 565 467 545 449 C 525 431 501 416 473 404 C 444 392 412 384 376 380 L 376 377 C 436 376 485 361 524 333 C 563 304 583 264 583 212 C 583 150 557 99 506 59 C 455 19 384 0 293 0 L -30 0 L -27 14 C -26 17 -24 19 -20 20 C -16 21 -10 23 0 26 C 13 29 23 33 29 39 C 35 45 39 54 43 67 L 188 643 C 189 648 190 654 192 661 C 193 667 194 671 194 673 C 194 681 191 687 187 692 C 182 696 173 700 160 704 C 154 705 148 706 144 707 C 140 708 138 710 138 713 C 138 714 138 715 138 717 C 138 719 139 721 140 723 L 142 730 L 390 730 Z M 312 392 C 378 392 429 409 466 445 C 503 480 522 525 522 581 C 522 618 509 647 483 669 C 457 691 413 702 352 702 L 281 702 L 202 392 L 312 392 Z M 263 28 C 345 28 404 45 442 80 C 479 114 498 163 498 226 C 498 272 481 307 448 329 C 415 351 363 362 291 362 L 195 362 L 111 28 L 263 28 Z" unicode="B" />
<glyph horiz-adv-x="631" d="M 660 697 L 674 697 L 635 538 L 613 538 C 611 538 609 538 609 539 C 608 540 608 541 608 543 C 602 593 584 633 554 665 C 524 696 483 712 429 712 C 388 712 349 701 313 679 C 277 657 245 626 219 588 C 193 550 172 505 156 453 C 140 401 133 345 133 285 C 133 243 138 205 149 173 C 160 140 175 113 194 91 C 213 69 235 52 261 40 C 287 28 314 23 343 23 C 374 23 403 27 429 36 C 455 44 477 54 497 66 C 517 78 533 90 547 102 C 561 114 571 125 578 133 L 594 112 C 585 100 573 86 557 72 C 541 58 523 44 501 32 C 479 20 454 9 426 1 C 398 -6 367 -11 334 -11 C 286 -11 244 -2 208 13 C 172 29 143 52 120 81 C 96 109 79 143 67 182 C 55 220 50 262 50 306 C 50 370 60 428 81 482 C 102 535 130 581 164 619 C 198 657 237 687 281 709 C 325 730 370 741 416 741 C 464 741 501 736 527 726 C 553 716 578 705 603 691 C 607 689 611 687 615 685 C 619 683 623 682 628 682 C 630 682 632 682 634 683 C 636 684 638 685 641 687 C 647 691 650 693 651 695 C 652 696 655 697 660 697 Z" unicode="C" />
<glyph horiz-adv-x="707" d="M 359 730 C 415 730 464 722 507 708 C 549 693 585 672 613 646 C 641 619 662 587 676 550 C 690 512 698 471 698 427 C 698 364 687 307 665 255 C 643 203 614 159 577 122 C 532 77 483 45 430 27 C 377 9 320 0 258 0 L -30 0 L -27 14 C -26 17 -24 19 -20 20 C -16 21 -10 23 0 26 C 13 29 23 33 29 39 C 35 45 40 54 43 66 L 188 643 C 189 648 190 654 192 661 C 193 667 194 671 194 673 C 194 681 191 687 187 692 C 182 696 173 700 160 704 C 154 705 148 706 144 707 C 140 708 138 710 138 713 C 138 714 138 715 138 717 C 138 719 139 721 140 723 L 142 730 L 359 730 Z M 511 130 C 543 164 568 208 586 264 C 604 319 613 379 613 443 C 613 530 589 595 543 638 C 497 680 430 702 343 702 L 280 702 L 110 28 L 244 28 C 298 28 348 36 393 52 C 438 68 477 94 511 130 Z" unicode="D" />
<glyph horiz-adv-x="591" d="M 543 730 C 555 730 570 731 588 733 C 606 735 620 736 632 738 L 600 609 L 584 609 C 578 609 574 610 572 612 C 570 614 568 616 568 620 C 566 636 563 650 561 661 C 559 671 555 679 550 685 C 544 691 536 695 526 697 C 515 699 501 701 483 701 L 281 701 L 201 389 L 330 389 C 350 389 365 393 374 403 C 383 412 392 423 402 437 C 406 443 410 447 414 450 C 418 452 423 454 431 454 L 441 454 L 400 288 L 385 288 C 380 288 376 289 374 292 C 372 295 370 299 370 304 C 367 324 363 339 358 347 C 352 355 341 359 325 359 L 194 359 L 111 29 L 374 29 C 403 29 427 37 445 54 C 463 71 483 96 504 129 C 506 131 508 135 511 140 C 513 144 517 147 523 147 L 539 147 L 502 0 L -30 0 L -27 14 C -26 17 -24 19 -20 20 C -16 21 -10 23 0 26 C 13 29 23 33 29 39 C 35 45 39 54 43 67 L 188 643 C 189 648 190 654 192 661 C 193 667 194 671 194 673 C 194 681 191 687 187 692 C 182 696 173 700 160 704 C 154 705 148 706 144 707 C 140 708 138 710 138 713 C 138 714 138 715 138 717 C 138 719 139 721 140 723 L 142 730 L 543 730 Z" unicode="E" />
<glyph horiz-adv-x="562" d="M 575 730 C 591 730 607 731 623 733 C 639 735 652 736 663 738 L 629 606 L 611 606 C 605 606 601 607 600 609 C 599 611 599 613 599 616 C 598 647 593 669 584 682 C 575 694 552 701 514 701 L 281 701 L 201 386 L 357 386 C 377 386 390 389 398 395 C 406 401 416 415 429 435 C 432 440 436 444 440 447 C 444 450 450 452 456 452 L 466 452 L 424 286 L 405 286 C 400 286 397 287 396 291 C 395 295 394 298 394 302 C 391 323 387 337 381 345 C 375 352 364 356 350 356 L 194 356 L 126 88 C 125 85 124 79 122 71 C 120 63 120 58 120 57 C 120 48 122 41 127 37 C 131 33 140 29 154 26 C 160 24 165 23 169 22 C 173 21 176 19 176 17 C 176 15 175 14 175 12 C 175 10 174 9 174 7 L 172 0 L -30 0 L -27 14 C -26 17 -24 19 -20 20 C -16 21 -10 23 0 26 C 13 29 23 33 29 39 C 35 45 39 54 43 67 L 188 643 C 189 648 190 654 192 661 C 193 667 194 671 194 673 C 194 681 191 687 187 692 C 182 696 173 700 160 704 C 154 705 148 706 144 707 C 140 708 138 710 138 713 C 138 714 138 715 138 717 C 138 719 139 721 140 723 L 142 730 L 575 730 Z" unicode="F" />
<glyph horiz-adv-x="710" d="M 681 695 L 695 695 L 655 536 L 634 536 C 632 536 630 536 630 537 C 629 538 629 539 629 541 C 622 591 604 632 574 664 C 544 696 500 712 441 712 C 398 712 358 700 320 678 C 282 656 250 626 222 588 C 194 550 173 505 157 454 C 141 403 133 349 133 293 C 133 246 139 205 152 170 C 164 135 182 106 204 83 C 226 60 252 43 282 32 C 312 20 345 15 380 15 C 422 15 454 21 478 35 C 502 49 518 74 527 112 L 554 223 C 555 228 556 234 558 240 C 559 246 560 249 560 251 C 560 259 557 265 553 270 C 548 274 539 278 526 282 C 520 283 514 284 510 285 C 506 286 504 288 504 291 C 504 292 504 293 504 295 C 504 297 505 299 506 301 L 508 308 L 655 308 C 650 298 645 287 641 275 C 637 263 633 253 631 243 L 604 134 C 602 125 600 117 599 110 C 598 103 598 98 598 95 C 598 88 599 83 602 79 C 605 75 612 73 623 73 C 629 72 634 72 637 72 C 640 72 642 71 642 70 C 642 68 641 67 641 65 C 641 63 640 61 640 59 L 639 55 C 594 35 549 19 504 7 C 459 -4 419 -11 383 -11 C 326 -11 277 -2 235 15 C 193 32 158 55 131 84 C 103 113 83 147 70 187 C 56 226 50 267 50 311 C 50 371 60 427 81 480 C 101 532 129 578 165 616 C 200 654 242 685 290 707 C 338 729 388 741 442 741 C 488 741 524 735 549 725 C 574 715 599 703 624 689 C 628 687 632 685 636 683 C 640 681 645 680 649 680 C 651 680 653 680 655 681 C 657 682 659 683 662 685 C 668 689 671 691 672 693 C 673 694 676 695 681 695 Z" unicode="G" />
<glyph horiz-adv-x="757" d="M 625 730 L 827 730 L 824 716 C 823 712 821 710 817 709 C 813 708 807 706 797 704 C 783 700 774 696 768 690 C 762 684 757 675 754 663 L 609 87 C 607 81 606 74 605 68 C 603 62 603 58 603 57 C 603 48 605 41 610 37 C 614 33 623 29 637 26 C 643 24 648 23 652 22 C 656 21 659 19 659 17 C 659 15 658 14 658 12 C 658 10 657 9 657 7 L 655 0 L 453 0 L 456 14 C 456 17 458 19 462 20 C 466 21 473 23 483 26 C 496 29 506 33 512 39 C 518 45 522 54 526 67 L 600 360 L 194 360 L 126 87 C 124 81 123 74 122 68 C 120 62 120 58 120 57 C 120 48 122 41 127 37 C 131 33 140 29 154 26 C 160 24 165 23 169 22 C 173 21 176 19 176 17 C 176 15 175 14 175 12 C 175 10 174 9 174 7 L 172 0 L -30 0 L -27 14 C -26 17 -24 19 -20 20 C -16 21 -10 23 0 26 C 13 29 23 33 29 39 C 35 45 39 54 43 67 L 188 644 C 189 649 190 655 192 661 C 193 667 194 671 194 673 C 194 681 191 687 187 692 C 182 696 173 700 160 704 C 154 705 148 706 144 707 C 140 708 138 710 138 713 C 138 714 138 715 138 717 C 138 719 139 721 140 723 L 142 730 L 344 730 L 341 716 C 340 712 338 710 334 709 C 330 708 324 706 314 704 C 300 700 291 696 285 690 C 279 684 274 675 271 663 L 203 393 L 608 393 L 671 644 C 672 649 673 655 675 661 C 676 667 677 671 677 673 C 677 681 674 687 670 692 C 665 696 656 700 643 704 C 637 705 631 706 627 707 C 623 708 621 710 621 713 C 621 714 621 715 621 717 C 621 719 622 721 623 723 L 625 730 Z" unicode="H" />
<glyph horiz-adv-x="284" d="M 148 730 L 350 730 L 347 716 C 346 712 344 710 340 709 C 336 708 330 706 320 704 C 306 700 297 696 291 690 C 285 684 280 675 277 663 L 132 87 C 130 81 129 74 128 68 C 126 62 126 58 126 57 C 126 48 128 41 133 37 C 137 33 146 29 160 26 C 166 24 171 23 175 22 C 179 21 182 19 182 17 C 182 15 181 14 181 12 C 181 10 180 9 180 7 L 178 0 L -24 0 L -21 14 C -20 17 -18 19 -14 20 C -10 21 -4 23 6 26 C 19 29 29 33 35 39 C 41 45 45 54 49 67 L 194 644 C 195 649 196 655 198 661 C 199 667 200 671 200 673 C 200 681 197 687 193 692 C 188 696 179 700 166 704 C 160 705 154 706 150 707 C 146 708 144 710 144 713 C 144 714 144 715 144 717 C 144 719 145 721 146 723 L 148 730 Z" unicode="I" />
<glyph horiz-adv-x="446" d="M 322 730 L 525 730 L 522 716 C 521 712 519 710 515 709 C 511 708 505 706 495 704 C 481 700 471 696 465 690 C 459 684 454 675 452 663 L 339 198 C 323 133 293 82 251 45 C 208 7 153 -11 87 -11 C 45 -11 13 -1 -9 17 C -31 35 -42 57 -42 81 C -42 99 -37 116 -28 130 C -18 144 -4 152 14 152 C 28 152 38 148 46 142 C 54 135 58 126 58 116 C 58 105 55 95 50 85 C 45 75 35 67 21 62 C 22 48 31 36 47 26 C 63 16 80 11 98 11 C 128 11 157 22 187 45 C 217 68 238 105 251 156 L 369 644 C 370 649 371 655 373 661 C 374 667 375 671 375 673 C 375 681 372 687 367 692 C 362 696 353 700 340 704 C 334 705 328 706 324 707 C 320 708 318 710 318 713 C 318 714 318 715 318 717 C 318 719 319 721 320 723 L 322 730 Z" unicode="J" />
<glyph horiz-adv-x="651" d="M 527 730 L 746 730 L 743 719 C 742 715 740 712 737 710 C 733 708 728 707 721 705 C 712 702 699 698 683 692 C 667 686 644 672 614 650 L 286 407 L 541 71 C 547 62 556 53 567 45 C 578 37 589 31 601 27 C 609 24 614 22 618 22 C 621 21 623 20 623 18 C 623 16 622 15 622 13 C 622 11 621 9 621 7 L 619 0 L 403 0 L 405 9 C 406 15 408 18 411 19 C 413 20 420 22 431 26 C 443 30 451 33 455 37 C 458 41 460 45 460 50 C 460 52 457 58 451 68 C 445 78 440 86 436 92 L 212 382 L 139 87 C 137 81 136 74 135 68 C 133 62 133 58 133 57 C 133 48 135 41 140 37 C 144 33 153 29 167 26 C 173 24 178 23 182 22 C 186 21 189 19 189 17 C 189 15 188 14 188 12 C 188 10 187 9 187 7 L 185 0 L -17 0 L -14 14 C -13 17 -11 19 -7 20 C -3 21 3 23 13 26 C 26 29 36 33 42 39 C 48 45 52 54 56 67 L 201 644 C 202 649 203 655 205 661 C 206 667 207 671 207 673 C 207 681 204 687 200 692 C 195 696 186 700 173 704 C 167 705 161 706 157 707 C 153 708 151 710 151 713 C 151 714 151 715 151 717 C 151 719 152 721 153 723 L 155 730 L 357 730 L 354 716 C 353 712 351 710 347 709 C 343 708 337 706 327 704 C 313 700 304 696 298 690 C 292 684 287 675 284 663 L 216 396 L 526 628 C 538 637 550 647 560 657 C 570 667 575 674 575 679 C 575 685 572 689 567 693 C 562 697 555 700 545 703 C 540 703 535 705 530 707 C 525 709 523 711 523 713 C 523 714 523 715 523 717 C 523 719 524 721 525 723 L 527 730 Z" unicode="K" />
<glyph horiz-adv-x="570" d="M 514 150 L 530 150 L 493 0 L -30 0 L -27 14 C -26 17 -24 19 -20 20 C -16 21 -10 23 0 26 C 13 29 23 33 29 39 C 35 45 39 54 43 67 L 188 644 C 189 649 190 655 192 661 C 193 667 194 671 194 673 C 194 681 191 687 187 692 C 182 696 173 700 160 704 C 154 705 148 706 144 707 C 140 708 138 710 138 713 C 138 714 138 715 138 717 C 138 719 139 721 140 723 L 142 730 L 344 730 L 341 716 C 340 712 338 710 334 709 C 330 708 324 706 314 704 C 300 700 290 696 284 690 C 278 684 273 675 271 663 L 113 29 L 364 29 C 394 29 417 37 435 54 C 452 70 472 96 494 132 C 498 138 501 142 503 145 C 505 148 509 150 514 150 Z" unicode="L" />
<glyph horiz-adv-x="884" d="M 791 730 L 954 730 L 951 716 C 950 712 948 710 944 709 C 940 708 934 706 924 704 C 910 700 901 696 895 690 C 889 684 884 675 881 663 L 736 86 C 734 80 733 73 732 67 C 731 61 731 57 731 56 C 731 48 733 41 737 37 C 741 33 750 29 764 26 C 770 24 775 23 779 22 C 783 21 786 19 786 17 C 786 15 785 14 785 12 C 785 10 784 9 784 7 L 782 0 L 580 0 L 583 14 C 583 17 585 19 589 20 C 593 21 600 23 610 26 C 623 29 633 33 639 39 C 645 45 649 54 653 67 L 805 671 L 801 675 L 380 9 C 378 6 375 4 371 2 C 367 0 362 -1 356 -1 C 350 -1 346 0 344 1 C 342 3 340 5 340 8 L 242 680 L 237 680 L 98 120 C 96 112 94 104 93 97 C 92 89 92 84 92 82 C 92 73 93 65 97 58 C 101 50 108 43 120 36 C 126 31 132 27 136 25 C 140 23 142 21 142 19 C 142 17 141 15 141 13 C 140 11 139 9 139 7 L 137 0 L -32 0 L -27 17 C -26 21 -23 24 -17 26 C -11 28 -3 32 7 38 C 21 46 32 55 38 65 C 44 75 48 86 51 98 L 188 644 C 188 646 189 651 191 659 C 193 667 194 671 194 673 C 194 681 191 687 187 692 C 182 696 173 700 160 704 C 154 705 148 706 144 707 C 140 708 138 710 138 713 C 138 714 138 715 138 717 C 138 719 139 721 140 723 L 142 730 L 309 730 L 400 110 L 791 730 Z" unicode="M" />
<glyph horiz-adv-x="725" d="M 633 730 L 801 730 L 796 713 C 795 709 792 706 786 704 C 780 702 773 698 763 692 C 748 683 738 674 732 666 C 726 658 721 647 719 635 L 560 -4 L 536 -4 L 234 670 L 98 120 C 96 112 94 104 93 97 C 92 89 92 84 92 82 C 92 73 93 65 97 58 C 101 50 108 43 120 36 C 126 31 132 27 136 25 C 140 23 142 21 142 19 C 142 17 141 15 141 13 C 140 11 139 9 139 7 L 137 0 L -32 0 L -27 17 C -26 21 -23 24 -17 26 C -11 28 -3 32 7 38 C 21 46 32 55 38 65 C 44 75 48 86 51 98 L 188 644 C 188 646 189 651 191 659 C 193 667 194 671 194 673 C 194 681 191 687 187 692 C 182 696 173 700 160 704 C 154 705 148 706 144 707 C 140 708 138 710 138 713 C 138 714 138 715 138 717 C 138 719 139 721 140 723 L 142 730 L 287 730 L 554 135 L 672 613 C 674 621 675 628 676 635 C 677 641 678 646 678 648 C 678 656 676 664 672 671 C 668 677 661 685 650 694 C 643 698 638 702 634 704 C 630 706 628 709 628 711 C 628 712 628 714 629 717 C 629 719 630 722 631 724 L 633 730 Z" unicode="N" />
<glyph horiz-adv-x="735" d="M 446 741 C 488 741 526 733 561 718 C 595 702 625 681 649 654 C 673 627 692 595 706 558 C 719 520 726 480 726 437 C 726 379 716 324 697 270 C 678 216 651 168 617 127 C 583 85 541 52 492 27 C 443 1 389 -11 331 -11 C 289 -11 250 -3 215 11 C 180 26 150 47 126 74 C 102 101 83 133 70 171 C 56 208 50 249 50 293 C 50 349 59 405 78 459 C 97 513 124 560 158 602 C 192 644 234 677 283 703 C 332 728 386 741 446 741 Z M 334 16 C 380 16 422 28 460 54 C 498 80 530 114 557 156 C 584 198 605 246 620 301 C 635 356 643 413 643 471 C 643 548 625 608 589 650 C 553 692 505 713 443 713 C 395 713 351 699 313 673 C 275 646 242 611 216 569 C 189 526 168 478 154 424 C 140 370 133 316 133 262 C 133 184 150 124 186 81 C 221 37 270 16 334 16 Z" unicode="O" />
<glyph horiz-adv-x="571" d="M 394 730 C 433 730 467 725 496 717 C 524 708 548 696 566 681 C 584 666 597 649 606 629 C 614 609 619 587 619 565 C 619 535 613 507 601 479 C 589 451 570 427 544 406 C 518 384 485 367 444 354 C 402 341 353 335 295 335 L 188 335 L 126 88 C 125 85 124 79 122 71 C 120 63 120 58 120 57 C 120 48 122 41 127 37 C 131 33 140 29 154 26 C 160 24 165 23 169 22 C 173 21 176 19 176 17 C 176 15 175 14 175 12 C 175 10 174 9 174 7 L 172 0 L -30 0 L -27 14 C -26 17 -24 19 -20 20 C -16 21 -10 23 0 26 C 13 29 23 33 29 39 C 35 45 39 54 43 67 L 188 643 C 189 648 190 654 192 661 C 193 667 194 671 194 673 C 194 681 191 687 187 692 C 182 696 173 700 160 704 C 154 705 148 706 144 707 C 140 708 138 710 138 713 C 138 714 138 715 138 717 C 138 719 139 721 140 723 L 142 730 L 394 730 Z M 310 366 C 348 366 382 371 410 381 C 438 391 462 405 480 423 C 498 441 512 462 521 486 C 529 510 534 537 534 565 C 534 605 520 637 492 663 C 464 689 422 702 365 702 L 280 702 L 196 366 L 310 366 Z" unicode="P" />
<glyph horiz-adv-x="737" d="M 446 741 C 488 741 526 733 561 718 C 595 702 625 681 649 654 C 673 627 692 595 706 558 C 719 520 726 480 726 437 C 726 381 717 326 699 274 C 681 221 655 174 622 134 C 589 93 549 59 503 33 C 456 7 405 -7 349 -10 C 357 -14 368 -19 381 -26 C 393 -33 406 -40 420 -47 C 433 -54 446 -61 458 -68 C 470 -75 481 -81 490 -85 C 513 -97 534 -106 553 -111 C 572 -115 594 -118 620 -118 C 631 -118 643 -116 655 -113 C 667 -109 678 -106 688 -103 L 684 -121 C 671 -131 651 -142 625 -154 C 598 -166 568 -172 534 -172 C 500 -172 471 -163 448 -147 C 425 -130 404 -112 384 -92 C 366 -74 349 -57 333 -43 C 317 -29 303 -17 291 -9 C 254 -4 221 6 191 23 C 161 40 136 62 115 88 C 94 114 78 144 67 179 C 55 214 50 252 50 293 C 50 349 59 405 78 459 C 97 513 124 560 158 602 C 192 644 234 677 283 703 C 332 728 386 741 446 741 Z M 334 16 C 380 16 422 28 460 54 C 498 80 530 114 557 156 C 584 198 605 246 620 301 C 635 356 643 413 643 471 C 643 548 625 608 589 650 C 553 692 505 713 443 713 C 395 713 351 699 313 673 C 275 646 242 611 216 569 C 189 526 168 478 154 424 C 140 370 133 316 133 262 C 133 184 150 124 186 81 C 221 37 270 16 334 16 Z" unicode="Q" />
<glyph horiz-adv-x="653" d="M 410 730 C 484 730 539 714 575 684 C 611 654 629 616 629 570 C 629 544 624 520 614 496 C 604 472 588 450 567 430 C 546 410 519 394 487 380 C 454 366 415 356 371 352 L 371 349 C 383 343 394 337 404 330 C 414 323 424 312 435 296 C 445 280 457 259 471 231 C 485 203 502 167 522 121 C 528 106 537 88 548 68 C 559 48 574 34 592 28 C 598 25 605 23 613 23 C 621 22 625 20 625 18 C 625 16 624 15 624 13 C 624 11 623 9 623 7 L 621 0 L 491 0 L 414 172 C 402 197 392 220 382 242 C 372 263 361 281 349 297 C 337 312 322 324 306 332 C 290 340 270 345 246 345 L 191 345 L 126 88 C 125 85 124 79 122 71 C 120 63 120 58 120 57 C 120 48 122 41 127 37 C 131 33 140 29 154 26 C 160 24 165 23 169 22 C 173 21 176 19 176 17 C 176 15 175 14 175 12 C 175 10 174 9 174 7 L 172 0 L -30 0 L -27 14 C -26 17 -24 19 -20 20 C -16 21 -10 23 0 26 C 13 29 23 33 29 39 C 35 45 39 54 43 67 L 188 643 C 189 648 190 654 192 661 C 193 667 194 671 194 673 C 194 681 191 687 187 692 C 182 696 173 700 160 704 C 154 705 148 706 144 707 C 140 708 138 710 138 713 C 138 714 138 715 138 717 C 138 719 139 721 140 723 L 142 730 L 410 730 Z M 317 375 C 388 375 444 392 484 426 C 524 460 544 508 544 570 C 544 612 528 645 498 668 C 467 690 428 702 381 702 L 280 702 L 198 375 L 317 375 Z" unicode="R" />
<glyph horiz-adv-x="561" d="M 543 710 L 557 710 L 518 551 L 496 551 C 494 551 492 551 492 552 C 491 553 491 554 491 556 C 485 606 469 645 443 672 C 417 698 382 712 337 712 C 293 712 257 699 228 673 C 199 647 185 614 185 574 C 185 547 191 523 204 503 C 217 482 236 465 260 451 C 277 441 297 430 320 420 C 342 409 359 401 370 397 C 424 371 462 343 484 315 C 505 286 516 255 516 221 C 516 191 510 163 498 135 C 486 107 470 82 448 60 C 426 38 398 21 365 8 C 332 -4 295 -11 253 -11 C 217 -11 184 -6 154 4 C 124 14 95 27 67 44 C 65 45 60 47 54 51 C 48 54 43 56 39 56 C 33 56 29 54 25 51 C 21 47 17 43 13 39 C 10 36 8 33 6 31 C 4 29 1 28 -1 28 L -19 28 L 21 188 L 42 188 C 45 188 47 186 48 184 C 49 181 50 177 52 173 C 60 145 72 122 87 102 C 102 82 119 66 137 54 C 155 41 175 32 195 26 C 215 20 235 17 254 17 C 310 17 355 32 391 62 C 427 92 445 134 445 186 C 445 220 434 248 412 269 C 390 290 364 308 334 323 C 312 333 294 342 278 350 C 262 358 245 367 228 376 C 186 396 156 421 140 451 C 123 480 115 511 115 545 C 115 569 120 593 131 617 C 141 641 156 662 176 680 C 195 698 219 713 247 724 C 275 735 306 741 341 741 C 360 741 382 738 407 733 C 432 728 458 718 484 704 C 487 702 491 700 495 698 C 499 696 503 695 507 695 C 509 695 512 695 515 696 C 518 697 521 699 524 701 C 530 705 533 707 534 708 C 535 709 538 710 543 710 Z" unicode="S" />
<glyph horiz-adv-x="614" d="M 621 730 C 633 730 650 731 672 733 C 693 735 710 736 723 738 L 688 603 L 677 603 C 670 603 665 604 662 607 C 659 610 657 614 657 619 C 655 648 649 669 639 682 C 629 695 615 702 595 702 L 452 702 L 297 87 C 295 81 294 74 293 68 C 292 62 292 58 292 57 C 292 48 294 41 299 37 C 304 33 313 29 327 26 C 333 24 338 23 342 22 C 346 21 349 19 349 17 C 349 15 348 14 348 12 C 348 10 347 9 347 7 L 345 0 L 139 0 L 142 14 C 142 17 144 19 148 20 C 152 21 159 23 169 26 C 182 29 192 33 199 39 C 205 45 210 54 214 67 L 374 702 L 228 702 C 206 702 188 695 172 681 C 156 667 142 647 128 622 C 123 614 118 608 113 606 C 107 604 101 603 95 603 L 84 603 L 119 738 C 129 737 145 735 167 733 C 188 731 206 730 221 730 L 621 730 Z" unicode="T" />
<glyph horiz-adv-x="718" d="M 633 730 L 803 730 L 798 714 C 797 710 794 707 788 705 C 782 703 775 699 765 693 C 750 684 740 676 734 668 C 728 660 724 650 721 638 L 625 253 C 616 217 603 182 587 150 C 570 118 549 90 525 66 C 500 42 470 24 436 10 C 402 -4 363 -11 319 -11 C 237 -11 176 7 135 43 C 94 79 74 125 74 180 C 74 190 75 203 77 217 C 79 231 82 244 85 255 L 182 644 C 182 646 183 651 185 659 C 186 667 187 671 187 673 C 187 681 184 687 180 692 C 176 696 167 700 154 704 C 148 705 142 706 138 707 C 134 708 132 710 132 713 C 132 714 132 715 132 717 C 132 719 133 721 134 723 L 136 730 L 338 730 L 335 716 C 334 712 332 710 328 709 C 324 708 318 706 308 704 C 294 700 285 696 279 691 C 273 685 268 676 265 664 L 165 264 C 162 253 160 241 158 229 C 156 216 156 205 156 195 C 156 149 172 111 206 81 C 240 51 283 37 337 37 C 408 37 464 59 504 104 C 544 148 572 206 590 277 L 673 613 C 675 621 676 628 677 635 C 677 641 678 646 678 648 C 678 658 676 666 673 673 C 670 680 663 687 651 695 C 643 699 638 703 634 705 C 630 707 629 710 629 713 C 629 714 629 715 629 717 C 629 718 630 720 631 723 L 633 730 Z" unicode="U" />
<glyph horiz-adv-x="698" d="M 633 730 L 813 730 L 809 715 C 808 712 806 710 802 709 C 798 707 793 706 787 704 C 777 701 767 695 755 685 C 743 675 731 662 721 646 L 292 -2 C 290 -4 289 -5 287 -7 C 285 -8 283 -9 281 -9 L 275 -9 C 273 -9 271 -8 271 -7 C 271 -5 270 -4 270 -3 L 153 658 C 151 667 148 676 142 685 C 136 693 126 700 114 704 C 108 706 102 707 96 708 C 90 708 87 710 87 713 C 87 714 87 716 88 718 C 88 720 89 722 90 724 L 92 730 L 295 730 L 292 716 C 291 711 289 708 285 708 C 281 708 275 706 266 703 C 253 698 244 693 239 689 C 233 685 231 678 231 669 C 231 666 231 660 232 651 C 233 641 234 632 236 624 L 325 108 L 662 628 C 669 640 674 650 678 660 C 682 669 684 675 684 678 C 684 680 681 684 677 690 C 673 696 664 700 652 704 C 644 706 639 707 635 708 C 631 709 629 711 629 713 C 629 714 629 715 629 717 C 629 719 630 721 631 723 L 633 730 Z" unicode="V" />
<glyph horiz-adv-x="1021" d="M 958 730 L 1138 730 L 1134 715 C 1133 712 1131 710 1127 709 C 1123 707 1118 706 1112 704 C 1102 701 1092 695 1080 685 C 1068 675 1056 662 1046 646 L 642 0 C 641 -1 639 -3 637 -5 C 635 -7 632 -8 630 -8 L 624 -8 C 622 -8 621 -7 619 -6 C 617 -5 617 -4 617 -3 L 568 501 L 264 -1 C 262 -3 261 -5 259 -6 C 257 -7 255 -8 253 -8 L 247 -8 C 245 -8 244 -7 243 -7 C 242 -6 241 -5 241 -3 L 155 656 C 153 667 150 677 144 685 C 138 693 128 700 116 704 C 110 706 104 707 98 708 C 92 708 89 710 89 713 C 89 714 89 716 90 718 C 90 720 91 722 92 724 L 94 730 L 298 730 L 295 716 C 294 711 292 708 288 708 C 284 708 278 706 269 703 C 256 698 247 693 242 689 C 236 685 234 678 234 670 C 234 667 234 660 235 650 C 235 639 236 631 237 625 L 299 120 L 560 547 L 547 656 C 545 667 542 677 536 685 C 530 693 520 700 508 704 C 502 706 496 707 490 708 C 484 708 481 710 481 713 C 481 714 481 716 482 718 C 482 720 483 722 484 724 L 486 730 L 690 730 L 687 716 C 686 711 684 708 680 708 C 676 708 670 706 661 703 C 648 698 639 693 634 689 C 628 685 626 678 626 670 C 626 667 626 660 626 650 C 626 639 627 631 628 625 L 679 118 L 987 628 C 994 640 999 651 1003 660 C 1007 669 1009 675 1009 678 C 1009 682 1006 686 1002 691 C 998 696 989 700 977 704 C 969 706 964 707 960 708 C 956 709 954 711 954 713 C 954 714 954 715 954 717 C 954 719 955 721 956 723 L 958 730 Z" unicode="W" />
<glyph horiz-adv-x="625" d="M 542 730 L 727 730 L 724 719 C 722 714 720 711 716 710 C 712 709 706 707 700 705 C 689 701 676 693 660 681 C 644 669 629 655 615 639 L 373 384 L 512 80 C 518 67 524 57 532 49 C 540 41 549 34 560 29 C 564 26 570 24 576 23 C 582 21 585 20 585 18 C 585 16 584 15 584 13 C 584 11 583 9 583 7 L 581 0 L 375 0 L 377 9 C 378 15 380 18 383 19 C 386 20 393 22 403 26 C 415 30 424 34 429 37 C 433 39 436 44 436 50 C 436 53 434 59 431 68 C 428 77 424 87 420 98 L 313 336 L 94 101 C 82 88 74 77 68 69 C 62 61 60 55 60 51 C 60 48 62 44 66 40 C 70 36 78 31 91 27 C 98 24 103 22 107 22 C 111 21 113 20 113 18 C 113 16 112 15 112 13 C 112 11 111 9 111 7 L 109 0 L -76 0 L -73 11 C -71 15 -69 18 -65 20 C -61 21 -56 23 -49 26 C -38 30 -25 38 -10 50 C 5 62 20 76 36 92 L 298 367 L 167 651 C 161 664 154 675 147 683 C 140 691 130 698 118 703 C 110 705 104 707 100 708 C 96 708 94 710 94 712 C 94 713 94 715 94 717 C 94 719 95 722 96 724 L 98 730 L 303 730 L 301 722 C 299 716 297 712 295 711 C 292 709 286 707 276 705 C 263 701 254 697 250 693 C 245 689 243 684 243 680 C 243 677 244 671 247 662 C 249 653 253 644 258 635 L 358 416 L 557 630 C 568 642 576 653 582 661 C 588 669 591 675 591 679 C 591 681 589 685 585 691 C 581 696 572 700 560 704 C 552 706 547 707 543 708 C 539 708 538 710 538 712 C 538 713 538 715 538 717 C 538 719 539 721 540 723 L 542 730 Z" unicode="X" />
<glyph horiz-adv-x="622" d="M 567 730 L 746 730 L 743 717 C 742 712 740 709 736 709 C 732 708 727 707 720 705 C 711 702 701 697 690 689 C 678 681 664 667 647 649 L 367 337 L 303 88 C 301 82 300 75 299 69 C 298 62 298 58 298 57 C 298 48 300 41 305 37 C 310 33 319 29 333 26 C 339 24 344 23 348 22 C 352 21 355 19 355 17 C 355 15 354 14 354 12 C 354 10 353 9 353 7 L 351 0 L 145 0 L 148 14 C 148 17 150 19 154 20 C 158 21 165 23 175 26 C 188 29 198 33 205 39 C 212 45 217 54 221 67 L 287 331 L 148 658 C 143 669 137 679 130 687 C 123 695 114 700 103 704 C 95 706 90 708 86 708 C 82 708 81 709 81 712 C 81 713 81 715 81 717 C 81 719 82 721 83 724 L 85 730 L 287 730 L 285 719 C 284 714 282 711 278 710 C 274 709 268 707 259 705 C 246 701 237 697 233 693 C 228 689 226 684 226 680 C 226 676 227 671 229 663 C 231 655 233 647 237 639 L 352 368 L 584 632 C 592 641 600 650 606 660 C 612 670 615 677 615 681 C 615 683 613 687 610 691 C 606 695 598 700 585 704 C 578 706 573 707 569 708 C 565 708 563 710 563 712 C 563 713 563 715 563 717 C 563 719 564 721 565 723 L 567 730 Z" unicode="Y" />
<glyph horiz-adv-x="599" d="M 261 730 L 658 730 C 656 721 653 714 651 709 C 648 704 643 698 637 691 L 59 29 L 367 29 C 396 29 421 37 442 54 C 462 71 483 97 505 132 C 509 138 512 143 515 146 C 517 148 521 150 526 150 L 543 150 L 503 -8 C 493 -7 478 -5 456 -3 C 434 -1 417 0 405 0 L -40 0 L -39 5 C -38 11 -36 16 -33 21 C -29 26 -25 32 -19 39 L 556 701 L 270 701 C 248 701 230 694 214 680 C 198 666 183 646 169 621 C 164 612 159 607 154 605 C 149 603 143 602 137 602 L 125 602 L 159 737 C 169 735 185 734 207 732 C 228 730 246 730 261 730 Z" unicode="Z" />
<glyph horiz-adv-x="328" d="M 183 730 L 410 730 L 403 704 L 241 704 L 25 -165 L 186 -165 L 178 -190 L -47 -190 L 183 730 Z" unicode="[" />
<glyph horiz-adv-x="442" d="M 156 730 L 396 -190 L 354 -190 L 113 730 L 156 730 Z" unicode="\" />
<glyph horiz-adv-x="328" d="M 139 730 L 364 730 L 134 -190 L -93 -190 L -86 -164 L 76 -164 L 292 705 L 131 705 L 139 730 Z" unicode="]" />
<glyph horiz-adv-x="754" d="M 415 730 L 607 346 L 561 346 L 391 699 L 219 346 L 173 346 L 365 730 L 415 730 Z" unicode="^" />
<glyph horiz-adv-x="488" d="M -73 -68 L 428 -68 L 421 -96 L -80 -96 L -73 -68 Z" unicode="_" />
<glyph horiz-adv-x="406" d="M 231 627 L 339 494 L 323 484 L 183 577 C 172 583 164 590 158 598 C 152 605 150 612 150 620 C 150 630 152 638 158 645 C 164 652 172 656 182 656 C 190 656 198 654 206 650 C 213 646 221 638 231 627 Z" unicode="`" />
<glyph horiz-adv-x="489" d="M 461 39 L 465 23 C 457 17 445 10 427 2 C 409 -6 388 -10 366 -10 C 343 -10 327 -4 319 7 C 310 18 306 31 306 45 L 306 70 C 282 48 259 29 235 14 C 211 -1 184 -9 155 -9 C 109 -9 75 5 53 35 C 30 64 19 101 19 145 C 19 184 26 221 40 257 C 54 293 73 324 97 350 C 121 376 149 397 181 413 C 213 428 248 436 285 436 C 308 436 327 432 341 424 C 355 416 367 408 377 399 C 379 396 382 394 386 394 C 390 393 393 393 395 393 C 397 393 400 393 403 395 C 405 396 408 398 411 400 L 449 434 C 451 435 452 436 454 437 C 456 437 457 438 458 438 C 458 438 460 437 462 437 C 464 436 464 435 464 435 L 382 116 C 379 105 377 95 375 86 C 373 77 372 69 372 63 C 372 52 375 43 381 35 C 387 27 399 24 415 24 C 423 24 431 25 439 28 C 447 31 454 35 461 39 Z M 311 102 L 371 346 C 362 360 351 374 337 388 C 323 401 302 408 276 408 C 247 408 221 400 198 384 C 175 368 156 347 141 322 C 125 297 113 269 105 238 C 97 207 93 177 93 149 C 93 113 100 85 114 63 C 128 41 152 30 184 30 C 198 30 211 32 224 38 C 236 43 248 49 259 57 C 269 64 279 72 288 80 C 297 88 305 96 311 102 Z" unicode="a" />
<glyph horiz-adv-x="478" d="M 328 433 C 370 433 402 419 425 391 C 448 363 460 328 460 285 C 460 251 454 216 442 181 C 430 145 414 114 392 86 C 370 58 344 35 312 17 C 280 -1 243 -10 203 -10 C 172 -10 146 -5 126 2 C 106 10 89 21 77 33 C 65 45 56 57 51 71 C 46 85 44 97 44 109 C 44 119 44 131 46 143 C 48 155 51 170 55 187 L 168 642 C 170 650 171 658 173 666 C 174 674 175 678 175 680 C 175 686 173 691 170 695 C 166 699 158 703 145 707 C 138 709 133 710 130 711 C 126 711 125 713 125 716 C 125 717 125 719 125 721 C 125 723 126 725 127 727 L 128 730 L 260 730 L 162 344 C 182 364 207 384 236 404 C 265 423 296 433 328 433 Z M 204 16 C 235 16 262 24 285 40 C 308 56 327 76 342 101 C 356 126 367 154 375 185 C 382 215 386 245 386 275 C 386 310 378 339 364 361 C 349 383 326 394 295 394 C 281 394 267 391 253 385 C 239 379 225 373 213 365 C 201 357 190 348 180 339 C 170 330 162 322 156 316 L 119 167 C 117 158 115 148 114 136 C 113 124 113 116 113 112 C 113 85 119 62 133 44 C 146 25 170 16 204 16 Z" unicode="b" />
<glyph horiz-adv-x="383" d="M 261 434 C 305 434 337 425 357 407 C 377 389 387 370 387 352 C 387 333 382 320 373 312 C 364 304 354 300 343 300 C 332 300 323 303 315 309 C 307 315 303 323 303 334 C 303 340 305 348 309 357 C 313 366 317 375 321 385 C 316 389 308 395 297 401 C 285 407 269 411 248 411 C 224 411 203 404 185 390 C 166 376 150 357 137 335 C 124 312 114 287 107 259 C 100 231 97 203 97 175 C 97 134 106 99 125 69 C 144 39 174 24 216 24 C 248 24 276 31 298 47 C 320 62 339 78 355 95 L 367 79 C 360 69 351 59 341 49 C 330 39 318 29 304 20 C 290 11 274 4 256 -1 C 238 -7 219 -10 199 -10 C 147 -10 105 5 73 37 C 40 69 24 113 24 169 C 24 201 29 232 40 264 C 50 296 66 324 86 349 C 106 374 131 394 161 410 C 190 426 223 434 261 434 Z" unicode="c" />
<glyph horiz-adv-x="496" d="M 411 730 L 544 730 L 391 115 C 388 104 386 93 384 83 C 382 73 381 66 381 63 C 381 52 384 43 390 35 C 396 27 407 24 423 24 C 431 24 439 25 447 28 C 455 31 462 35 469 39 L 473 23 C 465 17 453 10 435 2 C 417 -6 396 -10 374 -10 C 351 -10 335 -4 327 5 C 319 15 315 28 315 42 L 315 70 C 293 49 267 31 239 15 C 211 -1 181 -9 151 -9 C 109 -9 76 5 53 33 C 30 61 19 96 19 139 C 19 173 24 207 36 243 C 47 278 63 310 85 338 C 107 366 133 389 164 407 C 195 425 230 434 269 434 C 298 434 321 427 339 415 C 356 402 372 389 387 375 L 452 642 C 454 650 455 658 457 666 C 458 674 459 678 459 680 C 459 686 457 691 454 695 C 450 699 442 703 429 707 C 422 709 417 710 413 711 C 409 711 408 713 408 716 C 408 717 408 719 408 721 C 408 723 409 725 410 727 L 411 730 Z M 319 102 L 377 341 C 368 355 355 369 337 381 C 319 393 297 399 271 399 C 242 399 216 391 194 376 C 172 360 153 341 138 317 C 123 293 112 267 104 237 C 96 207 93 177 93 149 C 93 113 100 85 114 63 C 128 41 152 30 184 30 C 198 30 211 32 225 38 C 239 43 251 49 263 57 C 275 64 285 72 295 80 C 305 88 313 96 319 102 Z" unicode="d" />
<glyph horiz-adv-x="400" d="M 276 435 C 312 435 340 426 362 409 C 384 392 395 369 395 341 C 395 309 385 284 367 266 C 349 248 327 234 302 225 C 277 215 251 209 224 207 C 197 205 175 204 159 204 L 97 204 C 97 198 96 192 96 186 C 95 180 95 175 95 171 C 95 141 98 117 106 98 C 113 79 123 64 135 54 C 147 43 160 35 176 31 C 191 27 206 25 222 25 C 246 25 271 31 297 44 C 322 57 346 76 370 101 L 382 85 C 363 61 339 39 311 19 C 282 0 243 -10 194 -10 C 138 -10 96 6 67 40 C 38 74 24 116 24 168 C 24 200 30 233 42 265 C 54 297 72 326 94 351 C 116 376 142 396 173 412 C 204 427 238 435 276 435 Z M 99 227 C 131 227 161 228 189 232 C 217 235 241 241 261 249 C 281 257 298 268 310 282 C 322 296 328 314 328 337 C 328 359 322 376 310 388 C 298 400 281 406 259 406 C 222 406 189 391 159 361 C 129 331 109 287 99 227 Z" unicode="e" />
<glyph horiz-adv-x="266" d="M 367 730 C 391 730 408 724 416 714 C 424 704 428 693 428 682 C 428 671 424 662 416 655 C 408 647 398 644 386 644 C 377 644 368 648 358 656 C 348 664 343 680 343 705 C 336 703 328 701 318 698 C 308 695 298 689 288 679 C 277 669 266 654 256 634 C 245 614 235 588 227 555 L 192 421 L 313 421 L 306 395 L 188 395 L 97 0 L 27 0 L 118 395 L 69 395 L 71 404 C 71 408 73 410 77 411 C 81 412 88 414 100 418 C 110 420 117 425 123 431 C 128 437 132 445 134 457 C 140 492 150 526 164 559 C 178 592 194 621 214 646 C 234 671 256 691 282 707 C 308 722 336 730 367 730 Z" unicode="f" />
<glyph horiz-adv-x="459" d="M 462 442 C 471 442 479 439 487 435 C 494 431 498 423 498 413 C 498 404 494 396 488 390 C 482 384 475 381 469 381 C 462 381 457 381 454 383 C 451 384 448 386 444 389 C 439 391 435 394 432 397 C 429 399 425 401 421 401 C 415 401 409 398 402 393 C 394 387 388 382 383 377 C 391 362 397 349 400 337 C 403 325 405 315 405 307 C 405 283 400 261 391 240 C 382 218 369 199 352 183 C 335 167 314 154 290 144 C 265 134 237 129 207 129 C 193 129 180 130 168 134 C 155 138 144 142 135 146 L 58 45 C 79 45 100 47 122 49 C 143 51 169 52 200 52 C 268 52 315 42 342 24 C 368 6 382 -16 382 -43 C 382 -68 375 -90 362 -110 C 348 -130 331 -146 309 -160 C 287 -173 261 -183 231 -190 C 201 -196 171 -200 139 -200 C 89 -200 52 -194 28 -184 C 4 -173 -8 -157 -8 -137 C -8 -124 -3 -114 4 -106 C 12 -98 23 -95 37 -95 C 49 -95 58 -99 64 -107 C 70 -115 73 -125 73 -137 C 73 -139 72 -143 71 -147 C 70 -151 69 -156 68 -161 C 77 -165 89 -169 103 -172 C 117 -175 131 -177 147 -177 C 165 -177 185 -175 206 -171 C 226 -167 245 -161 262 -153 C 278 -145 292 -134 303 -120 C 313 -106 319 -90 319 -71 C 319 -45 305 -28 279 -19 C 252 -9 214 -5 165 -5 C 125 -5 88 -7 55 -11 C 22 -15 2 -17 -4 -17 C -5 -17 -7 -16 -10 -16 C -12 -15 -14 -14 -14 -12 C -14 -9 -13 -6 -11 -4 C -9 -2 -8 0 -6 3 L 114 156 C 91 170 74 187 64 205 C 54 223 49 244 49 267 C 49 291 54 313 65 334 C 75 355 90 373 108 388 C 126 403 147 415 171 424 C 195 433 221 438 248 438 C 274 438 298 433 318 425 C 338 416 357 404 374 388 C 386 402 400 414 414 425 C 428 436 444 442 462 442 Z M 218 154 C 235 154 251 158 266 167 C 281 175 294 187 304 201 C 314 215 323 232 329 250 C 335 268 338 287 338 307 C 338 335 329 360 313 381 C 297 402 272 413 240 413 C 218 413 200 408 185 399 C 169 389 157 377 147 363 C 137 348 130 332 126 314 C 121 296 119 278 119 261 C 119 227 128 201 146 182 C 164 163 188 154 218 154 Z" unicode="g" />
<glyph horiz-adv-x="505" d="M 479 39 L 483 23 C 475 17 462 10 444 2 C 425 -6 404 -10 382 -10 C 359 -10 343 -4 333 5 C 323 15 319 28 319 42 C 319 48 319 57 321 69 C 322 80 324 92 328 105 L 373 270 C 375 280 377 291 378 303 C 379 314 380 322 380 327 C 380 349 374 366 363 378 C 351 390 335 396 315 396 C 290 396 264 387 236 369 C 208 351 184 332 165 314 L 87 0 L 17 0 L 177 642 C 179 650 180 658 182 666 C 183 674 184 678 184 680 C 184 686 182 691 179 695 C 175 699 167 703 154 707 C 147 709 142 710 139 711 C 135 711 134 713 134 716 C 134 717 134 719 134 721 C 134 723 135 725 136 727 L 137 730 L 269 730 L 174 350 C 202 370 229 389 256 407 C 283 424 315 433 353 433 C 386 433 411 424 427 406 C 443 388 451 365 451 338 C 451 331 450 322 449 311 C 448 300 446 288 443 276 L 400 115 C 396 101 394 90 393 81 C 391 72 391 66 391 63 C 391 52 394 43 400 35 C 406 27 417 24 433 24 C 441 24 449 25 457 28 C 465 31 472 35 479 39 Z" unicode="h" />
<glyph horiz-adv-x="238" d="M 218 674 C 232 674 243 669 253 660 C 263 650 268 639 268 625 C 268 611 263 599 253 590 C 243 580 232 576 218 576 C 204 576 192 580 183 590 C 173 599 169 611 169 625 C 169 639 173 650 183 660 C 192 669 204 674 218 674 Z M 208 39 L 212 23 C 204 17 191 10 172 2 C 153 -6 132 -10 110 -10 C 87 -10 71 -4 61 5 C 51 15 47 28 47 42 C 47 48 47 57 49 69 C 50 80 52 92 56 105 L 106 295 C 108 303 109 311 111 320 C 112 328 113 334 113 337 C 113 351 110 362 104 369 C 98 375 87 379 71 380 C 68 380 65 380 62 380 C 59 380 58 381 58 383 C 58 384 58 385 58 387 C 58 389 58 391 59 393 L 61 400 C 81 400 103 403 125 407 C 147 411 170 419 194 430 L 210 430 L 129 115 C 126 103 124 92 122 82 C 120 72 120 66 120 63 C 120 52 123 43 129 35 C 135 27 146 24 162 24 C 170 24 178 25 186 28 C 194 31 201 35 208 39 Z" unicode="i" />
<glyph horiz-adv-x="226" d="M 205 674 C 219 674 230 669 240 660 C 250 650 255 639 255 625 C 255 611 250 599 240 590 C 230 580 219 576 205 576 C 191 576 179 580 170 590 C 160 599 156 611 156 625 C 156 639 160 650 170 660 C 179 669 191 674 205 674 Z M 194 430 L 209 430 L 122 48 C 104 -28 78 -88 43 -132 C 8 -176 -38 -198 -96 -198 C -116 -198 -131 -193 -141 -183 C -151 -173 -156 -162 -156 -151 C -156 -139 -152 -130 -145 -123 C -137 -115 -127 -112 -114 -112 C -105 -112 -96 -116 -87 -125 C -77 -134 -73 -151 -73 -176 C -66 -175 -58 -173 -49 -171 C -39 -168 -30 -162 -21 -154 C -11 -146 -2 -133 7 -116 C 16 -99 24 -76 31 -47 L 107 294 C 109 302 110 310 112 319 C 113 328 114 334 114 337 C 114 351 111 362 105 369 C 99 375 88 379 72 380 C 69 380 66 380 63 380 C 60 380 59 381 59 383 C 59 384 59 385 59 387 C 59 389 59 391 60 393 L 62 400 C 82 400 104 403 126 407 C 148 411 170 419 194 430 Z" unicode="j" />
<glyph horiz-adv-x="479" d="M 456 39 L 460 24 C 452 17 440 10 422 2 C 404 -6 386 -10 368 -10 C 339 -10 315 4 297 32 C 278 60 262 111 248 185 C 232 180 219 176 209 173 C 199 169 189 167 180 165 C 171 163 162 162 154 160 C 145 158 135 157 124 155 L 87 0 L 17 0 L 177 642 C 179 650 180 658 182 666 C 183 674 184 678 184 680 C 184 686 182 691 179 695 C 175 699 167 703 154 707 C 147 709 142 710 139 711 C 135 711 134 713 134 716 C 134 717 134 719 134 721 C 134 723 135 725 136 727 L 137 730 L 269 730 L 173 349 C 219 384 254 407 279 417 C 304 427 330 433 357 433 C 385 433 406 425 421 410 C 436 394 444 376 444 355 C 444 334 439 316 429 300 C 419 284 408 271 394 259 C 380 247 366 237 350 229 C 334 221 319 214 307 208 C 311 186 316 168 321 152 C 326 136 333 119 341 99 C 348 80 357 63 367 47 C 377 31 390 24 407 24 C 415 24 423 25 432 28 C 440 31 448 35 456 39 Z M 130 181 C 156 183 183 189 212 198 C 241 206 267 217 291 230 C 315 242 334 257 350 274 C 366 290 374 308 374 326 C 374 346 369 362 359 374 C 349 386 331 393 304 393 C 289 393 269 386 243 372 C 217 358 190 339 164 314 L 130 181 Z" unicode="k" />
<glyph horiz-adv-x="225" d="M 139 730 L 271 730 L 117 114 C 114 102 112 91 110 81 C 108 71 108 65 108 62 C 108 51 111 42 117 34 C 123 26 135 23 151 23 C 159 23 167 24 175 28 C 183 31 190 35 197 39 L 201 22 C 193 16 180 10 161 2 C 142 -6 121 -10 99 -10 C 76 -10 60 -5 50 5 C 40 15 36 27 36 42 C 36 48 36 58 38 70 C 40 82 42 93 45 105 L 179 642 C 181 650 182 658 184 666 C 185 674 186 678 186 680 C 186 686 184 691 181 695 C 177 699 169 703 156 707 C 149 709 144 710 141 711 C 137 711 136 713 136 716 C 136 717 136 719 136 721 C 136 723 137 725 138 727 L 139 730 Z" unicode="l" />
<glyph horiz-adv-x="789" d="M 763 39 L 767 23 C 759 17 746 10 728 2 C 709 -6 688 -10 666 -10 C 643 -10 627 -4 617 5 C 607 15 603 28 603 42 C 603 48 603 57 605 69 C 606 80 608 92 612 105 L 656 270 C 658 280 660 291 662 303 C 663 314 664 322 664 327 C 664 349 659 366 649 378 C 639 390 623 396 603 396 C 579 396 554 387 530 371 C 505 355 481 337 459 317 L 381 0 L 311 0 L 378 272 C 380 282 382 292 384 303 C 385 314 386 322 386 327 C 386 349 381 366 371 378 C 361 390 345 396 325 396 C 300 396 274 387 247 369 C 220 351 197 332 179 314 L 101 0 L 31 0 L 104 294 C 106 302 107 311 109 320 C 110 328 111 334 111 337 C 111 351 108 362 102 369 C 96 375 85 379 69 380 C 66 380 63 380 60 380 C 57 380 56 381 56 383 C 56 384 56 385 56 387 C 56 389 56 391 57 393 L 59 400 C 79 400 101 403 123 407 C 145 411 167 419 191 430 L 202 430 L 180 344 C 208 366 236 386 264 405 C 292 423 325 433 363 433 C 393 433 415 425 431 409 C 446 393 455 372 459 344 C 484 366 511 387 541 405 C 570 423 603 433 641 433 C 674 433 698 424 713 406 C 727 388 735 365 735 338 C 735 331 734 322 733 311 C 731 299 729 288 727 276 L 684 115 C 680 101 678 90 677 81 C 675 72 675 66 675 63 C 675 52 678 43 684 35 C 690 27 701 24 717 24 C 725 24 733 25 741 28 C 749 31 756 35 763 39 Z" unicode="m" />
<glyph horiz-adv-x="519" d="M 493 39 L 497 23 C 489 17 476 10 458 2 C 439 -6 418 -10 396 -10 C 373 -10 357 -4 347 5 C 337 15 333 28 333 42 C 333 48 333 57 335 69 C 336 80 338 92 342 105 L 386 270 C 388 280 390 291 392 303 C 393 314 394 322 394 327 C 394 349 388 366 377 378 C 366 390 350 396 330 396 C 305 396 278 387 249 369 C 220 351 196 332 178 314 L 101 0 L 31 0 L 104 294 C 106 302 107 311 109 320 C 110 328 111 334 111 337 C 111 351 108 362 102 369 C 96 375 85 379 69 380 C 66 380 63 380 60 380 C 57 380 56 381 56 383 C 56 384 56 385 56 387 C 56 389 56 391 57 393 L 59 400 C 79 400 101 403 123 407 C 145 411 167 419 191 430 L 202 430 L 180 344 C 208 366 236 386 266 405 C 295 423 329 433 367 433 C 400 433 425 424 441 406 C 457 388 465 365 465 338 C 465 331 464 322 463 311 C 462 300 460 288 457 276 L 414 115 C 410 101 408 90 407 81 C 405 72 405 66 405 63 C 405 52 408 43 414 35 C 420 27 431 24 447 24 C 455 24 463 25 471 28 C 479 31 486 35 493 39 Z" unicode="n" />
<glyph horiz-adv-x="462" d="M 269 437 C 323 437 364 419 394 384 C 423 348 438 303 438 249 C 438 214 432 181 420 150 C 408 118 391 91 370 67 C 349 43 324 25 294 11 C 264 -3 231 -10 195 -10 C 139 -10 97 7 68 43 C 38 79 24 124 24 179 C 24 211 29 242 40 273 C 51 304 67 332 88 356 C 109 380 135 399 165 414 C 195 429 230 437 269 437 Z M 202 16 C 228 16 251 22 271 36 C 291 49 308 67 322 90 C 336 112 346 139 354 170 C 361 201 365 234 365 270 C 365 312 356 346 339 372 C 322 398 296 411 260 411 C 232 411 208 404 188 390 C 167 376 150 357 137 334 C 123 310 113 283 107 252 C 100 221 97 189 97 156 C 97 114 105 81 122 55 C 138 29 165 16 202 16 Z" unicode="o" />
<glyph horiz-adv-x="494" d="M 344 433 C 386 433 418 419 441 391 C 464 363 476 328 476 285 C 476 251 470 216 459 181 C 447 145 431 114 409 86 C 387 58 361 35 330 17 C 299 -1 264 -10 226 -10 C 196 -10 173 -3 155 9 C 137 21 122 35 108 50 L 51 -190 L -20 -190 L 100 294 C 102 302 103 311 105 320 C 106 328 107 334 107 337 C 107 351 104 362 98 369 C 92 375 81 379 65 380 C 62 380 59 380 56 380 C 53 380 52 381 52 383 C 52 384 52 385 52 387 C 52 389 52 391 53 393 L 55 400 C 75 400 97 403 119 407 C 141 411 163 419 187 430 L 198 430 L 175 337 C 185 347 196 357 208 369 C 220 380 234 390 249 400 C 263 409 279 417 295 423 C 311 429 327 433 344 433 Z M 224 25 C 252 25 278 32 300 47 C 322 62 341 82 356 106 C 371 130 382 156 390 186 C 398 216 402 245 402 275 C 402 310 394 339 380 361 C 365 383 342 394 311 394 C 297 394 283 391 269 385 C 255 379 243 372 231 364 C 219 356 208 347 198 338 C 188 329 181 321 175 315 L 118 82 C 126 68 139 55 157 43 C 175 31 197 25 224 25 Z" unicode="p" />
<glyph horiz-adv-x="486" d="M 462 438 C 462 438 464 437 466 437 C 468 437 469 436 470 436 L 315 -190 L 244 -190 L 311 66 C 285 42 259 24 233 12 C 207 0 180 -6 152 -6 C 110 -6 77 8 54 37 C 30 66 19 103 19 147 C 19 184 26 220 40 255 C 54 290 73 321 97 348 C 121 374 149 396 182 412 C 214 428 249 436 287 436 C 308 436 327 432 344 426 C 360 420 374 412 385 402 C 387 399 390 397 393 395 C 396 393 399 393 403 393 C 405 393 408 393 411 395 C 414 396 417 398 420 400 L 452 434 C 453 436 455 437 457 437 C 459 437 461 438 462 438 Z M 317 102 L 377 347 C 369 359 358 373 342 387 C 326 401 305 408 279 408 C 251 408 225 400 202 385 C 179 369 160 349 144 325 C 128 301 115 273 106 242 C 97 211 93 180 93 149 C 93 113 100 85 115 64 C 129 43 153 33 185 33 C 212 33 238 41 263 57 C 287 73 305 88 317 102 Z" unicode="q" />
<glyph horiz-adv-x="339" d="M 317 433 C 334 433 347 428 355 419 C 363 409 368 399 368 389 C 368 377 364 365 357 355 C 350 345 339 340 325 340 C 314 340 305 343 299 351 C 293 359 289 370 288 385 C 274 384 261 378 247 367 C 233 356 219 343 207 327 C 195 311 184 293 175 275 C 165 256 159 238 155 222 L 102 0 L 32 0 L 100 276 C 102 288 104 300 105 311 C 105 322 106 329 106 333 C 106 348 102 359 96 367 C 89 375 77 379 61 380 C 58 380 55 380 52 380 C 49 380 48 381 48 383 C 48 384 48 385 48 387 C 48 389 48 391 49 393 L 51 400 C 71 400 89 403 103 407 C 117 411 135 419 158 430 L 167 430 C 167 426 168 421 168 417 C 168 413 168 408 168 402 C 168 390 167 375 165 357 C 163 338 161 318 158 298 L 165 298 C 189 340 216 373 244 397 C 272 421 296 433 317 433 Z" unicode="r" />
<glyph horiz-adv-x="363" d="M 225 435 C 265 435 296 427 316 412 C 336 397 346 382 346 368 C 346 353 341 342 333 334 C 324 326 314 323 304 323 C 293 323 284 326 278 333 C 272 339 269 348 269 358 C 269 362 270 368 272 375 C 274 382 278 390 282 399 C 275 401 267 403 258 407 C 248 411 233 413 213 413 C 190 413 169 405 150 391 C 131 377 122 357 122 333 C 122 313 130 295 146 281 C 162 267 191 250 233 232 C 265 217 289 201 305 183 C 320 165 328 146 328 125 C 328 109 324 93 316 77 C 308 61 297 46 283 33 C 268 20 249 10 227 2 C 204 -6 178 -10 149 -10 C 103 -10 67 0 41 17 C 15 35 2 55 2 77 C 2 89 5 99 13 109 C 20 118 31 123 45 123 C 58 123 67 119 73 113 C 79 106 82 98 82 89 C 82 80 79 72 74 64 C 69 56 66 50 66 47 C 76 36 90 27 109 21 C 127 14 146 11 165 11 C 193 11 217 19 237 36 C 256 52 266 72 266 95 C 266 121 255 140 233 153 C 211 165 184 180 152 196 C 116 214 92 231 80 249 C 68 266 63 285 63 307 C 63 325 67 341 76 357 C 85 373 97 386 112 398 C 126 409 143 418 163 425 C 183 431 203 435 225 435 Z" unicode="s" />
<glyph horiz-adv-x="275" d="M 194 421 L 303 421 L 297 395 L 188 395 L 120 116 C 118 109 117 100 115 90 C 113 79 112 71 112 65 C 112 52 116 42 124 35 C 132 28 146 25 165 25 C 171 25 180 26 190 30 C 200 33 210 37 218 42 L 223 25 C 214 18 199 10 179 2 C 158 -5 137 -10 115 -10 C 88 -10 69 -4 57 5 C 45 15 40 29 40 46 C 40 51 40 58 41 66 C 41 74 43 81 45 89 L 119 395 L 68 395 L 71 407 C 71 410 74 412 78 412 C 82 412 89 415 101 419 C 113 423 122 428 127 432 C 132 436 136 443 139 455 L 164 556 C 164 557 164 558 166 559 C 167 560 168 561 169 561 L 232 570 L 194 421 Z" unicode="t" />
<glyph horiz-adv-x="512" d="M 484 39 L 489 24 C 481 17 467 10 448 2 C 429 -6 408 -10 386 -10 C 364 -10 349 -4 341 6 C 333 17 330 31 330 49 C 330 53 330 57 330 61 C 330 65 331 69 332 74 C 304 51 275 31 247 15 C 219 -1 186 -10 148 -10 C 114 -10 90 -1 74 17 C 58 35 50 57 50 84 C 50 91 50 100 51 111 C 52 121 54 133 58 147 L 96 293 C 98 301 100 310 101 319 C 101 328 102 334 102 337 C 102 351 99 361 94 368 C 88 375 77 379 61 380 C 58 380 55 380 52 380 C 49 380 48 381 48 383 C 48 384 48 385 48 387 C 48 389 48 391 49 393 L 51 400 C 71 400 93 403 117 407 C 140 411 163 419 187 430 L 201 430 L 129 152 C 126 142 124 131 123 120 C 121 108 121 100 121 96 C 121 73 126 56 138 44 C 149 32 165 27 186 27 C 210 27 237 35 265 52 C 293 68 316 86 336 106 L 382 293 C 384 301 385 310 386 319 C 387 328 388 334 388 337 C 388 351 385 361 380 368 C 374 375 363 379 347 380 C 344 380 341 380 338 380 C 335 380 334 381 334 383 C 334 384 334 385 334 387 C 334 389 334 391 335 393 L 337 400 C 357 400 379 403 403 407 C 426 411 449 419 473 430 L 485 430 L 401 91 C 400 86 399 81 398 77 C 397 72 397 68 397 65 C 397 54 399 44 405 36 C 411 28 422 24 439 24 C 446 24 454 25 462 28 C 470 30 477 34 484 39 Z" unicode="u" />
<glyph horiz-adv-x="456" d="M 373 460 C 387 460 399 455 408 447 C 416 439 423 428 427 416 C 431 403 434 389 435 375 C 436 360 437 347 437 335 C 437 297 431 257 420 217 C 408 176 392 139 371 105 C 349 71 323 44 291 22 C 259 0 224 -10 184 -10 C 167 -10 150 -7 134 -3 C 118 0 103 7 91 16 C 79 25 69 36 61 50 C 53 64 50 80 50 99 C 50 108 50 117 52 127 C 53 136 55 145 58 154 L 95 293 C 97 301 99 310 100 319 C 101 328 102 334 102 337 C 102 351 99 361 93 368 C 87 375 76 379 60 380 C 57 380 54 380 51 380 C 48 380 47 381 47 383 C 47 384 47 385 47 387 C 47 389 47 391 48 393 L 50 400 C 71 400 93 402 116 407 C 139 411 162 419 186 430 L 200 430 L 130 166 C 128 158 126 148 125 137 C 123 126 123 116 123 106 C 123 85 128 66 138 49 C 148 32 170 24 203 24 C 219 24 236 28 252 36 C 268 44 283 55 297 69 C 311 82 324 97 336 114 C 348 131 357 148 365 166 C 381 202 391 235 395 265 C 399 295 401 328 403 365 C 375 369 355 376 345 384 C 335 392 330 404 330 420 C 330 432 334 442 342 449 C 350 456 361 460 373 460 Z" unicode="v" />
<glyph horiz-adv-x="718" d="M 635 460 C 649 460 661 455 670 447 C 678 439 685 428 689 416 C 693 403 696 389 697 375 C 698 360 699 347 699 335 C 699 297 693 257 682 217 C 671 176 655 139 634 105 C 613 71 587 44 555 22 C 523 0 488 -10 448 -10 C 419 -10 392 -2 368 11 C 344 25 328 49 320 82 C 299 59 276 38 251 19 C 226 0 196 -10 161 -10 C 119 -10 90 1 74 24 C 58 47 50 72 50 100 C 50 106 50 114 51 122 C 52 130 54 140 58 154 L 95 293 C 97 301 98 310 100 319 C 101 328 102 334 102 337 C 102 351 99 361 93 368 C 87 375 76 379 60 380 C 57 380 54 380 51 380 C 48 380 47 381 47 383 C 47 384 47 385 47 387 C 47 389 47 391 48 393 L 50 400 C 71 400 93 402 116 407 C 138 411 161 419 185 430 L 199 430 L 127 152 C 125 144 123 135 123 125 C 122 115 122 108 122 104 C 122 82 127 64 138 49 C 149 34 168 27 195 27 C 217 27 238 34 258 49 C 278 64 296 81 313 100 L 393 424 L 463 424 L 397 165 C 395 158 393 148 392 136 C 390 123 390 113 390 105 C 390 85 394 67 404 50 C 413 32 434 24 467 24 C 483 24 500 28 516 36 C 532 44 547 55 561 69 C 575 82 587 97 599 114 C 611 131 620 148 628 166 C 644 202 653 235 657 265 C 661 295 663 328 665 365 C 637 369 617 376 607 384 C 597 392 592 404 592 420 C 592 432 596 442 604 449 C 612 456 623 460 635 460 Z" unicode="w" />
<glyph horiz-adv-x="424" d="M 409 432 C 420 432 430 428 438 422 C 446 416 450 406 450 393 C 450 379 446 368 438 361 C 430 353 421 350 413 350 C 405 350 398 352 392 356 C 386 360 378 368 370 382 C 358 370 347 359 339 351 C 331 342 322 332 314 322 C 306 312 297 300 287 286 C 277 272 264 253 249 231 C 254 208 260 184 266 160 C 272 136 278 115 285 99 C 291 81 300 64 311 48 C 322 32 336 24 353 24 C 362 24 370 25 378 28 C 386 31 393 35 401 40 L 404 24 C 397 18 384 11 366 3 C 348 -5 329 -10 309 -10 C 297 -10 286 -7 276 -1 C 266 4 256 14 247 28 C 238 42 229 61 221 86 C 213 110 205 141 197 179 C 153 108 117 59 91 32 C 64 5 41 -8 21 -8 C 4 -8 -7 -3 -15 7 C -23 17 -27 27 -27 39 C -27 47 -23 56 -16 65 C -9 73 1 78 16 78 C 24 78 31 75 39 71 C 47 66 55 57 63 45 C 75 58 87 70 97 81 C 107 91 116 102 125 114 C 134 125 144 138 154 152 C 164 166 175 184 188 205 C 182 231 177 253 172 271 C 166 289 160 306 154 323 C 147 341 138 358 128 373 C 117 387 103 395 87 395 C 78 395 69 393 61 390 C 52 386 44 382 37 377 L 33 394 C 41 400 54 407 74 417 C 94 427 113 432 133 432 C 158 432 178 419 194 394 C 210 369 226 324 243 258 C 259 281 274 303 288 324 C 302 345 316 364 329 380 C 342 396 355 408 368 418 C 381 427 395 432 409 432 Z" unicode="x" />
<glyph horiz-adv-x="427" d="M 395 433 C 409 433 420 428 428 418 C 435 408 439 396 439 384 C 439 368 433 347 422 321 C 411 295 396 266 378 234 C 360 202 339 169 316 134 C 293 99 270 65 246 33 C 228 8 208 -17 188 -45 C 168 -72 147 -97 125 -119 C 103 -141 79 -160 55 -175 C 31 -189 6 -197 -20 -197 C -42 -197 -60 -191 -73 -180 C -86 -169 -93 -155 -93 -139 C -93 -129 -89 -120 -81 -112 C -73 -103 -63 -99 -50 -99 C -38 -99 -27 -103 -19 -113 C -11 -123 -5 -142 -3 -170 C 14 -166 32 -158 51 -146 C 69 -133 87 -119 104 -103 C 120 -87 136 -70 150 -54 C 164 -38 175 -24 183 -14 C 170 53 158 113 148 165 C 138 217 124 271 106 325 C 100 341 92 357 80 373 C 68 389 56 397 43 397 C 34 397 26 395 18 392 C 10 388 2 384 -6 380 L -9 397 C 0 403 13 411 32 420 C 51 428 69 433 86 433 C 114 433 135 421 150 397 C 164 373 177 340 188 297 C 198 258 207 217 215 175 C 223 133 230 93 236 57 C 264 97 289 136 309 172 C 329 208 344 238 355 261 C 362 276 367 288 371 298 C 374 307 379 320 386 337 C 374 343 364 351 357 359 C 350 367 347 378 347 390 C 347 400 351 409 359 419 C 367 428 379 433 395 433 Z" unicode="y" />
<glyph horiz-adv-x="394" d="M 405 434 L 414 421 L 55 63 L 57 60 C 76 61 90 62 98 64 C 106 65 117 66 132 66 C 155 66 175 63 192 59 C 209 55 224 50 237 45 C 250 40 262 35 273 31 C 283 27 294 25 305 25 C 311 25 319 27 328 32 C 337 37 342 48 342 64 C 342 72 340 78 336 82 C 332 86 327 89 322 93 C 317 97 313 101 309 107 C 305 112 303 120 303 132 C 303 142 306 150 314 156 C 321 162 329 165 338 165 C 344 165 352 161 362 155 C 372 149 377 135 377 115 C 377 93 373 75 366 59 C 358 43 348 30 336 20 C 324 10 310 2 294 -2 C 278 -7 263 -10 247 -10 C 216 -10 190 -5 168 2 C 146 10 118 15 85 15 C 68 15 52 13 36 10 C 20 6 1 3 -21 -1 L -29 15 L 335 381 L 333 384 C 308 375 288 369 273 367 C 257 364 244 363 233 363 C 211 363 193 364 178 367 C 162 369 145 371 126 371 C 106 371 90 365 78 354 C 66 343 57 333 49 324 L 37 334 C 38 338 41 345 47 356 C 52 366 59 377 69 388 C 79 399 91 409 107 418 C 122 426 140 431 162 431 C 178 431 191 430 200 428 C 209 426 218 425 226 423 C 234 421 243 419 254 417 C 265 415 281 415 302 415 C 333 415 356 417 371 421 C 385 425 397 429 405 434 Z" unicode="z" />
<glyph horiz-adv-x="376" d="M 184 544 C 188 571 199 596 216 620 C 232 643 253 663 277 679 C 301 695 329 708 359 718 C 389 727 420 732 452 733 L 447 717 C 391 705 347 688 315 666 C 283 643 263 610 257 567 C 253 542 250 522 249 508 C 248 494 246 474 242 449 C 238 424 230 402 218 383 C 206 363 192 346 176 332 C 160 318 142 306 122 296 C 102 286 81 279 61 273 C 93 262 117 244 133 220 C 149 196 157 167 157 133 C 157 127 156 121 156 116 C 155 111 154 106 154 100 C 150 82 146 63 141 45 C 135 26 131 5 129 -18 C 127 -28 126 -37 125 -46 C 124 -55 124 -64 124 -72 C 124 -103 132 -127 148 -143 C 164 -159 191 -171 229 -181 L 225 -197 C 170 -196 129 -181 102 -152 C 74 -123 61 -87 61 -43 C 61 -36 61 -29 62 -22 C 62 -15 63 -8 64 -1 C 67 19 72 40 79 61 C 85 82 91 102 95 121 C 96 129 97 138 98 147 C 98 156 99 164 99 172 C 99 196 92 217 80 233 C 67 249 48 260 23 265 L 28 285 C 66 292 98 305 122 325 C 146 345 162 376 171 420 C 175 439 177 459 178 481 C 178 502 180 523 184 544 Z" unicode="{" />
<glyph horiz-adv-x="42" d="M 63 730 L 63 -190 L 21 -190 L 21 730 L 63 730 Z" unicode="|" />
<glyph horiz-adv-x="376" d="M 270 363 C 270 338 276 317 289 301 C 301 285 320 274 346 270 L 341 250 C 302 242 271 229 247 209 C 223 189 206 158 198 116 C 194 96 191 76 191 55 C 190 33 188 12 185 -8 C 180 -36 169 -61 153 -84 C 136 -107 115 -127 91 -143 C 67 -159 40 -172 10 -182 C -20 -191 -51 -196 -83 -197 L -78 -181 C -22 -170 22 -153 54 -130 C 86 -107 105 -74 112 -30 C 116 -6 118 13 119 27 C 120 41 123 61 127 87 C 131 111 138 133 150 152 C 162 171 176 187 193 201 C 209 215 228 226 248 236 C 268 246 288 254 309 260 C 276 270 252 287 236 313 C 220 339 212 369 212 403 C 212 409 212 414 213 420 C 213 425 214 431 215 437 C 218 454 222 472 228 490 C 233 508 237 530 240 554 C 241 564 242 573 243 582 C 244 591 245 600 245 608 C 245 638 237 662 221 678 C 205 694 178 707 140 717 L 144 733 C 198 732 239 717 267 688 C 294 658 308 622 308 579 C 308 572 307 565 307 558 C 306 551 305 544 305 536 C 301 515 296 494 290 474 C 283 453 278 433 274 415 C 272 406 271 397 271 388 C 270 378 270 370 270 363 Z" unicode="}" />
<glyph horiz-adv-x="754" d="M 634 388 L 659 388 C 657 366 651 344 643 323 C 634 301 623 283 609 267 C 595 251 579 238 560 228 C 541 218 520 213 498 213 C 479 213 462 216 447 224 C 432 231 412 243 387 260 C 363 276 341 289 322 301 C 302 313 282 319 262 319 C 246 319 232 315 220 308 C 208 301 197 292 189 282 C 181 271 174 259 169 246 C 164 232 161 220 159 208 L 134 208 C 136 230 141 251 150 272 C 158 293 170 312 184 328 C 198 344 214 356 233 366 C 251 376 272 381 294 381 C 318 381 338 377 353 371 C 367 365 386 354 408 340 C 432 324 454 309 474 296 C 493 283 512 277 530 277 C 546 277 561 280 573 287 C 585 294 596 303 604 314 C 612 324 619 336 624 350 C 628 363 632 376 634 388 Z" unicode="~" />
<glyph horiz-adv-x="196" d="" unicode="" />
<glyph horiz-adv-x="267" d="M 172 546 C 186 546 199 541 209 531 C 219 521 224 508 224 494 C 224 479 219 467 209 457 C 199 447 186 442 172 442 C 157 442 144 447 134 457 C 124 467 119 479 119 494 C 119 508 124 521 134 531 C 144 541 157 546 172 546 Z M 136 344 C 138 344 141 343 145 341 C 148 339 149 337 149 336 C 143 302 134 261 123 214 C 111 166 103 119 98 73 C 92 21 87 -20 83 -51 C 79 -82 74 -113 68 -144 C 65 -158 59 -172 51 -184 C 43 -196 32 -202 18 -202 C 0 -202 -12 -196 -18 -186 C -24 -175 -27 -162 -27 -148 C -27 -143 -26 -138 -26 -133 C -25 -128 -24 -123 -24 -119 C -20 -103 -16 -89 -12 -75 C -7 -61 -2 -46 4 -31 C 10 -15 16 1 24 19 C 32 37 40 59 49 84 C 65 128 79 173 91 221 C 103 268 114 308 124 341 C 124 341 125 342 128 343 C 131 343 134 344 136 344 Z" unicode="" />
<glyph horiz-adv-x="443" d="M 341 559 C 377 553 404 543 421 527 C 437 511 446 495 446 479 C 446 460 441 447 431 439 C 421 431 411 427 400 427 C 388 427 378 430 370 436 C 362 442 358 450 358 461 C 358 467 359 475 362 484 C 365 493 370 502 376 511 C 371 515 362 521 349 527 C 336 533 318 537 296 537 C 271 537 249 530 230 516 C 210 502 194 483 181 461 C 167 439 157 414 150 386 C 143 358 140 330 140 303 C 140 263 150 228 171 198 C 192 168 224 154 266 154 C 299 154 327 161 350 177 C 372 193 392 209 409 226 L 422 209 C 415 199 406 189 395 179 C 384 168 371 158 357 150 C 342 141 325 134 307 128 C 289 122 269 119 247 119 L 238 119 L 207 -9 L 176 -9 L 209 122 C 165 130 129 150 103 181 C 77 212 64 251 64 299 C 64 330 69 361 80 393 C 91 424 107 452 128 477 C 149 501 175 521 206 537 C 236 552 271 560 311 561 L 337 667 L 368 667 L 341 559 Z" unicode="" />
<glyph horiz-adv-x="546" d="M 426 695 C 471 695 507 684 533 664 C 559 643 573 618 573 588 C 573 567 568 552 558 542 C 548 532 538 528 526 528 C 515 528 505 531 495 537 C 485 543 481 554 481 568 C 481 579 484 589 490 598 C 496 606 508 617 524 629 C 512 641 498 651 481 657 C 464 663 446 667 428 667 C 379 667 338 649 304 615 C 270 581 254 537 254 483 C 254 450 255 425 259 408 C 263 391 267 373 272 355 L 466 355 L 459 327 L 276 327 C 277 315 278 305 280 297 C 281 288 282 278 282 268 C 282 248 278 225 270 201 C 262 176 253 150 241 124 C 266 106 291 90 317 76 C 343 62 371 55 402 55 C 426 55 448 59 468 67 C 487 75 502 85 514 98 L 525 81 C 506 58 484 37 459 18 C 433 0 404 -10 370 -10 C 332 -10 303 0 283 20 C 263 40 243 63 223 88 C 204 57 182 33 158 16 C 133 -1 107 -10 79 -10 C 55 -10 35 -3 17 11 C 0 25 -9 44 -9 70 C -9 86 -5 101 2 115 C 9 128 18 139 30 148 C 41 157 54 164 69 169 C 83 173 98 176 112 176 C 130 176 146 173 162 168 C 177 162 193 155 211 147 C 213 159 215 172 217 184 C 219 196 220 208 220 220 C 220 242 218 262 214 278 C 210 294 205 310 201 327 L 72 327 L 80 355 L 194 355 C 189 371 185 387 183 402 C 180 417 179 435 179 456 C 179 484 184 513 196 542 C 208 570 224 596 245 618 C 266 640 292 659 323 673 C 353 687 388 695 426 695 Z M 80 17 C 106 17 130 25 151 42 C 171 59 187 82 199 110 C 185 121 170 130 156 137 C 141 143 123 147 102 147 C 76 147 56 139 42 124 C 28 108 21 92 21 76 C 21 59 25 45 35 34 C 44 22 59 17 80 17 Z" unicode="" />
<glyph horiz-adv-x="558" d="M 440 695 C 486 695 522 686 548 669 C 574 651 587 630 587 604 C 587 589 582 576 573 565 C 564 554 552 549 538 549 C 525 549 515 552 508 560 C 500 567 497 575 497 585 C 497 598 498 609 501 617 C 503 625 507 633 511 642 C 507 645 498 650 486 657 C 473 663 455 667 432 667 C 384 667 340 644 300 598 C 260 552 229 492 206 417 L 434 417 L 427 390 L 199 390 C 196 378 193 363 189 347 C 185 331 183 313 181 295 L 380 295 L 373 268 L 177 268 C 176 259 175 250 175 241 C 174 232 174 224 174 216 C 174 159 186 114 210 81 C 234 47 270 31 318 31 C 350 31 380 38 409 52 C 437 66 467 91 498 127 L 514 108 C 501 88 486 71 468 57 C 450 42 432 30 413 20 C 393 10 374 2 354 -2 C 334 -7 315 -10 298 -10 C 232 -10 183 11 149 53 C 115 95 98 152 98 223 C 98 229 98 237 98 245 C 98 253 99 260 100 268 L 27 268 L 34 295 L 103 295 C 105 311 108 326 111 341 C 114 356 118 372 124 390 L 50 390 L 57 417 L 133 417 C 163 501 206 569 261 619 C 315 669 375 695 440 695 Z" unicode="" />
<glyph horiz-adv-x="629" d="M 533 684 L 705 684 L 702 674 C 700 669 698 666 694 665 C 690 664 685 662 679 660 C 670 656 660 651 650 644 C 639 636 625 623 608 604 L 423 393 L 559 393 L 552 365 L 401 365 L 356 316 L 345 278 L 532 278 L 525 250 L 340 250 L 299 87 C 298 82 297 76 295 69 C 293 62 293 58 293 56 C 293 49 295 44 299 40 C 303 36 311 31 324 27 C 332 24 337 22 341 22 C 344 22 346 20 346 18 C 346 16 345 15 345 13 C 345 11 344 9 344 7 L 342 0 L 152 0 L 155 14 C 155 17 157 19 161 20 C 165 21 172 23 182 27 C 194 31 204 36 210 41 C 216 46 221 56 225 70 L 269 250 L 80 250 L 88 278 L 276 278 L 285 310 L 262 365 L 108 365 L 116 393 L 252 393 L 158 613 C 153 623 147 633 140 641 C 133 649 124 655 114 659 C 108 661 102 662 98 663 C 94 663 92 665 92 668 C 92 669 92 671 92 673 C 92 675 93 677 94 679 L 96 684 L 290 684 L 288 677 C 286 671 284 667 282 665 C 279 663 273 661 264 659 C 251 655 242 652 237 648 C 232 644 230 639 230 635 C 230 631 230 626 232 620 C 234 613 237 605 241 596 L 345 348 L 548 587 C 556 597 563 607 569 617 C 575 626 578 633 578 637 C 578 639 576 643 572 648 C 568 653 561 657 551 659 C 545 659 539 660 535 662 C 531 663 529 665 529 667 C 529 668 529 670 529 672 C 529 674 530 676 531 678 L 533 684 Z" unicode="" />
<glyph horiz-adv-x="568" d="M 382 731 C 409 731 433 727 455 720 C 477 712 495 703 510 691 C 524 679 535 666 543 651 C 551 636 555 621 555 606 C 555 587 550 572 541 562 C 531 551 519 546 505 546 C 495 546 486 549 476 556 C 466 562 461 572 461 585 C 461 596 464 606 471 615 C 478 624 491 633 511 643 C 498 657 481 671 461 684 C 441 697 412 704 374 704 C 330 704 295 692 270 669 C 244 645 232 619 232 591 C 232 580 233 570 237 560 C 240 550 246 539 256 529 C 266 518 279 506 297 493 C 315 480 338 465 366 448 C 417 416 455 387 481 361 C 507 335 520 306 520 275 C 520 245 508 216 484 188 C 460 160 422 134 370 110 C 392 91 409 73 419 56 C 429 39 434 19 434 -3 C 434 -25 428 -47 416 -67 C 404 -87 388 -104 368 -119 C 348 -133 325 -145 299 -153 C 273 -161 246 -166 218 -166 C 190 -166 166 -162 144 -155 C 122 -147 104 -138 90 -126 C 75 -114 64 -101 56 -86 C 48 -71 45 -56 45 -42 C 45 -23 49 -8 59 2 C 68 12 80 18 95 18 C 104 18 114 14 124 8 C 134 2 139 -7 139 -20 C 139 -32 135 -42 128 -51 C 121 -60 108 -69 90 -78 C 104 -94 121 -109 140 -121 C 159 -133 188 -140 226 -140 C 270 -140 304 -128 330 -104 C 355 -80 368 -54 368 -26 C 368 -15 366 -5 363 5 C 359 15 353 25 344 36 C 334 46 321 58 303 71 C 285 84 262 99 234 117 C 184 147 145 176 119 202 C 93 228 80 257 80 289 C 80 318 92 347 116 376 C 140 404 178 431 231 456 C 207 474 191 491 181 508 C 171 525 166 545 166 568 C 166 590 172 612 184 632 C 196 652 212 669 232 684 C 252 698 275 710 301 718 C 327 726 354 731 382 731 Z M 348 126 C 384 140 411 158 428 178 C 445 198 454 221 454 248 C 454 271 446 292 430 311 C 414 329 389 351 353 375 C 336 385 320 396 304 406 C 288 416 270 428 252 441 C 214 425 186 407 170 385 C 154 363 146 340 146 316 C 146 293 153 273 167 256 C 181 238 205 218 241 194 C 259 181 276 170 292 160 C 308 150 327 138 348 126 Z" unicode="" />
<glyph horiz-adv-x="406" d="M 339 605 C 351 605 362 600 371 591 C 380 582 385 572 385 560 C 385 548 380 537 371 528 C 362 519 351 515 339 515 C 326 515 315 519 306 528 C 297 537 293 548 293 560 C 293 572 297 582 306 591 C 315 600 326 605 339 605 Z M 157 605 C 169 605 180 600 189 591 C 198 582 203 572 203 560 C 203 548 198 537 189 528 C 180 519 169 515 157 515 C 144 515 133 519 124 528 C 115 537 111 548 111 560 C 111 572 115 582 124 591 C 133 600 144 605 157 605 Z" unicode="" />
<glyph horiz-adv-x="816" d="M 434 717 C 486 717 536 707 582 688 C 628 669 667 643 701 611 C 735 579 761 541 781 497 C 800 453 810 406 810 356 C 810 306 800 259 781 215 C 761 171 735 132 701 100 C 667 68 628 42 582 24 C 536 5 486 -4 434 -4 C 381 -4 332 5 286 24 C 240 42 200 68 166 100 C 132 132 106 171 87 215 C 67 259 58 306 58 356 C 58 406 67 453 87 497 C 106 541 132 579 166 611 C 200 643 240 669 286 688 C 332 707 381 717 434 717 Z M 434 21 C 482 21 527 29 569 47 C 611 65 648 89 679 119 C 709 149 734 185 752 226 C 770 266 779 310 779 356 C 779 402 770 445 752 486 C 734 526 709 562 679 593 C 648 623 611 647 569 665 C 527 683 482 692 434 692 C 386 692 341 683 299 665 C 257 647 220 623 190 593 C 159 562 135 526 117 486 C 99 445 90 402 90 356 C 90 310 99 266 117 226 C 135 185 159 149 190 119 C 220 89 257 65 299 47 C 341 29 386 21 434 21 Z M 578 252 L 597 235 C 592 227 585 218 576 208 C 567 198 556 189 543 181 C 530 172 515 165 498 159 C 480 153 461 150 441 150 C 409 150 380 155 356 166 C 332 177 311 192 295 211 C 278 229 265 251 257 275 C 249 299 245 325 245 352 C 245 386 250 415 262 441 C 274 467 289 488 307 505 C 325 522 346 535 369 544 C 391 552 414 557 436 557 C 454 557 470 554 486 549 C 501 543 517 536 533 528 C 535 526 538 524 542 524 C 545 524 548 525 552 527 C 554 529 556 531 558 533 C 560 534 562 535 564 535 L 577 535 L 577 435 L 558 435 C 555 435 553 435 552 437 C 550 438 549 439 549 441 C 541 465 529 487 511 505 C 493 523 471 532 447 532 C 433 532 418 528 403 522 C 387 515 373 505 361 491 C 348 477 337 458 329 436 C 321 413 317 386 317 355 C 317 298 329 255 354 225 C 379 195 409 181 444 181 C 462 181 479 183 494 189 C 509 195 522 201 534 209 C 545 216 554 224 562 232 C 569 240 574 247 578 252 Z" unicode="" />
<glyph horiz-adv-x="454" d="M 458 695 C 458 695 458 694 459 694 C 460 693 461 692 461 692 C 461 690 460 685 458 679 C 456 672 456 669 456 669 L 395 428 C 393 420 391 411 389 403 C 387 395 387 388 387 382 C 387 372 390 365 397 359 C 403 353 411 350 419 350 C 422 350 426 350 430 351 C 434 352 438 353 442 354 L 444 350 C 444 349 445 348 445 347 C 445 346 445 345 445 345 C 445 339 436 334 420 328 C 403 322 388 320 375 320 C 360 320 347 325 337 335 C 327 345 323 364 326 393 C 298 362 275 342 255 333 C 235 324 215 320 195 320 C 165 320 141 331 123 355 C 105 378 96 410 96 450 C 96 484 101 515 113 545 C 125 575 140 601 160 623 C 180 645 202 662 228 675 C 253 687 279 694 306 694 C 322 694 337 691 349 687 C 361 683 370 679 378 675 C 382 672 387 670 392 668 C 397 666 402 665 407 665 C 410 665 413 665 415 665 C 417 665 420 667 423 669 L 427 673 C 429 675 432 678 435 681 C 438 683 442 687 448 692 C 449 693 450 694 452 694 C 454 694 456 695 458 695 Z M 375 576 C 375 580 377 588 379 600 C 381 612 382 621 382 628 C 373 638 364 648 354 656 C 344 664 328 669 308 669 C 284 669 262 662 244 649 C 225 635 209 618 197 598 C 184 578 174 556 168 532 C 161 508 158 485 158 464 C 158 438 163 415 173 395 C 183 374 202 364 231 364 C 254 364 273 370 289 383 C 304 395 320 409 336 424 L 375 576 Z" unicode="" />
<glyph horiz-adv-x="452" d="M 409 398 L 449 398 L 299 218 L 375 50 L 335 50 L 240 192 C 237 195 235 199 233 203 C 231 207 231 212 231 217 C 231 225 233 232 238 238 C 243 244 248 250 254 256 L 409 398 Z M 232 398 L 272 398 L 123 218 L 198 50 L 158 50 L 63 192 C 60 195 58 199 56 203 C 54 207 54 212 54 217 C 54 225 56 232 61 238 C 66 244 71 250 77 256 L 232 398 Z" unicode="" />
<glyph horiz-adv-x="754" d="M 647 323 L 647 61 L 603 61 L 603 283 L 131 283 L 131 323 L 647 323 Z" unicode="" />
<glyph horiz-adv-x="312" d="M 53 250 L 275 250 L 262 197 L 40 197 L 53 250 Z" unicode="" />
<glyph horiz-adv-x="497" d="M 330 730 C 362 730 392 724 420 712 C 448 700 473 684 494 664 C 515 644 532 620 544 592 C 556 564 563 535 563 505 C 563 474 556 445 544 418 C 532 390 515 366 494 346 C 473 326 448 310 420 298 C 392 286 362 281 330 281 C 298 281 268 286 240 298 C 212 310 187 326 166 346 C 145 366 128 390 116 418 C 104 445 98 474 98 505 C 98 535 104 564 116 592 C 128 620 145 644 166 664 C 187 684 212 700 240 712 C 268 724 298 730 330 730 Z M 330 302 C 358 302 385 307 411 318 C 437 328 459 343 478 361 C 496 379 511 401 522 426 C 533 450 539 477 539 505 C 539 533 533 559 522 584 C 511 608 496 630 478 649 C 459 667 437 682 411 693 C 385 703 358 709 330 709 C 301 709 274 703 249 693 C 223 682 201 667 183 649 C 164 630 149 608 138 584 C 127 559 122 533 122 505 C 122 477 127 450 138 426 C 149 401 164 379 183 361 C 201 343 223 328 249 318 C 274 307 301 302 330 302 Z M 347 625 C 366 625 384 619 402 608 C 419 596 428 579 428 555 C 428 539 423 526 415 515 C 406 504 393 495 375 488 L 427 385 L 389 385 L 340 483 L 286 483 L 286 385 L 251 385 L 251 625 L 347 625 Z M 343 514 C 352 514 362 517 373 523 C 383 529 389 540 389 554 C 389 567 384 577 376 584 C 367 591 356 595 344 595 L 286 595 L 286 514 L 343 514 Z" unicode="" />
<glyph horiz-adv-x="406" d="M 114 592 L 398 592 L 383 545 L 99 545 L 114 592 Z" unicode="" />
<glyph horiz-adv-x="324" d="M 222 730 C 258 730 289 717 315 692 C 341 666 355 636 355 601 C 355 565 341 535 315 510 C 289 484 258 472 222 472 C 186 472 154 484 128 510 C 102 535 89 565 89 601 C 89 636 102 666 128 692 C 154 717 186 730 222 730 Z M 222 505 C 248 505 270 514 287 534 C 303 554 312 576 312 601 C 312 625 303 647 287 667 C 270 687 248 697 222 697 C 194 697 172 687 156 667 C 140 647 132 625 132 601 C 132 576 140 554 156 534 C 172 514 194 505 222 505 Z" unicode="" />
<glyph horiz-adv-x="754" d="M 662 393 L 662 353 L 421 353 L 421 131 L 377 131 L 377 353 L 136 353 L 136 393 L 377 393 L 377 615 L 421 615 L 421 393 L 662 393 Z M 662 40 L 662 0 L 136 0 L 136 40 L 662 40 Z" unicode="" />
<glyph horiz-adv-x="414" d="M 293 734 C 332 734 364 724 389 704 C 413 684 426 660 426 632 C 426 611 420 592 410 575 C 400 557 387 541 371 527 C 355 513 338 500 320 489 C 302 478 285 468 269 460 C 239 444 214 430 194 418 C 174 406 154 390 135 370 L 309 370 C 323 370 334 372 342 377 C 350 382 356 391 362 404 C 362 406 363 408 365 410 C 367 411 369 412 372 412 L 384 412 L 360 321 L 82 321 L 92 358 C 107 378 130 399 160 422 C 190 444 220 465 250 485 C 288 509 316 534 334 558 C 352 582 361 609 361 638 C 361 658 353 676 338 691 C 323 705 303 713 279 713 C 264 713 249 709 235 702 C 221 695 209 686 201 676 C 207 669 212 663 216 657 C 219 651 221 646 221 642 C 221 632 218 624 212 618 C 206 612 197 609 187 609 C 174 609 165 612 159 619 C 153 626 150 635 150 645 C 150 665 164 685 193 705 C 221 724 255 734 293 734 Z" unicode="" />
<glyph horiz-adv-x="411" d="M 275 734 C 312 734 343 725 369 707 C 395 689 408 669 408 645 C 408 619 397 597 376 580 C 354 562 327 551 295 545 L 294 541 C 322 532 345 519 363 501 C 381 483 390 462 390 440 C 390 405 373 375 340 351 C 307 327 266 315 218 315 C 177 315 145 323 121 340 C 97 356 85 377 85 402 C 85 410 88 417 95 424 C 102 431 111 435 122 435 C 134 435 142 431 148 425 C 154 418 157 411 157 405 C 157 399 155 394 152 388 C 148 382 144 377 140 371 C 148 360 158 352 170 347 C 182 341 197 339 214 339 C 234 339 252 342 266 350 C 280 357 292 366 300 377 C 308 388 314 400 318 414 C 322 427 324 440 324 452 C 324 476 315 495 297 509 C 279 523 248 530 204 532 L 209 555 C 260 555 295 563 315 579 C 334 595 344 618 344 649 C 344 665 336 680 322 693 C 308 705 288 712 264 712 C 253 712 242 710 232 707 C 221 704 212 700 204 696 C 208 689 211 683 213 678 C 215 672 217 667 217 662 C 217 655 213 649 207 644 C 201 639 193 637 185 637 C 175 637 166 639 159 645 C 152 650 149 658 149 670 C 149 680 152 689 160 697 C 167 705 177 711 189 717 C 201 722 214 726 229 729 C 244 732 259 734 275 734 Z" unicode="" />
<glyph horiz-adv-x="406" d="M 348 656 C 358 656 365 652 370 644 C 374 636 377 627 377 617 C 377 609 373 602 367 595 C 360 587 350 580 338 573 L 185 484 L 169 495 L 296 628 C 306 639 315 646 323 650 C 331 654 339 656 348 656 Z" unicode="" />
<glyph horiz-adv-x="605" d="M 398 730 L 658 730 L 655 717 C 654 713 652 711 648 710 C 644 708 638 706 628 704 C 614 700 604 695 598 689 C 591 682 586 673 584 663 L 405 -53 C 404 -57 403 -63 401 -70 C 399 -76 399 -81 399 -84 C 399 -90 401 -96 406 -101 C 410 -106 419 -111 432 -115 C 436 -116 441 -117 446 -118 C 450 -118 453 -120 453 -123 C 453 -124 452 -125 452 -127 C 452 -129 451 -131 451 -133 L 449 -140 L 328 -140 L 539 703 L 457 703 L 246 -140 L 135 -140 L 138 -127 C 138 -123 141 -121 145 -120 C 149 -119 155 -117 165 -115 C 178 -111 188 -105 195 -97 C 201 -89 206 -79 209 -69 L 308 321 C 296 321 278 322 255 324 C 232 326 209 332 187 342 C 164 352 144 369 128 391 C 111 413 103 443 103 483 C 103 515 108 545 120 575 C 132 605 150 631 174 654 C 198 677 228 695 266 709 C 303 723 347 730 398 730 Z M 314 347 L 402 701 C 360 701 326 693 300 677 C 274 661 253 641 239 617 C 225 593 215 567 210 539 C 205 511 203 486 203 464 C 203 430 211 402 227 380 C 243 358 272 347 314 347 Z" unicode="" />
<glyph horiz-adv-x="208" d="M 133 395 C 147 395 160 390 170 380 C 180 370 186 357 186 343 C 186 328 180 316 170 306 C 160 296 147 291 133 291 C 118 291 106 296 96 306 C 86 316 81 328 81 343 C 81 357 86 370 96 380 C 106 390 118 395 133 395 Z" unicode="" />
<glyph horiz-adv-x="406" d="M 194 -52 C 222 -52 243 -56 257 -66 C 270 -76 277 -90 277 -109 C 277 -130 267 -149 249 -167 C 230 -184 202 -193 165 -193 C 146 -193 128 -188 112 -179 C 95 -170 81 -160 71 -150 L 85 -132 C 95 -140 107 -148 121 -155 C 135 -162 149 -166 163 -166 C 187 -166 203 -160 210 -148 C 217 -136 221 -125 221 -115 C 221 -105 216 -96 208 -88 C 200 -80 186 -77 167 -77 L 156 -77 L 201 0 L 224 0 L 194 -52 Z" unicode="" />
<glyph horiz-adv-x="322" d="M 283 729 L 307 729 L 224 399 C 223 394 222 388 221 381 C 219 374 219 369 219 367 C 219 360 221 355 227 351 C 233 347 239 344 247 342 C 249 341 253 340 259 339 C 264 338 267 336 267 334 C 267 333 266 332 266 330 C 266 328 265 326 265 325 L 263 318 L 91 318 L 93 326 C 95 332 99 336 105 337 C 111 338 118 340 126 342 C 133 344 140 347 146 352 C 152 356 157 364 160 376 L 234 674 L 164 674 L 168 692 L 283 729 Z" unicode="" />
<glyph horiz-adv-x="459" d="M 304 694 C 349 694 384 679 410 649 C 436 619 449 582 449 536 C 449 506 444 478 434 452 C 424 426 410 403 392 383 C 374 363 353 347 328 335 C 302 323 275 318 245 318 C 199 318 163 333 137 363 C 111 393 99 431 99 477 C 99 503 103 530 113 556 C 122 582 135 606 153 626 C 170 646 191 662 217 675 C 242 687 271 694 304 694 Z M 251 344 C 273 344 293 349 310 361 C 327 373 341 388 352 408 C 363 427 371 449 377 475 C 382 500 385 526 385 553 C 385 584 378 611 364 634 C 350 656 327 668 296 668 C 272 668 252 661 235 649 C 218 637 204 621 193 601 C 182 581 174 559 169 534 C 164 509 162 484 162 459 C 162 428 169 401 183 378 C 197 355 219 344 251 344 Z" unicode="" />
<glyph horiz-adv-x="452" d="M 393 256 C 395 252 397 248 399 244 C 401 240 402 235 402 231 C 402 223 399 215 395 209 C 390 202 385 196 380 192 L 225 50 L 185 50 L 333 230 L 258 398 L 298 398 L 393 256 Z M 216 256 C 218 252 220 248 222 244 C 224 240 225 235 225 231 C 225 223 222 215 218 209 C 213 202 208 196 203 192 L 48 50 L 8 50 L 157 230 L 81 398 L 121 398 L 216 256 Z" unicode="" />
<glyph horiz-adv-x="721" d="M 670 733 L 710 733 L 112 -10 L 71 -10 L 670 733 Z M 283 729 L 307 729 L 224 399 C 223 394 222 388 221 381 C 219 374 219 369 219 367 C 219 360 221 355 227 351 C 233 347 239 344 247 342 C 249 341 253 340 259 339 C 264 338 267 336 267 334 C 267 333 266 332 266 330 C 266 328 265 326 265 325 L 263 318 L 91 318 L 93 326 C 95 332 99 336 105 337 C 111 338 118 340 126 342 C 133 344 140 347 146 352 C 152 356 157 364 160 376 L 234 674 L 164 674 L 168 692 L 283 729 Z M 595 139 L 663 139 L 657 113 L 589 113 L 579 71 C 577 64 576 58 575 54 C 574 49 574 45 574 43 C 574 38 575 34 578 31 C 580 27 585 24 593 22 C 595 21 598 20 601 20 C 603 19 605 18 605 17 C 605 16 605 15 605 13 C 605 11 604 10 604 10 L 601 0 L 471 0 L 474 9 C 476 14 479 17 483 18 C 487 18 492 19 496 21 C 502 23 507 26 511 30 C 515 34 518 40 520 49 L 536 113 L 334 113 L 340 143 L 623 415 L 663 415 L 595 139 Z M 540 139 L 592 349 L 373 139 L 540 139 Z" unicode="" />
<glyph horiz-adv-x="780" d="M 670 733 L 710 733 L 112 -10 L 71 -10 L 670 733 Z M 283 729 L 307 729 L 224 399 C 223 394 222 388 221 381 C 219 374 219 369 219 367 C 219 360 221 355 227 351 C 233 347 239 344 247 342 C 249 341 253 340 259 339 C 264 338 267 336 267 334 C 267 333 266 332 266 330 C 266 328 265 326 265 325 L 263 318 L 91 318 L 93 326 C 95 332 99 336 105 337 C 111 338 118 340 126 342 C 133 344 140 347 146 352 C 152 356 157 364 160 376 L 234 674 L 164 674 L 168 692 L 283 729 Z M 609 413 C 648 413 680 403 705 383 C 729 363 742 339 742 311 C 742 290 736 271 726 254 C 716 236 703 220 687 206 C 671 192 654 179 636 168 C 618 157 601 147 585 139 C 555 123 530 109 510 97 C 490 85 470 69 451 49 L 625 49 C 639 49 650 51 658 56 C 666 61 672 70 678 83 C 678 85 679 87 681 89 C 683 90 685 91 688 91 L 700 91 L 676 0 L 398 0 L 408 37 C 423 57 446 78 476 101 C 506 123 536 144 566 164 C 604 188 632 213 650 237 C 668 261 677 288 677 317 C 677 337 669 355 654 370 C 639 384 619 392 595 392 C 580 392 565 388 551 381 C 537 374 525 365 517 355 C 523 348 528 342 532 336 C 535 330 537 325 537 321 C 537 311 534 303 528 297 C 522 291 513 288 503 288 C 490 288 481 291 475 298 C 469 305 466 314 466 324 C 466 344 480 364 509 384 C 537 403 571 413 609 413 Z" unicode="" />
<glyph horiz-adv-x="787" d="M 275 734 C 312 734 343 725 369 707 C 395 689 408 669 408 645 C 408 619 397 597 376 580 C 354 562 327 551 295 545 L 294 541 C 322 532 345 519 363 501 C 381 483 390 462 390 440 C 390 405 373 375 340 351 C 307 327 266 315 218 315 C 177 315 145 323 121 340 C 97 356 85 377 85 402 C 85 410 88 417 95 424 C 102 431 111 435 122 435 C 134 435 142 431 148 425 C 154 418 157 411 157 405 C 157 399 155 394 152 388 C 148 382 144 377 140 371 C 148 360 158 352 170 347 C 182 341 197 339 214 339 C 234 339 252 342 266 350 C 280 357 292 366 300 377 C 308 388 314 400 318 414 C 322 427 324 440 324 452 C 324 476 315 495 297 509 C 279 523 248 530 204 532 L 209 555 C 260 555 295 563 315 579 C 334 595 344 618 344 649 C 344 665 336 680 322 693 C 308 705 288 712 264 712 C 253 712 242 710 232 707 C 221 704 212 700 204 696 C 208 689 211 683 213 678 C 215 672 217 667 217 662 C 217 655 213 649 207 644 C 201 639 193 637 185 637 C 175 637 166 639 159 645 C 152 650 149 658 149 670 C 149 680 152 689 160 697 C 167 705 177 711 189 717 C 201 722 214 726 229 729 C 244 732 259 734 275 734 Z M 735 733 L 775 733 L 177 -10 L 136 -10 L 735 733 Z M 660 139 L 728 139 L 722 113 L 654 113 L 644 71 C 642 64 641 58 640 54 C 639 49 639 45 639 43 C 639 38 640 34 643 31 C 645 27 650 24 658 22 C 660 21 663 20 666 20 C 668 19 670 18 670 17 C 670 16 670 15 670 13 C 670 11 669 10 669 10 L 666 0 L 536 0 L 539 9 C 541 14 544 17 548 18 C 552 18 557 19 561 21 C 567 23 572 26 576 30 C 580 34 583 40 585 49 L 601 113 L 399 113 L 405 143 L 688 415 L 728 415 L 660 139 Z M 605 139 L 657 349 L 438 139 L 605 139 Z" unicode="" />
<glyph horiz-adv-x="420" d="M 269 547 C 283 547 296 542 306 532 C 316 522 321 509 321 495 C 321 480 316 468 306 458 C 296 448 283 443 269 443 C 254 443 241 448 231 458 C 221 468 216 480 216 495 C 216 509 221 522 231 532 C 241 542 254 547 269 547 Z M 276 -43 C 289 -43 300 -47 310 -56 C 319 -64 324 -75 324 -88 C 324 -101 320 -114 312 -128 C 304 -141 292 -153 278 -164 C 263 -174 245 -183 224 -190 C 203 -196 180 -200 155 -200 C 132 -200 110 -197 89 -191 C 67 -185 48 -176 32 -165 C 16 -153 3 -139 -6 -122 C -16 -105 -21 -85 -21 -63 C -21 -26 -11 5 9 31 C 29 57 56 84 92 113 C 117 133 138 153 155 171 C 172 189 186 208 196 226 C 206 244 215 262 221 281 C 227 300 232 320 236 342 C 236 342 238 343 242 345 C 246 347 249 348 252 348 C 254 348 257 347 261 345 C 264 343 266 341 267 341 C 262 309 251 274 234 238 C 217 202 194 165 165 128 C 145 103 129 82 115 65 C 101 48 90 32 82 18 C 74 3 68 -11 64 -26 C 60 -41 58 -59 58 -79 C 58 -109 67 -133 86 -151 C 104 -169 129 -178 160 -178 C 178 -178 196 -174 216 -166 C 235 -158 250 -145 261 -129 C 249 -120 242 -112 239 -105 C 235 -98 234 -92 234 -88 C 234 -75 237 -64 245 -56 C 253 -47 263 -43 276 -43 Z" unicode="" />
<glyph horiz-adv-x="688" d="M 408 919 L 540 796 L 525 784 L 367 857 C 353 863 342 870 336 878 C 329 886 326 894 326 902 C 326 912 329 920 335 928 C 341 936 349 940 360 940 C 366 940 374 938 382 936 C 390 933 398 927 408 919 Z M 615 26 C 625 23 631 21 634 21 C 637 21 638 19 638 15 L 634 0 L 431 0 L 434 15 C 434 18 438 20 445 22 C 451 24 457 25 463 27 C 475 29 484 33 490 39 C 496 44 499 52 499 63 C 499 67 498 73 498 80 C 497 86 496 92 496 96 L 476 218 L 153 218 L 76 98 C 69 88 63 78 59 70 C 55 61 53 55 53 53 C 53 46 56 41 62 37 C 68 33 76 30 88 26 C 94 23 100 21 104 20 C 108 19 109 16 109 12 L 106 0 L -77 0 L -73 15 C -72 17 -69 19 -65 21 C -60 23 -55 24 -51 26 C -35 31 -22 40 -12 52 C -2 64 8 77 19 93 L 400 644 L 391 686 C 390 687 390 688 390 689 C 390 690 390 692 390 694 C 390 694 391 695 393 697 C 395 698 396 699 398 700 C 410 706 420 711 426 716 C 432 720 441 727 451 736 C 451 736 453 737 455 739 C 457 740 458 741 459 741 C 459 741 460 740 462 740 C 464 739 465 738 465 738 L 576 72 C 578 59 582 49 589 42 C 595 34 604 29 615 26 Z M 174 250 L 471 250 L 411 608 L 174 250 Z" unicode="" />
<glyph horiz-adv-x="688" d="M 531 940 C 542 940 550 936 556 928 C 561 920 564 912 564 902 C 564 893 559 885 551 878 C 543 870 532 864 519 858 L 356 784 L 342 796 L 483 918 C 493 926 502 932 510 935 C 518 938 525 940 531 940 Z M 615 26 C 625 23 631 21 634 21 C 637 21 638 19 638 15 L 634 0 L 431 0 L 434 15 C 434 18 438 20 445 22 C 451 24 457 25 463 27 C 475 29 484 33 490 39 C 496 44 499 52 499 63 C 499 67 498 73 498 80 C 497 86 496 92 496 96 L 476 218 L 153 218 L 76 98 C 69 88 63 78 59 70 C 55 61 53 55 53 53 C 53 46 56 41 62 37 C 68 33 76 30 88 26 C 94 23 100 21 104 20 C 108 19 109 16 109 12 L 106 0 L -77 0 L -73 15 C -72 17 -69 19 -65 21 C -60 23 -55 24 -51 26 C -35 31 -22 40 -12 52 C -2 64 8 77 19 93 L 400 644 L 391 686 C 390 687 390 688 390 689 C 390 690 390 692 390 694 C 390 694 391 695 393 697 C 395 698 396 699 398 700 C 410 706 420 711 426 716 C 432 720 441 727 451 736 C 451 736 453 737 455 739 C 457 740 458 741 459 741 C 459 741 460 740 462 740 C 464 739 465 738 465 738 L 576 72 C 578 59 582 49 589 42 C 595 34 604 29 615 26 Z M 174 250 L 471 250 L 411 608 L 174 250 Z" unicode="" />
<glyph horiz-adv-x="688" d="M 502 932 L 586 770 L 565 770 L 470 875 L 315 770 L 294 770 L 450 932 L 502 932 Z M 615 26 C 625 23 631 21 634 21 C 637 21 638 19 638 15 L 634 0 L 431 0 L 434 15 C 434 18 438 20 445 22 C 451 24 457 25 463 27 C 475 29 484 33 490 39 C 496 44 499 52 499 63 C 499 67 498 73 498 80 C 497 86 496 92 496 96 L 476 218 L 153 218 L 76 98 C 69 88 63 78 59 70 C 55 61 53 55 53 53 C 53 46 56 41 62 37 C 68 33 76 30 88 26 C 94 23 100 21 104 20 C 108 19 109 16 109 12 L 106 0 L -77 0 L -73 15 C -72 17 -69 19 -65 21 C -60 23 -55 24 -51 26 C -35 31 -22 40 -12 52 C -2 64 8 77 19 93 L 400 644 L 391 686 C 390 687 390 688 390 689 C 390 690 390 692 390 694 C 390 694 391 695 393 697 C 395 698 396 699 398 700 C 410 706 420 711 426 716 C 432 720 441 727 451 736 C 451 736 453 737 455 739 C 457 740 458 741 459 741 C 459 741 460 740 462 740 C 464 739 465 738 465 738 L 576 72 C 578 59 582 49 589 42 C 595 34 604 29 615 26 Z M 174 250 L 471 250 L 411 608 L 174 250 Z" unicode="" />
<glyph horiz-adv-x="688" d="M 589 913 L 611 913 C 605 883 592 857 572 836 C 552 815 530 805 506 805 C 494 805 484 806 477 810 C 470 814 459 820 445 830 C 432 838 421 844 411 849 C 401 853 391 856 381 856 C 366 856 353 850 343 838 C 332 826 324 813 320 799 L 298 799 C 304 828 317 853 337 874 C 357 894 379 905 404 905 C 418 905 430 903 438 899 C 446 895 455 889 466 882 C 480 873 491 866 501 861 C 510 856 519 854 529 854 C 543 854 556 860 567 872 C 577 884 585 898 589 913 Z M 615 26 C 625 23 631 21 634 21 C 637 21 638 19 638 15 L 634 0 L 431 0 L 434 15 C 434 18 438 20 445 22 C 451 24 457 25 463 27 C 475 29 484 33 490 39 C 496 44 499 52 499 63 C 499 67 498 73 498 80 C 497 86 496 92 496 96 L 476 218 L 153 218 L 76 98 C 69 88 63 78 59 70 C 55 61 53 55 53 53 C 53 46 56 41 62 37 C 68 33 76 30 88 26 C 94 23 100 21 104 20 C 108 19 109 16 109 12 L 106 0 L -77 0 L -73 15 C -72 17 -69 19 -65 21 C -60 23 -55 24 -51 26 C -35 31 -22 40 -12 52 C -2 64 8 77 19 93 L 400 644 L 391 686 C 390 687 390 688 390 689 C 390 690 390 692 390 694 C 390 694 391 695 393 697 C 395 698 396 699 398 700 C 410 706 420 711 426 716 C 432 720 441 727 451 736 C 451 736 453 737 455 739 C 457 740 458 741 459 741 C 459 741 460 740 462 740 C 464 739 465 738 465 738 L 576 72 C 578 59 582 49 589 42 C 595 34 604 29 615 26 Z M 174 250 L 471 250 L 411 608 L 174 250 Z" unicode="" />
<glyph horiz-adv-x="688" d="M 547 888 C 559 888 570 883 580 874 C 589 865 594 854 594 842 C 594 829 589 818 580 809 C 570 800 559 796 547 796 C 534 796 523 800 514 809 C 504 818 500 829 500 842 C 500 854 504 865 514 874 C 523 883 534 888 547 888 Z M 342 888 C 354 888 365 883 375 874 C 384 865 389 854 389 842 C 389 829 384 818 375 809 C 365 800 354 796 342 796 C 328 796 317 800 308 809 C 299 818 295 829 295 842 C 295 854 299 865 308 874 C 317 883 328 888 342 888 Z M 615 26 C 625 23 631 21 634 21 C 637 21 638 19 638 15 L 634 0 L 431 0 L 434 15 C 434 18 438 20 445 22 C 451 24 457 25 463 27 C 475 29 484 33 490 39 C 496 44 499 52 499 63 C 499 67 498 73 498 80 C 497 86 496 92 496 96 L 476 218 L 153 218 L 76 98 C 69 88 63 78 59 70 C 55 61 53 55 53 53 C 53 46 56 41 62 37 C 68 33 76 30 88 26 C 94 23 100 21 104 20 C 108 19 109 16 109 12 L 106 0 L -77 0 L -73 15 C -72 17 -69 19 -65 21 C -60 23 -55 24 -51 26 C -35 31 -22 40 -12 52 C -2 64 8 77 19 93 L 400 644 L 391 686 C 390 687 390 688 390 689 C 390 690 390 692 390 694 C 390 694 391 695 393 697 C 395 698 396 699 398 700 C 410 706 420 711 426 716 C 432 720 441 727 451 736 C 451 736 453 737 455 739 C 457 740 458 741 459 741 C 459 741 460 740 462 740 C 464 739 465 738 465 738 L 576 72 C 578 59 582 49 589 42 C 595 34 604 29 615 26 Z M 174 250 L 471 250 L 411 608 L 174 250 Z" unicode="" />
<glyph horiz-adv-x="688" d="M 463 962 C 489 962 511 954 527 940 C 543 925 552 906 552 883 C 552 854 541 828 519 806 C 497 783 469 772 437 772 C 410 772 388 779 371 795 C 354 810 346 829 346 852 C 346 881 357 907 380 929 C 402 951 430 962 463 962 Z M 439 793 C 459 793 476 801 489 819 C 501 836 508 859 508 888 C 508 905 503 918 495 927 C 487 936 475 941 461 941 C 439 941 422 932 409 915 C 396 898 390 875 390 847 C 390 829 394 815 402 806 C 410 797 423 793 439 793 Z M 615 26 C 625 23 631 21 634 21 C 637 21 638 19 638 15 L 634 0 L 431 0 L 434 15 C 434 18 438 20 445 22 C 451 24 457 25 463 27 C 475 29 484 33 490 39 C 496 44 499 52 499 63 C 499 67 498 73 498 80 C 497 86 496 92 496 96 L 476 218 L 153 218 L 76 98 C 69 88 63 78 59 70 C 55 61 53 55 53 53 C 53 46 56 41 62 37 C 68 33 76 30 88 26 C 94 23 100 21 104 20 C 108 19 109 16 109 12 L 106 0 L -77 0 L -73 15 C -72 17 -69 19 -65 21 C -60 23 -55 24 -51 26 C -35 31 -22 40 -12 52 C -2 64 8 77 19 93 L 400 644 L 391 686 C 390 687 390 688 390 689 C 390 690 390 692 390 694 C 390 694 391 695 393 697 C 395 698 396 699 398 700 C 410 706 420 711 426 716 C 432 720 441 727 451 736 C 451 736 453 737 455 739 C 457 740 458 741 459 741 C 459 741 460 740 462 740 C 464 739 465 738 465 738 L 576 72 C 578 59 582 49 589 42 C 595 34 604 29 615 26 Z M 174 250 L 471 250 L 411 608 L 174 250 Z" unicode="" />
<glyph horiz-adv-x="963" d="M 915 730 C 927 730 942 731 960 733 C 978 735 992 736 1004 738 L 972 609 L 956 609 C 950 609 946 610 944 612 C 942 614 940 616 940 620 C 938 636 935 650 933 661 C 931 671 927 679 922 685 C 916 691 908 695 898 697 C 887 699 873 701 855 701 L 657 701 L 576 384 L 701 384 C 721 384 736 388 745 398 C 754 407 763 418 773 432 C 777 438 781 442 785 445 C 789 447 794 449 802 449 L 812 449 L 771 283 L 756 283 C 751 283 747 284 745 287 C 743 290 741 294 741 299 C 738 319 734 334 729 342 C 723 350 712 354 696 354 L 569 354 L 487 29 L 746 29 C 775 29 799 37 817 54 C 835 71 855 96 876 129 C 878 131 880 135 883 140 C 885 144 889 147 895 147 L 911 147 L 874 0 L 346 0 L 349 14 C 349 17 351 19 355 20 C 359 21 366 23 376 26 C 389 29 399 33 405 39 C 411 45 415 54 419 67 L 492 354 L 265 354 L 80 98 C 74 90 69 81 63 71 C 57 61 54 55 54 53 C 53 46 56 41 62 37 C 68 33 76 30 87 26 C 93 23 98 21 102 20 C 106 19 107 16 107 12 L 104 0 L -80 0 L -76 15 C -75 17 -72 19 -67 21 C -62 23 -57 24 -53 26 C -36 31 -22 39 -12 51 C -1 63 10 77 22 93 L 423 633 C 431 643 438 653 443 661 C 448 669 451 674 451 677 C 451 681 448 685 442 689 C 436 693 427 697 416 701 C 409 703 404 705 400 706 C 396 707 395 710 396 715 L 400 730 L 915 730 Z M 556 609 C 558 620 561 631 563 642 C 565 652 566 661 566 667 C 566 674 564 682 562 690 C 559 698 552 702 542 702 C 530 702 518 694 504 679 C 490 663 480 650 472 639 L 287 384 L 498 384 L 556 609 Z" unicode="" />
<glyph horiz-adv-x="631" d="M 660 697 L 674 697 L 635 538 L 613 538 C 611 538 609 538 609 539 C 608 540 608 541 608 543 C 602 593 584 633 554 665 C 524 696 483 712 429 712 C 388 712 349 701 313 679 C 277 657 245 626 219 588 C 193 550 172 505 156 453 C 140 401 133 345 133 285 C 133 243 138 205 149 173 C 160 140 175 113 194 91 C 213 69 235 52 261 40 C 287 28 314 23 343 23 C 374 23 403 27 429 36 C 455 44 477 54 497 66 C 517 78 533 90 547 102 C 561 114 571 125 578 133 L 594 112 C 585 100 573 88 558 74 C 543 60 525 47 505 35 C 484 23 460 12 434 4 C 408 -4 379 -9 348 -11 L 324 -53 C 354 -53 375 -58 389 -68 C 402 -78 409 -92 409 -111 C 409 -132 399 -151 380 -169 C 360 -187 331 -196 293 -196 C 273 -196 254 -191 237 -182 C 219 -172 205 -162 195 -152 L 209 -134 C 219 -142 232 -150 248 -157 C 263 -164 278 -168 293 -168 C 317 -168 333 -162 340 -150 C 347 -138 351 -127 351 -117 C 351 -107 346 -98 338 -90 C 329 -82 315 -79 295 -79 L 283 -79 L 322 -11 C 276 -9 235 0 201 16 C 167 33 138 56 116 84 C 94 112 77 146 66 184 C 55 222 50 262 50 306 C 50 370 60 428 81 482 C 102 535 130 581 164 619 C 198 657 237 687 281 709 C 325 730 370 741 416 741 C 464 741 501 736 527 726 C 553 716 578 705 603 691 C 607 689 611 687 615 685 C 619 683 623 682 628 682 C 630 682 632 682 634 683 C 636 684 638 685 641 687 C 647 691 650 693 651 695 C 652 696 655 697 660 697 Z" unicode="" />
<glyph horiz-adv-x="591" d="M 385 919 L 517 796 L 502 784 L 344 857 C 330 863 319 870 313 878 C 306 886 303 894 303 902 C 303 912 306 920 312 928 C 318 936 326 940 337 940 C 343 940 351 938 359 936 C 367 933 375 927 385 919 Z M 543 730 C 555 730 570 731 588 733 C 606 735 620 736 632 738 L 600 609 L 584 609 C 578 609 574 610 572 612 C 570 614 568 616 568 620 C 566 636 563 650 561 661 C 559 671 555 679 550 685 C 544 691 536 695 526 697 C 515 699 501 701 483 701 L 281 701 L 201 389 L 330 389 C 350 389 365 393 374 403 C 383 412 392 423 402 437 C 406 443 410 447 414 450 C 418 452 423 454 431 454 L 441 454 L 400 288 L 385 288 C 380 288 376 289 374 292 C 372 295 370 299 370 304 C 367 324 363 339 358 347 C 352 355 341 359 325 359 L 194 359 L 111 29 L 374 29 C 403 29 427 37 445 54 C 463 71 483 96 504 129 C 506 131 508 135 511 140 C 513 144 517 147 523 147 L 539 147 L 502 0 L -30 0 L -27 14 C -26 17 -24 19 -20 20 C -16 21 -10 23 0 26 C 13 29 23 33 29 39 C 35 45 39 54 43 67 L 188 643 C 189 648 190 654 192 661 C 193 667 194 671 194 673 C 194 681 191 687 187 692 C 182 696 173 700 160 704 C 154 705 148 706 144 707 C 140 708 138 710 138 713 C 138 714 138 715 138 717 C 138 719 139 721 140 723 L 142 730 L 543 730 Z" unicode="" />
<glyph horiz-adv-x="591" d="M 520 940 C 531 940 539 936 545 928 C 550 920 553 912 553 902 C 553 893 548 885 540 878 C 532 870 521 864 508 858 L 345 784 L 331 796 L 472 918 C 482 926 491 932 499 935 C 507 938 514 940 520 940 Z M 543 730 C 555 730 570 731 588 733 C 606 735 620 736 632 738 L 600 609 L 584 609 C 578 609 574 610 572 612 C 570 614 568 616 568 620 C 566 636 563 650 561 661 C 559 671 555 679 550 685 C 544 691 536 695 526 697 C 515 699 501 701 483 701 L 281 701 L 201 389 L 330 389 C 350 389 365 393 374 403 C 383 412 392 423 402 437 C 406 443 410 447 414 450 C 418 452 423 454 431 454 L 441 454 L 400 288 L 385 288 C 380 288 376 289 374 292 C 372 295 370 299 370 304 C 367 324 363 339 358 347 C 352 355 341 359 325 359 L 194 359 L 111 29 L 374 29 C 403 29 427 37 445 54 C 463 71 483 96 504 129 C 506 131 508 135 511 140 C 513 144 517 147 523 147 L 539 147 L 502 0 L -30 0 L -27 14 C -26 17 -24 19 -20 20 C -16 21 -10 23 0 26 C 13 29 23 33 29 39 C 35 45 39 54 43 67 L 188 643 C 189 648 190 654 192 661 C 193 667 194 671 194 673 C 194 681 191 687 187 692 C 182 696 173 700 160 704 C 154 705 148 706 144 707 C 140 708 138 710 138 713 C 138 714 138 715 138 717 C 138 719 139 721 140 723 L 142 730 L 543 730 Z" unicode="" />
<glyph horiz-adv-x="591" d="M 465 938 L 549 776 L 528 776 L 433 881 L 278 776 L 257 776 L 413 938 L 465 938 Z M 543 730 C 555 730 570 731 588 733 C 606 735 620 736 632 738 L 600 609 L 584 609 C 578 609 574 610 572 612 C 570 614 568 616 568 620 C 566 636 563 650 561 661 C 559 671 555 679 550 685 C 544 691 536 695 526 697 C 515 699 501 701 483 701 L 281 701 L 201 389 L 330 389 C 350 389 365 393 374 403 C 383 412 392 423 402 437 C 406 443 410 447 414 450 C 418 452 423 454 431 454 L 441 454 L 400 288 L 385 288 C 380 288 376 289 374 292 C 372 295 370 299 370 304 C 367 324 363 339 358 347 C 352 355 341 359 325 359 L 194 359 L 111 29 L 374 29 C 403 29 427 37 445 54 C 463 71 483 96 504 129 C 506 131 508 135 511 140 C 513 144 517 147 523 147 L 539 147 L 502 0 L -30 0 L -27 14 C -26 17 -24 19 -20 20 C -16 21 -10 23 0 26 C 13 29 23 33 29 39 C 35 45 39 54 43 67 L 188 643 C 189 648 190 654 192 661 C 193 667 194 671 194 673 C 194 681 191 687 187 692 C 182 696 173 700 160 704 C 154 705 148 706 144 707 C 140 708 138 710 138 713 C 138 714 138 715 138 717 C 138 719 139 721 140 723 L 142 730 L 543 730 Z" unicode="" />
<glyph horiz-adv-x="591" d="M 520 894 C 532 894 543 889 553 880 C 562 871 567 860 567 848 C 567 835 562 824 553 815 C 543 806 532 802 520 802 C 507 802 496 806 487 815 C 477 824 473 835 473 848 C 473 860 477 871 487 880 C 496 889 507 894 520 894 Z M 313 894 C 325 894 336 889 346 880 C 355 871 360 860 360 848 C 360 835 355 824 346 815 C 336 806 325 802 313 802 C 299 802 288 806 279 815 C 270 824 266 835 266 848 C 266 860 270 871 279 880 C 288 889 299 894 313 894 Z M 543 730 C 555 730 570 731 588 733 C 606 735 620 736 632 738 L 600 609 L 584 609 C 578 609 574 610 572 612 C 570 614 568 616 568 620 C 566 636 563 650 561 661 C 559 671 555 679 550 685 C 544 691 536 695 526 697 C 515 699 501 701 483 701 L 281 701 L 201 389 L 330 389 C 350 389 365 393 374 403 C 383 412 392 423 402 437 C 406 443 410 447 414 450 C 418 452 423 454 431 454 L 441 454 L 400 288 L 385 288 C 380 288 376 289 374 292 C 372 295 370 299 370 304 C 367 324 363 339 358 347 C 352 355 341 359 325 359 L 194 359 L 111 29 L 374 29 C 403 29 427 37 445 54 C 463 71 483 96 504 129 C 506 131 508 135 511 140 C 513 144 517 147 523 147 L 539 147 L 502 0 L -30 0 L -27 14 C -26 17 -24 19 -20 20 C -16 21 -10 23 0 26 C 13 29 23 33 29 39 C 35 45 39 54 43 67 L 188 643 C 189 648 190 654 192 661 C 193 667 194 671 194 673 C 194 681 191 687 187 692 C 182 696 173 700 160 704 C 154 705 148 706 144 707 C 140 708 138 710 138 713 C 138 714 138 715 138 717 C 138 719 139 721 140 723 L 142 730 L 543 730 Z" unicode="" />
<glyph horiz-adv-x="284" d="M 242 919 L 374 796 L 359 784 L 201 857 C 187 863 176 870 170 878 C 163 886 160 894 160 902 C 160 912 163 920 169 928 C 175 936 183 940 194 940 C 200 940 208 938 216 936 C 224 933 232 927 242 919 Z M 148 730 L 350 730 L 347 716 C 346 712 344 710 340 709 C 336 708 330 706 320 704 C 306 700 297 696 291 690 C 285 684 280 675 277 663 L 132 87 C 130 81 129 74 128 68 C 126 62 126 58 126 57 C 126 48 128 41 133 37 C 137 33 146 29 160 26 C 166 24 171 23 175 22 C 179 21 182 19 182 17 C 182 15 181 14 181 12 C 181 10 180 9 180 7 L 178 0 L -24 0 L -21 14 C -20 17 -18 19 -14 20 C -10 21 -4 23 6 26 C 19 29 29 33 35 39 C 41 45 45 54 49 67 L 194 644 C 195 649 196 655 198 661 C 199 667 200 671 200 673 C 200 681 197 687 193 692 C 188 696 179 700 166 704 C 160 705 154 706 150 707 C 146 708 144 710 144 713 C 144 714 144 715 144 717 C 144 719 145 721 146 723 L 148 730 Z" unicode="" />
<glyph horiz-adv-x="284" d="M 349 940 C 360 940 368 936 374 928 C 379 920 382 912 382 902 C 382 893 377 885 369 878 C 361 870 350 864 337 858 L 174 784 L 160 796 L 301 918 C 311 926 320 932 328 935 C 336 938 343 940 349 940 Z M 148 730 L 350 730 L 347 716 C 346 712 344 710 340 709 C 336 708 330 706 320 704 C 306 700 297 696 291 690 C 285 684 280 675 277 663 L 132 87 C 130 81 129 74 128 68 C 126 62 126 58 126 57 C 126 48 128 41 133 37 C 137 33 146 29 160 26 C 166 24 171 23 175 22 C 179 21 182 19 182 17 C 182 15 181 14 181 12 C 181 10 180 9 180 7 L 178 0 L -24 0 L -21 14 C -20 17 -18 19 -14 20 C -10 21 -4 23 6 26 C 19 29 29 33 35 39 C 41 45 45 54 49 67 L 194 644 C 195 649 196 655 198 661 C 199 667 200 671 200 673 C 200 681 197 687 193 692 C 188 696 179 700 166 704 C 160 705 154 706 150 707 C 146 708 144 710 144 713 C 144 714 144 715 144 717 C 144 719 145 721 146 723 L 148 730 Z" unicode="" />
<glyph horiz-adv-x="284" d="M 314 938 L 398 776 L 377 776 L 282 881 L 127 776 L 106 776 L 262 938 L 314 938 Z M 148 730 L 350 730 L 347 716 C 346 712 344 710 340 709 C 336 708 330 706 320 704 C 306 700 297 696 291 690 C 285 684 280 675 277 663 L 132 87 C 130 81 129 74 128 68 C 126 62 126 58 126 57 C 126 48 128 41 133 37 C 137 33 146 29 160 26 C 166 24 171 23 175 22 C 179 21 182 19 182 17 C 182 15 181 14 181 12 C 181 10 180 9 180 7 L 178 0 L -24 0 L -21 14 C -20 17 -18 19 -14 20 C -10 21 -4 23 6 26 C 19 29 29 33 35 39 C 41 45 45 54 49 67 L 194 644 C 195 649 196 655 198 661 C 199 667 200 671 200 673 C 200 681 197 687 193 692 C 188 696 179 700 166 704 C 160 705 154 706 150 707 C 146 708 144 710 144 713 C 144 714 144 715 144 717 C 144 719 145 721 146 723 L 148 730 Z" unicode="" />
<glyph horiz-adv-x="284" d="M 363 894 C 375 894 386 889 396 880 C 405 871 410 860 410 848 C 410 835 405 824 396 815 C 386 806 375 802 363 802 C 350 802 339 806 330 815 C 320 824 316 835 316 848 C 316 860 320 871 330 880 C 339 889 350 894 363 894 Z M 167 894 C 179 894 190 889 200 880 C 209 871 214 860 214 848 C 214 835 209 824 200 815 C 190 806 179 802 167 802 C 153 802 142 806 133 815 C 124 824 120 835 120 848 C 120 860 124 871 133 880 C 142 889 153 894 167 894 Z M 148 730 L 350 730 L 347 716 C 346 712 344 710 340 709 C 336 708 330 706 320 704 C 306 700 297 696 291 690 C 285 684 280 675 277 663 L 132 87 C 130 81 129 74 128 68 C 126 62 126 58 126 57 C 126 48 128 41 133 37 C 137 33 146 29 160 26 C 166 24 171 23 175 22 C 179 21 182 19 182 17 C 182 15 181 14 181 12 C 181 10 180 9 180 7 L 178 0 L -24 0 L -21 14 C -20 17 -18 19 -14 20 C -10 21 -4 23 6 26 C 19 29 29 33 35 39 C 41 45 45 54 49 67 L 194 644 C 195 649 196 655 198 661 C 199 667 200 671 200 673 C 200 681 197 687 193 692 C 188 696 179 700 166 704 C 160 705 154 706 150 707 C 146 708 144 710 144 713 C 144 714 144 715 144 717 C 144 719 145 721 146 723 L 148 730 Z" unicode="" />
<glyph horiz-adv-x="725" d="M 634 916 L 656 916 C 650 886 637 860 617 839 C 597 818 575 808 551 808 C 539 808 529 809 522 813 C 515 817 504 823 490 833 C 477 841 466 847 456 852 C 446 856 436 859 426 859 C 411 859 398 853 388 841 C 377 829 369 816 365 802 L 343 802 C 349 831 362 856 382 877 C 402 897 424 908 449 908 C 463 908 475 906 483 902 C 491 898 500 892 511 885 C 525 876 536 869 546 864 C 555 859 564 857 574 857 C 588 857 601 863 612 875 C 622 887 630 901 634 916 Z M 633 730 L 801 730 L 796 713 C 795 709 792 706 786 704 C 780 702 773 698 763 692 C 748 683 738 674 732 666 C 726 658 721 647 719 635 L 560 -4 L 536 -4 L 234 670 L 98 120 C 96 112 94 104 93 97 C 92 89 92 84 92 82 C 92 73 93 65 97 58 C 101 50 108 43 120 36 C 126 31 132 27 136 25 C 140 23 142 21 142 19 C 142 17 141 15 141 13 C 140 11 139 9 139 7 L 137 0 L -32 0 L -27 17 C -26 21 -23 24 -17 26 C -11 28 -3 32 7 38 C 21 46 32 55 38 65 C 44 75 48 86 51 98 L 188 644 C 188 646 189 651 191 659 C 193 667 194 671 194 673 C 194 681 191 687 187 692 C 182 696 173 700 160 704 C 154 705 148 706 144 707 C 140 708 138 710 138 713 C 138 714 138 715 138 717 C 138 719 139 721 140 723 L 142 730 L 287 730 L 554 135 L 672 613 C 674 621 675 628 676 635 C 677 641 678 646 678 648 C 678 656 676 664 672 671 C 668 677 661 685 650 694 C 643 698 638 702 634 704 C 630 706 628 709 628 711 C 628 712 628 714 629 717 C 629 719 630 722 631 724 L 633 730 Z" unicode="" />
<glyph horiz-adv-x="735" d="M 443 919 L 575 796 L 560 784 L 402 857 C 388 863 377 870 371 878 C 364 886 361 894 361 902 C 361 912 364 920 370 928 C 376 936 384 940 395 940 C 401 940 409 938 417 936 C 425 933 433 927 443 919 Z M 446 741 C 488 741 526 733 561 718 C 595 702 625 681 649 654 C 673 627 692 595 706 558 C 719 520 726 480 726 437 C 726 379 716 324 697 270 C 678 216 651 168 617 127 C 583 85 541 52 492 27 C 443 1 389 -11 331 -11 C 289 -11 250 -3 215 11 C 180 26 150 47 126 74 C 102 101 83 133 70 171 C 56 208 50 249 50 293 C 50 349 59 405 78 459 C 97 513 124 560 158 602 C 192 644 234 677 283 703 C 332 728 386 741 446 741 Z M 334 16 C 380 16 422 28 460 54 C 498 80 530 114 557 156 C 584 198 605 246 620 301 C 635 356 643 413 643 471 C 643 548 625 608 589 650 C 553 692 505 713 443 713 C 395 713 351 699 313 673 C 275 646 242 611 216 569 C 189 526 168 478 154 424 C 140 370 133 316 133 262 C 133 184 150 124 186 81 C 221 37 270 16 334 16 Z" unicode="" />
<glyph horiz-adv-x="735" d="M 546 940 C 557 940 565 936 571 928 C 576 920 579 912 579 902 C 579 893 574 885 566 878 C 558 870 547 864 534 858 L 371 784 L 357 796 L 498 918 C 508 926 517 932 525 935 C 533 938 540 940 546 940 Z M 446 741 C 488 741 526 733 561 718 C 595 702 625 681 649 654 C 673 627 692 595 706 558 C 719 520 726 480 726 437 C 726 379 716 324 697 270 C 678 216 651 168 617 127 C 583 85 541 52 492 27 C 443 1 389 -11 331 -11 C 289 -11 250 -3 215 11 C 180 26 150 47 126 74 C 102 101 83 133 70 171 C 56 208 50 249 50 293 C 50 349 59 405 78 459 C 97 513 124 560 158 602 C 192 644 234 677 283 703 C 332 728 386 741 446 741 Z M 334 16 C 380 16 422 28 460 54 C 498 80 530 114 557 156 C 584 198 605 246 620 301 C 635 356 643 413 643 471 C 643 548 625 608 589 650 C 553 692 505 713 443 713 C 395 713 351 699 313 673 C 275 646 242 611 216 569 C 189 526 168 478 154 424 C 140 370 133 316 133 262 C 133 184 150 124 186 81 C 221 37 270 16 334 16 Z" unicode="" />
<glyph horiz-adv-x="735" d="M 519 938 L 603 776 L 582 776 L 487 881 L 332 776 L 311 776 L 467 938 L 519 938 Z M 446 741 C 488 741 526 733 561 718 C 595 702 625 681 649 654 C 673 627 692 595 706 558 C 719 520 726 480 726 437 C 726 379 716 324 697 270 C 678 216 651 168 617 127 C 583 85 541 52 492 27 C 443 1 389 -11 331 -11 C 289 -11 250 -3 215 11 C 180 26 150 47 126 74 C 102 101 83 133 70 171 C 56 208 50 249 50 293 C 50 349 59 405 78 459 C 97 513 124 560 158 602 C 192 644 234 677 283 703 C 332 728 386 741 446 741 Z M 334 16 C 380 16 422 28 460 54 C 498 80 530 114 557 156 C 584 198 605 246 620 301 C 635 356 643 413 643 471 C 643 548 625 608 589 650 C 553 692 505 713 443 713 C 395 713 351 699 313 673 C 275 646 242 611 216 569 C 189 526 168 478 154 424 C 140 370 133 316 133 262 C 133 184 150 124 186 81 C 221 37 270 16 334 16 Z" unicode="" />
<glyph horiz-adv-x="735" d="M 610 916 L 632 916 C 626 886 613 860 593 839 C 573 818 551 808 527 808 C 515 808 505 809 498 813 C 491 817 480 823 466 833 C 453 841 442 847 432 852 C 422 856 412 859 402 859 C 387 859 374 853 364 841 C 353 829 345 816 341 802 L 319 802 C 325 831 338 856 358 877 C 378 897 400 908 425 908 C 439 908 451 906 459 902 C 467 898 476 892 487 885 C 501 876 512 869 522 864 C 531 859 540 857 550 857 C 564 857 577 863 588 875 C 598 887 606 901 610 916 Z M 446 741 C 488 741 526 733 561 718 C 595 702 625 681 649 654 C 673 627 692 595 706 558 C 719 520 726 480 726 437 C 726 379 716 324 697 270 C 678 216 651 168 617 127 C 583 85 541 52 492 27 C 443 1 389 -11 331 -11 C 289 -11 250 -3 215 11 C 180 26 150 47 126 74 C 102 101 83 133 70 171 C 56 208 50 249 50 293 C 50 349 59 405 78 459 C 97 513 124 560 158 602 C 192 644 234 677 283 703 C 332 728 386 741 446 741 Z M 334 16 C 380 16 422 28 460 54 C 498 80 530 114 557 156 C 584 198 605 246 620 301 C 635 356 643 413 643 471 C 643 548 625 608 589 650 C 553 692 505 713 443 713 C 395 713 351 699 313 673 C 275 646 242 611 216 569 C 189 526 168 478 154 424 C 140 370 133 316 133 262 C 133 184 150 124 186 81 C 221 37 270 16 334 16 Z" unicode="" />
<glyph horiz-adv-x="735" d="M 576 894 C 588 894 599 889 609 880 C 618 871 623 860 623 848 C 623 835 618 824 609 815 C 599 806 588 802 576 802 C 563 802 552 806 543 815 C 533 824 529 835 529 848 C 529 860 533 871 543 880 C 552 889 563 894 576 894 Z M 369 894 C 381 894 392 889 402 880 C 411 871 416 860 416 848 C 416 835 411 824 402 815 C 392 806 381 802 369 802 C 355 802 344 806 335 815 C 326 824 322 835 322 848 C 322 860 326 871 335 880 C 344 889 355 894 369 894 Z M 446 741 C 488 741 526 733 561 718 C 595 702 625 681 649 654 C 673 627 692 595 706 558 C 719 520 726 480 726 437 C 726 379 716 324 697 270 C 678 216 651 168 617 127 C 583 85 541 52 492 27 C 443 1 389 -11 331 -11 C 289 -11 250 -3 215 11 C 180 26 150 47 126 74 C 102 101 83 133 70 171 C 56 208 50 249 50 293 C 50 349 59 405 78 459 C 97 513 124 560 158 602 C 192 644 234 677 283 703 C 332 728 386 741 446 741 Z M 334 16 C 380 16 422 28 460 54 C 498 80 530 114 557 156 C 584 198 605 246 620 301 C 635 356 643 413 643 471 C 643 548 625 608 589 650 C 553 692 505 713 443 713 C 395 713 351 699 313 673 C 275 646 242 611 216 569 C 189 526 168 478 154 424 C 140 370 133 316 133 262 C 133 184 150 124 186 81 C 221 37 270 16 334 16 Z" unicode="" />
<glyph horiz-adv-x="754" d="M 422 294 L 619 101 L 591 74 L 395 266 L 197 74 L 168 101 L 367 294 L 168 484 L 196 511 L 395 321 L 591 512 L 619 484 L 422 294 Z" unicode="" />
<glyph horiz-adv-x="735" d="M 636 666 C 664 638 686 605 702 565 C 718 525 726 483 726 437 C 726 379 716 324 697 270 C 678 216 651 168 617 127 C 583 85 541 52 492 27 C 443 1 389 -11 331 -11 C 299 -11 270 -6 242 3 C 214 12 188 25 166 42 L 106 -37 L 64 -37 L 140 63 C 112 90 90 123 74 163 C 58 202 50 245 50 293 C 50 349 59 405 78 459 C 97 513 124 560 158 602 C 192 644 234 677 283 703 C 332 728 386 741 446 741 C 477 741 506 736 534 727 C 562 717 587 704 610 688 L 663 757 L 705 757 L 636 666 Z M 169 101 L 586 656 C 569 674 548 688 524 698 C 500 708 473 713 443 713 C 395 713 351 699 313 673 C 275 646 242 611 215 569 C 188 526 167 478 153 424 C 139 370 132 316 132 262 C 132 229 135 199 141 172 C 147 144 157 121 169 101 Z M 334 16 C 380 16 422 28 460 54 C 498 80 531 114 558 156 C 585 198 606 246 621 301 C 636 356 644 413 644 471 C 644 503 640 533 634 560 C 628 586 619 609 607 629 L 190 74 C 207 55 228 41 252 31 C 276 21 303 16 334 16 Z" unicode="" />
<glyph horiz-adv-x="718" d="M 451 919 L 583 796 L 568 784 L 410 857 C 396 863 385 870 379 878 C 372 886 369 894 369 902 C 369 912 372 920 378 928 C 384 936 392 940 403 940 C 409 940 417 938 425 936 C 433 933 441 927 451 919 Z M 633 730 L 803 730 L 798 714 C 797 710 794 707 788 705 C 782 703 775 699 765 693 C 750 684 740 676 734 668 C 728 660 724 650 721 638 L 625 253 C 616 217 603 182 587 150 C 570 118 549 90 525 66 C 500 42 470 24 436 10 C 402 -4 363 -11 319 -11 C 237 -11 176 7 135 43 C 94 79 74 125 74 180 C 74 190 75 203 77 217 C 79 231 82 244 85 255 L 182 644 C 182 646 183 651 185 659 C 186 667 187 671 187 673 C 187 681 184 687 180 692 C 176 696 167 700 154 704 C 148 705 142 706 138 707 C 134 708 132 710 132 713 C 132 714 132 715 132 717 C 132 719 133 721 134 723 L 136 730 L 338 730 L 335 716 C 334 712 332 710 328 709 C 324 708 318 706 308 704 C 294 700 285 696 279 691 C 273 685 268 676 265 664 L 165 264 C 162 253 160 241 158 229 C 156 216 156 205 156 195 C 156 149 172 111 206 81 C 240 51 283 37 337 37 C 408 37 464 59 504 104 C 544 148 572 206 590 277 L 673 613 C 675 621 676 628 677 635 C 677 641 678 646 678 648 C 678 658 676 666 673 673 C 670 680 663 687 651 695 C 643 699 638 703 634 705 C 630 707 629 710 629 713 C 629 714 629 715 629 717 C 629 718 630 720 631 723 L 633 730 Z" unicode="" />
<glyph horiz-adv-x="718" d="M 575 940 C 586 940 594 936 600 928 C 605 920 608 912 608 902 C 608 893 603 885 595 878 C 587 870 576 864 563 858 L 400 784 L 386 796 L 527 918 C 537 926 546 932 554 935 C 562 938 569 940 575 940 Z M 633 730 L 803 730 L 798 714 C 797 710 794 707 788 705 C 782 703 775 699 765 693 C 750 684 740 676 734 668 C 728 660 724 650 721 638 L 625 253 C 616 217 603 182 587 150 C 570 118 549 90 525 66 C 500 42 470 24 436 10 C 402 -4 363 -11 319 -11 C 237 -11 176 7 135 43 C 94 79 74 125 74 180 C 74 190 75 203 77 217 C 79 231 82 244 85 255 L 182 644 C 182 646 183 651 185 659 C 186 667 187 671 187 673 C 187 681 184 687 180 692 C 176 696 167 700 154 704 C 148 705 142 706 138 707 C 134 708 132 710 132 713 C 132 714 132 715 132 717 C 132 719 133 721 134 723 L 136 730 L 338 730 L 335 716 C 334 712 332 710 328 709 C 324 708 318 706 308 704 C 294 700 285 696 279 691 C 273 685 268 676 265 664 L 165 264 C 162 253 160 241 158 229 C 156 216 156 205 156 195 C 156 149 172 111 206 81 C 240 51 283 37 337 37 C 408 37 464 59 504 104 C 544 148 572 206 590 277 L 673 613 C 675 621 676 628 677 635 C 677 641 678 646 678 648 C 678 658 676 666 673 673 C 670 680 663 687 651 695 C 643 699 638 703 634 705 C 630 707 629 710 629 713 C 629 714 629 715 629 717 C 629 718 630 720 631 723 L 633 730 Z" unicode="" />
<glyph horiz-adv-x="718" d="M 538 938 L 622 776 L 601 776 L 506 881 L 351 776 L 330 776 L 486 938 L 538 938 Z M 633 730 L 803 730 L 798 714 C 797 710 794 707 788 705 C 782 703 775 699 765 693 C 750 684 740 676 734 668 C 728 660 724 650 721 638 L 625 253 C 616 217 603 182 587 150 C 570 118 549 90 525 66 C 500 42 470 24 436 10 C 402 -4 363 -11 319 -11 C 237 -11 176 7 135 43 C 94 79 74 125 74 180 C 74 190 75 203 77 217 C 79 231 82 244 85 255 L 182 644 C 182 646 183 651 185 659 C 186 667 187 671 187 673 C 187 681 184 687 180 692 C 176 696 167 700 154 704 C 148 705 142 706 138 707 C 134 708 132 710 132 713 C 132 714 132 715 132 717 C 132 719 133 721 134 723 L 136 730 L 338 730 L 335 716 C 334 712 332 710 328 709 C 324 708 318 706 308 704 C 294 700 285 696 279 691 C 273 685 268 676 265 664 L 165 264 C 162 253 160 241 158 229 C 156 216 156 205 156 195 C 156 149 172 111 206 81 C 240 51 283 37 337 37 C 408 37 464 59 504 104 C 544 148 572 206 590 277 L 673 613 C 675 621 676 628 677 635 C 677 641 678 646 678 648 C 678 658 676 666 673 673 C 670 680 663 687 651 695 C 643 699 638 703 634 705 C 630 707 629 710 629 713 C 629 714 629 715 629 717 C 629 718 630 720 631 723 L 633 730 Z" unicode="" />
<glyph horiz-adv-x="718" d="M 595 894 C 607 894 618 889 628 880 C 637 871 642 860 642 848 C 642 835 637 824 628 815 C 618 806 607 802 595 802 C 582 802 571 806 562 815 C 552 824 548 835 548 848 C 548 860 552 871 562 880 C 571 889 582 894 595 894 Z M 388 894 C 400 894 411 889 421 880 C 430 871 435 860 435 848 C 435 835 430 824 421 815 C 411 806 400 802 388 802 C 374 802 363 806 354 815 C 345 824 341 835 341 848 C 341 860 345 871 354 880 C 363 889 374 894 388 894 Z M 633 730 L 803 730 L 798 714 C 797 710 794 707 788 705 C 782 703 775 699 765 693 C 750 684 740 676 734 668 C 728 660 724 650 721 638 L 625 253 C 616 217 603 182 587 150 C 570 118 549 90 525 66 C 500 42 470 24 436 10 C 402 -4 363 -11 319 -11 C 237 -11 176 7 135 43 C 94 79 74 125 74 180 C 74 190 75 203 77 217 C 79 231 82 244 85 255 L 182 644 C 182 646 183 651 185 659 C 186 667 187 671 187 673 C 187 681 184 687 180 692 C 176 696 167 700 154 704 C 148 705 142 706 138 707 C 134 708 132 710 132 713 C 132 714 132 715 132 717 C 132 719 133 721 134 723 L 136 730 L 338 730 L 335 716 C 334 712 332 710 328 709 C 324 708 318 706 308 704 C 294 700 285 696 279 691 C 273 685 268 676 265 664 L 165 264 C 162 253 160 241 158 229 C 156 216 156 205 156 195 C 156 149 172 111 206 81 C 240 51 283 37 337 37 C 408 37 464 59 504 104 C 544 148 572 206 590 277 L 673 613 C 675 621 676 628 677 635 C 677 641 678 646 678 648 C 678 658 676 666 673 673 C 670 680 663 687 651 695 C 643 699 638 703 634 705 C 630 707 629 710 629 713 C 629 714 629 715 629 717 C 629 718 630 720 631 723 L 633 730 Z" unicode="" />
<glyph horiz-adv-x="622" d="M 554 940 C 565 940 573 936 579 928 C 584 920 587 912 587 902 C 587 893 582 885 574 878 C 566 870 555 864 542 858 L 379 784 L 365 796 L 506 918 C 516 926 525 932 533 935 C 541 938 548 940 554 940 Z M 567 730 L 746 730 L 743 717 C 742 712 740 709 736 709 C 732 708 727 707 720 705 C 711 702 701 697 690 689 C 678 681 664 667 647 649 L 367 337 L 303 88 C 301 82 300 75 299 69 C 298 62 298 58 298 57 C 298 48 300 41 305 37 C 310 33 319 29 333 26 C 339 24 344 23 348 22 C 352 21 355 19 355 17 C 355 15 354 14 354 12 C 354 10 353 9 353 7 L 351 0 L 145 0 L 148 14 C 148 17 150 19 154 20 C 158 21 165 23 175 26 C 188 29 198 33 205 39 C 212 45 217 54 221 67 L 287 331 L 148 658 C 143 669 137 679 130 687 C 123 695 114 700 103 704 C 95 706 90 708 86 708 C 82 708 81 709 81 712 C 81 713 81 715 81 717 C 81 719 82 721 83 724 L 85 730 L 287 730 L 285 719 C 284 714 282 711 278 710 C 274 709 268 707 259 705 C 246 701 237 697 233 693 C 228 689 226 684 226 680 C 226 676 227 671 229 663 C 231 655 233 647 237 639 L 352 368 L 584 632 C 592 641 600 650 606 660 C 612 670 615 677 615 681 C 615 683 613 687 610 691 C 606 695 598 700 585 704 C 578 706 573 707 569 708 C 565 708 563 710 563 712 C 563 713 563 715 563 717 C 563 719 564 721 565 723 L 567 730 Z" unicode="" />
<glyph horiz-adv-x="522" d="M 371 729 C 413 729 448 717 477 693 C 505 669 520 636 520 593 C 520 573 517 552 511 531 C 505 509 495 489 481 471 C 467 452 448 435 425 420 C 401 405 372 394 337 387 C 393 374 433 350 458 316 C 483 281 496 244 496 204 C 496 175 490 148 479 122 C 468 96 453 73 435 54 C 417 34 395 19 370 7 C 345 -4 319 -10 292 -10 C 262 -10 237 -5 217 5 C 197 15 187 31 187 55 C 187 67 191 77 199 85 C 207 92 215 96 225 96 C 234 96 242 93 249 88 C 255 82 259 74 259 64 C 259 57 257 51 254 45 C 251 39 246 32 240 24 C 246 20 254 16 264 14 C 274 12 281 11 285 11 C 311 11 332 19 350 36 C 368 53 382 73 393 96 C 404 119 412 143 417 167 C 421 191 424 211 424 226 C 424 274 411 309 386 332 C 361 355 328 367 286 367 C 278 367 273 368 270 372 C 267 376 266 380 266 385 C 266 391 268 396 274 401 C 279 406 286 409 295 409 L 324 409 C 349 409 370 415 386 429 C 402 443 415 459 425 479 C 435 498 442 519 446 541 C 450 563 452 582 452 599 C 452 610 450 622 448 634 C 445 646 440 658 434 668 C 427 678 418 686 406 693 C 394 699 380 703 363 703 C 343 703 325 699 310 691 C 294 683 281 672 270 660 C 259 648 250 634 243 619 C 235 603 229 588 225 573 C 222 563 219 554 217 545 C 215 535 213 527 211 521 L 91 0 L 21 0 L 134 494 C 142 528 152 559 165 588 C 178 616 194 641 214 662 C 233 683 256 699 282 711 C 308 723 337 729 371 729 Z" unicode="" />
<glyph horiz-adv-x="489" d="M 278 627 L 386 494 L 370 484 L 230 577 C 219 583 211 590 205 598 C 199 605 197 612 197 620 C 197 630 199 638 205 645 C 211 652 219 656 229 656 C 237 656 245 654 253 650 C 260 646 268 638 278 627 Z M 461 39 L 465 23 C 457 17 445 10 427 2 C 409 -6 388 -10 366 -10 C 343 -10 327 -4 319 7 C 310 18 306 31 306 45 L 306 70 C 282 48 259 29 235 14 C 211 -1 184 -9 155 -9 C 109 -9 75 5 53 35 C 30 64 19 101 19 145 C 19 184 26 221 40 257 C 54 293 73 324 97 350 C 121 376 149 397 181 413 C 213 428 248 436 285 436 C 308 436 327 432 341 424 C 355 416 367 408 377 399 C 379 396 382 394 386 394 C 390 393 393 393 395 393 C 397 393 400 393 403 395 C 405 396 408 398 411 400 L 449 434 C 451 435 452 436 454 437 C 456 437 457 438 458 438 C 458 438 460 437 462 437 C 464 436 464 435 464 435 L 382 116 C 379 105 377 95 375 86 C 373 77 372 69 372 63 C 372 52 375 43 381 35 C 387 27 399 24 415 24 C 423 24 431 25 439 28 C 447 31 454 35 461 39 Z M 311 102 L 371 346 C 362 360 351 374 337 388 C 323 401 302 408 276 408 C 247 408 221 400 198 384 C 175 368 156 347 141 322 C 125 297 113 269 105 238 C 97 207 93 177 93 149 C 93 113 100 85 114 63 C 128 41 152 30 184 30 C 198 30 211 32 224 38 C 236 43 248 49 259 57 C 269 64 279 72 288 80 C 297 88 305 96 311 102 Z" unicode="" />
<glyph horiz-adv-x="489" d="M 394 656 C 404 656 411 652 416 644 C 420 636 423 627 423 617 C 423 609 419 602 413 595 C 406 587 396 580 384 573 L 231 484 L 215 495 L 342 628 C 352 639 361 646 369 650 C 377 654 385 656 394 656 Z M 461 39 L 465 23 C 457 17 445 10 427 2 C 409 -6 388 -10 366 -10 C 343 -10 327 -4 319 7 C 310 18 306 31 306 45 L 306 70 C 282 48 259 29 235 14 C 211 -1 184 -9 155 -9 C 109 -9 75 5 53 35 C 30 64 19 101 19 145 C 19 184 26 221 40 257 C 54 293 73 324 97 350 C 121 376 149 397 181 413 C 213 428 248 436 285 436 C 308 436 327 432 341 424 C 355 416 367 408 377 399 C 379 396 382 394 386 394 C 390 393 393 393 395 393 C 397 393 400 393 403 395 C 405 396 408 398 411 400 L 449 434 C 451 435 452 436 454 437 C 456 437 457 438 458 438 C 458 438 460 437 462 437 C 464 436 464 435 464 435 L 382 116 C 379 105 377 95 375 86 C 373 77 372 69 372 63 C 372 52 375 43 381 35 C 387 27 399 24 415 24 C 423 24 431 25 439 28 C 447 31 454 35 461 39 Z M 311 102 L 371 346 C 362 360 351 374 337 388 C 323 401 302 408 276 408 C 247 408 221 400 198 384 C 175 368 156 347 141 322 C 125 297 113 269 105 238 C 97 207 93 177 93 149 C 93 113 100 85 114 63 C 128 41 152 30 184 30 C 198 30 211 32 224 38 C 236 43 248 49 259 57 C 269 64 279 72 288 80 C 297 88 305 96 311 102 Z" unicode="" />
<glyph horiz-adv-x="489" d="M 347 647 L 424 485 L 403 485 L 317 590 L 173 485 L 152 485 L 295 647 L 347 647 Z M 461 39 L 465 23 C 457 17 445 10 427 2 C 409 -6 388 -10 366 -10 C 343 -10 327 -4 319 7 C 310 18 306 31 306 45 L 306 70 C 282 48 259 29 235 14 C 211 -1 184 -9 155 -9 C 109 -9 75 5 53 35 C 30 64 19 101 19 145 C 19 184 26 221 40 257 C 54 293 73 324 97 350 C 121 376 149 397 181 413 C 213 428 248 436 285 436 C 308 436 327 432 341 424 C 355 416 367 408 377 399 C 379 396 382 394 386 394 C 390 393 393 393 395 393 C 397 393 400 393 403 395 C 405 396 408 398 411 400 L 449 434 C 451 435 452 436 454 437 C 456 437 457 438 458 438 C 458 438 460 437 462 437 C 464 436 464 435 464 435 L 382 116 C 379 105 377 95 375 86 C 373 77 372 69 372 63 C 372 52 375 43 381 35 C 387 27 399 24 415 24 C 423 24 431 25 439 28 C 447 31 454 35 461 39 Z M 311 102 L 371 346 C 362 360 351 374 337 388 C 323 401 302 408 276 408 C 247 408 221 400 198 384 C 175 368 156 347 141 322 C 125 297 113 269 105 238 C 97 207 93 177 93 149 C 93 113 100 85 114 63 C 128 41 152 30 184 30 C 198 30 211 32 224 38 C 236 43 248 49 259 57 C 269 64 279 72 288 80 C 297 88 305 96 311 102 Z" unicode="" />
<glyph horiz-adv-x="489" d="M 426 625 L 447 625 C 441 595 428 569 409 548 C 390 527 369 517 346 517 C 334 517 325 518 319 522 C 312 526 301 532 287 542 C 274 550 263 556 254 561 C 245 565 236 568 226 568 C 212 568 199 562 189 550 C 179 538 171 525 167 511 L 146 511 C 152 540 164 565 184 586 C 203 606 224 617 248 617 C 262 617 273 615 281 611 C 288 607 297 601 308 594 C 320 585 331 578 341 573 C 350 568 359 566 368 566 C 382 566 394 572 404 584 C 414 596 422 610 426 625 Z M 461 39 L 465 23 C 457 17 445 10 427 2 C 409 -6 388 -10 366 -10 C 343 -10 327 -4 319 7 C 310 18 306 31 306 45 L 306 70 C 282 48 259 29 235 14 C 211 -1 184 -9 155 -9 C 109 -9 75 5 53 35 C 30 64 19 101 19 145 C 19 184 26 221 40 257 C 54 293 73 324 97 350 C 121 376 149 397 181 413 C 213 428 248 436 285 436 C 308 436 327 432 341 424 C 355 416 367 408 377 399 C 379 396 382 394 386 394 C 390 393 393 393 395 393 C 397 393 400 393 403 395 C 405 396 408 398 411 400 L 449 434 C 451 435 452 436 454 437 C 456 437 457 438 458 438 C 458 438 460 437 462 437 C 464 436 464 435 464 435 L 382 116 C 379 105 377 95 375 86 C 373 77 372 69 372 63 C 372 52 375 43 381 35 C 387 27 399 24 415 24 C 423 24 431 25 439 28 C 447 31 454 35 461 39 Z M 311 102 L 371 346 C 362 360 351 374 337 388 C 323 401 302 408 276 408 C 247 408 221 400 198 384 C 175 368 156 347 141 322 C 125 297 113 269 105 238 C 97 207 93 177 93 149 C 93 113 100 85 114 63 C 128 41 152 30 184 30 C 198 30 211 32 224 38 C 236 43 248 49 259 57 C 269 64 279 72 288 80 C 297 88 305 96 311 102 Z" unicode="" />
<glyph horiz-adv-x="489" d="M 387 605 C 399 605 410 600 419 591 C 428 582 433 572 433 560 C 433 548 428 537 419 528 C 410 519 399 515 387 515 C 374 515 363 519 354 528 C 345 537 341 548 341 560 C 341 572 345 582 354 591 C 363 600 374 605 387 605 Z M 205 605 C 217 605 228 600 237 591 C 246 582 251 572 251 560 C 251 548 246 537 237 528 C 228 519 217 515 205 515 C 192 515 181 519 172 528 C 163 537 159 548 159 560 C 159 572 163 582 172 591 C 181 600 192 605 205 605 Z M 461 39 L 465 23 C 457 17 445 10 427 2 C 409 -6 388 -10 366 -10 C 343 -10 327 -4 319 7 C 310 18 306 31 306 45 L 306 70 C 282 48 259 29 235 14 C 211 -1 184 -9 155 -9 C 109 -9 75 5 53 35 C 30 64 19 101 19 145 C 19 184 26 221 40 257 C 54 293 73 324 97 350 C 121 376 149 397 181 413 C 213 428 248 436 285 436 C 308 436 327 432 341 424 C 355 416 367 408 377 399 C 379 396 382 394 386 394 C 390 393 393 393 395 393 C 397 393 400 393 403 395 C 405 396 408 398 411 400 L 449 434 C 451 435 452 436 454 437 C 456 437 457 438 458 438 C 458 438 460 437 462 437 C 464 436 464 435 464 435 L 382 116 C 379 105 377 95 375 86 C 373 77 372 69 372 63 C 372 52 375 43 381 35 C 387 27 399 24 415 24 C 423 24 431 25 439 28 C 447 31 454 35 461 39 Z M 311 102 L 371 346 C 362 360 351 374 337 388 C 323 401 302 408 276 408 C 247 408 221 400 198 384 C 175 368 156 347 141 322 C 125 297 113 269 105 238 C 97 207 93 177 93 149 C 93 113 100 85 114 63 C 128 41 152 30 184 30 C 198 30 211 32 224 38 C 236 43 248 49 259 57 C 269 64 279 72 288 80 C 297 88 305 96 311 102 Z" unicode="" />
<glyph horiz-adv-x="489" d="M 314 670 C 340 670 362 662 378 648 C 394 633 402 614 402 591 C 402 562 391 536 369 514 C 347 491 320 480 288 480 C 261 480 239 487 223 503 C 206 518 198 537 198 560 C 198 589 209 615 231 637 C 253 659 281 670 314 670 Z M 290 501 C 310 501 327 509 340 527 C 352 544 359 567 359 596 C 359 613 354 626 346 635 C 338 644 326 649 312 649 C 290 649 273 640 260 623 C 247 606 241 583 241 555 C 241 537 245 523 253 514 C 261 505 274 501 290 501 Z M 461 39 L 465 23 C 457 17 445 10 427 2 C 409 -6 388 -10 366 -10 C 343 -10 327 -4 319 7 C 310 18 306 31 306 45 L 306 70 C 282 48 259 29 235 14 C 211 -1 184 -9 155 -9 C 109 -9 75 5 53 35 C 30 64 19 101 19 145 C 19 184 26 221 40 257 C 54 293 73 324 97 350 C 121 376 149 397 181 413 C 213 428 248 436 285 436 C 308 436 327 432 341 424 C 355 416 367 408 377 399 C 379 396 382 394 386 394 C 390 393 393 393 395 393 C 397 393 400 393 403 395 C 405 396 408 398 411 400 L 449 434 C 451 435 452 436 454 437 C 456 437 457 438 458 438 C 458 438 460 437 462 437 C 464 436 464 435 464 435 L 382 116 C 379 105 377 95 375 86 C 373 77 372 69 372 63 C 372 52 375 43 381 35 C 387 27 399 24 415 24 C 423 24 431 25 439 28 C 447 31 454 35 461 39 Z M 311 102 L 371 346 C 362 360 351 374 337 388 C 323 401 302 408 276 408 C 247 408 221 400 198 384 C 175 368 156 347 141 322 C 125 297 113 269 105 238 C 97 207 93 177 93 149 C 93 113 100 85 114 63 C 128 41 152 30 184 30 C 198 30 211 32 224 38 C 236 43 248 49 259 57 C 269 64 279 72 288 80 C 297 88 305 96 311 102 Z" unicode="" />
<glyph horiz-adv-x="700" d="M 576 435 C 612 435 640 426 662 409 C 684 392 695 369 695 341 C 695 309 685 284 667 266 C 649 248 627 234 602 225 C 577 215 551 209 524 207 C 497 205 475 204 459 204 L 397 204 C 397 198 396 192 396 186 C 395 180 395 175 395 171 C 395 141 398 117 406 98 C 413 79 423 64 435 54 C 447 43 460 35 476 31 C 491 27 506 25 522 25 C 546 25 571 31 597 44 C 622 57 646 76 670 101 L 682 85 C 663 61 639 39 611 19 C 582 0 543 -10 494 -10 C 454 -10 420 0 394 19 C 367 39 348 64 337 95 C 306 63 276 38 247 19 C 218 0 187 -9 153 -9 C 107 -9 74 5 52 35 C 30 64 19 101 19 145 C 19 184 25 221 39 257 C 53 293 71 324 95 350 C 119 376 147 397 179 413 C 211 428 246 436 283 436 C 306 436 325 432 339 425 C 353 417 364 409 373 401 C 375 398 377 396 377 396 C 377 395 379 395 381 395 C 383 395 386 395 389 396 C 391 396 394 398 397 400 L 435 434 C 437 435 438 436 440 437 C 442 437 443 438 444 438 C 444 438 446 437 448 437 C 450 436 450 435 450 435 L 436 386 C 455 400 476 412 500 421 C 524 430 549 435 576 435 Z M 309 102 L 367 346 C 358 360 347 374 334 388 C 320 401 300 408 274 408 C 245 408 219 400 197 384 C 174 368 155 347 140 322 C 124 297 113 269 105 238 C 97 207 93 177 93 149 C 93 113 99 85 113 63 C 127 41 150 30 182 30 C 196 30 209 32 222 37 C 234 42 246 48 257 56 C 268 63 278 71 287 79 C 295 87 303 95 309 102 Z M 399 227 C 431 227 461 228 489 232 C 517 235 541 241 561 249 C 581 257 598 268 610 282 C 622 296 628 314 628 337 C 628 359 622 376 610 388 C 598 400 581 406 559 406 C 522 406 489 391 459 361 C 429 331 409 287 399 227 Z" unicode="" />
<glyph horiz-adv-x="383" d="M 261 434 C 305 434 337 425 357 407 C 377 389 387 370 387 352 C 387 333 382 320 373 312 C 364 304 354 300 343 300 C 332 300 323 303 315 309 C 307 315 303 323 303 334 C 303 340 305 348 309 357 C 313 366 317 375 321 385 C 316 389 308 395 297 401 C 285 407 269 411 248 411 C 224 411 203 404 185 390 C 166 376 150 357 137 335 C 124 312 114 287 107 259 C 100 231 97 203 97 175 C 97 134 106 99 125 69 C 144 39 174 24 216 24 C 248 24 276 31 298 47 C 320 62 339 78 355 95 L 367 79 C 354 62 335 44 311 26 C 287 7 257 -4 222 -9 L 197 -52 C 225 -52 246 -56 260 -66 C 273 -76 280 -90 280 -109 C 280 -130 270 -149 252 -167 C 233 -184 205 -193 168 -193 C 149 -193 131 -188 115 -179 C 98 -170 84 -160 74 -150 L 88 -132 C 98 -140 110 -148 124 -155 C 138 -162 152 -166 166 -166 C 190 -166 206 -160 213 -148 C 220 -136 224 -125 224 -115 C 224 -105 219 -96 211 -88 C 203 -80 189 -77 170 -77 L 159 -77 L 198 -10 C 147 -10 105 5 73 37 C 40 69 24 113 24 169 C 24 201 29 232 40 264 C 50 296 66 324 86 349 C 106 374 131 394 161 410 C 190 426 223 434 261 434 Z" unicode="" />
<glyph horiz-adv-x="400" d="M 251 627 L 359 494 L 343 484 L 203 577 C 192 583 184 590 178 598 C 172 605 170 612 170 620 C 170 630 172 638 178 645 C 184 652 192 656 202 656 C 210 656 218 654 226 650 C 233 646 241 638 251 627 Z M 276 435 C 312 435 340 426 362 409 C 384 392 395 369 395 341 C 395 309 385 284 367 266 C 349 248 327 234 302 225 C 277 215 251 209 224 207 C 197 205 175 204 159 204 L 97 204 C 97 198 96 192 96 186 C 95 180 95 175 95 171 C 95 141 98 117 106 98 C 113 79 123 64 135 54 C 147 43 160 35 176 31 C 191 27 206 25 222 25 C 246 25 271 31 297 44 C 322 57 346 76 370 101 L 382 85 C 363 61 339 39 311 19 C 282 0 243 -10 194 -10 C 138 -10 96 6 67 40 C 38 74 24 116 24 168 C 24 200 30 233 42 265 C 54 297 72 326 94 351 C 116 376 142 396 173 412 C 204 427 238 435 276 435 Z M 99 227 C 131 227 161 228 189 232 C 217 235 241 241 261 249 C 281 257 298 268 310 282 C 322 296 328 314 328 337 C 328 359 322 376 310 388 C 298 400 281 406 259 406 C 222 406 189 391 159 361 C 129 331 109 287 99 227 Z" unicode="" />
<glyph horiz-adv-x="400" d="M 363 656 C 373 656 380 652 385 644 C 389 636 392 627 392 617 C 392 609 388 602 382 595 C 375 587 365 580 353 573 L 200 484 L 184 495 L 311 628 C 321 639 330 646 338 650 C 346 654 354 656 363 656 Z M 276 435 C 312 435 340 426 362 409 C 384 392 395 369 395 341 C 395 309 385 284 367 266 C 349 248 327 234 302 225 C 277 215 251 209 224 207 C 197 205 175 204 159 204 L 97 204 C 97 198 96 192 96 186 C 95 180 95 175 95 171 C 95 141 98 117 106 98 C 113 79 123 64 135 54 C 147 43 160 35 176 31 C 191 27 206 25 222 25 C 246 25 271 31 297 44 C 322 57 346 76 370 101 L 382 85 C 363 61 339 39 311 19 C 282 0 243 -10 194 -10 C 138 -10 96 6 67 40 C 38 74 24 116 24 168 C 24 200 30 233 42 265 C 54 297 72 326 94 351 C 116 376 142 396 173 412 C 204 427 238 435 276 435 Z M 99 227 C 131 227 161 228 189 232 C 217 235 241 241 261 249 C 281 257 298 268 310 282 C 322 296 328 314 328 337 C 328 359 322 376 310 388 C 298 400 281 406 259 406 C 222 406 189 391 159 361 C 129 331 109 287 99 227 Z" unicode="" />
<glyph horiz-adv-x="400" d="M 316 647 L 393 485 L 372 485 L 286 590 L 142 485 L 121 485 L 264 647 L 316 647 Z M 276 435 C 312 435 340 426 362 409 C 384 392 395 369 395 341 C 395 309 385 284 367 266 C 349 248 327 234 302 225 C 277 215 251 209 224 207 C 197 205 175 204 159 204 L 97 204 C 97 198 96 192 96 186 C 95 180 95 175 95 171 C 95 141 98 117 106 98 C 113 79 123 64 135 54 C 147 43 160 35 176 31 C 191 27 206 25 222 25 C 246 25 271 31 297 44 C 322 57 346 76 370 101 L 382 85 C 363 61 339 39 311 19 C 282 0 243 -10 194 -10 C 138 -10 96 6 67 40 C 38 74 24 116 24 168 C 24 200 30 233 42 265 C 54 297 72 326 94 351 C 116 376 142 396 173 412 C 204 427 238 435 276 435 Z M 99 227 C 131 227 161 228 189 232 C 217 235 241 241 261 249 C 281 257 298 268 310 282 C 322 296 328 314 328 337 C 328 359 322 376 310 388 C 298 400 281 406 259 406 C 222 406 189 391 159 361 C 129 331 109 287 99 227 Z" unicode="" />
<glyph horiz-adv-x="400" d="M 363 605 C 375 605 386 600 395 591 C 404 582 409 572 409 560 C 409 548 404 537 395 528 C 386 519 375 515 363 515 C 350 515 339 519 330 528 C 321 537 317 548 317 560 C 317 572 321 582 330 591 C 339 600 350 605 363 605 Z M 181 605 C 193 605 204 600 213 591 C 222 582 227 572 227 560 C 227 548 222 537 213 528 C 204 519 193 515 181 515 C 168 515 157 519 148 528 C 139 537 135 548 135 560 C 135 572 139 582 148 591 C 157 600 168 605 181 605 Z M 276 435 C 312 435 340 426 362 409 C 384 392 395 369 395 341 C 395 309 385 284 367 266 C 349 248 327 234 302 225 C 277 215 251 209 224 207 C 197 205 175 204 159 204 L 97 204 C 97 198 96 192 96 186 C 95 180 95 175 95 171 C 95 141 98 117 106 98 C 113 79 123 64 135 54 C 147 43 160 35 176 31 C 191 27 206 25 222 25 C 246 25 271 31 297 44 C 322 57 346 76 370 101 L 382 85 C 363 61 339 39 311 19 C 282 0 243 -10 194 -10 C 138 -10 96 6 67 40 C 38 74 24 116 24 168 C 24 200 30 233 42 265 C 54 297 72 326 94 351 C 116 376 142 396 173 412 C 204 427 238 435 276 435 Z M 99 227 C 131 227 161 228 189 232 C 217 235 241 241 261 249 C 281 257 298 268 310 282 C 322 296 328 314 328 337 C 328 359 322 376 310 388 C 298 400 281 406 259 406 C 222 406 189 391 159 361 C 129 331 109 287 99 227 Z" unicode="" />
<glyph horiz-adv-x="238" d="M 138 627 L 246 494 L 230 484 L 90 577 C 79 583 71 590 65 598 C 59 605 57 612 57 620 C 57 630 59 638 65 645 C 71 652 79 656 89 656 C 97 656 105 654 113 650 C 120 646 128 638 138 627 Z M 208 39 L 212 23 C 204 17 191 10 172 2 C 153 -6 132 -10 110 -10 C 87 -10 71 -4 61 5 C 51 15 47 28 47 42 C 47 48 47 57 49 69 C 50 80 52 92 56 105 L 106 295 C 108 303 109 311 111 320 C 112 328 113 334 113 337 C 113 351 110 362 104 369 C 98 375 87 379 71 380 C 68 380 65 380 62 380 C 59 380 58 381 58 383 C 58 384 58 385 58 387 C 58 389 58 391 59 393 L 61 400 C 81 400 103 403 125 407 C 147 411 170 419 194 430 L 210 430 L 129 115 C 126 103 124 92 122 82 C 120 72 120 66 120 63 C 120 52 123 43 129 35 C 135 27 146 24 162 24 C 170 24 178 25 186 28 C 194 31 201 35 208 39 Z" unicode="" />
<glyph horiz-adv-x="238" d="M 254 656 C 264 656 271 652 276 644 C 280 636 283 627 283 617 C 283 609 279 602 273 595 C 266 587 256 580 244 573 L 91 484 L 75 495 L 202 628 C 212 639 221 646 229 650 C 237 654 245 656 254 656 Z M 208 39 L 212 23 C 204 17 191 10 172 2 C 153 -6 132 -10 110 -10 C 87 -10 71 -4 61 5 C 51 15 47 28 47 42 C 47 48 47 57 49 69 C 50 80 52 92 56 105 L 106 295 C 108 303 109 311 111 320 C 112 328 113 334 113 337 C 113 351 110 362 104 369 C 98 375 87 379 71 380 C 68 380 65 380 62 380 C 59 380 58 381 58 383 C 58 384 58 385 58 387 C 58 389 58 391 59 393 L 61 400 C 81 400 103 403 125 407 C 147 411 170 419 194 430 L 210 430 L 129 115 C 126 103 124 92 122 82 C 120 72 120 66 120 63 C 120 52 123 43 129 35 C 135 27 146 24 162 24 C 170 24 178 25 186 28 C 194 31 201 35 208 39 Z" unicode="" />
<glyph horiz-adv-x="238" d="M 213 647 L 279 485 L 258 485 L 182 593 L 46 485 L 25 485 L 161 647 L 213 647 Z M 208 39 L 212 23 C 204 17 191 10 172 2 C 153 -6 132 -10 110 -10 C 87 -10 71 -4 61 5 C 51 15 47 28 47 42 C 47 48 47 57 49 69 C 50 80 52 92 56 105 L 106 295 C 108 303 109 311 111 320 C 112 328 113 334 113 337 C 113 351 110 362 104 369 C 98 375 87 379 71 380 C 68 380 65 380 62 380 C 59 380 58 381 58 383 C 58 384 58 385 58 387 C 58 389 58 391 59 393 L 61 400 C 81 400 103 403 125 407 C 147 411 170 419 194 430 L 210 430 L 129 115 C 126 103 124 92 122 82 C 120 72 120 66 120 63 C 120 52 123 43 129 35 C 135 27 146 24 162 24 C 170 24 178 25 186 28 C 194 31 201 35 208 39 Z" unicode="" />
<glyph horiz-adv-x="238" d="M 247 605 C 259 605 270 600 279 591 C 288 582 293 572 293 560 C 293 548 288 537 279 528 C 270 519 259 515 247 515 C 234 515 223 519 214 528 C 205 537 201 548 201 560 C 201 572 205 582 214 591 C 223 600 234 605 247 605 Z M 85 605 C 97 605 108 600 117 591 C 126 582 131 572 131 560 C 131 548 126 537 117 528 C 108 519 97 515 85 515 C 72 515 61 519 52 528 C 43 537 39 548 39 560 C 39 572 43 582 52 591 C 61 600 72 605 85 605 Z M 208 39 L 212 23 C 204 17 191 10 172 2 C 153 -6 132 -10 110 -10 C 87 -10 71 -4 61 5 C 51 15 47 28 47 42 C 47 48 47 57 49 69 C 50 80 52 92 56 105 L 106 295 C 108 303 109 311 111 320 C 112 328 113 334 113 337 C 113 351 110 362 104 369 C 98 375 87 379 71 380 C 68 380 65 380 62 380 C 59 380 58 381 58 383 C 58 384 58 385 58 387 C 58 389 58 391 59 393 L 61 400 C 81 400 103 403 125 407 C 147 411 170 419 194 430 L 210 430 L 129 115 C 126 103 124 92 122 82 C 120 72 120 66 120 63 C 120 52 123 43 129 35 C 135 27 146 24 162 24 C 170 24 178 25 186 28 C 194 31 201 35 208 39 Z" unicode="" />
<glyph horiz-adv-x="519" d="M 452 625 L 473 625 C 467 595 454 569 435 548 C 416 527 395 517 372 517 C 360 517 351 518 345 522 C 338 526 327 532 313 542 C 300 550 289 556 280 561 C 271 565 262 568 252 568 C 238 568 225 562 215 550 C 205 538 197 525 193 511 L 172 511 C 178 540 190 565 210 586 C 229 606 250 617 274 617 C 288 617 299 615 307 611 C 314 607 323 601 334 594 C 346 585 357 578 367 573 C 376 568 385 566 394 566 C 408 566 420 572 430 584 C 440 596 448 610 452 625 Z M 493 39 L 497 23 C 489 17 476 10 458 2 C 439 -6 418 -10 396 -10 C 373 -10 357 -4 347 5 C 337 15 333 28 333 42 C 333 48 333 57 335 69 C 336 80 338 92 342 105 L 386 270 C 388 280 390 291 392 303 C 393 314 394 322 394 327 C 394 349 388 366 377 378 C 366 390 350 396 330 396 C 305 396 278 387 249 369 C 220 351 196 332 178 314 L 101 0 L 31 0 L 104 294 C 106 302 107 311 109 320 C 110 328 111 334 111 337 C 111 351 108 362 102 369 C 96 375 85 379 69 380 C 66 380 63 380 60 380 C 57 380 56 381 56 383 C 56 384 56 385 56 387 C 56 389 56 391 57 393 L 59 400 C 79 400 101 403 123 407 C 145 411 167 419 191 430 L 202 430 L 180 344 C 208 366 236 386 266 405 C 295 423 329 433 367 433 C 400 433 425 424 441 406 C 457 388 465 365 465 338 C 465 331 464 322 463 311 C 462 300 460 288 457 276 L 414 115 C 410 101 408 90 407 81 C 405 72 405 66 405 63 C 405 52 408 43 414 35 C 420 27 431 24 447 24 C 455 24 463 25 471 28 C 479 31 486 35 493 39 Z" unicode="" />
<glyph horiz-adv-x="462" d="M 259 627 L 367 494 L 351 484 L 211 577 C 200 583 192 590 186 598 C 180 605 178 612 178 620 C 178 630 180 638 186 645 C 192 652 200 656 210 656 C 218 656 226 654 234 650 C 241 646 249 638 259 627 Z M 269 437 C 323 437 364 419 394 384 C 423 348 438 303 438 249 C 438 214 432 181 420 150 C 408 118 391 91 370 67 C 349 43 324 25 294 11 C 264 -3 231 -10 195 -10 C 139 -10 97 7 68 43 C 38 79 24 124 24 179 C 24 211 29 242 40 273 C 51 304 67 332 88 356 C 109 380 135 399 165 414 C 195 429 230 437 269 437 Z M 202 16 C 228 16 251 22 271 36 C 291 49 308 67 322 90 C 336 112 346 139 354 170 C 361 201 365 234 365 270 C 365 312 356 346 339 372 C 322 398 296 411 260 411 C 232 411 208 404 188 390 C 167 376 150 357 137 334 C 123 310 113 283 107 252 C 100 221 97 189 97 156 C 97 114 105 81 122 55 C 138 29 165 16 202 16 Z" unicode="" />
<glyph horiz-adv-x="462" d="M 376 656 C 386 656 393 652 398 644 C 402 636 405 627 405 617 C 405 609 401 602 395 595 C 388 587 378 580 366 573 L 213 484 L 197 495 L 324 628 C 334 639 343 646 351 650 C 359 654 367 656 376 656 Z M 269 437 C 323 437 364 419 394 384 C 423 348 438 303 438 249 C 438 214 432 181 420 150 C 408 118 391 91 370 67 C 349 43 324 25 294 11 C 264 -3 231 -10 195 -10 C 139 -10 97 7 68 43 C 38 79 24 124 24 179 C 24 211 29 242 40 273 C 51 304 67 332 88 356 C 109 380 135 399 165 414 C 195 429 230 437 269 437 Z M 202 16 C 228 16 251 22 271 36 C 291 49 308 67 322 90 C 336 112 346 139 354 170 C 361 201 365 234 365 270 C 365 312 356 346 339 372 C 322 398 296 411 260 411 C 232 411 208 404 188 390 C 167 376 150 357 137 334 C 123 310 113 283 107 252 C 100 221 97 189 97 156 C 97 114 105 81 122 55 C 138 29 165 16 202 16 Z" unicode="" />
<glyph horiz-adv-x="462" d="M 330 647 L 407 485 L 386 485 L 300 590 L 156 485 L 135 485 L 278 647 L 330 647 Z M 269 437 C 323 437 364 419 394 384 C 423 348 438 303 438 249 C 438 214 432 181 420 150 C 408 118 391 91 370 67 C 349 43 324 25 294 11 C 264 -3 231 -10 195 -10 C 139 -10 97 7 68 43 C 38 79 24 124 24 179 C 24 211 29 242 40 273 C 51 304 67 332 88 356 C 109 380 135 399 165 414 C 195 429 230 437 269 437 Z M 202 16 C 228 16 251 22 271 36 C 291 49 308 67 322 90 C 336 112 346 139 354 170 C 361 201 365 234 365 270 C 365 312 356 346 339 372 C 322 398 296 411 260 411 C 232 411 208 404 188 390 C 167 376 150 357 137 334 C 123 310 113 283 107 252 C 100 221 97 189 97 156 C 97 114 105 81 122 55 C 138 29 165 16 202 16 Z" unicode="" />
<glyph horiz-adv-x="462" d="M 408 625 L 429 625 C 423 595 410 569 391 548 C 372 527 351 517 328 517 C 316 517 307 518 301 522 C 294 526 283 532 269 542 C 256 550 245 556 236 561 C 227 565 218 568 208 568 C 194 568 181 562 171 550 C 161 538 153 525 149 511 L 128 511 C 134 540 146 565 166 586 C 185 606 206 617 230 617 C 244 617 255 615 263 611 C 270 607 279 601 290 594 C 302 585 313 578 323 573 C 332 568 341 566 350 566 C 364 566 376 572 386 584 C 396 596 404 610 408 625 Z M 269 437 C 323 437 364 419 394 384 C 423 348 438 303 438 249 C 438 214 432 181 420 150 C 408 118 391 91 370 67 C 349 43 324 25 294 11 C 264 -3 231 -10 195 -10 C 139 -10 97 7 68 43 C 38 79 24 124 24 179 C 24 211 29 242 40 273 C 51 304 67 332 88 356 C 109 380 135 399 165 414 C 195 429 230 437 269 437 Z M 202 16 C 228 16 251 22 271 36 C 291 49 308 67 322 90 C 336 112 346 139 354 170 C 361 201 365 234 365 270 C 365 312 356 346 339 372 C 322 398 296 411 260 411 C 232 411 208 404 188 390 C 167 376 150 357 137 334 C 123 310 113 283 107 252 C 100 221 97 189 97 156 C 97 114 105 81 122 55 C 138 29 165 16 202 16 Z" unicode="" />
<glyph horiz-adv-x="462" d="M 367 605 C 379 605 390 600 399 591 C 408 582 413 572 413 560 C 413 548 408 537 399 528 C 390 519 379 515 367 515 C 354 515 343 519 334 528 C 325 537 321 548 321 560 C 321 572 325 582 334 591 C 343 600 354 605 367 605 Z M 185 605 C 197 605 208 600 217 591 C 226 582 231 572 231 560 C 231 548 226 537 217 528 C 208 519 197 515 185 515 C 172 515 161 519 152 528 C 143 537 139 548 139 560 C 139 572 143 582 152 591 C 161 600 172 605 185 605 Z M 269 437 C 323 437 364 419 394 384 C 423 348 438 303 438 249 C 438 214 432 181 420 150 C 408 118 391 91 370 67 C 349 43 324 25 294 11 C 264 -3 231 -10 195 -10 C 139 -10 97 7 68 43 C 38 79 24 124 24 179 C 24 211 29 242 40 273 C 51 304 67 332 88 356 C 109 380 135 399 165 414 C 195 429 230 437 269 437 Z M 202 16 C 228 16 251 22 271 36 C 291 49 308 67 322 90 C 336 112 346 139 354 170 C 361 201 365 234 365 270 C 365 312 356 346 339 372 C 322 398 296 411 260 411 C 232 411 208 404 188 390 C 167 376 150 357 137 334 C 123 310 113 283 107 252 C 100 221 97 189 97 156 C 97 114 105 81 122 55 C 138 29 165 16 202 16 Z" unicode="" />
<glyph horiz-adv-x="754" d="M 394 523 C 409 523 422 517 433 507 C 443 497 449 484 449 470 C 449 455 443 442 433 432 C 422 422 409 417 394 417 C 378 417 365 422 355 432 C 344 442 339 455 339 470 C 339 484 344 497 355 507 C 365 517 378 523 394 523 Z M 652 313 L 652 273 L 136 273 L 136 313 L 652 313 Z M 394 169 C 409 169 422 163 433 153 C 443 143 449 130 449 116 C 449 101 443 88 433 78 C 422 68 409 63 394 63 C 378 63 365 68 355 78 C 344 88 339 101 339 116 C 339 130 344 143 355 153 C 365 163 378 169 394 169 Z" unicode="" />
<glyph horiz-adv-x="462" d="M 405 470 L 439 470 L 382 394 C 400 377 413 356 423 332 C 433 307 438 279 438 249 C 438 214 432 181 420 150 C 408 118 391 91 370 67 C 349 43 324 25 294 11 C 264 -3 231 -10 195 -10 C 177 -10 160 -7 144 -3 C 128 0 113 7 101 16 L 53 -48 L 19 -48 L 80 33 C 62 49 48 70 38 95 C 28 120 24 148 24 179 C 24 211 29 242 40 273 C 51 304 67 332 88 356 C 109 380 135 399 165 414 C 195 429 230 437 269 437 C 286 437 302 434 318 430 C 334 426 348 419 361 411 L 405 470 Z M 110 73 L 336 378 C 327 388 316 396 304 402 C 291 408 276 411 260 411 C 232 411 208 404 188 390 C 167 376 150 357 136 334 C 122 310 112 283 106 252 C 99 221 96 189 96 156 C 96 140 97 124 99 110 C 101 96 105 83 110 73 Z M 202 16 C 228 16 251 22 272 36 C 292 49 309 67 323 90 C 337 112 347 139 355 170 C 362 201 366 234 366 270 C 366 286 364 301 362 316 C 360 330 356 343 352 354 L 125 49 C 133 38 144 30 157 24 C 170 18 185 16 202 16 Z" unicode="" />
<glyph horiz-adv-x="512" d="M 297 627 L 405 494 L 389 484 L 249 577 C 238 583 230 590 224 598 C 218 605 216 612 216 620 C 216 630 218 638 224 645 C 230 652 238 656 248 656 C 256 656 264 654 272 650 C 279 646 287 638 297 627 Z M 484 39 L 489 24 C 481 17 467 10 448 2 C 429 -6 408 -10 386 -10 C 364 -10 349 -4 341 6 C 333 17 330 31 330 49 C 330 53 330 57 330 61 C 330 65 331 69 332 74 C 304 51 275 31 247 15 C 219 -1 186 -10 148 -10 C 114 -10 90 -1 74 17 C 58 35 50 57 50 84 C 50 91 50 100 51 111 C 52 121 54 133 58 147 L 96 293 C 98 301 100 310 101 319 C 101 328 102 334 102 337 C 102 351 99 361 94 368 C 88 375 77 379 61 380 C 58 380 55 380 52 380 C 49 380 48 381 48 383 C 48 384 48 385 48 387 C 48 389 48 391 49 393 L 51 400 C 71 400 93 403 117 407 C 140 411 163 419 187 430 L 201 430 L 129 152 C 126 142 124 131 123 120 C 121 108 121 100 121 96 C 121 73 126 56 138 44 C 149 32 165 27 186 27 C 210 27 237 35 265 52 C 293 68 316 86 336 106 L 382 293 C 384 301 385 310 386 319 C 387 328 388 334 388 337 C 388 351 385 361 380 368 C 374 375 363 379 347 380 C 344 380 341 380 338 380 C 335 380 334 381 334 383 C 334 384 334 385 334 387 C 334 389 334 391 335 393 L 337 400 C 357 400 379 403 403 407 C 426 411 449 419 473 430 L 485 430 L 401 91 C 400 86 399 81 398 77 C 397 72 397 68 397 65 C 397 54 399 44 405 36 C 411 28 422 24 439 24 C 446 24 454 25 462 28 C 470 30 477 34 484 39 Z" unicode="" />
<glyph horiz-adv-x="512" d="M 406 656 C 416 656 423 652 428 644 C 432 636 435 627 435 617 C 435 609 431 602 425 595 C 418 587 408 580 396 573 L 243 484 L 227 495 L 354 628 C 364 639 373 646 381 650 C 389 654 397 656 406 656 Z M 484 39 L 489 24 C 481 17 467 10 448 2 C 429 -6 408 -10 386 -10 C 364 -10 349 -4 341 6 C 333 17 330 31 330 49 C 330 53 330 57 330 61 C 330 65 331 69 332 74 C 304 51 275 31 247 15 C 219 -1 186 -10 148 -10 C 114 -10 90 -1 74 17 C 58 35 50 57 50 84 C 50 91 50 100 51 111 C 52 121 54 133 58 147 L 96 293 C 98 301 100 310 101 319 C 101 328 102 334 102 337 C 102 351 99 361 94 368 C 88 375 77 379 61 380 C 58 380 55 380 52 380 C 49 380 48 381 48 383 C 48 384 48 385 48 387 C 48 389 48 391 49 393 L 51 400 C 71 400 93 403 117 407 C 140 411 163 419 187 430 L 201 430 L 129 152 C 126 142 124 131 123 120 C 121 108 121 100 121 96 C 121 73 126 56 138 44 C 149 32 165 27 186 27 C 210 27 237 35 265 52 C 293 68 316 86 336 106 L 382 293 C 384 301 385 310 386 319 C 387 328 388 334 388 337 C 388 351 385 361 380 368 C 374 375 363 379 347 380 C 344 380 341 380 338 380 C 335 380 334 381 334 383 C 334 384 334 385 334 387 C 334 389 334 391 335 393 L 337 400 C 357 400 379 403 403 407 C 426 411 449 419 473 430 L 485 430 L 401 91 C 400 86 399 81 398 77 C 397 72 397 68 397 65 C 397 54 399 44 405 36 C 411 28 422 24 439 24 C 446 24 454 25 462 28 C 470 30 477 34 484 39 Z" unicode="" />
<glyph horiz-adv-x="512" d="M 360 647 L 437 485 L 416 485 L 330 590 L 186 485 L 165 485 L 308 647 L 360 647 Z M 484 39 L 489 24 C 481 17 467 10 448 2 C 429 -6 408 -10 386 -10 C 364 -10 349 -4 341 6 C 333 17 330 31 330 49 C 330 53 330 57 330 61 C 330 65 331 69 332 74 C 304 51 275 31 247 15 C 219 -1 186 -10 148 -10 C 114 -10 90 -1 74 17 C 58 35 50 57 50 84 C 50 91 50 100 51 111 C 52 121 54 133 58 147 L 96 293 C 98 301 100 310 101 319 C 101 328 102 334 102 337 C 102 351 99 361 94 368 C 88 375 77 379 61 380 C 58 380 55 380 52 380 C 49 380 48 381 48 383 C 48 384 48 385 48 387 C 48 389 48 391 49 393 L 51 400 C 71 400 93 403 117 407 C 140 411 163 419 187 430 L 201 430 L 129 152 C 126 142 124 131 123 120 C 121 108 121 100 121 96 C 121 73 126 56 138 44 C 149 32 165 27 186 27 C 210 27 237 35 265 52 C 293 68 316 86 336 106 L 382 293 C 384 301 385 310 386 319 C 387 328 388 334 388 337 C 388 351 385 361 380 368 C 374 375 363 379 347 380 C 344 380 341 380 338 380 C 335 380 334 381 334 383 C 334 384 334 385 334 387 C 334 389 334 391 335 393 L 337 400 C 357 400 379 403 403 407 C 426 411 449 419 473 430 L 485 430 L 401 91 C 400 86 399 81 398 77 C 397 72 397 68 397 65 C 397 54 399 44 405 36 C 411 28 422 24 439 24 C 446 24 454 25 462 28 C 470 30 477 34 484 39 Z" unicode="" />
<glyph horiz-adv-x="512" d="M 405 605 C 417 605 428 600 437 591 C 446 582 451 572 451 560 C 451 548 446 537 437 528 C 428 519 417 515 405 515 C 392 515 381 519 372 528 C 363 537 359 548 359 560 C 359 572 363 582 372 591 C 381 600 392 605 405 605 Z M 223 605 C 235 605 246 600 255 591 C 264 582 269 572 269 560 C 269 548 264 537 255 528 C 246 519 235 515 223 515 C 210 515 199 519 190 528 C 181 537 177 548 177 560 C 177 572 181 582 190 591 C 199 600 210 605 223 605 Z M 484 39 L 489 24 C 481 17 467 10 448 2 C 429 -6 408 -10 386 -10 C 364 -10 349 -4 341 6 C 333 17 330 31 330 49 C 330 53 330 57 330 61 C 330 65 331 69 332 74 C 304 51 275 31 247 15 C 219 -1 186 -10 148 -10 C 114 -10 90 -1 74 17 C 58 35 50 57 50 84 C 50 91 50 100 51 111 C 52 121 54 133 58 147 L 96 293 C 98 301 100 310 101 319 C 101 328 102 334 102 337 C 102 351 99 361 94 368 C 88 375 77 379 61 380 C 58 380 55 380 52 380 C 49 380 48 381 48 383 C 48 384 48 385 48 387 C 48 389 48 391 49 393 L 51 400 C 71 400 93 403 117 407 C 140 411 163 419 187 430 L 201 430 L 129 152 C 126 142 124 131 123 120 C 121 108 121 100 121 96 C 121 73 126 56 138 44 C 149 32 165 27 186 27 C 210 27 237 35 265 52 C 293 68 316 86 336 106 L 382 293 C 384 301 385 310 386 319 C 387 328 388 334 388 337 C 388 351 385 361 380 368 C 374 375 363 379 347 380 C 344 380 341 380 338 380 C 335 380 334 381 334 383 C 334 384 334 385 334 387 C 334 389 334 391 335 393 L 337 400 C 357 400 379 403 403 407 C 426 411 449 419 473 430 L 485 430 L 401 91 C 400 86 399 81 398 77 C 397 72 397 68 397 65 C 397 54 399 44 405 36 C 411 28 422 24 439 24 C 446 24 454 25 462 28 C 470 30 477 34 484 39 Z" unicode="" />
<glyph horiz-adv-x="427" d="M 391 656 C 401 656 408 652 413 644 C 417 636 420 627 420 617 C 420 609 416 602 410 595 C 403 587 393 580 381 573 L 228 484 L 212 495 L 339 628 C 349 639 358 646 366 650 C 374 654 382 656 391 656 Z M 395 433 C 409 433 420 428 428 418 C 435 408 439 396 439 384 C 439 368 433 347 422 321 C 411 295 396 266 378 234 C 360 202 339 169 316 134 C 293 99 270 65 246 33 C 228 8 208 -17 188 -45 C 168 -72 147 -97 125 -119 C 103 -141 79 -160 55 -175 C 31 -189 6 -197 -20 -197 C -42 -197 -60 -191 -73 -180 C -86 -169 -93 -155 -93 -139 C -93 -129 -89 -120 -81 -112 C -73 -103 -63 -99 -50 -99 C -38 -99 -27 -103 -19 -113 C -11 -123 -5 -142 -3 -170 C 14 -166 32 -158 51 -146 C 69 -133 87 -119 104 -103 C 120 -87 136 -70 150 -54 C 164 -38 175 -24 183 -14 C 170 53 158 113 148 165 C 138 217 124 271 106 325 C 100 341 92 357 80 373 C 68 389 56 397 43 397 C 34 397 26 395 18 392 C 10 388 2 384 -6 380 L -9 397 C 0 403 13 411 32 420 C 51 428 69 433 86 433 C 114 433 135 421 150 397 C 164 373 177 340 188 297 C 198 258 207 217 215 175 C 223 133 230 93 236 57 C 264 97 289 136 309 172 C 329 208 344 238 355 261 C 362 276 367 288 371 298 C 374 307 379 320 386 337 C 374 343 364 351 357 359 C 350 367 347 378 347 390 C 347 400 351 409 359 419 C 367 428 379 433 395 433 Z" unicode="" />
<glyph horiz-adv-x="427" d="M 354 605 C 366 605 377 600 386 591 C 395 582 400 572 400 560 C 400 548 395 537 386 528 C 377 519 366 515 354 515 C 341 515 330 519 321 528 C 312 537 308 548 308 560 C 308 572 312 582 321 591 C 330 600 341 605 354 605 Z M 172 605 C 184 605 195 600 204 591 C 213 582 218 572 218 560 C 218 548 213 537 204 528 C 195 519 184 515 172 515 C 159 515 148 519 139 528 C 130 537 126 548 126 560 C 126 572 130 582 139 591 C 148 600 159 605 172 605 Z M 395 433 C 409 433 420 428 428 418 C 435 408 439 396 439 384 C 439 368 433 347 422 321 C 411 295 396 266 378 234 C 360 202 339 169 316 134 C 293 99 270 65 246 33 C 228 8 208 -17 188 -45 C 168 -72 147 -97 125 -119 C 103 -141 79 -160 55 -175 C 31 -189 6 -197 -20 -197 C -42 -197 -60 -191 -73 -180 C -86 -169 -93 -155 -93 -139 C -93 -129 -89 -120 -81 -112 C -73 -103 -63 -99 -50 -99 C -38 -99 -27 -103 -19 -113 C -11 -123 -5 -142 -3 -170 C 14 -166 32 -158 51 -146 C 69 -133 87 -119 104 -103 C 120 -87 136 -70 150 -54 C 164 -38 175 -24 183 -14 C 170 53 158 113 148 165 C 138 217 124 271 106 325 C 100 341 92 357 80 373 C 68 389 56 397 43 397 C 34 397 26 395 18 392 C 10 388 2 384 -6 380 L -9 397 C 0 403 13 411 32 420 C 51 428 69 433 86 433 C 114 433 135 421 150 397 C 164 373 177 340 188 297 C 198 258 207 217 215 175 C 223 133 230 93 236 57 C 264 97 289 135 309 172 C 329 208 344 238 355 261 C 362 276 367 288 371 298 C 374 307 379 320 386 337 C 374 343 364 351 357 359 C 350 367 347 378 347 390 C 347 400 351 409 359 419 C 367 428 379 433 395 433 Z" unicode="" />
<glyph horiz-adv-x="238" d="M 208 39 L 212 23 C 204 17 191 10 172 2 C 153 -6 132 -10 110 -10 C 87 -10 71 -4 61 5 C 51 15 47 28 47 42 C 47 48 47 57 49 69 C 50 80 52 92 56 105 L 106 295 C 108 303 109 311 111 320 C 112 328 113 334 113 337 C 113 351 110 362 104 369 C 98 375 87 379 71 380 C 68 380 65 380 62 380 C 59 380 58 381 58 383 C 58 384 58 385 58 387 C 58 389 58 391 59 393 L 61 400 C 81 400 103 403 125 407 C 147 411 170 419 194 430 L 210 430 L 129 115 C 126 103 124 92 122 82 C 120 72 120 66 120 63 C 120 52 123 43 129 35 C 135 27 146 24 162 24 C 170 24 178 25 186 28 C 194 31 201 35 208 39 Z" unicode="" />
<glyph horiz-adv-x="570" d="M 514 150 L 530 150 L 493 0 L -30 0 L -27 14 C -26 17 -24 19 -20 20 C -16 21 -10 23 0 26 C 13 29 23 33 29 39 C 35 45 39 54 43 67 L 110 335 L 26 291 L 35 327 L 120 373 L 188 644 C 189 649 190 655 192 661 C 193 667 194 671 194 673 C 194 681 191 687 187 692 C 182 696 173 700 160 704 C 154 705 148 706 144 707 C 140 708 138 710 138 713 C 138 714 138 715 138 717 C 138 719 139 721 140 723 L 142 730 L 344 730 L 341 716 C 340 712 338 710 334 709 C 330 708 324 706 314 704 C 300 700 290 696 284 690 C 278 684 273 675 271 663 L 207 408 L 357 487 L 347 448 L 198 371 L 113 29 L 364 29 C 394 29 417 37 435 54 C 452 70 472 96 494 132 C 498 138 501 142 503 145 C 505 148 509 150 514 150 Z" unicode="" />
<glyph horiz-adv-x="233" d="M 193 400 L 279 447 L 271 414 L 184 368 L 121 114 C 118 102 116 91 114 81 C 112 71 112 65 112 62 C 112 51 115 42 121 34 C 127 26 139 23 155 23 C 163 23 171 24 179 28 C 187 31 194 35 201 39 L 205 22 C 197 16 184 10 165 2 C 146 -6 125 -10 103 -10 C 80 -10 64 -5 54 5 C 44 15 40 27 40 42 C 40 48 40 58 42 70 C 44 82 46 93 49 105 L 107 338 L 24 294 L 32 327 L 116 372 L 183 642 C 185 650 186 658 188 666 C 189 674 190 678 190 680 C 190 686 188 691 185 695 C 181 699 173 703 160 707 C 153 709 148 710 145 711 C 141 711 140 713 140 716 C 140 717 140 719 140 721 C 140 723 141 725 142 727 L 143 730 L 275 730 L 193 400 Z" unicode="" />
<glyph horiz-adv-x="1003" d="M 953 730 C 965 730 981 731 999 733 C 1017 735 1032 736 1044 738 L 1012 609 L 996 609 C 990 609 986 610 984 612 C 982 614 980 616 980 620 C 978 636 975 650 973 661 C 971 671 967 679 962 685 C 956 691 948 695 938 697 C 927 699 913 701 895 701 L 697 701 L 617 389 L 742 389 C 762 389 777 393 786 403 C 795 412 804 423 814 437 C 818 443 822 447 826 450 C 830 452 835 454 843 454 L 853 454 L 812 288 L 797 288 C 792 288 788 289 786 292 C 784 295 782 299 782 304 C 779 324 775 339 770 347 C 764 355 753 359 737 359 L 610 359 L 527 29 L 786 29 C 815 29 839 37 857 54 C 875 71 895 96 916 129 C 918 131 920 135 923 140 C 925 144 929 147 935 147 L 951 147 L 914 0 L 395 0 C 337 0 287 7 244 22 C 200 37 164 58 136 84 C 107 110 85 142 71 180 C 57 218 50 259 50 304 C 50 366 61 423 84 475 C 106 526 137 570 175 608 C 219 651 269 682 327 701 C 385 720 445 730 509 730 L 953 730 Z M 599 625 C 601 635 603 645 605 654 C 606 663 607 670 607 675 C 606 687 598 695 584 698 C 569 700 548 702 522 702 C 468 702 415 693 364 677 C 312 661 270 635 237 599 C 204 564 178 519 160 465 C 142 410 133 351 133 287 C 133 199 156 134 202 92 C 248 49 315 28 403 28 C 425 28 439 32 446 41 C 452 49 459 66 466 91 L 599 625 Z" unicode="" />
<glyph horiz-adv-x="722" d="M 598 435 C 634 435 662 426 684 409 C 706 392 717 369 717 341 C 717 309 707 284 689 266 C 671 248 649 234 624 225 C 599 215 573 209 546 207 C 519 205 497 204 481 204 L 419 204 C 419 198 418 192 418 186 C 417 180 417 175 417 171 C 417 141 420 117 428 98 C 435 79 445 64 457 54 C 469 43 482 35 498 31 C 513 27 528 25 544 25 C 568 25 593 31 619 44 C 644 57 668 76 692 101 L 704 85 C 685 61 661 39 633 19 C 604 0 565 -10 516 -10 C 480 -10 450 -2 426 14 C 401 30 382 50 370 76 C 348 50 322 30 292 14 C 262 -2 229 -10 193 -10 C 137 -10 95 7 67 43 C 38 79 24 124 24 179 C 24 211 29 242 40 273 C 50 304 66 332 87 356 C 107 380 133 399 163 414 C 193 429 228 437 267 437 C 302 437 332 428 357 411 C 381 393 400 370 413 342 C 435 368 461 390 493 408 C 525 426 560 435 598 435 Z M 200 16 C 226 16 249 22 269 36 C 289 49 306 67 320 90 C 333 112 343 139 350 170 C 357 201 361 234 361 270 C 361 312 352 346 336 372 C 320 398 294 411 258 411 C 230 411 206 404 186 390 C 166 376 149 357 136 334 C 122 310 112 283 106 252 C 100 221 97 189 97 156 C 97 114 105 81 121 55 C 137 29 163 16 200 16 Z M 421 227 C 453 227 483 228 511 232 C 539 235 563 241 583 249 C 603 257 620 268 632 282 C 644 296 650 314 650 337 C 650 359 644 376 632 388 C 620 400 603 406 581 406 C 544 406 511 391 481 361 C 451 331 431 287 421 227 Z" unicode="" />
<glyph horiz-adv-x="561" d="M 521 938 L 542 938 L 386 776 L 334 776 L 250 938 L 271 938 L 366 833 L 521 938 Z M 543 710 L 557 710 L 518 551 L 496 551 C 494 551 492 551 492 552 C 491 553 491 554 491 556 C 485 606 469 645 443 672 C 417 698 382 712 337 712 C 293 712 257 699 228 673 C 199 647 185 614 185 574 C 185 547 191 523 204 503 C 217 482 236 465 260 451 C 277 441 297 430 320 420 C 342 409 359 401 370 397 C 424 371 462 343 484 315 C 505 286 516 255 516 221 C 516 191 510 163 498 135 C 486 107 470 82 448 60 C 426 38 398 21 365 8 C 332 -4 295 -11 253 -11 C 217 -11 184 -6 154 4 C 124 14 95 27 67 44 C 65 45 60 47 54 51 C 48 54 43 56 39 56 C 33 56 29 54 25 51 C 21 47 17 43 13 39 C 10 36 8 33 6 31 C 4 29 1 28 -1 28 L -19 28 L 21 188 L 42 188 C 45 188 47 186 48 184 C 49 181 50 177 52 173 C 60 145 72 122 87 102 C 102 82 119 66 137 54 C 155 41 175 32 195 26 C 215 20 235 17 254 17 C 310 17 355 32 391 62 C 427 92 445 134 445 186 C 445 220 434 248 412 269 C 390 290 364 308 334 323 C 312 333 294 342 278 350 C 262 358 245 367 228 376 C 186 396 156 421 140 451 C 123 480 115 511 115 545 C 115 569 120 593 131 617 C 141 641 156 662 176 680 C 195 698 219 713 247 724 C 275 735 306 741 341 741 C 360 741 382 738 407 733 C 432 728 458 718 484 704 C 487 702 491 700 495 698 C 499 696 503 695 507 695 C 509 695 512 695 515 696 C 518 697 521 699 524 701 C 530 705 533 707 534 708 C 535 709 538 710 543 710 Z" unicode="" />
<glyph horiz-adv-x="363" d="M 374 647 L 395 647 L 252 485 L 200 485 L 123 647 L 144 647 L 230 542 L 374 647 Z M 225 435 C 265 435 296 427 316 412 C 336 397 346 382 346 368 C 346 353 341 342 333 334 C 324 326 314 323 304 323 C 293 323 284 326 278 333 C 272 339 269 348 269 358 C 269 362 270 368 272 375 C 274 382 278 390 282 399 C 275 401 267 403 258 407 C 248 411 233 413 213 413 C 190 413 169 405 150 391 C 131 377 122 357 122 333 C 122 313 130 295 146 281 C 162 267 191 250 233 232 C 265 217 289 201 305 183 C 320 165 328 146 328 125 C 328 109 324 93 316 77 C 308 61 297 46 283 33 C 268 20 249 10 227 2 C 204 -6 178 -10 149 -10 C 103 -10 67 0 41 17 C 15 35 2 55 2 77 C 2 89 5 99 13 109 C 20 118 31 123 45 123 C 58 123 67 119 73 113 C 79 106 82 98 82 89 C 82 80 79 72 74 64 C 69 56 66 50 66 47 C 76 36 90 27 109 21 C 127 14 146 11 165 11 C 193 11 217 19 237 36 C 256 52 266 72 266 95 C 266 121 255 140 233 153 C 211 165 184 180 152 196 C 116 214 92 231 80 249 C 68 266 63 285 63 307 C 63 325 67 341 76 357 C 85 373 97 386 112 398 C 126 409 143 418 163 425 C 183 431 203 435 225 435 Z" unicode="" />
<glyph horiz-adv-x="622" d="M 545 894 C 557 894 568 889 578 880 C 587 871 592 860 592 848 C 592 835 587 824 578 815 C 568 806 557 802 545 802 C 532 802 521 806 512 815 C 502 824 498 835 498 848 C 498 860 502 871 512 880 C 521 889 532 894 545 894 Z M 338 894 C 350 894 361 889 371 880 C 380 871 385 860 385 848 C 385 835 380 824 371 815 C 361 806 350 802 338 802 C 324 802 313 806 304 815 C 295 824 291 835 291 848 C 291 860 295 871 304 880 C 313 889 324 894 338 894 Z M 567 730 L 746 730 L 743 717 C 742 712 740 709 736 709 C 732 708 727 707 720 705 C 711 702 701 697 690 689 C 678 681 664 667 647 649 L 367 337 L 303 88 C 301 82 300 75 299 69 C 298 62 298 58 298 57 C 298 48 300 41 305 37 C 310 33 319 29 333 26 C 339 24 344 23 348 22 C 352 21 355 19 355 17 C 355 15 354 14 354 12 C 354 10 353 9 353 7 L 351 0 L 145 0 L 148 14 C 148 17 150 19 154 20 C 158 21 165 23 175 26 C 188 29 198 33 205 39 C 212 45 217 54 221 67 L 287 331 L 148 658 C 143 669 137 679 130 687 C 123 695 114 700 103 704 C 95 706 90 708 86 708 C 82 708 81 709 81 712 C 81 713 81 715 81 717 C 81 719 82 721 83 724 L 85 730 L 287 730 L 285 719 C 284 714 282 711 278 710 C 274 709 268 707 259 705 C 246 701 237 697 233 693 C 228 689 226 684 226 680 C 226 676 227 671 229 663 C 231 655 233 647 237 639 L 352 368 L 584 632 C 592 641 600 650 606 660 C 612 670 615 677 615 681 C 615 683 613 687 610 691 C 606 695 598 700 585 704 C 578 706 573 707 569 708 C 565 708 563 710 563 712 C 563 713 563 715 563 717 C 563 719 564 721 565 723 L 567 730 Z" unicode="" />
<glyph horiz-adv-x="599" d="M 563 938 L 584 938 L 428 776 L 376 776 L 292 938 L 313 938 L 408 833 L 563 938 Z M 261 730 L 658 730 C 656 721 653 714 651 709 C 648 704 643 698 637 691 L 59 29 L 367 29 C 396 29 421 37 442 54 C 462 71 483 97 505 132 C 509 138 512 143 515 146 C 517 148 521 150 526 150 L 543 150 L 503 -8 C 493 -7 478 -5 456 -3 C 434 -1 417 0 405 0 L -40 0 L -39 5 C -38 11 -36 16 -33 21 C -29 26 -25 32 -19 39 L 556 701 L 270 701 C 248 701 230 694 214 680 C 198 666 183 646 169 621 C 164 612 159 607 154 605 C 149 603 143 602 137 602 L 125 602 L 159 737 C 169 735 185 734 207 732 C 228 730 246 730 261 730 Z" unicode="" />
<glyph horiz-adv-x="394" d="M 387 647 L 408 647 L 265 485 L 213 485 L 136 647 L 157 647 L 243 542 L 387 647 Z M 405 434 L 414 421 L 55 63 L 57 60 C 76 61 90 62 98 64 C 106 65 117 66 132 66 C 155 66 175 63 192 59 C 209 55 224 50 237 45 C 250 40 262 35 273 31 C 283 27 294 25 305 25 C 311 25 319 27 328 32 C 337 37 342 48 342 64 C 342 72 340 78 336 82 C 332 86 327 89 322 93 C 317 97 313 101 309 107 C 305 112 303 120 303 132 C 303 142 306 150 314 156 C 321 162 329 165 338 165 C 344 165 352 161 362 155 C 372 149 377 135 377 115 C 377 93 373 75 366 59 C 358 43 348 30 336 20 C 324 10 310 2 294 -2 C 278 -7 263 -10 247 -10 C 216 -10 190 -5 168 2 C 146 10 118 15 85 15 C 68 15 52 13 36 10 C 20 6 1 3 -21 -1 L -29 15 L 335 381 L 333 384 C 308 375 288 369 273 367 C 257 364 244 363 233 363 C 211 363 193 364 178 367 C 162 369 145 371 126 371 C 106 371 90 365 78 354 C 66 343 57 333 49 324 L 37 334 C 38 338 41 345 47 356 C 52 366 59 377 69 388 C 79 399 91 409 107 418 C 122 426 140 431 162 431 C 178 431 191 430 200 428 C 209 426 218 425 226 423 C 234 421 243 419 254 417 C 265 415 281 415 302 415 C 333 415 356 417 371 421 C 385 425 397 429 405 434 Z" unicode="" />
<glyph horiz-adv-x="456" d="M 444 693 C 470 693 487 687 495 677 C 503 666 507 655 507 645 C 507 634 503 625 495 618 C 487 610 477 607 464 607 C 455 607 445 610 435 618 C 425 625 420 641 420 666 C 415 665 410 664 405 663 C 400 661 395 660 391 658 C 378 652 367 644 357 633 C 347 622 339 610 332 597 C 324 584 318 571 313 557 C 308 543 304 530 302 518 L 262 373 L 387 373 L 379 345 L 257 345 L 146 -137 L 73 -137 L 186 345 L 97 345 L 103 373 L 164 373 C 178 373 188 377 194 387 C 200 397 204 406 206 415 C 213 451 224 486 238 520 C 252 554 270 583 290 609 C 310 635 333 655 359 670 C 385 685 413 693 444 693 Z" unicode="" />
<glyph horiz-adv-x="406" d="M 304 647 L 381 485 L 360 485 L 274 590 L 130 485 L 109 485 L 252 647 L 304 647 Z" unicode="" />
<glyph horiz-adv-x="406" d="M 385 647 L 406 647 L 263 485 L 211 485 L 134 647 L 155 647 L 241 542 L 385 647 Z" unicode="" />
<glyph horiz-adv-x="406" d="M 114 592 L 398 592 L 383 545 L 99 545 L 114 592 Z" unicode="" />
<glyph horiz-adv-x="406" d="M 353 651 L 378 651 C 371 630 363 610 354 590 C 344 570 333 553 320 538 C 307 522 291 510 273 501 C 255 491 233 487 209 487 C 167 487 139 500 127 527 C 115 553 109 584 109 620 C 109 624 109 629 109 635 C 109 641 109 646 110 651 L 136 651 C 138 620 145 594 155 573 C 165 551 189 541 225 541 C 263 541 290 551 307 573 C 323 594 339 620 353 651 Z" unicode="" />
<glyph horiz-adv-x="406" d="M 245 633 C 259 633 270 628 280 619 C 290 609 295 598 295 584 C 295 570 290 558 280 549 C 270 539 259 535 245 535 C 231 535 219 539 210 549 C 200 558 196 570 196 584 C 196 598 200 609 210 619 C 219 628 231 633 245 633 Z" unicode="" />
<glyph horiz-adv-x="406" d="M 264 670 C 290 670 312 662 328 648 C 344 633 352 614 352 591 C 352 562 341 536 319 514 C 297 491 270 480 238 480 C 211 480 189 487 173 503 C 156 518 148 537 148 560 C 148 589 159 615 181 637 C 203 659 231 670 264 670 Z M 240 501 C 260 501 277 509 290 527 C 302 544 309 567 309 596 C 309 613 304 626 296 635 C 288 644 276 649 262 649 C 240 649 223 640 210 623 C 197 606 191 583 191 555 C 191 537 195 523 203 514 C 211 505 224 501 240 501 Z" unicode="" />
<glyph horiz-adv-x="406" d="M 380 625 L 401 625 C 395 595 382 569 363 548 C 344 527 323 517 300 517 C 288 517 279 518 273 522 C 266 526 255 532 241 542 C 228 550 217 556 208 561 C 199 565 190 568 180 568 C 166 568 153 562 143 550 C 133 538 125 525 121 511 L 100 511 C 106 540 118 565 138 586 C 157 606 178 617 202 617 C 216 617 227 615 235 611 C 242 607 251 601 262 594 C 274 585 285 578 295 573 C 304 568 313 566 322 566 C 336 566 348 572 358 584 C 368 596 376 610 380 625 Z" unicode="" />
<glyph horiz-adv-x="600" d="M 259 421 L 598 420 L 584 372 L 495 372 L 437 119 C 436 113 435 105 433 94 C 431 82 430 74 430 69 C 430 46 437 33 451 29 C 465 25 477 23 487 23 C 492 23 498 23 504 25 C 510 27 515 29 520 31 C 520 28 521 26 521 24 C 521 22 522 19 522 17 C 522 11 518 6 511 3 C 504 0 496 -3 487 -5 C 478 -7 469 -8 461 -9 C 452 -9 446 -10 442 -10 C 420 -10 401 -4 386 8 C 370 20 363 39 363 66 C 363 73 364 83 366 95 C 368 107 369 117 371 126 L 427 372 L 274 374 C 269 351 263 326 257 300 C 251 274 244 245 236 215 C 230 192 222 167 213 141 C 203 115 192 90 180 68 C 167 46 152 27 136 13 C 119 -1 100 -9 79 -9 C 66 -9 55 -5 47 2 C 38 9 34 19 34 31 C 34 45 38 57 48 67 C 57 77 67 82 79 82 C 83 82 90 80 98 76 C 106 72 116 62 129 44 C 143 67 155 93 167 121 C 179 149 189 177 198 206 C 206 235 214 264 221 293 C 228 321 234 348 239 374 C 198 373 167 365 147 349 C 127 333 110 314 98 290 L 72 291 C 88 331 112 362 143 386 C 174 409 213 421 259 421 Z" unicode="" />
<glyph horiz-adv-x="559" d="M 48 243 L 525 243 L 516 203 L 39 203 L 48 243 Z" unicode="" />
<glyph horiz-adv-x="1082" d="M 48 243 L 1048 243 L 1039 203 L 39 203 L 48 243 Z" unicode="" />
<glyph horiz-adv-x="1000" d="M -48 30 L 966 30 L 958 0 L -56 0 L -48 30 Z" unicode="" />
<glyph horiz-adv-x="220" d="M 276 739 L 289 724 C 267 711 244 695 221 675 C 197 655 179 629 166 595 C 194 594 212 589 220 579 C 227 569 231 558 231 548 C 231 531 225 518 214 509 C 202 500 190 496 178 496 C 159 496 145 501 137 512 C 128 522 124 535 124 551 C 124 583 136 618 161 654 C 186 690 224 718 276 739 Z" unicode="" />
<glyph horiz-adv-x="220" d="M 197 740 C 215 740 229 734 238 724 C 246 713 251 700 251 685 C 251 652 238 618 213 582 C 188 546 150 517 99 497 L 86 512 C 108 524 130 540 154 560 C 177 580 195 607 209 641 C 180 641 162 647 155 657 C 147 667 144 677 144 688 C 144 704 149 717 161 726 C 172 735 184 740 197 740 Z" unicode="" />
<glyph horiz-adv-x="220" d="M 70 102 C 88 102 102 96 111 86 C 119 75 124 62 124 47 C 124 14 111 -20 86 -56 C 61 -92 23 -120 -28 -141 L -41 -126 C -19 -113 3 -97 27 -77 C 50 -57 68 -31 82 3 C 53 3 35 9 28 19 C 20 29 17 39 17 50 C 17 66 22 79 34 88 C 45 97 57 102 70 102 Z" unicode="" />
<glyph horiz-adv-x="375" d="M 431 739 L 444 724 C 422 711 399 695 376 675 C 352 655 334 629 321 595 C 349 594 367 589 375 579 C 382 569 386 558 386 548 C 386 531 380 518 369 509 C 357 500 345 496 333 496 C 314 496 300 501 292 512 C 283 522 279 535 279 551 C 279 583 291 618 316 654 C 341 690 379 718 431 739 Z M 276 739 L 289 724 C 267 711 244 695 221 675 C 197 655 179 629 166 595 C 194 594 212 589 220 579 C 227 569 231 558 231 548 C 231 531 225 518 214 509 C 202 500 190 496 178 496 C 159 496 145 501 137 512 C 128 522 124 535 124 551 C 124 583 136 618 161 654 C 186 690 224 718 276 739 Z" unicode="" />
<glyph horiz-adv-x="375" d="M 352 740 C 370 740 384 734 393 724 C 401 713 406 700 406 685 C 406 652 393 618 368 582 C 343 546 305 517 254 497 L 241 512 C 263 524 285 540 309 560 C 332 580 350 607 364 641 C 335 641 317 647 310 657 C 302 667 299 677 299 688 C 299 704 304 717 316 726 C 327 735 339 740 352 740 Z M 197 740 C 215 740 229 734 238 724 C 246 713 251 700 251 685 C 251 652 238 618 213 582 C 188 546 150 517 99 497 L 86 512 C 108 524 130 540 154 560 C 177 580 195 607 209 641 C 180 641 162 647 155 657 C 147 667 144 677 144 688 C 144 704 149 717 161 726 C 172 735 184 740 197 740 Z" unicode="" />
<glyph horiz-adv-x="375" d="M 225 102 C 243 102 257 96 266 86 C 274 75 279 62 279 47 C 279 14 266 -20 241 -56 C 216 -92 178 -120 127 -141 L 114 -126 C 136 -113 158 -97 182 -77 C 205 -57 223 -31 237 3 C 208 3 190 9 183 19 C 175 29 172 39 172 50 C 172 66 177 79 189 88 C 200 97 212 102 225 102 Z M 70 102 C 88 102 102 96 111 86 C 119 75 124 62 124 47 C 124 14 111 -20 86 -56 C 61 -92 23 -120 -28 -141 L -41 -126 C -19 -113 3 -97 27 -77 C 50 -57 68 -31 82 3 C 53 3 35 9 28 19 C 20 29 17 39 17 50 C 17 66 22 79 34 88 C 45 97 57 102 70 102 Z" unicode="" />
<glyph horiz-adv-x="430" d="M 397 562 C 413 562 427 559 437 553 C 447 547 453 538 453 527 C 453 517 449 508 443 501 C 436 494 428 491 418 491 C 416 491 414 491 412 491 C 410 491 408 491 407 492 C 395 494 386 498 381 502 C 375 506 370 510 364 514 C 358 518 351 522 342 527 C 332 531 317 536 297 541 C 293 533 291 521 290 507 C 288 492 288 476 288 458 C 288 448 288 438 289 428 C 290 418 291 409 293 402 C 283 388 273 368 263 344 C 253 319 243 291 233 260 C 223 228 214 194 205 157 C 195 119 186 81 176 43 L 149 49 C 157 83 164 116 172 149 C 180 182 187 213 193 243 C 199 272 203 299 207 324 C 210 349 212 371 212 389 C 212 395 211 401 211 407 C 211 412 210 417 210 421 C 226 439 240 461 251 487 C 262 513 270 533 274 547 C 260 550 250 552 246 552 C 241 552 236 553 232 553 C 222 553 213 552 204 551 C 195 549 188 549 183 549 C 168 549 154 551 141 556 C 128 560 122 570 122 585 C 122 594 125 602 132 609 C 139 616 148 620 158 620 C 160 620 162 620 164 620 C 166 620 168 619 170 619 C 182 616 190 613 195 609 C 199 605 204 601 210 597 C 215 593 223 588 233 584 C 243 579 258 574 280 570 C 282 585 284 598 285 608 C 285 618 286 626 286 634 C 286 640 285 647 284 654 C 283 660 283 667 283 673 C 283 693 286 708 292 718 C 298 728 307 733 321 733 C 331 733 339 730 346 724 C 353 718 357 710 357 700 L 357 690 C 353 678 349 668 345 661 C 341 653 336 646 331 639 C 326 631 321 622 316 611 C 311 599 307 584 303 564 C 315 561 324 559 328 559 C 332 559 338 559 345 559 C 354 559 363 559 372 560 C 380 561 389 562 397 562 Z" unicode="" />
<glyph horiz-adv-x="430" d="M 397 562 C 407 562 419 559 433 555 C 446 551 453 541 453 527 C 453 517 449 508 443 501 C 436 494 428 491 418 491 C 416 491 414 491 412 491 C 410 491 409 491 407 492 C 393 494 384 498 378 504 C 372 509 363 515 353 521 C 344 525 335 529 325 533 C 315 536 306 539 297 541 C 294 535 292 526 290 516 C 288 505 286 494 285 482 C 284 470 283 459 283 448 C 282 437 282 428 282 422 C 282 415 282 408 282 400 C 282 392 283 385 285 379 C 277 371 270 360 263 348 C 255 335 249 322 243 308 C 237 294 231 281 226 267 C 221 253 217 241 215 231 C 221 229 227 228 233 227 C 239 225 245 225 251 225 C 259 225 268 225 278 227 C 288 228 297 229 306 229 C 318 229 331 226 345 222 C 359 218 367 208 367 193 C 367 183 363 174 356 168 C 348 161 340 158 331 158 C 329 158 327 158 325 158 C 323 158 321 158 319 159 C 305 161 295 165 290 171 C 285 176 277 182 267 188 C 258 192 248 196 238 200 C 228 203 218 206 209 208 C 207 197 205 186 204 176 C 203 165 203 154 203 144 C 203 137 203 130 204 124 C 205 118 206 111 206 105 C 206 91 203 78 199 65 C 195 51 184 45 168 45 C 153 45 143 49 139 57 C 134 65 132 75 132 88 C 132 96 137 108 148 124 C 158 140 166 153 170 162 C 173 170 176 178 179 187 C 181 196 184 205 186 214 C 180 215 175 216 169 217 C 163 218 158 219 153 219 C 142 219 132 218 122 217 C 112 216 102 216 92 216 C 81 216 69 218 56 222 C 42 226 36 236 36 251 C 36 261 39 269 46 276 C 52 283 61 287 71 287 C 73 287 74 287 76 287 C 78 287 80 286 82 286 C 95 283 105 279 111 274 C 117 268 125 263 136 257 C 144 252 153 248 163 245 C 173 241 182 239 192 237 C 194 243 197 251 199 262 C 201 272 202 283 203 295 C 204 306 205 317 206 328 C 206 339 207 348 207 355 C 207 361 206 368 206 376 C 206 384 205 391 204 398 C 211 406 218 416 226 429 C 233 441 240 454 246 468 C 252 482 257 496 262 510 C 267 524 271 536 274 547 C 268 548 262 549 256 551 C 250 552 244 553 238 553 C 229 553 220 552 210 551 C 200 549 191 549 183 549 C 171 549 157 551 143 555 C 129 559 122 569 122 585 C 122 595 125 603 133 610 C 140 616 148 620 158 620 C 160 620 162 620 164 620 C 166 620 168 619 170 619 C 184 616 193 612 198 607 C 203 601 211 596 222 590 C 230 585 240 581 250 578 C 260 574 270 572 280 570 C 282 580 283 591 284 602 C 285 612 286 623 286 634 C 286 640 285 647 284 653 C 283 659 283 666 283 673 C 283 686 285 699 289 713 C 293 726 304 733 321 733 C 335 733 345 729 350 721 C 354 713 357 702 357 690 C 357 682 351 669 341 653 C 330 637 323 624 319 616 C 315 608 312 599 310 590 C 307 581 305 572 303 564 C 308 562 313 561 319 560 C 325 559 330 559 336 559 C 346 559 357 559 367 560 C 377 561 387 562 397 562 Z" unicode="" />
<glyph horiz-adv-x="423" d="M 212 544 C 238 544 263 538 287 528 C 310 518 330 504 348 486 C 365 468 379 448 389 425 C 399 401 405 376 405 350 C 405 323 399 298 389 275 C 379 251 365 231 348 213 C 330 195 310 181 287 171 C 263 161 238 156 212 156 C 185 156 160 161 136 171 C 112 181 92 195 75 213 C 57 231 43 251 33 275 C 23 298 18 323 18 350 C 18 376 23 401 33 425 C 43 448 57 468 75 486 C 92 504 112 518 136 528 C 160 538 185 544 212 544 Z" unicode="" />
<glyph horiz-adv-x="804" d="M 640 98 C 654 98 667 93 677 83 C 687 73 693 60 693 46 C 693 31 687 19 677 9 C 667 -1 654 -6 640 -6 C 625 -6 613 -1 603 9 C 593 19 588 31 588 46 C 588 60 593 73 603 83 C 613 93 625 98 640 98 Z M 372 98 C 386 98 399 93 409 83 C 419 73 425 60 425 46 C 425 31 419 19 409 9 C 399 -1 386 -6 372 -6 C 357 -6 345 -1 335 9 C 325 19 320 31 320 46 C 320 60 325 73 335 83 C 345 93 357 98 372 98 Z M 104 98 C 118 98 131 93 141 83 C 151 73 157 60 157 46 C 157 31 151 19 141 9 C 131 -1 118 -6 104 -6 C 89 -6 77 -1 67 9 C 57 19 52 31 52 46 C 52 60 57 73 67 83 C 77 93 89 98 104 98 Z" unicode="" />
<glyph horiz-adv-x="1216" d="M 717 704 L 744 686 L 204 -38 L 160 -6 L 654 608 L 651 611 C 637 602 622 592 604 580 C 586 568 567 557 545 547 C 523 536 500 526 475 518 C 449 510 422 505 394 503 C 391 477 384 453 372 429 C 360 405 345 384 327 366 C 309 348 290 333 268 322 C 246 311 224 306 202 306 C 166 306 135 321 110 351 C 85 381 73 418 73 463 C 73 490 78 517 88 545 C 98 573 112 598 130 620 C 147 642 168 660 192 674 C 216 688 243 695 271 695 C 290 695 307 690 323 682 C 339 673 352 661 363 646 C 374 631 382 614 388 594 C 394 574 397 554 397 532 C 437 536 474 544 508 557 C 542 570 572 585 599 603 C 625 620 649 638 669 656 C 689 674 705 690 717 704 Z M 341 527 C 341 537 342 545 342 552 C 342 558 343 564 343 569 C 343 600 336 625 324 644 C 312 662 293 672 268 672 C 250 672 236 666 226 656 C 215 645 210 633 210 619 C 210 611 211 602 215 592 C 219 582 226 572 236 563 C 246 554 259 546 276 540 C 293 533 315 529 341 527 Z M 203 328 C 219 328 235 333 249 343 C 263 353 276 367 288 383 C 299 399 309 418 317 438 C 325 458 332 478 337 498 C 297 501 263 513 234 534 C 205 555 191 587 192 630 C 166 596 149 559 141 521 C 133 483 129 451 129 425 C 129 394 135 370 149 353 C 163 336 181 328 203 328 Z M 1075 379 C 1093 379 1110 374 1126 366 C 1142 357 1155 345 1166 331 C 1177 317 1186 300 1192 280 C 1198 260 1201 240 1201 219 C 1201 188 1195 159 1184 131 C 1173 103 1159 79 1141 58 C 1123 37 1103 20 1079 8 C 1055 -3 1031 -10 1007 -10 C 971 -10 941 4 915 33 C 889 62 877 99 877 145 C 877 172 882 200 892 228 C 902 256 915 281 933 303 C 951 325 972 344 996 358 C 1020 372 1047 379 1075 379 Z M 714 379 C 732 379 749 374 765 366 C 781 357 794 345 805 331 C 816 317 825 300 831 280 C 837 260 840 240 840 219 C 840 188 834 159 823 131 C 812 103 798 79 780 58 C 762 37 742 20 718 8 C 694 -3 670 -10 646 -10 C 610 -10 580 4 554 33 C 528 62 516 99 516 145 C 516 172 521 200 531 228 C 541 256 554 281 572 303 C 590 325 611 344 635 358 C 659 372 686 379 714 379 Z M 1008 12 C 1031 12 1051 20 1069 38 C 1086 55 1100 76 1112 100 C 1123 124 1131 151 1137 179 C 1143 207 1146 231 1146 252 C 1146 284 1139 310 1127 329 C 1114 347 1095 357 1070 357 C 1044 357 1023 347 1005 328 C 987 309 973 286 963 260 C 952 233 944 205 939 176 C 934 147 932 123 932 104 C 932 75 939 52 953 36 C 967 20 985 12 1008 12 Z M 647 12 C 670 12 690 20 708 38 C 725 55 739 76 751 100 C 762 124 770 151 776 179 C 782 207 785 231 785 252 C 785 284 778 310 766 329 C 753 347 734 357 709 357 C 683 357 662 347 644 328 C 626 309 612 286 602 260 C 591 233 583 205 578 176 C 573 147 571 123 571 104 C 571 75 578 52 592 36 C 606 20 624 12 647 12 Z" unicode="" />
<glyph horiz-adv-x="275" d="M 232 398 L 272 398 L 123 218 L 198 50 L 158 50 L 63 192 C 60 195 58 199 56 203 C 54 207 54 212 54 217 C 54 225 56 232 61 239 C 66 245 71 251 77 256 L 232 398 Z" unicode="" />
<glyph horiz-adv-x="275" d="M 216 256 C 218 252 220 248 222 244 C 224 240 225 235 225 231 C 225 223 222 215 218 209 C 213 202 208 196 203 192 L 48 50 L 8 50 L 157 230 L 81 398 L 121 398 L 216 256 Z" unicode="" />
<glyph horiz-adv-x="98" d="M 375 733 L 415 733 L -183 -10 L -224 -10 L 375 733 Z" unicode="" />
</font>
</defs>
</svg>
