<?xml version="1.0" encoding="utf-8" ?><svg version="1.1" xmlns = 'http://www.w3.org/2000/svg'><defs><font id='web' horiz-adv-x="1000">
<font-face font-family="web" descent="-426" cap-height="1434" units-per-em="2048" bbox="-307,-416,2343,2021" x-height="1024" ascent="1622" />
<missing-glyph horiz-adv-x="541" d="" /><glyph horiz-adv-x="434" d="" unicode=" " />
<glyph horiz-adv-x="582" d="M 289 1518 C 311 1518 330 1513 346 1504 C 362 1494 375 1482 385 1467 C 395 1451 402 1434 407 1414 C 411 1394 414 1374 414 1354 C 414 1322 412 1292 408 1262 C 404 1232 400 1201 395 1168 C 389 1135 383 1099 377 1060 C 370 1020 364 975 358 924 C 347 830 340 740 338 653 C 335 566 332 490 330 424 C 330 419 326 414 319 409 C 312 403 303 401 291 401 C 279 401 270 403 263 409 C 255 414 252 419 252 424 C 249 491 246 568 244 654 C 241 740 234 830 223 924 C 217 975 210 1020 204 1060 C 198 1100 192 1136 186 1169 C 180 1202 176 1233 173 1263 C 169 1292 168 1322 168 1354 C 168 1374 170 1394 175 1414 C 179 1434 186 1451 196 1467 C 206 1482 218 1494 234 1504 C 249 1513 267 1518 289 1518 Z M 289 248 C 325 248 355 235 381 209 C 407 183 420 153 420 119 C 420 83 407 52 381 26 C 355 0 325 -12 289 -12 C 253 -12 222 0 198 26 C 174 52 162 83 162 119 C 162 153 174 183 198 209 C 222 235 253 248 289 248 Z" unicode="!" />
<glyph horiz-adv-x="795" d="M 238 1516 C 271 1516 297 1505 315 1484 C 333 1462 342 1435 342 1403 C 342 1384 339 1357 334 1323 C 329 1289 323 1250 315 1208 C 307 1165 299 1119 291 1071 C 282 1023 274 976 266 930 C 263 926 260 922 256 919 C 252 916 246 915 238 915 C 230 915 224 916 220 919 C 215 922 211 926 209 930 C 201 975 192 1022 184 1070 C 175 1118 167 1163 159 1206 C 151 1248 145 1287 140 1322 C 135 1357 133 1384 133 1403 C 133 1435 142 1462 160 1484 C 178 1505 204 1516 238 1516 Z M 557 1516 C 591 1516 616 1505 634 1484 C 652 1462 661 1435 661 1403 C 661 1384 658 1357 653 1323 C 648 1289 642 1250 635 1208 C 627 1165 619 1119 610 1071 C 601 1023 593 976 586 930 C 583 926 579 922 575 919 C 571 916 565 915 557 915 C 550 915 544 916 539 919 C 534 922 530 926 528 930 C 520 975 512 1022 503 1070 C 494 1118 486 1163 479 1206 C 471 1248 465 1287 460 1322 C 455 1357 453 1384 453 1403 C 453 1435 461 1462 479 1484 C 497 1505 523 1516 557 1516 Z" unicode="&#x22;" />
<glyph horiz-adv-x="1540" d="M 876 553 L 922 856 L 666 856 L 620 553 L 876 553 Z M 1034 1032 L 1362 1032 L 1335 856 L 1008 856 L 963 553 L 1294 553 L 1268 377 L 936 377 L 876 -18 L 790 -18 L 850 377 L 594 377 L 534 -18 L 448 -18 L 508 377 L 182 377 L 209 553 L 534 553 L 580 856 L 250 856 L 276 1032 L 606 1032 L 661 1403 L 747 1403 L 692 1032 L 948 1032 L 1003 1403 L 1089 1403 L 1034 1032 Z" unicode="#" />
<glyph horiz-adv-x="1089" d="M 465 870 C 473 866 481 862 490 858 C 499 854 508 850 516 846 L 516 1317 C 484 1313 456 1304 432 1291 C 407 1277 386 1262 369 1244 C 352 1226 339 1206 330 1184 C 321 1162 317 1140 317 1118 C 317 1094 319 1070 323 1048 C 327 1025 334 1003 345 983 C 355 963 370 943 390 924 C 409 904 434 886 465 870 Z M 606 84 C 643 90 676 101 704 117 C 732 133 755 152 773 174 C 791 196 805 220 815 246 C 824 272 829 299 829 326 C 829 340 828 358 826 380 C 824 402 817 426 806 451 C 795 475 778 500 754 525 C 730 550 696 573 653 594 C 646 596 638 600 629 604 C 620 608 612 611 606 614 L 606 84 Z M 786 733 C 853 696 907 651 948 598 C 989 544 1010 479 1010 403 C 1010 351 1000 302 982 254 C 964 206 937 164 903 127 C 869 90 826 59 776 35 C 726 10 669 -4 606 -10 L 606 -279 L 516 -279 L 516 -14 C 439 -11 373 0 317 19 C 261 38 216 62 180 91 C 144 120 117 152 100 188 C 82 223 74 257 74 291 C 74 315 77 337 85 355 C 93 373 103 388 115 400 C 127 411 142 419 158 425 C 174 431 190 434 207 434 C 247 434 276 422 295 399 C 314 376 324 350 324 322 C 324 296 317 271 304 249 C 290 227 267 207 233 190 C 261 164 297 140 341 117 C 384 93 442 80 516 78 L 516 639 C 495 647 475 656 455 665 C 435 673 416 682 399 690 C 370 704 340 721 309 741 C 278 761 250 784 225 812 C 200 839 179 871 163 907 C 147 943 139 984 139 1030 C 139 1080 148 1128 166 1172 C 184 1216 210 1254 243 1287 C 275 1320 315 1347 362 1368 C 408 1388 460 1401 516 1407 L 516 1516 L 606 1516 L 606 1409 C 669 1405 723 1395 768 1377 C 812 1359 848 1337 876 1312 C 904 1286 924 1259 937 1230 C 949 1201 956 1174 956 1149 C 956 1106 944 1074 922 1054 C 899 1034 874 1024 848 1024 C 834 1024 821 1026 808 1030 C 794 1034 782 1041 771 1049 C 760 1057 751 1068 745 1080 C 738 1092 735 1106 735 1122 C 735 1148 741 1169 753 1185 C 765 1201 782 1215 803 1229 C 795 1237 785 1245 775 1254 C 765 1263 752 1272 738 1280 C 723 1288 705 1296 684 1303 C 662 1309 636 1314 606 1317 L 606 817 C 632 806 661 794 691 781 C 721 767 752 751 786 733 Z" unicode="$" />
<glyph horiz-adv-x="1714" d="M 1202 1501 L 1315 1501 L 518 -20 L 405 -20 L 1202 1501 Z M 438 1489 C 482 1489 523 1479 562 1459 C 600 1439 634 1412 662 1376 C 690 1340 713 1297 729 1247 C 745 1197 754 1141 754 1081 C 754 1020 745 965 729 915 C 713 865 690 822 662 786 C 633 750 599 723 561 703 C 523 683 482 674 438 674 C 394 674 352 683 314 703 C 276 723 242 750 214 786 C 186 822 163 865 147 915 C 131 965 123 1020 123 1081 C 123 1141 131 1197 147 1247 C 163 1297 186 1340 214 1376 C 242 1412 275 1439 314 1459 C 352 1479 394 1489 438 1489 Z M 438 760 C 486 760 523 784 551 833 C 578 882 592 965 592 1081 C 592 1196 578 1278 552 1328 C 525 1378 487 1403 438 1403 C 389 1403 351 1378 325 1328 C 298 1278 285 1196 285 1081 C 285 966 298 884 325 834 C 351 784 389 760 438 760 Z M 1282 805 C 1326 805 1367 795 1406 775 C 1444 755 1478 728 1506 692 C 1534 656 1556 613 1572 563 C 1588 513 1597 457 1597 397 C 1597 336 1588 281 1572 231 C 1556 181 1533 138 1505 102 C 1477 66 1443 39 1405 19 C 1367 0 1326 -10 1282 -10 C 1238 -10 1196 0 1158 19 C 1120 39 1086 66 1058 102 C 1030 138 1007 181 991 231 C 975 281 967 336 967 397 C 967 457 975 513 991 563 C 1007 613 1030 656 1058 692 C 1086 728 1119 755 1158 775 C 1196 795 1238 805 1282 805 Z M 1282 76 C 1330 76 1367 100 1395 149 C 1422 198 1436 281 1436 397 C 1436 512 1422 594 1395 644 C 1368 694 1330 719 1282 719 C 1233 719 1195 694 1168 644 C 1141 594 1128 512 1128 397 C 1128 282 1141 200 1168 150 C 1195 100 1233 76 1282 76 Z" unicode="%" />
<glyph horiz-adv-x="1540" d="M 1499 152 L 1536 72 C 1517 58 1498 46 1478 35 C 1458 23 1437 14 1415 6 C 1392 -2 1366 -8 1338 -13 C 1310 -17 1277 -20 1241 -20 C 1179 -20 1121 -5 1069 24 C 1017 53 966 93 917 143 C 857 94 793 55 726 25 C 658 -5 590 -20 520 -20 C 443 -20 376 -8 320 14 C 263 36 216 66 180 104 C 143 142 115 185 97 235 C 79 285 70 336 70 389 C 70 487 104 576 172 656 C 240 736 336 806 461 864 C 436 919 415 974 397 1030 C 379 1086 371 1137 371 1184 C 371 1228 379 1270 395 1310 C 411 1350 435 1386 466 1416 C 497 1446 535 1471 581 1489 C 626 1507 677 1516 735 1516 C 789 1516 837 1507 877 1489 C 917 1471 951 1448 977 1420 C 1003 1392 1022 1362 1035 1328 C 1048 1294 1055 1261 1055 1229 C 1055 1184 1046 1143 1029 1105 C 1011 1067 987 1032 955 1001 C 923 970 883 942 837 917 C 791 891 739 869 682 850 C 701 814 721 776 743 737 C 764 697 787 656 813 612 C 844 558 875 508 905 462 C 935 416 963 374 991 338 C 1014 365 1036 393 1056 423 C 1076 453 1093 481 1107 507 C 1121 533 1133 556 1141 577 C 1149 598 1153 614 1153 625 C 1153 646 1148 662 1138 672 C 1128 682 1105 695 1067 713 C 1045 723 1031 730 1023 734 C 1015 738 1012 745 1012 756 L 1012 801 L 1487 801 L 1487 756 C 1487 740 1479 729 1465 722 C 1450 714 1433 707 1415 700 C 1397 693 1382 687 1370 682 C 1357 677 1344 669 1332 659 C 1319 648 1305 632 1290 612 C 1275 592 1257 564 1235 528 C 1208 484 1179 440 1147 396 C 1115 352 1080 310 1044 270 C 1092 214 1139 171 1185 143 C 1231 114 1280 100 1331 100 C 1357 100 1386 105 1416 116 C 1446 126 1474 138 1499 152 Z M 643 926 C 700 949 745 975 778 1005 C 811 1034 836 1063 852 1091 C 868 1119 879 1145 883 1170 C 887 1194 889 1214 889 1229 C 889 1262 884 1291 875 1316 C 865 1340 853 1361 838 1377 C 822 1393 805 1405 785 1413 C 765 1421 744 1425 723 1425 C 673 1425 632 1408 602 1376 C 572 1343 557 1301 557 1249 C 557 1195 564 1141 578 1089 C 592 1036 614 982 643 926 Z M 604 123 C 650 123 694 131 737 148 C 779 164 819 185 856 211 C 820 255 783 304 747 358 C 711 412 675 468 641 526 C 619 562 596 602 572 646 C 547 690 522 736 498 784 C 415 735 357 683 325 629 C 292 575 276 519 276 461 C 276 413 283 369 297 328 C 311 286 331 250 359 220 C 386 190 420 166 461 149 C 502 131 550 123 604 123 Z" unicode="&#x26;" />
<glyph horiz-adv-x="475" d="M 238 1516 C 271 1516 297 1505 315 1484 C 333 1462 342 1435 342 1403 C 342 1384 339 1357 334 1323 C 329 1289 323 1250 315 1208 C 307 1165 299 1119 291 1071 C 282 1023 274 976 266 930 C 263 926 260 922 256 919 C 252 916 246 915 238 915 C 230 915 224 916 220 919 C 215 922 211 926 209 930 C 201 975 192 1022 184 1070 C 175 1118 167 1163 159 1206 C 151 1248 145 1287 140 1322 C 135 1357 133 1384 133 1403 C 133 1435 142 1462 160 1484 C 178 1505 204 1516 238 1516 Z" unicode="'" />
<glyph horiz-adv-x="686" d="M 307 565 C 307 469 314 377 329 290 C 343 202 365 121 394 46 C 423 -29 459 -98 503 -162 C 546 -226 596 -282 653 -332 L 594 -387 C 527 -333 464 -271 405 -200 C 346 -129 295 -53 252 28 C 208 110 174 196 149 287 C 123 378 111 471 111 565 C 111 656 123 747 147 837 C 171 927 205 1012 248 1094 C 291 1175 342 1252 402 1324 C 461 1396 525 1460 594 1516 L 653 1460 C 597 1412 548 1356 505 1292 C 461 1228 425 1157 396 1081 C 367 1005 345 923 330 835 C 314 747 307 657 307 565 Z" unicode="(" />
<glyph horiz-adv-x="686" d="M 94 1516 C 162 1460 226 1396 286 1324 C 345 1252 396 1175 439 1094 C 482 1012 516 927 540 837 C 564 747 577 656 577 565 C 577 471 564 378 539 287 C 513 196 479 110 436 28 C 392 -53 341 -129 282 -200 C 223 -271 160 -333 94 -387 L 35 -332 C 91 -282 141 -226 185 -162 C 228 -98 264 -29 293 46 C 322 121 344 202 359 290 C 373 377 381 469 381 565 C 381 657 373 747 358 835 C 342 923 320 1005 291 1081 C 262 1157 226 1228 183 1292 C 139 1356 90 1412 35 1460 L 94 1516 Z" unicode=")" />
<glyph horiz-adv-x="969" d="M 776 1331 C 800 1331 821 1323 837 1307 C 853 1291 862 1271 862 1249 C 862 1234 858 1220 851 1208 C 843 1195 831 1184 815 1174 C 790 1159 769 1150 752 1146 C 734 1142 716 1139 698 1137 C 680 1134 658 1129 634 1122 C 610 1115 578 1101 539 1079 C 577 1057 609 1043 633 1037 C 657 1030 679 1025 698 1023 C 716 1021 734 1018 751 1014 C 768 1010 789 1001 813 987 C 830 977 842 965 849 951 C 856 937 860 923 860 909 C 860 886 851 866 835 850 C 818 833 799 825 778 825 C 752 825 728 834 705 854 C 681 874 661 896 645 920 C 638 928 632 937 626 945 C 620 953 612 961 603 969 C 593 977 581 987 567 997 C 552 1007 533 1018 510 1032 C 510 986 514 950 520 925 C 526 900 532 879 539 863 C 545 846 551 830 557 814 C 562 798 565 776 565 748 C 565 719 556 697 540 682 C 523 666 504 659 483 659 C 458 659 438 667 422 683 C 406 699 399 721 399 748 C 399 776 401 798 407 814 C 412 829 418 845 424 862 C 430 878 437 899 443 924 C 449 949 453 985 455 1032 C 432 1020 413 1009 399 1000 C 384 990 372 982 363 974 C 353 966 346 959 340 952 C 334 945 328 938 324 930 C 316 920 307 909 298 897 C 288 885 278 874 267 864 C 255 854 243 845 231 839 C 218 832 204 829 190 829 C 165 829 144 837 128 853 C 112 869 104 888 104 911 C 104 926 107 940 115 953 C 123 965 135 977 152 987 C 176 1001 197 1010 214 1014 C 231 1018 249 1021 267 1023 C 285 1025 306 1030 330 1037 C 354 1043 386 1057 426 1079 C 386 1100 354 1114 330 1122 C 306 1129 285 1134 267 1137 C 249 1140 231 1144 215 1148 C 198 1152 178 1161 154 1176 C 136 1186 124 1197 117 1210 C 109 1223 106 1237 106 1251 C 106 1273 114 1293 131 1310 C 147 1326 166 1335 188 1335 C 214 1335 238 1325 262 1305 C 285 1285 305 1264 321 1241 C 327 1231 333 1223 339 1215 C 345 1207 352 1198 362 1190 C 371 1181 383 1172 398 1162 C 412 1152 432 1140 457 1128 C 455 1174 452 1209 446 1234 C 440 1259 433 1280 427 1297 C 420 1313 414 1330 409 1346 C 403 1362 401 1384 401 1413 C 401 1441 409 1463 426 1478 C 442 1493 461 1501 483 1501 C 507 1501 527 1493 543 1477 C 559 1461 567 1439 567 1413 C 567 1384 564 1362 559 1346 C 553 1330 547 1313 541 1297 C 534 1280 528 1259 522 1234 C 516 1209 512 1174 512 1128 C 556 1152 587 1172 603 1186 C 619 1200 633 1215 643 1231 C 651 1241 659 1252 669 1264 C 678 1276 688 1286 699 1296 C 710 1306 722 1314 735 1321 C 748 1327 762 1331 776 1331 Z" unicode="*" />
<glyph horiz-adv-x="1540" d="M 1305 664 L 1305 537 L 836 537 L 836 72 L 704 72 L 704 537 L 235 537 L 235 664 L 704 664 L 704 1128 L 836 1128 L 836 664 L 1305 664 Z" unicode="+" />
<glyph horiz-adv-x="491" d="M 246 252 C 294 252 328 236 349 205 C 370 174 381 134 381 84 C 381 52 375 19 365 -17 C 355 -53 339 -88 317 -124 C 295 -160 268 -194 235 -228 C 202 -261 163 -290 119 -315 L 72 -264 C 92 -248 112 -231 132 -213 C 152 -195 170 -176 188 -155 C 206 -134 221 -111 235 -86 C 249 -60 259 -32 266 -2 C 209 2 170 16 150 41 C 129 65 119 93 119 123 C 119 143 122 162 130 178 C 137 194 146 208 158 219 C 170 229 183 237 199 243 C 214 249 230 252 246 252 Z" unicode="," />
<glyph horiz-adv-x="641" d="M 545 537 L 545 377 L 96 377 L 96 537 L 545 537 Z" unicode="-" />
<glyph horiz-adv-x="491" d="M 246 248 C 282 248 312 235 338 209 C 364 183 377 153 377 119 C 377 83 364 52 338 26 C 312 0 282 -12 246 -12 C 210 -12 179 0 155 26 C 131 52 119 83 119 119 C 119 153 131 183 155 209 C 179 235 210 248 246 248 Z" unicode="." />
<glyph horiz-adv-x="946" d="M 711 1495 L 846 1495 L 117 -389 L -16 -389 L 711 1495 Z" unicode="/" />
<glyph horiz-adv-x="1180" d="M 590 1421 C 661 1421 727 1403 788 1368 C 848 1333 900 1284 944 1221 C 988 1158 1022 1082 1047 993 C 1072 904 1085 806 1085 700 C 1085 593 1072 495 1047 407 C 1022 318 988 242 944 180 C 900 117 847 68 787 34 C 726 0 660 -18 590 -18 C 519 -18 453 0 392 34 C 331 68 279 117 235 180 C 191 242 156 318 131 407 C 106 495 94 593 94 700 C 94 806 106 904 131 993 C 156 1082 190 1158 234 1221 C 278 1284 330 1333 391 1368 C 452 1403 518 1421 590 1421 Z M 590 80 C 633 80 672 91 707 113 C 741 135 771 170 795 219 C 819 268 837 332 850 412 C 863 491 870 587 870 700 C 870 812 863 908 851 988 C 838 1067 820 1131 796 1181 C 772 1230 742 1266 708 1289 C 673 1311 634 1323 590 1323 C 546 1323 506 1311 471 1289 C 436 1266 407 1230 383 1180 C 359 1130 340 1066 328 987 C 315 907 309 812 309 700 C 309 588 315 492 328 413 C 340 334 359 270 383 221 C 407 172 436 136 471 114 C 506 91 546 80 590 80 Z" unicode="0" />
<glyph horiz-adv-x="790" d="M 694 51 L 694 0 L 145 0 L 145 49 C 145 67 153 80 171 86 C 189 92 209 97 233 102 C 271 110 296 122 308 137 C 320 152 326 176 326 209 L 326 1204 L 108 1204 L 108 1282 L 432 1407 L 518 1407 L 518 209 C 518 180 524 157 538 140 C 551 122 576 110 612 104 C 635 100 654 94 670 88 C 686 82 694 69 694 51 Z" unicode="1" />
<glyph horiz-adv-x="1010" d="M 508 1421 C 572 1421 630 1412 683 1396 C 735 1379 780 1355 817 1325 C 854 1294 883 1257 903 1213 C 923 1169 934 1121 934 1069 C 934 1007 920 949 892 895 C 864 841 830 790 790 744 C 749 697 705 654 659 614 C 612 574 570 537 532 504 C 491 467 455 435 425 407 C 394 379 366 354 342 330 C 317 306 294 282 273 259 C 252 235 231 210 211 182 L 692 182 C 730 182 760 189 781 203 C 801 217 819 247 833 293 C 837 307 843 316 849 320 C 855 324 864 326 874 326 L 932 326 L 922 0 L 53 0 L 53 137 C 73 168 99 203 130 242 C 160 281 193 321 229 363 C 264 404 301 445 339 487 C 377 529 415 568 451 606 C 535 695 600 777 648 852 C 695 927 719 1003 719 1081 C 719 1157 695 1217 647 1259 C 599 1301 537 1323 459 1323 C 434 1323 410 1319 386 1312 C 362 1305 341 1296 321 1285 C 301 1273 285 1260 271 1245 C 257 1230 247 1215 242 1200 C 261 1183 278 1165 292 1145 C 306 1125 313 1102 313 1075 C 313 1042 303 1015 283 994 C 263 973 237 963 205 963 C 162 963 130 976 109 1002 C 88 1028 78 1062 78 1104 C 78 1140 89 1177 111 1215 C 133 1253 163 1287 201 1317 C 239 1347 285 1372 338 1392 C 390 1411 447 1421 508 1421 Z" unicode="2" />
<glyph horiz-adv-x="1018" d="M 569 776 C 617 771 665 760 711 742 C 757 724 797 700 833 670 C 869 640 897 603 919 560 C 941 516 952 466 952 410 C 952 343 937 283 908 230 C 879 176 841 131 793 95 C 745 58 690 30 628 11 C 566 -8 502 -18 436 -18 C 379 -18 326 -11 276 1 C 226 14 184 32 148 56 C 112 79 84 107 64 140 C 43 172 33 208 33 246 C 33 262 35 277 41 293 C 46 309 54 323 64 335 C 74 347 87 357 103 365 C 118 373 136 377 156 377 C 174 377 191 373 205 367 C 219 361 231 353 241 344 C 250 334 257 324 262 313 C 267 301 270 291 270 281 C 270 253 265 229 256 211 C 247 193 235 175 221 158 C 234 136 259 118 295 103 C 331 87 374 80 422 80 C 474 80 520 89 560 107 C 600 125 633 150 659 181 C 685 211 704 246 717 286 C 730 325 737 366 737 408 C 737 516 702 594 633 642 C 563 690 462 715 330 715 L 330 811 C 396 815 453 824 499 838 C 545 852 582 871 610 895 C 638 919 659 948 671 984 C 683 1019 690 1061 690 1110 C 690 1139 684 1167 674 1193 C 663 1219 648 1241 628 1260 C 608 1279 583 1294 554 1306 C 525 1317 492 1323 455 1323 C 403 1323 362 1315 332 1301 C 301 1287 276 1270 258 1251 C 275 1236 288 1221 297 1207 C 306 1193 311 1174 311 1151 C 311 1119 300 1092 280 1072 C 259 1052 232 1042 199 1042 C 169 1042 143 1053 121 1076 C 99 1098 88 1129 88 1169 C 88 1205 99 1238 122 1269 C 145 1299 175 1326 212 1349 C 249 1371 291 1389 338 1402 C 385 1414 433 1421 481 1421 C 541 1421 596 1413 648 1397 C 700 1381 744 1360 782 1333 C 819 1305 848 1272 869 1234 C 890 1196 901 1154 901 1110 C 901 1065 892 1024 875 988 C 857 952 834 920 804 892 C 774 864 739 841 699 822 C 658 802 615 787 569 776 Z" unicode="3" />
<glyph horiz-adv-x="1046" d="M 1008 487 L 1008 365 L 799 365 L 799 168 C 799 146 803 131 812 121 C 820 111 836 101 860 90 C 876 82 888 76 894 72 C 900 68 903 62 903 55 L 903 0 L 496 0 L 496 55 C 496 63 499 69 505 73 C 511 76 524 82 543 90 C 565 101 582 110 592 118 C 602 126 608 142 608 168 L 608 365 L 2 365 L 2 483 L 684 1421 L 799 1421 L 799 487 L 1008 487 Z M 133 487 L 608 487 L 608 1143 L 133 487 Z" unicode="4" />
<glyph horiz-adv-x="1036" d="M 522 897 C 594 897 659 884 715 860 C 771 836 817 804 854 764 C 891 724 919 677 938 625 C 957 573 967 519 967 465 C 967 390 953 323 925 263 C 897 203 859 153 812 111 C 764 69 709 37 647 15 C 585 -6 520 -18 453 -18 C 397 -18 345 -11 297 2 C 249 15 207 33 173 57 C 138 81 111 109 91 142 C 71 174 61 210 61 248 C 61 264 63 279 69 295 C 74 311 82 325 92 337 C 102 349 115 359 131 367 C 146 375 164 379 184 379 C 202 379 219 375 233 369 C 247 363 258 355 268 346 C 277 336 284 326 289 315 C 294 303 297 293 297 283 C 297 254 292 231 284 213 C 275 195 264 176 250 158 C 262 136 286 118 324 103 C 361 87 403 80 451 80 C 501 80 545 90 583 110 C 621 130 652 156 677 188 C 702 220 721 257 734 299 C 747 340 754 382 754 424 C 754 470 748 513 737 555 C 726 597 709 633 686 664 C 663 695 633 720 596 738 C 559 756 515 766 465 766 C 409 766 359 756 316 736 C 273 716 232 689 192 655 L 123 702 L 162 1401 L 698 1401 C 717 1401 733 1401 745 1403 C 757 1405 766 1408 773 1412 C 780 1416 786 1422 790 1430 C 794 1438 799 1448 803 1460 C 807 1473 812 1482 818 1486 C 824 1490 832 1493 842 1493 L 895 1493 L 879 1219 L 264 1219 L 238 801 C 284 834 331 858 379 874 C 427 889 475 897 522 897 Z" unicode="5" />
<glyph horiz-adv-x="1126" d="M 655 866 C 713 866 767 855 817 835 C 867 814 909 786 944 750 C 979 714 1007 672 1027 623 C 1047 574 1057 521 1057 465 C 1057 401 1045 339 1022 281 C 999 222 967 171 925 127 C 883 83 833 47 775 21 C 716 -4 651 -18 580 -18 C 502 -18 433 -1 373 31 C 313 64 262 110 221 168 C 179 226 148 296 126 378 C 104 459 94 547 94 643 C 94 747 108 847 136 942 C 164 1036 203 1119 255 1190 C 307 1260 370 1316 444 1358 C 518 1400 602 1421 694 1421 C 741 1421 783 1415 820 1404 C 857 1392 888 1377 914 1359 C 940 1340 959 1318 973 1294 C 986 1269 993 1243 993 1217 C 993 1180 982 1151 960 1129 C 938 1107 912 1096 881 1096 C 844 1096 817 1107 799 1129 C 781 1151 772 1179 772 1212 L 772 1298 C 767 1301 754 1306 734 1313 C 714 1319 689 1323 661 1323 C 619 1323 576 1312 534 1290 C 492 1268 454 1232 420 1183 C 386 1134 359 1070 337 992 C 315 913 304 817 303 705 C 345 749 395 786 455 818 C 515 850 581 866 655 866 Z M 582 80 C 626 80 664 89 697 108 C 730 127 757 153 779 186 C 800 218 816 257 826 302 C 836 346 842 394 842 444 C 842 484 837 522 827 558 C 817 594 802 625 782 651 C 762 677 736 698 704 714 C 672 729 635 737 592 737 C 558 737 526 731 495 721 C 464 710 436 697 411 682 C 385 666 363 650 345 634 C 327 618 313 604 305 592 C 305 528 310 465 321 404 C 331 342 348 288 371 240 C 393 192 422 153 457 124 C 492 94 534 80 582 80 Z" unicode="6" />
<glyph horiz-adv-x="936" d="M 936 1401 L 936 1296 C 872 1194 812 1098 758 1008 C 704 917 657 827 617 739 C 577 650 546 559 524 465 C 502 371 491 270 491 162 C 491 100 481 54 461 25 C 441 -3 411 -18 369 -18 C 331 -18 300 -6 278 16 C 255 38 244 75 244 125 C 244 179 261 251 297 343 C 332 434 376 531 429 634 C 481 737 539 841 601 945 C 663 1049 722 1140 776 1219 L 248 1219 C 210 1219 184 1210 171 1193 C 158 1175 147 1154 139 1130 C 135 1117 129 1108 123 1104 C 117 1100 109 1098 100 1098 L 39 1098 L 61 1413 C 75 1411 93 1410 114 1408 C 134 1406 156 1405 180 1404 C 203 1403 227 1402 251 1402 C 275 1401 298 1401 319 1401 L 936 1401 Z" unicode="7" />
<glyph horiz-adv-x="1057" d="M 668 784 C 770 737 851 683 911 621 C 971 559 1001 479 1001 379 C 1001 318 987 263 961 214 C 935 164 899 122 855 88 C 810 53 758 26 698 8 C 638 -10 576 -20 510 -20 C 439 -20 375 -10 319 8 C 262 27 214 53 175 85 C 136 117 106 156 86 200 C 65 244 55 292 55 342 C 55 388 64 431 82 471 C 100 510 124 545 153 576 C 182 607 214 634 250 657 C 286 679 321 698 356 713 C 284 755 226 803 184 858 C 142 913 121 977 121 1051 C 121 1104 132 1153 154 1199 C 176 1245 206 1284 244 1317 C 281 1349 325 1375 375 1393 C 425 1411 478 1421 534 1421 C 594 1421 649 1413 698 1397 C 747 1381 789 1359 823 1331 C 857 1303 884 1269 902 1231 C 920 1193 930 1152 930 1108 C 930 1070 922 1035 907 1001 C 892 967 872 937 848 909 C 823 881 795 857 764 835 C 732 813 700 796 668 784 Z M 575 829 C 600 841 624 856 648 873 C 671 889 691 909 709 931 C 727 953 741 978 752 1006 C 762 1034 768 1066 768 1102 C 768 1133 762 1162 750 1189 C 738 1216 722 1239 702 1259 C 681 1279 656 1294 626 1306 C 596 1317 564 1323 528 1323 C 492 1323 460 1317 430 1306 C 400 1295 375 1280 355 1261 C 334 1241 318 1218 306 1192 C 294 1166 289 1138 289 1108 C 289 1071 296 1039 312 1012 C 328 984 349 960 375 939 C 401 917 432 898 467 880 C 501 862 537 845 575 829 Z M 524 78 C 563 78 601 83 637 95 C 673 107 705 124 733 146 C 760 168 782 195 798 227 C 814 259 823 296 823 336 C 823 380 812 419 792 451 C 772 483 745 511 711 535 C 677 559 638 582 594 602 C 550 622 504 642 457 664 C 435 653 410 640 384 624 C 357 608 332 587 309 563 C 285 539 266 509 250 475 C 234 440 227 399 227 352 C 227 311 234 274 249 240 C 263 206 283 177 309 153 C 335 129 366 111 403 98 C 439 84 480 78 524 78 Z" unicode="8" />
<glyph horiz-adv-x="1126" d="M 534 664 C 568 664 600 669 632 680 C 663 690 691 703 716 719 C 741 734 763 750 781 766 C 799 782 812 797 821 809 C 821 873 815 937 804 999 C 793 1061 776 1115 754 1163 C 732 1211 703 1249 667 1279 C 631 1308 589 1323 541 1323 C 497 1323 458 1313 426 1295 C 394 1276 367 1250 346 1218 C 325 1185 310 1146 300 1101 C 290 1056 285 1008 285 956 C 285 915 290 877 300 841 C 310 805 325 775 345 749 C 365 723 390 702 422 687 C 454 671 491 664 534 664 Z M 543 1421 C 623 1421 693 1403 755 1368 C 816 1332 867 1285 908 1225 C 948 1165 979 1094 1000 1014 C 1021 934 1032 849 1032 760 C 1032 658 1018 560 991 466 C 963 372 924 289 873 218 C 821 146 758 89 683 46 C 608 3 524 -18 430 -18 C 378 -18 333 -12 293 -1 C 253 10 220 25 194 44 C 167 62 147 84 133 109 C 119 133 113 159 113 186 C 113 222 124 252 146 274 C 168 296 195 307 229 307 C 265 307 291 296 308 274 C 325 252 334 225 334 193 L 334 102 C 342 96 356 90 378 86 C 400 82 427 80 459 80 C 501 80 543 91 586 113 C 629 135 668 170 702 218 C 736 266 765 330 788 409 C 810 487 823 583 825 696 C 782 652 730 614 670 582 C 609 550 542 535 469 535 C 411 535 357 545 308 566 C 258 587 216 616 181 652 C 146 688 119 731 99 781 C 79 830 70 883 70 940 C 70 1004 81 1065 104 1124 C 126 1182 158 1233 199 1277 C 240 1321 290 1356 349 1382 C 407 1408 472 1421 543 1421 Z" unicode="9" />
<glyph horiz-adv-x="532" d="M 266 895 C 302 895 333 882 359 856 C 384 830 397 800 397 766 C 397 730 384 699 359 673 C 333 647 302 635 266 635 C 230 635 200 647 176 673 C 151 699 139 730 139 766 C 139 800 151 830 176 856 C 200 882 230 895 266 895 Z M 266 248 C 302 248 333 235 359 209 C 384 183 397 153 397 119 C 397 83 384 52 359 26 C 333 0 302 -12 266 -12 C 230 -12 200 0 176 26 C 151 52 139 83 139 119 C 139 153 151 183 176 209 C 200 235 230 248 266 248 Z" unicode=":" />
<glyph horiz-adv-x="532" d="M 266 895 C 302 895 333 882 359 856 C 384 830 397 800 397 766 C 397 730 384 699 359 673 C 333 647 302 635 266 635 C 230 635 200 647 176 673 C 151 699 139 730 139 766 C 139 800 151 830 176 856 C 200 882 230 895 266 895 Z M 266 252 C 314 252 348 236 369 205 C 390 174 401 134 401 84 C 401 52 395 19 385 -17 C 375 -53 359 -88 337 -124 C 315 -160 288 -194 255 -228 C 222 -261 183 -290 139 -315 L 92 -264 C 112 -248 132 -231 152 -213 C 172 -195 190 -176 208 -155 C 226 -134 241 -111 255 -86 C 269 -60 279 -32 287 -2 C 229 2 190 16 170 41 C 149 65 139 93 139 123 C 139 143 142 162 150 178 C 157 194 167 208 179 219 C 191 229 204 237 219 243 C 234 249 250 252 266 252 Z" unicode=";" />
<glyph horiz-adv-x="1540" d="M 1288 205 L 1288 61 L 252 535 L 252 666 L 1288 1139 L 1288 995 L 403 600 L 1288 205 Z" unicode="&#x3C;" />
<glyph horiz-adv-x="1540" d="M 1292 813 L 1292 686 L 248 686 L 248 813 L 1292 813 Z M 1292 440 L 1292 313 L 248 313 L 248 440 L 1292 440 Z" unicode="=" />
<glyph horiz-adv-x="1540" d="M 1288 666 L 1288 535 L 252 61 L 252 205 L 1137 600 L 252 995 L 252 1139 L 1288 666 Z" unicode="&#x3E;" />
<glyph horiz-adv-x="870" d="M 442 1516 C 495 1516 544 1508 588 1493 C 632 1478 670 1457 702 1431 C 733 1404 757 1372 775 1334 C 792 1296 801 1255 801 1210 C 801 1178 796 1148 788 1121 C 780 1093 768 1067 754 1042 C 739 1017 721 992 700 966 C 679 940 656 913 631 885 C 592 840 561 798 537 760 C 513 722 494 685 481 649 C 468 613 459 576 454 540 C 449 503 446 464 444 422 C 444 417 439 411 431 405 C 422 398 411 395 399 395 C 386 395 375 398 366 405 C 356 411 352 417 352 422 C 350 483 356 552 372 629 C 387 705 416 784 459 866 C 479 906 498 940 515 970 C 531 1000 545 1027 557 1052 C 568 1077 577 1102 583 1126 C 589 1150 592 1177 592 1206 C 592 1251 586 1289 576 1319 C 565 1349 551 1372 534 1389 C 516 1406 496 1418 474 1425 C 451 1432 428 1436 405 1436 C 379 1436 353 1429 325 1417 C 297 1404 276 1384 262 1358 C 284 1338 298 1320 304 1304 C 310 1288 313 1274 313 1264 C 313 1225 302 1195 281 1175 C 259 1155 234 1145 205 1145 C 168 1145 139 1157 118 1181 C 96 1205 86 1234 86 1268 C 86 1296 93 1325 108 1355 C 123 1385 145 1411 175 1435 C 204 1459 241 1478 286 1493 C 331 1508 383 1516 442 1516 Z M 397 248 C 433 248 464 235 490 209 C 515 183 528 153 528 119 C 528 83 515 52 490 26 C 464 0 433 -12 397 -12 C 361 -12 331 0 307 26 C 282 52 270 83 270 119 C 270 153 282 183 307 209 C 331 235 361 248 397 248 Z" unicode="?" />
<glyph horiz-adv-x="1937" d="M 1077 1298 C 1187 1298 1286 1281 1376 1249 C 1465 1216 1541 1170 1603 1112 C 1665 1053 1713 983 1747 901 C 1781 819 1798 729 1798 631 C 1798 552 1785 474 1759 397 C 1733 319 1696 250 1649 190 C 1602 129 1545 80 1479 42 C 1412 4 1338 -14 1257 -14 C 1225 -14 1200 -9 1180 0 C 1160 8 1145 19 1134 32 C 1123 45 1115 59 1111 74 C 1107 88 1104 101 1104 113 C 1079 95 1056 79 1035 65 C 1014 51 993 39 971 29 C 949 19 926 12 902 7 C 878 2 850 0 819 0 C 736 0 674 23 634 71 C 593 119 573 184 573 268 C 573 310 578 352 590 396 C 601 439 617 481 638 523 C 659 564 684 604 714 643 C 744 681 777 717 813 750 C 863 794 917 829 973 853 C 1029 877 1085 889 1141 889 C 1181 889 1215 883 1245 871 C 1275 859 1299 839 1319 813 L 1405 877 L 1446 877 L 1290 260 C 1285 239 1280 219 1276 200 C 1272 180 1270 162 1270 145 C 1270 122 1274 105 1283 94 C 1291 83 1303 78 1319 78 C 1371 78 1420 94 1466 126 C 1512 158 1552 201 1586 255 C 1620 308 1646 369 1666 439 C 1686 508 1696 579 1696 653 C 1696 726 1682 796 1654 863 C 1626 929 1587 987 1536 1037 C 1484 1087 1421 1126 1347 1156 C 1273 1185 1190 1200 1098 1200 C 987 1200 884 1178 788 1136 C 692 1093 609 1035 539 961 C 469 887 413 800 373 700 C 333 599 313 491 313 375 C 313 273 330 179 365 95 C 400 10 449 -61 512 -121 C 574 -181 650 -227 738 -261 C 826 -294 923 -311 1028 -311 C 1128 -311 1227 -294 1323 -262 C 1419 -229 1514 -178 1610 -109 L 1653 -180 C 1555 -254 1454 -311 1350 -349 C 1245 -387 1138 -406 1030 -406 C 892 -406 769 -385 660 -345 C 550 -304 458 -248 384 -177 C 310 -105 253 -20 213 77 C 173 175 154 282 154 397 C 154 521 178 639 227 749 C 275 859 341 954 424 1035 C 507 1115 605 1179 718 1227 C 830 1274 950 1298 1077 1298 Z M 1208 629 C 1213 650 1216 670 1218 690 C 1220 709 1221 724 1221 735 C 1221 755 1213 772 1198 785 C 1183 798 1160 805 1130 805 C 1092 805 1056 796 1022 778 C 987 760 954 734 924 698 C 900 670 879 640 859 606 C 839 572 821 538 807 502 C 793 466 782 430 774 394 C 766 358 762 323 762 291 C 762 231 775 186 801 155 C 827 124 866 109 920 109 C 949 109 981 117 1015 135 C 1049 153 1078 177 1104 207 L 1208 629 Z" unicode="@" />
<glyph horiz-adv-x="1393" d="M 403 522 L 905 522 L 657 1149 L 403 522 Z M 1395 51 L 1395 0 L 940 0 L 940 41 C 940 51 943 58 951 62 C 958 66 972 74 993 86 C 1009 94 1023 102 1033 111 C 1043 119 1049 129 1049 139 C 1049 146 1046 157 1040 173 C 1034 189 1028 205 1022 223 L 946 420 L 362 420 L 285 225 C 280 215 275 201 270 183 C 264 165 262 152 262 143 C 262 128 267 115 278 105 C 289 95 304 86 324 80 C 342 71 356 63 364 56 C 372 49 377 41 377 31 L 377 0 L -4 0 L -4 41 C -4 49 -1 57 4 64 C 9 71 20 79 37 88 C 51 98 63 107 73 115 C 83 123 93 131 101 140 C 109 149 116 159 123 171 C 129 183 136 197 143 215 L 596 1284 L 555 1374 C 553 1378 551 1383 549 1388 C 547 1392 547 1396 547 1399 C 547 1401 548 1404 550 1407 C 552 1409 556 1412 561 1415 C 581 1427 603 1442 626 1458 C 649 1474 670 1491 690 1507 C 692 1509 694 1511 697 1514 C 700 1516 704 1518 709 1518 C 713 1518 717 1516 720 1514 C 722 1511 725 1507 727 1503 L 1255 184 C 1263 164 1274 146 1287 130 C 1300 114 1317 101 1339 92 C 1362 83 1377 77 1384 73 C 1391 69 1395 61 1395 51 Z" unicode="A" />
<glyph horiz-adv-x="1261" d="M 774 784 C 834 778 890 767 942 749 C 994 731 1040 706 1079 675 C 1117 643 1148 605 1170 559 C 1192 513 1204 461 1204 401 C 1204 348 1192 297 1168 249 C 1144 200 1110 157 1066 121 C 1022 84 967 55 902 33 C 836 11 762 0 680 0 L 78 0 L 78 51 C 78 61 81 68 88 72 C 94 75 109 82 133 92 C 159 103 177 112 185 120 C 193 127 197 142 197 166 L 197 1329 C 197 1348 193 1362 186 1372 C 178 1382 162 1392 137 1403 C 113 1411 98 1418 92 1422 C 85 1426 82 1433 82 1444 L 82 1495 L 629 1495 C 712 1495 785 1485 848 1467 C 910 1449 962 1424 1003 1392 C 1044 1360 1075 1323 1095 1279 C 1115 1235 1126 1187 1126 1137 C 1126 1097 1118 1057 1102 1019 C 1086 980 1063 945 1033 913 C 1003 881 967 854 923 832 C 879 809 829 793 774 784 Z M 577 827 C 633 827 682 833 723 847 C 763 861 796 880 822 905 C 848 929 867 959 879 995 C 891 1030 897 1069 897 1112 C 897 1156 891 1195 880 1231 C 868 1266 849 1296 823 1321 C 797 1346 762 1365 718 1379 C 674 1392 621 1399 557 1399 L 403 1399 L 403 827 L 577 827 Z M 586 98 C 719 98 817 125 879 179 C 941 233 973 311 973 412 C 973 518 940 596 875 646 C 809 696 701 721 549 721 L 403 721 L 403 98 L 586 98 Z" unicode="B" />
<glyph horiz-adv-x="1280" d="M 1198 360 L 1266 291 C 1252 261 1229 227 1199 191 C 1168 155 1130 121 1085 90 C 1039 58 987 32 927 11 C 867 -9 801 -20 729 -20 C 618 -20 521 1 439 45 C 357 89 289 146 236 217 C 182 287 142 368 116 460 C 89 552 76 645 76 741 C 76 868 95 980 133 1078 C 171 1175 220 1256 280 1320 C 340 1384 408 1433 484 1466 C 560 1499 635 1516 711 1516 C 773 1516 829 1509 881 1495 C 932 1481 985 1457 1040 1423 C 1051 1416 1061 1411 1070 1409 C 1079 1406 1089 1408 1100 1415 C 1112 1424 1121 1431 1126 1435 C 1131 1439 1138 1442 1147 1442 L 1192 1442 L 1192 1073 L 1126 1073 C 1114 1073 1105 1075 1101 1080 C 1097 1084 1094 1091 1092 1100 C 1078 1144 1061 1186 1039 1225 C 1017 1263 991 1297 962 1325 C 933 1353 900 1375 864 1391 C 827 1407 787 1415 745 1415 C 697 1415 647 1402 595 1378 C 543 1353 496 1314 454 1261 C 411 1208 376 1139 348 1055 C 320 970 307 868 307 750 C 307 644 318 549 340 467 C 362 385 392 316 430 260 C 468 204 514 162 568 133 C 621 104 679 90 741 90 C 807 90 866 101 918 123 C 970 145 1014 170 1052 200 C 1090 229 1121 259 1145 289 C 1169 319 1187 343 1198 360 Z" unicode="C" />
<glyph horiz-adv-x="1431" d="M 561 1495 C 685 1495 796 1476 895 1440 C 993 1404 1077 1353 1145 1288 C 1213 1222 1265 1144 1301 1052 C 1337 960 1356 858 1356 748 C 1356 636 1337 534 1301 442 C 1264 350 1213 271 1147 206 C 1081 141 1003 90 911 54 C 819 18 718 0 608 0 L 78 0 L 78 51 C 78 61 81 68 88 72 C 94 75 109 82 133 92 C 159 103 177 112 185 120 C 193 127 197 142 197 166 L 197 1329 C 197 1348 193 1362 186 1372 C 178 1382 162 1392 137 1403 C 113 1411 98 1418 92 1422 C 85 1426 82 1433 82 1444 L 82 1495 L 561 1495 Z M 553 96 C 643 96 724 108 795 134 C 866 159 926 198 974 251 C 1022 304 1058 372 1084 454 C 1109 536 1122 634 1122 748 C 1122 856 1108 952 1082 1034 C 1055 1116 1016 1183 966 1237 C 916 1291 854 1331 780 1358 C 706 1385 622 1399 528 1399 L 403 1399 L 403 96 L 553 96 Z" unicode="D" />
<glyph horiz-adv-x="1200" d="M 1149 336 L 1149 0 L 78 0 L 78 51 C 78 61 81 68 88 72 C 94 75 109 82 133 92 C 159 103 177 112 185 120 C 193 127 197 142 197 166 L 197 1329 C 197 1348 193 1362 186 1372 C 178 1382 162 1392 137 1403 C 113 1411 98 1418 92 1422 C 85 1426 82 1433 82 1444 L 82 1495 L 862 1495 C 874 1495 890 1495 908 1497 C 926 1498 944 1499 962 1501 C 980 1503 998 1505 1014 1507 C 1030 1509 1043 1510 1053 1511 L 1053 1208 L 1006 1208 C 990 1208 978 1210 970 1216 C 962 1222 956 1230 952 1241 C 940 1272 929 1298 920 1318 C 910 1338 899 1354 885 1366 C 871 1377 854 1385 832 1389 C 810 1393 781 1395 745 1395 L 403 1395 L 403 817 L 602 817 C 620 817 636 818 648 822 C 660 826 671 832 679 840 C 687 848 695 858 702 871 C 709 883 717 899 725 918 C 731 930 738 939 744 946 C 750 952 762 956 780 956 L 825 956 L 825 584 L 774 584 C 758 584 747 588 739 597 C 731 606 725 616 719 627 C 702 662 687 685 674 697 C 660 709 638 715 606 715 L 403 715 L 403 100 L 844 100 C 872 100 897 103 917 110 C 937 116 954 127 969 143 C 984 158 998 178 1011 203 C 1024 228 1038 259 1053 295 C 1057 309 1061 320 1067 326 C 1072 332 1081 336 1094 336 L 1149 336 Z" unicode="E" />
<glyph horiz-adv-x="1149" d="M 1116 1511 L 1116 1204 L 1063 1204 C 1046 1204 1035 1207 1029 1213 C 1023 1219 1018 1227 1016 1237 C 1008 1266 999 1291 990 1311 C 981 1331 969 1348 955 1360 C 940 1372 921 1381 897 1387 C 873 1392 843 1395 807 1395 L 403 1395 L 403 811 L 651 811 C 670 811 686 812 698 816 C 710 820 721 825 729 833 C 737 841 745 851 752 864 C 759 877 767 893 776 911 C 782 923 788 933 794 940 C 800 946 812 950 829 950 L 872 950 L 872 578 L 821 578 C 807 578 796 582 788 591 C 780 600 774 610 770 621 C 752 656 737 679 723 691 C 709 703 687 709 655 709 L 403 709 L 403 166 C 403 142 407 127 416 120 C 424 112 441 103 467 92 C 488 83 502 77 508 73 C 514 69 518 61 518 51 L 518 0 L 78 0 L 78 51 C 78 61 81 68 88 72 C 94 75 109 82 133 92 C 159 103 177 112 185 120 C 193 127 197 142 197 166 L 197 1329 C 197 1348 193 1362 186 1372 C 178 1382 162 1392 137 1403 C 113 1411 98 1418 92 1422 C 85 1426 82 1433 82 1444 L 82 1495 L 926 1495 C 961 1495 997 1497 1033 1501 C 1069 1505 1097 1509 1116 1511 Z" unicode="F" />
<glyph horiz-adv-x="1438" d="M 1411 158 L 1411 115 C 1374 101 1332 87 1286 71 C 1239 55 1189 40 1137 27 C 1085 13 1030 2 974 -6 C 917 -15 861 -20 805 -20 C 680 -20 572 1 480 45 C 388 89 312 146 253 217 C 193 287 149 368 120 460 C 90 552 76 645 76 741 C 76 865 95 976 135 1073 C 174 1170 225 1251 288 1317 C 350 1382 421 1431 501 1465 C 581 1499 661 1516 741 1516 C 798 1516 853 1509 906 1496 C 959 1482 1013 1459 1069 1427 C 1082 1419 1094 1413 1104 1411 C 1114 1409 1123 1410 1130 1415 C 1143 1424 1152 1431 1157 1435 C 1162 1439 1168 1442 1176 1442 L 1221 1442 L 1221 1073 L 1157 1073 C 1144 1073 1135 1075 1131 1080 C 1127 1084 1124 1091 1122 1100 C 1108 1144 1089 1186 1066 1225 C 1043 1263 1016 1297 985 1325 C 954 1353 919 1375 880 1391 C 841 1407 799 1415 754 1415 C 699 1415 645 1402 591 1377 C 537 1351 490 1312 448 1259 C 406 1205 372 1136 346 1051 C 320 966 307 865 307 748 C 307 644 319 551 345 467 C 370 383 405 313 450 255 C 494 197 547 152 609 121 C 670 89 736 74 807 74 C 861 74 907 79 945 89 C 983 99 1013 112 1035 129 C 1057 145 1073 165 1083 187 C 1093 209 1098 233 1098 258 L 1098 479 C 1098 497 1094 512 1086 522 C 1078 532 1062 542 1038 553 C 1015 561 1000 568 994 572 C 988 576 985 583 985 594 L 985 645 L 1311 645 C 1309 628 1306 607 1303 581 C 1299 555 1298 532 1298 514 L 1298 266 C 1298 247 1301 232 1308 221 C 1315 210 1332 201 1360 193 C 1382 185 1396 180 1402 177 C 1408 174 1411 168 1411 158 Z" unicode="G" />
<glyph horiz-adv-x="1526" d="M 1444 51 L 1444 0 L 1008 0 L 1008 51 C 1008 61 1011 68 1017 72 C 1023 75 1038 82 1061 92 C 1087 103 1104 112 1111 120 C 1118 127 1122 142 1122 166 L 1122 717 L 403 717 L 403 168 C 403 144 407 129 415 121 C 423 113 439 103 465 92 C 486 83 500 77 506 73 C 512 69 516 61 516 51 L 516 0 L 80 0 L 80 51 C 80 61 83 68 90 72 C 96 75 111 82 135 92 C 161 103 178 112 186 120 C 193 127 197 142 197 166 L 197 1329 C 197 1348 193 1362 185 1372 C 177 1382 160 1392 135 1403 C 111 1411 96 1418 90 1422 C 83 1426 80 1433 80 1444 L 80 1495 L 516 1495 L 516 1444 C 516 1433 512 1426 506 1422 C 500 1418 486 1411 465 1403 C 438 1391 421 1382 414 1376 C 406 1369 403 1353 403 1329 L 403 823 L 1122 823 L 1122 1329 C 1122 1353 1118 1369 1110 1376 C 1102 1383 1086 1392 1061 1403 C 1038 1411 1023 1418 1017 1422 C 1011 1426 1008 1433 1008 1444 L 1008 1495 L 1444 1495 L 1444 1444 C 1444 1433 1440 1426 1434 1422 C 1428 1418 1414 1411 1393 1403 C 1365 1391 1347 1382 1340 1376 C 1332 1369 1329 1353 1329 1329 L 1329 166 C 1329 147 1333 133 1341 123 C 1349 113 1366 103 1393 92 C 1414 83 1428 77 1434 73 C 1440 69 1444 61 1444 51 Z" unicode="H" />
<glyph horiz-adv-x="612" d="M 524 51 L 524 0 L 86 0 L 86 51 C 86 61 89 68 96 72 C 102 75 117 82 141 92 C 167 103 184 112 192 120 C 199 127 203 142 203 166 L 203 1329 C 203 1348 199 1362 191 1372 C 183 1382 166 1392 141 1403 C 117 1411 102 1418 96 1422 C 89 1426 86 1433 86 1444 L 86 1495 L 524 1495 L 524 1444 C 524 1433 520 1426 513 1422 C 506 1418 492 1411 471 1403 C 444 1391 427 1382 420 1376 C 413 1369 410 1353 410 1329 L 410 166 C 410 142 413 127 421 120 C 429 112 445 103 471 92 C 492 83 506 77 513 73 C 520 69 524 61 524 51 Z" unicode="I" />
<glyph horiz-adv-x="919" d="M 858 1495 L 858 1444 C 858 1433 854 1426 848 1422 C 842 1418 827 1411 805 1403 C 779 1391 763 1382 755 1376 C 747 1369 743 1353 743 1329 L 743 418 C 743 356 733 298 715 245 C 697 191 670 145 635 106 C 599 66 556 35 504 13 C 452 -8 392 -20 326 -20 C 280 -20 238 -14 200 -2 C 162 10 129 26 102 46 C 75 66 54 89 40 115 C 25 141 18 169 18 197 C 18 216 20 234 26 252 C 31 270 39 285 49 299 C 59 313 72 324 88 332 C 104 340 122 344 143 344 C 177 344 205 335 225 317 C 245 299 256 276 256 248 C 256 225 251 203 243 183 C 235 162 220 145 199 133 C 201 125 206 116 214 108 C 222 100 233 92 245 86 C 257 79 271 73 285 69 C 299 65 314 63 328 63 C 354 63 380 67 405 77 C 430 87 452 102 472 123 C 491 144 507 172 519 206 C 531 240 537 281 537 330 L 537 1329 C 537 1348 532 1362 523 1372 C 513 1382 496 1392 471 1403 C 448 1411 433 1418 426 1422 C 419 1426 416 1433 416 1444 L 416 1495 L 858 1495 Z" unicode="J" />
<glyph horiz-adv-x="1341" d="M 1376 49 L 1376 0 L 887 0 L 887 49 C 887 57 891 64 900 69 C 909 73 922 80 940 88 C 948 92 955 97 962 103 C 969 109 973 114 973 119 C 973 125 967 134 956 148 C 944 162 934 174 926 184 L 403 762 L 403 166 C 403 142 407 127 415 120 C 423 112 439 103 465 92 C 486 83 500 77 506 73 C 512 69 516 61 516 51 L 516 0 L 80 0 L 80 51 C 80 61 83 68 90 72 C 96 75 111 82 135 92 C 161 103 178 112 186 120 C 193 127 197 142 197 166 L 197 1329 C 197 1348 193 1362 185 1372 C 177 1382 160 1392 135 1403 C 111 1411 96 1418 90 1422 C 83 1426 80 1433 80 1444 L 80 1495 L 516 1495 L 516 1444 C 516 1433 512 1426 506 1422 C 500 1418 486 1411 465 1403 C 438 1391 421 1382 414 1376 C 406 1369 403 1353 403 1329 L 403 817 L 889 1303 C 901 1315 913 1328 925 1340 C 936 1352 942 1362 942 1368 C 942 1378 934 1386 920 1392 C 905 1397 889 1403 872 1409 C 850 1417 837 1423 832 1429 C 827 1435 825 1444 825 1456 L 825 1495 L 1270 1495 L 1270 1446 C 1270 1432 1266 1423 1259 1419 C 1252 1415 1232 1407 1200 1397 C 1180 1390 1164 1383 1150 1377 C 1136 1371 1123 1364 1111 1356 C 1099 1348 1087 1338 1075 1328 C 1063 1317 1049 1304 1034 1290 L 573 856 L 1192 178 C 1205 164 1223 148 1245 132 C 1267 115 1291 100 1319 88 C 1342 78 1357 71 1365 68 C 1372 64 1376 58 1376 49 Z" unicode="K" />
<glyph horiz-adv-x="1165" d="M 1143 340 L 1143 0 L 78 0 L 78 51 C 78 61 81 68 88 72 C 94 75 109 82 133 92 C 159 103 177 112 185 120 C 193 127 197 142 197 166 L 197 1329 C 197 1348 193 1362 186 1372 C 178 1382 162 1392 137 1403 C 113 1411 98 1418 92 1422 C 85 1426 82 1433 82 1444 L 82 1495 L 516 1495 L 516 1444 C 516 1433 512 1426 506 1422 C 500 1418 486 1411 465 1403 C 438 1391 421 1382 414 1376 C 406 1369 403 1353 403 1329 L 403 100 L 838 100 C 866 100 891 103 911 111 C 931 118 948 129 963 145 C 978 161 992 181 1005 207 C 1018 232 1032 263 1046 299 C 1050 313 1055 324 1061 330 C 1066 336 1075 340 1087 340 L 1143 340 Z" unicode="L" />
<glyph horiz-adv-x="1761" d="M 1681 51 L 1681 0 L 1249 0 L 1249 51 C 1249 61 1252 69 1258 73 C 1264 77 1278 83 1300 92 C 1328 104 1345 114 1353 121 C 1360 127 1364 142 1364 166 L 1364 1339 L 897 23 C 895 15 889 9 879 5 C 869 0 858 -2 844 -2 C 825 -2 812 0 805 5 C 797 9 792 15 790 23 L 326 1358 L 326 227 C 326 203 330 181 338 160 C 346 138 361 119 383 102 C 404 85 419 75 427 71 C 435 67 440 61 440 53 L 440 0 L 80 0 L 80 53 C 80 61 83 68 90 73 C 97 78 112 89 135 106 C 156 123 172 141 182 161 C 192 181 197 202 197 225 L 197 1329 C 197 1348 193 1362 185 1372 C 177 1382 160 1392 135 1403 C 111 1411 96 1418 90 1422 C 83 1426 80 1433 80 1444 L 80 1495 L 481 1495 L 891 315 L 1300 1495 L 1681 1495 L 1681 1444 C 1681 1433 1677 1426 1671 1422 C 1665 1418 1650 1411 1628 1403 C 1601 1391 1584 1382 1577 1376 C 1570 1369 1567 1353 1567 1329 L 1567 166 C 1567 147 1570 133 1578 123 C 1586 113 1602 103 1628 92 C 1650 83 1665 77 1671 73 C 1677 69 1681 61 1681 51 Z" unicode="M" />
<glyph horiz-adv-x="1456" d="M 1384 1495 L 1384 1442 C 1384 1433 1380 1426 1372 1422 C 1364 1417 1350 1407 1329 1391 C 1306 1373 1290 1354 1281 1334 C 1272 1314 1268 1292 1268 1270 L 1268 -10 L 1182 -10 L 326 1294 L 326 227 C 326 203 330 181 338 160 C 346 138 361 119 383 102 C 404 85 419 75 427 71 C 435 67 440 61 440 53 L 440 0 L 80 0 L 80 53 C 80 61 83 68 90 73 C 97 78 112 89 135 106 C 156 123 172 141 182 161 C 192 181 197 202 197 225 L 197 1329 C 197 1348 193 1362 185 1372 C 177 1382 160 1392 135 1403 C 111 1411 96 1418 90 1422 C 83 1426 80 1433 80 1444 L 80 1495 L 424 1495 L 1139 397 L 1139 1268 C 1139 1291 1134 1313 1126 1335 C 1117 1356 1101 1375 1079 1393 C 1058 1409 1043 1419 1035 1423 C 1026 1427 1022 1433 1022 1442 L 1022 1495 L 1384 1495 Z" unicode="N" />
<glyph horiz-adv-x="1495" d="M 747 1516 C 845 1516 936 1496 1019 1458 C 1101 1419 1172 1366 1231 1298 C 1290 1230 1336 1149 1369 1055 C 1402 961 1419 858 1419 748 C 1419 636 1402 533 1369 439 C 1336 345 1290 264 1231 196 C 1172 128 1101 75 1019 37 C 936 0 845 -20 747 -20 C 649 -20 558 -1 476 36 C 394 74 323 126 264 193 C 205 260 159 341 126 436 C 92 530 76 634 76 748 C 76 858 92 961 126 1055 C 159 1149 205 1230 264 1298 C 323 1366 394 1419 476 1458 C 558 1496 649 1516 747 1516 Z M 747 80 C 813 80 873 94 927 122 C 981 150 1028 192 1066 248 C 1104 303 1134 373 1156 457 C 1177 541 1188 638 1188 748 C 1188 855 1177 950 1156 1034 C 1134 1117 1104 1187 1066 1243 C 1028 1299 981 1342 927 1371 C 873 1400 813 1415 747 1415 C 681 1415 620 1400 566 1371 C 512 1342 466 1299 428 1243 C 390 1187 360 1117 339 1034 C 317 950 307 855 307 748 C 307 640 317 544 339 461 C 360 377 390 307 428 251 C 466 195 512 152 566 123 C 620 94 681 80 747 80 Z" unicode="O" />
<glyph horiz-adv-x="1171" d="M 612 1495 C 702 1495 780 1484 847 1463 C 913 1441 968 1413 1011 1377 C 1054 1341 1086 1300 1107 1252 C 1128 1204 1139 1154 1139 1102 C 1139 1048 1128 994 1107 942 C 1085 890 1052 843 1006 803 C 960 763 899 730 825 705 C 751 680 661 668 557 668 L 403 668 L 403 166 C 403 142 407 127 416 120 C 424 112 441 103 467 92 C 488 83 502 77 508 73 C 514 69 518 61 518 51 L 518 0 L 78 0 L 78 51 C 78 61 81 68 88 72 C 94 75 109 82 133 92 C 159 103 177 112 185 120 C 193 127 197 142 197 166 L 197 1329 C 197 1348 193 1362 186 1372 C 178 1382 162 1392 137 1403 C 113 1411 98 1418 92 1422 C 85 1426 82 1433 82 1444 L 82 1495 L 612 1495 Z M 563 774 C 622 774 673 781 717 797 C 760 812 796 834 824 862 C 852 890 872 925 886 965 C 900 1005 907 1050 907 1100 C 907 1142 899 1182 885 1218 C 871 1254 849 1286 820 1312 C 791 1338 754 1358 710 1373 C 666 1387 614 1395 555 1395 L 403 1395 L 403 774 L 563 774 Z" unicode="P" />
<glyph horiz-adv-x="1495" d="M 1513 -152 L 1513 -227 C 1502 -238 1488 -251 1471 -265 C 1453 -279 1433 -292 1409 -304 C 1385 -316 1357 -327 1327 -335 C 1297 -343 1263 -348 1227 -348 C 1189 -348 1153 -343 1121 -333 C 1088 -323 1057 -311 1028 -295 C 998 -279 970 -261 942 -241 C 914 -221 887 -200 860 -180 C 827 -154 799 -133 775 -115 C 751 -97 729 -81 710 -68 C 691 -54 673 -42 656 -32 C 638 -22 620 -12 602 -2 C 523 14 451 43 387 87 C 322 130 267 184 221 249 C 175 313 139 388 114 473 C 88 557 76 649 76 748 C 76 858 92 961 126 1055 C 159 1149 205 1230 264 1298 C 323 1366 394 1419 476 1458 C 558 1496 649 1516 747 1516 C 845 1516 936 1496 1019 1458 C 1101 1419 1172 1366 1231 1298 C 1290 1230 1336 1149 1369 1055 C 1402 961 1419 858 1419 748 C 1419 646 1405 552 1377 465 C 1349 377 1309 301 1259 235 C 1209 169 1148 115 1078 73 C 1007 31 929 4 844 -8 C 874 -17 913 -31 959 -49 C 1005 -67 1054 -90 1106 -117 C 1158 -144 1204 -162 1244 -172 C 1284 -181 1329 -186 1380 -186 C 1408 -186 1432 -181 1454 -173 C 1475 -165 1495 -158 1513 -152 Z M 747 78 C 813 78 873 92 927 120 C 981 148 1028 191 1066 247 C 1104 303 1134 373 1156 457 C 1177 541 1188 638 1188 748 C 1188 855 1177 950 1156 1034 C 1134 1117 1104 1187 1066 1243 C 1028 1299 981 1342 927 1371 C 873 1400 813 1415 747 1415 C 681 1415 620 1400 566 1371 C 512 1342 466 1299 428 1243 C 390 1187 360 1117 339 1034 C 317 950 307 855 307 748 C 307 640 317 544 339 460 C 360 376 390 306 428 250 C 466 194 512 151 566 122 C 620 92 681 78 747 78 Z" unicode="Q" />
<glyph horiz-adv-x="1329" d="M 569 795 C 687 795 776 821 835 873 C 894 925 924 1004 924 1108 C 924 1156 915 1199 898 1235 C 881 1271 858 1300 829 1324 C 799 1348 764 1365 723 1377 C 682 1389 638 1395 590 1395 L 403 1395 L 403 795 L 569 795 Z M 1352 49 L 1352 0 L 1051 0 L 825 360 C 795 408 766 452 739 492 C 712 532 684 567 656 596 C 628 625 597 648 564 664 C 531 680 494 688 453 688 L 403 688 L 403 166 C 403 142 407 127 416 120 C 424 112 441 103 467 92 C 488 83 502 77 508 73 C 514 69 518 61 518 51 L 518 0 L 78 0 L 78 51 C 78 61 81 68 88 72 C 94 75 109 82 133 92 C 159 103 177 112 185 120 C 193 127 197 142 197 166 L 197 1329 C 197 1348 193 1362 186 1372 C 178 1382 162 1392 137 1403 C 113 1411 98 1418 92 1422 C 85 1426 82 1433 82 1444 L 82 1495 L 643 1495 C 728 1495 803 1485 868 1465 C 932 1445 986 1417 1029 1383 C 1071 1348 1103 1307 1125 1260 C 1146 1212 1157 1162 1157 1108 C 1157 1065 1148 1023 1131 981 C 1114 939 1089 901 1056 867 C 1022 833 980 803 930 777 C 879 751 820 733 754 721 C 776 711 798 699 819 683 C 840 667 864 642 891 610 C 917 578 949 534 985 480 C 1021 425 1066 355 1118 270 C 1144 227 1170 190 1194 158 C 1218 126 1246 104 1276 94 C 1306 84 1327 76 1337 72 C 1347 67 1352 59 1352 49 Z" unicode="R" />
<glyph horiz-adv-x="1124" d="M 711 870 C 831 822 919 762 975 690 C 1031 618 1059 540 1059 455 C 1059 398 1048 341 1028 284 C 1008 227 977 176 937 132 C 897 87 846 50 784 22 C 722 -5 649 -20 567 -20 C 534 -20 501 -17 469 -13 C 436 -9 406 -4 378 2 C 350 8 326 14 305 21 C 284 27 269 33 260 39 C 251 43 242 46 234 49 C 226 51 219 53 215 53 C 206 53 199 51 194 47 C 188 43 184 37 180 31 C 173 19 165 11 156 7 C 147 2 139 0 133 0 L 76 0 L 76 403 L 139 403 C 149 403 157 401 163 398 C 169 395 175 385 182 367 C 202 315 227 270 256 234 C 285 197 316 167 350 145 C 383 122 418 105 455 95 C 492 85 529 80 567 80 C 609 80 650 86 688 99 C 726 111 759 130 787 155 C 815 179 838 210 854 247 C 870 284 879 327 879 375 C 879 415 872 449 860 479 C 847 509 830 534 808 556 C 786 578 761 596 732 612 C 703 627 673 641 641 653 C 594 671 555 688 523 702 C 491 716 456 730 418 745 C 367 765 323 790 286 818 C 248 846 218 876 194 908 C 170 940 152 974 140 1010 C 128 1045 123 1080 123 1114 C 123 1164 132 1214 151 1263 C 170 1311 198 1354 234 1392 C 270 1429 314 1459 367 1482 C 420 1504 481 1516 549 1516 C 581 1516 618 1511 658 1502 C 698 1493 741 1475 788 1448 C 799 1441 810 1436 820 1432 C 830 1428 841 1430 854 1440 C 866 1448 875 1454 879 1456 C 883 1458 889 1460 897 1460 L 944 1460 L 944 1102 L 879 1102 C 867 1102 859 1104 855 1109 C 851 1113 848 1120 846 1128 C 818 1217 777 1287 724 1338 C 671 1389 607 1415 532 1415 C 503 1415 474 1410 446 1400 C 417 1390 391 1376 369 1358 C 346 1340 328 1318 314 1293 C 300 1267 293 1239 293 1208 C 293 1173 296 1143 304 1119 C 312 1094 323 1072 338 1054 C 353 1036 372 1020 395 1006 C 417 992 443 978 473 965 C 509 947 549 931 591 916 C 633 900 673 885 711 870 Z" unicode="S" />
<glyph horiz-adv-x="1249" d="M 1229 1511 L 1229 1198 L 1188 1198 C 1169 1198 1154 1202 1144 1211 C 1133 1220 1126 1231 1122 1243 C 1104 1298 1083 1337 1059 1361 C 1034 1385 1003 1397 965 1397 L 729 1397 L 729 166 C 729 142 733 127 741 120 C 749 112 767 103 793 92 C 815 83 830 77 837 73 C 844 69 848 61 848 51 L 848 0 L 403 0 L 403 51 C 403 61 406 69 414 73 C 421 77 435 83 457 92 C 483 104 501 114 509 121 C 517 127 522 142 522 166 L 522 1397 L 285 1397 C 247 1397 215 1385 191 1361 C 166 1337 145 1298 129 1243 C 125 1231 117 1220 106 1211 C 94 1202 80 1198 63 1198 L 20 1198 L 20 1511 C 28 1510 41 1509 59 1507 C 76 1505 95 1503 115 1501 C 135 1499 155 1498 175 1497 C 195 1495 213 1495 227 1495 L 1022 1495 C 1030 1495 1043 1495 1063 1497 C 1083 1498 1103 1499 1125 1501 C 1147 1503 1167 1505 1187 1507 C 1207 1509 1221 1510 1229 1511 Z" unicode="T" />
<glyph horiz-adv-x="1456" d="M 1397 1495 L 1397 1442 C 1397 1433 1393 1426 1386 1422 C 1378 1417 1363 1407 1341 1391 C 1318 1373 1302 1354 1293 1334 C 1284 1314 1280 1292 1280 1270 L 1280 537 C 1280 467 1269 399 1248 332 C 1227 265 1195 206 1152 154 C 1108 102 1053 60 987 28 C 921 -4 843 -20 754 -20 C 656 -20 572 -6 500 21 C 428 48 368 85 322 133 C 275 181 240 237 218 303 C 195 368 184 438 184 514 L 184 1329 C 184 1348 180 1362 172 1372 C 164 1382 147 1392 123 1403 C 99 1411 84 1418 78 1422 C 71 1426 68 1433 68 1444 L 68 1495 L 506 1495 L 506 1444 C 506 1433 502 1426 496 1422 C 490 1418 475 1411 453 1403 C 427 1391 410 1381 402 1372 C 394 1362 391 1348 391 1329 L 391 528 C 391 464 399 407 416 356 C 432 305 456 262 488 227 C 520 191 559 164 605 145 C 651 126 704 117 764 117 C 898 117 996 154 1059 230 C 1121 306 1153 412 1153 549 L 1153 1268 C 1153 1291 1148 1313 1139 1335 C 1130 1356 1114 1375 1092 1393 C 1071 1409 1056 1419 1048 1423 C 1040 1427 1036 1433 1036 1442 L 1036 1495 L 1397 1495 Z" unicode="U" />
<glyph horiz-adv-x="1413" d="M 1411 1495 L 1411 1454 C 1411 1444 1408 1436 1403 1430 C 1397 1424 1386 1417 1370 1407 C 1355 1397 1343 1389 1333 1383 C 1323 1376 1314 1369 1307 1361 C 1299 1353 1292 1343 1286 1331 C 1280 1319 1273 1304 1266 1286 L 758 4 C 755 -2 751 -7 746 -11 C 740 -14 733 -16 725 -16 L 704 -16 C 697 -16 691 -14 685 -12 C 679 -9 674 -4 672 4 L 141 1317 C 133 1337 121 1354 107 1367 C 93 1380 73 1392 49 1403 C 26 1411 11 1418 5 1422 C 0 1426 -4 1433 -4 1444 L -4 1495 L 451 1495 L 451 1454 C 451 1444 447 1436 440 1432 C 433 1428 419 1420 399 1409 C 383 1401 371 1393 363 1385 C 355 1377 352 1368 352 1358 C 352 1349 354 1337 359 1321 C 364 1305 370 1288 377 1272 L 760 307 L 1126 1276 C 1131 1288 1136 1303 1142 1322 C 1148 1341 1151 1354 1151 1360 C 1151 1375 1145 1386 1134 1394 C 1122 1401 1107 1408 1089 1415 C 1070 1423 1056 1431 1048 1438 C 1040 1444 1036 1453 1036 1464 L 1036 1495 L 1411 1495 Z" unicode="V" />
<glyph horiz-adv-x="2040" d="M 2034 1495 L 2034 1454 C 2034 1444 2031 1436 2025 1430 C 2019 1424 2009 1417 1993 1407 C 1977 1397 1964 1389 1954 1383 C 1944 1377 1935 1370 1928 1362 C 1920 1354 1914 1345 1908 1333 C 1902 1321 1895 1306 1888 1286 L 1436 4 C 1434 0 1430 -5 1425 -9 C 1419 -13 1413 -16 1407 -16 L 1376 -16 C 1368 -16 1361 -14 1355 -11 C 1349 -7 1345 -2 1343 4 L 1032 946 L 709 4 C 706 -2 702 -7 697 -11 C 692 -14 686 -16 680 -16 L 651 -16 C 644 -16 638 -14 632 -11 C 626 -7 621 -2 618 4 L 145 1317 C 139 1335 128 1352 113 1366 C 97 1380 77 1392 53 1403 C 30 1411 15 1418 9 1422 C 3 1426 0 1433 0 1444 L 0 1495 L 455 1495 L 455 1454 C 455 1444 451 1436 444 1432 C 437 1428 423 1420 403 1409 C 387 1401 375 1393 367 1385 C 359 1377 356 1368 356 1358 C 356 1349 358 1335 363 1315 C 368 1295 373 1280 377 1268 L 702 330 L 975 1104 L 895 1317 C 888 1335 878 1352 865 1366 C 851 1380 832 1392 807 1403 C 785 1411 771 1418 765 1422 C 759 1426 756 1433 756 1444 L 756 1495 L 1208 1495 L 1208 1454 C 1208 1444 1204 1436 1197 1432 C 1190 1428 1176 1420 1155 1409 C 1138 1401 1125 1393 1117 1385 C 1108 1377 1104 1368 1104 1358 C 1104 1349 1106 1335 1111 1316 C 1115 1296 1120 1280 1124 1268 L 1434 324 L 1749 1276 C 1753 1291 1758 1307 1762 1325 C 1766 1342 1769 1354 1769 1360 C 1769 1375 1763 1386 1752 1394 C 1741 1401 1726 1408 1708 1415 C 1687 1423 1673 1431 1665 1438 C 1657 1444 1653 1453 1653 1464 L 1653 1495 L 2034 1495 Z" unicode="W" />
<glyph horiz-adv-x="1296" d="M 1296 49 L 1296 0 L 842 0 L 842 33 C 842 45 843 54 847 59 C 851 64 861 71 879 80 C 891 86 903 93 914 102 C 924 110 930 120 930 131 C 930 137 926 149 920 165 C 913 181 905 197 895 213 L 610 651 L 315 195 C 307 184 301 173 298 163 C 294 153 293 144 293 137 C 293 124 301 113 317 105 C 333 96 352 88 375 80 C 387 75 396 68 402 59 C 408 50 412 41 412 31 L 412 0 L 0 0 L 0 41 C 0 49 2 57 7 65 C 11 73 23 80 43 86 C 60 92 75 98 88 105 C 100 112 112 121 124 131 C 135 141 146 153 158 168 C 170 183 183 202 199 225 L 549 743 L 184 1303 C 175 1317 167 1328 161 1337 C 155 1345 148 1353 140 1359 C 132 1365 124 1371 114 1377 C 104 1383 92 1389 76 1397 C 52 1407 38 1415 34 1422 C 29 1428 27 1436 27 1446 L 27 1495 L 483 1495 L 483 1462 C 483 1449 481 1440 477 1435 C 473 1430 462 1423 444 1415 C 432 1409 420 1402 410 1394 C 400 1386 395 1377 395 1366 C 395 1359 398 1347 405 1330 C 411 1313 420 1297 430 1282 L 682 893 L 948 1300 C 952 1308 957 1318 963 1330 C 968 1341 971 1351 971 1360 C 971 1372 962 1382 945 1390 C 928 1398 908 1406 885 1415 C 873 1419 865 1425 859 1435 C 853 1444 850 1454 850 1464 L 850 1495 L 1255 1495 L 1255 1454 C 1255 1445 1252 1437 1247 1429 C 1242 1421 1230 1415 1212 1409 C 1196 1404 1183 1398 1172 1392 C 1160 1386 1149 1378 1139 1368 C 1128 1358 1117 1345 1105 1329 C 1093 1313 1079 1294 1063 1270 L 743 803 L 1143 193 C 1151 179 1159 168 1165 160 C 1171 151 1178 143 1186 137 C 1193 130 1201 124 1211 118 C 1221 112 1233 106 1249 98 C 1271 88 1285 79 1289 73 C 1293 66 1296 58 1296 49 Z" unicode="X" />
<glyph horiz-adv-x="1274" d="M 1284 1495 L 1284 1454 C 1284 1444 1281 1436 1275 1430 C 1269 1424 1258 1417 1243 1409 C 1229 1401 1217 1394 1207 1388 C 1197 1382 1188 1376 1180 1369 C 1171 1361 1162 1352 1153 1340 C 1144 1328 1133 1311 1120 1290 L 747 682 L 747 166 C 747 146 751 132 759 123 C 767 113 784 103 809 92 C 831 83 846 77 853 73 C 860 69 864 61 864 51 L 864 0 L 420 0 L 420 51 C 420 61 423 68 430 72 C 437 75 452 82 475 92 C 501 103 519 112 528 120 C 536 127 541 142 541 166 L 541 678 L 135 1317 C 123 1337 110 1354 97 1367 C 84 1380 65 1392 41 1403 C 18 1411 3 1418 -2 1422 C -8 1426 -12 1433 -12 1444 L -12 1495 L 448 1495 L 448 1462 C 448 1451 445 1443 441 1439 C 437 1434 424 1426 403 1415 C 387 1407 374 1399 364 1393 C 354 1387 350 1379 350 1370 C 350 1367 351 1363 354 1357 C 356 1351 359 1344 363 1337 C 366 1329 369 1322 373 1315 C 377 1307 380 1302 383 1298 L 692 801 L 989 1296 C 997 1310 1005 1325 1012 1340 C 1018 1355 1022 1366 1022 1372 C 1022 1383 1016 1391 1005 1397 C 994 1403 981 1409 967 1415 C 945 1423 930 1431 922 1437 C 913 1443 909 1452 909 1462 L 909 1495 L 1284 1495 Z" unicode="Y" />
<glyph horiz-adv-x="1218" d="M 1159 336 L 1159 -16 C 1149 -15 1136 -14 1118 -12 C 1100 -10 1080 -8 1060 -6 C 1039 -4 1019 -3 999 -2 C 979 0 962 0 948 0 L 45 0 L 45 37 C 45 49 47 61 53 71 C 58 81 66 95 78 113 L 893 1395 L 387 1395 C 347 1395 314 1383 290 1359 C 265 1335 244 1296 227 1241 C 223 1229 216 1218 206 1209 C 196 1200 182 1196 164 1196 L 123 1196 L 123 1511 C 131 1510 144 1509 160 1507 C 176 1505 193 1503 211 1501 C 229 1499 246 1498 264 1497 C 282 1495 297 1495 309 1495 L 1147 1495 L 1147 1468 C 1147 1447 1143 1431 1137 1421 C 1130 1411 1122 1398 1114 1384 L 301 100 L 844 100 C 872 100 897 103 918 110 C 939 116 958 127 975 143 C 991 158 1007 178 1021 203 C 1035 228 1049 259 1063 295 C 1067 309 1071 320 1077 326 C 1083 332 1092 336 1106 336 L 1159 336 Z" unicode="Z" />
<glyph horiz-adv-x="686" d="M 629 -305 L 629 -389 L 141 -389 L 141 1495 L 629 1495 L 629 1411 L 315 1411 L 315 -305 L 629 -305 Z" unicode="[" />
<glyph horiz-adv-x="946" d="M 233 1495 L 963 -389 L 829 -389 L 98 1495 L 233 1495 Z" unicode="\" />
<glyph horiz-adv-x="686" d="M 545 1495 L 545 -389 L 57 -389 L 57 -305 L 371 -305 L 371 1411 L 57 1411 L 57 1495 L 545 1495 Z" unicode="]" />
<glyph horiz-adv-x="1540" d="M 836 1495 L 1237 664 L 1094 664 L 770 1354 L 446 664 L 303 664 L 704 1495 L 836 1495 Z" unicode="^" />
<glyph horiz-adv-x="1028" d="M 1032 -123 L 1032 -211 L -4 -211 L -4 -123 L 1032 -123 Z" unicode="_" />
<glyph horiz-adv-x="823" d="M 383 1313 L 637 1022 L 588 987 L 268 1171 C 238 1188 216 1206 202 1224 C 187 1242 180 1261 180 1280 C 180 1304 188 1326 204 1344 C 220 1362 241 1372 268 1372 C 285 1372 303 1368 321 1361 C 339 1354 360 1338 383 1313 Z" unicode="`" />
<glyph horiz-adv-x="942" d="M 408 88 C 432 88 455 92 479 101 C 503 110 524 122 543 137 C 561 151 576 168 588 188 C 600 208 606 228 606 250 L 606 469 C 491 469 402 449 339 411 C 275 373 244 322 244 258 C 244 202 259 159 291 131 C 323 102 362 88 408 88 Z M 911 131 L 954 90 C 935 58 910 33 880 15 C 850 -2 820 -12 790 -12 C 754 -12 721 -1 691 20 C 660 41 639 71 629 109 C 594 69 553 37 506 15 C 458 -6 409 -18 358 -18 C 319 -18 281 -12 245 -2 C 208 8 176 24 148 46 C 120 68 97 95 80 128 C 63 160 55 198 55 242 C 55 287 66 329 90 367 C 113 405 148 438 194 466 C 240 493 297 514 366 530 C 435 545 515 553 606 553 C 606 637 589 701 557 744 C 525 787 481 809 426 809 C 408 809 392 808 377 806 C 361 804 350 803 342 801 C 342 779 340 758 338 738 C 336 718 331 700 323 684 C 315 668 304 656 290 647 C 275 637 255 633 231 633 C 197 633 171 640 153 655 C 135 670 127 694 127 727 C 127 747 133 768 147 788 C 160 808 179 825 204 841 C 229 857 260 870 297 880 C 334 890 376 895 424 895 C 490 895 547 886 594 869 C 640 852 678 828 706 798 C 734 768 755 731 768 688 C 781 645 788 598 788 547 L 788 184 C 788 160 793 142 805 129 C 816 115 833 109 856 109 C 864 109 873 111 884 116 C 895 121 904 126 911 131 Z" unicode="a" />
<glyph horiz-adv-x="1038" d="M 522 84 C 568 84 609 92 643 110 C 677 127 704 151 726 183 C 748 214 764 252 774 297 C 784 341 790 390 790 444 C 790 506 783 558 769 601 C 755 643 736 677 714 703 C 692 728 666 746 637 757 C 607 768 577 774 547 774 C 495 774 452 764 419 746 C 385 727 355 702 328 672 L 328 172 C 336 163 346 153 358 143 C 370 133 385 123 401 115 C 417 106 435 99 455 93 C 475 87 498 84 522 84 Z M 575 885 C 625 885 674 876 724 858 C 773 840 817 814 855 778 C 893 742 925 696 949 641 C 973 585 985 520 985 446 C 985 386 975 329 955 273 C 935 217 906 167 868 124 C 830 81 784 47 730 21 C 675 -5 613 -18 545 -18 C 493 -18 446 -10 406 5 C 365 21 330 37 301 55 C 295 59 288 61 280 63 C 272 64 266 62 262 57 L 197 -10 C 193 -12 189 -15 184 -17 C 178 -19 174 -20 170 -20 C 164 -20 158 -18 153 -14 C 147 -10 145 -4 145 2 L 145 1313 C 145 1337 142 1355 136 1366 C 130 1376 115 1387 92 1399 C 75 1407 63 1412 57 1416 C 50 1419 47 1425 47 1434 L 47 1479 L 328 1495 L 328 784 C 338 793 351 803 366 815 C 381 827 399 838 419 848 C 439 858 462 867 488 874 C 514 881 543 885 575 885 Z" unicode="b" />
<glyph horiz-adv-x="821" d="M 770 242 L 823 184 C 811 162 794 139 774 115 C 754 91 729 69 700 50 C 671 30 638 14 600 1 C 562 -11 519 -18 473 -18 C 416 -18 362 -7 311 12 C 260 32 216 61 178 99 C 140 137 109 183 87 239 C 64 294 53 356 53 426 C 53 486 63 544 84 600 C 105 656 134 705 172 747 C 210 789 255 822 308 847 C 361 872 419 885 483 885 C 532 885 575 879 613 868 C 650 856 681 841 705 823 C 729 805 748 784 760 762 C 772 740 778 718 778 696 C 778 652 767 622 745 607 C 723 591 700 584 676 584 C 647 584 622 591 600 606 C 578 620 567 644 567 676 C 567 686 569 701 573 719 C 577 737 582 754 588 770 C 580 774 565 780 543 787 C 521 793 493 797 461 797 C 425 797 393 788 366 770 C 338 752 316 728 298 698 C 280 668 267 632 259 591 C 250 549 246 505 246 459 C 246 414 250 370 260 326 C 270 282 285 242 306 208 C 326 173 353 145 385 124 C 417 102 455 92 500 92 C 531 92 559 96 585 105 C 610 113 633 124 655 138 C 677 152 697 168 716 186 C 734 204 752 223 770 242 Z" unicode="c" />
<glyph horiz-adv-x="1055" d="M 498 94 C 535 94 572 102 610 120 C 647 137 680 159 709 186 L 709 676 C 684 704 655 728 621 747 C 587 766 546 776 498 776 C 450 776 411 766 379 747 C 347 728 321 703 302 672 C 282 640 268 604 260 564 C 252 523 248 481 248 438 C 248 377 254 325 268 281 C 282 237 300 202 323 174 C 346 146 373 126 403 113 C 433 100 465 94 498 94 Z M 987 59 L 987 14 L 715 -2 L 715 96 C 688 67 653 41 611 18 C 569 -4 519 -16 461 -16 C 400 -16 344 -4 294 18 C 244 41 201 73 165 113 C 129 153 102 201 82 256 C 62 311 53 370 53 434 C 53 504 64 568 87 624 C 109 680 139 727 177 765 C 214 803 257 833 307 854 C 357 874 408 885 461 885 C 492 885 520 882 546 876 C 571 870 594 862 614 852 C 634 842 651 832 667 820 C 682 808 696 797 709 786 L 709 1315 C 709 1337 705 1354 698 1365 C 690 1376 675 1387 653 1399 C 636 1407 623 1412 614 1416 C 604 1419 600 1425 600 1434 L 600 1479 L 891 1495 L 891 162 C 891 137 893 121 899 114 C 904 107 918 98 942 88 C 959 81 971 76 977 74 C 983 71 987 66 987 59 Z" unicode="d" />
<glyph horiz-adv-x="901" d="M 479 895 C 549 895 609 882 658 856 C 706 830 745 796 775 755 C 804 714 825 668 838 617 C 851 566 858 516 858 467 L 240 467 C 240 414 245 365 255 319 C 265 273 281 233 303 200 C 325 167 353 141 387 122 C 421 103 461 94 508 94 C 569 94 624 109 674 139 C 724 169 766 205 801 246 L 856 190 C 846 170 830 148 808 124 C 786 100 758 77 726 56 C 694 35 657 17 616 3 C 574 -10 530 -18 483 -18 C 413 -18 352 -5 298 19 C 244 43 199 76 163 117 C 127 158 99 205 81 259 C 62 313 53 368 53 426 C 53 483 62 540 81 596 C 100 652 128 703 164 747 C 200 791 245 826 298 854 C 351 881 411 895 479 895 Z M 244 561 L 674 561 C 671 594 666 625 658 655 C 650 685 638 711 622 733 C 606 755 585 772 560 785 C 535 798 505 805 469 805 C 441 805 414 799 389 787 C 363 775 341 758 321 737 C 301 715 285 690 271 660 C 257 630 248 597 244 561 Z" unicode="e" />
<glyph horiz-adv-x="598" d="M 539 1495 C 566 1495 589 1491 608 1484 C 627 1477 642 1468 654 1457 C 666 1446 674 1434 680 1420 C 685 1406 688 1393 688 1380 C 688 1349 679 1324 662 1304 C 644 1284 619 1274 586 1274 C 575 1274 563 1275 551 1279 C 539 1283 527 1289 517 1299 C 506 1309 497 1322 489 1338 C 481 1354 477 1375 477 1401 C 471 1399 461 1394 447 1388 C 433 1381 420 1368 406 1349 C 392 1329 380 1301 370 1265 C 359 1229 354 1180 354 1120 L 354 860 L 592 860 L 592 768 L 358 768 L 358 147 C 358 134 358 124 359 117 C 360 110 362 104 366 100 C 370 96 375 92 382 89 C 389 85 399 81 412 76 C 426 69 437 64 446 60 C 454 56 459 51 459 45 L 459 0 L 82 0 L 82 45 C 82 53 85 58 91 60 C 97 62 110 67 129 76 C 140 81 149 85 155 89 C 161 92 166 96 169 100 C 172 104 174 110 175 117 C 175 124 176 134 176 147 L 176 768 L 80 768 L 80 807 C 80 815 84 822 92 828 C 100 833 117 841 143 852 C 156 858 165 866 169 876 C 173 885 176 898 176 915 C 176 991 183 1064 199 1134 C 215 1204 238 1266 269 1319 C 299 1372 337 1415 383 1447 C 428 1479 480 1495 539 1495 Z" unicode="f" />
<glyph horiz-adv-x="932" d="M 444 336 C 471 336 495 342 517 355 C 539 368 557 386 573 408 C 588 430 600 455 608 484 C 616 513 620 543 620 575 C 620 605 616 633 609 661 C 602 689 591 713 576 734 C 561 755 542 772 519 784 C 495 796 468 803 436 803 C 403 803 375 796 352 783 C 328 770 309 753 295 732 C 280 711 269 687 262 660 C 255 632 252 604 252 575 C 252 501 269 443 303 400 C 337 357 384 336 444 336 Z M 854 899 C 879 899 901 892 920 878 C 938 864 948 843 948 815 C 948 792 940 774 924 761 C 908 747 892 741 876 741 C 861 741 849 743 839 748 C 829 753 821 758 815 762 C 810 766 804 769 797 773 C 789 776 782 778 776 778 C 768 778 760 776 752 772 C 744 768 739 764 735 758 C 759 723 776 690 784 660 C 792 629 797 599 797 571 C 797 529 788 488 772 449 C 756 409 732 375 701 345 C 670 315 632 292 587 274 C 542 256 491 248 434 248 C 413 248 389 250 361 254 C 333 258 310 264 293 270 L 209 119 C 234 121 264 123 299 126 C 333 129 380 131 438 131 C 519 131 586 124 640 112 C 694 99 736 82 768 60 C 799 38 821 13 834 -17 C 847 -47 854 -79 854 -113 C 854 -158 842 -199 818 -235 C 794 -271 763 -302 723 -327 C 683 -352 636 -371 582 -385 C 528 -399 472 -406 414 -406 C 305 -406 222 -391 165 -363 C 108 -334 80 -294 80 -244 C 80 -216 90 -193 110 -176 C 130 -158 156 -150 188 -150 C 226 -150 252 -164 266 -192 C 280 -220 287 -252 287 -289 C 293 -291 308 -296 333 -304 C 358 -311 385 -315 414 -315 C 440 -315 470 -312 502 -307 C 534 -302 563 -293 591 -281 C 619 -268 642 -251 660 -229 C 678 -207 688 -180 688 -147 C 688 -103 663 -72 613 -54 C 563 -36 490 -27 395 -27 C 355 -27 316 -28 278 -30 C 240 -32 205 -35 175 -38 C 145 -40 119 -43 99 -45 C 78 -47 65 -49 61 -49 C 53 -49 45 -47 38 -45 C 30 -42 27 -37 27 -29 C 27 -21 28 -15 31 -9 C 34 -3 38 3 43 10 L 219 309 C 173 341 137 379 111 424 C 85 469 72 518 72 571 C 72 618 81 662 100 702 C 119 742 145 776 178 804 C 211 832 250 855 295 871 C 340 887 388 895 440 895 C 493 895 540 887 581 872 C 621 856 657 835 688 809 C 705 834 728 855 758 873 C 788 890 820 899 854 899 Z" unicode="g" />
<glyph horiz-adv-x="1085" d="M 1024 45 L 1024 0 L 653 0 L 653 45 C 653 53 656 58 663 60 C 669 62 681 67 698 76 C 710 81 719 85 725 89 C 731 92 736 96 740 100 C 743 104 745 110 746 117 C 746 124 747 134 747 147 L 747 590 C 747 621 742 648 732 671 C 722 694 709 713 693 728 C 676 742 657 753 635 761 C 613 768 589 772 565 772 C 523 772 482 762 444 743 C 406 724 373 697 346 662 L 346 147 C 346 134 346 124 347 117 C 347 110 349 104 353 100 C 356 96 361 92 367 89 C 373 85 383 81 395 76 C 411 67 423 61 429 59 C 435 56 438 51 438 45 L 438 0 L 70 0 L 70 45 C 70 53 73 58 79 60 C 85 62 98 67 117 76 C 128 81 137 85 143 89 C 149 92 154 96 157 100 C 160 104 162 110 163 117 C 163 124 164 134 164 147 L 164 1315 C 164 1337 161 1354 155 1366 C 149 1377 136 1388 115 1399 C 96 1407 83 1413 76 1416 C 68 1419 65 1425 65 1434 L 65 1479 L 346 1495 L 346 764 C 378 795 417 823 463 848 C 509 872 565 885 631 885 C 725 885 799 858 851 804 C 903 750 930 679 930 590 L 930 147 C 930 134 930 124 931 117 C 931 110 933 104 937 100 C 940 96 945 92 952 89 C 959 85 969 81 981 76 C 997 67 1009 61 1015 59 C 1021 56 1024 51 1024 45 Z" unicode="h" />
<glyph horiz-adv-x="526" d="M 262 1395 C 296 1395 324 1383 347 1359 C 369 1335 381 1306 381 1274 C 381 1242 369 1214 347 1190 C 324 1166 296 1155 262 1155 C 229 1155 201 1166 178 1190 C 154 1214 143 1242 143 1274 C 143 1306 154 1335 178 1359 C 201 1383 229 1395 262 1395 Z M 453 45 L 453 0 L 84 0 L 84 45 C 84 53 87 58 93 60 C 99 62 112 67 131 76 C 142 81 151 85 157 89 C 163 92 168 96 171 100 C 174 104 176 110 177 117 C 177 124 178 134 178 147 L 178 702 C 178 726 175 744 169 756 C 163 768 149 778 127 786 C 108 792 95 797 89 801 C 83 805 80 810 80 817 L 80 862 L 360 879 L 360 147 C 360 134 360 124 361 117 C 361 110 363 104 367 100 C 370 96 375 92 382 89 C 388 85 398 81 410 76 C 426 67 437 61 443 59 C 449 56 453 51 453 45 Z" unicode="i" />
<glyph horiz-adv-x="502" d="M 254 1395 C 287 1395 315 1383 338 1359 C 361 1335 373 1306 373 1274 C 373 1242 361 1214 338 1190 C 315 1166 287 1155 254 1155 C 221 1155 193 1166 170 1190 C 146 1214 135 1242 135 1274 C 135 1306 146 1335 170 1359 C 193 1383 221 1395 254 1395 Z M 362 879 L 362 102 C 362 28 355 -40 341 -102 C 327 -164 307 -217 279 -261 C 251 -305 215 -340 172 -365 C 128 -390 78 -403 20 -403 C -30 -403 -68 -391 -94 -369 C -120 -347 -133 -321 -133 -293 C -133 -263 -124 -238 -106 -219 C -88 -199 -62 -190 -29 -190 C -18 -190 -6 -192 5 -197 C 17 -201 29 -209 39 -219 C 49 -229 58 -243 66 -260 C 73 -277 77 -298 78 -324 C 86 -321 95 -316 107 -310 C 119 -304 130 -292 141 -276 C 151 -259 160 -235 168 -204 C 176 -173 180 -132 180 -80 L 180 705 C 180 729 176 747 169 758 C 162 768 147 778 125 786 C 106 792 93 797 85 801 C 77 805 74 810 74 817 L 74 862 L 362 879 Z" unicode="j" />
<glyph horiz-adv-x="989" d="M 991 45 L 991 0 L 590 0 L 590 43 C 590 49 593 53 601 56 C 608 58 620 63 637 70 C 649 74 656 79 660 85 C 664 90 666 96 666 102 C 666 108 662 117 656 129 C 649 141 643 151 637 160 L 440 436 L 344 350 L 344 147 C 344 134 344 124 345 117 C 345 110 347 104 350 100 C 353 96 358 92 364 89 C 370 85 379 81 391 76 C 408 67 420 61 426 59 C 432 56 436 51 436 45 L 436 0 L 70 0 L 70 45 C 70 53 73 58 79 60 C 85 62 98 67 117 76 C 128 81 137 85 143 89 C 149 92 154 96 157 100 C 160 104 162 110 163 117 C 163 124 164 134 164 147 L 164 1315 C 164 1338 161 1355 155 1366 C 149 1377 136 1388 115 1399 C 96 1407 83 1413 76 1416 C 68 1419 65 1425 65 1434 L 65 1479 L 346 1495 L 346 449 L 594 678 C 604 686 616 699 630 716 C 644 733 651 744 651 750 C 651 758 646 764 636 770 C 626 776 611 782 592 788 C 573 794 561 800 556 804 C 551 808 549 813 549 819 L 549 860 L 956 860 L 956 817 C 956 809 951 802 941 797 C 931 792 919 787 907 782 C 877 771 851 760 829 748 C 807 736 784 722 760 705 C 736 687 710 666 680 641 C 650 615 614 584 571 547 L 836 180 C 861 144 881 120 895 108 C 909 95 925 86 942 80 C 960 73 973 67 980 62 C 987 56 991 51 991 45 Z" unicode="k" />
<glyph horiz-adv-x="512" d="M 440 45 L 440 0 L 72 0 L 72 45 C 72 53 75 58 81 60 C 87 62 100 67 119 76 C 130 81 139 85 145 89 C 151 92 156 96 159 100 C 162 104 164 110 165 117 C 165 124 166 134 166 147 L 166 1321 C 166 1339 163 1354 157 1366 C 151 1377 138 1388 117 1399 C 98 1407 85 1413 78 1416 C 71 1419 68 1425 68 1434 L 68 1479 L 348 1495 L 348 147 C 348 134 348 124 349 117 C 349 110 351 104 355 100 C 358 96 363 92 369 89 C 375 85 385 81 397 76 C 413 67 425 61 431 59 C 437 56 440 51 440 45 Z" unicode="l" />
<glyph horiz-adv-x="1632" d="M 1571 45 L 1571 0 L 1200 0 L 1200 45 C 1200 53 1203 58 1209 60 C 1215 62 1226 67 1243 76 C 1255 81 1264 85 1270 89 C 1276 92 1281 96 1285 100 C 1288 104 1290 110 1291 117 C 1291 124 1292 134 1292 147 L 1292 590 C 1292 647 1277 692 1247 724 C 1217 756 1173 772 1116 772 C 1099 772 1081 769 1062 765 C 1042 761 1023 754 1005 746 C 986 738 969 728 953 716 C 937 704 925 690 915 674 L 915 147 C 915 134 915 124 916 117 C 916 110 918 104 922 100 C 925 96 930 92 937 89 C 944 85 954 81 967 76 C 983 67 994 61 1000 59 C 1006 56 1010 51 1010 45 L 1010 0 L 641 0 L 641 45 C 641 53 644 58 650 60 C 656 62 668 67 686 76 C 698 81 707 85 713 89 C 719 92 724 96 728 100 C 731 104 733 110 734 117 C 734 124 735 134 735 147 L 735 590 C 735 647 719 692 689 724 C 658 756 615 772 559 772 C 541 772 523 769 503 765 C 483 760 465 753 447 744 C 429 735 412 724 396 712 C 380 700 368 686 358 670 L 358 147 C 358 134 358 124 359 117 C 359 110 361 104 365 100 C 368 96 373 92 380 89 C 386 85 396 81 408 76 C 424 67 435 61 441 59 C 447 56 451 51 451 45 L 451 0 L 82 0 L 82 45 C 82 53 85 58 91 60 C 97 62 110 67 129 76 C 140 81 149 85 155 89 C 161 92 166 96 169 100 C 172 104 174 110 175 117 C 175 124 176 134 176 147 L 176 702 C 176 726 173 744 167 756 C 161 768 147 778 125 786 C 106 792 93 797 87 801 C 81 805 78 810 78 817 L 78 862 L 356 879 L 356 760 C 370 774 385 789 401 804 C 417 819 436 832 458 844 C 479 856 503 865 530 873 C 557 881 588 885 623 885 C 683 885 735 873 778 849 C 821 825 855 792 879 750 C 923 792 967 825 1012 849 C 1056 873 1109 885 1169 885 C 1264 885 1339 858 1394 804 C 1449 750 1477 679 1477 590 L 1477 147 C 1477 134 1477 124 1478 117 C 1478 110 1480 104 1483 100 C 1486 96 1491 92 1497 89 C 1503 85 1512 81 1524 76 C 1542 67 1555 61 1561 59 C 1567 56 1571 51 1571 45 Z" unicode="m" />
<glyph horiz-adv-x="1098" d="M 1038 45 L 1038 0 L 666 0 L 666 45 C 666 53 669 58 676 60 C 682 62 694 67 711 76 C 723 81 732 85 739 89 C 745 92 750 96 753 100 C 756 104 758 110 759 117 C 759 124 760 134 760 147 L 760 590 C 760 652 742 697 707 727 C 671 757 628 772 577 772 C 535 772 494 761 453 741 C 412 721 380 694 358 662 L 358 147 C 358 134 358 124 359 117 C 359 110 361 104 365 100 C 368 96 373 92 380 89 C 386 85 396 81 408 76 C 424 67 435 61 441 59 C 447 56 451 51 451 45 L 451 0 L 82 0 L 82 45 C 82 53 85 58 91 60 C 97 62 110 67 129 76 C 140 81 149 85 155 89 C 161 92 166 96 169 100 C 172 104 174 110 175 117 C 175 124 176 134 176 147 L 176 702 C 176 726 173 744 167 756 C 161 768 147 778 125 786 C 106 792 93 797 87 801 C 81 805 78 810 78 817 L 78 862 L 346 879 L 346 760 C 362 776 380 791 401 806 C 421 821 444 834 469 846 C 494 858 521 867 550 874 C 579 881 610 885 643 885 C 737 885 811 858 864 804 C 917 750 944 679 944 590 L 944 147 C 944 134 944 124 945 117 C 945 110 947 104 951 100 C 954 96 959 92 965 89 C 971 85 981 81 993 76 C 1009 67 1021 61 1028 59 C 1034 56 1038 51 1038 45 Z" unicode="n" />
<glyph horiz-adv-x="981" d="M 489 895 C 553 895 611 883 665 860 C 719 837 765 805 803 765 C 841 725 871 677 893 621 C 915 565 926 504 926 438 C 926 372 915 311 893 255 C 871 199 841 151 803 111 C 765 71 719 39 665 16 C 611 -6 553 -18 489 -18 C 425 -18 366 -6 312 15 C 258 37 213 69 175 109 C 137 149 107 198 85 254 C 63 310 53 371 53 438 C 53 504 63 565 85 621 C 107 677 137 725 175 765 C 213 805 258 837 312 860 C 366 883 425 895 489 895 Z M 489 76 C 567 76 627 107 669 171 C 710 235 731 324 731 438 C 731 551 710 640 669 704 C 627 768 567 801 489 801 C 411 801 352 768 311 704 C 270 640 250 551 250 438 C 250 324 270 235 311 171 C 352 107 411 76 489 76 Z" unicode="o" />
<glyph horiz-adv-x="1046" d="M 559 90 C 592 90 623 96 653 110 C 682 124 707 145 729 175 C 751 205 768 243 780 290 C 792 336 799 393 799 459 C 799 509 792 554 780 594 C 767 633 750 666 729 692 C 708 718 683 739 655 753 C 626 767 596 774 565 774 C 541 774 518 770 496 764 C 474 757 453 748 435 738 C 416 728 399 716 385 703 C 370 690 358 678 350 666 L 350 180 C 373 156 402 135 437 117 C 472 99 513 90 559 90 Z M 600 885 C 652 885 703 874 751 854 C 799 833 840 804 876 766 C 912 728 940 682 961 628 C 982 573 993 512 993 446 C 993 386 983 329 963 273 C 943 217 916 167 881 124 C 845 81 803 47 753 21 C 703 -5 648 -18 588 -18 C 560 -18 534 -15 510 -9 C 486 -3 464 3 445 12 C 425 20 408 30 392 40 C 376 50 362 60 350 70 L 350 -242 C 350 -254 350 -263 351 -270 C 351 -276 353 -282 357 -286 C 360 -290 365 -294 371 -298 C 377 -302 387 -307 399 -313 C 415 -321 427 -327 434 -330 C 440 -332 444 -337 444 -344 L 444 -389 L 74 -389 L 74 -344 C 74 -336 77 -331 83 -329 C 89 -327 102 -322 121 -313 C 132 -307 141 -303 147 -299 C 153 -295 158 -291 161 -287 C 164 -283 166 -277 167 -270 C 167 -263 168 -254 168 -242 L 168 702 C 168 726 165 744 159 756 C 153 768 139 778 117 786 C 98 792 85 797 79 801 C 73 805 70 810 70 817 L 70 862 L 338 879 L 338 764 C 349 777 363 791 381 805 C 398 819 418 832 440 844 C 462 856 487 865 514 873 C 541 881 570 885 600 885 Z" unicode="p" />
<glyph horiz-adv-x="1020" d="M 971 -344 L 971 -389 L 600 -389 L 600 -344 C 600 -336 603 -331 610 -329 C 616 -327 628 -321 645 -313 C 657 -307 666 -302 672 -298 C 678 -294 683 -290 687 -286 C 690 -282 692 -276 693 -270 C 693 -263 694 -254 694 -242 L 694 92 C 682 82 668 71 653 59 C 637 47 620 37 602 27 C 583 17 562 9 539 3 C 515 -2 489 -6 461 -6 C 399 -6 343 5 293 29 C 243 52 200 84 165 124 C 129 164 102 212 82 266 C 62 320 53 378 53 440 C 53 507 65 569 90 625 C 114 681 147 729 188 769 C 228 809 275 840 328 862 C 381 884 435 895 491 895 C 538 895 580 888 616 874 C 652 860 687 842 721 821 C 727 817 735 814 744 814 C 753 813 760 815 764 819 L 827 887 C 829 889 833 892 839 894 C 845 896 850 897 854 897 C 860 897 865 895 869 891 C 873 887 876 881 876 874 L 876 -242 C 876 -254 876 -263 877 -270 C 877 -276 879 -282 882 -286 C 884 -290 889 -294 896 -298 C 902 -302 912 -307 924 -313 C 940 -321 952 -327 960 -330 C 967 -332 971 -337 971 -344 Z M 496 100 C 533 100 569 107 604 122 C 638 137 668 157 694 182 L 694 723 C 677 739 653 755 621 771 C 589 787 554 795 516 795 C 482 795 448 788 416 776 C 384 763 355 743 330 715 C 305 687 285 652 270 608 C 255 564 248 511 248 449 C 248 384 255 329 269 285 C 283 240 302 204 326 177 C 349 149 375 130 405 118 C 435 106 465 100 496 100 Z" unicode="q" />
<glyph horiz-adv-x="721" d="M 604 885 C 646 885 677 873 698 850 C 718 826 729 801 729 774 C 729 744 720 717 703 693 C 686 669 660 657 625 657 C 600 657 579 665 562 683 C 545 700 532 722 524 748 C 505 746 486 737 466 722 C 446 706 427 686 411 662 C 395 637 381 609 371 578 C 361 546 356 514 356 481 L 356 147 C 356 134 356 124 357 117 C 358 110 361 104 365 100 C 369 96 374 92 382 89 C 389 85 399 81 412 76 C 426 69 437 64 446 60 C 454 56 459 51 459 45 L 459 0 L 82 0 L 82 45 C 82 53 85 58 91 60 C 97 62 110 67 129 76 C 140 81 149 85 155 89 C 161 92 166 96 169 100 C 172 104 174 110 175 117 C 175 124 176 134 176 147 L 176 702 C 176 726 173 744 167 756 C 161 768 147 778 125 786 C 106 792 93 797 87 801 C 81 805 78 810 78 817 L 78 862 L 342 879 L 342 682 C 388 751 434 802 478 835 C 522 868 564 885 604 885 Z" unicode="r" />
<glyph horiz-adv-x="803" d="M 514 506 C 604 472 667 436 702 399 C 736 362 754 312 754 248 C 754 220 746 190 731 159 C 716 127 694 99 665 73 C 635 47 599 25 555 8 C 511 -9 460 -18 403 -18 C 353 -18 307 -12 265 -1 C 223 9 186 23 156 41 C 125 59 101 79 84 102 C 67 125 59 148 59 172 C 59 201 67 227 85 249 C 102 271 129 283 166 283 C 184 283 200 279 213 272 C 225 265 236 257 244 247 C 252 237 257 226 261 214 C 264 202 266 192 266 182 C 266 168 263 154 259 142 C 254 130 250 121 248 115 C 257 107 269 101 283 95 C 297 89 312 83 328 79 C 344 75 361 71 378 69 C 395 67 411 66 426 66 C 447 66 468 69 488 75 C 508 81 526 91 542 103 C 558 115 570 130 580 148 C 589 166 594 186 594 209 C 594 230 587 249 574 265 C 561 281 543 295 520 309 C 497 322 470 334 439 346 C 407 358 374 370 338 383 C 292 399 253 416 223 434 C 193 452 169 471 151 493 C 133 514 120 537 113 561 C 105 585 102 611 102 639 C 102 671 110 703 128 733 C 146 763 169 790 198 814 C 226 837 259 856 297 870 C 335 884 374 891 414 891 C 462 891 504 886 540 877 C 576 867 605 855 629 841 C 652 827 669 811 681 793 C 692 775 698 757 698 741 C 698 707 688 680 668 662 C 648 644 625 635 598 635 C 568 635 545 644 527 664 C 509 684 500 707 500 735 C 500 741 500 750 502 762 C 504 774 506 783 508 791 C 502 793 490 796 473 800 C 456 804 431 807 399 807 C 363 807 330 795 302 772 C 274 748 260 718 260 682 C 260 662 265 644 275 629 C 285 614 301 600 322 587 C 343 574 370 561 402 549 C 434 536 471 522 514 506 Z" unicode="s" />
<glyph horiz-adv-x="598" d="M 547 125 L 582 53 C 576 47 565 40 550 32 C 534 24 516 16 496 8 C 476 0 453 -5 429 -10 C 405 -15 380 -18 356 -18 C 316 -18 284 -12 258 -2 C 232 7 211 22 196 40 C 180 58 169 79 163 104 C 157 128 154 155 154 184 L 154 768 L 53 768 L 53 815 C 53 823 57 829 67 834 C 76 838 93 846 119 856 C 135 862 147 869 154 877 C 160 884 164 897 164 915 L 164 1116 C 164 1122 166 1128 170 1134 C 174 1140 180 1144 186 1145 L 336 1165 L 336 860 L 551 860 L 551 768 L 336 768 L 336 186 C 336 156 343 133 359 117 C 375 100 398 92 430 92 C 444 92 463 95 485 102 C 507 109 527 117 547 125 Z" unicode="t" />
<glyph horiz-adv-x="1083" d="M 1016 59 L 1016 14 L 758 -2 L 758 111 C 725 78 684 48 636 22 C 587 -4 527 -18 455 -18 C 407 -18 365 -9 328 6 C 291 22 260 45 234 73 C 208 101 189 134 176 173 C 162 211 156 253 156 297 L 156 707 C 156 731 152 749 146 759 C 140 769 124 778 100 786 C 84 792 72 797 66 801 C 60 805 57 810 57 817 L 57 862 L 340 879 L 340 276 C 340 245 345 218 355 195 C 365 172 378 153 395 138 C 411 123 431 112 453 105 C 475 97 499 94 524 94 C 566 94 606 104 646 126 C 685 147 716 174 739 207 L 739 707 C 739 731 735 749 729 759 C 722 769 707 778 684 786 C 666 792 654 797 647 801 C 640 805 637 810 637 817 L 637 862 L 920 879 L 920 162 C 920 137 922 121 928 114 C 933 107 948 98 973 88 C 989 81 1001 76 1007 74 C 1013 71 1016 66 1016 59 Z" unicode="u" />
<glyph horiz-adv-x="934" d="M 944 860 L 944 815 C 944 808 940 802 932 798 C 924 794 915 789 905 784 C 879 772 860 756 848 737 C 835 717 822 693 809 664 L 522 -2 C 519 -6 516 -9 513 -11 C 509 -13 506 -14 502 -14 L 448 -14 C 443 -14 439 -13 435 -11 C 431 -9 428 -6 426 -2 L 100 729 C 96 737 91 745 85 755 C 79 764 65 774 45 784 C 28 792 16 798 10 801 C 3 803 0 808 0 815 L 0 860 L 391 860 L 391 815 C 391 808 387 803 381 800 C 374 797 362 792 346 786 C 324 779 311 771 307 762 C 303 753 301 744 301 735 C 301 731 303 723 308 712 C 312 700 317 690 321 680 L 512 211 L 702 678 C 706 686 710 696 712 706 C 714 716 715 724 715 731 C 715 740 710 749 701 758 C 691 766 675 775 653 784 C 641 789 631 794 624 800 C 617 805 614 811 614 817 L 614 860 L 944 860 Z" unicode="v" />
<glyph horiz-adv-x="1401" d="M 1403 860 L 1403 815 C 1403 808 1398 802 1390 798 C 1382 794 1372 789 1362 784 C 1336 772 1317 756 1303 738 C 1289 719 1278 697 1270 672 L 1018 0 C 1016 -4 1013 -7 1010 -9 C 1007 -11 1003 -12 999 -12 L 948 -12 C 943 -12 938 -11 933 -9 C 927 -7 924 -4 922 0 L 704 590 L 494 0 C 491 -4 488 -7 485 -9 C 482 -11 479 -12 475 -12 L 418 -12 C 413 -12 408 -11 403 -9 C 398 -7 395 -4 393 0 L 111 729 C 103 741 96 751 89 758 C 81 765 67 774 47 784 C 30 792 18 798 12 801 C 5 803 2 808 2 815 L 2 860 L 387 860 L 387 815 C 387 808 384 803 378 800 C 372 797 360 792 344 786 C 322 779 309 771 305 763 C 301 754 299 745 299 737 C 299 734 300 727 303 715 C 305 703 308 694 311 686 L 475 221 L 700 860 L 784 860 L 1008 221 L 1159 676 C 1161 684 1164 694 1168 706 C 1171 718 1173 727 1173 733 C 1173 742 1168 751 1160 759 C 1152 767 1136 775 1114 784 C 1100 789 1090 794 1082 800 C 1074 805 1071 811 1071 817 L 1071 860 L 1403 860 Z" unicode="w" />
<glyph horiz-adv-x="967" d="M 956 39 L 956 0 L 594 0 L 594 39 C 594 45 597 50 603 56 C 609 61 617 66 627 72 C 631 74 635 76 640 80 C 644 84 647 87 647 90 C 647 94 644 101 640 110 C 636 118 631 127 625 135 L 451 354 L 291 150 C 286 143 281 135 276 127 C 270 119 268 113 268 109 C 268 101 271 95 277 91 C 283 87 291 82 301 78 C 322 67 335 60 341 58 C 347 56 350 51 350 45 L 350 0 L 4 0 L 4 45 C 4 51 7 57 13 61 C 19 65 33 71 55 80 C 76 88 93 95 107 102 C 121 109 132 117 142 125 C 152 133 160 141 168 150 C 176 159 185 170 195 182 L 397 422 L 145 727 C 131 744 118 756 107 762 C 96 768 82 776 65 786 C 53 793 44 799 38 804 C 32 808 29 814 29 821 L 29 860 L 393 860 L 393 821 C 393 815 389 809 383 804 C 377 798 369 793 360 788 C 356 786 351 783 347 779 C 342 775 340 772 340 770 C 340 765 342 759 346 751 C 350 743 355 735 362 727 L 508 541 L 639 711 C 645 719 650 728 654 736 C 657 744 659 750 659 756 C 659 760 656 764 650 769 C 644 773 637 778 629 782 C 608 792 595 798 590 800 C 584 802 582 807 582 815 L 582 860 L 926 860 L 926 815 C 926 808 922 802 915 798 C 907 793 893 787 872 780 C 854 774 839 767 827 761 C 815 755 804 748 795 740 C 785 732 776 724 768 714 C 759 704 749 692 737 678 L 565 473 L 844 135 C 858 116 870 104 879 98 C 887 92 901 84 920 74 C 932 66 941 60 947 56 C 953 51 956 45 956 39 Z" unicode="x" />
<glyph horiz-adv-x="932" d="M 944 860 L 944 815 C 944 808 940 802 932 798 C 924 794 915 789 905 784 C 879 772 860 756 847 737 C 833 717 821 693 809 664 L 502 -57 C 472 -125 443 -182 414 -227 C 385 -271 357 -307 329 -333 C 301 -359 275 -377 250 -387 C 224 -397 201 -403 180 -403 C 128 -403 89 -391 64 -369 C 39 -347 27 -319 27 -285 C 27 -249 37 -221 59 -202 C 80 -183 106 -174 137 -174 C 167 -174 191 -184 207 -205 C 223 -225 231 -248 231 -274 C 250 -271 269 -260 289 -240 C 308 -220 326 -196 343 -169 C 359 -141 374 -112 388 -82 C 402 -52 413 -25 422 -2 L 100 729 C 96 738 91 747 85 756 C 79 764 65 774 45 784 C 28 792 16 798 10 801 C 3 803 0 808 0 815 L 0 860 L 391 860 L 391 815 C 391 808 387 803 381 800 C 374 797 362 792 346 786 C 324 779 311 771 307 762 C 303 752 301 743 301 735 C 301 731 303 723 308 712 C 312 701 316 692 319 684 L 512 205 L 702 678 C 706 688 710 698 712 707 C 714 716 715 724 715 731 C 715 740 710 749 701 758 C 691 766 675 775 653 784 C 641 789 631 794 624 800 C 617 805 614 811 614 817 L 614 860 L 944 860 Z" unicode="y" />
<glyph horiz-adv-x="840" d="M 793 266 L 793 -8 C 787 -7 778 -6 766 -6 C 754 -5 742 -4 729 -3 C 716 -2 703 -1 690 -1 C 677 0 666 0 657 0 L 39 0 L 39 27 C 39 37 41 48 46 58 C 50 68 56 77 63 86 L 577 772 L 317 772 C 277 772 248 762 228 743 C 208 724 191 689 176 639 C 174 633 169 627 163 623 C 157 618 149 616 141 616 L 88 616 L 88 868 C 94 867 102 866 113 866 C 124 865 136 864 149 863 C 162 862 175 861 189 861 C 203 860 215 860 225 860 L 774 860 L 774 803 C 774 792 772 781 770 771 C 767 761 762 750 754 739 L 264 88 L 571 88 C 607 88 633 100 651 125 C 668 149 684 185 698 231 C 702 245 708 255 714 259 C 720 263 728 266 737 266 L 793 266 Z" unicode="z" />
<glyph horiz-adv-x="762" d="M 704 -344 L 704 -403 C 636 -403 575 -392 519 -371 C 463 -349 415 -320 375 -284 C 335 -247 303 -203 281 -153 C 259 -102 248 -48 248 10 C 248 52 250 95 256 137 C 261 179 264 219 264 258 C 264 329 248 387 217 433 C 185 478 133 508 61 522 L 61 578 C 133 592 185 621 217 666 C 248 710 264 768 264 840 C 264 878 261 918 256 960 C 250 1002 248 1044 248 1087 C 248 1145 259 1199 281 1250 C 303 1300 335 1344 375 1381 C 415 1418 463 1447 519 1469 C 575 1490 636 1501 704 1501 L 704 1442 C 651 1428 607 1411 571 1392 C 535 1373 507 1351 486 1326 C 465 1300 450 1271 441 1238 C 432 1205 428 1168 428 1126 C 428 1078 429 1035 433 998 C 436 961 438 925 438 891 C 438 849 430 809 416 773 C 402 737 383 704 359 676 C 335 648 308 623 278 602 C 247 580 216 563 184 551 C 216 538 247 521 278 499 C 308 477 335 452 359 423 C 383 394 402 361 416 325 C 430 288 438 249 438 207 C 438 172 436 136 433 99 C 429 61 428 19 428 -29 C 428 -71 432 -108 441 -141 C 450 -174 465 -203 486 -229 C 507 -254 535 -276 571 -295 C 607 -313 651 -330 704 -344 Z" unicode="{" />
<glyph horiz-adv-x="135" d="M 133 1495 L 133 -389 L 2 -389 L 2 1495 L 133 1495 Z" unicode="|" />
<glyph horiz-adv-x="762" d="M 700 578 L 700 522 C 628 508 576 478 545 433 C 513 387 498 329 498 258 C 498 219 500 179 506 137 C 511 95 514 52 514 10 C 514 -48 502 -102 480 -153 C 458 -203 427 -247 387 -284 C 347 -320 298 -349 242 -371 C 186 -392 124 -403 57 -403 L 57 -344 C 109 -330 154 -313 190 -295 C 226 -276 254 -254 275 -229 C 296 -203 311 -174 320 -141 C 329 -108 334 -71 334 -29 C 334 19 332 61 329 99 C 325 136 324 172 324 207 C 324 249 331 288 345 325 C 359 361 378 394 402 423 C 425 452 452 477 483 499 C 513 521 545 538 577 551 C 545 563 513 580 483 602 C 452 623 425 648 402 676 C 378 704 359 737 345 773 C 331 809 324 849 324 891 C 324 925 325 961 329 998 C 332 1035 334 1078 334 1126 C 334 1168 329 1205 320 1238 C 311 1271 296 1300 275 1326 C 254 1351 226 1373 190 1392 C 154 1411 109 1428 57 1442 L 57 1501 C 124 1501 186 1490 242 1469 C 298 1447 347 1418 387 1381 C 427 1344 458 1300 480 1250 C 502 1199 514 1145 514 1087 C 514 1044 511 1002 506 960 C 500 918 498 878 498 840 C 498 768 513 710 545 666 C 576 621 628 592 700 578 Z" unicode="}" />
<glyph horiz-adv-x="1540" d="M 1239 817 L 1329 817 C 1326 765 1316 714 1299 666 C 1281 617 1258 574 1228 538 C 1198 501 1163 471 1122 449 C 1081 427 1036 416 987 416 C 967 416 949 417 932 421 C 915 425 898 431 880 439 C 862 447 843 457 823 470 C 803 482 780 498 754 516 C 708 548 666 575 630 598 C 594 621 556 633 518 633 C 488 633 461 625 439 611 C 417 597 398 578 383 556 C 368 534 356 509 348 482 C 339 454 333 428 330 403 L 240 403 C 242 455 253 505 271 553 C 289 601 312 644 342 680 C 372 716 407 746 448 768 C 489 790 534 801 582 801 C 606 801 628 799 648 796 C 668 792 686 787 704 780 C 722 772 740 763 758 752 C 776 741 796 728 819 713 C 865 681 907 652 944 626 C 981 600 1017 588 1051 588 C 1081 588 1108 595 1130 609 C 1152 623 1170 642 1185 664 C 1200 686 1212 710 1221 738 C 1229 765 1235 791 1239 817 Z" unicode="~" />
<glyph horiz-adv-x="541" d="" unicode="" />
<glyph horiz-adv-x="582" d="M 293 1120 C 328 1120 358 1107 383 1081 C 407 1055 420 1025 420 989 C 420 955 407 925 383 899 C 358 873 328 860 293 860 C 256 860 225 873 200 899 C 174 925 162 955 162 989 C 162 1025 174 1055 200 1081 C 225 1107 256 1120 293 1120 Z M 358 184 C 364 132 370 87 377 47 C 383 7 389 -28 395 -61 C 400 -94 404 -125 408 -155 C 412 -184 414 -214 414 -246 C 414 -266 411 -286 407 -306 C 402 -326 395 -343 385 -359 C 375 -374 363 -386 348 -396 C 332 -405 314 -410 293 -410 C 270 -410 251 -405 235 -396 C 219 -386 207 -374 197 -359 C 187 -343 179 -326 175 -306 C 170 -286 168 -266 168 -246 C 168 -214 169 -184 173 -154 C 176 -124 180 -93 186 -61 C 192 -28 198 7 204 47 C 210 87 217 132 223 184 C 234 277 241 367 244 454 C 246 541 249 618 252 684 C 252 688 255 693 262 699 C 268 704 278 707 291 707 C 301 707 310 704 318 699 C 326 693 330 688 330 684 C 332 616 335 539 338 453 C 340 367 347 277 358 184 Z" unicode="" />
<glyph horiz-adv-x="967" d="M 836 508 L 891 449 C 880 429 866 408 848 386 C 830 364 809 344 785 325 C 761 306 732 290 700 276 C 668 262 632 252 592 248 L 592 -18 L 491 -18 L 491 248 C 439 252 390 266 344 288 C 298 310 259 339 225 377 C 191 415 164 460 144 513 C 124 565 115 624 115 690 C 115 746 124 801 142 853 C 160 905 185 952 218 993 C 251 1033 291 1067 337 1094 C 383 1121 435 1138 491 1145 L 491 1386 L 592 1386 L 592 1145 C 634 1142 672 1135 704 1123 C 736 1111 762 1096 783 1078 C 804 1060 820 1041 830 1020 C 840 999 846 978 846 958 C 846 936 842 917 836 903 C 830 889 822 877 812 869 C 802 860 790 854 778 851 C 765 847 753 846 741 846 C 712 846 687 853 665 868 C 643 882 633 906 633 938 C 633 949 635 964 639 982 C 643 1000 648 1016 653 1032 C 646 1036 631 1042 609 1048 C 586 1054 558 1057 526 1057 C 490 1057 458 1048 431 1031 C 404 1013 382 990 364 960 C 346 930 333 895 324 854 C 315 813 311 769 311 723 C 311 678 315 634 325 590 C 335 546 350 507 371 473 C 391 439 418 411 450 390 C 482 368 521 358 565 358 C 596 358 624 362 650 371 C 676 379 699 390 721 404 C 742 418 762 434 781 452 C 800 470 818 489 836 508 Z" unicode="" />
<glyph horiz-adv-x="1110" d="M 1071 252 L 1128 182 C 1111 157 1093 132 1074 108 C 1054 84 1033 62 1009 44 C 985 26 958 11 928 0 C 898 -12 864 -18 827 -18 C 792 -18 760 -12 732 -2 C 704 7 678 21 654 38 C 630 54 607 73 586 94 C 565 115 545 136 526 158 C 498 106 463 64 419 31 C 375 -1 323 -18 262 -18 C 237 -18 212 -13 188 -5 C 163 3 141 16 121 32 C 101 48 85 69 73 94 C 61 118 55 146 55 178 C 55 214 61 247 75 275 C 88 303 105 326 127 344 C 148 362 172 375 200 385 C 227 394 255 399 283 399 C 314 399 344 394 373 385 C 402 376 430 365 457 352 C 454 383 449 413 441 441 C 433 469 425 494 415 518 C 405 542 396 563 386 582 C 376 601 367 617 360 631 C 357 637 354 643 350 649 C 346 655 342 661 340 668 L 102 668 L 102 762 L 297 762 C 282 795 270 832 260 873 C 250 914 246 958 246 1004 C 246 1056 256 1107 278 1157 C 300 1207 330 1251 370 1290 C 409 1329 457 1361 513 1385 C 569 1409 632 1421 700 1421 C 749 1421 794 1414 836 1402 C 878 1389 913 1372 943 1350 C 973 1328 996 1303 1013 1274 C 1029 1244 1038 1213 1038 1180 C 1038 1132 1026 1097 1002 1077 C 978 1057 953 1047 926 1047 C 898 1047 872 1055 848 1071 C 824 1087 813 1115 813 1153 C 813 1174 817 1193 827 1211 C 837 1228 854 1246 879 1266 C 852 1289 826 1305 800 1313 C 774 1321 746 1325 715 1325 C 676 1325 640 1319 607 1307 C 574 1295 546 1277 523 1254 C 499 1230 481 1201 468 1167 C 454 1132 448 1092 448 1047 C 448 1003 456 956 473 907 C 489 858 507 810 526 762 L 893 762 L 893 668 L 561 668 C 572 637 581 606 589 576 C 596 545 600 515 600 485 C 600 453 598 420 594 385 C 590 350 584 316 575 283 C 620 253 666 225 713 201 C 760 176 811 164 866 164 C 898 164 934 171 973 186 C 1011 200 1044 222 1071 252 Z M 266 68 C 306 68 343 82 378 112 C 412 142 435 182 446 233 C 423 252 398 268 371 282 C 343 296 312 303 278 303 C 240 303 209 290 185 266 C 161 242 149 214 149 182 C 149 151 158 124 177 102 C 196 79 226 68 266 68 Z" unicode="" />
<glyph horiz-adv-x="1173" d="M 1071 305 L 1130 242 C 1110 201 1084 164 1052 132 C 1020 100 985 72 947 50 C 909 28 870 11 830 0 C 789 -12 751 -18 715 -18 C 640 -18 573 -5 515 21 C 456 47 406 83 365 130 C 323 177 290 234 265 302 C 239 369 222 444 213 526 L 70 526 L 70 618 L 207 618 C 207 630 206 644 206 660 C 205 676 205 687 205 694 C 205 704 205 711 205 717 C 205 723 206 728 206 733 C 206 737 207 743 207 750 C 207 756 208 766 209 778 L 70 778 L 70 870 L 219 870 C 233 951 256 1026 287 1094 C 317 1162 356 1220 402 1268 C 448 1316 502 1354 564 1381 C 626 1407 695 1421 772 1421 C 826 1421 872 1414 911 1402 C 950 1390 982 1374 1007 1354 C 1032 1334 1051 1312 1063 1288 C 1075 1264 1081 1240 1081 1217 C 1081 1180 1069 1150 1047 1128 C 1025 1105 998 1094 967 1094 C 932 1094 905 1104 887 1125 C 869 1145 860 1171 860 1202 C 860 1214 861 1229 865 1247 C 868 1264 871 1280 874 1294 C 864 1300 848 1307 827 1314 C 806 1321 777 1325 739 1325 C 695 1325 654 1314 616 1294 C 578 1273 545 1243 517 1204 C 489 1165 465 1117 445 1061 C 425 1004 411 940 403 870 L 854 870 L 854 778 L 397 778 C 396 758 395 744 395 735 C 395 726 395 715 395 702 C 395 688 395 675 396 664 C 396 652 397 637 397 618 L 790 618 L 790 526 L 403 526 C 407 469 416 415 430 363 C 444 311 465 266 492 228 C 518 189 552 158 592 136 C 632 113 681 102 737 102 C 805 102 865 117 918 147 C 971 177 1022 229 1071 305 Z" unicode="" />
<glyph horiz-adv-x="1272" d="M 1243 1401 L 1243 1354 C 1243 1344 1240 1337 1234 1332 C 1228 1327 1218 1321 1204 1313 C 1190 1305 1179 1298 1169 1293 C 1159 1287 1149 1281 1141 1274 C 1132 1266 1123 1257 1114 1246 C 1105 1234 1095 1219 1083 1200 L 844 809 L 1096 809 L 1096 717 L 784 717 L 735 637 L 735 565 L 1096 565 L 1096 473 L 737 473 L 737 164 C 737 145 741 131 749 122 C 757 112 772 103 795 94 C 816 85 830 79 837 76 C 844 72 848 65 848 55 L 848 0 L 436 0 L 436 55 C 436 65 439 72 446 76 C 452 80 466 86 487 94 C 513 105 529 114 537 120 C 545 126 549 141 549 164 L 549 473 L 178 473 L 178 565 L 551 565 L 551 635 L 500 717 L 178 717 L 178 809 L 438 809 L 176 1225 C 162 1245 149 1262 136 1274 C 122 1286 104 1297 82 1307 C 60 1315 46 1321 40 1325 C 34 1328 31 1334 31 1343 L 31 1401 L 459 1401 L 459 1362 C 459 1351 457 1343 453 1339 C 449 1335 437 1327 418 1317 C 402 1310 391 1303 383 1297 C 375 1291 371 1284 371 1276 C 371 1269 375 1258 384 1242 C 392 1226 399 1215 403 1208 L 688 750 L 960 1206 C 969 1221 976 1235 982 1249 C 988 1262 991 1272 991 1278 C 991 1286 986 1293 978 1300 C 970 1306 958 1312 944 1317 C 924 1325 911 1331 903 1337 C 895 1343 891 1351 891 1362 L 891 1401 L 1243 1401 Z" unicode="" />
<glyph horiz-adv-x="1145" d="M 729 297 C 765 320 795 348 818 381 C 840 414 852 447 852 481 C 852 531 840 573 818 608 C 795 643 755 677 698 709 C 646 737 594 764 544 789 C 493 814 451 837 418 858 C 382 833 352 805 328 773 C 304 741 293 708 293 676 C 293 626 304 583 327 547 C 349 511 389 478 446 446 C 497 417 547 390 597 364 C 647 338 691 316 729 297 Z M 657 952 C 717 923 769 895 814 867 C 859 839 896 810 926 780 C 955 750 977 718 992 684 C 1006 650 1014 612 1014 571 C 1014 515 996 459 961 404 C 926 348 874 298 805 252 C 862 213 900 172 919 128 C 938 84 948 38 948 -12 C 948 -55 937 -96 916 -136 C 895 -176 867 -210 831 -240 C 795 -270 752 -293 704 -311 C 656 -329 605 -338 551 -338 C 493 -338 440 -330 392 -315 C 344 -300 304 -281 271 -257 C 238 -233 213 -205 195 -174 C 177 -143 168 -112 168 -80 C 168 -56 171 -36 178 -19 C 184 -2 193 11 204 22 C 214 32 226 40 240 45 C 254 50 267 53 281 53 C 308 53 333 44 357 28 C 381 12 393 -14 393 -51 C 393 -72 388 -91 378 -108 C 368 -125 351 -143 328 -162 C 351 -182 380 -202 414 -220 C 448 -238 495 -248 555 -248 C 589 -248 620 -242 648 -232 C 676 -221 699 -207 719 -191 C 738 -174 753 -155 764 -135 C 774 -115 780 -95 780 -76 C 780 -52 778 -30 774 -11 C 770 8 758 28 740 48 C 721 68 692 90 652 115 C 612 139 557 169 487 203 C 427 231 374 260 330 288 C 285 316 248 346 219 376 C 190 406 168 438 154 473 C 140 507 133 546 133 588 C 133 642 150 697 185 752 C 220 806 272 857 342 903 C 286 945 247 987 227 1030 C 207 1072 197 1119 197 1169 C 197 1211 207 1252 228 1292 C 249 1332 278 1366 314 1396 C 350 1426 392 1450 440 1468 C 488 1486 540 1495 594 1495 C 652 1495 705 1487 752 1472 C 799 1457 839 1438 872 1414 C 905 1390 930 1362 948 1331 C 966 1299 975 1267 975 1235 C 975 1211 971 1191 965 1174 C 958 1157 949 1143 939 1133 C 928 1122 916 1114 903 1109 C 889 1104 876 1102 862 1102 C 848 1102 835 1104 822 1108 C 808 1112 796 1118 786 1126 C 775 1134 766 1145 760 1159 C 753 1172 750 1188 750 1206 C 750 1227 755 1246 765 1264 C 775 1282 792 1299 817 1317 C 792 1338 763 1358 730 1376 C 696 1394 650 1403 590 1403 C 556 1403 525 1397 497 1387 C 469 1376 445 1362 425 1346 C 405 1329 390 1311 380 1291 C 369 1271 364 1251 364 1233 C 364 1208 366 1186 370 1167 C 374 1147 385 1128 404 1108 C 422 1088 451 1065 491 1041 C 531 1016 586 986 657 952 Z" unicode="" />
<glyph horiz-adv-x="823" d="M 213 1270 C 243 1270 270 1258 293 1235 C 316 1212 328 1185 328 1155 C 328 1124 316 1097 293 1074 C 270 1051 243 1040 213 1040 C 182 1040 155 1051 132 1074 C 109 1097 98 1124 98 1155 C 98 1185 109 1212 132 1235 C 155 1258 182 1270 213 1270 Z M 610 1270 C 640 1270 667 1258 690 1235 C 713 1212 725 1185 725 1155 C 725 1124 713 1097 690 1074 C 667 1051 640 1040 610 1040 C 579 1040 552 1051 530 1074 C 507 1097 496 1124 496 1155 C 496 1185 507 1212 530 1235 C 552 1258 579 1270 610 1270 Z" unicode="" />
<glyph horiz-adv-x="1663" d="M 831 1481 C 937 1481 1036 1461 1129 1422 C 1222 1382 1303 1329 1371 1261 C 1439 1193 1492 1114 1532 1022 C 1571 930 1591 833 1591 729 C 1591 625 1571 527 1532 435 C 1492 343 1439 264 1371 197 C 1303 130 1222 77 1129 38 C 1036 0 937 -20 831 -20 C 725 -20 625 0 533 38 C 440 77 360 130 292 197 C 224 264 170 343 131 435 C 91 527 72 625 72 729 C 72 833 91 930 131 1022 C 170 1114 224 1193 292 1261 C 360 1329 440 1382 533 1422 C 625 1461 725 1481 831 1481 Z M 831 55 C 925 55 1013 72 1095 108 C 1177 144 1249 192 1309 253 C 1369 313 1417 385 1452 467 C 1487 549 1505 637 1505 729 C 1505 821 1487 908 1452 991 C 1417 1073 1369 1145 1309 1206 C 1249 1267 1177 1315 1095 1351 C 1013 1387 925 1405 831 1405 C 737 1405 650 1387 568 1351 C 486 1315 414 1267 354 1206 C 294 1145 246 1073 212 991 C 177 908 160 821 160 729 C 160 637 177 549 212 467 C 246 385 294 313 354 253 C 414 192 486 144 568 108 C 650 72 737 55 831 55 Z M 1118 537 L 1169 487 C 1159 468 1145 447 1127 425 C 1108 403 1085 382 1058 363 C 1030 344 999 328 963 316 C 927 303 888 297 846 297 C 780 297 721 308 671 332 C 621 355 579 386 545 425 C 511 463 485 508 468 560 C 450 611 442 665 442 721 C 442 792 454 855 478 909 C 502 963 533 1007 571 1043 C 609 1079 651 1106 698 1124 C 744 1142 790 1151 836 1151 C 872 1151 905 1146 936 1137 C 967 1127 999 1113 1032 1094 C 1036 1092 1041 1090 1045 1088 C 1049 1086 1053 1086 1057 1090 C 1065 1096 1072 1100 1076 1102 C 1080 1104 1084 1106 1089 1106 L 1128 1106 L 1128 879 L 1077 879 C 1068 879 1062 881 1058 885 C 1054 889 1051 895 1049 901 C 1041 923 1031 945 1019 967 C 1007 988 992 1006 976 1022 C 960 1038 941 1050 921 1060 C 901 1070 879 1075 856 1075 C 828 1075 800 1068 771 1055 C 742 1042 716 1022 692 994 C 668 966 648 930 633 886 C 617 842 610 789 610 727 C 610 671 616 622 629 579 C 641 536 658 500 680 472 C 702 443 727 421 757 407 C 787 392 818 385 852 385 C 887 385 919 390 949 402 C 978 413 1004 427 1026 443 C 1048 459 1066 475 1082 493 C 1098 510 1110 525 1118 537 Z" unicode="" />
<glyph horiz-adv-x="911" d="M 391 741 C 411 741 431 744 450 752 C 469 759 486 769 501 782 C 515 794 527 809 536 825 C 544 841 549 859 549 877 L 549 1061 C 447 1060 372 1044 325 1012 C 277 980 254 937 254 885 C 254 838 266 802 292 778 C 317 753 350 741 391 741 Z M 799 776 L 829 743 C 812 715 792 694 768 680 C 744 666 720 659 698 659 C 672 659 648 666 624 682 C 600 698 579 724 563 760 C 529 723 494 696 459 679 C 424 661 388 653 350 653 C 318 653 288 657 259 667 C 230 676 204 690 182 708 C 160 726 142 748 128 776 C 114 803 108 834 108 870 C 108 906 116 940 134 972 C 151 1003 177 1030 213 1053 C 249 1075 294 1093 350 1107 C 406 1120 472 1127 549 1128 C 547 1201 534 1257 512 1295 C 489 1333 456 1352 412 1352 C 399 1352 387 1351 375 1350 C 363 1348 350 1346 338 1343 C 337 1303 331 1269 321 1241 C 310 1213 286 1200 248 1200 C 220 1200 199 1206 186 1220 C 172 1233 166 1253 166 1280 C 166 1296 171 1313 182 1330 C 192 1346 208 1361 229 1375 C 249 1388 275 1399 305 1408 C 335 1416 370 1421 408 1421 C 462 1421 508 1413 545 1399 C 582 1385 612 1365 634 1339 C 656 1313 671 1282 681 1246 C 691 1210 696 1170 696 1128 L 696 823 C 696 802 700 786 710 775 C 719 763 733 758 752 758 C 758 758 765 759 773 763 C 781 767 789 771 799 776 Z" unicode="" />
<glyph horiz-adv-x="967" d="M 274 459 L 504 102 L 397 102 L 125 393 C 116 402 109 412 103 423 C 97 433 94 445 94 459 C 94 471 97 483 103 494 C 109 505 116 515 125 524 L 397 815 L 504 815 L 274 459 Z M 647 459 L 879 102 L 772 102 L 500 393 C 491 402 484 412 478 423 C 472 433 469 445 469 459 C 469 471 472 483 478 494 C 484 505 491 515 500 524 L 772 815 L 879 815 L 647 459 Z" unicode="" />
<glyph horiz-adv-x="1540" d="M 1274 684 L 1274 92 L 1143 92 L 1143 557 L 235 557 L 235 684 L 1274 684 Z" unicode="" />
<glyph horiz-adv-x="641" d="M 545 537 L 545 377 L 96 377 L 96 537 L 545 537 Z" unicode="" />
<glyph horiz-adv-x="1028" d="M 514 1495 C 578 1495 640 1482 698 1457 C 756 1432 806 1398 849 1356 C 891 1313 925 1263 951 1205 C 976 1147 989 1086 989 1022 C 989 957 976 896 951 839 C 925 781 891 731 849 689 C 806 646 756 612 698 588 C 640 563 578 551 514 551 C 449 551 388 563 330 588 C 272 612 221 646 179 689 C 136 731 102 781 77 839 C 51 896 39 957 39 1022 C 39 1086 51 1147 77 1205 C 102 1263 136 1313 179 1356 C 221 1398 272 1432 330 1457 C 388 1482 449 1495 514 1495 Z M 514 618 C 569 618 621 628 671 650 C 720 671 763 700 799 736 C 835 772 864 815 885 865 C 906 914 917 966 917 1022 C 917 1077 906 1129 885 1179 C 864 1228 835 1271 799 1308 C 763 1344 720 1373 671 1395 C 621 1416 569 1427 514 1427 C 458 1427 406 1416 357 1395 C 307 1373 264 1344 228 1308 C 192 1271 163 1228 142 1179 C 121 1129 111 1077 111 1022 C 111 966 121 914 142 865 C 163 815 192 772 228 736 C 264 700 307 671 357 650 C 406 628 458 618 514 618 Z M 537 1059 C 551 1059 566 1063 584 1073 C 601 1083 610 1098 610 1120 C 610 1141 602 1157 588 1167 C 574 1177 557 1182 539 1182 L 444 1182 L 444 1059 L 537 1059 Z M 629 973 L 725 764 L 614 764 L 524 958 L 444 958 L 444 764 L 338 764 L 338 1280 L 547 1280 C 569 1280 590 1276 612 1270 C 633 1263 652 1253 669 1240 C 685 1227 699 1211 709 1191 C 719 1171 725 1148 725 1122 C 725 1088 717 1058 701 1032 C 685 1005 661 985 629 973 Z" unicode="" />
<glyph horiz-adv-x="823" d="M 727 1217 L 727 1090 L 96 1090 L 96 1217 L 727 1217 Z" unicode="" />
<glyph horiz-adv-x="659" d="M 330 1495 C 366 1495 400 1488 432 1474 C 464 1460 493 1441 517 1417 C 541 1393 560 1365 574 1333 C 588 1301 596 1267 596 1231 C 596 1195 588 1160 574 1128 C 560 1096 541 1068 517 1044 C 493 1020 464 1002 432 988 C 400 974 366 967 330 967 C 294 967 259 974 227 988 C 194 1002 166 1020 142 1044 C 118 1068 98 1096 84 1128 C 70 1160 63 1195 63 1231 C 63 1267 70 1301 84 1333 C 98 1365 118 1393 142 1417 C 166 1441 194 1460 227 1474 C 259 1488 294 1495 330 1495 Z M 330 1065 C 352 1065 373 1069 392 1078 C 411 1087 427 1099 441 1115 C 454 1130 464 1148 472 1168 C 479 1188 483 1209 483 1231 C 483 1253 479 1274 472 1294 C 464 1314 454 1331 441 1347 C 427 1362 411 1374 392 1383 C 373 1392 352 1397 330 1397 C 307 1397 286 1392 267 1383 C 248 1374 232 1362 218 1347 C 204 1331 194 1314 187 1294 C 179 1274 176 1253 176 1231 C 176 1209 179 1188 187 1168 C 194 1148 204 1130 218 1115 C 232 1099 248 1087 267 1078 C 286 1069 307 1065 330 1065 Z" unicode="" />
<glyph horiz-adv-x="1540" d="M 1305 831 L 1305 705 L 836 705 L 836 260 L 704 260 L 704 705 L 235 705 L 235 831 L 704 831 L 704 1276 L 836 1276 L 836 831 L 1305 831 Z M 1305 127 L 1305 0 L 235 0 L 235 127 L 1305 127 Z" unicode="" />
<glyph horiz-adv-x="874" d="M 442 1503 C 484 1503 523 1497 559 1487 C 594 1476 624 1461 649 1442 C 673 1423 692 1400 706 1373 C 720 1346 727 1316 727 1284 C 727 1247 718 1212 700 1180 C 682 1148 659 1118 633 1090 C 607 1062 579 1037 549 1013 C 519 989 491 966 467 946 C 421 909 385 879 359 856 C 333 832 309 808 287 782 L 559 782 C 579 782 595 785 607 793 C 618 800 627 815 635 838 C 637 850 642 857 649 861 C 656 864 664 866 674 866 L 725 866 L 719 649 L 143 649 L 143 748 C 155 766 172 786 192 810 C 212 833 233 857 256 881 C 278 905 302 930 326 955 C 350 980 374 1004 397 1026 C 448 1076 488 1121 518 1162 C 548 1203 563 1246 563 1290 C 563 1330 549 1362 521 1384 C 493 1406 456 1417 412 1417 C 387 1417 363 1412 341 1402 C 319 1392 303 1379 295 1364 C 307 1353 316 1341 324 1329 C 332 1317 336 1303 336 1288 C 336 1264 328 1245 312 1230 C 296 1215 276 1208 252 1208 C 220 1208 196 1217 181 1235 C 165 1253 158 1276 158 1305 C 158 1327 165 1350 179 1374 C 193 1398 213 1419 238 1438 C 263 1457 293 1473 328 1485 C 363 1497 401 1503 442 1503 Z" unicode="" />
<glyph horiz-adv-x="868" d="M 528 1116 C 556 1108 582 1098 607 1086 C 632 1074 654 1059 673 1041 C 691 1023 706 1003 717 980 C 727 956 733 930 733 901 C 733 860 723 823 704 790 C 685 757 660 729 629 707 C 597 685 561 667 521 655 C 480 643 438 637 395 637 C 356 637 320 641 287 650 C 254 658 226 670 202 685 C 178 700 159 718 145 739 C 131 759 125 781 125 805 C 125 828 133 849 149 868 C 165 887 188 897 217 897 C 246 897 268 888 283 872 C 297 856 305 840 305 825 C 305 811 302 798 297 786 C 291 774 284 764 276 754 C 286 744 301 737 321 731 C 340 725 361 723 385 723 C 415 723 442 728 465 738 C 488 748 507 761 523 777 C 538 793 549 812 557 833 C 565 854 569 876 569 899 C 569 958 549 1000 511 1025 C 472 1050 406 1063 313 1063 L 313 1147 C 399 1149 459 1164 492 1190 C 524 1216 541 1255 541 1309 C 541 1339 528 1365 504 1386 C 480 1406 447 1417 405 1417 C 381 1417 361 1414 345 1409 C 329 1403 315 1397 305 1391 C 311 1382 317 1373 322 1364 C 327 1355 330 1344 330 1331 C 330 1308 322 1290 306 1276 C 290 1262 269 1255 244 1255 C 221 1255 201 1262 185 1277 C 168 1292 160 1314 160 1343 C 160 1365 167 1385 183 1405 C 198 1425 218 1442 242 1456 C 266 1470 294 1482 326 1490 C 358 1498 390 1503 422 1503 C 462 1503 500 1498 535 1488 C 569 1478 599 1464 623 1447 C 647 1429 667 1409 681 1385 C 695 1361 702 1336 702 1309 C 702 1263 685 1223 652 1190 C 619 1157 578 1132 528 1116 Z" unicode="" />
<glyph horiz-adv-x="823" d="M 561 1372 C 587 1372 609 1362 625 1344 C 641 1326 649 1304 649 1280 C 649 1261 641 1242 627 1224 C 612 1206 590 1188 561 1171 L 242 987 L 192 1022 L 446 1313 C 468 1338 489 1354 507 1361 C 525 1368 543 1372 561 1372 Z" unicode="" />
<glyph horiz-adv-x="1274" d="M 1116 -238 L 1116 -287 L 852 -287 L 852 1405 L 709 1405 L 709 -287 L 444 -287 L 444 -238 C 444 -227 447 -220 454 -216 C 460 -212 474 -205 496 -197 C 522 -185 540 -175 548 -165 C 556 -155 561 -141 561 -123 L 561 637 C 531 637 489 639 435 644 C 380 648 326 664 273 692 C 219 719 173 762 133 821 C 93 880 74 963 74 1071 C 74 1133 83 1191 101 1243 C 119 1295 147 1340 186 1377 C 224 1414 274 1443 336 1464 C 398 1484 472 1495 559 1495 L 1116 1495 L 1116 1446 C 1116 1435 1112 1428 1106 1424 C 1100 1420 1086 1413 1065 1405 C 1037 1393 1019 1384 1011 1378 C 1003 1371 999 1355 999 1331 L 999 -123 C 999 -141 1003 -155 1012 -165 C 1020 -175 1038 -185 1065 -197 C 1086 -205 1100 -212 1106 -216 C 1112 -220 1116 -227 1116 -238 Z M 303 1081 C 303 1033 307 988 315 944 C 323 900 336 862 356 829 C 376 796 402 770 436 750 C 469 730 511 721 561 721 L 561 1401 C 505 1401 460 1391 426 1373 C 392 1354 365 1329 347 1299 C 329 1269 317 1234 311 1196 C 305 1158 303 1119 303 1081 Z" unicode="" />
<glyph horiz-adv-x="491" d="M 246 836 C 282 836 312 823 338 797 C 364 771 377 741 377 707 C 377 671 364 640 338 614 C 312 588 282 575 246 575 C 210 575 179 588 155 614 C 131 640 119 671 119 707 C 119 741 131 771 155 797 C 179 823 210 836 246 836 Z" unicode="" />
<glyph horiz-adv-x="823" d="M 455 -94 C 513 -94 560 -106 595 -131 C 629 -156 647 -196 647 -250 C 647 -270 642 -291 632 -311 C 622 -331 608 -348 588 -364 C 568 -380 542 -392 511 -402 C 479 -411 443 -416 401 -416 C 359 -416 319 -405 281 -385 C 243 -364 210 -343 184 -322 L 221 -262 C 243 -278 270 -294 300 -310 C 330 -326 361 -334 393 -334 C 435 -334 463 -325 478 -308 C 492 -291 500 -273 500 -254 C 500 -232 491 -213 475 -197 C 459 -180 431 -172 393 -172 C 387 -172 380 -172 374 -172 C 368 -172 361 -173 354 -174 L 428 0 L 494 0 L 455 -94 Z" unicode="" />
<glyph horiz-adv-x="717" d="M 545 690 L 545 645 L 172 645 L 172 688 C 172 702 178 713 192 719 C 205 725 221 731 240 735 C 258 737 270 742 277 749 C 283 756 287 767 287 782 L 287 1346 L 149 1346 L 149 1415 L 364 1493 L 434 1493 L 434 782 C 434 769 437 759 443 751 C 449 743 462 737 481 735 C 499 732 515 727 527 720 C 539 713 545 703 545 690 Z" unicode="" />
<glyph horiz-adv-x="911" d="M 455 1421 C 507 1421 556 1411 600 1392 C 644 1372 681 1345 713 1311 C 744 1277 768 1236 786 1189 C 804 1141 813 1090 813 1036 C 813 981 804 930 786 883 C 768 835 744 794 713 760 C 681 726 644 699 600 680 C 556 660 507 651 455 651 C 403 651 355 660 311 680 C 267 699 230 726 199 760 C 167 794 143 834 126 882 C 108 929 100 980 100 1036 C 100 1090 108 1141 126 1189 C 143 1236 167 1277 199 1311 C 230 1345 267 1372 311 1392 C 355 1411 403 1421 455 1421 Z M 455 733 C 522 733 572 759 605 813 C 638 867 655 941 655 1036 C 655 1130 638 1204 605 1258 C 572 1312 522 1339 455 1339 C 389 1339 340 1312 307 1258 C 274 1204 258 1130 258 1036 C 258 941 274 867 307 813 C 340 759 389 733 455 733 Z" unicode="" />
<glyph horiz-adv-x="967" d="M 463 524 C 471 515 478 505 484 494 C 490 483 494 471 494 459 C 494 445 490 433 484 423 C 478 412 471 402 463 393 L 190 102 L 84 102 L 315 459 L 86 815 L 192 815 L 463 524 Z M 838 524 C 846 515 853 505 859 494 C 865 483 868 471 868 459 C 868 445 865 433 859 423 C 853 412 846 402 838 393 L 565 102 L 459 102 L 688 459 L 461 815 L 567 815 L 838 524 Z" unicode="" />
<glyph horiz-adv-x="1499" d="M 1114 1501 L 1227 1501 L 430 -20 L 317 -20 L 1114 1501 Z M 545 690 L 545 645 L 172 645 L 172 688 C 172 702 178 713 192 719 C 205 725 221 731 240 735 C 258 737 270 742 277 749 C 283 756 287 767 287 782 L 287 1346 L 149 1346 L 149 1415 L 364 1493 L 434 1493 L 434 782 C 434 769 437 759 443 751 C 449 743 462 737 481 735 C 499 732 515 727 527 720 C 539 713 545 703 545 690 Z M 1438 311 L 1438 215 L 1307 215 L 1307 111 C 1307 101 1309 95 1314 92 C 1318 88 1326 84 1337 78 C 1351 73 1361 68 1365 62 C 1369 56 1372 51 1372 45 L 1372 0 L 1087 0 L 1087 45 C 1087 51 1089 57 1093 63 C 1097 68 1108 74 1124 80 C 1134 86 1143 89 1149 91 C 1155 93 1159 99 1159 111 L 1159 215 L 778 215 L 778 303 L 1200 854 L 1307 854 L 1307 311 L 1438 311 Z M 899 311 L 1159 311 L 1159 651 L 899 311 Z" unicode="" />
<glyph horiz-adv-x="1632" d="M 1114 1501 L 1227 1501 L 430 -20 L 317 -20 L 1114 1501 Z M 545 690 L 545 645 L 172 645 L 172 688 C 172 702 178 713 192 719 C 205 725 221 731 240 735 C 258 737 270 742 277 749 C 283 756 287 767 287 782 L 287 1346 L 149 1346 L 149 1415 L 364 1493 L 434 1493 L 434 782 C 434 769 437 759 443 751 C 449 743 462 737 481 735 C 499 732 515 727 527 720 C 539 713 545 703 545 690 Z M 1214 854 C 1256 854 1295 848 1331 838 C 1366 827 1396 812 1421 793 C 1445 774 1464 751 1478 724 C 1492 697 1499 667 1499 635 C 1499 598 1490 563 1472 531 C 1454 499 1431 469 1405 441 C 1379 413 1351 388 1321 364 C 1291 340 1263 317 1239 297 C 1193 260 1157 230 1131 206 C 1105 182 1081 158 1059 133 L 1331 133 C 1351 133 1367 136 1379 143 C 1391 150 1400 165 1407 188 C 1409 200 1414 208 1421 212 C 1428 215 1436 217 1446 217 L 1497 217 L 1491 0 L 915 0 L 915 98 C 927 116 944 137 964 160 C 984 183 1005 207 1028 232 C 1050 256 1074 281 1098 306 C 1122 331 1146 355 1169 377 C 1220 427 1260 472 1290 513 C 1320 554 1335 597 1335 641 C 1335 681 1321 713 1293 735 C 1265 757 1228 768 1184 768 C 1159 768 1135 762 1113 752 C 1091 742 1075 729 1067 715 C 1079 704 1089 692 1097 680 C 1104 668 1108 654 1108 639 C 1108 615 1100 596 1084 581 C 1068 566 1048 559 1024 559 C 992 559 968 567 953 585 C 937 603 930 626 930 655 C 930 678 937 701 951 725 C 965 749 985 770 1011 789 C 1036 808 1066 824 1101 836 C 1135 848 1173 854 1214 854 Z" unicode="" />
<glyph horiz-adv-x="1606" d="M 1221 1501 L 1333 1501 L 537 -20 L 424 -20 L 1221 1501 Z M 534 1116 C 562 1108 588 1098 613 1086 C 638 1074 660 1059 679 1041 C 697 1023 712 1003 723 980 C 733 956 739 930 739 901 C 739 860 729 823 710 790 C 691 757 666 729 635 707 C 603 685 567 667 527 655 C 486 643 444 637 401 637 C 362 637 326 641 293 650 C 260 658 232 670 208 685 C 184 700 165 718 151 739 C 137 759 131 781 131 805 C 131 828 139 849 155 868 C 171 887 194 897 223 897 C 253 897 275 888 289 872 C 303 856 311 840 311 825 C 311 811 308 798 303 786 C 297 774 291 764 283 754 C 293 744 307 737 327 731 C 346 725 367 723 391 723 C 421 723 448 728 471 738 C 494 748 513 761 529 777 C 544 793 555 812 563 833 C 571 854 575 876 575 899 C 575 958 555 1000 517 1025 C 478 1050 412 1063 319 1063 L 319 1147 C 406 1149 466 1164 498 1190 C 530 1216 547 1255 547 1309 C 547 1339 535 1365 511 1386 C 487 1406 454 1417 412 1417 C 388 1417 367 1414 351 1409 C 335 1403 321 1397 311 1391 C 318 1382 324 1373 329 1364 C 333 1355 336 1344 336 1331 C 336 1308 328 1290 312 1276 C 296 1262 275 1255 250 1255 C 227 1255 207 1262 191 1277 C 174 1292 166 1314 166 1343 C 166 1365 173 1385 189 1405 C 204 1425 224 1442 248 1456 C 272 1470 300 1482 332 1490 C 364 1498 396 1503 428 1503 C 468 1503 506 1498 541 1488 C 575 1478 605 1464 630 1447 C 654 1429 674 1409 688 1385 C 702 1361 709 1336 709 1309 C 709 1263 692 1223 659 1190 C 625 1157 584 1132 534 1116 Z M 1544 311 L 1544 215 L 1413 215 L 1413 111 C 1413 101 1415 95 1420 92 C 1424 88 1432 84 1444 78 C 1458 73 1467 68 1472 62 C 1476 56 1479 51 1479 45 L 1479 0 L 1194 0 L 1194 45 C 1194 51 1196 57 1200 63 C 1204 68 1214 74 1231 80 C 1241 86 1249 89 1256 91 C 1262 93 1266 99 1266 111 L 1266 215 L 885 215 L 885 303 L 1307 854 L 1413 854 L 1413 311 L 1544 311 Z M 1006 311 L 1266 311 L 1266 651 L 1006 311 Z" unicode="" />
<glyph horiz-adv-x="870" d="M 473 1120 C 509 1120 539 1107 563 1081 C 587 1055 600 1025 600 989 C 600 955 587 925 563 899 C 539 873 509 860 473 860 C 436 860 405 873 380 899 C 354 925 342 955 342 989 C 342 1025 354 1055 380 1081 C 405 1107 436 1120 473 1120 Z M 666 -37 C 702 -37 730 -49 752 -73 C 773 -97 784 -126 784 -160 C 784 -188 776 -217 761 -247 C 746 -277 724 -303 695 -327 C 665 -351 628 -370 584 -385 C 539 -400 487 -408 428 -408 C 374 -408 325 -400 281 -385 C 237 -370 199 -349 168 -323 C 137 -296 113 -264 96 -226 C 78 -188 70 -147 70 -102 C 70 -70 74 -40 82 -13 C 90 13 101 39 116 65 C 130 90 148 115 170 141 C 191 166 214 193 240 223 C 278 267 309 309 333 347 C 357 385 375 423 389 459 C 402 495 411 531 416 568 C 421 604 424 644 426 686 C 426 690 430 696 439 703 C 447 709 458 713 471 713 C 484 713 495 709 504 703 C 513 696 518 690 518 686 C 520 624 513 555 498 479 C 483 402 454 323 412 242 C 391 202 372 167 356 137 C 339 107 325 80 313 55 C 301 30 293 5 287 -18 C 281 -42 278 -69 278 -98 C 278 -143 283 -181 294 -211 C 304 -241 318 -264 336 -281 C 353 -298 373 -310 396 -317 C 418 -324 441 -328 465 -328 C 490 -328 517 -321 545 -309 C 573 -296 594 -276 608 -250 C 585 -230 571 -212 565 -196 C 559 -180 557 -166 557 -156 C 557 -117 567 -87 589 -67 C 610 -47 636 -37 666 -37 Z" unicode="" />
<glyph horiz-adv-x="1393" d="M 627 1903 L 909 1640 L 864 1602 L 526 1751 C 493 1765 468 1782 452 1802 C 436 1821 428 1840 428 1860 C 428 1883 435 1904 451 1923 C 467 1942 488 1952 516 1952 C 531 1952 548 1949 567 1943 C 585 1937 605 1923 627 1903 Z M 403 522 L 905 522 L 657 1149 L 403 522 Z M 1395 51 L 1395 0 L 940 0 L 940 41 C 940 51 943 58 951 62 C 958 66 972 74 993 86 C 1009 94 1023 102 1033 111 C 1043 119 1049 129 1049 139 C 1049 146 1046 157 1040 173 C 1034 189 1028 205 1022 223 L 946 420 L 362 420 L 285 225 C 280 215 275 201 270 183 C 264 165 262 152 262 143 C 262 128 267 115 278 105 C 289 95 304 86 324 80 C 342 71 356 63 364 56 C 372 49 377 41 377 31 L 377 0 L -4 0 L -4 41 C -4 49 -1 57 4 64 C 9 71 20 79 37 88 C 51 98 63 107 73 115 C 83 123 93 131 101 140 C 109 149 116 159 123 171 C 129 183 136 197 143 215 L 596 1284 L 555 1374 C 553 1378 551 1383 549 1388 C 547 1392 547 1396 547 1399 C 547 1401 548 1404 550 1407 C 552 1409 556 1412 561 1415 C 581 1427 603 1442 626 1458 C 649 1474 670 1491 690 1507 C 692 1509 694 1511 697 1514 C 700 1516 704 1518 709 1518 C 713 1518 717 1516 720 1514 C 722 1511 725 1507 727 1503 L 1255 184 C 1263 164 1274 146 1287 130 C 1300 114 1317 101 1339 92 C 1362 83 1377 77 1384 73 C 1391 69 1395 61 1395 51 Z" unicode="" />
<glyph horiz-adv-x="1393" d="M 850 1952 C 877 1952 898 1942 914 1923 C 930 1904 938 1883 938 1860 C 938 1840 929 1821 913 1802 C 897 1782 872 1765 840 1751 L 502 1602 L 457 1640 L 739 1903 C 760 1923 780 1937 799 1943 C 817 1949 834 1952 850 1952 Z M 403 522 L 905 522 L 657 1149 L 403 522 Z M 1395 51 L 1395 0 L 940 0 L 940 41 C 940 51 943 58 951 62 C 958 66 972 74 993 86 C 1009 94 1023 102 1033 111 C 1043 119 1049 129 1049 139 C 1049 146 1046 157 1040 173 C 1034 189 1028 205 1022 223 L 946 420 L 362 420 L 285 225 C 280 215 275 201 270 183 C 264 165 262 152 262 143 C 262 128 267 115 278 105 C 289 95 304 86 324 80 C 342 71 356 63 364 56 C 372 49 377 41 377 31 L 377 0 L -4 0 L -4 41 C -4 49 -1 57 4 64 C 9 71 20 79 37 88 C 51 98 63 107 73 115 C 83 123 93 131 101 140 C 109 149 116 159 123 171 C 129 183 136 197 143 215 L 596 1284 L 555 1374 C 553 1378 551 1383 549 1388 C 547 1392 547 1396 547 1399 C 547 1401 548 1404 550 1407 C 552 1409 556 1412 561 1415 C 581 1427 603 1442 626 1458 C 649 1474 670 1491 690 1507 C 692 1509 694 1511 697 1514 C 700 1516 704 1518 709 1518 C 713 1518 717 1516 720 1514 C 722 1511 725 1507 727 1503 L 1255 184 C 1263 164 1274 146 1287 130 C 1300 114 1317 101 1339 92 C 1362 83 1377 77 1384 73 C 1391 69 1395 61 1395 51 Z" unicode="" />
<glyph horiz-adv-x="1393" d="M 752 1935 L 1030 1581 L 948 1581 L 690 1778 L 432 1581 L 350 1581 L 629 1935 L 752 1935 Z M 403 522 L 905 522 L 657 1149 L 403 522 Z M 1395 51 L 1395 0 L 940 0 L 940 41 C 940 51 943 58 951 62 C 958 66 972 74 993 86 C 1009 94 1023 102 1033 111 C 1043 119 1049 129 1049 139 C 1049 146 1046 157 1040 173 C 1034 189 1028 205 1022 223 L 946 420 L 362 420 L 285 225 C 280 215 275 201 270 183 C 264 165 262 152 262 143 C 262 128 267 115 278 105 C 289 95 304 86 324 80 C 342 71 356 63 364 56 C 372 49 377 41 377 31 L 377 0 L -4 0 L -4 41 C -4 49 -1 57 4 64 C 9 71 20 79 37 88 C 51 98 63 107 73 115 C 83 123 93 131 101 140 C 109 149 116 159 123 171 C 129 183 136 197 143 215 L 596 1284 L 555 1374 C 553 1378 551 1383 549 1388 C 547 1392 547 1396 547 1399 C 547 1401 548 1404 550 1407 C 552 1409 556 1412 561 1415 C 581 1427 603 1442 626 1458 C 649 1474 670 1491 690 1507 C 692 1509 694 1511 697 1514 C 700 1516 704 1518 709 1518 C 713 1518 717 1516 720 1514 C 722 1511 725 1507 727 1503 L 1255 184 C 1263 164 1274 146 1287 130 C 1300 114 1317 101 1339 92 C 1362 83 1377 77 1384 73 C 1391 69 1395 61 1395 51 Z" unicode="" />
<glyph horiz-adv-x="1393" d="M 960 1870 L 1028 1870 C 1028 1836 1022 1805 1011 1776 C 1000 1746 985 1721 966 1700 C 946 1678 924 1661 898 1649 C 872 1636 844 1630 815 1630 C 789 1630 766 1633 746 1639 C 725 1645 697 1657 661 1677 C 633 1692 609 1705 588 1715 C 566 1725 544 1731 522 1731 C 492 1731 468 1720 448 1698 C 428 1676 418 1650 416 1622 L 348 1622 C 348 1655 353 1686 364 1716 C 375 1745 390 1770 410 1792 C 429 1813 452 1830 478 1843 C 504 1855 531 1862 561 1862 C 577 1862 592 1861 604 1859 C 616 1857 628 1855 639 1852 C 650 1848 662 1844 674 1838 C 686 1832 699 1826 715 1819 C 743 1803 768 1790 790 1778 C 812 1766 833 1761 854 1761 C 883 1761 907 1772 927 1794 C 947 1816 958 1841 960 1870 Z M 403 522 L 905 522 L 657 1149 L 403 522 Z M 1395 51 L 1395 0 L 940 0 L 940 41 C 940 51 943 58 951 62 C 958 66 972 74 993 86 C 1009 94 1023 102 1033 111 C 1043 119 1049 129 1049 139 C 1049 146 1046 157 1040 173 C 1034 189 1028 205 1022 223 L 946 420 L 362 420 L 285 225 C 280 215 275 201 270 183 C 264 165 262 152 262 143 C 262 128 267 115 278 105 C 289 95 304 86 324 80 C 342 71 356 63 364 56 C 372 49 377 41 377 31 L 377 0 L -4 0 L -4 41 C -4 49 -1 57 4 64 C 9 71 20 79 37 88 C 51 98 63 107 73 115 C 83 123 93 131 101 140 C 109 149 116 159 123 171 C 129 183 136 197 143 215 L 596 1284 L 555 1374 C 553 1378 551 1383 549 1388 C 547 1392 547 1396 547 1399 C 547 1401 548 1404 550 1407 C 552 1409 556 1412 561 1415 C 581 1427 603 1442 626 1458 C 649 1474 670 1491 690 1507 C 692 1509 694 1511 697 1514 C 700 1516 704 1518 709 1518 C 713 1518 717 1516 720 1514 C 722 1511 725 1507 727 1503 L 1255 184 C 1263 164 1274 146 1287 130 C 1300 114 1317 101 1339 92 C 1362 83 1377 77 1384 73 C 1391 69 1395 61 1395 51 Z" unicode="" />
<glyph horiz-adv-x="1393" d="M 465 1851 C 495 1851 522 1839 545 1817 C 568 1794 580 1767 580 1737 C 580 1706 568 1679 545 1656 C 522 1633 495 1622 465 1622 C 434 1622 407 1633 384 1656 C 361 1679 350 1706 350 1737 C 350 1767 361 1794 384 1817 C 407 1839 434 1851 465 1851 Z M 903 1851 C 933 1851 960 1839 983 1817 C 1006 1794 1018 1767 1018 1737 C 1018 1706 1006 1679 983 1656 C 960 1633 933 1622 903 1622 C 872 1622 845 1633 822 1656 C 799 1679 788 1706 788 1737 C 788 1767 799 1794 822 1817 C 845 1839 872 1851 903 1851 Z M 403 522 L 905 522 L 657 1149 L 403 522 Z M 1395 51 L 1395 0 L 940 0 L 940 41 C 940 51 943 58 951 62 C 958 66 972 74 993 86 C 1009 94 1023 102 1033 111 C 1043 119 1049 129 1049 139 C 1049 146 1046 157 1040 173 C 1034 189 1028 205 1022 223 L 946 420 L 362 420 L 285 225 C 280 215 275 201 270 183 C 264 165 262 152 262 143 C 262 128 267 115 278 105 C 289 95 304 86 324 80 C 342 71 356 63 364 56 C 372 49 377 41 377 31 L 377 0 L -4 0 L -4 41 C -4 49 -1 57 4 64 C 9 71 20 79 37 88 C 51 98 63 107 73 115 C 83 123 93 131 101 140 C 109 149 116 159 123 171 C 129 183 136 197 143 215 L 596 1284 L 555 1374 C 553 1378 551 1383 549 1388 C 547 1392 547 1396 547 1399 C 547 1401 548 1404 550 1407 C 552 1409 556 1412 561 1415 C 581 1427 603 1442 626 1458 C 649 1474 670 1491 690 1507 C 692 1509 694 1511 697 1514 C 700 1516 704 1518 709 1518 C 713 1518 717 1516 720 1514 C 722 1511 725 1507 727 1503 L 1255 184 C 1263 164 1274 146 1287 130 C 1300 114 1317 101 1339 92 C 1362 83 1377 77 1384 73 C 1391 69 1395 61 1395 51 Z" unicode="" />
<glyph horiz-adv-x="1393" d="M 684 2021 C 719 2021 752 2015 782 2004 C 812 1992 837 1977 859 1957 C 880 1937 897 1914 909 1887 C 921 1859 928 1830 928 1798 C 928 1766 921 1736 909 1709 C 897 1681 880 1658 859 1638 C 837 1618 812 1603 782 1592 C 752 1580 719 1575 684 1575 C 648 1575 616 1580 586 1591 C 556 1602 530 1617 509 1637 C 487 1657 470 1680 458 1708 C 446 1735 440 1765 440 1798 C 440 1830 446 1859 458 1887 C 470 1914 487 1937 509 1957 C 530 1977 556 1992 586 2004 C 616 2015 648 2021 684 2021 Z M 684 1640 C 720 1640 749 1653 769 1681 C 789 1709 799 1748 799 1798 C 799 1848 789 1886 769 1914 C 749 1942 720 1956 684 1956 C 647 1956 619 1942 599 1914 C 579 1886 569 1848 569 1798 C 569 1748 579 1709 599 1681 C 619 1653 647 1640 684 1640 Z M 403 522 L 905 522 L 657 1149 L 403 522 Z M 1395 51 L 1395 0 L 940 0 L 940 41 C 940 51 943 58 951 62 C 958 66 972 74 993 86 C 1009 94 1023 102 1033 111 C 1043 119 1049 129 1049 139 C 1049 146 1046 157 1040 173 C 1034 189 1028 205 1022 223 L 946 420 L 362 420 L 285 225 C 280 215 275 201 270 183 C 264 165 262 152 262 143 C 262 128 267 115 278 105 C 289 95 304 86 324 80 C 342 71 356 63 364 56 C 372 49 377 41 377 31 L 377 0 L -4 0 L -4 41 C -4 49 -1 57 4 64 C 9 71 20 79 37 88 C 51 98 63 107 73 115 C 83 123 93 131 101 140 C 109 149 116 159 123 171 C 129 183 136 197 143 215 L 596 1284 L 555 1374 C 553 1378 551 1383 549 1388 C 547 1392 547 1396 547 1399 C 547 1401 548 1404 550 1407 C 552 1409 556 1412 561 1415 C 581 1427 603 1442 626 1458 C 649 1474 670 1491 690 1507 C 692 1509 694 1511 697 1514 C 700 1516 704 1518 709 1518 C 713 1518 717 1516 720 1514 C 722 1511 725 1507 727 1503 L 1255 184 C 1263 164 1274 146 1287 130 C 1300 114 1317 101 1339 92 C 1362 83 1377 77 1384 73 C 1391 69 1395 61 1395 51 Z" unicode="" />
<glyph horiz-adv-x="1946" d="M 534 805 L 950 805 L 950 1241 C 950 1263 949 1285 948 1306 C 947 1326 944 1344 939 1360 C 934 1376 926 1388 914 1398 C 902 1408 886 1413 866 1413 C 852 1413 839 1407 827 1397 C 815 1387 803 1373 793 1357 C 782 1341 772 1322 762 1301 C 752 1280 743 1259 733 1239 L 534 805 Z M 1894 336 L 1894 0 L 831 0 L 831 51 C 831 61 834 68 841 72 C 848 75 863 82 887 92 C 913 103 930 112 938 120 C 946 127 950 142 950 166 L 950 702 L 485 705 L 276 225 C 270 211 264 196 260 180 C 256 164 254 152 254 143 C 254 128 259 115 270 105 C 280 95 295 86 315 80 C 334 71 348 63 356 56 C 364 49 369 41 369 31 L 369 0 L -14 0 L -14 41 C -14 49 -11 57 -5 63 C 1 69 11 78 27 88 C 56 107 77 124 90 140 C 103 156 117 181 133 215 L 620 1272 C 622 1274 624 1279 626 1286 C 628 1293 631 1301 634 1309 C 636 1317 638 1325 640 1333 C 642 1341 643 1347 643 1352 C 643 1364 636 1375 624 1383 C 612 1391 596 1398 577 1405 C 558 1413 544 1420 536 1426 C 528 1432 524 1440 524 1450 L 524 1495 L 1608 1495 C 1620 1495 1636 1495 1654 1497 C 1672 1498 1690 1499 1708 1501 C 1726 1503 1743 1505 1759 1507 C 1775 1509 1788 1510 1798 1511 L 1798 1208 L 1751 1208 C 1735 1208 1724 1210 1716 1216 C 1708 1222 1702 1230 1698 1241 C 1686 1272 1675 1298 1666 1318 C 1656 1338 1645 1354 1631 1366 C 1617 1377 1600 1385 1578 1389 C 1556 1393 1527 1395 1491 1395 L 1157 1395 L 1157 805 L 1348 805 C 1366 805 1382 806 1394 810 C 1406 813 1416 819 1425 827 C 1433 835 1441 845 1448 858 C 1454 870 1462 886 1470 905 C 1477 917 1484 927 1490 934 C 1496 940 1508 944 1526 944 L 1571 944 L 1571 571 L 1520 571 C 1504 571 1493 575 1485 585 C 1477 594 1470 604 1464 614 C 1448 650 1433 673 1419 685 C 1405 696 1383 702 1352 702 L 1157 702 L 1157 100 L 1589 100 C 1617 100 1642 103 1662 110 C 1682 116 1699 127 1715 143 C 1730 158 1744 178 1757 203 C 1770 228 1784 259 1798 295 C 1802 309 1806 320 1812 326 C 1817 332 1826 336 1839 336 L 1894 336 Z" unicode="" />
<glyph horiz-adv-x="1280" d="M 1198 360 L 1266 291 C 1252 261 1231 229 1202 194 C 1172 159 1136 126 1093 96 C 1050 65 1000 39 943 17 C 886 -5 824 -17 756 -20 L 725 -94 C 784 -94 833 -106 871 -131 C 909 -156 928 -196 928 -250 C 928 -272 922 -293 912 -313 C 902 -333 886 -350 866 -366 C 845 -381 819 -393 788 -402 C 756 -411 720 -416 678 -416 C 649 -416 623 -412 600 -406 C 576 -400 555 -392 537 -383 C 518 -373 501 -363 486 -351 C 471 -339 458 -329 446 -319 L 483 -260 C 503 -277 530 -294 563 -310 C 595 -326 629 -334 664 -334 C 701 -334 729 -326 749 -312 C 768 -298 778 -278 778 -254 C 778 -232 769 -213 751 -197 C 733 -180 706 -172 668 -172 C 661 -172 653 -172 645 -173 C 637 -174 629 -175 623 -176 L 690 -20 C 586 -14 495 10 418 56 C 340 102 276 160 226 230 C 176 300 138 379 113 469 C 88 558 76 649 76 741 C 76 868 95 980 133 1078 C 171 1175 220 1256 280 1320 C 340 1384 408 1433 484 1466 C 560 1499 635 1516 711 1516 C 773 1516 829 1509 881 1495 C 932 1481 985 1457 1040 1423 C 1051 1416 1061 1411 1070 1409 C 1079 1406 1089 1408 1100 1415 C 1112 1424 1121 1431 1126 1435 C 1131 1439 1138 1442 1147 1442 L 1192 1442 L 1192 1073 L 1126 1073 C 1114 1073 1105 1075 1101 1080 C 1097 1084 1094 1091 1092 1100 C 1078 1144 1061 1186 1039 1225 C 1017 1263 991 1297 962 1325 C 933 1353 900 1375 864 1391 C 827 1407 787 1415 745 1415 C 697 1415 647 1402 595 1378 C 543 1353 496 1314 454 1261 C 411 1208 376 1139 348 1055 C 320 970 307 868 307 750 C 307 644 318 549 340 467 C 362 385 392 316 430 260 C 468 204 514 162 568 133 C 621 104 679 90 741 90 C 807 90 866 101 918 123 C 970 145 1014 170 1052 200 C 1090 229 1121 259 1145 289 C 1169 319 1187 343 1198 360 Z" unicode="" />
<glyph horiz-adv-x="1200" d="M 586 1903 L 868 1640 L 823 1602 L 485 1751 C 452 1765 427 1782 411 1802 C 395 1821 387 1840 387 1860 C 387 1883 394 1904 410 1923 C 426 1942 447 1952 475 1952 C 490 1952 507 1949 526 1943 C 544 1937 564 1923 586 1903 Z M 1149 336 L 1149 0 L 78 0 L 78 51 C 78 61 81 68 88 72 C 94 75 109 82 133 92 C 159 103 177 112 185 120 C 193 127 197 142 197 166 L 197 1329 C 197 1348 193 1362 186 1372 C 178 1382 162 1392 137 1403 C 113 1411 98 1418 92 1422 C 85 1426 82 1433 82 1444 L 82 1495 L 862 1495 C 874 1495 890 1495 908 1497 C 926 1498 944 1499 962 1501 C 980 1503 998 1505 1014 1507 C 1030 1509 1043 1510 1053 1511 L 1053 1208 L 1006 1208 C 990 1208 978 1210 970 1216 C 962 1222 956 1230 952 1241 C 940 1272 929 1298 920 1318 C 910 1338 899 1354 885 1366 C 871 1377 854 1385 832 1389 C 810 1393 781 1395 745 1395 L 403 1395 L 403 817 L 602 817 C 620 817 636 818 648 822 C 660 826 671 832 679 840 C 687 848 695 858 702 871 C 709 883 717 899 725 918 C 731 930 738 939 744 946 C 750 952 762 956 780 956 L 825 956 L 825 584 L 774 584 C 758 584 747 588 739 597 C 731 606 725 616 719 627 C 702 662 687 685 674 697 C 660 709 638 715 606 715 L 403 715 L 403 100 L 844 100 C 872 100 897 103 917 110 C 937 116 954 127 969 143 C 984 158 998 178 1011 203 C 1024 228 1038 259 1053 295 C 1057 309 1061 320 1067 326 C 1072 332 1081 336 1094 336 L 1149 336 Z" unicode="" />
<glyph horiz-adv-x="1200" d="M 803 1952 C 830 1952 851 1942 867 1923 C 883 1904 891 1883 891 1860 C 891 1840 882 1821 866 1802 C 850 1782 825 1765 793 1751 L 455 1602 L 410 1640 L 692 1903 C 713 1923 733 1937 752 1943 C 770 1949 787 1952 803 1952 Z M 1149 336 L 1149 0 L 78 0 L 78 51 C 78 61 81 68 88 72 C 94 75 109 82 133 92 C 159 103 177 112 185 120 C 193 127 197 142 197 166 L 197 1329 C 197 1348 193 1362 186 1372 C 178 1382 162 1392 137 1403 C 113 1411 98 1418 92 1422 C 85 1426 82 1433 82 1444 L 82 1495 L 862 1495 C 874 1495 890 1495 908 1497 C 926 1498 944 1499 962 1501 C 980 1503 998 1505 1014 1507 C 1030 1509 1043 1510 1053 1511 L 1053 1208 L 1006 1208 C 990 1208 978 1210 970 1216 C 962 1222 956 1230 952 1241 C 940 1272 929 1298 920 1318 C 910 1338 899 1354 885 1366 C 871 1377 854 1385 832 1389 C 810 1393 781 1395 745 1395 L 403 1395 L 403 817 L 602 817 C 620 817 636 818 648 822 C 660 826 671 832 679 840 C 687 848 695 858 702 871 C 709 883 717 899 725 918 C 731 930 738 939 744 946 C 750 952 762 956 780 956 L 825 956 L 825 584 L 774 584 C 758 584 747 588 739 597 C 731 606 725 616 719 627 C 702 662 687 685 674 697 C 660 709 638 715 606 715 L 403 715 L 403 100 L 844 100 C 872 100 897 103 917 110 C 937 116 954 127 969 143 C 984 158 998 178 1011 203 C 1024 228 1038 259 1053 295 C 1057 309 1061 320 1067 326 C 1072 332 1081 336 1094 336 L 1149 336 Z" unicode="" />
<glyph horiz-adv-x="1200" d="M 688 1948 L 967 1593 L 885 1593 L 627 1790 L 369 1593 L 287 1593 L 565 1948 L 688 1948 Z M 1149 336 L 1149 0 L 78 0 L 78 51 C 78 61 81 68 88 72 C 94 75 109 82 133 92 C 159 103 177 112 185 120 C 193 127 197 142 197 166 L 197 1329 C 197 1348 193 1362 186 1372 C 178 1382 162 1392 137 1403 C 113 1411 98 1418 92 1422 C 85 1426 82 1433 82 1444 L 82 1495 L 862 1495 C 874 1495 890 1495 908 1497 C 926 1498 944 1499 962 1501 C 980 1503 998 1505 1014 1507 C 1030 1509 1043 1510 1053 1511 L 1053 1208 L 1006 1208 C 990 1208 978 1210 970 1216 C 962 1222 956 1230 952 1241 C 940 1272 929 1298 920 1318 C 910 1338 899 1354 885 1366 C 871 1377 854 1385 832 1389 C 810 1393 781 1395 745 1395 L 403 1395 L 403 817 L 602 817 C 620 817 636 818 648 822 C 660 826 671 832 679 840 C 687 848 695 858 702 871 C 709 883 717 899 725 918 C 731 930 738 939 744 946 C 750 952 762 956 780 956 L 825 956 L 825 584 L 774 584 C 758 584 747 588 739 597 C 731 606 725 616 719 627 C 702 662 687 685 674 697 C 660 709 638 715 606 715 L 403 715 L 403 100 L 844 100 C 872 100 897 103 917 110 C 937 116 954 127 969 143 C 984 158 998 178 1011 203 C 1024 228 1038 259 1053 295 C 1057 309 1061 320 1067 326 C 1072 332 1081 336 1094 336 L 1149 336 Z" unicode="" />
<glyph horiz-adv-x="1200" d="M 397 1860 C 427 1860 454 1848 477 1825 C 500 1802 512 1775 512 1745 C 512 1714 500 1687 477 1664 C 454 1641 427 1630 397 1630 C 366 1630 339 1641 317 1664 C 294 1687 283 1714 283 1745 C 283 1775 294 1802 317 1825 C 339 1848 366 1860 397 1860 Z M 836 1860 C 866 1860 893 1848 916 1825 C 938 1802 950 1775 950 1745 C 950 1714 938 1687 916 1664 C 893 1641 866 1630 836 1630 C 805 1630 778 1641 755 1664 C 732 1687 721 1714 721 1745 C 721 1775 732 1802 755 1825 C 778 1848 805 1860 836 1860 Z M 1149 336 L 1149 0 L 78 0 L 78 51 C 78 61 81 68 88 72 C 94 75 109 82 133 92 C 159 103 177 112 185 120 C 193 127 197 142 197 166 L 197 1329 C 197 1348 193 1362 186 1372 C 178 1382 162 1392 137 1403 C 113 1411 98 1418 92 1422 C 85 1426 82 1433 82 1444 L 82 1495 L 862 1495 C 874 1495 890 1495 908 1497 C 926 1498 944 1499 962 1501 C 980 1503 998 1505 1014 1507 C 1030 1509 1043 1510 1053 1511 L 1053 1208 L 1006 1208 C 990 1208 978 1210 970 1216 C 962 1222 956 1230 952 1241 C 940 1272 929 1298 920 1318 C 910 1338 899 1354 885 1366 C 871 1377 854 1385 832 1389 C 810 1393 781 1395 745 1395 L 403 1395 L 403 817 L 602 817 C 620 817 636 818 648 822 C 660 826 671 832 679 840 C 687 848 695 858 702 871 C 709 883 717 899 725 918 C 731 930 738 939 744 946 C 750 952 762 956 780 956 L 825 956 L 825 584 L 774 584 C 758 584 747 588 739 597 C 731 606 725 616 719 627 C 702 662 687 685 674 697 C 660 709 638 715 606 715 L 403 715 L 403 100 L 844 100 C 872 100 897 103 917 110 C 937 116 954 127 969 143 C 984 158 998 178 1011 203 C 1024 228 1038 259 1053 295 C 1057 309 1061 320 1067 326 C 1072 332 1081 336 1094 336 L 1149 336 Z" unicode="" />
<glyph horiz-adv-x="612" d="M 268 1903 L 551 1640 L 506 1602 L 168 1751 C 135 1765 110 1782 94 1802 C 78 1821 70 1840 70 1860 C 70 1883 77 1904 93 1923 C 108 1942 130 1952 158 1952 C 172 1952 189 1949 208 1943 C 226 1937 246 1923 268 1903 Z M 524 51 L 524 0 L 86 0 L 86 51 C 86 61 89 68 96 72 C 102 75 117 82 141 92 C 167 103 184 112 192 120 C 199 127 203 142 203 166 L 203 1329 C 203 1348 199 1362 191 1372 C 183 1382 166 1392 141 1403 C 117 1411 102 1418 96 1422 C 89 1426 86 1433 86 1444 L 86 1495 L 524 1495 L 524 1444 C 524 1433 520 1426 513 1422 C 506 1418 492 1411 471 1403 C 444 1391 427 1382 420 1376 C 413 1369 410 1353 410 1329 L 410 166 C 410 142 413 127 421 120 C 429 112 445 103 471 92 C 492 83 506 77 513 73 C 520 69 524 61 524 51 Z" unicode="" />
<glyph horiz-adv-x="612" d="M 481 1952 C 509 1952 530 1942 546 1923 C 561 1904 569 1883 569 1860 C 569 1840 560 1821 544 1802 C 528 1782 503 1765 471 1751 L 133 1602 L 88 1640 L 371 1903 C 392 1923 412 1937 431 1943 C 449 1949 466 1952 481 1952 Z M 524 51 L 524 0 L 86 0 L 86 51 C 86 61 89 68 96 72 C 102 75 117 82 141 92 C 167 103 184 112 192 120 C 199 127 203 142 203 166 L 203 1329 C 203 1348 199 1362 191 1372 C 183 1382 166 1392 141 1403 C 117 1411 102 1418 96 1422 C 89 1426 86 1433 86 1444 L 86 1495 L 524 1495 L 524 1444 C 524 1433 520 1426 513 1422 C 506 1418 492 1411 471 1403 C 444 1391 427 1382 420 1376 C 413 1369 410 1353 410 1329 L 410 166 C 410 142 413 127 421 120 C 429 112 445 103 471 92 C 492 83 506 77 513 73 C 520 69 524 61 524 51 Z" unicode="" />
<glyph horiz-adv-x="612" d="M 369 1948 L 616 1593 L 534 1593 L 307 1790 L 80 1593 L -2 1593 L 246 1948 L 369 1948 Z M 524 51 L 524 0 L 86 0 L 86 51 C 86 61 89 68 96 72 C 102 75 117 82 141 92 C 167 103 184 112 192 120 C 199 127 203 142 203 166 L 203 1329 C 203 1348 199 1362 191 1372 C 183 1382 166 1392 141 1403 C 117 1411 102 1418 96 1422 C 89 1426 86 1433 86 1444 L 86 1495 L 524 1495 L 524 1444 C 524 1433 520 1426 513 1422 C 506 1418 492 1411 471 1403 C 444 1391 427 1382 420 1376 C 413 1369 410 1353 410 1329 L 410 166 C 410 142 413 127 421 120 C 429 112 445 103 471 92 C 492 83 506 77 513 73 C 520 69 524 61 524 51 Z" unicode="" />
<glyph horiz-adv-x="612" d="M 111 1870 C 141 1870 168 1858 191 1835 C 213 1812 225 1785 225 1755 C 225 1724 213 1697 191 1674 C 168 1651 141 1640 111 1640 C 80 1640 53 1651 30 1674 C 7 1697 -4 1724 -4 1755 C -4 1785 7 1812 30 1835 C 53 1858 80 1870 111 1870 Z M 500 1870 C 530 1870 557 1858 580 1835 C 602 1812 614 1785 614 1755 C 614 1724 602 1697 580 1674 C 557 1651 530 1640 500 1640 C 469 1640 442 1651 419 1674 C 396 1697 385 1724 385 1755 C 385 1785 396 1812 419 1835 C 442 1858 469 1870 500 1870 Z M 524 51 L 524 0 L 86 0 L 86 51 C 86 61 89 68 96 72 C 102 75 117 82 141 92 C 167 103 184 112 192 120 C 199 127 203 142 203 166 L 203 1329 C 203 1348 199 1362 191 1372 C 183 1382 166 1392 141 1403 C 117 1411 102 1418 96 1422 C 89 1426 86 1433 86 1444 L 86 1495 L 524 1495 L 524 1444 C 524 1433 520 1426 513 1422 C 506 1418 492 1411 471 1403 C 444 1391 427 1382 420 1376 C 413 1369 410 1353 410 1329 L 410 166 C 410 142 413 127 421 120 C 429 112 445 103 471 92 C 492 83 506 77 513 73 C 520 69 524 61 524 51 Z" unicode="" />
<glyph horiz-adv-x="1456" d="M 1032 1880 L 1100 1880 C 1100 1846 1094 1815 1083 1786 C 1072 1756 1057 1731 1038 1710 C 1018 1688 996 1671 970 1659 C 944 1646 916 1640 887 1640 C 861 1640 838 1643 818 1649 C 797 1655 769 1668 733 1688 C 705 1702 681 1715 660 1725 C 638 1735 616 1741 594 1741 C 564 1741 539 1730 519 1708 C 499 1686 489 1660 487 1632 L 420 1632 C 420 1665 425 1696 436 1726 C 447 1755 462 1780 482 1802 C 501 1823 524 1840 550 1853 C 576 1865 603 1872 633 1872 C 649 1872 663 1871 675 1869 C 687 1867 699 1865 711 1862 C 722 1858 733 1854 745 1849 C 757 1843 770 1837 786 1829 C 814 1813 840 1800 862 1789 C 884 1777 905 1772 926 1772 C 955 1772 979 1782 999 1804 C 1019 1826 1030 1851 1032 1880 Z M 1384 1495 L 1384 1442 C 1384 1433 1380 1426 1372 1422 C 1364 1417 1350 1407 1329 1391 C 1306 1373 1290 1354 1281 1334 C 1272 1314 1268 1292 1268 1270 L 1268 -10 L 1182 -10 L 326 1294 L 326 227 C 326 203 330 181 338 160 C 346 138 361 119 383 102 C 404 85 419 75 427 71 C 435 67 440 61 440 53 L 440 0 L 80 0 L 80 53 C 80 61 83 68 90 73 C 97 78 112 89 135 106 C 156 123 172 141 182 161 C 192 181 197 202 197 225 L 197 1329 C 197 1348 193 1362 185 1372 C 177 1382 160 1392 135 1403 C 111 1411 96 1418 90 1422 C 83 1426 80 1433 80 1444 L 80 1495 L 424 1495 L 1139 397 L 1139 1268 C 1139 1291 1134 1313 1126 1335 C 1117 1356 1101 1375 1079 1393 C 1058 1409 1043 1419 1035 1423 C 1026 1427 1022 1433 1022 1442 L 1022 1495 L 1384 1495 Z" unicode="" />
<glyph horiz-adv-x="1495" d="M 704 1903 L 987 1640 L 942 1602 L 604 1751 C 571 1765 546 1782 530 1802 C 514 1821 506 1840 506 1860 C 506 1883 513 1904 529 1923 C 545 1942 566 1952 594 1952 C 609 1952 626 1949 644 1943 C 662 1937 682 1923 704 1903 Z M 747 1516 C 845 1516 936 1496 1019 1458 C 1101 1419 1172 1366 1231 1298 C 1290 1230 1336 1149 1369 1055 C 1402 961 1419 858 1419 748 C 1419 636 1402 533 1369 439 C 1336 345 1290 264 1231 196 C 1172 128 1101 75 1019 37 C 936 0 845 -20 747 -20 C 649 -20 558 -1 476 36 C 394 74 323 126 264 193 C 205 260 159 341 126 436 C 92 530 76 634 76 748 C 76 858 92 961 126 1055 C 159 1149 205 1230 264 1298 C 323 1366 394 1419 476 1458 C 558 1496 649 1516 747 1516 Z M 747 80 C 813 80 873 94 927 122 C 981 150 1028 192 1066 248 C 1104 303 1134 373 1156 457 C 1177 541 1188 638 1188 748 C 1188 855 1177 950 1156 1034 C 1134 1117 1104 1187 1066 1243 C 1028 1299 981 1342 927 1371 C 873 1400 813 1415 747 1415 C 681 1415 620 1400 566 1371 C 512 1342 466 1299 428 1243 C 390 1187 360 1117 339 1034 C 317 950 307 855 307 748 C 307 640 317 544 339 461 C 360 377 390 307 428 251 C 466 195 512 152 566 123 C 620 94 681 80 747 80 Z" unicode="" />
<glyph horiz-adv-x="1495" d="M 905 1952 C 932 1952 953 1942 969 1923 C 985 1904 993 1883 993 1860 C 993 1840 984 1821 968 1802 C 952 1782 927 1765 895 1751 L 557 1602 L 512 1640 L 795 1903 C 816 1923 836 1937 854 1943 C 872 1949 889 1952 905 1952 Z M 747 1516 C 845 1516 936 1496 1019 1458 C 1101 1419 1172 1366 1231 1298 C 1290 1230 1336 1149 1369 1055 C 1402 961 1419 858 1419 748 C 1419 636 1402 533 1369 439 C 1336 345 1290 264 1231 196 C 1172 128 1101 75 1019 37 C 936 0 845 -20 747 -20 C 649 -20 558 -1 476 36 C 394 74 323 126 264 193 C 205 260 159 341 126 436 C 92 530 76 634 76 748 C 76 858 92 961 126 1055 C 159 1149 205 1230 264 1298 C 323 1366 394 1419 476 1458 C 558 1496 649 1516 747 1516 Z M 747 80 C 813 80 873 94 927 122 C 981 150 1028 192 1066 248 C 1104 303 1134 373 1156 457 C 1177 541 1188 638 1188 748 C 1188 855 1177 950 1156 1034 C 1134 1117 1104 1187 1066 1243 C 1028 1299 981 1342 927 1371 C 873 1400 813 1415 747 1415 C 681 1415 620 1400 566 1371 C 512 1342 466 1299 428 1243 C 390 1187 360 1117 339 1034 C 317 950 307 855 307 748 C 307 640 317 544 339 461 C 360 377 390 307 428 251 C 466 195 512 152 566 123 C 620 94 681 80 747 80 Z" unicode="" />
<glyph horiz-adv-x="1495" d="M 809 1948 L 1087 1593 L 1006 1593 L 747 1790 L 489 1593 L 408 1593 L 686 1948 L 809 1948 Z M 747 1516 C 845 1516 936 1496 1019 1458 C 1101 1419 1172 1366 1231 1298 C 1290 1230 1336 1149 1369 1055 C 1402 961 1419 858 1419 748 C 1419 636 1402 533 1369 439 C 1336 345 1290 264 1231 196 C 1172 128 1101 75 1019 37 C 936 0 845 -20 747 -20 C 649 -20 558 -1 476 36 C 394 74 323 126 264 193 C 205 260 159 341 126 436 C 92 530 76 634 76 748 C 76 858 92 961 126 1055 C 159 1149 205 1230 264 1298 C 323 1366 394 1419 476 1458 C 558 1496 649 1516 747 1516 Z M 747 80 C 813 80 873 94 927 122 C 981 150 1028 192 1066 248 C 1104 303 1134 373 1156 457 C 1177 541 1188 638 1188 748 C 1188 855 1177 950 1156 1034 C 1134 1117 1104 1187 1066 1243 C 1028 1299 981 1342 927 1371 C 873 1400 813 1415 747 1415 C 681 1415 620 1400 566 1371 C 512 1342 466 1299 428 1243 C 390 1187 360 1117 339 1034 C 317 950 307 855 307 748 C 307 640 317 544 339 461 C 360 377 390 307 428 251 C 466 195 512 152 566 123 C 620 94 681 80 747 80 Z" unicode="" />
<glyph horiz-adv-x="1495" d="M 1020 1880 L 1087 1880 C 1087 1846 1081 1815 1070 1786 C 1059 1756 1044 1731 1025 1710 C 1005 1688 983 1671 957 1659 C 931 1646 903 1640 874 1640 C 848 1640 825 1643 805 1649 C 785 1655 757 1668 721 1688 C 693 1702 669 1715 648 1725 C 626 1735 604 1741 582 1741 C 552 1741 527 1730 507 1708 C 487 1686 477 1660 475 1632 L 408 1632 C 408 1665 413 1696 424 1726 C 435 1755 450 1780 469 1802 C 488 1823 511 1840 537 1853 C 563 1865 590 1872 620 1872 C 636 1872 651 1871 663 1869 C 675 1867 687 1865 699 1862 C 710 1858 721 1854 733 1849 C 745 1843 758 1837 774 1829 C 802 1813 827 1800 849 1789 C 871 1777 892 1772 913 1772 C 943 1772 967 1782 987 1804 C 1007 1826 1018 1851 1020 1880 Z M 747 1516 C 845 1516 936 1496 1019 1458 C 1101 1419 1172 1366 1231 1298 C 1290 1230 1336 1149 1369 1055 C 1402 961 1419 858 1419 748 C 1419 636 1402 533 1369 439 C 1336 345 1290 264 1231 196 C 1172 128 1101 75 1019 37 C 936 0 845 -20 747 -20 C 649 -20 558 -1 476 36 C 394 74 323 126 264 193 C 205 260 159 341 126 436 C 92 530 76 634 76 748 C 76 858 92 961 126 1055 C 159 1149 205 1230 264 1298 C 323 1366 394 1419 476 1458 C 558 1496 649 1516 747 1516 Z M 747 80 C 813 80 873 94 927 122 C 981 150 1028 192 1066 248 C 1104 303 1134 373 1156 457 C 1177 541 1188 638 1188 748 C 1188 855 1177 950 1156 1034 C 1134 1117 1104 1187 1066 1243 C 1028 1299 981 1342 927 1371 C 873 1400 813 1415 747 1415 C 681 1415 620 1400 566 1371 C 512 1342 466 1299 428 1243 C 390 1187 360 1117 339 1034 C 317 950 307 855 307 748 C 307 640 317 544 339 461 C 360 377 390 307 428 251 C 466 195 512 152 566 123 C 620 94 681 80 747 80 Z" unicode="" />
<glyph horiz-adv-x="1495" d="M 528 1860 C 558 1860 585 1848 608 1825 C 631 1802 643 1775 643 1745 C 643 1714 631 1687 608 1664 C 585 1641 558 1630 528 1630 C 497 1630 470 1641 448 1664 C 425 1687 414 1714 414 1745 C 414 1775 425 1802 448 1825 C 470 1848 497 1860 528 1860 Z M 967 1860 C 997 1860 1024 1848 1047 1825 C 1069 1802 1081 1775 1081 1745 C 1081 1714 1069 1687 1047 1664 C 1024 1641 997 1630 967 1630 C 936 1630 909 1641 886 1664 C 863 1687 852 1714 852 1745 C 852 1775 863 1802 886 1825 C 909 1848 936 1860 967 1860 Z M 747 1516 C 845 1516 936 1496 1019 1458 C 1101 1419 1172 1366 1231 1298 C 1290 1230 1336 1149 1369 1055 C 1402 961 1419 858 1419 748 C 1419 636 1402 533 1369 439 C 1336 345 1290 264 1231 196 C 1172 128 1101 75 1019 37 C 936 0 845 -20 747 -20 C 649 -20 558 -1 476 36 C 394 74 323 126 264 193 C 205 260 159 341 126 436 C 92 530 76 634 76 748 C 76 858 92 961 126 1055 C 159 1149 205 1230 264 1298 C 323 1366 394 1419 476 1458 C 558 1496 649 1516 747 1516 Z M 747 80 C 813 80 873 94 927 122 C 981 150 1028 192 1066 248 C 1104 303 1134 373 1156 457 C 1177 541 1188 638 1188 748 C 1188 855 1177 950 1156 1034 C 1134 1117 1104 1187 1066 1243 C 1028 1299 981 1342 927 1371 C 873 1400 813 1415 747 1415 C 681 1415 620 1400 566 1371 C 512 1342 466 1299 428 1243 C 390 1187 360 1117 339 1034 C 317 950 307 855 307 748 C 307 640 317 544 339 461 C 360 377 390 307 428 251 C 466 195 512 152 566 123 C 620 94 681 80 747 80 Z" unicode="" />
<glyph horiz-adv-x="1540" d="M 858 600 L 1251 209 L 1161 119 L 770 512 L 379 119 L 289 209 L 682 600 L 289 991 L 379 1081 L 770 688 L 1161 1081 L 1251 991 L 858 600 Z" unicode="" />
<glyph horiz-adv-x="1456" d="M 713 1903 L 995 1640 L 950 1602 L 612 1751 C 579 1765 554 1782 538 1802 C 522 1821 514 1840 514 1860 C 514 1883 521 1904 537 1923 C 553 1942 574 1952 602 1952 C 617 1952 634 1949 653 1943 C 671 1937 691 1923 713 1903 Z M 1397 1495 L 1397 1442 C 1397 1433 1393 1426 1386 1422 C 1378 1417 1363 1407 1341 1391 C 1318 1373 1302 1354 1293 1334 C 1284 1314 1280 1292 1280 1270 L 1280 537 C 1280 467 1269 399 1248 332 C 1227 265 1195 206 1152 154 C 1108 102 1053 60 987 28 C 921 -4 843 -20 754 -20 C 656 -20 572 -6 500 21 C 428 48 368 85 322 133 C 275 181 240 237 218 303 C 195 368 184 438 184 514 L 184 1329 C 184 1348 180 1362 172 1372 C 164 1382 147 1392 123 1403 C 99 1411 84 1418 78 1422 C 71 1426 68 1433 68 1444 L 68 1495 L 506 1495 L 506 1444 C 506 1433 502 1426 496 1422 C 490 1418 475 1411 453 1403 C 427 1391 410 1381 402 1372 C 394 1362 391 1348 391 1329 L 391 528 C 391 464 399 407 416 356 C 432 305 456 262 488 227 C 520 191 559 164 605 145 C 651 126 704 117 764 117 C 898 117 996 154 1059 230 C 1121 306 1153 412 1153 549 L 1153 1268 C 1153 1291 1148 1313 1139 1335 C 1130 1356 1114 1375 1092 1393 C 1071 1409 1056 1419 1048 1423 C 1040 1427 1036 1433 1036 1442 L 1036 1495 L 1397 1495 Z" unicode="" />
<glyph horiz-adv-x="1456" d="M 934 1952 C 961 1952 982 1942 998 1923 C 1014 1904 1022 1883 1022 1860 C 1022 1840 1013 1821 997 1802 C 981 1782 956 1765 924 1751 L 586 1602 L 541 1640 L 823 1903 C 844 1923 864 1937 883 1943 C 901 1949 918 1952 934 1952 Z M 1397 1495 L 1397 1442 C 1397 1433 1393 1426 1386 1422 C 1378 1417 1363 1407 1341 1391 C 1318 1373 1302 1354 1293 1334 C 1284 1314 1280 1292 1280 1270 L 1280 537 C 1280 467 1269 399 1248 332 C 1227 265 1195 206 1152 154 C 1108 102 1053 60 987 28 C 921 -4 843 -20 754 -20 C 656 -20 572 -6 500 21 C 428 48 368 85 322 133 C 275 181 240 237 218 303 C 195 368 184 438 184 514 L 184 1329 C 184 1348 180 1362 172 1372 C 164 1382 147 1392 123 1403 C 99 1411 84 1418 78 1422 C 71 1426 68 1433 68 1444 L 68 1495 L 506 1495 L 506 1444 C 506 1433 502 1426 496 1422 C 490 1418 475 1411 453 1403 C 427 1391 410 1381 402 1372 C 394 1362 391 1348 391 1329 L 391 528 C 391 464 399 407 416 356 C 432 305 456 262 488 227 C 520 191 559 164 605 145 C 651 126 704 117 764 117 C 898 117 996 154 1059 230 C 1121 306 1153 412 1153 549 L 1153 1268 C 1153 1291 1148 1313 1139 1335 C 1130 1356 1114 1375 1092 1393 C 1071 1409 1056 1419 1048 1423 C 1040 1427 1036 1433 1036 1442 L 1036 1495 L 1397 1495 Z" unicode="" />
<glyph horiz-adv-x="1456" d="M 821 1948 L 1100 1593 L 1018 1593 L 760 1790 L 502 1593 L 420 1593 L 698 1948 L 821 1948 Z M 1397 1495 L 1397 1442 C 1397 1433 1393 1426 1386 1422 C 1378 1417 1363 1407 1341 1391 C 1318 1373 1302 1354 1293 1334 C 1284 1314 1280 1292 1280 1270 L 1280 537 C 1280 467 1269 399 1248 332 C 1227 265 1195 206 1152 154 C 1108 102 1053 60 987 28 C 921 -4 843 -20 754 -20 C 656 -20 572 -6 500 21 C 428 48 368 85 322 133 C 275 181 240 237 218 303 C 195 368 184 438 184 514 L 184 1329 C 184 1348 180 1362 172 1372 C 164 1382 147 1392 123 1403 C 99 1411 84 1418 78 1422 C 71 1426 68 1433 68 1444 L 68 1495 L 506 1495 L 506 1444 C 506 1433 502 1426 496 1422 C 490 1418 475 1411 453 1403 C 427 1391 410 1381 402 1372 C 394 1362 391 1348 391 1329 L 391 528 C 391 464 399 407 416 356 C 432 305 456 262 488 227 C 520 191 559 164 605 145 C 651 126 704 117 764 117 C 898 117 996 154 1059 230 C 1121 306 1153 412 1153 549 L 1153 1268 C 1153 1291 1148 1313 1139 1335 C 1130 1356 1114 1375 1092 1393 C 1071 1409 1056 1419 1048 1423 C 1040 1427 1036 1433 1036 1442 L 1036 1495 L 1397 1495 Z" unicode="" />
<glyph horiz-adv-x="1456" d="M 551 1860 C 581 1860 608 1848 631 1825 C 654 1802 666 1775 666 1745 C 666 1714 654 1687 631 1664 C 608 1641 581 1630 551 1630 C 520 1630 493 1641 470 1664 C 447 1687 436 1714 436 1745 C 436 1775 447 1802 470 1825 C 493 1848 520 1860 551 1860 Z M 989 1860 C 1019 1860 1046 1848 1069 1825 C 1092 1802 1104 1775 1104 1745 C 1104 1714 1092 1687 1069 1664 C 1046 1641 1019 1630 989 1630 C 958 1630 931 1641 908 1664 C 885 1687 874 1714 874 1745 C 874 1775 885 1802 908 1825 C 931 1848 958 1860 989 1860 Z M 1397 1495 L 1397 1442 C 1397 1433 1393 1426 1386 1422 C 1378 1417 1363 1407 1341 1391 C 1318 1373 1302 1354 1293 1334 C 1284 1314 1280 1292 1280 1270 L 1280 537 C 1280 467 1269 399 1248 332 C 1227 265 1195 206 1152 154 C 1108 102 1053 60 987 28 C 921 -4 843 -20 754 -20 C 656 -20 572 -6 500 21 C 428 48 368 85 322 133 C 275 181 240 237 218 303 C 195 368 184 438 184 514 L 184 1329 C 184 1348 180 1362 172 1372 C 164 1382 147 1392 123 1403 C 99 1411 84 1418 78 1422 C 71 1426 68 1433 68 1444 L 68 1495 L 506 1495 L 506 1444 C 506 1433 502 1426 496 1422 C 490 1418 475 1411 453 1403 C 427 1391 410 1381 402 1372 C 394 1362 391 1348 391 1329 L 391 528 C 391 464 399 407 416 356 C 432 305 456 262 488 227 C 520 191 559 164 605 145 C 651 126 704 117 764 117 C 898 117 996 154 1059 230 C 1121 306 1153 412 1153 549 L 1153 1268 C 1153 1291 1148 1313 1139 1335 C 1130 1356 1114 1375 1092 1393 C 1071 1409 1056 1419 1048 1423 C 1040 1427 1036 1433 1036 1442 L 1036 1495 L 1397 1495 Z" unicode="" />
<glyph horiz-adv-x="1274" d="M 899 1952 C 926 1952 947 1942 963 1923 C 979 1904 987 1883 987 1860 C 987 1840 978 1821 962 1802 C 946 1782 921 1765 889 1751 L 551 1602 L 506 1640 L 788 1903 C 809 1923 829 1937 848 1943 C 866 1949 883 1952 899 1952 Z M 1284 1495 L 1284 1454 C 1284 1444 1281 1436 1275 1430 C 1269 1424 1258 1417 1243 1409 C 1229 1401 1217 1394 1207 1388 C 1197 1382 1188 1376 1180 1369 C 1171 1361 1162 1352 1153 1340 C 1144 1328 1133 1311 1120 1290 L 747 682 L 747 166 C 747 146 751 132 759 123 C 767 113 784 103 809 92 C 831 83 846 77 853 73 C 860 69 864 61 864 51 L 864 0 L 420 0 L 420 51 C 420 61 423 68 430 72 C 437 75 452 82 475 92 C 501 103 519 112 528 120 C 536 127 541 142 541 166 L 541 678 L 135 1317 C 123 1337 110 1354 97 1367 C 84 1380 65 1392 41 1403 C 18 1411 3 1418 -2 1422 C -8 1426 -12 1433 -12 1444 L -12 1495 L 448 1495 L 448 1462 C 448 1451 445 1443 441 1439 C 437 1434 424 1426 403 1415 C 387 1407 374 1399 364 1393 C 354 1387 350 1379 350 1370 C 350 1367 351 1363 354 1357 C 356 1351 359 1344 363 1337 C 366 1329 369 1322 373 1315 C 377 1307 380 1302 383 1298 L 692 801 L 989 1296 C 997 1310 1005 1325 1012 1340 C 1018 1355 1022 1366 1022 1372 C 1022 1383 1016 1391 1005 1397 C 994 1403 981 1409 967 1415 C 945 1423 930 1431 922 1437 C 913 1443 909 1452 909 1462 L 909 1495 L 1284 1495 Z" unicode="" />
<glyph horiz-adv-x="1112" d="M 664 805 C 733 796 792 779 842 754 C 892 728 932 697 964 661 C 995 624 1018 582 1033 536 C 1047 490 1055 441 1055 391 C 1055 338 1045 287 1025 237 C 1005 187 978 144 944 106 C 910 68 869 38 821 16 C 773 -6 722 -18 668 -18 C 589 -18 530 -3 492 25 C 453 53 434 89 434 131 C 434 139 435 148 438 159 C 441 170 446 181 454 191 C 461 201 471 210 483 218 C 495 225 511 229 530 229 C 560 229 583 219 598 200 C 612 180 620 160 620 139 C 620 130 618 119 614 107 C 610 94 606 82 600 70 C 606 68 613 66 621 65 C 629 63 636 63 643 63 C 676 63 706 71 733 88 C 760 105 783 128 802 158 C 820 187 835 222 845 263 C 855 303 860 347 860 395 C 860 516 834 603 783 655 C 732 707 658 733 561 733 L 541 733 C 522 733 505 737 491 747 C 476 757 469 772 469 793 C 469 814 475 830 488 840 C 501 850 513 856 524 856 L 565 856 C 630 856 680 881 716 932 C 752 983 770 1055 770 1149 C 770 1235 751 1299 714 1340 C 677 1380 629 1401 569 1401 C 495 1401 439 1369 401 1307 C 363 1245 344 1148 344 1018 L 344 0 L 70 0 L 68 45 C 68 53 71 58 77 60 C 83 62 96 67 115 76 C 126 81 135 85 141 89 C 147 92 152 96 156 100 C 159 104 161 110 162 117 C 163 124 164 134 164 147 L 162 985 C 162 1065 172 1136 193 1200 C 213 1264 242 1317 279 1361 C 316 1404 360 1437 412 1460 C 464 1483 520 1495 582 1495 C 635 1495 684 1486 730 1470 C 776 1454 815 1431 848 1402 C 880 1373 906 1338 924 1298 C 942 1258 952 1214 952 1167 C 952 1123 946 1081 934 1042 C 922 1003 904 968 880 937 C 856 905 826 878 790 856 C 754 833 712 816 664 805 Z" unicode="" />
<glyph horiz-adv-x="942" d="M 420 1313 L 674 1022 L 625 987 L 305 1171 C 275 1188 253 1206 239 1224 C 224 1242 217 1261 217 1280 C 217 1304 225 1326 241 1344 C 257 1362 278 1372 305 1372 C 322 1372 340 1368 358 1361 C 376 1354 397 1338 420 1313 Z M 408 88 C 432 88 455 92 479 101 C 503 110 524 122 543 137 C 561 151 576 168 588 188 C 600 208 606 228 606 250 L 606 469 C 491 469 402 449 339 411 C 275 373 244 322 244 258 C 244 202 259 159 291 131 C 323 102 362 88 408 88 Z M 911 131 L 954 90 C 935 58 910 33 880 15 C 850 -2 820 -12 790 -12 C 754 -12 721 -1 691 20 C 660 41 639 71 629 109 C 594 69 553 37 506 15 C 458 -6 409 -18 358 -18 C 319 -18 281 -12 245 -2 C 208 8 176 24 148 46 C 120 68 97 95 80 128 C 63 160 55 198 55 242 C 55 287 66 329 90 367 C 113 405 148 438 194 466 C 240 493 297 514 366 530 C 435 545 515 553 606 553 C 606 637 589 701 557 744 C 525 787 481 809 426 809 C 408 809 392 808 377 806 C 361 804 350 803 342 801 C 342 779 340 758 338 738 C 336 718 331 700 323 684 C 315 668 304 656 290 647 C 275 637 255 633 231 633 C 197 633 171 640 153 655 C 135 670 127 694 127 727 C 127 747 133 768 147 788 C 160 808 179 825 204 841 C 229 857 260 870 297 880 C 334 890 376 895 424 895 C 490 895 547 886 594 869 C 640 852 678 828 706 798 C 734 768 755 731 768 688 C 781 645 788 598 788 547 L 788 184 C 788 160 793 142 805 129 C 816 115 833 109 856 109 C 864 109 873 111 884 116 C 895 121 904 126 911 131 Z" unicode="" />
<glyph horiz-adv-x="942" d="M 612 1372 C 638 1372 660 1362 676 1344 C 692 1326 700 1304 700 1280 C 700 1261 692 1242 678 1224 C 664 1206 642 1188 612 1171 L 293 987 L 244 1022 L 498 1313 C 520 1338 541 1354 559 1361 C 577 1368 594 1372 612 1372 Z M 408 88 C 432 88 455 92 479 101 C 503 110 524 122 543 137 C 561 151 576 168 588 188 C 600 208 606 228 606 250 L 606 469 C 491 469 402 449 339 411 C 275 373 244 322 244 258 C 244 202 259 159 291 131 C 323 102 362 88 408 88 Z M 911 131 L 954 90 C 935 58 910 33 880 15 C 850 -2 820 -12 790 -12 C 754 -12 721 -1 691 20 C 660 41 639 71 629 109 C 594 69 553 37 506 15 C 458 -6 409 -18 358 -18 C 319 -18 281 -12 245 -2 C 208 8 176 24 148 46 C 120 68 97 95 80 128 C 63 160 55 198 55 242 C 55 287 66 329 90 367 C 113 405 148 438 194 466 C 240 493 297 514 366 530 C 435 545 515 553 606 553 C 606 637 589 701 557 744 C 525 787 481 809 426 809 C 408 809 392 808 377 806 C 361 804 350 803 342 801 C 342 779 340 758 338 738 C 336 718 331 700 323 684 C 315 668 304 656 290 647 C 275 637 255 633 231 633 C 197 633 171 640 153 655 C 135 670 127 694 127 727 C 127 747 133 768 147 788 C 160 808 179 825 204 841 C 229 857 260 870 297 880 C 334 890 376 895 424 895 C 490 895 547 886 594 869 C 640 852 678 828 706 798 C 734 768 755 731 768 688 C 781 645 788 598 788 547 L 788 184 C 788 160 793 142 805 129 C 816 115 833 109 856 109 C 864 109 873 111 884 116 C 895 121 904 126 911 131 Z" unicode="" />
<glyph horiz-adv-x="942" d="M 504 1343 L 772 979 L 690 979 L 442 1186 L 195 979 L 113 979 L 381 1343 L 504 1343 Z M 408 88 C 432 88 455 92 479 101 C 503 110 524 122 543 137 C 561 151 576 168 588 188 C 600 208 606 228 606 250 L 606 469 C 491 469 402 449 339 411 C 275 373 244 322 244 258 C 244 202 259 159 291 131 C 323 102 362 88 408 88 Z M 911 131 L 954 90 C 935 58 910 33 880 15 C 850 -2 820 -12 790 -12 C 754 -12 721 -1 691 20 C 660 41 639 71 629 109 C 594 69 553 37 506 15 C 458 -6 409 -18 358 -18 C 319 -18 281 -12 245 -2 C 208 8 176 24 148 46 C 120 68 97 95 80 128 C 63 160 55 198 55 242 C 55 287 66 329 90 367 C 113 405 148 438 194 466 C 240 493 297 514 366 530 C 435 545 515 553 606 553 C 606 637 589 701 557 744 C 525 787 481 809 426 809 C 408 809 392 808 377 806 C 361 804 350 803 342 801 C 342 779 340 758 338 738 C 336 718 331 700 323 684 C 315 668 304 656 290 647 C 275 637 255 633 231 633 C 197 633 171 640 153 655 C 135 670 127 694 127 727 C 127 747 133 768 147 788 C 160 808 179 825 204 841 C 229 857 260 870 297 880 C 334 890 376 895 424 895 C 490 895 547 886 594 869 C 640 852 678 828 706 798 C 734 768 755 731 768 688 C 781 645 788 598 788 547 L 788 184 C 788 160 793 142 805 129 C 816 115 833 109 856 109 C 864 109 873 111 884 116 C 895 121 904 126 911 131 Z" unicode="" />
<glyph horiz-adv-x="942" d="M 715 1280 L 778 1280 C 778 1246 773 1215 763 1186 C 753 1156 739 1131 722 1110 C 704 1088 684 1071 660 1059 C 636 1046 610 1040 582 1040 C 557 1040 535 1043 516 1049 C 496 1055 470 1068 436 1087 C 409 1102 385 1115 365 1125 C 345 1135 324 1141 303 1141 C 274 1141 251 1130 235 1108 C 218 1086 209 1060 207 1032 L 143 1032 C 143 1065 148 1096 158 1126 C 168 1155 181 1180 199 1202 C 216 1223 237 1240 261 1253 C 285 1265 312 1272 340 1272 C 370 1272 395 1268 414 1262 C 432 1255 456 1244 485 1229 C 513 1213 537 1200 558 1188 C 579 1176 599 1171 618 1171 C 646 1171 669 1182 686 1204 C 703 1226 713 1251 715 1280 Z M 408 88 C 432 88 455 92 479 101 C 503 110 524 122 543 137 C 561 151 576 168 588 188 C 600 208 606 228 606 250 L 606 469 C 491 469 402 449 339 411 C 275 373 244 322 244 258 C 244 202 259 159 291 131 C 323 102 362 88 408 88 Z M 911 131 L 954 90 C 935 58 910 33 880 15 C 850 -2 820 -12 790 -12 C 754 -12 721 -1 691 20 C 660 41 639 71 629 109 C 594 69 553 37 506 15 C 458 -6 409 -18 358 -18 C 319 -18 281 -12 245 -2 C 208 8 176 24 148 46 C 120 68 97 95 80 128 C 63 160 55 198 55 242 C 55 287 66 329 90 367 C 113 405 148 438 194 466 C 240 493 297 514 366 530 C 435 545 515 553 606 553 C 606 637 589 701 557 744 C 525 787 481 809 426 809 C 408 809 392 808 377 806 C 361 804 350 803 342 801 C 342 779 340 758 338 738 C 336 718 331 700 323 684 C 315 668 304 656 290 647 C 275 637 255 633 231 633 C 197 633 171 640 153 655 C 135 670 127 694 127 727 C 127 747 133 768 147 788 C 160 808 179 825 204 841 C 229 857 260 870 297 880 C 334 890 376 895 424 895 C 490 895 547 886 594 869 C 640 852 678 828 706 798 C 734 768 755 731 768 688 C 781 645 788 598 788 547 L 788 184 C 788 160 793 142 805 129 C 816 115 833 109 856 109 C 864 109 873 111 884 116 C 895 121 904 126 911 131 Z" unicode="" />
<glyph horiz-adv-x="942" d="M 260 1255 C 290 1255 317 1243 340 1221 C 363 1198 375 1171 375 1141 C 375 1110 363 1083 340 1060 C 317 1037 290 1026 260 1026 C 229 1026 202 1037 179 1060 C 156 1083 145 1110 145 1141 C 145 1171 156 1198 179 1221 C 202 1243 229 1255 260 1255 Z M 647 1255 C 677 1255 704 1243 727 1221 C 750 1198 762 1171 762 1141 C 762 1110 750 1083 727 1060 C 704 1037 677 1026 647 1026 C 616 1026 589 1037 566 1060 C 543 1083 532 1110 532 1141 C 532 1171 543 1198 566 1221 C 589 1243 616 1255 647 1255 Z M 408 88 C 432 88 455 92 479 101 C 503 110 524 122 543 137 C 561 151 576 168 588 188 C 600 208 606 228 606 250 L 606 469 C 491 469 402 449 339 411 C 275 373 244 322 244 258 C 244 202 259 159 291 131 C 323 102 362 88 408 88 Z M 911 131 L 954 90 C 935 58 910 33 880 15 C 850 -2 820 -12 790 -12 C 754 -12 721 -1 691 20 C 660 41 639 71 629 109 C 594 69 553 37 506 15 C 458 -6 409 -18 358 -18 C 319 -18 281 -12 245 -2 C 208 8 176 24 148 46 C 120 68 97 95 80 128 C 63 160 55 198 55 242 C 55 287 66 329 90 367 C 113 405 148 438 194 466 C 240 493 297 514 366 530 C 435 545 515 553 606 553 C 606 637 589 701 557 744 C 525 787 481 809 426 809 C 408 809 392 808 377 806 C 361 804 350 803 342 801 C 342 779 340 758 338 738 C 336 718 331 700 323 684 C 315 668 304 656 290 647 C 275 637 255 633 231 633 C 197 633 171 640 153 655 C 135 670 127 694 127 727 C 127 747 133 768 147 788 C 160 808 179 825 204 841 C 229 857 260 870 297 880 C 334 890 376 895 424 895 C 490 895 547 886 594 869 C 640 852 678 828 706 798 C 734 768 755 731 768 688 C 781 645 788 598 788 547 L 788 184 C 788 160 793 142 805 129 C 816 115 833 109 856 109 C 864 109 873 111 884 116 C 895 121 904 126 911 131 Z" unicode="" />
<glyph horiz-adv-x="942" d="M 459 1436 C 492 1436 523 1430 552 1419 C 580 1407 605 1392 625 1372 C 645 1352 661 1329 673 1301 C 684 1273 690 1244 690 1212 C 690 1180 684 1150 673 1123 C 661 1095 645 1072 625 1052 C 605 1032 580 1017 552 1006 C 523 994 492 989 459 989 C 425 989 394 994 366 1005 C 337 1016 312 1031 292 1051 C 272 1071 256 1094 244 1122 C 232 1149 227 1179 227 1212 C 227 1244 232 1273 244 1301 C 256 1329 272 1352 292 1372 C 312 1392 337 1407 366 1419 C 394 1430 425 1436 459 1436 Z M 459 1055 C 495 1055 523 1068 543 1096 C 563 1123 573 1162 573 1212 C 573 1262 563 1300 543 1328 C 523 1356 495 1370 459 1370 C 422 1370 394 1356 374 1328 C 354 1300 344 1262 344 1212 C 344 1162 354 1123 374 1096 C 394 1068 422 1055 459 1055 Z M 408 88 C 432 88 455 92 479 101 C 503 110 524 122 543 137 C 561 151 576 168 588 188 C 600 208 606 228 606 250 L 606 469 C 491 469 402 449 339 411 C 275 373 244 322 244 258 C 244 202 259 159 291 131 C 323 102 362 88 408 88 Z M 911 131 L 954 90 C 935 58 910 33 880 15 C 850 -2 820 -12 790 -12 C 754 -12 721 -1 691 20 C 660 41 639 71 629 109 C 594 69 553 37 506 15 C 458 -6 409 -18 358 -18 C 319 -18 281 -12 245 -2 C 208 8 176 24 148 46 C 120 68 97 95 80 128 C 63 160 55 198 55 242 C 55 287 66 329 90 367 C 113 405 148 438 194 466 C 240 493 297 514 366 530 C 435 545 515 553 606 553 C 606 637 589 701 557 744 C 525 787 481 809 426 809 C 408 809 392 808 377 806 C 361 804 350 803 342 801 C 342 779 340 758 338 738 C 336 718 331 700 323 684 C 315 668 304 656 290 647 C 275 637 255 633 231 633 C 197 633 171 640 153 655 C 135 670 127 694 127 727 C 127 747 133 768 147 788 C 160 808 179 825 204 841 C 229 857 260 870 297 880 C 334 890 376 895 424 895 C 490 895 547 886 594 869 C 640 852 678 828 706 798 C 734 768 755 731 768 688 C 781 645 788 598 788 547 L 788 184 C 788 160 793 142 805 129 C 816 115 833 109 856 109 C 864 109 873 111 884 116 C 895 121 904 126 911 131 Z" unicode="" />
<glyph horiz-adv-x="1419" d="M 1003 895 C 1069 895 1126 882 1173 857 C 1220 832 1258 799 1288 759 C 1318 719 1340 673 1354 622 C 1368 570 1375 519 1376 467 L 768 467 C 768 414 774 365 785 319 C 796 273 812 233 834 200 C 856 166 884 140 918 121 C 952 101 992 92 1040 92 C 1064 92 1090 96 1116 104 C 1142 112 1167 124 1191 138 C 1215 152 1239 168 1261 186 C 1283 204 1302 224 1319 244 L 1374 190 C 1364 170 1348 148 1326 124 C 1304 100 1277 77 1246 56 C 1214 35 1179 17 1139 3 C 1099 -10 1056 -18 1010 -18 C 931 -18 863 -1 805 30 C 747 62 702 104 668 154 C 645 120 620 92 594 70 C 568 48 541 30 514 17 C 486 4 459 -4 432 -10 C 404 -15 378 -18 354 -18 C 313 -18 274 -12 238 -2 C 202 8 170 24 144 46 C 117 67 96 94 80 126 C 64 158 57 196 57 238 C 57 282 67 323 89 361 C 111 399 144 433 189 461 C 233 489 290 512 359 528 C 427 544 508 553 602 553 C 602 634 586 697 555 742 C 524 786 479 809 420 809 C 403 809 387 808 373 807 C 359 805 348 803 342 801 C 342 737 332 693 312 669 C 292 645 263 633 225 633 C 192 633 168 641 152 659 C 136 676 129 700 129 731 C 129 749 135 767 147 787 C 159 806 177 824 201 840 C 225 856 255 869 291 879 C 327 889 370 895 420 895 C 490 895 549 882 597 856 C 645 830 685 796 717 754 C 757 794 800 828 847 855 C 894 881 946 895 1003 895 Z M 776 561 L 1194 561 C 1191 594 1186 626 1178 656 C 1170 686 1159 712 1143 734 C 1127 756 1107 773 1082 786 C 1057 798 1027 805 991 805 C 935 805 888 782 850 738 C 812 693 787 634 776 561 Z M 405 86 C 427 86 450 90 474 98 C 497 106 518 117 537 131 C 555 145 570 163 582 183 C 594 203 600 225 600 250 L 600 469 C 490 468 403 449 340 412 C 277 374 246 322 246 254 C 246 224 250 199 259 178 C 268 157 280 140 295 126 C 309 112 326 102 346 96 C 365 89 385 86 405 86 Z" unicode="" />
<glyph horiz-adv-x="821" d="M 770 242 L 823 184 C 811 163 796 141 778 119 C 759 97 737 76 711 57 C 685 38 654 22 620 8 C 586 -5 548 -13 506 -16 C 506 -16 505 -20 502 -28 C 498 -36 495 -45 491 -55 C 487 -65 483 -74 480 -82 C 476 -90 475 -94 475 -94 C 534 -94 581 -106 616 -131 C 650 -156 668 -196 668 -250 C 668 -270 663 -291 653 -311 C 643 -331 629 -348 609 -364 C 589 -380 563 -392 532 -402 C 500 -411 464 -416 422 -416 C 380 -416 340 -405 302 -385 C 264 -364 231 -343 205 -322 L 242 -262 C 264 -278 291 -294 321 -310 C 351 -326 382 -334 414 -334 C 456 -334 484 -325 498 -308 C 512 -291 520 -273 520 -254 C 520 -232 511 -213 495 -197 C 479 -180 452 -172 414 -172 C 407 -172 400 -172 394 -172 C 388 -172 381 -173 375 -174 C 375 -174 378 -165 385 -149 C 391 -133 399 -115 407 -95 C 415 -75 423 -57 430 -41 C 436 -25 440 -16 440 -16 C 387 -12 337 0 290 21 C 242 43 201 72 166 110 C 131 148 103 193 83 247 C 63 300 53 360 53 426 C 53 486 63 544 84 600 C 105 656 134 705 172 747 C 210 789 255 822 308 847 C 361 872 419 885 483 885 C 532 885 575 879 613 868 C 650 856 681 841 705 823 C 729 805 748 784 760 762 C 772 740 778 718 778 696 C 778 652 767 622 745 607 C 723 591 700 584 676 584 C 647 584 622 591 600 606 C 578 620 567 644 567 676 C 567 686 569 701 573 719 C 577 737 582 754 588 770 C 580 774 565 780 543 787 C 521 793 493 797 461 797 C 425 797 393 788 366 770 C 338 752 316 728 298 698 C 280 668 267 632 259 591 C 250 549 246 505 246 459 C 246 414 250 370 260 326 C 270 282 285 242 306 208 C 326 173 353 145 385 124 C 417 102 455 92 500 92 C 531 92 559 96 585 105 C 610 113 633 124 655 138 C 677 152 697 168 716 186 C 734 204 752 223 770 242 Z" unicode="" />
<glyph horiz-adv-x="901" d="M 438 1313 L 692 1022 L 643 987 L 324 1171 C 294 1188 271 1206 257 1224 C 242 1242 235 1261 235 1280 C 235 1304 243 1326 259 1344 C 275 1362 297 1372 324 1372 C 340 1372 358 1368 376 1361 C 394 1354 415 1338 438 1313 Z M 479 895 C 549 895 609 882 658 856 C 706 830 745 796 775 755 C 804 714 825 668 838 617 C 851 566 858 516 858 467 L 240 467 C 240 414 245 365 255 319 C 265 273 281 233 303 200 C 325 167 353 141 387 122 C 421 103 461 94 508 94 C 569 94 624 109 674 139 C 724 169 766 205 801 246 L 856 190 C 846 170 830 148 808 124 C 786 100 758 77 726 56 C 694 35 657 17 616 3 C 574 -10 530 -18 483 -18 C 413 -18 352 -5 298 19 C 244 43 199 76 163 117 C 127 158 99 205 81 259 C 62 313 53 368 53 426 C 53 483 62 540 81 596 C 100 652 128 703 164 747 C 200 791 245 826 298 854 C 351 881 411 895 479 895 Z M 244 561 L 674 561 C 671 594 666 625 658 655 C 650 685 638 711 622 733 C 606 755 585 772 560 785 C 535 798 505 805 469 805 C 441 805 414 799 389 787 C 363 775 341 758 321 737 C 301 715 285 690 271 660 C 257 630 248 597 244 561 Z" unicode="" />
<glyph horiz-adv-x="901" d="M 639 1372 C 665 1372 687 1362 703 1344 C 719 1326 727 1304 727 1280 C 727 1261 719 1242 705 1224 C 690 1206 668 1188 639 1171 L 319 987 L 270 1022 L 524 1313 C 546 1338 567 1354 585 1361 C 603 1368 621 1372 639 1372 Z M 479 895 C 549 895 609 882 658 856 C 706 830 745 796 775 755 C 804 714 825 668 838 617 C 851 566 858 516 858 467 L 240 467 C 240 414 245 365 255 319 C 265 273 281 233 303 200 C 325 167 353 141 387 122 C 421 103 461 94 508 94 C 569 94 624 109 674 139 C 724 169 766 205 801 246 L 856 190 C 846 170 830 148 808 124 C 786 100 758 77 726 56 C 694 35 657 17 616 3 C 574 -10 530 -18 483 -18 C 413 -18 352 -5 298 19 C 244 43 199 76 163 117 C 127 158 99 205 81 259 C 62 313 53 368 53 426 C 53 483 62 540 81 596 C 100 652 128 703 164 747 C 200 791 245 826 298 854 C 351 881 411 895 479 895 Z M 244 561 L 674 561 C 671 594 666 625 658 655 C 650 685 638 711 622 733 C 606 755 585 772 560 785 C 535 798 505 805 469 805 C 441 805 414 799 389 787 C 363 775 341 758 321 737 C 301 715 285 690 271 660 C 257 630 248 597 244 561 Z" unicode="" />
<glyph horiz-adv-x="901" d="M 539 1343 L 807 979 L 725 979 L 477 1186 L 229 979 L 147 979 L 416 1343 L 539 1343 Z M 479 895 C 549 895 609 882 658 856 C 706 830 745 796 775 755 C 804 714 825 668 838 617 C 851 566 858 516 858 467 L 240 467 C 240 414 245 365 255 319 C 265 273 281 233 303 200 C 325 167 353 141 387 122 C 421 103 461 94 508 94 C 569 94 624 109 674 139 C 724 169 766 205 801 246 L 856 190 C 846 170 830 148 808 124 C 786 100 758 77 726 56 C 694 35 657 17 616 3 C 574 -10 530 -18 483 -18 C 413 -18 352 -5 298 19 C 244 43 199 76 163 117 C 127 158 99 205 81 259 C 62 313 53 368 53 426 C 53 483 62 540 81 596 C 100 652 128 703 164 747 C 200 791 245 826 298 854 C 351 881 411 895 479 895 Z M 244 561 L 674 561 C 671 594 666 625 658 655 C 650 685 638 711 622 733 C 606 755 585 772 560 785 C 535 798 505 805 469 805 C 441 805 414 799 389 787 C 363 775 341 758 321 737 C 301 715 285 690 271 660 C 257 630 248 597 244 561 Z" unicode="" />
<glyph horiz-adv-x="901" d="M 276 1255 C 306 1255 333 1243 356 1221 C 379 1198 391 1171 391 1141 C 391 1110 379 1083 356 1060 C 333 1037 306 1026 276 1026 C 245 1026 218 1037 196 1060 C 173 1083 162 1110 162 1141 C 162 1171 173 1198 196 1221 C 218 1243 245 1255 276 1255 Z M 674 1255 C 704 1255 731 1243 754 1221 C 776 1198 788 1171 788 1141 C 788 1110 776 1083 754 1060 C 731 1037 704 1026 674 1026 C 643 1026 616 1037 593 1060 C 570 1083 559 1110 559 1141 C 559 1171 570 1198 593 1221 C 616 1243 643 1255 674 1255 Z M 479 895 C 549 895 609 882 658 856 C 706 830 745 796 775 755 C 804 714 825 668 838 617 C 851 566 858 516 858 467 L 240 467 C 240 414 245 365 255 319 C 265 273 281 233 303 200 C 325 167 353 141 387 122 C 421 103 461 94 508 94 C 569 94 624 109 674 139 C 724 169 766 205 801 246 L 856 190 C 846 170 830 148 808 124 C 786 100 758 77 726 56 C 694 35 657 17 616 3 C 574 -10 530 -18 483 -18 C 413 -18 352 -5 298 19 C 244 43 199 76 163 117 C 127 158 99 205 81 259 C 62 313 53 368 53 426 C 53 483 62 540 81 596 C 100 652 128 703 164 747 C 200 791 245 826 298 854 C 351 881 411 895 479 895 Z M 244 561 L 674 561 C 671 594 666 625 658 655 C 650 685 638 711 622 733 C 606 755 585 772 560 785 C 535 798 505 805 469 805 C 441 805 414 799 389 787 C 363 775 341 758 321 737 C 301 715 285 690 271 660 C 257 630 248 597 244 561 Z" unicode="" />
<glyph horiz-adv-x="526" d="M 205 1313 L 459 1022 L 410 987 L 90 1171 C 60 1188 38 1206 24 1224 C 9 1242 2 1261 2 1280 C 2 1304 10 1326 26 1344 C 42 1362 63 1372 90 1372 C 107 1372 125 1368 143 1361 C 161 1354 182 1338 205 1313 Z M 453 45 L 453 0 L 84 0 L 84 45 C 84 53 87 58 93 60 C 99 62 112 67 131 76 C 142 81 151 85 157 89 C 163 92 168 96 171 100 C 174 104 176 110 177 117 C 177 124 178 134 178 147 L 178 702 C 178 726 175 744 169 756 C 163 768 149 778 127 786 C 108 792 95 797 89 801 C 83 805 80 810 80 817 L 80 862 L 360 879 L 360 147 C 360 134 360 124 361 117 C 361 110 363 104 367 100 C 370 96 375 92 382 89 C 388 85 398 81 410 76 C 426 67 437 61 443 59 C 449 56 453 51 453 45 Z" unicode="" />
<glyph horiz-adv-x="526" d="M 414 1372 C 440 1372 462 1362 478 1344 C 494 1326 502 1304 502 1280 C 502 1261 494 1242 480 1224 C 465 1206 443 1188 414 1171 L 94 987 L 45 1022 L 299 1313 C 321 1338 342 1354 360 1361 C 378 1368 396 1372 414 1372 Z M 453 45 L 453 0 L 84 0 L 84 45 C 84 53 87 58 93 60 C 99 62 112 67 131 76 C 142 81 151 85 157 89 C 163 92 168 96 171 100 C 174 104 176 110 177 117 C 177 124 178 134 178 147 L 178 702 C 178 726 175 744 169 756 C 163 768 149 778 127 786 C 108 792 95 797 89 801 C 83 805 80 810 80 817 L 80 862 L 360 879 L 360 147 C 360 134 360 124 361 117 C 361 110 363 104 367 100 C 370 96 375 92 382 89 C 388 85 398 81 410 76 C 426 67 437 61 443 59 C 449 56 453 51 453 45 Z" unicode="" />
<glyph horiz-adv-x="534" d="M 307 1333 L 543 979 L 461 979 L 246 1176 L 31 979 L -51 979 L 184 1333 L 307 1333 Z M 457 45 L 457 0 L 88 0 L 88 45 C 88 53 91 58 97 60 C 103 62 116 67 135 76 C 146 81 155 85 161 89 C 167 92 172 96 175 100 C 178 104 180 110 181 117 C 181 124 182 134 182 147 L 182 702 C 182 726 179 744 173 756 C 167 768 153 778 131 786 C 112 792 99 797 93 801 C 87 805 84 810 84 817 L 84 862 L 364 879 L 364 147 C 364 134 364 124 365 117 C 365 110 367 104 371 100 C 374 96 379 92 386 89 C 392 85 402 81 414 76 C 430 67 441 61 447 59 C 453 56 457 51 457 45 Z" unicode="" />
<glyph horiz-adv-x="534" d="M 70 1255 C 100 1255 127 1243 150 1221 C 172 1198 184 1171 184 1141 C 184 1110 172 1083 150 1060 C 127 1037 100 1026 70 1026 C 39 1026 12 1037 -10 1060 C -33 1083 -45 1110 -45 1141 C -45 1171 -33 1198 -10 1221 C 12 1243 39 1255 70 1255 Z M 424 1255 C 454 1255 481 1243 504 1221 C 527 1198 539 1171 539 1141 C 539 1110 527 1083 504 1060 C 481 1037 454 1026 424 1026 C 393 1026 366 1037 343 1060 C 320 1083 309 1110 309 1141 C 309 1171 320 1198 343 1221 C 366 1243 393 1255 424 1255 Z M 457 45 L 457 0 L 88 0 L 88 45 C 88 53 91 58 97 60 C 103 62 116 67 135 76 C 146 81 155 85 161 89 C 167 92 172 96 175 100 C 178 104 180 110 181 117 C 181 124 182 134 182 147 L 182 702 C 182 726 179 744 173 756 C 167 768 153 778 131 786 C 112 792 99 797 93 801 C 87 805 84 810 84 817 L 84 862 L 364 879 L 364 147 C 364 134 364 124 365 117 C 365 110 367 104 371 100 C 374 96 379 92 386 89 C 392 85 402 81 414 76 C 430 67 441 61 447 59 C 453 56 457 51 457 45 Z" unicode="" />
<glyph horiz-adv-x="1098" d="M 815 1280 L 879 1280 C 879 1246 874 1215 864 1186 C 854 1156 840 1131 823 1110 C 805 1088 784 1071 760 1059 C 736 1046 710 1040 682 1040 C 657 1040 635 1043 616 1049 C 596 1055 570 1068 537 1087 C 510 1102 486 1115 466 1125 C 445 1135 424 1141 403 1141 C 374 1141 351 1130 335 1108 C 318 1086 309 1060 307 1032 L 244 1032 C 244 1065 249 1096 259 1126 C 269 1155 282 1180 300 1202 C 317 1223 338 1240 362 1253 C 386 1265 412 1272 440 1272 C 470 1272 495 1268 514 1262 C 533 1255 557 1244 586 1229 C 613 1213 637 1200 658 1188 C 679 1176 699 1171 719 1171 C 747 1171 770 1182 787 1204 C 803 1226 813 1251 815 1280 Z M 1038 45 L 1038 0 L 666 0 L 666 45 C 666 53 669 58 676 60 C 682 62 694 67 711 76 C 723 81 732 85 739 89 C 745 92 750 96 753 100 C 756 104 758 110 759 117 C 759 124 760 134 760 147 L 760 590 C 760 652 742 697 707 727 C 671 757 628 772 577 772 C 535 772 494 761 453 741 C 412 721 380 694 358 662 L 358 147 C 358 134 358 124 359 117 C 359 110 361 104 365 100 C 368 96 373 92 380 89 C 386 85 396 81 408 76 C 424 67 435 61 441 59 C 447 56 451 51 451 45 L 451 0 L 82 0 L 82 45 C 82 53 85 58 91 60 C 97 62 110 67 129 76 C 140 81 149 85 155 89 C 161 92 166 96 169 100 C 172 104 174 110 175 117 C 175 124 176 134 176 147 L 176 702 C 176 726 173 744 167 756 C 161 768 147 778 125 786 C 106 792 93 797 87 801 C 81 805 78 810 78 817 L 78 862 L 346 879 L 346 760 C 362 776 380 791 401 806 C 421 821 444 834 469 846 C 494 858 521 867 550 874 C 579 881 610 885 643 885 C 737 885 811 858 864 804 C 917 750 944 679 944 590 L 944 147 C 944 134 944 124 945 117 C 945 110 947 104 951 100 C 954 96 959 92 965 89 C 971 85 981 81 993 76 C 1009 67 1021 61 1028 59 C 1034 56 1038 51 1038 45 Z" unicode="" />
<glyph horiz-adv-x="981" d="M 475 1313 L 729 1022 L 680 987 L 360 1171 C 330 1188 308 1206 294 1224 C 279 1242 272 1261 272 1280 C 272 1304 280 1326 296 1344 C 312 1362 333 1372 360 1372 C 377 1372 395 1368 413 1361 C 431 1354 452 1338 475 1313 Z M 489 895 C 553 895 611 883 665 860 C 719 837 765 805 803 765 C 841 725 871 677 893 621 C 915 565 926 504 926 438 C 926 372 915 311 893 255 C 871 199 841 151 803 111 C 765 71 719 39 665 16 C 611 -6 553 -18 489 -18 C 425 -18 366 -6 312 15 C 258 37 213 69 175 109 C 137 149 107 198 85 254 C 63 310 53 371 53 438 C 53 504 63 565 85 621 C 107 677 137 725 175 765 C 213 805 258 837 312 860 C 366 883 425 895 489 895 Z M 489 76 C 567 76 627 107 669 171 C 710 235 731 324 731 438 C 731 551 710 640 669 704 C 627 768 567 801 489 801 C 411 801 352 768 311 704 C 270 640 250 551 250 438 C 250 324 270 235 311 171 C 352 107 411 76 489 76 Z" unicode="" />
<glyph horiz-adv-x="981" d="M 664 1372 C 690 1372 712 1362 728 1344 C 744 1326 752 1304 752 1280 C 752 1261 744 1242 730 1224 C 715 1206 693 1188 664 1171 L 344 987 L 295 1022 L 549 1313 C 571 1338 592 1354 610 1361 C 628 1368 646 1372 664 1372 Z M 489 895 C 553 895 611 883 665 860 C 719 837 765 805 803 765 C 841 725 871 677 893 621 C 915 565 926 504 926 438 C 926 372 915 311 893 255 C 871 199 841 151 803 111 C 765 71 719 39 665 16 C 611 -6 553 -18 489 -18 C 425 -18 366 -6 312 15 C 258 37 213 69 175 109 C 137 149 107 198 85 254 C 63 310 53 371 53 438 C 53 504 63 565 85 621 C 107 677 137 725 175 765 C 213 805 258 837 312 860 C 366 883 425 895 489 895 Z M 489 76 C 567 76 627 107 669 171 C 710 235 731 324 731 438 C 731 551 710 640 669 704 C 627 768 567 801 489 801 C 411 801 352 768 311 704 C 270 640 250 551 250 438 C 250 324 270 235 311 171 C 352 107 411 76 489 76 Z" unicode="" />
<glyph horiz-adv-x="981" d="M 553 1343 L 821 979 L 739 979 L 491 1186 L 244 979 L 162 979 L 430 1343 L 553 1343 Z M 489 895 C 553 895 611 883 665 860 C 719 837 765 805 803 765 C 841 725 871 677 893 621 C 915 565 926 504 926 438 C 926 372 915 311 893 255 C 871 199 841 151 803 111 C 765 71 719 39 665 16 C 611 -6 553 -18 489 -18 C 425 -18 366 -6 312 15 C 258 37 213 69 175 109 C 137 149 107 198 85 254 C 63 310 53 371 53 438 C 53 504 63 565 85 621 C 107 677 137 725 175 765 C 213 805 258 837 312 860 C 366 883 425 895 489 895 Z M 489 76 C 567 76 627 107 669 171 C 710 235 731 324 731 438 C 731 551 710 640 669 704 C 627 768 567 801 489 801 C 411 801 352 768 311 704 C 270 640 250 551 250 438 C 250 324 270 235 311 171 C 352 107 411 76 489 76 Z" unicode="" />
<glyph horiz-adv-x="981" d="M 745 1280 L 809 1280 C 809 1246 804 1215 794 1186 C 784 1156 770 1131 753 1110 C 735 1088 714 1071 690 1059 C 666 1046 640 1040 612 1040 C 587 1040 565 1043 546 1049 C 526 1055 500 1068 467 1087 C 440 1102 416 1115 396 1125 C 376 1135 355 1141 334 1141 C 305 1141 282 1130 266 1108 C 249 1086 240 1060 238 1032 L 174 1032 C 174 1065 179 1096 189 1126 C 199 1155 212 1180 230 1202 C 247 1223 268 1240 292 1253 C 316 1265 343 1272 371 1272 C 401 1272 426 1268 445 1262 C 463 1255 487 1244 516 1229 C 543 1213 567 1200 588 1188 C 609 1176 629 1171 649 1171 C 677 1171 700 1182 717 1204 C 733 1226 743 1251 745 1280 Z M 489 895 C 553 895 611 883 665 860 C 719 837 765 805 803 765 C 841 725 871 677 893 621 C 915 565 926 504 926 438 C 926 372 915 311 893 255 C 871 199 841 151 803 111 C 765 71 719 39 665 16 C 611 -6 553 -18 489 -18 C 425 -18 366 -6 312 15 C 258 37 213 69 175 109 C 137 149 107 198 85 254 C 63 310 53 371 53 438 C 53 504 63 565 85 621 C 107 677 137 725 175 765 C 213 805 258 837 312 860 C 366 883 425 895 489 895 Z M 489 76 C 567 76 627 107 669 171 C 710 235 731 324 731 438 C 731 551 710 640 669 704 C 627 768 567 801 489 801 C 411 801 352 768 311 704 C 270 640 250 551 250 438 C 250 324 270 235 311 171 C 352 107 411 76 489 76 Z" unicode="" />
<glyph horiz-adv-x="981" d="M 293 1255 C 323 1255 350 1243 373 1221 C 396 1198 408 1171 408 1141 C 408 1110 396 1083 373 1060 C 350 1037 323 1026 293 1026 C 262 1026 235 1037 212 1060 C 189 1083 178 1110 178 1141 C 178 1171 189 1198 212 1221 C 235 1243 262 1255 293 1255 Z M 690 1255 C 720 1255 747 1243 770 1221 C 793 1198 805 1171 805 1141 C 805 1110 793 1083 770 1060 C 747 1037 720 1026 690 1026 C 659 1026 632 1037 609 1060 C 586 1083 575 1110 575 1141 C 575 1171 586 1198 609 1221 C 632 1243 659 1255 690 1255 Z M 489 895 C 553 895 611 883 665 860 C 719 837 765 805 803 765 C 841 725 871 677 893 621 C 915 565 926 504 926 438 C 926 372 915 311 893 255 C 871 199 841 151 803 111 C 765 71 719 39 665 16 C 611 -6 553 -18 489 -18 C 425 -18 366 -6 312 15 C 258 37 213 69 175 109 C 137 149 107 198 85 254 C 63 310 53 371 53 438 C 53 504 63 565 85 621 C 107 677 137 725 175 765 C 213 805 258 837 312 860 C 366 883 425 895 489 895 Z M 489 76 C 567 76 627 107 669 171 C 710 235 731 324 731 438 C 731 551 710 640 669 704 C 627 768 567 801 489 801 C 411 801 352 768 311 704 C 270 640 250 551 250 438 C 250 324 270 235 311 171 C 352 107 411 76 489 76 Z" unicode="" />
<glyph horiz-adv-x="1540" d="M 770 1104 C 806 1104 837 1091 863 1066 C 888 1040 901 1009 901 973 C 901 936 888 905 863 880 C 837 854 806 842 770 842 C 733 842 702 854 677 880 C 651 905 639 936 639 973 C 639 1009 651 1040 677 1066 C 702 1091 733 1104 770 1104 Z M 1305 664 L 1305 537 L 235 537 L 235 664 L 1305 664 Z M 770 358 C 806 358 837 345 863 320 C 888 294 901 263 901 227 C 901 191 888 160 863 134 C 837 108 806 96 770 96 C 733 96 702 108 677 134 C 651 160 639 191 639 227 C 639 263 651 294 677 320 C 702 345 733 358 770 358 Z" unicode="" />
<glyph horiz-adv-x="1083" d="M 491 1313 L 745 1022 L 696 987 L 377 1171 C 347 1188 324 1206 310 1224 C 296 1242 289 1261 289 1280 C 289 1304 297 1326 313 1344 C 329 1362 350 1372 377 1372 C 394 1372 412 1368 430 1361 C 448 1354 468 1338 491 1313 Z M 1016 59 L 1016 14 L 758 -2 L 758 111 C 725 78 684 48 636 22 C 587 -4 527 -18 455 -18 C 407 -18 365 -9 328 6 C 291 22 260 45 234 73 C 208 101 189 134 176 173 C 162 211 156 253 156 297 L 156 707 C 156 731 152 749 146 759 C 140 769 124 778 100 786 C 84 792 72 797 66 801 C 60 805 57 810 57 817 L 57 862 L 340 879 L 340 276 C 340 245 345 218 355 195 C 365 172 378 153 395 138 C 411 123 431 112 453 105 C 475 97 499 94 524 94 C 566 94 606 104 646 126 C 685 147 716 174 739 207 L 739 707 C 739 731 735 749 729 759 C 722 769 707 778 684 786 C 666 792 654 797 647 801 C 640 805 637 810 637 817 L 637 862 L 920 879 L 920 162 C 920 137 922 121 928 114 C 933 107 948 98 973 88 C 989 81 1001 76 1007 74 C 1013 71 1016 66 1016 59 Z" unicode="" />
<glyph horiz-adv-x="1083" d="M 711 1372 C 737 1372 759 1362 775 1344 C 791 1326 799 1304 799 1280 C 799 1261 791 1242 777 1224 C 762 1206 740 1188 711 1171 L 391 987 L 342 1022 L 596 1313 C 618 1338 639 1354 657 1361 C 675 1368 693 1372 711 1372 Z M 1016 59 L 1016 14 L 758 -2 L 758 111 C 725 78 684 48 636 22 C 587 -4 527 -18 455 -18 C 407 -18 365 -9 328 6 C 291 22 260 45 234 73 C 208 101 189 134 176 173 C 162 211 156 253 156 297 L 156 707 C 156 731 152 749 146 759 C 140 769 124 778 100 786 C 84 792 72 797 66 801 C 60 805 57 810 57 817 L 57 862 L 340 879 L 340 276 C 340 245 345 218 355 195 C 365 172 378 153 395 138 C 411 123 431 112 453 105 C 475 97 499 94 524 94 C 566 94 606 104 646 126 C 685 147 716 174 739 207 L 739 707 C 739 731 735 749 729 759 C 722 769 707 778 684 786 C 666 792 654 797 647 801 C 640 805 637 810 637 817 L 637 862 L 920 879 L 920 162 C 920 137 922 121 928 114 C 933 107 948 98 973 88 C 989 81 1001 76 1007 74 C 1013 71 1016 66 1016 59 Z" unicode="" />
<glyph horiz-adv-x="1083" d="M 590 1350 L 858 985 L 776 985 L 528 1192 L 281 985 L 199 985 L 467 1350 L 590 1350 Z M 1016 59 L 1016 14 L 758 -2 L 758 111 C 725 78 684 48 636 22 C 587 -4 527 -18 455 -18 C 407 -18 365 -9 328 6 C 291 22 260 45 234 73 C 208 101 189 134 176 173 C 162 211 156 253 156 297 L 156 707 C 156 731 152 749 146 759 C 140 769 124 778 100 786 C 84 792 72 797 66 801 C 60 805 57 810 57 817 L 57 862 L 340 879 L 340 276 C 340 245 345 218 355 195 C 365 172 378 153 395 138 C 411 123 431 112 453 105 C 475 97 499 94 524 94 C 566 94 606 104 646 126 C 685 147 716 174 739 207 L 739 707 C 739 731 735 749 729 759 C 722 769 707 778 684 786 C 666 792 654 797 647 801 C 640 805 637 810 637 817 L 637 862 L 920 879 L 920 162 C 920 137 922 121 928 114 C 933 107 948 98 973 88 C 989 81 1001 76 1007 74 C 1013 71 1016 66 1016 59 Z" unicode="" />
<glyph horiz-adv-x="1083" d="M 324 1262 C 354 1262 381 1250 404 1227 C 426 1204 438 1177 438 1147 C 438 1116 426 1089 404 1066 C 381 1043 354 1032 324 1032 C 293 1032 266 1043 243 1066 C 220 1089 209 1116 209 1147 C 209 1177 220 1204 243 1227 C 266 1250 293 1262 324 1262 Z M 721 1262 C 751 1262 778 1250 801 1227 C 824 1204 836 1177 836 1147 C 836 1116 824 1089 801 1066 C 778 1043 751 1032 721 1032 C 690 1032 663 1043 640 1066 C 617 1089 606 1116 606 1147 C 606 1177 617 1204 640 1227 C 663 1250 690 1262 721 1262 Z M 1016 59 L 1016 14 L 758 -2 L 758 111 C 725 78 684 48 636 22 C 587 -4 527 -18 455 -18 C 407 -18 365 -9 328 6 C 291 22 260 45 234 73 C 208 101 189 134 176 173 C 162 211 156 253 156 297 L 156 707 C 156 731 152 749 146 759 C 140 769 124 778 100 786 C 84 792 72 797 66 801 C 60 805 57 810 57 817 L 57 862 L 340 879 L 340 276 C 340 245 345 218 355 195 C 365 172 378 153 395 138 C 411 123 431 112 453 105 C 475 97 499 94 524 94 C 566 94 606 104 646 126 C 685 147 716 174 739 207 L 739 707 C 739 731 735 749 729 759 C 722 769 707 778 684 786 C 666 792 654 797 647 801 C 640 805 637 810 637 817 L 637 862 L 920 879 L 920 162 C 920 137 922 121 928 114 C 933 107 948 98 973 88 C 989 81 1001 76 1007 74 C 1013 71 1016 66 1016 59 Z" unicode="" />
<glyph horiz-adv-x="932" d="M 676 1372 C 702 1372 724 1362 740 1344 C 756 1326 764 1304 764 1280 C 764 1261 756 1242 742 1224 C 727 1206 705 1188 676 1171 L 356 987 L 307 1022 L 561 1313 C 583 1338 604 1354 622 1361 C 640 1368 658 1372 676 1372 Z M 944 860 L 944 815 C 944 808 940 802 932 798 C 924 794 915 789 905 784 C 879 772 860 756 847 737 C 833 717 821 693 809 664 L 502 -57 C 472 -125 443 -182 414 -227 C 385 -271 357 -307 329 -333 C 301 -359 275 -377 250 -387 C 224 -397 201 -403 180 -403 C 128 -403 89 -391 64 -369 C 39 -347 27 -319 27 -285 C 27 -249 37 -221 59 -202 C 80 -183 106 -174 137 -174 C 167 -174 191 -184 207 -205 C 223 -225 231 -248 231 -274 C 250 -271 269 -260 289 -240 C 308 -220 326 -196 343 -169 C 359 -141 374 -112 388 -82 C 402 -52 413 -25 422 -2 L 100 729 C 96 738 91 747 85 756 C 79 764 65 774 45 784 C 28 792 16 798 10 801 C 3 803 0 808 0 815 L 0 860 L 391 860 L 391 815 C 391 808 387 803 381 800 C 374 797 362 792 346 786 C 324 779 311 771 307 762 C 303 752 301 743 301 735 C 301 731 303 723 308 712 C 312 701 316 692 319 684 L 512 205 L 702 678 C 706 688 710 698 712 707 C 714 716 715 724 715 731 C 715 740 710 749 701 758 C 691 766 675 775 653 784 C 641 789 631 794 624 800 C 617 805 614 811 614 817 L 614 860 L 944 860 Z" unicode="" />
<glyph horiz-adv-x="932" d="M 297 1255 C 327 1255 354 1243 377 1221 C 400 1198 412 1171 412 1141 C 412 1110 400 1083 377 1060 C 354 1037 327 1026 297 1026 C 266 1026 239 1037 216 1060 C 193 1083 182 1110 182 1141 C 182 1171 193 1198 216 1221 C 239 1243 266 1255 297 1255 Z M 694 1255 C 724 1255 751 1243 774 1221 C 797 1198 809 1171 809 1141 C 809 1110 797 1083 774 1060 C 751 1037 724 1026 694 1026 C 663 1026 636 1037 614 1060 C 591 1083 580 1110 580 1141 C 580 1171 591 1198 614 1221 C 636 1243 663 1255 694 1255 Z M 944 860 L 944 815 C 944 808 940 802 932 798 C 924 794 915 789 905 784 C 879 772 860 756 847 737 C 833 717 821 693 809 664 L 502 -57 C 472 -125 443 -182 414 -227 C 385 -271 357 -307 329 -333 C 301 -359 275 -377 250 -387 C 224 -397 201 -403 180 -403 C 128 -403 89 -391 64 -369 C 39 -347 27 -319 27 -285 C 27 -249 37 -221 59 -202 C 80 -183 106 -174 137 -174 C 167 -174 191 -184 207 -205 C 223 -225 231 -248 231 -274 C 250 -271 269 -260 289 -240 C 308 -220 326 -196 343 -169 C 359 -141 374 -112 388 -82 C 402 -52 413 -25 422 -2 L 100 729 C 96 738 91 747 85 756 C 79 764 65 774 45 784 C 28 792 16 798 10 801 C 3 803 0 808 0 815 L 0 860 L 391 860 L 391 815 C 391 808 387 803 381 800 C 374 797 362 792 346 786 C 324 779 311 771 307 762 C 303 752 301 743 301 735 C 301 731 303 723 308 712 C 312 701 316 692 319 684 L 512 205 L 702 678 C 706 688 710 698 712 707 C 714 716 715 724 715 731 C 715 740 710 749 701 758 C 691 766 675 775 653 784 C 641 789 631 794 624 800 C 617 805 614 811 614 817 L 614 860 L 944 860 Z" unicode="" />
<glyph horiz-adv-x="526" d="M 453 45 L 453 0 L 84 0 L 84 45 C 84 53 87 58 93 60 C 99 62 112 67 131 76 C 142 81 151 85 157 89 C 163 92 168 96 171 100 C 174 104 176 110 177 117 C 177 124 178 134 178 147 L 178 702 C 178 726 175 744 169 756 C 163 768 149 778 127 786 C 108 792 95 797 89 801 C 83 805 80 810 80 817 L 80 862 L 360 879 L 360 147 C 360 134 360 124 361 117 C 361 110 363 104 367 100 C 370 96 375 92 382 89 C 388 85 398 81 410 76 C 426 67 437 61 443 59 C 449 56 453 51 453 45 Z" unicode="" />
<glyph horiz-adv-x="2005" d="M 885 96 C 927 96 958 103 980 117 C 1001 131 1012 160 1012 205 L 1012 1292 C 1012 1319 1008 1340 1000 1355 C 992 1370 982 1381 969 1387 C 955 1393 939 1397 921 1398 C 902 1398 882 1399 860 1399 C 772 1399 694 1385 625 1359 C 555 1332 497 1292 450 1239 C 403 1185 367 1118 342 1036 C 317 954 305 858 305 748 C 305 640 318 545 344 463 C 370 381 408 313 458 259 C 507 205 568 164 640 137 C 712 109 794 96 885 96 Z M 1954 336 L 1954 0 L 870 0 C 746 0 635 18 536 54 C 437 90 354 141 286 207 C 218 272 166 351 130 443 C 94 535 76 637 76 748 C 76 858 94 960 131 1052 C 167 1144 218 1223 284 1289 C 350 1354 429 1405 521 1441 C 613 1477 713 1495 823 1495 L 1667 1495 C 1679 1495 1695 1495 1713 1497 C 1731 1498 1749 1499 1767 1501 C 1785 1503 1803 1505 1819 1507 C 1835 1509 1848 1510 1857 1511 L 1857 1208 L 1810 1208 C 1795 1208 1783 1210 1775 1216 C 1767 1222 1761 1230 1757 1241 C 1745 1272 1734 1298 1725 1318 C 1715 1338 1704 1354 1690 1366 C 1676 1377 1659 1385 1637 1389 C 1615 1393 1586 1395 1550 1395 L 1216 1395 L 1216 817 L 1407 817 C 1425 817 1441 818 1453 822 C 1465 826 1476 832 1484 840 C 1492 848 1500 858 1507 871 C 1514 883 1522 899 1530 918 C 1536 930 1543 939 1549 946 C 1555 952 1567 956 1585 956 L 1630 956 L 1630 584 L 1579 584 C 1563 584 1552 588 1544 597 C 1536 606 1530 616 1524 627 C 1507 662 1492 685 1479 697 C 1465 709 1443 715 1411 715 L 1216 715 L 1216 100 L 1649 100 C 1677 100 1702 103 1722 110 C 1742 116 1759 127 1774 143 C 1789 158 1803 178 1816 203 C 1829 228 1843 259 1857 295 C 1861 309 1866 320 1872 326 C 1877 332 1886 336 1898 336 L 1954 336 Z" unicode="" />
<glyph horiz-adv-x="1534" d="M 1116 895 C 1182 895 1238 883 1286 859 C 1333 835 1371 804 1401 765 C 1431 725 1453 680 1467 628 C 1481 576 1488 522 1489 467 L 874 467 C 874 417 879 370 890 324 C 901 278 918 238 941 204 C 963 170 992 142 1027 122 C 1062 102 1103 92 1151 92 C 1180 92 1208 96 1235 104 C 1262 112 1287 124 1311 138 C 1334 152 1356 168 1376 186 C 1396 204 1415 224 1432 244 L 1487 190 C 1477 170 1461 148 1441 124 C 1420 100 1394 77 1364 56 C 1334 35 1298 17 1258 3 C 1217 -10 1172 -18 1122 -18 C 1054 -18 993 -3 941 27 C 889 57 843 96 803 145 C 761 96 712 57 658 27 C 604 -3 545 -18 481 -18 C 417 -18 359 -6 307 16 C 254 38 209 70 172 110 C 134 150 105 199 84 255 C 63 311 53 372 53 438 C 53 504 63 565 84 621 C 105 677 134 725 172 765 C 209 805 254 837 307 860 C 359 883 417 895 481 895 C 546 895 606 879 661 849 C 715 819 763 777 803 725 C 841 775 887 815 939 847 C 991 879 1050 895 1116 895 Z M 883 561 L 1307 561 C 1304 594 1298 626 1290 656 C 1282 686 1270 712 1254 734 C 1238 756 1218 773 1193 786 C 1168 798 1138 805 1102 805 C 1046 805 998 783 958 739 C 918 695 893 635 883 561 Z M 481 72 C 520 72 554 80 584 97 C 613 114 637 138 657 170 C 676 201 690 239 700 285 C 710 330 715 380 715 436 C 715 491 710 541 700 587 C 690 632 676 671 657 703 C 637 735 613 759 584 777 C 554 794 520 803 481 803 C 442 803 408 794 379 777 C 350 760 326 736 307 704 C 288 672 274 634 264 589 C 254 544 250 494 250 438 C 250 382 254 332 264 287 C 274 241 288 203 307 171 C 326 139 350 115 379 98 C 408 80 442 72 481 72 Z" unicode="" />
<glyph horiz-adv-x="1274" d="M 467 1860 C 497 1860 524 1848 547 1825 C 570 1802 582 1775 582 1745 C 582 1714 570 1687 547 1664 C 524 1641 497 1630 467 1630 C 436 1630 409 1641 386 1664 C 363 1687 352 1714 352 1745 C 352 1775 363 1802 386 1825 C 409 1848 436 1860 467 1860 Z M 905 1860 C 935 1860 962 1848 985 1825 C 1008 1802 1020 1775 1020 1745 C 1020 1714 1008 1687 985 1664 C 962 1641 935 1630 905 1630 C 874 1630 847 1641 824 1664 C 801 1687 790 1714 790 1745 C 790 1775 801 1802 824 1825 C 847 1848 874 1860 905 1860 Z M 1284 1495 L 1284 1454 C 1284 1444 1281 1436 1275 1430 C 1269 1424 1258 1417 1243 1409 C 1229 1401 1217 1394 1207 1388 C 1197 1382 1188 1376 1180 1369 C 1171 1361 1162 1352 1153 1340 C 1144 1328 1133 1311 1120 1290 L 747 682 L 747 166 C 747 146 751 132 759 123 C 767 113 784 103 809 92 C 831 83 846 77 853 73 C 860 69 864 61 864 51 L 864 0 L 420 0 L 420 51 C 420 61 423 68 430 72 C 437 75 452 82 475 92 C 501 103 519 112 528 120 C 536 127 541 142 541 166 L 541 678 L 135 1317 C 123 1337 110 1354 97 1367 C 84 1380 65 1392 41 1403 C 18 1411 3 1418 -2 1422 C -8 1426 -12 1433 -12 1444 L -12 1495 L 448 1495 L 448 1462 C 448 1451 445 1443 441 1439 C 437 1434 424 1426 403 1415 C 387 1407 374 1399 364 1393 C 354 1387 350 1379 350 1370 C 350 1367 351 1363 354 1357 C 356 1351 359 1344 363 1337 C 366 1329 369 1322 373 1315 C 377 1307 380 1302 383 1298 L 692 801 L 989 1296 C 997 1310 1005 1325 1012 1340 C 1018 1355 1022 1366 1022 1372 C 1022 1383 1016 1391 1005 1397 C 994 1403 981 1409 967 1415 C 945 1423 930 1431 922 1437 C 913 1443 909 1452 909 1462 L 909 1495 L 1284 1495 Z" unicode="" />
<glyph horiz-adv-x="934" d="M 784 1421 C 812 1421 835 1417 853 1411 C 871 1404 886 1395 897 1385 C 907 1374 915 1362 919 1349 C 923 1335 926 1322 926 1309 C 926 1279 916 1254 897 1234 C 877 1214 851 1204 817 1204 C 807 1204 796 1205 784 1209 C 772 1213 762 1219 752 1229 C 742 1238 734 1251 728 1268 C 721 1284 717 1306 717 1333 C 702 1327 687 1319 671 1309 C 655 1299 639 1284 624 1264 C 608 1244 593 1216 579 1182 C 564 1148 550 1103 537 1049 L 469 778 L 702 778 L 680 684 L 451 684 L 231 -281 L 47 -281 L 268 684 L 80 686 L 100 778 L 238 778 C 256 778 271 783 283 794 C 295 804 302 819 305 838 C 322 916 345 990 375 1061 C 405 1131 440 1193 480 1246 C 520 1299 566 1341 617 1373 C 668 1405 724 1421 784 1421 Z" unicode="" />
<glyph horiz-adv-x="823" d="M 473 1343 L 741 979 L 659 979 L 412 1186 L 164 979 L 82 979 L 350 1343 L 473 1343 Z" unicode="" />
<glyph horiz-adv-x="823" d="M 659 1343 L 741 1343 L 473 979 L 350 979 L 82 1343 L 164 1343 L 412 1137 L 659 1343 Z" unicode="" />
<glyph horiz-adv-x="823" d="M 727 1217 L 727 1090 L 96 1090 L 96 1217 L 727 1217 Z" unicode="" />
<glyph horiz-adv-x="823" d="M 641 1352 L 715 1352 C 697 1232 666 1144 622 1086 C 577 1028 507 999 412 999 C 316 999 245 1028 200 1086 C 155 1144 124 1233 108 1352 L 182 1352 C 192 1320 202 1291 213 1265 C 223 1239 237 1216 253 1198 C 269 1180 289 1166 315 1156 C 340 1146 372 1141 412 1141 C 450 1141 482 1145 507 1155 C 531 1165 552 1179 568 1197 C 584 1215 598 1237 609 1263 C 619 1289 630 1318 641 1352 Z" unicode="" />
<glyph horiz-adv-x="823" d="M 410 1290 C 443 1290 471 1278 494 1254 C 516 1230 528 1201 528 1169 C 528 1137 516 1110 494 1086 C 471 1062 443 1051 410 1051 C 377 1051 349 1062 326 1086 C 302 1110 291 1137 291 1169 C 291 1201 302 1230 326 1254 C 349 1278 377 1290 410 1290 Z" unicode="" />
<glyph horiz-adv-x="823" d="M 412 1436 C 445 1436 476 1430 505 1419 C 533 1407 558 1392 578 1372 C 598 1352 614 1329 626 1301 C 637 1273 643 1244 643 1212 C 643 1180 637 1150 626 1123 C 614 1095 598 1072 578 1052 C 558 1032 533 1017 505 1006 C 476 994 445 989 412 989 C 378 989 346 994 318 1005 C 290 1016 265 1031 245 1051 C 224 1071 208 1094 197 1122 C 185 1149 180 1179 180 1212 C 180 1244 185 1273 197 1301 C 208 1329 224 1352 245 1372 C 265 1392 290 1407 318 1419 C 346 1430 378 1436 412 1436 Z M 412 1055 C 448 1055 476 1068 496 1096 C 516 1123 526 1162 526 1212 C 526 1262 516 1300 496 1328 C 476 1356 448 1370 412 1370 C 375 1370 347 1356 327 1328 C 307 1300 297 1262 297 1212 C 297 1162 307 1123 327 1096 C 347 1068 375 1055 412 1055 Z" unicode="" />
<glyph horiz-adv-x="823" d="M 666 1280 L 729 1280 C 729 1246 724 1215 714 1186 C 704 1156 690 1131 673 1110 C 655 1088 634 1071 610 1059 C 586 1046 560 1040 532 1040 C 507 1040 485 1043 466 1049 C 447 1055 421 1068 387 1087 C 360 1102 336 1115 316 1125 C 296 1135 275 1141 254 1141 C 225 1141 202 1130 186 1108 C 169 1086 160 1060 158 1032 L 94 1032 C 94 1065 99 1096 109 1126 C 119 1155 132 1180 150 1202 C 167 1223 188 1240 212 1253 C 236 1265 263 1272 291 1272 C 321 1272 346 1268 365 1262 C 383 1255 407 1244 436 1229 C 463 1213 487 1200 508 1188 C 529 1176 549 1171 569 1171 C 597 1171 620 1182 637 1204 C 653 1226 663 1251 666 1280 Z" unicode="" />
<glyph horiz-adv-x="1272" d="M 1141 123 L 1178 49 C 1162 36 1135 22 1096 6 C 1056 -10 1013 -18 965 -18 C 925 -18 892 -12 866 -1 C 840 9 819 24 803 43 C 787 62 776 85 770 111 C 763 137 760 166 760 197 L 760 741 L 532 739 C 527 649 520 559 512 469 C 503 378 488 297 468 225 C 448 153 419 95 383 50 C 347 4 299 -18 240 -18 C 205 -18 175 -7 150 14 C 125 36 113 64 113 98 C 113 128 123 153 144 173 C 164 193 189 203 219 203 C 236 203 253 198 270 188 C 286 178 303 162 319 141 C 334 163 347 196 358 239 C 369 282 378 330 386 384 C 394 438 400 495 406 557 C 411 618 416 679 420 739 C 383 737 352 731 327 721 C 302 710 282 696 266 680 C 250 664 237 646 228 626 C 218 606 211 585 205 565 L 119 567 C 125 607 136 646 154 682 C 171 718 193 749 219 775 C 245 801 276 821 311 837 C 346 852 384 860 426 860 L 1167 860 L 1167 739 L 942 737 L 942 199 C 942 165 950 138 968 120 C 986 101 1010 92 1042 92 C 1057 92 1073 94 1089 100 C 1105 106 1122 113 1141 123 Z" unicode="" />
<glyph horiz-adv-x="1130" d="M 1032 520 L 1032 393 L 98 393 L 98 520 L 1032 520 Z" unicode="" />
<glyph horiz-adv-x="2257" d="M 2159 520 L 2159 393 L 98 393 L 98 520 L 2159 520 Z" unicode="" />
<glyph horiz-adv-x="2052" d="M 2056 88 L 2056 0 L -4 0 L -4 88 L 2056 88 Z" unicode="" />
<glyph horiz-adv-x="467" d="M 350 1518 L 397 1468 C 357 1436 318 1402 282 1366 C 246 1329 221 1281 207 1221 C 263 1216 301 1202 321 1179 C 341 1155 352 1129 352 1100 C 352 1058 339 1026 315 1004 C 290 982 261 971 229 971 C 181 971 146 986 126 1017 C 106 1047 96 1087 96 1137 C 96 1168 100 1201 110 1236 C 120 1270 135 1304 155 1338 C 175 1371 202 1403 234 1434 C 266 1465 305 1493 350 1518 Z" unicode="" />
<glyph horiz-adv-x="467" d="M 231 1516 C 279 1516 313 1500 333 1469 C 353 1438 364 1398 364 1350 C 364 1318 359 1285 349 1251 C 339 1216 325 1182 305 1149 C 285 1115 258 1083 226 1052 C 194 1021 155 993 111 969 L 63 1018 C 103 1049 141 1083 177 1120 C 213 1157 239 1206 254 1266 C 198 1270 159 1283 139 1307 C 118 1330 108 1356 108 1386 C 108 1428 120 1460 145 1482 C 169 1504 198 1516 231 1516 Z" unicode="" />
<glyph horiz-adv-x="467" d="M 231 250 C 279 250 313 234 333 203 C 353 172 364 132 364 84 C 364 52 359 19 349 -15 C 339 -49 325 -83 305 -117 C 285 -150 258 -182 226 -213 C 194 -244 155 -272 111 -297 L 63 -248 C 103 -216 141 -181 177 -145 C 213 -108 239 -60 254 0 C 198 4 159 17 139 41 C 118 64 108 91 108 121 C 108 163 120 195 145 217 C 169 239 198 250 231 250 Z" unicode="" />
<glyph horiz-adv-x="815" d="M 350 1518 L 397 1468 C 357 1436 318 1402 282 1366 C 246 1329 221 1281 207 1221 C 263 1216 301 1202 321 1179 C 341 1155 352 1129 352 1100 C 352 1058 339 1026 315 1004 C 290 982 261 971 229 971 C 181 971 146 986 126 1017 C 106 1047 96 1087 96 1137 C 96 1168 100 1201 110 1236 C 120 1270 135 1304 155 1338 C 175 1371 202 1403 234 1434 C 266 1465 305 1493 350 1518 Z M 698 1518 L 745 1468 C 705 1436 667 1402 631 1366 C 595 1329 569 1281 555 1221 C 611 1216 649 1202 669 1179 C 689 1155 700 1129 700 1100 C 700 1058 687 1026 663 1004 C 638 982 609 971 577 971 C 529 971 494 986 474 1017 C 454 1047 444 1087 444 1137 C 444 1168 448 1201 458 1236 C 468 1270 483 1304 503 1338 C 523 1371 550 1403 582 1434 C 614 1465 653 1493 698 1518 Z" unicode="" />
</font>
</defs>
</svg>
