<?xml version="1.0" encoding="utf-8" ?><svg version="1.1" xmlns = 'http://www.w3.org/2000/svg'><defs><font id='web' horiz-adv-x="1000">
<font-face font-family="web" descent="-208" cap-height="700" units-per-em="1000" bbox="-211,-203,1203,982" x-height="500" ascent="792" />
<missing-glyph horiz-adv-x="210" d="" /><glyph horiz-adv-x="210" d="" unicode=" " />
<glyph horiz-adv-x="282" d="M 255 742 C 275 742 290 735 299 722 C 307 709 312 695 312 679 C 312 674 311 669 311 663 C 310 657 309 652 308 648 C 300 618 290 589 277 562 C 264 535 249 498 231 451 C 215 408 200 364 187 318 C 174 272 163 233 155 202 C 154 200 152 198 149 197 C 146 195 143 195 139 195 C 132 195 127 197 123 201 C 119 205 117 208 118 211 C 124 243 133 283 144 329 C 155 375 163 421 169 467 C 175 517 179 557 181 587 C 182 617 186 647 194 677 C 198 693 205 708 215 722 C 225 735 239 742 255 742 Z M 100 121 C 118 121 133 114 145 102 C 157 89 164 74 164 58 C 164 40 157 25 145 13 C 133 0 118 -6 100 -6 C 82 -6 68 0 56 13 C 44 25 38 40 38 58 C 38 74 44 89 56 102 C 68 114 82 121 100 121 Z" unicode="!" />
<glyph horiz-adv-x="386" d="M 374 740 C 389 740 401 735 411 726 C 420 717 425 705 425 691 C 425 688 424 685 424 682 C 424 678 423 675 423 672 C 421 663 416 650 409 634 C 402 618 394 600 385 580 C 375 560 365 538 355 516 C 345 493 335 471 327 450 C 325 448 323 447 321 447 C 319 446 317 446 314 446 C 310 446 306 447 304 449 C 302 451 300 454 300 457 C 302 479 304 503 306 527 C 308 551 310 575 312 597 C 314 619 316 639 318 657 C 320 675 322 688 324 697 C 326 710 332 720 341 728 C 350 736 361 740 374 740 Z M 218 740 C 233 740 245 735 255 726 C 264 717 269 705 269 691 C 269 688 268 685 268 682 C 268 678 267 675 267 672 C 265 663 260 650 253 634 C 246 618 238 600 229 580 C 219 560 209 538 199 516 C 189 493 179 471 171 450 C 169 448 167 447 165 447 C 163 446 161 446 158 446 C 154 446 150 447 148 449 C 146 451 144 454 144 457 C 146 479 148 503 150 527 C 152 551 154 575 156 597 C 158 619 160 639 162 657 C 164 675 166 688 168 697 C 170 710 176 720 185 728 C 194 736 205 740 218 740 Z" unicode="&#x22;" />
<glyph horiz-adv-x="750" d="M 546 504 L 703 504 L 679 421 L 522 421 L 476 267 L 635 267 L 611 184 L 452 184 L 397 -9 L 355 -9 L 410 184 L 285 184 L 230 -9 L 188 -9 L 243 184 L 87 184 L 111 267 L 267 267 L 313 421 L 155 421 L 179 504 L 337 504 L 389 685 L 431 685 L 379 504 L 504 504 L 556 685 L 598 685 L 546 504 Z M 434 267 L 480 421 L 355 421 L 309 267 L 434 267 Z" unicode="#" />
<glyph horiz-adv-x="530" d="M 407 684 C 451 675 483 658 503 634 C 523 610 532 585 532 560 C 532 539 526 523 516 511 C 505 499 492 494 478 494 C 464 494 451 498 439 506 C 427 514 422 526 422 541 C 422 554 425 565 432 573 C 439 581 448 589 460 595 C 456 600 449 607 439 617 C 429 627 415 634 396 640 L 334 390 C 344 384 356 378 368 372 C 380 365 393 357 406 349 C 430 332 450 312 466 288 C 482 264 490 238 490 208 C 490 180 483 154 471 128 C 459 102 442 79 421 59 C 399 39 373 23 343 11 C 313 -1 280 -7 244 -7 L 235 -7 L 203 -136 L 159 -136 L 192 -5 C 136 1 93 18 64 46 C 34 73 20 106 20 145 C 20 167 26 184 39 198 C 51 211 66 218 83 218 C 103 218 118 213 128 203 C 138 193 144 181 144 166 C 144 153 140 141 132 129 C 124 117 111 107 93 99 C 101 86 113 73 131 61 C 149 49 172 41 202 38 L 272 317 C 262 321 253 326 244 331 C 235 335 227 340 219 344 C 207 350 196 358 184 368 C 172 378 162 389 152 401 C 142 413 134 427 128 442 C 122 457 119 474 119 493 C 119 520 124 545 136 569 C 148 593 164 613 184 631 C 204 649 228 663 255 673 C 282 683 311 689 342 689 L 364 689 L 377 740 L 421 740 L 407 684 Z M 294 406 L 354 646 L 340 646 C 318 646 299 642 283 635 C 267 627 253 618 243 606 C 232 594 224 580 218 565 C 212 550 210 535 210 520 C 210 503 213 486 221 469 C 229 452 243 437 263 424 C 267 420 272 417 278 414 C 283 411 288 408 294 406 Z M 246 36 C 289 37 325 51 355 77 C 384 103 399 138 399 182 C 399 197 394 215 385 236 C 376 257 358 275 332 290 C 328 292 325 294 322 296 C 318 298 315 299 312 301 L 246 36 Z" unicode="$" />
<glyph horiz-adv-x="850" d="M 696 702 L 732 676 L 227 -37 L 171 6 L 606 572 L 604 574 C 598 570 589 564 578 556 C 566 548 552 539 535 531 C 517 523 497 515 475 508 C 452 501 427 496 400 494 C 395 468 387 443 375 421 C 363 398 348 378 331 361 C 313 344 294 331 273 321 C 252 311 231 307 209 307 C 172 307 140 321 113 351 C 86 380 73 418 73 464 C 73 491 78 518 88 546 C 98 574 111 598 129 620 C 147 642 168 659 192 673 C 216 687 243 694 271 694 C 309 694 341 678 365 647 C 389 616 402 579 403 535 C 442 539 477 547 509 560 C 540 573 568 588 592 604 C 616 620 636 636 654 654 C 671 672 685 688 696 702 Z M 327 535 C 327 540 328 545 328 550 C 328 555 328 560 328 565 C 328 593 322 615 312 630 C 302 645 286 653 266 653 C 253 653 242 649 234 643 C 225 637 221 627 221 615 C 221 600 229 584 245 567 C 261 550 288 539 327 535 Z M 210 348 C 224 348 238 352 250 361 C 262 369 273 381 283 395 C 292 409 300 424 306 442 C 312 460 317 477 321 495 C 286 500 256 512 230 531 C 204 550 191 575 191 606 C 175 580 164 549 158 514 C 152 479 149 449 149 423 C 149 398 154 379 166 367 C 177 354 192 348 210 348 Z M 709 378 C 747 378 779 362 804 331 C 828 299 841 262 841 218 C 841 187 835 158 824 131 C 813 103 799 79 781 59 C 763 38 743 21 719 9 C 695 -2 671 -9 647 -9 C 610 -9 578 5 551 35 C 524 64 511 102 511 148 C 511 175 516 202 526 230 C 536 258 549 282 567 304 C 585 326 606 343 630 357 C 654 371 681 378 709 378 Z M 648 32 C 668 32 686 39 701 55 C 715 70 727 89 737 111 C 746 133 753 157 758 182 C 762 207 765 229 765 249 C 765 277 760 299 750 314 C 740 329 724 337 704 337 C 682 337 663 328 648 311 C 633 293 621 273 612 249 C 603 225 597 199 593 173 C 589 147 587 125 587 107 C 587 82 592 63 604 51 C 615 38 630 32 648 32 Z" unicode="%" />
<glyph horiz-adv-x="733" d="M 507 391 L 739 391 L 735 369 C 733 361 729 356 721 352 C 713 348 704 345 694 342 C 684 338 676 335 670 333 C 663 331 656 327 649 322 C 641 316 633 309 624 299 C 614 289 602 275 588 258 C 570 236 551 214 531 192 C 510 169 488 148 466 129 C 484 101 503 81 525 68 C 546 55 569 49 594 49 C 606 49 621 51 637 56 C 653 61 667 67 681 74 L 691 35 C 669 22 647 11 625 3 C 603 -5 574 -10 538 -10 C 507 -10 480 -2 457 12 C 434 26 413 46 395 71 C 361 46 329 26 299 12 C 268 -2 236 -10 202 -10 C 170 -10 142 -5 118 3 C 94 12 75 24 59 40 C 43 55 31 73 23 93 C 15 113 12 135 12 158 C 12 218 32 269 74 312 C 115 354 173 391 247 423 C 242 442 238 462 236 482 C 233 502 232 521 232 539 C 232 565 236 591 245 616 C 254 640 267 662 285 680 C 302 698 323 712 349 723 C 374 734 403 740 436 740 C 460 740 480 736 498 729 C 515 721 529 712 540 701 C 551 689 559 676 565 662 C 570 647 573 632 573 618 C 573 570 552 529 512 495 C 471 461 416 433 348 412 C 359 370 374 326 393 280 C 411 234 429 194 446 162 C 464 178 480 196 496 215 C 512 233 525 250 536 265 C 545 279 551 290 555 298 C 558 306 560 312 560 316 C 560 322 557 328 552 332 C 547 336 538 341 525 348 C 515 352 509 356 506 358 C 503 360 502 364 503 369 L 507 391 Z M 338 449 C 374 461 402 476 423 493 C 443 509 459 526 469 542 C 479 558 486 573 488 587 C 490 601 492 612 492 620 C 492 645 485 664 471 677 C 457 689 441 696 423 696 C 389 696 364 682 348 654 C 332 626 325 594 325 556 C 325 540 326 523 328 505 C 330 487 333 468 338 449 Z M 251 60 C 273 60 294 64 313 72 C 332 80 352 91 372 104 C 351 140 331 181 313 225 C 294 269 275 322 257 384 C 203 357 165 328 145 296 C 124 264 114 229 114 193 C 114 155 125 123 148 98 C 170 72 205 60 251 60 Z" unicode="&#x26;" />
<glyph horiz-adv-x="230" d="M 218 740 C 233 740 245 735 255 726 C 264 717 269 705 269 691 C 269 688 268 685 268 682 C 268 678 267 675 267 672 C 265 663 260 650 253 634 C 246 618 238 600 229 580 C 219 560 209 538 199 516 C 189 493 179 471 171 450 C 169 448 167 447 165 447 C 163 446 161 446 158 446 C 154 446 150 447 148 449 C 146 451 144 454 144 457 C 146 479 148 503 150 527 C 152 551 154 575 156 597 C 158 619 160 639 162 657 C 164 675 166 688 168 697 C 170 710 176 720 185 728 C 194 736 205 740 218 740 Z" unicode="'" />
<glyph horiz-adv-x="333" d="M 402 740 L 424 709 C 334 645 262 561 208 459 C 154 357 127 237 127 100 C 127 47 133 -2 146 -49 C 159 -96 179 -135 206 -166 L 170 -189 C 129 -148 97 -96 74 -34 C 51 28 40 95 40 166 C 40 230 49 290 69 346 C 88 402 114 453 147 500 C 179 547 218 590 262 630 C 306 670 352 706 402 740 Z" unicode="(" />
<glyph horiz-adv-x="333" d="M 157 740 C 197 699 229 647 252 585 C 275 522 287 455 287 385 C 287 320 277 260 258 204 C 238 148 212 97 180 50 C 147 3 109 -39 65 -79 C 21 -119 -25 -155 -75 -189 L -97 -158 C -7 -94 65 -11 119 91 C 173 193 200 313 200 451 C 200 505 193 555 180 601 C 167 647 147 686 121 717 L 157 740 Z" unicode=")" />
<glyph horiz-adv-x="471" d="M 454 650 C 466 650 476 646 484 638 C 492 630 496 620 496 610 C 496 602 494 595 490 589 C 486 583 481 577 473 573 C 461 565 450 561 442 559 C 433 557 424 556 416 555 C 407 553 397 551 385 548 C 373 544 357 537 338 527 C 356 516 372 509 384 506 C 396 502 406 500 415 499 C 424 498 433 497 441 495 C 449 493 460 489 472 482 C 480 477 486 471 490 464 C 493 457 495 450 495 444 C 495 433 491 423 483 415 C 475 407 465 403 455 403 C 442 403 430 407 419 417 C 407 427 398 437 390 449 C 383 457 376 465 369 473 C 361 481 346 491 324 504 C 324 481 326 464 329 452 C 331 440 334 429 338 421 C 341 413 344 405 347 397 C 349 389 351 379 351 365 C 351 351 347 340 339 333 C 331 325 321 322 311 322 C 299 322 289 326 281 334 C 273 342 270 352 270 365 C 270 379 271 389 274 397 C 276 405 279 413 282 421 C 285 429 288 439 291 451 C 294 463 296 481 297 504 C 275 492 260 482 252 475 C 244 468 237 461 233 454 C 225 444 216 433 205 422 C 194 410 182 405 168 405 C 156 405 146 409 138 417 C 130 425 126 434 126 445 C 126 452 127 459 131 465 C 135 471 141 477 149 482 C 161 489 171 493 179 495 C 187 497 196 498 205 499 C 214 500 224 502 236 506 C 248 509 263 516 283 527 C 263 537 248 544 236 548 C 224 551 213 553 205 555 C 196 557 188 558 180 560 C 172 562 162 566 150 574 C 141 578 135 584 132 591 C 128 597 127 604 127 611 C 127 621 131 631 139 639 C 147 647 156 652 167 652 C 179 652 191 647 203 637 C 214 627 224 617 232 606 C 238 597 245 589 252 581 C 258 573 274 563 298 551 C 297 573 295 591 292 603 C 289 615 286 625 283 633 C 280 641 277 649 275 657 C 272 665 271 676 271 690 C 271 704 275 714 283 722 C 291 729 300 733 311 733 C 323 733 332 729 340 721 C 348 713 352 702 352 690 C 352 676 350 665 348 657 C 345 649 342 641 339 633 C 335 625 332 615 330 603 C 327 591 325 573 325 551 C 347 563 362 572 370 579 C 378 586 384 593 389 601 C 396 611 405 621 416 633 C 427 644 440 650 454 650 Z" unicode="*" />
<glyph horiz-adv-x="750" d="M 653 324 L 653 262 L 424 262 L 424 35 L 360 35 L 360 262 L 131 262 L 131 324 L 360 324 L 360 551 L 424 551 L 424 324 L 653 324 Z" unicode="+" />
<glyph horiz-adv-x="238" d="M 90 120 C 110 120 126 114 136 102 C 146 90 152 74 152 56 C 152 38 148 20 142 1 C 135 -17 125 -36 112 -54 C 99 -72 82 -89 62 -105 C 42 -121 18 -136 -9 -148 L -29 -121 C -7 -107 15 -91 37 -73 C 59 -55 76 -31 88 -3 C 63 1 46 8 37 19 C 28 29 24 41 24 54 C 24 74 31 90 45 102 C 59 114 74 120 90 120 Z" unicode="," />
<glyph horiz-adv-x="311" d="M 59 261 L 278 261 L 258 185 L 39 185 L 59 261 Z" unicode="-" />
<glyph horiz-adv-x="238" d="M 87 121 C 105 121 120 114 132 102 C 144 89 151 74 151 58 C 151 40 144 25 132 13 C 120 0 105 -6 87 -6 C 69 -6 55 0 43 13 C 31 25 25 40 25 58 C 25 74 31 89 43 102 C 55 114 69 121 87 121 Z" unicode="." />
<glyph horiz-adv-x="440" d="M 451 730 L 519 730 L -47 -190 L -114 -190 L 451 730 Z" unicode="/" />
<glyph horiz-adv-x="576" d="M 367 694 C 427 694 475 670 511 623 C 547 575 565 513 565 437 C 565 382 557 328 541 274 C 525 220 503 173 475 131 C 447 89 414 56 376 30 C 338 4 297 -9 254 -9 C 194 -9 146 14 110 60 C 74 106 56 168 56 247 C 56 301 64 356 80 410 C 96 464 117 511 145 553 C 173 595 206 629 244 655 C 282 681 323 694 367 694 Z M 255 39 C 289 39 319 54 346 85 C 372 115 395 153 413 199 C 431 245 444 294 454 348 C 463 402 468 452 468 498 C 468 550 458 587 440 611 C 422 635 397 647 365 647 C 331 647 300 631 274 600 C 247 568 225 530 207 484 C 189 438 175 388 166 334 C 156 280 152 231 152 187 C 152 135 161 97 179 74 C 197 50 223 39 255 39 Z" unicode="0" />
<glyph horiz-adv-x="384" d="M 311 687 L 353 687 L 211 118 C 210 113 209 107 207 99 C 205 91 204 86 204 84 C 204 75 207 68 213 63 C 219 57 229 53 244 51 C 254 49 263 46 271 43 C 278 39 280 33 278 25 L 271 0 L 2 0 L 8 24 C 10 32 16 38 26 41 C 35 44 46 47 58 50 C 76 54 88 59 95 67 C 102 74 108 86 112 102 L 233 588 L 127 588 L 137 626 L 311 687 Z" unicode="1" />
<glyph horiz-adv-x="491" d="M 297 694 C 356 694 404 677 441 645 C 478 613 497 574 497 530 C 497 494 489 461 474 433 C 458 405 439 379 416 357 C 393 335 368 315 341 297 C 314 279 289 261 267 245 C 221 211 182 183 152 160 C 122 136 94 112 70 88 L 311 88 C 329 88 345 91 357 98 C 369 104 381 119 394 142 C 398 148 401 153 405 155 C 409 157 413 158 418 158 L 446 158 L 401 0 L -23 0 L -5 74 C 7 88 23 105 42 124 C 61 143 81 163 103 183 C 124 203 146 223 169 243 C 192 263 214 282 235 299 C 290 343 330 384 355 421 C 380 457 393 496 393 536 C 393 566 382 592 360 614 C 338 635 311 646 278 646 C 253 646 229 640 207 630 C 185 620 170 608 164 594 C 172 586 179 577 185 568 C 191 558 194 548 194 536 C 194 519 188 506 178 496 C 168 486 155 481 140 481 C 120 481 104 487 94 499 C 84 511 79 527 79 546 C 79 564 84 582 96 600 C 108 618 123 633 143 647 C 162 661 185 672 212 681 C 238 689 267 694 297 694 Z" unicode="2" />
<glyph horiz-adv-x="495" d="M 296 694 C 324 694 350 690 374 683 C 398 675 419 665 437 653 C 455 640 469 625 479 607 C 489 589 495 570 495 550 C 495 525 489 502 479 482 C 468 462 454 444 436 429 C 418 413 398 401 374 391 C 350 381 326 375 301 371 C 321 367 341 360 360 352 C 378 343 395 332 409 319 C 423 305 435 290 443 272 C 451 254 456 234 456 212 C 456 178 448 148 434 121 C 420 93 401 70 377 51 C 353 32 324 17 292 7 C 260 -3 226 -9 191 -9 C 133 -9 85 3 47 28 C 9 53 -9 86 -9 126 C -9 142 -3 158 7 172 C 17 186 32 193 51 193 C 69 193 84 188 94 178 C 104 168 109 157 109 145 C 109 131 106 119 101 110 C 95 100 88 92 80 84 C 85 72 97 62 115 52 C 133 42 156 38 185 38 C 211 38 235 43 256 53 C 277 63 295 76 309 93 C 323 110 334 130 342 152 C 349 174 353 198 353 222 C 353 262 337 293 306 316 C 275 338 232 350 176 352 L 187 398 C 257 398 309 411 343 437 C 376 463 393 501 393 551 C 393 577 383 600 363 619 C 343 637 316 647 280 647 C 259 647 240 643 224 637 C 207 630 194 623 186 616 C 193 608 199 601 203 595 C 207 588 209 580 209 571 C 209 556 204 543 195 533 C 185 523 173 518 157 518 C 140 518 126 523 116 533 C 105 543 100 557 100 577 C 100 593 106 609 118 624 C 130 638 145 651 163 661 C 181 671 202 679 226 685 C 250 691 273 694 296 694 Z" unicode="3" />
<glyph horiz-adv-x="509" d="M 448 694 L 507 694 L 394 238 L 496 238 L 481 178 L 379 178 L 359 98 C 358 93 357 87 355 81 C 353 75 353 71 353 69 C 353 63 355 59 359 56 C 363 52 370 48 379 44 C 385 40 390 37 393 35 C 395 33 396 30 396 27 L 389 0 L 190 0 L 197 27 C 197 31 199 33 203 35 C 207 37 214 40 224 44 C 237 49 246 53 251 57 C 255 61 259 69 262 82 L 286 178 L -10 178 L 5 240 L 448 694 Z M 301 238 L 381 558 L 69 238 L 301 238 Z" unicode="4" />
<glyph horiz-adv-x="500" d="M 530 729 L 556 729 L 515 596 L 214 596 L 145 388 C 168 402 190 413 212 421 C 234 429 257 434 283 434 C 314 434 342 428 366 417 C 390 406 410 392 426 374 C 442 356 454 336 462 314 C 470 291 474 268 474 245 C 474 208 466 174 452 143 C 437 111 417 84 393 62 C 368 40 339 22 306 10 C 273 -2 239 -9 204 -9 C 144 -9 96 4 60 30 C 24 56 6 89 6 127 C 6 143 11 158 22 173 C 32 187 47 195 67 195 C 85 195 98 190 108 180 C 118 170 123 160 123 148 C 123 133 120 121 114 111 C 108 101 101 92 95 84 C 99 72 111 62 130 52 C 149 42 171 37 196 37 C 224 37 249 43 271 55 C 293 67 311 82 325 101 C 339 120 350 142 358 166 C 365 190 369 215 369 240 C 369 276 358 307 337 334 C 316 360 285 374 243 374 C 215 374 192 368 172 357 C 152 346 132 334 111 320 L 82 345 L 188 684 L 449 684 C 467 684 480 685 487 689 C 493 693 500 701 507 713 C 511 719 514 724 518 726 C 521 728 525 729 530 729 Z" unicode="5" />
<glyph horiz-adv-x="546" d="M 403 694 C 448 694 485 684 513 665 C 541 646 555 623 555 597 C 555 577 549 561 537 548 C 525 534 511 528 494 528 C 477 528 464 532 456 541 C 448 550 444 561 444 575 C 444 584 445 594 448 604 C 450 614 452 623 454 630 C 451 632 444 636 432 640 C 420 644 407 647 391 647 C 371 647 350 641 328 631 C 306 620 286 603 266 580 C 246 557 227 527 210 491 C 192 454 178 410 168 359 C 190 376 216 391 245 404 C 274 416 305 423 338 423 C 366 423 391 418 413 409 C 435 399 454 386 470 370 C 485 354 497 335 505 313 C 513 291 518 268 518 244 C 518 213 511 182 499 152 C 487 122 469 95 447 71 C 424 47 397 28 365 13 C 333 -1 298 -9 260 -9 C 226 -9 196 -2 170 9 C 144 21 122 39 105 61 C 87 83 74 110 66 140 C 57 170 53 204 53 240 C 53 295 61 350 79 405 C 97 459 121 508 152 551 C 183 593 220 628 263 654 C 306 680 353 694 403 694 Z M 260 37 C 285 37 307 43 326 56 C 345 68 361 85 374 105 C 386 125 396 147 402 172 C 408 196 412 221 412 245 C 412 277 402 304 384 327 C 366 350 339 362 303 362 C 271 362 242 354 215 340 C 187 326 169 314 159 304 C 156 288 154 273 152 257 C 150 241 149 226 149 212 C 149 188 151 166 155 145 C 159 123 165 105 174 89 C 183 73 195 60 209 51 C 223 41 240 37 260 37 Z" unicode="6" />
<glyph horiz-adv-x="450" d="M 237 684 L 538 684 L 525 633 C 487 583 451 536 417 492 C 383 448 352 404 326 361 C 300 317 277 273 259 227 C 241 181 228 131 221 79 C 216 48 208 26 197 12 C 186 -2 170 -9 150 -9 C 134 -9 121 -5 112 3 C 103 11 99 24 99 44 C 99 72 110 109 134 155 C 158 201 188 252 226 309 C 259 359 295 409 333 461 C 371 513 407 558 439 596 L 179 596 C 160 596 146 591 138 583 C 130 574 122 564 116 552 C 112 545 108 541 105 539 C 101 537 97 536 93 536 L 63 536 L 112 690 C 125 688 144 687 169 686 C 193 684 216 684 237 684 Z" unicode="7" />
<glyph horiz-adv-x="514" d="M 335 694 C 391 694 436 679 470 651 C 504 623 521 589 521 549 C 521 528 516 508 507 489 C 497 470 485 453 470 438 C 455 422 438 409 419 398 C 399 386 380 378 361 372 C 400 348 431 324 455 298 C 478 272 490 240 490 203 C 490 170 483 140 469 114 C 455 88 436 65 413 47 C 390 29 363 15 333 5 C 302 -5 270 -10 237 -10 C 171 -10 118 5 78 37 C 38 69 19 108 19 156 C 19 183 24 208 36 230 C 48 252 63 272 81 289 C 99 305 118 319 140 331 C 162 343 183 352 203 358 C 177 377 156 398 140 421 C 124 443 116 469 116 497 C 116 525 122 551 134 575 C 146 599 162 619 182 637 C 202 655 225 669 252 679 C 278 689 306 694 335 694 Z M 320 398 C 350 408 378 427 403 453 C 427 479 440 511 440 549 C 440 576 429 599 409 618 C 389 637 362 647 330 647 C 294 647 264 635 240 612 C 216 589 204 561 204 529 C 204 500 215 475 239 455 C 262 435 289 416 320 398 Z M 241 37 C 283 37 319 50 350 76 C 381 102 397 135 397 175 C 397 210 382 239 352 262 C 322 285 288 308 248 330 C 235 325 220 318 204 310 C 187 302 171 291 156 277 C 141 263 129 247 119 227 C 109 207 104 184 104 157 C 104 123 116 94 142 71 C 168 48 201 37 241 37 Z" unicode="8" />
<glyph horiz-adv-x="546" d="M 325 694 C 359 694 390 687 416 675 C 442 662 463 645 481 623 C 498 601 511 574 520 544 C 528 513 533 480 533 445 C 533 391 524 336 507 282 C 490 228 466 179 436 136 C 405 93 368 58 325 31 C 281 4 233 -9 181 -9 C 128 -9 88 1 62 22 C 35 42 22 65 22 91 C 22 109 28 125 40 138 C 52 151 67 158 85 158 C 100 158 112 154 120 146 C 128 138 133 127 133 115 C 133 108 132 99 130 89 C 128 78 125 67 123 56 C 127 52 135 48 148 44 C 161 40 176 38 193 38 C 237 38 280 60 322 105 C 364 149 397 223 420 327 C 397 309 371 293 341 280 C 311 267 279 261 247 261 C 195 261 152 277 119 311 C 86 345 70 388 70 440 C 70 472 76 503 90 534 C 103 564 121 591 144 615 C 167 639 194 658 225 672 C 256 686 289 694 325 694 Z M 428 382 C 430 398 433 415 435 431 C 437 447 438 463 438 479 C 438 525 429 564 411 597 C 393 630 365 647 326 647 C 303 647 282 640 264 628 C 245 615 229 599 216 579 C 203 559 193 536 186 511 C 178 486 175 461 175 437 C 175 403 184 375 202 354 C 220 333 248 323 285 323 C 315 323 344 330 372 344 C 399 358 418 371 428 382 Z" unicode="9" />
<glyph horiz-adv-x="258" d="M 169 437 C 187 437 202 430 214 418 C 226 405 233 390 233 374 C 233 356 226 341 214 329 C 202 316 187 310 169 310 C 151 310 137 316 125 329 C 113 341 107 356 107 374 C 107 390 113 405 125 418 C 137 430 151 437 169 437 Z M 97 121 C 115 121 130 114 142 102 C 154 89 161 74 161 58 C 161 40 154 25 142 13 C 130 0 115 -6 97 -6 C 79 -6 65 0 53 13 C 41 25 35 40 35 58 C 35 74 41 89 53 102 C 65 114 79 121 97 121 Z" unicode=":" />
<glyph horiz-adv-x="258" d="M 169 437 C 187 437 202 430 214 418 C 226 405 233 390 233 374 C 233 356 226 341 214 329 C 202 316 187 310 169 310 C 151 310 137 316 125 329 C 113 341 107 356 107 374 C 107 390 113 405 125 418 C 137 430 151 437 169 437 Z M 100 120 C 120 120 136 114 146 102 C 156 90 162 74 162 56 C 162 38 158 20 152 1 C 145 -17 135 -36 122 -54 C 109 -72 92 -89 72 -105 C 52 -121 28 -136 1 -148 L -19 -121 C 3 -107 25 -91 47 -73 C 69 -55 86 -31 98 -3 C 73 1 56 8 47 19 C 38 29 34 41 34 54 C 34 74 41 90 55 102 C 69 114 84 120 100 120 Z" unicode=";" />
<glyph horiz-adv-x="750" d="M 656 103 L 656 30 L 134 261 L 134 325 L 656 556 L 656 483 L 217 293 L 656 103 Z" unicode="&#x3C;" />
<glyph horiz-adv-x="750" d="M 648 397 L 648 335 L 138 335 L 138 397 L 648 397 Z M 648 215 L 648 153 L 138 153 L 138 215 L 648 215 Z" unicode="=" />
<glyph horiz-adv-x="750" d="M 656 325 L 656 261 L 134 30 L 134 103 L 573 293 L 134 483 L 134 556 L 656 325 Z" unicode="&#x3E;" />
<glyph horiz-adv-x="423" d="M 274 740 C 296 740 318 737 339 731 C 360 725 379 716 395 704 C 411 692 423 677 433 659 C 443 641 448 621 448 598 C 448 560 437 529 416 504 C 395 478 367 450 333 420 C 286 380 254 344 236 312 C 218 280 205 244 197 204 C 196 201 193 198 189 196 C 184 194 179 193 173 193 C 166 193 161 194 157 198 C 153 202 151 205 152 207 C 156 237 166 270 182 308 C 197 345 219 382 248 420 C 265 443 280 463 293 479 C 305 495 316 509 324 523 C 332 537 337 550 341 564 C 345 578 347 594 347 613 C 347 645 338 668 322 682 C 306 695 287 702 267 702 C 254 702 240 698 225 692 C 210 686 199 677 192 666 C 200 657 206 649 209 642 C 211 635 213 629 213 624 C 213 605 208 591 198 581 C 188 571 175 566 161 566 C 142 566 127 571 117 583 C 107 594 102 607 102 623 C 102 637 106 651 114 665 C 122 679 133 691 148 702 C 163 713 181 722 203 729 C 224 736 248 740 274 740 Z M 154 121 C 172 121 187 114 199 102 C 211 89 218 74 218 58 C 218 40 211 25 199 13 C 187 0 172 -6 154 -6 C 136 -6 122 0 110 13 C 98 25 92 40 92 58 C 92 74 98 89 110 102 C 122 114 136 121 154 121 Z" unicode="?" />
<glyph horiz-adv-x="944" d="M 548 634 C 600 634 646 626 688 611 C 729 596 764 575 793 549 C 822 522 844 490 860 452 C 875 414 883 373 883 328 C 883 288 876 248 862 208 C 848 168 829 132 805 100 C 780 68 750 43 716 23 C 681 3 643 -7 602 -7 C 571 -7 551 0 543 16 C 534 31 530 44 530 55 C 505 37 483 24 463 14 C 443 4 418 0 388 0 C 350 0 321 10 303 31 C 284 52 275 81 275 118 C 275 162 286 206 310 250 C 334 294 365 332 405 366 C 431 388 458 404 486 416 C 514 428 541 434 568 434 C 587 434 604 431 618 425 C 632 419 644 409 653 397 L 697 428 L 717 428 L 625 127 C 622 118 619 108 616 98 C 613 88 612 78 612 70 C 612 59 613 51 617 46 C 621 40 626 38 634 38 C 660 38 686 46 710 63 C 734 80 755 102 773 130 C 791 158 805 189 816 225 C 827 261 833 297 833 335 C 833 369 826 401 814 432 C 801 462 783 489 759 512 C 735 534 706 552 672 566 C 637 579 598 586 555 586 C 499 586 446 574 397 552 C 347 530 304 499 268 461 C 232 423 203 378 182 326 C 160 274 150 218 150 160 C 150 114 158 71 174 33 C 190 -5 213 -38 242 -66 C 271 -93 306 -114 347 -129 C 388 -144 433 -152 483 -152 C 532 -152 580 -144 628 -128 C 676 -112 724 -87 772 -53 L 791 -88 C 741 -124 691 -151 639 -170 C 587 -188 534 -198 481 -198 C 416 -198 358 -188 307 -170 C 256 -152 213 -126 179 -94 C 145 -61 118 -22 100 22 C 82 67 73 116 73 169 C 73 233 85 293 111 350 C 136 406 170 456 214 498 C 257 540 307 573 365 597 C 423 621 484 634 548 634 Z M 595 307 C 597 317 599 327 601 337 C 602 347 603 354 603 360 C 603 370 599 378 593 384 C 586 390 575 393 561 393 C 542 393 524 388 507 380 C 489 371 473 358 457 341 C 431 312 410 278 393 240 C 376 202 368 166 368 132 C 368 106 373 86 385 73 C 397 59 415 53 440 53 C 454 53 470 57 487 66 C 504 74 519 86 532 101 L 595 307 Z" unicode="@" />
<glyph horiz-adv-x="677" d="M 607 45 C 617 40 624 37 626 35 C 628 33 629 29 629 25 L 623 0 L 407 0 L 412 20 C 412 24 415 28 419 30 C 423 32 431 36 443 42 C 453 46 461 51 466 56 C 470 60 473 66 473 73 C 473 77 472 82 472 89 C 471 95 470 102 470 109 L 457 205 L 173 205 L 111 110 C 108 105 104 98 98 88 C 92 78 89 70 89 65 C 89 59 91 53 97 49 C 102 45 108 41 116 39 C 124 35 130 31 133 27 C 136 23 137 19 136 15 L 133 0 L -59 0 L -54 20 C -53 24 -51 28 -47 31 C -43 34 -37 38 -29 43 C -12 52 0 60 7 68 C 14 76 23 88 35 105 L 390 633 L 380 683 C 379 685 379 688 379 690 C 379 692 379 693 380 695 C 380 696 381 697 382 699 C 383 700 385 701 388 703 C 400 709 412 714 422 719 C 432 723 442 729 454 735 C 455 735 457 736 460 738 C 463 740 466 741 468 741 C 470 741 472 740 473 739 C 474 738 475 736 476 734 L 573 90 C 574 80 578 71 584 63 C 590 55 597 49 607 45 Z M 205 255 L 449 255 L 405 560 L 205 255 Z" unicode="A" />
<glyph horiz-adv-x="612" d="M 391 730 C 464 730 518 715 553 686 C 588 656 606 621 606 579 C 606 531 587 488 550 452 C 512 416 462 393 399 383 C 451 378 494 361 528 333 C 562 305 579 267 579 220 C 579 156 553 103 501 62 C 449 20 378 0 289 0 L -27 0 L -21 25 C -19 31 -17 34 -13 36 C -9 37 -1 40 10 45 C 24 50 33 55 37 59 C 40 63 43 72 46 85 L 183 633 C 184 639 185 644 186 650 C 187 655 188 659 188 662 C 188 667 185 671 181 675 C 176 678 170 681 162 685 C 154 688 149 690 145 692 C 141 693 139 696 139 700 C 139 701 139 703 140 706 C 140 709 141 712 142 715 L 146 730 L 391 730 Z M 309 404 C 373 404 419 420 449 452 C 479 484 494 525 494 577 C 494 609 482 635 460 654 C 438 673 400 683 348 683 L 297 683 L 228 404 L 309 404 Z M 253 48 C 329 48 383 64 415 96 C 447 128 464 174 464 234 C 464 274 450 304 422 323 C 394 342 349 352 285 352 L 215 352 L 139 48 L 253 48 Z" unicode="B" />
<glyph horiz-adv-x="619" d="M 650 698 L 675 698 L 631 521 L 599 521 C 593 521 589 522 587 525 C 585 527 584 531 584 535 C 579 581 564 618 538 647 C 512 676 476 691 431 691 C 393 691 358 679 325 657 C 292 634 263 604 239 566 C 215 528 195 485 181 435 C 167 385 160 332 160 278 C 160 198 177 139 211 101 C 245 63 289 44 341 44 C 370 44 397 48 422 58 C 446 67 468 78 488 90 C 507 102 523 115 537 128 C 550 141 560 151 566 158 L 593 120 C 583 107 570 93 554 78 C 538 62 518 48 496 35 C 474 22 449 11 421 3 C 393 -5 364 -10 332 -10 C 284 -10 243 -1 208 14 C 172 30 143 53 120 81 C 97 109 80 142 68 180 C 56 218 51 258 51 302 C 51 368 61 428 83 482 C 105 536 133 582 168 620 C 202 658 242 687 286 708 C 330 729 374 740 419 740 C 466 740 502 735 526 725 C 550 715 575 704 599 690 C 603 687 607 685 611 684 C 615 682 619 683 625 686 C 632 690 637 693 640 695 C 642 697 646 698 650 698 Z" unicode="C" />
<glyph horiz-adv-x="696" d="M 360 730 C 412 730 459 722 501 708 C 542 694 577 674 605 649 C 633 623 654 592 668 556 C 682 520 690 480 690 437 C 690 371 678 312 656 258 C 634 204 604 159 566 121 C 524 79 476 48 424 29 C 371 9 315 0 255 0 L -27 0 L -21 25 C -19 31 -17 34 -13 36 C -9 37 -1 40 10 45 C 24 50 33 55 37 59 C 40 63 43 72 46 85 L 183 633 C 184 639 185 644 186 650 C 187 655 188 659 188 662 C 188 667 185 671 181 675 C 176 678 170 681 162 685 C 154 688 149 690 145 692 C 141 693 139 696 139 700 C 139 701 139 703 140 706 C 140 709 141 712 142 715 L 146 730 L 360 730 Z M 480 143 C 511 177 535 221 551 275 C 567 329 576 389 576 457 C 576 532 555 588 514 626 C 473 664 414 683 337 683 L 297 683 L 139 47 L 237 47 C 286 47 330 53 370 67 C 409 80 446 105 480 143 Z" unicode="D" />
<glyph horiz-adv-x="582" d="M 530 730 C 542 730 559 731 580 733 C 600 735 615 737 625 738 L 588 590 L 565 590 C 557 590 552 591 549 594 C 545 596 543 600 543 606 C 541 621 539 634 537 644 C 535 654 532 661 527 667 C 522 672 515 676 505 678 C 495 680 482 681 465 681 L 297 681 L 226 399 L 320 399 C 338 399 352 401 360 407 C 368 413 378 425 391 443 C 395 449 400 453 404 457 C 408 460 414 462 423 462 L 445 462 L 400 280 L 375 280 C 367 280 362 282 360 287 C 357 291 355 296 353 301 C 349 318 345 330 340 338 C 335 345 325 349 310 349 L 214 349 L 139 49 L 355 49 C 383 49 405 56 421 70 C 437 84 456 108 479 144 C 482 150 485 155 489 159 C 493 162 498 164 504 164 L 533 164 L 492 0 L -27 0 L -21 25 C -19 31 -17 34 -13 36 C -9 37 -1 40 10 45 C 24 50 33 55 37 59 C 40 63 43 72 46 85 L 183 633 C 184 639 185 644 186 650 C 187 655 188 659 188 662 C 188 667 185 671 181 675 C 176 678 170 681 162 685 C 154 688 149 690 145 692 C 141 693 139 696 139 700 C 139 701 139 703 140 706 C 140 709 141 712 142 715 L 146 730 L 530 730 Z" unicode="E" />
<glyph horiz-adv-x="557" d="M 561 730 C 578 730 596 731 615 733 C 633 735 647 737 656 738 L 619 588 L 593 588 C 585 588 579 589 577 592 C 574 595 573 599 574 604 C 573 632 569 652 561 664 C 553 675 531 681 495 681 L 297 681 L 225 396 L 344 396 C 362 396 376 398 384 404 C 392 409 403 421 416 439 C 420 445 424 449 428 453 C 432 456 438 458 447 458 L 468 458 L 422 276 L 397 276 C 390 276 385 278 383 283 C 380 287 378 292 378 297 C 373 314 368 326 363 334 C 358 342 348 346 333 346 L 213 346 L 151 97 C 149 91 148 85 147 80 C 146 74 146 70 146 68 C 146 62 148 58 153 54 C 158 50 165 47 173 45 C 180 42 186 40 190 38 C 194 36 196 34 196 30 C 196 28 195 26 195 23 C 194 20 193 17 193 15 L 189 0 L -26 0 L -20 25 C -18 31 -16 34 -12 36 C -8 37 -1 40 10 45 C 24 50 33 55 37 59 C 40 63 43 72 46 85 L 183 633 C 184 639 185 644 186 650 C 187 655 188 659 188 662 C 188 667 185 671 181 675 C 176 678 170 681 162 685 C 154 688 149 690 145 692 C 141 693 139 696 139 700 C 139 701 139 703 140 706 C 140 709 141 712 142 715 L 146 730 L 561 730 Z" unicode="F" />
<glyph horiz-adv-x="695" d="M 666 693 L 691 693 L 647 519 L 616 519 C 610 519 606 520 604 523 C 602 525 601 529 601 533 C 596 579 580 617 552 647 C 524 676 485 691 437 691 C 397 691 361 679 327 657 C 293 635 264 605 240 568 C 215 530 195 487 181 439 C 167 390 160 340 160 288 C 160 210 180 148 220 103 C 260 58 312 36 377 36 C 419 36 448 45 463 64 C 478 82 488 103 494 125 L 521 233 C 523 241 522 248 518 254 C 514 260 506 265 496 270 C 486 274 479 278 477 280 C 475 282 474 285 475 290 L 481 315 L 645 315 C 642 307 638 296 633 283 C 628 270 625 259 623 251 L 593 130 C 591 121 590 114 592 108 C 594 102 601 98 614 94 C 624 90 630 88 633 86 C 635 84 636 81 635 77 L 629 56 C 595 41 556 26 514 12 C 471 -2 425 -10 375 -10 C 320 -10 272 -1 231 16 C 190 33 156 56 130 85 C 103 114 83 148 70 186 C 57 224 51 264 51 306 C 51 364 61 420 82 473 C 102 526 130 572 166 612 C 201 651 242 682 289 705 C 336 728 386 740 438 740 C 475 740 507 735 533 727 C 559 718 587 705 616 688 C 623 683 628 680 632 679 C 635 678 638 679 642 681 C 649 685 654 688 657 690 C 659 692 662 693 666 693 Z" unicode="G" />
<glyph horiz-adv-x="740" d="M 595 730 L 809 730 L 803 705 C 801 699 799 695 795 694 C 791 692 784 689 773 685 C 758 679 749 674 746 670 C 742 666 739 657 737 645 L 600 97 C 598 91 597 85 596 80 C 595 74 595 70 595 68 C 595 62 597 58 602 55 C 606 51 613 48 621 45 C 628 41 634 39 638 38 C 642 36 644 34 644 30 C 644 28 643 26 643 23 C 642 20 641 17 641 15 L 637 0 L 423 0 L 429 25 C 430 31 432 34 436 36 C 440 37 447 40 459 45 C 473 50 482 55 486 59 C 489 63 492 72 495 85 L 561 350 L 214 350 L 151 97 C 149 91 148 85 147 80 C 146 74 146 70 146 68 C 146 62 148 58 153 54 C 157 50 164 47 172 45 C 179 42 185 40 189 38 C 193 36 195 34 195 30 C 195 28 194 26 194 23 C 193 20 192 17 192 15 L 188 0 L -26 0 L -20 25 C -18 31 -16 34 -12 36 C -8 37 -1 40 10 45 C 24 50 33 55 37 59 C 40 63 43 72 46 85 L 183 633 C 184 639 185 644 186 650 C 187 655 188 659 188 662 C 188 667 185 671 181 675 C 176 678 170 681 162 685 C 154 688 149 690 145 692 C 141 693 139 696 139 700 C 139 701 139 703 140 706 C 140 709 141 712 142 715 L 146 730 L 360 730 L 354 705 C 352 699 350 695 346 694 C 342 692 335 689 324 685 C 309 679 300 674 297 670 C 293 666 290 657 288 645 L 227 402 L 574 402 L 632 633 C 633 639 634 644 635 650 C 636 655 637 659 637 662 C 637 667 634 671 630 675 C 625 679 619 682 611 685 C 603 687 598 689 594 691 C 590 693 588 696 588 700 C 588 701 588 703 589 706 C 589 709 590 712 591 715 L 595 730 Z" unicode="H" />
<glyph horiz-adv-x="298" d="M 148 730 L 364 730 L 358 705 C 356 699 354 695 350 694 C 346 692 338 689 327 685 C 312 679 303 674 300 670 C 296 666 293 657 291 645 L 154 97 C 152 91 151 85 150 80 C 149 74 149 70 149 68 C 149 62 151 58 156 54 C 160 50 167 47 175 45 C 182 42 188 40 192 38 C 196 36 199 34 199 30 C 199 28 198 26 198 23 C 197 20 196 17 196 15 L 192 0 L -24 0 L -18 25 C -16 31 -14 34 -10 36 C -6 37 1 40 13 45 C 27 50 36 55 40 59 C 43 63 46 72 49 85 L 186 633 C 187 639 188 644 189 650 C 190 655 191 659 191 662 C 191 667 188 671 184 675 C 179 678 173 681 165 685 C 157 688 151 690 147 692 C 143 693 141 696 141 700 C 141 701 141 703 142 706 C 142 709 143 712 144 715 L 148 730 Z" unicode="I" />
<glyph horiz-adv-x="446" d="M 309 730 L 524 730 L 518 705 C 516 699 514 695 510 694 C 506 692 499 689 488 685 C 473 679 464 674 461 670 C 457 666 454 657 452 645 L 346 203 C 331 141 302 90 258 50 C 214 10 160 -10 95 -10 C 52 -10 19 0 -2 20 C -24 40 -36 63 -36 89 C -36 109 -30 128 -19 144 C -7 160 8 168 29 168 C 45 168 58 163 67 155 C 76 146 81 135 81 122 C 81 110 78 99 73 89 C 68 79 60 71 48 65 C 50 56 56 48 68 41 C 80 34 92 31 106 31 C 132 31 156 40 180 60 C 204 80 221 113 233 160 L 347 633 C 348 639 349 644 350 650 C 351 655 352 659 352 662 C 352 667 349 671 345 675 C 340 678 334 681 326 685 C 318 688 312 690 308 692 C 304 693 302 696 302 700 C 302 701 302 703 303 706 C 303 709 304 712 305 715 L 309 730 Z" unicode="J" />
<glyph horiz-adv-x="651" d="M 499 730 L 726 730 L 720 706 C 718 699 716 695 712 693 C 708 691 697 687 680 682 C 659 675 643 668 633 662 C 623 655 608 644 590 630 L 310 409 L 531 87 C 536 79 543 71 553 63 C 563 55 574 49 586 43 C 596 38 602 35 605 33 C 608 31 609 28 609 24 L 603 0 L 375 0 L 381 24 C 381 28 384 31 390 33 C 395 35 402 39 412 43 C 416 45 420 47 422 50 C 424 52 426 55 427 58 C 427 60 426 65 422 72 C 418 78 415 84 412 90 L 219 374 L 151 97 C 149 91 148 85 147 80 C 146 74 146 70 146 68 C 146 62 148 58 153 54 C 157 50 164 47 172 45 C 179 42 185 40 189 38 C 193 36 195 34 195 30 C 195 28 194 26 194 23 C 193 20 192 17 192 15 L 188 0 L -26 0 L -20 25 C -18 31 -16 34 -12 36 C -8 37 -1 40 10 45 C 24 50 33 55 37 59 C 40 63 43 72 46 85 L 183 633 C 184 639 185 644 186 650 C 187 655 188 659 188 662 C 188 667 185 671 181 675 C 176 678 170 681 162 685 C 154 688 149 690 145 692 C 141 693 139 696 139 700 C 139 701 139 703 140 706 C 140 709 141 712 142 715 L 146 730 L 360 730 L 354 705 C 352 699 350 695 346 694 C 342 692 335 689 324 685 C 309 679 300 674 297 670 C 293 666 290 657 288 645 L 225 400 L 511 636 C 519 642 526 649 533 655 C 540 661 544 665 545 668 C 545 672 542 676 534 679 C 526 682 519 685 512 688 C 502 692 497 695 495 698 C 493 700 492 705 494 711 L 499 730 Z" unicode="K" />
<glyph horiz-adv-x="565" d="M 502 166 L 531 166 L 489 0 L -28 0 L -22 25 C -20 31 -17 34 -13 36 C -9 37 -1 40 10 45 C 24 50 33 55 37 59 C 40 63 43 72 46 85 L 183 633 C 184 639 185 644 186 650 C 187 655 188 659 188 662 C 188 667 185 671 181 675 C 176 678 170 681 162 685 C 154 688 149 690 145 692 C 141 693 139 696 139 700 C 139 701 139 703 140 706 C 140 709 141 712 142 715 L 146 730 L 360 730 L 354 705 C 352 699 350 695 346 694 C 342 692 335 689 324 685 C 309 679 300 674 297 670 C 293 666 290 657 288 645 L 139 49 L 352 49 C 380 49 402 56 418 71 C 434 85 454 110 477 146 C 480 152 483 157 487 161 C 491 164 496 166 502 166 Z" unicode="L" />
<glyph horiz-adv-x="856" d="M 739 730 L 925 730 L 919 705 C 917 699 915 695 911 694 C 907 692 900 689 889 685 C 874 679 865 674 862 670 C 858 666 855 657 853 645 L 716 97 C 714 91 713 85 712 80 C 711 74 711 70 711 68 C 711 62 713 58 718 54 C 722 50 729 47 737 45 C 744 42 750 40 754 38 C 758 36 760 34 760 30 C 760 28 759 26 759 23 C 758 20 757 17 757 15 L 753 0 L 541 0 L 547 25 C 548 31 550 34 554 36 C 558 37 565 40 577 45 C 591 50 600 55 604 59 C 607 63 610 72 613 85 L 754 649 L 368 11 C 366 8 362 5 357 3 C 352 0 346 -1 340 -1 C 331 -1 325 0 322 2 C 319 4 317 7 317 11 L 253 663 L 121 135 C 119 127 117 119 116 113 C 114 106 114 99 114 93 C 114 84 115 76 118 70 C 121 63 126 56 132 50 C 140 42 146 37 150 35 C 153 33 154 30 154 26 L 148 0 L -32 0 L -26 26 C -25 30 -22 33 -18 35 C -13 37 -4 43 8 52 C 20 60 30 69 37 79 C 44 89 49 99 52 110 L 183 633 C 184 639 185 644 186 650 C 187 655 188 659 188 662 C 188 667 185 671 181 675 C 176 678 170 681 162 685 C 154 688 149 690 145 692 C 141 693 139 696 139 700 C 139 701 139 703 140 706 C 140 709 141 712 142 715 L 146 730 L 344 730 L 399 161 L 739 730 Z" unicode="M" />
<glyph horiz-adv-x="707" d="M 604 730 L 785 730 L 778 704 C 777 700 774 696 770 694 C 765 692 756 686 744 678 C 731 669 721 660 714 650 C 707 640 702 630 700 620 L 545 -5 L 504 -5 L 245 632 L 121 135 C 119 126 117 118 116 112 C 114 106 114 99 114 93 C 114 84 115 76 118 70 C 121 63 126 56 132 50 C 140 42 146 37 150 35 C 153 33 154 30 154 26 L 148 0 L -32 0 L -26 26 C -25 30 -22 33 -18 35 C -13 37 -4 43 8 52 C 20 60 30 69 37 79 C 44 89 49 99 52 110 L 183 633 C 184 638 185 643 186 649 C 187 655 188 659 188 662 C 188 667 185 671 181 675 C 176 678 170 681 162 685 C 154 688 149 690 145 692 C 141 693 139 696 139 700 C 139 701 139 703 140 706 C 140 709 141 712 142 715 L 146 730 L 314 730 L 531 190 L 631 595 C 633 603 634 610 636 617 C 637 623 638 630 638 637 C 638 645 636 653 633 660 C 630 666 626 673 620 680 C 611 688 605 693 601 695 C 597 697 596 700 597 704 L 604 730 Z" unicode="N" />
<glyph horiz-adv-x="725" d="M 447 740 C 488 740 525 732 559 717 C 593 702 621 681 645 655 C 669 628 687 596 700 560 C 712 524 719 485 719 443 C 719 384 709 327 689 273 C 669 218 642 170 608 128 C 574 86 532 53 484 28 C 436 2 383 -10 327 -10 C 286 -10 249 -2 215 12 C 181 26 153 47 129 73 C 105 99 86 130 73 167 C 59 203 53 243 53 287 C 53 345 62 401 82 456 C 101 510 128 559 162 601 C 196 643 238 676 287 702 C 335 727 389 740 447 740 Z M 330 39 C 372 39 411 51 446 77 C 480 103 510 136 535 177 C 559 218 578 265 592 317 C 605 369 612 422 612 476 C 612 543 597 596 568 634 C 539 672 498 691 444 691 C 399 691 359 677 324 650 C 288 623 258 589 234 547 C 210 505 191 458 179 406 C 166 354 160 304 160 255 C 160 187 174 134 204 96 C 233 58 275 39 330 39 Z" unicode="O" />
<glyph horiz-adv-x="575" d="M 394 730 C 433 730 467 725 496 716 C 524 706 548 694 566 679 C 584 663 597 645 606 625 C 614 605 619 584 619 562 C 619 532 612 503 600 475 C 588 446 569 421 543 399 C 517 377 483 359 442 346 C 400 332 351 326 295 326 L 209 326 L 151 97 C 149 91 148 85 147 80 C 146 74 146 70 146 68 C 146 62 148 58 153 54 C 157 50 164 47 172 45 C 179 42 185 40 189 38 C 193 36 195 34 195 30 C 195 28 194 26 194 23 C 193 20 192 17 192 15 L 188 0 L -26 0 L -20 25 C -18 31 -16 34 -12 36 C -8 37 -1 40 10 45 C 24 50 33 55 37 59 C 40 63 43 72 46 85 L 183 633 C 184 639 185 644 186 650 C 187 655 188 659 188 662 C 188 667 185 671 181 675 C 176 678 170 681 162 685 C 154 688 149 690 145 692 C 141 693 139 696 139 700 C 139 701 139 703 140 706 C 140 709 141 712 142 715 L 146 730 L 394 730 Z M 308 378 C 377 378 427 395 459 431 C 490 466 506 510 506 562 C 506 596 494 624 470 647 C 446 669 409 681 359 681 L 297 681 L 221 378 L 308 378 Z" unicode="P" />
<glyph horiz-adv-x="725" d="M 447 740 C 488 740 525 732 559 717 C 593 702 621 681 645 655 C 669 628 687 596 700 560 C 712 524 719 485 719 443 C 719 388 710 335 693 284 C 676 232 652 186 622 146 C 591 105 554 71 511 44 C 468 16 421 0 371 -7 C 385 -12 403 -20 425 -30 C 446 -40 467 -51 488 -62 C 511 -74 532 -82 550 -87 C 568 -91 589 -94 614 -94 C 627 -94 640 -92 654 -88 C 667 -84 679 -80 689 -76 L 680 -113 C 666 -123 646 -136 618 -150 C 590 -164 559 -172 523 -172 C 486 -172 456 -163 433 -147 C 410 -130 388 -111 367 -90 C 342 -65 323 -47 309 -36 C 295 -24 280 -14 266 -4 C 201 10 149 43 111 95 C 72 147 53 211 53 287 C 53 345 62 401 82 456 C 101 510 128 559 162 601 C 196 643 238 676 287 702 C 335 727 389 740 447 740 Z M 329 38 C 371 38 410 50 445 76 C 480 102 510 135 534 177 C 558 218 577 265 591 317 C 605 369 612 422 612 476 C 612 543 597 596 568 634 C 539 672 498 691 444 691 C 399 691 359 677 324 650 C 288 623 258 589 234 547 C 210 505 191 458 179 406 C 166 354 160 304 160 255 C 160 187 174 134 203 96 C 232 57 274 38 329 38 Z" unicode="Q" />
<glyph horiz-adv-x="645" d="M 410 730 C 484 730 539 714 575 682 C 611 650 629 612 629 568 C 629 517 608 471 568 430 C 527 389 465 363 382 351 C 392 346 402 340 411 332 C 419 324 428 313 438 297 C 448 281 458 260 470 234 C 482 208 496 174 513 132 C 521 111 530 93 540 77 C 549 61 561 51 576 46 C 589 41 598 37 602 35 C 606 32 608 28 608 24 L 603 0 L 461 0 L 387 176 C 378 196 369 216 361 236 C 353 255 343 272 333 287 C 322 302 309 314 295 323 C 281 331 263 336 243 336 L 211 336 L 151 97 C 149 91 148 85 147 80 C 146 74 146 70 146 68 C 146 62 148 58 153 54 C 157 50 164 47 172 45 C 179 42 185 40 189 38 C 193 36 195 34 195 30 C 195 28 194 26 194 23 C 193 20 192 17 192 15 L 188 0 L -26 0 L -20 25 C -18 31 -16 34 -12 36 C -8 37 -1 40 10 45 C 24 50 33 55 37 59 C 40 63 43 72 46 85 L 183 633 C 184 639 185 644 186 650 C 187 655 188 659 188 662 C 188 667 185 671 181 675 C 176 678 170 681 162 685 C 154 688 149 690 145 692 C 141 693 139 696 139 700 C 139 701 139 703 140 706 C 140 709 141 712 142 715 L 146 730 L 410 730 Z M 313 388 C 379 388 429 403 463 434 C 497 465 514 509 514 567 C 514 604 501 632 476 652 C 451 671 418 681 376 681 L 297 681 L 224 388 L 313 388 Z" unicode="R" />
<glyph horiz-adv-x="545" d="M 532 708 L 558 708 L 514 534 L 482 534 C 476 534 473 536 471 538 C 469 540 468 544 468 548 C 463 591 450 626 430 652 C 409 678 378 691 337 691 C 299 691 267 679 242 656 C 217 633 205 604 205 570 C 205 546 210 526 221 508 C 231 490 247 474 268 462 C 284 452 301 443 321 433 C 341 423 358 414 373 408 C 423 383 458 356 479 328 C 500 300 511 266 511 228 C 511 199 505 170 493 142 C 481 114 463 88 441 66 C 419 43 391 25 358 11 C 325 -3 288 -10 246 -10 C 204 -10 167 -4 135 7 C 103 19 81 27 71 32 C 67 33 64 34 61 35 C 57 36 54 37 52 37 C 47 37 43 36 40 35 C 37 33 34 31 32 27 C 28 22 23 18 18 16 C 13 14 9 13 6 13 L -23 13 L 26 209 L 58 209 C 62 209 66 207 69 204 C 71 201 74 195 76 187 C 89 133 112 94 145 72 C 178 50 214 39 252 39 C 300 39 340 52 372 80 C 403 108 419 146 419 194 C 419 225 409 250 390 268 C 370 286 347 301 321 315 C 301 325 284 333 269 341 C 254 348 238 356 222 365 C 180 386 151 412 136 443 C 121 474 114 507 114 541 C 114 567 119 592 130 616 C 141 640 156 661 176 679 C 196 697 220 712 248 723 C 276 734 308 740 342 740 C 360 740 382 737 407 732 C 431 726 456 716 481 702 C 485 699 490 697 494 696 C 498 694 503 695 509 699 C 515 703 520 705 522 706 C 524 707 528 708 532 708 Z" unicode="S" />
<glyph horiz-adv-x="607" d="M 609 730 C 613 730 619 730 629 731 C 639 731 649 732 660 733 C 671 734 681 735 691 736 C 701 736 708 737 712 738 L 674 585 L 654 585 C 645 585 638 587 634 591 C 630 595 628 601 628 607 C 625 633 620 652 612 664 C 604 676 591 682 573 682 L 455 682 L 309 97 C 307 91 306 85 305 80 C 304 74 304 70 304 68 C 304 62 306 58 312 54 C 317 50 324 47 332 45 C 339 42 345 40 349 38 C 353 36 355 33 355 30 C 355 28 354 26 354 23 C 353 20 352 17 352 15 L 348 0 L 130 0 L 136 25 C 137 31 140 34 144 36 C 148 37 156 40 168 45 C 182 50 191 55 195 59 C 198 63 201 72 204 85 L 353 682 L 238 682 C 219 682 203 676 189 664 C 175 652 160 633 146 607 C 143 601 138 595 131 591 C 124 587 116 585 108 585 L 85 585 L 123 738 C 127 737 133 736 141 736 C 149 735 158 734 168 733 C 178 732 187 731 197 731 C 207 730 215 730 222 730 L 609 730 Z" unicode="T" />
<glyph horiz-adv-x="708" d="M 610 730 L 793 730 L 786 704 C 785 700 782 696 778 694 C 773 692 764 686 752 678 C 739 669 729 660 722 650 C 715 640 710 630 708 620 L 617 258 C 608 224 595 191 579 159 C 563 127 542 98 517 73 C 492 48 463 28 429 13 C 395 -2 356 -10 312 -10 C 232 -10 172 8 132 45 C 92 82 73 129 73 185 C 73 195 74 208 76 222 C 78 236 81 248 84 259 L 177 633 C 178 639 179 644 180 650 C 181 655 182 659 182 662 C 182 667 179 671 175 675 C 170 678 164 681 156 685 C 148 688 143 690 139 692 C 135 693 133 696 133 700 C 133 701 133 703 134 706 C 134 709 135 712 136 715 L 140 730 L 354 730 L 348 705 C 346 699 344 695 340 694 C 336 692 329 689 318 685 C 303 679 294 674 291 670 C 287 666 284 657 282 645 L 187 265 C 184 254 182 242 180 229 C 178 216 177 205 177 196 C 177 154 190 120 218 95 C 245 70 282 58 329 58 C 395 58 445 76 479 113 C 513 149 538 201 555 267 L 637 595 C 639 603 640 610 642 617 C 643 623 644 630 644 637 C 644 645 642 653 639 660 C 636 666 632 673 626 680 C 617 688 611 693 607 695 C 603 697 602 700 603 704 L 610 730 Z" unicode="U" />
<glyph horiz-adv-x="687" d="M 601 730 L 794 730 L 789 710 C 787 705 785 701 781 698 C 777 695 771 691 763 687 C 746 678 734 671 726 665 C 718 659 709 646 697 628 L 293 2 C 290 -1 287 -3 285 -5 C 283 -7 279 -8 275 -8 L 266 -8 C 262 -8 259 -7 257 -6 C 254 -4 252 -2 252 2 L 153 643 C 151 653 147 661 140 668 C 133 674 124 680 114 685 C 104 689 98 693 95 695 C 92 697 91 700 93 705 L 100 730 L 317 730 L 312 710 C 310 705 308 701 304 699 C 300 697 292 693 281 688 C 272 684 265 679 261 674 C 257 669 255 664 255 660 C 255 656 255 649 255 641 C 255 632 256 625 257 621 L 328 150 L 622 623 C 626 629 631 638 636 648 C 640 658 643 665 643 668 C 643 674 640 679 636 682 C 631 684 625 687 617 691 C 608 695 602 698 599 702 C 596 705 595 709 597 715 L 601 730 Z" unicode="V" />
<glyph horiz-adv-x="992" d="M 900 730 L 1096 730 L 1091 710 C 1090 705 1088 701 1084 698 C 1080 695 1074 691 1066 687 C 1048 677 1036 670 1028 665 C 1020 659 1011 647 1000 628 L 623 2 C 621 0 619 -3 616 -5 C 612 -7 609 -8 606 -8 L 592 -8 C 588 -8 585 -7 583 -5 C 581 -3 579 -1 579 2 L 541 474 L 269 2 C 267 -1 264 -3 261 -5 C 258 -7 255 -8 252 -8 L 239 -8 C 235 -8 232 -7 230 -5 C 228 -3 226 -1 226 2 L 155 643 C 154 651 150 659 143 667 C 135 674 126 680 116 685 C 106 689 99 693 97 695 C 95 697 94 700 95 705 L 101 730 L 318 730 L 313 710 C 312 705 310 701 306 699 C 302 697 294 693 283 688 C 274 684 268 680 265 676 C 261 672 259 667 259 663 C 258 659 257 652 257 643 C 256 633 256 625 257 619 L 304 162 L 531 555 L 520 643 C 519 651 515 659 509 667 C 503 674 494 680 483 685 C 473 689 467 693 465 695 C 463 697 462 700 463 705 L 469 730 L 684 730 L 679 710 C 678 705 676 701 672 699 C 668 697 660 693 648 688 C 639 684 633 680 629 676 C 625 672 622 667 622 663 C 621 659 620 652 620 642 C 619 632 619 624 620 619 L 659 160 L 925 622 C 929 628 933 637 937 647 C 941 657 944 663 944 666 C 944 673 941 678 937 681 C 932 684 926 687 918 691 C 909 695 903 698 900 702 C 897 705 896 709 897 715 L 900 730 Z" unicode="W" />
<glyph horiz-adv-x="630" d="M 513 730 L 721 730 L 716 710 C 715 705 713 701 709 697 C 705 693 699 690 690 688 C 673 683 658 675 646 665 C 634 654 619 639 601 620 L 387 384 L 505 94 C 510 81 515 72 521 67 C 527 61 536 55 550 48 C 559 43 564 39 566 36 C 567 32 567 28 567 24 L 561 0 L 349 0 L 353 17 C 354 23 356 28 358 30 C 360 32 366 35 376 39 C 383 41 390 45 396 50 C 402 55 405 60 405 66 C 405 70 404 75 403 83 C 401 90 399 97 397 104 L 310 320 L 113 95 C 109 91 105 85 101 79 C 97 73 95 68 95 65 C 95 59 98 54 106 51 C 114 47 122 43 132 39 C 137 37 141 33 143 29 C 145 24 145 19 144 15 L 141 0 L -67 0 L -62 20 C -61 24 -59 28 -55 32 C -51 36 -45 39 -36 42 C -19 46 -4 54 7 65 C 19 75 35 90 53 110 L 289 370 L 181 636 C 175 649 170 658 164 664 C 158 669 149 675 136 682 C 125 686 119 690 118 694 C 117 697 117 701 118 706 L 124 730 L 337 730 L 333 713 C 331 706 329 702 327 700 C 324 698 318 695 308 691 C 301 688 295 684 289 680 C 283 676 281 670 281 664 C 281 660 281 655 283 647 C 284 639 286 632 289 626 L 366 434 L 541 635 C 544 639 548 644 552 650 C 556 656 558 661 558 665 C 558 671 554 675 547 679 C 539 682 531 686 522 691 C 516 693 513 696 511 701 C 509 705 508 710 510 715 L 513 730 Z" unicode="X" />
<glyph horiz-adv-x="619" d="M 539 730 L 732 730 L 727 710 C 725 705 723 701 719 699 C 715 696 709 692 701 688 C 685 680 673 673 665 668 C 657 663 645 650 627 630 L 374 334 L 315 97 C 313 91 312 85 311 80 C 310 74 310 70 310 68 C 310 62 312 58 317 54 C 321 50 328 47 336 45 C 343 42 349 40 353 38 C 357 36 360 34 360 30 C 360 28 359 26 359 23 C 358 20 357 17 357 15 L 353 0 L 137 0 L 143 25 C 144 31 147 34 151 36 C 155 37 162 40 174 45 C 188 50 197 55 201 59 C 204 63 207 72 210 85 L 271 332 L 150 643 C 146 653 141 661 135 668 C 129 674 121 680 111 685 C 101 689 94 693 92 695 C 90 697 89 700 90 705 L 96 730 L 314 730 L 310 714 C 308 708 306 704 304 702 C 301 700 294 696 282 691 C 273 687 266 683 261 679 C 256 675 254 671 254 667 C 254 664 255 659 257 651 C 259 643 260 638 262 634 L 354 391 L 558 633 C 563 639 568 647 574 655 C 580 663 583 668 583 671 C 583 676 580 680 575 683 C 569 685 563 688 557 691 C 547 695 541 698 538 702 C 534 705 533 709 535 714 L 539 730 Z" unicode="Y" />
<glyph horiz-adv-x="591" d="M 256 730 L 658 730 L 655 717 C 652 707 648 699 644 694 C 640 688 635 682 629 676 L 106 49 L 357 49 C 385 49 407 56 425 70 C 443 84 463 108 486 144 C 490 150 494 155 497 159 C 500 162 505 164 512 164 L 540 164 L 497 -8 C 493 -7 486 -6 478 -6 C 469 -5 460 -4 450 -3 C 440 -2 431 -1 421 -1 C 411 0 402 0 396 0 L -38 0 L -33 18 C -31 24 -28 30 -24 35 C -20 39 -14 46 -8 55 L 515 681 L 282 681 C 262 681 245 675 230 663 C 215 651 200 632 185 606 C 181 600 177 594 171 590 C 165 586 157 584 149 584 L 129 584 L 167 738 C 175 737 189 735 209 733 C 228 731 244 730 256 730 Z" unicode="Z" />
<glyph horiz-adv-x="333" d="M 180 730 L 418 730 L 407 689 L 254 689 L 46 -149 L 199 -149 L 188 -190 L -50 -190 L 180 730 Z" unicode="[" />
<glyph horiz-adv-x="440" d="M 172 730 L 401 -190 L 341 -190 L 111 730 L 172 730 Z" unicode="\" />
<glyph horiz-adv-x="333" d="M 139 730 L 377 730 L 147 -190 L -91 -190 L -80 -149 L 73 -149 L 281 689 L 128 689 L 139 730 Z" unicode="]" />
<glyph horiz-adv-x="750" d="M 434 730 L 630 324 L 560 324 L 402 661 L 244 324 L 174 324 L 370 730 L 434 730 Z" unicode="^" />
<glyph horiz-adv-x="500" d="M -71 -60 L 435 -60 L 424 -103 L -82 -103 L -71 -60 Z" unicode="_" />
<glyph horiz-adv-x="400" d="M 208 641 L 327 499 L 303 482 L 150 572 C 135 580 124 589 118 598 C 112 606 109 615 109 625 C 109 637 113 647 121 656 C 129 665 140 670 153 670 C 161 670 170 668 179 665 C 187 661 197 653 208 641 Z" unicode="`" />
<glyph horiz-adv-x="489" d="M 455 64 L 463 30 C 455 23 441 15 421 5 C 400 -4 378 -9 354 -9 C 326 -9 309 -1 301 14 C 293 29 289 44 289 60 C 271 43 251 27 229 13 C 206 0 181 -8 155 -8 C 108 -8 73 6 51 35 C 29 64 18 101 18 147 C 18 186 25 223 39 258 C 53 293 73 324 97 350 C 121 376 149 396 181 412 C 213 427 248 435 284 435 C 306 435 324 431 338 425 C 351 419 364 410 378 400 C 380 398 384 396 388 396 C 392 395 395 396 398 399 L 436 432 C 438 434 441 435 444 436 C 447 436 450 437 452 437 C 454 437 457 436 460 434 C 462 432 463 429 463 426 L 378 95 C 377 90 376 86 375 82 C 374 78 374 74 374 71 C 374 64 376 58 381 52 C 385 46 393 44 404 44 C 412 44 420 46 428 50 C 436 54 445 58 455 64 Z M 289 98 L 353 352 C 346 360 337 368 326 376 C 314 384 300 388 284 388 C 254 388 228 380 207 366 C 185 351 168 332 154 310 C 140 287 129 262 123 234 C 117 206 114 178 114 152 C 114 118 121 92 135 76 C 149 60 169 52 194 52 C 212 52 229 56 243 65 C 257 73 272 84 289 98 Z" unicode="a" />
<glyph horiz-adv-x="482" d="M 326 432 C 366 432 400 419 426 395 C 452 370 465 333 465 283 C 465 247 458 212 446 177 C 433 142 415 111 392 84 C 369 56 341 34 308 17 C 275 0 238 -9 197 -9 C 167 -9 143 -4 123 4 C 103 12 87 23 75 35 C 63 47 55 61 50 75 C 45 89 43 103 43 115 C 43 127 44 139 46 151 C 48 163 51 176 55 190 L 170 649 C 172 661 172 669 169 675 C 165 680 159 685 149 691 C 142 695 137 697 134 699 C 130 701 129 704 130 708 L 136 730 L 280 730 L 190 375 C 202 383 220 395 243 410 C 265 424 293 432 326 432 Z M 200 38 C 230 38 255 45 277 60 C 299 75 316 94 330 118 C 343 141 353 167 359 195 C 365 223 369 251 369 278 C 369 312 361 337 347 351 C 332 365 313 372 289 372 C 263 372 243 367 227 357 C 211 347 194 334 177 320 L 138 157 C 136 151 135 143 133 134 C 131 125 131 118 131 114 C 131 93 135 75 145 60 C 155 45 173 38 200 38 Z" unicode="b" />
<glyph horiz-adv-x="391" d="M 261 433 C 307 433 341 423 361 404 C 381 385 391 365 391 345 C 391 322 385 306 374 297 C 362 287 350 283 337 283 C 323 283 311 286 301 294 C 291 302 286 313 286 328 C 286 334 287 341 291 350 C 294 359 298 367 302 375 C 299 377 293 381 285 385 C 276 389 263 391 247 391 C 225 391 207 384 191 371 C 175 358 161 341 150 321 C 139 300 131 276 126 250 C 120 224 118 198 118 173 C 118 139 125 109 140 83 C 154 57 180 45 216 45 C 246 45 271 52 291 67 C 311 82 330 99 348 117 L 370 86 C 362 76 353 65 343 54 C 332 42 319 32 305 23 C 291 14 275 6 257 0 C 239 -5 219 -9 198 -9 C 148 -9 106 6 73 38 C 39 69 23 112 23 167 C 23 199 28 232 40 264 C 51 296 67 324 88 349 C 108 374 133 394 163 410 C 192 425 225 433 261 433 Z" unicode="c" />
<glyph horiz-adv-x="499" d="M 400 730 L 549 730 L 391 95 C 390 90 389 86 388 82 C 387 78 387 74 387 71 C 387 64 389 58 393 52 C 397 46 405 44 416 44 C 424 44 432 46 440 50 C 448 54 457 58 467 64 L 475 30 C 467 23 453 15 433 5 C 412 -4 390 -9 366 -9 C 338 -9 321 -1 314 14 C 306 29 302 45 302 61 C 284 44 263 28 237 14 C 211 0 184 -8 157 -8 C 109 -8 73 6 51 35 C 29 64 18 101 18 147 C 18 186 25 223 39 258 C 53 293 71 323 95 349 C 118 375 145 395 176 410 C 206 425 238 433 271 433 C 301 433 324 427 338 416 C 352 405 364 394 374 384 L 439 650 C 441 660 441 668 437 674 C 433 680 427 685 417 691 C 410 695 404 697 400 699 C 396 701 394 704 395 708 L 400 730 Z M 302 99 L 359 330 C 350 344 339 356 327 366 C 315 376 298 381 276 381 C 246 381 220 373 200 357 C 179 341 162 322 150 299 C 137 276 128 251 122 225 C 116 198 114 174 114 152 C 114 118 121 92 136 76 C 151 60 171 52 196 52 C 214 52 232 56 250 66 C 267 75 284 86 302 99 Z" unicode="d" />
<glyph horiz-adv-x="406" d="M 277 434 C 314 434 344 425 367 408 C 389 390 401 367 401 337 C 401 305 391 279 373 260 C 355 241 333 227 307 217 C 281 207 255 201 228 198 C 201 195 179 194 163 194 L 117 194 C 117 191 116 187 116 183 C 116 179 116 175 116 171 C 116 121 127 87 149 71 C 171 54 195 46 222 46 C 244 46 267 52 292 65 C 316 78 342 97 368 122 L 387 93 C 383 87 376 78 367 67 C 358 55 346 44 330 33 C 314 21 295 11 273 3 C 250 -4 224 -9 194 -9 C 157 -9 127 -2 105 11 C 82 24 65 40 53 59 C 41 77 34 96 30 116 C 26 136 24 152 24 165 C 24 199 30 232 42 265 C 54 297 72 326 94 351 C 116 376 143 396 174 411 C 205 426 239 434 277 434 Z M 121 233 C 145 233 168 235 191 238 C 214 240 235 245 253 253 C 271 260 286 270 297 284 C 308 297 314 314 314 336 C 314 354 308 368 297 376 C 286 384 273 389 259 389 C 228 389 200 376 174 350 C 148 324 131 285 121 233 Z" unicode="e" />
<glyph horiz-adv-x="280" d="M 366 730 C 392 730 411 723 421 711 C 431 699 436 686 436 674 C 435 659 430 647 421 637 C 411 627 398 622 382 622 C 371 622 360 626 349 635 C 337 643 332 660 333 685 C 328 683 322 681 316 678 C 309 674 302 668 294 659 C 286 650 277 637 269 619 C 261 601 253 577 245 547 L 212 420 L 326 420 L 315 375 L 203 375 L 116 0 L 25 0 L 113 375 L 65 375 L 70 394 C 71 398 74 402 79 405 C 83 407 92 411 106 416 C 113 418 118 422 122 427 C 126 431 129 438 131 447 C 139 484 150 520 164 554 C 178 588 195 619 215 645 C 235 671 257 691 283 707 C 308 722 336 730 366 730 Z" unicode="f" />
<glyph horiz-adv-x="456" d="M 450 441 C 462 441 473 438 481 432 C 489 426 494 416 494 402 C 494 390 489 380 481 374 C 472 367 464 364 456 364 C 448 364 442 365 438 367 C 434 369 430 372 427 374 C 425 376 422 378 419 380 C 415 382 412 383 409 383 C 405 383 400 381 395 378 C 390 374 386 371 384 369 C 390 357 395 345 398 333 C 401 321 403 310 403 300 C 403 276 398 254 389 232 C 379 210 366 191 349 175 C 331 159 310 146 286 136 C 261 126 233 121 203 121 C 193 121 181 122 168 125 C 154 128 144 131 136 134 L 83 58 C 95 58 110 59 128 61 C 145 63 168 64 197 64 C 266 64 313 54 339 35 C 365 16 378 -6 378 -34 C 378 -60 371 -83 358 -104 C 344 -124 327 -141 305 -155 C 283 -169 257 -179 228 -187 C 198 -194 168 -198 136 -198 C 86 -198 48 -191 24 -179 C 0 -166 -12 -148 -12 -126 C -12 -110 -6 -98 3 -88 C 13 -78 27 -73 44 -73 C 58 -73 70 -78 78 -89 C 86 -99 90 -112 90 -126 C 90 -128 89 -131 89 -135 C 89 -138 88 -141 88 -144 C 90 -145 97 -147 107 -151 C 117 -154 130 -156 144 -156 C 160 -156 177 -154 195 -151 C 213 -147 229 -142 243 -135 C 257 -127 269 -118 279 -107 C 288 -95 293 -81 293 -65 C 293 -46 281 -33 259 -25 C 237 -17 204 -13 162 -13 C 142 -13 123 -13 105 -15 C 86 -16 69 -17 54 -19 C 39 -20 27 -21 17 -23 C 7 -24 1 -25 -1 -25 C -5 -25 -8 -24 -12 -23 C -16 -21 -18 -19 -18 -15 C -18 -11 -16 -8 -14 -4 C -11 0 -8 2 -6 5 L 102 153 C 83 166 69 182 60 200 C 51 218 47 238 47 260 C 47 284 52 307 63 329 C 73 351 88 370 106 386 C 124 402 146 414 170 423 C 194 432 220 437 248 437 C 274 437 296 433 316 425 C 335 417 351 406 365 394 C 375 405 388 416 403 426 C 417 436 433 441 450 441 Z M 216 162 C 231 162 245 166 258 175 C 270 183 281 194 290 208 C 298 222 305 237 310 255 C 314 272 317 289 317 307 C 317 330 310 350 298 368 C 285 385 265 394 239 394 C 220 394 204 389 191 381 C 177 372 167 361 159 347 C 151 333 145 318 141 302 C 137 285 136 269 136 253 C 136 225 143 203 157 187 C 171 170 190 162 216 162 Z" unicode="g" />
<glyph horiz-adv-x="506" d="M 474 64 L 482 30 C 474 23 460 15 440 5 C 419 -4 397 -9 373 -9 C 345 -9 326 -3 316 8 C 306 20 301 34 301 51 C 301 57 301 64 303 72 C 304 79 306 87 308 96 L 358 288 C 359 293 360 298 361 304 C 361 309 362 314 362 319 C 362 339 357 353 349 363 C 340 372 326 377 307 377 C 286 377 264 370 242 356 C 220 342 200 327 184 311 L 106 0 L 16 0 L 178 650 C 180 660 180 669 177 675 C 174 681 168 686 159 691 C 151 695 145 698 142 700 C 139 701 138 704 139 708 L 144 730 L 288 730 L 195 361 C 214 376 237 392 263 408 C 289 424 318 432 350 432 C 388 432 414 423 430 405 C 446 387 454 362 454 332 C 454 325 453 318 452 311 C 451 303 450 296 448 288 L 398 96 C 397 92 396 88 395 84 C 394 80 394 76 394 73 C 394 65 396 59 400 53 C 404 47 412 44 423 44 C 431 44 439 46 447 50 C 455 54 464 58 474 64 Z" unicode="h" />
<glyph horiz-adv-x="255" d="M 229 681 C 245 681 259 675 270 663 C 280 651 286 638 286 622 C 286 606 280 593 269 581 C 258 569 244 564 228 564 C 212 564 198 569 187 581 C 176 593 171 606 171 622 C 171 638 176 651 188 663 C 199 675 213 681 229 681 Z M 220 64 L 228 30 C 220 23 206 15 186 5 C 165 -4 143 -9 119 -9 C 91 -9 72 -3 62 8 C 52 20 47 34 47 51 C 47 57 47 64 49 72 C 50 79 52 87 54 96 L 107 307 C 107 311 108 315 109 320 C 110 324 111 328 111 331 C 111 339 108 346 103 352 C 97 357 89 360 77 361 C 72 361 67 362 63 363 C 58 363 56 365 56 368 C 56 369 56 371 56 373 C 56 375 57 377 58 380 L 63 399 C 84 399 106 401 128 407 C 150 412 173 419 197 429 L 228 429 L 144 96 C 143 92 142 88 141 84 C 140 80 140 76 140 73 C 140 65 142 59 146 53 C 150 47 158 44 169 44 C 177 44 185 46 193 50 C 201 54 210 58 220 64 Z" unicode="i" />
<glyph horiz-adv-x="243" d="M 217 681 C 233 681 247 675 258 663 C 268 651 274 638 274 622 C 274 606 268 593 257 581 C 246 569 232 564 216 564 C 200 564 186 569 175 581 C 164 593 159 606 159 622 C 159 638 164 651 176 663 C 187 675 201 681 217 681 Z M 198 429 L 229 429 L 140 48 C 123 -25 97 -84 61 -130 C 25 -175 -21 -198 -78 -198 C -102 -198 -120 -192 -131 -180 C -142 -168 -148 -156 -148 -142 C -148 -127 -143 -115 -133 -106 C -123 -97 -110 -93 -94 -93 C -83 -93 -72 -98 -62 -108 C -51 -118 -46 -135 -46 -160 C -42 -159 -36 -157 -30 -155 C -24 -152 -17 -147 -11 -139 C -4 -131 2 -119 9 -104 C 16 -88 23 -68 29 -42 L 109 307 C 109 311 110 315 111 320 C 112 324 113 328 113 331 C 113 339 110 346 105 352 C 99 357 91 360 79 361 C 74 361 69 362 64 363 C 59 363 57 365 57 368 C 57 369 57 371 57 373 C 57 375 58 377 59 380 L 64 399 C 85 399 107 401 129 407 C 151 412 174 419 198 429 Z" unicode="j" />
<glyph horiz-adv-x="485" d="M 451 64 L 459 30 C 451 23 437 15 416 5 C 394 -4 374 -9 356 -9 C 330 -9 307 3 289 29 C 270 55 254 102 242 171 C 224 165 207 161 192 157 C 177 153 160 150 142 147 L 106 0 L 16 0 L 178 650 C 180 660 180 669 177 675 C 174 681 168 686 159 691 C 151 695 145 698 142 700 C 139 701 138 704 139 708 L 144 730 L 288 730 L 196 365 C 231 390 260 407 283 417 C 306 427 331 432 359 432 C 389 432 411 424 427 408 C 443 392 451 372 451 348 C 451 327 446 309 437 294 C 427 278 416 265 403 254 C 390 242 376 233 361 225 C 346 217 333 210 321 204 C 324 187 328 171 332 156 C 336 141 342 125 348 109 C 353 94 359 80 367 66 C 375 52 386 45 400 45 C 408 45 416 46 424 50 C 432 54 441 58 451 64 Z M 153 189 C 174 191 197 197 221 205 C 245 213 268 222 288 234 C 308 245 324 258 337 273 C 350 288 357 304 357 321 C 357 338 352 351 344 361 C 336 371 321 376 301 376 C 291 376 277 372 257 364 C 237 356 213 339 185 315 L 153 189 Z" unicode="k" />
<glyph horiz-adv-x="242" d="M 146 730 L 290 730 L 132 96 C 131 92 130 88 129 84 C 128 80 128 76 128 73 C 128 65 130 59 134 53 C 138 47 146 44 157 44 C 165 44 173 46 182 50 C 190 54 200 58 210 64 L 218 30 C 210 23 196 15 175 5 C 153 -4 131 -9 107 -9 C 79 -9 60 -3 50 8 C 40 20 35 34 35 51 C 35 57 35 64 37 72 C 38 79 40 87 42 96 L 181 653 C 183 661 182 669 179 675 C 176 681 170 686 162 691 C 154 695 148 698 145 700 C 141 701 140 704 141 708 L 146 730 Z" unicode="l" />
<glyph horiz-adv-x="769" d="M 737 64 L 745 30 C 737 23 723 15 703 5 C 682 -4 660 -9 636 -9 C 608 -9 589 -3 579 8 C 569 20 564 34 564 51 C 564 57 564 64 566 72 C 567 79 569 87 571 96 L 621 288 C 622 292 623 297 624 302 C 624 306 625 311 625 316 C 625 334 619 349 608 360 C 597 371 580 377 558 377 C 541 377 524 371 506 359 C 488 347 472 334 460 321 L 380 0 L 290 0 L 362 288 C 362 292 363 297 364 303 C 365 309 366 314 366 319 C 366 337 360 352 349 362 C 337 372 321 377 299 377 C 282 377 264 370 246 356 C 227 342 211 328 198 315 L 120 0 L 30 0 L 106 307 C 106 311 107 315 108 320 C 109 324 110 328 110 331 C 110 339 107 346 102 352 C 96 357 88 360 76 361 C 71 361 66 362 62 363 C 57 363 55 365 55 368 C 55 369 55 371 55 373 C 55 375 56 377 57 380 L 62 399 C 83 399 104 401 126 407 C 148 412 171 419 195 429 L 220 429 L 202 359 C 220 374 239 390 261 407 C 282 423 310 432 344 432 C 374 432 397 425 415 412 C 433 398 445 380 451 358 C 477 379 501 397 522 411 C 543 425 568 432 598 432 C 636 432 665 422 686 404 C 706 385 717 360 717 330 C 717 323 716 316 715 309 C 714 302 713 295 711 288 L 661 96 C 660 92 659 88 658 84 C 657 80 657 76 657 73 C 657 65 659 59 663 53 C 667 47 675 44 686 44 C 694 44 702 46 710 50 C 718 54 727 58 737 64 Z" unicode="m" />
<glyph horiz-adv-x="520" d="M 488 64 L 496 30 C 488 23 474 15 454 5 C 433 -4 411 -9 387 -9 C 359 -9 340 -3 330 8 C 320 20 315 34 315 51 C 315 57 315 64 317 72 C 318 79 320 87 322 96 L 372 288 C 373 293 374 298 375 304 C 375 309 376 314 376 319 C 376 339 370 353 358 363 C 346 372 330 377 311 377 C 289 377 269 369 249 355 C 229 340 211 325 197 311 L 120 0 L 30 0 L 106 307 C 106 311 107 315 108 320 C 109 324 110 328 110 331 C 110 339 107 346 102 352 C 96 357 88 360 76 361 C 71 361 66 362 62 363 C 57 363 55 365 55 368 C 55 369 55 371 55 373 C 55 375 56 377 57 380 L 62 399 C 83 399 104 401 126 407 C 148 412 171 419 195 429 L 219 429 L 201 359 C 220 374 242 390 267 407 C 292 423 321 432 354 432 C 392 432 420 423 439 405 C 458 387 468 362 468 332 C 468 325 467 318 466 311 C 465 303 464 296 462 288 L 412 96 C 411 92 410 88 409 84 C 408 80 408 76 408 73 C 408 65 410 59 414 53 C 418 47 426 44 437 44 C 445 44 453 46 461 50 C 469 54 478 58 488 64 Z" unicode="n" />
<glyph horiz-adv-x="465" d="M 271 436 C 326 436 368 418 398 382 C 427 346 442 302 442 249 C 442 215 435 182 423 151 C 411 119 394 92 373 68 C 351 44 325 26 295 12 C 265 -2 232 -9 197 -9 C 141 -9 98 8 68 43 C 38 77 23 121 23 175 C 23 207 28 239 40 271 C 51 303 67 331 89 355 C 110 379 136 398 167 413 C 198 428 233 436 271 436 Z M 203 36 C 226 36 247 42 265 55 C 283 67 298 84 310 105 C 322 126 332 151 338 180 C 344 208 348 239 348 271 C 348 307 341 336 328 358 C 315 380 293 391 263 391 C 238 391 216 384 198 371 C 180 357 165 340 153 318 C 141 296 132 271 126 243 C 120 215 117 186 117 157 C 117 120 123 91 136 69 C 149 47 171 36 203 36 Z" unicode="o" />
<glyph horiz-adv-x="493" d="M 342 432 C 384 432 417 418 441 392 C 464 365 476 329 476 283 C 476 249 469 214 457 179 C 445 144 428 113 406 85 C 384 57 357 35 326 17 C 294 0 260 -9 222 -9 C 194 -9 173 -4 159 6 C 145 16 133 25 123 34 L 69 -190 L -22 -190 L 102 307 C 102 311 103 315 104 320 C 105 324 106 328 106 331 C 106 339 103 346 98 352 C 92 357 84 360 72 361 C 67 361 62 362 58 363 C 53 363 51 365 51 368 C 51 369 51 371 51 373 C 51 375 52 377 53 380 L 58 399 C 79 399 100 401 122 407 C 144 412 167 419 191 429 L 215 429 L 198 361 C 204 367 213 375 224 383 C 234 391 246 398 258 406 C 270 413 284 419 298 424 C 312 429 327 432 342 432 Z M 222 43 C 246 43 268 50 288 64 C 308 78 324 96 338 118 C 352 140 362 166 369 194 C 376 222 380 249 380 277 C 380 307 373 331 361 347 C 348 363 329 372 305 372 C 281 372 260 365 240 351 C 220 337 205 325 194 313 L 138 88 C 146 76 157 66 169 57 C 181 47 199 43 222 43 Z" unicode="p" />
<glyph horiz-adv-x="483" d="M 456 437 C 458 437 461 435 463 433 C 465 431 466 428 466 426 L 313 -190 L 222 -190 L 284 53 C 269 43 251 31 230 17 C 208 3 184 -4 158 -4 C 109 -4 73 10 51 40 C 29 70 18 107 18 152 C 18 188 25 224 39 258 C 53 292 73 323 98 349 C 122 375 151 395 183 411 C 215 427 250 435 286 435 C 308 435 327 431 341 425 C 355 419 368 410 382 400 C 384 398 388 396 392 396 C 396 395 399 396 402 399 L 440 432 C 442 434 445 435 448 436 C 451 436 454 437 456 437 Z M 294 97 L 357 352 C 351 360 342 367 331 375 C 319 383 304 387 286 387 C 256 387 231 380 209 366 C 187 352 170 335 156 313 C 142 291 131 266 124 238 C 117 210 114 181 114 153 C 114 117 121 92 137 77 C 152 61 171 54 195 54 C 213 54 231 58 247 66 C 263 74 278 85 294 97 Z" unicode="q" />
<glyph horiz-adv-x="344" d="M 318 432 C 338 432 353 426 362 415 C 371 404 376 392 376 379 C 376 364 371 351 362 339 C 352 327 339 321 322 321 C 310 321 300 325 292 333 C 284 341 279 352 277 365 C 267 363 257 358 247 349 C 237 339 227 328 217 314 C 207 300 199 285 191 269 C 183 252 178 236 174 220 L 121 0 L 31 0 L 99 276 C 101 288 103 298 104 308 C 104 317 105 324 105 329 C 105 337 102 345 96 351 C 90 357 81 360 69 361 C 64 361 59 362 55 363 C 51 363 49 365 49 368 C 49 369 49 371 49 373 C 49 375 50 378 51 380 L 56 399 C 77 399 97 401 115 407 C 133 413 149 420 164 429 L 187 429 C 187 423 188 416 188 410 C 188 404 189 397 189 391 C 189 380 188 369 187 357 C 185 345 184 333 182 322 L 186 322 C 208 360 231 388 254 406 C 277 423 298 432 318 432 Z" unicode="r" />
<glyph horiz-adv-x="365" d="M 224 434 C 267 434 298 426 318 410 C 337 394 347 377 347 361 C 347 343 341 330 331 321 C 320 311 308 307 295 307 C 282 307 271 311 263 320 C 255 328 251 339 251 351 C 251 355 251 361 253 368 C 255 374 257 380 259 385 C 256 385 251 387 245 390 C 239 392 228 394 213 394 C 194 394 177 387 162 375 C 147 363 140 347 140 327 C 140 310 147 296 162 284 C 177 272 202 258 237 242 C 271 226 295 209 309 192 C 323 174 330 154 330 131 C 330 115 326 98 319 82 C 311 65 300 50 285 37 C 270 23 251 12 229 4 C 207 -4 181 -9 151 -9 C 103 -9 67 0 41 20 C 15 40 2 61 2 84 C 2 98 6 110 16 122 C 25 133 38 139 55 139 C 71 139 83 134 91 126 C 98 117 102 107 102 95 C 102 87 99 79 95 72 C 91 64 88 59 87 57 C 95 49 106 43 121 38 C 135 33 150 31 165 31 C 189 31 210 38 226 53 C 242 67 250 84 250 103 C 250 123 240 138 222 150 C 203 162 179 174 150 188 C 116 203 92 220 80 239 C 67 257 61 278 61 301 C 61 319 65 337 74 353 C 83 369 95 383 110 395 C 125 407 142 416 162 423 C 182 430 202 434 224 434 Z" unicode="s" />
<glyph horiz-adv-x="289" d="M 214 420 L 317 420 L 306 375 L 203 375 L 138 107 C 137 102 136 96 135 89 C 133 81 133 77 133 75 C 133 66 136 59 142 53 C 148 47 157 45 170 45 C 176 45 185 46 196 50 C 207 54 218 58 228 64 L 236 29 C 228 22 213 14 190 5 C 167 -4 144 -9 120 -9 C 90 -9 69 -3 57 9 C 45 21 40 36 40 55 C 40 60 40 67 41 75 C 42 83 44 90 46 98 L 113 375 L 63 375 L 69 398 C 70 402 73 406 78 408 C 82 410 92 413 106 418 C 114 421 121 424 126 428 C 130 432 134 438 136 447 L 161 545 C 161 549 163 553 166 555 C 169 557 172 558 175 559 L 252 569 L 214 420 Z" unicode="t" />
<glyph horiz-adv-x="514" d="M 480 64 L 488 30 C 480 23 466 15 446 5 C 425 -4 403 -9 379 -9 C 351 -9 334 -2 326 12 C 318 26 314 41 314 58 C 294 42 271 26 245 12 C 219 -1 189 -9 154 -9 C 116 -9 90 1 74 21 C 58 41 50 66 50 98 C 50 105 51 114 53 124 C 55 134 57 144 59 153 L 99 307 C 99 311 100 315 101 320 C 102 324 103 328 103 331 C 103 339 100 346 95 352 C 89 357 81 360 69 361 C 64 361 59 362 55 363 C 50 363 48 365 48 368 C 48 369 48 371 48 373 C 48 375 49 377 50 380 L 55 399 C 76 399 98 401 120 407 C 142 412 165 419 189 429 L 221 429 L 147 143 C 145 137 144 131 143 124 C 141 116 141 111 141 107 C 141 86 145 71 155 61 C 165 51 180 46 201 46 C 221 46 242 51 264 63 C 285 75 303 89 318 105 L 368 305 C 368 309 369 314 370 319 C 371 324 372 328 372 331 C 372 339 369 346 364 352 C 358 357 350 360 338 361 C 333 361 328 362 324 363 C 319 363 317 365 317 368 C 317 369 317 371 317 373 C 317 375 318 377 319 380 L 324 399 C 345 399 367 401 389 407 C 411 412 434 419 458 429 L 488 429 L 404 95 C 403 91 402 86 401 82 C 400 78 400 74 400 71 C 400 64 402 58 406 52 C 410 46 418 44 429 44 C 437 44 445 46 453 50 C 461 54 470 58 480 64 Z" unicode="u" />
<glyph horiz-adv-x="459" d="M 369 460 C 385 460 397 455 407 447 C 417 439 424 428 429 416 C 433 404 436 390 438 376 C 440 361 441 347 441 334 C 441 296 435 257 423 217 C 411 177 395 140 373 107 C 351 73 324 46 293 24 C 261 2 226 -9 187 -9 C 169 -9 152 -6 136 -2 C 120 2 105 9 93 19 C 80 28 70 40 62 54 C 54 68 51 85 51 104 C 51 111 51 120 53 131 C 54 142 56 152 59 161 L 98 307 C 98 311 99 316 100 320 C 101 324 102 328 102 331 C 102 339 99 346 94 352 C 88 357 80 360 68 361 C 63 361 58 362 54 363 C 49 363 47 365 47 368 C 47 369 47 371 47 373 C 47 375 48 377 49 380 L 54 399 C 75 399 97 401 119 407 C 141 412 164 419 188 429 L 221 429 L 151 167 C 149 160 148 151 146 139 C 144 127 143 118 143 114 C 143 96 147 80 156 67 C 164 54 181 48 206 48 C 220 48 235 51 249 59 C 263 66 276 75 288 87 C 300 99 312 112 322 127 C 332 141 341 156 348 172 C 363 206 373 236 378 263 C 382 289 385 318 386 349 C 359 353 341 360 331 370 C 321 380 317 393 317 410 C 317 426 322 438 332 447 C 342 455 355 460 369 460 Z" unicode="v" />
<glyph horiz-adv-x="709" d="M 617 460 C 633 460 645 455 655 447 C 665 439 672 428 677 416 C 681 404 684 390 686 376 C 688 361 689 347 689 334 C 689 300 683 263 672 223 C 660 183 644 145 623 111 C 601 77 575 48 544 25 C 513 2 478 -9 439 -9 C 411 -9 385 -2 361 10 C 337 23 321 43 313 69 C 294 50 273 32 249 16 C 225 0 197 -9 163 -9 C 123 -9 95 2 77 25 C 59 47 50 74 50 106 C 50 113 50 122 52 132 C 54 142 56 152 59 161 L 98 307 C 98 311 99 316 100 320 C 101 324 102 328 102 331 C 102 339 99 346 94 352 C 88 357 80 360 68 361 C 63 361 58 362 54 363 C 49 363 47 365 47 368 C 47 369 47 371 47 373 C 47 375 48 377 49 380 L 54 399 C 75 399 97 401 119 407 C 141 412 164 419 188 429 L 220 429 L 147 151 C 145 145 144 138 143 130 C 141 122 141 116 141 112 C 141 93 145 77 153 65 C 161 52 177 46 201 46 C 217 46 234 52 252 64 C 269 76 284 90 298 104 L 379 423 L 469 423 L 403 165 C 401 157 399 147 398 137 C 396 126 396 118 396 114 C 396 96 400 80 408 67 C 416 54 433 48 458 48 C 472 48 486 51 500 59 C 514 66 526 75 538 87 C 550 99 561 112 571 127 C 581 141 589 156 596 172 C 611 206 621 236 626 263 C 630 289 633 318 634 349 C 607 353 589 360 579 370 C 569 380 565 393 565 410 C 565 426 570 438 580 447 C 590 455 603 460 617 460 Z" unicode="w" />
<glyph horiz-adv-x="427" d="M 403 431 C 417 431 428 427 438 419 C 447 411 452 399 452 383 C 452 366 446 353 436 345 C 426 336 415 332 405 332 C 396 332 388 333 382 337 C 375 341 368 348 360 358 C 351 349 343 341 337 334 C 331 327 324 319 317 311 C 310 302 302 291 293 279 C 284 267 273 251 259 232 C 263 212 269 190 275 166 C 281 142 286 123 292 109 C 297 94 304 80 313 66 C 321 52 332 45 346 45 C 354 45 361 46 369 50 C 377 54 386 58 396 64 L 403 30 C 396 23 382 15 362 5 C 341 -4 320 -9 298 -9 C 273 -9 252 2 235 25 C 218 48 203 92 191 156 C 153 96 121 53 96 29 C 70 5 48 -7 29 -7 C 10 -7 -3 -1 -12 11 C -20 23 -25 36 -25 50 C -25 60 -20 70 -12 81 C -4 91 8 97 26 97 C 34 97 43 94 51 90 C 59 85 66 78 73 68 C 83 78 92 88 100 97 C 108 105 115 114 123 124 C 131 134 139 145 148 158 C 156 170 167 186 179 204 C 173 226 168 247 164 265 C 159 283 154 299 150 313 C 144 327 137 341 128 355 C 119 369 108 376 95 376 C 87 376 79 373 71 369 C 63 365 54 360 44 355 L 36 389 C 43 395 58 404 80 415 C 102 425 124 431 145 431 C 169 431 189 419 205 397 C 221 375 235 335 248 279 C 261 298 274 317 288 335 C 301 353 314 370 327 384 C 339 398 352 409 365 418 C 377 426 390 431 403 431 Z" unicode="x" />
<glyph horiz-adv-x="432" d="M 392 432 C 409 432 422 426 432 415 C 441 404 446 391 446 377 C 446 361 440 341 429 315 C 418 289 404 260 386 229 C 368 197 348 164 325 130 C 302 95 279 61 256 29 C 239 5 221 -19 201 -45 C 181 -71 160 -96 138 -118 C 116 -140 92 -158 68 -173 C 43 -187 18 -195 -7 -195 C -31 -195 -51 -188 -65 -175 C -79 -162 -86 -146 -86 -127 C -86 -115 -81 -103 -72 -92 C -63 -81 -50 -76 -34 -76 C -20 -76 -8 -81 2 -91 C 13 -101 20 -120 22 -146 C 36 -142 50 -134 66 -123 C 81 -111 96 -99 110 -85 C 124 -71 138 -57 150 -43 C 162 -29 171 -17 178 -8 C 172 24 166 57 160 91 C 154 125 147 156 141 186 C 135 215 129 241 124 264 C 118 286 114 303 110 315 C 105 327 99 341 91 355 C 83 369 73 376 59 376 C 51 376 42 374 34 370 C 26 366 16 361 6 356 L 0 390 C 8 397 23 406 45 416 C 66 426 86 432 105 432 C 135 432 158 420 173 396 C 188 372 201 338 212 293 C 220 257 228 221 234 185 C 240 148 245 116 249 88 C 270 119 289 150 305 180 C 321 210 335 237 347 261 C 353 273 358 284 361 292 C 363 300 368 311 374 326 C 363 332 354 339 347 347 C 339 355 336 366 336 380 C 336 391 340 402 350 414 C 360 426 374 432 392 432 Z" unicode="y" />
<glyph horiz-adv-x="398" d="M 403 435 L 415 408 L 89 83 L 91 81 C 101 81 112 82 122 83 C 132 84 145 85 162 85 C 180 85 196 82 209 78 C 222 74 234 69 244 63 C 254 57 264 52 274 48 C 283 44 293 42 303 42 C 307 42 313 43 319 47 C 325 51 329 58 329 70 C 329 78 327 84 323 88 C 319 92 314 96 309 100 C 304 104 300 108 296 114 C 292 120 290 128 290 139 C 290 151 294 161 304 168 C 313 174 323 178 333 178 C 341 178 351 174 363 167 C 374 159 380 144 380 120 C 380 98 376 78 368 62 C 360 46 349 32 337 22 C 324 11 310 3 294 -1 C 278 -6 261 -9 245 -9 C 229 -9 215 -7 204 -5 C 193 -3 182 0 172 2 C 162 5 150 8 138 10 C 126 12 111 14 93 14 C 76 14 60 12 45 9 C 29 6 9 2 -15 -2 L -27 25 L 300 352 L 298 355 C 283 349 269 346 255 345 C 241 344 228 344 218 344 C 203 344 189 345 177 348 C 164 350 148 352 130 352 C 111 352 96 346 86 336 C 75 325 66 315 59 306 L 35 323 C 35 325 37 332 42 344 C 47 355 55 367 65 380 C 75 392 89 404 106 414 C 122 424 142 430 166 430 C 182 430 194 429 202 427 C 210 425 217 424 225 422 C 232 420 241 418 251 416 C 261 414 276 414 296 414 C 328 414 352 416 366 421 C 380 425 393 430 403 435 Z" unicode="z" />
<glyph horiz-adv-x="370" d="M 179 541 C 184 569 195 595 212 619 C 229 643 250 663 275 680 C 300 696 328 709 360 719 C 391 728 423 733 456 733 L 449 704 C 395 693 353 676 325 654 C 296 632 278 600 271 560 C 267 536 264 515 262 497 C 260 479 258 461 256 445 C 252 421 244 399 232 381 C 220 362 207 346 191 332 C 175 318 158 306 140 296 C 122 286 104 279 87 273 C 111 262 130 245 145 222 C 160 198 168 170 168 138 C 168 132 167 126 167 120 C 166 114 165 107 165 101 C 162 84 158 66 153 48 C 148 30 144 9 140 -14 C 138 -24 137 -33 136 -42 C 134 -50 134 -59 134 -67 C 134 -94 141 -115 155 -130 C 169 -144 194 -157 231 -168 L 224 -197 C 167 -197 124 -182 95 -152 C 66 -122 52 -85 52 -39 C 52 -32 52 -25 53 -17 C 53 -9 54 -2 56 5 C 60 25 65 46 72 67 C 78 87 83 107 87 126 C 88 134 89 143 90 151 C 91 159 92 166 92 174 C 92 196 87 215 77 231 C 67 247 50 257 25 263 L 31 290 C 68 296 98 309 120 328 C 142 347 156 378 164 420 C 167 438 169 458 171 479 C 172 499 175 520 179 541 Z" unicode="{" />
<glyph horiz-adv-x="64" d="M 87 730 L 87 -190 L 25 -190 L 25 730 L 87 730 Z" unicode="|" />
<glyph horiz-adv-x="370" d="M 271 362 C 271 339 275 320 285 304 C 295 288 312 278 338 273 L 332 246 C 294 239 265 226 243 207 C 221 188 206 158 199 116 C 195 97 193 77 192 57 C 190 36 188 15 184 -5 C 178 -33 167 -59 150 -83 C 133 -107 112 -127 87 -144 C 62 -160 34 -173 3 -183 C -28 -192 -60 -197 -93 -197 L -86 -168 C -32 -157 9 -140 38 -118 C 66 -96 84 -64 92 -24 C 96 0 98 20 100 38 C 102 56 104 74 107 91 C 111 115 118 136 130 155 C 142 173 156 190 172 204 C 188 218 205 229 223 239 C 241 249 258 257 276 263 C 252 273 232 290 217 314 C 202 337 195 365 195 398 C 195 404 195 410 196 416 C 196 422 197 428 198 435 C 200 451 204 469 209 487 C 214 505 219 526 223 550 C 224 560 225 569 227 578 C 228 586 229 595 229 603 C 229 630 222 651 208 666 C 194 680 168 693 132 704 L 139 733 C 195 733 238 718 267 688 C 296 658 311 621 311 575 C 311 568 310 561 310 553 C 309 545 308 538 307 531 C 303 510 297 489 291 469 C 284 448 279 428 276 410 C 274 401 273 393 272 385 C 271 377 271 369 271 362 Z" unicode="}" />
<glyph horiz-adv-x="750" d="M 621 399 L 665 399 C 663 373 658 349 650 325 C 641 301 629 281 615 263 C 601 245 584 230 564 219 C 544 208 522 203 498 203 C 479 203 462 206 446 214 C 430 222 409 234 384 252 C 361 267 341 280 323 292 C 305 303 287 309 269 309 C 254 309 241 305 231 298 C 220 291 211 282 203 272 C 195 261 190 249 186 236 C 182 222 179 209 177 197 L 133 197 C 134 222 139 246 148 270 C 156 294 168 314 183 332 C 197 350 215 364 235 375 C 255 385 276 391 300 391 C 324 391 344 387 360 380 C 375 373 394 362 416 348 C 438 332 459 318 477 306 C 495 293 512 287 529 287 C 543 287 556 290 567 297 C 578 304 587 313 595 324 C 602 334 608 346 612 360 C 616 373 619 386 621 399 Z" unicode="~" />
<glyph horiz-adv-x="210" d="" unicode="" />
<glyph horiz-adv-x="282" d="M 183 547 C 200 547 215 540 227 528 C 239 515 245 500 245 483 C 245 466 239 451 227 439 C 215 426 200 420 183 420 C 165 420 149 426 137 439 C 125 451 119 466 119 483 C 119 500 125 515 137 528 C 149 540 165 547 183 547 Z M 144 346 C 150 346 156 344 160 340 C 164 336 165 332 165 330 C 158 297 149 257 138 211 C 127 165 119 119 114 74 C 107 24 103 -16 102 -46 C 100 -76 96 -106 89 -136 C 85 -152 77 -167 67 -181 C 57 -194 44 -201 28 -201 C 7 -201 -7 -194 -16 -181 C -24 -168 -29 -154 -29 -138 C -29 -133 -28 -128 -28 -122 C -27 -116 -26 -111 -25 -107 C -17 -77 -7 -48 5 -21 C 18 5 34 42 52 90 C 68 132 82 177 95 223 C 108 269 119 307 128 339 C 128 341 130 342 133 344 C 136 345 140 346 144 346 Z" unicode="" />
<glyph horiz-adv-x="444" d="M 356 557 C 388 551 412 540 427 524 C 441 507 449 490 449 473 C 449 450 443 434 431 425 C 419 415 407 411 393 411 C 378 411 366 415 356 423 C 346 431 342 442 342 457 C 342 463 343 470 347 479 C 350 487 354 495 359 503 C 356 505 349 509 338 513 C 327 517 313 519 297 519 C 275 519 255 512 238 499 C 220 486 206 469 195 449 C 183 428 175 404 169 378 C 163 352 160 326 160 301 C 160 267 167 237 183 211 C 199 185 226 173 264 173 C 295 173 321 180 342 196 C 363 212 383 229 402 247 L 424 214 C 416 204 407 193 396 183 C 385 172 373 162 359 153 C 345 143 328 135 310 129 C 292 123 272 119 251 119 L 219 -9 L 172 -9 L 204 123 C 162 130 128 149 102 179 C 76 209 63 247 63 295 C 63 327 68 360 80 392 C 92 424 108 452 130 477 C 151 501 177 521 207 537 C 237 553 271 561 309 561 L 336 667 L 383 667 L 356 557 Z" unicode="" />
<glyph horiz-adv-x="540" d="M 423 694 C 469 694 505 683 532 661 C 558 639 572 613 572 583 C 572 557 565 538 553 527 C 541 516 528 511 514 511 C 501 511 489 514 478 522 C 467 529 462 541 462 558 C 462 570 465 581 471 590 C 477 598 486 608 499 619 C 487 631 475 638 464 642 C 452 646 439 648 424 648 C 381 648 346 631 318 598 C 290 565 276 524 276 474 C 276 456 277 439 279 422 C 281 405 283 388 286 372 L 472 372 L 460 326 L 295 326 C 296 316 297 307 297 297 C 297 287 298 278 298 269 C 298 247 293 225 285 203 C 276 180 266 158 255 136 C 275 121 296 107 317 95 C 338 82 362 76 389 76 C 411 76 432 80 450 88 C 468 96 484 108 498 123 L 519 89 C 498 64 475 41 450 21 C 425 1 395 -9 359 -9 C 325 -9 297 0 276 18 C 255 36 237 56 221 77 C 205 52 185 31 162 15 C 138 0 112 -9 82 -9 C 59 -9 38 -1 19 13 C 0 27 -9 48 -9 76 C -9 94 -5 110 2 124 C 10 138 20 151 32 161 C 44 171 57 179 72 185 C 86 190 101 193 116 193 C 131 193 146 190 162 186 C 177 181 191 175 203 169 C 205 175 207 184 210 194 C 212 204 214 213 214 222 C 214 242 211 262 207 281 C 203 299 199 314 195 326 L 74 326 L 86 372 L 184 372 C 181 382 179 394 178 407 C 177 419 177 433 177 447 C 177 476 182 505 194 535 C 206 565 222 591 244 615 C 265 638 291 657 321 672 C 351 686 385 694 423 694 Z M 88 33 C 107 33 126 40 146 54 C 165 68 179 88 188 113 C 178 122 167 130 154 136 C 141 142 126 146 108 146 C 87 146 70 139 57 126 C 44 112 38 97 38 81 C 38 68 41 57 49 47 C 56 37 69 33 88 33 Z" unicode="" />
<glyph horiz-adv-x="571" d="M 440 694 C 485 694 522 684 550 665 C 578 646 592 623 592 597 C 592 577 586 561 574 548 C 562 534 548 528 531 528 C 514 528 501 532 493 541 C 485 550 481 561 481 575 C 481 584 482 594 485 604 C 488 614 490 623 492 630 C 489 632 482 636 470 640 C 458 644 444 647 428 647 C 388 647 350 627 315 588 C 279 548 251 494 229 425 L 448 425 L 440 380 L 218 380 C 215 369 212 357 210 343 C 207 329 205 315 203 302 L 394 302 L 385 257 L 198 257 C 197 249 196 242 196 235 C 195 227 195 220 195 213 C 195 167 205 129 227 98 C 249 66 283 51 331 51 C 361 51 391 58 419 74 C 447 90 475 115 502 150 L 526 118 C 514 97 500 79 483 63 C 466 47 448 33 429 23 C 409 12 389 4 368 -1 C 347 -6 327 -9 308 -9 C 240 -9 189 11 154 53 C 118 94 101 149 101 219 C 101 225 101 231 101 237 C 101 243 102 250 103 257 L 33 257 L 42 302 L 108 302 C 110 315 112 328 115 342 C 117 355 120 368 124 380 L 57 380 L 65 425 L 137 425 C 152 465 170 501 191 534 C 212 567 235 595 261 619 C 286 642 314 660 344 674 C 374 687 406 694 440 694 Z" unicode="" />
<glyph horiz-adv-x="619" d="M 528 684 L 704 684 L 698 661 C 697 656 695 652 691 650 C 687 648 682 645 674 641 C 659 633 648 627 640 622 C 632 616 620 604 605 586 L 441 395 L 564 395 L 552 350 L 400 350 L 368 312 L 360 281 L 535 281 L 524 236 L 350 236 L 315 96 C 314 92 313 88 312 83 C 310 78 310 74 310 70 C 310 63 312 58 318 55 C 323 51 328 48 334 46 C 343 42 349 39 353 37 C 356 35 357 31 356 27 L 349 0 L 146 0 L 153 27 C 154 31 156 35 160 37 C 164 39 171 42 182 46 C 196 51 204 55 208 59 C 211 62 214 69 217 80 L 256 236 L 76 236 L 87 281 L 268 281 L 275 310 L 260 350 L 104 350 L 116 395 L 242 395 L 164 598 C 160 608 154 616 148 622 C 142 628 134 633 124 638 C 114 642 108 645 106 647 C 104 648 103 651 104 656 L 111 684 L 316 684 L 311 665 C 309 660 307 656 305 654 C 302 652 295 648 285 643 C 277 639 271 636 267 633 C 263 629 261 626 261 622 C 261 618 262 613 264 606 C 266 599 267 594 269 590 L 352 365 L 542 589 C 548 596 553 603 557 610 C 561 617 563 622 563 625 C 563 629 561 632 558 635 C 554 637 549 640 543 643 C 534 646 528 649 525 653 C 522 656 521 660 523 665 L 528 684 Z" unicode="" />
<glyph horiz-adv-x="557" d="M 376 730 C 404 730 429 726 451 718 C 473 710 491 701 506 689 C 520 677 532 663 540 648 C 548 632 552 617 552 601 C 552 577 546 560 535 548 C 524 536 511 530 495 530 C 482 530 470 534 458 542 C 446 550 440 562 440 579 C 440 591 443 601 449 611 C 455 620 466 629 481 637 C 469 649 455 660 439 670 C 423 680 399 685 369 685 C 328 685 298 674 278 652 C 258 630 248 606 248 581 C 248 564 255 547 270 529 C 284 511 317 486 367 456 C 413 427 449 399 474 373 C 498 347 511 317 511 285 C 511 253 499 222 475 192 C 451 162 417 136 373 112 C 391 96 405 79 413 62 C 421 45 425 28 425 10 C 425 -14 419 -36 408 -58 C 396 -79 381 -97 362 -113 C 343 -129 321 -141 295 -151 C 269 -160 243 -165 215 -165 C 187 -165 161 -161 139 -154 C 116 -146 97 -137 82 -125 C 66 -113 54 -99 46 -84 C 38 -69 34 -54 34 -38 C 34 -14 39 3 51 15 C 62 27 75 33 91 33 C 105 33 117 28 129 20 C 140 12 146 0 146 -17 C 146 -28 142 -38 136 -47 C 129 -56 119 -65 106 -74 C 117 -85 131 -96 147 -106 C 163 -116 187 -121 218 -121 C 258 -121 288 -110 309 -88 C 329 -66 340 -41 340 -15 C 340 1 332 18 317 36 C 301 54 269 78 220 108 C 174 136 138 163 114 190 C 90 216 78 246 78 279 C 78 313 89 344 113 372 C 136 400 170 427 215 452 C 196 469 183 486 175 504 C 167 521 163 539 163 558 C 163 582 168 604 180 625 C 192 646 207 664 227 680 C 246 695 269 707 295 716 C 321 725 348 730 376 730 Z M 341 137 C 367 150 387 166 403 185 C 418 203 426 226 426 254 C 426 271 421 287 412 301 C 403 315 389 330 369 344 C 346 359 324 374 302 389 C 280 403 261 416 247 427 C 222 413 201 397 185 379 C 169 361 161 340 161 314 C 161 296 165 279 174 264 C 183 249 198 234 218 220 C 240 204 261 189 283 175 C 305 160 324 147 341 137 Z" unicode="" />
<glyph horiz-adv-x="400" d="M 326 613 C 340 613 353 607 365 596 C 376 584 382 571 382 557 C 382 542 376 529 365 518 C 353 506 340 501 326 501 C 311 501 298 506 287 518 C 275 529 270 542 270 557 C 270 571 275 584 287 596 C 298 607 311 613 326 613 Z M 136 613 C 150 613 163 607 175 596 C 186 584 192 571 192 557 C 192 542 186 529 175 518 C 163 506 150 501 136 501 C 121 501 108 506 97 518 C 85 529 80 542 80 557 C 80 571 85 584 97 596 C 108 607 121 613 136 613 Z" unicode="" />
<glyph horiz-adv-x="810" d="M 433 723 C 485 723 533 713 579 694 C 624 674 663 648 696 616 C 729 583 755 544 775 499 C 794 454 804 406 804 356 C 804 305 794 257 775 213 C 755 168 729 129 696 96 C 663 63 624 37 579 18 C 533 0 485 -10 433 -10 C 381 -10 332 0 287 18 C 241 37 202 63 169 96 C 136 129 110 168 91 213 C 71 257 62 305 62 356 C 62 406 71 454 91 499 C 110 544 136 583 169 616 C 202 648 241 674 287 694 C 332 713 381 723 433 723 Z M 433 27 C 479 27 522 35 562 53 C 602 70 636 93 666 123 C 696 153 719 188 736 228 C 753 268 762 310 762 356 C 762 401 753 444 736 484 C 719 524 696 559 666 589 C 636 619 602 642 562 660 C 522 677 479 686 433 686 C 387 686 344 677 304 660 C 264 642 229 619 200 589 C 170 559 147 524 130 484 C 113 444 105 401 105 356 C 105 310 113 268 130 228 C 147 188 170 153 200 123 C 229 93 264 70 304 53 C 344 35 387 27 433 27 Z M 573 270 L 604 240 C 599 229 592 218 582 206 C 572 194 560 184 546 174 C 532 164 515 156 497 150 C 479 143 459 140 438 140 C 404 140 375 145 350 157 C 324 169 303 184 287 204 C 270 223 257 245 249 271 C 240 297 236 324 236 352 C 236 387 242 418 254 445 C 266 472 282 495 301 513 C 320 531 341 544 365 553 C 389 562 412 567 435 567 C 453 567 470 564 484 560 C 498 556 514 549 531 539 C 532 538 533 537 534 536 C 535 535 536 535 538 536 C 543 539 547 541 549 543 C 551 544 554 545 557 545 L 583 545 L 583 424 L 551 424 C 545 424 540 425 538 428 C 535 431 533 435 532 439 C 525 459 514 478 500 495 C 485 511 467 520 445 520 C 432 520 419 517 406 511 C 392 505 380 495 369 482 C 358 468 349 451 342 430 C 335 409 332 384 332 355 C 332 303 342 263 363 235 C 384 207 411 193 443 193 C 459 193 475 195 489 201 C 503 207 515 213 526 221 C 536 229 546 237 554 246 C 562 255 568 263 573 270 Z" unicode="" />
<glyph horiz-adv-x="454" d="M 464 695 C 464 695 465 694 467 692 C 469 690 470 687 470 683 C 470 681 469 676 467 669 C 465 662 465 659 465 659 L 405 429 C 403 421 401 414 400 406 C 398 398 398 392 398 388 C 398 381 400 375 405 371 C 409 367 414 365 420 365 C 422 365 424 365 426 365 C 428 365 430 366 433 367 C 433 367 434 368 436 368 C 438 368 440 369 443 370 L 449 360 C 449 359 450 358 450 356 C 450 354 450 353 450 352 C 450 344 441 336 424 330 C 406 323 390 320 375 320 C 357 320 344 325 335 336 C 325 347 320 363 320 385 C 300 363 280 347 261 336 C 242 325 222 320 200 320 C 167 320 141 332 123 356 C 105 380 96 413 96 453 C 96 486 102 517 114 547 C 126 576 141 601 161 623 C 181 645 204 662 230 675 C 256 687 282 694 310 694 C 327 694 342 691 355 687 C 368 683 378 678 385 674 C 389 671 393 668 398 666 C 402 664 406 663 410 663 C 412 663 414 663 416 664 C 418 664 420 665 422 667 L 426 670 C 428 672 431 674 435 678 C 439 681 443 685 449 690 C 451 692 454 694 456 694 C 458 694 461 695 464 695 Z M 369 575 C 369 579 371 586 373 596 C 375 606 376 614 376 618 C 368 626 360 634 352 641 C 343 647 330 651 312 651 C 290 651 271 645 254 633 C 236 621 222 606 210 588 C 198 570 189 550 183 528 C 177 506 174 486 174 466 C 174 442 179 422 189 406 C 199 390 215 382 237 382 C 258 382 275 387 289 398 C 303 408 317 420 332 433 L 369 575 Z" unicode="" />
<glyph horiz-adv-x="492" d="M 431 398 L 489 398 L 340 219 L 415 50 L 357 50 L 255 192 C 252 195 250 199 248 203 C 246 207 246 212 246 217 C 246 225 248 232 253 239 C 257 245 263 251 269 256 L 431 398 Z M 236 398 L 294 398 L 146 219 L 220 50 L 162 50 L 60 192 C 57 195 55 199 53 203 C 51 207 51 212 51 217 C 51 225 53 232 58 239 C 62 245 68 251 74 256 L 236 398 Z" unicode="" />
<glyph horiz-adv-x="750" d="M 649 334 L 649 55 L 585 55 L 585 272 L 131 272 L 131 334 L 649 334 Z" unicode="" />
<glyph horiz-adv-x="311" d="M 59 261 L 278 261 L 258 185 L 39 185 L 59 261 Z" unicode="" />
<glyph horiz-adv-x="500" d="M 326 743 C 358 743 389 736 418 724 C 447 711 472 694 494 673 C 515 651 532 626 545 597 C 557 568 564 537 564 505 C 564 472 557 441 545 412 C 532 383 515 358 494 337 C 472 315 447 298 418 286 C 389 274 358 268 326 268 C 293 268 262 274 233 286 C 204 298 179 315 158 337 C 136 358 119 383 107 412 C 94 441 88 472 88 505 C 88 537 94 568 107 597 C 119 626 136 651 158 673 C 179 694 204 711 233 724 C 262 736 293 743 326 743 Z M 326 301 C 354 301 380 306 405 317 C 430 327 452 342 470 360 C 488 378 503 400 514 425 C 524 450 530 477 530 505 C 530 533 524 559 514 584 C 503 609 488 631 470 649 C 452 667 430 682 405 693 C 380 703 354 709 326 709 C 298 709 271 703 246 693 C 221 682 199 667 181 649 C 163 631 148 609 138 584 C 127 559 122 533 122 505 C 122 477 127 450 138 425 C 148 400 163 378 181 360 C 199 342 221 327 246 317 C 271 306 298 301 326 301 Z M 379 482 L 428 375 L 374 375 L 330 475 L 286 475 L 286 375 L 236 375 L 236 632 L 341 632 C 362 632 382 625 400 612 C 418 599 428 580 428 555 C 428 538 423 523 415 511 C 407 498 395 488 379 482 Z M 336 524 C 342 524 350 526 359 531 C 367 535 372 543 372 554 C 372 564 368 572 361 577 C 354 581 346 584 337 584 L 286 584 L 286 524 L 336 524 Z" unicode="" />
<glyph horiz-adv-x="400" d="M 78 599 L 374 599 L 357 539 L 61 539 L 78 599 Z" unicode="" />
<glyph horiz-adv-x="335" d="M 229 740 C 266 740 298 726 326 699 C 353 672 367 640 367 603 C 367 565 353 533 326 506 C 298 479 266 466 229 466 C 191 466 159 479 132 506 C 104 533 91 565 91 603 C 91 640 104 672 132 699 C 159 726 191 740 229 740 Z M 229 512 C 253 512 273 521 289 539 C 304 557 312 579 312 603 C 312 627 304 648 289 666 C 273 684 253 694 229 694 C 203 694 183 684 168 666 C 152 648 145 627 145 603 C 145 579 152 557 168 539 C 183 521 203 512 229 512 Z" unicode="" />
<glyph horiz-adv-x="750" d="M 656 414 L 656 352 L 427 352 L 427 135 L 363 135 L 363 352 L 134 352 L 134 414 L 363 414 L 363 631 L 427 631 L 427 414 L 656 414 Z M 656 62 L 656 0 L 134 0 L 134 62 L 656 62 Z" unicode="" />
<glyph horiz-adv-x="413" d="M 293 734 C 333 734 365 723 389 702 C 413 681 426 656 426 626 C 426 605 420 586 410 568 C 400 550 387 534 371 520 C 355 505 339 492 321 480 C 303 468 286 457 270 449 C 243 434 222 422 207 413 C 191 403 177 392 164 380 L 303 380 C 313 380 320 381 326 385 C 332 389 337 396 342 407 C 344 413 347 416 351 418 C 354 420 358 421 363 421 L 386 421 L 358 315 L 78 315 L 90 363 C 106 382 128 403 157 426 C 185 448 214 470 243 491 C 275 515 301 537 319 559 C 337 580 346 604 346 631 C 346 648 339 663 327 675 C 314 687 297 693 277 693 C 265 693 254 690 242 686 C 230 682 222 676 218 670 C 223 665 227 660 230 655 C 233 649 235 643 235 637 C 235 624 231 614 224 607 C 216 600 206 597 193 597 C 178 597 167 601 159 609 C 151 617 148 628 148 640 C 148 662 162 684 191 704 C 220 724 254 734 293 734 Z" unicode="" />
<glyph horiz-adv-x="412" d="M 277 734 C 315 734 346 724 372 705 C 397 686 410 664 410 639 C 410 612 400 590 380 574 C 360 557 335 545 305 539 C 329 531 349 518 365 502 C 381 485 390 465 390 442 C 390 406 373 375 339 349 C 305 323 263 311 215 311 C 174 311 142 319 118 337 C 94 355 82 377 82 404 C 82 414 86 424 94 432 C 102 440 112 445 125 445 C 140 445 151 440 159 432 C 167 424 171 415 171 407 C 171 400 169 394 165 389 C 161 383 157 378 153 374 C 159 368 167 363 177 359 C 187 355 198 354 212 354 C 230 354 245 357 257 364 C 269 370 279 378 287 388 C 295 398 300 408 304 420 C 307 432 309 443 309 454 C 309 475 300 491 282 502 C 264 513 236 519 197 520 L 205 561 C 251 561 284 567 303 581 C 321 595 331 615 331 643 C 331 656 325 667 313 677 C 301 687 286 692 266 692 C 256 692 248 691 240 689 C 232 687 225 685 221 683 C 223 679 226 674 228 670 C 230 666 231 661 231 655 C 231 645 227 636 219 630 C 211 624 201 621 191 621 C 179 621 169 624 160 631 C 151 637 147 648 147 662 C 147 672 150 682 158 691 C 166 699 176 707 188 713 C 200 719 214 724 230 728 C 245 732 261 734 277 734 Z" unicode="" />
<glyph horiz-adv-x="400" d="M 321 670 C 333 670 343 665 351 656 C 359 647 363 637 363 625 C 363 616 359 607 351 598 C 343 589 332 580 318 572 L 159 482 L 135 499 L 264 641 C 275 653 285 661 294 665 C 303 668 312 670 321 670 Z" unicode="" />
<glyph horiz-adv-x="620" d="M 392 730 L 673 730 L 667 706 C 666 701 664 698 660 696 C 656 694 648 690 637 686 C 622 680 612 676 607 673 C 602 669 598 662 596 650 L 419 -60 C 417 -68 417 -75 420 -80 C 423 -85 430 -90 442 -96 C 451 -100 457 -104 460 -106 C 462 -108 463 -111 462 -116 L 456 -140 L 327 -140 L 533 686 L 463 686 L 257 -140 L 128 -140 L 134 -116 C 135 -111 137 -108 141 -106 C 145 -104 152 -100 164 -96 C 178 -90 188 -85 194 -80 C 199 -75 203 -68 205 -60 L 298 311 C 288 311 272 312 250 314 C 228 316 206 322 184 332 C 162 342 142 359 126 382 C 109 404 101 436 101 476 C 101 511 107 544 119 575 C 131 606 149 633 173 656 C 197 678 227 696 264 710 C 300 723 343 730 392 730 Z M 308 352 L 391 684 C 355 684 325 676 302 661 C 279 646 261 627 249 605 C 236 582 227 557 223 531 C 218 504 216 479 216 457 C 216 425 222 399 235 380 C 248 361 272 352 308 352 Z" unicode="" />
<glyph horiz-adv-x="238" d="M 145 406 C 163 406 178 399 190 387 C 202 374 209 359 209 343 C 209 325 202 310 190 298 C 178 285 163 279 145 279 C 127 279 113 285 101 298 C 89 310 83 325 83 343 C 83 359 89 374 101 387 C 113 399 127 406 145 406 Z" unicode="" />
<glyph horiz-adv-x="400" d="M 200 -46 C 226 -46 247 -52 262 -64 C 276 -76 284 -93 284 -115 C 284 -135 275 -154 259 -174 C 242 -193 213 -203 171 -203 C 144 -203 121 -197 102 -186 C 82 -175 66 -164 54 -152 L 76 -124 C 86 -132 99 -141 114 -150 C 128 -159 146 -164 167 -164 C 185 -164 197 -158 203 -148 C 209 -137 212 -127 212 -119 C 212 -110 208 -102 201 -94 C 194 -86 182 -83 166 -83 C 163 -83 160 -83 156 -83 C 152 -83 148 -84 145 -85 L 194 0 L 226 0 L 200 -46 Z" unicode="" />
<glyph horiz-adv-x="328" d="M 279 729 L 315 729 L 228 382 C 226 375 227 370 231 366 C 234 362 240 360 249 359 C 257 357 264 355 270 352 C 275 348 277 343 275 337 L 269 315 L 85 315 L 90 336 C 91 342 95 347 103 351 C 111 354 119 357 129 359 C 138 360 144 362 147 366 C 149 369 152 374 154 382 L 224 657 L 157 657 L 165 691 L 279 729 Z" unicode="" />
<glyph horiz-adv-x="454" d="M 298 694 C 316 694 334 690 352 683 C 370 676 385 666 399 652 C 413 638 424 622 432 602 C 440 582 445 559 445 533 C 445 504 439 476 429 450 C 419 424 405 401 387 382 C 369 362 347 347 323 335 C 298 323 271 318 243 318 C 217 318 195 323 177 333 C 159 343 144 355 132 371 C 120 386 112 403 107 422 C 101 440 99 458 99 476 C 99 503 103 530 113 556 C 122 582 135 606 152 626 C 169 646 190 663 215 675 C 239 687 267 694 298 694 Z M 248 361 C 271 361 290 369 306 385 C 321 401 333 420 342 442 C 351 464 357 487 361 511 C 365 535 367 555 367 571 C 367 595 360 615 347 629 C 334 643 318 651 298 651 C 274 651 254 643 238 628 C 222 612 210 594 201 572 C 192 550 186 528 182 504 C 178 480 177 459 177 442 C 177 424 180 409 186 399 C 192 388 199 380 207 374 C 215 368 222 365 230 363 C 238 361 244 361 248 361 Z" unicode="" />
<glyph horiz-adv-x="492" d="M 436 256 C 438 252 440 248 442 244 C 444 240 445 235 445 231 C 445 223 442 215 438 209 C 433 202 428 196 423 192 L 261 50 L 203 50 L 350 229 L 276 398 L 334 398 L 436 256 Z M 241 256 C 243 252 245 248 247 244 C 249 240 250 235 250 231 C 250 223 247 215 243 209 C 238 202 233 196 228 192 L 66 50 L 8 50 L 156 229 L 81 398 L 139 398 L 241 256 Z" unicode="" />
<glyph horiz-adv-x="730" d="M 656 733 L 711 733 L 137 -10 L 82 -10 L 656 733 Z M 279 729 L 315 729 L 228 382 C 226 375 227 370 231 366 C 234 362 240 360 249 359 C 257 357 264 355 270 352 C 275 348 277 343 275 337 L 269 315 L 85 315 L 90 336 C 91 342 95 347 103 351 C 111 354 119 357 129 359 C 138 360 144 362 147 366 C 149 369 152 374 154 382 L 224 657 L 157 657 L 165 691 L 279 729 Z M 629 417 L 681 417 L 615 152 L 679 152 L 667 105 L 603 105 L 590 54 C 589 49 590 46 593 44 C 596 42 600 40 605 38 C 611 35 615 32 617 30 C 618 27 618 24 618 22 L 612 0 L 474 0 L 480 22 C 480 25 482 28 486 31 C 489 33 495 36 504 39 C 509 41 513 43 515 44 C 517 45 518 48 520 54 L 533 105 L 345 105 L 356 148 L 629 417 Z M 544 152 L 585 319 L 416 152 L 544 152 Z" unicode="" />
<glyph horiz-adv-x="795" d="M 656 733 L 711 733 L 137 -10 L 82 -10 L 656 733 Z M 279 729 L 315 729 L 228 382 C 226 375 227 370 231 366 C 234 362 240 360 249 359 C 257 357 264 355 270 352 C 275 348 277 343 275 337 L 269 315 L 85 315 L 90 336 C 91 342 95 347 103 351 C 111 354 119 357 129 359 C 138 360 144 362 147 366 C 149 369 152 374 154 382 L 224 657 L 157 657 L 165 691 L 279 729 Z M 620 417 C 660 417 692 406 716 385 C 740 364 753 339 753 309 C 753 288 747 269 737 251 C 727 233 714 217 698 203 C 682 189 666 176 648 164 C 630 152 613 141 597 133 C 570 118 549 106 534 97 C 518 88 504 77 491 65 L 630 65 C 640 65 647 66 653 70 C 659 74 664 81 669 92 C 671 98 674 101 678 103 C 681 105 685 106 690 106 L 713 106 L 685 0 L 405 0 L 417 48 C 433 67 455 88 484 110 C 512 132 541 154 570 175 C 602 199 628 221 646 242 C 664 263 673 287 673 314 C 673 331 666 346 654 358 C 641 370 624 376 604 376 C 592 376 581 373 569 369 C 557 365 549 359 545 353 C 550 348 554 343 557 338 C 560 332 562 326 562 320 C 562 307 558 297 551 290 C 543 283 533 280 520 280 C 505 280 494 284 486 292 C 478 300 475 311 475 323 C 475 345 489 367 518 387 C 547 407 581 417 620 417 Z" unicode="" />
<glyph horiz-adv-x="792" d="M 277 734 C 315 734 346 724 372 705 C 397 686 410 664 410 639 C 410 612 400 590 380 574 C 360 557 335 545 305 539 C 329 531 349 518 365 502 C 381 485 390 465 390 442 C 390 406 373 375 339 349 C 305 323 263 311 215 311 C 174 311 142 319 118 337 C 94 355 82 377 82 404 C 82 414 86 424 94 432 C 102 440 112 445 125 445 C 140 445 151 440 159 432 C 167 424 171 415 171 407 C 171 400 169 394 165 389 C 161 383 157 378 153 374 C 159 368 167 363 177 359 C 187 355 198 354 212 354 C 230 354 245 357 257 364 C 269 370 279 378 287 388 C 295 398 300 408 304 420 C 307 432 309 443 309 454 C 309 475 300 491 282 502 C 264 513 236 519 197 520 L 205 561 C 251 561 284 567 303 581 C 321 595 331 615 331 643 C 331 656 325 667 313 677 C 301 687 286 692 266 692 C 256 692 248 691 240 689 C 232 687 225 685 221 683 C 223 679 226 674 228 670 C 230 666 231 661 231 655 C 231 645 227 636 219 630 C 211 624 201 621 191 621 C 179 621 169 624 160 631 C 151 637 147 648 147 662 C 147 672 150 682 158 691 C 166 699 176 707 188 713 C 200 719 214 724 230 728 C 245 732 261 734 277 734 Z M 717 733 L 772 733 L 198 -10 L 143 -10 L 717 733 Z M 691 417 L 743 417 L 677 152 L 741 152 L 729 105 L 665 105 L 652 54 C 651 49 652 46 655 44 C 658 42 662 40 667 38 C 673 35 677 32 679 30 C 680 27 680 24 680 22 L 674 0 L 536 0 L 542 22 C 542 25 544 28 548 31 C 551 33 557 36 566 39 C 571 41 575 43 577 44 C 579 45 580 48 582 54 L 595 105 L 407 105 L 418 148 L 691 417 Z M 606 152 L 647 319 L 478 152 L 606 152 Z" unicode="" />
<glyph horiz-adv-x="423" d="M 273 547 C 290 547 305 540 317 528 C 329 515 335 500 335 483 C 335 466 329 451 317 439 C 305 426 290 420 273 420 C 255 420 239 426 227 439 C 215 451 209 466 209 483 C 209 500 215 515 227 528 C 239 540 255 547 273 547 Z M 266 -25 C 284 -25 299 -30 309 -42 C 319 -53 325 -66 325 -82 C 325 -96 321 -110 313 -124 C 305 -138 293 -150 278 -161 C 263 -172 245 -181 224 -188 C 202 -195 179 -199 153 -199 C 130 -199 108 -196 87 -190 C 66 -184 48 -175 32 -163 C 16 -151 3 -136 -6 -118 C -16 -100 -21 -80 -21 -57 C -21 -19 -10 11 10 37 C 31 62 59 90 94 121 C 140 161 172 197 190 229 C 208 261 221 297 230 337 C 230 339 233 342 238 344 C 242 346 248 348 254 348 C 260 348 266 346 270 342 C 274 338 275 336 275 334 C 270 304 260 270 245 233 C 229 195 207 158 179 121 C 161 97 146 78 134 62 C 121 46 111 31 103 17 C 95 3 89 -9 85 -23 C 81 -37 80 -53 80 -72 C 80 -104 88 -127 104 -141 C 120 -154 139 -161 160 -161 C 172 -161 186 -157 201 -151 C 216 -145 227 -136 235 -125 C 226 -116 220 -108 218 -101 C 215 -94 214 -88 214 -83 C 214 -64 219 -50 229 -40 C 239 -30 251 -25 266 -25 Z" unicode="" />
<glyph horiz-adv-x="677" d="M 412 929 L 546 801 L 523 782 L 360 855 C 344 861 333 869 325 879 C 317 889 314 898 314 908 C 314 919 318 929 326 939 C 334 948 345 953 359 953 C 366 953 374 951 383 948 C 392 945 402 939 412 929 Z M 607 45 C 617 40 624 37 626 35 C 628 33 629 29 629 25 L 623 0 L 407 0 L 412 20 C 412 24 415 28 419 30 C 423 32 431 36 443 42 C 453 46 461 51 466 56 C 470 60 473 66 473 73 C 473 77 472 82 472 89 C 471 95 470 102 470 109 L 457 205 L 173 205 L 111 110 C 108 105 104 98 98 88 C 92 78 89 70 89 65 C 89 59 91 53 97 49 C 102 45 108 41 116 39 C 124 35 130 31 133 27 C 136 23 137 19 136 15 L 133 0 L -59 0 L -54 20 C -53 24 -51 28 -47 31 C -43 34 -37 38 -29 43 C -12 52 0 60 7 68 C 14 76 23 88 35 105 L 390 633 L 380 683 C 379 685 379 688 379 690 C 379 692 379 693 380 695 C 380 696 381 697 382 699 C 383 700 385 701 388 703 C 400 709 412 714 422 719 C 432 723 442 729 454 735 C 455 735 457 736 460 738 C 463 740 466 741 468 741 C 470 741 472 740 473 739 C 474 738 475 736 476 734 L 573 90 C 574 80 578 71 584 63 C 590 55 597 49 607 45 Z M 205 255 L 449 255 L 405 560 L 205 255 Z" unicode="" />
<glyph horiz-adv-x="677" d="M 526 953 C 539 953 549 948 556 939 C 563 929 567 919 567 908 C 567 898 562 889 554 879 C 546 869 533 861 517 855 L 350 782 L 329 801 L 471 929 C 481 939 491 945 501 948 C 510 951 518 953 526 953 Z M 607 45 C 617 40 624 37 626 35 C 628 33 629 29 629 25 L 623 0 L 407 0 L 412 20 C 412 24 415 28 419 30 C 423 32 431 36 443 42 C 453 46 461 51 466 56 C 470 60 473 66 473 73 C 473 77 472 82 472 89 C 471 95 470 102 470 109 L 457 205 L 173 205 L 111 110 C 108 105 104 98 98 88 C 92 78 89 70 89 65 C 89 59 91 53 97 49 C 102 45 108 41 116 39 C 124 35 130 31 133 27 C 136 23 137 19 136 15 L 133 0 L -59 0 L -54 20 C -53 24 -51 28 -47 31 C -43 34 -37 38 -29 43 C -12 52 0 60 7 68 C 14 76 23 88 35 105 L 390 633 L 380 683 C 379 685 379 688 379 690 C 379 692 379 693 380 695 C 380 696 381 697 382 699 C 383 700 385 701 388 703 C 400 709 412 714 422 719 C 432 723 442 729 454 735 C 455 735 457 736 460 738 C 463 740 466 741 468 741 C 470 741 472 740 473 739 C 474 738 475 736 476 734 L 573 90 C 574 80 578 71 584 63 C 590 55 597 49 607 45 Z M 205 255 L 449 255 L 405 560 L 205 255 Z" unicode="" />
<glyph horiz-adv-x="677" d="M 508 951 L 607 778 L 567 778 L 469 874 L 317 778 L 275 778 L 448 951 L 508 951 Z M 607 45 C 617 40 624 37 626 35 C 628 33 629 29 629 25 L 623 0 L 407 0 L 412 20 C 412 24 415 28 419 30 C 423 32 431 36 443 42 C 453 46 461 51 466 56 C 470 60 473 66 473 73 C 473 77 472 82 472 89 C 471 95 470 102 470 109 L 457 205 L 173 205 L 111 110 C 108 105 104 98 98 88 C 92 78 89 70 89 65 C 89 59 91 53 97 49 C 102 45 108 41 116 39 C 124 35 130 31 133 27 C 136 23 137 19 136 15 L 133 0 L -59 0 L -54 20 C -53 24 -51 28 -47 31 C -43 34 -37 38 -29 43 C -12 52 0 60 7 68 C 14 76 23 88 35 105 L 390 633 L 380 683 C 379 685 379 688 379 690 C 379 692 379 693 380 695 C 380 696 381 697 382 699 C 383 700 385 701 388 703 C 400 709 412 714 422 719 C 432 723 442 729 454 735 C 455 735 457 736 460 738 C 463 740 466 741 468 741 C 470 741 472 740 473 739 C 474 738 475 736 476 734 L 573 90 C 574 80 578 71 584 63 C 590 55 597 49 607 45 Z M 205 255 L 449 255 L 405 560 L 205 255 Z" unicode="" />
<glyph horiz-adv-x="677" d="M 588 919 L 621 919 C 615 886 599 858 575 835 C 551 812 524 801 496 801 C 483 801 473 802 465 806 C 457 810 446 816 430 826 C 418 833 407 839 399 843 C 390 847 380 850 370 850 C 355 850 342 844 330 834 C 318 823 311 811 308 797 L 275 797 C 281 829 296 857 320 880 C 344 903 371 915 400 915 C 416 915 427 913 435 909 C 442 905 452 899 466 892 C 478 884 489 878 498 873 C 506 868 516 866 526 866 C 540 866 553 871 565 882 C 577 892 584 905 588 919 Z M 607 45 C 617 40 624 37 626 35 C 628 33 629 29 629 25 L 623 0 L 407 0 L 412 20 C 412 24 415 28 419 30 C 423 32 431 36 443 42 C 453 46 461 51 466 56 C 470 60 473 66 473 73 C 473 77 472 82 472 89 C 471 95 470 102 470 109 L 457 205 L 173 205 L 111 110 C 108 105 104 98 98 88 C 92 78 89 70 89 65 C 89 59 91 53 97 49 C 102 45 108 41 116 39 C 124 35 130 31 133 27 C 136 23 137 19 136 15 L 133 0 L -59 0 L -54 20 C -53 24 -51 28 -47 31 C -43 34 -37 38 -29 43 C -12 52 0 60 7 68 C 14 76 23 88 35 105 L 390 633 L 380 683 C 379 685 379 688 379 690 C 379 692 379 693 380 695 C 380 696 381 697 382 699 C 383 700 385 701 388 703 C 400 709 412 714 422 719 C 432 723 442 729 454 735 C 455 735 457 736 460 738 C 463 740 466 741 468 741 C 470 741 472 740 473 739 C 474 738 475 736 476 734 L 573 90 C 574 80 578 71 584 63 C 590 55 597 49 607 45 Z M 205 255 L 449 255 L 405 560 L 205 255 Z" unicode="" />
<glyph horiz-adv-x="677" d="M 542 908 C 556 908 569 902 581 891 C 592 879 598 866 598 852 C 598 837 592 824 581 813 C 569 801 556 796 542 796 C 527 796 514 801 503 813 C 491 824 486 837 486 852 C 486 866 491 879 503 891 C 514 902 527 908 542 908 Z M 328 908 C 342 908 355 902 367 891 C 378 879 384 866 384 852 C 384 837 378 824 367 813 C 355 801 342 796 328 796 C 313 796 300 801 289 813 C 277 824 272 837 272 852 C 272 866 277 879 289 891 C 300 902 313 908 328 908 Z M 607 45 C 617 40 624 37 626 35 C 628 33 629 29 629 25 L 623 0 L 407 0 L 412 20 C 412 24 415 28 419 30 C 423 32 431 36 443 42 C 453 46 461 51 466 56 C 470 60 473 66 473 73 C 473 77 472 82 472 89 C 471 95 470 102 470 109 L 457 205 L 173 205 L 111 110 C 108 105 104 98 98 88 C 92 78 89 70 89 65 C 89 59 91 53 97 49 C 102 45 108 41 116 39 C 124 35 130 31 133 27 C 136 23 137 19 136 15 L 133 0 L -59 0 L -54 20 C -53 24 -51 28 -47 31 C -43 34 -37 38 -29 43 C -12 52 0 60 7 68 C 14 76 23 88 35 105 L 390 633 L 380 683 C 379 685 379 688 379 690 C 379 692 379 693 380 695 C 380 696 381 697 382 699 C 383 700 385 701 388 703 C 400 709 412 714 422 719 C 432 723 442 729 454 735 C 455 735 457 736 460 738 C 463 740 466 741 468 741 C 470 741 472 740 473 739 C 474 738 475 736 476 734 L 573 90 C 574 80 578 71 584 63 C 590 55 597 49 607 45 Z M 205 255 L 449 255 L 405 560 L 205 255 Z" unicode="" />
<glyph horiz-adv-x="677" d="M 452 982 C 484 982 510 972 530 954 C 550 935 561 912 561 885 C 561 849 547 819 521 797 C 495 775 465 764 431 764 C 400 764 374 773 354 791 C 333 809 323 833 323 861 C 323 891 335 919 359 944 C 383 969 414 982 452 982 Z M 432 796 C 454 796 471 806 482 826 C 492 846 498 869 498 894 C 498 912 494 926 486 936 C 478 945 466 950 451 950 C 427 950 411 939 401 918 C 391 897 386 875 386 853 C 386 835 389 821 397 811 C 404 801 416 796 432 796 Z M 607 45 C 617 40 624 37 626 35 C 628 33 629 29 629 25 L 623 0 L 407 0 L 412 20 C 412 24 415 28 419 30 C 423 32 431 36 443 42 C 453 46 461 51 466 56 C 470 60 473 66 473 73 C 473 77 472 82 472 89 C 471 95 470 102 470 109 L 457 205 L 173 205 L 111 110 C 108 105 104 98 98 88 C 92 78 89 70 89 65 C 89 59 91 53 97 49 C 102 45 108 41 116 39 C 124 35 130 31 133 27 C 136 23 137 19 136 15 L 133 0 L -59 0 L -54 20 C -53 24 -51 28 -47 31 C -43 34 -37 38 -29 43 C -12 52 0 60 7 68 C 14 76 23 88 35 105 L 390 633 L 380 683 C 379 685 379 688 379 690 C 379 692 379 693 380 695 C 380 696 381 697 382 699 C 383 700 385 701 388 703 C 400 709 412 714 422 719 C 432 723 442 729 454 735 C 455 735 457 736 460 738 C 463 740 466 741 468 741 C 470 741 472 740 473 739 C 474 738 475 736 476 734 L 573 90 C 574 80 578 71 584 63 C 590 55 597 49 607 45 Z M 205 255 L 449 255 L 405 560 L 205 255 Z" unicode="" />
<glyph horiz-adv-x="962" d="M 910 730 C 922 730 939 731 960 733 C 980 735 995 737 1005 738 L 968 590 L 945 590 C 937 590 932 591 929 594 C 925 596 923 600 923 606 C 921 621 919 634 917 644 C 915 654 912 661 907 667 C 902 672 895 676 885 678 C 875 680 862 681 845 681 L 685 681 L 612 394 L 702 394 C 720 394 734 397 742 403 C 750 409 760 420 773 438 C 777 444 782 449 786 452 C 790 455 796 457 805 457 L 827 457 L 782 275 L 757 275 C 749 275 744 277 741 282 C 738 286 736 291 735 296 C 731 313 726 325 722 333 C 717 340 707 344 692 344 L 600 344 L 527 49 L 735 49 C 763 49 784 55 800 69 C 816 83 835 108 858 144 C 862 150 865 155 869 159 C 872 162 877 164 883 164 L 912 164 L 872 0 L 359 0 L 365 25 C 366 31 369 34 374 36 C 378 37 386 40 398 45 C 412 50 421 55 425 59 C 428 63 431 72 434 85 L 497 338 L 269 338 L 109 109 C 106 104 102 97 96 87 C 90 77 87 70 87 65 C 87 59 89 53 95 49 C 100 45 106 41 114 39 C 122 35 128 31 131 27 C 133 23 134 19 134 15 L 131 0 L -63 0 L -58 20 C -57 24 -55 28 -51 31 C -47 34 -41 38 -33 43 C -16 52 -3 61 4 70 C 12 78 21 89 30 101 L 397 616 C 399 620 404 628 410 638 C 416 648 420 656 420 662 C 420 668 416 672 410 676 C 404 680 397 683 390 686 C 381 690 375 693 373 697 C 370 701 369 705 370 710 L 375 730 L 910 730 Z M 563 613 C 564 619 565 627 567 635 C 568 643 569 651 569 657 C 569 664 567 671 565 678 C 562 684 556 688 548 688 C 533 688 520 682 509 671 C 498 660 487 647 477 632 L 305 389 L 509 389 L 563 613 Z" unicode="" />
<glyph horiz-adv-x="619" d="M 650 698 L 675 698 L 631 521 L 599 521 C 593 521 589 522 587 525 C 585 527 584 531 584 535 C 579 581 564 618 538 647 C 512 676 476 691 431 691 C 393 691 358 679 325 657 C 292 634 263 604 239 566 C 215 528 195 485 181 435 C 167 385 160 332 160 278 C 160 198 177 139 211 101 C 245 63 289 44 341 44 C 370 44 397 48 422 58 C 446 67 468 78 488 90 C 507 102 523 115 537 128 C 550 141 560 151 566 158 L 593 120 C 584 107 572 93 556 78 C 540 63 521 49 500 37 C 478 24 454 13 428 4 C 401 -4 372 -9 342 -10 L 321 -46 C 347 -46 368 -52 384 -64 C 400 -75 408 -91 408 -113 C 408 -136 397 -157 377 -175 C 357 -193 327 -203 287 -203 C 255 -203 229 -197 210 -185 C 191 -173 176 -161 166 -151 L 189 -123 C 199 -131 211 -140 227 -149 C 242 -157 259 -162 279 -162 C 296 -162 309 -158 319 -150 C 329 -142 334 -132 334 -121 C 334 -111 330 -103 323 -95 C 316 -87 304 -83 287 -83 C 284 -83 280 -83 276 -83 C 271 -83 267 -83 264 -84 L 308 -9 C 264 -6 226 3 194 21 C 162 38 135 60 114 88 C 93 116 77 148 67 185 C 56 221 51 260 51 302 C 51 368 61 428 83 482 C 105 536 133 582 168 620 C 202 658 242 687 286 708 C 330 729 374 740 419 740 C 466 740 502 735 526 725 C 550 715 575 704 599 690 C 603 687 607 685 611 684 C 615 682 619 683 625 686 C 632 690 637 693 640 695 C 642 697 646 698 650 698 Z" unicode="" />
<glyph horiz-adv-x="582" d="M 384 929 L 518 801 L 495 782 L 332 855 C 316 861 305 869 297 879 C 289 889 286 898 286 908 C 286 919 290 929 298 939 C 306 948 317 953 331 953 C 338 953 346 951 355 948 C 364 945 374 939 384 929 Z M 530 730 C 542 730 559 731 580 733 C 600 735 615 737 625 738 L 588 590 L 565 590 C 557 590 552 591 549 594 C 545 596 543 600 543 606 C 541 621 539 634 537 644 C 535 654 532 661 527 667 C 522 672 515 676 505 678 C 495 680 482 681 465 681 L 297 681 L 226 399 L 320 399 C 338 399 352 401 360 407 C 368 413 378 425 391 443 C 395 449 400 453 404 457 C 408 460 414 462 423 462 L 445 462 L 400 280 L 375 280 C 367 280 362 282 360 287 C 357 291 355 296 353 301 C 349 318 345 330 340 338 C 335 345 325 349 310 349 L 214 349 L 139 49 L 355 49 C 383 49 405 56 421 70 C 437 84 456 108 479 144 C 482 150 485 155 489 159 C 493 162 498 164 504 164 L 533 164 L 492 0 L -27 0 L -21 25 C -19 31 -17 34 -13 36 C -9 37 -1 40 10 45 C 24 50 33 55 37 59 C 40 63 43 72 46 85 L 183 633 C 184 639 185 644 186 650 C 187 655 188 659 188 662 C 188 667 185 671 181 675 C 176 678 170 681 162 685 C 154 688 149 690 145 692 C 141 693 139 696 139 700 C 139 701 139 703 140 706 C 140 709 141 712 142 715 L 146 730 L 530 730 Z" unicode="" />
<glyph horiz-adv-x="582" d="M 501 953 C 514 953 524 948 531 939 C 538 929 542 919 542 908 C 542 898 537 889 529 879 C 521 869 508 861 492 855 L 325 782 L 304 801 L 446 929 C 456 939 466 945 476 948 C 485 951 493 953 501 953 Z M 530 730 C 542 730 559 731 580 733 C 600 735 615 737 625 738 L 588 590 L 565 590 C 557 590 552 591 549 594 C 545 596 543 600 543 606 C 541 621 539 634 537 644 C 535 654 532 661 527 667 C 522 672 515 676 505 678 C 495 680 482 681 465 681 L 297 681 L 226 399 L 320 399 C 338 399 352 401 360 407 C 368 413 378 425 391 443 C 395 449 400 453 404 457 C 408 460 414 462 423 462 L 445 462 L 400 280 L 375 280 C 367 280 362 282 360 287 C 357 291 355 296 353 301 C 349 318 345 330 340 338 C 335 345 325 349 310 349 L 214 349 L 139 49 L 355 49 C 383 49 405 56 421 70 C 437 84 456 108 479 144 C 482 150 485 155 489 159 C 493 162 498 164 504 164 L 533 164 L 492 0 L -27 0 L -21 25 C -19 31 -17 34 -13 36 C -9 37 -1 40 10 45 C 24 50 33 55 37 59 C 40 63 43 72 46 85 L 183 633 C 184 639 185 644 186 650 C 187 655 188 659 188 662 C 188 667 185 671 181 675 C 176 678 170 681 162 685 C 154 688 149 690 145 692 C 141 693 139 696 139 700 C 139 701 139 703 140 706 C 140 709 141 712 142 715 L 146 730 L 530 730 Z" unicode="" />
<glyph horiz-adv-x="582" d="M 459 951 L 558 778 L 518 778 L 420 874 L 268 778 L 226 778 L 399 951 L 459 951 Z M 530 730 C 542 730 559 731 580 733 C 600 735 615 737 625 738 L 588 590 L 565 590 C 557 590 552 591 549 594 C 545 596 543 600 543 606 C 541 621 539 634 537 644 C 535 654 532 661 527 667 C 522 672 515 676 505 678 C 495 680 482 681 465 681 L 297 681 L 226 399 L 320 399 C 338 399 352 401 360 407 C 368 413 378 425 391 443 C 395 449 400 453 404 457 C 408 460 414 462 423 462 L 445 462 L 400 280 L 375 280 C 367 280 362 282 360 287 C 357 291 355 296 353 301 C 349 318 345 330 340 338 C 335 345 325 349 310 349 L 214 349 L 139 49 L 355 49 C 383 49 405 56 421 70 C 437 84 456 108 479 144 C 482 150 485 155 489 159 C 493 162 498 164 504 164 L 533 164 L 492 0 L -27 0 L -21 25 C -19 31 -17 34 -13 36 C -9 37 -1 40 10 45 C 24 50 33 55 37 59 C 40 63 43 72 46 85 L 183 633 C 184 639 185 644 186 650 C 187 655 188 659 188 662 C 188 667 185 671 181 675 C 176 678 170 681 162 685 C 154 688 149 690 145 692 C 141 693 139 696 139 700 C 139 701 139 703 140 706 C 140 709 141 712 142 715 L 146 730 L 530 730 Z" unicode="" />
<glyph horiz-adv-x="582" d="M 519 908 C 533 908 546 902 558 891 C 569 879 575 866 575 852 C 575 837 569 824 558 813 C 546 801 533 796 519 796 C 504 796 491 801 480 813 C 468 824 463 837 463 852 C 463 866 468 879 480 891 C 491 902 504 908 519 908 Z M 305 908 C 319 908 332 902 344 891 C 355 879 361 866 361 852 C 361 837 355 824 344 813 C 332 801 319 796 305 796 C 290 796 277 801 266 813 C 254 824 249 837 249 852 C 249 866 254 879 266 891 C 277 902 290 908 305 908 Z M 530 730 C 542 730 559 731 580 733 C 600 735 615 737 625 738 L 588 590 L 565 590 C 557 590 552 591 549 594 C 545 596 543 600 543 606 C 541 621 539 634 537 644 C 535 654 532 661 527 667 C 522 672 515 676 505 678 C 495 680 482 681 465 681 L 297 681 L 226 399 L 320 399 C 338 399 352 401 360 407 C 368 413 378 425 391 443 C 395 449 400 453 404 457 C 408 460 414 462 423 462 L 445 462 L 400 280 L 375 280 C 367 280 362 282 360 287 C 357 291 355 296 353 301 C 349 318 345 330 340 338 C 335 345 325 349 310 349 L 214 349 L 139 49 L 355 49 C 383 49 405 56 421 70 C 437 84 456 108 479 144 C 482 150 485 155 489 159 C 493 162 498 164 504 164 L 533 164 L 492 0 L -27 0 L -21 25 C -19 31 -17 34 -13 36 C -9 37 -1 40 10 45 C 24 50 33 55 37 59 C 40 63 43 72 46 85 L 183 633 C 184 639 185 644 186 650 C 187 655 188 659 188 662 C 188 667 185 671 181 675 C 176 678 170 681 162 685 C 154 688 149 690 145 692 C 141 693 139 696 139 700 C 139 701 139 703 140 706 C 140 709 141 712 142 715 L 146 730 L 530 730 Z" unicode="" />
<glyph horiz-adv-x="298" d="M 252 929 L 386 801 L 363 782 L 200 855 C 184 861 173 869 165 879 C 157 889 154 898 154 908 C 154 919 158 929 166 939 C 174 948 185 953 199 953 C 206 953 214 951 223 948 C 232 945 242 939 252 929 Z M 148 730 L 364 730 L 358 705 C 356 699 354 695 350 694 C 346 692 338 689 327 685 C 312 679 303 674 300 670 C 296 666 293 657 291 645 L 154 97 C 152 91 151 85 150 80 C 149 74 149 70 149 68 C 149 62 151 58 156 54 C 160 50 167 47 175 45 C 182 42 188 40 192 38 C 196 36 199 34 199 30 C 199 28 198 26 198 23 C 197 20 196 17 196 15 L 192 0 L -24 0 L -18 25 C -16 31 -14 34 -10 36 C -6 37 1 40 13 45 C 27 50 36 55 40 59 C 43 63 46 72 49 85 L 186 633 C 187 639 188 644 189 650 C 190 655 191 659 191 662 C 191 667 188 671 184 675 C 179 678 173 681 165 685 C 157 688 151 690 147 692 C 143 693 141 696 141 700 C 141 701 141 703 142 706 C 142 709 143 712 144 715 L 148 730 Z" unicode="" />
<glyph horiz-adv-x="298" d="M 354 953 C 367 953 377 948 384 939 C 391 929 395 919 395 908 C 395 898 390 889 382 879 C 374 869 361 861 345 855 L 178 782 L 157 801 L 299 929 C 309 939 319 945 329 948 C 338 951 346 953 354 953 Z M 148 730 L 364 730 L 358 705 C 356 699 354 695 350 694 C 346 692 338 689 327 685 C 312 679 303 674 300 670 C 296 666 293 657 291 645 L 154 97 C 152 91 151 85 150 80 C 149 74 149 70 149 68 C 149 62 151 58 156 54 C 160 50 167 47 175 45 C 182 42 188 40 192 38 C 196 36 199 34 199 30 C 199 28 198 26 198 23 C 197 20 196 17 196 15 L 192 0 L -24 0 L -18 25 C -16 31 -14 34 -10 36 C -6 37 1 40 13 45 C 27 50 36 55 40 59 C 43 63 46 72 49 85 L 186 633 C 187 639 188 644 189 650 C 190 655 191 659 191 662 C 191 667 188 671 184 675 C 179 678 173 681 165 685 C 157 688 151 690 147 692 C 143 693 141 696 141 700 C 141 701 141 703 142 706 C 142 709 143 712 144 715 L 148 730 Z" unicode="" />
<glyph horiz-adv-x="298" d="M 325 951 L 419 778 L 379 778 L 286 874 L 139 778 L 97 778 L 265 951 L 325 951 Z M 148 730 L 364 730 L 358 705 C 356 699 354 695 350 694 C 346 692 338 689 327 685 C 312 679 303 674 300 670 C 296 666 293 657 291 645 L 154 97 C 152 91 151 85 150 80 C 149 74 149 70 149 68 C 149 62 151 58 156 54 C 160 50 167 47 175 45 C 182 42 188 40 192 38 C 196 36 199 34 199 30 C 199 28 198 26 198 23 C 197 20 196 17 196 15 L 192 0 L -24 0 L -18 25 C -16 31 -14 34 -10 36 C -6 37 1 40 13 45 C 27 50 36 55 40 59 C 43 63 46 72 49 85 L 186 633 C 187 639 188 644 189 650 C 190 655 191 659 191 662 C 191 667 188 671 184 675 C 179 678 173 681 165 685 C 157 688 151 690 147 692 C 143 693 141 696 141 700 C 141 701 141 703 142 706 C 142 709 143 712 144 715 L 148 730 Z" unicode="" />
<glyph horiz-adv-x="298" d="M 374 908 C 388 908 401 902 413 891 C 424 879 430 866 430 852 C 430 837 424 824 413 813 C 401 801 388 796 374 796 C 359 796 346 801 335 813 C 323 824 318 837 318 852 C 318 866 323 879 335 891 C 346 902 359 908 374 908 Z M 171 908 C 185 908 198 902 210 891 C 221 879 227 866 227 852 C 227 837 221 824 210 813 C 198 801 185 796 171 796 C 156 796 143 801 132 813 C 120 824 115 837 115 852 C 115 866 120 879 132 891 C 143 902 156 908 171 908 Z M 148 730 L 364 730 L 358 705 C 356 699 354 695 350 694 C 346 692 338 689 327 685 C 312 679 303 674 300 670 C 296 666 293 657 291 645 L 154 97 C 152 91 151 85 150 80 C 149 74 149 70 149 68 C 149 62 151 58 156 54 C 160 50 167 47 175 45 C 182 42 188 40 192 38 C 196 36 199 34 199 30 C 199 28 198 26 198 23 C 197 20 196 17 196 15 L 192 0 L -24 0 L -18 25 C -16 31 -14 34 -10 36 C -6 37 1 40 13 45 C 27 50 36 55 40 59 C 43 63 46 72 49 85 L 186 633 C 187 639 188 644 189 650 C 190 655 191 659 191 662 C 191 667 188 671 184 675 C 179 678 173 681 165 685 C 157 688 151 690 147 692 C 143 693 141 696 141 700 C 141 701 141 703 142 706 C 142 709 143 712 144 715 L 148 730 Z" unicode="" />
<glyph horiz-adv-x="707" d="M 630 919 L 663 919 C 657 886 641 858 617 835 C 593 812 566 801 538 801 C 525 801 515 802 507 806 C 499 810 488 816 472 826 C 460 833 449 839 441 843 C 432 847 422 850 412 850 C 397 850 384 844 372 834 C 360 823 353 811 350 797 L 317 797 C 323 829 338 857 362 880 C 386 903 413 915 442 915 C 458 915 469 913 477 909 C 484 905 494 899 508 892 C 520 884 531 878 540 873 C 548 868 558 866 568 866 C 582 866 595 871 607 882 C 619 892 626 905 630 919 Z M 604 730 L 785 730 L 778 704 C 777 700 774 696 770 694 C 765 692 756 686 744 678 C 731 669 721 660 714 650 C 707 640 702 630 700 620 L 545 -5 L 504 -5 L 245 632 L 121 135 C 119 126 117 118 116 112 C 114 106 114 99 114 93 C 114 84 115 76 118 70 C 121 63 126 56 132 50 C 140 42 146 37 150 35 C 153 33 154 30 154 26 L 148 0 L -32 0 L -26 26 C -25 30 -22 33 -18 35 C -13 37 -4 43 8 52 C 20 60 30 69 37 79 C 44 89 49 99 52 110 L 183 633 C 184 638 185 643 186 649 C 187 655 188 659 188 662 C 188 667 185 671 181 675 C 176 678 170 681 162 685 C 154 688 149 690 145 692 C 141 693 139 696 139 700 C 139 701 139 703 140 706 C 140 709 141 712 142 715 L 146 730 L 314 730 L 531 190 L 631 595 C 633 603 634 610 636 617 C 637 623 638 630 638 637 C 638 645 636 653 633 660 C 630 666 626 673 620 680 C 611 688 605 693 601 695 C 597 697 596 700 597 704 L 604 730 Z" unicode="" />
<glyph horiz-adv-x="725" d="M 443 929 L 577 801 L 554 782 L 391 855 C 375 861 364 869 356 879 C 348 889 345 898 345 908 C 345 919 349 929 357 939 C 365 948 376 953 390 953 C 397 953 405 951 414 948 C 423 945 433 939 443 929 Z M 447 740 C 488 740 525 732 559 717 C 593 702 621 681 645 655 C 669 628 687 596 700 560 C 712 524 719 485 719 443 C 719 384 709 327 689 273 C 669 218 642 170 608 128 C 574 86 532 53 484 28 C 436 2 383 -10 327 -10 C 286 -10 249 -2 215 12 C 181 26 153 47 129 73 C 105 99 86 130 73 167 C 59 203 53 243 53 287 C 53 345 62 401 82 456 C 101 510 128 559 162 601 C 196 643 238 676 287 702 C 335 727 389 740 447 740 Z M 330 39 C 372 39 411 51 446 77 C 480 103 510 136 535 177 C 559 218 578 265 592 317 C 605 369 612 422 612 476 C 612 543 597 596 568 634 C 539 672 498 691 444 691 C 399 691 359 677 324 650 C 288 623 258 589 234 547 C 210 505 191 458 179 406 C 166 354 160 304 160 255 C 160 187 174 134 204 96 C 233 58 275 39 330 39 Z" unicode="" />
<glyph horiz-adv-x="725" d="M 532 953 C 545 953 555 948 562 939 C 569 929 573 919 573 908 C 573 898 568 889 560 879 C 552 869 539 861 523 855 L 356 782 L 335 801 L 477 929 C 487 939 497 945 507 948 C 516 951 524 953 532 953 Z M 447 740 C 488 740 525 732 559 717 C 593 702 621 681 645 655 C 669 628 687 596 700 560 C 712 524 719 485 719 443 C 719 384 709 327 689 273 C 669 218 642 170 608 128 C 574 86 532 53 484 28 C 436 2 383 -10 327 -10 C 286 -10 249 -2 215 12 C 181 26 153 47 129 73 C 105 99 86 130 73 167 C 59 203 53 243 53 287 C 53 345 62 401 82 456 C 101 510 128 559 162 601 C 196 643 238 676 287 702 C 335 727 389 740 447 740 Z M 330 39 C 372 39 411 51 446 77 C 480 103 510 136 535 177 C 559 218 578 265 592 317 C 605 369 612 422 612 476 C 612 543 597 596 568 634 C 539 672 498 691 444 691 C 399 691 359 677 324 650 C 288 623 258 589 234 547 C 210 505 191 458 179 406 C 166 354 160 304 160 255 C 160 187 174 134 204 96 C 233 58 275 39 330 39 Z" unicode="" />
<glyph horiz-adv-x="725" d="M 512 951 L 611 778 L 571 778 L 473 874 L 321 778 L 279 778 L 452 951 L 512 951 Z M 447 740 C 488 740 525 732 559 717 C 593 702 621 681 645 655 C 669 628 687 596 700 560 C 712 524 719 485 719 443 C 719 384 709 327 689 273 C 669 218 642 170 608 128 C 574 86 532 53 484 28 C 436 2 383 -10 327 -10 C 286 -10 249 -2 215 12 C 181 26 153 47 129 73 C 105 99 86 130 73 167 C 59 203 53 243 53 287 C 53 345 62 401 82 456 C 101 510 128 559 162 601 C 196 643 238 676 287 702 C 335 727 389 740 447 740 Z M 330 39 C 372 39 411 51 446 77 C 480 103 510 136 535 177 C 559 218 578 265 592 317 C 605 369 612 422 612 476 C 612 543 597 596 568 634 C 539 672 498 691 444 691 C 399 691 359 677 324 650 C 288 623 258 589 234 547 C 210 505 191 458 179 406 C 166 354 160 304 160 255 C 160 187 174 134 204 96 C 233 58 275 39 330 39 Z" unicode="" />
<glyph horiz-adv-x="725" d="M 606 919 L 639 919 C 633 886 617 858 593 835 C 569 812 542 801 514 801 C 501 801 491 802 483 806 C 475 810 464 816 448 826 C 436 833 425 839 417 843 C 408 847 398 850 388 850 C 373 850 360 844 348 834 C 336 823 329 811 326 797 L 293 797 C 299 829 314 857 338 880 C 362 903 389 915 418 915 C 434 915 445 913 453 909 C 460 905 470 899 484 892 C 496 884 507 878 516 873 C 524 868 534 866 544 866 C 558 866 571 871 583 882 C 595 892 602 905 606 919 Z M 447 740 C 488 740 525 732 559 717 C 593 702 621 681 645 655 C 669 628 687 596 700 560 C 712 524 719 485 719 443 C 719 384 709 327 689 273 C 669 218 642 170 608 128 C 574 86 532 53 484 28 C 436 2 383 -10 327 -10 C 286 -10 249 -2 215 12 C 181 26 153 47 129 73 C 105 99 86 130 73 167 C 59 203 53 243 53 287 C 53 345 62 401 82 456 C 101 510 128 559 162 601 C 196 643 238 676 287 702 C 335 727 389 740 447 740 Z M 330 39 C 372 39 411 51 446 77 C 480 103 510 136 535 177 C 559 218 578 265 592 317 C 605 369 612 422 612 476 C 612 543 597 596 568 634 C 539 672 498 691 444 691 C 399 691 359 677 324 650 C 288 623 258 589 234 547 C 210 505 191 458 179 406 C 166 354 160 304 160 255 C 160 187 174 134 204 96 C 233 58 275 39 330 39 Z" unicode="" />
<glyph horiz-adv-x="725" d="M 581 908 C 595 908 608 902 620 891 C 631 879 637 866 637 852 C 637 837 631 824 620 813 C 608 801 595 796 581 796 C 566 796 553 801 542 813 C 530 824 525 837 525 852 C 525 866 530 879 542 891 C 553 902 566 908 581 908 Z M 367 908 C 381 908 394 902 406 891 C 417 879 423 866 423 852 C 423 837 417 824 406 813 C 394 801 381 796 367 796 C 352 796 339 801 328 813 C 316 824 311 837 311 852 C 311 866 316 879 328 891 C 339 902 352 908 367 908 Z M 447 740 C 488 740 525 732 559 717 C 593 702 621 681 645 655 C 669 628 687 596 700 560 C 712 524 719 485 719 443 C 719 384 709 327 689 273 C 669 218 642 170 608 128 C 574 86 532 53 484 28 C 436 2 383 -10 327 -10 C 286 -10 249 -2 215 12 C 181 26 153 47 129 73 C 105 99 86 130 73 167 C 59 203 53 243 53 287 C 53 345 62 401 82 456 C 101 510 128 559 162 601 C 196 643 238 676 287 702 C 335 727 389 740 447 740 Z M 330 39 C 372 39 411 51 446 77 C 480 103 510 136 535 177 C 559 218 578 265 592 317 C 605 369 612 422 612 476 C 612 543 597 596 568 634 C 539 672 498 691 444 691 C 399 691 359 677 324 650 C 288 623 258 589 234 547 C 210 505 191 458 179 406 C 166 354 160 304 160 255 C 160 187 174 134 204 96 C 233 58 275 39 330 39 Z" unicode="" />
<glyph horiz-adv-x="750" d="M 435 293 L 627 102 L 583 58 L 392 250 L 201 58 L 157 102 L 349 293 L 157 484 L 201 528 L 392 336 L 583 528 L 627 484 L 435 293 Z" unicode="" />
<glyph horiz-adv-x="725" d="M 665 768 L 723 768 L 639 659 C 664 632 684 600 698 563 C 712 526 719 486 719 443 C 719 384 709 327 689 273 C 669 218 642 170 608 128 C 574 86 532 53 484 28 C 436 2 383 -10 327 -10 C 296 -10 267 -5 240 3 C 213 11 189 24 167 41 L 98 -48 L 40 -48 L 132 72 C 107 98 88 129 74 166 C 60 202 53 243 53 287 C 53 345 62 401 82 456 C 101 510 128 559 162 601 C 196 643 238 676 287 702 C 335 727 389 740 447 740 C 477 740 506 735 533 727 C 559 718 583 706 605 690 L 665 768 Z M 179 132 L 566 639 C 551 655 533 668 513 677 C 493 686 470 691 444 691 C 399 691 359 677 323 651 C 287 624 257 590 233 548 C 209 506 190 459 177 407 C 164 355 158 305 158 255 C 158 231 159 208 163 187 C 167 166 172 148 179 132 Z M 330 39 C 372 39 411 51 446 77 C 481 102 511 135 536 176 C 560 216 579 263 593 316 C 607 368 614 422 614 476 C 614 499 612 521 608 542 C 604 563 598 582 592 599 L 205 91 C 219 74 237 61 258 52 C 279 43 303 39 330 39 Z" unicode="" />
<glyph horiz-adv-x="708" d="M 453 929 L 587 801 L 564 782 L 401 855 C 385 861 374 869 366 879 C 358 889 355 898 355 908 C 355 919 359 929 367 939 C 375 948 386 953 400 953 C 407 953 415 951 424 948 C 433 945 443 939 453 929 Z M 610 730 L 793 730 L 786 704 C 785 700 782 696 778 694 C 773 692 764 686 752 678 C 739 669 729 660 722 650 C 715 640 710 630 708 620 L 617 258 C 608 224 595 191 579 159 C 563 127 542 98 517 73 C 492 48 463 28 429 13 C 395 -2 356 -10 312 -10 C 232 -10 172 8 132 45 C 92 82 73 129 73 185 C 73 195 74 208 76 222 C 78 236 81 248 84 259 L 177 633 C 178 639 179 644 180 650 C 181 655 182 659 182 662 C 182 667 179 671 175 675 C 170 678 164 681 156 685 C 148 688 143 690 139 692 C 135 693 133 696 133 700 C 133 701 133 703 134 706 C 134 709 135 712 136 715 L 140 730 L 354 730 L 348 705 C 346 699 344 695 340 694 C 336 692 329 689 318 685 C 303 679 294 674 291 670 C 287 666 284 657 282 645 L 187 265 C 184 254 182 242 180 229 C 178 216 177 205 177 196 C 177 154 190 120 218 95 C 245 70 282 58 329 58 C 395 58 445 76 479 113 C 513 149 538 201 555 267 L 637 595 C 639 603 640 610 642 617 C 643 623 644 630 644 637 C 644 645 642 653 639 660 C 636 666 632 673 626 680 C 617 688 611 693 607 695 C 603 697 602 700 603 704 L 610 730 Z" unicode="" />
<glyph horiz-adv-x="708" d="M 554 953 C 567 953 577 948 584 939 C 591 929 595 919 595 908 C 595 898 590 889 582 879 C 574 869 561 861 545 855 L 378 782 L 357 801 L 499 929 C 509 939 519 945 529 948 C 538 951 546 953 554 953 Z M 610 730 L 793 730 L 786 704 C 785 700 782 696 778 694 C 773 692 764 686 752 678 C 739 669 729 660 722 650 C 715 640 710 630 708 620 L 617 258 C 608 224 595 191 579 159 C 563 127 542 98 517 73 C 492 48 463 28 429 13 C 395 -2 356 -10 312 -10 C 232 -10 172 8 132 45 C 92 82 73 129 73 185 C 73 195 74 208 76 222 C 78 236 81 248 84 259 L 177 633 C 178 639 179 644 180 650 C 181 655 182 659 182 662 C 182 667 179 671 175 675 C 170 678 164 681 156 685 C 148 688 143 690 139 692 C 135 693 133 696 133 700 C 133 701 133 703 134 706 C 134 709 135 712 136 715 L 140 730 L 354 730 L 348 705 C 346 699 344 695 340 694 C 336 692 329 689 318 685 C 303 679 294 674 291 670 C 287 666 284 657 282 645 L 187 265 C 184 254 182 242 180 229 C 178 216 177 205 177 196 C 177 154 190 120 218 95 C 245 70 282 58 329 58 C 395 58 445 76 479 113 C 513 149 538 201 555 267 L 637 595 C 639 603 640 610 642 617 C 643 623 644 630 644 637 C 644 645 642 653 639 660 C 636 666 632 673 626 680 C 617 688 611 693 607 695 C 603 697 602 700 603 704 L 610 730 Z" unicode="" />
<glyph horiz-adv-x="708" d="M 538 951 L 637 778 L 597 778 L 499 874 L 347 778 L 305 778 L 478 951 L 538 951 Z M 610 730 L 793 730 L 786 704 C 785 700 782 696 778 694 C 773 692 764 686 752 678 C 739 669 729 660 722 650 C 715 640 710 630 708 620 L 617 258 C 608 224 595 191 579 159 C 563 127 542 98 517 73 C 492 48 463 28 429 13 C 395 -2 356 -10 312 -10 C 232 -10 172 8 132 45 C 92 82 73 129 73 185 C 73 195 74 208 76 222 C 78 236 81 248 84 259 L 177 633 C 178 639 179 644 180 650 C 181 655 182 659 182 662 C 182 667 179 671 175 675 C 170 678 164 681 156 685 C 148 688 143 690 139 692 C 135 693 133 696 133 700 C 133 701 133 703 134 706 C 134 709 135 712 136 715 L 140 730 L 354 730 L 348 705 C 346 699 344 695 340 694 C 336 692 329 689 318 685 C 303 679 294 674 291 670 C 287 666 284 657 282 645 L 187 265 C 184 254 182 242 180 229 C 178 216 177 205 177 196 C 177 154 190 120 218 95 C 245 70 282 58 329 58 C 395 58 445 76 479 113 C 513 149 538 201 555 267 L 637 595 C 639 603 640 610 642 617 C 643 623 644 630 644 637 C 644 645 642 653 639 660 C 636 666 632 673 626 680 C 617 688 611 693 607 695 C 603 697 602 700 603 704 L 610 730 Z" unicode="" />
<glyph horiz-adv-x="708" d="M 593 908 C 607 908 620 902 632 891 C 643 879 649 866 649 852 C 649 837 643 824 632 813 C 620 801 607 796 593 796 C 578 796 565 801 554 813 C 542 824 537 837 537 852 C 537 866 542 879 554 891 C 565 902 578 908 593 908 Z M 379 908 C 393 908 406 902 418 891 C 429 879 435 866 435 852 C 435 837 429 824 418 813 C 406 801 393 796 379 796 C 364 796 351 801 340 813 C 328 824 323 837 323 852 C 323 866 328 879 340 891 C 351 902 364 908 379 908 Z M 610 730 L 793 730 L 786 704 C 785 700 782 696 778 694 C 773 692 764 686 752 678 C 739 669 729 660 722 650 C 715 640 710 630 708 620 L 617 258 C 608 224 595 191 579 159 C 563 127 542 98 517 73 C 492 48 463 28 429 13 C 395 -2 356 -10 312 -10 C 232 -10 172 8 132 45 C 92 82 73 129 73 185 C 73 195 74 208 76 222 C 78 236 81 248 84 259 L 177 633 C 178 639 179 644 180 650 C 181 655 182 659 182 662 C 182 667 179 671 175 675 C 170 678 164 681 156 685 C 148 688 143 690 139 692 C 135 693 133 696 133 700 C 133 701 133 703 134 706 C 134 709 135 712 136 715 L 140 730 L 354 730 L 348 705 C 346 699 344 695 340 694 C 336 692 329 689 318 685 C 303 679 294 674 291 670 C 287 666 284 657 282 645 L 187 265 C 184 254 182 242 180 229 C 178 216 177 205 177 196 C 177 154 190 120 218 95 C 245 70 282 58 329 58 C 395 58 445 76 479 113 C 513 149 538 201 555 267 L 637 595 C 639 603 640 610 642 617 C 643 623 644 630 644 637 C 644 645 642 653 639 660 C 636 666 632 673 626 680 C 617 688 611 693 607 695 C 603 697 602 700 603 704 L 610 730 Z" unicode="" />
<glyph horiz-adv-x="619" d="M 537 953 C 550 953 560 948 567 939 C 574 929 578 919 578 908 C 578 898 573 889 565 879 C 557 869 544 861 528 855 L 361 782 L 340 801 L 482 929 C 492 939 502 945 512 948 C 521 951 529 953 537 953 Z M 539 730 L 732 730 L 727 710 C 725 705 723 701 719 699 C 715 696 709 692 701 688 C 685 680 673 673 665 668 C 657 663 645 650 627 630 L 374 334 L 315 97 C 313 91 312 85 311 80 C 310 74 310 70 310 68 C 310 62 312 58 317 54 C 321 50 328 47 336 45 C 343 42 349 40 353 38 C 357 36 360 34 360 30 C 360 28 359 26 359 23 C 358 20 357 17 357 15 L 353 0 L 137 0 L 143 25 C 144 31 147 34 151 36 C 155 37 162 40 174 45 C 188 50 197 55 201 59 C 204 63 207 72 210 85 L 271 332 L 150 643 C 146 653 141 661 135 668 C 129 674 121 680 111 685 C 101 689 94 693 92 695 C 90 697 89 700 90 705 L 96 730 L 314 730 L 310 714 C 308 708 306 704 304 702 C 301 700 294 696 282 691 C 273 687 266 683 261 679 C 256 675 254 671 254 667 C 254 664 255 659 257 651 C 259 643 260 638 262 634 L 354 391 L 558 633 C 563 639 568 647 574 655 C 580 663 583 668 583 671 C 583 676 580 680 575 683 C 569 685 563 688 557 691 C 547 695 541 698 538 702 C 534 705 533 709 535 714 L 539 730 Z" unicode="" />
<glyph horiz-adv-x="523" d="M 369 729 C 411 729 447 716 477 692 C 507 667 522 632 522 587 C 522 546 509 506 484 468 C 459 430 414 402 348 386 C 405 373 445 350 467 318 C 489 285 500 248 500 208 C 500 178 494 150 483 124 C 472 98 457 75 439 55 C 420 35 398 19 373 7 C 347 -4 321 -10 293 -10 C 265 -10 240 -4 218 6 C 196 16 186 35 186 63 C 186 75 190 86 199 96 C 208 106 219 111 231 111 C 242 111 251 107 258 101 C 265 94 269 84 269 72 C 269 69 268 65 266 60 C 264 54 261 47 255 38 C 259 35 264 33 271 31 C 278 29 283 29 286 29 C 308 29 327 36 343 52 C 358 67 370 85 380 107 C 389 128 396 150 400 173 C 404 195 407 214 407 229 C 407 273 397 306 377 327 C 357 347 327 358 287 358 C 277 358 270 360 265 365 C 260 370 258 376 258 384 C 258 393 261 401 269 407 C 277 413 286 417 296 417 L 330 417 C 350 417 366 423 380 436 C 394 449 405 465 413 483 C 421 501 427 521 431 541 C 434 561 436 578 436 592 C 436 614 431 634 421 654 C 411 673 391 683 361 683 C 337 683 317 676 301 664 C 285 652 273 637 263 620 C 253 602 246 584 241 564 C 236 544 232 528 229 514 L 111 0 L 20 0 L 133 493 C 141 526 151 557 164 586 C 176 615 192 640 212 661 C 231 682 254 699 280 711 C 306 723 335 729 369 729 Z" unicode="" />
<glyph horiz-adv-x="489" d="M 278 641 L 397 499 L 373 482 L 220 572 C 205 580 194 589 188 598 C 182 606 179 615 179 625 C 179 637 183 647 191 656 C 199 665 210 670 223 670 C 231 670 240 668 249 665 C 257 661 267 653 278 641 Z M 455 64 L 463 30 C 455 23 441 15 421 5 C 400 -4 378 -9 354 -9 C 326 -9 309 -1 301 14 C 293 29 289 44 289 60 C 271 43 251 27 229 13 C 206 0 181 -8 155 -8 C 108 -8 73 6 51 35 C 29 64 18 101 18 147 C 18 186 25 223 39 258 C 53 293 73 324 97 350 C 121 376 149 396 181 412 C 213 427 248 435 284 435 C 306 435 324 431 338 425 C 351 419 364 410 378 400 C 380 398 384 396 388 396 C 392 395 395 396 398 399 L 436 432 C 438 434 441 435 444 436 C 447 436 450 437 452 437 C 454 437 457 436 460 434 C 462 432 463 429 463 426 L 378 95 C 377 90 376 86 375 82 C 374 78 374 74 374 71 C 374 64 376 58 381 52 C 385 46 393 44 404 44 C 412 44 420 46 428 50 C 436 54 445 58 455 64 Z M 289 98 L 353 352 C 346 360 337 368 326 376 C 314 384 300 388 284 388 C 254 388 228 380 207 366 C 185 351 168 332 154 310 C 140 287 129 262 123 234 C 117 206 114 178 114 152 C 114 118 121 92 135 76 C 149 60 169 52 194 52 C 212 52 229 56 243 65 C 257 73 272 84 289 98 Z" unicode="" />
<glyph horiz-adv-x="489" d="M 391 670 C 403 670 413 665 421 656 C 429 647 433 637 433 625 C 433 616 429 607 421 598 C 413 589 402 580 388 572 L 229 482 L 205 499 L 334 641 C 345 653 355 661 364 665 C 373 668 382 670 391 670 Z M 455 64 L 463 30 C 455 23 441 15 421 5 C 400 -4 378 -9 354 -9 C 326 -9 309 -1 301 14 C 293 29 289 44 289 60 C 271 43 251 27 229 13 C 206 0 181 -8 155 -8 C 108 -8 73 6 51 35 C 29 64 18 101 18 147 C 18 186 25 223 39 258 C 53 293 73 324 97 350 C 121 376 149 396 181 412 C 213 427 248 435 284 435 C 306 435 324 431 338 425 C 351 419 364 410 378 400 C 380 398 384 396 388 396 C 392 395 395 396 398 399 L 436 432 C 438 434 441 435 444 436 C 447 436 450 437 452 437 C 454 437 457 436 460 434 C 462 432 463 429 463 426 L 378 95 C 377 90 376 86 375 82 C 374 78 374 74 374 71 C 374 64 376 58 381 52 C 385 46 393 44 404 44 C 412 44 420 46 428 50 C 436 54 445 58 455 64 Z M 289 98 L 353 352 C 346 360 337 368 326 376 C 314 384 300 388 284 388 C 254 388 228 380 207 366 C 185 351 168 332 154 310 C 140 287 129 262 123 234 C 117 206 114 178 114 152 C 114 118 121 92 135 76 C 149 60 169 52 194 52 C 212 52 229 56 243 65 C 257 73 272 84 289 98 Z" unicode="" />
<glyph horiz-adv-x="489" d="M 358 656 L 446 478 L 406 478 L 315 579 L 173 478 L 132 478 L 298 656 L 358 656 Z M 455 64 L 463 30 C 455 23 441 15 421 5 C 400 -4 378 -9 354 -9 C 326 -9 309 -1 301 14 C 293 29 289 44 289 60 C 271 43 251 27 229 13 C 206 0 181 -8 155 -8 C 108 -8 73 6 51 35 C 29 64 18 101 18 147 C 18 186 25 223 39 258 C 53 293 73 324 97 350 C 121 376 149 396 181 412 C 213 427 248 435 284 435 C 306 435 324 431 338 425 C 351 419 364 410 378 400 C 380 398 384 396 388 396 C 392 395 395 396 398 399 L 436 432 C 438 434 441 435 444 436 C 447 436 450 437 452 437 C 454 437 457 436 460 434 C 462 432 463 429 463 426 L 378 95 C 377 90 376 86 375 82 C 374 78 374 74 374 71 C 374 64 376 58 381 52 C 385 46 393 44 404 44 C 412 44 420 46 428 50 C 436 54 445 58 455 64 Z M 289 98 L 353 352 C 346 360 337 368 326 376 C 314 384 300 388 284 388 C 254 388 228 380 207 366 C 185 351 168 332 154 310 C 140 287 129 262 123 234 C 117 206 114 178 114 152 C 114 118 121 92 135 76 C 149 60 169 52 194 52 C 212 52 229 56 243 65 C 257 73 272 84 289 98 Z" unicode="" />
<glyph horiz-adv-x="489" d="M 419 625 L 451 625 C 445 592 431 564 410 541 C 389 518 365 507 339 507 C 327 507 317 508 309 512 C 301 515 290 522 277 532 C 266 540 257 546 249 550 C 241 554 233 556 223 556 C 209 556 198 550 188 540 C 178 529 171 517 168 503 L 136 503 C 141 535 154 563 175 586 C 196 609 220 621 247 621 C 261 621 272 619 280 615 C 288 611 297 606 309 598 C 321 589 330 582 338 578 C 346 574 354 572 363 572 C 376 572 388 577 398 588 C 408 598 415 611 419 625 Z M 455 64 L 463 30 C 455 23 441 15 421 5 C 400 -4 378 -9 354 -9 C 326 -9 309 -1 301 14 C 293 29 289 44 289 60 C 271 43 251 27 229 13 C 206 0 181 -8 155 -8 C 108 -8 73 6 51 35 C 29 64 18 101 18 147 C 18 186 25 223 39 258 C 53 293 73 324 97 350 C 121 376 149 396 181 412 C 213 427 248 435 284 435 C 306 435 324 431 338 425 C 351 419 364 410 378 400 C 380 398 384 396 388 396 C 392 395 395 396 398 399 L 436 432 C 438 434 441 435 444 436 C 447 436 450 437 452 437 C 454 437 457 436 460 434 C 462 432 463 429 463 426 L 378 95 C 377 90 376 86 375 82 C 374 78 374 74 374 71 C 374 64 376 58 381 52 C 385 46 393 44 404 44 C 412 44 420 46 428 50 C 436 54 445 58 455 64 Z M 289 98 L 353 352 C 346 360 337 368 326 376 C 314 384 300 388 284 388 C 254 388 228 380 207 366 C 185 351 168 332 154 310 C 140 287 129 262 123 234 C 117 206 114 178 114 152 C 114 118 121 92 135 76 C 149 60 169 52 194 52 C 212 52 229 56 243 65 C 257 73 272 84 289 98 Z" unicode="" />
<glyph horiz-adv-x="489" d="M 391 613 C 405 613 418 607 430 596 C 441 584 447 571 447 557 C 447 542 441 529 430 518 C 418 506 405 501 391 501 C 376 501 363 506 352 518 C 340 529 335 542 335 557 C 335 571 340 584 352 596 C 363 607 376 613 391 613 Z M 201 613 C 215 613 228 607 240 596 C 251 584 257 571 257 557 C 257 542 251 529 240 518 C 228 506 215 501 201 501 C 186 501 173 506 162 518 C 150 529 145 542 145 557 C 145 571 150 584 162 596 C 173 607 186 613 201 613 Z M 455 64 L 463 30 C 455 23 441 15 421 5 C 400 -4 378 -9 354 -9 C 326 -9 309 -1 301 14 C 293 29 289 44 289 60 C 271 43 251 27 229 13 C 206 0 181 -8 155 -8 C 108 -8 73 6 51 35 C 29 64 18 101 18 147 C 18 186 25 223 39 258 C 53 293 73 324 97 350 C 121 376 149 396 181 412 C 213 427 248 435 284 435 C 306 435 324 431 338 425 C 351 419 364 410 378 400 C 380 398 384 396 388 396 C 392 395 395 396 398 399 L 436 432 C 438 434 441 435 444 436 C 447 436 450 437 452 437 C 454 437 457 436 460 434 C 462 432 463 429 463 426 L 378 95 C 377 90 376 86 375 82 C 374 78 374 74 374 71 C 374 64 376 58 381 52 C 385 46 393 44 404 44 C 412 44 420 46 428 50 C 436 54 445 58 455 64 Z M 289 98 L 353 352 C 346 360 337 368 326 376 C 314 384 300 388 284 388 C 254 388 228 380 207 366 C 185 351 168 332 154 310 C 140 287 129 262 123 234 C 117 206 114 178 114 152 C 114 118 121 92 135 76 C 149 60 169 52 194 52 C 212 52 229 56 243 65 C 257 73 272 84 289 98 Z" unicode="" />
<glyph horiz-adv-x="489" d="M 306 701 C 338 701 363 691 383 673 C 402 654 412 631 412 604 C 412 570 399 541 374 518 C 348 494 319 483 285 483 C 254 483 229 492 209 510 C 189 528 180 552 180 580 C 180 594 183 608 189 623 C 195 637 203 650 214 662 C 225 673 238 682 254 690 C 270 697 287 701 306 701 Z M 286 515 C 308 515 325 525 337 545 C 348 565 354 588 354 613 C 354 633 349 647 341 656 C 332 664 320 669 305 669 C 281 669 264 658 254 637 C 243 616 238 594 238 572 C 238 554 241 540 249 530 C 257 520 269 515 286 515 Z M 455 64 L 463 30 C 455 23 441 15 421 5 C 400 -4 378 -9 354 -9 C 326 -9 309 -1 301 14 C 293 29 289 44 289 60 C 271 43 251 27 229 13 C 206 0 181 -8 155 -8 C 108 -8 73 6 51 35 C 29 64 18 101 18 147 C 18 186 25 223 39 258 C 53 293 73 324 97 350 C 121 376 149 396 181 412 C 213 427 248 435 284 435 C 306 435 324 431 338 425 C 351 419 364 410 378 400 C 380 398 384 396 388 396 C 392 395 395 396 398 399 L 436 432 C 438 434 441 435 444 436 C 447 436 450 437 452 437 C 454 437 457 436 460 434 C 462 432 463 429 463 426 L 378 95 C 377 90 376 86 375 82 C 374 78 374 74 374 71 C 374 64 376 58 381 52 C 385 46 393 44 404 44 C 412 44 420 46 428 50 C 436 54 445 58 455 64 Z M 289 98 L 353 352 C 346 360 337 368 326 376 C 314 384 300 388 284 388 C 254 388 228 380 207 366 C 185 351 168 332 154 310 C 140 287 129 262 123 234 C 117 206 114 178 114 152 C 114 118 121 92 135 76 C 149 60 169 52 194 52 C 212 52 229 56 243 65 C 257 73 272 84 289 98 Z" unicode="" />
<glyph horiz-adv-x="680" d="M 552 434 C 590 434 620 425 642 407 C 664 389 675 366 675 338 C 675 306 666 281 648 262 C 630 243 608 229 583 219 C 557 209 531 202 504 199 C 477 196 455 195 437 195 L 390 195 C 390 189 389 185 389 181 C 389 177 389 173 389 171 C 389 121 400 88 422 71 C 444 54 469 46 496 46 C 518 46 541 52 565 65 C 589 78 615 97 642 122 L 661 94 C 656 87 649 78 639 66 C 629 54 617 43 601 32 C 585 20 567 11 545 3 C 523 -5 497 -9 468 -9 C 426 -9 393 0 371 17 C 349 34 331 54 319 76 C 289 44 262 22 237 10 C 212 -1 185 -8 155 -8 C 108 -8 73 6 51 35 C 29 64 18 102 18 148 C 18 187 25 224 39 259 C 53 294 71 325 95 351 C 119 377 147 397 179 412 C 211 427 245 435 281 435 C 299 435 315 432 329 428 C 343 423 354 417 363 410 C 365 408 367 407 371 406 C 375 405 379 406 383 409 L 416 432 C 418 434 421 435 424 436 C 427 436 430 437 432 437 C 434 437 436 436 438 434 C 440 432 440 429 440 427 L 435 400 C 455 411 475 419 494 425 C 512 431 532 434 552 434 Z M 394 232 C 414 233 436 235 459 237 C 482 239 503 243 522 250 C 541 257 557 267 569 281 C 581 295 588 313 588 337 C 588 356 582 369 570 377 C 558 385 546 389 534 389 C 505 389 477 376 450 351 C 422 325 404 286 394 232 Z M 284 96 L 350 362 C 342 369 332 375 322 380 C 312 385 298 388 282 388 C 252 388 226 380 205 366 C 183 351 166 332 153 310 C 139 287 129 261 123 233 C 117 205 114 177 114 150 C 114 117 121 92 135 76 C 149 60 168 52 194 52 C 211 52 226 55 240 62 C 253 68 268 80 284 96 Z" unicode="" />
<glyph horiz-adv-x="391" d="M 261 433 C 307 433 341 423 361 404 C 381 385 391 365 391 345 C 391 322 385 306 374 297 C 362 287 350 283 337 283 C 323 283 311 286 301 294 C 291 302 286 313 286 328 C 286 334 287 341 291 350 C 294 359 298 367 302 375 C 299 377 293 381 285 385 C 276 389 263 391 247 391 C 225 391 207 384 191 371 C 175 358 161 341 150 321 C 139 300 131 276 126 250 C 120 224 118 198 118 173 C 118 139 125 109 140 83 C 154 57 180 45 216 45 C 246 45 271 52 291 67 C 311 82 330 99 348 117 L 370 86 C 356 68 337 49 313 29 C 288 9 258 -3 222 -8 L 200 -46 C 226 -46 247 -52 262 -64 C 276 -76 284 -93 284 -115 C 284 -135 275 -154 259 -174 C 242 -193 213 -203 171 -203 C 144 -203 121 -197 102 -186 C 82 -175 66 -164 54 -152 L 76 -124 C 86 -132 99 -141 114 -150 C 128 -159 146 -164 167 -164 C 185 -164 197 -158 203 -148 C 209 -137 212 -127 212 -119 C 212 -110 208 -102 201 -94 C 194 -86 182 -83 166 -83 C 163 -83 160 -83 156 -83 C 152 -83 148 -84 145 -85 L 189 -9 C 141 -7 101 9 70 40 C 38 71 23 113 23 167 C 23 199 28 232 40 264 C 51 296 67 324 88 349 C 108 374 133 394 163 410 C 192 425 225 433 261 433 Z" unicode="" />
<glyph horiz-adv-x="406" d="M 248 641 L 367 499 L 343 482 L 190 572 C 175 580 164 589 158 598 C 152 606 149 615 149 625 C 149 637 153 647 161 656 C 169 665 180 670 193 670 C 201 670 210 668 219 665 C 227 661 237 653 248 641 Z M 277 434 C 314 434 344 425 367 408 C 389 390 401 367 401 337 C 401 305 391 279 373 260 C 355 241 333 227 307 217 C 281 207 255 201 228 198 C 201 195 179 194 163 194 L 117 194 C 117 191 116 187 116 183 C 116 179 116 175 116 171 C 116 121 127 87 149 71 C 171 54 195 46 222 46 C 244 46 267 52 292 65 C 316 78 342 97 368 122 L 387 93 C 383 87 376 78 367 67 C 358 55 346 44 330 33 C 314 21 295 11 273 3 C 250 -4 224 -9 194 -9 C 157 -9 127 -2 105 11 C 82 24 65 40 53 59 C 41 77 34 96 30 116 C 26 136 24 152 24 165 C 24 199 30 232 42 265 C 54 297 72 326 94 351 C 116 376 143 396 174 411 C 205 426 239 434 277 434 Z M 121 233 C 145 233 168 235 191 238 C 214 240 235 245 253 253 C 271 260 286 270 297 284 C 308 297 314 314 314 336 C 314 354 308 368 297 376 C 286 384 273 389 259 389 C 228 389 200 376 174 350 C 148 324 131 285 121 233 Z" unicode="" />
<glyph horiz-adv-x="406" d="M 355 670 C 367 670 377 665 385 656 C 393 647 397 637 397 625 C 397 616 393 607 385 598 C 377 589 366 580 352 572 L 193 482 L 169 499 L 298 641 C 309 653 319 661 328 665 C 337 668 346 670 355 670 Z M 277 434 C 314 434 344 425 367 408 C 389 390 401 367 401 337 C 401 305 391 279 373 260 C 355 241 333 227 307 217 C 281 207 255 201 228 198 C 201 195 179 194 163 194 L 117 194 C 117 191 116 187 116 183 C 116 179 116 175 116 171 C 116 121 127 87 149 71 C 171 54 195 46 222 46 C 244 46 267 52 292 65 C 316 78 342 97 368 122 L 387 93 C 383 87 376 78 367 67 C 358 55 346 44 330 33 C 314 21 295 11 273 3 C 250 -4 224 -9 194 -9 C 157 -9 127 -2 105 11 C 82 24 65 40 53 59 C 41 77 34 96 30 116 C 26 136 24 152 24 165 C 24 199 30 232 42 265 C 54 297 72 326 94 351 C 116 376 143 396 174 411 C 205 426 239 434 277 434 Z M 121 233 C 145 233 168 235 191 238 C 214 240 235 245 253 253 C 271 260 286 270 297 284 C 308 297 314 314 314 336 C 314 354 308 368 297 376 C 286 384 273 389 259 389 C 228 389 200 376 174 350 C 148 324 131 285 121 233 Z" unicode="" />
<glyph horiz-adv-x="406" d="M 328 656 L 416 478 L 376 478 L 285 579 L 143 478 L 102 478 L 268 656 L 328 656 Z M 277 434 C 314 434 344 425 367 408 C 389 390 401 367 401 337 C 401 305 391 279 373 260 C 355 241 333 227 307 217 C 281 207 255 201 228 198 C 201 195 179 194 163 194 L 117 194 C 117 191 116 187 116 183 C 116 179 116 175 116 171 C 116 121 127 87 149 71 C 171 54 195 46 222 46 C 244 46 267 52 292 65 C 316 78 342 97 368 122 L 387 93 C 383 87 376 78 367 67 C 358 55 346 44 330 33 C 314 21 295 11 273 3 C 250 -4 224 -9 194 -9 C 157 -9 127 -2 105 11 C 82 24 65 40 53 59 C 41 77 34 96 30 116 C 26 136 24 152 24 165 C 24 199 30 232 42 265 C 54 297 72 326 94 351 C 116 376 143 396 174 411 C 205 426 239 434 277 434 Z M 121 233 C 145 233 168 235 191 238 C 214 240 235 245 253 253 C 271 260 286 270 297 284 C 308 297 314 314 314 336 C 314 354 308 368 297 376 C 286 384 273 389 259 389 C 228 389 200 376 174 350 C 148 324 131 285 121 233 Z" unicode="" />
<glyph horiz-adv-x="406" d="M 366 613 C 380 613 393 607 405 596 C 416 584 422 571 422 557 C 422 542 416 529 405 518 C 393 506 380 501 366 501 C 351 501 338 506 327 518 C 315 529 310 542 310 557 C 310 571 315 584 327 596 C 338 607 351 613 366 613 Z M 176 613 C 190 613 203 607 215 596 C 226 584 232 571 232 557 C 232 542 226 529 215 518 C 203 506 190 501 176 501 C 161 501 148 506 137 518 C 125 529 120 542 120 557 C 120 571 125 584 137 596 C 148 607 161 613 176 613 Z M 277 434 C 314 434 344 425 367 408 C 389 390 401 367 401 337 C 401 305 391 279 373 260 C 355 241 333 227 307 217 C 281 207 255 201 228 198 C 201 195 179 194 163 194 L 117 194 C 117 191 116 187 116 183 C 116 179 116 175 116 171 C 116 121 127 87 149 71 C 171 54 195 46 222 46 C 244 46 267 52 292 65 C 316 78 342 97 368 122 L 387 93 C 383 87 376 78 367 67 C 358 55 346 44 330 33 C 314 21 295 11 273 3 C 250 -4 224 -9 194 -9 C 157 -9 127 -2 105 11 C 82 24 65 40 53 59 C 41 77 34 96 30 116 C 26 136 24 152 24 165 C 24 199 30 232 42 265 C 54 297 72 326 94 351 C 116 376 143 396 174 411 C 205 426 239 434 277 434 Z M 121 233 C 145 233 168 235 191 238 C 214 240 235 245 253 253 C 271 260 286 270 297 284 C 308 297 314 314 314 336 C 314 354 308 368 297 376 C 286 384 273 389 259 389 C 228 389 200 376 174 350 C 148 324 131 285 121 233 Z" unicode="" />
<glyph horiz-adv-x="255" d="M 148 641 L 265 499 L 240 482 L 89 573 C 74 581 63 590 57 599 C 50 607 47 616 48 625 C 48 637 53 647 62 656 C 70 665 81 670 94 670 C 102 670 111 668 119 665 C 127 661 137 653 148 641 Z M 220 64 L 228 30 C 220 23 206 15 186 5 C 165 -4 143 -9 119 -9 C 91 -9 72 -3 62 8 C 52 20 47 34 47 51 C 47 57 47 64 49 72 C 50 79 52 87 54 96 L 109 315 C 112 328 111 339 107 347 C 102 355 92 359 77 361 C 67 361 61 363 59 365 C 56 367 55 369 56 373 L 63 399 C 84 399 106 401 128 407 C 150 412 174 419 198 429 L 228 429 L 144 96 C 143 92 142 88 141 84 C 140 80 140 76 140 73 C 140 65 142 59 146 53 C 150 47 158 44 169 44 C 177 44 185 46 193 50 C 201 54 210 58 220 64 Z" unicode="" />
<glyph horiz-adv-x="255" d="M 247 670 C 259 670 270 665 278 656 C 286 647 290 637 290 625 C 290 616 286 607 279 598 C 272 589 261 580 247 572 L 91 482 L 67 499 L 191 641 C 201 653 211 661 220 665 C 229 668 238 670 247 670 Z M 220 64 L 228 30 C 220 23 206 15 186 5 C 165 -4 143 -9 119 -9 C 91 -9 72 -3 62 8 C 52 20 47 34 47 51 C 47 57 47 64 49 72 C 50 79 52 87 54 96 L 109 315 C 112 328 111 339 107 347 C 102 355 92 359 77 361 C 67 361 61 363 59 365 C 56 367 55 369 56 373 L 63 399 C 84 399 106 401 128 407 C 150 412 174 419 198 429 L 228 429 L 144 96 C 143 92 142 88 141 84 C 140 80 140 76 140 73 C 140 65 142 59 146 53 C 150 47 158 44 169 44 C 177 44 185 46 193 50 C 201 54 210 58 220 64 Z" unicode="" />
<glyph horiz-adv-x="259" d="M 231 651 L 306 478 L 266 478 L 190 574 L 63 478 L 22 478 L 171 651 L 231 651 Z M 222 64 L 230 30 C 222 23 208 15 188 5 C 167 -4 145 -9 121 -9 C 93 -9 74 -3 64 8 C 54 20 49 34 49 51 C 49 57 49 64 51 72 C 52 79 54 87 56 96 L 111 315 C 114 328 113 339 109 347 C 104 355 94 359 79 361 C 69 361 63 363 61 365 C 58 367 57 369 58 373 L 65 399 C 86 399 108 401 130 407 C 152 412 176 419 200 429 L 230 429 L 146 96 C 145 92 144 88 143 84 C 142 80 142 76 142 73 C 142 65 144 59 148 53 C 152 47 160 44 171 44 C 179 44 187 46 195 50 C 203 54 212 58 222 64 Z" unicode="" />
<glyph horiz-adv-x="259" d="M 263 613 C 277 613 290 607 302 596 C 313 584 319 571 319 557 C 319 542 313 529 302 518 C 290 506 277 501 263 501 C 248 501 235 506 224 518 C 212 529 207 542 207 557 C 207 571 212 584 224 596 C 235 607 248 613 263 613 Z M 92 613 C 106 613 119 607 131 596 C 142 584 148 571 148 557 C 148 542 142 529 131 518 C 119 506 106 501 92 501 C 77 501 64 506 53 518 C 41 529 36 542 36 557 C 36 571 41 584 53 596 C 64 607 77 613 92 613 Z M 222 64 L 230 30 C 222 23 208 15 188 5 C 167 -4 145 -9 121 -9 C 93 -9 74 -3 64 8 C 54 20 49 34 49 51 C 49 57 49 64 51 72 C 52 79 54 87 56 96 L 111 315 C 114 328 113 339 109 347 C 104 355 94 359 79 361 C 69 361 63 363 61 365 C 58 367 57 369 58 373 L 65 399 C 86 399 108 401 130 407 C 152 412 176 419 200 429 L 230 429 L 146 96 C 145 92 144 88 143 84 C 142 80 142 76 142 73 C 142 65 144 59 148 53 C 152 47 160 44 171 44 C 179 44 187 46 195 50 C 203 54 212 58 222 64 Z" unicode="" />
<glyph horiz-adv-x="520" d="M 448 625 L 480 625 C 474 592 460 564 439 541 C 418 518 394 507 368 507 C 356 507 346 508 338 512 C 330 515 319 522 306 532 C 295 540 286 546 278 550 C 270 554 262 556 252 556 C 238 556 227 550 217 540 C 207 529 200 517 197 503 L 165 503 C 170 535 183 563 204 586 C 225 609 249 621 276 621 C 290 621 301 619 309 615 C 317 611 326 606 338 598 C 350 589 359 582 367 578 C 375 574 383 572 392 572 C 405 572 417 577 427 588 C 437 598 444 611 448 625 Z M 488 64 L 496 30 C 488 23 474 15 454 5 C 433 -4 411 -9 387 -9 C 359 -9 340 -3 330 8 C 320 20 315 34 315 51 C 315 57 315 64 317 72 C 318 79 320 87 322 96 L 372 288 C 373 293 374 298 375 304 C 375 309 376 314 376 319 C 376 339 370 353 358 363 C 346 372 330 377 311 377 C 289 377 269 369 249 355 C 229 340 211 325 197 311 L 120 0 L 30 0 L 106 307 C 106 311 107 315 108 320 C 109 324 110 328 110 331 C 110 339 107 346 102 352 C 96 357 88 360 76 361 C 71 361 66 362 62 363 C 57 363 55 365 55 368 C 55 369 55 371 55 373 C 55 375 56 377 57 380 L 62 399 C 83 399 104 401 126 407 C 148 412 171 419 195 429 L 219 429 L 201 359 C 220 374 242 390 267 407 C 292 423 321 432 354 432 C 392 432 420 423 439 405 C 458 387 468 362 468 332 C 468 325 467 318 466 311 C 465 303 464 296 462 288 L 412 96 C 411 92 410 88 409 84 C 408 80 408 76 408 73 C 408 65 410 59 414 53 C 418 47 426 44 437 44 C 445 44 453 46 461 50 C 469 54 478 58 488 64 Z" unicode="" />
<glyph horiz-adv-x="465" d="M 260 641 L 379 499 L 355 482 L 202 572 C 187 580 176 589 170 598 C 164 606 161 615 161 625 C 161 637 165 647 173 656 C 181 665 192 670 205 670 C 213 670 222 668 231 665 C 239 661 249 653 260 641 Z M 271 436 C 326 436 368 418 398 382 C 427 346 442 302 442 249 C 442 215 435 182 423 151 C 411 119 394 92 373 68 C 351 44 325 26 295 12 C 265 -2 232 -9 197 -9 C 141 -9 98 8 68 43 C 38 77 23 121 23 175 C 23 207 28 239 40 271 C 51 303 67 331 89 355 C 110 379 136 398 167 413 C 198 428 233 436 271 436 Z M 203 36 C 226 36 247 42 265 55 C 283 67 298 84 310 105 C 322 126 332 151 338 180 C 344 208 348 239 348 271 C 348 307 341 336 328 358 C 315 380 293 391 263 391 C 238 391 216 384 198 371 C 180 357 165 340 153 318 C 141 296 132 271 126 243 C 120 215 117 186 117 157 C 117 120 123 91 136 69 C 149 47 171 36 203 36 Z" unicode="" />
<glyph horiz-adv-x="465" d="M 373 670 C 385 670 395 665 403 656 C 411 647 415 637 415 625 C 415 616 411 607 403 598 C 395 589 384 580 370 572 L 211 482 L 187 499 L 316 641 C 327 653 337 661 346 665 C 355 668 364 670 373 670 Z M 271 436 C 326 436 368 418 398 382 C 427 346 442 302 442 249 C 442 215 435 182 423 151 C 411 119 394 92 373 68 C 351 44 325 26 295 12 C 265 -2 232 -9 197 -9 C 141 -9 98 8 68 43 C 38 77 23 121 23 175 C 23 207 28 239 40 271 C 51 303 67 331 89 355 C 110 379 136 398 167 413 C 198 428 233 436 271 436 Z M 203 36 C 226 36 247 42 265 55 C 283 67 298 84 310 105 C 322 126 332 151 338 180 C 344 208 348 239 348 271 C 348 307 341 336 328 358 C 315 380 293 391 263 391 C 238 391 216 384 198 371 C 180 357 165 340 153 318 C 141 296 132 271 126 243 C 120 215 117 186 117 157 C 117 120 123 91 136 69 C 149 47 171 36 203 36 Z" unicode="" />
<glyph horiz-adv-x="465" d="M 335 656 L 423 478 L 383 478 L 292 579 L 150 478 L 109 478 L 275 656 L 335 656 Z M 271 436 C 326 436 368 418 398 382 C 427 346 442 302 442 249 C 442 215 435 182 423 151 C 411 119 394 92 373 68 C 351 44 325 26 295 12 C 265 -2 232 -9 197 -9 C 141 -9 98 8 68 43 C 38 77 23 121 23 175 C 23 207 28 239 40 271 C 51 303 67 331 89 355 C 110 379 136 398 167 413 C 198 428 233 436 271 436 Z M 203 36 C 226 36 247 42 265 55 C 283 67 298 84 310 105 C 322 126 332 151 338 180 C 344 208 348 239 348 271 C 348 307 341 336 328 358 C 315 380 293 391 263 391 C 238 391 216 384 198 371 C 180 357 165 340 153 318 C 141 296 132 271 126 243 C 120 215 117 186 117 157 C 117 120 123 91 136 69 C 149 47 171 36 203 36 Z" unicode="" />
<glyph horiz-adv-x="465" d="M 402 625 L 434 625 C 428 592 414 564 393 541 C 372 518 348 507 322 507 C 310 507 300 508 292 512 C 284 515 273 522 260 532 C 249 540 240 546 232 550 C 224 554 216 556 206 556 C 192 556 181 550 171 540 C 161 529 154 517 151 503 L 119 503 C 124 535 137 563 158 586 C 179 609 203 621 230 621 C 244 621 255 619 263 615 C 271 611 280 606 292 598 C 304 589 313 582 321 578 C 329 574 337 572 346 572 C 359 572 371 577 381 588 C 391 598 398 611 402 625 Z M 271 436 C 326 436 368 418 398 382 C 427 346 442 302 442 249 C 442 215 435 182 423 151 C 411 119 394 92 373 68 C 351 44 325 26 295 12 C 265 -2 232 -9 197 -9 C 141 -9 98 8 68 43 C 38 77 23 121 23 175 C 23 207 28 239 40 271 C 51 303 67 331 89 355 C 110 379 136 398 167 413 C 198 428 233 436 271 436 Z M 203 36 C 226 36 247 42 265 55 C 283 67 298 84 310 105 C 322 126 332 151 338 180 C 344 208 348 239 348 271 C 348 307 341 336 328 358 C 315 380 293 391 263 391 C 238 391 216 384 198 371 C 180 357 165 340 153 318 C 141 296 132 271 126 243 C 120 215 117 186 117 157 C 117 120 123 91 136 69 C 149 47 171 36 203 36 Z" unicode="" />
<glyph horiz-adv-x="465" d="M 372 613 C 386 613 399 607 411 596 C 422 584 428 571 428 557 C 428 542 422 529 411 518 C 399 506 386 501 372 501 C 357 501 344 506 333 518 C 321 529 316 542 316 557 C 316 571 321 584 333 596 C 344 607 357 613 372 613 Z M 182 613 C 196 613 209 607 221 596 C 232 584 238 571 238 557 C 238 542 232 529 221 518 C 209 506 196 501 182 501 C 167 501 154 506 143 518 C 131 529 126 542 126 557 C 126 571 131 584 143 596 C 154 607 167 613 182 613 Z M 271 436 C 326 436 368 418 398 382 C 427 346 442 302 442 249 C 442 215 435 182 423 151 C 411 119 394 92 373 68 C 351 44 325 26 295 12 C 265 -2 232 -9 197 -9 C 141 -9 98 8 68 43 C 38 77 23 121 23 175 C 23 207 28 239 40 271 C 51 303 67 331 89 355 C 110 379 136 398 167 413 C 198 428 233 436 271 436 Z M 203 36 C 226 36 247 42 265 55 C 283 67 298 84 310 105 C 322 126 332 151 338 180 C 344 208 348 239 348 271 C 348 307 341 336 328 358 C 315 380 293 391 263 391 C 238 391 216 384 198 371 C 180 357 165 340 153 318 C 141 296 132 271 126 243 C 120 215 117 186 117 157 C 117 120 123 91 136 69 C 149 47 171 36 203 36 Z" unicode="" />
<glyph horiz-adv-x="750" d="M 392 539 C 410 539 425 532 437 520 C 449 508 456 493 456 475 C 456 457 449 441 437 429 C 425 417 410 411 392 411 C 374 411 358 417 346 429 C 334 441 328 457 328 475 C 328 493 334 508 346 520 C 358 532 374 539 392 539 Z M 653 324 L 653 262 L 131 262 L 131 324 L 653 324 Z M 392 175 C 410 175 425 168 437 156 C 449 144 456 129 456 111 C 456 93 449 77 437 65 C 425 53 410 47 392 47 C 374 47 358 53 346 65 C 334 77 328 93 328 111 C 328 129 334 144 346 156 C 358 168 374 175 392 175 Z" unicode="" />
<glyph horiz-adv-x="465" d="M 405 470 L 450 470 L 389 390 C 405 373 418 352 428 328 C 437 304 442 277 442 249 C 442 215 435 182 423 151 C 411 119 394 92 373 68 C 351 44 325 26 295 12 C 265 -2 232 -9 197 -9 C 179 -9 162 -6 146 -2 C 130 1 116 8 104 16 L 55 -48 L 10 -48 L 76 38 C 59 54 46 74 37 98 C 27 121 23 147 23 175 C 23 207 28 239 40 271 C 51 303 67 331 89 355 C 110 379 136 398 167 413 C 198 428 233 436 271 436 C 287 436 303 433 318 429 C 333 425 347 419 360 412 L 405 470 Z M 122 96 L 325 365 C 318 373 309 380 299 384 C 289 388 277 391 263 391 C 238 391 216 384 198 371 C 179 357 163 340 151 318 C 139 296 130 271 124 243 C 118 215 115 186 115 157 C 115 146 115 135 116 125 C 117 114 119 104 122 96 Z M 203 36 C 226 36 247 42 265 54 C 283 66 298 82 310 104 C 322 125 332 150 338 179 C 344 207 348 238 348 271 C 348 281 347 292 346 302 C 345 312 344 322 342 331 L 139 62 C 146 53 155 46 165 42 C 175 38 188 36 203 36 Z" unicode="" />
<glyph horiz-adv-x="514" d="M 298 641 L 417 499 L 393 482 L 240 572 C 225 580 214 589 208 598 C 202 606 199 615 199 625 C 199 637 203 647 211 656 C 219 665 230 670 243 670 C 251 670 260 668 269 665 C 277 661 287 653 298 641 Z M 480 64 L 488 30 C 480 23 466 15 446 5 C 425 -4 403 -9 379 -9 C 351 -9 334 -2 326 12 C 318 26 314 41 314 58 C 294 42 271 26 245 12 C 219 -1 189 -9 154 -9 C 116 -9 90 1 74 21 C 58 41 50 66 50 98 C 50 105 51 114 53 124 C 55 134 57 144 59 153 L 99 307 C 99 311 100 315 101 320 C 102 324 103 328 103 331 C 103 339 100 346 95 352 C 89 357 81 360 69 361 C 64 361 59 362 55 363 C 50 363 48 365 48 368 C 48 369 48 371 48 373 C 48 375 49 377 50 380 L 55 399 C 76 399 98 401 120 407 C 142 412 165 419 189 429 L 221 429 L 147 143 C 145 137 144 131 143 124 C 141 116 141 111 141 107 C 141 86 145 71 155 61 C 165 51 180 46 201 46 C 221 46 242 51 264 63 C 285 75 303 89 318 105 L 368 305 C 368 309 369 314 370 319 C 371 324 372 328 372 331 C 372 339 369 346 364 352 C 358 357 350 360 338 361 C 333 361 328 362 324 363 C 319 363 317 365 317 368 C 317 369 317 371 317 373 C 317 375 318 377 319 380 L 324 399 C 345 399 367 401 389 407 C 411 412 434 419 458 429 L 488 429 L 404 95 C 403 91 402 86 401 82 C 400 78 400 74 400 71 C 400 64 402 58 406 52 C 410 46 418 44 429 44 C 437 44 445 46 453 50 C 461 54 470 58 480 64 Z" unicode="" />
<glyph horiz-adv-x="514" d="M 403 670 C 415 670 425 665 433 656 C 441 647 445 637 445 625 C 445 616 441 607 433 598 C 425 589 414 580 400 572 L 241 482 L 217 499 L 346 641 C 357 653 367 661 376 665 C 385 668 394 670 403 670 Z M 480 64 L 488 30 C 480 23 466 15 446 5 C 425 -4 403 -9 379 -9 C 351 -9 334 -2 326 12 C 318 26 314 41 314 58 C 294 42 271 26 245 12 C 219 -1 189 -9 154 -9 C 116 -9 90 1 74 21 C 58 41 50 66 50 98 C 50 105 51 114 53 124 C 55 134 57 144 59 153 L 99 307 C 99 311 100 315 101 320 C 102 324 103 328 103 331 C 103 339 100 346 95 352 C 89 357 81 360 69 361 C 64 361 59 362 55 363 C 50 363 48 365 48 368 C 48 369 48 371 48 373 C 48 375 49 377 50 380 L 55 399 C 76 399 98 401 120 407 C 142 412 165 419 189 429 L 221 429 L 147 143 C 145 137 144 131 143 124 C 141 116 141 111 141 107 C 141 86 145 71 155 61 C 165 51 180 46 201 46 C 221 46 242 51 264 63 C 285 75 303 89 318 105 L 368 305 C 368 309 369 314 370 319 C 371 324 372 328 372 331 C 372 339 369 346 364 352 C 358 357 350 360 338 361 C 333 361 328 362 324 363 C 319 363 317 365 317 368 C 317 369 317 371 317 373 C 317 375 318 377 319 380 L 324 399 C 345 399 367 401 389 407 C 411 412 434 419 458 429 L 488 429 L 404 95 C 403 91 402 86 401 82 C 400 78 400 74 400 71 C 400 64 402 58 406 52 C 410 46 418 44 429 44 C 437 44 445 46 453 50 C 461 54 470 58 480 64 Z" unicode="" />
<glyph horiz-adv-x="514" d="M 370 656 L 458 478 L 418 478 L 327 579 L 185 478 L 144 478 L 310 656 L 370 656 Z M 480 64 L 488 30 C 480 23 466 15 446 5 C 425 -4 403 -9 379 -9 C 351 -9 334 -2 326 12 C 318 26 314 41 314 58 C 294 42 271 26 245 12 C 219 -1 189 -9 154 -9 C 116 -9 90 1 74 21 C 58 41 50 66 50 98 C 50 105 51 114 53 124 C 55 134 57 144 59 153 L 99 307 C 99 311 100 315 101 320 C 102 324 103 328 103 331 C 103 339 100 346 95 352 C 89 357 81 360 69 361 C 64 361 59 362 55 363 C 50 363 48 365 48 368 C 48 369 48 371 48 373 C 48 375 49 377 50 380 L 55 399 C 76 399 98 401 120 407 C 142 412 165 419 189 429 L 221 429 L 147 143 C 145 137 144 131 143 124 C 141 116 141 111 141 107 C 141 86 145 71 155 61 C 165 51 180 46 201 46 C 221 46 242 51 264 63 C 285 75 303 89 318 105 L 368 305 C 368 309 369 314 370 319 C 371 324 372 328 372 331 C 372 339 369 346 364 352 C 358 357 350 360 338 361 C 333 361 328 362 324 363 C 319 363 317 365 317 368 C 317 369 317 371 317 373 C 317 375 318 377 319 380 L 324 399 C 345 399 367 401 389 407 C 411 412 434 419 458 429 L 488 429 L 404 95 C 403 91 402 86 401 82 C 400 78 400 74 400 71 C 400 64 402 58 406 52 C 410 46 418 44 429 44 C 437 44 445 46 453 50 C 461 54 470 58 480 64 Z" unicode="" />
<glyph horiz-adv-x="514" d="M 412 613 C 426 613 439 607 451 596 C 462 584 468 571 468 557 C 468 542 462 529 451 518 C 439 506 426 501 412 501 C 397 501 384 506 373 518 C 361 529 356 542 356 557 C 356 571 361 584 373 596 C 384 607 397 613 412 613 Z M 222 613 C 236 613 249 607 261 596 C 272 584 278 571 278 557 C 278 542 272 529 261 518 C 249 506 236 501 222 501 C 207 501 194 506 183 518 C 171 529 166 542 166 557 C 166 571 171 584 183 596 C 194 607 207 613 222 613 Z M 480 64 L 488 30 C 480 23 466 15 446 5 C 425 -4 403 -9 379 -9 C 351 -9 334 -2 326 12 C 318 26 314 41 314 58 C 294 42 271 26 245 12 C 219 -1 189 -9 154 -9 C 116 -9 90 1 74 21 C 58 41 50 66 50 98 C 50 105 51 114 53 124 C 55 134 57 144 59 153 L 99 307 C 99 311 100 315 101 320 C 102 324 103 328 103 331 C 103 339 100 346 95 352 C 89 357 81 360 69 361 C 64 361 59 362 55 363 C 50 363 48 365 48 368 C 48 369 48 371 48 373 C 48 375 49 377 50 380 L 55 399 C 76 399 98 401 120 407 C 142 412 165 419 189 429 L 221 429 L 147 143 C 145 137 144 131 143 124 C 141 116 141 111 141 107 C 141 86 145 71 155 61 C 165 51 180 46 201 46 C 221 46 242 51 264 63 C 285 75 303 89 318 105 L 368 305 C 368 309 369 314 370 319 C 371 324 372 328 372 331 C 372 339 369 346 364 352 C 358 357 350 360 338 361 C 333 361 328 362 324 363 C 319 363 317 365 317 368 C 317 369 317 371 317 373 C 317 375 318 377 319 380 L 324 399 C 345 399 367 401 389 407 C 411 412 434 419 458 429 L 488 429 L 404 95 C 403 91 402 86 401 82 C 400 78 400 74 400 71 C 400 64 402 58 406 52 C 410 46 418 44 429 44 C 437 44 445 46 453 50 C 461 54 470 58 480 64 Z" unicode="" />
<glyph horiz-adv-x="432" d="M 377 670 C 389 670 399 665 407 656 C 415 647 419 637 419 625 C 419 616 415 607 407 598 C 399 589 388 580 374 572 L 215 482 L 191 499 L 320 641 C 331 653 341 661 350 665 C 359 668 368 670 377 670 Z M 392 432 C 409 432 422 426 432 415 C 441 404 446 391 446 377 C 446 361 440 341 429 315 C 418 289 404 260 386 229 C 368 197 348 164 325 130 C 302 95 279 61 256 29 C 239 5 221 -19 201 -45 C 181 -71 160 -96 138 -118 C 116 -140 92 -158 68 -173 C 43 -187 18 -195 -7 -195 C -31 -195 -51 -188 -65 -175 C -79 -162 -86 -146 -86 -127 C -86 -115 -81 -103 -72 -92 C -63 -81 -50 -76 -34 -76 C -20 -76 -8 -81 2 -91 C 13 -101 20 -120 22 -146 C 36 -142 50 -134 66 -123 C 81 -111 96 -99 110 -85 C 124 -71 138 -57 150 -43 C 162 -29 171 -17 178 -8 C 172 24 166 57 160 91 C 154 125 147 156 141 186 C 135 215 129 241 124 264 C 118 286 114 303 110 315 C 105 327 99 341 91 355 C 83 369 73 376 59 376 C 51 376 42 374 34 370 C 26 366 16 361 6 356 L 0 390 C 8 397 23 406 45 416 C 66 426 86 432 105 432 C 135 432 158 420 173 396 C 188 372 201 338 212 293 C 220 257 228 221 234 185 C 240 148 245 116 249 88 C 270 119 289 150 305 180 C 321 210 335 237 347 261 C 353 273 358 284 361 292 C 363 300 368 311 374 326 C 363 332 354 339 347 347 C 339 355 336 366 336 380 C 336 391 340 402 350 414 C 360 426 374 432 392 432 Z" unicode="" />
<glyph horiz-adv-x="432" d="M 374 613 C 388 613 401 607 413 596 C 424 584 430 571 430 557 C 430 542 424 529 413 518 C 401 506 388 501 374 501 C 359 501 346 506 335 518 C 323 529 318 542 318 557 C 318 571 323 584 335 596 C 346 607 359 613 374 613 Z M 184 613 C 198 613 211 607 223 596 C 234 584 240 571 240 557 C 240 542 234 529 223 518 C 211 506 198 501 184 501 C 169 501 156 506 145 518 C 133 529 128 542 128 557 C 128 571 133 584 145 596 C 156 607 169 613 184 613 Z M 392 432 C 409 432 422 426 432 415 C 441 404 446 391 446 377 C 446 361 440 341 429 315 C 418 289 404 260 386 229 C 368 197 348 164 325 130 C 302 95 279 61 256 29 C 239 5 221 -19 201 -45 C 181 -71 160 -96 138 -118 C 116 -140 92 -158 68 -173 C 43 -187 18 -195 -7 -195 C -31 -195 -51 -188 -65 -175 C -79 -162 -86 -146 -86 -127 C -86 -115 -81 -103 -72 -92 C -63 -81 -50 -76 -34 -76 C -20 -76 -8 -81 2 -91 C 13 -101 20 -120 22 -146 C 36 -142 50 -134 66 -123 C 81 -111 96 -99 110 -85 C 124 -71 138 -57 150 -43 C 162 -29 171 -17 178 -8 C 172 24 166 57 160 91 C 154 125 147 156 141 186 C 135 215 129 241 124 264 C 118 286 114 303 110 315 C 105 327 99 341 91 355 C 83 369 73 376 59 376 C 51 376 42 374 34 370 C 26 366 16 361 6 356 L 0 390 C 8 397 23 406 45 416 C 66 426 86 432 105 432 C 135 432 158 420 173 396 C 188 372 201 338 212 293 C 220 257 228 221 234 185 C 240 148 245 116 249 88 C 270 119 289 150 305 180 C 321 210 335 237 347 261 C 353 273 358 284 361 292 C 363 300 368 311 374 326 C 363 332 354 339 347 347 C 339 355 336 366 336 380 C 336 391 340 402 350 414 C 360 426 374 432 392 432 Z" unicode="" />
<glyph horiz-adv-x="255" d="M 220 64 L 228 30 C 220 23 206 15 186 5 C 165 -4 143 -9 119 -9 C 91 -9 72 -3 62 8 C 52 20 47 34 47 51 C 47 57 47 64 49 72 C 50 79 52 87 54 96 L 107 307 C 107 311 108 315 109 320 C 110 324 111 328 111 331 C 111 339 108 346 103 352 C 97 357 89 360 77 361 C 72 361 67 362 63 363 C 58 363 56 365 56 368 C 56 369 56 371 56 373 C 56 375 57 377 58 380 L 63 399 C 84 399 106 401 128 407 C 150 412 173 419 197 429 L 228 429 L 144 96 C 143 92 142 88 141 84 C 140 80 140 76 140 73 C 140 65 142 59 146 53 C 150 47 158 44 169 44 C 177 44 185 46 193 50 C 201 54 210 58 220 64 Z" unicode="" />
<glyph horiz-adv-x="565" d="M 502 166 L 531 166 L 489 0 L -28 0 L -22 25 C -20 31 -17 34 -13 36 C -9 37 -1 40 10 45 C 24 50 33 55 37 59 C 40 63 43 72 46 85 L 105 322 L 27 280 L 40 336 L 119 377 L 183 633 C 184 639 185 644 186 650 C 187 655 188 659 188 662 C 188 667 185 671 181 675 C 176 678 170 681 162 685 C 154 688 149 690 145 692 C 141 693 139 696 139 700 C 139 701 139 703 140 706 C 140 709 141 712 142 715 L 146 730 L 360 730 L 354 705 C 352 699 350 695 346 694 C 342 692 335 689 324 685 C 309 679 300 674 297 670 C 293 666 290 657 288 645 L 232 419 L 368 492 L 354 434 L 218 363 L 139 49 L 352 49 C 380 49 402 56 418 71 C 434 85 454 110 477 146 C 480 152 483 157 487 161 C 491 164 496 166 502 166 Z" unicode="" />
<glyph horiz-adv-x="250" d="M 214 408 L 297 453 L 284 401 L 201 357 L 136 96 C 135 92 134 88 133 84 C 132 80 132 76 132 73 C 132 65 134 59 138 53 C 142 47 150 44 161 44 C 169 44 177 46 186 50 C 194 54 204 58 214 64 L 222 30 C 214 23 200 15 179 5 C 157 -4 135 -9 111 -9 C 83 -9 64 -3 54 8 C 44 20 39 34 39 51 C 39 57 39 64 41 72 C 42 79 44 87 46 96 L 104 328 L 23 284 L 36 337 L 117 379 L 185 653 C 187 661 186 669 183 675 C 180 681 174 686 166 691 C 158 695 152 698 149 700 C 145 701 144 704 145 708 L 150 730 L 294 730 L 214 408 Z" unicode="" />
<glyph horiz-adv-x="954" d="M 902 730 C 914 730 931 731 952 733 C 972 735 987 737 997 738 L 960 590 L 937 590 C 929 590 924 591 921 594 C 917 596 915 600 915 606 C 913 621 911 634 909 644 C 907 654 904 661 899 667 C 894 672 887 676 877 678 C 867 680 854 681 837 681 L 675 681 L 604 399 L 695 399 C 713 399 727 402 735 408 C 743 414 753 425 766 443 C 770 449 775 454 779 457 C 783 460 789 462 798 462 L 820 462 L 775 280 L 751 280 C 743 280 738 282 735 287 C 732 291 730 296 729 301 C 725 318 720 330 715 338 C 710 345 700 349 685 349 L 592 349 L 517 49 L 724 49 C 752 49 774 55 791 69 C 808 83 828 108 851 144 C 855 150 858 155 862 159 C 865 162 870 164 876 164 L 905 164 L 864 0 L 384 0 C 330 0 283 7 242 21 C 200 35 166 55 138 81 C 110 106 88 137 74 173 C 60 209 53 249 53 293 C 53 357 63 417 85 471 C 106 525 136 571 175 609 C 213 647 260 676 315 698 C 370 719 431 730 497 730 L 902 730 Z M 555 606 C 556 612 557 620 559 630 C 561 639 562 646 562 651 C 561 665 555 673 543 677 C 531 680 517 682 500 682 C 440 682 388 670 345 648 C 302 626 267 596 240 560 C 212 523 192 480 179 432 C 166 384 160 334 160 283 C 160 240 166 204 178 174 C 190 144 205 119 225 100 C 244 81 266 67 291 59 C 315 50 340 46 365 46 C 387 46 402 50 411 60 C 419 69 426 85 432 108 L 555 606 Z" unicode="" />
<glyph horiz-adv-x="706" d="M 577 434 C 615 434 645 425 667 407 C 689 389 701 366 701 338 C 701 306 692 281 674 262 C 656 243 634 229 609 219 C 583 209 557 202 530 199 C 503 196 481 195 463 195 L 416 195 C 416 189 415 185 415 181 C 415 177 415 173 415 171 C 415 121 426 88 448 71 C 470 54 494 46 521 46 C 543 46 566 52 591 65 C 615 78 641 97 668 122 L 687 94 C 682 87 675 78 665 66 C 655 54 642 43 626 32 C 610 20 592 11 570 3 C 548 -5 522 -9 493 -9 C 459 -9 431 -1 409 15 C 387 31 370 49 357 70 C 334 46 309 26 282 12 C 254 -2 225 -10 195 -10 C 138 -10 95 7 66 42 C 37 76 23 120 23 173 C 23 206 28 238 40 270 C 51 302 67 330 88 354 C 109 378 135 398 166 413 C 196 428 231 436 269 436 C 300 436 327 428 349 414 C 371 400 390 380 405 356 C 429 380 456 399 485 413 C 513 427 544 434 577 434 Z M 200 36 C 223 36 244 42 262 56 C 280 70 295 88 307 110 C 319 132 328 157 334 185 C 340 213 344 242 344 272 C 344 308 338 336 326 358 C 314 380 292 391 262 391 C 236 391 214 383 196 369 C 177 355 162 336 150 314 C 138 292 130 267 125 239 C 119 211 117 183 117 157 C 117 119 123 90 136 68 C 148 46 170 36 200 36 Z M 421 233 C 444 234 467 236 491 238 C 514 240 535 244 553 251 C 571 257 585 267 597 281 C 608 295 614 313 614 337 C 614 356 608 369 596 377 C 584 385 571 389 559 389 C 530 389 502 376 476 351 C 449 326 431 287 421 233 Z" unicode="" />
<glyph horiz-adv-x="545" d="M 524 951 L 566 951 L 393 778 L 333 778 L 234 951 L 274 951 L 372 855 L 524 951 Z M 532 708 L 558 708 L 514 534 L 482 534 C 476 534 473 536 471 538 C 469 540 468 544 468 548 C 463 591 450 626 430 652 C 409 678 378 691 337 691 C 299 691 267 679 242 656 C 217 633 205 604 205 570 C 205 546 210 526 221 508 C 231 490 247 474 268 462 C 284 452 301 443 321 433 C 341 423 358 414 373 408 C 423 383 458 356 479 328 C 500 300 511 266 511 228 C 511 199 505 170 493 142 C 481 114 463 88 441 66 C 419 43 391 25 358 11 C 325 -3 288 -10 246 -10 C 204 -10 167 -4 135 7 C 103 19 81 27 71 32 C 67 33 64 34 61 35 C 57 36 54 37 52 37 C 47 37 43 36 40 35 C 37 33 34 31 32 27 C 28 22 23 18 18 16 C 13 14 9 13 6 13 L -23 13 L 26 209 L 58 209 C 62 209 66 207 69 204 C 71 201 74 195 76 187 C 89 133 112 94 145 72 C 178 50 214 39 252 39 C 300 39 340 52 372 80 C 403 108 419 146 419 194 C 419 225 409 250 390 268 C 370 286 347 301 321 315 C 301 325 284 333 269 341 C 254 348 238 356 222 365 C 180 386 151 412 136 443 C 121 474 114 507 114 541 C 114 567 119 592 130 616 C 141 640 156 661 176 679 C 196 697 220 712 248 723 C 276 734 308 740 342 740 C 360 740 382 737 407 732 C 431 726 456 716 481 702 C 485 699 490 697 494 696 C 498 694 503 695 509 699 C 515 703 520 705 522 706 C 524 707 528 708 532 708 Z" unicode="" />
<glyph horiz-adv-x="365" d="M 378 660 L 419 660 L 253 482 L 193 482 L 105 660 L 145 660 L 236 559 L 378 660 Z M 224 434 C 267 434 298 426 318 410 C 337 394 347 377 347 361 C 347 343 341 330 331 321 C 320 311 308 307 295 307 C 282 307 271 311 263 320 C 255 328 251 339 251 351 C 251 355 251 361 253 368 C 255 374 257 380 259 385 C 256 385 251 387 245 390 C 239 392 228 394 213 394 C 194 394 177 387 162 375 C 147 363 140 347 140 327 C 140 310 147 296 162 284 C 177 272 202 258 237 242 C 271 226 295 209 309 192 C 323 174 330 154 330 131 C 330 115 326 98 319 82 C 311 65 300 50 285 37 C 270 23 251 12 229 4 C 207 -4 181 -9 151 -9 C 103 -9 67 0 41 20 C 15 40 2 61 2 84 C 2 98 6 110 16 122 C 25 133 38 139 55 139 C 71 139 83 134 91 126 C 98 117 102 107 102 95 C 102 87 99 79 95 72 C 91 64 88 59 87 57 C 95 49 106 43 121 38 C 135 33 150 31 165 31 C 189 31 210 38 226 53 C 242 67 250 84 250 103 C 250 123 240 138 222 150 C 203 162 179 174 150 188 C 116 203 92 220 80 239 C 67 257 61 278 61 301 C 61 319 65 337 74 353 C 83 369 95 383 110 395 C 125 407 142 416 162 423 C 182 430 202 434 224 434 Z" unicode="" />
<glyph horiz-adv-x="619" d="M 550 908 C 564 908 577 902 589 891 C 600 879 606 866 606 852 C 606 837 600 824 589 813 C 577 801 564 796 550 796 C 535 796 522 801 511 813 C 499 824 494 837 494 852 C 494 866 499 879 511 891 C 522 902 535 908 550 908 Z M 336 908 C 350 908 363 902 375 891 C 386 879 392 866 392 852 C 392 837 386 824 375 813 C 363 801 350 796 336 796 C 321 796 308 801 297 813 C 285 824 280 837 280 852 C 280 866 285 879 297 891 C 308 902 321 908 336 908 Z M 539 730 L 732 730 L 727 710 C 725 705 723 701 719 699 C 715 696 709 692 701 688 C 685 680 673 673 665 668 C 657 663 645 650 627 630 L 374 334 L 315 97 C 313 91 312 85 311 80 C 310 74 310 70 310 68 C 310 62 312 58 317 54 C 321 50 328 47 336 45 C 343 42 349 40 353 38 C 357 36 360 34 360 30 C 360 28 359 26 359 23 C 358 20 357 17 357 15 L 353 0 L 137 0 L 143 25 C 144 31 147 34 151 36 C 155 37 162 40 174 45 C 188 50 197 55 201 59 C 204 63 207 72 210 85 L 271 332 L 150 643 C 146 653 141 661 135 668 C 129 674 121 680 111 685 C 101 689 94 693 92 695 C 90 697 89 700 90 705 L 96 730 L 314 730 L 310 714 C 308 708 306 704 304 702 C 301 700 294 696 282 691 C 273 687 266 683 261 679 C 256 675 254 671 254 667 C 254 664 255 659 257 651 C 259 643 260 638 262 634 L 354 391 L 558 633 C 563 639 568 647 574 655 C 580 663 583 668 583 671 C 583 676 580 680 575 683 C 569 685 563 688 557 691 C 547 695 541 698 538 702 C 534 705 533 709 535 714 L 539 730 Z" unicode="" />
<glyph horiz-adv-x="591" d="M 562 951 L 604 951 L 431 778 L 371 778 L 272 951 L 312 951 L 410 855 L 562 951 Z M 256 730 L 658 730 L 655 717 C 652 707 648 699 644 694 C 640 688 635 682 629 676 L 106 49 L 357 49 C 385 49 407 56 425 70 C 443 84 463 108 486 144 C 490 150 494 155 497 159 C 500 162 505 164 512 164 L 540 164 L 497 -8 C 493 -7 486 -6 478 -6 C 469 -5 460 -4 450 -3 C 440 -2 431 -1 421 -1 C 411 0 402 0 396 0 L -38 0 L -33 18 C -31 24 -28 30 -24 35 C -20 39 -14 46 -8 55 L 515 681 L 282 681 C 262 681 245 675 230 663 C 215 651 200 632 185 606 C 181 600 177 594 171 590 C 165 586 157 584 149 584 L 129 584 L 167 738 C 175 737 189 735 209 733 C 228 731 244 730 256 730 Z" unicode="" />
<glyph horiz-adv-x="398" d="M 391 660 L 432 660 L 266 482 L 206 482 L 118 660 L 158 660 L 249 559 L 391 660 Z M 403 435 L 415 408 L 89 83 L 91 81 C 101 81 112 82 122 83 C 132 84 145 85 162 85 C 180 85 196 82 209 78 C 222 74 234 69 244 63 C 254 57 264 52 274 48 C 283 44 293 42 303 42 C 307 42 313 43 319 47 C 325 51 329 58 329 70 C 329 78 327 84 323 88 C 319 92 314 96 309 100 C 304 104 300 108 296 114 C 292 120 290 128 290 139 C 290 151 294 161 304 168 C 313 174 323 178 333 178 C 341 178 351 174 363 167 C 374 159 380 144 380 120 C 380 98 376 78 368 62 C 360 46 349 32 337 22 C 324 11 310 3 294 -1 C 278 -6 261 -9 245 -9 C 229 -9 215 -7 204 -5 C 193 -3 182 0 172 2 C 162 5 150 8 138 10 C 126 12 111 14 93 14 C 76 14 60 12 45 9 C 29 6 9 2 -15 -2 L -27 25 L 300 352 L 298 355 C 283 349 269 346 255 345 C 241 344 228 344 218 344 C 203 344 189 345 177 348 C 164 350 148 352 130 352 C 111 352 96 346 86 336 C 75 325 66 315 59 306 L 35 323 C 35 325 37 332 42 344 C 47 355 55 367 65 380 C 75 392 89 404 106 414 C 122 424 142 430 166 430 C 182 430 194 429 202 427 C 210 425 217 424 225 422 C 232 420 241 418 251 416 C 261 414 276 414 296 414 C 328 414 352 416 366 421 C 380 425 393 430 403 435 Z" unicode="" />
<glyph horiz-adv-x="456" d="M 414 694 C 440 694 460 687 474 675 C 488 663 494 647 494 629 C 494 615 489 604 481 594 C 473 584 462 579 448 579 C 436 579 426 582 417 588 C 407 594 403 603 403 616 C 403 622 403 628 405 634 C 406 640 407 646 408 654 C 379 645 358 629 344 605 C 330 581 321 559 317 539 L 279 378 L 385 378 L 373 333 L 267 333 L 158 -137 L 66 -137 L 176 333 L 94 334 L 104 378 L 156 378 C 170 378 181 382 188 392 C 194 402 199 412 202 423 L 220 494 C 222 506 228 523 237 546 C 245 568 257 590 272 612 C 287 634 306 653 330 669 C 353 685 381 694 414 694 Z" unicode="" />
<glyph horiz-adv-x="400" d="M 290 656 L 378 478 L 338 478 L 247 579 L 105 478 L 64 478 L 230 656 L 290 656 Z" unicode="" />
<glyph horiz-adv-x="400" d="M 338 660 L 379 660 L 213 482 L 153 482 L 65 660 L 105 660 L 196 559 L 338 660 Z" unicode="" />
<glyph horiz-adv-x="400" d="M 78 599 L 374 599 L 357 539 L 61 539 L 78 599 Z" unicode="" />
<glyph horiz-adv-x="400" d="M 313 661 L 352 661 C 337 613 317 573 293 540 C 269 507 231 491 179 491 C 133 491 102 504 88 532 C 74 559 67 595 67 641 C 67 644 67 647 67 651 C 67 654 67 657 68 661 L 106 661 C 110 631 116 605 126 585 C 135 565 157 555 193 555 C 229 555 254 565 270 585 C 285 605 299 631 313 661 Z" unicode="" />
<glyph horiz-adv-x="400" d="M 231 637 C 247 637 261 631 272 619 C 282 607 288 594 288 578 C 288 562 282 549 271 537 C 260 525 246 520 230 520 C 214 520 200 525 189 537 C 178 549 173 562 173 578 C 173 594 178 607 190 619 C 201 631 215 637 231 637 Z" unicode="" />
<glyph horiz-adv-x="400" d="M 264 701 C 296 701 321 691 341 673 C 360 654 370 631 370 604 C 370 570 357 541 332 518 C 306 494 277 483 243 483 C 212 483 187 492 167 510 C 147 528 138 552 138 580 C 138 594 141 608 147 623 C 153 637 161 650 172 662 C 183 673 196 682 212 690 C 228 697 245 701 264 701 Z M 244 515 C 266 515 283 525 295 545 C 306 565 312 588 312 613 C 312 633 307 647 299 656 C 290 664 278 669 263 669 C 239 669 222 658 212 637 C 201 616 196 594 196 572 C 196 554 199 540 207 530 C 215 520 227 515 244 515 Z" unicode="" />
<glyph horiz-adv-x="400" d="M 340 625 L 372 625 C 366 592 352 564 331 541 C 310 518 286 507 260 507 C 248 507 238 508 230 512 C 222 515 211 522 198 532 C 187 540 178 546 170 550 C 162 554 154 556 144 556 C 130 556 119 550 109 540 C 99 529 92 517 89 503 L 57 503 C 62 535 75 563 96 586 C 117 609 141 621 168 621 C 182 621 193 619 201 615 C 209 611 218 606 230 598 C 242 589 251 582 259 578 C 267 574 275 572 284 572 C 297 572 309 577 319 588 C 329 598 336 611 340 625 Z" unicode="" />
<glyph horiz-adv-x="587" d="M 257 421 L 583 420 L 569 357 L 485 357 L 430 120 C 429 114 428 107 426 98 C 424 89 424 82 424 77 C 424 58 430 47 442 43 C 454 39 464 37 474 37 C 480 37 486 37 493 39 C 499 41 505 43 511 46 C 511 40 512 35 512 31 C 512 27 513 23 513 21 C 513 15 509 10 502 6 C 494 2 486 -1 477 -3 C 467 -5 458 -7 449 -8 C 439 -9 433 -10 429 -10 C 401 -10 379 -3 362 10 C 344 23 336 44 336 73 C 336 80 336 89 338 100 C 340 111 342 121 344 129 L 396 357 L 283 355 C 279 336 274 313 268 286 C 262 259 255 233 249 207 C 243 186 236 163 227 138 C 218 112 207 89 194 67 C 181 45 166 27 148 13 C 130 -1 110 -9 87 -9 C 72 -9 59 -4 49 4 C 39 12 34 24 34 39 C 34 55 39 68 50 80 C 60 91 73 97 88 97 C 94 97 100 95 108 92 C 116 88 125 81 136 69 C 148 88 159 110 169 134 C 179 158 187 183 195 209 C 203 234 210 259 216 285 C 222 311 227 335 232 357 C 196 353 170 343 153 329 C 135 315 121 296 109 273 L 64 273 C 80 315 104 351 136 379 C 168 407 209 421 257 421 Z" unicode="" />
<glyph horiz-adv-x="550" d="M 57 254 L 513 254 L 497 192 L 41 192 L 57 254 Z" unicode="" />
<glyph horiz-adv-x="1090" d="M 57 254 L 1053 254 L 1037 192 L 41 192 L 57 254 Z" unicode="" />
<glyph horiz-adv-x="1000" d="M -45 43 L 961 43 L 950 0 L -56 0 L -45 43 Z" unicode="" />
<glyph horiz-adv-x="226" d="M 278 741 L 298 716 C 276 702 254 686 233 668 C 212 650 196 626 184 598 C 206 594 222 588 231 578 C 239 568 244 558 244 546 C 244 525 237 508 224 496 C 211 483 196 477 178 477 C 158 477 143 482 133 493 C 123 503 119 518 119 536 C 119 552 122 569 128 588 C 134 607 144 626 157 645 C 170 663 187 681 207 698 C 227 714 250 729 278 741 Z" unicode="" />
<glyph horiz-adv-x="226" d="M 209 740 C 229 740 243 734 253 724 C 263 713 268 699 268 681 C 268 665 264 647 258 628 C 252 609 242 590 229 572 C 216 553 200 535 180 519 C 160 502 136 488 109 476 L 89 501 C 111 515 132 531 153 549 C 174 567 191 590 203 619 C 180 622 164 628 156 638 C 147 648 143 659 143 671 C 143 691 149 708 162 721 C 175 733 191 740 209 740 Z" unicode="" />
<glyph horiz-adv-x="226" d="M 73 120 C 93 120 107 114 117 104 C 127 93 132 79 132 61 C 132 45 128 27 122 8 C 116 -10 106 -29 93 -48 C 80 -66 64 -84 44 -101 C 24 -117 0 -132 -27 -144 L -47 -119 C -25 -105 -3 -89 17 -71 C 38 -53 55 -29 67 -1 C 44 2 28 8 20 18 C 11 28 7 39 7 51 C 7 71 13 88 26 101 C 39 113 55 120 73 120 Z" unicode="" />
<glyph horiz-adv-x="396" d="M 448 741 L 468 716 C 446 702 424 686 403 668 C 382 650 366 626 354 598 C 376 594 392 588 401 578 C 409 568 414 558 414 546 C 414 525 407 508 394 496 C 381 483 366 477 348 477 C 328 477 313 482 303 493 C 293 503 289 518 289 536 C 289 552 292 569 298 588 C 304 607 314 626 327 645 C 340 663 357 681 377 698 C 397 714 420 729 448 741 Z M 278 741 L 298 716 C 276 702 254 686 233 668 C 212 650 196 626 184 598 C 206 594 222 588 231 578 C 239 568 244 558 244 546 C 244 525 237 508 224 496 C 211 483 196 477 178 477 C 158 477 143 482 133 493 C 123 503 119 518 119 536 C 119 552 122 569 128 588 C 134 607 144 626 157 645 C 170 663 187 681 207 698 C 227 714 250 729 278 741 Z" unicode="" />
<glyph horiz-adv-x="396" d="M 379 740 C 399 740 413 734 423 724 C 433 713 438 699 438 681 C 438 665 434 647 428 628 C 422 609 412 590 399 572 C 386 553 370 535 350 519 C 330 502 306 488 279 476 L 259 501 C 281 515 302 531 323 549 C 344 567 361 590 373 619 C 350 622 334 628 326 638 C 317 648 313 659 313 671 C 313 691 319 708 332 721 C 345 733 361 740 379 740 Z M 209 740 C 229 740 243 734 253 724 C 263 713 268 699 268 681 C 268 665 264 647 258 628 C 252 609 242 590 229 572 C 216 553 200 535 180 519 C 160 502 136 488 109 476 L 89 501 C 111 515 132 531 153 549 C 174 567 191 590 203 619 C 180 622 164 628 156 638 C 147 648 143 659 143 671 C 143 691 149 708 162 721 C 175 733 191 740 209 740 Z" unicode="" />
<glyph horiz-adv-x="396" d="M 243 120 C 263 120 277 114 287 104 C 297 93 302 79 302 61 C 302 45 298 27 292 8 C 286 -10 276 -29 263 -48 C 250 -66 234 -84 214 -101 C 194 -117 170 -132 143 -144 L 123 -119 C 145 -105 166 -89 187 -71 C 208 -53 225 -29 237 -1 C 214 2 198 8 190 18 C 181 28 177 39 177 51 C 177 71 183 88 196 101 C 209 113 225 120 243 120 Z M 73 120 C 93 120 107 114 117 104 C 127 93 132 79 132 61 C 132 45 128 27 122 8 C 116 -10 106 -29 93 -48 C 80 -66 64 -84 44 -101 C 24 -117 0 -132 -27 -144 L -47 -119 C -25 -105 -3 -89 17 -71 C 38 -53 55 -29 67 -1 C 44 2 28 8 20 18 C 11 28 7 39 7 51 C 7 71 13 88 26 101 C 39 113 55 120 73 120 Z" unicode="" />
<glyph horiz-adv-x="471" d="M 437 534 C 456 534 471 529 482 521 C 492 513 498 502 498 490 C 498 478 494 467 486 459 C 478 450 468 446 456 446 C 454 446 452 446 450 446 C 448 446 446 446 444 447 C 430 450 419 454 413 458 C 406 462 399 467 392 472 C 385 477 376 482 366 488 C 355 493 339 499 318 505 C 315 494 312 480 310 464 C 308 448 307 430 307 412 C 307 401 307 390 308 379 C 309 367 311 356 314 346 C 301 329 289 306 277 278 C 265 249 254 216 243 180 C 232 144 221 104 210 60 C 198 16 187 -28 176 -74 L 140 -65 C 150 -25 159 14 169 53 C 178 92 186 129 193 163 C 199 197 205 229 209 258 C 213 287 216 312 216 334 C 216 340 215 347 215 353 C 215 359 214 365 214 371 C 232 391 248 416 260 445 C 272 473 281 496 286 513 C 272 515 261 517 252 518 C 243 518 235 519 229 519 C 218 519 209 518 202 517 C 194 515 188 515 182 515 C 165 515 149 518 135 524 C 121 530 114 542 114 560 C 114 572 118 582 126 590 C 134 598 144 603 156 603 C 158 603 159 603 161 603 C 163 603 165 602 167 602 C 181 598 191 594 198 590 C 204 586 211 581 218 576 C 225 571 234 566 245 561 C 256 555 272 550 294 545 C 297 561 299 574 301 586 C 302 597 303 607 303 616 C 303 624 302 632 302 639 C 301 645 301 652 301 660 C 301 684 304 703 312 715 C 319 727 331 733 348 733 C 359 733 369 729 377 721 C 385 713 389 704 389 692 C 389 690 389 688 389 686 C 389 684 388 682 388 680 C 384 666 380 654 375 646 C 370 638 365 629 360 621 C 354 612 349 601 343 589 C 337 576 332 559 326 537 C 338 534 349 532 359 531 C 369 530 377 530 384 530 C 394 530 404 530 412 532 C 420 533 428 534 437 534 Z" unicode="" />
<glyph horiz-adv-x="471" d="M 437 534 C 451 534 464 530 478 524 C 491 518 498 506 498 490 C 498 478 494 467 486 459 C 478 450 468 446 456 446 C 454 446 452 446 450 446 C 448 446 446 446 444 447 C 429 450 417 455 409 461 C 401 467 391 474 379 481 C 369 486 359 491 349 495 C 339 499 328 502 318 505 C 315 495 313 483 311 470 C 309 456 307 442 306 428 C 305 414 304 400 304 386 C 304 372 304 360 304 350 C 304 344 304 339 304 333 C 304 327 305 322 306 317 C 298 307 289 295 281 281 C 273 267 265 252 258 236 C 250 220 244 204 238 188 C 232 172 228 158 225 146 C 234 144 243 142 253 141 C 263 140 272 140 282 140 C 290 140 297 140 305 142 C 313 143 321 144 329 144 C 343 144 358 141 374 135 C 389 129 397 117 397 99 C 397 87 393 76 385 68 C 377 60 367 56 355 56 C 353 56 351 56 349 56 C 347 56 346 56 344 57 C 329 60 317 65 309 71 C 301 77 291 84 279 91 C 269 96 259 100 249 104 C 238 108 227 111 217 114 C 214 102 212 91 210 79 C 208 67 208 55 208 43 C 208 35 208 28 209 21 C 209 13 210 6 210 -1 C 210 -17 207 -34 202 -50 C 196 -66 183 -74 163 -74 C 151 -74 142 -70 134 -62 C 126 -54 122 -44 122 -33 C 122 -31 122 -29 122 -27 C 122 -25 122 -23 123 -21 C 126 -6 131 6 139 18 C 146 30 153 42 160 55 C 165 65 170 76 174 88 C 178 99 182 110 185 122 C 175 124 166 125 156 127 C 146 128 137 129 127 129 C 118 129 109 128 100 127 C 91 125 82 125 74 125 C 60 125 46 128 33 134 C 19 140 13 152 13 169 C 13 181 17 191 25 200 C 33 208 43 213 55 213 C 57 213 59 213 61 213 C 63 213 65 212 67 212 C 81 208 93 203 101 197 C 109 191 120 184 132 178 C 141 172 151 168 161 164 C 171 160 182 156 193 154 C 195 163 198 175 200 189 C 202 203 203 218 204 233 C 205 248 206 263 207 277 C 207 291 208 304 208 314 C 208 318 207 323 207 328 C 207 332 206 337 206 342 C 214 351 223 363 231 377 C 239 391 246 407 253 423 C 260 439 266 455 272 471 C 278 487 282 501 286 513 C 276 515 267 516 257 517 C 247 518 238 519 229 519 C 221 519 213 518 205 517 C 197 515 190 515 182 515 C 167 515 152 517 137 523 C 121 529 114 541 114 560 C 114 572 118 582 126 590 C 134 598 144 603 156 603 C 158 603 159 603 161 603 C 163 603 165 602 167 602 C 181 598 193 593 201 587 C 209 581 220 574 232 568 C 241 562 251 558 262 554 C 272 550 283 547 294 545 C 296 556 298 568 300 580 C 302 592 303 604 303 616 C 303 623 302 630 302 638 C 301 645 301 652 301 660 C 301 676 303 693 309 709 C 314 725 327 733 348 733 C 359 733 369 729 377 721 C 385 713 389 703 389 692 C 389 690 389 688 389 686 C 389 684 388 682 388 680 C 384 665 379 652 372 640 C 364 628 357 616 351 604 C 345 593 340 582 336 571 C 332 559 328 548 326 537 C 335 535 344 533 354 532 C 364 530 374 530 384 530 C 392 530 401 530 410 532 C 419 533 428 534 437 534 Z" unicode="" />
<glyph horiz-adv-x="423" d="M 212 544 C 238 544 263 538 287 528 C 310 518 330 504 348 486 C 365 468 379 448 389 425 C 399 401 405 376 405 350 C 405 323 399 298 389 275 C 379 251 365 231 348 213 C 330 195 310 181 287 171 C 263 161 238 156 212 156 C 185 156 160 161 136 171 C 112 181 92 195 75 213 C 57 231 43 251 33 275 C 23 298 18 323 18 350 C 18 376 23 401 33 425 C 43 448 57 468 75 486 C 92 504 112 518 136 528 C 160 538 185 544 212 544 Z" unicode="" />
<glyph horiz-adv-x="819" d="M 652 121 C 670 121 685 114 697 102 C 709 89 716 74 716 58 C 716 40 709 25 697 13 C 685 0 670 -6 652 -6 C 634 -6 620 0 608 13 C 596 25 590 40 590 58 C 590 74 596 89 608 102 C 620 114 634 121 652 121 Z M 379 121 C 397 121 412 114 424 102 C 436 89 443 74 443 58 C 443 40 436 25 424 13 C 412 0 397 -6 379 -6 C 361 -6 347 0 335 13 C 323 25 317 40 317 58 C 317 74 323 89 335 102 C 347 114 361 121 379 121 Z M 106 121 C 124 121 139 114 151 102 C 163 89 170 74 170 58 C 170 40 163 25 151 13 C 139 0 124 -6 106 -6 C 88 -6 74 0 62 13 C 50 25 44 40 44 58 C 44 74 50 89 62 102 C 74 114 88 121 106 121 Z" unicode="" />
<glyph horiz-adv-x="1212" d="M 696 702 L 732 676 L 227 -37 L 171 6 L 606 572 L 604 574 C 598 570 589 564 578 556 C 566 548 552 539 535 531 C 517 523 497 515 475 508 C 452 501 427 496 400 494 C 395 468 387 443 375 421 C 363 398 348 378 331 361 C 313 344 294 331 273 321 C 252 311 231 307 209 307 C 172 307 140 321 113 351 C 86 380 73 418 73 464 C 73 491 78 518 88 546 C 98 574 111 598 129 620 C 147 642 168 659 192 673 C 216 687 243 694 271 694 C 309 694 341 678 365 647 C 389 616 402 579 403 535 C 442 539 477 547 509 560 C 540 573 568 588 592 604 C 616 620 636 636 654 654 C 671 672 685 688 696 702 Z M 327 535 C 327 540 328 545 328 550 C 328 555 328 560 328 565 C 328 593 322 615 312 630 C 302 645 286 653 266 653 C 253 653 242 649 234 643 C 225 637 221 627 221 615 C 221 600 229 584 245 567 C 261 550 288 539 327 535 Z M 210 348 C 224 348 238 352 250 361 C 262 369 273 381 283 395 C 292 409 300 424 306 442 C 312 460 317 477 321 495 C 286 500 256 512 230 531 C 204 550 191 575 191 606 C 175 580 164 549 158 514 C 152 479 149 449 149 423 C 149 398 154 379 166 367 C 177 354 192 348 210 348 Z M 1071 378 C 1109 378 1141 362 1166 331 C 1190 299 1203 262 1203 218 C 1203 187 1197 158 1186 131 C 1175 103 1161 79 1143 59 C 1125 38 1105 21 1081 9 C 1057 -2 1033 -9 1009 -9 C 972 -9 940 5 913 35 C 886 64 873 102 873 148 C 873 175 878 202 888 230 C 898 258 911 282 929 304 C 947 326 968 343 992 357 C 1016 371 1043 378 1071 378 Z M 709 378 C 747 378 779 362 804 331 C 828 299 841 262 841 218 C 841 187 835 158 824 131 C 813 103 799 79 781 59 C 763 38 743 21 719 9 C 695 -2 671 -9 647 -9 C 610 -9 578 5 551 35 C 524 64 511 102 511 148 C 511 175 516 202 526 230 C 536 258 549 282 567 304 C 585 326 606 343 630 357 C 654 371 681 378 709 378 Z M 1010 32 C 1030 32 1048 39 1063 55 C 1077 70 1089 89 1099 111 C 1108 133 1115 157 1120 182 C 1124 207 1127 229 1127 249 C 1127 277 1122 299 1112 314 C 1102 329 1086 337 1066 337 C 1044 337 1025 328 1010 311 C 995 293 983 273 974 249 C 965 225 959 199 955 173 C 951 147 949 125 949 107 C 949 82 954 63 966 51 C 977 38 992 32 1010 32 Z M 648 32 C 668 32 686 39 701 55 C 715 70 727 89 737 111 C 746 133 753 157 758 182 C 762 207 765 229 765 249 C 765 277 760 299 750 314 C 740 329 724 337 704 337 C 682 337 663 328 648 311 C 633 293 621 273 612 249 C 603 225 597 199 593 173 C 589 147 587 125 587 107 C 587 82 592 63 604 51 C 615 38 630 32 648 32 Z" unicode="" />
<glyph horiz-adv-x="297" d="M 236 398 L 294 398 L 147 219 L 220 50 L 162 50 L 60 192 C 57 195 55 199 53 203 C 51 207 51 212 51 217 C 51 225 53 232 58 239 C 62 245 68 251 74 256 L 236 398 Z" unicode="" />
<glyph horiz-adv-x="297" d="M 241 256 C 243 252 245 248 247 244 C 249 240 250 235 250 231 C 250 223 247 215 243 209 C 238 202 233 196 228 192 L 66 50 L 8 50 L 155 229 L 81 398 L 139 398 L 241 256 Z" unicode="" />
<glyph horiz-adv-x="130" d="M 363 733 L 418 733 L -156 -10 L -211 -10 L 363 733 Z" unicode="" />
<glyph horiz-adv-x="571" d="M 440 694 C 485 694 522 684 550 665 C 578 646 592 623 592 597 C 592 577 586 561 574 548 C 562 534 548 528 531 528 C 514 528 501 532 493 541 C 485 550 481 561 481 575 C 481 584 482 594 485 604 C 488 614 490 623 492 630 C 489 632 482 636 470 640 C 458 644 444 647 428 647 C 388 647 350 627 315 588 C 279 548 251 494 229 425 L 448 425 L 440 380 L 218 380 C 215 369 212 357 210 343 C 207 329 205 315 203 302 L 394 302 L 385 257 L 198 257 C 197 249 196 242 196 235 C 195 227 195 220 195 213 C 195 167 205 129 227 98 C 249 66 283 51 331 51 C 361 51 391 58 419 74 C 447 90 475 115 502 150 L 526 118 C 514 97 500 79 483 63 C 466 47 448 33 429 23 C 409 12 389 4 368 -1 C 347 -6 327 -9 308 -9 C 240 -9 189 11 154 53 C 118 94 101 149 101 219 C 101 225 101 231 101 237 C 101 243 102 250 103 257 L 33 257 L 42 302 L 108 302 C 110 315 112 328 115 342 C 117 355 120 368 124 380 L 57 380 L 65 425 L 137 425 C 152 465 170 501 191 534 C 212 567 235 595 261 619 C 286 642 314 660 344 674 C 374 687 406 694 440 694 Z" unicode="" />
<glyph horiz-adv-x="500" d="M 517 730 L 524 519 L 487 519 L 480 671 L 425 519 L 403 519 L 349 671 L 341 519 L 305 519 L 316 730 L 371 730 L 415 596 L 460 730 L 517 730 Z M 282 730 L 282 695 L 225 695 L 225 519 L 185 519 L 185 696 L 129 696 L 129 730 L 282 730 Z" unicode="" />
<glyph horiz-adv-x="787" d="M 656 733 L 711 733 L 137 -10 L 82 -10 L 656 733 Z M 279 729 L 315 729 L 228 382 C 226 375 227 370 231 366 C 234 362 240 360 249 359 C 257 357 264 355 270 352 C 275 348 277 343 275 337 L 269 315 L 85 315 L 90 336 C 91 342 95 347 103 351 C 111 354 119 357 129 359 C 138 360 144 362 147 366 C 149 369 152 374 154 382 L 224 657 L 157 657 L 165 691 L 279 729 Z M 621 414 C 659 414 690 404 716 385 C 741 366 754 344 754 319 C 754 292 744 270 724 254 C 704 237 679 225 649 219 C 673 211 694 198 710 182 C 726 165 734 145 734 122 C 734 86 717 55 683 29 C 649 3 607 -9 559 -9 C 518 -9 486 0 462 17 C 438 35 426 57 426 84 C 426 94 430 104 438 112 C 446 120 456 125 469 125 C 484 125 495 120 503 112 C 511 104 515 95 515 87 C 515 80 513 74 509 69 C 505 63 501 58 497 54 C 503 48 511 43 521 39 C 531 35 542 34 556 34 C 574 34 589 37 601 44 C 613 50 623 58 631 68 C 639 78 644 88 648 100 C 651 112 653 123 653 134 C 653 155 644 171 626 182 C 608 193 580 199 541 200 L 549 241 C 595 241 628 247 647 261 C 665 275 675 295 675 323 C 675 336 669 347 657 357 C 645 367 630 372 610 372 C 600 372 592 371 584 369 C 576 367 569 365 565 363 C 567 359 570 354 572 350 C 574 346 575 341 575 335 C 575 325 571 316 563 310 C 555 304 545 301 535 301 C 523 301 513 304 504 311 C 495 317 491 328 491 342 C 491 352 494 362 502 371 C 510 379 520 387 532 393 C 544 399 558 404 574 408 C 589 412 605 414 621 414 Z" unicode="" />
<glyph horiz-adv-x="853" d="M 723 733 L 778 733 L 204 -10 L 149 -10 L 723 733 Z M 289 733 C 329 733 361 722 385 701 C 409 680 422 655 422 625 C 422 604 416 585 406 567 C 396 549 383 533 367 519 C 351 505 335 492 317 480 C 299 468 282 457 266 449 C 239 434 218 422 203 413 C 187 404 173 393 160 381 L 298 381 C 308 381 315 382 321 386 C 327 390 332 397 337 408 C 339 414 342 417 346 419 C 349 421 353 422 358 422 L 382 422 L 354 316 L 74 316 L 86 364 C 102 383 124 404 153 426 C 181 448 210 470 239 491 C 271 515 297 537 315 558 C 333 579 342 603 342 630 C 342 647 335 662 323 674 C 310 686 293 692 273 692 C 261 692 250 689 238 685 C 226 681 218 675 214 669 C 219 664 223 659 226 654 C 229 648 231 642 231 636 C 231 623 227 613 220 606 C 212 599 202 596 189 596 C 174 596 163 600 155 608 C 147 616 144 627 144 639 C 144 661 158 683 187 703 C 216 723 250 733 289 733 Z M 688 414 C 726 414 757 404 783 385 C 808 366 821 344 821 319 C 821 292 811 270 791 254 C 771 237 746 225 716 219 C 740 211 761 198 777 182 C 793 165 801 145 801 122 C 801 86 784 55 750 29 C 716 3 674 -9 626 -9 C 585 -9 553 0 529 17 C 505 35 493 57 493 84 C 493 94 497 104 505 112 C 513 120 523 125 536 125 C 551 125 562 120 570 112 C 578 104 582 95 582 87 C 582 80 580 74 576 69 C 572 63 568 58 564 54 C 570 48 578 43 588 39 C 598 35 609 34 623 34 C 641 34 656 37 668 44 C 680 50 690 58 698 68 C 706 78 711 88 715 100 C 718 112 720 123 720 134 C 720 155 711 171 693 182 C 675 193 647 199 608 200 L 616 241 C 662 241 695 247 714 261 C 732 275 742 295 742 323 C 742 336 736 347 724 357 C 712 367 697 372 677 372 C 667 372 659 371 651 369 C 643 367 636 365 632 363 C 634 359 637 354 639 350 C 641 346 642 341 642 335 C 642 325 638 316 630 310 C 622 304 612 301 602 301 C 590 301 580 304 571 311 C 562 317 558 328 558 342 C 558 352 561 362 569 371 C 577 379 587 387 599 393 C 611 399 625 404 641 408 C 656 412 672 414 688 414 Z" unicode="" />
</font>
</defs>
</svg>
