<?xml version="1.0" encoding="utf-8" ?><svg version="1.1" xmlns = 'http://www.w3.org/2000/svg'><defs><font id='web' horiz-adv-x="1000">
<font-face font-family="web" descent="-196" cap-height="700" units-per-em="1000" bbox="-196,-400,1148,1504" x-height="500" ascent="804" />
<missing-glyph horiz-adv-x="242" d="" /><glyph horiz-adv-x="206" d="" unicode=" " />
<glyph horiz-adv-x="299" d="M 111 700 L 189 700 L 165 157 L 134 157 L 111 700 Z M 195 91 L 195 0 L 105 0 L 105 91 L 195 91 Z" unicode="!" />
<glyph horiz-adv-x="388" d="M 69 700 L 164 700 L 129 468 L 104 468 L 69 700 Z M 224 700 L 318 700 L 284 468 L 257 468 L 224 700 Z" unicode="&#x22;" />
<glyph horiz-adv-x="570" d="M 340 220 L 358 348 L 230 348 L 211 220 L 340 220 Z M 409 387 L 511 387 L 500 348 L 403 348 L 384 220 L 487 220 L 476 181 L 379 181 L 353 0 L 310 0 L 335 181 L 206 181 L 180 0 L 137 0 L 162 181 L 59 181 L 70 220 L 167 220 L 185 348 L 83 348 L 94 387 L 190 387 L 216 569 L 262 569 L 236 387 L 363 387 L 389 569 L 435 569 L 409 387 Z" unicode="#" />
<glyph horiz-adv-x="570" d="M 134 488 C 134 457 145 432 167 412 C 189 392 221 378 264 370 L 264 601 C 225 600 194 589 170 568 C 146 547 134 520 134 488 Z M 305 44 C 349 43 385 54 412 76 C 439 98 453 130 453 170 C 453 206 441 234 417 255 C 393 275 355 290 305 299 L 305 44 Z M 305 361 C 374 346 426 325 462 297 C 497 269 515 229 515 177 C 515 127 496 84 459 48 C 422 12 371 -5 305 -7 L 305 -104 L 264 -104 L 264 -6 C 234 -4 208 0 185 8 C 161 16 141 26 124 38 C 106 50 91 63 79 77 C 67 91 57 105 49 118 L 95 151 C 114 125 138 101 168 79 C 198 57 230 46 264 46 L 264 308 C 202 324 154 345 121 372 C 87 398 71 435 71 481 C 71 529 88 568 124 600 C 159 631 206 649 264 653 L 264 737 L 305 737 L 305 653 C 357 648 399 637 431 620 C 463 603 486 582 502 558 L 462 518 C 444 539 422 559 395 577 C 367 595 337 603 305 603 L 305 361 Z" unicode="$" />
<glyph horiz-adv-x="855" d="M 235 684 C 277 684 314 668 346 637 C 377 606 393 569 393 525 C 393 481 377 444 346 413 C 314 382 277 367 235 367 C 191 367 154 382 123 413 C 92 444 77 481 77 525 C 77 569 92 606 123 637 C 154 668 191 684 235 684 Z M 642 672 L 702 672 L 214 0 L 155 0 L 642 672 Z M 234 418 C 262 418 286 428 306 449 C 325 469 335 495 335 526 C 335 557 325 582 306 602 C 286 622 262 632 234 632 C 205 632 181 622 162 602 C 142 582 133 557 133 526 C 133 495 142 469 162 449 C 181 428 205 418 234 418 Z M 623 305 C 665 305 702 289 734 258 C 765 227 781 190 781 146 C 781 102 765 65 734 34 C 702 3 665 -12 623 -12 C 579 -12 542 3 511 34 C 480 65 465 102 465 146 C 465 190 480 227 511 258 C 542 289 579 305 623 305 Z M 622 39 C 650 39 674 49 694 70 C 713 90 723 116 723 147 C 723 178 713 203 694 223 C 674 243 650 253 622 253 C 593 253 569 243 550 223 C 530 203 521 178 521 147 C 521 116 530 90 550 70 C 569 49 593 39 622 39 Z" unicode="%" />
<glyph horiz-adv-x="632" d="M 263 427 C 301 441 329 462 349 488 C 368 514 378 540 378 568 C 378 592 369 614 352 632 C 335 650 312 660 284 660 C 257 660 235 651 219 635 C 203 619 195 597 195 571 C 195 563 196 554 198 545 C 200 535 204 525 209 515 C 213 503 220 489 230 474 C 240 458 251 443 263 427 Z M 267 45 C 294 45 320 50 345 60 C 370 70 392 85 411 106 L 231 369 C 187 352 155 329 135 299 C 115 269 105 238 105 204 C 105 160 119 122 148 91 C 177 60 217 45 267 45 Z M 626 47 L 626 -1 C 613 -3 604 -5 599 -6 C 593 -7 586 -8 577 -8 C 543 -8 518 -2 500 12 C 482 26 463 44 445 66 C 421 41 393 22 359 9 C 325 -3 292 -10 258 -10 C 226 -10 196 -4 170 6 C 143 17 120 32 101 51 C 81 70 66 92 56 118 C 45 143 40 170 40 199 C 40 247 54 289 82 327 C 110 364 151 392 204 411 C 180 445 162 474 150 498 C 138 522 132 548 132 576 C 132 596 136 615 144 632 C 152 649 164 664 178 676 C 192 688 208 698 226 705 C 244 711 264 715 284 715 C 328 715 364 701 394 675 C 423 649 438 614 438 570 C 438 532 426 498 402 466 C 378 434 341 407 291 385 L 452 147 C 476 179 495 217 507 260 C 519 303 528 348 534 396 L 599 385 C 591 337 579 290 561 244 C 543 198 517 154 483 110 C 491 96 504 81 521 67 C 538 52 558 45 581 45 C 587 45 593 45 599 45 C 605 45 614 46 626 47 Z" unicode="&#x26;" />
<glyph horiz-adv-x="233" d="M 69 700 L 164 700 L 129 468 L 104 468 L 69 700 Z" unicode="'" />
<glyph horiz-adv-x="339" d="M 155 276 C 155 196 167 121 192 51 C 216 -18 253 -85 301 -149 L 250 -149 C 196 -83 156 -16 130 54 C 104 124 91 198 91 276 C 91 353 104 427 130 498 C 156 568 196 636 250 700 L 300 700 C 250 634 214 567 190 498 C 166 429 155 355 155 276 Z" unicode="(" />
<glyph horiz-adv-x="339" d="M 89 700 C 143 636 183 568 209 498 C 235 427 248 353 248 276 C 248 198 235 124 209 54 C 183 -16 143 -83 89 -149 L 38 -149 C 86 -85 122 -18 147 51 C 171 121 184 196 184 276 C 184 355 172 429 148 498 C 124 567 88 634 39 700 L 89 700 Z" unicode=")" />
<glyph horiz-adv-x="530" d="M 421 613 L 442 542 L 282 519 L 400 406 L 339 361 L 267 512 L 194 361 L 133 406 L 252 519 L 89 542 L 111 612 L 258 537 L 229 700 L 303 700 L 274 537 L 421 613 Z" unicode="*" />
<glyph horiz-adv-x="570" d="M 517 292 L 517 237 L 312 237 L 312 32 L 257 32 L 257 237 L 52 237 L 52 292 L 257 292 L 257 496 L 312 496 L 312 292 L 517 292 Z" unicode="+" />
<glyph horiz-adv-x="285" d="M 187 99 L 187 11 L 127 -120 L 86 -120 L 141 4 L 98 4 L 98 99 L 187 99 Z" unicode="," />
<glyph horiz-adv-x="343" d="M 286 296 L 286 237 L 57 237 L 57 296 L 286 296 Z" unicode="-" />
<glyph horiz-adv-x="285" d="M 187 99 L 187 0 L 98 0 L 98 99 L 187 99 Z" unicode="." />
<glyph horiz-adv-x="499" d="M 400 700 L 458 700 L 54 -155 L -4 -155 L 400 700 Z" unicode="/" />
<glyph horiz-adv-x="570" d="M 286 685 C 322 685 355 677 385 662 C 415 647 441 625 463 596 C 485 566 502 530 514 486 C 526 442 532 392 532 336 C 532 226 509 140 464 80 C 418 19 359 -11 286 -11 C 209 -11 148 19 104 81 C 60 142 38 227 38 336 C 38 447 60 533 105 594 C 150 654 210 685 286 685 Z M 287 43 C 339 43 382 68 416 119 C 449 169 466 242 466 336 C 466 433 449 506 415 556 C 381 606 339 631 287 631 C 232 631 188 606 154 556 C 120 506 104 433 104 336 C 104 241 120 168 153 118 C 186 68 231 43 287 43 Z" unicode="0" />
<glyph horiz-adv-x="570" d="M 484 52 L 484 0 L 127 0 L 127 52 L 280 52 L 280 598 L 127 521 L 127 566 C 149 578 168 588 184 597 C 199 605 212 614 224 622 C 236 630 247 638 258 647 C 268 655 281 665 295 677 L 341 677 L 341 52 L 484 52 Z" unicode="1" />
<glyph horiz-adv-x="570" d="M 511 58 L 511 0 L 50 0 L 50 47 C 81 79 117 110 159 142 C 200 173 240 205 278 238 C 320 274 357 313 388 353 C 418 393 434 436 434 482 C 434 530 420 567 392 593 C 364 618 326 631 280 631 C 238 631 202 618 172 594 C 142 569 122 535 112 492 L 50 512 C 66 567 95 610 136 640 C 177 670 226 685 282 685 C 348 685 401 666 441 630 C 481 593 501 543 501 480 C 501 430 486 384 456 342 C 426 300 391 261 351 225 C 316 194 280 165 242 137 C 204 109 170 83 141 58 L 511 58 Z" unicode="2" />
<glyph horiz-adv-x="570" d="M 361 350 C 413 339 452 318 476 288 C 500 258 512 225 512 189 C 512 161 506 135 495 111 C 484 86 468 65 447 47 C 426 29 400 14 369 4 C 337 -5 301 -11 261 -11 C 199 -11 149 2 112 28 C 74 54 45 88 24 130 L 83 158 C 97 129 119 102 149 78 C 179 54 218 42 266 42 C 318 42 360 55 394 81 C 427 107 444 143 444 190 C 444 223 432 253 409 279 C 385 305 342 318 280 318 L 180 318 L 180 372 L 270 372 C 319 372 357 385 383 412 C 409 439 423 471 423 507 C 423 541 410 571 385 595 C 359 619 324 631 280 631 C 258 631 238 627 220 620 C 202 613 186 604 172 593 C 158 581 145 569 135 555 C 125 541 117 527 111 514 L 52 538 C 61 557 73 576 87 594 C 101 612 118 627 137 641 C 156 654 178 665 202 673 C 226 681 252 685 281 685 C 347 685 399 668 436 634 C 472 600 491 558 491 510 C 491 472 479 440 457 412 C 434 384 402 363 361 350 Z" unicode="3" />
<glyph horiz-adv-x="570" d="M 558 222 L 558 169 L 433 169 L 433 -5 L 378 -5 L 378 169 L 30 169 L 30 206 L 374 688 L 433 688 L 433 222 L 558 222 Z M 101 222 L 377 222 L 377 609 L 101 222 Z" unicode="4" />
<glyph horiz-adv-x="570" d="M 300 452 C 335 452 367 446 395 434 C 423 422 447 407 467 387 C 486 367 501 343 511 317 C 521 290 527 261 527 231 C 527 199 521 168 509 139 C 497 109 479 84 457 62 C 435 40 407 22 375 9 C 343 -4 307 -11 268 -11 C 239 -11 213 -7 189 0 C 165 8 143 18 125 31 C 106 43 90 58 76 75 C 62 91 50 109 41 127 L 100 156 C 106 144 113 131 123 118 C 133 104 145 92 159 81 C 173 70 190 61 209 54 C 228 46 250 43 274 43 C 303 43 329 48 353 58 C 376 68 395 81 411 98 C 427 114 439 134 447 156 C 455 178 460 202 460 227 C 460 281 444 322 413 352 C 382 382 343 397 295 397 C 261 397 229 389 200 374 C 170 358 147 339 129 317 L 80 348 L 112 672 L 500 672 L 494 616 L 161 616 L 134 384 C 154 402 178 417 206 431 C 234 445 266 452 300 452 Z" unicode="5" />
<glyph horiz-adv-x="570" d="M 311 438 C 344 438 374 432 402 422 C 430 411 453 396 472 377 C 491 358 506 336 517 310 C 527 284 533 256 533 226 C 533 192 526 160 513 131 C 500 101 483 76 462 55 C 440 34 415 18 386 6 C 357 -5 327 -11 295 -11 C 219 -11 159 17 115 73 C 70 129 48 210 48 315 C 48 372 54 424 67 470 C 80 516 98 554 122 586 C 146 618 174 642 207 659 C 239 676 275 685 314 685 C 370 685 415 672 449 646 C 483 620 508 591 524 557 L 466 530 C 455 554 437 576 413 598 C 389 620 356 631 315 631 C 282 631 253 623 229 609 C 204 595 183 575 167 550 C 150 525 137 495 128 461 C 118 426 113 389 111 349 C 139 373 168 394 200 412 C 232 429 269 438 311 438 Z M 294 43 C 345 43 386 60 418 94 C 450 128 466 171 466 225 C 466 271 451 309 421 339 C 391 369 354 384 310 384 C 286 384 265 381 245 375 C 225 369 206 361 190 352 C 174 342 159 332 146 321 C 132 310 121 300 111 290 C 112 248 118 211 128 180 C 138 148 152 123 169 103 C 185 83 204 68 226 58 C 248 48 270 43 294 43 Z" unicode="6" />
<glyph horiz-adv-x="570" d="M 530 672 L 530 630 C 508 601 483 566 454 524 C 425 482 397 435 369 383 C 341 331 315 272 291 208 C 267 144 249 74 239 0 L 169 0 C 179 64 196 127 219 188 C 242 248 268 305 296 357 C 324 409 352 458 381 502 C 410 546 436 584 459 616 L 44 616 L 52 672 L 530 672 Z" unicode="7" />
<glyph horiz-adv-x="570" d="M 374 351 C 425 333 463 309 489 279 C 514 249 527 213 527 171 C 527 119 505 75 463 41 C 421 6 361 -11 284 -11 C 204 -11 144 5 104 39 C 63 73 43 116 43 168 C 43 209 55 245 80 277 C 104 308 143 333 195 352 C 153 366 120 387 97 415 C 74 443 63 475 63 513 C 63 562 82 603 120 636 C 158 668 213 685 285 685 C 353 685 407 668 445 636 C 483 603 502 563 502 515 C 502 479 491 446 470 418 C 448 389 416 367 374 351 Z M 328 366 C 375 388 405 412 417 439 C 429 466 436 493 436 520 C 436 552 423 578 397 600 C 371 622 333 633 283 633 C 234 633 196 621 169 598 C 142 574 129 547 129 517 C 129 486 142 458 170 432 C 198 406 250 384 328 366 Z M 285 42 C 341 42 384 54 414 80 C 444 106 460 137 460 173 C 460 205 444 235 412 264 C 380 292 323 315 241 331 C 189 314 154 291 136 263 C 117 235 108 204 108 170 C 108 130 123 99 153 76 C 183 53 227 42 285 42 Z" unicode="8" />
<glyph horiz-adv-x="570" d="M 260 290 C 283 290 305 293 325 299 C 345 305 363 312 379 322 C 395 331 410 341 424 352 C 437 363 449 374 459 384 C 457 426 451 462 441 494 C 431 525 417 551 401 571 C 384 591 365 606 343 616 C 321 626 299 631 276 631 C 224 631 183 614 151 580 C 119 546 104 502 104 449 C 104 402 118 364 148 334 C 178 304 215 290 260 290 Z M 275 685 C 350 685 410 656 455 600 C 499 544 522 463 522 359 C 522 301 515 250 502 204 C 489 158 471 119 447 87 C 423 55 395 31 363 14 C 330 -2 294 -11 256 -11 C 200 -11 154 2 120 28 C 86 54 61 84 45 118 L 103 145 C 109 133 116 121 125 109 C 133 97 144 86 156 76 C 168 66 183 58 199 52 C 215 46 234 43 255 43 C 287 43 316 50 341 64 C 365 78 386 98 403 123 C 419 148 432 178 442 213 C 451 247 457 285 459 325 C 431 300 401 279 369 262 C 337 244 301 236 259 236 C 225 236 195 241 167 252 C 139 262 116 277 97 296 C 78 315 63 338 53 364 C 42 390 37 418 37 448 C 37 482 43 513 56 543 C 69 572 86 597 108 618 C 129 639 154 655 183 667 C 212 679 243 685 275 685 Z" unicode="9" />
<glyph horiz-adv-x="296" d="M 192 508 L 192 410 L 103 410 L 103 508 L 192 508 Z M 192 98 L 192 0 L 103 0 L 103 98 L 192 98 Z" unicode=":" />
<glyph horiz-adv-x="296" d="M 192 508 L 192 410 L 103 410 L 103 508 L 192 508 Z M 192 98 L 192 11 L 132 -120 L 90 -120 L 145 4 L 103 4 L 103 98 L 192 98 Z" unicode=";" />
<glyph horiz-adv-x="570" d="M 518 68 L 518 1 L 52 250 L 52 289 L 518 536 L 518 469 L 131 269 L 518 68 Z" unicode="&#x3C;" />
<glyph horiz-adv-x="570" d="M 517 371 L 517 316 L 53 316 L 53 371 L 517 371 Z M 517 212 L 517 157 L 53 157 L 53 212 L 517 212 Z" unicode="=" />
<glyph horiz-adv-x="570" d="M 518 289 L 518 250 L 52 1 L 52 68 L 439 269 L 52 469 L 52 536 L 518 289 Z" unicode="&#x3E;" />
<glyph horiz-adv-x="539" d="M 277 713 C 311 713 341 707 367 696 C 393 684 415 670 433 652 C 450 634 463 613 472 591 C 480 569 485 546 485 524 C 485 496 478 469 466 442 C 453 414 430 387 398 361 C 384 349 369 338 354 327 C 338 315 320 302 300 287 C 290 279 282 270 277 259 C 271 247 269 230 269 207 L 269 167 L 214 167 L 214 214 C 214 244 218 269 227 287 C 235 305 252 324 278 343 C 292 353 304 363 315 371 C 325 379 341 391 361 407 C 382 423 397 442 405 463 C 413 483 418 503 418 521 C 418 563 404 596 377 620 C 350 644 314 657 268 657 C 220 657 182 641 154 610 C 125 578 107 540 101 494 L 42 509 C 52 571 78 620 120 657 C 162 694 214 713 277 713 Z M 289 91 L 289 0 L 199 0 L 199 91 L 289 91 Z" unicode="?" />
<glyph horiz-adv-x="967" d="M 539 670 C 584 670 628 663 671 649 C 713 635 751 614 784 588 C 816 562 842 530 862 492 C 882 454 892 411 892 363 C 892 309 881 256 861 204 C 841 152 811 111 772 79 C 752 63 731 51 710 45 C 689 38 672 35 658 35 C 635 35 615 41 598 54 C 581 66 573 91 573 128 C 547 94 519 71 489 59 C 459 47 434 41 412 41 C 376 41 347 55 325 83 C 303 111 292 148 292 192 C 292 230 297 266 309 300 C 320 334 335 364 354 390 C 373 416 395 436 421 452 C 447 467 474 475 503 475 C 526 475 549 470 573 460 C 596 450 615 428 631 394 L 645 459 L 705 459 L 636 197 C 632 184 630 171 630 159 C 629 147 629 137 629 129 C 629 115 633 103 643 93 C 652 83 664 79 680 79 C 704 79 727 87 748 105 C 768 123 786 145 801 172 C 815 199 827 229 835 261 C 843 293 847 324 847 353 C 847 396 838 435 821 469 C 803 503 780 532 752 556 C 724 579 691 597 653 609 C 615 621 576 628 536 628 C 474 628 418 616 368 594 C 318 571 275 541 240 503 C 204 465 177 421 158 371 C 139 321 130 270 130 216 C 130 164 138 118 154 77 C 170 36 193 2 223 -26 C 252 -54 287 -75 329 -90 C 371 -105 417 -113 467 -113 C 505 -113 543 -108 583 -99 C 622 -90 662 -77 702 -61 L 715 -102 C 675 -118 632 -131 586 -141 C 540 -150 495 -155 451 -155 C 395 -155 343 -145 297 -127 C 251 -108 211 -82 179 -50 C 146 -18 121 20 103 65 C 85 109 76 158 76 210 C 76 274 88 335 113 391 C 137 447 170 496 212 537 C 254 578 303 610 359 634 C 415 658 475 670 539 670 Z M 561 165 C 578 197 590 227 597 254 C 603 281 607 309 607 338 C 607 364 598 387 580 407 C 562 426 540 436 514 436 C 498 436 481 431 463 422 C 445 412 429 399 416 383 C 395 356 379 326 369 293 C 359 260 354 231 354 207 C 354 167 362 137 379 119 C 396 100 418 91 446 91 C 466 91 488 98 510 112 C 532 126 549 143 561 165 Z" unicode="@" />
<glyph horiz-adv-x="553" d="M 155 279 L 394 279 L 274 649 L 155 279 Z M 320 700 L 550 0 L 485 0 L 413 223 L 136 223 L 68 0 L 3 0 L 237 700 L 320 700 Z" unicode="A" />
<glyph horiz-adv-x="631" d="M 433 375 C 485 361 522 337 546 305 C 570 272 582 235 582 195 C 582 159 575 128 561 102 C 547 76 527 55 501 39 C 480 26 454 16 424 10 C 394 3 360 0 322 0 L 91 0 L 91 700 L 351 700 C 384 700 414 695 440 687 C 466 679 488 667 505 652 C 523 636 537 617 545 595 C 553 573 558 548 558 522 C 558 488 546 458 524 431 C 502 404 471 385 433 375 Z M 322 396 C 376 396 417 407 444 430 C 471 453 485 485 485 525 C 485 561 472 589 448 611 C 423 633 386 644 336 644 L 154 644 L 154 396 L 322 396 Z M 336 56 C 394 56 437 68 466 93 C 495 118 510 151 510 193 C 510 239 494 275 462 301 C 430 327 382 340 316 340 L 154 340 L 154 56 L 336 56 Z" unicode="B" />
<glyph horiz-adv-x="615" d="M 529 229 L 586 214 C 568 140 537 84 493 46 C 449 8 395 -11 332 -11 C 243 -11 173 21 122 85 C 71 149 46 237 46 351 C 46 405 53 454 67 499 C 81 543 100 581 125 613 C 150 645 180 669 215 687 C 249 704 287 713 328 713 C 390 713 443 695 487 659 C 530 623 561 569 581 495 L 513 482 C 501 537 479 580 445 610 C 411 640 373 656 329 656 C 299 656 271 649 245 635 C 219 621 196 602 177 576 C 158 550 143 518 133 480 C 122 442 117 399 117 351 C 117 305 122 263 132 225 C 142 187 157 154 175 128 C 193 102 215 81 241 67 C 267 52 295 45 327 45 C 377 45 420 60 455 90 C 489 120 514 167 529 229 Z" unicode="C" />
<glyph horiz-adv-x="667" d="M 477 657 C 523 624 559 581 584 529 C 608 477 621 417 621 350 C 621 296 613 248 597 205 C 581 162 559 125 531 95 C 502 65 467 42 427 25 C 387 8 342 0 292 0 L 91 0 L 91 700 L 311 700 C 345 700 375 696 403 689 C 431 682 455 671 477 657 Z M 511 171 C 523 193 533 220 540 250 C 547 280 551 313 551 347 C 551 378 548 407 543 435 C 538 462 531 487 521 509 C 502 551 475 584 439 608 C 403 632 359 644 308 644 L 154 644 L 154 56 L 311 56 C 357 56 397 66 431 86 C 465 106 491 135 511 171 Z" unicode="D" />
<glyph horiz-adv-x="563" d="M 532 56 L 532 0 L 91 0 L 91 700 L 523 700 L 523 644 L 154 644 L 154 389 L 422 389 L 422 333 L 154 333 L 154 56 L 532 56 Z" unicode="E" />
<glyph horiz-adv-x="539" d="M 526 700 L 526 644 L 154 644 L 154 380 L 436 380 L 436 324 L 154 324 L 154 0 L 91 0 L 91 700 L 526 700 Z" unicode="F" />
<glyph horiz-adv-x="666" d="M 593 351 L 593 0 L 548 0 L 530 89 C 510 59 483 34 449 16 C 414 -2 375 -12 331 -12 C 241 -12 171 20 121 84 C 71 148 46 237 46 351 C 46 405 53 454 68 499 C 82 543 102 581 128 613 C 153 645 183 669 218 687 C 252 704 290 713 330 713 C 393 713 446 697 489 667 C 531 636 564 588 586 522 L 523 503 C 518 515 513 527 508 537 C 503 547 497 558 491 568 C 473 596 450 618 424 633 C 397 648 366 656 331 656 C 300 656 271 649 245 635 C 219 621 196 602 177 576 C 158 550 143 518 132 480 C 121 442 116 398 116 350 C 116 256 135 181 175 126 C 215 71 269 44 337 44 C 398 44 446 59 480 91 C 514 122 531 164 531 218 L 531 295 L 335 295 L 335 351 L 593 351 Z" unicode="G" />
<glyph horiz-adv-x="667" d="M 576 700 L 576 0 L 513 0 L 513 333 L 154 333 L 154 0 L 91 0 L 91 700 L 154 700 L 154 389 L 513 389 L 513 700 L 576 700 Z" unicode="H" />
<glyph horiz-adv-x="247" d="M 155 700 L 155 0 L 92 0 L 92 700 L 155 700 Z" unicode="I" />
<glyph horiz-adv-x="389" d="M 303 700 L 303 230 C 303 192 299 158 291 128 C 283 98 272 72 258 52 C 242 31 222 15 198 4 C 174 -6 145 -12 113 -12 C 98 -12 81 -10 61 -8 C 41 -5 23 -1 7 3 L 16 61 C 36 56 54 52 70 49 C 86 45 101 44 116 44 C 163 44 195 58 213 88 C 231 117 240 164 240 228 L 240 700 L 303 700 Z" unicode="J" />
<glyph horiz-adv-x="623" d="M 353 442 L 624 0 L 552 0 L 310 394 L 154 203 L 154 0 L 91 0 L 91 700 L 154 700 L 154 278 L 491 700 L 563 700 L 353 442 Z" unicode="K" />
<glyph horiz-adv-x="500" d="M 487 56 L 487 0 L 91 0 L 91 700 L 154 700 L 154 56 L 487 56 Z" unicode="L" />
<glyph horiz-adv-x="835" d="M 744 700 L 744 0 L 681 0 L 681 645 L 438 0 L 388 0 L 148 645 L 148 0 L 91 0 L 91 700 L 190 700 L 418 85 L 645 700 L 744 700 Z" unicode="M" />
<glyph horiz-adv-x="674" d="M 583 700 L 583 0 L 527 0 L 148 650 L 148 0 L 91 0 L 91 700 L 189 700 L 526 122 L 526 700 L 583 700 Z" unicode="N" />
<glyph horiz-adv-x="659" d="M 531 620 C 556 589 576 551 591 506 C 606 460 614 408 614 350 C 614 298 607 250 595 206 C 583 162 565 125 543 95 C 517 61 486 34 450 16 C 414 -2 374 -12 330 -12 C 286 -12 246 -2 209 16 C 172 35 141 62 116 98 C 94 128 77 165 64 207 C 51 249 45 297 45 350 C 45 409 52 461 68 506 C 84 551 104 589 130 620 C 155 650 185 673 219 689 C 253 705 290 713 330 713 C 370 713 407 705 442 689 C 476 673 506 650 531 620 Z M 330 44 C 394 44 445 70 485 124 C 524 177 544 253 544 351 C 544 401 538 446 528 484 C 517 522 502 554 483 580 C 464 605 441 624 415 637 C 389 649 360 656 330 656 C 268 656 216 630 176 580 C 136 529 116 453 116 351 C 116 253 135 178 175 124 C 214 70 266 44 330 44 Z" unicode="O" />
<glyph horiz-adv-x="593" d="M 503 648 C 523 630 539 607 551 580 C 562 553 568 522 568 486 C 568 457 562 431 551 407 C 539 383 523 363 502 346 C 481 329 456 316 426 306 C 396 296 363 292 326 292 L 154 292 L 154 0 L 91 0 L 91 700 L 333 700 C 369 700 401 695 430 686 C 458 677 483 664 503 648 Z M 321 348 C 381 348 425 361 454 387 C 483 413 498 451 498 500 C 498 540 483 574 455 602 C 427 630 382 644 322 644 L 154 644 L 154 348 L 321 348 Z" unicode="P" />
<glyph horiz-adv-x="659" d="M 625 -68 L 625 -131 L 610 -131 C 550 -131 505 -120 473 -99 C 441 -78 413 -47 389 -5 C 380 -7 370 -9 360 -10 C 350 -11 340 -12 330 -12 C 286 -12 246 -2 209 16 C 172 35 141 62 116 98 C 94 128 77 165 64 207 C 51 249 45 297 45 350 C 45 409 52 461 68 506 C 84 551 104 589 130 620 C 155 650 185 673 219 689 C 253 705 290 713 330 713 C 369 713 406 705 441 689 C 475 673 505 651 530 622 C 556 590 576 552 591 506 C 606 460 614 408 614 350 C 614 266 598 196 567 138 C 535 80 494 38 443 14 C 457 -8 476 -28 500 -44 C 524 -60 556 -68 594 -68 L 625 -68 Z M 330 44 C 394 44 445 70 484 124 C 523 177 543 253 543 351 C 543 401 537 446 527 484 C 516 522 501 554 482 580 C 463 605 441 624 415 637 C 389 649 360 656 330 656 C 268 656 216 630 176 580 C 136 529 116 453 116 351 C 116 253 135 178 175 124 C 214 70 266 44 330 44 Z" unicode="Q" />
<glyph horiz-adv-x="639" d="M 316 368 C 380 368 427 379 457 403 C 487 426 502 460 502 506 C 502 547 487 580 458 606 C 428 631 384 644 324 644 L 154 644 L 154 368 L 316 368 Z M 440 329 L 585 0 L 516 0 L 380 312 L 154 312 L 154 0 L 91 0 L 91 700 L 320 700 C 358 700 391 696 421 688 C 450 680 475 670 496 657 C 520 640 539 619 552 594 C 564 568 571 538 571 503 C 571 459 559 423 535 395 C 511 367 480 345 440 329 Z" unicode="R" />
<glyph horiz-adv-x="586" d="M 401 363 C 453 346 491 323 515 293 C 539 263 551 227 551 184 C 551 128 527 81 481 44 C 434 6 373 -12 299 -12 C 261 -12 228 -7 200 2 C 172 11 147 23 127 37 C 106 51 88 67 74 85 C 60 102 48 119 40 136 L 94 179 C 113 141 141 109 177 83 C 213 57 256 44 304 44 C 354 44 396 56 430 81 C 463 106 480 139 480 179 C 480 216 469 244 449 264 C 429 284 396 299 352 311 C 334 315 316 319 297 323 C 277 327 259 331 241 336 C 219 341 198 348 178 358 C 158 367 140 379 124 393 C 108 407 95 425 85 445 C 75 465 71 489 71 517 C 71 547 78 576 93 603 C 107 630 129 653 158 672 C 175 683 196 693 220 701 C 244 709 270 713 299 713 C 362 713 412 700 449 676 C 485 652 515 624 537 593 L 483 548 C 475 560 466 572 455 585 C 444 597 431 609 417 619 C 402 629 385 638 365 645 C 345 652 323 656 299 656 C 252 656 214 643 185 617 C 155 591 141 560 141 523 C 141 501 144 482 152 468 C 160 453 170 441 182 431 C 194 421 208 414 224 408 C 239 402 254 398 270 395 C 292 389 316 384 340 378 C 364 372 384 367 401 363 Z" unicode="S" />
<glyph horiz-adv-x="517" d="M 504 700 L 504 644 L 290 644 L 290 0 L 227 0 L 227 644 L 13 644 L 13 700 L 504 700 Z" unicode="T" />
<glyph horiz-adv-x="655" d="M 569 700 L 569 254 C 569 230 567 207 564 187 C 560 167 556 148 551 132 C 536 85 510 49 473 25 C 435 0 385 -12 322 -12 C 256 -12 205 2 169 32 C 132 61 108 102 96 156 C 92 170 90 186 88 203 C 86 220 86 238 86 257 L 86 700 L 149 700 L 149 258 C 149 231 151 207 155 187 C 159 166 164 147 172 131 C 184 103 203 81 229 66 C 254 51 286 44 326 44 C 366 44 398 50 424 64 C 450 78 469 97 483 122 C 491 138 498 158 504 182 C 509 205 512 230 512 257 L 512 700 L 569 700 Z" unicode="U" />
<glyph horiz-adv-x="555" d="M 490 700 L 551 700 L 305 0 L 253 0 L 3 700 L 69 700 L 280 99 L 490 700 Z" unicode="V" />
<glyph horiz-adv-x="841" d="M 768 700 L 828 700 L 643 0 L 588 0 L 423 581 L 255 0 L 194 0 L 13 700 L 76 700 L 232 103 L 399 700 L 450 700 L 615 107 L 768 700 Z" unicode="W" />
<glyph horiz-adv-x="568" d="M 322 362 L 559 0 L 483 0 L 278 318 L 76 0 L 10 0 L 248 359 L 27 700 L 102 700 L 293 405 L 481 700 L 548 700 L 322 362 Z" unicode="X" />
<glyph horiz-adv-x="563" d="M 496 700 L 564 700 L 312 268 L 312 0 L 249 0 L 249 267 L -1 700 L 73 700 L 284 327 L 496 700 Z" unicode="Y" />
<glyph horiz-adv-x="534" d="M 511 56 L 511 0 L 20 0 L 20 52 L 436 644 L 43 644 L 43 700 L 511 700 L 511 650 L 92 56 L 511 56 Z" unicode="Z" />
<glyph horiz-adv-x="310" d="M 263 -103 L 263 -149 L 86 -149 L 86 700 L 262 700 L 262 654 L 143 654 L 143 -103 L 263 -103 Z" unicode="[" />
<glyph horiz-adv-x="499" d="M 113 700 L 517 -155 L 459 -155 L 55 700 L 113 700 Z" unicode="\" />
<glyph horiz-adv-x="310" d="M 224 700 L 224 -149 L 47 -149 L 47 -103 L 167 -103 L 167 654 L 48 654 L 48 700 L 224 700 Z" unicode="]" />
<glyph horiz-adv-x="570" d="M 303 713 L 500 379 L 434 379 L 284 638 L 133 379 L 67 379 L 267 713 L 303 713 Z" unicode="^" />
<glyph horiz-adv-x="491" d="M 473 -70 L 473 -112 L 18 -112 L 18 -70 L 473 -70 Z" unicode="_" />
<glyph horiz-adv-x="460" d="M 240 700 L 330 561 L 281 561 L 152 695 L 152 700 L 240 700 Z" unicode="`" />
<glyph horiz-adv-x="515" d="M 219 48 C 253 48 283 53 310 64 C 336 75 361 91 384 113 L 384 283 C 289 269 219 250 173 226 C 127 202 104 173 104 138 C 104 113 112 92 129 74 C 146 56 176 48 219 48 Z M 458 5 L 458 0 L 399 0 C 398 6 396 14 394 26 C 391 38 389 51 389 65 C 367 44 340 26 309 12 C 278 -1 246 -9 214 -9 C 192 -9 170 -6 149 0 C 128 5 110 13 94 24 C 78 35 65 49 55 67 C 45 84 41 104 41 127 C 41 185 69 229 127 259 C 184 289 270 313 384 331 L 384 362 C 384 390 373 414 351 433 C 329 452 294 462 246 462 C 224 462 205 458 190 451 C 175 444 163 436 154 426 C 144 416 137 406 132 395 C 126 383 123 374 121 366 L 61 376 C 73 416 94 450 126 477 C 158 503 199 517 251 517 C 291 517 324 511 350 500 C 376 488 397 473 411 455 C 420 442 427 427 433 409 C 438 391 441 371 441 349 L 441 106 C 441 77 443 55 447 41 C 451 26 454 14 458 5 Z" unicode="a" />
<glyph horiz-adv-x="527" d="M 284 517 C 310 517 335 511 359 501 C 383 490 405 474 423 453 C 441 431 456 404 468 371 C 479 338 485 300 485 256 C 485 212 479 174 467 141 C 455 107 440 80 420 58 C 400 36 376 19 349 8 C 322 -3 294 -9 265 -9 C 232 -9 204 0 181 16 C 157 32 137 51 121 72 L 101 0 L 71 0 C 72 11 74 25 76 41 C 78 57 79 71 79 83 L 79 700 L 136 700 L 136 449 C 160 472 184 489 208 500 C 232 511 257 517 284 517 Z M 272 43 C 300 43 324 49 344 62 C 363 75 378 92 390 113 C 402 133 410 156 415 182 C 419 207 422 232 422 256 C 422 284 418 311 412 336 C 406 361 397 383 385 401 C 373 419 358 434 340 444 C 322 454 301 460 279 460 C 250 460 223 453 199 441 C 174 428 153 415 136 401 L 136 172 C 136 147 140 126 150 110 C 160 93 171 80 185 70 C 199 60 213 53 229 49 C 245 45 259 43 272 43 Z" unicode="b" />
<glyph horiz-adv-x="487" d="M 411 161 L 456 139 C 450 119 442 101 432 83 C 421 65 408 50 392 36 C 376 22 358 12 338 4 C 318 -4 295 -8 270 -8 C 237 -8 206 -2 178 9 C 150 21 126 38 106 60 C 86 82 70 110 58 143 C 46 176 41 213 41 255 C 41 290 46 324 56 356 C 66 388 81 415 100 439 C 119 462 142 481 170 495 C 197 509 228 516 262 516 C 317 516 361 502 393 475 C 425 447 445 413 454 373 L 397 357 C 395 365 391 376 386 388 C 381 400 374 411 365 422 C 355 433 343 442 327 450 C 311 458 292 462 268 462 C 238 462 213 456 193 444 C 172 432 155 417 142 398 C 129 378 120 356 114 330 C 108 304 105 277 105 249 C 105 220 108 193 115 169 C 121 144 131 122 145 104 C 159 86 176 71 196 61 C 216 51 240 46 267 46 C 291 46 312 49 329 57 C 345 64 359 73 370 85 C 381 96 390 108 396 122 C 402 136 407 149 411 161 Z" unicode="c" />
<glyph horiz-adv-x="527" d="M 252 48 C 279 48 304 54 328 66 C 351 78 372 92 391 109 L 391 406 C 373 419 354 431 332 443 C 310 454 284 460 256 460 C 228 460 204 454 185 442 C 165 430 150 415 138 396 C 126 377 118 355 113 331 C 107 306 105 281 105 256 C 105 181 119 128 148 96 C 176 64 211 48 252 48 Z M 448 700 L 448 0 L 394 0 L 394 62 C 373 43 350 26 325 12 C 299 -1 270 -9 238 -9 C 206 -9 178 -2 154 12 C 129 26 108 45 92 69 C 76 93 63 121 55 153 C 46 185 42 218 42 254 C 42 301 48 341 62 375 C 75 409 92 436 112 457 C 132 477 155 492 180 502 C 204 512 228 517 251 517 C 279 517 305 511 329 501 C 353 490 373 475 391 455 L 391 700 L 448 700 Z" unicode="d" />
<glyph horiz-adv-x="525" d="M 436 139 L 485 111 C 477 98 466 85 454 71 C 441 57 426 44 408 32 C 390 20 369 11 346 3 C 322 -4 296 -8 267 -8 C 233 -8 202 -1 174 10 C 146 22 122 40 103 62 C 83 84 68 110 57 142 C 46 173 41 207 41 245 C 41 281 46 315 56 348 C 66 381 81 410 101 435 C 121 459 145 479 173 494 C 201 508 234 516 270 516 C 309 516 344 508 374 492 C 404 476 429 453 447 423 C 458 403 467 380 474 352 C 480 324 484 292 484 258 L 484 251 L 103 251 C 103 187 118 136 150 100 C 181 64 222 46 272 46 C 296 46 317 49 335 55 C 353 61 368 68 381 78 C 394 87 405 97 414 108 C 422 119 430 129 436 139 Z M 107 299 L 423 299 C 423 320 420 341 414 361 C 408 381 400 398 388 413 C 376 427 361 439 343 448 C 324 457 302 462 276 462 C 245 462 219 456 197 446 C 175 435 158 421 145 405 C 132 389 122 371 116 352 C 110 333 107 315 107 299 Z" unicode="e" />
<glyph horiz-adv-x="279" d="M 297 699 L 297 647 C 289 647 279 648 267 650 C 255 651 244 652 236 652 C 214 652 195 647 181 639 C 166 630 159 614 159 592 L 159 508 L 261 508 L 261 462 L 159 462 L 159 0 L 102 0 L 102 462 L 22 462 L 22 508 L 102 508 L 102 574 C 102 591 104 607 110 622 C 115 636 122 649 131 660 C 143 674 157 685 174 693 C 190 701 207 705 224 705 C 234 705 246 704 259 703 C 272 702 285 701 297 699 Z" unicode="f" />
<glyph horiz-adv-x="501" d="M 236 230 C 272 230 301 241 323 263 C 345 285 356 313 356 347 C 356 381 344 410 322 433 C 300 456 271 468 236 468 C 200 468 171 456 149 432 C 127 408 116 379 116 345 C 116 311 127 283 149 262 C 171 240 200 230 236 230 Z M 479 517 L 479 441 L 473 441 C 465 445 456 449 446 451 C 436 453 427 454 418 454 C 413 454 407 453 400 452 C 392 451 387 450 385 450 C 394 436 402 421 408 403 C 414 385 417 366 417 345 C 417 298 400 259 367 229 C 333 198 289 183 233 183 C 218 183 204 184 190 188 C 176 192 164 196 153 201 C 135 195 122 187 115 177 C 108 167 105 158 105 148 C 105 131 111 120 124 114 C 136 108 152 104 172 104 L 321 96 C 375 93 414 82 438 62 C 462 42 474 14 474 -21 C 474 -61 454 -95 416 -124 C 378 -152 317 -167 235 -167 C 159 -167 105 -154 71 -129 C 37 -103 21 -73 21 -37 C 21 -15 28 5 42 24 C 56 42 77 56 105 66 C 84 74 69 84 61 96 C 53 107 49 121 49 138 C 49 152 54 167 64 183 C 74 199 93 212 120 223 C 98 238 82 255 71 275 C 60 294 55 316 55 342 C 55 390 72 431 107 465 C 141 499 187 516 243 516 C 261 516 281 512 303 505 C 324 498 343 488 360 475 C 376 489 394 500 414 507 C 434 513 456 517 479 517 Z M 248 -118 C 304 -118 346 -109 373 -93 C 399 -76 413 -54 413 -28 C 413 -4 404 12 388 24 C 372 35 342 41 298 43 L 139 49 C 119 39 105 29 96 17 C 87 5 83 -8 83 -25 C 83 -54 96 -77 123 -93 C 149 -109 191 -118 248 -118 Z" unicode="g" />
<glyph horiz-adv-x="535" d="M 461 345 L 461 0 L 404 0 L 404 348 C 404 382 395 409 379 430 C 363 450 334 461 294 461 C 276 461 258 458 242 452 C 226 446 211 440 198 432 C 185 424 173 415 163 407 C 152 398 143 391 136 386 L 136 0 L 79 0 L 79 700 L 136 700 L 136 435 C 144 443 153 451 163 461 C 173 471 186 480 200 488 C 214 496 230 502 248 508 C 266 514 287 517 311 517 C 345 517 373 509 396 493 C 419 477 435 460 444 440 C 450 424 455 408 457 393 C 459 377 461 361 461 345 Z" unicode="h" />
<glyph horiz-adv-x="222" d="M 143 700 L 143 611 L 80 611 L 80 700 L 143 700 Z M 140 508 L 140 0 L 83 0 L 83 508 L 140 508 Z" unicode="i" />
<glyph horiz-adv-x="222" d="M 147 700 L 147 611 L 84 611 L 84 700 L 147 700 Z M 144 508 L 144 -25 C 144 -47 141 -66 136 -82 C 130 -98 123 -111 115 -122 C 103 -136 89 -147 73 -155 C 57 -162 40 -166 24 -166 C 12 -166 0 -165 -12 -164 C -25 -163 -39 -162 -53 -160 L -53 -108 C -43 -109 -33 -110 -23 -112 C -13 -113 -3 -114 7 -114 C 29 -114 48 -109 64 -99 C 79 -89 87 -69 87 -39 L 87 508 L 144 508 Z" unicode="j" />
<glyph horiz-adv-x="472" d="M 274 320 L 470 0 L 406 0 L 235 278 L 136 170 L 136 0 L 79 0 L 79 700 L 136 700 L 136 232 L 374 508 L 441 508 L 274 320 Z" unicode="k" />
<glyph horiz-adv-x="222" d="M 140 700 L 140 0 L 83 0 L 83 700 L 140 700 Z" unicode="l" />
<glyph horiz-adv-x="818" d="M 744 348 L 744 0 L 687 0 L 687 357 C 687 386 679 411 665 431 C 650 451 625 461 589 461 C 574 461 559 458 545 453 C 530 447 516 441 503 433 C 490 425 478 416 467 408 C 456 400 447 393 440 387 L 440 0 L 383 0 L 383 357 C 383 387 376 411 362 431 C 348 451 323 461 285 461 C 270 461 255 458 240 452 C 225 446 211 439 198 431 C 185 423 173 414 162 406 C 151 398 142 391 136 386 L 136 0 L 79 0 L 79 508 L 134 508 L 134 435 C 142 443 151 451 161 461 C 171 471 182 480 196 488 C 209 496 224 503 241 509 C 258 514 277 517 299 517 C 331 517 358 509 380 494 C 401 478 418 457 431 431 C 451 451 474 470 500 489 C 525 507 559 517 603 517 C 635 517 661 509 683 494 C 705 478 720 461 729 441 C 735 425 739 410 741 394 C 743 378 744 362 744 348 Z" unicode="m" />
<glyph horiz-adv-x="535" d="M 461 345 L 461 0 L 404 0 L 404 348 C 404 382 395 409 379 430 C 363 450 334 461 294 461 C 276 461 259 458 243 452 C 227 446 212 440 199 432 C 185 424 173 415 163 407 C 152 399 143 392 136 386 L 136 0 L 79 0 L 79 508 L 134 508 L 134 433 C 142 441 151 449 162 459 C 172 469 185 478 199 487 C 213 495 230 502 248 508 C 266 514 287 517 311 517 C 345 517 373 509 396 493 C 419 477 435 460 444 440 C 450 424 455 408 457 393 C 459 377 461 361 461 345 Z" unicode="n" />
<glyph horiz-adv-x="527" d="M 263 516 C 331 516 386 492 426 444 C 466 396 486 333 486 255 C 486 175 465 112 425 64 C 384 16 330 -8 263 -8 C 197 -8 143 16 102 64 C 61 112 41 175 41 255 C 41 290 45 324 55 356 C 65 388 79 415 98 439 C 116 462 139 481 167 495 C 195 509 227 516 263 516 Z M 263 46 C 290 46 314 51 334 62 C 354 72 371 87 384 106 C 396 124 406 146 412 172 C 418 198 422 226 422 256 C 422 282 419 307 413 332 C 407 357 398 379 386 398 C 374 417 357 432 337 444 C 317 456 292 462 263 462 C 235 462 211 456 191 446 C 171 435 154 420 142 402 C 129 383 120 361 114 336 C 108 311 105 284 105 256 C 105 226 108 198 114 172 C 120 146 129 124 142 106 C 154 87 171 72 191 62 C 211 51 235 46 263 46 Z" unicode="o" />
<glyph horiz-adv-x="527" d="M 276 49 C 302 49 325 54 344 65 C 362 76 377 91 389 109 C 400 127 408 149 414 173 C 419 197 422 223 422 250 C 422 322 408 375 381 409 C 354 443 319 460 275 460 C 249 460 224 453 200 439 C 176 425 154 410 136 395 L 136 103 C 152 90 173 78 198 66 C 223 54 249 49 276 49 Z M 291 517 C 321 517 348 509 372 495 C 396 481 416 462 433 438 C 449 414 462 387 471 355 C 480 323 485 290 485 256 C 485 208 478 168 466 134 C 453 100 437 73 417 52 C 397 31 374 16 350 6 C 326 -3 302 -8 279 -8 C 254 -8 229 -2 203 8 C 177 19 154 35 136 55 L 136 -166 L 79 -166 L 79 508 L 134 508 L 134 443 C 154 466 178 484 205 497 C 231 510 260 517 291 517 Z" unicode="p" />
<glyph horiz-adv-x="527" d="M 423 508 L 453 508 C 451 498 450 485 449 469 C 448 453 448 439 448 429 L 448 -166 L 391 -166 L 391 58 C 367 36 342 19 316 8 C 290 -2 263 -8 237 -8 C 211 -8 186 -2 162 9 C 138 20 118 36 100 58 C 82 80 68 107 58 139 C 47 171 42 209 42 251 C 42 295 47 333 59 367 C 71 400 86 428 106 450 C 126 472 149 488 176 500 C 202 511 230 517 260 517 C 294 517 322 510 344 497 C 366 483 387 464 406 440 L 423 508 Z M 245 49 C 275 49 303 54 328 64 C 352 74 373 85 391 97 L 391 341 C 391 364 386 384 377 400 C 368 416 357 428 343 438 C 329 447 315 453 299 457 C 283 461 269 463 255 463 C 207 463 170 443 144 403 C 118 363 105 312 105 248 C 105 221 107 196 113 172 C 119 148 127 126 139 108 C 150 90 164 75 182 65 C 200 54 221 49 245 49 Z" unicode="q" />
<glyph horiz-adv-x="325" d="M 314 515 L 314 442 L 311 442 C 300 443 293 444 289 444 C 285 444 282 445 278 445 C 258 445 240 441 224 435 C 208 428 194 420 182 412 C 170 403 161 394 153 385 C 145 375 140 368 136 364 L 136 0 L 79 0 L 79 508 L 132 508 L 132 407 C 140 418 150 430 162 443 C 174 455 187 467 203 478 C 219 488 236 497 255 504 C 273 511 293 515 314 515 Z" unicode="r" />
<glyph horiz-adv-x="449" d="M 268 278 C 314 266 351 250 379 230 C 407 210 421 179 421 139 C 421 116 415 95 404 77 C 393 59 379 43 361 31 C 343 18 321 8 297 2 C 273 -4 248 -8 222 -8 C 184 -8 147 1 113 20 C 78 38 50 66 30 102 L 79 138 C 92 115 111 94 135 74 C 159 54 191 44 231 44 C 244 44 258 45 273 48 C 288 51 302 56 315 63 C 327 70 338 79 346 91 C 354 103 359 117 359 134 C 359 156 352 174 338 186 C 324 198 306 208 282 215 C 270 218 253 222 231 227 C 209 232 189 237 171 243 C 126 257 95 275 79 297 C 62 319 54 346 54 376 C 54 396 59 415 69 433 C 79 450 91 464 107 476 C 123 488 142 498 163 505 C 183 512 204 516 225 516 C 261 516 296 508 329 492 C 361 476 387 451 406 415 L 354 381 C 345 399 330 418 309 436 C 287 454 261 463 231 463 C 217 463 203 461 190 458 C 176 454 164 449 153 442 C 142 435 133 426 127 415 C 120 404 117 391 117 376 C 117 355 124 338 138 326 C 152 313 169 304 189 298 C 195 296 206 293 222 289 C 237 285 252 281 268 278 Z" unicode="s" />
<glyph horiz-adv-x="307" d="M 275 50 L 275 3 C 262 -1 250 -4 240 -6 C 230 -8 219 -9 209 -9 C 181 -9 156 0 134 17 C 112 35 101 71 101 125 L 101 462 L 23 462 L 23 508 L 100 508 L 109 664 L 158 664 L 158 508 L 275 508 L 275 462 L 158 462 L 158 109 C 158 80 165 62 180 54 C 195 46 209 43 223 43 C 227 43 236 43 248 45 C 260 47 269 48 275 50 Z" unicode="t" />
<glyph horiz-adv-x="533" d="M 454 508 L 454 0 L 399 0 L 399 75 C 391 67 381 58 371 48 C 360 38 348 29 334 21 C 320 12 303 5 284 0 C 265 -6 244 -9 221 -9 C 187 -9 158 -1 136 14 C 114 30 99 48 91 68 C 84 84 79 99 77 115 C 74 130 73 146 73 163 L 73 508 L 130 508 L 130 160 C 130 126 138 98 154 78 C 170 57 199 47 240 47 C 258 47 274 49 290 55 C 306 60 320 67 334 75 C 347 83 359 91 370 100 C 380 108 389 116 397 123 L 397 508 L 454 508 Z" unicode="u" />
<glyph horiz-adv-x="440" d="M 373 508 L 433 508 L 246 0 L 192 0 L 7 508 L 69 508 L 222 74 L 373 508 Z" unicode="v" />
<glyph horiz-adv-x="673" d="M 601 508 L 660 508 L 502 0 L 453 0 L 338 421 L 218 0 L 167 0 L 14 508 L 78 508 L 195 95 L 314 508 L 364 508 L 479 90 L 601 508 Z" unicode="w" />
<glyph horiz-adv-x="445" d="M 260 258 L 434 0 L 366 0 L 216 223 L 74 0 L 11 0 L 188 264 L 24 508 L 91 508 L 229 302 L 362 508 L 425 508 L 260 258 Z" unicode="x" />
<glyph horiz-adv-x="439" d="M 372 508 L 432 508 L 241 -13 C 222 -63 200 -101 176 -127 C 151 -153 118 -166 78 -166 C 69 -166 60 -165 52 -164 C 43 -162 33 -160 23 -158 L 23 -104 C 36 -106 47 -108 55 -110 C 63 -112 72 -113 80 -113 C 111 -113 134 -104 149 -86 C 164 -68 178 -39 191 -1 L 7 508 L 68 508 L 223 79 L 372 508 Z" unicode="y" />
<glyph horiz-adv-x="408" d="M 391 47 L 391 0 L 20 0 L 20 35 L 310 460 L 38 460 L 38 508 L 383 508 L 383 473 L 92 47 L 391 47 Z" unicode="z" />
<glyph horiz-adv-x="355" d="M 307 -102 L 307 -149 L 297 -149 C 246 -149 207 -136 179 -110 C 151 -84 137 -43 137 12 L 137 150 C 137 180 131 205 121 223 C 110 241 90 251 62 251 L 36 251 L 36 300 L 62 300 C 90 300 110 309 121 327 C 131 345 137 369 137 401 L 137 539 C 137 594 151 635 179 661 C 207 687 246 700 297 700 L 307 700 L 307 653 L 281 653 C 252 653 231 644 219 626 C 207 608 201 583 201 552 L 201 429 C 201 385 191 350 173 324 C 154 298 126 281 88 275 C 126 269 154 253 173 227 C 191 201 201 166 201 122 L 201 -1 C 201 -32 207 -57 219 -75 C 231 -93 252 -102 281 -102 L 307 -102 Z" unicode="{" />
<glyph horiz-adv-x="277" d="M 166 700 L 166 -155 L 111 -155 L 111 700 L 166 700 Z" unicode="|" />
<glyph horiz-adv-x="355" d="M 319 300 L 319 251 L 293 251 C 264 251 244 241 234 223 C 223 205 218 180 218 150 L 218 12 C 218 -43 204 -84 176 -110 C 148 -136 108 -149 58 -149 L 48 -149 L 48 -102 L 74 -102 C 102 -102 123 -93 135 -75 C 147 -57 154 -32 154 -1 L 154 122 C 154 166 163 201 182 227 C 200 253 229 269 267 275 C 229 281 200 298 182 324 C 163 350 154 385 154 429 L 154 552 C 154 583 147 608 135 626 C 123 644 102 653 74 653 L 48 653 L 48 700 L 58 700 C 108 700 148 687 176 661 C 204 635 218 594 218 539 L 218 401 C 218 369 223 345 234 327 C 244 309 264 300 293 300 L 319 300 Z" unicode="}" />
<glyph horiz-adv-x="570" d="M 461 364 L 517 364 C 517 340 514 317 510 293 C 505 269 497 248 487 230 C 477 211 464 196 448 184 C 432 172 413 167 391 167 C 355 167 329 175 312 191 C 295 207 280 224 267 243 C 254 259 242 275 230 289 C 218 303 202 310 182 310 C 155 310 137 297 127 271 C 117 245 111 210 110 165 L 53 165 C 53 189 55 213 59 237 C 63 261 71 282 81 301 C 91 319 105 334 121 346 C 137 358 157 364 180 364 C 214 364 238 356 254 342 C 270 327 285 310 300 292 C 313 275 326 259 339 243 C 351 227 367 220 386 220 C 413 220 432 233 442 259 C 452 285 458 320 461 364 Z" unicode="~" />
<glyph horiz-adv-x="242" d="" unicode=" " />
<glyph horiz-adv-x="299" d="M 195 546 L 195 455 L 105 455 L 105 546 L 195 546 Z M 165 389 L 189 -154 L 111 -154 L 134 389 L 165 389 Z" unicode="¡" />
<glyph horiz-adv-x="570" d="M 448 243 L 494 222 C 483 187 463 156 435 128 C 406 100 369 84 323 82 L 323 -32 L 281 -32 L 281 82 C 221 88 172 112 134 156 C 96 200 77 258 77 332 C 77 364 81 395 91 425 C 100 454 113 480 131 502 C 149 524 170 543 196 557 C 221 571 249 579 281 581 L 281 679 L 323 679 L 323 581 C 371 577 409 562 437 537 C 465 511 483 481 492 445 L 434 430 C 432 438 428 447 424 458 C 420 468 413 479 405 489 C 397 499 386 507 373 515 C 359 523 343 528 323 530 L 323 133 C 344 135 362 139 376 147 C 390 154 402 163 412 174 C 421 184 428 196 434 208 C 439 220 444 232 448 243 Z M 143 327 C 143 276 154 232 177 196 C 200 160 235 139 281 133 L 281 529 C 256 526 235 519 217 507 C 199 495 185 479 174 461 C 163 443 155 422 150 399 C 145 376 143 352 143 327 Z" unicode="¢" />
<glyph horiz-adv-x="570" d="M 508 141 L 556 108 C 532 64 504 34 472 16 C 440 -1 407 -10 373 -10 C 327 -10 290 -2 263 12 C 235 26 208 43 180 61 C 167 41 150 25 129 11 C 108 -2 81 -9 49 -10 L 49 44 C 65 48 79 53 93 60 C 106 66 117 76 127 88 C 136 100 143 117 149 137 C 154 157 157 182 157 214 C 157 228 156 241 155 253 C 153 265 151 277 149 289 L 55 289 L 55 330 L 139 330 C 133 352 127 376 121 400 C 115 424 113 453 113 487 C 113 507 116 529 124 553 C 132 576 144 597 161 617 C 178 637 200 653 228 666 C 256 679 289 686 329 686 C 373 686 410 678 442 663 C 474 648 504 626 533 598 L 491 553 C 484 561 475 569 465 579 C 454 588 442 597 429 605 C 415 613 400 619 384 625 C 367 630 349 633 330 633 C 286 633 250 620 221 595 C 192 569 178 536 178 494 C 178 464 180 435 186 409 C 191 383 197 356 203 330 L 414 330 L 414 289 L 211 289 C 213 277 214 265 216 253 C 217 241 218 229 218 217 C 218 198 216 178 213 156 C 209 134 204 114 196 98 C 210 87 230 75 257 63 C 284 50 321 44 367 44 C 399 44 427 52 451 69 C 474 86 493 110 508 141 Z" unicode="£" />
<glyph horiz-adv-x="570" d="M 345 686 C 398 686 438 677 465 659 C 492 641 516 622 537 602 L 485 566 C 467 585 448 601 428 614 C 408 626 381 633 347 633 C 301 633 263 614 235 576 C 206 538 187 488 178 428 L 391 428 L 391 388 L 172 388 C 171 379 170 370 170 361 C 170 351 170 342 170 333 C 170 322 170 312 170 302 C 170 292 171 282 172 273 L 358 273 L 358 233 L 179 233 C 189 175 209 128 239 94 C 269 59 309 42 359 42 C 389 42 415 51 437 69 C 459 87 476 104 490 121 L 535 83 C 509 55 480 32 450 15 C 419 -1 379 -10 330 -10 C 308 -10 285 -5 263 4 C 241 13 220 27 201 47 C 181 67 164 92 150 123 C 135 154 124 191 118 233 L 45 233 L 45 273 L 113 273 C 112 281 111 291 111 301 C 111 311 111 321 111 331 C 111 341 111 350 111 360 C 111 370 112 379 113 388 L 45 388 L 45 428 L 117 428 C 123 471 134 509 149 542 C 163 574 181 601 201 622 C 221 643 244 659 269 670 C 293 680 319 686 345 686 Z" unicode="¤" />
<glyph horiz-adv-x="570" d="M 476 672 L 534 672 L 388 396 L 514 396 L 514 355 L 359 355 L 310 266 L 310 242 L 514 242 L 514 201 L 310 201 L 310 0 L 259 0 L 259 201 L 57 201 L 57 242 L 258 242 L 258 264 L 207 355 L 57 355 L 57 396 L 184 396 L 35 672 L 98 672 L 287 306 L 476 672 Z" unicode="¥" />
<glyph horiz-adv-x="570" d="M 375 177 C 390 183 405 194 420 208 C 435 222 443 241 443 266 C 443 282 439 295 433 307 C 426 318 417 328 407 336 C 397 344 386 350 374 355 C 362 360 350 365 340 369 L 197 420 C 182 413 167 403 152 389 C 136 375 129 357 129 334 C 129 318 132 304 140 292 C 147 280 156 271 167 263 C 177 255 189 248 201 243 C 213 237 224 233 234 230 L 375 177 Z M 380 418 C 418 404 448 386 469 364 C 490 342 501 315 501 284 C 501 258 492 233 474 209 C 456 185 432 168 404 157 C 417 148 429 136 441 121 C 452 106 458 84 458 55 C 458 35 452 17 442 0 C 432 -16 418 -31 401 -44 C 384 -56 365 -66 343 -74 C 321 -81 298 -85 275 -85 C 241 -85 208 -78 174 -64 C 140 -50 114 -31 96 -6 L 133 41 C 137 35 144 28 153 20 C 161 12 172 4 184 -3 C 196 -10 209 -16 225 -21 C 240 -26 257 -29 275 -29 C 289 -29 304 -27 319 -23 C 333 -19 346 -14 358 -7 C 369 0 378 8 385 20 C 392 31 396 44 396 59 C 396 73 391 86 383 96 C 374 106 363 115 351 122 C 339 129 326 135 312 139 C 298 143 287 147 277 151 L 192 182 C 152 196 122 214 102 236 C 82 257 72 283 72 315 C 72 340 81 364 99 388 C 117 412 140 429 168 440 C 154 450 141 463 129 479 C 117 494 112 517 112 547 C 112 569 118 588 130 606 C 142 623 157 637 175 649 C 193 660 213 669 235 675 C 256 681 276 684 295 684 C 328 684 361 677 393 664 C 425 651 449 631 466 605 L 430 558 C 425 564 418 572 410 580 C 402 588 392 595 381 603 C 370 610 357 616 343 621 C 328 626 312 629 295 629 C 280 629 265 627 251 624 C 236 620 223 615 212 608 C 200 600 191 591 184 580 C 177 569 174 556 174 542 C 174 526 178 513 188 503 C 198 492 209 483 223 476 C 236 468 249 462 263 458 C 276 454 287 450 295 448 L 380 418 Z" unicode="§" />
<glyph horiz-adv-x="460" d="M 180 673 L 180 588 L 113 588 L 113 673 L 180 673 Z M 347 673 L 347 588 L 280 588 L 280 673 L 347 673 Z" unicode="¨" />
<glyph horiz-adv-x="777" d="M 389 691 C 436 691 481 681 523 663 C 565 645 601 620 632 589 C 663 558 688 521 706 479 C 724 437 734 392 734 345 C 734 297 724 253 706 211 C 688 169 663 132 632 101 C 601 70 565 45 523 27 C 481 9 436 0 389 0 C 341 0 296 9 254 27 C 212 45 175 70 144 101 C 113 132 89 169 71 211 C 53 253 44 297 44 345 C 44 392 53 437 71 479 C 89 521 113 558 144 589 C 175 620 212 645 254 663 C 296 681 341 691 389 691 Z M 389 43 C 430 43 469 51 506 67 C 542 83 574 104 602 132 C 629 159 651 191 667 228 C 683 264 691 303 691 345 C 691 386 683 425 667 462 C 651 499 629 531 602 559 C 574 586 542 608 506 624 C 469 640 430 648 389 648 C 347 648 308 640 271 624 C 234 608 202 586 175 559 C 147 531 126 499 110 462 C 94 425 86 386 86 345 C 86 303 94 264 110 228 C 126 191 147 159 175 132 C 202 104 234 83 271 67 C 308 51 347 43 389 43 Z M 501 287 L 544 270 C 540 256 535 241 528 226 C 520 211 511 198 499 186 C 487 174 474 165 458 157 C 442 149 424 146 404 146 C 375 146 349 151 326 162 C 303 172 284 187 270 207 C 257 223 247 244 239 268 C 231 292 227 318 227 347 C 227 373 231 399 241 425 C 250 450 262 472 277 490 C 291 506 308 519 328 529 C 348 539 371 544 396 544 C 438 544 471 532 495 510 C 519 488 535 459 543 423 L 490 412 C 488 418 486 425 483 434 C 479 442 474 451 468 459 C 461 467 452 474 442 480 C 431 486 417 489 401 489 C 376 489 356 483 341 473 C 326 462 314 448 306 431 C 299 418 294 404 292 388 C 290 372 289 355 289 339 C 289 323 290 308 292 295 C 294 281 299 268 306 256 C 314 240 325 226 340 216 C 355 205 375 200 399 200 C 417 200 431 202 443 208 C 455 214 464 221 472 230 C 480 238 486 248 490 258 C 494 268 497 278 501 287 Z" unicode="©" />
<glyph horiz-adv-x="444" d="M 200 340 C 220 340 239 343 256 350 C 273 357 290 368 307 383 L 307 502 C 245 493 198 481 168 465 C 138 449 123 429 123 403 C 123 389 127 375 137 361 C 146 347 167 340 200 340 Z M 366 377 C 366 362 367 349 369 338 C 371 326 374 313 379 299 L 317 299 C 316 305 315 311 313 317 C 311 323 310 333 309 346 C 288 329 267 316 246 306 C 225 296 205 292 185 292 C 153 292 124 300 99 317 C 73 334 61 360 61 394 C 61 434 80 466 120 490 C 159 514 221 531 307 541 L 307 567 C 307 587 300 603 286 617 C 272 630 249 637 217 637 C 189 637 169 629 157 614 C 145 598 137 583 133 569 L 76 580 C 86 612 103 638 127 656 C 151 674 182 683 222 683 C 266 683 301 673 327 654 C 353 635 366 603 366 559 L 366 377 Z" unicode="ª" />
<glyph horiz-adv-x="498" d="M 209 448 L 251 420 L 117 268 L 251 117 L 209 89 L 62 252 L 62 285 L 209 448 Z M 393 448 L 435 420 L 301 268 L 435 117 L 393 89 L 246 252 L 246 285 L 393 448 Z" unicode="«" />
<glyph horiz-adv-x="570" d="M 507 302 L 507 42 L 449 42 L 449 247 L 52 247 L 52 302 L 507 302 Z" unicode="¬" />
<glyph horiz-adv-x="343" d="M 286 296 L 286 237 L 57 237 L 57 296 L 286 296 Z" unicode="­" />
<glyph horiz-adv-x="513" d="M 257 675 C 286 675 314 669 340 658 C 366 646 389 631 409 611 C 429 591 444 568 456 542 C 467 516 473 488 473 459 C 473 429 467 401 456 375 C 444 349 429 326 409 307 C 389 287 366 272 340 261 C 314 249 286 244 257 244 C 227 244 198 249 172 261 C 146 272 123 287 103 307 C 83 326 68 349 57 375 C 45 401 40 429 40 459 C 40 488 45 516 57 542 C 68 568 83 591 103 611 C 123 631 146 646 172 658 C 198 669 227 675 257 675 Z M 257 274 C 282 274 306 278 329 288 C 351 298 371 311 388 328 C 404 344 417 364 427 387 C 437 409 442 433 442 459 C 442 484 437 508 427 531 C 417 554 404 574 388 591 C 371 607 351 620 329 630 C 306 640 282 645 257 645 C 231 645 207 640 184 630 C 161 620 141 607 125 591 C 108 574 95 554 85 531 C 75 508 71 484 71 459 C 71 433 75 409 85 387 C 95 364 108 344 125 328 C 141 311 161 298 184 288 C 207 278 231 274 257 274 Z M 266 472 C 272 472 280 474 288 479 C 296 484 301 492 301 502 C 301 512 297 519 290 524 C 283 528 275 531 267 531 L 217 531 L 217 472 L 266 472 Z M 269 571 C 287 571 305 565 321 554 C 337 542 346 525 346 503 C 346 488 342 475 334 463 C 326 451 316 443 302 437 L 345 341 L 300 341 L 260 432 L 217 432 L 217 341 L 176 341 L 176 571 L 269 571 Z" unicode="®" />
<glyph horiz-adv-x="460" d="M 368 662 L 368 612 L 92 612 L 92 662 L 368 662 Z" unicode="¯" />
<glyph horiz-adv-x="462" d="M 232 705 C 272 705 306 690 336 661 C 366 631 381 596 381 554 C 381 513 366 478 336 448 C 306 418 272 404 232 404 C 191 404 156 418 126 448 C 96 478 82 513 82 554 C 82 596 96 631 126 661 C 156 690 191 705 232 705 Z M 231 455 C 257 455 279 464 297 483 C 315 502 324 526 324 555 C 324 583 315 607 297 625 C 279 643 257 652 231 652 C 204 652 182 643 164 625 C 146 607 138 583 138 555 C 138 526 146 502 164 483 C 182 464 204 455 231 455 Z" unicode="°" />
<glyph horiz-adv-x="570" d="M 517 357 L 517 302 L 312 302 L 312 112 L 257 112 L 257 302 L 52 302 L 52 357 L 257 357 L 257 546 L 312 546 L 312 357 L 517 357 Z M 517 55 L 517 0 L 52 0 L 52 55 L 517 55 Z" unicode="±" />
<glyph horiz-adv-x="481" d="M 397 348 L 397 302 L 94 302 L 94 337 C 127 358 157 378 183 396 C 209 414 232 432 253 449 C 277 469 296 491 312 516 C 328 541 336 564 336 586 C 336 610 328 629 313 643 C 298 657 276 665 247 665 C 220 665 198 657 180 642 C 162 627 144 608 127 586 L 91 625 C 113 651 137 671 163 687 C 189 703 217 711 247 711 C 291 711 326 699 352 676 C 378 652 392 621 392 582 C 392 557 384 533 369 509 C 354 485 329 458 293 426 C 280 415 264 403 246 389 C 227 375 208 362 188 348 L 397 348 Z" unicode="²" />
<glyph horiz-adv-x="492" d="M 328 508 C 352 499 371 486 384 470 C 396 453 403 434 403 414 C 403 378 388 348 358 324 C 328 299 287 287 235 287 C 205 287 177 292 151 304 C 124 315 98 332 74 356 L 112 395 C 127 376 147 361 171 351 C 195 340 218 335 239 335 C 269 335 295 341 316 354 C 337 367 348 387 348 413 C 348 431 340 447 324 460 C 308 473 283 480 249 480 L 181 480 L 181 531 L 246 531 C 272 531 294 537 311 549 C 327 561 336 576 336 596 C 336 616 328 633 312 646 C 296 658 274 665 248 665 C 228 665 208 659 190 648 C 171 636 154 621 140 603 L 97 635 C 119 661 142 681 168 693 C 194 705 220 711 247 711 C 291 711 326 699 352 677 C 378 654 391 626 391 594 C 391 576 385 559 374 545 C 362 531 347 518 328 508 Z" unicode="³" />
<glyph horiz-adv-x="460" d="M 332 700 L 332 695 L 203 561 L 154 561 L 244 700 L 332 700 Z" unicode="´" />
<glyph horiz-adv-x="517" d="M 165 530 C 165 485 173 452 191 431 C 209 409 242 395 290 388 L 290 661 C 245 661 213 649 194 627 C 174 605 165 572 165 530 Z M 452 700 L 452 -82 L 407 -82 L 407 661 L 335 661 L 335 -82 L 290 -82 L 290 345 C 210 345 150 360 108 391 C 66 422 45 467 45 525 C 45 556 52 584 68 609 C 84 633 102 653 124 668 C 140 679 160 687 184 692 C 208 697 236 700 269 700 L 452 700 Z" unicode="¶" />
<glyph horiz-adv-x="275" d="M 182 373 L 182 274 L 93 274 L 93 373 L 182 373 Z" unicode="·" />
<glyph horiz-adv-x="460" d="M 233 -38 C 271 -42 294 -52 303 -68 C 311 -84 316 -99 316 -112 C 316 -133 306 -150 288 -163 C 269 -176 248 -183 224 -183 C 213 -183 201 -181 187 -179 C 173 -176 158 -172 144 -167 L 157 -134 C 165 -138 175 -142 186 -146 C 196 -149 205 -151 212 -151 C 224 -151 236 -148 247 -143 C 258 -138 264 -129 264 -115 C 264 -101 257 -90 245 -82 C 233 -73 216 -68 196 -68 L 225 0 L 248 0 L 233 -38 Z" unicode="¸" />
<glyph horiz-adv-x="447" d="M 356 345 L 356 300 L 121 300 L 121 345 L 215 345 L 215 648 L 122 609 L 122 647 C 137 653 150 659 160 665 C 170 670 178 675 186 680 C 193 685 200 690 206 696 C 212 702 220 708 229 715 L 270 715 L 270 345 L 356 345 Z" unicode="¹" />
<glyph horiz-adv-x="461" d="M 230 683 C 282 683 323 665 354 629 C 385 593 401 545 401 487 C 401 427 385 379 353 343 C 321 307 280 289 230 289 C 180 289 139 307 107 343 C 75 379 60 427 60 487 C 60 513 63 538 71 562 C 78 586 89 606 103 624 C 117 642 135 656 157 667 C 178 677 202 683 230 683 Z M 230 335 C 268 335 295 349 312 378 C 328 406 337 443 337 487 C 337 507 335 526 331 544 C 327 562 321 578 313 592 C 305 606 294 617 280 625 C 266 633 250 638 230 638 C 192 638 164 623 148 594 C 131 564 123 529 123 487 C 123 443 131 406 148 378 C 164 349 192 335 230 335 Z" unicode="º" />
<glyph horiz-adv-x="498" d="M 252 285 L 252 252 L 105 89 L 63 117 L 197 268 L 63 420 L 105 448 L 252 285 Z M 436 285 L 436 252 L 289 89 L 247 117 L 381 268 L 247 420 L 289 448 L 436 285 Z" unicode="»" />
<glyph horiz-adv-x="982" d="M 356 345 L 356 300 L 121 300 L 121 345 L 215 345 L 215 648 L 122 609 L 122 647 C 137 653 150 659 160 665 C 170 670 178 675 186 680 C 193 685 200 690 206 696 C 212 702 220 708 229 715 L 270 715 L 270 345 L 356 345 Z M 735 711 L 795 711 L 265 -13 L 205 -13 L 735 711 Z M 872 147 L 872 101 L 796 101 L 796 -7 L 748 -7 L 748 101 L 528 101 L 528 126 L 749 419 L 796 419 L 796 147 L 872 147 Z M 594 147 L 748 147 L 748 352 L 594 147 Z" unicode="¼" />
<glyph horiz-adv-x="982" d="M 356 345 L 356 300 L 121 300 L 121 345 L 215 345 L 215 648 L 122 609 L 122 647 C 137 653 150 659 160 665 C 170 670 178 675 186 680 C 193 685 200 690 206 696 C 212 702 220 708 229 715 L 270 715 L 270 345 L 356 345 Z M 728 711 L 788 711 L 258 -13 L 198 -13 L 728 711 Z M 897 46 L 897 0 L 594 0 L 594 35 C 627 56 657 76 683 94 C 709 112 732 130 753 147 C 777 167 796 189 812 214 C 828 239 836 262 836 284 C 836 308 828 327 813 341 C 798 355 776 363 747 363 C 720 363 698 355 680 340 C 662 325 644 306 627 284 L 591 323 C 613 349 637 369 663 385 C 689 401 717 409 747 409 C 791 409 826 397 852 374 C 878 350 892 319 892 280 C 892 255 884 231 869 207 C 854 183 829 156 793 124 C 780 113 764 101 746 87 C 727 73 708 60 688 46 L 897 46 Z" unicode="½" />
<glyph horiz-adv-x="982" d="M 747 711 L 807 711 L 277 -13 L 217 -13 L 747 711 Z M 860 147 L 860 101 L 784 101 L 784 -7 L 736 -7 L 736 101 L 516 101 L 516 126 L 737 419 L 784 419 L 784 147 L 860 147 Z M 328 508 C 352 499 371 486 384 470 C 396 453 403 434 403 414 C 403 378 388 348 358 324 C 328 299 287 287 235 287 C 205 287 177 292 151 304 C 124 315 98 332 74 356 L 112 395 C 127 376 147 361 171 351 C 195 340 218 335 239 335 C 269 335 295 341 316 354 C 337 367 348 387 348 413 C 348 431 340 447 324 460 C 308 473 283 480 249 480 L 181 480 L 181 531 L 246 531 C 272 531 294 537 311 549 C 327 561 336 576 336 596 C 336 616 328 633 312 646 C 296 658 274 665 248 665 C 228 665 208 659 190 648 C 171 636 154 621 140 603 L 97 635 C 119 661 142 681 168 693 C 194 705 220 711 247 711 C 291 711 326 699 352 677 C 378 654 391 626 391 594 C 391 576 385 559 374 545 C 362 531 347 518 328 508 Z M 582 147 L 736 147 L 736 352 L 582 147 Z" unicode="¾" />
<glyph horiz-adv-x="539" d="M 340 546 L 340 455 L 250 455 L 250 546 L 340 546 Z M 438 56 L 497 41 C 486 -21 460 -70 418 -107 C 376 -144 324 -163 262 -163 C 228 -163 197 -157 171 -146 C 145 -134 123 -120 106 -102 C 88 -84 75 -63 67 -41 C 58 -19 54 3 54 26 C 54 53 60 80 73 108 C 85 135 108 162 141 189 C 155 200 169 211 185 223 C 200 234 218 247 239 263 C 249 270 256 279 262 291 C 267 302 270 319 270 343 L 270 379 L 325 379 L 325 336 C 325 305 320 280 312 262 C 303 244 286 225 261 207 C 247 196 234 186 224 178 C 213 170 198 158 178 143 C 156 126 141 107 133 87 C 125 66 121 47 121 29 C 121 -13 134 -46 161 -70 C 188 -94 225 -107 271 -107 C 318 -107 356 -91 385 -60 C 413 -28 431 10 438 56 Z" unicode="¿" />
<glyph horiz-adv-x="553" d="M 244 884 L 334 747 L 285 747 L 156 879 L 156 884 L 244 884 Z M 155 279 L 394 279 L 274 649 L 155 279 Z M 320 700 L 550 0 L 485 0 L 413 223 L 136 223 L 68 0 L 3 0 L 237 700 L 320 700 Z" unicode="À" />
<glyph horiz-adv-x="553" d="M 401 884 L 401 879 L 272 747 L 223 747 L 313 884 L 401 884 Z M 155 279 L 394 279 L 274 649 L 155 279 Z M 320 700 L 550 0 L 485 0 L 413 223 L 136 223 L 68 0 L 3 0 L 237 700 L 320 700 Z" unicode="Á" />
<glyph horiz-adv-x="553" d="M 316 884 L 411 742 L 366 742 L 279 835 L 192 742 L 146 742 L 242 884 L 316 884 Z M 155 279 L 394 279 L 274 649 L 155 279 Z M 320 700 L 550 0 L 485 0 L 413 223 L 136 223 L 68 0 L 3 0 L 237 700 L 320 700 Z" unicode="Â" />
<glyph horiz-adv-x="553" d="M 376 871 L 418 871 C 414 837 404 812 389 795 C 374 777 356 769 335 769 C 325 769 315 770 306 774 C 296 777 288 781 282 786 C 271 794 261 800 251 806 C 241 812 233 815 227 815 C 215 815 205 811 197 804 C 189 797 185 784 185 766 L 145 766 C 147 798 156 823 171 841 C 185 859 204 868 226 868 C 238 868 250 865 260 860 C 270 854 280 848 290 842 C 296 836 304 831 313 827 C 322 823 329 821 335 821 C 348 821 358 825 365 833 C 371 841 375 853 376 871 Z M 155 279 L 394 279 L 274 649 L 155 279 Z M 320 700 L 550 0 L 485 0 L 413 223 L 136 223 L 68 0 L 3 0 L 237 700 L 320 700 Z" unicode="Ã" />
<glyph horiz-adv-x="553" d="M 228 853 L 228 768 L 161 768 L 161 853 L 228 853 Z M 395 853 L 395 768 L 328 768 L 328 853 L 395 853 Z M 155 279 L 394 279 L 274 649 L 155 279 Z M 320 700 L 550 0 L 485 0 L 413 223 L 136 223 L 68 0 L 3 0 L 237 700 L 320 700 Z" unicode="Ä" />
<glyph horiz-adv-x="553" d="M 277 931 C 307 931 331 921 350 902 C 368 882 378 857 378 827 C 378 797 368 772 348 754 C 328 735 304 726 276 726 C 247 726 223 735 203 754 C 183 772 174 797 174 827 C 174 854 183 878 201 899 C 219 920 244 931 277 931 Z M 276 758 C 295 758 309 764 319 778 C 329 791 334 808 334 829 C 334 851 329 868 320 880 C 311 892 296 899 276 899 C 255 899 240 892 231 879 C 222 866 218 849 218 829 C 218 808 222 791 232 778 C 241 764 256 758 276 758 Z M 155 279 L 394 279 L 274 649 L 155 279 Z M 320 700 L 550 0 L 485 0 L 413 223 L 136 223 L 68 0 L 3 0 L 237 700 L 320 700 Z" unicode="Å" />
<glyph horiz-adv-x="911" d="M 211 289 L 443 289 L 443 646 L 401 646 L 211 289 Z M 880 56 L 880 0 L 443 0 L 443 233 L 180 233 L 58 0 L -11 0 L 369 700 L 871 700 L 871 644 L 506 644 L 506 389 L 770 389 L 770 333 L 506 333 L 506 56 L 880 56 Z" unicode="Æ" />
<glyph horiz-adv-x="615" d="M 529 229 L 586 214 C 568 141 538 85 494 47 C 450 9 398 -10 336 -11 L 325 -40 C 365 -44 389 -54 398 -71 C 407 -88 412 -103 412 -116 C 412 -138 402 -155 382 -168 C 362 -181 340 -188 315 -188 C 303 -188 290 -186 275 -183 C 260 -180 245 -176 231 -171 L 244 -137 C 253 -141 263 -145 275 -149 C 286 -152 295 -154 303 -154 C 315 -154 327 -151 339 -146 C 350 -140 356 -131 356 -117 C 356 -103 349 -92 335 -84 C 321 -76 304 -71 283 -71 L 309 -10 C 227 -4 163 29 116 93 C 69 156 46 242 46 351 C 46 405 53 454 67 499 C 81 543 100 581 125 613 C 150 645 180 669 215 687 C 249 704 287 713 328 713 C 390 713 443 695 487 659 C 530 623 561 569 581 495 L 513 482 C 501 537 479 580 445 610 C 411 640 373 656 329 656 C 299 656 271 649 245 635 C 219 621 196 602 177 576 C 158 550 143 518 133 480 C 122 442 117 399 117 351 C 117 305 122 263 132 225 C 142 187 157 154 175 128 C 193 102 215 81 241 67 C 267 52 295 45 327 45 C 377 45 420 60 455 90 C 489 120 514 167 529 229 Z" unicode="Ç" />
<glyph horiz-adv-x="563" d="M 282 884 L 372 747 L 323 747 L 194 879 L 194 884 L 282 884 Z M 532 56 L 532 0 L 91 0 L 91 700 L 523 700 L 523 644 L 154 644 L 154 389 L 422 389 L 422 333 L 154 333 L 154 56 L 532 56 Z" unicode="È" />
<glyph horiz-adv-x="563" d="M 439 884 L 439 879 L 310 747 L 261 747 L 351 884 L 439 884 Z M 532 56 L 532 0 L 91 0 L 91 700 L 523 700 L 523 644 L 154 644 L 154 389 L 422 389 L 422 333 L 154 333 L 154 56 L 532 56 Z" unicode="É" />
<glyph horiz-adv-x="563" d="M 345 884 L 440 742 L 395 742 L 308 835 L 221 742 L 175 742 L 271 884 L 345 884 Z M 532 56 L 532 0 L 91 0 L 91 700 L 523 700 L 523 644 L 154 644 L 154 389 L 422 389 L 422 333 L 154 333 L 154 56 L 532 56 Z" unicode="Ê" />
<glyph horiz-adv-x="563" d="M 269 853 L 269 768 L 202 768 L 202 853 L 269 853 Z M 436 853 L 436 768 L 369 768 L 369 853 L 436 853 Z M 532 56 L 532 0 L 91 0 L 91 700 L 523 700 L 523 644 L 154 644 L 154 389 L 422 389 L 422 333 L 154 333 L 154 56 L 532 56 Z" unicode="Ë" />
<glyph horiz-adv-x="247" d="M 80 884 L 170 747 L 121 747 L -8 879 L -8 884 L 80 884 Z M 155 700 L 155 0 L 92 0 L 92 700 L 155 700 Z" unicode="Ì" />
<glyph horiz-adv-x="247" d="M 255 884 L 255 879 L 126 747 L 77 747 L 167 884 L 255 884 Z M 155 700 L 155 0 L 92 0 L 92 700 L 155 700 Z" unicode="Í" />
<glyph horiz-adv-x="247" d="M 162 884 L 247 742 L 202 742 L 125 835 L 48 742 L 2 742 L 88 884 L 162 884 Z M 155 700 L 155 0 L 92 0 L 92 700 L 155 700 Z" unicode="Î" />
<glyph horiz-adv-x="247" d="M 75 853 L 75 768 L 8 768 L 8 853 L 75 853 Z M 239 853 L 239 768 L 172 768 L 172 853 L 239 853 Z M 155 700 L 155 0 L 92 0 L 92 700 L 155 700 Z" unicode="Ï" />
<glyph horiz-adv-x="674" d="M 443 871 L 485 871 C 481 837 471 812 456 795 C 441 777 423 769 402 769 C 392 769 382 770 373 774 C 363 777 355 781 349 786 C 338 794 328 800 318 806 C 308 812 300 815 294 815 C 282 815 272 811 264 804 C 256 797 252 784 252 766 L 212 766 C 214 798 223 823 238 841 C 252 859 271 868 293 868 C 305 868 317 865 327 860 C 337 854 347 848 357 842 C 363 836 371 831 380 827 C 389 823 396 821 402 821 C 415 821 425 825 432 833 C 438 841 442 853 443 871 Z M 583 700 L 583 0 L 527 0 L 148 650 L 148 0 L 91 0 L 91 700 L 189 700 L 526 122 L 526 700 L 583 700 Z" unicode="Ñ" />
<glyph horiz-adv-x="659" d="M 309 884 L 399 747 L 350 747 L 221 879 L 221 884 L 309 884 Z M 531 620 C 556 589 576 551 591 506 C 606 460 614 408 614 350 C 614 298 607 250 595 206 C 583 162 565 125 543 95 C 517 61 486 34 450 16 C 414 -2 374 -12 330 -12 C 286 -12 246 -2 209 16 C 172 35 141 62 116 98 C 94 128 77 165 64 207 C 51 249 45 297 45 350 C 45 409 52 461 68 506 C 84 551 104 589 130 620 C 155 650 185 673 219 689 C 253 705 290 713 330 713 C 370 713 407 705 442 689 C 476 673 506 650 531 620 Z M 330 44 C 394 44 445 70 485 124 C 524 177 544 253 544 351 C 544 401 538 446 528 484 C 517 522 502 554 483 580 C 464 605 441 624 415 637 C 389 649 360 656 330 656 C 268 656 216 630 176 580 C 136 529 116 453 116 351 C 116 253 135 178 175 124 C 214 70 266 44 330 44 Z" unicode="Ò" />
<glyph horiz-adv-x="659" d="M 439 884 L 439 879 L 310 747 L 261 747 L 351 884 L 439 884 Z M 531 620 C 556 589 576 551 591 506 C 606 460 614 408 614 350 C 614 298 607 250 595 206 C 583 162 565 125 543 95 C 517 61 486 34 450 16 C 414 -2 374 -12 330 -12 C 286 -12 246 -2 209 16 C 172 35 141 62 116 98 C 94 128 77 165 64 207 C 51 249 45 297 45 350 C 45 409 52 461 68 506 C 84 551 104 589 130 620 C 155 650 185 673 219 689 C 253 705 290 713 330 713 C 370 713 407 705 442 689 C 476 673 506 650 531 620 Z M 330 44 C 394 44 445 70 485 124 C 524 177 544 253 544 351 C 544 401 538 446 528 484 C 517 522 502 554 483 580 C 464 605 441 624 415 637 C 389 649 360 656 330 656 C 268 656 216 630 176 580 C 136 529 116 453 116 351 C 116 253 135 178 175 124 C 214 70 266 44 330 44 Z" unicode="Ó" />
<glyph horiz-adv-x="659" d="M 367 884 L 462 742 L 417 742 L 330 835 L 243 742 L 197 742 L 293 884 L 367 884 Z M 531 620 C 556 589 576 551 591 506 C 606 460 614 408 614 350 C 614 298 607 250 595 206 C 583 162 565 125 543 95 C 517 61 486 34 450 16 C 414 -2 374 -12 330 -12 C 286 -12 246 -2 209 16 C 172 35 141 62 116 98 C 94 128 77 165 64 207 C 51 249 45 297 45 350 C 45 409 52 461 68 506 C 84 551 104 589 130 620 C 155 650 185 673 219 689 C 253 705 290 713 330 713 C 370 713 407 705 442 689 C 476 673 506 650 531 620 Z M 330 44 C 394 44 445 70 485 124 C 524 177 544 253 544 351 C 544 401 538 446 528 484 C 517 522 502 554 483 580 C 464 605 441 624 415 637 C 389 649 360 656 330 656 C 268 656 216 630 176 580 C 136 529 116 453 116 351 C 116 253 135 178 175 124 C 214 70 266 44 330 44 Z" unicode="Ô" />
<glyph horiz-adv-x="659" d="M 435 871 L 477 871 C 473 837 463 812 448 795 C 433 777 415 769 394 769 C 384 769 374 770 365 774 C 355 777 347 781 341 786 C 330 794 320 800 310 806 C 300 812 292 815 286 815 C 274 815 264 811 256 804 C 248 797 244 784 244 766 L 204 766 C 206 798 215 823 230 841 C 244 859 263 868 285 868 C 297 868 309 865 319 860 C 329 854 339 848 349 842 C 355 836 363 831 372 827 C 381 823 388 821 394 821 C 407 821 417 825 424 833 C 430 841 434 853 435 871 Z M 531 620 C 556 589 576 551 591 506 C 606 460 614 408 614 350 C 614 298 607 250 595 206 C 583 162 565 125 543 95 C 517 61 486 34 450 16 C 414 -2 374 -12 330 -12 C 286 -12 246 -2 209 16 C 172 35 141 62 116 98 C 94 128 77 165 64 207 C 51 249 45 297 45 350 C 45 409 52 461 68 506 C 84 551 104 589 130 620 C 155 650 185 673 219 689 C 253 705 290 713 330 713 C 370 713 407 705 442 689 C 476 673 506 650 531 620 Z M 330 44 C 394 44 445 70 485 124 C 524 177 544 253 544 351 C 544 401 538 446 528 484 C 517 522 502 554 483 580 C 464 605 441 624 415 637 C 389 649 360 656 330 656 C 268 656 216 630 176 580 C 136 529 116 453 116 351 C 116 253 135 178 175 124 C 214 70 266 44 330 44 Z" unicode="Õ" />
<glyph horiz-adv-x="659" d="M 279 853 L 279 768 L 212 768 L 212 853 L 279 853 Z M 446 853 L 446 768 L 379 768 L 379 853 L 446 853 Z M 531 620 C 556 589 576 551 591 506 C 606 460 614 408 614 350 C 614 298 607 250 595 206 C 583 162 565 125 543 95 C 517 61 486 34 450 16 C 414 -2 374 -12 330 -12 C 286 -12 246 -2 209 16 C 172 35 141 62 116 98 C 94 128 77 165 64 207 C 51 249 45 297 45 350 C 45 409 52 461 68 506 C 84 551 104 589 130 620 C 155 650 185 673 219 689 C 253 705 290 713 330 713 C 370 713 407 705 442 689 C 476 673 506 650 531 620 Z M 330 44 C 394 44 445 70 485 124 C 524 177 544 253 544 351 C 544 401 538 446 528 484 C 517 522 502 554 483 580 C 464 605 441 624 415 637 C 389 649 360 656 330 656 C 268 656 216 630 176 580 C 136 529 116 453 116 351 C 116 253 135 178 175 124 C 214 70 266 44 330 44 Z" unicode="Ö" />
<glyph horiz-adv-x="570" d="M 322 260 L 494 91 L 454 54 L 287 224 L 117 54 L 79 91 L 248 260 L 79 429 L 117 469 L 287 297 L 454 469 L 494 429 L 322 260 Z" unicode="×" />
<glyph horiz-adv-x="523" d="M 262 542 C 297 542 330 535 362 521 C 394 507 421 488 445 464 C 469 440 487 413 501 381 C 515 349 522 315 522 280 C 522 244 515 211 501 179 C 487 147 469 119 445 95 C 421 71 394 53 362 39 C 330 25 297 18 262 18 C 226 18 192 25 160 39 C 128 53 100 71 76 95 C 52 119 34 147 20 179 C 6 211 0 244 0 280 C 0 315 6 349 20 381 C 34 413 52 440 76 464 C 100 488 128 507 160 521 C 192 535 226 542 262 542 Z M 262 71 C 290 71 316 76 341 87 C 366 98 388 113 406 132 C 424 151 439 173 450 199 C 460 224 466 251 466 280 C 466 308 460 335 450 361 C 439 386 424 408 406 427 C 388 446 366 461 341 472 C 316 483 290 489 262 489 C 233 489 206 483 181 472 C 156 460 134 445 116 426 C 97 407 82 385 72 360 C 61 334 56 308 56 280 C 56 252 61 225 72 200 C 82 174 97 152 116 133 C 134 114 156 99 181 88 C 206 76 233 71 262 71 Z" unicode="Ø" />
<glyph horiz-adv-x="655" d="M 298 884 L 388 747 L 339 747 L 210 879 L 210 884 L 298 884 Z M 569 700 L 569 254 C 569 230 567 207 564 187 C 560 167 556 148 551 132 C 536 85 510 49 473 25 C 435 0 385 -12 322 -12 C 256 -12 205 2 169 32 C 132 61 108 102 96 156 C 92 170 90 186 88 203 C 86 220 86 238 86 257 L 86 700 L 149 700 L 149 258 C 149 231 151 207 155 187 C 159 166 164 147 172 131 C 184 103 203 81 229 66 C 254 51 286 44 326 44 C 366 44 398 50 424 64 C 450 78 469 97 483 122 C 491 138 498 158 504 182 C 509 205 512 230 512 257 L 512 700 L 569 700 Z" unicode="Ù" />
<glyph horiz-adv-x="655" d="M 452 884 L 452 879 L 323 747 L 274 747 L 364 884 L 452 884 Z M 569 700 L 569 254 C 569 230 567 207 564 187 C 560 167 556 148 551 132 C 536 85 510 49 473 25 C 435 0 385 -12 322 -12 C 256 -12 205 2 169 32 C 132 61 108 102 96 156 C 92 170 90 186 88 203 C 86 220 86 238 86 257 L 86 700 L 149 700 L 149 258 C 149 231 151 207 155 187 C 159 166 164 147 172 131 C 184 103 203 81 229 66 C 254 51 286 44 326 44 C 366 44 398 50 424 64 C 450 78 469 97 483 122 C 491 138 498 158 504 182 C 509 205 512 230 512 257 L 512 700 L 569 700 Z" unicode="Ú" />
<glyph horiz-adv-x="655" d="M 369 884 L 464 742 L 419 742 L 332 835 L 245 742 L 199 742 L 295 884 L 369 884 Z M 569 700 L 569 254 C 569 230 567 207 564 187 C 560 167 556 148 551 132 C 536 85 510 49 473 25 C 435 0 385 -12 322 -12 C 256 -12 205 2 169 32 C 132 61 108 102 96 156 C 92 170 90 186 88 203 C 86 220 86 238 86 257 L 86 700 L 149 700 L 149 258 C 149 231 151 207 155 187 C 159 166 164 147 172 131 C 184 103 203 81 229 66 C 254 51 286 44 326 44 C 366 44 398 50 424 64 C 450 78 469 97 483 122 C 491 138 498 158 504 182 C 509 205 512 230 512 257 L 512 700 L 569 700 Z" unicode="Û" />
<glyph horiz-adv-x="655" d="M 281 853 L 281 768 L 214 768 L 214 853 L 281 853 Z M 448 853 L 448 768 L 381 768 L 381 853 L 448 853 Z M 569 700 L 569 254 C 569 230 567 207 564 187 C 560 167 556 148 551 132 C 536 85 510 49 473 25 C 435 0 385 -12 322 -12 C 256 -12 205 2 169 32 C 132 61 108 102 96 156 C 92 170 90 186 88 203 C 86 220 86 238 86 257 L 86 700 L 149 700 L 149 258 C 149 231 151 207 155 187 C 159 166 164 147 172 131 C 184 103 203 81 229 66 C 254 51 286 44 326 44 C 366 44 398 50 424 64 C 450 78 469 97 483 122 C 491 138 498 158 504 182 C 509 205 512 230 512 257 L 512 700 L 569 700 Z" unicode="Ü" />
<glyph horiz-adv-x="563" d="M 419 884 L 419 879 L 290 747 L 241 747 L 331 884 L 419 884 Z M 496 700 L 564 700 L 312 268 L 312 0 L 249 0 L 249 267 L -1 700 L 73 700 L 284 327 L 496 700 Z" unicode="Ý" />
<glyph horiz-adv-x="533" d="M 342 409 C 389 398 426 376 452 343 C 478 310 492 268 492 217 C 492 184 486 154 476 126 C 466 98 451 74 433 54 C 415 34 393 18 367 7 C 341 -4 312 -10 282 -10 C 270 -10 260 -9 250 -8 C 240 -7 230 -5 222 -3 C 222 -3 222 0 223 6 C 223 12 224 18 225 25 C 225 31 226 37 227 43 C 227 49 228 52 228 52 C 238 49 247 47 256 47 C 265 46 275 46 285 46 C 311 46 334 50 352 59 C 370 68 385 80 397 96 C 408 112 416 130 421 151 C 426 172 429 194 429 218 C 429 271 412 311 379 338 C 346 364 295 378 225 378 L 225 427 C 285 427 326 438 349 462 C 372 485 384 515 384 553 C 384 564 381 575 377 587 C 373 599 366 609 358 619 C 349 629 337 637 323 643 C 309 649 292 652 273 652 C 256 652 239 649 223 644 C 206 638 191 629 179 617 C 166 604 156 587 148 566 C 140 544 136 518 136 486 L 136 0 L 79 0 L 79 484 C 79 521 84 554 94 582 C 104 610 118 633 136 651 C 153 669 173 682 197 691 C 220 700 245 705 272 705 C 294 705 316 701 337 695 C 358 689 376 679 392 667 C 408 655 420 639 430 621 C 439 603 444 582 444 558 C 444 524 435 494 417 468 C 399 442 374 424 342 414 L 342 409 Z" unicode="ß" />
<glyph horiz-adv-x="515" d="M 227 700 L 318 561 L 269 561 L 139 695 L 139 700 L 227 700 Z M 219 48 C 253 48 283 53 310 64 C 336 75 361 91 384 113 L 384 283 C 289 269 219 250 173 226 C 127 202 104 173 104 138 C 104 113 112 92 129 74 C 146 56 176 48 219 48 Z M 458 5 L 458 0 L 399 0 C 398 6 396 14 394 26 C 391 38 389 51 389 65 C 367 44 340 26 309 12 C 278 -1 246 -9 214 -9 C 192 -9 170 -6 149 0 C 128 5 110 13 94 24 C 78 35 65 49 55 67 C 45 84 41 104 41 127 C 41 185 69 229 127 259 C 184 289 270 313 384 331 L 384 362 C 384 390 373 414 351 433 C 329 452 294 462 246 462 C 224 462 205 458 190 451 C 175 444 163 436 154 426 C 144 416 137 406 132 395 C 126 383 123 374 121 366 L 61 376 C 73 416 94 450 126 477 C 158 503 199 517 251 517 C 291 517 324 511 350 500 C 376 488 397 473 411 455 C 420 442 427 427 433 409 C 438 391 441 371 441 349 L 441 106 C 441 77 443 55 447 41 C 451 26 454 14 458 5 Z" unicode="à" />
<glyph horiz-adv-x="515" d="M 352 700 L 352 695 L 223 561 L 173 561 L 264 700 L 352 700 Z M 219 48 C 253 48 283 53 310 64 C 336 75 361 91 384 113 L 384 283 C 289 269 219 250 173 226 C 127 202 104 173 104 138 C 104 113 112 92 129 74 C 146 56 176 48 219 48 Z M 458 5 L 458 0 L 399 0 C 398 6 396 14 394 26 C 391 38 389 51 389 65 C 367 44 340 26 309 12 C 278 -1 246 -9 214 -9 C 192 -9 170 -6 149 0 C 128 5 110 13 94 24 C 78 35 65 49 55 67 C 45 84 41 104 41 127 C 41 185 69 229 127 259 C 184 289 270 313 384 331 L 384 362 C 384 390 373 414 351 433 C 329 452 294 462 246 462 C 224 462 205 458 190 451 C 175 444 163 436 154 426 C 144 416 137 406 132 395 C 126 383 123 374 121 366 L 61 376 C 73 416 94 450 126 477 C 158 503 199 517 251 517 C 291 517 324 511 350 500 C 376 488 397 473 411 455 C 420 442 427 427 433 409 C 438 391 441 371 441 349 L 441 106 C 441 77 443 55 447 41 C 451 26 454 14 458 5 Z" unicode="á" />
<glyph horiz-adv-x="515" d="M 285 700 L 381 556 L 335 556 L 249 651 L 161 556 L 116 556 L 212 700 L 285 700 Z M 219 48 C 253 48 283 53 310 64 C 336 75 361 91 384 113 L 384 283 C 289 269 219 250 173 226 C 127 202 104 173 104 138 C 104 113 112 92 129 74 C 146 56 176 48 219 48 Z M 458 5 L 458 0 L 399 0 C 398 6 396 14 394 26 C 391 38 389 51 389 65 C 367 44 340 26 309 12 C 278 -1 246 -9 214 -9 C 192 -9 170 -6 149 0 C 128 5 110 13 94 24 C 78 35 65 49 55 67 C 45 84 41 104 41 127 C 41 185 69 229 127 259 C 184 289 270 313 384 331 L 384 362 C 384 390 373 414 351 433 C 329 452 294 462 246 462 C 224 462 205 458 190 451 C 175 444 163 436 154 426 C 144 416 137 406 132 395 C 126 383 123 374 121 366 L 61 376 C 73 416 94 450 126 477 C 158 503 199 517 251 517 C 291 517 324 511 350 500 C 376 488 397 473 411 455 C 420 442 427 427 433 409 C 438 391 441 371 441 349 L 441 106 C 441 77 443 55 447 41 C 451 26 454 14 458 5 Z" unicode="â" />
<glyph horiz-adv-x="515" d="M 347 685 L 389 685 C 385 651 375 626 361 609 C 346 591 328 583 306 583 C 295 583 285 584 277 587 C 268 590 260 594 252 600 C 241 607 231 614 222 620 C 212 626 204 629 198 629 C 186 629 176 625 168 618 C 160 611 156 598 156 580 L 116 580 C 118 612 127 637 142 655 C 156 673 175 682 198 682 C 209 682 220 679 230 674 C 240 668 251 662 261 656 C 267 650 275 645 284 641 C 292 637 300 635 307 635 C 319 635 329 639 335 647 C 341 655 345 667 347 685 Z M 219 48 C 253 48 283 53 310 64 C 336 75 361 91 384 113 L 384 283 C 289 269 219 250 173 226 C 127 202 104 173 104 138 C 104 113 112 92 129 74 C 146 56 176 48 219 48 Z M 458 5 L 458 0 L 399 0 C 398 6 396 14 394 26 C 391 38 389 51 389 65 C 367 44 340 26 309 12 C 278 -1 246 -9 214 -9 C 192 -9 170 -6 149 0 C 128 5 110 13 94 24 C 78 35 65 49 55 67 C 45 84 41 104 41 127 C 41 185 69 229 127 259 C 184 289 270 313 384 331 L 384 362 C 384 390 373 414 351 433 C 329 452 294 462 246 462 C 224 462 205 458 190 451 C 175 444 163 436 154 426 C 144 416 137 406 132 395 C 126 383 123 374 121 366 L 61 376 C 73 416 94 450 126 477 C 158 503 199 517 251 517 C 291 517 324 511 350 500 C 376 488 397 473 411 455 C 420 442 427 427 433 409 C 438 391 441 371 441 349 L 441 106 C 441 77 443 55 447 41 C 451 26 454 14 458 5 Z" unicode="ã" />
<glyph horiz-adv-x="515" d="M 201 673 L 201 588 L 134 588 L 134 673 L 201 673 Z M 368 673 L 368 588 L 301 588 L 301 673 L 368 673 Z M 219 48 C 253 48 283 53 310 64 C 336 75 361 91 384 113 L 384 283 C 289 269 219 250 173 226 C 127 202 104 173 104 138 C 104 113 112 92 129 74 C 146 56 176 48 219 48 Z M 458 5 L 458 0 L 399 0 C 398 6 396 14 394 26 C 391 38 389 51 389 65 C 367 44 340 26 309 12 C 278 -1 246 -9 214 -9 C 192 -9 170 -6 149 0 C 128 5 110 13 94 24 C 78 35 65 49 55 67 C 45 84 41 104 41 127 C 41 185 69 229 127 259 C 184 289 270 313 384 331 L 384 362 C 384 390 373 414 351 433 C 329 452 294 462 246 462 C 224 462 205 458 190 451 C 175 444 163 436 154 426 C 144 416 137 406 132 395 C 126 383 123 374 121 366 L 61 376 C 73 416 94 450 126 477 C 158 503 199 517 251 517 C 291 517 324 511 350 500 C 376 488 397 473 411 455 C 420 442 427 427 433 409 C 438 391 441 371 441 349 L 441 106 C 441 77 443 55 447 41 C 451 26 454 14 458 5 Z" unicode="ä" />
<glyph horiz-adv-x="515" d="M 254 758 C 284 758 308 748 327 729 C 345 709 355 684 355 654 C 355 624 345 599 325 581 C 305 562 281 553 253 553 C 224 553 200 562 180 581 C 160 599 151 624 151 654 C 151 681 160 705 178 726 C 196 747 221 758 254 758 Z M 253 585 C 272 585 287 591 297 605 C 307 618 312 635 312 656 C 312 678 307 695 298 707 C 288 719 273 726 253 726 C 232 726 217 719 208 706 C 198 693 194 676 194 656 C 194 635 198 618 208 605 C 218 591 233 585 253 585 Z M 219 48 C 253 48 283 53 310 64 C 336 75 361 91 384 113 L 384 283 C 289 269 219 250 173 226 C 127 202 104 173 104 138 C 104 113 112 92 129 74 C 146 56 176 48 219 48 Z M 458 5 L 458 0 L 399 0 C 398 6 396 14 394 26 C 391 38 389 51 389 65 C 367 44 340 26 309 12 C 278 -1 246 -9 214 -9 C 192 -9 170 -6 149 0 C 128 5 110 13 94 24 C 78 35 65 49 55 67 C 45 84 41 104 41 127 C 41 185 69 229 127 259 C 184 289 270 313 384 331 L 384 362 C 384 390 373 414 351 433 C 329 452 294 462 246 462 C 224 462 205 458 190 451 C 175 444 163 436 154 426 C 144 416 137 406 132 395 C 126 383 123 374 121 366 L 61 376 C 73 416 94 450 126 477 C 158 503 199 517 251 517 C 291 517 324 511 350 500 C 376 488 397 473 411 455 C 420 442 427 427 433 409 C 438 391 441 371 441 349 L 441 106 C 441 77 443 55 447 41 C 451 26 454 14 458 5 Z" unicode="å" />
<glyph horiz-adv-x="857" d="M 439 299 L 755 299 C 755 320 752 341 746 361 C 740 381 732 398 721 413 C 709 427 694 439 676 448 C 657 457 635 462 609 462 C 578 462 552 456 530 446 C 508 436 491 423 478 407 C 464 391 454 373 448 354 C 442 334 439 316 439 299 Z M 217 48 C 251 48 283 55 315 69 C 347 83 374 104 398 132 C 394 142 390 154 388 168 C 386 182 384 196 383 210 C 382 224 382 237 382 250 C 382 263 382 274 382 283 C 287 269 217 250 172 226 C 126 202 104 173 104 138 C 104 113 112 92 128 74 C 144 56 174 48 217 48 Z M 768 139 L 817 111 C 809 98 798 85 786 71 C 773 57 758 44 740 32 C 722 20 702 11 679 3 C 655 -4 629 -8 600 -8 C 560 -8 524 0 494 16 C 464 32 439 56 421 88 C 385 52 350 27 316 13 C 282 -1 248 -9 212 -9 C 190 -9 168 -6 148 0 C 127 5 109 13 93 24 C 77 35 65 49 55 67 C 45 84 41 104 41 127 C 41 185 69 229 127 259 C 184 289 270 313 384 331 L 384 362 C 384 390 372 414 350 433 C 327 452 292 462 244 462 C 222 462 203 458 188 451 C 173 444 161 436 152 426 C 142 416 135 406 130 395 C 124 383 121 374 119 366 L 59 376 C 71 416 92 450 124 477 C 156 503 197 517 249 517 C 289 517 325 509 357 494 C 388 478 411 452 426 415 C 445 445 470 470 500 488 C 530 506 564 516 603 516 C 642 516 677 508 707 492 C 737 476 761 453 779 423 C 790 403 799 380 806 352 C 812 324 816 292 816 258 L 816 251 L 437 251 C 437 187 452 136 483 100 C 514 64 555 46 605 46 C 629 46 650 49 668 55 C 686 61 701 68 714 78 C 726 87 737 97 746 108 C 754 119 762 129 768 139 Z" unicode="æ" />
<glyph horiz-adv-x="487" d="M 411 161 L 456 139 C 450 119 442 101 432 83 C 421 65 408 50 392 36 C 376 22 358 12 338 4 C 318 -4 295 -8 270 -8 L 268 -8 L 256 -38 C 294 -42 317 -52 326 -68 C 334 -84 339 -99 339 -112 C 339 -133 329 -150 311 -163 C 292 -176 271 -183 247 -183 C 236 -183 224 -181 210 -179 C 196 -176 181 -172 167 -167 L 180 -134 C 188 -138 198 -142 209 -146 C 219 -149 228 -151 235 -151 C 247 -151 259 -148 270 -143 C 281 -138 287 -129 287 -115 C 287 -101 280 -90 268 -82 C 256 -73 239 -68 219 -68 L 245 -7 C 185 -1 136 24 98 70 C 60 116 41 177 41 255 C 41 290 46 324 56 356 C 66 388 81 415 100 439 C 119 462 142 481 170 495 C 197 509 228 516 262 516 C 317 516 361 502 393 475 C 425 447 445 413 454 373 L 397 357 C 395 365 391 376 386 388 C 381 400 374 411 365 422 C 355 433 343 442 327 450 C 311 458 292 462 268 462 C 238 462 213 456 193 444 C 172 432 155 417 142 398 C 129 378 120 356 114 330 C 108 304 105 277 105 249 C 105 220 108 193 115 169 C 121 144 131 122 145 104 C 159 86 176 71 196 61 C 216 51 240 46 267 46 C 291 46 312 49 329 57 C 345 64 359 73 370 85 C 381 96 390 108 396 122 C 402 136 407 149 411 161 Z" unicode="ç" />
<glyph horiz-adv-x="525" d="M 240 700 L 330 561 L 281 561 L 151 695 L 151 700 L 240 700 Z M 436 139 L 485 111 C 477 98 466 85 454 71 C 441 57 426 44 408 32 C 390 20 369 11 346 3 C 322 -4 296 -8 267 -8 C 233 -8 202 -1 174 10 C 146 22 122 40 103 62 C 83 84 68 110 57 142 C 46 173 41 207 41 245 C 41 281 46 315 56 348 C 66 381 81 410 101 435 C 121 459 145 479 173 494 C 201 508 234 516 270 516 C 309 516 344 508 374 492 C 404 476 429 453 447 423 C 458 403 467 380 474 352 C 480 324 484 292 484 258 L 484 251 L 103 251 C 103 187 118 136 150 100 C 181 64 222 46 272 46 C 296 46 317 49 335 55 C 353 61 368 68 381 78 C 394 87 405 97 414 108 C 422 119 430 129 436 139 Z M 107 299 L 423 299 C 423 320 420 341 414 361 C 408 381 400 398 388 413 C 376 427 361 439 343 448 C 324 457 302 462 276 462 C 245 462 219 456 197 446 C 175 435 158 421 145 405 C 132 389 122 371 116 352 C 110 333 107 315 107 299 Z" unicode="è" />
<glyph horiz-adv-x="525" d="M 373 700 L 373 695 L 244 561 L 195 561 L 285 700 L 373 700 Z M 436 139 L 485 111 C 477 98 466 85 454 71 C 441 57 426 44 408 32 C 390 20 369 11 346 3 C 322 -4 296 -8 267 -8 C 233 -8 202 -1 174 10 C 146 22 122 40 103 62 C 83 84 68 110 57 142 C 46 173 41 207 41 245 C 41 281 46 315 56 348 C 66 381 81 410 101 435 C 121 459 145 479 173 494 C 201 508 234 516 270 516 C 309 516 344 508 374 492 C 404 476 429 453 447 423 C 458 403 467 380 474 352 C 480 324 484 292 484 258 L 484 251 L 103 251 C 103 187 118 136 150 100 C 181 64 222 46 272 46 C 296 46 317 49 335 55 C 353 61 368 68 381 78 C 394 87 405 97 414 108 C 422 119 430 129 436 139 Z M 107 299 L 423 299 C 423 320 420 341 414 361 C 408 381 400 398 388 413 C 376 427 361 439 343 448 C 324 457 302 462 276 462 C 245 462 219 456 197 446 C 175 435 158 421 145 405 C 132 389 122 371 116 352 C 110 333 107 315 107 299 Z" unicode="é" />
<glyph horiz-adv-x="525" d="M 308 700 L 403 556 L 358 556 L 271 651 L 184 556 L 139 556 L 234 700 L 308 700 Z M 436 139 L 485 111 C 477 98 466 85 454 71 C 441 57 426 44 408 32 C 390 20 369 11 346 3 C 322 -4 296 -8 267 -8 C 233 -8 202 -1 174 10 C 146 22 122 40 103 62 C 83 84 68 110 57 142 C 46 173 41 207 41 245 C 41 281 46 315 56 348 C 66 381 81 410 101 435 C 121 459 145 479 173 494 C 201 508 234 516 270 516 C 309 516 344 508 374 492 C 404 476 429 453 447 423 C 458 403 467 380 474 352 C 480 324 484 292 484 258 L 484 251 L 103 251 C 103 187 118 136 150 100 C 181 64 222 46 272 46 C 296 46 317 49 335 55 C 353 61 368 68 381 78 C 394 87 405 97 414 108 C 422 119 430 129 436 139 Z M 107 299 L 423 299 C 423 320 420 341 414 361 C 408 381 400 398 388 413 C 376 427 361 439 343 448 C 324 457 302 462 276 462 C 245 462 219 456 197 446 C 175 435 158 421 145 405 C 132 389 122 371 116 352 C 110 333 107 315 107 299 Z" unicode="ê" />
<glyph horiz-adv-x="525" d="M 218 673 L 218 588 L 151 588 L 151 673 L 218 673 Z M 385 673 L 385 588 L 318 588 L 318 673 L 385 673 Z M 436 139 L 485 111 C 477 98 466 85 454 71 C 441 57 426 44 408 32 C 390 20 369 11 346 3 C 322 -4 296 -8 267 -8 C 233 -8 202 -1 174 10 C 146 22 122 40 103 62 C 83 84 68 110 57 142 C 46 173 41 207 41 245 C 41 281 46 315 56 348 C 66 381 81 410 101 435 C 121 459 145 479 173 494 C 201 508 234 516 270 516 C 309 516 344 508 374 492 C 404 476 429 453 447 423 C 458 403 467 380 474 352 C 480 324 484 292 484 258 L 484 251 L 103 251 C 103 187 118 136 150 100 C 181 64 222 46 272 46 C 296 46 317 49 335 55 C 353 61 368 68 381 78 C 394 87 405 97 414 108 C 422 119 430 129 436 139 Z M 107 299 L 423 299 C 423 320 420 341 414 361 C 408 381 400 398 388 413 C 376 427 361 439 343 448 C 324 457 302 462 276 462 C 245 462 219 456 197 446 C 175 435 158 421 145 405 C 132 389 122 371 116 352 C 110 333 107 315 107 299 Z" unicode="ë" />
<glyph horiz-adv-x="224" d="M 77 700 L 167 561 L 118 561 L -10 695 L -10 700 L 77 700 Z M 141 508 L 141 0 L 83 0 L 83 508 L 141 508 Z" unicode="ì" />
<glyph horiz-adv-x="224" d="M 234 700 L 234 695 L 104 561 L 55 561 L 145 700 L 234 700 Z M 141 508 L 141 0 L 83 0 L 83 508 L 141 508 Z" unicode="í" />
<glyph horiz-adv-x="230" d="M 147 700 L 232 556 L 191 556 L 115 652 L 37 556 L -5 556 L 80 700 L 147 700 Z M 144 508 L 144 0 L 86 0 L 86 508 L 144 508 Z" unicode="î" />
<glyph horiz-adv-x="230" d="M 79 673 L 79 588 L 15 588 L 15 673 L 79 673 Z M 214 673 L 214 588 L 150 588 L 150 673 L 214 673 Z M 144 508 L 144 0 L 86 0 L 86 508 L 144 508 Z" unicode="ï" />
<glyph horiz-adv-x="535" d="M 364 685 L 406 685 C 402 651 392 626 377 609 C 362 591 344 583 323 583 C 312 583 302 584 293 588 C 284 591 276 595 270 600 C 259 608 249 614 239 620 C 229 626 220 629 214 629 C 202 629 193 625 185 618 C 177 611 173 598 173 580 L 132 580 C 134 612 143 637 158 655 C 173 673 192 682 214 682 C 226 682 238 679 248 674 C 258 668 268 662 278 656 C 284 650 292 645 301 641 C 309 637 317 635 323 635 C 336 635 346 639 352 647 C 358 655 362 667 364 685 Z M 461 345 L 461 0 L 404 0 L 404 348 C 404 382 395 409 379 430 C 363 450 334 461 294 461 C 276 461 259 458 243 452 C 227 446 212 440 199 432 C 185 424 173 415 163 407 C 152 399 143 392 136 386 L 136 0 L 79 0 L 79 508 L 134 508 L 134 433 C 142 441 151 449 162 459 C 172 469 185 478 199 487 C 213 495 230 502 248 508 C 266 514 287 517 311 517 C 345 517 373 509 396 493 C 419 477 435 460 444 440 C 450 424 455 408 457 393 C 459 377 461 361 461 345 Z" unicode="ñ" />
<glyph horiz-adv-x="527" d="M 239 700 L 330 561 L 280 561 L 151 695 L 151 700 L 239 700 Z M 263 516 C 331 516 386 492 426 444 C 466 396 486 333 486 255 C 486 175 465 112 425 64 C 384 16 330 -8 263 -8 C 197 -8 143 16 102 64 C 61 112 41 175 41 255 C 41 290 45 324 55 356 C 65 388 79 415 98 439 C 116 462 139 481 167 495 C 195 509 227 516 263 516 Z M 263 46 C 290 46 314 51 334 62 C 354 72 371 87 384 106 C 396 124 406 146 412 172 C 418 198 422 226 422 256 C 422 282 419 307 413 332 C 407 357 398 379 386 398 C 374 417 357 432 337 444 C 317 456 292 462 263 462 C 235 462 211 456 191 446 C 171 435 154 420 142 402 C 129 383 120 361 114 336 C 108 311 105 284 105 256 C 105 226 108 198 114 172 C 120 146 129 124 142 106 C 154 87 171 72 191 62 C 211 51 235 46 263 46 Z" unicode="ò" />
<glyph horiz-adv-x="527" d="M 365 700 L 365 695 L 237 561 L 188 561 L 278 700 L 365 700 Z M 263 516 C 331 516 386 492 426 444 C 466 396 486 333 486 255 C 486 175 465 112 425 64 C 384 16 330 -8 263 -8 C 197 -8 143 16 102 64 C 61 112 41 175 41 255 C 41 290 45 324 55 356 C 65 388 79 415 98 439 C 116 462 139 481 167 495 C 195 509 227 516 263 516 Z M 263 46 C 290 46 314 51 334 62 C 354 72 371 87 384 106 C 396 124 406 146 412 172 C 418 198 422 226 422 256 C 422 282 419 307 413 332 C 407 357 398 379 386 398 C 374 417 357 432 337 444 C 317 456 292 462 263 462 C 235 462 211 456 191 446 C 171 435 154 420 142 402 C 129 383 120 361 114 336 C 108 311 105 284 105 256 C 105 226 108 198 114 172 C 120 146 129 124 142 106 C 154 87 171 72 191 62 C 211 51 235 46 263 46 Z" unicode="ó" />
<glyph horiz-adv-x="527" d="M 298 700 L 392 556 L 348 556 L 261 651 L 173 556 L 129 556 L 223 700 L 298 700 Z M 263 516 C 331 516 386 492 426 444 C 466 396 486 333 486 255 C 486 175 465 112 425 64 C 384 16 330 -8 263 -8 C 197 -8 143 16 102 64 C 61 112 41 175 41 255 C 41 290 45 324 55 356 C 65 388 79 415 98 439 C 116 462 139 481 167 495 C 195 509 227 516 263 516 Z M 263 46 C 290 46 314 51 334 62 C 354 72 371 87 384 106 C 396 124 406 146 412 172 C 418 198 422 226 422 256 C 422 282 419 307 413 332 C 407 357 398 379 386 398 C 374 417 357 432 337 444 C 317 456 292 462 263 462 C 235 462 211 456 191 446 C 171 435 154 420 142 402 C 129 383 120 361 114 336 C 108 311 105 284 105 256 C 105 226 108 198 114 172 C 120 146 129 124 142 106 C 154 87 171 72 191 62 C 211 51 235 46 263 46 Z" unicode="ô" />
<glyph horiz-adv-x="527" d="M 360 685 L 401 685 C 397 651 387 626 372 609 C 357 591 339 583 319 583 C 308 583 298 584 289 587 C 280 590 272 594 265 600 C 254 607 244 614 234 620 C 224 626 216 629 211 629 C 198 629 188 625 181 618 C 173 611 169 598 169 580 L 129 580 C 131 612 139 637 154 655 C 168 673 187 682 210 682 C 222 682 233 679 243 674 C 253 668 263 662 273 656 C 279 650 287 645 296 641 C 305 637 313 635 319 635 C 331 635 341 639 348 647 C 354 655 358 667 360 685 Z M 263 516 C 331 516 386 492 426 444 C 466 396 486 333 486 255 C 486 175 465 112 425 64 C 384 16 330 -8 263 -8 C 197 -8 143 16 102 64 C 61 112 41 175 41 255 C 41 290 45 324 55 356 C 65 388 79 415 98 439 C 116 462 139 481 167 495 C 195 509 227 516 263 516 Z M 263 46 C 290 46 314 51 334 62 C 354 72 371 87 384 106 C 396 124 406 146 412 172 C 418 198 422 226 422 256 C 422 282 419 307 413 332 C 407 357 398 379 386 398 C 374 417 357 432 337 444 C 317 456 292 462 263 462 C 235 462 211 456 191 446 C 171 435 154 420 142 402 C 129 383 120 361 114 336 C 108 311 105 284 105 256 C 105 226 108 198 114 172 C 120 146 129 124 142 106 C 154 87 171 72 191 62 C 211 51 235 46 263 46 Z" unicode="õ" />
<glyph horiz-adv-x="527" d="M 215 673 L 215 588 L 148 588 L 148 673 L 215 673 Z M 382 673 L 382 588 L 315 588 L 315 673 L 382 673 Z M 263 516 C 331 516 386 492 426 444 C 466 396 486 333 486 255 C 486 175 465 112 425 64 C 384 16 330 -8 263 -8 C 197 -8 143 16 102 64 C 61 112 41 175 41 255 C 41 290 45 324 55 356 C 65 388 79 415 98 439 C 116 462 139 481 167 495 C 195 509 227 516 263 516 Z M 263 46 C 290 46 314 51 334 62 C 354 72 371 87 384 106 C 396 124 406 146 412 172 C 418 198 422 226 422 256 C 422 282 419 307 413 332 C 407 357 398 379 386 398 C 374 417 357 432 337 444 C 317 456 292 462 263 462 C 235 462 211 456 191 446 C 171 435 154 420 142 402 C 129 383 120 361 114 336 C 108 311 105 284 105 256 C 105 226 108 198 114 172 C 120 146 129 124 142 106 C 154 87 171 72 191 62 C 211 51 235 46 263 46 Z" unicode="ö" />
<glyph horiz-adv-x="570" d="M 286 493 C 298 493 310 487 320 477 C 330 467 336 454 336 440 C 336 427 330 415 320 405 C 310 395 298 390 286 390 C 272 390 259 395 249 405 C 239 415 234 427 234 441 C 234 455 239 468 249 478 C 259 488 272 493 286 493 Z M 517 292 L 517 237 L 52 237 L 52 292 L 517 292 Z M 286 138 C 298 138 310 132 321 122 C 331 112 337 100 337 86 C 337 73 331 61 321 51 C 310 41 298 36 286 36 C 272 36 259 41 249 52 C 239 62 234 74 234 87 C 234 100 239 112 250 122 C 260 132 272 138 286 138 Z" unicode="÷" />
<glyph horiz-adv-x="527" d="M 159 82 L 339 445 C 328 450 316 454 304 457 C 291 460 277 462 263 462 C 235 462 210 456 190 446 C 170 435 153 420 141 402 C 128 383 118 361 112 336 C 106 311 103 284 103 256 C 103 220 107 186 116 156 C 125 125 139 100 159 82 Z M 263 46 C 290 46 314 51 334 62 C 354 72 371 87 385 106 C 398 124 408 146 414 172 C 420 198 424 226 424 256 C 424 288 419 320 411 351 C 402 382 387 407 367 427 L 186 64 C 196 58 208 53 221 50 C 234 47 248 46 263 46 Z M 392 475 C 421 453 444 423 461 385 C 477 347 486 303 486 255 C 486 175 465 112 425 64 C 384 16 330 -8 263 -8 C 245 -8 227 -5 210 -1 C 193 2 177 9 163 17 L 124 -61 L 86 -61 L 134 35 C 105 57 82 87 66 125 C 49 163 41 206 41 255 C 41 290 45 324 55 356 C 65 388 79 415 98 439 C 116 462 139 481 167 495 C 195 509 227 516 263 516 C 281 516 299 514 316 510 C 332 506 348 500 363 493 L 400 567 L 438 567 L 392 475 Z" unicode="ø" />
<glyph horiz-adv-x="533" d="M 234 700 L 325 561 L 276 561 L 147 695 L 147 700 L 234 700 Z M 454 508 L 454 0 L 399 0 L 399 75 C 391 67 381 58 371 48 C 360 38 348 29 334 21 C 320 12 303 5 284 0 C 265 -6 244 -9 221 -9 C 187 -9 158 -1 136 14 C 114 30 99 48 91 68 C 84 84 79 99 77 115 C 74 130 73 146 73 163 L 73 508 L 130 508 L 130 160 C 130 126 138 98 154 78 C 170 57 199 47 240 47 C 258 47 274 49 290 55 C 306 61 320 68 334 76 C 347 84 359 92 370 101 C 380 109 389 117 397 123 L 397 508 L 454 508 Z" unicode="ù" />
<glyph horiz-adv-x="533" d="M 378 700 L 378 695 L 249 561 L 200 561 L 290 700 L 378 700 Z M 454 508 L 454 0 L 399 0 L 399 75 C 391 67 381 58 371 48 C 360 38 348 29 334 21 C 320 12 303 5 284 0 C 265 -6 244 -9 221 -9 C 187 -9 158 -1 136 14 C 114 30 99 48 91 68 C 84 84 79 99 77 115 C 74 130 73 146 73 163 L 73 508 L 130 508 L 130 160 C 130 126 138 98 154 78 C 170 57 199 47 240 47 C 258 47 274 49 290 55 C 306 61 320 68 334 76 C 347 84 359 92 370 101 C 380 109 389 117 397 123 L 397 508 L 454 508 Z" unicode="ú" />
<glyph horiz-adv-x="533" d="M 298 700 L 392 556 L 348 556 L 261 651 L 173 556 L 129 556 L 223 700 L 298 700 Z M 454 508 L 454 0 L 399 0 L 399 75 C 391 67 381 58 371 48 C 360 38 348 29 334 21 C 320 12 303 5 284 0 C 265 -6 244 -9 221 -9 C 187 -9 158 -1 136 14 C 114 30 99 48 91 68 C 84 84 79 99 77 115 C 74 130 73 146 73 163 L 73 508 L 130 508 L 130 160 C 130 126 138 98 154 78 C 170 57 199 47 240 47 C 258 47 274 49 290 55 C 306 61 320 68 334 76 C 347 84 359 92 370 101 C 380 109 389 117 397 123 L 397 508 L 454 508 Z" unicode="û" />
<glyph horiz-adv-x="533" d="M 217 673 L 217 588 L 150 588 L 150 673 L 217 673 Z M 384 673 L 384 588 L 317 588 L 317 673 L 384 673 Z M 454 508 L 454 0 L 399 0 L 399 75 C 391 67 381 58 371 48 C 360 38 348 29 334 21 C 320 12 303 5 284 0 C 265 -6 244 -9 221 -9 C 187 -9 158 -1 136 14 C 114 30 99 48 91 68 C 84 84 79 99 77 115 C 74 130 73 146 73 163 L 73 508 L 130 508 L 130 160 C 130 126 138 98 154 78 C 170 57 199 47 240 47 C 258 47 274 49 290 55 C 306 61 320 68 334 76 C 347 84 359 92 370 101 C 380 109 389 117 397 123 L 397 508 L 454 508 Z" unicode="ü" />
<glyph horiz-adv-x="439" d="M 360 700 L 360 695 L 231 561 L 182 561 L 272 700 L 360 700 Z M 372 508 L 432 508 L 241 -13 C 222 -63 200 -101 176 -127 C 151 -153 118 -166 78 -166 C 69 -166 60 -165 52 -164 C 43 -162 33 -160 23 -158 L 23 -104 C 36 -106 47 -108 55 -110 C 63 -112 72 -113 80 -113 C 111 -113 134 -104 149 -86 C 164 -68 178 -39 191 -1 L 7 508 L 68 508 L 223 79 L 372 508 Z" unicode="ý" />
<glyph horiz-adv-x="439" d="M 167 673 L 167 588 L 100 588 L 100 673 L 167 673 Z M 334 673 L 334 588 L 267 588 L 267 673 L 334 673 Z M 372 508 L 432 508 L 241 -13 C 222 -63 200 -101 176 -127 C 151 -153 118 -166 78 -166 C 69 -166 60 -165 52 -164 C 43 -162 33 -160 23 -158 L 23 -104 C 36 -106 47 -108 55 -110 C 63 -112 72 -113 80 -113 C 111 -113 134 -104 149 -86 C 164 -68 178 -39 191 -1 L 7 508 L 68 508 L 223 79 L 372 508 Z" unicode="ÿ" />
<glyph horiz-adv-x="222" d="M 140 508 L 140 0 L 83 0 L 83 508 L 140 508 Z" unicode="ı" />
<glyph horiz-adv-x="500" d="M 487 56 L 487 0 L 91 0 L 91 315 L 28 275 L 28 330 L 91 368 L 91 700 L 154 700 L 154 395 L 267 466 L 267 409 L 154 342 L 154 56 L 487 56 Z" unicode="Ł" />
<glyph horiz-adv-x="238" d="M 211 425 L 211 376 L 148 338 L 148 0 L 91 0 L 91 310 L 30 272 L 30 321 L 91 357 L 91 700 L 148 700 L 148 385 L 211 425 Z" unicode="ł" />
<glyph horiz-adv-x="1004" d="M 330 44 C 394 44 445 70 485 122 C 524 174 544 251 544 351 C 544 403 538 448 528 486 C 517 524 502 556 483 581 C 464 606 441 625 415 637 C 389 649 360 656 330 656 C 268 656 216 630 176 580 C 136 529 116 453 116 351 C 116 253 135 178 175 124 C 214 70 266 44 330 44 Z M 973 56 L 973 0 L 538 0 L 538 114 C 512 70 481 38 447 18 C 413 -1 374 -12 330 -12 C 286 -12 246 -2 209 16 C 172 35 141 62 116 98 C 94 128 77 165 64 207 C 51 249 45 297 45 350 C 45 409 52 461 68 506 C 84 551 104 589 130 620 C 155 650 185 673 219 689 C 253 705 290 713 330 713 C 373 713 412 703 448 683 C 483 663 513 634 538 594 L 538 700 L 964 700 L 964 644 L 599 644 L 599 389 L 863 389 L 863 333 L 599 333 L 599 56 L 973 56 Z" unicode="Œ" />
<glyph horiz-adv-x="899" d="M 810 139 L 859 111 C 851 98 840 85 828 71 C 815 57 800 44 782 32 C 764 20 744 11 721 3 C 697 -4 671 -8 642 -8 C 599 -8 561 2 529 23 C 496 44 470 73 451 109 C 432 73 406 44 374 23 C 342 2 305 -8 263 -8 C 197 -8 143 16 102 64 C 61 112 41 175 41 255 C 41 290 45 324 55 356 C 65 388 79 415 98 439 C 116 462 139 481 167 495 C 195 509 227 516 263 516 C 307 516 345 505 378 483 C 410 461 436 432 455 394 C 473 430 499 459 531 482 C 563 504 601 516 645 516 C 684 516 719 508 749 492 C 779 476 803 453 821 423 C 832 403 841 380 848 352 C 854 324 858 292 858 258 L 858 251 L 479 251 C 479 187 494 136 525 100 C 556 64 597 46 647 46 C 671 46 692 49 710 55 C 728 61 743 68 756 78 C 768 87 779 97 788 108 C 796 119 804 129 810 139 Z M 263 46 C 290 46 314 51 334 62 C 354 72 371 87 384 106 C 396 124 406 146 412 172 C 418 198 422 226 422 256 C 422 282 419 307 413 332 C 407 357 398 379 386 398 C 374 417 357 432 337 444 C 317 456 292 462 263 462 C 235 462 211 456 191 446 C 171 435 154 420 142 402 C 129 383 120 361 114 336 C 108 311 105 284 105 256 C 105 226 108 198 114 172 C 120 146 129 124 142 106 C 154 87 171 72 191 62 C 211 51 235 46 263 46 Z M 483 299 L 797 299 C 797 320 794 341 788 361 C 782 381 774 398 763 413 C 751 427 736 439 718 448 C 699 457 677 462 651 462 C 620 462 594 456 573 446 C 551 435 534 421 521 405 C 507 389 498 371 492 352 C 486 333 483 315 483 299 Z" unicode="œ" />
<glyph horiz-adv-x="586" d="M 391 884 L 436 884 L 341 742 L 267 742 L 171 884 L 217 884 L 304 791 L 391 884 Z M 401 363 C 453 346 491 323 515 293 C 539 263 551 227 551 184 C 551 128 527 81 481 44 C 434 6 373 -12 299 -12 C 261 -12 228 -7 200 2 C 172 11 147 23 127 37 C 106 51 88 67 74 85 C 60 102 48 119 40 136 L 94 179 C 113 141 141 109 177 83 C 213 57 256 44 304 44 C 354 44 396 56 430 81 C 463 106 480 139 480 179 C 480 216 469 244 449 264 C 429 284 396 299 352 311 C 334 315 316 319 297 323 C 277 327 259 331 241 336 C 219 341 198 348 178 358 C 158 367 140 379 124 393 C 108 407 95 425 85 445 C 75 465 71 489 71 517 C 71 547 78 576 93 603 C 107 630 129 653 158 672 C 175 683 196 693 220 701 C 244 709 270 713 299 713 C 362 713 412 700 449 676 C 485 652 515 624 537 593 L 483 548 C 475 560 466 572 455 585 C 444 597 431 609 417 619 C 402 629 385 638 365 645 C 345 652 323 656 299 656 C 252 656 214 643 185 617 C 155 591 141 560 141 523 C 141 501 144 482 152 468 C 160 453 170 441 182 431 C 194 421 208 414 224 408 C 239 402 254 398 270 395 C 292 389 316 384 340 378 C 364 372 384 367 401 363 Z" unicode="Š" />
<glyph horiz-adv-x="449" d="M 321 700 L 366 700 L 271 556 L 197 556 L 101 700 L 147 700 L 234 605 L 321 700 Z M 268 278 C 314 266 351 250 379 230 C 407 210 421 179 421 139 C 421 116 415 95 404 77 C 393 59 379 43 361 31 C 343 18 321 8 297 2 C 273 -4 248 -8 222 -8 C 184 -8 147 1 113 20 C 78 38 50 66 30 102 L 79 138 C 92 115 111 94 135 74 C 159 54 191 44 231 44 C 244 44 258 45 273 48 C 288 51 302 56 315 63 C 327 70 338 79 346 91 C 354 103 359 117 359 134 C 359 156 352 174 338 186 C 324 198 306 208 282 215 C 270 218 253 222 231 227 C 209 232 189 237 171 243 C 126 257 95 275 79 297 C 62 319 54 346 54 376 C 54 396 59 415 69 433 C 79 450 91 464 107 476 C 123 488 142 498 163 505 C 183 512 204 516 225 516 C 261 516 296 508 329 492 C 361 476 387 451 406 415 L 354 381 C 345 399 330 418 309 436 C 287 454 261 463 231 463 C 217 463 203 461 190 458 C 176 454 164 449 153 442 C 142 435 133 426 127 415 C 120 404 117 391 117 376 C 117 355 124 338 138 326 C 152 313 169 304 189 298 C 195 296 206 293 222 289 C 237 285 252 281 268 278 Z" unicode="š" />
<glyph horiz-adv-x="563" d="M 238 853 L 238 768 L 171 768 L 171 853 L 238 853 Z M 405 853 L 405 768 L 338 768 L 338 853 L 405 853 Z M 496 700 L 564 700 L 312 268 L 312 0 L 249 0 L 249 267 L -1 700 L 73 700 L 284 327 L 496 700 Z" unicode="Ÿ" />
<glyph horiz-adv-x="534" d="M 363 884 L 408 884 L 313 742 L 239 742 L 143 884 L 189 884 L 276 791 L 363 884 Z M 511 56 L 511 0 L 20 0 L 20 52 L 436 644 L 43 644 L 43 700 L 511 700 L 511 650 L 92 56 L 511 56 Z" unicode="Ž" />
<glyph horiz-adv-x="408" d="M 299 700 L 344 700 L 249 556 L 175 556 L 79 700 L 125 700 L 212 605 L 299 700 Z M 391 47 L 391 0 L 20 0 L 20 35 L 310 460 L 38 460 L 38 508 L 383 508 L 383 473 L 92 47 L 391 47 Z" unicode="ž" />
<glyph horiz-adv-x="411" d="M 333 684 C 346 684 359 683 373 682 C 387 681 399 680 411 678 L 402 626 C 394 626 383 627 371 629 C 359 630 347 631 335 631 C 316 631 299 626 283 618 C 267 609 258 593 254 571 L 233 446 L 335 446 L 326 400 L 224 400 L 156 15 C 150 -19 134 -47 110 -70 C 85 -93 55 -105 19 -106 C 5 -106 -7 -105 -21 -104 C -35 -103 -47 -102 -59 -100 L -50 -48 C -42 -48 -31 -49 -19 -51 C -7 -52 5 -53 17 -53 C 35 -53 52 -48 68 -40 C 83 -31 93 -15 97 7 L 166 400 L 86 400 L 95 446 L 175 446 L 195 563 C 201 597 216 625 241 648 C 266 671 297 683 333 684 Z" unicode="ƒ" />
<glyph horiz-adv-x="460" d="M 268 700 L 363 556 L 318 556 L 231 651 L 144 556 L 98 556 L 194 700 L 268 700 Z" unicode="ˆ" />
<glyph horiz-adv-x="460" d="M 318 700 L 363 700 L 268 556 L 194 556 L 98 700 L 144 700 L 231 605 L 318 700 Z" unicode="ˇ" />
<glyph horiz-adv-x="460" d="M 368 662 L 368 612 L 92 612 L 92 662 L 368 662 Z" unicode="ˉ" />
<glyph horiz-adv-x="460" d="M 316 700 L 361 700 C 354 653 340 617 320 593 C 299 568 269 556 230 556 C 190 556 159 568 139 594 C 118 620 105 655 99 700 L 144 700 C 146 690 148 681 151 671 C 153 661 157 652 163 644 C 169 634 177 626 188 620 C 198 613 212 610 230 610 C 246 610 260 613 270 619 C 280 625 289 632 295 641 C 300 649 304 659 307 670 C 310 680 313 690 316 700 Z" unicode="˘" />
<glyph horiz-adv-x="460" d="M 261 680 L 261 591 L 198 591 L 198 680 L 261 680 Z" unicode="˙" />
<glyph horiz-adv-x="460" d="M 231 758 C 261 758 285 748 304 729 C 322 709 332 684 332 654 C 332 624 322 599 302 581 C 282 562 258 553 230 553 C 201 553 177 562 157 581 C 137 599 128 624 128 654 C 128 681 137 705 155 726 C 173 747 198 758 231 758 Z M 230 585 C 249 585 263 591 273 605 C 283 618 288 635 288 656 C 288 678 283 695 274 707 C 265 719 250 726 230 726 C 209 726 194 719 185 706 C 176 693 172 676 172 656 C 172 635 176 618 186 605 C 195 591 210 585 230 585 Z" unicode="˚" />
<glyph horiz-adv-x="460" d="M 325 685 L 367 685 C 363 651 353 626 338 609 C 323 591 305 583 284 583 C 274 583 264 584 255 588 C 245 591 237 595 231 600 C 220 608 210 614 200 620 C 190 626 182 629 176 629 C 164 629 154 625 146 618 C 138 611 134 598 134 580 L 94 580 C 96 612 105 637 120 655 C 134 673 153 682 175 682 C 187 682 199 679 209 674 C 219 668 229 662 239 656 C 245 650 253 645 262 641 C 271 637 278 635 284 635 C 297 635 307 639 314 647 C 320 655 324 667 325 685 Z" unicode="˜" />
<glyph horiz-adv-x="544" d="M 511 48 L 511 1 C 503 -1 493 -3 483 -5 C 473 -7 462 -8 452 -8 C 424 -8 401 0 382 17 C 362 33 353 66 353 114 L 353 458 L 172 458 L 172 0 L 115 0 L 115 458 L 37 458 L 37 508 L 503 508 L 503 458 L 410 458 L 410 110 C 410 79 415 60 427 53 C 439 46 451 43 465 43 C 469 43 477 43 488 44 C 498 45 506 46 511 48 Z" unicode="π" />
<glyph horiz-adv-x="570" d="M 481 292 L 481 236 L 89 236 L 89 292 L 481 292 Z" unicode="–" />
<glyph horiz-adv-x="1074" d="M 985 292 L 985 236 L 89 236 L 89 292 L 985 292 Z" unicode="—" />
<glyph horiz-adv-x="1018" d="M 915 56 L 915 0 L 32 0 L 32 56 L 915 56 Z" unicode="―" />
<glyph horiz-adv-x="233" d="M 133 700 L 174 700 L 120 583 L 162 583 L 162 486 L 71 486 L 71 572 L 133 700 Z" unicode="‘" />
<glyph horiz-adv-x="233" d="M 162 700 L 162 615 L 101 486 L 59 486 L 113 603 L 71 603 L 71 700 L 162 700 Z" unicode="’" />
<glyph horiz-adv-x="233" d="M 162 101 L 162 16 L 101 -113 L 59 -113 L 113 4 L 71 4 L 71 101 L 162 101 Z" unicode="‚" />
<glyph horiz-adv-x="388" d="M 133 700 L 174 700 L 120 583 L 162 583 L 162 486 L 71 486 L 71 572 L 133 700 Z M 287 700 L 328 700 L 275 583 L 317 583 L 317 486 L 225 486 L 225 572 L 287 700 Z" unicode="“" />
<glyph horiz-adv-x="388" d="M 162 700 L 162 615 L 101 486 L 59 486 L 113 603 L 71 603 L 71 700 L 162 700 Z M 317 700 L 317 615 L 255 486 L 214 486 L 267 603 L 225 603 L 225 700 L 317 700 Z" unicode="”" />
<glyph horiz-adv-x="388" d="M 162 101 L 162 16 L 101 -113 L 59 -113 L 113 4 L 71 4 L 71 101 L 162 101 Z M 317 101 L 317 16 L 255 -113 L 214 -113 L 267 4 L 225 4 L 225 101 L 317 101 Z" unicode="„" />
<glyph horiz-adv-x="530" d="M 429 549 L 429 476 L 275 500 L 293 366 L 267 6 L 251 6 L 229 366 L 255 500 L 101 476 L 101 549 L 255 521 L 225 700 L 298 700 L 275 521 L 429 549 Z" unicode="†" />
<glyph horiz-adv-x="530" d="M 429 230 L 429 157 L 275 185 L 298 6 L 225 6 L 255 185 L 101 157 L 101 230 L 255 206 L 228 353 L 255 500 L 101 476 L 101 549 L 255 521 L 225 700 L 298 700 L 275 521 L 429 549 L 429 476 L 275 500 L 294 354 L 275 206 L 429 230 Z" unicode="‡" />
<glyph horiz-adv-x="423" d="M 212 544 C 238 544 263 538 287 528 C 310 518 330 504 348 486 C 365 468 379 448 389 425 C 399 401 405 376 405 350 C 405 323 399 298 389 275 C 379 251 365 231 348 213 C 330 195 310 181 287 171 C 263 161 238 156 212 156 C 185 156 160 161 136 171 C 112 181 92 195 75 213 C 57 231 43 251 33 275 C 23 298 18 323 18 350 C 18 376 23 401 33 425 C 43 448 57 468 75 486 C 92 504 112 518 136 528 C 160 538 185 544 212 544 Z" unicode="•" />
<glyph horiz-adv-x="855" d="M 187 99 L 187 0 L 98 0 L 98 99 L 187 99 Z M 472 99 L 472 0 L 383 0 L 383 99 L 472 99 Z M 757 99 L 757 0 L 668 0 L 668 99 L 757 99 Z" unicode="…" />
<glyph horiz-adv-x="1220" d="M 235 684 C 277 684 314 668 346 637 C 377 606 393 569 393 525 C 393 481 377 444 346 413 C 314 382 277 367 235 367 C 191 367 154 382 123 413 C 92 444 77 481 77 525 C 77 569 92 606 123 637 C 154 668 191 684 235 684 Z M 642 672 L 702 672 L 214 0 L 155 0 L 642 672 Z M 234 418 C 262 418 286 428 306 449 C 325 469 335 495 335 526 C 335 557 325 582 306 602 C 286 622 262 632 234 632 C 205 632 181 622 162 602 C 142 582 133 557 133 526 C 133 495 142 469 162 449 C 181 428 205 418 234 418 Z M 623 305 C 665 305 702 289 734 258 C 765 227 781 190 781 146 C 781 102 765 65 734 34 C 702 3 665 -12 623 -12 C 579 -12 542 3 511 34 C 480 65 465 102 465 146 C 465 190 480 227 511 258 C 542 289 579 305 623 305 Z M 990 305 C 1032 305 1069 289 1101 258 C 1132 227 1148 190 1148 146 C 1148 102 1132 65 1101 34 C 1069 3 1032 -12 990 -12 C 946 -12 909 3 878 34 C 847 65 832 102 832 146 C 832 190 847 227 878 258 C 909 289 946 305 990 305 Z M 622 39 C 650 39 674 49 694 70 C 713 90 723 116 723 147 C 723 178 713 203 694 223 C 674 243 650 253 622 253 C 593 253 569 243 550 223 C 530 203 521 178 521 147 C 521 116 530 90 550 70 C 569 49 593 39 622 39 Z M 989 39 C 1017 39 1041 49 1061 70 C 1080 90 1090 116 1090 147 C 1090 178 1080 203 1061 223 C 1041 243 1017 253 989 253 C 960 253 936 243 917 223 C 897 203 888 178 888 147 C 888 116 897 90 917 70 C 936 49 960 39 989 39 Z" unicode="‰" />
<glyph horiz-adv-x="314" d="M 209 448 L 251 420 L 117 268 L 251 117 L 209 89 L 62 252 L 62 285 L 209 448 Z" unicode="‹" />
<glyph horiz-adv-x="314" d="M 252 285 L 252 252 L 105 89 L 63 117 L 197 268 L 63 420 L 105 448 L 252 285 Z" unicode="›" />
<glyph horiz-adv-x="171" d="M 334 711 L 394 711 L -136 -13 L -196 -13 L 334 711 Z" unicode="⁄" />
<glyph horiz-adv-x="570" d="M 345 686 C 398 686 438 677 465 659 C 492 641 516 622 537 602 L 485 566 C 467 585 448 601 428 614 C 408 626 381 633 347 633 C 301 633 263 614 235 576 C 206 538 187 488 178 428 L 391 428 L 391 388 L 172 388 C 171 379 170 370 170 361 C 170 351 170 342 170 333 C 170 322 170 312 170 302 C 170 292 171 282 172 273 L 358 273 L 358 233 L 179 233 C 189 175 209 128 239 94 C 269 59 309 42 359 42 C 389 42 415 51 437 69 C 459 87 476 104 490 121 L 535 83 C 509 55 480 32 450 15 C 419 -1 379 -10 330 -10 C 308 -10 285 -5 263 4 C 241 13 220 27 201 47 C 181 67 164 92 150 123 C 135 154 124 191 118 233 L 45 233 L 45 273 L 113 273 C 112 281 111 291 111 301 C 111 311 111 321 111 331 C 111 341 111 350 111 360 C 111 370 112 379 113 388 L 45 388 L 45 428 L 117 428 C 123 471 134 509 149 542 C 163 574 181 601 201 622 C 221 643 244 659 269 670 C 293 680 319 686 345 686 Z" unicode="€" />
<glyph horiz-adv-x="481" d="M 189 700 L 189 672 L 132 672 L 132 489 L 100 489 L 100 673 L 44 673 L 44 700 L 189 700 Z M 424 700 L 431 489 L 402 489 L 394 668 L 334 489 L 317 489 L 257 667 L 248 489 L 220 489 L 231 700 L 279 700 L 326 550 L 374 700 L 424 700 Z" unicode="™" />
<glyph horiz-adv-x="982" d="M 356 345 L 356 300 L 121 300 L 121 345 L 215 345 L 215 648 L 122 609 L 122 647 C 137 653 150 659 160 665 C 170 670 178 675 186 680 C 193 685 200 690 206 696 C 212 702 220 708 229 715 L 270 715 L 270 345 L 356 345 Z M 731 711 L 791 711 L 261 -13 L 201 -13 L 731 711 Z M 829 205 C 853 196 872 183 885 167 C 897 150 904 131 904 111 C 904 75 889 45 859 21 C 829 -3 788 -16 736 -16 C 706 -16 678 -10 652 1 C 625 12 600 30 576 54 L 613 92 C 628 73 648 58 672 48 C 696 37 718 32 739 32 C 770 32 796 38 818 51 C 839 64 850 84 850 110 C 850 128 841 144 825 158 C 809 171 784 178 750 178 L 682 178 L 682 228 L 747 228 C 773 228 794 234 811 246 C 828 258 837 273 837 293 C 837 313 829 330 813 343 C 797 355 775 362 749 362 C 729 362 709 356 690 345 C 671 334 654 319 640 300 L 598 333 C 620 359 643 379 669 391 C 695 403 721 409 748 409 C 792 409 827 397 853 374 C 879 351 892 323 892 291 C 892 273 886 256 874 242 C 862 228 847 215 829 205 Z" unicode="⅓" />
<glyph horiz-adv-x="982" d="M 409 348 L 409 302 L 106 302 L 106 337 C 139 358 169 378 195 396 C 221 414 244 432 265 449 C 289 469 308 491 324 516 C 340 541 348 564 348 586 C 348 610 340 629 325 643 C 310 657 288 665 259 665 C 232 665 210 657 192 642 C 174 627 156 608 139 586 L 103 625 C 125 651 149 671 175 687 C 201 703 229 711 259 711 C 303 711 338 699 364 676 C 390 652 404 621 404 582 C 404 557 396 533 381 509 C 366 485 341 458 305 426 C 292 415 276 403 258 389 C 239 375 220 362 200 348 L 409 348 Z M 738 711 L 798 711 L 268 -13 L 208 -13 L 738 711 Z M 836 205 C 861 196 880 183 893 167 C 905 150 912 131 912 111 C 912 75 896 45 866 21 C 836 -3 795 -16 743 -16 C 713 -16 685 -10 659 1 C 632 12 606 30 582 54 L 620 92 C 636 73 656 58 680 48 C 704 37 726 32 747 32 C 777 32 803 38 825 51 C 846 64 857 84 857 110 C 857 128 849 144 833 158 C 817 171 792 178 758 178 L 690 178 L 690 228 L 753 228 C 779 228 801 234 819 246 C 836 258 845 273 845 293 C 845 313 837 330 821 343 C 805 355 783 362 756 362 C 736 362 716 356 698 345 C 679 334 662 319 648 300 L 605 333 C 627 359 651 379 677 391 C 702 403 728 409 756 409 C 800 409 834 397 860 374 C 886 351 899 323 899 291 C 899 273 893 256 882 242 C 870 228 855 215 836 205 Z" unicode="⅔" />
<glyph horiz-adv-x="982" d="M 356 345 L 356 300 L 121 300 L 121 345 L 215 345 L 215 648 L 122 609 L 122 647 C 137 653 150 659 160 665 C 170 670 178 675 186 680 C 193 685 200 690 206 696 C 212 702 220 708 229 715 L 270 715 L 270 345 L 356 345 Z M 727 711 L 787 711 L 257 -13 L 197 -13 L 727 711 Z M 758 275 C 802 275 837 261 865 233 C 892 205 906 172 906 134 C 906 114 902 96 894 78 C 886 60 876 44 862 30 C 848 16 831 4 811 -3 C 791 -11 769 -16 745 -16 C 714 -16 685 -10 659 1 C 632 12 606 29 582 53 L 620 92 C 636 73 656 58 680 48 C 704 37 726 32 746 32 C 775 32 800 41 821 59 C 841 77 852 102 852 132 C 852 162 842 186 824 202 C 805 218 782 226 756 226 C 737 226 718 222 698 214 C 678 206 660 191 646 171 L 608 195 L 629 402 L 890 402 L 883 355 L 677 355 L 662 247 C 678 255 693 262 709 267 C 725 272 741 275 758 275 Z" unicode="⅕" />
<glyph horiz-adv-x="982" d="M 409 348 L 409 302 L 106 302 L 106 337 C 139 358 169 378 195 396 C 221 414 244 432 265 449 C 289 469 308 491 324 516 C 340 541 348 564 348 586 C 348 610 340 629 325 643 C 310 657 288 665 259 665 C 232 665 210 657 192 642 C 174 627 156 608 139 586 L 103 625 C 125 651 149 671 175 687 C 201 703 229 711 259 711 C 303 711 338 699 364 676 C 390 652 404 621 404 582 C 404 557 396 533 381 509 C 366 485 341 458 305 426 C 292 415 276 403 258 389 C 239 375 220 362 200 348 L 409 348 Z M 738 711 L 798 711 L 268 -13 L 208 -13 L 738 711 Z M 760 275 C 804 275 839 261 867 233 C 894 205 908 172 908 134 C 908 114 904 96 896 78 C 888 60 878 44 864 30 C 850 16 833 4 813 -3 C 793 -11 771 -16 747 -16 C 716 -16 687 -10 661 1 C 634 12 608 29 584 53 L 622 92 C 638 73 658 58 682 48 C 706 37 728 32 748 32 C 777 32 802 41 823 59 C 843 77 854 102 854 132 C 854 162 844 186 826 202 C 807 218 784 226 758 226 C 739 226 720 222 700 214 C 680 206 662 191 648 171 L 610 195 L 631 402 L 892 402 L 885 355 L 679 355 L 664 247 C 680 255 695 262 711 267 C 727 272 743 275 760 275 Z" unicode="⅖" />
<glyph horiz-adv-x="982" d="M 741 711 L 801 711 L 271 -13 L 211 -13 L 741 711 Z M 335 508 C 360 499 379 486 392 470 C 404 453 411 434 411 414 C 411 378 395 348 365 324 C 335 299 294 287 242 287 C 212 287 184 292 158 304 C 131 315 105 332 81 356 L 119 395 C 134 376 154 361 178 351 C 202 340 225 335 246 335 C 276 335 302 341 323 354 C 344 367 355 387 355 413 C 355 431 347 447 331 460 C 315 473 290 480 256 480 L 189 480 L 189 531 L 252 531 C 278 531 300 537 317 549 C 334 561 343 576 343 596 C 343 616 335 633 319 646 C 303 658 281 665 255 665 C 235 665 215 659 196 648 C 177 636 161 621 147 603 L 104 635 C 126 661 149 681 175 693 C 201 705 227 711 254 711 C 298 711 333 699 359 677 C 385 654 398 626 398 594 C 398 576 392 559 381 545 C 369 531 354 518 335 508 Z M 774 275 C 818 275 853 261 881 233 C 908 205 922 172 922 134 C 922 114 918 96 910 78 C 902 60 892 44 878 30 C 864 16 847 4 827 -3 C 807 -11 785 -16 761 -16 C 730 -16 701 -10 675 1 C 648 12 622 29 598 53 L 636 92 C 652 73 672 58 696 48 C 720 37 742 32 762 32 C 791 32 816 41 837 59 C 857 77 868 102 868 132 C 868 162 858 186 840 202 C 821 218 798 226 772 226 C 753 226 734 222 714 214 C 694 206 676 191 662 171 L 624 195 L 645 402 L 906 402 L 899 355 L 693 355 L 678 247 C 694 255 709 262 725 267 C 741 272 757 275 774 275 Z" unicode="⅗" />
<glyph horiz-adv-x="982" d="M 428 443 L 428 397 L 352 397 L 352 289 L 304 289 L 304 397 L 84 397 L 84 422 L 305 715 L 352 715 L 352 443 L 428 443 Z M 742 711 L 802 711 L 272 -13 L 212 -13 L 742 711 Z M 150 443 L 304 443 L 304 648 L 150 443 Z M 774 275 C 818 275 853 261 881 233 C 908 205 922 172 922 134 C 922 114 918 96 910 78 C 902 60 892 44 878 30 C 864 16 847 4 827 -3 C 807 -11 785 -16 761 -16 C 730 -16 701 -10 675 1 C 648 12 622 29 598 53 L 636 92 C 652 73 672 58 696 48 C 720 37 742 32 762 32 C 791 32 816 41 837 59 C 857 77 868 102 868 132 C 868 162 858 186 840 202 C 821 218 798 226 772 226 C 753 226 734 222 714 214 C 694 206 676 191 662 171 L 624 195 L 645 402 L 906 402 L 899 355 L 693 355 L 678 247 C 694 255 709 262 725 267 C 741 272 757 275 774 275 Z" unicode="⅘" />
<glyph horiz-adv-x="982" d="M 356 345 L 356 300 L 121 300 L 121 345 L 215 345 L 215 648 L 122 609 L 122 647 C 137 653 150 659 160 665 C 170 670 178 675 186 680 C 193 685 200 690 206 696 C 212 702 220 708 229 715 L 270 715 L 270 345 L 356 345 Z M 723 711 L 783 711 L 253 -13 L 193 -13 L 723 711 Z M 740 265 C 786 265 823 252 851 227 C 879 201 893 170 893 132 C 893 110 888 90 879 72 C 870 54 858 38 843 25 C 828 12 811 2 791 -5 C 771 -12 751 -16 730 -16 C 678 -16 638 1 609 37 C 579 72 565 121 565 185 C 565 254 582 309 616 350 C 650 391 693 412 746 412 C 783 412 813 403 836 387 C 859 370 877 349 890 325 L 840 302 C 831 318 819 333 803 346 C 787 358 767 365 743 365 C 707 365 678 351 657 325 C 636 299 623 264 619 222 C 635 234 653 245 673 253 C 693 261 715 265 740 265 Z M 732 31 C 763 31 789 40 809 58 C 829 76 839 101 839 131 C 839 157 829 178 811 194 C 793 210 770 219 742 219 C 713 219 688 213 668 201 C 647 189 630 178 618 167 C 620 119 632 84 655 63 C 677 41 703 31 732 31 Z" unicode="⅙" />
<glyph horiz-adv-x="982" d="M 741 711 L 801 711 L 271 -13 L 211 -13 L 741 711 Z M 275 578 C 319 578 354 564 382 536 C 409 508 423 475 423 437 C 423 417 419 399 411 381 C 403 363 393 347 379 333 C 365 319 348 307 328 299 C 308 291 286 287 262 287 C 231 287 202 292 176 304 C 149 315 123 332 99 356 L 137 395 C 153 376 173 361 197 351 C 221 340 243 335 263 335 C 292 335 317 344 338 362 C 358 380 369 405 369 435 C 369 465 359 489 341 505 C 322 521 299 529 273 529 C 254 529 235 525 215 517 C 195 509 177 494 163 474 L 125 498 L 146 705 L 407 705 L 400 658 L 194 658 L 179 550 C 195 558 210 565 226 570 C 242 575 258 578 275 578 Z M 750 265 C 796 265 833 252 861 227 C 889 201 903 170 903 132 C 903 110 898 90 889 72 C 880 54 868 38 853 25 C 838 12 821 2 801 -5 C 781 -12 761 -16 740 -16 C 688 -16 648 1 619 37 C 589 72 575 121 575 185 C 575 254 592 309 626 350 C 660 391 703 412 756 412 C 793 412 823 403 846 387 C 869 370 887 349 900 325 L 850 302 C 841 318 829 333 813 346 C 797 358 777 365 753 365 C 717 365 688 351 667 325 C 646 299 633 264 629 222 C 645 234 663 245 683 253 C 703 261 725 265 750 265 Z M 742 31 C 773 31 799 40 819 58 C 839 76 849 101 849 131 C 849 157 839 178 821 194 C 803 210 780 219 752 219 C 723 219 698 213 678 201 C 657 189 640 178 628 167 C 630 119 642 84 665 63 C 687 41 713 31 742 31 Z" unicode="⅚" />
<glyph horiz-adv-x="982" d="M 356 345 L 356 300 L 121 300 L 121 345 L 215 345 L 215 648 L 122 609 L 122 647 C 137 653 150 659 160 665 C 170 670 178 675 186 680 C 193 685 200 690 206 696 C 212 702 220 708 229 715 L 270 715 L 270 345 L 356 345 Z M 727 711 L 787 711 L 257 -13 L 197 -13 L 727 711 Z M 820 207 C 850 194 872 179 886 161 C 899 143 906 123 906 102 C 906 88 903 74 897 60 C 891 46 882 33 869 22 C 856 10 839 1 818 -5 C 796 -12 770 -16 740 -16 C 682 -16 640 -4 614 19 C 587 43 574 71 574 104 C 574 124 581 144 596 164 C 611 183 633 199 662 211 C 641 220 624 233 611 250 C 598 267 592 285 592 304 C 592 334 605 360 631 381 C 657 401 694 412 742 412 C 790 412 827 401 853 380 C 878 358 891 333 891 303 C 891 282 884 264 871 248 C 858 232 841 218 820 207 Z M 769 221 C 797 233 815 246 823 262 C 831 277 835 292 835 306 C 835 322 827 336 811 348 C 795 359 771 365 741 365 C 712 365 690 359 674 348 C 658 336 650 322 650 306 C 650 294 653 283 659 273 C 665 263 675 255 689 247 C 697 242 708 237 722 233 C 736 228 751 224 769 221 Z M 743 33 C 777 33 804 39 823 52 C 842 65 852 82 852 102 C 852 114 848 125 841 135 C 833 145 821 154 805 163 C 795 167 782 172 767 178 C 752 183 734 187 714 191 C 682 181 660 169 648 153 C 636 137 630 120 630 102 C 630 80 639 63 659 51 C 679 39 707 33 743 33 Z" unicode="⅛" />
<glyph horiz-adv-x="982" d="M 741 711 L 801 711 L 271 -13 L 211 -13 L 741 711 Z M 836 207 C 866 194 888 179 902 161 C 915 143 922 123 922 102 C 922 88 919 74 913 60 C 907 46 897 33 884 22 C 871 10 854 1 833 -5 C 812 -12 786 -16 756 -16 C 698 -16 656 -4 630 19 C 604 43 591 71 591 104 C 591 124 598 144 613 164 C 628 183 650 199 679 211 C 657 220 640 233 628 250 C 615 267 609 285 609 304 C 609 334 621 360 647 381 C 673 401 710 412 758 412 C 806 412 842 401 868 380 C 894 358 907 333 907 303 C 907 282 900 264 887 248 C 874 232 857 218 836 207 Z M 335 508 C 360 499 379 486 392 470 C 404 453 411 434 411 414 C 411 378 395 348 365 324 C 335 299 294 287 242 287 C 212 287 184 292 158 304 C 131 315 105 332 81 356 L 119 395 C 134 376 154 361 178 351 C 202 340 225 335 246 335 C 276 335 302 341 323 354 C 344 367 355 387 355 413 C 355 431 347 447 331 460 C 315 473 290 480 256 480 L 189 480 L 189 531 L 252 531 C 278 531 300 537 317 549 C 334 561 343 576 343 596 C 343 616 335 633 319 646 C 303 658 281 665 255 665 C 235 665 215 659 196 648 C 177 636 161 621 147 603 L 104 635 C 126 661 149 681 175 693 C 201 705 227 711 254 711 C 298 711 333 699 359 677 C 385 654 398 626 398 594 C 398 576 392 559 381 545 C 369 531 354 518 335 508 Z M 786 221 C 813 233 831 246 839 262 C 847 277 851 292 851 306 C 851 322 843 336 827 348 C 811 359 787 365 757 365 C 727 365 704 359 688 348 C 672 336 664 322 664 306 C 664 294 667 283 673 273 C 679 263 690 255 704 247 C 712 242 723 237 737 233 C 751 228 767 224 786 221 Z M 760 33 C 794 33 820 39 839 52 C 857 65 867 82 867 102 C 867 114 863 125 856 135 C 849 145 837 154 821 163 C 811 167 798 172 783 178 C 768 183 750 187 730 191 C 697 181 675 169 663 153 C 651 137 646 120 646 102 C 646 80 655 63 675 51 C 694 39 722 33 760 33 Z" unicode="⅜" />
<glyph horiz-adv-x="982" d="M 741 711 L 801 711 L 271 -13 L 211 -13 L 741 711 Z M 836 207 C 866 194 888 179 902 161 C 915 143 922 123 922 102 C 922 88 919 74 913 60 C 907 46 897 33 884 22 C 871 10 854 1 833 -5 C 812 -12 786 -16 756 -16 C 698 -16 656 -4 630 19 C 604 43 591 71 591 104 C 591 124 598 144 613 164 C 628 183 650 199 679 211 C 657 220 640 233 628 250 C 615 267 609 285 609 304 C 609 334 621 360 647 381 C 673 401 710 412 758 412 C 806 412 842 401 868 380 C 894 358 907 333 907 303 C 907 282 900 264 887 248 C 874 232 857 218 836 207 Z M 275 578 C 319 578 354 564 382 536 C 409 508 423 475 423 437 C 423 417 419 399 411 381 C 403 363 393 347 379 333 C 365 319 348 307 328 299 C 308 291 286 287 262 287 C 231 287 202 292 176 304 C 149 315 123 332 99 356 L 137 395 C 153 376 173 361 197 351 C 221 340 243 335 263 335 C 292 335 317 344 338 362 C 358 380 369 405 369 435 C 369 465 359 489 341 505 C 322 521 299 529 273 529 C 254 529 235 525 215 517 C 195 509 177 494 163 474 L 125 498 L 146 705 L 407 705 L 400 658 L 194 658 L 179 550 C 195 558 210 565 226 570 C 242 575 258 578 275 578 Z M 786 221 C 813 233 831 246 839 262 C 847 277 851 292 851 306 C 851 322 843 336 827 348 C 811 359 787 365 757 365 C 727 365 704 359 688 348 C 672 336 664 322 664 306 C 664 294 667 283 673 273 C 679 263 690 255 704 247 C 712 242 723 237 737 233 C 751 228 767 224 786 221 Z M 760 33 C 794 33 820 39 839 52 C 857 65 867 82 867 102 C 867 114 863 125 856 135 C 849 145 837 154 821 163 C 811 167 798 172 783 178 C 768 183 750 187 730 191 C 697 181 675 169 663 153 C 651 137 646 120 646 102 C 646 80 655 63 675 51 C 694 39 722 33 760 33 Z" unicode="⅝" />
<glyph horiz-adv-x="982" d="M 712 711 L 772 711 L 242 -13 L 182 -13 L 712 711 Z M 439 705 L 439 668 C 415 637 392 605 369 571 C 346 537 326 502 310 466 C 300 445 290 419 281 389 C 271 358 264 326 260 294 L 202 294 C 206 318 213 345 223 374 C 232 402 242 428 252 451 C 272 497 294 538 317 575 C 340 611 359 639 375 658 L 126 658 L 133 705 L 439 705 Z M 836 207 C 866 194 888 179 902 161 C 915 143 922 123 922 102 C 922 88 919 74 913 60 C 907 46 897 33 884 22 C 871 10 854 1 833 -5 C 812 -12 786 -16 756 -16 C 698 -16 656 -4 630 19 C 604 43 591 71 591 104 C 591 124 598 144 613 164 C 627 183 649 199 678 211 C 657 220 640 233 627 250 C 614 267 608 285 608 304 C 608 334 621 360 647 381 C 673 401 710 412 758 412 C 806 412 843 401 869 380 C 894 358 907 333 907 303 C 907 282 900 264 887 248 C 874 232 857 218 836 207 Z M 785 221 C 813 233 831 246 839 262 C 847 277 851 292 851 306 C 851 322 843 336 827 348 C 811 359 787 365 757 365 C 728 365 705 359 689 348 C 673 336 665 322 665 306 C 665 294 668 284 674 274 C 680 264 689 256 703 248 C 711 242 722 237 736 233 C 750 228 766 224 785 221 Z M 759 33 C 793 33 820 39 839 52 C 858 65 868 82 868 102 C 868 114 864 125 857 135 C 849 145 837 154 821 163 C 811 167 798 172 783 178 C 768 183 750 187 730 191 C 697 181 675 169 663 153 C 651 137 646 120 646 102 C 646 80 655 63 675 51 C 695 39 723 33 759 33 Z" unicode="⅞" />
<glyph horiz-adv-x="300" d="M 305 305 L 305 253 L -5 253 L -5 305 L 305 305 Z" unicode="∂" />
<glyph horiz-adv-x="2900" d="" unicode="∆" />
<glyph horiz-adv-x="523" d="M 262 542 C 297 542 330 535 362 521 C 394 507 421 488 445 464 C 469 440 487 413 501 381 C 515 349 522 315 522 280 C 522 244 515 211 501 179 C 487 147 469 119 445 95 C 421 71 394 53 362 39 C 330 25 297 18 262 18 C 226 18 192 25 160 39 C 128 53 100 71 76 95 C 52 119 34 147 20 179 C 6 211 0 244 0 280 C 0 315 6 349 20 381 C 34 413 52 440 76 464 C 100 488 128 507 160 521 C 192 535 226 542 262 542 Z" unicode="∏" />
<glyph horiz-adv-x="570" d="M 517 292 L 517 237 L 53 237 L 53 292 L 517 292 Z" unicode="−" />
<glyph horiz-adv-x="519" d="M 410 700 L 468 700 L 64 -155 L 6 -155 L 410 700 Z" unicode="∕" />
<glyph horiz-adv-x="305" d="M 152 329 C 168 329 182 323 194 311 C 205 299 211 286 211 271 C 211 255 205 241 194 229 C 182 217 168 212 152 212 C 136 212 122 217 111 229 C 100 241 95 255 95 271 C 95 286 100 299 111 311 C 122 323 136 329 152 329 Z" unicode="∙" />
<glyph horiz-adv-x="760" d="M 641 731 L 695 731 L 443 -28 L 403 -28 L 210 391 L 102 341 L 83 380 L 254 464 L 427 78 L 641 731 Z" unicode="√" />
<glyph horiz-adv-x="811" d="M 581 469 C 628 469 666 451 694 415 C 722 379 737 333 737 276 C 737 208 720 157 688 124 C 655 90 615 74 568 74 C 532 74 500 84 472 105 C 443 125 419 158 399 204 C 376 158 351 124 323 104 C 295 84 264 74 230 74 C 182 74 144 91 116 127 C 88 162 74 208 74 266 C 74 334 90 384 123 418 C 155 452 196 469 244 469 C 279 469 311 458 339 437 C 367 416 392 383 412 339 C 434 384 459 417 487 438 C 515 458 546 469 581 469 Z M 348 218 C 355 231 362 244 369 258 C 376 271 383 286 390 303 C 372 337 351 363 327 381 C 302 398 276 407 250 407 C 211 407 181 394 160 369 C 138 344 128 310 128 266 C 128 230 136 199 153 173 C 170 147 196 135 231 135 C 261 135 285 142 301 157 C 317 171 333 192 348 218 Z M 562 135 C 600 135 629 147 651 172 C 672 197 683 232 683 276 C 683 312 674 342 657 368 C 640 394 614 407 580 407 C 549 407 525 399 509 385 C 492 370 476 350 462 324 C 454 310 446 296 439 281 C 431 265 425 251 421 239 C 438 205 459 179 484 161 C 509 143 535 135 562 135 Z" unicode="∞" />
<glyph horiz-adv-x="580" d="M 313 1504 L 313 -400 L 266 -400 L 266 1504 L 313 1504 Z" unicode="∫" />
<glyph horiz-adv-x="570" d="M 461 451 L 517 451 C 511 396 496 355 474 329 C 451 302 421 289 383 289 C 365 289 348 293 332 301 C 315 309 299 319 284 333 C 279 336 275 339 271 343 C 267 347 264 350 260 353 C 249 361 238 370 226 378 C 214 386 201 391 187 391 C 160 391 141 380 130 358 C 119 336 113 312 111 286 L 55 286 C 59 339 73 379 97 406 C 120 432 151 446 189 446 C 211 446 230 440 248 430 C 265 420 281 408 297 396 C 309 385 322 374 338 362 C 354 350 370 345 386 345 C 399 345 410 348 420 354 C 429 360 436 369 442 379 C 448 389 452 401 455 414 C 458 426 460 439 461 451 Z M 461 249 L 517 249 C 511 194 496 153 474 127 C 451 100 421 87 383 87 C 365 87 348 91 332 99 C 315 107 299 117 284 131 C 279 134 275 137 271 141 C 267 145 264 148 260 151 C 249 159 238 168 226 176 C 214 184 201 189 187 189 C 160 189 141 178 130 156 C 119 134 113 110 111 84 L 55 84 C 59 137 73 177 97 204 C 120 230 151 244 189 244 C 211 244 230 239 247 229 C 264 219 280 208 296 196 C 308 186 322 174 338 162 C 354 149 370 143 386 143 C 399 143 410 146 420 152 C 429 158 436 167 442 177 C 448 187 452 199 455 212 C 458 224 460 237 461 249 Z" unicode="≈" />
<glyph horiz-adv-x="570" d="M 150 0 L 213 157 L 53 157 L 53 212 L 235 212 L 277 316 L 53 316 L 53 371 L 299 371 L 367 541 L 421 541 L 352 371 L 517 371 L 517 316 L 330 316 L 288 212 L 517 212 L 517 157 L 266 157 L 203 0 L 150 0 Z" unicode="≠" />
<glyph horiz-adv-x="570" d="M 518 186 L 518 120 L 52 331 L 52 375 L 518 585 L 518 519 L 137 354 L 518 186 Z M 517 55 L 517 0 L 52 0 L 52 55 L 517 55 Z" unicode="≤" />
<glyph horiz-adv-x="570" d="M 517 375 L 517 331 L 51 120 L 51 186 L 432 354 L 51 519 L 51 585 L 517 375 Z M 517 55 L 517 0 L 52 0 L 52 55 L 517 55 Z" unicode="≥" />
<glyph horiz-adv-x="535" d="M 482 563 L 482 134 L 53 134 L 53 563 L 482 563 Z" unicode="■" />
<glyph horiz-adv-x="586" d="M 293 628 L 566 76 L 20 76 L 293 628 Z" unicode="▲" />
<glyph horiz-adv-x="605" d="M 53 623 L 605 350 L 53 77 L 53 623 Z" unicode="▶" />
<glyph horiz-adv-x="586" d="M 20 617 L 566 617 L 293 65 L 20 617 Z" unicode="▼" />
<glyph horiz-adv-x="605" d="M 552 623 L 552 77 L 0 350 L 552 623 Z" unicode="◀" />
<glyph horiz-adv-x="485" d="M 266 677 L 442 345 L 266 0 L 212 0 L 35 345 L 212 677 L 266 677 Z M 239 49 L 387 345 L 239 628 L 89 345 L 239 49 Z" unicode="◊" />
<glyph horiz-adv-x="756" d="M 378 723 C 428 723 475 713 519 694 C 563 675 602 649 634 617 C 666 585 692 547 711 503 C 730 459 740 412 740 362 C 740 312 730 264 711 220 C 692 176 666 137 634 105 C 602 73 563 47 519 28 C 475 9 428 0 378 0 C 328 0 280 9 236 28 C 192 47 153 73 121 105 C 89 137 63 176 44 220 C 25 264 16 312 16 362 C 16 412 25 459 44 503 C 63 547 89 585 121 617 C 153 649 192 675 236 694 C 280 713 328 723 378 723 Z" unicode="⬤" />
<glyph horiz-adv-x="511" d="M 432 700 L 432 611 L 369 611 L 369 700 L 432 700 Z M 297 699 L 297 647 C 289 647 279 648 267 650 C 255 651 244 652 236 652 C 214 652 195 647 181 639 C 166 630 159 614 159 592 L 159 508 L 261 508 L 261 462 L 159 462 L 159 0 L 102 0 L 102 462 L 22 462 L 22 508 L 102 508 L 102 574 C 102 591 104 607 110 622 C 115 636 122 649 131 660 C 143 674 157 685 174 693 C 190 701 207 705 224 705 C 234 705 246 704 259 703 C 272 702 285 701 297 699 Z M 429 508 L 429 0 L 372 0 L 372 508 L 429 508 Z" unicode="ﬁ" />
<glyph horiz-adv-x="511" d="M 429 700 L 429 0 L 372 0 L 372 700 L 429 700 Z M 297 699 L 297 647 C 289 647 279 648 267 650 C 255 651 244 652 236 652 C 214 652 195 647 181 639 C 166 630 159 614 159 592 L 159 508 L 261 508 L 261 462 L 159 462 L 159 0 L 102 0 L 102 462 L 22 462 L 22 508 L 102 508 L 102 574 C 102 591 104 607 110 622 C 115 636 122 649 131 660 C 143 674 157 685 174 693 C 190 701 207 705 224 705 C 234 705 246 704 259 703 C 272 702 285 701 297 699 Z" unicode="ﬂ" />
</font>
</defs>
</svg>
