<?xml version="1.0" encoding="utf-8" ?><svg version="1.1" xmlns = 'http://www.w3.org/2000/svg'><defs><font id='web' horiz-adv-x="1000">
<font-face font-family="web" descent="-477" x-height="1044" ascent="1571" units-per-em="2048" cap-height="1434" bbox="-541,-379,2404,1904" />
<missing-glyph horiz-adv-x="584" d="" /><glyph horiz-adv-x="496" unicode=" " d="" />
<glyph horiz-adv-x="659" unicode="!" d="M 117 272 L 389 272 L 340 0 L 70 0 L 117 272 Z M 309 1434 L 606 1434 L 336 408 L 217 408 L 309 1434 Z" />
<glyph horiz-adv-x="877" unicode="&#x22;" d="M 238 1434 L 514 1434 L 319 866 L 231 866 L 238 1434 Z M 616 1434 L 893 1434 L 700 866 L 612 866 L 616 1434 Z" />
<glyph horiz-adv-x="1167" unicode="#" d="M 883 911 L 1083 911 L 1075 770 L 864 770 L 829 524 L 1034 524 L 1026 385 L 809 385 L 758 0 L 612 0 L 664 385 L 432 385 L 379 0 L 236 0 L 287 385 L 82 385 L 90 524 L 307 524 L 340 770 L 135 770 L 143 911 L 360 911 L 414 1292 L 559 1292 L 506 911 L 739 911 L 793 1292 L 936 1292 L 883 911 Z M 686 524 L 719 770 L 485 770 L 453 524 L 686 524 Z" />
<glyph horiz-adv-x="1167" unicode="$" d="M 768 1335 C 865 1324 941 1301 996 1266 C 1050 1231 1091 1195 1118 1159 L 977 1026 C 960 1048 932 1075 892 1106 C 852 1137 800 1158 737 1169 L 668 772 C 797 738 891 691 949 631 C 1007 571 1036 502 1036 422 C 1035 293 987 190 891 112 C 795 34 675 -6 530 -12 L 496 -213 L 362 -213 L 399 -8 C 296 3 212 27 148 64 C 83 100 26 151 -23 217 L 137 346 C 164 301 201 262 248 228 C 295 194 356 172 430 162 L 506 586 C 384 614 294 656 235 712 C 176 767 147 836 147 920 C 147 1044 194 1145 289 1221 C 383 1297 499 1337 635 1341 L 666 1509 L 799 1509 L 768 1335 Z M 543 801 L 610 1178 C 550 1171 494 1151 443 1119 C 392 1086 367 1035 367 965 C 367 928 380 896 407 869 C 433 842 479 819 543 801 Z M 559 160 C 639 166 702 188 749 226 C 795 264 819 317 819 387 C 819 425 805 458 777 486 C 749 514 700 538 629 559 L 559 160 Z" />
<glyph horiz-adv-x="1751" unicode="%" d="M 532 1401 C 624 1401 699 1370 758 1308 C 816 1246 846 1173 846 1090 C 846 992 806 904 728 825 C 650 746 559 707 455 707 C 359 707 283 737 226 799 C 169 861 141 932 141 1014 C 141 1120 181 1211 262 1287 C 342 1363 432 1401 532 1401 Z M 461 864 C 519 864 569 885 613 929 C 656 972 678 1024 678 1085 C 678 1131 664 1169 636 1199 C 608 1229 572 1245 528 1245 C 469 1245 418 1223 376 1181 C 333 1138 312 1086 313 1024 C 313 978 326 939 354 909 C 381 879 417 864 461 864 Z M 1300 674 C 1392 674 1467 642 1526 580 C 1584 518 1614 445 1614 362 C 1614 265 1574 177 1496 98 C 1418 19 1327 -20 1223 -20 C 1127 -20 1051 10 994 72 C 937 134 909 205 909 287 C 909 393 949 484 1030 560 C 1110 636 1200 674 1300 674 Z M 1229 137 C 1287 137 1337 158 1381 202 C 1424 245 1446 297 1446 358 C 1446 404 1432 442 1404 472 C 1376 502 1340 518 1296 518 C 1237 518 1186 496 1144 454 C 1101 411 1080 359 1081 297 C 1081 251 1094 212 1122 182 C 1149 152 1185 137 1229 137 Z M 1413 1376 L 1571 1376 L 338 0 L 180 0 L 1413 1376 Z" />
<glyph horiz-adv-x="1395" unicode="&#x26;" d="M 1143 817 L 1327 752 C 1297 679 1255 602 1201 520 C 1147 438 1087 364 1022 299 C 1043 271 1069 248 1101 230 C 1133 212 1175 203 1227 203 C 1233 202 1241 202 1249 203 C 1257 203 1268 204 1282 205 L 1243 -12 C 1227 -14 1215 -16 1206 -17 C 1196 -17 1186 -18 1174 -18 C 1098 -18 1035 -7 983 15 C 931 37 879 75 829 129 C 778 87 717 50 645 20 C 573 -9 496 -25 414 -25 C 288 -22 187 12 110 78 C 32 144 -6 230 -6 336 C -6 445 28 538 96 615 C 164 691 268 757 406 813 C 375 869 353 920 339 966 C 325 1012 319 1056 319 1096 C 319 1196 359 1282 440 1354 C 520 1426 619 1462 737 1462 C 851 1462 939 1433 1002 1376 C 1064 1319 1096 1248 1096 1163 C 1096 1077 1062 1002 996 938 C 929 874 837 820 721 776 C 733 758 764 703 816 609 C 867 515 900 459 915 440 C 965 492 1009 552 1049 621 C 1089 690 1120 755 1143 817 Z M 639 903 C 695 927 747 960 796 1000 C 845 1040 870 1093 870 1157 C 870 1195 856 1227 830 1252 C 804 1277 771 1290 731 1290 C 682 1290 641 1274 609 1244 C 577 1214 561 1174 561 1124 C 561 1091 567 1057 581 1022 C 595 986 614 947 639 903 Z M 457 172 C 505 172 551 180 596 197 C 640 213 683 238 723 272 L 492 674 C 430 643 376 604 330 556 C 283 508 260 449 260 377 C 260 321 277 272 312 232 C 346 192 395 172 457 172 Z" />
<glyph horiz-adv-x="496" unicode="'" d="M 238 1434 L 514 1434 L 319 866 L 231 866 L 238 1434 Z" />
<glyph horiz-adv-x="696" unicode="(" d="M 590 1434 L 754 1434 C 640 1288 551 1143 486 1000 C 420 857 375 713 350 567 C 341 517 334 467 329 418 C 324 368 322 319 322 270 C 322 173 332 77 353 -19 C 373 -115 405 -210 449 -305 L 285 -305 C 225 -205 179 -100 148 10 C 117 120 102 233 102 348 C 102 388 103 427 107 467 C 111 507 116 547 123 588 C 150 740 202 885 280 1023 C 357 1161 460 1298 590 1434 Z" />
<glyph horiz-adv-x="696" unicode=")" d="M 362 1434 C 423 1333 469 1227 499 1116 C 529 1005 545 893 545 780 C 545 741 543 702 540 663 C 536 624 531 585 524 547 C 495 389 442 241 365 103 C 288 -35 185 -171 57 -305 L -109 -305 C 5 -162 95 -18 160 125 C 225 269 271 417 299 567 C 307 613 313 659 317 707 C 321 754 324 801 324 848 C 324 945 313 1042 293 1140 C 273 1238 241 1336 199 1434 L 362 1434 Z" />
<glyph horiz-adv-x="1118" unicode="*" d="M 973 1206 L 999 1010 L 678 1022 L 870 766 L 688 674 L 604 993 L 414 723 L 272 870 L 547 1047 L 236 1143 L 330 1319 L 586 1120 L 582 1446 L 778 1411 L 666 1106 L 973 1206 Z" />
<glyph horiz-adv-x="1167" unicode="+" d="M 1067 649 L 1067 473 L 666 473 L 666 70 L 489 70 L 489 473 L 86 473 L 86 649 L 489 649 L 489 1053 L 666 1053 L 666 649 L 1067 649 Z" />
<glyph horiz-adv-x="584" unicode="," d="M 82 283 L 356 283 L 313 35 L 59 -293 L -51 -293 L 143 4 L 33 4 L 82 283 Z" />
<glyph horiz-adv-x="700" unicode="-" d="M 88 645 L 590 645 L 555 440 L 53 440 L 88 645 Z" />
<glyph horiz-adv-x="584" unicode="." d="M 80 283 L 358 283 L 307 0 L 29 0 L 80 283 Z" />
<glyph horiz-adv-x="1096" unicode="/" d="M 942 1434 L 1122 1434 L -14 -317 L -193 -317 L 942 1434 Z" />
<glyph horiz-adv-x="1167" unicode="0" d="M 678 1399 C 824 1399 933 1349 1005 1249 C 1077 1149 1114 1021 1114 864 C 1114 830 1112 794 1108 757 C 1104 720 1100 683 1094 645 C 1054 420 977 252 864 141 C 751 30 625 -25 485 -25 C 347 -25 240 23 163 119 C 85 215 47 346 47 512 C 47 546 48 581 52 617 C 55 653 60 691 68 731 C 106 947 180 1113 291 1227 C 402 1341 531 1399 678 1399 Z M 838 662 C 846 710 852 757 857 801 C 861 845 864 885 864 922 C 864 1015 848 1087 816 1138 C 784 1188 737 1214 674 1214 C 583 1214 509 1172 453 1089 C 396 1005 353 878 324 707 C 314 657 307 610 303 567 C 299 523 297 485 297 451 C 297 355 312 282 344 233 C 376 184 423 160 485 160 C 571 160 644 198 702 275 C 760 351 805 480 838 662 Z" />
<glyph horiz-adv-x="1167" unicode="1" d="M 666 188 L 913 188 L 881 0 L 129 0 L 162 188 L 424 188 L 584 1098 L 301 1008 L 330 1165 C 419 1205 491 1240 545 1269 C 599 1297 661 1335 733 1382 L 874 1382 L 666 188 Z" />
<glyph horiz-adv-x="1167" unicode="2" d="M 672 1397 C 798 1397 902 1364 984 1300 C 1066 1236 1108 1145 1108 1028 C 1108 922 1075 825 1011 737 C 947 649 842 552 697 446 C 640 404 581 364 521 326 C 461 288 401 249 342 211 L 983 211 L 946 0 L -45 0 L -18 152 C 47 206 116 258 190 308 C 263 357 335 407 406 457 C 441 482 476 509 512 537 C 548 565 583 593 618 621 C 690 679 746 741 788 806 C 829 870 850 935 850 999 C 850 1064 831 1114 793 1148 C 755 1182 706 1200 645 1200 C 565 1200 501 1175 451 1125 C 401 1075 363 1016 336 948 L 125 1018 C 177 1132 248 1224 339 1293 C 430 1362 541 1397 672 1397 Z" />
<glyph horiz-adv-x="1167" unicode="3" d="M 674 1397 C 790 1397 890 1368 974 1311 C 1058 1253 1100 1175 1100 1075 C 1100 989 1070 916 1010 854 C 950 792 874 749 782 723 C 854 703 912 668 956 616 C 1000 564 1022 500 1022 424 C 1022 289 965 180 851 98 C 737 16 605 -25 455 -25 C 341 -25 242 1 157 53 C 72 105 7 185 -39 293 L 168 385 C 196 317 237 263 289 225 C 341 187 403 168 475 168 C 549 168 617 189 677 232 C 737 274 768 336 768 418 C 768 490 742 540 691 568 C 640 596 583 610 520 610 L 356 610 L 389 799 L 561 799 C 628 799 693 818 755 856 C 817 894 848 952 848 1030 C 848 1088 827 1131 785 1161 C 743 1191 695 1206 641 1206 C 569 1206 508 1184 458 1142 C 408 1100 367 1049 336 989 L 143 1075 C 198 1174 271 1252 362 1310 C 453 1368 557 1397 674 1397 Z" />
<glyph horiz-adv-x="1167" unicode="4" d="M 883 512 L 1114 512 L 1081 324 L 850 324 L 791 -6 L 561 -6 L 621 324 L -23 324 L 6 489 L 807 1389 L 1036 1389 L 883 512 Z M 659 512 L 764 1106 L 233 512 L 659 512 Z" />
<glyph horiz-adv-x="1167" unicode="5" d="M 317 1376 L 1133 1376 L 1073 1165 L 463 1165 L 360 815 C 400 840 446 861 498 878 C 550 894 601 903 649 903 C 766 903 862 868 938 800 C 1013 731 1051 637 1051 518 C 1051 357 992 226 876 126 C 759 25 625 -25 475 -25 C 363 -25 264 0 179 51 C 93 102 28 180 -18 285 L 188 379 C 218 313 257 261 306 223 C 355 185 415 166 487 166 C 575 166 648 197 706 259 C 764 321 793 396 793 483 C 793 552 772 607 730 648 C 688 688 632 709 563 709 C 507 709 455 698 407 678 C 359 658 314 630 272 594 L 129 700 L 317 1376 Z" />
<glyph horiz-adv-x="1167" unicode="6" d="M 752 1399 C 855 1399 943 1373 1015 1323 C 1087 1272 1137 1205 1163 1122 L 956 1032 C 939 1082 912 1123 874 1157 C 836 1191 788 1208 731 1208 C 637 1208 558 1173 492 1105 C 426 1037 376 928 340 778 C 392 812 447 840 505 860 C 563 880 627 891 698 891 C 804 891 892 856 962 787 C 1032 718 1067 628 1067 516 C 1067 369 1012 242 904 135 C 796 28 668 -25 520 -25 C 377 -25 264 22 180 116 C 96 210 55 338 55 502 C 55 525 56 552 59 584 C 61 616 66 648 72 680 C 111 901 190 1076 310 1205 C 430 1334 577 1399 752 1399 Z M 512 154 C 600 154 673 187 729 254 C 785 321 813 400 813 492 C 813 556 794 607 757 645 C 720 683 673 702 616 702 C 550 702 491 691 438 669 C 384 647 341 622 307 594 C 303 568 300 544 298 520 C 296 496 295 474 295 453 C 295 355 314 281 352 230 C 390 179 444 154 512 154 Z" />
<glyph horiz-adv-x="1167" unicode="7" d="M 223 1376 L 1217 1376 L 1188 1217 C 993 985 840 776 729 589 C 618 402 536 206 483 0 L 205 0 C 276 215 381 424 521 628 C 660 832 802 1010 948 1163 L 166 1163 L 223 1376 Z" />
<glyph horiz-adv-x="1167" unicode="8" d="M 684 1399 C 826 1399 935 1370 1012 1312 C 1089 1254 1128 1177 1128 1083 C 1128 998 1100 926 1044 867 C 988 808 918 761 836 725 C 910 691 966 646 1004 590 C 1042 534 1061 472 1061 403 C 1061 273 1005 169 894 90 C 783 10 654 -29 506 -29 C 349 -29 227 3 141 67 C 55 131 12 215 12 319 C 12 409 41 484 101 545 C 161 605 244 656 352 698 C 295 728 251 768 220 818 C 189 867 174 921 174 981 C 174 1111 228 1214 337 1288 C 445 1362 561 1399 684 1399 Z M 498 145 C 584 145 658 163 718 200 C 778 237 809 291 809 362 C 809 416 785 465 738 509 C 690 553 610 591 496 621 C 434 599 377 566 325 522 C 273 477 248 417 248 342 C 248 286 269 239 312 201 C 354 163 416 145 498 145 Z M 688 784 C 748 809 798 844 838 888 C 878 932 899 985 899 1047 C 899 1099 880 1141 844 1174 C 808 1206 754 1223 682 1223 C 622 1223 563 1207 506 1176 C 448 1145 420 1093 420 1020 C 420 973 441 929 483 888 C 525 847 593 812 688 784 Z" />
<glyph horiz-adv-x="1167" unicode="9" d="M 639 1399 C 785 1399 899 1350 981 1254 C 1063 1157 1104 1030 1104 872 C 1104 844 1102 815 1099 785 C 1096 755 1092 724 1087 694 C 1048 474 969 299 850 169 C 731 39 586 -25 414 -25 C 310 -25 222 0 149 50 C 76 100 24 166 -6 250 L 201 342 C 221 292 251 250 291 216 C 331 182 380 166 438 166 C 523 166 598 199 664 267 C 730 334 781 444 819 596 C 766 562 712 534 656 514 C 600 493 536 483 463 483 C 357 483 268 517 198 586 C 127 655 92 746 92 858 C 92 1002 145 1128 251 1236 C 357 1344 487 1399 639 1399 Z M 852 780 C 856 805 859 830 861 854 C 863 878 864 900 864 922 C 864 1018 844 1092 805 1144 C 766 1195 715 1221 651 1221 C 557 1221 483 1187 428 1120 C 373 1052 346 973 346 883 C 346 819 364 767 402 729 C 439 691 487 672 545 672 C 607 672 665 683 720 705 C 775 727 819 752 852 780 Z" />
<glyph horiz-adv-x="657" unicode=":" d="M 121 283 L 399 283 L 348 0 L 72 0 L 121 283 Z M 256 1042 L 532 1042 L 483 762 L 205 762 L 256 1042 Z" />
<glyph horiz-adv-x="657" unicode=";" d="M 121 283 L 397 283 L 352 35 L 98 -293 L -12 -293 L 182 4 L 72 4 L 121 283 Z M 256 1042 L 532 1042 L 483 762 L 205 762 L 256 1042 Z" />
<glyph horiz-adv-x="1167" unicode="&#x3C;" d="M 1022 203 L 1022 -8 L 109 504 L 109 627 L 1022 1137 L 1022 926 L 352 565 L 1022 203 Z" />
<glyph horiz-adv-x="1167" unicode="=" d="M 1049 467 L 1049 289 L 113 289 L 113 467 L 1049 467 Z M 1049 846 L 1049 668 L 113 668 L 113 846 L 1049 846 Z" />
<glyph horiz-adv-x="1167" unicode="&#x3E;" d="M 1061 627 L 1061 504 L 147 -8 L 147 203 L 817 565 L 147 926 L 147 1137 L 1061 627 Z" />
<glyph horiz-adv-x="1133" unicode="?" d="M 676 1460 C 809 1460 915 1426 995 1359 C 1074 1292 1114 1212 1114 1118 C 1114 1038 1087 966 1035 902 C 983 838 912 779 823 725 C 757 685 707 649 673 619 C 639 588 613 542 596 481 C 594 475 591 463 588 446 C 584 428 582 416 582 410 L 371 410 C 371 418 374 434 379 459 C 383 483 387 499 389 506 C 408 591 441 660 488 712 C 534 764 596 815 674 866 C 718 896 758 929 793 967 C 827 1004 845 1050 846 1104 C 846 1152 830 1192 797 1223 C 763 1254 716 1270 655 1270 C 593 1270 535 1248 481 1204 C 427 1160 384 1099 354 1022 L 147 1090 C 192 1208 262 1300 356 1364 C 450 1428 557 1460 676 1460 Z M 326 279 L 602 279 L 555 0 L 279 0 L 326 279 Z" />
<glyph horiz-adv-x="1972" unicode="@" d="M 1100 1389 C 1301 1389 1474 1329 1619 1210 C 1764 1091 1837 935 1837 743 C 1837 630 1816 519 1774 411 C 1732 303 1669 216 1587 150 C 1545 116 1497 90 1444 74 C 1390 57 1342 49 1300 49 C 1248 49 1207 62 1177 88 C 1147 114 1127 161 1118 229 C 1075 171 1027 128 975 101 C 923 74 873 61 825 61 C 747 61 684 92 637 154 C 590 216 567 296 567 393 C 567 555 612 696 704 816 C 796 936 903 997 1026 997 C 1080 997 1127 985 1169 962 C 1210 938 1243 893 1268 827 L 1300 965 L 1473 965 L 1327 397 C 1320 371 1315 347 1313 323 C 1310 299 1309 278 1309 262 C 1309 239 1316 221 1332 207 C 1348 193 1368 186 1393 186 C 1482 186 1558 240 1620 350 C 1682 460 1714 584 1714 723 C 1714 891 1653 1025 1531 1124 C 1409 1222 1264 1272 1094 1272 C 856 1272 660 1190 506 1026 C 352 862 276 667 276 442 C 276 240 338 80 463 -37 C 588 -155 751 -215 952 -215 C 1031 -215 1112 -206 1194 -188 C 1276 -170 1359 -142 1444 -106 L 1479 -217 C 1396 -253 1305 -282 1207 -302 C 1108 -322 1012 -332 920 -332 C 690 -332 501 -257 355 -109 C 208 38 135 218 135 430 C 135 699 230 926 420 1111 C 610 1296 836 1389 1100 1389 Z M 1098 356 C 1130 418 1153 477 1167 533 C 1181 589 1188 642 1188 690 C 1188 730 1174 766 1148 796 C 1122 826 1089 842 1049 842 C 1022 842 994 834 965 819 C 935 803 910 782 889 756 C 849 704 819 647 801 586 C 783 524 774 466 774 410 C 774 352 786 307 811 274 C 836 241 870 225 913 225 C 947 225 981 236 1015 260 C 1049 284 1076 316 1098 356 Z" />
<glyph horiz-adv-x="1221" unicode="A" d="M 897 1434 L 1096 0 L 836 0 L 788 369 L 299 369 L 127 0 L -125 0 L 580 1434 L 897 1434 Z M 393 578 L 766 578 L 690 1212 L 393 578 Z" />
<glyph horiz-adv-x="1313" unicode="B" d="M 743 1434 C 883 1434 1006 1409 1112 1360 C 1217 1311 1270 1228 1270 1112 C 1270 1102 1269 1091 1267 1079 C 1265 1067 1264 1055 1262 1044 C 1247 964 1212 898 1157 846 C 1101 794 1028 759 938 741 C 1006 725 1065 691 1115 641 C 1165 590 1190 522 1190 438 C 1190 426 1189 413 1188 399 C 1187 385 1186 372 1184 360 C 1161 238 1105 147 1017 88 C 928 29 817 0 684 0 L 25 0 L 276 1434 L 743 1434 Z M 911 397 C 911 405 912 414 913 423 C 914 431 915 439 915 446 C 915 507 892 554 848 586 C 804 618 744 635 668 635 L 395 635 L 319 199 L 606 199 C 688 199 757 214 811 244 C 865 274 898 325 911 397 Z M 985 1026 C 985 1032 986 1038 987 1045 C 988 1052 989 1059 989 1065 C 988 1117 969 1158 931 1188 C 893 1218 842 1233 778 1233 L 502 1233 L 432 838 L 694 838 C 773 838 838 852 890 880 C 941 908 973 956 985 1026 Z" />
<glyph horiz-adv-x="1247" unicode="C" d="M 764 1460 C 924 1460 1045 1418 1126 1335 C 1206 1252 1247 1131 1249 973 L 993 958 C 995 1052 979 1124 943 1175 C 907 1225 849 1251 768 1251 C 659 1251 568 1202 496 1106 C 424 1010 376 887 352 739 C 346 705 342 671 338 635 C 334 599 332 564 332 530 C 332 432 352 351 393 286 C 433 220 499 188 590 188 C 673 188 746 214 810 267 C 873 320 926 398 969 500 L 1174 434 C 1105 274 1019 157 916 83 C 813 9 701 -27 580 -27 C 410 -27 280 27 190 137 C 100 246 55 389 55 567 C 55 599 56 631 58 664 C 60 696 65 730 72 764 C 107 963 188 1129 314 1261 C 440 1393 590 1460 764 1460 Z" />
<glyph horiz-adv-x="1352" unicode="D" d="M 651 1434 C 864 1434 1026 1384 1137 1286 C 1247 1187 1303 1044 1303 858 C 1303 827 1301 795 1297 762 C 1293 729 1288 696 1284 662 C 1249 466 1168 307 1042 184 C 915 61 751 0 551 0 L 25 0 L 276 1434 L 651 1434 Z M 1006 680 C 1010 707 1014 734 1017 761 C 1020 787 1022 814 1022 840 C 1022 958 993 1052 935 1121 C 877 1190 791 1225 676 1225 L 504 1225 L 326 211 L 514 211 C 650 211 760 250 842 330 C 924 409 978 526 1006 680 Z" />
<glyph horiz-adv-x="1147" unicode="E" d="M 276 1434 L 1200 1434 L 1163 1219 L 500 1219 L 432 834 L 877 834 L 840 618 L 393 618 L 324 215 L 1010 215 L 971 0 L 25 0 L 276 1434 Z" />
<glyph horiz-adv-x="1100" unicode="F" d="M 276 1434 L 1202 1434 L 1167 1219 L 502 1219 L 432 825 L 889 825 L 852 610 L 395 610 L 287 0 L 25 0 L 276 1434 Z" />
<glyph horiz-adv-x="1339" unicode="G" d="M 772 1460 C 928 1460 1048 1418 1132 1336 C 1216 1254 1262 1141 1270 997 L 1012 965 C 1008 1055 986 1126 946 1176 C 905 1226 846 1251 768 1251 C 659 1251 569 1205 498 1115 C 426 1024 378 902 352 748 C 346 712 340 675 335 637 C 330 599 328 562 328 526 C 328 422 349 339 393 278 C 437 216 503 186 592 186 C 681 186 754 206 810 248 C 866 290 905 353 926 438 L 948 537 L 645 537 L 678 721 L 1223 721 L 1098 6 L 985 6 L 948 166 C 904 112 848 67 781 30 C 713 -6 635 -25 547 -25 C 393 -25 272 29 185 138 C 98 246 55 391 55 571 C 55 603 56 635 59 669 C 61 703 66 737 72 772 C 106 972 188 1136 316 1266 C 444 1395 596 1460 772 1460 Z" />
<glyph horiz-adv-x="1358" unicode="H" d="M 1071 1434 L 1335 1434 L 1083 0 L 819 0 L 930 621 L 399 621 L 289 0 L 25 0 L 276 1434 L 541 1434 L 436 836 L 969 836 L 1071 1434 Z" />
<glyph horiz-adv-x="569" unicode="I" d="M 279 1434 L 545 1434 L 293 0 L 27 0 L 279 1434 Z" />
<glyph horiz-adv-x="811" unicode="J" d="M 530 1434 L 795 1434 L 616 410 C 591 271 545 163 479 87 C 412 11 314 -27 186 -27 C 122 -27 65 -21 14 -11 C -36 -1 -79 10 -113 23 L -41 252 C -11 239 18 229 49 223 C 79 216 109 213 139 213 C 206 213 256 233 289 275 C 322 317 346 380 360 465 L 530 1434 Z" />
<glyph horiz-adv-x="1309" unicode="K" d="M 1047 1434 L 1335 1434 L 862 940 L 1192 0 L 920 0 L 662 735 L 365 426 L 289 0 L 25 0 L 276 1434 L 541 1434 L 420 741 L 1047 1434 Z" />
<glyph horiz-adv-x="1051" unicode="L" d="M 328 215 L 940 215 L 903 0 L 25 0 L 276 1434 L 541 1434 L 328 215 Z" />
<glyph horiz-adv-x="1745" unicode="M" d="M 1335 1434 L 1722 1434 L 1470 0 L 1214 0 L 1427 1210 L 811 0 L 645 0 L 463 1212 L 250 0 L 25 0 L 276 1434 L 668 1434 L 819 403 L 1335 1434 Z" />
<glyph horiz-adv-x="1364" unicode="N" d="M 1114 1434 L 1339 1434 L 1087 0 L 877 0 L 444 1085 L 254 0 L 25 0 L 276 1434 L 553 1434 L 940 451 L 1114 1434 Z" />
<glyph horiz-adv-x="1343" unicode="O" d="M 782 1460 C 948 1460 1075 1406 1162 1299 C 1248 1191 1292 1048 1292 868 C 1292 835 1290 802 1287 768 C 1284 734 1280 701 1274 668 C 1236 460 1154 292 1028 164 C 902 36 749 -27 571 -27 C 402 -27 274 26 186 132 C 98 238 55 380 55 557 C 55 591 56 625 59 660 C 62 694 67 730 74 766 C 109 966 190 1132 316 1263 C 442 1394 597 1460 782 1460 Z M 995 696 C 1000 730 1005 767 1010 806 C 1015 845 1018 884 1018 922 C 1018 1019 997 1098 957 1159 C 917 1220 854 1251 770 1251 C 657 1251 565 1203 494 1108 C 423 1012 375 889 350 737 C 344 703 339 667 335 629 C 330 590 328 552 328 516 C 328 419 348 339 388 276 C 428 213 492 182 580 182 C 689 182 779 228 850 322 C 920 415 969 540 995 696 Z" />
<glyph horiz-adv-x="1253" unicode="P" d="M 764 1434 C 924 1434 1050 1401 1141 1335 C 1232 1269 1278 1173 1278 1049 C 1278 1032 1277 1015 1276 998 C 1275 980 1273 962 1270 944 C 1245 814 1182 717 1081 655 C 980 592 860 561 721 561 L 383 561 L 287 0 L 25 0 L 276 1434 L 764 1434 Z M 993 981 C 993 989 994 998 995 1006 C 996 1014 997 1021 997 1028 C 997 1087 976 1135 935 1173 C 894 1210 838 1229 766 1229 L 504 1229 L 422 768 L 694 768 C 778 768 846 784 897 818 C 948 851 980 905 993 981 Z" />
<glyph horiz-adv-x="1343" unicode="Q" d="M 782 1460 C 948 1460 1075 1406 1162 1299 C 1248 1191 1292 1048 1292 868 C 1292 835 1290 802 1287 768 C 1284 734 1280 700 1274 668 C 1251 544 1207 428 1141 320 C 1075 212 991 130 891 74 C 914 34 943 3 979 -16 C 1014 -36 1058 -47 1110 -47 L 1153 -47 L 1116 -268 L 1092 -268 C 970 -268 877 -242 811 -191 C 745 -140 699 -79 672 -8 C 655 -10 638 -11 621 -13 C 604 -15 587 -16 571 -16 C 401 -16 272 35 185 138 C 98 241 55 381 55 557 C 55 591 56 625 59 660 C 62 694 67 730 74 766 C 109 966 190 1132 316 1263 C 442 1394 597 1460 782 1460 Z M 995 696 C 1000 730 1005 767 1010 806 C 1015 845 1018 884 1018 922 C 1018 1019 997 1098 957 1159 C 917 1220 854 1251 770 1251 C 657 1251 565 1203 494 1108 C 423 1012 375 889 350 737 C 344 703 339 667 335 629 C 330 590 328 552 328 516 C 328 410 349 327 392 269 C 435 211 498 182 580 182 C 689 182 779 228 850 322 C 920 415 969 540 995 696 Z" />
<glyph horiz-adv-x="1315" unicode="R" d="M 754 1434 C 896 1434 1020 1405 1126 1349 C 1232 1292 1286 1198 1286 1067 C 1286 1053 1285 1039 1283 1025 C 1281 1011 1280 996 1278 981 C 1263 905 1229 839 1176 783 C 1123 726 1048 683 950 655 L 1112 0 L 840 0 L 705 602 L 391 602 L 287 0 L 25 0 L 276 1434 L 754 1434 Z M 1004 1001 C 1004 1008 1005 1016 1006 1024 C 1007 1032 1008 1039 1008 1047 C 1008 1105 986 1152 942 1186 C 898 1220 840 1237 768 1237 L 506 1237 L 428 805 L 694 805 C 782 805 852 819 904 848 C 956 876 989 927 1004 1001 Z" />
<glyph horiz-adv-x="1188" unicode="S" d="M 696 1460 C 828 1460 933 1437 1009 1393 C 1085 1349 1143 1286 1184 1206 L 977 1071 C 952 1125 917 1168 872 1202 C 826 1236 762 1253 678 1253 C 606 1253 545 1235 493 1199 C 441 1163 416 1111 416 1044 C 416 986 440 942 488 912 C 536 881 611 851 713 823 C 824 791 915 745 987 686 C 1058 626 1094 546 1094 444 C 1094 300 1040 186 932 101 C 824 15 691 -27 535 -27 C 382 -27 261 0 172 52 C 83 104 15 181 -33 283 L 184 412 C 212 341 252 285 306 244 C 360 202 431 182 520 182 C 608 182 681 198 739 232 C 797 265 827 320 827 397 C 827 452 805 493 762 521 C 719 549 650 576 555 604 C 429 640 331 688 261 748 C 191 808 156 887 156 985 C 156 1127 208 1242 312 1329 C 416 1416 544 1460 696 1460 Z" />
<glyph horiz-adv-x="1090" unicode="T" d="M 150 1434 L 1198 1434 L 1163 1219 L 768 1219 L 555 0 L 291 0 L 506 1219 L 113 1219 L 150 1434 Z" />
<glyph horiz-adv-x="1337" unicode="U" d="M 1094 1434 L 1325 1434 L 1167 541 C 1133 353 1069 211 973 116 C 877 20 750 -27 592 -27 C 433 -27 311 9 227 81 C 142 153 100 259 100 401 C 100 427 101 453 103 479 C 105 505 109 531 115 557 L 266 1434 L 530 1434 L 375 549 C 371 528 367 507 365 487 C 363 467 362 446 362 426 C 362 350 381 293 419 254 C 457 214 514 195 592 195 C 689 195 766 225 822 285 C 878 345 917 433 938 549 L 1094 1434 Z" />
<glyph horiz-adv-x="1221" unicode="V" d="M 1087 1434 L 1343 1434 L 612 0 L 358 0 L 129 1434 L 401 1434 L 557 354 L 1087 1434 Z" />
<glyph horiz-adv-x="1833" unicode="W" d="M 1702 1434 L 1939 1434 L 1303 0 L 1081 0 L 975 1022 L 506 0 L 281 0 L 147 1434 L 410 1434 L 489 399 L 952 1434 L 1171 1434 L 1268 406 L 1702 1434 Z" />
<glyph horiz-adv-x="1217" unicode="X" d="M 1044 1434 L 1317 1434 L 748 737 L 1081 0 L 803 0 L 561 543 L 141 0 L -121 0 L 471 737 L 158 1434 L 434 1434 L 657 934 L 1044 1434 Z" />
<glyph horiz-adv-x="1206" unicode="Y" d="M 1073 1434 L 1341 1434 L 723 606 L 616 0 L 354 0 L 455 580 L 121 1434 L 403 1434 L 627 809 L 1073 1434 Z" />
<glyph horiz-adv-x="1126" unicode="Z" d="M 207 1434 L 1208 1434 L 1184 1288 L 293 215 L 1001 215 L 963 0 L -86 0 L -61 143 L 838 1219 L 170 1219 L 207 1434 Z" />
<glyph horiz-adv-x="686" unicode="[" d="M 281 1434 L 733 1434 L 713 1311 L 469 1311 L 207 -182 L 453 -182 L 430 -305 L -27 -305 L 281 1434 Z" />
<glyph horiz-adv-x="1104" unicode="\" d="M 481 1434 L 848 -317 L 674 -317 L 307 1434 L 481 1434 Z" />
<glyph horiz-adv-x="686" unicode="]" d="M 209 1434 L 662 1434 L 356 -305 L -98 -305 L -78 -182 L 168 -182 L 430 1311 L 188 1311 L 209 1434 Z" />
<glyph horiz-adv-x="1167" unicode="^" d="M 680 1460 L 1079 776 L 877 776 L 604 1253 L 332 776 L 129 776 L 528 1460 L 680 1460 Z" />
<glyph horiz-adv-x="1006" unicode="_" d="M -109 -123 L 823 -123 L 801 -242 L -131 -242 L -109 -123 Z" />
<glyph horiz-adv-x="975" unicode="`" d="M 594 1436 L 727 1153 L 568 1153 L 338 1419 L 338 1436 L 594 1436 Z" />
<glyph horiz-adv-x="1036" unicode="a" d="M 539 1063 C 668 1063 765 1041 830 998 C 895 954 928 888 928 799 C 928 785 927 772 925 758 C 923 744 922 731 920 719 L 834 217 C 829 197 826 178 824 158 C 822 138 821 118 821 98 C 821 85 821 71 823 57 C 824 43 827 28 831 14 L 829 0 L 592 0 C 591 8 590 16 590 25 C 590 34 590 43 590 51 C 590 62 590 73 590 85 C 590 96 592 107 594 119 C 551 84 499 52 439 24 C 378 -3 320 -18 264 -18 C 186 -18 120 4 64 48 C 8 92 -20 155 -20 238 C -20 365 34 462 143 530 C 252 598 431 642 680 664 C 682 680 684 696 687 714 C 690 731 692 748 692 766 C 692 811 677 844 649 864 C 620 884 581 895 532 895 C 476 895 430 879 394 848 C 358 817 331 777 313 727 L 104 788 C 148 877 206 945 279 992 C 351 1039 438 1063 539 1063 Z M 608 244 L 657 528 C 498 513 387 483 324 437 C 260 391 229 335 229 268 C 229 227 241 197 266 178 C 290 159 322 150 360 150 C 411 150 455 158 492 174 C 529 190 568 213 608 244 Z" />
<glyph horiz-adv-x="1083" unicode="b" d="M 696 1063 C 789 1063 864 1028 922 959 C 979 889 1008 791 1008 664 C 1008 639 1006 613 1003 585 C 999 557 995 529 991 500 C 960 321 900 190 810 107 C 720 23 622 -18 516 -18 C 433 -18 370 0 326 33 C 282 67 248 112 223 168 L 145 0 L -4 0 C -1 8 5 39 17 92 C 28 144 35 175 37 184 L 256 1434 L 494 1434 L 399 913 C 449 964 499 1002 549 1026 C 599 1050 648 1063 696 1063 Z M 739 489 C 744 519 748 547 751 575 C 754 602 756 627 756 651 C 756 720 743 776 718 820 C 693 863 655 885 604 885 C 564 885 526 877 492 861 C 457 845 419 820 379 786 L 307 385 C 297 329 304 275 328 223 C 352 171 399 145 467 145 C 546 145 606 178 648 244 C 690 310 720 391 739 489 Z" />
<glyph horiz-adv-x="967" unicode="c" d="M 543 1061 C 682 1061 781 1027 840 960 C 899 893 928 810 928 711 L 713 707 C 712 753 703 795 685 835 C 667 875 627 895 563 895 C 481 895 418 863 372 801 C 326 739 295 655 279 551 C 272 520 267 491 265 465 C 263 439 262 414 262 391 C 262 319 276 260 304 216 C 332 172 376 150 438 150 C 509 150 565 171 605 213 C 645 255 680 307 709 367 L 862 299 C 826 205 769 129 691 70 C 612 11 526 -18 432 -18 C 300 -18 198 25 125 111 C 52 197 16 306 16 438 C 16 458 16 479 18 500 C 19 520 22 542 27 565 C 52 719 114 840 212 928 C 310 1016 420 1061 543 1061 Z" />
<glyph horiz-adv-x="1083" unicode="d" d="M 850 1434 L 1087 1434 L 834 0 L 604 0 L 627 135 C 577 85 526 47 476 21 C 425 -5 374 -18 324 -18 C 224 -18 147 18 94 90 C 40 162 14 258 14 379 C 14 405 15 432 18 459 C 20 486 24 514 29 543 C 59 716 115 846 198 933 C 281 1019 378 1063 489 1063 C 555 1063 610 1049 656 1022 C 702 994 736 962 760 924 L 850 1434 Z M 641 260 L 735 793 C 707 822 679 845 651 861 C 623 877 589 885 549 885 C 477 885 418 853 372 791 C 326 729 296 645 281 541 C 276 511 272 483 269 458 C 265 433 264 409 264 387 C 264 313 277 256 305 218 C 333 179 372 160 422 160 C 458 160 493 167 527 182 C 560 197 598 223 641 260 Z" />
<glyph horiz-adv-x="1032" unicode="e" d="M 563 1061 C 696 1061 795 1026 860 956 C 925 886 958 792 958 674 C 958 650 956 625 954 598 C 951 570 946 532 938 483 L 252 483 C 251 470 250 457 250 445 C 250 433 250 422 250 412 C 250 322 268 255 304 213 C 340 171 389 150 453 150 C 525 150 584 166 630 198 C 676 230 717 270 754 317 L 897 229 C 839 155 773 96 697 50 C 621 4 535 -18 440 -18 C 300 -18 194 24 122 110 C 50 195 14 301 14 428 C 14 448 14 469 16 489 C 17 509 20 530 25 553 C 51 705 115 827 217 921 C 319 1014 434 1061 563 1061 Z M 735 627 C 737 641 738 656 740 671 C 742 685 743 699 743 713 C 743 765 730 809 704 844 C 678 879 634 897 571 897 C 489 897 424 873 378 827 C 331 780 297 713 276 627 L 735 627 Z" />
<glyph horiz-adv-x="614" unicode="f" d="M 569 1444 C 603 1444 636 1443 668 1441 C 699 1439 727 1436 752 1434 L 725 1270 C 718 1270 704 1271 682 1273 C 660 1275 643 1276 631 1276 C 590 1276 558 1267 534 1249 C 510 1231 493 1199 485 1155 L 467 1040 L 651 1040 L 623 877 L 440 877 L 289 0 L 53 0 L 205 877 L 53 877 L 84 1044 L 236 1044 L 258 1180 C 272 1266 306 1332 360 1376 C 414 1420 483 1443 569 1444 Z" />
<glyph horiz-adv-x="1057" unicode="g" d="M 823 956 C 867 992 912 1019 958 1037 C 1004 1055 1049 1065 1094 1067 L 1057 856 L 1047 856 C 1031 870 1015 881 997 888 C 979 895 960 899 942 899 C 933 899 921 898 907 896 C 893 894 880 893 870 891 C 880 871 888 850 894 827 C 900 803 903 779 903 754 C 903 743 902 732 902 720 C 902 708 901 697 899 686 C 882 592 835 520 758 470 C 681 420 591 395 487 395 C 453 395 421 398 389 406 C 357 414 331 421 311 428 C 289 423 269 414 250 401 C 230 388 221 368 221 342 C 220 317 229 300 248 292 C 266 283 291 276 322 272 C 338 269 385 263 463 253 C 541 243 590 236 612 233 C 699 219 767 193 817 156 C 866 118 891 66 891 -2 C 891 -110 842 -194 746 -253 C 650 -312 518 -342 350 -342 C 193 -342 75 -320 -5 -276 C -85 -232 -125 -178 -125 -113 C -125 -58 -103 -11 -61 27 C -19 65 36 96 106 119 C 72 134 45 154 25 178 C 5 202 -4 229 -4 260 C -4 308 14 351 52 387 C 90 423 140 453 203 479 C 166 505 137 537 117 575 C 96 612 86 653 86 698 C 86 706 86 715 86 724 C 86 733 88 742 90 752 C 107 848 156 924 237 979 C 318 1033 415 1061 528 1061 C 590 1061 646 1051 697 1033 C 748 1014 790 988 823 956 Z M 678 709 C 678 715 679 723 679 731 C 679 739 680 746 680 754 C 680 800 667 840 641 874 C 615 907 578 924 530 924 C 472 924 423 906 383 872 C 343 838 318 793 309 737 C 308 730 307 723 307 716 C 307 709 307 702 307 696 C 307 649 320 610 347 578 C 373 546 411 530 459 530 C 519 530 568 546 606 579 C 644 611 668 655 678 709 Z M 381 -203 C 472 -203 542 -190 592 -166 C 641 -142 666 -105 666 -55 C 666 -27 656 -5 637 10 C 617 26 582 38 530 45 C 515 45 466 51 383 63 C 299 74 241 82 207 86 C 176 71 148 51 124 27 C 100 2 88 -30 88 -70 C 88 -110 113 -142 162 -166 C 210 -190 283 -203 381 -203 Z" />
<glyph horiz-adv-x="1106" unicode="h" d="M 735 1063 C 816 1063 880 1043 927 1004 C 973 965 997 903 997 819 C 997 801 996 784 994 768 C 992 752 991 735 989 719 L 862 0 L 623 0 L 743 682 C 743 693 745 705 747 717 C 749 729 750 740 750 752 C 750 794 739 824 718 843 C 696 862 665 872 625 872 C 582 872 537 859 491 834 C 445 808 405 783 373 758 L 242 0 L 4 0 L 256 1434 L 494 1434 L 395 889 C 437 929 489 968 549 1006 C 609 1044 671 1063 735 1063 Z" />
<glyph horiz-adv-x="502" unicode="i" d="M 195 1044 L 432 1044 L 248 0 L 10 0 L 195 1044 Z M 262 1438 L 504 1438 L 465 1214 L 223 1214 L 262 1438 Z" />
<glyph horiz-adv-x="516" unicode="j" d="M 211 1044 L 449 1044 L 260 -20 C 240 -129 203 -210 149 -262 C 95 -314 24 -340 -63 -340 C -101 -340 -138 -339 -172 -337 C -206 -335 -235 -332 -260 -328 L -227 -150 C -219 -152 -202 -153 -178 -155 C -154 -157 -134 -158 -119 -158 C -83 -158 -53 -149 -29 -131 C -5 -113 12 -76 23 -20 L 211 1044 Z M 279 1438 L 520 1438 L 481 1214 L 240 1214 L 279 1438 Z" />
<glyph horiz-adv-x="1020" unicode="k" d="M 803 1044 L 1047 1044 L 672 686 L 907 0 L 664 0 L 487 528 L 299 346 L 240 0 L 4 0 L 256 1434 L 492 1434 L 340 578 L 803 1044 Z" />
<glyph horiz-adv-x="502" unicode="l" d="M 262 1434 L 500 1434 L 248 0 L 10 0 L 262 1434 Z" />
<glyph horiz-adv-x="1675" unicode="m" d="M 1331 1063 C 1409 1063 1469 1042 1509 1000 C 1549 958 1569 898 1569 821 C 1569 804 1568 788 1566 772 C 1564 756 1561 739 1559 723 L 1432 0 L 1194 0 L 1315 692 C 1317 703 1318 714 1319 725 C 1320 735 1321 746 1321 758 C 1321 796 1311 825 1293 844 C 1275 862 1246 872 1208 872 C 1167 872 1125 859 1082 834 C 1038 808 1001 783 971 758 L 838 0 L 598 0 L 719 692 C 719 702 720 713 722 724 C 724 734 725 745 725 756 C 725 796 715 825 695 844 C 675 862 646 872 606 872 C 565 872 524 859 483 833 C 441 807 405 782 375 758 L 242 0 L 4 0 L 188 1044 L 422 1044 L 391 885 C 435 927 486 968 543 1006 C 600 1044 661 1063 727 1063 C 796 1063 850 1048 889 1018 C 928 988 955 939 971 872 C 1017 917 1072 960 1135 1001 C 1197 1042 1263 1063 1331 1063 Z" />
<glyph horiz-adv-x="1106" unicode="n" d="M 735 1063 C 816 1063 880 1043 928 1005 C 975 967 999 905 999 821 C 999 803 998 786 996 769 C 994 752 991 735 989 719 L 862 0 L 623 0 L 743 682 C 745 693 747 705 748 717 C 749 729 750 741 750 754 C 750 796 739 826 718 844 C 696 862 665 872 625 872 C 582 872 538 859 492 834 C 446 808 407 783 375 758 L 242 0 L 4 0 L 188 1044 L 422 1044 L 391 883 C 435 925 488 965 548 1004 C 608 1043 671 1063 735 1063 Z" />
<glyph horiz-adv-x="1059" unicode="o" d="M 561 1061 C 693 1061 796 1020 870 939 C 944 857 981 750 981 618 C 981 596 979 574 977 551 C 974 527 971 504 969 481 C 940 315 876 190 777 107 C 678 23 564 -18 436 -18 C 298 -18 193 24 122 108 C 51 192 16 298 16 428 C 16 450 17 474 19 498 C 21 522 24 546 29 571 C 53 719 114 837 210 927 C 306 1016 423 1061 561 1061 Z M 719 504 C 723 532 727 560 730 588 C 733 615 735 641 735 666 C 735 732 721 786 695 830 C 669 873 625 895 563 895 C 481 895 418 864 373 802 C 327 740 295 653 276 541 C 271 511 267 482 264 456 C 261 429 260 404 260 381 C 260 311 273 255 300 213 C 327 171 372 150 434 150 C 511 150 573 180 620 240 C 666 300 699 388 719 504 Z" />
<glyph horiz-adv-x="1085" unicode="p" d="M 698 1063 C 800 1063 876 1025 928 950 C 980 874 1006 777 1006 659 C 1006 634 1005 608 1003 581 C 1001 554 997 527 993 500 C 962 328 906 199 824 112 C 742 25 647 -18 539 -18 C 475 -18 420 -5 374 20 C 328 46 291 80 264 123 L 184 -340 L -53 -340 L 188 1044 L 422 1044 L 397 907 C 453 961 505 1000 553 1025 C 601 1050 649 1063 698 1063 Z M 741 504 C 746 532 750 560 753 587 C 756 613 758 637 758 659 C 758 731 744 787 718 826 C 692 865 653 885 602 885 C 566 885 528 874 490 854 C 452 834 415 808 379 778 L 287 252 C 313 222 342 200 373 184 C 404 168 438 160 475 160 C 550 160 609 192 652 257 C 694 322 724 404 741 504 Z" />
<glyph horiz-adv-x="1083" unicode="q" d="M 872 1044 L 1022 1044 C 1019 1036 1012 1003 1002 947 C 991 890 985 858 985 852 L 774 -340 L 537 -340 L 618 127 C 564 77 512 40 464 17 C 416 -6 368 -18 322 -18 C 228 -18 153 17 97 89 C 41 161 14 259 14 385 C 14 410 15 436 17 463 C 19 490 23 519 29 549 C 59 727 119 857 209 939 C 299 1021 399 1063 510 1063 C 589 1063 650 1047 694 1016 C 737 984 772 939 799 881 L 872 1044 Z M 641 248 L 713 664 C 725 731 715 787 685 831 C 654 875 610 897 553 897 C 483 897 425 867 379 807 C 333 747 301 661 283 549 C 277 518 273 489 270 462 C 267 435 266 409 266 385 C 266 319 277 265 300 223 C 323 181 362 160 416 160 C 456 160 493 167 528 181 C 563 195 601 217 641 248 Z" />
<glyph horiz-adv-x="750" unicode="r" d="M 381 831 C 441 900 505 955 575 995 C 645 1035 716 1057 788 1059 L 741 803 L 731 803 C 711 807 691 811 670 813 C 649 815 631 817 616 817 C 558 817 507 803 464 777 C 420 750 387 726 365 705 L 242 0 L 4 0 L 188 1044 L 420 1044 L 381 831 Z" />
<glyph horiz-adv-x="930" unicode="s" d="M 498 1061 C 604 1061 686 1041 746 1002 C 806 962 850 907 879 836 L 707 754 C 691 798 667 832 634 858 C 600 884 556 897 500 897 C 443 897 397 884 361 860 C 325 836 307 802 307 758 C 307 722 323 695 356 678 C 388 661 436 644 498 627 C 607 595 689 558 745 514 C 801 470 829 410 829 334 C 829 226 785 141 697 77 C 609 13 504 -18 381 -18 C 269 -18 178 2 110 43 C 41 84 -10 145 -45 227 L 127 313 C 145 265 174 225 213 195 C 251 165 305 150 375 150 C 443 150 498 161 540 184 C 581 207 602 241 602 287 C 602 323 587 350 557 369 C 527 387 474 407 397 428 C 285 457 204 494 154 540 C 103 585 78 643 78 715 C 78 815 119 897 202 963 C 284 1028 383 1061 498 1061 Z" />
<glyph horiz-adv-x="705" unicode="t" d="M 481 1044 L 717 1044 L 686 877 L 451 877 L 352 313 C 350 303 348 293 347 283 C 346 273 346 264 346 256 C 346 215 357 190 381 180 C 405 170 434 166 469 166 C 484 166 500 166 517 168 C 534 170 551 172 567 174 L 539 6 C 505 0 471 -6 439 -11 C 407 -15 374 -18 340 -18 C 262 -18 203 -1 163 33 C 122 67 102 118 102 186 C 102 198 102 211 104 223 C 105 235 107 248 111 260 L 215 877 L 53 877 L 86 1044 L 250 1044 L 334 1376 L 537 1376 L 481 1044 Z" />
<glyph horiz-adv-x="1085" unicode="u" d="M 784 1044 L 1020 1044 L 838 0 L 606 0 L 635 162 C 589 119 536 78 478 40 C 420 1 358 -18 293 -18 C 211 -18 148 4 104 48 C 59 92 37 155 37 236 C 37 250 37 264 39 279 C 40 293 42 308 45 324 L 172 1044 L 412 1044 L 291 360 C 289 348 287 336 285 324 C 283 312 283 301 283 289 C 283 247 293 217 315 199 C 336 181 367 172 408 172 C 454 172 497 184 538 208 C 579 232 617 259 651 287 L 784 1044 Z" />
<glyph horiz-adv-x="932" unicode="v" d="M 786 1044 L 987 1044 L 434 0 L 254 0 L 66 1044 L 305 1044 L 412 295 L 786 1044 Z" />
<glyph horiz-adv-x="1403" unicode="w" d="M 1257 1044 L 1448 1044 L 956 0 L 788 0 L 715 727 L 377 0 L 201 0 L 72 1044 L 303 1044 L 365 326 L 696 1044 L 870 1044 L 944 322 L 1257 1044 Z" />
<glyph horiz-adv-x="958" unicode="x" d="M 768 1044 L 991 1044 L 569 526 L 819 0 L 578 0 L 403 379 L 102 0 L -119 0 L 328 541 L 86 1044 L 332 1044 L 492 690 L 768 1044 Z" />
<glyph horiz-adv-x="930" unicode="y" d="M 786 1044 L 985 1044 L 422 -39 C 362 -153 301 -231 239 -275 C 176 -318 108 -340 35 -340 C 1 -340 -28 -338 -53 -335 C -78 -332 -103 -328 -129 -322 L -98 -139 C -77 -145 -58 -150 -42 -152 C -25 -154 -9 -156 6 -156 C 57 -156 105 -143 149 -117 C 193 -91 225 -42 246 31 C 246 35 227 143 189 353 C 151 563 110 794 66 1044 L 301 1044 L 412 281 L 786 1044 Z" />
<glyph horiz-adv-x="854" unicode="z" d="M 127 1044 L 877 1044 L 852 913 L 223 166 L 731 166 L 705 0 L -84 0 L -61 137 L 561 874 L 96 874 L 127 1044 Z" />
<glyph horiz-adv-x="791" unicode="{" d="M 723 1434 L 827 1434 L 807 1315 L 754 1315 C 694 1315 650 1299 622 1268 C 594 1237 574 1190 563 1126 L 518 879 C 501 789 468 717 420 665 C 371 612 302 578 213 563 C 290 552 346 520 381 466 C 416 412 426 340 410 252 L 367 2 C 354 -62 356 -109 374 -140 C 392 -170 430 -186 489 -186 L 543 -186 L 522 -305 L 418 -305 C 326 -305 253 -279 200 -228 C 147 -176 131 -94 152 18 L 201 299 C 211 362 208 411 194 447 C 180 482 143 500 84 500 L 31 500 L 53 631 L 106 631 C 165 631 208 648 236 682 C 264 716 283 765 295 829 L 344 1112 C 365 1238 407 1324 471 1368 C 535 1412 619 1434 723 1434 Z" />
<glyph horiz-adv-x="623" unicode="|" d="M 399 1434 L 399 -317 L 223 -317 L 223 1434 L 399 1434 Z" />
<glyph horiz-adv-x="791" unicode="}" d="M 655 631 L 711 631 L 688 500 L 633 500 C 575 500 532 482 504 447 C 476 411 456 362 446 299 L 397 18 C 375 -102 335 -185 276 -233 C 216 -281 130 -305 18 -305 L -88 -305 L -68 -186 L -14 -186 C 46 -186 90 -170 119 -140 C 147 -109 167 -62 178 2 L 223 252 C 239 347 274 420 326 471 C 378 521 444 552 524 563 C 448 576 393 609 359 663 C 324 717 315 789 332 879 L 377 1126 C 387 1190 384 1237 367 1268 C 349 1299 312 1315 254 1315 L 201 1315 L 219 1434 L 324 1434 C 427 1434 502 1406 548 1350 C 594 1294 608 1214 590 1112 L 541 829 C 529 765 531 716 546 682 C 560 648 597 631 655 631 Z" />
<glyph horiz-adv-x="1167" unicode="~" d="M 895 768 L 1063 768 C 1058 653 1032 556 986 478 C 940 399 871 360 780 360 C 730 360 687 371 651 395 C 615 418 583 445 553 475 C 524 504 498 530 474 553 C 450 576 423 588 391 588 C 348 588 318 566 302 523 C 286 480 277 424 276 356 L 109 356 C 111 471 136 568 182 646 C 228 724 298 764 391 764 C 446 764 492 751 528 726 C 564 700 597 673 627 643 C 651 619 675 595 699 571 C 723 547 749 535 778 535 C 822 535 852 557 868 602 C 884 647 893 702 895 768 Z" />
<glyph horiz-adv-x="496" unicode=" " d="" />
<glyph horiz-adv-x="659" unicode="¡" d="M 270 719 L 391 719 L 299 -315 L 2 -315 L 270 719 Z M 266 1118 L 537 1118 L 489 846 L 219 846 L 266 1118 Z" />
<glyph horiz-adv-x="1167" unicode="¢" d="M 760 1182 C 868 1164 944 1124 986 1061 C 1028 997 1050 927 1051 850 L 831 844 C 832 882 824 923 807 965 C 789 1007 746 1028 676 1028 C 582 1028 514 994 470 926 C 426 858 395 779 379 690 C 374 666 370 643 368 621 C 366 599 365 578 365 559 C 365 495 379 441 408 395 C 437 349 487 326 557 326 C 630 326 688 347 731 391 C 773 434 805 480 827 528 L 987 471 C 951 390 898 321 828 263 C 758 205 676 172 582 166 L 541 -66 L 401 -66 L 442 172 C 335 191 255 239 203 315 C 151 391 125 481 125 586 C 125 605 125 625 127 647 C 128 668 131 689 135 711 C 157 837 212 946 300 1037 C 388 1128 495 1178 623 1188 L 659 1391 L 799 1391 L 760 1182 Z" />
<glyph horiz-adv-x="1167" unicode="£" d="M 745 1399 C 858 1399 950 1383 1021 1353 C 1092 1323 1151 1279 1198 1221 L 1018 1077 C 990 1114 955 1145 913 1169 C 871 1193 822 1206 764 1206 C 682 1206 620 1182 579 1134 C 538 1086 518 1022 518 942 C 518 908 518 874 520 840 C 522 806 524 769 526 729 L 866 729 L 844 596 L 524 596 C 521 538 510 480 492 421 C 474 361 449 306 418 254 C 445 233 479 215 519 199 C 559 183 603 176 649 176 C 695 176 740 188 785 212 C 829 236 872 277 913 336 L 1067 209 C 1005 123 940 63 873 28 C 806 -7 740 -25 674 -25 C 592 -25 521 -11 460 14 C 398 40 345 75 301 119 C 257 79 206 46 148 20 C 90 -5 27 -20 -43 -25 L -6 178 C 90 191 160 232 206 302 C 251 371 275 465 279 584 L 279 596 L 80 596 L 102 729 L 272 729 C 269 759 266 790 263 822 C 259 853 258 885 258 918 C 258 1054 303 1168 395 1260 C 486 1352 603 1399 745 1399 Z" />
<glyph horiz-adv-x="1167" unicode="¤" d="M 786 1403 C 878 1403 960 1386 1032 1352 C 1103 1318 1160 1273 1202 1219 L 1030 1077 C 1004 1113 970 1144 928 1172 C 886 1200 836 1214 778 1214 C 708 1214 645 1187 590 1133 C 535 1079 491 999 457 893 L 854 893 L 831 766 L 422 766 C 420 755 418 744 416 733 C 414 721 412 710 410 700 C 406 681 403 662 400 642 C 397 622 395 603 395 584 L 731 584 L 709 459 L 391 459 C 396 363 418 290 457 240 C 495 189 553 164 629 164 C 677 164 728 178 782 208 C 836 238 880 269 913 301 L 1030 147 C 966 93 901 50 833 20 C 765 -9 687 -25 600 -25 C 466 -25 361 17 287 101 C 212 185 171 304 164 459 L 6 459 L 27 584 L 166 584 C 166 605 168 626 170 648 C 172 670 176 691 180 713 C 180 715 182 724 185 739 C 187 754 189 763 190 766 L 59 766 L 82 893 L 225 893 C 273 1049 346 1173 442 1265 C 538 1357 653 1403 786 1403 Z" />
<glyph horiz-adv-x="1167" unicode="¥" d="M 1004 1376 L 1245 1376 L 821 776 L 1079 776 L 1057 647 L 741 647 L 680 553 L 664 467 L 1024 467 L 1001 340 L 643 340 L 584 0 L 344 0 L 403 340 L 45 340 L 70 467 L 428 467 L 442 551 L 412 647 L 100 647 L 123 776 L 373 776 L 156 1376 L 418 1376 L 604 764 L 1004 1376 Z" />
<glyph horiz-adv-x="1167" unicode="§" d="M 690 1401 C 781 1401 859 1387 925 1360 C 991 1332 1043 1296 1081 1251 L 944 1122 C 916 1156 880 1185 838 1207 C 796 1229 748 1241 696 1241 C 644 1241 599 1229 563 1205 C 526 1181 508 1148 508 1104 C 508 1068 523 1038 555 1015 C 587 991 643 961 725 924 C 825 878 899 831 945 783 C 991 735 1014 683 1014 625 C 1014 560 991 501 947 448 C 903 394 844 349 772 313 C 800 286 820 259 831 232 C 842 204 848 177 848 150 C 848 60 807 -16 726 -79 C 644 -142 550 -174 442 -174 C 346 -174 266 -160 201 -133 C 136 -105 85 -71 47 -29 L 184 104 C 206 77 239 51 282 26 C 324 0 376 -12 438 -12 C 491 -12 536 0 572 24 C 608 48 627 83 627 127 C 627 161 611 190 579 212 C 547 234 491 265 410 303 C 308 349 234 396 189 444 C 143 491 121 544 121 604 C 121 670 143 730 188 783 C 233 835 290 879 360 913 C 332 941 313 968 303 995 C 292 1022 287 1050 287 1079 C 287 1170 327 1246 409 1308 C 491 1370 584 1401 690 1401 Z M 678 383 C 718 405 751 432 778 465 C 805 497 819 533 819 571 C 819 609 801 644 767 674 C 733 704 676 737 598 772 C 568 785 542 797 519 809 C 495 821 474 833 455 846 C 414 823 381 795 355 763 C 329 730 317 695 317 657 C 317 614 334 579 368 551 C 402 523 457 492 535 457 C 562 443 588 430 614 417 C 640 404 661 393 678 383 Z" />
<glyph horiz-adv-x="975" unicode="¨" d="M 313 1403 L 518 1403 L 479 1186 L 275 1186 L 313 1403 Z M 703 1403 L 909 1403 L 871 1186 L 666 1186 L 703 1403 Z" />
<glyph horiz-adv-x="1583" unicode="©" d="M 997 592 L 1137 559 C 1114 476 1074 412 1017 367 C 960 321 890 299 807 299 C 751 299 699 309 652 331 C 604 352 564 383 532 424 C 503 460 482 501 469 548 C 455 594 449 647 449 707 C 449 767 457 823 474 875 C 490 926 517 971 553 1010 C 584 1042 622 1068 666 1086 C 710 1104 759 1114 813 1114 C 901 1114 972 1090 1027 1043 C 1082 996 1116 933 1130 854 L 956 836 C 952 874 939 907 915 934 C 891 961 857 975 813 975 C 774 975 742 964 718 944 C 694 923 676 896 664 862 C 656 839 651 814 647 787 C 643 760 641 732 641 702 C 641 671 643 642 647 616 C 651 590 656 567 664 549 C 676 513 696 485 723 467 C 750 449 783 440 821 440 C 866 440 903 453 933 479 C 962 505 983 543 997 592 Z M 793 1415 C 986 1415 1152 1345 1291 1207 C 1429 1068 1499 901 1499 707 C 1499 513 1429 346 1291 208 C 1152 69 986 0 793 0 C 597 0 431 69 293 208 C 155 346 86 513 86 707 C 86 901 155 1068 293 1207 C 431 1345 597 1415 793 1415 Z M 793 100 C 959 100 1102 159 1221 279 C 1339 398 1399 541 1399 707 C 1399 874 1339 1017 1221 1136 C 1102 1255 959 1315 793 1315 C 625 1315 482 1255 363 1136 C 243 1017 184 874 184 707 C 184 541 243 398 363 279 C 482 159 625 100 793 100 Z" />
<glyph horiz-adv-x="897" unicode="ª" d="M 532 1397 C 634 1397 710 1379 760 1345 C 810 1310 836 1258 836 1188 C 836 1177 835 1166 834 1156 C 833 1146 831 1135 829 1124 L 764 752 C 762 737 760 722 758 707 C 756 692 756 678 756 664 C 756 652 756 641 757 630 C 758 618 760 608 762 598 L 760 580 L 569 580 C 568 588 567 596 567 604 C 567 612 567 619 567 627 C 567 633 567 639 567 645 C 567 651 568 657 569 664 C 536 639 498 616 454 596 C 410 575 368 565 328 565 C 268 565 216 582 172 618 C 128 654 106 704 106 770 C 106 867 146 941 227 993 C 308 1045 445 1078 637 1094 C 639 1106 640 1117 642 1128 C 644 1139 645 1151 645 1163 C 645 1199 633 1223 610 1236 C 587 1248 560 1255 528 1255 C 486 1255 452 1243 426 1219 C 400 1195 381 1164 367 1126 L 195 1176 C 229 1247 274 1302 331 1340 C 387 1378 454 1397 532 1397 Z M 582 776 L 618 977 C 518 970 441 951 387 921 C 333 891 307 849 307 795 C 307 765 315 742 332 728 C 349 714 371 707 399 707 C 437 707 469 712 496 724 C 523 736 552 753 582 776 Z" />
<glyph horiz-adv-x="1087" unicode="«" d="M 485 950 L 604 848 L 270 541 L 496 233 L 344 150 L 78 504 L 94 596 L 485 950 Z M 901 950 L 1018 848 L 684 541 L 911 233 L 760 150 L 494 504 L 510 596 L 901 950 Z" />
<glyph horiz-adv-x="1167" unicode="¬" d="M 1051 670 L 1051 90 L 868 90 L 868 494 L 86 494 L 86 670 L 1051 670 Z" />
<glyph horiz-adv-x="700" unicode="­" d="M 88 645 L 590 645 L 555 440 L 53 440 L 88 645 Z" />
<glyph horiz-adv-x="1042" unicode="®" d="M 655 893 L 745 694 L 645 694 L 563 881 L 481 881 L 481 694 L 389 694 L 389 1174 L 584 1174 C 624 1174 660 1161 694 1137 C 728 1112 745 1076 745 1030 C 745 999 737 972 722 948 C 707 924 685 905 655 893 Z M 561 1382 C 682 1382 786 1338 873 1252 C 960 1165 1004 1061 1004 940 C 1004 818 960 715 873 629 C 786 543 682 500 561 500 C 438 500 333 543 247 629 C 160 715 117 818 117 940 C 117 1061 160 1165 247 1252 C 333 1338 438 1382 561 1382 Z M 561 561 C 665 561 754 598 828 672 C 902 746 940 835 940 940 C 940 1044 902 1134 828 1209 C 754 1283 665 1321 561 1321 C 456 1321 366 1283 292 1209 C 217 1134 180 1044 180 940 C 180 835 217 746 292 672 C 366 598 456 561 561 561 Z M 575 973 C 588 973 603 977 619 986 C 635 994 643 1008 643 1028 C 643 1047 636 1061 623 1070 C 609 1078 594 1083 578 1083 L 481 1083 L 481 973 L 575 973 Z" />
<glyph horiz-adv-x="975" unicode="¯" d="M 301 1376 L 913 1376 L 887 1239 L 274 1239 L 301 1376 Z" />
<glyph horiz-adv-x="1022" unicode="°" d="M 612 1446 C 709 1446 787 1415 846 1353 C 904 1291 934 1218 934 1135 C 934 1037 896 948 820 868 C 744 788 653 748 547 748 C 449 748 372 778 314 839 C 256 900 227 972 227 1055 C 227 1163 266 1256 345 1332 C 423 1408 512 1446 612 1446 Z M 557 907 C 613 907 661 927 703 967 C 745 1007 766 1056 766 1116 C 766 1167 752 1209 724 1241 C 696 1273 658 1290 610 1290 C 553 1290 503 1270 461 1231 C 418 1191 397 1140 397 1077 C 397 1030 411 990 440 957 C 469 923 508 907 557 907 Z" />
<glyph horiz-adv-x="1167" unicode="±" d="M 1057 827 L 1057 651 L 666 651 L 666 295 L 489 295 L 489 651 L 96 651 L 96 827 L 489 827 L 489 1184 L 666 1184 L 666 827 L 1057 827 Z M 1057 176 L 1057 0 L 96 0 L 96 176 L 1057 176 Z" />
<glyph horiz-adv-x="983" unicode="²" d="M 604 1460 C 695 1460 766 1437 818 1391 C 869 1345 895 1287 895 1217 C 895 1146 871 1088 824 1044 C 776 1000 724 957 666 915 C 631 889 589 863 539 836 C 489 809 443 784 401 762 L 821 762 L 795 614 L 139 614 L 158 731 C 227 775 289 814 343 848 C 397 882 448 916 496 952 C 534 980 577 1017 627 1061 C 677 1105 702 1155 702 1212 C 702 1244 692 1270 672 1290 C 652 1310 622 1321 584 1321 C 536 1321 492 1309 453 1286 C 414 1262 378 1236 346 1206 L 264 1327 C 321 1371 377 1405 432 1427 C 486 1449 544 1460 604 1460 Z" />
<glyph horiz-adv-x="985" unicode="³" d="M 600 1460 C 693 1460 765 1439 817 1397 C 869 1355 895 1305 895 1245 C 895 1193 875 1151 836 1120 C 797 1088 753 1065 705 1051 C 742 1038 776 1014 807 978 C 838 942 854 900 854 852 C 854 765 813 700 732 657 C 651 613 571 592 492 592 C 404 592 330 605 271 631 C 212 657 163 696 125 748 L 268 838 C 290 804 320 777 357 757 C 393 737 436 727 485 727 C 521 727 559 737 600 758 C 641 779 662 814 662 862 C 662 898 648 925 620 942 C 592 958 556 967 510 967 L 418 967 L 442 1104 L 528 1104 C 568 1104 607 1112 646 1129 C 685 1146 705 1179 705 1227 C 705 1254 695 1277 675 1295 C 655 1313 624 1323 584 1323 C 542 1323 502 1313 464 1294 C 426 1275 393 1253 367 1229 L 276 1341 C 335 1388 392 1420 446 1436 C 500 1452 551 1460 600 1460 Z" />
<glyph horiz-adv-x="975" unicode="´" d="M 637 1436 L 904 1436 L 901 1419 L 576 1153 L 408 1153 L 637 1436 Z" />
<glyph horiz-adv-x="1159" unicode="¶" d="M 688 1434 L 1157 1434 L 877 -168 L 723 -168 L 981 1296 L 829 1296 L 571 -168 L 418 -168 L 567 674 C 427 674 322 703 250 763 C 178 823 143 901 143 999 C 143 1012 143 1025 145 1038 C 147 1051 149 1065 152 1079 C 175 1215 238 1308 340 1358 C 442 1408 558 1434 688 1434 Z M 592 823 L 676 1296 C 608 1296 555 1279 517 1245 C 479 1211 453 1156 440 1081 C 437 1067 435 1053 435 1040 C 434 1026 434 1014 434 1004 C 434 952 446 912 471 882 C 495 852 536 832 592 823 Z" />
<glyph horiz-adv-x="563" unicode="·" d="M 164 815 L 440 815 L 389 532 L 113 532 L 164 815 Z" />
<glyph horiz-adv-x="975" unicode="¸" d="M 375 -78 C 419 -84 451 -100 471 -127 C 490 -154 500 -182 500 -211 C 500 -263 477 -304 433 -334 C 388 -364 339 -379 287 -379 C 253 -379 223 -376 197 -371 C 171 -366 142 -356 111 -342 L 158 -250 C 177 -260 194 -268 209 -273 C 224 -278 239 -281 254 -281 C 274 -281 296 -275 319 -263 C 342 -251 354 -229 354 -199 C 354 -176 344 -158 325 -145 C 306 -131 277 -123 238 -121 L 315 6 L 412 6 L 375 -78 Z" />
<glyph horiz-adv-x="864" unicode="¹" d="M 553 748 L 717 748 L 692 610 L 180 610 L 205 748 L 379 748 L 469 1255 L 287 1204 L 305 1319 C 365 1344 414 1366 453 1386 C 492 1405 534 1428 580 1456 L 678 1456 L 553 748 Z" />
<glyph horiz-adv-x="932" unicode="º" d="M 551 1397 C 653 1397 733 1365 791 1301 C 848 1237 877 1153 877 1051 C 877 1034 875 1017 873 999 C 871 981 868 963 866 946 C 844 816 796 719 720 654 C 644 589 556 557 457 557 C 350 557 269 589 214 655 C 158 721 131 804 131 905 C 131 922 132 940 134 959 C 136 977 138 996 141 1016 C 160 1130 207 1222 281 1292 C 355 1362 445 1397 551 1397 Z M 666 965 C 670 986 673 1007 675 1028 C 677 1049 678 1069 678 1087 C 678 1137 668 1177 649 1209 C 629 1241 597 1257 553 1257 C 493 1257 447 1234 413 1188 C 379 1142 355 1076 340 989 C 337 967 334 946 332 926 C 329 906 328 887 328 870 C 328 816 338 773 358 743 C 378 713 411 698 455 698 C 511 698 557 720 592 765 C 626 810 651 877 666 965 Z" />
<glyph horiz-adv-x="1087" unicode="»" d="M 285 950 L 553 596 L 537 504 L 143 150 L 27 252 L 360 559 L 135 866 L 285 950 Z M 700 950 L 967 596 L 950 504 L 559 150 L 442 252 L 776 559 L 549 866 L 700 950 Z" />
<glyph horiz-adv-x="2011" unicode="¼" d="M 557 748 L 721 748 L 696 610 L 186 610 L 211 748 L 383 748 L 473 1255 L 291 1204 L 311 1319 C 371 1344 420 1366 460 1386 C 499 1405 541 1428 586 1456 L 682 1456 L 557 748 Z M 1608 326 L 1747 326 L 1722 188 L 1583 188 L 1548 -6 L 1380 -6 L 1415 188 L 1006 188 L 1026 313 L 1530 848 L 1700 848 L 1608 326 Z M 1604 1460 L 1763 1460 L 440 -27 L 281 -27 L 1604 1460 Z M 1438 326 L 1497 672 L 1182 326 L 1438 326 Z" />
<glyph horiz-adv-x="2011" unicode="½" d="M 1554 846 C 1646 846 1717 822 1768 776 C 1819 730 1845 672 1845 602 C 1845 532 1821 474 1774 430 C 1726 386 1674 343 1616 301 C 1581 276 1539 250 1490 223 C 1440 195 1394 171 1352 150 L 1772 150 L 1745 0 L 1090 0 L 1108 119 C 1177 161 1239 200 1293 234 C 1347 268 1398 304 1446 340 C 1484 367 1528 403 1578 447 C 1628 491 1653 542 1653 600 C 1653 632 1642 657 1622 677 C 1602 697 1572 707 1534 707 C 1486 707 1442 695 1403 672 C 1364 648 1328 622 1296 594 L 1214 713 C 1271 759 1327 792 1382 814 C 1436 835 1494 846 1554 846 Z M 553 748 L 717 748 L 692 610 L 180 610 L 205 748 L 379 748 L 469 1255 L 287 1204 L 305 1319 C 365 1344 414 1366 453 1386 C 492 1405 534 1428 580 1456 L 678 1456 L 553 748 Z M 1581 1460 L 1743 1460 L 418 -27 L 258 -27 L 1581 1460 Z" />
<glyph horiz-adv-x="2011" unicode="¾" d="M 600 1460 C 693 1460 765 1439 817 1397 C 869 1355 895 1305 895 1245 C 895 1193 875 1151 836 1120 C 797 1088 753 1065 705 1051 C 742 1038 776 1014 807 978 C 838 942 854 900 854 852 C 854 765 813 700 732 657 C 651 613 571 592 492 592 C 404 592 330 605 271 631 C 212 657 163 696 125 748 L 268 838 C 290 804 320 777 357 757 C 393 737 436 727 485 727 C 521 727 559 737 600 758 C 641 779 662 814 662 862 C 662 898 648 925 620 942 C 592 958 556 967 510 967 L 418 967 L 442 1104 L 528 1104 C 568 1104 607 1112 646 1129 C 685 1146 705 1179 705 1227 C 705 1254 695 1277 675 1295 C 655 1313 624 1323 584 1323 C 542 1323 502 1313 464 1294 C 426 1275 393 1253 367 1229 L 276 1341 C 335 1388 392 1420 446 1436 C 500 1452 551 1460 600 1460 Z M 1630 326 L 1769 326 L 1745 188 L 1606 188 L 1571 -6 L 1401 -6 L 1436 188 L 1026 188 L 1049 313 L 1552 848 L 1720 848 L 1630 326 Z M 1638 1460 L 1800 1460 L 475 -27 L 315 -27 L 1638 1460 Z M 1460 326 L 1520 672 L 1204 326 L 1460 326 Z" />
<glyph horiz-adv-x="1133" unicode="¿" d="M 721 98 L 928 29 C 882 -94 810 -187 712 -249 C 614 -311 509 -342 399 -342 C 259 -342 151 -306 75 -235 C -1 -164 -39 -85 -39 2 C -38 89 -9 164 47 226 C 104 288 172 344 252 393 C 317 433 367 469 401 499 C 435 529 460 575 477 637 C 479 643 481 654 485 672 C 488 689 491 701 494 709 L 705 709 C 702 697 698 681 694 659 C 690 637 686 621 684 612 C 664 525 632 456 586 406 C 540 355 477 304 399 252 C 354 222 314 189 280 152 C 246 114 229 69 229 16 C 228 -34 244 -74 278 -105 C 311 -136 358 -152 420 -152 C 481 -152 539 -129 593 -85 C 647 -41 690 20 721 98 Z M 520 1118 L 797 1118 L 750 842 L 473 842 L 520 1118 Z" />
<glyph horiz-adv-x="1221" unicode="À" d="M 768 1812 L 901 1529 L 742 1529 L 512 1795 L 512 1812 L 768 1812 Z M 897 1434 L 1096 0 L 836 0 L 788 369 L 299 369 L 127 0 L -125 0 L 580 1434 L 897 1434 Z M 393 578 L 766 578 L 690 1212 L 393 578 Z" />
<glyph horiz-adv-x="1221" unicode="Á" d="M 835 1813 L 1102 1813 L 1099 1796 L 774 1530 L 606 1530 L 835 1813 Z M 897 1434 L 1096 0 L 836 0 L 788 369 L 299 369 L 127 0 L -125 0 L 580 1434 L 897 1434 Z M 393 578 L 766 578 L 690 1212 L 393 578 Z" />
<glyph horiz-adv-x="1221" unicode="Â" d="M 931 1808 L 1090 1521 L 931 1521 L 793 1689 L 597 1521 L 423 1521 L 685 1808 L 931 1808 Z M 897 1434 L 1096 0 L 836 0 L 788 369 L 299 369 L 127 0 L -125 0 L 580 1434 L 897 1434 Z M 393 578 L 766 578 L 690 1212 L 393 578 Z" />
<glyph horiz-adv-x="1221" unicode="Ã" d="M 994 1804 L 1121 1804 C 1099 1724 1069 1663 1031 1622 C 992 1581 944 1561 888 1561 C 846 1561 803 1577 759 1610 C 715 1642 680 1659 656 1659 C 631 1659 610 1650 592 1634 C 574 1617 562 1591 556 1555 L 431 1555 C 449 1633 478 1693 516 1735 C 554 1777 602 1798 660 1798 C 700 1798 743 1781 787 1747 C 831 1713 867 1696 894 1696 C 920 1696 942 1705 958 1725 C 974 1744 986 1770 994 1804 Z M 897 1434 L 1096 0 L 836 0 L 788 369 L 299 369 L 127 0 L -125 0 L 580 1434 L 897 1434 Z M 393 578 L 766 578 L 690 1212 L 393 578 Z" />
<glyph horiz-adv-x="1221" unicode="Ä" d="M 897 1434 L 1096 0 L 836 0 L 788 369 L 299 369 L 127 0 L -125 0 L 580 1434 L 897 1434 Z M 393 578 L 766 578 L 690 1212 L 393 578 Z M 491 1780 L 696 1780 L 657 1563 L 453 1563 L 491 1780 Z M 881 1780 L 1087 1780 L 1049 1563 L 844 1563 L 881 1780 Z" />
<glyph horiz-adv-x="1221" unicode="Å" d="M 799 1904 C 863 1904 912 1886 946 1850 C 980 1814 997 1769 997 1716 C 997 1650 973 1595 925 1551 C 877 1507 818 1485 748 1485 C 684 1485 635 1502 599 1537 C 563 1572 545 1617 545 1671 C 545 1735 570 1789 620 1835 C 670 1881 729 1904 799 1904 Z M 748 1561 C 792 1559 824 1577 844 1617 C 864 1656 875 1696 875 1737 C 875 1764 868 1785 856 1801 C 844 1817 823 1826 795 1828 C 749 1826 717 1806 699 1768 C 681 1730 672 1691 672 1651 C 672 1624 677 1602 689 1584 C 700 1566 720 1559 748 1561 Z M 897 1434 L 1096 0 L 836 0 L 788 369 L 299 369 L 127 0 L -125 0 L 580 1434 L 897 1434 Z M 393 578 L 766 578 L 690 1212 L 393 578 Z" />
<glyph horiz-adv-x="1888" unicode="Æ" d="M 805 1434 L 1942 1434 L 1905 1219 L 1249 1219 L 1182 834 L 1620 834 L 1583 618 L 1145 618 L 1073 215 L 1753 215 L 1714 0 L 774 0 L 846 401 L 375 401 L 117 0 L -139 0 L 805 1434 Z M 881 600 L 991 1229 L 907 1229 L 502 600 L 881 600 Z" />
<glyph horiz-adv-x="1247" unicode="Ç" d="M 764 1460 C 924 1460 1045 1418 1126 1335 C 1206 1252 1247 1131 1249 973 L 993 958 C 995 1052 979 1124 943 1175 C 907 1225 849 1251 768 1251 C 659 1251 568 1202 496 1106 C 424 1010 376 887 352 739 C 346 705 342 671 338 635 C 334 599 332 564 332 530 C 332 432 352 351 393 286 C 433 220 499 188 590 188 C 673 188 746 214 810 267 C 873 320 926 398 969 500 L 1174 434 C 1105 274 1019 157 916 83 C 813 9 701 -27 580 -27 C 574 -27 568 -26 562 -26 C 555 -25 549 -25 545 -25 L 520 -78 C 564 -84 597 -100 617 -127 C 637 -154 647 -182 647 -211 C 647 -263 624 -304 579 -334 C 534 -364 485 -379 432 -379 C 399 -379 370 -376 344 -371 C 318 -366 288 -356 256 -342 L 305 -250 C 323 -260 340 -268 356 -273 C 372 -278 387 -281 401 -281 C 421 -281 443 -275 466 -263 C 488 -251 500 -229 500 -199 C 500 -176 490 -158 471 -145 C 452 -131 423 -123 385 -121 L 451 -12 C 315 14 215 82 151 191 C 87 300 55 425 55 567 C 55 599 56 631 58 664 C 60 696 65 730 72 764 C 107 963 188 1129 314 1261 C 440 1393 590 1460 764 1460 Z" />
<glyph horiz-adv-x="1147" unicode="È" d="M 276 1434 L 1200 1434 L 1163 1219 L 500 1219 L 432 834 L 877 834 L 840 618 L 393 618 L 324 215 L 1010 215 L 971 0 L 25 0 L 276 1434 Z M 741 1811 L 874 1528 L 715 1528 L 485 1794 L 485 1811 L 741 1811 Z" />
<glyph horiz-adv-x="1147" unicode="É" d="M 796 1813 L 1063 1813 L 1060 1796 L 735 1530 L 567 1530 L 796 1813 Z M 276 1434 L 1200 1434 L 1163 1219 L 500 1219 L 432 834 L 877 834 L 840 618 L 393 618 L 324 215 L 1010 215 L 971 0 L 25 0 L 276 1434 Z" />
<glyph horiz-adv-x="1147" unicode="Ê" d="M 916 1807 L 1075 1520 L 916 1520 L 778 1688 L 582 1520 L 408 1520 L 670 1807 L 916 1807 Z M 276 1434 L 1200 1434 L 1163 1219 L 500 1219 L 432 834 L 877 834 L 840 618 L 393 618 L 324 215 L 1010 215 L 971 0 L 25 0 L 276 1434 Z" />
<glyph horiz-adv-x="1147" unicode="Ë" d="M 472 1782 L 677 1782 L 638 1565 L 434 1565 L 472 1782 Z M 862 1782 L 1068 1782 L 1030 1565 L 825 1565 L 862 1782 Z M 276 1434 L 1200 1434 L 1163 1219 L 500 1219 L 432 834 L 877 834 L 840 618 L 393 618 L 324 215 L 1010 215 L 971 0 L 25 0 L 276 1434 Z" />
<glyph horiz-adv-x="569" unicode="Ì" d="M 279 1434 L 545 1434 L 293 0 L 27 0 L 279 1434 Z M 432 1811 L 565 1528 L 406 1528 L 176 1794 L 176 1811 L 432 1811 Z" />
<glyph horiz-adv-x="569" unicode="Í" d="M 520 1813 L 787 1813 L 784 1796 L 459 1530 L 291 1530 L 520 1813 Z M 279 1434 L 545 1434 L 293 0 L 27 0 L 279 1434 Z" />
<glyph horiz-adv-x="569" unicode="Î" d="M 608 1809 L 767 1522 L 608 1522 L 470 1690 L 274 1522 L 100 1522 L 362 1809 L 608 1809 Z M 279 1434 L 545 1434 L 293 0 L 27 0 L 279 1434 Z" />
<glyph horiz-adv-x="569" unicode="Ï" d="M 173 1782 L 378 1782 L 339 1565 L 135 1565 L 173 1782 Z M 563 1782 L 769 1782 L 731 1565 L 526 1565 L 563 1782 Z M 279 1434 L 545 1434 L 293 0 L 27 0 L 279 1434 Z" />
<glyph horiz-adv-x="1364" unicode="Ñ" d="M 1114 1434 L 1339 1434 L 1087 0 L 877 0 L 444 1085 L 254 0 L 25 0 L 276 1434 L 553 1434 L 940 451 L 1114 1434 Z M 1081 1806 L 1208 1806 C 1186 1726 1156 1665 1118 1624 C 1079 1583 1031 1563 975 1563 C 933 1563 890 1579 846 1612 C 802 1644 767 1661 743 1661 C 718 1661 697 1652 679 1636 C 661 1619 649 1593 643 1557 L 518 1557 C 536 1635 565 1695 603 1737 C 641 1779 689 1800 747 1800 C 787 1800 830 1783 874 1749 C 918 1715 954 1698 981 1698 C 1007 1698 1029 1707 1045 1727 C 1061 1746 1073 1772 1081 1806 Z" />
<glyph horiz-adv-x="1343" unicode="Ò" d="M 832 1813 L 965 1530 L 806 1530 L 576 1796 L 576 1813 L 832 1813 Z M 782 1460 C 948 1460 1075 1406 1162 1299 C 1248 1191 1292 1048 1292 868 C 1292 835 1290 802 1287 768 C 1284 734 1280 701 1274 668 C 1236 460 1154 292 1028 164 C 902 36 749 -27 571 -27 C 402 -27 274 26 186 132 C 98 238 55 380 55 557 C 55 591 56 625 59 660 C 62 694 67 730 74 766 C 109 966 190 1132 316 1263 C 442 1394 597 1460 782 1460 Z M 995 696 C 1000 730 1005 767 1010 806 C 1015 845 1018 884 1018 922 C 1018 1019 997 1098 957 1159 C 917 1220 854 1251 770 1251 C 657 1251 565 1203 494 1108 C 423 1012 375 889 350 737 C 344 703 339 667 335 629 C 330 590 328 552 328 516 C 328 419 348 339 388 276 C 428 213 492 182 580 182 C 689 182 779 228 850 322 C 920 415 969 540 995 696 Z" />
<glyph horiz-adv-x="1343" unicode="Ó" d="M 886 1813 L 1153 1813 L 1150 1796 L 825 1530 L 657 1530 L 886 1813 Z M 782 1460 C 948 1460 1075 1406 1162 1299 C 1248 1191 1292 1048 1292 868 C 1292 835 1290 802 1287 768 C 1284 734 1280 701 1274 668 C 1236 460 1154 292 1028 164 C 902 36 749 -27 571 -27 C 402 -27 274 26 186 132 C 98 238 55 380 55 557 C 55 591 56 625 59 660 C 62 694 67 730 74 766 C 109 966 190 1132 316 1263 C 442 1394 597 1460 782 1460 Z M 995 696 C 1000 730 1005 767 1010 806 C 1015 845 1018 884 1018 922 C 1018 1019 997 1098 957 1159 C 917 1220 854 1251 770 1251 C 657 1251 565 1203 494 1108 C 423 1012 375 889 350 737 C 344 703 339 667 335 629 C 330 590 328 552 328 516 C 328 419 348 339 388 276 C 428 213 492 182 580 182 C 689 182 779 228 850 322 C 920 415 969 540 995 696 Z" />
<glyph horiz-adv-x="1343" unicode="Ô" d="M 976 1808 L 1135 1521 L 976 1521 L 838 1689 L 642 1521 L 468 1521 L 730 1808 L 976 1808 Z M 782 1460 C 948 1460 1075 1406 1162 1299 C 1248 1191 1292 1048 1292 868 C 1292 835 1290 802 1287 768 C 1284 734 1280 701 1274 668 C 1236 460 1154 292 1028 164 C 902 36 749 -27 571 -27 C 402 -27 274 26 186 132 C 98 238 55 380 55 557 C 55 591 56 625 59 660 C 62 694 67 730 74 766 C 109 966 190 1132 316 1263 C 442 1394 597 1460 782 1460 Z M 995 696 C 1000 730 1005 767 1010 806 C 1015 845 1018 884 1018 922 C 1018 1019 997 1098 957 1159 C 917 1220 854 1251 770 1251 C 657 1251 565 1203 494 1108 C 423 1012 375 889 350 737 C 344 703 339 667 335 629 C 330 590 328 552 328 516 C 328 419 348 339 388 276 C 428 213 492 182 580 182 C 689 182 779 228 850 322 C 920 415 969 540 995 696 Z" />
<glyph horiz-adv-x="1343" unicode="Õ" d="M 1046 1806 L 1173 1806 C 1151 1726 1121 1665 1083 1624 C 1044 1583 996 1563 940 1563 C 898 1563 855 1579 811 1612 C 767 1644 732 1661 708 1661 C 683 1661 662 1652 644 1636 C 626 1619 614 1593 608 1557 L 483 1557 C 501 1635 530 1695 568 1737 C 606 1779 654 1800 712 1800 C 752 1800 795 1783 839 1749 C 883 1715 919 1698 946 1698 C 972 1698 994 1707 1010 1727 C 1026 1746 1038 1772 1046 1806 Z M 782 1460 C 948 1460 1075 1406 1162 1299 C 1248 1191 1292 1048 1292 868 C 1292 835 1290 802 1287 768 C 1284 734 1280 701 1274 668 C 1236 460 1154 292 1028 164 C 902 36 749 -27 571 -27 C 402 -27 274 26 186 132 C 98 238 55 380 55 557 C 55 591 56 625 59 660 C 62 694 67 730 74 766 C 109 966 190 1132 316 1263 C 442 1394 597 1460 782 1460 Z M 995 696 C 1000 730 1005 767 1010 806 C 1015 845 1018 884 1018 922 C 1018 1019 997 1098 957 1159 C 917 1220 854 1251 770 1251 C 657 1251 565 1203 494 1108 C 423 1012 375 889 350 737 C 344 703 339 667 335 629 C 330 590 328 552 328 516 C 328 419 348 339 388 276 C 428 213 492 182 580 182 C 689 182 779 228 850 322 C 920 415 969 540 995 696 Z" />
<glyph horiz-adv-x="1343" unicode="Ö" d="M 548 1782 L 753 1782 L 714 1565 L 510 1565 L 548 1782 Z M 938 1782 L 1144 1782 L 1106 1565 L 901 1565 L 938 1782 Z M 782 1460 C 948 1460 1075 1406 1162 1299 C 1248 1191 1292 1048 1292 868 C 1292 835 1290 802 1287 768 C 1284 734 1280 701 1274 668 C 1236 460 1154 292 1028 164 C 902 36 749 -27 571 -27 C 402 -27 274 26 186 132 C 98 238 55 380 55 557 C 55 591 56 625 59 660 C 62 694 67 730 74 766 C 109 966 190 1132 316 1263 C 442 1394 597 1460 782 1460 Z M 995 696 C 1000 730 1005 767 1010 806 C 1015 845 1018 884 1018 922 C 1018 1019 997 1098 957 1159 C 917 1220 854 1251 770 1251 C 657 1251 565 1203 494 1108 C 423 1012 375 889 350 737 C 344 703 339 667 335 629 C 330 590 328 552 328 516 C 328 419 348 339 388 276 C 428 213 492 182 580 182 C 689 182 779 228 850 322 C 920 415 969 540 995 696 Z" />
<glyph horiz-adv-x="1167" unicode="×" d="M 707 569 L 1057 219 L 934 96 L 586 444 L 236 96 L 113 219 L 463 569 L 113 915 L 236 1038 L 586 688 L 934 1038 L 1057 915 L 707 569 Z" />
<glyph horiz-adv-x="1343" unicode="Ø" d="M 1292 868 C 1292 801 1286 734 1274 668 C 1256 574 1228 486 1190 402 C 1152 318 1103 244 1044 180 C 985 116 916 66 837 29 C 758 -8 669 -27 571 -27 C 515 -27 464 -20 418 -7 C 372 5 330 23 293 47 L 178 -125 L 47 -125 L 207 117 C 155 170 116 234 92 310 C 67 386 55 468 55 557 C 55 591 56 625 59 660 C 62 694 67 730 74 766 C 84 824 99 882 119 940 C 139 997 165 1051 195 1103 C 225 1154 259 1201 299 1245 C 338 1289 382 1326 432 1358 C 481 1390 535 1415 593 1433 C 651 1451 714 1460 782 1460 C 836 1460 886 1453 931 1441 C 976 1428 1017 1410 1055 1386 L 1153 1534 L 1284 1534 L 1139 1317 C 1191 1261 1229 1194 1254 1117 C 1279 1039 1292 956 1292 868 L 1292 868 Z M 928 1196 C 908 1213 885 1226 859 1236 C 833 1246 803 1251 770 1251 C 709 1251 655 1237 608 1211 C 561 1185 520 1149 485 1103 C 450 1057 421 1002 398 940 C 374 877 356 809 344 737 C 338 703 332 667 328 629 C 324 591 322 553 322 516 C 322 480 324 446 328 414 C 332 382 340 352 352 326 L 928 1196 Z M 1024 922 C 1024 956 1021 989 1016 1021 C 1011 1053 1004 1081 995 1106 L 418 236 C 438 218 462 205 489 196 C 515 186 546 182 580 182 C 641 182 695 195 742 222 C 788 248 829 285 863 331 C 897 377 925 432 948 495 C 970 557 988 624 1001 696 C 1006 731 1011 768 1016 806 C 1021 844 1024 882 1024 922 L 1024 922 Z" />
<glyph horiz-adv-x="1337" unicode="Ù" d="M 834 1813 L 967 1530 L 808 1530 L 578 1796 L 578 1813 L 834 1813 Z M 1094 1434 L 1325 1434 L 1167 541 C 1133 353 1069 211 973 116 C 877 20 750 -27 592 -27 C 433 -27 311 9 227 81 C 142 153 100 259 100 401 C 100 427 101 453 103 479 C 105 505 109 531 115 557 L 266 1434 L 530 1434 L 375 549 C 371 528 367 507 365 487 C 363 467 362 446 362 426 C 362 350 381 293 419 254 C 457 214 514 195 592 195 C 689 195 766 225 822 285 C 878 345 917 433 938 549 L 1094 1434 Z" />
<glyph horiz-adv-x="1337" unicode="Ú" d="M 931 1813 L 1198 1813 L 1195 1796 L 870 1530 L 702 1530 L 931 1813 Z M 1094 1434 L 1325 1434 L 1167 541 C 1133 353 1069 211 973 116 C 877 20 750 -27 592 -27 C 433 -27 311 9 227 81 C 142 153 100 259 100 401 C 100 427 101 453 103 479 C 105 505 109 531 115 557 L 266 1434 L 530 1434 L 375 549 C 371 528 367 507 365 487 C 363 467 362 446 362 426 C 362 350 381 293 419 254 C 457 214 514 195 592 195 C 689 195 766 225 822 285 C 878 345 917 433 938 549 L 1094 1434 Z" />
<glyph horiz-adv-x="1337" unicode="Û" d="M 998 1807 L 1157 1520 L 998 1520 L 860 1688 L 664 1520 L 490 1520 L 752 1807 L 998 1807 Z M 1094 1434 L 1325 1434 L 1167 541 C 1133 353 1069 211 973 116 C 877 20 750 -27 592 -27 C 433 -27 311 9 227 81 C 142 153 100 259 100 401 C 100 427 101 453 103 479 C 105 505 109 531 115 557 L 266 1434 L 530 1434 L 375 549 C 371 528 367 507 365 487 C 363 467 362 446 362 426 C 362 350 381 293 419 254 C 457 214 514 195 592 195 C 689 195 766 225 822 285 C 878 345 917 433 938 549 L 1094 1434 Z" />
<glyph horiz-adv-x="1337" unicode="Ü" d="M 558 1782 L 763 1782 L 724 1565 L 520 1565 L 558 1782 Z M 948 1782 L 1154 1782 L 1116 1565 L 911 1565 L 948 1782 Z M 1094 1434 L 1325 1434 L 1167 541 C 1133 353 1069 211 973 116 C 877 20 750 -27 592 -27 C 433 -27 311 9 227 81 C 142 153 100 259 100 401 C 100 427 101 453 103 479 C 105 505 109 531 115 557 L 266 1434 L 530 1434 L 375 549 C 371 528 367 507 365 487 C 363 467 362 446 362 426 C 362 350 381 293 419 254 C 457 214 514 195 592 195 C 689 195 766 225 822 285 C 878 345 917 433 938 549 L 1094 1434 Z" />
<glyph horiz-adv-x="1206" unicode="Ý" d="M 843 1813 L 1110 1813 L 1107 1796 L 782 1530 L 614 1530 L 843 1813 Z M 1073 1434 L 1341 1434 L 723 606 L 616 0 L 354 0 L 455 580 L 121 1434 L 403 1434 L 627 809 L 1073 1434 Z" />
<glyph horiz-adv-x="1116" unicode="ß" d="M 737 831 C 825 812 896 774 949 717 C 1001 660 1028 585 1028 492 C 1028 338 974 215 867 121 C 760 27 633 -20 485 -20 C 464 -20 443 -18 423 -16 C 403 -14 383 -10 365 -6 L 424 164 C 439 160 454 157 470 155 C 485 153 501 152 518 152 C 613 152 680 191 720 270 C 760 348 780 428 780 510 C 780 598 752 659 697 692 C 642 724 575 741 496 741 L 526 899 C 604 899 666 919 711 960 C 755 1001 778 1062 778 1143 C 778 1187 766 1220 742 1244 C 718 1268 685 1280 641 1280 C 563 1280 509 1249 478 1189 C 447 1128 426 1066 416 1004 L 240 0 L 4 0 L 176 991 C 199 1123 252 1232 334 1317 C 416 1401 527 1444 668 1444 C 751 1444 831 1422 909 1379 C 987 1336 1026 1266 1026 1169 C 1026 1085 997 1014 940 956 C 882 898 815 859 739 840 L 737 831 Z" />
<glyph horiz-adv-x="1036" unicode="à" d="M 539 1063 C 668 1063 765 1041 830 998 C 895 954 928 888 928 799 C 928 785 927 772 925 758 C 923 744 922 731 920 719 L 834 217 C 829 197 826 178 824 158 C 822 138 821 118 821 98 C 821 85 821 71 823 57 C 824 43 827 28 831 14 L 829 0 L 592 0 C 591 8 590 16 590 25 C 590 34 590 43 590 51 C 590 62 590 73 590 85 C 590 96 592 107 594 119 C 551 84 499 52 439 24 C 378 -3 320 -18 264 -18 C 186 -18 120 4 64 48 C 8 92 -20 155 -20 238 C -20 365 34 462 143 530 C 252 598 431 642 680 664 C 682 680 684 696 687 714 C 690 731 692 748 692 766 C 692 811 677 844 649 864 C 620 884 581 895 532 895 C 476 895 430 879 394 848 C 358 817 331 777 313 727 L 104 788 C 148 877 206 945 279 992 C 351 1039 438 1063 539 1063 Z M 608 244 L 657 528 C 498 513 387 483 324 437 C 260 391 229 335 229 268 C 229 227 241 197 266 178 C 290 159 322 150 360 150 C 411 150 455 158 492 174 C 529 190 568 213 608 244 Z M 594 1436 L 727 1153 L 568 1153 L 338 1419 L 338 1436 L 594 1436 Z" />
<glyph horiz-adv-x="1036" unicode="á" d="M 539 1063 C 668 1063 765 1041 830 998 C 895 954 928 888 928 799 C 928 785 927 772 925 758 C 923 744 922 731 920 719 L 834 217 C 829 197 826 178 824 158 C 822 138 821 118 821 98 C 821 85 821 71 823 57 C 824 43 827 28 831 14 L 829 0 L 592 0 C 591 8 590 16 590 25 C 590 34 590 43 590 51 C 590 62 590 73 590 85 C 590 96 592 107 594 119 C 551 84 499 52 439 24 C 378 -3 320 -18 264 -18 C 186 -18 120 4 64 48 C 8 92 -20 155 -20 238 C -20 365 34 462 143 530 C 252 598 431 642 680 664 C 682 680 684 696 687 714 C 690 731 692 748 692 766 C 692 811 677 844 649 864 C 620 884 581 895 532 895 C 476 895 430 879 394 848 C 358 817 331 777 313 727 L 104 788 C 148 877 206 945 279 992 C 351 1039 438 1063 539 1063 Z M 608 244 L 657 528 C 498 513 387 483 324 437 C 260 391 229 335 229 268 C 229 227 241 197 266 178 C 290 159 322 150 360 150 C 411 150 455 158 492 174 C 529 190 568 213 608 244 Z M 675 1438 L 942 1438 L 939 1421 L 614 1155 L 446 1155 L 675 1438 Z" />
<glyph horiz-adv-x="1036" unicode="â" d="M 732 1430 L 891 1143 L 732 1143 L 594 1311 L 398 1143 L 224 1143 L 486 1430 L 732 1430 Z M 539 1063 C 668 1063 765 1041 830 998 C 895 954 928 888 928 799 C 928 785 927 772 925 758 C 923 744 922 731 920 719 L 834 217 C 829 197 826 178 824 158 C 822 138 821 118 821 98 C 821 85 821 71 823 57 C 824 43 827 28 831 14 L 829 0 L 592 0 C 591 8 590 16 590 25 C 590 34 590 43 590 51 C 590 62 590 73 590 85 C 590 96 592 107 594 119 C 551 84 499 52 439 24 C 378 -3 320 -18 264 -18 C 186 -18 120 4 64 48 C 8 92 -20 155 -20 238 C -20 365 34 462 143 530 C 252 598 431 642 680 664 C 682 680 684 696 687 714 C 690 731 692 748 692 766 C 692 811 677 844 649 864 C 620 884 581 895 532 895 C 476 895 430 879 394 848 C 358 817 331 777 313 727 L 104 788 C 148 877 206 945 279 992 C 351 1039 438 1063 539 1063 Z M 608 244 L 657 528 C 498 513 387 483 324 437 C 260 391 229 335 229 268 C 229 227 241 197 266 178 C 290 159 322 150 360 150 C 411 150 455 158 492 174 C 529 190 568 213 608 244 Z" />
<glyph horiz-adv-x="1036" unicode="ã" d="M 539 1063 C 668 1063 765 1041 830 998 C 895 954 928 888 928 799 C 928 785 927 772 925 758 C 923 744 922 731 920 719 L 834 217 C 829 197 826 178 824 158 C 822 138 821 118 821 98 C 821 85 821 71 823 57 C 824 43 827 28 831 14 L 829 0 L 592 0 C 591 8 590 16 590 25 C 590 34 590 43 590 51 C 590 62 590 73 590 85 C 590 96 592 107 594 119 C 551 84 499 52 439 24 C 378 -3 320 -18 264 -18 C 186 -18 120 4 64 48 C 8 92 -20 155 -20 238 C -20 365 34 462 143 530 C 252 598 431 642 680 664 C 682 680 684 696 687 714 C 690 731 692 748 692 766 C 692 811 677 844 649 864 C 620 884 581 895 532 895 C 476 895 430 879 394 848 C 358 817 331 777 313 727 L 104 788 C 148 877 206 945 279 992 C 351 1039 438 1063 539 1063 Z M 608 244 L 657 528 C 498 513 387 483 324 437 C 260 391 229 335 229 268 C 229 227 241 197 266 178 C 290 159 322 150 360 150 C 411 150 455 158 492 174 C 529 190 568 213 608 244 Z M 807 1423 L 934 1423 C 912 1343 882 1282 844 1241 C 805 1200 757 1180 701 1180 C 659 1180 616 1196 572 1229 C 528 1261 493 1278 469 1278 C 444 1278 423 1269 405 1253 C 387 1236 375 1210 369 1174 L 244 1174 C 262 1252 291 1312 329 1354 C 367 1396 415 1417 473 1417 C 513 1417 556 1400 600 1366 C 644 1332 680 1315 707 1315 C 733 1315 755 1324 771 1344 C 787 1363 799 1389 807 1423 Z" />
<glyph horiz-adv-x="1036" unicode="ä" d="M 302 1403 L 507 1403 L 468 1186 L 264 1186 L 302 1403 Z M 692 1403 L 898 1403 L 860 1186 L 655 1186 L 692 1403 Z M 539 1063 C 668 1063 765 1041 830 998 C 895 954 928 888 928 799 C 928 785 927 772 925 758 C 923 744 922 731 920 719 L 834 217 C 829 197 826 178 824 158 C 822 138 821 118 821 98 C 821 85 821 71 823 57 C 824 43 827 28 831 14 L 829 0 L 592 0 C 591 8 590 16 590 25 C 590 34 590 43 590 51 C 590 62 590 73 590 85 C 590 96 592 107 594 119 C 551 84 499 52 439 24 C 378 -3 320 -18 264 -18 C 186 -18 120 4 64 48 C 8 92 -20 155 -20 238 C -20 365 34 462 143 530 C 252 598 431 642 680 664 C 682 680 684 696 687 714 C 690 731 692 748 692 766 C 692 811 677 844 649 864 C 620 884 581 895 532 895 C 476 895 430 879 394 848 C 358 817 331 777 313 727 L 104 788 C 148 877 206 945 279 992 C 351 1039 438 1063 539 1063 Z M 608 244 L 657 528 C 498 513 387 483 324 437 C 260 391 229 335 229 268 C 229 227 241 197 266 178 C 290 159 322 150 360 150 C 411 150 455 158 492 174 C 529 190 568 213 608 244 Z" />
<glyph horiz-adv-x="1036" unicode="å" d="M 539 1063 C 668 1063 765 1041 830 998 C 895 954 928 888 928 799 C 928 785 927 772 925 758 C 923 744 922 731 920 719 L 834 217 C 829 197 826 178 824 158 C 822 138 821 118 821 98 C 821 85 821 71 823 57 C 824 43 827 28 831 14 L 829 0 L 592 0 C 591 8 590 16 590 25 C 590 34 590 43 590 51 C 590 62 590 73 590 85 C 590 96 592 107 594 119 C 551 84 499 52 439 24 C 378 -3 320 -18 264 -18 C 186 -18 120 4 64 48 C 8 92 -20 155 -20 238 C -20 365 34 462 143 530 C 252 598 431 642 680 664 C 682 680 684 696 687 714 C 690 731 692 748 692 766 C 692 811 677 844 649 864 C 620 884 581 895 532 895 C 476 895 430 879 394 848 C 358 817 331 777 313 727 L 104 788 C 148 877 206 945 279 992 C 351 1039 438 1063 539 1063 Z M 608 244 L 657 528 C 498 513 387 483 324 437 C 260 391 229 335 229 268 C 229 227 241 197 266 178 C 290 159 322 150 360 150 C 411 150 455 158 492 174 C 529 190 568 213 608 244 Z M 633 1556 C 697 1556 746 1538 780 1502 C 814 1466 831 1421 831 1368 C 831 1302 807 1247 759 1203 C 711 1159 652 1137 582 1137 C 518 1137 469 1154 433 1189 C 397 1224 379 1269 379 1323 C 379 1387 404 1441 454 1487 C 504 1533 563 1556 633 1556 Z M 582 1213 C 626 1211 658 1229 678 1269 C 698 1308 709 1348 709 1389 C 709 1416 702 1437 690 1453 C 678 1469 657 1478 629 1480 C 583 1478 551 1458 533 1420 C 515 1382 506 1343 506 1303 C 506 1276 511 1254 523 1236 C 534 1218 554 1211 582 1213 Z" />
<glyph horiz-adv-x="1640" unicode="æ" d="M 1174 1061 C 1302 1061 1400 1027 1467 959 C 1533 891 1567 796 1567 674 C 1567 642 1564 610 1560 578 C 1555 546 1550 515 1546 483 L 864 483 C 863 471 862 458 862 446 C 862 434 862 422 862 412 C 862 322 879 255 914 213 C 948 171 998 150 1063 150 C 1131 150 1189 165 1236 197 C 1283 228 1325 268 1362 317 L 1505 229 C 1448 155 1381 95 1305 50 C 1229 4 1144 -18 1051 -18 C 973 -18 903 -3 843 26 C 782 55 732 102 694 166 C 630 106 565 61 499 29 C 432 -2 355 -18 268 -18 C 188 -18 120 4 64 48 C 8 92 -20 155 -20 238 C -20 360 32 456 136 526 C 240 596 420 642 678 664 C 680 680 682 696 685 714 C 688 731 690 748 690 766 C 690 811 676 844 648 864 C 620 884 580 895 530 895 C 475 895 430 880 395 851 C 360 821 333 780 313 727 L 104 788 C 148 878 206 947 279 993 C 351 1039 437 1063 537 1063 C 605 1063 668 1053 726 1034 C 784 1015 831 984 866 940 C 908 976 956 1005 1010 1027 C 1063 1049 1118 1061 1174 1061 Z M 625 254 L 655 528 C 497 513 387 483 324 437 C 260 391 229 335 229 268 C 229 227 241 197 266 178 C 290 159 322 150 360 150 C 411 150 458 159 501 179 C 543 198 585 223 625 254 Z M 1343 627 C 1345 641 1347 655 1349 669 C 1351 683 1352 698 1352 713 C 1352 770 1338 815 1311 848 C 1283 880 1240 897 1182 897 C 1101 897 1037 873 990 827 C 942 781 909 714 889 627 L 1343 627 Z" />
<glyph horiz-adv-x="967" unicode="ç" d="M 543 1061 C 682 1061 781 1027 840 960 C 899 893 928 810 928 711 L 713 707 C 712 753 703 795 685 835 C 667 875 627 895 563 895 C 481 895 418 863 372 801 C 326 739 295 655 279 551 C 272 520 267 491 265 465 C 263 439 262 414 262 391 C 262 319 276 260 304 216 C 332 172 376 150 438 150 C 509 150 565 171 605 213 C 645 255 680 307 709 367 L 862 299 C 826 205 769 129 691 70 C 612 11 526 -18 432 -18 C 428 -18 424 -17 420 -17 C 416 -16 412 -16 408 -16 L 381 -78 C 425 -84 457 -100 477 -127 C 496 -154 506 -182 506 -211 C 506 -263 483 -304 439 -334 C 394 -364 345 -379 293 -379 C 259 -379 229 -376 203 -371 C 177 -366 148 -356 117 -342 L 164 -250 C 183 -260 200 -268 215 -273 C 230 -278 245 -281 260 -281 C 280 -281 302 -275 325 -263 C 348 -251 360 -229 360 -199 C 360 -176 350 -158 332 -145 C 313 -131 284 -123 244 -121 L 317 0 C 218 21 143 72 92 154 C 41 235 16 330 16 438 C 16 458 16 479 18 500 C 19 520 22 542 27 565 C 52 719 114 840 212 928 C 310 1016 420 1061 543 1061 Z" />
<glyph horiz-adv-x="1032" unicode="è" d="M 563 1061 C 696 1061 795 1026 860 956 C 925 886 958 792 958 674 C 958 650 956 625 954 598 C 951 570 946 532 938 483 L 252 483 C 251 470 250 457 250 445 C 250 433 250 422 250 412 C 250 322 268 255 304 213 C 340 171 389 150 453 150 C 525 150 584 166 630 198 C 676 230 717 270 754 317 L 897 229 C 839 155 773 96 697 50 C 621 4 535 -18 440 -18 C 300 -18 194 24 122 110 C 50 195 14 301 14 428 C 14 448 14 469 16 489 C 17 509 20 530 25 553 C 51 705 115 827 217 921 C 319 1014 434 1061 563 1061 Z M 735 627 C 737 641 738 656 740 671 C 742 685 743 699 743 713 C 743 765 730 809 704 844 C 678 879 634 897 571 897 C 489 897 424 873 378 827 C 331 780 297 713 276 627 L 735 627 Z M 604 1436 L 737 1153 L 578 1153 L 348 1419 L 348 1436 L 604 1436 Z" />
<glyph horiz-adv-x="1032" unicode="é" d="M 563 1061 C 696 1061 795 1026 860 956 C 925 886 958 792 958 674 C 958 650 956 625 954 598 C 951 570 946 532 938 483 L 252 483 C 251 470 250 457 250 445 C 250 433 250 422 250 412 C 250 322 268 255 304 213 C 340 171 389 150 453 150 C 525 150 584 166 630 198 C 676 230 717 270 754 317 L 897 229 C 839 155 773 96 697 50 C 621 4 535 -18 440 -18 C 300 -18 194 24 122 110 C 50 195 14 301 14 428 C 14 448 14 469 16 489 C 17 509 20 530 25 553 C 51 705 115 827 217 921 C 319 1014 434 1061 563 1061 Z M 735 627 C 737 641 738 656 740 671 C 742 685 743 699 743 713 C 743 765 730 809 704 844 C 678 879 634 897 571 897 C 489 897 424 873 378 827 C 331 780 297 713 276 627 L 735 627 Z M 651 1436 L 918 1436 L 915 1419 L 590 1153 L 422 1153 L 651 1436 Z" />
<glyph horiz-adv-x="1032" unicode="ê" d="M 563 1061 C 696 1061 795 1026 860 956 C 925 886 958 792 958 674 C 958 650 956 625 954 598 C 951 570 946 532 938 483 L 252 483 C 251 470 250 457 250 445 C 250 433 250 422 250 412 C 250 322 268 255 304 213 C 340 171 389 150 453 150 C 525 150 584 166 630 198 C 676 230 717 270 754 317 L 897 229 C 839 155 773 96 697 50 C 621 4 535 -18 440 -18 C 300 -18 194 24 122 110 C 50 195 14 301 14 428 C 14 448 14 469 16 489 C 17 509 20 530 25 553 C 51 705 115 827 217 921 C 319 1014 434 1061 563 1061 Z M 735 627 C 737 641 738 656 740 671 C 742 685 743 699 743 713 C 743 765 730 809 704 844 C 678 879 634 897 571 897 C 489 897 424 873 378 827 C 331 780 297 713 276 627 L 735 627 Z M 748 1430 L 907 1143 L 748 1143 L 610 1311 L 414 1143 L 240 1143 L 502 1430 L 748 1430 Z" />
<glyph horiz-adv-x="1032" unicode="ë" d="M 563 1061 C 696 1061 795 1026 860 956 C 925 886 958 792 958 674 C 958 650 956 625 954 598 C 951 570 946 532 938 483 L 252 483 C 251 470 250 457 250 445 C 250 433 250 422 250 412 C 250 322 268 255 304 213 C 340 171 389 150 453 150 C 525 150 584 166 630 198 C 676 230 717 270 754 317 L 897 229 C 839 155 773 96 697 50 C 621 4 535 -18 440 -18 C 300 -18 194 24 122 110 C 50 195 14 301 14 428 C 14 448 14 469 16 489 C 17 509 20 530 25 553 C 51 705 115 827 217 921 C 319 1014 434 1061 563 1061 Z M 735 627 C 737 641 738 656 740 671 C 742 685 743 699 743 713 C 743 765 730 809 704 844 C 678 879 634 897 571 897 C 489 897 424 873 378 827 C 331 780 297 713 276 627 L 735 627 Z M 319 1403 L 524 1403 L 485 1186 L 281 1186 L 319 1403 Z M 709 1403 L 915 1403 L 877 1186 L 672 1186 L 709 1403 Z" />
<glyph horiz-adv-x="510" unicode="ì" d="M 197 1044 L 434 1044 L 250 0 L 12 0 L 197 1044 Z M 342 1436 L 475 1153 L 316 1153 L 86 1419 L 86 1436 L 342 1436 Z" />
<glyph horiz-adv-x="510" unicode="í" d="M 197 1044 L 434 1044 L 250 0 L 12 0 L 197 1044 Z M 428 1434 L 695 1434 L 692 1417 L 367 1151 L 199 1151 L 428 1434 Z" />
<glyph horiz-adv-x="518" unicode="î" d="M 512 1430 L 671 1143 L 512 1143 L 374 1311 L 178 1143 L 4 1143 L 266 1430 L 512 1430 Z M 201 1044 L 438 1044 L 254 0 L 16 0 L 201 1044 Z" />
<glyph horiz-adv-x="518" unicode="ï" d="M 78 1403 L 283 1403 L 244 1186 L 40 1186 L 78 1403 Z M 468 1403 L 674 1403 L 636 1186 L 431 1186 L 468 1403 Z M 201 1044 L 438 1044 L 254 0 L 16 0 L 201 1044 Z" />
<glyph horiz-adv-x="1106" unicode="ñ" d="M 735 1063 C 816 1063 880 1043 928 1005 C 975 967 999 905 999 821 C 999 803 998 786 996 769 C 994 752 991 735 989 719 L 862 0 L 623 0 L 743 682 C 745 693 747 705 748 717 C 749 729 750 741 750 754 C 750 796 739 826 718 844 C 696 862 665 872 625 872 C 582 872 538 859 492 834 C 446 808 407 783 375 758 L 242 0 L 4 0 L 188 1044 L 422 1044 L 391 883 C 435 925 488 965 548 1004 C 608 1043 671 1063 735 1063 Z M 874 1423 L 1001 1423 C 979 1343 949 1282 911 1241 C 872 1200 824 1180 768 1180 C 726 1180 683 1196 639 1229 C 595 1261 560 1278 536 1278 C 511 1278 490 1269 472 1253 C 454 1236 442 1210 436 1174 L 311 1174 C 329 1252 358 1312 396 1354 C 434 1396 482 1417 540 1417 C 580 1417 623 1400 667 1366 C 711 1332 747 1315 774 1315 C 800 1315 822 1324 838 1344 C 854 1363 866 1389 874 1423 Z" />
<glyph horiz-adv-x="1059" unicode="ò" d="M 618 1436 L 751 1153 L 592 1153 L 362 1419 L 362 1436 L 618 1436 Z M 561 1061 C 693 1061 796 1020 870 939 C 944 857 981 750 981 618 C 981 596 979 574 977 551 C 974 527 971 504 969 481 C 940 315 876 190 777 107 C 678 23 564 -18 436 -18 C 298 -18 193 24 122 108 C 51 192 16 298 16 428 C 16 450 17 474 19 498 C 21 522 24 546 29 571 C 53 719 114 837 210 927 C 306 1016 423 1061 561 1061 Z M 719 504 C 723 532 727 560 730 588 C 733 615 735 641 735 666 C 735 732 721 786 695 830 C 669 873 625 895 563 895 C 481 895 418 864 373 802 C 327 740 295 653 276 541 C 271 511 267 482 264 456 C 261 429 260 404 260 381 C 260 311 273 255 300 213 C 327 171 372 150 434 150 C 511 150 573 180 620 240 C 666 300 699 388 719 504 Z" />
<glyph horiz-adv-x="1049" unicode="ó" d="M 561 1061 C 693 1061 796 1020 870 939 C 944 857 981 750 981 618 C 981 596 979 574 977 551 C 974 527 971 504 969 481 C 940 315 876 190 777 107 C 678 23 564 -18 436 -18 C 298 -18 193 24 122 108 C 51 192 16 298 16 428 C 16 450 17 474 19 498 C 21 522 24 546 29 571 C 53 719 114 837 210 927 C 306 1016 423 1061 561 1061 Z M 719 504 C 723 532 727 560 730 588 C 733 615 735 641 735 666 C 735 732 721 786 695 830 C 669 873 625 895 563 895 C 481 895 418 864 373 802 C 327 740 295 653 276 541 C 271 511 267 482 264 456 C 261 429 260 404 260 381 C 260 311 273 255 300 213 C 327 171 372 150 434 150 C 511 150 573 180 620 240 C 666 300 699 388 719 504 Z M 665 1436 L 932 1436 L 929 1419 L 604 1153 L 436 1153 L 665 1436 Z" />
<glyph horiz-adv-x="1059" unicode="ô" d="M 561 1061 C 693 1061 796 1020 870 939 C 944 857 981 750 981 618 C 981 596 979 574 977 551 C 974 527 971 504 969 481 C 940 315 876 190 777 107 C 678 23 564 -18 436 -18 C 298 -18 193 24 122 108 C 51 192 16 298 16 428 C 16 450 17 474 19 498 C 21 522 24 546 29 571 C 53 719 114 837 210 927 C 306 1016 423 1061 561 1061 Z M 719 504 C 723 532 727 560 730 588 C 733 615 735 641 735 666 C 735 732 721 786 695 830 C 669 873 625 895 563 895 C 481 895 418 864 373 802 C 327 740 295 653 276 541 C 271 511 267 482 264 456 C 261 429 260 404 260 381 C 260 311 273 255 300 213 C 327 171 372 150 434 150 C 511 150 573 180 620 240 C 666 300 699 388 719 504 Z M 748 1430 L 907 1143 L 748 1143 L 610 1311 L 414 1143 L 240 1143 L 502 1430 L 748 1430 Z" />
<glyph horiz-adv-x="1059" unicode="õ" d="M 839 1423 L 966 1423 C 944 1343 914 1282 876 1241 C 837 1200 789 1180 733 1180 C 691 1180 648 1196 604 1229 C 560 1261 525 1278 501 1278 C 476 1278 455 1269 437 1253 C 419 1236 407 1210 401 1174 L 276 1174 C 294 1252 323 1312 361 1354 C 399 1396 447 1417 505 1417 C 545 1417 588 1400 632 1366 C 676 1332 712 1315 739 1315 C 765 1315 787 1324 803 1344 C 819 1363 831 1389 839 1423 Z M 561 1061 C 693 1061 796 1020 870 939 C 944 857 981 750 981 618 C 981 596 979 574 977 551 C 974 527 971 504 969 481 C 940 315 876 190 777 107 C 678 23 564 -18 436 -18 C 298 -18 193 24 122 108 C 51 192 16 298 16 428 C 16 450 17 474 19 498 C 21 522 24 546 29 571 C 53 719 114 837 210 927 C 306 1016 423 1061 561 1061 Z M 719 504 C 723 532 727 560 730 588 C 733 615 735 641 735 666 C 735 732 721 786 695 830 C 669 873 625 895 563 895 C 481 895 418 864 373 802 C 327 740 295 653 276 541 C 271 511 267 482 264 456 C 261 429 260 404 260 381 C 260 311 273 255 300 213 C 327 171 372 150 434 150 C 511 150 573 180 620 240 C 666 300 699 388 719 504 Z" />
<glyph horiz-adv-x="1059" unicode="ö" d="M 323 1403 L 528 1403 L 489 1186 L 285 1186 L 323 1403 Z M 713 1403 L 919 1403 L 881 1186 L 676 1186 L 713 1403 Z M 561 1061 C 693 1061 796 1020 870 939 C 944 857 981 750 981 618 C 981 596 979 574 977 551 C 974 527 971 504 969 481 C 940 315 876 190 777 107 C 678 23 564 -18 436 -18 C 298 -18 193 24 122 108 C 51 192 16 298 16 428 C 16 450 17 474 19 498 C 21 522 24 546 29 571 C 53 719 114 837 210 927 C 306 1016 423 1061 561 1061 Z M 719 504 C 723 532 727 560 730 588 C 733 615 735 641 735 666 C 735 732 721 786 695 830 C 669 873 625 895 563 895 C 481 895 418 864 373 802 C 327 740 295 653 276 541 C 271 511 267 482 264 456 C 261 429 260 404 260 381 C 260 311 273 255 300 213 C 327 171 372 150 434 150 C 511 150 573 180 620 240 C 666 300 699 388 719 504 Z" />
<glyph horiz-adv-x="1167" unicode="÷" d="M 578 311 C 614 311 645 297 673 271 C 701 244 715 212 715 174 C 715 137 701 105 673 79 C 645 52 614 39 578 39 C 540 39 507 52 479 80 C 451 107 438 139 438 176 C 438 212 452 244 480 271 C 508 297 541 311 578 311 Z M 578 1083 C 614 1083 645 1069 672 1043 C 699 1016 713 984 713 946 C 713 909 699 877 672 851 C 644 824 613 811 578 811 C 540 811 507 824 479 851 C 451 877 438 910 438 948 C 438 986 451 1018 479 1044 C 507 1070 540 1083 578 1083 Z M 1067 649 L 1067 473 L 86 473 L 86 649 L 1067 649 Z" />
<glyph horiz-adv-x="1059" unicode="ø" d="M 983 1161 L 846 956 C 889 917 922 869 946 812 C 969 755 981 690 981 618 C 981 595 979 572 977 550 C 975 527 972 504 969 481 C 954 397 930 324 897 262 C 864 199 824 147 777 106 C 730 64 678 33 620 13 C 562 -7 500 -18 436 -18 C 394 -18 356 -13 320 -5 C 284 3 251 16 221 33 L 115 -125 L 6 -125 L 147 86 C 103 126 71 175 49 233 C 27 291 16 356 16 428 C 16 450 17 474 19 498 C 21 522 24 546 29 571 C 41 645 62 712 94 772 C 125 832 164 884 210 927 C 256 969 308 1002 368 1026 C 427 1049 491 1061 561 1061 C 601 1061 638 1056 674 1047 C 709 1038 742 1026 772 1010 L 874 1161 L 983 1161 Z M 672 860 C 644 883 608 895 563 895 C 479 895 414 864 368 803 C 322 741 289 654 270 541 C 264 511 260 482 258 456 C 255 429 254 404 254 381 C 254 358 255 336 257 315 C 259 293 262 274 268 258 L 672 860 Z M 741 666 C 741 686 739 707 737 728 C 734 749 730 768 725 784 L 322 182 C 349 160 386 150 434 150 C 514 150 577 180 625 240 C 672 300 705 388 725 504 C 730 532 734 560 737 587 C 739 614 741 640 741 666 L 741 666 Z" />
<glyph horiz-adv-x="1085" unicode="ù" d="M 784 1044 L 1020 1044 L 838 0 L 606 0 L 635 162 C 589 119 536 78 478 40 C 420 1 358 -18 293 -18 C 211 -18 148 4 104 48 C 59 92 37 155 37 236 C 37 250 37 264 39 279 C 40 293 42 308 45 324 L 172 1044 L 412 1044 L 291 360 C 289 348 287 336 285 324 C 283 312 283 301 283 289 C 283 247 293 217 315 199 C 336 181 367 172 408 172 C 454 172 497 184 538 208 C 579 232 617 259 651 287 L 784 1044 Z M 629 1436 L 762 1153 L 603 1153 L 373 1419 L 373 1436 L 629 1436 Z" />
<glyph horiz-adv-x="1085" unicode="ú" d="M 784 1044 L 1020 1044 L 838 0 L 606 0 L 635 162 C 589 119 536 78 478 40 C 420 1 358 -18 293 -18 C 211 -18 148 4 104 48 C 59 92 37 155 37 236 C 37 250 37 264 39 279 C 40 293 42 308 45 324 L 172 1044 L 412 1044 L 291 360 C 289 348 287 336 285 324 C 283 312 283 301 283 289 C 283 247 293 217 315 199 C 336 181 367 172 408 172 C 454 172 497 184 538 208 C 579 232 617 259 651 287 L 784 1044 Z M 698 1436 L 965 1436 L 962 1419 L 637 1153 L 469 1153 L 698 1436 Z" />
<glyph horiz-adv-x="1085" unicode="û" d="M 784 1044 L 1020 1044 L 838 0 L 606 0 L 635 162 C 589 119 536 78 478 40 C 420 1 358 -18 293 -18 C 211 -18 148 4 104 48 C 59 92 37 155 37 236 C 37 250 37 264 39 279 C 40 293 42 308 45 324 L 172 1044 L 412 1044 L 291 360 C 289 348 287 336 285 324 C 283 312 283 301 283 289 C 283 247 293 217 315 199 C 336 181 367 172 408 172 C 454 172 497 184 538 208 C 579 232 617 259 651 287 L 784 1044 Z M 799 1430 L 958 1143 L 799 1143 L 661 1311 L 465 1143 L 291 1143 L 553 1430 L 799 1430 Z" />
<glyph horiz-adv-x="1085" unicode="ü" d="M 784 1044 L 1020 1044 L 838 0 L 606 0 L 635 162 C 589 119 536 78 478 40 C 420 1 358 -18 293 -18 C 211 -18 148 4 104 48 C 59 92 37 155 37 236 C 37 250 37 264 39 279 C 40 293 42 308 45 324 L 172 1044 L 412 1044 L 291 360 C 289 348 287 336 285 324 C 283 312 283 301 283 289 C 283 247 293 217 315 199 C 336 181 367 172 408 172 C 454 172 497 184 538 208 C 579 232 617 259 651 287 L 784 1044 Z M 360 1403 L 565 1403 L 526 1186 L 322 1186 L 360 1403 Z M 750 1403 L 956 1403 L 918 1186 L 713 1186 L 750 1403 Z" />
<glyph horiz-adv-x="930" unicode="ý" d="M 786 1044 L 985 1044 L 422 -39 C 362 -153 301 -231 239 -275 C 176 -318 108 -340 35 -340 C 1 -340 -28 -338 -53 -335 C -78 -332 -103 -328 -129 -322 L -98 -139 C -77 -145 -58 -150 -42 -152 C -25 -154 -9 -156 6 -156 C 57 -156 105 -143 149 -117 C 193 -91 225 -42 246 31 C 246 35 227 143 189 353 C 151 563 110 794 66 1044 L 301 1044 L 412 281 L 786 1044 Z M 643 1434 L 910 1434 L 907 1417 L 582 1151 L 414 1151 L 643 1434 Z" />
<glyph horiz-adv-x="930" unicode="ÿ" d="M 284 1403 L 489 1403 L 450 1186 L 246 1186 L 284 1403 Z M 674 1403 L 880 1403 L 842 1186 L 637 1186 L 674 1403 Z M 786 1044 L 985 1044 L 422 -39 C 362 -153 301 -231 239 -275 C 176 -318 108 -340 35 -340 C 1 -340 -28 -338 -53 -335 C -78 -332 -103 -328 -129 -322 L -98 -139 C -77 -145 -58 -150 -42 -152 C -25 -154 -9 -156 6 -156 C 57 -156 105 -143 149 -117 C 193 -91 225 -42 246 31 C 246 35 227 143 189 353 C 151 563 110 794 66 1044 L 301 1044 L 412 281 L 786 1044 Z" />
<glyph horiz-adv-x="502" unicode="ı" d="M 195 1044 L 432 1044 L 248 0 L 10 0 L 195 1044 Z" />
<glyph horiz-adv-x="1051" unicode="Ł" d="M 940 215 L 903 0 L 25 0 L 123 567 L -20 485 L 10 662 L 154 739 L 276 1434 L 541 1434 L 442 881 L 700 1026 L 668 846 L 414 709 L 328 215 L 940 215 Z" />
<glyph horiz-adv-x="535" unicode="ł" d="M 549 928 L 518 756 L 383 682 L 264 0 L 27 0 L 127 575 L -4 500 L 25 672 L 158 743 L 279 1434 L 516 1434 L 414 850 L 549 928 Z" />
<glyph horiz-adv-x="1968" unicode="Œ" d="M 1122 1434 L 2021 1434 L 1985 1219 L 1329 1219 L 1262 834 L 1700 834 L 1663 618 L 1223 618 L 1153 215 L 1831 215 L 1792 0 L 870 0 L 889 104 C 835 64 783 33 731 9 C 679 -15 623 -27 561 -27 C 397 -27 271 24 185 128 C 98 232 55 375 55 557 C 55 591 56 625 59 660 C 62 694 67 730 74 766 C 109 966 190 1131 318 1261 C 445 1391 599 1456 780 1456 C 844 1456 904 1444 960 1422 C 1016 1400 1064 1367 1104 1323 L 1122 1434 Z M 995 696 C 1001 730 1006 768 1010 808 C 1014 848 1016 888 1016 926 C 1016 1027 995 1106 955 1164 C 915 1222 853 1251 770 1251 C 657 1251 565 1203 494 1108 C 423 1012 375 889 350 737 C 344 703 339 667 335 629 C 330 590 328 552 328 516 C 328 419 348 339 388 276 C 428 213 492 182 580 182 C 689 182 779 228 850 322 C 920 415 969 540 995 696 Z" />
<glyph horiz-adv-x="1704" unicode="œ" d="M 1235 1061 C 1368 1061 1467 1026 1532 956 C 1597 886 1630 792 1630 674 C 1630 650 1628 625 1625 598 C 1621 570 1616 532 1610 483 L 928 483 C 926 470 924 457 924 445 C 924 433 924 422 924 412 C 924 322 941 255 977 213 C 1013 171 1062 150 1126 150 C 1197 150 1256 166 1302 198 C 1348 230 1389 270 1425 317 L 1567 229 C 1511 155 1445 96 1369 50 C 1293 4 1207 -18 1112 -18 C 1038 -18 974 -3 918 26 C 862 55 816 94 782 143 C 736 93 683 53 625 25 C 566 -3 503 -18 436 -18 C 296 -18 191 24 121 108 C 51 192 16 298 16 428 C 16 450 17 474 19 498 C 21 522 24 546 29 571 C 53 719 113 837 209 927 C 305 1016 421 1061 559 1061 C 631 1061 695 1044 751 1012 C 806 979 851 937 885 887 C 929 939 982 981 1044 1013 C 1106 1045 1169 1061 1235 1061 Z M 717 504 C 721 532 725 560 728 588 C 731 615 733 641 733 666 C 733 732 720 786 694 830 C 668 873 624 895 561 895 C 480 895 417 864 372 802 C 327 740 295 653 276 541 C 271 511 267 482 264 456 C 261 429 260 404 260 381 C 260 311 273 255 300 213 C 326 171 370 150 432 150 C 510 150 573 180 619 240 C 665 300 697 388 717 504 Z M 1405 627 C 1407 641 1409 656 1411 671 C 1412 685 1413 699 1413 713 C 1413 765 1400 809 1375 844 C 1350 879 1306 897 1243 897 C 1161 897 1098 873 1052 827 C 1006 780 972 713 952 627 L 1405 627 Z" />
<glyph horiz-adv-x="1188" unicode="Š" d="M 696 1460 C 828 1460 933 1437 1009 1393 C 1085 1349 1143 1286 1184 1206 L 977 1071 C 952 1125 917 1168 872 1202 C 826 1236 762 1253 678 1253 C 606 1253 545 1235 493 1199 C 441 1163 416 1111 416 1044 C 416 986 440 942 488 912 C 536 881 611 851 713 823 C 824 791 915 745 987 686 C 1058 626 1094 546 1094 444 C 1094 300 1040 186 932 101 C 824 15 691 -27 535 -27 C 382 -27 261 0 172 52 C 83 104 15 181 -33 283 L 184 412 C 212 341 252 285 306 244 C 360 202 431 182 520 182 C 608 182 681 198 739 232 C 797 265 827 320 827 397 C 827 452 805 493 762 521 C 719 549 650 576 555 604 C 429 640 331 688 261 748 C 191 808 156 887 156 985 C 156 1127 208 1242 312 1329 C 416 1416 544 1460 696 1460 Z M 922 1808 L 1094 1808 L 834 1521 L 586 1521 L 427 1808 L 586 1808 L 724 1640 L 922 1808 Z" />
<glyph horiz-adv-x="930" unicode="š" d="M 498 1061 C 604 1061 686 1041 746 1002 C 806 962 850 907 879 836 L 707 754 C 691 798 667 832 634 858 C 600 884 556 897 500 897 C 443 897 397 884 361 860 C 325 836 307 802 307 758 C 307 722 323 695 356 678 C 388 661 436 644 498 627 C 607 595 689 558 745 514 C 801 470 829 410 829 334 C 829 226 785 141 697 77 C 609 13 504 -18 381 -18 C 269 -18 178 2 110 43 C 41 84 -10 145 -45 227 L 127 313 C 145 265 174 225 213 195 C 251 165 305 150 375 150 C 443 150 498 161 540 184 C 581 207 602 241 602 287 C 602 323 587 350 557 369 C 527 387 474 407 397 428 C 285 457 204 494 154 540 C 103 585 78 643 78 715 C 78 815 119 897 202 963 C 284 1028 383 1061 498 1061 Z M 714 1434 L 886 1434 L 626 1147 L 378 1147 L 219 1434 L 378 1434 L 516 1266 L 714 1434 Z" />
<glyph horiz-adv-x="1206" unicode="Ÿ" d="M 492 1782 L 697 1782 L 658 1565 L 454 1565 L 492 1782 Z M 882 1782 L 1088 1782 L 1050 1565 L 845 1565 L 882 1782 Z M 1073 1434 L 1341 1434 L 723 606 L 616 0 L 354 0 L 455 580 L 121 1434 L 403 1434 L 627 809 L 1073 1434 Z" />
<glyph horiz-adv-x="1126" unicode="Ž" d="M 207 1434 L 1208 1434 L 1184 1288 L 293 215 L 1001 215 L 963 0 L -86 0 L -61 143 L 838 1219 L 170 1219 L 207 1434 Z M 901 1808 L 1073 1808 L 813 1521 L 565 1521 L 406 1808 L 565 1808 L 703 1640 L 901 1808 Z" />
<glyph horiz-adv-x="854" unicode="ž" d="M 127 1044 L 877 1044 L 852 913 L 223 166 L 731 166 L 705 0 L -84 0 L -61 137 L 561 874 L 96 874 L 127 1044 Z M 718 1434 L 890 1434 L 630 1147 L 382 1147 L 223 1434 L 382 1434 L 520 1266 L 718 1434 Z" />
<glyph horiz-adv-x="866" unicode="ƒ" d="M 674 1401 C 708 1401 740 1400 772 1398 C 803 1396 831 1393 856 1391 L 829 1229 C 822 1229 808 1229 786 1231 C 764 1232 747 1233 735 1233 C 694 1233 661 1223 636 1205 C 610 1186 594 1154 588 1108 L 561 952 L 750 952 L 719 786 L 535 786 C 499 584 468 411 444 267 C 420 123 408 51 408 51 C 392 -35 357 -102 303 -148 C 248 -194 178 -217 94 -217 C 58 -217 25 -216 -6 -214 C -37 -212 -65 -209 -90 -207 L -63 -45 C -56 -45 -41 -45 -19 -47 C 2 -48 19 -49 31 -49 C 73 -49 106 -39 131 -21 C 155 -2 172 30 180 76 C 180 76 191 144 214 280 C 237 416 267 584 303 786 L 152 786 L 182 954 L 334 954 L 362 1135 C 375 1220 409 1286 464 1332 C 518 1378 588 1401 674 1401 Z" />
<glyph horiz-adv-x="496" unicode="ʻ" d="M 424 1434 L 535 1434 L 352 1145 L 459 1145 L 412 883 L 147 883 L 186 1108 L 424 1434 Z" />
<glyph horiz-adv-x="496" unicode="ʼ" d="M 244 1434 L 508 1434 L 469 1206 L 229 883 L 121 883 L 301 1171 L 199 1171 L 244 1434 Z" />
<glyph horiz-adv-x="975" unicode="ˆ" d="M 752 1434 L 911 1147 L 752 1147 L 614 1315 L 418 1147 L 244 1147 L 506 1434 L 752 1434 Z" />
<glyph horiz-adv-x="975" unicode="ˇ" d="M 778 1434 L 950 1434 L 690 1147 L 442 1147 L 283 1434 L 442 1434 L 580 1266 L 778 1434 Z" />
<glyph horiz-adv-x="975" unicode="ˉ" d="M 301 1376 L 913 1376 L 887 1239 L 274 1239 L 301 1376 Z" />
<glyph horiz-adv-x="975" unicode="˘" d="M 774 1434 L 911 1434 C 882 1349 841 1278 787 1221 C 733 1163 659 1135 563 1135 C 472 1135 409 1161 373 1213 C 337 1265 321 1331 324 1413 L 324 1434 L 459 1434 C 459 1388 467 1350 483 1321 C 499 1292 534 1278 588 1278 C 642 1278 682 1292 707 1321 C 732 1350 754 1388 774 1434 Z" />
<glyph horiz-adv-x="975" unicode="˙" d="M 494 1417 L 731 1417 L 692 1196 L 453 1196 L 494 1417 Z" />
<glyph horiz-adv-x="975" unicode="˚" d="M 627 1556 C 691 1556 740 1538 774 1502 C 808 1466 825 1421 825 1368 C 825 1302 801 1247 753 1203 C 705 1159 646 1137 576 1137 C 512 1137 463 1154 427 1189 C 391 1224 373 1269 373 1323 C 373 1387 398 1441 448 1487 C 498 1533 557 1556 627 1556 Z M 576 1213 C 620 1211 652 1229 672 1269 C 692 1308 703 1348 703 1389 C 703 1416 696 1437 684 1453 C 672 1469 651 1478 623 1480 C 577 1478 545 1458 527 1420 C 509 1382 500 1343 500 1303 C 500 1276 505 1254 517 1236 C 528 1218 548 1211 576 1213 Z" />
<glyph horiz-adv-x="975" unicode="˜" d="M 813 1423 L 940 1423 C 918 1343 888 1282 850 1241 C 811 1200 763 1180 707 1180 C 665 1180 622 1196 578 1229 C 534 1261 499 1278 475 1278 C 450 1278 429 1269 411 1253 C 393 1236 381 1210 375 1174 L 250 1174 C 268 1252 297 1312 335 1354 C 373 1396 421 1417 479 1417 C 519 1417 562 1400 606 1366 C 650 1332 686 1315 713 1315 C 739 1315 761 1324 777 1344 C 793 1363 805 1389 813 1423 Z" />
<glyph horiz-adv-x="1300" unicode="π" d="M 139 1042 L 1282 1042 L 1253 864 L 1053 864 L 950 295 C 949 289 948 282 947 274 C 946 266 946 260 946 254 C 946 217 956 193 978 181 C 1000 169 1027 164 1059 164 C 1073 164 1087 164 1102 166 C 1117 168 1131 170 1145 172 L 1114 6 C 1084 0 1055 -6 1026 -12 C 996 -17 967 -20 938 -20 C 870 -20 815 -4 771 26 C 727 56 705 108 705 182 C 705 195 705 208 707 220 C 709 232 711 245 713 258 L 819 864 L 524 864 L 371 0 L 137 0 L 295 864 L 111 864 L 139 1042 Z" />
<glyph horiz-adv-x="700" unicode="‐" d="M 88 645 L 590 645 L 555 440 L 53 440 L 88 645 Z" />
<glyph horiz-adv-x="700" unicode="‑" d="M 88 645 L 590 645 L 555 440 L 53 440 L 88 645 Z" />
<glyph horiz-adv-x="1167" unicode="–" d="M 125 655 L 1024 655 L 991 469 L 92 469 L 125 655 Z" />
<glyph horiz-adv-x="2200" unicode="—" d="M 125 655 L 2056 655 L 2023 469 L 92 469 L 125 655 Z" />
<glyph horiz-adv-x="2085" unicode="―" d="M 1874 131 L 1874 0 L 66 0 L 66 131 L 1874 131 Z" />
<glyph horiz-adv-x="496" unicode="‘" d="M 424 1434 L 535 1434 L 352 1145 L 459 1145 L 412 883 L 147 883 L 186 1108 L 424 1434 Z" />
<glyph horiz-adv-x="496" unicode="’" d="M 244 1434 L 508 1434 L 469 1206 L 229 883 L 121 883 L 301 1171 L 199 1171 L 244 1434 Z" />
<glyph horiz-adv-x="496" unicode="‚" d="M 45 266 L 309 266 L 270 39 L 31 -287 L -80 -287 L 102 4 L -2 4 L 45 266 Z" />
<glyph horiz-adv-x="877" unicode="“" d="M 424 1434 L 535 1434 L 352 1145 L 459 1145 L 412 883 L 147 883 L 186 1108 L 424 1434 Z M 803 1434 L 913 1434 L 733 1145 L 838 1145 L 791 883 L 526 883 L 565 1108 L 803 1434 Z" />
<glyph horiz-adv-x="877" unicode="”" d="M 244 1434 L 508 1434 L 469 1206 L 229 883 L 121 883 L 301 1171 L 199 1171 L 244 1434 Z M 623 1434 L 887 1434 L 848 1206 L 610 883 L 500 883 L 682 1171 L 578 1171 L 623 1434 Z" />
<glyph horiz-adv-x="877" unicode="„" d="M 45 266 L 309 266 L 270 39 L 31 -287 L -80 -287 L 102 4 L -2 4 L 45 266 Z M 424 266 L 688 266 L 649 39 L 412 -287 L 301 -287 L 483 4 L 379 4 L 424 266 Z" />
<glyph horiz-adv-x="1118" unicode="†" d="M 649 1042 L 971 1092 L 928 838 L 637 979 L 668 696 L 457 -20 L 393 -8 L 444 737 L 573 991 L 252 958 L 297 1210 L 584 1053 L 555 1446 L 805 1401 L 649 1042 Z" />
<glyph horiz-adv-x="1118" unicode="‡" d="M 649 1042 L 971 1092 L 928 838 L 637 979 L 668 686 L 532 420 L 854 453 L 809 201 L 522 358 L 551 -37 L 301 10 L 457 369 L 135 319 L 178 573 L 469 432 L 438 727 L 573 991 L 252 958 L 297 1210 L 584 1053 L 555 1446 L 805 1401 L 649 1042 Z" />
<glyph horiz-adv-x="866" unicode="•" d="M 434 1114 C 542 1114 634 1074 712 996 C 790 918 829 825 829 717 C 829 609 790 515 712 437 C 634 358 542 319 434 319 C 325 319 232 358 154 437 C 76 515 37 609 37 717 C 37 825 76 918 154 996 C 232 1074 325 1114 434 1114 Z" />
<glyph horiz-adv-x="1751" unicode="…" d="M 80 283 L 358 283 L 307 0 L 29 0 L 80 283 Z M 664 283 L 942 283 L 891 0 L 613 0 L 664 283 Z M 1248 283 L 1526 283 L 1475 0 L 1197 0 L 1248 283 Z" />
<glyph horiz-adv-x="2542" unicode="‰" d="M 532 1401 C 624 1401 699 1370 758 1308 C 816 1246 846 1173 846 1090 C 846 992 806 904 728 825 C 650 746 559 707 455 707 C 359 707 283 737 226 799 C 169 861 141 932 141 1014 C 141 1120 181 1211 262 1287 C 342 1363 432 1401 532 1401 Z M 461 864 C 519 864 569 885 613 929 C 656 972 678 1024 678 1085 C 678 1131 664 1169 636 1199 C 608 1229 572 1245 528 1245 C 469 1245 418 1223 376 1181 C 333 1138 312 1086 313 1024 C 313 978 326 939 354 909 C 381 879 417 864 461 864 Z M 1300 674 C 1392 674 1467 642 1526 580 C 1584 518 1614 445 1614 362 C 1614 265 1574 177 1496 98 C 1418 19 1327 -20 1223 -20 C 1127 -20 1051 10 994 72 C 937 134 909 205 909 287 C 909 393 949 484 1030 560 C 1110 636 1200 674 1300 674 Z M 1229 137 C 1287 137 1337 158 1381 202 C 1424 245 1446 297 1446 358 C 1446 404 1432 442 1404 472 C 1376 502 1340 518 1296 518 C 1237 518 1186 496 1144 454 C 1101 411 1080 359 1081 297 C 1081 251 1094 212 1122 182 C 1149 152 1185 137 1229 137 Z M 2091 674 C 2182 674 2257 642 2316 580 C 2374 518 2404 445 2404 362 C 2404 265 2364 177 2286 98 C 2208 19 2117 -20 2013 -20 C 1918 -20 1842 10 1785 72 C 1728 134 1700 205 1700 287 C 1700 393 1740 484 1820 560 C 1900 636 1991 674 2091 674 Z M 2019 137 C 2077 137 2127 158 2171 202 C 2214 245 2236 297 2236 358 C 2236 404 2222 442 2195 472 C 2167 502 2131 518 2087 518 C 2027 518 1976 496 1934 454 C 1892 411 1871 359 1872 297 C 1872 251 1885 212 1912 182 C 1939 152 1975 137 2019 137 Z M 1413 1376 L 1571 1376 L 338 0 L 180 0 L 1413 1376 Z" />
<glyph horiz-adv-x="674" unicode="‹" d="M 485 950 L 604 848 L 270 541 L 496 233 L 344 150 L 78 504 L 94 596 L 485 950 Z" />
<glyph horiz-adv-x="674" unicode="›" d="M 285 950 L 553 596 L 537 504 L 143 150 L 27 252 L 360 559 L 135 866 L 285 950 Z" />
<glyph horiz-adv-x="383" unicode="⁄" d="M 786 1460 L 948 1460 L -379 -27 L -541 -27 L 786 1460 Z" />
<glyph horiz-adv-x="1167" unicode="€" d="M 786 1403 C 878 1403 960 1386 1032 1352 C 1103 1318 1160 1273 1202 1219 L 1030 1077 C 1004 1113 970 1144 928 1172 C 886 1200 836 1214 778 1214 C 708 1214 645 1187 590 1133 C 535 1079 491 999 457 893 L 854 893 L 831 766 L 422 766 C 420 755 418 744 416 733 C 414 721 412 710 410 700 C 406 681 403 662 400 642 C 397 622 395 603 395 584 L 731 584 L 709 459 L 391 459 C 396 363 418 290 457 240 C 495 189 553 164 629 164 C 677 164 728 178 782 208 C 836 238 880 269 913 301 L 1030 147 C 966 93 901 50 833 20 C 765 -9 687 -25 600 -25 C 466 -25 361 17 287 101 C 212 185 171 304 164 459 L 6 459 L 27 584 L 166 584 C 166 605 168 626 170 648 C 172 670 176 691 180 713 C 180 715 182 724 185 739 C 187 754 189 763 190 766 L 59 766 L 82 893 L 225 893 C 273 1049 346 1173 442 1265 C 538 1357 653 1403 786 1403 Z" />
<glyph horiz-adv-x="1014" unicode="™" d="M 987 1434 L 1004 993 L 915 993 L 903 1292 L 795 993 L 741 993 L 633 1292 L 616 993 L 530 993 L 555 1434 L 680 1434 L 770 1165 L 860 1434 L 987 1434 Z M 487 1434 L 487 1354 L 367 1354 L 367 993 L 274 993 L 274 1356 L 156 1356 L 156 1434 L 487 1434 Z" />
<glyph horiz-adv-x="2011" unicode="⅓" d="M 1538 848 C 1631 848 1703 827 1755 786 C 1807 745 1833 694 1833 633 C 1833 581 1813 539 1775 508 C 1737 476 1693 453 1645 438 C 1682 426 1716 402 1746 367 C 1776 332 1792 290 1792 240 C 1792 154 1751 89 1670 44 C 1589 0 1509 -23 1430 -23 C 1342 -23 1268 -9 1210 18 C 1152 45 1103 84 1065 135 L 1206 225 C 1228 192 1258 165 1296 145 C 1333 125 1376 115 1425 115 C 1461 115 1499 125 1540 146 C 1581 167 1602 202 1602 250 C 1602 286 1587 313 1559 330 C 1531 347 1494 356 1450 356 L 1358 356 L 1380 492 L 1468 492 C 1506 492 1545 500 1584 517 C 1622 533 1642 566 1642 614 C 1642 642 1632 665 1613 683 C 1594 701 1564 711 1522 711 C 1481 711 1441 701 1403 682 C 1364 662 1332 640 1307 616 L 1217 729 C 1275 775 1331 807 1385 823 C 1439 839 1490 848 1538 848 Z M 553 748 L 717 748 L 692 610 L 180 610 L 205 748 L 379 748 L 469 1255 L 287 1204 L 305 1319 C 365 1344 414 1366 453 1386 C 492 1405 534 1428 580 1456 L 678 1456 L 553 748 Z M 1577 1460 L 1735 1460 L 412 -27 L 254 -27 L 1577 1460 Z" />
<glyph horiz-adv-x="2011" unicode="⅔" d="M 1579 848 C 1672 848 1744 827 1796 786 C 1848 745 1874 694 1874 633 C 1874 581 1854 539 1815 508 C 1776 476 1732 453 1683 438 C 1721 426 1755 402 1786 367 C 1817 332 1833 290 1833 240 C 1833 154 1792 89 1711 44 C 1629 0 1549 -23 1470 -23 C 1382 -23 1309 -9 1250 18 C 1191 45 1142 84 1104 135 L 1247 225 C 1269 192 1299 165 1336 145 C 1372 125 1415 115 1464 115 C 1500 115 1538 125 1579 146 C 1619 167 1640 202 1640 250 C 1640 286 1626 313 1599 330 C 1571 347 1535 356 1489 356 L 1397 356 L 1421 492 L 1507 492 C 1547 492 1586 500 1625 517 C 1663 533 1683 566 1683 614 C 1683 642 1673 665 1654 683 C 1635 701 1605 711 1563 711 C 1521 711 1481 701 1443 682 C 1405 662 1372 640 1346 616 L 1255 729 C 1314 775 1371 807 1425 823 C 1479 839 1530 848 1579 848 Z M 584 1458 C 676 1458 748 1435 800 1389 C 851 1343 877 1284 877 1214 C 877 1144 853 1087 805 1043 C 757 998 704 955 647 913 C 611 887 568 861 520 834 C 471 807 425 782 383 760 L 801 760 L 776 612 L 119 612 L 139 729 C 207 773 268 812 322 847 C 376 881 428 916 477 952 C 515 980 559 1015 609 1059 C 659 1103 684 1154 684 1212 C 684 1242 673 1268 653 1288 C 633 1308 603 1319 563 1319 C 515 1319 471 1307 433 1284 C 394 1260 359 1234 328 1206 L 246 1325 C 302 1371 358 1404 412 1426 C 466 1447 524 1458 584 1458 Z M 1614 1460 L 1774 1460 L 451 -27 L 289 -27 L 1614 1460 Z" />
<glyph horiz-adv-x="2011" unicode="⅛" d="M 1524 848 C 1632 848 1713 827 1767 786 C 1820 745 1847 696 1847 639 C 1846 585 1827 544 1790 515 C 1752 486 1711 462 1665 444 C 1705 426 1739 399 1767 364 C 1795 328 1810 288 1810 242 C 1810 154 1771 88 1693 43 C 1615 -2 1535 -25 1452 -25 C 1336 -25 1247 -3 1186 39 C 1125 81 1095 135 1096 199 C 1096 253 1116 297 1158 330 C 1200 363 1249 390 1307 412 C 1273 431 1246 457 1226 489 C 1206 521 1196 555 1196 592 C 1196 673 1231 736 1302 781 C 1372 825 1446 848 1524 848 Z M 1442 106 C 1476 106 1514 114 1557 130 C 1600 146 1622 177 1622 223 C 1622 239 1617 256 1607 272 C 1597 288 1581 302 1561 313 C 1543 322 1522 331 1498 339 C 1474 347 1447 355 1417 362 C 1386 352 1354 335 1321 312 C 1288 289 1272 257 1272 217 C 1272 185 1287 159 1317 138 C 1347 116 1388 106 1442 106 Z M 1550 487 C 1576 497 1604 513 1632 534 C 1660 555 1674 584 1675 621 C 1675 647 1663 670 1640 690 C 1616 709 1580 719 1532 719 C 1502 719 1469 711 1433 697 C 1396 682 1378 654 1378 614 C 1378 598 1382 582 1390 568 C 1398 553 1410 541 1427 532 C 1442 523 1460 515 1481 508 C 1501 501 1524 494 1550 487 Z M 557 748 L 721 748 L 696 610 L 182 610 L 207 748 L 383 748 L 471 1255 L 289 1204 L 309 1319 C 369 1344 418 1366 457 1386 C 496 1405 538 1428 582 1456 L 682 1456 L 557 748 Z M 1583 1460 L 1745 1460 L 420 -27 L 260 -27 L 1583 1460 Z" />
<glyph horiz-adv-x="2011" unicode="⅜" d="M 588 1460 C 681 1460 753 1439 805 1397 C 857 1355 883 1305 883 1245 C 883 1192 863 1150 824 1119 C 785 1088 741 1065 692 1051 C 730 1038 764 1014 795 978 C 826 942 842 900 842 852 C 842 765 801 700 720 657 C 638 613 558 592 479 592 C 391 592 318 605 259 631 C 200 657 152 696 115 748 L 256 838 C 279 804 309 777 345 757 C 381 737 424 727 473 727 C 509 727 547 737 589 758 C 630 779 651 814 651 862 C 651 898 637 925 609 942 C 581 958 544 967 498 967 L 408 967 L 430 1104 L 516 1104 C 556 1104 595 1112 634 1129 C 672 1146 692 1179 692 1227 C 692 1254 682 1277 663 1295 C 643 1313 613 1323 571 1323 C 529 1323 489 1313 451 1294 C 413 1275 380 1253 354 1229 L 264 1341 C 323 1388 380 1420 434 1436 C 488 1452 540 1460 588 1460 Z M 1540 848 C 1648 848 1729 827 1783 786 C 1837 745 1864 696 1864 639 C 1864 587 1845 546 1807 516 C 1769 486 1727 462 1681 444 C 1721 426 1755 399 1784 364 C 1812 328 1827 288 1827 242 C 1827 154 1788 88 1710 43 C 1632 -2 1551 -25 1468 -25 C 1351 -25 1262 -3 1201 39 C 1140 81 1110 135 1110 199 C 1110 253 1131 297 1173 330 C 1215 363 1265 390 1321 412 C 1288 431 1261 457 1241 489 C 1220 521 1210 555 1210 592 C 1210 673 1245 736 1316 781 C 1386 825 1461 848 1540 848 Z M 1458 106 C 1492 106 1531 114 1574 130 C 1616 146 1638 177 1638 223 C 1638 239 1632 256 1622 272 C 1612 288 1596 302 1575 313 C 1558 322 1538 331 1514 339 C 1490 347 1463 355 1434 362 C 1403 352 1371 335 1337 312 C 1303 289 1286 257 1286 217 C 1286 185 1301 159 1332 138 C 1363 116 1405 106 1458 106 Z M 1567 487 C 1592 497 1619 513 1648 534 C 1676 555 1691 584 1692 621 C 1692 647 1680 670 1656 690 C 1632 709 1596 719 1546 719 C 1517 719 1484 711 1448 697 C 1411 682 1393 654 1393 614 C 1393 597 1397 581 1405 567 C 1413 553 1426 541 1444 532 C 1458 523 1476 515 1497 508 C 1518 501 1541 494 1567 487 Z M 1604 1460 L 1763 1460 L 440 -27 L 281 -27 L 1604 1460 Z" />
<glyph horiz-adv-x="2011" unicode="⅝" d="M 356 1444 L 913 1444 L 870 1296 L 463 1296 L 412 1114 C 435 1127 463 1139 495 1149 C 527 1159 562 1165 598 1165 C 669 1165 731 1142 783 1097 C 835 1052 862 993 862 920 C 862 826 824 748 748 686 C 672 623 586 592 492 592 C 406 592 335 605 281 633 C 226 660 179 700 139 752 L 272 836 C 294 804 323 777 359 757 C 394 737 433 727 475 727 C 523 727 567 742 609 772 C 651 802 672 845 672 901 C 672 939 659 969 633 992 C 607 1014 575 1026 535 1026 C 500 1026 467 1020 435 1009 C 403 997 374 980 348 958 L 242 1032 L 356 1444 Z M 1540 848 C 1648 848 1729 827 1783 786 C 1836 745 1862 696 1862 639 C 1862 587 1843 546 1806 516 C 1768 486 1727 462 1681 444 C 1721 426 1755 399 1784 364 C 1812 328 1827 288 1827 242 C 1827 154 1788 88 1710 43 C 1632 -2 1550 -25 1466 -25 C 1350 -25 1261 -3 1201 39 C 1141 81 1111 135 1112 199 C 1112 253 1132 297 1174 330 C 1216 363 1265 390 1323 412 C 1289 431 1262 457 1242 489 C 1222 521 1212 555 1212 592 C 1212 673 1247 736 1318 781 C 1388 825 1462 848 1540 848 Z M 1458 106 C 1492 106 1531 114 1574 130 C 1616 146 1638 177 1638 223 C 1638 239 1632 256 1622 272 C 1612 288 1596 302 1575 313 C 1558 322 1538 331 1514 339 C 1490 347 1463 355 1434 362 C 1402 352 1369 335 1337 312 C 1304 289 1288 257 1288 217 C 1288 185 1303 159 1333 138 C 1363 116 1405 106 1458 106 Z M 1567 487 C 1592 497 1619 513 1648 534 C 1676 555 1691 584 1692 621 C 1692 647 1680 670 1656 690 C 1632 709 1596 719 1548 719 C 1518 719 1485 711 1448 697 C 1411 682 1393 654 1393 614 C 1393 597 1397 581 1405 567 C 1413 553 1426 541 1444 532 C 1458 523 1476 515 1497 508 C 1518 501 1541 494 1567 487 Z M 1604 1460 L 1763 1460 L 440 -27 L 281 -27 L 1604 1460 Z" />
<glyph horiz-adv-x="2011" unicode="⅞" d="M 1493 848 C 1601 848 1682 827 1735 786 C 1788 745 1815 696 1815 639 C 1815 585 1796 544 1759 515 C 1721 486 1680 462 1634 444 C 1674 426 1708 399 1736 364 C 1764 328 1778 288 1778 242 C 1778 154 1739 88 1661 43 C 1583 -2 1502 -25 1419 -25 C 1303 -25 1214 -3 1154 39 C 1093 81 1063 135 1063 199 C 1063 253 1084 297 1126 330 C 1168 363 1218 390 1274 412 C 1241 431 1214 457 1194 489 C 1173 521 1163 555 1163 592 C 1163 673 1198 736 1269 781 C 1339 825 1414 848 1493 848 Z M 352 1444 L 983 1444 L 967 1343 C 901 1265 844 1196 797 1135 C 749 1073 707 1009 670 942 C 636 884 608 830 588 780 C 567 730 549 672 535 606 L 328 606 C 346 663 366 715 388 761 C 410 807 435 854 465 901 C 509 970 555 1036 605 1099 C 654 1162 708 1226 768 1292 L 309 1292 L 352 1444 Z M 1411 106 C 1445 106 1484 114 1527 130 C 1569 146 1591 177 1591 223 C 1591 239 1585 256 1575 272 C 1565 288 1549 302 1528 313 C 1510 322 1490 331 1466 339 C 1442 347 1416 355 1386 362 C 1354 352 1322 335 1289 312 C 1255 289 1239 257 1239 217 C 1239 185 1254 159 1285 138 C 1316 116 1358 106 1411 106 Z M 1520 487 C 1545 497 1572 513 1600 534 C 1628 555 1643 584 1645 621 C 1645 647 1632 670 1608 690 C 1584 709 1547 719 1499 719 C 1470 719 1437 711 1401 697 C 1364 682 1346 654 1346 614 C 1346 597 1350 581 1358 567 C 1366 553 1379 541 1397 532 C 1411 523 1428 515 1449 508 C 1469 501 1493 494 1520 487 Z M 1528 1460 L 1686 1460 L 362 -27 L 203 -27 L 1528 1460 Z" />
<glyph horiz-adv-x="1167" unicode="−" d="M 1059 649 L 1059 473 L 111 473 L 111 649 L 1059 649 Z" />
<glyph horiz-adv-x="1137" unicode="∕" d="M 963 1434 L 1143 1434 L 8 -317 L -172 -317 L 963 1434 Z" />
<glyph horiz-adv-x="625" unicode="∙" d="M 297 723 C 341 723 379 707 411 675 C 443 643 459 605 459 563 C 459 519 443 481 411 449 C 379 417 341 401 297 401 C 252 401 214 417 184 449 C 154 481 139 519 139 563 C 139 605 154 643 184 675 C 214 707 252 723 297 723 Z" />
<glyph horiz-adv-x="1556" unicode="√" d="M 1362 1497 L 1538 1497 L 842 -57 L 721 -57 L 420 760 L 193 657 L 143 776 L 567 971 L 819 264 L 1362 1497 Z" />
<glyph horiz-adv-x="1661" unicode="∞" d="M 1174 997 C 1279 997 1363 956 1425 876 C 1487 796 1518 694 1518 571 C 1518 424 1482 314 1410 240 C 1338 166 1249 129 1145 129 C 1075 129 1011 150 953 192 C 894 234 847 292 811 365 C 769 286 719 227 663 188 C 607 148 542 129 469 129 C 362 129 278 168 216 248 C 154 328 123 429 123 553 C 123 699 159 809 231 884 C 303 959 391 997 496 997 C 566 997 630 975 688 932 C 746 889 793 832 829 760 C 871 837 920 896 977 936 C 1033 976 1099 997 1174 997 Z M 678 471 C 692 497 706 522 718 545 C 730 567 742 595 756 627 C 724 689 686 734 642 763 C 598 792 554 807 508 807 C 440 807 388 785 351 742 C 313 699 295 636 295 553 C 295 481 310 424 340 381 C 370 338 413 317 471 317 C 523 317 563 330 592 356 C 620 382 649 420 678 471 Z M 1133 317 C 1199 317 1251 338 1289 381 C 1327 424 1346 487 1346 571 C 1346 642 1330 699 1300 742 C 1270 785 1226 807 1169 807 C 1116 807 1075 794 1047 770 C 1018 745 988 707 958 655 C 944 629 930 604 918 578 C 906 552 895 526 885 500 C 916 438 954 392 998 362 C 1042 332 1087 317 1133 317 Z" />
<glyph horiz-adv-x="1167" unicode="≈" d="M 1059 963 C 1049 848 1021 760 973 699 C 925 638 856 608 768 608 C 730 608 693 615 658 630 C 623 645 590 665 559 690 C 551 697 543 704 536 710 C 528 716 521 721 514 727 C 496 740 478 752 458 763 C 438 774 417 780 395 780 C 353 780 322 763 304 731 C 285 699 275 656 274 604 L 106 604 C 112 716 140 802 189 863 C 237 923 306 954 395 954 C 418 954 440 951 461 946 C 482 941 502 934 521 926 C 539 918 557 908 573 898 C 589 887 605 876 621 864 C 633 854 644 845 656 836 C 668 827 680 819 694 811 C 706 803 719 796 732 791 C 744 786 757 784 770 784 C 790 784 808 788 823 798 C 838 807 850 820 860 836 C 869 852 876 871 881 893 C 885 915 888 938 889 963 L 1059 963 Z M 1059 535 C 1049 420 1021 332 973 271 C 925 210 856 180 768 180 C 730 180 693 187 658 202 C 623 217 590 237 559 262 C 551 269 543 276 536 282 C 528 288 521 293 514 299 C 496 312 478 324 458 335 C 438 346 417 352 395 352 C 353 352 322 335 304 303 C 285 271 275 228 274 176 L 106 176 C 112 288 140 374 189 435 C 237 495 306 526 395 526 C 418 526 440 523 461 518 C 482 513 502 506 521 498 C 539 490 557 480 573 470 C 589 459 605 448 621 436 C 633 426 644 417 656 408 C 668 399 680 391 694 383 C 706 375 719 368 732 363 C 744 358 757 356 770 356 C 790 356 808 360 823 370 C 838 379 850 392 860 408 C 869 424 876 443 881 465 C 885 487 888 510 889 535 L 1059 535 Z" />
<glyph horiz-adv-x="1167" unicode="≠" d="M 1049 291 L 555 291 L 438 0 L 268 0 L 383 291 L 113 291 L 113 467 L 455 467 L 535 668 L 113 668 L 113 844 L 606 844 L 723 1135 L 895 1135 L 778 844 L 1049 844 L 1049 668 L 707 668 L 625 467 L 1049 467 L 1049 291 Z" />
<glyph horiz-adv-x="1167" unicode="≤" d="M 1057 305 L 96 729 L 96 840 L 1057 1262 L 1057 1053 L 401 786 L 1057 514 L 1057 305 Z M 1057 0 L 96 0 L 96 176 L 1057 176 L 1057 0 Z" />
<glyph horiz-adv-x="1167" unicode="≥" d="M 1063 729 L 102 305 L 102 514 L 758 786 L 102 1053 L 102 1262 L 1063 840 L 1063 729 Z M 1065 0 L 104 0 L 104 176 L 1065 176 L 1065 0 Z" />
<glyph horiz-adv-x="1096" unicode="■" d="M 987 1153 L 987 274 L 109 274 L 109 1153 L 987 1153 Z" />
<glyph horiz-adv-x="1200" unicode="▲" d="M 600 1286 L 1159 156 L 41 156 L 600 1286 Z" />
<glyph horiz-adv-x="1239" unicode="▶" d="M 109 1276 L 1239 717 L 109 158 L 109 1276 Z" />
<glyph horiz-adv-x="1200" unicode="▼" d="M 41 1264 L 1159 1264 L 600 133 L 41 1264 Z" />
<glyph horiz-adv-x="1239" unicode="◀" d="M 1130 1276 L 1130 158 L 0 717 L 1130 1276 Z" />
<glyph horiz-adv-x="993" unicode="◊" d="M 545 1386 L 905 707 L 545 0 L 434 0 L 72 707 L 434 1386 L 545 1386 Z M 489 100 L 793 707 L 489 1286 L 182 707 L 489 100 Z" />
<glyph horiz-adv-x="1548" unicode="⬤" d="M 1516 741 C 1516 672 1507 606 1489 543 C 1471 480 1447 421 1415 367 C 1383 311 1344 261 1299 216 C 1254 171 1204 133 1150 101 C 1094 69 1035 44 972 26 C 908 8 842 0 774 0 C 705 0 639 8 576 26 C 512 44 453 69 399 101 C 343 133 293 171 249 216 C 204 261 166 311 134 367 C 102 421 77 480 59 543 C 41 606 33 672 33 741 C 33 809 41 875 59 939 C 77 1002 102 1061 134 1116 C 166 1170 204 1220 249 1265 C 293 1310 343 1349 399 1381 C 453 1413 512 1437 576 1455 C 639 1472 705 1481 774 1481 C 842 1481 908 1472 972 1455 C 1035 1437 1094 1413 1150 1381 C 1204 1349 1254 1310 1299 1265 C 1344 1220 1383 1170 1415 1116 C 1447 1061 1471 1002 1489 939 C 1507 875 1516 809 1516 741 Z" />
<glyph horiz-adv-x="1137" unicode="ﬁ" d="M 830 1044 L 1067 1044 L 883 0 L 645 0 L 830 1044 Z M 897 1438 L 1139 1438 L 1100 1214 L 858 1214 L 897 1438 Z M 569 1444 C 603 1444 636 1443 668 1441 C 699 1439 727 1436 752 1434 L 725 1270 C 718 1270 704 1271 682 1273 C 660 1275 643 1276 631 1276 C 590 1276 558 1267 534 1249 C 510 1231 493 1199 485 1155 L 467 1040 L 651 1040 L 623 877 L 440 877 L 289 0 L 53 0 L 205 877 L 53 877 L 84 1044 L 236 1044 L 258 1180 C 272 1266 306 1332 360 1376 C 414 1420 483 1443 569 1444 Z" />
<glyph horiz-adv-x="1137" unicode="ﬂ" d="M 569 1444 C 603 1444 636 1443 668 1441 C 699 1439 727 1436 752 1434 L 725 1270 C 718 1270 704 1271 682 1273 C 660 1275 643 1276 631 1276 C 590 1276 558 1267 534 1249 C 510 1231 493 1199 485 1155 L 467 1040 L 651 1040 L 623 877 L 440 877 L 289 0 L 53 0 L 205 877 L 53 877 L 84 1044 L 236 1044 L 258 1180 C 272 1266 306 1332 360 1376 C 414 1420 483 1443 569 1444 Z M 899 1434 L 1137 1434 L 885 0 L 647 0 L 899 1434 Z" />
</font>
</defs>
</svg>
