<?xml version="1.0" encoding="utf-8" ?><svg version="1.1" xmlns = 'http://www.w3.org/2000/svg'><defs><font id='web' horiz-adv-x="1000">
<font-face font-family="web" descent="-477" x-height="1042" ascent="1571" units-per-em="2048" cap-height="1434" bbox="-537,-377,2300,1905" />
<missing-glyph horiz-adv-x="584" d="" /><glyph horiz-adv-x="496" unicode=" " d="" />
<glyph horiz-adv-x="627" unicode="!" d="M 117 227 L 342 227 L 301 0 L 76 0 L 117 227 Z M 328 1434 L 553 1434 L 299 373 L 209 373 L 328 1434 Z" />
<glyph horiz-adv-x="829" unicode="&#x22;" d="M 252 1434 L 485 1434 L 311 911 L 242 911 L 252 1434 Z M 598 1434 L 831 1434 L 657 911 L 588 911 L 598 1434 Z" />
<glyph horiz-adv-x="1167" unicode="#" d="M 866 854 L 1069 854 L 1053 741 L 852 741 L 813 487 L 1016 487 L 999 377 L 799 377 L 748 0 L 629 0 L 680 377 L 422 377 L 369 0 L 252 0 L 303 377 L 100 377 L 117 487 L 319 487 L 354 741 L 152 741 L 168 854 L 369 854 L 422 1229 L 543 1229 L 489 854 L 748 854 L 799 1229 L 918 1229 L 866 854 Z M 696 487 L 729 741 L 473 741 L 438 487 L 696 487 Z" />
<glyph horiz-adv-x="1167" unicode="$" d="M 750 1335 C 845 1324 922 1301 981 1265 C 1040 1229 1084 1187 1112 1141 L 989 1038 C 965 1075 931 1110 886 1143 C 841 1175 787 1196 723 1204 L 643 754 C 774 715 870 667 930 611 C 990 555 1020 488 1020 410 C 1020 284 971 182 874 104 C 777 26 658 -12 516 -12 L 512 -12 L 477 -213 L 367 -213 L 403 -6 C 299 6 214 34 148 78 C 82 122 30 176 -6 240 L 131 330 C 160 279 200 234 250 194 C 300 154 360 130 430 121 L 514 604 C 402 636 316 679 256 735 C 196 791 166 860 166 944 C 166 1060 209 1153 296 1224 C 383 1295 497 1333 639 1339 L 670 1509 L 780 1509 L 750 1335 Z M 547 782 L 621 1206 C 538 1199 470 1176 417 1138 C 364 1100 338 1046 338 977 C 338 933 354 895 386 865 C 418 834 472 806 547 782 Z M 532 119 C 626 123 702 147 760 189 C 817 231 846 291 846 369 C 846 415 828 455 794 489 C 759 522 698 552 612 578 L 532 119 Z" />
<glyph horiz-adv-x="1751" unicode="%" d="M 578 1401 C 665 1401 735 1372 789 1315 C 843 1258 870 1190 870 1112 C 870 1022 834 939 762 863 C 690 786 606 748 508 748 C 417 748 344 776 290 834 C 236 891 209 958 209 1036 C 209 1128 245 1211 318 1287 C 391 1363 478 1401 578 1401 Z M 506 881 C 564 881 615 902 660 945 C 704 988 727 1040 727 1102 C 727 1150 712 1189 684 1221 C 656 1252 619 1268 573 1268 C 513 1268 461 1246 418 1202 C 375 1158 354 1106 354 1044 C 354 997 367 958 395 927 C 423 896 460 881 506 881 Z M 1247 631 C 1334 631 1405 602 1459 545 C 1513 488 1540 420 1540 342 C 1540 252 1504 169 1432 92 C 1360 15 1275 -23 1178 -23 C 1086 -23 1014 5 960 63 C 906 121 879 188 879 266 C 879 358 915 441 988 517 C 1061 593 1147 631 1247 631 Z M 1176 111 C 1234 111 1285 132 1330 175 C 1374 218 1397 270 1397 332 C 1397 380 1382 419 1354 451 C 1326 482 1289 498 1243 498 C 1183 498 1131 476 1088 432 C 1045 388 1024 336 1024 274 C 1024 227 1037 188 1065 157 C 1093 126 1130 111 1176 111 Z M 1421 1376 L 1561 1376 L 324 0 L 186 0 L 1421 1376 Z" />
<glyph horiz-adv-x="1348" unicode="&#x26;" d="M 1128 813 L 1284 770 C 1253 685 1210 597 1156 507 C 1102 417 1037 332 961 254 C 985 219 1014 192 1048 173 C 1082 154 1117 145 1155 145 C 1164 145 1174 145 1185 145 C 1195 145 1210 147 1229 150 L 1202 -6 C 1180 -10 1164 -13 1154 -14 C 1144 -15 1130 -16 1114 -16 C 1050 -16 996 -6 951 16 C 905 38 861 75 819 127 C 766 82 704 46 633 18 C 562 -9 494 -23 428 -23 C 298 -21 196 15 122 87 C 47 159 10 247 10 350 C 10 466 47 563 123 642 C 199 721 299 783 424 827 C 393 886 371 939 357 986 C 343 1033 336 1078 336 1120 C 336 1218 373 1300 448 1365 C 523 1429 613 1462 717 1462 C 821 1462 901 1434 957 1379 C 1012 1323 1040 1258 1040 1182 C 1040 1087 1004 1007 933 942 C 861 877 771 824 662 784 C 668 776 704 707 772 577 C 840 447 877 377 885 367 C 941 427 989 497 1030 577 C 1070 657 1103 735 1128 813 Z M 600 889 C 670 914 732 950 786 998 C 839 1046 866 1103 866 1171 C 866 1213 852 1248 824 1277 C 796 1306 757 1321 709 1321 C 655 1321 610 1304 574 1270 C 538 1236 520 1191 520 1133 C 520 1094 527 1054 543 1013 C 558 972 577 931 600 889 Z M 449 131 C 499 131 549 139 598 157 C 646 175 694 204 741 244 L 487 715 C 403 679 336 633 285 576 C 234 518 209 451 209 373 C 209 307 230 250 272 202 C 314 154 373 131 449 131 Z" />
<glyph horiz-adv-x="481" unicode="'" d="M 252 1434 L 485 1434 L 311 911 L 242 911 L 252 1434 Z" />
<glyph horiz-adv-x="698" unicode="(" d="M 612 1434 L 750 1434 C 632 1295 538 1154 468 1011 C 397 867 348 719 322 565 C 313 520 307 475 303 430 C 299 385 297 341 297 299 C 297 194 309 91 334 -9 C 358 -109 396 -208 446 -305 L 307 -305 C 243 -205 196 -100 164 9 C 132 119 117 231 117 346 C 117 386 119 426 123 466 C 127 506 132 546 139 586 C 167 742 220 888 298 1026 C 376 1164 480 1300 612 1434 Z" />
<glyph horiz-adv-x="698" unicode=")" d="M 340 1434 C 405 1334 453 1229 484 1119 C 514 1009 530 896 530 782 C 530 744 528 705 525 665 C 521 625 516 585 510 545 C 481 387 428 239 350 101 C 272 -36 167 -171 35 -305 L -102 -305 C 12 -169 105 -30 177 114 C 249 258 300 408 328 565 C 336 609 342 653 346 697 C 350 741 352 784 352 827 C 352 931 339 1034 315 1135 C 290 1236 253 1336 203 1434 L 340 1434 Z" />
<glyph horiz-adv-x="1100" unicode="*" d="M 948 1202 L 969 1030 L 645 1040 L 838 780 L 678 700 L 592 1022 L 397 750 L 272 879 L 547 1059 L 236 1159 L 315 1313 L 578 1112 L 575 1444 L 748 1413 L 635 1104 L 948 1202 Z" />
<glyph horiz-adv-x="1167" unicode="+" d="M 1059 625 L 1059 477 L 649 477 L 649 68 L 502 68 L 502 477 L 92 477 L 92 625 L 502 625 L 502 1034 L 649 1034 L 649 625 L 1059 625 Z" />
<glyph horiz-adv-x="584" unicode="," d="M 98 240 L 326 240 L 287 29 L 78 -268 L -18 -268 L 156 6 L 57 6 L 98 240 Z" />
<glyph horiz-adv-x="702" unicode="-" d="M 94 625 L 580 625 L 551 463 L 66 463 L 94 625 Z" />
<glyph horiz-adv-x="584" unicode="." d="M 96 240 L 326 240 L 283 0 L 53 0 L 96 240 Z" />
<glyph horiz-adv-x="1047" unicode="/" d="M 942 1434 L 1083 1434 L -51 -317 L -193 -317 L 942 1434 Z" />
<glyph horiz-adv-x="1167" unicode="0" d="M 686 1401 C 822 1401 927 1352 1000 1255 C 1073 1158 1110 1029 1110 868 C 1110 834 1108 798 1105 760 C 1101 722 1096 683 1090 643 C 1050 417 973 250 860 141 C 747 31 621 -23 483 -23 C 345 -23 238 25 163 122 C 88 218 51 348 51 512 C 51 546 52 582 56 619 C 59 656 64 694 72 733 C 112 956 187 1123 299 1234 C 411 1345 540 1401 686 1401 Z M 897 659 C 903 701 909 742 913 782 C 917 821 920 858 920 893 C 920 1007 899 1096 858 1159 C 817 1221 758 1253 682 1253 C 580 1253 492 1210 420 1124 C 347 1038 294 901 262 715 C 255 672 250 631 246 592 C 242 553 240 517 240 483 C 240 367 260 277 302 215 C 343 152 403 121 481 121 C 579 121 664 163 737 249 C 809 335 863 471 897 659 Z" />
<glyph horiz-adv-x="1167" unicode="1" d="M 625 145 L 897 145 L 870 0 L 127 0 L 154 145 L 446 145 L 625 1163 L 301 1040 L 322 1161 C 419 1207 493 1244 545 1272 C 597 1300 657 1337 725 1384 L 842 1384 L 625 145 Z" />
<glyph horiz-adv-x="1167" unicode="2" d="M 678 1401 C 790 1401 887 1369 971 1305 C 1054 1241 1096 1149 1096 1030 C 1096 914 1055 808 975 712 C 894 616 798 529 688 451 C 617 401 545 352 473 306 C 401 259 330 212 260 164 L 963 164 L 934 0 L -33 0 L -10 127 C 73 196 162 262 257 326 C 352 389 445 452 537 516 C 647 591 735 669 803 749 C 871 829 905 919 905 1018 C 905 1092 881 1148 835 1187 C 789 1225 730 1245 659 1245 C 571 1245 498 1219 438 1168 C 378 1117 331 1049 297 965 L 131 1022 C 186 1138 259 1230 350 1298 C 440 1366 550 1401 678 1401 Z" />
<glyph horiz-adv-x="1167" unicode="3" d="M 684 1401 C 788 1401 881 1371 963 1311 C 1044 1251 1085 1171 1085 1069 C 1085 979 1054 903 994 843 C 934 783 857 739 764 713 C 835 696 894 661 940 607 C 986 553 1010 489 1010 414 C 1010 284 954 179 844 98 C 733 17 606 -23 463 -23 C 356 -23 259 2 171 54 C 83 106 17 185 -27 291 L 137 365 C 169 291 215 233 273 191 C 331 148 399 127 477 127 C 574 127 655 152 720 202 C 784 252 817 322 817 412 C 817 490 790 546 736 580 C 682 614 620 631 549 631 L 358 631 L 385 782 L 571 782 C 652 782 726 806 794 854 C 861 902 895 965 895 1044 C 895 1110 872 1161 827 1197 C 781 1233 724 1251 655 1251 C 577 1251 509 1226 453 1178 C 396 1130 351 1073 317 1008 L 160 1073 C 214 1173 285 1252 373 1312 C 461 1371 564 1401 684 1401 Z" />
<glyph horiz-adv-x="1167" unicode="4" d="M 860 481 L 1104 481 L 1079 336 L 836 336 L 774 -8 L 606 -8 L 668 336 L -12 336 L 8 453 L 850 1399 L 1022 1399 L 860 481 Z M 694 481 L 817 1178 L 195 481 L 694 481 Z" />
<glyph horiz-adv-x="1167" unicode="5" d="M 332 1376 L 1137 1376 L 1092 1214 L 444 1214 L 322 803 C 362 836 412 863 473 884 C 534 904 591 915 643 915 C 760 915 856 878 931 806 C 1006 734 1044 638 1044 520 C 1044 362 986 232 871 130 C 756 28 625 -23 479 -23 C 367 -23 271 1 191 51 C 111 101 48 178 0 283 L 166 356 C 198 284 241 227 295 187 C 349 147 415 127 494 127 C 596 127 682 163 750 236 C 818 308 852 395 852 496 C 852 575 828 639 782 689 C 736 739 672 764 592 764 C 528 764 469 751 413 726 C 357 700 306 667 260 625 L 147 707 L 332 1376 Z" />
<glyph horiz-adv-x="1167" unicode="6" d="M 750 1401 C 852 1401 939 1376 1009 1327 C 1079 1278 1128 1210 1157 1122 L 993 1051 C 972 1113 941 1163 899 1199 C 857 1235 804 1253 739 1253 C 631 1253 537 1211 457 1127 C 377 1043 318 919 281 756 C 341 799 401 833 462 857 C 522 881 594 893 676 893 C 788 893 879 857 950 786 C 1021 714 1057 623 1057 512 C 1057 365 1004 239 899 134 C 793 29 669 -23 526 -23 C 381 -23 268 22 187 113 C 106 203 66 330 66 492 C 66 521 67 552 70 584 C 73 616 78 650 84 684 C 124 909 203 1085 323 1211 C 442 1337 584 1401 750 1401 Z M 514 121 C 613 121 696 157 763 229 C 830 301 864 390 864 494 C 864 566 842 627 798 675 C 754 723 700 748 635 748 C 559 748 487 733 420 705 C 352 677 296 640 252 594 C 249 572 247 551 246 531 C 244 510 244 490 244 471 C 244 357 268 270 317 210 C 365 150 431 121 514 121 Z" />
<glyph horiz-adv-x="1167" unicode="7" d="M 223 1376 L 1208 1376 L 1188 1255 C 1001 1049 845 851 720 663 C 594 474 494 253 420 0 L 213 0 C 287 226 402 449 558 669 C 714 889 861 1071 1001 1214 L 178 1214 L 223 1376 Z" />
<glyph horiz-adv-x="1167" unicode="8" d="M 698 1401 C 833 1401 937 1372 1009 1315 C 1081 1257 1118 1183 1118 1092 C 1118 1002 1088 926 1029 862 C 970 798 896 749 807 713 C 886 677 946 632 988 580 C 1030 527 1051 466 1051 397 C 1051 269 995 167 885 89 C 775 11 646 -27 498 -27 C 346 -27 228 4 145 66 C 61 128 20 209 20 311 C 20 404 52 484 118 552 C 183 619 272 673 385 715 C 321 745 272 784 237 832 C 201 879 184 933 184 995 C 184 1114 235 1211 338 1287 C 441 1363 561 1401 698 1401 Z M 494 113 C 596 113 683 134 753 177 C 823 219 858 283 858 369 C 858 432 829 488 772 538 C 715 588 624 627 500 655 C 416 631 345 591 288 535 C 231 479 203 410 203 330 C 203 268 227 216 277 175 C 326 133 398 113 494 113 Z M 688 756 C 754 782 813 822 864 875 C 914 927 940 987 940 1055 C 940 1114 919 1163 877 1203 C 835 1242 769 1262 680 1262 C 592 1262 520 1242 462 1204 C 404 1166 375 1109 375 1034 C 375 981 399 929 447 877 C 495 825 576 784 688 756 Z" />
<glyph horiz-adv-x="1167" unicode="9" d="M 631 1401 C 779 1401 893 1354 973 1261 C 1052 1168 1092 1043 1092 887 C 1092 857 1090 825 1087 793 C 1083 761 1079 728 1073 694 C 1033 467 953 291 835 165 C 716 39 578 -23 422 -23 C 315 -23 226 3 155 55 C 83 107 32 174 0 256 L 162 328 C 189 265 225 215 270 179 C 314 143 370 125 436 125 C 528 125 615 166 697 249 C 779 332 839 457 877 623 C 815 580 754 546 694 522 C 634 497 563 485 483 485 C 368 485 275 521 205 594 C 135 667 100 758 100 866 C 100 1010 151 1136 254 1242 C 356 1348 482 1401 631 1401 Z M 905 784 C 907 805 909 826 911 847 C 912 867 913 887 913 907 C 913 1021 888 1108 838 1168 C 788 1227 726 1257 651 1257 C 543 1257 456 1221 391 1149 C 325 1077 293 989 293 885 C 293 813 314 753 358 704 C 401 655 458 631 528 631 C 607 631 680 646 746 678 C 812 709 865 744 905 784 Z" />
<glyph horiz-adv-x="688" unicode=":" d="M 152 240 L 379 240 L 336 0 L 109 0 L 152 240 Z M 293 1040 L 520 1040 L 477 801 L 250 801 L 293 1040 Z" />
<glyph horiz-adv-x="688" unicode=";" d="M 152 240 L 379 240 L 340 29 L 129 -268 L 33 -268 L 207 6 L 111 6 L 152 240 Z M 293 1040 L 520 1040 L 477 801 L 250 801 L 293 1040 Z" />
<glyph horiz-adv-x="1167" unicode="&#x3C;" d="M 1010 166 L 1010 -10 L 119 502 L 119 602 L 1010 1110 L 1010 934 L 322 551 L 1010 166 Z" />
<glyph horiz-adv-x="1167" unicode="=" d="M 1053 455 L 1053 305 L 109 305 L 109 455 L 1053 455 Z M 1053 803 L 1053 653 L 109 653 L 109 803 L 1053 803 Z" />
<glyph horiz-adv-x="1167" unicode="&#x3E;" d="M 1049 602 L 1049 502 L 158 -10 L 158 166 L 846 551 L 158 934 L 158 1110 L 1049 602 Z" />
<glyph horiz-adv-x="1118" unicode="?" d="M 668 1460 C 809 1460 914 1423 983 1349 C 1052 1275 1087 1197 1087 1114 C 1087 1028 1060 951 1008 883 C 956 815 887 759 801 715 C 709 668 648 630 618 601 C 587 572 565 528 551 469 C 550 467 547 454 543 431 C 539 408 537 395 537 393 L 375 393 L 395 492 C 411 573 443 637 490 684 C 537 731 609 782 705 836 C 761 869 805 906 837 948 C 869 989 886 1040 887 1102 C 887 1162 866 1211 825 1251 C 784 1291 725 1311 649 1311 C 573 1311 505 1283 443 1227 C 381 1171 335 1101 305 1016 L 145 1071 C 190 1196 260 1292 355 1359 C 450 1426 554 1460 668 1460 Z M 319 238 L 553 238 L 512 0 L 279 0 L 319 238 Z" />
<glyph horiz-adv-x="1972" unicode="@" d="M 1100 1380 C 1300 1380 1472 1321 1615 1203 C 1757 1085 1829 931 1829 743 C 1829 631 1808 521 1766 415 C 1724 308 1662 222 1581 156 C 1540 123 1493 98 1441 82 C 1389 65 1343 57 1303 57 C 1253 57 1213 70 1183 96 C 1153 122 1133 170 1124 240 C 1075 174 1025 130 973 106 C 921 82 872 70 825 70 C 749 70 688 100 644 160 C 600 220 578 298 578 393 C 578 552 622 691 711 810 C 800 929 905 989 1026 989 C 1086 989 1136 975 1175 949 C 1214 923 1246 876 1272 809 L 1307 956 L 1458 956 L 1313 399 C 1305 372 1301 347 1299 324 C 1297 300 1296 280 1296 264 C 1296 239 1305 218 1323 202 C 1341 186 1365 178 1393 178 C 1484 178 1562 233 1626 345 C 1690 457 1722 583 1722 723 C 1722 891 1660 1026 1538 1128 C 1416 1229 1268 1280 1094 1280 C 852 1280 653 1196 499 1030 C 345 863 268 667 268 442 C 268 233 331 70 457 -47 C 583 -164 748 -223 952 -223 C 1030 -223 1110 -214 1191 -196 C 1272 -178 1354 -152 1438 -117 L 1468 -213 C 1386 -247 1297 -274 1201 -294 C 1104 -314 1010 -324 920 -324 C 695 -324 509 -252 363 -108 C 216 35 143 214 143 430 C 143 697 237 922 425 1105 C 613 1288 838 1380 1100 1380 Z M 1112 350 C 1146 414 1170 474 1184 532 C 1197 590 1204 643 1204 692 C 1204 736 1189 775 1160 809 C 1130 843 1093 860 1049 860 C 1020 860 989 851 957 835 C 924 818 896 795 874 766 C 834 712 804 653 784 587 C 764 521 754 460 754 403 C 754 339 768 290 796 254 C 824 218 862 201 909 201 C 945 201 983 215 1021 243 C 1059 271 1089 307 1112 350 Z" />
<glyph horiz-adv-x="1157" unicode="A" d="M 829 1434 L 1032 0 L 840 0 L 782 412 L 264 412 L 68 0 L -125 0 L 586 1434 L 829 1434 Z M 338 573 L 764 573 L 672 1272 L 338 573 Z" />
<glyph horiz-adv-x="1284" unicode="B" d="M 745 1434 C 893 1434 1011 1407 1097 1353 C 1183 1299 1227 1220 1227 1116 C 1227 1105 1226 1093 1224 1081 C 1222 1068 1221 1055 1219 1042 C 1205 968 1172 905 1118 854 C 1064 802 992 768 903 750 C 979 729 1040 692 1084 638 C 1128 584 1151 518 1151 442 C 1151 430 1150 417 1149 404 C 1148 390 1147 377 1145 365 C 1121 238 1063 145 973 87 C 883 29 765 0 621 0 L 39 0 L 291 1434 L 745 1434 Z M 938 385 C 940 396 941 407 942 417 C 943 427 944 437 944 446 C 944 516 918 571 866 609 C 814 647 739 666 641 666 L 350 666 L 260 156 L 580 156 C 681 156 762 174 824 212 C 885 250 923 307 938 385 Z M 1010 1040 C 1010 1048 1011 1057 1012 1065 C 1013 1073 1014 1080 1014 1087 C 1013 1144 992 1190 950 1224 C 908 1258 849 1276 772 1276 L 459 1276 L 377 823 L 672 823 C 767 823 844 840 902 875 C 960 909 996 964 1010 1040 Z" />
<glyph horiz-adv-x="1235" unicode="C" d="M 762 1460 C 918 1460 1033 1419 1108 1339 C 1183 1258 1224 1143 1231 993 L 1032 979 C 1031 1079 1009 1158 966 1214 C 922 1270 856 1298 768 1298 C 648 1298 546 1247 462 1146 C 377 1045 320 910 291 741 C 285 707 280 673 277 639 C 273 605 272 571 272 539 C 272 421 296 325 346 251 C 396 176 469 139 567 139 C 661 139 743 167 813 225 C 883 282 943 368 991 483 L 1149 428 C 1083 271 999 156 896 84 C 793 11 683 -25 567 -25 C 397 -25 271 29 187 138 C 103 246 61 385 61 553 C 61 585 62 619 66 654 C 69 689 74 725 80 762 C 118 972 200 1141 327 1269 C 453 1396 598 1460 762 1460 Z" />
<glyph horiz-adv-x="1339" unicode="D" d="M 666 1434 C 863 1434 1015 1384 1122 1286 C 1228 1187 1282 1045 1282 860 C 1282 829 1280 798 1277 766 C 1274 734 1270 701 1264 668 C 1228 467 1145 305 1016 183 C 886 61 725 0 532 0 L 39 0 L 291 1434 L 666 1434 Z M 1055 678 C 1059 705 1063 732 1066 760 C 1069 788 1071 816 1071 844 C 1071 977 1039 1082 975 1158 C 911 1234 819 1272 698 1272 L 459 1272 L 262 162 L 514 162 C 670 162 793 210 882 308 C 970 406 1028 529 1055 678 Z" />
<glyph horiz-adv-x="1130" unicode="E" d="M 291 1434 L 1184 1434 L 1157 1270 L 457 1270 L 377 815 L 864 815 L 836 651 L 348 651 L 262 164 L 983 164 L 952 0 L 39 0 L 291 1434 Z" />
<glyph horiz-adv-x="1083" unicode="F" d="M 291 1434 L 1188 1434 L 1161 1270 L 459 1270 L 375 801 L 883 801 L 854 637 L 346 637 L 233 0 L 39 0 L 291 1434 Z" />
<glyph horiz-adv-x="1333" unicode="G" d="M 766 1460 C 920 1460 1036 1421 1114 1343 C 1191 1265 1237 1160 1251 1026 L 1057 997 C 1046 1076 1019 1146 976 1207 C 933 1267 864 1298 768 1298 C 646 1298 544 1249 460 1152 C 376 1054 319 921 291 752 C 285 716 279 679 275 643 C 270 607 268 572 268 539 C 268 421 293 325 344 250 C 395 174 472 137 575 137 C 683 137 771 162 837 214 C 903 265 947 341 969 442 C 969 444 974 465 982 506 C 990 546 994 568 995 571 L 645 571 L 672 719 L 1204 719 L 1079 2 L 977 2 L 956 164 C 908 106 848 60 778 26 C 708 -7 630 -25 545 -25 C 383 -25 261 29 181 139 C 101 249 61 387 61 555 C 61 589 62 623 65 659 C 68 695 73 732 80 770 C 116 980 199 1148 327 1273 C 455 1397 602 1460 766 1460 Z" />
<glyph horiz-adv-x="1343" unicode="H" d="M 1110 1434 L 1307 1434 L 1055 0 L 858 0 L 975 651 L 350 651 L 233 0 L 39 0 L 291 1434 L 485 1434 L 379 815 L 1004 815 L 1110 1434 Z" />
<glyph horiz-adv-x="528" unicode="I" d="M 293 1434 L 489 1434 L 238 0 L 41 0 L 293 1434 Z" />
<glyph horiz-adv-x="795" unicode="J" d="M 571 1434 L 766 1434 L 594 440 C 569 298 524 185 458 101 C 392 17 291 -25 156 -25 C 102 -25 50 -19 2 -9 C -46 0 -86 11 -117 23 L -59 197 C -26 182 6 170 38 162 C 70 154 103 150 137 150 C 215 150 274 175 313 226 C 352 277 381 357 401 465 L 571 1434 Z" />
<glyph horiz-adv-x="1274" unicode="K" d="M 1073 1434 L 1292 1434 L 793 924 L 1157 0 L 956 0 L 647 776 L 311 434 L 233 0 L 39 0 L 291 1434 L 485 1434 L 352 668 L 1073 1434 Z" />
<glyph horiz-adv-x="1018" unicode="L" d="M 264 164 L 901 164 L 872 0 L 39 0 L 291 1434 L 485 1434 L 264 164 Z" />
<glyph horiz-adv-x="1708" unicode="M" d="M 1376 1434 L 1671 1434 L 1419 0 L 1229 0 L 1452 1266 L 782 0 L 647 0 L 432 1268 L 209 0 L 39 0 L 291 1434 L 584 1434 L 778 287 L 1376 1434 Z" />
<glyph horiz-adv-x="1354" unicode="N" d="M 1145 1434 L 1315 1434 L 1063 0 L 901 0 L 424 1210 L 211 0 L 39 0 L 291 1434 L 522 1434 L 950 334 L 1145 1434 Z" />
<glyph horiz-adv-x="1327" unicode="O" d="M 776 1460 C 936 1460 1059 1405 1143 1296 C 1227 1187 1270 1045 1270 870 C 1270 837 1268 804 1265 771 C 1261 737 1257 704 1251 672 C 1213 467 1133 300 1011 170 C 889 40 739 -25 563 -25 C 399 -25 275 27 189 133 C 103 239 61 379 61 555 C 61 589 62 623 66 658 C 69 692 74 727 80 762 C 118 967 200 1135 324 1265 C 448 1395 599 1460 776 1460 Z M 1042 696 C 1048 732 1053 769 1057 806 C 1061 843 1063 879 1063 913 C 1063 1033 1037 1128 986 1196 C 935 1264 863 1298 770 1298 C 647 1298 544 1248 461 1150 C 377 1052 320 914 289 737 C 282 703 277 667 273 630 C 269 593 268 558 268 524 C 268 406 293 311 343 241 C 393 170 466 135 563 135 C 688 135 791 185 873 287 C 955 388 1011 524 1042 696 Z" />
<glyph horiz-adv-x="1214" unicode="P" d="M 743 1434 C 902 1434 1024 1401 1108 1335 C 1192 1269 1235 1175 1235 1055 C 1235 1038 1234 1021 1234 1003 C 1233 985 1231 967 1227 948 C 1203 826 1144 734 1048 672 C 952 610 839 580 707 580 L 334 580 L 233 0 L 39 0 L 291 1434 L 743 1434 Z M 1020 987 C 1022 997 1023 1007 1024 1016 C 1025 1024 1026 1033 1026 1042 C 1026 1106 1004 1160 960 1206 C 916 1251 848 1274 758 1274 L 459 1274 L 362 739 L 666 739 C 769 739 850 758 909 797 C 967 836 1004 899 1020 987 Z" />
<glyph horiz-adv-x="1327" unicode="Q" d="M 776 1460 C 936 1460 1059 1406 1143 1298 C 1227 1190 1270 1047 1270 870 C 1270 837 1268 804 1265 771 C 1262 737 1257 704 1251 672 C 1227 542 1179 419 1107 303 C 1034 186 941 101 829 47 C 853 2 884 -32 922 -57 C 960 -81 1011 -94 1073 -94 L 1126 -94 L 1098 -268 L 1069 -268 C 950 -268 860 -243 798 -193 C 736 -143 690 -82 662 -10 C 645 -12 628 -13 612 -15 C 596 -17 579 -18 563 -18 C 395 -18 270 34 186 139 C 102 244 60 383 61 555 C 61 589 62 623 65 658 C 68 692 73 727 80 762 C 118 967 200 1135 324 1265 C 448 1395 599 1460 776 1460 Z M 1042 696 C 1048 732 1053 769 1057 806 C 1061 843 1063 879 1063 913 C 1063 1033 1037 1128 986 1196 C 935 1264 863 1298 770 1298 C 647 1298 544 1248 461 1150 C 377 1052 320 914 289 737 C 282 703 277 667 273 630 C 269 593 268 558 268 524 C 268 406 293 311 343 241 C 393 170 466 135 563 135 C 688 135 791 185 873 287 C 955 388 1011 524 1042 696 Z" />
<glyph horiz-adv-x="1292" unicode="R" d="M 733 1434 C 887 1434 1011 1403 1104 1341 C 1196 1279 1243 1189 1243 1071 C 1243 1057 1242 1043 1241 1029 C 1239 1015 1237 1000 1235 985 C 1219 902 1184 834 1129 780 C 1074 726 1001 685 909 659 L 1077 0 L 874 0 L 725 621 L 342 621 L 233 0 L 39 0 L 291 1434 L 733 1434 Z M 1030 1006 C 1032 1014 1033 1022 1034 1031 C 1035 1040 1036 1049 1036 1059 C 1036 1123 1012 1175 964 1216 C 916 1257 846 1278 756 1278 L 459 1278 L 371 778 L 659 778 C 769 778 855 795 916 829 C 976 863 1014 922 1030 1006 Z" />
<glyph horiz-adv-x="1176" unicode="S" d="M 694 1460 C 825 1460 929 1436 1005 1388 C 1081 1340 1137 1278 1171 1202 L 1006 1098 C 978 1159 939 1208 887 1244 C 835 1280 766 1298 680 1298 C 591 1298 518 1275 462 1229 C 405 1183 377 1120 377 1042 C 377 986 397 942 437 909 C 477 875 562 839 690 799 C 815 759 910 710 974 654 C 1038 597 1071 522 1071 428 C 1071 285 1018 174 912 94 C 806 14 675 -25 518 -25 C 375 -25 260 2 173 56 C 86 110 23 187 -16 287 L 154 389 C 183 306 227 243 285 200 C 343 156 418 135 508 135 C 612 135 698 156 764 199 C 830 242 864 308 864 397 C 864 453 844 497 804 531 C 764 564 689 597 578 631 C 434 674 330 725 268 783 C 205 841 174 916 174 1006 C 174 1136 223 1245 323 1331 C 423 1417 546 1460 694 1460 Z" />
<glyph horiz-adv-x="1055" unicode="T" d="M 147 1434 L 1163 1434 L 1137 1270 L 725 1270 L 502 0 L 305 0 L 530 1270 L 119 1270 L 147 1434 Z" />
<glyph horiz-adv-x="1321" unicode="U" d="M 569 -25 C 422 -25 309 9 231 77 C 152 145 113 250 113 391 C 113 417 114 444 117 471 C 119 497 123 523 127 549 L 281 1434 L 475 1434 L 317 539 C 313 517 310 495 308 473 C 306 451 305 429 305 408 C 305 320 326 254 368 209 C 410 163 476 141 565 141 C 679 141 769 176 833 246 C 897 316 941 413 963 537 C 989 685 1015 835 1041 985 C 1067 1135 1093 1285 1120 1434 L 1294 1434 L 1135 530 C 1103 349 1041 211 950 117 C 858 22 731 -25 569 -25 Z" />
<glyph horiz-adv-x="1159" unicode="V" d="M 1092 1434 L 1284 1434 L 545 0 L 367 0 L 127 1434 L 328 1434 L 508 276 L 1092 1434 Z" />
<glyph horiz-adv-x="1757" unicode="W" d="M 1683 1434 L 1866 1434 L 1237 0 L 1071 0 L 952 1108 L 440 0 L 266 0 L 145 1434 L 338 1434 L 426 303 L 936 1434 L 1098 1434 L 1208 311 L 1683 1434 Z" />
<glyph horiz-adv-x="1163" unicode="X" d="M 1057 1434 L 1260 1434 L 690 735 L 1028 0 L 819 0 L 551 598 L 80 0 L -117 0 L 481 739 L 166 1434 L 373 1434 L 623 881 L 1057 1434 Z" />
<glyph horiz-adv-x="1161" unicode="Y" d="M 1090 1434 L 1296 1434 L 655 578 L 555 0 L 360 0 L 459 563 L 119 1434 L 330 1434 L 588 737 L 1090 1434 Z" />
<glyph horiz-adv-x="1090" unicode="Z" d="M 207 1434 L 1176 1434 L 1155 1309 L 182 164 L 956 164 L 928 0 L -88 0 L -68 125 L 907 1270 L 178 1270 L 207 1434 Z" />
<glyph horiz-adv-x="659" unicode="[" d="M 291 1434 L 698 1434 L 680 1325 L 436 1325 L 168 -197 L 414 -197 L 395 -305 L -14 -305 L 291 1434 Z" />
<glyph horiz-adv-x="1063" unicode="\" d="M 381 1434 L 901 -317 L 770 -317 L 250 1434 L 381 1434 Z" />
<glyph horiz-adv-x="659" unicode="]" d="M 217 1434 L 623 1434 L 317 -305 L -90 -305 L -72 -197 L 174 -197 L 442 1325 L 199 1325 L 217 1434 Z" />
<glyph horiz-adv-x="1167" unicode="^" d="M 653 1460 L 1061 776 L 885 776 L 604 1257 L 322 776 L 145 776 L 553 1460 L 653 1460 Z" />
<glyph horiz-adv-x="1006" unicode="_" d="M -113 -139 L 819 -139 L 803 -233 L -129 -233 L -113 -139 Z" />
<glyph horiz-adv-x="958" unicode="`" d="M 582 1442 L 715 1157 L 590 1157 L 367 1427 L 367 1442 L 582 1442 Z" />
<glyph horiz-adv-x="1038" unicode="a" d="M 541 1061 C 663 1061 757 1040 821 998 C 885 956 918 891 918 801 C 918 786 917 771 915 757 C 913 743 911 729 909 717 L 821 217 C 818 197 815 178 813 158 C 810 138 809 118 809 98 C 809 84 810 69 812 55 C 814 41 816 26 819 12 L 817 0 L 633 0 C 632 8 631 15 631 23 C 631 31 631 39 631 47 C 631 60 631 73 631 86 C 631 98 633 111 635 125 C 592 88 538 55 474 26 C 409 -3 348 -18 291 -18 C 204 -18 132 4 74 49 C 16 94 -12 156 -12 236 C -12 363 46 461 162 530 C 278 598 464 645 721 670 C 723 687 727 704 731 722 C 735 739 737 757 737 776 C 737 826 718 863 680 886 C 642 908 593 920 535 920 C 473 920 421 903 380 870 C 339 836 308 792 287 737 L 117 786 C 159 873 216 941 287 989 C 358 1037 443 1061 541 1061 Z M 647 238 L 702 553 C 530 536 400 504 313 456 C 225 408 182 344 182 262 C 182 216 196 182 225 159 C 253 136 294 125 346 125 C 406 125 459 134 506 154 C 553 173 600 201 647 238 Z" />
<glyph horiz-adv-x="1073" unicode="b" d="M 655 1061 C 753 1061 832 1025 893 954 C 954 882 985 782 985 653 C 985 628 984 602 982 576 C 980 550 976 522 971 494 C 939 325 878 197 789 111 C 699 25 596 -18 479 -18 C 399 -18 337 -2 293 27 C 249 57 212 101 184 158 L 111 0 L 4 0 C 8 17 16 46 27 88 C 37 129 44 158 47 176 L 268 1434 L 446 1434 L 356 915 C 409 965 461 1001 511 1025 C 561 1049 609 1061 655 1061 Z M 774 494 C 778 520 782 546 784 571 C 786 596 788 620 788 643 C 788 726 772 791 740 839 C 708 887 662 911 602 911 C 553 911 507 901 465 882 C 423 862 380 836 338 803 L 260 369 C 248 303 259 244 293 193 C 327 142 379 117 451 117 C 537 117 606 149 660 214 C 714 278 752 372 774 494 Z" />
<glyph horiz-adv-x="977" unicode="c" d="M 553 1059 C 679 1059 773 1029 836 969 C 898 909 930 829 930 729 L 758 719 C 756 784 740 834 711 868 C 681 902 635 920 573 920 C 479 920 404 887 348 823 C 291 758 252 665 231 545 C 226 518 222 493 220 469 C 218 445 217 422 217 401 C 217 321 234 254 270 202 C 305 149 360 123 436 123 C 508 123 568 142 614 180 C 660 218 701 274 735 348 L 858 287 C 821 199 765 127 690 70 C 615 12 531 -16 438 -16 C 307 -16 205 25 133 107 C 61 189 25 297 25 430 C 25 451 25 473 27 495 C 28 517 31 539 35 563 C 60 713 121 833 219 923 C 317 1013 428 1059 553 1059 Z" />
<glyph horiz-adv-x="1073" unicode="d" d="M 881 1434 L 1061 1434 L 809 0 L 635 0 L 657 131 C 607 85 556 49 504 22 C 452 -4 400 -18 346 -18 C 241 -18 161 19 106 94 C 50 168 23 267 23 391 C 23 416 24 442 26 468 C 28 494 32 521 37 549 C 67 717 126 845 215 931 C 303 1017 404 1061 516 1061 C 584 1061 641 1047 688 1019 C 735 991 770 961 793 928 L 881 1434 Z M 670 242 L 772 811 C 742 839 711 863 678 882 C 644 901 603 911 555 911 C 465 911 394 877 340 811 C 286 744 251 655 233 545 C 228 516 224 489 221 463 C 218 437 217 413 217 391 C 217 304 234 239 270 195 C 305 151 352 129 412 129 C 458 129 501 138 542 158 C 583 178 626 206 670 242 Z" />
<glyph horiz-adv-x="1049" unicode="e" d="M 575 1059 C 705 1059 802 1026 867 960 C 932 894 965 801 965 682 C 965 657 963 631 959 603 C 955 575 950 540 944 498 L 215 498 C 213 482 211 468 211 454 C 211 440 211 428 211 416 C 211 320 232 248 274 198 C 316 148 374 123 449 123 C 524 123 589 140 644 175 C 698 209 744 251 780 301 L 899 223 C 848 157 783 100 705 54 C 626 7 538 -16 440 -16 C 309 -16 207 23 133 102 C 59 181 23 288 23 422 C 23 442 23 463 25 484 C 26 504 29 525 33 547 C 59 697 123 820 224 916 C 324 1011 441 1059 575 1059 Z M 784 621 C 786 635 788 650 790 665 C 792 679 793 693 793 707 C 793 774 775 826 741 864 C 706 901 654 920 586 920 C 491 920 415 894 357 842 C 299 790 259 717 236 621 L 784 621 Z" />
<glyph horiz-adv-x="596" unicode="f" d="M 575 1444 C 607 1444 638 1443 668 1441 C 698 1439 725 1436 750 1432 L 725 1296 C 713 1296 696 1298 673 1301 C 649 1303 628 1305 610 1305 C 570 1305 535 1296 507 1278 C 479 1260 461 1228 453 1182 L 428 1040 L 629 1040 L 604 909 L 406 909 L 246 0 L 66 0 L 225 909 L 68 909 L 92 1042 L 250 1042 L 276 1188 C 290 1266 324 1328 376 1374 C 428 1420 495 1443 575 1444 Z" />
<glyph horiz-adv-x="1036" unicode="g" d="M 797 963 C 839 995 884 1020 930 1037 C 976 1053 1022 1062 1067 1063 L 1034 879 L 1024 879 C 1008 891 991 899 972 905 C 953 910 934 913 915 913 C 907 913 895 912 879 910 C 863 908 850 907 840 905 C 852 883 861 860 868 834 C 875 808 879 780 879 752 C 879 740 878 729 877 717 C 876 705 874 692 872 680 C 856 584 809 511 733 461 C 657 410 567 385 463 385 C 428 385 395 389 363 397 C 331 405 304 414 281 426 C 257 419 234 408 214 393 C 193 378 182 356 182 328 C 181 300 191 280 211 270 C 231 259 259 252 295 248 L 588 211 C 679 199 748 175 794 137 C 840 99 864 49 864 -14 C 864 -120 816 -201 721 -257 C 625 -313 500 -342 344 -342 C 192 -342 78 -319 0 -274 C -78 -229 -117 -172 -117 -102 C -117 -47 -97 0 -57 39 C -17 79 36 112 104 139 C 72 154 48 173 32 197 C 16 221 8 246 8 274 C 8 324 27 365 65 397 C 103 429 145 456 193 477 C 161 503 136 535 118 571 C 100 607 92 646 92 688 C 92 696 92 705 92 714 C 92 723 94 732 96 741 C 113 839 162 916 243 973 C 323 1030 418 1059 526 1059 C 582 1059 633 1050 679 1033 C 725 1015 765 992 797 963 Z M 696 698 C 696 706 697 715 698 724 C 699 732 700 741 700 750 C 700 802 684 847 654 884 C 624 921 581 940 526 940 C 460 940 405 921 359 883 C 313 845 285 794 274 731 C 273 723 272 714 272 706 C 272 698 272 690 272 684 C 272 632 287 588 317 554 C 347 519 391 502 449 502 C 515 502 570 519 614 554 C 658 588 685 636 696 698 Z M 356 -221 C 464 -221 546 -206 601 -178 C 656 -150 684 -106 684 -47 C 684 -16 672 7 648 25 C 624 42 579 55 514 63 C 506 64 454 70 358 82 C 262 94 204 101 186 104 C 148 86 118 63 94 35 C 70 7 59 -27 59 -68 C 59 -112 83 -149 133 -178 C 182 -206 256 -221 356 -221 Z" />
<glyph horiz-adv-x="1083" unicode="h" d="M 692 1061 C 774 1061 840 1042 890 1005 C 940 968 965 906 965 819 C 965 801 964 784 962 766 C 960 748 957 730 954 713 L 827 0 L 647 0 L 770 696 C 772 708 773 721 775 733 C 777 745 778 757 778 770 C 778 820 764 856 737 876 C 710 896 673 907 625 907 C 573 907 521 892 469 863 C 416 834 370 804 332 774 L 195 0 L 16 0 L 268 1434 L 446 1434 L 350 889 C 396 931 448 970 506 1006 C 564 1042 626 1061 692 1061 Z" />
<glyph horiz-adv-x="475" unicode="i" d="M 207 1042 L 387 1042 L 203 0 L 23 0 L 207 1042 Z M 272 1442 L 461 1442 L 426 1235 L 236 1235 L 272 1442 Z" />
<glyph horiz-adv-x="479" unicode="j" d="M 217 1042 L 397 1042 L 207 -35 C 188 -139 153 -215 102 -265 C 50 -315 -14 -340 -94 -340 C -130 -340 -165 -338 -198 -336 C -231 -333 -259 -330 -283 -326 L -256 -182 C -242 -184 -224 -186 -200 -190 C -176 -193 -152 -195 -129 -195 C -93 -195 -61 -185 -34 -166 C -6 -147 12 -108 23 -49 L 217 1042 Z M 281 1442 L 471 1442 L 436 1235 L 246 1235 L 281 1442 Z" />
<glyph horiz-adv-x="987" unicode="k" d="M 803 1042 L 1001 1042 L 604 672 L 866 0 L 678 0 L 465 549 L 254 350 L 193 0 L 16 0 L 268 1434 L 446 1434 L 291 541 L 803 1042 Z" />
<glyph horiz-adv-x="475" unicode="l" d="M 274 1434 L 455 1434 L 203 0 L 23 0 L 274 1434 Z" />
<glyph horiz-adv-x="1665" unicode="m" d="M 1300 1061 C 1379 1061 1440 1040 1482 999 C 1524 958 1546 898 1546 819 C 1546 801 1545 784 1543 767 C 1541 750 1538 733 1536 717 L 1409 0 L 1231 0 L 1356 711 C 1358 721 1359 732 1360 744 C 1361 756 1362 767 1362 778 C 1362 822 1350 855 1327 876 C 1303 896 1269 907 1225 907 C 1177 907 1126 892 1074 863 C 1021 833 976 804 940 774 L 803 0 L 623 0 L 748 711 C 750 721 751 731 752 742 C 753 753 754 764 754 774 C 754 822 741 856 716 876 C 691 896 656 907 610 907 C 562 907 512 891 462 861 C 412 830 368 801 332 774 L 195 0 L 16 0 L 201 1042 L 375 1042 L 346 887 C 394 931 446 971 502 1007 C 558 1043 620 1061 688 1061 C 755 1061 809 1047 850 1019 C 890 991 919 944 936 877 C 986 921 1042 963 1102 1002 C 1162 1041 1228 1061 1300 1061 Z" />
<glyph horiz-adv-x="1083" unicode="n" d="M 692 1061 C 774 1061 840 1042 890 1005 C 940 968 965 906 965 819 C 965 801 964 784 962 766 C 960 748 957 730 954 713 L 827 0 L 647 0 L 770 696 C 772 708 773 721 775 733 C 777 745 778 757 778 770 C 778 820 764 856 737 876 C 710 896 673 907 625 907 C 573 907 521 892 469 863 C 416 834 370 804 332 774 L 195 0 L 16 0 L 201 1042 L 375 1042 L 346 885 C 392 927 445 967 503 1005 C 561 1042 624 1061 692 1061 Z" />
<glyph horiz-adv-x="1065" unicode="o" d="M 565 1059 C 697 1059 799 1018 870 937 C 941 856 977 751 977 623 C 977 600 975 576 973 552 C 970 528 967 504 963 481 C 934 316 871 192 773 109 C 675 25 562 -16 434 -16 C 298 -16 195 24 126 106 C 57 188 23 292 23 420 C 23 443 24 467 27 492 C 29 516 33 541 37 567 C 62 713 122 832 217 923 C 311 1013 427 1059 565 1059 Z M 768 504 C 772 529 775 554 778 580 C 780 605 782 629 782 653 C 782 726 766 789 734 841 C 702 893 647 920 569 920 C 471 920 396 885 342 817 C 288 749 251 657 231 543 C 226 515 222 488 219 462 C 216 436 215 412 215 389 C 215 310 231 246 265 197 C 298 147 352 123 428 123 C 524 123 599 156 654 224 C 709 292 747 385 768 504 Z" />
<glyph horiz-adv-x="1073" unicode="p" d="M 664 1061 C 764 1061 842 1022 898 946 C 954 870 983 769 983 645 C 983 620 982 595 980 570 C 978 544 975 518 971 492 C 937 316 877 187 790 106 C 703 24 606 -16 500 -16 C 436 -16 380 -3 332 20 C 284 44 246 77 217 117 L 135 -340 L -43 -340 L 201 1042 L 375 1042 L 350 907 C 404 958 456 996 508 1022 C 560 1048 612 1061 664 1061 Z M 774 498 C 779 527 783 555 786 581 C 789 607 791 632 791 655 C 791 738 774 801 740 845 C 706 889 658 911 596 911 C 552 911 507 899 463 876 C 418 853 376 825 336 793 L 236 231 C 265 203 298 180 336 160 C 373 140 415 131 461 131 C 545 131 614 163 666 228 C 718 292 754 382 774 498 Z" />
<glyph horiz-adv-x="1073" unicode="q" d="M 893 1042 L 1001 1042 C 995 1027 987 997 979 953 C 971 909 965 879 963 864 L 750 -340 L 569 -340 L 649 123 C 593 75 539 39 489 17 C 439 -4 390 -16 344 -16 C 247 -16 169 21 111 95 C 52 169 23 269 23 397 C 23 423 24 449 26 475 C 28 501 31 528 37 557 C 66 722 126 847 216 933 C 306 1018 413 1061 537 1061 C 618 1061 679 1046 720 1017 C 761 987 796 945 825 891 L 893 1042 Z M 668 223 L 748 680 C 762 761 748 822 706 862 C 664 902 614 922 557 922 C 473 922 404 889 348 824 C 292 758 254 665 233 543 C 229 516 225 490 223 464 C 220 438 219 414 219 391 C 219 317 233 256 261 206 C 289 156 335 131 401 131 C 453 131 500 139 543 157 C 586 174 628 196 668 223 Z" />
<glyph horiz-adv-x="707" unicode="r" d="M 334 831 C 386 889 448 941 521 987 C 593 1033 669 1056 748 1057 L 711 852 L 702 852 C 682 856 664 858 649 860 C 634 861 620 862 608 862 C 538 862 479 844 429 809 C 379 774 343 745 322 723 L 195 0 L 16 0 L 201 1042 L 373 1042 L 334 831 Z" />
<glyph horiz-adv-x="920" unicode="s" d="M 494 1059 C 592 1059 672 1040 732 1002 C 792 964 836 909 864 836 L 717 766 C 703 810 678 847 642 877 C 606 907 561 922 506 922 C 442 922 388 908 344 880 C 300 852 279 810 279 754 C 279 713 296 682 331 662 C 366 642 413 623 473 606 C 598 570 685 530 735 486 C 784 442 809 387 809 319 C 809 219 765 139 679 77 C 593 15 490 -16 371 -16 C 264 -16 177 4 110 46 C 42 87 -7 147 -39 225 L 106 299 C 127 244 158 201 199 169 C 240 137 296 121 367 121 C 441 121 502 134 551 162 C 600 189 625 231 625 287 C 625 319 612 347 586 370 C 560 392 501 418 408 446 C 288 482 206 521 161 565 C 116 608 94 663 94 729 C 94 823 134 902 215 965 C 296 1027 389 1059 494 1059 Z" />
<glyph horiz-adv-x="670" unicode="t" d="M 434 1042 L 676 1042 L 649 909 L 410 909 L 297 270 C 296 262 295 253 293 245 C 291 236 291 227 291 219 C 291 179 302 154 326 144 C 349 134 378 129 412 129 C 428 129 446 129 464 131 C 482 132 499 135 516 139 L 494 4 C 465 -2 436 -8 408 -12 C 380 -16 351 -18 322 -18 C 256 -18 204 -2 166 28 C 128 58 109 108 109 178 C 109 191 109 204 111 218 C 113 231 115 244 117 258 L 229 909 L 68 909 L 94 1042 L 256 1042 L 336 1368 L 492 1368 L 434 1042 Z" />
<glyph horiz-adv-x="1079" unicode="u" d="M 819 1042 L 999 1042 L 815 0 L 639 0 L 668 158 C 620 115 568 75 510 38 C 452 0 389 -18 322 -18 C 238 -18 173 3 126 46 C 78 89 55 153 55 238 C 55 252 55 267 57 283 C 58 298 60 313 63 328 L 188 1042 L 369 1042 L 246 344 C 244 331 242 319 240 307 C 238 295 238 282 238 270 C 238 220 251 185 278 165 C 305 145 343 135 391 135 C 447 135 499 149 548 177 C 596 205 641 236 682 270 L 819 1042 Z" />
<glyph horiz-adv-x="911" unicode="v" d="M 799 1042 L 965 1042 L 403 0 L 258 0 L 70 1042 L 254 1042 L 381 225 L 799 1042 Z" />
<glyph horiz-adv-x="1391" unicode="w" d="M 1272 1042 L 1432 1042 L 932 0 L 797 0 L 717 793 L 346 0 L 205 0 L 80 1042 L 262 1042 L 332 262 L 696 1042 L 838 1042 L 918 256 L 1272 1042 Z" />
<glyph horiz-adv-x="932" unicode="x" d="M 778 1042 L 965 1042 L 535 524 L 786 0 L 598 0 L 399 412 L 68 0 L -117 0 L 336 543 L 98 1042 L 289 1042 L 471 657 L 778 1042 Z" />
<glyph horiz-adv-x="909" unicode="y" d="M 797 1042 L 963 1042 L 391 -33 C 333 -143 274 -221 214 -269 C 154 -316 87 -340 14 -340 C -17 -340 -44 -338 -67 -334 C -89 -330 -112 -325 -135 -319 L -111 -172 C -87 -178 -67 -183 -51 -187 C -35 -191 -19 -193 -4 -193 C 53 -193 102 -176 144 -143 C 185 -110 222 -54 254 25 C 254 27 229 164 180 437 C 131 709 94 911 70 1042 L 252 1042 L 383 223 L 797 1042 Z" />
<glyph horiz-adv-x="838" unicode="z" d="M 129 1042 L 856 1042 L 838 938 L 154 133 L 707 133 L 684 0 L -88 0 L -70 106 L 608 905 L 104 905 L 129 1042 Z" />
<glyph horiz-adv-x="758" unicode="{" d="M 729 1434 L 791 1434 L 772 1327 L 719 1327 C 659 1327 615 1309 585 1275 C 555 1241 535 1192 524 1128 L 479 879 C 462 789 430 717 382 664 C 334 611 267 577 182 563 C 259 552 314 519 346 465 C 378 411 387 339 371 250 L 326 0 C 314 -64 317 -113 335 -147 C 353 -181 391 -199 451 -199 L 504 -199 L 485 -305 L 424 -305 C 332 -305 260 -279 207 -227 C 153 -175 136 -92 156 20 L 205 303 C 215 366 213 416 199 452 C 184 488 147 506 88 506 L 35 506 L 55 623 L 109 623 C 167 623 210 640 238 676 C 266 711 285 761 297 825 L 346 1108 C 368 1235 412 1321 476 1366 C 540 1411 625 1434 729 1434 Z" />
<glyph horiz-adv-x="594" unicode="|" d="M 371 1434 L 371 -317 L 223 -317 L 223 1434 L 371 1434 Z" />
<glyph horiz-adv-x="758" unicode="}" d="M 618 623 L 674 623 L 651 506 L 598 506 C 538 506 495 488 467 452 C 439 416 420 366 410 303 L 360 20 C 338 -104 296 -189 234 -235 C 171 -281 86 -305 -20 -305 L -84 -305 L -66 -199 L -12 -199 C 46 -199 91 -181 122 -147 C 152 -113 173 -64 184 0 L 229 250 C 246 343 279 416 329 468 C 378 520 442 552 522 563 C 446 576 393 609 361 663 C 329 717 321 789 338 879 L 383 1128 C 394 1192 390 1241 372 1275 C 354 1309 316 1327 258 1327 L 205 1327 L 221 1434 L 285 1434 C 389 1434 464 1406 511 1350 C 557 1294 571 1214 553 1108 L 504 825 C 492 761 494 711 509 676 C 523 640 560 623 618 623 Z" />
<glyph horiz-adv-x="1167" unicode="~" d="M 913 760 L 1063 760 C 1061 652 1038 556 994 473 C 950 389 881 348 788 348 C 733 348 687 360 649 386 C 611 411 576 443 545 483 C 519 514 494 543 469 569 C 443 595 414 608 381 608 C 333 608 300 583 283 535 C 265 487 256 423 254 344 L 104 344 C 104 458 127 556 174 637 C 220 717 289 758 379 758 C 434 758 481 745 520 719 C 558 693 593 661 623 623 C 647 591 673 562 699 536 C 725 509 752 496 782 496 C 832 496 865 520 883 570 C 900 619 910 682 913 760 Z" />
<glyph horiz-adv-x="496" unicode=" " d="" />
<glyph horiz-adv-x="627" unicode="¡" d="M 276 760 L 367 760 L 246 -315 L 20 -315 L 276 760 Z M 272 1118 L 498 1118 L 459 891 L 233 891 L 272 1118 Z" />
<glyph horiz-adv-x="1167" unicode="¢" d="M 756 1182 C 855 1167 926 1131 969 1075 C 1011 1019 1034 953 1036 877 L 874 866 C 872 900 862 938 846 978 C 830 1018 792 1044 733 1055 L 600 301 C 666 311 717 338 754 380 C 790 422 820 467 844 514 L 963 455 C 928 376 876 310 808 256 C 740 202 662 172 575 166 L 535 -66 L 416 -66 L 459 172 C 357 189 279 235 225 311 C 171 386 145 479 145 590 C 145 610 145 631 147 653 C 148 674 151 696 156 719 C 180 856 237 967 325 1052 C 413 1136 517 1182 637 1188 L 674 1391 L 793 1391 L 756 1182 Z M 481 303 L 616 1053 C 536 1037 473 998 427 935 C 381 872 349 794 332 700 C 327 675 323 651 321 628 C 318 605 317 583 317 563 C 317 497 330 440 358 393 C 385 346 426 316 481 303 Z" />
<glyph horiz-adv-x="1167" unicode="£" d="M 748 1403 C 856 1403 946 1387 1016 1357 C 1086 1327 1146 1281 1196 1219 L 1055 1102 C 1021 1146 980 1181 930 1208 C 880 1235 822 1249 756 1249 C 658 1249 583 1219 533 1160 C 482 1101 457 1024 457 928 C 457 883 457 843 459 807 C 461 771 462 736 463 700 L 856 700 L 836 592 L 463 592 C 460 532 451 470 435 408 C 419 345 395 287 365 233 C 394 208 433 186 481 166 C 529 146 587 137 653 137 C 707 137 759 152 809 183 C 859 213 906 260 948 324 L 1069 215 C 1004 127 938 66 870 30 C 802 -5 738 -23 678 -23 C 590 -23 513 -9 449 19 C 385 47 329 82 283 125 C 243 84 196 50 142 24 C 88 -2 26 -18 -43 -23 L -14 135 C 87 153 160 200 206 276 C 251 351 274 452 274 580 L 274 592 L 76 592 L 94 700 L 268 700 C 266 732 263 764 261 797 C 259 830 258 864 258 899 C 258 1043 303 1163 393 1259 C 483 1355 601 1403 748 1403 Z" />
<glyph horiz-adv-x="1167" unicode="¤" d="M 793 1403 C 896 1403 981 1385 1047 1349 C 1113 1313 1164 1271 1200 1223 L 1059 1116 C 1030 1152 996 1184 958 1212 C 920 1239 866 1253 797 1253 C 714 1253 641 1220 577 1154 C 513 1088 462 999 424 885 L 842 885 L 823 780 L 393 780 C 390 768 387 755 385 742 C 383 729 381 717 379 705 C 375 683 371 661 368 639 C 365 616 363 593 362 571 L 719 571 L 700 467 L 360 467 C 364 378 386 299 426 230 C 465 161 535 127 635 127 C 689 127 742 142 794 174 C 845 205 887 237 920 270 L 1024 150 C 958 94 893 51 828 21 C 762 -8 690 -23 612 -23 C 458 -23 349 26 285 126 C 221 226 187 339 182 467 L 29 467 L 45 571 L 184 571 C 184 595 186 620 190 644 C 193 668 197 691 201 715 L 213 780 L 82 780 L 100 885 L 242 885 C 288 1035 359 1159 455 1257 C 550 1354 663 1403 793 1403 Z" />
<glyph horiz-adv-x="1167" unicode="¥" d="M 1053 1376 L 1237 1376 L 815 793 L 1073 793 L 1055 688 L 739 688 L 637 530 L 629 481 L 1018 481 L 997 377 L 610 377 L 545 0 L 373 0 L 438 377 L 51 377 L 72 481 L 457 481 L 467 532 L 418 688 L 109 688 L 127 793 L 381 793 L 160 1376 L 356 1376 L 588 698 L 1053 1376 Z" />
<glyph horiz-adv-x="1167" unicode="§" d="M 690 1401 C 780 1401 856 1385 920 1355 C 984 1325 1032 1285 1065 1235 L 950 1133 C 919 1175 882 1207 840 1230 C 798 1252 748 1264 692 1264 C 630 1264 577 1250 534 1222 C 490 1194 469 1156 469 1106 C 469 1064 486 1030 522 1005 C 558 980 616 949 696 913 C 806 864 887 816 937 768 C 987 720 1012 667 1012 608 C 1012 540 988 480 942 429 C 895 378 838 337 770 305 C 796 279 815 253 827 225 C 838 197 844 169 844 139 C 844 53 803 -19 721 -81 C 639 -143 546 -174 442 -174 C 351 -174 273 -159 207 -130 C 141 -100 91 -62 57 -14 L 174 94 C 200 56 236 25 283 1 C 330 -22 383 -35 442 -35 C 504 -35 557 -21 601 6 C 644 33 666 72 666 123 C 666 163 648 196 612 221 C 576 246 518 277 438 313 C 327 363 247 411 198 459 C 149 506 125 559 125 618 C 125 685 147 744 192 795 C 236 846 293 888 362 922 C 335 947 316 973 306 1000 C 296 1027 291 1056 291 1087 C 291 1177 332 1252 415 1312 C 498 1371 590 1401 690 1401 Z M 696 360 C 736 380 772 408 803 443 C 834 478 850 517 850 561 C 850 607 829 645 788 677 C 747 708 684 742 600 780 C 565 795 534 810 508 824 C 481 838 457 852 436 866 C 394 844 358 815 330 780 C 301 745 287 707 287 666 C 287 618 307 579 347 549 C 387 519 448 484 532 446 C 566 431 597 416 625 402 C 653 387 676 373 696 360 Z" />
<glyph horiz-adv-x="958" unicode="¨" d="M 697 1386 L 871 1386 L 836 1190 L 662 1190 L 697 1386 Z M 330 1386 L 502 1386 L 467 1190 L 295 1190 L 330 1386 Z" />
<glyph horiz-adv-x="1583" unicode="©" d="M 1010 590 L 1122 555 C 1099 473 1061 409 1007 365 C 953 321 889 299 815 299 C 709 299 622 335 555 407 C 488 479 455 579 455 709 C 455 825 487 921 553 998 C 619 1075 704 1114 809 1114 C 897 1114 967 1090 1019 1043 C 1071 996 1104 935 1118 860 L 979 840 C 971 884 953 919 926 947 C 898 975 861 989 815 989 C 745 989 693 962 661 910 C 628 857 612 786 612 698 C 612 612 629 544 663 496 C 697 448 749 424 817 424 C 868 424 909 437 939 465 C 969 492 992 534 1010 590 Z M 793 1415 C 986 1415 1152 1345 1291 1207 C 1429 1068 1499 901 1499 707 C 1499 513 1429 346 1291 208 C 1152 69 986 0 793 0 C 597 0 431 69 293 208 C 155 346 86 513 86 707 C 86 901 155 1068 293 1207 C 431 1345 597 1415 793 1415 Z M 793 94 C 960 94 1104 154 1224 274 C 1344 394 1405 539 1405 707 C 1405 876 1344 1021 1224 1141 C 1104 1261 960 1321 793 1321 C 623 1321 478 1261 358 1141 C 238 1021 178 876 178 707 C 178 539 238 394 358 274 C 478 154 623 94 793 94 Z" />
<glyph horiz-adv-x="909" unicode="ª" d="M 549 1399 C 645 1399 719 1382 769 1349 C 819 1315 844 1264 844 1194 C 844 1182 843 1171 842 1160 C 841 1149 840 1138 838 1128 L 770 750 C 767 735 765 720 764 705 C 762 690 762 676 762 662 C 762 650 762 639 763 627 C 764 615 766 604 768 594 L 766 578 L 614 578 C 613 586 612 593 612 601 C 612 608 612 616 612 625 C 612 631 612 637 612 644 C 612 651 613 658 614 666 C 580 640 540 616 494 595 C 447 573 402 563 360 563 C 292 563 235 581 190 618 C 145 654 123 703 123 764 C 123 861 166 936 253 990 C 340 1043 483 1079 682 1098 C 684 1110 686 1122 689 1135 C 692 1148 694 1161 694 1174 C 694 1212 680 1238 652 1254 C 624 1270 588 1278 545 1278 C 497 1278 458 1265 428 1239 C 398 1213 374 1179 358 1137 L 215 1180 C 249 1248 293 1301 348 1340 C 403 1379 470 1399 549 1399 Z M 625 770 L 666 997 C 548 985 455 963 387 929 C 319 895 285 846 285 784 C 285 748 296 723 318 708 C 340 693 368 686 401 686 C 446 686 486 693 521 707 C 555 721 590 742 625 770 Z" />
<glyph horiz-adv-x="1061" unicode="«" d="M 479 930 L 582 844 L 254 541 L 475 240 L 346 170 L 90 510 L 104 590 L 479 930 Z M 877 930 L 979 844 L 651 541 L 872 240 L 743 170 L 487 510 L 502 590 L 877 930 Z" />
<glyph horiz-adv-x="1167" unicode="¬" d="M 1049 645 L 1049 88 L 897 88 L 897 498 L 92 498 L 92 645 L 1049 645 Z" />
<glyph horiz-adv-x="702" unicode="­" d="M 94 625 L 580 625 L 551 463 L 66 463 L 94 625 Z" />
<glyph horiz-adv-x="1042" unicode="®" d="M 657 893 L 748 694 L 647 694 L 565 881 L 483 881 L 483 694 L 391 694 L 391 1174 L 586 1174 C 626 1174 663 1161 697 1137 C 731 1112 748 1076 748 1030 C 748 999 740 972 725 948 C 709 924 687 905 657 893 Z M 563 1382 C 684 1382 788 1338 875 1252 C 962 1165 1006 1061 1006 940 C 1006 818 962 715 875 629 C 788 543 684 500 563 500 C 440 500 335 543 249 629 C 162 715 119 818 119 940 C 119 1061 162 1165 249 1252 C 335 1338 440 1382 563 1382 Z M 563 561 C 667 561 756 598 830 672 C 904 746 942 835 942 940 C 942 1044 904 1134 830 1209 C 756 1283 667 1321 563 1321 C 458 1321 368 1283 294 1209 C 219 1134 182 1044 182 940 C 182 835 219 746 294 672 C 368 598 458 561 563 561 Z M 578 973 C 590 973 605 977 621 986 C 637 994 645 1008 645 1028 C 645 1047 638 1061 625 1070 C 611 1078 596 1083 580 1083 L 483 1083 L 483 973 L 578 973 Z" />
<glyph horiz-adv-x="958" unicode="¯" d="M 303 1370 L 891 1370 L 870 1251 L 283 1251 L 303 1370 Z" />
<glyph horiz-adv-x="997" unicode="°" d="M 594 1444 C 683 1444 755 1414 810 1356 C 865 1298 893 1229 893 1151 C 893 1060 856 977 784 903 C 711 828 626 791 528 791 C 439 791 367 819 313 877 C 258 934 231 1001 231 1077 C 231 1175 266 1260 337 1334 C 407 1407 493 1444 594 1444 Z M 528 924 C 584 924 634 943 680 981 C 725 1019 748 1069 748 1130 C 748 1184 734 1227 707 1261 C 679 1294 642 1311 596 1311 C 538 1311 486 1293 442 1257 C 397 1221 375 1169 375 1100 C 375 1052 389 1010 417 976 C 445 941 482 924 528 924 Z" />
<glyph horiz-adv-x="1167" unicode="±" d="M 1059 776 L 1059 629 L 649 629 L 649 260 L 502 260 L 502 629 L 92 629 L 92 776 L 502 776 L 502 1145 L 649 1145 L 649 776 L 1059 776 Z M 1059 147 L 1059 0 L 92 0 L 92 147 L 1059 147 Z" />
<glyph horiz-adv-x="995" unicode="²" d="M 612 1458 C 702 1458 771 1434 820 1388 C 868 1341 893 1283 893 1214 C 892 1140 865 1078 813 1030 C 761 982 705 935 645 891 C 613 867 574 842 527 815 C 479 787 433 761 389 737 L 817 737 L 797 616 L 158 616 L 174 711 C 246 755 310 794 368 830 C 425 866 478 901 526 936 C 568 966 614 1005 665 1052 C 715 1099 741 1153 741 1214 C 741 1250 729 1281 706 1305 C 682 1329 648 1341 602 1341 C 551 1341 505 1328 465 1304 C 424 1279 384 1248 346 1210 L 276 1311 C 332 1359 388 1396 444 1421 C 500 1445 556 1458 612 1458 Z" />
<glyph horiz-adv-x="995" unicode="³" d="M 604 1458 C 699 1458 771 1436 820 1393 C 868 1350 893 1298 893 1237 C 893 1187 875 1146 839 1116 C 803 1086 761 1063 715 1047 C 755 1032 788 1006 814 970 C 839 934 852 894 852 850 C 852 765 812 700 733 656 C 654 612 575 590 496 590 C 411 590 340 603 284 630 C 227 656 179 695 139 745 L 256 823 C 279 787 312 759 355 738 C 397 717 444 707 494 707 C 536 707 580 718 627 742 C 674 766 698 805 698 860 C 698 898 684 926 657 946 C 629 965 589 975 535 975 L 418 975 L 440 1096 L 549 1096 C 593 1096 636 1104 678 1122 C 720 1140 741 1175 741 1229 C 741 1261 729 1288 706 1310 C 682 1332 648 1343 602 1343 C 561 1343 520 1332 478 1311 C 436 1290 400 1264 369 1233 L 289 1325 C 345 1375 400 1410 455 1429 C 509 1448 559 1458 604 1458 Z" />
<glyph horiz-adv-x="958" unicode="´" d="M 633 1442 L 858 1442 L 856 1427 L 537 1157 L 401 1157 L 633 1442 Z" />
<glyph horiz-adv-x="1114" unicode="¶" d="M 684 1434 L 1110 1434 L 829 -168 L 707 -168 L 971 1325 L 817 1325 L 553 -168 L 430 -168 L 582 690 C 440 690 332 718 258 776 C 184 834 147 912 147 1010 C 147 1022 148 1034 150 1048 C 152 1061 154 1074 156 1087 C 178 1217 241 1307 343 1358 C 445 1408 558 1434 684 1434 Z M 602 809 L 694 1325 C 614 1325 553 1306 509 1270 C 465 1234 436 1175 422 1094 C 419 1078 417 1063 417 1049 C 416 1034 416 1020 416 1008 C 416 952 430 907 458 874 C 486 840 534 819 602 809 Z" />
<glyph horiz-adv-x="563" unicode="·" d="M 180 782 L 410 782 L 367 543 L 137 543 L 180 782 Z" />
<glyph horiz-adv-x="958" unicode="¸" d="M 354 -78 C 408 -84 444 -101 463 -129 C 482 -157 492 -184 492 -211 C 492 -266 469 -307 424 -335 C 378 -363 329 -377 276 -377 C 248 -377 221 -374 195 -369 C 168 -363 140 -354 111 -342 L 152 -264 C 170 -274 187 -282 205 -288 C 223 -294 239 -297 254 -297 C 274 -297 298 -291 325 -280 C 351 -269 365 -247 365 -215 C 365 -191 355 -172 335 -157 C 315 -141 286 -133 246 -131 L 326 2 L 395 2 L 354 -78 Z" />
<glyph horiz-adv-x="895" unicode="¹" d="M 553 727 L 723 727 L 702 612 L 207 612 L 225 727 L 410 727 L 510 1292 L 315 1227 L 332 1321 C 396 1347 444 1370 477 1389 C 510 1407 548 1431 590 1460 L 682 1460 L 553 727 Z" />
<glyph horiz-adv-x="944" unicode="º" d="M 555 1397 C 657 1397 736 1365 791 1301 C 846 1237 874 1156 874 1057 C 874 1039 873 1021 871 1003 C 869 985 866 966 864 948 C 841 820 792 724 717 660 C 641 595 553 563 453 563 C 347 563 267 595 213 659 C 159 723 133 804 133 903 C 133 920 134 938 136 958 C 138 977 140 996 143 1016 C 162 1130 208 1222 282 1292 C 356 1362 447 1397 555 1397 Z M 702 967 C 706 986 710 1005 712 1024 C 714 1043 715 1062 715 1081 C 715 1136 703 1183 679 1221 C 655 1259 614 1278 557 1278 C 485 1278 428 1252 388 1202 C 348 1151 320 1082 305 995 C 301 974 298 954 296 935 C 294 915 293 897 293 879 C 293 819 305 772 329 736 C 353 700 393 682 449 682 C 520 682 576 707 618 757 C 659 807 687 877 702 967 Z" />
<glyph horiz-adv-x="1061" unicode="»" d="M 279 930 L 537 590 L 522 510 L 145 170 L 45 256 L 371 559 L 152 860 L 279 930 Z M 676 930 L 934 590 L 920 510 L 543 170 L 442 256 L 768 559 L 549 860 L 676 930 Z" />
<glyph horiz-adv-x="2011" unicode="¼" d="M 555 727 L 725 727 L 705 612 L 209 612 L 229 727 L 412 727 L 512 1292 L 317 1227 L 336 1321 C 399 1347 447 1370 481 1389 C 514 1407 552 1431 594 1460 L 684 1460 L 555 727 Z M 1583 313 L 1731 313 L 1710 197 L 1563 197 L 1526 -10 L 1393 -10 L 1430 197 L 997 197 L 1012 285 L 1544 852 L 1677 852 L 1583 313 Z M 1620 1458 L 1761 1458 L 426 -27 L 285 -27 L 1620 1458 Z M 1450 313 L 1516 696 L 1163 313 L 1450 313 Z" />
<glyph horiz-adv-x="2011" unicode="½" d="M 1544 842 C 1633 842 1702 818 1751 772 C 1800 725 1825 667 1825 598 C 1824 524 1797 462 1745 414 C 1693 366 1637 319 1577 274 C 1545 250 1505 225 1458 198 C 1411 171 1365 145 1321 121 L 1749 121 L 1729 0 L 1090 0 L 1106 94 C 1178 138 1242 178 1300 214 C 1357 250 1410 285 1458 319 C 1500 349 1546 388 1597 435 C 1647 482 1673 536 1673 598 C 1673 634 1661 665 1638 689 C 1614 713 1580 725 1534 725 C 1483 725 1437 712 1397 688 C 1356 663 1316 632 1278 594 L 1208 694 C 1264 743 1320 780 1376 805 C 1432 829 1488 842 1544 842 Z M 553 727 L 723 727 L 702 612 L 207 612 L 225 727 L 410 727 L 510 1292 L 315 1227 L 332 1321 C 396 1347 444 1370 477 1389 C 510 1407 548 1431 590 1460 L 682 1460 L 553 727 Z M 1602 1458 L 1743 1458 L 408 -27 L 266 -27 L 1602 1458 Z" />
<glyph horiz-adv-x="2011" unicode="¾" d="M 604 1458 C 699 1458 771 1436 820 1393 C 868 1350 893 1298 893 1237 C 893 1187 875 1146 839 1116 C 803 1086 761 1063 715 1047 C 755 1032 788 1006 814 970 C 839 934 852 894 852 850 C 852 765 812 700 733 656 C 654 612 575 590 496 590 C 411 590 340 603 284 630 C 227 656 179 695 139 745 L 256 823 C 279 787 312 759 355 738 C 397 717 444 707 494 707 C 536 707 580 718 627 742 C 674 766 698 805 698 860 C 698 898 684 926 657 946 C 629 965 589 975 535 975 L 418 975 L 440 1096 L 549 1096 C 593 1096 636 1104 678 1122 C 720 1140 741 1175 741 1229 C 741 1261 729 1288 706 1310 C 682 1332 648 1343 602 1343 C 561 1343 520 1332 478 1311 C 436 1290 400 1264 369 1233 L 289 1325 C 345 1375 400 1410 455 1429 C 509 1448 559 1458 604 1458 Z M 1581 313 L 1729 313 L 1708 197 L 1561 197 L 1524 -10 L 1391 -10 L 1427 197 L 995 197 L 1010 285 L 1542 852 L 1675 852 L 1581 313 Z M 1651 1458 L 1792 1458 L 457 -27 L 315 -27 L 1651 1458 Z M 1448 313 L 1513 696 L 1161 313 L 1448 313 Z" />
<glyph horiz-adv-x="1118" unicode="¿" d="M 758 102 L 918 47 C 872 -78 802 -174 708 -241 C 613 -308 509 -342 397 -342 C 255 -342 149 -305 80 -231 C 11 -157 -23 -79 -23 4 C -21 94 6 173 60 239 C 114 305 182 359 265 403 C 336 440 391 474 431 505 C 471 535 498 583 512 649 C 512 651 515 663 520 686 C 524 709 527 722 528 725 L 688 725 C 687 720 684 707 680 685 C 676 663 672 644 668 627 C 649 538 615 471 566 426 C 517 381 448 333 358 283 C 302 251 258 214 226 172 C 194 129 178 77 178 16 C 178 -44 198 -93 239 -133 C 280 -173 339 -193 416 -193 C 490 -193 558 -165 620 -109 C 682 -53 728 16 758 102 Z M 553 1118 L 786 1118 L 745 881 L 512 881 L 553 1118 Z" />
<glyph horiz-adv-x="1157" unicode="À" d="M 829 1434 L 1032 0 L 840 0 L 782 412 L 264 412 L 68 0 L -125 0 L 586 1434 L 829 1434 Z M 338 573 L 764 573 L 672 1272 L 338 573 Z M 725 1815 L 858 1530 L 733 1530 L 510 1800 L 510 1815 L 725 1815 Z" />
<glyph horiz-adv-x="1157" unicode="Á" d="M 817 1815 L 1042 1815 L 1040 1800 L 721 1530 L 585 1530 L 817 1815 Z M 829 1434 L 1032 0 L 840 0 L 782 412 L 264 412 L 68 0 L -125 0 L 586 1434 L 829 1434 Z M 338 573 L 764 573 L 672 1272 L 338 573 Z" />
<glyph horiz-adv-x="1157" unicode="Â" d="M 829 1434 L 1032 0 L 840 0 L 782 412 L 264 412 L 68 0 L -125 0 L 586 1434 L 829 1434 Z M 338 573 L 764 573 L 672 1272 L 338 573 Z M 873 1815 L 1024 1524 L 899 1524 L 760 1704 L 555 1524 L 418 1524 L 672 1815 L 873 1815 Z" />
<glyph horiz-adv-x="1157" unicode="Ã" d="M 829 1434 L 1032 0 L 840 0 L 782 412 L 264 412 L 68 0 L -125 0 L 586 1434 L 829 1434 Z M 338 573 L 764 573 L 672 1272 L 338 573 Z M 965 1798 L 1071 1798 C 1050 1722 1022 1666 986 1628 C 950 1590 907 1571 856 1571 C 818 1571 777 1587 734 1619 C 691 1651 657 1667 633 1667 C 608 1667 587 1659 569 1643 C 551 1627 539 1601 531 1565 L 426 1565 C 444 1637 471 1692 507 1732 C 543 1772 587 1792 639 1792 C 675 1792 715 1775 759 1742 C 802 1708 837 1692 864 1692 C 890 1692 912 1701 928 1719 C 944 1737 956 1764 965 1798 Z" />
<glyph horiz-adv-x="1157" unicode="Ä" d="M 861 1765 L 1035 1765 L 1000 1569 L 826 1569 L 861 1765 Z M 494 1765 L 666 1765 L 631 1569 L 459 1569 L 494 1765 Z M 829 1434 L 1032 0 L 840 0 L 782 412 L 264 412 L 68 0 L -125 0 L 586 1434 L 829 1434 Z M 338 573 L 764 573 L 672 1272 L 338 573 Z" />
<glyph horiz-adv-x="1157" unicode="Å" d="M 776 1905 C 837 1905 884 1887 917 1852 C 950 1816 967 1773 967 1721 C 967 1655 943 1600 896 1554 C 849 1508 791 1486 721 1486 C 659 1486 612 1503 578 1539 C 544 1574 527 1618 527 1672 C 527 1735 551 1790 599 1836 C 647 1882 706 1905 776 1905 Z M 723 1557 C 769 1555 803 1574 826 1613 C 848 1651 860 1693 860 1737 C 860 1767 853 1790 839 1807 C 825 1823 802 1832 772 1834 C 722 1832 687 1813 667 1777 C 647 1740 637 1700 637 1656 C 637 1627 643 1603 657 1584 C 670 1564 692 1555 723 1557 Z M 829 1434 L 1032 0 L 840 0 L 782 412 L 264 412 L 68 0 L -125 0 L 586 1434 L 829 1434 Z M 338 573 L 764 573 L 672 1272 L 338 573 Z" />
<glyph horiz-adv-x="1847" unicode="Æ" d="M 834 1434 L 1901 1434 L 1874 1270 L 1182 1270 L 1102 813 L 1585 813 L 1556 651 L 1073 651 L 987 164 L 1700 164 L 1669 0 L 764 0 L 838 420 L 336 420 L 57 0 L -143 0 L 834 1434 Z M 864 575 L 987 1272 L 905 1272 L 440 575 L 864 575 Z" />
<glyph horiz-adv-x="1235" unicode="Ç" d="M 762 1460 C 918 1460 1033 1419 1108 1339 C 1183 1258 1224 1143 1231 993 L 1032 979 C 1031 1079 1009 1158 966 1214 C 922 1270 856 1298 768 1298 C 648 1298 546 1247 462 1146 C 377 1045 320 910 291 741 C 285 707 280 673 277 639 C 273 605 272 571 272 539 C 272 421 296 325 346 251 C 396 176 469 139 567 139 C 661 139 743 167 813 225 C 883 282 943 368 991 483 L 1149 428 C 1083 271 999 156 896 84 C 793 11 683 -25 567 -25 C 559 -25 551 -24 543 -24 C 535 -23 527 -23 520 -23 L 492 -78 C 546 -84 582 -101 601 -129 C 619 -157 629 -184 629 -211 C 629 -266 606 -307 561 -335 C 515 -363 466 -377 414 -377 C 386 -377 358 -374 332 -369 C 305 -363 277 -354 248 -342 L 289 -264 C 307 -274 325 -282 343 -288 C 360 -294 376 -297 391 -297 C 411 -297 435 -291 462 -280 C 488 -269 502 -247 502 -215 C 502 -191 492 -172 472 -157 C 452 -141 423 -133 383 -131 L 453 -14 C 321 9 222 72 158 175 C 93 278 61 404 61 553 C 61 585 62 619 66 654 C 69 689 74 725 80 762 C 118 972 200 1141 327 1269 C 453 1396 598 1460 762 1460 Z" />
<glyph horiz-adv-x="1130" unicode="È" d="M 291 1434 L 1184 1434 L 1157 1270 L 457 1270 L 377 815 L 864 815 L 836 651 L 348 651 L 262 164 L 983 164 L 952 0 L 39 0 L 291 1434 Z M 733 1815 L 866 1530 L 741 1530 L 518 1800 L 518 1815 L 733 1815 Z" />
<glyph horiz-adv-x="1130" unicode="É" d="M 811 1815 L 1036 1815 L 1034 1800 L 715 1530 L 579 1530 L 811 1815 Z M 291 1434 L 1184 1434 L 1157 1270 L 457 1270 L 377 815 L 864 815 L 836 651 L 348 651 L 262 164 L 983 164 L 952 0 L 39 0 L 291 1434 Z" />
<glyph horiz-adv-x="1130" unicode="Ê" d="M 887 1811 L 1038 1520 L 913 1520 L 774 1700 L 569 1520 L 432 1520 L 686 1811 L 887 1811 Z M 291 1434 L 1184 1434 L 1157 1270 L 457 1270 L 377 815 L 864 815 L 836 651 L 348 651 L 262 164 L 983 164 L 952 0 L 39 0 L 291 1434 Z" />
<glyph horiz-adv-x="1130" unicode="Ë" d="M 291 1434 L 1184 1434 L 1157 1270 L 457 1270 L 377 815 L 864 815 L 836 651 L 348 651 L 262 164 L 983 164 L 952 0 L 39 0 L 291 1434 Z M 869 1765 L 1043 1765 L 1008 1569 L 834 1569 L 869 1765 Z M 502 1765 L 674 1765 L 639 1569 L 467 1569 L 502 1765 Z" />
<glyph horiz-adv-x="528" unicode="Ì" d="M 293 1434 L 489 1434 L 238 0 L 41 0 L 293 1434 Z M 391 1815 L 524 1530 L 399 1530 L 176 1800 L 176 1815 L 391 1815 Z" />
<glyph horiz-adv-x="528" unicode="Í" d="M 293 1434 L 489 1434 L 238 0 L 41 0 L 293 1434 Z M 525 1815 L 750 1815 L 748 1800 L 429 1530 L 293 1530 L 525 1815 Z" />
<glyph horiz-adv-x="528" unicode="Î" d="M 566 1813 L 717 1522 L 592 1522 L 453 1702 L 248 1522 L 111 1522 L 365 1813 L 566 1813 Z M 293 1434 L 489 1434 L 238 0 L 41 0 L 293 1434 Z" />
<glyph horiz-adv-x="528" unicode="Ï" d="M 293 1434 L 489 1434 L 238 0 L 41 0 L 293 1434 Z M 547 1765 L 721 1765 L 686 1569 L 512 1569 L 547 1765 Z M 180 1765 L 352 1765 L 317 1569 L 145 1569 L 180 1765 Z" />
<glyph horiz-adv-x="1354" unicode="Ñ" d="M 1145 1434 L 1315 1434 L 1063 0 L 901 0 L 424 1210 L 211 0 L 39 0 L 291 1434 L 522 1434 L 950 334 L 1145 1434 Z M 1063 1798 L 1169 1798 C 1148 1722 1120 1666 1084 1628 C 1048 1590 1005 1571 954 1571 C 916 1571 875 1587 832 1619 C 789 1651 755 1667 731 1667 C 706 1667 685 1659 667 1643 C 649 1627 637 1601 629 1565 L 524 1565 C 542 1637 569 1692 605 1732 C 641 1772 685 1792 737 1792 C 773 1792 813 1775 857 1742 C 900 1708 935 1692 962 1692 C 988 1692 1010 1701 1026 1719 C 1042 1737 1054 1764 1063 1798 Z" />
<glyph horiz-adv-x="1327" unicode="Ò" d="M 776 1460 C 936 1460 1059 1405 1143 1296 C 1227 1187 1270 1045 1270 870 C 1270 837 1268 804 1265 771 C 1261 737 1257 704 1251 672 C 1213 467 1133 300 1011 170 C 889 40 739 -25 563 -25 C 399 -25 275 27 189 133 C 103 239 61 379 61 555 C 61 589 62 623 66 658 C 69 692 74 727 80 762 C 118 967 200 1135 324 1265 C 448 1395 599 1460 776 1460 Z M 1042 696 C 1048 732 1053 769 1057 806 C 1061 843 1063 879 1063 913 C 1063 1033 1037 1128 986 1196 C 935 1264 863 1298 770 1298 C 647 1298 544 1248 461 1150 C 377 1052 320 914 289 737 C 282 703 277 667 273 630 C 269 593 268 558 268 524 C 268 406 293 311 343 241 C 393 170 466 135 563 135 C 688 135 791 185 873 287 C 955 388 1011 524 1042 696 Z M 817 1815 L 950 1530 L 825 1530 L 602 1800 L 602 1815 L 817 1815 Z" />
<glyph horiz-adv-x="1327" unicode="Ó" d="M 776 1460 C 936 1460 1059 1405 1143 1296 C 1227 1187 1270 1045 1270 870 C 1270 837 1268 804 1265 771 C 1261 737 1257 704 1251 672 C 1213 467 1133 300 1011 170 C 889 40 739 -25 563 -25 C 399 -25 275 27 189 133 C 103 239 61 379 61 555 C 61 589 62 623 66 658 C 69 692 74 727 80 762 C 118 967 200 1135 324 1265 C 448 1395 599 1460 776 1460 Z M 1042 696 C 1048 732 1053 769 1057 806 C 1061 843 1063 879 1063 913 C 1063 1033 1037 1128 986 1196 C 935 1264 863 1298 770 1298 C 647 1298 544 1248 461 1150 C 377 1052 320 914 289 737 C 282 703 277 667 273 630 C 269 593 268 558 268 524 C 268 406 293 311 343 241 C 393 170 466 135 563 135 C 688 135 791 185 873 287 C 955 388 1011 524 1042 696 Z M 883 1815 L 1108 1815 L 1106 1800 L 787 1530 L 651 1530 L 883 1815 Z" />
<glyph horiz-adv-x="1327" unicode="Ô" d="M 951 1813 L 1102 1522 L 977 1522 L 838 1702 L 633 1522 L 496 1522 L 750 1813 L 951 1813 Z M 776 1460 C 936 1460 1059 1405 1143 1296 C 1227 1187 1270 1045 1270 870 C 1270 837 1268 804 1265 771 C 1261 737 1257 704 1251 672 C 1213 467 1133 300 1011 170 C 889 40 739 -25 563 -25 C 399 -25 275 27 189 133 C 103 239 61 379 61 555 C 61 589 62 623 66 658 C 69 692 74 727 80 762 C 118 967 200 1135 324 1265 C 448 1395 599 1460 776 1460 Z M 1042 696 C 1048 732 1053 769 1057 806 C 1061 843 1063 879 1063 913 C 1063 1033 1037 1128 986 1196 C 935 1264 863 1298 770 1298 C 647 1298 544 1248 461 1150 C 377 1052 320 914 289 737 C 282 703 277 667 273 630 C 269 593 268 558 268 524 C 268 406 293 311 343 241 C 393 170 466 135 563 135 C 688 135 791 185 873 287 C 955 388 1011 524 1042 696 Z" />
<glyph horiz-adv-x="1327" unicode="Õ" d="M 776 1460 C 936 1460 1059 1405 1143 1296 C 1227 1187 1270 1045 1270 870 C 1270 837 1268 804 1265 771 C 1261 737 1257 704 1251 672 C 1213 467 1133 300 1011 170 C 889 40 739 -25 563 -25 C 399 -25 275 27 189 133 C 103 239 61 379 61 555 C 61 589 62 623 66 658 C 69 692 74 727 80 762 C 118 967 200 1135 324 1265 C 448 1395 599 1460 776 1460 Z M 1042 696 C 1048 732 1053 769 1057 806 C 1061 843 1063 879 1063 913 C 1063 1033 1037 1128 986 1196 C 935 1264 863 1298 770 1298 C 647 1298 544 1248 461 1150 C 377 1052 320 914 289 737 C 282 703 277 667 273 630 C 269 593 268 558 268 524 C 268 406 293 311 343 241 C 393 170 466 135 563 135 C 688 135 791 185 873 287 C 955 388 1011 524 1042 696 Z M 1051 1798 L 1157 1798 C 1136 1722 1108 1666 1072 1628 C 1036 1590 993 1571 942 1571 C 904 1571 863 1587 820 1619 C 777 1651 743 1667 719 1667 C 694 1667 673 1659 655 1643 C 637 1627 625 1601 617 1565 L 512 1565 C 530 1637 557 1692 593 1732 C 629 1772 673 1792 725 1792 C 761 1792 801 1775 845 1742 C 888 1708 923 1692 950 1692 C 976 1692 998 1701 1014 1719 C 1030 1737 1042 1764 1051 1798 Z" />
<glyph horiz-adv-x="1327" unicode="Ö" d="M 946 1765 L 1120 1765 L 1085 1569 L 911 1569 L 946 1765 Z M 579 1765 L 751 1765 L 716 1569 L 544 1569 L 579 1765 Z M 776 1460 C 936 1460 1059 1405 1143 1296 C 1227 1187 1270 1045 1270 870 C 1270 837 1268 804 1265 771 C 1261 737 1257 704 1251 672 C 1213 467 1133 300 1011 170 C 889 40 739 -25 563 -25 C 399 -25 275 27 189 133 C 103 239 61 379 61 555 C 61 589 62 623 66 658 C 69 692 74 727 80 762 C 118 967 200 1135 324 1265 C 448 1395 599 1460 776 1460 Z M 1042 696 C 1048 732 1053 769 1057 806 C 1061 843 1063 879 1063 913 C 1063 1033 1037 1128 986 1196 C 935 1264 863 1298 770 1298 C 647 1298 544 1248 461 1150 C 377 1052 320 914 289 737 C 282 703 277 667 273 630 C 269 593 268 558 268 524 C 268 406 293 311 343 241 C 393 170 466 135 563 135 C 688 135 791 185 873 287 C 955 388 1011 524 1042 696 Z" />
<glyph horiz-adv-x="1167" unicode="×" d="M 684 551 L 1036 203 L 932 100 L 586 451 L 238 100 L 135 203 L 483 551 L 135 897 L 238 1001 L 586 649 L 932 1001 L 1036 897 L 684 551 Z" />
<glyph horiz-adv-x="1327" unicode="Ø" d="M 1270 870 C 1270 837 1268 804 1265 771 C 1262 737 1257 704 1251 672 C 1240 612 1225 553 1205 495 C 1185 437 1160 383 1131 331 C 1102 279 1068 232 1030 188 C 991 144 948 107 901 75 C 853 43 801 19 745 1 C 689 -16 628 -25 563 -25 C 505 -25 453 -18 407 -4 C 361 9 319 28 283 53 L 164 -127 L 43 -127 L 207 119 C 181 145 159 175 141 208 C 123 241 108 276 96 313 C 84 350 75 389 69 430 C 63 470 61 512 61 555 C 61 589 62 623 66 657 C 69 691 74 726 80 762 C 90 818 104 875 124 932 C 144 988 168 1043 198 1095 C 227 1147 261 1195 300 1239 C 339 1283 383 1322 431 1355 C 479 1387 532 1413 590 1432 C 647 1450 709 1460 776 1460 C 832 1460 882 1453 927 1440 C 972 1426 1013 1407 1049 1382 L 1149 1532 L 1270 1532 L 1124 1315 C 1174 1259 1211 1192 1235 1115 C 1258 1038 1270 956 1270 870 L 1270 870 Z M 952 1239 C 904 1278 844 1298 770 1298 C 708 1298 651 1285 599 1260 C 546 1235 499 1199 458 1151 C 416 1103 381 1045 351 975 C 321 905 299 826 283 737 C 276 702 271 666 267 630 C 263 593 262 558 262 524 C 262 474 266 428 274 386 C 282 343 295 305 313 272 L 952 1239 Z M 1069 913 C 1069 963 1064 1009 1056 1051 C 1048 1093 1035 1130 1018 1161 L 379 197 C 402 177 429 162 460 151 C 490 140 525 135 563 135 C 625 135 683 148 736 174 C 789 200 836 238 877 286 C 918 334 953 393 982 463 C 1011 532 1033 610 1049 696 C 1055 733 1059 770 1063 806 C 1067 842 1069 878 1069 913 L 1069 913 Z" />
<glyph horiz-adv-x="1321" unicode="Ù" d="M 815 1813 L 948 1528 L 823 1528 L 600 1798 L 600 1813 L 815 1813 Z M 569 -25 C 422 -25 309 9 231 77 C 152 145 113 250 113 391 C 113 417 114 444 117 471 C 119 497 123 523 127 549 L 281 1434 L 475 1434 L 317 539 C 313 517 310 495 308 473 C 306 451 305 429 305 408 C 305 320 326 254 368 209 C 410 163 476 141 565 141 C 679 141 769 176 833 246 C 897 316 941 413 963 537 C 989 685 1015 835 1041 985 C 1067 1135 1093 1285 1120 1434 L 1294 1434 L 1135 530 C 1103 349 1041 211 950 117 C 858 22 731 -25 569 -25 Z" />
<glyph horiz-adv-x="1321" unicode="Ú" d="M 569 -25 C 422 -25 309 9 231 77 C 152 145 113 250 113 391 C 113 417 114 444 117 471 C 119 497 123 523 127 549 L 281 1434 L 475 1434 L 317 539 C 313 517 310 495 308 473 C 306 451 305 429 305 408 C 305 320 326 254 368 209 C 410 163 476 141 565 141 C 679 141 769 176 833 246 C 897 316 941 413 963 537 C 989 685 1015 835 1041 985 C 1067 1135 1093 1285 1120 1434 L 1294 1434 L 1135 530 C 1103 349 1041 211 950 117 C 858 22 731 -25 569 -25 Z M 912 1815 L 1137 1815 L 1135 1800 L 816 1530 L 680 1530 L 912 1815 Z" />
<glyph horiz-adv-x="1321" unicode="Û" d="M 961 1811 L 1112 1520 L 987 1520 L 848 1700 L 643 1520 L 506 1520 L 760 1811 L 961 1811 Z M 569 -25 C 422 -25 309 9 231 77 C 152 145 113 250 113 391 C 113 417 114 444 117 471 C 119 497 123 523 127 549 L 281 1434 L 475 1434 L 317 539 C 313 517 310 495 308 473 C 306 451 305 429 305 408 C 305 320 326 254 368 209 C 410 163 476 141 565 141 C 679 141 769 176 833 246 C 897 316 941 413 963 537 C 989 685 1015 835 1041 985 C 1067 1135 1093 1285 1120 1434 L 1294 1434 L 1135 530 C 1103 349 1041 211 950 117 C 858 22 731 -25 569 -25 Z" />
<glyph horiz-adv-x="1321" unicode="Ü" d="M 943 1765 L 1117 1765 L 1082 1569 L 908 1569 L 943 1765 Z M 576 1765 L 748 1765 L 713 1569 L 541 1569 L 576 1765 Z M 569 -25 C 422 -25 309 9 231 77 C 152 145 113 250 113 391 C 113 417 114 444 117 471 C 119 497 123 523 127 549 L 281 1434 L 475 1434 L 317 539 C 313 517 310 495 308 473 C 306 451 305 429 305 408 C 305 320 326 254 368 209 C 410 163 476 141 565 141 C 679 141 769 176 833 246 C 897 316 941 413 963 537 C 989 685 1015 835 1041 985 C 1067 1135 1093 1285 1120 1434 L 1294 1434 L 1135 530 C 1103 349 1041 211 950 117 C 858 22 731 -25 569 -25 Z" />
<glyph horiz-adv-x="1161" unicode="Ý" d="M 1090 1434 L 1296 1434 L 655 578 L 555 0 L 360 0 L 459 563 L 119 1434 L 330 1434 L 588 737 L 1090 1434 Z M 830 1815 L 1055 1815 L 1053 1800 L 734 1530 L 598 1530 L 830 1815 Z" />
<glyph horiz-adv-x="1094" unicode="ß" d="M 715 831 C 800 812 868 775 919 719 C 969 663 995 590 995 500 C 995 355 944 232 843 131 C 742 30 619 -20 473 -20 C 451 -20 430 -19 409 -17 C 387 -15 366 -12 346 -6 L 397 133 C 413 129 430 126 448 124 C 465 122 482 121 500 121 C 606 121 683 162 732 244 C 780 326 805 414 805 510 C 805 610 770 678 702 712 C 633 746 555 764 469 764 L 494 887 C 582 887 655 907 711 949 C 767 991 795 1060 795 1157 C 795 1207 780 1245 751 1271 C 722 1297 683 1311 633 1311 C 544 1311 481 1277 444 1211 C 406 1145 381 1074 369 999 L 197 0 L 18 0 L 188 991 C 209 1117 257 1224 333 1312 C 409 1400 515 1444 653 1444 C 735 1444 811 1422 880 1380 C 948 1338 983 1270 983 1178 C 983 1098 957 1028 906 966 C 855 904 792 862 717 842 L 715 831 Z" />
<glyph horiz-adv-x="1038" unicode="à" d="M 541 1061 C 663 1061 757 1040 821 998 C 885 956 918 891 918 801 C 918 786 917 771 915 757 C 913 743 911 729 909 717 L 821 217 C 818 197 815 178 813 158 C 810 138 809 118 809 98 C 809 84 810 69 812 55 C 814 41 816 26 819 12 L 817 0 L 633 0 C 632 8 631 15 631 23 C 631 31 631 39 631 47 C 631 60 631 73 631 86 C 631 98 633 111 635 125 C 592 88 538 55 474 26 C 409 -3 348 -18 291 -18 C 204 -18 132 4 74 49 C 16 94 -12 156 -12 236 C -12 363 46 461 162 530 C 278 598 464 645 721 670 C 723 687 727 704 731 722 C 735 739 737 757 737 776 C 737 826 718 863 680 886 C 642 908 593 920 535 920 C 473 920 421 903 380 870 C 339 836 308 792 287 737 L 117 786 C 159 873 216 941 287 989 C 358 1037 443 1061 541 1061 Z M 647 238 L 702 553 C 530 536 400 504 313 456 C 225 408 182 344 182 262 C 182 216 196 182 225 159 C 253 136 294 125 346 125 C 406 125 459 134 506 154 C 553 173 600 201 647 238 Z M 610 1436 L 743 1151 L 618 1151 L 395 1421 L 395 1436 L 610 1436 Z" />
<glyph horiz-adv-x="1038" unicode="á" d="M 541 1061 C 663 1061 757 1040 821 998 C 885 956 918 891 918 801 C 918 786 917 771 915 757 C 913 743 911 729 909 717 L 821 217 C 818 197 815 178 813 158 C 810 138 809 118 809 98 C 809 84 810 69 812 55 C 814 41 816 26 819 12 L 817 0 L 633 0 C 632 8 631 15 631 23 C 631 31 631 39 631 47 C 631 60 631 73 631 86 C 631 98 633 111 635 125 C 592 88 538 55 474 26 C 409 -3 348 -18 291 -18 C 204 -18 132 4 74 49 C 16 94 -12 156 -12 236 C -12 363 46 461 162 530 C 278 598 464 645 721 670 C 723 687 727 704 731 722 C 735 739 737 757 737 776 C 737 826 718 863 680 886 C 642 908 593 920 535 920 C 473 920 421 903 380 870 C 339 836 308 792 287 737 L 117 786 C 159 873 216 941 287 989 C 358 1037 443 1061 541 1061 Z M 647 238 L 702 553 C 530 536 400 504 313 456 C 225 408 182 344 182 262 C 182 216 196 182 225 159 C 253 136 294 125 346 125 C 406 125 459 134 506 154 C 553 173 600 201 647 238 Z M 672 1442 L 897 1442 L 895 1427 L 576 1157 L 440 1157 L 672 1442 Z" />
<glyph horiz-adv-x="1038" unicode="â" d="M 728 1432 L 879 1141 L 754 1141 L 615 1321 L 410 1141 L 273 1141 L 527 1432 L 728 1432 Z M 541 1061 C 663 1061 757 1040 821 998 C 885 956 918 891 918 801 C 918 786 917 771 915 757 C 913 743 911 729 909 717 L 821 217 C 818 197 815 178 813 158 C 810 138 809 118 809 98 C 809 84 810 69 812 55 C 814 41 816 26 819 12 L 817 0 L 633 0 C 632 8 631 15 631 23 C 631 31 631 39 631 47 C 631 60 631 73 631 86 C 631 98 633 111 635 125 C 592 88 538 55 474 26 C 409 -3 348 -18 291 -18 C 204 -18 132 4 74 49 C 16 94 -12 156 -12 236 C -12 363 46 461 162 530 C 278 598 464 645 721 670 C 723 687 727 704 731 722 C 735 739 737 757 737 776 C 737 826 718 863 680 886 C 642 908 593 920 535 920 C 473 920 421 903 380 870 C 339 836 308 792 287 737 L 117 786 C 159 873 216 941 287 989 C 358 1037 443 1061 541 1061 Z M 647 238 L 702 553 C 530 536 400 504 313 456 C 225 408 182 344 182 262 C 182 216 196 182 225 159 C 253 136 294 125 346 125 C 406 125 459 134 506 154 C 553 173 600 201 647 238 Z" />
<glyph horiz-adv-x="1038" unicode="ã" d="M 541 1061 C 663 1061 757 1040 821 998 C 885 956 918 891 918 801 C 918 786 917 771 915 757 C 913 743 911 729 909 717 L 821 217 C 818 197 815 178 813 158 C 810 138 809 118 809 98 C 809 84 810 69 812 55 C 814 41 816 26 819 12 L 817 0 L 633 0 C 632 8 631 15 631 23 C 631 31 631 39 631 47 C 631 60 631 73 631 86 C 631 98 633 111 635 125 C 592 88 538 55 474 26 C 409 -3 348 -18 291 -18 C 204 -18 132 4 74 49 C 16 94 -12 156 -12 236 C -12 363 46 461 162 530 C 278 598 464 645 721 670 C 723 687 727 704 731 722 C 735 739 737 757 737 776 C 737 826 718 863 680 886 C 642 908 593 920 535 920 C 473 920 421 903 380 870 C 339 836 308 792 287 737 L 117 786 C 159 873 216 941 287 989 C 358 1037 443 1061 541 1061 Z M 647 238 L 702 553 C 530 536 400 504 313 456 C 225 408 182 344 182 262 C 182 216 196 182 225 159 C 253 136 294 125 346 125 C 406 125 459 134 506 154 C 553 173 600 201 647 238 Z M 832 1419 L 938 1419 C 917 1343 889 1287 853 1249 C 817 1211 774 1192 723 1192 C 685 1192 644 1208 601 1240 C 558 1272 524 1288 500 1288 C 475 1288 454 1280 436 1264 C 418 1248 406 1222 398 1186 L 293 1186 C 311 1258 338 1313 374 1353 C 410 1393 454 1413 506 1413 C 542 1413 582 1396 626 1363 C 669 1329 704 1313 731 1313 C 757 1313 779 1322 795 1340 C 811 1358 823 1385 832 1419 Z" />
<glyph horiz-adv-x="1038" unicode="ä" d="M 541 1061 C 663 1061 757 1040 821 998 C 885 956 918 891 918 801 C 918 786 917 771 915 757 C 913 743 911 729 909 717 L 821 217 C 818 197 815 178 813 158 C 810 138 809 118 809 98 C 809 84 810 69 812 55 C 814 41 816 26 819 12 L 817 0 L 633 0 C 632 8 631 15 631 23 C 631 31 631 39 631 47 C 631 60 631 73 631 86 C 631 98 633 111 635 125 C 592 88 538 55 474 26 C 409 -3 348 -18 291 -18 C 204 -18 132 4 74 49 C 16 94 -12 156 -12 236 C -12 363 46 461 162 530 C 278 598 464 645 721 670 C 723 687 727 704 731 722 C 735 739 737 757 737 776 C 737 826 718 863 680 886 C 642 908 593 920 535 920 C 473 920 421 903 380 870 C 339 836 308 792 287 737 L 117 786 C 159 873 216 941 287 989 C 358 1037 443 1061 541 1061 Z M 647 238 L 702 553 C 530 536 400 504 313 456 C 225 408 182 344 182 262 C 182 216 196 182 225 159 C 253 136 294 125 346 125 C 406 125 459 134 506 154 C 553 173 600 201 647 238 Z M 719 1386 L 893 1386 L 858 1190 L 684 1190 L 719 1386 Z M 352 1386 L 524 1386 L 489 1190 L 317 1190 L 352 1386 Z" />
<glyph horiz-adv-x="1038" unicode="å" d="M 541 1061 C 663 1061 757 1040 821 998 C 885 956 918 891 918 801 C 918 786 917 771 915 757 C 913 743 911 729 909 717 L 821 217 C 818 197 815 178 813 158 C 810 138 809 118 809 98 C 809 84 810 69 812 55 C 814 41 816 26 819 12 L 817 0 L 633 0 C 632 8 631 15 631 23 C 631 31 631 39 631 47 C 631 60 631 73 631 86 C 631 98 633 111 635 125 C 592 88 538 55 474 26 C 409 -3 348 -18 291 -18 C 204 -18 132 4 74 49 C 16 94 -12 156 -12 236 C -12 363 46 461 162 530 C 278 598 464 645 721 670 C 723 687 727 704 731 722 C 735 739 737 757 737 776 C 737 826 718 863 680 886 C 642 908 593 920 535 920 C 473 920 421 903 380 870 C 339 836 308 792 287 737 L 117 786 C 159 873 216 941 287 989 C 358 1037 443 1061 541 1061 Z M 647 238 L 702 553 C 530 536 400 504 313 456 C 225 408 182 344 182 262 C 182 216 196 182 225 159 C 253 136 294 125 346 125 C 406 125 459 134 506 154 C 553 173 600 201 647 238 Z M 659 1554 C 720 1554 767 1536 800 1501 C 833 1465 850 1422 850 1370 C 850 1304 826 1249 779 1203 C 732 1157 674 1135 604 1135 C 542 1135 495 1152 461 1188 C 427 1223 410 1267 410 1321 C 410 1384 434 1439 482 1485 C 530 1531 589 1554 659 1554 Z M 606 1206 C 652 1204 686 1223 709 1262 C 731 1300 743 1342 743 1386 C 743 1416 736 1439 722 1456 C 708 1472 685 1481 655 1483 C 605 1481 570 1462 550 1426 C 530 1389 520 1349 520 1305 C 520 1276 526 1252 540 1233 C 553 1213 575 1204 606 1206 Z" />
<glyph horiz-adv-x="1688" unicode="æ" d="M 1217 1059 C 1345 1059 1441 1026 1506 960 C 1571 894 1604 802 1604 682 C 1604 657 1602 631 1598 603 C 1594 575 1589 540 1583 498 L 858 498 C 856 482 854 468 854 454 C 854 440 854 428 854 416 C 854 320 874 248 916 198 C 957 148 1015 123 1090 123 C 1164 123 1227 139 1280 172 C 1333 204 1379 247 1419 301 L 1538 223 C 1487 157 1422 100 1344 54 C 1265 7 1177 -16 1081 -16 C 994 -16 921 1 861 36 C 801 70 755 116 725 172 C 663 116 596 71 526 35 C 456 0 377 -18 291 -18 C 204 -18 132 4 74 49 C 16 94 -12 156 -12 236 C -12 363 46 461 162 530 C 278 598 464 645 721 670 L 733 733 C 743 787 733 831 703 867 C 673 902 617 920 535 920 C 473 920 421 903 380 870 C 339 836 308 792 287 737 L 117 786 C 159 873 216 941 287 989 C 358 1037 443 1061 541 1061 C 626 1061 697 1048 754 1024 C 810 999 852 964 879 918 C 925 960 977 994 1035 1020 C 1093 1046 1153 1059 1217 1059 Z M 659 246 L 702 553 C 530 536 400 504 313 456 C 225 408 182 344 182 262 C 182 216 196 182 225 159 C 253 136 294 125 346 125 C 405 125 459 135 509 155 C 559 175 609 206 659 246 Z M 1423 621 C 1425 635 1427 650 1429 665 C 1431 679 1432 693 1432 707 C 1432 776 1414 829 1380 865 C 1345 901 1294 920 1227 920 C 1133 920 1057 894 1000 843 C 943 792 903 718 879 621 L 1423 621 Z" />
<glyph horiz-adv-x="977" unicode="ç" d="M 553 1059 C 679 1059 773 1029 836 969 C 898 909 930 829 930 729 L 758 719 C 756 784 740 834 711 868 C 681 902 635 920 573 920 C 479 920 404 887 348 823 C 291 758 252 665 231 545 C 226 518 222 493 220 469 C 218 445 217 422 217 401 C 217 321 234 254 270 202 C 305 149 360 123 436 123 C 508 123 568 142 614 180 C 660 218 701 274 735 348 L 858 287 C 821 199 765 127 690 70 C 615 12 531 -16 438 -16 C 431 -16 424 -15 417 -15 C 409 -15 402 -14 395 -14 L 362 -78 C 416 -84 452 -101 471 -129 C 490 -157 500 -184 500 -211 C 500 -266 477 -307 432 -335 C 386 -363 337 -377 285 -377 C 257 -377 229 -374 203 -369 C 176 -363 148 -354 119 -342 L 160 -264 C 178 -274 196 -282 214 -288 C 231 -294 247 -297 262 -297 C 282 -297 306 -291 333 -280 C 359 -269 373 -247 373 -215 C 373 -191 363 -172 343 -157 C 323 -141 294 -133 254 -131 L 330 -4 C 232 17 157 67 104 145 C 51 223 25 318 25 430 C 25 451 25 473 27 495 C 28 517 31 539 35 563 C 60 713 121 833 219 923 C 317 1013 428 1059 553 1059 Z" />
<glyph horiz-adv-x="1049" unicode="è" d="M 617 1436 L 750 1151 L 625 1151 L 402 1421 L 402 1436 L 617 1436 Z M 575 1059 C 705 1059 802 1026 867 960 C 932 894 965 801 965 682 C 965 657 963 631 959 603 C 955 575 950 540 944 498 L 215 498 C 213 482 211 468 211 454 C 211 440 211 428 211 416 C 211 320 232 248 274 198 C 316 148 374 123 449 123 C 524 123 589 140 644 175 C 698 209 744 251 780 301 L 899 223 C 848 157 783 100 705 54 C 626 7 538 -16 440 -16 C 309 -16 207 23 133 102 C 59 181 23 288 23 422 C 23 442 23 463 25 484 C 26 504 29 525 33 547 C 59 697 123 820 224 916 C 324 1011 441 1059 575 1059 Z M 784 621 C 786 635 788 650 790 665 C 792 679 793 693 793 707 C 793 774 775 826 741 864 C 706 901 654 920 586 920 C 491 920 415 894 357 842 C 299 790 259 717 236 621 L 784 621 Z" />
<glyph horiz-adv-x="1049" unicode="é" d="M 575 1059 C 705 1059 802 1026 867 960 C 932 894 965 801 965 682 C 965 657 963 631 959 603 C 955 575 950 540 944 498 L 215 498 C 213 482 211 468 211 454 C 211 440 211 428 211 416 C 211 320 232 248 274 198 C 316 148 374 123 449 123 C 524 123 589 140 644 175 C 698 209 744 251 780 301 L 899 223 C 848 157 783 100 705 54 C 626 7 538 -16 440 -16 C 309 -16 207 23 133 102 C 59 181 23 288 23 422 C 23 442 23 463 25 484 C 26 504 29 525 33 547 C 59 697 123 820 224 916 C 324 1011 441 1059 575 1059 Z M 784 621 C 786 635 788 650 790 665 C 792 679 793 693 793 707 C 793 774 775 826 741 864 C 706 901 654 920 586 920 C 491 920 415 894 357 842 C 299 790 259 717 236 621 L 784 621 Z M 678 1436 L 903 1436 L 901 1421 L 582 1151 L 446 1151 L 678 1436 Z" />
<glyph horiz-adv-x="1049" unicode="ê" d="M 575 1059 C 705 1059 802 1026 867 960 C 932 894 965 801 965 682 C 965 657 963 631 959 603 C 955 575 950 540 944 498 L 215 498 C 213 482 211 468 211 454 C 211 440 211 428 211 416 C 211 320 232 248 274 198 C 316 148 374 123 449 123 C 524 123 589 140 644 175 C 698 209 744 251 780 301 L 899 223 C 848 157 783 100 705 54 C 626 7 538 -16 440 -16 C 309 -16 207 23 133 102 C 59 181 23 288 23 422 C 23 442 23 463 25 484 C 26 504 29 525 33 547 C 59 697 123 820 224 916 C 324 1011 441 1059 575 1059 Z M 784 621 C 786 635 788 650 790 665 C 792 679 793 693 793 707 C 793 774 775 826 741 864 C 706 901 654 920 586 920 C 491 920 415 894 357 842 C 299 790 259 717 236 621 L 784 621 Z M 750 1432 L 901 1141 L 776 1141 L 637 1321 L 432 1141 L 295 1141 L 549 1432 L 750 1432 Z" />
<glyph horiz-adv-x="1049" unicode="ë" d="M 736 1386 L 910 1386 L 875 1190 L 701 1190 L 736 1386 Z M 369 1386 L 541 1386 L 506 1190 L 334 1190 L 369 1386 Z M 575 1059 C 705 1059 802 1026 867 960 C 932 894 965 801 965 682 C 965 657 963 631 959 603 C 955 575 950 540 944 498 L 215 498 C 213 482 211 468 211 454 C 211 440 211 428 211 416 C 211 320 232 248 274 198 C 316 148 374 123 449 123 C 524 123 589 140 644 175 C 698 209 744 251 780 301 L 899 223 C 848 157 783 100 705 54 C 626 7 538 -16 440 -16 C 309 -16 207 23 133 102 C 59 181 23 288 23 422 C 23 442 23 463 25 484 C 26 504 29 525 33 547 C 59 697 123 820 224 916 C 324 1011 441 1059 575 1059 Z M 784 621 C 786 635 788 650 790 665 C 792 679 793 693 793 707 C 793 774 775 826 741 864 C 706 901 654 920 586 920 C 491 920 415 894 357 842 C 299 790 259 717 236 621 L 784 621 Z" />
<glyph horiz-adv-x="479" unicode="ì" d="M 209 1042 L 389 1042 L 205 0 L 25 0 L 209 1042 Z M 301 1436 L 434 1151 L 309 1151 L 86 1421 L 86 1436 L 301 1436 Z" />
<glyph horiz-adv-x="479" unicode="í" d="M 434 1436 L 659 1436 L 657 1421 L 338 1151 L 202 1151 L 434 1436 Z M 209 1042 L 389 1042 L 205 0 L 25 0 L 209 1042 Z" />
<glyph horiz-adv-x="492" unicode="î" d="M 215 1042 L 395 1042 L 211 0 L 31 0 L 215 1042 Z M 478 1432 L 629 1141 L 504 1141 L 365 1321 L 160 1141 L 23 1141 L 277 1432 L 478 1432 Z" />
<glyph horiz-adv-x="492" unicode="ï" d="M 215 1042 L 395 1042 L 211 0 L 31 0 L 215 1042 Z M 463 1386 L 637 1386 L 602 1190 L 428 1190 L 463 1386 Z M 96 1386 L 268 1386 L 233 1190 L 61 1190 L 96 1386 Z" />
<glyph horiz-adv-x="1083" unicode="ñ" d="M 692 1061 C 774 1061 840 1042 890 1005 C 940 968 965 906 965 819 C 965 801 964 784 962 766 C 960 748 957 730 954 713 L 827 0 L 647 0 L 770 696 C 772 708 773 721 775 733 C 777 745 778 757 778 770 C 778 820 764 856 737 876 C 710 896 673 907 625 907 C 573 907 521 892 469 863 C 416 834 370 804 332 774 L 195 0 L 16 0 L 201 1042 L 375 1042 L 346 885 C 392 927 445 967 503 1005 C 561 1042 624 1061 692 1061 Z M 863 1419 L 969 1419 C 948 1343 920 1287 884 1249 C 848 1211 805 1192 754 1192 C 716 1192 675 1208 632 1240 C 589 1272 555 1288 531 1288 C 506 1288 485 1280 467 1264 C 449 1248 437 1222 429 1186 L 324 1186 C 342 1258 369 1313 405 1353 C 441 1393 485 1413 537 1413 C 573 1413 613 1396 657 1363 C 700 1329 735 1313 762 1313 C 788 1313 810 1322 826 1340 C 842 1358 854 1385 863 1419 Z" />
<glyph horiz-adv-x="1065" unicode="ò" d="M 565 1059 C 697 1059 799 1018 870 937 C 941 856 977 751 977 623 C 977 600 975 576 973 552 C 970 528 967 504 963 481 C 934 316 871 192 773 109 C 675 25 562 -16 434 -16 C 298 -16 195 24 126 106 C 57 188 23 292 23 420 C 23 443 24 467 27 492 C 29 516 33 541 37 567 C 62 713 122 832 217 923 C 311 1013 427 1059 565 1059 Z M 768 504 C 772 529 775 554 778 580 C 780 605 782 629 782 653 C 782 726 766 789 734 841 C 702 893 647 920 569 920 C 471 920 396 885 342 817 C 288 749 251 657 231 543 C 226 515 222 488 219 462 C 216 436 215 412 215 389 C 215 310 231 246 265 197 C 298 147 352 123 428 123 C 524 123 599 156 654 224 C 709 292 747 385 768 504 Z M 625 1436 L 758 1151 L 633 1151 L 410 1421 L 410 1436 L 625 1436 Z" />
<glyph horiz-adv-x="1044" unicode="ó" d="M 686 1436 L 911 1436 L 909 1421 L 590 1151 L 454 1151 L 686 1436 Z M 565 1059 C 697 1059 799 1018 870 937 C 941 856 977 751 977 623 C 977 600 975 576 973 552 C 970 528 967 504 963 481 C 934 316 871 192 773 109 C 675 25 562 -16 434 -16 C 298 -16 195 24 126 106 C 57 188 23 292 23 420 C 23 443 24 467 27 492 C 29 516 33 541 37 567 C 62 713 122 832 217 923 C 311 1013 427 1059 565 1059 Z M 768 504 C 772 529 775 554 778 580 C 780 605 782 629 782 653 C 782 726 766 789 734 841 C 702 893 647 920 569 920 C 471 920 396 885 342 817 C 288 749 251 657 231 543 C 226 515 222 488 219 462 C 216 436 215 412 215 389 C 215 310 231 246 265 197 C 298 147 352 123 428 123 C 524 123 599 156 654 224 C 709 292 747 385 768 504 Z" />
<glyph horiz-adv-x="1065" unicode="ô" d="M 565 1059 C 697 1059 799 1018 870 937 C 941 856 977 751 977 623 C 977 600 975 576 973 552 C 970 528 967 504 963 481 C 934 316 871 192 773 109 C 675 25 562 -16 434 -16 C 298 -16 195 24 126 106 C 57 188 23 292 23 420 C 23 443 24 467 27 492 C 29 516 33 541 37 567 C 62 713 122 832 217 923 C 311 1013 427 1059 565 1059 Z M 768 504 C 772 529 775 554 778 580 C 780 605 782 629 782 653 C 782 726 766 789 734 841 C 702 893 647 920 569 920 C 471 920 396 885 342 817 C 288 749 251 657 231 543 C 226 515 222 488 219 462 C 216 436 215 412 215 389 C 215 310 231 246 265 197 C 298 147 352 123 428 123 C 524 123 599 156 654 224 C 709 292 747 385 768 504 Z M 742 1432 L 893 1141 L 768 1141 L 629 1321 L 424 1141 L 287 1141 L 541 1432 L 742 1432 Z" />
<glyph horiz-adv-x="1065" unicode="õ" d="M 855 1419 L 961 1419 C 940 1343 912 1287 876 1249 C 840 1211 797 1192 746 1192 C 708 1192 667 1208 624 1240 C 581 1272 547 1288 523 1288 C 498 1288 477 1280 459 1264 C 441 1248 429 1222 421 1186 L 316 1186 C 334 1258 361 1313 397 1353 C 433 1393 477 1413 529 1413 C 565 1413 605 1396 649 1363 C 692 1329 727 1313 754 1313 C 780 1313 802 1322 818 1340 C 834 1358 846 1385 855 1419 Z M 565 1059 C 697 1059 799 1018 870 937 C 941 856 977 751 977 623 C 977 600 975 576 973 552 C 970 528 967 504 963 481 C 934 316 871 192 773 109 C 675 25 562 -16 434 -16 C 298 -16 195 24 126 106 C 57 188 23 292 23 420 C 23 443 24 467 27 492 C 29 516 33 541 37 567 C 62 713 122 832 217 923 C 311 1013 427 1059 565 1059 Z M 768 504 C 772 529 775 554 778 580 C 780 605 782 629 782 653 C 782 726 766 789 734 841 C 702 893 647 920 569 920 C 471 920 396 885 342 817 C 288 749 251 657 231 543 C 226 515 222 488 219 462 C 216 436 215 412 215 389 C 215 310 231 246 265 197 C 298 147 352 123 428 123 C 524 123 599 156 654 224 C 709 292 747 385 768 504 Z" />
<glyph horiz-adv-x="1065" unicode="ö" d="M 732 1386 L 906 1386 L 871 1190 L 697 1190 L 732 1386 Z M 365 1386 L 537 1386 L 502 1190 L 330 1190 L 365 1386 Z M 565 1059 C 697 1059 799 1018 870 937 C 941 856 977 751 977 623 C 977 600 975 576 973 552 C 970 528 967 504 963 481 C 934 316 871 192 773 109 C 675 25 562 -16 434 -16 C 298 -16 195 24 126 106 C 57 188 23 292 23 420 C 23 443 24 467 27 492 C 29 516 33 541 37 567 C 62 713 122 832 217 923 C 311 1013 427 1059 565 1059 Z M 768 504 C 772 529 775 554 778 580 C 780 605 782 629 782 653 C 782 726 766 789 734 841 C 702 893 647 920 569 920 C 471 920 396 885 342 817 C 288 749 251 657 231 543 C 226 515 222 488 219 462 C 216 436 215 412 215 389 C 215 310 231 246 265 197 C 298 147 352 123 428 123 C 524 123 599 156 654 224 C 709 292 747 385 768 504 Z" />
<glyph horiz-adv-x="1167" unicode="÷" d="M 578 297 C 609 297 637 285 661 261 C 685 237 698 208 698 174 C 698 142 685 115 661 91 C 637 67 609 55 578 55 C 544 55 515 67 491 92 C 467 116 455 144 455 176 C 455 208 467 237 492 261 C 516 285 545 297 578 297 Z M 578 1047 C 609 1047 636 1034 660 1010 C 684 986 696 957 696 924 C 696 892 684 864 660 840 C 636 816 608 805 578 805 C 544 805 515 817 491 841 C 467 865 455 893 455 926 C 455 959 467 987 491 1011 C 515 1035 544 1047 578 1047 Z M 1059 625 L 1059 477 L 92 477 L 92 625 L 1059 625 Z" />
<glyph horiz-adv-x="1065" unicode="ø" d="M 979 1161 L 844 961 C 887 921 920 873 943 815 C 965 757 977 693 977 623 C 977 600 975 576 973 552 C 970 528 967 504 963 481 C 948 398 924 326 892 264 C 859 202 819 150 773 108 C 727 66 675 35 617 15 C 559 -5 498 -16 434 -16 C 392 -16 353 -11 317 -3 C 281 5 249 18 219 35 L 111 -125 L 10 -125 L 152 84 C 110 123 78 171 56 229 C 34 286 23 350 23 420 C 23 443 24 467 27 492 C 29 516 33 541 37 567 C 49 641 71 708 102 768 C 132 828 170 880 216 923 C 262 966 314 999 373 1023 C 431 1047 495 1059 565 1059 C 605 1059 642 1054 678 1045 C 713 1036 746 1024 776 1008 L 879 1161 L 979 1161 Z M 788 653 C 788 686 785 718 780 749 C 774 779 765 806 752 829 L 301 158 C 334 134 376 123 428 123 C 476 123 519 131 557 149 C 595 166 629 191 658 224 C 686 256 710 296 730 344 C 749 391 764 444 774 504 C 778 529 781 554 784 580 C 786 605 788 629 788 653 L 788 653 Z M 694 887 C 678 897 659 905 639 911 C 618 917 595 920 569 920 C 519 920 476 911 438 893 C 400 875 367 850 339 818 C 311 785 287 745 268 699 C 249 653 235 601 225 543 C 219 515 215 488 213 462 C 210 436 209 412 209 389 C 209 356 211 324 217 294 C 222 264 231 237 244 215 L 694 887 Z" />
<glyph horiz-adv-x="1079" unicode="ù" d="M 819 1042 L 999 1042 L 815 0 L 639 0 L 668 158 C 620 115 568 75 510 38 C 452 0 389 -18 322 -18 C 238 -18 173 3 126 46 C 78 89 55 153 55 238 C 55 252 55 267 57 283 C 58 298 60 313 63 328 L 188 1042 L 369 1042 L 246 344 C 244 331 242 319 240 307 C 238 295 238 282 238 270 C 238 220 251 185 278 165 C 305 145 343 135 391 135 C 447 135 499 149 548 177 C 596 205 641 236 682 270 L 819 1042 Z M 629 1436 L 762 1151 L 637 1151 L 414 1421 L 414 1436 L 629 1436 Z" />
<glyph horiz-adv-x="1079" unicode="ú" d="M 819 1042 L 999 1042 L 815 0 L 639 0 L 668 158 C 620 115 568 75 510 38 C 452 0 389 -18 322 -18 C 238 -18 173 3 126 46 C 78 89 55 153 55 238 C 55 252 55 267 57 283 C 58 298 60 313 63 328 L 188 1042 L 369 1042 L 246 344 C 244 331 242 319 240 307 C 238 295 238 282 238 270 C 238 220 251 185 278 165 C 305 145 343 135 391 135 C 447 135 499 149 548 177 C 596 205 641 236 682 270 L 819 1042 Z M 721 1436 L 946 1436 L 944 1421 L 625 1151 L 489 1151 L 721 1436 Z" />
<glyph horiz-adv-x="1079" unicode="û" d="M 819 1042 L 999 1042 L 815 0 L 639 0 L 668 158 C 620 115 568 75 510 38 C 452 0 389 -18 322 -18 C 238 -18 173 3 126 46 C 78 89 55 153 55 238 C 55 252 55 267 57 283 C 58 298 60 313 63 328 L 188 1042 L 369 1042 L 246 344 C 244 331 242 319 240 307 C 238 295 238 282 238 270 C 238 220 251 185 278 165 C 305 145 343 135 391 135 C 447 135 499 149 548 177 C 596 205 641 236 682 270 L 819 1042 Z M 781 1432 L 932 1141 L 807 1141 L 668 1321 L 463 1141 L 326 1141 L 580 1432 L 781 1432 Z" />
<glyph horiz-adv-x="1079" unicode="ü" d="M 819 1042 L 999 1042 L 815 0 L 639 0 L 668 158 C 620 115 568 75 510 38 C 452 0 389 -18 322 -18 C 238 -18 173 3 126 46 C 78 89 55 153 55 238 C 55 252 55 267 57 283 C 58 298 60 313 63 328 L 188 1042 L 369 1042 L 246 344 C 244 331 242 319 240 307 C 238 295 238 282 238 270 C 238 220 251 185 278 165 C 305 145 343 135 391 135 C 447 135 499 149 548 177 C 596 205 641 236 682 270 L 819 1042 Z M 750 1386 L 924 1386 L 889 1190 L 715 1190 L 750 1386 Z M 383 1386 L 555 1386 L 520 1190 L 348 1190 L 383 1386 Z" />
<glyph horiz-adv-x="909" unicode="ý" d="M 647 1436 L 872 1436 L 870 1421 L 551 1151 L 415 1151 L 647 1436 Z M 797 1042 L 963 1042 L 391 -33 C 333 -143 274 -221 214 -269 C 154 -316 87 -340 14 -340 C -17 -340 -44 -338 -67 -334 C -89 -330 -112 -325 -135 -319 L -111 -172 C -87 -178 -67 -183 -51 -187 C -35 -191 -19 -193 -4 -193 C 53 -193 102 -176 144 -143 C 185 -110 222 -54 254 25 C 254 27 229 164 180 437 C 131 709 94 911 70 1042 L 252 1042 L 383 223 L 797 1042 Z" />
<glyph horiz-adv-x="909" unicode="ÿ" d="M 797 1042 L 963 1042 L 391 -33 C 333 -143 274 -221 214 -269 C 154 -316 87 -340 14 -340 C -17 -340 -44 -338 -67 -334 C -89 -330 -112 -325 -135 -319 L -111 -172 C -87 -178 -67 -183 -51 -187 C -35 -191 -19 -193 -4 -193 C 53 -193 102 -176 144 -143 C 185 -110 222 -54 254 25 C 254 27 229 164 180 437 C 131 709 94 911 70 1042 L 252 1042 L 383 223 L 797 1042 Z M 672 1386 L 846 1386 L 811 1190 L 637 1190 L 672 1386 Z M 305 1386 L 477 1386 L 442 1190 L 270 1190 L 305 1386 Z" />
<glyph horiz-adv-x="475" unicode="ı" d="M 207 1042 L 387 1042 L 203 0 L 23 0 L 207 1042 Z" />
<glyph horiz-adv-x="1018" unicode="Ł" d="M 901 164 L 872 0 L 39 0 L 147 614 L 0 530 L 27 684 L 172 764 L 291 1434 L 485 1434 L 381 838 L 639 983 L 610 825 L 356 688 L 264 164 L 901 164 Z" />
<glyph horiz-adv-x="508" unicode="ł" d="M 498 893 L 473 752 L 338 680 L 219 0 L 39 0 L 145 610 L 16 537 L 41 678 L 170 748 L 291 1434 L 471 1434 L 362 815 L 498 893 Z" />
<glyph horiz-adv-x="1985" unicode="Œ" d="M 1165 1434 L 2038 1434 L 2011 1270 L 1319 1270 L 1239 813 L 1722 813 L 1694 651 L 1210 651 L 1124 164 L 1837 164 L 1806 0 L 913 0 L 938 145 C 878 89 819 46 761 18 C 702 -10 636 -25 563 -25 C 401 -25 277 27 191 131 C 104 235 61 376 61 555 C 61 589 62 623 65 658 C 68 692 73 727 80 762 C 118 966 200 1134 324 1264 C 448 1394 599 1460 776 1460 C 849 1460 918 1444 982 1414 C 1046 1384 1098 1340 1139 1282 L 1165 1434 Z M 1042 696 C 1048 732 1053 770 1057 810 C 1061 850 1063 887 1063 922 C 1063 1042 1037 1135 986 1200 C 935 1265 863 1298 770 1298 C 647 1298 544 1248 461 1150 C 377 1052 320 914 289 737 C 282 703 277 667 273 630 C 269 593 268 558 268 524 C 268 406 293 311 343 241 C 393 170 466 135 563 135 C 688 135 791 185 873 287 C 955 388 1011 524 1042 696 Z" />
<glyph horiz-adv-x="1759" unicode="œ" d="M 1288 1059 C 1416 1059 1513 1026 1578 962 C 1642 897 1675 804 1675 682 C 1675 657 1673 631 1670 603 C 1666 575 1661 540 1655 498 L 930 498 C 928 482 926 468 926 454 C 926 440 926 428 926 416 C 926 320 946 248 988 198 C 1029 148 1087 123 1161 123 C 1233 123 1296 138 1348 170 C 1400 201 1448 245 1491 301 L 1610 223 C 1559 157 1494 100 1416 54 C 1337 7 1249 -16 1153 -16 C 1073 -16 1004 0 946 33 C 888 65 841 108 807 162 C 759 106 703 62 639 31 C 575 0 507 -16 434 -16 C 298 -16 195 24 126 106 C 57 188 23 292 23 420 C 23 443 24 467 27 492 C 29 516 33 541 37 567 C 62 713 122 832 217 923 C 311 1013 427 1059 565 1059 C 644 1059 713 1041 771 1006 C 829 971 875 926 909 870 C 958 926 1015 971 1080 1006 C 1144 1041 1214 1059 1288 1059 Z M 768 504 C 772 529 775 554 778 580 C 780 605 782 629 782 653 C 782 726 766 789 734 841 C 702 893 647 920 569 920 C 471 920 396 885 342 817 C 288 749 251 657 231 543 C 226 515 222 488 219 462 C 216 436 215 412 215 389 C 215 310 231 246 265 197 C 298 147 352 123 428 123 C 524 123 599 156 654 224 C 709 292 747 385 768 504 Z M 1495 621 C 1497 635 1498 650 1500 665 C 1502 679 1503 693 1503 707 C 1503 777 1485 830 1451 866 C 1417 902 1366 920 1298 920 C 1202 920 1126 894 1070 842 C 1014 790 974 717 950 621 L 1495 621 Z" />
<glyph horiz-adv-x="1176" unicode="Š" d="M 694 1460 C 825 1460 929 1436 1005 1388 C 1081 1340 1137 1278 1171 1202 L 1006 1098 C 978 1159 939 1208 887 1244 C 835 1280 766 1298 680 1298 C 591 1298 518 1275 462 1229 C 405 1183 377 1120 377 1042 C 377 986 397 942 437 909 C 477 875 562 839 690 799 C 815 759 910 710 974 654 C 1038 597 1071 522 1071 428 C 1071 285 1018 174 912 94 C 806 14 675 -25 518 -25 C 375 -25 260 2 173 56 C 86 110 23 187 -16 287 L 154 389 C 183 306 227 243 285 200 C 343 156 418 135 508 135 C 612 135 698 156 764 199 C 830 242 864 308 864 397 C 864 453 844 497 804 531 C 764 564 689 597 578 631 C 434 674 330 725 268 783 C 205 841 174 916 174 1006 C 174 1136 223 1245 323 1331 C 423 1417 546 1460 694 1460 Z M 924 1812 L 1061 1812 L 807 1521 L 607 1521 L 455 1812 L 580 1812 L 719 1632 L 924 1812 Z" />
<glyph horiz-adv-x="920" unicode="š" d="M 494 1059 C 592 1059 672 1040 732 1002 C 792 964 836 909 864 836 L 717 766 C 703 810 678 847 642 877 C 606 907 561 922 506 922 C 442 922 388 908 344 880 C 300 852 279 810 279 754 C 279 713 296 682 331 662 C 366 642 413 623 473 606 C 598 570 685 530 735 486 C 784 442 809 387 809 319 C 809 219 765 139 679 77 C 593 15 490 -16 371 -16 C 264 -16 177 4 110 46 C 42 87 -7 147 -39 225 L 106 299 C 127 244 158 201 199 169 C 240 137 296 121 367 121 C 441 121 502 134 551 162 C 600 189 625 231 625 287 C 625 319 612 347 586 370 C 560 392 501 418 408 446 C 288 482 206 521 161 565 C 116 608 94 663 94 729 C 94 823 134 902 215 965 C 296 1027 389 1059 494 1059 Z M 711 1442 L 848 1442 L 594 1151 L 394 1151 L 242 1442 L 367 1442 L 506 1262 L 711 1442 Z" />
<glyph horiz-adv-x="1161" unicode="Ÿ" d="M 863 1765 L 1037 1765 L 1002 1569 L 828 1569 L 863 1765 Z M 496 1765 L 668 1765 L 633 1569 L 461 1569 L 496 1765 Z M 1090 1434 L 1296 1434 L 655 578 L 555 0 L 360 0 L 459 563 L 119 1434 L 330 1434 L 588 737 L 1090 1434 Z" />
<glyph horiz-adv-x="1090" unicode="Ž" d="M 207 1434 L 1176 1434 L 1155 1309 L 182 164 L 956 164 L 928 0 L -88 0 L -68 125 L 907 1270 L 178 1270 L 207 1434 Z M 905 1812 L 1042 1812 L 788 1521 L 588 1521 L 436 1812 L 561 1812 L 700 1632 L 905 1812 Z" />
<glyph horiz-adv-x="838" unicode="ž" d="M 129 1042 L 856 1042 L 838 938 L 154 133 L 707 133 L 684 0 L -88 0 L -70 106 L 608 905 L 104 905 L 129 1042 Z M 715 1442 L 852 1442 L 598 1151 L 398 1151 L 246 1442 L 371 1442 L 510 1262 L 715 1442 Z" />
<glyph horiz-adv-x="862" unicode="ƒ" d="M 686 1401 C 718 1401 748 1400 778 1398 C 808 1396 835 1393 860 1389 L 836 1253 C 824 1253 807 1255 784 1258 C 760 1260 739 1262 721 1262 C 681 1262 646 1251 617 1231 C 588 1211 569 1177 561 1130 L 528 932 L 729 932 L 705 801 L 506 801 C 434 398 394 172 385 122 C 375 72 371 47 371 47 C 356 -31 322 -95 269 -143 C 216 -191 150 -216 70 -217 C 38 -217 7 -216 -22 -214 C -52 -212 -79 -209 -104 -205 L -80 -70 C -68 -70 -51 -72 -28 -74 C -4 -76 16 -78 35 -78 C 75 -78 109 -67 138 -47 C 167 -27 186 6 195 53 C 195 53 199 77 207 126 C 215 174 255 399 326 801 L 168 801 L 193 934 L 350 934 L 385 1137 C 398 1215 431 1278 485 1327 C 538 1375 605 1400 686 1401 Z" />
<glyph horiz-adv-x="481" unicode="ʻ" d="M 408 1434 L 506 1434 L 340 1171 L 436 1171 L 395 942 L 170 942 L 205 1141 L 408 1434 Z" />
<glyph horiz-adv-x="481" unicode="ʼ" d="M 256 1434 L 481 1434 L 446 1233 L 242 942 L 145 942 L 311 1204 L 217 1204 L 256 1434 Z" />
<glyph horiz-adv-x="958" unicode="ˆ" d="M 715 1442 L 866 1151 L 741 1151 L 602 1331 L 397 1151 L 260 1151 L 514 1442 L 715 1442 Z" />
<glyph horiz-adv-x="958" unicode="ˇ" d="M 770 1442 L 907 1442 L 653 1151 L 453 1151 L 301 1442 L 426 1442 L 565 1262 L 770 1442 Z" />
<glyph horiz-adv-x="958" unicode="ˉ" d="M 303 1370 L 891 1370 L 870 1251 L 283 1251 L 303 1370 Z" />
<glyph horiz-adv-x="958" unicode="˘" d="M 782 1434 L 891 1434 C 864 1352 825 1282 773 1224 C 721 1166 648 1137 555 1137 C 469 1137 411 1162 379 1213 C 347 1263 332 1327 334 1405 L 334 1434 L 442 1434 C 445 1384 453 1344 467 1312 C 481 1280 518 1264 578 1264 C 638 1264 682 1280 708 1312 C 734 1344 759 1384 782 1434 Z" />
<glyph horiz-adv-x="958" unicode="˙" d="M 510 1399 L 692 1399 L 655 1198 L 473 1198 L 510 1399 Z" />
<glyph horiz-adv-x="958" unicode="˚" d="M 620 1554 C 681 1554 728 1536 761 1501 C 794 1465 811 1422 811 1370 C 811 1304 787 1249 740 1203 C 693 1157 635 1135 565 1135 C 503 1135 456 1152 422 1188 C 388 1223 371 1267 371 1321 C 371 1384 395 1439 443 1485 C 491 1531 550 1554 620 1554 Z M 567 1206 C 613 1204 647 1223 670 1262 C 692 1300 704 1342 704 1386 C 704 1416 697 1439 683 1456 C 669 1472 646 1481 616 1483 C 566 1481 531 1462 511 1426 C 491 1389 481 1349 481 1305 C 481 1276 487 1252 501 1233 C 514 1213 536 1204 567 1206 Z" />
<glyph horiz-adv-x="958" unicode="˜" d="M 801 1419 L 907 1419 C 886 1343 858 1287 822 1249 C 786 1211 743 1192 692 1192 C 654 1192 613 1208 570 1240 C 527 1272 493 1288 469 1288 C 444 1288 423 1280 405 1264 C 387 1248 375 1222 367 1186 L 262 1186 C 280 1258 307 1313 343 1353 C 379 1393 423 1413 475 1413 C 511 1413 551 1396 595 1363 C 638 1329 673 1313 700 1313 C 726 1313 748 1322 764 1340 C 780 1358 792 1385 801 1419 Z" />
<glyph horiz-adv-x="1257" unicode="π" d="M 143 1040 L 1241 1040 L 1217 897 L 1008 897 L 893 254 C 892 248 891 241 890 233 C 889 225 889 219 889 213 C 889 174 900 150 924 140 C 947 130 975 125 1008 125 C 1020 125 1034 126 1049 128 C 1064 130 1078 132 1092 135 L 1067 6 C 1041 0 1016 -5 992 -10 C 968 -15 943 -18 918 -18 C 854 -18 804 -4 766 24 C 728 52 709 100 709 170 C 709 183 709 197 711 211 C 712 225 714 238 717 252 C 735 358 754 466 774 574 C 793 682 813 790 834 897 L 467 897 L 311 0 L 137 0 L 297 897 L 119 897 L 143 1040 Z" />
<glyph horiz-adv-x="702" unicode="‐" d="M 94 625 L 580 625 L 551 463 L 66 463 L 94 625 Z" />
<glyph horiz-adv-x="702" unicode="‑" d="M 94 625 L 580 625 L 551 463 L 66 463 L 94 625 Z" />
<glyph horiz-adv-x="1167" unicode="–" d="M 145 625 L 993 625 L 967 475 L 119 475 L 145 625 Z" />
<glyph horiz-adv-x="2200" unicode="—" d="M 145 625 L 2025 625 L 1999 475 L 119 475 L 145 625 Z" />
<glyph horiz-adv-x="2085" unicode="―" d="M 1874 131 L 1874 0 L 66 0 L 66 131 L 1874 131 Z" />
<glyph horiz-adv-x="481" unicode="‘" d="M 408 1434 L 506 1434 L 340 1171 L 436 1171 L 395 942 L 170 942 L 205 1141 L 408 1434 Z" />
<glyph horiz-adv-x="481" unicode="’" d="M 256 1434 L 481 1434 L 446 1233 L 242 942 L 145 942 L 311 1204 L 217 1204 L 256 1434 Z" />
<glyph horiz-adv-x="481" unicode="‚" d="M 47 236 L 272 236 L 238 35 L 33 -256 L -63 -256 L 102 6 L 8 6 L 47 236 Z" />
<glyph horiz-adv-x="829" unicode="“" d="M 408 1434 L 506 1434 L 340 1171 L 436 1171 L 395 942 L 170 942 L 205 1141 L 408 1434 Z M 754 1434 L 852 1434 L 686 1171 L 782 1171 L 741 942 L 516 942 L 551 1141 L 754 1434 Z" />
<glyph horiz-adv-x="829" unicode="”" d="M 256 1434 L 481 1434 L 446 1233 L 242 942 L 145 942 L 311 1204 L 217 1204 L 256 1434 Z M 602 1434 L 827 1434 L 793 1233 L 588 942 L 492 942 L 657 1204 L 563 1204 L 602 1434 Z" />
<glyph horiz-adv-x="829" unicode="„" d="M 47 236 L 272 236 L 238 35 L 33 -256 L -63 -256 L 102 6 L 8 6 L 47 236 Z M 393 236 L 618 236 L 584 35 L 379 -256 L 283 -256 L 449 6 L 354 6 L 393 236 Z" />
<glyph horiz-adv-x="1100" unicode="†" d="M 639 1055 L 956 1075 L 922 877 L 627 993 L 633 721 L 440 4 L 391 14 L 461 752 L 569 1006 L 254 995 L 291 1194 L 580 1063 L 571 1442 L 766 1407 L 639 1055 Z" />
<glyph horiz-adv-x="1100" unicode="‡" d="M 639 1055 L 956 1075 L 922 877 L 627 993 L 633 702 L 516 428 L 831 438 L 795 240 L 506 371 L 514 -8 L 319 27 L 446 379 L 129 358 L 164 557 L 459 440 L 453 733 L 569 1006 L 254 995 L 291 1194 L 580 1063 L 571 1442 L 766 1407 L 639 1055 Z" />
<glyph horiz-adv-x="866" unicode="•" d="M 434 1114 C 542 1114 634 1074 712 996 C 790 918 829 825 829 717 C 829 609 790 515 712 437 C 634 358 542 319 434 319 C 325 319 232 358 154 437 C 76 515 37 609 37 717 C 37 825 76 918 154 996 C 232 1074 325 1114 434 1114 Z" />
<glyph horiz-adv-x="1751" unicode="…" d="M 96 240 L 326 240 L 283 0 L 53 0 L 96 240 Z M 680 240 L 910 240 L 867 0 L 637 0 L 680 240 Z M 1263 240 L 1493 240 L 1450 0 L 1220 0 L 1263 240 Z" />
<glyph horiz-adv-x="2511" unicode="‰" d="M 578 1401 C 665 1401 735 1372 789 1315 C 843 1258 870 1190 870 1112 C 870 1022 834 939 762 863 C 690 786 606 748 508 748 C 417 748 344 776 290 834 C 236 891 209 958 209 1036 C 209 1128 245 1211 318 1287 C 391 1363 478 1401 578 1401 Z M 506 881 C 564 881 615 902 660 945 C 704 988 727 1040 727 1102 C 727 1150 712 1189 684 1221 C 656 1252 619 1268 573 1268 C 513 1268 461 1246 418 1202 C 375 1158 354 1106 354 1044 C 354 997 367 958 395 927 C 423 896 460 881 506 881 Z M 1247 631 C 1334 631 1405 602 1459 545 C 1513 488 1540 420 1540 342 C 1540 252 1504 169 1432 92 C 1360 15 1275 -23 1178 -23 C 1086 -23 1014 5 960 63 C 906 121 879 188 879 266 C 879 358 915 441 988 517 C 1061 593 1147 631 1247 631 Z M 1176 111 C 1234 111 1285 132 1330 175 C 1374 218 1397 270 1397 332 C 1397 380 1382 419 1354 451 C 1326 482 1289 498 1243 498 C 1183 498 1131 476 1088 432 C 1045 388 1024 336 1024 274 C 1024 227 1037 188 1065 157 C 1093 126 1130 111 1176 111 Z M 2007 631 C 2094 631 2165 602 2219 545 C 2273 488 2300 420 2300 342 C 2300 252 2264 169 2192 92 C 2120 15 2035 -23 1937 -23 C 1846 -23 1773 5 1719 63 C 1665 121 1638 188 1638 266 C 1638 358 1674 441 1747 517 C 1820 593 1907 631 2007 631 Z M 1935 111 C 1993 111 2044 132 2089 175 C 2134 218 2157 270 2157 332 C 2157 380 2142 419 2114 451 C 2086 482 2049 498 2003 498 C 1943 498 1891 476 1848 432 C 1805 388 1784 336 1784 274 C 1784 227 1797 188 1825 157 C 1852 126 1889 111 1935 111 Z M 1421 1376 L 1561 1376 L 324 0 L 186 0 L 1421 1376 Z" />
<glyph horiz-adv-x="664" unicode="‹" d="M 479 930 L 582 844 L 254 541 L 475 240 L 346 170 L 90 510 L 104 590 L 479 930 Z" />
<glyph horiz-adv-x="664" unicode="›" d="M 279 930 L 537 590 L 522 510 L 145 170 L 45 256 L 371 559 L 152 860 L 279 930 Z" />
<glyph horiz-adv-x="365" unicode="⁄" d="M 801 1458 L 946 1458 L -391 -27 L -537 -27 L 801 1458 Z" />
<glyph horiz-adv-x="1167" unicode="€" d="M 793 1403 C 896 1403 981 1385 1047 1349 C 1113 1313 1164 1271 1200 1223 L 1059 1116 C 1030 1152 996 1184 958 1212 C 920 1239 866 1253 797 1253 C 714 1253 641 1220 577 1154 C 513 1088 462 999 424 885 L 842 885 L 823 780 L 393 780 C 390 768 387 755 385 742 C 383 729 381 717 379 705 C 375 683 371 661 368 639 C 365 616 363 593 362 571 L 719 571 L 700 467 L 360 467 C 364 378 386 299 426 230 C 465 161 535 127 635 127 C 689 127 742 142 794 174 C 845 205 887 237 920 270 L 1024 150 C 958 94 893 51 828 21 C 762 -8 690 -23 612 -23 C 458 -23 349 26 285 126 C 221 226 187 339 182 467 L 29 467 L 45 571 L 184 571 C 184 595 186 620 190 644 C 193 668 197 691 201 715 L 213 780 L 82 780 L 100 885 L 242 885 C 288 1035 359 1159 455 1257 C 550 1354 663 1403 793 1403 Z" />
<glyph horiz-adv-x="985" unicode="™" d="M 965 1434 L 979 1001 L 903 1001 L 889 1313 L 776 1001 L 731 1001 L 621 1313 L 604 1001 L 530 1001 L 553 1434 L 666 1434 L 756 1159 L 848 1434 L 965 1434 Z M 483 1434 L 483 1362 L 367 1362 L 367 1001 L 285 1001 L 285 1364 L 170 1364 L 170 1434 L 483 1434 Z" />
<glyph horiz-adv-x="2011" unicode="⅓" d="M 1532 842 C 1626 842 1698 820 1747 778 C 1796 735 1821 683 1821 623 C 1821 573 1803 532 1767 501 C 1731 470 1689 446 1642 430 C 1682 416 1715 392 1741 356 C 1767 320 1780 280 1780 236 C 1780 151 1740 86 1661 41 C 1581 -4 1502 -27 1423 -27 C 1338 -27 1267 -13 1211 14 C 1155 42 1107 80 1067 129 L 1184 207 C 1207 172 1240 144 1283 122 C 1325 100 1372 90 1423 90 C 1463 90 1508 102 1556 126 C 1604 150 1628 190 1628 244 C 1628 281 1613 310 1585 330 C 1557 350 1516 360 1462 360 L 1348 360 L 1368 479 L 1477 479 C 1521 479 1564 488 1606 506 C 1648 524 1669 560 1669 612 C 1669 644 1657 672 1634 694 C 1610 716 1576 727 1530 727 C 1489 727 1448 716 1406 695 C 1364 674 1328 648 1298 616 L 1217 709 C 1273 759 1329 794 1383 813 C 1437 832 1487 842 1532 842 Z M 553 727 L 723 727 L 702 612 L 207 612 L 225 727 L 410 727 L 510 1292 L 315 1227 L 332 1321 C 396 1347 444 1370 477 1389 C 510 1407 548 1431 590 1460 L 682 1460 L 553 727 Z M 1604 1458 L 1743 1458 L 408 -27 L 268 -27 L 1604 1458 Z" />
<glyph horiz-adv-x="2011" unicode="⅔" d="M 1561 842 C 1655 842 1727 820 1776 778 C 1824 735 1849 683 1849 623 C 1849 573 1831 532 1795 501 C 1759 470 1717 446 1671 430 C 1711 416 1744 392 1770 356 C 1795 320 1808 280 1808 236 C 1808 151 1768 86 1689 41 C 1610 -4 1531 -27 1452 -27 C 1367 -27 1296 -13 1240 14 C 1184 42 1136 80 1096 129 L 1212 207 C 1236 172 1269 144 1311 122 C 1353 100 1400 90 1450 90 C 1490 90 1535 102 1583 126 C 1631 150 1655 190 1655 244 C 1655 281 1641 310 1613 330 C 1585 350 1543 360 1489 360 L 1374 360 L 1397 479 L 1503 479 C 1547 479 1591 488 1634 506 C 1676 524 1698 560 1698 612 C 1698 644 1686 672 1663 694 C 1639 716 1605 727 1559 727 C 1517 727 1475 716 1434 695 C 1393 674 1357 648 1325 616 L 1245 709 C 1301 759 1356 794 1410 813 C 1464 832 1515 842 1561 842 Z M 614 1456 C 705 1456 775 1432 824 1386 C 872 1339 897 1281 897 1212 C 897 1138 870 1078 817 1030 C 763 982 707 935 647 891 C 615 866 576 840 530 813 C 483 785 437 759 391 735 L 819 735 L 799 614 L 160 614 L 176 709 C 248 753 313 793 370 829 C 427 865 480 901 528 936 C 570 966 616 1005 667 1051 C 717 1097 743 1152 743 1214 C 743 1250 731 1279 708 1303 C 684 1327 650 1339 604 1339 C 553 1339 507 1326 467 1302 C 426 1277 386 1246 348 1210 L 279 1309 C 335 1359 390 1396 446 1420 C 502 1444 558 1456 614 1456 Z M 1628 1458 L 1769 1458 L 434 -27 L 293 -27 L 1628 1458 Z" />
<glyph horiz-adv-x="2011" unicode="⅛" d="M 1511 846 C 1621 846 1702 824 1753 782 C 1804 740 1829 691 1829 635 C 1829 581 1810 540 1772 510 C 1734 480 1693 454 1647 434 C 1691 413 1726 385 1752 349 C 1777 313 1790 275 1790 233 C 1790 146 1752 81 1678 37 C 1604 -7 1524 -29 1440 -29 C 1318 -29 1229 -6 1173 39 C 1116 84 1088 137 1090 199 C 1090 255 1111 301 1155 335 C 1199 369 1249 398 1307 422 C 1273 440 1246 466 1226 499 C 1206 531 1196 566 1196 602 C 1196 680 1230 741 1298 783 C 1366 825 1437 846 1511 846 Z M 1438 86 C 1476 86 1520 95 1568 113 C 1616 131 1640 166 1640 217 C 1640 236 1634 255 1624 275 C 1613 294 1595 310 1571 324 C 1553 334 1531 343 1505 352 C 1478 361 1447 369 1411 377 C 1374 365 1335 347 1295 323 C 1255 298 1235 261 1235 211 C 1235 176 1252 146 1287 122 C 1321 98 1372 86 1438 86 Z M 1540 469 C 1570 481 1602 499 1636 523 C 1670 546 1687 579 1688 621 C 1688 650 1674 676 1646 699 C 1618 721 1576 733 1520 733 C 1486 733 1448 724 1407 708 C 1366 691 1346 659 1346 612 C 1346 593 1350 576 1359 560 C 1367 544 1381 530 1401 518 C 1417 509 1437 500 1460 492 C 1482 483 1509 475 1540 469 Z M 555 727 L 725 727 L 705 612 L 207 612 L 227 727 L 412 727 L 510 1292 L 317 1227 L 334 1321 C 398 1347 446 1370 479 1389 C 512 1407 550 1431 592 1460 L 684 1460 L 555 727 Z M 1602 1458 L 1743 1458 L 408 -27 L 266 -27 L 1602 1458 Z" />
<glyph horiz-adv-x="2011" unicode="⅜" d="M 608 1458 C 702 1458 773 1436 823 1393 C 873 1350 897 1298 897 1237 C 897 1187 878 1146 842 1116 C 805 1086 763 1063 717 1047 C 757 1032 791 1006 817 970 C 843 934 856 894 856 850 C 856 765 816 700 737 656 C 658 612 579 590 500 590 C 415 590 344 603 287 630 C 229 656 181 695 143 745 L 258 823 C 282 787 316 759 358 738 C 400 717 446 707 498 707 C 538 707 582 718 630 742 C 678 766 702 805 702 860 C 702 898 688 926 660 946 C 632 965 591 975 537 975 L 422 975 L 442 1096 L 551 1096 C 595 1096 638 1104 680 1122 C 722 1140 743 1175 743 1229 C 743 1261 731 1288 708 1310 C 684 1332 650 1343 604 1343 C 563 1343 522 1332 481 1311 C 439 1290 403 1264 373 1233 L 291 1325 C 348 1375 404 1410 458 1429 C 512 1448 562 1458 608 1458 Z M 1538 846 C 1646 846 1726 824 1778 782 C 1829 740 1855 691 1855 635 C 1855 581 1835 540 1797 510 C 1759 480 1717 454 1671 434 C 1715 413 1751 385 1777 349 C 1803 313 1817 275 1817 233 C 1817 146 1779 81 1705 37 C 1630 -7 1550 -29 1466 -29 C 1344 -29 1254 -6 1198 39 C 1141 84 1113 137 1114 199 C 1114 255 1136 301 1180 335 C 1224 369 1274 398 1331 422 C 1297 440 1271 466 1251 499 C 1231 531 1221 566 1221 602 C 1221 680 1255 741 1323 783 C 1391 825 1462 846 1538 846 Z M 1462 86 C 1502 86 1546 95 1594 113 C 1642 131 1667 166 1667 217 C 1667 236 1661 255 1650 275 C 1638 294 1621 310 1597 324 C 1580 334 1558 343 1530 352 C 1502 361 1472 369 1438 377 C 1401 365 1362 347 1321 323 C 1280 298 1260 261 1260 211 C 1260 176 1277 146 1312 122 C 1346 98 1396 86 1462 86 Z M 1565 469 C 1595 481 1627 499 1661 523 C 1694 546 1711 579 1712 621 C 1712 650 1698 676 1671 699 C 1644 721 1602 733 1544 733 C 1510 733 1473 724 1431 708 C 1389 691 1369 659 1370 612 C 1370 593 1374 576 1383 560 C 1391 544 1406 530 1427 518 C 1442 509 1461 500 1485 492 C 1508 483 1535 475 1565 469 Z M 1626 1458 L 1767 1458 L 432 -27 L 291 -27 L 1626 1458 Z" />
<glyph horiz-adv-x="2011" unicode="⅝" d="M 393 1444 L 938 1444 L 901 1323 L 485 1323 L 424 1112 C 448 1129 479 1144 516 1156 C 552 1168 588 1174 623 1174 C 699 1174 761 1149 810 1100 C 858 1051 883 991 883 920 C 883 828 846 750 773 686 C 699 622 615 590 520 590 C 437 590 369 603 315 630 C 261 656 214 695 174 745 L 287 821 C 310 787 342 759 383 738 C 423 717 466 707 510 707 C 566 707 617 724 664 760 C 710 796 733 845 733 909 C 733 953 718 989 689 1015 C 660 1041 624 1055 580 1055 C 543 1055 506 1048 468 1034 C 430 1020 396 997 365 965 L 276 1026 L 393 1444 Z M 1536 846 C 1646 846 1726 824 1777 782 C 1828 740 1853 691 1853 635 C 1853 581 1834 540 1796 510 C 1758 480 1717 454 1671 434 C 1715 413 1750 385 1776 349 C 1802 313 1815 275 1815 233 C 1815 146 1777 81 1703 37 C 1628 -7 1548 -29 1464 -29 C 1343 -29 1254 -6 1198 39 C 1141 84 1113 137 1114 199 C 1114 255 1136 301 1180 335 C 1224 369 1274 398 1331 422 C 1297 440 1271 466 1251 499 C 1231 531 1221 566 1221 602 C 1221 680 1254 741 1322 783 C 1390 825 1461 846 1536 846 Z M 1462 86 C 1500 86 1544 95 1592 113 C 1640 131 1665 166 1665 217 C 1665 236 1659 255 1648 275 C 1637 294 1619 310 1595 324 C 1578 334 1556 343 1529 352 C 1502 361 1471 369 1436 377 C 1399 365 1360 347 1320 323 C 1280 298 1260 261 1260 211 C 1260 176 1277 146 1311 122 C 1345 98 1396 86 1462 86 Z M 1565 469 C 1594 481 1626 499 1660 523 C 1694 546 1711 579 1712 621 C 1712 650 1698 676 1671 699 C 1643 721 1601 733 1544 733 C 1510 733 1473 724 1432 708 C 1390 691 1370 659 1370 612 C 1370 593 1374 576 1383 560 C 1391 544 1405 530 1425 518 C 1441 509 1461 500 1484 492 C 1507 483 1534 475 1565 469 Z M 1626 1458 L 1767 1458 L 432 -27 L 291 -27 L 1626 1458 Z" />
<glyph horiz-adv-x="2011" unicode="⅞" d="M 1513 846 C 1623 846 1704 824 1755 782 C 1806 740 1831 691 1831 635 C 1831 581 1812 540 1774 510 C 1736 480 1695 454 1649 434 C 1693 413 1728 385 1754 349 C 1779 313 1792 275 1792 233 C 1792 146 1754 81 1680 37 C 1606 -7 1526 -29 1442 -29 C 1320 -29 1231 -6 1175 39 C 1119 84 1091 137 1092 199 C 1092 255 1113 301 1157 335 C 1201 369 1251 398 1309 422 C 1275 440 1248 466 1228 499 C 1208 531 1198 566 1198 602 C 1198 680 1232 741 1300 783 C 1368 825 1439 846 1513 846 Z M 377 1444 L 1006 1444 L 991 1356 C 929 1286 871 1219 818 1153 C 764 1087 716 1019 674 948 C 643 898 615 844 590 788 C 564 731 542 670 524 604 L 362 604 C 380 658 402 711 428 764 C 453 816 480 866 510 913 C 560 994 613 1069 669 1139 C 724 1208 776 1269 825 1321 L 340 1321 L 377 1444 Z M 1440 86 C 1478 86 1522 95 1570 113 C 1618 131 1642 166 1642 217 C 1642 236 1636 255 1626 275 C 1615 294 1597 310 1573 324 C 1555 334 1533 343 1507 352 C 1480 361 1449 369 1415 377 C 1377 365 1337 347 1297 323 C 1257 298 1237 261 1237 211 C 1237 176 1254 146 1289 122 C 1323 98 1374 86 1440 86 Z M 1542 469 C 1572 481 1604 499 1638 523 C 1672 546 1689 579 1690 621 C 1690 650 1676 676 1648 699 C 1620 721 1578 733 1522 733 C 1488 733 1450 724 1409 708 C 1368 691 1348 659 1348 612 C 1348 593 1352 576 1361 560 C 1369 544 1383 530 1403 518 C 1419 509 1439 500 1462 492 C 1484 483 1511 475 1542 469 Z M 1559 1458 L 1700 1458 L 365 -27 L 223 -27 L 1559 1458 Z" />
<glyph horiz-adv-x="1167" unicode="−" d="M 1057 625 L 1057 477 L 113 477 L 113 625 L 1057 625 Z" />
<glyph horiz-adv-x="1087" unicode="∕" d="M 963 1434 L 1104 1434 L -31 -317 L -172 -317 L 963 1434 Z" />
<glyph horiz-adv-x="625" unicode="∙" d="M 297 694 C 337 694 370 680 397 653 C 424 625 438 593 438 555 C 438 516 424 483 397 455 C 370 427 337 414 297 414 C 258 414 225 427 199 455 C 173 483 160 516 160 555 C 160 593 173 625 199 653 C 225 680 258 694 297 694 Z" />
<glyph horiz-adv-x="1556" unicode="√" d="M 1374 1497 L 1513 1497 L 819 -57 L 725 -57 L 418 791 L 188 690 L 150 784 L 541 967 L 805 213 L 1374 1497 Z" />
<glyph horiz-adv-x="1661" unicode="∞" d="M 1180 977 C 1282 977 1364 938 1425 861 C 1485 784 1516 685 1516 565 C 1516 421 1481 313 1411 242 C 1341 170 1255 135 1153 135 C 1081 135 1014 157 954 203 C 893 248 845 310 811 389 C 768 303 718 240 660 198 C 602 156 536 135 461 135 C 358 135 276 173 216 250 C 155 327 125 425 125 545 C 125 687 160 794 230 867 C 300 940 386 977 489 977 C 560 977 626 954 687 908 C 747 862 795 800 829 723 C 871 806 922 869 980 912 C 1038 955 1104 977 1180 977 Z M 688 455 C 703 482 717 508 730 534 C 743 559 756 588 770 621 C 737 686 697 735 649 768 C 601 800 552 817 502 817 C 428 817 371 793 330 746 C 288 699 268 632 268 545 C 268 472 284 412 317 364 C 350 316 399 293 463 293 C 521 293 565 307 597 335 C 628 363 658 403 688 455 Z M 1141 293 C 1213 293 1269 316 1310 363 C 1351 410 1372 477 1372 565 C 1372 637 1355 697 1323 745 C 1290 793 1242 817 1178 817 C 1120 817 1075 803 1043 776 C 1011 748 980 708 950 655 C 934 628 919 601 906 573 C 893 545 881 517 870 489 C 902 425 943 376 991 343 C 1039 309 1089 293 1141 293 Z" />
<glyph horiz-adv-x="1167" unicode="≈" d="M 1065 952 C 1054 842 1025 758 978 701 C 931 644 865 616 780 616 C 742 616 705 624 671 641 C 637 658 604 678 573 702 C 565 709 557 716 549 722 C 541 728 533 733 526 739 C 517 745 508 752 499 759 C 489 766 479 773 469 779 C 458 785 447 789 435 793 C 423 797 411 799 399 799 C 375 799 355 794 339 784 C 323 774 309 761 299 744 C 288 727 280 707 275 685 C 269 663 266 639 266 614 L 115 614 C 123 721 151 803 199 860 C 247 917 313 946 399 946 C 423 946 445 943 466 937 C 486 931 506 924 524 915 C 542 905 560 895 577 883 C 593 871 609 860 625 848 C 635 840 647 831 659 821 C 671 811 684 802 698 794 C 711 786 725 779 739 774 C 753 768 768 766 782 766 C 804 766 824 771 840 782 C 856 792 870 806 881 824 C 891 841 899 861 904 883 C 909 905 912 928 913 952 L 1065 952 Z M 1065 522 C 1054 412 1025 328 978 271 C 931 214 865 186 780 186 C 742 186 705 194 671 211 C 637 228 604 248 573 272 C 565 279 557 286 549 292 C 541 298 533 303 526 309 C 517 315 508 322 499 329 C 489 336 479 343 469 349 C 458 355 447 359 435 363 C 423 367 411 369 399 369 C 375 369 355 364 339 354 C 323 344 309 331 299 314 C 288 297 280 277 275 255 C 269 233 266 209 266 184 L 115 184 C 123 291 151 373 199 430 C 247 487 313 516 399 516 C 423 516 445 513 465 508 C 485 502 505 495 523 486 C 541 477 559 467 575 456 C 591 445 607 434 623 422 C 633 414 645 405 658 395 C 670 385 683 375 697 367 C 711 358 725 351 739 345 C 753 339 768 336 782 336 C 804 336 824 341 840 352 C 856 362 870 376 881 394 C 891 411 899 431 904 453 C 909 475 912 498 913 522 L 1065 522 Z" />
<glyph horiz-adv-x="1167" unicode="≠" d="M 1061 305 L 559 305 L 436 0 L 295 0 L 418 305 L 117 305 L 117 455 L 477 455 L 557 653 L 117 653 L 117 803 L 616 803 L 739 1108 L 883 1108 L 760 803 L 1061 803 L 1061 653 L 698 653 L 618 455 L 1061 455 L 1061 305 Z" />
<glyph horiz-adv-x="1167" unicode="≤" d="M 1065 244 L 111 668 L 111 778 L 1065 1200 L 1065 1024 L 348 725 L 1065 420 L 1065 244 Z M 1065 0 L 111 0 L 111 147 L 1065 147 L 1065 0 Z" />
<glyph horiz-adv-x="1167" unicode="≥" d="M 1063 668 L 109 244 L 109 420 L 825 725 L 109 1024 L 109 1200 L 1063 778 L 1063 668 Z M 1063 0 L 109 0 L 109 147 L 1063 147 L 1063 0 Z" />
<glyph horiz-adv-x="1096" unicode="■" d="M 987 1153 L 987 274 L 109 274 L 109 1153 L 987 1153 Z" />
<glyph horiz-adv-x="1200" unicode="▲" d="M 600 1286 L 1159 156 L 41 156 L 600 1286 Z" />
<glyph horiz-adv-x="1239" unicode="▶" d="M 109 1276 L 1239 717 L 109 158 L 109 1276 Z" />
<glyph horiz-adv-x="1200" unicode="▼" d="M 41 1264 L 1159 1264 L 600 133 L 41 1264 Z" />
<glyph horiz-adv-x="1239" unicode="◀" d="M 1130 1276 L 1130 158 L 0 717 L 1130 1276 Z" />
<glyph horiz-adv-x="993" unicode="◊" d="M 545 1386 L 905 707 L 545 0 L 434 0 L 72 707 L 434 1386 L 545 1386 Z M 489 100 L 793 707 L 489 1286 L 182 707 L 489 100 Z" />
<glyph horiz-adv-x="1548" unicode="⬤" d="M 1516 741 C 1516 672 1507 606 1489 543 C 1471 480 1447 421 1415 367 C 1383 311 1344 261 1299 216 C 1254 171 1204 133 1150 101 C 1094 69 1035 44 972 26 C 908 8 842 0 774 0 C 705 0 639 8 576 26 C 512 44 453 69 399 101 C 343 133 293 171 249 216 C 204 261 166 311 134 367 C 102 421 77 480 59 543 C 41 606 33 672 33 741 C 33 809 41 875 59 939 C 77 1002 102 1061 134 1116 C 166 1170 204 1220 249 1265 C 293 1310 343 1349 399 1381 C 453 1413 512 1437 576 1455 C 639 1472 705 1481 774 1481 C 842 1481 908 1472 972 1455 C 1035 1437 1094 1413 1150 1381 C 1204 1349 1254 1310 1299 1265 C 1344 1220 1383 1170 1415 1116 C 1447 1061 1471 1002 1489 939 C 1507 875 1516 809 1516 741 Z" />
<glyph horiz-adv-x="1092" unicode="ﬁ" d="M 823 1042 L 1003 1042 L 819 0 L 639 0 L 823 1042 Z M 888 1442 L 1077 1442 L 1042 1235 L 852 1235 L 888 1442 Z M 575 1444 C 607 1444 638 1443 668 1441 C 698 1439 725 1436 750 1432 L 725 1296 C 713 1296 696 1298 673 1301 C 649 1303 628 1305 610 1305 C 570 1305 535 1296 507 1278 C 479 1260 461 1228 453 1182 L 428 1040 L 629 1040 L 604 909 L 406 909 L 246 0 L 66 0 L 225 909 L 68 909 L 92 1042 L 250 1042 L 276 1188 C 290 1266 324 1328 376 1374 C 428 1420 495 1443 575 1444 Z" />
<glyph horiz-adv-x="1096" unicode="ﬂ" d="M 575 1444 C 607 1444 638 1443 668 1441 C 698 1439 725 1436 750 1432 L 725 1296 C 713 1296 696 1298 673 1301 C 649 1303 628 1305 610 1305 C 570 1305 535 1296 507 1278 C 479 1260 461 1228 453 1182 L 428 1040 L 629 1040 L 604 909 L 406 909 L 246 0 L 66 0 L 225 909 L 68 909 L 92 1042 L 250 1042 L 276 1188 C 290 1266 324 1328 376 1374 C 428 1420 495 1443 575 1444 Z M 894 1434 L 1075 1434 L 823 0 L 643 0 L 894 1434 Z" />
</font>
</defs>
</svg>
