<?xml version="1.0" encoding="utf-8" ?><svg version="1.1" xmlns = 'http://www.w3.org/2000/svg'><defs><font id='web' horiz-adv-x="1000">
<font-face font-family="web" descent="-401" cap-height="1434" units-per-em="2048" bbox="-537,-381,2550,1907" x-height="1024" ascent="1647" />
<missing-glyph horiz-adv-x="598" d="" /><glyph horiz-adv-x="478" d="" unicode=" " />
<glyph horiz-adv-x="692" d="M 270 1434 L 676 1434 L 412 526 L 211 526 L 270 1434 Z M 106 379 L 471 379 L 403 0 L 39 0 L 106 379 Z" unicode="!" />
<glyph horiz-adv-x="1057" d="M 702 1434 L 1069 1434 L 858 764 L 680 764 L 702 1434 Z M 242 1434 L 608 1434 L 397 764 L 221 764 L 242 1434 Z" unicode="&#x22;" />
<glyph horiz-adv-x="1245" d="M 1159 1004 L 1159 813 L 922 813 L 891 584 L 1102 584 L 1102 393 L 864 393 L 811 0 L 623 0 L 676 393 L 485 393 L 430 0 L 244 0 L 297 393 L 86 393 L 86 584 L 324 584 L 354 813 L 143 813 L 143 1004 L 381 1004 L 436 1397 L 625 1397 L 569 1004 L 760 1004 L 817 1397 L 1004 1397 L 948 1004 L 1159 1004 Z M 705 584 L 737 813 L 541 813 L 510 584 L 705 584 Z" unicode="#" />
<glyph horiz-adv-x="1245" d="M 829 1335 C 912 1324 980 1304 1032 1275 C 1084 1245 1131 1213 1171 1178 L 977 981 C 971 989 962 999 951 1011 C 939 1023 925 1035 909 1047 C 892 1059 873 1071 851 1083 C 829 1094 805 1104 780 1112 L 725 807 C 796 791 856 770 906 744 C 956 718 996 690 1026 658 C 1056 626 1078 592 1092 556 C 1105 519 1112 482 1112 444 C 1112 374 1098 311 1072 256 C 1046 200 1010 153 964 115 C 918 77 863 47 799 26 C 735 4 666 -7 592 -10 L 557 -213 L 369 -213 L 403 -6 C 301 4 217 25 151 59 C 84 92 22 137 -35 193 L 182 387 C 192 373 204 357 219 340 C 233 322 251 306 273 290 C 295 274 321 259 351 246 C 381 232 415 223 455 217 L 510 530 C 391 558 299 598 235 652 C 171 705 139 779 139 874 C 139 940 151 1002 176 1059 C 201 1115 236 1164 280 1206 C 324 1247 378 1280 440 1304 C 502 1328 569 1342 643 1346 L 672 1509 L 860 1509 L 829 1335 Z M 563 842 L 614 1126 C 591 1123 568 1118 545 1112 C 521 1105 500 1095 482 1083 C 463 1071 448 1055 436 1035 C 424 1015 419 991 420 963 C 420 936 430 913 452 893 C 473 873 510 856 563 842 Z M 621 213 C 644 215 668 218 692 224 C 716 230 738 238 758 250 C 778 262 794 277 806 296 C 818 314 825 337 825 365 C 825 392 814 416 794 438 C 774 459 733 478 672 496 L 621 213 Z" unicode="$" />
<glyph horiz-adv-x="1868" d="M 575 1401 C 625 1401 670 1391 711 1373 C 752 1354 787 1329 816 1298 C 845 1266 867 1230 883 1189 C 899 1147 907 1104 907 1059 C 907 1007 895 956 872 908 C 849 859 818 816 780 779 C 742 742 697 712 646 690 C 595 668 542 657 487 657 C 437 657 391 666 350 685 C 309 703 274 728 245 759 C 216 789 194 825 178 866 C 162 906 154 949 154 993 C 154 1045 165 1096 188 1146 C 210 1196 241 1239 279 1277 C 317 1314 362 1344 413 1367 C 464 1389 518 1401 575 1401 Z M 1450 1376 L 1638 1376 L 414 0 L 223 0 L 1450 1376 Z M 502 856 C 528 856 554 861 578 872 C 602 882 623 897 641 915 C 659 933 673 954 684 979 C 694 1004 700 1031 700 1059 C 700 1101 687 1137 662 1165 C 636 1193 603 1208 563 1208 C 536 1208 510 1202 486 1192 C 462 1181 440 1166 422 1148 C 404 1130 389 1108 379 1084 C 369 1059 364 1032 365 1004 C 365 963 377 928 403 899 C 428 870 461 856 502 856 Z M 1386 725 C 1436 725 1481 715 1522 697 C 1563 678 1598 653 1627 622 C 1656 590 1678 554 1694 513 C 1710 471 1718 428 1718 383 C 1718 331 1706 280 1683 232 C 1660 183 1629 140 1591 104 C 1553 67 1508 37 1457 15 C 1406 -6 1353 -18 1298 -18 C 1248 -18 1202 -8 1161 9 C 1120 27 1085 52 1056 83 C 1027 114 1005 150 989 190 C 973 230 965 273 965 317 C 965 369 976 420 999 470 C 1021 520 1052 563 1090 601 C 1128 638 1173 668 1224 691 C 1275 713 1329 725 1386 725 Z M 1313 180 C 1339 180 1365 185 1389 196 C 1413 206 1434 221 1452 239 C 1470 257 1484 278 1495 303 C 1505 328 1511 355 1511 383 C 1511 425 1498 461 1473 489 C 1447 517 1414 532 1374 532 C 1347 532 1321 526 1297 516 C 1273 505 1252 490 1234 472 C 1216 454 1201 432 1191 408 C 1180 383 1175 356 1176 328 C 1176 287 1188 252 1214 223 C 1239 194 1272 180 1313 180 Z" unicode="%" />
<glyph horiz-adv-x="1489" d="M 1176 821 L 1407 721 C 1393 694 1375 665 1353 634 C 1331 602 1308 571 1282 540 C 1256 508 1230 478 1203 449 C 1176 419 1151 393 1128 371 C 1150 347 1178 328 1211 314 C 1243 300 1290 293 1352 293 L 1376 293 L 1321 -18 L 1278 -18 C 1242 -18 1207 -16 1172 -13 C 1136 -10 1101 -4 1066 6 C 1030 16 995 30 960 50 C 924 69 889 95 854 129 C 830 111 804 92 774 73 C 744 54 711 37 675 22 C 638 7 597 -4 551 -14 C 505 -23 455 -27 401 -27 C 341 -26 286 -18 234 -3 C 182 12 138 34 101 63 C 63 91 34 127 12 169 C -9 211 -20 259 -20 313 C -20 376 -9 432 12 480 C 34 528 63 571 100 608 C 136 645 179 678 228 707 C 277 735 329 762 383 786 C 353 839 332 888 320 932 C 307 976 301 1018 301 1057 C 301 1121 315 1178 344 1228 C 373 1278 410 1320 456 1354 C 501 1388 552 1415 609 1433 C 666 1451 722 1460 778 1460 C 851 1460 914 1450 967 1431 C 1020 1411 1063 1386 1097 1356 C 1130 1325 1154 1290 1170 1252 C 1186 1213 1194 1174 1194 1135 C 1194 1084 1182 1039 1159 999 C 1135 959 1106 925 1070 895 C 1034 865 994 839 950 817 C 906 795 863 777 823 762 C 845 730 869 696 895 662 C 921 628 947 593 975 557 C 995 575 1016 596 1036 620 C 1056 643 1074 666 1092 690 C 1110 714 1126 737 1140 760 C 1154 783 1166 803 1176 821 Z M 713 926 C 737 938 759 951 780 965 C 801 979 820 994 836 1011 C 852 1027 864 1046 873 1067 C 882 1087 887 1110 887 1135 C 887 1151 883 1166 877 1179 C 870 1192 861 1203 850 1212 C 839 1220 827 1227 814 1232 C 800 1236 787 1239 774 1239 C 734 1239 700 1226 674 1201 C 648 1175 635 1144 635 1108 C 635 1086 640 1062 651 1036 C 662 1009 683 972 713 926 Z M 479 236 C 521 236 562 243 601 259 C 639 274 674 293 705 317 L 506 604 C 462 577 425 545 395 508 C 365 471 350 429 350 381 C 350 341 361 306 384 278 C 407 250 439 236 479 236 Z" unicode="&#x26;" />
<glyph horiz-adv-x="666" d="M 276 1434 L 645 1434 L 430 764 L 256 764 L 276 1434 Z" unicode="'" />
<glyph horiz-adv-x="711" d="M 543 1434 L 772 1434 C 672 1282 590 1133 527 986 C 463 839 420 699 397 565 C 389 519 383 472 379 424 C 375 376 373 329 373 281 C 373 185 380 88 396 -10 C 411 -109 435 -207 467 -305 L 238 -305 C 178 -205 134 -99 104 12 C 74 124 59 237 59 352 C 59 390 60 429 64 469 C 68 508 73 547 80 586 C 106 736 158 881 235 1019 C 311 1157 414 1296 543 1434 Z" unicode="(" />
<glyph horiz-adv-x="711" d="M 424 1434 C 484 1332 528 1225 558 1114 C 587 1002 602 890 602 778 C 602 739 600 700 597 661 C 593 622 588 583 582 545 C 554 391 501 244 423 104 C 345 -35 244 -171 119 -305 L -111 -305 C -13 -157 67 -9 131 139 C 195 287 239 429 264 565 C 272 609 279 655 283 703 C 287 750 289 798 289 846 C 289 939 281 1035 265 1135 C 249 1234 226 1334 195 1434 L 424 1434 Z" unicode=")" />
<glyph horiz-adv-x="1161" d="M 991 1217 L 1022 983 L 719 997 L 901 758 L 684 649 L 608 946 L 434 694 L 266 870 L 522 1032 L 229 1122 L 344 1331 L 582 1143 L 573 1448 L 811 1407 L 705 1122 L 991 1217 Z" unicode="*" />
<glyph horiz-adv-x="1245" d="M 1118 688 L 1118 465 L 727 465 L 727 74 L 504 74 L 504 465 L 113 465 L 113 688 L 504 688 L 504 1079 L 727 1079 L 727 688 L 1118 688 Z" unicode="+" />
<glyph horiz-adv-x="623" d="M 70 387 L 440 387 L 377 27 L 76 -336 L -57 -336 L 135 0 L 2 0 L 70 387 Z" unicode="," />
<glyph horiz-adv-x="727" d="M 82 698 L 641 698 L 590 401 L 31 401 L 82 698 Z" unicode="-" />
<glyph horiz-adv-x="623" d="M 70 387 L 440 387 L 373 0 L 2 0 L 70 387 Z" unicode="." />
<glyph horiz-adv-x="1198" d="M 967 1434 L 1190 1434 L 55 -317 L -168 -317 L 967 1434 Z" unicode="/" />
<glyph horiz-adv-x="1245" d="M 711 1401 C 793 1401 865 1386 927 1357 C 989 1327 1039 1287 1079 1236 C 1119 1185 1148 1125 1168 1056 C 1188 986 1198 912 1198 834 C 1198 802 1196 769 1193 737 C 1190 704 1186 671 1180 637 C 1160 528 1130 432 1088 349 C 1046 265 996 196 939 141 C 882 85 818 43 748 15 C 677 -12 604 -27 528 -27 C 453 -27 385 -13 325 12 C 264 38 212 76 170 125 C 128 173 95 233 73 303 C 50 373 39 452 39 539 C 39 569 40 601 43 634 C 46 667 51 701 57 735 C 75 839 105 933 145 1016 C 185 1098 234 1168 291 1225 C 347 1282 411 1326 483 1356 C 555 1386 631 1401 711 1401 Z M 799 670 C 809 726 816 777 822 825 C 828 872 831 914 831 950 C 831 1009 821 1054 801 1086 C 781 1117 747 1133 698 1133 C 658 1133 624 1123 596 1104 C 568 1085 545 1057 526 1021 C 507 984 491 938 477 883 C 463 827 450 764 438 692 C 428 637 420 587 415 542 C 410 497 408 458 408 424 C 408 360 418 314 439 285 C 459 256 493 242 539 242 C 576 242 608 249 634 264 C 660 278 683 302 703 336 C 722 369 739 413 754 468 C 769 523 784 590 799 670 Z" unicode="0" />
<glyph horiz-adv-x="1245" d="M 782 285 L 1004 285 L 952 0 L 143 0 L 195 285 L 416 285 L 539 983 L 309 938 L 350 1174 C 434 1209 510 1242 577 1272 C 643 1302 714 1338 788 1380 L 975 1380 L 782 285 Z" unicode="1" />
<glyph horiz-adv-x="1245" d="M 717 1401 C 785 1401 849 1392 911 1375 C 972 1357 1025 1331 1069 1295 C 1113 1259 1147 1212 1170 1156 C 1192 1100 1200 1033 1192 956 C 1184 884 1158 818 1116 757 C 1074 695 1023 638 964 586 C 904 533 840 484 771 439 C 702 394 638 353 578 315 L 1071 315 L 1016 0 L -43 0 L -6 215 C 44 255 96 295 150 333 C 204 371 257 408 309 444 C 351 474 393 503 433 532 C 473 561 512 591 549 621 C 628 681 687 738 727 792 C 767 846 789 897 795 946 C 797 967 796 988 792 1008 C 788 1028 782 1045 772 1060 C 762 1075 748 1087 731 1096 C 713 1105 692 1110 668 1110 C 625 1110 583 1093 541 1060 C 499 1027 464 971 436 893 L 123 993 C 154 1067 191 1130 235 1182 C 278 1234 325 1276 376 1308 C 426 1340 481 1364 539 1379 C 597 1393 656 1401 717 1401 Z" unicode="2" />
<glyph horiz-adv-x="1245" d="M 707 1401 C 757 1401 809 1395 864 1385 C 918 1374 968 1356 1014 1331 C 1059 1306 1096 1273 1126 1231 C 1156 1189 1171 1138 1171 1077 C 1171 1030 1161 988 1142 950 C 1122 912 1097 880 1067 852 C 1036 824 1001 800 961 781 C 921 761 880 746 840 735 C 877 725 912 711 945 694 C 977 677 1006 656 1030 631 C 1054 606 1074 577 1088 544 C 1102 510 1110 473 1110 432 C 1110 354 1091 287 1053 229 C 1015 171 967 123 909 85 C 851 47 786 19 714 1 C 642 -17 573 -27 506 -27 C 373 -27 261 0 169 56 C 77 111 7 203 -43 332 L 268 451 C 289 389 320 340 360 305 C 400 269 454 252 522 252 C 547 252 571 256 595 264 C 619 272 640 283 658 298 C 676 312 691 330 702 352 C 713 373 719 397 719 424 C 719 462 709 492 689 512 C 669 532 645 546 617 554 C 588 562 557 566 524 566 C 491 566 461 567 434 567 L 481 840 L 551 840 C 576 840 602 843 630 849 C 658 855 683 865 706 879 C 728 893 747 910 762 932 C 776 954 784 980 784 1012 C 784 1032 780 1050 772 1064 C 764 1078 754 1090 741 1099 C 728 1108 713 1114 696 1118 C 679 1122 661 1124 643 1124 C 616 1124 591 1119 568 1111 C 545 1102 524 1090 505 1075 C 486 1060 469 1042 453 1022 C 437 1002 424 980 412 958 L 129 1069 C 192 1179 272 1261 370 1317 C 468 1373 580 1401 707 1401 Z" unicode="3" />
<glyph horiz-adv-x="1245" d="M 952 569 L 1159 569 L 1112 297 L 905 297 L 852 0 L 479 0 L 532 297 L -37 297 L 10 567 L 756 1380 L 1096 1380 L 952 569 Z M 592 569 L 664 981 L 287 569 L 592 569 Z" unicode="4" />
<glyph horiz-adv-x="1245" d="M 319 1376 L 1206 1376 L 1120 1061 L 518 1061 L 457 829 C 497 844 536 858 576 870 C 615 882 655 889 696 889 C 752 889 806 881 858 866 C 910 851 957 828 997 798 C 1037 767 1069 728 1093 682 C 1117 635 1130 580 1130 518 C 1130 433 1112 357 1077 289 C 1041 221 995 164 938 118 C 880 71 814 35 740 10 C 665 -14 588 -27 510 -27 C 450 -27 391 -19 335 -5 C 278 8 226 30 178 59 C 130 87 88 124 51 168 C 14 212 -14 263 -35 322 L 274 442 C 296 387 327 342 365 306 C 403 270 454 252 518 252 C 548 252 577 256 604 266 C 630 276 653 290 673 308 C 693 326 708 347 720 373 C 731 399 737 427 737 459 C 737 511 720 550 686 575 C 652 599 611 612 561 612 C 518 612 481 607 450 597 C 419 587 384 575 346 561 L 137 715 L 319 1376 Z" unicode="5" />
<glyph horiz-adv-x="1245" d="M 788 1401 C 892 1401 984 1377 1063 1329 C 1141 1281 1200 1202 1239 1092 L 928 967 C 908 1029 880 1071 843 1093 C 806 1115 769 1126 731 1126 C 699 1126 669 1119 641 1106 C 612 1092 586 1072 563 1045 C 539 1018 519 984 502 943 C 484 901 471 853 463 799 C 499 815 545 831 601 848 C 657 865 718 874 786 874 C 833 874 879 865 923 849 C 967 832 1007 808 1041 778 C 1075 747 1102 709 1122 664 C 1142 619 1153 568 1153 512 C 1153 436 1136 365 1103 299 C 1070 233 1026 176 972 128 C 917 80 853 42 780 14 C 707 -13 631 -27 553 -27 C 475 -27 405 -12 343 15 C 280 43 227 83 183 133 C 139 183 106 242 82 312 C 58 382 47 457 47 539 C 47 564 48 590 50 617 C 52 643 56 670 61 698 C 77 792 106 881 147 967 C 187 1053 239 1127 301 1191 C 363 1255 435 1306 517 1344 C 599 1382 690 1401 788 1401 Z M 559 236 C 587 236 614 242 640 255 C 665 267 687 284 706 305 C 725 326 740 350 752 378 C 763 405 769 433 770 463 C 770 509 756 545 730 571 C 703 597 669 610 629 610 C 590 610 553 605 517 596 C 481 586 451 575 428 563 C 424 539 421 517 419 497 C 417 476 416 456 416 438 C 416 370 428 320 453 286 C 477 252 513 236 559 236 Z" unicode="6" />
<glyph horiz-adv-x="1245" d="M 246 1376 L 1270 1376 L 1235 1171 C 1134 1043 1047 924 975 814 C 902 704 841 601 791 507 C 741 412 702 323 672 239 C 642 155 620 76 606 0 L 166 0 C 194 86 235 178 289 276 C 343 374 402 471 466 566 C 529 660 593 750 658 835 C 722 919 779 991 827 1051 L 160 1051 L 246 1376 Z" unicode="7" />
<glyph horiz-adv-x="1245" d="M 696 1401 C 777 1401 849 1392 911 1376 C 973 1359 1024 1336 1066 1307 C 1107 1278 1138 1244 1160 1204 C 1181 1164 1192 1120 1192 1073 C 1192 1032 1184 994 1168 960 C 1152 926 1132 895 1106 867 C 1080 839 1050 813 1016 791 C 982 769 947 749 911 733 C 935 720 961 703 988 683 C 1014 662 1039 638 1061 611 C 1083 583 1101 552 1115 517 C 1129 482 1137 444 1137 403 C 1137 329 1118 266 1082 212 C 1045 158 998 113 940 78 C 882 42 817 16 745 -1 C 672 -18 600 -27 530 -27 C 453 -27 382 -19 317 -5 C 251 8 195 29 147 57 C 99 85 62 119 35 160 C 8 201 -5 248 -6 301 C -6 345 2 386 20 425 C 37 464 60 499 89 531 C 118 563 152 591 190 616 C 228 640 267 661 309 678 C 260 711 220 754 189 806 C 158 858 143 913 143 973 C 143 1040 159 1100 191 1154 C 223 1208 266 1253 318 1289 C 370 1325 429 1352 495 1372 C 561 1391 628 1401 696 1401 Z M 719 844 C 735 850 751 859 768 871 C 785 883 800 896 814 912 C 827 928 838 945 847 964 C 855 983 860 1004 860 1026 C 860 1060 845 1088 816 1111 C 787 1133 747 1145 696 1145 C 677 1145 656 1142 634 1138 C 612 1133 591 1125 572 1114 C 552 1103 536 1089 523 1071 C 510 1053 504 1032 504 1006 C 504 980 511 959 525 941 C 539 923 556 909 577 897 C 598 885 621 875 647 867 C 672 859 696 851 719 844 Z M 530 227 C 551 227 574 229 600 233 C 626 237 650 244 672 255 C 694 266 712 281 727 301 C 742 320 750 345 750 375 C 750 405 742 430 727 450 C 711 470 692 487 668 501 C 644 515 617 527 587 537 C 557 547 527 558 498 569 C 480 560 463 549 445 535 C 427 521 410 506 396 488 C 381 470 369 451 360 429 C 350 407 346 385 346 362 C 346 342 350 324 360 308 C 370 291 383 277 400 265 C 416 253 436 243 458 237 C 480 230 504 227 530 227 Z" unicode="8" />
<glyph horiz-adv-x="1245" d="M 692 1401 C 769 1401 839 1386 902 1358 C 965 1330 1018 1291 1062 1241 C 1105 1191 1138 1131 1162 1062 C 1186 992 1198 917 1198 836 C 1198 810 1196 783 1194 757 C 1192 730 1188 703 1184 676 C 1167 582 1138 492 1098 406 C 1058 320 1007 246 946 182 C 885 118 814 68 732 30 C 650 -8 561 -27 463 -27 C 410 -27 360 -21 313 -9 C 266 2 223 20 184 45 C 145 69 110 101 80 141 C 50 180 25 227 6 283 L 317 408 C 327 376 339 350 354 330 C 369 309 386 293 404 281 C 422 269 442 260 462 255 C 482 250 501 248 520 248 C 582 248 637 275 685 329 C 733 383 765 465 782 575 C 746 559 700 542 644 525 C 588 508 526 500 459 500 C 411 500 365 508 321 525 C 277 541 238 565 204 596 C 170 626 142 664 122 709 C 102 754 92 805 92 862 C 92 938 108 1009 141 1075 C 174 1141 218 1198 273 1246 C 327 1294 391 1331 464 1359 C 537 1387 613 1401 692 1401 Z M 817 811 C 821 834 824 856 826 877 C 828 897 829 917 829 936 C 829 1003 816 1054 792 1088 C 767 1122 732 1139 686 1139 C 657 1139 630 1132 605 1119 C 579 1106 557 1089 538 1068 C 519 1047 504 1023 493 996 C 481 968 475 940 475 911 C 475 864 488 828 515 802 C 542 776 576 764 616 764 C 654 764 692 768 728 778 C 764 787 793 798 817 811 Z" unicode="9" />
<glyph horiz-adv-x="770" d="M 258 1044 L 631 1044 L 563 657 L 190 657 L 258 1044 Z M 141 387 L 514 387 L 446 0 L 74 0 L 141 387 Z" unicode=":" />
<glyph horiz-adv-x="770" d="M 258 1044 L 631 1044 L 563 657 L 190 657 L 258 1044 Z M 141 387 L 514 387 L 451 27 L 147 -336 L 14 -336 L 207 0 L 74 0 L 141 387 Z" unicode=";" />
<glyph horiz-adv-x="1245" d="M 1077 262 L 1077 -4 L 127 504 L 127 668 L 1077 1178 L 1077 911 L 436 586 L 1077 262 Z" unicode="&#x3C;" />
<glyph horiz-adv-x="1245" d="M 1083 913 L 1083 690 L 154 690 L 154 913 L 1083 913 Z M 1083 485 L 1083 262 L 154 262 L 154 485 L 1083 485 Z" unicode="=" />
<glyph horiz-adv-x="1245" d="M 1118 668 L 1118 504 L 168 -4 L 168 262 L 809 586 L 168 911 L 168 1178 L 1118 668 Z" unicode="&#x3E;" />
<glyph horiz-adv-x="1155" d="M 688 1460 C 757 1460 820 1452 878 1436 C 936 1420 985 1397 1026 1369 C 1066 1341 1098 1307 1120 1267 C 1142 1227 1153 1185 1153 1139 C 1152 1097 1143 1059 1126 1023 C 1109 987 1087 954 1059 924 C 1031 893 1000 864 965 838 C 929 811 894 786 858 762 C 826 740 799 721 778 704 C 757 687 740 670 726 653 C 712 636 702 618 694 598 C 686 578 678 555 672 528 L 383 528 C 399 616 425 690 460 751 C 495 812 550 872 625 932 C 639 942 654 954 672 967 C 690 980 706 994 722 1010 C 738 1026 751 1043 762 1061 C 773 1079 779 1099 780 1120 C 780 1152 770 1176 749 1193 C 728 1210 699 1219 662 1219 C 623 1219 583 1203 541 1172 C 499 1140 462 1093 430 1030 L 147 1118 C 171 1178 202 1229 242 1273 C 281 1317 324 1352 372 1380 C 420 1407 471 1427 525 1440 C 579 1453 634 1460 688 1460 Z M 330 375 L 698 375 L 633 0 L 264 0 L 330 375 Z" unicode="?" />
<glyph horiz-adv-x="1972" d="M 1100 1397 C 1196 1397 1290 1381 1380 1351 C 1470 1321 1550 1278 1618 1222 C 1686 1166 1741 1097 1783 1015 C 1824 933 1845 842 1845 741 C 1845 684 1839 627 1829 570 C 1818 512 1802 458 1781 406 C 1760 354 1734 305 1702 259 C 1670 213 1633 174 1591 141 C 1569 124 1546 109 1522 97 C 1497 84 1472 73 1446 65 C 1420 57 1395 51 1370 47 C 1344 43 1320 41 1298 41 C 1244 41 1201 54 1170 81 C 1139 107 1120 153 1112 217 C 1074 166 1029 126 977 97 C 925 67 874 53 825 53 C 785 53 748 61 715 78 C 681 94 653 118 629 148 C 605 178 587 213 574 255 C 561 297 555 343 555 393 C 555 475 567 553 593 628 C 619 702 653 767 696 823 C 739 879 789 923 847 956 C 904 989 964 1006 1026 1006 C 1084 1006 1132 993 1171 968 C 1210 943 1240 902 1262 844 L 1292 973 L 1487 973 L 1339 395 C 1333 371 1328 347 1324 321 C 1320 295 1319 274 1319 258 C 1319 238 1326 224 1340 215 C 1354 205 1371 201 1393 201 C 1442 201 1486 217 1524 251 C 1562 285 1593 327 1619 378 C 1645 429 1664 485 1678 547 C 1691 608 1698 666 1698 721 C 1698 806 1681 882 1648 949 C 1615 1015 1571 1071 1516 1116 C 1460 1161 1396 1195 1323 1219 C 1249 1243 1173 1255 1094 1255 C 972 1255 862 1232 763 1187 C 663 1142 579 1082 510 1008 C 441 933 388 846 350 748 C 312 650 293 548 293 442 C 293 341 309 251 341 171 C 373 91 417 23 475 -30 C 533 -84 602 -126 684 -155 C 766 -184 856 -199 954 -199 C 1034 -199 1115 -189 1197 -170 C 1279 -151 1363 -122 1450 -84 L 1495 -219 C 1453 -238 1408 -255 1360 -270 C 1312 -285 1264 -298 1216 -308 C 1167 -318 1118 -326 1068 -332 C 1018 -337 969 -340 922 -340 C 803 -340 695 -319 597 -279 C 499 -238 415 -183 346 -114 C 276 -44 222 37 184 131 C 146 225 127 324 127 430 C 127 565 152 692 204 810 C 256 928 326 1031 414 1117 C 502 1203 605 1272 724 1322 C 842 1372 968 1397 1100 1397 Z M 1081 362 C 1113 421 1135 478 1149 534 C 1162 590 1169 641 1169 688 C 1169 724 1157 755 1135 781 C 1113 807 1084 821 1049 821 C 1024 821 998 814 972 801 C 945 788 922 769 903 743 C 864 693 836 639 820 582 C 803 525 795 470 795 416 C 795 364 805 323 827 293 C 849 263 879 248 918 248 C 949 248 979 258 1008 278 C 1037 298 1061 326 1081 362 Z" unicode="@" />
<glyph horiz-adv-x="1339" d="M 1012 1434 L 1202 0 L 834 0 L 805 297 L 360 297 L 229 0 L -113 0 L 575 1434 L 1012 1434 Z M 487 582 L 778 582 L 727 1116 L 487 582 Z" unicode="A" />
<glyph horiz-adv-x="1376" d="M 745 1434 C 816 1434 887 1428 959 1418 C 1031 1408 1095 1390 1151 1365 C 1207 1340 1253 1306 1289 1264 C 1325 1222 1343 1169 1343 1106 C 1343 1095 1342 1085 1341 1075 C 1340 1065 1339 1055 1337 1044 C 1322 955 1285 884 1227 832 C 1169 779 1094 744 1004 727 C 1030 722 1059 713 1089 700 C 1119 687 1147 669 1173 645 C 1199 621 1220 592 1237 557 C 1253 521 1262 479 1262 430 C 1262 418 1261 405 1259 392 C 1257 378 1255 364 1253 350 C 1241 282 1218 226 1185 181 C 1152 136 1114 100 1070 74 C 1026 47 980 28 931 17 C 881 5 835 0 791 0 L 8 0 L 260 1434 L 745 1434 Z M 954 1001 C 954 1005 955 1010 955 1015 C 955 1019 956 1024 956 1028 C 956 1050 951 1070 943 1087 C 934 1103 922 1117 908 1129 C 893 1140 876 1148 856 1154 C 836 1160 816 1163 795 1163 L 580 1163 L 526 858 L 739 858 C 792 858 839 867 879 887 C 919 906 944 944 954 1001 Z M 874 416 C 875 420 876 425 877 431 C 878 436 879 441 879 446 C 879 469 875 489 866 507 C 857 525 845 539 830 551 C 815 562 798 570 778 576 C 758 581 737 584 715 584 L 477 584 L 422 264 L 653 264 C 707 264 754 274 796 295 C 837 315 863 356 874 416 Z" unicode="B" />
<glyph horiz-adv-x="1284" d="M 772 1460 C 852 1460 924 1450 988 1430 C 1052 1410 1106 1380 1150 1340 C 1194 1300 1227 1249 1251 1188 C 1274 1126 1286 1055 1286 973 L 1286 938 L 938 926 C 938 936 939 945 939 955 C 939 965 940 975 940 985 C 940 1044 928 1090 905 1124 C 881 1157 838 1174 774 1174 C 718 1174 671 1159 634 1129 C 596 1099 566 1063 542 1019 C 518 975 500 928 487 876 C 474 824 464 777 457 733 C 450 697 444 661 439 624 C 434 587 432 550 432 514 C 432 480 435 447 441 417 C 447 386 458 359 474 337 C 489 315 510 297 536 284 C 562 270 594 264 633 264 C 671 264 707 271 739 286 C 771 301 799 321 825 345 C 850 369 872 396 892 428 C 911 459 928 491 942 524 L 1221 442 C 1193 376 1160 315 1120 258 C 1080 200 1034 151 984 109 C 933 67 876 33 813 9 C 749 -14 680 -27 606 -27 C 513 -27 432 -11 362 20 C 292 52 235 95 189 151 C 143 206 109 271 87 347 C 64 422 53 503 53 590 C 53 692 69 795 101 899 C 133 1003 180 1096 241 1179 C 302 1261 377 1329 467 1381 C 556 1433 658 1460 772 1460 Z" unicode="C" />
<glyph horiz-adv-x="1384" d="M 637 1434 C 761 1434 868 1420 958 1393 C 1047 1366 1120 1328 1177 1278 C 1234 1228 1276 1167 1303 1095 C 1329 1023 1343 942 1343 854 C 1343 822 1341 789 1337 755 C 1333 720 1329 685 1323 649 C 1306 557 1278 472 1240 392 C 1202 312 1152 244 1092 186 C 1031 128 958 83 874 50 C 790 16 694 0 588 0 L 8 0 L 260 1434 L 637 1434 Z M 936 682 C 940 708 944 734 946 758 C 948 782 950 806 950 829 C 950 931 925 1009 875 1064 C 825 1119 749 1147 645 1147 L 584 1147 L 432 287 L 520 287 C 587 287 645 295 693 313 C 741 331 781 356 813 390 C 845 424 870 465 890 515 C 909 564 924 620 936 682 Z" unicode="D" />
<glyph horiz-adv-x="1186" d="M 260 1434 L 1231 1434 L 1180 1137 L 575 1137 L 526 864 L 903 864 L 852 565 L 475 565 L 428 297 L 1061 297 L 1008 0 L 8 0 L 260 1434 Z" unicode="E" />
<glyph horiz-adv-x="1143" d="M 260 1434 L 1233 1434 L 1182 1137 L 580 1137 L 530 864 L 905 864 L 854 565 L 479 565 L 379 0 L 8 0 L 260 1434 Z" unicode="F" />
<glyph horiz-adv-x="1364" d="M 788 1460 C 866 1460 937 1449 1001 1427 C 1065 1405 1120 1373 1165 1331 C 1210 1289 1245 1238 1269 1176 C 1293 1114 1305 1043 1305 965 L 1305 948 L 948 909 C 948 919 949 929 950 939 C 951 948 952 958 952 969 C 952 1027 937 1076 909 1115 C 881 1154 835 1174 772 1174 C 716 1174 669 1159 632 1130 C 594 1101 564 1065 541 1022 C 517 979 499 932 487 881 C 474 830 464 783 457 739 C 449 701 443 662 438 623 C 432 583 430 544 430 506 C 430 473 433 442 439 412 C 445 382 455 357 469 335 C 483 313 503 295 528 282 C 553 268 585 262 623 262 C 694 262 750 282 792 322 C 834 362 863 415 881 481 L 651 481 L 694 721 L 1260 721 L 1135 10 L 1006 10 L 942 166 C 891 106 834 60 770 27 C 706 -6 634 -23 555 -23 C 467 -23 392 -5 328 29 C 264 64 211 110 171 167 C 130 224 100 290 80 364 C 60 438 51 515 51 594 C 51 700 67 806 101 910 C 134 1014 182 1106 245 1187 C 307 1268 384 1334 476 1384 C 568 1434 672 1460 788 1460 Z" unicode="G" />
<glyph horiz-adv-x="1397" d="M 1016 1434 L 1391 1434 L 1139 0 L 764 0 L 864 567 L 483 567 L 383 0 L 8 0 L 260 1434 L 635 1434 L 537 866 L 918 866 L 1016 1434 Z" unicode="H" />
<glyph horiz-adv-x="649" d="M 264 1434 L 639 1434 L 387 0 L 12 0 L 264 1434 Z" unicode="I" />
<glyph horiz-adv-x="850" d="M 473 1434 L 848 1434 L 659 360 C 635 228 589 131 520 68 C 450 4 358 -27 242 -27 C 165 -27 99 -22 45 -13 C -9 -4 -56 6 -94 18 L -4 338 C 20 328 46 322 73 318 C 99 314 124 313 147 313 C 198 313 235 326 257 354 C 279 381 295 417 303 461 L 473 1434 Z" unicode="J" />
<glyph horiz-adv-x="1382" d="M 1010 1434 L 1409 1434 L 983 967 L 1253 0 L 868 0 L 692 670 L 455 410 L 383 0 L 8 0 L 260 1434 L 635 1434 L 535 860 L 1010 1434 Z" unicode="K" />
<glyph horiz-adv-x="1116" d="M 436 297 L 1012 297 L 958 0 L 8 0 L 260 1434 L 635 1434 L 436 297 Z" unicode="L" />
<glyph horiz-adv-x="1821" d="M 1278 1434 L 1812 1434 L 1561 0 L 1200 0 L 1397 1118 L 866 0 L 647 0 L 520 1120 L 324 0 L 8 0 L 260 1434 L 807 1434 L 891 592 L 1278 1434 Z" unicode="M" />
<glyph horiz-adv-x="1395" d="M 1069 1434 L 1386 1434 L 1135 0 L 844 0 L 485 885 L 330 0 L 8 0 L 260 1434 L 610 1434 L 928 639 L 1069 1434 Z" unicode="N" />
<glyph horiz-adv-x="1382" d="M 799 1460 C 894 1460 976 1444 1044 1412 C 1112 1380 1167 1338 1210 1284 C 1253 1230 1285 1166 1305 1094 C 1325 1022 1335 945 1335 864 C 1335 830 1333 796 1330 762 C 1327 728 1323 693 1317 659 C 1299 561 1270 470 1230 386 C 1189 302 1138 229 1077 168 C 1015 107 944 59 862 25 C 780 -9 690 -27 592 -27 C 499 -27 418 -12 350 17 C 282 47 225 88 181 140 C 137 192 104 254 83 326 C 61 398 51 477 51 561 C 51 593 52 627 55 663 C 58 698 63 734 70 770 C 86 862 113 951 153 1035 C 192 1119 242 1192 303 1255 C 364 1317 436 1367 520 1404 C 603 1441 696 1460 799 1460 Z M 926 692 C 932 724 937 761 943 804 C 949 847 952 890 952 932 C 952 963 949 993 944 1023 C 939 1052 930 1078 917 1100 C 904 1122 886 1140 863 1154 C 840 1167 811 1174 776 1174 C 720 1174 674 1159 636 1131 C 598 1102 568 1066 544 1023 C 520 980 501 933 487 881 C 473 829 463 779 455 733 C 449 701 444 665 438 625 C 432 584 430 544 430 504 C 430 472 432 441 438 411 C 443 381 452 354 466 331 C 480 308 498 290 522 276 C 546 262 576 256 612 256 C 667 256 713 270 750 298 C 786 326 816 361 840 404 C 863 446 881 493 894 545 C 907 597 918 646 926 692 Z" unicode="O" />
<glyph horiz-adv-x="1331" d="M 803 1434 C 885 1434 961 1425 1029 1409 C 1097 1392 1154 1367 1202 1335 C 1249 1302 1286 1261 1312 1211 C 1338 1161 1352 1102 1352 1036 C 1352 1021 1351 1005 1350 989 C 1348 972 1346 955 1343 938 C 1329 856 1301 789 1260 736 C 1218 683 1170 641 1115 611 C 1060 580 1000 558 936 546 C 872 534 810 528 750 528 L 471 528 L 379 0 L 8 0 L 260 1434 L 803 1434 Z M 958 971 C 959 977 960 982 960 988 C 960 993 961 998 961 1004 C 961 1028 956 1050 946 1069 C 936 1088 922 1104 906 1116 C 890 1128 871 1137 850 1143 C 829 1149 808 1153 786 1153 L 582 1153 L 522 811 L 745 811 C 799 811 845 823 884 849 C 923 874 948 915 958 971 Z" unicode="P" />
<glyph horiz-adv-x="1382" d="M 799 1460 C 894 1460 976 1444 1044 1412 C 1112 1380 1167 1338 1210 1284 C 1253 1230 1285 1166 1305 1094 C 1325 1022 1335 945 1335 864 C 1335 830 1333 796 1330 762 C 1327 728 1323 693 1317 659 C 1307 602 1292 547 1273 495 C 1254 442 1231 393 1204 347 C 1177 301 1146 258 1111 219 C 1075 179 1037 145 995 115 C 1019 84 1047 62 1078 49 C 1108 35 1142 29 1178 29 L 1204 29 L 1153 -268 L 1135 -268 C 1071 -268 1015 -260 967 -246 C 918 -232 876 -212 840 -188 C 804 -164 775 -135 751 -103 C 727 -71 708 -37 694 -2 C 678 -4 661 -5 644 -7 C 626 -9 609 -10 592 -10 C 499 -10 418 4 350 32 C 282 60 225 99 181 149 C 137 199 104 259 83 329 C 61 399 51 477 51 561 C 51 593 52 627 55 663 C 58 698 63 734 70 770 C 86 862 113 951 153 1035 C 192 1119 242 1192 303 1255 C 364 1317 436 1367 520 1404 C 603 1441 696 1460 799 1460 Z M 926 692 C 932 724 937 761 943 804 C 949 847 952 890 952 932 C 952 963 949 993 944 1023 C 939 1052 930 1078 917 1100 C 904 1122 886 1140 863 1154 C 840 1167 811 1174 776 1174 C 720 1174 674 1159 636 1131 C 598 1102 568 1066 544 1023 C 520 980 501 933 487 881 C 473 829 463 779 455 733 C 449 701 444 665 438 625 C 432 584 430 544 430 504 C 430 472 432 441 438 411 C 443 381 452 354 466 331 C 480 308 498 290 522 276 C 546 262 576 256 612 256 C 667 256 713 270 750 298 C 786 326 816 361 840 404 C 863 446 881 493 894 545 C 907 597 918 646 926 692 Z" unicode="Q" />
<glyph horiz-adv-x="1364" d="M 795 1434 C 869 1434 941 1427 1010 1413 C 1078 1399 1138 1378 1190 1348 C 1242 1318 1283 1279 1314 1231 C 1344 1183 1360 1126 1360 1059 C 1360 1045 1359 1032 1358 1018 C 1356 1004 1354 990 1352 975 C 1346 943 1335 910 1320 878 C 1305 845 1285 814 1259 786 C 1233 757 1200 731 1161 707 C 1121 683 1075 663 1022 649 L 1176 0 L 791 0 L 680 573 L 479 573 L 379 0 L 8 0 L 260 1434 L 795 1434 Z M 965 991 C 965 997 966 1004 967 1010 C 968 1016 969 1022 969 1028 C 969 1052 964 1074 954 1092 C 944 1110 930 1124 914 1136 C 898 1147 879 1155 858 1161 C 837 1166 816 1169 795 1169 L 586 1169 L 528 844 L 758 844 C 810 844 855 854 893 875 C 930 896 954 935 965 991 Z" unicode="R" />
<glyph horiz-adv-x="1225" d="M 709 1460 C 779 1460 841 1453 895 1441 C 949 1429 995 1412 1035 1390 C 1075 1368 1109 1341 1137 1310 C 1165 1279 1189 1246 1210 1210 L 936 1028 C 927 1045 916 1063 904 1081 C 892 1099 876 1115 857 1129 C 838 1143 814 1155 786 1164 C 757 1173 722 1178 682 1178 C 663 1178 642 1176 619 1172 C 596 1168 575 1160 555 1150 C 535 1140 518 1126 505 1109 C 491 1091 485 1070 485 1044 C 485 1016 493 992 508 974 C 522 955 542 939 567 926 C 592 913 621 902 654 892 C 687 882 722 872 758 862 C 804 848 850 831 896 811 C 942 790 982 764 1018 734 C 1054 703 1083 666 1105 622 C 1127 578 1139 527 1139 469 C 1139 394 1123 326 1092 265 C 1060 203 1018 151 966 108 C 913 65 852 32 783 8 C 713 -15 641 -27 567 -27 C 403 -27 272 -2 176 45 C 80 93 5 169 -49 272 L 242 446 C 269 382 308 334 358 304 C 408 273 471 258 547 258 C 577 258 605 260 633 264 C 661 268 685 275 706 285 C 727 295 744 309 757 327 C 769 345 776 367 776 395 C 776 439 754 473 710 495 C 666 517 605 539 526 561 C 478 574 430 591 382 611 C 334 631 292 657 255 688 C 218 718 188 755 165 799 C 142 842 131 893 131 952 C 131 1029 145 1099 174 1162 C 202 1224 242 1278 293 1322 C 344 1366 405 1400 476 1424 C 547 1448 625 1460 709 1460 Z" unicode="S" />
<glyph horiz-adv-x="1161" d="M 160 1434 L 1262 1434 L 1210 1137 L 846 1137 L 645 0 L 272 0 L 473 1137 L 109 1137 L 160 1434 Z" unicode="T" />
<glyph horiz-adv-x="1380" d="M 1057 1434 L 1382 1434 L 1227 557 C 1212 474 1190 397 1160 325 C 1130 253 1092 192 1045 140 C 997 88 940 48 872 18 C 804 -12 724 -27 633 -27 C 557 -27 486 -19 420 -3 C 353 12 295 37 246 72 C 196 107 157 154 129 212 C 100 270 86 340 86 424 C 86 448 87 472 90 496 C 92 520 96 544 100 569 L 252 1434 L 625 1434 L 471 563 C 468 545 466 528 464 511 C 462 493 461 476 461 459 C 461 399 475 353 505 322 C 534 291 579 276 641 276 C 685 276 722 284 753 300 C 783 316 809 337 829 364 C 849 390 865 421 877 456 C 889 491 898 527 905 565 L 1057 1434 Z" unicode="U" />
<glyph horiz-adv-x="1333" d="M 1085 1434 L 1446 1434 L 727 0 L 350 0 L 141 1434 L 526 1434 L 641 479 L 1085 1434 Z" unicode="V" />
<glyph horiz-adv-x="1968" d="M 1739 1434 L 2066 1434 L 1413 0 L 1106 0 L 1018 885 L 616 0 L 309 0 L 156 1434 L 532 1434 L 600 555 L 983 1434 L 1298 1434 L 1372 557 L 1739 1434 Z" unicode="W" />
<glyph horiz-adv-x="1317" d="M 1032 1434 L 1415 1434 L 844 737 L 1171 0 L 784 0 L 584 453 L 246 0 L -119 0 L 461 733 L 152 1434 L 539 1434 L 723 1016 L 1032 1434 Z" unicode="X" />
<glyph horiz-adv-x="1296" d="M 1055 1434 L 1419 1434 L 838 653 L 723 0 L 350 0 L 457 604 L 129 1434 L 528 1434 L 698 922 L 1055 1434 Z" unicode="Y" />
<glyph horiz-adv-x="1198" d="M 213 1434 L 1266 1434 L 1235 1251 L 477 297 L 1081 297 L 1028 0 L -72 0 L -41 172 L 735 1137 L 162 1137 L 213 1434 Z" unicode="Z" />
<glyph horiz-adv-x="729" d="M 260 1434 L 791 1434 L 766 1284 L 522 1284 L 268 -156 L 514 -156 L 487 -305 L -45 -305 L 260 1434 Z" unicode="[" />
<glyph horiz-adv-x="1198" d="M 473 1434 L 993 -317 L 791 -317 L 270 1434 L 473 1434 Z" unicode="\" />
<glyph horiz-adv-x="729" d="M 195 1434 L 723 1434 L 418 -305 L -113 -305 L -86 -156 L 158 -156 L 412 1284 L 170 1284 L 195 1434 Z" unicode="]" />
<glyph horiz-adv-x="1245" d="M 762 1460 L 1135 776 L 881 776 L 635 1243 L 389 776 L 152 776 L 524 1460 L 762 1460 Z" unicode="^" />
<glyph horiz-adv-x="1006" d="M -104 -94 L 827 -94 L 797 -264 L -135 -264 L -104 -94 Z" unicode="_" />
<glyph horiz-adv-x="1006" d="M 608 1460 L 741 1200 L 739 1180 L 526 1180 L 283 1440 L 287 1460 L 608 1460 Z" unicode="`" />
<glyph horiz-adv-x="1112" d="M 575 1063 C 621 1063 670 1060 722 1055 C 774 1050 821 1038 864 1020 C 907 1002 943 975 971 940 C 999 904 1014 857 1014 797 C 1014 784 1013 771 1012 758 C 1011 745 1010 733 1008 721 L 920 215 C 916 194 913 173 911 153 C 908 133 907 112 907 92 C 907 80 907 67 909 55 C 910 43 912 30 915 18 L 911 0 L 559 0 L 559 106 C 537 90 514 75 488 61 C 462 46 435 33 407 21 C 379 9 351 0 323 -7 C 294 -14 266 -18 240 -18 C 201 -18 165 -12 132 0 C 99 11 71 28 48 50 C 24 72 6 98 -7 130 C -20 162 -27 198 -27 238 C -27 327 -4 398 40 451 C 85 504 141 545 208 573 C 274 601 347 619 427 629 C 506 639 579 645 647 649 C 649 666 652 683 656 701 C 660 719 662 736 662 754 C 662 784 654 808 638 824 C 622 840 599 848 567 848 C 521 848 484 834 458 807 C 432 780 411 747 397 707 L 98 788 C 149 886 214 956 294 999 C 373 1041 467 1063 575 1063 Z M 580 252 L 618 479 C 586 479 553 476 520 470 C 487 464 457 453 431 438 C 405 423 383 403 367 377 C 350 351 342 319 342 281 C 342 256 348 236 362 220 C 375 204 394 197 420 197 C 453 197 481 202 503 212 C 525 222 551 235 580 252 Z" unicode="a" />
<glyph horiz-adv-x="1176" d="M 809 1063 C 863 1063 909 1052 947 1030 C 984 1008 1014 979 1036 944 C 1058 908 1075 868 1085 822 C 1095 776 1100 730 1100 684 C 1100 610 1091 532 1073 450 C 1055 367 1026 291 988 222 C 949 153 898 96 836 50 C 773 4 698 -18 610 -18 C 534 -18 471 -2 421 30 C 371 62 333 114 307 186 L 215 0 L -12 0 L 240 1434 L 590 1434 L 498 905 C 538 951 584 989 637 1019 C 689 1048 747 1063 809 1063 Z M 516 197 C 558 197 592 215 620 253 C 647 290 668 334 684 385 C 699 436 710 488 716 541 C 722 594 725 636 725 668 C 725 683 724 700 722 719 C 720 737 716 755 710 771 C 704 787 694 801 682 812 C 670 823 653 829 633 829 C 598 829 569 821 545 807 C 521 793 496 774 471 752 L 412 416 C 410 403 408 390 407 378 C 406 365 406 352 406 340 C 406 302 413 268 429 240 C 444 211 473 197 516 197 Z" unicode="b" />
<glyph horiz-adv-x="1034" d="M 567 1063 C 645 1063 711 1053 767 1034 C 822 1015 866 989 900 955 C 934 921 958 880 973 832 C 987 784 993 732 991 676 L 682 684 C 682 739 676 780 663 807 C 650 834 626 848 590 848 C 540 848 500 824 470 778 C 440 732 416 660 399 563 C 393 526 388 492 384 460 C 380 428 379 399 379 373 C 379 315 387 272 405 242 C 422 212 449 197 485 197 C 531 197 572 213 608 247 C 644 280 679 331 713 399 L 938 322 C 919 268 893 219 859 177 C 825 134 787 98 745 70 C 703 41 657 19 607 4 C 557 -10 506 -18 455 -18 C 385 -18 322 -5 267 18 C 212 42 166 76 129 118 C 91 160 63 209 43 267 C 23 324 14 385 14 451 C 14 469 15 488 17 508 C 19 528 21 548 25 569 C 39 649 63 720 98 782 C 132 844 174 895 222 937 C 270 978 323 1009 383 1031 C 442 1052 503 1063 567 1063 Z" unicode="c" />
<glyph horiz-adv-x="1176" d="M 838 1434 L 1190 1434 L 938 0 L 594 0 L 618 139 C 565 79 513 38 462 16 C 410 -6 361 -18 313 -18 C 217 -18 143 14 90 79 C 36 143 10 236 10 356 C 10 382 11 410 14 439 C 17 468 21 498 27 530 C 58 707 111 840 187 929 C 263 1018 359 1063 475 1063 C 538 1063 593 1050 639 1024 C 685 998 721 961 748 913 L 838 1434 Z M 637 293 L 719 756 C 694 788 671 809 651 817 C 630 825 609 829 588 829 C 540 829 500 802 470 748 C 439 694 415 622 399 530 C 394 501 390 474 387 449 C 384 423 383 399 383 377 C 383 327 390 287 405 258 C 420 229 444 215 477 215 C 487 215 498 215 508 216 C 518 217 529 220 541 225 C 553 230 566 238 582 249 C 597 259 615 274 637 293 Z" unicode="d" />
<glyph horiz-adv-x="1092" d="M 586 1063 C 655 1063 717 1053 771 1034 C 825 1015 871 988 908 953 C 945 918 973 875 993 825 C 1012 774 1022 717 1022 655 C 1022 645 1021 634 1021 623 C 1020 611 1019 598 1017 583 C 1015 568 1013 550 1010 530 C 1006 509 1002 484 997 455 L 356 455 C 355 444 354 434 354 425 C 354 416 354 407 354 399 C 354 321 368 268 396 240 C 424 211 460 197 504 197 C 554 197 599 208 638 231 C 676 254 718 293 762 348 L 958 238 C 886 146 809 81 729 41 C 649 1 565 -18 479 -18 C 401 -18 333 -6 275 17 C 216 40 167 72 129 112 C 90 152 61 201 41 257 C 21 313 12 373 12 438 C 12 457 12 477 14 498 C 15 518 18 539 23 561 C 37 639 62 710 99 772 C 135 834 179 887 230 930 C 280 973 336 1006 398 1029 C 459 1051 522 1063 586 1063 Z M 694 639 C 696 654 698 669 700 683 C 701 697 702 711 702 725 C 702 763 693 793 677 816 C 661 838 632 850 590 850 C 534 850 491 833 461 800 C 430 766 405 713 387 639 L 694 639 Z" unicode="e" />
<glyph horiz-adv-x="721" d="M 604 1442 C 646 1442 686 1441 722 1439 C 758 1437 789 1436 817 1434 L 780 1219 L 725 1219 C 678 1219 645 1210 626 1193 C 607 1175 594 1144 586 1100 L 575 1040 L 752 1040 L 709 807 L 543 807 L 401 0 L 49 0 L 190 807 L 45 807 L 88 1044 L 233 1044 L 254 1165 C 271 1267 309 1338 369 1380 C 428 1421 506 1442 604 1442 Z" unicode="f" />
<glyph horiz-adv-x="1178" d="M 932 944 C 978 984 1024 1015 1071 1036 C 1118 1057 1165 1069 1212 1071 L 1167 809 L 1157 809 C 1141 828 1124 843 1106 855 C 1088 866 1071 872 1055 872 C 1045 872 1035 871 1023 869 C 1011 867 999 864 989 860 C 995 844 1000 828 1004 811 C 1008 793 1010 775 1010 756 C 1010 746 1009 737 1009 728 C 1009 718 1008 708 1006 698 C 998 652 981 612 955 577 C 929 541 896 512 858 488 C 819 464 775 445 725 433 C 675 420 623 414 567 414 C 535 414 503 416 469 422 C 435 427 409 430 391 430 C 372 430 355 425 340 417 C 324 408 317 392 317 369 C 317 351 324 339 340 331 C 355 323 375 318 401 315 C 443 309 490 303 541 297 C 591 291 644 283 698 274 C 741 267 781 257 818 244 C 855 231 887 215 914 195 C 941 175 962 150 978 122 C 993 94 1001 61 1001 23 C 1000 -54 979 -116 939 -164 C 899 -212 848 -249 788 -275 C 727 -301 661 -318 589 -327 C 517 -335 449 -340 387 -340 C 306 -340 233 -335 168 -326 C 103 -316 48 -303 3 -285 C -41 -267 -76 -244 -101 -218 C -125 -192 -138 -162 -139 -129 C -139 -97 -131 -70 -115 -47 C -99 -24 -78 -4 -53 11 C -28 27 0 41 30 52 C 61 62 91 71 121 78 C 78 92 43 112 17 138 C -9 164 -23 195 -23 233 C -23 263 -15 291 0 317 C 15 342 35 365 59 385 C 83 405 111 423 142 439 C 173 455 204 469 236 481 C 188 506 150 539 123 579 C 95 619 82 665 82 719 C 82 727 82 735 82 745 C 82 754 84 763 86 772 C 94 820 112 862 139 899 C 166 935 200 966 242 990 C 283 1014 331 1032 386 1044 C 441 1056 501 1063 565 1063 C 644 1063 715 1052 779 1032 C 842 1011 893 982 932 944 Z M 686 727 C 686 733 687 738 687 744 C 687 750 688 755 688 760 C 688 796 678 828 658 854 C 638 880 609 893 571 893 C 524 893 486 879 457 852 C 428 824 409 789 401 745 C 400 740 399 735 399 731 C 399 726 399 721 399 717 C 399 679 409 647 430 623 C 451 598 479 586 514 586 C 564 586 603 599 632 626 C 661 653 679 687 686 727 Z M 455 -164 C 469 -164 489 -163 514 -162 C 539 -160 564 -157 588 -151 C 612 -145 632 -135 650 -122 C 668 -109 677 -91 678 -68 C 678 -49 672 -33 660 -20 C 648 -6 628 2 602 6 C 586 8 566 10 542 14 C 518 17 491 21 461 25 C 431 29 400 34 366 38 C 332 42 298 47 264 51 C 252 46 239 40 226 33 C 213 25 201 17 191 7 C 181 -3 172 -14 166 -27 C 159 -39 156 -54 156 -70 C 156 -102 182 -126 234 -141 C 285 -156 359 -164 455 -164 Z" unicode="g" />
<glyph horiz-adv-x="1165" d="M 823 1063 C 901 1063 963 1043 1007 1003 C 1051 963 1073 903 1073 823 C 1073 808 1072 793 1071 777 C 1069 761 1067 746 1065 731 L 936 0 L 584 0 L 698 655 C 700 665 701 676 703 687 C 704 697 705 708 705 719 C 705 745 699 766 689 782 C 679 797 659 805 631 805 C 618 805 604 802 589 797 C 574 791 559 785 545 777 C 530 769 516 760 502 751 C 488 742 477 734 467 727 L 338 0 L -12 0 L 240 1434 L 590 1434 L 494 885 C 513 904 536 924 562 945 C 588 966 615 985 644 1003 C 672 1020 702 1034 733 1046 C 763 1057 793 1063 823 1063 Z" unicode="h" />
<glyph horiz-adv-x="588" d="M 250 1460 L 604 1460 L 557 1192 L 203 1192 L 250 1460 Z M 174 1030 L 526 1030 L 344 0 L -8 0 L 174 1030 Z" unicode="i" />
<glyph horiz-adv-x="596" d="M 262 1460 L 618 1460 L 571 1192 L 215 1192 L 262 1460 Z M 188 1030 L 539 1030 L 358 6 C 336 -114 295 -202 235 -257 C 174 -312 92 -340 -10 -340 C -52 -340 -91 -339 -127 -337 C -163 -335 -194 -332 -221 -328 L -180 -88 L -102 -88 C -66 -88 -41 -80 -25 -64 C -9 -48 3 -14 12 37 L 188 1030 Z" unicode="j" />
<glyph horiz-adv-x="1157" d="M 840 1044 L 1192 1044 L 834 711 L 1032 0 L 666 0 L 557 477 L 387 309 L 332 0 L -12 0 L 240 1434 L 590 1434 L 451 647 L 840 1044 Z" unicode="k" />
<glyph horiz-adv-x="588" d="M 244 1434 L 596 1434 L 344 0 L -8 0 L 244 1434 Z" unicode="l" />
<glyph horiz-adv-x="1755" d="M 1430 1063 C 1506 1063 1563 1042 1603 1001 C 1643 960 1663 901 1663 825 C 1663 810 1662 794 1661 778 C 1659 762 1657 746 1655 731 L 1526 0 L 1176 0 L 1290 655 C 1292 665 1293 676 1294 687 C 1295 697 1296 708 1296 719 C 1296 745 1291 766 1281 782 C 1271 797 1251 805 1223 805 C 1193 805 1163 796 1135 779 C 1107 761 1082 744 1061 727 L 932 0 L 582 0 L 696 655 C 698 665 699 676 700 687 C 701 697 702 708 702 719 C 702 745 697 766 687 782 C 677 797 657 805 629 805 C 598 805 569 796 542 780 C 515 763 490 745 467 727 L 338 0 L -12 0 L 172 1044 L 516 1044 L 485 877 C 507 897 531 919 558 941 C 584 963 612 983 642 1001 C 672 1019 703 1033 735 1045 C 767 1057 799 1063 831 1063 C 905 1063 960 1047 995 1016 C 1030 984 1054 932 1067 860 C 1089 882 1114 906 1142 930 C 1170 954 1199 976 1230 996 C 1261 1015 1294 1031 1328 1044 C 1362 1056 1396 1063 1430 1063 Z" unicode="m" />
<glyph horiz-adv-x="1165" d="M 823 1063 C 901 1063 963 1043 1007 1003 C 1051 963 1073 903 1073 823 C 1073 808 1072 793 1071 777 C 1069 761 1067 746 1065 731 L 936 0 L 584 0 L 698 655 C 700 665 701 676 703 687 C 704 697 705 708 705 719 C 705 745 699 766 689 782 C 679 797 659 805 631 805 C 618 805 604 802 589 797 C 574 791 559 785 545 777 C 530 769 516 760 502 751 C 488 742 477 734 467 727 L 338 0 L -12 0 L 172 1044 L 516 1044 L 485 877 C 505 896 529 916 555 938 C 581 960 609 980 639 998 C 668 1016 698 1032 730 1044 C 762 1056 793 1063 823 1063 Z" unicode="n" />
<glyph horiz-adv-x="1141" d="M 600 1063 C 670 1063 734 1052 792 1031 C 849 1010 898 980 938 941 C 978 902 1008 854 1030 798 C 1052 742 1063 679 1063 610 C 1063 589 1062 568 1060 547 C 1058 525 1055 503 1051 481 C 1036 395 1011 321 975 258 C 939 195 896 143 846 103 C 796 62 739 32 677 12 C 614 -8 549 -18 481 -18 C 405 -18 337 -6 279 16 C 221 38 172 70 133 110 C 93 150 64 199 44 256 C 24 312 14 374 14 442 C 14 463 15 485 17 507 C 19 529 22 552 27 575 C 40 651 64 719 98 780 C 132 840 174 891 224 933 C 274 975 331 1007 395 1029 C 459 1051 527 1063 600 1063 Z M 680 502 C 686 537 690 570 693 601 C 696 632 698 660 698 686 C 698 739 690 779 675 807 C 659 834 634 848 598 848 C 544 848 501 823 469 775 C 437 727 412 647 393 535 C 387 502 382 471 379 443 C 376 414 375 388 375 365 C 375 309 384 267 402 239 C 420 211 447 197 483 197 C 532 197 572 221 604 269 C 636 317 661 395 680 502 Z" unicode="o" />
<glyph horiz-adv-x="1176" d="M 788 1063 C 886 1063 962 1030 1017 966 C 1072 902 1100 809 1100 688 C 1100 661 1098 633 1095 605 C 1092 576 1088 546 1083 516 C 1051 338 998 205 922 116 C 846 26 751 -18 637 -18 C 571 -18 516 -5 470 20 C 424 46 388 83 360 131 L 279 -340 L -72 -340 L 172 1044 L 516 1044 L 492 905 C 557 965 611 1006 655 1029 C 699 1051 743 1063 788 1063 Z M 711 516 C 715 544 719 571 722 597 C 725 623 727 646 727 668 C 727 718 719 757 704 786 C 689 814 665 829 633 829 C 611 829 587 822 559 810 C 531 798 501 778 471 752 L 389 289 C 413 256 436 235 458 227 C 479 219 500 215 522 215 C 568 215 607 242 639 297 C 670 351 694 424 711 516 Z" unicode="p" />
<glyph horiz-adv-x="1176" d="M 893 1044 L 1122 1044 L 879 -340 L 526 -340 L 610 135 C 569 93 524 57 476 27 C 427 -3 372 -18 311 -18 C 255 -18 208 -7 170 13 C 131 34 100 62 77 96 C 53 130 36 170 26 216 C 15 262 10 309 10 358 C 10 432 19 511 37 594 C 55 677 83 753 122 822 C 161 891 212 948 275 994 C 338 1040 414 1063 504 1063 C 577 1063 639 1047 689 1015 C 739 983 777 932 803 862 L 893 1044 Z M 696 629 C 698 641 700 653 702 666 C 704 679 705 692 705 705 C 705 723 703 740 699 758 C 695 775 689 790 681 804 C 673 817 661 828 647 836 C 633 844 615 848 594 848 C 561 848 534 837 512 817 C 490 796 471 771 457 741 C 443 711 432 680 424 647 C 416 614 410 585 406 561 C 400 530 395 499 391 467 C 387 435 385 404 385 373 C 385 357 385 339 387 321 C 389 303 393 286 399 270 C 405 254 415 240 427 230 C 439 220 456 215 477 215 C 513 215 542 221 565 235 C 587 249 611 268 637 293 L 696 629 Z" unicode="q" />
<glyph horiz-adv-x="877" d="M 477 829 C 519 874 558 911 595 941 C 632 970 667 993 701 1011 C 735 1028 768 1040 800 1048 C 832 1056 863 1061 895 1063 L 831 705 L 819 705 C 809 709 796 712 782 715 C 767 717 752 720 736 722 C 720 724 705 725 690 726 C 675 726 662 727 651 727 C 612 727 576 722 544 712 C 511 702 481 686 455 666 L 338 0 L -12 0 L 172 1044 L 516 1044 L 477 829 Z" unicode="r" />
<glyph horiz-adv-x="1038" d="M 547 1063 C 610 1063 665 1057 711 1046 C 757 1035 797 1019 830 999 C 863 979 891 954 914 926 C 936 897 956 865 973 831 L 743 729 C 727 767 704 796 674 817 C 644 837 596 848 532 848 C 520 848 505 846 489 844 C 473 842 458 838 444 832 C 430 826 418 818 408 807 C 398 796 393 782 393 766 C 393 741 407 722 436 710 C 464 697 514 682 586 664 C 629 653 672 640 714 625 C 756 609 794 590 827 567 C 860 543 887 515 907 481 C 927 447 938 407 938 360 C 938 296 923 240 894 193 C 864 145 826 106 779 75 C 732 43 679 20 619 5 C 559 -10 498 -18 438 -18 C 308 -18 206 1 130 39 C 54 77 -2 141 -39 231 L 193 342 C 209 302 234 268 270 241 C 306 214 358 201 428 201 C 441 201 458 201 478 202 C 498 203 518 206 538 211 C 557 216 574 224 588 236 C 602 248 609 264 610 285 C 610 301 605 314 595 326 C 584 337 570 347 552 355 C 534 363 513 370 489 376 C 465 382 440 387 414 393 C 374 401 334 412 293 427 C 252 441 215 460 182 483 C 148 506 121 534 100 568 C 78 602 68 642 68 688 C 68 752 82 807 110 855 C 138 902 175 941 220 972 C 265 1002 316 1025 374 1040 C 431 1055 489 1063 547 1063 Z" unicode="s" />
<glyph horiz-adv-x="842" d="M 606 1044 L 848 1044 L 805 807 L 563 807 L 492 399 C 489 388 487 376 485 364 C 483 352 483 340 483 328 C 483 307 486 291 494 279 C 501 267 511 258 523 252 C 535 246 548 243 564 242 C 580 240 596 240 614 240 C 629 240 644 241 660 243 C 676 245 691 247 707 248 L 666 8 C 624 1 582 -4 540 -10 C 498 -15 456 -18 414 -18 C 378 -18 341 -14 305 -8 C 269 -1 236 10 208 26 C 179 42 156 65 138 93 C 120 121 111 157 111 201 C 111 211 111 220 112 230 C 113 240 115 250 117 260 L 213 807 L 45 807 L 88 1044 L 266 1044 L 358 1391 L 668 1391 L 606 1044 Z" unicode="t" />
<glyph horiz-adv-x="1165" d="M 762 1044 L 1114 1044 L 930 0 L 584 0 L 612 168 C 589 146 564 123 538 101 C 511 79 483 59 453 42 C 423 24 392 10 360 -1 C 328 -12 295 -18 262 -18 C 186 -18 127 3 87 45 C 47 87 27 145 27 221 C 27 236 27 251 29 267 C 30 283 32 298 35 313 L 164 1044 L 516 1044 L 401 389 C 399 379 397 368 396 358 C 395 348 395 338 395 328 C 395 300 400 278 411 263 C 422 247 442 240 471 240 C 500 240 529 248 557 266 C 585 283 610 300 633 317 L 762 1044 Z" unicode="u" />
<glyph horiz-adv-x="1059" d="M 825 1044 L 1104 1044 L 535 0 L 274 0 L 74 1044 L 440 1044 L 514 428 L 825 1044 Z" unicode="v" />
<glyph horiz-adv-x="1538" d="M 1317 1044 L 1581 1044 L 1073 0 L 836 0 L 768 602 L 471 0 L 219 0 L 76 1044 L 418 1044 L 463 449 L 750 1044 L 997 1044 L 1067 449 L 1317 1044 Z" unicode="w" />
<glyph horiz-adv-x="1096" d="M 811 1044 L 1120 1044 L 692 532 L 952 0 L 588 0 L 436 309 L 190 0 L -119 0 L 332 526 L 80 1044 L 444 1044 L 582 760 L 811 1044 Z" unicode="x" />
<glyph horiz-adv-x="1055" d="M 825 1044 L 1102 1044 L 524 -51 C 476 -143 418 -214 352 -264 C 286 -314 200 -340 94 -340 C 60 -340 27 -338 -7 -335 C -41 -332 -75 -328 -109 -322 L -66 -78 C -48 -80 -30 -82 -12 -84 C 5 -85 23 -86 41 -86 C 64 -86 88 -85 114 -83 C 140 -81 163 -77 184 -69 C 205 -61 223 -48 237 -31 C 251 -14 258 9 258 41 C 258 49 257 58 256 68 C 255 77 254 86 252 94 L 74 1044 L 434 1044 L 510 389 L 825 1044 Z" unicode="y" />
<glyph horiz-adv-x="956" d="M 137 1044 L 975 1044 L 942 856 L 383 236 L 831 236 L 791 0 L -72 0 L -37 201 L 508 807 L 94 807 L 137 1044 Z" unicode="z" />
<glyph horiz-adv-x="844" d="M 711 1434 L 885 1434 L 862 1296 L 809 1296 C 777 1296 751 1292 730 1285 C 709 1277 692 1266 679 1252 C 665 1238 655 1220 647 1198 C 639 1176 632 1151 627 1122 L 582 877 C 564 783 530 711 479 661 C 428 610 356 577 262 563 C 328 554 380 529 420 488 C 459 446 479 391 479 322 C 479 291 476 259 470 226 C 464 193 457 160 450 127 C 443 94 437 61 431 28 C 425 -4 422 -36 422 -66 C 422 -94 427 -116 438 -130 C 449 -144 463 -153 481 -159 C 498 -165 517 -168 539 -168 C 561 -168 582 -168 604 -168 L 580 -305 L 406 -305 C 367 -305 331 -300 298 -292 C 264 -283 236 -269 212 -251 C 188 -232 169 -208 155 -178 C 141 -148 135 -112 135 -70 C 135 -56 135 -42 137 -28 C 139 -14 141 0 143 12 L 193 293 C 195 305 196 317 198 331 C 200 344 201 357 201 371 C 201 401 196 424 186 440 C 176 456 164 467 148 474 C 132 481 113 485 91 486 C 69 486 47 487 23 487 L 49 641 L 102 641 C 134 641 160 645 182 655 C 204 665 222 678 236 695 C 250 712 261 733 269 757 C 277 781 283 807 289 836 L 338 1116 C 358 1230 397 1312 453 1361 C 509 1409 595 1434 711 1434 Z" unicode="{" />
<glyph horiz-adv-x="670" d="M 446 1434 L 446 -317 L 223 -317 L 223 1434 L 446 1434 Z" unicode="|" />
<glyph horiz-adv-x="844" d="M 592 758 C 592 727 596 704 606 688 C 616 672 629 660 645 653 C 661 646 680 642 702 642 C 724 641 746 641 770 641 L 743 487 L 688 487 C 656 487 630 482 608 472 C 586 462 569 449 555 432 C 541 415 531 395 523 371 C 515 347 508 321 504 293 L 455 12 C 445 -44 430 -93 412 -134 C 394 -174 370 -207 341 -232 C 311 -257 275 -275 233 -287 C 191 -299 140 -305 82 -305 L -92 -305 L -68 -168 L -14 -168 C 17 -168 43 -164 65 -157 C 86 -149 103 -138 117 -124 C 130 -110 140 -92 148 -70 C 156 -48 162 -23 168 6 L 211 252 C 227 342 262 414 314 466 C 366 518 437 550 528 563 C 462 574 410 600 371 642 C 332 684 313 739 313 807 C 313 837 316 869 322 902 C 328 935 335 968 343 1001 C 350 1034 357 1067 363 1100 C 369 1132 373 1164 373 1194 C 373 1222 367 1244 356 1258 C 345 1272 331 1282 314 1288 C 296 1293 277 1296 255 1296 C 233 1296 211 1296 190 1296 L 213 1434 L 387 1434 C 426 1434 462 1429 496 1420 C 529 1411 557 1397 581 1378 C 605 1359 623 1334 637 1304 C 650 1274 657 1238 657 1196 C 657 1182 656 1169 654 1156 C 652 1142 651 1129 649 1116 L 600 836 C 598 822 596 809 594 796 C 592 782 592 770 592 758 Z" unicode="}" />
<glyph horiz-adv-x="1245" d="M 893 780 L 1094 780 C 1083 652 1052 554 1002 484 C 951 414 882 379 795 379 C 762 379 728 386 692 402 C 656 418 623 438 592 463 C 559 489 531 511 508 529 C 484 546 461 555 438 555 C 420 555 405 550 393 541 C 380 531 370 518 362 502 C 354 486 349 467 345 445 C 341 423 340 399 340 375 L 141 375 C 148 499 177 596 229 666 C 281 735 350 770 438 770 C 480 770 520 760 558 740 C 596 720 629 699 659 676 C 680 659 703 642 729 624 C 755 606 778 598 799 598 C 816 598 831 603 843 613 C 855 623 865 637 873 654 C 880 671 885 691 888 713 C 891 735 893 757 893 780 Z" unicode="~" />
<glyph horiz-adv-x="598" d="" unicode="" />
<glyph horiz-adv-x="692" d="M 236 1118 L 600 1118 L 535 739 L 170 739 L 236 1118 Z M 227 592 L 428 592 L 369 -315 L -37 -315 L 227 592 Z" unicode="" />
<glyph horiz-adv-x="1245" d="M 819 1171 C 866 1159 906 1143 940 1121 C 973 1099 1000 1072 1021 1042 C 1041 1012 1056 977 1065 939 C 1073 901 1077 860 1075 817 L 803 825 C 803 877 794 916 774 942 C 754 968 728 981 694 981 C 647 981 606 958 570 914 C 534 870 508 802 492 711 C 485 675 480 642 477 612 C 474 582 473 554 473 528 C 473 474 484 432 507 404 C 530 376 560 362 596 362 C 638 362 677 377 711 409 C 745 441 778 489 811 555 L 1024 481 C 1008 436 987 395 961 359 C 935 322 905 290 872 263 C 838 236 802 214 763 197 C 723 180 683 168 641 162 L 600 -66 L 395 -66 L 438 174 C 392 186 350 206 314 233 C 278 260 247 292 223 330 C 198 368 179 410 166 457 C 153 503 147 552 147 604 C 147 621 148 639 150 659 C 152 678 155 697 158 717 C 170 786 190 848 219 904 C 247 959 282 1006 322 1045 C 362 1083 407 1114 457 1138 C 507 1161 559 1176 614 1182 L 651 1391 L 858 1391 L 819 1171 Z" unicode="" />
<glyph horiz-adv-x="1245" d="M 776 1401 C 840 1401 899 1396 951 1387 C 1003 1378 1049 1366 1089 1350 C 1129 1334 1164 1315 1194 1294 C 1224 1273 1249 1251 1270 1227 L 1020 1022 C 995 1046 964 1069 926 1091 C 888 1113 843 1124 791 1124 C 770 1124 750 1120 731 1113 C 712 1105 695 1093 681 1077 C 666 1061 654 1040 646 1014 C 637 988 633 958 633 922 C 633 900 634 878 636 854 C 638 830 640 800 641 764 L 930 764 L 899 594 L 637 594 C 632 548 622 502 606 456 C 590 410 569 366 545 324 C 569 305 597 290 627 279 C 657 267 687 262 717 262 C 727 262 740 264 757 268 C 773 272 792 279 812 291 C 832 302 853 318 875 338 C 897 358 919 384 940 416 L 1153 219 C 1121 175 1088 137 1054 106 C 1019 74 984 49 950 29 C 915 9 881 -4 848 -13 C 815 -22 785 -27 758 -27 C 711 -27 669 -22 632 -13 C 595 -3 562 8 532 23 C 502 37 476 54 452 73 C 428 92 405 111 385 131 C 329 84 266 46 194 17 C 122 -11 44 -26 -41 -27 L 8 260 C 103 270 172 304 216 361 C 260 418 282 496 283 594 L 70 594 L 100 764 L 272 764 C 270 786 268 809 267 832 C 266 854 266 877 266 901 C 266 971 277 1037 301 1098 C 325 1159 359 1212 403 1257 C 447 1301 500 1336 563 1362 C 626 1388 697 1401 776 1401 Z" unicode="" />
<glyph horiz-adv-x="1245" d="M 805 1401 C 911 1401 1007 1384 1091 1351 C 1175 1317 1244 1270 1296 1208 L 1055 1004 C 1043 1016 1028 1030 1011 1046 C 994 1062 975 1076 955 1090 C 934 1104 912 1115 889 1125 C 866 1134 843 1139 821 1139 C 797 1139 774 1135 751 1128 C 727 1121 705 1109 683 1092 C 661 1074 640 1050 620 1020 C 600 990 581 951 565 905 L 913 905 L 885 739 L 520 739 L 512 690 C 510 677 507 663 505 649 C 502 634 500 619 498 604 L 793 604 L 764 440 L 494 440 C 496 412 500 385 507 361 C 514 336 524 314 538 296 C 551 277 568 262 589 252 C 610 241 636 236 666 236 C 694 236 721 240 749 249 C 777 258 803 269 828 282 C 853 295 876 310 898 326 C 919 342 938 357 954 371 L 1122 141 C 1086 115 1052 92 1018 72 C 984 51 948 33 912 19 C 876 4 837 -7 796 -15 C 754 -23 709 -27 659 -27 C 576 -27 505 -15 445 8 C 385 32 335 64 295 106 C 255 147 225 196 204 254 C 183 311 170 373 166 440 L 2 440 L 31 604 L 168 604 C 168 620 170 637 173 654 C 176 670 179 687 182 705 L 188 739 L 55 739 L 84 905 L 233 905 C 257 975 288 1040 325 1101 C 361 1161 403 1214 451 1258 C 499 1302 552 1337 612 1363 C 671 1388 735 1401 805 1401 Z" unicode="" />
<glyph horiz-adv-x="1245" d="M 999 1376 L 1343 1376 L 856 745 L 1114 745 L 1085 582 L 774 582 L 750 444 L 1061 444 L 1032 281 L 723 281 L 674 0 L 319 0 L 369 281 L 59 281 L 88 444 L 401 444 L 426 582 L 113 582 L 141 745 L 383 745 L 117 1376 L 512 1376 L 672 891 L 999 1376 Z" unicode="" />
<glyph horiz-adv-x="1245" d="M 731 1401 C 783 1401 830 1397 872 1390 C 914 1383 951 1374 984 1363 C 1017 1352 1047 1339 1074 1325 C 1100 1311 1125 1296 1149 1282 L 971 1104 C 941 1130 906 1152 866 1169 C 826 1185 785 1194 743 1194 C 729 1194 715 1192 701 1189 C 687 1185 674 1180 662 1173 C 650 1165 641 1155 634 1143 C 626 1131 623 1116 623 1098 C 623 1086 625 1075 630 1065 C 635 1055 645 1044 659 1033 C 673 1021 692 1009 718 995 C 744 981 777 964 819 944 C 903 903 964 859 1002 811 C 1040 763 1059 711 1059 653 C 1059 615 1052 581 1039 550 C 1025 518 1007 490 985 464 C 962 438 936 414 906 392 C 876 370 845 349 813 330 C 845 299 867 270 878 243 C 889 215 895 190 895 168 C 895 115 882 67 858 25 C 834 -16 802 -52 764 -81 C 725 -110 681 -132 631 -148 C 581 -164 531 -172 481 -172 C 428 -172 381 -168 339 -162 C 297 -155 260 -146 227 -135 C 194 -123 164 -110 138 -96 C 111 -82 86 -67 63 -53 L 242 125 C 271 98 305 76 345 60 C 385 43 426 35 469 35 C 483 35 497 36 511 39 C 525 42 538 47 550 55 C 562 62 571 72 579 84 C 586 96 590 112 590 131 C 590 143 587 154 582 164 C 577 174 567 184 553 196 C 539 207 519 220 493 234 C 467 248 434 265 393 285 C 308 325 247 369 210 417 C 172 464 154 517 154 575 C 154 612 160 646 173 678 C 186 709 204 738 226 764 C 248 790 273 814 303 836 C 333 858 364 879 397 899 C 365 928 344 956 333 984 C 322 1012 317 1037 317 1061 C 317 1113 329 1161 353 1203 C 377 1245 409 1281 448 1310 C 486 1339 530 1361 580 1377 C 630 1393 680 1401 731 1401 Z M 682 422 C 696 431 710 441 724 453 C 738 465 750 478 761 492 C 772 506 781 521 788 537 C 795 553 799 571 799 590 C 799 615 787 641 765 669 C 743 697 699 726 633 756 C 613 764 595 772 578 780 C 560 788 544 796 530 805 C 516 795 502 785 488 773 C 474 761 461 749 450 735 C 439 721 430 706 424 690 C 417 674 414 657 414 639 C 414 606 425 578 448 556 C 470 533 514 505 580 473 C 596 465 614 456 635 446 C 656 436 672 428 682 422 Z" unicode="" />
<glyph horiz-adv-x="1006" d="M 715 1444 L 983 1444 L 938 1188 L 670 1188 L 715 1444 Z M 281 1444 L 549 1444 L 504 1188 L 236 1188 L 281 1444 Z" unicode="" />
<glyph horiz-adv-x="1608" d="M 805 1415 C 901 1415 993 1396 1079 1359 C 1165 1321 1239 1271 1303 1207 C 1367 1143 1417 1068 1455 982 C 1492 896 1511 804 1511 707 C 1511 609 1492 518 1455 432 C 1417 346 1367 271 1303 207 C 1239 143 1165 93 1079 56 C 993 18 901 0 805 0 C 707 0 615 18 529 56 C 443 93 368 143 304 207 C 240 271 190 346 153 432 C 116 518 98 609 98 707 C 98 804 116 896 153 982 C 190 1068 240 1143 304 1207 C 368 1271 443 1321 529 1359 C 615 1396 707 1415 805 1415 Z M 805 113 C 886 113 963 128 1036 160 C 1108 191 1171 233 1225 287 C 1278 340 1320 403 1352 476 C 1383 548 1399 625 1399 707 C 1399 789 1383 866 1352 939 C 1320 1011 1278 1074 1225 1128 C 1171 1182 1108 1224 1036 1256 C 963 1287 886 1303 805 1303 C 723 1303 645 1287 573 1256 C 500 1224 437 1182 383 1128 C 329 1074 287 1011 256 939 C 224 866 209 789 209 707 C 209 625 224 548 256 476 C 287 403 329 340 383 287 C 437 233 500 191 573 160 C 645 128 723 113 805 113 Z M 993 602 L 1169 565 C 1141 467 1096 398 1032 356 C 968 314 894 293 809 293 C 755 293 704 303 656 325 C 608 346 566 378 532 420 C 501 458 479 500 465 546 C 451 592 444 645 444 705 C 444 771 452 829 470 879 C 487 929 516 975 557 1016 C 591 1049 630 1075 676 1093 C 722 1111 772 1120 827 1120 C 876 1120 920 1112 960 1097 C 999 1082 1033 1062 1061 1037 C 1089 1011 1111 982 1127 948 C 1143 914 1154 878 1159 840 L 940 823 C 939 857 930 887 912 914 C 894 940 863 954 821 954 C 790 954 765 944 745 924 C 725 904 710 879 702 848 C 697 828 693 807 691 783 C 689 759 688 734 688 707 C 688 677 689 649 692 623 C 694 597 698 578 702 565 C 712 529 730 502 754 486 C 778 469 806 461 838 461 C 875 461 907 472 935 496 C 963 520 982 555 993 602 Z" unicode="" />
<glyph horiz-adv-x="985" d="M 582 1401 C 618 1401 656 1399 696 1395 C 736 1391 773 1381 807 1367 C 841 1353 869 1332 891 1304 C 913 1276 924 1240 924 1194 C 924 1184 923 1174 922 1164 C 921 1154 920 1145 918 1135 L 850 743 C 847 727 845 710 843 694 C 841 678 840 662 840 647 C 840 637 840 627 841 617 C 842 607 844 598 846 590 L 842 575 L 569 575 L 569 657 C 535 633 496 611 452 591 C 407 571 364 561 322 561 C 262 561 212 578 173 614 C 134 650 115 698 115 760 C 115 829 132 884 167 926 C 201 967 245 998 297 1020 C 349 1042 405 1056 466 1064 C 527 1071 584 1076 637 1079 C 639 1092 641 1105 644 1119 C 647 1133 649 1146 649 1159 C 649 1183 642 1202 630 1214 C 618 1226 599 1233 575 1233 C 539 1233 511 1222 491 1202 C 471 1182 455 1156 444 1124 L 211 1188 C 251 1264 301 1318 363 1351 C 424 1384 497 1401 582 1401 Z M 586 772 L 614 948 C 589 948 564 945 539 940 C 513 935 490 927 470 915 C 450 903 433 888 420 868 C 407 848 401 823 401 793 C 401 774 406 759 416 747 C 426 735 441 729 461 729 C 487 729 509 732 526 740 C 543 748 563 758 586 772 Z" unicode="" />
<glyph horiz-adv-x="1130" d="M 922 981 L 1073 848 L 731 537 L 963 227 L 770 119 L 489 498 L 508 602 L 922 981 Z M 469 981 L 621 848 L 279 537 L 510 227 L 317 119 L 37 498 L 55 602 L 469 981 Z" unicode="" />
<glyph horiz-adv-x="1245" d="M 1098 709 L 1098 94 L 870 94 L 870 485 L 113 485 L 113 709 L 1098 709 Z" unicode="" />
<glyph horiz-adv-x="727" d="M 82 698 L 641 698 L 590 401 L 31 401 L 82 698 Z" unicode="" />
<glyph horiz-adv-x="1067" d="M 571 1382 C 631 1382 689 1370 743 1347 C 797 1323 844 1292 884 1252 C 924 1212 955 1166 979 1112 C 1002 1058 1014 1000 1014 940 C 1014 879 1002 822 979 768 C 955 714 924 668 884 628 C 844 588 797 557 743 534 C 689 511 631 500 571 500 C 510 500 452 511 398 534 C 344 557 297 588 257 628 C 217 668 185 714 162 768 C 138 822 127 879 127 940 C 127 1000 138 1058 162 1112 C 185 1166 217 1212 257 1252 C 297 1292 344 1323 398 1347 C 452 1370 510 1382 571 1382 Z M 571 561 C 623 561 672 570 718 590 C 764 610 805 637 839 671 C 873 705 900 745 920 791 C 940 837 950 887 950 940 C 950 992 940 1042 920 1088 C 900 1134 873 1175 839 1209 C 805 1243 764 1271 718 1291 C 672 1311 623 1321 571 1321 C 518 1321 468 1311 422 1291 C 376 1271 335 1243 301 1209 C 267 1175 240 1134 220 1088 C 200 1042 190 992 190 940 C 190 887 200 837 220 791 C 240 745 267 705 301 671 C 335 637 376 610 422 590 C 468 570 518 561 571 561 Z M 666 893 L 756 694 L 655 694 L 573 881 L 492 881 L 492 694 L 399 694 L 399 1174 L 594 1174 C 614 1174 633 1170 653 1164 C 672 1158 689 1149 705 1137 C 720 1125 732 1110 742 1092 C 751 1074 756 1053 756 1030 C 756 999 748 972 733 948 C 717 924 695 905 666 893 Z M 586 973 C 598 973 613 977 629 986 C 645 994 653 1008 653 1028 C 653 1047 646 1061 633 1070 C 620 1078 605 1083 588 1083 L 492 1083 L 492 973 L 586 973 Z" unicode="" />
<glyph horiz-adv-x="1006" d="M 279 1397 L 975 1397 L 938 1219 L 242 1219 L 279 1397 Z" unicode="" />
<glyph horiz-adv-x="1090" d="M 649 1446 C 699 1446 746 1437 788 1419 C 830 1401 865 1378 895 1348 C 924 1318 947 1282 963 1242 C 979 1202 987 1160 987 1116 C 987 1065 976 1015 955 966 C 934 916 905 872 868 834 C 831 796 787 765 737 741 C 686 717 631 705 573 705 C 521 705 475 713 433 731 C 391 748 355 771 326 801 C 296 831 273 865 257 905 C 241 944 233 986 233 1030 C 233 1081 244 1132 266 1182 C 288 1232 317 1276 355 1315 C 393 1354 437 1386 488 1410 C 538 1434 592 1446 649 1446 Z M 584 903 C 610 903 634 908 658 919 C 682 929 703 944 721 962 C 739 980 753 1001 764 1026 C 775 1050 781 1076 782 1104 C 782 1148 769 1184 744 1212 C 718 1240 685 1255 645 1255 C 618 1255 593 1249 569 1239 C 545 1228 525 1213 507 1195 C 489 1176 474 1154 463 1130 C 452 1105 446 1079 446 1051 C 446 1009 458 973 483 945 C 508 917 542 903 584 903 Z" unicode="" />
<glyph horiz-adv-x="1245" d="M 1124 909 L 1124 686 L 733 686 L 733 336 L 510 336 L 510 686 L 119 686 L 119 909 L 510 909 L 510 1260 L 733 1260 L 733 909 L 1124 909 Z M 1124 223 L 1124 0 L 119 0 L 119 223 L 1124 223 Z" unicode="" />
<glyph horiz-adv-x="975" d="M 602 1460 C 698 1460 773 1437 828 1392 C 883 1347 911 1289 911 1217 C 911 1185 905 1157 895 1133 C 884 1108 870 1085 852 1065 C 834 1044 813 1025 789 1007 C 765 989 739 970 713 952 C 693 938 671 924 647 910 C 623 896 598 882 573 869 C 548 856 524 844 500 832 C 476 820 454 810 434 801 L 840 801 L 805 608 L 119 608 L 145 764 C 207 806 262 844 311 876 C 360 908 409 943 459 979 C 476 991 496 1006 518 1022 C 540 1038 562 1055 582 1074 C 602 1093 618 1114 632 1136 C 646 1158 653 1182 653 1208 C 653 1231 645 1249 630 1263 C 615 1277 593 1284 563 1284 C 542 1284 522 1281 502 1275 C 482 1269 463 1261 446 1252 C 428 1243 412 1234 397 1224 C 382 1214 369 1206 358 1198 L 258 1352 C 317 1390 372 1418 424 1435 C 475 1451 534 1460 602 1460 Z" unicode="" />
<glyph horiz-adv-x="975" d="M 590 1460 C 682 1460 756 1440 812 1402 C 867 1364 895 1315 895 1255 C 895 1227 889 1203 877 1181 C 865 1159 850 1140 831 1124 C 811 1108 789 1094 764 1082 C 739 1070 714 1061 688 1055 C 704 1050 722 1042 742 1031 C 761 1020 779 1006 796 990 C 812 973 826 953 837 930 C 848 907 854 881 854 852 C 854 808 842 769 818 736 C 794 703 763 676 727 655 C 691 633 651 617 607 607 C 563 597 521 592 481 592 C 388 592 311 604 249 629 C 187 654 138 694 102 748 L 285 860 C 306 830 330 806 358 788 C 386 769 423 760 469 760 C 483 760 497 761 513 765 C 528 769 542 775 556 783 C 569 791 580 801 589 814 C 597 827 602 843 602 862 C 602 880 598 894 590 906 C 582 918 571 927 559 934 C 547 940 533 945 517 948 C 501 950 486 952 471 952 L 416 952 L 444 1116 L 496 1116 C 512 1116 528 1117 546 1121 C 564 1124 580 1130 594 1138 C 608 1146 619 1157 629 1171 C 638 1184 643 1201 643 1221 C 643 1242 636 1259 623 1271 C 609 1283 585 1290 551 1290 C 530 1290 510 1287 491 1282 C 471 1277 454 1271 438 1264 C 422 1257 407 1250 394 1242 C 380 1234 369 1227 360 1221 L 256 1366 C 319 1406 377 1432 430 1443 C 483 1454 536 1460 590 1460 Z" unicode="" />
<glyph horiz-adv-x="1006" d="M 651 1460 L 993 1460 L 989 1440 L 655 1180 L 422 1180 L 424 1200 L 651 1460 Z" unicode="" />
<glyph horiz-adv-x="1290" d="M 713 1434 L 1276 1434 L 995 -168 L 791 -168 L 1040 1249 L 872 1249 L 623 -168 L 418 -168 L 561 647 C 493 647 434 655 382 671 C 330 687 288 710 254 739 C 220 768 195 803 178 844 C 160 884 152 929 152 979 C 152 992 152 1006 154 1021 C 156 1035 158 1050 160 1065 C 172 1135 195 1194 229 1242 C 262 1290 303 1328 351 1356 C 399 1384 454 1404 516 1416 C 578 1428 643 1434 713 1434 Z M 596 848 L 668 1249 C 620 1249 581 1234 551 1204 C 521 1174 499 1127 487 1063 C 485 1050 483 1038 482 1028 C 481 1018 481 1007 481 997 C 481 955 490 921 508 895 C 526 869 556 854 596 848 Z" unicode="" />
<glyph horiz-adv-x="602" d="M 147 891 L 516 891 L 449 504 L 80 504 L 147 891 Z" unicode="" />
<glyph horiz-adv-x="1006" d="M 395 -76 C 429 -82 457 -99 477 -125 C 497 -151 508 -179 508 -209 C 508 -235 501 -258 489 -280 C 477 -301 461 -319 441 -334 C 421 -348 398 -360 373 -368 C 347 -376 321 -381 295 -381 C 256 -381 224 -378 198 -373 C 172 -367 143 -356 109 -340 L 164 -233 C 183 -244 199 -251 212 -255 C 225 -258 239 -260 254 -260 C 274 -260 294 -253 312 -241 C 330 -229 340 -208 340 -178 C 340 -157 331 -141 313 -131 C 295 -120 267 -113 229 -111 L 301 10 L 430 10 L 395 -76 Z" unicode="" />
<glyph horiz-adv-x="831" d="M 553 780 L 705 780 L 674 606 L 137 606 L 168 780 L 328 780 L 401 1196 L 238 1169 L 262 1313 C 316 1336 367 1358 415 1378 C 463 1398 511 1420 559 1446 L 670 1446 L 553 780 Z" unicode="" />
<glyph horiz-adv-x="985" d="M 569 1401 C 623 1401 673 1392 718 1376 C 762 1360 800 1336 832 1306 C 863 1276 887 1239 904 1195 C 921 1151 930 1103 930 1049 C 930 1033 929 1017 928 1001 C 926 984 924 966 922 948 C 910 882 889 824 861 776 C 833 727 799 687 760 655 C 721 623 677 600 629 584 C 580 568 529 561 477 561 C 418 561 366 569 320 587 C 274 605 236 629 206 661 C 175 693 152 731 136 775 C 120 819 113 867 113 920 C 113 936 114 952 116 970 C 118 987 120 1004 123 1022 C 133 1081 151 1134 178 1181 C 205 1228 238 1268 277 1300 C 315 1332 360 1357 410 1375 C 460 1392 513 1401 569 1401 Z M 633 965 C 637 992 641 1018 643 1042 C 645 1066 647 1088 647 1108 C 647 1150 640 1181 628 1202 C 615 1222 595 1233 567 1233 C 525 1233 491 1214 467 1177 C 442 1139 422 1077 408 991 C 402 965 398 941 396 919 C 394 897 393 876 393 858 C 393 815 400 783 414 761 C 428 739 450 729 479 729 C 517 729 548 747 573 785 C 598 822 618 882 633 965 Z" unicode="" />
<glyph horiz-adv-x="1130" d="M 764 981 L 1047 602 L 1028 498 L 612 119 L 463 252 L 803 563 L 571 872 L 764 981 Z M 311 981 L 594 602 L 575 498 L 160 119 L 10 252 L 350 563 L 119 872 L 311 981 Z" unicode="" />
<glyph horiz-adv-x="2011" d="M 1577 1460 L 1767 1460 L 461 -27 L 270 -27 L 1577 1460 Z M 561 780 L 715 780 L 684 606 L 147 606 L 178 780 L 336 780 L 410 1196 L 248 1169 L 272 1313 C 326 1336 377 1358 425 1378 C 473 1398 521 1420 569 1446 L 678 1446 L 561 780 Z M 1647 344 L 1774 344 L 1743 172 L 1616 172 L 1585 0 L 1358 0 L 1389 172 L 1016 172 L 1049 358 L 1507 838 L 1733 838 L 1647 344 Z M 1419 344 L 1468 633 L 1210 344 L 1419 344 Z" unicode="" />
<glyph horiz-adv-x="2011" d="M 1548 1460 L 1739 1460 L 432 -27 L 242 -27 L 1548 1460 Z M 553 780 L 705 780 L 674 606 L 137 606 L 168 780 L 328 780 L 401 1196 L 238 1169 L 262 1313 C 316 1336 367 1358 415 1378 C 463 1398 511 1420 559 1446 L 670 1446 L 553 780 Z M 1569 852 C 1664 852 1739 829 1795 784 C 1850 739 1878 680 1878 608 C 1878 576 1872 548 1862 524 C 1851 500 1837 477 1819 457 C 1801 436 1780 417 1756 399 C 1732 381 1706 362 1679 344 C 1659 330 1637 316 1613 302 C 1589 288 1564 274 1540 261 C 1515 248 1491 236 1467 224 C 1443 212 1421 201 1401 193 L 1806 193 L 1772 0 L 1085 0 L 1112 156 C 1174 198 1229 236 1278 268 C 1327 300 1376 335 1425 371 C 1442 383 1462 398 1485 414 C 1507 430 1529 447 1549 466 C 1569 485 1585 506 1599 528 C 1613 550 1620 574 1620 600 C 1620 623 1612 641 1597 655 C 1581 669 1559 676 1530 676 C 1509 676 1489 673 1469 667 C 1449 661 1430 653 1413 644 C 1395 635 1379 626 1364 616 C 1349 606 1336 598 1325 590 L 1225 743 C 1283 781 1338 809 1390 826 C 1442 843 1501 852 1569 852 Z" unicode="" />
<glyph horiz-adv-x="2011" d="M 1620 1460 L 1810 1460 L 504 -27 L 313 -27 L 1620 1460 Z M 590 1460 C 682 1460 756 1440 812 1402 C 867 1364 895 1315 895 1255 C 895 1227 889 1203 877 1181 C 865 1159 850 1140 831 1124 C 811 1108 789 1094 764 1082 C 739 1070 714 1061 688 1055 C 704 1050 722 1042 742 1031 C 761 1020 779 1006 796 990 C 812 973 826 953 837 930 C 848 907 854 881 854 852 C 854 808 842 769 818 736 C 794 703 763 676 727 655 C 691 633 651 617 607 607 C 563 597 521 592 481 592 C 388 592 311 604 249 629 C 187 654 138 694 102 748 L 285 860 C 306 830 330 806 358 788 C 386 769 423 760 469 760 C 483 760 497 761 513 765 C 528 769 542 775 556 783 C 569 791 580 801 589 814 C 597 827 602 843 602 862 C 602 880 598 894 590 906 C 582 918 571 927 559 934 C 547 940 533 945 517 948 C 501 950 486 952 471 952 L 416 952 L 444 1116 L 496 1116 C 512 1116 528 1117 546 1121 C 564 1124 580 1130 594 1138 C 608 1146 619 1157 629 1171 C 638 1184 643 1201 643 1221 C 643 1242 636 1259 623 1271 C 609 1283 585 1290 551 1290 C 530 1290 510 1287 491 1282 C 471 1277 454 1271 438 1264 C 422 1257 407 1250 394 1242 C 380 1234 369 1227 360 1221 L 256 1366 C 319 1406 377 1432 430 1443 C 483 1454 536 1460 590 1460 Z M 1706 344 L 1833 344 L 1802 172 L 1675 172 L 1645 0 L 1417 0 L 1448 172 L 1075 172 L 1108 358 L 1567 838 L 1792 838 L 1706 344 Z M 1479 344 L 1528 633 L 1270 344 L 1479 344 Z" unicode="" />
<glyph horiz-adv-x="1155" d="M 469 1118 L 838 1118 L 772 743 L 403 743 L 469 1118 Z M 672 88 L 954 0 C 930 -60 898 -111 859 -155 C 820 -199 777 -234 729 -262 C 681 -289 630 -309 576 -322 C 522 -335 468 -342 414 -342 C 344 -342 281 -334 223 -318 C 165 -302 116 -279 76 -251 C 35 -222 3 -188 -18 -149 C -40 -109 -51 -66 -51 -20 C -50 21 -41 59 -24 95 C -7 130 14 163 42 194 C 70 224 101 253 137 280 C 172 306 208 332 244 356 C 276 377 302 396 323 413 C 344 430 361 447 375 464 C 388 481 399 499 407 519 C 415 539 423 562 430 590 L 719 590 C 702 502 676 428 641 367 C 606 305 551 245 477 186 C 463 175 447 163 429 150 C 411 137 395 123 379 107 C 363 91 350 74 339 56 C 328 38 322 18 322 -2 C 320 -34 330 -58 352 -75 C 373 -91 402 -100 440 -100 C 478 -100 519 -84 561 -53 C 603 -22 640 24 672 88 Z" unicode="" />
<glyph horiz-adv-x="1339" d="M 838 1810 L 971 1550 L 969 1530 L 756 1530 L 512 1790 L 516 1810 L 838 1810 Z M 1012 1434 L 1202 0 L 834 0 L 805 297 L 360 297 L 229 0 L -113 0 L 575 1434 L 1012 1434 Z M 487 582 L 778 582 L 727 1116 L 487 582 Z" unicode="" />
<glyph horiz-adv-x="1339" d="M 881 1810 L 1223 1810 L 1219 1790 L 885 1530 L 651 1530 L 653 1550 L 881 1810 Z M 1012 1434 L 1202 0 L 834 0 L 805 297 L 360 297 L 229 0 L -113 0 L 575 1434 L 1012 1434 Z M 487 582 L 778 582 L 727 1116 L 487 582 Z" unicode="" />
<glyph horiz-adv-x="1339" d="M 1014 1810 L 1194 1552 L 1190 1532 L 965 1532 L 831 1675 L 647 1532 L 406 1532 L 410 1552 L 680 1810 L 1014 1810 Z M 1012 1434 L 1202 0 L 834 0 L 805 297 L 360 297 L 229 0 L -113 0 L 575 1434 L 1012 1434 Z M 487 582 L 778 582 L 727 1116 L 487 582 Z" unicode="" />
<glyph horiz-adv-x="1339" d="M 1053 1810 L 1219 1810 C 1196 1718 1163 1650 1120 1604 C 1077 1558 1020 1536 950 1536 C 923 1536 898 1541 876 1552 C 853 1562 832 1574 813 1587 C 793 1599 775 1611 757 1622 C 739 1632 722 1638 705 1638 C 680 1638 659 1629 643 1611 C 626 1593 614 1566 608 1530 L 442 1530 C 462 1620 494 1689 537 1735 C 580 1781 637 1804 709 1804 C 735 1804 760 1798 783 1787 C 806 1776 828 1764 848 1752 C 868 1739 886 1727 904 1716 C 922 1705 939 1700 956 1700 C 982 1700 1003 1710 1019 1731 C 1035 1752 1046 1778 1053 1810 Z M 1012 1434 L 1202 0 L 834 0 L 805 297 L 360 297 L 229 0 L -113 0 L 575 1434 L 1012 1434 Z M 487 582 L 778 582 L 727 1116 L 487 582 Z" unicode="" />
<glyph horiz-adv-x="1339" d="M 936 1794 L 1204 1794 L 1159 1538 L 891 1538 L 936 1794 Z M 502 1794 L 770 1794 L 725 1538 L 457 1538 L 502 1794 Z M 1012 1434 L 1202 0 L 834 0 L 805 297 L 360 297 L 229 0 L -113 0 L 575 1434 L 1012 1434 Z M 487 582 L 778 582 L 727 1116 L 487 582 Z" unicode="" />
<glyph horiz-adv-x="1339" d="M 860 1907 C 896 1907 927 1902 954 1892 C 981 1882 1004 1868 1022 1851 C 1040 1834 1054 1814 1063 1790 C 1072 1766 1077 1741 1077 1714 C 1076 1682 1069 1653 1055 1625 C 1041 1597 1023 1572 1000 1552 C 977 1532 950 1516 919 1504 C 887 1492 854 1487 819 1487 C 749 1487 695 1504 657 1540 C 619 1576 600 1620 600 1673 C 600 1706 608 1737 622 1766 C 636 1794 654 1819 678 1840 C 702 1860 729 1877 761 1889 C 792 1901 825 1907 860 1907 Z M 815 1571 C 834 1571 850 1576 864 1588 C 877 1599 888 1613 896 1630 C 904 1647 910 1666 914 1686 C 918 1706 920 1724 920 1741 C 920 1764 915 1782 906 1796 C 897 1810 881 1817 858 1817 C 838 1817 822 1811 809 1800 C 796 1789 786 1775 778 1759 C 770 1742 765 1724 762 1704 C 759 1684 758 1666 758 1649 C 758 1626 762 1607 770 1593 C 778 1578 793 1571 815 1571 Z M 1012 1434 L 1202 0 L 834 0 L 805 297 L 360 297 L 229 0 L -113 0 L 575 1434 L 1012 1434 Z M 487 582 L 778 582 L 727 1116 L 487 582 Z" unicode="" />
<glyph horiz-adv-x="1872" d="M 666 1434 L 1917 1434 L 1866 1137 L 1270 1137 L 1221 864 L 1593 864 L 1542 565 L 1169 565 L 1122 297 L 1747 297 L 1694 0 L 707 0 L 764 324 L 367 324 L 195 0 L -152 0 L 666 1434 Z M 813 604 L 909 1149 L 819 1149 L 520 604 L 813 604 Z" unicode="" />
<glyph horiz-adv-x="1284" d="M 772 1460 C 852 1460 924 1450 988 1430 C 1052 1410 1106 1380 1150 1340 C 1194 1300 1227 1249 1251 1188 C 1274 1126 1286 1055 1286 973 L 1286 938 L 938 926 C 938 936 939 945 939 955 C 939 965 940 975 940 985 C 940 1044 928 1090 905 1124 C 881 1157 838 1174 774 1174 C 718 1174 671 1159 634 1129 C 596 1099 566 1063 542 1019 C 518 975 500 928 487 876 C 474 824 464 777 457 733 C 450 697 444 661 439 624 C 434 587 432 550 432 514 C 432 480 435 447 441 417 C 447 386 458 359 474 337 C 489 315 510 297 536 284 C 562 270 594 264 633 264 C 671 264 707 271 739 286 C 771 301 799 321 825 345 C 850 369 872 396 892 428 C 911 459 928 491 942 524 L 1221 442 C 1193 376 1160 315 1120 258 C 1080 200 1034 151 984 109 C 933 67 876 33 813 9 C 749 -14 680 -27 606 -27 C 598 -27 589 -26 580 -26 C 571 -25 563 -25 555 -25 L 535 -76 C 566 -82 592 -97 614 -122 C 636 -147 647 -176 647 -209 C 647 -236 640 -260 627 -282 C 614 -303 597 -321 577 -336 C 557 -350 534 -361 509 -369 C 483 -377 458 -381 434 -381 C 396 -381 363 -378 337 -373 C 311 -367 281 -356 248 -340 L 303 -233 C 318 -242 332 -249 346 -253 C 360 -257 375 -260 393 -260 C 417 -260 438 -252 454 -238 C 470 -223 479 -203 479 -178 C 479 -164 475 -152 468 -144 C 460 -136 451 -129 440 -124 C 429 -119 417 -116 404 -114 C 391 -112 379 -111 369 -111 L 432 -4 C 364 14 306 44 258 84 C 210 124 170 170 140 223 C 110 276 88 334 74 397 C 60 460 53 524 53 590 C 53 692 69 795 101 899 C 133 1003 180 1096 241 1179 C 302 1261 377 1329 467 1381 C 556 1433 658 1460 772 1460 Z" unicode="" />
<glyph horiz-adv-x="1186" d="M 760 1810 L 893 1550 L 891 1530 L 678 1530 L 434 1790 L 438 1810 L 760 1810 Z M 260 1434 L 1231 1434 L 1180 1137 L 575 1137 L 526 864 L 903 864 L 852 565 L 475 565 L 428 297 L 1061 297 L 1008 0 L 8 0 L 260 1434 Z" unicode="" />
<glyph horiz-adv-x="1186" d="M 803 1810 L 1145 1810 L 1141 1790 L 807 1530 L 573 1530 L 575 1550 L 803 1810 Z M 260 1434 L 1231 1434 L 1180 1137 L 575 1137 L 526 864 L 903 864 L 852 565 L 475 565 L 428 297 L 1061 297 L 1008 0 L 8 0 L 260 1434 Z" unicode="" />
<glyph horiz-adv-x="1186" d="M 973 1810 L 1153 1552 L 1149 1532 L 924 1532 L 791 1675 L 606 1532 L 365 1532 L 369 1552 L 639 1810 L 973 1810 Z M 260 1434 L 1231 1434 L 1180 1137 L 575 1137 L 526 864 L 903 864 L 852 565 L 475 565 L 428 297 L 1061 297 L 1008 0 L 8 0 L 260 1434 Z" unicode="" />
<glyph horiz-adv-x="1186" d="M 893 1794 L 1161 1794 L 1116 1538 L 848 1538 L 893 1794 Z M 459 1794 L 727 1794 L 682 1538 L 414 1538 L 459 1794 Z M 260 1434 L 1231 1434 L 1180 1137 L 575 1137 L 526 864 L 903 864 L 852 565 L 475 565 L 428 297 L 1061 297 L 1008 0 L 8 0 L 260 1434 Z" unicode="" />
<glyph horiz-adv-x="649" d="M 492 1810 L 625 1550 L 623 1530 L 410 1530 L 166 1790 L 170 1810 L 492 1810 Z M 264 1434 L 639 1434 L 387 0 L 12 0 L 264 1434 Z" unicode="" />
<glyph horiz-adv-x="649" d="M 535 1810 L 877 1810 L 872 1790 L 539 1530 L 305 1530 L 307 1550 L 535 1810 Z M 264 1434 L 639 1434 L 387 0 L 12 0 L 264 1434 Z" unicode="" />
<glyph horiz-adv-x="649" d="M 705 1810 L 885 1552 L 881 1532 L 655 1532 L 522 1675 L 338 1532 L 96 1532 L 100 1552 L 371 1810 L 705 1810 Z M 264 1434 L 639 1434 L 387 0 L 12 0 L 264 1434 Z" unicode="" />
<glyph horiz-adv-x="649" d="M 598 1794 L 866 1794 L 821 1538 L 553 1538 L 598 1794 Z M 164 1794 L 432 1794 L 387 1538 L 119 1538 L 164 1794 Z M 264 1434 L 639 1434 L 387 0 L 12 0 L 264 1434 Z" unicode="" />
<glyph horiz-adv-x="1395" d="M 1090 1810 L 1255 1810 C 1232 1718 1199 1650 1156 1604 C 1113 1558 1057 1536 987 1536 C 960 1536 935 1541 913 1552 C 890 1562 869 1574 849 1587 C 829 1599 811 1611 793 1622 C 775 1632 758 1638 741 1638 C 716 1638 695 1629 679 1611 C 662 1593 651 1566 645 1530 L 479 1530 C 499 1620 531 1689 574 1735 C 616 1781 673 1804 745 1804 C 772 1804 797 1798 820 1787 C 843 1776 865 1764 885 1752 C 905 1739 923 1727 941 1716 C 959 1705 976 1700 993 1700 C 1019 1700 1040 1710 1056 1731 C 1072 1752 1083 1778 1090 1810 Z M 1069 1434 L 1386 1434 L 1135 0 L 844 0 L 485 885 L 330 0 L 8 0 L 260 1434 L 610 1434 L 928 639 L 1069 1434 Z" unicode="" />
<glyph horiz-adv-x="1382" d="M 858 1810 L 991 1550 L 989 1530 L 776 1530 L 532 1790 L 537 1810 L 858 1810 Z M 799 1460 C 894 1460 976 1444 1044 1412 C 1112 1380 1167 1338 1210 1284 C 1253 1230 1285 1166 1305 1094 C 1325 1022 1335 945 1335 864 C 1335 830 1333 796 1330 762 C 1327 728 1323 693 1317 659 C 1299 561 1270 470 1230 386 C 1189 302 1138 229 1077 168 C 1015 107 944 59 862 25 C 780 -9 690 -27 592 -27 C 499 -27 418 -12 350 17 C 282 47 225 88 181 140 C 137 192 104 254 83 326 C 61 398 51 477 51 561 C 51 593 52 627 55 663 C 58 698 63 734 70 770 C 86 862 113 951 153 1035 C 192 1119 242 1192 303 1255 C 364 1317 436 1367 520 1404 C 603 1441 696 1460 799 1460 Z M 926 692 C 932 724 937 761 943 804 C 949 847 952 890 952 932 C 952 963 949 993 944 1023 C 939 1052 930 1078 917 1100 C 904 1122 886 1140 863 1154 C 840 1167 811 1174 776 1174 C 720 1174 674 1159 636 1131 C 598 1102 568 1066 544 1023 C 520 980 501 933 487 881 C 473 829 463 779 455 733 C 449 701 444 665 438 625 C 432 584 430 544 430 504 C 430 472 432 441 438 411 C 443 381 452 354 466 331 C 480 308 498 290 522 276 C 546 262 576 256 612 256 C 667 256 713 270 750 298 C 786 326 816 361 840 404 C 863 446 881 493 894 545 C 907 597 918 646 926 692 Z" unicode="" />
<glyph horiz-adv-x="1382" d="M 889 1810 L 1231 1810 L 1227 1790 L 893 1530 L 659 1530 L 662 1550 L 889 1810 Z M 799 1460 C 894 1460 976 1444 1044 1412 C 1112 1380 1167 1338 1210 1284 C 1253 1230 1285 1166 1305 1094 C 1325 1022 1335 945 1335 864 C 1335 830 1333 796 1330 762 C 1327 728 1323 693 1317 659 C 1299 561 1270 470 1230 386 C 1189 302 1138 229 1077 168 C 1015 107 944 59 862 25 C 780 -9 690 -27 592 -27 C 499 -27 418 -12 350 17 C 282 47 225 88 181 140 C 137 192 104 254 83 326 C 61 398 51 477 51 561 C 51 593 52 627 55 663 C 58 698 63 734 70 770 C 86 862 113 951 153 1035 C 192 1119 242 1192 303 1255 C 364 1317 436 1367 520 1404 C 603 1441 696 1460 799 1460 Z M 926 692 C 932 724 937 761 943 804 C 949 847 952 890 952 932 C 952 963 949 993 944 1023 C 939 1052 930 1078 917 1100 C 904 1122 886 1140 863 1154 C 840 1167 811 1174 776 1174 C 720 1174 674 1159 636 1131 C 598 1102 568 1066 544 1023 C 520 980 501 933 487 881 C 473 829 463 779 455 733 C 449 701 444 665 438 625 C 432 584 430 544 430 504 C 430 472 432 441 438 411 C 443 381 452 354 466 331 C 480 308 498 290 522 276 C 546 262 576 256 612 256 C 667 256 713 270 750 298 C 786 326 816 361 840 404 C 863 446 881 493 894 545 C 907 597 918 646 926 692 Z" unicode="" />
<glyph horiz-adv-x="1382" d="M 1030 1810 L 1210 1552 L 1206 1532 L 981 1532 L 848 1675 L 664 1532 L 422 1532 L 426 1552 L 696 1810 L 1030 1810 Z M 799 1460 C 894 1460 976 1444 1044 1412 C 1112 1380 1167 1338 1210 1284 C 1253 1230 1285 1166 1305 1094 C 1325 1022 1335 945 1335 864 C 1335 830 1333 796 1330 762 C 1327 728 1323 693 1317 659 C 1299 561 1270 470 1230 386 C 1189 302 1138 229 1077 168 C 1015 107 944 59 862 25 C 780 -9 690 -27 592 -27 C 499 -27 418 -12 350 17 C 282 47 225 88 181 140 C 137 192 104 254 83 326 C 61 398 51 477 51 561 C 51 593 52 627 55 663 C 58 698 63 734 70 770 C 86 862 113 951 153 1035 C 192 1119 242 1192 303 1255 C 364 1317 436 1367 520 1404 C 603 1441 696 1460 799 1460 Z M 926 692 C 932 724 937 761 943 804 C 949 847 952 890 952 932 C 952 963 949 993 944 1023 C 939 1052 930 1078 917 1100 C 904 1122 886 1140 863 1154 C 840 1167 811 1174 776 1174 C 720 1174 674 1159 636 1131 C 598 1102 568 1066 544 1023 C 520 980 501 933 487 881 C 473 829 463 779 455 733 C 449 701 444 665 438 625 C 432 584 430 544 430 504 C 430 472 432 441 438 411 C 443 381 452 354 466 331 C 480 308 498 290 522 276 C 546 262 576 256 612 256 C 667 256 713 270 750 298 C 786 326 816 361 840 404 C 863 446 881 493 894 545 C 907 597 918 646 926 692 Z" unicode="" />
<glyph horiz-adv-x="1382" d="M 1069 1810 L 1235 1810 C 1212 1718 1179 1650 1136 1604 C 1093 1558 1037 1536 967 1536 C 939 1536 914 1541 892 1552 C 870 1562 849 1574 829 1587 C 809 1599 791 1611 773 1622 C 755 1632 738 1638 721 1638 C 696 1638 675 1629 659 1611 C 642 1593 631 1566 625 1530 L 459 1530 C 479 1620 511 1689 554 1735 C 596 1781 653 1804 725 1804 C 752 1804 777 1798 800 1787 C 823 1776 844 1764 864 1752 C 884 1739 903 1727 921 1716 C 939 1705 956 1700 973 1700 C 999 1700 1020 1710 1036 1731 C 1052 1752 1063 1778 1069 1810 Z M 799 1460 C 894 1460 976 1444 1044 1412 C 1112 1380 1167 1338 1210 1284 C 1253 1230 1285 1166 1305 1094 C 1325 1022 1335 945 1335 864 C 1335 830 1333 796 1330 762 C 1327 728 1323 693 1317 659 C 1299 561 1270 470 1230 386 C 1189 302 1138 229 1077 168 C 1015 107 944 59 862 25 C 780 -9 690 -27 592 -27 C 499 -27 418 -12 350 17 C 282 47 225 88 181 140 C 137 192 104 254 83 326 C 61 398 51 477 51 561 C 51 593 52 627 55 663 C 58 698 63 734 70 770 C 86 862 113 951 153 1035 C 192 1119 242 1192 303 1255 C 364 1317 436 1367 520 1404 C 603 1441 696 1460 799 1460 Z M 926 692 C 932 724 937 761 943 804 C 949 847 952 890 952 932 C 952 963 949 993 944 1023 C 939 1052 930 1078 917 1100 C 904 1122 886 1140 863 1154 C 840 1167 811 1174 776 1174 C 720 1174 674 1159 636 1131 C 598 1102 568 1066 544 1023 C 520 980 501 933 487 881 C 473 829 463 779 455 733 C 449 701 444 665 438 625 C 432 584 430 544 430 504 C 430 472 432 441 438 411 C 443 381 452 354 466 331 C 480 308 498 290 522 276 C 546 262 576 256 612 256 C 667 256 713 270 750 298 C 786 326 816 361 840 404 C 863 446 881 493 894 545 C 907 597 918 646 926 692 Z" unicode="" />
<glyph horiz-adv-x="1382" d="M 954 1794 L 1223 1794 L 1178 1538 L 909 1538 L 954 1794 Z M 520 1794 L 788 1794 L 743 1538 L 475 1538 L 520 1794 Z M 799 1460 C 894 1460 976 1444 1044 1412 C 1112 1380 1167 1338 1210 1284 C 1253 1230 1285 1166 1305 1094 C 1325 1022 1335 945 1335 864 C 1335 830 1333 796 1330 762 C 1327 728 1323 693 1317 659 C 1299 561 1270 470 1230 386 C 1189 302 1138 229 1077 168 C 1015 107 944 59 862 25 C 780 -9 690 -27 592 -27 C 499 -27 418 -12 350 17 C 282 47 225 88 181 140 C 137 192 104 254 83 326 C 61 398 51 477 51 561 C 51 593 52 627 55 663 C 58 698 63 734 70 770 C 86 862 113 951 153 1035 C 192 1119 242 1192 303 1255 C 364 1317 436 1367 520 1404 C 603 1441 696 1460 799 1460 Z M 926 692 C 932 724 937 761 943 804 C 949 847 952 890 952 932 C 952 963 949 993 944 1023 C 939 1052 930 1078 917 1100 C 904 1122 886 1140 863 1154 C 840 1167 811 1174 776 1174 C 720 1174 674 1159 636 1131 C 598 1102 568 1066 544 1023 C 520 980 501 933 487 881 C 473 829 463 779 455 733 C 449 701 444 665 438 625 C 432 584 430 544 430 504 C 430 472 432 441 438 411 C 443 381 452 354 466 331 C 480 308 498 290 522 276 C 546 262 576 256 612 256 C 667 256 713 270 750 298 C 786 326 816 361 840 404 C 863 446 881 493 894 545 C 907 597 918 646 926 692 Z" unicode="" />
<glyph horiz-adv-x="1245" d="M 778 584 L 1126 233 L 967 74 L 616 420 L 266 74 L 106 233 L 455 584 L 106 932 L 266 1090 L 616 741 L 967 1090 L 1126 932 L 778 584 Z" unicode="" />
<glyph horiz-adv-x="1380" d="M 885 1810 L 1018 1550 L 1016 1530 L 803 1530 L 559 1790 L 563 1810 L 885 1810 Z M 1057 1434 L 1382 1434 L 1227 557 C 1212 474 1190 397 1160 325 C 1130 253 1092 192 1045 140 C 997 88 940 48 872 18 C 804 -12 724 -27 633 -27 C 557 -27 486 -19 420 -3 C 353 12 295 37 246 72 C 196 107 157 154 129 212 C 100 270 86 340 86 424 C 86 448 87 472 90 496 C 92 520 96 544 100 569 L 252 1434 L 625 1434 L 471 563 C 468 545 466 528 464 511 C 462 493 461 476 461 459 C 461 399 475 353 505 322 C 534 291 579 276 641 276 C 685 276 722 284 753 300 C 783 316 809 337 829 364 C 849 390 865 421 877 456 C 889 491 898 527 905 565 L 1057 1434 Z" unicode="" />
<glyph horiz-adv-x="1380" d="M 930 1810 L 1272 1810 L 1268 1790 L 934 1530 L 700 1530 L 702 1550 L 930 1810 Z M 1057 1434 L 1382 1434 L 1227 557 C 1212 474 1190 397 1160 325 C 1130 253 1092 192 1045 140 C 997 88 940 48 872 18 C 804 -12 724 -27 633 -27 C 557 -27 486 -19 420 -3 C 353 12 295 37 246 72 C 196 107 157 154 129 212 C 100 270 86 340 86 424 C 86 448 87 472 90 496 C 92 520 96 544 100 569 L 252 1434 L 625 1434 L 471 563 C 468 545 466 528 464 511 C 462 493 461 476 461 459 C 461 399 475 353 505 322 C 534 291 579 276 641 276 C 685 276 722 284 753 300 C 783 316 809 337 829 364 C 849 390 865 421 877 456 C 889 491 898 527 905 565 L 1057 1434 Z" unicode="" />
<glyph horiz-adv-x="1380" d="M 1065 1810 L 1245 1552 L 1241 1532 L 1016 1532 L 883 1675 L 698 1532 L 457 1532 L 461 1552 L 731 1810 L 1065 1810 Z M 1057 1434 L 1382 1434 L 1227 557 C 1212 474 1190 397 1160 325 C 1130 253 1092 192 1045 140 C 997 88 940 48 872 18 C 804 -12 724 -27 633 -27 C 557 -27 486 -19 420 -3 C 353 12 295 37 246 72 C 196 107 157 154 129 212 C 100 270 86 340 86 424 C 86 448 87 472 90 496 C 92 520 96 544 100 569 L 252 1434 L 625 1434 L 471 563 C 468 545 466 528 464 511 C 462 493 461 476 461 459 C 461 399 475 353 505 322 C 534 291 579 276 641 276 C 685 276 722 284 753 300 C 783 316 809 337 829 364 C 849 390 865 421 877 456 C 889 491 898 527 905 565 L 1057 1434 Z" unicode="" />
<glyph horiz-adv-x="1380" d="M 965 1794 L 1233 1794 L 1188 1538 L 920 1538 L 965 1794 Z M 530 1794 L 799 1794 L 754 1538 L 485 1538 L 530 1794 Z M 1057 1434 L 1382 1434 L 1227 557 C 1212 474 1190 397 1160 325 C 1130 253 1092 192 1045 140 C 997 88 940 48 872 18 C 804 -12 724 -27 633 -27 C 557 -27 486 -19 420 -3 C 353 12 295 37 246 72 C 196 107 157 154 129 212 C 100 270 86 340 86 424 C 86 448 87 472 90 496 C 92 520 96 544 100 569 L 252 1434 L 625 1434 L 471 563 C 468 545 466 528 464 511 C 462 493 461 476 461 459 C 461 399 475 353 505 322 C 534 291 579 276 641 276 C 685 276 722 284 753 300 C 783 316 809 337 829 364 C 849 390 865 421 877 456 C 889 491 898 527 905 565 L 1057 1434 Z" unicode="" />
<glyph horiz-adv-x="1296" d="M 879 1810 L 1221 1810 L 1217 1790 L 883 1530 L 649 1530 L 651 1550 L 879 1810 Z M 1055 1434 L 1419 1434 L 838 653 L 723 0 L 350 0 L 457 604 L 129 1434 L 528 1434 L 698 922 L 1055 1434 Z" unicode="" />
<glyph horiz-adv-x="1223" d="M 874 836 C 953 810 1016 767 1063 708 C 1109 648 1133 576 1133 492 C 1133 410 1117 338 1085 274 C 1053 210 1011 157 958 114 C 905 70 844 37 774 14 C 704 -8 631 -20 555 -20 C 535 -20 516 -19 496 -17 C 476 -15 456 -14 438 -12 L 504 219 C 514 217 523 215 533 214 C 543 213 553 213 563 213 C 600 213 632 223 658 244 C 684 265 705 291 721 323 C 737 354 748 388 755 424 C 762 460 766 494 766 524 C 766 560 761 589 751 612 C 741 635 726 653 708 667 C 689 680 666 689 640 694 C 613 699 583 702 551 702 L 596 926 C 655 926 699 944 728 981 C 757 1017 772 1064 772 1120 C 772 1150 763 1175 747 1197 C 731 1218 707 1229 676 1229 C 650 1229 628 1221 610 1207 C 592 1192 577 1174 566 1152 C 554 1130 545 1107 539 1083 C 533 1058 528 1036 524 1016 L 350 0 L -4 0 L 166 981 C 178 1053 199 1117 229 1175 C 259 1232 298 1280 344 1320 C 390 1360 444 1390 506 1412 C 567 1433 635 1444 709 1444 C 753 1444 799 1438 848 1428 C 897 1417 942 1400 983 1377 C 1024 1353 1058 1323 1085 1285 C 1112 1247 1126 1202 1126 1149 C 1126 1111 1119 1075 1105 1043 C 1091 1010 1073 981 1050 955 C 1027 929 1000 906 970 886 C 939 866 907 849 874 836 Z" unicode="" />
<glyph horiz-adv-x="1112" d="M 662 1460 L 795 1200 L 793 1180 L 580 1180 L 336 1440 L 340 1460 L 662 1460 Z M 575 1063 C 621 1063 670 1060 722 1055 C 774 1050 821 1038 864 1020 C 907 1002 943 975 971 940 C 999 904 1014 857 1014 797 C 1014 784 1013 771 1012 758 C 1011 745 1010 733 1008 721 L 920 215 C 916 194 913 173 911 153 C 908 133 907 112 907 92 C 907 80 907 67 909 55 C 910 43 912 30 915 18 L 911 0 L 559 0 L 559 106 C 537 90 514 75 488 61 C 462 46 435 33 407 21 C 379 9 351 0 323 -7 C 294 -14 266 -18 240 -18 C 201 -18 165 -12 132 0 C 99 11 71 28 48 50 C 24 72 6 98 -7 130 C -20 162 -27 198 -27 238 C -27 327 -4 398 40 451 C 85 504 141 545 208 573 C 274 601 347 619 427 629 C 506 639 579 645 647 649 C 649 666 652 683 656 701 C 660 719 662 736 662 754 C 662 784 654 808 638 824 C 622 840 599 848 567 848 C 521 848 484 834 458 807 C 432 780 411 747 397 707 L 98 788 C 149 886 214 956 294 999 C 373 1041 467 1063 575 1063 Z M 580 252 L 618 479 C 586 479 553 476 520 470 C 487 464 457 453 431 438 C 405 423 383 403 367 377 C 350 351 342 319 342 281 C 342 256 348 236 362 220 C 375 204 394 197 420 197 C 453 197 481 202 503 212 C 525 222 551 235 580 252 Z" unicode="" />
<glyph horiz-adv-x="1112" d="M 705 1460 L 1047 1460 L 1042 1440 L 709 1180 L 475 1180 L 477 1200 L 705 1460 Z M 575 1063 C 621 1063 670 1060 722 1055 C 774 1050 821 1038 864 1020 C 907 1002 943 975 971 940 C 999 904 1014 857 1014 797 C 1014 784 1013 771 1012 758 C 1011 745 1010 733 1008 721 L 920 215 C 916 194 913 173 911 153 C 908 133 907 112 907 92 C 907 80 907 67 909 55 C 910 43 912 30 915 18 L 911 0 L 559 0 L 559 106 C 537 90 514 75 488 61 C 462 46 435 33 407 21 C 379 9 351 0 323 -7 C 294 -14 266 -18 240 -18 C 201 -18 165 -12 132 0 C 99 11 71 28 48 50 C 24 72 6 98 -7 130 C -20 162 -27 198 -27 238 C -27 327 -4 398 40 451 C 85 504 141 545 208 573 C 274 601 347 619 427 629 C 506 639 579 645 647 649 C 649 666 652 683 656 701 C 660 719 662 736 662 754 C 662 784 654 808 638 824 C 622 840 599 848 567 848 C 521 848 484 834 458 807 C 432 780 411 747 397 707 L 98 788 C 149 886 214 956 294 999 C 373 1041 467 1063 575 1063 Z M 580 252 L 618 479 C 586 479 553 476 520 470 C 487 464 457 453 431 438 C 405 423 383 403 367 377 C 350 351 342 319 342 281 C 342 256 348 236 362 220 C 375 204 394 197 420 197 C 453 197 481 202 503 212 C 525 222 551 235 580 252 Z" unicode="" />
<glyph horiz-adv-x="1112" d="M 821 1460 L 1001 1202 L 997 1182 L 772 1182 L 639 1325 L 455 1182 L 213 1182 L 217 1202 L 487 1460 L 821 1460 Z M 575 1063 C 621 1063 670 1060 722 1055 C 774 1050 821 1038 864 1020 C 907 1002 943 975 971 940 C 999 904 1014 857 1014 797 C 1014 784 1013 771 1012 758 C 1011 745 1010 733 1008 721 L 920 215 C 916 194 913 173 911 153 C 908 133 907 112 907 92 C 907 80 907 67 909 55 C 910 43 912 30 915 18 L 911 0 L 559 0 L 559 106 C 537 90 514 75 488 61 C 462 46 435 33 407 21 C 379 9 351 0 323 -7 C 294 -14 266 -18 240 -18 C 201 -18 165 -12 132 0 C 99 11 71 28 48 50 C 24 72 6 98 -7 130 C -20 162 -27 198 -27 238 C -27 327 -4 398 40 451 C 85 504 141 545 208 573 C 274 601 347 619 427 629 C 506 639 579 645 647 649 C 649 666 652 683 656 701 C 660 719 662 736 662 754 C 662 784 654 808 638 824 C 622 840 599 848 567 848 C 521 848 484 834 458 807 C 432 780 411 747 397 707 L 98 788 C 149 886 214 956 294 999 C 373 1041 467 1063 575 1063 Z M 580 252 L 618 479 C 586 479 553 476 520 470 C 487 464 457 453 431 438 C 405 423 383 403 367 377 C 350 351 342 319 342 281 C 342 256 348 236 362 220 C 375 204 394 197 420 197 C 453 197 481 202 503 212 C 525 222 551 235 580 252 Z" unicode="" />
<glyph horiz-adv-x="1112" d="M 852 1460 L 1018 1460 C 995 1368 962 1300 919 1254 C 876 1208 820 1186 750 1186 C 722 1186 697 1191 675 1202 C 652 1212 631 1224 612 1237 C 592 1249 574 1261 556 1272 C 538 1282 521 1288 504 1288 C 479 1288 458 1278 442 1260 C 425 1242 414 1215 408 1180 L 242 1180 C 262 1270 294 1339 337 1385 C 379 1431 436 1454 508 1454 C 534 1454 559 1448 582 1437 C 605 1426 627 1414 647 1402 C 667 1389 686 1377 704 1366 C 722 1355 739 1350 756 1350 C 782 1350 803 1360 819 1381 C 835 1402 846 1428 852 1460 Z M 575 1063 C 621 1063 670 1060 722 1055 C 774 1050 821 1038 864 1020 C 907 1002 943 975 971 940 C 999 904 1014 857 1014 797 C 1014 784 1013 771 1012 758 C 1011 745 1010 733 1008 721 L 920 215 C 916 194 913 173 911 153 C 908 133 907 112 907 92 C 907 80 907 67 909 55 C 910 43 912 30 915 18 L 911 0 L 559 0 L 559 106 C 537 90 514 75 488 61 C 462 46 435 33 407 21 C 379 9 351 0 323 -7 C 294 -14 266 -18 240 -18 C 201 -18 165 -12 132 0 C 99 11 71 28 48 50 C 24 72 6 98 -7 130 C -20 162 -27 198 -27 238 C -27 327 -4 398 40 451 C 85 504 141 545 208 573 C 274 601 347 619 427 629 C 506 639 579 645 647 649 C 649 666 652 683 656 701 C 660 719 662 736 662 754 C 662 784 654 808 638 824 C 622 840 599 848 567 848 C 521 848 484 834 458 807 C 432 780 411 747 397 707 L 98 788 C 149 886 214 956 294 999 C 373 1041 467 1063 575 1063 Z M 580 252 L 618 479 C 586 479 553 476 520 470 C 487 464 457 453 431 438 C 405 423 383 403 367 377 C 350 351 342 319 342 281 C 342 256 348 236 362 220 C 375 204 394 197 420 197 C 453 197 481 202 503 212 C 525 222 551 235 580 252 Z" unicode="" />
<glyph horiz-adv-x="1112" d="M 733 1444 L 1001 1444 L 956 1188 L 688 1188 L 733 1444 Z M 299 1444 L 567 1444 L 522 1188 L 254 1188 L 299 1444 Z M 575 1063 C 621 1063 670 1060 722 1055 C 774 1050 821 1038 864 1020 C 907 1002 943 975 971 940 C 999 904 1014 857 1014 797 C 1014 784 1013 771 1012 758 C 1011 745 1010 733 1008 721 L 920 215 C 916 194 913 173 911 153 C 908 133 907 112 907 92 C 907 80 907 67 909 55 C 910 43 912 30 915 18 L 911 0 L 559 0 L 559 106 C 537 90 514 75 488 61 C 462 46 435 33 407 21 C 379 9 351 0 323 -7 C 294 -14 266 -18 240 -18 C 201 -18 165 -12 132 0 C 99 11 71 28 48 50 C 24 72 6 98 -7 130 C -20 162 -27 198 -27 238 C -27 327 -4 398 40 451 C 85 504 141 545 208 573 C 274 601 347 619 427 629 C 506 639 579 645 647 649 C 649 666 652 683 656 701 C 660 719 662 736 662 754 C 662 784 654 808 638 824 C 622 840 599 848 567 848 C 521 848 484 834 458 807 C 432 780 411 747 397 707 L 98 788 C 149 886 214 956 294 999 C 373 1041 467 1063 575 1063 Z M 580 252 L 618 479 C 586 479 553 476 520 470 C 487 464 457 453 431 438 C 405 423 383 403 367 377 C 350 351 342 319 342 281 C 342 256 348 236 362 220 C 375 204 394 197 420 197 C 453 197 481 202 503 212 C 525 222 551 235 580 252 Z" unicode="" />
<glyph horiz-adv-x="1112" d="M 678 1556 C 749 1556 803 1537 840 1500 C 876 1463 895 1418 895 1364 C 894 1332 887 1303 873 1275 C 859 1247 841 1222 818 1202 C 794 1182 767 1166 736 1154 C 705 1142 672 1137 637 1137 C 567 1137 513 1154 475 1190 C 437 1226 418 1270 418 1323 C 418 1356 426 1387 440 1415 C 454 1443 472 1468 496 1489 C 520 1509 547 1526 579 1538 C 610 1550 643 1556 678 1556 Z M 633 1221 C 652 1221 668 1226 682 1238 C 695 1249 706 1263 714 1280 C 722 1297 727 1316 731 1336 C 735 1356 737 1374 737 1391 C 737 1414 732 1432 724 1446 C 715 1459 699 1466 676 1466 C 656 1466 640 1460 627 1449 C 614 1438 604 1424 596 1408 C 588 1391 583 1373 580 1353 C 576 1333 575 1315 575 1298 C 575 1275 579 1256 588 1242 C 596 1228 611 1221 633 1221 Z M 575 1063 C 621 1063 670 1060 722 1055 C 774 1050 821 1038 864 1020 C 907 1002 943 975 971 940 C 999 904 1014 857 1014 797 C 1014 784 1013 771 1012 758 C 1011 745 1010 733 1008 721 L 920 215 C 916 194 913 173 911 153 C 908 133 907 112 907 92 C 907 80 907 67 909 55 C 910 43 912 30 915 18 L 911 0 L 559 0 L 559 106 C 537 90 514 75 488 61 C 462 46 435 33 407 21 C 379 9 351 0 323 -7 C 294 -14 266 -18 240 -18 C 201 -18 165 -12 132 0 C 99 11 71 28 48 50 C 24 72 6 98 -7 130 C -20 162 -27 198 -27 238 C -27 327 -4 398 40 451 C 85 504 141 545 208 573 C 274 601 347 619 427 629 C 506 639 579 645 647 649 C 649 666 652 683 656 701 C 660 719 662 736 662 754 C 662 784 654 808 638 824 C 622 840 599 848 567 848 C 521 848 484 834 458 807 C 432 780 411 747 397 707 L 98 788 C 149 886 214 956 294 999 C 373 1041 467 1063 575 1063 Z M 580 252 L 618 479 C 586 479 553 476 520 470 C 487 464 457 453 431 438 C 405 423 383 403 367 377 C 350 351 342 319 342 281 C 342 256 348 236 362 220 C 375 204 394 197 420 197 C 453 197 481 202 503 212 C 525 222 551 235 580 252 Z" unicode="" />
<glyph horiz-adv-x="1673" d="M 1169 1063 C 1238 1063 1300 1053 1354 1034 C 1408 1015 1454 988 1491 953 C 1527 918 1555 875 1575 825 C 1594 774 1604 717 1604 655 C 1604 645 1603 634 1603 623 C 1602 611 1601 598 1599 583 C 1597 568 1594 550 1591 530 C 1587 509 1583 484 1579 455 L 942 455 C 941 444 940 434 940 425 C 940 416 940 407 940 399 C 940 321 953 268 980 240 C 1007 211 1043 197 1087 197 C 1138 197 1182 208 1220 231 C 1258 254 1299 293 1343 348 L 1540 238 C 1468 146 1392 81 1312 41 C 1232 1 1149 -18 1063 -18 C 971 -18 894 -2 830 30 C 766 62 716 102 680 152 C 645 127 612 104 582 83 C 552 62 520 44 488 29 C 455 14 419 2 381 -5 C 343 -13 298 -18 248 -18 C 209 -18 173 -12 139 0 C 105 11 76 28 52 50 C 27 72 8 98 -6 130 C -20 162 -27 198 -27 238 C -27 327 -4 398 39 451 C 83 504 139 545 206 573 C 272 601 345 619 424 629 C 502 639 575 645 643 649 C 645 666 648 683 652 701 C 655 719 657 736 657 754 C 657 784 649 808 634 824 C 618 840 595 848 563 848 C 517 848 481 834 455 807 C 429 780 409 747 395 707 L 96 788 C 147 886 212 956 291 999 C 369 1041 463 1063 571 1063 C 598 1063 626 1061 656 1059 C 686 1056 715 1052 744 1046 C 772 1040 800 1031 827 1021 C 853 1011 878 998 901 983 C 941 1007 985 1027 1031 1041 C 1077 1055 1123 1063 1169 1063 Z M 1276 639 C 1278 654 1280 669 1282 683 C 1283 697 1284 711 1284 725 C 1284 763 1276 793 1260 816 C 1244 838 1215 850 1174 850 C 1118 850 1076 833 1046 800 C 1016 766 991 713 973 639 L 1276 639 Z M 596 264 L 614 479 C 582 479 549 476 517 470 C 484 464 455 453 429 438 C 403 423 382 403 366 377 C 350 351 342 319 342 281 C 342 256 349 236 363 220 C 377 204 399 197 430 197 C 464 197 493 203 518 216 C 542 228 568 244 596 264 Z" unicode="" />
<glyph horiz-adv-x="1034" d="M 567 1063 C 645 1063 711 1053 767 1034 C 822 1015 866 989 900 955 C 934 921 958 880 973 832 C 987 784 993 732 991 676 L 682 684 C 682 739 676 780 663 807 C 650 834 626 848 590 848 C 540 848 500 824 470 778 C 440 732 416 660 399 563 C 393 526 388 492 384 460 C 380 428 379 399 379 373 C 379 315 387 272 405 242 C 422 212 449 197 485 197 C 531 197 572 213 608 247 C 644 280 679 331 713 399 L 938 322 C 919 268 893 219 859 177 C 825 134 787 98 745 70 C 703 41 657 19 607 4 C 557 -10 506 -18 455 -18 L 432 -18 L 410 -76 C 444 -82 471 -99 491 -125 C 511 -151 522 -179 522 -209 C 522 -235 515 -258 503 -280 C 491 -301 475 -319 455 -334 C 435 -348 413 -360 387 -368 C 361 -376 335 -381 309 -381 C 270 -381 238 -378 213 -373 C 187 -367 157 -356 123 -340 L 178 -233 C 197 -244 213 -251 227 -255 C 240 -258 254 -260 268 -260 C 288 -260 308 -253 326 -241 C 344 -229 354 -208 354 -178 C 354 -157 345 -141 328 -131 C 310 -120 282 -113 244 -111 L 309 2 C 261 16 219 37 183 66 C 146 94 115 128 90 168 C 65 207 46 251 33 299 C 20 347 14 398 14 451 C 14 469 15 488 17 508 C 19 528 21 548 25 569 C 39 649 63 720 98 782 C 132 844 174 895 222 937 C 270 978 323 1009 383 1031 C 442 1052 503 1063 567 1063 Z" unicode="" />
<glyph horiz-adv-x="1092" d="M 668 1460 L 801 1200 L 799 1180 L 586 1180 L 342 1440 L 346 1460 L 668 1460 Z M 586 1063 C 655 1063 717 1053 771 1034 C 825 1015 871 988 908 953 C 945 918 973 875 993 825 C 1012 774 1022 717 1022 655 C 1022 645 1021 634 1021 623 C 1020 611 1019 598 1017 583 C 1015 568 1013 550 1010 530 C 1006 509 1002 484 997 455 L 356 455 C 355 444 354 434 354 425 C 354 416 354 407 354 399 C 354 321 368 268 396 240 C 424 211 460 197 504 197 C 554 197 599 208 638 231 C 676 254 718 293 762 348 L 958 238 C 886 146 809 81 729 41 C 649 1 565 -18 479 -18 C 401 -18 333 -6 275 17 C 216 40 167 72 129 112 C 90 152 61 201 41 257 C 21 313 12 373 12 438 C 12 457 12 477 14 498 C 15 518 18 539 23 561 C 37 639 62 710 99 772 C 135 834 179 887 230 930 C 280 973 336 1006 398 1029 C 459 1051 522 1063 586 1063 Z M 694 639 C 696 654 698 669 700 683 C 701 697 702 711 702 725 C 702 763 693 793 677 816 C 661 838 632 850 590 850 C 534 850 491 833 461 800 C 430 766 405 713 387 639 L 694 639 Z" unicode="" />
<glyph horiz-adv-x="1092" d="M 694 1460 L 1036 1460 L 1032 1440 L 698 1180 L 465 1180 L 467 1200 L 694 1460 Z M 586 1063 C 655 1063 717 1053 771 1034 C 825 1015 871 988 908 953 C 945 918 973 875 993 825 C 1012 774 1022 717 1022 655 C 1022 645 1021 634 1021 623 C 1020 611 1019 598 1017 583 C 1015 568 1013 550 1010 530 C 1006 509 1002 484 997 455 L 356 455 C 355 444 354 434 354 425 C 354 416 354 407 354 399 C 354 321 368 268 396 240 C 424 211 460 197 504 197 C 554 197 599 208 638 231 C 676 254 718 293 762 348 L 958 238 C 886 146 809 81 729 41 C 649 1 565 -18 479 -18 C 401 -18 333 -6 275 17 C 216 40 167 72 129 112 C 90 152 61 201 41 257 C 21 313 12 373 12 438 C 12 457 12 477 14 498 C 15 518 18 539 23 561 C 37 639 62 710 99 772 C 135 834 179 887 230 930 C 280 973 336 1006 398 1029 C 459 1051 522 1063 586 1063 Z M 694 639 C 696 654 698 669 700 683 C 701 697 702 711 702 725 C 702 763 693 793 677 816 C 661 838 632 850 590 850 C 534 850 491 833 461 800 C 430 766 405 713 387 639 L 694 639 Z" unicode="" />
<glyph horiz-adv-x="1092" d="M 829 1460 L 1010 1202 L 1006 1182 L 780 1182 L 647 1325 L 463 1182 L 221 1182 L 225 1202 L 496 1460 L 829 1460 Z M 586 1063 C 655 1063 717 1053 771 1034 C 825 1015 871 988 908 953 C 945 918 973 875 993 825 C 1012 774 1022 717 1022 655 C 1022 645 1021 634 1021 623 C 1020 611 1019 598 1017 583 C 1015 568 1013 550 1010 530 C 1006 509 1002 484 997 455 L 356 455 C 355 444 354 434 354 425 C 354 416 354 407 354 399 C 354 321 368 268 396 240 C 424 211 460 197 504 197 C 554 197 599 208 638 231 C 676 254 718 293 762 348 L 958 238 C 886 146 809 81 729 41 C 649 1 565 -18 479 -18 C 401 -18 333 -6 275 17 C 216 40 167 72 129 112 C 90 152 61 201 41 257 C 21 313 12 373 12 438 C 12 457 12 477 14 498 C 15 518 18 539 23 561 C 37 639 62 710 99 772 C 135 834 179 887 230 930 C 280 973 336 1006 398 1029 C 459 1051 522 1063 586 1063 Z M 694 639 C 696 654 698 669 700 683 C 701 697 702 711 702 725 C 702 763 693 793 677 816 C 661 838 632 850 590 850 C 534 850 491 833 461 800 C 430 766 405 713 387 639 L 694 639 Z" unicode="" />
<glyph horiz-adv-x="1092" d="M 750 1444 L 1018 1444 L 973 1188 L 705 1188 L 750 1444 Z M 315 1444 L 584 1444 L 539 1188 L 270 1188 L 315 1444 Z M 586 1063 C 655 1063 717 1053 771 1034 C 825 1015 871 988 908 953 C 945 918 973 875 993 825 C 1012 774 1022 717 1022 655 C 1022 645 1021 634 1021 623 C 1020 611 1019 598 1017 583 C 1015 568 1013 550 1010 530 C 1006 509 1002 484 997 455 L 356 455 C 355 444 354 434 354 425 C 354 416 354 407 354 399 C 354 321 368 268 396 240 C 424 211 460 197 504 197 C 554 197 599 208 638 231 C 676 254 718 293 762 348 L 958 238 C 886 146 809 81 729 41 C 649 1 565 -18 479 -18 C 401 -18 333 -6 275 17 C 216 40 167 72 129 112 C 90 152 61 201 41 257 C 21 313 12 373 12 438 C 12 457 12 477 14 498 C 15 518 18 539 23 561 C 37 639 62 710 99 772 C 135 834 179 887 230 930 C 280 973 336 1006 398 1029 C 459 1051 522 1063 586 1063 Z M 694 639 C 696 654 698 669 700 683 C 701 697 702 711 702 725 C 702 763 693 793 677 816 C 661 838 632 850 590 850 C 534 850 491 833 461 800 C 430 766 405 713 387 639 L 694 639 Z" unicode="" />
<glyph horiz-adv-x="596" d="M 403 1460 L 537 1200 L 535 1180 L 322 1180 L 78 1440 L 82 1460 L 403 1460 Z M 178 1036 L 530 1036 L 348 0 L -4 0 L 178 1036 Z" unicode="" />
<glyph horiz-adv-x="596" d="M 446 1460 L 788 1460 L 784 1440 L 451 1180 L 217 1180 L 219 1200 L 446 1460 Z M 178 1036 L 530 1036 L 348 0 L -4 0 L 178 1036 Z" unicode="" />
<glyph horiz-adv-x="600" d="M 598 1460 L 778 1202 L 774 1182 L 549 1182 L 416 1325 L 231 1182 L -10 1182 L -6 1202 L 264 1460 L 598 1460 Z M 180 1036 L 532 1036 L 350 0 L -2 0 L 180 1036 Z" unicode="" />
<glyph horiz-adv-x="600" d="M 504 1444 L 772 1444 L 727 1188 L 459 1188 L 504 1444 Z M 70 1444 L 338 1444 L 293 1188 L 25 1188 L 70 1444 Z M 180 1036 L 532 1036 L 350 0 L -2 0 L 180 1036 Z" unicode="" />
<glyph horiz-adv-x="1165" d="M 913 1460 L 1079 1460 C 1056 1368 1023 1300 980 1254 C 937 1208 881 1186 811 1186 C 783 1186 758 1191 736 1202 C 714 1212 693 1224 673 1237 C 653 1249 635 1261 617 1272 C 599 1282 582 1288 565 1288 C 540 1288 519 1278 503 1260 C 486 1242 475 1215 469 1180 L 303 1180 C 323 1270 355 1339 398 1385 C 440 1431 497 1454 569 1454 C 596 1454 621 1448 644 1437 C 667 1426 689 1414 709 1402 C 729 1389 747 1377 765 1366 C 783 1355 800 1350 817 1350 C 843 1350 864 1360 880 1381 C 896 1402 907 1428 913 1460 Z M 823 1063 C 901 1063 963 1043 1007 1003 C 1051 963 1073 903 1073 823 C 1073 808 1072 793 1071 777 C 1069 761 1067 746 1065 731 L 936 0 L 584 0 L 698 655 C 700 665 701 676 703 687 C 704 697 705 708 705 719 C 705 745 699 766 689 782 C 679 797 659 805 631 805 C 618 805 604 802 589 797 C 574 791 559 785 545 777 C 530 769 516 760 502 751 C 488 742 477 734 467 727 L 338 0 L -12 0 L 172 1044 L 516 1044 L 485 877 C 505 896 529 916 555 938 C 581 960 609 980 639 998 C 668 1016 698 1032 730 1044 C 762 1056 793 1063 823 1063 Z" unicode="" />
<glyph horiz-adv-x="1141" d="M 664 1460 L 797 1200 L 795 1180 L 582 1180 L 338 1440 L 342 1460 L 664 1460 Z M 600 1063 C 670 1063 734 1052 792 1031 C 849 1010 898 980 938 941 C 978 902 1008 854 1030 798 C 1052 742 1063 679 1063 610 C 1063 589 1062 568 1060 547 C 1058 525 1055 503 1051 481 C 1036 395 1011 321 975 258 C 939 195 896 143 846 103 C 796 62 739 32 677 12 C 614 -8 549 -18 481 -18 C 405 -18 337 -6 279 16 C 221 38 172 70 133 110 C 93 150 64 199 44 256 C 24 312 14 374 14 442 C 14 463 15 485 17 507 C 19 529 22 552 27 575 C 40 651 64 719 98 780 C 132 840 174 891 224 933 C 274 975 331 1007 395 1029 C 459 1051 527 1063 600 1063 Z M 680 502 C 686 537 690 570 693 601 C 696 632 698 660 698 686 C 698 739 690 779 675 807 C 659 834 634 848 598 848 C 544 848 501 823 469 775 C 437 727 412 647 393 535 C 387 502 382 471 379 443 C 376 414 375 388 375 365 C 375 309 384 267 402 239 C 420 211 447 197 483 197 C 532 197 572 221 604 269 C 636 317 661 395 680 502 Z" unicode="" />
<glyph horiz-adv-x="1141" d="M 700 1460 L 1042 1460 L 1038 1440 L 705 1180 L 471 1180 L 473 1200 L 700 1460 Z M 600 1063 C 670 1063 734 1052 792 1031 C 849 1010 898 980 938 941 C 978 902 1008 854 1030 798 C 1052 742 1063 679 1063 610 C 1063 589 1062 568 1060 547 C 1058 525 1055 503 1051 481 C 1036 395 1011 321 975 258 C 939 195 896 143 846 103 C 796 62 739 32 677 12 C 614 -8 549 -18 481 -18 C 405 -18 337 -6 279 16 C 221 38 172 70 133 110 C 93 150 64 199 44 256 C 24 312 14 374 14 442 C 14 463 15 485 17 507 C 19 529 22 552 27 575 C 40 651 64 719 98 780 C 132 840 174 891 224 933 C 274 975 331 1007 395 1029 C 459 1051 527 1063 600 1063 Z M 680 502 C 686 537 690 570 693 601 C 696 632 698 660 698 686 C 698 739 690 779 675 807 C 659 834 634 848 598 848 C 544 848 501 823 469 775 C 437 727 412 647 393 535 C 387 502 382 471 379 443 C 376 414 375 388 375 365 C 375 309 384 267 402 239 C 420 211 447 197 483 197 C 532 197 572 221 604 269 C 636 317 661 395 680 502 Z" unicode="" />
<glyph horiz-adv-x="1141" d="M 842 1460 L 1022 1202 L 1018 1182 L 793 1182 L 659 1325 L 475 1182 L 233 1182 L 238 1202 L 508 1460 L 842 1460 Z M 600 1063 C 670 1063 734 1052 792 1031 C 849 1010 898 980 938 941 C 978 902 1008 854 1030 798 C 1052 742 1063 679 1063 610 C 1063 589 1062 568 1060 547 C 1058 525 1055 503 1051 481 C 1036 395 1011 321 975 258 C 939 195 896 143 846 103 C 796 62 739 32 677 12 C 614 -8 549 -18 481 -18 C 405 -18 337 -6 279 16 C 221 38 172 70 133 110 C 93 150 64 199 44 256 C 24 312 14 374 14 442 C 14 463 15 485 17 507 C 19 529 22 552 27 575 C 40 651 64 719 98 780 C 132 840 174 891 224 933 C 274 975 331 1007 395 1029 C 459 1051 527 1063 600 1063 Z M 680 502 C 686 537 690 570 693 601 C 696 632 698 660 698 686 C 698 739 690 779 675 807 C 659 834 634 848 598 848 C 544 848 501 823 469 775 C 437 727 412 647 393 535 C 387 502 382 471 379 443 C 376 414 375 388 375 365 C 375 309 384 267 402 239 C 420 211 447 197 483 197 C 532 197 572 221 604 269 C 636 317 661 395 680 502 Z" unicode="" />
<glyph horiz-adv-x="1141" d="M 879 1460 L 1044 1460 C 1021 1368 988 1300 946 1254 C 903 1208 846 1186 776 1186 C 749 1186 724 1191 702 1202 C 679 1212 658 1224 638 1237 C 618 1249 600 1261 582 1272 C 564 1282 547 1288 530 1288 C 505 1288 484 1278 468 1260 C 451 1242 440 1215 434 1180 L 268 1180 C 288 1270 320 1339 363 1385 C 406 1431 463 1454 535 1454 C 561 1454 586 1448 609 1437 C 632 1426 654 1414 674 1402 C 694 1389 712 1377 730 1366 C 748 1355 765 1350 782 1350 C 808 1350 829 1360 845 1381 C 861 1402 872 1428 879 1460 Z M 600 1063 C 670 1063 734 1052 792 1031 C 849 1010 898 980 938 941 C 978 902 1008 854 1030 798 C 1052 742 1063 679 1063 610 C 1063 589 1062 568 1060 547 C 1058 525 1055 503 1051 481 C 1036 395 1011 321 975 258 C 939 195 896 143 846 103 C 796 62 739 32 677 12 C 614 -8 549 -18 481 -18 C 405 -18 337 -6 279 16 C 221 38 172 70 133 110 C 93 150 64 199 44 256 C 24 312 14 374 14 442 C 14 463 15 485 17 507 C 19 529 22 552 27 575 C 40 651 64 719 98 780 C 132 840 174 891 224 933 C 274 975 331 1007 395 1029 C 459 1051 527 1063 600 1063 Z M 680 502 C 686 537 690 570 693 601 C 696 632 698 660 698 686 C 698 739 690 779 675 807 C 659 834 634 848 598 848 C 544 848 501 823 469 775 C 437 727 412 647 393 535 C 387 502 382 471 379 443 C 376 414 375 388 375 365 C 375 309 384 267 402 239 C 420 211 447 197 483 197 C 532 197 572 221 604 269 C 636 317 661 395 680 502 Z" unicode="" />
<glyph horiz-adv-x="1141" d="M 756 1444 L 1024 1444 L 979 1188 L 711 1188 L 756 1444 Z M 322 1444 L 590 1444 L 545 1188 L 276 1188 L 322 1444 Z M 600 1063 C 670 1063 734 1052 792 1031 C 849 1010 898 980 938 941 C 978 902 1008 854 1030 798 C 1052 742 1063 679 1063 610 C 1063 589 1062 568 1060 547 C 1058 525 1055 503 1051 481 C 1036 395 1011 321 975 258 C 939 195 896 143 846 103 C 796 62 739 32 677 12 C 614 -8 549 -18 481 -18 C 405 -18 337 -6 279 16 C 221 38 172 70 133 110 C 93 150 64 199 44 256 C 24 312 14 374 14 442 C 14 463 15 485 17 507 C 19 529 22 552 27 575 C 40 651 64 719 98 780 C 132 840 174 891 224 933 C 274 975 331 1007 395 1029 C 459 1051 527 1063 600 1063 Z M 680 502 C 686 537 690 570 693 601 C 696 632 698 660 698 686 C 698 739 690 779 675 807 C 659 834 634 848 598 848 C 544 848 501 823 469 775 C 437 727 412 647 393 535 C 387 502 382 471 379 443 C 376 414 375 388 375 365 C 375 309 384 267 402 239 C 420 211 447 197 483 197 C 532 197 572 221 604 269 C 636 317 661 395 680 502 Z" unicode="" />
<glyph horiz-adv-x="1245" d="M 614 1145 C 659 1145 697 1129 729 1097 C 760 1065 776 1027 776 981 C 776 936 760 898 729 866 C 697 834 659 819 614 819 C 569 819 531 834 499 866 C 467 898 451 937 451 983 C 451 1027 467 1065 499 1097 C 531 1129 569 1145 614 1145 Z M 1118 688 L 1118 465 L 113 465 L 113 688 L 1118 688 Z M 614 336 C 659 336 697 319 729 287 C 760 255 776 216 776 172 C 776 127 760 89 729 57 C 697 25 659 10 614 10 C 569 10 531 25 499 57 C 467 89 451 128 451 174 C 451 196 455 216 464 236 C 472 256 484 273 499 288 C 513 302 530 314 550 323 C 570 331 591 336 614 336 Z" unicode="" />
<glyph horiz-adv-x="1165" d="M 688 1460 L 821 1200 L 819 1180 L 606 1180 L 362 1440 L 367 1460 L 688 1460 Z M 762 1044 L 1114 1044 L 930 0 L 584 0 L 612 168 C 589 146 564 123 538 101 C 511 79 483 59 453 42 C 423 24 392 10 360 -1 C 328 -12 295 -18 262 -18 C 186 -18 127 3 87 45 C 47 87 27 145 27 221 C 27 236 27 251 29 267 C 30 283 32 298 35 313 L 164 1044 L 516 1044 L 401 389 C 399 379 397 368 396 358 C 395 348 395 338 395 328 C 395 300 400 278 411 263 C 422 247 442 240 471 240 C 500 240 529 248 557 266 C 585 283 610 300 633 317 L 762 1044 Z" unicode="" />
<glyph horiz-adv-x="1165" d="M 715 1460 L 1057 1460 L 1053 1440 L 719 1180 L 485 1180 L 487 1200 L 715 1460 Z M 762 1044 L 1114 1044 L 930 0 L 584 0 L 612 168 C 589 146 564 123 538 101 C 511 79 483 59 453 42 C 423 24 392 10 360 -1 C 328 -12 295 -18 262 -18 C 186 -18 127 3 87 45 C 47 87 27 145 27 221 C 27 236 27 251 29 267 C 30 283 32 298 35 313 L 164 1044 L 516 1044 L 401 389 C 399 379 397 368 396 358 C 395 348 395 338 395 328 C 395 300 400 278 411 263 C 422 247 442 240 471 240 C 500 240 529 248 557 266 C 585 283 610 300 633 317 L 762 1044 Z" unicode="" />
<glyph horiz-adv-x="1165" d="M 883 1460 L 1063 1202 L 1059 1182 L 834 1182 L 700 1325 L 516 1182 L 274 1182 L 279 1202 L 549 1460 L 883 1460 Z M 762 1044 L 1114 1044 L 930 0 L 584 0 L 612 168 C 589 146 564 123 538 101 C 511 79 483 59 453 42 C 423 24 392 10 360 -1 C 328 -12 295 -18 262 -18 C 186 -18 127 3 87 45 C 47 87 27 145 27 221 C 27 236 27 251 29 267 C 30 283 32 298 35 313 L 164 1044 L 516 1044 L 401 389 C 399 379 397 368 396 358 C 395 348 395 338 395 328 C 395 300 400 278 411 263 C 422 247 442 240 471 240 C 500 240 529 248 557 266 C 585 283 610 300 633 317 L 762 1044 Z" unicode="" />
<glyph horiz-adv-x="1165" d="M 786 1444 L 1055 1444 L 1010 1188 L 741 1188 L 786 1444 Z M 352 1444 L 621 1444 L 575 1188 L 307 1188 L 352 1444 Z M 762 1044 L 1114 1044 L 930 0 L 584 0 L 612 168 C 589 146 564 123 538 101 C 511 79 483 59 453 42 C 423 24 392 10 360 -1 C 328 -12 295 -18 262 -18 C 186 -18 127 3 87 45 C 47 87 27 145 27 221 C 27 236 27 251 29 267 C 30 283 32 298 35 313 L 164 1044 L 516 1044 L 401 389 C 399 379 397 368 396 358 C 395 348 395 338 395 328 C 395 300 400 278 411 263 C 422 247 442 240 471 240 C 500 240 529 248 557 266 C 585 283 610 300 633 317 L 762 1044 Z" unicode="" />
<glyph horiz-adv-x="1055" d="M 705 1460 L 1047 1460 L 1042 1440 L 709 1180 L 475 1180 L 477 1200 L 705 1460 Z M 825 1044 L 1102 1044 L 524 -51 C 476 -143 418 -214 352 -264 C 286 -314 200 -340 94 -340 C 60 -340 27 -338 -7 -335 C -41 -332 -75 -328 -109 -322 L -66 -78 C -48 -80 -30 -82 -12 -84 C 5 -85 23 -86 41 -86 C 64 -86 88 -85 114 -83 C 140 -81 163 -77 184 -69 C 205 -61 223 -48 237 -31 C 251 -14 258 9 258 41 C 258 49 257 58 256 68 C 255 77 254 86 252 94 L 74 1044 L 434 1044 L 510 389 L 825 1044 Z" unicode="" />
<glyph horiz-adv-x="1055" d="M 733 1444 L 1001 1444 L 956 1188 L 688 1188 L 733 1444 Z M 299 1444 L 567 1444 L 522 1188 L 254 1188 L 299 1444 Z M 825 1044 L 1102 1044 L 524 -51 C 476 -143 418 -214 352 -264 C 286 -314 200 -340 94 -340 C 60 -340 27 -338 -7 -335 C -41 -332 -75 -328 -109 -322 L -66 -78 C -48 -80 -30 -82 -12 -84 C 5 -85 23 -86 41 -86 C 64 -86 88 -85 114 -83 C 140 -81 163 -77 184 -69 C 205 -61 223 -48 237 -31 C 251 -14 258 9 258 41 C 258 49 257 58 256 68 C 255 77 254 86 252 94 L 74 1044 L 434 1044 L 510 389 L 825 1044 Z" unicode="" />
<glyph horiz-adv-x="588" d="M 174 1036 L 526 1036 L 344 0 L -8 0 L 174 1036 Z" unicode="" />
<glyph horiz-adv-x="1956" d="M 989 1434 L 2001 1434 L 1950 1137 L 1354 1137 L 1305 864 L 1677 864 L 1626 565 L 1253 565 L 1206 297 L 1831 297 L 1778 0 L 731 0 C 724 -2 714 -4 702 -7 C 689 -9 675 -12 659 -14 C 643 -16 627 -18 610 -20 C 592 -22 576 -23 561 -23 C 477 -23 404 -8 340 21 C 276 50 222 90 180 142 C 137 194 105 255 83 327 C 61 399 51 477 51 561 C 51 593 52 627 55 663 C 58 698 63 734 70 770 C 86 862 113 951 153 1035 C 192 1119 242 1192 303 1255 C 364 1317 436 1367 520 1404 C 603 1441 696 1460 799 1460 C 815 1460 832 1459 852 1457 C 871 1455 890 1452 908 1450 C 926 1447 942 1444 957 1441 C 971 1438 982 1436 989 1434 Z M 926 692 C 932 724 937 761 943 805 C 949 849 952 892 952 934 C 952 965 949 995 944 1025 C 939 1054 930 1080 917 1102 C 904 1124 886 1142 863 1156 C 840 1169 811 1176 776 1176 C 720 1176 674 1161 636 1133 C 598 1104 568 1068 544 1024 C 520 980 501 933 487 881 C 473 829 463 779 455 733 C 449 701 444 665 438 624 C 432 582 430 542 430 502 C 430 470 432 439 438 409 C 443 379 452 352 466 329 C 480 306 498 288 522 274 C 546 260 576 254 612 254 C 667 254 713 268 750 296 C 786 324 816 360 840 403 C 863 446 881 493 894 545 C 907 597 918 646 926 692 Z" unicode="" />
<glyph horiz-adv-x="1741" d="M 1237 1063 C 1306 1063 1368 1053 1422 1034 C 1476 1015 1522 988 1559 953 C 1595 918 1623 875 1642 825 C 1661 774 1671 717 1671 655 C 1671 645 1670 634 1670 623 C 1669 611 1668 598 1666 583 C 1664 568 1662 550 1659 530 C 1655 509 1651 484 1647 455 L 1010 455 C 1009 444 1008 434 1008 425 C 1008 416 1008 407 1008 399 C 1008 321 1021 268 1048 240 C 1075 211 1111 197 1155 197 C 1205 197 1250 208 1288 231 C 1326 254 1367 293 1411 348 L 1608 238 C 1535 146 1459 81 1380 41 C 1300 1 1217 -18 1130 -18 C 1062 -18 1002 -8 949 12 C 896 32 851 58 813 92 C 766 56 714 28 658 10 C 601 -8 542 -18 481 -18 C 405 -18 337 -6 279 16 C 221 38 172 70 133 110 C 93 150 64 199 44 256 C 24 312 14 374 14 442 C 14 463 15 485 17 507 C 19 529 22 552 27 575 C 40 651 64 719 98 780 C 132 840 174 891 224 933 C 274 975 331 1007 395 1029 C 459 1051 527 1063 600 1063 C 665 1063 725 1052 779 1031 C 833 1010 880 982 920 946 C 966 982 1016 1011 1071 1032 C 1125 1052 1181 1063 1237 1063 Z M 1343 639 C 1346 654 1348 669 1350 683 C 1351 697 1352 711 1352 725 C 1352 763 1344 793 1328 816 C 1312 838 1283 850 1241 850 C 1185 850 1143 833 1113 800 C 1083 766 1058 713 1040 639 L 1343 639 Z M 680 502 C 686 537 690 570 693 601 C 696 632 698 660 698 686 C 698 739 690 779 675 807 C 659 834 634 848 598 848 C 544 848 501 823 469 775 C 437 727 412 647 393 535 C 387 502 382 471 379 443 C 376 414 375 388 375 365 C 375 309 384 267 402 239 C 420 211 447 197 483 197 C 532 197 572 221 604 269 C 636 317 661 395 680 502 Z" unicode="" />
<glyph horiz-adv-x="1296" d="M 911 1794 L 1180 1794 L 1135 1538 L 866 1538 L 911 1794 Z M 477 1794 L 745 1794 L 700 1538 L 432 1538 L 477 1794 Z M 1055 1434 L 1419 1434 L 838 653 L 723 0 L 350 0 L 457 604 L 129 1434 L 528 1434 L 698 922 L 1055 1434 Z" unicode="" />
<glyph horiz-adv-x="934" d="M 676 1401 C 714 1401 752 1400 791 1398 C 829 1396 868 1393 907 1391 L 870 1157 C 862 1157 854 1157 844 1157 C 834 1157 824 1158 814 1158 C 804 1158 796 1158 789 1158 C 781 1158 776 1159 774 1159 C 737 1159 711 1152 696 1140 C 680 1128 670 1103 664 1065 L 649 985 L 823 985 L 780 739 L 610 739 L 496 66 C 478 -32 439 -103 377 -149 C 315 -194 236 -217 141 -217 C 103 -217 65 -216 26 -214 C -12 -212 -51 -209 -90 -207 L -53 27 C -45 27 -37 26 -27 26 C -17 26 -7 26 2 26 C 12 26 20 25 28 25 C 35 25 40 25 43 25 C 79 25 105 31 121 43 C 136 55 147 81 154 119 L 264 739 L 117 739 L 164 989 L 309 989 L 328 1116 C 342 1216 380 1288 441 1333 C 502 1378 580 1401 676 1401 Z" unicode="" />
<glyph horiz-adv-x="1006" d="M 821 1460 L 1001 1202 L 997 1182 L 772 1182 L 639 1325 L 455 1182 L 213 1182 L 217 1202 L 487 1460 L 821 1460 Z" unicode="" />
<glyph horiz-adv-x="1006" d="M 788 1460 L 1030 1460 L 1026 1440 L 756 1182 L 422 1182 L 242 1440 L 246 1460 L 471 1460 L 604 1317 L 788 1460 Z" unicode="" />
<glyph horiz-adv-x="1006" d="M 279 1397 L 975 1397 L 938 1219 L 242 1219 L 279 1397 Z" unicode="" />
<glyph horiz-adv-x="1006" d="M 787 1460 L 972 1460 C 937 1362 890 1285 830 1228 C 770 1171 685 1143 576 1143 C 473 1143 400 1169 358 1223 C 316 1276 295 1352 296 1450 L 296 1460 L 480 1460 C 479 1416 488 1381 508 1355 C 528 1329 561 1317 607 1317 C 656 1317 694 1330 721 1357 C 748 1383 770 1418 787 1460 Z" unicode="" />
<glyph horiz-adv-x="1006" d="M 459 1460 L 811 1460 L 764 1192 L 412 1192 L 459 1460 Z" unicode="" />
<glyph horiz-adv-x="1006" d="M 637 1556 C 708 1556 762 1537 799 1500 C 835 1463 854 1418 854 1364 C 853 1332 846 1303 832 1275 C 818 1247 800 1222 777 1202 C 753 1182 726 1166 695 1154 C 664 1142 631 1137 596 1137 C 526 1137 472 1154 434 1190 C 396 1226 377 1270 377 1323 C 377 1356 385 1387 399 1415 C 413 1443 431 1468 455 1489 C 479 1509 506 1526 538 1538 C 569 1550 602 1556 637 1556 Z M 592 1221 C 611 1221 627 1226 641 1238 C 654 1249 665 1263 673 1280 C 681 1297 686 1316 690 1336 C 694 1356 696 1374 696 1391 C 696 1414 691 1432 683 1446 C 674 1459 658 1466 635 1466 C 615 1466 599 1460 586 1449 C 573 1438 563 1424 555 1408 C 547 1391 542 1373 539 1353 C 536 1333 535 1315 535 1298 C 535 1275 539 1256 547 1242 C 555 1228 570 1221 592 1221 Z" unicode="" />
<glyph horiz-adv-x="1006" d="M 834 1460 L 999 1460 C 976 1368 943 1300 900 1254 C 857 1208 801 1186 731 1186 C 704 1186 679 1191 657 1202 C 634 1212 613 1224 593 1237 C 573 1249 555 1261 537 1272 C 519 1282 502 1288 485 1288 C 460 1288 439 1278 423 1260 C 406 1242 395 1215 389 1180 L 223 1180 C 243 1270 275 1339 318 1385 C 360 1431 417 1454 489 1454 C 516 1454 541 1448 564 1437 C 587 1426 609 1414 629 1402 C 649 1389 667 1377 685 1366 C 703 1355 720 1350 737 1350 C 763 1350 784 1360 800 1381 C 816 1402 827 1428 834 1460 Z" unicode="" />
<glyph horiz-adv-x="1423" d="M 129 1044 L 1407 1044 L 1364 801 L 1159 801 L 1081 360 C 1079 354 1077 347 1077 340 C 1077 333 1077 326 1077 319 C 1077 283 1087 259 1107 247 C 1127 235 1154 229 1186 229 C 1200 229 1214 230 1229 233 C 1244 235 1259 237 1274 238 L 1231 4 C 1190 -4 1148 -10 1104 -14 C 1060 -18 1017 -20 975 -20 C 939 -20 906 -16 874 -8 C 842 0 815 12 791 29 C 767 46 748 69 734 97 C 720 125 713 159 713 199 C 713 209 713 219 714 231 C 715 242 717 253 719 264 L 811 801 L 606 801 L 465 0 L 119 0 L 260 801 L 86 801 L 129 1044 Z" unicode="" />
<glyph horiz-adv-x="1245" d="M 145 688 L 1092 688 L 1053 465 L 106 465 L 145 688 Z" unicode="" />
<glyph horiz-adv-x="2343" d="M 164 688 L 2208 688 L 2169 465 L 125 465 L 164 688 Z" unicode="" />
<glyph horiz-adv-x="2085" d="M 1874 131 L 1874 0 L 66 0 L 66 131 L 1874 131 Z" unicode="" />
<glyph horiz-adv-x="666" d="M 487 1434 L 623 1434 L 430 1098 L 565 1098 L 496 711 L 123 711 L 186 1073 L 487 1434 Z" unicode="" />
<glyph horiz-adv-x="666" d="M 289 1434 L 659 1434 L 596 1073 L 295 711 L 162 711 L 354 1047 L 221 1047 L 289 1434 Z" unicode="" />
<glyph horiz-adv-x="666" d="M 86 387 L 457 387 L 393 27 L 92 -336 L -41 -336 L 152 0 L 18 0 L 86 387 Z" unicode="" />
<glyph horiz-adv-x="1135" d="M 956 1434 L 1092 1434 L 899 1098 L 1034 1098 L 965 711 L 596 711 L 659 1073 L 956 1434 Z M 487 1434 L 623 1434 L 426 1098 L 561 1098 L 492 711 L 123 711 L 186 1073 L 487 1434 Z" unicode="" />
<glyph horiz-adv-x="1135" d="M 760 1434 L 1128 1434 L 1065 1073 L 764 711 L 629 711 L 827 1047 L 692 1047 L 760 1434 Z M 289 1434 L 655 1434 L 592 1073 L 295 711 L 162 711 L 354 1047 L 221 1047 L 289 1434 Z" unicode="" />
<glyph horiz-adv-x="1135" d="M 557 387 L 926 387 L 862 27 L 561 -336 L 426 -336 L 625 0 L 489 0 L 557 387 Z M 86 387 L 453 387 L 389 27 L 92 -336 L -41 -336 L 152 0 L 18 0 L 86 387 Z" unicode="" />
<glyph horiz-adv-x="1137" d="M 682 1040 L 991 1114 L 932 780 L 664 932 L 711 672 L 485 -45 L 389 -27 L 424 723 L 555 952 L 250 899 L 309 1235 L 573 1059 L 530 1452 L 858 1393 L 682 1040 Z" unicode="" />
<glyph horiz-adv-x="1137" d="M 682 1040 L 991 1114 L 932 780 L 664 932 L 711 668 L 580 432 L 885 485 L 825 150 L 561 326 L 604 -68 L 276 -8 L 453 344 L 143 270 L 203 604 L 471 453 L 424 721 L 555 952 L 250 899 L 309 1235 L 573 1059 L 530 1452 L 858 1393 L 682 1040 Z" unicode="" />
<glyph horiz-adv-x="866" d="M 434 1114 C 488 1114 539 1103 587 1082 C 635 1061 676 1033 712 997 C 748 961 776 918 797 870 C 818 822 829 771 829 717 C 829 663 818 611 797 563 C 776 515 748 473 712 437 C 676 401 635 372 587 351 C 539 329 488 319 434 319 C 379 319 327 329 279 351 C 231 372 189 401 153 437 C 117 473 89 515 68 563 C 47 611 37 663 37 717 C 37 771 47 822 68 870 C 89 918 117 961 153 997 C 189 1033 231 1061 279 1082 C 327 1103 379 1114 434 1114 Z" unicode="" />
<glyph horiz-adv-x="1868" d="M 1315 387 L 1686 387 L 1618 0 L 1247 0 L 1315 387 Z M 692 387 L 1063 387 L 995 0 L 625 0 L 692 387 Z M 70 387 L 440 387 L 373 0 L 2 0 L 70 387 Z" unicode="" />
<glyph horiz-adv-x="2699" d="M 575 1401 C 625 1401 670 1391 711 1373 C 752 1354 787 1329 816 1298 C 845 1266 867 1230 883 1189 C 899 1147 907 1104 907 1059 C 907 1007 895 956 872 908 C 849 859 818 816 780 779 C 742 742 697 712 646 690 C 595 668 542 657 487 657 C 437 657 391 666 350 685 C 309 703 274 728 245 759 C 216 789 194 825 178 866 C 162 906 154 949 154 993 C 154 1045 165 1096 188 1146 C 210 1196 241 1239 279 1277 C 317 1314 362 1344 413 1367 C 464 1389 518 1401 575 1401 Z M 1450 1376 L 1638 1376 L 414 0 L 223 0 L 1450 1376 Z M 502 856 C 528 856 554 861 578 872 C 602 882 623 897 641 915 C 659 933 673 954 684 979 C 694 1004 700 1031 700 1059 C 700 1101 687 1137 662 1165 C 636 1193 603 1208 563 1208 C 536 1208 510 1202 486 1192 C 462 1181 440 1166 422 1148 C 404 1130 389 1108 379 1084 C 369 1059 364 1032 365 1004 C 365 963 377 928 403 899 C 428 870 461 856 502 856 Z M 2218 725 C 2268 725 2313 715 2354 697 C 2395 678 2430 653 2459 622 C 2488 590 2510 554 2526 513 C 2542 471 2550 428 2550 383 C 2550 331 2538 280 2515 232 C 2492 183 2461 140 2423 104 C 2384 67 2339 37 2288 15 C 2237 -6 2184 -18 2130 -18 C 2080 -18 2034 -8 1993 9 C 1951 27 1916 52 1887 83 C 1858 114 1836 150 1820 190 C 1804 230 1796 273 1796 317 C 1796 369 1807 420 1830 470 C 1852 520 1883 563 1921 601 C 1959 638 2004 668 2056 691 C 2107 713 2161 725 2218 725 Z M 1386 725 C 1436 725 1481 715 1522 697 C 1563 678 1598 653 1627 622 C 1656 590 1678 554 1694 513 C 1710 471 1718 428 1718 383 C 1718 331 1706 280 1683 232 C 1660 183 1629 140 1591 104 C 1553 67 1508 37 1457 15 C 1406 -6 1353 -18 1298 -18 C 1248 -18 1202 -8 1161 9 C 1120 27 1085 52 1056 83 C 1027 114 1005 150 989 190 C 973 230 965 273 965 317 C 965 369 976 420 999 470 C 1021 520 1052 563 1090 601 C 1128 638 1173 668 1224 691 C 1275 713 1329 725 1386 725 Z M 2144 180 C 2170 180 2196 185 2220 196 C 2244 206 2265 221 2283 239 C 2301 257 2316 278 2327 303 C 2337 328 2343 355 2343 383 C 2343 425 2330 461 2305 489 C 2279 517 2246 532 2206 532 C 2178 532 2152 526 2128 516 C 2104 505 2083 490 2065 472 C 2047 454 2032 432 2022 408 C 2011 383 2006 356 2007 328 C 2007 287 2019 252 2045 223 C 2070 194 2103 180 2144 180 Z M 1313 180 C 1339 180 1365 185 1389 196 C 1413 206 1434 221 1452 239 C 1470 257 1484 278 1495 303 C 1505 328 1511 355 1511 383 C 1511 425 1498 461 1473 489 C 1447 517 1414 532 1374 532 C 1347 532 1321 526 1297 516 C 1273 505 1252 490 1234 472 C 1216 454 1201 432 1191 408 C 1180 383 1175 356 1176 328 C 1176 287 1188 252 1214 223 C 1239 194 1272 180 1313 180 Z" unicode="" />
<glyph horiz-adv-x="680" d="M 469 981 L 621 848 L 279 537 L 510 227 L 317 119 L 37 498 L 55 602 L 469 981 Z" unicode="" />
<glyph horiz-adv-x="680" d="M 311 981 L 594 602 L 575 498 L 160 119 L 10 252 L 350 563 L 119 872 L 311 981 Z" unicode="" />
<glyph horiz-adv-x="410" d="M 770 1460 L 961 1460 L -346 -27 L -537 -27 L 770 1460 Z" unicode="" />
<glyph horiz-adv-x="1245" d="M 805 1401 C 911 1401 1007 1384 1091 1351 C 1175 1317 1244 1270 1296 1208 L 1055 1004 C 1043 1016 1028 1030 1011 1046 C 994 1062 975 1076 955 1090 C 934 1104 912 1115 889 1125 C 866 1134 843 1139 821 1139 C 797 1139 774 1135 751 1128 C 727 1121 705 1109 683 1092 C 661 1074 640 1050 620 1020 C 600 990 581 951 565 905 L 913 905 L 885 739 L 520 739 L 512 690 C 510 677 507 663 505 649 C 502 634 500 619 498 604 L 793 604 L 764 440 L 494 440 C 496 412 500 385 507 361 C 514 336 524 314 538 296 C 551 277 568 262 589 252 C 610 241 636 236 666 236 C 694 236 721 240 749 249 C 777 258 803 269 828 282 C 853 295 876 310 898 326 C 919 342 938 357 954 371 L 1122 141 C 1086 115 1052 92 1018 72 C 984 51 948 33 912 19 C 876 4 837 -7 796 -15 C 754 -23 709 -27 659 -27 C 576 -27 505 -15 445 8 C 385 32 335 64 295 106 C 255 147 225 196 204 254 C 183 311 170 373 166 440 L 2 440 L 31 604 L 168 604 C 168 620 170 637 173 654 C 176 670 179 687 182 705 L 188 739 L 55 739 L 84 905 L 233 905 C 257 975 288 1040 325 1101 C 361 1161 403 1214 451 1258 C 499 1302 552 1337 612 1363 C 671 1388 735 1401 805 1401 Z" unicode="" />
<glyph horiz-adv-x="1044" d="M 961 1434 L 979 985 L 881 985 L 866 1274 L 762 985 L 700 985 L 594 1274 L 580 985 L 483 985 L 510 1434 L 643 1434 L 733 1171 L 823 1434 L 961 1434 Z M 442 1434 L 442 1343 L 317 1343 L 317 985 L 213 985 L 213 1346 L 92 1346 L 92 1434 L 442 1434 Z" unicode="" />
<glyph horiz-adv-x="2011" d="M 1534 1460 L 1722 1460 L 416 -27 L 227 -27 L 1534 1460 Z M 553 780 L 705 780 L 674 606 L 137 606 L 168 780 L 328 780 L 401 1196 L 238 1169 L 262 1313 C 316 1336 367 1358 415 1378 C 463 1398 511 1420 559 1446 L 670 1446 L 553 780 Z M 1546 854 C 1639 854 1713 834 1768 796 C 1823 758 1851 709 1851 649 C 1851 621 1845 597 1833 575 C 1821 553 1806 534 1787 518 C 1767 502 1745 488 1721 476 C 1696 464 1671 455 1645 449 C 1661 444 1678 436 1698 425 C 1717 414 1735 400 1752 384 C 1768 367 1782 347 1793 324 C 1804 300 1810 274 1810 246 C 1810 202 1798 163 1774 130 C 1750 97 1719 70 1683 49 C 1647 27 1607 11 1563 1 C 1519 -8 1477 -14 1438 -14 C 1344 -14 1267 -1 1206 23 C 1144 47 1095 87 1059 141 L 1241 254 C 1262 224 1286 200 1314 182 C 1342 163 1379 154 1425 154 C 1439 154 1453 155 1469 159 C 1485 163 1499 169 1513 177 C 1526 185 1537 195 1546 208 C 1554 221 1559 237 1559 256 C 1559 274 1555 288 1547 300 C 1539 312 1528 321 1516 328 C 1503 334 1489 339 1473 342 C 1457 344 1442 346 1427 346 L 1372 346 L 1401 510 L 1452 510 C 1468 510 1485 511 1503 515 C 1520 518 1536 524 1550 532 C 1564 540 1576 550 1585 564 C 1594 578 1599 594 1599 614 C 1599 635 1592 652 1579 665 C 1565 677 1541 684 1507 684 C 1486 684 1466 681 1447 676 C 1428 671 1410 665 1394 658 C 1378 651 1363 643 1350 635 C 1337 627 1326 620 1317 614 L 1212 760 C 1275 800 1333 826 1387 837 C 1440 848 1493 854 1546 854 Z" unicode="" />
<glyph horiz-adv-x="2011" d="M 1589 1460 L 1780 1460 L 473 -27 L 283 -27 L 1589 1460 Z M 535 1458 C 630 1458 705 1435 761 1390 C 816 1345 844 1286 844 1214 C 844 1183 838 1155 828 1131 C 817 1106 803 1083 785 1063 C 767 1042 746 1023 722 1005 C 698 987 672 968 645 950 C 625 936 603 922 579 908 C 555 894 530 880 506 867 C 481 854 456 842 432 830 C 408 818 386 808 367 799 L 772 799 L 737 606 L 51 606 L 78 762 C 140 804 195 842 244 874 C 293 906 342 941 391 977 C 408 989 428 1004 451 1020 C 473 1036 495 1053 515 1072 C 535 1091 551 1112 565 1134 C 579 1156 586 1180 586 1206 C 586 1229 578 1247 563 1261 C 547 1275 525 1282 496 1282 C 475 1282 455 1279 435 1273 C 415 1267 396 1259 379 1250 C 361 1241 345 1232 330 1222 C 315 1212 302 1204 291 1196 L 190 1350 C 249 1388 304 1415 356 1432 C 408 1449 467 1458 535 1458 Z M 1606 854 C 1698 854 1772 834 1828 796 C 1883 758 1911 709 1911 649 C 1911 621 1905 597 1893 575 C 1881 553 1865 534 1846 518 C 1827 502 1805 488 1780 476 C 1755 464 1730 455 1704 449 C 1720 444 1737 436 1757 425 C 1776 414 1794 400 1811 384 C 1827 367 1841 347 1853 324 C 1864 300 1870 274 1870 246 C 1870 202 1858 163 1834 130 C 1810 97 1779 70 1743 49 C 1707 27 1667 11 1623 1 C 1579 -8 1537 -14 1497 -14 C 1404 -14 1327 -1 1265 23 C 1203 47 1154 87 1118 141 L 1300 254 C 1321 224 1346 200 1374 182 C 1402 163 1439 154 1485 154 C 1499 154 1513 155 1529 159 C 1544 163 1558 169 1572 177 C 1585 185 1596 195 1605 208 C 1613 221 1618 237 1618 256 C 1618 274 1614 288 1606 300 C 1598 312 1587 321 1575 328 C 1563 334 1549 339 1533 342 C 1517 344 1502 346 1487 346 L 1432 346 L 1460 510 L 1511 510 C 1527 510 1544 511 1562 515 C 1579 518 1595 524 1609 532 C 1623 540 1635 550 1645 564 C 1654 578 1659 594 1659 614 C 1659 635 1652 652 1638 665 C 1624 677 1601 684 1567 684 C 1546 684 1526 681 1507 676 C 1487 671 1470 665 1454 658 C 1438 651 1423 643 1410 635 C 1396 627 1385 620 1376 614 L 1272 760 C 1335 800 1393 826 1446 837 C 1499 848 1552 854 1606 854 Z" unicode="" />
<glyph horiz-adv-x="2011" d="M 1556 1460 L 1745 1460 L 438 -27 L 250 -27 L 1556 1460 Z M 557 780 L 711 780 L 680 606 L 143 606 L 174 780 L 332 780 L 406 1196 L 244 1169 L 268 1313 C 322 1336 373 1358 421 1378 C 469 1398 517 1420 565 1446 L 674 1446 L 557 780 Z M 1542 852 C 1596 852 1643 846 1685 836 C 1727 825 1761 810 1789 792 C 1817 773 1838 751 1852 725 C 1866 699 1874 672 1874 643 C 1874 618 1869 596 1859 577 C 1849 557 1835 540 1819 526 C 1803 511 1784 498 1762 488 C 1740 478 1718 469 1696 461 C 1712 453 1728 442 1745 429 C 1762 416 1778 401 1792 384 C 1806 367 1817 348 1827 326 C 1836 304 1841 281 1841 256 C 1841 210 1829 170 1806 136 C 1782 102 1753 74 1717 52 C 1681 30 1640 13 1596 2 C 1552 -8 1509 -14 1468 -14 C 1414 -14 1364 -9 1319 0 C 1274 9 1236 22 1204 40 C 1172 58 1148 80 1130 106 C 1112 132 1104 161 1104 195 C 1104 221 1109 244 1119 264 C 1129 284 1144 303 1162 319 C 1180 335 1201 349 1226 361 C 1250 373 1277 383 1305 393 C 1272 413 1245 439 1225 471 C 1204 503 1194 537 1194 575 C 1194 617 1204 655 1225 689 C 1245 723 1272 753 1305 777 C 1338 801 1375 819 1417 832 C 1459 845 1500 852 1542 852 Z M 1567 516 C 1576 519 1586 523 1596 529 C 1606 535 1616 542 1625 550 C 1633 558 1641 568 1647 580 C 1653 591 1656 604 1657 618 C 1657 640 1647 659 1629 674 C 1611 688 1584 696 1550 696 C 1538 696 1525 694 1511 692 C 1497 690 1483 686 1471 680 C 1458 674 1447 665 1439 655 C 1430 644 1426 630 1427 614 C 1427 602 1431 590 1439 579 C 1447 568 1457 559 1470 553 C 1483 546 1498 540 1514 534 C 1530 528 1548 522 1567 516 Z M 1448 139 C 1462 139 1477 140 1494 143 C 1511 145 1527 150 1542 157 C 1556 163 1568 172 1578 184 C 1588 196 1593 211 1593 229 C 1593 242 1588 255 1579 267 C 1570 279 1557 289 1540 297 C 1524 305 1506 312 1486 318 C 1466 324 1445 331 1425 338 C 1414 333 1403 327 1392 319 C 1380 311 1370 303 1361 293 C 1351 283 1344 273 1338 261 C 1332 249 1329 236 1329 223 C 1329 198 1340 178 1364 162 C 1388 146 1416 139 1448 139 Z" unicode="" />
<glyph horiz-adv-x="2011" d="M 1567 1460 L 1757 1460 L 451 -27 L 260 -27 L 1567 1460 Z M 555 1460 C 647 1460 721 1440 777 1402 C 832 1364 860 1315 860 1255 C 860 1227 854 1203 842 1181 C 830 1159 815 1140 796 1124 C 776 1108 754 1094 729 1082 C 704 1070 679 1061 653 1055 C 669 1050 687 1042 707 1031 C 726 1020 744 1006 761 990 C 777 973 791 953 802 930 C 813 907 819 881 819 852 C 819 808 807 769 783 736 C 759 703 728 676 692 655 C 656 633 616 617 572 607 C 528 597 486 592 446 592 C 353 592 276 604 214 629 C 152 654 104 694 68 748 L 250 860 C 271 830 295 806 323 788 C 351 769 388 760 434 760 C 448 760 462 761 478 765 C 493 769 507 775 521 783 C 534 791 545 801 554 814 C 562 827 567 843 567 862 C 567 880 563 894 555 906 C 547 918 536 927 524 934 C 512 940 498 945 482 948 C 466 950 451 952 436 952 L 381 952 L 410 1116 L 461 1116 C 477 1116 493 1117 511 1121 C 529 1124 545 1130 559 1138 C 573 1146 584 1157 594 1171 C 603 1184 608 1201 608 1221 C 608 1242 601 1259 588 1271 C 574 1283 550 1290 516 1290 C 495 1290 475 1287 456 1282 C 436 1277 419 1271 403 1264 C 387 1257 372 1250 359 1242 C 345 1234 334 1227 326 1221 L 221 1366 C 284 1406 342 1432 396 1443 C 449 1454 502 1460 555 1460 Z M 1542 852 C 1596 852 1643 846 1685 836 C 1727 825 1761 810 1789 792 C 1817 773 1838 751 1852 725 C 1866 699 1874 672 1874 643 C 1874 618 1869 596 1859 577 C 1849 557 1835 540 1819 526 C 1803 511 1784 498 1762 488 C 1740 478 1718 469 1696 461 C 1712 453 1728 442 1745 429 C 1762 416 1778 401 1792 384 C 1806 367 1817 348 1827 326 C 1836 304 1841 281 1841 256 C 1841 210 1829 170 1806 136 C 1782 102 1753 74 1717 52 C 1681 30 1640 13 1596 2 C 1552 -8 1509 -14 1468 -14 C 1414 -14 1364 -9 1319 0 C 1274 9 1236 22 1204 40 C 1172 58 1148 80 1130 106 C 1112 132 1104 161 1104 195 C 1104 221 1109 244 1119 264 C 1129 284 1144 303 1162 319 C 1180 335 1201 349 1226 361 C 1250 373 1277 383 1305 393 C 1272 413 1245 439 1225 471 C 1204 503 1194 537 1194 575 C 1194 617 1204 655 1225 689 C 1245 723 1272 753 1305 777 C 1338 801 1375 819 1417 832 C 1459 845 1500 852 1542 852 Z M 1567 516 C 1576 519 1586 523 1596 529 C 1606 535 1616 542 1625 550 C 1633 558 1641 568 1647 580 C 1653 591 1656 604 1657 618 C 1657 640 1647 659 1629 674 C 1611 688 1584 696 1550 696 C 1538 696 1525 694 1511 692 C 1497 690 1483 686 1471 680 C 1458 674 1447 665 1439 655 C 1430 644 1426 630 1427 614 C 1427 602 1431 590 1439 579 C 1447 568 1457 559 1470 553 C 1483 546 1498 540 1514 534 C 1530 528 1548 522 1567 516 Z M 1448 139 C 1462 139 1477 140 1494 143 C 1511 145 1527 150 1542 157 C 1556 163 1568 172 1578 184 C 1588 196 1593 211 1593 229 C 1593 242 1588 255 1579 267 C 1570 279 1557 289 1540 297 C 1524 305 1506 312 1486 318 C 1466 324 1445 331 1425 338 C 1414 333 1403 327 1392 319 C 1380 311 1370 303 1361 293 C 1351 283 1344 273 1338 261 C 1332 249 1329 236 1329 223 C 1329 198 1340 178 1364 162 C 1388 146 1416 139 1448 139 Z" unicode="" />
<glyph horiz-adv-x="2011" d="M 1567 1460 L 1757 1460 L 451 -27 L 260 -27 L 1567 1460 Z M 297 1444 L 872 1444 L 819 1253 L 428 1253 L 389 1114 C 410 1120 434 1128 461 1136 C 488 1144 521 1149 559 1149 C 590 1149 622 1144 654 1134 C 686 1124 715 1110 741 1091 C 767 1071 788 1047 804 1018 C 820 989 829 956 829 918 C 829 869 817 825 795 785 C 773 745 744 710 708 682 C 672 653 630 631 584 615 C 538 599 491 592 444 592 C 353 592 280 605 224 633 C 168 661 120 702 82 758 L 250 858 C 269 831 292 808 319 789 C 345 769 379 760 420 760 C 436 760 454 762 472 767 C 490 772 506 780 521 790 C 536 800 548 813 558 829 C 568 845 573 863 573 885 C 573 913 562 936 542 953 C 522 970 495 979 461 979 C 428 979 401 975 380 968 C 358 961 338 954 319 948 L 184 1042 L 297 1444 Z M 1544 852 C 1598 852 1645 846 1687 836 C 1729 825 1763 810 1791 792 C 1819 773 1840 751 1854 725 C 1868 699 1876 672 1876 643 C 1876 618 1871 596 1861 577 C 1851 557 1837 540 1821 526 C 1805 511 1786 498 1764 488 C 1742 478 1720 469 1698 461 C 1714 453 1730 442 1747 429 C 1764 416 1780 401 1794 384 C 1808 367 1819 348 1829 326 C 1838 304 1843 281 1843 256 C 1843 210 1831 170 1808 136 C 1784 102 1755 74 1719 52 C 1683 30 1642 13 1598 2 C 1554 -8 1511 -14 1470 -14 C 1416 -14 1366 -9 1321 0 C 1276 9 1238 22 1206 40 C 1174 58 1150 80 1132 106 C 1114 132 1106 161 1106 195 C 1106 221 1111 244 1121 264 C 1131 284 1146 303 1164 319 C 1182 335 1203 349 1228 361 C 1252 373 1279 383 1307 393 C 1274 413 1247 439 1227 471 C 1206 503 1196 537 1196 575 C 1196 617 1206 655 1227 689 C 1247 723 1274 753 1307 777 C 1340 801 1377 819 1419 832 C 1461 845 1502 852 1544 852 Z M 1569 516 C 1578 519 1588 523 1598 529 C 1608 535 1618 542 1627 550 C 1635 558 1643 568 1649 580 C 1655 591 1658 604 1659 618 C 1659 640 1649 659 1631 674 C 1613 688 1586 696 1552 696 C 1540 696 1527 694 1513 692 C 1499 690 1485 686 1473 680 C 1460 674 1449 665 1441 655 C 1433 644 1429 630 1430 614 C 1430 602 1433 590 1441 579 C 1449 568 1459 559 1473 553 C 1485 546 1500 540 1516 534 C 1532 528 1550 522 1569 516 Z M 1450 139 C 1464 139 1479 140 1496 143 C 1513 145 1529 150 1544 157 C 1558 163 1570 172 1580 184 C 1590 196 1595 211 1595 229 C 1595 242 1590 255 1581 267 C 1572 279 1559 289 1542 297 C 1526 305 1508 312 1488 318 C 1468 324 1447 331 1427 338 C 1416 333 1405 327 1394 319 C 1382 311 1372 303 1363 293 C 1353 283 1346 273 1340 261 C 1334 249 1331 236 1331 223 C 1331 198 1342 178 1366 162 C 1390 146 1418 139 1450 139 Z" unicode="" />
<glyph horiz-adv-x="2011" d="M 1475 1460 L 1663 1460 L 356 -27 L 168 -27 L 1475 1460 Z M 311 1444 L 946 1444 L 926 1323 C 890 1277 858 1237 832 1202 C 805 1167 782 1135 762 1105 C 742 1075 723 1047 707 1019 C 691 991 675 962 659 932 C 641 897 627 867 615 841 C 603 815 593 791 585 767 C 577 743 571 719 565 694 C 559 668 554 639 549 606 L 270 606 C 279 638 288 666 296 690 C 304 714 313 736 322 757 C 331 777 341 798 352 818 C 363 838 376 859 391 883 C 407 907 423 932 441 956 C 458 980 478 1007 500 1035 C 522 1063 547 1094 575 1128 C 603 1162 636 1201 674 1245 L 260 1245 L 311 1444 Z M 1456 852 C 1510 852 1557 846 1599 836 C 1641 825 1675 810 1703 792 C 1731 773 1752 751 1766 725 C 1780 699 1788 672 1788 643 C 1788 618 1783 596 1773 577 C 1763 557 1749 540 1733 526 C 1717 511 1698 498 1676 488 C 1654 478 1632 469 1610 461 C 1626 453 1642 442 1659 429 C 1676 416 1692 401 1706 384 C 1720 367 1731 348 1741 326 C 1750 304 1755 281 1755 256 C 1755 210 1743 170 1720 136 C 1696 102 1667 74 1631 52 C 1595 30 1554 13 1510 2 C 1466 -8 1423 -14 1382 -14 C 1328 -14 1278 -9 1233 0 C 1188 9 1150 22 1118 40 C 1086 58 1062 80 1044 106 C 1026 132 1018 161 1018 195 C 1018 221 1023 244 1033 264 C 1043 284 1058 303 1076 319 C 1094 335 1115 349 1140 361 C 1164 373 1191 383 1219 393 C 1186 413 1159 439 1139 471 C 1118 503 1108 537 1108 575 C 1108 617 1118 655 1139 689 C 1159 723 1186 753 1219 777 C 1252 801 1289 819 1331 832 C 1373 845 1414 852 1456 852 Z M 1481 516 C 1490 519 1500 523 1510 529 C 1520 535 1530 542 1539 550 C 1547 558 1555 568 1561 580 C 1567 591 1570 604 1571 618 C 1571 640 1561 659 1543 674 C 1525 688 1498 696 1464 696 C 1452 696 1439 694 1425 692 C 1411 690 1397 686 1385 680 C 1372 674 1361 665 1353 655 C 1344 644 1340 630 1341 614 C 1341 602 1345 590 1353 579 C 1361 568 1371 559 1384 553 C 1397 546 1412 540 1428 534 C 1444 528 1462 522 1481 516 Z M 1362 139 C 1376 139 1391 140 1408 143 C 1425 145 1441 150 1456 157 C 1470 163 1482 172 1492 184 C 1502 196 1507 211 1507 229 C 1507 242 1502 255 1493 267 C 1484 279 1471 289 1454 297 C 1438 305 1420 312 1400 318 C 1380 324 1359 331 1339 338 C 1328 333 1317 327 1306 319 C 1294 311 1284 303 1275 293 C 1265 283 1258 273 1252 261 C 1246 249 1243 236 1243 223 C 1243 198 1254 178 1278 162 C 1302 146 1330 139 1362 139 Z" unicode="" />
<glyph horiz-adv-x="1245" d="M 1126 688 L 1126 465 L 121 465 L 121 688 L 1126 688 Z" unicode="" />
<glyph horiz-adv-x="1239" d="M 987 1434 L 1210 1434 L 76 -317 L -147 -317 L 987 1434 Z" unicode="" />
<glyph horiz-adv-x="666" d="M 315 788 C 344 788 371 782 397 771 C 422 760 444 745 463 727 C 481 708 496 686 507 661 C 518 636 524 610 524 582 C 524 553 518 526 507 501 C 496 475 481 453 463 434 C 444 415 422 400 397 389 C 371 378 344 373 315 373 C 285 373 258 378 233 390 C 208 401 187 416 169 436 C 151 455 136 477 126 503 C 116 528 111 554 111 582 C 111 609 116 635 126 660 C 136 685 151 707 169 726 C 187 744 209 759 234 771 C 259 782 286 788 315 788 Z" unicode="" />
<glyph horiz-adv-x="1577" d="M 1358 1497 L 1569 1497 L 872 -57 L 694 -57 L 406 715 L 180 608 L 111 766 L 602 991 L 848 322 L 1358 1497 Z" unicode="" />
<glyph horiz-adv-x="1681" d="M 1176 1034 C 1232 1034 1283 1022 1328 999 C 1373 976 1411 945 1443 905 C 1474 865 1498 817 1515 763 C 1531 708 1540 649 1540 586 C 1540 509 1530 441 1510 383 C 1490 325 1462 276 1427 237 C 1392 198 1351 169 1303 149 C 1255 129 1203 119 1149 119 C 1081 119 1019 137 962 175 C 904 213 857 264 819 328 C 778 259 730 207 675 172 C 620 136 557 119 487 119 C 430 119 379 130 333 153 C 287 175 249 206 218 246 C 186 286 162 333 146 388 C 129 442 121 501 121 565 C 121 641 131 708 151 767 C 171 825 198 874 233 914 C 268 953 310 983 358 1003 C 406 1023 458 1034 514 1034 C 581 1034 643 1015 700 977 C 756 939 803 888 840 825 C 882 892 930 944 986 980 C 1041 1016 1104 1034 1176 1034 Z M 1137 358 C 1193 358 1237 376 1270 412 C 1302 448 1319 506 1319 586 C 1319 654 1305 705 1279 740 C 1253 775 1217 793 1171 793 C 1149 793 1129 790 1113 786 C 1097 781 1082 773 1068 762 C 1054 751 1041 737 1029 719 C 1017 701 1003 680 989 655 C 976 631 964 608 952 586 C 940 564 930 540 922 516 C 950 462 984 422 1022 396 C 1060 370 1099 358 1137 358 Z M 670 500 C 682 523 694 545 705 565 C 715 585 727 610 739 639 C 710 694 676 733 638 757 C 600 781 562 793 524 793 C 468 793 423 774 391 738 C 358 702 342 644 342 565 C 342 497 355 446 381 411 C 407 375 442 358 487 358 C 509 358 529 360 546 365 C 562 370 577 378 591 390 C 605 401 618 416 630 434 C 642 452 656 474 670 500 Z" unicode="" />
<glyph horiz-adv-x="1096" d="M 987 1153 L 987 274 L 109 274 L 109 1153 L 987 1153 Z" unicode="" />
<glyph horiz-adv-x="1200" d="M 600 1286 L 1159 156 L 41 156 L 600 1286 Z" unicode="" />
<glyph horiz-adv-x="1239" d="M 109 1276 L 1239 717 L 109 158 L 109 1276 Z" unicode="" />
<glyph horiz-adv-x="1200" d="M 41 1264 L 1159 1264 L 600 133 L 41 1264 Z" unicode="" />
<glyph horiz-adv-x="1239" d="M 1130 1276 L 1130 158 L 0 717 L 1130 1276 Z" unicode="" />
<glyph horiz-adv-x="993" d="M 545 1386 L 905 707 L 545 0 L 434 0 L 72 707 L 434 1386 L 545 1386 Z M 489 100 L 793 707 L 489 1286 L 182 707 L 489 100 Z" unicode="" />
<glyph horiz-adv-x="1548" d="M 774 1481 C 876 1481 973 1461 1064 1423 C 1154 1384 1233 1331 1300 1265 C 1366 1199 1419 1120 1458 1030 C 1496 940 1516 843 1516 741 C 1516 639 1496 542 1458 452 C 1419 361 1366 282 1300 216 C 1233 149 1154 96 1064 58 C 973 19 876 0 774 0 C 671 0 574 19 484 58 C 394 96 315 149 249 216 C 182 282 129 361 91 452 C 52 542 33 639 33 741 C 33 843 52 940 91 1030 C 129 1120 182 1199 249 1265 C 315 1331 394 1384 484 1423 C 574 1461 671 1481 774 1481 Z" unicode="" />
<glyph horiz-adv-x="1354" d="M 1016 1460 L 1370 1460 L 1323 1192 L 969 1192 L 1016 1460 Z M 604 1442 C 646 1442 686 1441 722 1439 C 758 1437 789 1436 817 1434 L 780 1219 L 725 1219 C 678 1219 645 1210 626 1193 C 607 1175 594 1144 586 1100 L 575 1040 L 752 1040 L 709 807 L 543 807 L 401 0 L 49 0 L 190 807 L 45 807 L 88 1044 L 233 1044 L 254 1165 C 271 1267 309 1338 369 1380 C 428 1421 506 1442 604 1442 Z M 940 1030 L 1292 1030 L 1110 0 L 758 0 L 940 1030 Z" unicode="" />
<glyph horiz-adv-x="1354" d="M 604 1442 C 646 1442 686 1441 722 1439 C 758 1437 789 1436 817 1434 L 780 1219 L 725 1219 C 678 1219 645 1210 626 1193 C 607 1175 594 1144 586 1100 L 575 1040 L 752 1040 L 709 807 L 543 807 L 401 0 L 49 0 L 190 807 L 45 807 L 88 1044 L 233 1044 L 254 1165 C 271 1267 309 1338 369 1380 C 428 1421 506 1442 604 1442 Z M 1010 1434 L 1362 1434 L 1110 0 L 758 0 L 1010 1434 Z" unicode="" />
</font>
</defs>
</svg>
