<?xml version="1.0" encoding="utf-8" ?><svg version="1.1" xmlns = 'http://www.w3.org/2000/svg'><defs><font id='web' horiz-adv-x="1000">
<font-face font-family="web" descent="-208" cap-height="700" units-per-em="1000" bbox="-226,-203,1301,982" x-height="500" ascent="792" />
<missing-glyph horiz-adv-x="197" d="" /><glyph horiz-adv-x="197" d="" unicode=" " />
<glyph horiz-adv-x="309" d="M 264 742 C 286 742 302 735 312 722 C 322 709 327 695 327 679 C 327 674 326 669 326 663 C 326 657 325 652 324 648 C 316 618 305 589 291 562 C 277 535 261 498 243 451 C 226 408 211 364 198 318 C 185 272 174 233 165 202 C 164 200 162 198 160 197 C 157 195 153 195 149 195 C 141 195 135 197 131 201 C 126 205 124 208 125 211 C 131 243 140 283 152 329 C 163 375 171 421 177 467 C 183 517 186 557 187 587 C 188 617 192 647 200 677 C 204 693 212 708 223 722 C 233 735 247 742 264 742 Z M 109 127 C 128 127 144 120 158 107 C 171 94 178 79 178 61 C 178 42 171 26 158 13 C 144 0 128 -6 109 -6 C 90 -6 74 0 61 13 C 48 26 42 42 42 61 C 42 79 48 94 61 107 C 74 120 90 127 109 127 Z" unicode="!" />
<glyph horiz-adv-x="437" d="M 406 740 C 422 740 436 735 446 726 C 456 717 462 705 462 691 C 462 688 461 685 461 682 C 461 678 460 675 460 672 C 458 663 453 650 446 634 C 438 618 430 599 421 579 C 411 559 401 537 390 515 C 379 493 369 471 360 450 C 358 448 356 447 354 447 C 352 446 350 446 346 446 C 341 446 337 447 335 449 C 333 451 331 454 331 457 C 333 479 334 503 336 527 C 338 551 339 575 341 597 C 343 619 344 638 346 656 C 348 674 350 687 353 697 C 356 709 362 720 372 728 C 381 736 392 740 406 740 Z M 227 740 C 243 740 257 735 268 726 C 278 717 284 705 284 691 C 284 688 283 685 283 682 C 282 678 281 675 281 672 C 279 663 274 650 267 634 C 260 618 252 599 243 579 C 233 559 223 537 212 515 C 201 493 191 471 182 450 C 179 448 177 447 175 447 C 173 446 171 446 168 446 C 163 446 159 447 157 449 C 155 451 153 454 153 457 C 155 479 156 503 158 527 C 159 551 160 575 162 597 C 164 619 166 638 168 656 C 170 674 172 687 174 697 C 176 709 182 720 192 728 C 202 736 213 740 227 740 Z" unicode="&#x22;" />
<glyph horiz-adv-x="814" d="M 583 504 L 752 504 L 728 421 L 559 421 L 511 267 L 683 267 L 659 184 L 487 184 L 431 -9 L 385 -9 L 442 184 L 307 184 L 250 -9 L 205 -9 L 261 184 L 93 184 L 117 267 L 285 267 L 333 421 L 162 421 L 186 504 L 357 504 L 410 685 L 455 685 L 402 504 L 537 504 L 590 685 L 636 685 L 583 504 Z M 466 267 L 513 421 L 378 421 L 331 267 L 466 267 Z" unicode="#" />
<glyph horiz-adv-x="576" d="M 430 684 C 478 675 512 658 534 634 C 556 610 567 585 567 560 C 567 539 561 522 550 510 C 538 498 525 492 509 492 C 494 492 480 496 468 504 C 455 512 449 523 449 539 C 449 552 452 563 459 572 C 466 581 476 589 489 595 C 484 600 476 607 466 617 C 455 627 439 634 419 640 L 356 390 C 367 384 379 378 393 372 C 406 365 420 357 434 349 C 460 332 482 312 500 288 C 518 264 527 237 527 207 C 527 179 520 152 508 126 C 495 100 477 77 454 58 C 431 38 404 23 372 11 C 340 -1 304 -7 266 -7 L 256 -7 L 223 -136 L 176 -136 L 209 -5 C 149 1 102 18 70 46 C 37 74 21 107 21 146 C 21 168 27 185 40 199 C 53 213 69 220 88 220 C 109 220 125 215 137 205 C 149 195 155 183 155 168 C 155 155 150 142 142 130 C 134 118 120 107 100 99 C 109 86 123 73 142 61 C 161 49 187 41 219 38 L 290 317 C 279 321 269 326 259 330 C 249 334 241 339 233 344 C 221 351 208 359 195 369 C 181 378 169 389 159 401 C 148 413 139 427 132 442 C 125 457 122 474 122 493 C 122 520 128 545 140 569 C 152 593 169 613 191 631 C 212 649 237 663 266 673 C 295 683 326 689 359 689 L 383 689 L 396 740 L 444 740 L 430 684 Z M 313 406 L 373 646 L 358 646 C 335 646 315 642 298 635 C 280 627 266 618 254 606 C 242 594 234 580 228 565 C 222 550 220 535 220 520 C 220 503 224 486 233 469 C 241 452 257 437 279 424 C 284 420 289 417 295 414 C 301 411 307 408 313 406 Z M 267 36 C 313 37 352 51 383 77 C 414 103 430 137 430 181 C 430 196 424 214 414 236 C 404 257 384 275 356 290 C 352 292 348 294 345 296 C 341 298 338 299 334 301 L 267 36 Z" unicode="$" />
<glyph horiz-adv-x="922" d="M 742 702 L 781 676 L 248 -37 L 187 6 L 646 572 L 644 574 C 638 570 628 564 616 556 C 603 548 588 539 570 531 C 552 523 530 515 506 508 C 482 501 455 496 425 494 C 421 468 412 443 400 420 C 387 397 371 377 353 361 C 335 344 314 331 292 321 C 270 311 247 306 223 306 C 203 306 184 309 166 317 C 148 325 132 336 118 350 C 104 364 93 381 85 401 C 77 421 73 443 73 467 C 73 494 78 521 88 549 C 98 576 113 600 132 622 C 150 643 172 660 198 674 C 224 688 252 695 283 695 C 325 695 359 679 386 648 C 412 616 426 579 428 535 C 470 539 507 547 541 560 C 575 573 604 588 630 604 C 656 620 678 636 696 654 C 714 672 730 688 742 702 Z M 230 615 C 230 600 238 584 256 567 C 274 550 304 539 346 535 L 346 565 C 346 593 340 615 329 630 C 317 645 300 653 278 653 C 264 653 253 649 244 643 C 234 637 230 627 230 615 Z M 223 348 C 239 348 253 352 266 361 C 279 369 291 381 301 395 C 311 409 319 424 325 442 C 331 460 336 477 340 495 C 302 500 269 512 241 531 C 213 550 199 575 197 606 C 180 580 169 550 164 516 C 158 482 156 451 156 423 C 156 398 162 379 175 367 C 187 354 203 348 223 348 Z M 761 379 C 803 379 837 363 865 331 C 892 299 906 260 906 215 C 906 185 900 156 889 129 C 877 101 862 77 844 57 C 825 37 803 20 778 8 C 753 -3 727 -10 701 -10 C 681 -10 662 -6 644 1 C 626 9 610 20 596 34 C 582 48 571 65 563 85 C 555 105 551 127 551 151 C 551 178 556 205 566 233 C 576 260 591 284 610 306 C 628 328 650 345 676 359 C 702 372 730 379 761 379 Z M 701 32 C 723 32 741 39 757 55 C 773 70 785 89 795 111 C 805 133 812 156 817 181 C 821 206 824 228 824 248 C 824 276 818 298 807 314 C 795 329 778 337 756 337 C 732 337 712 328 696 311 C 680 294 668 274 659 250 C 649 226 643 201 639 175 C 635 149 634 127 634 110 C 634 84 640 64 653 51 C 665 38 681 32 701 32 Z" unicode="%" />
<glyph horiz-adv-x="796" d="M 543 391 L 793 391 L 790 369 C 789 361 784 356 775 352 C 766 348 756 345 746 342 C 736 338 727 335 720 333 C 712 331 705 327 697 322 C 689 316 681 309 671 299 C 661 289 648 275 633 258 C 614 236 594 214 572 192 C 550 169 527 148 503 129 C 523 101 544 81 568 68 C 591 55 616 49 643 49 C 657 49 672 51 689 57 C 705 62 721 68 736 75 L 747 35 C 724 22 701 11 677 2 C 653 -6 621 -11 583 -11 C 550 -11 521 -3 496 11 C 471 26 448 46 428 71 C 392 46 357 26 325 11 C 292 -3 257 -11 220 -11 C 186 -11 155 -6 129 3 C 103 12 81 24 64 40 C 46 56 33 74 25 95 C 16 115 12 137 12 160 C 12 220 33 271 77 313 C 121 355 182 391 262 423 C 256 442 252 462 249 483 C 245 503 244 523 244 541 C 244 567 248 593 258 617 C 267 641 281 663 299 681 C 317 699 339 713 366 724 C 393 735 424 741 460 741 C 486 741 508 737 527 730 C 546 722 562 713 574 701 C 586 689 595 675 601 660 C 607 645 610 630 610 616 C 610 567 588 526 545 493 C 502 460 444 433 371 412 C 383 370 400 326 421 280 C 442 234 462 194 481 162 C 500 178 518 196 535 215 C 551 233 565 250 576 265 C 586 279 592 290 596 298 C 599 306 601 312 601 316 C 601 322 598 328 593 332 C 587 336 577 341 563 348 C 552 352 545 356 542 358 C 539 360 538 364 539 369 L 543 391 Z M 359 449 C 397 461 428 476 450 493 C 472 509 488 525 499 541 C 509 557 516 572 518 586 C 520 600 522 611 522 619 C 522 644 514 663 499 676 C 484 689 467 696 447 696 C 409 696 383 682 367 655 C 351 627 343 595 343 557 C 343 541 344 524 347 506 C 349 487 353 468 359 449 Z M 272 60 C 296 60 319 64 340 72 C 360 80 381 91 402 104 C 378 140 356 181 335 225 C 314 269 293 322 273 384 C 215 357 175 328 154 297 C 132 265 122 231 122 195 C 122 157 134 125 159 99 C 184 73 222 60 272 60 Z" unicode="&#x26;" />
<glyph horiz-adv-x="258" d="M 227 740 C 243 740 257 735 268 726 C 278 717 284 705 284 691 C 284 688 283 685 283 682 C 282 678 281 675 281 672 C 279 663 274 650 267 634 C 260 618 252 599 243 579 C 233 559 223 537 212 515 C 201 493 191 471 182 450 C 179 448 177 447 175 447 C 173 446 171 446 168 446 C 163 446 159 447 157 449 C 155 451 153 454 153 457 C 155 479 156 503 158 527 C 159 551 160 575 162 597 C 164 619 166 639 168 657 C 170 675 172 688 174 697 C 177 709 183 720 193 728 C 202 736 213 740 227 740 Z" unicode="'" />
<glyph horiz-adv-x="364" d="M 423 740 L 448 709 C 351 645 275 562 220 462 C 164 362 137 243 137 106 C 137 54 144 3 160 -46 C 176 -95 198 -135 227 -166 L 189 -189 C 144 -148 108 -95 82 -31 C 55 32 42 100 42 172 C 42 236 52 295 72 350 C 92 405 119 456 153 502 C 187 548 227 591 274 631 C 320 670 370 706 423 740 Z" unicode="(" />
<glyph horiz-adv-x="364" d="M 159 740 C 203 699 239 646 265 582 C 291 517 305 449 305 378 C 305 313 295 253 275 198 C 255 143 228 93 194 47 C 160 1 119 -41 73 -80 C 26 -119 -23 -155 -76 -189 L -100 -158 C -3 -94 72 -11 127 88 C 182 188 210 307 210 444 C 210 498 202 550 187 598 C 171 646 149 686 120 717 L 159 740 Z" unicode=")" />
<glyph horiz-adv-x="505" d="M 471 650 C 483 650 494 645 503 637 C 511 629 516 619 516 607 C 516 599 514 591 510 584 C 506 577 500 571 492 567 C 480 559 469 555 460 553 C 450 551 441 550 431 549 C 421 548 409 546 397 543 C 385 540 370 534 352 524 C 369 514 384 508 396 505 C 408 502 420 500 430 499 C 440 498 449 497 459 495 C 468 493 479 488 491 482 C 499 477 505 471 509 463 C 513 455 515 448 515 441 C 515 429 510 418 502 410 C 493 401 483 397 472 397 C 459 397 447 402 435 412 C 423 422 413 432 405 444 C 399 452 391 461 383 470 C 375 478 360 489 340 501 C 340 479 342 463 346 451 C 349 439 352 428 356 420 C 360 411 363 403 366 395 C 369 387 371 376 371 362 C 371 347 366 336 358 328 C 349 320 339 316 328 316 C 315 316 304 320 296 328 C 288 336 284 348 284 362 C 284 376 285 387 288 395 C 291 403 294 411 298 419 C 301 427 304 438 308 450 C 312 462 314 479 315 501 C 295 490 280 480 272 472 C 263 463 256 455 252 449 C 244 439 235 428 224 416 C 212 404 199 399 185 399 C 172 399 161 403 153 411 C 144 419 140 430 140 442 C 140 450 141 457 145 464 C 149 471 155 477 164 482 C 176 489 186 493 196 495 C 206 497 215 498 225 499 C 235 500 246 502 258 505 C 270 508 285 514 303 524 C 285 533 270 539 258 543 C 246 546 235 548 225 550 C 215 551 206 553 197 555 C 187 557 177 562 165 569 C 156 573 150 579 146 586 C 142 593 141 600 141 608 C 141 620 145 630 154 639 C 162 647 172 652 184 652 C 196 652 208 647 220 637 C 232 627 242 616 251 605 C 257 596 264 587 272 578 C 280 569 294 559 316 548 C 315 569 313 586 309 598 C 305 610 302 620 299 629 C 295 637 292 646 289 654 C 286 662 285 673 285 687 C 285 701 289 713 298 721 C 306 729 316 733 328 733 C 340 733 351 728 359 720 C 367 712 372 701 372 687 C 372 673 370 662 367 654 C 364 646 361 637 357 629 C 353 620 350 610 347 598 C 343 586 341 569 341 548 C 361 558 375 568 384 576 C 392 584 399 592 404 600 C 411 610 420 620 432 632 C 443 644 456 650 471 650 Z" unicode="*" />
<glyph horiz-adv-x="774" d="M 669 327 L 669 259 L 440 259 L 440 32 L 370 32 L 370 259 L 141 259 L 141 327 L 370 327 L 370 554 L 440 554 L 440 327 L 669 327 Z" unicode="+" />
<glyph horiz-adv-x="261" d="M 97 120 C 119 120 136 113 148 101 C 160 89 166 73 166 55 C 166 20 152 -16 124 -55 C 96 -94 54 -125 -4 -149 L -27 -121 C -3 -107 19 -91 43 -73 C 67 -55 85 -31 97 -3 C 70 1 52 8 42 19 C 32 29 27 41 27 54 C 27 74 34 90 49 102 C 64 114 80 120 97 120 Z" unicode="," />
<glyph horiz-adv-x="340" d="M 62 264 L 298 264 L 277 182 L 40 182 L 62 264 Z" unicode="-" />
<glyph horiz-adv-x="261" d="M 95 129 C 114 129 130 122 144 109 C 157 95 164 80 164 62 C 164 43 157 27 144 14 C 130 0 114 -6 95 -6 C 76 -6 60 0 47 14 C 34 27 28 43 28 62 C 28 80 34 95 47 109 C 60 122 76 129 95 129 Z" unicode="." />
<glyph horiz-adv-x="479" d="M 476 730 L 550 730 L -46 -190 L -118 -190 L 476 730 Z" unicode="/" />
<glyph horiz-adv-x="626" d="M 386 695 C 452 695 504 670 544 622 C 584 573 604 509 604 430 C 604 376 595 322 579 270 C 562 217 539 170 510 129 C 481 87 446 54 406 28 C 366 2 322 -10 276 -10 C 212 -10 159 13 119 61 C 78 109 58 173 58 255 C 58 309 66 362 82 415 C 98 467 121 514 150 556 C 179 597 214 630 254 656 C 294 682 338 695 386 695 Z M 276 39 C 312 39 345 54 373 84 C 401 114 424 151 442 196 C 460 240 474 289 484 342 C 493 394 498 443 498 489 C 498 545 487 586 467 610 C 446 634 419 647 385 647 C 348 647 316 631 288 601 C 260 570 236 532 218 486 C 200 440 186 391 177 339 C 167 286 163 238 163 194 C 163 138 173 99 194 75 C 214 51 242 39 276 39 Z" unicode="0" />
<glyph horiz-adv-x="419" d="M 326 688 L 371 688 L 228 118 C 226 112 225 106 223 99 C 221 91 221 86 221 84 C 221 75 224 68 231 63 C 237 57 249 53 265 51 C 276 49 286 46 294 43 C 302 39 304 33 302 25 L 295 0 L 4 0 L 11 24 C 13 33 20 39 30 42 C 40 44 51 47 64 50 C 83 54 96 59 104 67 C 111 74 117 86 121 102 L 244 588 L 129 588 L 139 626 L 326 688 Z" unicode="1" />
<glyph horiz-adv-x="534" d="M 312 695 C 344 695 373 690 400 681 C 427 672 450 660 469 645 C 488 630 503 612 514 592 C 525 571 531 549 531 527 C 531 491 522 460 506 432 C 490 404 469 379 445 357 C 421 335 394 315 366 297 C 337 279 310 261 286 245 C 236 211 196 183 164 160 C 132 136 102 112 76 88 L 336 88 C 356 88 373 91 385 98 C 397 104 411 119 426 142 C 430 148 433 153 437 155 C 441 157 445 158 450 158 L 481 158 L 435 0 L -23 0 L -4 74 C 9 88 26 105 46 124 C 66 143 87 163 110 183 C 133 203 157 223 181 243 C 205 263 229 282 251 299 C 309 343 352 384 378 420 C 404 456 418 495 418 535 C 418 565 406 591 382 613 C 358 635 328 646 292 646 C 265 646 240 640 216 630 C 192 620 176 608 170 594 C 178 586 186 577 193 567 C 200 557 204 547 204 535 C 204 519 198 505 187 495 C 176 485 162 480 146 480 C 124 480 108 486 96 499 C 84 512 78 528 78 547 C 78 565 84 583 96 601 C 108 619 125 634 146 648 C 167 662 192 673 220 682 C 248 690 279 695 312 695 Z" unicode="2" />
<glyph horiz-adv-x="539" d="M 310 695 C 340 695 368 691 395 684 C 421 676 444 666 464 653 C 483 640 498 625 510 607 C 521 589 527 569 527 548 C 527 523 521 501 510 481 C 498 461 483 443 465 428 C 446 413 424 401 399 391 C 374 381 348 375 321 371 C 343 367 364 360 385 352 C 405 343 423 332 439 318 C 454 304 466 288 476 270 C 485 252 490 231 490 209 C 490 176 482 146 467 119 C 452 92 432 69 407 50 C 381 30 351 15 317 5 C 282 -4 246 -10 208 -10 C 176 -10 147 -6 121 0 C 94 6 71 16 52 28 C 32 40 17 54 6 71 C -4 88 -10 106 -10 126 C -10 142 -4 158 6 172 C 17 186 33 194 54 194 C 74 194 89 189 100 179 C 111 169 117 158 117 146 C 117 132 114 120 108 110 C 102 100 95 92 87 84 C 93 72 105 62 125 52 C 145 42 170 38 201 38 C 229 38 255 43 277 53 C 299 63 318 76 333 93 C 348 109 359 129 367 151 C 375 173 379 196 379 220 C 379 260 361 291 327 314 C 292 337 245 349 185 351 L 197 398 C 273 398 328 411 363 437 C 398 463 416 500 416 549 C 416 575 405 598 384 618 C 362 637 332 647 293 647 C 270 647 250 643 232 637 C 214 630 201 623 192 616 C 200 608 207 601 211 594 C 215 586 218 578 218 569 C 218 554 213 542 203 532 C 193 522 179 517 163 517 C 145 517 130 522 118 532 C 106 542 100 557 100 577 C 100 593 106 609 119 624 C 131 638 147 651 167 661 C 187 671 209 680 235 686 C 260 692 285 695 310 695 Z" unicode="3" />
<glyph horiz-adv-x="554" d="M 474 694 L 538 694 L 424 238 L 534 238 L 518 178 L 408 178 L 388 98 C 386 92 385 87 384 81 C 382 75 382 71 382 69 C 382 63 384 59 389 56 C 393 52 400 48 410 44 C 417 40 422 37 426 35 C 429 33 430 30 430 27 L 422 0 L 207 0 L 215 27 C 215 31 217 33 221 35 C 225 37 232 40 243 44 C 257 49 267 53 272 57 C 277 61 281 69 284 82 L 308 178 L -12 178 L 3 240 L 474 694 Z M 323 238 L 404 559 L 73 238 L 323 238 Z" unicode="4" />
<glyph horiz-adv-x="544" d="M 561 729 L 589 729 L 548 596 L 224 596 L 154 388 C 178 402 202 413 225 422 C 247 430 272 435 300 435 C 334 435 364 429 390 418 C 416 406 438 392 456 374 C 473 356 486 335 496 312 C 505 288 510 265 510 242 C 510 205 502 171 486 140 C 470 109 450 83 424 61 C 398 39 367 21 332 9 C 297 -3 260 -10 222 -10 C 158 -10 106 3 66 30 C 26 56 6 89 6 127 C 6 143 11 159 23 174 C 34 188 50 196 71 196 C 90 196 105 191 116 181 C 126 171 132 161 132 149 C 132 133 129 120 123 111 C 117 101 110 92 104 84 C 108 72 121 62 142 52 C 162 42 186 37 213 37 C 243 37 270 42 293 54 C 316 66 335 81 351 100 C 366 118 377 140 385 164 C 393 188 397 212 397 237 C 397 273 385 305 361 333 C 337 360 303 374 257 374 C 227 374 202 368 182 357 C 161 345 139 333 117 319 L 85 344 L 193 684 L 475 684 C 495 684 509 686 516 690 C 522 694 530 701 538 713 C 542 719 545 724 549 726 C 552 728 556 729 561 729 Z" unicode="5" />
<glyph horiz-adv-x="594" d="M 425 695 C 474 695 514 685 545 666 C 575 647 591 624 591 597 C 591 577 585 561 573 548 C 561 534 545 528 527 528 C 509 528 495 532 486 541 C 476 550 472 561 472 575 C 472 584 473 594 475 604 C 477 614 479 623 481 630 C 478 632 470 636 458 640 C 445 644 430 647 413 647 C 391 647 369 641 346 631 C 322 620 300 603 279 581 C 257 558 238 528 220 492 C 202 455 187 411 177 360 C 201 377 228 392 260 405 C 292 417 325 424 360 424 C 390 424 417 419 441 409 C 465 399 486 386 503 370 C 520 353 533 333 543 311 C 552 288 557 264 557 239 C 557 209 550 180 537 150 C 524 120 506 93 482 70 C 458 46 430 27 396 12 C 362 -2 324 -10 283 -10 C 246 -10 213 -3 185 9 C 156 21 132 39 113 62 C 94 84 80 111 70 143 C 60 174 55 208 55 246 C 55 300 64 355 82 409 C 100 463 126 511 158 553 C 190 595 229 629 275 655 C 321 681 371 695 425 695 Z M 282 37 C 309 37 333 43 353 56 C 373 68 390 84 404 104 C 417 124 427 146 433 171 C 439 195 443 220 443 244 C 443 276 432 303 412 327 C 392 350 362 362 323 362 C 289 362 257 354 228 340 C 198 326 179 314 169 304 C 165 288 163 273 161 257 C 159 241 159 228 159 217 C 159 192 161 169 166 147 C 170 125 178 106 188 90 C 198 74 210 61 226 51 C 242 41 260 37 282 37 Z" unicode="6" />
<glyph horiz-adv-x="490" d="M 246 684 L 571 684 L 558 633 C 517 583 479 536 443 492 C 407 448 376 404 348 360 C 320 316 297 272 279 226 C 260 180 247 130 240 78 C 236 47 227 25 215 11 C 203 -3 186 -10 164 -10 C 146 -10 133 -6 123 2 C 113 10 108 23 108 43 C 108 71 120 108 145 154 C 169 200 201 252 241 309 C 275 359 313 409 354 461 C 394 513 432 558 466 596 L 185 596 C 165 596 150 591 141 583 C 132 575 124 564 117 552 C 113 546 110 541 106 539 C 102 537 97 536 93 536 L 61 536 L 111 690 C 125 688 146 687 173 686 C 199 684 224 684 246 684 Z" unicode="7" />
<glyph horiz-adv-x="559" d="M 352 695 C 412 695 460 680 498 652 C 536 623 555 588 555 547 C 555 526 550 506 540 487 C 530 468 517 451 501 436 C 485 421 467 408 447 397 C 427 386 406 378 386 372 C 428 348 462 323 488 297 C 514 271 527 238 527 200 C 527 168 519 138 505 112 C 490 86 470 64 446 46 C 422 28 393 14 361 4 C 328 -6 294 -11 258 -11 C 186 -11 129 5 85 38 C 41 70 20 111 20 159 C 20 185 26 210 38 232 C 50 254 66 273 85 290 C 104 306 125 320 148 332 C 171 343 193 352 215 358 C 186 377 163 398 145 421 C 127 444 118 470 118 499 C 118 526 124 552 137 576 C 149 600 166 620 188 638 C 209 656 234 670 262 680 C 290 690 320 695 352 695 Z M 341 398 C 373 408 402 426 428 452 C 454 477 467 509 467 547 C 467 575 455 598 433 618 C 411 637 382 647 347 647 C 309 647 277 635 251 613 C 225 590 213 562 213 530 C 213 501 226 476 252 456 C 278 435 307 416 341 398 Z M 261 37 C 307 37 346 49 379 75 C 411 101 428 134 428 174 C 428 191 423 207 414 222 C 405 236 393 250 378 262 C 363 274 346 286 326 297 C 306 308 285 319 264 330 C 250 325 234 318 216 310 C 198 302 182 291 166 278 C 150 264 137 248 127 228 C 116 208 111 185 111 159 C 111 123 125 94 153 71 C 181 48 217 37 261 37 Z" unicode="8" />
<glyph horiz-adv-x="594" d="M 341 695 C 378 695 411 688 440 675 C 468 662 492 644 511 622 C 530 599 545 572 555 541 C 565 509 570 476 570 440 C 570 386 561 332 543 278 C 525 224 501 176 469 134 C 437 91 397 56 351 30 C 305 3 253 -10 197 -10 C 140 -10 97 0 68 21 C 38 42 24 65 24 91 C 24 109 30 125 43 138 C 55 151 71 158 91 158 C 107 158 120 154 130 146 C 139 138 144 127 144 115 C 144 108 143 99 141 89 C 139 78 136 67 134 56 C 138 52 147 48 161 44 C 175 40 191 38 209 38 C 233 38 257 43 281 54 C 305 64 327 81 349 104 C 370 126 389 156 407 193 C 424 229 438 274 450 326 C 425 308 396 292 364 279 C 332 266 298 260 264 260 C 207 260 160 277 124 312 C 88 346 70 390 70 442 C 70 474 77 505 91 535 C 105 565 124 592 148 616 C 172 640 200 659 234 673 C 267 687 303 695 341 695 Z M 457 382 C 460 398 462 414 464 430 C 466 445 467 460 467 476 C 467 499 464 521 459 542 C 454 562 447 580 437 596 C 427 612 414 624 398 633 C 382 642 364 647 343 647 C 318 647 296 640 276 628 C 256 615 240 599 226 579 C 212 559 202 537 194 513 C 186 488 183 464 183 440 C 183 405 193 377 213 355 C 233 333 264 323 304 323 C 337 323 368 330 398 344 C 427 358 447 371 457 382 Z" unicode="9" />
<glyph horiz-adv-x="283" d="M 177 437 C 195 437 211 430 225 417 C 239 403 246 388 246 370 C 246 351 239 335 226 322 C 212 308 196 302 178 302 C 159 302 143 308 130 322 C 116 335 110 351 110 370 C 110 388 116 403 129 417 C 142 430 158 437 177 437 Z M 106 129 C 125 129 141 122 155 109 C 168 95 175 80 175 62 C 175 43 168 27 155 14 C 141 0 125 -6 106 -6 C 87 -6 71 0 58 14 C 45 27 39 43 39 62 C 39 80 45 95 58 109 C 71 122 87 129 106 129 Z" unicode=":" />
<glyph horiz-adv-x="283" d="M 177 437 C 195 437 211 430 225 417 C 239 403 246 388 246 370 C 246 351 239 335 226 322 C 212 308 196 302 178 302 C 159 302 143 308 130 322 C 116 335 110 351 110 370 C 110 388 116 403 129 417 C 142 430 158 437 177 437 Z M 108 120 C 130 120 147 113 159 101 C 171 88 177 72 177 54 C 177 36 173 18 167 0 C 160 -19 150 -38 136 -56 C 122 -74 104 -91 83 -107 C 61 -123 36 -137 7 -149 L -17 -121 C 7 -107 30 -91 54 -73 C 78 -55 96 -31 108 -3 C 81 1 63 8 53 19 C 43 29 38 41 38 54 C 38 74 45 90 60 102 C 75 114 91 120 108 120 Z" unicode=";" />
<glyph horiz-adv-x="774" d="M 661 102 L 661 26 L 149 260 L 149 327 L 661 561 L 661 484 L 234 293 L 661 102 Z" unicode="&#x3C;" />
<glyph horiz-adv-x="774" d="M 663 402 L 663 334 L 147 334 L 147 402 L 663 402 Z M 663 216 L 663 148 L 147 148 L 147 216 L 663 216 Z" unicode="=" />
<glyph horiz-adv-x="774" d="M 661 327 L 661 260 L 149 26 L 149 102 L 576 293 L 149 485 L 149 561 L 661 327 Z" unicode="&#x3E;" />
<glyph horiz-adv-x="461" d="M 285 741 C 309 741 332 737 355 731 C 378 725 398 716 416 704 C 434 692 448 676 459 658 C 470 640 476 619 476 596 C 476 558 465 527 443 502 C 421 477 392 450 355 420 C 305 380 270 344 252 312 C 233 280 219 244 211 204 C 210 201 207 198 203 196 C 198 194 192 193 186 193 C 179 193 173 194 168 198 C 163 202 161 205 162 207 C 168 241 178 274 192 307 C 206 340 230 378 263 420 C 281 443 296 463 309 479 C 322 495 333 509 341 523 C 349 536 356 549 360 563 C 364 576 366 592 366 611 C 366 644 357 667 339 681 C 321 695 300 702 278 702 C 264 702 250 698 234 692 C 218 686 205 677 197 666 C 207 657 213 649 216 642 C 219 634 221 628 221 623 C 221 604 215 590 205 580 C 194 570 181 565 166 565 C 145 565 129 570 118 582 C 106 594 101 607 101 623 C 101 637 105 651 114 665 C 122 679 134 692 150 703 C 166 714 185 723 208 730 C 231 737 257 741 285 741 Z M 167 127 C 186 127 202 120 216 107 C 229 94 236 79 236 61 C 236 42 229 26 216 13 C 202 0 186 -6 167 -6 C 148 -6 132 0 119 13 C 106 26 100 42 100 61 C 100 79 106 94 119 107 C 132 120 148 127 167 127 Z" unicode="?" />
<glyph horiz-adv-x="1024" d="M 572 653 C 630 653 682 644 729 628 C 776 612 816 589 849 559 C 882 529 907 494 925 453 C 943 412 952 367 952 319 C 952 279 945 240 931 202 C 917 164 898 129 874 99 C 849 69 819 44 784 26 C 748 7 709 -2 667 -2 C 634 -2 612 5 602 21 C 592 37 586 50 586 61 C 560 43 536 29 516 19 C 495 9 468 5 436 5 C 392 5 359 16 338 40 C 316 64 306 97 306 139 C 306 181 318 223 342 265 C 366 307 397 345 435 378 C 461 400 489 418 519 430 C 549 442 578 448 607 448 C 628 448 646 444 662 438 C 678 432 691 422 701 410 L 747 441 L 768 441 L 684 134 C 681 124 679 115 677 105 C 675 95 674 85 674 77 C 674 66 676 58 680 52 C 684 46 691 44 699 44 C 726 44 752 52 776 68 C 800 84 821 105 839 132 C 857 158 871 189 881 223 C 891 257 896 293 896 330 C 896 366 888 401 874 434 C 860 467 839 496 812 521 C 785 546 752 566 714 581 C 675 595 631 603 583 603 C 524 603 469 592 419 571 C 368 549 324 520 288 484 C 251 447 222 403 201 353 C 179 303 169 249 169 192 C 169 141 178 94 197 52 C 215 10 241 -25 274 -55 C 307 -85 347 -108 393 -125 C 439 -141 490 -150 546 -150 C 599 -150 651 -141 702 -125 C 752 -108 803 -83 853 -49 L 875 -86 C 824 -122 771 -150 716 -169 C 661 -188 605 -198 547 -198 C 474 -198 409 -187 352 -167 C 294 -147 246 -119 207 -83 C 167 -47 137 -5 116 43 C 95 92 85 145 85 203 C 85 265 97 323 123 378 C 149 433 183 481 227 521 C 271 561 322 593 382 617 C 442 641 505 653 572 653 Z M 643 318 C 645 326 647 336 648 347 C 649 357 650 365 650 371 C 650 381 646 390 638 396 C 630 402 618 406 602 406 C 582 406 562 401 544 392 C 526 383 509 370 493 353 C 468 325 447 293 431 255 C 414 217 406 182 406 150 C 406 120 412 98 426 82 C 440 66 461 59 489 59 C 504 59 521 63 539 72 C 557 81 572 93 586 108 L 643 318 Z" unicode="@" />
<glyph horiz-adv-x="719" d="M 649 45 C 659 40 666 37 669 35 C 672 33 673 29 673 25 L 667 0 L 434 0 L 439 20 C 440 24 443 28 447 31 C 451 33 459 37 471 42 C 482 46 490 51 496 56 C 501 60 504 66 504 73 C 504 75 503 80 502 88 C 501 95 500 102 500 109 L 484 204 L 176 204 L 112 110 C 108 105 104 98 98 88 C 92 78 89 70 89 65 C 89 59 91 53 97 49 C 103 45 110 41 118 39 C 127 35 133 31 137 28 C 140 24 141 20 141 15 L 138 0 L -70 0 L -64 20 C -63 24 -61 28 -58 31 C -54 34 -48 38 -38 43 C -20 53 -8 61 0 69 C 8 76 18 88 30 105 L 404 633 L 392 683 C 391 685 391 688 391 690 C 391 692 391 693 392 695 C 392 696 393 697 395 699 C 396 700 398 701 401 703 C 414 709 426 714 436 719 C 446 723 458 729 471 735 C 473 735 475 736 478 738 C 481 740 484 741 486 741 C 488 741 490 740 492 739 C 493 738 494 736 495 734 L 611 90 C 613 80 617 71 623 63 C 629 55 638 49 649 45 Z M 211 255 L 475 255 L 421 560 L 211 255 Z" unicode="A" />
<glyph horiz-adv-x="671" d="M 414 730 C 493 730 552 715 591 686 C 629 656 649 620 649 577 C 649 529 629 487 590 451 C 550 415 497 393 429 383 C 457 380 483 374 507 366 C 531 358 551 347 569 333 C 587 319 601 302 611 283 C 621 263 626 242 626 218 C 626 154 598 101 544 61 C 490 20 414 0 317 0 L -24 0 L -18 25 C -16 31 -14 34 -10 36 C -6 37 2 40 15 45 C 30 50 40 55 44 59 C 48 63 51 72 54 85 L 192 633 C 193 639 194 644 195 650 C 195 655 196 659 196 662 C 196 667 193 671 188 675 C 183 678 176 681 168 685 C 160 688 153 690 149 692 C 145 693 143 696 143 700 C 143 701 143 703 144 706 C 144 709 145 712 146 715 L 150 730 L 414 730 Z M 332 404 C 400 404 450 419 482 451 C 513 483 529 524 529 575 C 529 607 516 633 491 653 C 466 672 425 682 369 682 L 314 682 L 244 404 L 332 404 Z M 277 49 C 359 49 417 65 451 97 C 485 129 502 174 502 232 C 502 272 486 302 456 322 C 425 341 375 351 307 351 L 231 351 L 154 49 L 277 49 Z" unicode="B" />
<glyph horiz-adv-x="670" d="M 689 699 L 716 699 L 671 521 L 637 521 C 630 521 626 522 624 525 C 622 527 621 531 621 535 C 615 581 597 618 569 647 C 540 676 501 691 452 691 C 412 691 374 679 340 657 C 305 635 275 605 249 568 C 223 531 203 488 189 439 C 174 389 167 338 167 285 C 167 243 172 207 182 177 C 192 147 206 122 224 102 C 242 82 263 68 287 59 C 311 49 338 45 366 45 C 397 45 426 49 453 59 C 480 68 504 79 524 91 C 544 103 562 116 576 129 C 590 142 600 152 607 159 L 637 119 C 627 106 613 92 596 77 C 578 61 558 47 534 34 C 510 21 484 10 454 2 C 424 -6 392 -11 358 -11 C 306 -11 261 -2 223 14 C 184 30 152 53 126 82 C 100 111 81 145 68 184 C 55 223 49 265 49 310 C 49 374 60 433 83 486 C 105 539 135 584 171 622 C 207 660 249 689 296 710 C 343 730 391 741 439 741 C 464 741 486 739 505 737 C 523 734 540 730 555 726 C 569 722 583 716 595 710 C 607 704 620 697 634 691 C 638 688 643 686 647 685 C 651 683 656 684 662 687 C 670 691 675 694 678 696 C 680 698 684 699 689 699 Z" unicode="C" />
<glyph horiz-adv-x="759" d="M 381 730 C 438 730 489 722 534 708 C 579 694 617 674 648 648 C 678 622 702 590 718 554 C 734 517 742 476 742 431 C 742 367 730 308 708 256 C 685 204 654 159 614 121 C 570 79 519 48 463 29 C 406 9 345 0 280 0 L -24 0 L -18 25 C -16 31 -14 34 -10 36 C -6 37 2 40 15 45 C 30 50 40 55 44 59 C 48 63 51 72 54 85 L 192 633 C 193 639 194 644 195 650 C 195 655 196 659 196 662 C 196 667 193 671 188 675 C 183 678 176 681 168 685 C 160 688 153 690 149 692 C 145 693 143 696 143 700 C 143 701 143 703 144 706 C 144 709 145 712 146 715 L 150 730 L 381 730 Z M 521 144 C 553 178 578 222 594 275 C 610 327 619 387 619 453 C 619 529 596 587 550 625 C 504 663 440 682 357 682 L 314 682 L 154 48 L 260 48 C 313 48 361 54 404 68 C 446 81 485 106 521 144 Z" unicode="D" />
<glyph horiz-adv-x="636" d="M 564 730 C 570 730 578 730 588 731 C 598 731 607 732 617 733 C 627 734 636 735 645 736 C 654 736 661 737 667 738 L 630 589 L 605 589 C 597 589 591 590 587 593 C 583 595 580 599 580 605 C 578 621 576 633 574 643 C 572 653 568 660 563 666 C 557 671 549 675 539 677 C 529 679 514 680 495 680 L 314 680 L 242 400 L 344 400 C 364 400 378 402 387 408 C 395 414 406 426 419 444 C 423 450 428 455 433 458 C 437 461 444 463 454 463 L 478 463 L 432 280 L 405 280 C 397 280 391 282 388 286 C 384 290 382 295 381 301 C 377 318 372 330 367 338 C 361 345 350 349 334 349 L 230 349 L 154 50 L 387 50 C 417 50 441 57 458 71 C 475 85 495 109 519 145 C 523 151 527 156 531 160 C 534 163 539 165 546 165 L 578 165 L 536 0 L -24 0 L -18 25 C -16 31 -14 34 -10 36 C -6 37 2 40 15 45 C 30 50 40 55 44 59 C 48 63 51 72 54 85 L 192 633 C 193 639 194 644 195 650 C 195 655 196 659 196 662 C 196 667 193 671 188 675 C 183 678 176 681 168 685 C 160 688 153 690 149 692 C 145 693 143 696 143 700 C 143 701 143 703 144 706 C 144 709 145 712 146 715 L 150 730 L 564 730 Z" unicode="E" />
<glyph horiz-adv-x="609" d="M 598 730 C 616 730 636 731 656 733 C 676 735 690 737 700 738 L 664 587 L 635 587 C 626 587 620 588 618 591 C 616 594 614 598 614 603 C 612 632 607 652 598 663 C 589 674 566 680 528 680 L 314 680 L 241 397 L 370 397 C 390 397 405 399 413 404 C 421 409 432 421 446 440 C 450 446 455 450 459 454 C 463 457 470 459 480 459 L 502 459 L 456 276 L 429 276 C 421 276 416 278 414 283 C 411 287 409 292 408 297 C 403 315 398 327 392 335 C 386 342 375 346 359 346 L 229 346 L 166 97 C 164 91 163 85 163 80 C 162 74 162 70 162 68 C 162 62 164 58 170 54 C 175 50 182 47 191 45 C 199 42 205 40 209 38 C 213 36 216 34 216 30 C 216 28 215 26 215 23 C 214 20 213 17 213 15 L 209 0 L -23 0 L -17 25 C -15 31 -13 34 -9 36 C -5 37 2 40 15 45 C 30 50 40 55 44 59 C 48 63 51 72 54 85 L 192 633 C 193 639 194 644 195 650 C 195 655 196 659 196 662 C 196 667 193 671 188 675 C 183 678 176 681 168 685 C 160 688 153 690 149 692 C 145 693 143 696 143 700 C 143 701 143 703 144 706 C 144 709 145 712 146 715 L 150 730 L 598 730 Z" unicode="F" />
<glyph horiz-adv-x="752" d="M 706 694 L 733 694 L 689 519 L 655 519 C 648 519 644 520 642 523 C 640 525 639 529 639 533 C 632 580 613 618 583 647 C 553 676 511 691 459 691 C 417 691 378 679 342 657 C 306 635 275 605 249 569 C 223 532 203 490 189 442 C 174 394 167 344 167 294 C 167 254 172 218 184 186 C 196 154 212 127 233 105 C 254 83 279 66 309 54 C 338 42 370 36 405 36 C 451 36 482 45 498 63 C 514 81 525 102 531 125 L 559 233 C 561 241 560 248 555 254 C 549 260 541 265 531 270 C 520 274 513 278 511 280 C 508 282 507 285 508 290 L 514 315 L 692 315 C 688 307 684 296 680 283 C 675 270 671 259 669 251 L 636 130 C 633 121 633 114 635 108 C 637 102 645 98 659 94 C 669 90 676 88 680 86 C 683 84 684 81 683 77 L 676 56 C 640 41 599 26 553 11 C 507 -3 458 -11 404 -11 C 344 -11 292 -2 248 15 C 203 33 166 56 137 86 C 107 116 85 150 71 190 C 56 229 49 270 49 313 C 49 371 59 426 81 478 C 103 530 132 575 169 614 C 206 652 250 683 300 706 C 350 729 403 741 459 741 C 499 741 533 736 562 728 C 591 719 621 706 652 689 C 660 684 665 681 669 680 C 673 679 676 680 680 682 C 688 686 693 689 696 691 C 699 693 702 694 706 694 Z" unicode="G" />
<glyph horiz-adv-x="809" d="M 635 730 L 866 730 L 860 705 C 858 699 856 695 852 694 C 848 692 840 689 828 685 C 812 679 803 674 799 670 C 795 666 792 657 790 645 L 651 97 C 649 90 648 84 648 79 C 647 74 647 70 647 68 C 647 62 649 58 654 55 C 659 51 666 48 675 45 C 683 41 689 39 693 38 C 697 36 700 34 700 30 C 700 28 699 26 699 23 C 698 20 697 17 697 15 L 693 0 L 462 0 L 468 25 C 469 31 471 34 475 36 C 479 37 487 40 500 45 C 515 50 525 55 529 59 C 533 63 536 72 539 85 L 605 350 L 230 350 L 166 97 C 164 90 163 84 163 79 C 162 74 162 70 162 68 C 162 62 164 58 169 54 C 174 50 181 47 190 45 C 198 42 204 40 208 38 C 212 36 215 34 215 30 C 215 28 214 26 214 23 C 213 20 212 17 212 15 L 208 0 L -23 0 L -17 25 C -15 31 -13 34 -9 36 C -5 37 2 40 15 45 C 30 50 40 55 44 59 C 48 63 51 72 54 85 L 192 633 C 193 639 194 644 195 650 C 195 655 196 659 196 662 C 196 667 193 671 188 675 C 183 678 176 681 168 685 C 160 688 153 690 149 692 C 145 693 143 696 143 700 C 143 701 143 703 144 706 C 144 709 145 712 146 715 L 150 730 L 381 730 L 375 705 C 373 699 371 695 367 694 C 363 692 355 689 343 685 C 327 679 318 674 314 670 C 310 666 307 657 305 645 L 243 403 L 618 403 L 677 633 C 678 639 679 644 680 650 C 680 655 681 659 681 662 C 681 667 678 671 673 675 C 668 679 661 682 653 685 C 645 687 638 689 634 691 C 630 693 628 696 628 700 C 628 701 628 703 629 706 C 629 709 630 712 631 715 L 635 730 Z" unicode="H" />
<glyph horiz-adv-x="334" d="M 153 730 L 386 730 L 381 705 C 380 699 377 695 373 694 C 368 692 359 689 347 685 C 331 679 322 674 318 670 C 314 666 311 657 309 645 L 170 97 C 168 90 167 84 167 79 C 166 74 166 70 166 68 C 166 62 168 58 173 54 C 178 50 185 47 194 45 C 202 42 208 40 213 38 C 217 36 220 34 220 30 C 220 28 219 26 219 24 C 219 21 218 18 218 16 L 213 0 L -20 0 L -13 25 C -11 31 -9 34 -5 36 C -1 37 6 40 19 45 C 34 50 44 55 48 59 C 52 63 55 72 58 85 L 196 633 C 197 639 198 644 199 650 C 199 655 200 659 200 662 C 200 667 197 671 192 675 C 187 678 180 681 172 685 C 164 688 157 690 153 692 C 148 693 146 696 146 700 C 146 701 146 703 147 707 C 148 711 149 714 150 717 L 153 730 Z" unicode="I" />
<glyph horiz-adv-x="486" d="M 323 730 L 555 730 L 549 705 C 547 699 545 695 541 694 C 537 692 529 689 517 685 C 501 679 492 674 488 670 C 484 666 481 657 479 645 L 372 203 C 357 140 326 89 280 49 C 233 9 175 -11 105 -11 C 59 -11 23 0 -1 19 C -26 39 -39 63 -39 89 C -39 109 -33 128 -21 144 C -9 160 7 168 30 168 C 48 168 62 163 72 155 C 82 146 87 135 87 122 C 87 110 84 99 79 89 C 74 79 65 71 53 65 C 55 56 62 48 74 41 C 86 34 100 31 115 31 C 143 31 170 40 196 60 C 221 80 239 113 251 160 L 366 633 C 367 639 368 644 369 650 C 369 655 370 659 370 662 C 370 667 367 671 362 675 C 357 678 350 681 342 685 C 334 688 327 690 323 692 C 318 693 316 696 316 700 C 316 701 316 703 317 706 C 317 709 318 712 319 715 L 323 730 Z" unicode="J" />
<glyph horiz-adv-x="710" d="M 531 730 L 776 730 L 771 706 C 769 699 766 695 762 693 C 757 691 745 687 727 682 C 705 675 688 668 677 662 C 666 655 651 644 631 630 L 333 409 L 576 87 C 582 78 591 70 602 63 C 612 55 624 49 637 43 C 647 38 654 35 658 33 C 662 31 663 28 663 24 L 656 0 L 410 0 L 416 24 C 416 28 419 31 425 33 C 430 35 438 39 449 43 C 453 45 457 47 460 50 C 463 52 465 55 465 58 C 465 60 463 65 460 71 C 456 77 452 84 448 90 L 235 374 L 166 97 C 164 91 163 85 163 80 C 162 74 162 70 162 68 C 162 62 164 58 169 54 C 174 50 181 47 190 45 C 198 42 204 40 208 39 C 212 37 215 34 215 30 C 215 28 214 26 214 23 C 213 20 212 17 212 15 L 208 0 L -23 0 L -17 25 C -15 31 -13 34 -9 36 C -5 37 2 40 15 45 C 30 50 40 55 44 59 C 48 63 51 72 54 85 L 192 633 C 193 639 194 644 195 650 C 195 655 196 659 196 662 C 196 667 193 671 188 675 C 183 678 176 681 168 685 C 160 688 153 690 149 692 C 145 693 143 696 143 700 C 143 701 143 703 144 706 C 144 709 145 712 146 715 L 150 730 L 381 730 L 375 705 C 373 699 371 695 367 694 C 363 692 355 689 343 685 C 327 679 318 674 314 670 C 310 666 307 657 305 645 L 241 400 L 546 636 C 554 642 562 649 570 655 C 577 661 581 666 581 669 C 581 673 577 677 569 680 C 561 682 554 685 546 688 C 535 692 529 695 527 698 C 525 700 525 705 527 711 L 531 730 Z" unicode="K" />
<glyph horiz-adv-x="617" d="M 544 169 L 575 169 L 533 0 L -25 0 L -19 25 C -17 31 -14 34 -10 36 C -6 37 2 40 15 45 C 30 50 40 55 44 59 C 48 63 51 72 54 85 L 192 633 C 193 639 194 644 195 650 C 195 655 196 659 196 662 C 196 668 193 672 188 675 C 183 678 176 681 168 685 C 160 688 153 690 149 692 C 145 693 143 696 143 700 C 143 701 143 703 144 706 C 144 709 145 712 146 715 L 150 730 L 381 730 L 375 705 C 373 699 371 695 367 694 C 363 692 355 689 343 685 C 327 679 318 674 314 670 C 310 666 307 657 305 645 L 154 50 L 384 50 C 414 50 438 57 455 73 C 472 88 493 113 517 149 C 521 155 525 160 529 164 C 532 167 537 169 544 169 Z" unicode="L" />
<glyph horiz-adv-x="934" d="M 790 730 L 991 730 L 986 705 C 985 699 982 695 978 694 C 974 692 965 689 953 685 C 937 679 928 674 924 670 C 920 666 917 657 915 645 L 776 97 C 774 91 773 85 773 80 C 772 74 772 70 772 68 C 772 62 774 58 779 54 C 784 50 791 47 800 45 C 808 42 814 40 818 38 C 822 36 825 34 825 30 C 825 28 824 26 824 24 C 824 21 823 18 823 16 L 818 0 L 589 0 L 596 25 C 597 31 599 34 603 36 C 606 37 614 40 627 45 C 642 50 652 55 656 59 C 660 63 663 72 666 85 L 808 649 L 402 11 C 400 8 396 5 391 3 C 385 0 379 -1 372 -1 C 362 -1 356 0 353 2 C 349 4 347 7 347 11 L 266 665 L 134 135 C 132 126 130 118 128 112 C 126 106 126 99 126 93 C 126 84 127 76 131 70 C 135 63 140 56 147 50 C 155 42 162 36 166 34 C 170 32 171 29 171 26 L 165 0 L -30 0 L -23 26 C -22 30 -19 33 -15 35 C -10 37 -1 43 13 52 C 26 60 36 69 44 79 C 51 89 56 99 59 110 L 192 633 C 193 639 194 644 195 650 C 195 655 196 659 196 662 C 196 667 193 671 188 675 C 183 678 176 681 168 685 C 160 688 153 690 149 692 C 145 693 143 696 143 700 C 143 701 143 703 144 706 C 144 709 145 712 146 715 L 150 730 L 364 730 L 433 161 L 790 730 Z" unicode="M" />
<glyph horiz-adv-x="774" d="M 644 730 L 840 730 L 833 704 C 832 700 829 696 825 694 C 820 692 811 686 797 678 C 783 669 773 660 765 650 C 757 640 752 630 750 620 L 594 -5 L 549 -5 L 259 632 L 134 135 C 132 126 130 118 128 112 C 126 106 126 99 126 93 C 126 84 127 76 131 70 C 135 63 140 56 147 50 C 155 42 162 37 166 35 C 170 33 171 30 171 26 L 165 0 L -30 0 L -23 26 C -22 30 -19 33 -15 35 C -10 37 -1 43 13 52 C 26 60 36 69 44 79 C 51 89 56 99 59 110 L 192 633 C 193 638 194 643 195 649 C 195 655 196 659 196 662 C 196 667 193 671 188 675 C 183 678 176 681 168 685 C 160 688 153 690 149 692 C 145 693 143 696 143 700 C 143 701 143 703 144 706 C 144 709 145 712 146 715 L 150 730 L 331 730 L 575 190 L 676 595 C 678 603 679 610 681 617 C 682 623 683 630 683 637 C 683 645 681 653 678 660 C 674 666 669 673 663 680 C 653 688 647 693 643 695 C 639 697 637 700 638 704 L 644 730 Z" unicode="N" />
<glyph horiz-adv-x="781" d="M 469 741 C 513 741 554 733 591 717 C 628 701 660 680 686 653 C 712 626 732 594 746 557 C 760 520 768 480 768 437 C 768 379 757 323 737 269 C 717 215 688 167 652 126 C 616 84 572 51 521 26 C 469 1 413 -11 352 -11 C 308 -11 267 -3 230 11 C 193 26 161 47 135 73 C 109 99 88 131 73 169 C 58 207 51 248 51 293 C 51 349 61 405 81 459 C 101 513 129 561 165 603 C 201 644 245 677 297 703 C 349 728 406 741 469 741 Z M 354 39 C 400 39 441 51 478 76 C 515 101 546 134 572 175 C 598 215 617 262 631 314 C 645 366 652 418 652 471 C 652 539 635 592 603 632 C 570 671 525 691 467 691 C 418 691 375 677 338 651 C 300 625 269 591 244 550 C 219 508 200 462 187 411 C 174 360 168 310 168 261 C 168 191 184 136 217 97 C 249 58 295 39 354 39 Z" unicode="O" />
<glyph horiz-adv-x="628" d="M 418 730 C 460 730 496 725 528 716 C 559 706 585 694 605 679 C 625 663 639 645 649 625 C 659 604 664 582 664 560 C 664 530 657 501 644 473 C 631 445 611 420 583 398 C 555 376 520 358 476 345 C 432 331 379 325 318 325 L 225 325 L 166 97 C 164 90 163 84 163 79 C 162 74 162 70 162 68 C 162 62 164 58 169 54 C 174 50 181 47 190 45 C 198 42 204 40 208 38 C 212 36 215 34 215 30 C 215 28 214 26 214 23 C 213 20 212 17 212 15 L 208 0 L -23 0 L -17 25 C -15 31 -13 34 -9 36 C -5 37 2 40 15 45 C 30 50 40 55 44 59 C 48 63 51 72 54 85 L 192 633 C 193 639 194 644 195 650 C 195 655 196 659 196 662 C 196 667 193 671 188 675 C 183 678 176 681 168 685 C 160 688 153 690 149 692 C 145 693 143 696 143 700 C 143 701 143 703 144 706 C 144 709 145 712 146 715 L 150 730 L 418 730 Z M 331 378 C 405 378 459 395 492 430 C 524 464 541 508 541 560 C 541 594 527 622 501 645 C 475 668 435 680 381 680 L 314 680 L 237 378 L 331 378 Z" unicode="P" />
<glyph horiz-adv-x="781" d="M 469 741 C 513 741 554 733 591 718 C 628 702 660 681 686 654 C 712 627 732 595 746 557 C 760 519 768 479 768 436 C 768 383 759 331 741 280 C 723 229 699 183 667 143 C 635 103 596 69 550 42 C 504 15 454 -1 400 -8 C 415 -13 434 -21 458 -31 C 482 -41 505 -52 527 -63 C 552 -75 574 -83 594 -88 C 614 -92 637 -95 664 -95 C 678 -95 693 -93 707 -89 C 721 -85 733 -81 744 -77 L 735 -115 C 720 -125 698 -138 669 -153 C 639 -167 605 -175 567 -175 C 527 -175 494 -166 469 -149 C 444 -131 420 -112 397 -91 C 370 -66 349 -48 334 -37 C 318 -25 302 -15 286 -5 C 216 9 160 42 116 96 C 72 149 51 215 51 294 C 51 350 61 406 81 460 C 101 514 129 561 165 603 C 201 644 245 677 297 703 C 349 728 406 741 469 741 Z M 353 38 C 399 38 440 50 477 76 C 514 101 545 134 571 175 C 597 215 617 262 631 314 C 645 366 652 418 652 470 C 652 539 635 593 603 632 C 570 671 525 691 467 691 C 418 691 375 677 338 651 C 300 624 269 590 244 549 C 219 507 200 461 187 410 C 174 359 168 310 168 262 C 168 191 184 136 216 97 C 248 57 294 38 353 38 Z" unicode="Q" />
<glyph horiz-adv-x="707" d="M 435 730 C 515 730 575 714 615 682 C 654 650 674 611 674 566 C 674 515 652 469 610 429 C 567 389 501 363 412 351 C 423 346 433 340 443 332 C 453 324 463 313 474 297 C 484 281 496 260 509 234 C 522 208 538 174 557 132 C 566 111 576 93 586 77 C 596 61 610 51 626 46 C 640 41 650 37 656 35 C 661 32 663 28 662 24 L 656 0 L 502 0 L 419 176 C 409 196 399 216 390 236 C 381 255 371 272 359 287 C 347 301 334 313 318 322 C 302 330 283 335 261 335 L 227 335 L 166 97 C 164 90 163 84 163 79 C 162 74 162 70 162 68 C 162 62 164 58 169 54 C 174 50 181 47 190 45 C 198 42 204 40 208 38 C 212 36 215 34 215 30 C 215 28 214 26 214 23 C 213 20 212 17 212 15 L 208 0 L -23 0 L -17 25 C -15 31 -13 34 -9 36 C -5 37 2 40 15 45 C 30 50 40 55 44 59 C 48 63 51 72 54 85 L 192 633 C 193 639 194 644 195 650 C 195 655 196 659 196 662 C 196 667 193 671 188 675 C 183 678 176 681 168 685 C 160 688 153 690 149 692 C 145 693 143 696 143 700 C 143 701 143 703 144 706 C 144 709 145 712 146 715 L 150 730 L 435 730 Z M 336 388 C 408 388 461 403 497 434 C 533 465 551 509 551 565 C 551 602 537 630 509 650 C 481 670 444 680 399 680 L 314 680 L 240 388 L 336 388 Z" unicode="R" />
<glyph horiz-adv-x="597" d="M 568 709 L 596 709 L 551 534 L 517 534 C 511 534 506 535 504 538 C 502 540 500 544 500 548 C 494 591 480 626 458 652 C 435 678 401 691 357 691 C 316 691 282 679 255 657 C 228 634 215 605 215 571 C 215 547 221 526 233 508 C 245 490 262 474 285 462 C 302 452 322 443 344 433 C 366 423 384 414 400 408 C 454 383 492 356 516 328 C 540 299 552 265 552 226 C 552 197 545 168 533 140 C 521 112 503 86 479 64 C 455 42 425 24 390 10 C 355 -4 315 -11 270 -11 C 224 -11 184 -5 150 6 C 115 18 92 26 80 31 C 76 32 73 33 69 34 C 65 35 61 36 59 36 C 54 36 50 35 47 34 C 44 32 41 30 39 26 C 35 21 30 17 24 15 C 18 13 14 12 10 12 L -21 12 L 28 209 L 63 209 C 67 209 71 207 74 204 C 77 201 80 195 83 187 C 98 133 124 94 160 72 C 196 50 234 39 275 39 C 327 39 370 52 404 80 C 437 107 454 144 454 192 C 454 223 443 247 422 264 C 400 281 375 296 347 310 C 325 320 306 328 290 336 C 273 344 256 352 239 361 C 193 382 161 409 144 441 C 126 473 118 507 118 541 C 118 567 123 592 135 616 C 146 640 162 661 183 680 C 204 698 230 713 260 724 C 290 735 323 741 361 741 C 381 741 405 738 431 733 C 457 727 484 717 512 703 C 517 700 522 698 527 696 C 531 694 537 696 543 700 C 550 704 555 707 557 708 C 559 708 563 709 568 709 Z" unicode="S" />
<glyph horiz-adv-x="660" d="M 647 730 C 651 730 658 730 669 731 C 679 731 690 732 702 733 C 714 734 725 735 736 736 C 746 736 754 737 758 738 L 720 584 L 698 584 C 688 584 681 586 677 590 C 672 594 669 600 669 606 C 666 632 660 651 652 663 C 644 675 629 681 609 681 L 481 681 L 334 97 C 332 90 331 84 330 79 C 329 74 329 70 329 68 C 329 62 332 58 338 54 C 344 50 351 47 360 45 C 368 42 374 40 378 38 C 382 36 384 33 384 30 C 384 28 383 26 383 23 C 383 20 382 17 382 15 L 378 0 L 142 0 L 149 25 C 150 31 153 34 157 36 C 161 37 170 40 182 45 C 198 50 207 55 211 59 C 215 63 218 72 221 85 L 371 681 L 247 681 C 227 681 209 675 194 663 C 179 651 164 632 149 606 C 145 600 140 595 133 591 C 125 586 117 584 109 584 L 84 584 L 122 738 C 126 737 133 736 142 736 C 151 735 161 734 171 733 C 181 732 191 731 202 731 C 212 730 221 730 229 730 L 647 730 Z" unicode="T" />
<glyph horiz-adv-x="775" d="M 651 730 L 848 730 L 842 704 C 841 700 838 696 833 694 C 828 692 819 686 805 678 C 791 669 781 660 774 650 C 766 640 761 630 759 620 L 667 258 C 658 224 645 190 628 158 C 610 126 588 97 562 72 C 536 47 504 27 468 12 C 431 -3 389 -11 342 -11 C 255 -11 190 7 146 45 C 102 83 81 130 81 186 C 81 196 82 209 84 223 C 86 237 88 249 91 259 L 185 633 C 186 639 187 644 188 650 C 189 655 190 659 190 662 C 190 667 187 671 182 675 C 176 678 169 681 161 685 C 153 688 147 690 143 692 C 139 693 137 696 137 700 C 137 701 137 703 138 707 C 138 710 139 713 140 716 L 143 730 L 374 730 L 369 705 C 368 699 365 695 361 694 C 357 692 348 689 336 685 C 320 679 311 674 308 670 C 304 666 301 657 299 645 L 202 265 C 199 254 197 242 195 230 C 193 217 193 206 193 197 C 193 155 208 121 238 96 C 268 70 309 58 359 58 C 430 58 484 76 520 113 C 556 149 582 201 599 267 L 683 595 C 685 603 686 610 688 617 C 689 623 690 630 690 637 C 690 645 688 653 684 660 C 680 667 675 674 669 680 C 660 688 653 693 649 695 C 645 697 643 700 644 704 L 651 730 Z" unicode="U" />
<glyph horiz-adv-x="736" d="M 633 730 L 842 730 L 837 710 C 835 705 833 701 829 698 C 825 695 818 691 809 687 C 790 678 777 670 769 664 C 761 658 751 646 739 628 L 313 2 C 310 -1 307 -3 305 -5 C 302 -7 298 -8 294 -8 L 284 -8 C 280 -8 277 -7 274 -6 C 271 -4 269 -2 269 2 L 151 643 C 149 653 144 661 137 668 C 129 674 120 680 108 685 C 98 689 91 693 88 695 C 84 697 83 700 85 705 L 92 730 L 326 730 L 322 710 C 321 705 318 701 314 699 C 309 697 300 693 288 688 C 278 684 271 679 267 675 C 262 670 260 665 260 660 C 260 656 260 649 261 641 C 262 633 263 626 264 621 L 348 150 L 658 623 C 662 629 667 638 672 648 C 676 658 679 665 679 668 C 679 675 676 680 671 682 C 666 684 659 687 651 691 C 642 695 636 698 633 701 C 630 704 629 709 630 715 L 633 730 Z" unicode="V" />
<glyph horiz-adv-x="1065" d="M 956 730 L 1168 730 L 1163 710 C 1162 705 1160 701 1156 698 C 1152 695 1146 691 1136 687 C 1117 678 1104 671 1096 665 C 1088 659 1078 646 1066 628 L 670 2 C 668 0 666 -3 662 -5 C 658 -7 655 -8 651 -8 L 636 -8 C 632 -8 628 -7 626 -5 C 624 -3 622 -1 622 2 L 573 475 L 288 2 C 286 -1 283 -3 280 -5 C 276 -7 273 -8 269 -8 L 255 -8 C 251 -8 248 -7 246 -5 C 243 -3 241 -1 241 2 L 153 643 C 152 651 148 659 140 667 C 132 674 122 680 110 685 C 99 689 92 693 90 695 C 87 697 86 700 88 705 L 93 730 L 327 730 L 323 710 C 322 705 319 701 315 699 C 311 696 303 692 291 688 C 281 683 273 678 269 674 C 264 670 262 665 262 661 C 262 657 262 650 262 642 C 262 633 263 625 264 619 L 322 162 L 560 555 L 548 643 C 546 652 542 660 535 667 C 528 674 519 680 507 685 C 496 689 489 693 487 695 C 485 697 484 700 485 705 L 491 730 L 723 730 L 718 710 C 716 705 714 701 710 699 C 706 697 697 693 685 688 C 675 684 667 679 662 675 C 656 671 654 666 654 662 C 654 658 654 651 654 641 C 654 631 655 623 656 619 L 706 160 L 985 622 C 989 628 993 637 998 647 C 1002 657 1005 663 1005 666 C 1005 673 1002 678 997 681 C 991 684 984 687 976 691 C 966 695 960 698 957 701 C 954 704 953 709 954 715 L 956 730 Z" unicode="W" />
<glyph horiz-adv-x="688" d="M 545 730 L 770 730 L 765 710 C 764 705 762 701 758 697 C 754 693 747 690 737 688 C 719 683 704 675 690 665 C 676 655 660 640 642 620 L 415 384 L 547 94 C 553 80 559 71 565 66 C 571 61 582 55 597 48 C 607 43 613 39 615 36 C 616 32 616 28 616 24 L 610 0 L 381 0 L 385 17 C 386 23 388 28 390 30 C 392 32 399 35 409 39 C 417 41 424 45 430 50 C 436 55 440 60 440 66 C 440 70 439 75 437 83 C 435 91 433 98 431 104 L 333 320 L 124 95 C 119 90 115 85 111 79 C 107 73 106 68 106 65 C 106 59 110 54 118 51 C 126 47 135 43 146 39 C 151 37 155 33 158 29 C 160 25 161 20 160 15 L 156 0 L -68 0 L -63 20 C -61 24 -59 28 -56 32 C -52 36 -46 39 -36 42 C -18 46 -2 54 11 65 C 24 75 40 90 59 110 L 310 370 L 188 636 C 182 648 176 657 170 663 C 164 669 153 675 139 682 C 127 687 121 691 120 694 C 118 697 118 701 119 706 L 125 730 L 355 730 L 352 713 C 351 706 349 702 346 700 C 342 698 335 695 325 691 C 318 688 311 684 305 680 C 298 676 295 670 295 664 C 295 660 296 655 298 647 C 300 639 302 632 305 626 L 391 434 L 577 635 C 581 639 585 644 589 650 C 593 656 595 661 595 665 C 595 671 591 675 583 679 C 575 682 566 686 556 691 C 550 693 546 695 544 699 C 542 703 542 708 543 715 L 545 730 Z" unicode="X" />
<glyph horiz-adv-x="663" d="M 565 730 L 774 730 L 769 710 C 767 704 765 700 761 698 C 757 696 750 692 741 688 C 724 680 711 674 703 669 C 694 663 680 650 662 630 L 395 334 L 335 97 C 333 90 332 84 332 79 C 331 74 331 70 331 68 C 331 62 333 58 338 54 C 343 50 350 47 359 45 C 367 42 373 40 378 38 C 382 36 385 34 385 30 C 385 28 384 26 384 23 C 384 20 383 17 383 15 L 378 0 L 145 0 L 151 25 C 152 31 155 34 159 36 C 163 37 171 40 184 45 C 199 50 209 55 213 59 C 217 63 220 72 223 85 L 284 332 L 147 643 C 142 653 136 661 130 668 C 124 674 115 680 104 685 C 93 689 86 693 84 695 C 81 697 80 700 81 705 L 87 730 L 322 730 L 319 714 C 318 708 316 704 313 702 C 309 699 301 695 289 691 C 279 687 271 683 266 679 C 260 675 258 671 258 667 C 258 664 259 659 262 651 C 264 643 266 638 268 634 L 372 391 L 588 633 C 593 639 599 647 605 655 C 611 663 614 668 614 671 C 614 676 611 680 605 683 C 599 685 593 688 586 691 C 575 695 568 698 565 701 C 562 704 561 708 562 714 L 565 730 Z" unicode="Y" />
<glyph horiz-adv-x="642" d="M 265 730 L 700 730 L 696 717 C 693 707 690 699 686 695 C 682 690 676 684 669 676 L 115 50 L 387 50 C 417 50 441 57 460 71 C 478 85 500 109 524 145 C 528 151 532 156 536 160 C 540 163 545 165 552 165 L 582 165 L 539 -8 C 534 -7 527 -6 518 -6 C 508 -5 498 -4 488 -3 C 477 -2 466 -1 456 -1 C 446 0 437 0 430 0 L -39 0 L -34 18 C -32 24 -29 29 -25 34 C -21 39 -15 46 -8 55 L 546 680 L 295 680 C 273 680 255 674 239 662 C 223 650 207 631 191 605 C 187 598 182 593 176 589 C 170 585 162 583 153 583 L 131 583 L 169 738 C 178 737 193 735 214 733 C 235 731 252 730 265 730 Z" unicode="Z" />
<glyph horiz-adv-x="364" d="M 183 730 L 440 730 L 430 689 L 264 689 L 55 -149 L 220 -149 L 208 -190 L -49 -190 L 183 730 Z" unicode="[" />
<glyph horiz-adv-x="479" d="M 175 730 L 438 -190 L 373 -190 L 109 730 L 175 730 Z" unicode="\" />
<glyph horiz-adv-x="364" d="M 139 730 L 396 730 L 164 -190 L -93 -190 L -81 -149 L 84 -149 L 293 689 L 128 689 L 139 730 Z" unicode="]" />
<glyph horiz-adv-x="774" d="M 452 730 L 657 318 L 580 318 L 419 651 L 257 318 L 181 318 L 385 730 L 452 730 Z" unicode="^" />
<glyph horiz-adv-x="540" d="M -76 -57 L 471 -57 L 457 -106 L -90 -106 L -76 -57 Z" unicode="_" />
<glyph horiz-adv-x="436" d="M 216 641 L 346 499 L 321 482 L 154 572 C 138 580 127 589 120 598 C 112 606 109 615 109 625 C 109 637 113 647 121 656 C 129 665 141 670 155 670 C 164 670 174 668 184 665 C 194 661 204 653 216 641 Z" unicode="`" />
<glyph horiz-adv-x="532" d="M 492 64 L 501 30 C 493 23 478 15 456 5 C 434 -5 410 -10 384 -10 C 354 -10 335 -2 326 13 C 317 28 313 43 313 59 C 294 42 273 26 249 12 C 225 -1 198 -9 169 -9 C 119 -9 81 6 56 36 C 30 66 18 104 18 151 C 18 189 25 226 40 261 C 54 295 74 326 100 352 C 126 378 156 398 190 413 C 224 428 261 436 301 436 C 325 436 345 432 359 426 C 373 420 388 411 403 401 C 406 399 410 397 414 397 C 418 396 421 397 425 400 L 465 432 C 467 434 470 435 474 436 C 477 437 480 438 482 438 C 485 438 488 436 491 434 C 494 432 495 429 495 426 L 408 95 C 407 90 406 86 406 82 C 405 78 405 74 405 71 C 405 64 407 58 412 52 C 417 46 425 44 437 44 C 445 44 454 46 463 50 C 471 54 481 58 492 64 Z M 312 98 L 377 352 C 369 360 359 368 347 376 C 335 384 320 388 302 388 C 269 388 241 380 219 366 C 196 352 177 333 163 311 C 149 289 138 264 132 236 C 125 208 122 182 122 156 C 122 120 130 94 146 77 C 162 60 184 52 211 52 C 230 52 247 56 262 65 C 277 73 294 84 312 98 Z" unicode="a" />
<glyph horiz-adv-x="525" d="M 346 433 C 390 433 426 420 455 395 C 484 369 499 330 499 278 C 499 244 492 209 479 175 C 466 140 447 109 423 82 C 399 54 369 32 334 15 C 298 -1 259 -10 215 -10 C 183 -10 156 -5 134 3 C 112 11 95 22 82 35 C 69 47 60 61 54 75 C 48 89 46 103 46 115 C 46 127 47 139 49 151 C 51 163 54 176 58 190 L 175 649 C 177 661 177 669 173 675 C 169 680 161 685 151 691 C 143 695 138 697 134 699 C 130 701 129 704 130 708 L 136 730 L 291 730 L 200 376 C 214 384 233 396 257 411 C 281 425 311 433 346 433 Z M 217 38 C 249 38 277 45 300 60 C 322 75 341 94 355 117 C 369 139 380 165 386 193 C 392 221 396 248 396 274 C 396 310 387 336 371 350 C 355 364 334 372 308 372 C 280 372 258 367 241 357 C 223 347 205 334 187 320 L 148 157 C 146 150 145 142 143 134 C 141 125 141 118 141 114 C 141 93 146 75 157 60 C 168 45 188 38 217 38 Z" unicode="b" />
<glyph horiz-adv-x="426" d="M 276 434 C 326 434 362 424 384 404 C 406 384 418 364 418 344 C 418 321 412 305 400 296 C 388 286 375 282 361 282 C 346 282 333 285 322 293 C 310 301 305 312 305 327 C 305 333 306 340 310 350 C 314 359 317 367 321 375 C 318 377 312 381 302 385 C 292 389 279 391 262 391 C 239 391 219 384 202 371 C 184 358 170 341 159 321 C 148 301 140 278 134 252 C 128 226 126 201 126 177 C 126 141 134 110 150 84 C 166 58 194 45 234 45 C 266 45 293 52 315 67 C 337 82 357 99 376 117 L 401 85 C 393 75 383 64 371 53 C 359 41 346 31 331 22 C 316 13 299 5 280 0 C 260 -6 239 -10 216 -10 C 162 -10 116 6 79 38 C 42 70 24 114 24 171 C 24 203 29 234 41 266 C 53 297 69 325 91 350 C 112 375 138 395 170 411 C 201 426 236 434 276 434 Z" unicode="c" />
<glyph horiz-adv-x="543" d="M 421 730 L 582 730 L 422 95 C 421 90 420 86 420 82 C 419 78 419 74 419 71 C 419 64 421 58 426 52 C 430 46 438 44 450 44 C 458 44 467 46 476 50 C 484 54 494 58 505 64 L 514 30 C 506 23 491 15 469 5 C 447 -5 423 -10 397 -10 C 367 -10 348 -2 340 13 C 332 28 327 44 327 60 C 308 43 285 27 257 13 C 229 -1 201 -9 172 -9 C 120 -9 81 6 56 37 C 30 67 18 106 18 152 C 18 190 25 227 40 261 C 54 295 74 325 99 351 C 123 376 152 396 185 411 C 218 426 252 434 288 434 C 321 434 345 428 361 417 C 376 406 389 395 400 385 L 465 650 C 467 660 466 668 462 674 C 458 680 450 685 440 691 C 432 695 426 697 422 699 C 417 701 415 704 417 708 L 421 730 Z M 326 99 L 384 330 C 374 344 363 356 349 366 C 335 376 317 381 293 381 C 260 381 233 373 211 358 C 189 342 172 323 159 301 C 145 278 136 253 130 227 C 124 201 122 177 122 156 C 122 120 130 94 147 77 C 164 60 186 52 213 52 C 233 52 252 56 270 66 C 288 75 307 86 326 99 Z" unicode="d" />
<glyph horiz-adv-x="442" d="M 293 435 C 333 435 365 426 391 408 C 416 390 429 366 429 336 C 429 304 419 278 399 259 C 379 240 356 226 329 216 C 302 206 274 199 245 197 C 216 194 193 193 175 193 L 124 193 C 124 190 123 187 123 183 C 123 179 123 176 123 172 C 123 123 135 90 160 72 C 184 54 211 46 241 46 C 264 46 289 52 316 65 C 342 78 369 97 397 122 L 418 92 C 414 86 407 77 397 66 C 387 54 374 43 358 32 C 341 20 321 10 297 2 C 273 -5 244 -10 212 -10 C 180 -10 153 -5 129 5 C 105 15 86 28 71 44 C 55 60 44 79 36 101 C 28 123 25 145 25 169 C 25 202 31 235 44 267 C 57 299 75 327 99 352 C 122 376 150 396 183 412 C 216 427 253 435 293 435 Z M 129 233 C 154 233 179 235 204 238 C 229 240 251 245 270 253 C 289 260 305 270 317 283 C 329 296 335 313 335 335 C 335 353 329 367 317 376 C 305 384 291 389 275 389 C 241 389 211 376 184 350 C 156 324 138 285 129 233 Z" unicode="e" />
<glyph horiz-adv-x="306" d="M 383 730 C 411 730 431 723 443 711 C 454 698 460 686 460 674 C 460 659 455 646 445 636 C 435 625 422 620 404 620 C 394 620 382 624 368 634 C 354 644 348 661 348 686 C 343 684 337 682 329 679 C 321 675 313 669 305 660 C 297 650 288 637 279 619 C 270 601 262 577 255 547 L 224 421 L 347 421 L 335 376 L 214 376 L 128 0 L 30 0 L 117 376 L 65 376 L 71 395 C 72 399 75 403 80 406 C 84 408 94 412 109 417 C 117 419 123 423 127 427 C 130 431 133 438 135 447 C 143 484 155 520 170 554 C 184 588 202 619 223 645 C 243 671 267 691 294 707 C 320 722 350 730 383 730 Z" unicode="f" />
<glyph horiz-adv-x="499" d="M 481 442 C 494 442 505 439 515 433 C 525 427 530 417 530 403 C 530 391 525 381 516 374 C 506 366 497 363 489 363 C 481 363 474 364 470 366 C 465 368 461 370 457 374 C 454 376 451 378 448 380 C 444 382 441 384 438 384 C 433 384 428 382 423 379 C 417 375 414 372 412 370 C 418 358 423 345 427 333 C 431 320 433 309 433 299 C 433 275 428 253 418 232 C 408 210 394 191 376 175 C 358 159 335 146 309 136 C 283 126 253 122 220 122 C 209 122 196 123 182 126 C 168 129 156 132 148 135 L 92 55 C 106 55 122 57 141 59 C 159 61 184 62 215 62 C 289 62 341 52 369 33 C 397 14 412 -9 412 -37 C 412 -63 405 -86 391 -106 C 377 -126 358 -143 334 -157 C 310 -171 283 -181 251 -189 C 219 -196 187 -200 153 -200 C 99 -200 58 -193 32 -181 C 5 -168 -8 -150 -8 -128 C -8 -112 -2 -100 8 -90 C 19 -80 34 -75 52 -75 C 68 -75 80 -80 89 -91 C 97 -101 102 -114 102 -128 C 102 -130 101 -133 101 -137 C 101 -140 101 -143 101 -146 C 103 -147 110 -149 122 -153 C 133 -156 146 -158 162 -158 C 179 -158 197 -156 216 -153 C 235 -149 252 -144 267 -137 C 282 -130 295 -121 305 -110 C 315 -98 320 -85 320 -69 C 320 -51 307 -37 283 -29 C 259 -21 224 -17 178 -17 C 157 -17 136 -17 116 -19 C 96 -20 77 -21 61 -23 C 45 -24 31 -25 20 -27 C 9 -28 2 -29 0 -29 C -4 -29 -8 -28 -12 -27 C -16 -25 -18 -23 -18 -19 C -18 -15 -16 -12 -13 -8 C -10 -4 -7 -1 -5 1 L 110 154 C 89 167 74 183 64 202 C 54 220 49 240 49 262 C 49 286 54 309 66 331 C 77 353 92 371 112 387 C 131 403 154 415 180 424 C 206 433 233 438 263 438 C 291 438 315 434 336 426 C 357 418 375 407 390 395 C 402 406 415 417 431 427 C 446 437 463 442 481 442 Z M 233 164 C 249 164 264 168 278 176 C 291 184 302 195 311 209 C 320 222 327 237 332 254 C 337 271 340 288 340 306 C 340 329 332 349 318 367 C 304 385 282 394 254 394 C 233 394 216 389 202 381 C 188 373 177 362 169 349 C 161 336 155 321 151 305 C 147 289 146 273 146 258 C 146 229 153 206 169 189 C 184 172 205 164 233 164 Z" unicode="g" />
<glyph horiz-adv-x="550" d="M 513 64 L 522 30 C 514 23 499 15 477 5 C 455 -5 431 -10 405 -10 C 375 -10 354 -4 343 8 C 331 20 326 34 326 51 C 326 57 326 64 328 72 C 329 79 331 87 333 96 L 384 288 C 385 292 386 297 386 303 C 386 309 387 314 387 319 C 387 339 382 354 372 363 C 362 372 347 377 327 377 C 304 377 281 370 257 356 C 233 342 213 327 196 311 L 116 0 L 19 0 L 183 650 C 185 660 185 669 182 675 C 178 681 172 686 162 691 C 153 695 147 698 144 700 C 140 701 139 704 140 708 L 145 730 L 300 730 L 207 362 C 227 377 251 393 279 409 C 307 425 338 433 372 433 C 412 433 441 424 459 406 C 477 388 486 363 486 333 C 486 326 485 319 485 311 C 484 303 483 295 481 288 L 430 96 C 429 93 428 89 428 85 C 427 80 427 76 427 73 C 427 65 429 59 433 53 C 437 47 446 44 458 44 C 466 44 475 46 484 50 C 492 54 502 58 513 64 Z" unicode="h" />
<glyph horiz-adv-x="279" d="M 238 684 C 256 684 270 677 282 665 C 294 652 300 637 300 621 C 300 604 294 590 282 578 C 270 566 255 561 237 561 C 220 561 206 566 194 578 C 182 590 176 604 176 621 C 176 637 182 652 194 665 C 206 677 221 684 238 684 Z M 239 64 L 247 30 C 239 23 224 15 202 5 C 180 -5 156 -10 131 -10 C 101 -10 80 -3 69 8 C 57 20 52 35 52 51 C 52 57 52 64 53 72 C 54 80 56 88 58 96 L 113 307 C 113 311 114 315 115 320 C 115 324 116 328 116 331 C 116 339 113 346 107 352 C 101 358 91 361 79 362 C 73 362 68 363 63 364 C 58 364 56 366 56 369 C 56 370 56 372 56 374 C 56 376 57 378 58 381 L 63 400 C 85 400 109 402 133 408 C 157 413 182 420 208 430 L 241 430 L 156 96 C 155 93 154 89 153 84 C 152 79 152 75 152 72 C 152 64 154 58 159 52 C 163 46 172 44 184 44 C 192 44 201 46 210 50 C 218 54 228 58 239 64 Z" unicode="i" />
<glyph horiz-adv-x="267" d="M 226 684 C 244 684 258 677 270 665 C 282 652 288 637 288 621 C 288 604 282 590 270 578 C 258 566 243 561 225 561 C 208 561 194 566 182 578 C 170 590 164 604 164 621 C 164 637 170 652 182 665 C 194 677 209 684 226 684 Z M 210 430 L 243 430 L 154 46 C 145 10 134 -23 120 -53 C 106 -83 90 -109 71 -131 C 52 -153 30 -170 6 -182 C -18 -194 -46 -200 -77 -200 C -103 -200 -123 -194 -135 -182 C -147 -170 -154 -157 -154 -143 C -154 -128 -149 -116 -140 -106 C -130 -96 -117 -92 -99 -92 C -88 -92 -76 -97 -64 -108 C -51 -118 -44 -136 -43 -161 C -37 -159 -31 -157 -25 -155 C -18 -153 -11 -148 -4 -140 C 2 -132 9 -121 16 -106 C 23 -91 30 -70 36 -44 L 116 307 C 116 309 117 313 118 319 C 118 324 119 328 119 331 C 119 339 116 346 110 352 C 104 358 94 361 82 362 C 77 362 72 363 67 364 C 61 364 59 366 59 369 C 59 370 59 372 59 374 C 59 376 59 378 60 381 L 65 400 C 88 400 111 402 135 408 C 159 413 184 420 210 430 Z" unicode="j" />
<glyph horiz-adv-x="528" d="M 488 64 L 497 30 C 489 23 474 15 451 5 C 428 -5 406 -10 386 -10 C 358 -10 333 2 313 28 C 292 53 274 100 260 170 C 240 164 222 160 206 156 C 190 152 172 149 152 146 L 116 0 L 19 0 L 183 650 C 185 660 185 669 182 675 C 178 681 172 686 162 691 C 153 695 147 698 144 700 C 140 701 139 704 140 708 L 145 730 L 300 730 L 208 366 C 245 391 276 408 300 418 C 324 428 352 433 382 433 C 414 433 439 424 457 408 C 474 391 483 371 483 347 C 483 326 478 308 468 293 C 458 277 447 264 433 253 C 419 242 404 233 388 225 C 372 217 357 210 345 204 C 349 187 353 171 358 156 C 363 141 369 125 376 109 C 382 94 389 80 398 66 C 406 52 418 45 433 45 C 441 45 450 46 459 50 C 467 54 477 58 488 64 Z M 164 189 C 187 191 211 196 237 204 C 263 212 286 221 308 233 C 329 245 347 258 361 273 C 375 287 382 303 382 320 C 382 338 377 351 368 361 C 358 371 342 376 320 376 C 310 376 294 372 274 364 C 253 356 227 339 197 315 L 164 189 Z" unicode="k" />
<glyph horiz-adv-x="265" d="M 147 730 L 302 730 L 143 96 C 142 92 141 88 140 84 C 139 79 139 75 139 72 C 139 64 141 58 146 52 C 150 46 159 44 171 44 C 179 44 188 46 198 50 C 207 54 217 58 228 64 L 236 30 C 228 23 213 15 190 5 C 167 -5 143 -10 118 -10 C 88 -10 67 -3 56 8 C 44 20 39 35 39 51 C 39 57 39 64 40 72 C 41 80 43 88 45 96 L 186 653 C 188 661 188 669 184 675 C 180 681 174 686 165 691 C 156 695 150 698 146 700 C 142 701 141 704 142 708 L 147 730 Z" unicode="l" />
<glyph horiz-adv-x="835" d="M 797 64 L 806 30 C 798 23 783 15 761 5 C 739 -5 715 -10 689 -10 C 659 -10 638 -3 627 8 C 615 20 610 35 610 51 C 610 57 610 64 612 72 C 613 80 615 88 617 96 L 668 288 C 668 292 669 296 670 301 C 670 306 671 311 671 316 C 671 335 665 350 653 361 C 641 371 622 377 598 377 C 580 377 561 371 542 359 C 523 347 507 334 493 321 L 412 0 L 315 0 L 388 288 C 388 292 389 297 390 303 C 390 309 391 314 391 319 C 391 337 384 352 372 362 C 359 372 341 377 318 377 C 299 377 280 370 261 356 C 241 342 225 328 211 315 L 132 0 L 34 0 L 111 307 C 111 310 112 314 113 319 C 114 324 115 328 115 331 C 115 339 112 346 106 352 C 100 358 90 361 78 362 C 72 362 67 363 62 364 C 57 364 55 366 55 369 C 55 370 55 372 55 374 C 55 376 56 379 57 381 L 62 400 C 84 400 107 402 131 408 C 155 413 180 420 206 430 L 233 430 L 214 360 C 232 375 253 391 276 408 C 299 424 329 433 366 433 C 398 433 423 426 443 413 C 463 399 476 381 483 359 C 511 380 536 398 558 412 C 580 426 608 433 640 433 C 681 433 713 423 736 405 C 758 386 770 361 770 331 C 770 324 769 317 769 309 C 768 301 767 294 765 288 L 714 96 C 713 92 712 87 712 83 C 711 79 711 75 711 72 C 711 64 713 58 717 52 C 721 46 730 44 742 44 C 750 44 759 46 768 50 C 776 54 786 58 797 64 Z" unicode="m" />
<glyph horiz-adv-x="566" d="M 528 64 L 537 30 C 529 23 514 15 492 5 C 470 -5 446 -10 420 -10 C 390 -10 370 -3 358 8 C 346 20 341 35 341 51 C 341 57 341 64 343 72 C 344 80 346 88 348 96 L 399 288 C 399 292 400 297 401 303 C 401 309 402 314 402 319 C 402 339 395 353 382 363 C 368 372 351 377 331 377 C 307 377 285 369 264 355 C 242 340 224 325 210 311 L 132 0 L 34 0 L 111 307 C 111 309 112 313 113 319 C 114 324 115 328 115 331 C 115 339 112 346 106 352 C 100 358 90 361 78 362 C 72 362 67 363 62 364 C 57 364 55 366 55 369 C 55 370 55 372 55 374 C 55 376 56 378 57 381 L 62 400 C 84 400 107 402 131 408 C 155 413 180 420 206 430 L 232 430 L 213 360 C 233 375 257 391 283 408 C 309 424 340 433 376 433 C 416 433 447 424 469 406 C 490 388 501 363 501 333 C 501 326 500 319 500 311 C 499 303 498 295 496 288 L 445 96 C 444 93 443 89 443 85 C 442 80 442 76 442 73 C 442 65 444 59 448 53 C 452 47 461 44 473 44 C 481 44 490 46 499 50 C 507 54 517 58 528 64 Z" unicode="n" />
<glyph horiz-adv-x="506" d="M 288 437 C 318 437 344 432 368 422 C 391 412 410 398 426 381 C 442 363 454 343 462 320 C 470 296 475 271 475 245 C 475 211 468 178 456 147 C 443 116 425 89 402 66 C 379 43 351 25 319 11 C 287 -3 252 -10 214 -10 C 154 -10 107 8 74 44 C 40 80 24 125 24 179 C 24 211 30 242 42 273 C 54 304 71 332 93 356 C 115 380 143 399 176 414 C 209 429 246 437 288 437 Z M 219 36 C 244 36 266 42 286 54 C 305 66 321 82 334 103 C 346 124 356 149 363 177 C 369 205 373 235 373 267 C 373 305 365 335 351 357 C 337 379 313 391 280 391 C 253 391 230 384 210 371 C 190 357 174 340 162 319 C 149 297 140 273 134 245 C 128 217 125 189 125 161 C 125 123 132 92 146 70 C 160 47 185 36 219 36 Z" unicode="o" />
<glyph horiz-adv-x="536" d="M 363 433 C 409 433 445 419 471 391 C 497 363 511 326 511 279 C 511 245 504 210 492 176 C 479 142 461 111 438 83 C 414 55 386 33 353 16 C 319 -1 282 -10 241 -10 C 211 -10 188 -5 172 5 C 156 15 143 24 133 33 L 79 -193 L -20 -193 L 107 307 C 107 309 108 313 109 319 C 109 324 110 328 110 331 C 110 339 107 346 101 352 C 95 358 86 361 74 362 C 68 362 63 363 58 364 C 53 364 51 366 51 369 C 51 370 51 372 51 374 C 51 376 51 379 52 381 L 58 400 C 80 400 103 402 127 408 C 150 413 175 420 201 430 L 227 430 L 210 362 C 217 368 226 376 237 384 C 248 392 260 399 274 407 C 287 414 301 420 316 425 C 331 430 347 433 363 433 Z M 241 43 C 267 43 291 50 312 64 C 333 78 350 96 364 118 C 378 140 388 164 396 192 C 403 219 407 246 407 274 C 407 306 400 330 386 347 C 372 363 351 372 325 372 C 300 372 277 365 256 351 C 234 337 218 325 207 313 L 149 88 C 158 76 169 66 183 57 C 197 47 216 43 241 43 Z" unicode="p" />
<glyph horiz-adv-x="526" d="M 486 438 C 489 438 492 436 494 434 C 496 431 498 428 498 426 L 342 -193 L 244 -193 L 308 52 C 292 42 272 30 250 16 C 227 2 201 -5 173 -5 C 120 -5 81 10 56 41 C 30 71 18 110 18 156 C 18 192 25 226 40 260 C 55 294 76 324 102 350 C 128 376 158 396 193 412 C 227 428 264 436 303 436 C 327 436 347 432 363 426 C 378 420 393 411 408 401 C 410 399 414 397 418 397 C 422 396 426 397 429 400 L 469 432 C 471 434 474 436 478 437 C 481 437 484 438 486 438 Z M 318 97 L 382 352 C 375 360 365 367 353 375 C 341 383 324 387 304 387 C 272 387 244 380 221 367 C 198 353 179 336 165 314 C 150 292 139 268 132 240 C 125 212 122 185 122 157 C 122 120 130 94 148 78 C 165 62 186 54 212 54 C 232 54 250 58 267 66 C 284 74 301 85 318 97 Z" unicode="q" />
<glyph horiz-adv-x="378" d="M 338 433 C 360 433 377 427 387 416 C 397 405 402 393 402 380 C 402 365 397 351 387 339 C 377 327 363 321 345 321 C 332 321 321 325 313 333 C 304 341 298 352 296 365 C 286 363 275 358 264 349 C 252 339 241 328 231 314 C 221 300 212 285 204 269 C 196 252 190 236 186 220 L 133 0 L 35 0 L 104 276 C 106 286 108 297 108 307 C 108 317 109 325 109 330 C 109 338 105 346 99 352 C 93 358 83 361 71 362 C 65 362 60 363 56 364 C 51 364 49 366 49 369 C 49 370 49 372 49 374 C 49 376 49 379 50 381 L 55 400 C 78 400 99 402 119 408 C 138 414 156 421 172 430 L 197 430 C 197 423 198 417 198 411 C 198 405 199 398 199 392 C 199 381 198 370 197 358 C 196 346 195 334 193 323 L 197 323 C 221 361 246 389 270 407 C 294 424 317 433 338 433 Z" unicode="r" />
<glyph horiz-adv-x="398" d="M 236 435 C 282 435 317 426 339 410 C 361 393 372 376 372 360 C 372 342 366 329 355 320 C 344 310 331 306 317 306 C 303 306 291 310 282 319 C 272 327 268 338 268 350 C 268 354 268 360 270 367 C 271 374 273 380 276 385 C 272 385 267 387 260 390 C 253 392 241 394 225 394 C 204 394 186 387 170 375 C 154 363 147 347 147 327 C 147 311 155 297 172 285 C 188 273 216 258 254 242 C 290 226 316 210 332 192 C 348 174 356 154 356 130 C 356 114 352 97 344 81 C 336 64 325 49 309 36 C 293 22 274 11 250 3 C 226 -5 197 -10 165 -10 C 113 -10 73 0 45 20 C 17 40 3 61 3 84 C 3 98 7 111 17 123 C 27 134 41 140 59 140 C 77 140 90 135 98 127 C 106 118 110 108 110 96 C 110 87 107 79 103 72 C 99 64 96 59 95 57 C 103 49 115 43 131 38 C 147 33 163 31 179 31 C 205 31 227 38 244 52 C 261 66 270 83 270 102 C 270 120 259 136 238 148 C 217 160 191 172 159 186 C 121 201 95 218 82 238 C 69 257 63 278 63 302 C 63 320 67 338 77 354 C 86 370 99 384 115 396 C 131 408 149 417 170 424 C 191 431 213 435 236 435 Z" unicode="s" />
<glyph horiz-adv-x="316" d="M 226 421 L 339 421 L 327 376 L 214 376 L 149 107 C 148 102 147 96 146 89 C 145 81 145 77 145 75 C 145 66 148 59 154 53 C 160 47 171 45 185 45 C 192 45 201 46 213 50 C 225 54 236 58 247 64 L 256 29 C 248 22 232 14 207 4 C 182 -5 157 -10 132 -10 C 99 -10 76 -3 63 8 C 50 20 44 36 44 55 C 44 60 44 67 45 75 C 46 83 48 90 50 98 L 117 376 L 63 376 L 70 399 C 71 403 74 407 79 409 C 84 411 94 414 109 419 C 119 422 126 425 131 429 C 135 432 139 438 141 447 L 166 545 C 166 549 168 553 172 555 C 175 557 178 558 181 559 L 264 569 L 226 421 Z" unicode="t" />
<glyph horiz-adv-x="559" d="M 519 64 L 528 30 C 520 23 505 15 483 5 C 461 -5 437 -10 411 -10 C 381 -10 362 -3 354 11 C 345 25 340 40 340 57 C 319 41 295 25 267 11 C 239 -2 206 -10 168 -10 C 128 -10 99 0 81 20 C 63 40 54 66 54 98 C 54 105 55 114 57 125 C 59 135 61 145 63 153 L 104 307 C 104 311 105 316 106 320 C 106 324 107 328 107 331 C 107 339 104 346 98 352 C 92 358 83 361 71 362 C 65 362 60 363 55 364 C 50 364 48 366 48 369 C 48 370 48 372 48 374 C 48 376 48 378 49 381 L 54 400 C 77 400 100 402 124 408 C 148 413 173 420 199 430 L 234 430 L 159 143 C 157 137 156 131 154 124 C 152 116 152 111 152 107 C 152 86 157 71 168 61 C 179 51 196 46 218 46 C 240 46 262 51 285 63 C 308 75 327 89 343 105 L 394 305 C 394 309 395 313 396 319 C 397 324 398 328 398 331 C 398 339 395 346 389 352 C 383 358 373 361 361 362 C 355 362 350 363 345 364 C 340 364 338 366 338 369 C 338 370 338 372 338 374 C 338 376 339 379 340 381 L 345 400 C 367 400 391 402 415 408 C 439 413 464 420 490 430 L 522 430 L 436 95 C 435 91 434 87 434 83 C 433 78 433 74 433 71 C 433 64 435 58 440 52 C 444 46 452 44 464 44 C 472 44 481 46 490 50 C 498 54 508 58 519 64 Z" unicode="u" />
<glyph horiz-adv-x="500" d="M 393 460 C 410 460 424 455 434 447 C 444 439 452 428 458 416 C 464 403 467 389 469 374 C 471 358 472 343 472 329 C 472 292 466 254 454 214 C 442 174 424 137 402 104 C 379 71 351 44 317 22 C 283 0 246 -10 204 -10 C 185 -10 167 -7 149 -3 C 131 1 115 8 101 18 C 87 28 75 40 67 54 C 59 68 55 85 55 104 C 55 111 55 120 57 132 C 59 143 61 153 63 161 L 103 307 C 103 311 104 316 105 320 C 105 324 106 328 106 331 C 106 339 103 346 97 352 C 91 358 81 361 69 362 C 64 362 59 363 54 364 C 49 364 47 366 47 369 C 47 370 47 372 47 374 C 47 376 47 378 48 381 L 53 400 C 76 400 99 402 123 408 C 147 413 172 420 198 430 L 234 430 L 162 167 C 160 160 158 150 156 138 C 154 126 154 117 154 113 C 154 95 159 79 169 66 C 179 53 197 47 223 47 C 239 47 254 50 269 58 C 284 65 298 74 312 86 C 325 98 337 111 348 126 C 359 141 368 156 375 172 C 391 206 401 236 405 263 C 409 289 412 318 413 349 C 384 353 364 360 353 370 C 342 380 337 393 337 410 C 337 426 342 438 353 447 C 364 455 377 460 393 460 Z" unicode="v" />
<glyph horiz-adv-x="770" d="M 660 460 C 677 460 691 455 701 447 C 711 439 719 428 725 416 C 731 403 735 389 737 373 C 739 357 740 342 740 328 C 740 295 734 259 722 220 C 710 180 693 144 671 110 C 649 76 621 47 588 24 C 555 1 518 -10 476 -10 C 446 -10 418 -3 392 9 C 366 22 349 42 339 68 C 318 49 295 31 270 15 C 244 -1 214 -10 178 -10 C 136 -10 104 1 84 24 C 64 47 54 74 54 105 C 54 112 55 121 57 132 C 59 143 61 153 63 161 L 103 307 C 103 311 104 316 105 320 C 105 324 106 328 106 331 C 106 339 103 346 97 352 C 91 358 81 361 69 362 C 64 362 59 363 54 364 C 49 364 47 366 47 369 C 47 370 47 372 47 374 C 47 376 47 378 48 381 L 53 400 C 76 400 99 402 123 408 C 147 413 172 420 198 430 L 233 430 L 158 151 C 156 145 155 137 154 129 C 152 121 152 115 152 111 C 152 92 156 76 166 64 C 175 51 192 45 218 45 C 236 45 255 51 273 64 C 291 76 308 90 322 104 L 404 424 L 502 424 L 434 165 C 431 154 429 144 429 134 C 428 124 428 117 428 113 C 428 95 432 80 442 67 C 451 53 469 47 496 47 C 511 47 526 50 541 58 C 555 65 569 74 582 86 C 594 98 606 111 617 126 C 627 141 636 156 643 172 C 659 206 669 236 673 263 C 677 289 680 318 681 349 C 651 353 631 360 621 370 C 610 380 605 393 605 410 C 605 426 610 438 621 447 C 632 455 645 460 660 460 Z" unicode="w" />
<glyph horiz-adv-x="465" d="M 429 432 C 443 432 456 428 467 420 C 477 412 483 400 483 384 C 483 367 477 354 466 345 C 455 335 444 331 433 331 C 424 331 416 333 409 337 C 401 341 393 348 385 358 C 375 349 367 341 360 334 C 353 327 346 319 339 311 C 331 302 323 291 314 279 C 304 267 292 251 278 232 C 282 212 288 190 295 166 C 302 142 309 123 315 109 C 321 94 328 80 338 66 C 348 52 360 45 375 45 C 383 45 392 46 400 50 C 408 54 418 58 429 64 L 436 29 C 429 22 414 14 392 4 C 370 -5 347 -10 324 -10 C 297 -10 274 1 255 25 C 236 48 219 92 205 156 C 165 96 131 53 104 29 C 77 4 53 -8 33 -8 C 12 -8 -2 -2 -12 9 C -21 21 -26 34 -26 48 C -26 58 -21 68 -13 80 C -4 92 9 98 28 98 C 38 98 47 95 56 90 C 64 85 72 78 80 68 C 90 78 100 88 108 97 C 116 105 125 114 133 124 C 141 134 149 145 158 158 C 167 170 178 186 191 204 C 185 226 179 247 174 266 C 169 284 164 300 159 313 C 152 327 144 341 134 355 C 124 369 112 376 98 376 C 89 376 80 373 72 369 C 64 365 54 360 44 355 L 34 390 C 42 396 57 405 81 416 C 105 426 128 432 151 432 C 177 432 199 420 217 398 C 234 375 250 335 265 279 C 279 298 293 317 307 335 C 321 353 334 370 348 384 C 361 398 374 410 388 419 C 401 427 415 432 429 432 Z" unicode="x" />
<glyph horiz-adv-x="471" d="M 417 433 C 435 433 450 427 461 416 C 471 404 477 391 477 377 C 477 360 471 338 459 312 C 447 286 432 257 414 226 C 396 195 374 162 350 128 C 326 94 301 60 277 28 C 257 2 237 -23 216 -50 C 194 -76 172 -100 149 -122 C 125 -144 101 -162 75 -176 C 49 -190 23 -197 -5 -197 C -31 -197 -52 -190 -67 -178 C -82 -165 -90 -149 -90 -129 C -90 -117 -85 -105 -75 -95 C -65 -84 -52 -79 -36 -79 C -21 -79 -8 -84 4 -94 C 16 -104 23 -121 27 -147 C 40 -145 55 -139 71 -128 C 87 -117 103 -104 119 -90 C 134 -75 148 -60 162 -45 C 175 -30 186 -18 194 -9 C 187 23 180 56 173 90 C 165 124 158 155 151 185 C 144 214 137 240 131 263 C 125 286 120 303 116 315 C 111 328 104 341 95 355 C 85 369 73 376 59 376 C 50 376 41 374 33 370 C 24 366 14 361 2 356 L -5 391 C 3 398 19 407 42 417 C 64 427 86 433 107 433 C 140 433 165 420 182 396 C 199 372 214 337 226 293 C 235 257 243 221 251 184 C 258 147 264 115 269 87 C 291 118 311 149 328 180 C 344 210 359 237 372 261 C 378 273 383 284 386 292 C 389 300 394 311 400 326 C 388 332 378 339 370 348 C 362 356 358 367 358 381 C 358 392 363 403 373 415 C 383 427 397 433 417 433 Z" unicode="y" />
<glyph horiz-adv-x="434" d="M 429 436 L 443 408 L 97 83 L 99 81 C 111 81 122 82 132 83 C 142 84 157 85 176 85 C 196 85 213 82 227 78 C 241 74 254 69 265 63 C 276 57 287 52 297 48 C 307 44 317 42 328 42 C 333 42 339 43 346 47 C 352 51 356 58 356 70 C 356 77 353 83 349 87 C 345 91 340 95 334 99 C 328 103 323 108 319 114 C 315 120 313 128 313 139 C 313 151 318 161 328 168 C 338 174 348 178 359 178 C 367 178 378 174 391 167 C 403 159 410 144 410 120 C 410 97 405 77 397 61 C 389 45 378 31 365 21 C 351 10 336 2 319 -2 C 301 -7 284 -10 267 -10 C 250 -10 235 -8 223 -6 C 211 -4 199 -1 188 1 C 176 4 164 7 151 9 C 137 11 121 13 102 13 C 84 13 67 11 51 8 C 34 5 12 1 -14 -3 L -27 25 L 320 352 L 318 355 C 301 349 285 346 270 345 C 255 344 242 344 231 344 C 215 344 200 345 186 348 C 172 350 156 352 136 352 C 116 352 100 346 89 336 C 77 325 68 315 61 306 L 34 323 C 34 325 36 332 41 344 C 46 356 54 368 66 381 C 77 393 91 405 109 415 C 127 425 148 431 174 431 C 190 431 203 430 212 428 C 221 426 230 425 238 423 C 246 421 255 419 266 417 C 277 415 293 415 315 415 C 349 415 374 417 390 422 C 406 426 419 431 429 436 Z" unicode="z" />
<glyph horiz-adv-x="404" d="M 186 541 C 191 569 203 595 221 619 C 239 643 261 663 288 680 C 314 696 344 709 378 719 C 411 728 445 733 481 733 L 475 704 C 417 693 372 676 342 654 C 311 632 292 600 285 560 C 281 536 278 515 276 497 C 274 479 272 461 270 445 C 266 421 257 399 245 381 C 233 362 218 346 202 332 C 185 318 167 306 148 296 C 128 286 109 279 91 273 C 117 262 139 245 156 222 C 172 198 181 170 181 138 C 181 132 180 126 180 120 C 179 114 178 107 178 101 C 175 84 171 66 166 48 C 160 30 156 9 153 -14 C 151 -24 150 -33 149 -42 C 148 -50 148 -59 148 -67 C 148 -94 155 -115 171 -130 C 187 -144 214 -157 254 -168 L 247 -197 C 185 -197 139 -182 107 -152 C 75 -122 59 -85 59 -39 C 59 -32 59 -25 59 -17 C 59 -9 60 -2 62 5 C 66 25 71 46 78 67 C 84 87 90 107 94 126 C 95 134 96 143 97 151 C 97 159 98 166 98 174 C 98 196 92 215 82 231 C 71 247 52 257 24 263 L 30 290 C 70 296 101 309 125 328 C 149 347 164 378 172 420 C 175 438 177 458 178 479 C 179 499 182 520 186 541 Z" unicode="{" />
<glyph horiz-adv-x="73" d="M 96 730 L 96 -190 L 29 -190 L 29 730 L 96 730 Z" unicode="|" />
<glyph horiz-adv-x="404" d="M 289 362 C 289 338 294 319 305 304 C 315 288 334 278 362 273 L 357 246 C 317 239 285 226 261 207 C 237 188 222 158 215 116 C 211 97 209 77 208 57 C 207 36 205 15 201 -5 C 196 -33 184 -59 166 -83 C 148 -107 125 -127 99 -144 C 72 -160 42 -173 8 -183 C -25 -192 -59 -197 -95 -197 L -88 -168 C -29 -157 15 -140 45 -118 C 75 -96 93 -64 101 -24 C 105 0 107 20 109 38 C 111 56 113 74 116 91 C 120 115 128 136 141 155 C 153 173 168 190 185 204 C 201 218 219 229 239 239 C 258 249 277 257 295 263 C 269 273 247 290 231 314 C 214 337 206 365 206 398 C 206 404 206 410 206 416 C 206 422 207 428 208 435 C 210 452 214 470 220 488 C 225 506 229 526 233 550 C 234 560 235 569 236 578 C 237 586 238 595 238 603 C 238 631 230 652 215 666 C 199 680 172 693 133 704 L 139 733 C 200 733 247 718 279 688 C 311 658 328 620 328 575 C 328 568 327 561 327 553 C 327 545 326 538 325 531 C 320 509 314 489 308 469 C 301 449 296 429 293 410 C 291 401 290 393 290 385 C 289 377 289 369 289 362 Z" unicode="}" />
<glyph horiz-adv-x="774" d="M 631 402 L 681 402 C 679 375 674 349 666 325 C 657 301 645 279 631 261 C 616 243 598 228 578 217 C 558 206 535 201 511 201 C 491 201 474 204 458 212 C 442 220 421 233 395 251 C 373 265 353 278 336 290 C 318 301 300 307 282 307 C 268 307 255 303 245 296 C 234 289 225 280 218 269 C 211 258 206 246 202 233 C 198 219 195 206 193 194 L 143 194 C 144 220 149 246 158 270 C 167 294 179 315 194 333 C 208 351 226 366 246 377 C 266 387 289 393 313 393 C 337 393 357 389 373 382 C 389 375 408 364 431 349 C 453 334 473 320 491 308 C 508 295 525 289 542 289 C 556 289 569 292 579 299 C 589 306 598 315 605 326 C 612 337 618 349 622 363 C 626 376 629 389 631 402 Z" unicode="~" />
<glyph horiz-adv-x="309" d="M 191 547 C 209 547 225 540 239 527 C 252 514 259 498 259 480 C 259 462 252 446 239 433 C 226 420 210 414 192 414 C 172 414 156 420 143 433 C 129 446 123 462 123 480 C 123 498 129 514 142 527 C 155 540 171 547 191 547 Z M 152 346 C 159 346 165 344 169 340 C 173 336 174 332 174 330 C 167 297 158 257 148 211 C 137 165 129 119 124 74 C 118 24 114 -16 113 -46 C 111 -76 107 -106 100 -136 C 95 -152 87 -167 77 -181 C 67 -194 53 -201 36 -201 C 14 -201 -2 -194 -12 -181 C -22 -168 -27 -154 -27 -138 C -27 -133 -26 -128 -25 -122 C -24 -116 -23 -111 -23 -107 C -15 -77 -5 -48 8 -21 C 21 5 37 42 56 90 C 72 132 87 177 101 223 C 114 269 125 307 134 339 C 134 341 136 342 140 344 C 143 345 147 346 152 346 Z" unicode="" />
<glyph horiz-adv-x="484" d="M 376 557 C 411 551 437 540 454 523 C 470 506 479 489 479 472 C 479 449 472 433 460 424 C 448 414 434 410 419 410 C 403 410 390 414 379 422 C 368 430 363 441 363 456 C 363 462 364 469 368 478 C 372 487 376 495 381 503 C 377 505 370 509 358 513 C 346 517 332 519 314 519 C 290 519 269 512 251 499 C 233 486 218 469 206 449 C 194 429 185 406 179 380 C 173 354 170 329 170 304 C 170 269 178 238 196 212 C 214 186 243 173 284 173 C 318 173 346 180 368 196 C 390 212 412 229 432 247 L 456 214 C 448 204 438 193 427 183 C 415 172 402 162 387 153 C 371 143 354 135 335 129 C 315 123 294 119 271 119 L 239 -9 L 188 -9 L 220 123 C 176 130 139 149 109 180 C 79 210 65 249 65 297 C 65 329 71 361 83 393 C 95 425 112 453 134 478 C 156 502 184 522 217 538 C 249 553 286 561 326 561 L 353 667 L 404 667 L 376 557 Z" unicode="" />
<glyph horiz-adv-x="587" d="M 447 695 C 497 695 536 683 566 661 C 595 639 610 612 610 582 C 610 556 603 537 590 526 C 576 514 562 509 548 509 C 534 509 521 512 509 520 C 497 527 491 539 491 556 C 491 568 494 579 500 589 C 506 598 516 608 530 619 C 517 631 504 638 492 642 C 480 646 465 648 449 648 C 403 648 365 631 336 599 C 306 566 292 525 292 477 C 292 459 293 442 295 424 C 297 406 301 388 305 372 L 506 372 L 493 326 L 315 326 C 317 316 318 307 318 297 C 318 287 319 277 319 268 C 319 246 314 224 306 202 C 297 180 287 158 275 136 C 297 121 320 107 343 95 C 366 82 392 76 421 76 C 445 76 467 80 487 88 C 506 96 523 108 538 123 L 561 89 C 539 64 514 41 488 21 C 462 0 429 -10 390 -10 C 353 -10 323 0 300 18 C 276 36 256 56 240 77 C 223 52 202 31 177 15 C 151 -1 123 -10 91 -10 C 66 -10 43 -2 22 12 C 1 27 -9 49 -9 78 C -9 96 -5 112 3 126 C 11 140 21 152 34 162 C 46 172 61 179 77 185 C 93 190 108 193 124 193 C 140 193 158 190 176 185 C 194 179 210 173 223 166 C 225 172 228 181 230 193 C 232 205 234 216 234 228 C 234 248 230 267 224 284 C 217 300 211 314 207 326 L 76 326 L 89 372 L 195 372 C 191 382 189 395 187 409 C 185 423 185 437 185 451 C 185 479 191 508 203 538 C 215 567 232 593 255 616 C 277 639 305 658 338 673 C 370 687 407 695 447 695 Z M 96 33 C 116 33 137 40 158 54 C 179 68 194 88 203 113 C 193 122 180 130 166 136 C 152 142 135 146 116 146 C 93 146 75 139 62 126 C 48 113 42 98 42 82 C 42 68 46 57 54 47 C 62 37 76 33 96 33 Z" unicode="" />
<glyph horiz-adv-x="619" d="M 470 695 C 519 695 559 685 590 666 C 621 647 637 624 637 597 C 637 577 631 561 619 548 C 607 534 591 528 573 528 C 555 528 541 532 532 541 C 522 550 518 561 518 575 C 518 584 519 594 521 604 C 523 614 525 623 527 630 C 524 632 517 636 505 640 C 493 644 477 647 459 647 C 413 647 371 626 334 585 C 297 543 268 490 248 425 L 489 425 L 478 380 L 235 380 C 231 366 228 353 226 340 C 224 327 222 314 220 302 L 431 302 L 420 257 L 214 257 C 213 251 212 246 212 241 C 212 235 212 230 212 225 C 212 177 224 136 248 102 C 272 68 311 52 363 52 C 397 52 430 60 462 77 C 494 93 525 119 557 154 L 584 122 C 569 101 552 82 532 66 C 512 50 491 36 469 25 C 447 14 424 6 401 0 C 378 -6 357 -9 337 -9 C 299 -9 265 -3 237 9 C 208 21 184 37 165 58 C 146 79 132 104 122 133 C 112 161 108 192 108 226 C 108 230 108 235 108 241 C 108 247 108 252 109 257 L 29 257 L 40 302 L 114 302 C 116 315 118 328 121 342 C 124 355 127 368 131 380 L 53 380 L 64 425 L 146 425 C 160 463 179 499 201 532 C 223 565 248 594 276 618 C 304 642 334 660 367 674 C 400 688 434 695 470 695 Z" unicode="" />
<glyph horiz-adv-x="673" d="M 560 684 L 750 684 L 744 661 C 743 656 741 652 737 650 C 733 648 727 645 719 641 C 703 633 690 627 682 622 C 674 616 661 604 645 586 L 471 395 L 604 395 L 592 350 L 428 350 L 394 312 L 386 281 L 575 281 L 564 236 L 376 236 L 340 96 C 339 92 338 88 337 83 C 336 78 336 74 336 70 C 336 63 338 58 344 55 C 350 51 356 48 362 46 C 372 41 378 38 382 36 C 386 34 387 31 386 27 L 379 0 L 160 0 L 167 27 C 168 32 170 35 174 37 C 178 39 186 42 198 46 C 212 51 221 55 225 59 C 229 62 232 69 235 80 L 274 236 L 80 236 L 91 281 L 286 281 L 294 310 L 277 350 L 108 350 L 120 395 L 256 395 L 169 598 C 164 608 158 616 151 622 C 144 628 135 633 125 638 C 114 642 107 645 105 647 C 103 648 102 651 103 656 L 110 684 L 331 684 L 326 665 C 324 660 322 656 320 654 C 318 652 311 648 299 643 C 290 639 283 636 279 633 C 275 629 273 626 273 622 C 273 618 274 613 277 606 C 279 599 281 594 283 590 L 376 365 L 577 589 C 583 595 589 602 593 610 C 597 617 599 622 599 625 C 599 629 597 632 593 635 C 589 637 583 640 577 643 C 568 646 562 649 558 653 C 554 656 553 660 555 665 L 560 684 Z" unicode="" />
<glyph horiz-adv-x="606" d="M 395 730 C 425 730 452 726 476 718 C 500 710 520 700 537 688 C 553 676 566 662 575 646 C 583 630 588 615 588 600 C 588 576 582 559 570 547 C 558 535 544 529 528 529 C 514 529 500 533 487 541 C 473 549 467 561 467 578 C 467 590 470 601 477 610 C 483 619 494 628 510 636 C 497 648 482 659 464 669 C 446 679 421 684 389 684 C 345 684 312 673 291 651 C 270 629 260 606 260 581 C 260 564 268 547 284 529 C 300 511 335 486 390 456 C 441 427 480 399 508 373 C 535 346 549 316 549 284 C 549 252 536 221 511 192 C 486 162 450 136 403 112 C 423 96 438 79 447 61 C 456 43 461 25 461 7 C 461 -16 455 -38 443 -59 C 431 -80 414 -98 394 -114 C 374 -130 350 -142 323 -151 C 296 -160 267 -165 237 -165 C 206 -165 178 -161 154 -154 C 130 -146 109 -137 92 -125 C 75 -113 62 -99 53 -84 C 44 -68 40 -53 40 -37 C 40 -13 45 4 57 16 C 68 28 82 34 99 34 C 114 34 128 29 141 21 C 153 13 160 0 160 -16 C 160 -27 156 -37 149 -46 C 142 -55 131 -64 117 -73 C 129 -84 145 -95 163 -105 C 181 -115 206 -120 239 -120 C 282 -120 314 -109 336 -87 C 358 -65 369 -41 369 -15 C 369 1 360 18 344 36 C 327 54 292 78 238 108 C 187 136 148 163 121 190 C 94 217 81 247 81 280 C 81 314 93 345 117 373 C 141 401 178 427 226 452 C 206 469 191 486 182 504 C 172 522 168 540 168 559 C 168 583 174 605 186 626 C 198 647 215 665 236 681 C 256 696 280 708 308 717 C 335 725 364 730 395 730 Z M 368 137 C 395 150 417 166 433 184 C 449 202 458 226 458 254 C 458 271 452 287 442 302 C 432 316 416 330 395 344 C 370 360 345 375 321 389 C 297 403 277 416 262 427 C 235 413 213 397 196 379 C 179 361 171 340 171 314 C 171 295 176 278 186 263 C 196 248 211 234 233 220 C 257 204 281 188 305 174 C 329 160 350 147 368 137 Z" unicode="" />
<glyph horiz-adv-x="436" d="M 346 623 C 362 623 376 617 388 606 C 400 594 406 581 406 567 C 406 552 400 539 388 528 C 376 516 362 511 346 511 C 329 511 315 516 303 528 C 291 539 285 552 285 567 C 285 581 291 594 303 606 C 315 617 329 623 346 623 Z M 141 623 C 157 623 171 617 183 606 C 195 594 201 581 201 567 C 201 552 195 539 183 528 C 171 516 157 511 141 511 C 124 511 110 516 98 528 C 86 539 80 552 80 567 C 80 581 86 594 98 606 C 110 617 124 623 141 623 Z" unicode="" />
<glyph horiz-adv-x="810" d="M 433 723 C 485 723 533 713 579 694 C 624 674 663 648 696 616 C 729 583 755 544 775 499 C 794 454 804 406 804 356 C 804 305 794 257 775 213 C 755 168 729 129 696 96 C 663 63 624 37 579 18 C 533 0 485 -10 433 -10 C 381 -10 332 0 287 18 C 241 37 202 63 169 96 C 136 129 110 168 91 213 C 71 257 62 305 62 356 C 62 406 71 454 91 499 C 110 544 136 583 169 616 C 202 648 241 674 287 694 C 332 713 381 723 433 723 Z M 433 27 C 479 27 522 35 562 53 C 602 70 636 93 666 123 C 696 153 719 188 736 228 C 753 268 762 310 762 356 C 762 401 753 444 736 484 C 719 524 696 559 666 589 C 636 619 602 642 562 660 C 522 677 479 686 433 686 C 387 686 344 677 304 660 C 264 642 229 619 200 589 C 170 559 147 524 130 484 C 113 444 105 401 105 356 C 105 310 113 268 130 228 C 147 188 170 153 200 123 C 229 93 264 70 304 53 C 344 35 387 27 433 27 Z M 573 270 L 604 240 C 599 229 592 218 582 206 C 572 194 560 184 546 174 C 532 164 515 156 497 150 C 479 143 459 140 438 140 C 404 140 375 145 350 157 C 324 169 303 184 287 204 C 270 223 257 245 249 271 C 240 297 236 324 236 352 C 236 387 242 418 254 445 C 266 472 282 495 301 513 C 320 531 341 544 365 553 C 389 562 412 567 435 567 C 453 567 470 564 484 560 C 498 556 514 549 531 539 C 532 538 533 537 534 536 C 535 535 536 535 538 536 C 543 539 547 541 549 543 C 551 544 554 545 557 545 L 583 545 L 583 424 L 551 424 C 545 424 540 425 538 428 C 535 431 533 435 532 439 C 525 459 514 478 500 495 C 485 511 467 520 445 520 C 432 520 419 517 406 511 C 392 505 380 495 369 482 C 358 468 349 451 342 430 C 335 409 332 384 332 355 C 332 303 342 263 363 235 C 384 207 411 193 443 193 C 459 193 475 195 489 201 C 503 207 515 213 526 221 C 536 229 546 237 554 246 C 562 255 568 263 573 270 Z" unicode="" />
<glyph horiz-adv-x="487" d="M 489 695 C 491 695 492 693 494 689 C 495 685 496 683 496 683 C 496 679 495 675 494 671 C 492 666 491 662 491 659 L 430 429 C 428 422 427 415 425 408 C 423 401 423 394 423 388 C 423 382 425 376 430 372 C 435 367 441 365 447 365 C 451 365 456 365 460 367 C 464 368 468 369 472 370 C 474 366 476 363 478 361 C 479 359 480 356 480 352 C 480 346 476 342 469 338 C 462 334 454 330 445 328 C 436 325 427 323 419 322 C 410 320 404 320 400 320 C 379 320 364 326 354 338 C 344 350 339 366 339 385 C 321 367 301 351 281 339 C 261 326 237 320 211 320 C 171 320 141 333 123 361 C 105 389 96 421 96 457 C 96 487 101 517 113 546 C 125 574 141 600 161 622 C 181 644 206 661 234 674 C 262 687 291 694 323 694 C 336 694 350 692 365 689 C 379 686 392 681 404 674 C 408 672 412 669 417 667 C 421 664 426 663 431 663 C 436 663 441 664 446 668 C 450 671 455 675 459 679 C 463 683 468 686 473 690 C 477 693 483 695 489 695 Z M 388 575 C 390 581 391 588 393 596 C 394 604 395 611 395 618 C 384 630 374 638 364 643 C 354 648 341 651 325 651 C 302 651 282 645 264 634 C 246 622 230 608 218 590 C 206 572 196 553 190 532 C 183 510 180 489 180 469 C 180 447 185 427 196 409 C 206 391 224 382 250 382 C 272 382 291 387 305 397 C 319 407 335 419 351 433 L 388 575 Z" unicode="" />
<glyph horiz-adv-x="533" d="M 460 398 L 523 398 L 364 219 L 449 50 L 386 50 L 273 192 C 270 195 268 199 266 203 C 264 207 263 212 263 217 C 262 225 264 232 269 239 C 274 245 280 251 287 256 L 460 398 Z M 249 398 L 311 398 L 154 219 L 237 50 L 175 50 L 62 192 C 59 195 57 199 55 203 C 53 207 51 212 51 217 C 51 225 53 232 58 239 C 63 245 69 251 76 256 L 249 398 Z" unicode="" />
<glyph horiz-adv-x="774" d="M 659 337 L 659 42 L 589 42 L 589 269 L 141 269 L 141 337 L 659 337 Z" unicode="" />
<glyph horiz-adv-x="340" d="M 62 264 L 298 264 L 277 182 L 40 182 L 62 264 Z" unicode="" />
<glyph horiz-adv-x="500" d="M 326 743 C 358 743 389 736 418 724 C 447 711 472 694 494 673 C 515 651 532 626 545 597 C 557 568 564 537 564 505 C 564 472 557 441 545 412 C 532 383 515 358 494 337 C 472 315 447 298 418 286 C 389 274 358 268 326 268 C 293 268 262 274 233 286 C 204 298 179 315 158 337 C 136 358 119 383 107 412 C 94 441 88 472 88 505 C 88 537 94 568 107 597 C 119 626 136 651 158 673 C 179 694 204 711 233 724 C 262 736 293 743 326 743 Z M 326 301 C 354 301 380 306 405 317 C 430 327 452 342 470 360 C 488 378 503 400 514 425 C 524 450 530 477 530 505 C 530 533 524 559 514 584 C 503 609 488 631 470 649 C 452 667 430 682 405 693 C 380 703 354 709 326 709 C 298 709 271 703 246 693 C 221 682 199 667 181 649 C 163 631 148 609 138 584 C 127 559 122 533 122 505 C 122 477 127 450 138 425 C 148 400 163 378 181 360 C 199 342 221 327 246 317 C 271 306 298 301 326 301 Z M 379 482 L 428 375 L 374 375 L 330 475 L 286 475 L 286 375 L 236 375 L 236 632 L 341 632 C 362 632 382 625 400 612 C 418 599 428 580 428 555 C 428 538 423 523 415 511 C 407 498 395 488 379 482 Z M 336 524 C 342 524 350 526 359 531 C 367 535 372 543 372 554 C 372 564 368 572 361 577 C 354 581 346 584 337 584 L 286 584 L 286 524 L 336 524 Z" unicode="" />
<glyph horiz-adv-x="436" d="M 92 601 L 413 601 L 394 537 L 73 537 L 92 601 Z" unicode="" />
<glyph horiz-adv-x="324" d="M 213 730 C 248 730 278 717 304 692 C 330 666 343 636 343 601 C 343 565 330 535 304 510 C 278 484 248 472 213 472 C 177 472 147 484 121 510 C 95 535 83 565 83 601 C 83 636 95 666 121 692 C 147 717 177 730 213 730 Z M 213 520 C 235 520 253 528 267 544 C 281 560 288 579 288 601 C 288 622 281 641 267 657 C 253 673 235 682 213 682 C 190 682 172 673 158 657 C 144 641 138 622 138 601 C 138 579 144 560 158 544 C 172 528 190 520 213 520 Z" unicode="" />
<glyph horiz-adv-x="774" d="M 669 419 L 669 351 L 440 351 L 440 131 L 370 131 L 370 351 L 141 351 L 141 419 L 370 419 L 370 639 L 440 639 L 440 419 L 669 419 Z M 669 68 L 669 0 L 141 0 L 141 68 L 669 68 Z" unicode="" />
<glyph horiz-adv-x="438" d="M 305 734 C 348 734 383 723 410 701 C 437 679 451 653 451 623 C 451 602 445 583 434 566 C 423 548 409 532 393 518 C 377 504 359 491 339 479 C 319 467 301 457 285 449 C 257 434 234 422 218 413 C 202 404 186 393 172 381 L 321 381 C 331 381 340 382 346 386 C 352 390 358 397 363 408 C 365 414 369 417 373 419 C 377 421 381 422 386 422 L 412 422 L 382 316 L 80 316 L 93 364 C 109 383 133 404 164 426 C 194 448 225 470 255 491 C 289 515 316 537 335 558 C 354 579 364 603 364 630 C 364 647 357 662 343 674 C 329 686 311 692 289 692 C 276 692 263 689 251 685 C 239 681 230 675 225 669 C 231 664 236 659 239 654 C 242 648 244 642 244 636 C 244 623 240 613 232 606 C 224 598 212 595 198 595 C 182 595 171 599 163 608 C 155 616 151 627 151 639 C 151 661 166 683 196 703 C 226 723 263 734 305 734 Z" unicode="" />
<glyph horiz-adv-x="437" d="M 288 735 C 328 735 363 725 391 706 C 419 686 434 664 434 638 C 434 611 423 589 402 573 C 380 557 354 545 322 539 C 348 531 370 518 388 501 C 406 484 415 464 415 441 C 415 405 397 374 361 348 C 325 322 281 310 229 310 C 185 310 149 319 123 337 C 97 355 84 377 84 404 C 84 414 88 424 97 433 C 105 441 116 446 130 446 C 146 446 159 441 167 433 C 175 424 180 415 180 407 C 180 400 178 394 174 389 C 170 383 165 378 160 374 C 166 368 175 363 186 359 C 197 355 210 354 225 354 C 244 354 260 357 274 363 C 287 369 298 377 306 387 C 314 397 319 407 323 419 C 326 431 328 442 328 453 C 328 474 318 490 298 502 C 278 513 248 519 206 520 L 213 561 C 263 561 298 567 318 581 C 338 594 348 614 348 642 C 348 655 341 667 328 677 C 315 687 298 692 277 692 C 267 692 257 691 249 689 C 240 687 233 685 229 683 C 231 679 234 674 236 670 C 238 666 240 661 240 655 C 240 645 235 637 227 630 C 219 623 209 620 197 620 C 184 620 173 623 163 630 C 153 637 149 648 149 662 C 149 672 153 682 161 691 C 169 700 179 708 193 714 C 206 720 221 725 238 729 C 254 733 271 735 288 735 Z" unicode="" />
<glyph horiz-adv-x="436" d="M 337 670 C 351 670 362 665 370 656 C 378 647 383 637 383 625 C 383 616 379 607 371 598 C 363 589 351 580 335 572 L 166 482 L 139 499 L 276 641 C 288 653 298 661 308 665 C 318 668 327 670 337 670 Z" unicode="" />
<glyph horiz-adv-x="674" d="M 412 730 L 716 730 L 710 706 C 708 701 706 698 702 696 C 698 694 690 690 678 686 C 662 680 651 676 646 672 C 641 668 637 660 635 650 L 456 -60 C 453 -68 453 -75 457 -80 C 460 -85 468 -90 481 -96 C 491 -100 498 -104 501 -106 C 503 -108 504 -111 503 -116 L 496 -140 L 357 -140 L 566 686 L 490 686 L 282 -140 L 142 -140 L 149 -116 C 150 -111 152 -108 156 -106 C 160 -104 168 -100 181 -96 C 195 -90 205 -85 211 -80 C 217 -75 221 -68 224 -60 L 319 311 C 308 311 291 312 267 314 C 243 316 218 322 194 333 C 170 344 148 361 130 384 C 112 407 103 439 103 481 C 103 515 109 547 122 578 C 134 608 153 635 179 657 C 204 679 236 697 275 710 C 314 723 360 730 412 730 Z M 329 352 L 412 684 C 373 684 341 676 317 662 C 293 647 274 628 261 606 C 247 584 238 559 234 533 C 229 507 227 482 227 460 C 227 427 234 401 249 381 C 264 361 291 352 329 352 Z" unicode="" />
<glyph horiz-adv-x="239" d="M 142 409 C 160 409 174 402 186 390 C 198 377 204 362 204 346 C 204 329 198 315 186 303 C 174 291 159 286 141 286 C 124 286 110 291 98 303 C 86 315 80 329 80 346 C 80 362 86 377 98 390 C 110 402 125 409 142 409 Z" unicode="" />
<glyph horiz-adv-x="436" d="M 219 -46 C 247 -46 270 -52 286 -64 C 302 -76 311 -93 311 -116 C 311 -136 302 -155 285 -174 C 267 -193 236 -203 191 -203 C 162 -203 137 -197 115 -186 C 93 -175 76 -164 63 -152 L 86 -124 C 98 -132 112 -141 128 -150 C 144 -159 163 -164 185 -164 C 205 -164 218 -158 224 -148 C 230 -137 233 -127 233 -119 C 233 -110 229 -102 221 -94 C 213 -86 200 -83 182 -83 C 179 -83 175 -83 171 -83 C 167 -83 163 -84 160 -85 L 212 0 L 246 0 L 219 -46 Z" unicode="" />
<glyph horiz-adv-x="341" d="M 290 730 L 329 730 L 241 382 C 239 375 241 370 245 366 C 249 362 256 360 265 359 C 273 357 280 355 286 352 C 292 348 294 343 293 337 L 288 315 L 89 315 L 93 336 C 94 343 99 348 107 352 C 115 355 125 357 135 359 C 145 360 152 362 154 366 C 156 369 159 374 161 382 L 233 657 L 161 657 L 168 691 L 290 730 Z" unicode="" />
<glyph horiz-adv-x="482" d="M 311 694 C 358 694 397 678 427 647 C 457 615 473 576 473 530 C 473 500 467 472 456 446 C 444 420 429 397 410 379 C 390 360 367 345 341 334 C 315 323 287 318 258 318 C 212 318 174 333 144 364 C 114 395 99 433 99 479 C 99 509 104 537 115 563 C 125 589 140 612 159 632 C 177 651 200 666 226 677 C 252 688 280 694 311 694 Z M 262 361 C 285 361 305 368 321 382 C 337 396 350 414 360 435 C 370 456 377 479 381 503 C 385 527 387 548 387 567 C 387 590 380 610 367 626 C 354 642 335 651 311 651 C 286 651 265 644 249 630 C 233 616 220 598 210 578 C 200 557 194 535 190 511 C 186 487 184 466 184 447 C 184 423 190 402 204 386 C 218 369 237 361 262 361 Z" unicode="" />
<glyph horiz-adv-x="533" d="M 468 256 C 470 252 473 248 475 244 C 477 240 478 235 478 231 C 478 223 475 215 471 209 C 466 202 461 196 455 192 L 282 50 L 219 50 L 375 229 L 292 398 L 355 398 L 468 256 Z M 257 256 C 259 252 262 248 264 244 C 266 240 267 235 267 231 C 267 223 264 215 259 209 C 254 202 249 196 244 192 L 71 50 L 8 50 L 165 229 L 81 398 L 144 398 L 257 256 Z" unicode="" />
<glyph horiz-adv-x="802" d="M 702 733 L 762 733 L 155 -10 L 96 -10 L 702 733 Z M 290 730 L 329 730 L 241 382 C 239 375 241 370 245 366 C 249 362 256 360 265 359 C 273 357 280 355 286 352 C 292 348 294 343 293 337 L 288 315 L 89 315 L 93 336 C 94 343 99 348 107 352 C 115 355 125 357 135 359 C 145 360 152 362 154 366 C 156 369 159 374 161 382 L 233 657 L 161 657 L 168 691 L 290 730 Z M 673 152 L 742 152 L 730 105 L 661 105 L 648 54 C 647 49 649 45 653 43 C 657 41 660 39 664 38 C 668 36 672 33 675 31 C 678 29 679 26 679 22 L 673 0 L 525 0 L 531 22 C 531 25 534 28 538 31 C 542 34 548 37 556 39 C 560 39 563 41 567 43 C 571 45 573 49 574 54 L 587 105 L 383 105 L 393 148 L 684 417 L 740 417 L 673 152 Z M 598 152 L 640 321 L 458 152 L 598 152 Z" unicode="" />
<glyph horiz-adv-x="873" d="M 702 733 L 762 733 L 155 -10 L 96 -10 L 702 733 Z M 290 730 L 329 730 L 241 382 C 239 375 241 370 245 366 C 249 362 256 360 265 359 C 273 357 280 355 286 352 C 292 348 294 343 293 337 L 288 315 L 89 315 L 93 336 C 94 343 99 348 107 352 C 115 355 125 357 135 359 C 145 360 152 362 154 366 C 156 369 159 374 161 382 L 233 657 L 161 657 L 168 691 L 290 730 Z M 674 418 C 717 418 752 407 779 385 C 806 363 820 337 820 307 C 820 286 814 267 803 250 C 792 232 778 216 762 202 C 746 188 728 175 708 163 C 688 151 670 141 654 133 C 626 118 603 106 587 97 C 571 88 555 77 541 65 L 690 65 C 700 65 709 66 715 70 C 721 74 727 81 732 92 C 734 98 738 101 742 103 C 746 105 750 106 755 106 L 781 106 L 751 0 L 449 0 L 462 48 C 478 67 502 88 533 110 C 563 132 594 154 624 175 C 658 199 685 221 704 242 C 723 263 733 287 733 314 C 733 331 726 346 712 358 C 698 370 680 376 658 376 C 645 376 632 373 620 369 C 608 365 599 359 594 353 C 600 348 605 343 608 338 C 611 332 613 326 613 320 C 613 307 609 297 601 290 C 593 282 581 279 567 279 C 551 279 540 283 532 292 C 524 300 520 311 520 323 C 520 345 535 367 565 387 C 595 407 632 418 674 418 Z" unicode="" />
<glyph horiz-adv-x="869" d="M 288 735 C 328 735 363 725 391 706 C 419 686 434 664 434 638 C 434 611 423 589 402 573 C 380 557 354 545 322 539 C 348 531 370 518 388 501 C 406 484 415 464 415 441 C 415 405 397 374 361 348 C 325 322 281 310 229 310 C 185 310 149 319 123 337 C 97 355 84 377 84 404 C 84 414 88 424 97 433 C 105 441 116 446 130 446 C 146 446 159 441 167 433 C 175 424 180 415 180 407 C 180 400 178 394 174 389 C 170 383 165 378 160 374 C 166 368 175 363 186 359 C 197 355 210 354 225 354 C 244 354 260 357 274 363 C 287 369 298 377 306 387 C 314 397 319 407 323 419 C 326 431 328 442 328 453 C 328 474 318 490 298 502 C 278 513 248 519 206 520 L 213 561 C 263 561 298 567 318 581 C 338 594 348 614 348 642 C 348 655 341 667 328 677 C 315 687 298 692 277 692 C 267 692 257 691 249 689 C 240 687 233 685 229 683 C 231 679 234 674 236 670 C 238 666 240 661 240 655 C 240 645 235 637 227 630 C 219 623 209 620 197 620 C 184 620 173 623 163 630 C 153 637 149 648 149 662 C 149 672 153 682 161 691 C 169 700 179 708 193 714 C 206 720 221 725 238 729 C 254 733 271 735 288 735 Z M 768 733 L 828 733 L 221 -10 L 161 -10 L 768 733 Z M 740 152 L 809 152 L 797 105 L 728 105 L 715 54 C 714 49 716 45 720 43 C 724 41 727 39 731 38 C 735 36 739 33 742 31 C 745 29 746 26 746 22 L 740 0 L 592 0 L 598 22 C 598 25 601 28 605 31 C 609 34 615 37 623 39 C 627 39 630 41 634 43 C 638 45 640 49 641 54 L 654 105 L 450 105 L 460 148 L 751 417 L 807 417 L 740 152 Z M 665 152 L 707 321 L 525 152 L 665 152 Z" unicode="" />
<glyph horiz-adv-x="461" d="M 288 547 C 306 547 322 540 336 527 C 349 514 356 498 356 480 C 356 462 349 446 336 433 C 323 420 307 414 289 414 C 269 414 253 420 240 433 C 226 446 220 462 220 480 C 220 498 226 514 239 527 C 252 540 268 547 288 547 Z M 290 -24 C 310 -24 326 -29 337 -41 C 348 -53 354 -66 354 -82 C 354 -96 349 -110 341 -124 C 332 -138 320 -151 304 -162 C 288 -173 269 -182 247 -189 C 224 -196 198 -200 170 -200 C 146 -200 122 -196 99 -190 C 76 -184 56 -175 38 -163 C 20 -151 6 -136 -4 -118 C -14 -100 -20 -79 -20 -56 C -20 -18 -9 12 13 37 C 35 62 64 90 102 121 C 151 161 185 197 203 229 C 221 261 235 297 244 337 C 244 339 247 342 252 344 C 257 346 263 348 270 348 C 276 348 282 346 287 342 C 291 338 293 336 293 334 C 288 304 278 270 262 233 C 246 196 223 159 193 121 C 174 98 158 79 145 63 C 132 47 121 32 113 18 C 105 4 99 -8 95 -22 C 91 -36 89 -52 89 -71 C 89 -103 98 -126 117 -140 C 135 -154 156 -161 178 -161 C 191 -161 206 -157 222 -151 C 238 -145 250 -136 258 -125 C 248 -116 242 -108 239 -101 C 235 -93 234 -87 234 -82 C 234 -63 239 -49 250 -39 C 261 -29 274 -24 290 -24 Z" unicode="" />
<glyph horiz-adv-x="719" d="M 423 929 L 570 801 L 545 782 L 368 855 C 351 861 338 869 330 879 C 321 889 317 898 317 908 C 317 919 321 929 330 939 C 338 948 350 953 365 953 C 373 953 381 951 391 948 C 401 945 411 939 423 929 Z M 649 45 C 659 40 666 37 669 35 C 672 33 673 29 673 25 L 667 0 L 434 0 L 439 20 C 440 24 443 28 447 31 C 451 33 459 37 471 42 C 482 46 490 51 496 56 C 501 60 504 66 504 73 C 504 75 503 80 502 88 C 501 95 500 102 500 109 L 484 204 L 176 204 L 112 110 C 108 105 104 98 98 88 C 92 78 89 70 89 65 C 89 59 91 53 97 49 C 103 45 110 41 118 39 C 127 35 133 31 137 28 C 140 24 141 20 141 15 L 138 0 L -70 0 L -64 20 C -63 24 -61 28 -58 31 C -54 34 -48 38 -38 43 C -20 53 -8 61 0 69 C 8 76 18 88 30 105 L 404 633 L 392 683 C 391 685 391 688 391 690 C 391 692 391 693 392 695 C 392 696 393 697 395 699 C 396 700 398 701 401 703 C 414 709 426 714 436 719 C 446 723 458 729 471 735 C 473 735 475 736 478 738 C 481 740 484 741 486 741 C 488 741 490 740 492 739 C 493 738 494 736 495 734 L 611 90 C 613 80 617 71 623 63 C 629 55 638 49 649 45 Z M 211 255 L 475 255 L 421 560 L 211 255 Z" unicode="" />
<glyph horiz-adv-x="719" d="M 545 953 C 559 953 570 948 578 939 C 586 929 590 919 590 908 C 590 898 585 889 577 880 C 568 870 555 862 537 855 L 358 782 L 335 801 L 487 929 C 498 938 508 944 518 948 C 528 951 537 953 545 953 Z M 649 45 C 659 40 666 37 669 35 C 672 33 673 29 673 25 L 667 0 L 434 0 L 439 20 C 440 24 443 28 447 31 C 451 33 459 37 471 42 C 482 46 490 51 496 56 C 501 60 504 66 504 73 C 504 75 503 80 502 88 C 501 95 500 102 500 109 L 484 204 L 176 204 L 112 110 C 108 105 104 98 98 88 C 92 78 89 70 89 65 C 89 59 91 53 97 49 C 103 45 110 41 118 39 C 127 35 133 31 137 28 C 140 24 141 20 141 15 L 138 0 L -70 0 L -64 20 C -63 24 -61 28 -58 31 C -54 34 -48 38 -38 43 C -20 53 -8 61 0 69 C 8 76 18 88 30 105 L 404 633 L 392 683 C 391 685 391 688 391 690 C 391 692 391 693 392 695 C 392 696 393 697 395 699 C 396 700 398 701 401 703 C 414 709 426 714 436 719 C 446 723 458 729 471 735 C 473 735 475 736 478 738 C 481 740 484 741 486 741 C 488 741 490 740 492 739 C 493 738 494 736 495 734 L 611 90 C 613 80 617 71 623 63 C 629 55 638 49 649 45 Z M 211 255 L 475 255 L 421 560 L 211 255 Z" unicode="" />
<glyph horiz-adv-x="719" d="M 526 951 L 636 778 L 592 778 L 486 874 L 322 778 L 277 778 L 461 951 L 526 951 Z M 649 45 C 659 40 666 37 669 35 C 672 33 673 29 673 25 L 667 0 L 434 0 L 439 20 C 440 24 443 28 447 31 C 451 33 459 37 471 42 C 482 46 490 51 496 56 C 501 60 504 66 504 73 C 504 75 503 80 502 88 C 501 95 500 102 500 109 L 484 204 L 176 204 L 112 110 C 108 105 104 98 98 88 C 92 78 89 70 89 65 C 89 59 91 53 97 49 C 103 45 110 41 118 39 C 127 35 133 31 137 28 C 140 24 141 20 141 15 L 138 0 L -70 0 L -64 20 C -63 24 -61 28 -58 31 C -54 34 -48 38 -38 43 C -20 53 -8 61 0 69 C 8 76 18 88 30 105 L 404 633 L 392 683 C 391 685 391 688 391 690 C 391 692 391 693 392 695 C 392 696 393 697 395 699 C 396 700 398 701 401 703 C 414 709 426 714 436 719 C 446 723 458 729 471 735 C 473 735 475 736 478 738 C 481 740 484 741 486 741 C 488 741 490 740 492 739 C 493 738 494 736 495 734 L 611 90 C 613 80 617 71 623 63 C 629 55 638 49 649 45 Z M 211 255 L 475 255 L 421 560 L 211 255 Z" unicode="" />
<glyph horiz-adv-x="719" d="M 615 924 L 651 924 C 645 891 629 863 603 839 C 577 815 548 804 518 804 C 504 804 493 806 485 810 C 476 814 463 821 446 831 C 432 838 421 844 412 849 C 402 854 392 857 381 857 C 365 857 350 851 338 840 C 326 828 318 816 315 802 L 279 802 C 285 834 300 862 326 886 C 352 910 380 922 412 922 C 429 922 441 919 449 915 C 457 910 468 904 483 897 C 497 889 509 883 519 877 C 528 871 538 869 549 869 C 564 869 578 874 590 886 C 602 897 611 910 615 924 Z M 649 45 C 659 40 666 37 669 35 C 672 33 673 29 673 25 L 667 0 L 434 0 L 439 20 C 440 24 443 28 447 31 C 451 33 459 37 471 42 C 482 46 490 51 496 56 C 501 60 504 66 504 73 C 504 75 503 80 502 88 C 501 95 500 102 500 109 L 484 204 L 176 204 L 112 110 C 108 105 104 98 98 88 C 92 78 89 70 89 65 C 89 59 91 53 97 49 C 103 45 110 41 118 39 C 127 35 133 31 137 28 C 140 24 141 20 141 15 L 138 0 L -70 0 L -64 20 C -63 24 -61 28 -58 31 C -54 34 -48 38 -38 43 C -20 53 -8 61 0 69 C 8 76 18 88 30 105 L 404 633 L 392 683 C 391 685 391 688 391 690 C 391 692 391 693 392 695 C 392 696 393 697 395 699 C 396 700 398 701 401 703 C 414 709 426 714 436 719 C 446 723 458 729 471 735 C 473 735 475 736 478 738 C 481 740 484 741 486 741 C 488 741 490 740 492 739 C 493 738 494 736 495 734 L 611 90 C 613 80 617 71 623 63 C 629 55 638 49 649 45 Z M 211 255 L 475 255 L 421 560 L 211 255 Z" unicode="" />
<glyph horiz-adv-x="719" d="M 564 913 C 580 913 595 907 607 896 C 619 884 625 871 625 857 C 625 842 619 829 607 818 C 595 806 580 801 564 801 C 548 801 534 806 522 818 C 510 829 504 842 504 857 C 504 871 510 884 522 896 C 534 907 548 913 564 913 Z M 333 913 C 349 913 364 907 376 896 C 388 884 394 871 394 857 C 394 842 388 829 376 818 C 364 806 349 801 333 801 C 317 801 303 806 291 818 C 279 829 273 842 273 857 C 273 871 279 884 291 896 C 303 907 317 913 333 913 Z M 649 45 C 659 40 666 37 669 35 C 672 33 673 29 673 25 L 667 0 L 434 0 L 439 20 C 440 24 443 28 447 31 C 451 33 459 37 471 42 C 482 46 490 51 496 56 C 501 60 504 66 504 73 C 504 75 503 80 502 88 C 501 95 500 102 500 109 L 484 204 L 176 204 L 112 110 C 108 105 104 98 98 88 C 92 78 89 70 89 65 C 89 59 91 53 97 49 C 103 45 110 41 118 39 C 127 35 133 31 137 28 C 140 24 141 20 141 15 L 138 0 L -70 0 L -64 20 C -63 24 -61 28 -58 31 C -54 34 -48 38 -38 43 C -20 53 -8 61 0 69 C 8 76 18 88 30 105 L 404 633 L 392 683 C 391 685 391 688 391 690 C 391 692 391 693 392 695 C 392 696 393 697 395 699 C 396 700 398 701 401 703 C 414 709 426 714 436 719 C 446 723 458 729 471 735 C 473 735 475 736 478 738 C 481 740 484 741 486 741 C 488 741 490 740 492 739 C 493 738 494 736 495 734 L 611 90 C 613 80 617 71 623 63 C 629 55 638 49 649 45 Z M 211 255 L 475 255 L 421 560 L 211 255 Z" unicode="" />
<glyph horiz-adv-x="719" d="M 467 982 C 501 982 529 972 552 953 C 575 934 587 911 587 884 C 587 848 573 819 545 797 C 517 775 484 764 448 764 C 415 764 387 773 364 791 C 341 809 330 833 330 862 C 330 892 342 920 368 945 C 393 969 426 982 467 982 Z M 449 796 C 473 796 491 806 502 826 C 512 846 518 868 518 893 C 518 911 513 925 504 935 C 495 945 482 950 466 950 C 440 950 423 939 413 919 C 403 899 398 877 398 854 C 398 836 402 821 410 811 C 418 801 431 796 449 796 Z M 649 45 C 659 40 666 37 669 35 C 672 33 673 29 673 25 L 667 0 L 434 0 L 439 20 C 440 24 443 28 447 31 C 451 33 459 37 471 42 C 482 46 490 51 496 56 C 501 60 504 66 504 73 C 504 75 503 80 502 88 C 501 95 500 102 500 109 L 484 204 L 176 204 L 112 110 C 108 105 104 98 98 88 C 92 78 89 70 89 65 C 89 59 91 53 97 49 C 103 45 110 41 118 39 C 127 35 133 31 137 28 C 140 24 141 20 141 15 L 138 0 L -70 0 L -64 20 C -63 24 -61 28 -58 31 C -54 34 -48 38 -38 43 C -20 53 -8 61 0 69 C 8 76 18 88 30 105 L 404 633 L 392 683 C 391 685 391 688 391 690 C 391 692 391 693 392 695 C 392 696 393 697 395 699 C 396 700 398 701 401 703 C 414 709 426 714 436 719 C 446 723 458 729 471 735 C 473 735 475 736 478 738 C 481 740 484 741 486 741 C 488 741 490 740 492 739 C 493 738 494 736 495 734 L 611 90 C 613 80 617 71 623 63 C 629 55 638 49 649 45 Z M 211 255 L 475 255 L 421 560 L 211 255 Z" unicode="" />
<glyph horiz-adv-x="1038" d="M 967 730 C 973 730 981 730 991 731 C 1001 731 1010 732 1020 733 C 1030 734 1039 735 1048 736 C 1057 736 1064 737 1069 738 L 1032 590 L 1007 590 C 999 590 993 591 989 594 C 985 596 983 600 983 606 C 981 621 979 634 977 644 C 975 654 971 661 965 667 C 959 672 951 676 941 678 C 931 680 916 681 897 681 L 724 681 L 650 394 L 747 394 C 767 394 781 397 790 403 C 798 409 809 420 823 438 C 827 444 832 449 837 452 C 841 455 848 457 858 457 L 882 457 L 836 275 L 809 275 C 801 275 795 277 792 282 C 788 286 786 291 785 296 C 780 313 775 325 770 333 C 764 340 753 344 737 344 L 638 344 L 564 49 L 789 49 C 819 49 843 55 860 69 C 876 83 897 108 921 144 C 925 150 928 155 932 159 C 935 162 940 164 947 164 L 979 164 L 938 0 L 383 0 L 389 25 C 390 31 393 34 398 36 C 402 37 411 40 424 45 C 439 50 448 55 452 59 C 456 63 459 72 462 85 L 527 338 L 280 338 L 110 109 C 107 104 102 97 96 87 C 90 77 87 70 87 65 C 87 59 90 53 96 49 C 102 45 109 41 117 39 C 126 35 132 31 135 27 C 138 23 139 19 139 15 L 136 0 L -74 0 L -69 20 C -68 24 -66 28 -62 31 C -58 34 -51 38 -42 43 C -24 52 -10 61 -2 70 C 6 78 15 89 25 101 L 413 616 C 416 620 421 628 427 638 C 433 648 437 656 437 662 C 437 668 433 672 426 676 C 419 680 412 683 404 686 C 395 690 389 693 386 697 C 382 701 381 705 382 710 L 387 730 L 967 730 Z M 593 613 C 594 619 595 627 597 635 C 598 643 599 651 599 657 C 598 664 596 671 593 678 C 590 684 584 688 575 688 C 559 688 546 682 534 671 C 522 660 510 647 499 632 L 318 389 L 538 389 L 593 613 Z" unicode="" />
<glyph horiz-adv-x="670" d="M 689 699 L 716 699 L 671 521 L 637 521 C 630 521 626 522 624 525 C 622 527 621 531 621 535 C 615 581 597 618 569 647 C 540 676 501 691 452 691 C 412 691 374 679 340 657 C 305 635 275 605 249 568 C 223 531 203 488 189 439 C 174 389 167 338 167 285 C 167 243 172 207 182 177 C 192 147 206 122 224 102 C 242 82 263 68 287 59 C 311 49 338 45 366 45 C 397 45 426 49 453 59 C 480 68 504 79 524 91 C 544 103 562 116 576 129 C 590 142 600 152 607 159 L 637 119 C 627 106 614 92 597 77 C 580 62 560 48 538 36 C 515 23 489 12 461 3 C 432 -5 401 -10 368 -11 L 347 -46 C 375 -46 397 -52 415 -64 C 433 -75 442 -92 442 -114 C 442 -137 431 -158 409 -176 C 387 -194 355 -203 313 -203 C 279 -203 251 -197 230 -185 C 208 -173 192 -161 181 -151 L 205 -123 C 215 -131 229 -140 246 -149 C 263 -157 282 -162 303 -162 C 321 -162 336 -158 346 -150 C 356 -142 362 -133 362 -121 C 362 -111 358 -103 350 -95 C 342 -87 328 -83 310 -83 C 306 -83 302 -83 298 -83 C 293 -83 289 -83 285 -84 L 331 -10 C 284 -7 243 3 208 21 C 172 39 143 62 119 90 C 95 118 78 151 66 189 C 54 227 49 267 49 310 C 49 374 60 433 83 486 C 105 539 135 584 171 622 C 207 660 249 689 296 710 C 343 730 391 741 439 741 C 464 741 486 739 505 737 C 523 734 540 730 555 726 C 569 722 583 716 595 710 C 607 704 620 697 634 691 C 638 688 643 686 647 685 C 651 683 656 684 662 687 C 670 691 675 694 678 696 C 680 698 684 699 689 699 Z" unicode="" />
<glyph horiz-adv-x="636" d="M 404 929 L 550 801 L 526 782 L 349 855 C 332 861 319 869 311 879 C 302 889 298 898 298 908 C 298 919 302 929 310 939 C 318 948 330 953 345 953 C 353 953 362 951 372 948 C 382 945 392 939 404 929 Z M 564 730 C 570 730 578 730 588 731 C 598 731 607 732 617 733 C 627 734 636 735 645 736 C 654 736 661 737 667 738 L 630 589 L 605 589 C 597 589 591 590 587 593 C 583 595 580 599 580 605 C 578 621 576 633 574 643 C 572 653 568 660 563 666 C 557 671 549 675 539 677 C 529 679 514 680 495 680 L 314 680 L 242 400 L 344 400 C 364 400 378 402 387 408 C 395 414 406 426 419 444 C 423 450 428 455 433 458 C 437 461 444 463 454 463 L 478 463 L 432 280 L 405 280 C 397 280 391 282 388 286 C 384 290 382 295 381 301 C 377 318 372 330 367 338 C 361 345 350 349 334 349 L 230 349 L 154 50 L 387 50 C 417 50 441 57 458 71 C 475 85 495 109 519 145 C 523 151 527 156 531 160 C 534 163 539 165 546 165 L 578 165 L 536 0 L -24 0 L -18 25 C -16 31 -14 34 -10 36 C -6 37 2 40 15 45 C 30 50 40 55 44 59 C 48 63 51 72 54 85 L 192 633 C 193 639 194 644 195 650 C 195 655 196 659 196 662 C 196 667 193 671 188 675 C 183 678 176 681 168 685 C 160 688 153 690 149 692 C 145 693 143 696 143 700 C 143 701 143 703 144 706 C 144 709 145 712 146 715 L 150 730 L 564 730 Z" unicode="" />
<glyph horiz-adv-x="636" d="M 531 953 C 545 953 556 948 564 939 C 572 929 576 919 576 908 C 576 898 571 889 563 880 C 554 870 541 862 523 855 L 344 782 L 321 801 L 473 929 C 484 938 494 944 504 948 C 514 951 523 953 531 953 Z M 564 730 C 570 730 578 730 588 731 C 598 731 607 732 617 733 C 627 734 636 735 645 736 C 654 736 661 737 667 738 L 630 589 L 605 589 C 597 589 591 590 587 593 C 583 595 580 599 580 605 C 578 621 576 633 574 643 C 572 653 568 660 563 666 C 557 671 549 675 539 677 C 529 679 514 680 495 680 L 314 680 L 242 400 L 344 400 C 364 400 378 402 387 408 C 395 414 406 426 419 444 C 423 450 428 455 433 458 C 437 461 444 463 454 463 L 478 463 L 432 280 L 405 280 C 397 280 391 282 388 286 C 384 290 382 295 381 301 C 377 318 372 330 367 338 C 361 345 350 349 334 349 L 230 349 L 154 50 L 387 50 C 417 50 441 57 458 71 C 475 85 495 109 519 145 C 523 151 527 156 531 160 C 534 163 539 165 546 165 L 578 165 L 536 0 L -24 0 L -18 25 C -16 31 -14 34 -10 36 C -6 37 2 40 15 45 C 30 50 40 55 44 59 C 48 63 51 72 54 85 L 192 633 C 193 639 194 644 195 650 C 195 655 196 659 196 662 C 196 667 193 671 188 675 C 183 678 176 681 168 685 C 160 688 153 690 149 692 C 145 693 143 696 143 700 C 143 701 143 703 144 706 C 144 709 145 712 146 715 L 150 730 L 564 730 Z" unicode="" />
<glyph horiz-adv-x="636" d="M 484 951 L 594 778 L 550 778 L 444 874 L 280 778 L 235 778 L 419 951 L 484 951 Z M 564 730 C 570 730 578 730 588 731 C 598 731 607 732 617 733 C 627 734 636 735 645 736 C 654 736 661 737 667 738 L 630 589 L 605 589 C 597 589 591 590 587 593 C 583 595 580 599 580 605 C 578 621 576 633 574 643 C 572 653 568 660 563 666 C 557 671 549 675 539 677 C 529 679 514 680 495 680 L 314 680 L 242 400 L 344 400 C 364 400 378 402 387 408 C 395 414 406 426 419 444 C 423 450 428 455 433 458 C 437 461 444 463 454 463 L 478 463 L 432 280 L 405 280 C 397 280 391 282 388 286 C 384 290 382 295 381 301 C 377 318 372 330 367 338 C 361 345 350 349 334 349 L 230 349 L 154 50 L 387 50 C 417 50 441 57 458 71 C 475 85 495 109 519 145 C 523 151 527 156 531 160 C 534 163 539 165 546 165 L 578 165 L 536 0 L -24 0 L -18 25 C -16 31 -14 34 -10 36 C -6 37 2 40 15 45 C 30 50 40 55 44 59 C 48 63 51 72 54 85 L 192 633 C 193 639 194 644 195 650 C 195 655 196 659 196 662 C 196 667 193 671 188 675 C 183 678 176 681 168 685 C 160 688 153 690 149 692 C 145 693 143 696 143 700 C 143 701 143 703 144 706 C 144 709 145 712 146 715 L 150 730 L 564 730 Z" unicode="" />
<glyph horiz-adv-x="636" d="M 551 913 C 567 913 582 907 594 896 C 606 884 612 871 612 857 C 612 842 606 829 594 818 C 582 806 567 801 551 801 C 535 801 521 806 509 818 C 497 829 491 842 491 857 C 491 871 497 884 509 896 C 521 907 535 913 551 913 Z M 320 913 C 336 913 351 907 363 896 C 375 884 381 871 381 857 C 381 842 375 829 363 818 C 351 806 336 801 320 801 C 304 801 290 806 278 818 C 266 829 260 842 260 857 C 260 871 266 884 278 896 C 290 907 304 913 320 913 Z M 564 730 C 570 730 578 730 588 731 C 598 731 607 732 617 733 C 627 734 636 735 645 736 C 654 736 661 737 667 738 L 630 589 L 605 589 C 597 589 591 590 587 593 C 583 595 580 599 580 605 C 578 621 576 633 574 643 C 572 653 568 660 563 666 C 557 671 549 675 539 677 C 529 679 514 680 495 680 L 314 680 L 242 400 L 344 400 C 364 400 378 402 387 408 C 395 414 406 426 419 444 C 423 450 428 455 433 458 C 437 461 444 463 454 463 L 478 463 L 432 280 L 405 280 C 397 280 391 282 388 286 C 384 290 382 295 381 301 C 377 318 372 330 367 338 C 361 345 350 349 334 349 L 230 349 L 154 50 L 387 50 C 417 50 441 57 458 71 C 475 85 495 109 519 145 C 523 151 527 156 531 160 C 534 163 539 165 546 165 L 578 165 L 536 0 L -24 0 L -18 25 C -16 31 -14 34 -10 36 C -6 37 2 40 15 45 C 30 50 40 55 44 59 C 48 63 51 72 54 85 L 192 633 C 193 639 194 644 195 650 C 195 655 196 659 196 662 C 196 667 193 671 188 675 C 183 678 176 681 168 685 C 160 688 153 690 149 692 C 145 693 143 696 143 700 C 143 701 143 703 144 706 C 144 709 145 712 146 715 L 150 730 L 564 730 Z" unicode="" />
<glyph horiz-adv-x="334" d="M 262 929 L 409 801 L 384 782 L 207 855 C 190 861 177 869 169 879 C 160 889 156 898 156 908 C 156 919 160 929 169 939 C 177 948 189 953 204 953 C 212 953 221 951 231 948 C 241 945 251 939 262 929 Z M 153 730 L 386 730 L 381 705 C 380 699 377 695 373 694 C 368 692 359 689 347 685 C 331 679 322 674 318 670 C 314 666 311 657 309 645 L 170 97 C 168 90 167 84 167 79 C 166 74 166 70 166 68 C 166 62 168 58 173 54 C 178 50 185 47 194 45 C 202 42 208 40 213 38 C 217 36 220 34 220 30 C 220 28 219 26 219 24 C 219 21 218 18 218 16 L 213 0 L -20 0 L -13 25 C -11 31 -9 34 -5 36 C -1 37 6 40 19 45 C 34 50 44 55 48 59 C 52 63 55 72 58 85 L 196 633 C 197 639 198 644 199 650 C 199 655 200 659 200 662 C 200 667 197 671 192 675 C 187 678 180 681 172 685 C 164 688 157 690 153 692 C 148 693 146 696 146 700 C 146 701 146 703 147 707 C 148 711 149 714 150 717 L 153 730 Z" unicode="" />
<glyph horiz-adv-x="334" d="M 371 953 C 385 953 397 948 405 939 C 413 929 417 919 417 908 C 417 898 412 889 403 879 C 394 869 381 861 364 855 L 184 782 L 162 801 L 313 929 C 324 939 334 945 344 948 C 354 951 363 953 371 953 Z M 153 730 L 386 730 L 381 705 C 380 699 377 695 373 694 C 368 692 359 689 347 685 C 331 679 322 674 318 670 C 314 666 311 657 309 645 L 170 97 C 168 90 167 84 167 79 C 166 74 166 70 166 68 C 166 62 168 58 173 54 C 178 50 185 47 194 45 C 202 42 208 40 213 38 C 217 36 220 34 220 30 C 220 28 219 26 219 24 C 219 21 218 18 218 16 L 213 0 L -20 0 L -13 25 C -11 31 -9 34 -5 36 C -1 37 6 40 19 45 C 34 50 44 55 48 59 C 52 63 55 72 58 85 L 196 633 C 197 639 198 644 199 650 C 199 655 200 659 200 662 C 200 667 197 671 192 675 C 187 678 180 681 172 685 C 164 688 157 690 153 692 C 148 693 146 696 146 700 C 146 701 146 703 147 707 C 148 711 149 714 150 717 L 153 730 Z" unicode="" />
<glyph horiz-adv-x="334" d="M 340 951 L 445 778 L 401 778 L 300 874 L 142 778 L 97 778 L 275 951 L 340 951 Z M 153 730 L 386 730 L 381 705 C 380 699 377 695 373 694 C 368 692 359 689 347 685 C 331 679 322 674 318 670 C 314 666 311 657 309 645 L 170 97 C 168 90 167 84 167 79 C 166 74 166 70 166 68 C 166 62 168 58 173 54 C 178 50 185 47 194 45 C 202 42 208 40 213 38 C 217 36 220 34 220 30 C 220 28 219 26 219 24 C 219 21 218 18 218 16 L 213 0 L -20 0 L -13 25 C -11 31 -9 34 -5 36 C -1 37 6 40 19 45 C 34 50 44 55 48 59 C 52 63 55 72 58 85 L 196 633 C 197 639 198 644 199 650 C 199 655 200 659 200 662 C 200 667 197 671 192 675 C 187 678 180 681 172 685 C 164 688 157 690 153 692 C 148 693 146 696 146 700 C 146 701 146 703 147 707 C 148 711 149 714 150 717 L 153 730 Z" unicode="" />
<glyph horiz-adv-x="334" d="M 395 913 C 411 913 426 907 438 896 C 450 884 456 871 456 857 C 456 842 450 829 438 818 C 426 806 411 801 395 801 C 379 801 365 806 353 818 C 341 829 335 842 335 857 C 335 871 341 884 353 896 C 365 907 379 913 395 913 Z M 176 913 C 192 913 207 907 219 896 C 231 884 237 871 237 857 C 237 842 231 829 219 818 C 207 806 192 801 176 801 C 160 801 146 806 134 818 C 122 829 116 842 116 857 C 116 871 122 884 134 896 C 146 907 160 913 176 913 Z M 153 730 L 386 730 L 381 705 C 380 699 377 695 373 694 C 368 692 359 689 347 685 C 331 679 322 674 318 670 C 314 666 311 657 309 645 L 170 97 C 168 90 167 84 167 79 C 166 74 166 70 166 68 C 166 62 168 58 173 54 C 178 50 185 47 194 45 C 202 42 208 40 213 38 C 217 36 220 34 220 30 C 220 28 219 26 219 24 C 219 21 218 18 218 16 L 213 0 L -20 0 L -13 25 C -11 31 -9 34 -5 36 C -1 37 6 40 19 45 C 34 50 44 55 48 59 C 52 63 55 72 58 85 L 196 633 C 197 639 198 644 199 650 C 199 655 200 659 200 662 C 200 667 197 671 192 675 C 187 678 180 681 172 685 C 164 688 157 690 153 692 C 148 693 146 696 146 700 C 146 701 146 703 147 707 C 148 711 149 714 150 717 L 153 730 Z" unicode="" />
<glyph horiz-adv-x="774" d="M 670 924 L 706 924 C 700 891 684 863 658 839 C 632 815 604 804 573 804 C 559 804 548 806 540 810 C 531 814 518 821 502 831 C 488 838 477 844 468 849 C 458 854 448 857 436 857 C 420 857 406 851 394 840 C 382 828 374 816 370 802 L 334 802 C 340 834 356 862 382 886 C 408 910 436 922 467 922 C 484 922 497 919 505 915 C 513 910 524 904 539 897 C 553 889 565 883 574 877 C 583 871 593 869 604 869 C 620 869 634 874 646 886 C 658 897 666 910 670 924 Z M 644 730 L 840 730 L 833 704 C 832 700 829 696 825 694 C 820 692 811 686 797 678 C 783 669 773 660 765 650 C 757 640 752 630 750 620 L 594 -5 L 549 -5 L 259 632 L 134 135 C 132 126 130 118 128 112 C 126 106 126 99 126 93 C 126 84 127 76 131 70 C 135 63 140 56 147 50 C 155 42 162 37 166 35 C 170 33 171 30 171 26 L 165 0 L -30 0 L -23 26 C -22 30 -19 33 -15 35 C -10 37 -1 43 13 52 C 26 60 36 69 44 79 C 51 89 56 99 59 110 L 192 633 C 193 638 194 643 195 649 C 195 655 196 659 196 662 C 196 667 193 671 188 675 C 183 678 176 681 168 685 C 160 688 153 690 149 692 C 145 693 143 696 143 700 C 143 701 143 703 144 706 C 144 709 145 712 146 715 L 150 730 L 331 730 L 575 190 L 676 595 C 678 603 679 610 681 617 C 682 623 683 630 683 637 C 683 645 681 653 678 660 C 674 666 669 673 663 680 C 653 688 647 693 643 695 C 639 697 637 700 638 704 L 644 730 Z" unicode="" />
<glyph horiz-adv-x="781" d="M 461 929 L 608 801 L 583 782 L 406 855 C 389 861 376 869 368 879 C 360 889 356 898 356 908 C 356 919 360 929 368 939 C 376 948 388 953 403 953 C 411 953 420 951 430 948 C 440 945 450 939 461 929 Z M 469 741 C 513 741 554 733 591 717 C 628 701 660 680 686 653 C 712 626 732 594 746 557 C 760 520 768 480 768 437 C 768 379 757 323 737 269 C 717 215 688 167 652 126 C 616 84 572 51 521 26 C 469 1 413 -11 352 -11 C 308 -11 267 -3 230 11 C 193 26 161 47 135 73 C 109 99 88 131 73 169 C 58 207 51 248 51 293 C 51 349 61 405 81 459 C 101 513 129 561 165 603 C 201 644 245 677 297 703 C 349 728 406 741 469 741 Z M 354 39 C 400 39 441 51 478 76 C 515 101 546 134 572 175 C 598 215 617 262 631 314 C 645 366 652 418 652 471 C 652 539 635 592 603 632 C 570 671 525 691 467 691 C 418 691 375 677 338 651 C 300 625 269 591 244 550 C 219 508 200 462 187 411 C 174 360 168 310 168 261 C 168 191 184 136 217 97 C 249 58 295 39 354 39 Z" unicode="" />
<glyph horiz-adv-x="781" d="M 557 953 C 571 953 582 948 590 939 C 598 929 602 919 602 908 C 602 898 597 889 588 879 C 579 869 566 861 549 855 L 369 782 L 347 801 L 498 929 C 509 939 519 945 529 948 C 539 951 548 953 557 953 Z M 469 741 C 513 741 554 733 591 717 C 628 701 660 680 686 653 C 712 626 732 594 746 557 C 760 520 768 480 768 437 C 768 379 757 323 737 269 C 717 215 688 167 652 126 C 616 84 572 51 521 26 C 469 1 413 -11 352 -11 C 308 -11 267 -3 230 11 C 193 26 161 47 135 73 C 109 99 88 131 73 169 C 58 207 51 248 51 293 C 51 349 61 405 81 459 C 101 513 129 561 165 603 C 201 644 245 677 297 703 C 349 728 406 741 469 741 Z M 354 39 C 400 39 441 51 478 76 C 515 101 546 134 572 175 C 598 215 617 262 631 314 C 645 366 652 418 652 471 C 652 539 635 592 603 632 C 570 671 525 691 467 691 C 418 691 375 677 338 651 C 300 625 269 591 244 550 C 219 508 200 462 187 411 C 174 360 168 310 168 261 C 168 191 184 136 217 97 C 249 58 295 39 354 39 Z" unicode="" />
<glyph horiz-adv-x="781" d="M 535 951 L 645 778 L 602 778 L 495 874 L 332 778 L 286 778 L 470 951 L 535 951 Z M 469 741 C 513 741 554 733 591 717 C 628 701 660 680 686 653 C 712 626 732 594 746 557 C 760 520 768 480 768 437 C 768 379 757 323 737 269 C 717 215 688 167 652 126 C 616 84 572 51 521 26 C 469 1 413 -11 352 -11 C 308 -11 267 -3 230 11 C 193 26 161 47 135 73 C 109 99 88 131 73 169 C 58 207 51 248 51 293 C 51 349 61 405 81 459 C 101 513 129 561 165 603 C 201 644 245 677 297 703 C 349 728 406 741 469 741 Z M 354 39 C 400 39 441 51 478 76 C 515 101 546 134 572 175 C 598 215 617 262 631 314 C 645 366 652 418 652 471 C 652 539 635 592 603 632 C 570 671 525 691 467 691 C 418 691 375 677 338 651 C 300 625 269 591 244 550 C 219 508 200 462 187 411 C 174 360 168 310 168 261 C 168 191 184 136 217 97 C 249 58 295 39 354 39 Z" unicode="" />
<glyph horiz-adv-x="781" d="M 640 924 L 676 924 C 670 891 654 863 628 839 C 602 815 574 804 543 804 C 529 804 518 806 510 810 C 501 814 488 821 472 831 C 458 838 447 844 438 849 C 428 854 418 857 406 857 C 390 857 376 851 364 840 C 352 828 344 816 340 802 L 304 802 C 310 834 326 862 352 886 C 378 910 406 922 437 922 C 454 922 467 919 475 915 C 483 910 494 904 509 897 C 523 889 535 883 545 877 C 554 871 564 869 575 869 C 590 869 604 874 616 886 C 628 897 636 910 640 924 Z M 469 741 C 513 741 554 733 591 717 C 628 701 660 680 686 653 C 712 626 732 594 746 557 C 760 520 768 480 768 437 C 768 379 757 323 737 269 C 717 215 688 167 652 126 C 616 84 572 51 521 26 C 469 1 413 -11 352 -11 C 308 -11 267 -3 230 11 C 193 26 161 47 135 73 C 109 99 88 131 73 169 C 58 207 51 248 51 293 C 51 349 61 405 81 459 C 101 513 129 561 165 603 C 201 644 245 677 297 703 C 349 728 406 741 469 741 Z M 354 39 C 400 39 441 51 478 76 C 515 101 546 134 572 175 C 598 215 617 262 631 314 C 645 366 652 418 652 471 C 652 539 635 592 603 632 C 570 671 525 691 467 691 C 418 691 375 677 338 651 C 300 625 269 591 244 550 C 219 508 200 462 187 411 C 174 360 168 310 168 261 C 168 191 184 136 217 97 C 249 58 295 39 354 39 Z" unicode="" />
<glyph horiz-adv-x="781" d="M 610 913 C 626 913 641 907 653 896 C 665 884 671 871 671 857 C 671 842 665 829 653 818 C 641 806 626 801 610 801 C 594 801 580 806 568 818 C 556 829 550 842 550 857 C 550 871 556 884 568 896 C 580 907 594 913 610 913 Z M 379 913 C 395 913 410 907 422 896 C 434 884 440 871 440 857 C 440 842 434 829 422 818 C 410 806 395 801 379 801 C 363 801 349 806 337 818 C 325 829 319 842 319 857 C 319 871 325 884 337 896 C 349 907 363 913 379 913 Z M 469 741 C 513 741 554 733 591 717 C 628 701 660 680 686 653 C 712 626 732 594 746 557 C 760 520 768 480 768 437 C 768 379 757 323 737 269 C 717 215 688 167 652 126 C 616 84 572 51 521 26 C 469 1 413 -11 352 -11 C 308 -11 267 -3 230 11 C 193 26 161 47 135 73 C 109 99 88 131 73 169 C 58 207 51 248 51 293 C 51 349 61 405 81 459 C 101 513 129 561 165 603 C 201 644 245 677 297 703 C 349 728 406 741 469 741 Z M 354 39 C 400 39 441 51 478 76 C 515 101 546 134 572 175 C 598 215 617 262 631 314 C 645 366 652 418 652 471 C 652 539 635 592 603 632 C 570 671 525 691 467 691 C 418 691 375 677 338 651 C 300 625 269 591 244 550 C 219 508 200 462 187 411 C 174 360 168 310 168 261 C 168 191 184 136 217 97 C 249 58 295 39 354 39 Z" unicode="" />
<glyph horiz-adv-x="774" d="M 452 293 L 645 103 L 596 54 L 405 246 L 214 54 L 166 103 L 358 293 L 166 484 L 215 533 L 405 340 L 596 532 L 645 484 L 452 293 Z" unicode="" />
<glyph horiz-adv-x="781" d="M 677 660 C 705 632 728 599 744 561 C 760 523 768 481 768 437 C 768 379 757 323 737 269 C 717 215 688 167 652 126 C 616 84 572 51 521 26 C 469 1 413 -11 352 -11 C 319 -11 288 -6 259 2 C 230 10 203 23 179 40 L 120 -34 L 58 -34 L 142 70 C 113 96 91 129 75 167 C 59 205 51 247 51 293 C 51 349 61 405 81 459 C 101 513 129 561 165 603 C 201 644 245 677 297 703 C 349 728 406 741 469 741 C 501 741 532 736 561 727 C 589 718 616 706 640 690 L 691 754 L 753 754 L 677 660 Z M 191 130 L 599 639 C 583 655 563 668 541 677 C 519 686 494 691 467 691 C 418 691 375 677 337 651 C 299 625 268 591 243 550 C 217 508 198 462 185 411 C 172 360 166 310 166 261 C 166 235 168 210 172 188 C 176 166 183 146 191 130 Z M 354 39 C 400 39 441 51 479 76 C 516 101 547 134 573 175 C 599 215 619 262 633 314 C 647 366 654 418 654 471 C 654 496 651 520 647 542 C 643 564 636 583 628 600 L 220 90 C 236 73 255 60 278 52 C 300 43 326 39 354 39 Z" unicode="" />
<glyph horiz-adv-x="775" d="M 478 929 L 625 801 L 600 782 L 423 855 C 406 861 393 869 385 879 C 376 889 372 898 372 908 C 372 919 376 929 385 939 C 393 948 405 953 420 953 C 428 953 437 951 447 948 C 457 945 467 939 478 929 Z M 651 730 L 848 730 L 842 704 C 841 700 838 696 833 694 C 828 692 819 686 805 678 C 791 669 781 660 774 650 C 766 640 761 630 759 620 L 667 258 C 658 224 645 190 628 158 C 610 126 588 97 562 72 C 536 47 504 27 468 12 C 431 -3 389 -11 342 -11 C 255 -11 190 7 146 45 C 102 83 81 130 81 186 C 81 196 82 209 84 223 C 86 237 88 249 91 259 L 185 633 C 186 639 187 644 188 650 C 189 655 190 659 190 662 C 190 667 187 671 182 675 C 176 678 169 681 161 685 C 153 688 147 690 143 692 C 139 693 137 696 137 700 C 137 701 137 703 138 707 C 138 710 139 713 140 716 L 143 730 L 374 730 L 369 705 C 368 699 365 695 361 694 C 357 692 348 689 336 685 C 320 679 311 674 308 670 C 304 666 301 657 299 645 L 202 265 C 199 254 197 242 195 230 C 193 217 193 206 193 197 C 193 155 208 121 238 96 C 268 70 309 58 359 58 C 430 58 484 76 520 113 C 556 149 582 201 599 267 L 683 595 C 685 603 686 610 688 617 C 689 623 690 630 690 637 C 690 645 688 653 684 660 C 680 667 675 674 669 680 C 660 688 653 693 649 695 C 645 697 643 700 644 704 L 651 730 Z" unicode="" />
<glyph horiz-adv-x="775" d="M 586 953 C 600 953 612 948 620 939 C 628 929 632 919 632 908 C 632 898 627 889 618 879 C 609 869 596 861 579 855 L 399 782 L 377 801 L 528 929 C 539 939 549 945 559 948 C 569 951 578 953 586 953 Z M 651 730 L 848 730 L 842 704 C 841 700 838 696 833 694 C 828 692 819 686 805 678 C 791 669 781 660 774 650 C 766 640 761 630 759 620 L 667 258 C 658 224 645 190 628 158 C 610 126 588 97 562 72 C 536 47 504 27 468 12 C 431 -3 389 -11 342 -11 C 255 -11 190 7 146 45 C 102 83 81 130 81 186 C 81 196 82 209 84 223 C 86 237 88 249 91 259 L 185 633 C 186 639 187 644 188 650 C 189 655 190 659 190 662 C 190 667 187 671 182 675 C 176 678 169 681 161 685 C 153 688 147 690 143 692 C 139 693 137 696 137 700 C 137 701 137 703 138 707 C 138 710 139 713 140 716 L 143 730 L 374 730 L 369 705 C 368 699 365 695 361 694 C 357 692 348 689 336 685 C 320 679 311 674 308 670 C 304 666 301 657 299 645 L 202 265 C 199 254 197 242 195 230 C 193 217 193 206 193 197 C 193 155 208 121 238 96 C 268 70 309 58 359 58 C 430 58 484 76 520 113 C 556 149 582 201 599 267 L 683 595 C 685 603 686 610 688 617 C 689 623 690 630 690 637 C 690 645 688 653 684 660 C 680 667 675 674 669 680 C 660 688 653 693 649 695 C 645 697 643 700 644 704 L 651 730 Z" unicode="" />
<glyph horiz-adv-x="775" d="M 569 951 L 679 778 L 636 778 L 529 874 L 366 778 L 320 778 L 504 951 L 569 951 Z M 651 730 L 848 730 L 842 704 C 841 700 838 696 833 694 C 828 692 819 686 805 678 C 791 669 781 660 774 650 C 766 640 761 630 759 620 L 667 258 C 658 224 645 190 628 158 C 610 126 588 97 562 72 C 536 47 504 27 468 12 C 431 -3 389 -11 342 -11 C 255 -11 190 7 146 45 C 102 83 81 130 81 186 C 81 196 82 209 84 223 C 86 237 88 249 91 259 L 185 633 C 186 639 187 644 188 650 C 189 655 190 659 190 662 C 190 667 187 671 182 675 C 176 678 169 681 161 685 C 153 688 147 690 143 692 C 139 693 137 696 137 700 C 137 701 137 703 138 707 C 138 710 139 713 140 716 L 143 730 L 374 730 L 369 705 C 368 699 365 695 361 694 C 357 692 348 689 336 685 C 320 679 311 674 308 670 C 304 666 301 657 299 645 L 202 265 C 199 254 197 242 195 230 C 193 217 193 206 193 197 C 193 155 208 121 238 96 C 268 70 309 58 359 58 C 430 58 484 76 520 113 C 556 149 582 201 599 267 L 683 595 C 685 603 686 610 688 617 C 689 623 690 630 690 637 C 690 645 688 653 684 660 C 680 667 675 674 669 680 C 660 688 653 693 649 695 C 645 697 643 700 644 704 L 651 730 Z" unicode="" />
<glyph horiz-adv-x="775" d="M 631 913 C 647 913 662 907 674 896 C 686 884 692 871 692 857 C 692 842 686 829 674 818 C 662 806 647 801 631 801 C 615 801 601 806 589 818 C 577 829 571 842 571 857 C 571 871 577 884 589 896 C 601 907 615 913 631 913 Z M 400 913 C 416 913 431 907 443 896 C 455 884 461 871 461 857 C 461 842 455 829 443 818 C 431 806 416 801 400 801 C 384 801 370 806 358 818 C 346 829 340 842 340 857 C 340 871 346 884 358 896 C 370 907 384 913 400 913 Z M 651 730 L 848 730 L 842 704 C 841 700 838 696 833 694 C 828 692 819 686 805 678 C 791 669 781 660 774 650 C 766 640 761 630 759 620 L 667 258 C 658 224 645 190 628 158 C 610 126 588 97 562 72 C 536 47 504 27 468 12 C 431 -3 389 -11 342 -11 C 255 -11 190 7 146 45 C 102 83 81 130 81 186 C 81 196 82 209 84 223 C 86 237 88 249 91 259 L 185 633 C 186 639 187 644 188 650 C 189 655 190 659 190 662 C 190 667 187 671 182 675 C 176 678 169 681 161 685 C 153 688 147 690 143 692 C 139 693 137 696 137 700 C 137 701 137 703 138 707 C 138 710 139 713 140 716 L 143 730 L 374 730 L 369 705 C 368 699 365 695 361 694 C 357 692 348 689 336 685 C 320 679 311 674 308 670 C 304 666 301 657 299 645 L 202 265 C 199 254 197 242 195 230 C 193 217 193 206 193 197 C 193 155 208 121 238 96 C 268 70 309 58 359 58 C 430 58 484 76 520 113 C 556 149 582 201 599 267 L 683 595 C 685 603 686 610 688 617 C 689 623 690 630 690 637 C 690 645 688 653 684 660 C 680 667 675 674 669 680 C 660 688 653 693 649 695 C 645 697 643 700 644 704 L 651 730 Z" unicode="" />
<glyph horiz-adv-x="663" d="M 562 953 C 576 953 588 948 596 939 C 604 929 608 919 608 908 C 608 898 603 889 594 879 C 585 869 572 861 555 855 L 375 782 L 353 801 L 504 929 C 515 939 525 945 535 948 C 545 951 554 953 562 953 Z M 565 730 L 774 730 L 769 710 C 767 704 765 700 761 698 C 757 696 750 692 741 688 C 724 680 711 674 703 669 C 694 663 680 650 662 630 L 395 334 L 335 97 C 333 90 332 84 332 79 C 331 74 331 70 331 68 C 331 62 333 58 338 54 C 343 50 350 47 359 45 C 367 42 373 40 378 38 C 382 36 385 34 385 30 C 385 28 384 26 384 23 C 384 20 383 17 383 15 L 378 0 L 145 0 L 151 25 C 152 31 155 34 159 36 C 163 37 171 40 184 45 C 199 50 209 55 213 59 C 217 63 220 72 223 85 L 284 332 L 147 643 C 142 653 136 661 130 668 C 124 674 115 680 104 685 C 93 689 86 693 84 695 C 81 697 80 700 81 705 L 87 730 L 322 730 L 319 714 C 318 708 316 704 313 702 C 309 699 301 695 289 691 C 279 687 271 683 266 679 C 260 675 258 671 258 667 C 258 664 259 659 262 651 C 264 643 266 638 268 634 L 372 391 L 588 633 C 593 639 599 647 605 655 C 611 663 614 668 614 671 C 614 676 611 680 605 683 C 599 685 593 688 586 691 C 575 695 568 698 565 701 C 562 704 561 708 562 714 L 565 730 Z" unicode="" />
<glyph horiz-adv-x="569" d="M 387 729 C 409 729 430 726 450 720 C 470 714 488 704 504 692 C 519 680 531 664 541 646 C 550 628 555 607 555 583 C 555 527 538 483 504 453 C 470 423 429 400 381 386 C 427 373 465 353 494 325 C 523 297 538 257 538 204 C 538 174 532 146 520 120 C 508 94 492 71 472 52 C 452 33 428 18 401 7 C 374 -4 346 -10 317 -10 C 305 -10 292 -9 278 -7 C 264 -5 252 -1 240 4 C 228 9 219 16 211 26 C 203 35 200 47 200 63 C 200 75 204 86 214 96 C 224 106 235 111 248 111 C 260 111 270 107 278 101 C 286 94 290 84 290 72 C 290 66 288 60 285 54 C 281 48 278 42 276 38 C 280 35 286 33 292 31 C 298 29 304 29 309 29 C 331 29 351 35 367 49 C 383 63 396 80 406 100 C 416 120 424 142 429 165 C 433 187 436 208 436 226 C 436 270 425 303 403 324 C 381 344 348 355 305 356 C 296 356 288 358 282 363 C 276 368 273 375 273 384 C 273 394 275 401 281 406 C 287 410 294 413 302 415 C 310 417 318 418 327 418 C 336 418 344 418 350 418 C 370 418 387 423 401 435 C 415 447 427 461 436 479 C 444 496 451 514 455 534 C 459 554 461 572 461 589 C 461 615 454 638 442 656 C 429 674 408 683 379 683 C 355 683 335 677 319 667 C 303 656 289 643 279 627 C 269 611 261 592 255 572 C 249 552 243 532 239 514 L 120 0 L 22 0 L 135 493 C 143 525 153 556 167 585 C 180 614 197 639 217 660 C 237 681 261 698 289 710 C 317 722 350 729 387 729 Z" unicode="" />
<glyph horiz-adv-x="532" d="M 291 641 L 422 499 L 397 482 L 230 572 C 214 580 202 589 195 598 C 187 606 184 615 184 625 C 184 637 188 647 197 656 C 205 665 217 670 231 670 C 239 670 249 668 259 665 C 269 661 279 653 291 641 Z M 492 64 L 501 30 C 493 23 478 15 456 5 C 434 -5 410 -10 384 -10 C 354 -10 335 -2 326 13 C 317 28 313 43 313 59 C 294 42 273 26 249 12 C 225 -1 198 -9 169 -9 C 119 -9 81 6 56 36 C 30 66 18 104 18 151 C 18 189 25 226 40 261 C 54 295 74 326 100 352 C 126 378 156 398 190 413 C 224 428 261 436 301 436 C 325 436 345 432 359 426 C 373 420 388 411 403 401 C 406 399 410 397 414 397 C 418 396 421 397 425 400 L 465 432 C 467 434 470 435 474 436 C 477 437 480 438 482 438 C 485 438 488 436 491 434 C 494 432 495 429 495 426 L 408 95 C 407 90 406 86 406 82 C 405 78 405 74 405 71 C 405 64 407 58 412 52 C 417 46 425 44 437 44 C 445 44 454 46 463 50 C 471 54 481 58 492 64 Z M 312 98 L 377 352 C 369 360 359 368 347 376 C 335 384 320 388 302 388 C 269 388 241 380 219 366 C 196 352 177 333 163 311 C 149 289 138 264 132 236 C 125 208 122 182 122 156 C 122 120 130 94 146 77 C 162 60 184 52 211 52 C 230 52 247 56 262 65 C 277 73 294 84 312 98 Z" unicode="" />
<glyph horiz-adv-x="532" d="M 412 670 C 426 670 437 665 446 656 C 454 647 459 637 459 625 C 459 616 454 607 446 598 C 438 589 426 580 411 572 L 241 482 L 214 499 L 352 641 C 364 653 374 661 384 665 C 394 668 403 670 412 670 Z M 492 64 L 501 30 C 493 23 478 15 456 5 C 434 -5 410 -10 384 -10 C 354 -10 335 -2 326 13 C 317 28 313 43 313 59 C 294 42 273 26 249 12 C 225 -1 198 -9 169 -9 C 119 -9 81 6 56 36 C 30 66 18 104 18 151 C 18 189 25 226 40 261 C 54 295 74 326 100 352 C 126 378 156 398 190 413 C 224 428 261 436 301 436 C 325 436 345 432 359 426 C 373 420 388 411 403 401 C 406 399 410 397 414 397 C 418 396 421 397 425 400 L 465 432 C 467 434 470 435 474 436 C 477 437 480 438 482 438 C 485 438 488 436 491 434 C 494 432 495 429 495 426 L 408 95 C 407 90 406 86 406 82 C 405 78 405 74 405 71 C 405 64 407 58 412 52 C 417 46 425 44 437 44 C 445 44 454 46 463 50 C 471 54 481 58 492 64 Z M 312 98 L 377 352 C 369 360 359 368 347 376 C 335 384 320 388 302 388 C 269 388 241 380 219 366 C 196 352 177 333 163 311 C 149 289 138 264 132 236 C 125 208 122 182 122 156 C 122 120 130 94 146 77 C 162 60 184 52 211 52 C 230 52 247 56 262 65 C 277 73 294 84 312 98 Z" unicode="" />
<glyph horiz-adv-x="532" d="M 379 661 L 477 483 L 433 483 L 333 584 L 182 483 L 138 483 L 314 661 L 379 661 Z M 492 64 L 501 30 C 493 23 478 15 456 5 C 434 -5 410 -10 384 -10 C 354 -10 335 -2 326 13 C 317 28 313 43 313 59 C 294 42 273 26 249 12 C 225 -1 198 -9 169 -9 C 119 -9 81 6 56 36 C 30 66 18 104 18 151 C 18 189 25 226 40 261 C 54 295 74 326 100 352 C 126 378 156 398 190 413 C 224 428 261 436 301 436 C 325 436 345 432 359 426 C 373 420 388 411 403 401 C 406 399 410 397 414 397 C 418 396 421 397 425 400 L 465 432 C 467 434 470 435 474 436 C 477 437 480 438 482 438 C 485 438 488 436 491 434 C 494 432 495 429 495 426 L 408 95 C 407 90 406 86 406 82 C 405 78 405 74 405 71 C 405 64 407 58 412 52 C 417 46 425 44 437 44 C 445 44 454 46 463 50 C 471 54 481 58 492 64 Z M 312 98 L 377 352 C 369 360 359 368 347 376 C 335 384 320 388 302 388 C 269 388 241 380 219 366 C 196 352 177 333 163 311 C 149 289 138 264 132 236 C 125 208 122 182 122 156 C 122 120 130 94 146 77 C 162 60 184 52 211 52 C 230 52 247 56 262 65 C 277 73 294 84 312 98 Z" unicode="" />
<glyph horiz-adv-x="532" d="M 449 639 L 483 639 C 477 606 462 578 440 555 C 418 531 392 520 364 520 C 351 520 340 521 332 525 C 323 528 311 535 297 545 C 284 553 274 559 266 563 C 258 567 248 569 238 569 C 223 569 210 563 200 553 C 190 542 183 530 179 516 L 145 516 C 150 548 164 576 186 600 C 208 623 234 635 263 635 C 278 635 290 633 299 629 C 307 625 318 620 331 612 C 343 603 354 596 362 592 C 370 588 379 586 389 586 C 403 586 416 591 427 602 C 438 612 445 625 449 639 Z M 492 64 L 501 30 C 493 23 478 15 456 5 C 434 -5 410 -10 384 -10 C 354 -10 335 -2 326 13 C 317 28 313 43 313 59 C 294 42 273 26 249 12 C 225 -1 198 -9 169 -9 C 119 -9 81 6 56 36 C 30 66 18 104 18 151 C 18 189 25 226 40 261 C 54 295 74 326 100 352 C 126 378 156 398 190 413 C 224 428 261 436 301 436 C 325 436 345 432 359 426 C 373 420 388 411 403 401 C 406 399 410 397 414 397 C 418 396 421 397 425 400 L 465 432 C 467 434 470 435 474 436 C 477 437 480 438 482 438 C 485 438 488 436 491 434 C 494 432 495 429 495 426 L 408 95 C 407 90 406 86 406 82 C 405 78 405 74 405 71 C 405 64 407 58 412 52 C 417 46 425 44 437 44 C 445 44 454 46 463 50 C 471 54 481 58 492 64 Z M 312 98 L 377 352 C 369 360 359 368 347 376 C 335 384 320 388 302 388 C 269 388 241 380 219 366 C 196 352 177 333 163 311 C 149 289 138 264 132 236 C 125 208 122 182 122 156 C 122 120 130 94 146 77 C 162 60 184 52 211 52 C 230 52 247 56 262 65 C 277 73 294 84 312 98 Z" unicode="" />
<glyph horiz-adv-x="532" d="M 414 623 C 430 623 444 617 456 606 C 468 594 474 581 474 567 C 474 552 468 539 456 528 C 444 516 430 511 414 511 C 397 511 383 516 371 528 C 359 539 353 552 353 567 C 353 581 359 594 371 606 C 383 617 397 623 414 623 Z M 209 623 C 225 623 239 617 251 606 C 263 594 269 581 269 567 C 269 552 263 539 251 528 C 239 516 225 511 209 511 C 192 511 178 516 166 528 C 154 539 148 552 148 567 C 148 581 154 594 166 606 C 178 617 192 623 209 623 Z M 492 64 L 501 30 C 493 23 478 15 456 5 C 434 -5 410 -10 384 -10 C 354 -10 335 -2 326 13 C 317 28 313 43 313 59 C 294 42 273 26 249 12 C 225 -1 198 -9 169 -9 C 119 -9 81 6 56 36 C 30 66 18 104 18 151 C 18 189 25 226 40 261 C 54 295 74 326 100 352 C 126 378 156 398 190 413 C 224 428 261 436 301 436 C 325 436 345 432 359 426 C 373 420 388 411 403 401 C 406 399 410 397 414 397 C 418 396 421 397 425 400 L 465 432 C 467 434 470 435 474 436 C 477 437 480 438 482 438 C 485 438 488 436 491 434 C 494 432 495 429 495 426 L 408 95 C 407 90 406 86 406 82 C 405 78 405 74 405 71 C 405 64 407 58 412 52 C 417 46 425 44 437 44 C 445 44 454 46 463 50 C 471 54 481 58 492 64 Z M 312 98 L 377 352 C 369 360 359 368 347 376 C 335 384 320 388 302 388 C 269 388 241 380 219 366 C 196 352 177 333 163 311 C 149 289 138 264 132 236 C 125 208 122 182 122 156 C 122 120 130 94 146 77 C 162 60 184 52 211 52 C 230 52 247 56 262 65 C 277 73 294 84 312 98 Z" unicode="" />
<glyph horiz-adv-x="532" d="M 321 706 C 355 706 382 696 404 678 C 426 660 437 636 437 608 C 437 574 423 545 397 522 C 370 499 338 488 302 488 C 268 488 241 497 219 516 C 197 534 187 558 187 586 C 187 600 190 614 196 628 C 202 642 211 655 223 667 C 235 678 249 687 265 695 C 281 702 300 706 321 706 Z M 303 520 C 327 520 345 530 357 550 C 368 570 374 592 374 617 C 374 637 369 652 359 661 C 349 669 336 674 320 674 C 294 674 276 663 266 643 C 255 622 250 600 250 578 C 250 560 254 545 262 535 C 270 525 284 520 303 520 Z M 492 64 L 501 30 C 493 23 478 15 456 5 C 434 -5 410 -10 384 -10 C 354 -10 335 -2 326 13 C 317 28 313 43 313 59 C 294 42 273 26 249 12 C 225 -1 198 -9 169 -9 C 119 -9 81 6 56 36 C 30 66 18 104 18 151 C 18 189 25 226 40 261 C 54 295 74 326 100 352 C 126 378 156 398 190 413 C 224 428 261 436 301 436 C 325 436 345 432 359 426 C 373 420 388 411 403 401 C 406 399 410 397 414 397 C 418 396 421 397 425 400 L 465 432 C 467 434 470 435 474 436 C 477 437 480 438 482 438 C 485 438 488 436 491 434 C 494 432 495 429 495 426 L 408 95 C 407 90 406 86 406 82 C 405 78 405 74 405 71 C 405 64 407 58 412 52 C 417 46 425 44 437 44 C 445 44 454 46 463 50 C 471 54 481 58 492 64 Z M 312 98 L 377 352 C 369 360 359 368 347 376 C 335 384 320 388 302 388 C 269 388 241 380 219 366 C 196 352 177 333 163 311 C 149 289 138 264 132 236 C 125 208 122 182 122 156 C 122 120 130 94 146 77 C 162 60 184 52 211 52 C 230 52 247 56 262 65 C 277 73 294 84 312 98 Z" unicode="" />
<glyph horiz-adv-x="739" d="M 591 435 C 607 435 623 433 639 430 C 655 426 669 421 682 413 C 694 405 705 394 713 382 C 721 369 726 353 726 335 C 726 305 716 281 698 263 C 680 244 658 230 632 220 C 606 210 578 203 549 200 C 519 196 493 195 471 195 L 420 195 C 420 191 419 187 419 183 C 419 179 419 175 419 171 C 419 132 429 101 449 79 C 469 57 498 46 537 46 C 566 46 594 54 622 70 C 649 86 673 103 694 122 L 715 94 C 691 60 661 34 625 16 C 589 -1 550 -10 508 -10 C 472 -10 441 -3 414 10 C 386 23 363 45 345 76 C 319 50 292 29 266 14 C 239 -1 207 -9 169 -9 C 119 -9 81 6 56 36 C 30 66 18 105 18 153 C 18 191 25 228 40 262 C 54 296 74 326 99 352 C 124 378 154 398 188 413 C 222 428 259 436 298 436 C 314 436 330 434 344 430 C 358 426 372 419 387 410 C 389 409 390 408 392 407 C 394 406 396 406 399 406 C 403 406 407 407 412 411 C 417 414 422 418 428 422 C 433 426 438 429 444 433 C 449 436 455 438 461 438 C 463 438 465 437 467 436 C 469 434 470 432 470 430 C 470 425 469 420 468 415 C 466 409 465 404 465 400 C 485 410 506 419 526 425 C 546 431 568 435 591 435 Z M 423 232 C 441 232 462 233 486 235 C 510 237 532 241 554 248 C 576 254 594 264 609 278 C 624 292 632 311 632 337 C 632 354 626 367 614 376 C 602 384 588 389 572 389 C 550 389 531 384 514 375 C 497 365 482 353 470 339 C 458 324 448 307 440 288 C 432 269 427 250 423 232 Z M 306 96 L 373 362 C 362 371 351 378 339 382 C 327 386 314 388 300 388 C 268 388 241 381 219 367 C 196 353 177 335 163 313 C 149 291 138 266 132 238 C 125 210 122 183 122 156 C 122 126 128 101 141 81 C 154 61 177 52 210 52 C 230 52 248 55 262 63 C 276 71 291 82 306 96 Z" unicode="" />
<glyph horiz-adv-x="426" d="M 276 434 C 326 434 362 424 384 404 C 406 384 418 364 418 344 C 418 321 412 305 400 296 C 388 286 375 282 361 282 C 346 282 333 285 322 293 C 310 301 305 312 305 327 C 305 333 306 340 310 350 C 314 359 317 367 321 375 C 318 377 312 381 302 385 C 292 389 279 391 262 391 C 239 391 219 384 202 371 C 184 358 170 341 159 321 C 148 301 140 278 134 252 C 128 226 126 201 126 177 C 126 141 134 110 150 84 C 166 58 194 45 234 45 C 266 45 293 52 315 67 C 337 82 357 99 376 117 L 401 85 C 386 67 365 48 339 28 C 312 8 279 -4 240 -9 L 218 -46 C 246 -46 269 -52 285 -64 C 301 -76 310 -93 310 -116 C 310 -136 301 -155 284 -174 C 266 -193 235 -203 190 -203 C 161 -203 136 -197 114 -186 C 92 -175 75 -164 62 -152 L 85 -124 C 97 -132 111 -141 127 -150 C 143 -159 162 -164 184 -164 C 204 -164 217 -158 223 -148 C 229 -137 232 -127 232 -119 C 232 -110 228 -102 220 -94 C 212 -86 199 -83 181 -83 C 178 -83 174 -83 170 -83 C 166 -83 162 -84 159 -85 L 205 -10 C 153 -8 109 9 75 41 C 41 73 24 116 24 171 C 24 203 29 234 41 266 C 53 297 69 325 91 350 C 112 375 138 395 170 411 C 201 426 236 434 276 434 Z" unicode="" />
<glyph horiz-adv-x="442" d="M 261 641 L 391 499 L 366 482 L 199 572 C 183 580 172 589 165 598 C 157 606 154 615 154 625 C 154 637 158 647 166 656 C 174 665 186 670 200 670 C 209 670 219 668 229 665 C 239 661 249 653 261 641 Z M 293 435 C 333 435 365 426 391 408 C 416 390 429 366 429 336 C 429 304 419 278 399 259 C 379 240 356 226 329 216 C 302 206 274 199 245 197 C 216 194 193 193 175 193 L 124 193 C 124 190 123 187 123 183 C 123 179 123 176 123 172 C 123 123 135 90 160 72 C 184 54 211 46 241 46 C 264 46 289 52 316 65 C 342 78 369 97 397 122 L 418 92 C 414 86 407 77 397 66 C 387 54 374 43 358 32 C 341 20 321 10 297 2 C 273 -5 244 -10 212 -10 C 180 -10 153 -5 129 5 C 105 15 86 28 71 44 C 55 60 44 79 36 101 C 28 123 25 145 25 169 C 25 202 31 235 44 267 C 57 299 75 327 99 352 C 122 376 150 396 183 412 C 216 427 253 435 293 435 Z M 129 233 C 154 233 179 235 204 238 C 229 240 251 245 270 253 C 289 260 305 270 317 283 C 329 296 335 313 335 335 C 335 353 329 367 317 376 C 305 384 291 389 275 389 C 241 389 211 376 184 350 C 156 324 138 285 129 233 Z" unicode="" />
<glyph horiz-adv-x="442" d="M 373 670 C 387 670 398 665 407 656 C 415 647 420 637 420 625 C 420 616 415 607 407 598 C 399 589 387 580 372 572 L 202 482 L 176 499 L 313 641 C 325 653 335 661 345 665 C 355 668 364 670 373 670 Z M 293 435 C 333 435 365 426 391 408 C 416 390 429 366 429 336 C 429 304 419 278 399 259 C 379 240 356 226 329 216 C 302 206 274 199 245 197 C 216 194 193 193 175 193 L 124 193 C 124 190 123 187 123 183 C 123 179 123 176 123 172 C 123 123 135 90 160 72 C 184 54 211 46 241 46 C 264 46 289 52 316 65 C 342 78 369 97 397 122 L 418 92 C 414 86 407 77 397 66 C 387 54 374 43 358 32 C 341 20 321 10 297 2 C 273 -5 244 -10 212 -10 C 180 -10 153 -5 129 5 C 105 15 86 28 71 44 C 55 60 44 79 36 101 C 28 123 25 145 25 169 C 25 202 31 235 44 267 C 57 299 75 327 99 352 C 122 376 150 396 183 412 C 216 427 253 435 293 435 Z M 129 233 C 154 233 179 235 204 238 C 229 240 251 245 270 253 C 289 260 305 270 317 283 C 329 296 335 313 335 335 C 335 353 329 367 317 376 C 305 384 291 389 275 389 C 241 389 211 376 184 350 C 156 324 138 285 129 233 Z" unicode="" />
<glyph horiz-adv-x="442" d="M 346 661 L 444 483 L 401 483 L 301 584 L 149 483 L 105 483 L 281 661 L 346 661 Z M 293 435 C 333 435 365 426 391 408 C 416 390 429 366 429 336 C 429 304 419 278 399 259 C 379 240 356 226 329 216 C 302 206 274 199 245 197 C 216 194 193 193 175 193 L 124 193 C 124 190 123 187 123 183 C 123 179 123 176 123 172 C 123 123 135 90 160 72 C 184 54 211 46 241 46 C 264 46 289 52 316 65 C 342 78 369 97 397 122 L 418 92 C 414 86 407 77 397 66 C 387 54 374 43 358 32 C 341 20 321 10 297 2 C 273 -5 244 -10 212 -10 C 180 -10 153 -5 129 5 C 105 15 86 28 71 44 C 55 60 44 79 36 101 C 28 123 25 145 25 169 C 25 202 31 235 44 267 C 57 299 75 327 99 352 C 122 376 150 396 183 412 C 216 427 253 435 293 435 Z M 129 233 C 154 233 179 235 204 238 C 229 240 251 245 270 253 C 289 260 305 270 317 283 C 329 296 335 313 335 335 C 335 353 329 367 317 376 C 305 384 291 389 275 389 C 241 389 211 376 184 350 C 156 324 138 285 129 233 Z" unicode="" />
<glyph horiz-adv-x="442" d="M 390 623 C 406 623 420 617 432 606 C 444 594 450 581 450 567 C 450 552 444 539 432 528 C 420 516 406 511 390 511 C 373 511 359 516 347 528 C 335 539 329 552 329 567 C 329 581 335 594 347 606 C 359 617 373 623 390 623 Z M 185 623 C 201 623 215 617 227 606 C 239 594 245 581 245 567 C 245 552 239 539 227 528 C 215 516 201 511 185 511 C 168 511 154 516 142 528 C 130 539 124 552 124 567 C 124 581 130 594 142 606 C 154 617 168 623 185 623 Z M 293 435 C 333 435 365 426 391 408 C 416 390 429 366 429 336 C 429 304 419 278 399 259 C 379 240 356 226 329 216 C 302 206 274 199 245 197 C 216 194 193 193 175 193 L 124 193 C 124 190 123 187 123 183 C 123 179 123 176 123 172 C 123 123 135 90 160 72 C 184 54 211 46 241 46 C 264 46 289 52 316 65 C 342 78 369 97 397 122 L 418 92 C 414 86 407 77 397 66 C 387 54 374 43 358 32 C 341 20 321 10 297 2 C 273 -5 244 -10 212 -10 C 180 -10 153 -5 129 5 C 105 15 86 28 71 44 C 55 60 44 79 36 101 C 28 123 25 145 25 169 C 25 202 31 235 44 267 C 57 299 75 327 99 352 C 122 376 150 396 183 412 C 216 427 253 435 293 435 Z M 129 233 C 154 233 179 235 204 238 C 229 240 251 245 270 253 C 289 260 305 270 317 283 C 329 296 335 313 335 335 C 335 353 329 367 317 376 C 305 384 291 389 275 389 C 241 389 211 376 184 350 C 156 324 138 285 129 233 Z" unicode="" />
<glyph horiz-adv-x="281" d="M 150 641 L 278 499 L 252 482 L 87 573 C 71 581 60 590 53 599 C 45 607 42 616 42 625 C 42 637 46 647 55 656 C 64 665 76 670 90 670 C 99 670 108 668 118 665 C 128 661 138 653 150 641 Z M 240 64 L 248 30 C 240 23 225 15 203 5 C 181 -5 157 -10 132 -10 C 102 -10 81 -3 70 8 C 58 20 53 35 53 51 C 53 57 53 64 54 72 C 55 80 57 88 59 96 L 114 307 C 114 311 115 315 116 320 C 116 324 117 328 117 331 C 117 339 114 346 108 352 C 102 358 92 361 80 362 C 74 362 69 363 64 364 C 59 364 57 366 57 369 C 57 370 57 372 57 374 C 57 376 58 378 59 381 L 64 400 C 86 400 110 402 134 408 C 158 413 183 420 209 430 L 242 430 L 157 96 C 156 93 155 89 154 84 C 153 79 153 75 153 72 C 153 64 155 58 160 52 C 164 46 173 44 185 44 C 193 44 202 46 211 50 C 219 54 229 58 240 64 Z" unicode="" />
<glyph horiz-adv-x="281" d="M 265 670 C 279 670 290 665 299 656 C 307 647 312 637 312 625 C 312 616 308 607 301 598 C 293 589 282 580 267 572 L 100 482 L 73 499 L 205 641 C 216 653 226 661 236 665 C 246 668 255 670 265 670 Z M 240 64 L 248 30 C 240 23 225 15 203 5 C 181 -5 157 -10 132 -10 C 102 -10 81 -3 70 8 C 58 20 53 35 53 51 C 53 57 53 64 54 72 C 55 80 57 88 59 96 L 114 307 C 114 311 115 315 116 320 C 116 324 117 328 117 331 C 117 339 114 346 108 352 C 102 358 92 361 80 362 C 74 362 69 363 64 364 C 59 364 57 366 57 369 C 57 370 57 372 57 374 C 57 376 58 378 59 381 L 64 400 C 86 400 110 402 134 408 C 158 413 183 420 209 430 L 242 430 L 157 96 C 156 93 155 89 154 84 C 153 79 153 75 153 72 C 153 64 155 58 160 52 C 164 46 173 44 185 44 C 193 44 202 46 211 50 C 219 54 229 58 240 64 Z" unicode="" />
<glyph horiz-adv-x="283" d="M 237 656 L 321 483 L 278 483 L 194 579 L 58 483 L 14 483 L 172 656 L 237 656 Z M 241 64 L 249 30 C 241 23 226 15 204 5 C 182 -5 158 -10 133 -10 C 103 -10 82 -3 71 8 C 59 20 54 35 54 51 C 54 57 54 64 55 72 C 56 80 58 88 60 96 L 115 307 C 115 311 116 315 117 320 C 117 324 118 328 118 331 C 118 339 115 346 109 352 C 103 358 93 361 81 362 C 75 362 70 363 65 364 C 60 364 58 366 58 369 C 58 370 58 372 58 374 C 58 376 59 378 60 381 L 65 400 C 87 400 111 402 135 408 C 159 413 184 420 210 430 L 243 430 L 158 96 C 157 93 156 89 155 84 C 154 79 154 75 154 72 C 154 64 156 58 161 52 C 165 46 174 44 186 44 C 194 44 203 46 212 50 C 220 54 230 58 241 64 Z" unicode="" />
<glyph horiz-adv-x="283" d="M 273 623 C 289 623 303 617 315 606 C 327 594 333 581 333 567 C 333 552 327 539 315 528 C 303 516 289 511 273 511 C 256 511 242 516 230 528 C 218 539 212 552 212 567 C 212 581 218 594 230 606 C 242 617 256 623 273 623 Z M 88 623 C 104 623 118 617 130 606 C 142 594 148 581 148 567 C 148 552 142 539 130 528 C 118 516 104 511 88 511 C 71 511 57 516 45 528 C 33 539 27 552 27 567 C 27 581 33 594 45 606 C 57 617 71 623 88 623 Z M 241 64 L 249 30 C 241 23 226 15 204 5 C 182 -5 158 -10 133 -10 C 103 -10 82 -3 71 8 C 59 20 54 35 54 51 C 54 57 54 64 55 72 C 56 80 58 88 60 96 L 115 307 C 115 311 116 315 117 320 C 117 324 118 328 118 331 C 118 339 115 346 109 352 C 103 358 93 361 81 362 C 75 362 70 363 65 364 C 60 364 58 366 58 369 C 58 370 58 372 58 374 C 58 376 59 378 60 381 L 65 400 C 87 400 111 402 135 408 C 159 413 184 420 210 430 L 243 430 L 158 96 C 157 93 156 89 155 84 C 154 79 154 75 154 72 C 154 64 156 58 161 52 C 165 46 174 44 186 44 C 194 44 203 46 212 50 C 220 54 230 58 241 64 Z" unicode="" />
<glyph horiz-adv-x="566" d="M 477 639 L 511 639 C 505 606 490 578 468 555 C 446 531 420 520 392 520 C 380 520 369 521 360 525 C 351 528 339 535 325 545 C 313 553 302 559 294 563 C 286 567 276 569 266 569 C 251 569 238 563 228 553 C 218 542 211 530 208 516 L 173 516 C 178 548 192 576 214 600 C 236 623 262 635 291 635 C 306 635 318 633 327 629 C 335 625 346 620 359 612 C 371 603 382 596 390 592 C 398 588 407 586 417 586 C 431 586 444 591 455 602 C 466 612 473 625 477 639 Z M 528 64 L 537 30 C 529 23 514 15 492 5 C 470 -5 446 -10 420 -10 C 390 -10 370 -3 358 8 C 346 20 341 35 341 51 C 341 57 341 64 343 72 C 344 80 346 88 348 96 L 399 288 C 399 292 400 297 401 303 C 401 309 402 314 402 319 C 402 339 395 353 382 363 C 368 372 351 377 331 377 C 307 377 285 369 264 355 C 242 340 224 325 210 311 L 132 0 L 34 0 L 111 307 C 111 309 112 313 113 319 C 114 324 115 328 115 331 C 115 339 112 346 106 352 C 100 358 90 361 78 362 C 72 362 67 363 62 364 C 57 364 55 366 55 369 C 55 370 55 372 55 374 C 55 376 56 378 57 381 L 62 400 C 84 400 107 402 131 408 C 155 413 180 420 206 430 L 232 430 L 213 360 C 233 375 257 391 283 408 C 309 424 340 433 376 433 C 416 433 447 424 469 406 C 490 388 501 363 501 333 C 501 326 500 319 500 311 C 499 303 498 295 496 288 L 445 96 C 444 93 443 89 443 85 C 442 80 442 76 442 73 C 442 65 444 59 448 53 C 452 47 461 44 473 44 C 481 44 490 46 499 50 C 507 54 517 58 528 64 Z" unicode="" />
<glyph horiz-adv-x="506" d="M 272 641 L 402 499 L 377 482 L 210 572 C 194 580 183 589 176 598 C 168 606 165 615 165 625 C 165 637 169 647 177 656 C 185 665 197 670 211 670 C 220 670 230 668 240 665 C 250 661 260 653 272 641 Z M 288 437 C 318 437 344 432 368 422 C 391 412 410 398 426 381 C 442 363 454 343 462 320 C 470 296 475 271 475 245 C 475 211 468 178 456 147 C 443 116 425 89 402 66 C 379 43 351 25 319 11 C 287 -3 252 -10 214 -10 C 154 -10 107 8 74 44 C 40 80 24 125 24 179 C 24 211 30 242 42 273 C 54 304 71 332 93 356 C 115 380 143 399 176 414 C 209 429 246 437 288 437 Z M 219 36 C 244 36 266 42 286 54 C 305 66 321 82 334 103 C 346 124 356 149 363 177 C 369 205 373 235 373 267 C 373 305 365 335 351 357 C 337 379 313 391 280 391 C 253 391 230 384 210 371 C 190 357 174 340 162 319 C 149 297 140 273 134 245 C 128 217 125 189 125 161 C 125 123 132 92 146 70 C 160 47 185 36 219 36 Z" unicode="" />
<glyph horiz-adv-x="506" d="M 393 670 C 407 670 418 665 426 656 C 434 647 439 637 439 625 C 439 616 435 607 427 598 C 419 589 407 580 392 572 L 222 482 L 195 499 L 332 641 C 344 653 354 661 364 665 C 374 668 383 670 393 670 Z M 288 437 C 318 437 344 432 368 422 C 391 412 410 398 426 381 C 442 363 454 343 462 320 C 470 296 475 271 475 245 C 475 211 468 178 456 147 C 443 116 425 89 402 66 C 379 43 351 25 319 11 C 287 -3 252 -10 214 -10 C 154 -10 107 8 74 44 C 40 80 24 125 24 179 C 24 211 30 242 42 273 C 54 304 71 332 93 356 C 115 380 143 399 176 414 C 209 429 246 437 288 437 Z M 219 36 C 244 36 266 42 286 54 C 305 66 321 82 334 103 C 346 124 356 149 363 177 C 369 205 373 235 373 267 C 373 305 365 335 351 357 C 337 379 313 391 280 391 C 253 391 230 384 210 371 C 190 357 174 340 162 319 C 149 297 140 273 134 245 C 128 217 125 189 125 161 C 125 123 132 92 146 70 C 160 47 185 36 219 36 Z" unicode="" />
<glyph horiz-adv-x="506" d="M 354 661 L 452 483 L 409 483 L 308 584 L 157 483 L 113 483 L 289 661 L 354 661 Z M 288 437 C 318 437 344 432 368 422 C 391 412 410 398 426 381 C 442 363 454 343 462 320 C 470 296 475 271 475 245 C 475 211 468 178 456 147 C 443 116 425 89 402 66 C 379 43 351 25 319 11 C 287 -3 252 -10 214 -10 C 154 -10 107 8 74 44 C 40 80 24 125 24 179 C 24 211 30 242 42 273 C 54 304 71 332 93 356 C 115 380 143 399 176 414 C 209 429 246 437 288 437 Z M 219 36 C 244 36 266 42 286 54 C 305 66 321 82 334 103 C 346 124 356 149 363 177 C 369 205 373 235 373 267 C 373 305 365 335 351 357 C 337 379 313 391 280 391 C 253 391 230 384 210 371 C 190 357 174 340 162 319 C 149 297 140 273 134 245 C 128 217 125 189 125 161 C 125 123 132 92 146 70 C 160 47 185 36 219 36 Z" unicode="" />
<glyph horiz-adv-x="506" d="M 427 639 L 462 639 C 456 606 441 578 419 555 C 397 531 371 520 343 520 C 330 520 319 521 311 525 C 302 528 290 535 276 545 C 263 553 252 559 244 563 C 236 567 226 569 216 569 C 201 569 189 563 179 553 C 169 542 162 530 158 516 L 124 516 C 128 548 142 576 164 600 C 186 623 212 635 241 635 C 257 635 269 633 277 629 C 285 625 296 620 309 612 C 321 603 332 596 340 592 C 348 588 358 586 368 586 C 382 586 395 591 406 602 C 417 612 424 625 427 639 Z M 288 437 C 318 437 344 432 368 422 C 391 412 410 398 426 381 C 442 363 454 343 462 320 C 470 296 475 271 475 245 C 475 211 468 178 456 147 C 443 116 425 89 402 66 C 379 43 351 25 319 11 C 287 -3 252 -10 214 -10 C 154 -10 107 8 74 44 C 40 80 24 125 24 179 C 24 211 30 242 42 273 C 54 304 71 332 93 356 C 115 380 143 399 176 414 C 209 429 246 437 288 437 Z M 219 36 C 244 36 266 42 286 54 C 305 66 321 82 334 103 C 346 124 356 149 363 177 C 369 205 373 235 373 267 C 373 305 365 335 351 357 C 337 379 313 391 280 391 C 253 391 230 384 210 371 C 190 357 174 340 162 319 C 149 297 140 273 134 245 C 128 217 125 189 125 161 C 125 123 132 92 146 70 C 160 47 185 36 219 36 Z" unicode="" />
<glyph horiz-adv-x="506" d="M 396 623 C 412 623 426 617 438 606 C 450 594 456 581 456 567 C 456 552 450 539 438 528 C 426 516 412 511 396 511 C 379 511 365 516 353 528 C 341 539 335 552 335 567 C 335 581 341 594 353 606 C 365 617 379 623 396 623 Z M 191 623 C 207 623 221 617 233 606 C 245 594 251 581 251 567 C 251 552 245 539 233 528 C 221 516 207 511 191 511 C 174 511 160 516 148 528 C 136 539 130 552 130 567 C 130 581 136 594 148 606 C 160 617 174 623 191 623 Z M 288 437 C 318 437 344 432 368 422 C 391 412 410 398 426 381 C 442 363 454 343 462 320 C 470 296 475 271 475 245 C 475 211 468 178 456 147 C 443 116 425 89 402 66 C 379 43 351 25 319 11 C 287 -3 252 -10 214 -10 C 154 -10 107 8 74 44 C 40 80 24 125 24 179 C 24 211 30 242 42 273 C 54 304 71 332 93 356 C 115 380 143 399 176 414 C 209 429 246 437 288 437 Z M 219 36 C 244 36 266 42 286 54 C 305 66 321 82 334 103 C 346 124 356 149 363 177 C 369 205 373 235 373 267 C 373 305 365 335 351 357 C 337 379 313 391 280 391 C 253 391 230 384 210 371 C 190 357 174 340 162 319 C 149 297 140 273 134 245 C 128 217 125 189 125 161 C 125 123 132 92 146 70 C 160 47 185 36 219 36 Z" unicode="" />
<glyph horiz-adv-x="774" d="M 405 544 C 423 544 439 537 452 524 C 465 511 472 495 472 477 C 472 458 465 442 452 429 C 439 416 423 410 405 410 C 386 410 370 416 357 429 C 344 442 338 458 338 477 C 338 495 344 511 357 524 C 370 537 386 544 405 544 Z M 669 327 L 669 259 L 141 259 L 141 327 L 669 327 Z M 405 176 C 423 176 439 169 452 156 C 465 143 472 127 472 109 C 472 90 465 74 452 61 C 439 48 423 42 405 42 C 386 42 370 48 357 61 C 344 74 338 90 338 109 C 338 127 344 143 357 156 C 370 169 386 176 405 176 Z" unicode="" />
<glyph horiz-adv-x="506" d="M 416 390 C 434 372 449 351 459 326 C 469 301 475 274 475 245 C 475 211 468 178 456 147 C 443 116 425 89 402 66 C 379 43 351 25 319 11 C 287 -3 252 -10 214 -10 C 195 -10 177 -7 160 -3 C 143 0 128 7 114 15 L 74 -35 L 25 -35 L 83 37 C 64 53 49 74 39 99 C 29 123 24 150 24 179 C 24 211 30 242 42 273 C 54 304 71 332 93 356 C 115 380 143 399 176 414 C 209 429 246 437 288 437 C 306 437 324 434 340 430 C 356 426 370 420 384 413 L 420 457 L 469 457 L 416 390 Z M 131 96 L 346 366 C 338 374 329 380 318 384 C 307 388 294 391 280 391 C 253 391 230 384 210 371 C 190 357 174 340 161 319 C 148 297 138 273 132 245 C 126 217 123 189 123 161 C 123 149 123 137 125 126 C 126 114 128 104 131 96 Z M 219 36 C 244 36 266 42 286 54 C 306 66 322 82 335 103 C 348 124 358 149 365 177 C 371 205 375 235 375 267 C 375 279 374 290 373 301 C 371 312 369 322 367 331 L 152 61 C 159 53 168 46 180 42 C 191 38 204 36 219 36 Z" unicode="" />
<glyph horiz-adv-x="559" d="M 313 641 L 443 499 L 418 482 L 251 572 C 235 580 224 589 217 598 C 209 606 206 615 206 625 C 206 637 210 647 218 656 C 226 665 238 670 252 670 C 261 670 271 668 281 665 C 291 661 301 653 313 641 Z M 519 64 L 528 30 C 520 23 505 15 483 5 C 461 -5 437 -10 411 -10 C 381 -10 362 -3 354 11 C 345 25 340 40 340 57 C 319 41 295 25 267 11 C 239 -2 206 -10 168 -10 C 128 -10 99 0 81 20 C 63 40 54 66 54 98 C 54 105 55 114 57 125 C 59 135 61 145 63 153 L 104 307 C 104 311 105 316 106 320 C 106 324 107 328 107 331 C 107 339 104 346 98 352 C 92 358 83 361 71 362 C 65 362 60 363 55 364 C 50 364 48 366 48 369 C 48 370 48 372 48 374 C 48 376 48 378 49 381 L 54 400 C 77 400 100 402 124 408 C 148 413 173 420 199 430 L 234 430 L 159 143 C 157 137 156 131 154 124 C 152 116 152 111 152 107 C 152 86 157 71 168 61 C 179 51 196 46 218 46 C 240 46 262 51 285 63 C 308 75 327 89 343 105 L 394 305 C 394 309 395 313 396 319 C 397 324 398 328 398 331 C 398 339 395 346 389 352 C 383 358 373 361 361 362 C 355 362 350 363 345 364 C 340 364 338 366 338 369 C 338 370 338 372 338 374 C 338 376 339 379 340 381 L 345 400 C 367 400 391 402 415 408 C 439 413 464 420 490 430 L 522 430 L 436 95 C 435 91 434 87 434 83 C 433 78 433 74 433 71 C 433 64 435 58 440 52 C 444 46 452 44 464 44 C 472 44 481 46 490 50 C 498 54 508 58 519 64 Z" unicode="" />
<glyph horiz-adv-x="559" d="M 425 670 C 439 670 450 665 459 656 C 467 647 472 637 472 625 C 472 616 467 607 459 598 C 451 589 439 580 424 572 L 254 482 L 227 499 L 365 641 C 377 653 387 661 397 665 C 407 668 416 670 425 670 Z M 519 64 L 528 30 C 520 23 505 15 483 5 C 461 -5 437 -10 411 -10 C 381 -10 362 -3 354 11 C 345 25 340 40 340 57 C 319 41 295 25 267 11 C 239 -2 206 -10 168 -10 C 128 -10 99 0 81 20 C 63 40 54 66 54 98 C 54 105 55 114 57 125 C 59 135 61 145 63 153 L 104 307 C 104 311 105 316 106 320 C 106 324 107 328 107 331 C 107 339 104 346 98 352 C 92 358 83 361 71 362 C 65 362 60 363 55 364 C 50 364 48 366 48 369 C 48 370 48 372 48 374 C 48 376 48 378 49 381 L 54 400 C 77 400 100 402 124 408 C 148 413 173 420 199 430 L 234 430 L 159 143 C 157 137 156 131 154 124 C 152 116 152 111 152 107 C 152 86 157 71 168 61 C 179 51 196 46 218 46 C 240 46 262 51 285 63 C 308 75 327 89 343 105 L 394 305 C 394 309 395 313 396 319 C 397 324 398 328 398 331 C 398 339 395 346 389 352 C 383 358 373 361 361 362 C 355 362 350 363 345 364 C 340 364 338 366 338 369 C 338 370 338 372 338 374 C 338 376 339 379 340 381 L 345 400 C 367 400 391 402 415 408 C 439 413 464 420 490 430 L 522 430 L 436 95 C 435 91 434 87 434 83 C 433 78 433 74 433 71 C 433 64 435 58 440 52 C 444 46 452 44 464 44 C 472 44 481 46 490 50 C 498 54 508 58 519 64 Z" unicode="" />
<glyph horiz-adv-x="559" d="M 392 661 L 490 483 L 446 483 L 346 584 L 195 483 L 151 483 L 327 661 L 392 661 Z M 519 64 L 528 30 C 520 23 505 15 483 5 C 461 -5 437 -10 411 -10 C 381 -10 362 -3 354 11 C 345 25 340 40 340 57 C 319 41 295 25 267 11 C 239 -2 206 -10 168 -10 C 128 -10 99 0 81 20 C 63 40 54 66 54 98 C 54 105 55 114 57 125 C 59 135 61 145 63 153 L 104 307 C 104 311 105 316 106 320 C 106 324 107 328 107 331 C 107 339 104 346 98 352 C 92 358 83 361 71 362 C 65 362 60 363 55 364 C 50 364 48 366 48 369 C 48 370 48 372 48 374 C 48 376 48 378 49 381 L 54 400 C 77 400 100 402 124 408 C 148 413 173 420 199 430 L 234 430 L 159 143 C 157 137 156 131 154 124 C 152 116 152 111 152 107 C 152 86 157 71 168 61 C 179 51 196 46 218 46 C 240 46 262 51 285 63 C 308 75 327 89 343 105 L 394 305 C 394 309 395 313 396 319 C 397 324 398 328 398 331 C 398 339 395 346 389 352 C 383 358 373 361 361 362 C 355 362 350 363 345 364 C 340 364 338 366 338 369 C 338 370 338 372 338 374 C 338 376 339 379 340 381 L 345 400 C 367 400 391 402 415 408 C 439 413 464 420 490 430 L 522 430 L 436 95 C 435 91 434 87 434 83 C 433 78 433 74 433 71 C 433 64 435 58 440 52 C 444 46 452 44 464 44 C 472 44 481 46 490 50 C 498 54 508 58 519 64 Z" unicode="" />
<glyph horiz-adv-x="559" d="M 439 623 C 455 623 469 617 481 606 C 493 594 499 581 499 567 C 499 552 493 539 481 528 C 469 516 455 511 439 511 C 422 511 408 516 396 528 C 384 539 378 552 378 567 C 378 581 384 594 396 606 C 408 617 422 623 439 623 Z M 234 623 C 250 623 264 617 276 606 C 288 594 294 581 294 567 C 294 552 288 539 276 528 C 264 516 250 511 234 511 C 217 511 203 516 191 528 C 179 539 173 552 173 567 C 173 581 179 594 191 606 C 203 617 217 623 234 623 Z M 519 64 L 528 30 C 520 23 505 15 483 5 C 461 -5 437 -10 411 -10 C 381 -10 362 -3 354 11 C 345 25 340 40 340 57 C 319 41 295 25 267 11 C 239 -2 206 -10 168 -10 C 128 -10 99 0 81 20 C 63 40 54 66 54 98 C 54 105 55 114 57 125 C 59 135 61 145 63 153 L 104 307 C 104 311 105 316 106 320 C 106 324 107 328 107 331 C 107 339 104 346 98 352 C 92 358 83 361 71 362 C 65 362 60 363 55 364 C 50 364 48 366 48 369 C 48 370 48 372 48 374 C 48 376 48 378 49 381 L 54 400 C 77 400 100 402 124 408 C 148 413 173 420 199 430 L 234 430 L 159 143 C 157 137 156 131 154 124 C 152 116 152 111 152 107 C 152 86 157 71 168 61 C 179 51 196 46 218 46 C 240 46 262 51 285 63 C 308 75 327 89 343 105 L 394 305 C 394 309 395 313 396 319 C 397 324 398 328 398 331 C 398 339 395 346 389 352 C 383 358 373 361 361 362 C 355 362 350 363 345 364 C 340 364 338 366 338 369 C 338 370 338 372 338 374 C 338 376 339 379 340 381 L 345 400 C 367 400 391 402 415 408 C 439 413 464 420 490 430 L 522 430 L 436 95 C 435 91 434 87 434 83 C 433 78 433 74 433 71 C 433 64 435 58 440 52 C 444 46 452 44 464 44 C 472 44 481 46 490 50 C 498 54 508 58 519 64 Z" unicode="" />
<glyph horiz-adv-x="471" d="M 402 670 C 416 670 427 665 436 656 C 444 647 449 637 449 625 C 449 616 444 607 436 598 C 428 589 416 580 401 572 L 231 482 L 204 499 L 342 641 C 354 653 364 661 374 665 C 384 668 393 670 402 670 Z M 417 433 C 435 433 450 427 461 416 C 471 404 477 391 477 377 C 477 360 471 338 459 312 C 447 286 432 257 414 226 C 396 195 374 162 350 128 C 326 94 301 60 277 28 C 257 2 237 -23 216 -50 C 194 -76 172 -100 149 -122 C 125 -144 101 -162 75 -176 C 49 -190 23 -197 -5 -197 C -31 -197 -52 -190 -67 -178 C -82 -165 -90 -149 -90 -129 C -90 -117 -85 -105 -75 -95 C -65 -84 -52 -79 -36 -79 C -21 -79 -8 -84 4 -94 C 16 -104 23 -121 27 -147 C 40 -145 55 -139 71 -128 C 87 -117 103 -104 119 -90 C 134 -75 148 -60 162 -45 C 175 -30 186 -18 194 -9 C 187 23 180 56 173 90 C 165 124 158 155 151 185 C 144 214 137 240 131 263 C 125 286 120 303 116 315 C 111 328 104 341 95 355 C 85 369 73 376 59 376 C 50 376 41 374 33 370 C 24 366 14 361 2 356 L -5 391 C 3 398 19 407 42 417 C 64 427 86 433 107 433 C 140 433 165 420 182 396 C 199 372 214 337 226 293 C 235 257 243 221 251 184 C 258 147 264 115 269 87 C 291 118 311 149 328 180 C 344 210 359 237 372 261 C 378 273 383 284 386 292 C 389 300 394 311 400 326 C 388 332 378 339 370 348 C 362 356 358 367 358 381 C 358 392 363 403 373 415 C 383 427 397 433 417 433 Z" unicode="" />
<glyph horiz-adv-x="471" d="M 398 623 C 414 623 428 617 440 606 C 452 594 458 581 458 567 C 458 552 452 539 440 528 C 428 516 414 511 398 511 C 381 511 367 516 355 528 C 343 539 337 552 337 567 C 337 581 343 594 355 606 C 367 617 381 623 398 623 Z M 193 623 C 209 623 223 617 235 606 C 247 594 253 581 253 567 C 253 552 247 539 235 528 C 223 516 209 511 193 511 C 176 511 162 516 150 528 C 138 539 132 552 132 567 C 132 581 138 594 150 606 C 162 617 176 623 193 623 Z M 417 433 C 435 433 450 427 461 416 C 471 404 477 391 477 377 C 477 360 471 338 459 312 C 447 286 432 257 414 226 C 396 195 374 162 350 128 C 326 94 301 60 277 28 C 257 2 237 -23 216 -50 C 194 -76 172 -100 149 -122 C 125 -144 101 -162 75 -176 C 49 -190 23 -197 -5 -197 C -31 -197 -52 -190 -67 -178 C -82 -165 -90 -149 -90 -129 C -90 -117 -85 -105 -75 -95 C -65 -84 -52 -79 -36 -79 C -21 -79 -8 -84 4 -94 C 16 -104 23 -121 27 -147 C 40 -145 55 -139 71 -128 C 87 -117 103 -104 119 -90 C 134 -75 148 -60 162 -45 C 175 -30 186 -18 194 -9 C 187 23 180 56 173 90 C 165 124 158 155 151 185 C 144 214 137 240 131 263 C 125 286 120 303 116 315 C 111 328 104 341 95 355 C 85 369 73 376 59 376 C 50 376 41 374 33 370 C 24 366 14 361 2 356 L -5 391 C 3 398 19 407 42 417 C 64 427 86 433 107 433 C 140 433 165 420 182 396 C 199 372 214 337 226 293 C 235 257 243 221 251 184 C 258 147 264 115 269 87 C 291 118 311 149 328 180 C 344 210 359 237 372 261 C 378 273 383 284 386 292 C 389 300 394 311 400 326 C 388 332 378 339 370 348 C 362 356 358 367 358 381 C 358 392 363 403 373 415 C 383 427 397 433 417 433 Z" unicode="" />
<glyph horiz-adv-x="279" d="M 239 64 L 247 30 C 239 23 224 15 202 5 C 180 -5 156 -10 131 -10 C 101 -10 80 -3 69 8 C 57 20 52 35 52 51 C 52 57 52 64 53 72 C 54 80 56 88 58 96 L 113 307 C 113 310 114 314 115 319 C 115 324 116 328 116 331 C 116 339 113 346 107 352 C 101 358 91 361 79 362 C 73 362 68 363 63 364 C 58 364 56 366 56 369 C 56 370 56 372 56 374 C 56 376 57 378 58 381 L 63 400 C 85 400 109 402 133 408 C 157 413 182 420 208 430 L 241 430 L 156 96 C 155 92 154 88 153 84 C 152 79 152 75 152 72 C 152 64 154 58 159 52 C 163 46 172 44 184 44 C 192 44 201 46 210 50 C 218 54 228 58 239 64 Z" unicode="" />
<glyph horiz-adv-x="617" d="M 544 169 L 575 169 L 533 0 L -25 0 L -19 25 C -17 31 -14 34 -10 36 C -6 37 2 40 15 45 C 30 50 40 55 44 59 C 48 63 51 72 54 85 L 112 315 L 39 276 L 53 334 L 126 373 L 192 633 C 193 639 194 644 195 650 C 195 655 196 659 196 662 C 196 668 193 672 188 675 C 183 678 176 681 168 685 C 160 688 153 690 149 692 C 145 693 143 696 143 700 C 143 701 143 703 144 706 C 144 709 145 712 146 715 L 150 730 L 381 730 L 375 705 C 373 699 371 695 367 694 C 363 692 355 689 343 685 C 327 679 318 674 314 670 C 310 666 307 657 305 645 L 249 424 L 389 499 L 374 439 L 234 366 L 154 50 L 384 50 C 414 50 438 57 455 73 C 472 88 493 113 517 149 C 521 155 525 160 529 164 C 532 167 537 169 544 169 Z" unicode="" />
<glyph horiz-adv-x="273" d="M 151 730 L 306 730 L 227 415 L 303 456 L 289 401 L 213 361 L 147 96 C 146 92 145 88 144 84 C 143 79 143 75 143 72 C 143 64 145 58 150 52 C 154 46 163 44 175 44 C 183 44 192 46 202 50 C 211 54 221 58 232 64 L 240 30 C 232 23 217 15 194 5 C 171 -5 147 -10 122 -10 C 92 -10 71 -3 60 8 C 48 20 43 35 43 51 C 43 57 43 64 44 72 C 45 80 47 88 49 96 L 106 321 L 30 279 L 44 335 L 120 375 L 190 653 C 192 661 192 669 188 675 C 184 681 178 686 169 691 C 160 695 154 698 150 700 C 146 701 145 704 146 708 L 151 730 Z" unicode="" />
<glyph horiz-adv-x="1035" d="M 963 730 C 969 730 977 730 987 731 C 997 731 1006 732 1016 733 C 1026 734 1035 735 1044 736 C 1053 736 1060 737 1066 738 L 1028 590 L 1003 590 C 995 590 989 591 985 594 C 981 596 979 600 979 606 C 977 621 975 634 973 644 C 971 654 967 661 962 667 C 956 672 948 676 938 678 C 927 680 912 681 894 681 L 718 681 L 646 399 L 745 399 C 765 399 779 402 787 408 C 795 414 807 425 821 443 C 825 449 830 454 835 457 C 839 460 846 462 855 462 L 879 462 L 833 280 L 807 280 C 799 280 793 282 790 287 C 786 291 784 296 783 301 C 778 318 773 330 768 338 C 762 345 751 349 735 349 L 634 349 L 558 49 L 782 49 C 812 49 837 55 855 69 C 873 83 894 108 918 144 C 922 150 926 155 930 159 C 933 162 938 164 945 164 L 976 164 L 935 0 L 415 0 C 367 0 320 5 276 17 C 232 28 193 46 160 70 C 126 94 100 126 80 164 C 60 202 51 248 51 302 C 51 370 63 431 88 485 C 113 538 147 583 190 619 C 232 655 282 683 340 702 C 398 720 459 730 524 730 L 963 730 Z M 589 606 C 591 612 592 620 594 628 C 595 636 596 643 596 651 C 596 659 593 665 588 669 C 583 673 577 676 570 678 C 563 680 556 681 548 681 C 540 681 534 682 529 682 C 470 682 418 672 373 653 C 327 633 289 606 259 572 C 229 538 206 497 190 449 C 174 401 167 349 167 293 C 167 257 171 225 181 195 C 191 165 205 139 224 117 C 243 95 267 77 295 65 C 323 52 356 46 393 46 C 417 46 434 50 443 60 C 452 70 459 86 465 108 L 589 606 Z" unicode="" />
<glyph horiz-adv-x="768" d="M 619 435 C 635 435 651 433 667 430 C 683 426 697 421 710 413 C 723 405 734 395 742 383 C 750 370 755 354 755 336 C 755 306 745 281 727 263 C 709 245 687 230 661 220 C 635 210 607 203 578 200 C 548 196 522 195 500 195 L 449 195 C 449 191 448 187 448 183 C 448 179 448 175 448 171 C 448 133 457 102 477 80 C 497 57 526 46 565 46 C 594 46 622 54 650 70 C 678 86 702 103 723 122 L 744 94 C 720 60 689 34 653 16 C 617 -1 578 -10 536 -10 C 503 -10 475 -3 451 10 C 427 24 405 44 387 70 C 363 46 337 27 308 12 C 278 -2 247 -10 213 -10 C 155 -10 109 6 75 40 C 41 74 24 120 24 178 C 24 214 30 248 44 280 C 57 312 75 339 99 363 C 123 386 151 404 183 417 C 215 430 249 437 286 437 C 317 437 345 430 370 416 C 395 402 416 382 434 356 C 460 380 488 399 519 413 C 550 427 583 435 619 435 Z M 218 36 C 246 36 269 43 289 59 C 309 74 324 93 336 116 C 348 139 356 164 362 191 C 367 218 370 243 370 266 C 370 298 364 326 353 352 C 341 378 317 391 279 391 C 250 391 226 383 206 368 C 186 353 170 334 158 312 C 146 290 138 265 133 238 C 127 211 125 186 125 163 C 125 147 126 131 129 116 C 131 100 136 87 143 75 C 149 63 159 54 171 47 C 183 39 199 36 218 36 Z M 454 233 C 472 233 493 234 517 236 C 541 237 563 241 585 247 C 606 253 624 263 639 277 C 653 291 661 311 661 337 C 661 354 655 367 643 376 C 631 384 617 389 601 389 C 579 389 560 384 544 375 C 527 365 512 353 500 339 C 488 324 478 307 470 289 C 462 270 457 251 454 233 Z" unicode="" />
<glyph horiz-adv-x="597" d="M 551 951 L 597 951 L 413 778 L 348 778 L 238 951 L 281 951 L 388 855 L 551 951 Z M 568 709 L 596 709 L 551 534 L 517 534 C 511 534 506 535 504 538 C 502 540 500 544 500 548 C 494 591 480 626 458 652 C 435 678 401 691 357 691 C 316 691 282 679 255 657 C 228 634 215 605 215 571 C 215 547 221 526 233 508 C 245 490 262 474 285 462 C 302 452 322 443 344 433 C 366 423 384 414 400 408 C 454 383 492 356 516 328 C 540 299 552 265 552 226 C 552 197 545 168 533 140 C 521 112 503 86 479 64 C 455 42 425 24 390 10 C 355 -4 315 -11 270 -11 C 224 -11 184 -5 150 6 C 115 18 92 26 80 31 C 76 32 73 33 69 34 C 65 35 61 36 59 36 C 54 36 50 35 47 34 C 44 32 41 30 39 26 C 35 21 30 17 24 15 C 18 13 14 12 10 12 L -21 12 L 28 209 L 63 209 C 67 209 71 207 74 204 C 77 201 80 195 83 187 C 98 133 124 94 160 72 C 196 50 234 39 275 39 C 327 39 370 52 404 80 C 437 107 454 144 454 192 C 454 223 443 247 422 264 C 400 281 375 296 347 310 C 325 320 306 328 290 336 C 273 344 256 352 239 361 C 193 382 161 409 144 441 C 126 473 118 507 118 541 C 118 567 123 592 135 616 C 146 640 162 661 183 680 C 204 698 230 713 260 724 C 290 735 323 741 361 741 C 381 741 405 738 431 733 C 457 727 484 717 512 703 C 517 700 522 698 527 696 C 531 694 537 696 543 700 C 550 704 555 707 557 708 C 559 708 563 709 568 709 Z" unicode="" />
<glyph horiz-adv-x="398" d="M 402 656 L 446 656 L 270 478 L 205 478 L 107 656 L 150 656 L 250 555 L 402 656 Z M 236 435 C 282 435 317 426 339 410 C 361 393 372 376 372 360 C 372 342 366 329 355 320 C 344 310 331 306 317 306 C 303 306 291 310 282 319 C 272 327 268 338 268 350 C 268 354 268 360 270 367 C 271 374 273 380 276 385 C 272 385 267 387 260 390 C 253 392 241 394 225 394 C 204 394 186 387 170 375 C 154 363 147 347 147 327 C 147 311 155 297 172 285 C 188 273 216 258 254 242 C 290 226 316 210 332 192 C 348 174 356 154 356 130 C 356 114 352 97 344 81 C 336 64 325 49 309 36 C 293 22 274 11 250 3 C 226 -5 197 -10 165 -10 C 113 -10 73 0 45 20 C 17 40 3 61 3 84 C 3 98 7 111 17 123 C 27 134 41 140 59 140 C 77 140 90 135 98 127 C 106 118 110 108 110 96 C 110 87 107 79 103 72 C 99 64 96 59 95 57 C 103 49 115 43 131 38 C 147 33 163 31 179 31 C 205 31 227 38 244 52 C 261 66 270 83 270 102 C 270 120 259 136 238 148 C 217 160 191 172 159 186 C 121 201 95 218 82 238 C 69 257 63 278 63 302 C 63 320 67 338 77 354 C 86 370 99 384 115 396 C 131 408 149 417 170 424 C 191 431 213 435 236 435 Z" unicode="" />
<glyph horiz-adv-x="663" d="M 576 913 C 592 913 607 907 619 896 C 631 884 637 871 637 857 C 637 842 631 829 619 818 C 607 806 592 801 576 801 C 560 801 546 806 534 818 C 522 829 516 842 516 857 C 516 871 522 884 534 896 C 546 907 560 913 576 913 Z M 345 913 C 361 913 376 907 388 896 C 400 884 406 871 406 857 C 406 842 400 829 388 818 C 376 806 361 801 345 801 C 329 801 315 806 303 818 C 291 829 285 842 285 857 C 285 871 291 884 303 896 C 315 907 329 913 345 913 Z M 565 730 L 774 730 L 769 710 C 767 704 765 700 761 698 C 757 696 750 692 741 688 C 724 680 711 674 703 669 C 694 663 680 650 662 630 L 395 334 L 335 97 C 333 90 332 84 332 79 C 331 74 331 70 331 68 C 331 62 333 58 338 54 C 343 50 350 47 359 45 C 367 42 373 40 378 38 C 382 36 385 34 385 30 C 385 28 384 26 384 23 C 384 20 383 17 383 15 L 378 0 L 145 0 L 151 25 C 152 31 155 34 159 36 C 163 37 171 40 184 45 C 199 50 209 55 213 59 C 217 63 220 72 223 85 L 284 332 L 147 643 C 142 653 136 661 130 668 C 124 674 115 680 104 685 C 93 689 86 693 84 695 C 81 697 80 700 81 705 L 87 730 L 322 730 L 319 714 C 318 708 316 704 313 702 C 309 699 301 695 289 691 C 279 687 271 683 266 679 C 260 675 258 671 258 667 C 258 664 259 659 262 651 C 264 643 266 638 268 634 L 372 391 L 588 633 C 593 639 599 647 605 655 C 611 663 614 668 614 671 C 614 676 611 680 605 683 C 599 685 593 688 586 691 C 575 695 568 698 565 701 C 562 704 561 708 562 714 L 565 730 Z" unicode="" />
<glyph horiz-adv-x="642" d="M 598 951 L 644 951 L 460 778 L 395 778 L 285 951 L 328 951 L 435 855 L 598 951 Z M 265 730 L 700 730 L 696 717 C 693 707 690 699 686 695 C 682 690 676 684 669 676 L 115 50 L 387 50 C 417 50 441 57 460 71 C 478 85 500 109 524 145 C 528 151 532 156 536 160 C 540 163 545 165 552 165 L 582 165 L 539 -8 C 534 -7 527 -6 518 -6 C 508 -5 498 -4 488 -3 C 477 -2 466 -1 456 -1 C 446 0 437 0 430 0 L -39 0 L -34 18 C -32 24 -29 29 -25 34 C -21 39 -15 46 -8 55 L 546 680 L 295 680 C 273 680 255 674 239 662 C 223 650 207 631 191 605 C 187 598 182 593 176 589 C 170 585 162 583 153 583 L 131 583 L 169 738 C 178 737 193 735 214 733 C 235 731 252 730 265 730 Z" unicode="" />
<glyph horiz-adv-x="434" d="M 417 656 L 461 656 L 285 478 L 220 478 L 122 656 L 165 656 L 265 555 L 417 656 Z M 429 436 L 443 408 L 97 83 L 99 81 C 111 81 122 82 132 83 C 142 84 157 85 176 85 C 196 85 213 82 227 78 C 241 74 254 69 265 63 C 276 57 287 52 297 48 C 307 44 317 42 328 42 C 333 42 339 43 346 47 C 352 51 356 58 356 70 C 356 77 353 83 349 87 C 345 91 340 95 334 99 C 328 103 323 108 319 114 C 315 120 313 128 313 139 C 313 151 318 161 328 168 C 338 174 348 178 359 178 C 367 178 378 174 391 167 C 403 159 410 144 410 120 C 410 97 405 77 397 61 C 389 45 378 31 365 21 C 351 10 336 2 319 -2 C 301 -7 284 -10 267 -10 C 250 -10 235 -8 223 -6 C 211 -4 199 -1 188 1 C 176 4 164 7 151 9 C 137 11 121 13 102 13 C 84 13 67 11 51 8 C 34 5 12 1 -14 -3 L -27 25 L 320 352 L 318 355 C 301 349 285 346 270 345 C 255 344 242 344 231 344 C 215 344 200 345 186 348 C 172 350 156 352 136 352 C 116 352 100 346 89 336 C 77 325 68 315 61 306 L 34 323 C 34 325 36 332 41 344 C 46 356 54 368 66 381 C 77 393 91 405 109 415 C 127 425 148 431 174 431 C 190 431 203 430 212 428 C 221 426 230 425 238 423 C 246 421 255 419 266 417 C 277 415 293 415 315 415 C 349 415 374 417 390 422 C 406 426 419 431 429 436 Z" unicode="" />
<glyph horiz-adv-x="494" d="M 436 694 C 464 694 486 687 501 675 C 516 663 524 647 524 629 C 524 615 519 604 510 594 C 501 584 489 579 475 579 C 462 579 451 582 441 588 C 431 594 426 603 426 616 C 425 622 425 628 427 634 C 428 640 429 646 430 654 C 399 645 376 629 362 605 C 348 581 338 559 334 539 L 295 378 L 411 378 L 398 333 L 283 333 L 174 -137 L 74 -137 L 185 333 L 96 334 L 106 378 L 162 378 C 178 378 190 382 197 392 C 203 402 208 412 211 423 L 229 494 C 232 506 238 523 247 546 C 255 568 268 590 284 612 C 300 634 321 653 346 669 C 370 685 400 694 436 694 Z" unicode="" />
<glyph horiz-adv-x="436" d="M 304 656 L 402 478 L 359 478 L 259 579 L 107 478 L 63 478 L 239 656 L 304 656 Z" unicode="" />
<glyph horiz-adv-x="436" d="M 380 656 L 424 656 L 248 478 L 183 478 L 85 656 L 128 656 L 228 555 L 380 656 Z" unicode="" />
<glyph horiz-adv-x="436" d="M 92 601 L 413 601 L 394 537 L 73 537 L 92 601 Z" unicode="" />
<glyph horiz-adv-x="436" d="M 364 661 L 407 661 C 399 637 391 615 381 594 C 371 572 359 554 345 538 C 331 522 314 510 294 501 C 274 492 250 488 222 488 C 172 488 139 502 123 530 C 107 558 98 595 98 641 C 98 644 98 647 98 651 C 98 654 98 657 99 661 L 140 661 C 144 631 152 606 163 586 C 173 566 198 557 236 557 C 275 557 303 566 319 586 C 335 606 350 631 364 661 Z" unicode="" />
<glyph horiz-adv-x="436" d="M 243 639 C 261 639 275 632 287 620 C 299 607 305 592 305 576 C 305 559 299 545 287 533 C 275 521 260 516 242 516 C 225 516 211 521 199 533 C 187 545 181 559 181 576 C 181 592 187 607 199 620 C 211 632 226 639 243 639 Z" unicode="" />
<glyph horiz-adv-x="436" d="M 276 706 C 310 706 337 696 359 678 C 381 660 392 636 392 608 C 392 574 378 545 352 522 C 325 499 293 488 257 488 C 223 488 196 497 174 516 C 152 534 142 558 142 586 C 142 600 145 614 151 628 C 157 642 166 655 178 667 C 190 678 204 687 220 695 C 236 702 255 706 276 706 Z M 258 520 C 282 520 300 530 312 550 C 323 570 329 592 329 617 C 329 637 324 652 314 661 C 304 669 291 674 275 674 C 249 674 231 663 221 643 C 210 622 205 600 205 578 C 205 560 209 545 217 535 C 225 525 239 520 258 520 Z" unicode="" />
<glyph horiz-adv-x="436" d="M 360 635 L 395 635 C 389 602 374 574 352 551 C 330 528 304 517 276 517 C 263 517 252 518 244 522 C 235 525 223 532 209 542 C 196 550 186 556 178 560 C 170 564 160 566 150 566 C 135 566 122 560 112 550 C 102 539 95 527 91 513 L 57 513 C 61 545 75 573 97 596 C 119 619 145 631 174 631 C 190 631 202 629 210 625 C 218 621 229 616 242 608 C 254 599 265 592 273 588 C 281 584 291 582 301 582 C 315 582 328 587 339 598 C 350 608 357 621 360 635 Z" unicode="" />
<glyph horiz-adv-x="636" d="M 271 421 C 329 421 388 420 447 420 C 506 420 565 420 624 420 L 610 357 L 519 357 L 464 120 C 462 113 460 106 459 98 C 458 90 458 83 458 77 C 458 60 463 49 475 44 C 486 39 499 37 513 37 C 519 37 526 37 533 39 C 539 41 546 43 552 46 C 552 42 553 37 554 33 C 554 29 555 25 555 21 C 555 15 551 10 543 6 C 535 2 526 -1 516 -3 C 506 -5 496 -7 486 -8 C 476 -9 469 -10 465 -10 C 438 -10 414 -3 394 9 C 373 21 363 43 363 73 C 363 82 363 91 365 101 C 366 111 368 120 370 129 L 423 357 L 300 355 C 294 328 287 294 278 253 C 269 211 257 171 242 133 C 226 94 207 60 183 32 C 159 4 129 -10 94 -10 C 80 -10 66 -5 54 3 C 42 12 36 24 36 40 C 36 56 41 69 52 81 C 63 93 77 99 94 99 C 104 99 114 95 123 89 C 131 83 139 76 146 70 C 158 89 170 111 180 135 C 190 159 200 183 208 208 C 216 233 223 258 229 284 C 235 310 240 334 245 357 C 213 353 186 346 166 334 C 146 322 128 301 113 273 L 65 273 C 81 318 107 354 143 381 C 179 407 221 421 271 421 Z" unicode="" />
<glyph horiz-adv-x="598" d="M 61 256 L 553 256 L 535 190 L 42 190 L 61 256 Z" unicode="" />
<glyph horiz-adv-x="1181" d="M 61 256 L 1136 256 L 1118 190 L 42 190 L 61 256 Z" unicode="" />
<glyph horiz-adv-x="1080" d="M -48 49 L 1039 49 L 1026 0 L -60 0 L -48 49 Z" unicode="" />
<glyph horiz-adv-x="253" d="M 288 742 L 312 716 C 288 702 265 686 243 668 C 221 650 203 626 191 598 C 215 594 232 588 242 578 C 251 568 256 558 256 546 C 256 524 249 507 235 495 C 221 483 205 477 186 477 C 164 477 148 482 137 494 C 126 505 121 520 121 538 C 121 554 124 571 130 590 C 136 609 146 628 160 646 C 173 664 190 682 212 699 C 233 715 258 730 288 742 Z" unicode="" />
<glyph horiz-adv-x="253" d="M 215 740 C 237 740 253 734 264 723 C 275 711 281 697 281 679 C 281 663 277 645 271 626 C 265 607 255 588 241 570 C 227 552 210 534 189 518 C 167 501 142 487 113 475 L 90 501 C 113 515 136 531 158 549 C 180 567 198 590 211 619 C 186 622 169 628 159 638 C 149 648 145 659 145 671 C 145 692 152 709 166 721 C 180 733 196 740 215 740 Z" unicode="" />
<glyph horiz-adv-x="253" d="M 77 120 C 99 120 115 114 126 103 C 137 91 143 77 143 59 C 143 43 139 25 133 6 C 127 -12 117 -31 103 -49 C 89 -67 72 -85 51 -102 C 29 -118 4 -133 -25 -145 L -48 -119 C -24 -105 -1 -89 20 -71 C 42 -53 60 -29 73 -1 C 48 2 31 8 21 18 C 11 28 7 39 7 51 C 7 72 14 89 28 101 C 42 113 58 120 77 120 Z" unicode="" />
<glyph horiz-adv-x="447" d="M 482 742 L 505 716 C 481 702 458 686 436 668 C 414 650 396 626 384 598 C 408 594 425 588 435 578 C 444 568 449 558 449 546 C 449 525 442 508 429 496 C 415 483 399 477 380 477 C 358 477 342 482 331 494 C 319 505 314 520 314 538 C 314 554 317 571 323 590 C 329 609 339 628 353 646 C 367 664 384 682 406 699 C 427 715 452 730 482 742 Z M 288 742 L 312 716 C 288 702 265 686 243 668 C 221 650 203 626 191 598 C 215 594 232 588 242 579 C 251 569 256 558 256 546 C 256 525 249 508 235 496 C 221 483 205 477 186 477 C 164 477 148 482 137 494 C 126 505 121 520 121 538 C 121 554 124 571 130 590 C 136 609 146 628 160 646 C 173 664 190 682 212 699 C 233 715 258 730 288 742 Z" unicode="" />
<glyph horiz-adv-x="447" d="M 409 740 C 430 740 446 734 458 723 C 469 711 475 697 475 679 C 475 663 471 645 465 626 C 459 607 449 588 435 570 C 421 552 404 534 383 518 C 361 501 336 487 307 475 L 283 501 C 307 515 330 531 352 549 C 374 567 392 590 405 619 C 380 622 363 628 353 638 C 343 648 339 659 339 671 C 339 691 345 708 359 721 C 373 733 389 740 409 740 Z M 215 740 C 237 740 253 734 264 723 C 275 711 281 697 281 679 C 281 663 277 645 271 626 C 265 607 255 588 241 570 C 227 552 210 534 189 518 C 167 501 142 487 113 475 L 90 501 C 113 515 136 531 158 549 C 180 567 198 590 211 619 C 186 622 169 628 159 638 C 149 648 145 659 145 671 C 145 691 152 708 166 721 C 180 733 196 740 215 740 Z" unicode="" />
<glyph horiz-adv-x="447" d="M 271 120 C 292 120 308 114 320 103 C 331 91 337 77 337 59 C 337 43 333 25 327 6 C 321 -12 311 -31 297 -49 C 283 -67 266 -85 245 -102 C 223 -118 198 -133 169 -145 L 145 -119 C 169 -105 192 -89 214 -71 C 236 -53 254 -29 267 -1 C 242 2 225 8 215 18 C 205 28 201 39 201 51 C 201 71 207 88 221 101 C 235 113 251 120 271 120 Z M 77 120 C 99 120 115 114 126 103 C 137 91 143 77 143 59 C 143 43 139 25 133 6 C 127 -12 117 -31 103 -49 C 89 -67 72 -85 51 -102 C 29 -118 4 -133 -25 -145 L -48 -119 C -24 -105 -1 -89 20 -71 C 42 -53 60 -29 73 -1 C 48 2 31 8 21 18 C 11 28 7 39 7 51 C 7 71 14 88 28 101 C 42 113 58 120 77 120 Z" unicode="" />
<glyph horiz-adv-x="513" d="M 465 534 C 485 534 501 529 513 521 C 525 513 531 502 531 490 C 531 478 526 467 518 459 C 509 450 498 446 486 446 C 484 446 482 446 480 446 C 478 446 476 446 474 447 C 459 450 448 454 440 458 C 432 462 425 467 417 472 C 409 477 400 482 388 488 C 376 493 359 499 336 505 C 333 494 331 480 329 464 C 327 448 327 430 327 412 C 327 401 327 390 329 379 C 330 367 332 356 335 346 C 321 329 309 306 297 278 C 285 249 273 216 262 180 C 250 144 239 104 228 60 C 216 16 205 -28 193 -74 L 154 -65 C 164 -25 173 14 182 53 C 191 91 199 128 206 162 C 213 196 219 227 223 256 C 227 285 229 310 229 332 C 229 338 228 345 228 352 C 228 359 227 365 227 371 C 247 391 263 416 276 445 C 288 473 297 496 302 513 C 287 515 275 517 265 518 C 255 518 247 519 240 519 C 229 519 220 518 212 517 C 204 515 196 515 190 515 C 171 515 154 518 138 524 C 122 530 115 542 115 560 C 115 572 119 582 127 590 C 135 598 146 603 159 603 C 161 603 163 603 165 603 C 167 603 169 602 172 602 C 186 598 197 594 205 590 C 213 586 220 581 228 576 C 236 571 245 566 257 561 C 269 555 286 550 310 545 C 313 561 315 574 316 586 C 317 597 318 607 318 616 C 317 624 316 632 316 639 C 315 645 315 652 315 660 C 315 684 318 703 326 715 C 334 727 347 733 365 733 C 377 733 388 729 397 721 C 405 713 410 704 410 692 C 410 690 410 688 410 686 C 410 684 409 682 409 680 C 405 666 401 654 396 646 C 391 638 386 629 380 621 C 374 612 369 601 363 589 C 357 576 351 559 345 537 C 359 534 371 532 381 531 C 391 530 400 530 408 530 C 419 530 429 530 438 532 C 446 533 455 534 465 534 Z" unicode="" />
<glyph horiz-adv-x="513" d="M 465 534 C 479 534 493 530 508 524 C 523 518 531 506 531 490 C 531 477 526 466 518 458 C 509 450 498 446 486 446 C 484 446 482 446 480 446 C 478 446 476 446 474 447 C 458 450 445 455 436 461 C 426 467 415 474 402 482 C 392 487 381 491 370 495 C 358 499 347 502 336 505 C 331 484 327 463 325 441 C 323 419 322 398 322 378 C 322 367 322 356 323 346 C 323 336 325 326 328 316 C 319 307 310 295 301 281 C 292 266 283 251 275 235 C 267 219 259 204 253 188 C 247 172 242 158 239 146 C 249 144 260 142 270 141 C 280 140 290 140 301 140 C 309 140 318 140 326 142 C 334 143 342 144 351 144 C 365 144 381 141 399 136 C 417 130 426 118 426 99 C 426 85 421 75 412 67 C 402 59 391 56 379 56 C 377 56 376 56 374 56 C 372 56 370 56 369 57 C 353 60 340 65 331 71 C 322 77 311 84 298 91 C 287 96 276 100 265 104 C 253 108 242 111 231 114 C 228 103 226 92 225 81 C 223 70 223 59 223 49 C 223 40 223 32 224 24 C 225 16 226 7 226 -1 C 226 -19 223 -35 217 -51 C 211 -66 198 -74 176 -74 C 164 -74 153 -70 144 -63 C 135 -55 131 -45 131 -33 C 131 -31 131 -29 131 -27 C 131 -25 131 -23 132 -21 C 135 -5 140 8 148 19 C 156 29 163 41 171 55 C 176 65 181 76 185 88 C 189 99 193 110 196 122 C 185 124 174 125 164 127 C 154 128 143 129 133 129 C 123 129 114 128 104 127 C 94 125 85 125 76 125 C 62 125 47 128 32 134 C 17 140 10 152 10 169 C 10 181 14 192 23 200 C 31 208 42 213 55 213 C 57 213 59 213 61 213 C 63 213 65 212 67 212 C 83 208 95 203 105 197 C 114 191 125 184 139 177 C 149 171 159 167 171 163 C 182 159 193 156 205 154 C 210 176 214 198 217 222 C 220 246 222 269 222 292 C 222 300 221 308 221 317 C 220 325 219 334 217 342 C 225 351 234 363 243 377 C 251 391 259 406 267 422 C 275 438 282 454 288 470 C 294 486 298 500 302 513 C 291 515 281 516 271 517 C 261 518 250 519 240 519 C 231 519 223 518 215 517 C 207 515 198 515 190 515 C 175 515 159 517 141 523 C 123 528 115 540 115 560 C 115 573 119 583 129 591 C 138 599 149 603 162 603 C 163 603 165 603 167 603 C 169 603 170 602 172 602 C 188 598 200 593 209 587 C 218 581 229 574 243 568 C 253 562 264 558 276 554 C 287 550 298 547 310 545 C 312 555 314 566 316 577 C 317 588 318 599 318 610 C 318 618 317 627 316 635 C 315 643 315 651 315 660 C 315 678 317 694 323 710 C 329 725 343 733 365 733 C 377 733 387 729 396 722 C 405 714 410 704 410 692 C 410 690 410 688 410 686 C 410 684 409 682 409 680 C 405 664 400 650 392 640 C 384 629 377 617 370 604 C 364 593 359 582 355 571 C 351 559 347 548 345 537 C 355 535 366 533 376 532 C 386 530 397 530 408 530 C 417 530 426 530 436 532 C 446 533 455 534 465 534 Z" unicode="" />
<glyph horiz-adv-x="423" d="M 212 544 C 238 544 263 538 287 528 C 310 518 330 504 348 486 C 365 468 379 448 389 425 C 399 401 405 376 405 350 C 405 323 399 298 389 275 C 379 251 365 231 348 213 C 330 195 310 181 287 171 C 263 161 238 156 212 156 C 185 156 160 161 136 171 C 112 181 92 195 75 213 C 57 231 43 251 33 275 C 23 298 18 323 18 350 C 18 376 23 401 33 425 C 43 448 57 468 75 486 C 92 504 112 518 136 528 C 160 538 185 544 212 544 Z" unicode="" />
<glyph horiz-adv-x="897" d="M 718 129 C 736 129 752 122 766 109 C 780 95 787 80 787 62 C 787 43 780 27 766 14 C 752 0 736 -6 718 -6 C 699 -6 683 0 670 14 C 657 27 651 43 651 62 C 651 80 657 95 670 109 C 683 122 699 129 718 129 Z M 419 129 C 437 129 453 122 467 109 C 481 95 488 80 488 62 C 488 43 481 27 467 14 C 453 0 437 -6 419 -6 C 400 -6 384 0 371 14 C 358 27 352 43 352 62 C 352 80 358 95 371 109 C 384 122 400 129 419 129 Z M 120 129 C 138 129 154 122 168 109 C 182 95 189 80 189 62 C 189 43 182 27 168 14 C 154 0 138 -6 120 -6 C 101 -6 85 0 72 14 C 59 27 53 43 53 62 C 53 80 59 95 72 109 C 85 122 101 129 120 129 Z" unicode="" />
<glyph horiz-adv-x="1312" d="M 743 702 L 783 676 L 248 -37 L 187 6 L 648 572 L 646 574 C 612 551 577 533 542 519 C 506 505 468 497 427 494 C 423 470 414 446 402 424 C 390 401 375 381 357 364 C 339 346 318 332 295 322 C 272 312 248 307 223 307 C 201 307 180 311 162 320 C 143 328 127 340 114 355 C 101 369 91 386 84 406 C 76 426 73 446 73 468 C 73 496 78 523 89 551 C 100 578 115 602 134 623 C 152 644 174 661 200 674 C 226 687 253 694 283 694 C 305 694 325 689 343 681 C 361 672 376 660 388 646 C 400 631 410 614 417 595 C 424 575 428 555 429 535 C 491 541 549 559 603 587 C 656 615 703 654 743 702 Z M 347 535 L 347 554 C 347 578 343 601 335 622 C 327 642 308 653 279 653 C 267 653 256 650 246 644 C 236 638 231 628 231 615 C 231 601 235 590 243 580 C 251 570 261 562 273 556 C 285 550 297 545 311 541 C 324 537 336 535 347 535 Z M 223 348 C 240 348 255 353 269 363 C 283 373 294 385 304 400 C 314 414 322 430 328 447 C 334 464 338 480 341 495 C 326 497 310 500 294 506 C 277 511 262 518 248 527 C 234 535 223 546 213 560 C 203 573 198 588 198 606 C 182 582 171 553 165 521 C 159 489 156 458 156 430 C 156 408 161 388 171 372 C 181 356 198 348 223 348 Z M 1155 378 C 1177 378 1198 373 1216 364 C 1234 355 1249 343 1262 328 C 1274 312 1284 295 1291 275 C 1297 255 1301 235 1301 214 C 1301 186 1295 159 1285 132 C 1274 105 1259 81 1241 61 C 1223 40 1201 23 1176 10 C 1150 -2 1123 -9 1095 -9 C 1072 -9 1051 -4 1033 4 C 1015 12 999 24 986 39 C 973 53 963 70 956 90 C 948 110 945 130 945 152 C 945 180 950 207 961 235 C 972 262 987 286 1006 307 C 1024 328 1046 345 1072 358 C 1098 371 1125 378 1155 378 Z M 761 378 C 783 378 804 373 822 364 C 840 355 855 343 868 328 C 880 312 890 295 897 275 C 903 255 907 235 907 214 C 907 186 901 159 891 132 C 880 105 865 81 847 61 C 829 40 807 23 782 10 C 756 -2 729 -9 701 -9 C 678 -9 657 -4 639 4 C 621 12 605 24 592 39 C 579 53 569 70 562 90 C 554 110 551 130 551 152 C 551 180 556 207 567 235 C 578 262 593 286 612 307 C 630 328 652 345 678 358 C 704 371 731 378 761 378 Z M 1095 32 C 1117 32 1136 39 1152 55 C 1168 71 1180 90 1190 112 C 1200 134 1207 157 1211 182 C 1215 206 1218 227 1218 245 C 1218 268 1213 289 1205 308 C 1196 327 1178 337 1150 337 C 1126 337 1107 328 1091 312 C 1075 295 1062 275 1053 251 C 1043 227 1037 203 1033 177 C 1029 151 1028 130 1028 112 C 1028 90 1033 71 1043 55 C 1053 39 1071 32 1095 32 Z M 701 32 C 723 32 742 39 758 55 C 774 71 786 90 796 112 C 806 134 813 157 817 182 C 821 206 824 227 824 245 C 824 268 819 289 811 308 C 802 327 784 337 756 337 C 732 337 713 328 697 312 C 681 295 668 275 659 251 C 649 227 643 203 639 177 C 635 151 634 130 634 112 C 634 90 639 71 649 55 C 659 39 677 32 701 32 Z" unicode="" />
<glyph horiz-adv-x="297" d="M 249 398 L 311 398 L 155 219 L 237 50 L 175 50 L 62 192 C 59 195 57 199 55 203 C 53 207 51 212 51 217 C 51 225 53 232 58 239 C 63 245 69 251 76 256 L 249 398 Z" unicode="" />
<glyph horiz-adv-x="322" d="M 257 256 C 259 252 262 248 264 244 C 266 240 267 235 267 231 C 267 223 264 215 259 209 C 254 202 249 196 244 192 L 71 50 L 8 50 L 164 229 L 81 398 L 144 398 L 257 256 Z" unicode="" />
<glyph horiz-adv-x="144" d="M 381 733 L 440 733 L -166 -10 L -226 -10 L 381 733 Z" unicode="" />
<glyph horiz-adv-x="619" d="M 470 695 C 519 695 559 685 590 666 C 621 647 637 624 637 597 C 637 577 631 561 619 548 C 607 534 591 528 573 528 C 555 528 541 532 532 541 C 522 550 518 561 518 575 C 518 584 519 594 521 604 C 523 614 525 623 527 630 C 524 632 517 636 505 640 C 493 644 477 647 459 647 C 413 647 371 626 334 585 C 297 543 268 490 248 425 L 489 425 L 478 380 L 235 380 C 231 366 228 353 226 340 C 224 327 222 314 220 302 L 431 302 L 420 257 L 214 257 C 213 251 212 246 212 241 C 212 235 212 230 212 225 C 212 177 224 136 248 102 C 272 68 311 52 363 52 C 397 52 430 60 462 77 C 494 93 525 119 557 154 L 584 122 C 569 101 552 82 532 66 C 512 50 491 36 469 25 C 447 14 424 6 401 0 C 378 -6 357 -9 337 -9 C 299 -9 265 -3 237 9 C 208 21 184 37 165 58 C 146 79 132 104 122 133 C 112 161 108 192 108 226 C 108 230 108 235 108 241 C 108 247 108 252 109 257 L 29 257 L 40 302 L 114 302 C 116 315 118 328 121 342 C 124 355 127 368 131 380 L 53 380 L 64 425 L 146 425 C 160 463 179 499 201 532 C 223 565 248 594 276 618 C 304 642 334 660 367 674 C 400 688 434 695 470 695 Z" unicode="" />
<glyph horiz-adv-x="500" d="M 517 730 L 524 519 L 487 519 L 480 671 L 425 519 L 403 519 L 349 671 L 341 519 L 305 519 L 316 730 L 371 730 L 415 596 L 460 730 L 517 730 Z M 282 730 L 282 695 L 225 695 L 225 519 L 185 519 L 185 696 L 129 696 L 129 730 L 282 730 Z" unicode="" />
<glyph horiz-adv-x="864" d="M 702 733 L 762 733 L 155 -10 L 96 -10 L 702 733 Z M 290 730 L 329 730 L 241 382 C 239 375 241 370 245 366 C 249 362 256 360 265 359 C 273 357 280 355 286 352 C 292 348 294 343 293 337 L 288 315 L 89 315 L 93 336 C 94 343 99 348 107 352 C 115 355 125 357 135 359 C 145 360 152 362 154 366 C 156 369 159 374 161 382 L 233 657 L 161 657 L 168 691 L 290 730 Z M 676 415 C 716 415 751 405 779 386 C 807 366 822 344 822 318 C 822 291 811 269 790 253 C 768 237 742 225 710 219 C 736 211 758 198 776 181 C 794 164 803 144 803 121 C 803 85 785 54 749 28 C 713 2 669 -10 617 -10 C 573 -10 537 -1 511 17 C 485 35 472 57 472 84 C 472 94 476 104 485 113 C 493 121 504 126 518 126 C 534 126 547 121 555 113 C 563 104 568 95 568 87 C 568 80 566 74 562 69 C 558 63 553 58 548 54 C 554 48 563 43 574 39 C 585 35 598 34 613 34 C 632 34 648 37 662 43 C 675 49 686 57 694 67 C 702 77 707 87 711 99 C 714 111 716 122 716 133 C 716 154 706 170 686 182 C 666 193 636 199 594 200 L 601 241 C 651 241 686 247 706 261 C 726 274 736 294 736 322 C 736 335 729 347 716 357 C 703 367 686 372 665 372 C 655 372 645 371 637 369 C 628 367 621 365 617 363 C 619 359 622 354 624 350 C 626 346 628 341 628 335 C 628 325 623 317 615 310 C 607 303 597 300 585 300 C 572 300 561 303 551 310 C 541 317 537 328 537 342 C 537 352 541 362 549 371 C 557 380 567 388 581 394 C 594 400 609 405 626 409 C 642 413 659 415 676 415 Z" unicode="" />
</font>
</defs>
</svg>
