<?xml version="1.0" encoding="utf-8" ?><svg version="1.1" xmlns = 'http://www.w3.org/2000/svg'><defs><font id='web' horiz-adv-x="1000">
<font-face font-family="web" descent="-455" cap-height="1495" units-per-em="2048" bbox="-233,-455,2646,2013" x-height="999" ascent="2021" />
<missing-glyph horiz-adv-x="1024" d="M 906 16 L 906 1032 L 118 1032 L 118 16 L 906 16 Z M 102 1048 L 922 1048 L 922 0 L 102 0 L 102 1048 Z" /><glyph horiz-adv-x="434" d="" unicode=" " />
<glyph horiz-adv-x="600" d="M 846 1374 C 846 1349 842 1323 835 1295 C 828 1267 810 1221 780 1157 C 732 1051 696 969 672 911 C 648 853 613 760 567 633 C 557 605 545 574 532 539 C 519 504 510 480 506 467 L 403 494 C 433 634 458 757 476 863 C 494 969 506 1079 512 1194 C 516 1271 527 1344 547 1413 C 567 1481 614 1516 690 1516 C 734 1516 771 1502 801 1476 C 831 1450 846 1416 846 1374 Z M 535 143 C 535 98 518 60 486 28 C 454 -4 415 -20 371 -20 C 326 -20 288 -4 256 28 C 224 60 209 98 209 143 C 209 187 224 225 256 257 C 288 289 326 305 371 305 C 415 305 454 289 486 257 C 518 225 535 187 535 143 Z" unicode="!" />
<glyph horiz-adv-x="895" d="M 758 1384 C 758 1375 756 1362 753 1344 C 749 1326 745 1313 741 1305 L 520 850 L 430 870 L 485 1350 C 492 1408 508 1451 534 1477 C 560 1503 594 1516 637 1516 C 677 1516 708 1504 728 1480 C 748 1456 758 1424 758 1384 Z M 1141 1384 C 1141 1375 1139 1362 1136 1344 C 1132 1326 1128 1313 1124 1305 L 903 850 L 813 870 L 868 1350 C 875 1408 891 1451 917 1477 C 943 1503 977 1516 1020 1516 C 1060 1516 1091 1504 1111 1480 C 1131 1456 1141 1424 1141 1384 Z" unicode="&#x22;" />
<glyph horiz-adv-x="1528" d="M 1313 1044 L 1616 1044 L 1550 838 L 1247 838 L 1167 571 L 1479 571 L 1413 365 L 1102 365 L 987 -18 L 866 -18 L 981 365 L 737 365 L 623 -18 L 502 -18 L 616 365 L 317 365 L 383 571 L 682 571 L 762 838 L 455 838 L 520 1044 L 827 1044 L 936 1403 L 1057 1403 L 948 1044 L 1192 1044 L 1300 1403 L 1421 1403 L 1313 1044 Z M 1047 571 L 1126 838 L 883 838 L 803 571 L 1047 571 Z" unicode="#" />
<glyph horiz-adv-x="1143" d="M 1294 1120 C 1294 1072 1281 1037 1255 1016 C 1229 995 1201 985 1171 985 C 1137 985 1105 996 1076 1020 C 1046 1043 1032 1073 1032 1110 C 1032 1122 1034 1137 1040 1154 C 1045 1171 1057 1195 1077 1225 C 1065 1231 1052 1237 1038 1243 C 1024 1249 1006 1255 983 1260 L 866 807 C 957 755 1030 699 1085 639 C 1139 579 1167 504 1167 414 C 1167 292 1125 191 1041 109 C 957 27 826 -17 649 -27 L 582 -283 L 477 -283 L 545 -23 C 429 -11 340 23 278 82 C 215 141 184 204 184 272 C 184 302 195 333 218 364 C 241 394 278 410 330 410 C 380 410 415 395 437 366 C 458 336 469 308 469 281 C 469 255 464 232 455 213 C 446 193 433 174 416 156 C 439 141 462 129 485 121 C 508 112 539 105 578 100 L 707 596 C 607 655 535 715 492 775 C 449 835 428 909 428 997 C 428 1098 472 1188 562 1267 C 651 1346 767 1386 911 1386 L 940 1493 L 1044 1493 L 1014 1378 C 1101 1364 1169 1332 1219 1283 C 1269 1233 1294 1179 1294 1120 Z M 956 324 C 956 368 943 408 919 444 C 894 480 855 517 801 555 L 680 94 C 772 102 841 127 887 169 C 933 211 956 262 956 324 Z M 774 856 L 881 1268 C 806 1256 748 1233 707 1197 C 665 1161 645 1115 645 1061 C 645 1026 653 993 669 961 C 685 929 720 894 774 856 Z" unicode="$" />
<glyph horiz-adv-x="1774" d="M 1602 1407 L 1696 1331 L 569 -88 L 424 23 L 1368 1090 L 1360 1100 C 1310 1068 1258 1038 1204 1012 C 1149 986 1077 966 987 952 C 962 855 913 768 839 692 C 765 616 671 578 557 578 C 466 578 401 610 363 674 C 324 738 305 804 305 870 C 305 988 344 1103 423 1213 C 501 1323 607 1378 741 1378 C 823 1378 887 1352 933 1302 C 978 1251 1001 1182 1001 1096 C 1001 1088 1000 1081 1000 1074 C 1000 1066 999 1059 999 1053 C 1130 1073 1245 1116 1343 1180 C 1441 1244 1528 1319 1602 1407 Z M 1694 563 C 1694 597 1688 626 1676 649 C 1664 672 1641 684 1608 684 C 1556 684 1517 661 1490 615 C 1463 569 1439 517 1419 461 C 1411 439 1399 401 1385 347 C 1371 293 1364 243 1364 197 C 1364 163 1370 135 1384 113 C 1397 91 1421 80 1456 80 C 1498 80 1534 103 1564 149 C 1594 195 1619 247 1640 303 C 1648 324 1659 361 1673 414 C 1687 467 1694 517 1694 563 Z M 788 958 C 710 980 658 1010 632 1048 C 606 1085 590 1124 584 1165 C 572 1140 563 1120 555 1105 C 547 1089 541 1073 537 1057 C 529 1034 519 995 505 940 C 491 885 485 835 485 791 C 485 755 492 726 507 706 C 522 686 547 676 582 676 C 630 676 672 706 708 768 C 744 829 771 892 788 958 Z M 821 1169 C 821 1199 814 1226 801 1250 C 788 1274 765 1286 731 1286 C 707 1286 687 1278 670 1263 C 653 1247 645 1226 645 1200 C 645 1176 655 1148 677 1116 C 699 1084 741 1063 803 1055 C 807 1076 811 1096 815 1114 C 819 1132 821 1151 821 1169 Z M 1878 481 C 1878 366 1838 254 1760 145 C 1681 36 1572 -18 1432 -18 C 1340 -18 1276 13 1238 76 C 1200 139 1182 206 1182 276 C 1182 393 1221 507 1299 617 C 1377 727 1482 782 1616 782 C 1705 782 1771 754 1814 700 C 1856 646 1878 573 1878 481 Z" unicode="%" />
<glyph horiz-adv-x="1642" d="M 1249 821 L 1769 821 L 1753 745 C 1749 728 1742 716 1733 710 C 1724 704 1701 694 1663 682 C 1631 672 1603 654 1579 628 C 1555 602 1512 550 1450 471 C 1419 431 1385 391 1348 352 C 1310 313 1271 273 1229 231 C 1243 216 1262 200 1286 183 C 1310 166 1347 158 1399 158 C 1449 158 1493 165 1530 181 C 1567 196 1601 212 1632 229 L 1671 170 C 1673 165 1676 159 1680 151 C 1684 143 1686 135 1686 127 C 1686 92 1641 59 1553 27 C 1465 -4 1374 -20 1282 -20 C 1220 -20 1171 -11 1133 5 C 1095 22 1054 46 1010 76 C 946 46 888 22 836 5 C 784 -11 722 -20 649 -20 C 505 -20 393 19 314 99 C 234 179 195 271 195 375 C 195 503 239 608 327 691 C 415 773 543 842 711 897 C 704 943 699 981 697 1011 C 695 1041 694 1068 694 1092 C 694 1224 734 1328 814 1403 C 894 1478 990 1516 1100 1516 C 1202 1516 1283 1487 1343 1429 C 1403 1371 1434 1303 1434 1223 C 1434 1125 1395 1044 1317 978 C 1239 912 1132 859 995 821 C 1008 757 1026 683 1049 599 C 1072 515 1105 434 1147 358 C 1207 415 1254 464 1289 504 C 1323 544 1341 585 1341 627 C 1341 645 1335 659 1324 667 C 1313 675 1301 682 1288 688 C 1259 700 1242 709 1236 714 C 1230 718 1227 727 1227 739 C 1227 745 1227 752 1229 759 C 1231 765 1232 770 1233 772 L 1249 821 Z M 924 190 C 891 243 857 310 823 391 C 789 472 758 588 731 739 C 662 719 605 680 560 622 C 514 564 492 487 492 393 C 492 299 519 230 575 185 C 631 139 685 117 737 117 C 779 117 816 125 846 141 C 876 157 902 174 924 190 Z M 1229 1233 C 1229 1269 1218 1304 1196 1338 C 1174 1372 1142 1389 1102 1389 C 1050 1389 1010 1366 981 1321 C 952 1275 938 1225 938 1169 C 938 1136 940 1101 946 1065 C 952 1028 958 992 965 958 C 1052 980 1118 1016 1162 1066 C 1206 1115 1229 1171 1229 1233 Z" unicode="&#x26;" />
<glyph horiz-adv-x="512" d="M 758 1384 C 758 1375 756 1362 753 1344 C 749 1326 745 1313 741 1305 L 520 850 L 430 870 L 485 1350 C 492 1408 508 1451 534 1477 C 560 1503 594 1516 637 1516 C 677 1516 708 1504 728 1480 C 748 1456 758 1424 758 1384 Z" unicode="'" />
<glyph horiz-adv-x="741" d="M 1024 1516 L 1065 1464 C 980 1381 907 1301 846 1225 C 784 1148 726 1033 670 881 C 622 753 584 628 555 505 C 526 382 512 252 512 115 C 512 21 525 -70 551 -160 C 577 -249 597 -316 612 -360 L 551 -391 C 495 -299 435 -187 370 -54 C 304 78 272 225 272 387 C 272 454 287 559 319 701 C 351 843 420 984 526 1122 C 597 1215 679 1294 773 1360 C 867 1425 950 1477 1024 1516 Z" unicode="(" />
<glyph horiz-adv-x="741" d="M 786 737 C 786 669 770 565 738 423 C 706 281 638 140 532 2 C 460 -90 378 -169 286 -235 C 193 -300 110 -352 37 -391 L -4 -340 C 82 -257 155 -177 215 -100 C 275 -23 333 91 389 244 C 435 372 473 498 503 620 C 532 742 547 872 547 1010 C 547 1103 534 1194 509 1284 C 484 1373 463 1440 446 1485 L 508 1516 C 562 1424 622 1311 688 1178 C 753 1045 786 898 786 737 Z" unicode=")" />
<glyph horiz-adv-x="1139" d="M 1290 895 C 1290 877 1283 858 1269 837 C 1255 815 1228 805 1188 805 C 1177 805 1160 807 1138 813 C 1115 818 1093 835 1073 864 C 1039 910 1016 941 1003 956 C 989 970 966 988 932 1010 C 932 986 933 963 935 939 C 937 915 943 891 954 868 C 973 825 985 797 990 783 C 994 769 997 753 997 735 C 997 707 987 682 968 658 C 949 634 925 623 897 623 C 873 623 850 633 828 653 C 806 673 795 699 795 733 C 795 751 798 770 805 788 C 812 806 824 834 842 872 C 854 898 861 923 863 949 C 865 974 866 994 866 1010 C 844 1004 826 997 810 987 C 794 977 774 956 752 924 C 728 891 706 863 684 840 C 662 816 634 805 598 805 C 570 805 546 813 526 831 C 506 849 496 872 496 901 C 496 919 504 942 520 968 C 536 994 567 1010 612 1016 C 671 1024 711 1031 733 1035 C 755 1039 788 1050 834 1069 C 788 1086 755 1097 733 1102 C 711 1107 670 1114 610 1122 C 570 1128 541 1143 523 1167 C 505 1190 496 1213 496 1237 C 496 1265 506 1288 526 1306 C 546 1324 570 1333 598 1333 C 634 1333 662 1321 684 1299 C 706 1276 728 1248 752 1214 C 774 1181 794 1160 810 1150 C 826 1140 844 1133 866 1128 C 866 1140 865 1160 863 1188 C 861 1215 854 1241 842 1266 C 822 1308 810 1337 804 1353 C 798 1369 795 1387 795 1407 C 795 1436 805 1461 826 1483 C 847 1505 871 1516 899 1516 C 924 1516 947 1504 967 1482 C 987 1459 997 1432 997 1401 C 997 1383 994 1368 990 1354 C 985 1340 973 1312 954 1270 C 943 1246 937 1223 935 1199 C 933 1175 932 1152 932 1128 C 966 1149 989 1167 1003 1181 C 1016 1195 1039 1226 1073 1274 C 1085 1290 1101 1304 1119 1316 C 1137 1327 1160 1333 1188 1333 C 1226 1333 1253 1322 1268 1302 C 1282 1281 1290 1261 1290 1243 C 1290 1211 1278 1184 1255 1161 C 1232 1138 1206 1126 1178 1124 C 1128 1121 1088 1117 1057 1112 C 1025 1106 993 1092 961 1069 C 993 1045 1026 1031 1058 1026 C 1090 1020 1130 1016 1178 1014 C 1205 1012 1230 1000 1254 978 C 1278 956 1290 929 1290 895 Z" unicode="*" />
<glyph horiz-adv-x="1528" d="M 1505 686 L 1505 512 L 1044 512 L 1044 51 L 870 51 L 870 512 L 410 512 L 410 686 L 870 686 L 870 1147 L 1044 1147 L 1044 686 L 1505 686 Z" unicode="+" />
<glyph horiz-adv-x="578" d="M 535 102 C 535 55 525 9 507 -34 C 488 -78 462 -122 430 -164 C 389 -214 348 -252 306 -276 C 264 -300 224 -320 186 -338 L 143 -246 C 223 -208 276 -166 302 -122 C 327 -78 343 -44 350 -20 C 328 -12 300 2 265 24 C 230 46 213 85 213 141 C 213 188 230 227 264 258 C 298 289 334 305 371 305 C 419 305 458 285 489 247 C 519 208 535 160 535 102 Z" unicode="," />
<glyph horiz-adv-x="596" d="M 246 629 L 692 629 L 629 391 L 182 391 L 246 629 Z" unicode="-" />
<glyph horiz-adv-x="578" d="M 532 143 C 532 98 516 60 484 28 C 452 -4 415 -20 371 -20 C 326 -20 287 -4 255 28 C 223 60 207 98 207 143 C 207 187 223 225 255 257 C 287 289 326 305 371 305 C 415 305 452 289 484 257 C 516 225 532 187 532 143 Z" unicode="." />
<glyph horiz-adv-x="823" d="M 975 1495 L 1155 1495 L 84 -389 L -96 -389 L 975 1495 Z" unicode="/" />
<glyph horiz-adv-x="1133" d="M 1032 1065 C 1032 1119 1021 1165 1001 1203 C 981 1241 945 1260 895 1260 C 820 1260 760 1220 714 1140 C 668 1060 629 959 596 836 C 584 794 566 717 540 605 C 514 493 502 396 502 313 C 502 261 512 215 533 175 C 553 135 591 115 645 115 C 707 115 763 157 814 242 C 864 326 906 426 938 541 C 950 583 968 658 994 768 C 1019 877 1032 976 1032 1065 Z M 1284 893 C 1284 657 1221 445 1095 259 C 969 73 810 -20 618 -20 C 492 -20 399 28 339 125 C 279 221 250 341 250 483 C 250 721 312 932 437 1117 C 562 1302 718 1395 905 1395 C 1036 1395 1132 1349 1193 1259 C 1253 1169 1284 1047 1284 893 Z" unicode="0" />
<glyph horiz-adv-x="723" d="M 686 1393 L 885 1393 L 588 252 C 586 246 584 236 582 224 C 580 211 580 203 580 199 C 580 177 586 162 598 154 C 610 146 625 139 643 133 C 664 125 678 116 684 108 C 690 100 694 92 694 86 C 694 79 693 73 691 67 C 689 61 686 53 684 45 L 670 0 L 111 0 L 121 49 C 125 74 131 91 138 101 C 144 111 163 119 193 125 C 197 125 212 129 236 137 C 260 144 278 155 289 170 C 293 176 299 191 306 215 C 313 238 320 263 328 291 L 559 1169 L 365 1169 L 387 1257 C 389 1270 396 1279 408 1285 C 419 1290 448 1301 494 1319 L 686 1393 Z" unicode="1" />
<glyph horiz-adv-x="1040" d="M 1212 1040 C 1212 983 1196 920 1166 851 C 1135 782 1071 711 975 637 C 921 595 838 536 726 462 C 614 388 503 310 393 229 L 799 229 C 824 229 846 232 865 238 C 884 244 900 263 913 293 C 927 322 938 340 946 347 C 953 353 965 356 983 354 L 1057 346 L 963 0 L 74 0 L 96 94 C 103 126 109 146 115 156 C 121 166 141 186 176 217 C 187 227 211 249 249 282 C 286 314 331 352 383 395 C 429 431 469 463 503 491 C 537 518 577 550 621 586 C 688 640 757 709 829 793 C 900 877 936 969 936 1069 C 936 1119 918 1162 884 1200 C 850 1238 803 1257 743 1257 C 707 1257 674 1252 644 1242 C 614 1232 583 1215 549 1192 C 566 1175 581 1156 594 1136 C 607 1115 614 1091 614 1065 C 614 1026 600 992 572 963 C 544 934 509 920 469 920 C 426 920 392 935 366 965 C 340 995 328 1028 328 1065 C 328 1145 369 1220 452 1290 C 535 1360 646 1395 784 1395 C 901 1395 1002 1364 1086 1303 C 1170 1242 1212 1154 1212 1040 Z" unicode="2" />
<glyph horiz-adv-x="1057" d="M 1206 1077 C 1206 964 1165 884 1084 837 C 1002 790 917 756 827 735 C 898 703 963 664 1021 616 C 1079 568 1108 499 1108 408 C 1108 275 1054 170 947 94 C 840 18 713 -20 565 -20 C 449 -20 347 2 259 48 C 171 93 127 161 127 252 C 127 292 140 324 167 350 C 193 376 226 389 264 389 C 300 389 333 377 361 353 C 389 329 403 292 403 244 C 403 228 401 214 399 202 C 396 189 393 176 389 162 C 411 148 435 137 459 129 C 483 121 511 117 543 117 C 642 117 714 152 759 223 C 804 293 827 378 827 477 C 827 511 816 545 796 578 C 776 611 752 634 725 647 C 694 661 666 671 640 676 C 614 680 579 684 537 686 L 573 815 C 664 817 727 824 762 836 C 797 848 826 865 850 889 C 881 920 902 953 913 989 C 924 1024 930 1062 930 1102 C 930 1152 915 1190 886 1216 C 857 1242 820 1255 774 1255 C 748 1255 725 1251 703 1245 C 681 1238 659 1231 639 1225 C 643 1209 646 1198 648 1190 C 650 1182 651 1174 651 1165 C 651 1131 638 1102 614 1078 C 590 1054 560 1042 524 1042 C 483 1042 451 1055 428 1082 C 404 1109 393 1137 393 1167 C 393 1235 431 1290 508 1332 C 584 1374 670 1395 766 1395 C 894 1395 1000 1366 1082 1309 C 1164 1252 1206 1175 1206 1077 Z" unicode="3" />
<glyph horiz-adv-x="1092" d="M 1049 1393 L 1235 1393 L 1008 512 L 1194 512 L 1157 369 L 965 369 L 934 231 C 932 224 930 215 928 204 C 926 192 926 184 926 180 C 926 165 931 154 941 146 C 951 138 967 129 989 119 C 996 115 1002 110 1006 104 C 1010 98 1012 92 1012 86 C 1012 80 1010 72 1008 63 C 1006 53 1003 45 1001 37 L 991 0 L 494 0 L 504 49 C 508 73 514 91 521 102 C 527 112 545 120 575 125 C 601 129 619 136 630 148 C 641 159 652 185 664 225 L 705 369 L 150 369 L 195 545 L 1049 1393 Z M 748 512 L 895 1042 L 891 1047 L 360 512 L 748 512 Z" unicode="4" />
<glyph horiz-adv-x="1057" d="M 1225 1458 L 1296 1458 L 1194 1141 L 621 1141 L 496 795 C 554 820 602 839 640 853 C 678 867 726 874 784 874 C 907 874 998 839 1058 770 C 1117 701 1147 618 1147 520 C 1147 389 1094 266 990 152 C 886 37 744 -20 565 -20 C 451 -20 354 5 274 55 C 194 105 154 172 154 258 C 154 288 165 320 189 352 C 212 384 248 401 297 401 C 337 401 370 387 395 361 C 419 334 432 302 432 266 C 432 245 429 227 423 212 C 417 197 405 178 389 156 C 414 144 440 134 468 126 C 495 117 525 113 559 113 C 647 113 721 146 780 213 C 838 280 868 367 868 473 C 868 539 849 592 811 633 C 773 673 713 694 633 694 C 590 694 552 688 520 677 C 487 665 445 646 393 618 L 319 698 L 569 1374 L 1085 1374 C 1111 1374 1130 1377 1140 1385 C 1150 1393 1163 1409 1178 1434 C 1182 1442 1187 1448 1192 1452 C 1197 1456 1208 1458 1225 1458 Z" unicode="5" />
<glyph horiz-adv-x="1090" d="M 1286 1163 C 1286 1109 1270 1069 1239 1045 C 1208 1020 1177 1008 1147 1008 C 1109 1008 1075 1021 1045 1048 C 1015 1074 1001 1109 1001 1151 C 1001 1168 1003 1184 1008 1198 C 1012 1212 1020 1227 1030 1245 C 1017 1254 1004 1260 990 1263 C 976 1266 961 1268 946 1268 C 918 1268 878 1255 826 1230 C 774 1205 726 1150 682 1065 C 667 1036 651 1001 634 959 C 617 917 597 855 575 772 C 625 798 670 819 712 833 C 754 847 800 854 850 854 C 946 854 1026 819 1088 750 C 1150 681 1182 595 1182 492 C 1182 359 1132 240 1034 136 C 936 32 814 -20 668 -20 C 542 -20 442 26 366 118 C 290 210 252 326 252 465 C 252 669 318 875 452 1083 C 586 1291 764 1395 987 1395 C 1074 1395 1146 1373 1202 1329 C 1258 1285 1286 1230 1286 1163 Z M 905 516 C 905 564 890 606 862 644 C 834 681 790 700 731 700 C 690 700 653 691 619 673 C 585 655 558 639 537 625 C 529 602 522 576 515 546 C 507 516 502 490 498 467 C 493 445 490 422 488 396 C 486 370 485 346 485 324 C 485 260 501 210 533 174 C 565 137 607 119 657 119 C 736 119 797 161 840 246 C 883 331 905 421 905 516 Z" unicode="6" />
<glyph horiz-adv-x="920" d="M 629 1374 L 1266 1374 L 1223 1233 C 1114 1119 1004 985 893 832 C 781 679 704 525 662 371 C 654 346 644 304 632 246 C 619 187 610 148 606 129 C 598 95 581 61 557 29 C 533 -3 497 -20 451 -20 C 408 -20 374 -4 348 28 C 322 60 309 98 309 143 C 309 205 326 270 360 340 C 394 409 429 471 465 526 C 515 605 573 684 639 764 C 705 844 819 973 981 1151 L 545 1151 C 518 1151 500 1148 490 1144 C 480 1139 473 1132 467 1124 C 436 1081 413 1053 399 1040 C 384 1027 364 1024 340 1030 L 291 1042 L 412 1397 C 439 1390 469 1384 502 1380 C 534 1376 577 1374 629 1374 Z" unicode="7" />
<glyph horiz-adv-x="1110" d="M 1237 1073 C 1237 976 1207 904 1148 858 C 1089 812 1028 777 965 754 C 1038 702 1094 649 1133 597 C 1172 544 1192 481 1192 408 C 1192 293 1144 192 1050 106 C 955 20 832 -23 682 -23 C 543 -23 432 13 348 85 C 264 157 223 244 223 344 C 223 428 254 503 316 568 C 378 633 465 681 578 711 C 530 753 491 797 460 845 C 429 893 414 948 414 1012 C 414 1120 455 1212 539 1286 C 623 1360 725 1397 846 1397 C 962 1397 1056 1367 1128 1307 C 1200 1247 1237 1169 1237 1073 Z M 948 330 C 948 398 924 453 876 495 C 828 537 764 585 684 637 C 601 602 540 559 500 509 C 460 458 440 397 440 326 C 440 256 467 202 522 164 C 576 126 642 108 719 111 C 791 113 847 136 887 181 C 927 226 948 276 948 330 Z M 1044 1081 C 1044 1140 1023 1187 983 1222 C 942 1256 894 1274 840 1274 C 784 1274 737 1255 699 1218 C 661 1181 643 1140 643 1096 C 643 1030 663 977 703 938 C 743 899 796 859 862 819 C 942 855 993 897 1013 945 C 1033 993 1044 1038 1044 1081 Z" unicode="8" />
<glyph horiz-adv-x="1090" d="M 1225 909 C 1225 704 1158 498 1024 291 C 890 83 712 -20 489 -20 C 401 -20 330 1 274 45 C 218 88 190 143 190 211 C 190 265 206 304 239 329 C 271 354 303 367 334 367 C 372 367 405 354 433 328 C 461 302 475 269 475 227 C 475 210 472 193 468 177 C 463 161 457 144 451 127 C 461 119 473 113 487 110 C 501 107 515 106 530 106 C 558 106 598 118 650 142 C 702 166 751 222 795 309 C 809 337 824 372 842 414 C 859 455 879 518 903 604 C 852 576 806 555 764 541 C 722 527 677 520 627 520 C 524 520 443 554 384 623 C 324 692 295 779 295 883 C 295 1014 346 1132 450 1237 C 554 1342 679 1395 825 1395 C 963 1395 1064 1348 1128 1256 C 1192 1163 1225 1047 1225 909 Z M 991 1061 C 991 1124 975 1172 943 1205 C 911 1238 871 1255 821 1255 C 741 1255 680 1213 636 1130 C 592 1046 571 957 571 862 C 571 814 585 770 615 732 C 644 693 688 674 748 674 C 788 674 824 682 857 700 C 889 718 916 734 938 750 C 944 772 952 798 960 828 C 968 857 975 883 979 907 C 983 928 986 953 988 983 C 990 1012 991 1038 991 1061 Z" unicode="9" />
<glyph horiz-adv-x="647" d="M 567 143 C 567 98 551 60 519 28 C 487 -4 450 -20 406 -20 C 360 -20 322 -4 290 28 C 258 60 242 98 242 143 C 242 187 258 225 290 257 C 322 289 360 305 406 305 C 450 305 487 289 519 257 C 551 225 567 187 567 143 Z M 713 838 C 713 793 697 754 665 722 C 633 690 595 674 551 674 C 506 674 467 690 435 722 C 403 754 387 793 387 838 C 387 882 403 919 435 951 C 467 983 506 999 551 999 C 595 999 633 983 665 951 C 697 919 713 882 713 838 Z" unicode=":" />
<glyph horiz-adv-x="647" d="M 567 102 C 567 55 557 9 539 -34 C 521 -78 495 -122 463 -164 C 422 -214 381 -252 339 -276 C 297 -300 257 -320 219 -338 L 176 -246 C 256 -208 309 -166 335 -122 C 360 -78 376 -44 383 -20 C 361 -12 333 2 298 24 C 263 46 246 85 246 141 C 246 188 263 227 297 258 C 331 289 367 305 403 305 C 451 305 490 285 521 247 C 551 208 567 160 567 102 Z M 713 838 C 713 793 697 754 665 722 C 633 690 595 674 551 674 C 506 674 467 690 435 722 C 403 754 387 793 387 838 C 387 882 403 919 435 951 C 467 983 506 999 551 999 C 595 999 633 983 665 951 C 697 919 713 882 713 838 Z" unicode=";" />
<glyph horiz-adv-x="1528" d="M 1454 233 L 1454 39 L 418 522 L 418 674 L 1454 1157 L 1454 963 L 633 598 L 1454 233 Z" unicode="&#x3C;" />
<glyph horiz-adv-x="1528" d="M 1485 498 L 1485 324 L 430 324 L 430 498 L 1485 498 Z M 1485 874 L 1485 700 L 430 700 L 430 874 L 1485 874 Z" unicode="=" />
<glyph horiz-adv-x="1528" d="M 1503 674 L 1503 522 L 467 39 L 467 233 L 1288 598 L 467 963 L 467 1157 L 1503 674 Z" unicode="&#x3E;" />
<glyph horiz-adv-x="930" d="M 1133 1198 C 1133 1116 1109 1052 1063 1004 C 1017 956 950 899 864 834 C 783 774 727 716 696 660 C 664 604 639 550 621 500 L 506 510 C 512 588 531 654 561 707 C 591 760 632 817 684 879 C 736 939 780 996 817 1050 C 853 1104 872 1165 872 1235 C 872 1285 860 1324 837 1351 C 814 1377 789 1391 762 1391 C 747 1391 734 1388 724 1383 C 713 1377 703 1372 694 1368 C 700 1358 706 1347 710 1336 C 714 1325 717 1310 717 1292 C 717 1247 703 1213 675 1190 C 647 1166 615 1155 580 1155 C 537 1155 504 1168 480 1196 C 456 1223 444 1252 444 1284 C 444 1373 485 1434 567 1467 C 649 1499 720 1516 782 1516 C 886 1516 970 1484 1035 1422 C 1100 1359 1133 1284 1133 1198 Z M 653 143 C 653 98 637 60 605 28 C 573 -4 534 -20 489 -20 C 444 -20 406 -4 375 28 C 343 60 328 98 328 143 C 328 187 343 225 375 257 C 406 289 444 305 489 305 C 534 305 573 289 605 257 C 637 225 653 187 653 143 Z" unicode="?" />
<glyph horiz-adv-x="1970" d="M 2009 680 C 2009 502 1952 342 1840 201 C 1727 60 1579 -10 1395 -10 C 1337 -10 1296 7 1274 41 C 1252 75 1237 104 1229 129 C 1201 98 1164 67 1118 36 C 1071 5 1018 -10 958 -10 C 878 -10 816 17 773 72 C 730 127 709 198 709 285 C 709 445 763 582 873 697 C 983 812 1107 870 1245 870 C 1289 870 1325 865 1351 855 C 1377 845 1397 833 1413 821 C 1427 811 1441 802 1453 795 C 1465 787 1478 784 1491 784 C 1504 784 1516 787 1527 795 C 1537 803 1566 823 1612 856 C 1614 858 1618 862 1624 866 C 1630 870 1637 872 1647 872 C 1655 872 1660 870 1662 866 C 1664 862 1665 858 1665 852 C 1665 848 1662 837 1658 820 C 1653 802 1649 789 1647 780 L 1499 260 C 1494 241 1490 222 1486 204 C 1482 186 1481 172 1481 164 C 1481 152 1485 143 1494 137 C 1503 130 1510 127 1516 127 C 1612 127 1698 182 1772 292 C 1846 402 1884 532 1884 680 C 1884 822 1832 943 1730 1044 C 1628 1145 1484 1196 1300 1196 C 1060 1196 861 1108 701 934 C 541 759 461 553 461 317 C 461 124 521 -30 642 -147 C 762 -263 923 -322 1124 -322 C 1239 -322 1346 -306 1445 -276 C 1544 -245 1641 -200 1737 -141 L 1778 -233 C 1677 -301 1570 -354 1458 -390 C 1345 -426 1232 -444 1120 -444 C 863 -444 657 -371 502 -226 C 347 -81 270 104 270 332 C 270 588 369 816 569 1014 C 768 1212 1006 1311 1284 1311 C 1502 1311 1678 1252 1810 1134 C 1942 1016 2009 865 2009 680 Z M 1362 647 C 1362 666 1354 688 1338 714 C 1322 739 1293 752 1251 752 C 1167 752 1097 704 1041 610 C 984 516 956 422 956 330 C 956 285 966 248 986 218 C 1006 188 1036 174 1075 174 C 1117 174 1153 183 1183 203 C 1213 222 1241 245 1266 272 L 1352 592 C 1352 596 1354 605 1357 617 C 1360 629 1362 639 1362 647 Z" unicode="@" />
<glyph horiz-adv-x="1436" d="M 1479 78 C 1479 73 1478 66 1476 58 C 1474 49 1472 41 1470 35 L 1462 0 L 936 0 L 948 59 C 950 69 952 77 955 82 C 958 87 962 91 967 94 C 981 103 997 114 1017 126 C 1036 138 1047 146 1051 150 C 1055 152 1058 156 1060 162 C 1062 168 1063 174 1063 180 C 1063 184 1061 193 1059 207 C 1057 221 1055 231 1055 238 L 1032 369 L 481 369 L 385 217 C 382 213 379 206 375 196 C 371 186 369 178 369 172 C 369 157 374 146 384 138 C 394 130 402 125 410 123 C 424 117 435 110 443 104 C 451 98 455 90 455 80 C 455 76 454 71 453 66 C 452 61 451 57 451 55 L 438 0 L -12 0 L 2 63 C 6 85 14 100 26 107 C 38 113 50 118 63 121 C 89 127 109 137 121 149 C 133 161 154 188 184 231 L 860 1210 L 821 1411 L 1001 1493 C 1020 1501 1034 1507 1044 1511 C 1054 1514 1062 1516 1069 1516 C 1083 1516 1093 1511 1098 1502 C 1103 1493 1109 1471 1116 1436 L 1337 291 C 1350 221 1361 179 1371 164 C 1380 149 1395 139 1417 133 C 1447 124 1465 115 1471 107 C 1476 98 1479 88 1479 78 Z M 582 512 L 1004 512 L 911 1014 L 582 512 Z" unicode="A" />
<glyph horiz-adv-x="1331" d="M 1483 1159 C 1483 1045 1435 954 1341 885 C 1247 815 1121 776 965 766 L 965 762 C 1096 743 1198 703 1270 642 C 1342 580 1378 500 1378 401 C 1378 297 1331 205 1238 123 C 1144 41 1013 0 844 0 L 80 0 L 90 57 C 94 80 99 96 105 105 C 111 113 129 123 160 133 C 181 139 197 149 209 162 C 220 175 231 201 242 240 L 496 1214 C 500 1228 504 1245 508 1264 C 512 1283 514 1300 514 1315 C 514 1325 510 1334 503 1341 C 495 1347 482 1355 463 1364 C 450 1370 440 1374 434 1378 C 427 1382 424 1388 424 1397 C 424 1401 424 1406 426 1412 C 428 1418 429 1423 430 1427 L 449 1495 L 1012 1495 C 1158 1495 1273 1463 1357 1401 C 1441 1338 1483 1257 1483 1159 Z M 1085 469 C 1085 536 1056 591 1000 634 C 944 676 829 698 657 698 L 516 152 L 725 152 C 795 152 851 161 893 179 C 935 197 967 216 989 238 C 1019 267 1043 303 1060 345 C 1076 387 1085 428 1085 469 Z M 1190 1143 C 1190 1209 1167 1261 1122 1297 C 1077 1333 979 1352 827 1352 L 696 842 C 772 842 837 845 891 850 C 945 854 992 869 1034 893 C 1080 919 1118 954 1147 997 C 1175 1040 1190 1089 1190 1143 Z" unicode="B" />
<glyph horiz-adv-x="1309" d="M 1485 1425 L 1593 1425 L 1487 1036 L 1393 1036 C 1374 1036 1363 1043 1360 1058 C 1357 1072 1356 1085 1356 1096 C 1356 1119 1355 1141 1353 1163 C 1351 1185 1345 1206 1337 1227 C 1317 1276 1285 1312 1242 1336 C 1199 1360 1150 1372 1096 1372 C 920 1372 782 1280 681 1098 C 580 915 530 726 530 530 C 530 442 554 361 603 286 C 652 211 731 174 840 174 C 921 174 995 191 1063 227 C 1131 263 1200 317 1272 391 L 1331 324 C 1333 320 1337 315 1343 308 C 1349 300 1352 293 1352 285 C 1337 225 1273 160 1160 88 C 1046 16 925 -20 797 -20 C 644 -20 512 34 402 143 C 291 251 236 395 236 573 C 236 815 312 1032 466 1226 C 620 1419 824 1516 1079 1516 C 1158 1516 1224 1505 1277 1484 C 1329 1463 1379 1435 1427 1399 L 1485 1425 Z" unicode="C" />
<glyph horiz-adv-x="1473" d="M 1614 870 C 1614 706 1581 565 1517 448 C 1452 330 1374 236 1284 164 C 1229 120 1158 81 1070 49 C 982 16 886 0 782 0 L 80 0 L 90 57 C 94 80 99 96 105 105 C 111 113 129 123 160 133 C 181 139 197 149 209 162 C 220 175 231 201 242 240 L 496 1214 C 500 1228 504 1245 508 1264 C 512 1283 514 1300 514 1315 C 514 1325 510 1334 503 1341 C 495 1347 482 1355 463 1364 C 450 1370 440 1374 434 1378 C 427 1382 424 1388 424 1397 C 424 1401 424 1406 426 1412 C 428 1418 429 1423 430 1427 L 449 1495 L 954 1495 C 1172 1495 1337 1437 1448 1323 C 1558 1208 1614 1057 1614 870 Z M 1321 981 C 1321 1029 1309 1085 1287 1151 C 1265 1216 1223 1265 1161 1298 C 1120 1319 1073 1333 1020 1341 C 967 1348 903 1352 829 1352 L 516 145 L 647 145 C 717 145 799 156 894 179 C 989 201 1068 256 1130 344 C 1185 421 1231 514 1267 623 C 1303 732 1321 851 1321 981 Z" unicode="D" />
<glyph horiz-adv-x="1264" d="M 1485 1516 L 1386 1161 L 1313 1161 C 1296 1161 1285 1164 1279 1172 C 1273 1179 1263 1200 1249 1235 C 1235 1271 1209 1297 1171 1313 C 1133 1329 1055 1337 936 1337 L 823 1337 L 696 840 L 840 840 C 890 840 927 847 949 861 C 971 875 992 895 1014 920 C 1018 924 1021 927 1025 929 C 1029 931 1033 932 1038 932 L 1124 932 L 1024 535 L 946 535 C 929 535 919 538 915 544 C 911 550 907 565 903 590 C 898 626 882 652 856 670 C 830 687 791 696 739 696 L 657 696 L 514 143 L 805 143 C 913 143 995 167 1052 215 C 1108 263 1144 297 1159 319 C 1170 336 1179 347 1185 351 C 1191 355 1199 358 1208 358 L 1313 358 L 1208 -20 C 1187 -18 1148 -14 1092 -8 C 1036 -2 982 0 930 0 L 80 0 L 90 57 C 94 80 99 96 105 105 C 111 113 129 123 160 133 C 181 139 197 149 209 162 C 220 175 231 201 242 240 L 496 1214 C 500 1228 504 1245 508 1264 C 512 1283 514 1300 514 1315 C 514 1325 510 1334 503 1341 C 495 1347 482 1355 463 1364 C 450 1370 440 1374 434 1378 C 427 1382 424 1388 424 1397 C 424 1401 424 1406 426 1412 C 428 1418 429 1423 430 1427 L 449 1495 L 1190 1495 C 1226 1495 1267 1496 1314 1500 C 1360 1504 1417 1509 1485 1516 Z" unicode="E" />
<glyph horiz-adv-x="1217" d="M 1577 1516 L 1483 1155 L 1391 1155 C 1377 1155 1368 1160 1362 1170 C 1356 1180 1350 1197 1343 1221 C 1330 1259 1307 1287 1273 1307 C 1239 1327 1193 1337 1133 1337 L 825 1337 L 698 842 L 883 842 C 937 842 973 847 992 858 C 1010 869 1036 891 1069 924 C 1077 932 1083 936 1089 938 C 1094 939 1099 940 1104 940 L 1192 940 L 1085 549 L 995 549 C 981 549 971 556 966 570 C 961 584 957 599 954 616 C 951 637 941 656 923 673 C 905 689 854 698 772 698 L 659 698 L 551 281 C 547 265 542 248 538 230 C 534 211 532 194 532 180 C 532 169 535 160 543 154 C 551 148 564 140 584 131 C 596 125 605 120 612 116 C 619 112 623 106 623 98 C 623 93 622 88 620 82 C 618 76 616 72 616 68 L 598 0 L 80 0 L 90 57 C 94 80 99 96 105 105 C 111 113 129 123 160 133 C 181 139 197 149 209 162 C 220 175 231 201 242 240 L 496 1214 C 500 1228 504 1245 508 1264 C 512 1283 514 1300 514 1315 C 514 1325 510 1334 503 1341 C 495 1347 482 1355 463 1364 C 450 1370 440 1374 434 1378 C 427 1382 424 1388 424 1397 C 424 1401 424 1406 426 1412 C 428 1418 429 1423 430 1427 L 449 1495 L 1276 1495 C 1306 1495 1344 1496 1389 1500 C 1433 1503 1496 1508 1577 1516 Z" unicode="F" />
<glyph horiz-adv-x="1464" d="M 1509 1419 L 1610 1419 L 1501 1024 L 1444 1024 C 1414 1024 1394 1028 1385 1036 C 1376 1044 1370 1066 1366 1102 C 1362 1135 1355 1170 1347 1206 C 1339 1242 1320 1273 1292 1298 C 1262 1324 1228 1342 1189 1354 C 1150 1366 1113 1372 1077 1372 C 906 1372 772 1292 674 1133 C 576 973 528 793 528 592 C 528 458 561 347 629 257 C 696 167 788 123 905 123 C 973 123 1026 135 1062 161 C 1098 186 1124 224 1141 274 C 1149 298 1157 325 1165 357 C 1173 388 1178 416 1178 442 C 1178 453 1175 463 1170 472 C 1165 481 1152 491 1130 502 C 1115 508 1103 514 1095 520 C 1087 525 1083 531 1083 539 C 1083 543 1083 548 1085 554 C 1087 560 1088 565 1090 569 L 1106 631 L 1530 631 C 1483 520 1454 444 1443 404 C 1432 364 1427 328 1427 297 C 1427 269 1430 250 1437 238 C 1444 226 1454 215 1466 205 C 1478 194 1487 186 1491 181 C 1495 175 1497 166 1497 152 C 1497 124 1487 103 1468 90 C 1449 76 1428 65 1405 57 C 1366 43 1305 26 1221 8 C 1137 -10 1044 -20 944 -20 C 740 -20 571 39 437 158 C 303 277 236 441 236 651 C 236 877 316 1078 476 1253 C 636 1428 836 1516 1075 1516 C 1169 1516 1247 1502 1309 1476 C 1371 1450 1420 1421 1458 1391 L 1509 1419 Z" unicode="G" />
<glyph horiz-adv-x="1575" d="M 1350 1495 L 1868 1495 L 1858 1438 C 1853 1414 1848 1398 1842 1390 C 1836 1381 1818 1372 1788 1362 C 1766 1355 1750 1345 1738 1332 C 1726 1318 1716 1293 1706 1255 L 1452 281 C 1448 265 1444 248 1440 230 C 1436 211 1434 194 1434 180 C 1434 169 1437 160 1445 154 C 1452 148 1465 140 1485 131 C 1497 125 1506 120 1513 116 C 1520 112 1524 106 1524 98 C 1524 93 1523 88 1521 82 C 1519 76 1518 72 1518 68 L 1499 0 L 981 0 L 991 57 C 995 80 1000 96 1006 105 C 1012 113 1030 123 1061 133 C 1082 139 1098 149 1110 162 C 1121 175 1132 201 1143 240 L 1262 692 L 657 692 L 551 281 C 547 265 542 248 538 230 C 534 211 532 194 532 180 C 532 169 535 160 543 154 C 551 148 564 140 584 131 C 596 125 605 120 612 116 C 619 112 623 106 623 98 C 623 93 622 88 620 82 C 618 76 616 72 616 68 L 598 0 L 80 0 L 90 57 C 94 80 99 96 105 105 C 111 113 129 123 160 133 C 181 139 197 149 209 162 C 220 175 231 201 242 240 L 496 1214 C 500 1228 504 1245 508 1264 C 512 1283 514 1300 514 1315 C 514 1325 510 1334 503 1341 C 495 1347 482 1355 463 1364 C 450 1370 440 1374 434 1378 C 427 1382 424 1388 424 1397 C 424 1401 424 1406 426 1412 C 428 1418 429 1423 430 1427 L 449 1495 L 967 1495 L 956 1438 C 952 1414 947 1398 941 1390 C 935 1381 917 1372 887 1362 C 865 1355 849 1345 837 1332 C 825 1318 815 1293 805 1255 L 696 836 L 1298 836 L 1397 1214 C 1401 1228 1405 1245 1409 1264 C 1413 1283 1415 1300 1415 1315 C 1415 1325 1411 1334 1404 1341 C 1396 1347 1383 1355 1364 1364 C 1351 1370 1341 1374 1335 1378 C 1328 1382 1325 1388 1325 1397 C 1325 1401 1325 1406 1327 1412 C 1329 1418 1330 1423 1331 1427 L 1350 1495 Z" unicode="H" />
<glyph horiz-adv-x="690" d="M 455 1495 L 977 1495 L 967 1438 C 962 1414 957 1398 951 1390 C 945 1381 927 1372 897 1362 C 875 1355 859 1345 847 1332 C 835 1318 823 1293 813 1255 L 559 281 C 555 265 551 248 547 230 C 543 211 541 194 541 180 C 541 169 545 160 553 154 C 561 148 574 140 594 131 C 606 125 615 120 622 116 C 629 112 633 106 633 98 C 633 93 632 88 630 82 C 628 76 627 72 627 68 L 608 0 L 86 0 L 96 57 C 100 80 105 96 111 105 C 117 113 135 123 166 133 C 187 139 204 149 216 162 C 228 175 239 201 250 240 L 504 1214 C 508 1228 512 1245 516 1264 C 520 1283 522 1300 522 1315 C 522 1325 518 1334 510 1341 C 502 1347 488 1355 469 1364 C 456 1370 446 1374 440 1378 C 433 1382 430 1388 430 1397 C 430 1401 430 1406 432 1412 C 434 1418 435 1423 436 1427 L 455 1495 Z" unicode="I" />
<glyph horiz-adv-x="956" d="M 741 1495 L 1260 1495 L 1249 1438 C 1245 1413 1239 1397 1232 1389 C 1225 1381 1207 1372 1178 1362 C 1156 1355 1139 1345 1127 1332 C 1115 1318 1104 1293 1096 1255 L 911 475 C 873 309 808 185 716 103 C 624 21 502 -20 352 -20 C 233 -20 152 9 108 69 C 64 128 43 178 43 219 C 43 267 57 306 85 337 C 113 367 148 383 190 383 C 235 383 270 368 294 338 C 318 308 330 279 330 252 C 330 231 327 209 321 187 C 315 164 311 150 309 145 C 318 137 328 131 339 127 C 349 123 362 121 377 121 C 448 121 500 159 533 235 C 565 311 588 378 602 434 L 786 1214 C 790 1230 795 1248 799 1266 C 803 1284 805 1300 805 1315 C 805 1325 802 1334 796 1341 C 790 1347 777 1355 758 1364 C 744 1370 734 1374 727 1378 C 720 1382 717 1388 717 1397 C 717 1401 717 1406 719 1412 C 721 1418 722 1423 723 1427 L 741 1495 Z" unicode="J" />
<glyph horiz-adv-x="1452" d="M 1243 1495 L 1718 1495 L 1710 1452 C 1704 1418 1696 1396 1688 1387 C 1679 1378 1658 1368 1624 1356 C 1597 1346 1559 1324 1509 1288 C 1459 1252 1402 1211 1337 1165 L 862 829 L 1266 297 C 1308 241 1339 203 1359 185 C 1379 167 1415 146 1468 123 C 1477 120 1485 116 1492 111 C 1499 105 1503 96 1503 84 C 1503 78 1502 72 1501 66 C 1499 60 1497 53 1495 43 L 1481 0 L 913 0 L 926 49 C 932 73 937 90 942 98 C 946 106 961 113 987 121 C 989 121 994 123 1002 127 C 1010 131 1014 138 1014 150 C 1014 152 1012 157 1010 163 C 1008 169 1002 178 993 190 L 643 659 L 549 281 C 545 265 540 248 536 230 C 532 211 530 194 530 180 C 530 169 533 160 541 154 C 549 148 562 140 582 131 C 594 125 603 120 610 116 C 617 112 621 106 621 98 C 621 93 620 88 618 82 C 616 76 614 72 614 68 L 596 0 L 80 0 L 90 57 C 94 80 99 96 105 105 C 111 113 129 123 160 133 C 181 139 197 149 209 162 C 220 175 231 201 242 240 L 496 1214 C 500 1228 504 1245 508 1264 C 512 1283 514 1300 514 1315 C 514 1325 510 1334 503 1341 C 495 1347 482 1355 463 1364 C 450 1370 440 1374 434 1378 C 427 1382 424 1388 424 1397 C 424 1401 424 1406 426 1412 C 428 1418 429 1423 430 1427 L 449 1495 L 965 1495 L 954 1438 C 950 1414 945 1398 939 1390 C 933 1381 915 1372 885 1362 C 863 1355 847 1345 835 1332 C 823 1318 813 1293 803 1255 L 709 903 L 1227 1278 C 1235 1284 1247 1294 1263 1308 C 1279 1322 1288 1333 1288 1341 C 1288 1345 1285 1349 1279 1353 C 1273 1356 1263 1361 1249 1368 C 1238 1372 1230 1376 1226 1380 C 1221 1384 1219 1390 1219 1399 C 1219 1403 1219 1408 1221 1414 C 1223 1419 1224 1424 1225 1430 L 1243 1495 Z" unicode="K" />
<glyph horiz-adv-x="1270" d="M 1264 356 L 1354 356 L 1255 -20 C 1208 -15 1158 -10 1105 -6 C 1051 -2 1000 0 950 0 L 80 0 L 90 57 C 94 80 99 96 105 105 C 111 113 129 123 160 133 C 181 139 197 149 209 162 C 220 175 231 201 242 240 L 496 1214 C 500 1228 504 1245 508 1264 C 512 1283 514 1300 514 1315 C 514 1325 510 1334 503 1341 C 495 1347 482 1355 463 1364 C 450 1370 440 1374 434 1378 C 427 1382 424 1388 424 1397 C 424 1401 424 1406 426 1412 C 428 1418 429 1423 430 1427 L 449 1495 L 967 1495 L 956 1438 C 952 1414 947 1398 941 1390 C 935 1381 917 1372 887 1362 C 865 1355 849 1345 837 1332 C 825 1318 815 1293 805 1255 L 516 143 L 776 143 C 910 143 1005 157 1059 187 C 1113 217 1167 266 1221 334 C 1229 344 1234 350 1238 352 C 1242 354 1250 356 1264 356 Z" unicode="L" />
<glyph horiz-adv-x="1804" d="M 1657 1495 L 2097 1495 L 2087 1438 C 2083 1414 2078 1398 2072 1390 C 2066 1381 2047 1372 2017 1362 C 1995 1355 1979 1345 1968 1332 C 1956 1318 1945 1293 1935 1255 L 1681 281 C 1677 265 1673 248 1669 230 C 1665 211 1663 194 1663 180 C 1663 169 1666 160 1674 154 C 1681 148 1694 140 1714 131 C 1726 125 1736 120 1743 116 C 1749 112 1753 106 1753 98 C 1753 93 1752 88 1750 82 C 1748 76 1747 72 1747 68 L 1729 0 L 1221 0 L 1231 57 C 1235 80 1239 96 1245 105 C 1251 113 1269 123 1300 133 C 1321 139 1337 149 1349 162 C 1361 175 1372 201 1382 240 L 1630 1167 L 1622 1171 L 907 0 L 795 0 L 670 1184 L 662 1184 L 428 281 C 424 265 420 248 416 230 C 412 211 410 194 410 180 C 410 169 413 160 421 154 C 428 148 441 140 461 131 C 473 125 482 120 489 116 C 496 112 500 106 500 98 C 500 93 499 88 497 82 C 495 76 494 72 494 68 L 475 0 L 80 0 L 90 57 C 94 80 99 96 105 105 C 111 113 129 123 160 133 C 181 139 197 149 209 162 C 220 175 231 201 242 240 L 496 1214 C 500 1228 504 1245 508 1264 C 512 1283 514 1300 514 1315 C 514 1325 510 1334 503 1341 C 495 1347 482 1355 463 1364 C 450 1370 440 1374 434 1378 C 427 1382 424 1388 424 1397 C 424 1401 424 1406 426 1412 C 428 1418 429 1423 430 1427 L 449 1495 L 905 1495 L 1010 471 L 1014 471 L 1657 1495 Z" unicode="M" />
<glyph horiz-adv-x="1460" d="M 1366 1495 L 1761 1495 L 1751 1438 C 1747 1414 1742 1398 1736 1390 C 1730 1381 1711 1372 1681 1362 C 1659 1355 1643 1345 1632 1332 C 1620 1319 1609 1293 1599 1255 L 1272 0 L 1133 0 L 657 1155 L 428 281 C 424 265 420 248 416 230 C 412 211 410 194 410 180 C 410 169 413 160 421 154 C 428 148 441 140 461 131 C 473 125 482 120 489 116 C 496 112 500 106 500 98 C 500 93 499 88 497 82 C 495 76 494 72 494 68 L 475 0 L 80 0 L 90 57 C 94 80 99 96 105 105 C 111 113 129 123 160 133 C 181 139 197 149 209 162 C 220 175 231 201 242 240 L 496 1214 C 500 1228 504 1245 508 1264 C 512 1283 514 1300 514 1315 C 514 1325 510 1334 503 1341 C 495 1347 482 1355 463 1364 C 450 1370 440 1374 434 1378 C 427 1382 424 1388 424 1397 C 424 1401 424 1406 426 1412 C 428 1418 429 1423 430 1427 L 449 1495 L 829 1495 L 1231 516 L 1413 1214 C 1417 1229 1421 1246 1425 1265 C 1429 1283 1432 1300 1432 1315 C 1432 1325 1428 1334 1420 1341 C 1412 1347 1399 1355 1380 1364 C 1368 1370 1358 1374 1351 1378 C 1344 1382 1341 1388 1341 1397 C 1341 1401 1342 1406 1344 1412 C 1346 1418 1347 1423 1348 1427 L 1366 1495 Z" unicode="N" />
<glyph horiz-adv-x="1491" d="M 1628 862 C 1628 618 1549 410 1393 238 C 1236 66 1044 -20 817 -20 C 661 -20 525 38 410 156 C 295 273 238 432 238 633 C 238 873 315 1080 471 1254 C 626 1428 818 1516 1047 1516 C 1199 1516 1334 1457 1452 1341 C 1569 1225 1628 1065 1628 862 Z M 1337 991 C 1337 1099 1311 1189 1259 1262 C 1207 1335 1132 1372 1034 1372 C 881 1372 758 1281 666 1099 C 574 917 528 719 528 504 C 528 394 554 303 606 231 C 658 159 733 123 831 123 C 991 123 1115 216 1204 403 C 1292 589 1337 785 1337 991 Z" unicode="O" />
<glyph horiz-adv-x="1243" d="M 1487 1102 C 1487 953 1431 843 1319 771 C 1207 699 1055 664 864 664 L 651 664 L 551 281 C 547 265 542 248 538 230 C 534 211 532 194 532 180 C 532 169 535 160 543 154 C 551 148 564 140 584 131 C 596 125 605 120 612 116 C 619 112 623 106 623 98 C 623 93 622 88 620 82 C 618 76 616 72 616 68 L 598 0 L 80 0 L 90 57 C 94 80 99 96 105 105 C 111 113 129 123 160 133 C 181 139 197 149 209 162 C 220 175 231 201 242 240 L 496 1214 C 500 1228 504 1245 508 1264 C 512 1283 514 1300 514 1315 C 514 1325 510 1334 503 1341 C 495 1347 482 1355 463 1364 C 450 1370 440 1374 434 1378 C 427 1382 424 1388 424 1397 C 424 1401 424 1406 426 1412 C 428 1418 429 1423 430 1427 L 449 1495 L 965 1495 C 1122 1495 1248 1461 1344 1395 C 1439 1329 1487 1231 1487 1102 Z M 1196 1120 C 1196 1160 1187 1196 1169 1229 C 1151 1262 1126 1288 1094 1307 C 1060 1326 1025 1338 989 1342 C 953 1346 899 1350 829 1352 L 690 807 L 805 807 C 849 807 894 811 940 819 C 985 827 1029 844 1071 870 C 1107 891 1136 925 1160 973 C 1184 1020 1196 1069 1196 1120 Z" unicode="P" />
<glyph horiz-adv-x="1491" d="M 1628 862 C 1628 641 1563 449 1434 287 C 1305 124 1146 26 958 -8 L 958 -12 C 986 -23 1022 -40 1067 -62 C 1112 -84 1139 -98 1149 -104 C 1189 -132 1222 -153 1247 -167 C 1272 -181 1300 -188 1331 -188 C 1345 -188 1361 -186 1379 -183 C 1397 -180 1419 -176 1446 -170 L 1462 -223 C 1462 -227 1463 -231 1464 -236 C 1465 -240 1466 -246 1466 -252 C 1466 -260 1464 -267 1462 -273 C 1459 -279 1454 -284 1446 -289 C 1432 -297 1403 -311 1358 -329 C 1313 -347 1261 -356 1202 -356 C 1147 -356 1095 -345 1046 -325 C 996 -305 954 -277 918 -242 C 828 -157 762 -95 719 -56 C 676 -17 636 9 600 25 C 495 68 408 142 340 247 C 272 352 238 481 238 633 C 238 873 315 1080 471 1254 C 626 1428 818 1516 1047 1516 C 1199 1516 1333 1457 1451 1341 C 1569 1225 1628 1065 1628 862 Z M 1337 991 C 1337 1099 1311 1189 1259 1262 C 1207 1335 1132 1372 1034 1372 C 882 1372 759 1281 667 1099 C 574 917 528 719 528 504 C 528 394 554 302 606 228 C 658 154 733 117 831 117 C 991 117 1115 211 1204 399 C 1292 587 1337 785 1337 991 Z" unicode="Q" />
<glyph horiz-adv-x="1413" d="M 1497 1106 C 1497 983 1447 889 1347 823 C 1247 757 1114 723 950 719 L 950 707 C 976 706 1004 699 1032 687 C 1060 674 1089 636 1120 573 L 1272 266 C 1298 212 1319 176 1333 158 C 1347 140 1371 127 1405 119 C 1424 115 1435 110 1439 105 C 1442 99 1444 94 1444 88 C 1444 87 1443 83 1441 75 C 1439 67 1436 57 1434 47 L 1419 0 L 1077 0 L 801 625 C 791 646 779 665 763 682 C 747 698 727 707 705 707 L 662 707 L 551 281 C 547 265 542 248 538 230 C 534 211 532 194 532 180 C 532 169 535 160 543 154 C 551 148 564 140 584 131 C 596 125 605 120 612 116 C 619 112 623 106 623 98 C 623 93 622 88 620 82 C 618 76 616 72 616 68 L 598 0 L 80 0 L 90 57 C 94 80 99 96 105 105 C 111 113 129 123 160 133 C 181 139 197 149 209 162 C 220 175 231 201 242 240 L 496 1214 C 500 1228 504 1245 508 1264 C 512 1283 514 1300 514 1315 C 514 1325 510 1334 503 1341 C 495 1347 482 1355 463 1364 C 450 1370 440 1374 434 1378 C 427 1382 424 1388 424 1397 C 424 1401 424 1406 426 1412 C 428 1418 429 1423 430 1427 L 449 1495 L 903 1495 C 1115 1495 1267 1462 1359 1397 C 1451 1331 1497 1234 1497 1106 Z M 1208 1139 C 1208 1207 1184 1260 1137 1297 C 1090 1333 1018 1352 920 1352 L 829 1352 L 700 850 L 813 850 C 859 850 900 851 935 854 C 970 857 1010 868 1055 887 C 1101 906 1138 940 1166 988 C 1194 1036 1208 1087 1208 1139 Z" unicode="R" />
<glyph horiz-adv-x="1075" d="M 1214 1462 L 1317 1462 L 1223 1114 L 1130 1114 C 1118 1114 1110 1118 1107 1126 C 1104 1134 1100 1151 1094 1178 C 1080 1241 1050 1289 1004 1322 C 958 1355 905 1372 846 1372 C 776 1372 718 1353 670 1316 C 622 1278 598 1232 598 1176 C 598 1124 612 1081 640 1048 C 668 1014 699 987 733 967 C 767 946 804 923 844 897 C 884 871 915 852 938 838 C 1002 795 1054 744 1096 686 C 1138 627 1159 564 1159 496 C 1159 353 1108 231 1006 131 C 904 30 766 -20 592 -20 C 540 -20 496 -14 462 -4 C 427 5 390 17 352 31 C 314 43 287 52 271 56 C 255 60 242 63 233 63 C 217 63 203 58 192 49 C 180 39 163 23 141 0 L 23 0 L 129 401 L 219 401 C 234 401 245 399 251 395 C 257 391 261 385 262 377 C 264 351 268 329 275 309 C 281 289 294 269 313 248 C 345 210 388 179 440 157 C 492 134 546 123 602 123 C 688 123 761 145 819 189 C 877 233 907 290 907 362 C 907 420 890 467 856 504 C 822 540 787 571 750 596 C 720 614 693 630 669 643 C 645 656 617 672 586 692 C 513 736 456 789 414 849 C 372 909 352 987 352 1081 C 352 1202 398 1305 491 1389 C 583 1473 704 1516 852 1516 C 923 1516 982 1506 1030 1487 C 1077 1467 1121 1450 1161 1434 L 1214 1462 Z" unicode="S" />
<glyph horiz-adv-x="1298" d="M 1657 1516 L 1565 1165 L 1505 1165 C 1479 1165 1463 1166 1456 1169 C 1449 1171 1444 1180 1440 1196 C 1422 1261 1396 1301 1361 1315 C 1325 1329 1275 1337 1210 1337 L 1128 1337 L 854 281 C 850 265 846 248 842 230 C 838 211 836 194 836 180 C 836 169 839 160 847 154 C 854 148 867 140 887 131 C 899 125 908 120 915 116 C 922 112 926 106 926 98 C 926 93 925 88 923 82 C 921 76 920 72 920 68 L 901 0 L 383 0 L 393 57 C 397 80 402 96 408 105 C 414 113 432 123 463 133 C 484 139 500 149 512 162 C 523 175 534 201 545 240 L 831 1337 L 737 1337 C 649 1337 590 1326 560 1306 C 529 1286 493 1248 451 1192 C 442 1181 433 1173 425 1169 C 417 1165 405 1163 391 1163 L 307 1163 L 399 1516 C 489 1507 554 1501 595 1499 C 636 1496 703 1495 795 1495 L 1257 1495 C 1289 1495 1355 1497 1455 1502 C 1555 1506 1622 1511 1657 1516 Z" unicode="T" />
<glyph horiz-adv-x="1520" d="M 1432 1495 L 1831 1495 L 1821 1438 C 1816 1414 1811 1398 1805 1390 C 1799 1381 1781 1372 1751 1362 C 1729 1355 1713 1345 1702 1332 C 1690 1319 1679 1293 1669 1255 L 1466 471 C 1420 296 1346 170 1242 93 C 1138 15 1008 -23 852 -23 C 684 -23 550 13 450 86 C 349 159 299 273 299 428 C 299 464 301 500 307 534 C 312 568 317 592 322 606 L 481 1214 C 485 1228 489 1245 493 1264 C 497 1283 500 1300 500 1315 C 500 1325 496 1334 488 1341 C 480 1347 467 1355 449 1364 C 436 1370 426 1374 420 1378 C 413 1382 410 1388 410 1397 C 410 1401 410 1406 412 1412 C 414 1418 415 1423 416 1427 L 434 1495 L 952 1495 L 942 1438 C 938 1414 933 1398 927 1390 C 921 1381 902 1372 872 1362 C 850 1355 834 1345 823 1332 C 811 1318 801 1293 791 1255 L 606 549 C 603 535 600 515 596 488 C 592 461 590 434 590 408 C 590 350 613 293 661 238 C 709 183 786 156 893 156 C 1003 156 1090 186 1155 248 C 1219 310 1264 387 1288 479 L 1479 1214 C 1483 1229 1487 1246 1491 1265 C 1495 1283 1497 1300 1497 1315 C 1497 1325 1493 1334 1486 1341 C 1478 1347 1465 1355 1446 1364 C 1433 1370 1423 1374 1417 1378 C 1410 1382 1407 1388 1407 1397 C 1407 1401 1407 1406 1409 1412 C 1411 1418 1412 1423 1413 1427 L 1432 1495 Z" unicode="U" />
<glyph horiz-adv-x="1430" d="M 1389 1495 L 1810 1495 L 1804 1452 C 1799 1416 1791 1393 1779 1385 C 1767 1376 1744 1366 1708 1356 C 1688 1349 1670 1335 1653 1313 C 1635 1291 1622 1272 1612 1257 L 791 -6 L 674 -6 L 475 1249 C 469 1287 463 1312 457 1324 C 451 1336 436 1346 414 1356 C 386 1368 369 1376 363 1380 C 357 1384 354 1389 354 1397 L 371 1495 L 889 1495 L 881 1452 C 875 1425 869 1405 862 1393 C 854 1381 836 1370 807 1360 C 783 1351 769 1345 764 1342 C 758 1339 756 1333 756 1323 C 756 1317 756 1308 758 1296 C 759 1284 760 1276 760 1274 L 895 420 L 1362 1161 C 1372 1178 1389 1205 1412 1242 C 1434 1279 1446 1303 1446 1315 C 1446 1323 1443 1330 1438 1338 C 1433 1345 1420 1354 1399 1366 C 1384 1372 1374 1377 1370 1381 C 1366 1384 1364 1390 1364 1399 C 1364 1405 1364 1411 1366 1417 C 1368 1423 1369 1427 1370 1430 L 1389 1495 Z" unicode="V" />
<glyph horiz-adv-x="2060" d="M 2007 1495 L 2443 1495 L 2417 1399 C 2359 1370 2321 1348 2301 1333 C 2281 1317 2258 1287 2230 1243 L 1473 -6 L 1343 -6 L 1262 895 L 723 -6 L 594 -6 L 477 1225 C 472 1281 467 1316 461 1331 C 455 1345 439 1356 414 1362 C 390 1366 374 1371 365 1375 C 356 1379 352 1387 352 1399 C 352 1401 352 1405 354 1413 C 355 1421 356 1426 356 1430 L 371 1495 L 891 1495 L 881 1452 C 873 1423 867 1403 861 1392 C 855 1380 837 1370 809 1362 C 787 1355 774 1350 769 1348 C 764 1345 762 1341 762 1337 C 762 1323 762 1305 763 1284 C 764 1262 765 1247 766 1239 L 823 453 L 1233 1145 C 1226 1240 1219 1298 1211 1318 C 1203 1338 1187 1352 1165 1362 C 1146 1370 1133 1376 1127 1380 C 1121 1384 1118 1390 1118 1399 C 1118 1405 1118 1411 1120 1417 C 1122 1423 1123 1427 1124 1430 L 1143 1495 L 1636 1495 L 1610 1399 C 1564 1379 1534 1363 1520 1351 C 1506 1338 1500 1312 1503 1274 L 1571 457 L 2038 1239 C 2046 1254 2053 1267 2059 1279 C 2065 1291 2068 1303 2068 1317 C 2068 1323 2065 1330 2060 1338 C 2055 1345 2042 1354 2021 1366 C 2007 1372 1997 1377 1993 1381 C 1989 1384 1987 1390 1987 1399 C 1987 1403 1987 1408 1989 1415 C 1991 1422 1992 1427 1993 1430 L 2007 1495 Z" unicode="W" />
<glyph horiz-adv-x="1370" d="M 1241 1495 L 1720 1495 L 1694 1399 C 1638 1376 1600 1359 1580 1348 C 1560 1337 1535 1316 1505 1286 L 1026 797 L 1253 248 C 1260 229 1271 208 1286 186 C 1301 163 1322 145 1348 133 C 1369 123 1383 115 1389 110 C 1395 105 1399 97 1399 86 C 1399 80 1398 73 1396 66 C 1394 58 1393 51 1391 45 L 1376 0 L 850 0 L 860 49 C 864 73 869 90 875 100 C 880 109 896 117 922 123 C 934 125 944 130 954 137 C 964 144 969 161 969 188 C 969 201 966 214 962 227 C 958 240 954 252 950 262 L 803 616 L 440 246 C 434 239 426 230 417 219 C 407 208 403 193 403 174 C 403 159 406 148 413 142 C 419 135 432 127 451 119 C 461 114 468 108 470 102 C 472 95 473 90 473 88 C 473 82 472 75 470 68 C 468 60 467 53 465 45 L 455 0 L -8 0 L 0 49 C 2 63 4 76 8 88 C 12 99 18 106 27 109 C 54 119 78 129 99 140 C 120 150 145 170 174 199 L 739 764 L 522 1257 C 505 1293 492 1319 482 1334 C 472 1348 455 1359 430 1366 C 422 1368 413 1371 405 1376 C 397 1380 393 1388 393 1399 C 393 1403 393 1409 395 1416 C 397 1422 398 1427 399 1430 L 418 1495 L 940 1495 L 932 1452 C 926 1422 918 1401 909 1389 C 900 1377 878 1366 842 1356 C 835 1355 828 1352 822 1348 C 816 1343 813 1333 813 1319 C 813 1313 814 1306 816 1298 C 818 1290 820 1284 821 1282 L 952 944 L 1249 1257 C 1254 1261 1262 1270 1272 1283 C 1282 1296 1288 1311 1288 1329 C 1288 1335 1285 1342 1281 1348 C 1277 1354 1268 1360 1255 1364 C 1247 1366 1238 1369 1230 1375 C 1221 1380 1217 1388 1217 1399 C 1217 1403 1217 1409 1219 1416 C 1221 1422 1222 1427 1223 1430 L 1241 1495 Z" unicode="X" />
<glyph horiz-adv-x="1352" d="M 1278 1495 L 1737 1495 L 1710 1399 C 1646 1361 1605 1335 1587 1323 C 1569 1311 1551 1295 1534 1276 L 977 664 L 879 281 C 874 265 870 248 866 230 C 862 211 860 194 860 180 C 860 169 863 160 871 154 C 878 148 891 140 911 131 C 923 125 933 120 940 116 C 946 112 950 106 950 98 C 950 93 949 88 947 82 C 945 76 944 72 944 68 L 926 0 L 408 0 L 418 57 C 422 80 426 96 432 105 C 438 113 456 123 487 133 C 508 139 524 149 536 162 C 548 175 559 201 569 240 L 690 698 L 498 1235 C 480 1283 466 1313 456 1326 C 445 1339 423 1350 391 1360 C 383 1362 373 1365 361 1371 C 349 1377 344 1386 344 1399 C 344 1403 344 1409 346 1416 C 348 1422 349 1427 350 1430 L 367 1495 L 893 1495 L 885 1452 C 881 1430 875 1413 869 1399 C 862 1385 847 1374 825 1366 C 800 1358 785 1351 779 1347 C 773 1343 770 1333 770 1319 C 770 1308 771 1300 773 1294 C 775 1288 780 1276 786 1260 L 934 850 L 1296 1264 C 1306 1276 1315 1287 1322 1299 C 1329 1310 1333 1321 1333 1331 C 1333 1340 1328 1347 1318 1353 C 1308 1358 1301 1362 1296 1364 C 1287 1366 1279 1370 1271 1375 C 1263 1380 1260 1388 1260 1399 C 1260 1401 1260 1405 1262 1413 C 1263 1421 1264 1426 1264 1430 L 1278 1495 Z" unicode="Y" />
<glyph horiz-adv-x="1243" d="M 442 1495 L 1554 1495 L 1524 1364 L 422 150 L 795 150 C 917 150 1004 170 1056 211 C 1108 251 1152 295 1186 342 C 1194 353 1202 360 1212 362 C 1221 364 1232 365 1245 365 L 1323 365 L 1223 0 L 20 0 C 30 54 42 94 54 122 C 66 149 82 173 102 195 L 1141 1337 L 774 1337 C 689 1337 623 1323 577 1295 C 531 1267 499 1236 483 1202 C 474 1183 467 1172 461 1168 C 455 1164 448 1163 440 1163 L 348 1163 L 442 1495 Z" unicode="Z" />
<glyph horiz-adv-x="741" d="M 578 1495 L 1061 1495 L 1036 1395 L 819 1395 L 379 -285 L 600 -285 L 575 -385 L 84 -385 L 578 1495 Z" unicode="[" />
<glyph horiz-adv-x="823" d="M 479 1495 L 969 -389 L 805 -389 L 313 1495 L 479 1495 Z" unicode="\" />
<glyph horiz-adv-x="741" d="M 479 1495 L 971 1495 L 477 -385 L -6 -385 L 18 -285 L 236 -285 L 676 1395 L 455 1395 L 479 1495 Z" unicode="]" />
<glyph horiz-adv-x="1528" d="M 1049 1495 L 1532 643 L 1337 643 L 973 1321 L 608 643 L 414 643 L 897 1495 L 1049 1495 Z" unicode="^" />
<glyph horiz-adv-x="1024" d="M 10 -102 L 1047 -102 L 1016 -211 L -20 -211 L 10 -102 Z" unicode="_" />
<glyph horiz-adv-x="840" d="M 633 1446 L 872 1143 L 809 1100 L 512 1286 C 476 1308 450 1329 436 1349 C 421 1368 414 1388 414 1409 C 414 1435 422 1459 439 1479 C 455 1499 478 1509 508 1509 C 525 1509 544 1505 566 1499 C 588 1492 610 1474 633 1446 Z" unicode="`" />
<glyph horiz-adv-x="1186" d="M 1266 975 C 1266 969 1264 959 1260 946 C 1256 932 1253 919 1249 907 L 1090 281 C 1084 260 1080 241 1076 223 C 1072 205 1071 191 1071 180 C 1071 168 1075 157 1084 149 C 1093 141 1102 137 1110 137 C 1123 137 1133 138 1141 140 C 1148 142 1163 147 1186 156 L 1210 115 C 1214 108 1217 101 1217 95 C 1217 89 1217 84 1217 80 C 1217 58 1189 36 1134 12 C 1079 -11 1027 -23 977 -23 C 911 -23 868 -4 848 33 C 827 71 815 105 813 137 C 779 101 734 66 679 30 C 623 -5 560 -23 489 -23 C 388 -23 311 11 257 81 C 203 151 176 240 176 348 C 176 528 239 683 366 812 C 492 941 637 1006 799 1006 C 851 1006 893 999 926 987 C 958 974 985 961 1006 948 C 1018 941 1031 935 1045 929 C 1059 923 1073 920 1087 920 C 1101 920 1117 925 1134 936 C 1150 946 1173 963 1202 987 C 1206 989 1211 993 1219 999 C 1227 1005 1235 1008 1243 1008 C 1254 1008 1261 1004 1263 997 C 1265 990 1266 983 1266 975 Z M 952 748 C 952 772 940 800 916 831 C 892 861 855 877 803 877 C 694 877 607 820 541 708 C 475 595 442 483 442 373 C 442 313 454 265 480 227 C 506 189 543 170 592 170 C 646 170 694 183 735 209 C 775 235 811 261 842 287 L 942 686 C 942 690 944 699 947 712 C 950 725 952 737 952 748 Z" unicode="a" />
<glyph horiz-adv-x="1130" d="M 1229 633 C 1229 452 1166 297 1041 169 C 916 41 766 -23 590 -23 C 461 -23 366 2 306 54 C 245 105 215 176 215 268 C 215 296 217 325 222 353 C 226 381 232 411 240 442 L 432 1217 C 436 1239 441 1261 445 1282 C 449 1303 451 1321 451 1335 C 451 1343 447 1351 439 1357 C 431 1363 424 1367 418 1370 C 402 1374 390 1380 380 1386 C 370 1392 365 1400 365 1409 C 365 1411 365 1415 367 1421 C 369 1427 370 1432 371 1438 L 387 1495 L 760 1495 L 596 856 C 626 886 670 918 728 953 C 785 988 846 1006 911 1006 C 1011 1006 1089 969 1145 897 C 1201 825 1229 737 1229 633 Z M 963 610 C 963 668 949 716 921 754 C 893 792 855 811 805 811 C 751 811 702 798 660 772 C 618 746 583 720 557 694 L 463 303 C 462 298 460 287 458 270 C 456 253 455 239 455 229 C 455 195 467 165 492 141 C 517 116 556 104 608 104 C 711 104 796 157 863 265 C 929 372 963 487 963 610 Z" unicode="b" />
<glyph horiz-adv-x="928" d="M 1100 799 C 1100 761 1088 729 1065 703 C 1042 677 1011 664 973 664 C 938 664 907 675 881 697 C 855 719 842 748 842 786 C 842 793 842 801 844 811 C 846 820 848 830 850 842 C 839 848 826 856 810 864 C 794 872 773 877 745 877 C 644 877 570 827 523 727 C 476 627 453 530 453 434 C 453 340 473 268 513 216 C 553 164 608 139 678 139 C 722 139 767 149 812 169 C 857 189 900 215 940 248 L 981 193 C 987 185 991 178 994 170 C 997 162 999 156 999 152 C 999 118 959 80 879 39 C 799 -2 708 -23 608 -23 C 487 -23 386 16 306 96 C 226 176 186 285 186 424 C 186 557 240 687 349 815 C 458 942 602 1006 780 1006 C 893 1006 975 982 1025 935 C 1075 888 1100 843 1100 799 Z" unicode="c" />
<glyph horiz-adv-x="1192" d="M 1028 1495 L 1403 1495 L 1096 281 C 1090 260 1086 241 1082 223 C 1078 205 1077 190 1077 180 C 1077 168 1081 157 1090 149 C 1099 141 1108 137 1116 137 C 1129 137 1140 138 1148 140 C 1156 142 1171 147 1194 156 L 1219 115 C 1223 108 1225 101 1226 95 C 1226 89 1227 84 1227 80 C 1227 58 1198 36 1141 12 C 1084 -11 1029 -23 977 -23 C 913 -23 871 -4 853 31 C 834 67 823 103 819 137 C 794 111 751 78 691 38 C 631 -2 565 -23 494 -23 C 393 -23 315 12 259 84 C 203 156 176 244 176 348 C 176 528 240 683 368 812 C 496 941 641 1006 803 1006 C 849 1006 887 999 918 987 C 948 974 978 958 1006 940 L 1075 1217 C 1079 1239 1084 1261 1088 1282 C 1092 1303 1094 1321 1094 1335 C 1094 1343 1089 1351 1080 1357 C 1070 1363 1063 1367 1059 1370 C 1043 1374 1030 1380 1020 1386 C 1009 1392 1004 1400 1004 1409 C 1004 1411 1005 1415 1007 1421 C 1009 1427 1011 1432 1012 1438 L 1028 1495 Z M 954 752 C 954 776 942 804 918 835 C 894 865 857 881 805 881 C 696 881 608 824 542 710 C 475 596 442 483 442 373 C 442 313 456 265 484 227 C 512 189 551 170 600 170 C 655 170 702 183 741 209 C 780 235 815 261 846 287 L 944 692 C 946 696 948 704 950 717 C 952 729 954 741 954 752 Z" unicode="d" />
<glyph horiz-adv-x="991" d="M 1118 760 C 1118 653 1070 573 976 521 C 881 468 748 442 578 442 L 438 442 L 438 371 C 438 290 460 230 506 191 C 552 152 603 133 659 133 C 711 133 765 146 821 172 C 877 198 935 237 993 287 L 1022 252 C 1030 241 1038 233 1044 228 C 1050 222 1053 215 1053 205 C 1053 180 1010 136 926 72 C 842 8 730 -23 590 -23 C 457 -23 356 18 288 100 C 220 182 186 286 186 412 C 186 576 248 716 373 832 C 497 948 643 1006 809 1006 C 898 1006 972 983 1030 938 C 1088 892 1118 833 1118 760 Z M 881 764 C 881 793 872 820 856 844 C 839 868 808 881 764 881 C 694 881 633 850 580 789 C 527 727 488 653 463 567 C 571 567 648 573 692 585 C 736 596 772 610 801 627 C 820 637 838 654 855 676 C 872 698 881 728 881 764 Z" unicode="e" />
<glyph horiz-adv-x="688" d="M 1106 1337 C 1106 1304 1094 1274 1071 1246 C 1048 1218 1017 1204 979 1204 C 947 1204 919 1213 896 1233 C 873 1252 860 1276 856 1305 C 855 1311 854 1319 854 1329 C 854 1339 854 1350 854 1364 C 822 1355 797 1338 779 1313 C 761 1287 743 1241 727 1174 L 684 993 L 946 993 L 909 846 L 649 846 L 453 0 L 193 0 L 391 846 L 270 846 L 287 915 C 293 939 300 955 309 963 C 318 971 339 978 371 983 C 389 987 406 994 421 1006 C 436 1018 449 1043 459 1081 C 491 1210 547 1311 625 1385 C 703 1458 793 1495 897 1495 C 958 1495 1008 1480 1047 1451 C 1086 1422 1106 1384 1106 1337 Z" unicode="f" />
<glyph horiz-adv-x="1059" d="M 1282 895 C 1282 870 1273 847 1257 827 C 1241 807 1217 797 1186 797 C 1172 797 1161 799 1151 804 C 1141 809 1129 816 1114 825 C 1109 827 1103 829 1097 831 C 1090 833 1084 834 1079 834 C 1075 834 1069 833 1063 832 C 1057 830 1050 829 1044 829 C 1058 805 1069 780 1075 753 C 1081 725 1085 697 1085 668 C 1085 559 1038 464 945 382 C 852 300 745 260 625 260 C 601 260 577 261 553 265 C 529 268 505 274 483 283 L 383 152 L 553 152 C 709 152 826 129 904 85 C 982 40 1022 -22 1022 -104 C 1022 -195 971 -267 871 -321 C 771 -374 650 -401 510 -401 C 376 -401 278 -388 214 -364 C 150 -340 119 -300 119 -244 C 119 -216 128 -190 148 -168 C 167 -146 194 -135 229 -135 C 267 -135 294 -144 312 -164 C 329 -184 338 -205 338 -229 C 338 -234 337 -239 336 -245 C 335 -250 334 -254 334 -256 C 356 -260 386 -264 422 -268 C 458 -272 492 -274 524 -274 C 600 -274 664 -263 716 -241 C 767 -219 793 -189 793 -152 C 793 -114 767 -87 715 -71 C 663 -55 581 -47 467 -47 C 391 -47 322 -48 259 -51 C 196 -53 154 -55 133 -55 C 123 -55 114 -51 107 -45 C 99 -38 96 -29 96 -18 C 96 -13 97 -8 101 -3 C 104 2 107 7 111 12 L 369 340 C 328 368 295 404 269 447 C 243 489 231 538 231 592 C 231 700 276 796 366 880 C 456 964 573 1006 717 1006 C 769 1006 817 997 861 981 C 905 964 944 941 977 913 C 997 930 1022 949 1052 969 C 1082 989 1115 999 1151 999 C 1183 999 1213 990 1241 973 C 1268 955 1282 929 1282 895 Z M 856 684 C 856 748 842 796 816 828 C 790 860 752 877 702 877 C 624 877 564 841 523 769 C 481 697 461 625 461 551 C 461 504 474 463 501 429 C 528 394 567 377 618 377 C 681 377 736 407 784 468 C 832 528 856 600 856 684 Z" unicode="g" />
<glyph horiz-adv-x="1178" d="M 1225 80 C 1225 58 1202 36 1158 12 C 1113 -11 1064 -23 1012 -23 C 941 -23 890 -6 858 28 C 826 62 811 99 811 139 C 811 152 812 170 814 194 C 816 218 823 249 834 287 L 936 666 C 938 674 939 684 940 697 C 941 710 942 723 942 735 C 942 761 931 783 910 800 C 888 816 863 825 834 825 C 782 825 734 812 691 788 C 648 763 615 741 592 723 L 412 0 L 156 0 L 457 1219 C 463 1240 467 1261 471 1282 C 475 1303 477 1321 477 1335 C 477 1343 472 1351 464 1357 C 456 1363 449 1368 444 1370 C 429 1376 416 1381 405 1387 C 394 1393 389 1400 389 1409 C 389 1413 389 1417 391 1422 C 393 1427 395 1432 397 1438 L 414 1495 L 788 1495 L 629 874 C 663 898 705 926 757 958 C 808 990 870 1006 942 1006 C 1022 1006 1086 981 1133 931 C 1180 881 1204 821 1204 752 C 1204 706 1199 665 1191 629 C 1182 593 1173 562 1165 537 L 1092 281 C 1086 263 1082 245 1078 225 C 1074 205 1073 190 1073 180 C 1073 168 1078 157 1088 149 C 1098 141 1108 137 1116 137 C 1128 137 1139 138 1147 140 C 1155 142 1170 147 1192 156 L 1217 115 C 1221 108 1223 101 1224 95 C 1224 89 1225 84 1225 80 Z" unicode="h" />
<glyph horiz-adv-x="606" d="M 674 973 C 674 965 671 952 667 934 C 663 915 657 894 651 872 L 498 281 C 492 263 488 245 485 225 C 482 205 481 190 481 180 C 481 168 485 157 494 149 C 503 141 512 137 520 137 C 533 137 544 138 552 140 C 560 142 575 147 598 156 L 623 115 C 627 108 629 101 630 95 C 630 89 631 84 631 80 C 631 58 608 36 564 12 C 519 -11 470 -23 418 -23 C 347 -23 297 -6 267 28 C 237 62 223 99 223 139 C 223 152 224 171 226 195 C 228 219 235 250 246 287 L 348 662 C 350 670 353 685 357 706 C 360 727 362 741 362 748 C 362 766 356 779 345 785 C 334 791 317 799 295 807 C 290 809 284 812 278 817 C 271 821 268 829 268 840 C 268 846 269 855 271 865 C 273 875 276 882 279 887 L 289 915 C 358 924 415 935 461 948 C 506 961 543 973 573 983 C 597 991 612 996 620 1000 C 627 1004 634 1006 641 1006 C 653 1006 662 1003 667 997 C 671 991 674 983 674 973 Z M 776 1346 C 776 1304 761 1268 732 1238 C 702 1208 667 1194 625 1194 C 584 1194 549 1208 519 1238 C 489 1268 475 1304 475 1346 C 475 1386 489 1420 519 1450 C 549 1480 584 1495 625 1495 C 667 1495 702 1480 732 1450 C 761 1420 776 1386 776 1346 Z" unicode="i" />
<glyph horiz-adv-x="571" d="M 682 973 C 682 965 679 952 675 934 C 671 915 666 894 662 872 L 483 96 C 469 32 451 -25 429 -77 C 407 -129 374 -182 330 -236 C 304 -267 265 -302 213 -340 C 161 -378 100 -397 31 -397 C -32 -397 -79 -381 -111 -349 C -142 -317 -158 -284 -158 -250 C -158 -217 -146 -188 -124 -164 C -102 -139 -76 -127 -47 -127 C -30 -127 -7 -133 20 -147 C 48 -161 65 -202 70 -270 L 92 -270 C 98 -270 104 -268 112 -266 C 119 -263 124 -260 127 -256 C 133 -247 140 -233 149 -214 C 157 -194 166 -167 174 -133 L 348 659 C 350 673 353 690 357 709 C 360 728 362 741 362 748 C 362 766 355 779 342 785 C 329 791 312 799 291 807 C 286 807 280 810 274 816 C 267 821 264 829 264 840 C 264 846 265 855 267 865 C 269 875 272 882 274 887 L 285 915 C 354 924 413 935 461 947 C 509 959 549 971 580 981 C 603 989 619 995 627 999 C 635 1003 642 1006 649 1006 C 660 1006 668 1003 674 997 C 679 991 682 983 682 973 Z M 766 1346 C 766 1304 751 1268 721 1238 C 691 1208 656 1194 614 1194 C 573 1194 538 1208 509 1238 C 479 1268 465 1304 465 1346 C 465 1386 479 1420 509 1450 C 538 1480 573 1495 614 1495 C 656 1495 691 1480 721 1450 C 751 1420 766 1386 766 1346 Z" unicode="j" />
<glyph horiz-adv-x="1180" d="M 1237 791 C 1237 707 1205 638 1141 583 C 1077 528 1012 487 946 461 L 997 283 C 1011 229 1030 191 1052 170 C 1074 149 1099 139 1128 139 C 1139 139 1154 142 1172 148 C 1190 154 1203 159 1212 164 L 1223 125 C 1225 117 1227 109 1229 103 C 1231 96 1233 90 1233 84 C 1233 57 1208 32 1158 10 C 1108 -11 1060 -23 1012 -23 C 935 -23 874 2 830 52 C 786 102 746 207 711 367 L 483 324 L 412 0 L 156 0 L 459 1219 C 465 1240 469 1261 473 1282 C 477 1303 479 1321 479 1335 C 479 1343 474 1351 466 1357 C 458 1363 451 1368 446 1370 C 431 1376 418 1381 407 1387 C 396 1393 391 1400 391 1409 C 391 1413 391 1417 393 1422 C 395 1427 397 1432 399 1438 L 416 1495 L 788 1495 L 631 895 C 679 920 732 945 788 969 C 844 993 905 1006 973 1006 C 1055 1006 1120 985 1167 944 C 1213 902 1237 851 1237 791 Z M 975 723 C 975 748 966 774 948 800 C 930 826 900 840 858 840 C 838 840 806 833 762 821 C 717 809 660 779 590 731 L 518 465 C 634 479 739 507 833 550 C 927 592 975 650 975 723 Z" unicode="k" />
<glyph horiz-adv-x="573" d="M 410 1495 L 780 1495 L 473 281 C 469 264 465 247 462 229 C 458 211 457 194 457 180 C 457 168 462 157 472 149 C 482 141 492 137 502 137 C 514 137 525 138 533 140 C 541 142 557 147 580 156 L 604 115 C 608 108 610 101 611 95 C 611 89 612 84 612 80 C 612 58 589 36 543 12 C 497 -11 447 -23 393 -23 C 323 -23 274 -6 244 28 C 214 62 199 99 199 139 C 199 152 200 171 202 195 C 204 219 211 250 221 287 L 455 1217 C 459 1239 463 1261 467 1282 C 471 1303 473 1321 473 1335 C 473 1343 469 1351 461 1357 C 453 1363 446 1367 440 1370 C 425 1374 412 1380 402 1386 C 392 1392 387 1400 387 1409 C 387 1411 387 1415 389 1421 C 391 1427 392 1432 393 1438 L 410 1495 Z" unicode="l" />
<glyph horiz-adv-x="1831" d="M 1855 80 C 1855 58 1833 36 1789 12 C 1745 -11 1696 -23 1642 -23 C 1572 -23 1522 -6 1490 28 C 1458 62 1442 99 1442 139 C 1442 152 1443 170 1446 194 C 1449 218 1456 249 1466 287 L 1567 666 C 1569 674 1570 684 1572 697 C 1574 710 1575 723 1575 735 C 1575 761 1565 783 1545 800 C 1525 816 1500 825 1470 825 C 1417 825 1371 812 1331 788 C 1291 763 1260 741 1237 723 L 1055 0 L 795 0 L 958 662 C 960 670 962 681 964 695 C 966 708 967 721 967 733 C 967 758 956 780 935 798 C 914 816 888 825 858 825 C 806 825 759 812 719 788 C 678 763 646 741 623 723 L 442 0 L 186 0 L 354 662 C 356 670 359 686 364 708 C 368 730 371 744 371 752 C 371 770 365 781 353 787 C 341 792 324 799 303 807 C 298 807 292 810 286 816 C 279 821 276 829 276 840 C 276 846 277 855 280 865 C 282 875 285 882 287 887 L 297 915 C 365 924 420 935 462 948 C 504 961 539 973 569 983 C 592 991 607 996 614 1000 C 621 1004 628 1006 635 1006 C 647 1006 655 1003 660 997 C 665 991 668 983 668 973 C 668 965 665 951 661 931 C 656 911 651 889 645 866 C 683 894 729 925 782 957 C 835 989 898 1006 971 1006 C 1029 1006 1079 989 1123 957 C 1167 924 1197 886 1214 842 C 1274 890 1331 929 1387 960 C 1443 990 1507 1006 1579 1006 C 1658 1006 1720 981 1766 931 C 1812 881 1835 821 1835 752 C 1835 706 1830 665 1821 629 C 1812 593 1804 562 1798 537 L 1724 281 C 1719 263 1715 245 1711 225 C 1707 205 1706 190 1706 180 C 1706 168 1710 157 1720 149 C 1730 141 1739 137 1747 137 C 1760 137 1771 138 1779 140 C 1787 142 1802 147 1825 156 L 1849 115 C 1853 108 1855 101 1855 95 C 1855 89 1855 84 1855 80 Z" unicode="m" />
<glyph horiz-adv-x="1208" d="M 1255 80 C 1255 58 1232 36 1188 12 C 1144 -11 1095 -23 1042 -23 C 972 -23 921 -6 889 28 C 857 62 842 99 842 139 C 842 152 843 170 845 194 C 847 218 854 249 864 287 L 967 666 C 969 674 970 684 971 697 C 972 710 973 723 973 735 C 973 761 962 783 940 800 C 918 816 892 825 862 825 C 810 825 763 812 721 788 C 679 763 646 741 623 723 L 442 0 L 186 0 L 354 662 C 356 670 359 686 364 708 C 368 730 371 744 371 752 C 371 770 365 781 353 787 C 341 792 324 799 303 807 C 298 807 292 810 286 816 C 279 821 276 829 276 840 C 276 846 277 855 280 865 C 282 875 285 882 287 887 L 297 915 C 366 926 421 938 463 950 C 504 962 539 973 569 983 C 592 991 607 996 614 1000 C 621 1004 628 1006 635 1006 C 647 1006 655 1003 660 997 C 665 991 668 983 668 973 C 668 965 665 951 661 931 C 656 911 651 889 645 866 C 683 894 729 925 783 957 C 837 989 900 1006 973 1006 C 1052 1006 1115 981 1162 931 C 1209 881 1233 821 1233 752 C 1233 706 1228 665 1219 629 C 1210 593 1202 562 1196 537 L 1122 281 C 1117 263 1113 245 1109 225 C 1105 205 1104 190 1104 180 C 1104 168 1108 157 1118 149 C 1127 141 1136 137 1145 137 C 1157 137 1168 138 1176 140 C 1184 142 1200 147 1223 156 L 1247 115 C 1251 108 1253 101 1254 95 C 1254 89 1255 84 1255 80 Z" unicode="n" />
<glyph horiz-adv-x="1112" d="M 1200 561 C 1200 404 1143 267 1031 151 C 919 35 779 -23 612 -23 C 484 -23 381 18 303 102 C 225 185 186 288 186 410 C 186 560 237 697 341 821 C 445 944 586 1006 766 1006 C 886 1006 989 965 1073 884 C 1157 802 1200 695 1200 561 Z M 934 680 C 934 744 918 793 886 828 C 854 863 814 881 766 881 C 669 881 592 822 536 706 C 479 589 451 454 451 301 C 451 233 468 183 503 150 C 538 116 579 100 627 100 C 718 100 792 159 849 279 C 905 399 934 532 934 680 Z" unicode="o" />
<glyph horiz-adv-x="1188" d="M 1286 633 C 1286 452 1223 297 1097 169 C 971 41 826 -23 662 -23 C 614 -23 575 -16 544 -4 C 513 7 483 23 455 43 L 346 -389 L 84 -389 L 354 662 C 356 670 359 686 364 708 C 368 730 371 744 371 752 C 371 770 365 781 353 787 C 341 792 324 799 303 807 C 298 807 292 810 286 816 C 279 821 276 829 276 840 C 276 846 277 855 280 865 C 282 875 285 882 287 887 L 297 915 C 366 926 421 938 463 950 C 504 962 539 973 569 983 C 592 991 607 996 614 1000 C 621 1004 628 1006 635 1006 C 647 1006 655 1003 660 997 C 665 991 668 983 668 973 C 668 965 664 949 658 923 C 651 897 645 872 641 848 C 662 869 703 901 763 943 C 823 985 891 1006 967 1006 C 1068 1006 1146 969 1202 897 C 1258 825 1286 737 1286 633 Z M 1018 610 C 1018 668 1003 716 975 754 C 947 792 908 811 858 811 C 804 811 756 798 716 772 C 676 746 642 720 616 694 L 516 295 C 515 290 513 281 510 268 C 507 255 506 244 506 236 C 506 210 518 181 542 150 C 566 119 605 104 657 104 C 770 104 858 160 922 273 C 986 385 1018 498 1018 610 Z" unicode="p" />
<glyph horiz-adv-x="1159" d="M 1272 975 C 1272 969 1270 959 1267 946 C 1263 932 1259 919 1255 907 L 932 -389 L 674 -389 L 815 137 C 780 101 736 66 682 30 C 628 -5 565 -23 494 -23 C 393 -23 315 11 259 81 C 203 151 176 240 176 348 C 176 528 240 683 368 812 C 496 941 641 1006 803 1006 C 853 1006 894 1000 927 988 C 960 976 988 962 1012 948 C 1030 938 1046 931 1058 927 C 1070 923 1081 922 1092 922 C 1106 922 1121 926 1136 936 C 1151 945 1175 962 1208 987 C 1212 989 1218 993 1226 999 C 1233 1005 1241 1008 1249 1008 C 1260 1008 1267 1004 1269 997 C 1271 990 1272 983 1272 975 Z M 952 748 C 952 772 940 800 918 831 C 896 861 859 877 807 877 C 698 877 610 820 543 708 C 475 595 442 483 442 373 C 442 313 455 265 483 227 C 511 189 549 170 598 170 C 653 170 700 183 740 209 C 780 235 815 261 846 287 L 942 682 C 944 686 946 696 948 710 C 950 724 952 737 952 748 Z" unicode="q" />
<glyph horiz-adv-x="799" d="M 999 866 C 999 830 988 797 968 767 C 947 736 913 721 866 721 C 834 721 809 728 790 743 C 770 758 756 776 748 797 C 722 782 691 750 656 701 C 620 652 589 573 563 463 L 451 0 L 197 0 L 330 547 C 340 591 347 630 351 664 C 354 697 356 719 356 729 C 356 765 349 788 337 797 C 324 805 302 813 270 819 C 257 819 248 822 243 828 C 237 834 234 847 233 868 L 229 913 C 285 926 324 937 347 946 C 369 955 394 965 422 977 C 428 979 442 985 463 993 C 483 1001 495 1006 498 1006 C 521 1006 536 980 542 930 C 548 879 551 843 551 823 L 551 756 L 561 754 C 587 802 628 855 684 915 C 739 974 798 1004 862 1004 C 910 1004 944 989 966 961 C 988 932 999 900 999 866 Z" unicode="r" />
<glyph horiz-adv-x="883" d="M 999 803 C 999 763 986 734 960 716 C 934 698 907 690 881 690 C 850 690 823 699 801 719 C 779 738 768 765 768 799 C 768 805 769 813 771 821 C 773 829 776 840 780 854 C 769 856 752 861 730 868 C 707 875 685 879 664 879 C 628 879 593 871 560 855 C 526 839 510 814 510 780 C 510 761 516 739 530 714 C 543 688 575 660 627 629 L 784 530 C 824 505 860 471 892 429 C 924 387 940 339 940 287 C 940 200 900 126 821 65 C 741 3 640 -27 518 -27 C 391 -27 296 -1 233 50 C 170 102 139 153 139 203 C 139 245 152 279 179 304 C 206 329 236 342 270 342 C 310 342 341 331 361 309 C 381 287 391 261 391 231 C 391 223 390 213 389 202 C 387 191 383 174 375 152 C 403 135 430 122 456 113 C 482 104 510 100 541 100 C 587 100 627 111 659 135 C 691 158 707 185 707 217 C 707 245 695 272 673 298 C 650 324 619 349 580 375 L 406 485 C 354 517 319 552 300 590 C 281 628 272 664 272 700 C 272 784 311 856 390 916 C 469 976 564 1006 674 1006 C 765 1006 842 986 905 947 C 967 908 999 860 999 803 Z" unicode="s" />
<glyph horiz-adv-x="674" d="M 674 993 L 889 993 L 850 846 L 635 846 L 483 254 C 482 247 481 237 479 224 C 477 210 477 198 477 188 C 477 167 484 151 499 141 C 514 130 535 125 563 125 C 584 125 606 128 629 136 C 651 143 673 153 694 166 L 723 121 C 723 118 725 113 727 105 C 729 97 731 90 731 84 C 731 61 707 37 661 13 C 614 -10 556 -23 487 -23 C 437 -23 380 -10 318 14 C 256 39 225 99 225 195 C 225 218 227 241 231 265 C 235 289 239 306 242 317 L 377 846 L 262 846 L 283 926 C 289 950 297 966 307 973 C 317 980 345 989 389 999 C 404 1003 416 1015 424 1035 C 432 1054 438 1072 442 1090 L 487 1260 C 492 1282 508 1296 534 1302 C 560 1308 595 1311 637 1311 L 756 1311 L 674 993 Z" unicode="t" />
<glyph horiz-adv-x="1204" d="M 1282 973 C 1282 969 1280 959 1277 943 C 1274 927 1272 915 1270 907 L 1108 281 C 1103 260 1099 241 1095 223 C 1091 205 1090 190 1090 180 C 1090 168 1094 157 1103 149 C 1111 141 1120 137 1128 137 C 1141 137 1152 138 1160 140 C 1168 142 1183 147 1206 156 L 1231 115 C 1235 108 1237 101 1238 95 C 1238 89 1239 84 1239 80 C 1239 58 1212 36 1159 12 C 1106 -11 1056 -23 1010 -23 C 950 -23 907 -6 883 25 C 858 57 842 89 834 119 C 794 89 746 57 692 25 C 637 -6 574 -23 502 -23 C 421 -23 357 2 310 52 C 263 102 240 161 240 229 C 240 275 244 316 253 353 C 262 390 270 420 276 444 L 346 705 C 348 709 350 716 352 726 C 354 736 356 745 356 754 C 356 764 353 773 348 780 C 342 786 334 792 322 797 C 303 803 290 809 283 815 C 275 820 272 828 272 840 C 272 846 273 855 276 865 C 278 875 280 882 281 887 L 289 915 C 314 919 349 927 395 938 C 441 948 485 960 528 973 C 535 975 552 981 579 991 C 605 1001 623 1006 633 1006 C 645 1006 653 1002 658 995 C 663 988 666 981 666 973 C 666 964 664 951 660 935 C 656 919 653 907 651 899 L 508 344 C 504 327 501 310 500 293 C 498 276 498 262 498 250 C 498 223 508 201 530 183 C 552 165 578 156 610 156 C 662 156 709 168 752 193 C 795 217 828 239 852 258 L 967 709 C 967 715 969 723 971 734 C 973 745 975 754 975 760 C 975 770 970 778 962 784 C 954 790 946 795 940 797 C 921 803 908 809 901 815 C 894 820 891 828 891 840 C 891 846 892 855 895 865 C 898 875 900 882 901 887 L 909 915 C 943 921 981 929 1024 939 C 1067 949 1109 960 1149 973 C 1155 973 1172 979 1200 990 C 1228 1000 1246 1006 1255 1006 C 1266 1006 1273 1002 1277 995 C 1280 988 1282 981 1282 973 Z" unicode="u" />
<glyph horiz-adv-x="1063" d="M 1167 854 C 1167 620 1107 415 989 240 C 870 64 716 -23 526 -23 C 441 -23 373 1 322 50 C 271 99 246 163 246 242 C 246 288 249 327 256 360 C 263 392 270 421 276 446 L 346 705 C 348 709 349 716 351 726 C 353 736 354 745 354 754 C 354 764 351 773 346 780 C 340 786 331 792 319 797 C 300 803 287 809 279 815 C 271 820 268 828 268 840 C 268 846 269 855 271 865 C 273 875 275 882 276 887 L 285 915 C 310 919 346 927 392 938 C 438 948 483 960 526 973 C 537 975 555 981 580 991 C 604 1001 621 1006 631 1006 C 641 1006 649 1002 655 995 C 661 988 664 981 664 973 C 664 964 662 953 658 939 C 654 925 651 912 649 899 L 514 387 C 509 365 505 343 503 320 C 501 297 500 277 500 260 C 500 228 513 204 540 186 C 566 168 597 160 631 160 C 715 160 798 221 878 343 C 958 465 1002 627 1008 829 C 956 836 922 855 906 886 C 890 917 883 941 883 958 C 883 992 896 1020 923 1042 C 949 1064 978 1075 1008 1075 C 1068 1075 1109 1051 1132 1004 C 1155 957 1167 907 1167 854 Z" unicode="v" />
<glyph horiz-adv-x="1608" d="M 1714 854 C 1714 607 1657 399 1545 230 C 1433 61 1289 -23 1114 -23 C 1048 -23 993 -6 950 26 C 907 58 878 102 864 156 C 833 120 787 81 725 39 C 663 -2 600 -23 535 -23 C 450 -23 380 1 325 50 C 269 99 242 163 242 242 C 242 288 246 327 254 360 C 262 392 270 421 276 446 L 346 705 C 348 709 349 716 351 726 C 353 736 354 745 354 754 C 354 764 351 773 346 780 C 340 786 331 792 319 797 C 300 803 287 809 279 815 C 271 820 268 828 268 840 C 268 846 269 855 271 865 C 273 875 275 882 276 887 L 285 915 C 310 919 346 927 392 938 C 438 948 483 960 526 973 C 537 975 555 981 580 991 C 604 1001 621 1006 631 1006 C 641 1006 649 1002 655 995 C 661 988 664 981 664 973 C 664 964 662 953 658 939 C 654 925 651 912 649 899 L 516 387 C 511 365 507 343 504 321 C 501 299 500 278 500 260 C 500 228 510 204 530 186 C 550 168 576 160 610 160 C 654 160 696 176 736 208 C 775 240 808 303 834 399 L 991 981 L 1247 981 L 1090 387 C 1084 365 1080 343 1077 321 C 1074 299 1073 278 1073 260 C 1073 228 1081 203 1098 185 C 1114 167 1140 158 1174 158 C 1271 158 1358 218 1434 338 C 1510 458 1551 622 1559 829 C 1507 837 1472 852 1454 874 C 1436 896 1427 924 1427 958 C 1427 992 1440 1020 1466 1042 C 1492 1064 1520 1075 1552 1075 C 1606 1075 1647 1054 1674 1012 C 1700 970 1714 918 1714 854 Z" unicode="w" />
<glyph horiz-adv-x="1040" d="M 1249 883 C 1249 843 1235 812 1209 790 C 1182 768 1156 758 1130 758 C 1107 758 1090 762 1078 770 C 1066 778 1054 786 1044 795 C 1013 769 978 736 939 696 C 899 656 853 602 799 535 C 803 512 811 471 825 413 C 838 355 854 304 872 260 C 881 236 893 213 907 190 C 921 167 941 156 967 156 C 983 156 1001 159 1023 165 C 1045 171 1067 182 1090 197 L 1110 162 C 1114 154 1117 148 1119 143 C 1121 137 1122 133 1122 129 C 1122 104 1100 72 1057 34 C 1014 -3 956 -23 883 -23 C 795 -23 733 10 697 77 C 661 143 630 236 606 354 C 514 216 439 119 379 64 C 319 9 265 -18 217 -18 C 177 -18 145 -4 122 23 C 99 50 88 81 88 115 C 88 140 97 168 117 198 C 136 228 168 244 213 244 C 236 244 254 239 267 231 C 279 222 293 211 307 199 C 345 230 382 264 416 300 C 450 336 499 400 563 494 C 543 567 526 624 511 665 C 495 705 478 746 459 788 C 454 797 446 807 436 819 C 425 830 410 836 391 836 C 381 836 369 833 355 829 C 341 824 317 810 281 786 L 248 823 C 245 827 243 831 241 836 C 239 841 238 847 238 854 C 238 874 260 904 304 942 C 348 980 405 999 477 999 C 566 999 630 962 669 888 C 707 814 738 741 762 670 C 814 736 874 807 942 884 C 1010 960 1073 999 1130 999 C 1160 999 1187 989 1212 970 C 1236 950 1249 921 1249 883 Z" unicode="x" />
<glyph horiz-adv-x="1012" d="M 1182 879 C 1182 854 1178 824 1170 789 C 1162 754 1142 707 1108 647 C 1065 573 1029 513 999 467 C 969 421 947 389 934 371 L 713 61 C 637 -43 553 -146 461 -247 C 369 -348 274 -399 176 -399 C 121 -399 77 -384 43 -355 C 9 -325 -8 -290 -8 -248 C -8 -218 3 -189 25 -162 C 47 -134 79 -121 119 -121 C 127 -121 148 -126 183 -136 C 218 -146 239 -182 246 -244 C 284 -234 331 -202 385 -146 C 439 -90 481 -42 510 -2 L 377 684 C 366 734 354 773 341 801 C 327 828 304 842 270 842 C 255 842 240 839 226 834 C 211 828 201 825 197 823 L 170 864 C 169 868 167 872 164 877 C 161 882 160 888 160 895 C 160 920 186 945 239 969 C 291 993 341 1006 387 1006 C 429 1006 473 992 519 965 C 565 937 598 868 618 756 L 709 268 C 734 306 769 358 813 426 C 857 493 895 554 928 608 C 942 632 955 657 969 683 C 983 708 994 733 1004 758 C 980 770 960 785 945 805 C 929 824 922 850 922 883 C 922 909 933 936 955 964 C 977 992 1009 1006 1051 1006 C 1090 1006 1122 993 1146 967 C 1170 941 1182 911 1182 879 Z" unicode="y" />
<glyph horiz-adv-x="958" d="M 1067 1024 L 1122 936 C 952 760 821 629 730 541 C 638 453 523 336 383 188 L 387 184 C 412 192 443 201 479 209 C 515 217 549 221 582 221 C 628 221 672 215 714 204 C 756 192 797 175 838 152 C 844 148 851 144 860 140 C 868 135 877 133 887 133 C 891 133 898 135 906 140 C 914 144 918 152 918 164 C 918 170 915 181 909 195 C 903 209 890 225 870 244 C 862 250 856 258 852 267 C 848 275 846 286 846 299 C 846 328 856 351 877 368 C 897 384 918 393 940 393 C 959 393 983 384 1012 367 C 1040 349 1055 315 1055 264 C 1055 179 1023 110 961 58 C 898 6 831 -20 760 -20 C 740 -20 714 -17 682 -12 C 650 -7 611 -2 565 4 C 533 8 499 11 461 13 C 423 15 388 16 358 16 C 303 16 248 13 192 8 C 136 2 109 0 109 0 L 82 66 L 801 793 L 797 799 C 766 792 738 787 713 784 C 687 781 663 780 641 780 C 626 780 590 783 533 789 C 476 795 441 799 428 799 C 393 799 366 789 346 771 C 326 752 310 736 299 723 L 254 754 C 246 758 241 764 240 770 C 238 776 238 780 238 782 C 238 790 258 829 300 898 C 341 966 412 1001 512 1001 C 529 1001 546 1000 564 998 C 582 996 620 991 680 985 C 692 983 718 980 756 976 C 794 972 825 971 848 971 C 917 971 966 977 995 990 C 1023 1002 1047 1014 1067 1024 Z" unicode="z" />
<glyph horiz-adv-x="782" d="M 1094 1501 L 1073 1413 C 970 1392 899 1361 860 1320 C 820 1279 793 1219 778 1139 C 770 1091 763 1049 759 1012 C 755 974 749 939 743 905 C 725 803 676 725 596 671 C 516 617 435 579 352 557 C 409 535 458 500 500 452 C 542 404 563 349 563 287 C 563 274 562 261 561 249 C 560 237 559 223 557 209 C 551 174 543 138 533 102 C 523 65 514 23 506 -25 C 503 -45 500 -64 498 -81 C 495 -97 494 -114 494 -131 C 494 -177 502 -217 519 -249 C 535 -281 575 -304 639 -319 L 614 -403 C 505 -403 418 -372 352 -310 C 286 -248 254 -169 254 -74 C 254 -59 254 -44 256 -28 C 257 -12 259 3 262 18 C 270 60 281 101 295 143 C 308 185 318 225 326 264 C 328 280 331 296 333 312 C 335 328 336 343 336 358 C 336 402 327 438 311 467 C 294 495 259 516 205 528 L 225 608 C 302 621 361 645 401 681 C 441 717 469 776 483 860 C 490 898 496 938 500 980 C 504 1022 510 1063 518 1104 C 541 1230 610 1328 725 1397 C 840 1466 963 1501 1094 1501 Z" unicode="{" />
<glyph horiz-adv-x="186" d="M 373 1495 L 373 -389 L 199 -389 L 199 1495 L 373 1495 Z" unicode="|" />
<glyph horiz-adv-x="782" d="M 887 569 L 866 489 C 788 476 730 452 690 416 C 650 380 622 321 608 238 C 601 200 596 160 592 118 C 588 76 581 34 573 -6 C 549 -132 480 -230 365 -299 C 249 -368 127 -403 -2 -403 L 18 -315 C 120 -294 191 -263 231 -223 C 271 -182 298 -121 313 -41 C 321 5 328 47 332 85 C 336 123 342 159 348 193 C 366 294 415 372 495 426 C 574 480 655 518 739 541 C 682 562 633 597 591 645 C 549 693 528 749 528 811 C 528 823 528 836 529 848 C 530 860 532 874 535 889 C 541 923 548 958 558 995 C 568 1031 577 1074 586 1122 C 588 1142 591 1161 594 1178 C 596 1195 598 1212 598 1229 C 598 1275 589 1314 573 1346 C 556 1378 516 1401 453 1417 L 477 1501 C 587 1501 674 1470 740 1408 C 805 1346 838 1267 838 1171 C 838 1157 837 1142 836 1126 C 834 1110 832 1094 829 1079 C 821 1037 810 995 796 953 C 782 911 772 872 766 834 C 763 817 761 801 759 785 C 757 769 756 754 756 739 C 756 695 764 658 781 630 C 797 602 833 581 887 569 Z" unicode="}" />
<glyph horiz-adv-x="1528" d="M 1370 846 L 1495 846 C 1488 718 1453 612 1390 527 C 1327 441 1245 399 1143 399 C 1102 399 1066 406 1036 422 C 1005 438 963 465 909 504 C 865 535 826 561 794 581 C 761 601 726 612 690 612 C 636 612 597 587 574 538 C 550 488 534 434 526 375 L 401 375 C 408 501 444 607 508 691 C 572 775 654 817 754 817 C 806 817 847 809 877 794 C 907 779 946 755 993 723 C 1037 691 1076 663 1108 641 C 1140 619 1173 608 1206 608 C 1260 608 1298 632 1322 682 C 1346 731 1362 786 1370 846 Z" unicode="~" />
<glyph horiz-adv-x="434" d="" unicode="" />
<glyph horiz-adv-x="600" d="M 410 643 L 512 616 C 481 476 457 353 439 247 C 421 141 409 30 403 -84 C 399 -161 387 -234 367 -303 C 347 -371 300 -406 225 -406 C 180 -406 143 -392 114 -366 C 84 -340 70 -306 70 -264 C 70 -239 73 -213 80 -185 C 87 -157 105 -111 135 -47 C 183 59 219 141 243 199 C 267 257 302 349 348 477 C 358 504 370 535 383 570 C 395 605 404 629 410 643 Z M 707 967 C 707 923 691 885 659 853 C 627 821 589 805 545 805 C 500 805 461 821 429 853 C 397 885 381 923 381 967 C 381 1011 397 1050 429 1082 C 461 1114 500 1130 545 1130 C 589 1130 627 1114 659 1082 C 691 1050 707 1011 707 967 Z" unicode="" />
<glyph horiz-adv-x="989" d="M 1124 956 C 1124 918 1112 887 1089 861 C 1065 835 1037 823 1004 823 C 974 823 946 833 920 855 C 894 876 881 906 881 944 C 881 950 881 959 883 969 C 885 979 887 991 889 1004 C 877 1014 865 1022 852 1028 C 839 1034 823 1038 805 1038 C 721 1038 658 993 614 904 C 570 815 549 731 549 653 C 549 575 567 514 604 472 C 640 429 688 408 748 408 C 794 408 834 415 869 430 C 904 445 940 467 977 496 L 1022 432 C 1026 425 1030 419 1033 413 C 1036 407 1038 401 1038 395 C 1038 364 1001 332 927 298 C 853 264 771 248 680 248 L 672 248 L 602 -20 L 492 -20 L 567 260 C 475 282 408 329 364 399 C 320 469 299 549 299 639 C 299 747 342 857 430 970 C 517 1083 637 1146 791 1159 L 844 1366 L 954 1366 L 899 1157 C 981 1147 1039 1120 1073 1076 C 1107 1032 1124 992 1124 956 Z" unicode="" />
<glyph horiz-adv-x="1143" d="M 1307 1167 C 1307 1119 1292 1083 1263 1059 C 1233 1035 1204 1024 1176 1024 C 1144 1024 1116 1034 1092 1056 C 1068 1078 1057 1107 1057 1143 C 1057 1161 1059 1177 1064 1190 C 1069 1202 1075 1216 1081 1231 C 1069 1239 1054 1246 1037 1252 C 1019 1257 1000 1260 979 1260 C 949 1260 912 1243 867 1211 C 821 1179 792 1121 780 1038 C 772 984 769 936 772 894 C 774 852 772 799 764 735 L 1044 735 L 1014 623 L 745 623 C 726 548 702 487 672 440 C 642 393 611 345 578 295 C 606 271 647 246 700 218 C 752 190 807 176 864 176 C 875 176 888 177 904 179 C 919 181 932 185 942 190 C 942 243 956 281 986 303 C 1015 325 1043 336 1071 336 C 1109 336 1140 321 1163 293 C 1186 265 1198 232 1198 195 C 1198 128 1168 77 1110 41 C 1051 5 985 -12 913 -12 C 839 -12 759 8 675 49 C 591 89 527 126 483 158 C 450 100 417 56 383 26 C 349 -4 312 -20 274 -20 C 232 -20 204 -7 191 18 C 178 43 172 64 172 82 C 172 124 185 157 213 180 C 240 202 282 234 340 276 C 388 310 422 357 443 416 C 463 475 480 544 494 623 L 285 623 L 315 735 L 500 735 C 500 760 501 782 502 801 C 503 819 506 841 510 866 C 535 1037 595 1168 690 1259 C 784 1349 893 1395 1016 1395 C 1104 1395 1175 1372 1228 1327 C 1280 1282 1307 1229 1307 1167 Z" unicode="" />
<glyph horiz-adv-x="1171" d="M 1356 1169 C 1356 1115 1341 1076 1312 1053 C 1282 1029 1253 1018 1225 1018 C 1189 1018 1157 1030 1130 1056 C 1103 1081 1090 1115 1090 1157 C 1090 1174 1092 1190 1096 1204 C 1100 1218 1107 1234 1116 1251 C 1103 1257 1090 1262 1078 1264 C 1065 1266 1051 1268 1036 1268 C 960 1268 893 1233 837 1164 C 780 1095 732 996 692 868 L 1055 868 L 1032 764 L 666 764 C 659 737 653 712 648 688 C 642 664 637 638 633 608 L 944 608 L 922 504 L 618 504 C 616 486 614 470 614 455 C 614 440 614 426 614 412 C 614 318 633 250 673 206 C 712 162 767 141 838 141 C 896 141 956 161 1016 202 C 1076 243 1124 287 1161 334 L 1206 272 C 1211 266 1215 259 1218 253 C 1221 246 1223 240 1223 236 C 1223 206 1178 155 1090 85 C 1001 15 891 -20 760 -20 C 629 -20 529 23 459 109 C 389 195 354 306 354 440 C 354 450 354 461 354 471 C 354 481 355 492 356 504 L 207 504 L 231 608 L 367 608 C 371 636 375 662 380 688 C 384 713 390 738 397 764 L 256 764 L 279 868 L 432 868 C 495 1038 584 1168 698 1259 C 812 1349 932 1395 1059 1395 C 1147 1395 1219 1374 1274 1332 C 1328 1290 1356 1236 1356 1169 Z" unicode="" />
<glyph horiz-adv-x="1343" d="M 1200 1376 L 1642 1376 L 1630 1327 C 1623 1300 1617 1282 1611 1273 C 1605 1264 1582 1251 1542 1235 C 1527 1229 1507 1214 1483 1191 C 1459 1167 1438 1145 1421 1124 L 1151 801 L 1405 801 L 1376 692 L 1055 692 L 928 543 L 1343 543 L 1315 434 L 897 434 L 860 285 C 856 267 852 249 848 230 C 844 211 842 194 842 180 C 842 169 845 160 853 154 C 860 148 873 140 893 131 C 905 125 915 120 922 116 C 928 112 932 106 932 98 C 932 93 931 88 929 82 C 927 76 926 72 926 68 L 907 0 L 426 0 L 436 57 C 440 80 445 96 451 105 C 457 113 475 123 506 133 C 527 139 543 149 555 162 C 566 175 577 201 588 240 L 639 434 L 256 434 L 285 543 L 662 543 L 670 575 L 633 692 L 317 692 L 346 801 L 600 801 L 504 1106 C 491 1146 476 1177 460 1199 C 443 1221 426 1235 408 1241 C 392 1245 381 1251 373 1258 C 365 1264 362 1273 362 1284 C 362 1290 363 1296 365 1302 C 367 1308 369 1315 371 1323 L 385 1376 L 874 1376 L 866 1333 C 862 1311 856 1294 850 1280 C 844 1266 829 1255 807 1247 C 782 1239 767 1232 761 1227 C 755 1222 752 1212 752 1198 C 752 1188 753 1175 756 1160 C 759 1144 763 1129 768 1114 L 889 727 L 1208 1122 C 1214 1130 1224 1144 1236 1163 C 1248 1181 1255 1198 1255 1212 C 1255 1221 1251 1228 1243 1232 C 1235 1236 1227 1241 1219 1245 C 1210 1249 1202 1253 1194 1258 C 1186 1262 1182 1270 1182 1280 C 1182 1282 1182 1287 1184 1295 C 1185 1303 1186 1308 1186 1311 L 1200 1376 Z" unicode="" />
<glyph horiz-adv-x="1036" d="M 1243 1255 C 1243 1208 1229 1171 1201 1145 C 1173 1119 1138 1106 1096 1106 C 1058 1106 1027 1118 1003 1143 C 979 1167 967 1198 967 1235 C 967 1259 973 1281 985 1299 C 997 1317 1013 1334 1032 1350 C 1011 1360 990 1369 970 1379 C 949 1388 920 1393 883 1393 C 823 1393 776 1375 742 1341 C 708 1307 692 1269 692 1229 C 692 1185 704 1147 730 1115 C 756 1083 787 1047 825 1008 L 969 860 C 1051 774 1100 709 1114 665 C 1128 620 1135 578 1135 539 C 1135 439 1101 361 1035 305 C 968 249 910 211 860 190 C 882 150 897 116 903 89 C 909 61 913 36 913 14 C 913 -87 876 -171 802 -239 C 728 -306 627 -340 500 -340 C 390 -340 307 -315 250 -265 C 192 -215 164 -162 164 -104 C 164 -56 178 -19 207 6 C 235 32 271 45 313 45 C 351 45 381 33 405 9 C 428 -14 440 -44 440 -80 C 440 -106 434 -128 422 -146 C 410 -163 396 -179 379 -195 C 398 -205 418 -216 438 -226 C 458 -236 486 -242 524 -242 C 588 -242 636 -224 668 -188 C 700 -152 717 -114 717 -74 C 717 -29 704 9 678 41 C 652 73 621 107 584 145 L 438 293 C 362 370 316 434 299 484 C 282 534 274 578 274 614 C 274 712 306 788 370 843 C 434 898 493 939 549 965 C 526 1005 511 1038 505 1063 C 499 1088 496 1114 496 1141 C 496 1229 529 1310 595 1382 C 661 1454 767 1491 911 1491 C 1017 1491 1098 1466 1156 1417 C 1214 1368 1243 1314 1243 1255 Z M 938 438 C 938 459 934 484 926 514 C 918 543 896 576 862 612 L 649 838 C 641 846 632 854 624 863 C 616 871 608 882 600 895 C 559 872 527 847 505 819 C 482 791 471 755 471 713 C 471 691 475 666 483 638 C 491 609 512 577 547 541 L 760 317 C 766 308 774 299 782 290 C 790 280 800 269 813 256 C 851 280 881 306 904 334 C 926 361 938 396 938 438 Z" unicode="" />
<glyph horiz-adv-x="840" d="M 565 1292 C 565 1256 552 1226 526 1201 C 500 1175 470 1163 434 1163 C 398 1163 367 1175 341 1201 C 315 1226 303 1256 303 1292 C 303 1328 315 1358 341 1384 C 367 1410 398 1423 434 1423 C 470 1423 500 1410 526 1384 C 552 1358 565 1328 565 1292 Z M 1006 1292 C 1006 1256 993 1226 967 1201 C 941 1175 910 1163 874 1163 C 838 1163 808 1175 782 1201 C 756 1226 743 1256 743 1292 C 743 1328 756 1358 782 1384 C 808 1410 838 1423 874 1423 C 910 1423 941 1410 967 1384 C 993 1358 1006 1328 1006 1292 Z" unicode="" />
<glyph horiz-adv-x="1671" d="M 1317 553 L 1380 492 C 1359 449 1319 404 1260 357 C 1201 310 1128 287 1040 287 C 904 287 801 330 731 417 C 661 504 627 605 627 721 C 627 867 672 976 762 1050 C 852 1124 942 1161 1034 1161 C 1072 1161 1105 1156 1135 1148 C 1165 1139 1197 1124 1231 1104 C 1233 1102 1236 1100 1238 1098 C 1240 1096 1242 1096 1245 1098 C 1256 1104 1264 1109 1268 1112 C 1272 1114 1278 1116 1284 1116 L 1337 1116 L 1337 868 L 1272 868 C 1259 868 1250 871 1245 877 C 1239 883 1235 891 1233 899 C 1219 941 1197 980 1167 1014 C 1137 1048 1099 1065 1055 1065 C 1003 1065 951 1038 900 986 C 848 934 823 847 823 727 C 823 620 844 538 888 481 C 931 423 985 395 1051 395 C 1120 395 1176 414 1220 453 C 1264 492 1296 525 1317 553 Z M 1790 729 C 1790 521 1716 344 1569 198 C 1421 52 1242 -20 1030 -20 C 818 -20 638 52 491 198 C 343 344 270 521 270 729 C 270 937 343 1114 491 1261 C 638 1407 818 1481 1030 1481 C 1242 1481 1421 1407 1569 1261 C 1716 1114 1790 937 1790 729 Z M 1704 729 C 1704 913 1638 1072 1507 1205 C 1376 1338 1217 1405 1030 1405 C 842 1405 683 1338 553 1205 C 423 1072 358 913 358 729 C 358 544 423 385 553 253 C 683 121 842 55 1030 55 C 1217 55 1376 121 1507 253 C 1638 385 1704 544 1704 729 Z" unicode="" />
<glyph horiz-adv-x="942" d="M 1147 1393 C 1147 1389 1146 1386 1145 1382 C 1144 1378 1143 1374 1143 1370 C 1142 1365 1141 1360 1139 1355 C 1137 1350 1135 1345 1135 1341 L 1018 887 C 1014 872 1010 858 1008 846 C 1005 833 1004 823 1004 817 C 1004 812 1006 807 1011 803 C 1015 799 1020 797 1024 797 C 1028 797 1031 797 1034 797 C 1036 797 1039 798 1042 799 C 1046 799 1051 801 1057 803 C 1062 805 1070 808 1081 813 L 1104 774 C 1106 769 1108 764 1110 760 C 1111 755 1112 749 1112 743 C 1112 722 1090 703 1047 685 C 1004 667 966 659 932 659 C 887 659 856 671 838 696 C 820 721 809 745 805 768 C 779 743 747 719 707 695 C 667 671 622 659 573 659 C 497 659 438 685 397 739 C 356 792 336 859 336 940 C 336 1073 383 1187 477 1282 C 571 1377 678 1425 799 1425 C 837 1425 870 1420 896 1410 C 922 1400 943 1390 958 1380 C 966 1375 975 1371 985 1367 C 994 1363 1003 1362 1012 1362 C 1020 1362 1028 1365 1037 1372 C 1046 1379 1061 1391 1083 1409 C 1086 1411 1091 1415 1099 1420 C 1106 1424 1113 1427 1120 1427 C 1132 1427 1140 1423 1143 1416 C 1145 1409 1147 1401 1147 1393 Z M 903 1229 C 903 1245 895 1264 879 1285 C 863 1306 838 1317 803 1317 C 726 1317 664 1277 616 1197 C 568 1117 545 1037 545 956 C 545 914 554 880 572 854 C 590 828 615 815 649 815 C 687 815 719 824 747 842 C 775 860 800 879 823 899 L 897 1186 C 897 1192 898 1199 900 1207 C 902 1214 903 1221 903 1229 Z" unicode="" />
<glyph horiz-adv-x="1065" d="M 645 897 L 786 897 L 465 514 L 614 143 L 473 143 L 254 455 C 249 461 245 469 241 477 C 237 485 236 494 236 504 C 236 520 241 535 251 549 C 261 563 271 575 283 586 L 645 897 Z M 1073 897 L 1214 897 L 891 514 L 1042 143 L 901 143 L 682 455 C 677 461 673 469 669 477 C 665 485 664 494 664 504 C 664 520 669 535 679 549 C 689 563 699 575 711 586 L 1073 897 Z" unicode="" />
<glyph horiz-adv-x="1528" d="M 1485 707 L 1485 72 L 1311 72 L 1311 532 L 410 532 L 410 707 L 1485 707 Z" unicode="" />
<glyph horiz-adv-x="596" d="M 246 629 L 692 629 L 629 391 L 182 391 L 246 629 Z" unicode="" />
<glyph horiz-adv-x="1036" d="M 944 983 L 1044 764 L 934 764 L 844 969 L 754 969 L 754 764 L 651 764 L 651 1290 L 866 1290 C 910 1290 950 1276 988 1250 C 1025 1224 1044 1185 1044 1133 C 1044 1099 1035 1068 1018 1042 C 1001 1016 976 996 944 983 Z M 1327 1034 C 1327 900 1279 786 1183 691 C 1087 596 973 549 840 549 C 706 549 591 596 495 691 C 399 786 352 900 352 1034 C 352 1168 399 1282 495 1378 C 591 1474 706 1522 840 1522 C 973 1522 1087 1474 1183 1378 C 1279 1282 1327 1168 1327 1034 Z M 1257 1034 C 1257 1149 1216 1247 1134 1329 C 1052 1411 954 1452 840 1452 C 724 1452 626 1411 544 1329 C 462 1247 422 1149 422 1034 C 422 919 462 821 544 739 C 626 657 724 616 840 616 C 954 616 1052 657 1134 739 C 1216 821 1257 919 1257 1034 Z M 930 1130 C 930 1152 922 1167 908 1177 C 894 1187 877 1192 858 1192 L 754 1192 L 754 1069 L 856 1069 C 870 1069 886 1073 904 1083 C 921 1093 930 1108 930 1130 Z" unicode="" />
<glyph horiz-adv-x="840" d="M 332 1378 L 987 1378 L 946 1223 L 291 1223 L 332 1378 Z" unicode="" />
<glyph horiz-adv-x="764" d="M 954 1202 C 954 1120 924 1051 866 993 C 808 935 738 907 657 907 C 575 907 505 935 447 993 C 389 1051 360 1120 360 1202 C 360 1283 389 1352 447 1410 C 505 1468 575 1497 657 1497 C 738 1497 808 1468 866 1410 C 924 1352 954 1283 954 1202 Z M 813 1202 C 813 1246 798 1285 770 1319 C 742 1353 704 1370 657 1370 C 610 1370 572 1353 544 1319 C 516 1285 502 1246 502 1202 C 502 1157 516 1118 544 1084 C 572 1050 610 1034 657 1034 C 704 1034 742 1050 770 1084 C 798 1118 813 1157 813 1202 Z" unicode="" />
<glyph horiz-adv-x="1528" d="M 1507 807 L 1507 633 L 1047 633 L 1047 244 L 872 244 L 872 633 L 412 633 L 412 807 L 872 807 L 872 1196 L 1047 1196 L 1047 807 L 1507 807 Z M 1507 174 L 1507 0 L 412 0 L 412 174 L 1507 174 Z" unicode="" />
<glyph horiz-adv-x="922" d="M 1069 1288 C 1069 1231 1052 1182 1019 1141 C 985 1099 952 1068 920 1047 L 825 983 C 765 942 712 908 668 882 C 624 855 589 835 565 823 L 571 813 L 813 813 C 829 813 844 816 857 822 C 869 828 882 846 895 877 C 897 883 900 888 906 892 C 912 896 925 897 946 893 L 987 885 L 926 664 L 340 664 L 369 768 C 413 810 451 843 483 869 C 515 894 539 912 555 924 L 715 1044 C 746 1068 782 1103 822 1149 C 862 1195 883 1249 883 1311 C 883 1346 870 1372 845 1390 C 820 1408 793 1417 764 1417 C 741 1417 722 1413 707 1407 C 691 1400 675 1391 659 1380 C 672 1368 681 1357 687 1347 C 693 1337 696 1325 696 1309 C 696 1286 687 1264 671 1243 C 654 1222 630 1212 600 1212 C 572 1212 548 1220 527 1238 C 506 1255 496 1278 496 1307 C 496 1353 521 1399 572 1445 C 622 1490 695 1513 791 1513 C 865 1513 929 1495 985 1460 C 1041 1424 1069 1367 1069 1288 Z" unicode="" />
<glyph horiz-adv-x="881" d="M 1040 1313 C 1040 1249 1016 1202 969 1173 C 921 1143 873 1121 823 1106 C 865 1083 899 1057 927 1029 C 955 1001 969 964 969 918 C 969 838 936 774 871 725 C 806 675 720 651 614 651 C 536 651 469 665 413 695 C 357 725 330 768 330 825 C 330 851 338 874 356 892 C 373 910 396 920 426 920 C 452 920 474 911 491 895 C 507 878 516 853 516 819 C 516 812 515 805 514 799 C 513 792 512 784 512 776 C 525 767 539 760 554 755 C 568 750 584 748 602 748 C 664 748 708 768 736 808 C 764 848 778 893 778 944 C 778 998 758 1032 719 1046 C 679 1060 636 1068 590 1071 L 616 1157 C 650 1157 677 1158 695 1159 C 713 1160 734 1164 758 1171 C 787 1180 810 1199 828 1228 C 845 1256 854 1289 854 1325 C 854 1353 845 1376 827 1392 C 809 1408 787 1417 760 1417 C 747 1417 735 1415 724 1412 C 712 1409 700 1405 688 1401 C 690 1391 691 1384 692 1379 C 693 1374 694 1370 694 1366 C 694 1338 684 1318 664 1305 C 644 1292 624 1286 604 1286 C 578 1286 557 1293 541 1309 C 524 1324 516 1344 516 1370 C 516 1410 537 1443 581 1471 C 625 1499 682 1513 754 1513 C 845 1513 915 1492 965 1452 C 1015 1412 1040 1365 1040 1313 Z" unicode="" />
<glyph horiz-adv-x="840" d="M 940 1409 C 940 1388 932 1368 917 1349 C 902 1329 877 1308 842 1286 L 545 1100 L 481 1143 L 721 1446 C 743 1474 765 1492 787 1499 C 809 1505 828 1509 846 1509 C 875 1509 898 1499 915 1479 C 931 1459 940 1435 940 1409 Z" unicode="" />
<glyph horiz-adv-x="1343" d="M 952 1495 L 1628 1495 L 1620 1460 C 1612 1426 1605 1407 1600 1402 C 1595 1396 1572 1384 1530 1366 C 1518 1361 1508 1352 1498 1339 C 1488 1325 1476 1295 1464 1249 L 1128 -31 C 1125 -43 1122 -58 1118 -76 C 1114 -94 1112 -109 1112 -121 C 1112 -129 1114 -138 1118 -146 C 1122 -154 1131 -162 1145 -170 C 1161 -178 1174 -184 1182 -187 C 1190 -190 1194 -197 1194 -209 C 1194 -215 1193 -221 1191 -229 C 1189 -236 1188 -244 1186 -252 L 1176 -291 L 868 -291 L 1311 1386 L 1147 1386 L 705 -291 L 414 -291 L 422 -256 C 430 -222 436 -202 441 -197 C 446 -192 470 -180 512 -162 C 523 -157 533 -148 543 -136 C 553 -124 564 -93 578 -43 L 750 610 C 614 612 505 641 425 697 C 345 753 305 844 305 971 C 305 1126 358 1252 465 1349 C 571 1446 734 1495 952 1495 Z M 782 735 L 952 1384 C 840 1381 758 1331 706 1235 C 654 1138 629 1038 629 936 C 629 870 643 821 672 791 C 700 760 737 741 782 735 Z" unicode="" />
<glyph horiz-adv-x="557" d="M 600 643 C 600 598 584 559 552 527 C 520 495 482 479 438 479 C 393 479 354 495 322 527 C 290 559 274 598 274 643 C 274 687 290 725 322 757 C 354 789 393 805 438 805 C 482 805 520 789 552 757 C 584 725 600 687 600 643 Z" unicode="" />
<glyph horiz-adv-x="840" d="M 754 -258 C 754 -300 733 -343 692 -388 C 651 -432 579 -455 477 -455 C 415 -455 360 -441 314 -415 C 267 -389 227 -363 195 -338 L 256 -262 C 284 -281 316 -300 350 -320 C 384 -340 424 -350 471 -350 C 511 -350 537 -339 550 -319 C 562 -299 569 -280 569 -264 C 569 -247 561 -231 547 -217 C 532 -202 507 -195 473 -195 C 466 -195 456 -195 444 -196 C 432 -197 418 -199 403 -201 L 535 0 L 635 0 L 575 -100 C 632 -105 676 -122 707 -150 C 738 -178 754 -214 754 -258 Z" unicode="" />
<glyph horiz-adv-x="713" d="M 713 1516 L 846 1516 L 668 864 C 665 852 662 839 660 827 C 658 814 657 803 657 795 C 657 785 660 776 667 767 C 674 757 685 749 700 743 C 709 739 718 735 727 733 C 736 731 741 727 741 723 C 741 718 740 713 739 709 C 738 704 737 698 735 692 L 727 664 L 332 664 L 338 688 C 344 710 350 723 357 725 C 363 727 381 734 410 748 C 422 754 434 761 447 771 C 459 781 470 804 479 840 L 623 1370 L 496 1370 L 508 1417 C 510 1426 512 1433 516 1439 C 520 1444 525 1448 532 1450 L 713 1516 Z" unicode="" />
<glyph horiz-adv-x="942" d="M 1096 1092 C 1096 975 1053 873 969 786 C 884 698 779 655 655 655 C 558 655 481 687 423 751 C 365 815 336 891 336 981 C 336 1101 376 1205 456 1293 C 536 1381 640 1425 768 1425 C 862 1425 941 1393 1003 1331 C 1065 1269 1096 1189 1096 1092 Z M 885 1180 C 885 1224 873 1259 851 1283 C 828 1307 800 1319 768 1319 C 701 1319 647 1278 605 1197 C 563 1115 543 1017 543 903 C 543 855 555 820 580 797 C 605 773 634 762 666 762 C 731 762 784 806 824 894 C 864 982 885 1077 885 1180 Z" unicode="" />
<glyph horiz-adv-x="1065" d="M 692 537 C 692 520 687 505 677 491 C 667 477 656 465 645 455 L 283 143 L 141 143 L 465 526 L 313 897 L 455 897 L 674 586 C 678 578 682 570 686 562 C 690 554 692 545 692 537 Z M 1120 537 C 1120 520 1115 505 1105 491 C 1095 477 1084 465 1073 455 L 711 143 L 569 143 L 893 526 L 741 897 L 883 897 L 1102 586 C 1106 578 1110 570 1114 562 C 1118 554 1120 545 1120 537 Z" unicode="" />
<glyph horiz-adv-x="1452" d="M 598 1516 L 731 1516 L 553 864 C 550 852 548 839 546 827 C 544 814 543 803 543 795 C 543 785 546 776 553 767 C 559 757 570 749 586 743 C 594 739 603 735 613 733 C 622 731 627 727 627 723 C 627 718 626 713 625 709 C 624 704 623 698 621 692 L 612 664 L 217 664 L 223 688 C 229 710 236 723 242 725 C 248 727 266 734 295 748 C 307 754 319 761 332 771 C 344 781 355 804 365 840 L 508 1370 L 381 1370 L 393 1417 C 395 1426 397 1433 401 1439 C 405 1444 410 1448 418 1450 L 598 1516 Z M 1386 1516 L 1526 1516 L 381 0 L 244 0 L 1386 1516 Z M 1394 853 L 1519 853 L 1371 314 L 1488 314 L 1463 220 L 1343 220 C 1337 196 1333 178 1330 164 C 1327 150 1326 138 1326 130 C 1326 121 1328 113 1334 105 C 1339 97 1350 88 1367 80 C 1371 76 1377 72 1384 70 C 1390 68 1394 64 1394 60 C 1394 57 1393 53 1392 47 C 1391 41 1390 36 1388 31 L 1379 1 L 1033 1 L 1039 27 C 1044 48 1050 61 1057 65 C 1064 69 1077 76 1097 87 C 1109 91 1120 97 1130 105 C 1140 113 1149 136 1158 175 L 1168 220 L 786 220 L 824 332 L 1394 853 Z M 1197 314 L 1293 648 L 935 314 L 1197 314 Z" unicode="" />
<glyph horiz-adv-x="1495" d="M 598 1516 L 731 1516 L 553 864 C 550 852 548 839 546 827 C 544 814 543 803 543 795 C 543 785 546 776 553 767 C 559 757 570 749 586 743 C 594 739 603 735 613 733 C 622 731 627 727 627 723 C 627 718 626 713 625 709 C 624 704 623 698 621 692 L 612 664 L 217 664 L 223 688 C 229 710 236 723 242 725 C 248 727 266 734 295 748 C 307 754 319 761 332 771 C 344 781 355 804 365 840 L 508 1370 L 381 1370 L 393 1417 C 395 1426 397 1433 401 1439 C 405 1444 410 1448 418 1450 L 598 1516 Z M 1386 1516 L 1526 1516 L 381 0 L 244 0 L 1386 1516 Z M 1594 631 C 1594 574 1577 525 1543 484 C 1509 442 1476 411 1444 390 L 1350 326 C 1290 285 1237 250 1191 222 C 1145 193 1110 172 1086 160 L 1092 150 L 1334 150 C 1350 150 1364 153 1377 159 C 1390 165 1403 183 1415 214 C 1417 220 1421 225 1427 229 C 1433 233 1446 234 1467 230 L 1508 222 L 1446 1 L 860 1 L 889 105 C 933 147 971 180 1004 206 C 1036 231 1060 249 1075 261 L 1239 388 C 1271 411 1307 446 1347 492 C 1387 538 1407 592 1407 654 C 1407 690 1394 716 1370 734 C 1345 751 1318 760 1288 760 C 1265 760 1246 756 1231 750 C 1216 743 1200 734 1184 723 C 1197 711 1206 700 1212 691 C 1218 681 1221 668 1221 652 C 1221 629 1212 607 1196 587 C 1179 566 1155 556 1125 556 C 1097 556 1072 564 1051 581 C 1030 598 1020 621 1020 650 C 1020 696 1045 742 1096 788 C 1147 834 1220 857 1315 857 C 1389 857 1454 839 1510 803 C 1566 767 1594 710 1594 631 Z" unicode="" />
<glyph horiz-adv-x="1643" d="M 928 1319 C 928 1255 904 1208 857 1179 C 809 1149 761 1127 711 1112 C 753 1089 787 1063 815 1035 C 842 1007 856 970 856 924 C 856 844 823 780 759 731 C 694 681 608 657 502 657 C 423 657 356 671 300 701 C 244 731 217 774 217 831 C 217 857 225 880 243 898 C 260 916 283 926 313 926 C 339 926 361 917 378 901 C 394 884 403 859 403 825 C 403 818 402 811 401 805 C 400 798 399 790 399 782 C 412 773 426 766 441 761 C 456 756 472 754 489 754 C 551 754 596 774 624 814 C 652 854 666 899 666 950 C 666 1004 646 1038 606 1052 C 566 1066 523 1074 477 1077 L 504 1163 C 538 1163 564 1164 582 1165 C 600 1166 621 1170 645 1178 C 675 1186 698 1205 715 1234 C 732 1263 741 1295 741 1331 C 741 1359 732 1382 714 1398 C 696 1414 674 1423 647 1423 C 635 1423 623 1421 611 1418 C 599 1415 587 1411 575 1407 C 577 1398 579 1391 580 1386 C 581 1380 582 1376 582 1372 C 582 1344 572 1324 552 1311 C 532 1298 512 1292 492 1292 C 466 1292 444 1299 428 1315 C 411 1330 403 1350 403 1376 C 403 1416 424 1450 468 1478 C 512 1506 569 1520 641 1520 C 732 1520 803 1499 853 1459 C 903 1418 928 1371 928 1319 Z M 1577 1516 L 1717 1516 L 572 0 L 435 0 L 1577 1516 Z M 1585 853 L 1710 853 L 1562 314 L 1679 314 L 1654 220 L 1534 220 C 1528 196 1524 178 1521 164 C 1518 150 1517 138 1517 130 C 1517 121 1519 113 1525 105 C 1530 97 1541 88 1558 80 C 1562 76 1568 72 1575 70 C 1581 68 1585 64 1585 60 C 1585 57 1584 53 1583 47 C 1582 41 1581 36 1579 31 L 1570 1 L 1224 1 L 1230 27 C 1235 48 1241 61 1248 65 C 1255 69 1268 76 1288 87 C 1300 91 1311 97 1321 105 C 1331 113 1340 136 1349 175 L 1359 220 L 977 220 L 1015 332 L 1585 853 Z M 1388 314 L 1484 648 L 1126 314 L 1388 314 Z" unicode="" />
<glyph horiz-adv-x="930" d="M 803 -174 C 803 -263 762 -324 680 -357 C 598 -389 526 -406 465 -406 C 361 -406 276 -374 212 -312 C 147 -249 115 -174 115 -88 C 115 -6 138 58 184 106 C 230 154 296 210 383 276 C 463 336 519 394 551 450 C 582 506 607 559 627 610 L 741 600 C 734 521 716 455 686 402 C 656 349 615 292 563 231 C 511 171 466 114 430 60 C 393 6 375 -55 375 -125 C 375 -175 386 -214 408 -241 C 430 -267 455 -281 485 -281 C 499 -281 512 -278 523 -273 C 534 -267 544 -262 553 -258 C 547 -248 541 -237 537 -226 C 532 -215 530 -200 530 -182 C 530 -137 544 -103 572 -80 C 600 -56 632 -45 668 -45 C 710 -45 743 -58 767 -86 C 791 -113 803 -142 803 -174 Z M 920 967 C 920 923 904 885 872 853 C 840 821 802 805 758 805 C 713 805 674 821 642 853 C 610 885 594 923 594 967 C 594 1011 610 1050 642 1082 C 674 1114 713 1130 758 1130 C 802 1130 840 1114 872 1082 C 904 1050 920 1011 920 967 Z" unicode="" />
<glyph horiz-adv-x="1436" d="M 1479 78 C 1479 73 1478 66 1476 58 C 1474 49 1472 41 1470 35 L 1462 0 L 936 0 L 948 59 C 950 69 952 77 955 82 C 958 87 962 91 967 94 C 981 103 997 114 1017 126 C 1036 138 1047 146 1051 150 C 1055 152 1058 156 1060 162 C 1062 168 1063 174 1063 180 C 1063 184 1061 193 1059 207 C 1057 221 1055 231 1055 238 L 1032 369 L 481 369 L 385 217 C 382 213 379 206 375 196 C 371 186 369 178 369 172 C 369 157 374 146 384 138 C 394 130 402 125 410 123 C 424 117 435 110 443 104 C 451 98 455 90 455 80 C 455 76 454 71 453 66 C 452 61 451 57 451 55 L 438 0 L -12 0 L 2 63 C 6 85 14 100 26 107 C 38 113 50 118 63 121 C 89 127 109 137 121 149 C 133 161 154 188 184 231 L 860 1210 L 821 1411 L 1001 1493 C 1020 1501 1034 1507 1044 1511 C 1054 1514 1062 1516 1069 1516 C 1083 1516 1093 1511 1098 1502 C 1103 1493 1109 1471 1116 1436 L 1337 291 C 1350 221 1361 179 1371 164 C 1380 149 1395 139 1417 133 C 1447 124 1465 115 1471 107 C 1476 98 1479 88 1479 78 Z M 582 512 L 1004 512 L 911 1014 L 582 512 Z M 973 1929 L 1266 1653 L 1206 1602 L 872 1751 C 827 1771 797 1792 781 1812 C 765 1832 758 1854 758 1880 C 758 1906 766 1929 784 1948 C 801 1966 828 1976 864 1976 C 878 1976 895 1973 913 1968 C 931 1962 951 1949 973 1929 Z" unicode="" />
<glyph horiz-adv-x="1436" d="M 1479 78 C 1479 73 1478 66 1476 58 C 1474 49 1472 41 1470 35 L 1462 0 L 936 0 L 948 59 C 950 69 952 77 955 82 C 958 87 962 91 967 94 C 981 103 997 114 1017 126 C 1036 138 1047 146 1051 150 C 1055 152 1058 156 1060 162 C 1062 168 1063 174 1063 180 C 1063 184 1061 193 1059 207 C 1057 221 1055 231 1055 238 L 1032 369 L 481 369 L 385 217 C 382 213 379 206 375 196 C 371 186 369 178 369 172 C 369 157 374 146 384 138 C 394 130 402 125 410 123 C 424 117 435 110 443 104 C 451 98 455 90 455 80 C 455 76 454 71 453 66 C 452 61 451 57 451 55 L 438 0 L -12 0 L 2 63 C 6 85 14 100 26 107 C 38 113 50 118 63 121 C 89 127 109 137 121 149 C 133 161 154 188 184 231 L 860 1210 L 821 1411 L 1001 1493 C 1020 1501 1034 1507 1044 1511 C 1054 1514 1062 1516 1069 1516 C 1083 1516 1093 1511 1098 1502 C 1103 1493 1109 1471 1116 1436 L 1337 291 C 1350 221 1361 179 1371 164 C 1380 149 1395 139 1417 133 C 1447 124 1465 115 1471 107 C 1476 98 1479 88 1479 78 Z M 582 512 L 1004 512 L 911 1014 L 582 512 Z M 1288 1880 C 1288 1854 1280 1831 1264 1811 C 1248 1790 1218 1770 1174 1751 L 834 1602 L 774 1653 L 1073 1929 C 1094 1948 1114 1961 1132 1967 C 1150 1973 1167 1976 1182 1976 C 1218 1976 1244 1966 1262 1948 C 1279 1929 1288 1906 1288 1880 Z" unicode="" />
<glyph horiz-adv-x="1436" d="M 1479 78 C 1479 73 1478 66 1476 58 C 1474 49 1472 41 1470 35 L 1462 0 L 936 0 L 948 59 C 950 69 952 77 955 82 C 958 87 962 91 967 94 C 981 103 997 114 1017 126 C 1036 138 1047 146 1051 150 C 1055 152 1058 156 1060 162 C 1062 168 1063 174 1063 180 C 1063 184 1061 193 1059 207 C 1057 221 1055 231 1055 238 L 1032 369 L 481 369 L 385 217 C 382 213 379 206 375 196 C 371 186 369 178 369 172 C 369 157 374 146 384 138 C 394 130 402 125 410 123 C 424 117 435 110 443 104 C 451 98 455 90 455 80 C 455 76 454 71 453 66 C 452 61 451 57 451 55 L 438 0 L -12 0 L 2 63 C 6 85 14 100 26 107 C 38 113 50 118 63 121 C 89 127 109 137 121 149 C 133 161 154 188 184 231 L 860 1210 L 821 1411 L 1001 1493 C 1020 1501 1034 1507 1044 1511 C 1054 1514 1062 1516 1069 1516 C 1083 1516 1093 1511 1098 1502 C 1103 1493 1109 1471 1116 1436 L 1337 291 C 1350 221 1361 179 1371 164 C 1380 149 1395 139 1417 133 C 1447 124 1465 115 1471 107 C 1476 98 1479 88 1479 78 Z M 582 512 L 1004 512 L 911 1014 L 582 512 Z M 1146 1945 L 1334 1593 L 1201 1593 L 1054 1785 L 798 1593 L 642 1593 L 1005 1945 L 1146 1945 Z" unicode="" />
<glyph horiz-adv-x="1436" d="M 1479 78 C 1479 73 1478 66 1476 58 C 1474 49 1472 41 1470 35 L 1462 0 L 936 0 L 948 59 C 950 69 952 77 955 82 C 958 87 962 91 967 94 C 981 103 997 114 1017 126 C 1036 138 1047 146 1051 150 C 1055 152 1058 156 1060 162 C 1062 168 1063 174 1063 180 C 1063 184 1061 193 1059 207 C 1057 221 1055 231 1055 238 L 1032 369 L 481 369 L 385 217 C 382 213 379 206 375 196 C 371 186 369 178 369 172 C 369 157 374 146 384 138 C 394 130 402 125 410 123 C 424 117 435 110 443 104 C 451 98 455 90 455 80 C 455 76 454 71 453 66 C 452 61 451 57 451 55 L 438 0 L -12 0 L 2 63 C 6 85 14 100 26 107 C 38 113 50 118 63 121 C 89 127 109 137 121 149 C 133 161 154 188 184 231 L 860 1210 L 821 1411 L 1001 1493 C 1020 1501 1034 1507 1044 1511 C 1054 1514 1062 1516 1069 1516 C 1083 1516 1093 1511 1098 1502 C 1103 1493 1109 1471 1116 1436 L 1337 291 C 1350 221 1361 179 1371 164 C 1380 149 1395 139 1417 133 C 1447 124 1465 115 1471 107 C 1476 98 1479 88 1479 78 Z M 582 512 L 1004 512 L 911 1014 L 582 512 Z M 1319 1902 L 1407 1902 C 1390 1827 1357 1765 1309 1715 C 1260 1665 1207 1640 1151 1640 C 1126 1640 1101 1643 1077 1650 C 1052 1656 1025 1670 995 1691 C 972 1707 951 1718 931 1724 C 911 1730 891 1734 870 1734 C 845 1734 822 1724 800 1706 C 778 1687 764 1663 756 1633 L 667 1633 C 682 1707 714 1770 762 1820 C 810 1870 863 1896 921 1896 C 953 1896 981 1892 1004 1884 C 1026 1876 1050 1864 1075 1848 C 1100 1831 1123 1819 1143 1812 C 1163 1804 1182 1801 1202 1801 C 1227 1801 1251 1810 1273 1829 C 1295 1847 1310 1872 1319 1902 Z" unicode="" />
<glyph horiz-adv-x="1436" d="M 1479 78 C 1479 73 1478 66 1476 58 C 1474 49 1472 41 1470 35 L 1462 0 L 936 0 L 948 59 C 950 69 952 77 955 82 C 958 87 962 91 967 94 C 981 103 997 114 1017 126 C 1036 138 1047 146 1051 150 C 1055 152 1058 156 1060 162 C 1062 168 1063 174 1063 180 C 1063 184 1061 193 1059 207 C 1057 221 1055 231 1055 238 L 1032 369 L 481 369 L 385 217 C 382 213 379 206 375 196 C 371 186 369 178 369 172 C 369 157 374 146 384 138 C 394 130 402 125 410 123 C 424 117 435 110 443 104 C 451 98 455 90 455 80 C 455 76 454 71 453 66 C 452 61 451 57 451 55 L 438 0 L -12 0 L 2 63 C 6 85 14 100 26 107 C 38 113 50 118 63 121 C 89 127 109 137 121 149 C 133 161 154 188 184 231 L 860 1210 L 821 1411 L 1001 1493 C 1020 1501 1034 1507 1044 1511 C 1054 1514 1062 1516 1069 1516 C 1083 1516 1093 1511 1098 1502 C 1103 1493 1109 1471 1116 1436 L 1337 291 C 1350 221 1361 179 1371 164 C 1380 149 1395 139 1417 133 C 1447 124 1465 115 1471 107 C 1476 98 1479 88 1479 78 Z M 582 512 L 1004 512 L 911 1014 L 582 512 Z M 933 1763 C 933 1727 920 1697 894 1672 C 868 1646 838 1634 802 1634 C 766 1634 735 1646 709 1672 C 683 1697 671 1727 671 1763 C 671 1799 683 1829 709 1855 C 735 1881 766 1894 802 1894 C 838 1894 868 1881 894 1855 C 920 1829 933 1799 933 1763 Z M 1374 1763 C 1374 1727 1361 1697 1335 1672 C 1309 1646 1278 1634 1242 1634 C 1206 1634 1176 1646 1150 1672 C 1124 1697 1111 1727 1111 1763 C 1111 1799 1124 1829 1150 1855 C 1176 1881 1206 1894 1242 1894 C 1278 1894 1309 1881 1335 1855 C 1361 1829 1374 1799 1374 1763 Z" unicode="" />
<glyph horiz-adv-x="1436" d="M 1479 78 C 1479 73 1478 66 1476 58 C 1474 49 1472 41 1470 35 L 1462 0 L 936 0 L 948 59 C 950 69 952 77 955 82 C 958 87 962 91 967 94 C 981 103 997 114 1017 126 C 1036 138 1047 146 1051 150 C 1055 152 1058 156 1060 162 C 1062 168 1063 174 1063 180 C 1063 184 1061 193 1059 207 C 1057 221 1055 231 1055 238 L 1032 369 L 481 369 L 385 217 C 382 213 379 206 375 196 C 371 186 369 178 369 172 C 369 157 374 146 384 138 C 394 130 402 125 410 123 C 424 117 435 110 443 104 C 451 98 455 90 455 80 C 455 76 454 71 453 66 C 452 61 451 57 451 55 L 438 0 L -12 0 L 2 63 C 6 85 14 100 26 107 C 38 113 50 118 63 121 C 89 127 109 137 121 149 C 133 161 154 188 184 231 L 860 1210 L 821 1411 L 1001 1493 C 1020 1501 1034 1507 1044 1511 C 1054 1514 1062 1516 1069 1516 C 1083 1516 1093 1511 1098 1502 C 1103 1493 1109 1471 1116 1436 L 1337 291 C 1350 221 1361 179 1371 164 C 1380 149 1395 139 1417 133 C 1447 124 1465 115 1471 107 C 1476 98 1479 88 1479 78 Z M 582 512 L 1004 512 L 911 1014 L 582 512 Z M 1270 1810 C 1270 1740 1241 1681 1185 1635 C 1128 1589 1063 1566 991 1566 C 923 1566 867 1585 823 1624 C 779 1662 758 1711 758 1769 C 758 1829 783 1884 834 1936 C 884 1987 951 2013 1034 2013 C 1104 2013 1161 1993 1205 1954 C 1248 1915 1270 1867 1270 1810 Z M 1124 1816 C 1124 1850 1117 1878 1104 1900 C 1090 1922 1068 1933 1038 1933 C 992 1933 958 1915 936 1880 C 914 1845 903 1807 903 1765 C 903 1734 908 1706 920 1682 C 931 1658 953 1646 987 1646 C 1033 1646 1067 1662 1090 1696 C 1112 1730 1124 1770 1124 1816 Z" unicode="" />
<glyph horiz-adv-x="2048" d="M 2269 1516 L 2171 1161 L 2097 1161 C 2080 1161 2069 1164 2063 1172 C 2057 1179 2048 1200 2034 1235 C 2019 1271 1993 1297 1955 1313 C 1917 1329 1839 1337 1720 1337 L 1616 1337 L 1489 840 L 1624 840 C 1674 840 1711 847 1733 861 C 1755 875 1776 895 1798 920 C 1802 924 1805 927 1809 929 C 1813 931 1817 932 1823 932 L 1909 932 L 1808 535 L 1731 535 C 1714 535 1704 538 1700 544 C 1696 550 1692 565 1688 590 C 1682 626 1667 652 1641 670 C 1615 687 1576 696 1524 696 L 1450 696 L 1307 143 L 1589 143 C 1697 143 1779 167 1836 215 C 1893 263 1929 297 1944 319 C 1954 336 1963 347 1969 351 C 1975 355 1983 358 1993 358 L 2097 358 L 1993 -20 C 1972 -18 1933 -14 1877 -8 C 1820 -2 1766 0 1714 0 L 872 0 L 883 57 C 887 80 891 96 897 105 C 903 113 921 123 952 133 C 973 139 989 149 1001 162 C 1013 175 1024 201 1034 240 L 1153 694 L 711 696 L 424 276 C 411 258 399 238 388 217 C 376 195 371 180 371 170 C 371 160 373 152 379 147 C 384 141 393 135 406 127 C 420 118 431 111 441 105 C 451 99 456 92 457 82 C 457 78 456 72 455 66 C 454 60 453 53 451 45 L 438 0 L -12 0 C -12 0 -10 10 -6 30 C -2 50 1 65 4 76 C 6 88 11 96 18 100 C 25 104 43 111 72 123 C 97 133 120 150 141 175 C 161 200 181 226 201 254 L 903 1253 C 913 1267 921 1279 926 1289 C 931 1298 934 1308 934 1319 C 934 1333 929 1345 920 1353 C 911 1361 899 1370 885 1378 C 874 1384 864 1390 855 1396 C 846 1402 842 1409 842 1417 C 842 1421 842 1426 843 1432 C 844 1438 846 1444 848 1450 L 858 1495 L 1974 1495 C 2010 1495 2051 1496 2098 1500 C 2144 1504 2201 1509 2269 1516 Z M 1192 838 L 1288 1206 C 1301 1254 1307 1292 1305 1321 C 1303 1349 1283 1364 1245 1364 C 1214 1364 1186 1350 1162 1323 C 1138 1296 1116 1270 1098 1245 L 811 838 L 1192 838 Z" unicode="" />
<glyph horiz-adv-x="1309" d="M 1485 1425 L 1593 1425 L 1487 1036 L 1393 1036 C 1374 1036 1363 1043 1360 1058 C 1357 1072 1356 1085 1356 1096 C 1356 1119 1355 1141 1353 1163 C 1351 1185 1345 1206 1337 1227 C 1317 1276 1285 1312 1242 1336 C 1199 1360 1150 1372 1096 1372 C 920 1372 782 1280 681 1098 C 580 915 530 726 530 530 C 530 442 554 361 603 286 C 652 211 731 174 840 174 C 921 174 995 191 1063 227 C 1131 263 1200 317 1272 391 L 1331 324 C 1333 320 1337 315 1343 308 C 1349 300 1352 293 1352 285 C 1338 228 1278 165 1174 96 C 1070 27 956 -10 834 -18 L 786 -100 C 843 -105 887 -122 918 -150 C 949 -178 965 -214 965 -258 C 965 -300 944 -343 903 -388 C 862 -432 790 -455 688 -455 C 626 -455 571 -441 525 -415 C 478 -389 438 -363 406 -338 L 467 -262 C 495 -281 527 -300 561 -320 C 595 -340 635 -350 682 -350 C 722 -350 748 -339 761 -319 C 773 -299 780 -280 780 -264 C 780 -247 772 -231 758 -217 C 743 -202 718 -195 684 -195 C 677 -195 667 -195 655 -196 C 643 -197 629 -199 614 -201 L 735 -16 C 603 -2 487 56 387 159 C 286 261 236 399 236 573 C 236 815 312 1032 466 1226 C 620 1419 824 1516 1079 1516 C 1157 1516 1223 1505 1277 1484 C 1330 1462 1380 1434 1427 1399 L 1485 1425 Z" unicode="" />
<glyph horiz-adv-x="1264" d="M 1485 1516 L 1386 1161 L 1313 1161 C 1296 1161 1285 1164 1279 1172 C 1273 1179 1263 1200 1249 1235 C 1235 1271 1209 1297 1171 1313 C 1133 1329 1055 1337 936 1337 L 823 1337 L 696 840 L 840 840 C 890 840 927 847 949 861 C 971 875 992 895 1014 920 C 1018 924 1021 927 1025 929 C 1029 931 1033 932 1038 932 L 1124 932 L 1024 535 L 946 535 C 929 535 919 538 915 544 C 911 550 907 565 903 590 C 898 626 882 652 856 670 C 830 687 791 696 739 696 L 657 696 L 514 143 L 805 143 C 913 143 995 167 1052 215 C 1108 263 1144 297 1159 319 C 1170 336 1179 347 1185 351 C 1191 355 1199 358 1208 358 L 1313 358 L 1208 -20 C 1187 -18 1148 -14 1092 -8 C 1036 -2 982 0 930 0 L 80 0 L 90 57 C 94 80 99 96 105 105 C 111 113 129 123 160 133 C 181 139 197 149 209 162 C 220 175 231 201 242 240 L 496 1214 C 500 1228 504 1245 508 1264 C 512 1283 514 1300 514 1315 C 514 1325 510 1334 503 1341 C 495 1347 482 1355 463 1364 C 450 1370 440 1374 434 1378 C 427 1382 424 1388 424 1397 C 424 1401 424 1406 426 1412 C 428 1418 429 1423 430 1427 L 449 1495 L 1190 1495 C 1226 1495 1267 1496 1314 1500 C 1360 1504 1417 1509 1485 1516 Z M 961 1929 L 1254 1653 L 1194 1602 L 860 1751 C 815 1771 785 1792 769 1812 C 753 1832 746 1854 746 1880 C 746 1906 754 1929 772 1948 C 789 1966 816 1976 852 1976 C 866 1976 883 1973 901 1968 C 919 1962 939 1949 961 1929 Z" unicode="" />
<glyph horiz-adv-x="1264" d="M 1485 1516 L 1386 1161 L 1313 1161 C 1296 1161 1285 1164 1279 1172 C 1273 1179 1263 1200 1249 1235 C 1235 1271 1209 1297 1171 1313 C 1133 1329 1055 1337 936 1337 L 823 1337 L 696 840 L 840 840 C 890 840 927 847 949 861 C 971 875 992 895 1014 920 C 1018 924 1021 927 1025 929 C 1029 931 1033 932 1038 932 L 1124 932 L 1024 535 L 946 535 C 929 535 919 538 915 544 C 911 550 907 565 903 590 C 898 626 882 652 856 670 C 830 687 791 696 739 696 L 657 696 L 514 143 L 805 143 C 913 143 995 167 1052 215 C 1108 263 1144 297 1159 319 C 1170 336 1179 347 1185 351 C 1191 355 1199 358 1208 358 L 1313 358 L 1208 -20 C 1187 -18 1148 -14 1092 -8 C 1036 -2 982 0 930 0 L 80 0 L 90 57 C 94 80 99 96 105 105 C 111 113 129 123 160 133 C 181 139 197 149 209 162 C 220 175 231 201 242 240 L 496 1214 C 500 1228 504 1245 508 1264 C 512 1283 514 1300 514 1315 C 514 1325 510 1334 503 1341 C 495 1347 482 1355 463 1364 C 450 1370 440 1374 434 1378 C 427 1382 424 1388 424 1397 C 424 1401 424 1406 426 1412 C 428 1418 429 1423 430 1427 L 449 1495 L 1190 1495 C 1226 1495 1267 1496 1314 1500 C 1360 1504 1417 1509 1485 1516 Z M 1355 1880 C 1355 1854 1347 1831 1331 1811 C 1315 1790 1285 1770 1241 1751 L 901 1602 L 841 1653 L 1140 1929 C 1161 1948 1181 1961 1199 1967 C 1217 1973 1234 1976 1249 1976 C 1285 1976 1311 1966 1329 1948 C 1346 1929 1355 1906 1355 1880 Z" unicode="" />
<glyph horiz-adv-x="1264" d="M 1485 1516 L 1386 1161 L 1313 1161 C 1296 1161 1285 1164 1279 1172 C 1273 1179 1263 1200 1249 1235 C 1235 1271 1209 1297 1171 1313 C 1133 1329 1055 1337 936 1337 L 823 1337 L 696 840 L 840 840 C 890 840 927 847 949 861 C 971 875 992 895 1014 920 C 1018 924 1021 927 1025 929 C 1029 931 1033 932 1038 932 L 1124 932 L 1024 535 L 946 535 C 929 535 919 538 915 544 C 911 550 907 565 903 590 C 898 626 882 652 856 670 C 830 687 791 696 739 696 L 657 696 L 514 143 L 805 143 C 913 143 995 167 1052 215 C 1108 263 1144 297 1159 319 C 1170 336 1179 347 1185 351 C 1191 355 1199 358 1208 358 L 1313 358 L 1208 -20 C 1187 -18 1148 -14 1092 -8 C 1036 -2 982 0 930 0 L 80 0 L 90 57 C 94 80 99 96 105 105 C 111 113 129 123 160 133 C 181 139 197 149 209 162 C 220 175 231 201 242 240 L 496 1214 C 500 1228 504 1245 508 1264 C 512 1283 514 1300 514 1315 C 514 1325 510 1334 503 1341 C 495 1347 482 1355 463 1364 C 450 1370 440 1374 434 1378 C 427 1382 424 1388 424 1397 C 424 1401 424 1406 426 1412 C 428 1418 429 1423 430 1427 L 449 1495 L 1190 1495 C 1226 1495 1267 1496 1314 1500 C 1360 1504 1417 1509 1485 1516 Z M 1138 1957 L 1326 1605 L 1193 1605 L 1046 1797 L 790 1605 L 634 1605 L 997 1957 L 1138 1957 Z" unicode="" />
<glyph horiz-adv-x="1264" d="M 1485 1516 L 1386 1161 L 1313 1161 C 1296 1161 1285 1164 1279 1172 C 1273 1179 1263 1200 1249 1235 C 1235 1271 1209 1297 1171 1313 C 1133 1329 1055 1337 936 1337 L 823 1337 L 696 840 L 840 840 C 890 840 927 847 949 861 C 971 875 992 895 1014 920 C 1018 924 1021 927 1025 929 C 1029 931 1033 932 1038 932 L 1124 932 L 1024 535 L 946 535 C 929 535 919 538 915 544 C 911 550 907 565 903 590 C 898 626 882 652 856 670 C 830 687 791 696 739 696 L 657 696 L 514 143 L 805 143 C 913 143 995 167 1052 215 C 1108 263 1144 297 1159 319 C 1170 336 1179 347 1185 351 C 1191 355 1199 358 1208 358 L 1313 358 L 1208 -20 C 1187 -18 1148 -14 1092 -8 C 1036 -2 982 0 930 0 L 80 0 L 90 57 C 94 80 99 96 105 105 C 111 113 129 123 160 133 C 181 139 197 149 209 162 C 220 175 231 201 242 240 L 496 1214 C 500 1228 504 1245 508 1264 C 512 1283 514 1300 514 1315 C 514 1325 510 1334 503 1341 C 495 1347 482 1355 463 1364 C 450 1370 440 1374 434 1378 C 427 1382 424 1388 424 1397 C 424 1401 424 1406 426 1412 C 428 1418 429 1423 430 1427 L 449 1495 L 1190 1495 C 1226 1495 1267 1496 1314 1500 C 1360 1504 1417 1509 1485 1516 Z M 939 1775 C 939 1739 926 1709 900 1684 C 874 1658 844 1646 808 1646 C 772 1646 741 1658 715 1684 C 689 1709 677 1739 677 1775 C 677 1811 689 1841 715 1867 C 741 1893 772 1906 808 1906 C 844 1906 874 1893 900 1867 C 926 1841 939 1811 939 1775 Z M 1380 1775 C 1380 1739 1367 1709 1341 1684 C 1315 1658 1284 1646 1248 1646 C 1212 1646 1182 1658 1156 1684 C 1130 1709 1117 1739 1117 1775 C 1117 1811 1130 1841 1156 1867 C 1182 1893 1212 1906 1248 1906 C 1284 1906 1315 1893 1341 1867 C 1367 1841 1380 1811 1380 1775 Z" unicode="" />
<glyph horiz-adv-x="690" d="M 455 1495 L 977 1495 L 967 1438 C 962 1414 957 1398 951 1390 C 945 1381 927 1372 897 1362 C 875 1355 859 1345 847 1332 C 835 1318 823 1293 813 1255 L 559 281 C 555 265 551 248 547 230 C 543 211 541 194 541 180 C 541 169 545 160 553 154 C 561 148 574 140 594 131 C 606 125 615 120 622 116 C 629 112 633 106 633 98 C 633 93 632 88 630 82 C 628 76 627 72 627 68 L 608 0 L 86 0 L 96 57 C 100 80 105 96 111 105 C 117 113 135 123 166 133 C 187 139 204 149 216 162 C 228 175 239 201 250 240 L 504 1214 C 508 1228 512 1245 516 1264 C 520 1283 522 1300 522 1315 C 522 1325 518 1334 510 1341 C 502 1347 488 1355 469 1364 C 456 1370 446 1374 440 1378 C 433 1382 430 1388 430 1397 C 430 1401 430 1406 432 1412 C 434 1418 435 1423 436 1427 L 455 1495 Z M 730 1929 L 1023 1653 L 963 1602 L 629 1751 C 584 1771 554 1792 538 1812 C 522 1832 515 1854 515 1880 C 515 1906 523 1929 541 1948 C 558 1966 585 1976 621 1976 C 635 1976 652 1973 670 1968 C 688 1962 708 1949 730 1929 Z" unicode="" />
<glyph horiz-adv-x="690" d="M 455 1495 L 977 1495 L 967 1438 C 962 1414 957 1398 951 1390 C 945 1381 927 1372 897 1362 C 875 1355 859 1345 847 1332 C 835 1318 823 1293 813 1255 L 559 281 C 555 265 551 248 547 230 C 543 211 541 194 541 180 C 541 169 545 160 553 154 C 561 148 574 140 594 131 C 606 125 615 120 622 116 C 629 112 633 106 633 98 C 633 93 632 88 630 82 C 628 76 627 72 627 68 L 608 0 L 86 0 L 96 57 C 100 80 105 96 111 105 C 117 113 135 123 166 133 C 187 139 204 149 216 162 C 228 175 239 201 250 240 L 504 1214 C 508 1228 512 1245 516 1264 C 520 1283 522 1300 522 1315 C 522 1325 518 1334 510 1341 C 502 1347 488 1355 469 1364 C 456 1370 446 1374 440 1378 C 433 1382 430 1388 430 1397 C 430 1401 430 1406 432 1412 C 434 1418 435 1423 436 1427 L 455 1495 Z M 1035 1880 C 1035 1854 1027 1831 1011 1811 C 995 1790 965 1770 921 1751 L 581 1602 L 521 1653 L 820 1929 C 841 1948 861 1961 879 1967 C 897 1973 914 1976 929 1976 C 965 1976 991 1966 1009 1948 C 1026 1929 1035 1906 1035 1880 Z" unicode="" />
<glyph horiz-adv-x="690" d="M 455 1495 L 977 1495 L 967 1438 C 962 1414 957 1398 951 1390 C 945 1381 927 1372 897 1362 C 875 1355 859 1345 847 1332 C 835 1318 823 1293 813 1255 L 559 281 C 555 265 551 248 547 230 C 543 211 541 194 541 180 C 541 169 545 160 553 154 C 561 148 574 140 594 131 C 606 125 615 120 622 116 C 629 112 633 106 633 98 C 633 93 632 88 630 82 C 628 76 627 72 627 68 L 608 0 L 86 0 L 96 57 C 100 80 105 96 111 105 C 117 113 135 123 166 133 C 187 139 204 149 216 162 C 228 175 239 201 250 240 L 504 1214 C 508 1228 512 1245 516 1264 C 520 1283 522 1300 522 1315 C 522 1325 518 1334 510 1341 C 502 1347 488 1355 469 1364 C 456 1370 446 1374 440 1378 C 433 1382 430 1388 430 1397 C 430 1401 430 1406 432 1412 C 434 1418 435 1423 436 1427 L 455 1495 Z M 896 1957 L 1084 1605 L 951 1605 L 804 1797 L 548 1605 L 392 1605 L 755 1957 L 896 1957 Z" unicode="" />
<glyph horiz-adv-x="690" d="M 676 1776 C 676 1740 663 1709 637 1684 C 611 1659 580 1647 545 1647 C 509 1647 478 1659 452 1684 C 426 1709 414 1740 414 1776 C 414 1811 426 1842 452 1868 C 478 1894 509 1907 545 1907 C 580 1907 611 1894 637 1868 C 663 1842 676 1811 676 1776 Z M 1104 1776 C 1104 1740 1091 1709 1065 1684 C 1039 1659 1008 1647 973 1647 C 937 1647 906 1659 880 1684 C 854 1709 842 1740 842 1776 C 842 1811 854 1842 880 1868 C 906 1894 937 1907 973 1907 C 1008 1907 1039 1894 1065 1868 C 1091 1842 1104 1811 1104 1776 Z M 455 1495 L 977 1495 L 967 1438 C 962 1414 957 1398 951 1390 C 945 1381 927 1372 897 1362 C 875 1355 859 1345 847 1332 C 835 1318 823 1293 813 1255 L 559 281 C 555 265 551 248 547 230 C 543 211 541 194 541 180 C 541 169 545 160 553 154 C 561 148 574 140 594 131 C 606 125 615 120 622 116 C 629 112 633 106 633 98 C 633 93 632 88 630 82 C 628 76 627 72 627 68 L 608 0 L 86 0 L 96 57 C 100 80 105 96 111 105 C 117 113 135 123 166 133 C 187 139 204 149 216 162 C 228 175 239 201 250 240 L 504 1214 C 508 1228 512 1245 516 1264 C 520 1283 522 1300 522 1315 C 522 1325 518 1334 510 1341 C 502 1347 488 1355 469 1364 C 456 1370 446 1374 440 1378 C 433 1382 430 1388 430 1397 C 430 1401 430 1406 432 1412 C 434 1418 435 1423 436 1427 L 455 1495 Z" unicode="" />
<glyph horiz-adv-x="1460" d="M 1366 1495 L 1761 1495 L 1751 1438 C 1747 1414 1742 1398 1736 1390 C 1730 1381 1711 1372 1681 1362 C 1659 1355 1643 1345 1632 1332 C 1620 1319 1609 1293 1599 1255 L 1272 0 L 1133 0 L 657 1155 L 428 281 C 424 265 420 248 416 230 C 412 211 410 194 410 180 C 410 169 413 160 421 154 C 428 148 441 140 461 131 C 473 125 482 120 489 116 C 496 112 500 106 500 98 C 500 93 499 88 497 82 C 495 76 494 72 494 68 L 475 0 L 80 0 L 90 57 C 94 80 99 96 105 105 C 111 113 129 123 160 133 C 181 139 197 149 209 162 C 220 175 231 201 242 240 L 496 1214 C 500 1228 504 1245 508 1264 C 512 1283 514 1300 514 1315 C 514 1325 510 1334 503 1341 C 495 1347 482 1355 463 1364 C 450 1370 440 1374 434 1378 C 427 1382 424 1388 424 1397 C 424 1401 424 1406 426 1412 C 428 1418 429 1423 430 1427 L 449 1495 L 829 1495 L 1231 516 L 1413 1214 C 1417 1229 1421 1246 1425 1265 C 1429 1283 1432 1300 1432 1315 C 1432 1325 1428 1334 1420 1341 C 1412 1347 1399 1355 1380 1364 C 1368 1370 1358 1374 1351 1378 C 1344 1382 1341 1388 1341 1397 C 1341 1401 1342 1406 1344 1412 C 1346 1418 1347 1423 1348 1427 L 1366 1495 Z M 1437 1915 L 1525 1915 C 1508 1840 1475 1778 1427 1728 C 1378 1678 1325 1653 1269 1653 C 1244 1653 1219 1656 1195 1663 C 1170 1669 1143 1683 1113 1704 C 1090 1720 1069 1731 1049 1737 C 1029 1743 1009 1747 988 1747 C 963 1747 940 1737 918 1719 C 896 1700 882 1676 874 1646 L 785 1646 C 800 1720 832 1783 880 1833 C 928 1883 981 1909 1039 1909 C 1071 1909 1099 1905 1122 1897 C 1144 1889 1168 1877 1193 1861 C 1218 1844 1241 1832 1261 1825 C 1281 1817 1300 1814 1320 1814 C 1345 1814 1369 1823 1391 1842 C 1413 1860 1428 1885 1437 1915 Z" unicode="" />
<glyph horiz-adv-x="1491" d="M 1628 862 C 1628 618 1549 410 1393 238 C 1236 66 1044 -20 817 -20 C 661 -20 525 38 410 156 C 295 273 238 432 238 633 C 238 873 315 1080 471 1254 C 626 1428 818 1516 1047 1516 C 1199 1516 1334 1457 1452 1341 C 1569 1225 1628 1065 1628 862 Z M 1337 991 C 1337 1099 1311 1189 1259 1262 C 1207 1335 1132 1372 1034 1372 C 881 1372 758 1281 666 1099 C 574 917 528 719 528 504 C 528 394 554 303 606 231 C 658 159 733 123 831 123 C 991 123 1115 216 1204 403 C 1292 589 1337 785 1337 991 Z M 1061 1929 L 1354 1653 L 1294 1602 L 960 1751 C 915 1771 885 1792 869 1812 C 853 1832 846 1854 846 1880 C 846 1906 854 1929 872 1948 C 889 1966 916 1976 952 1976 C 966 1976 983 1973 1001 1968 C 1019 1962 1039 1949 1061 1929 Z" unicode="" />
<glyph horiz-adv-x="1491" d="M 1628 862 C 1628 618 1549 410 1393 238 C 1236 66 1044 -20 817 -20 C 661 -20 525 38 410 156 C 295 273 238 432 238 633 C 238 873 315 1080 471 1254 C 626 1428 818 1516 1047 1516 C 1199 1516 1334 1457 1452 1341 C 1569 1225 1628 1065 1628 862 Z M 1337 991 C 1337 1099 1311 1189 1259 1262 C 1207 1335 1132 1372 1034 1372 C 881 1372 758 1281 666 1099 C 574 917 528 719 528 504 C 528 394 554 303 606 231 C 658 159 733 123 831 123 C 991 123 1115 216 1204 403 C 1292 589 1337 785 1337 991 Z M 1374 1880 C 1374 1854 1366 1831 1350 1811 C 1334 1790 1304 1770 1260 1751 L 920 1602 L 860 1653 L 1159 1929 C 1180 1948 1200 1961 1218 1967 C 1236 1973 1253 1976 1268 1976 C 1304 1976 1330 1966 1348 1948 C 1365 1929 1374 1906 1374 1880 Z" unicode="" />
<glyph horiz-adv-x="1491" d="M 1628 862 C 1628 618 1549 410 1393 238 C 1236 66 1044 -20 817 -20 C 661 -20 525 38 410 156 C 295 273 238 432 238 633 C 238 873 315 1080 471 1254 C 626 1428 818 1516 1047 1516 C 1199 1516 1334 1457 1452 1341 C 1569 1225 1628 1065 1628 862 Z M 1337 991 C 1337 1099 1311 1189 1259 1262 C 1207 1335 1132 1372 1034 1372 C 881 1372 758 1281 666 1099 C 574 917 528 719 528 504 C 528 394 554 303 606 231 C 658 159 733 123 831 123 C 991 123 1115 216 1204 403 C 1292 589 1337 785 1337 991 Z M 1214 1957 L 1402 1605 L 1269 1605 L 1122 1797 L 866 1605 L 710 1605 L 1073 1957 L 1214 1957 Z" unicode="" />
<glyph horiz-adv-x="1491" d="M 1628 862 C 1628 618 1549 410 1393 238 C 1236 66 1044 -20 817 -20 C 661 -20 525 38 410 156 C 295 273 238 432 238 633 C 238 873 315 1080 471 1254 C 626 1428 818 1516 1047 1516 C 1199 1516 1334 1457 1452 1341 C 1569 1225 1628 1065 1628 862 Z M 1337 991 C 1337 1099 1311 1189 1259 1262 C 1207 1335 1132 1372 1034 1372 C 881 1372 758 1281 666 1099 C 574 917 528 719 528 504 C 528 394 554 303 606 231 C 658 159 733 123 831 123 C 991 123 1115 216 1204 403 C 1292 589 1337 785 1337 991 Z M 1376 1915 L 1464 1915 C 1447 1840 1414 1778 1366 1728 C 1317 1678 1264 1653 1208 1653 C 1183 1653 1158 1656 1134 1663 C 1109 1669 1082 1683 1052 1704 C 1029 1720 1008 1731 988 1737 C 968 1743 948 1747 927 1747 C 902 1747 879 1737 857 1719 C 835 1700 821 1676 813 1646 L 724 1646 C 739 1720 771 1783 819 1833 C 867 1883 920 1909 978 1909 C 1010 1909 1038 1905 1061 1897 C 1083 1889 1107 1877 1132 1861 C 1157 1844 1180 1832 1200 1825 C 1220 1817 1239 1814 1259 1814 C 1284 1814 1308 1823 1330 1842 C 1352 1860 1367 1885 1376 1915 Z" unicode="" />
<glyph horiz-adv-x="1491" d="M 1628 862 C 1628 618 1549 410 1393 238 C 1236 66 1044 -20 817 -20 C 661 -20 525 38 410 156 C 295 273 238 432 238 633 C 238 873 315 1080 471 1254 C 626 1428 818 1516 1047 1516 C 1199 1516 1334 1457 1452 1341 C 1569 1225 1628 1065 1628 862 Z M 1337 991 C 1337 1099 1311 1189 1259 1262 C 1207 1335 1132 1372 1034 1372 C 881 1372 758 1281 666 1099 C 574 917 528 719 528 504 C 528 394 554 303 606 231 C 658 159 733 123 831 123 C 991 123 1115 216 1204 403 C 1292 589 1337 785 1337 991 Z M 1005 1775 C 1005 1739 992 1709 966 1684 C 940 1658 910 1646 874 1646 C 838 1646 807 1658 781 1684 C 755 1709 743 1739 743 1775 C 743 1811 755 1841 781 1867 C 807 1893 838 1906 874 1906 C 910 1906 940 1893 966 1867 C 992 1841 1005 1811 1005 1775 Z M 1446 1775 C 1446 1739 1433 1709 1407 1684 C 1381 1658 1350 1646 1314 1646 C 1278 1646 1248 1658 1222 1684 C 1196 1709 1183 1739 1183 1775 C 1183 1811 1196 1841 1222 1867 C 1248 1893 1278 1906 1314 1906 C 1350 1906 1381 1893 1407 1867 C 1433 1841 1446 1811 1446 1775 Z" unicode="" />
<glyph horiz-adv-x="1528" d="M 1075 602 L 1466 211 L 1343 88 L 956 483 L 565 90 L 442 213 L 838 602 L 449 989 L 569 1110 L 956 721 L 1343 1110 L 1464 989 L 1075 602 Z" unicode="" />
<glyph horiz-adv-x="1491" d="M 1520 1552 L 1333 1319 C 1380 1265 1418 1200 1447 1125 C 1476 1049 1491 962 1491 862 C 1491 780 1481 701 1462 626 C 1443 550 1416 480 1382 415 C 1347 349 1305 290 1256 237 C 1207 183 1153 137 1093 99 C 1033 61 968 31 898 11 C 828 -9 756 -20 680 -20 C 626 -20 570 -10 512 8 C 454 26 398 56 346 96 L 211 -72 L 59 -72 L 260 176 C 236 202 215 232 195 264 C 175 296 159 331 145 369 C 131 407 120 448 112 492 C 104 536 100 583 100 633 C 100 713 109 791 128 866 C 146 940 173 1010 208 1076 C 242 1142 284 1202 333 1256 C 381 1310 436 1356 496 1394 C 556 1432 620 1462 690 1484 C 759 1505 832 1516 909 1516 C 965 1516 1022 1506 1080 1487 C 1138 1467 1193 1438 1245 1399 L 1370 1552 L 1520 1552 Z M 1130 1257 C 1104 1293 1072 1321 1033 1341 C 993 1361 948 1372 897 1372 C 832 1372 774 1356 724 1326 C 674 1296 630 1256 592 1206 C 554 1156 523 1100 497 1038 C 471 976 449 912 433 848 C 417 784 405 721 398 661 C 390 601 387 548 387 504 C 387 477 388 451 391 425 C 394 399 399 374 406 352 L 1130 1257 Z M 1204 991 C 1204 1017 1202 1044 1199 1070 C 1196 1096 1192 1119 1186 1141 L 459 238 C 485 200 518 172 558 152 C 597 132 642 123 694 123 C 742 123 787 131 827 149 C 867 167 904 191 937 221 C 970 251 1000 287 1026 327 C 1052 367 1074 411 1094 457 C 1114 503 1131 550 1145 599 C 1159 648 1170 696 1179 743 C 1187 790 1194 835 1198 877 C 1202 919 1204 957 1204 991 Z" unicode="" />
<glyph horiz-adv-x="1520" d="M 1432 1495 L 1831 1495 L 1821 1438 C 1816 1414 1811 1398 1805 1390 C 1799 1381 1781 1372 1751 1362 C 1729 1355 1713 1345 1702 1332 C 1690 1319 1679 1293 1669 1255 L 1466 471 C 1420 296 1346 170 1242 93 C 1138 15 1008 -23 852 -23 C 684 -23 550 13 450 86 C 349 159 299 273 299 428 C 299 464 301 500 307 534 C 312 568 317 592 322 606 L 481 1214 C 485 1228 489 1245 493 1264 C 497 1283 500 1300 500 1315 C 500 1325 496 1334 488 1341 C 480 1347 467 1355 449 1364 C 436 1370 426 1374 420 1378 C 413 1382 410 1388 410 1397 C 410 1401 410 1406 412 1412 C 414 1418 415 1423 416 1427 L 434 1495 L 952 1495 L 942 1438 C 938 1414 933 1398 927 1390 C 921 1381 902 1372 872 1362 C 850 1355 834 1345 823 1332 C 811 1318 801 1293 791 1255 L 606 549 C 603 535 600 515 596 488 C 592 461 590 434 590 408 C 590 350 613 293 661 238 C 709 183 786 156 893 156 C 1003 156 1090 186 1155 248 C 1219 310 1264 387 1288 479 L 1479 1214 C 1483 1229 1487 1246 1491 1265 C 1495 1283 1497 1300 1497 1315 C 1497 1325 1493 1334 1486 1341 C 1478 1347 1465 1355 1446 1364 C 1433 1370 1423 1374 1417 1378 C 1410 1382 1407 1388 1407 1397 C 1407 1401 1407 1406 1409 1412 C 1411 1418 1412 1423 1413 1427 L 1432 1495 Z M 1120 1929 L 1413 1653 L 1353 1602 L 1019 1751 C 974 1771 944 1792 928 1812 C 912 1832 905 1854 905 1880 C 905 1906 913 1929 931 1948 C 948 1966 975 1976 1011 1976 C 1025 1976 1042 1973 1060 1968 C 1078 1962 1098 1949 1120 1929 Z" unicode="" />
<glyph horiz-adv-x="1520" d="M 1432 1495 L 1831 1495 L 1821 1438 C 1816 1414 1811 1398 1805 1390 C 1799 1381 1781 1372 1751 1362 C 1729 1355 1713 1345 1702 1332 C 1690 1319 1679 1293 1669 1255 L 1466 471 C 1420 296 1346 170 1242 93 C 1138 15 1008 -23 852 -23 C 684 -23 550 13 450 86 C 349 159 299 273 299 428 C 299 464 301 500 307 534 C 312 568 317 592 322 606 L 481 1214 C 485 1228 489 1245 493 1264 C 497 1283 500 1300 500 1315 C 500 1325 496 1334 488 1341 C 480 1347 467 1355 449 1364 C 436 1370 426 1374 420 1378 C 413 1382 410 1388 410 1397 C 410 1401 410 1406 412 1412 C 414 1418 415 1423 416 1427 L 434 1495 L 952 1495 L 942 1438 C 938 1414 933 1398 927 1390 C 921 1381 902 1372 872 1362 C 850 1355 834 1345 823 1332 C 811 1318 801 1293 791 1255 L 606 549 C 603 535 600 515 596 488 C 592 461 590 434 590 408 C 590 350 613 293 661 238 C 709 183 786 156 893 156 C 1003 156 1090 186 1155 248 C 1219 310 1264 387 1288 479 L 1479 1214 C 1483 1229 1487 1246 1491 1265 C 1495 1283 1497 1300 1497 1315 C 1497 1325 1493 1334 1486 1341 C 1478 1347 1465 1355 1446 1364 C 1433 1370 1423 1374 1417 1378 C 1410 1382 1407 1388 1407 1397 C 1407 1401 1407 1406 1409 1412 C 1411 1418 1412 1423 1413 1427 L 1432 1495 Z M 1484 1880 C 1484 1854 1476 1831 1460 1811 C 1444 1790 1414 1770 1370 1751 L 1030 1602 L 970 1653 L 1269 1929 C 1290 1948 1310 1961 1328 1967 C 1346 1973 1363 1976 1378 1976 C 1414 1976 1440 1966 1458 1948 C 1475 1929 1484 1906 1484 1880 Z" unicode="" />
<glyph horiz-adv-x="1520" d="M 1432 1495 L 1831 1495 L 1821 1438 C 1816 1414 1811 1398 1805 1390 C 1799 1381 1781 1372 1751 1362 C 1729 1355 1713 1345 1702 1332 C 1690 1319 1679 1293 1669 1255 L 1466 471 C 1420 296 1346 170 1242 93 C 1138 15 1008 -23 852 -23 C 684 -23 550 13 450 86 C 349 159 299 273 299 428 C 299 464 301 500 307 534 C 312 568 317 592 322 606 L 481 1214 C 485 1228 489 1245 493 1264 C 497 1283 500 1300 500 1315 C 500 1325 496 1334 488 1341 C 480 1347 467 1355 449 1364 C 436 1370 426 1374 420 1378 C 413 1382 410 1388 410 1397 C 410 1401 410 1406 412 1412 C 414 1418 415 1423 416 1427 L 434 1495 L 952 1495 L 942 1438 C 938 1414 933 1398 927 1390 C 921 1381 902 1372 872 1362 C 850 1355 834 1345 823 1332 C 811 1318 801 1293 791 1255 L 606 549 C 603 535 600 515 596 488 C 592 461 590 434 590 408 C 590 350 613 293 661 238 C 709 183 786 156 893 156 C 1003 156 1090 186 1155 248 C 1219 310 1264 387 1288 479 L 1479 1214 C 1483 1229 1487 1246 1491 1265 C 1495 1283 1497 1300 1497 1315 C 1497 1325 1493 1334 1486 1341 C 1478 1347 1465 1355 1446 1364 C 1433 1370 1423 1374 1417 1378 C 1410 1382 1407 1388 1407 1397 C 1407 1401 1407 1406 1409 1412 C 1411 1418 1412 1423 1413 1427 L 1432 1495 Z M 1310 1957 L 1498 1605 L 1365 1605 L 1218 1797 L 962 1605 L 806 1605 L 1169 1957 L 1310 1957 Z" unicode="" />
<glyph horiz-adv-x="1520" d="M 1432 1495 L 1831 1495 L 1821 1438 C 1816 1414 1811 1398 1805 1390 C 1799 1381 1781 1372 1751 1362 C 1729 1355 1713 1345 1702 1332 C 1690 1319 1679 1293 1669 1255 L 1466 471 C 1420 296 1346 170 1242 93 C 1138 15 1008 -23 852 -23 C 684 -23 550 13 450 86 C 349 159 299 273 299 428 C 299 464 301 500 307 534 C 312 568 317 592 322 606 L 481 1214 C 485 1228 489 1245 493 1264 C 497 1283 500 1300 500 1315 C 500 1325 496 1334 488 1341 C 480 1347 467 1355 449 1364 C 436 1370 426 1374 420 1378 C 413 1382 410 1388 410 1397 C 410 1401 410 1406 412 1412 C 414 1418 415 1423 416 1427 L 434 1495 L 952 1495 L 942 1438 C 938 1414 933 1398 927 1390 C 921 1381 902 1372 872 1362 C 850 1355 834 1345 823 1332 C 811 1318 801 1293 791 1255 L 606 549 C 603 535 600 515 596 488 C 592 461 590 434 590 408 C 590 350 613 293 661 238 C 709 183 786 156 893 156 C 1003 156 1090 186 1155 248 C 1219 310 1264 387 1288 479 L 1479 1214 C 1483 1229 1487 1246 1491 1265 C 1495 1283 1497 1300 1497 1315 C 1497 1325 1493 1334 1486 1341 C 1478 1347 1465 1355 1446 1364 C 1433 1370 1423 1374 1417 1378 C 1410 1382 1407 1388 1407 1397 C 1407 1401 1407 1406 1409 1412 C 1411 1418 1412 1423 1413 1427 L 1432 1495 Z M 1099 1775 C 1099 1739 1086 1709 1060 1684 C 1034 1658 1004 1646 968 1646 C 932 1646 901 1658 875 1684 C 849 1709 837 1739 837 1775 C 837 1811 849 1841 875 1867 C 901 1893 932 1906 968 1906 C 1004 1906 1034 1893 1060 1867 C 1086 1841 1099 1811 1099 1775 Z M 1540 1775 C 1540 1739 1527 1709 1501 1684 C 1475 1658 1444 1646 1408 1646 C 1372 1646 1342 1658 1316 1684 C 1290 1709 1277 1739 1277 1775 C 1277 1811 1290 1841 1316 1867 C 1342 1893 1372 1906 1408 1906 C 1444 1906 1475 1893 1501 1867 C 1527 1841 1540 1811 1540 1775 Z" unicode="" />
<glyph horiz-adv-x="1352" d="M 1278 1495 L 1737 1495 L 1710 1399 C 1646 1361 1605 1335 1587 1323 C 1569 1311 1551 1295 1534 1276 L 977 664 L 879 281 C 874 265 870 248 866 230 C 862 211 860 194 860 180 C 860 169 863 160 871 154 C 878 148 891 140 911 131 C 923 125 933 120 940 116 C 946 112 950 106 950 98 C 950 93 949 88 947 82 C 945 76 944 72 944 68 L 926 0 L 408 0 L 418 57 C 422 80 426 96 432 105 C 438 113 456 123 487 133 C 508 139 524 149 536 162 C 548 175 559 201 569 240 L 690 698 L 498 1235 C 480 1283 466 1313 456 1326 C 445 1339 423 1350 391 1360 C 383 1362 373 1365 361 1371 C 349 1377 344 1386 344 1399 C 344 1403 344 1409 346 1416 C 348 1422 349 1427 350 1430 L 367 1495 L 893 1495 L 885 1452 C 881 1430 875 1413 869 1399 C 862 1385 847 1374 825 1366 C 800 1358 785 1351 779 1347 C 773 1343 770 1333 770 1319 C 770 1308 771 1300 773 1294 C 775 1288 780 1276 786 1260 L 934 850 L 1296 1264 C 1306 1276 1315 1287 1322 1299 C 1329 1310 1333 1321 1333 1331 C 1333 1340 1328 1347 1318 1353 C 1308 1358 1301 1362 1296 1364 C 1287 1366 1279 1370 1271 1375 C 1263 1380 1260 1388 1260 1399 C 1260 1401 1260 1405 1262 1413 C 1263 1421 1264 1426 1264 1430 L 1278 1495 Z M 1409 1880 C 1409 1854 1401 1831 1385 1811 C 1369 1790 1339 1770 1295 1751 L 955 1602 L 895 1653 L 1194 1929 C 1215 1948 1235 1961 1253 1967 C 1271 1973 1288 1976 1303 1976 C 1339 1976 1365 1966 1383 1948 C 1400 1929 1409 1906 1409 1880 Z" unicode="" />
<glyph horiz-adv-x="1171" d="M 1307 1192 C 1307 1086 1267 1000 1187 934 C 1107 868 1018 829 922 817 C 1024 805 1105 768 1164 706 C 1223 644 1253 561 1253 455 C 1253 322 1203 209 1105 116 C 1006 23 893 -23 766 -23 C 692 -23 632 -11 586 13 C 540 37 518 74 518 125 C 518 163 530 195 555 220 C 580 245 613 258 653 258 C 683 258 708 250 728 234 C 748 218 758 195 758 164 C 758 151 756 138 752 125 C 748 111 742 99 735 88 C 811 93 871 135 914 215 C 957 295 980 386 983 489 C 985 571 966 634 928 676 C 889 718 828 739 745 739 C 729 739 715 744 705 754 C 695 764 690 777 690 795 C 690 817 699 838 718 858 C 736 877 757 887 780 887 L 836 887 C 907 887 960 914 995 968 C 1029 1022 1047 1090 1049 1174 C 1049 1222 1038 1266 1015 1306 C 992 1346 953 1366 897 1366 C 833 1366 780 1338 739 1283 C 697 1227 662 1136 633 1010 L 399 0 L 139 0 L 373 1008 C 407 1158 471 1276 565 1364 C 659 1451 777 1495 920 1495 C 1031 1495 1123 1467 1197 1413 C 1270 1359 1307 1285 1307 1192 Z" unicode="" />
<glyph horiz-adv-x="1186" d="M 1266 975 C 1266 969 1264 959 1260 946 C 1256 932 1253 919 1249 907 L 1090 281 C 1084 260 1080 241 1076 223 C 1072 205 1071 191 1071 180 C 1071 168 1075 157 1084 149 C 1093 141 1102 137 1110 137 C 1123 137 1133 138 1141 140 C 1148 142 1163 147 1186 156 L 1210 115 C 1214 108 1217 101 1217 95 C 1217 89 1217 84 1217 80 C 1217 58 1189 36 1134 12 C 1079 -11 1027 -23 977 -23 C 911 -23 868 -4 848 33 C 827 71 815 105 813 137 C 779 101 734 66 679 30 C 623 -5 560 -23 489 -23 C 388 -23 311 11 257 81 C 203 151 176 240 176 348 C 176 528 239 683 366 812 C 492 941 637 1006 799 1006 C 851 1006 893 999 926 987 C 958 974 985 961 1006 948 C 1018 941 1031 935 1045 929 C 1059 923 1073 920 1087 920 C 1101 920 1117 925 1134 936 C 1150 946 1173 963 1202 987 C 1206 989 1211 993 1219 999 C 1227 1005 1235 1008 1243 1008 C 1254 1008 1261 1004 1263 997 C 1265 990 1266 983 1266 975 Z M 952 748 C 952 772 940 800 916 831 C 892 861 855 877 803 877 C 694 877 607 820 541 708 C 475 595 442 483 442 373 C 442 313 454 265 480 227 C 506 189 543 170 592 170 C 646 170 694 183 735 209 C 775 235 811 261 842 287 L 942 686 C 942 690 944 699 947 712 C 950 725 952 737 952 748 Z M 807 1446 L 1046 1143 L 983 1100 L 686 1286 C 650 1308 624 1329 610 1349 C 595 1368 588 1388 588 1409 C 588 1435 596 1459 613 1479 C 629 1499 652 1509 682 1509 C 699 1509 718 1505 740 1499 C 762 1492 784 1474 807 1446 Z" unicode="" />
<glyph horiz-adv-x="1186" d="M 1266 975 C 1266 969 1264 959 1260 946 C 1256 932 1253 919 1249 907 L 1090 281 C 1084 260 1080 241 1076 223 C 1072 205 1071 191 1071 180 C 1071 168 1075 157 1084 149 C 1093 141 1102 137 1110 137 C 1123 137 1133 138 1141 140 C 1148 142 1163 147 1186 156 L 1210 115 C 1214 108 1217 101 1217 95 C 1217 89 1217 84 1217 80 C 1217 58 1189 36 1134 12 C 1079 -11 1027 -23 977 -23 C 911 -23 868 -4 848 33 C 827 71 815 105 813 137 C 779 101 734 66 679 30 C 623 -5 560 -23 489 -23 C 388 -23 311 11 257 81 C 203 151 176 240 176 348 C 176 528 239 683 366 812 C 492 941 637 1006 799 1006 C 851 1006 893 999 926 987 C 958 974 985 961 1006 948 C 1018 941 1031 935 1045 929 C 1059 923 1073 920 1087 920 C 1101 920 1117 925 1134 936 C 1150 946 1173 963 1202 987 C 1206 989 1211 993 1219 999 C 1227 1005 1235 1008 1243 1008 C 1254 1008 1261 1004 1263 997 C 1265 990 1266 983 1266 975 Z M 952 748 C 952 772 940 800 916 831 C 892 861 855 877 803 877 C 694 877 607 820 541 708 C 475 595 442 483 442 373 C 442 313 454 265 480 227 C 506 189 543 170 592 170 C 646 170 694 183 735 209 C 775 235 811 261 842 287 L 942 686 C 942 690 944 699 947 712 C 950 725 952 737 952 748 Z M 1085 1409 C 1085 1388 1077 1368 1062 1349 C 1047 1329 1022 1308 987 1286 L 690 1100 L 626 1143 L 866 1446 C 888 1474 910 1492 932 1499 C 954 1505 973 1509 991 1509 C 1020 1509 1043 1499 1060 1479 C 1076 1459 1085 1435 1085 1409 Z" unicode="" />
<glyph horiz-adv-x="1186" d="M 1266 975 C 1266 969 1264 959 1260 946 C 1256 932 1253 919 1249 907 L 1090 281 C 1084 260 1080 241 1076 223 C 1072 205 1071 191 1071 180 C 1071 168 1075 157 1084 149 C 1093 141 1102 137 1110 137 C 1123 137 1133 138 1141 140 C 1148 142 1163 147 1186 156 L 1210 115 C 1214 108 1217 101 1217 95 C 1217 89 1217 84 1217 80 C 1217 58 1189 36 1134 12 C 1079 -11 1027 -23 977 -23 C 911 -23 868 -4 848 33 C 827 71 815 105 813 137 C 779 101 734 66 679 30 C 623 -5 560 -23 489 -23 C 388 -23 311 11 257 81 C 203 151 176 240 176 348 C 176 528 239 683 366 812 C 492 941 637 1006 799 1006 C 851 1006 893 999 926 987 C 958 974 985 961 1006 948 C 1018 941 1031 935 1045 929 C 1059 923 1073 920 1087 920 C 1101 920 1117 925 1134 936 C 1150 946 1173 963 1202 987 C 1206 989 1211 993 1219 999 C 1227 1005 1235 1008 1243 1008 C 1254 1008 1261 1004 1263 997 C 1265 990 1266 983 1266 975 Z M 952 748 C 952 772 940 800 916 831 C 892 861 855 877 803 877 C 694 877 607 820 541 708 C 475 595 442 483 442 373 C 442 313 454 265 480 227 C 506 189 543 170 592 170 C 646 170 694 183 735 209 C 775 235 811 261 842 287 L 942 686 C 942 690 944 699 947 712 C 950 725 952 737 952 748 Z M 960 1495 L 1148 1143 L 1015 1143 L 868 1335 L 612 1143 L 456 1143 L 819 1495 L 960 1495 Z" unicode="" />
<glyph horiz-adv-x="1186" d="M 1266 975 C 1266 969 1264 959 1260 946 C 1256 932 1253 919 1249 907 L 1090 281 C 1084 260 1080 241 1076 223 C 1072 205 1071 191 1071 180 C 1071 168 1075 157 1084 149 C 1093 141 1102 137 1110 137 C 1123 137 1133 138 1141 140 C 1148 142 1163 147 1186 156 L 1210 115 C 1214 108 1217 101 1217 95 C 1217 89 1217 84 1217 80 C 1217 58 1189 36 1134 12 C 1079 -11 1027 -23 977 -23 C 911 -23 868 -4 848 33 C 827 71 815 105 813 137 C 779 101 734 66 679 30 C 623 -5 560 -23 489 -23 C 388 -23 311 11 257 81 C 203 151 176 240 176 348 C 176 528 239 683 366 812 C 492 941 637 1006 799 1006 C 851 1006 893 999 926 987 C 958 974 985 961 1006 948 C 1018 941 1031 935 1045 929 C 1059 923 1073 920 1087 920 C 1101 920 1117 925 1134 936 C 1150 946 1173 963 1202 987 C 1206 989 1211 993 1219 999 C 1227 1005 1235 1008 1243 1008 C 1254 1008 1261 1004 1263 997 C 1265 990 1266 983 1266 975 Z M 952 748 C 952 772 940 800 916 831 C 892 861 855 877 803 877 C 694 877 607 820 541 708 C 475 595 442 483 442 373 C 442 313 454 265 480 227 C 506 189 543 170 592 170 C 646 170 694 183 735 209 C 775 235 811 261 842 287 L 942 686 C 942 690 944 699 947 712 C 950 725 952 737 952 748 Z M 1132 1436 L 1220 1436 C 1203 1361 1170 1299 1122 1249 C 1073 1199 1020 1174 964 1174 C 939 1174 914 1177 890 1184 C 865 1190 838 1204 808 1225 C 785 1241 764 1252 744 1258 C 724 1264 704 1268 683 1268 C 658 1268 635 1258 613 1240 C 591 1221 577 1197 569 1167 L 480 1167 C 495 1241 527 1304 575 1354 C 623 1404 676 1430 734 1430 C 766 1430 794 1426 817 1418 C 839 1410 863 1398 888 1382 C 913 1365 936 1353 956 1346 C 976 1338 995 1335 1015 1335 C 1040 1335 1064 1344 1086 1363 C 1108 1381 1123 1406 1132 1436 Z" unicode="" />
<glyph horiz-adv-x="1186" d="M 1266 975 C 1266 969 1264 959 1260 946 C 1256 932 1253 919 1249 907 L 1090 281 C 1084 260 1080 241 1076 223 C 1072 205 1071 191 1071 180 C 1071 168 1075 157 1084 149 C 1093 141 1102 137 1110 137 C 1123 137 1133 138 1141 140 C 1148 142 1163 147 1186 156 L 1210 115 C 1214 108 1217 101 1217 95 C 1217 89 1217 84 1217 80 C 1217 58 1189 36 1134 12 C 1079 -11 1027 -23 977 -23 C 911 -23 868 -4 848 33 C 827 71 815 105 813 137 C 779 101 734 66 679 30 C 623 -5 560 -23 489 -23 C 388 -23 311 11 257 81 C 203 151 176 240 176 348 C 176 528 239 683 366 812 C 492 941 637 1006 799 1006 C 851 1006 893 999 926 987 C 958 974 985 961 1006 948 C 1018 941 1031 935 1045 929 C 1059 923 1073 920 1087 920 C 1101 920 1117 925 1134 936 C 1150 946 1173 963 1202 987 C 1206 989 1211 993 1219 999 C 1227 1005 1235 1008 1243 1008 C 1254 1008 1261 1004 1263 997 C 1265 990 1266 983 1266 975 Z M 952 748 C 952 772 940 800 916 831 C 892 861 855 877 803 877 C 694 877 607 820 541 708 C 475 595 442 483 442 373 C 442 313 454 265 480 227 C 506 189 543 170 592 170 C 646 170 694 183 735 209 C 775 235 811 261 842 287 L 942 686 C 942 690 944 699 947 712 C 950 725 952 737 952 748 Z M 777 1292 C 777 1256 764 1226 738 1201 C 712 1175 682 1163 646 1163 C 610 1163 579 1175 553 1201 C 527 1226 515 1256 515 1292 C 515 1328 527 1358 553 1384 C 579 1410 610 1423 646 1423 C 682 1423 712 1410 738 1384 C 764 1358 777 1328 777 1292 Z M 1218 1292 C 1218 1256 1205 1226 1179 1201 C 1153 1175 1122 1163 1086 1163 C 1050 1163 1020 1175 994 1201 C 968 1226 955 1256 955 1292 C 955 1328 968 1358 994 1384 C 1020 1410 1050 1423 1086 1423 C 1122 1423 1153 1410 1179 1384 C 1205 1358 1218 1328 1218 1292 Z" unicode="" />
<glyph horiz-adv-x="1186" d="M 1266 975 C 1266 969 1264 959 1260 946 C 1256 932 1253 919 1249 907 L 1090 281 C 1084 260 1080 241 1076 223 C 1072 205 1071 191 1071 180 C 1071 168 1075 157 1084 149 C 1093 141 1102 137 1110 137 C 1123 137 1133 138 1141 140 C 1148 142 1163 147 1186 156 L 1210 115 C 1214 108 1217 101 1217 95 C 1217 89 1217 84 1217 80 C 1217 58 1189 36 1134 12 C 1079 -11 1027 -23 977 -23 C 911 -23 868 -4 848 33 C 827 71 815 105 813 137 C 779 101 734 66 679 30 C 623 -5 560 -23 489 -23 C 388 -23 311 11 257 81 C 203 151 176 240 176 348 C 176 528 239 683 366 812 C 492 941 637 1006 799 1006 C 851 1006 893 999 926 987 C 958 974 985 961 1006 948 C 1018 941 1031 935 1045 929 C 1059 923 1073 920 1087 920 C 1101 920 1117 925 1134 936 C 1150 946 1173 963 1202 987 C 1206 989 1211 993 1219 999 C 1227 1005 1235 1008 1243 1008 C 1254 1008 1261 1004 1263 997 C 1265 990 1266 983 1266 975 Z M 952 748 C 952 772 940 800 916 831 C 892 861 855 877 803 877 C 694 877 607 820 541 708 C 475 595 442 483 442 373 C 442 313 454 265 480 227 C 506 189 543 170 592 170 C 646 170 694 183 735 209 C 775 235 811 261 842 287 L 942 686 C 942 690 944 699 947 712 C 950 725 952 737 952 748 Z M 1114 1360 C 1114 1290 1085 1231 1029 1185 C 972 1139 907 1116 835 1116 C 767 1116 711 1135 667 1174 C 623 1212 602 1261 602 1319 C 602 1379 627 1434 678 1486 C 728 1537 795 1563 878 1563 C 948 1563 1005 1543 1049 1504 C 1092 1465 1114 1417 1114 1360 Z M 968 1366 C 968 1400 961 1428 948 1450 C 934 1472 912 1483 882 1483 C 836 1483 802 1465 780 1430 C 758 1395 747 1357 747 1315 C 747 1284 752 1256 764 1232 C 775 1208 797 1196 831 1196 C 877 1196 911 1212 934 1246 C 956 1280 968 1320 968 1366 Z" unicode="" />
<glyph horiz-adv-x="1665" d="M 1792 760 C 1792 653 1744 573 1650 521 C 1555 468 1423 442 1253 442 L 1116 442 L 1116 371 C 1116 290 1138 230 1183 191 C 1227 152 1278 133 1335 133 C 1386 133 1439 146 1495 172 C 1550 198 1607 237 1665 287 L 1696 252 C 1704 241 1711 233 1717 228 C 1723 222 1726 215 1726 205 C 1726 180 1684 136 1600 72 C 1516 8 1405 -23 1266 -23 C 1176 -23 1100 -4 1040 33 C 980 70 935 122 907 190 C 851 118 787 65 715 30 C 643 -5 568 -23 489 -23 C 388 -23 311 11 257 81 C 203 151 176 240 176 348 C 176 528 239 683 366 812 C 492 941 637 1006 799 1006 C 826 1006 856 1002 889 996 C 921 989 949 979 973 967 C 985 959 998 953 1011 947 C 1023 941 1035 938 1047 938 C 1055 938 1066 940 1080 945 C 1093 949 1114 963 1143 987 C 1147 989 1152 993 1160 999 C 1167 1005 1175 1008 1184 1008 C 1194 1008 1201 1004 1203 997 C 1205 990 1206 983 1206 975 C 1206 972 1205 965 1204 953 C 1203 941 1202 932 1200 926 C 1238 949 1283 968 1336 983 C 1388 998 1438 1006 1485 1006 C 1574 1006 1647 983 1705 938 C 1763 892 1792 833 1792 760 Z M 948 750 C 948 774 936 802 914 832 C 892 862 855 877 803 877 C 694 877 607 820 541 708 C 475 595 442 483 442 373 C 442 313 454 265 480 227 C 506 189 543 170 592 170 C 646 170 693 182 732 206 C 770 230 806 257 838 287 L 938 688 C 938 692 940 701 943 714 C 946 727 948 739 948 750 Z M 1552 764 C 1552 793 1544 820 1529 844 C 1513 868 1484 881 1440 881 C 1369 881 1307 850 1255 789 C 1203 727 1164 653 1139 567 C 1249 567 1325 573 1367 585 C 1409 596 1445 610 1475 627 C 1493 637 1510 654 1527 676 C 1543 698 1552 728 1552 764 Z" unicode="" />
<glyph horiz-adv-x="928" d="M 1100 799 C 1100 761 1088 729 1065 703 C 1042 677 1011 664 973 664 C 938 664 907 675 881 697 C 855 719 842 748 842 786 C 842 793 842 801 844 811 C 846 820 848 830 850 842 C 839 848 826 856 810 864 C 794 872 773 877 745 877 C 644 877 570 827 523 727 C 476 627 453 530 453 434 C 453 340 473 268 513 216 C 553 164 608 139 678 139 C 722 139 767 149 812 169 C 857 189 900 215 940 248 L 981 193 C 987 185 991 178 994 170 C 997 162 999 156 999 152 C 999 120 964 85 895 47 C 826 9 746 -13 655 -20 L 608 -100 C 665 -105 709 -122 740 -150 C 770 -178 786 -214 786 -258 C 786 -300 765 -343 725 -388 C 684 -432 612 -455 510 -455 C 448 -455 393 -441 346 -415 C 299 -389 259 -363 227 -338 L 289 -262 C 317 -281 349 -300 383 -320 C 417 -340 457 -350 504 -350 C 544 -350 570 -339 583 -319 C 595 -299 602 -280 602 -264 C 602 -247 594 -231 579 -217 C 564 -202 540 -195 506 -195 C 499 -195 489 -195 477 -196 C 465 -197 451 -199 436 -201 L 553 -20 C 445 -10 356 34 288 112 C 220 190 186 294 186 424 C 186 557 240 687 349 815 C 458 942 602 1006 780 1006 C 893 1006 975 982 1025 935 C 1075 888 1100 843 1100 799 Z" unicode="" />
<glyph horiz-adv-x="991" d="M 1118 760 C 1118 653 1070 573 976 521 C 881 468 748 442 578 442 L 438 442 L 438 371 C 438 290 460 230 506 191 C 552 152 603 133 659 133 C 711 133 765 146 821 172 C 877 198 935 237 993 287 L 1022 252 C 1030 241 1038 233 1044 228 C 1050 222 1053 215 1053 205 C 1053 180 1010 136 926 72 C 842 8 730 -23 590 -23 C 457 -23 356 18 288 100 C 220 182 186 286 186 412 C 186 576 248 716 373 832 C 497 948 643 1006 809 1006 C 898 1006 972 983 1030 938 C 1088 892 1118 833 1118 760 Z M 881 764 C 881 793 872 820 856 844 C 839 868 808 881 764 881 C 694 881 633 850 580 789 C 527 727 488 653 463 567 C 571 567 648 573 692 585 C 736 596 772 610 801 627 C 820 637 838 654 855 676 C 872 698 881 728 881 764 Z M 766 1446 L 1005 1143 L 942 1100 L 645 1286 C 609 1308 583 1329 569 1349 C 554 1368 547 1388 547 1409 C 547 1435 555 1459 572 1479 C 588 1499 611 1509 641 1509 C 658 1509 677 1505 699 1499 C 721 1492 743 1474 766 1446 Z" unicode="" />
<glyph horiz-adv-x="991" d="M 1118 760 C 1118 653 1070 573 976 521 C 881 468 748 442 578 442 L 438 442 L 438 371 C 438 290 460 230 506 191 C 552 152 603 133 659 133 C 711 133 765 146 821 172 C 877 198 935 237 993 287 L 1022 252 C 1030 241 1038 233 1044 228 C 1050 222 1053 215 1053 205 C 1053 180 1010 136 926 72 C 842 8 730 -23 590 -23 C 457 -23 356 18 288 100 C 220 182 186 286 186 412 C 186 576 248 716 373 832 C 497 948 643 1006 809 1006 C 898 1006 972 983 1030 938 C 1088 892 1118 833 1118 760 Z M 881 764 C 881 793 872 820 856 844 C 839 868 808 881 764 881 C 694 881 633 850 580 789 C 527 727 488 653 463 567 C 571 567 648 573 692 585 C 736 596 772 610 801 627 C 820 637 838 654 855 676 C 872 698 881 728 881 764 Z M 1036 1409 C 1036 1388 1028 1368 1013 1349 C 998 1329 973 1308 938 1286 L 641 1100 L 577 1143 L 817 1446 C 839 1474 861 1492 883 1499 C 905 1505 924 1509 942 1509 C 971 1509 994 1499 1011 1479 C 1027 1459 1036 1435 1036 1409 Z" unicode="" />
<glyph horiz-adv-x="991" d="M 1118 760 C 1118 653 1070 573 976 521 C 881 468 748 442 578 442 L 438 442 L 438 371 C 438 290 460 230 506 191 C 552 152 603 133 659 133 C 711 133 765 146 821 172 C 877 198 935 237 993 287 L 1022 252 C 1030 241 1038 233 1044 228 C 1050 222 1053 215 1053 205 C 1053 180 1010 136 926 72 C 842 8 730 -23 590 -23 C 457 -23 356 18 288 100 C 220 182 186 286 186 412 C 186 576 248 716 373 832 C 497 948 643 1006 809 1006 C 898 1006 972 983 1030 938 C 1088 892 1118 833 1118 760 Z M 881 764 C 881 793 872 820 856 844 C 839 868 808 881 764 881 C 694 881 633 850 580 789 C 527 727 488 653 463 567 C 571 567 648 573 692 585 C 736 596 772 610 801 627 C 820 637 838 654 855 676 C 872 698 881 728 881 764 Z M 931 1495 L 1119 1143 L 986 1143 L 839 1335 L 583 1143 L 427 1143 L 790 1495 L 931 1495 Z" unicode="" />
<glyph horiz-adv-x="991" d="M 1118 760 C 1118 653 1070 573 976 521 C 881 468 748 442 578 442 L 438 442 L 438 371 C 438 290 460 230 506 191 C 552 152 603 133 659 133 C 711 133 765 146 821 172 C 877 198 935 237 993 287 L 1022 252 C 1030 241 1038 233 1044 228 C 1050 222 1053 215 1053 205 C 1053 180 1010 136 926 72 C 842 8 730 -23 590 -23 C 457 -23 356 18 288 100 C 220 182 186 286 186 412 C 186 576 248 716 373 832 C 497 948 643 1006 809 1006 C 898 1006 972 983 1030 938 C 1088 892 1118 833 1118 760 Z M 881 764 C 881 793 872 820 856 844 C 839 868 808 881 764 881 C 694 881 633 850 580 789 C 527 727 488 653 463 567 C 571 567 648 573 692 585 C 736 596 772 610 801 627 C 820 637 838 654 855 676 C 872 698 881 728 881 764 Z M 718 1292 C 718 1256 705 1226 679 1201 C 653 1175 623 1163 587 1163 C 551 1163 520 1175 494 1201 C 468 1226 456 1256 456 1292 C 456 1328 468 1358 494 1384 C 520 1410 551 1423 587 1423 C 623 1423 653 1410 679 1384 C 705 1358 718 1328 718 1292 Z M 1159 1292 C 1159 1256 1146 1226 1120 1201 C 1094 1175 1063 1163 1027 1163 C 991 1163 961 1175 935 1201 C 909 1226 896 1256 896 1292 C 896 1328 909 1358 935 1384 C 961 1410 991 1423 1027 1423 C 1063 1423 1094 1410 1120 1384 C 1146 1358 1159 1328 1159 1292 Z" unicode="" />
<glyph horiz-adv-x="606" d="M 674 973 C 674 965 671 952 667 934 C 663 915 657 894 651 872 L 498 281 C 492 263 488 245 485 225 C 482 205 481 190 481 180 C 481 168 485 157 494 149 C 503 141 512 137 520 137 C 533 137 544 138 552 140 C 560 142 575 147 598 156 L 623 115 C 627 108 629 101 630 95 C 630 89 631 84 631 80 C 631 58 608 36 564 12 C 519 -11 470 -23 418 -23 C 347 -23 297 -6 267 28 C 237 62 223 99 223 139 C 223 152 224 171 226 195 C 228 219 235 250 246 287 L 348 662 C 350 670 353 685 357 706 C 360 727 362 741 362 748 C 362 766 356 779 345 785 C 334 791 317 799 295 807 C 290 809 284 812 278 817 C 271 821 268 829 268 840 C 268 846 269 855 271 865 C 273 875 276 882 279 887 L 289 915 C 358 924 415 935 461 948 C 506 961 543 973 573 983 C 597 991 612 996 620 1000 C 627 1004 634 1006 641 1006 C 653 1006 662 1003 667 997 C 671 991 674 983 674 973 Z M 545 1446 L 784 1143 L 721 1100 L 424 1286 C 388 1308 362 1329 348 1349 C 333 1368 326 1388 326 1409 C 326 1435 334 1459 351 1479 C 367 1499 390 1509 420 1509 C 437 1509 456 1505 478 1499 C 500 1492 522 1474 545 1446 Z" unicode="" />
<glyph horiz-adv-x="606" d="M 674 973 C 674 965 671 952 667 934 C 663 915 657 894 651 872 L 498 281 C 492 263 488 245 485 225 C 482 205 481 190 481 180 C 481 168 485 157 494 149 C 503 141 512 137 520 137 C 533 137 544 138 552 140 C 560 142 575 147 598 156 L 623 115 C 627 108 629 101 630 95 C 630 89 631 84 631 80 C 631 58 608 36 564 12 C 519 -11 470 -23 418 -23 C 347 -23 297 -6 267 28 C 237 62 223 99 223 139 C 223 152 224 171 226 195 C 228 219 235 250 246 287 L 348 662 C 350 670 353 685 357 706 C 360 727 362 741 362 748 C 362 766 356 779 345 785 C 334 791 317 799 295 807 C 290 809 284 812 278 817 C 271 821 268 829 268 840 C 268 846 269 855 271 865 C 273 875 276 882 279 887 L 289 915 C 358 924 415 935 461 948 C 506 961 543 973 573 983 C 597 991 612 996 620 1000 C 627 1004 634 1006 641 1006 C 653 1006 662 1003 667 997 C 671 991 674 983 674 973 Z M 832 1409 C 832 1388 824 1368 809 1349 C 794 1329 769 1308 734 1286 L 437 1100 L 373 1143 L 613 1446 C 635 1474 657 1492 679 1499 C 701 1505 720 1509 738 1509 C 767 1509 790 1499 807 1479 C 823 1459 832 1435 832 1409 Z" unicode="" />
<glyph horiz-adv-x="606" d="M 727 1495 L 909 1143 L 776 1143 L 635 1335 L 385 1143 L 229 1143 L 586 1495 L 727 1495 Z M 674 973 C 674 965 671 952 667 934 C 663 915 657 894 651 872 L 498 281 C 492 263 488 245 485 225 C 482 205 481 190 481 180 C 481 168 485 157 494 149 C 503 141 512 137 520 137 C 533 137 544 138 552 140 C 560 142 575 147 598 156 L 623 115 C 627 108 629 101 630 95 C 630 89 631 84 631 80 C 631 58 608 36 564 12 C 519 -11 470 -23 418 -23 C 347 -23 297 -6 267 28 C 237 62 223 99 223 139 C 223 152 224 171 226 195 C 228 219 235 250 246 287 L 348 662 C 350 670 353 685 357 706 C 360 727 362 741 362 748 C 362 766 356 779 345 785 C 334 791 317 799 295 807 C 290 809 284 812 278 817 C 271 821 268 829 268 840 C 268 846 269 855 271 865 C 273 875 276 882 279 887 L 289 915 C 358 924 415 935 461 948 C 506 961 543 973 573 983 C 597 991 612 996 620 1000 C 627 1004 634 1006 641 1006 C 653 1006 662 1003 667 997 C 671 991 674 983 674 973 Z" unicode="" />
<glyph horiz-adv-x="606" d="M 506 1292 C 506 1256 493 1226 467 1201 C 441 1175 410 1163 375 1163 C 339 1163 308 1175 282 1201 C 256 1226 244 1256 244 1292 C 244 1328 256 1358 282 1384 C 308 1410 339 1423 375 1423 C 410 1423 441 1410 467 1384 C 493 1358 506 1328 506 1292 Z M 934 1292 C 934 1256 921 1226 895 1201 C 869 1175 838 1163 803 1163 C 767 1163 736 1175 710 1201 C 684 1226 672 1256 672 1292 C 672 1328 684 1358 710 1384 C 736 1410 767 1423 803 1423 C 838 1423 869 1410 895 1384 C 921 1358 934 1328 934 1292 Z M 674 973 C 674 965 671 952 667 934 C 663 915 657 894 651 872 L 498 281 C 492 263 488 245 485 225 C 482 205 481 190 481 180 C 481 168 485 157 494 149 C 503 141 512 137 520 137 C 533 137 544 138 552 140 C 560 142 575 147 598 156 L 623 115 C 627 108 629 101 630 95 C 630 89 631 84 631 80 C 631 58 608 36 564 12 C 519 -11 470 -23 418 -23 C 347 -23 297 -6 267 28 C 237 62 223 99 223 139 C 223 152 224 171 226 195 C 228 219 235 250 246 287 L 348 662 C 350 670 353 685 357 706 C 360 727 362 741 362 748 C 362 766 356 779 345 785 C 334 791 317 799 295 807 C 290 809 284 812 278 817 C 271 821 268 829 268 840 C 268 846 269 855 271 865 C 273 875 276 882 279 887 L 289 915 C 358 924 415 935 461 948 C 506 961 543 973 573 983 C 597 991 612 996 620 1000 C 627 1004 634 1006 641 1006 C 653 1006 662 1003 667 997 C 671 991 674 983 674 973 Z" unicode="" />
<glyph horiz-adv-x="1208" d="M 1255 80 C 1255 58 1232 36 1188 12 C 1144 -11 1095 -23 1042 -23 C 972 -23 921 -6 889 28 C 857 62 842 99 842 139 C 842 152 843 170 845 194 C 847 218 854 249 864 287 L 967 666 C 969 674 970 684 971 697 C 972 710 973 723 973 735 C 973 761 962 783 940 800 C 918 816 892 825 862 825 C 810 825 763 812 721 788 C 679 763 646 741 623 723 L 442 0 L 186 0 L 354 662 C 356 670 359 686 364 708 C 368 730 371 744 371 752 C 371 770 365 781 353 787 C 341 792 324 799 303 807 C 298 807 292 810 286 816 C 279 821 276 829 276 840 C 276 846 277 855 280 865 C 282 875 285 882 287 887 L 297 915 C 366 926 421 938 463 950 C 504 962 539 973 569 983 C 592 991 607 996 614 1000 C 621 1004 628 1006 635 1006 C 647 1006 655 1003 660 997 C 665 991 668 983 668 973 C 668 965 665 951 661 931 C 656 911 651 889 645 866 C 683 894 729 925 783 957 C 837 989 900 1006 973 1006 C 1052 1006 1115 981 1162 931 C 1209 881 1233 821 1233 752 C 1233 706 1228 665 1219 629 C 1210 593 1202 562 1196 537 L 1122 281 C 1117 263 1113 245 1109 225 C 1105 205 1104 190 1104 180 C 1104 168 1108 157 1118 149 C 1127 141 1136 137 1145 137 C 1157 137 1168 138 1176 140 C 1184 142 1200 147 1223 156 L 1247 115 C 1251 108 1253 101 1254 95 C 1254 89 1255 84 1255 80 Z M 1147 1436 L 1235 1436 C 1218 1361 1185 1299 1137 1249 C 1088 1199 1035 1174 979 1174 C 954 1174 929 1177 905 1184 C 880 1190 853 1204 823 1225 C 800 1241 779 1252 759 1258 C 739 1264 719 1268 698 1268 C 673 1268 650 1258 628 1240 C 606 1221 592 1197 584 1167 L 495 1167 C 510 1241 542 1304 590 1354 C 638 1404 691 1430 749 1430 C 781 1430 809 1426 832 1418 C 854 1410 878 1398 903 1382 C 928 1365 951 1353 971 1346 C 991 1338 1010 1335 1030 1335 C 1055 1335 1079 1344 1101 1363 C 1123 1381 1138 1406 1147 1436 Z" unicode="" />
<glyph horiz-adv-x="1112" d="M 1200 561 C 1200 404 1143 267 1031 151 C 919 35 779 -23 612 -23 C 484 -23 381 18 303 102 C 225 185 186 288 186 410 C 186 560 237 697 341 821 C 445 944 586 1006 766 1006 C 886 1006 989 965 1073 884 C 1157 802 1200 695 1200 561 Z M 934 680 C 934 744 918 793 886 828 C 854 863 814 881 766 881 C 669 881 592 822 536 706 C 479 589 451 454 451 301 C 451 233 468 183 503 150 C 538 116 579 100 627 100 C 718 100 792 159 849 279 C 905 399 934 532 934 680 Z M 735 1446 L 974 1143 L 911 1100 L 614 1286 C 578 1308 552 1329 538 1349 C 523 1368 516 1388 516 1409 C 516 1435 524 1459 541 1479 C 557 1499 580 1509 610 1509 C 627 1509 646 1505 668 1499 C 690 1492 712 1474 735 1446 Z" unicode="" />
<glyph horiz-adv-x="1112" d="M 1200 561 C 1200 404 1143 267 1031 151 C 919 35 779 -23 612 -23 C 484 -23 381 18 303 102 C 225 185 186 288 186 410 C 186 560 237 697 341 821 C 445 944 586 1006 766 1006 C 886 1006 989 965 1073 884 C 1157 802 1200 695 1200 561 Z M 934 680 C 934 744 918 793 886 828 C 854 863 814 881 766 881 C 669 881 592 822 536 706 C 479 589 451 454 451 301 C 451 233 468 183 503 150 C 538 116 579 100 627 100 C 718 100 792 159 849 279 C 905 399 934 532 934 680 Z M 1042 1409 C 1042 1388 1034 1368 1019 1349 C 1004 1329 979 1308 944 1286 L 647 1100 L 583 1143 L 823 1446 C 845 1474 867 1492 889 1499 C 911 1505 930 1509 948 1509 C 977 1509 1000 1499 1017 1479 C 1033 1459 1042 1435 1042 1409 Z" unicode="" />
<glyph horiz-adv-x="1112" d="M 1200 561 C 1200 404 1143 267 1031 151 C 919 35 779 -23 612 -23 C 484 -23 381 18 303 102 C 225 185 186 288 186 410 C 186 560 237 697 341 821 C 445 944 586 1006 766 1006 C 886 1006 989 965 1073 884 C 1157 802 1200 695 1200 561 Z M 934 680 C 934 744 918 793 886 828 C 854 863 814 881 766 881 C 669 881 592 822 536 706 C 479 589 451 454 451 301 C 451 233 468 183 503 150 C 538 116 579 100 627 100 C 718 100 792 159 849 279 C 905 399 934 532 934 680 Z M 929 1495 L 1117 1143 L 984 1143 L 837 1335 L 581 1143 L 425 1143 L 788 1495 L 929 1495 Z" unicode="" />
<glyph horiz-adv-x="1112" d="M 1200 561 C 1200 404 1143 267 1031 151 C 919 35 779 -23 612 -23 C 484 -23 381 18 303 102 C 225 185 186 288 186 410 C 186 560 237 697 341 821 C 445 944 586 1006 766 1006 C 886 1006 989 965 1073 884 C 1157 802 1200 695 1200 561 Z M 934 680 C 934 744 918 793 886 828 C 854 863 814 881 766 881 C 669 881 592 822 536 706 C 479 589 451 454 451 301 C 451 233 468 183 503 150 C 538 116 579 100 627 100 C 718 100 792 159 849 279 C 905 399 934 532 934 680 Z M 1089 1436 L 1177 1436 C 1160 1361 1127 1299 1079 1249 C 1030 1199 977 1174 921 1174 C 896 1174 871 1177 847 1184 C 822 1190 795 1204 765 1225 C 742 1241 721 1252 701 1258 C 681 1264 661 1268 640 1268 C 615 1268 592 1258 570 1240 C 548 1221 534 1197 526 1167 L 437 1167 C 452 1241 484 1304 532 1354 C 580 1404 633 1430 691 1430 C 723 1430 751 1426 774 1418 C 796 1410 820 1398 845 1382 C 870 1365 893 1353 913 1346 C 933 1338 952 1335 972 1335 C 997 1335 1021 1344 1043 1363 C 1065 1381 1080 1406 1089 1436 Z" unicode="" />
<glyph horiz-adv-x="1112" d="M 1200 561 C 1200 404 1143 267 1031 151 C 919 35 779 -23 612 -23 C 484 -23 381 18 303 102 C 225 185 186 288 186 410 C 186 560 237 697 341 821 C 445 944 586 1006 766 1006 C 886 1006 989 965 1073 884 C 1157 802 1200 695 1200 561 Z M 934 680 C 934 744 918 793 886 828 C 854 863 814 881 766 881 C 669 881 592 822 536 706 C 479 589 451 454 451 301 C 451 233 468 183 503 150 C 538 116 579 100 627 100 C 718 100 792 159 849 279 C 905 399 934 532 934 680 Z M 724 1292 C 724 1256 711 1226 685 1201 C 659 1175 629 1163 593 1163 C 557 1163 526 1175 500 1201 C 474 1226 462 1256 462 1292 C 462 1328 474 1358 500 1384 C 526 1410 557 1423 593 1423 C 629 1423 659 1410 685 1384 C 711 1358 724 1328 724 1292 Z M 1165 1292 C 1165 1256 1152 1226 1126 1201 C 1100 1175 1069 1163 1033 1163 C 997 1163 967 1175 941 1201 C 915 1226 902 1256 902 1292 C 902 1328 915 1358 941 1384 C 967 1410 997 1423 1033 1423 C 1069 1423 1100 1410 1126 1384 C 1152 1358 1165 1328 1165 1292 Z" unicode="" />
<glyph horiz-adv-x="1528" d="M 1090 197 C 1090 160 1077 128 1051 102 C 1025 76 994 63 958 63 C 922 63 890 76 864 102 C 838 128 825 160 825 197 C 825 232 838 263 864 289 C 890 315 922 328 958 328 C 994 328 1025 315 1051 289 C 1077 263 1090 232 1090 197 Z M 1090 1004 C 1090 967 1077 935 1051 909 C 1025 883 994 870 958 870 C 922 870 890 883 864 909 C 838 935 825 967 825 1004 C 825 1039 838 1070 864 1096 C 890 1122 922 1135 958 1135 C 994 1135 1025 1122 1051 1096 C 1077 1070 1090 1039 1090 1004 Z M 1505 686 L 1505 512 L 410 512 L 410 686 L 1505 686 Z" unicode="" />
<glyph horiz-adv-x="1112" d="M 1063 561 C 1063 482 1048 407 1018 337 C 988 266 947 204 895 151 C 842 97 780 55 708 24 C 636 -7 559 -23 475 -23 C 433 -23 395 -18 361 -9 C 327 0 295 12 266 29 L 168 -98 L 43 -98 L 186 88 C 162 110 142 134 125 160 C 108 186 94 213 83 241 C 71 269 63 297 57 326 C 51 354 49 382 49 410 C 49 486 62 559 89 631 C 115 702 154 765 204 821 C 254 877 314 921 386 955 C 458 989 539 1006 629 1006 C 665 1006 701 1001 737 992 C 773 982 808 968 842 950 L 938 1075 L 1061 1075 L 922 893 C 964 855 998 808 1024 753 C 1050 698 1063 634 1063 561 Z M 752 829 C 736 846 718 859 697 868 C 676 876 653 881 629 881 C 589 881 553 871 522 853 C 490 834 463 809 439 778 C 415 747 395 712 379 672 C 362 632 348 590 338 547 C 328 504 320 461 316 419 C 311 376 309 337 309 301 C 309 291 309 282 309 274 C 309 265 309 257 311 250 L 752 829 Z M 801 680 C 801 689 800 698 800 707 C 799 716 798 725 797 733 L 358 152 C 369 140 381 130 394 123 C 407 116 420 111 432 108 C 444 104 455 102 465 101 C 475 100 483 100 489 100 C 527 100 562 109 592 129 C 622 148 649 174 673 206 C 696 238 716 274 732 315 C 748 356 761 398 771 441 C 781 484 789 526 794 568 C 798 609 801 646 801 680 Z" unicode="" />
<glyph horiz-adv-x="1204" d="M 1282 973 C 1282 969 1280 959 1277 943 C 1274 927 1272 915 1270 907 L 1108 281 C 1103 260 1099 241 1095 223 C 1091 205 1090 190 1090 180 C 1090 168 1094 157 1103 149 C 1111 141 1120 137 1128 137 C 1141 137 1152 138 1160 140 C 1168 142 1183 147 1206 156 L 1231 115 C 1235 108 1237 101 1238 95 C 1238 89 1239 84 1239 80 C 1239 58 1212 36 1159 12 C 1106 -11 1056 -23 1010 -23 C 950 -23 907 -6 883 25 C 858 57 842 89 834 119 C 794 89 746 57 692 25 C 637 -6 574 -23 502 -23 C 421 -23 357 2 310 52 C 263 102 240 161 240 229 C 240 275 244 316 253 353 C 262 390 270 420 276 444 L 346 705 C 348 709 350 716 352 726 C 354 736 356 745 356 754 C 356 764 353 773 348 780 C 342 786 334 792 322 797 C 303 803 290 809 283 815 C 275 820 272 828 272 840 C 272 846 273 855 276 865 C 278 875 280 882 281 887 L 289 915 C 314 919 349 927 395 938 C 441 948 485 960 528 973 C 535 975 552 981 579 991 C 605 1001 623 1006 633 1006 C 645 1006 653 1002 658 995 C 663 988 666 981 666 973 C 666 964 664 951 660 935 C 656 919 653 907 651 899 L 508 344 C 504 327 501 310 500 293 C 498 276 498 262 498 250 C 498 223 508 201 530 183 C 552 165 578 156 610 156 C 662 156 709 168 752 193 C 795 217 828 239 852 258 L 967 709 C 967 715 969 723 971 734 C 973 745 975 754 975 760 C 975 770 970 778 962 784 C 954 790 946 795 940 797 C 921 803 908 809 901 815 C 894 820 891 828 891 840 C 891 846 892 855 895 865 C 898 875 900 882 901 887 L 909 915 C 943 921 981 929 1024 939 C 1067 949 1109 960 1149 973 C 1155 973 1172 979 1200 990 C 1228 1000 1246 1006 1255 1006 C 1266 1006 1273 1002 1277 995 C 1280 988 1282 981 1282 973 Z M 811 1446 L 1050 1143 L 987 1100 L 690 1286 C 654 1308 628 1329 614 1349 C 599 1368 592 1388 592 1409 C 592 1435 600 1459 617 1479 C 633 1499 656 1509 686 1509 C 703 1509 722 1505 744 1499 C 766 1492 788 1474 811 1446 Z" unicode="" />
<glyph horiz-adv-x="1204" d="M 1282 973 C 1282 969 1280 959 1277 943 C 1274 927 1272 915 1270 907 L 1108 281 C 1103 260 1099 241 1095 223 C 1091 205 1090 190 1090 180 C 1090 168 1094 157 1103 149 C 1111 141 1120 137 1128 137 C 1141 137 1152 138 1160 140 C 1168 142 1183 147 1206 156 L 1231 115 C 1235 108 1237 101 1238 95 C 1238 89 1239 84 1239 80 C 1239 58 1212 36 1159 12 C 1106 -11 1056 -23 1010 -23 C 950 -23 907 -6 883 25 C 858 57 842 89 834 119 C 794 89 746 57 692 25 C 637 -6 574 -23 502 -23 C 421 -23 357 2 310 52 C 263 102 240 161 240 229 C 240 275 244 316 253 353 C 262 390 270 420 276 444 L 346 705 C 348 709 350 716 352 726 C 354 736 356 745 356 754 C 356 764 353 773 348 780 C 342 786 334 792 322 797 C 303 803 290 809 283 815 C 275 820 272 828 272 840 C 272 846 273 855 276 865 C 278 875 280 882 281 887 L 289 915 C 314 919 349 927 395 938 C 441 948 485 960 528 973 C 535 975 552 981 579 991 C 605 1001 623 1006 633 1006 C 645 1006 653 1002 658 995 C 663 988 666 981 666 973 C 666 964 664 951 660 935 C 656 919 653 907 651 899 L 508 344 C 504 327 501 310 500 293 C 498 276 498 262 498 250 C 498 223 508 201 530 183 C 552 165 578 156 610 156 C 662 156 709 168 752 193 C 795 217 828 239 852 258 L 967 709 C 967 715 969 723 971 734 C 973 745 975 754 975 760 C 975 770 970 778 962 784 C 954 790 946 795 940 797 C 921 803 908 809 901 815 C 894 820 891 828 891 840 C 891 846 892 855 895 865 C 898 875 900 882 901 887 L 909 915 C 943 921 981 929 1024 939 C 1067 949 1109 960 1149 973 C 1155 973 1172 979 1200 990 C 1228 1000 1246 1006 1255 1006 C 1266 1006 1273 1002 1277 995 C 1280 988 1282 981 1282 973 Z M 1132 1409 C 1132 1388 1124 1368 1109 1349 C 1094 1329 1069 1308 1034 1286 L 737 1100 L 673 1143 L 913 1446 C 935 1474 957 1492 979 1499 C 1001 1505 1020 1509 1038 1509 C 1067 1509 1090 1499 1107 1479 C 1123 1459 1132 1435 1132 1409 Z" unicode="" />
<glyph horiz-adv-x="1204" d="M 1282 973 C 1282 969 1280 959 1277 943 C 1274 927 1272 915 1270 907 L 1108 281 C 1103 260 1099 241 1095 223 C 1091 205 1090 190 1090 180 C 1090 168 1094 157 1103 149 C 1111 141 1120 137 1128 137 C 1141 137 1152 138 1160 140 C 1168 142 1183 147 1206 156 L 1231 115 C 1235 108 1237 101 1238 95 C 1238 89 1239 84 1239 80 C 1239 58 1212 36 1159 12 C 1106 -11 1056 -23 1010 -23 C 950 -23 907 -6 883 25 C 858 57 842 89 834 119 C 794 89 746 57 692 25 C 637 -6 574 -23 502 -23 C 421 -23 357 2 310 52 C 263 102 240 161 240 229 C 240 275 244 316 253 353 C 262 390 270 420 276 444 L 346 705 C 348 709 350 716 352 726 C 354 736 356 745 356 754 C 356 764 353 773 348 780 C 342 786 334 792 322 797 C 303 803 290 809 283 815 C 275 820 272 828 272 840 C 272 846 273 855 276 865 C 278 875 280 882 281 887 L 289 915 C 314 919 349 927 395 938 C 441 948 485 960 528 973 C 535 975 552 981 579 991 C 605 1001 623 1006 633 1006 C 645 1006 653 1002 658 995 C 663 988 666 981 666 973 C 666 964 664 951 660 935 C 656 919 653 907 651 899 L 508 344 C 504 327 501 310 500 293 C 498 276 498 262 498 250 C 498 223 508 201 530 183 C 552 165 578 156 610 156 C 662 156 709 168 752 193 C 795 217 828 239 852 258 L 967 709 C 967 715 969 723 971 734 C 973 745 975 754 975 760 C 975 770 970 778 962 784 C 954 790 946 795 940 797 C 921 803 908 809 901 815 C 894 820 891 828 891 840 C 891 846 892 855 895 865 C 898 875 900 882 901 887 L 909 915 C 943 921 981 929 1024 939 C 1067 949 1109 960 1149 973 C 1155 973 1172 979 1200 990 C 1228 1000 1246 1006 1255 1006 C 1266 1006 1273 1002 1277 995 C 1280 988 1282 981 1282 973 Z M 1001 1495 L 1189 1143 L 1056 1143 L 909 1335 L 653 1143 L 497 1143 L 860 1495 L 1001 1495 Z" unicode="" />
<glyph horiz-adv-x="1204" d="M 1282 973 C 1282 969 1280 959 1277 943 C 1274 927 1272 915 1270 907 L 1108 281 C 1103 260 1099 241 1095 223 C 1091 205 1090 190 1090 180 C 1090 168 1094 157 1103 149 C 1111 141 1120 137 1128 137 C 1141 137 1152 138 1160 140 C 1168 142 1183 147 1206 156 L 1231 115 C 1235 108 1237 101 1238 95 C 1238 89 1239 84 1239 80 C 1239 58 1212 36 1159 12 C 1106 -11 1056 -23 1010 -23 C 950 -23 907 -6 883 25 C 858 57 842 89 834 119 C 794 89 746 57 692 25 C 637 -6 574 -23 502 -23 C 421 -23 357 2 310 52 C 263 102 240 161 240 229 C 240 275 244 316 253 353 C 262 390 270 420 276 444 L 346 705 C 348 709 350 716 352 726 C 354 736 356 745 356 754 C 356 764 353 773 348 780 C 342 786 334 792 322 797 C 303 803 290 809 283 815 C 275 820 272 828 272 840 C 272 846 273 855 276 865 C 278 875 280 882 281 887 L 289 915 C 314 919 349 927 395 938 C 441 948 485 960 528 973 C 535 975 552 981 579 991 C 605 1001 623 1006 633 1006 C 645 1006 653 1002 658 995 C 663 988 666 981 666 973 C 666 964 664 951 660 935 C 656 919 653 907 651 899 L 508 344 C 504 327 501 310 500 293 C 498 276 498 262 498 250 C 498 223 508 201 530 183 C 552 165 578 156 610 156 C 662 156 709 168 752 193 C 795 217 828 239 852 258 L 967 709 C 967 715 969 723 971 734 C 973 745 975 754 975 760 C 975 770 970 778 962 784 C 954 790 946 795 940 797 C 921 803 908 809 901 815 C 894 820 891 828 891 840 C 891 846 892 855 895 865 C 898 875 900 882 901 887 L 909 915 C 943 921 981 929 1024 939 C 1067 949 1109 960 1149 973 C 1155 973 1172 979 1200 990 C 1228 1000 1246 1006 1255 1006 C 1266 1006 1273 1002 1277 995 C 1280 988 1282 981 1282 973 Z M 775 1292 C 775 1256 762 1226 736 1201 C 710 1175 680 1163 644 1163 C 608 1163 577 1175 551 1201 C 525 1226 513 1256 513 1292 C 513 1328 525 1358 551 1384 C 577 1410 608 1423 644 1423 C 680 1423 710 1410 736 1384 C 762 1358 775 1328 775 1292 Z M 1216 1292 C 1216 1256 1203 1226 1177 1201 C 1151 1175 1120 1163 1084 1163 C 1048 1163 1018 1175 992 1201 C 966 1226 953 1256 953 1292 C 953 1328 966 1358 992 1384 C 1018 1410 1048 1423 1084 1423 C 1120 1423 1151 1410 1177 1384 C 1203 1358 1216 1328 1216 1292 Z" unicode="" />
<glyph horiz-adv-x="1012" d="M 1182 879 C 1182 854 1178 824 1170 789 C 1162 754 1142 707 1108 647 C 1065 573 1029 513 999 467 C 969 421 947 389 934 371 L 713 61 C 637 -43 553 -146 461 -247 C 369 -348 274 -399 176 -399 C 121 -399 77 -384 43 -355 C 9 -325 -8 -290 -8 -248 C -8 -218 3 -189 25 -162 C 47 -134 79 -121 119 -121 C 127 -121 148 -126 183 -136 C 218 -146 239 -182 246 -244 C 284 -234 331 -202 385 -146 C 439 -90 481 -42 510 -2 L 377 684 C 366 734 354 773 341 801 C 327 828 304 842 270 842 C 255 842 240 839 226 834 C 211 828 201 825 197 823 L 170 864 C 169 868 167 872 164 877 C 161 882 160 888 160 895 C 160 920 186 945 239 969 C 291 993 341 1006 387 1006 C 429 1006 473 992 519 965 C 565 937 598 868 618 756 L 709 268 C 734 306 769 358 813 426 C 857 493 895 554 928 608 C 942 632 955 657 969 683 C 983 708 994 733 1004 758 C 980 770 960 785 945 805 C 929 824 922 850 922 883 C 922 909 933 936 955 964 C 977 992 1009 1006 1051 1006 C 1090 1006 1122 993 1146 967 C 1170 941 1182 911 1182 879 Z M 1064 1409 C 1064 1388 1056 1368 1041 1349 C 1026 1329 1001 1308 966 1286 L 669 1100 L 605 1143 L 845 1446 C 867 1474 889 1492 911 1499 C 933 1505 952 1509 970 1509 C 999 1509 1022 1499 1039 1479 C 1055 1459 1064 1435 1064 1409 Z" unicode="" />
<glyph horiz-adv-x="1012" d="M 1182 879 C 1182 854 1178 824 1170 789 C 1162 754 1142 707 1108 647 C 1065 573 1029 513 999 467 C 969 421 947 389 934 371 L 713 61 C 637 -43 553 -146 461 -247 C 369 -348 274 -399 176 -399 C 121 -399 77 -384 43 -355 C 9 -325 -8 -290 -8 -248 C -8 -218 3 -189 25 -162 C 47 -134 79 -121 119 -121 C 127 -121 148 -126 183 -136 C 218 -146 239 -182 246 -244 C 284 -234 331 -202 385 -146 C 439 -90 481 -42 510 -2 L 377 684 C 366 734 354 773 341 801 C 327 828 304 842 270 842 C 255 842 240 839 226 834 C 211 828 201 825 197 823 L 170 864 C 169 868 167 872 164 877 C 161 882 160 888 160 895 C 160 920 186 945 239 969 C 291 993 341 1006 387 1006 C 429 1006 473 992 519 965 C 565 937 598 868 618 756 L 709 268 C 734 306 769 358 813 426 C 857 493 895 554 928 608 C 942 632 955 657 969 683 C 983 708 994 733 1004 758 C 980 770 960 785 945 805 C 929 824 922 850 922 883 C 922 909 933 936 955 964 C 977 992 1009 1006 1051 1006 C 1090 1006 1122 993 1146 967 C 1170 941 1182 911 1182 879 Z M 679 1292 C 679 1256 666 1226 640 1201 C 614 1175 584 1163 548 1163 C 512 1163 481 1175 455 1201 C 429 1226 417 1256 417 1292 C 417 1328 429 1358 455 1384 C 481 1410 512 1423 548 1423 C 584 1423 614 1410 640 1384 C 666 1358 679 1328 679 1292 Z M 1120 1292 C 1120 1256 1107 1226 1081 1201 C 1055 1175 1024 1163 988 1163 C 952 1163 922 1175 896 1201 C 870 1226 857 1256 857 1292 C 857 1328 870 1358 896 1384 C 922 1410 952 1423 988 1423 C 1024 1423 1055 1410 1081 1384 C 1107 1358 1120 1328 1120 1292 Z" unicode="" />
<glyph horiz-adv-x="606" d="M 674 973 C 674 965 671 952 667 934 C 663 915 657 894 651 872 L 498 281 C 492 263 488 245 485 225 C 482 205 481 190 481 180 C 481 168 485 157 494 149 C 503 141 512 137 520 137 C 533 137 544 138 552 140 C 560 142 575 147 598 156 L 623 115 C 627 108 629 101 630 95 C 630 89 631 84 631 80 C 631 58 608 36 564 12 C 519 -11 470 -23 418 -23 C 347 -23 297 -6 267 28 C 237 62 223 99 223 139 C 223 152 224 171 226 195 C 228 219 235 250 246 287 L 348 662 C 350 670 353 685 357 706 C 360 727 362 741 362 748 C 362 766 356 779 345 785 C 334 791 317 799 295 807 C 290 809 284 812 278 817 C 271 821 268 829 268 840 C 268 846 269 855 271 865 C 273 875 276 882 279 887 L 289 915 C 358 924 415 935 461 948 C 506 961 543 973 573 983 C 597 991 612 996 620 1000 C 627 1004 634 1006 641 1006 C 653 1006 662 1003 667 997 C 671 991 674 983 674 973 Z" unicode="" />
<glyph horiz-adv-x="1270" d="M 1217 356 L 1118 -20 C 1070 -14 1020 -10 967 -6 C 914 -2 863 0 813 0 L -57 0 L -47 57 C -45 69 -43 78 -41 86 C -39 93 -36 99 -32 105 C -28 110 -21 115 -13 119 C -4 123 7 127 23 133 C 33 136 43 140 51 144 C 59 148 66 154 72 162 C 78 170 83 180 88 192 C 93 204 98 220 104 240 L 207 629 L 55 549 L 92 698 L 244 776 L 358 1214 C 362 1228 367 1245 371 1264 C 375 1283 377 1300 377 1315 C 377 1326 373 1335 366 1341 C 358 1347 345 1354 326 1364 C 313 1370 303 1374 297 1378 C 290 1382 287 1388 287 1397 C 287 1402 287 1407 289 1413 C 290 1418 291 1423 293 1427 L 311 1495 L 829 1495 L 819 1438 C 817 1426 815 1416 813 1409 C 811 1401 808 1395 804 1390 C 800 1384 793 1379 785 1375 C 777 1371 765 1366 750 1362 C 739 1358 730 1354 722 1350 C 714 1345 706 1339 700 1331 C 694 1323 688 1313 683 1301 C 677 1289 672 1273 668 1255 L 569 879 L 864 1036 L 825 883 L 530 731 L 379 143 L 639 143 C 706 143 762 146 807 153 C 851 160 890 171 922 187 C 954 202 982 222 1006 246 C 1030 270 1055 300 1083 334 C 1087 338 1090 342 1093 345 C 1095 348 1098 350 1101 352 C 1103 354 1106 355 1110 355 C 1114 355 1119 356 1126 356 L 1217 356 Z" unicode="" />
<glyph horiz-adv-x="590" d="M 651 1495 L 487 848 L 649 934 L 612 797 L 455 713 L 344 281 C 340 264 336 247 333 229 C 329 211 328 194 328 180 C 328 168 333 157 343 149 C 353 141 363 137 373 137 C 379 137 385 137 390 137 C 394 137 399 138 405 140 C 410 141 416 143 423 146 C 430 148 439 152 451 156 L 475 115 C 479 108 481 101 482 95 C 482 89 483 84 483 80 C 483 69 476 58 464 46 C 451 34 434 22 414 12 C 394 2 370 -6 344 -13 C 318 -19 291 -23 264 -23 C 229 -23 199 -18 175 -9 C 150 0 130 12 115 28 C 99 43 88 60 81 80 C 73 99 70 119 70 139 C 70 152 71 171 73 195 C 75 219 82 249 92 287 L 174 618 L 35 543 L 72 682 L 209 754 L 326 1217 C 331 1239 335 1261 339 1282 C 342 1303 344 1321 344 1335 C 344 1343 340 1350 332 1356 C 324 1362 317 1366 311 1370 C 295 1375 283 1380 273 1386 C 263 1392 258 1399 258 1409 C 258 1412 258 1416 260 1422 C 261 1427 262 1432 264 1438 L 281 1495 L 651 1495 Z" unicode="" />
<glyph horiz-adv-x="2068" d="M 2290 1516 L 2191 1161 L 2118 1161 C 2101 1161 2090 1164 2084 1172 C 2078 1179 2068 1200 2054 1235 C 2039 1271 2013 1297 1975 1313 C 1937 1329 1859 1337 1741 1337 L 1628 1337 L 1501 840 L 1645 840 C 1695 840 1732 847 1754 861 C 1776 875 1797 895 1819 920 C 1823 924 1826 927 1830 929 C 1834 931 1838 932 1843 932 L 1929 932 L 1829 535 L 1751 535 C 1734 535 1724 538 1720 544 C 1716 550 1712 565 1708 590 C 1703 626 1687 652 1661 670 C 1635 687 1596 696 1544 696 L 1462 696 L 1319 143 L 1610 143 C 1718 143 1800 167 1857 215 C 1913 263 1949 297 1964 319 C 1975 336 1984 347 1990 351 C 1996 355 2004 358 2013 358 L 2118 358 L 2013 -20 C 1992 -18 1953 -14 1897 -8 C 1841 -2 1787 0 1735 0 L 897 0 C 679 0 514 57 404 172 C 293 286 238 437 238 625 C 238 789 270 929 334 1047 C 398 1164 476 1259 567 1331 C 622 1375 693 1413 781 1446 C 869 1478 965 1495 1069 1495 L 1995 1495 C 2030 1495 2071 1496 2118 1500 C 2165 1504 2222 1509 2290 1516 Z M 1305 1280 C 1305 1302 1292 1320 1267 1333 C 1241 1345 1213 1352 1182 1352 C 1113 1352 1036 1343 952 1325 C 867 1307 790 1249 721 1151 C 665 1073 619 980 583 871 C 546 762 528 643 528 514 C 528 466 539 408 562 342 C 585 275 628 225 690 193 C 730 171 768 157 803 151 C 838 144 872 141 905 141 C 947 141 980 152 1004 175 C 1028 197 1046 233 1059 281 L 1292 1184 C 1294 1196 1297 1212 1300 1230 C 1303 1248 1305 1265 1305 1280 Z" unicode="" />
<glyph horiz-adv-x="1686" d="M 1812 760 C 1812 653 1764 573 1670 521 C 1575 468 1443 442 1274 442 L 1137 442 L 1137 371 C 1137 290 1159 230 1203 191 C 1247 152 1298 133 1356 133 C 1406 133 1459 146 1515 172 C 1571 198 1628 237 1686 287 L 1716 252 C 1725 241 1732 233 1738 228 C 1744 222 1747 215 1747 205 C 1747 180 1705 136 1621 72 C 1537 8 1426 -23 1286 -23 C 1218 -23 1158 -10 1107 14 C 1055 39 1013 73 979 115 C 930 73 874 39 811 14 C 748 -10 681 -23 610 -23 C 484 -23 381 18 303 102 C 225 185 186 288 186 410 C 186 560 237 697 340 821 C 443 944 584 1006 764 1006 C 828 1006 889 992 947 964 C 1005 936 1055 898 1096 848 C 1150 894 1213 932 1283 962 C 1353 991 1427 1006 1505 1006 C 1595 1006 1668 983 1726 938 C 1783 892 1812 833 1812 760 Z M 928 680 C 928 744 912 793 882 828 C 851 863 812 881 764 881 C 668 881 592 822 536 706 C 479 589 451 454 451 301 C 451 233 468 183 503 150 C 538 116 579 100 625 100 C 713 100 786 159 843 279 C 899 399 928 532 928 680 Z M 1573 764 C 1573 793 1565 820 1549 844 C 1533 868 1504 881 1460 881 C 1390 881 1328 850 1276 789 C 1223 727 1184 653 1159 567 C 1269 567 1345 573 1387 585 C 1429 596 1465 610 1495 627 C 1513 637 1531 654 1548 676 C 1564 698 1573 728 1573 764 Z" unicode="" />
<glyph horiz-adv-x="1075" d="M 1169 1958 L 807 1606 L 666 1606 L 477 1958 L 610 1958 L 758 1765 L 1014 1958 L 1169 1958 Z M 1180 1462 L 1085 1114 L 993 1114 C 987 1114 982 1114 979 1116 C 975 1118 972 1121 970 1126 C 968 1130 966 1137 964 1145 C 962 1153 959 1164 956 1178 C 949 1210 938 1238 923 1262 C 907 1286 889 1306 867 1322 C 845 1338 820 1351 793 1359 C 766 1367 738 1372 709 1372 C 673 1372 641 1367 611 1357 C 581 1347 554 1333 532 1316 C 510 1298 492 1278 480 1254 C 467 1230 461 1204 461 1176 C 461 1150 464 1126 472 1105 C 480 1083 490 1064 503 1047 C 515 1030 530 1015 546 1002 C 562 988 578 977 596 967 C 612 957 630 945 650 933 C 669 921 688 909 707 897 C 725 885 743 874 759 864 C 775 853 789 844 801 838 C 833 816 862 793 890 767 C 917 741 940 714 960 686 C 979 657 994 627 1005 595 C 1016 563 1022 530 1022 496 C 1022 424 1008 356 982 294 C 956 231 918 176 869 130 C 820 84 761 47 691 20 C 621 -6 542 -20 455 -20 C 429 -20 405 -18 384 -16 C 363 -13 343 -9 325 -5 C 306 0 288 5 270 11 C 252 17 234 24 215 31 C 195 37 179 43 167 47 C 154 51 143 54 134 56 C 125 58 118 60 112 61 C 106 62 100 63 96 63 C 88 63 80 62 74 60 C 67 58 60 54 54 49 C 48 44 41 38 33 30 C 25 22 15 12 4 0 L -115 0 L -8 401 L 82 401 C 97 401 108 399 114 396 C 120 392 123 386 125 377 C 127 351 131 329 138 309 C 144 289 157 269 176 248 C 209 210 251 179 303 157 C 354 134 408 123 465 123 C 508 123 548 128 586 140 C 623 151 655 167 683 188 C 710 209 731 234 747 264 C 762 293 770 326 770 362 C 770 391 765 417 756 441 C 746 464 734 485 719 504 C 704 523 687 540 668 555 C 649 570 630 584 612 596 C 597 605 583 613 570 621 C 557 628 544 635 531 643 C 518 650 505 657 492 665 C 478 673 464 682 449 692 C 414 714 382 737 354 762 C 325 787 300 815 280 846 C 259 876 243 911 232 949 C 220 987 215 1031 215 1081 C 215 1141 227 1198 251 1251 C 275 1304 310 1350 354 1390 C 398 1429 450 1460 512 1482 C 573 1504 641 1516 715 1516 C 751 1516 783 1513 812 1507 C 841 1501 868 1495 893 1487 C 917 1479 940 1470 962 1460 C 983 1450 1004 1442 1024 1434 L 1077 1462 L 1180 1462 Z" unicode="" />
<glyph horiz-adv-x="883" d="M 977 1495 L 614 1143 L 473 1143 L 285 1495 L 418 1495 L 569 1303 L 821 1495 L 977 1495 Z M 862 803 C 862 783 858 765 851 751 C 843 737 834 725 822 716 C 810 707 798 700 784 696 C 770 692 756 690 743 690 C 712 690 686 699 664 719 C 642 738 631 765 631 799 C 631 806 632 814 634 822 C 636 830 639 840 643 854 C 637 855 630 857 621 860 C 612 863 602 866 592 869 C 582 871 571 874 559 876 C 547 878 536 879 526 879 C 508 879 490 877 472 873 C 454 869 437 863 423 855 C 408 847 396 836 387 824 C 377 811 373 796 373 780 C 373 770 374 760 377 749 C 379 738 385 726 393 714 C 401 701 412 688 428 674 C 443 660 463 645 489 629 L 647 530 C 667 518 687 503 706 486 C 724 469 741 450 755 430 C 769 409 781 387 790 363 C 798 339 803 313 803 287 C 803 243 792 202 771 164 C 750 126 721 92 684 64 C 646 36 602 13 550 -2 C 498 -18 442 -27 381 -27 C 317 -27 262 -19 214 -5 C 166 8 127 27 96 50 C 64 72 41 97 25 124 C 9 151 2 177 2 203 C 2 224 5 243 13 261 C 20 278 30 293 42 305 C 54 317 68 326 84 332 C 100 338 116 342 133 342 C 174 342 204 331 224 309 C 244 287 254 261 254 231 C 254 223 253 213 252 202 C 250 191 246 174 238 152 C 266 135 293 122 319 113 C 344 104 372 100 403 100 C 427 100 449 103 469 109 C 489 115 506 124 521 135 C 536 145 548 158 556 172 C 564 186 569 201 569 217 C 569 245 557 272 535 298 C 513 324 482 349 442 375 L 268 485 C 242 501 221 517 204 535 C 187 553 173 571 163 590 C 153 608 145 627 141 645 C 137 663 135 682 135 700 C 135 742 145 782 166 819 C 187 856 216 888 252 916 C 288 944 331 966 380 982 C 429 998 481 1006 537 1006 C 583 1006 625 1000 665 990 C 705 980 739 965 768 947 C 797 929 820 907 837 883 C 853 858 862 831 862 803 Z" unicode="" />
<glyph horiz-adv-x="1352" d="M 1278 1495 L 1737 1495 L 1710 1399 C 1646 1361 1605 1335 1587 1323 C 1569 1311 1551 1295 1534 1276 L 977 664 L 879 281 C 874 265 870 248 866 230 C 862 211 860 194 860 180 C 860 169 863 160 871 154 C 878 148 891 140 911 131 C 923 125 933 120 940 116 C 946 112 950 106 950 98 C 950 93 949 88 947 82 C 945 76 944 72 944 68 L 926 0 L 408 0 L 418 57 C 422 80 426 96 432 105 C 438 113 456 123 487 133 C 508 139 524 149 536 162 C 548 175 559 201 569 240 L 690 698 L 498 1235 C 480 1283 466 1313 456 1326 C 445 1339 423 1350 391 1360 C 383 1362 373 1365 361 1371 C 349 1377 344 1386 344 1399 C 344 1403 344 1409 346 1416 C 348 1422 349 1427 350 1430 L 367 1495 L 893 1495 L 885 1452 C 881 1430 875 1413 869 1399 C 862 1385 847 1374 825 1366 C 800 1358 785 1351 779 1347 C 773 1343 770 1333 770 1319 C 770 1308 771 1300 773 1294 C 775 1288 780 1276 786 1260 L 934 850 L 1296 1264 C 1306 1276 1315 1287 1322 1299 C 1329 1310 1333 1321 1333 1331 C 1333 1340 1328 1347 1318 1353 C 1308 1358 1301 1362 1296 1364 C 1287 1366 1279 1370 1271 1375 C 1263 1380 1260 1388 1260 1399 C 1260 1401 1260 1405 1262 1413 C 1263 1421 1264 1426 1264 1430 L 1278 1495 Z M 1007 1775 C 1007 1739 994 1709 968 1684 C 942 1658 912 1646 876 1646 C 840 1646 809 1658 783 1684 C 757 1709 745 1739 745 1775 C 745 1811 757 1841 783 1867 C 809 1893 840 1906 876 1906 C 912 1906 942 1893 968 1867 C 994 1841 1007 1811 1007 1775 Z M 1448 1775 C 1448 1739 1435 1709 1409 1684 C 1383 1658 1352 1646 1316 1646 C 1280 1646 1250 1658 1224 1684 C 1198 1709 1185 1739 1185 1775 C 1185 1811 1198 1841 1224 1867 C 1250 1893 1280 1906 1316 1906 C 1352 1906 1383 1893 1409 1867 C 1435 1841 1448 1811 1448 1775 Z" unicode="" />
<glyph horiz-adv-x="1243" d="M 1253 1958 L 891 1606 L 750 1606 L 561 1958 L 694 1958 L 842 1765 L 1098 1958 L 1253 1958 Z M 1417 1495 L 1386 1364 L 285 150 L 657 150 C 718 150 770 155 812 167 C 854 178 890 193 920 211 C 949 229 973 249 993 272 C 1013 295 1031 318 1049 342 C 1057 353 1065 360 1074 362 C 1083 364 1094 365 1108 365 L 1186 365 L 1085 0 L -117 0 C -111 27 -106 50 -101 70 C -95 90 -89 107 -83 122 C -76 137 -69 150 -61 162 C -53 173 -45 184 -35 195 L 1004 1337 L 637 1337 C 594 1337 556 1333 524 1325 C 492 1317 464 1307 440 1295 C 416 1283 397 1268 381 1252 C 365 1236 354 1219 346 1202 C 341 1192 337 1185 334 1180 C 330 1174 327 1170 324 1168 C 320 1166 317 1164 314 1164 C 310 1163 307 1163 303 1163 L 211 1163 L 305 1495 L 1417 1495 Z" unicode="" />
<glyph horiz-adv-x="958" d="M 1001 1495 L 639 1143 L 498 1143 L 309 1495 L 442 1495 L 594 1303 L 846 1495 L 1001 1495 Z M 985 936 C 927 877 876 825 830 779 C 784 733 742 690 703 651 C 664 612 627 575 592 541 C 557 506 522 471 486 435 C 450 399 412 362 374 322 C 335 282 292 237 246 188 L 250 184 C 262 188 276 192 292 197 C 308 201 324 205 341 209 C 358 212 375 215 393 217 C 411 219 428 221 444 221 C 490 221 534 215 576 204 C 617 192 658 175 700 152 C 706 148 714 144 723 140 C 731 135 740 133 750 133 C 755 133 761 135 769 140 C 776 144 780 152 780 164 C 780 171 777 181 772 195 C 766 209 753 225 733 244 C 725 251 719 259 715 267 C 711 275 709 286 709 299 C 709 313 711 326 717 338 C 723 350 730 360 739 368 C 748 376 758 382 770 386 C 781 390 792 393 803 393 C 813 393 824 391 837 387 C 850 383 863 377 875 367 C 887 357 897 344 905 328 C 913 311 918 290 918 264 C 918 221 909 182 892 148 C 874 113 852 83 824 58 C 796 33 764 14 729 0 C 694 -13 659 -20 623 -20 C 603 -20 577 -17 545 -12 C 513 -7 474 -2 428 4 C 396 8 361 11 324 13 C 286 15 252 16 221 16 C 193 16 164 15 135 13 C 106 11 79 10 55 8 C 26 5 -1 2 -29 0 L -55 66 L 664 793 L 659 799 C 599 786 548 780 504 780 C 496 780 482 781 462 783 C 441 785 419 787 396 789 C 373 791 351 794 331 796 C 311 798 297 799 291 799 C 273 799 258 796 244 791 C 230 785 218 779 208 771 C 198 763 189 754 181 746 C 173 737 167 729 162 723 L 117 754 C 108 759 103 764 102 770 C 100 776 100 780 100 782 C 100 784 102 792 106 804 C 110 816 117 830 126 846 C 135 862 147 880 162 898 C 176 916 194 932 214 948 C 234 963 258 976 285 986 C 311 996 341 1001 375 1001 C 383 1001 391 1000 399 1000 C 406 1000 415 999 427 998 C 439 997 453 995 471 993 C 489 991 513 988 543 985 C 549 983 559 982 573 981 C 587 979 602 978 619 976 C 635 974 652 973 669 972 C 685 971 699 971 711 971 C 745 971 774 972 798 976 C 822 980 842 984 858 990 C 874 995 887 1001 898 1007 C 909 1013 920 1018 930 1024 L 985 936 Z" unicode="" />
<glyph horiz-adv-x="1087" d="M 1282 1264 C 1282 1231 1270 1201 1246 1175 C 1222 1148 1191 1135 1155 1135 C 1128 1135 1102 1143 1078 1161 C 1054 1179 1040 1202 1036 1231 C 1035 1237 1034 1245 1034 1255 C 1034 1265 1034 1277 1034 1290 C 1002 1281 978 1264 961 1239 C 944 1213 927 1167 911 1100 L 840 797 L 1079 797 L 1047 676 L 809 676 L 586 -281 L 326 -281 L 551 676 L 371 676 L 401 797 L 526 797 C 542 797 558 800 572 806 C 586 812 598 831 606 862 L 643 1008 C 652 1042 688 1119 751 1240 C 814 1360 923 1421 1077 1421 C 1138 1421 1187 1406 1225 1377 C 1263 1348 1282 1310 1282 1264 Z" unicode="" />
<glyph horiz-adv-x="578" d="M 770 1516 L 813 1425 C 732 1387 679 1345 654 1300 C 629 1255 613 1221 606 1198 C 627 1190 655 1175 690 1153 C 725 1131 743 1093 743 1038 C 743 990 725 950 691 919 C 657 887 622 872 586 872 C 538 872 498 891 468 930 C 437 968 422 1017 422 1075 C 422 1179 462 1271 544 1350 C 625 1428 700 1484 770 1516 Z" unicode="" />
<glyph horiz-adv-x="578" d="M 803 1313 C 803 1208 762 1116 681 1038 C 599 959 524 904 455 872 L 412 963 C 492 1001 544 1042 570 1087 C 595 1132 611 1166 618 1190 C 596 1198 568 1212 533 1234 C 498 1256 481 1294 481 1350 C 481 1398 498 1437 532 1469 C 566 1500 602 1516 639 1516 C 687 1516 726 1496 757 1458 C 787 1419 803 1371 803 1313 Z" unicode="" />
<glyph horiz-adv-x="840" d="M 770 1495 L 958 1143 L 825 1143 L 678 1335 L 422 1143 L 266 1143 L 629 1495 L 770 1495 Z" unicode="" />
<glyph horiz-adv-x="840" d="M 870 1495 L 1026 1495 L 664 1143 L 522 1143 L 334 1495 L 467 1495 L 618 1303 L 870 1495 Z" unicode="" />
<glyph horiz-adv-x="840" d="M 332 1378 L 987 1378 L 946 1223 L 291 1223 L 332 1378 Z" unicode="" />
<glyph horiz-adv-x="840" d="M 889 1495 L 1001 1495 C 963 1399 915 1316 856 1245 C 796 1174 710 1139 598 1139 C 505 1139 441 1163 407 1213 C 373 1262 356 1330 356 1417 C 356 1430 356 1443 357 1456 C 358 1468 359 1481 360 1495 L 471 1495 C 473 1443 484 1396 506 1354 C 528 1312 569 1292 631 1292 C 695 1292 747 1312 788 1354 C 828 1396 862 1443 889 1495 Z" unicode="" />
<glyph horiz-adv-x="840" d="M 809 1337 C 809 1293 793 1255 763 1225 C 732 1195 695 1180 651 1180 C 608 1180 571 1195 541 1225 C 511 1255 496 1293 496 1337 C 496 1379 511 1416 541 1448 C 571 1479 608 1495 651 1495 C 695 1495 732 1479 763 1448 C 793 1416 809 1379 809 1337 Z" unicode="" />
<glyph horiz-adv-x="840" d="M 971 1360 C 971 1290 942 1231 886 1185 C 829 1139 764 1116 692 1116 C 624 1116 568 1135 524 1174 C 480 1212 459 1261 459 1319 C 459 1379 484 1434 535 1486 C 585 1537 652 1563 735 1563 C 805 1563 862 1543 906 1504 C 949 1465 971 1417 971 1360 Z M 825 1366 C 825 1400 818 1428 805 1450 C 791 1472 769 1483 739 1483 C 693 1483 659 1465 637 1430 C 615 1395 604 1357 604 1315 C 604 1284 609 1256 621 1232 C 632 1208 654 1196 688 1196 C 734 1196 768 1212 791 1246 C 813 1280 825 1320 825 1366 Z" unicode="" />
<glyph horiz-adv-x="840" d="M 928 1436 L 1016 1436 C 999 1361 966 1299 918 1249 C 869 1199 816 1174 760 1174 C 735 1174 710 1177 686 1184 C 661 1190 634 1204 604 1225 C 581 1241 560 1252 540 1258 C 520 1264 500 1268 479 1268 C 454 1268 431 1258 409 1240 C 387 1221 373 1197 365 1167 L 276 1167 C 291 1241 323 1304 371 1354 C 419 1404 472 1430 530 1430 C 562 1430 590 1426 613 1418 C 635 1410 659 1398 684 1382 C 709 1365 732 1353 752 1346 C 772 1338 791 1335 811 1335 C 836 1335 860 1344 882 1363 C 904 1381 919 1406 928 1436 Z" unicode="" />
<glyph horiz-adv-x="1407" d="M 754 993 L 1591 993 L 1567 897 C 1559 870 1548 847 1532 827 C 1516 807 1484 797 1436 797 L 1331 797 L 1198 281 C 1194 264 1190 247 1187 230 C 1183 213 1182 196 1182 180 C 1182 169 1187 159 1198 150 C 1209 141 1220 137 1231 137 C 1247 137 1263 138 1278 142 C 1292 146 1307 150 1323 156 L 1341 125 C 1344 118 1347 111 1350 103 C 1352 95 1354 88 1354 80 C 1354 48 1322 22 1259 4 C 1196 -13 1150 -23 1122 -23 C 1066 -23 1019 -9 981 18 C 943 46 924 86 924 139 C 924 164 926 189 930 214 C 934 239 940 263 946 287 L 1075 797 L 868 797 C 792 552 709 355 618 205 C 526 55 427 -20 319 -20 C 281 -20 248 -8 221 15 C 193 38 180 70 180 111 C 180 155 196 191 228 219 C 260 247 298 262 342 262 C 359 262 377 257 396 248 C 415 239 432 230 446 221 C 504 303 555 396 600 499 C 645 601 683 701 713 797 C 644 796 582 782 528 756 C 473 730 429 686 395 625 L 295 625 C 333 722 390 808 468 882 C 546 956 641 993 754 993 Z" unicode="" />
<glyph horiz-adv-x="596" d="M 246 629 L 692 629 L 629 391 L 182 391 L 246 629 Z" unicode="" />
<glyph horiz-adv-x="596" d="M 246 629 L 692 629 L 629 391 L 182 391 L 246 629 Z" unicode="" />
<glyph horiz-adv-x="1047" d="M 266 594 L 1151 594 L 1098 420 L 213 420 L 266 594 Z" unicode="" />
<glyph horiz-adv-x="2224" d="M 266 594 L 2329 594 L 2275 420 L 213 420 L 266 594 Z" unicode="" />
<glyph horiz-adv-x="2212" d="M 84 123 L 2312 123 L 2284 0 L 55 0 L 84 123 Z" unicode="" />
<glyph horiz-adv-x="578" d="M 770 1516 L 813 1425 C 732 1387 679 1345 654 1300 C 629 1255 613 1221 606 1198 C 627 1190 655 1175 690 1153 C 725 1131 743 1093 743 1038 C 743 990 725 950 691 919 C 657 887 622 872 586 872 C 538 872 498 891 468 930 C 437 968 422 1017 422 1075 C 422 1179 462 1271 544 1350 C 625 1428 700 1484 770 1516 Z" unicode="" />
<glyph horiz-adv-x="578" d="M 803 1313 C 803 1208 762 1116 681 1038 C 599 959 524 904 455 872 L 412 963 C 492 1001 544 1042 570 1087 C 595 1132 611 1166 618 1190 C 596 1198 568 1212 533 1234 C 498 1256 481 1294 481 1350 C 481 1398 498 1437 532 1469 C 566 1500 602 1516 639 1516 C 687 1516 726 1496 757 1458 C 787 1419 803 1371 803 1313 Z" unicode="" />
<glyph horiz-adv-x="578" d="M 535 102 C 535 -2 494 -94 412 -172 C 330 -250 255 -306 186 -338 L 143 -248 C 223 -209 276 -167 302 -123 C 327 -78 343 -44 350 -20 C 328 -12 300 2 265 24 C 230 46 213 84 213 139 C 213 187 230 226 264 258 C 298 289 334 305 371 305 C 419 305 458 285 489 247 C 519 208 535 160 535 102 Z" unicode="" />
<glyph horiz-adv-x="999" d="M 770 1516 L 813 1425 C 732 1387 679 1345 654 1300 C 629 1255 613 1221 606 1198 C 627 1190 655 1175 690 1153 C 725 1131 743 1093 743 1038 C 743 990 725 950 691 919 C 657 887 622 872 586 872 C 538 872 498 891 468 930 C 437 968 422 1017 422 1075 C 422 1179 462 1271 544 1350 C 625 1428 700 1484 770 1516 Z M 1192 1516 L 1235 1425 C 1154 1387 1101 1345 1076 1300 C 1050 1255 1034 1221 1028 1198 C 1049 1190 1077 1175 1112 1153 C 1147 1131 1165 1093 1165 1038 C 1165 990 1147 950 1113 919 C 1079 887 1044 872 1008 872 C 960 872 920 891 890 930 C 859 968 844 1017 844 1075 C 844 1179 884 1271 966 1350 C 1047 1428 1122 1484 1192 1516 Z" unicode="" />
</font>
</defs>
</svg>
