<?xml version="1.0" encoding="utf-8" ?><svg version="1.1" xmlns = 'http://www.w3.org/2000/svg'><defs><font id='web' horiz-adv-x="1000">
<font-face font-family="web" descent="-455" cap-height="1495" units-per-em="2048" bbox="-303,-416,2345,2021" x-height="981" ascent="2021" />
<missing-glyph horiz-adv-x="1024" d="M 906 16 L 906 1032 L 118 1032 L 118 16 L 906 16 Z M 102 1048 L 922 1048 L 922 0 L 102 0 L 102 1048 Z" /><glyph horiz-adv-x="467" d="" unicode=" " />
<glyph horiz-adv-x="610" d="M 428 1354 C 428 1290 421 1228 409 1168 C 397 1108 385 1026 373 924 C 361 830 354 740 352 653 C 349 566 346 490 344 424 C 344 419 340 414 334 409 C 327 403 317 401 305 401 C 294 401 285 403 277 409 C 269 414 266 419 266 424 C 263 491 260 568 258 654 C 255 740 248 830 238 924 C 225 1026 212 1108 200 1169 C 188 1230 182 1292 182 1354 C 182 1394 191 1432 210 1466 C 229 1500 260 1518 303 1518 C 347 1518 379 1500 399 1466 C 418 1432 428 1394 428 1354 Z M 434 119 C 434 83 421 52 396 26 C 370 0 339 -12 303 -12 C 267 -12 236 0 212 26 C 188 52 176 83 176 119 C 176 153 188 183 212 209 C 236 235 267 248 303 248 C 339 248 370 235 396 209 C 421 183 434 153 434 119 Z" unicode="!" />
<glyph horiz-adv-x="819" d="M 346 1403 C 346 1365 337 1299 319 1207 C 301 1115 285 1022 270 930 C 267 926 264 922 260 919 C 256 916 250 915 242 915 C 234 915 228 916 224 919 C 219 922 215 926 213 930 C 197 1020 181 1112 163 1206 C 145 1299 137 1365 137 1403 C 137 1435 146 1462 164 1484 C 182 1505 208 1516 242 1516 C 275 1516 301 1505 319 1484 C 337 1462 346 1435 346 1403 Z M 682 1403 C 682 1365 673 1299 655 1207 C 637 1115 621 1022 606 930 C 603 926 600 922 596 919 C 592 916 586 915 578 915 C 570 915 564 916 560 919 C 555 922 551 926 549 930 C 533 1020 517 1112 499 1206 C 481 1299 473 1365 473 1403 C 473 1435 482 1462 500 1484 C 518 1505 544 1516 578 1516 C 611 1516 637 1505 655 1484 C 673 1462 682 1435 682 1403 Z" unicode="&#x22;" />
<glyph horiz-adv-x="1548" d="M 1038 1032 L 1366 1032 L 1339 856 L 1012 856 L 967 553 L 1298 553 L 1272 377 L 940 377 L 881 -18 L 795 -18 L 854 377 L 598 377 L 539 -18 L 453 -18 L 512 377 L 186 377 L 213 553 L 539 553 L 584 856 L 254 856 L 281 1032 L 610 1032 L 666 1403 L 752 1403 L 696 1032 L 952 1032 L 1008 1403 L 1094 1403 L 1038 1032 Z M 881 553 L 926 856 L 670 856 L 625 553 L 881 553 Z" unicode="#" />
<glyph horiz-adv-x="1098" d="M 1014 403 C 1014 300 978 208 907 127 C 835 46 736 0 610 -10 L 610 -279 L 520 -279 L 520 -14 C 367 -9 255 25 184 91 C 113 157 78 223 78 291 C 78 341 92 377 120 400 C 148 422 178 434 211 434 C 251 434 280 422 299 399 C 318 376 328 350 328 322 C 328 296 321 271 308 249 C 294 227 271 207 238 190 C 266 164 302 140 345 117 C 388 93 446 80 520 78 L 520 637 C 499 645 479 654 459 663 C 439 671 420 680 403 688 C 345 716 287 757 229 811 C 171 864 143 937 143 1030 C 143 1132 177 1217 247 1287 C 317 1356 408 1396 520 1407 L 520 1516 L 610 1516 L 610 1409 C 736 1402 826 1370 880 1312 C 934 1254 961 1199 961 1149 C 961 1106 949 1074 926 1054 C 903 1034 878 1024 852 1024 C 825 1024 799 1032 775 1049 C 751 1066 739 1090 739 1122 C 739 1148 745 1169 757 1185 C 769 1201 786 1215 807 1229 C 790 1244 768 1261 742 1281 C 715 1300 671 1312 610 1317 L 610 819 C 636 808 665 796 695 783 C 725 769 757 753 791 735 C 858 699 912 653 953 599 C 993 545 1014 479 1014 403 Z M 520 850 L 520 1317 C 458 1308 409 1284 374 1244 C 339 1204 322 1162 322 1118 C 322 1070 331 1025 349 985 C 367 945 407 908 469 874 C 477 870 485 866 494 862 C 503 858 512 854 520 850 Z M 834 326 C 834 354 826 395 810 449 C 794 502 743 549 657 590 C 650 592 642 596 634 600 C 625 604 617 607 610 610 L 610 84 C 684 96 740 126 778 174 C 815 222 834 272 834 326 Z" unicode="$" />
<glyph horiz-adv-x="1729" d="M 758 1081 C 758 960 727 862 665 787 C 603 711 529 674 442 674 C 354 674 280 711 219 787 C 157 862 127 960 127 1081 C 127 1202 157 1300 218 1376 C 278 1451 353 1489 442 1489 C 531 1489 606 1451 667 1376 C 727 1300 758 1202 758 1081 Z M 596 1081 C 596 1196 582 1278 556 1328 C 529 1378 491 1403 442 1403 C 393 1403 355 1378 329 1328 C 302 1278 289 1196 289 1081 C 289 966 302 884 329 834 C 355 784 393 760 442 760 C 490 760 527 784 555 833 C 582 882 596 965 596 1081 Z M 1608 397 C 1608 276 1577 178 1515 103 C 1453 27 1379 -10 1292 -10 C 1204 -10 1130 27 1069 103 C 1007 178 977 276 977 397 C 977 518 1007 616 1068 692 C 1128 767 1203 805 1292 805 C 1380 805 1455 767 1516 692 C 1577 616 1608 518 1608 397 Z M 1446 397 C 1446 512 1432 594 1406 644 C 1379 694 1341 719 1292 719 C 1243 719 1205 694 1179 644 C 1152 594 1139 512 1139 397 C 1139 282 1152 200 1179 150 C 1205 100 1243 76 1292 76 C 1340 76 1377 100 1405 149 C 1432 198 1446 281 1446 397 Z M 1206 1501 L 1325 1501 L 528 -20 L 410 -20 L 1206 1501 Z" unicode="%" />
<glyph horiz-adv-x="1548" d="M 1503 152 L 1540 72 C 1502 45 1461 23 1419 6 C 1376 -11 1318 -20 1245 -20 C 1183 -20 1125 -5 1073 24 C 1021 53 970 93 922 143 C 862 94 798 55 731 25 C 663 -5 594 -20 524 -20 C 371 -20 258 21 184 105 C 110 188 74 283 74 389 C 74 487 108 576 176 656 C 244 736 340 806 465 864 C 440 919 419 974 401 1030 C 383 1086 375 1137 375 1184 C 375 1272 407 1350 471 1416 C 535 1482 624 1516 739 1516 C 847 1516 928 1484 980 1420 C 1032 1356 1059 1293 1059 1229 C 1059 1139 1025 1063 959 1001 C 892 939 801 888 686 850 C 705 814 725 776 747 737 C 768 697 791 656 817 612 C 849 558 879 508 909 462 C 939 416 967 374 995 338 C 1042 393 1081 449 1111 507 C 1141 564 1157 603 1157 625 C 1157 646 1152 662 1142 672 C 1132 682 1109 695 1071 713 C 1049 723 1035 730 1027 734 C 1019 738 1016 745 1016 756 L 1016 801 L 1491 801 L 1491 756 C 1491 740 1483 729 1469 722 C 1454 714 1437 707 1419 700 C 1385 687 1357 673 1336 659 C 1315 644 1283 600 1239 528 C 1212 484 1183 440 1151 396 C 1119 352 1085 310 1049 270 C 1097 214 1144 171 1190 143 C 1236 114 1284 100 1335 100 C 1361 100 1390 105 1420 116 C 1450 126 1478 138 1503 152 Z M 860 211 C 824 255 787 304 751 358 C 715 412 679 468 645 526 C 623 562 600 602 576 646 C 551 690 526 736 502 784 C 419 735 361 683 329 629 C 297 575 281 519 281 461 C 281 365 308 285 363 220 C 418 155 500 123 608 123 C 654 123 698 131 741 148 C 783 164 823 185 860 211 Z M 893 1229 C 893 1295 876 1344 842 1376 C 808 1408 769 1425 727 1425 C 677 1425 636 1408 606 1376 C 576 1343 561 1301 561 1249 C 561 1195 568 1141 582 1089 C 596 1036 618 982 647 926 C 762 972 832 1027 856 1091 C 880 1154 893 1200 893 1229 Z" unicode="&#x26;" />
<glyph horiz-adv-x="483" d="M 346 1403 C 346 1365 337 1299 319 1207 C 301 1115 285 1022 270 930 C 267 926 264 922 260 919 C 256 916 250 915 242 915 C 234 915 228 916 224 919 C 219 922 215 926 213 930 C 197 1020 181 1112 163 1206 C 145 1299 137 1365 137 1403 C 137 1435 146 1462 164 1484 C 182 1505 208 1516 242 1516 C 275 1516 301 1505 319 1484 C 337 1462 346 1435 346 1403 Z" unicode="'" />
<glyph horiz-adv-x="715" d="M 676 -322 L 608 -387 C 474 -280 360 -141 266 28 C 172 198 125 377 125 565 C 125 747 171 924 263 1094 C 355 1264 470 1404 608 1516 L 676 1450 C 565 1355 478 1230 416 1075 C 353 920 322 750 322 565 C 322 372 352 201 414 51 C 476 -98 563 -222 676 -322 Z" unicode="(" />
<glyph horiz-adv-x="715" d="M 592 565 C 592 377 544 198 450 28 C 356 -141 242 -280 109 -387 L 41 -322 C 153 -222 240 -98 302 51 C 364 201 395 372 395 565 C 395 750 363 920 301 1075 C 238 1230 151 1355 41 1450 L 109 1516 C 246 1404 361 1264 453 1094 C 545 924 592 747 592 565 Z" unicode=")" />
<glyph horiz-adv-x="977" d="M 866 1249 C 866 1234 862 1220 855 1208 C 847 1195 835 1184 819 1174 C 769 1144 730 1131 702 1137 C 674 1142 621 1123 543 1079 C 620 1036 673 1017 702 1023 C 730 1029 769 1017 817 987 C 834 977 846 965 853 951 C 860 937 864 923 864 909 C 864 886 855 866 839 850 C 822 833 803 825 782 825 C 756 825 732 834 709 854 C 685 874 665 896 649 920 C 636 938 622 954 607 969 C 591 984 560 1005 514 1032 C 516 939 525 883 543 863 C 560 843 569 804 569 748 C 569 719 560 697 544 682 C 527 666 508 659 487 659 C 462 659 442 667 426 683 C 410 699 403 721 403 748 C 403 804 411 842 429 862 C 446 882 456 938 459 1032 C 414 1007 383 988 367 974 C 351 960 338 945 328 930 C 312 909 293 887 271 864 C 249 840 223 829 195 829 C 170 829 149 837 133 853 C 117 869 109 888 109 911 C 109 926 112 940 120 953 C 127 965 139 977 156 987 C 206 1017 244 1029 271 1023 C 298 1017 351 1036 430 1079 C 351 1121 298 1141 271 1137 C 243 1133 206 1146 158 1176 C 140 1186 128 1197 121 1210 C 114 1223 111 1237 111 1251 C 111 1273 119 1293 136 1310 C 152 1326 171 1335 193 1335 C 218 1335 242 1325 266 1305 C 289 1285 309 1264 326 1241 C 338 1222 352 1205 366 1190 C 380 1174 411 1154 461 1128 C 458 1220 448 1276 431 1296 C 414 1316 406 1355 406 1413 C 406 1441 414 1463 430 1478 C 446 1493 465 1501 487 1501 C 511 1501 531 1493 547 1477 C 563 1461 571 1439 571 1413 C 571 1355 562 1316 545 1296 C 527 1276 518 1220 516 1128 C 560 1152 591 1172 607 1186 C 623 1200 637 1215 647 1231 C 662 1251 681 1273 703 1296 C 725 1319 751 1331 780 1331 C 804 1331 825 1323 841 1307 C 857 1291 866 1271 866 1249 Z" unicode="*" />
<glyph horiz-adv-x="1548" d="M 1309 664 L 1309 537 L 840 537 L 840 72 L 709 72 L 709 537 L 240 537 L 240 664 L 709 664 L 709 1128 L 840 1128 L 840 664 L 1309 664 Z" unicode="+" />
<glyph horiz-adv-x="500" d="M 385 84 C 385 22 363 -47 321 -124 C 278 -201 212 -265 123 -315 L 76 -264 C 116 -232 154 -196 192 -155 C 230 -114 256 -63 270 -2 C 213 2 174 16 154 41 C 133 65 123 93 123 123 C 123 165 136 197 162 219 C 188 241 218 252 250 252 C 298 252 332 236 353 205 C 374 174 385 134 385 84 Z" unicode="," />
<glyph horiz-adv-x="649" d="M 549 600 L 549 440 L 100 440 L 100 600 L 549 600 Z" unicode="-" />
<glyph horiz-adv-x="500" d="M 393 121 C 393 84 380 53 355 27 C 329 1 298 -12 260 -12 C 223 -12 192 1 168 27 C 143 53 131 84 131 121 C 131 157 143 187 168 213 C 192 239 223 252 260 252 C 298 252 329 239 355 213 C 380 187 393 157 393 121 Z" unicode="." />
<glyph horiz-adv-x="961" d="M 715 1495 L 856 1495 L 127 -389 L -12 -389 L 715 1495 Z" unicode="/" />
<glyph horiz-adv-x="1188" d="M 1090 700 C 1090 486 1042 312 948 180 C 854 48 736 -18 594 -18 C 452 -18 333 48 239 180 C 145 312 98 486 98 700 C 98 914 145 1087 239 1221 C 333 1354 451 1421 594 1421 C 736 1421 855 1354 949 1221 C 1043 1087 1090 914 1090 700 Z M 874 700 C 874 925 849 1085 799 1180 C 749 1275 681 1323 594 1323 C 505 1323 436 1275 387 1180 C 337 1084 313 924 313 700 C 313 476 337 316 387 222 C 436 127 505 80 594 80 C 680 80 749 126 799 220 C 849 314 874 474 874 700 Z" unicode="0" />
<glyph horiz-adv-x="799" d="M 698 51 L 698 0 L 150 0 L 150 49 C 150 67 158 80 176 86 C 193 92 214 97 238 102 C 275 110 300 122 312 137 C 324 152 330 176 330 209 L 330 1204 L 113 1204 L 113 1282 L 436 1407 L 522 1407 L 522 209 C 522 180 528 157 542 140 C 555 122 580 110 616 104 C 640 100 659 94 675 88 C 690 82 698 69 698 51 Z" unicode="1" />
<glyph horiz-adv-x="1018" d="M 938 1069 C 938 976 904 886 837 798 C 770 710 670 612 537 504 C 452 434 388 377 344 333 C 300 288 257 238 215 182 L 696 182 C 734 182 764 189 785 203 C 805 217 823 247 838 293 C 842 307 847 316 853 320 C 859 324 868 326 879 326 L 936 326 L 926 0 L 57 0 L 57 137 C 97 200 156 275 233 363 C 309 451 383 532 455 606 C 539 695 605 777 652 852 C 699 927 723 1003 723 1081 C 723 1157 699 1217 652 1259 C 604 1301 541 1323 463 1323 C 414 1323 368 1310 326 1284 C 283 1258 256 1230 246 1200 C 265 1183 282 1165 296 1145 C 310 1125 317 1102 317 1075 C 317 1042 307 1015 287 994 C 267 973 241 963 209 963 C 166 963 134 976 113 1002 C 92 1028 82 1062 82 1104 C 82 1177 123 1248 206 1317 C 288 1386 390 1421 512 1421 C 640 1421 743 1388 821 1324 C 899 1260 938 1175 938 1069 Z" unicode="2" />
<glyph horiz-adv-x="1026" d="M 956 410 C 956 276 903 171 797 95 C 691 19 572 -18 440 -18 C 326 -18 230 6 153 56 C 75 106 37 169 37 246 C 37 278 47 308 68 336 C 89 363 120 377 160 377 C 198 377 226 366 245 344 C 264 322 274 301 274 281 C 274 253 269 229 260 211 C 251 193 239 175 225 158 C 238 136 263 118 299 103 C 335 87 378 80 426 80 C 530 80 609 113 662 181 C 714 249 741 324 741 408 C 741 516 706 594 637 642 C 567 690 466 715 334 715 L 334 811 C 467 821 560 849 614 895 C 667 941 694 1012 694 1110 C 694 1168 673 1218 632 1260 C 590 1302 533 1323 459 1323 C 407 1323 366 1315 336 1301 C 305 1287 280 1270 262 1251 C 279 1236 292 1221 301 1207 C 310 1193 315 1174 315 1151 C 315 1119 304 1092 284 1072 C 263 1052 236 1042 203 1042 C 173 1042 147 1053 125 1076 C 103 1098 92 1129 92 1169 C 92 1240 133 1300 217 1348 C 300 1396 389 1421 485 1421 C 605 1421 705 1391 785 1332 C 865 1273 905 1199 905 1110 C 905 1020 872 948 808 893 C 743 837 665 798 573 776 C 670 766 758 730 837 670 C 916 609 956 522 956 410 Z" unicode="3" />
<glyph horiz-adv-x="1055" d="M 1012 487 L 1012 365 L 803 365 L 803 168 C 803 146 807 131 816 121 C 824 111 840 101 864 90 C 880 82 892 76 898 72 C 904 68 907 62 907 55 L 907 0 L 500 0 L 500 55 C 500 63 503 69 509 73 C 515 76 528 82 547 90 C 569 101 586 110 596 118 C 606 126 612 142 612 168 L 612 365 L 6 365 L 6 483 L 688 1421 L 803 1421 L 803 487 L 1012 487 Z M 137 487 L 612 487 L 612 1143 L 137 487 Z" unicode="4" />
<glyph horiz-adv-x="1044" d="M 971 465 C 971 316 919 198 815 112 C 711 25 592 -18 457 -18 C 345 -18 252 7 178 57 C 103 107 66 171 66 248 C 66 280 76 310 97 338 C 118 365 148 379 188 379 C 224 379 252 368 272 346 C 291 324 301 303 301 283 C 301 254 296 231 288 213 C 280 195 268 176 254 158 C 266 136 291 118 328 103 C 365 87 407 80 455 80 C 554 80 629 116 681 188 C 732 260 758 339 758 424 C 758 516 735 596 690 664 C 644 732 571 766 469 766 C 413 766 363 756 320 736 C 277 716 236 689 197 655 L 127 702 L 166 1401 L 702 1401 C 740 1401 765 1404 777 1412 C 789 1419 799 1435 807 1460 C 811 1473 816 1482 822 1486 C 828 1490 836 1493 846 1493 L 899 1493 L 883 1219 L 268 1219 L 242 801 C 288 834 335 858 383 874 C 431 889 479 897 526 897 C 672 897 782 852 858 763 C 933 674 971 575 971 465 Z" unicode="5" />
<glyph horiz-adv-x="1135" d="M 1061 465 C 1061 336 1017 223 929 127 C 841 30 726 -18 584 -18 C 430 -18 310 44 225 169 C 140 294 98 452 98 643 C 98 853 152 1035 260 1189 C 368 1343 514 1421 698 1421 C 792 1421 865 1400 918 1358 C 970 1316 997 1269 997 1217 C 997 1180 986 1151 964 1129 C 942 1107 916 1096 885 1096 C 848 1096 821 1107 803 1129 C 785 1151 776 1179 776 1212 L 776 1298 C 771 1301 759 1306 739 1313 C 719 1319 694 1323 666 1323 C 581 1323 501 1276 425 1182 C 349 1088 309 929 307 705 C 349 749 399 786 459 818 C 519 850 585 866 659 866 C 776 866 872 827 948 750 C 1023 672 1061 577 1061 465 Z M 846 444 C 846 524 826 593 786 651 C 746 708 682 737 596 737 C 528 737 468 718 415 682 C 361 645 326 615 309 592 C 309 464 331 347 375 240 C 419 133 490 80 586 80 C 674 80 740 115 782 186 C 824 257 846 343 846 444 Z" unicode="6" />
<glyph horiz-adv-x="944" d="M 940 1401 L 940 1296 C 812 1093 706 907 622 739 C 538 570 496 378 496 162 C 496 100 486 54 466 25 C 446 -3 415 -18 373 -18 C 335 -18 304 -6 282 16 C 259 38 248 75 248 125 C 248 233 309 403 433 635 C 556 867 672 1061 780 1219 L 252 1219 C 214 1219 188 1210 175 1193 C 162 1175 151 1154 143 1130 C 139 1117 133 1108 127 1104 C 121 1100 113 1098 104 1098 L 43 1098 L 66 1413 C 94 1410 134 1407 185 1405 C 235 1402 282 1401 324 1401 L 940 1401 Z" unicode="7" />
<glyph horiz-adv-x="1065" d="M 1006 379 C 1006 257 957 160 859 88 C 761 16 646 -20 514 -20 C 372 -20 260 15 180 86 C 99 156 59 242 59 342 C 59 435 91 513 157 576 C 223 638 290 684 360 713 C 288 755 230 803 188 858 C 146 913 125 977 125 1051 C 125 1157 166 1246 248 1316 C 330 1386 427 1421 539 1421 C 659 1421 755 1391 827 1331 C 898 1271 934 1196 934 1108 C 934 1033 906 967 852 909 C 797 851 737 810 672 784 C 774 737 856 683 916 621 C 976 559 1006 479 1006 379 Z M 827 336 C 827 425 789 491 715 535 C 640 578 555 621 461 664 C 417 642 367 609 313 563 C 258 517 231 447 231 352 C 231 270 258 204 314 154 C 369 103 440 78 528 78 C 606 78 676 100 736 146 C 796 192 827 255 827 336 Z M 772 1102 C 772 1164 749 1216 705 1259 C 661 1301 603 1323 532 1323 C 460 1323 403 1302 359 1260 C 315 1218 293 1168 293 1108 C 293 1034 322 978 380 939 C 438 899 504 863 580 829 C 630 855 674 889 713 931 C 752 973 772 1030 772 1102 Z" unicode="8" />
<glyph horiz-adv-x="1135" d="M 1036 760 C 1036 557 982 377 876 219 C 770 61 622 -18 434 -18 C 331 -18 252 2 198 44 C 144 86 117 133 117 186 C 117 222 128 252 150 274 C 172 296 199 307 233 307 C 269 307 295 296 312 274 C 329 252 338 225 338 193 L 338 102 C 346 96 360 90 382 86 C 404 82 431 80 463 80 C 547 80 628 126 706 219 C 784 312 825 471 829 696 C 786 652 734 614 674 582 C 613 550 546 535 473 535 C 357 535 261 574 186 653 C 111 731 74 827 74 940 C 74 1068 117 1181 204 1277 C 290 1373 405 1421 547 1421 C 707 1421 828 1355 911 1224 C 994 1092 1036 938 1036 760 Z M 825 809 C 825 938 802 1056 758 1163 C 713 1269 642 1323 545 1323 C 457 1323 393 1287 351 1217 C 309 1147 289 1060 289 956 C 289 874 309 805 350 749 C 390 692 453 664 539 664 C 607 664 667 682 720 719 C 773 755 808 785 825 809 Z" unicode="9" />
<glyph horiz-adv-x="561" d="M 414 121 C 414 84 401 53 375 27 C 349 1 318 -12 281 -12 C 244 -12 213 1 189 27 C 164 53 152 84 152 121 C 152 157 164 187 189 213 C 213 239 244 252 281 252 C 318 252 349 239 375 213 C 401 187 414 157 414 121 Z M 414 879 C 414 842 401 810 375 784 C 349 758 318 745 281 745 C 244 745 213 758 189 784 C 164 810 152 842 152 879 C 152 914 164 945 189 971 C 213 997 244 1010 281 1010 C 318 1010 349 997 375 971 C 401 945 414 914 414 879 Z" unicode=":" />
<glyph horiz-adv-x="561" d="M 416 84 C 416 22 394 -47 352 -124 C 309 -201 243 -265 154 -315 L 106 -264 C 146 -232 184 -196 222 -155 C 260 -114 286 -63 301 -2 C 243 2 204 16 184 41 C 164 65 154 93 154 123 C 154 165 167 197 193 219 C 219 241 249 252 281 252 C 329 252 363 236 384 205 C 405 174 416 134 416 84 Z M 414 879 C 414 842 401 810 375 784 C 349 758 318 745 281 745 C 244 745 213 758 189 784 C 164 810 152 842 152 879 C 152 914 164 945 189 971 C 213 997 244 1010 281 1010 C 318 1010 349 997 375 971 C 401 945 414 914 414 879 Z" unicode=";" />
<glyph horiz-adv-x="1548" d="M 1292 205 L 1292 61 L 256 535 L 256 666 L 1292 1139 L 1292 995 L 408 600 L 1292 205 Z" unicode="&#x3C;" />
<glyph horiz-adv-x="1548" d="M 1296 440 L 1296 313 L 252 313 L 252 440 L 1296 440 Z M 1296 813 L 1296 686 L 252 686 L 252 813 L 1296 813 Z" unicode="=" />
<glyph horiz-adv-x="1548" d="M 1292 666 L 1292 535 L 256 61 L 256 205 L 1141 600 L 256 995 L 256 1139 L 1292 666 Z" unicode="&#x3E;" />
<glyph horiz-adv-x="899" d="M 815 1210 C 815 1146 799 1090 768 1043 C 737 995 696 943 645 885 C 567 795 518 717 496 649 C 474 581 461 505 459 422 C 459 417 454 411 445 405 C 436 398 426 395 414 395 C 400 395 389 398 380 405 C 371 411 367 417 367 422 C 364 483 370 552 386 629 C 401 705 430 784 473 866 C 515 945 547 1007 571 1052 C 594 1096 606 1148 606 1206 C 606 1297 586 1358 548 1389 C 509 1420 466 1436 420 1436 C 394 1436 368 1429 340 1417 C 312 1404 290 1384 276 1358 C 298 1338 313 1320 319 1304 C 325 1288 328 1274 328 1264 C 328 1225 317 1195 296 1175 C 274 1155 249 1145 219 1145 C 182 1145 153 1157 132 1181 C 110 1205 100 1234 100 1268 C 100 1326 129 1381 189 1435 C 249 1489 338 1516 457 1516 C 563 1516 650 1487 716 1430 C 782 1373 815 1300 815 1210 Z M 543 119 C 543 83 530 52 504 26 C 478 0 448 -12 412 -12 C 376 -12 345 0 321 26 C 297 52 285 83 285 119 C 285 153 297 183 321 209 C 345 235 376 248 412 248 C 448 248 478 235 504 209 C 530 183 543 153 543 119 Z" unicode="?" />
<glyph horiz-adv-x="1946" d="M 1802 631 C 1802 473 1752 326 1653 190 C 1554 54 1424 -14 1262 -14 C 1200 -14 1159 1 1139 32 C 1119 63 1108 90 1108 113 C 1059 77 1015 49 975 29 C 935 9 885 0 823 0 C 740 0 678 23 638 71 C 598 119 578 184 578 268 C 578 352 599 437 643 523 C 687 608 745 684 817 750 C 868 794 922 829 978 853 C 1034 877 1089 889 1145 889 C 1185 889 1219 883 1249 871 C 1279 859 1303 839 1323 813 L 1409 877 L 1450 877 L 1294 260 C 1289 239 1284 219 1280 200 C 1276 180 1274 162 1274 145 C 1274 122 1278 105 1287 94 C 1295 83 1307 78 1323 78 C 1427 78 1515 137 1589 255 C 1663 373 1700 506 1700 653 C 1700 799 1646 927 1539 1036 C 1432 1145 1286 1200 1102 1200 C 880 1200 694 1120 543 961 C 392 801 317 606 317 375 C 317 171 383 5 517 -121 C 650 -247 822 -311 1032 -311 C 1132 -311 1231 -294 1327 -262 C 1423 -229 1518 -178 1614 -109 L 1657 -180 C 1559 -254 1458 -311 1354 -349 C 1249 -387 1142 -406 1034 -406 C 758 -406 543 -329 389 -176 C 235 -22 158 168 158 397 C 158 645 248 858 429 1034 C 609 1210 827 1298 1081 1298 C 1301 1298 1477 1235 1607 1111 C 1737 986 1802 826 1802 631 Z M 1225 735 C 1225 755 1217 772 1203 785 C 1188 798 1165 805 1135 805 C 1097 805 1060 796 1026 778 C 991 760 958 734 928 698 C 881 643 842 578 812 502 C 781 426 766 356 766 291 C 766 231 779 186 805 155 C 831 124 870 109 924 109 C 953 109 985 117 1019 135 C 1053 153 1082 177 1108 207 L 1212 629 C 1217 650 1220 670 1222 690 C 1224 709 1225 724 1225 735 Z" unicode="@" />
<glyph horiz-adv-x="1401" d="M 1399 51 L 1399 0 L 944 0 L 944 41 C 944 51 947 58 955 62 C 962 66 976 74 997 86 C 1013 94 1027 102 1037 111 C 1047 119 1053 129 1053 139 C 1053 146 1050 157 1044 173 C 1038 189 1032 205 1026 223 L 950 420 L 367 420 L 289 225 C 285 215 280 201 274 183 C 268 165 266 152 266 143 C 266 128 271 115 282 105 C 293 95 308 86 328 80 C 347 71 361 63 369 56 C 377 49 381 41 381 31 L 381 0 L 0 0 L 0 41 C 0 49 2 57 8 64 C 13 71 24 79 41 88 C 69 108 91 126 105 141 C 119 155 133 180 147 215 L 600 1284 L 559 1374 C 557 1378 555 1383 553 1388 C 551 1392 551 1396 551 1399 C 551 1401 552 1404 554 1407 C 556 1409 560 1412 565 1415 C 585 1427 607 1442 630 1458 C 653 1474 674 1491 694 1507 C 696 1509 698 1511 702 1514 C 705 1516 709 1518 713 1518 C 717 1518 721 1516 724 1514 C 726 1511 729 1507 731 1503 L 1260 184 C 1268 164 1278 146 1291 130 C 1304 114 1321 101 1343 92 C 1367 83 1382 77 1389 73 C 1395 69 1399 61 1399 51 Z M 408 522 L 909 522 L 662 1149 L 408 522 Z" unicode="A" />
<glyph horiz-adv-x="1276" d="M 1208 401 C 1208 295 1162 201 1070 121 C 978 40 849 0 684 0 L 82 0 L 82 51 C 82 61 85 68 92 72 C 98 75 113 82 137 92 C 163 103 181 112 189 120 C 197 127 201 142 201 166 L 201 1329 C 201 1348 197 1362 190 1372 C 183 1382 167 1392 141 1403 C 117 1411 102 1418 96 1422 C 89 1426 86 1433 86 1444 L 86 1495 L 633 1495 C 800 1495 925 1460 1007 1392 C 1089 1323 1130 1238 1130 1137 C 1130 1056 1099 982 1037 914 C 975 846 888 802 778 784 C 897 773 998 737 1082 675 C 1166 613 1208 521 1208 401 Z M 977 412 C 977 518 944 596 879 646 C 813 696 705 721 553 721 L 408 721 L 408 98 L 590 98 C 723 98 821 125 883 179 C 945 233 977 311 977 412 Z M 901 1112 C 901 1199 876 1269 827 1321 C 778 1373 689 1399 561 1399 L 408 1399 L 408 827 L 582 827 C 694 827 776 853 826 905 C 876 957 901 1026 901 1112 Z" unicode="B" />
<glyph horiz-adv-x="1294" d="M 1202 360 L 1270 291 C 1232 214 1165 143 1070 78 C 974 12 862 -20 733 -20 C 529 -20 370 52 254 198 C 138 344 80 525 80 741 C 80 981 144 1171 274 1309 C 404 1447 551 1516 715 1516 C 777 1516 833 1509 885 1495 C 936 1481 989 1457 1044 1423 C 1055 1416 1065 1411 1074 1409 C 1083 1406 1093 1408 1104 1415 C 1116 1424 1125 1431 1131 1435 C 1136 1439 1143 1442 1151 1442 L 1196 1442 L 1196 1073 L 1130 1073 C 1118 1073 1109 1075 1105 1080 C 1101 1084 1098 1091 1096 1100 C 1069 1189 1026 1264 967 1324 C 907 1384 835 1415 750 1415 C 636 1415 535 1358 445 1246 C 355 1134 311 968 311 750 C 311 538 352 375 435 261 C 517 147 621 90 745 90 C 851 90 945 119 1025 177 C 1105 235 1164 296 1202 360 Z" unicode="C" />
<glyph horiz-adv-x="1440" d="M 1360 748 C 1360 525 1290 345 1150 207 C 1010 69 831 0 612 0 L 82 0 L 82 51 C 82 61 85 68 92 72 C 98 75 113 82 137 92 C 163 103 181 112 189 120 C 197 127 201 142 201 166 L 201 1329 C 201 1348 197 1362 190 1372 C 183 1382 167 1392 141 1403 C 117 1411 102 1418 96 1422 C 89 1426 86 1433 86 1444 L 86 1495 L 565 1495 C 813 1495 1007 1425 1148 1287 C 1289 1148 1360 968 1360 748 Z M 1126 748 C 1126 966 1073 1129 969 1237 C 865 1345 719 1399 532 1399 L 408 1399 L 408 96 L 557 96 C 738 96 878 148 977 252 C 1076 356 1126 521 1126 748 Z" unicode="D" />
<glyph horiz-adv-x="1208" d="M 1153 336 L 1153 0 L 82 0 L 82 51 C 82 61 85 68 92 72 C 98 75 113 82 137 92 C 163 103 181 112 189 120 C 197 127 201 142 201 166 L 201 1329 C 201 1348 197 1362 190 1372 C 183 1382 167 1392 141 1403 C 117 1411 102 1418 96 1422 C 89 1426 86 1433 86 1444 L 86 1495 L 866 1495 C 892 1495 925 1497 967 1501 C 1008 1505 1038 1509 1057 1511 L 1057 1208 L 1010 1208 C 994 1208 983 1210 975 1216 C 967 1222 960 1230 956 1241 C 932 1304 910 1345 889 1365 C 868 1385 822 1395 750 1395 L 408 1395 L 408 817 L 606 817 C 644 817 669 824 683 840 C 697 855 712 881 729 918 C 735 930 742 939 749 946 C 755 952 767 956 784 956 L 829 956 L 829 584 L 778 584 C 763 584 752 588 744 597 C 736 606 729 616 723 627 C 706 662 691 685 678 697 C 664 709 642 715 610 715 L 408 715 L 408 100 L 848 100 C 905 100 947 114 974 143 C 1000 172 1028 223 1057 295 C 1061 309 1065 320 1071 326 C 1076 332 1085 336 1098 336 L 1153 336 Z" unicode="E" />
<glyph horiz-adv-x="1157" d="M 1120 1511 L 1120 1204 L 1067 1204 C 1050 1204 1039 1207 1033 1213 C 1027 1219 1022 1227 1020 1237 C 1004 1296 984 1337 959 1360 C 933 1383 884 1395 811 1395 L 408 1395 L 408 811 L 655 811 C 693 811 719 818 733 834 C 747 849 762 875 780 911 C 786 923 793 933 799 940 C 805 946 816 950 834 950 L 877 950 L 877 578 L 825 578 C 811 578 800 582 792 591 C 784 600 778 610 774 621 C 756 656 741 679 727 691 C 713 703 691 709 659 709 L 408 709 L 408 166 C 408 142 412 127 420 120 C 428 112 445 103 471 92 C 492 83 506 77 512 73 C 518 69 522 61 522 51 L 522 0 L 82 0 L 82 51 C 82 61 85 68 92 72 C 98 75 113 82 137 92 C 163 103 181 112 189 120 C 197 127 201 142 201 166 L 201 1329 C 201 1348 197 1362 190 1372 C 183 1382 167 1392 141 1403 C 117 1411 102 1418 96 1422 C 89 1426 86 1433 86 1444 L 86 1495 L 930 1495 C 965 1495 1001 1497 1037 1501 C 1073 1505 1101 1509 1120 1511 Z" unicode="F" />
<glyph horiz-adv-x="1452" d="M 1415 158 L 1415 115 C 1341 88 1250 59 1141 27 C 1031 -4 921 -20 809 -20 C 581 -20 402 53 273 199 C 144 345 80 526 80 741 C 80 977 148 1165 284 1305 C 420 1445 573 1516 745 1516 C 802 1516 857 1509 911 1496 C 964 1482 1018 1459 1073 1427 C 1086 1419 1098 1413 1108 1411 C 1118 1409 1127 1410 1135 1415 C 1147 1424 1156 1431 1161 1435 C 1166 1439 1172 1442 1180 1442 L 1225 1442 L 1225 1073 L 1161 1073 C 1149 1073 1140 1075 1136 1080 C 1131 1084 1128 1091 1126 1100 C 1098 1189 1053 1264 989 1324 C 925 1384 848 1415 758 1415 C 632 1415 526 1357 440 1243 C 354 1129 311 964 311 748 C 311 541 358 377 454 256 C 550 134 669 74 811 74 C 921 74 997 92 1039 129 C 1081 166 1102 209 1102 258 L 1102 479 C 1102 497 1098 512 1090 522 C 1082 532 1066 542 1042 553 C 1019 561 1004 568 998 572 C 992 576 989 583 989 594 L 989 645 L 1315 645 C 1313 628 1310 607 1307 581 C 1304 555 1303 532 1303 514 L 1303 266 C 1303 247 1306 232 1313 221 C 1319 210 1336 201 1364 193 C 1386 185 1400 180 1406 177 C 1412 174 1415 168 1415 158 Z" unicode="G" />
<glyph horiz-adv-x="1534" d="M 1448 51 L 1448 0 L 1012 0 L 1012 51 C 1012 61 1015 68 1021 72 C 1027 75 1042 82 1065 92 C 1091 103 1108 112 1115 120 C 1122 127 1126 142 1126 166 L 1126 717 L 408 717 L 408 168 C 408 144 411 129 419 121 C 427 113 443 103 469 92 C 490 83 504 77 510 73 C 516 69 520 61 520 51 L 520 0 L 84 0 L 84 51 C 84 61 87 68 94 72 C 100 75 115 82 139 92 C 165 103 182 112 190 120 C 197 127 201 142 201 166 L 201 1329 C 201 1348 197 1362 189 1372 C 181 1382 164 1392 139 1403 C 115 1411 100 1418 94 1422 C 87 1426 84 1433 84 1444 L 84 1495 L 520 1495 L 520 1444 C 520 1433 516 1426 510 1422 C 504 1418 490 1411 469 1403 C 442 1391 425 1382 418 1376 C 411 1369 408 1353 408 1329 L 408 823 L 1126 823 L 1126 1329 C 1126 1353 1122 1369 1114 1376 C 1106 1383 1090 1392 1065 1403 C 1042 1411 1027 1418 1021 1422 C 1015 1426 1012 1433 1012 1444 L 1012 1495 L 1448 1495 L 1448 1444 C 1448 1433 1444 1426 1438 1422 C 1432 1418 1418 1411 1397 1403 C 1369 1391 1351 1382 1344 1376 C 1336 1369 1333 1353 1333 1329 L 1333 166 C 1333 147 1337 133 1345 123 C 1353 113 1370 103 1397 92 C 1418 83 1432 77 1438 73 C 1444 69 1448 61 1448 51 Z" unicode="H" />
<glyph horiz-adv-x="621" d="M 528 51 L 528 0 L 90 0 L 90 51 C 90 61 93 68 100 72 C 106 75 121 82 145 92 C 171 103 188 112 196 120 C 203 127 207 142 207 166 L 207 1329 C 207 1348 203 1362 195 1372 C 187 1382 171 1392 145 1403 C 121 1411 106 1418 100 1422 C 93 1426 90 1433 90 1444 L 90 1495 L 528 1495 L 528 1444 C 528 1433 524 1426 517 1422 C 510 1418 496 1411 475 1403 C 448 1391 431 1382 424 1376 C 417 1369 414 1353 414 1329 L 414 166 C 414 142 417 127 425 120 C 433 112 449 103 475 92 C 496 83 510 77 517 73 C 524 69 528 61 528 51 Z" unicode="I" />
<glyph horiz-adv-x="928" d="M 862 1495 L 862 1444 C 862 1433 858 1426 852 1422 C 846 1418 831 1411 809 1403 C 783 1391 767 1382 759 1376 C 751 1369 748 1353 748 1329 L 748 418 C 748 294 711 190 639 106 C 566 22 463 -20 330 -20 C 238 -20 163 2 107 46 C 51 90 23 141 23 197 C 23 235 33 269 55 299 C 76 329 107 344 147 344 C 181 344 209 335 229 317 C 249 299 260 276 260 248 C 260 225 255 203 247 183 C 239 162 224 145 203 133 C 207 116 222 100 249 85 C 276 70 304 63 332 63 C 384 63 432 83 476 123 C 519 163 541 232 541 330 L 541 1329 C 541 1348 536 1362 527 1372 C 517 1382 500 1392 475 1403 C 452 1411 437 1418 430 1422 C 423 1426 420 1433 420 1444 L 420 1495 L 862 1495 Z" unicode="J" />
<glyph horiz-adv-x="1350" d="M 1380 49 L 1380 0 L 891 0 L 891 49 C 891 57 895 64 904 69 C 913 73 926 80 944 88 C 952 92 960 97 967 103 C 973 109 977 114 977 119 C 977 125 971 134 960 148 C 948 162 938 174 930 184 L 408 762 L 408 166 C 408 142 411 127 419 120 C 427 112 443 103 469 92 C 490 83 504 77 510 73 C 516 69 520 61 520 51 L 520 0 L 84 0 L 84 51 C 84 61 87 68 94 72 C 100 75 115 82 139 92 C 165 103 182 112 190 120 C 197 127 201 142 201 166 L 201 1329 C 201 1348 197 1362 189 1372 C 181 1382 164 1392 139 1403 C 115 1411 100 1418 94 1422 C 87 1426 84 1433 84 1444 L 84 1495 L 520 1495 L 520 1444 C 520 1433 516 1426 510 1422 C 504 1418 490 1411 469 1403 C 442 1391 425 1382 418 1376 C 411 1369 408 1353 408 1329 L 408 817 L 893 1303 C 906 1315 918 1328 929 1340 C 940 1352 946 1362 946 1368 C 946 1378 938 1386 924 1392 C 909 1397 893 1403 877 1409 C 855 1417 842 1423 837 1429 C 831 1435 829 1444 829 1456 L 829 1495 L 1274 1495 L 1274 1446 C 1274 1432 1270 1423 1263 1419 C 1256 1415 1236 1407 1204 1397 C 1165 1383 1135 1370 1115 1356 C 1094 1342 1068 1320 1038 1290 L 578 856 L 1196 178 C 1209 164 1227 148 1249 132 C 1271 115 1295 100 1323 88 C 1346 78 1361 71 1369 68 C 1376 64 1380 58 1380 49 Z" unicode="K" />
<glyph horiz-adv-x="1174" d="M 1147 340 L 1147 0 L 82 0 L 82 51 C 82 61 85 68 92 72 C 98 75 113 82 137 92 C 163 103 181 112 189 120 C 197 127 201 142 201 166 L 201 1329 C 201 1348 197 1362 190 1372 C 183 1382 167 1392 141 1403 C 117 1411 102 1418 96 1422 C 89 1426 86 1433 86 1444 L 86 1495 L 520 1495 L 520 1444 C 520 1433 516 1426 510 1422 C 504 1418 490 1411 469 1403 C 442 1391 425 1382 418 1376 C 411 1369 408 1353 408 1329 L 408 100 L 842 100 C 898 100 940 115 967 145 C 994 175 1022 227 1051 299 C 1055 313 1059 324 1065 330 C 1070 336 1079 340 1092 340 L 1147 340 Z" unicode="L" />
<glyph horiz-adv-x="1769" d="M 1686 51 L 1686 0 L 1253 0 L 1253 51 C 1253 61 1256 69 1263 73 C 1269 77 1283 83 1305 92 C 1332 104 1349 114 1357 121 C 1364 127 1368 142 1368 166 L 1368 1339 L 901 23 C 899 15 893 9 884 5 C 874 0 862 -2 848 -2 C 829 -2 816 0 809 5 C 801 9 797 15 795 23 L 330 1358 L 330 227 C 330 203 334 181 342 160 C 350 138 365 119 387 102 C 408 85 423 75 431 71 C 439 67 444 61 444 53 L 444 0 L 84 0 L 84 53 C 84 61 87 68 94 73 C 101 78 116 89 139 106 C 160 123 176 141 186 161 C 196 181 201 202 201 225 L 201 1329 C 201 1348 197 1362 189 1372 C 181 1382 164 1392 139 1403 C 115 1411 100 1418 94 1422 C 87 1426 84 1433 84 1444 L 84 1495 L 485 1495 L 895 315 L 1305 1495 L 1686 1495 L 1686 1444 C 1686 1433 1682 1426 1676 1422 C 1669 1418 1654 1411 1632 1403 C 1605 1391 1588 1382 1581 1376 C 1574 1369 1571 1353 1571 1329 L 1571 166 C 1571 147 1574 133 1582 123 C 1590 113 1606 103 1632 92 C 1654 83 1669 77 1676 73 C 1682 69 1686 61 1686 51 Z" unicode="M" />
<glyph horiz-adv-x="1464" d="M 1389 1495 L 1389 1442 C 1389 1433 1385 1426 1377 1422 C 1369 1417 1354 1407 1333 1391 C 1310 1373 1294 1354 1285 1334 C 1276 1314 1272 1292 1272 1270 L 1272 -10 L 1186 -10 L 330 1294 L 330 227 C 330 203 334 181 342 160 C 350 138 365 119 387 102 C 408 85 423 75 431 71 C 439 67 444 61 444 53 L 444 0 L 84 0 L 84 53 C 84 61 87 68 94 73 C 101 78 116 89 139 106 C 160 123 176 141 186 161 C 196 181 201 202 201 225 L 201 1329 C 201 1348 197 1362 189 1372 C 181 1382 164 1392 139 1403 C 115 1411 100 1418 94 1422 C 87 1426 84 1433 84 1444 L 84 1495 L 428 1495 L 1143 397 L 1143 1268 C 1143 1291 1138 1313 1130 1335 C 1121 1356 1105 1375 1083 1393 C 1062 1409 1047 1419 1039 1423 C 1030 1427 1026 1433 1026 1442 L 1026 1495 L 1389 1495 Z" unicode="N" />
<glyph horiz-adv-x="1503" d="M 1423 748 C 1423 525 1360 341 1235 197 C 1109 52 948 -20 752 -20 C 556 -20 395 51 269 194 C 143 336 80 521 80 748 C 80 968 143 1151 269 1297 C 395 1443 556 1516 752 1516 C 948 1516 1109 1443 1235 1297 C 1360 1151 1423 968 1423 748 Z M 1192 748 C 1192 962 1151 1127 1070 1242 C 989 1357 883 1415 752 1415 C 620 1415 513 1357 432 1242 C 351 1127 311 962 311 748 C 311 532 351 367 432 252 C 513 137 620 80 752 80 C 883 80 989 136 1070 248 C 1151 360 1192 527 1192 748 Z" unicode="O" />
<glyph horiz-adv-x="1180" d="M 1143 1102 C 1143 977 1094 873 996 791 C 898 709 753 668 561 668 L 408 668 L 408 166 C 408 142 412 127 420 120 C 428 112 445 103 471 92 C 492 83 506 77 512 73 C 518 69 522 61 522 51 L 522 0 L 82 0 L 82 51 C 82 61 85 68 92 72 C 98 75 113 82 137 92 C 163 103 181 112 189 120 C 197 127 201 142 201 166 L 201 1329 C 201 1348 197 1362 190 1372 C 183 1382 167 1392 141 1403 C 117 1411 102 1418 96 1422 C 89 1426 86 1433 86 1444 L 86 1495 L 616 1495 C 784 1495 913 1457 1005 1383 C 1097 1309 1143 1215 1143 1102 Z M 911 1100 C 911 1185 882 1255 824 1311 C 766 1367 677 1395 559 1395 L 408 1395 L 408 774 L 567 774 C 685 774 772 803 828 862 C 883 921 911 1000 911 1100 Z" unicode="P" />
<glyph horiz-adv-x="1503" d="M 1518 -152 L 1518 -227 C 1496 -249 1461 -275 1413 -304 C 1365 -333 1304 -348 1231 -348 C 1155 -348 1089 -330 1032 -295 C 975 -260 919 -222 864 -180 C 798 -129 748 -92 714 -68 C 680 -44 644 -22 606 -2 C 449 30 322 114 225 249 C 128 384 80 550 80 748 C 80 968 143 1151 269 1297 C 395 1443 556 1516 752 1516 C 948 1516 1109 1443 1235 1297 C 1360 1151 1423 968 1423 748 C 1423 545 1369 374 1263 236 C 1156 98 1018 16 848 -8 C 878 -17 917 -31 963 -49 C 1009 -67 1058 -90 1110 -117 C 1163 -144 1209 -162 1249 -172 C 1288 -181 1333 -186 1384 -186 C 1412 -186 1436 -181 1458 -173 C 1479 -165 1499 -158 1518 -152 Z M 1192 748 C 1192 962 1151 1127 1070 1242 C 989 1357 883 1415 752 1415 C 620 1415 513 1357 432 1242 C 351 1127 311 962 311 748 C 311 532 351 367 432 251 C 513 135 620 78 752 78 C 883 78 989 134 1070 247 C 1151 360 1192 527 1192 748 Z" unicode="Q" />
<glyph horiz-adv-x="1341" d="M 1356 49 L 1356 0 L 1055 0 L 829 360 C 769 456 712 534 660 596 C 608 657 540 688 457 688 L 408 688 L 408 166 C 408 142 412 127 420 120 C 428 112 445 103 471 92 C 492 83 506 77 512 73 C 518 69 522 61 522 51 L 522 0 L 82 0 L 82 51 C 82 61 85 68 92 72 C 98 75 113 82 137 92 C 163 103 181 112 189 120 C 197 127 201 142 201 166 L 201 1329 C 201 1348 197 1362 190 1372 C 183 1382 167 1392 141 1403 C 117 1411 102 1418 96 1422 C 89 1426 86 1433 86 1444 L 86 1495 L 647 1495 C 818 1495 946 1457 1032 1382 C 1118 1307 1161 1216 1161 1108 C 1161 1022 1127 942 1059 868 C 991 793 891 744 758 721 C 802 702 848 665 895 610 C 942 554 1018 441 1122 270 C 1148 227 1174 190 1199 158 C 1223 126 1250 104 1280 94 C 1310 84 1331 76 1341 72 C 1351 67 1356 59 1356 49 Z M 928 1108 C 928 1205 896 1277 832 1324 C 768 1371 689 1395 594 1395 L 408 1395 L 408 795 L 573 795 C 691 795 780 821 839 873 C 898 925 928 1004 928 1108 Z" unicode="R" />
<glyph horiz-adv-x="1133" d="M 1063 455 C 1063 341 1022 234 941 132 C 859 30 736 -20 571 -20 C 505 -20 442 -12 382 1 C 322 15 282 28 264 39 C 255 43 246 46 238 49 C 230 51 223 53 219 53 C 210 53 203 51 198 47 C 193 43 188 37 184 31 C 177 19 169 11 161 7 C 152 2 144 0 137 0 L 80 0 L 80 403 L 143 403 C 153 403 161 401 167 398 C 173 395 179 385 186 367 C 228 263 284 189 354 145 C 424 101 497 80 571 80 C 656 80 729 105 791 155 C 852 205 883 279 883 375 C 883 455 859 516 812 556 C 764 596 709 628 645 653 C 598 671 559 688 527 702 C 495 716 460 730 422 745 C 320 785 245 840 198 909 C 150 977 127 1046 127 1114 C 127 1216 164 1308 238 1391 C 312 1474 417 1516 553 1516 C 585 1516 622 1511 662 1502 C 702 1493 745 1475 793 1448 C 803 1441 814 1436 824 1432 C 834 1428 846 1430 858 1440 C 870 1448 879 1454 883 1456 C 887 1458 893 1460 901 1460 L 948 1460 L 948 1102 L 883 1102 C 871 1102 863 1104 859 1109 C 855 1113 852 1120 850 1128 C 822 1217 782 1287 729 1338 C 676 1389 612 1415 537 1415 C 479 1415 424 1396 373 1358 C 322 1320 297 1270 297 1208 C 297 1138 312 1087 342 1054 C 372 1021 417 991 477 965 C 513 947 553 931 595 916 C 637 900 677 885 715 870 C 835 822 923 762 979 690 C 1035 618 1063 540 1063 455 Z" unicode="S" />
<glyph horiz-adv-x="1257" d="M 1233 1511 L 1233 1198 L 1192 1198 C 1173 1198 1158 1202 1148 1211 C 1138 1220 1130 1231 1126 1243 C 1109 1298 1088 1337 1064 1361 C 1039 1385 1007 1397 969 1397 L 733 1397 L 733 166 C 733 142 737 127 745 120 C 753 112 771 103 797 92 C 819 83 834 77 841 73 C 848 69 852 61 852 51 L 852 0 L 408 0 L 408 51 C 408 61 411 69 418 73 C 425 77 439 83 461 92 C 487 104 505 114 513 121 C 521 127 526 142 526 166 L 526 1397 L 289 1397 C 251 1397 219 1385 195 1361 C 170 1337 149 1298 133 1243 C 129 1231 121 1220 110 1211 C 98 1202 84 1198 68 1198 L 25 1198 L 25 1511 C 41 1509 73 1505 119 1501 C 165 1497 202 1495 231 1495 L 1026 1495 C 1042 1495 1077 1497 1129 1501 C 1181 1505 1216 1509 1233 1511 Z" unicode="T" />
<glyph horiz-adv-x="1464" d="M 1401 1495 L 1401 1442 C 1401 1433 1397 1426 1390 1422 C 1383 1417 1368 1407 1346 1391 C 1323 1373 1307 1354 1298 1334 C 1288 1314 1284 1292 1284 1270 L 1284 537 C 1284 398 1241 270 1155 154 C 1069 38 937 -20 758 -20 C 563 -20 419 31 327 134 C 234 236 188 363 188 514 L 188 1329 C 188 1348 184 1362 176 1372 C 168 1382 151 1392 127 1403 C 103 1411 88 1418 82 1422 C 75 1426 72 1433 72 1444 L 72 1495 L 510 1495 L 510 1444 C 510 1433 506 1426 500 1422 C 494 1418 479 1411 457 1403 C 431 1391 415 1381 407 1372 C 399 1362 395 1348 395 1329 L 395 528 C 395 401 427 301 492 227 C 557 153 649 117 768 117 C 902 117 1000 154 1063 230 C 1125 306 1157 412 1157 549 L 1157 1268 C 1157 1291 1152 1313 1143 1335 C 1134 1356 1118 1375 1096 1393 C 1075 1409 1060 1419 1052 1423 C 1044 1427 1040 1433 1040 1442 L 1040 1495 L 1401 1495 Z" unicode="U" />
<glyph horiz-adv-x="1442" d="M 1415 1495 L 1415 1454 C 1415 1444 1412 1436 1407 1430 C 1401 1424 1390 1417 1374 1407 C 1344 1388 1323 1373 1311 1361 C 1298 1349 1284 1324 1270 1286 L 762 4 C 759 -2 755 -7 750 -11 C 745 -14 738 -16 729 -16 L 709 -16 C 701 -16 695 -14 689 -12 C 683 -9 678 -4 676 4 L 145 1317 C 137 1337 125 1354 111 1367 C 97 1380 77 1392 53 1403 C 30 1411 15 1418 9 1422 C 3 1426 0 1433 0 1444 L 0 1495 L 455 1495 L 455 1454 C 455 1444 451 1436 444 1432 C 437 1428 423 1420 403 1409 C 387 1401 375 1393 367 1385 C 359 1377 356 1368 356 1358 C 356 1349 358 1337 364 1321 C 369 1305 375 1288 381 1272 L 764 307 L 1130 1276 C 1135 1288 1140 1303 1146 1322 C 1152 1341 1155 1354 1155 1360 C 1155 1375 1149 1386 1138 1394 C 1126 1401 1112 1408 1094 1415 C 1074 1423 1060 1431 1052 1438 C 1044 1444 1040 1453 1040 1464 L 1040 1495 L 1415 1495 Z" unicode="V" />
<glyph horiz-adv-x="2048" d="M 2038 1495 L 2038 1454 C 2038 1444 2035 1436 2030 1430 C 2024 1424 2013 1417 1997 1407 C 1966 1388 1944 1373 1932 1362 C 1920 1351 1906 1326 1892 1286 L 1440 4 C 1438 0 1434 -5 1429 -9 C 1423 -13 1417 -16 1411 -16 L 1380 -16 C 1372 -16 1365 -14 1359 -11 C 1353 -7 1350 -2 1348 4 L 1036 946 L 713 4 C 711 -2 707 -7 702 -11 C 696 -14 690 -16 684 -16 L 655 -16 C 648 -16 642 -14 636 -11 C 630 -7 625 -2 623 4 L 150 1317 C 143 1335 132 1352 117 1366 C 101 1380 81 1392 57 1403 C 34 1411 19 1418 13 1422 C 7 1426 4 1433 4 1444 L 4 1495 L 459 1495 L 459 1454 C 459 1444 455 1436 449 1432 C 442 1428 428 1420 408 1409 C 391 1401 379 1393 371 1385 C 363 1377 360 1368 360 1358 C 360 1349 362 1335 367 1315 C 372 1295 377 1280 381 1268 L 707 330 L 979 1104 L 899 1317 C 892 1335 882 1352 869 1366 C 855 1380 836 1392 811 1403 C 789 1411 775 1418 769 1422 C 763 1426 760 1433 760 1444 L 760 1495 L 1212 1495 L 1212 1454 C 1212 1444 1208 1436 1201 1432 C 1194 1428 1180 1420 1159 1409 C 1142 1401 1129 1393 1121 1385 C 1112 1377 1108 1368 1108 1358 C 1108 1349 1110 1335 1115 1316 C 1119 1296 1124 1280 1128 1268 L 1438 324 L 1753 1276 C 1757 1291 1762 1307 1767 1325 C 1771 1342 1774 1354 1774 1360 C 1774 1375 1768 1386 1757 1394 C 1745 1401 1730 1408 1712 1415 C 1691 1423 1677 1431 1669 1438 C 1661 1444 1657 1453 1657 1464 L 1657 1495 L 2038 1495 Z" unicode="W" />
<glyph horiz-adv-x="1305" d="M 1300 49 L 1300 0 L 846 0 L 846 33 C 846 45 847 54 851 59 C 855 64 865 71 883 80 C 895 86 907 93 918 102 C 928 110 934 120 934 131 C 934 137 930 149 924 165 C 918 181 909 197 899 213 L 614 651 L 319 195 C 311 184 305 173 302 163 C 298 153 297 144 297 137 C 297 124 305 113 321 105 C 337 96 356 88 379 80 C 391 75 400 68 406 59 C 412 50 416 41 416 31 L 416 0 L 4 0 L 4 41 C 4 49 6 57 11 65 C 15 73 27 80 47 86 C 81 98 108 113 128 131 C 147 149 172 180 203 225 L 553 743 L 188 1303 C 171 1330 157 1349 145 1359 C 133 1369 111 1382 80 1397 C 56 1407 42 1415 38 1422 C 33 1428 31 1436 31 1446 L 31 1495 L 487 1495 L 487 1462 C 487 1449 485 1440 481 1435 C 477 1430 467 1423 449 1415 C 436 1409 424 1402 414 1394 C 404 1386 399 1377 399 1366 C 399 1359 402 1347 409 1330 C 415 1313 424 1297 434 1282 L 686 893 L 952 1300 C 957 1308 962 1318 967 1330 C 972 1341 975 1351 975 1360 C 975 1372 966 1382 949 1390 C 932 1398 912 1406 889 1415 C 877 1419 869 1425 863 1435 C 857 1444 854 1454 854 1464 L 854 1495 L 1260 1495 L 1260 1454 C 1260 1445 1257 1437 1252 1429 C 1246 1421 1235 1415 1217 1409 C 1186 1399 1161 1385 1143 1368 C 1125 1350 1099 1318 1067 1270 L 748 803 L 1147 193 C 1164 166 1178 147 1190 137 C 1201 126 1222 113 1253 98 C 1275 88 1289 79 1293 73 C 1297 66 1300 58 1300 49 Z" unicode="X" />
<glyph horiz-adv-x="1282" d="M 1288 1495 L 1288 1454 C 1288 1444 1285 1436 1279 1430 C 1273 1424 1262 1417 1247 1409 C 1218 1392 1197 1379 1184 1369 C 1170 1359 1150 1332 1124 1290 L 752 682 L 752 166 C 752 146 756 132 764 123 C 772 113 788 103 813 92 C 835 83 850 77 857 73 C 864 69 868 61 868 51 L 868 0 L 424 0 L 424 51 C 424 61 427 68 434 72 C 441 75 456 82 479 92 C 505 103 523 112 532 120 C 540 127 545 142 545 166 L 545 678 L 139 1317 C 127 1337 114 1354 101 1367 C 88 1380 69 1392 45 1403 C 22 1411 7 1418 1 1422 C -4 1426 -8 1433 -8 1444 L -8 1495 L 453 1495 L 453 1462 C 453 1451 450 1443 446 1439 C 442 1434 429 1426 408 1415 C 391 1407 378 1399 368 1393 C 358 1387 354 1379 354 1370 C 354 1365 358 1354 367 1337 C 375 1319 382 1306 387 1298 L 696 801 L 993 1296 C 1001 1310 1009 1325 1016 1340 C 1022 1355 1026 1366 1026 1372 C 1026 1383 1020 1391 1009 1397 C 998 1403 985 1409 971 1415 C 949 1423 934 1431 926 1437 C 917 1443 913 1452 913 1462 L 913 1495 L 1288 1495 Z" unicode="Y" />
<glyph horiz-adv-x="1227" d="M 1163 336 L 1163 -16 C 1144 -14 1111 -10 1064 -6 C 1017 -2 980 0 952 0 L 49 0 L 49 37 C 49 49 51 61 57 71 C 62 81 70 95 82 113 L 897 1395 L 391 1395 C 351 1395 318 1383 294 1359 C 269 1335 248 1296 231 1241 C 227 1229 220 1218 210 1209 C 200 1200 186 1196 168 1196 L 127 1196 L 127 1511 C 144 1509 173 1505 214 1501 C 255 1497 288 1495 313 1495 L 1151 1495 L 1151 1468 C 1151 1447 1147 1431 1141 1421 C 1135 1411 1127 1398 1118 1384 L 305 100 L 848 100 C 905 100 949 114 979 143 C 1009 172 1038 223 1067 295 C 1071 309 1075 320 1081 326 C 1087 332 1096 336 1110 336 L 1163 336 Z" unicode="Z" />
<glyph horiz-adv-x="715" d="M 643 -305 L 643 -389 L 156 -389 L 156 1495 L 643 1495 L 643 1411 L 330 1411 L 330 -305 L 643 -305 Z" unicode="[" />
<glyph horiz-adv-x="961" d="M 244 1495 L 973 -389 L 834 -389 L 102 1495 L 244 1495 Z" unicode="\" />
<glyph horiz-adv-x="715" d="M 559 1495 L 559 -389 L 72 -389 L 72 -305 L 385 -305 L 385 1411 L 72 1411 L 72 1495 L 559 1495 Z" unicode="]" />
<glyph horiz-adv-x="1548" d="M 840 1495 L 1241 664 L 1098 664 L 774 1354 L 451 664 L 307 664 L 709 1495 L 840 1495 Z" unicode="^" />
<glyph horiz-adv-x="1024" d="M 1030 -123 L 1030 -211 L -6 -211 L -6 -123 L 1030 -123 Z" unicode="_" />
<glyph horiz-adv-x="819" d="M 381 1440 L 635 1149 L 586 1114 L 266 1298 C 236 1315 214 1333 200 1351 C 185 1369 178 1388 178 1407 C 178 1431 186 1453 202 1471 C 218 1489 239 1499 266 1499 C 283 1499 301 1495 319 1488 C 337 1481 358 1465 381 1440 Z" unicode="`" />
<glyph horiz-adv-x="1053" d="M 1030 133 L 1073 86 C 1052 53 1026 28 994 12 C 962 -3 929 -12 895 -12 C 856 -12 820 0 788 24 C 755 48 733 83 721 127 C 676 73 625 35 569 13 C 513 -8 457 -20 401 -20 C 314 -20 237 4 169 54 C 101 104 68 176 68 272 C 68 372 119 456 222 524 C 325 591 483 625 696 625 C 696 724 676 800 638 852 C 599 904 546 930 479 930 C 458 930 438 929 420 927 C 401 925 385 922 371 920 C 371 866 364 820 352 784 C 339 747 308 729 258 729 C 221 729 194 737 176 754 C 158 770 150 795 150 829 C 150 871 177 913 233 956 C 288 998 369 1020 475 1020 C 623 1020 728 984 789 912 C 850 840 881 745 881 629 L 881 209 C 881 179 888 156 902 138 C 916 120 939 111 969 111 C 979 111 989 113 1001 118 C 1012 123 1022 128 1030 133 Z M 696 285 L 696 539 C 558 539 451 516 374 472 C 296 428 258 367 258 289 C 258 223 277 173 317 139 C 356 105 403 88 459 88 C 515 88 569 107 620 146 C 670 185 696 231 696 285 Z" unicode="a" />
<glyph horiz-adv-x="1159" d="M 1098 510 C 1098 374 1053 251 963 143 C 873 34 750 -20 594 -20 C 534 -20 482 -11 438 6 C 394 24 355 43 322 63 C 314 67 307 70 299 72 C 291 74 285 72 281 66 L 221 -12 C 218 -16 214 -18 208 -20 C 202 -22 197 -23 193 -23 C 185 -23 179 -20 173 -16 C 167 -12 164 -6 164 2 L 164 1294 C 164 1322 160 1342 153 1354 C 145 1366 128 1378 102 1391 C 84 1399 71 1406 63 1411 C 55 1415 51 1422 51 1432 L 51 1477 L 346 1495 L 346 895 C 370 916 406 940 452 968 C 498 996 557 1010 631 1010 C 757 1010 867 966 959 878 C 1051 790 1098 667 1098 510 Z M 899 508 C 899 643 871 741 817 803 C 762 864 692 895 608 895 C 546 895 495 884 456 862 C 416 840 380 812 346 776 L 346 186 C 366 165 396 143 435 119 C 474 95 522 84 580 84 C 690 84 771 123 822 201 C 873 279 899 381 899 508 Z" unicode="b" />
<glyph horiz-adv-x="924" d="M 854 254 L 913 193 C 885 143 840 95 776 49 C 712 3 630 -20 528 -20 C 406 -20 298 24 205 114 C 112 204 66 328 66 487 C 66 625 110 747 200 853 C 289 959 404 1012 545 1012 C 657 1012 739 989 791 943 C 843 897 870 851 870 805 C 870 757 859 723 837 705 C 815 687 791 678 766 678 C 734 678 707 685 685 701 C 663 717 653 740 653 772 C 653 784 655 801 660 822 C 665 842 671 863 678 885 C 664 893 644 902 617 910 C 590 918 558 922 520 922 C 431 922 365 882 323 802 C 281 722 260 628 260 522 C 260 420 283 323 330 233 C 376 143 453 98 559 98 C 630 98 687 113 731 144 C 775 175 816 212 854 254 Z" unicode="c" />
<glyph horiz-adv-x="1180" d="M 1106 61 L 1106 16 L 819 -2 L 819 111 C 788 78 749 48 701 22 C 653 -4 596 -18 530 -18 C 392 -18 280 31 194 130 C 108 229 66 351 66 496 C 66 656 113 781 207 873 C 301 964 409 1010 530 1010 C 601 1010 659 997 703 972 C 747 947 784 922 813 897 L 813 1296 C 813 1322 808 1341 800 1353 C 792 1365 775 1378 750 1391 C 731 1401 716 1408 705 1412 C 693 1416 688 1422 688 1432 L 688 1477 L 995 1495 L 995 178 C 995 150 998 132 1004 124 C 1010 115 1027 105 1055 94 C 1074 86 1087 80 1095 78 C 1102 75 1106 69 1106 61 Z M 813 203 L 813 780 C 783 814 748 842 708 865 C 667 887 618 899 561 899 C 449 899 371 858 327 776 C 283 694 262 602 262 500 C 262 357 292 254 352 190 C 412 126 482 94 561 94 C 605 94 650 104 694 125 C 738 146 778 172 813 203 Z" unicode="d" />
<glyph horiz-adv-x="1012" d="M 958 537 L 252 537 C 252 411 276 306 326 222 C 375 138 453 96 559 96 C 628 96 691 113 748 148 C 804 182 853 224 893 272 L 956 217 C 934 172 886 121 812 65 C 737 8 647 -20 543 -20 C 387 -20 269 31 188 134 C 106 236 66 353 66 485 C 66 617 107 739 190 852 C 272 965 389 1022 539 1022 C 675 1022 778 976 850 885 C 922 794 958 678 958 537 Z M 258 635 L 770 635 C 763 727 740 799 702 851 C 663 903 604 930 526 930 C 460 930 402 902 352 846 C 302 790 270 720 258 635 Z" unicode="e" />
<glyph horiz-adv-x="657" d="M 754 1378 C 754 1345 745 1318 727 1297 C 709 1276 683 1266 649 1266 C 627 1266 604 1274 578 1292 C 552 1310 539 1349 537 1411 C 470 1391 427 1346 408 1274 C 388 1202 379 1134 379 1069 L 379 981 L 649 981 L 649 889 L 383 889 L 383 162 C 383 133 386 115 392 109 C 398 102 414 92 442 80 C 458 73 471 67 481 63 C 491 59 496 53 496 45 L 496 0 L 92 0 L 92 45 C 92 53 95 59 102 62 C 109 64 123 70 145 80 C 171 92 186 101 191 108 C 196 115 199 133 199 162 L 199 889 L 88 889 L 88 922 C 88 934 94 942 106 948 C 118 953 136 961 162 973 C 180 981 192 991 196 1005 C 200 1018 204 1035 207 1057 C 219 1152 255 1249 317 1348 C 378 1447 471 1497 596 1497 C 656 1497 697 1483 720 1457 C 742 1431 754 1404 754 1378 Z" unicode="f" />
<glyph horiz-adv-x="1057" d="M 1065 944 C 1065 922 1057 905 1041 892 C 1025 878 1010 872 995 872 C 979 872 966 874 956 879 C 946 884 938 889 932 893 C 926 897 918 901 909 906 C 900 910 891 913 881 913 C 869 913 858 910 848 905 C 837 899 827 891 819 879 C 849 838 868 801 878 767 C 888 733 893 701 893 670 C 893 578 857 496 786 424 C 715 352 616 317 489 317 C 466 317 439 320 409 326 C 379 332 354 339 336 346 L 225 158 C 259 162 299 165 347 169 C 394 172 444 174 496 174 C 654 174 770 152 845 109 C 920 66 958 0 958 -88 C 958 -185 909 -262 813 -320 C 716 -377 601 -406 467 -406 C 341 -406 248 -390 188 -359 C 128 -327 98 -286 98 -236 C 98 -208 108 -183 128 -161 C 148 -139 175 -129 209 -129 C 247 -129 274 -143 290 -172 C 306 -200 315 -237 315 -281 C 326 -285 346 -292 374 -301 C 402 -310 433 -315 467 -315 C 557 -315 634 -298 697 -265 C 759 -231 791 -184 791 -123 C 791 -69 760 -32 698 -12 C 636 8 552 18 446 18 C 355 18 272 14 196 6 C 120 -2 76 -6 66 -6 C 59 -6 53 -5 47 -3 C 41 -1 39 2 39 8 C 39 14 40 20 42 26 C 44 32 49 39 55 47 L 260 379 C 198 417 154 460 128 510 C 101 559 88 612 88 670 C 88 772 127 857 206 923 C 285 989 382 1022 498 1022 C 556 1022 609 1013 655 996 C 701 978 744 953 782 920 C 804 952 832 978 865 997 C 898 1016 933 1026 969 1026 C 996 1026 1019 1019 1037 1005 C 1055 991 1065 971 1065 944 Z M 715 674 C 715 740 697 799 662 851 C 626 903 570 930 492 930 C 413 930 356 903 322 850 C 287 796 270 738 270 674 C 270 593 290 528 331 480 C 372 432 429 408 502 408 C 568 408 620 435 658 490 C 696 544 715 606 715 674 Z" unicode="g" />
<glyph horiz-adv-x="1210" d="M 1141 45 L 1141 0 L 743 0 L 743 45 C 743 53 746 59 754 62 C 762 64 775 70 795 80 C 821 92 837 102 842 109 C 847 115 850 133 850 162 L 850 682 C 850 754 828 807 785 841 C 741 875 690 893 631 893 C 581 893 533 882 487 860 C 441 838 401 806 369 766 L 369 162 C 369 133 371 115 376 109 C 381 102 397 92 424 80 C 442 70 455 64 462 61 C 469 58 473 53 473 45 L 473 0 L 78 0 L 78 45 C 78 53 81 59 89 62 C 96 64 110 70 131 80 C 156 92 171 101 176 108 C 181 115 184 133 184 162 L 184 1296 C 184 1322 181 1341 175 1354 C 169 1367 153 1379 129 1391 C 107 1401 92 1408 84 1412 C 76 1416 72 1422 72 1432 L 72 1477 L 369 1495 L 369 872 C 404 908 448 940 501 968 C 554 996 618 1010 692 1010 C 800 1010 884 979 944 918 C 1004 857 1034 776 1034 674 L 1034 162 C 1034 133 1036 115 1042 109 C 1047 102 1064 92 1092 80 C 1110 70 1123 64 1130 61 C 1137 58 1141 53 1141 45 Z" unicode="h" />
<glyph horiz-adv-x="575" d="M 492 45 L 492 0 L 96 0 L 96 45 C 96 53 99 59 107 62 C 115 64 129 70 150 80 C 175 92 190 101 195 108 C 200 115 203 133 203 162 L 203 807 C 203 835 199 856 193 870 C 187 883 171 894 145 903 C 123 910 109 916 101 920 C 93 924 90 930 90 938 L 90 983 L 387 1004 L 387 162 C 387 133 389 115 394 109 C 399 102 415 92 442 80 C 460 70 473 64 481 61 C 488 58 492 53 492 45 Z M 416 1364 C 416 1329 403 1299 378 1273 C 353 1247 323 1235 287 1235 C 251 1235 220 1247 195 1273 C 170 1299 158 1329 158 1364 C 158 1400 170 1430 195 1456 C 220 1482 251 1495 287 1495 C 323 1495 353 1482 378 1456 C 403 1430 416 1400 416 1364 Z" unicode="i" />
<glyph horiz-adv-x="549" d="M 391 1004 L 391 156 C 391 -12 360 -147 298 -249 C 236 -351 141 -403 14 -403 C -40 -403 -81 -390 -109 -366 C -136 -342 -150 -316 -150 -289 C -150 -258 -140 -232 -122 -211 C -104 -190 -77 -180 -43 -180 C -21 -180 1 -189 27 -208 C 52 -226 66 -266 70 -328 C 98 -319 128 -301 160 -274 C 192 -246 207 -172 207 -51 L 207 811 C 207 838 203 858 195 871 C 187 883 169 894 143 903 C 122 910 107 916 99 920 C 90 924 86 930 86 938 L 86 983 L 391 1004 Z M 410 1364 C 410 1329 397 1299 372 1273 C 347 1247 317 1235 281 1235 C 245 1235 214 1247 189 1273 C 164 1299 152 1329 152 1364 C 152 1400 164 1430 189 1456 C 214 1482 245 1495 281 1495 C 317 1495 347 1482 372 1456 C 397 1430 410 1400 410 1364 Z" unicode="j" />
<glyph horiz-adv-x="1106" d="M 1104 45 L 1104 0 L 678 0 L 678 43 C 678 49 682 54 690 58 C 698 61 712 66 731 74 C 745 78 754 84 758 90 C 762 96 764 103 764 111 C 764 117 759 129 750 145 C 740 161 733 173 727 182 L 500 498 L 367 379 L 367 162 C 367 133 369 115 374 109 C 379 102 394 92 420 80 C 439 70 452 64 460 61 C 467 58 471 53 471 45 L 471 0 L 78 0 L 78 45 C 78 53 81 59 89 62 C 96 64 110 70 131 80 C 156 92 171 101 176 108 C 181 115 184 133 184 162 L 184 1298 C 184 1324 181 1344 175 1357 C 169 1369 153 1381 129 1393 C 107 1403 92 1410 84 1414 C 76 1418 72 1424 72 1434 L 72 1477 L 369 1495 L 369 489 L 676 774 C 691 787 705 802 719 820 C 732 838 739 850 739 856 C 739 864 733 873 722 882 C 711 890 695 898 674 905 C 652 912 639 918 633 922 C 627 926 625 932 625 938 L 625 981 L 1065 981 L 1065 938 C 1065 929 1059 921 1047 915 C 1035 909 1022 903 1008 899 C 954 878 899 844 844 797 C 788 750 717 689 631 614 L 926 205 C 955 164 978 135 995 119 C 1012 103 1030 92 1049 86 C 1069 78 1084 70 1092 64 C 1100 58 1104 51 1104 45 Z" unicode="k" />
<glyph horiz-adv-x="559" d="M 477 45 L 477 0 L 82 0 L 82 45 C 82 53 85 59 93 62 C 100 64 114 70 135 80 C 160 92 175 101 180 108 C 185 115 188 133 188 162 L 188 1303 C 188 1324 185 1341 179 1354 C 173 1367 157 1379 133 1391 C 111 1401 97 1408 89 1412 C 81 1416 78 1422 78 1432 L 78 1477 L 373 1495 L 373 162 C 373 133 375 115 380 109 C 385 102 401 92 428 80 C 447 70 460 64 467 61 C 473 58 477 53 477 45 Z" unicode="l" />
<glyph horiz-adv-x="1833" d="M 1765 45 L 1765 0 L 1368 0 L 1368 45 C 1368 53 1371 59 1378 62 C 1384 64 1397 70 1417 80 C 1443 92 1459 102 1465 109 C 1470 115 1473 133 1473 162 L 1473 682 C 1473 748 1454 799 1418 837 C 1382 874 1329 893 1260 893 C 1219 893 1174 883 1126 864 C 1077 844 1041 816 1018 780 L 1018 162 C 1018 133 1020 115 1026 109 C 1031 102 1048 92 1077 80 C 1095 70 1108 64 1114 61 C 1120 58 1124 53 1124 45 L 1124 0 L 729 0 L 729 45 C 729 53 732 59 740 62 C 747 64 760 70 780 80 C 806 92 823 102 829 109 C 835 115 838 133 838 162 L 838 682 C 838 748 819 799 782 837 C 744 874 692 893 625 893 C 583 893 538 882 490 861 C 442 839 406 810 383 774 L 383 162 C 383 133 385 115 390 109 C 395 102 411 92 438 80 C 456 70 469 64 476 61 C 483 58 487 53 487 45 L 487 0 L 92 0 L 92 45 C 92 53 95 59 102 62 C 109 64 123 70 145 80 C 171 92 186 101 191 108 C 196 115 199 133 199 162 L 199 807 C 199 835 195 856 189 870 C 182 883 165 894 139 903 C 118 910 104 916 97 920 C 89 924 86 930 86 938 L 86 983 L 379 1004 L 379 866 C 410 900 449 932 495 963 C 541 994 604 1010 684 1010 C 753 1010 812 996 861 969 C 910 942 948 904 975 856 C 1025 902 1076 940 1127 968 C 1178 996 1238 1010 1307 1010 C 1415 1010 1501 979 1564 918 C 1627 857 1659 776 1659 674 L 1659 162 C 1659 133 1661 115 1666 108 C 1671 101 1686 92 1712 80 C 1732 70 1746 64 1754 61 C 1761 58 1765 53 1765 45 Z" unicode="m" />
<glyph horiz-adv-x="1223" d="M 1157 45 L 1157 0 L 758 0 L 758 45 C 758 53 761 59 769 62 C 776 64 789 70 809 80 C 836 92 852 102 857 109 C 861 115 864 133 864 162 L 864 682 C 864 754 842 807 800 841 C 758 875 706 893 645 893 C 595 893 545 881 496 858 C 446 834 408 804 381 766 L 383 162 C 383 133 385 115 390 109 C 395 102 411 92 438 80 C 456 70 469 64 476 61 C 483 58 487 53 487 45 L 487 0 L 92 0 L 92 45 C 92 53 95 59 102 62 C 109 64 123 70 145 80 C 171 92 186 101 191 108 C 196 115 199 133 199 162 L 199 807 C 199 835 195 856 189 870 C 182 883 165 894 139 903 C 118 910 104 916 97 920 C 89 924 86 930 86 938 L 86 983 L 369 1004 L 369 866 C 404 902 450 935 508 965 C 566 995 632 1010 707 1010 C 815 1010 899 979 960 918 C 1020 857 1051 776 1051 674 L 1051 162 C 1051 133 1053 115 1058 109 C 1063 102 1079 92 1106 80 C 1125 70 1138 64 1146 61 C 1153 58 1157 53 1157 45 Z" unicode="n" />
<glyph horiz-adv-x="1102" d="M 1036 500 C 1036 350 990 225 900 127 C 809 29 693 -20 551 -20 C 408 -20 291 28 201 126 C 111 223 66 348 66 500 C 66 650 111 774 201 873 C 291 972 408 1022 551 1022 C 693 1022 809 972 900 873 C 990 774 1036 650 1036 500 Z M 838 500 C 838 633 813 737 764 813 C 714 888 643 926 551 926 C 458 926 387 888 338 813 C 288 737 264 633 264 500 C 264 366 288 261 338 186 C 387 111 458 74 551 74 C 643 74 714 111 764 186 C 813 261 838 366 838 500 Z" unicode="o" />
<glyph horiz-adv-x="1171" d="M 1106 510 C 1106 374 1063 251 978 143 C 892 34 781 -20 643 -20 C 579 -20 525 -8 481 14 C 436 36 400 58 373 80 L 373 -229 C 373 -257 376 -274 382 -280 C 388 -286 405 -297 432 -311 C 451 -320 465 -326 473 -329 C 481 -332 485 -338 485 -346 L 485 -391 L 82 -391 L 82 -346 C 82 -337 85 -332 93 -330 C 100 -328 114 -321 135 -311 C 160 -298 175 -288 180 -281 C 185 -274 188 -257 188 -229 L 188 807 C 188 835 184 856 178 870 C 172 883 156 894 131 903 C 109 910 95 916 88 920 C 81 924 78 930 78 938 L 78 983 L 358 1004 L 358 872 C 384 902 423 932 476 963 C 528 994 589 1010 657 1010 C 778 1010 883 964 972 874 C 1061 783 1106 662 1106 510 Z M 909 524 C 909 643 881 735 826 799 C 771 863 706 895 631 895 C 573 895 521 881 475 853 C 428 825 394 796 373 768 L 373 197 C 401 169 436 144 478 122 C 519 100 567 90 623 90 C 703 90 770 123 826 191 C 881 258 909 369 909 524 Z" unicode="p" />
<glyph horiz-adv-x="1141" d="M 1087 -344 L 1087 -389 L 684 -389 L 684 -344 C 684 -335 687 -329 695 -327 C 703 -324 716 -318 735 -309 C 763 -295 780 -284 787 -278 C 793 -272 797 -255 797 -227 L 797 104 C 768 81 733 57 691 32 C 649 6 596 -6 530 -6 C 390 -6 278 43 193 142 C 108 241 66 361 66 502 C 66 656 117 781 220 877 C 322 973 437 1022 565 1022 C 618 1022 665 1014 705 998 C 745 982 784 963 823 940 C 830 935 838 932 847 931 C 856 929 863 931 868 936 L 928 1012 C 930 1016 934 1019 939 1021 C 944 1023 949 1024 954 1024 C 961 1024 967 1021 972 1017 C 976 1012 979 1005 979 997 L 979 -227 C 979 -255 981 -272 986 -278 C 990 -284 1006 -295 1034 -309 C 1053 -318 1067 -324 1075 -327 C 1083 -330 1087 -336 1087 -344 Z M 795 199 L 795 836 C 775 854 747 873 709 892 C 671 910 628 920 582 920 C 500 920 427 888 361 826 C 295 763 262 658 262 512 C 262 361 293 255 355 194 C 417 132 485 102 557 102 C 603 102 646 111 687 129 C 728 147 764 170 795 199 Z" unicode="q" />
<glyph horiz-adv-x="799" d="M 805 893 C 805 863 796 835 779 808 C 762 781 734 768 696 768 C 660 768 633 779 615 801 C 597 823 586 849 582 877 C 539 860 494 824 448 768 C 402 712 379 644 379 565 L 379 162 C 379 133 382 115 390 109 C 397 102 414 92 442 80 C 458 73 471 67 481 63 C 491 59 496 53 496 45 L 496 0 L 92 0 L 92 45 C 92 53 95 59 102 62 C 109 64 123 70 145 80 C 171 92 186 101 191 108 C 196 115 199 133 199 162 L 199 807 C 199 835 195 856 189 870 C 182 883 165 894 139 903 C 118 910 104 916 97 920 C 89 924 86 930 86 938 L 86 983 L 362 1004 L 362 780 C 417 860 472 919 526 955 C 580 991 630 1010 676 1010 C 718 1010 750 998 772 975 C 794 951 805 924 805 893 Z" unicode="r" />
<glyph horiz-adv-x="903" d="M 844 276 C 844 215 811 150 745 82 C 679 14 582 -20 455 -20 C 340 -20 247 2 177 47 C 107 92 72 139 72 188 C 72 220 80 249 97 274 C 114 298 142 311 180 311 C 218 311 245 299 261 275 C 277 251 285 229 285 209 C 285 194 282 180 276 166 C 270 152 264 140 260 129 C 285 108 319 92 363 82 C 406 71 445 66 479 66 C 530 66 577 80 620 110 C 662 140 684 182 684 238 C 684 290 658 330 608 360 C 557 389 510 410 467 424 C 335 464 244 507 195 553 C 145 599 121 659 121 733 C 121 805 156 871 226 929 C 296 987 376 1016 465 1016 C 575 1016 655 997 706 960 C 756 923 782 888 782 854 C 782 816 772 786 752 766 C 732 745 708 735 680 735 C 649 735 625 745 607 765 C 589 785 580 809 580 838 C 580 844 581 854 583 868 C 585 881 587 894 590 907 C 567 914 545 920 525 924 C 505 928 479 930 449 930 C 405 930 365 916 329 888 C 293 860 276 824 276 778 C 276 727 301 688 353 662 C 405 636 478 605 573 571 C 677 533 748 491 786 445 C 824 399 844 342 844 276 Z" unicode="s" />
<glyph horiz-adv-x="653" d="M 600 131 L 639 61 C 624 47 595 30 552 10 C 508 -10 459 -20 403 -20 C 314 -20 253 2 221 46 C 188 90 172 145 172 211 L 172 889 L 59 889 L 59 930 C 59 938 64 945 74 950 C 84 955 104 964 133 977 C 151 985 164 993 172 1001 C 180 1009 184 1024 184 1044 L 184 1253 C 184 1260 186 1267 192 1274 C 198 1281 204 1285 211 1286 L 356 1309 L 356 981 L 604 981 L 604 889 L 356 889 L 356 207 C 356 173 365 145 385 124 C 404 102 432 92 469 92 C 484 92 504 95 530 103 C 555 111 578 120 600 131 Z" unicode="t" />
<glyph horiz-adv-x="1206" d="M 1133 61 L 1133 16 L 862 -2 L 862 127 C 825 89 779 55 723 25 C 667 -5 598 -20 516 -20 C 409 -20 326 14 266 83 C 206 152 176 237 176 338 L 176 813 C 176 840 172 860 165 872 C 157 884 140 894 113 903 C 93 910 80 916 73 920 C 66 924 63 930 63 938 L 63 983 L 360 1004 L 360 305 C 360 233 382 181 427 147 C 471 113 524 96 584 96 C 634 96 682 108 729 132 C 776 156 814 187 842 225 L 842 813 C 842 840 838 860 830 872 C 822 884 804 894 778 903 C 758 910 745 916 737 920 C 729 924 725 930 725 938 L 725 983 L 1022 1004 L 1022 178 C 1022 150 1025 133 1032 125 C 1038 117 1055 106 1083 94 C 1101 86 1114 80 1122 78 C 1129 75 1133 69 1133 61 Z" unicode="u" />
<glyph horiz-adv-x="1049" d="M 1057 981 L 1057 936 C 1057 928 1052 921 1043 917 C 1034 912 1024 907 1012 901 C 983 886 962 868 948 846 C 934 824 919 797 905 764 L 575 -2 C 572 -8 568 -11 564 -13 C 560 -15 555 -16 551 -16 L 516 -16 C 510 -16 504 -15 500 -13 C 496 -11 492 -8 489 -2 L 117 838 C 113 848 107 858 100 869 C 93 879 78 890 55 901 C 36 910 23 916 15 919 C 7 922 4 928 4 936 L 4 981 L 426 981 L 426 936 C 426 928 422 922 414 919 C 406 915 393 910 375 903 C 350 895 335 886 331 876 C 326 866 324 856 324 846 C 324 841 326 832 330 819 C 334 805 339 793 344 782 L 569 225 L 795 780 C 797 787 800 797 803 809 C 805 821 807 831 807 840 C 807 850 801 861 791 871 C 780 881 762 891 737 901 C 723 907 712 913 704 919 C 696 925 692 931 692 938 L 692 981 L 1057 981 Z" unicode="v" />
<glyph horiz-adv-x="1587" d="M 1587 981 L 1587 936 C 1587 928 1582 921 1573 917 C 1563 912 1552 907 1540 901 C 1510 887 1488 870 1474 848 C 1459 826 1446 801 1436 772 L 1147 0 C 1145 -6 1142 -9 1138 -11 C 1134 -13 1130 -14 1126 -14 L 1085 -14 C 1080 -14 1074 -13 1068 -11 C 1062 -9 1057 -6 1055 0 L 797 707 L 545 0 C 543 -6 540 -9 536 -11 C 532 -13 528 -14 524 -14 L 479 -14 C 473 -14 467 -13 462 -11 C 456 -9 453 -6 451 0 L 127 838 C 122 852 115 864 106 872 C 96 880 80 890 57 901 C 38 910 25 916 17 919 C 9 922 6 928 6 936 L 6 981 L 424 981 L 424 936 C 424 928 420 922 413 919 C 406 915 393 910 375 903 C 350 895 335 886 330 876 C 324 866 322 856 322 848 C 322 844 323 835 326 822 C 328 808 331 797 334 788 L 530 236 L 793 981 L 883 981 L 1141 233 L 1323 778 C 1325 788 1328 800 1332 813 C 1335 826 1337 836 1337 844 C 1337 854 1332 863 1322 872 C 1312 881 1295 891 1270 901 C 1254 907 1242 913 1234 919 C 1225 925 1221 931 1221 938 L 1221 981 L 1587 981 Z" unicode="w" />
<glyph horiz-adv-x="1085" d="M 1075 39 L 1075 0 L 684 0 L 684 39 C 684 45 687 51 694 57 C 701 63 710 69 721 76 C 725 78 731 81 738 87 C 744 93 748 97 748 100 C 748 106 745 114 740 123 C 734 132 729 140 723 147 L 514 414 L 319 164 C 313 157 307 149 301 139 C 295 129 293 121 293 117 C 293 108 297 101 306 97 C 314 93 325 88 338 82 C 362 70 378 63 384 61 C 390 58 393 53 393 45 L 393 0 L 8 0 L 8 45 C 8 53 11 59 19 65 C 27 70 43 77 68 86 C 116 103 147 119 162 135 C 177 150 196 173 219 203 L 449 489 L 164 836 C 147 856 133 870 122 877 C 110 883 94 892 74 903 C 60 911 50 918 43 924 C 36 929 33 936 33 944 L 33 981 L 426 981 L 426 944 C 426 937 421 930 412 924 C 402 918 393 911 383 905 C 378 903 373 900 367 896 C 361 892 358 889 358 885 C 358 878 360 871 365 863 C 370 855 377 846 385 836 L 565 608 L 727 817 C 735 827 740 837 743 846 C 746 854 748 862 748 868 C 748 873 744 878 737 884 C 729 889 721 894 711 899 C 687 910 672 917 666 919 C 660 921 657 927 657 936 L 657 981 L 1036 981 L 1036 936 C 1036 928 1032 921 1024 916 C 1016 911 999 905 975 897 C 933 882 903 866 885 848 C 867 830 847 806 825 778 L 631 532 L 946 147 C 963 126 976 112 985 105 C 994 97 1009 88 1030 78 C 1045 69 1056 62 1064 58 C 1071 53 1075 47 1075 39 Z" unicode="x" />
<glyph horiz-adv-x="1047" d="M 1057 981 L 1057 936 C 1057 928 1052 921 1043 917 C 1034 912 1024 907 1012 901 C 983 886 962 868 949 846 C 935 824 921 797 907 764 L 575 -10 C 507 -171 442 -277 382 -329 C 321 -380 260 -406 199 -406 C 160 -406 126 -394 96 -372 C 66 -350 51 -321 51 -285 C 51 -254 61 -226 81 -202 C 101 -178 127 -166 160 -166 C 195 -166 222 -177 241 -201 C 259 -224 270 -251 272 -281 C 310 -267 348 -229 386 -165 C 424 -101 454 -40 477 18 L 117 838 C 111 848 105 859 99 869 C 93 879 78 890 55 901 C 36 910 23 916 15 919 C 7 922 4 928 4 936 L 4 981 L 424 981 L 426 936 C 426 928 422 922 414 919 C 406 915 393 910 375 903 C 350 895 336 885 332 875 C 328 864 326 854 326 846 C 326 841 327 832 330 819 C 332 806 336 795 340 786 L 569 219 L 788 760 C 792 768 797 781 801 799 C 805 816 807 830 807 842 C 807 852 801 862 791 872 C 780 881 762 891 737 901 C 723 907 712 913 704 919 C 696 925 692 931 692 938 L 692 981 L 1057 981 Z" unicode="y" />
<glyph horiz-adv-x="930" d="M 879 291 L 879 -10 C 864 -8 840 -5 806 -3 C 772 -1 744 0 723 0 L 43 0 L 43 31 C 43 43 45 54 50 66 C 54 77 61 88 70 98 L 668 893 L 354 893 C 308 893 273 882 251 860 C 229 838 209 799 193 741 C 190 734 185 728 178 724 C 170 719 162 717 154 717 L 98 717 L 98 991 C 110 990 134 988 168 985 C 202 982 231 981 254 981 L 856 981 L 856 915 C 856 904 854 892 851 880 C 848 868 842 856 834 844 L 264 88 L 631 88 C 671 88 701 102 721 131 C 741 159 759 200 776 252 C 780 268 786 279 794 284 C 801 288 810 291 821 291 L 879 291 Z" unicode="z" />
<glyph horiz-adv-x="791" d="M 719 -344 L 719 -403 C 585 -403 475 -363 390 -283 C 304 -203 262 -106 262 10 C 262 52 264 95 270 137 C 276 179 279 219 279 258 C 279 329 263 387 231 433 C 199 478 148 508 76 522 L 76 578 C 148 592 199 621 231 666 C 263 710 279 768 279 840 C 279 878 276 918 270 960 C 264 1002 262 1044 262 1087 C 262 1203 304 1301 390 1381 C 475 1461 585 1501 719 1501 L 719 1442 C 613 1414 540 1375 501 1325 C 461 1275 442 1209 442 1126 C 442 1078 443 1035 447 998 C 451 961 453 925 453 891 C 453 806 426 734 374 676 C 321 618 263 576 199 551 C 263 525 321 483 374 423 C 426 363 453 291 453 207 C 453 172 451 136 447 99 C 443 61 442 19 442 -29 C 442 -112 461 -178 501 -228 C 540 -278 613 -316 719 -344 Z" unicode="{" />
<glyph horiz-adv-x="143" d="M 137 1495 L 137 -389 L 6 -389 L 6 1495 L 137 1495 Z" unicode="|" />
<glyph horiz-adv-x="791" d="M 715 578 L 715 522 C 642 508 590 478 559 433 C 527 387 512 329 512 258 C 512 219 514 179 520 137 C 525 95 528 52 528 10 C 528 -106 485 -203 400 -283 C 315 -363 206 -403 72 -403 L 72 -344 C 178 -316 250 -278 289 -228 C 328 -178 348 -112 348 -29 C 348 19 346 61 343 99 C 339 136 338 172 338 207 C 338 291 364 363 417 423 C 469 483 528 525 592 551 C 528 576 469 618 417 676 C 364 734 338 806 338 891 C 338 925 339 961 343 998 C 346 1035 348 1078 348 1126 C 348 1209 328 1275 289 1325 C 250 1375 178 1414 72 1442 L 72 1501 C 206 1501 315 1461 400 1381 C 485 1301 528 1203 528 1087 C 528 1044 525 1002 520 960 C 514 918 512 878 512 840 C 512 768 527 710 559 666 C 590 621 642 592 715 578 Z" unicode="}" />
<glyph horiz-adv-x="1548" d="M 1243 817 L 1333 817 C 1328 713 1294 620 1232 538 C 1169 456 1089 416 991 416 C 952 416 916 423 884 439 C 852 454 810 480 758 516 C 712 548 670 575 634 598 C 598 621 560 633 522 633 C 462 633 417 607 388 556 C 358 505 340 454 334 403 L 244 403 C 248 507 282 599 346 680 C 410 760 490 801 586 801 C 636 801 676 794 708 780 C 740 766 778 743 823 713 C 870 681 912 652 949 626 C 985 600 1021 588 1055 588 C 1116 588 1161 613 1190 664 C 1218 715 1236 766 1243 817 Z" unicode="~" />
<glyph horiz-adv-x="467" d="" unicode="" />
<glyph horiz-adv-x="610" d="M 428 -246 C 428 -286 418 -324 399 -358 C 380 -392 349 -410 307 -410 C 262 -410 230 -392 211 -358 C 191 -324 182 -286 182 -246 C 182 -182 188 -120 200 -60 C 212 0 225 81 238 184 C 248 277 255 367 258 454 C 260 541 263 618 266 684 C 266 688 269 693 276 699 C 283 704 293 707 305 707 C 316 707 325 704 333 699 C 340 693 344 688 344 684 C 346 616 349 539 352 453 C 354 367 361 277 373 184 C 385 81 397 0 409 -61 C 421 -122 428 -184 428 -246 Z M 434 989 C 434 955 421 925 397 899 C 373 873 343 860 307 860 C 270 860 239 873 214 899 C 188 925 176 955 176 989 C 176 1025 188 1055 214 1081 C 239 1107 270 1120 307 1120 C 343 1120 373 1107 397 1081 C 421 1055 434 1025 434 989 Z" unicode="" />
<glyph horiz-adv-x="975" d="M 840 508 L 895 449 C 873 409 838 367 788 325 C 738 282 673 256 594 248 L 594 -18 L 498 -18 L 498 248 C 394 256 304 299 230 377 C 156 455 119 559 119 690 C 119 803 154 904 224 992 C 294 1080 385 1131 498 1145 L 498 1366 L 594 1366 L 594 1145 C 679 1140 743 1118 786 1078 C 828 1038 850 998 850 958 C 850 914 838 884 816 869 C 793 853 769 846 745 846 C 716 846 691 853 669 868 C 647 882 637 906 637 938 C 637 949 639 964 643 982 C 647 1000 652 1016 657 1032 C 650 1036 635 1042 613 1048 C 590 1054 562 1057 530 1057 C 458 1057 404 1024 368 960 C 332 895 315 816 315 723 C 315 633 335 550 375 473 C 415 396 480 358 569 358 C 631 358 683 373 725 404 C 767 435 805 470 840 508 Z" unicode="" />
<glyph horiz-adv-x="1118" d="M 1075 252 L 1133 182 C 1099 132 1058 86 1012 44 C 966 2 905 -18 831 -18 C 761 -18 703 0 657 38 C 611 75 568 115 530 158 C 502 106 467 64 423 31 C 379 -1 327 -18 266 -18 C 217 -18 170 -1 126 32 C 81 66 59 114 59 178 C 59 251 83 306 131 343 C 179 380 231 399 287 399 C 318 399 348 394 377 385 C 406 376 434 365 461 352 C 456 414 442 469 420 518 C 397 566 379 604 365 631 C 361 637 358 643 354 649 C 350 655 346 661 344 668 L 106 668 L 106 762 L 301 762 C 286 795 274 832 264 873 C 254 914 250 958 250 1004 C 250 1107 291 1202 375 1290 C 458 1377 568 1421 705 1421 C 803 1421 884 1397 947 1350 C 1010 1302 1042 1246 1042 1180 C 1042 1132 1030 1097 1006 1077 C 982 1057 957 1047 930 1047 C 902 1047 876 1055 852 1071 C 828 1087 817 1115 817 1153 C 817 1174 821 1193 831 1211 C 841 1228 858 1246 883 1266 C 856 1289 830 1305 804 1313 C 778 1321 750 1325 719 1325 C 641 1325 578 1301 528 1254 C 478 1206 453 1137 453 1047 C 453 1003 461 956 478 907 C 494 858 512 810 530 762 L 897 762 L 897 668 L 565 668 C 576 637 585 606 593 576 C 600 545 604 515 604 485 C 604 453 602 420 598 385 C 594 350 588 316 580 283 C 624 253 670 225 717 201 C 764 176 815 164 870 164 C 902 164 938 171 977 186 C 1015 200 1048 222 1075 252 Z M 451 233 C 428 252 403 268 375 282 C 347 296 317 303 283 303 C 244 303 213 290 189 266 C 165 242 154 214 154 182 C 154 151 163 124 182 102 C 200 79 230 68 270 68 C 310 68 347 82 382 112 C 416 142 439 182 451 233 Z" unicode="" />
<glyph horiz-adv-x="1182" d="M 1075 305 L 1135 242 C 1095 160 1033 97 951 51 C 868 5 791 -18 719 -18 C 569 -18 452 31 369 131 C 286 230 235 362 217 526 L 74 526 L 74 618 L 211 618 C 211 630 210 644 210 660 C 209 676 209 687 209 694 C 209 714 209 727 210 733 C 211 738 212 753 213 778 L 74 778 L 74 870 L 223 870 C 253 1033 314 1166 406 1268 C 498 1370 622 1421 776 1421 C 884 1421 962 1398 1011 1354 C 1060 1309 1085 1263 1085 1217 C 1085 1180 1073 1150 1051 1128 C 1029 1105 1002 1094 971 1094 C 936 1094 909 1104 891 1125 C 873 1145 864 1171 864 1202 C 864 1214 865 1229 869 1247 C 872 1264 875 1280 879 1294 C 868 1300 852 1307 831 1314 C 810 1321 781 1325 743 1325 C 654 1325 580 1284 521 1204 C 462 1123 424 1012 408 870 L 858 870 L 858 778 L 401 778 C 400 758 399 744 399 735 C 399 726 399 715 399 702 C 399 688 399 675 400 664 C 400 652 401 637 401 618 L 795 618 L 795 526 L 408 526 C 416 412 445 312 496 228 C 547 144 629 102 741 102 C 809 102 870 117 923 147 C 975 177 1026 229 1075 305 Z" unicode="" />
<glyph horiz-adv-x="1280" d="M 1247 1401 L 1247 1354 C 1247 1344 1244 1337 1238 1332 C 1232 1327 1222 1321 1208 1313 C 1181 1297 1160 1284 1145 1274 C 1130 1263 1111 1238 1087 1200 L 848 809 L 1100 809 L 1100 717 L 788 717 L 741 639 L 741 575 L 1100 575 L 1100 483 L 743 483 L 743 164 C 743 145 747 131 755 122 C 763 112 778 103 801 94 C 822 85 836 79 843 76 C 850 72 854 65 854 55 L 854 0 L 438 0 L 438 55 C 438 65 441 72 448 76 C 455 80 469 86 489 94 C 515 105 531 114 539 120 C 547 126 551 141 551 164 L 551 483 L 182 483 L 182 575 L 553 575 L 553 635 L 502 717 L 182 717 L 182 809 L 440 809 L 178 1225 C 165 1245 152 1262 138 1274 C 124 1286 106 1297 84 1307 C 62 1315 48 1321 42 1325 C 36 1328 33 1334 33 1343 L 33 1401 L 463 1401 L 463 1362 C 463 1351 461 1343 457 1339 C 453 1335 441 1327 422 1317 C 406 1310 395 1303 387 1297 C 379 1291 375 1284 375 1276 C 375 1269 379 1258 388 1242 C 396 1226 403 1215 408 1208 L 692 750 L 965 1206 C 973 1221 980 1235 986 1249 C 992 1262 995 1272 995 1278 C 995 1286 990 1293 982 1300 C 974 1306 962 1312 948 1317 C 928 1325 915 1331 907 1337 C 899 1343 895 1351 895 1362 L 895 1401 L 1247 1401 Z" unicode="" />
<glyph horiz-adv-x="1153" d="M 1018 571 C 1018 515 1000 459 965 404 C 930 348 878 298 809 252 C 866 213 904 172 923 128 C 942 84 952 38 952 -12 C 952 -98 912 -174 834 -240 C 756 -305 663 -338 555 -338 C 439 -338 346 -311 276 -257 C 206 -203 172 -144 172 -80 C 172 -33 184 0 208 21 C 232 42 258 53 285 53 C 312 53 337 44 361 28 C 385 12 397 -14 397 -51 C 397 -72 392 -91 382 -108 C 372 -125 355 -143 332 -162 C 355 -182 384 -202 418 -220 C 452 -238 499 -248 559 -248 C 627 -248 681 -229 722 -191 C 763 -153 784 -114 784 -76 C 784 -28 770 13 744 48 C 717 83 633 135 492 203 C 371 261 282 318 224 376 C 166 434 137 504 137 588 C 137 642 154 697 189 752 C 224 806 276 857 346 903 C 290 945 251 987 231 1030 C 211 1072 201 1119 201 1169 C 201 1254 240 1330 318 1396 C 396 1462 490 1495 598 1495 C 715 1495 808 1468 876 1414 C 944 1360 979 1300 979 1235 C 979 1188 967 1154 943 1133 C 919 1112 894 1102 866 1102 C 839 1102 814 1110 790 1127 C 766 1143 754 1170 754 1206 C 754 1227 759 1246 769 1264 C 779 1282 796 1299 821 1317 C 796 1338 767 1358 734 1376 C 700 1394 654 1403 594 1403 C 526 1403 471 1383 430 1345 C 389 1307 369 1269 369 1233 C 369 1184 382 1142 409 1108 C 435 1073 520 1021 662 952 C 782 894 871 836 930 780 C 988 723 1018 653 1018 571 Z M 856 481 C 856 531 844 573 822 608 C 799 643 759 677 702 709 C 650 737 598 764 548 789 C 497 814 455 837 422 858 C 386 833 356 805 332 773 C 308 741 297 708 297 676 C 297 626 308 583 331 547 C 353 511 393 478 451 446 C 501 417 551 390 601 364 C 651 338 695 316 733 297 C 769 320 799 348 822 381 C 844 414 856 447 856 481 Z" unicode="" />
<glyph horiz-adv-x="819" d="M 307 1290 C 307 1259 295 1232 273 1210 C 250 1187 223 1176 193 1176 C 162 1176 135 1187 112 1210 C 89 1232 78 1259 78 1290 C 78 1320 89 1347 112 1370 C 135 1393 162 1405 193 1405 C 223 1405 250 1393 273 1370 C 295 1347 307 1320 307 1290 Z M 745 1290 C 745 1259 733 1232 711 1210 C 688 1187 661 1176 631 1176 C 600 1176 573 1187 550 1210 C 527 1232 516 1259 516 1290 C 516 1320 527 1347 550 1370 C 573 1393 600 1405 631 1405 C 661 1405 688 1393 711 1370 C 733 1347 745 1320 745 1290 Z" unicode="" />
<glyph horiz-adv-x="1671" d="M 1122 537 L 1174 487 C 1155 449 1118 408 1062 364 C 1006 319 935 297 850 297 C 718 297 618 339 549 425 C 480 510 446 609 446 721 C 446 863 489 971 575 1043 C 661 1115 750 1151 840 1151 C 876 1151 909 1146 940 1137 C 971 1127 1003 1113 1036 1094 C 1041 1092 1045 1090 1049 1088 C 1053 1086 1057 1086 1061 1090 C 1069 1096 1076 1100 1080 1102 C 1084 1104 1088 1106 1094 1106 L 1133 1106 L 1133 879 L 1081 879 C 1072 879 1066 881 1062 885 C 1058 889 1055 895 1053 901 C 1038 947 1014 987 980 1022 C 946 1057 906 1075 860 1075 C 806 1075 751 1048 696 994 C 641 940 614 851 614 727 C 614 616 637 531 684 473 C 731 414 788 385 856 385 C 927 385 985 404 1030 443 C 1075 481 1106 513 1122 537 Z M 1595 729 C 1595 521 1521 344 1374 198 C 1227 52 1048 -20 836 -20 C 624 -20 444 52 297 198 C 149 344 76 521 76 729 C 76 937 149 1114 297 1261 C 444 1407 624 1481 836 1481 C 1048 1481 1227 1407 1374 1261 C 1521 1114 1595 937 1595 729 Z M 1509 729 C 1509 913 1443 1072 1313 1205 C 1182 1338 1023 1405 836 1405 C 648 1405 489 1338 359 1205 C 229 1072 164 913 164 729 C 164 544 229 385 359 253 C 489 121 648 55 836 55 C 1023 55 1182 121 1313 253 C 1443 385 1509 544 1509 729 Z" unicode="" />
<glyph horiz-adv-x="928" d="M 813 799 L 850 764 C 832 737 811 716 786 702 C 760 687 736 680 713 680 C 684 680 657 687 631 703 C 605 719 586 743 573 776 C 541 742 507 717 471 700 C 435 682 396 674 356 674 C 292 674 234 691 183 727 C 131 763 106 816 106 887 C 106 960 142 1020 216 1068 C 289 1116 402 1140 555 1141 C 554 1210 542 1263 519 1299 C 496 1335 462 1354 418 1354 C 404 1354 391 1353 379 1351 C 366 1349 354 1348 344 1348 C 344 1311 338 1278 328 1249 C 317 1220 292 1206 252 1206 C 222 1206 200 1212 186 1226 C 171 1239 164 1259 164 1286 C 164 1318 186 1350 231 1380 C 275 1410 336 1425 414 1425 C 526 1425 603 1398 646 1344 C 689 1290 711 1222 711 1139 L 711 840 C 711 821 715 806 724 796 C 733 785 747 780 766 780 C 772 780 779 781 788 785 C 796 789 805 793 813 799 Z M 555 893 L 555 1071 C 454 1070 379 1054 331 1024 C 282 993 258 952 258 901 C 258 856 271 822 297 799 C 323 775 356 764 397 764 C 439 764 475 776 507 802 C 539 828 555 858 555 893 Z" unicode="" />
<glyph horiz-adv-x="991" d="M 274 520 L 518 143 L 414 143 L 123 455 C 114 463 107 473 101 484 C 95 495 92 507 92 520 C 92 533 95 545 101 556 C 107 566 114 576 123 586 L 414 897 L 518 897 L 274 520 Z M 664 520 L 909 143 L 805 143 L 514 455 C 506 463 498 473 492 484 C 486 495 483 507 483 520 C 483 533 486 545 492 556 C 498 566 506 576 514 586 L 805 897 L 909 897 L 664 520 Z" unicode="" />
<glyph horiz-adv-x="1548" d="M 1288 684 L 1288 92 L 1157 92 L 1157 557 L 240 557 L 240 684 L 1288 684 Z" unicode="" />
<glyph horiz-adv-x="649" d="M 549 600 L 549 440 L 100 440 L 100 600 L 549 600 Z" unicode="" />
<glyph horiz-adv-x="1036" d="M 633 973 L 729 764 L 618 764 L 528 958 L 449 958 L 449 764 L 342 764 L 342 1280 L 551 1280 C 595 1280 635 1266 673 1240 C 710 1213 729 1174 729 1122 C 729 1088 721 1058 705 1032 C 689 1005 665 985 633 973 Z M 993 1022 C 993 892 946 781 852 689 C 758 597 647 551 518 551 C 388 551 277 597 183 689 C 89 781 43 892 43 1022 C 43 1151 89 1262 183 1355 C 277 1448 388 1495 518 1495 C 647 1495 758 1448 852 1355 C 946 1262 993 1151 993 1022 Z M 922 1022 C 922 1132 882 1227 803 1307 C 723 1387 628 1427 518 1427 C 407 1427 312 1387 233 1307 C 154 1227 115 1132 115 1022 C 115 911 154 816 233 737 C 312 657 407 618 518 618 C 628 618 723 657 803 737 C 882 816 922 911 922 1022 Z M 614 1120 C 614 1141 607 1157 593 1167 C 579 1177 562 1182 543 1182 L 449 1182 L 449 1059 L 541 1059 C 555 1059 570 1063 588 1073 C 605 1083 614 1098 614 1120 Z" unicode="" />
<glyph horiz-adv-x="819" d="M 733 1370 L 733 1251 L 86 1251 L 86 1370 L 733 1370 Z" unicode="" />
<glyph horiz-adv-x="700" d="M 633 1214 C 633 1138 605 1072 549 1017 C 493 961 426 934 350 934 C 274 934 208 961 152 1017 C 96 1072 68 1138 68 1214 C 68 1290 96 1356 152 1412 C 208 1467 274 1495 350 1495 C 426 1495 493 1467 549 1412 C 605 1356 633 1290 633 1214 Z M 518 1214 C 518 1262 502 1304 471 1341 C 440 1378 400 1397 350 1397 C 299 1397 258 1378 227 1341 C 195 1304 180 1262 180 1214 C 180 1166 195 1123 227 1087 C 258 1050 299 1032 350 1032 C 400 1032 440 1050 471 1087 C 502 1123 518 1166 518 1214 Z" unicode="" />
<glyph horiz-adv-x="1548" d="M 1309 807 L 1309 680 L 840 680 L 840 250 L 709 250 L 709 680 L 240 680 L 240 807 L 709 807 L 709 1237 L 840 1237 L 840 807 L 1309 807 Z M 1309 127 L 1309 0 L 240 0 L 240 127 L 1309 127 Z" unicode="" />
<glyph horiz-adv-x="922" d="M 735 1284 C 735 1210 703 1146 641 1090 C 579 1034 523 986 475 946 C 429 909 393 879 367 856 C 341 832 317 808 295 782 L 567 782 C 587 782 603 785 615 793 C 627 800 636 815 643 838 C 645 850 650 857 658 861 C 665 864 673 866 682 866 L 733 866 L 727 649 L 152 649 L 152 748 C 177 784 214 828 264 881 C 313 933 360 982 406 1026 C 456 1076 496 1121 526 1162 C 556 1203 571 1246 571 1290 C 571 1330 557 1362 529 1384 C 501 1406 464 1417 420 1417 C 395 1417 372 1412 350 1402 C 328 1392 312 1379 303 1364 C 315 1353 325 1341 333 1329 C 340 1317 344 1303 344 1288 C 344 1264 336 1245 320 1230 C 304 1215 284 1208 260 1208 C 228 1208 205 1217 189 1235 C 173 1253 166 1276 166 1305 C 166 1351 193 1395 247 1438 C 301 1481 369 1503 451 1503 C 536 1503 605 1482 657 1442 C 709 1402 735 1349 735 1284 Z" unicode="" />
<glyph horiz-adv-x="905" d="M 743 901 C 743 819 708 755 639 708 C 570 660 492 637 406 637 C 328 637 264 653 212 686 C 160 718 135 758 135 805 C 135 828 143 849 159 868 C 175 887 198 897 227 897 C 257 897 279 888 293 872 C 307 856 315 840 315 825 C 315 811 312 798 307 786 C 301 774 295 764 287 754 C 297 744 311 737 331 731 C 350 725 371 723 395 723 C 456 723 502 741 533 777 C 564 813 580 854 580 899 C 580 958 560 1000 521 1025 C 482 1050 416 1063 324 1063 L 324 1147 C 410 1149 470 1164 502 1190 C 534 1216 551 1255 551 1309 C 551 1339 539 1365 515 1386 C 491 1406 458 1417 416 1417 C 392 1417 372 1414 356 1409 C 339 1403 325 1397 315 1391 C 322 1382 328 1373 333 1364 C 337 1355 340 1344 340 1331 C 340 1308 332 1290 316 1276 C 300 1262 279 1255 254 1255 C 231 1255 211 1262 195 1277 C 178 1292 170 1314 170 1343 C 170 1387 197 1424 253 1456 C 308 1487 368 1503 432 1503 C 513 1503 580 1484 633 1447 C 686 1409 713 1363 713 1309 C 713 1263 696 1223 663 1190 C 630 1157 589 1132 539 1116 C 595 1101 643 1076 683 1041 C 723 1005 743 959 743 901 Z" unicode="" />
<glyph horiz-adv-x="819" d="M 647 1407 C 647 1388 639 1369 625 1351 C 610 1333 588 1315 559 1298 L 240 1114 L 190 1149 L 444 1440 C 466 1465 487 1481 505 1488 C 523 1495 541 1499 559 1499 C 585 1499 607 1489 623 1471 C 639 1453 647 1431 647 1407 Z" unicode="" />
<glyph horiz-adv-x="1282" d="M 1120 -238 L 1120 -287 L 856 -287 L 856 1405 L 713 1405 L 713 -287 L 449 -287 L 449 -238 C 449 -227 452 -220 458 -216 C 464 -212 478 -205 500 -197 C 526 -185 544 -175 552 -165 C 560 -155 565 -141 565 -123 L 565 637 C 396 637 273 674 195 748 C 117 822 78 930 78 1071 C 78 1211 118 1316 199 1388 C 280 1459 401 1495 563 1495 L 1120 1495 L 1120 1446 C 1120 1435 1116 1428 1110 1424 C 1104 1420 1090 1413 1069 1405 C 1041 1393 1024 1384 1016 1378 C 1008 1371 1004 1355 1004 1331 L 1004 -123 C 1004 -141 1008 -155 1016 -165 C 1024 -175 1042 -185 1069 -197 C 1090 -205 1104 -212 1110 -216 C 1116 -220 1120 -227 1120 -238 Z M 565 721 L 565 1401 C 479 1401 414 1376 371 1326 C 328 1276 307 1195 307 1081 C 307 966 327 877 369 815 C 411 752 476 721 565 721 Z" unicode="" />
<glyph horiz-adv-x="479" d="M 371 645 C 371 608 358 577 332 551 C 306 525 275 512 238 512 C 201 512 170 525 146 551 C 121 577 109 608 109 645 C 109 681 121 711 146 737 C 170 763 201 776 238 776 C 275 776 306 763 332 737 C 358 711 371 681 371 645 Z" unicode="" />
<glyph horiz-adv-x="819" d="M 651 -250 C 651 -292 630 -330 589 -364 C 548 -398 483 -416 395 -416 C 343 -416 299 -405 264 -385 C 228 -364 197 -343 170 -322 L 209 -262 C 234 -281 262 -298 292 -312 C 322 -326 354 -334 387 -334 C 429 -334 458 -325 474 -308 C 490 -291 498 -273 498 -254 C 498 -232 489 -213 471 -197 C 453 -180 425 -172 387 -172 C 381 -172 374 -172 368 -172 C 361 -172 354 -173 346 -174 L 420 0 L 492 0 L 451 -94 C 513 -94 561 -107 597 -133 C 633 -159 651 -198 651 -250 Z" unicode="" />
<glyph horiz-adv-x="723" d="M 549 690 L 549 645 L 174 645 L 174 688 C 174 702 180 713 194 719 C 207 725 223 731 242 735 C 260 737 273 742 279 749 C 285 756 289 767 289 782 L 289 1346 L 152 1346 L 152 1415 L 367 1493 L 438 1493 L 438 782 C 438 769 441 759 448 751 C 454 743 467 737 485 735 C 503 732 519 727 531 720 C 543 713 549 703 549 690 Z" unicode="" />
<glyph horiz-adv-x="928" d="M 831 1049 C 831 942 796 852 728 780 C 659 708 571 672 463 672 C 356 672 268 707 200 778 C 132 849 98 939 98 1049 C 98 1155 132 1245 200 1317 C 268 1389 356 1425 463 1425 C 571 1425 659 1389 728 1317 C 796 1245 831 1155 831 1049 Z M 668 1049 C 668 1140 650 1211 616 1263 C 581 1315 530 1341 463 1341 C 397 1341 347 1315 313 1263 C 279 1211 262 1140 262 1049 C 262 957 279 885 313 833 C 347 781 397 756 463 756 C 530 756 581 781 616 833 C 650 885 668 957 668 1049 Z" unicode="" />
<glyph horiz-adv-x="991" d="M 508 520 C 508 507 505 495 499 484 C 493 473 485 463 477 455 L 186 143 L 82 143 L 328 520 L 82 897 L 186 897 L 477 586 C 485 576 493 566 499 556 C 505 545 508 533 508 520 Z M 899 520 C 899 507 896 495 890 484 C 884 473 876 463 868 455 L 578 143 L 473 143 L 717 520 L 473 897 L 578 897 L 868 586 C 876 576 884 566 890 556 C 896 545 899 533 899 520 Z" unicode="" />
<glyph horiz-adv-x="1483" d="M 498 690 L 498 645 L 123 645 L 123 688 C 123 702 129 713 143 719 C 156 725 172 731 190 735 C 208 737 221 742 228 749 C 234 756 238 767 238 782 L 238 1346 L 100 1346 L 100 1415 L 315 1493 L 387 1493 L 387 782 C 387 769 390 759 396 751 C 402 743 415 737 434 735 C 452 732 468 727 480 720 C 492 713 498 703 498 690 Z M 1082 1501 L 1200 1501 L 404 -20 L 285 -20 L 1082 1501 Z M 1445 311 L 1445 215 L 1313 215 L 1313 111 C 1313 101 1315 95 1320 92 C 1325 88 1333 84 1344 78 C 1358 73 1368 68 1372 62 C 1376 56 1379 51 1379 45 L 1379 0 L 1094 0 L 1094 45 C 1094 52 1096 58 1100 63 C 1104 68 1114 74 1131 80 C 1141 86 1150 89 1156 91 C 1162 93 1166 99 1166 111 L 1166 215 L 785 215 L 785 303 L 1207 854 L 1313 854 L 1313 311 L 1445 311 Z M 906 311 L 1166 311 L 1166 651 L 906 311 Z" unicode="" />
<glyph horiz-adv-x="1580" d="M 498 690 L 498 645 L 123 645 L 123 688 C 123 702 129 713 143 719 C 156 725 172 731 190 735 C 208 737 221 742 228 749 C 234 756 238 767 238 782 L 238 1346 L 100 1346 L 100 1415 L 315 1493 L 387 1493 L 387 782 C 387 769 390 759 396 751 C 402 743 415 737 434 735 C 452 732 468 727 480 720 C 492 713 498 703 498 690 Z M 1082 1501 L 1200 1501 L 404 -20 L 285 -20 L 1082 1501 Z M 1508 635 C 1508 561 1476 497 1414 441 C 1352 385 1296 337 1248 297 C 1202 260 1166 230 1140 206 C 1114 182 1090 158 1068 133 L 1340 133 C 1360 133 1376 136 1388 144 C 1399 151 1408 166 1416 189 C 1418 201 1423 208 1430 212 C 1437 215 1445 217 1455 217 L 1506 217 L 1500 0 L 924 0 L 924 98 C 949 134 986 179 1036 232 C 1086 284 1133 333 1178 377 C 1229 427 1269 472 1299 513 C 1329 554 1344 597 1344 641 C 1344 681 1330 713 1302 735 C 1274 757 1237 768 1192 768 C 1167 768 1144 763 1122 753 C 1100 743 1084 730 1076 715 C 1088 704 1097 692 1105 680 C 1113 668 1117 654 1117 639 C 1117 615 1109 596 1093 581 C 1077 566 1057 559 1033 559 C 1001 559 977 567 962 585 C 946 603 939 626 939 655 C 939 701 966 745 1020 789 C 1074 832 1141 854 1223 854 C 1308 854 1377 833 1429 793 C 1481 753 1508 700 1508 635 Z" unicode="" />
<glyph horiz-adv-x="1567" d="M 641 901 C 641 819 606 755 537 708 C 467 660 389 637 303 637 C 225 637 161 653 110 686 C 58 718 33 758 33 805 C 33 828 41 849 57 868 C 73 887 96 897 125 897 C 154 897 176 888 191 872 C 205 856 213 840 213 825 C 213 811 210 798 205 786 C 199 774 192 764 184 754 C 194 744 209 737 229 731 C 248 725 269 723 293 723 C 354 723 400 741 431 777 C 461 813 477 854 477 899 C 477 958 457 1000 419 1025 C 380 1050 314 1063 221 1063 L 221 1147 C 307 1149 367 1164 400 1190 C 432 1216 449 1255 449 1309 C 449 1339 436 1365 412 1386 C 388 1406 355 1417 313 1417 C 289 1417 269 1414 253 1409 C 236 1403 223 1397 213 1391 C 219 1382 225 1373 230 1364 C 235 1355 238 1344 238 1331 C 238 1308 230 1290 214 1276 C 198 1262 177 1255 152 1255 C 129 1255 109 1262 93 1277 C 76 1292 68 1314 68 1343 C 68 1387 95 1424 151 1456 C 206 1487 266 1503 330 1503 C 411 1503 478 1484 531 1447 C 583 1409 610 1363 610 1309 C 610 1263 593 1223 560 1190 C 527 1157 486 1132 436 1116 C 492 1101 540 1076 580 1041 C 620 1005 641 959 641 901 Z M 1166 1501 L 1284 1501 L 488 -20 L 369 -20 L 1166 1501 Z M 1529 311 L 1529 215 L 1397 215 L 1397 111 C 1397 101 1399 95 1404 92 C 1409 88 1417 84 1428 78 C 1442 73 1452 68 1456 62 C 1460 56 1463 51 1463 45 L 1463 0 L 1178 0 L 1178 45 C 1178 52 1180 58 1184 63 C 1188 68 1198 74 1215 80 C 1225 86 1234 89 1240 91 C 1246 93 1250 99 1250 111 L 1250 215 L 869 215 L 869 303 L 1291 854 L 1397 854 L 1397 311 L 1529 311 Z M 990 311 L 1250 311 L 1250 651 L 990 311 Z" unicode="" />
<glyph horiz-adv-x="899" d="M 799 -160 C 799 -218 769 -273 709 -327 C 649 -381 560 -408 442 -408 C 335 -408 249 -379 183 -322 C 117 -265 84 -192 84 -102 C 84 -38 99 17 131 65 C 162 112 203 165 254 223 C 331 312 381 391 403 459 C 425 527 437 602 440 686 C 440 690 444 696 453 703 C 462 709 473 713 485 713 C 498 713 509 709 518 703 C 527 696 532 690 532 686 C 534 624 528 555 513 479 C 497 402 468 323 426 242 C 384 162 351 100 328 56 C 304 11 293 -40 293 -98 C 293 -189 312 -250 351 -281 C 389 -312 432 -328 479 -328 C 504 -328 531 -321 559 -309 C 587 -296 608 -276 623 -250 C 600 -230 586 -212 580 -196 C 574 -180 571 -166 571 -156 C 571 -117 581 -87 603 -67 C 625 -47 650 -37 680 -37 C 716 -37 745 -49 767 -73 C 788 -97 799 -126 799 -160 Z M 614 989 C 614 955 601 925 577 899 C 553 873 523 860 487 860 C 451 860 420 873 394 899 C 368 925 356 955 356 989 C 356 1025 368 1055 394 1081 C 420 1107 451 1120 487 1120 C 523 1120 553 1107 577 1081 C 601 1055 614 1025 614 989 Z" unicode="" />
<glyph horiz-adv-x="1401" d="M 631 1903 L 913 1640 L 868 1602 L 530 1751 C 497 1765 472 1782 456 1802 C 440 1821 432 1840 432 1860 C 432 1883 439 1904 455 1923 C 471 1942 492 1952 520 1952 C 535 1952 552 1949 571 1943 C 589 1937 609 1923 631 1903 Z M 1399 51 L 1399 0 L 944 0 L 944 41 C 944 51 947 58 955 62 C 962 66 976 74 997 86 C 1013 94 1027 102 1037 111 C 1047 119 1053 129 1053 139 C 1053 146 1050 157 1044 173 C 1038 189 1032 205 1026 223 L 950 420 L 367 420 L 289 225 C 285 215 280 201 274 183 C 268 165 266 152 266 143 C 266 128 271 115 282 105 C 293 95 308 86 328 80 C 347 71 361 63 369 56 C 377 49 381 41 381 31 L 381 0 L 0 0 L 0 41 C 0 49 2 57 8 64 C 13 71 24 79 41 88 C 69 108 91 126 105 141 C 119 155 133 180 147 215 L 600 1284 L 559 1374 C 557 1378 555 1383 553 1388 C 551 1392 551 1396 551 1399 C 551 1401 552 1404 554 1407 C 556 1409 560 1412 565 1415 C 585 1427 607 1442 630 1458 C 653 1474 674 1491 694 1507 C 696 1509 698 1511 702 1514 C 705 1516 709 1518 713 1518 C 717 1518 721 1516 724 1514 C 726 1511 729 1507 731 1503 L 1260 184 C 1268 164 1278 146 1291 130 C 1304 114 1321 101 1343 92 C 1367 83 1382 77 1389 73 C 1395 69 1399 61 1399 51 Z M 408 522 L 909 522 L 662 1149 L 408 522 Z" unicode="" />
<glyph horiz-adv-x="1401" d="M 1399 51 L 1399 0 L 944 0 L 944 41 C 944 51 947 58 955 62 C 962 66 976 74 997 86 C 1013 94 1027 102 1037 111 C 1047 119 1053 129 1053 139 C 1053 146 1050 157 1044 173 C 1038 189 1032 205 1026 223 L 950 420 L 367 420 L 289 225 C 285 215 280 201 274 183 C 268 165 266 152 266 143 C 266 128 271 115 282 105 C 293 95 308 86 328 80 C 347 71 361 63 369 56 C 377 49 381 41 381 31 L 381 0 L 0 0 L 0 41 C 0 49 2 57 8 64 C 13 71 24 79 41 88 C 69 108 91 126 105 141 C 119 155 133 180 147 215 L 600 1284 L 559 1374 C 557 1378 555 1383 553 1388 C 551 1392 551 1396 551 1399 C 551 1401 552 1404 554 1407 C 556 1409 560 1412 565 1415 C 585 1427 607 1442 630 1458 C 653 1474 674 1491 694 1507 C 696 1509 698 1511 702 1514 C 705 1516 709 1518 713 1518 C 717 1518 721 1516 724 1514 C 726 1511 729 1507 731 1503 L 1260 184 C 1268 164 1278 146 1291 130 C 1304 114 1321 101 1343 92 C 1367 83 1382 77 1389 73 C 1395 69 1399 61 1399 51 Z M 408 522 L 909 522 L 662 1149 L 408 522 Z M 942 1860 C 942 1840 933 1821 917 1802 C 901 1782 876 1765 844 1751 L 506 1602 L 461 1640 L 743 1903 C 764 1923 784 1937 803 1943 C 821 1949 838 1952 854 1952 C 881 1952 902 1942 918 1923 C 934 1904 942 1883 942 1860 Z" unicode="" />
<glyph horiz-adv-x="1401" d="M 1399 51 L 1399 0 L 944 0 L 944 41 C 944 51 947 58 955 62 C 962 66 976 74 997 86 C 1013 94 1027 102 1037 111 C 1047 119 1053 129 1053 139 C 1053 146 1050 157 1044 173 C 1038 189 1032 205 1026 223 L 950 420 L 367 420 L 289 225 C 285 215 280 201 274 183 C 268 165 266 152 266 143 C 266 128 271 115 282 105 C 293 95 308 86 328 80 C 347 71 361 63 369 56 C 377 49 381 41 381 31 L 381 0 L 0 0 L 0 41 C 0 49 2 57 8 64 C 13 71 24 79 41 88 C 69 108 91 126 105 141 C 119 155 133 180 147 215 L 600 1284 L 559 1374 C 557 1378 555 1383 553 1388 C 551 1392 551 1396 551 1399 C 551 1401 552 1404 554 1407 C 556 1409 560 1412 565 1415 C 585 1427 607 1442 630 1458 C 653 1474 674 1491 694 1507 C 696 1509 698 1511 702 1514 C 705 1516 709 1518 713 1518 C 717 1518 721 1516 724 1514 C 726 1511 729 1507 731 1503 L 1260 184 C 1268 164 1278 146 1291 130 C 1304 114 1321 101 1343 92 C 1367 83 1382 77 1389 73 C 1395 69 1399 61 1399 51 Z M 408 522 L 909 522 L 662 1149 L 408 522 Z M 755 1934 L 1034 1580 L 952 1580 L 694 1777 L 436 1580 L 354 1580 L 632 1934 L 755 1934 Z" unicode="" />
<glyph horiz-adv-x="1401" d="M 1399 51 L 1399 0 L 944 0 L 944 41 C 944 51 947 58 955 62 C 962 66 976 74 997 86 C 1013 94 1027 102 1037 111 C 1047 119 1053 129 1053 139 C 1053 146 1050 157 1044 173 C 1038 189 1032 205 1026 223 L 950 420 L 367 420 L 289 225 C 285 215 280 201 274 183 C 268 165 266 152 266 143 C 266 128 271 115 282 105 C 293 95 308 86 328 80 C 347 71 361 63 369 56 C 377 49 381 41 381 31 L 381 0 L 0 0 L 0 41 C 0 49 2 57 8 64 C 13 71 24 79 41 88 C 69 108 91 126 105 141 C 119 155 133 180 147 215 L 600 1284 L 559 1374 C 557 1378 555 1383 553 1388 C 551 1392 551 1396 551 1399 C 551 1401 552 1404 554 1407 C 556 1409 560 1412 565 1415 C 585 1427 607 1442 630 1458 C 653 1474 674 1491 694 1507 C 696 1509 698 1511 702 1514 C 705 1516 709 1518 713 1518 C 717 1518 721 1516 724 1514 C 726 1511 729 1507 731 1503 L 1260 184 C 1268 164 1278 146 1291 130 C 1304 114 1321 101 1343 92 C 1367 83 1382 77 1389 73 C 1395 69 1399 61 1399 51 Z M 408 522 L 909 522 L 662 1149 L 408 522 Z M 964 1869 L 1032 1869 C 1032 1803 1011 1746 969 1700 C 927 1653 877 1630 819 1630 C 793 1630 769 1633 749 1639 C 729 1645 701 1657 665 1677 C 637 1691 613 1704 592 1714 C 570 1724 548 1730 526 1730 C 496 1730 471 1719 451 1697 C 431 1675 421 1649 419 1621 L 352 1621 C 352 1687 372 1744 414 1791 C 455 1837 505 1861 565 1861 C 597 1861 623 1857 643 1851 C 662 1844 687 1833 718 1818 C 746 1802 772 1789 794 1778 C 816 1766 837 1761 857 1761 C 887 1761 911 1771 931 1793 C 951 1815 962 1840 964 1869 Z" unicode="" />
<glyph horiz-adv-x="1400" d="M 1399 51 L 1399 0 L 944 0 L 944 41 C 944 51 947 58 955 62 C 962 66 976 74 997 86 C 1013 94 1027 102 1037 111 C 1047 119 1053 129 1053 139 C 1053 146 1050 157 1044 173 C 1038 189 1032 205 1026 223 L 950 420 L 367 420 L 289 225 C 285 215 280 201 274 183 C 268 165 266 152 266 143 C 266 128 271 115 282 105 C 293 95 308 86 328 80 C 347 71 361 63 369 56 C 377 49 381 41 381 31 L 381 0 L 0 0 L 0 41 C 0 49 2 57 8 64 C 13 71 24 79 41 88 C 69 108 91 126 105 141 C 119 155 133 180 147 215 L 600 1284 L 559 1374 C 557 1378 555 1383 553 1388 C 551 1392 551 1396 551 1399 C 551 1401 552 1404 554 1407 C 556 1409 560 1412 565 1415 C 585 1427 607 1442 630 1458 C 653 1474 674 1491 694 1507 C 696 1509 698 1511 702 1514 C 705 1516 709 1518 713 1518 C 717 1518 721 1516 724 1514 C 726 1511 729 1507 731 1503 L 1260 184 C 1268 164 1278 146 1291 130 C 1304 114 1321 101 1343 92 C 1367 83 1382 77 1389 73 C 1395 69 1399 61 1399 51 Z M 408 522 L 909 522 L 662 1149 L 408 522 Z M 583 1736 C 583 1705 571 1678 549 1656 C 526 1633 499 1622 469 1622 C 438 1622 411 1633 388 1656 C 365 1678 354 1705 354 1736 C 354 1766 365 1793 388 1816 C 411 1839 438 1851 469 1851 C 499 1851 526 1839 549 1816 C 571 1793 583 1766 583 1736 Z M 1021 1736 C 1021 1705 1009 1678 987 1656 C 964 1633 937 1622 907 1622 C 876 1622 849 1633 826 1656 C 803 1678 792 1705 792 1736 C 792 1766 803 1793 826 1816 C 849 1839 876 1851 907 1851 C 937 1851 964 1839 987 1816 C 1009 1793 1021 1766 1021 1736 Z" unicode="" />
<glyph horiz-adv-x="1402" d="M 933 1798 C 933 1734 909 1680 863 1638 C 817 1596 759 1575 689 1575 C 619 1575 560 1595 514 1637 C 468 1679 445 1732 445 1798 C 445 1862 468 1915 514 1957 C 560 1999 619 2021 689 2021 C 759 2021 817 1999 863 1957 C 909 1915 933 1862 933 1798 Z M 804 1798 C 804 1848 794 1886 774 1914 C 754 1942 725 1956 689 1956 C 652 1956 624 1942 604 1914 C 584 1886 574 1848 574 1798 C 574 1748 584 1709 604 1681 C 624 1653 652 1640 689 1640 C 725 1640 754 1653 774 1681 C 794 1709 804 1748 804 1798 Z M 1399 51 L 1399 0 L 944 0 L 944 41 C 944 51 947 58 955 62 C 962 66 976 74 997 86 C 1013 94 1027 102 1037 111 C 1047 119 1053 129 1053 139 C 1053 146 1050 157 1044 173 C 1038 189 1032 205 1026 223 L 950 420 L 367 420 L 289 225 C 285 215 280 201 274 183 C 268 165 266 152 266 143 C 266 128 271 115 282 105 C 293 95 308 86 328 80 C 347 71 361 63 369 56 C 377 49 381 41 381 31 L 381 0 L 0 0 L 0 41 C 0 49 2 57 8 64 C 13 71 24 79 41 88 C 69 108 91 126 105 141 C 119 155 133 180 147 215 L 600 1284 L 559 1374 C 557 1378 555 1383 553 1388 C 551 1392 551 1396 551 1399 C 551 1401 552 1404 554 1407 C 556 1409 560 1412 565 1415 C 585 1427 607 1442 630 1458 C 653 1474 674 1491 694 1507 C 696 1509 698 1511 702 1514 C 705 1516 709 1518 713 1518 C 717 1518 721 1516 724 1514 C 726 1511 729 1507 731 1503 L 1260 184 C 1268 164 1278 146 1291 130 C 1304 114 1321 101 1343 92 C 1367 83 1382 77 1389 73 C 1395 69 1399 61 1399 51 Z M 408 522 L 909 522 L 662 1149 L 408 522 Z" unicode="" />
<glyph horiz-adv-x="1982" d="M 1927 336 L 1927 0 L 864 0 L 864 51 C 864 61 867 68 874 72 C 880 75 896 82 920 92 C 946 103 963 112 971 120 C 979 127 983 142 983 166 L 983 698 L 508 698 L 293 225 C 288 214 282 200 276 183 C 269 165 266 152 266 143 C 266 131 271 120 283 110 C 295 100 311 92 332 84 C 352 77 367 70 376 62 C 384 54 389 45 389 35 L 389 0 L -12 0 L -12 41 C -12 49 -9 57 -3 63 C 3 69 14 78 31 88 C 54 101 75 117 93 135 C 111 153 129 180 145 215 L 623 1221 C 633 1242 641 1263 648 1284 C 655 1304 659 1321 659 1333 C 659 1356 649 1372 629 1380 C 609 1388 589 1396 571 1403 C 545 1411 529 1418 522 1422 C 515 1426 512 1433 512 1444 L 512 1495 L 1640 1495 C 1666 1495 1699 1497 1741 1501 C 1782 1505 1812 1509 1831 1511 L 1831 1208 L 1784 1208 C 1768 1208 1757 1210 1749 1216 C 1741 1222 1735 1230 1731 1241 C 1707 1304 1684 1345 1663 1365 C 1642 1385 1596 1395 1524 1395 L 1190 1395 L 1190 817 L 1380 817 C 1418 817 1443 824 1457 840 C 1471 855 1486 881 1503 918 C 1510 930 1517 939 1523 946 C 1529 952 1541 956 1559 956 L 1604 956 L 1604 584 L 1552 584 C 1537 584 1526 588 1518 597 C 1510 606 1503 616 1497 627 C 1480 662 1465 685 1452 697 C 1438 709 1416 715 1384 715 L 1190 715 L 1190 100 L 1622 100 C 1679 100 1721 114 1748 143 C 1774 172 1802 223 1831 295 C 1835 309 1839 320 1845 326 C 1850 332 1859 336 1872 336 L 1927 336 Z M 555 801 L 983 801 L 983 1241 C 983 1289 978 1327 968 1357 C 958 1386 933 1401 895 1401 C 865 1401 840 1385 819 1355 C 798 1324 777 1285 756 1239 L 555 801 Z" unicode="" />
<glyph horiz-adv-x="1294" d="M 1202 360 L 1270 291 C 1232 214 1168 144 1079 82 C 990 20 884 -14 762 -20 L 729 -94 C 791 -94 840 -107 876 -133 C 912 -159 930 -198 930 -250 C 930 -292 909 -330 868 -364 C 827 -398 762 -416 674 -416 C 622 -416 578 -405 543 -385 C 507 -364 476 -343 448 -322 L 487 -262 C 513 -281 541 -298 571 -312 C 601 -326 633 -334 666 -334 C 707 -334 736 -325 752 -308 C 768 -291 776 -273 776 -254 C 776 -232 767 -213 749 -197 C 731 -180 704 -172 666 -172 C 659 -172 652 -172 646 -172 C 640 -172 633 -173 625 -174 L 690 -20 C 500 -8 350 69 242 213 C 134 356 80 532 80 741 C 80 981 144 1170 274 1308 C 404 1446 551 1516 715 1516 C 777 1516 833 1509 885 1495 C 936 1481 989 1457 1044 1423 C 1055 1416 1065 1411 1074 1409 C 1083 1406 1093 1408 1104 1415 C 1116 1424 1125 1431 1131 1435 C 1136 1439 1143 1442 1151 1442 L 1196 1442 L 1196 1073 L 1130 1073 C 1118 1073 1109 1075 1105 1080 C 1101 1084 1098 1091 1096 1100 C 1069 1189 1026 1264 967 1324 C 907 1384 835 1415 749 1415 C 635 1415 534 1358 445 1246 C 355 1134 311 968 311 750 C 311 538 352 375 435 261 C 517 147 621 90 745 90 C 851 90 944 119 1024 178 C 1104 236 1164 297 1202 360 Z" unicode="" />
<glyph horiz-adv-x="1208" d="M 591 1903 L 873 1640 L 828 1602 L 490 1751 C 457 1765 432 1782 416 1802 C 400 1821 392 1840 392 1860 C 392 1883 399 1904 415 1923 C 431 1942 452 1952 480 1952 C 495 1952 512 1949 531 1943 C 549 1937 569 1923 591 1903 Z M 1153 336 L 1153 0 L 82 0 L 82 51 C 82 61 85 68 92 72 C 98 75 113 82 137 92 C 163 103 181 112 189 120 C 197 127 201 142 201 166 L 201 1329 C 201 1348 197 1362 190 1372 C 183 1382 167 1392 141 1403 C 117 1411 102 1418 96 1422 C 89 1426 86 1433 86 1444 L 86 1495 L 866 1495 C 892 1495 925 1497 967 1501 C 1008 1505 1038 1509 1057 1511 L 1057 1208 L 1010 1208 C 994 1208 983 1210 975 1216 C 967 1222 960 1230 956 1241 C 932 1304 910 1345 889 1365 C 868 1385 822 1395 750 1395 L 408 1395 L 408 817 L 606 817 C 644 817 669 824 683 840 C 697 855 712 881 729 918 C 735 930 742 939 749 946 C 755 952 767 956 784 956 L 829 956 L 829 584 L 778 584 C 763 584 752 588 744 597 C 736 606 729 616 723 627 C 706 662 691 685 678 697 C 664 709 642 715 610 715 L 408 715 L 408 100 L 848 100 C 905 100 947 114 974 143 C 1000 172 1028 223 1057 295 C 1061 309 1065 320 1071 326 C 1076 332 1085 336 1098 336 L 1153 336 Z" unicode="" />
<glyph horiz-adv-x="1208" d="M 1153 336 L 1153 0 L 82 0 L 82 51 C 82 61 85 68 92 72 C 98 75 113 82 137 92 C 163 103 181 112 189 120 C 197 127 201 142 201 166 L 201 1329 C 201 1348 197 1362 190 1372 C 183 1382 167 1392 141 1403 C 117 1411 102 1418 96 1422 C 89 1426 86 1433 86 1444 L 86 1495 L 866 1495 C 892 1495 925 1497 967 1501 C 1008 1505 1038 1509 1057 1511 L 1057 1208 L 1010 1208 C 994 1208 983 1210 975 1216 C 967 1222 960 1230 956 1241 C 932 1304 910 1345 889 1365 C 868 1385 822 1395 750 1395 L 408 1395 L 408 817 L 606 817 C 644 817 669 824 683 840 C 697 855 712 881 729 918 C 735 930 742 939 749 946 C 755 952 767 956 784 956 L 829 956 L 829 584 L 778 584 C 763 584 752 588 744 597 C 736 606 729 616 723 627 C 706 662 691 685 678 697 C 664 709 642 715 610 715 L 408 715 L 408 100 L 848 100 C 905 100 947 114 974 143 C 1000 172 1028 223 1057 295 C 1061 309 1065 320 1071 326 C 1076 332 1085 336 1098 336 L 1153 336 Z M 895 1860 C 895 1840 886 1821 870 1802 C 854 1782 829 1765 797 1751 L 459 1602 L 414 1640 L 696 1903 C 717 1923 737 1937 756 1943 C 774 1949 791 1952 807 1952 C 834 1952 855 1942 871 1923 C 887 1904 895 1883 895 1860 Z" unicode="" />
<glyph horiz-adv-x="1208" d="M 1153 336 L 1153 0 L 82 0 L 82 51 C 82 61 85 68 92 72 C 98 75 113 82 137 92 C 163 103 181 112 189 120 C 197 127 201 142 201 166 L 201 1329 C 201 1348 197 1362 190 1372 C 183 1382 167 1392 141 1403 C 117 1411 102 1418 96 1422 C 89 1426 86 1433 86 1444 L 86 1495 L 866 1495 C 892 1495 925 1497 967 1501 C 1008 1505 1038 1509 1057 1511 L 1057 1208 L 1010 1208 C 994 1208 983 1210 975 1216 C 967 1222 960 1230 956 1241 C 932 1304 910 1345 889 1365 C 868 1385 822 1395 750 1395 L 408 1395 L 408 817 L 606 817 C 644 817 669 824 683 840 C 697 855 712 881 729 918 C 735 930 742 939 749 946 C 755 952 767 956 784 956 L 829 956 L 829 584 L 778 584 C 763 584 752 588 744 597 C 736 606 729 616 723 627 C 706 662 691 685 678 697 C 664 709 642 715 610 715 L 408 715 L 408 100 L 848 100 C 905 100 947 114 974 143 C 1000 172 1028 223 1057 295 C 1061 309 1065 320 1071 326 C 1076 332 1085 336 1098 336 L 1153 336 Z M 692 1947 L 971 1593 L 889 1593 L 631 1790 L 373 1593 L 291 1593 L 569 1947 L 692 1947 Z" unicode="" />
<glyph horiz-adv-x="1208" d="M 1153 336 L 1153 0 L 82 0 L 82 51 C 82 61 85 68 92 72 C 98 75 113 82 137 92 C 163 103 181 112 189 120 C 197 127 201 142 201 166 L 201 1329 C 201 1348 197 1362 190 1372 C 183 1382 167 1392 141 1403 C 117 1411 102 1418 96 1422 C 89 1426 86 1433 86 1444 L 86 1495 L 866 1495 C 892 1495 925 1497 967 1501 C 1008 1505 1038 1509 1057 1511 L 1057 1208 L 1010 1208 C 994 1208 983 1210 975 1216 C 967 1222 960 1230 956 1241 C 932 1304 910 1345 889 1365 C 868 1385 822 1395 750 1395 L 408 1395 L 408 817 L 606 817 C 644 817 669 824 683 840 C 697 855 712 881 729 918 C 735 930 742 939 749 946 C 755 952 767 956 784 956 L 829 956 L 829 584 L 778 584 C 763 584 752 588 744 597 C 736 606 729 616 723 627 C 706 662 691 685 678 697 C 664 709 642 715 610 715 L 408 715 L 408 100 L 848 100 C 905 100 947 114 974 143 C 1000 172 1028 223 1057 295 C 1061 309 1065 320 1071 326 C 1076 332 1085 336 1098 336 L 1153 336 Z M 515 1744 C 515 1713 503 1686 481 1664 C 458 1641 431 1630 401 1630 C 370 1630 343 1641 320 1664 C 297 1686 286 1713 286 1744 C 286 1774 297 1801 320 1824 C 343 1847 370 1859 401 1859 C 431 1859 458 1847 481 1824 C 503 1801 515 1774 515 1744 Z M 953 1744 C 953 1713 941 1686 919 1664 C 896 1641 869 1630 839 1630 C 808 1630 781 1641 758 1664 C 735 1686 724 1713 724 1744 C 724 1774 735 1801 758 1824 C 781 1847 808 1859 839 1859 C 869 1859 896 1847 919 1824 C 941 1801 953 1774 953 1744 Z" unicode="" />
<glyph horiz-adv-x="621" d="M 528 51 L 528 0 L 90 0 L 90 51 C 90 61 93 68 100 72 C 106 75 121 82 145 92 C 171 103 188 112 196 120 C 203 127 207 142 207 166 L 207 1329 C 207 1348 203 1362 195 1372 C 187 1382 171 1392 145 1403 C 121 1411 106 1418 100 1422 C 93 1426 90 1433 90 1444 L 90 1495 L 528 1495 L 528 1444 C 528 1433 524 1426 517 1422 C 510 1418 496 1411 475 1403 C 448 1391 431 1382 424 1376 C 417 1369 414 1353 414 1329 L 414 166 C 414 142 417 127 425 120 C 433 112 449 103 475 92 C 496 83 510 77 517 73 C 524 69 528 61 528 51 Z M 273 1903 L 555 1640 L 510 1602 L 172 1751 C 139 1765 114 1782 98 1802 C 82 1821 74 1840 74 1860 C 74 1883 81 1904 97 1923 C 113 1942 134 1952 162 1952 C 177 1952 194 1949 213 1943 C 231 1937 251 1923 273 1903 Z" unicode="" />
<glyph horiz-adv-x="621" d="M 528 51 L 528 0 L 90 0 L 90 51 C 90 61 93 68 100 72 C 106 75 121 82 145 92 C 171 103 188 112 196 120 C 203 127 207 142 207 166 L 207 1329 C 207 1348 203 1362 195 1372 C 187 1382 171 1392 145 1403 C 121 1411 106 1418 100 1422 C 93 1426 90 1433 90 1444 L 90 1495 L 528 1495 L 528 1444 C 528 1433 524 1426 517 1422 C 510 1418 496 1411 475 1403 C 448 1391 431 1382 424 1376 C 417 1369 414 1353 414 1329 L 414 166 C 414 142 417 127 425 120 C 433 112 449 103 475 92 C 496 83 510 77 517 73 C 524 69 528 61 528 51 Z M 574 1860 C 574 1840 565 1821 549 1802 C 533 1782 508 1765 476 1751 L 138 1602 L 93 1640 L 375 1903 C 396 1923 416 1937 435 1943 C 453 1949 470 1952 486 1952 C 513 1952 534 1942 550 1923 C 566 1904 574 1883 574 1860 Z" unicode="" />
<glyph horiz-adv-x="621" d="M 373 1948 L 621 1593 L 539 1593 L 311 1790 L 84 1593 L 2 1593 L 250 1948 L 373 1948 Z M 528 51 L 528 0 L 90 0 L 90 51 C 90 61 93 68 100 72 C 106 75 121 82 145 92 C 171 103 188 112 196 120 C 203 127 207 142 207 166 L 207 1329 C 207 1348 203 1362 195 1372 C 187 1382 171 1392 145 1403 C 121 1411 106 1418 100 1422 C 93 1426 90 1433 90 1444 L 90 1495 L 528 1495 L 528 1444 C 528 1433 524 1426 517 1422 C 510 1418 496 1411 475 1403 C 448 1391 431 1382 424 1376 C 417 1369 414 1353 414 1329 L 414 166 C 414 142 417 127 425 120 C 433 112 449 103 475 92 C 496 83 510 77 517 73 C 524 69 528 61 528 51 Z" unicode="" />
<glyph horiz-adv-x="621" d="M 229 1755 C 229 1724 217 1697 195 1674 C 172 1651 145 1640 115 1640 C 84 1640 57 1651 34 1674 C 11 1697 0 1724 0 1755 C 0 1785 11 1812 34 1835 C 57 1858 84 1870 115 1870 C 145 1870 172 1858 195 1835 C 217 1812 229 1785 229 1755 Z M 618 1755 C 618 1724 606 1697 584 1674 C 561 1651 534 1640 504 1640 C 473 1640 446 1651 423 1674 C 400 1697 389 1724 389 1755 C 389 1785 400 1812 423 1835 C 446 1858 473 1870 504 1870 C 534 1870 561 1858 584 1835 C 606 1812 618 1785 618 1755 Z M 528 51 L 528 0 L 90 0 L 90 51 C 90 61 93 68 100 72 C 106 75 121 82 145 92 C 171 103 188 112 196 120 C 203 127 207 142 207 166 L 207 1329 C 207 1348 203 1362 195 1372 C 187 1382 171 1392 145 1403 C 121 1411 106 1418 100 1422 C 93 1426 90 1433 90 1444 L 90 1495 L 528 1495 L 528 1444 C 528 1433 524 1426 517 1422 C 510 1418 496 1411 475 1403 C 448 1391 431 1382 424 1376 C 417 1369 414 1353 414 1329 L 414 166 C 414 142 417 127 425 120 C 433 112 449 103 475 92 C 496 83 510 77 517 73 C 524 69 528 61 528 51 Z" unicode="" />
<glyph horiz-adv-x="1464" d="M 1389 1495 L 1389 1442 C 1389 1433 1385 1426 1377 1422 C 1369 1417 1354 1407 1333 1391 C 1310 1373 1294 1354 1285 1334 C 1276 1314 1272 1292 1272 1270 L 1272 -10 L 1186 -10 L 330 1294 L 330 227 C 330 203 334 181 342 160 C 350 138 365 119 387 102 C 408 85 423 75 431 71 C 439 67 444 61 444 53 L 444 0 L 84 0 L 84 53 C 84 61 87 68 94 73 C 101 78 116 89 139 106 C 160 123 176 141 186 161 C 196 181 201 202 201 225 L 201 1329 C 201 1348 197 1362 189 1372 C 181 1382 164 1392 139 1403 C 115 1411 100 1418 94 1422 C 87 1426 84 1433 84 1444 L 84 1495 L 428 1495 L 1143 397 L 1143 1268 C 1143 1291 1138 1313 1130 1335 C 1121 1356 1105 1375 1083 1393 C 1062 1409 1047 1419 1039 1423 C 1030 1427 1026 1433 1026 1442 L 1026 1495 L 1389 1495 Z M 1036 1879 L 1104 1879 C 1104 1813 1083 1756 1041 1710 C 999 1663 949 1640 891 1640 C 865 1640 841 1643 821 1649 C 801 1655 773 1667 737 1687 C 709 1701 685 1714 664 1724 C 642 1734 620 1740 598 1740 C 568 1740 543 1729 523 1707 C 503 1685 493 1659 491 1631 L 424 1631 C 424 1697 444 1754 486 1801 C 527 1847 577 1871 637 1871 C 669 1871 695 1867 715 1861 C 734 1854 759 1843 790 1828 C 818 1812 844 1799 866 1788 C 888 1776 909 1771 929 1771 C 959 1771 983 1781 1003 1803 C 1023 1825 1034 1850 1036 1879 Z" unicode="" />
<glyph horiz-adv-x="1503" d="M 1423 748 C 1423 525 1360 341 1235 197 C 1109 52 948 -20 752 -20 C 556 -20 395 51 269 194 C 143 336 80 521 80 748 C 80 968 143 1151 269 1297 C 395 1443 556 1516 752 1516 C 948 1516 1109 1443 1235 1297 C 1360 1151 1423 968 1423 748 Z M 1192 748 C 1192 962 1151 1127 1070 1242 C 989 1357 883 1415 752 1415 C 620 1415 513 1357 432 1242 C 351 1127 311 962 311 748 C 311 532 351 367 432 252 C 513 137 620 80 752 80 C 883 80 989 136 1070 248 C 1151 360 1192 527 1192 748 Z M 708 1903 L 990 1640 L 945 1602 L 607 1751 C 574 1765 549 1782 533 1802 C 517 1821 509 1840 509 1860 C 509 1883 516 1904 532 1923 C 548 1942 569 1952 597 1952 C 612 1952 629 1949 648 1943 C 666 1937 686 1923 708 1903 Z" unicode="" />
<glyph horiz-adv-x="1503" d="M 1423 748 C 1423 525 1360 341 1235 197 C 1109 52 948 -20 752 -20 C 556 -20 395 51 269 194 C 143 336 80 521 80 748 C 80 968 143 1151 269 1297 C 395 1443 556 1516 752 1516 C 948 1516 1109 1443 1235 1297 C 1360 1151 1423 968 1423 748 Z M 1192 748 C 1192 962 1151 1127 1070 1242 C 989 1357 883 1415 752 1415 C 620 1415 513 1357 432 1242 C 351 1127 311 962 311 748 C 311 532 351 367 432 252 C 513 137 620 80 752 80 C 883 80 989 136 1070 248 C 1151 360 1192 527 1192 748 Z M 997 1860 C 997 1840 988 1821 972 1802 C 956 1782 931 1765 899 1751 L 561 1602 L 516 1640 L 798 1903 C 819 1923 839 1937 858 1943 C 876 1949 893 1952 909 1952 C 936 1952 957 1942 973 1923 C 989 1904 997 1883 997 1860 Z" unicode="" />
<glyph horiz-adv-x="1503" d="M 1423 748 C 1423 525 1360 341 1235 197 C 1109 52 948 -20 752 -20 C 556 -20 395 51 269 194 C 143 336 80 521 80 748 C 80 968 143 1151 269 1297 C 395 1443 556 1516 752 1516 C 948 1516 1109 1443 1235 1297 C 1360 1151 1423 968 1423 748 Z M 1192 748 C 1192 962 1151 1127 1070 1242 C 989 1357 883 1415 752 1415 C 620 1415 513 1357 432 1242 C 351 1127 311 962 311 748 C 311 532 351 367 432 252 C 513 137 620 80 752 80 C 883 80 989 136 1070 248 C 1151 360 1192 527 1192 748 Z M 813 1947 L 1092 1593 L 1010 1593 L 752 1790 L 494 1593 L 412 1593 L 690 1947 L 813 1947 Z" unicode="" />
<glyph horiz-adv-x="1503" d="M 1423 748 C 1423 525 1360 341 1235 197 C 1109 52 948 -20 752 -20 C 556 -20 395 51 269 194 C 143 336 80 521 80 748 C 80 968 143 1151 269 1297 C 395 1443 556 1516 752 1516 C 948 1516 1109 1443 1235 1297 C 1360 1151 1423 968 1423 748 Z M 1192 748 C 1192 962 1151 1127 1070 1242 C 989 1357 883 1415 752 1415 C 620 1415 513 1357 432 1242 C 351 1127 311 962 311 748 C 311 532 351 367 432 252 C 513 137 620 80 752 80 C 883 80 989 136 1070 248 C 1151 360 1192 527 1192 748 Z M 1024 1879 L 1092 1879 C 1092 1813 1071 1756 1029 1710 C 987 1663 937 1640 879 1640 C 853 1640 829 1643 809 1649 C 789 1655 761 1667 725 1687 C 697 1701 673 1714 652 1724 C 630 1734 608 1740 586 1740 C 556 1740 531 1729 511 1707 C 491 1685 481 1659 479 1631 L 412 1631 C 412 1697 432 1754 474 1801 C 515 1847 565 1871 625 1871 C 657 1871 683 1867 703 1861 C 722 1854 747 1843 778 1828 C 806 1812 832 1799 854 1788 C 876 1776 897 1771 917 1771 C 947 1771 971 1781 991 1803 C 1011 1825 1022 1850 1024 1879 Z" unicode="" />
<glyph horiz-adv-x="1503" d="M 1423 748 C 1423 525 1360 341 1235 197 C 1109 52 948 -20 752 -20 C 556 -20 395 51 269 194 C 143 336 80 521 80 748 C 80 968 143 1151 269 1297 C 395 1443 556 1516 752 1516 C 948 1516 1109 1443 1235 1297 C 1360 1151 1423 968 1423 748 Z M 1192 748 C 1192 962 1151 1127 1070 1242 C 989 1357 883 1415 752 1415 C 620 1415 513 1357 432 1242 C 351 1127 311 962 311 748 C 311 532 351 367 432 252 C 513 137 620 80 752 80 C 883 80 989 136 1070 248 C 1151 360 1192 527 1192 748 Z M 646 1744 C 646 1713 634 1686 612 1664 C 589 1641 562 1630 532 1630 C 501 1630 474 1641 451 1664 C 428 1686 417 1713 417 1744 C 417 1774 428 1801 451 1824 C 474 1847 501 1859 532 1859 C 562 1859 589 1847 612 1824 C 634 1801 646 1774 646 1744 Z M 1084 1744 C 1084 1713 1072 1686 1050 1664 C 1027 1641 1000 1630 970 1630 C 939 1630 912 1641 889 1664 C 866 1686 855 1713 855 1744 C 855 1774 866 1801 889 1824 C 912 1847 939 1859 970 1859 C 1000 1859 1027 1847 1050 1824 C 1072 1801 1084 1774 1084 1744 Z" unicode="" />
<glyph horiz-adv-x="1548" d="M 862 600 L 1255 209 L 1165 119 L 774 512 L 383 119 L 293 209 L 686 600 L 293 991 L 383 1081 L 774 688 L 1165 1081 L 1255 991 L 862 600 Z" unicode="" />
<glyph horiz-adv-x="1503" d="M 1423 727 C 1423 615 1406 513 1373 419 C 1340 325 1294 245 1235 180 C 1176 115 1105 63 1023 25 C 941 -12 850 -32 752 -32 C 695 -32 641 -25 589 -12 C 537 1 488 20 442 46 L 360 -110 L 250 -110 L 360 99 C 316 126 277 162 243 206 C 209 250 179 300 155 354 C 131 408 112 466 99 529 C 86 591 80 657 80 727 C 80 837 96 940 129 1034 C 162 1128 208 1209 268 1277 C 327 1345 398 1399 480 1437 C 562 1475 653 1495 752 1495 C 808 1495 862 1488 914 1474 C 966 1460 1015 1440 1061 1415 L 1133 1552 L 1243 1552 L 1143 1362 C 1185 1328 1224 1288 1259 1244 C 1293 1199 1323 1150 1347 1096 C 1371 1042 1390 984 1403 922 C 1416 860 1423 795 1423 727 Z M 1196 727 C 1196 839 1185 937 1164 1023 C 1142 1108 1112 1179 1073 1235 L 502 147 C 570 94 654 68 752 68 C 818 68 878 80 932 105 C 986 130 1033 170 1072 226 C 1111 282 1141 351 1163 435 C 1185 518 1196 615 1196 727 Z M 1004 1307 C 968 1337 929 1359 887 1373 C 845 1387 800 1395 752 1395 C 686 1395 625 1380 571 1352 C 516 1323 469 1280 430 1224 C 391 1168 361 1098 339 1015 C 317 931 307 835 307 727 C 307 615 317 516 339 430 C 360 344 390 273 430 217 L 1004 1307 Z" unicode="" />
<glyph horiz-adv-x="1464" d="M 1401 1495 L 1401 1442 C 1401 1433 1397 1426 1390 1422 C 1383 1417 1368 1407 1346 1391 C 1323 1373 1307 1354 1298 1334 C 1288 1314 1284 1292 1284 1270 L 1284 537 C 1284 398 1241 270 1155 154 C 1069 38 937 -20 758 -20 C 563 -20 419 31 327 134 C 234 236 188 363 188 514 L 188 1329 C 188 1348 184 1362 176 1372 C 168 1382 151 1392 127 1403 C 103 1411 88 1418 82 1422 C 75 1426 72 1433 72 1444 L 72 1495 L 510 1495 L 510 1444 C 510 1433 506 1426 500 1422 C 494 1418 479 1411 457 1403 C 431 1391 415 1381 407 1372 C 399 1362 395 1348 395 1329 L 395 528 C 395 401 427 301 492 227 C 557 153 649 117 768 117 C 902 117 1000 154 1063 230 C 1125 306 1157 412 1157 549 L 1157 1268 C 1157 1291 1152 1313 1143 1335 C 1134 1356 1118 1375 1096 1393 C 1075 1409 1060 1419 1052 1423 C 1044 1427 1040 1433 1040 1442 L 1040 1495 L 1401 1495 Z M 708 1903 L 990 1640 L 945 1602 L 607 1751 C 574 1765 549 1782 533 1802 C 517 1821 509 1840 509 1860 C 509 1883 516 1904 532 1923 C 548 1942 569 1952 597 1952 C 612 1952 629 1949 648 1943 C 666 1937 686 1923 708 1903 Z" unicode="" />
<glyph horiz-adv-x="1464" d="M 1401 1495 L 1401 1442 C 1401 1433 1397 1426 1390 1422 C 1383 1417 1368 1407 1346 1391 C 1323 1373 1307 1354 1298 1334 C 1288 1314 1284 1292 1284 1270 L 1284 537 C 1284 398 1241 270 1155 154 C 1069 38 937 -20 758 -20 C 563 -20 419 31 327 134 C 234 236 188 363 188 514 L 188 1329 C 188 1348 184 1362 176 1372 C 168 1382 151 1392 127 1403 C 103 1411 88 1418 82 1422 C 75 1426 72 1433 72 1444 L 72 1495 L 510 1495 L 510 1444 C 510 1433 506 1426 500 1422 C 494 1418 479 1411 457 1403 C 431 1391 415 1381 407 1372 C 399 1362 395 1348 395 1329 L 395 528 C 395 401 427 301 492 227 C 557 153 649 117 768 117 C 902 117 1000 154 1063 230 C 1125 306 1157 412 1157 549 L 1157 1268 C 1157 1291 1152 1313 1143 1335 C 1134 1356 1118 1375 1096 1393 C 1075 1409 1060 1419 1052 1423 C 1044 1427 1040 1433 1040 1442 L 1040 1495 L 1401 1495 Z M 1040 1860 C 1040 1840 1031 1821 1015 1802 C 999 1782 974 1765 942 1751 L 604 1602 L 559 1640 L 841 1903 C 862 1923 882 1937 901 1943 C 919 1949 936 1952 952 1952 C 979 1952 1000 1942 1016 1923 C 1032 1904 1040 1883 1040 1860 Z" unicode="" />
<glyph horiz-adv-x="1464" d="M 1401 1495 L 1401 1442 C 1401 1433 1397 1426 1390 1422 C 1383 1417 1368 1407 1346 1391 C 1323 1373 1307 1354 1298 1334 C 1288 1314 1284 1292 1284 1270 L 1284 537 C 1284 398 1241 270 1155 154 C 1069 38 937 -20 758 -20 C 563 -20 419 31 327 134 C 234 236 188 363 188 514 L 188 1329 C 188 1348 184 1362 176 1372 C 168 1382 151 1392 127 1403 C 103 1411 88 1418 82 1422 C 75 1426 72 1433 72 1444 L 72 1495 L 510 1495 L 510 1444 C 510 1433 506 1426 500 1422 C 494 1418 479 1411 457 1403 C 431 1391 415 1381 407 1372 C 399 1362 395 1348 395 1329 L 395 528 C 395 401 427 301 492 227 C 557 153 649 117 768 117 C 902 117 1000 154 1063 230 C 1125 306 1157 412 1157 549 L 1157 1268 C 1157 1291 1152 1313 1143 1335 C 1134 1356 1118 1375 1096 1393 C 1075 1409 1060 1419 1052 1423 C 1044 1427 1040 1433 1040 1442 L 1040 1495 L 1401 1495 Z M 825 1947 L 1104 1593 L 1022 1593 L 764 1790 L 506 1593 L 424 1593 L 702 1947 L 825 1947 Z" unicode="" />
<glyph horiz-adv-x="1464" d="M 1401 1495 L 1401 1442 C 1401 1433 1397 1426 1390 1422 C 1383 1417 1368 1407 1346 1391 C 1323 1373 1307 1354 1298 1334 C 1288 1314 1284 1292 1284 1270 L 1284 537 C 1284 398 1241 270 1155 154 C 1069 38 937 -20 758 -20 C 563 -20 419 31 327 134 C 234 236 188 363 188 514 L 188 1329 C 188 1348 184 1362 176 1372 C 168 1382 151 1392 127 1403 C 103 1411 88 1418 82 1422 C 75 1426 72 1433 72 1444 L 72 1495 L 510 1495 L 510 1444 C 510 1433 506 1426 500 1422 C 494 1418 479 1411 457 1403 C 431 1391 415 1381 407 1372 C 399 1362 395 1348 395 1329 L 395 528 C 395 401 427 301 492 227 C 557 153 649 117 768 117 C 902 117 1000 154 1063 230 C 1125 306 1157 412 1157 549 L 1157 1268 C 1157 1291 1152 1313 1143 1335 C 1134 1356 1118 1375 1096 1393 C 1075 1409 1060 1419 1052 1423 C 1044 1427 1040 1433 1040 1442 L 1040 1495 L 1401 1495 Z M 669 1744 C 669 1713 657 1686 635 1664 C 612 1641 585 1630 555 1630 C 524 1630 497 1641 474 1664 C 451 1686 440 1713 440 1744 C 440 1774 451 1801 474 1824 C 497 1847 524 1859 555 1859 C 585 1859 612 1847 635 1824 C 657 1801 669 1774 669 1744 Z M 1107 1744 C 1107 1713 1095 1686 1073 1664 C 1050 1641 1023 1630 993 1630 C 962 1630 935 1641 912 1664 C 889 1686 878 1713 878 1744 C 878 1774 889 1801 912 1824 C 935 1847 962 1859 993 1859 C 1023 1859 1050 1847 1073 1824 C 1095 1801 1107 1774 1107 1744 Z" unicode="" />
<glyph horiz-adv-x="1282" d="M 1288 1495 L 1288 1454 C 1288 1444 1285 1436 1279 1430 C 1273 1424 1262 1417 1247 1409 C 1218 1392 1197 1379 1184 1369 C 1170 1359 1150 1332 1124 1290 L 752 682 L 752 166 C 752 146 756 132 764 123 C 772 113 788 103 813 92 C 835 83 850 77 857 73 C 864 69 868 61 868 51 L 868 0 L 424 0 L 424 51 C 424 61 427 68 434 72 C 441 75 456 82 479 92 C 505 103 523 112 532 120 C 540 127 545 142 545 166 L 545 678 L 139 1317 C 127 1337 114 1354 101 1367 C 88 1380 69 1392 45 1403 C 22 1411 7 1418 1 1422 C -4 1426 -8 1433 -8 1444 L -8 1495 L 453 1495 L 453 1462 C 453 1451 450 1443 446 1439 C 442 1434 429 1426 408 1415 C 391 1407 378 1399 368 1393 C 358 1387 354 1379 354 1370 C 354 1365 358 1354 367 1337 C 375 1319 382 1306 387 1298 L 696 801 L 993 1296 C 1001 1310 1009 1325 1016 1340 C 1022 1355 1026 1366 1026 1372 C 1026 1383 1020 1391 1009 1397 C 998 1403 985 1409 971 1415 C 949 1423 934 1431 926 1437 C 917 1443 913 1452 913 1462 L 913 1495 L 1288 1495 Z M 985 1860 C 985 1840 976 1821 960 1802 C 944 1782 919 1765 887 1751 L 549 1602 L 504 1640 L 786 1903 C 807 1923 827 1937 846 1943 C 864 1949 881 1952 897 1952 C 924 1952 945 1942 961 1923 C 977 1904 985 1883 985 1860 Z" unicode="" />
<glyph horiz-adv-x="1204" d="M 1135 395 C 1135 276 1095 177 1016 97 C 937 17 841 -23 729 -23 C 649 -23 587 -10 541 16 C 495 42 473 80 473 131 C 473 156 483 179 503 199 C 523 219 550 229 584 229 C 613 229 637 219 657 200 C 676 181 686 158 686 131 C 686 122 684 112 682 100 C 680 88 676 78 672 68 C 676 64 681 62 688 62 C 694 61 701 61 709 61 C 775 61 829 92 873 154 C 916 216 938 295 938 391 C 938 517 909 609 851 667 C 793 725 712 754 608 754 L 582 754 C 560 754 543 759 531 769 C 518 779 512 792 512 809 C 512 824 517 837 527 848 C 537 858 551 864 567 864 L 612 864 C 677 864 730 888 772 937 C 813 986 834 1057 834 1151 C 834 1237 812 1301 768 1342 C 724 1382 671 1403 610 1403 C 534 1403 475 1373 433 1314 C 390 1254 369 1158 369 1026 L 369 0 L 78 0 L 78 45 C 78 53 82 59 90 63 C 98 67 111 73 131 80 C 161 90 178 103 180 117 C 182 131 184 146 184 162 L 184 1008 C 184 1160 225 1279 307 1365 C 389 1451 493 1495 621 1495 C 729 1495 823 1465 901 1406 C 979 1346 1018 1265 1018 1161 C 1018 1072 992 998 941 939 C 889 880 814 841 715 823 C 855 809 960 762 1030 683 C 1100 604 1135 508 1135 395 Z" unicode="" />
<glyph horiz-adv-x="1053" d="M 1030 133 L 1073 86 C 1052 53 1026 28 994 12 C 962 -3 929 -12 895 -12 C 856 -12 820 0 788 24 C 755 48 733 83 721 127 C 676 73 625 35 569 13 C 513 -8 457 -20 401 -20 C 314 -20 237 4 169 54 C 101 104 68 176 68 272 C 68 372 119 456 222 524 C 325 591 483 625 696 625 C 696 724 676 800 638 852 C 599 904 546 930 479 930 C 458 930 438 929 420 927 C 401 925 385 922 371 920 C 371 866 364 820 352 784 C 339 747 308 729 258 729 C 221 729 194 737 176 754 C 158 770 150 795 150 829 C 150 871 177 913 233 956 C 288 998 369 1020 475 1020 C 623 1020 728 984 789 912 C 850 840 881 745 881 629 L 881 209 C 881 179 888 156 902 138 C 916 120 939 111 969 111 C 979 111 989 113 1001 118 C 1012 123 1022 128 1030 133 Z M 696 285 L 696 539 C 558 539 451 516 374 472 C 296 428 258 367 258 289 C 258 223 277 173 317 139 C 356 105 403 88 459 88 C 515 88 569 107 620 146 C 670 185 696 231 696 285 Z M 473 1440 L 727 1149 L 678 1114 L 358 1298 C 328 1315 306 1333 292 1351 C 277 1369 270 1388 270 1407 C 270 1431 278 1453 294 1471 C 310 1489 331 1499 358 1499 C 375 1499 393 1495 411 1488 C 429 1481 450 1465 473 1440 Z" unicode="" />
<glyph horiz-adv-x="1053" d="M 1030 133 L 1073 86 C 1052 53 1026 28 994 12 C 962 -3 929 -12 895 -12 C 856 -12 820 0 788 24 C 755 48 733 83 721 127 C 676 73 625 35 569 13 C 513 -8 457 -20 401 -20 C 314 -20 237 4 169 54 C 101 104 68 176 68 272 C 68 372 119 456 222 524 C 325 591 483 625 696 625 C 696 724 676 800 638 852 C 599 904 546 930 479 930 C 458 930 438 929 420 927 C 401 925 385 922 371 920 C 371 866 364 820 352 784 C 339 747 308 729 258 729 C 221 729 194 737 176 754 C 158 770 150 795 150 829 C 150 871 177 913 233 956 C 288 998 369 1020 475 1020 C 623 1020 728 984 789 912 C 850 840 881 745 881 629 L 881 209 C 881 179 888 156 902 138 C 916 120 939 111 969 111 C 979 111 989 113 1001 118 C 1012 123 1022 128 1030 133 Z M 696 285 L 696 539 C 558 539 451 516 374 472 C 296 428 258 367 258 289 C 258 223 277 173 317 139 C 356 105 403 88 459 88 C 515 88 569 107 620 146 C 670 185 696 231 696 285 Z M 757 1407 C 757 1388 749 1369 735 1351 C 720 1333 698 1315 669 1298 L 350 1114 L 300 1149 L 554 1440 C 576 1465 597 1481 615 1488 C 633 1495 651 1499 669 1499 C 695 1499 717 1489 733 1471 C 749 1453 757 1431 757 1407 Z" unicode="" />
<glyph horiz-adv-x="1053" d="M 1030 133 L 1073 86 C 1052 53 1026 28 994 12 C 962 -3 929 -12 895 -12 C 856 -12 820 0 788 24 C 755 48 733 83 721 127 C 676 73 625 35 569 13 C 513 -8 457 -20 401 -20 C 314 -20 237 4 169 54 C 101 104 68 176 68 272 C 68 372 119 456 222 524 C 325 591 483 625 696 625 C 696 724 676 800 638 852 C 599 904 546 930 479 930 C 458 930 438 929 420 927 C 401 925 385 922 371 920 C 371 866 364 820 352 784 C 339 747 308 729 258 729 C 221 729 194 737 176 754 C 158 770 150 795 150 829 C 150 871 177 913 233 956 C 288 998 369 1020 475 1020 C 623 1020 728 984 789 912 C 850 840 881 745 881 629 L 881 209 C 881 179 888 156 902 138 C 916 120 939 111 969 111 C 979 111 989 113 1001 118 C 1012 123 1022 128 1030 133 Z M 696 285 L 696 539 C 558 539 451 516 374 472 C 296 428 258 367 258 289 C 258 223 277 173 317 139 C 356 105 403 88 459 88 C 515 88 569 107 620 146 C 670 185 696 231 696 285 Z M 563 1470 L 842 1116 L 760 1116 L 502 1313 L 244 1116 L 162 1116 L 440 1470 L 563 1470 Z" unicode="" />
<glyph horiz-adv-x="1053" d="M 1030 133 L 1073 86 C 1052 53 1026 28 994 12 C 962 -3 929 -12 895 -12 C 856 -12 820 0 788 24 C 755 48 733 83 721 127 C 676 73 625 35 569 13 C 513 -8 457 -20 401 -20 C 314 -20 237 4 169 54 C 101 104 68 176 68 272 C 68 372 119 456 222 524 C 325 591 483 625 696 625 C 696 724 676 800 638 852 C 599 904 546 930 479 930 C 458 930 438 929 420 927 C 401 925 385 922 371 920 C 371 866 364 820 352 784 C 339 747 308 729 258 729 C 221 729 194 737 176 754 C 158 770 150 795 150 829 C 150 871 177 913 233 956 C 288 998 369 1020 475 1020 C 623 1020 728 984 789 912 C 850 840 881 745 881 629 L 881 209 C 881 179 888 156 902 138 C 916 120 939 111 969 111 C 979 111 989 113 1001 118 C 1012 123 1022 128 1030 133 Z M 696 285 L 696 539 C 558 539 451 516 374 472 C 296 428 258 367 258 289 C 258 223 277 173 317 139 C 356 105 403 88 459 88 C 515 88 569 107 620 146 C 670 185 696 231 696 285 Z M 792 1417 L 860 1417 C 860 1351 839 1294 797 1248 C 755 1201 705 1178 647 1178 C 621 1178 597 1181 577 1187 C 557 1193 529 1205 493 1225 C 465 1239 441 1252 420 1262 C 398 1272 376 1278 354 1278 C 324 1278 299 1267 279 1245 C 259 1223 249 1197 247 1169 L 180 1169 C 180 1235 200 1292 242 1339 C 283 1385 333 1409 393 1409 C 425 1409 451 1405 471 1399 C 490 1392 515 1381 546 1366 C 574 1350 600 1337 622 1326 C 644 1314 665 1309 685 1309 C 715 1309 739 1319 759 1341 C 779 1363 790 1388 792 1417 Z" unicode="" />
<glyph horiz-adv-x="1053" d="M 1030 133 L 1073 86 C 1052 53 1026 28 994 12 C 962 -3 929 -12 895 -12 C 856 -12 820 0 788 24 C 755 48 733 83 721 127 C 676 73 625 35 569 13 C 513 -8 457 -20 401 -20 C 314 -20 237 4 169 54 C 101 104 68 176 68 272 C 68 372 119 456 222 524 C 325 591 483 625 696 625 C 696 724 676 800 638 852 C 599 904 546 930 479 930 C 458 930 438 929 420 927 C 401 925 385 922 371 920 C 371 866 364 820 352 784 C 339 747 308 729 258 729 C 221 729 194 737 176 754 C 158 770 150 795 150 829 C 150 871 177 913 233 956 C 288 998 369 1020 475 1020 C 623 1020 728 984 789 912 C 850 840 881 745 881 629 L 881 209 C 881 179 888 156 902 138 C 916 120 939 111 969 111 C 979 111 989 113 1001 118 C 1012 123 1022 128 1030 133 Z M 696 285 L 696 539 C 558 539 451 516 374 472 C 296 428 258 367 258 289 C 258 223 277 173 317 139 C 356 105 403 88 459 88 C 515 88 569 107 620 146 C 670 185 696 231 696 285 Z M 407 1290 C 407 1259 395 1232 373 1210 C 350 1187 323 1176 293 1176 C 262 1176 235 1187 212 1210 C 189 1232 178 1259 178 1290 C 178 1320 189 1347 212 1370 C 235 1393 262 1405 293 1405 C 323 1405 350 1393 373 1370 C 395 1347 407 1320 407 1290 Z M 845 1290 C 845 1259 833 1232 811 1210 C 788 1187 761 1176 731 1176 C 700 1176 673 1187 650 1210 C 627 1232 616 1259 616 1290 C 616 1320 627 1347 650 1370 C 673 1393 700 1405 731 1405 C 761 1405 788 1393 811 1370 C 833 1347 845 1320 845 1290 Z" unicode="" />
<glyph horiz-adv-x="1053" d="M 1030 133 L 1073 86 C 1052 53 1026 28 994 12 C 962 -3 929 -12 895 -12 C 856 -12 820 0 788 24 C 755 48 733 83 721 127 C 676 73 625 35 569 13 C 513 -8 457 -20 401 -20 C 314 -20 237 4 169 54 C 101 104 68 176 68 272 C 68 372 119 456 222 524 C 325 591 483 625 696 625 C 696 724 676 800 638 852 C 599 904 546 930 479 930 C 458 930 438 929 420 927 C 401 925 385 922 371 920 C 371 866 364 820 352 784 C 339 747 308 729 258 729 C 221 729 194 737 176 754 C 158 770 150 795 150 829 C 150 871 177 913 233 956 C 288 998 369 1020 475 1020 C 623 1020 728 984 789 912 C 850 840 881 745 881 629 L 881 209 C 881 179 888 156 902 138 C 916 120 939 111 969 111 C 979 111 989 113 1001 118 C 1012 123 1022 128 1030 133 Z M 696 285 L 696 539 C 558 539 451 516 374 472 C 296 428 258 367 258 289 C 258 223 277 173 317 139 C 356 105 403 88 459 88 C 515 88 569 107 620 146 C 670 185 696 231 696 285 Z M 746 1337 C 746 1273 723 1219 679 1177 C 634 1135 578 1114 511 1114 C 443 1114 387 1134 342 1176 C 297 1218 275 1271 275 1337 C 275 1401 297 1454 342 1497 C 387 1539 443 1561 511 1561 C 578 1561 634 1539 679 1497 C 723 1454 746 1401 746 1337 Z M 629 1337 C 629 1387 618 1425 597 1453 C 575 1481 547 1495 511 1495 C 474 1495 445 1481 424 1453 C 402 1425 392 1387 392 1337 C 392 1287 402 1248 424 1221 C 445 1193 474 1180 511 1180 C 547 1180 575 1193 597 1221 C 618 1248 629 1287 629 1337 Z" unicode="" />
<glyph horiz-adv-x="1618" d="M 1565 537 L 866 537 C 866 411 889 306 937 222 C 984 138 1061 96 1167 96 C 1237 96 1301 113 1357 148 C 1413 182 1460 224 1499 272 L 1563 217 C 1541 172 1493 121 1419 65 C 1345 8 1255 -20 1151 -20 C 1063 -20 987 -2 923 33 C 858 69 806 116 766 174 C 706 92 645 40 585 16 C 524 -8 463 -20 401 -20 C 314 -20 237 4 169 54 C 101 104 68 176 68 272 C 68 372 119 456 222 524 C 325 591 483 625 696 625 C 696 724 676 800 638 852 C 599 904 546 930 479 930 C 458 930 438 929 420 927 C 401 925 385 922 371 920 C 371 866 364 820 352 784 C 339 747 308 729 258 729 C 221 729 194 737 176 754 C 158 770 150 795 150 829 C 150 871 177 913 233 956 C 288 998 369 1020 475 1020 C 562 1020 633 1006 689 978 C 745 950 787 913 817 866 C 857 912 904 949 960 978 C 1015 1007 1077 1022 1147 1022 C 1303 1022 1412 969 1473 864 C 1534 758 1565 649 1565 537 Z M 696 285 L 696 539 C 558 539 451 516 374 472 C 296 428 258 367 258 289 C 258 223 277 173 317 139 C 356 105 403 88 459 88 C 515 88 569 107 620 146 C 670 185 696 231 696 285 Z M 870 635 L 1378 635 C 1372 715 1352 785 1318 843 C 1284 901 1223 930 1137 930 C 1069 930 1011 902 962 846 C 913 790 882 720 870 635 Z" unicode="" />
<glyph horiz-adv-x="924" d="M 854 254 L 913 193 C 887 147 846 102 789 58 C 732 14 659 -11 569 -18 L 537 -94 C 599 -94 647 -107 683 -133 C 719 -159 737 -198 737 -250 C 737 -292 716 -330 675 -364 C 634 -398 569 -416 481 -416 C 429 -416 385 -405 350 -385 C 314 -364 283 -343 256 -322 L 295 -262 C 320 -281 348 -298 378 -312 C 408 -326 440 -334 473 -334 C 515 -334 544 -325 560 -308 C 576 -291 584 -273 584 -254 C 584 -232 575 -213 557 -197 C 539 -180 511 -172 473 -172 C 467 -172 460 -172 454 -172 C 448 -172 440 -173 432 -174 L 500 -18 C 383 -12 281 35 195 124 C 109 213 66 334 66 487 C 66 625 110 747 200 853 C 289 959 404 1012 545 1012 C 657 1012 739 989 791 943 C 843 897 870 851 870 805 C 870 757 859 723 837 705 C 815 687 791 678 766 678 C 734 678 707 685 685 701 C 663 717 653 740 653 772 C 653 784 655 801 660 822 C 665 842 671 863 678 885 C 664 893 644 902 617 910 C 590 918 558 922 520 922 C 431 922 365 882 323 802 C 281 722 260 628 260 522 C 260 420 283 323 330 233 C 376 143 453 98 559 98 C 630 98 687 113 731 144 C 775 175 816 212 854 254 Z" unicode="" />
<glyph horiz-adv-x="1012" d="M 958 537 L 252 537 C 252 411 276 306 326 222 C 375 138 453 96 559 96 C 628 96 691 113 748 148 C 804 182 853 224 893 272 L 956 217 C 934 172 886 121 812 65 C 737 8 647 -20 543 -20 C 387 -20 269 31 188 134 C 106 236 66 353 66 485 C 66 617 107 739 190 852 C 272 965 389 1022 539 1022 C 675 1022 778 976 850 885 C 922 794 958 678 958 537 Z M 258 635 L 770 635 C 763 727 740 799 702 851 C 663 903 604 930 526 930 C 460 930 402 902 352 846 C 302 790 270 720 258 635 Z M 510 1440 L 764 1149 L 715 1114 L 395 1298 C 365 1315 343 1333 329 1351 C 314 1369 307 1388 307 1407 C 307 1431 315 1453 331 1471 C 347 1489 368 1499 395 1499 C 412 1499 430 1495 448 1488 C 466 1481 487 1465 510 1440 Z" unicode="" />
<glyph horiz-adv-x="1012" d="M 958 537 L 252 537 C 252 411 276 306 326 222 C 375 138 453 96 559 96 C 628 96 691 113 748 148 C 804 182 853 224 893 272 L 956 217 C 934 172 886 121 812 65 C 737 8 647 -20 543 -20 C 387 -20 269 31 188 134 C 106 236 66 353 66 485 C 66 617 107 739 190 852 C 272 965 389 1022 539 1022 C 675 1022 778 976 850 885 C 922 794 958 678 958 537 Z M 258 635 L 770 635 C 763 727 740 799 702 851 C 663 903 604 930 526 930 C 460 930 402 902 352 846 C 302 790 270 720 258 635 Z M 784 1407 C 784 1388 776 1369 762 1351 C 747 1333 725 1315 696 1298 L 377 1114 L 327 1149 L 581 1440 C 603 1465 624 1481 642 1488 C 660 1495 678 1499 696 1499 C 722 1499 744 1489 760 1471 C 776 1453 784 1431 784 1407 Z" unicode="" />
<glyph horiz-adv-x="1012" d="M 958 537 L 252 537 C 252 411 276 306 326 222 C 375 138 453 96 559 96 C 628 96 691 113 748 148 C 804 182 853 224 893 272 L 956 217 C 934 172 886 121 812 65 C 737 8 647 -20 543 -20 C 387 -20 269 31 188 134 C 106 236 66 353 66 485 C 66 617 107 739 190 852 C 272 965 389 1022 539 1022 C 675 1022 778 976 850 885 C 922 794 958 678 958 537 Z M 258 635 L 770 635 C 763 727 740 799 702 851 C 663 903 604 930 526 930 C 460 930 402 902 352 846 C 302 790 270 720 258 635 Z M 595 1470 L 874 1116 L 792 1116 L 534 1313 L 276 1116 L 194 1116 L 472 1470 L 595 1470 Z" unicode="" />
<glyph horiz-adv-x="1010" d="M 958 537 L 252 537 C 252 411 276 306 326 222 C 375 138 453 96 559 96 C 628 96 691 113 748 148 C 804 182 853 224 893 272 L 956 217 C 934 172 886 121 812 65 C 737 8 647 -20 543 -20 C 387 -20 269 31 188 134 C 106 236 66 353 66 485 C 66 617 107 739 190 852 C 272 965 389 1022 539 1022 C 675 1022 778 976 850 885 C 922 794 958 678 958 537 Z M 258 635 L 770 635 C 763 727 740 799 702 851 C 663 903 604 930 526 930 C 460 930 402 902 352 846 C 302 790 270 720 258 635 Z M 429 1290 C 429 1259 417 1232 395 1210 C 372 1187 345 1176 315 1176 C 284 1176 257 1187 234 1210 C 211 1232 200 1259 200 1290 C 200 1320 211 1347 234 1370 C 257 1393 284 1405 315 1405 C 345 1405 372 1393 395 1370 C 417 1347 429 1320 429 1290 Z M 867 1290 C 867 1259 855 1232 833 1210 C 810 1187 783 1176 753 1176 C 722 1176 695 1187 672 1210 C 649 1232 638 1259 638 1290 C 638 1320 649 1347 672 1370 C 695 1393 722 1405 753 1405 C 783 1405 810 1393 833 1370 C 855 1347 867 1320 867 1290 Z" unicode="" />
<glyph horiz-adv-x="575" d="M 492 45 L 492 0 L 96 0 L 96 45 C 96 53 99 59 107 62 C 115 64 129 70 150 80 C 175 92 190 101 195 108 C 200 115 203 133 203 162 L 203 807 C 203 835 199 856 193 870 C 187 883 171 894 145 903 C 123 910 109 916 101 920 C 93 924 90 930 90 938 L 90 983 L 387 1004 L 387 162 C 387 133 389 115 394 109 C 399 102 415 92 442 80 C 460 70 473 64 481 61 C 488 58 492 53 492 45 Z M 222 1440 L 476 1149 L 427 1114 L 107 1298 C 77 1315 55 1333 41 1351 C 26 1369 19 1388 19 1407 C 19 1431 27 1453 43 1471 C 59 1489 80 1499 107 1499 C 124 1499 142 1495 160 1488 C 178 1481 199 1465 222 1440 Z" unicode="" />
<glyph horiz-adv-x="575" d="M 492 45 L 492 0 L 96 0 L 96 45 C 96 53 99 59 107 62 C 115 64 129 70 150 80 C 175 92 190 101 195 108 C 200 115 203 133 203 162 L 203 807 C 203 835 199 856 193 870 C 187 883 171 894 145 903 C 123 910 109 916 101 920 C 93 924 90 930 90 938 L 90 983 L 387 1004 L 387 162 C 387 133 389 115 394 109 C 399 102 415 92 442 80 C 460 70 473 64 481 61 C 488 58 492 53 492 45 Z M 537 1407 C 537 1388 529 1369 515 1351 C 500 1333 478 1315 449 1298 L 130 1114 L 80 1149 L 334 1440 C 356 1465 377 1481 395 1488 C 413 1495 431 1499 449 1499 C 475 1499 497 1489 513 1471 C 529 1453 537 1431 537 1407 Z" unicode="" />
<glyph horiz-adv-x="575" d="M 492 45 L 492 0 L 96 0 L 96 45 C 96 53 99 59 107 62 C 115 64 129 70 150 80 C 175 92 190 101 195 108 C 200 115 203 133 203 162 L 203 807 C 203 835 199 856 193 870 C 187 883 171 894 145 903 C 123 910 109 916 101 920 C 93 924 90 930 90 938 L 90 983 L 387 1004 L 387 162 C 387 133 389 115 394 109 C 399 102 415 92 442 80 C 460 70 473 64 481 61 C 488 58 492 53 492 45 Z M 324 1470 L 603 1116 L 521 1116 L 263 1313 L 5 1116 L -77 1116 L 201 1470 L 324 1470 Z" unicode="" />
<glyph horiz-adv-x="575" d="M 170 1290 C 170 1259 158 1232 135 1210 C 112 1187 85 1176 55 1176 C 24 1176 -2 1187 -25 1210 C -47 1232 -59 1259 -59 1290 C -59 1320 -47 1347 -25 1370 C -2 1393 24 1405 55 1405 C 85 1405 112 1393 135 1370 C 158 1347 170 1320 170 1290 Z M 588 1290 C 588 1259 576 1232 553 1210 C 530 1187 503 1176 473 1176 C 442 1176 415 1187 392 1210 C 369 1232 358 1259 358 1290 C 358 1320 369 1347 392 1370 C 415 1393 442 1405 473 1405 C 503 1405 530 1393 553 1370 C 576 1347 588 1320 588 1290 Z M 492 45 L 492 0 L 96 0 L 96 45 C 96 53 99 59 107 62 C 115 64 129 70 150 80 C 175 92 190 101 195 108 C 200 115 203 133 203 162 L 203 807 C 203 835 199 856 193 870 C 187 883 171 894 145 903 C 123 910 109 916 101 920 C 93 924 90 930 90 938 L 90 983 L 387 1004 L 387 162 C 387 133 389 115 394 109 C 399 102 415 92 442 80 C 460 70 473 64 481 61 C 488 58 492 53 492 45 Z" unicode="" />
<glyph horiz-adv-x="1223" d="M 1157 45 L 1157 0 L 758 0 L 758 45 C 758 53 761 59 769 62 C 776 64 789 70 809 80 C 836 92 852 102 857 109 C 861 115 864 133 864 162 L 864 682 C 864 754 842 807 800 841 C 758 875 706 893 645 893 C 595 893 545 881 496 858 C 446 834 408 804 381 766 L 383 162 C 383 133 385 115 390 109 C 395 102 411 92 438 80 C 456 70 469 64 476 61 C 483 58 487 53 487 45 L 487 0 L 92 0 L 92 45 C 92 53 95 59 102 62 C 109 64 123 70 145 80 C 171 92 186 101 191 108 C 196 115 199 133 199 162 L 199 807 C 199 835 195 856 189 870 C 182 883 165 894 139 903 C 118 910 104 916 97 920 C 89 924 86 930 86 938 L 86 983 L 369 1004 L 369 866 C 404 902 450 935 508 965 C 566 995 632 1010 707 1010 C 815 1010 899 979 960 918 C 1020 857 1051 776 1051 674 L 1051 162 C 1051 133 1053 115 1058 109 C 1063 102 1079 92 1106 80 C 1125 70 1138 64 1146 61 C 1153 58 1157 53 1157 45 Z M 899 1417 L 967 1417 C 967 1351 946 1294 904 1248 C 862 1201 812 1178 754 1178 C 728 1178 704 1181 684 1187 C 664 1193 636 1205 600 1225 C 572 1239 548 1252 527 1262 C 505 1272 483 1278 461 1278 C 431 1278 406 1267 386 1245 C 366 1223 356 1197 354 1169 L 287 1169 C 287 1235 307 1292 349 1339 C 390 1385 440 1409 500 1409 C 532 1409 558 1405 578 1399 C 597 1392 622 1381 653 1366 C 681 1350 707 1337 729 1326 C 751 1314 772 1309 792 1309 C 822 1309 846 1319 866 1341 C 886 1363 897 1388 899 1417 Z" unicode="" />
<glyph horiz-adv-x="1102" d="M 1036 500 C 1036 350 990 225 900 127 C 809 29 693 -20 551 -20 C 408 -20 291 28 201 126 C 111 223 66 348 66 500 C 66 650 111 774 201 873 C 291 972 408 1022 551 1022 C 693 1022 809 972 900 873 C 990 774 1036 650 1036 500 Z M 838 500 C 838 633 813 737 764 813 C 714 888 643 926 551 926 C 458 926 387 888 338 813 C 288 737 264 633 264 500 C 264 366 288 261 338 186 C 387 111 458 74 551 74 C 643 74 714 111 764 186 C 813 261 838 366 838 500 Z M 532 1440 L 786 1149 L 737 1114 L 417 1298 C 387 1315 365 1333 351 1351 C 336 1369 329 1388 329 1407 C 329 1431 337 1453 353 1471 C 369 1489 390 1499 417 1499 C 434 1499 452 1495 470 1488 C 488 1481 509 1465 532 1440 Z" unicode="" />
<glyph horiz-adv-x="1102" d="M 1036 500 C 1036 350 990 225 900 127 C 809 29 693 -20 551 -20 C 408 -20 291 28 201 126 C 111 223 66 348 66 500 C 66 650 111 774 201 873 C 291 972 408 1022 551 1022 C 693 1022 809 972 900 873 C 990 774 1036 650 1036 500 Z M 838 500 C 838 633 813 737 764 813 C 714 888 643 926 551 926 C 458 926 387 888 338 813 C 288 737 264 633 264 500 C 264 366 288 261 338 186 C 387 111 458 74 551 74 C 643 74 714 111 764 186 C 813 261 838 366 838 500 Z M 808 1407 C 808 1388 800 1369 786 1351 C 771 1333 749 1315 720 1298 L 401 1114 L 351 1149 L 605 1440 C 627 1465 648 1481 666 1488 C 684 1495 702 1499 720 1499 C 746 1499 768 1489 784 1471 C 800 1453 808 1431 808 1407 Z" unicode="" />
<glyph horiz-adv-x="1102" d="M 1036 500 C 1036 350 990 225 900 127 C 809 29 693 -20 551 -20 C 408 -20 291 28 201 126 C 111 223 66 348 66 500 C 66 650 111 774 201 873 C 291 972 408 1022 551 1022 C 693 1022 809 972 900 873 C 990 774 1036 650 1036 500 Z M 838 500 C 838 633 813 737 764 813 C 714 888 643 926 551 926 C 458 926 387 888 338 813 C 288 737 264 633 264 500 C 264 366 288 261 338 186 C 387 111 458 74 551 74 C 643 74 714 111 764 186 C 813 261 838 366 838 500 Z M 612 1470 L 891 1116 L 809 1116 L 551 1313 L 293 1116 L 211 1116 L 489 1470 L 612 1470 Z" unicode="" />
<glyph horiz-adv-x="1102" d="M 1036 500 C 1036 350 990 225 900 127 C 809 29 693 -20 551 -20 C 408 -20 291 28 201 126 C 111 223 66 348 66 500 C 66 650 111 774 201 873 C 291 972 408 1022 551 1022 C 693 1022 809 972 900 873 C 990 774 1036 650 1036 500 Z M 838 500 C 838 633 813 737 764 813 C 714 888 643 926 551 926 C 458 926 387 888 338 813 C 288 737 264 633 264 500 C 264 366 288 261 338 186 C 387 111 458 74 551 74 C 643 74 714 111 764 186 C 813 261 838 366 838 500 Z M 823 1417 L 891 1417 C 891 1351 870 1294 828 1248 C 786 1201 736 1178 678 1178 C 652 1178 628 1181 608 1187 C 588 1193 560 1205 524 1225 C 496 1239 472 1252 451 1262 C 429 1272 407 1278 385 1278 C 355 1278 330 1267 310 1245 C 290 1223 280 1197 278 1169 L 211 1169 C 211 1235 231 1292 273 1339 C 314 1385 364 1409 424 1409 C 456 1409 482 1405 502 1399 C 521 1392 546 1381 577 1366 C 605 1350 631 1337 653 1326 C 675 1314 696 1309 716 1309 C 746 1309 770 1319 790 1341 C 810 1363 821 1388 823 1417 Z" unicode="" />
<glyph horiz-adv-x="1102" d="M 1036 500 C 1036 350 990 225 900 127 C 809 29 693 -20 551 -20 C 408 -20 291 28 201 126 C 111 223 66 348 66 500 C 66 650 111 774 201 873 C 291 972 408 1022 551 1022 C 693 1022 809 972 900 873 C 990 774 1036 650 1036 500 Z M 838 500 C 838 633 813 737 764 813 C 714 888 643 926 551 926 C 458 926 387 888 338 813 C 288 737 264 633 264 500 C 264 366 288 261 338 186 C 387 111 458 74 551 74 C 643 74 714 111 764 186 C 813 261 838 366 838 500 Z M 446 1290 C 446 1259 434 1232 412 1210 C 389 1187 362 1176 332 1176 C 301 1176 274 1187 251 1210 C 228 1232 217 1259 217 1290 C 217 1320 228 1347 251 1370 C 274 1393 301 1405 332 1405 C 362 1405 389 1393 412 1370 C 434 1347 446 1320 446 1290 Z M 884 1290 C 884 1259 872 1232 850 1210 C 827 1187 800 1176 770 1176 C 739 1176 712 1187 689 1210 C 666 1232 655 1259 655 1290 C 655 1320 666 1347 689 1370 C 712 1393 739 1405 770 1405 C 800 1405 827 1393 850 1370 C 872 1347 884 1320 884 1290 Z" unicode="" />
<glyph horiz-adv-x="1548" d="M 905 227 C 905 191 892 160 867 134 C 841 108 810 96 774 96 C 737 96 706 108 681 134 C 655 160 643 191 643 227 C 643 263 655 294 681 320 C 706 345 737 358 774 358 C 810 358 841 345 867 320 C 892 294 905 263 905 227 Z M 905 973 C 905 936 892 905 867 880 C 841 854 810 842 774 842 C 737 842 706 854 681 880 C 655 905 643 936 643 973 C 643 1009 655 1040 681 1066 C 706 1091 737 1104 774 1104 C 810 1104 841 1091 867 1066 C 892 1040 905 1009 905 973 Z M 1309 664 L 1309 537 L 240 537 L 240 664 L 1309 664 Z" unicode="" />
<glyph horiz-adv-x="1102" d="M 1036 500 C 1036 424 1024 355 1000 291 C 976 227 943 173 900 127 C 857 81 806 45 747 19 C 687 -7 622 -20 551 -20 C 507 -20 464 -14 424 -4 C 384 6 346 21 311 41 L 225 -94 L 127 -96 L 244 90 C 189 136 146 194 114 264 C 82 334 66 412 66 500 C 66 575 77 644 101 708 C 125 772 158 827 201 874 C 243 920 294 957 354 983 C 413 1009 479 1022 551 1022 C 594 1022 636 1016 676 1005 C 716 994 753 978 788 958 L 874 1094 L 977 1094 L 858 909 C 912 861 956 803 988 734 C 1020 664 1036 586 1036 500 Z M 729 862 C 706 882 680 898 650 909 C 620 920 587 926 551 926 C 504 926 462 916 426 897 C 390 877 359 849 334 813 C 309 777 290 732 277 679 C 264 626 258 566 258 500 C 258 439 263 383 273 333 C 283 282 297 239 317 203 L 729 862 Z M 844 500 C 844 560 839 616 829 667 C 819 717 804 761 784 797 L 373 137 C 419 95 478 74 551 74 C 597 74 639 83 675 102 C 711 121 742 149 767 186 C 792 222 811 267 824 320 C 837 372 844 432 844 500 Z" unicode="" />
<glyph horiz-adv-x="1206" d="M 1133 61 L 1133 16 L 862 -2 L 862 127 C 825 89 779 55 723 25 C 667 -5 598 -20 516 -20 C 409 -20 326 14 266 83 C 206 152 176 237 176 338 L 176 813 C 176 840 172 860 165 872 C 157 884 140 894 113 903 C 93 910 80 916 73 920 C 66 924 63 930 63 938 L 63 983 L 360 1004 L 360 305 C 360 233 382 181 427 147 C 471 113 524 96 584 96 C 634 96 682 108 729 132 C 776 156 814 187 842 225 L 842 813 C 842 840 838 860 830 872 C 822 884 804 894 778 903 C 758 910 745 916 737 920 C 729 924 725 930 725 938 L 725 983 L 1022 1004 L 1022 178 C 1022 150 1025 133 1032 125 C 1038 117 1055 106 1083 94 C 1101 86 1114 80 1122 78 C 1129 75 1133 69 1133 61 Z M 557 1440 L 811 1149 L 762 1114 L 442 1298 C 412 1315 390 1333 376 1351 C 361 1369 354 1388 354 1407 C 354 1431 362 1453 378 1471 C 394 1489 415 1499 442 1499 C 459 1499 477 1495 495 1488 C 513 1481 534 1465 557 1440 Z" unicode="" />
<glyph horiz-adv-x="1206" d="M 1133 61 L 1133 16 L 862 -2 L 862 127 C 825 89 779 55 723 25 C 667 -5 598 -20 516 -20 C 409 -20 326 14 266 83 C 206 152 176 237 176 338 L 176 813 C 176 840 172 860 165 872 C 157 884 140 894 113 903 C 93 910 80 916 73 920 C 66 924 63 930 63 938 L 63 983 L 360 1004 L 360 305 C 360 233 382 181 427 147 C 471 113 524 96 584 96 C 634 96 682 108 729 132 C 776 156 814 187 842 225 L 842 813 C 842 840 838 860 830 872 C 822 884 804 894 778 903 C 758 910 745 916 737 920 C 729 924 725 930 725 938 L 725 983 L 1022 1004 L 1022 178 C 1022 150 1025 133 1032 125 C 1038 117 1055 106 1083 94 C 1101 86 1114 80 1122 78 C 1129 75 1133 69 1133 61 Z M 870 1407 C 870 1388 862 1369 848 1351 C 833 1333 811 1315 782 1298 L 463 1114 L 413 1149 L 667 1440 C 689 1465 710 1481 728 1488 C 746 1495 764 1499 782 1499 C 808 1499 830 1489 846 1471 C 862 1453 870 1431 870 1407 Z" unicode="" />
<glyph horiz-adv-x="1206" d="M 1133 61 L 1133 16 L 862 -2 L 862 127 C 825 89 779 55 723 25 C 667 -5 598 -20 516 -20 C 409 -20 326 14 266 83 C 206 152 176 237 176 338 L 176 813 C 176 840 172 860 165 872 C 157 884 140 894 113 903 C 93 910 80 916 73 920 C 66 924 63 930 63 938 L 63 983 L 360 1004 L 360 305 C 360 233 382 181 427 147 C 471 113 524 96 584 96 C 634 96 682 108 729 132 C 776 156 814 187 842 225 L 842 813 C 842 840 838 860 830 872 C 822 884 804 894 778 903 C 758 910 745 916 737 920 C 729 924 725 930 725 938 L 725 983 L 1022 1004 L 1022 178 C 1022 150 1025 133 1032 125 C 1038 117 1055 106 1083 94 C 1101 86 1114 80 1122 78 C 1129 75 1133 69 1133 61 Z M 655 1470 L 934 1116 L 852 1116 L 594 1313 L 336 1116 L 254 1116 L 532 1470 L 655 1470 Z" unicode="" />
<glyph horiz-adv-x="1206" d="M 1133 61 L 1133 16 L 862 -2 L 862 127 C 825 89 779 55 723 25 C 667 -5 598 -20 516 -20 C 409 -20 326 14 266 83 C 206 152 176 237 176 338 L 176 813 C 176 840 172 860 165 872 C 157 884 140 894 113 903 C 93 910 80 916 73 920 C 66 924 63 930 63 938 L 63 983 L 360 1004 L 360 305 C 360 233 382 181 427 147 C 471 113 524 96 584 96 C 634 96 682 108 729 132 C 776 156 814 187 842 225 L 842 813 C 842 840 838 860 830 872 C 822 884 804 894 778 903 C 758 910 745 916 737 920 C 729 924 725 930 725 938 L 725 983 L 1022 1004 L 1022 178 C 1022 150 1025 133 1032 125 C 1038 117 1055 106 1083 94 C 1101 86 1114 80 1122 78 C 1129 75 1133 69 1133 61 Z M 479 1290 C 479 1259 467 1232 445 1210 C 422 1187 395 1176 365 1176 C 334 1176 307 1187 284 1210 C 261 1232 250 1259 250 1290 C 250 1320 261 1347 284 1370 C 307 1393 334 1405 365 1405 C 395 1405 422 1393 445 1370 C 467 1347 479 1320 479 1290 Z M 917 1290 C 917 1259 905 1232 883 1210 C 860 1187 833 1176 803 1176 C 772 1176 745 1187 722 1210 C 699 1232 688 1259 688 1290 C 688 1320 699 1347 722 1370 C 745 1393 772 1405 803 1405 C 833 1405 860 1393 883 1370 C 905 1347 917 1320 917 1290 Z" unicode="" />
<glyph horiz-adv-x="1047" d="M 1057 981 L 1057 936 C 1057 928 1052 921 1043 917 C 1034 912 1024 907 1012 901 C 983 886 962 868 949 846 C 935 824 921 797 907 764 L 575 -10 C 507 -171 442 -277 382 -329 C 321 -380 260 -406 199 -406 C 160 -406 126 -394 96 -372 C 66 -350 51 -321 51 -285 C 51 -254 61 -226 81 -202 C 101 -178 127 -166 160 -166 C 195 -166 222 -177 241 -201 C 259 -224 270 -251 272 -281 C 310 -267 348 -229 386 -165 C 424 -101 454 -40 477 18 L 117 838 C 111 848 105 859 99 869 C 93 879 78 890 55 901 C 36 910 23 916 15 919 C 7 922 4 928 4 936 L 4 981 L 424 981 L 426 936 C 426 928 422 922 414 919 C 406 915 393 910 375 903 C 350 895 336 885 332 875 C 328 864 326 854 326 846 C 326 841 327 832 330 819 C 332 806 336 795 340 786 L 569 219 L 788 760 C 792 768 797 781 801 799 C 805 816 807 830 807 842 C 807 852 801 862 791 872 C 780 881 762 891 737 901 C 723 907 712 913 704 919 C 696 925 692 931 692 938 L 692 981 L 1057 981 Z M 849 1407 C 849 1388 841 1369 827 1351 C 812 1333 790 1315 761 1298 L 442 1114 L 392 1149 L 646 1440 C 668 1465 689 1481 707 1488 C 725 1495 743 1499 761 1499 C 787 1499 809 1489 825 1471 C 841 1453 849 1431 849 1407 Z" unicode="" />
<glyph horiz-adv-x="1047" d="M 1057 981 L 1057 936 C 1057 928 1052 921 1043 917 C 1034 912 1024 907 1012 901 C 983 886 962 868 949 846 C 935 824 921 797 907 764 L 575 -10 C 507 -171 442 -277 382 -329 C 321 -380 260 -406 199 -406 C 160 -406 126 -394 96 -372 C 66 -350 51 -321 51 -285 C 51 -254 61 -226 81 -202 C 101 -178 127 -166 160 -166 C 195 -166 222 -177 241 -201 C 259 -224 270 -251 272 -281 C 310 -267 348 -229 386 -165 C 424 -101 454 -40 477 18 L 117 838 C 111 848 105 859 99 869 C 93 879 78 890 55 901 C 36 910 23 916 15 919 C 7 922 4 928 4 936 L 4 981 L 424 981 L 426 936 C 426 928 422 922 414 919 C 406 915 393 910 375 903 C 350 895 336 885 332 875 C 328 864 326 854 326 846 C 326 841 327 832 330 819 C 332 806 336 795 340 786 L 569 219 L 788 760 C 792 768 797 781 801 799 C 805 816 807 830 807 842 C 807 852 801 862 791 872 C 780 881 762 891 737 901 C 723 907 712 913 704 919 C 696 925 692 931 692 938 L 692 981 L 1057 981 Z M 444 1290 C 444 1259 432 1232 410 1210 C 387 1187 360 1176 330 1176 C 299 1176 272 1187 249 1210 C 226 1232 215 1259 215 1290 C 215 1320 226 1347 249 1370 C 272 1393 299 1405 330 1405 C 360 1405 387 1393 410 1370 C 432 1347 444 1320 444 1290 Z M 882 1290 C 882 1259 870 1232 848 1210 C 825 1187 798 1176 768 1176 C 737 1176 710 1187 687 1210 C 664 1232 653 1259 653 1290 C 653 1320 664 1347 687 1370 C 710 1393 737 1405 768 1405 C 798 1405 825 1393 848 1370 C 870 1347 882 1320 882 1290 Z" unicode="" />
<glyph horiz-adv-x="575" d="M 492 45 L 492 0 L 96 0 L 96 45 C 96 53 99 59 107 62 C 115 64 129 70 150 80 C 175 92 190 101 195 108 C 200 115 203 133 203 162 L 203 807 C 203 835 199 856 193 870 C 187 883 171 894 145 903 C 123 910 109 916 101 920 C 93 924 90 930 90 938 L 90 983 L 387 1004 L 387 162 C 387 133 389 115 394 109 C 399 102 415 92 442 80 C 460 70 473 64 481 61 C 488 58 492 53 492 45 Z" unicode="" />
<glyph horiz-adv-x="1174" d="M 1147 0 L 82 0 L 82 51 C 82 56 82 60 84 63 C 85 66 88 69 92 72 C 96 74 101 77 108 80 C 115 82 125 86 137 92 C 150 98 161 103 169 107 C 177 111 184 115 189 120 C 193 124 196 130 198 137 C 200 144 201 154 201 166 L 201 657 L 59 569 L 59 684 L 201 770 L 201 1329 C 201 1339 200 1347 199 1354 C 197 1360 194 1366 190 1372 C 186 1378 180 1383 172 1388 C 164 1392 153 1397 141 1403 C 129 1407 119 1411 112 1414 C 105 1416 100 1419 96 1422 C 92 1424 89 1427 88 1431 C 86 1434 86 1438 86 1444 L 86 1495 L 520 1495 L 520 1444 C 520 1438 519 1434 518 1431 C 516 1427 514 1424 510 1422 C 506 1419 501 1416 495 1414 C 488 1411 479 1407 469 1403 C 455 1397 445 1392 437 1388 C 429 1384 422 1380 418 1376 C 414 1371 411 1365 410 1358 C 408 1350 408 1341 408 1329 L 408 864 L 649 1014 L 649 895 L 408 752 L 408 100 L 842 100 C 870 100 894 103 914 110 C 934 117 951 129 967 145 C 983 161 997 181 1010 207 C 1022 232 1036 263 1051 299 C 1055 313 1059 324 1065 330 C 1070 336 1079 340 1092 340 L 1147 340 L 1147 0 Z" unicode="" />
<glyph horiz-adv-x="575" d="M 528 827 L 381 737 L 381 162 C 381 147 381 136 382 128 C 382 120 384 113 388 108 C 392 103 397 99 405 95 C 412 91 422 86 436 80 C 455 70 468 64 475 61 C 481 58 485 53 485 45 L 485 0 L 90 0 L 90 45 C 90 49 90 53 92 55 C 94 57 97 60 101 62 C 105 64 110 66 117 69 C 124 71 133 75 143 80 C 155 86 165 91 173 95 C 180 99 185 103 189 108 C 193 113 195 120 196 128 C 196 136 197 147 197 162 L 197 664 L 57 575 L 57 684 L 197 768 L 197 1303 C 197 1324 193 1341 187 1354 C 181 1367 165 1379 141 1391 C 119 1401 105 1408 97 1412 C 89 1416 86 1422 86 1432 L 86 1477 L 381 1495 L 381 842 L 528 934 L 528 827 Z" unicode="" />
<glyph horiz-adv-x="2032" d="M 1976 336 L 1976 0 L 874 0 C 626 0 432 69 291 208 C 150 346 80 526 80 748 C 80 970 149 1150 289 1288 C 429 1426 608 1495 827 1495 L 1690 1495 C 1715 1495 1748 1497 1790 1501 C 1831 1505 1861 1509 1880 1511 L 1880 1208 L 1833 1208 C 1817 1208 1806 1210 1798 1216 C 1790 1222 1784 1230 1780 1241 C 1756 1304 1734 1345 1713 1365 C 1691 1385 1645 1395 1573 1395 L 1239 1395 L 1239 817 L 1430 817 C 1467 817 1492 824 1506 840 C 1520 855 1535 881 1552 918 C 1558 930 1565 940 1572 946 C 1578 952 1590 956 1608 956 L 1653 956 L 1653 584 L 1602 584 C 1586 584 1574 588 1566 597 C 1557 606 1550 616 1546 627 C 1528 662 1513 685 1500 697 C 1487 709 1465 715 1434 715 L 1239 715 L 1239 100 L 1671 100 C 1728 100 1770 114 1798 143 C 1825 172 1852 223 1880 295 C 1884 309 1889 320 1894 326 C 1899 332 1908 336 1921 336 L 1976 336 Z M 1032 213 L 1032 1284 C 1032 1341 1018 1374 992 1384 C 965 1394 929 1399 883 1399 C 701 1399 561 1347 461 1243 C 361 1139 311 974 311 748 C 311 529 363 366 468 258 C 573 150 719 96 907 96 C 949 96 981 104 1001 120 C 1021 136 1032 167 1032 213 Z" unicode="" />
<glyph horiz-adv-x="1759" d="M 1706 537 L 1004 537 C 1004 411 1028 306 1077 222 C 1125 138 1203 96 1309 96 C 1378 96 1441 113 1497 148 C 1553 182 1600 224 1640 272 L 1704 217 C 1682 172 1634 121 1560 65 C 1486 8 1396 -20 1292 -20 C 1207 -20 1133 -1 1070 36 C 1006 74 955 119 915 172 C 873 116 821 70 759 34 C 697 -1 627 -20 549 -20 C 406 -20 290 28 200 126 C 110 223 66 348 66 500 C 66 650 110 774 200 873 C 290 972 406 1022 549 1022 C 629 1022 701 1002 765 964 C 828 925 881 877 924 819 C 964 874 1014 922 1076 962 C 1138 1002 1208 1022 1288 1022 C 1445 1022 1554 969 1615 864 C 1675 758 1706 649 1706 537 Z M 831 500 C 831 633 807 737 759 813 C 711 888 641 926 549 926 C 455 926 384 888 336 813 C 288 737 264 633 264 500 C 264 366 288 261 336 186 C 384 111 455 74 549 74 C 641 74 711 111 759 186 C 807 261 831 366 831 500 Z M 1010 635 L 1518 635 C 1511 715 1491 785 1457 843 C 1423 901 1363 930 1276 930 C 1210 930 1152 902 1102 846 C 1052 790 1022 720 1010 635 Z" unicode="" />
<glyph horiz-adv-x="1133" d="M 911 1948 L 633 1593 L 510 1593 L 231 1948 L 313 1948 L 571 1751 L 829 1948 L 911 1948 Z M 1063 455 C 1063 397 1053 340 1033 284 C 1013 228 982 177 941 132 C 900 86 849 50 787 22 C 725 -6 653 -20 571 -20 C 538 -20 505 -17 473 -13 C 440 -9 410 -4 382 2 C 354 8 329 14 309 21 C 288 27 273 33 264 39 C 254 43 246 46 238 49 C 230 51 224 53 219 53 C 209 53 202 51 198 47 C 193 43 188 38 184 31 C 176 19 168 11 160 7 C 152 2 144 0 137 0 L 80 0 L 80 403 L 143 403 C 148 403 152 402 156 402 C 160 402 163 400 167 398 C 170 396 173 392 176 387 C 179 382 182 375 186 367 C 206 315 231 270 260 234 C 289 197 320 167 354 145 C 387 122 422 105 459 95 C 496 85 533 80 571 80 C 613 80 654 86 692 99 C 730 111 763 130 791 155 C 819 179 842 210 858 247 C 874 284 883 327 883 375 C 883 415 876 450 864 480 C 851 509 834 534 812 556 C 790 578 765 596 736 612 C 707 627 677 641 645 653 C 621 662 600 671 581 679 C 562 687 544 694 527 702 C 509 709 492 716 475 723 C 458 730 440 737 422 745 C 370 765 326 790 289 818 C 252 846 222 876 198 909 C 174 941 156 975 144 1010 C 132 1045 127 1080 127 1114 C 127 1165 136 1215 155 1263 C 174 1311 202 1354 238 1392 C 274 1429 318 1459 371 1482 C 424 1504 485 1516 553 1516 C 585 1516 622 1511 662 1502 C 702 1493 745 1475 793 1448 C 804 1440 815 1435 825 1431 C 835 1427 846 1430 858 1440 C 870 1448 879 1454 883 1456 C 887 1458 893 1460 901 1460 L 948 1460 L 948 1102 L 883 1102 C 871 1102 863 1104 859 1109 C 855 1113 852 1120 850 1128 C 822 1218 781 1288 729 1339 C 677 1389 613 1415 537 1415 C 507 1415 478 1410 450 1400 C 421 1390 395 1376 373 1358 C 350 1340 332 1318 318 1293 C 304 1267 297 1239 297 1208 C 297 1173 300 1143 308 1119 C 316 1094 327 1072 342 1054 C 357 1036 376 1020 398 1006 C 420 992 447 978 477 965 C 514 947 553 931 595 916 C 637 900 677 885 715 870 C 836 822 924 762 980 691 C 1035 619 1063 541 1063 455 Z" unicode="" />
<glyph horiz-adv-x="903" d="M 821 1470 L 543 1116 L 420 1116 L 141 1470 L 223 1470 L 481 1274 L 739 1470 L 821 1470 Z M 844 276 C 844 245 835 212 819 178 C 802 143 777 111 745 82 C 713 52 672 28 624 9 C 575 -10 519 -20 455 -20 C 397 -20 345 -13 298 -1 C 250 10 210 27 177 47 C 143 67 117 89 99 114 C 81 138 72 163 72 188 C 72 204 74 220 78 235 C 82 249 88 262 97 274 C 106 285 117 294 131 301 C 144 307 160 311 180 311 C 198 311 214 307 228 301 C 241 294 252 285 261 275 C 269 265 275 254 279 242 C 283 230 285 219 285 209 C 285 194 282 180 276 166 C 270 152 265 140 260 129 C 272 119 288 110 306 102 C 324 94 343 87 363 82 C 383 76 403 72 423 70 C 443 67 461 66 479 66 C 505 66 530 69 554 77 C 578 85 600 96 620 110 C 639 124 654 142 666 164 C 678 185 684 210 684 238 C 684 264 676 286 662 306 C 647 326 629 343 607 358 C 585 373 562 386 537 396 C 511 406 488 416 467 424 C 428 437 388 451 348 465 C 307 479 270 498 236 520 C 202 542 175 570 153 604 C 131 638 121 681 121 733 C 121 769 130 805 149 839 C 168 873 194 903 226 929 C 258 955 294 976 336 992 C 377 1008 420 1016 465 1016 C 520 1016 568 1010 608 1000 C 648 989 680 976 706 960 C 732 944 751 926 763 907 C 775 888 782 870 782 854 C 782 816 772 786 752 766 C 732 745 708 735 680 735 C 648 735 624 744 606 764 C 588 784 580 808 580 838 C 580 845 580 855 582 868 C 584 880 586 893 590 907 C 567 914 545 920 525 924 C 505 928 479 930 449 930 C 427 930 405 926 384 919 C 363 911 345 901 329 888 C 313 875 300 859 290 840 C 280 821 276 800 276 778 C 276 752 282 730 295 712 C 308 694 327 677 353 662 C 378 647 409 632 446 618 C 483 604 525 588 573 571 C 625 551 668 531 703 511 C 738 490 766 468 787 444 C 807 420 822 395 831 367 C 839 339 844 309 844 276 Z" unicode="" />
<glyph horiz-adv-x="1282" d="M 1288 1495 L 1288 1454 C 1288 1444 1285 1436 1279 1430 C 1273 1424 1262 1417 1247 1409 C 1218 1392 1197 1379 1184 1369 C 1170 1359 1150 1332 1124 1290 L 752 682 L 752 166 C 752 146 756 132 764 123 C 772 113 788 103 813 92 C 835 83 850 77 857 73 C 864 69 868 61 868 51 L 868 0 L 424 0 L 424 51 C 424 61 427 68 434 72 C 441 75 456 82 479 92 C 505 103 523 112 532 120 C 540 127 545 142 545 166 L 545 678 L 139 1317 C 127 1337 114 1354 101 1367 C 88 1380 69 1392 45 1403 C 22 1411 7 1418 1 1422 C -4 1426 -8 1433 -8 1444 L -8 1495 L 453 1495 L 453 1462 C 453 1451 450 1443 446 1439 C 442 1434 429 1426 408 1415 C 391 1407 378 1399 368 1393 C 358 1387 354 1379 354 1370 C 354 1365 358 1354 367 1337 C 375 1319 382 1306 387 1298 L 696 801 L 993 1296 C 1001 1310 1009 1325 1016 1340 C 1022 1355 1026 1366 1026 1372 C 1026 1383 1020 1391 1009 1397 C 998 1403 985 1409 971 1415 C 949 1423 934 1431 926 1437 C 917 1443 913 1452 913 1462 L 913 1495 L 1288 1495 Z M 585 1744 C 585 1713 573 1686 551 1664 C 528 1641 501 1630 471 1630 C 440 1630 413 1641 390 1664 C 367 1686 356 1713 356 1744 C 356 1774 367 1801 390 1824 C 413 1847 440 1859 471 1859 C 501 1859 528 1847 551 1824 C 573 1801 585 1774 585 1744 Z M 1023 1744 C 1023 1713 1011 1686 989 1664 C 966 1641 939 1630 909 1630 C 878 1630 851 1641 828 1664 C 805 1686 794 1713 794 1744 C 794 1774 805 1801 828 1824 C 851 1847 878 1859 909 1859 C 939 1859 966 1847 989 1824 C 1011 1801 1023 1774 1023 1744 Z" unicode="" />
<glyph horiz-adv-x="1227" d="M 971 1948 L 692 1593 L 569 1593 L 291 1948 L 373 1948 L 631 1751 L 889 1948 L 971 1948 Z M 1163 -16 C 1153 -15 1140 -14 1122 -12 C 1104 -10 1084 -8 1064 -6 C 1044 -4 1023 -3 1003 -2 C 983 0 966 0 952 0 L 49 0 L 49 37 C 49 49 51 61 57 71 C 62 81 70 95 82 113 L 897 1395 L 391 1395 C 351 1395 318 1383 294 1359 C 269 1335 248 1296 231 1241 C 227 1229 220 1218 210 1209 C 200 1200 186 1196 168 1196 L 127 1196 L 127 1511 C 135 1509 148 1508 164 1506 C 180 1504 197 1503 215 1501 C 233 1499 250 1498 268 1497 C 286 1495 301 1495 313 1495 L 1151 1495 L 1151 1468 C 1151 1458 1150 1449 1148 1442 C 1146 1434 1144 1427 1141 1421 C 1138 1415 1135 1409 1131 1403 C 1127 1397 1122 1391 1118 1384 L 305 100 L 848 100 C 876 100 901 103 922 110 C 943 116 962 127 979 143 C 995 158 1011 178 1025 203 C 1039 228 1053 259 1067 295 C 1071 309 1075 320 1081 326 C 1087 332 1096 336 1110 336 L 1163 336 L 1163 -16 Z" unicode="" />
<glyph horiz-adv-x="930" d="M 825 1470 L 547 1116 L 424 1116 L 145 1470 L 227 1470 L 485 1274 L 743 1470 L 825 1470 Z M 879 -10 C 871 -9 861 -8 848 -7 C 835 -5 821 -4 806 -3 C 791 -2 776 -1 761 -1 C 746 0 733 0 723 0 L 43 0 L 43 31 C 43 54 52 76 70 98 L 668 893 L 354 893 C 330 893 310 890 294 885 C 278 880 263 872 251 860 C 239 848 228 833 219 814 C 210 794 201 770 193 741 C 190 733 185 727 178 723 C 171 719 163 717 154 717 L 98 717 L 98 991 C 104 990 113 989 126 988 C 139 987 153 986 168 985 C 183 984 198 983 214 982 C 229 981 242 981 254 981 L 856 981 L 856 915 C 856 903 854 892 852 880 C 849 868 843 856 834 844 L 264 88 L 631 88 C 651 88 669 91 683 99 C 697 106 710 117 721 131 C 732 145 742 162 751 182 C 759 202 768 226 776 252 C 781 268 787 279 794 284 C 800 288 809 291 821 291 L 879 291 L 879 -10 Z" unicode="" />
<glyph horiz-adv-x="1108" d="M 1049 1309 C 1049 1278 1039 1252 1019 1230 C 999 1208 970 1198 934 1198 C 913 1198 889 1208 861 1228 C 833 1248 819 1283 819 1333 C 798 1327 769 1309 731 1279 C 693 1249 659 1173 629 1049 L 565 791 L 817 791 L 793 698 L 545 698 L 319 -281 L 129 -281 L 356 698 L 166 698 L 190 791 L 360 791 C 369 795 376 802 381 811 C 386 819 390 830 393 844 C 427 998 486 1133 568 1249 C 650 1365 758 1423 891 1423 C 950 1423 991 1410 1014 1384 C 1037 1358 1049 1333 1049 1309 Z" unicode="" />
<glyph horiz-adv-x="475" d="M 354 1518 L 401 1468 C 361 1436 323 1402 287 1366 C 251 1329 225 1281 211 1221 C 267 1216 305 1202 325 1179 C 345 1155 356 1129 356 1100 C 356 1058 343 1026 319 1004 C 294 982 265 971 233 971 C 185 971 150 986 130 1017 C 110 1047 100 1087 100 1137 C 100 1200 120 1267 160 1338 C 200 1408 264 1468 354 1518 Z" unicode="" />
<glyph horiz-adv-x="475" d="M 369 1350 C 369 1286 349 1219 309 1148 C 269 1077 204 1017 115 969 L 68 1018 C 107 1049 145 1083 181 1120 C 217 1157 243 1206 258 1266 C 202 1270 163 1283 143 1307 C 123 1330 113 1356 113 1386 C 113 1428 125 1460 150 1482 C 174 1504 203 1516 236 1516 C 284 1516 318 1500 338 1469 C 358 1438 369 1398 369 1350 Z" unicode="" />
<glyph horiz-adv-x="819" d="M 471 1470 L 750 1116 L 668 1116 L 410 1313 L 152 1116 L 70 1116 L 348 1470 L 471 1470 Z" unicode="" />
<glyph horiz-adv-x="819" d="M 668 1470 L 750 1470 L 471 1116 L 348 1116 L 70 1470 L 152 1470 L 410 1274 L 668 1470 Z" unicode="" />
<glyph horiz-adv-x="819" d="M 733 1233 L 733 1110 L 86 1110 L 86 1233 L 733 1233 Z" unicode="" />
<glyph horiz-adv-x="819" d="M 643 1470 L 717 1470 C 699 1351 668 1262 622 1204 C 576 1145 505 1116 410 1116 C 314 1116 242 1145 196 1204 C 150 1263 118 1352 102 1470 L 176 1470 C 196 1406 221 1356 249 1318 C 277 1280 331 1262 410 1262 C 487 1262 540 1280 568 1316 C 596 1352 621 1404 643 1470 Z" unicode="" />
<glyph horiz-adv-x="819" d="M 537 1311 C 537 1276 524 1246 499 1220 C 474 1194 444 1182 408 1182 C 372 1182 341 1194 316 1220 C 291 1246 279 1276 279 1311 C 279 1346 291 1377 316 1404 C 341 1430 372 1444 408 1444 C 444 1444 474 1430 499 1404 C 524 1377 537 1346 537 1311 Z" unicode="" />
<glyph horiz-adv-x="819" d="M 645 1337 C 645 1273 622 1219 578 1177 C 533 1135 477 1114 410 1114 C 342 1114 286 1134 241 1176 C 196 1218 174 1271 174 1337 C 174 1401 196 1454 241 1497 C 286 1539 342 1561 410 1561 C 477 1561 533 1539 578 1497 C 622 1454 645 1401 645 1337 Z M 528 1337 C 528 1387 517 1425 496 1453 C 474 1481 446 1495 410 1495 C 373 1495 344 1481 323 1453 C 301 1425 291 1387 291 1337 C 291 1287 301 1248 323 1221 C 344 1193 373 1180 410 1180 C 446 1180 474 1193 496 1221 C 517 1248 528 1287 528 1337 Z" unicode="" />
<glyph horiz-adv-x="819" d="M 682 1417 L 750 1417 C 750 1351 729 1294 687 1248 C 645 1201 595 1178 537 1178 C 511 1178 487 1181 467 1187 C 447 1193 419 1205 383 1225 C 355 1239 331 1252 310 1262 C 288 1272 266 1278 244 1278 C 214 1278 189 1267 169 1245 C 149 1223 139 1197 137 1169 L 70 1169 C 70 1235 90 1292 132 1339 C 173 1385 223 1409 283 1409 C 315 1409 341 1405 361 1399 C 380 1392 405 1381 436 1366 C 464 1350 490 1337 512 1326 C 534 1314 555 1309 575 1309 C 605 1309 629 1319 649 1341 C 669 1363 680 1388 682 1417 Z" unicode="" />
<glyph horiz-adv-x="1337" d="M 1249 983 L 1249 842 L 1001 842 L 1001 186 C 1001 153 1010 129 1028 114 C 1046 99 1072 92 1104 92 C 1118 92 1136 96 1157 104 C 1178 112 1195 118 1208 123 L 1247 49 C 1218 29 1184 13 1146 0 C 1107 -13 1070 -20 1036 -20 C 966 -20 912 -4 874 27 C 836 59 817 110 817 182 L 817 842 L 559 842 C 552 672 532 486 499 284 C 466 81 383 -20 250 -20 C 215 -20 186 -9 162 11 C 138 32 127 60 127 94 C 127 124 137 148 158 168 C 178 187 203 197 233 197 C 252 197 270 191 288 181 C 306 170 320 155 332 137 C 367 175 394 273 413 430 C 431 587 444 724 451 842 L 428 842 C 351 842 299 824 272 788 C 245 752 225 714 213 674 L 143 676 C 153 760 187 833 244 893 C 301 953 374 983 463 983 L 1249 983 Z" unicode="" />
<glyph horiz-adv-x="649" d="M 549 600 L 549 440 L 100 440 L 100 600 L 549 600 Z" unicode="" />
<glyph horiz-adv-x="649" d="M 549 600 L 549 440 L 100 440 L 100 600 L 549 600 Z" unicode="" />
<glyph horiz-adv-x="1126" d="M 1030 584 L 1030 457 L 96 457 L 96 584 L 1030 584 Z" unicode="" />
<glyph horiz-adv-x="2253" d="M 2157 584 L 2157 457 L 96 457 L 96 584 L 2157 584 Z" unicode="" />
<glyph horiz-adv-x="2048" d="M 2054 88 L 2054 0 L -6 0 L -6 88 L 2054 88 Z" unicode="" />
<glyph horiz-adv-x="475" d="M 354 1518 L 401 1468 C 361 1436 323 1402 287 1366 C 251 1329 225 1281 211 1221 C 267 1216 305 1202 325 1179 C 345 1155 356 1129 356 1100 C 356 1058 343 1026 319 1004 C 294 982 265 971 233 971 C 185 971 150 986 130 1017 C 110 1047 100 1087 100 1137 C 100 1200 120 1267 160 1338 C 200 1408 264 1468 354 1518 Z" unicode="" />
<glyph horiz-adv-x="475" d="M 369 1350 C 369 1286 349 1219 309 1148 C 269 1077 204 1017 115 969 L 68 1018 C 107 1049 145 1083 181 1120 C 217 1157 243 1206 258 1266 C 202 1270 163 1283 143 1307 C 123 1330 113 1356 113 1386 C 113 1428 125 1460 150 1482 C 174 1504 203 1516 236 1516 C 284 1516 318 1500 338 1469 C 358 1438 369 1398 369 1350 Z" unicode="" />
<glyph horiz-adv-x="475" d="M 358 86 C 358 22 338 -44 298 -115 C 258 -186 194 -246 104 -295 L 57 -246 C 97 -214 135 -179 171 -143 C 207 -106 233 -58 248 2 C 192 6 153 19 133 43 C 112 66 102 93 102 123 C 102 165 114 197 139 219 C 163 241 192 252 225 252 C 273 252 307 236 327 205 C 347 174 358 134 358 86 Z" unicode="" />
<glyph horiz-adv-x="836" d="M 354 1518 L 401 1468 C 361 1436 323 1402 287 1366 C 251 1329 225 1281 211 1221 C 267 1216 305 1202 325 1179 C 345 1155 356 1129 356 1100 C 356 1058 343 1026 319 1004 C 294 982 265 971 233 971 C 185 971 150 986 130 1017 C 110 1047 100 1087 100 1137 C 100 1200 120 1267 160 1338 C 200 1408 264 1468 354 1518 Z M 715 1518 L 762 1468 C 722 1436 683 1402 647 1366 C 611 1329 585 1281 571 1221 C 627 1216 665 1202 686 1179 C 706 1155 717 1129 717 1100 C 717 1058 704 1026 680 1004 C 655 982 626 971 594 971 C 546 971 511 986 491 1017 C 471 1047 461 1087 461 1137 C 461 1200 481 1267 521 1338 C 561 1408 625 1468 715 1518 Z" unicode="" />
<glyph horiz-adv-x="836" d="M 369 1350 C 369 1286 349 1219 309 1148 C 269 1077 204 1017 115 969 L 68 1018 C 107 1049 145 1083 181 1120 C 217 1157 243 1206 258 1266 C 202 1270 163 1283 143 1307 C 123 1330 113 1356 113 1386 C 113 1428 125 1460 150 1482 C 174 1504 203 1516 236 1516 C 284 1516 318 1500 338 1469 C 358 1438 369 1398 369 1350 Z M 729 1350 C 729 1286 709 1219 669 1148 C 629 1077 564 1017 475 969 L 428 1018 C 468 1049 506 1083 542 1120 C 578 1157 604 1206 618 1266 C 562 1270 523 1283 503 1307 C 483 1330 473 1356 473 1386 C 473 1428 485 1460 510 1482 C 534 1504 563 1516 596 1516 C 644 1516 678 1500 698 1469 C 718 1438 729 1398 729 1350 Z" unicode="" />
<glyph horiz-adv-x="836" d="M 358 86 C 358 22 338 -44 298 -115 C 258 -186 194 -246 104 -295 L 57 -246 C 97 -214 135 -179 171 -143 C 207 -106 233 -58 248 2 C 192 6 153 19 133 43 C 112 66 102 93 102 123 C 102 165 114 197 139 219 C 163 241 192 252 225 252 C 273 252 307 236 327 205 C 347 174 358 134 358 86 Z M 719 86 C 719 22 699 -44 659 -115 C 619 -186 554 -246 465 -295 L 418 -246 C 458 -214 496 -179 532 -143 C 568 -106 594 -58 608 2 C 552 6 513 19 493 43 C 473 66 463 93 463 123 C 463 165 475 197 500 219 C 524 241 553 252 586 252 C 634 252 668 236 688 205 C 708 174 719 134 719 86 Z" unicode="" />
<glyph horiz-adv-x="977" d="M 891 1065 C 891 1040 883 1019 867 1002 C 851 985 829 977 803 977 C 745 977 706 985 686 1003 C 666 1020 611 1029 522 1030 C 522 996 527 947 538 884 C 548 820 567 763 594 713 C 561 634 541 517 535 362 C 529 207 526 32 526 -162 L 451 -162 C 451 32 447 207 441 362 C 435 517 415 634 383 713 C 409 763 428 820 439 884 C 449 947 455 996 455 1030 C 363 1028 308 1018 289 1002 C 270 985 232 977 174 977 C 145 977 123 986 108 1004 C 93 1022 86 1041 86 1063 C 86 1087 94 1108 110 1125 C 126 1142 147 1151 174 1151 C 232 1151 270 1142 289 1125 C 307 1107 363 1098 455 1098 C 453 1191 443 1252 426 1282 C 409 1311 401 1355 401 1413 C 401 1441 410 1463 428 1478 C 446 1493 465 1501 487 1501 C 511 1501 532 1493 549 1477 C 566 1461 575 1439 575 1413 C 575 1355 566 1311 549 1282 C 531 1252 522 1191 522 1098 C 614 1100 669 1109 688 1126 C 706 1142 745 1151 803 1151 C 831 1151 853 1142 868 1124 C 883 1106 891 1086 891 1065 Z" unicode="" />
<glyph horiz-adv-x="977" d="M 891 276 C 891 251 883 230 867 213 C 851 196 829 188 803 188 C 745 188 706 196 688 214 C 669 232 614 241 522 242 C 524 148 533 86 550 57 C 566 27 575 -16 575 -74 C 575 -102 566 -124 548 -139 C 530 -154 510 -162 489 -162 C 464 -162 443 -154 426 -138 C 409 -122 401 -100 401 -74 C 401 -16 409 27 427 57 C 445 86 454 148 455 242 C 363 240 307 230 289 213 C 270 196 232 188 174 188 C 145 188 123 197 108 215 C 93 233 86 252 86 274 C 86 298 94 319 110 336 C 126 353 147 362 174 362 C 232 362 270 353 290 336 C 310 318 365 309 455 309 C 455 343 449 400 438 478 C 426 556 407 620 381 672 C 407 722 426 786 438 863 C 449 940 455 996 455 1030 C 363 1028 308 1018 289 1002 C 270 985 232 977 174 977 C 145 977 123 986 108 1004 C 93 1022 86 1041 86 1063 C 86 1087 94 1108 110 1125 C 126 1142 147 1151 174 1151 C 232 1151 270 1142 289 1125 C 307 1107 363 1098 455 1098 C 453 1191 443 1252 426 1282 C 409 1311 401 1355 401 1413 C 401 1441 410 1463 428 1478 C 446 1493 465 1501 487 1501 C 511 1501 532 1493 549 1477 C 566 1461 575 1439 575 1413 C 575 1355 566 1311 549 1282 C 531 1252 522 1191 522 1098 C 614 1100 669 1109 688 1126 C 706 1142 745 1151 803 1151 C 831 1151 853 1142 868 1124 C 883 1106 891 1086 891 1065 C 891 1040 883 1019 867 1002 C 851 985 829 977 803 977 C 745 977 706 985 686 1003 C 666 1020 611 1029 522 1030 C 522 996 527 940 539 863 C 550 786 569 722 596 672 C 569 620 550 556 539 478 C 527 400 522 343 522 309 C 613 311 668 320 687 337 C 706 353 745 362 803 362 C 831 362 853 353 868 335 C 883 317 891 297 891 276 Z" unicode="" />
<glyph horiz-adv-x="866" d="M 434 1114 C 542 1114 634 1074 712 996 C 790 918 829 825 829 717 C 829 609 790 515 712 437 C 634 358 542 319 434 319 C 325 319 232 358 154 437 C 76 515 37 609 37 717 C 37 825 76 918 154 996 C 232 1074 325 1114 434 1114 Z" unicode="" />
<glyph horiz-adv-x="1948" d="M 446 111 C 446 77 434 48 410 24 C 386 0 358 -12 324 -12 C 290 -12 261 0 239 24 C 216 48 205 77 205 111 C 205 143 216 171 239 195 C 261 219 290 231 324 231 C 358 231 386 219 410 195 C 434 171 446 143 446 111 Z M 1096 111 C 1096 77 1084 48 1060 24 C 1036 0 1007 -12 973 -12 C 939 -12 910 0 888 24 C 865 48 854 77 854 111 C 854 143 865 171 888 195 C 910 219 939 231 973 231 C 1007 231 1036 219 1060 195 C 1084 171 1096 143 1096 111 Z M 1745 111 C 1745 77 1733 48 1709 24 C 1685 0 1656 -12 1622 -12 C 1588 -12 1559 0 1537 24 C 1514 48 1503 77 1503 111 C 1503 143 1514 171 1537 195 C 1559 219 1588 231 1622 231 C 1656 231 1685 219 1709 195 C 1733 171 1745 143 1745 111 Z" unicode="" />
<glyph horiz-adv-x="2466" d="M 758 1081 C 758 960 727 862 665 787 C 603 711 529 674 442 674 C 354 674 280 711 219 787 C 157 862 127 960 127 1081 C 127 1202 157 1300 218 1376 C 278 1451 353 1489 442 1489 C 531 1489 606 1451 667 1376 C 727 1300 758 1202 758 1081 Z M 596 1081 C 596 1196 582 1278 556 1328 C 529 1378 491 1403 442 1403 C 393 1403 355 1378 329 1328 C 302 1278 289 1196 289 1081 C 289 966 302 884 329 834 C 355 784 393 760 442 760 C 490 760 527 784 555 833 C 582 882 596 965 596 1081 Z M 1608 397 C 1608 276 1577 178 1515 103 C 1453 27 1379 -10 1292 -10 C 1204 -10 1130 27 1069 103 C 1007 178 977 276 977 397 C 977 518 1007 616 1068 692 C 1128 767 1203 805 1292 805 C 1380 805 1455 767 1516 692 C 1577 616 1608 518 1608 397 Z M 1446 397 C 1446 512 1432 594 1406 644 C 1379 694 1341 719 1292 719 C 1243 719 1205 694 1179 644 C 1152 594 1139 512 1139 397 C 1139 282 1152 200 1179 150 C 1205 100 1243 76 1292 76 C 1340 76 1377 100 1405 149 C 1432 198 1446 281 1446 397 Z M 2345 397 C 2345 276 2314 178 2253 103 C 2191 27 2117 -10 2030 -10 C 1942 -10 1867 27 1806 103 C 1744 178 1714 276 1714 397 C 1714 518 1744 616 1805 692 C 1865 767 1940 805 2030 805 C 2118 805 2193 767 2254 692 C 2314 616 2345 518 2345 397 Z M 2183 397 C 2183 512 2169 594 2143 644 C 2116 694 2078 719 2030 719 C 1980 719 1942 694 1916 644 C 1889 594 1876 512 1876 397 C 1876 282 1889 200 1916 150 C 1942 100 1980 76 2030 76 C 2078 76 2115 100 2142 149 C 2169 198 2183 281 2183 397 Z M 1206 1501 L 1325 1501 L 528 -20 L 410 -20 L 1206 1501 Z" unicode="" />
<glyph horiz-adv-x="602" d="M 276 520 L 520 143 L 416 143 L 123 455 C 114 463 107 473 101 484 C 95 495 92 507 92 520 C 92 533 95 545 101 556 C 107 566 114 576 123 586 L 416 897 L 520 897 L 276 520 Z" unicode="" />
<glyph horiz-adv-x="602" d="M 510 520 C 510 507 507 495 501 484 C 495 473 487 463 479 455 L 186 143 L 82 143 L 328 520 L 82 897 L 186 897 L 479 586 C 487 576 495 566 501 556 C 507 545 510 533 510 520 Z" unicode="" />
<glyph horiz-adv-x="285" d="M 494 1501 L 612 1501 L -184 -20 L -303 -20 L 494 1501 Z" unicode="" />
<glyph horiz-adv-x="1182" d="M 1075 305 L 1135 242 C 1095 160 1033 97 951 51 C 868 5 791 -18 719 -18 C 569 -18 452 31 369 131 C 286 230 235 362 217 526 L 74 526 L 74 618 L 211 618 C 211 630 210 644 210 660 C 209 676 209 687 209 694 C 209 714 209 727 210 733 C 211 738 212 753 213 778 L 74 778 L 74 870 L 223 870 C 253 1033 314 1166 406 1268 C 498 1370 622 1421 776 1421 C 884 1421 962 1398 1011 1354 C 1060 1309 1085 1263 1085 1217 C 1085 1180 1073 1150 1051 1128 C 1029 1105 1002 1094 971 1094 C 936 1094 909 1104 891 1125 C 873 1145 864 1171 864 1202 C 864 1214 865 1229 869 1247 C 872 1264 875 1280 879 1294 C 868 1300 852 1307 831 1314 C 810 1321 781 1325 743 1325 C 654 1325 580 1284 521 1204 C 462 1123 424 1012 408 870 L 858 870 L 858 778 L 401 778 C 400 758 399 744 399 735 C 399 726 399 715 399 702 C 399 688 399 675 400 664 C 400 652 401 637 401 618 L 795 618 L 795 526 L 408 526 C 416 412 445 312 496 228 C 547 144 629 102 741 102 C 809 102 870 117 923 147 C 975 177 1026 229 1075 305 Z" unicode="" />
<glyph horiz-adv-x="985" d="M 877 1495 L 891 1063 L 815 1063 L 801 1374 L 688 1063 L 643 1063 L 532 1374 L 516 1063 L 442 1063 L 465 1495 L 578 1495 L 668 1221 L 760 1495 L 877 1495 Z M 395 1495 L 395 1423 L 279 1423 L 279 1063 L 197 1063 L 197 1425 L 82 1425 L 82 1495 L 395 1495 Z" unicode="" />
<glyph horiz-adv-x="1548" d="M 1309 664 L 1309 537 L 240 537 L 240 664 L 1309 664 Z" unicode="" />
<glyph horiz-adv-x="1001" d="M 735 1495 L 877 1495 L 147 -389 L 8 -389 L 735 1495 Z" unicode="" />
<glyph horiz-adv-x="541" d="M 401 604 C 401 567 388 536 363 510 C 337 484 306 471 268 471 C 232 471 201 484 176 510 C 151 536 139 567 139 604 C 139 640 151 670 176 696 C 201 722 232 735 268 735 C 306 735 337 722 363 696 C 388 670 401 640 401 604 Z" unicode="" />
<glyph horiz-adv-x="1597" d="M 1319 1497 L 1444 1497 L 928 -45 C 925 -49 922 -52 918 -54 C 914 -56 911 -57 907 -57 L 850 -57 C 845 -57 840 -56 836 -54 C 832 -52 829 -49 827 -45 L 436 791 L 219 690 L 170 784 L 500 942 C 504 944 509 947 515 949 C 521 951 526 952 530 952 L 541 952 C 545 952 550 951 554 949 C 558 947 561 944 563 940 L 895 217 L 1319 1497 Z" unicode="" />
<glyph horiz-adv-x="1767" d="M 1591 612 C 1591 504 1556 408 1488 326 C 1419 244 1329 203 1217 203 C 1132 203 1060 231 1002 288 C 943 344 894 409 856 483 C 828 411 783 347 720 289 C 656 231 587 203 512 203 C 402 203 318 245 261 329 C 204 413 176 506 176 608 C 176 714 210 810 278 894 C 346 978 437 1020 549 1020 C 632 1020 703 991 762 934 C 821 877 870 811 909 737 C 937 809 982 875 1046 933 C 1110 991 1179 1020 1255 1020 C 1365 1020 1449 977 1506 891 C 1562 805 1591 712 1591 612 Z M 811 565 C 780 630 741 696 695 763 C 648 830 583 864 500 864 C 430 864 376 838 336 788 C 296 737 276 679 276 614 C 276 544 298 483 342 432 C 386 381 444 356 516 356 C 585 356 644 375 693 415 C 742 455 781 505 811 565 Z M 1489 608 C 1489 678 1467 739 1423 790 C 1379 840 1321 866 1249 866 C 1179 866 1120 846 1072 806 C 1023 766 984 717 954 657 C 984 591 1023 525 1070 458 C 1117 391 1182 358 1266 358 C 1335 358 1389 383 1429 434 C 1469 484 1489 542 1489 608 Z" unicode="" />
<glyph horiz-adv-x="1548" d="M 1321 1008 C 1317 958 1306 912 1288 869 C 1270 825 1246 787 1216 755 C 1186 723 1150 697 1110 679 C 1070 660 1025 651 977 651 C 957 651 939 652 922 655 C 905 658 888 663 870 670 C 852 677 832 686 812 698 C 791 710 767 724 741 741 C 718 754 697 767 677 779 C 657 791 639 801 621 811 C 602 819 583 825 565 831 C 546 837 527 840 508 840 C 478 840 452 833 431 821 C 409 808 391 792 376 772 C 361 752 349 729 341 705 C 332 680 326 656 322 633 L 227 633 C 231 681 242 727 260 770 C 278 812 303 850 333 882 C 363 914 399 939 439 957 C 479 975 523 985 571 985 C 596 985 618 983 638 980 C 657 977 676 973 694 967 C 712 961 730 953 748 943 C 766 933 787 921 811 907 C 833 893 855 879 875 867 C 895 854 915 843 934 834 C 952 824 970 816 988 810 C 1005 804 1022 801 1040 801 C 1070 801 1095 807 1117 820 C 1139 832 1157 849 1172 869 C 1187 889 1199 911 1208 935 C 1216 959 1223 984 1227 1008 L 1321 1008 Z M 1321 575 C 1317 525 1306 479 1288 436 C 1270 393 1246 355 1216 323 C 1186 291 1150 265 1110 247 C 1070 228 1025 219 977 219 C 957 219 939 220 922 223 C 905 226 888 231 870 238 C 852 245 832 254 812 266 C 791 278 767 292 741 309 C 718 322 697 335 677 347 C 657 359 639 369 621 379 C 602 387 583 393 565 399 C 546 405 527 408 508 408 C 478 408 452 401 431 389 C 409 376 391 360 376 340 C 361 320 349 297 341 273 C 332 248 326 224 322 201 L 227 201 C 231 249 242 295 260 338 C 278 380 303 418 333 450 C 363 482 399 507 439 525 C 479 543 523 553 571 553 C 596 553 618 551 638 548 C 657 545 676 540 694 534 C 712 528 730 520 748 510 C 766 500 787 489 811 475 C 833 460 855 446 875 434 C 895 421 915 410 934 401 C 952 391 970 384 988 378 C 1005 372 1022 369 1040 369 C 1070 369 1095 375 1117 388 C 1139 400 1157 417 1172 437 C 1187 457 1199 479 1208 503 C 1216 527 1223 551 1227 575 L 1321 575 Z" unicode="" />
<glyph horiz-adv-x="1548" d="M 1296 313 L 768 313 L 680 0 L 547 0 L 635 313 L 252 313 L 252 440 L 672 440 L 741 686 L 252 686 L 252 813 L 778 813 L 866 1126 L 999 1126 L 911 813 L 1296 813 L 1296 686 L 874 686 L 805 440 L 1296 440 L 1296 313 Z" unicode="" />
<glyph horiz-adv-x="1548" d="M 1309 238 L 240 682 L 240 813 L 1309 1257 L 1309 1108 L 410 748 L 1309 387 L 1309 238 Z M 1309 0 L 240 0 L 240 127 L 1309 127 L 1309 0 Z" unicode="" />
<glyph horiz-adv-x="1548" d="M 1309 682 L 240 238 L 240 387 L 1139 748 L 240 1108 L 240 1257 L 1309 813 L 1309 682 Z M 1309 0 L 240 0 L 240 127 L 1309 127 L 1309 0 Z" unicode="" />
<glyph horiz-adv-x="1147" d="M 627 1516 L 1026 766 L 627 -10 L 504 -10 L 100 766 L 504 1516 L 627 1516 Z M 565 102 L 897 766 L 565 1407 L 229 766 L 565 102 Z" unicode="" />
<glyph horiz-adv-x="1548" d="M 1516 741 C 1516 672 1507 606 1489 543 C 1471 480 1447 421 1415 367 C 1383 311 1344 261 1299 216 C 1254 171 1204 133 1150 101 C 1094 69 1035 44 972 26 C 908 8 842 0 774 0 C 705 0 639 8 576 26 C 512 44 453 69 399 101 C 343 133 293 171 249 216 C 204 261 166 311 134 367 C 102 421 77 480 59 543 C 41 606 33 672 33 741 C 33 809 41 875 59 939 C 77 1002 102 1061 134 1116 C 166 1170 204 1220 249 1265 C 293 1310 343 1349 399 1381 C 453 1413 512 1437 576 1455 C 639 1472 705 1481 774 1481 C 842 1481 908 1472 972 1455 C 1035 1437 1094 1413 1150 1381 C 1204 1349 1254 1310 1299 1265 C 1344 1220 1383 1170 1415 1116 C 1447 1061 1471 1002 1489 939 C 1507 875 1516 809 1516 741 Z" unicode="" />
<glyph horiz-adv-x="1188" d="M 1104 45 L 1104 0 L 709 0 L 709 45 C 709 53 712 59 720 62 C 727 64 741 70 762 80 C 787 92 802 101 807 108 C 812 115 815 133 815 162 L 815 803 C 815 824 811 843 803 860 C 795 876 776 885 748 885 L 383 885 L 383 162 C 383 133 386 115 392 109 C 398 102 414 92 442 80 C 458 73 471 67 481 63 C 491 59 496 53 496 45 L 496 0 L 92 0 L 92 45 C 92 53 95 59 102 62 C 109 64 123 70 145 80 C 171 92 186 101 191 108 C 196 115 199 133 199 162 L 199 889 L 88 889 L 88 922 C 88 934 94 942 106 948 C 118 953 136 961 162 973 C 180 981 192 991 196 1005 C 200 1018 204 1035 207 1057 C 209 1081 213 1103 218 1122 C 223 1141 229 1158 236 1174 C 270 1273 325 1351 402 1409 C 478 1466 566 1495 664 1495 C 760 1495 824 1477 856 1441 C 887 1405 903 1374 903 1348 C 903 1320 893 1295 873 1275 C 853 1255 826 1245 793 1245 C 725 1245 685 1270 673 1321 C 660 1371 636 1397 602 1397 C 544 1397 492 1372 446 1322 C 400 1272 378 1181 379 1049 L 379 977 L 768 977 L 999 1004 L 999 162 C 999 133 1001 115 1007 109 C 1012 102 1028 92 1055 80 C 1073 70 1086 64 1093 61 C 1100 58 1104 53 1104 45 Z" unicode="" />
<glyph horiz-adv-x="1208" d="M 1126 45 L 1126 0 L 731 0 L 731 45 C 731 53 734 59 742 62 C 749 64 763 70 784 80 C 810 92 825 101 830 108 C 835 115 838 133 838 162 L 838 1305 C 803 1309 768 1326 732 1354 C 696 1382 651 1397 598 1397 C 540 1397 488 1372 444 1322 C 400 1272 378 1181 379 1049 L 379 981 L 649 981 L 649 889 L 381 889 L 383 162 C 383 133 386 115 392 109 C 398 102 414 92 442 80 C 458 73 471 67 481 63 C 491 59 496 53 496 45 L 496 0 L 92 0 L 92 45 C 92 53 95 59 102 62 C 109 64 123 70 145 80 C 171 92 186 101 191 108 C 196 115 199 133 199 162 L 199 889 L 88 889 L 88 922 C 88 934 94 942 106 948 C 118 953 136 961 162 973 C 180 981 192 991 196 1005 C 200 1018 204 1035 207 1057 C 209 1081 213 1103 218 1122 C 223 1141 229 1158 236 1174 C 270 1273 324 1351 400 1409 C 475 1466 561 1495 659 1495 C 685 1495 709 1492 732 1488 C 755 1484 773 1479 786 1475 L 1022 1495 L 1022 162 C 1022 133 1024 115 1029 109 C 1034 102 1050 92 1077 80 C 1096 70 1109 64 1116 61 C 1122 58 1126 53 1126 45 Z" unicode="" />
<glyph horiz-adv-x="0" d="" unicode="" />
</font>
</defs>
</svg>
