<?xml version="1.0" encoding="utf-8" ?><svg version="1.1" xmlns = 'http://www.w3.org/2000/svg'><defs><font id='web' horiz-adv-x="1000">
<font-face font-family="web" descent="-455" cap-height="1495" units-per-em="2048" bbox="-266,-416,2634,2011" x-height="1008" ascent="2021" />
<missing-glyph horiz-adv-x="1024" d="M 906 16 L 906 1032 L 118 1032 L 118 16 L 906 16 Z M 102 1048 L 922 1048 L 922 0 L 102 0 L 102 1048 Z" /><glyph horiz-adv-x="412" d="" unicode=" " />
<glyph horiz-adv-x="610" d="M 793 1391 C 793 1380 792 1369 791 1359 C 789 1348 787 1337 784 1327 C 769 1265 748 1207 721 1152 C 694 1096 663 1020 627 924 C 594 836 564 745 538 651 C 512 557 489 478 471 414 C 469 410 465 406 459 403 C 453 400 446 399 438 399 C 424 399 413 403 405 412 C 397 420 394 427 395 432 C 408 498 426 578 449 674 C 471 769 488 863 500 956 C 512 1058 520 1140 523 1202 C 526 1264 535 1326 551 1386 C 559 1420 573 1451 595 1479 C 616 1506 643 1520 676 1520 C 718 1520 748 1506 766 1480 C 784 1453 793 1423 793 1391 Z M 489 119 C 489 83 476 52 451 26 C 425 0 394 -12 358 -12 C 322 -12 292 0 268 26 C 243 52 231 83 231 119 C 231 153 243 183 268 209 C 292 235 322 248 358 248 C 394 248 425 235 451 209 C 476 183 489 153 489 119 Z" unicode="!" />
<glyph horiz-adv-x="799" d="M 694 1415 C 694 1409 693 1402 692 1396 C 691 1390 690 1383 690 1376 C 681 1340 655 1277 612 1187 C 569 1097 530 1008 494 922 C 489 918 485 916 482 915 C 478 913 473 913 467 913 C 459 913 452 915 448 921 C 443 926 440 931 438 936 C 447 1027 455 1123 463 1223 C 470 1323 478 1391 487 1427 C 493 1455 506 1476 524 1492 C 542 1508 564 1516 590 1516 C 621 1516 646 1506 665 1488 C 684 1469 694 1445 694 1415 Z M 1030 1415 C 1030 1409 1029 1402 1028 1396 C 1027 1390 1026 1383 1026 1376 C 1017 1340 991 1277 948 1187 C 905 1097 865 1008 829 922 C 825 918 821 916 818 915 C 814 913 809 913 803 913 C 794 913 787 915 783 921 C 779 926 776 931 774 936 C 783 1027 791 1123 799 1223 C 806 1323 814 1391 823 1427 C 829 1455 842 1476 860 1492 C 878 1508 900 1516 926 1516 C 957 1516 982 1506 1001 1488 C 1020 1469 1030 1445 1030 1415 Z" unicode="&#x22;" />
<glyph horiz-adv-x="1548" d="M 1262 1032 L 1583 1032 L 1534 862 L 1212 862 L 1118 547 L 1444 547 L 1395 377 L 1069 377 L 956 -18 L 870 -18 L 983 377 L 727 377 L 614 -18 L 528 -18 L 641 377 L 322 377 L 371 547 L 690 547 L 784 862 L 461 862 L 510 1032 L 834 1032 L 940 1403 L 1026 1403 L 920 1032 L 1176 1032 L 1282 1403 L 1368 1403 L 1262 1032 Z M 1032 547 L 1126 862 L 870 862 L 776 547 L 1032 547 Z" unicode="#" />
<glyph horiz-adv-x="1098" d="M 1233 1147 C 1233 1104 1222 1071 1200 1047 C 1178 1023 1152 1012 1122 1012 C 1093 1012 1067 1020 1043 1037 C 1019 1053 1008 1077 1008 1108 C 1008 1135 1015 1157 1029 1174 C 1043 1191 1061 1206 1085 1219 C 1077 1229 1063 1244 1043 1264 C 1023 1284 994 1299 954 1311 L 827 799 C 849 787 873 775 898 761 C 922 747 948 732 975 715 C 1025 680 1066 638 1098 590 C 1130 542 1147 487 1147 426 C 1147 313 1099 211 1005 121 C 910 31 789 -14 643 -14 L 625 -14 L 559 -279 L 469 -279 L 537 -10 C 422 2 334 37 274 93 C 214 149 184 217 184 297 C 184 341 197 377 223 405 C 249 432 279 446 313 446 C 353 446 384 436 406 416 C 427 396 438 371 438 340 C 438 313 430 288 414 264 C 398 240 372 220 334 203 C 350 177 377 152 413 126 C 449 100 497 84 557 78 L 700 649 C 681 659 662 669 644 678 C 626 687 608 696 592 705 C 546 733 500 772 455 822 C 409 872 387 934 387 1010 C 387 1120 431 1215 521 1293 C 611 1371 718 1411 844 1411 L 889 1411 L 915 1516 L 1006 1516 L 977 1401 C 1067 1383 1133 1350 1173 1300 C 1213 1250 1233 1199 1233 1147 Z M 745 831 L 868 1323 L 840 1323 C 753 1323 687 1295 641 1240 C 595 1185 573 1127 573 1065 C 573 1031 581 996 597 962 C 613 927 641 896 682 868 C 692 861 702 854 713 848 C 723 842 734 836 745 831 Z M 961 373 C 961 404 951 441 933 484 C 915 526 878 563 823 594 C 816 598 809 602 803 606 C 796 610 789 613 782 616 L 647 74 C 735 76 810 105 870 159 C 930 213 961 284 961 373 Z" unicode="$" />
<glyph horiz-adv-x="1753" d="M 1569 1438 L 1642 1384 L 608 -76 L 494 12 L 1384 1171 L 1380 1176 C 1356 1159 1309 1130 1238 1089 C 1167 1047 1075 1022 963 1012 C 944 906 897 815 821 741 C 745 666 662 629 571 629 C 495 629 430 658 375 718 C 320 778 293 855 293 950 C 293 1063 331 1170 409 1270 C 487 1370 583 1421 698 1421 C 777 1421 842 1389 892 1325 C 942 1261 968 1185 969 1096 C 1129 1112 1257 1159 1355 1236 C 1453 1313 1524 1380 1569 1438 Z M 801 1014 C 729 1024 668 1049 616 1088 C 564 1126 537 1177 535 1241 C 502 1188 479 1126 467 1054 C 455 982 449 919 449 866 C 449 816 460 778 484 752 C 507 726 537 713 573 713 C 634 713 684 745 722 809 C 760 873 786 941 801 1014 Z M 815 1157 C 815 1216 804 1261 783 1291 C 762 1321 730 1337 688 1337 C 662 1337 641 1330 623 1317 C 605 1304 596 1285 596 1260 C 596 1229 612 1196 645 1161 C 677 1126 733 1104 813 1096 C 813 1106 814 1117 814 1128 C 814 1138 815 1148 815 1157 Z M 1866 446 C 1866 322 1825 213 1743 121 C 1661 28 1570 -18 1468 -18 C 1392 -18 1327 11 1272 71 C 1217 131 1190 208 1190 303 C 1190 415 1228 522 1306 623 C 1384 723 1480 774 1595 774 C 1674 774 1739 741 1790 677 C 1840 613 1866 536 1866 446 Z M 1710 510 C 1710 569 1699 614 1679 644 C 1659 674 1627 690 1585 690 C 1494 690 1431 630 1397 510 C 1363 390 1346 293 1346 219 C 1346 169 1357 131 1381 105 C 1404 79 1434 66 1470 66 C 1553 66 1614 120 1652 229 C 1690 337 1710 431 1710 510 Z" unicode="%" />
<glyph horiz-adv-x="1513" d="M 1182 801 L 1657 801 L 1649 756 C 1645 740 1636 729 1620 722 C 1604 714 1585 707 1565 700 C 1527 687 1496 673 1472 659 C 1448 644 1406 600 1348 528 C 1312 484 1272 439 1230 393 C 1188 347 1144 304 1098 264 C 1134 208 1173 166 1217 140 C 1261 113 1308 100 1360 100 C 1386 100 1416 105 1448 116 C 1480 126 1510 138 1538 152 L 1559 72 C 1515 45 1470 23 1424 6 C 1378 -11 1318 -20 1245 -20 C 1183 -20 1128 -5 1081 25 C 1033 55 990 95 952 145 C 884 95 818 55 756 25 C 693 -5 627 -20 557 -20 C 426 -20 328 14 264 82 C 200 150 168 230 168 324 C 168 446 210 550 294 638 C 378 726 497 802 649 866 C 640 906 633 946 627 987 C 621 1028 618 1067 618 1104 C 618 1214 654 1310 727 1392 C 800 1474 903 1516 1036 1516 C 1135 1516 1207 1489 1251 1436 C 1295 1382 1317 1326 1317 1266 C 1317 1170 1276 1087 1194 1016 C 1112 944 999 887 856 844 C 879 757 910 666 948 572 C 986 478 1022 398 1057 332 C 1093 365 1127 401 1160 439 C 1192 477 1219 512 1241 543 C 1260 571 1273 594 1280 610 C 1286 626 1290 639 1290 647 C 1290 660 1285 671 1275 679 C 1265 687 1246 698 1219 713 C 1199 723 1186 730 1180 734 C 1173 738 1171 745 1174 756 L 1182 801 Z M 905 213 C 862 288 821 371 783 462 C 745 553 707 661 670 786 C 560 732 483 672 441 606 C 398 540 377 470 377 395 C 377 317 400 253 446 201 C 492 149 562 123 657 123 C 703 123 745 131 785 148 C 824 164 864 186 905 213 Z M 1151 1270 C 1151 1322 1136 1360 1108 1386 C 1080 1412 1047 1425 1010 1425 C 939 1425 888 1396 856 1340 C 824 1284 809 1217 809 1139 C 809 1107 811 1072 815 1035 C 819 997 826 959 836 920 C 950 962 1031 1014 1079 1075 C 1127 1136 1151 1201 1151 1270 Z" unicode="&#x26;" />
<glyph horiz-adv-x="483" d="M 694 1415 C 694 1409 693 1402 692 1396 C 691 1390 690 1383 690 1376 C 681 1340 655 1277 612 1187 C 569 1097 530 1008 494 922 C 489 918 485 916 482 915 C 478 913 473 913 467 913 C 459 913 452 915 448 921 C 443 926 440 931 438 936 C 447 1027 455 1123 463 1223 C 470 1323 478 1391 487 1427 C 493 1455 506 1476 524 1492 C 542 1508 564 1516 590 1516 C 621 1516 646 1506 665 1488 C 684 1469 694 1445 694 1415 Z" unicode="'" />
<glyph horiz-adv-x="715" d="M 977 1516 L 1022 1452 C 837 1321 689 1151 579 941 C 469 731 414 486 414 205 C 414 97 427 -5 454 -102 C 480 -198 521 -278 575 -340 L 502 -387 C 418 -303 353 -197 306 -69 C 259 58 236 195 236 340 C 236 604 309 832 455 1024 C 601 1216 775 1380 977 1516 Z" unicode="(" />
<glyph horiz-adv-x="715" d="M 741 788 C 741 523 668 295 522 103 C 376 -88 202 -251 0 -387 L -45 -324 C 139 -193 287 -23 397 186 C 507 395 563 641 563 924 C 563 1034 549 1136 522 1231 C 495 1325 455 1404 401 1468 L 475 1516 C 558 1432 623 1326 670 1198 C 717 1069 741 932 741 788 Z" unicode=")" />
<glyph horiz-adv-x="977" d="M 1159 1249 C 1159 1234 1155 1220 1148 1208 C 1140 1195 1128 1184 1112 1174 C 1062 1144 1023 1131 995 1137 C 967 1142 914 1123 836 1079 C 913 1036 966 1017 995 1023 C 1023 1029 1062 1017 1110 987 C 1127 977 1139 965 1146 951 C 1153 937 1157 923 1157 909 C 1157 886 1148 866 1132 850 C 1115 833 1096 825 1075 825 C 1049 825 1025 834 1002 854 C 978 874 958 896 942 920 C 928 938 914 954 899 969 C 884 984 853 1005 807 1032 C 809 939 818 883 836 863 C 853 843 862 804 862 748 C 862 719 853 697 837 682 C 820 666 801 659 780 659 C 755 659 735 667 719 683 C 703 699 696 721 696 748 C 696 804 704 842 721 862 C 738 882 748 938 752 1032 C 707 1007 676 988 660 974 C 644 960 631 945 621 930 C 605 909 586 887 564 864 C 541 840 515 829 487 829 C 462 829 441 837 425 853 C 409 869 401 888 401 911 C 401 926 404 940 412 953 C 420 965 432 977 449 987 C 499 1017 537 1029 564 1023 C 591 1017 644 1036 723 1079 C 644 1121 591 1141 564 1137 C 536 1133 499 1146 451 1176 C 433 1186 421 1197 414 1210 C 406 1223 403 1237 403 1251 C 403 1273 411 1293 428 1310 C 444 1326 463 1335 485 1335 C 511 1335 535 1325 559 1305 C 582 1285 602 1264 618 1241 C 631 1222 645 1205 659 1190 C 673 1174 704 1154 754 1128 C 751 1220 741 1276 724 1296 C 706 1316 698 1355 698 1413 C 698 1441 706 1463 723 1478 C 739 1493 758 1501 780 1501 C 804 1501 824 1493 840 1477 C 856 1461 864 1439 864 1413 C 864 1355 855 1316 838 1296 C 820 1276 811 1220 809 1128 C 853 1152 884 1172 900 1186 C 916 1200 930 1215 940 1231 C 955 1251 974 1273 996 1296 C 1018 1319 1044 1331 1073 1331 C 1097 1331 1118 1323 1134 1307 C 1150 1291 1159 1271 1159 1249 Z" unicode="*" />
<glyph horiz-adv-x="1548" d="M 1481 664 L 1481 537 L 1012 537 L 1012 72 L 881 72 L 881 537 L 412 537 L 412 664 L 881 664 L 881 1128 L 1012 1128 L 1012 664 L 1481 664 Z" unicode="+" />
<glyph horiz-adv-x="500" d="M 455 115 C 455 44 427 -31 373 -111 C 318 -191 235 -255 125 -303 L 84 -248 C 128 -220 173 -188 219 -151 C 265 -113 300 -65 324 -6 C 272 2 238 17 220 39 C 202 61 193 85 193 111 C 193 153 207 186 236 210 C 265 234 296 246 328 246 C 370 246 401 233 423 208 C 444 183 455 152 455 115 Z" unicode="," />
<glyph horiz-adv-x="649" d="M 264 598 L 713 598 L 672 442 L 223 442 L 264 598 Z" unicode="-" />
<glyph horiz-adv-x="500" d="M 453 119 C 453 83 440 52 414 26 C 388 0 358 -12 322 -12 C 286 -12 255 0 231 26 C 207 52 195 83 195 119 C 195 153 207 183 231 209 C 255 235 286 248 322 248 C 358 248 388 235 414 209 C 440 183 453 153 453 119 Z" unicode="." />
<glyph horiz-adv-x="913" d="M 1067 1495 L 1206 1495 L 47 -389 L -90 -389 L 1067 1495 Z" unicode="/" />
<glyph horiz-adv-x="1192" d="M 1300 895 C 1300 670 1238 462 1115 270 C 991 78 841 -18 664 -18 C 541 -18 443 29 369 123 C 295 217 258 344 258 506 C 258 730 319 939 442 1132 C 564 1324 715 1421 895 1421 C 1019 1421 1118 1372 1191 1275 C 1263 1178 1300 1051 1300 895 Z M 1102 1020 C 1102 1126 1083 1203 1045 1252 C 1007 1300 956 1325 891 1325 C 765 1325 661 1222 579 1018 C 496 814 455 602 455 383 C 455 276 473 199 511 151 C 549 103 600 80 666 80 C 788 80 891 179 975 377 C 1059 575 1102 789 1102 1020 Z" unicode="0" />
<glyph horiz-adv-x="799" d="M 780 1407 L 866 1407 L 575 242 C 573 231 570 218 566 202 C 562 186 561 176 561 172 C 561 154 567 140 580 129 C 592 117 613 109 643 104 C 665 100 684 94 698 88 C 712 82 717 69 713 51 L 698 0 L 147 0 L 160 49 C 164 67 176 80 196 86 C 215 92 237 97 262 102 C 298 110 324 122 338 137 C 352 152 364 176 373 209 L 621 1204 L 403 1204 L 424 1282 L 780 1407 Z" unicode="1" />
<glyph horiz-adv-x="1018" d="M 1161 1085 C 1161 978 1126 883 1056 799 C 986 715 864 616 690 502 C 644 472 578 423 492 356 C 406 288 337 230 287 180 L 780 180 C 818 180 850 187 875 201 C 899 215 924 245 950 291 C 958 305 966 314 973 318 C 980 322 989 324 999 324 L 1057 324 L 965 0 L 96 0 L 133 152 C 185 210 258 285 354 375 C 450 465 540 544 625 612 C 737 704 819 787 871 863 C 922 938 948 1016 948 1098 C 948 1160 925 1213 881 1257 C 837 1301 781 1323 713 1323 C 661 1323 613 1312 568 1291 C 523 1270 493 1245 479 1217 C 496 1200 511 1182 523 1163 C 535 1144 541 1122 541 1098 C 541 1064 530 1036 509 1016 C 488 995 462 985 430 985 C 389 985 358 997 337 1022 C 315 1047 305 1079 305 1118 C 305 1192 348 1261 436 1325 C 524 1389 629 1421 752 1421 C 872 1421 971 1388 1047 1322 C 1123 1256 1161 1177 1161 1085 Z" unicode="2" />
<glyph horiz-adv-x="1026" d="M 1157 1126 C 1157 1025 1117 943 1037 879 C 957 815 864 775 760 760 C 843 743 917 707 981 653 C 1045 598 1077 525 1077 434 C 1077 298 1022 189 914 106 C 805 23 679 -18 535 -18 C 416 -18 318 7 241 59 C 163 110 125 176 125 258 C 125 292 135 323 157 352 C 179 380 209 395 248 395 C 286 395 315 385 336 365 C 356 345 367 322 367 297 C 367 268 361 244 350 225 C 338 206 324 188 307 172 C 318 148 342 127 379 107 C 416 87 464 78 522 78 C 632 78 716 116 776 192 C 836 268 866 355 866 455 C 866 536 834 600 770 647 C 706 693 618 718 504 721 L 526 815 C 670 815 777 841 845 895 C 913 949 948 1026 948 1128 C 948 1182 928 1228 888 1267 C 848 1305 791 1325 717 1325 C 674 1325 636 1318 602 1304 C 568 1290 542 1276 524 1262 C 539 1246 551 1232 559 1218 C 567 1204 571 1188 571 1169 C 571 1138 561 1112 542 1092 C 523 1071 497 1061 465 1061 C 431 1061 403 1071 381 1091 C 359 1111 348 1142 348 1182 C 348 1251 391 1308 478 1353 C 565 1398 656 1421 750 1421 C 864 1421 960 1393 1039 1337 C 1117 1281 1157 1210 1157 1126 Z" unicode="3" />
<glyph horiz-adv-x="1055" d="M 1061 1421 L 1182 1421 L 950 487 L 1159 487 L 1128 365 L 920 365 L 879 201 C 876 191 873 180 870 167 C 867 154 866 145 866 141 C 866 130 870 121 879 115 C 887 109 901 100 920 90 C 934 82 943 76 949 72 C 954 68 956 62 954 55 L 940 0 L 532 0 L 547 55 C 549 63 553 69 560 73 C 567 76 581 82 602 90 C 629 101 647 110 657 118 C 666 126 674 142 680 168 L 729 365 L 123 365 L 154 492 L 1061 1421 Z M 760 487 L 924 1143 L 285 487 L 760 487 Z" unicode="4" />
<glyph horiz-adv-x="1036" d="M 1229 1493 L 1282 1493 L 1198 1221 L 582 1221 L 440 795 C 488 823 534 846 578 863 C 622 880 671 889 723 889 C 851 889 949 848 1015 767 C 1081 685 1114 597 1114 502 C 1114 351 1058 227 947 129 C 835 31 707 -18 561 -18 C 439 -18 341 8 267 62 C 193 115 156 181 156 260 C 156 292 166 324 188 354 C 210 384 241 399 281 399 C 317 399 345 389 365 369 C 385 349 395 327 395 303 C 395 272 389 247 377 228 C 365 209 352 190 338 172 C 348 148 372 126 410 106 C 448 86 493 76 545 76 C 661 76 749 120 809 208 C 869 296 899 391 899 492 C 899 565 877 629 835 684 C 792 738 727 766 641 766 C 585 766 537 754 497 732 C 457 709 415 683 371 655 L 311 707 L 528 1401 L 1063 1401 C 1101 1401 1127 1404 1140 1412 C 1153 1419 1167 1435 1182 1460 C 1190 1473 1197 1482 1204 1486 C 1211 1490 1219 1493 1229 1493 Z" unicode="5" />
<glyph horiz-adv-x="1130" d="M 1280 1223 C 1280 1183 1268 1149 1244 1122 C 1220 1094 1191 1081 1155 1081 C 1121 1081 1095 1090 1078 1108 C 1061 1126 1053 1150 1053 1178 C 1053 1197 1055 1217 1061 1239 C 1066 1260 1070 1277 1073 1290 C 1067 1294 1052 1301 1028 1311 C 1004 1320 976 1325 944 1325 C 861 1325 775 1279 687 1188 C 599 1096 532 945 487 735 C 533 771 586 801 646 827 C 706 853 769 866 836 866 C 950 866 1039 829 1105 757 C 1171 685 1204 599 1204 500 C 1204 374 1155 257 1058 147 C 961 37 834 -18 676 -18 C 536 -18 430 30 359 127 C 287 223 252 345 252 492 C 252 718 320 930 456 1126 C 592 1322 763 1421 969 1421 C 1061 1421 1136 1401 1194 1363 C 1251 1324 1280 1277 1280 1223 Z M 987 502 C 987 567 968 623 931 670 C 893 717 838 741 764 741 C 700 741 640 726 584 697 C 528 668 489 643 469 623 C 463 591 458 559 454 527 C 450 495 449 464 449 434 C 447 337 465 253 501 182 C 537 111 595 76 676 76 C 780 76 857 122 909 215 C 961 308 987 404 987 502 Z" unicode="6" />
<glyph horiz-adv-x="934" d="M 629 1401 L 1245 1401 L 1219 1296 C 1061 1093 926 907 812 739 C 698 570 626 378 596 162 C 587 100 571 54 548 25 C 525 -3 493 -18 451 -18 C 418 -18 392 -10 374 6 C 355 22 346 50 346 90 C 346 147 370 223 419 317 C 467 411 530 516 606 633 C 674 735 747 839 826 945 C 904 1050 976 1142 1042 1221 L 510 1221 C 472 1221 444 1212 428 1194 C 411 1176 395 1154 381 1130 C 373 1117 365 1108 358 1104 C 350 1100 342 1098 334 1098 L 272 1098 L 373 1413 C 400 1410 439 1407 490 1405 C 540 1402 587 1401 629 1401 Z" unicode="7" />
<glyph horiz-adv-x="1065" d="M 1210 1124 C 1210 1038 1175 962 1106 896 C 1036 830 962 785 883 762 C 963 714 1027 663 1075 610 C 1123 556 1147 492 1147 416 C 1147 282 1094 175 989 97 C 884 19 764 -20 629 -20 C 493 -20 384 12 303 77 C 222 141 182 222 182 319 C 182 430 224 521 309 591 C 394 661 477 708 559 733 C 506 773 463 816 430 862 C 397 908 381 960 381 1018 C 381 1132 426 1227 516 1305 C 606 1382 711 1421 829 1421 C 943 1421 1035 1392 1105 1334 C 1175 1276 1210 1206 1210 1124 Z M 956 358 C 956 430 925 490 864 538 C 803 585 732 631 651 676 C 598 656 536 620 464 567 C 392 514 356 432 356 322 C 356 251 382 192 434 146 C 486 99 554 76 637 76 C 723 76 798 102 861 155 C 924 208 956 276 956 358 Z M 1044 1124 C 1044 1180 1023 1227 981 1266 C 939 1305 885 1325 819 1325 C 747 1325 686 1301 636 1254 C 586 1206 561 1149 561 1083 C 561 1024 585 974 633 932 C 681 890 737 851 799 815 C 861 837 917 875 968 928 C 1018 980 1044 1046 1044 1124 Z" unicode="8" />
<glyph horiz-adv-x="1130" d="M 1235 911 C 1235 690 1168 480 1035 281 C 902 81 728 -18 514 -18 C 406 -18 324 3 270 45 C 215 87 188 134 188 186 C 188 224 200 257 225 284 C 250 310 281 324 317 324 C 349 324 373 316 390 300 C 407 284 416 262 416 236 C 416 222 414 205 410 183 C 406 161 401 138 395 115 C 403 106 421 98 447 90 C 473 82 504 78 539 78 C 629 78 718 123 805 215 C 891 306 958 458 1004 670 C 956 633 902 601 840 575 C 778 548 715 535 649 535 C 542 535 455 569 388 638 C 320 707 287 795 287 901 C 287 1032 337 1151 439 1259 C 541 1367 664 1421 809 1421 C 951 1421 1057 1372 1128 1274 C 1199 1176 1235 1055 1235 911 Z M 1040 981 C 1040 1075 1022 1156 986 1224 C 950 1291 891 1325 811 1325 C 718 1325 643 1278 587 1185 C 530 1092 502 995 502 895 C 502 825 520 768 558 726 C 595 683 651 662 727 662 C 790 662 849 676 905 706 C 961 735 999 760 1020 782 C 1026 816 1030 849 1034 883 C 1038 917 1040 949 1040 981 Z" unicode="9" />
<glyph horiz-adv-x="561" d="M 487 119 C 487 83 474 52 449 26 C 423 0 392 -12 356 -12 C 320 -12 290 0 266 26 C 241 52 229 83 229 119 C 229 153 241 183 266 209 C 290 235 320 248 356 248 C 392 248 423 235 449 209 C 474 183 487 153 487 119 Z M 651 879 C 651 843 638 812 613 786 C 587 760 556 748 520 748 C 484 748 454 760 430 786 C 405 812 393 843 393 879 C 393 913 405 943 430 969 C 454 995 484 1008 520 1008 C 556 1008 587 995 613 969 C 638 943 651 913 651 879 Z" unicode=":" />
<glyph horiz-adv-x="561" d="M 489 115 C 489 44 461 -31 407 -111 C 353 -191 270 -255 160 -303 L 119 -248 C 163 -220 208 -188 254 -151 C 300 -113 334 -65 358 -6 C 307 2 272 17 254 39 C 236 61 227 85 227 111 C 227 153 241 186 271 210 C 300 234 330 246 362 246 C 404 246 435 233 457 208 C 478 183 489 152 489 115 Z M 651 879 C 651 843 638 812 613 786 C 587 760 556 748 520 748 C 484 748 454 760 430 786 C 405 812 393 843 393 879 C 393 913 405 943 430 969 C 454 995 484 1008 520 1008 C 556 1008 587 995 613 969 C 638 943 651 913 651 879 Z" unicode=";" />
<glyph horiz-adv-x="1548" d="M 1466 205 L 1466 61 L 430 535 L 430 666 L 1466 1139 L 1466 995 L 582 600 L 1466 205 Z" unicode="&#x3C;" />
<glyph horiz-adv-x="1548" d="M 1470 440 L 1470 313 L 426 313 L 426 440 L 1470 440 Z M 1470 813 L 1470 686 L 426 686 L 426 813 L 1470 813 Z" unicode="=" />
<glyph horiz-adv-x="1548" d="M 1466 666 L 1466 535 L 430 61 L 430 205 L 1315 600 L 430 995 L 430 1139 L 1466 666 Z" unicode="&#x3E;" />
<glyph horiz-adv-x="899" d="M 1071 1225 C 1071 1148 1049 1083 1007 1031 C 964 979 907 922 836 860 C 740 778 674 705 638 639 C 602 573 575 499 557 418 C 556 413 551 408 541 403 C 531 397 520 395 508 395 C 494 395 484 398 476 406 C 468 414 464 420 465 424 C 475 485 495 554 527 631 C 559 707 604 784 662 860 C 734 955 785 1026 817 1072 C 848 1118 864 1179 864 1255 C 864 1322 847 1369 813 1397 C 779 1424 742 1438 700 1438 C 674 1438 646 1431 616 1418 C 585 1405 562 1387 547 1364 C 564 1346 575 1330 581 1316 C 587 1301 590 1288 590 1278 C 590 1240 579 1210 559 1190 C 538 1169 513 1159 483 1159 C 445 1159 415 1170 394 1193 C 372 1216 362 1244 362 1276 C 362 1334 394 1388 458 1439 C 522 1490 608 1516 715 1516 C 806 1516 888 1491 961 1441 C 1034 1391 1071 1319 1071 1225 Z M 600 119 C 600 83 587 52 562 26 C 536 0 505 -12 469 -12 C 433 -12 402 0 378 26 C 354 52 342 83 342 119 C 342 153 354 183 378 209 C 402 235 433 248 469 248 C 505 248 536 235 562 209 C 587 183 600 153 600 119 Z" unicode="?" />
<glyph horiz-adv-x="1946" d="M 1952 672 C 1952 508 1898 352 1791 206 C 1683 59 1545 -14 1376 -14 C 1314 -14 1274 1 1256 32 C 1238 63 1229 90 1229 113 C 1179 77 1133 49 1092 29 C 1051 9 1000 0 938 0 C 859 0 801 21 763 64 C 725 107 707 166 707 242 C 707 331 731 421 779 511 C 827 601 892 681 973 750 C 1025 794 1080 829 1138 853 C 1195 877 1251 889 1307 889 C 1346 889 1380 883 1410 871 C 1440 859 1463 839 1481 813 L 1571 877 L 1612 877 L 1423 260 C 1418 242 1412 223 1406 201 C 1400 179 1397 160 1397 143 C 1397 120 1400 103 1408 93 C 1415 83 1426 78 1442 78 C 1550 78 1644 141 1726 268 C 1808 394 1849 534 1849 686 C 1849 826 1798 946 1697 1048 C 1596 1149 1457 1200 1280 1200 C 1050 1200 855 1114 693 944 C 531 773 451 568 451 328 C 451 138 514 -15 640 -133 C 766 -251 931 -311 1133 -311 C 1233 -311 1332 -294 1430 -262 C 1527 -229 1625 -178 1724 -109 L 1763 -180 C 1662 -254 1558 -311 1452 -349 C 1345 -387 1237 -406 1128 -406 C 863 -406 658 -334 512 -192 C 366 -49 293 130 293 346 C 293 608 389 832 583 1018 C 776 1204 1004 1298 1266 1298 C 1478 1298 1645 1239 1768 1123 C 1890 1006 1952 856 1952 672 Z M 1378 737 C 1378 757 1371 774 1358 786 C 1344 798 1322 805 1292 805 C 1254 805 1218 796 1182 778 C 1146 760 1111 734 1079 698 C 1027 640 983 571 949 493 C 914 415 897 340 897 270 C 897 217 909 177 933 150 C 957 122 994 109 1044 109 C 1074 109 1106 117 1141 135 C 1175 153 1206 177 1233 207 L 1362 629 C 1368 650 1372 671 1374 691 C 1376 711 1378 726 1378 737 Z" unicode="@" />
<glyph horiz-adv-x="1399" d="M 1432 51 L 1419 0 L 977 0 L 987 41 C 989 51 994 58 1003 62 C 1011 66 1027 74 1051 86 C 1072 94 1087 103 1097 113 C 1107 123 1112 135 1112 150 C 1112 158 1111 169 1110 183 C 1109 197 1108 210 1106 223 L 1079 420 L 498 420 L 371 225 C 364 216 355 201 343 181 C 331 160 326 144 326 133 C 326 121 331 110 342 102 C 352 93 365 86 381 80 C 398 71 410 63 416 56 C 422 49 424 41 422 31 L 416 0 L 23 0 L 33 41 C 35 49 39 57 47 63 C 54 69 66 78 84 88 C 118 107 143 124 158 140 C 172 155 191 180 215 215 L 942 1296 L 922 1399 C 921 1403 921 1408 921 1412 C 921 1416 921 1420 922 1423 C 922 1426 924 1429 926 1432 C 928 1434 932 1437 938 1440 C 963 1452 986 1462 1007 1472 C 1027 1482 1049 1493 1073 1505 C 1075 1505 1080 1508 1086 1512 C 1092 1516 1098 1518 1102 1518 C 1106 1518 1110 1516 1113 1514 C 1115 1511 1117 1507 1118 1503 L 1317 184 C 1319 163 1327 145 1339 129 C 1351 113 1367 101 1386 92 C 1408 83 1421 77 1427 73 C 1432 69 1434 61 1432 51 Z M 563 522 L 1063 522 L 973 1147 L 563 522 Z" unicode="A" />
<glyph horiz-adv-x="1270" d="M 1384 1186 C 1384 1086 1345 1000 1269 926 C 1193 852 1090 804 961 784 C 1067 774 1154 740 1224 682 C 1294 624 1329 547 1329 451 C 1329 319 1275 210 1169 126 C 1063 42 918 0 735 0 L 88 0 L 100 51 C 102 63 108 71 116 74 C 124 77 140 83 164 92 C 193 103 211 113 218 122 C 224 131 231 148 238 174 L 518 1296 C 520 1308 523 1320 525 1330 C 527 1340 528 1349 528 1356 C 528 1366 523 1375 514 1382 C 504 1389 491 1396 475 1403 C 459 1409 448 1414 440 1417 C 432 1419 428 1425 428 1434 C 428 1436 428 1441 430 1447 C 432 1453 433 1459 434 1464 L 442 1495 L 944 1495 C 1094 1495 1204 1465 1276 1405 C 1348 1345 1384 1272 1384 1186 Z M 1094 479 C 1094 562 1065 623 1008 662 C 951 701 857 721 727 721 L 584 721 L 428 98 L 662 98 C 818 98 929 130 995 196 C 1061 262 1094 356 1094 479 Z M 1155 1182 C 1155 1248 1132 1300 1086 1340 C 1040 1379 964 1399 856 1399 L 752 1399 L 610 827 L 776 827 C 906 827 1002 860 1063 926 C 1124 992 1155 1077 1155 1182 Z" unicode="B" />
<glyph horiz-adv-x="1280" d="M 1475 1430 L 1526 1430 L 1436 1067 L 1370 1067 C 1358 1067 1350 1069 1346 1075 C 1342 1080 1339 1087 1339 1096 C 1330 1190 1299 1267 1245 1326 C 1191 1385 1118 1415 1026 1415 C 874 1415 743 1329 634 1159 C 525 989 471 792 471 569 C 471 405 506 284 577 206 C 647 128 736 90 842 90 C 926 90 1007 110 1086 152 C 1164 194 1237 251 1303 324 L 1358 246 C 1310 177 1237 115 1141 61 C 1044 7 938 -20 823 -20 C 641 -20 499 38 399 155 C 298 271 248 426 248 618 C 248 876 325 1090 481 1260 C 637 1430 810 1516 1001 1516 C 1084 1516 1155 1505 1214 1485 C 1273 1465 1325 1441 1370 1413 C 1379 1407 1387 1402 1395 1400 C 1403 1397 1412 1399 1423 1405 C 1438 1413 1448 1420 1454 1424 C 1459 1428 1466 1430 1475 1430 Z" unicode="C" />
<glyph horiz-adv-x="1438" d="M 1556 895 C 1556 761 1533 639 1487 529 C 1441 419 1380 325 1303 248 C 1217 162 1120 100 1012 60 C 904 20 788 0 666 0 L 88 0 L 100 51 C 102 63 108 71 116 74 C 124 77 140 83 164 92 C 193 103 211 113 218 122 C 224 131 231 148 238 174 L 518 1296 C 520 1308 523 1320 525 1330 C 527 1340 528 1349 528 1356 C 528 1366 523 1375 514 1382 C 504 1389 491 1396 475 1403 C 459 1409 448 1414 440 1417 C 432 1419 428 1425 428 1434 C 428 1436 428 1441 430 1447 C 432 1453 433 1459 434 1464 L 442 1495 L 881 1495 C 1097 1495 1264 1439 1381 1328 C 1497 1217 1556 1073 1556 895 Z M 1323 936 C 1323 1090 1281 1205 1197 1283 C 1113 1360 992 1399 834 1399 L 752 1399 L 428 96 L 629 96 C 729 96 820 109 901 137 C 981 164 1056 216 1126 293 C 1190 364 1238 454 1272 564 C 1306 674 1323 798 1323 936 Z" unicode="D" />
<glyph horiz-adv-x="1204" d="M 1423 1511 L 1348 1208 L 1300 1208 C 1285 1208 1274 1210 1267 1216 C 1259 1222 1255 1230 1255 1241 C 1247 1304 1236 1345 1223 1365 C 1210 1385 1168 1395 1096 1395 L 752 1395 L 606 817 L 799 817 C 836 817 863 823 879 835 C 895 847 917 871 944 907 C 953 920 962 930 971 936 C 979 942 992 946 1010 946 L 1055 946 L 963 573 L 911 573 C 896 573 885 577 879 587 C 873 596 868 606 866 616 C 858 652 849 677 840 692 C 830 707 810 715 778 715 L 582 715 L 428 100 L 870 100 C 927 100 972 114 1005 142 C 1038 170 1078 221 1124 295 C 1132 308 1140 318 1147 325 C 1153 332 1163 336 1176 336 L 1235 336 L 1151 0 L 88 0 L 100 51 C 102 63 108 71 116 74 C 124 77 140 83 164 92 C 193 103 211 113 218 122 C 224 131 231 148 238 174 L 518 1296 C 520 1308 523 1320 525 1330 C 527 1340 528 1349 528 1356 C 528 1366 523 1375 514 1382 C 504 1389 491 1396 475 1403 C 459 1409 448 1414 440 1417 C 432 1419 428 1425 428 1434 C 428 1436 428 1441 430 1447 C 432 1453 433 1459 434 1464 L 442 1495 L 1229 1495 C 1254 1495 1288 1497 1330 1501 C 1372 1505 1403 1509 1423 1511 Z" unicode="E" />
<glyph horiz-adv-x="1153" d="M 1487 1511 L 1411 1204 L 1358 1204 C 1341 1204 1330 1207 1326 1213 C 1321 1219 1319 1227 1319 1237 C 1318 1293 1309 1333 1292 1358 C 1275 1382 1230 1395 1157 1395 L 752 1395 L 604 811 L 848 811 C 886 811 914 816 930 827 C 946 838 968 862 995 899 C 1004 911 1013 921 1021 928 C 1029 934 1041 938 1059 938 L 1102 938 L 1008 565 L 956 565 C 942 565 932 569 928 579 C 923 588 920 598 918 608 C 908 644 898 669 888 685 C 878 701 857 709 825 709 L 580 709 L 453 199 C 449 186 447 174 445 164 C 443 154 442 145 442 139 C 442 128 447 119 457 112 C 467 104 481 98 498 92 C 512 86 524 81 532 78 C 540 75 545 69 545 61 C 545 58 544 53 542 47 C 540 41 539 35 539 31 L 530 0 L 90 0 L 102 51 C 105 63 110 71 118 74 C 125 77 140 83 164 92 C 193 103 211 113 218 122 C 224 131 231 148 238 174 L 518 1296 C 520 1308 523 1320 525 1330 C 527 1340 528 1349 528 1356 C 528 1366 523 1375 514 1382 C 504 1389 491 1396 475 1403 C 459 1409 448 1414 440 1417 C 432 1419 428 1425 428 1434 C 428 1436 428 1441 430 1447 C 432 1453 433 1459 434 1464 L 442 1495 L 1292 1495 C 1328 1495 1364 1497 1402 1501 C 1440 1505 1468 1509 1487 1511 Z" unicode="F" />
<glyph horiz-adv-x="1436" d="M 1507 1419 L 1559 1419 L 1468 1063 L 1405 1063 C 1392 1063 1384 1065 1380 1071 C 1376 1076 1374 1083 1374 1092 C 1365 1187 1332 1265 1274 1325 C 1216 1385 1138 1415 1038 1415 C 878 1415 743 1330 634 1162 C 525 993 471 802 471 590 C 471 430 511 304 593 212 C 675 120 782 74 915 74 C 1003 74 1062 93 1093 131 C 1123 169 1144 211 1155 256 L 1210 477 C 1214 495 1212 510 1204 521 C 1195 531 1180 542 1159 553 C 1138 561 1125 568 1120 572 C 1115 576 1114 583 1116 594 L 1128 645 L 1464 645 C 1458 628 1450 607 1440 581 C 1430 555 1423 532 1419 514 L 1358 266 C 1354 247 1353 232 1357 221 C 1361 210 1375 201 1401 193 C 1421 185 1434 180 1440 177 C 1445 174 1446 168 1444 158 L 1432 115 C 1361 85 1282 55 1195 25 C 1107 -5 1013 -20 911 -20 C 704 -20 542 39 424 159 C 306 279 248 435 248 627 C 248 868 326 1076 484 1252 C 642 1428 827 1516 1040 1516 C 1116 1516 1182 1507 1236 1489 C 1290 1471 1347 1445 1405 1409 C 1420 1400 1431 1394 1438 1392 C 1444 1389 1451 1390 1458 1395 C 1473 1403 1483 1409 1489 1413 C 1494 1417 1500 1419 1507 1419 Z" unicode="G" />
<glyph horiz-adv-x="1528" d="M 1362 1495 L 1800 1495 L 1788 1444 C 1785 1431 1780 1423 1773 1420 C 1765 1417 1750 1411 1726 1403 C 1696 1391 1678 1381 1672 1372 C 1665 1363 1659 1346 1653 1321 L 1372 199 C 1369 186 1367 174 1365 164 C 1363 154 1362 145 1362 139 C 1362 128 1366 119 1376 112 C 1385 105 1398 98 1415 92 C 1430 85 1442 80 1450 78 C 1458 75 1462 69 1462 61 C 1462 58 1461 53 1459 47 C 1457 41 1456 35 1456 31 L 1448 0 L 1010 0 L 1022 51 C 1024 63 1029 71 1037 74 C 1044 77 1059 83 1083 92 C 1113 103 1131 113 1138 122 C 1144 131 1151 148 1157 174 L 1292 717 L 582 717 L 453 199 C 449 186 447 174 445 164 C 443 154 442 145 442 139 C 442 128 446 119 456 112 C 466 104 479 98 496 92 C 510 86 522 81 530 78 C 538 75 543 69 543 61 C 543 58 542 53 540 47 C 538 41 537 35 537 31 L 528 0 L 90 0 L 102 51 C 105 63 110 71 118 74 C 125 77 140 83 164 92 C 193 103 211 113 218 122 C 224 131 231 148 238 174 L 518 1296 C 520 1308 523 1320 525 1330 C 527 1340 528 1349 528 1356 C 528 1366 523 1375 514 1382 C 504 1389 491 1396 475 1403 C 459 1409 448 1414 440 1417 C 432 1419 428 1425 428 1434 C 428 1436 428 1441 430 1447 C 432 1453 433 1459 434 1464 L 442 1495 L 881 1495 L 868 1444 C 865 1431 860 1423 853 1420 C 845 1417 830 1411 807 1403 C 777 1391 759 1381 752 1372 C 745 1363 739 1346 733 1321 L 608 823 L 1319 823 L 1438 1296 C 1440 1308 1443 1320 1445 1330 C 1447 1340 1448 1349 1448 1356 C 1448 1366 1443 1375 1433 1383 C 1423 1390 1411 1397 1395 1403 C 1379 1409 1368 1413 1360 1416 C 1352 1419 1348 1425 1348 1434 C 1348 1436 1348 1441 1350 1447 C 1352 1453 1353 1459 1354 1464 L 1362 1495 Z" unicode="H" />
<glyph horiz-adv-x="623" d="M 446 1495 L 889 1495 L 877 1444 C 873 1431 868 1423 860 1420 C 852 1417 836 1411 813 1403 C 783 1391 765 1381 759 1372 C 752 1363 745 1346 739 1321 L 459 199 C 456 186 454 174 452 164 C 450 154 449 145 449 139 C 449 128 453 119 463 112 C 472 104 485 98 502 92 C 516 86 528 81 537 78 C 546 75 551 69 551 61 C 551 58 550 53 548 47 C 546 41 545 35 545 31 L 537 0 L 94 0 L 106 51 C 109 63 115 71 123 74 C 131 77 146 83 170 92 C 199 103 217 113 224 122 C 230 131 237 148 244 174 L 524 1296 C 526 1308 529 1320 531 1330 C 533 1340 535 1349 535 1356 C 535 1366 530 1375 520 1382 C 510 1389 497 1396 481 1403 C 466 1409 454 1414 445 1417 C 436 1419 432 1425 432 1434 C 432 1436 432 1441 434 1447 C 436 1453 437 1459 438 1464 L 446 1495 Z" unicode="I" />
<glyph horiz-adv-x="926" d="M 776 1495 L 1217 1495 L 1204 1444 C 1201 1431 1196 1423 1189 1420 C 1181 1417 1166 1411 1143 1403 C 1113 1391 1094 1381 1088 1372 C 1081 1363 1075 1346 1069 1321 L 852 416 C 821 288 761 184 672 102 C 582 20 471 -20 338 -20 C 250 -20 184 0 138 41 C 92 82 70 129 70 182 C 70 224 81 261 104 294 C 127 327 160 344 203 344 C 236 344 262 335 281 317 C 299 299 309 277 309 250 C 309 225 304 203 294 183 C 284 163 266 146 242 133 C 246 115 259 99 283 85 C 307 70 332 63 360 63 C 413 63 464 83 512 123 C 560 163 597 232 621 328 L 854 1296 C 856 1308 859 1320 861 1330 C 863 1340 864 1349 864 1356 C 864 1366 859 1375 850 1382 C 840 1389 827 1396 811 1403 C 795 1409 783 1414 775 1417 C 766 1419 762 1425 762 1434 C 762 1436 762 1441 764 1447 C 766 1453 767 1459 768 1464 L 776 1495 Z" unicode="J" />
<glyph horiz-adv-x="1346" d="M 1165 1495 L 1630 1495 L 1618 1446 C 1615 1432 1610 1423 1602 1419 C 1594 1415 1572 1407 1536 1397 C 1494 1383 1462 1370 1440 1356 C 1418 1342 1389 1320 1352 1290 L 778 838 L 1231 178 C 1241 161 1256 145 1276 130 C 1296 114 1318 100 1343 88 C 1363 78 1377 71 1384 68 C 1390 64 1393 58 1391 49 L 1378 0 L 911 0 L 924 49 C 926 57 932 64 942 69 C 952 73 967 80 987 88 C 996 92 1003 97 1009 103 C 1014 109 1017 114 1018 119 C 1020 125 1017 134 1009 148 C 1001 161 993 173 987 184 L 592 766 L 453 199 C 449 186 447 174 445 164 C 443 154 442 145 442 139 C 442 128 446 119 456 112 C 466 104 479 98 496 92 C 510 86 522 81 530 78 C 538 75 543 69 543 61 C 543 58 542 53 540 47 C 538 41 537 35 537 31 L 528 0 L 90 0 L 102 51 C 105 63 110 71 118 74 C 125 77 140 83 164 92 C 193 103 211 113 218 122 C 224 131 231 148 238 174 L 518 1296 C 520 1308 523 1320 525 1330 C 527 1340 528 1349 528 1356 C 528 1366 523 1375 514 1382 C 504 1389 491 1396 475 1403 C 459 1409 448 1414 440 1417 C 432 1419 428 1425 428 1434 C 428 1436 428 1441 430 1447 C 432 1453 433 1459 434 1464 L 442 1495 L 881 1495 L 868 1444 C 865 1431 860 1423 853 1420 C 845 1417 830 1411 807 1403 C 777 1391 759 1381 752 1372 C 745 1363 739 1346 733 1321 L 604 819 L 1190 1303 C 1206 1315 1221 1328 1235 1340 C 1249 1352 1257 1362 1260 1368 C 1262 1378 1255 1386 1239 1392 C 1223 1397 1207 1403 1192 1409 C 1172 1417 1161 1423 1157 1429 C 1153 1435 1152 1444 1155 1456 L 1165 1495 Z" unicode="K" />
<glyph horiz-adv-x="1169" d="M 1171 340 L 1231 340 L 1145 0 L 86 0 L 98 51 C 100 63 106 71 115 74 C 124 77 140 83 164 92 C 193 103 211 113 218 122 C 224 131 231 148 238 174 L 518 1296 C 520 1308 523 1320 525 1330 C 527 1340 528 1349 528 1356 C 528 1366 523 1375 514 1382 C 504 1389 491 1396 475 1403 C 459 1409 448 1414 440 1417 C 432 1419 428 1425 428 1434 C 428 1436 428 1441 430 1447 C 432 1453 433 1459 434 1464 L 442 1495 L 881 1495 L 868 1444 C 865 1431 860 1423 853 1420 C 845 1417 830 1411 807 1403 C 777 1391 759 1381 752 1372 C 745 1363 739 1346 733 1321 L 428 100 L 864 100 C 921 100 966 115 1000 145 C 1033 175 1073 227 1120 299 C 1127 313 1134 324 1142 330 C 1149 336 1159 340 1171 340 Z" unicode="L" />
<glyph horiz-adv-x="1765" d="M 1657 1495 L 2038 1495 L 2025 1444 C 2022 1431 2017 1423 2010 1420 C 2002 1417 1987 1411 1964 1403 C 1934 1391 1916 1381 1910 1372 C 1903 1363 1896 1346 1890 1321 L 1610 199 C 1607 186 1604 174 1602 164 C 1600 154 1599 145 1599 139 C 1599 128 1603 119 1613 112 C 1623 104 1636 98 1653 92 C 1667 86 1679 81 1687 78 C 1695 75 1700 69 1700 61 C 1700 58 1699 53 1697 47 C 1695 41 1694 35 1694 31 L 1686 0 L 1251 0 L 1264 51 C 1266 63 1271 71 1279 74 C 1286 77 1301 83 1325 92 C 1354 103 1372 113 1379 122 C 1385 131 1392 148 1399 174 L 1688 1329 L 897 23 C 893 16 886 10 876 5 C 866 0 854 -2 840 -2 C 821 -2 809 0 803 5 C 797 9 793 15 793 23 L 662 1358 L 391 276 C 387 260 383 245 381 231 C 378 217 377 203 377 190 C 377 173 380 158 386 144 C 392 130 401 116 414 102 C 431 86 443 76 451 72 C 458 68 461 61 459 53 L 446 0 L 78 0 L 90 53 C 92 61 97 68 106 73 C 115 78 133 89 160 106 C 185 123 205 141 219 161 C 233 181 244 202 250 225 L 518 1296 C 520 1308 523 1320 525 1330 C 527 1340 528 1349 528 1356 C 528 1366 523 1375 514 1382 C 504 1389 491 1396 475 1403 C 459 1409 448 1414 440 1417 C 432 1419 428 1425 428 1434 C 428 1436 428 1441 430 1447 C 432 1453 433 1459 434 1464 L 442 1495 L 848 1495 L 961 330 L 1657 1495 Z" unicode="M" />
<glyph horiz-adv-x="1460" d="M 1380 1495 L 1751 1495 L 1737 1442 C 1735 1433 1729 1426 1720 1421 C 1711 1416 1693 1405 1667 1389 C 1641 1371 1621 1352 1606 1332 C 1591 1311 1581 1290 1577 1270 L 1260 -10 L 1176 -10 L 645 1294 L 391 276 C 387 259 383 244 381 230 C 378 216 377 203 377 190 C 377 173 380 158 386 144 C 392 130 401 116 414 102 C 431 86 443 76 451 72 C 458 68 461 61 459 53 L 446 0 L 78 0 L 90 53 C 92 61 97 68 106 73 C 115 78 133 89 160 106 C 185 123 205 141 219 161 C 233 181 244 202 250 225 L 518 1296 C 520 1307 523 1318 525 1329 C 527 1340 528 1349 528 1356 C 528 1366 523 1375 514 1382 C 504 1389 491 1396 475 1403 C 459 1409 448 1414 440 1417 C 432 1419 428 1425 428 1434 C 428 1436 428 1441 430 1447 C 432 1453 433 1459 434 1464 L 442 1495 L 786 1495 L 1231 389 L 1436 1219 C 1440 1235 1443 1250 1446 1264 C 1448 1278 1450 1291 1450 1305 C 1450 1321 1447 1336 1441 1350 C 1435 1364 1425 1378 1413 1393 C 1395 1409 1383 1419 1375 1423 C 1367 1427 1364 1433 1366 1442 L 1380 1495 Z" unicode="N" />
<glyph horiz-adv-x="1497" d="M 1616 907 C 1616 667 1540 453 1389 264 C 1237 74 1045 -20 813 -20 C 647 -20 512 36 408 150 C 304 263 252 409 252 588 C 252 825 327 1039 477 1230 C 627 1420 821 1516 1059 1516 C 1229 1516 1364 1457 1465 1340 C 1565 1223 1616 1079 1616 907 Z M 1397 975 C 1397 1112 1367 1220 1307 1298 C 1247 1376 1163 1415 1053 1415 C 887 1415 748 1323 637 1141 C 526 958 471 752 471 522 C 471 384 501 275 561 197 C 621 119 707 80 819 80 C 984 80 1122 171 1232 353 C 1342 535 1397 742 1397 975 Z" unicode="O" />
<glyph horiz-adv-x="1190" d="M 1411 1151 C 1411 1011 1353 896 1237 805 C 1121 713 958 668 748 668 L 571 668 L 453 199 C 449 186 447 174 445 164 C 443 154 442 145 442 139 C 442 128 446 119 456 112 C 466 104 479 98 496 92 C 510 86 522 81 530 78 C 538 75 543 69 543 61 C 543 58 542 53 540 47 C 538 41 537 35 537 31 L 528 0 L 90 0 L 102 51 C 105 63 110 71 118 74 C 125 77 140 83 164 92 C 193 103 211 113 218 122 C 224 131 231 148 238 174 L 518 1296 C 520 1308 523 1320 525 1330 C 527 1340 528 1349 528 1356 C 528 1366 523 1375 514 1382 C 504 1389 491 1396 475 1403 C 459 1409 448 1414 440 1417 C 432 1419 428 1425 428 1434 C 428 1436 428 1441 430 1447 C 432 1453 433 1459 434 1464 L 442 1495 L 950 1495 C 1098 1495 1212 1462 1292 1398 C 1371 1333 1411 1251 1411 1151 Z M 1180 1151 C 1180 1226 1154 1285 1102 1329 C 1050 1373 975 1395 879 1395 L 752 1395 L 596 774 L 774 774 C 916 774 1019 810 1083 882 C 1147 954 1180 1044 1180 1151 Z" unicode="P" />
<glyph horiz-adv-x="1497" d="M 1616 907 C 1616 684 1549 481 1416 299 C 1282 117 1111 12 903 -14 C 933 -25 970 -41 1014 -63 C 1058 -84 1101 -105 1143 -127 C 1191 -151 1233 -168 1269 -178 C 1305 -188 1349 -193 1401 -193 C 1428 -193 1455 -188 1482 -180 C 1509 -172 1533 -164 1554 -156 L 1536 -231 C 1508 -253 1466 -279 1409 -308 C 1352 -337 1287 -352 1214 -352 C 1138 -352 1077 -335 1031 -301 C 984 -267 939 -228 895 -184 C 845 -133 805 -96 777 -73 C 748 -50 718 -28 688 -8 C 555 20 449 88 370 194 C 291 300 252 432 252 588 C 252 825 327 1039 477 1230 C 627 1420 821 1516 1059 1516 C 1229 1516 1364 1457 1465 1340 C 1565 1223 1616 1079 1616 907 Z M 1397 975 C 1397 1112 1367 1220 1307 1298 C 1247 1376 1163 1415 1053 1415 C 886 1415 747 1323 637 1140 C 526 957 471 751 471 522 C 471 384 500 275 560 196 C 619 117 705 78 817 78 C 983 78 1121 169 1231 351 C 1341 533 1397 741 1397 975 Z" unicode="Q" />
<glyph horiz-adv-x="1333" d="M 1432 1163 C 1432 1059 1390 965 1306 881 C 1222 797 1096 743 926 719 C 970 699 1008 662 1042 608 C 1075 554 1126 441 1194 270 C 1211 227 1229 190 1248 158 C 1267 126 1292 105 1323 94 C 1350 84 1368 76 1378 72 C 1387 67 1391 59 1389 49 L 1378 0 L 1087 0 L 936 360 C 900 445 863 521 825 588 C 787 654 725 688 641 688 L 575 688 L 453 199 C 449 186 447 174 445 164 C 443 154 442 145 442 139 C 442 128 446 119 456 112 C 466 104 479 98 496 92 C 510 86 522 81 530 78 C 538 75 543 69 543 61 C 543 58 542 53 540 47 C 538 41 537 35 537 31 L 528 0 L 90 0 L 102 51 C 105 63 110 71 118 74 C 125 77 140 83 164 92 C 193 103 211 113 218 122 C 224 131 231 148 238 174 L 518 1296 C 520 1308 523 1320 525 1330 C 527 1340 528 1349 528 1356 C 528 1366 523 1375 514 1382 C 504 1389 491 1396 475 1403 C 459 1409 448 1414 440 1417 C 432 1419 428 1425 428 1434 C 428 1436 428 1441 430 1447 C 432 1453 433 1459 434 1464 L 442 1495 L 983 1495 C 1135 1495 1248 1462 1322 1398 C 1395 1333 1432 1255 1432 1163 Z M 1196 1161 C 1196 1237 1170 1295 1118 1335 C 1066 1375 998 1395 913 1395 L 752 1395 L 602 795 L 784 795 C 920 795 1023 826 1092 890 C 1161 954 1196 1044 1196 1161 Z" unicode="R" />
<glyph horiz-adv-x="1128" d="M 1233 1450 L 1286 1450 L 1196 1094 L 1130 1094 C 1119 1094 1112 1097 1108 1102 C 1104 1107 1102 1114 1102 1122 C 1091 1210 1065 1281 1023 1335 C 981 1388 918 1415 834 1415 C 756 1415 692 1391 640 1344 C 588 1297 563 1238 563 1167 C 563 1119 573 1076 595 1039 C 617 1002 649 971 692 946 C 724 926 761 907 802 887 C 842 867 877 850 907 836 C 1009 784 1081 730 1125 672 C 1168 614 1190 546 1190 467 C 1190 350 1142 240 1047 136 C 951 32 818 -20 647 -20 C 561 -20 486 -8 421 15 C 355 38 311 55 289 66 C 281 68 274 71 267 73 C 260 75 254 76 250 76 C 240 76 233 74 227 72 C 221 69 215 63 209 55 C 201 45 191 37 181 33 C 171 29 162 27 156 27 L 96 27 L 197 428 L 262 428 C 272 428 280 425 285 419 C 290 413 295 401 299 383 C 326 273 373 195 441 149 C 509 103 581 80 659 80 C 759 80 841 108 905 165 C 969 222 1001 299 1001 397 C 1001 461 981 511 942 548 C 902 585 855 617 801 645 C 761 665 725 683 695 698 C 664 713 632 730 598 748 C 514 792 457 844 425 903 C 393 962 377 1030 377 1108 C 377 1214 419 1308 505 1391 C 590 1474 703 1516 844 1516 C 882 1516 927 1510 977 1500 C 1027 1489 1077 1468 1128 1438 C 1138 1431 1148 1426 1156 1424 C 1164 1422 1174 1424 1186 1432 C 1200 1440 1209 1445 1214 1447 C 1218 1449 1225 1450 1233 1450 Z" unicode="S" />
<glyph horiz-adv-x="1276" d="M 1602 1511 L 1524 1198 L 1483 1198 C 1464 1198 1450 1202 1442 1211 C 1434 1220 1430 1231 1430 1243 C 1424 1298 1414 1337 1398 1361 C 1382 1385 1355 1397 1317 1397 L 1075 1397 L 776 199 C 773 186 771 174 769 164 C 767 154 766 145 766 139 C 766 128 771 119 782 112 C 793 104 807 98 823 92 C 838 86 850 81 858 77 C 866 73 870 68 870 61 C 870 58 869 53 867 47 C 865 41 864 35 864 31 L 856 0 L 410 0 L 422 51 C 424 63 430 71 439 74 C 447 77 463 83 487 92 C 517 103 535 113 542 122 C 548 131 555 148 561 174 L 866 1397 L 631 1397 C 593 1397 559 1385 531 1361 C 502 1337 472 1298 442 1243 C 436 1231 425 1220 411 1211 C 397 1202 381 1198 365 1198 L 317 1198 L 395 1511 C 412 1509 443 1505 488 1501 C 532 1497 569 1495 598 1495 L 1391 1495 C 1407 1495 1442 1497 1496 1501 C 1550 1505 1585 1509 1602 1511 Z" unicode="T" />
<glyph horiz-adv-x="1462" d="M 1393 1495 L 1767 1495 L 1753 1442 C 1751 1433 1745 1426 1736 1421 C 1727 1416 1709 1405 1683 1389 C 1657 1371 1638 1353 1624 1333 C 1610 1313 1599 1292 1593 1270 L 1407 528 C 1365 364 1291 231 1183 131 C 1075 30 941 -20 782 -20 C 618 -20 495 17 414 93 C 333 168 293 263 293 379 C 293 400 295 425 299 453 C 303 481 309 507 315 530 L 506 1296 C 508 1308 511 1320 513 1330 C 515 1340 516 1349 516 1356 C 516 1366 511 1375 502 1382 C 492 1389 479 1396 463 1403 C 447 1409 436 1414 428 1417 C 420 1419 416 1425 416 1434 C 416 1436 416 1441 418 1447 C 420 1453 421 1459 422 1464 L 430 1495 L 868 1495 L 856 1444 C 853 1431 848 1423 841 1420 C 833 1417 818 1411 795 1403 C 765 1391 746 1381 740 1372 C 733 1363 727 1346 721 1321 L 526 543 C 521 521 516 497 512 470 C 508 443 506 420 506 401 C 506 315 534 247 590 196 C 646 144 721 119 817 119 C 947 119 1047 154 1119 226 C 1191 298 1244 405 1280 547 L 1448 1219 C 1452 1235 1455 1250 1458 1264 C 1460 1278 1462 1291 1462 1305 C 1462 1321 1459 1336 1453 1350 C 1447 1364 1437 1378 1425 1393 C 1408 1409 1395 1419 1387 1423 C 1379 1427 1376 1433 1378 1442 L 1393 1495 Z" unicode="U" />
<glyph horiz-adv-x="1419" d="M 1374 1495 L 1769 1495 L 1759 1454 C 1756 1444 1751 1435 1744 1429 C 1737 1423 1724 1415 1706 1407 C 1671 1388 1646 1373 1631 1361 C 1615 1349 1595 1324 1571 1286 L 743 4 C 738 -2 733 -7 728 -11 C 722 -14 715 -16 707 -16 L 688 -16 C 681 -16 675 -14 669 -12 C 663 -9 660 -4 659 4 L 457 1317 C 454 1337 446 1354 432 1367 C 418 1380 399 1392 377 1403 C 357 1411 345 1418 339 1422 C 333 1426 331 1433 334 1444 L 348 1495 L 793 1495 L 782 1454 C 779 1444 774 1436 766 1432 C 758 1428 742 1420 719 1409 C 700 1401 686 1392 678 1382 C 670 1372 666 1362 666 1352 C 666 1343 666 1330 667 1313 C 668 1295 669 1282 670 1272 L 815 307 L 1417 1276 C 1426 1290 1435 1308 1445 1328 C 1455 1348 1460 1362 1460 1368 C 1460 1382 1455 1392 1446 1397 C 1436 1402 1423 1408 1407 1415 C 1389 1423 1377 1431 1371 1438 C 1365 1444 1363 1453 1366 1464 L 1374 1495 Z" unicode="V" />
<glyph horiz-adv-x="2044" d="M 1987 1495 L 2388 1495 L 2378 1454 C 2376 1444 2371 1435 2364 1429 C 2357 1423 2345 1415 2327 1407 C 2291 1387 2265 1372 2249 1362 C 2233 1351 2214 1326 2191 1286 L 1419 4 C 1416 0 1411 -5 1405 -9 C 1398 -13 1391 -16 1384 -16 L 1356 -16 C 1347 -16 1340 -14 1336 -11 C 1332 -7 1329 -2 1329 4 L 1251 971 L 694 4 C 690 -2 685 -7 679 -11 C 673 -14 666 -16 659 -16 L 633 -16 C 625 -16 619 -14 614 -11 C 609 -7 606 -2 606 4 L 461 1317 C 459 1335 450 1352 436 1366 C 422 1380 403 1392 381 1403 C 360 1411 347 1418 342 1422 C 337 1426 336 1433 338 1444 L 350 1495 L 795 1495 L 784 1454 C 782 1444 777 1436 769 1432 C 761 1428 746 1420 723 1409 C 704 1401 692 1393 686 1385 C 680 1377 676 1368 674 1358 C 672 1349 670 1335 670 1317 C 669 1298 669 1282 670 1268 L 766 332 L 1231 1137 L 1208 1317 C 1206 1335 1198 1352 1186 1366 C 1174 1380 1156 1392 1133 1403 C 1113 1411 1101 1418 1096 1422 C 1090 1426 1089 1433 1092 1444 L 1104 1495 L 1544 1495 L 1534 1454 C 1532 1444 1527 1436 1519 1432 C 1511 1428 1494 1420 1470 1409 C 1452 1401 1439 1393 1431 1385 C 1423 1377 1419 1368 1417 1358 C 1415 1349 1413 1334 1413 1314 C 1412 1294 1412 1278 1413 1268 L 1493 328 L 2038 1274 C 2046 1288 2054 1305 2063 1325 C 2072 1345 2077 1358 2077 1364 C 2077 1379 2072 1390 2062 1396 C 2052 1402 2039 1408 2023 1415 C 2005 1423 1992 1431 1986 1438 C 1980 1444 1978 1453 1980 1464 L 1987 1495 Z" unicode="W" />
<glyph horiz-adv-x="1303" d="M 1194 1495 L 1620 1495 L 1610 1454 C 1608 1445 1603 1437 1596 1429 C 1588 1421 1575 1415 1556 1409 C 1522 1399 1493 1383 1467 1362 C 1441 1340 1410 1310 1374 1270 L 936 786 L 1178 193 C 1188 166 1199 147 1211 137 C 1222 126 1242 113 1270 98 C 1289 88 1300 79 1303 73 C 1306 66 1307 58 1305 49 L 1292 0 L 858 0 L 866 35 C 868 47 872 56 877 60 C 881 64 893 71 913 80 C 928 86 942 94 954 104 C 966 114 973 124 973 135 C 973 143 971 155 968 170 C 965 185 961 199 956 213 L 778 655 L 375 195 C 367 186 359 175 351 162 C 342 149 338 139 338 133 C 338 121 345 111 361 104 C 377 96 394 88 414 80 C 424 76 432 69 436 60 C 440 50 440 41 438 31 L 432 0 L 6 0 L 16 41 C 18 49 22 57 30 65 C 37 73 50 80 70 86 C 103 96 132 111 158 133 C 184 154 215 185 252 225 L 735 758 L 514 1303 C 503 1330 492 1349 480 1359 C 468 1369 449 1382 422 1397 C 400 1407 388 1415 386 1422 C 383 1428 383 1436 385 1446 L 397 1495 L 834 1495 L 825 1460 C 822 1447 818 1438 813 1434 C 807 1430 794 1423 774 1415 C 761 1409 749 1401 737 1392 C 725 1383 719 1372 719 1360 C 719 1353 720 1342 722 1327 C 724 1311 729 1296 735 1282 L 893 889 L 1251 1300 C 1258 1308 1266 1319 1274 1332 C 1282 1345 1286 1355 1286 1362 C 1286 1374 1278 1383 1263 1391 C 1248 1398 1231 1406 1212 1415 C 1201 1419 1194 1425 1190 1435 C 1186 1444 1185 1454 1188 1464 L 1194 1495 Z" unicode="X" />
<glyph horiz-adv-x="1280" d="M 1247 1495 L 1642 1495 L 1632 1454 C 1629 1444 1624 1436 1617 1430 C 1610 1424 1597 1417 1579 1409 C 1546 1392 1522 1379 1506 1369 C 1490 1359 1463 1332 1427 1290 L 909 684 L 788 199 C 785 186 783 174 781 164 C 779 154 778 145 778 139 C 778 128 782 119 792 112 C 802 104 815 98 831 92 C 846 86 858 81 867 78 C 876 75 881 69 881 61 C 881 58 880 53 878 47 C 876 41 875 35 874 31 L 866 0 L 424 0 L 436 51 C 438 63 444 71 452 74 C 460 77 476 83 500 92 C 529 103 547 113 554 122 C 560 131 567 148 573 174 L 698 680 L 451 1317 C 442 1337 432 1354 420 1367 C 408 1380 392 1392 371 1403 C 350 1411 337 1418 332 1422 C 327 1426 326 1433 328 1444 L 340 1495 L 786 1495 L 778 1462 C 775 1451 771 1443 766 1439 C 760 1434 745 1426 721 1415 C 702 1407 688 1399 678 1391 C 668 1383 664 1374 664 1366 C 664 1361 666 1351 670 1335 C 674 1319 677 1306 680 1298 L 868 801 L 1286 1296 C 1297 1309 1308 1324 1320 1340 C 1331 1356 1337 1368 1337 1374 C 1337 1385 1331 1393 1321 1398 C 1311 1403 1298 1409 1284 1415 C 1264 1423 1251 1431 1245 1437 C 1238 1443 1236 1452 1239 1462 L 1247 1495 Z" unicode="Y" />
<glyph horiz-adv-x="1223" d="M 668 1495 L 1491 1495 L 1485 1468 C 1480 1447 1473 1431 1464 1421 C 1454 1411 1444 1398 1432 1384 L 360 100 L 874 100 C 931 100 978 114 1015 143 C 1051 172 1093 223 1139 295 C 1147 309 1155 320 1162 326 C 1168 332 1178 336 1192 336 L 1249 336 L 1161 -16 C 1143 -14 1111 -10 1065 -6 C 1019 -2 982 0 954 0 L 66 0 L 76 37 C 80 49 85 61 93 71 C 101 81 112 95 127 113 L 1198 1395 L 721 1395 C 681 1395 645 1383 615 1359 C 585 1335 554 1296 522 1241 C 515 1229 506 1218 494 1209 C 482 1200 467 1196 449 1196 L 408 1196 L 485 1511 C 502 1509 531 1505 571 1501 C 611 1497 643 1495 668 1495 Z" unicode="Z" />
<glyph horiz-adv-x="715" d="M 522 1495 L 1010 1495 L 987 1411 L 674 1411 L 248 -305 L 561 -305 L 539 -389 L 51 -389 L 522 1495 Z" unicode="[" />
<glyph horiz-adv-x="913" d="M 496 1495 L 965 -389 L 842 -389 L 371 1495 L 496 1495 Z" unicode="\" />
<glyph horiz-adv-x="715" d="M 438 1495 L 926 1495 L 455 -389 L -33 -389 L -10 -305 L 303 -305 L 729 1411 L 416 1411 L 438 1495 Z" unicode="]" />
<glyph horiz-adv-x="1548" d="M 1032 1495 L 1434 664 L 1290 664 L 967 1354 L 643 664 L 500 664 L 901 1495 L 1032 1495 Z" unicode="^" />
<glyph horiz-adv-x="1024" d="M -8 -123 L 1028 -123 L 1006 -211 L -31 -211 L -8 -123 Z" unicode="_" />
<glyph horiz-adv-x="819" d="M 563 1440 L 807 1149 L 758 1114 L 444 1298 C 414 1315 393 1333 380 1351 C 366 1369 360 1387 360 1407 C 360 1431 368 1453 385 1471 C 402 1489 424 1499 451 1499 C 467 1499 485 1495 503 1488 C 521 1481 541 1465 563 1440 Z" unicode="`" />
<glyph horiz-adv-x="1120" d="M 1176 139 L 1196 66 C 1172 44 1140 24 1100 6 C 1059 -11 1015 -20 967 -20 C 909 -20 870 -5 848 24 C 826 53 815 91 815 139 C 774 101 728 65 676 32 C 624 -1 567 -18 504 -18 C 396 -18 316 14 264 80 C 212 146 186 234 186 344 C 186 527 247 685 369 817 C 491 949 637 1016 805 1016 C 855 1016 897 1009 929 996 C 961 982 990 967 1016 950 C 1022 946 1029 943 1037 942 C 1044 941 1051 943 1059 948 L 1135 1010 C 1139 1014 1145 1017 1153 1019 C 1160 1021 1166 1022 1171 1022 C 1178 1022 1184 1019 1190 1015 C 1196 1010 1198 1003 1196 995 L 995 215 C 993 205 991 195 989 186 C 987 176 987 168 987 160 C 987 143 992 128 1003 115 C 1013 102 1031 96 1057 96 C 1075 96 1094 100 1112 108 C 1130 116 1152 126 1176 139 Z M 813 221 L 967 831 C 949 851 926 871 898 890 C 870 908 835 918 793 918 C 665 918 566 861 494 749 C 422 636 387 503 387 350 C 387 267 404 206 439 167 C 474 128 522 109 582 109 C 628 109 667 119 700 140 C 733 161 771 188 813 221 Z" unicode="a" />
<glyph horiz-adv-x="1108" d="M 1200 662 C 1200 488 1141 331 1025 191 C 909 50 762 -20 586 -20 C 470 -20 383 9 325 69 C 267 128 238 194 238 268 C 238 296 240 325 246 354 C 251 382 258 412 266 444 L 483 1313 C 490 1340 489 1360 481 1372 C 473 1384 457 1397 434 1411 C 417 1420 405 1427 397 1431 C 389 1435 387 1441 389 1450 L 401 1495 L 715 1495 L 557 877 C 594 905 640 935 694 965 C 748 995 808 1010 874 1010 C 970 1010 1048 981 1109 923 C 1169 865 1200 778 1200 662 Z M 999 655 C 999 738 980 796 944 830 C 908 864 860 881 801 881 C 741 881 691 869 651 845 C 611 821 570 791 528 756 L 434 362 C 431 348 428 330 424 310 C 420 289 418 272 418 260 C 418 204 431 160 457 127 C 483 94 526 78 588 78 C 716 78 817 135 890 249 C 962 363 999 498 999 655 Z" unicode="b" />
<glyph horiz-adv-x="901" d="M 1032 807 C 1032 760 1020 727 997 708 C 974 689 949 680 922 680 C 893 680 868 688 846 704 C 824 720 813 743 813 774 C 813 786 816 802 823 820 C 829 838 837 855 846 870 C 835 881 818 893 794 906 C 770 919 738 926 700 926 C 601 926 525 869 473 755 C 421 641 395 523 395 403 C 395 318 412 245 446 184 C 480 122 539 92 625 92 C 694 92 752 109 800 143 C 847 177 891 215 932 258 L 985 197 C 951 149 902 101 836 53 C 770 4 688 -20 590 -20 C 475 -20 381 16 307 89 C 233 161 197 262 197 391 C 197 543 246 685 346 816 C 445 946 577 1012 741 1012 C 837 1012 909 988 958 941 C 1007 894 1032 849 1032 807 Z" unicode="c" />
<glyph horiz-adv-x="1147" d="M 1026 1495 L 1352 1495 L 1030 215 C 1028 205 1026 195 1024 186 C 1022 176 1022 168 1022 160 C 1022 143 1026 128 1036 115 C 1046 102 1064 96 1090 96 C 1108 96 1126 100 1145 108 C 1163 116 1184 126 1208 139 L 1229 66 C 1211 50 1182 32 1142 11 C 1102 -9 1054 -20 999 -20 C 935 -20 894 -2 877 33 C 859 69 850 105 850 143 C 809 105 758 68 697 34 C 636 0 574 -18 510 -18 C 397 -18 315 15 263 83 C 211 151 186 238 186 344 C 186 527 246 684 366 815 C 486 946 623 1012 776 1012 C 833 1012 880 1002 918 982 C 955 962 988 934 1018 897 L 1120 1315 C 1126 1340 1125 1359 1117 1372 C 1108 1384 1092 1397 1069 1411 C 1052 1420 1039 1427 1029 1431 C 1019 1435 1016 1441 1018 1450 L 1026 1495 Z M 846 223 L 985 778 C 963 814 936 844 904 867 C 872 889 831 901 780 901 C 658 901 561 846 491 738 C 420 629 385 500 385 350 C 385 267 403 206 440 168 C 477 130 526 111 588 111 C 632 111 676 122 718 144 C 760 166 803 192 846 223 Z" unicode="d" />
<glyph horiz-adv-x="936" d="M 1057 788 C 1057 682 1005 600 902 543 C 799 485 662 457 492 457 L 393 457 C 393 451 392 443 391 431 C 389 419 389 408 389 399 C 389 294 411 217 457 168 C 503 118 563 94 637 94 C 687 94 742 108 800 137 C 858 166 917 210 979 268 L 1024 213 C 976 141 915 84 843 42 C 770 0 684 -20 586 -20 C 460 -20 364 18 298 96 C 232 173 199 269 199 385 C 199 551 254 698 364 824 C 474 950 611 1014 774 1014 C 858 1014 927 993 979 953 C 1031 912 1057 857 1057 788 Z M 877 784 C 877 832 863 867 836 889 C 809 911 777 922 741 922 C 665 922 596 888 533 822 C 469 755 425 661 401 539 C 547 540 663 560 749 598 C 834 636 877 698 877 784 Z" unicode="e" />
<glyph horiz-adv-x="633" d="M 1032 1380 C 1030 1349 1019 1324 1000 1304 C 981 1284 955 1274 922 1274 C 900 1274 878 1283 854 1301 C 830 1319 819 1353 821 1403 C 801 1397 774 1379 740 1350 C 706 1321 673 1244 641 1120 L 606 981 L 872 981 L 850 889 L 590 889 L 385 0 L 199 0 L 403 889 L 291 889 L 299 922 C 301 932 308 941 319 947 C 329 953 351 961 383 973 C 400 977 412 986 420 998 C 427 1010 434 1025 440 1044 C 478 1169 537 1275 615 1363 C 693 1451 784 1495 889 1495 C 943 1495 981 1482 1003 1457 C 1024 1432 1034 1406 1032 1380 Z" unicode="f" />
<glyph horiz-adv-x="1055" d="M 1276 942 C 1276 915 1266 895 1246 883 C 1226 870 1207 864 1188 864 C 1170 864 1157 867 1148 873 C 1139 879 1130 884 1122 889 C 1117 893 1111 897 1103 902 C 1095 906 1087 909 1079 909 C 1070 909 1059 904 1046 894 C 1033 884 1024 875 1020 868 C 1034 841 1045 814 1052 787 C 1059 760 1063 735 1063 713 C 1063 608 1021 515 939 433 C 857 351 746 311 608 311 C 585 311 559 314 530 320 C 501 326 477 332 459 338 L 338 158 C 367 160 402 162 443 165 C 483 168 532 170 588 170 C 737 170 844 149 908 107 C 972 65 1004 16 1004 -41 C 1004 -157 949 -247 841 -311 C 733 -374 607 -406 463 -406 C 345 -406 258 -392 202 -365 C 145 -338 117 -300 117 -250 C 117 -215 129 -189 154 -171 C 179 -153 207 -145 238 -145 C 270 -145 296 -155 314 -175 C 332 -195 342 -219 342 -248 C 342 -252 340 -259 338 -269 C 336 -279 334 -287 332 -293 C 338 -295 356 -300 388 -307 C 420 -313 452 -317 485 -317 C 575 -317 656 -298 728 -261 C 800 -224 836 -173 836 -109 C 836 -67 811 -33 762 -9 C 713 14 631 27 516 27 C 425 27 344 22 274 12 C 204 2 164 -2 154 -2 C 144 -2 135 0 126 2 C 117 5 113 11 113 20 C 113 27 116 35 123 43 C 130 51 136 58 141 66 L 385 381 C 341 411 308 447 287 489 C 266 530 256 575 256 625 C 256 735 301 829 391 906 C 481 983 587 1022 711 1022 C 769 1022 821 1012 865 994 C 909 976 946 953 977 926 C 1001 951 1031 975 1065 997 C 1099 1019 1135 1030 1174 1030 C 1202 1030 1226 1023 1246 1010 C 1266 996 1276 974 1276 942 Z M 887 729 C 887 782 871 829 840 870 C 808 911 760 932 694 932 C 602 932 537 895 497 823 C 457 751 438 679 438 608 C 438 546 455 495 490 456 C 524 416 573 397 637 397 C 712 397 772 433 818 505 C 864 577 887 651 887 729 Z" unicode="g" />
<glyph horiz-adv-x="1157" d="M 1219 139 L 1239 66 C 1221 50 1192 32 1152 11 C 1112 -9 1064 -20 1010 -20 C 946 -20 901 -6 877 21 C 852 48 840 81 840 119 C 840 134 841 150 843 168 C 845 185 849 204 854 225 L 977 680 C 979 693 981 706 983 719 C 984 731 985 743 985 754 C 985 800 974 835 953 857 C 932 879 898 891 850 891 C 799 891 746 875 691 843 C 635 811 587 775 545 737 L 360 0 L 174 0 L 502 1315 C 508 1340 507 1359 501 1372 C 494 1385 479 1398 457 1411 C 439 1420 427 1427 420 1431 C 412 1435 410 1441 412 1450 L 420 1495 L 733 1495 L 569 844 C 613 879 666 915 727 953 C 787 991 855 1010 930 1010 C 1018 1010 1081 989 1118 947 C 1155 905 1174 848 1174 776 C 1174 759 1172 742 1170 726 C 1167 710 1163 692 1159 674 L 1038 219 C 1036 211 1034 201 1032 191 C 1030 181 1030 172 1030 164 C 1030 146 1035 131 1046 117 C 1056 103 1074 96 1100 96 C 1118 96 1137 100 1155 108 C 1173 116 1195 126 1219 139 Z" unicode="h" />
<glyph horiz-adv-x="584" d="M 631 139 L 651 66 C 633 50 605 32 565 11 C 525 -9 478 -20 422 -20 C 358 -20 314 -6 290 21 C 266 48 254 81 254 119 C 254 134 255 150 258 168 C 261 185 265 204 270 225 L 395 723 C 397 731 399 741 402 753 C 404 765 406 774 406 780 C 406 799 399 815 386 828 C 373 840 353 848 326 850 C 313 850 301 851 291 853 C 281 855 276 859 276 866 C 276 868 276 872 278 878 C 279 883 280 889 281 895 L 291 932 C 341 932 387 938 431 951 C 474 963 524 981 580 1004 L 651 1004 L 453 219 C 451 209 449 199 447 190 C 445 180 444 172 444 164 C 444 146 449 131 459 117 C 469 103 486 96 512 96 C 530 96 549 100 568 108 C 586 116 607 126 631 139 Z M 786 1370 C 786 1337 774 1308 750 1284 C 726 1259 698 1247 664 1247 C 630 1247 601 1259 578 1284 C 554 1308 543 1337 543 1370 C 543 1404 555 1433 579 1458 C 603 1482 632 1495 666 1495 C 700 1495 728 1482 751 1458 C 774 1433 786 1404 786 1370 Z" unicode="i" />
<glyph horiz-adv-x="547" d="M 578 1004 L 647 1004 L 444 98 C 410 -52 355 -173 279 -266 C 202 -359 106 -406 -10 -406 C -60 -406 -96 -394 -119 -370 C -142 -346 -154 -319 -154 -291 C -154 -261 -144 -236 -124 -218 C -104 -199 -77 -190 -43 -190 C -21 -190 0 -200 22 -221 C 44 -242 55 -278 55 -328 C 72 -323 97 -308 130 -283 C 163 -258 191 -192 215 -86 L 395 723 C 397 733 399 743 402 754 C 404 765 406 774 406 780 C 406 799 399 815 387 828 C 375 840 354 848 326 850 C 314 850 303 851 291 853 C 279 855 274 859 274 866 C 274 868 274 872 275 878 C 276 883 277 889 279 895 L 289 932 C 339 932 385 938 429 951 C 472 963 522 981 578 1004 Z M 739 1370 C 739 1337 727 1308 703 1284 C 679 1259 650 1247 616 1247 C 582 1247 553 1259 529 1284 C 505 1308 494 1337 494 1370 C 494 1404 506 1433 531 1458 C 555 1482 584 1495 618 1495 C 652 1495 681 1482 704 1458 C 727 1433 739 1404 739 1370 Z" unicode="j" />
<glyph horiz-adv-x="1108" d="M 1167 139 L 1186 66 C 1168 50 1138 32 1095 11 C 1051 -9 1007 -20 963 -20 C 903 -20 851 10 808 71 C 765 132 728 243 698 403 C 656 391 614 381 572 374 C 530 366 488 358 446 350 L 360 0 L 174 0 L 502 1315 C 508 1340 507 1359 501 1372 C 494 1385 479 1398 457 1411 C 439 1420 427 1427 420 1431 C 412 1435 410 1441 412 1450 L 420 1495 L 733 1495 L 571 854 C 653 913 721 954 775 976 C 829 998 888 1010 952 1010 C 1021 1010 1074 991 1110 953 C 1146 915 1165 869 1165 813 C 1165 737 1138 673 1085 622 C 1032 570 958 523 864 481 C 872 441 881 402 890 366 C 899 330 911 292 926 254 C 938 220 953 185 971 150 C 989 115 1015 98 1047 98 C 1065 98 1084 101 1103 109 C 1122 116 1143 126 1167 139 Z M 971 760 C 971 798 961 828 941 852 C 921 875 886 887 836 887 C 810 887 773 878 726 860 C 679 842 620 804 549 748 L 469 436 C 593 452 707 491 813 554 C 918 617 971 686 971 760 Z" unicode="k" />
<glyph horiz-adv-x="553" d="M 432 1495 L 743 1495 L 426 219 C 423 209 421 199 419 190 C 417 180 416 172 416 164 C 416 146 420 131 430 117 C 440 103 457 96 483 96 C 501 96 521 100 542 108 C 562 116 584 126 608 139 L 629 66 C 611 50 582 32 540 11 C 498 -9 449 -20 393 -20 C 329 -20 285 -6 261 21 C 237 48 225 81 225 119 C 225 134 226 150 229 168 C 232 185 236 204 242 225 L 516 1321 C 520 1342 519 1359 513 1372 C 506 1385 492 1398 471 1411 C 452 1421 439 1428 431 1432 C 423 1435 420 1441 422 1450 L 432 1495 Z" unicode="l" />
<glyph horiz-adv-x="1774" d="M 1833 139 L 1853 66 C 1836 50 1808 32 1768 11 C 1728 -9 1680 -20 1624 -20 C 1560 -20 1515 -6 1491 21 C 1466 48 1454 81 1454 119 C 1454 134 1455 150 1458 168 C 1461 185 1465 204 1470 225 L 1591 680 C 1593 692 1595 704 1597 715 C 1598 725 1599 736 1599 748 C 1599 792 1585 827 1559 853 C 1532 878 1490 891 1434 891 C 1393 891 1350 877 1306 850 C 1261 822 1222 792 1190 760 L 1001 0 L 815 0 L 985 680 C 987 690 990 703 992 717 C 994 731 995 743 995 754 C 995 798 980 831 952 855 C 924 879 882 891 827 891 C 785 891 741 875 696 843 C 650 811 611 779 578 748 L 393 0 L 207 0 L 387 723 C 389 731 391 741 393 753 C 395 765 397 774 397 780 C 397 799 390 815 378 828 C 365 840 345 848 317 850 C 305 850 293 851 283 853 C 273 855 268 859 268 866 C 268 868 268 872 269 878 C 270 883 271 889 272 895 L 283 932 C 333 932 379 938 421 951 C 463 963 513 981 569 1004 L 627 1004 L 586 840 C 628 875 674 912 724 951 C 774 990 838 1010 918 1010 C 987 1010 1046 994 1096 963 C 1145 931 1177 890 1192 838 C 1253 888 1304 929 1345 961 C 1386 993 1441 1010 1509 1010 C 1599 1010 1668 988 1716 944 C 1764 900 1788 843 1788 772 C 1788 756 1786 740 1784 724 C 1782 708 1778 691 1774 674 L 1653 219 C 1651 211 1649 201 1647 191 C 1645 181 1645 172 1645 164 C 1645 146 1650 131 1660 117 C 1670 103 1688 96 1714 96 C 1732 96 1751 100 1770 108 C 1788 116 1809 126 1833 139 Z" unicode="m" />
<glyph horiz-adv-x="1190" d="M 1251 139 L 1272 66 C 1254 50 1225 32 1185 11 C 1145 -9 1097 -20 1042 -20 C 978 -20 933 -6 908 21 C 882 48 870 81 870 119 C 870 134 871 150 875 168 C 878 185 882 204 887 225 L 1010 680 C 1012 693 1014 706 1016 719 C 1017 731 1018 743 1018 754 C 1018 800 1003 835 974 857 C 944 879 906 891 858 891 C 805 891 754 874 704 841 C 654 807 611 773 575 737 L 393 0 L 207 0 L 387 723 C 389 731 391 741 393 753 C 395 765 397 774 397 780 C 397 799 390 815 378 828 C 365 840 345 848 317 850 C 305 850 293 851 283 853 C 273 855 268 859 268 866 C 268 868 268 872 269 878 C 270 883 271 889 272 895 L 283 932 C 333 932 379 938 421 951 C 463 963 513 981 569 1004 L 625 1004 L 582 840 C 628 875 680 912 738 951 C 796 990 863 1010 940 1010 C 1028 1010 1095 989 1139 947 C 1183 905 1206 848 1206 776 C 1206 759 1204 742 1202 726 C 1200 710 1196 692 1192 674 L 1071 219 C 1069 211 1067 201 1065 191 C 1063 181 1063 172 1063 164 C 1063 146 1068 131 1078 117 C 1088 103 1107 96 1133 96 C 1151 96 1169 100 1188 108 C 1206 116 1227 126 1251 139 Z" unicode="n" />
<glyph horiz-adv-x="1075" d="M 1151 582 C 1151 424 1098 284 994 162 C 890 40 756 -20 592 -20 C 468 -20 371 19 301 98 C 231 176 197 280 197 410 C 197 577 251 720 359 840 C 467 960 602 1020 764 1020 C 893 1020 990 977 1054 891 C 1118 805 1151 702 1151 582 Z M 954 623 C 954 729 937 806 904 854 C 870 902 820 926 752 926 C 639 926 551 871 488 762 C 424 652 393 524 393 377 C 393 274 409 197 442 147 C 474 97 528 72 602 72 C 712 72 799 125 861 232 C 923 339 954 469 954 623 Z" unicode="o" />
<glyph horiz-adv-x="1135" d="M 1225 662 C 1225 487 1167 330 1052 190 C 937 50 797 -20 631 -20 C 567 -20 519 -8 485 14 C 451 36 422 58 399 80 L 289 -389 L 100 -389 L 377 723 C 379 731 382 741 384 753 C 386 765 387 774 387 780 C 387 799 380 815 368 828 C 356 840 335 848 307 850 C 296 850 285 851 274 853 C 263 855 258 859 258 866 C 258 868 258 872 259 878 C 260 883 261 889 262 895 L 272 932 C 322 932 368 938 411 951 C 453 963 503 981 559 1004 L 614 1004 L 575 844 C 607 874 654 910 716 950 C 778 990 843 1010 911 1010 C 1011 1010 1088 979 1143 917 C 1197 855 1225 770 1225 662 Z M 1026 653 C 1026 727 1009 784 977 823 C 944 861 898 881 840 881 C 782 881 729 864 681 831 C 633 798 595 767 567 739 L 434 199 C 454 171 480 145 511 123 C 542 101 585 90 639 90 C 751 90 844 146 917 260 C 989 374 1026 505 1026 653 Z" unicode="p" />
<glyph horiz-adv-x="1110" d="M 1208 995 L 864 -389 L 676 -389 L 807 123 C 773 100 730 72 680 39 C 630 6 574 -10 512 -10 C 398 -10 315 24 263 94 C 211 163 186 250 186 354 C 186 525 248 678 373 813 C 497 948 643 1016 811 1016 C 865 1016 908 1009 940 996 C 972 983 1001 968 1028 952 C 1034 948 1042 945 1051 944 C 1060 943 1068 945 1075 950 L 1147 1010 C 1153 1014 1159 1017 1167 1019 C 1174 1021 1180 1022 1184 1022 C 1190 1022 1196 1019 1201 1014 C 1206 1008 1208 1002 1208 995 Z M 829 217 L 979 831 C 964 850 942 869 913 887 C 883 905 845 915 799 915 C 659 915 555 855 487 737 C 419 618 385 490 385 352 C 385 267 404 206 442 170 C 480 133 528 115 586 115 C 632 115 674 124 714 144 C 753 164 791 188 829 217 Z" unicode="q" />
<glyph horiz-adv-x="782" d="M 991 901 C 991 867 981 839 962 815 C 943 791 916 780 881 780 C 856 780 835 788 819 805 C 802 821 791 842 786 868 C 735 861 682 819 628 741 C 573 663 537 587 520 514 L 395 0 L 209 0 L 371 651 C 377 679 381 703 383 725 C 384 747 385 763 385 774 C 385 794 377 812 363 826 C 349 840 328 848 301 850 C 288 850 277 851 268 853 C 258 855 254 859 254 866 C 254 868 254 872 254 876 C 254 880 255 884 256 889 L 268 932 C 318 932 359 938 393 952 C 427 965 461 982 496 1004 L 549 1004 C 551 989 553 974 554 959 C 554 943 555 928 555 913 C 555 887 553 861 550 834 C 546 806 543 779 539 752 L 547 752 C 593 834 649 898 715 943 C 780 987 832 1010 872 1010 C 914 1010 944 998 963 976 C 981 953 991 928 991 901 Z" unicode="r" />
<glyph horiz-adv-x="829" d="M 924 852 C 924 814 912 785 890 765 C 867 745 842 735 815 735 C 787 735 765 744 748 762 C 731 780 723 802 723 827 C 723 838 725 849 730 861 C 734 873 740 888 748 907 C 726 914 708 920 694 926 C 679 931 655 934 623 934 C 575 934 533 918 496 887 C 458 855 440 816 440 770 C 440 726 458 688 496 658 C 534 628 593 593 674 555 C 753 518 808 480 839 440 C 869 400 885 354 885 301 C 885 229 851 157 784 86 C 717 15 615 -20 477 -20 C 368 -20 285 2 227 48 C 169 93 141 140 141 188 C 141 218 150 246 170 270 C 190 294 218 307 254 307 C 288 307 313 297 328 279 C 342 261 350 239 350 215 C 350 197 347 183 343 171 C 339 159 332 146 322 131 C 345 108 373 90 406 78 C 439 65 474 59 510 59 C 570 59 620 77 660 113 C 700 149 721 190 721 236 C 721 278 705 313 674 340 C 642 367 609 388 575 403 C 493 438 424 477 367 519 C 309 561 281 624 281 709 C 281 793 318 865 392 925 C 466 984 552 1014 649 1014 C 749 1014 819 995 861 959 C 903 922 924 886 924 852 Z" unicode="s" />
<glyph horiz-adv-x="651" d="M 612 981 L 854 981 L 831 889 L 592 889 L 432 244 C 430 233 427 219 425 202 C 423 184 422 174 422 170 C 422 148 428 131 442 118 C 455 104 477 98 508 98 C 524 98 545 101 570 109 C 595 116 619 126 643 139 L 664 63 C 646 48 615 30 570 10 C 524 -9 474 -20 418 -20 C 347 -20 298 -6 271 21 C 244 48 231 84 231 129 C 231 141 232 157 234 176 C 236 194 240 212 244 229 L 406 889 L 289 889 L 299 930 C 301 942 308 949 319 953 C 330 956 352 964 385 977 C 406 985 422 993 432 1002 C 442 1011 449 1025 455 1044 L 508 1253 C 510 1263 514 1271 520 1277 C 526 1282 533 1285 541 1286 L 694 1305 L 612 981 Z" unicode="t" />
<glyph horiz-adv-x="1178" d="M 1233 139 L 1253 66 C 1236 50 1205 32 1159 11 C 1113 -9 1062 -20 1008 -20 C 950 -20 913 -3 896 29 C 878 61 870 97 870 135 C 824 98 771 63 711 30 C 651 -3 580 -20 498 -20 C 410 -20 348 3 310 49 C 272 95 254 155 254 229 C 254 246 256 267 260 291 C 264 315 269 337 274 358 L 371 723 C 373 731 375 741 377 753 C 379 765 381 774 381 780 C 381 799 374 815 361 828 C 348 840 328 848 301 850 C 288 850 277 851 267 853 C 257 855 252 859 252 866 C 252 868 252 872 253 878 C 254 883 255 889 256 895 L 266 932 C 316 932 362 938 405 951 C 447 963 497 981 553 1004 L 627 1004 L 455 328 C 450 314 446 299 444 281 C 441 263 440 250 440 242 C 440 192 452 155 476 131 C 500 107 538 96 588 96 C 638 96 690 109 744 137 C 797 165 842 198 879 236 L 999 719 C 1002 729 1005 740 1007 752 C 1009 764 1010 774 1010 780 C 1010 799 1003 815 990 828 C 977 840 957 848 930 850 C 917 850 906 851 896 853 C 886 855 881 859 881 866 C 881 868 881 872 882 878 C 883 883 884 889 885 895 L 895 932 C 945 932 991 938 1035 951 C 1078 963 1128 981 1184 1004 L 1253 1004 L 1055 215 C 1053 206 1050 197 1048 187 C 1045 177 1044 168 1044 160 C 1044 143 1049 128 1059 115 C 1069 102 1087 96 1114 96 C 1132 96 1151 100 1170 108 C 1188 116 1209 126 1233 139 Z" unicode="u" />
<glyph horiz-adv-x="1051" d="M 1141 760 C 1141 596 1087 425 981 247 C 875 69 735 -20 561 -20 C 472 -20 399 1 342 45 C 284 89 256 155 256 244 C 256 261 257 282 261 308 C 265 333 269 356 274 377 L 369 723 C 371 733 373 744 375 755 C 376 765 377 774 377 780 C 377 799 370 815 358 828 C 346 840 326 848 299 850 C 286 850 275 851 265 853 C 255 855 250 859 250 866 C 250 868 249 871 249 875 C 249 878 250 883 252 889 L 264 932 C 314 932 364 938 416 951 C 468 963 522 981 578 1004 L 629 1004 L 461 379 C 457 363 452 342 448 314 C 444 286 442 266 442 254 C 442 212 452 175 473 145 C 493 115 532 100 590 100 C 657 100 721 128 782 185 C 843 242 893 310 932 389 C 972 469 996 546 1005 619 C 1013 691 1018 759 1018 823 C 962 833 921 849 895 870 C 869 890 856 920 856 958 C 856 990 868 1018 894 1041 C 919 1063 948 1075 981 1075 C 1052 1075 1096 1041 1114 973 C 1132 905 1141 834 1141 760 Z" unicode="v" />
<glyph horiz-adv-x="1634" d="M 1722 760 C 1722 596 1669 425 1563 247 C 1457 69 1317 -20 1143 -20 C 1079 -20 1023 -5 973 25 C 923 55 887 100 866 162 C 822 117 772 75 718 37 C 664 0 597 -20 518 -20 C 426 -20 359 6 317 59 C 275 111 254 174 254 248 C 254 265 256 286 260 310 C 264 334 269 356 274 377 L 369 723 C 371 733 373 744 375 755 C 376 765 377 774 377 780 C 377 799 370 815 358 828 C 346 840 326 848 299 850 C 286 850 275 851 265 853 C 255 855 250 859 250 866 C 250 868 250 872 250 878 C 250 883 252 889 254 895 L 264 932 C 314 932 364 938 416 951 C 468 963 522 981 578 1004 L 627 1004 L 453 340 C 448 327 444 311 442 292 C 439 272 438 258 438 250 C 438 205 448 168 469 138 C 490 108 530 94 588 94 C 630 94 672 108 714 138 C 756 167 793 198 827 231 L 1024 989 L 1208 989 L 1049 373 C 1043 354 1039 333 1036 309 C 1033 285 1032 266 1032 254 C 1032 212 1041 175 1061 145 C 1080 115 1116 100 1169 100 C 1236 100 1301 128 1363 185 C 1425 242 1475 310 1513 389 C 1553 469 1577 546 1586 619 C 1594 691 1599 759 1599 823 C 1544 833 1503 849 1477 870 C 1451 890 1438 920 1438 958 C 1438 990 1450 1018 1476 1041 C 1501 1063 1530 1075 1563 1075 C 1634 1075 1678 1041 1696 973 C 1713 905 1722 834 1722 760 Z" unicode="w" />
<glyph horiz-adv-x="985" d="M 1174 903 C 1174 867 1162 839 1140 820 C 1118 800 1095 791 1073 791 C 1054 791 1037 794 1023 802 C 1009 810 993 825 977 848 C 936 811 899 773 867 735 C 835 696 787 631 723 541 C 733 493 744 441 758 385 C 771 328 784 283 797 250 C 809 216 826 181 846 147 C 866 113 892 96 924 96 C 942 96 961 100 980 108 C 999 116 1020 126 1044 139 L 1061 66 C 1044 50 1015 32 975 11 C 934 -9 888 -20 838 -20 C 780 -20 732 8 693 65 C 653 121 619 225 590 375 C 501 235 427 135 368 75 C 308 15 253 -14 203 -14 C 162 -14 132 -1 114 24 C 95 50 86 78 86 109 C 86 130 95 152 113 175 C 131 197 158 209 195 209 C 213 209 231 204 249 194 C 266 184 282 168 297 147 C 343 191 385 236 421 282 C 457 328 503 393 561 479 C 549 531 537 578 526 620 C 515 662 504 699 492 731 C 479 765 462 800 442 834 C 422 868 396 885 365 885 C 346 885 327 880 309 872 C 290 863 269 852 246 840 L 227 913 C 244 928 274 948 318 972 C 361 996 407 1008 455 1008 C 511 1008 558 980 596 924 C 633 868 666 773 696 641 C 759 730 820 813 879 890 C 938 967 1001 1006 1067 1006 C 1096 1006 1121 997 1142 981 C 1163 965 1174 939 1174 903 Z" unicode="x" />
<glyph horiz-adv-x="993" d="M 1157 897 C 1157 811 1105 683 1003 513 C 901 343 802 191 707 57 C 638 -38 557 -138 464 -242 C 371 -346 272 -399 168 -399 C 117 -399 77 -385 49 -359 C 20 -333 6 -300 6 -260 C 6 -235 15 -211 34 -187 C 52 -163 79 -152 113 -152 C 148 -152 176 -164 196 -189 C 216 -213 227 -248 227 -293 C 284 -277 346 -235 412 -165 C 478 -95 526 -42 555 -4 C 531 154 504 305 472 449 C 440 593 416 691 399 743 C 388 773 373 805 354 837 C 334 869 308 885 276 885 C 258 885 239 881 220 873 C 201 865 179 854 154 842 L 139 915 C 158 932 188 952 230 975 C 272 998 315 1010 360 1010 C 432 1010 486 982 520 926 C 554 870 584 790 610 684 C 629 601 647 514 663 424 C 679 334 691 256 700 190 C 744 254 791 334 841 431 C 891 528 928 604 954 659 C 966 685 976 709 983 729 C 990 749 997 767 1004 784 C 982 796 963 812 947 830 C 930 848 922 871 922 899 C 922 922 933 946 955 972 C 977 997 1006 1010 1042 1010 C 1078 1010 1106 998 1126 975 C 1146 952 1157 926 1157 897 Z" unicode="y" />
<glyph horiz-adv-x="907" d="M 1059 1016 L 1087 961 L 309 166 L 313 160 C 339 162 367 165 397 169 C 427 172 462 174 502 174 C 587 174 648 161 686 135 C 724 109 767 96 815 96 C 826 96 839 101 855 111 C 871 121 879 139 879 166 C 879 202 865 226 838 239 C 810 252 797 281 797 326 C 797 354 806 376 825 390 C 844 404 865 412 889 412 C 908 412 931 403 958 385 C 985 367 999 333 999 281 C 999 177 965 100 899 52 C 832 4 760 -20 684 -20 C 610 -20 558 -10 526 7 C 494 25 437 35 354 35 C 315 35 277 31 241 23 C 205 15 158 6 100 -4 L 72 53 L 848 848 L 844 854 C 809 841 775 832 743 828 C 710 823 681 821 657 821 C 623 821 590 824 558 832 C 526 840 488 844 444 844 C 401 844 367 830 342 804 C 316 778 295 753 279 731 L 223 768 C 223 779 246 821 294 895 C 341 969 419 1006 528 1006 C 601 1006 647 999 666 986 C 684 973 732 967 809 967 C 884 967 939 972 973 983 C 1007 993 1035 1004 1059 1016 Z" unicode="z" />
<glyph horiz-adv-x="791" d="M 1087 1501 L 1073 1442 C 963 1419 878 1385 819 1340 C 760 1294 723 1230 709 1147 C 700 1099 694 1056 691 1018 C 688 980 684 945 678 911 C 660 812 616 735 544 680 C 472 624 402 584 332 559 C 380 537 420 502 451 454 C 482 406 498 349 498 283 C 498 270 497 257 496 245 C 495 232 494 219 492 207 C 485 172 477 136 467 99 C 457 61 448 19 440 -29 C 437 -49 434 -68 432 -86 C 429 -103 428 -120 428 -137 C 428 -193 442 -236 471 -266 C 499 -296 551 -322 627 -344 L 612 -403 C 496 -403 408 -372 349 -311 C 289 -250 260 -173 260 -80 C 260 -65 260 -50 262 -35 C 263 -19 265 -4 268 10 C 276 52 287 95 301 137 C 314 179 324 219 332 258 C 334 275 337 292 339 309 C 341 325 342 341 342 356 C 342 403 332 442 312 474 C 292 506 257 527 205 539 L 217 594 C 293 608 354 635 399 674 C 444 712 474 774 489 860 C 496 898 501 939 504 981 C 506 1023 512 1065 520 1108 C 541 1224 607 1318 719 1391 C 830 1464 953 1501 1087 1501 Z" unicode="{" />
<glyph horiz-adv-x="143" d="M 322 1495 L 322 -389 L 195 -389 L 195 1495 L 322 1495 Z" unicode="|" />
<glyph horiz-adv-x="791" d="M 846 559 L 834 504 C 757 489 696 462 651 424 C 606 385 576 323 561 238 C 554 199 549 159 547 117 C 544 75 538 32 530 -10 C 508 -126 442 -221 331 -294 C 219 -366 97 -403 -37 -403 L -23 -344 C 88 -321 173 -287 231 -242 C 289 -196 326 -132 342 -49 C 350 -1 355 41 358 79 C 361 117 366 152 373 186 C 390 285 434 362 506 417 C 578 472 649 513 719 539 C 670 560 630 595 599 643 C 568 691 553 749 553 815 C 553 827 553 840 554 852 C 555 864 557 877 559 891 C 565 925 573 961 583 998 C 593 1035 602 1078 610 1126 C 612 1146 615 1165 618 1183 C 621 1201 623 1218 623 1235 C 623 1291 608 1334 580 1364 C 551 1394 499 1420 424 1442 L 438 1501 C 554 1501 642 1470 702 1409 C 761 1348 791 1271 791 1178 C 791 1163 790 1148 788 1133 C 786 1117 784 1102 782 1087 C 774 1044 763 1002 749 960 C 735 918 725 878 719 840 C 716 822 714 805 712 789 C 710 772 709 756 709 741 C 709 694 718 655 738 623 C 758 591 794 570 846 559 Z" unicode="}" />
<glyph horiz-adv-x="1548" d="M 1415 817 L 1505 817 C 1500 713 1466 620 1404 538 C 1341 456 1261 416 1163 416 C 1124 416 1088 423 1056 439 C 1024 454 982 480 930 516 C 884 548 842 575 806 598 C 770 621 732 633 694 633 C 634 633 589 607 560 556 C 530 505 512 454 506 403 L 416 403 C 420 507 454 599 518 680 C 582 760 662 801 758 801 C 808 801 848 794 880 780 C 912 766 950 743 995 713 C 1042 681 1084 652 1121 626 C 1157 600 1193 588 1227 588 C 1288 588 1333 613 1362 664 C 1390 715 1408 766 1415 817 Z" unicode="~" />
<glyph horiz-adv-x="412" d="" unicode="" />
<glyph horiz-adv-x="610" d="M 492 676 C 478 610 460 529 438 434 C 415 338 398 244 387 152 C 373 50 365 -32 363 -95 C 360 -157 351 -219 336 -279 C 327 -313 312 -343 291 -371 C 270 -398 243 -412 211 -412 C 169 -412 139 -398 121 -372 C 103 -345 94 -315 94 -283 C 94 -272 94 -261 96 -251 C 97 -240 99 -229 102 -219 C 117 -157 138 -99 165 -44 C 191 11 223 87 260 184 C 292 271 322 362 348 456 C 374 550 397 630 416 694 C 418 698 421 701 427 704 C 433 707 440 709 449 709 C 463 709 473 704 481 696 C 489 687 492 680 492 676 Z M 655 989 C 655 955 642 925 618 899 C 594 873 564 860 528 860 C 492 860 461 873 435 899 C 409 925 397 955 397 989 C 397 1025 409 1055 435 1081 C 461 1107 492 1120 528 1120 C 564 1120 594 1107 618 1081 C 642 1055 655 1025 655 989 Z" unicode="" />
<glyph horiz-adv-x="922" d="M 1063 969 C 1063 921 1051 888 1027 870 C 1003 851 976 842 948 842 C 918 842 894 850 874 866 C 854 882 844 905 844 936 C 844 948 847 963 854 981 C 861 998 869 1014 879 1030 C 872 1036 858 1043 836 1051 C 814 1059 786 1063 752 1063 C 660 1063 591 1014 543 918 C 495 821 471 720 471 616 C 471 546 487 484 519 432 C 551 380 606 354 684 354 C 748 354 801 370 845 402 C 888 434 929 469 967 506 L 1012 438 C 981 398 936 356 878 312 C 820 268 746 246 657 244 L 592 -18 L 496 -18 L 561 252 C 476 267 407 305 353 367 C 299 428 272 507 272 604 C 272 738 317 862 409 976 C 501 1090 623 1148 776 1149 L 831 1366 L 928 1366 L 872 1141 C 938 1129 987 1107 1017 1073 C 1047 1039 1063 1004 1063 969 Z" unicode="" />
<glyph horiz-adv-x="1118" d="M 1315 1194 C 1315 1140 1302 1102 1277 1080 C 1251 1058 1224 1047 1196 1047 C 1169 1047 1145 1054 1123 1069 C 1101 1084 1090 1109 1090 1143 C 1090 1169 1095 1191 1107 1209 C 1119 1227 1138 1246 1165 1268 C 1140 1292 1116 1308 1093 1316 C 1070 1323 1043 1327 1012 1327 C 924 1327 852 1293 795 1225 C 737 1157 709 1073 709 971 C 709 935 710 899 714 864 C 718 829 723 795 729 762 L 1110 762 L 1085 668 L 748 668 C 750 648 752 629 753 609 C 753 589 754 570 754 551 C 754 507 745 461 727 415 C 709 369 689 323 666 279 C 708 249 750 221 793 195 C 835 169 884 156 940 156 C 986 156 1028 164 1066 181 C 1103 197 1135 221 1163 252 L 1206 182 C 1164 131 1117 85 1066 44 C 1015 2 953 -18 879 -18 C 809 -18 753 0 710 38 C 666 75 628 115 596 158 C 563 106 523 64 475 31 C 427 -1 372 -18 311 -18 C 265 -18 222 -3 183 27 C 144 57 125 100 125 156 C 125 229 152 287 208 330 C 264 373 321 395 381 395 C 412 395 443 390 475 380 C 506 370 534 359 559 346 C 563 360 567 377 573 397 C 579 417 582 436 582 455 C 582 497 577 538 568 576 C 559 614 551 644 543 668 L 295 668 L 319 762 L 520 762 C 515 784 511 808 509 834 C 507 859 506 886 506 915 C 506 1036 551 1151 643 1259 C 734 1367 856 1421 1010 1421 C 1104 1421 1179 1399 1233 1355 C 1287 1311 1315 1257 1315 1194 Z M 528 231 C 508 250 485 266 459 279 C 432 292 401 299 365 299 C 322 299 287 285 261 258 C 234 231 221 200 221 166 C 221 139 228 116 244 97 C 259 77 286 68 324 68 C 363 68 403 82 443 111 C 483 140 511 180 528 231 Z" unicode="" />
<glyph horiz-adv-x="1182" d="M 1356 1223 C 1356 1183 1344 1149 1320 1122 C 1296 1094 1267 1081 1231 1081 C 1197 1081 1171 1090 1154 1108 C 1136 1126 1128 1150 1128 1178 C 1128 1197 1131 1217 1137 1239 C 1143 1260 1148 1277 1151 1290 C 1145 1294 1129 1301 1105 1311 C 1081 1320 1052 1325 1020 1325 C 937 1325 859 1284 787 1204 C 715 1123 656 1012 612 870 L 1061 870 L 1044 778 L 590 778 C 584 756 578 731 573 703 C 567 674 563 646 559 618 L 950 618 L 932 526 L 549 526 C 547 511 545 496 544 481 C 543 466 543 451 543 436 C 543 343 565 264 609 200 C 653 136 724 104 821 104 C 883 104 943 120 1002 152 C 1060 184 1117 235 1171 307 L 1221 242 C 1173 157 1107 92 1021 48 C 935 4 853 -18 774 -18 C 636 -18 531 24 459 109 C 386 193 350 307 350 449 C 350 461 350 473 351 487 C 352 500 353 513 354 526 L 211 526 L 229 618 L 365 618 C 369 646 373 673 379 700 C 384 727 390 753 397 778 L 260 778 L 276 870 L 424 870 C 486 1033 570 1165 678 1267 C 786 1369 908 1420 1044 1421 C 1137 1421 1212 1401 1270 1363 C 1327 1324 1356 1277 1356 1223 Z" unicode="" />
<glyph horiz-adv-x="1280" d="M 1225 1401 L 1585 1401 L 1573 1354 C 1571 1344 1566 1337 1559 1332 C 1551 1327 1540 1321 1524 1313 C 1493 1297 1470 1284 1454 1273 C 1438 1262 1414 1238 1382 1200 L 1047 809 L 1298 809 L 1274 717 L 963 717 L 897 639 L 881 575 L 1239 575 L 1217 483 L 860 483 L 788 197 C 786 189 783 181 781 171 C 779 161 778 151 778 143 C 778 130 783 120 794 113 C 805 106 816 100 827 94 C 846 86 859 80 866 76 C 873 72 875 65 872 55 L 858 0 L 442 0 L 457 55 C 459 65 464 72 471 76 C 478 80 493 86 516 94 C 544 105 562 114 568 120 C 574 126 581 141 588 164 L 668 483 L 299 483 L 322 575 L 692 575 L 707 635 L 676 717 L 356 717 L 381 809 L 639 809 L 479 1225 C 471 1245 460 1262 447 1274 C 434 1286 417 1297 397 1307 C 377 1315 365 1321 360 1325 C 355 1328 354 1334 356 1343 L 371 1401 L 791 1401 L 780 1362 C 777 1351 773 1343 768 1339 C 763 1335 749 1327 727 1317 C 710 1310 698 1303 690 1296 C 682 1289 678 1282 678 1274 C 678 1267 680 1256 684 1242 C 688 1228 691 1216 694 1208 L 864 748 L 1253 1206 C 1265 1221 1276 1236 1284 1250 C 1292 1264 1296 1274 1296 1280 C 1296 1288 1292 1294 1285 1300 C 1278 1305 1268 1311 1255 1317 C 1238 1323 1226 1330 1220 1336 C 1213 1342 1211 1351 1214 1362 L 1225 1401 Z" unicode="" />
<glyph horiz-adv-x="1153" d="M 1274 1231 C 1274 1183 1262 1146 1240 1122 C 1217 1097 1189 1085 1157 1085 C 1130 1085 1104 1093 1080 1110 C 1056 1126 1044 1152 1044 1186 C 1044 1210 1050 1232 1064 1251 C 1077 1270 1098 1288 1128 1305 C 1103 1329 1074 1352 1042 1372 C 1010 1392 962 1403 899 1403 C 815 1403 753 1380 713 1335 C 672 1290 651 1242 651 1190 C 651 1155 666 1119 696 1083 C 726 1047 792 997 895 934 C 990 876 1063 819 1114 765 C 1164 710 1190 650 1190 584 C 1190 518 1165 455 1117 394 C 1068 333 998 278 907 229 C 945 196 972 162 989 127 C 1005 92 1014 56 1014 20 C 1014 -78 971 -163 885 -233 C 799 -303 698 -338 584 -338 C 468 -338 378 -310 312 -256 C 246 -201 213 -142 213 -78 C 213 -30 224 6 247 31 C 270 55 298 68 330 68 C 358 68 384 59 407 42 C 430 24 442 -1 442 -35 C 442 -58 435 -79 422 -98 C 408 -116 388 -134 360 -152 C 384 -175 412 -197 446 -217 C 480 -237 528 -248 590 -248 C 671 -248 733 -225 776 -180 C 818 -134 840 -85 840 -31 C 840 3 824 38 792 74 C 760 110 694 159 594 221 C 498 278 426 334 377 388 C 327 442 303 503 303 571 C 303 640 326 704 374 763 C 422 821 492 876 584 926 C 546 961 518 996 502 1032 C 485 1068 477 1105 477 1143 C 477 1241 521 1325 609 1393 C 697 1461 798 1495 913 1495 C 1027 1495 1116 1467 1179 1411 C 1242 1355 1274 1295 1274 1231 Z M 1016 520 C 1016 556 1006 588 988 618 C 969 647 939 676 899 705 C 853 736 807 766 762 796 C 716 825 679 851 649 874 C 598 845 556 813 523 777 C 489 741 473 696 473 643 C 473 606 482 572 501 541 C 519 510 549 480 590 451 C 634 419 679 388 724 358 C 768 328 808 302 842 281 C 894 308 936 341 968 379 C 1000 417 1016 464 1016 520 Z" unicode="" />
<glyph horiz-adv-x="819" d="M 510 1288 C 510 1257 498 1230 475 1208 C 452 1185 425 1174 395 1174 C 364 1174 337 1185 315 1208 C 292 1230 281 1257 281 1288 C 281 1318 292 1345 315 1368 C 337 1391 364 1403 395 1403 C 425 1403 452 1391 475 1368 C 498 1345 510 1318 510 1288 Z M 940 1288 C 940 1257 928 1230 905 1208 C 882 1185 855 1174 825 1174 C 794 1174 767 1185 745 1208 C 722 1230 711 1257 711 1288 C 711 1318 722 1345 745 1368 C 767 1391 794 1403 825 1403 C 855 1403 882 1391 905 1368 C 928 1345 940 1318 940 1288 Z" unicode="" />
<glyph horiz-adv-x="1671" d="M 1311 537 L 1362 487 C 1343 449 1306 408 1250 364 C 1194 319 1123 297 1038 297 C 906 297 806 339 738 425 C 669 510 635 609 635 721 C 635 863 678 971 764 1043 C 850 1115 938 1151 1028 1151 C 1064 1151 1098 1146 1129 1137 C 1160 1127 1192 1113 1225 1094 C 1229 1092 1233 1090 1237 1088 C 1241 1086 1245 1086 1249 1090 C 1258 1096 1265 1100 1269 1102 C 1273 1104 1277 1106 1282 1106 L 1321 1106 L 1321 879 L 1270 879 C 1260 879 1254 881 1250 885 C 1246 889 1243 895 1241 901 C 1226 947 1202 987 1169 1022 C 1135 1057 1095 1075 1049 1075 C 995 1075 940 1048 885 994 C 830 940 803 851 803 727 C 803 616 826 531 873 473 C 919 414 976 385 1044 385 C 1115 385 1173 404 1218 443 C 1263 481 1294 513 1311 537 Z M 1784 729 C 1784 521 1710 344 1563 198 C 1415 52 1236 -20 1024 -20 C 812 -20 632 52 485 198 C 337 344 264 521 264 729 C 264 937 337 1114 485 1261 C 632 1407 812 1481 1024 1481 C 1236 1481 1415 1407 1563 1261 C 1710 1114 1784 937 1784 729 Z M 1698 729 C 1698 913 1632 1072 1501 1205 C 1370 1338 1211 1405 1024 1405 C 836 1405 677 1338 547 1205 C 417 1072 352 913 352 729 C 352 544 417 385 547 253 C 677 121 836 55 1024 55 C 1211 55 1370 121 1501 253 C 1632 385 1698 544 1698 729 Z" unicode="" />
<glyph horiz-adv-x="977" d="M 1059 813 L 1077 745 C 1062 731 1039 716 1009 700 C 979 684 943 676 901 676 C 859 676 830 687 815 709 C 800 731 791 754 788 778 C 760 753 729 730 695 709 C 660 688 622 678 580 678 C 499 678 439 703 401 754 C 363 804 344 868 344 944 C 344 1075 388 1188 476 1283 C 564 1377 669 1425 791 1425 C 828 1425 858 1419 882 1409 C 905 1398 926 1386 946 1374 C 950 1371 953 1369 955 1369 C 957 1369 959 1369 961 1370 L 1014 1417 C 1018 1421 1024 1425 1031 1427 C 1038 1429 1043 1430 1047 1430 C 1053 1430 1060 1427 1068 1421 C 1076 1415 1079 1407 1077 1395 L 934 850 C 932 843 930 837 929 831 C 928 825 928 819 928 815 C 928 807 930 798 935 790 C 940 782 950 778 965 778 C 975 778 988 780 1002 785 C 1016 790 1035 799 1059 813 Z M 795 856 L 903 1284 C 891 1298 875 1312 856 1324 C 836 1336 812 1343 782 1343 C 683 1343 611 1299 565 1212 C 519 1125 496 1037 496 948 C 496 890 508 847 533 820 C 558 793 592 780 635 780 C 666 780 693 787 716 801 C 738 815 765 833 795 856 Z" unicode="" />
<glyph horiz-adv-x="1016" d="M 649 897 L 754 897 L 424 514 L 582 143 L 477 143 L 258 455 C 253 461 249 469 245 477 C 241 485 240 494 240 504 C 240 520 245 535 255 549 C 265 563 275 575 287 586 L 649 897 Z M 1040 897 L 1145 897 L 813 514 L 973 143 L 868 143 L 649 455 C 644 461 640 469 636 477 C 632 485 631 494 631 504 C 631 520 636 535 646 549 C 656 563 666 575 678 586 L 1040 897 Z" unicode="" />
<glyph horiz-adv-x="1548" d="M 1460 684 L 1460 92 L 1329 92 L 1329 557 L 412 557 L 412 684 L 1460 684 Z" unicode="" />
<glyph horiz-adv-x="649" d="M 264 598 L 713 598 L 672 442 L 223 442 L 264 598 Z" unicode="" />
<glyph horiz-adv-x="1036" d="M 940 973 L 1036 764 L 926 764 L 836 958 L 756 958 L 756 764 L 649 764 L 649 1280 L 858 1280 C 902 1280 942 1266 980 1240 C 1017 1213 1036 1174 1036 1122 C 1036 1088 1028 1058 1012 1032 C 996 1005 972 985 940 973 Z M 1300 1022 C 1300 892 1253 781 1159 689 C 1065 597 954 551 825 551 C 695 551 584 597 490 689 C 396 781 350 892 350 1022 C 350 1151 396 1262 490 1355 C 584 1448 695 1495 825 1495 C 954 1495 1065 1448 1159 1355 C 1253 1262 1300 1151 1300 1022 Z M 1229 1022 C 1229 1132 1189 1227 1110 1307 C 1031 1387 936 1427 825 1427 C 714 1427 619 1387 540 1307 C 461 1227 422 1132 422 1022 C 422 911 461 816 540 737 C 619 657 714 618 825 618 C 936 618 1031 657 1110 737 C 1189 816 1229 911 1229 1022 Z M 922 1120 C 922 1141 914 1157 900 1167 C 886 1177 869 1182 850 1182 L 756 1182 L 756 1059 L 848 1059 C 862 1059 878 1063 896 1073 C 913 1083 922 1098 922 1120 Z" unicode="" />
<glyph horiz-adv-x="819" d="M 301 1362 L 948 1362 L 924 1243 L 276 1243 L 301 1362 Z" unicode="" />
<glyph horiz-adv-x="684" d="M 895 1214 C 895 1138 867 1072 811 1017 C 755 961 688 934 612 934 C 536 934 470 961 414 1017 C 358 1072 330 1138 330 1214 C 330 1290 358 1356 414 1412 C 470 1467 536 1495 612 1495 C 688 1495 755 1467 811 1412 C 867 1356 895 1290 895 1214 Z M 780 1214 C 780 1262 764 1304 733 1341 C 702 1378 662 1397 612 1397 C 561 1397 520 1378 489 1341 C 457 1304 442 1262 442 1214 C 442 1166 457 1123 489 1087 C 520 1050 561 1032 612 1032 C 662 1032 702 1050 733 1087 C 764 1123 780 1166 780 1214 Z" unicode="" />
<glyph horiz-adv-x="1548" d="M 1481 807 L 1481 680 L 1012 680 L 1012 250 L 881 250 L 881 680 L 412 680 L 412 807 L 881 807 L 881 1237 L 1012 1237 L 1012 807 L 1481 807 Z M 1481 127 L 1481 0 L 412 0 L 412 127 L 1481 127 Z" unicode="" />
<glyph horiz-adv-x="950" d="M 1012 1282 C 1012 1197 974 1125 900 1065 C 825 1005 756 958 692 922 C 638 891 595 866 563 848 C 531 830 502 808 475 782 L 760 782 C 780 782 796 785 808 793 C 820 800 830 815 840 838 C 844 850 850 857 858 861 C 865 864 873 866 883 866 L 930 866 L 872 649 L 299 649 L 324 748 C 356 787 402 830 461 876 C 520 922 579 966 637 1008 C 703 1056 754 1102 792 1146 C 829 1189 848 1238 848 1292 C 848 1328 835 1358 809 1382 C 783 1406 749 1419 707 1419 C 683 1419 659 1414 636 1405 C 612 1396 596 1385 586 1372 C 596 1362 605 1351 611 1340 C 617 1329 621 1317 621 1305 C 621 1279 613 1258 598 1244 C 583 1230 562 1223 535 1223 C 505 1223 482 1231 466 1248 C 450 1265 442 1286 442 1311 C 442 1357 471 1400 531 1441 C 590 1482 659 1503 739 1503 C 820 1503 886 1481 936 1438 C 986 1395 1012 1343 1012 1282 Z" unicode="" />
<glyph horiz-adv-x="926" d="M 983 1309 C 983 1255 962 1210 921 1175 C 880 1140 829 1116 768 1104 C 816 1087 857 1062 891 1028 C 925 994 942 953 942 905 C 942 831 907 767 837 715 C 767 663 683 637 584 637 C 500 637 434 655 385 691 C 335 727 311 773 311 827 C 311 848 319 867 336 885 C 352 902 373 911 399 911 C 431 911 454 902 470 885 C 486 867 494 850 494 834 C 494 819 490 806 483 795 C 475 784 467 774 457 766 C 469 753 485 743 505 736 C 525 728 550 725 578 725 C 651 725 702 748 732 795 C 761 842 776 887 776 930 C 776 974 758 1007 722 1030 C 686 1052 627 1064 547 1065 L 563 1149 C 659 1149 726 1163 764 1191 C 802 1219 821 1261 821 1317 C 821 1344 809 1367 785 1387 C 761 1407 728 1417 688 1417 C 668 1417 651 1415 635 1411 C 619 1407 606 1403 596 1399 C 602 1390 606 1381 610 1373 C 614 1364 616 1353 616 1341 C 616 1320 608 1303 592 1291 C 576 1278 557 1272 535 1272 C 511 1272 489 1278 471 1292 C 453 1306 444 1327 444 1356 C 444 1398 472 1433 529 1461 C 586 1489 647 1503 711 1503 C 788 1503 853 1483 905 1445 C 957 1406 983 1361 983 1309 Z" unicode="" />
<glyph horiz-adv-x="819" d="M 881 1407 C 881 1388 873 1369 857 1351 C 841 1333 818 1315 788 1298 L 463 1114 L 414 1149 L 678 1440 C 701 1465 722 1481 741 1488 C 759 1495 777 1499 795 1499 C 821 1499 842 1489 858 1471 C 873 1453 881 1431 881 1407 Z" unicode="" />
<glyph horiz-adv-x="1282" d="M 946 1495 L 1522 1495 L 1509 1446 C 1507 1435 1502 1428 1494 1424 C 1486 1420 1471 1413 1448 1405 C 1417 1393 1397 1384 1387 1378 C 1377 1371 1370 1355 1364 1331 L 1001 -123 C 997 -141 998 -155 1004 -165 C 1010 -175 1025 -185 1049 -197 C 1067 -205 1079 -212 1085 -216 C 1091 -220 1092 -227 1090 -238 L 1077 -287 L 813 -287 L 1235 1405 L 1092 1405 L 670 -287 L 406 -287 L 418 -238 C 420 -227 425 -220 433 -216 C 440 -212 455 -205 479 -197 C 509 -185 529 -175 540 -165 C 551 -155 559 -141 563 -123 L 754 637 C 624 637 525 665 455 723 C 385 780 350 864 350 975 C 350 1129 402 1254 506 1350 C 610 1446 756 1495 946 1495 Z M 774 721 L 944 1401 C 826 1401 737 1359 677 1275 C 616 1191 586 1078 586 936 C 586 860 601 806 631 772 C 661 738 708 721 774 721 Z" unicode="" />
<glyph horiz-adv-x="479" d="M 537 645 C 537 609 524 578 498 552 C 472 526 442 514 406 514 C 370 514 339 526 315 552 C 291 578 279 609 279 645 C 279 679 291 709 315 735 C 339 761 370 774 406 774 C 442 774 472 761 498 735 C 524 709 537 679 537 645 Z" unicode="" />
<glyph horiz-adv-x="819" d="M 731 -236 C 731 -276 713 -316 678 -356 C 643 -396 580 -416 489 -416 C 432 -416 383 -404 341 -382 C 299 -359 264 -335 238 -311 L 285 -254 C 308 -271 335 -289 366 -308 C 397 -326 435 -336 479 -336 C 519 -336 546 -325 559 -304 C 571 -282 578 -262 578 -244 C 578 -225 570 -208 554 -193 C 538 -177 513 -170 477 -170 C 471 -170 464 -170 456 -171 C 448 -172 440 -173 432 -174 L 535 0 L 606 0 L 551 -94 C 608 -96 652 -108 684 -132 C 715 -156 731 -190 731 -236 Z" unicode="" />
<glyph horiz-adv-x="702" d="M 715 1493 L 788 1493 L 610 782 C 607 769 609 759 616 751 C 623 743 635 737 653 735 C 670 732 684 727 696 720 C 707 713 711 703 707 690 L 694 645 L 317 645 L 328 688 C 330 702 339 713 355 719 C 371 725 388 731 408 735 C 426 737 438 742 444 749 C 450 756 455 767 459 782 L 602 1346 L 465 1346 L 481 1415 L 715 1493 Z" unicode="" />
<glyph horiz-adv-x="928" d="M 1051 1106 C 1051 993 1013 892 937 804 C 861 716 764 672 645 672 C 550 672 478 702 429 763 C 380 823 356 897 356 985 C 356 1101 394 1204 470 1292 C 546 1380 644 1425 766 1425 C 860 1425 931 1393 979 1330 C 1027 1267 1051 1192 1051 1106 Z M 899 1135 C 899 1208 887 1262 865 1296 C 843 1330 807 1348 758 1348 C 680 1348 618 1310 573 1234 C 528 1158 506 1067 506 963 C 506 891 517 837 540 802 C 562 767 599 750 651 750 C 731 750 792 788 835 865 C 877 941 899 1031 899 1135 Z" unicode="" />
<glyph horiz-adv-x="1016" d="M 659 537 C 659 520 654 505 644 491 C 634 477 623 465 612 455 L 250 143 L 145 143 L 477 526 L 317 897 L 422 897 L 641 586 C 645 578 649 570 653 562 C 657 554 659 545 659 537 Z M 1051 537 C 1051 520 1045 505 1035 491 C 1025 477 1014 465 1004 455 L 641 143 L 537 143 L 866 526 L 709 897 L 813 897 L 1032 586 C 1036 578 1041 570 1045 562 C 1049 554 1051 545 1051 537 Z" unicode="" />
<glyph horiz-adv-x="1542" d="M 688 1493 L 762 1493 L 584 782 C 581 769 583 759 590 751 C 597 743 609 737 627 735 C 644 732 658 727 669 720 C 680 713 684 703 680 690 L 668 645 L 291 645 L 301 688 C 303 702 312 713 328 719 C 344 725 361 731 381 735 C 400 737 412 742 418 749 C 423 756 428 767 432 782 L 575 1346 L 438 1346 L 455 1415 L 688 1493 Z M 1486 1501 L 1599 1501 L 423 -20 L 311 -20 L 1486 1501 Z M 1427 854 L 1534 854 L 1398 311 L 1529 311 L 1505 215 L 1374 215 L 1347 111 C 1345 101 1347 95 1354 92 C 1360 88 1368 84 1378 78 C 1391 73 1399 68 1403 62 C 1406 56 1407 51 1405 45 L 1392 0 L 1110 0 L 1122 45 C 1124 52 1128 58 1134 63 C 1140 68 1152 74 1171 80 C 1182 86 1190 89 1194 91 C 1198 93 1201 99 1204 111 L 1230 215 L 845 215 L 868 303 L 1427 854 Z M 1253 311 L 1337 653 L 991 311 L 1253 311 Z" unicode="" />
<glyph horiz-adv-x="1621" d="M 688 1493 L 762 1493 L 584 782 C 581 769 583 759 590 751 C 597 743 609 737 627 735 C 644 732 658 727 669 720 C 680 713 684 703 680 690 L 668 645 L 291 645 L 301 688 C 303 702 312 713 328 719 C 344 725 361 731 381 735 C 400 737 412 742 418 749 C 423 756 428 767 432 782 L 575 1346 L 438 1346 L 455 1415 L 688 1493 Z M 1486 1501 L 1599 1501 L 423 -20 L 311 -20 L 1486 1501 Z M 1687 633 C 1687 548 1649 476 1575 416 C 1501 356 1432 309 1368 273 C 1314 242 1271 217 1239 199 C 1207 180 1178 158 1151 133 L 1433 133 C 1453 133 1470 136 1482 144 C 1494 151 1504 166 1513 189 C 1517 201 1523 208 1531 212 C 1539 215 1547 217 1556 217 L 1605 217 L 1548 0 L 975 0 L 999 98 C 1031 138 1077 181 1136 227 C 1195 273 1254 317 1312 359 C 1378 407 1430 453 1467 497 C 1504 540 1523 589 1523 643 C 1523 679 1510 709 1484 733 C 1458 757 1424 770 1382 770 C 1358 770 1335 765 1312 756 C 1288 747 1271 736 1261 723 C 1272 713 1281 702 1287 691 C 1293 680 1296 668 1296 655 C 1296 629 1288 609 1273 595 C 1258 581 1237 574 1210 574 C 1180 574 1158 582 1142 599 C 1126 616 1118 637 1118 662 C 1118 708 1147 751 1207 792 C 1266 833 1335 854 1415 854 C 1496 854 1562 832 1612 789 C 1662 746 1687 694 1687 633 Z" unicode="" />
<glyph horiz-adv-x="1639" d="M 915 1311 C 915 1257 894 1212 853 1178 C 812 1143 761 1119 700 1106 C 749 1089 790 1064 824 1030 C 857 996 874 955 874 907 C 874 833 839 769 770 717 C 700 665 616 639 516 639 C 432 639 366 657 317 693 C 268 729 244 775 244 829 C 244 850 252 869 269 887 C 285 904 306 913 332 913 C 363 913 386 904 402 887 C 418 869 426 852 426 836 C 426 821 422 808 415 797 C 408 786 399 776 389 768 C 401 755 418 745 438 738 C 458 730 482 727 510 727 C 583 727 634 750 664 797 C 694 844 709 889 709 932 C 709 976 690 1009 654 1032 C 618 1054 559 1066 479 1067 L 496 1151 C 591 1151 658 1165 696 1193 C 734 1221 754 1263 754 1319 C 754 1346 741 1369 717 1389 C 693 1409 661 1419 621 1419 C 601 1419 584 1417 568 1413 C 552 1409 538 1405 528 1401 C 534 1392 539 1383 543 1375 C 547 1366 549 1355 549 1343 C 549 1323 541 1306 525 1293 C 509 1280 489 1274 467 1274 C 443 1274 422 1280 404 1294 C 386 1308 377 1329 377 1358 C 377 1400 405 1435 462 1463 C 518 1491 579 1505 643 1505 C 720 1505 785 1485 837 1447 C 889 1408 915 1363 915 1311 Z M 1583 1501 L 1696 1501 L 520 -20 L 408 -20 L 1583 1501 Z M 1524 854 L 1631 854 L 1495 311 L 1626 311 L 1602 215 L 1471 215 L 1444 111 C 1442 101 1444 95 1451 92 C 1457 88 1465 84 1475 78 C 1488 73 1496 68 1500 62 C 1503 56 1504 51 1502 45 L 1489 0 L 1207 0 L 1219 45 C 1221 52 1225 58 1231 63 C 1237 68 1249 74 1268 80 C 1279 86 1287 89 1291 91 C 1295 93 1298 99 1301 111 L 1327 215 L 942 215 L 965 303 L 1524 854 Z M 1350 311 L 1434 653 L 1088 311 L 1350 311 Z" unicode="" />
<glyph horiz-adv-x="899" d="M 819 -168 C 819 -226 787 -280 723 -331 C 659 -382 573 -408 467 -408 C 375 -408 293 -383 220 -333 C 147 -283 111 -211 111 -117 C 111 -40 132 24 175 76 C 217 128 274 186 346 248 C 442 329 507 403 543 469 C 579 535 606 608 625 690 C 625 694 630 699 640 705 C 650 710 661 713 674 713 C 686 713 697 709 705 701 C 713 693 717 688 717 684 C 706 622 685 553 654 477 C 622 400 578 324 520 248 C 448 152 396 81 364 35 C 332 -10 317 -71 317 -147 C 317 -214 333 -261 367 -289 C 401 -316 439 -330 481 -330 C 506 -330 534 -323 565 -310 C 596 -297 619 -279 635 -256 C 617 -238 606 -222 600 -208 C 594 -194 592 -181 592 -170 C 592 -132 602 -102 623 -82 C 643 -61 668 -51 698 -51 C 736 -51 766 -62 787 -85 C 808 -108 819 -136 819 -168 Z M 840 989 C 840 955 827 925 803 899 C 778 873 748 860 713 860 C 676 860 645 873 620 899 C 594 925 582 955 582 989 C 582 1025 594 1055 620 1081 C 645 1107 676 1120 713 1120 C 748 1120 778 1107 803 1081 C 827 1055 840 1025 840 989 Z" unicode="" />
<glyph horiz-adv-x="1399" d="M 1432 51 L 1419 0 L 977 0 L 987 41 C 989 51 994 58 1003 62 C 1011 66 1027 74 1051 86 C 1072 94 1087 103 1097 113 C 1107 123 1112 135 1112 150 C 1112 158 1111 169 1110 183 C 1109 197 1108 210 1106 223 L 1079 420 L 498 420 L 371 225 C 364 216 355 201 343 181 C 331 160 326 144 326 133 C 326 121 331 110 342 102 C 352 93 365 86 381 80 C 398 71 410 63 416 56 C 422 49 424 41 422 31 L 416 0 L 23 0 L 33 41 C 35 49 39 57 47 63 C 54 69 66 78 84 88 C 118 107 143 124 158 140 C 172 155 191 180 215 215 L 942 1296 L 922 1399 C 921 1403 921 1408 921 1412 C 921 1416 921 1420 922 1423 C 922 1426 924 1429 926 1432 C 928 1434 932 1437 938 1440 C 963 1452 986 1462 1007 1472 C 1027 1482 1049 1493 1073 1505 C 1075 1505 1080 1508 1086 1512 C 1092 1516 1098 1518 1102 1518 C 1106 1518 1110 1516 1113 1514 C 1115 1511 1117 1507 1118 1503 L 1317 184 C 1319 163 1327 145 1339 129 C 1351 113 1367 101 1386 92 C 1408 83 1421 77 1427 73 C 1432 69 1434 61 1432 51 Z M 563 522 L 1063 522 L 973 1147 L 563 522 Z M 987 1903 L 1262 1640 L 1214 1602 L 881 1751 C 849 1765 825 1782 809 1802 C 793 1821 786 1840 786 1860 C 786 1883 794 1904 811 1923 C 828 1942 851 1952 879 1952 C 893 1952 910 1949 928 1943 C 946 1937 966 1923 987 1903 Z" unicode="" />
<glyph horiz-adv-x="1399" d="M 1432 51 L 1419 0 L 977 0 L 987 41 C 989 51 994 58 1003 62 C 1011 66 1027 74 1051 86 C 1072 94 1087 103 1097 113 C 1107 123 1112 135 1112 150 C 1112 158 1111 169 1110 183 C 1109 197 1108 210 1106 223 L 1079 420 L 498 420 L 371 225 C 364 216 355 201 343 181 C 331 160 326 144 326 133 C 326 121 331 110 342 102 C 352 93 365 86 381 80 C 398 71 410 63 416 56 C 422 49 424 41 422 31 L 416 0 L 23 0 L 33 41 C 35 49 39 57 47 63 C 54 69 66 78 84 88 C 118 107 143 124 158 140 C 172 155 191 180 215 215 L 942 1296 L 922 1399 C 921 1403 921 1408 921 1412 C 921 1416 921 1420 922 1423 C 922 1426 924 1429 926 1432 C 928 1434 932 1437 938 1440 C 963 1452 986 1462 1007 1472 C 1027 1482 1049 1493 1073 1505 C 1075 1505 1080 1508 1086 1512 C 1092 1516 1098 1518 1102 1518 C 1106 1518 1110 1516 1113 1514 C 1115 1511 1117 1507 1118 1503 L 1317 184 C 1319 163 1327 145 1339 129 C 1351 113 1367 101 1386 92 C 1408 83 1421 77 1427 73 C 1432 69 1434 61 1432 51 Z M 563 522 L 1063 522 L 973 1147 L 563 522 Z M 1305 1860 C 1305 1840 1296 1821 1279 1802 C 1261 1782 1236 1765 1202 1751 L 860 1602 L 817 1640 L 1108 1903 C 1130 1923 1151 1937 1170 1943 C 1188 1949 1205 1952 1221 1952 C 1248 1952 1269 1942 1283 1923 C 1297 1904 1305 1883 1305 1860 Z" unicode="" />
<glyph horiz-adv-x="1399" d="M 1432 51 L 1419 0 L 977 0 L 987 41 C 989 51 994 58 1003 62 C 1011 66 1027 74 1051 86 C 1072 94 1087 103 1097 113 C 1107 123 1112 135 1112 150 C 1112 158 1111 169 1110 183 C 1109 197 1108 210 1106 223 L 1079 420 L 498 420 L 371 225 C 364 216 355 201 343 181 C 331 160 326 144 326 133 C 326 121 331 110 342 102 C 352 93 365 86 381 80 C 398 71 410 63 416 56 C 422 49 424 41 422 31 L 416 0 L 23 0 L 33 41 C 35 49 39 57 47 63 C 54 69 66 78 84 88 C 118 107 143 124 158 140 C 172 155 191 180 215 215 L 942 1296 L 922 1399 C 921 1403 921 1408 921 1412 C 921 1416 921 1420 922 1423 C 922 1426 924 1429 926 1432 C 928 1434 932 1437 938 1440 C 963 1452 986 1462 1007 1472 C 1027 1482 1049 1493 1073 1505 C 1075 1505 1080 1508 1086 1512 C 1092 1516 1098 1518 1102 1518 C 1106 1518 1110 1516 1113 1514 C 1115 1511 1117 1507 1118 1503 L 1317 184 C 1319 163 1327 145 1339 129 C 1351 113 1367 101 1386 92 C 1408 83 1421 77 1427 73 C 1432 69 1434 61 1432 51 Z M 563 522 L 1063 522 L 973 1147 L 563 522 Z M 1184 1948 L 1386 1593 L 1305 1593 L 1104 1790 L 793 1593 L 707 1593 L 1061 1948 L 1184 1948 Z" unicode="" />
<glyph horiz-adv-x="1399" d="M 1348 1882 L 1415 1882 C 1403 1816 1372 1759 1322 1711 C 1272 1663 1218 1640 1159 1640 C 1133 1640 1113 1643 1097 1651 C 1081 1659 1056 1672 1024 1692 C 999 1706 978 1718 961 1727 C 943 1736 923 1741 901 1741 C 871 1741 844 1730 820 1708 C 796 1686 780 1660 774 1632 L 707 1632 C 719 1698 749 1754 799 1802 C 849 1850 903 1874 963 1874 C 995 1874 1019 1870 1034 1862 C 1048 1854 1070 1842 1098 1827 C 1124 1811 1146 1799 1164 1789 C 1181 1779 1200 1774 1221 1774 C 1250 1774 1277 1784 1301 1806 C 1325 1828 1340 1853 1348 1882 Z M 1432 51 L 1419 0 L 977 0 L 987 41 C 989 51 994 58 1003 62 C 1011 66 1027 74 1051 86 C 1072 94 1087 103 1097 113 C 1107 123 1112 135 1112 150 C 1112 158 1111 169 1110 183 C 1109 197 1108 210 1106 223 L 1079 420 L 498 420 L 371 225 C 364 216 355 201 343 181 C 331 160 326 144 326 133 C 326 121 331 110 342 102 C 352 93 365 86 381 80 C 398 71 410 63 416 56 C 422 49 424 41 422 31 L 416 0 L 23 0 L 33 41 C 35 49 39 57 47 63 C 54 69 66 78 84 88 C 118 107 143 124 158 140 C 172 155 191 180 215 215 L 942 1296 L 922 1399 C 921 1403 921 1408 921 1412 C 921 1416 921 1420 922 1423 C 922 1426 924 1429 926 1432 C 928 1434 932 1437 938 1440 C 963 1452 986 1462 1007 1472 C 1027 1482 1049 1493 1073 1505 C 1075 1505 1080 1508 1086 1512 C 1092 1516 1098 1518 1102 1518 C 1106 1518 1110 1516 1113 1514 C 1115 1511 1117 1507 1118 1503 L 1317 184 C 1319 163 1327 145 1339 129 C 1351 113 1367 101 1386 92 C 1408 83 1421 77 1427 73 C 1432 69 1434 61 1432 51 Z M 563 522 L 1063 522 L 973 1147 L 563 522 Z" unicode="" />
<glyph horiz-adv-x="1399" d="M 1432 51 L 1419 0 L 977 0 L 987 41 C 989 51 994 58 1003 62 C 1011 66 1027 74 1051 86 C 1072 94 1087 103 1097 113 C 1107 123 1112 135 1112 150 C 1112 158 1111 169 1110 183 C 1109 197 1108 210 1106 223 L 1079 420 L 498 420 L 371 225 C 364 216 355 201 343 181 C 331 160 326 144 326 133 C 326 121 331 110 342 102 C 352 93 365 86 381 80 C 398 71 410 63 416 56 C 422 49 424 41 422 31 L 416 0 L 23 0 L 33 41 C 35 49 39 57 47 63 C 54 69 66 78 84 88 C 118 107 143 124 158 140 C 172 155 191 180 215 215 L 942 1296 L 922 1399 C 921 1403 921 1408 921 1412 C 921 1416 921 1420 922 1423 C 922 1426 924 1429 926 1432 C 928 1434 932 1437 938 1440 C 963 1452 986 1462 1007 1472 C 1027 1482 1049 1493 1073 1505 C 1075 1505 1080 1508 1086 1512 C 1092 1516 1098 1518 1102 1518 C 1106 1518 1110 1516 1113 1514 C 1115 1511 1117 1507 1118 1503 L 1317 184 C 1319 163 1327 145 1339 129 C 1351 113 1367 101 1386 92 C 1408 83 1421 77 1427 73 C 1432 69 1434 61 1432 51 Z M 563 522 L 1063 522 L 973 1147 L 563 522 Z M 927 1744 C 927 1713 915 1686 892 1664 C 869 1641 842 1630 812 1630 C 781 1630 754 1641 732 1664 C 709 1686 698 1713 698 1744 C 698 1774 709 1801 732 1824 C 754 1847 781 1859 812 1859 C 842 1859 869 1847 892 1824 C 915 1801 927 1774 927 1744 Z M 1357 1744 C 1357 1713 1345 1686 1322 1664 C 1299 1641 1272 1630 1242 1630 C 1211 1630 1184 1641 1162 1664 C 1139 1686 1128 1713 1128 1744 C 1128 1774 1139 1801 1162 1824 C 1184 1847 1211 1859 1242 1859 C 1272 1859 1299 1847 1322 1824 C 1345 1801 1357 1774 1357 1744 Z" unicode="" />
<glyph horiz-adv-x="1399" d="M 1432 51 L 1419 0 L 977 0 L 987 41 C 989 51 994 58 1003 62 C 1011 66 1027 74 1051 86 C 1072 94 1087 103 1097 113 C 1107 123 1112 135 1112 150 C 1112 158 1111 169 1110 183 C 1109 197 1108 210 1106 223 L 1079 420 L 498 420 L 371 225 C 364 216 355 201 343 181 C 331 160 326 144 326 133 C 326 121 331 110 342 102 C 352 93 365 86 381 80 C 398 71 410 63 416 56 C 422 49 424 41 422 31 L 416 0 L 23 0 L 33 41 C 35 49 39 57 47 63 C 54 69 66 78 84 88 C 118 107 143 124 158 140 C 172 155 191 180 215 215 L 942 1296 L 922 1399 C 921 1403 921 1408 921 1412 C 921 1416 921 1420 922 1423 C 922 1426 924 1429 926 1432 C 928 1434 932 1437 938 1440 C 963 1452 986 1462 1007 1472 C 1027 1482 1049 1493 1073 1505 C 1075 1505 1080 1508 1086 1512 C 1092 1516 1098 1518 1102 1518 C 1106 1518 1110 1516 1113 1514 C 1115 1511 1117 1507 1118 1503 L 1317 184 C 1319 163 1327 145 1339 129 C 1351 113 1367 101 1386 92 C 1408 83 1421 77 1427 73 C 1432 69 1434 61 1432 51 Z M 563 522 L 1063 522 L 973 1147 L 563 522 Z M 1292 1812 C 1292 1738 1265 1678 1211 1633 C 1157 1587 1095 1565 1026 1565 C 962 1565 910 1583 868 1621 C 826 1659 805 1706 805 1763 C 805 1825 829 1881 879 1933 C 928 1985 991 2011 1069 2011 C 1134 2011 1187 1991 1229 1953 C 1271 1915 1292 1868 1292 1812 Z M 1163 1831 C 1163 1869 1154 1897 1138 1917 C 1122 1936 1098 1946 1067 1946 C 1019 1946 984 1924 964 1881 C 944 1838 934 1793 934 1747 C 934 1710 941 1681 956 1661 C 971 1640 995 1630 1028 1630 C 1074 1630 1108 1650 1130 1692 C 1152 1734 1163 1780 1163 1831 Z" unicode="" />
<glyph horiz-adv-x="1982" d="M 2202 1511 L 2126 1208 L 2079 1208 C 2063 1208 2052 1210 2045 1216 C 2038 1222 2034 1230 2034 1241 C 2025 1304 2014 1345 2001 1365 C 1988 1385 1946 1395 1874 1395 L 1538 1395 L 1393 817 L 1577 817 C 1615 817 1642 823 1658 835 C 1674 847 1695 871 1722 907 C 1731 920 1740 930 1749 936 C 1757 942 1770 946 1788 946 L 1833 946 L 1741 573 L 1690 573 C 1674 573 1664 577 1658 587 C 1652 596 1647 606 1645 616 C 1636 652 1627 677 1618 692 C 1608 707 1588 715 1556 715 L 1368 715 L 1214 100 L 1649 100 C 1705 100 1750 114 1784 142 C 1817 170 1857 221 1903 295 C 1911 308 1918 318 1925 325 C 1931 332 1941 336 1954 336 L 2013 336 L 1929 0 L 874 0 L 887 51 C 889 63 895 71 903 74 C 911 77 926 83 950 92 C 980 103 998 113 1005 122 C 1011 131 1018 148 1024 174 L 1155 698 L 692 698 L 369 225 C 360 214 351 200 341 183 C 331 165 326 152 324 143 C 320 131 323 120 333 110 C 343 100 357 92 377 84 C 387 80 397 74 407 68 C 417 62 422 55 422 49 C 422 43 421 37 420 33 C 419 29 418 24 418 20 L 412 0 L 4 0 L 14 41 C 16 49 21 57 29 63 C 37 69 50 78 70 88 C 96 101 122 117 146 135 C 170 153 194 180 219 215 L 926 1221 C 940 1242 954 1263 967 1284 C 979 1304 987 1321 989 1333 C 993 1356 987 1372 969 1380 C 951 1388 934 1396 918 1403 C 904 1407 892 1412 882 1416 C 871 1420 866 1426 866 1434 C 866 1438 866 1442 867 1447 C 868 1451 870 1456 872 1460 L 881 1495 L 2007 1495 C 2032 1495 2066 1497 2109 1501 C 2151 1505 2182 1509 2202 1511 Z M 1182 801 L 1290 1241 C 1302 1289 1307 1327 1304 1357 C 1300 1386 1279 1401 1241 1401 C 1211 1401 1183 1385 1155 1355 C 1127 1324 1097 1285 1065 1239 L 764 801 L 1182 801 Z" unicode="" />
<glyph horiz-adv-x="1280" d="M 1475 1430 L 1526 1430 L 1436 1067 L 1370 1067 C 1358 1067 1350 1069 1346 1075 C 1342 1080 1339 1087 1339 1096 C 1330 1190 1299 1267 1245 1326 C 1191 1385 1118 1415 1026 1415 C 874 1415 743 1329 634 1159 C 525 989 471 792 471 569 C 471 405 506 284 577 206 C 647 128 736 90 842 90 C 926 90 1007 110 1086 152 C 1164 194 1237 251 1303 324 L 1358 246 C 1311 179 1241 119 1149 66 C 1057 12 955 -16 844 -20 L 801 -94 C 853 -96 896 -108 929 -131 C 962 -153 979 -187 979 -231 C 979 -279 958 -321 916 -359 C 874 -397 812 -416 731 -416 C 665 -416 613 -403 574 -379 C 534 -355 504 -331 483 -309 L 530 -252 C 550 -270 576 -288 608 -306 C 639 -323 675 -332 715 -332 C 750 -332 777 -323 797 -307 C 817 -291 827 -271 827 -248 C 827 -228 820 -210 806 -194 C 792 -178 767 -170 731 -170 C 725 -170 717 -170 708 -170 C 698 -170 690 -171 684 -172 L 774 -18 C 607 -7 478 55 386 170 C 294 285 248 434 248 618 C 248 876 325 1090 481 1260 C 637 1430 810 1516 1001 1516 C 1084 1516 1155 1505 1214 1485 C 1273 1465 1325 1441 1370 1413 C 1379 1407 1387 1402 1395 1400 C 1403 1397 1412 1399 1423 1405 C 1438 1413 1448 1420 1454 1424 C 1459 1428 1466 1430 1475 1430 Z" unicode="" />
<glyph horiz-adv-x="1204" d="M 1423 1511 L 1348 1208 L 1300 1208 C 1285 1208 1274 1210 1267 1216 C 1259 1222 1255 1230 1255 1241 C 1247 1304 1236 1345 1223 1365 C 1210 1385 1168 1395 1096 1395 L 752 1395 L 606 817 L 799 817 C 836 817 863 823 879 835 C 895 847 917 871 944 907 C 953 920 962 930 971 936 C 979 942 992 946 1010 946 L 1055 946 L 963 573 L 911 573 C 896 573 885 577 879 587 C 873 596 868 606 866 616 C 858 652 849 677 840 692 C 830 707 810 715 778 715 L 582 715 L 428 100 L 870 100 C 927 100 972 114 1005 142 C 1038 170 1078 221 1124 295 C 1132 308 1140 318 1147 325 C 1153 332 1163 336 1176 336 L 1235 336 L 1151 0 L 88 0 L 100 51 C 102 63 108 71 116 74 C 124 77 140 83 164 92 C 193 103 211 113 218 122 C 224 131 231 148 238 174 L 518 1296 C 520 1308 523 1320 525 1330 C 527 1340 528 1349 528 1356 C 528 1366 523 1375 514 1382 C 504 1389 491 1396 475 1403 C 459 1409 448 1414 440 1417 C 432 1419 428 1425 428 1434 C 428 1436 428 1441 430 1447 C 432 1453 433 1459 434 1464 L 442 1495 L 1229 1495 C 1254 1495 1288 1497 1330 1501 C 1372 1505 1403 1509 1423 1511 Z M 930 1903 L 1205 1640 L 1157 1602 L 824 1751 C 792 1765 768 1782 752 1802 C 736 1821 729 1840 729 1860 C 729 1883 737 1904 754 1923 C 771 1942 794 1952 822 1952 C 836 1952 853 1949 871 1943 C 889 1937 909 1923 930 1903 Z" unicode="" />
<glyph horiz-adv-x="1204" d="M 1423 1511 L 1348 1208 L 1300 1208 C 1285 1208 1274 1210 1267 1216 C 1259 1222 1255 1230 1255 1241 C 1247 1304 1236 1345 1223 1365 C 1210 1385 1168 1395 1096 1395 L 752 1395 L 606 817 L 799 817 C 836 817 863 823 879 835 C 895 847 917 871 944 907 C 953 920 962 930 971 936 C 979 942 992 946 1010 946 L 1055 946 L 963 573 L 911 573 C 896 573 885 577 879 587 C 873 596 868 606 866 616 C 858 652 849 677 840 692 C 830 707 810 715 778 715 L 582 715 L 428 100 L 870 100 C 927 100 972 114 1005 142 C 1038 170 1078 221 1124 295 C 1132 308 1140 318 1147 325 C 1153 332 1163 336 1176 336 L 1235 336 L 1151 0 L 88 0 L 100 51 C 102 63 108 71 116 74 C 124 77 140 83 164 92 C 193 103 211 113 218 122 C 224 131 231 148 238 174 L 518 1296 C 520 1308 523 1320 525 1330 C 527 1340 528 1349 528 1356 C 528 1366 523 1375 514 1382 C 504 1389 491 1396 475 1403 C 459 1409 448 1414 440 1417 C 432 1419 428 1425 428 1434 C 428 1436 428 1441 430 1447 C 432 1453 433 1459 434 1464 L 442 1495 L 1229 1495 C 1254 1495 1288 1497 1330 1501 C 1372 1505 1403 1509 1423 1511 Z M 1254 1860 C 1254 1840 1245 1821 1228 1802 C 1210 1782 1185 1765 1151 1751 L 809 1602 L 766 1640 L 1057 1903 C 1079 1923 1100 1937 1119 1943 C 1137 1949 1154 1952 1170 1952 C 1197 1952 1218 1942 1232 1923 C 1246 1904 1254 1883 1254 1860 Z" unicode="" />
<glyph horiz-adv-x="1204" d="M 1423 1511 L 1348 1208 L 1300 1208 C 1285 1208 1274 1210 1267 1216 C 1259 1222 1255 1230 1255 1241 C 1247 1304 1236 1345 1223 1365 C 1210 1385 1168 1395 1096 1395 L 752 1395 L 606 817 L 799 817 C 836 817 863 823 879 835 C 895 847 917 871 944 907 C 953 920 962 930 971 936 C 979 942 992 946 1010 946 L 1055 946 L 963 573 L 911 573 C 896 573 885 577 879 587 C 873 596 868 606 866 616 C 858 652 849 677 840 692 C 830 707 810 715 778 715 L 582 715 L 428 100 L 870 100 C 927 100 972 114 1005 142 C 1038 170 1078 221 1124 295 C 1132 308 1140 318 1147 325 C 1153 332 1163 336 1176 336 L 1235 336 L 1151 0 L 88 0 L 100 51 C 102 63 108 71 116 74 C 124 77 140 83 164 92 C 193 103 211 113 218 122 C 224 131 231 148 238 174 L 518 1296 C 520 1308 523 1320 525 1330 C 527 1340 528 1349 528 1356 C 528 1366 523 1375 514 1382 C 504 1389 491 1396 475 1403 C 459 1409 448 1414 440 1417 C 432 1419 428 1425 428 1434 C 428 1436 428 1441 430 1447 C 432 1453 433 1459 434 1464 L 442 1495 L 1229 1495 C 1254 1495 1288 1497 1330 1501 C 1372 1505 1403 1509 1423 1511 Z M 1084 1948 L 1286 1593 L 1205 1593 L 1004 1790 L 693 1593 L 607 1593 L 961 1948 L 1084 1948 Z" unicode="" />
<glyph horiz-adv-x="1204" d="M 1423 1511 L 1348 1208 L 1300 1208 C 1285 1208 1274 1210 1267 1216 C 1259 1222 1255 1230 1255 1241 C 1247 1304 1236 1345 1223 1365 C 1210 1385 1168 1395 1096 1395 L 752 1395 L 606 817 L 799 817 C 836 817 863 823 879 835 C 895 847 917 871 944 907 C 953 920 962 930 971 936 C 979 942 992 946 1010 946 L 1055 946 L 963 573 L 911 573 C 896 573 885 577 879 587 C 873 596 868 606 866 616 C 858 652 849 677 840 692 C 830 707 810 715 778 715 L 582 715 L 428 100 L 870 100 C 927 100 972 114 1005 142 C 1038 170 1078 221 1124 295 C 1132 308 1140 318 1147 325 C 1153 332 1163 336 1176 336 L 1235 336 L 1151 0 L 88 0 L 100 51 C 102 63 108 71 116 74 C 124 77 140 83 164 92 C 193 103 211 113 218 122 C 224 131 231 148 238 174 L 518 1296 C 520 1308 523 1320 525 1330 C 527 1340 528 1349 528 1356 C 528 1366 523 1375 514 1382 C 504 1389 491 1396 475 1403 C 459 1409 448 1414 440 1417 C 432 1419 428 1425 428 1434 C 428 1436 428 1441 430 1447 C 432 1453 433 1459 434 1464 L 442 1495 L 1229 1495 C 1254 1495 1288 1497 1330 1501 C 1372 1505 1403 1509 1423 1511 Z M 882 1744 C 882 1713 870 1686 847 1664 C 824 1641 797 1630 767 1630 C 736 1630 709 1641 687 1664 C 664 1686 653 1713 653 1744 C 653 1774 664 1801 687 1824 C 709 1847 736 1859 767 1859 C 797 1859 824 1847 847 1824 C 870 1801 882 1774 882 1744 Z M 1312 1744 C 1312 1713 1300 1686 1277 1664 C 1254 1641 1227 1630 1197 1630 C 1166 1630 1139 1641 1117 1664 C 1094 1686 1083 1713 1083 1744 C 1083 1774 1094 1801 1117 1824 C 1139 1847 1166 1859 1197 1859 C 1227 1859 1254 1847 1277 1824 C 1300 1801 1312 1774 1312 1744 Z" unicode="" />
<glyph horiz-adv-x="623" d="M 446 1495 L 889 1495 L 877 1444 C 873 1431 868 1423 860 1420 C 852 1417 836 1411 813 1403 C 783 1391 765 1381 759 1372 C 752 1363 745 1346 739 1321 L 459 199 C 456 186 454 174 452 164 C 450 154 449 145 449 139 C 449 128 453 119 463 112 C 472 104 485 98 502 92 C 516 86 528 81 537 78 C 546 75 551 69 551 61 C 551 58 550 53 548 47 C 546 41 545 35 545 31 L 537 0 L 94 0 L 106 51 C 109 63 115 71 123 74 C 131 77 146 83 170 92 C 199 103 217 113 224 122 C 230 131 237 148 244 174 L 524 1296 C 526 1308 529 1320 531 1330 C 533 1340 535 1349 535 1356 C 535 1366 530 1375 520 1382 C 510 1389 497 1396 481 1403 C 466 1409 454 1414 445 1417 C 436 1419 432 1425 432 1434 C 432 1436 432 1441 434 1447 C 436 1453 437 1459 438 1464 L 446 1495 Z M 660 1903 L 935 1640 L 887 1602 L 554 1751 C 522 1765 498 1782 482 1802 C 466 1821 459 1840 459 1860 C 459 1883 467 1904 484 1923 C 501 1942 524 1952 552 1952 C 566 1952 583 1949 601 1943 C 619 1937 639 1923 660 1903 Z" unicode="" />
<glyph horiz-adv-x="623" d="M 446 1495 L 889 1495 L 877 1444 C 873 1431 868 1423 860 1420 C 852 1417 836 1411 813 1403 C 783 1391 765 1381 759 1372 C 752 1363 745 1346 739 1321 L 459 199 C 456 186 454 174 452 164 C 450 154 449 145 449 139 C 449 128 453 119 463 112 C 472 104 485 98 502 92 C 516 86 528 81 537 78 C 546 75 551 69 551 61 C 551 58 550 53 548 47 C 546 41 545 35 545 31 L 537 0 L 94 0 L 106 51 C 109 63 115 71 123 74 C 131 77 146 83 170 92 C 199 103 217 113 224 122 C 230 131 237 148 244 174 L 524 1296 C 526 1308 529 1320 531 1330 C 533 1340 535 1349 535 1356 C 535 1366 530 1375 520 1382 C 510 1389 497 1396 481 1403 C 466 1409 454 1414 445 1417 C 436 1419 432 1425 432 1434 C 432 1436 432 1441 434 1447 C 436 1453 437 1459 438 1464 L 446 1495 Z M 953 1860 C 953 1840 944 1821 927 1802 C 909 1782 884 1765 850 1751 L 508 1602 L 465 1640 L 756 1903 C 778 1923 799 1937 818 1943 C 836 1949 853 1952 869 1952 C 896 1952 917 1942 931 1923 C 945 1904 953 1883 953 1860 Z" unicode="" />
<glyph horiz-adv-x="623" d="M 446 1495 L 889 1495 L 877 1444 C 873 1431 868 1423 860 1420 C 852 1417 836 1411 813 1403 C 783 1391 765 1381 759 1372 C 752 1363 745 1346 739 1321 L 459 199 C 456 186 454 174 452 164 C 450 154 449 145 449 139 C 449 128 453 119 463 112 C 472 104 485 98 502 92 C 516 86 528 81 537 78 C 546 75 551 69 551 61 C 551 58 550 53 548 47 C 546 41 545 35 545 31 L 537 0 L 94 0 L 106 51 C 109 63 115 71 123 74 C 131 77 146 83 170 92 C 199 103 217 113 224 122 C 230 131 237 148 244 174 L 524 1296 C 526 1308 529 1320 531 1330 C 533 1340 535 1349 535 1356 C 535 1366 530 1375 520 1382 C 510 1389 497 1396 481 1403 C 466 1409 454 1414 445 1417 C 436 1419 432 1425 432 1434 C 432 1436 432 1441 434 1447 C 436 1453 437 1459 438 1464 L 446 1495 Z M 810 1948 L 1012 1593 L 931 1593 L 730 1790 L 419 1593 L 333 1593 L 687 1948 L 810 1948 Z" unicode="" />
<glyph horiz-adv-x="623" d="M 608 1745 C 608 1714 596 1687 574 1664 C 551 1641 524 1630 494 1630 C 463 1630 436 1641 413 1664 C 390 1687 379 1714 379 1745 C 379 1775 390 1802 413 1825 C 436 1848 463 1860 494 1860 C 524 1860 551 1848 574 1825 C 596 1802 608 1775 608 1745 Z M 1024 1745 C 1024 1714 1012 1687 989 1664 C 966 1641 939 1630 909 1630 C 878 1630 851 1641 829 1664 C 806 1687 795 1714 795 1745 C 795 1775 806 1802 829 1825 C 851 1848 878 1860 909 1860 C 939 1860 966 1848 989 1825 C 1012 1802 1024 1775 1024 1745 Z M 446 1495 L 889 1495 L 877 1444 C 873 1431 868 1423 860 1420 C 852 1417 836 1411 813 1403 C 783 1391 765 1381 759 1372 C 752 1363 745 1346 739 1321 L 459 199 C 456 186 454 174 452 164 C 450 154 449 145 449 139 C 449 128 453 119 463 112 C 472 104 485 98 502 92 C 516 86 528 81 537 78 C 546 75 551 69 551 61 C 551 58 550 53 548 47 C 546 41 545 35 545 31 L 537 0 L 94 0 L 106 51 C 109 63 115 71 123 74 C 131 77 146 83 170 92 C 199 103 217 113 224 122 C 230 131 237 148 244 174 L 524 1296 C 526 1308 529 1320 531 1330 C 533 1340 535 1349 535 1356 C 535 1366 530 1375 520 1382 C 510 1389 497 1396 481 1403 C 466 1409 454 1414 445 1417 C 436 1419 432 1425 432 1434 C 432 1436 432 1441 434 1447 C 436 1453 437 1459 438 1464 L 446 1495 Z" unicode="" />
<glyph horiz-adv-x="1460" d="M 1380 1495 L 1751 1495 L 1737 1442 C 1735 1433 1729 1426 1720 1421 C 1711 1416 1693 1405 1667 1389 C 1641 1371 1621 1352 1606 1332 C 1591 1311 1581 1290 1577 1270 L 1260 -10 L 1176 -10 L 645 1294 L 391 276 C 387 259 383 244 381 230 C 378 216 377 203 377 190 C 377 173 380 158 386 144 C 392 130 401 116 414 102 C 431 86 443 76 451 72 C 458 68 461 61 459 53 L 446 0 L 78 0 L 90 53 C 92 61 97 68 106 73 C 115 78 133 89 160 106 C 185 123 205 141 219 161 C 233 181 244 202 250 225 L 518 1296 C 520 1307 523 1318 525 1329 C 527 1340 528 1349 528 1356 C 528 1366 523 1375 514 1382 C 504 1389 491 1396 475 1403 C 459 1409 448 1414 440 1417 C 432 1419 428 1425 428 1434 C 428 1436 428 1441 430 1447 C 432 1453 433 1459 434 1464 L 442 1495 L 786 1495 L 1231 389 L 1436 1219 C 1440 1235 1443 1250 1446 1264 C 1448 1278 1450 1291 1450 1305 C 1450 1321 1447 1336 1441 1350 C 1435 1364 1425 1378 1413 1393 C 1395 1409 1383 1419 1375 1423 C 1367 1427 1364 1433 1366 1442 L 1380 1495 Z M 1434 1882 L 1501 1882 C 1489 1816 1458 1759 1408 1711 C 1358 1663 1304 1640 1245 1640 C 1219 1640 1199 1643 1183 1651 C 1167 1659 1142 1672 1110 1692 C 1085 1706 1064 1718 1047 1727 C 1029 1736 1009 1741 987 1741 C 957 1741 930 1730 906 1708 C 882 1686 866 1660 860 1632 L 793 1632 C 805 1698 835 1754 885 1802 C 935 1850 989 1874 1049 1874 C 1081 1874 1105 1870 1120 1862 C 1134 1854 1156 1842 1184 1827 C 1210 1811 1232 1799 1250 1789 C 1267 1779 1286 1774 1307 1774 C 1336 1774 1363 1784 1387 1806 C 1411 1828 1426 1853 1434 1882 Z" unicode="" />
<glyph horiz-adv-x="1497" d="M 1616 907 C 1616 667 1540 453 1389 264 C 1237 74 1045 -20 813 -20 C 647 -20 512 36 408 150 C 304 263 252 409 252 588 C 252 825 327 1039 477 1230 C 627 1420 821 1516 1059 1516 C 1229 1516 1364 1457 1465 1340 C 1565 1223 1616 1079 1616 907 Z M 1397 975 C 1397 1112 1367 1220 1307 1298 C 1247 1376 1163 1415 1053 1415 C 887 1415 748 1323 637 1141 C 526 958 471 752 471 522 C 471 384 501 275 561 197 C 621 119 707 80 819 80 C 984 80 1122 171 1232 353 C 1342 535 1397 742 1397 975 Z M 1050 1903 L 1325 1640 L 1277 1602 L 944 1751 C 912 1765 888 1782 872 1802 C 856 1821 849 1840 849 1860 C 849 1883 857 1904 874 1923 C 891 1942 914 1952 942 1952 C 956 1952 973 1949 991 1943 C 1009 1937 1029 1923 1050 1903 Z" unicode="" />
<glyph horiz-adv-x="1497" d="M 1317 1860 C 1317 1840 1308 1821 1291 1802 C 1273 1782 1248 1765 1214 1751 L 872 1602 L 829 1640 L 1120 1903 C 1142 1923 1163 1937 1182 1943 C 1200 1949 1217 1952 1233 1952 C 1260 1952 1281 1942 1295 1923 C 1309 1904 1317 1883 1317 1860 Z M 1616 907 C 1616 667 1540 453 1389 264 C 1237 74 1045 -20 813 -20 C 647 -20 512 36 408 150 C 304 263 252 409 252 588 C 252 825 327 1039 477 1230 C 627 1420 821 1516 1059 1516 C 1229 1516 1364 1457 1465 1340 C 1565 1223 1616 1079 1616 907 Z M 1397 975 C 1397 1112 1367 1220 1307 1298 C 1247 1376 1163 1415 1053 1415 C 887 1415 748 1323 637 1141 C 526 958 471 752 471 522 C 471 384 501 275 561 197 C 621 119 707 80 819 80 C 984 80 1122 171 1232 353 C 1342 535 1397 742 1397 975 Z" unicode="" />
<glyph horiz-adv-x="1497" d="M 1192 1948 L 1394 1593 L 1313 1593 L 1112 1790 L 801 1593 L 715 1593 L 1069 1948 L 1192 1948 Z M 1616 907 C 1616 667 1540 453 1389 264 C 1237 74 1045 -20 813 -20 C 647 -20 512 36 408 150 C 304 263 252 409 252 588 C 252 825 327 1039 477 1230 C 627 1420 821 1516 1059 1516 C 1229 1516 1364 1457 1465 1340 C 1565 1223 1616 1079 1616 907 Z M 1397 975 C 1397 1112 1367 1220 1307 1298 C 1247 1376 1163 1415 1053 1415 C 887 1415 748 1323 637 1141 C 526 958 471 752 471 522 C 471 384 501 275 561 197 C 621 119 707 80 819 80 C 984 80 1122 171 1232 353 C 1342 535 1397 742 1397 975 Z" unicode="" />
<glyph horiz-adv-x="1497" d="M 1385 1882 L 1452 1882 C 1440 1816 1409 1759 1359 1711 C 1309 1663 1255 1640 1196 1640 C 1170 1640 1150 1643 1134 1651 C 1118 1659 1093 1672 1061 1692 C 1036 1706 1015 1718 998 1727 C 980 1736 960 1741 938 1741 C 908 1741 881 1730 857 1708 C 833 1686 817 1660 811 1632 L 744 1632 C 756 1698 786 1754 836 1802 C 886 1850 940 1874 1000 1874 C 1032 1874 1056 1870 1071 1862 C 1085 1854 1107 1842 1135 1827 C 1161 1811 1183 1799 1201 1789 C 1218 1779 1237 1774 1258 1774 C 1287 1774 1314 1784 1338 1806 C 1362 1828 1377 1853 1385 1882 Z M 1616 907 C 1616 667 1540 453 1389 264 C 1237 74 1045 -20 813 -20 C 647 -20 512 36 408 150 C 304 263 252 409 252 588 C 252 825 327 1039 477 1230 C 627 1420 821 1516 1059 1516 C 1229 1516 1364 1457 1465 1340 C 1565 1223 1616 1079 1616 907 Z M 1397 975 C 1397 1112 1367 1220 1307 1298 C 1247 1376 1163 1415 1053 1415 C 887 1415 748 1323 637 1141 C 526 958 471 752 471 522 C 471 384 501 275 561 197 C 621 119 707 80 819 80 C 984 80 1122 171 1232 353 C 1342 535 1397 742 1397 975 Z" unicode="" />
<glyph horiz-adv-x="1497" d="M 1616 907 C 1616 667 1540 453 1389 264 C 1237 74 1045 -20 813 -20 C 647 -20 512 36 408 150 C 304 263 252 409 252 588 C 252 825 327 1039 477 1230 C 627 1420 821 1516 1059 1516 C 1229 1516 1364 1457 1465 1340 C 1565 1223 1616 1079 1616 907 Z M 1397 975 C 1397 1112 1367 1220 1307 1298 C 1247 1376 1163 1415 1053 1415 C 887 1415 748 1323 637 1141 C 526 958 471 752 471 522 C 471 384 501 275 561 197 C 621 119 707 80 819 80 C 984 80 1122 171 1232 353 C 1342 535 1397 742 1397 975 Z M 1009 1744 C 1009 1713 997 1686 974 1664 C 951 1641 924 1630 894 1630 C 863 1630 836 1641 814 1664 C 791 1686 780 1713 780 1744 C 780 1774 791 1801 814 1824 C 836 1847 863 1859 894 1859 C 924 1859 951 1847 974 1824 C 997 1801 1009 1774 1009 1744 Z M 1439 1744 C 1439 1713 1427 1686 1404 1664 C 1381 1641 1354 1630 1324 1630 C 1293 1630 1266 1641 1244 1664 C 1221 1686 1210 1713 1210 1744 C 1210 1774 1221 1801 1244 1824 C 1266 1847 1293 1859 1324 1859 C 1354 1859 1381 1847 1404 1824 C 1427 1801 1439 1774 1439 1744 Z" unicode="" />
<glyph horiz-adv-x="1548" d="M 1034 600 L 1427 209 L 1337 119 L 946 512 L 555 119 L 465 209 L 858 600 L 465 991 L 555 1081 L 946 688 L 1337 1081 L 1427 991 L 1034 600 Z" unicode="" />
<glyph horiz-adv-x="1497" d="M 1487 1573 L 1315 1350 C 1367 1295 1407 1230 1436 1154 C 1464 1078 1479 996 1479 907 C 1479 827 1470 748 1452 671 C 1434 594 1408 521 1374 453 C 1340 384 1300 321 1252 263 C 1204 205 1151 155 1092 113 C 1032 71 968 39 898 15 C 828 -8 754 -20 676 -20 C 613 -20 554 -11 499 6 C 443 24 393 50 348 84 L 207 -98 L 88 -98 L 276 147 C 226 201 186 265 158 340 C 129 414 115 497 115 588 C 115 667 123 745 141 822 C 159 898 184 971 218 1040 C 251 1109 291 1173 339 1231 C 387 1289 440 1339 500 1381 C 560 1423 625 1456 696 1480 C 766 1504 842 1516 922 1516 C 984 1516 1043 1507 1097 1489 C 1151 1471 1201 1446 1245 1413 L 1368 1573 L 1487 1573 Z M 1165 1309 C 1135 1343 1099 1370 1058 1388 C 1016 1406 969 1415 915 1415 C 853 1415 796 1402 744 1377 C 691 1352 643 1318 600 1275 C 556 1231 518 1180 484 1122 C 450 1064 422 1002 400 936 C 377 870 360 801 348 730 C 336 659 330 590 330 522 C 330 472 333 426 340 384 C 347 341 358 303 373 270 L 1165 1309 Z M 1264 975 C 1264 1023 1260 1068 1252 1111 C 1244 1154 1233 1193 1219 1227 L 426 186 C 456 151 492 125 534 107 C 576 89 626 80 682 80 C 740 80 794 91 846 115 C 898 139 945 171 988 213 C 1031 254 1070 303 1104 360 C 1138 416 1166 478 1190 544 C 1214 610 1232 680 1245 753 C 1257 826 1264 900 1264 975 Z" unicode="" />
<glyph horiz-adv-x="1462" d="M 1070 1903 L 1345 1640 L 1297 1602 L 964 1751 C 932 1765 908 1782 892 1802 C 876 1821 869 1840 869 1860 C 869 1883 877 1904 894 1923 C 911 1942 934 1952 962 1952 C 976 1952 993 1949 1011 1943 C 1029 1937 1049 1923 1070 1903 Z M 1393 1495 L 1767 1495 L 1753 1442 C 1751 1433 1745 1426 1736 1421 C 1727 1416 1709 1405 1683 1389 C 1657 1371 1638 1353 1624 1333 C 1610 1313 1599 1292 1593 1270 L 1407 528 C 1365 364 1291 231 1183 131 C 1075 30 941 -20 782 -20 C 618 -20 495 17 414 93 C 333 168 293 263 293 379 C 293 400 295 425 299 453 C 303 481 309 507 315 530 L 506 1296 C 508 1308 511 1320 513 1330 C 515 1340 516 1349 516 1356 C 516 1366 511 1375 502 1382 C 492 1389 479 1396 463 1403 C 447 1409 436 1414 428 1417 C 420 1419 416 1425 416 1434 C 416 1436 416 1441 418 1447 C 420 1453 421 1459 422 1464 L 430 1495 L 868 1495 L 856 1444 C 853 1431 848 1423 841 1420 C 833 1417 818 1411 795 1403 C 765 1391 746 1381 740 1372 C 733 1363 727 1346 721 1321 L 526 543 C 521 521 516 497 512 470 C 508 443 506 420 506 401 C 506 315 534 247 590 196 C 646 144 721 119 817 119 C 947 119 1047 154 1119 226 C 1191 298 1244 405 1280 547 L 1448 1219 C 1452 1235 1455 1250 1458 1264 C 1460 1278 1462 1291 1462 1305 C 1462 1321 1459 1336 1453 1350 C 1447 1364 1437 1378 1425 1393 C 1408 1409 1395 1419 1387 1423 C 1379 1427 1376 1433 1378 1442 L 1393 1495 Z" unicode="" />
<glyph horiz-adv-x="1462" d="M 1362 1860 C 1362 1840 1353 1821 1336 1802 C 1318 1782 1293 1765 1259 1751 L 917 1602 L 874 1640 L 1165 1903 C 1187 1923 1208 1937 1227 1943 C 1245 1949 1262 1952 1278 1952 C 1305 1952 1326 1942 1340 1923 C 1354 1904 1362 1883 1362 1860 Z M 1393 1495 L 1767 1495 L 1753 1442 C 1751 1433 1745 1426 1736 1421 C 1727 1416 1709 1405 1683 1389 C 1657 1371 1638 1353 1624 1333 C 1610 1313 1599 1292 1593 1270 L 1407 528 C 1365 364 1291 231 1183 131 C 1075 30 941 -20 782 -20 C 618 -20 495 17 414 93 C 333 168 293 263 293 379 C 293 400 295 425 299 453 C 303 481 309 507 315 530 L 506 1296 C 508 1308 511 1320 513 1330 C 515 1340 516 1349 516 1356 C 516 1366 511 1375 502 1382 C 492 1389 479 1396 463 1403 C 447 1409 436 1414 428 1417 C 420 1419 416 1425 416 1434 C 416 1436 416 1441 418 1447 C 420 1453 421 1459 422 1464 L 430 1495 L 868 1495 L 856 1444 C 853 1431 848 1423 841 1420 C 833 1417 818 1411 795 1403 C 765 1391 746 1381 740 1372 C 733 1363 727 1346 721 1321 L 526 543 C 521 521 516 497 512 470 C 508 443 506 420 506 401 C 506 315 534 247 590 196 C 646 144 721 119 817 119 C 947 119 1047 154 1119 226 C 1191 298 1244 405 1280 547 L 1448 1219 C 1452 1235 1455 1250 1458 1264 C 1460 1278 1462 1291 1462 1305 C 1462 1321 1459 1336 1453 1350 C 1447 1364 1437 1378 1425 1393 C 1408 1409 1395 1419 1387 1423 C 1379 1427 1376 1433 1378 1442 L 1393 1495 Z" unicode="" />
<glyph horiz-adv-x="1462" d="M 1245 1948 L 1447 1593 L 1366 1593 L 1165 1790 L 854 1593 L 768 1593 L 1122 1948 L 1245 1948 Z M 1393 1495 L 1767 1495 L 1753 1442 C 1751 1433 1745 1426 1736 1421 C 1727 1416 1709 1405 1683 1389 C 1657 1371 1638 1353 1624 1333 C 1610 1313 1599 1292 1593 1270 L 1407 528 C 1365 364 1291 231 1183 131 C 1075 30 941 -20 782 -20 C 618 -20 495 17 414 93 C 333 168 293 263 293 379 C 293 400 295 425 299 453 C 303 481 309 507 315 530 L 506 1296 C 508 1308 511 1320 513 1330 C 515 1340 516 1349 516 1356 C 516 1366 511 1375 502 1382 C 492 1389 479 1396 463 1403 C 447 1409 436 1414 428 1417 C 420 1419 416 1425 416 1434 C 416 1436 416 1441 418 1447 C 420 1453 421 1459 422 1464 L 430 1495 L 868 1495 L 856 1444 C 853 1431 848 1423 841 1420 C 833 1417 818 1411 795 1403 C 765 1391 746 1381 740 1372 C 733 1363 727 1346 721 1321 L 526 543 C 521 521 516 497 512 470 C 508 443 506 420 506 401 C 506 315 534 247 590 196 C 646 144 721 119 817 119 C 947 119 1047 154 1119 226 C 1191 298 1244 405 1280 547 L 1448 1219 C 1452 1235 1455 1250 1458 1264 C 1460 1278 1462 1291 1462 1305 C 1462 1321 1459 1336 1453 1350 C 1447 1364 1437 1378 1425 1393 C 1408 1409 1395 1419 1387 1423 C 1379 1427 1376 1433 1378 1442 L 1393 1495 Z" unicode="" />
<glyph horiz-adv-x="1462" d="M 1393 1495 L 1767 1495 L 1753 1442 C 1751 1433 1745 1426 1736 1421 C 1727 1416 1709 1405 1683 1389 C 1657 1371 1638 1353 1624 1333 C 1610 1313 1599 1292 1593 1270 L 1407 528 C 1365 364 1291 231 1183 131 C 1075 30 941 -20 782 -20 C 618 -20 495 17 414 93 C 333 168 293 263 293 379 C 293 400 295 425 299 453 C 303 481 309 507 315 530 L 506 1296 C 508 1308 511 1320 513 1330 C 515 1340 516 1349 516 1356 C 516 1366 511 1375 502 1382 C 492 1389 479 1396 463 1403 C 447 1409 436 1414 428 1417 C 420 1419 416 1425 416 1434 C 416 1436 416 1441 418 1447 C 420 1453 421 1459 422 1464 L 430 1495 L 868 1495 L 856 1444 C 853 1431 848 1423 841 1420 C 833 1417 818 1411 795 1403 C 765 1391 746 1381 740 1372 C 733 1363 727 1346 721 1321 L 526 543 C 521 521 516 497 512 470 C 508 443 506 420 506 401 C 506 315 534 247 590 196 C 646 144 721 119 817 119 C 947 119 1047 154 1119 226 C 1191 298 1244 405 1280 547 L 1448 1219 C 1452 1235 1455 1250 1458 1264 C 1460 1278 1462 1291 1462 1305 C 1462 1321 1459 1336 1453 1350 C 1447 1364 1437 1378 1425 1393 C 1408 1409 1395 1419 1387 1423 C 1379 1427 1376 1433 1378 1442 L 1393 1495 Z M 1034 1744 C 1034 1713 1022 1686 999 1664 C 976 1641 949 1630 919 1630 C 888 1630 861 1641 839 1664 C 816 1686 805 1713 805 1744 C 805 1774 816 1801 839 1824 C 861 1847 888 1859 919 1859 C 949 1859 976 1847 999 1824 C 1022 1801 1034 1774 1034 1744 Z M 1464 1744 C 1464 1713 1452 1686 1429 1664 C 1406 1641 1379 1630 1349 1630 C 1318 1630 1291 1641 1269 1664 C 1246 1686 1235 1713 1235 1744 C 1235 1774 1246 1801 1269 1824 C 1291 1847 1318 1859 1349 1859 C 1379 1859 1406 1847 1429 1824 C 1452 1801 1464 1774 1464 1744 Z" unicode="" />
<glyph horiz-adv-x="1280" d="M 1247 1495 L 1642 1495 L 1632 1454 C 1629 1444 1624 1436 1617 1430 C 1610 1424 1597 1417 1579 1409 C 1546 1392 1522 1379 1506 1369 C 1490 1359 1463 1332 1427 1290 L 909 684 L 788 199 C 785 186 783 174 781 164 C 779 154 778 145 778 139 C 778 128 782 119 792 112 C 802 104 815 98 831 92 C 846 86 858 81 867 78 C 876 75 881 69 881 61 C 881 58 880 53 878 47 C 876 41 875 35 874 31 L 866 0 L 424 0 L 436 51 C 438 63 444 71 452 74 C 460 77 476 83 500 92 C 529 103 547 113 554 122 C 560 131 567 148 573 174 L 698 680 L 451 1317 C 442 1337 432 1354 420 1367 C 408 1380 392 1392 371 1403 C 350 1411 337 1418 332 1422 C 327 1426 326 1433 328 1444 L 340 1495 L 786 1495 L 778 1462 C 775 1451 771 1443 766 1439 C 760 1434 745 1426 721 1415 C 702 1407 688 1399 678 1391 C 668 1383 664 1374 664 1366 C 664 1361 666 1351 670 1335 C 674 1319 677 1306 680 1298 L 868 801 L 1286 1296 C 1297 1309 1308 1324 1320 1340 C 1331 1356 1337 1368 1337 1374 C 1337 1385 1331 1393 1321 1398 C 1311 1403 1298 1409 1284 1415 C 1264 1423 1251 1431 1245 1437 C 1238 1443 1236 1452 1239 1462 L 1247 1495 Z M 1330 1860 C 1330 1840 1321 1821 1304 1802 C 1286 1782 1261 1765 1227 1751 L 885 1602 L 842 1640 L 1133 1903 C 1155 1923 1176 1937 1195 1943 C 1213 1949 1230 1952 1246 1952 C 1273 1952 1294 1942 1308 1923 C 1322 1904 1330 1883 1330 1860 Z" unicode="" />
<glyph horiz-adv-x="1141" d="M 1272 1196 C 1272 1084 1231 997 1150 937 C 1069 877 979 837 881 819 C 982 808 1064 773 1126 714 C 1188 654 1219 571 1219 465 C 1219 333 1169 219 1070 122 C 970 25 855 -23 725 -23 C 680 -23 629 -14 572 3 C 515 21 487 59 487 119 C 487 151 498 177 520 197 C 542 217 568 227 600 227 C 626 227 648 219 664 205 C 680 190 688 169 688 143 C 688 130 686 117 683 104 C 679 91 674 80 668 70 C 674 65 682 62 690 62 C 698 61 706 61 715 61 C 819 61 896 110 946 209 C 995 307 1020 402 1020 492 C 1020 578 999 644 959 688 C 919 732 854 754 766 754 C 748 754 729 756 708 760 C 686 764 676 778 676 803 C 676 819 681 834 693 846 C 704 858 718 864 735 864 L 780 864 C 876 864 950 895 1004 959 C 1058 1023 1085 1100 1085 1192 C 1085 1255 1070 1306 1040 1346 C 1010 1385 963 1405 897 1405 C 799 1405 729 1364 686 1283 C 643 1201 612 1121 594 1042 L 354 0 L 166 0 L 406 1022 C 436 1152 495 1264 582 1356 C 669 1448 784 1495 926 1495 C 1019 1495 1100 1470 1169 1422 C 1237 1373 1272 1298 1272 1196 Z" unicode="" />
<glyph horiz-adv-x="1119" d="M 1176 139 L 1196 66 C 1172 44 1140 24 1100 6 C 1059 -11 1015 -20 967 -20 C 909 -20 870 -5 848 24 C 826 53 815 91 815 139 C 774 101 728 65 676 32 C 624 -1 567 -18 504 -18 C 396 -18 316 14 264 80 C 212 146 186 234 186 344 C 186 527 247 685 369 817 C 491 949 637 1016 805 1016 C 855 1016 897 1009 929 996 C 961 982 990 967 1016 950 C 1022 946 1029 943 1037 942 C 1044 941 1051 943 1059 948 L 1135 1010 C 1139 1014 1145 1017 1153 1019 C 1160 1021 1166 1022 1171 1022 C 1178 1022 1184 1019 1190 1015 C 1196 1010 1198 1003 1196 995 L 995 215 C 993 205 991 195 989 186 C 987 176 987 168 987 160 C 987 143 992 128 1003 115 C 1013 102 1031 96 1057 96 C 1075 96 1094 100 1112 108 C 1130 116 1152 126 1176 139 Z M 813 221 L 967 831 C 949 851 926 871 898 890 C 870 908 835 918 793 918 C 665 918 566 861 494 749 C 422 636 387 503 387 350 C 387 267 404 206 439 167 C 474 128 522 109 582 109 C 628 109 667 119 700 140 C 733 161 771 188 813 221 Z M 759 1440 L 1003 1149 L 954 1114 L 640 1298 C 610 1315 589 1333 576 1351 C 562 1369 556 1387 556 1407 C 556 1431 564 1453 581 1471 C 598 1489 620 1499 647 1499 C 663 1499 681 1495 699 1488 C 717 1481 737 1465 759 1440 Z" unicode="" />
<glyph horiz-adv-x="1120" d="M 1176 139 L 1196 66 C 1172 44 1140 24 1100 6 C 1059 -11 1015 -20 967 -20 C 909 -20 870 -5 848 24 C 826 53 815 91 815 139 C 774 101 728 65 676 32 C 624 -1 567 -18 504 -18 C 396 -18 316 14 264 80 C 212 146 186 234 186 344 C 186 527 247 685 369 817 C 491 949 637 1016 805 1016 C 855 1016 897 1009 929 996 C 961 982 990 967 1016 950 C 1022 946 1029 943 1037 942 C 1044 941 1051 943 1059 948 L 1135 1010 C 1139 1014 1145 1017 1153 1019 C 1160 1021 1166 1022 1171 1022 C 1178 1022 1184 1019 1190 1015 C 1196 1010 1198 1003 1196 995 L 995 215 C 993 205 991 195 989 186 C 987 176 987 168 987 160 C 987 143 992 128 1003 115 C 1013 102 1031 96 1057 96 C 1075 96 1094 100 1112 108 C 1130 116 1152 126 1176 139 Z M 813 221 L 967 831 C 949 851 926 871 898 890 C 870 908 835 918 793 918 C 665 918 566 861 494 749 C 422 636 387 503 387 350 C 387 267 404 206 439 167 C 474 128 522 109 582 109 C 628 109 667 119 700 140 C 733 161 771 188 813 221 Z M 1046 1407 C 1046 1388 1038 1369 1022 1351 C 1006 1333 983 1315 953 1298 L 628 1114 L 579 1149 L 843 1440 C 866 1465 887 1481 906 1488 C 924 1495 942 1499 960 1499 C 986 1499 1007 1489 1023 1471 C 1038 1453 1046 1431 1046 1407 Z" unicode="" />
<glyph horiz-adv-x="1120" d="M 1176 139 L 1196 66 C 1172 44 1140 24 1100 6 C 1059 -11 1015 -20 967 -20 C 909 -20 870 -5 848 24 C 826 53 815 91 815 139 C 774 101 728 65 676 32 C 624 -1 567 -18 504 -18 C 396 -18 316 14 264 80 C 212 146 186 234 186 344 C 186 527 247 685 369 817 C 491 949 637 1016 805 1016 C 855 1016 897 1009 929 996 C 961 982 990 967 1016 950 C 1022 946 1029 943 1037 942 C 1044 941 1051 943 1059 948 L 1135 1010 C 1139 1014 1145 1017 1153 1019 C 1160 1021 1166 1022 1171 1022 C 1178 1022 1184 1019 1190 1015 C 1196 1010 1198 1003 1196 995 L 995 215 C 993 205 991 195 989 186 C 987 176 987 168 987 160 C 987 143 992 128 1003 115 C 1013 102 1031 96 1057 96 C 1075 96 1094 100 1112 108 C 1130 116 1152 126 1176 139 Z M 813 221 L 967 831 C 949 851 926 871 898 890 C 870 908 835 918 793 918 C 665 918 566 861 494 749 C 422 636 387 503 387 350 C 387 267 404 206 439 167 C 474 128 522 109 582 109 C 628 109 667 119 700 140 C 733 161 771 188 813 221 Z M 907 1470 L 1096 1106 L 1014 1106 L 819 1313 L 520 1106 L 436 1106 L 784 1470 L 907 1470 Z" unicode="" />
<glyph horiz-adv-x="1120" d="M 1176 139 L 1196 66 C 1172 44 1140 24 1100 6 C 1059 -11 1015 -20 967 -20 C 909 -20 870 -5 848 24 C 826 53 815 91 815 139 C 774 101 728 65 676 32 C 624 -1 567 -18 504 -18 C 396 -18 316 14 264 80 C 212 146 186 234 186 344 C 186 527 247 685 369 817 C 491 949 637 1016 805 1016 C 855 1016 897 1009 929 996 C 961 982 990 967 1016 950 C 1022 946 1029 943 1037 942 C 1044 941 1051 943 1059 948 L 1135 1010 C 1139 1014 1145 1017 1153 1019 C 1160 1021 1166 1022 1171 1022 C 1178 1022 1184 1019 1190 1015 C 1196 1010 1198 1003 1196 995 L 995 215 C 993 205 991 195 989 186 C 987 176 987 168 987 160 C 987 143 992 128 1003 115 C 1013 102 1031 96 1057 96 C 1075 96 1094 100 1112 108 C 1130 116 1152 126 1176 139 Z M 813 221 L 967 831 C 949 851 926 871 898 890 C 870 908 835 918 793 918 C 665 918 566 861 494 749 C 422 636 387 503 387 350 C 387 267 404 206 439 167 C 474 128 522 109 582 109 C 628 109 667 119 700 140 C 733 161 771 188 813 221 Z M 1091 1427 L 1157 1427 C 1144 1361 1116 1304 1073 1257 C 1029 1209 981 1186 927 1186 C 903 1186 880 1190 857 1200 C 833 1209 808 1222 782 1239 C 758 1253 735 1265 713 1273 C 691 1281 669 1286 649 1286 C 621 1286 596 1275 576 1253 C 556 1231 542 1206 536 1178 L 470 1178 C 481 1244 508 1300 552 1348 C 595 1395 644 1419 698 1419 C 727 1419 753 1414 775 1406 C 797 1397 820 1385 845 1370 C 871 1353 895 1340 916 1332 C 937 1323 957 1319 976 1319 C 1004 1319 1028 1329 1049 1351 C 1070 1373 1084 1398 1091 1427 Z" unicode="" />
<glyph horiz-adv-x="1120" d="M 1176 139 L 1196 66 C 1172 44 1140 24 1100 6 C 1059 -11 1015 -20 967 -20 C 909 -20 870 -5 848 24 C 826 53 815 91 815 139 C 774 101 728 65 676 32 C 624 -1 567 -18 504 -18 C 396 -18 316 14 264 80 C 212 146 186 234 186 344 C 186 527 247 685 369 817 C 491 949 637 1016 805 1016 C 855 1016 897 1009 929 996 C 961 982 990 967 1016 950 C 1022 946 1029 943 1037 942 C 1044 941 1051 943 1059 948 L 1135 1010 C 1139 1014 1145 1017 1153 1019 C 1160 1021 1166 1022 1171 1022 C 1178 1022 1184 1019 1190 1015 C 1196 1010 1198 1003 1196 995 L 995 215 C 993 205 991 195 989 186 C 987 176 987 168 987 160 C 987 143 992 128 1003 115 C 1013 102 1031 96 1057 96 C 1075 96 1094 100 1112 108 C 1130 116 1152 126 1176 139 Z M 813 221 L 967 831 C 949 851 926 871 898 890 C 870 908 835 918 793 918 C 665 918 566 861 494 749 C 422 636 387 503 387 350 C 387 267 404 206 439 167 C 474 128 522 109 582 109 C 628 109 667 119 700 140 C 733 161 771 188 813 221 Z M 704 1288 C 704 1257 692 1230 669 1208 C 646 1185 619 1174 589 1174 C 558 1174 531 1185 509 1208 C 486 1230 475 1257 475 1288 C 475 1318 486 1345 509 1368 C 531 1391 558 1403 589 1403 C 619 1403 646 1391 669 1368 C 692 1345 704 1318 704 1288 Z M 1134 1288 C 1134 1257 1122 1230 1099 1208 C 1076 1185 1049 1174 1019 1174 C 988 1174 961 1185 939 1208 C 916 1230 905 1257 905 1288 C 905 1318 916 1345 939 1368 C 961 1391 988 1403 1019 1403 C 1049 1403 1076 1391 1099 1368 C 1122 1345 1134 1318 1134 1288 Z" unicode="" />
<glyph horiz-adv-x="1120" d="M 1176 139 L 1196 66 C 1172 44 1140 24 1100 6 C 1059 -11 1015 -20 967 -20 C 909 -20 870 -5 848 24 C 826 53 815 91 815 139 C 774 101 728 65 676 32 C 624 -1 567 -18 504 -18 C 396 -18 316 14 264 80 C 212 146 186 234 186 344 C 186 527 247 685 369 817 C 491 949 637 1016 805 1016 C 855 1016 897 1009 929 996 C 961 982 990 967 1016 950 C 1022 946 1029 943 1037 942 C 1044 941 1051 943 1059 948 L 1135 1010 C 1139 1014 1145 1017 1153 1019 C 1160 1021 1166 1022 1171 1022 C 1178 1022 1184 1019 1190 1015 C 1196 1010 1198 1003 1196 995 L 995 215 C 993 205 991 195 989 186 C 987 176 987 168 987 160 C 987 143 992 128 1003 115 C 1013 102 1031 96 1057 96 C 1075 96 1094 100 1112 108 C 1130 116 1152 126 1176 139 Z M 813 221 L 967 831 C 949 851 926 871 898 890 C 870 908 835 918 793 918 C 665 918 566 861 494 749 C 422 636 387 503 387 350 C 387 267 404 206 439 167 C 474 128 522 109 582 109 C 628 109 667 119 700 140 C 733 161 771 188 813 221 Z M 1060 1360 C 1060 1290 1034 1232 982 1184 C 930 1136 869 1112 800 1112 C 736 1112 685 1130 645 1168 C 605 1206 585 1253 585 1311 C 585 1369 608 1424 656 1478 C 703 1532 765 1559 843 1559 C 908 1559 960 1539 1000 1501 C 1040 1463 1060 1416 1060 1360 Z M 941 1378 C 941 1418 932 1448 914 1466 C 896 1484 872 1493 841 1493 C 793 1493 758 1471 736 1429 C 714 1386 704 1341 704 1294 C 704 1258 711 1229 727 1209 C 742 1188 767 1178 802 1178 C 848 1178 883 1198 906 1240 C 929 1281 941 1327 941 1378 Z" unicode="" />
<glyph horiz-adv-x="1587" d="M 1706 788 C 1706 682 1655 600 1554 543 C 1452 485 1317 457 1147 457 L 1049 457 C 1047 445 1047 435 1047 426 C 1047 417 1047 408 1047 399 C 1047 293 1069 216 1113 167 C 1157 118 1216 94 1290 94 C 1341 94 1395 108 1452 137 C 1509 166 1568 210 1628 268 L 1675 213 C 1627 141 1566 84 1494 42 C 1421 0 1335 -20 1237 -20 C 1147 -20 1074 0 1019 39 C 963 79 923 131 897 195 C 860 153 808 107 742 57 C 676 7 596 -18 504 -18 C 395 -18 315 15 263 83 C 211 151 186 238 186 344 C 186 527 247 684 369 816 C 491 948 637 1014 805 1014 C 845 1014 885 1008 923 997 C 961 985 998 966 1034 940 L 1118 1010 C 1122 1014 1128 1017 1136 1019 C 1144 1021 1150 1022 1155 1022 C 1161 1022 1168 1019 1174 1015 C 1180 1010 1182 1003 1180 995 L 1167 940 C 1205 960 1245 978 1289 992 C 1333 1006 1379 1014 1427 1014 C 1511 1014 1579 993 1630 953 C 1680 912 1706 857 1706 788 Z M 813 221 L 967 831 C 949 851 926 871 898 891 C 870 910 835 920 793 920 C 671 920 572 864 498 752 C 424 640 387 506 387 350 C 387 267 404 206 439 167 C 474 128 522 109 582 109 C 628 109 669 120 707 143 C 745 165 780 191 813 221 Z M 1528 784 C 1528 832 1514 867 1488 889 C 1462 911 1431 922 1395 922 C 1318 922 1249 888 1188 822 C 1126 755 1083 661 1059 539 C 1205 540 1320 560 1403 598 C 1486 636 1528 698 1528 784 Z" unicode="" />
<glyph horiz-adv-x="901" d="M 1032 807 C 1032 760 1020 727 997 708 C 974 689 949 680 922 680 C 893 680 868 688 846 704 C 824 720 813 743 813 774 C 813 786 816 802 823 820 C 829 838 837 855 846 870 C 835 881 818 893 794 906 C 770 919 738 926 700 926 C 601 926 525 869 473 755 C 421 641 395 523 395 403 C 395 318 412 245 446 184 C 480 122 539 92 625 92 C 694 92 752 109 800 143 C 847 177 891 215 932 258 L 985 197 C 952 153 905 107 845 60 C 785 12 710 -14 621 -20 L 575 -94 C 632 -96 676 -108 708 -132 C 740 -156 756 -190 756 -236 C 756 -276 738 -316 703 -356 C 667 -396 604 -416 514 -416 C 456 -416 407 -404 365 -382 C 323 -359 288 -335 262 -311 L 309 -254 C 332 -271 359 -289 391 -308 C 422 -326 460 -336 504 -336 C 544 -336 571 -325 583 -304 C 595 -282 602 -262 602 -244 C 602 -225 594 -208 578 -193 C 562 -177 537 -170 502 -170 C 495 -170 488 -170 480 -171 C 472 -172 465 -173 457 -174 L 551 -18 C 447 -10 362 30 296 102 C 230 174 197 271 197 391 C 197 543 246 685 346 816 C 445 946 577 1012 741 1012 C 837 1012 909 988 958 941 C 1007 894 1032 849 1032 807 Z" unicode="" />
<glyph horiz-adv-x="936" d="M 1057 788 C 1057 682 1005 600 902 543 C 799 485 662 457 492 457 L 393 457 C 393 451 392 443 391 431 C 389 419 389 408 389 399 C 389 294 411 217 457 168 C 503 118 563 94 637 94 C 687 94 742 108 800 137 C 858 166 917 210 979 268 L 1024 213 C 976 141 915 84 843 42 C 770 0 684 -20 586 -20 C 460 -20 364 18 298 96 C 232 173 199 269 199 385 C 199 551 254 698 364 824 C 474 950 611 1014 774 1014 C 858 1014 927 993 979 953 C 1031 912 1057 857 1057 788 Z M 877 784 C 877 832 863 867 836 889 C 809 911 777 922 741 922 C 665 922 596 888 533 822 C 469 755 425 661 401 539 C 547 540 663 560 749 598 C 834 636 877 698 877 784 Z M 685 1440 L 929 1149 L 880 1114 L 566 1298 C 536 1315 515 1333 502 1351 C 488 1369 482 1387 482 1407 C 482 1431 490 1453 507 1471 C 524 1489 546 1499 573 1499 C 589 1499 607 1495 625 1488 C 643 1481 663 1465 685 1440 Z" unicode="" />
<glyph horiz-adv-x="936" d="M 1057 788 C 1057 682 1005 600 902 543 C 799 485 662 457 492 457 L 393 457 C 393 451 392 443 391 431 C 389 419 389 408 389 399 C 389 294 411 217 457 168 C 503 118 563 94 637 94 C 687 94 742 108 800 137 C 858 166 917 210 979 268 L 1024 213 C 976 141 915 84 843 42 C 770 0 684 -20 586 -20 C 460 -20 364 18 298 96 C 232 173 199 269 199 385 C 199 551 254 698 364 824 C 474 950 611 1014 774 1014 C 858 1014 927 993 979 953 C 1031 912 1057 857 1057 788 Z M 877 784 C 877 832 863 867 836 889 C 809 911 777 922 741 922 C 665 922 596 888 533 822 C 469 755 425 661 401 539 C 547 540 663 560 749 598 C 834 636 877 698 877 784 Z M 991 1407 C 991 1388 983 1369 967 1351 C 951 1333 928 1315 898 1298 L 573 1114 L 524 1149 L 788 1440 C 811 1465 832 1481 851 1488 C 869 1495 887 1499 905 1499 C 931 1499 952 1489 968 1471 C 983 1453 991 1431 991 1407 Z" unicode="" />
<glyph horiz-adv-x="936" d="M 1057 788 C 1057 682 1005 600 902 543 C 799 485 662 457 492 457 L 393 457 C 393 451 392 443 391 431 C 389 419 389 408 389 399 C 389 294 411 217 457 168 C 503 118 563 94 637 94 C 687 94 742 108 800 137 C 858 166 917 210 979 268 L 1024 213 C 976 141 915 84 843 42 C 770 0 684 -20 586 -20 C 460 -20 364 18 298 96 C 232 173 199 269 199 385 C 199 551 254 698 364 824 C 474 950 611 1014 774 1014 C 858 1014 927 993 979 953 C 1031 912 1057 857 1057 788 Z M 877 784 C 877 832 863 867 836 889 C 809 911 777 922 741 922 C 665 922 596 888 533 822 C 469 755 425 661 401 539 C 547 540 663 560 749 598 C 834 636 877 698 877 784 Z M 882 1470 L 1071 1106 L 989 1106 L 794 1313 L 495 1106 L 411 1106 L 759 1470 L 882 1470 Z" unicode="" />
<glyph horiz-adv-x="936" d="M 1057 788 C 1057 682 1005 600 902 543 C 799 485 662 457 492 457 L 393 457 C 393 451 392 443 391 431 C 389 419 389 408 389 399 C 389 294 411 217 457 168 C 503 118 563 94 637 94 C 687 94 742 108 800 137 C 858 166 917 210 979 268 L 1024 213 C 976 141 915 84 843 42 C 770 0 684 -20 586 -20 C 460 -20 364 18 298 96 C 232 173 199 269 199 385 C 199 551 254 698 364 824 C 474 950 611 1014 774 1014 C 858 1014 927 993 979 953 C 1031 912 1057 857 1057 788 Z M 877 784 C 877 832 863 867 836 889 C 809 911 777 922 741 922 C 665 922 596 888 533 822 C 469 755 425 661 401 539 C 547 540 663 560 749 598 C 834 636 877 698 877 784 Z M 665 1288 C 665 1257 653 1230 630 1208 C 607 1185 580 1174 550 1174 C 519 1174 492 1185 470 1208 C 447 1230 436 1257 436 1288 C 436 1318 447 1345 470 1368 C 492 1391 519 1403 550 1403 C 580 1403 607 1391 630 1368 C 653 1345 665 1318 665 1288 Z M 1095 1288 C 1095 1257 1083 1230 1060 1208 C 1037 1185 1010 1174 980 1174 C 949 1174 922 1185 900 1208 C 877 1230 866 1257 866 1288 C 866 1318 877 1345 900 1368 C 922 1391 949 1403 980 1403 C 1010 1403 1037 1391 1060 1368 C 1083 1345 1095 1318 1095 1288 Z" unicode="" />
<glyph horiz-adv-x="584" d="M 631 139 L 651 66 C 633 50 605 32 565 11 C 525 -9 478 -20 422 -20 C 358 -20 314 -6 290 21 C 266 48 254 81 254 119 C 254 134 255 150 258 168 C 261 185 265 204 270 225 L 395 723 C 397 731 399 741 402 753 C 404 765 406 774 406 780 C 406 799 399 815 386 828 C 373 840 353 848 326 850 C 313 850 301 851 291 853 C 281 855 276 859 276 866 C 276 868 276 872 278 878 C 279 883 280 889 281 895 L 291 932 C 341 932 387 938 431 951 C 474 963 524 981 580 1004 L 651 1004 L 453 219 C 451 209 449 199 447 190 C 445 180 444 172 444 164 C 444 146 449 131 459 117 C 469 103 486 96 512 96 C 530 96 549 100 568 108 C 586 116 607 126 631 139 Z M 504 1440 L 748 1149 L 699 1114 L 385 1298 C 355 1315 334 1333 321 1351 C 307 1369 301 1387 301 1407 C 301 1431 309 1453 326 1471 C 343 1489 365 1499 392 1499 C 408 1499 426 1495 444 1488 C 462 1481 482 1465 504 1440 Z" unicode="" />
<glyph horiz-adv-x="583" d="M 631 139 L 651 66 C 633 50 605 32 565 11 C 525 -9 478 -20 422 -20 C 358 -20 314 -6 290 21 C 266 48 254 81 254 119 C 254 134 255 150 258 168 C 261 185 265 204 270 225 L 395 723 C 397 731 399 741 402 753 C 404 765 406 774 406 780 C 406 799 399 815 386 828 C 373 840 353 848 326 850 C 313 850 301 851 291 853 C 281 855 276 859 276 866 C 276 868 276 872 278 878 C 279 883 280 889 281 895 L 291 932 C 341 932 387 938 431 951 C 474 963 524 981 580 1004 L 651 1004 L 453 219 C 451 209 449 199 447 190 C 445 180 444 172 444 164 C 444 146 449 131 459 117 C 469 103 486 96 512 96 C 530 96 549 100 568 108 C 586 116 607 126 631 139 Z M 826 1407 C 826 1388 818 1369 802 1351 C 786 1333 763 1315 733 1298 L 408 1114 L 359 1149 L 623 1440 C 646 1465 667 1481 686 1488 C 704 1495 722 1499 740 1499 C 766 1499 787 1489 803 1471 C 818 1453 826 1431 826 1407 Z" unicode="" />
<glyph horiz-adv-x="584" d="M 668 1470 L 836 1106 L 754 1106 L 580 1313 L 386 1106 L 302 1106 L 545 1470 L 668 1470 Z M 631 139 L 651 66 C 633 50 605 32 565 11 C 525 -9 478 -20 422 -20 C 358 -20 314 -6 290 21 C 266 48 254 81 254 119 C 254 134 255 150 258 168 C 261 185 265 204 270 225 L 395 723 C 397 731 399 741 402 753 C 404 765 406 774 406 780 C 406 799 399 815 386 828 C 373 840 353 848 326 850 C 313 850 301 851 291 853 C 281 855 276 859 276 866 C 276 868 276 872 278 878 C 279 883 280 889 281 895 L 291 932 C 341 932 387 938 431 951 C 474 963 524 981 580 1004 L 651 1004 L 453 219 C 451 209 449 199 447 190 C 445 180 444 172 444 164 C 444 146 449 131 459 117 C 469 103 486 96 512 96 C 530 96 549 100 568 108 C 586 116 607 126 631 139 Z" unicode="" />
<glyph horiz-adv-x="584" d="M 482 1288 C 482 1257 470 1230 447 1208 C 424 1185 397 1174 367 1174 C 336 1174 309 1185 286 1208 C 263 1230 252 1257 252 1288 C 252 1318 263 1345 286 1368 C 309 1391 336 1403 367 1403 C 397 1403 424 1391 447 1368 C 470 1345 482 1318 482 1288 Z M 883 1288 C 883 1257 871 1230 848 1208 C 825 1185 798 1174 768 1174 C 737 1174 710 1185 688 1208 C 665 1230 654 1257 654 1288 C 654 1318 665 1345 688 1368 C 710 1391 737 1403 768 1403 C 798 1403 825 1391 848 1368 C 871 1345 883 1318 883 1288 Z M 631 139 L 651 66 C 633 50 605 32 565 11 C 525 -9 478 -20 422 -20 C 358 -20 314 -6 290 21 C 266 48 254 81 254 119 C 254 134 255 150 258 168 C 261 185 265 204 270 225 L 395 723 C 397 731 399 741 402 753 C 404 765 406 774 406 780 C 406 799 399 815 386 828 C 373 840 353 848 326 850 C 313 850 301 851 291 853 C 281 855 276 859 276 866 C 276 868 276 872 278 878 C 279 883 280 889 281 895 L 291 932 C 341 932 387 938 431 951 C 474 963 524 981 580 1004 L 651 1004 L 453 219 C 451 209 449 199 447 190 C 445 180 444 172 444 164 C 444 146 449 131 459 117 C 469 103 486 96 512 96 C 530 96 549 100 568 108 C 586 116 607 126 631 139 Z" unicode="" />
<glyph horiz-adv-x="1190" d="M 1251 139 L 1272 66 C 1254 50 1225 32 1185 11 C 1145 -9 1097 -20 1042 -20 C 978 -20 933 -6 908 21 C 882 48 870 81 870 119 C 870 134 871 150 875 168 C 878 185 882 204 887 225 L 1010 680 C 1012 693 1014 706 1016 719 C 1017 731 1018 743 1018 754 C 1018 800 1003 835 974 857 C 944 879 906 891 858 891 C 805 891 754 874 704 841 C 654 807 611 773 575 737 L 393 0 L 207 0 L 387 723 C 389 731 391 741 393 753 C 395 765 397 774 397 780 C 397 799 390 815 378 828 C 365 840 345 848 317 850 C 305 850 293 851 283 853 C 273 855 268 859 268 866 C 268 868 268 872 269 878 C 270 883 271 889 272 895 L 283 932 C 333 932 379 938 421 951 C 463 963 513 981 569 1004 L 625 1004 L 582 840 C 628 875 680 912 738 951 C 796 990 863 1010 940 1010 C 1028 1010 1095 989 1139 947 C 1183 905 1206 848 1206 776 C 1206 759 1204 742 1202 726 C 1200 710 1196 692 1192 674 L 1071 219 C 1069 211 1067 201 1065 191 C 1063 181 1063 172 1063 164 C 1063 146 1068 131 1078 117 C 1088 103 1107 96 1133 96 C 1151 96 1169 100 1188 108 C 1206 116 1227 126 1251 139 Z M 1120 1427 L 1186 1427 C 1173 1361 1145 1304 1102 1257 C 1058 1209 1010 1186 956 1186 C 932 1186 909 1190 886 1200 C 862 1209 837 1222 811 1239 C 787 1253 764 1265 742 1273 C 720 1281 698 1286 678 1286 C 650 1286 625 1275 605 1253 C 585 1231 571 1206 565 1178 L 499 1178 C 510 1244 537 1300 581 1348 C 624 1395 673 1419 727 1419 C 756 1419 782 1414 804 1406 C 826 1397 849 1385 874 1370 C 900 1353 924 1340 945 1332 C 966 1323 986 1319 1005 1319 C 1033 1319 1057 1329 1078 1351 C 1099 1373 1113 1398 1120 1427 Z" unicode="" />
<glyph horiz-adv-x="1075" d="M 1151 582 C 1151 424 1098 284 994 162 C 890 40 756 -20 592 -20 C 468 -20 371 19 301 98 C 231 176 197 280 197 410 C 197 577 251 720 359 840 C 467 960 602 1020 764 1020 C 893 1020 990 977 1054 891 C 1118 805 1151 702 1151 582 Z M 954 623 C 954 729 937 806 904 854 C 870 902 820 926 752 926 C 639 926 551 871 488 762 C 424 652 393 524 393 377 C 393 274 409 197 442 147 C 474 97 528 72 602 72 C 712 72 799 125 861 232 C 923 339 954 469 954 623 Z M 726 1440 L 970 1149 L 921 1114 L 607 1298 C 577 1315 556 1333 543 1351 C 529 1369 523 1387 523 1407 C 523 1431 531 1453 548 1471 C 565 1489 587 1499 614 1499 C 630 1499 648 1495 666 1488 C 684 1481 704 1465 726 1440 Z" unicode="" />
<glyph horiz-adv-x="1075" d="M 1151 582 C 1151 424 1098 284 994 162 C 890 40 756 -20 592 -20 C 468 -20 371 19 301 98 C 231 176 197 280 197 410 C 197 577 251 720 359 840 C 467 960 602 1020 764 1020 C 893 1020 990 977 1054 891 C 1118 805 1151 702 1151 582 Z M 954 623 C 954 729 937 806 904 854 C 870 902 820 926 752 926 C 639 926 551 871 488 762 C 424 652 393 524 393 377 C 393 274 409 197 442 147 C 474 97 528 72 602 72 C 712 72 799 125 861 232 C 923 339 954 469 954 623 Z M 1022 1407 C 1022 1388 1014 1369 998 1351 C 982 1333 959 1315 929 1298 L 604 1114 L 555 1149 L 819 1440 C 842 1465 863 1481 882 1488 C 900 1495 918 1499 936 1499 C 962 1499 983 1489 999 1471 C 1014 1453 1022 1431 1022 1407 Z" unicode="" />
<glyph horiz-adv-x="1075" d="M 1151 582 C 1151 424 1098 284 994 162 C 890 40 756 -20 592 -20 C 468 -20 371 19 301 98 C 231 176 197 280 197 410 C 197 577 251 720 359 840 C 467 960 602 1020 764 1020 C 893 1020 990 977 1054 891 C 1118 805 1151 702 1151 582 Z M 954 623 C 954 729 937 806 904 854 C 870 902 820 926 752 926 C 639 926 551 871 488 762 C 424 652 393 524 393 377 C 393 274 409 197 442 147 C 474 97 528 72 602 72 C 712 72 799 125 861 232 C 923 339 954 469 954 623 Z M 886 1470 L 1075 1106 L 993 1106 L 798 1313 L 499 1106 L 415 1106 L 763 1470 L 886 1470 Z" unicode="" />
<glyph horiz-adv-x="1075" d="M 1151 582 C 1151 424 1098 284 994 162 C 890 40 756 -20 592 -20 C 468 -20 371 19 301 98 C 231 176 197 280 197 410 C 197 577 251 720 359 840 C 467 960 602 1020 764 1020 C 893 1020 990 977 1054 891 C 1118 805 1151 702 1151 582 Z M 954 623 C 954 729 937 806 904 854 C 870 902 820 926 752 926 C 639 926 551 871 488 762 C 424 652 393 524 393 377 C 393 274 409 197 442 147 C 474 97 528 72 602 72 C 712 72 799 125 861 232 C 923 339 954 469 954 623 Z M 1048 1427 L 1114 1427 C 1101 1361 1073 1304 1030 1257 C 986 1209 938 1186 884 1186 C 860 1186 837 1190 814 1200 C 790 1209 765 1222 739 1239 C 715 1253 692 1265 670 1273 C 648 1281 626 1286 606 1286 C 578 1286 553 1275 533 1253 C 513 1231 499 1206 493 1178 L 427 1178 C 438 1244 465 1300 509 1348 C 552 1395 601 1419 655 1419 C 684 1419 710 1414 732 1406 C 754 1397 777 1385 802 1370 C 828 1353 852 1340 873 1332 C 894 1323 914 1319 933 1319 C 961 1319 985 1329 1006 1351 C 1027 1373 1041 1398 1048 1427 Z" unicode="" />
<glyph horiz-adv-x="1075" d="M 1151 582 C 1151 424 1098 284 994 162 C 890 40 756 -20 592 -20 C 468 -20 371 19 301 98 C 231 176 197 280 197 410 C 197 577 251 720 359 840 C 467 960 602 1020 764 1020 C 893 1020 990 977 1054 891 C 1118 805 1151 702 1151 582 Z M 954 623 C 954 729 937 806 904 854 C 870 902 820 926 752 926 C 639 926 551 871 488 762 C 424 652 393 524 393 377 C 393 274 409 197 442 147 C 474 97 528 72 602 72 C 712 72 799 125 861 232 C 923 339 954 469 954 623 Z M 682 1288 C 682 1257 670 1230 647 1208 C 624 1185 597 1174 567 1174 C 536 1174 509 1185 487 1208 C 464 1230 453 1257 453 1288 C 453 1318 464 1345 487 1368 C 509 1391 536 1403 567 1403 C 597 1403 624 1391 647 1368 C 670 1345 682 1318 682 1288 Z M 1112 1288 C 1112 1257 1100 1230 1077 1208 C 1054 1185 1027 1174 997 1174 C 966 1174 939 1185 917 1208 C 894 1230 883 1257 883 1288 C 883 1318 894 1345 917 1368 C 939 1391 966 1403 997 1403 C 1027 1403 1054 1391 1077 1368 C 1100 1345 1112 1318 1112 1288 Z" unicode="" />
<glyph horiz-adv-x="1548" d="M 1077 227 C 1077 191 1064 160 1039 134 C 1013 108 982 96 946 96 C 909 96 878 108 853 134 C 827 160 815 191 815 227 C 815 263 827 294 853 320 C 878 345 909 358 946 358 C 982 358 1013 345 1039 320 C 1064 294 1077 263 1077 227 Z M 1077 973 C 1077 936 1064 905 1039 880 C 1013 854 982 842 946 842 C 909 842 878 854 853 880 C 827 905 815 936 815 973 C 815 1009 827 1040 853 1066 C 878 1091 909 1104 946 1104 C 982 1104 1013 1091 1039 1066 C 1064 1040 1077 1009 1077 973 Z M 1481 664 L 1481 537 L 412 537 L 412 664 L 1481 664 Z" unicode="" />
<glyph horiz-adv-x="1075" d="M 1014 582 C 1014 502 1000 426 973 354 C 945 281 907 217 858 162 C 808 106 749 62 681 29 C 612 -3 537 -20 455 -20 C 413 -20 375 -15 340 -5 C 304 4 272 18 244 37 L 147 -92 L 49 -92 L 182 86 C 142 125 112 172 91 227 C 69 281 59 342 59 410 C 59 490 72 567 100 641 C 127 715 166 780 216 836 C 266 892 325 936 395 970 C 465 1003 542 1020 627 1020 C 667 1020 703 1014 737 1004 C 771 994 802 980 831 963 L 918 1077 L 1014 1077 L 893 913 C 932 871 962 822 983 766 C 1003 710 1014 648 1014 582 Z M 760 866 C 744 884 725 899 701 910 C 677 920 648 926 614 926 C 568 926 528 917 493 900 C 457 883 426 860 400 831 C 373 802 350 769 332 732 C 313 694 298 655 286 615 C 274 574 265 533 260 492 C 254 451 252 413 252 377 C 252 347 253 317 256 287 C 259 257 264 230 272 205 L 760 866 Z M 821 623 C 821 651 819 681 817 711 C 814 741 809 769 801 795 L 313 133 C 329 113 350 98 374 88 C 398 77 429 72 465 72 C 509 72 549 80 585 98 C 620 115 651 138 677 167 C 703 195 726 228 744 266 C 762 304 777 343 789 384 C 800 425 808 466 813 507 C 818 548 821 587 821 623 Z" unicode="" />
<glyph horiz-adv-x="1178" d="M 1233 139 L 1253 66 C 1236 50 1205 32 1159 11 C 1113 -9 1062 -20 1008 -20 C 950 -20 913 -3 896 29 C 878 61 870 97 870 135 C 824 98 771 63 711 30 C 651 -3 580 -20 498 -20 C 410 -20 348 3 310 49 C 272 95 254 155 254 229 C 254 246 256 267 260 291 C 264 315 269 337 274 358 L 371 723 C 373 731 375 741 377 753 C 379 765 381 774 381 780 C 381 799 374 815 361 828 C 348 840 328 848 301 850 C 288 850 277 851 267 853 C 257 855 252 859 252 866 C 252 868 252 872 253 878 C 254 883 255 889 256 895 L 266 932 C 316 932 362 938 405 951 C 447 963 497 981 553 1004 L 627 1004 L 455 328 C 450 314 446 299 444 281 C 441 263 440 250 440 242 C 440 192 452 155 476 131 C 500 107 538 96 588 96 C 638 96 690 109 744 137 C 797 165 842 198 879 236 L 999 719 C 1002 729 1005 740 1007 752 C 1009 764 1010 774 1010 780 C 1010 799 1003 815 990 828 C 977 840 957 848 930 850 C 917 850 906 851 896 853 C 886 855 881 859 881 866 C 881 868 881 872 882 878 C 883 883 884 889 885 895 L 895 932 C 945 932 991 938 1035 951 C 1078 963 1128 981 1184 1004 L 1253 1004 L 1055 215 C 1053 206 1050 197 1048 187 C 1045 177 1044 168 1044 160 C 1044 143 1049 128 1059 115 C 1069 102 1087 96 1114 96 C 1132 96 1151 100 1170 108 C 1188 116 1209 126 1233 139 Z M 798 1440 L 1042 1149 L 993 1114 L 679 1298 C 649 1315 628 1333 615 1351 C 601 1369 595 1387 595 1407 C 595 1431 603 1453 620 1471 C 637 1489 659 1499 686 1499 C 702 1499 720 1495 738 1488 C 756 1481 776 1465 798 1440 Z" unicode="" />
<glyph horiz-adv-x="1178" d="M 1233 139 L 1253 66 C 1236 50 1205 32 1159 11 C 1113 -9 1062 -20 1008 -20 C 950 -20 913 -3 896 29 C 878 61 870 97 870 135 C 824 98 771 63 711 30 C 651 -3 580 -20 498 -20 C 410 -20 348 3 310 49 C 272 95 254 155 254 229 C 254 246 256 267 260 291 C 264 315 269 337 274 358 L 371 723 C 373 731 375 741 377 753 C 379 765 381 774 381 780 C 381 799 374 815 361 828 C 348 840 328 848 301 850 C 288 850 277 851 267 853 C 257 855 252 859 252 866 C 252 868 252 872 253 878 C 254 883 255 889 256 895 L 266 932 C 316 932 362 938 405 951 C 447 963 497 981 553 1004 L 627 1004 L 455 328 C 450 314 446 299 444 281 C 441 263 440 250 440 242 C 440 192 452 155 476 131 C 500 107 538 96 588 96 C 638 96 690 109 744 137 C 797 165 842 198 879 236 L 999 719 C 1002 729 1005 740 1007 752 C 1009 764 1010 774 1010 780 C 1010 799 1003 815 990 828 C 977 840 957 848 930 850 C 917 850 906 851 896 853 C 886 855 881 859 881 866 C 881 868 881 872 882 878 C 883 883 884 889 885 895 L 895 932 C 945 932 991 938 1035 951 C 1078 963 1128 981 1184 1004 L 1253 1004 L 1055 215 C 1053 206 1050 197 1048 187 C 1045 177 1044 168 1044 160 C 1044 143 1049 128 1059 115 C 1069 102 1087 96 1114 96 C 1132 96 1151 100 1170 108 C 1188 116 1209 126 1233 139 Z M 1120 1407 C 1120 1388 1112 1369 1096 1351 C 1080 1333 1057 1315 1027 1298 L 702 1114 L 653 1149 L 917 1440 C 940 1465 961 1481 980 1488 C 998 1495 1016 1499 1034 1499 C 1060 1499 1081 1489 1097 1471 C 1112 1453 1120 1431 1120 1407 Z" unicode="" />
<glyph horiz-adv-x="1178" d="M 1233 139 L 1253 66 C 1236 50 1205 32 1159 11 C 1113 -9 1062 -20 1008 -20 C 950 -20 913 -3 896 29 C 878 61 870 97 870 135 C 824 98 771 63 711 30 C 651 -3 580 -20 498 -20 C 410 -20 348 3 310 49 C 272 95 254 155 254 229 C 254 246 256 267 260 291 C 264 315 269 337 274 358 L 371 723 C 373 731 375 741 377 753 C 379 765 381 774 381 780 C 381 799 374 815 361 828 C 348 840 328 848 301 850 C 288 850 277 851 267 853 C 257 855 252 859 252 866 C 252 868 252 872 253 878 C 254 883 255 889 256 895 L 266 932 C 316 932 362 938 405 951 C 447 963 497 981 553 1004 L 627 1004 L 455 328 C 450 314 446 299 444 281 C 441 263 440 250 440 242 C 440 192 452 155 476 131 C 500 107 538 96 588 96 C 638 96 690 109 744 137 C 797 165 842 198 879 236 L 999 719 C 1002 729 1005 740 1007 752 C 1009 764 1010 774 1010 780 C 1010 799 1003 815 990 828 C 977 840 957 848 930 850 C 917 850 906 851 896 853 C 886 855 881 859 881 866 C 881 868 881 872 882 878 C 883 883 884 889 885 895 L 895 932 C 945 932 991 938 1035 951 C 1078 963 1128 981 1184 1004 L 1253 1004 L 1055 215 C 1053 206 1050 197 1048 187 C 1045 177 1044 168 1044 160 C 1044 143 1049 128 1059 115 C 1069 102 1087 96 1114 96 C 1132 96 1151 100 1170 108 C 1188 116 1209 126 1233 139 Z M 970 1470 L 1159 1106 L 1077 1106 L 882 1313 L 583 1106 L 499 1106 L 847 1470 L 970 1470 Z" unicode="" />
<glyph horiz-adv-x="1178" d="M 1233 139 L 1253 66 C 1236 50 1205 32 1159 11 C 1113 -9 1062 -20 1008 -20 C 950 -20 913 -3 896 29 C 878 61 870 97 870 135 C 824 98 771 63 711 30 C 651 -3 580 -20 498 -20 C 410 -20 348 3 310 49 C 272 95 254 155 254 229 C 254 246 256 267 260 291 C 264 315 269 337 274 358 L 371 723 C 373 731 375 741 377 753 C 379 765 381 774 381 780 C 381 799 374 815 361 828 C 348 840 328 848 301 850 C 288 850 277 851 267 853 C 257 855 252 859 252 866 C 252 868 252 872 253 878 C 254 883 255 889 256 895 L 266 932 C 316 932 362 938 405 951 C 447 963 497 981 553 1004 L 627 1004 L 455 328 C 450 314 446 299 444 281 C 441 263 440 250 440 242 C 440 192 452 155 476 131 C 500 107 538 96 588 96 C 638 96 690 109 744 137 C 797 165 842 198 879 236 L 999 719 C 1002 729 1005 740 1007 752 C 1009 764 1010 774 1010 780 C 1010 799 1003 815 990 828 C 977 840 957 848 930 850 C 917 850 906 851 896 853 C 886 855 881 859 881 866 C 881 868 881 872 882 878 C 883 883 884 889 885 895 L 895 932 C 945 932 991 938 1035 951 C 1078 963 1128 981 1184 1004 L 1253 1004 L 1055 215 C 1053 206 1050 197 1048 187 C 1045 177 1044 168 1044 160 C 1044 143 1049 128 1059 115 C 1069 102 1087 96 1114 96 C 1132 96 1151 100 1170 108 C 1188 116 1209 126 1233 139 Z M 755 1288 C 755 1257 743 1230 720 1208 C 697 1185 670 1174 640 1174 C 609 1174 582 1185 560 1208 C 537 1230 526 1257 526 1288 C 526 1318 537 1345 560 1368 C 582 1391 609 1403 640 1403 C 670 1403 697 1391 720 1368 C 743 1345 755 1318 755 1288 Z M 1185 1288 C 1185 1257 1173 1230 1150 1208 C 1127 1185 1100 1174 1070 1174 C 1039 1174 1012 1185 990 1208 C 967 1230 956 1257 956 1288 C 956 1318 967 1345 990 1368 C 1012 1391 1039 1403 1070 1403 C 1100 1403 1127 1391 1150 1368 C 1173 1345 1185 1318 1185 1288 Z" unicode="" />
<glyph horiz-adv-x="993" d="M 1157 897 C 1157 811 1105 683 1003 513 C 901 343 802 191 707 57 C 638 -38 557 -138 464 -242 C 371 -346 272 -399 168 -399 C 117 -399 77 -385 49 -359 C 20 -333 6 -300 6 -260 C 6 -235 15 -211 34 -187 C 52 -163 79 -152 113 -152 C 148 -152 176 -164 196 -189 C 216 -213 227 -248 227 -293 C 284 -277 346 -235 412 -165 C 478 -95 526 -42 555 -4 C 531 154 504 305 472 449 C 440 593 416 691 399 743 C 388 773 373 805 354 837 C 334 869 308 885 276 885 C 258 885 239 881 220 873 C 201 865 179 854 154 842 L 139 915 C 158 932 188 952 230 975 C 272 998 315 1010 360 1010 C 432 1010 486 982 520 926 C 554 870 584 790 610 684 C 629 601 647 514 663 424 C 679 334 691 256 700 190 C 744 254 791 334 841 431 C 891 528 928 604 954 659 C 966 685 976 709 983 729 C 990 749 997 767 1004 784 C 982 796 963 812 947 830 C 930 848 922 871 922 899 C 922 922 933 946 955 972 C 977 997 1006 1010 1042 1010 C 1078 1010 1106 998 1126 975 C 1146 952 1157 926 1157 897 Z M 1077 1407 C 1077 1388 1069 1369 1053 1351 C 1037 1333 1014 1315 984 1298 L 659 1114 L 610 1149 L 874 1440 C 897 1465 918 1481 937 1488 C 955 1495 973 1499 991 1499 C 1017 1499 1038 1489 1054 1471 C 1069 1453 1077 1431 1077 1407 Z" unicode="" />
<glyph horiz-adv-x="993" d="M 1157 897 C 1157 811 1105 683 1003 513 C 901 343 802 191 707 57 C 638 -38 557 -138 464 -242 C 371 -346 272 -399 168 -399 C 117 -399 77 -385 49 -359 C 20 -333 6 -300 6 -260 C 6 -235 15 -211 34 -187 C 52 -163 79 -152 113 -152 C 148 -152 176 -164 196 -189 C 216 -213 227 -248 227 -293 C 284 -277 346 -235 412 -165 C 478 -95 526 -42 555 -4 C 531 154 504 305 472 449 C 440 593 416 691 399 743 C 388 773 373 805 354 837 C 334 869 308 885 276 885 C 258 885 239 881 220 873 C 201 865 179 854 154 842 L 139 915 C 158 932 188 952 230 975 C 272 998 315 1010 360 1010 C 432 1010 486 982 520 926 C 554 870 584 790 610 684 C 629 601 647 514 663 424 C 679 334 691 256 700 190 C 744 254 791 334 841 431 C 891 528 928 604 954 659 C 966 685 976 709 983 729 C 990 749 997 767 1004 784 C 982 796 963 812 947 830 C 930 848 922 871 922 899 C 922 922 933 946 955 972 C 977 997 1006 1010 1042 1010 C 1078 1010 1106 998 1126 975 C 1146 952 1157 926 1157 897 Z M 657 1288 C 657 1257 645 1230 622 1208 C 599 1185 572 1174 542 1174 C 511 1174 484 1185 462 1208 C 439 1230 428 1257 428 1288 C 428 1318 439 1345 462 1368 C 484 1391 511 1403 542 1403 C 572 1403 599 1391 622 1368 C 645 1345 657 1318 657 1288 Z M 1087 1288 C 1087 1257 1075 1230 1052 1208 C 1029 1185 1002 1174 972 1174 C 941 1174 914 1185 892 1208 C 869 1230 858 1257 858 1288 C 858 1318 869 1345 892 1368 C 914 1391 941 1403 972 1403 C 1002 1403 1029 1391 1052 1368 C 1075 1345 1087 1318 1087 1288 Z" unicode="" />
<glyph horiz-adv-x="584" d="M 631 139 L 651 66 C 633 50 605 32 565 11 C 525 -9 478 -20 422 -20 C 358 -20 314 -6 290 21 C 266 48 254 81 254 119 C 254 134 255 150 258 168 C 261 185 265 204 270 225 L 395 723 C 397 731 399 741 402 753 C 404 765 406 774 406 780 C 406 799 399 815 386 828 C 373 840 353 848 326 850 C 313 850 301 851 291 853 C 281 855 276 859 276 866 C 276 868 276 872 278 878 C 279 883 280 889 281 895 L 291 932 C 341 932 387 938 431 951 C 474 963 524 981 580 1004 L 651 1004 L 453 219 C 451 209 449 199 447 190 C 445 180 444 172 444 164 C 444 146 449 131 459 117 C 469 103 486 96 512 96 C 530 96 549 100 568 108 C 586 116 607 126 631 139 Z" unicode="" />
<glyph horiz-adv-x="1169" d="M 1094 340 L 1008 0 L -51 0 L -39 51 C -37 57 -35 61 -33 65 C -30 68 -26 71 -21 74 C -16 76 -10 79 -2 81 C 5 83 15 87 27 92 C 41 98 53 103 61 107 C 69 111 76 116 81 122 C 85 128 89 135 91 143 C 93 151 96 161 100 174 L 221 659 L 61 573 L 88 688 L 250 772 L 381 1296 C 384 1308 386 1320 388 1330 C 390 1340 391 1349 391 1356 C 391 1367 386 1376 377 1382 C 367 1388 354 1395 338 1403 C 322 1410 311 1415 303 1417 C 295 1419 291 1425 291 1434 C 291 1437 291 1441 293 1447 C 294 1453 295 1458 297 1464 L 305 1495 L 743 1495 L 731 1444 C 729 1438 727 1433 725 1430 C 723 1426 719 1423 715 1421 C 711 1418 705 1415 698 1413 C 691 1411 682 1407 670 1403 C 654 1397 642 1391 634 1387 C 626 1383 619 1378 615 1372 C 610 1366 606 1360 604 1352 C 601 1344 598 1333 596 1321 L 481 858 L 760 1008 L 731 889 L 453 743 L 291 100 L 727 100 C 755 100 780 103 802 110 C 823 117 843 129 862 145 C 881 161 900 181 919 207 C 938 232 959 263 983 299 C 990 313 997 324 1005 330 C 1012 336 1022 340 1034 340 L 1094 340 Z" unicode="" />
<glyph horiz-adv-x="569" d="M 621 928 L 594 821 L 424 731 L 297 219 C 293 209 291 199 289 190 C 287 180 287 172 287 164 C 287 146 291 131 301 117 C 311 103 328 96 354 96 C 372 96 392 99 413 107 C 433 115 455 125 479 139 L 500 66 C 491 58 479 49 464 39 C 449 29 431 20 411 11 C 391 2 368 -5 343 -11 C 318 -17 292 -20 264 -20 C 232 -20 205 -16 183 -9 C 161 -1 144 8 131 21 C 118 33 109 48 104 65 C 98 81 96 99 96 119 C 96 134 97 150 100 168 C 103 185 107 204 113 225 L 223 672 L 59 582 L 86 690 L 250 776 L 387 1321 C 392 1342 391 1359 384 1372 C 377 1385 363 1398 342 1411 C 332 1416 324 1420 318 1423 C 311 1426 306 1429 302 1431 C 298 1433 295 1436 293 1439 C 291 1441 291 1445 293 1450 L 303 1495 L 614 1495 L 451 836 L 621 928 Z" unicode="" />
<glyph horiz-adv-x="2034" d="M 2253 1511 L 2177 1208 L 2130 1208 C 2114 1208 2103 1210 2096 1216 C 2089 1222 2085 1230 2085 1241 C 2076 1304 2065 1345 2053 1365 C 2040 1385 1997 1395 1925 1395 L 1589 1395 L 1444 817 L 1628 817 C 1666 817 1693 823 1709 835 C 1725 847 1747 871 1774 907 C 1782 920 1791 930 1800 936 C 1808 942 1821 946 1839 946 L 1884 946 L 1792 573 L 1741 573 C 1725 573 1715 577 1709 587 C 1703 596 1698 606 1696 616 C 1687 652 1678 677 1669 692 C 1659 707 1639 715 1608 715 L 1419 715 L 1266 100 L 1700 100 C 1757 100 1802 114 1835 142 C 1868 170 1908 221 1954 295 C 1962 308 1969 318 1976 325 C 1982 332 1992 336 2005 336 L 2064 336 L 1980 0 L 928 0 C 711 0 544 55 427 166 C 310 277 252 422 252 600 C 252 733 275 855 321 965 C 367 1075 428 1169 506 1247 C 591 1332 688 1395 796 1435 C 904 1475 1019 1495 1143 1495 L 2056 1495 C 2081 1495 2115 1497 2159 1501 C 2202 1505 2233 1509 2253 1511 Z M 1358 1350 C 1358 1371 1345 1384 1321 1390 C 1296 1396 1267 1399 1235 1399 C 1128 1399 1029 1388 939 1367 C 848 1345 762 1290 682 1202 C 618 1130 568 1040 533 930 C 498 820 481 697 481 559 C 481 405 523 289 608 212 C 692 134 811 96 965 96 C 996 96 1021 104 1040 120 C 1058 136 1071 156 1077 182 L 1341 1241 C 1346 1261 1350 1282 1353 1302 C 1356 1322 1358 1338 1358 1350 Z" unicode="" />
<glyph horiz-adv-x="1651" d="M 1769 788 C 1769 680 1718 597 1617 541 C 1515 485 1379 457 1208 457 L 1110 457 C 1110 451 1109 443 1109 431 C 1108 419 1108 408 1108 399 C 1108 294 1130 217 1175 168 C 1220 118 1280 94 1354 94 C 1404 94 1459 108 1517 137 C 1575 166 1634 210 1696 268 L 1741 213 C 1693 141 1632 84 1558 42 C 1484 0 1399 -20 1303 -20 C 1215 -20 1146 -2 1095 33 C 1044 69 1005 110 979 158 C 930 104 873 61 807 29 C 741 -3 668 -20 590 -20 C 468 -20 372 19 302 97 C 232 175 197 280 197 410 C 197 576 251 720 359 840 C 467 960 602 1020 762 1020 C 838 1020 904 1002 960 967 C 1015 931 1058 884 1090 825 C 1140 880 1199 925 1267 961 C 1335 996 1409 1014 1491 1014 C 1575 1014 1643 993 1693 953 C 1743 912 1769 857 1769 788 Z M 950 623 C 950 729 933 806 900 854 C 867 902 817 926 750 926 C 639 926 552 871 488 761 C 424 651 393 523 393 377 C 393 275 409 198 442 148 C 474 97 527 72 600 72 C 710 72 795 125 857 232 C 919 339 950 469 950 623 Z M 1591 784 C 1591 832 1578 867 1552 889 C 1526 911 1494 922 1458 922 C 1382 922 1312 888 1250 822 C 1188 755 1144 661 1120 539 C 1266 540 1381 560 1465 598 C 1549 636 1591 698 1591 784 Z" unicode="" />
<glyph horiz-adv-x="1128" d="M 1165 1948 L 811 1593 L 688 1593 L 485 1948 L 567 1948 L 768 1751 L 1079 1948 L 1165 1948 Z M 1149 1450 L 1059 1094 L 993 1094 C 981 1095 974 1098 971 1103 C 968 1107 966 1114 965 1122 C 959 1166 950 1207 938 1243 C 925 1279 908 1309 886 1335 C 864 1360 838 1380 807 1394 C 775 1408 738 1415 696 1415 C 657 1415 621 1408 588 1396 C 555 1384 527 1367 503 1345 C 479 1323 460 1296 446 1266 C 432 1236 426 1203 426 1167 C 426 1070 469 996 555 946 C 571 936 589 926 608 916 C 627 906 646 896 665 887 C 684 877 703 868 721 859 C 739 850 755 842 770 836 C 821 810 865 783 901 757 C 937 730 966 702 988 672 C 1010 642 1027 611 1037 577 C 1047 543 1053 507 1053 467 C 1053 408 1040 350 1016 292 C 992 234 956 181 910 135 C 864 89 807 51 740 23 C 672 -5 596 -20 510 -20 C 466 -20 425 -16 387 -9 C 349 -2 314 5 283 15 C 252 24 225 33 203 43 C 180 53 163 60 152 66 C 135 72 122 76 113 76 C 103 76 96 74 90 72 C 84 69 78 63 72 55 C 63 45 54 37 44 33 C 34 29 25 27 18 27 L -41 27 L 59 428 L 125 428 C 135 428 142 425 148 419 C 153 413 158 401 162 383 C 176 327 195 280 220 242 C 244 204 272 173 304 149 C 336 125 370 107 408 96 C 445 85 483 80 522 80 C 572 80 618 87 660 102 C 702 116 738 137 768 165 C 798 192 822 225 839 264 C 855 303 864 347 864 397 C 864 429 858 457 848 482 C 837 506 823 528 805 548 C 787 568 765 585 741 601 C 717 616 691 631 664 645 C 644 655 625 664 608 673 C 590 682 573 691 557 699 C 541 707 525 715 509 723 C 493 731 477 739 461 748 C 417 770 381 794 353 821 C 325 848 302 877 286 908 C 269 938 257 970 250 1004 C 243 1038 240 1072 240 1108 C 240 1161 251 1212 273 1261 C 295 1310 326 1353 367 1391 C 407 1429 456 1459 514 1482 C 572 1504 636 1516 707 1516 C 745 1516 789 1510 839 1500 C 889 1489 939 1468 991 1438 C 1001 1431 1011 1426 1019 1424 C 1027 1422 1037 1424 1049 1432 C 1055 1436 1061 1439 1065 1441 C 1069 1443 1073 1445 1076 1447 C 1079 1448 1082 1449 1085 1449 C 1088 1449 1092 1450 1096 1450 L 1149 1450 Z" unicode="" />
<glyph horiz-adv-x="829" d="M 928 1485 L 580 1120 L 457 1120 L 268 1485 L 350 1485 L 545 1278 L 844 1485 L 928 1485 Z M 786 852 C 786 832 783 815 777 801 C 771 787 763 775 753 765 C 743 755 731 747 718 742 C 705 737 692 735 678 735 C 650 735 627 744 611 762 C 594 780 586 802 586 827 C 586 838 588 849 592 861 C 596 873 602 888 610 907 C 599 911 589 914 581 917 C 573 920 564 923 556 926 C 547 928 537 930 526 932 C 515 933 501 934 485 934 C 461 934 439 929 417 921 C 395 913 375 901 358 887 C 341 872 328 855 318 835 C 308 815 303 793 303 770 C 303 748 307 728 317 710 C 326 692 340 674 359 658 C 378 642 402 625 432 609 C 461 592 496 574 537 555 C 577 536 610 517 637 499 C 663 480 685 460 702 440 C 718 420 730 398 737 375 C 744 352 748 327 748 301 C 748 265 739 228 723 190 C 706 152 681 117 647 86 C 613 55 571 30 520 10 C 468 -10 408 -20 340 -20 C 285 -20 237 -13 195 -1 C 153 11 117 28 89 48 C 61 68 39 90 25 115 C 11 139 4 164 4 188 C 4 203 6 218 11 232 C 16 246 23 259 33 270 C 43 281 55 290 69 297 C 83 303 99 307 117 307 C 151 307 176 297 191 279 C 205 261 213 239 213 215 C 213 197 210 183 206 171 C 202 159 194 146 184 131 C 207 108 235 90 269 78 C 302 65 337 59 373 59 C 403 59 431 64 457 74 C 483 84 505 97 524 113 C 542 129 557 148 568 170 C 578 191 584 213 584 236 C 584 257 579 276 571 293 C 562 310 551 325 537 339 C 523 352 507 364 490 374 C 472 384 455 394 438 403 C 404 421 369 438 334 454 C 299 470 267 489 239 511 C 211 533 188 559 170 590 C 152 621 143 661 143 709 C 143 751 153 791 173 828 C 193 865 220 897 254 925 C 288 952 327 974 372 990 C 416 1006 463 1014 512 1014 C 562 1014 604 1008 639 998 C 674 988 702 975 724 959 C 746 943 761 925 771 906 C 781 887 786 869 786 852 Z" unicode="" />
<glyph horiz-adv-x="1280" d="M 1247 1495 L 1642 1495 L 1632 1454 C 1629 1444 1624 1436 1617 1430 C 1610 1424 1597 1417 1579 1409 C 1546 1392 1522 1379 1506 1369 C 1490 1359 1463 1332 1427 1290 L 909 684 L 788 199 C 785 186 783 174 781 164 C 779 154 778 145 778 139 C 778 128 782 119 792 112 C 802 104 815 98 831 92 C 846 86 858 81 867 78 C 876 75 881 69 881 61 C 881 58 880 53 878 47 C 876 41 875 35 874 31 L 866 0 L 424 0 L 436 51 C 438 63 444 71 452 74 C 460 77 476 83 500 92 C 529 103 547 113 554 122 C 560 131 567 148 573 174 L 698 680 L 451 1317 C 442 1337 432 1354 420 1367 C 408 1380 392 1392 371 1403 C 350 1411 337 1418 332 1422 C 327 1426 326 1433 328 1444 L 340 1495 L 786 1495 L 778 1462 C 775 1451 771 1443 766 1439 C 760 1434 745 1426 721 1415 C 702 1407 688 1399 678 1391 C 668 1383 664 1374 664 1366 C 664 1361 666 1351 670 1335 C 674 1319 677 1306 680 1298 L 868 801 L 1286 1296 C 1297 1309 1308 1324 1320 1340 C 1331 1356 1337 1368 1337 1374 C 1337 1385 1331 1393 1321 1398 C 1311 1403 1298 1409 1284 1415 C 1264 1423 1251 1431 1245 1437 C 1238 1443 1236 1452 1239 1462 L 1247 1495 Z M 946 1744 C 946 1713 934 1686 911 1664 C 888 1641 861 1630 831 1630 C 800 1630 773 1641 751 1664 C 728 1686 717 1713 717 1744 C 717 1774 728 1801 751 1824 C 773 1847 800 1859 831 1859 C 861 1859 888 1847 911 1824 C 934 1801 946 1774 946 1744 Z M 1376 1744 C 1376 1713 1364 1686 1341 1664 C 1318 1641 1291 1630 1261 1630 C 1230 1630 1203 1641 1181 1664 C 1158 1686 1147 1713 1147 1744 C 1147 1774 1158 1801 1181 1824 C 1203 1847 1230 1859 1261 1859 C 1291 1859 1318 1847 1341 1824 C 1364 1801 1376 1774 1376 1744 Z" unicode="" />
<glyph horiz-adv-x="1223" d="M 1243 1948 L 889 1593 L 766 1593 L 563 1948 L 645 1948 L 846 1751 L 1157 1948 L 1243 1948 Z M 1354 1495 L 1348 1468 C 1345 1458 1342 1449 1338 1442 C 1334 1434 1330 1427 1326 1421 C 1321 1415 1316 1409 1311 1403 C 1305 1397 1300 1391 1294 1384 L 223 100 L 737 100 C 765 100 791 103 814 110 C 836 116 858 127 878 143 C 898 158 917 178 937 203 C 956 228 977 259 1001 295 C 1010 309 1018 320 1025 326 C 1031 332 1041 336 1055 336 L 1112 336 L 1024 -16 C 1015 -15 1002 -14 984 -12 C 966 -10 948 -8 928 -6 C 908 -4 888 -3 868 -2 C 848 0 831 0 817 0 L -72 0 L -61 37 C -57 49 -51 61 -43 71 C -35 81 -24 95 -10 113 L 1061 1395 L 584 1395 C 544 1395 508 1383 478 1359 C 448 1335 417 1296 385 1241 C 377 1229 368 1218 356 1209 C 344 1200 329 1196 311 1196 L 270 1196 L 348 1511 C 356 1509 368 1508 384 1506 C 399 1504 415 1503 433 1501 C 451 1499 468 1498 486 1497 C 503 1495 518 1495 530 1495 L 1354 1495 Z" unicode="" />
<glyph horiz-adv-x="907" d="M 944 1485 L 596 1120 L 473 1120 L 285 1485 L 367 1485 L 561 1278 L 860 1485 L 944 1485 Z M 950 961 L 172 166 L 176 160 C 201 163 229 166 259 169 C 289 172 325 174 365 174 C 407 174 443 170 472 162 C 501 154 527 145 550 135 C 572 125 593 116 613 108 C 632 100 654 96 678 96 C 683 96 689 97 697 99 C 704 101 711 105 717 111 C 723 116 729 123 734 132 C 738 141 741 152 741 166 C 741 184 736 198 728 208 C 719 218 710 229 700 239 C 690 249 680 260 672 273 C 663 285 659 303 659 326 C 659 340 661 352 667 363 C 672 374 679 383 688 390 C 696 397 706 402 717 406 C 728 410 740 412 752 412 C 762 412 773 410 786 406 C 798 402 810 395 822 385 C 833 375 842 362 850 345 C 858 328 862 307 862 281 C 862 229 852 184 834 146 C 816 108 792 76 762 52 C 732 27 698 9 660 -2 C 622 -14 585 -20 547 -20 C 522 -20 501 -18 483 -16 C 465 -13 448 -10 433 -6 C 417 -2 403 2 389 7 C 375 12 360 17 344 21 C 328 25 309 28 289 31 C 269 33 245 35 217 35 C 197 35 179 34 161 32 C 143 30 124 27 104 23 C 84 19 63 15 41 11 C 18 6 -7 1 -37 -4 L -66 53 L 711 848 L 707 854 C 671 841 637 832 605 828 C 573 823 544 821 520 821 C 502 821 486 822 470 824 C 454 826 437 829 420 832 C 403 835 385 838 367 840 C 349 842 329 844 307 844 C 285 844 266 840 250 832 C 233 824 218 815 205 804 C 191 792 179 780 169 767 C 159 754 149 742 141 731 L 86 768 C 86 772 88 780 93 793 C 98 806 106 821 116 839 C 126 857 140 875 156 895 C 172 915 192 933 214 949 C 236 965 262 979 292 990 C 321 1000 354 1006 391 1006 C 415 1006 436 1005 452 1003 C 468 1001 483 998 495 996 C 507 993 519 990 529 986 C 539 982 551 979 563 977 C 575 974 590 972 607 970 C 624 968 646 967 672 967 C 710 967 742 968 768 971 C 794 974 816 978 835 983 C 854 987 870 992 884 998 C 897 1004 910 1010 922 1016 L 950 961 Z" unicode="" />
<glyph horiz-adv-x="1108" d="M 1249 1309 C 1249 1278 1239 1252 1219 1230 C 1199 1208 1171 1198 1135 1198 C 1114 1198 1090 1208 1062 1228 C 1034 1248 1020 1283 1020 1333 C 999 1327 970 1309 932 1279 C 894 1249 859 1173 829 1049 L 766 791 L 1018 791 L 993 698 L 745 698 L 520 -281 L 332 -281 L 559 698 L 369 698 L 393 791 L 563 791 C 572 795 579 802 584 811 C 589 819 593 830 596 844 C 630 998 688 1133 770 1249 C 852 1365 959 1423 1092 1423 C 1150 1423 1191 1410 1214 1384 C 1237 1358 1249 1333 1249 1309 Z" unicode="" />
<glyph horiz-adv-x="475" d="M 713 1518 L 754 1466 C 709 1437 665 1404 622 1368 C 578 1331 544 1283 520 1225 C 566 1217 598 1204 616 1184 C 634 1164 643 1142 643 1118 C 643 1075 629 1041 603 1015 C 576 989 544 977 508 977 C 467 977 437 988 417 1010 C 397 1032 387 1061 387 1098 C 387 1163 413 1237 465 1321 C 517 1404 600 1470 713 1518 Z" unicode="" />
<glyph horiz-adv-x="475" d="M 684 1395 C 684 1329 657 1255 605 1172 C 553 1088 470 1023 358 975 L 317 1026 C 362 1054 406 1087 449 1124 C 492 1160 526 1208 551 1268 C 504 1274 472 1287 454 1307 C 436 1327 428 1349 428 1374 C 428 1416 441 1451 468 1477 C 494 1503 526 1516 563 1516 C 603 1516 634 1504 654 1482 C 674 1460 684 1431 684 1395 Z" unicode="" />
<glyph horiz-adv-x="819" d="M 731 1470 L 920 1106 L 838 1106 L 643 1313 L 344 1106 L 260 1106 L 608 1470 L 731 1470 Z" unicode="" />
<glyph horiz-adv-x="819" d="M 870 1485 L 954 1485 L 606 1120 L 483 1120 L 295 1485 L 377 1485 L 571 1278 L 870 1485 Z" unicode="" />
<glyph horiz-adv-x="819" d="M 301 1362 L 948 1362 L 924 1243 L 276 1243 L 301 1362 Z" unicode="" />
<glyph horiz-adv-x="819" d="M 883 1481 L 956 1481 C 922 1387 878 1305 824 1235 C 769 1165 686 1130 575 1130 C 483 1130 421 1155 389 1205 C 356 1255 340 1321 340 1405 C 340 1417 340 1430 340 1443 C 340 1455 341 1468 342 1481 L 416 1481 C 422 1415 437 1363 459 1325 C 481 1287 530 1268 606 1268 C 684 1268 742 1287 778 1327 C 814 1366 849 1417 883 1481 Z" unicode="" />
<glyph horiz-adv-x="819" d="M 733 1309 C 733 1276 721 1247 697 1223 C 673 1198 644 1186 610 1186 C 576 1186 548 1198 524 1223 C 500 1247 489 1276 489 1309 C 489 1343 501 1372 525 1398 C 549 1423 578 1436 612 1436 C 646 1436 675 1423 698 1398 C 721 1372 733 1343 733 1309 Z" unicode="" />
<glyph horiz-adv-x="819" d="M 895 1360 C 895 1290 869 1232 817 1184 C 765 1136 704 1112 635 1112 C 571 1112 520 1130 480 1168 C 440 1206 420 1253 420 1311 C 420 1369 443 1424 491 1478 C 538 1532 600 1559 678 1559 C 743 1559 795 1539 835 1501 C 875 1463 895 1416 895 1360 Z M 776 1378 C 776 1418 767 1448 749 1466 C 731 1484 707 1493 676 1493 C 628 1493 593 1471 571 1429 C 549 1386 539 1341 539 1294 C 539 1258 546 1229 562 1209 C 577 1188 602 1178 637 1178 C 683 1178 718 1198 741 1240 C 764 1281 776 1327 776 1378 Z" unicode="" />
<glyph horiz-adv-x="819" d="M 854 1427 L 920 1427 C 907 1361 879 1304 836 1257 C 792 1209 744 1186 690 1186 C 666 1186 643 1190 620 1200 C 596 1209 571 1222 545 1239 C 521 1253 498 1265 476 1273 C 454 1281 432 1286 412 1286 C 384 1286 359 1275 339 1253 C 319 1231 305 1206 299 1178 L 233 1178 C 244 1244 271 1300 315 1348 C 358 1395 407 1419 461 1419 C 490 1419 516 1414 538 1406 C 560 1397 583 1385 608 1370 C 634 1353 658 1340 679 1332 C 700 1323 720 1319 739 1319 C 767 1319 791 1329 812 1351 C 833 1373 847 1398 854 1427 Z" unicode="" />
<glyph horiz-adv-x="1358" d="M 709 983 L 1501 983 L 1470 842 L 1239 842 L 1081 186 C 1080 181 1079 176 1078 172 C 1077 167 1077 162 1077 158 C 1077 132 1085 114 1103 105 C 1120 96 1139 92 1161 92 C 1176 92 1195 96 1217 104 C 1239 112 1258 118 1274 123 L 1294 49 C 1262 30 1226 14 1185 0 C 1144 -13 1105 -20 1067 -20 C 1021 -20 979 -11 942 7 C 905 25 887 61 887 115 C 887 125 887 136 889 148 C 891 160 893 171 895 182 L 1055 842 L 791 842 C 763 740 710 570 633 334 C 556 98 447 -20 307 -20 C 274 -20 245 -10 219 8 C 193 26 180 53 180 88 C 180 120 192 148 217 171 C 241 193 270 205 303 205 C 323 205 342 199 360 188 C 377 176 390 161 399 143 C 456 194 512 304 567 473 C 622 642 660 765 682 842 L 649 842 C 583 842 532 827 498 799 C 463 770 431 728 403 674 L 317 676 C 345 758 395 830 466 891 C 536 952 617 983 709 983 Z" unicode="" />
<glyph horiz-adv-x="649" d="M 264 598 L 713 598 L 672 442 L 223 442 L 264 598 Z" unicode="" />
<glyph horiz-adv-x="649" d="M 264 598 L 713 598 L 672 442 L 223 442 L 264 598 Z" unicode="" />
<glyph horiz-adv-x="1126" d="M 254 584 L 1188 584 L 1155 457 L 221 457 L 254 584 Z" unicode="" />
<glyph horiz-adv-x="2232" d="M 254 584 L 2294 584 L 2261 457 L 221 457 L 254 584 Z" unicode="" />
<glyph horiz-adv-x="2048" d="M 45 88 L 2105 88 L 2083 0 L 23 0 L 45 88 Z" unicode="" />
<glyph horiz-adv-x="475" d="M 713 1518 L 754 1466 C 709 1437 665 1404 622 1368 C 578 1331 544 1283 520 1225 C 566 1217 598 1204 616 1184 C 634 1164 643 1142 643 1118 C 643 1075 629 1041 603 1015 C 576 989 544 977 508 977 C 467 977 437 988 417 1010 C 397 1032 387 1061 387 1098 C 387 1163 413 1237 465 1321 C 517 1404 600 1470 713 1518 Z" unicode="" />
<glyph horiz-adv-x="475" d="M 684 1395 C 684 1329 657 1255 605 1172 C 553 1088 470 1023 358 975 L 317 1026 C 362 1054 406 1087 449 1124 C 492 1160 526 1208 551 1268 C 504 1274 472 1287 454 1307 C 436 1327 428 1349 428 1374 C 428 1416 441 1451 468 1477 C 494 1503 526 1516 563 1516 C 603 1516 634 1504 654 1482 C 674 1460 684 1431 684 1395 Z" unicode="" />
<glyph horiz-adv-x="475" d="M 453 125 C 453 59 426 -14 374 -98 C 321 -181 239 -247 127 -295 L 86 -244 C 130 -215 174 -182 217 -146 C 260 -109 294 -61 319 -2 C 272 4 240 17 223 37 C 205 57 197 79 197 104 C 197 146 210 181 237 207 C 263 233 295 246 332 246 C 372 246 403 235 423 213 C 443 191 453 161 453 125 Z" unicode="" />
<glyph horiz-adv-x="836" d="M 713 1518 L 754 1466 C 709 1437 665 1404 622 1368 C 578 1331 544 1283 520 1225 C 566 1217 598 1204 616 1184 C 634 1164 643 1142 643 1118 C 643 1075 629 1041 603 1015 C 576 989 544 977 508 977 C 467 977 437 988 417 1010 C 397 1032 387 1061 387 1098 C 387 1163 413 1237 465 1321 C 517 1404 600 1470 713 1518 Z M 1073 1518 L 1114 1466 C 1069 1437 1025 1404 982 1368 C 939 1331 905 1283 881 1225 C 927 1217 959 1204 977 1184 C 995 1164 1004 1142 1004 1118 C 1004 1075 990 1041 963 1015 C 936 989 904 977 868 977 C 827 977 797 988 777 1010 C 757 1032 748 1061 748 1098 C 748 1163 774 1237 826 1321 C 878 1404 961 1470 1073 1518 Z" unicode="" />
<glyph horiz-adv-x="836" d="M 684 1395 C 684 1329 657 1255 605 1172 C 553 1088 470 1023 358 975 L 317 1026 C 362 1054 406 1087 449 1124 C 492 1160 526 1208 551 1268 C 504 1274 472 1287 454 1307 C 436 1327 428 1349 428 1374 C 428 1416 441 1451 468 1477 C 494 1503 526 1516 563 1516 C 603 1516 634 1504 654 1482 C 674 1460 684 1431 684 1395 Z M 1044 1395 C 1044 1329 1017 1255 965 1172 C 913 1088 831 1023 719 975 L 678 1026 C 722 1054 766 1087 809 1124 C 852 1160 886 1208 911 1268 C 864 1274 832 1287 814 1307 C 796 1327 788 1349 788 1374 C 788 1416 801 1451 828 1477 C 855 1503 887 1516 924 1516 C 964 1516 994 1504 1014 1482 C 1034 1460 1044 1431 1044 1395 Z" unicode="" />
<glyph horiz-adv-x="836" d="M 453 125 C 453 59 426 -14 374 -98 C 321 -181 239 -247 127 -295 L 86 -244 C 130 -215 174 -182 217 -146 C 260 -109 294 -61 319 -2 C 272 4 240 17 223 37 C 205 57 197 79 197 104 C 197 146 210 181 237 207 C 263 233 295 246 332 246 C 372 246 403 235 423 213 C 443 191 453 161 453 125 Z M 813 125 C 813 59 786 -14 734 -98 C 682 -181 599 -247 487 -295 L 446 -244 C 491 -215 535 -182 578 -146 C 621 -109 655 -61 680 -2 C 633 4 601 17 583 37 C 565 57 557 79 557 104 C 557 146 570 181 597 207 C 623 233 655 246 692 246 C 732 246 763 235 783 213 C 803 191 813 161 813 125 Z" unicode="" />
<glyph horiz-adv-x="977" d="M 1163 1004 C 1163 979 1154 958 1138 940 C 1122 922 1101 913 1077 913 C 1073 913 1069 913 1065 913 C 1061 913 1057 914 1053 915 C 997 929 961 947 947 968 C 932 988 881 1010 795 1034 C 788 1012 782 985 778 951 C 774 917 772 882 772 844 C 772 821 773 798 775 775 C 777 752 781 730 786 709 C 735 640 687 527 642 369 C 596 211 550 37 504 -152 L 430 -133 C 470 32 506 188 538 334 C 570 480 586 597 586 684 C 586 698 585 712 585 724 C 585 736 584 748 582 760 C 620 802 651 853 677 912 C 703 970 720 1017 729 1051 C 701 1057 679 1060 661 1061 C 643 1062 626 1063 612 1063 C 590 1063 572 1061 557 1059 C 542 1056 528 1055 516 1055 C 481 1055 449 1061 420 1073 C 391 1085 377 1110 377 1147 C 377 1171 385 1192 401 1209 C 417 1226 438 1235 463 1235 C 467 1235 470 1234 474 1234 C 477 1234 481 1233 485 1233 C 541 1218 576 1200 590 1180 C 604 1160 656 1138 745 1116 C 752 1148 757 1176 760 1200 C 762 1224 764 1244 764 1262 C 764 1280 763 1295 762 1309 C 760 1322 760 1336 760 1352 C 760 1402 767 1440 782 1464 C 797 1488 822 1501 856 1501 C 879 1501 899 1493 915 1477 C 931 1461 940 1441 940 1417 C 940 1413 939 1409 939 1405 C 939 1401 938 1397 938 1393 C 923 1335 904 1295 881 1271 C 857 1247 834 1190 811 1100 C 837 1093 860 1089 879 1087 C 898 1085 915 1085 930 1085 C 952 1085 971 1086 987 1089 C 1002 1092 1019 1094 1038 1094 C 1078 1094 1108 1085 1130 1069 C 1152 1052 1163 1030 1163 1004 Z" unicode="" />
<glyph horiz-adv-x="977" d="M 1163 1004 C 1163 979 1154 958 1138 940 C 1122 922 1101 913 1077 913 C 1073 913 1069 913 1065 913 C 1061 913 1057 914 1053 915 C 997 929 961 947 947 968 C 932 988 881 1010 795 1034 C 788 1012 782 985 777 951 C 772 917 768 882 766 844 C 764 821 764 788 767 745 C 769 702 773 670 778 649 C 739 606 703 545 671 467 C 638 389 617 333 608 299 C 636 293 658 289 676 288 C 694 287 710 287 725 287 C 746 287 764 288 780 291 C 795 293 809 295 821 295 C 855 295 887 288 917 276 C 946 263 961 239 961 203 C 961 178 952 157 936 140 C 919 123 898 115 874 115 C 870 115 866 115 863 115 C 859 115 856 116 852 117 C 796 131 760 148 746 168 C 732 188 680 210 592 233 C 585 200 580 172 577 149 C 574 125 573 105 573 88 C 573 69 573 53 575 40 C 577 27 578 13 578 -2 C 578 -52 570 -90 555 -115 C 539 -139 515 -152 481 -152 C 457 -152 437 -144 421 -128 C 405 -112 397 -92 397 -68 C 397 -63 397 -59 397 -55 C 397 -51 398 -47 399 -43 C 413 14 432 54 456 78 C 479 102 502 159 526 250 C 499 256 476 259 457 261 C 438 263 422 264 408 264 C 385 264 366 262 350 260 C 334 257 317 256 299 256 C 259 256 228 264 206 281 C 184 297 174 319 174 346 C 174 370 182 391 198 409 C 214 427 235 436 260 436 C 264 436 268 435 272 435 C 276 435 280 434 285 434 C 341 420 376 402 391 381 C 405 360 456 338 543 315 C 549 336 554 363 560 396 C 565 429 569 466 571 506 C 571 528 571 561 570 605 C 568 648 565 680 561 702 C 599 744 635 805 667 883 C 699 961 720 1017 729 1051 C 701 1057 679 1060 661 1061 C 643 1062 626 1063 612 1063 C 590 1063 572 1061 557 1059 C 542 1056 528 1055 516 1055 C 481 1055 449 1061 420 1073 C 391 1085 377 1110 377 1147 C 377 1171 385 1192 401 1209 C 417 1226 438 1235 463 1235 C 467 1235 470 1234 474 1234 C 477 1234 481 1233 485 1233 C 541 1218 576 1200 590 1180 C 604 1160 656 1138 745 1116 C 752 1148 757 1176 760 1200 C 762 1224 764 1244 764 1262 C 764 1280 763 1295 762 1309 C 760 1322 760 1336 760 1352 C 760 1402 767 1440 782 1464 C 797 1488 822 1501 856 1501 C 879 1501 899 1493 915 1477 C 931 1461 940 1441 940 1417 C 940 1413 939 1409 939 1405 C 939 1401 938 1397 938 1393 C 923 1335 904 1295 881 1271 C 857 1247 834 1190 811 1100 C 837 1093 860 1089 879 1087 C 898 1085 915 1085 930 1085 C 952 1085 971 1086 987 1089 C 1002 1092 1019 1094 1038 1094 C 1078 1094 1108 1085 1130 1069 C 1152 1052 1163 1030 1163 1004 Z" unicode="" />
<glyph horiz-adv-x="866" d="M 620 1114 C 728 1114 820 1074 898 996 C 976 918 1015 825 1015 717 C 1015 609 976 515 898 437 C 820 358 728 319 620 319 C 511 319 418 358 340 437 C 262 515 223 609 223 717 C 223 825 262 918 340 996 C 418 1074 511 1114 620 1114 Z" unicode="" />
<glyph horiz-adv-x="1948" d="M 518 111 C 518 77 506 48 482 24 C 458 0 429 -12 395 -12 C 361 -12 333 0 310 24 C 287 48 276 77 276 111 C 276 143 287 171 310 195 C 333 219 361 231 395 231 C 429 231 458 219 482 195 C 506 171 518 143 518 111 Z M 1167 111 C 1167 77 1155 48 1131 24 C 1107 0 1078 -12 1044 -12 C 1010 -12 982 0 960 24 C 937 48 926 77 926 111 C 926 143 937 171 960 195 C 982 219 1010 231 1044 231 C 1078 231 1107 219 1131 195 C 1155 171 1167 143 1167 111 Z M 1817 111 C 1817 77 1805 48 1781 24 C 1757 0 1728 -12 1694 -12 C 1660 -12 1631 0 1609 24 C 1586 48 1575 77 1575 111 C 1575 143 1586 171 1609 195 C 1631 219 1660 231 1694 231 C 1728 231 1757 219 1781 195 C 1805 171 1817 143 1817 111 Z" unicode="" />
<glyph horiz-adv-x="2521" d="M 1569 1438 L 1642 1384 L 608 -76 L 494 12 L 1384 1171 L 1380 1176 C 1356 1159 1309 1130 1238 1089 C 1167 1047 1075 1022 963 1012 C 944 906 897 815 821 741 C 745 666 662 629 571 629 C 495 629 430 658 375 718 C 320 778 293 855 293 950 C 293 1063 331 1170 409 1270 C 487 1370 583 1421 698 1421 C 777 1421 842 1389 892 1325 C 942 1261 968 1185 969 1096 C 1129 1112 1257 1159 1355 1236 C 1453 1313 1524 1380 1569 1438 Z M 801 1014 C 729 1024 668 1049 616 1088 C 564 1126 537 1177 535 1241 C 502 1188 479 1126 467 1054 C 455 982 449 919 449 866 C 449 816 460 778 484 752 C 507 726 537 713 573 713 C 634 713 684 745 722 809 C 760 873 786 941 801 1014 Z M 815 1157 C 815 1216 804 1261 783 1291 C 762 1321 730 1337 688 1337 C 662 1337 641 1330 623 1317 C 605 1304 596 1285 596 1260 C 596 1229 612 1196 645 1161 C 677 1126 733 1104 813 1096 C 813 1106 814 1117 814 1128 C 814 1138 815 1148 815 1157 Z M 1866 446 C 1866 322 1825 213 1743 121 C 1661 28 1570 -18 1468 -18 C 1392 -18 1327 11 1272 71 C 1217 131 1190 208 1190 303 C 1190 415 1228 522 1306 623 C 1384 723 1480 774 1595 774 C 1674 774 1739 741 1790 677 C 1840 613 1866 536 1866 446 Z M 1710 510 C 1710 569 1699 614 1679 644 C 1659 674 1627 690 1585 690 C 1494 690 1431 630 1397 510 C 1363 390 1346 293 1346 219 C 1346 169 1357 131 1381 105 C 1404 79 1434 66 1470 66 C 1553 66 1614 120 1652 229 C 1690 337 1710 431 1710 510 Z M 2634 446 C 2634 322 2593 213 2511 121 C 2429 28 2338 -18 2236 -18 C 2160 -18 2095 11 2040 71 C 1985 131 1958 208 1958 303 C 1958 415 1996 522 2074 623 C 2152 723 2248 774 2363 774 C 2442 774 2507 741 2558 677 C 2608 613 2634 536 2634 446 Z M 2478 510 C 2478 569 2467 614 2447 644 C 2427 674 2395 690 2353 690 C 2262 690 2199 630 2165 510 C 2131 390 2114 293 2114 219 C 2114 169 2125 131 2149 105 C 2172 79 2202 66 2238 66 C 2321 66 2382 120 2420 229 C 2458 337 2478 431 2478 510 Z" unicode="" />
<glyph horiz-adv-x="625" d="M 649 897 L 754 897 L 424 514 L 582 143 L 477 143 L 258 455 C 253 461 249 469 245 477 C 241 485 240 494 240 504 C 240 520 245 535 255 549 C 265 563 275 575 287 586 L 649 897 Z" unicode="" />
<glyph horiz-adv-x="625" d="M 659 537 C 659 520 654 505 644 491 C 634 477 623 465 612 455 L 250 143 L 145 143 L 477 526 L 317 897 L 422 897 L 641 586 C 645 578 649 570 653 562 C 657 554 659 545 659 537 Z" unicode="" />
<glyph horiz-adv-x="350" d="M 909 1501 L 1022 1501 L -154 -20 L -266 -20 L 909 1501 Z" unicode="" />
<glyph horiz-adv-x="1182" d="M 1356 1223 C 1356 1183 1344 1149 1320 1122 C 1296 1094 1267 1081 1231 1081 C 1197 1081 1171 1090 1154 1108 C 1136 1126 1128 1150 1128 1178 C 1128 1197 1131 1217 1137 1239 C 1143 1260 1148 1277 1151 1290 C 1145 1294 1129 1301 1105 1311 C 1081 1320 1052 1325 1020 1325 C 937 1325 859 1284 787 1204 C 715 1123 656 1012 612 870 L 1061 870 L 1044 778 L 590 778 C 584 756 578 731 573 703 C 567 674 563 646 559 618 L 950 618 L 932 526 L 549 526 C 547 511 545 496 544 481 C 543 466 543 451 543 436 C 543 343 565 264 609 200 C 653 136 724 104 821 104 C 883 104 943 120 1002 152 C 1060 184 1117 235 1171 307 L 1221 242 C 1173 157 1107 92 1021 48 C 935 4 853 -18 774 -18 C 636 -18 531 24 459 109 C 386 193 350 307 350 449 C 350 461 350 473 351 487 C 352 500 353 513 354 526 L 211 526 L 229 618 L 365 618 C 369 646 373 673 379 700 C 384 727 390 753 397 778 L 260 778 L 276 870 L 424 870 C 486 1033 570 1165 678 1267 C 786 1369 908 1420 1044 1421 C 1137 1421 1212 1401 1270 1363 C 1327 1324 1356 1277 1356 1223 Z" unicode="" />
<glyph horiz-adv-x="985" d="M 1194 1495 L 1208 1063 L 1133 1063 L 1118 1374 L 1006 1063 L 961 1063 L 850 1374 L 834 1063 L 760 1063 L 782 1495 L 895 1495 L 985 1221 L 1077 1495 L 1194 1495 Z M 713 1495 L 713 1423 L 596 1423 L 596 1063 L 514 1063 L 514 1425 L 399 1425 L 399 1495 L 713 1495 Z" unicode="" />
<glyph horiz-adv-x="1548" d="M 1481 664 L 1481 537 L 412 537 L 412 664 L 1481 664 Z" unicode="" />
<glyph horiz-adv-x="954" d="M 1087 1495 L 1227 1495 L 68 -389 L -70 -389 L 1087 1495 Z" unicode="" />
<glyph horiz-adv-x="541" d="M 565 604 C 565 568 552 537 527 511 C 501 485 470 473 434 473 C 398 473 367 485 343 511 C 319 537 307 568 307 604 C 307 638 319 668 343 694 C 367 720 398 733 434 733 C 470 733 501 720 527 694 C 552 668 565 638 565 604 Z" unicode="" />
<glyph horiz-adv-x="1597" d="M 1624 1497 L 1749 1497 L 1010 -45 C 1007 -51 1003 -54 999 -55 C 995 -56 991 -57 987 -57 L 930 -57 C 925 -57 920 -56 916 -54 C 912 -52 909 -49 909 -45 L 633 799 L 401 692 L 367 778 L 719 944 C 725 946 730 949 736 951 C 742 953 747 954 752 954 L 762 954 C 766 954 771 953 775 951 C 779 949 781 946 782 942 L 1014 217 L 1624 1497 Z" unicode="" />
<glyph horiz-adv-x="1767" d="M 1765 612 C 1765 504 1730 408 1662 326 C 1593 244 1503 203 1391 203 C 1306 203 1234 231 1176 288 C 1117 344 1068 409 1030 483 C 1002 411 957 347 894 289 C 830 231 761 203 686 203 C 576 203 492 245 435 329 C 378 413 350 506 350 608 C 350 714 384 810 452 894 C 520 978 611 1020 723 1020 C 806 1020 877 991 937 934 C 996 877 1045 811 1083 737 C 1111 809 1157 875 1221 933 C 1285 991 1354 1020 1430 1020 C 1540 1020 1623 977 1680 891 C 1736 805 1765 712 1765 612 Z M 985 565 C 954 630 915 696 869 763 C 822 830 757 864 674 864 C 604 864 550 838 510 788 C 470 737 451 679 451 614 C 451 544 472 483 516 432 C 560 381 618 356 690 356 C 759 356 818 375 867 415 C 916 455 955 505 985 565 Z M 1663 608 C 1663 678 1641 739 1597 790 C 1553 840 1495 866 1423 866 C 1353 866 1294 846 1246 806 C 1197 766 1158 717 1128 657 C 1158 591 1197 525 1244 458 C 1291 391 1356 358 1440 358 C 1509 358 1563 383 1603 434 C 1643 484 1663 542 1663 608 Z" unicode="" />
</font>
</defs>
</svg>
