<?xml version="1.0" encoding="utf-8" ?><svg version="1.1" xmlns = 'http://www.w3.org/2000/svg'><defs><font id='web' horiz-adv-x="1000">
<font-face font-family="web" descent="-483" cap-height="1434" units-per-em="2048" bbox="-340,-489,2640,2058" x-height="1024" ascent="1565" />
<missing-glyph horiz-adv-x="1024" d="" /><glyph horiz-adv-x="396" d="" unicode=" " />
<glyph horiz-adv-x="616" d="M 322 1475 L 715 1475 L 614 1012 L 416 530 L 199 530 L 221 1012 L 322 1475 Z M 109 399 L 467 399 L 381 0 L 23 0 L 109 399 Z" unicode="!" />
<glyph horiz-adv-x="803" d="M 287 1475 L 545 1475 L 416 866 L 158 866 L 287 1475 Z M 670 1475 L 930 1475 L 801 866 L 541 866 L 670 1475 Z" unicode="&#x22;" />
<glyph horiz-adv-x="1542" d="M 901 631 L 952 852 L 705 852 L 653 631 L 901 631 Z M 1174 1096 L 1432 1096 L 1378 852 L 1112 852 L 1061 631 L 1335 631 L 1282 387 L 999 387 L 905 -2 L 745 -2 L 840 387 L 592 387 L 498 -2 L 338 -2 L 432 387 L 174 387 L 227 631 L 494 631 L 545 852 L 270 852 L 324 1096 L 606 1096 L 698 1475 L 860 1475 L 766 1096 L 1014 1096 L 1106 1475 L 1268 1475 L 1174 1096 Z" unicode="#" />
<glyph horiz-adv-x="1292" d="M 664 948 L 721 1217 C 685 1213 656 1207 633 1197 C 609 1187 591 1175 577 1161 C 563 1147 553 1133 547 1117 C 541 1101 539 1085 539 1071 C 539 1045 547 1023 565 1004 C 583 985 616 966 664 948 Z M 647 258 C 716 262 766 279 798 309 C 830 339 846 374 846 414 C 846 439 836 462 817 483 C 797 503 761 522 707 539 L 647 258 Z M 1083 1460 L 1364 1460 L 1266 999 L 956 999 C 958 1010 960 1022 962 1036 C 964 1049 965 1061 965 1071 C 965 1101 956 1129 939 1154 C 922 1179 892 1197 850 1208 L 791 920 C 937 883 1045 831 1117 764 C 1189 696 1225 614 1225 516 C 1225 434 1209 361 1179 295 C 1148 229 1106 174 1052 128 C 998 82 934 47 860 23 C 785 -1 704 -14 618 -14 L 592 -14 L 559 -168 L 424 -168 L 461 4 C 425 13 392 26 362 42 C 332 58 306 78 283 102 L 264 6 L -16 6 L 86 500 L 395 500 C 392 484 390 468 389 451 C 387 434 387 424 387 420 C 387 381 396 348 416 322 C 436 296 469 277 516 266 L 578 563 C 442 599 339 649 269 715 C 199 781 164 864 164 965 C 164 1036 178 1103 207 1167 C 235 1231 275 1286 326 1334 C 376 1381 437 1418 507 1446 C 577 1473 653 1487 735 1487 C 742 1487 749 1486 755 1486 C 761 1486 768 1485 774 1485 L 801 1606 L 936 1606 L 905 1464 C 937 1454 966 1441 992 1426 C 1017 1410 1042 1393 1067 1374 L 1083 1460 Z" unicode="$" />
<glyph horiz-adv-x="1860" d="M 600 1499 C 656 1499 705 1491 749 1475 C 792 1459 828 1436 858 1407 C 887 1378 909 1343 925 1301 C 940 1259 948 1213 948 1163 C 948 1098 937 1036 915 977 C 893 918 862 866 822 822 C 782 777 733 741 677 715 C 621 689 559 676 492 676 C 436 676 386 683 343 699 C 299 715 263 737 233 766 C 203 795 181 830 166 872 C 150 913 143 959 143 1010 C 143 1076 154 1139 176 1199 C 198 1259 229 1311 269 1355 C 309 1399 357 1434 414 1460 C 470 1486 532 1499 600 1499 Z M 1427 1499 L 1653 1499 L 498 -25 L 272 -25 L 1427 1499 Z M 659 1085 C 665 1111 669 1136 671 1160 C 673 1183 674 1204 674 1223 C 674 1249 667 1271 655 1289 C 643 1306 621 1315 590 1315 C 545 1315 512 1296 491 1260 C 469 1223 450 1168 434 1094 C 427 1064 423 1037 421 1014 C 419 991 418 970 418 952 C 418 923 424 900 437 884 C 449 868 471 860 502 860 C 542 860 574 876 598 910 C 622 943 642 1001 659 1085 Z M 1434 799 C 1490 799 1539 791 1583 775 C 1626 759 1662 736 1692 707 C 1721 678 1743 643 1759 601 C 1774 559 1782 513 1782 463 C 1782 398 1770 336 1748 277 C 1726 217 1695 165 1655 121 C 1615 77 1567 41 1511 15 C 1454 -11 1392 -25 1325 -25 C 1269 -25 1220 -17 1176 -1 C 1132 14 1096 36 1067 65 C 1037 94 1015 129 1000 171 C 984 212 977 258 977 309 C 977 375 988 439 1010 499 C 1032 559 1063 611 1103 655 C 1143 699 1191 734 1247 760 C 1303 786 1366 799 1434 799 Z M 1493 385 C 1497 411 1501 436 1503 459 C 1505 482 1507 503 1507 522 C 1507 548 1501 570 1489 588 C 1477 605 1455 614 1423 614 C 1378 614 1345 595 1324 559 C 1302 523 1284 467 1268 393 C 1261 363 1256 337 1254 314 C 1252 291 1251 270 1251 252 C 1251 223 1257 200 1270 184 C 1282 168 1304 160 1335 160 C 1375 160 1407 176 1430 209 C 1453 241 1474 300 1493 385 Z" unicode="%" />
<glyph horiz-adv-x="1460" d="M 764 961 C 818 993 857 1028 881 1066 C 905 1103 918 1139 918 1174 C 918 1200 908 1222 890 1239 C 871 1255 847 1264 817 1264 C 779 1264 748 1251 724 1227 C 700 1202 688 1173 688 1141 C 688 1115 694 1088 708 1058 C 722 1028 740 996 764 961 Z M 535 279 C 560 279 586 284 612 296 C 638 307 661 321 682 338 L 512 606 C 477 582 449 555 427 524 C 405 492 395 456 395 414 C 395 378 408 346 435 319 C 461 292 495 279 535 279 Z M 1110 864 L 1477 864 L 1411 551 L 1300 551 C 1277 517 1252 484 1224 454 C 1196 423 1168 396 1139 373 L 1178 313 L 1364 313 L 1296 0 L 899 0 L 813 121 C 755 71 691 33 623 7 C 555 -18 480 -31 399 -31 C 337 -31 282 -22 232 -4 C 182 13 139 37 105 68 C 70 98 43 135 24 178 C 5 220 -4 267 -4 317 C -4 369 4 420 21 469 C 38 517 63 562 97 603 C 130 644 172 681 222 715 C 272 749 329 777 395 801 L 362 846 C 335 882 314 919 298 956 C 282 993 274 1032 274 1073 C 274 1133 286 1189 311 1242 C 336 1295 371 1341 417 1380 C 463 1419 518 1450 583 1473 C 647 1495 719 1507 799 1507 C 859 1507 915 1500 965 1486 C 1015 1472 1058 1451 1094 1425 C 1130 1399 1158 1366 1178 1328 C 1198 1290 1208 1247 1208 1200 C 1208 1158 1201 1116 1188 1076 C 1175 1036 1155 998 1128 964 C 1101 929 1066 897 1024 867 C 981 837 930 812 872 791 L 1016 555 L 1063 627 L 1110 864 Z" unicode="&#x26;" />
<glyph horiz-adv-x="418" d="M 287 1475 L 545 1475 L 416 866 L 158 866 L 287 1475 Z" unicode="'" />
<glyph horiz-adv-x="694" d="M 553 1507 L 850 1507 C 706 1306 599 1107 529 910 C 459 713 424 503 424 279 C 424 187 431 94 445 1 C 459 -91 481 -185 510 -281 L 236 -281 C 190 -177 157 -70 135 38 C 113 147 102 255 102 362 C 102 557 140 749 216 937 C 292 1125 405 1315 553 1507 Z" unicode="(" />
<glyph horiz-adv-x="694" d="M 500 1507 C 544 1403 578 1296 600 1187 C 622 1078 633 970 633 864 C 633 669 594 477 518 289 C 442 100 330 -89 182 -281 L -115 -281 C 29 -80 136 118 206 316 C 276 513 311 724 311 948 C 311 1040 303 1132 289 1225 C 275 1318 253 1412 225 1507 L 500 1507 Z" unicode=")" />
<glyph horiz-adv-x="1024" d="M 997 1280 L 1065 1063 L 772 989 L 965 745 L 778 614 L 616 874 L 451 614 L 264 745 L 455 989 L 164 1063 L 231 1280 L 512 1176 L 498 1475 L 731 1475 L 715 1176 L 997 1280 Z" unicode="*" />
<glyph horiz-adv-x="1706" d="M 1479 743 L 1479 479 L 1016 479 L 1016 2 L 743 2 L 743 479 L 281 479 L 281 743 L 743 743 L 743 1221 L 1016 1221 L 1016 743 L 1479 743 Z" unicode="+" />
<glyph horiz-adv-x="532" d="M 131 403 L 498 403 L 84 -262 L -154 -262 L 131 403 Z" unicode="," />
<glyph horiz-adv-x="709" d="M 121 670 L 662 670 L 592 346 L 51 346 L 121 670 Z" unicode="-" />
<glyph horiz-adv-x="532" d="M 68 399 L 426 399 L 342 0 L -16 0 L 68 399 Z" unicode="." />
<glyph horiz-adv-x="870" d="M 821 1507 L 1075 1507 L 70 -94 L -182 -94 L 821 1507 Z" unicode="/" />
<glyph horiz-adv-x="1325" d="M 799 1505 C 971 1505 1101 1456 1191 1360 C 1280 1264 1325 1127 1325 950 C 1325 830 1310 712 1281 594 C 1251 476 1207 370 1147 278 C 1087 186 1010 111 917 53 C 824 -4 714 -33 588 -33 C 414 -33 282 15 194 111 C 105 207 61 344 61 522 C 61 642 75 762 104 880 C 132 998 176 1103 236 1195 C 296 1287 372 1361 466 1419 C 559 1476 670 1505 799 1505 Z M 858 727 C 872 789 884 849 892 908 C 900 966 905 1017 905 1059 C 905 1109 896 1150 879 1181 C 862 1211 832 1227 788 1227 C 754 1227 724 1216 699 1194 C 673 1172 651 1140 631 1099 C 611 1058 593 1008 577 949 C 561 889 544 822 528 748 C 515 684 504 624 495 568 C 485 511 481 460 481 414 C 481 362 488 321 504 291 C 520 261 550 246 594 246 C 629 246 659 257 685 279 C 710 301 732 333 752 374 C 772 415 790 465 807 525 C 823 585 840 652 858 727 Z" unicode="0" />
<glyph horiz-adv-x="805" d="M 248 1475 L 799 1475 L 547 285 L 694 285 L 633 0 L -55 0 L 6 285 L 145 285 L 338 1190 L 188 1190 L 248 1475 Z" unicode="1" />
<glyph horiz-adv-x="1174" d="M 731 1507 C 805 1507 872 1497 934 1479 C 996 1461 1049 1435 1093 1402 C 1137 1368 1171 1328 1196 1280 C 1220 1232 1233 1180 1233 1122 C 1233 1016 1200 917 1135 827 C 1069 736 969 654 834 580 C 792 556 753 534 715 514 C 677 493 641 472 606 451 C 570 430 535 408 501 385 C 466 361 431 335 397 307 L 770 307 L 815 514 L 1135 514 L 1026 0 L -84 0 C -83 7 -82 15 -80 25 C -78 35 -77 44 -75 54 C -73 63 -72 71 -71 79 C -69 86 -68 91 -68 94 C -58 147 -42 196 -22 241 C -2 286 24 330 56 372 C 88 414 127 456 173 499 C 219 541 272 587 332 637 C 404 696 468 745 524 784 C 580 823 624 855 655 879 C 703 915 737 950 757 986 C 777 1021 788 1060 788 1102 C 788 1138 778 1167 758 1191 C 738 1215 706 1227 662 1227 C 632 1227 607 1219 585 1205 C 563 1191 545 1172 530 1148 C 514 1124 502 1095 492 1062 C 482 1029 473 994 467 958 L 461 924 L 92 924 C 108 1030 137 1121 177 1196 C 217 1270 265 1330 321 1376 C 377 1422 440 1455 510 1476 C 580 1496 654 1507 731 1507 Z" unicode="2" />
<glyph horiz-adv-x="1219" d="M 735 1507 C 813 1507 883 1498 945 1480 C 1007 1462 1058 1438 1100 1407 C 1142 1375 1174 1338 1196 1294 C 1218 1250 1229 1201 1229 1149 C 1229 1095 1219 1046 1199 1001 C 1179 955 1153 916 1120 882 C 1087 848 1049 820 1006 798 C 962 776 917 760 870 752 C 961 734 1032 698 1082 644 C 1132 589 1157 525 1157 451 C 1157 382 1141 318 1111 259 C 1081 199 1038 148 983 105 C 927 62 860 28 781 4 C 701 -20 614 -33 518 -33 C 427 -33 348 -23 282 -4 C 215 15 160 42 117 77 C 74 112 42 155 21 206 C 0 257 -10 314 -10 377 C -10 394 -9 411 -8 428 C -6 444 -4 461 -2 479 L 369 479 C 367 470 365 458 363 443 C 361 427 360 416 360 410 C 360 360 374 320 402 292 C 430 264 468 250 514 250 C 549 250 579 256 605 270 C 631 284 652 301 668 323 C 684 345 697 369 705 397 C 713 425 717 453 717 481 C 717 515 706 545 686 571 C 665 597 625 610 565 610 L 471 610 L 532 901 L 582 901 C 665 901 725 918 763 954 C 800 990 819 1038 819 1100 C 819 1138 807 1168 784 1192 C 761 1215 728 1227 686 1227 C 652 1227 624 1220 602 1207 C 579 1193 560 1176 546 1156 C 531 1136 520 1113 512 1088 C 504 1063 498 1039 496 1016 L 492 985 L 125 985 C 139 1072 164 1148 200 1214 C 236 1280 281 1334 334 1378 C 387 1421 448 1453 516 1475 C 584 1496 657 1507 735 1507 Z" unicode="3" />
<glyph horiz-adv-x="1198" d="M 1018 700 L 1204 700 L 1145 422 L 958 422 L 930 285 L 1077 285 L 1016 0 L 330 0 L 391 285 L 532 285 L 561 422 L -18 422 L 45 721 L 819 1475 L 1182 1475 L 1018 700 Z M 621 700 L 696 1065 L 324 700 L 621 700 Z" unicode="4" />
<glyph horiz-adv-x="1212" d="M 332 1475 L 1276 1475 L 1192 1079 L 877 1079 L 897 1176 L 580 1176 L 506 911 C 544 937 584 956 626 970 C 668 984 712 991 758 991 C 820 991 876 981 926 963 C 976 945 1019 919 1054 885 C 1088 851 1115 811 1134 763 C 1153 715 1163 661 1163 602 C 1163 516 1148 435 1119 358 C 1090 281 1048 214 993 156 C 937 98 868 52 786 18 C 704 -15 610 -33 504 -33 C 412 -33 334 -22 269 -1 C 203 19 150 48 109 85 C 68 122 38 166 19 217 C 0 268 -10 323 -10 383 C -10 398 -9 414 -7 430 C -5 446 -4 462 -2 479 L 369 479 C 365 466 363 451 361 434 C 359 417 358 404 358 395 C 358 349 371 313 398 287 C 424 261 461 248 508 248 C 544 248 576 257 602 275 C 628 293 650 316 667 345 C 684 374 697 407 705 443 C 713 479 717 516 717 553 C 717 597 705 635 683 666 C 661 697 623 713 569 713 C 533 713 499 702 466 682 C 432 662 400 634 369 600 L 94 698 L 332 1475 Z" unicode="5" />
<glyph horiz-adv-x="1272" d="M 827 1507 C 917 1507 992 1496 1052 1475 C 1112 1453 1160 1425 1196 1391 C 1231 1356 1256 1316 1270 1271 C 1284 1226 1292 1180 1292 1133 C 1292 1124 1291 1114 1291 1102 C 1291 1090 1290 1078 1290 1067 L 920 1067 L 920 1092 C 920 1126 909 1156 889 1184 C 869 1211 835 1225 788 1225 C 751 1225 719 1217 693 1201 C 667 1185 644 1162 626 1130 C 607 1098 591 1057 577 1008 C 563 959 551 902 539 836 C 583 878 633 910 687 932 C 741 954 796 965 852 965 C 910 965 963 955 1011 937 C 1058 919 1098 893 1131 861 C 1164 828 1190 788 1208 742 C 1226 696 1235 645 1235 590 C 1235 498 1218 414 1186 338 C 1153 261 1108 195 1051 141 C 993 86 925 43 845 13 C 765 -17 678 -33 584 -33 C 502 -33 429 -21 365 2 C 300 26 246 60 202 106 C 158 152 124 209 101 277 C 77 345 66 422 66 510 C 66 640 82 766 115 887 C 148 1008 196 1114 260 1206 C 324 1297 403 1370 499 1425 C 594 1479 703 1507 827 1507 Z M 608 248 C 635 248 660 255 684 270 C 707 284 727 304 744 329 C 760 354 773 383 783 417 C 792 450 797 485 797 522 C 797 568 784 605 760 633 C 736 660 704 674 664 674 C 630 674 600 665 576 648 C 552 631 532 609 517 583 C 501 556 490 526 483 493 C 476 460 473 428 473 397 C 473 353 484 317 508 289 C 532 261 565 248 608 248 Z" unicode="6" />
<glyph horiz-adv-x="1135" d="M 225 1475 L 1298 1475 L 1239 1196 L 678 285 L 831 285 L 770 0 L 47 0 L 109 285 L 248 285 L 795 1171 L 477 1171 L 420 911 L 104 911 L 225 1475 Z" unicode="7" />
<glyph horiz-adv-x="1294" d="M 776 1511 C 856 1511 928 1502 993 1486 C 1057 1470 1112 1446 1157 1416 C 1201 1385 1236 1347 1260 1303 C 1284 1258 1296 1208 1296 1153 C 1296 1105 1288 1059 1273 1016 C 1258 973 1236 934 1207 900 C 1177 865 1140 835 1095 810 C 1050 784 998 765 938 752 C 984 742 1026 726 1063 706 C 1099 686 1130 662 1155 635 C 1179 607 1198 577 1211 543 C 1224 509 1231 474 1231 438 C 1231 372 1215 310 1185 252 C 1154 194 1111 143 1055 101 C 999 58 932 24 853 0 C 774 -24 687 -37 592 -37 C 500 -37 418 -28 346 -10 C 274 8 213 33 163 66 C 113 99 75 139 49 187 C 23 234 10 287 10 346 C 10 397 19 446 38 493 C 57 540 84 582 120 619 C 156 655 200 686 252 712 C 304 737 362 754 428 764 C 343 789 280 828 239 882 C 198 935 178 993 178 1057 C 178 1117 191 1175 219 1230 C 247 1285 286 1333 338 1375 C 389 1416 452 1449 526 1474 C 600 1498 684 1511 776 1511 Z M 709 901 C 737 901 762 907 784 919 C 806 931 824 946 839 965 C 853 984 865 1006 873 1031 C 881 1055 885 1080 885 1106 C 885 1123 882 1140 877 1156 C 871 1172 864 1187 854 1199 C 844 1211 831 1221 815 1229 C 799 1237 780 1241 760 1241 C 730 1241 705 1234 683 1221 C 661 1207 644 1190 630 1170 C 616 1149 605 1126 598 1101 C 591 1076 588 1052 588 1030 C 588 996 598 966 618 940 C 638 914 668 901 709 901 Z M 590 233 C 623 233 652 240 678 255 C 703 269 724 288 741 310 C 757 332 770 358 778 386 C 786 414 791 441 791 467 C 791 507 780 541 759 570 C 737 599 703 614 655 614 C 621 614 592 607 567 593 C 541 579 520 562 504 540 C 488 518 475 493 467 465 C 459 437 455 408 455 379 C 455 340 466 306 489 277 C 511 247 545 233 590 233 Z" unicode="8" />
<glyph horiz-adv-x="1272" d="M 674 799 C 708 799 737 807 761 824 C 785 841 805 863 821 889 C 836 915 847 945 855 978 C 862 1011 866 1043 866 1075 C 866 1119 854 1155 830 1183 C 806 1211 773 1225 731 1225 C 703 1225 678 1217 655 1203 C 632 1188 612 1168 596 1143 C 579 1118 566 1089 557 1055 C 547 1021 543 986 543 950 C 543 903 554 866 578 839 C 601 812 633 799 674 799 Z M 756 1505 C 837 1505 910 1493 974 1469 C 1038 1445 1093 1411 1137 1366 C 1181 1320 1215 1264 1239 1196 C 1262 1128 1274 1050 1274 963 C 1274 831 1257 705 1225 584 C 1192 463 1144 357 1080 266 C 1016 174 937 101 842 47 C 746 -7 636 -35 512 -35 C 421 -35 345 -24 285 -3 C 225 18 177 46 142 81 C 107 115 82 155 68 201 C 54 246 47 292 47 340 C 47 348 47 358 47 370 C 47 382 48 394 49 406 L 420 406 L 420 381 C 420 346 430 315 450 288 C 470 261 504 248 551 248 C 587 248 619 255 645 271 C 671 287 694 311 713 343 C 732 375 748 415 762 464 C 776 513 789 571 801 637 C 756 594 706 562 652 540 C 598 518 543 508 487 508 C 428 508 375 517 328 535 C 280 553 240 578 207 611 C 174 644 149 684 131 730 C 113 776 104 827 104 883 C 104 974 120 1058 153 1134 C 185 1210 230 1276 288 1331 C 346 1385 415 1428 495 1459 C 575 1489 662 1505 756 1505 Z" unicode="9" />
<glyph horiz-adv-x="614" d="M 236 995 L 594 995 L 510 596 L 152 596 L 236 995 Z M 109 399 L 467 399 L 383 0 L 25 0 L 109 399 Z" unicode=":" />
<glyph horiz-adv-x="614" d="M 236 995 L 594 995 L 508 596 L 150 596 L 236 995 Z M 129 403 L 496 403 L 82 -262 L -156 -262 L 129 403 Z" unicode=";" />
<glyph horiz-adv-x="1706" d="M 1468 276 L 1468 -16 L 291 475 L 291 748 L 1468 1239 L 1468 946 L 647 610 L 1468 276 Z" unicode="&#x3C;" />
<glyph horiz-adv-x="1706" d="M 1464 979 L 1464 715 L 295 715 L 295 979 L 1464 979 Z M 1464 508 L 1464 244 L 295 244 L 295 508 L 1464 508 Z" unicode="=" />
<glyph horiz-adv-x="1706" d="M 1468 748 L 1468 475 L 291 -16 L 291 276 L 1112 610 L 291 946 L 291 1239 L 1468 748 Z" unicode="&#x3E;" />
<glyph horiz-adv-x="999" d="M 666 1507 C 729 1507 786 1498 837 1482 C 887 1465 930 1441 965 1411 C 1000 1380 1027 1342 1046 1297 C 1065 1252 1075 1201 1075 1145 C 1075 1073 1064 1007 1042 947 C 1020 887 989 834 949 790 C 909 746 860 710 803 682 C 746 654 683 635 614 627 L 592 510 L 328 510 L 393 811 C 490 828 563 866 613 924 C 663 982 688 1058 688 1151 C 688 1185 681 1210 667 1227 C 653 1244 632 1253 606 1253 C 561 1253 527 1232 505 1191 C 482 1150 465 1092 455 1016 L 158 1016 C 166 1106 184 1182 213 1245 C 241 1307 278 1358 323 1397 C 367 1435 419 1463 478 1481 C 536 1498 599 1507 666 1507 Z M 250 399 L 608 399 L 522 0 L 164 0 L 250 399 Z" unicode="?" />
<glyph horiz-adv-x="1892" d="M 1057 1376 C 1177 1376 1283 1360 1374 1328 C 1465 1296 1540 1252 1600 1196 C 1660 1140 1705 1073 1735 997 C 1765 920 1780 838 1780 750 C 1780 650 1766 558 1739 475 C 1712 392 1674 321 1626 263 C 1577 204 1519 158 1451 126 C 1383 94 1308 78 1227 78 L 932 78 L 952 174 C 919 140 885 112 851 92 C 816 71 775 61 727 61 C 645 61 583 88 541 143 C 498 197 477 271 477 365 C 477 437 486 508 505 576 C 523 644 550 703 585 755 C 619 806 661 847 711 879 C 761 910 817 926 879 926 C 916 926 954 918 992 902 C 1030 886 1060 861 1081 829 L 1100 909 L 1489 909 L 1444 696 L 1366 696 L 1264 207 L 1284 207 C 1334 207 1382 218 1426 242 C 1470 265 1509 299 1541 343 C 1573 387 1599 441 1618 505 C 1637 569 1647 641 1647 721 C 1647 798 1634 869 1609 935 C 1584 1000 1546 1056 1496 1102 C 1446 1148 1382 1185 1306 1211 C 1230 1237 1141 1251 1040 1251 C 929 1251 825 1229 727 1185 C 629 1141 543 1081 471 1005 C 399 928 341 836 299 730 C 257 624 236 509 236 385 C 236 278 253 187 289 111 C 325 35 371 -25 427 -72 C 483 -119 545 -154 615 -176 C 685 -198 753 -209 821 -209 C 854 -209 891 -207 932 -204 C 973 -201 1016 -196 1060 -188 C 1104 -180 1148 -170 1194 -157 C 1239 -143 1283 -126 1325 -106 L 1305 -250 C 1255 -269 1187 -288 1103 -307 C 1019 -326 921 -336 811 -336 C 721 -336 634 -321 548 -293 C 462 -265 385 -222 319 -165 C 253 -107 199 -35 159 53 C 118 141 98 244 98 362 C 98 507 122 642 172 766 C 222 890 289 998 375 1088 C 461 1178 562 1248 680 1299 C 797 1350 923 1376 1057 1376 Z M 1020 487 C 1026 513 1029 537 1031 559 C 1033 581 1034 600 1034 616 C 1034 646 1028 669 1017 685 C 1006 701 987 709 961 709 C 925 709 894 692 870 658 C 846 624 826 572 811 502 C 805 475 800 451 798 430 C 796 409 795 390 795 373 C 795 342 801 319 813 303 C 825 287 843 279 868 279 C 906 279 937 296 960 330 C 983 364 1003 417 1020 487 Z" unicode="@" />
<glyph horiz-adv-x="1479" d="M 600 719 L 840 719 L 805 1143 L 600 719 Z M 1292 313 L 1405 313 L 1337 0 L 688 0 L 756 313 L 870 313 L 858 446 L 465 446 L 401 313 L 526 313 L 459 0 L -100 0 L -33 313 L 70 313 L 522 1161 L 387 1161 L 455 1475 L 1389 1475 L 1321 1161 L 1204 1161 L 1292 313 Z" unicode="A" />
<glyph horiz-adv-x="1409" d="M 967 1475 C 1038 1475 1101 1467 1156 1452 C 1211 1437 1257 1416 1295 1389 C 1332 1362 1360 1329 1380 1291 C 1399 1253 1409 1210 1409 1163 C 1409 1066 1379 982 1319 912 C 1259 841 1175 791 1065 762 C 1152 750 1222 719 1274 667 C 1326 615 1352 551 1352 475 C 1352 399 1337 331 1309 272 C 1280 212 1239 163 1185 123 C 1131 83 1066 52 988 31 C 910 10 822 0 725 0 L -57 0 L 10 313 L 127 313 L 307 1161 L 178 1161 L 246 1475 L 967 1475 Z M 752 889 C 821 889 873 904 909 935 C 945 965 963 1005 963 1055 C 963 1089 950 1115 924 1135 C 898 1155 857 1165 803 1165 L 723 1165 L 664 889 L 752 889 Z M 674 309 C 743 309 796 325 832 359 C 868 393 887 438 887 496 C 887 533 873 563 845 586 C 817 609 775 621 721 621 L 606 621 L 541 309 L 674 309 Z" unicode="B" />
<glyph horiz-adv-x="1292" d="M 1133 1475 L 1427 1475 L 1307 911 L 989 911 C 991 925 994 943 997 965 C 999 987 1001 1007 1001 1026 C 1001 1084 985 1126 954 1153 C 923 1180 884 1194 836 1194 C 799 1194 765 1183 735 1161 C 704 1139 677 1107 653 1067 C 629 1027 609 978 592 921 C 574 864 561 801 551 733 C 545 689 540 647 537 608 C 533 569 532 531 532 494 C 532 418 545 363 571 327 C 597 291 637 274 690 274 C 744 274 789 294 827 335 C 865 376 894 443 915 537 L 920 555 L 1272 555 C 1252 461 1224 377 1187 303 C 1150 229 1105 168 1051 118 C 997 68 935 30 864 4 C 793 -22 714 -35 627 -35 C 537 -35 457 -20 386 8 C 314 36 254 77 205 129 C 156 181 118 245 92 320 C 66 394 53 477 53 569 C 53 695 72 816 110 930 C 148 1044 199 1144 263 1229 C 327 1314 403 1382 489 1432 C 575 1482 666 1507 762 1507 C 807 1507 848 1503 884 1495 C 920 1487 953 1477 981 1465 C 1009 1453 1034 1439 1056 1424 C 1077 1409 1096 1394 1112 1380 L 1133 1475 Z" unicode="C" />
<glyph horiz-adv-x="1464" d="M 883 1475 C 977 1475 1061 1462 1135 1438 C 1209 1414 1271 1378 1321 1332 C 1371 1285 1409 1227 1435 1158 C 1461 1088 1475 1009 1475 920 C 1475 798 1457 682 1422 570 C 1386 458 1334 361 1265 277 C 1195 193 1109 125 1006 75 C 902 25 783 0 649 0 L -57 0 L 10 313 L 127 313 L 307 1161 L 178 1161 L 246 1475 L 883 1475 Z M 637 309 C 708 309 767 329 814 371 C 861 413 898 464 926 526 C 954 588 973 654 984 726 C 995 798 1001 864 1001 924 C 1001 1007 983 1068 949 1107 C 914 1145 856 1165 776 1165 L 723 1165 L 543 309 L 637 309 Z" unicode="D" />
<glyph horiz-adv-x="1331" d="M 246 1475 L 1430 1475 L 1309 911 L 993 911 L 1047 1165 L 721 1165 L 666 909 L 926 909 L 858 588 L 598 588 L 539 309 L 866 309 L 928 588 L 1243 588 L 1118 0 L -57 0 L 10 313 L 127 313 L 307 1161 L 178 1161 L 246 1475 Z" unicode="E" />
<glyph horiz-adv-x="1268" d="M 246 1475 L 1417 1475 L 1296 911 L 981 911 L 1034 1165 L 721 1165 L 668 909 L 930 909 L 860 588 L 598 588 L 541 313 L 676 313 L 608 0 L -57 0 L 10 313 L 127 313 L 307 1161 L 178 1161 L 246 1475 Z" unicode="F" />
<glyph horiz-adv-x="1405" d="M 1147 1475 L 1440 1475 L 1319 911 L 997 911 C 1000 926 1003 946 1007 971 C 1010 996 1012 1018 1012 1038 C 1012 1089 997 1128 967 1154 C 937 1180 898 1194 850 1194 C 808 1194 771 1181 739 1157 C 707 1132 680 1096 656 1050 C 632 1003 610 946 592 878 C 574 810 557 733 541 647 C 535 620 531 589 528 555 C 525 521 524 492 524 469 C 524 405 536 357 562 323 C 588 289 628 272 684 272 C 734 272 774 289 806 324 C 837 358 860 405 874 465 L 739 465 L 805 766 L 1423 766 L 1358 463 L 1249 463 L 1153 0 L 862 0 L 883 102 C 833 57 782 23 731 1 C 679 -21 623 -33 561 -33 C 482 -33 411 -19 348 8 C 285 35 232 74 188 124 C 144 174 111 234 88 305 C 64 376 53 455 53 543 C 53 663 71 782 108 898 C 144 1014 195 1116 259 1206 C 323 1296 401 1368 491 1424 C 581 1479 678 1507 784 1507 C 861 1507 927 1495 982 1473 C 1037 1451 1085 1420 1126 1380 L 1147 1475 Z" unicode="G" />
<glyph horiz-adv-x="1583" d="M 1042 1475 L 1702 1475 L 1634 1161 L 1518 1161 L 1337 313 L 1466 313 L 1399 0 L 739 0 L 807 313 L 924 313 L 983 592 L 600 592 L 541 313 L 670 313 L 602 0 L -57 0 L 10 313 L 127 313 L 307 1161 L 178 1161 L 246 1475 L 905 1475 L 838 1161 L 721 1161 L 666 903 L 1049 903 L 1104 1161 L 975 1161 L 1042 1475 Z" unicode="H" />
<glyph horiz-adv-x="801" d="M 250 1475 L 915 1475 L 848 1161 L 729 1161 L 549 313 L 680 313 L 612 0 L -53 0 L 14 313 L 133 313 L 313 1161 L 182 1161 L 250 1475 Z" unicode="I" />
<glyph horiz-adv-x="868" d="M 336 1475 L 1010 1475 L 942 1161 L 825 1161 L 666 381 C 650 307 626 244 592 192 C 558 139 517 96 470 63 C 423 30 370 6 311 -9 C 252 -25 190 -33 125 -33 C 87 -33 47 -29 7 -22 C -32 -15 -66 -8 -94 0 L -27 317 C -12 314 6 311 28 307 C 50 303 70 301 90 301 C 134 301 170 313 198 337 C 226 361 246 403 260 465 L 406 1161 L 268 1161 L 336 1475 Z" unicode="J" />
<glyph horiz-adv-x="1552" d="M 1042 1475 L 1661 1475 L 1593 1161 L 1485 1161 L 1073 819 L 1360 313 L 1479 313 L 1411 0 L 721 0 L 788 313 L 887 313 L 631 739 L 541 313 L 659 313 L 592 0 L -57 0 L 10 313 L 127 313 L 307 1161 L 178 1161 L 246 1475 L 905 1475 L 838 1161 L 721 1161 L 639 780 L 1083 1161 L 975 1161 L 1042 1475 Z" unicode="K" />
<glyph horiz-adv-x="1229" d="M 877 588 L 1192 588 L 1067 0 L -57 0 L 10 313 L 127 313 L 307 1161 L 178 1161 L 246 1475 L 907 1475 L 840 1161 L 723 1161 L 543 309 L 815 309 L 877 588 Z" unicode="L" />
<glyph horiz-adv-x="1853" d="M 1300 1475 L 1972 1475 L 1905 1161 L 1790 1161 L 1610 313 L 1741 313 L 1673 0 L 1020 0 L 1087 313 L 1202 313 L 1368 1085 L 825 86 L 690 86 L 573 1083 L 408 313 L 537 313 L 469 0 L -57 0 L 10 313 L 127 313 L 307 1161 L 178 1161 L 246 1475 L 942 1475 L 991 891 L 1300 1475 Z" unicode="M" />
<glyph horiz-adv-x="1503" d="M 1110 1475 L 1636 1475 L 1569 1161 L 1452 1161 L 1206 0 L 850 0 L 530 885 L 408 313 L 539 313 L 471 0 L -57 0 L 10 313 L 127 313 L 307 1161 L 178 1161 L 246 1475 L 764 1475 L 1063 645 L 1171 1161 L 1042 1161 L 1110 1475 Z" unicode="N" />
<glyph horiz-adv-x="1456" d="M 860 1507 C 956 1507 1041 1492 1116 1464 C 1191 1435 1254 1394 1305 1342 C 1356 1290 1395 1226 1422 1151 C 1448 1076 1462 993 1462 901 C 1462 775 1442 656 1404 542 C 1366 428 1311 329 1241 245 C 1171 160 1085 92 984 42 C 882 -7 769 -33 645 -33 C 553 -33 470 -18 397 10 C 323 38 261 79 211 132 C 161 185 122 250 95 326 C 68 402 55 486 55 580 C 55 701 73 818 111 930 C 149 1042 202 1141 272 1226 C 342 1311 426 1379 526 1430 C 626 1481 737 1507 860 1507 Z M 961 731 C 971 783 979 833 985 881 C 991 929 995 970 995 1004 C 995 1062 985 1109 966 1145 C 946 1180 908 1198 850 1198 C 809 1198 774 1188 744 1168 C 714 1148 687 1119 665 1081 C 642 1043 622 995 605 938 C 588 881 572 816 557 743 C 547 692 538 642 532 594 C 525 545 522 503 522 467 C 522 409 532 363 553 328 C 574 293 612 276 668 276 C 708 276 742 285 772 304 C 802 323 828 351 851 389 C 873 427 893 474 911 532 C 928 589 945 655 961 731 Z" unicode="O" />
<glyph horiz-adv-x="1360" d="M 928 1475 C 1090 1475 1214 1442 1298 1377 C 1382 1311 1425 1220 1425 1102 C 1425 1014 1409 935 1379 864 C 1349 792 1305 732 1248 682 C 1190 632 1120 593 1036 565 C 952 537 858 524 752 524 L 584 524 L 541 313 L 676 313 L 608 0 L -57 0 L 10 313 L 127 313 L 307 1161 L 178 1161 L 246 1475 L 928 1475 Z M 727 823 C 805 823 866 842 909 881 C 951 920 973 972 973 1038 C 973 1080 957 1111 927 1133 C 896 1154 850 1165 788 1165 L 721 1165 L 649 823 L 727 823 Z" unicode="P" />
<glyph horiz-adv-x="1456" d="M 860 1507 C 955 1507 1040 1492 1115 1464 C 1190 1435 1253 1394 1304 1342 C 1355 1290 1394 1226 1421 1151 C 1448 1076 1462 993 1462 901 C 1462 781 1445 668 1411 562 C 1377 456 1330 364 1268 284 C 1206 204 1132 139 1045 88 C 957 37 860 6 754 -6 L 752 -16 C 769 -22 788 -27 809 -33 C 829 -39 850 -44 872 -48 C 893 -52 914 -56 935 -59 C 955 -61 974 -63 991 -63 C 1035 -63 1083 -57 1135 -46 C 1187 -34 1237 -18 1286 2 L 1217 -324 C 1183 -336 1152 -347 1125 -355 C 1098 -363 1073 -370 1049 -375 C 1025 -379 1002 -382 980 -384 C 957 -386 933 -387 907 -387 C 849 -387 799 -381 757 -369 C 715 -357 675 -344 635 -330 C 602 -317 566 -307 528 -299 C 489 -291 442 -287 387 -287 C 365 -287 342 -289 318 -293 C 293 -297 268 -302 244 -309 C 220 -316 196 -324 173 -334 C 149 -344 128 -354 109 -365 L 170 -90 C 218 -64 265 -45 313 -31 C 361 -17 415 -8 477 -6 L 479 4 C 415 18 356 40 304 71 C 251 101 206 140 170 188 C 133 236 105 292 85 358 C 65 424 55 498 55 580 C 55 701 73 818 111 930 C 149 1042 202 1141 272 1226 C 342 1311 426 1379 526 1430 C 626 1481 737 1507 860 1507 Z M 961 731 C 971 783 979 833 985 881 C 991 929 995 970 995 1004 C 995 1062 985 1109 966 1145 C 946 1180 908 1198 850 1198 C 809 1198 774 1188 744 1168 C 714 1148 687 1119 665 1081 C 642 1043 622 995 605 938 C 588 881 572 816 557 743 C 547 692 538 642 532 594 C 525 545 522 503 522 467 C 522 409 532 363 553 328 C 574 293 612 276 668 276 C 708 276 742 285 772 304 C 802 323 828 351 851 389 C 873 427 893 474 911 532 C 928 589 945 655 961 731 Z" unicode="Q" />
<glyph horiz-adv-x="1460" d="M 731 864 C 815 864 877 879 916 910 C 955 941 975 987 975 1049 C 975 1091 958 1120 925 1138 C 892 1156 840 1165 768 1165 L 723 1165 L 659 864 L 731 864 Z M 889 1475 C 1067 1475 1202 1449 1294 1397 C 1386 1345 1432 1265 1432 1157 C 1432 1049 1401 958 1341 886 C 1280 813 1198 759 1094 725 C 1167 710 1219 686 1249 654 C 1279 622 1294 579 1294 526 C 1294 507 1292 487 1289 466 C 1286 444 1282 423 1278 403 L 1257 313 L 1389 313 L 1321 0 L 768 0 L 842 348 C 848 375 852 400 854 423 C 856 446 858 466 858 483 C 858 517 846 544 823 562 C 800 580 760 590 702 590 L 600 590 L 541 313 L 670 313 L 602 0 L -57 0 L 10 313 L 127 313 L 307 1161 L 178 1161 L 246 1475 L 889 1475 Z" unicode="R" />
<glyph horiz-adv-x="1243" d="M 1038 1475 L 1333 1475 L 1229 989 L 909 989 C 911 997 912 1009 913 1024 C 914 1039 915 1050 915 1057 C 915 1101 899 1134 867 1157 C 835 1180 793 1192 739 1192 C 690 1192 649 1180 617 1158 C 585 1136 569 1109 569 1079 C 569 1057 576 1035 591 1013 C 605 990 636 970 682 954 L 848 895 C 898 877 945 855 989 831 C 1033 806 1070 777 1102 745 C 1134 713 1159 676 1177 635 C 1195 593 1204 547 1204 496 C 1204 416 1188 343 1156 277 C 1124 211 1080 156 1026 110 C 971 64 907 29 833 4 C 759 -20 682 -33 600 -33 C 566 -33 533 -30 499 -25 C 465 -19 434 -11 404 -1 C 374 9 345 23 319 39 C 293 55 270 73 252 94 L 231 0 L -61 0 L 47 508 L 373 508 C 370 492 367 476 364 458 C 361 440 360 426 360 416 C 360 376 377 343 412 317 C 446 291 497 279 565 279 C 631 279 679 291 711 316 C 742 340 758 369 758 403 C 758 427 747 449 727 471 C 706 493 668 514 612 535 L 446 594 C 398 610 355 631 317 655 C 278 679 245 707 218 739 C 191 771 170 807 155 847 C 140 887 133 931 133 979 C 133 1053 148 1123 178 1188 C 208 1252 248 1308 300 1355 C 352 1402 413 1439 483 1466 C 553 1493 627 1507 707 1507 C 774 1507 834 1496 886 1475 C 938 1453 982 1422 1018 1380 L 1038 1475 Z" unicode="S" />
<glyph horiz-adv-x="1399" d="M 229 1475 L 1546 1475 L 1425 911 L 1112 911 L 1167 1171 L 1030 1171 L 850 313 L 995 313 L 928 0 L 227 0 L 295 313 L 434 313 L 614 1171 L 477 1171 L 422 911 L 109 911 L 229 1475 Z" unicode="T" />
<glyph horiz-adv-x="1479" d="M 1073 1475 L 1618 1475 L 1550 1161 L 1436 1161 L 1292 492 C 1274 408 1248 334 1214 269 C 1179 203 1136 148 1084 104 C 1032 59 970 25 899 2 C 827 -21 747 -33 657 -33 C 483 -33 353 0 265 66 C 177 132 133 226 133 348 C 133 358 133 370 135 386 C 136 401 138 417 140 434 C 142 450 144 467 147 484 C 149 500 152 516 156 530 L 291 1161 L 162 1161 L 229 1475 L 891 1475 L 823 1161 L 711 1161 L 580 551 C 578 542 575 531 573 519 C 571 507 569 495 568 483 C 566 471 565 461 564 451 C 563 441 563 434 563 430 C 563 385 578 350 610 324 C 642 298 683 285 733 285 C 763 285 792 289 820 298 C 848 306 873 320 896 339 C 919 357 939 382 957 412 C 975 442 988 478 997 520 L 1135 1161 L 1006 1161 L 1073 1475 Z" unicode="U" />
<glyph horiz-adv-x="1473" d="M 1071 1475 L 1634 1475 L 1567 1161 L 1466 1161 L 842 0 L 383 0 L 250 1161 L 137 1161 L 205 1475 L 858 1475 L 791 1161 L 676 1161 L 766 459 L 1130 1161 L 1004 1161 L 1071 1475 Z" unicode="V" />
<glyph horiz-adv-x="1987" d="M 1614 1475 L 2148 1475 L 2081 1161 L 1980 1161 L 1454 0 L 1085 0 L 1040 817 L 662 0 L 287 0 L 250 1161 L 137 1161 L 205 1475 L 844 1475 L 776 1161 L 662 1161 L 674 600 L 1079 1475 L 1401 1475 L 1438 596 L 1673 1161 L 1546 1161 L 1614 1475 Z" unicode="W" />
<glyph horiz-adv-x="1436" d="M 1018 1475 L 1593 1475 L 1526 1161 L 1425 1161 L 977 762 L 1247 313 L 1360 313 L 1292 0 L 600 0 L 668 313 L 766 313 L 651 530 L 438 313 L 545 313 L 477 0 L -100 0 L -33 313 L 68 313 L 518 721 L 252 1161 L 139 1161 L 207 1475 L 895 1475 L 827 1161 L 731 1161 L 846 946 L 1055 1161 L 950 1161 L 1018 1475 Z" unicode="X" />
<glyph horiz-adv-x="1438" d="M 1034 1475 L 1599 1475 L 1532 1161 L 1432 1161 L 934 571 L 881 313 L 1030 313 L 963 0 L 258 0 L 326 313 L 463 313 L 516 571 L 252 1161 L 139 1161 L 207 1475 L 887 1475 L 819 1161 L 707 1161 L 834 840 L 1092 1161 L 967 1161 L 1034 1475 Z" unicode="Y" />
<glyph horiz-adv-x="1221" d="M 240 1475 L 1360 1475 L 1298 1182 L 485 303 L 817 303 L 879 588 L 1194 588 L 1069 0 L -98 0 L -33 303 L 766 1171 L 489 1171 L 434 911 L 119 911 L 240 1475 Z" unicode="Z" />
<glyph horiz-adv-x="676" d="M 328 1475 L 809 1475 L 756 1223 L 586 1223 L 322 -27 L 498 -27 L 442 -281 L -45 -281 L 328 1475 Z" unicode="[" />
<glyph horiz-adv-x="874" d="M 362 1507 L 807 -94 L 582 -94 L 135 1507 L 362 1507 Z" unicode="\" />
<glyph horiz-adv-x="676" d="M 233 1475 L 721 1475 L 348 -281 L -133 -281 L -78 -27 L 92 -27 L 356 1223 L 180 1223 L 233 1475 Z" unicode="]" />
<glyph horiz-adv-x="1706" d="M 1026 1475 L 1538 645 L 1225 645 L 889 1200 L 555 645 L 242 645 L 754 1475 L 1026 1475 Z" unicode="^" />
<glyph horiz-adv-x="1104" d="M -160 -143 L 956 -143 L 920 -303 L -197 -303 L -160 -143 Z" unicode="_" />
<glyph horiz-adv-x="1024" d="M 629 1475 L 807 1104 L 621 1104 L 326 1475 L 629 1475 Z" unicode="`" />
<glyph horiz-adv-x="1204" d="M 682 492 C 688 523 693 552 696 578 C 698 604 700 627 700 647 C 700 683 693 710 680 728 C 666 746 644 756 612 756 C 568 756 531 735 503 695 C 474 655 450 593 432 510 C 425 477 420 448 417 423 C 413 397 412 374 412 354 C 412 318 419 290 434 271 C 448 251 471 242 502 242 C 548 242 584 262 612 303 C 639 344 662 407 682 492 Z M 778 995 L 1247 995 L 1192 739 L 1100 739 L 997 256 L 1098 256 L 1042 0 L 578 0 L 602 115 C 562 74 521 41 479 17 C 437 -7 388 -20 332 -20 C 282 -20 239 -11 201 5 C 163 22 131 46 106 78 C 81 109 62 147 50 192 C 37 237 31 288 31 344 C 31 431 42 515 64 597 C 86 678 118 750 160 812 C 201 874 251 923 311 960 C 371 997 438 1016 512 1016 C 534 1016 558 1013 582 1009 C 606 1005 628 998 650 989 C 672 979 692 967 711 953 C 729 939 745 922 758 903 L 778 995 Z" unicode="a" />
<glyph horiz-adv-x="1184" d="M 856 1016 C 953 1016 1028 984 1080 920 C 1132 856 1159 766 1159 651 C 1159 562 1147 477 1124 396 C 1101 314 1069 243 1027 182 C 985 120 934 71 875 35 C 815 -1 750 -20 678 -20 C 654 -20 630 -17 605 -12 C 580 -6 556 1 533 12 C 510 22 489 36 469 54 C 449 71 434 91 422 115 L 397 0 L -61 0 L -6 256 L 86 256 L 291 1219 L 186 1219 L 242 1475 L 721 1475 L 596 893 C 632 929 671 959 713 982 C 754 1004 802 1016 856 1016 Z M 754 485 C 760 515 764 543 767 570 C 770 596 772 619 772 639 C 772 677 765 706 751 725 C 737 744 714 754 684 754 C 639 754 603 733 575 693 C 547 652 523 589 504 504 C 498 474 493 445 490 418 C 486 390 485 366 485 346 C 485 310 492 283 506 266 C 520 248 543 240 575 240 C 618 240 654 259 682 299 C 710 338 734 400 754 485 Z" unicode="b" />
<glyph horiz-adv-x="1008" d="M 821 995 L 1053 995 L 965 580 L 696 580 C 698 592 700 607 702 624 C 704 640 705 653 705 662 C 705 692 697 718 682 739 C 666 759 642 770 608 770 C 556 770 515 743 486 691 C 457 638 435 568 420 481 C 415 455 412 432 410 410 C 408 388 408 369 408 352 C 408 308 417 274 436 252 C 454 230 481 219 516 219 C 537 219 556 223 573 233 C 589 243 603 255 615 271 C 627 287 636 304 644 324 C 652 343 658 362 662 381 L 973 381 C 940 247 882 145 799 74 C 715 2 608 -33 477 -33 C 409 -33 348 -22 292 -1 C 236 20 188 50 148 89 C 108 127 78 174 56 230 C 34 285 23 346 23 414 C 23 494 35 571 61 645 C 87 718 122 782 168 837 C 214 892 268 936 331 969 C 394 1001 463 1018 537 1018 C 593 1018 644 1009 690 993 C 736 976 774 951 803 918 L 821 995 Z" unicode="c" />
<glyph horiz-adv-x="1182" d="M 682 492 C 688 523 693 552 696 578 C 698 604 700 627 700 647 C 700 683 693 710 680 728 C 666 746 644 756 612 756 C 568 756 531 735 503 695 C 474 655 450 593 432 510 C 425 477 420 448 417 423 C 413 397 412 374 412 354 C 412 318 419 290 434 271 C 448 251 471 242 502 242 C 548 242 584 262 612 303 C 639 344 662 407 682 492 Z M 772 1475 L 1257 1475 L 997 256 L 1098 256 L 1042 0 L 578 0 L 602 115 C 562 74 521 41 479 17 C 437 -7 388 -20 332 -20 C 282 -20 239 -11 201 5 C 163 22 131 46 106 78 C 80 109 61 147 48 192 C 35 237 29 288 29 344 C 29 431 40 515 63 597 C 85 678 117 750 159 812 C 201 874 251 923 311 960 C 371 997 438 1016 512 1016 C 534 1016 558 1013 582 1009 C 606 1005 628 998 650 989 C 672 979 692 967 711 953 C 729 939 745 922 758 903 L 825 1219 L 717 1219 L 772 1475 Z" unicode="d" />
<glyph horiz-adv-x="1069" d="M 598 1022 C 740 1022 851 987 931 918 C 1011 848 1051 750 1051 623 C 1051 599 1049 573 1046 547 C 1043 520 1040 497 1036 479 L 1024 426 L 403 426 C 399 404 396 385 394 367 C 392 349 391 336 391 326 C 391 286 400 255 418 235 C 436 215 464 205 500 205 C 538 205 570 217 594 241 C 618 265 637 297 649 338 L 1004 338 C 987 282 964 232 934 186 C 904 140 869 100 827 68 C 785 36 736 11 680 -6 C 624 -24 561 -33 492 -33 C 422 -33 358 -22 300 -1 C 242 19 193 49 153 88 C 112 126 80 174 58 230 C 36 286 25 348 25 418 C 25 502 38 581 66 655 C 93 729 131 793 181 847 C 231 901 291 943 362 975 C 433 1006 512 1022 598 1022 Z M 686 598 C 690 614 692 630 694 646 C 695 661 696 675 696 688 C 696 722 688 750 673 771 C 658 792 632 803 596 803 C 547 803 511 784 488 747 C 465 709 447 660 434 598 L 686 598 Z" unicode="e" />
<glyph horiz-adv-x="688" d="M 758 1495 C 792 1495 828 1492 866 1487 C 904 1481 936 1475 963 1468 L 905 1202 C 893 1204 875 1207 853 1211 C 830 1215 811 1217 795 1217 C 755 1217 723 1206 699 1186 C 675 1166 658 1129 647 1075 L 631 995 L 752 995 L 696 739 L 578 739 L 479 256 L 590 256 L 535 0 L -43 0 L 12 256 L 104 256 L 203 739 L 102 739 L 158 995 L 258 995 L 285 1122 C 299 1188 320 1244 350 1292 C 379 1339 414 1377 455 1407 C 496 1437 542 1459 594 1473 C 645 1487 700 1495 758 1495 Z" unicode="f" />
<glyph horiz-adv-x="1182" d="M 686 514 C 692 539 696 562 698 583 C 700 604 702 623 702 641 C 702 677 694 705 680 725 C 666 745 642 756 610 756 C 565 756 529 736 501 697 C 473 658 450 602 434 530 C 428 502 423 477 420 455 C 417 432 416 411 416 393 C 416 355 423 326 438 306 C 452 286 476 276 508 276 C 554 276 590 296 617 337 C 644 377 667 436 686 514 Z M 784 995 L 1247 995 L 1192 739 L 1100 739 L 952 43 C 936 -33 909 -98 872 -154 C 834 -210 789 -256 736 -292 C 682 -328 621 -354 552 -372 C 483 -390 409 -399 330 -399 C 250 -399 179 -390 116 -374 C 53 -358 5 -342 -27 -328 L 37 -51 C 51 -58 68 -66 90 -76 C 111 -85 134 -94 159 -102 C 183 -110 209 -116 235 -122 C 261 -128 285 -131 309 -131 C 383 -131 443 -116 487 -88 C 531 -59 562 -5 582 74 L 596 133 C 560 97 521 68 480 46 C 439 24 392 14 338 14 C 240 14 164 46 111 110 C 57 174 31 263 31 379 C 31 464 42 545 65 623 C 88 701 120 768 162 826 C 204 884 254 930 313 964 C 372 998 437 1016 508 1016 C 532 1016 556 1013 581 1008 C 606 1003 630 995 653 984 C 676 973 697 959 717 942 C 736 925 752 905 764 881 L 784 995 Z" unicode="g" />
<glyph horiz-adv-x="1233" d="M 918 1016 C 993 1016 1053 997 1097 960 C 1141 922 1163 869 1163 799 C 1163 787 1161 771 1159 749 C 1156 727 1153 709 1151 696 L 1057 256 L 1157 256 L 1102 0 L 625 0 L 745 567 C 748 579 750 592 752 606 C 753 619 754 628 754 633 C 754 659 746 680 731 696 C 715 711 694 719 668 719 C 638 719 610 707 585 685 C 559 662 543 632 535 594 L 461 256 L 561 256 L 506 0 L -61 0 L -6 256 L 86 256 L 291 1219 L 186 1219 L 242 1475 L 721 1475 L 588 854 C 640 906 693 946 747 974 C 801 1002 858 1016 918 1016 Z" unicode="h" />
<glyph horiz-adv-x="657" d="M 356 1475 L 737 1475 L 662 1128 L 281 1128 L 356 1475 Z M 162 995 L 637 995 L 479 256 L 580 256 L 524 0 L -43 0 L 12 256 L 104 256 L 207 739 L 106 739 L 162 995 Z" unicode="i" />
<glyph horiz-adv-x="618" d="M 344 1475 L 725 1475 L 649 1128 L 268 1128 L 344 1475 Z M 147 995 L 625 995 L 408 -31 C 394 -95 371 -151 341 -198 C 311 -244 275 -282 233 -312 C 191 -342 143 -364 90 -378 C 37 -392 -18 -399 -76 -399 C -110 -399 -144 -396 -178 -391 C -212 -385 -242 -379 -268 -373 L -213 -111 C -199 -113 -185 -117 -170 -121 C -155 -125 -139 -127 -123 -127 C -103 -127 -84 -125 -67 -121 C -49 -117 -33 -110 -19 -100 C -5 -90 7 -75 18 -57 C 28 -38 37 -14 43 16 L 195 739 L 92 739 L 147 995 Z" unicode="j" />
<glyph horiz-adv-x="1217" d="M 750 995 L 1260 995 L 1204 739 L 1110 739 L 893 592 L 1047 256 L 1145 256 L 1090 0 L 741 0 L 512 510 L 459 256 L 549 256 L 494 0 L -61 0 L -6 256 L 86 256 L 291 1219 L 186 1219 L 242 1475 L 721 1475 L 522 547 L 799 739 L 694 739 L 750 995 Z" unicode="k" />
<glyph horiz-adv-x="641" d="M 242 1475 L 723 1475 L 463 256 L 561 256 L 506 0 L -61 0 L -6 256 L 86 256 L 291 1219 L 186 1219 L 242 1475 Z" unicode="l" />
<glyph horiz-adv-x="1831" d="M 1524 1016 C 1599 1016 1657 996 1699 958 C 1740 919 1761 864 1761 793 C 1761 781 1759 767 1757 749 C 1755 731 1753 717 1751 707 L 1655 256 L 1755 256 L 1700 0 L 1223 0 L 1346 580 C 1348 588 1349 598 1350 610 C 1351 622 1352 631 1352 637 C 1352 662 1344 682 1330 697 C 1315 711 1295 719 1270 719 C 1240 719 1212 708 1187 686 C 1161 664 1145 634 1137 598 L 1063 256 L 1163 256 L 1108 0 L 639 0 L 762 580 C 764 588 765 598 766 610 C 767 622 768 631 768 637 C 768 663 760 684 746 698 C 731 712 711 719 686 719 C 656 719 629 708 603 687 C 577 665 561 636 553 598 L 479 256 L 580 256 L 524 0 L -43 0 L 12 256 L 104 256 L 207 739 L 106 739 L 162 995 L 633 995 L 602 850 C 650 900 703 941 760 971 C 816 1001 876 1016 938 1016 C 1008 1016 1062 1001 1102 971 C 1142 941 1166 898 1176 842 C 1230 898 1287 941 1345 971 C 1403 1001 1462 1016 1524 1016 Z" unicode="m" />
<glyph horiz-adv-x="1251" d="M 936 1016 C 1011 1016 1071 997 1115 960 C 1159 922 1182 869 1182 799 C 1182 787 1180 771 1178 749 C 1175 727 1172 709 1169 696 L 1075 256 L 1176 256 L 1120 0 L 643 0 L 764 567 C 766 579 768 592 770 606 C 771 619 772 628 772 633 C 772 659 764 680 749 696 C 733 711 712 719 686 719 C 656 719 629 707 603 684 C 577 661 561 632 553 596 L 479 256 L 580 256 L 524 0 L -43 0 L 12 256 L 104 256 L 207 739 L 106 739 L 162 995 L 633 995 L 602 850 C 648 898 700 937 758 969 C 816 1000 876 1016 936 1016 Z" unicode="n" />
<glyph horiz-adv-x="1106" d="M 618 1022 C 690 1022 755 1011 813 990 C 870 969 918 939 958 901 C 998 863 1028 817 1049 763 C 1070 709 1081 649 1081 584 C 1081 500 1067 421 1039 346 C 1011 270 972 205 921 149 C 869 93 807 49 733 16 C 659 -16 576 -33 485 -33 C 411 -33 346 -22 289 0 C 231 21 183 51 144 90 C 105 128 75 175 55 230 C 35 284 25 344 25 410 C 25 495 39 575 68 650 C 97 724 137 789 189 844 C 241 899 303 942 377 974 C 450 1006 530 1022 618 1022 Z M 684 496 C 692 532 697 562 701 588 C 705 614 707 635 707 653 C 707 687 700 715 686 737 C 672 759 646 770 610 770 C 558 770 518 747 491 701 C 464 655 441 587 422 496 C 415 460 410 429 406 405 C 402 381 401 358 401 338 C 401 301 407 272 421 251 C 434 229 459 219 496 219 C 544 219 582 239 609 279 C 636 319 661 392 684 496 Z" unicode="o" />
<glyph horiz-adv-x="1184" d="M 752 485 C 758 515 762 544 766 571 C 770 598 772 621 772 641 C 772 679 765 707 751 726 C 737 744 714 754 684 754 C 639 754 602 733 574 693 C 545 652 521 589 502 504 C 494 471 489 441 487 415 C 484 389 483 366 483 348 C 483 312 490 285 504 267 C 518 249 541 240 573 240 C 615 240 651 259 680 299 C 709 338 733 400 752 485 Z M 858 1016 C 954 1016 1027 984 1079 921 C 1131 858 1157 770 1157 657 C 1157 561 1144 472 1120 390 C 1096 307 1062 236 1020 176 C 977 116 926 68 866 34 C 806 0 742 -18 672 -18 C 625 -18 579 -9 534 8 C 488 25 452 54 426 94 L 377 -139 L 485 -139 L 430 -395 L -150 -395 L -94 -139 L 2 -139 L 188 739 L 88 739 L 143 995 L 606 995 L 582 881 C 624 925 667 958 711 981 C 755 1004 804 1016 858 1016 Z" unicode="p" />
<glyph horiz-adv-x="1182" d="M 786 995 L 1247 995 L 1192 739 L 1100 739 L 913 -139 L 1018 -139 L 963 -395 L 381 -395 L 436 -139 L 537 -139 L 588 104 C 551 68 512 38 472 16 C 431 -6 384 -18 330 -18 C 234 -18 159 13 106 77 C 53 141 27 230 27 344 C 27 429 37 512 59 593 C 81 674 112 746 153 808 C 194 870 245 921 305 959 C 365 997 432 1016 508 1016 C 532 1016 556 1013 581 1009 C 605 1004 629 996 651 986 C 673 975 694 961 713 944 C 732 926 748 905 762 881 L 786 995 Z M 680 492 C 686 524 691 553 695 579 C 698 605 700 628 700 649 C 700 685 692 711 678 729 C 663 747 640 756 610 756 C 566 756 529 736 501 696 C 473 656 449 594 430 510 C 423 479 418 450 415 424 C 411 398 410 375 410 356 C 410 318 417 289 432 270 C 446 251 470 242 502 242 C 548 242 584 262 611 302 C 637 342 660 406 680 492 Z" unicode="q" />
<glyph horiz-adv-x="868" d="M 885 995 L 942 995 L 866 647 L 735 647 C 687 647 643 633 604 605 C 565 577 538 530 524 465 L 479 256 L 588 256 L 532 0 L -43 0 L 12 256 L 104 256 L 205 739 L 104 739 L 160 995 L 614 995 L 573 807 C 611 876 657 925 711 953 C 765 981 823 995 885 995 Z" unicode="r" />
<glyph horiz-adv-x="938" d="M 766 995 L 975 995 L 909 682 L 674 682 C 674 688 675 695 675 703 C 675 711 676 716 676 719 C 676 743 664 764 641 782 C 617 800 587 809 549 809 C 507 809 476 801 458 786 C 439 771 430 754 430 735 C 430 719 437 706 452 695 C 466 683 484 673 506 664 C 528 655 551 647 576 639 C 601 631 624 624 645 616 C 720 588 780 555 825 516 C 870 477 893 421 893 348 C 893 297 883 249 863 205 C 843 160 814 121 777 88 C 740 54 695 28 641 9 C 587 -10 527 -20 461 -20 C 399 -20 342 -13 292 0 C 241 13 199 34 166 63 L 152 0 L -57 0 L 12 324 L 244 324 C 243 318 242 310 241 300 C 240 290 240 283 240 281 C 240 252 254 229 283 212 C 311 194 346 186 387 186 C 431 186 463 193 483 208 C 502 223 512 241 512 262 C 512 290 493 313 456 329 C 418 345 371 361 313 379 C 235 402 175 435 132 479 C 89 523 68 579 68 649 C 68 695 77 740 96 784 C 115 828 142 868 177 902 C 212 936 255 963 306 984 C 357 1005 415 1016 479 1016 C 530 1016 581 1008 631 994 C 681 980 722 959 754 932 L 766 995 Z" unicode="s" />
<glyph horiz-adv-x="668" d="M 608 995 L 731 995 L 676 739 L 553 739 L 453 256 L 578 256 L 522 0 L 25 0 L 178 739 L 82 739 L 137 995 L 233 995 L 299 1300 L 674 1300 L 608 995 Z" unicode="t" />
<glyph horiz-adv-x="1231" d="M 729 995 L 1204 995 L 1047 256 L 1147 256 L 1092 0 L 621 0 L 651 145 C 605 97 552 57 494 26 C 436 -4 377 -20 317 -20 C 241 -20 182 -1 138 35 C 94 72 72 126 72 197 C 72 207 73 224 76 246 C 78 268 81 285 84 299 L 178 739 L 78 739 L 133 995 L 610 995 L 489 428 C 486 415 484 402 483 389 C 481 376 481 367 481 362 C 481 335 488 314 504 299 C 519 283 540 276 567 276 C 597 276 624 287 650 311 C 675 334 692 363 700 399 L 774 739 L 674 739 L 729 995 Z" unicode="u" />
<glyph horiz-adv-x="1182" d="M 799 995 L 1264 995 L 1208 739 L 1122 739 L 655 0 L 336 0 L 168 739 L 72 739 L 127 995 L 682 995 L 627 739 L 545 739 L 627 371 L 840 739 L 743 739 L 799 995 Z" unicode="v" />
<glyph horiz-adv-x="1604" d="M 1260 995 L 1683 995 L 1628 739 L 1542 739 L 1139 0 L 883 0 L 803 467 L 543 0 L 281 0 L 166 739 L 72 739 L 127 995 L 657 995 L 602 739 L 532 739 L 553 449 L 856 995 L 1059 995 L 1147 453 L 1280 739 L 1204 739 L 1260 995 Z" unicode="w" />
<glyph horiz-adv-x="1102" d="M 768 995 L 1176 995 L 1120 739 L 1026 739 L 782 532 L 940 256 L 1036 256 L 981 0 L 473 0 L 526 242 L 481 338 L 391 242 L 338 0 L -72 0 L -16 256 L 78 256 L 322 463 L 164 739 L 70 739 L 125 995 L 631 995 L 578 754 L 621 655 L 715 754 L 768 995 Z" unicode="x" />
<glyph horiz-adv-x="1182" d="M 797 995 L 1262 995 L 1206 739 L 1120 739 L 551 -139 L 715 -139 L 659 -395 L 82 -395 L 137 -139 L 283 -139 L 383 20 L 166 739 L 72 739 L 127 995 L 680 995 L 625 739 L 543 739 L 637 399 L 838 739 L 741 739 L 797 995 Z" unicode="y" />
<glyph horiz-adv-x="993" d="M 170 995 L 1042 995 L 989 745 L 446 244 L 666 244 L 698 383 L 938 383 L 854 0 L -43 0 L 12 254 L 547 752 L 354 752 L 324 621 L 88 621 L 170 995 Z" unicode="z" />
<glyph horiz-adv-x="866" d="M 915 1475 L 995 1475 L 942 1223 L 899 1223 C 867 1223 841 1220 821 1215 C 800 1210 783 1202 770 1191 C 757 1180 747 1166 739 1148 C 731 1130 724 1108 719 1083 L 688 942 C 667 848 627 773 569 716 C 510 658 435 622 344 608 C 413 596 465 569 499 527 C 533 485 550 433 551 371 C 551 357 550 343 549 328 C 547 313 545 299 543 285 L 512 139 C 510 128 508 117 506 105 C 504 93 504 82 504 74 C 504 40 513 14 533 -3 C 553 -20 587 -29 635 -29 L 690 -29 L 635 -281 L 543 -281 C 476 -281 420 -274 374 -260 C 328 -246 291 -226 263 -202 C 235 -178 216 -149 204 -115 C 192 -81 186 -44 186 -4 C 186 14 187 34 189 54 C 191 74 194 93 199 113 L 236 295 C 238 307 239 319 241 332 C 243 344 244 356 244 367 C 244 406 232 435 209 454 C 185 473 149 483 100 483 L 31 483 L 88 743 L 158 743 C 220 743 267 758 299 790 C 331 822 353 870 367 936 L 403 1114 C 415 1170 433 1221 457 1266 C 481 1310 513 1348 553 1379 C 593 1410 642 1434 702 1450 C 761 1466 832 1475 915 1475 Z" unicode="{" />
<glyph horiz-adv-x="1024" d="M 680 1565 L 680 -483 L 408 -483 L 408 1565 L 680 1565 Z" unicode="|" />
<glyph horiz-adv-x="866" d="M 770 711 L 840 711 L 782 451 L 713 451 C 651 451 603 435 571 403 C 539 371 516 323 504 258 L 467 80 C 455 23 437 -27 413 -72 C 389 -116 358 -154 318 -185 C 278 -216 228 -240 168 -256 C 108 -272 37 -281 -45 -281 L -125 -281 L -72 -29 L -29 -29 C 2 -29 28 -26 49 -21 C 69 -16 86 -8 100 2 C 113 13 123 28 131 46 C 139 64 146 85 152 111 L 182 252 C 202 345 242 420 301 478 C 359 535 434 571 526 586 C 456 598 405 625 371 667 C 337 709 320 761 319 823 C 319 836 319 850 321 865 C 323 880 325 895 328 909 L 358 1055 C 360 1065 362 1077 364 1089 C 366 1101 367 1111 367 1120 C 367 1154 357 1179 337 1197 C 317 1214 284 1223 236 1223 L 180 1223 L 236 1475 L 328 1475 C 394 1475 450 1468 496 1454 C 542 1440 578 1420 606 1396 C 634 1372 654 1343 666 1309 C 678 1275 684 1238 684 1198 C 684 1179 683 1160 681 1140 C 679 1120 676 1100 672 1081 L 635 899 C 633 886 631 873 629 861 C 627 849 627 837 627 827 C 627 787 638 758 662 739 C 685 720 721 711 770 711 Z" unicode="}" />
<glyph horiz-adv-x="1706" d="M 1223 911 L 1505 911 C 1505 830 1498 757 1486 691 C 1473 625 1452 568 1422 522 C 1392 475 1352 439 1302 413 C 1252 387 1191 375 1118 375 C 1050 375 994 388 948 415 C 902 442 857 475 813 514 C 801 522 788 532 775 544 C 762 555 749 566 736 576 C 722 586 709 594 695 601 C 681 608 667 612 653 612 C 611 612 581 593 565 556 C 549 519 541 456 541 367 L 256 367 C 256 447 262 521 275 587 C 288 653 310 709 340 756 C 370 802 410 838 460 864 C 510 890 573 903 647 903 C 682 903 714 899 742 891 C 770 883 795 874 819 862 C 842 850 864 835 884 819 C 904 803 924 786 944 770 C 958 760 972 749 986 737 C 1000 725 1014 713 1028 703 C 1042 693 1055 684 1069 677 C 1083 669 1096 666 1110 666 C 1152 666 1182 684 1198 721 C 1214 758 1223 821 1223 911 Z" unicode="~" />
<glyph horiz-adv-x="215" d="" unicode=" " />
<glyph horiz-adv-x="616" d="M 336 1475 L 694 1475 L 608 1075 L 250 1075 L 336 1475 Z M 301 944 L 518 944 L 496 463 L 395 0 L 2 0 L 102 463 L 301 944 Z" unicode="¡" />
<glyph horiz-adv-x="1055" d="M 879 1231 L 1110 1231 L 1022 815 L 754 815 C 756 828 758 843 760 860 C 761 876 762 889 762 897 C 762 927 754 953 739 974 C 723 995 699 1006 666 1006 C 614 1006 573 979 544 927 C 514 874 492 804 477 717 C 472 691 469 668 467 646 C 465 624 465 605 465 588 C 465 544 474 510 493 488 C 512 466 539 455 573 455 C 594 455 613 459 630 469 C 646 479 661 491 673 507 C 685 522 694 539 702 559 C 710 578 715 597 719 616 L 1030 616 C 997 482 940 380 858 309 C 776 238 669 203 539 203 L 494 -4 L 348 -4 L 397 219 C 349 231 305 250 266 276 C 227 302 194 333 166 370 C 138 406 117 448 102 496 C 87 543 80 594 80 649 C 80 729 92 806 118 880 C 144 953 179 1017 225 1072 C 271 1127 325 1171 388 1204 C 451 1236 520 1253 594 1253 L 614 1253 L 655 1450 L 801 1450 L 752 1227 C 773 1218 793 1208 812 1196 C 831 1184 847 1169 860 1153 L 879 1231 Z" unicode="¢" />
<glyph horiz-adv-x="1274" d="M 1073 1475 L 1362 1475 L 1257 981 L 948 981 L 952 1008 C 954 1024 957 1040 959 1055 C 961 1070 963 1085 963 1100 C 963 1135 954 1165 936 1189 C 918 1213 888 1225 844 1225 C 812 1225 786 1217 764 1203 C 742 1188 725 1169 712 1145 C 698 1121 689 1094 683 1063 C 677 1032 674 1001 674 969 C 674 946 675 921 678 893 C 681 865 686 836 692 807 L 991 807 L 950 621 L 696 621 C 696 549 681 484 652 424 C 623 364 589 317 549 283 C 561 273 579 264 604 255 C 628 246 654 242 682 242 C 742 242 787 258 817 291 C 847 324 866 366 874 418 L 1239 418 C 1221 334 1196 264 1163 206 C 1130 148 1091 101 1046 66 C 1001 31 950 6 893 -9 C 836 -25 775 -33 709 -33 C 680 -33 650 -30 618 -26 C 586 -21 554 -14 522 -6 C 490 2 458 13 426 27 C 394 40 365 55 338 72 C 289 37 234 11 173 -4 C 112 -20 45 -29 -27 -29 L 43 289 C 116 289 175 308 219 347 C 263 386 285 451 285 541 C 285 551 284 563 283 577 C 282 591 281 605 279 621 L 96 621 L 137 807 L 262 807 C 255 841 250 874 246 904 C 242 934 240 964 240 993 C 240 1067 253 1136 280 1199 C 307 1262 345 1316 393 1362 C 441 1407 498 1442 564 1468 C 630 1494 703 1507 782 1507 C 845 1507 900 1495 946 1473 C 992 1451 1029 1420 1057 1380 L 1073 1475 Z" unicode="£" />
<glyph horiz-adv-x="1319" d="M 1141 1475 L 1423 1475 L 1333 1051 L 1020 1051 C 1022 1061 1023 1071 1024 1082 C 1025 1093 1026 1102 1026 1108 C 1026 1139 1017 1166 999 1189 C 981 1211 949 1223 905 1223 C 841 1223 791 1201 755 1158 C 718 1114 688 1048 666 958 L 1137 958 L 1102 795 L 629 795 L 610 674 L 975 674 L 940 510 L 598 510 C 597 494 596 480 595 466 C 594 452 594 438 594 426 C 594 370 605 327 627 297 C 649 267 686 252 739 252 C 764 252 787 256 809 266 C 831 275 849 288 865 304 C 881 320 894 338 904 358 C 914 378 922 400 926 422 L 1276 422 C 1266 364 1247 307 1219 253 C 1191 198 1154 149 1107 107 C 1059 65 1001 31 933 5 C 864 -20 784 -33 692 -33 C 615 -33 545 -22 483 0 C 420 21 367 54 323 98 C 279 142 245 198 221 267 C 197 335 184 416 184 510 L 25 510 L 59 674 L 201 674 C 201 686 202 703 206 727 C 210 751 214 773 219 795 L 84 795 L 119 958 L 252 958 C 283 1050 321 1130 366 1200 C 410 1269 459 1326 512 1371 C 565 1416 622 1450 682 1473 C 742 1495 804 1507 868 1507 C 933 1507 985 1497 1024 1478 C 1063 1459 1097 1433 1126 1399 L 1141 1475 Z" unicode="¤" />
<glyph horiz-adv-x="1368" d="M 1016 1475 L 1509 1475 L 1448 1190 L 1362 1190 L 1122 897 L 1315 897 L 1280 737 L 989 737 L 887 608 L 1253 608 L 1219 449 L 854 449 L 819 285 L 983 285 L 922 0 L 213 0 L 274 285 L 426 285 L 461 449 L 78 449 L 113 608 L 496 608 L 444 737 L 139 737 L 174 897 L 375 897 L 252 1190 L 154 1190 L 215 1475 L 834 1475 L 772 1190 L 666 1190 L 799 844 L 1067 1190 L 954 1190 L 1016 1475 Z" unicode="¥" />
<glyph horiz-adv-x="1139" d="M 635 319 C 675 319 707 330 731 354 C 755 377 768 402 768 430 C 768 445 764 460 758 476 C 752 492 742 508 729 524 L 496 811 C 454 811 421 799 397 775 C 373 751 362 726 362 698 C 362 683 365 668 372 653 C 378 638 388 622 401 606 L 635 319 Z M 772 1475 L 1137 1475 L 1057 1094 L 813 1094 L 846 1253 L 758 1253 C 719 1253 687 1246 662 1232 C 637 1218 625 1195 625 1165 C 625 1139 636 1113 658 1085 C 680 1057 705 1025 735 989 L 918 768 C 960 716 993 668 1017 625 C 1041 582 1053 535 1053 483 C 1053 401 1027 328 977 264 C 927 200 851 152 750 121 C 760 98 768 75 775 51 C 782 27 786 1 786 -29 C 786 -77 775 -120 754 -160 C 732 -199 703 -232 665 -259 C 627 -286 582 -307 530 -322 C 477 -336 420 -344 358 -344 L -6 -344 L 74 37 L 317 37 L 285 -123 L 373 -123 C 411 -123 443 -116 468 -102 C 493 -88 506 -66 506 -35 C 506 -9 494 17 472 46 C 449 75 423 107 395 141 L 213 362 C 170 414 137 461 113 505 C 89 548 78 596 78 649 C 78 731 103 804 154 867 C 205 930 281 978 381 1010 C 370 1032 361 1055 354 1079 C 347 1103 344 1129 344 1159 C 344 1207 354 1251 376 1290 C 397 1329 426 1362 464 1390 C 502 1417 547 1438 600 1453 C 652 1467 710 1475 772 1475 Z" unicode="§" />
<glyph horiz-adv-x="1024" d="M 354 1411 L 610 1411 L 553 1141 L 297 1141 L 354 1411 Z M 752 1411 L 1010 1411 L 952 1141 L 694 1141 L 752 1411 Z" unicode="¨" />
<glyph horiz-adv-x="1892" d="M 967 1505 C 1079 1505 1186 1483 1287 1440 C 1387 1396 1475 1338 1549 1264 C 1623 1190 1681 1102 1725 1002 C 1768 902 1790 795 1790 682 C 1790 568 1768 461 1725 361 C 1681 261 1623 174 1549 100 C 1475 26 1387 -32 1287 -76 C 1186 -119 1079 -141 967 -141 C 853 -141 746 -119 646 -76 C 546 -32 458 26 384 100 C 310 174 251 261 208 361 C 164 461 143 568 143 682 C 143 795 164 902 208 1002 C 251 1102 310 1190 384 1264 C 458 1338 546 1396 646 1440 C 746 1483 853 1505 967 1505 Z M 967 -14 C 1060 -14 1148 4 1232 41 C 1315 77 1387 127 1449 190 C 1510 252 1559 326 1595 411 C 1631 495 1649 586 1649 682 C 1649 778 1631 868 1595 953 C 1559 1037 1510 1111 1449 1174 C 1387 1236 1315 1286 1232 1323 C 1148 1359 1060 1378 967 1378 C 873 1378 784 1359 701 1323 C 618 1286 546 1236 485 1174 C 423 1111 375 1037 339 953 C 303 868 285 778 285 682 C 285 586 303 495 339 411 C 375 326 423 252 485 190 C 546 127 618 77 701 41 C 784 4 873 -14 967 -14 Z M 1137 561 L 1386 561 C 1386 436 1349 341 1277 275 C 1205 209 1104 176 975 176 C 907 176 845 187 789 210 C 733 233 686 266 647 308 C 607 350 577 402 556 462 C 534 522 524 588 524 662 C 524 739 534 810 555 874 C 575 938 604 992 640 1037 C 676 1082 720 1117 770 1142 C 820 1167 874 1180 932 1180 C 976 1180 1016 1173 1053 1159 C 1089 1145 1122 1125 1151 1098 L 1151 1157 L 1362 1157 L 1362 793 L 1135 793 L 1135 809 C 1135 867 1124 909 1102 935 C 1080 961 1048 975 1006 975 C 952 975 916 949 896 899 C 876 848 866 774 866 678 C 866 582 876 508 896 458 C 916 408 952 383 1006 383 C 1048 383 1080 396 1103 422 C 1125 448 1137 491 1137 549 L 1137 561 Z" unicode="©" />
<glyph horiz-adv-x="887" d="M 596 1133 C 600 1155 603 1176 605 1195 C 607 1214 608 1230 608 1243 C 608 1268 603 1287 593 1301 C 583 1314 567 1321 545 1321 C 514 1321 488 1306 467 1278 C 445 1249 428 1205 416 1145 C 411 1122 407 1101 405 1083 C 402 1065 401 1048 401 1034 C 401 1007 406 987 417 974 C 427 960 444 954 467 954 C 499 954 525 968 545 998 C 564 1028 581 1073 596 1133 Z M 666 1493 L 1010 1493 L 971 1309 L 901 1309 L 829 965 L 903 965 L 862 780 L 520 780 L 539 864 C 509 834 478 811 447 793 C 416 775 380 766 338 766 C 266 766 210 789 172 836 C 134 883 115 947 115 1028 C 115 1090 123 1150 140 1208 C 156 1266 180 1317 210 1361 C 240 1405 278 1440 322 1467 C 366 1493 415 1507 469 1507 C 503 1507 537 1500 571 1488 C 605 1475 631 1455 651 1427 L 666 1493 Z" unicode="ª" />
<glyph horiz-adv-x="987" d="M 449 995 L 659 995 L 311 494 L 432 0 L 236 0 L 102 510 L 449 995 Z M 807 995 L 1018 995 L 670 494 L 791 0 L 594 0 L 461 510 L 807 995 Z" unicode="«" />
<glyph horiz-adv-x="1706" d="M 1464 864 L 1464 203 L 1192 203 L 1192 606 L 281 606 L 281 864 L 1464 864 Z" unicode="¬" />
<glyph horiz-adv-x="709" d="M 121 670 L 662 670 L 592 346 L 51 346 L 121 670 Z" unicode="­" />
<glyph horiz-adv-x="1067" d="M 631 1501 C 695 1501 755 1488 812 1464 C 868 1439 917 1406 959 1364 C 1001 1322 1034 1273 1059 1217 C 1083 1160 1096 1100 1096 1036 C 1096 972 1083 911 1059 855 C 1034 799 1001 750 959 708 C 917 666 868 633 812 609 C 755 585 695 573 631 573 C 567 573 506 585 450 609 C 394 633 345 666 303 708 C 261 750 228 799 204 855 C 180 911 168 972 168 1036 C 168 1100 180 1160 204 1217 C 228 1273 261 1322 303 1364 C 345 1406 394 1439 450 1464 C 506 1488 567 1501 631 1501 Z M 631 649 C 683 649 733 659 780 679 C 827 699 868 727 902 762 C 936 796 964 837 984 885 C 1004 932 1014 982 1014 1036 C 1014 1090 1004 1140 984 1188 C 964 1236 936 1277 902 1312 C 868 1346 827 1374 780 1394 C 733 1414 683 1425 631 1425 C 578 1425 528 1414 482 1394 C 436 1374 395 1346 361 1312 C 327 1277 300 1236 280 1188 C 260 1140 250 1090 250 1036 C 250 982 260 932 280 885 C 300 837 327 796 361 762 C 395 727 436 699 482 679 C 528 659 578 649 631 649 Z M 618 1087 C 646 1087 666 1091 677 1101 C 688 1111 694 1125 694 1145 C 694 1164 688 1178 678 1186 C 668 1194 646 1198 614 1198 L 592 1198 L 592 1087 L 618 1087 Z M 907 891 L 907 778 L 698 778 L 698 905 C 698 935 693 956 685 969 C 676 982 656 989 625 989 L 592 989 L 592 891 L 637 891 L 637 778 L 387 778 L 387 891 L 434 891 L 434 1196 L 387 1196 L 387 1309 L 645 1309 C 719 1309 775 1297 813 1274 C 851 1250 870 1214 870 1165 C 870 1132 861 1105 843 1084 C 825 1063 800 1047 766 1036 C 804 1031 830 1019 842 1001 C 854 982 860 956 860 922 L 860 891 L 907 891 Z" unicode="®" />
<glyph horiz-adv-x="1024" d="M 338 1333 L 985 1333 L 948 1163 L 301 1163 L 338 1333 Z" unicode="¯" />
<glyph horiz-adv-x="752" d="M 465 1489 C 514 1489 560 1480 604 1462 C 647 1444 684 1419 716 1387 C 748 1355 773 1318 791 1276 C 809 1233 819 1187 819 1139 C 819 1091 809 1046 791 1004 C 773 962 748 925 716 894 C 684 862 647 837 603 819 C 559 800 513 791 463 791 C 414 791 368 800 325 818 C 282 836 245 860 213 891 C 181 922 155 959 137 1001 C 118 1043 109 1089 109 1139 C 109 1187 118 1233 137 1276 C 156 1318 182 1355 214 1387 C 246 1419 284 1444 328 1462 C 371 1480 417 1489 465 1489 Z M 465 987 C 485 987 505 991 524 999 C 542 1007 558 1019 572 1033 C 585 1047 596 1063 604 1082 C 612 1100 616 1120 616 1141 C 616 1181 601 1217 571 1247 C 541 1277 505 1292 463 1292 C 422 1292 387 1277 357 1248 C 327 1218 313 1183 313 1141 C 313 1099 327 1062 357 1032 C 386 1002 422 987 465 987 Z" unicode="°" />
<glyph horiz-adv-x="1706" d="M 1479 1016 L 1479 752 L 1016 752 L 1016 315 L 743 315 L 743 752 L 281 752 L 281 1016 L 743 1016 L 743 1473 L 1016 1473 L 1016 1016 L 1479 1016 Z M 1479 227 L 1479 -37 L 281 -37 L 281 227 L 1479 227 Z" unicode="±" />
<glyph horiz-adv-x="836" d="M 586 1491 C 675 1491 746 1471 800 1431 C 854 1391 881 1338 881 1272 C 881 1210 860 1154 820 1104 C 779 1054 720 1007 643 963 C 608 943 569 922 527 898 C 485 874 446 847 410 817 L 623 817 L 643 909 L 850 909 L 791 629 L 92 629 C 92 637 92 646 94 656 C 95 666 96 673 96 676 C 100 706 108 735 120 761 C 131 787 146 812 165 837 C 184 861 207 886 235 912 C 262 937 294 964 330 993 C 374 1029 413 1058 448 1082 C 482 1106 508 1124 524 1137 C 547 1153 565 1171 578 1191 C 591 1211 598 1231 598 1253 C 598 1272 591 1287 579 1299 C 567 1311 548 1317 524 1317 C 488 1317 463 1302 447 1274 C 431 1246 422 1211 420 1171 L 418 1147 L 188 1147 C 198 1211 214 1265 238 1309 C 262 1353 291 1388 326 1415 C 360 1441 400 1461 444 1473 C 488 1485 536 1491 586 1491 Z" unicode="²" />
<glyph horiz-adv-x="819" d="M 578 1491 C 668 1491 739 1472 789 1435 C 839 1398 864 1350 864 1290 C 864 1262 859 1236 849 1212 C 839 1188 825 1166 808 1147 C 791 1127 771 1110 749 1096 C 726 1081 702 1069 678 1061 C 726 1049 762 1029 788 1000 C 814 971 827 937 827 897 C 827 857 818 819 800 785 C 782 750 755 720 721 694 C 687 668 644 648 594 634 C 543 619 486 612 422 612 C 367 612 320 618 281 631 C 242 643 210 660 186 682 C 162 704 144 729 133 759 C 122 788 117 819 117 852 C 117 860 117 870 118 880 C 119 890 120 901 121 911 L 356 911 C 355 904 354 897 354 890 C 354 883 354 877 354 872 C 354 843 361 821 376 807 C 390 793 410 786 436 786 C 476 786 505 797 525 821 C 545 844 555 869 555 897 C 555 916 549 933 538 947 C 526 961 503 969 467 969 L 397 969 L 436 1143 L 475 1143 C 521 1143 554 1154 573 1176 C 592 1198 602 1224 602 1253 C 602 1272 595 1287 581 1298 C 567 1309 549 1315 528 1315 C 509 1315 493 1311 481 1304 C 469 1297 459 1288 451 1278 C 443 1267 437 1255 433 1243 C 428 1230 424 1218 422 1206 L 418 1190 L 188 1190 C 196 1238 211 1281 233 1319 C 255 1357 283 1388 317 1414 C 350 1439 389 1458 433 1471 C 477 1484 526 1491 578 1491 Z" unicode="³" />
<glyph horiz-adv-x="1024" d="M 666 1475 L 989 1475 L 623 1104 L 436 1104 L 666 1475 Z" unicode="´" />
<glyph horiz-adv-x="1106" d="M 629 1475 L 1243 1475 L 1214 1333 L 1114 1333 L 827 -4 L 629 -4 L 915 1333 L 768 1333 L 481 -4 L 283 -4 L 453 780 C 403 782 360 790 323 805 C 286 820 255 840 231 865 C 206 890 187 920 175 955 C 162 989 156 1027 156 1067 C 156 1123 167 1177 191 1227 C 214 1277 246 1320 288 1357 C 329 1393 379 1422 437 1443 C 495 1464 559 1475 629 1475 Z" unicode="¶" />
<glyph horiz-adv-x="512" d="M 172 930 L 530 930 L 444 530 L 86 530 L 172 930 Z" unicode="·" />
<glyph horiz-adv-x="1024" d="M 446 -84 C 512 -84 561 -98 595 -126 C 628 -154 645 -192 645 -240 C 645 -277 637 -311 623 -342 C 608 -372 587 -398 561 -420 C 534 -442 502 -459 464 -471 C 426 -483 385 -489 340 -489 C 300 -489 260 -483 220 -473 C 180 -463 134 -448 82 -430 L 123 -295 C 177 -314 220 -327 250 -335 C 280 -342 310 -346 340 -346 C 369 -346 394 -339 414 -327 C 434 -315 444 -294 444 -266 C 444 -247 434 -233 416 -225 C 397 -217 373 -213 344 -213 C 337 -213 327 -213 315 -214 C 302 -215 291 -216 281 -217 L 350 0 L 453 0 L 422 -84 L 446 -84 Z" unicode="¸" />
<glyph horiz-adv-x="618" d="M 281 1475 L 635 1475 L 492 805 L 592 805 L 555 629 L 109 629 L 145 805 L 238 805 L 342 1294 L 242 1294 L 281 1475 Z" unicode="¹" />
<glyph horiz-adv-x="829" d="M 551 1507 C 603 1507 651 1499 694 1484 C 736 1469 772 1448 802 1421 C 831 1393 853 1360 869 1322 C 885 1283 893 1240 893 1194 C 893 1134 882 1077 862 1024 C 842 970 813 924 775 884 C 737 844 691 812 637 789 C 583 765 522 754 455 754 C 401 754 353 761 311 777 C 269 792 233 814 205 842 C 176 870 154 903 139 942 C 124 981 117 1024 117 1071 C 117 1131 127 1188 148 1242 C 169 1295 198 1341 236 1380 C 274 1419 319 1450 373 1473 C 427 1495 486 1507 551 1507 Z M 598 1133 C 602 1153 605 1174 609 1195 C 612 1215 614 1232 614 1245 C 614 1269 609 1289 599 1304 C 589 1319 571 1327 545 1327 C 508 1327 479 1310 459 1278 C 439 1245 422 1197 410 1133 C 404 1110 400 1089 397 1069 C 394 1049 393 1033 393 1020 C 393 992 398 971 408 956 C 418 941 436 934 463 934 C 497 934 523 948 543 977 C 563 1006 581 1058 598 1133 Z" unicode="º" />
<glyph horiz-adv-x="987" d="M 393 995 L 526 485 L 180 0 L -31 0 L 317 502 L 197 995 L 393 995 Z M 752 995 L 885 485 L 539 0 L 328 0 L 676 502 L 555 995 L 752 995 Z" unicode="»" />
<glyph horiz-adv-x="1579" d="M 1272 1499 L 1497 1499 L 342 -25 L 117 -25 L 1272 1499 Z M 281 1475 L 635 1475 L 492 805 L 592 805 L 555 629 L 109 629 L 145 805 L 238 805 L 342 1294 L 242 1294 L 281 1475 Z M 1370 408 L 1483 408 L 1446 236 L 1331 236 L 1319 172 L 1407 172 L 1370 0 L 948 0 L 985 172 L 1077 172 L 1090 236 L 727 236 L 766 416 L 1239 842 L 1462 842 L 1370 408 Z M 1126 406 L 1169 608 L 944 406 L 1126 406 Z" unicode="¼" />
<glyph horiz-adv-x="1683" d="M 1272 1499 L 1497 1499 L 342 -25 L 117 -25 L 1272 1499 Z M 281 1475 L 635 1475 L 492 805 L 592 805 L 555 629 L 109 629 L 145 805 L 238 805 L 342 1294 L 242 1294 L 281 1475 Z M 1329 860 C 1418 860 1489 840 1543 800 C 1597 760 1624 707 1624 641 C 1624 579 1603 523 1563 473 C 1522 423 1463 376 1386 332 C 1352 312 1313 291 1271 268 C 1229 244 1189 218 1153 188 L 1366 188 L 1386 281 L 1593 281 L 1534 0 L 836 0 C 836 8 836 17 838 27 C 839 37 840 44 840 47 C 844 77 852 106 864 132 C 875 158 890 183 909 207 C 927 231 950 256 978 281 C 1005 306 1037 333 1073 362 C 1117 398 1156 427 1191 451 C 1225 475 1251 493 1268 506 C 1291 523 1309 541 1322 561 C 1334 581 1341 601 1341 623 C 1341 642 1335 657 1323 669 C 1311 680 1292 686 1268 686 C 1232 686 1206 672 1190 644 C 1174 616 1165 581 1163 541 L 1161 516 L 932 516 C 942 580 958 634 982 678 C 1006 722 1035 757 1069 784 C 1103 810 1143 830 1187 842 C 1231 854 1279 860 1329 860 Z" unicode="½" />
<glyph horiz-adv-x="1741" d="M 1434 1499 L 1659 1499 L 504 -25 L 279 -25 L 1434 1499 Z M 575 1491 C 666 1491 737 1472 787 1435 C 837 1398 862 1350 862 1290 C 862 1262 857 1236 847 1212 C 837 1188 823 1166 806 1147 C 789 1127 769 1110 747 1096 C 724 1081 700 1069 676 1061 C 724 1049 760 1029 786 1000 C 812 971 825 937 825 897 C 825 857 816 819 798 785 C 780 750 753 720 719 694 C 685 668 642 648 592 634 C 541 619 484 612 420 612 C 365 612 318 618 279 631 C 240 643 208 660 184 682 C 160 704 142 729 131 759 C 120 788 115 819 115 852 C 115 860 115 870 116 880 C 117 890 118 901 119 911 L 354 911 C 353 904 352 897 352 890 C 352 883 352 877 352 872 C 352 843 359 821 374 807 C 388 793 408 786 434 786 C 474 786 503 797 523 821 C 543 844 553 869 553 897 C 553 916 547 933 536 947 C 524 961 501 969 465 969 L 395 969 L 434 1143 L 473 1143 C 519 1143 552 1154 571 1176 C 590 1198 600 1224 600 1253 C 600 1272 593 1287 579 1298 C 565 1309 547 1315 526 1315 C 507 1315 491 1311 479 1304 C 467 1297 457 1288 449 1278 C 441 1267 435 1255 431 1243 C 426 1230 422 1218 420 1206 L 416 1190 L 186 1190 C 194 1238 209 1281 231 1319 C 253 1357 281 1388 315 1414 C 348 1439 387 1458 431 1471 C 475 1484 523 1491 575 1491 Z M 1532 408 L 1645 408 L 1608 236 L 1493 236 L 1481 172 L 1569 172 L 1532 0 L 1110 0 L 1147 172 L 1239 172 L 1251 236 L 889 236 L 928 416 L 1401 842 L 1624 842 L 1532 408 Z M 1288 406 L 1331 608 L 1106 406 L 1288 406 Z" unicode="¾" />
<glyph horiz-adv-x="999" d="M 580 1475 L 938 1475 L 852 1075 L 494 1075 L 580 1475 Z M 647 459 L 944 459 C 936 369 917 292 888 229 C 859 166 822 115 778 77 C 734 38 682 10 624 -7 C 565 -24 502 -33 436 -33 C 372 -33 315 -24 265 -8 C 214 8 171 32 136 63 C 101 94 74 132 55 178 C 36 223 27 274 27 330 C 27 401 38 467 60 527 C 82 587 113 639 153 683 C 193 727 241 764 298 792 C 354 820 417 839 487 848 L 510 965 L 774 965 L 709 664 C 611 646 538 608 488 550 C 438 492 414 416 414 324 C 414 290 421 264 435 247 C 449 229 469 221 496 221 C 540 221 574 241 597 282 C 619 323 636 382 647 459 Z" unicode="¿" />
<glyph horiz-adv-x="1479" d="M 905 1931 L 1083 1561 L 897 1561 L 602 1931 L 905 1931 Z M 600 719 L 840 719 L 805 1143 L 600 719 Z M 1292 313 L 1405 313 L 1337 0 L 688 0 L 756 313 L 870 313 L 858 446 L 465 446 L 401 313 L 526 313 L 459 0 L -100 0 L -33 313 L 70 313 L 522 1161 L 387 1161 L 455 1475 L 1389 1475 L 1321 1161 L 1204 1161 L 1292 313 Z" unicode="À" />
<glyph horiz-adv-x="1479" d="M 983 1931 L 1307 1931 L 940 1561 L 754 1561 L 983 1931 Z M 600 719 L 840 719 L 805 1143 L 600 719 Z M 1292 313 L 1405 313 L 1337 0 L 688 0 L 756 313 L 870 313 L 858 446 L 465 446 L 401 313 L 526 313 L 459 0 L -100 0 L -33 313 L 70 313 L 522 1161 L 387 1161 L 455 1475 L 1389 1475 L 1321 1161 L 1204 1161 L 1292 313 Z" unicode="Á" />
<glyph horiz-adv-x="1479" d="M 1110 1931 L 1255 1561 L 1096 1561 L 961 1763 L 733 1561 L 573 1561 L 862 1931 L 1110 1931 Z M 600 719 L 840 719 L 805 1143 L 600 719 Z M 1292 313 L 1405 313 L 1337 0 L 688 0 L 756 313 L 870 313 L 858 446 L 465 446 L 401 313 L 526 313 L 459 0 L -100 0 L -33 313 L 70 313 L 522 1161 L 387 1161 L 455 1475 L 1389 1475 L 1321 1161 L 1204 1161 L 1292 313 Z" unicode="Â" />
<glyph horiz-adv-x="1479" d="M 1192 1876 L 1317 1876 C 1305 1837 1290 1801 1274 1768 C 1257 1734 1237 1705 1215 1681 C 1193 1657 1167 1638 1138 1624 C 1108 1610 1075 1604 1038 1604 C 1013 1604 990 1608 969 1617 C 948 1626 927 1636 907 1647 C 889 1655 872 1662 856 1670 C 839 1677 822 1681 805 1681 C 781 1681 763 1672 749 1654 C 735 1636 723 1613 713 1585 L 588 1585 C 613 1668 648 1734 693 1784 C 737 1833 794 1858 862 1858 C 887 1858 910 1853 932 1844 C 953 1834 974 1825 995 1815 C 1010 1806 1027 1798 1046 1791 C 1064 1783 1083 1780 1102 1780 C 1122 1780 1140 1788 1154 1805 C 1168 1821 1181 1845 1192 1876 Z M 600 719 L 840 719 L 805 1143 L 600 719 Z M 1292 313 L 1405 313 L 1337 0 L 688 0 L 756 313 L 870 313 L 858 446 L 465 446 L 401 313 L 526 313 L 459 0 L -100 0 L -33 313 L 70 313 L 522 1161 L 387 1161 L 455 1475 L 1389 1475 L 1321 1161 L 1204 1161 L 1292 313 Z" unicode="Ã" />
<glyph horiz-adv-x="1479" d="M 659 1847 L 915 1847 L 858 1577 L 602 1577 L 659 1847 Z M 1057 1847 L 1315 1847 L 1257 1577 L 999 1577 L 1057 1847 Z M 600 719 L 840 719 L 805 1143 L 600 719 Z M 1292 313 L 1405 313 L 1337 0 L 688 0 L 756 313 L 870 313 L 858 446 L 465 446 L 401 313 L 526 313 L 459 0 L -100 0 L -33 313 L 70 313 L 522 1161 L 387 1161 L 455 1475 L 1389 1475 L 1321 1161 L 1204 1161 L 1292 313 Z" unicode="Ä" />
<glyph horiz-adv-x="1479" d="M 922 2058 C 960 2058 996 2051 1030 2037 C 1064 2023 1093 2004 1119 1980 C 1144 1956 1164 1927 1179 1895 C 1194 1862 1202 1827 1202 1790 C 1202 1752 1194 1717 1179 1685 C 1164 1652 1144 1624 1119 1600 C 1093 1576 1064 1558 1030 1544 C 996 1530 960 1524 922 1524 C 884 1524 847 1530 813 1544 C 779 1558 749 1576 724 1600 C 699 1623 679 1651 665 1684 C 650 1716 643 1752 643 1790 C 643 1827 650 1862 665 1895 C 679 1927 699 1956 724 1980 C 749 2004 779 2023 813 2037 C 847 2051 884 2058 922 2058 Z M 922 1671 C 954 1671 982 1682 1005 1706 C 1028 1729 1040 1757 1040 1790 C 1040 1822 1028 1850 1005 1874 C 982 1897 954 1909 922 1909 C 889 1909 861 1897 838 1874 C 814 1850 803 1822 803 1790 C 803 1757 814 1729 837 1706 C 859 1682 888 1671 922 1671 Z M 600 719 L 840 719 L 805 1143 L 600 719 Z M 1292 313 L 1405 313 L 1337 0 L 688 0 L 756 313 L 870 313 L 858 446 L 465 446 L 401 313 L 526 313 L 459 0 L -100 0 L -33 313 L 70 313 L 522 1161 L 387 1161 L 455 1475 L 1389 1475 L 1321 1161 L 1204 1161 L 1292 313 Z" unicode="Å" />
<glyph horiz-adv-x="2005" d="M 915 756 L 1004 1171 L 907 1171 L 655 756 L 915 756 Z M 528 1475 L 2103 1475 L 1982 911 L 1667 911 L 1720 1165 L 1415 1165 L 1360 909 L 1599 909 L 1532 588 L 1292 588 L 1233 309 L 1540 309 L 1602 588 L 1917 588 L 1792 0 L 637 0 L 705 313 L 821 313 L 856 477 L 489 477 L 391 313 L 524 313 L 457 0 L -100 0 L -33 313 L 66 313 L 600 1161 L 463 1161 L 528 1475 Z" unicode="Æ" />
<glyph horiz-adv-x="1292" d="M 1133 1475 L 1427 1475 L 1307 911 L 989 911 C 991 925 994 943 997 965 C 999 987 1001 1007 1001 1026 C 1001 1084 985 1126 954 1153 C 923 1180 884 1194 836 1194 C 799 1194 765 1183 735 1161 C 704 1139 677 1108 654 1068 C 630 1028 610 979 593 922 C 575 865 561 802 551 733 C 545 692 540 651 537 611 C 533 570 532 531 532 494 C 532 418 545 363 571 327 C 597 291 637 274 690 274 C 744 274 789 294 827 335 C 865 376 894 443 915 537 L 920 555 L 1272 555 C 1233 366 1159 221 1051 120 C 942 19 801 -31 627 -31 L 608 -31 C 608 -31 608 -33 606 -39 C 604 -45 601 -51 599 -57 C 597 -63 595 -69 593 -75 C 591 -81 590 -84 590 -84 L 618 -84 C 684 -84 733 -98 767 -126 C 800 -154 817 -192 817 -240 C 817 -277 809 -311 794 -342 C 778 -372 757 -398 730 -420 C 703 -442 671 -459 633 -471 C 595 -483 553 -489 508 -489 C 468 -489 427 -483 386 -473 C 345 -463 298 -448 246 -430 L 287 -295 C 341 -314 384 -327 416 -335 C 448 -342 478 -346 508 -346 C 537 -346 562 -339 584 -327 C 605 -315 616 -294 616 -266 C 616 -247 606 -233 588 -225 C 569 -217 545 -213 516 -213 C 509 -213 499 -213 485 -214 C 471 -215 459 -216 449 -217 L 510 -23 C 438 -11 374 11 317 44 C 260 76 212 118 173 169 C 134 219 104 278 84 346 C 63 414 53 488 53 569 C 53 695 72 816 110 930 C 148 1044 199 1144 263 1229 C 327 1314 403 1382 489 1432 C 575 1482 666 1507 762 1507 C 807 1507 848 1503 884 1495 C 920 1487 953 1477 981 1465 C 1009 1453 1034 1439 1056 1424 C 1077 1409 1096 1394 1112 1380 L 1133 1475 Z" unicode="Ç" />
<glyph horiz-adv-x="1331" d="M 856 1931 L 1034 1561 L 848 1561 L 553 1931 L 856 1931 Z M 246 1475 L 1430 1475 L 1309 911 L 993 911 L 1047 1165 L 721 1165 L 666 909 L 926 909 L 858 588 L 598 588 L 539 309 L 866 309 L 928 588 L 1243 588 L 1118 0 L -57 0 L 10 313 L 127 313 L 307 1161 L 178 1161 L 246 1475 Z" unicode="È" />
<glyph horiz-adv-x="1331" d="M 911 1931 L 1235 1931 L 868 1561 L 682 1561 L 911 1931 Z M 246 1475 L 1430 1475 L 1309 911 L 993 911 L 1047 1165 L 721 1165 L 666 909 L 926 909 L 858 588 L 598 588 L 539 309 L 866 309 L 928 588 L 1243 588 L 1118 0 L -57 0 L 10 313 L 127 313 L 307 1161 L 178 1161 L 246 1475 Z" unicode="É" />
<glyph horiz-adv-x="1331" d="M 1032 1931 L 1178 1561 L 1018 1561 L 883 1763 L 655 1561 L 496 1561 L 784 1931 L 1032 1931 Z M 246 1475 L 1430 1475 L 1309 911 L 993 911 L 1047 1165 L 721 1165 L 666 909 L 926 909 L 858 588 L 598 588 L 539 309 L 866 309 L 928 588 L 1243 588 L 1118 0 L -57 0 L 10 313 L 127 313 L 307 1161 L 178 1161 L 246 1475 Z" unicode="Ê" />
<glyph horiz-adv-x="1331" d="M 573 1847 L 829 1847 L 772 1577 L 516 1577 L 573 1847 Z M 971 1847 L 1229 1847 L 1171 1577 L 913 1577 L 971 1847 Z M 246 1475 L 1430 1475 L 1309 911 L 993 911 L 1047 1165 L 721 1165 L 666 909 L 926 909 L 858 588 L 598 588 L 539 309 L 866 309 L 928 588 L 1243 588 L 1118 0 L -57 0 L 10 313 L 127 313 L 307 1161 L 178 1161 L 246 1475 Z" unicode="Ë" />
<glyph horiz-adv-x="801" d="M 598 1931 L 776 1561 L 590 1561 L 295 1931 L 598 1931 Z M 250 1475 L 915 1475 L 848 1161 L 729 1161 L 549 313 L 680 313 L 612 0 L -53 0 L 14 313 L 133 313 L 313 1161 L 182 1161 L 250 1475 Z" unicode="Ì" />
<glyph horiz-adv-x="801" d="M 655 1931 L 979 1931 L 612 1561 L 426 1561 L 655 1931 Z M 250 1475 L 915 1475 L 848 1161 L 729 1161 L 549 313 L 680 313 L 612 0 L -53 0 L 14 313 L 133 313 L 313 1161 L 182 1161 L 250 1475 Z" unicode="Í" />
<glyph horiz-adv-x="801" d="M 799 1931 L 944 1561 L 784 1561 L 649 1763 L 422 1561 L 262 1561 L 551 1931 L 799 1931 Z M 250 1475 L 915 1475 L 848 1161 L 729 1161 L 549 313 L 680 313 L 612 0 L -53 0 L 14 313 L 133 313 L 313 1161 L 182 1161 L 250 1475 Z" unicode="Î" />
<glyph horiz-adv-x="801" d="M 336 1847 L 592 1847 L 535 1577 L 279 1577 L 336 1847 Z M 733 1847 L 991 1847 L 934 1577 L 676 1577 L 733 1847 Z M 250 1475 L 915 1475 L 848 1161 L 729 1161 L 549 313 L 680 313 L 612 0 L -53 0 L 14 313 L 133 313 L 313 1161 L 182 1161 L 250 1475 Z" unicode="Ï" />
<glyph horiz-adv-x="1503" d="M 1221 1876 L 1346 1876 C 1333 1837 1318 1801 1302 1768 C 1285 1734 1266 1705 1244 1681 C 1222 1657 1196 1638 1167 1624 C 1137 1610 1104 1604 1067 1604 C 1042 1604 1019 1608 998 1617 C 977 1626 956 1636 936 1647 C 918 1655 901 1662 884 1670 C 867 1677 850 1681 834 1681 C 810 1681 791 1672 777 1654 C 763 1636 751 1613 741 1585 L 616 1585 C 642 1668 677 1734 722 1784 C 766 1833 823 1858 891 1858 C 916 1858 939 1853 961 1844 C 982 1834 1003 1825 1024 1815 C 1039 1806 1056 1798 1075 1791 C 1093 1783 1112 1780 1130 1780 C 1150 1780 1168 1788 1183 1805 C 1197 1821 1210 1845 1221 1876 Z M 1110 1475 L 1636 1475 L 1569 1161 L 1452 1161 L 1206 0 L 850 0 L 530 885 L 408 313 L 539 313 L 471 0 L -57 0 L 10 313 L 127 313 L 307 1161 L 178 1161 L 246 1475 L 764 1475 L 1063 645 L 1171 1161 L 1042 1161 L 1110 1475 Z" unicode="Ñ" />
<glyph horiz-adv-x="1456" d="M 918 1931 L 1096 1561 L 909 1561 L 614 1931 L 918 1931 Z M 860 1507 C 956 1507 1041 1492 1116 1464 C 1191 1435 1254 1394 1305 1342 C 1356 1290 1395 1226 1422 1151 C 1448 1076 1462 993 1462 901 C 1462 775 1442 656 1404 542 C 1366 428 1311 329 1241 245 C 1171 160 1085 92 984 42 C 882 -7 769 -33 645 -33 C 553 -33 470 -18 397 10 C 323 38 261 79 211 132 C 161 185 122 250 95 326 C 68 402 55 486 55 580 C 55 701 73 818 111 930 C 149 1042 202 1141 272 1226 C 342 1311 426 1379 526 1430 C 626 1481 737 1507 860 1507 Z M 961 731 C 971 783 979 833 985 881 C 991 929 995 970 995 1004 C 995 1062 985 1109 966 1145 C 946 1180 908 1198 850 1198 C 809 1198 774 1188 744 1168 C 714 1148 687 1119 665 1081 C 642 1043 622 995 605 938 C 588 881 572 816 557 743 C 547 692 538 642 532 594 C 525 545 522 503 522 467 C 522 409 532 363 553 328 C 574 293 612 276 668 276 C 708 276 742 285 772 304 C 802 323 828 351 851 389 C 873 427 893 474 911 532 C 928 589 945 655 961 731 Z" unicode="Ò" />
<glyph horiz-adv-x="1456" d="M 901 1931 L 1225 1931 L 858 1561 L 672 1561 L 901 1931 Z M 860 1507 C 956 1507 1041 1492 1116 1464 C 1191 1435 1254 1394 1305 1342 C 1356 1290 1395 1226 1422 1151 C 1448 1076 1462 993 1462 901 C 1462 775 1442 656 1404 542 C 1366 428 1311 329 1241 245 C 1171 160 1085 92 984 42 C 882 -7 769 -33 645 -33 C 553 -33 470 -18 397 10 C 323 38 261 79 211 132 C 161 185 122 250 95 326 C 68 402 55 486 55 580 C 55 701 73 818 111 930 C 149 1042 202 1141 272 1226 C 342 1311 426 1379 526 1430 C 626 1481 737 1507 860 1507 Z M 961 731 C 971 783 979 833 985 881 C 991 929 995 970 995 1004 C 995 1062 985 1109 966 1145 C 946 1180 908 1198 850 1198 C 809 1198 774 1188 744 1168 C 714 1148 687 1119 665 1081 C 642 1043 622 995 605 938 C 588 881 572 816 557 743 C 547 692 538 642 532 594 C 525 545 522 503 522 467 C 522 409 532 363 553 328 C 574 293 612 276 668 276 C 708 276 742 285 772 304 C 802 323 828 351 851 389 C 873 427 893 474 911 532 C 928 589 945 655 961 731 Z" unicode="Ó" />
<glyph horiz-adv-x="1456" d="M 1063 1931 L 1208 1561 L 1049 1561 L 913 1763 L 686 1561 L 526 1561 L 815 1931 L 1063 1931 Z M 860 1507 C 956 1507 1041 1492 1116 1464 C 1191 1435 1254 1394 1305 1342 C 1356 1290 1395 1226 1422 1151 C 1448 1076 1462 993 1462 901 C 1462 775 1442 656 1404 542 C 1366 428 1311 329 1241 245 C 1171 160 1085 92 984 42 C 882 -7 769 -33 645 -33 C 553 -33 470 -18 397 10 C 323 38 261 79 211 132 C 161 185 122 250 95 326 C 68 402 55 486 55 580 C 55 701 73 818 111 930 C 149 1042 202 1141 272 1226 C 342 1311 426 1379 526 1430 C 626 1481 737 1507 860 1507 Z M 961 731 C 971 783 979 833 985 881 C 991 929 995 970 995 1004 C 995 1062 985 1109 966 1145 C 946 1180 908 1198 850 1198 C 809 1198 774 1188 744 1168 C 714 1148 687 1119 665 1081 C 642 1043 622 995 605 938 C 588 881 572 816 557 743 C 547 692 538 642 532 594 C 525 545 522 503 522 467 C 522 409 532 363 553 328 C 574 293 612 276 668 276 C 708 276 742 285 772 304 C 802 323 828 351 851 389 C 873 427 893 474 911 532 C 928 589 945 655 961 731 Z" unicode="Ô" />
<glyph horiz-adv-x="1456" d="M 1153 1876 L 1278 1876 C 1266 1837 1251 1801 1235 1768 C 1218 1734 1198 1705 1176 1681 C 1154 1657 1128 1638 1099 1624 C 1069 1610 1036 1604 999 1604 C 974 1604 951 1608 930 1617 C 909 1626 888 1636 868 1647 C 851 1655 834 1662 817 1670 C 800 1677 783 1681 766 1681 C 742 1681 724 1672 710 1654 C 696 1636 684 1613 674 1585 L 549 1585 C 574 1668 609 1734 654 1784 C 698 1833 755 1858 823 1858 C 848 1858 871 1853 893 1844 C 914 1834 935 1825 956 1815 C 971 1806 988 1798 1007 1791 C 1025 1783 1044 1780 1063 1780 C 1083 1780 1101 1788 1116 1805 C 1130 1821 1143 1845 1153 1876 Z M 860 1507 C 956 1507 1041 1492 1116 1464 C 1191 1435 1254 1394 1305 1342 C 1356 1290 1395 1226 1422 1151 C 1448 1076 1462 993 1462 901 C 1462 775 1442 656 1404 542 C 1366 428 1311 329 1241 245 C 1171 160 1085 92 984 42 C 882 -7 769 -33 645 -33 C 553 -33 470 -18 397 10 C 323 38 261 79 211 132 C 161 185 122 250 95 326 C 68 402 55 486 55 580 C 55 701 73 818 111 930 C 149 1042 202 1141 272 1226 C 342 1311 426 1379 526 1430 C 626 1481 737 1507 860 1507 Z M 961 731 C 971 783 979 833 985 881 C 991 929 995 970 995 1004 C 995 1062 985 1109 966 1145 C 946 1180 908 1198 850 1198 C 809 1198 774 1188 744 1168 C 714 1148 687 1119 665 1081 C 642 1043 622 995 605 938 C 588 881 572 816 557 743 C 547 692 538 642 532 594 C 525 545 522 503 522 467 C 522 409 532 363 553 328 C 574 293 612 276 668 276 C 708 276 742 285 772 304 C 802 323 828 351 851 389 C 873 427 893 474 911 532 C 928 589 945 655 961 731 Z" unicode="Õ" />
<glyph horiz-adv-x="1456" d="M 600 1847 L 856 1847 L 799 1577 L 543 1577 L 600 1847 Z M 997 1847 L 1255 1847 L 1198 1577 L 940 1577 L 997 1847 Z M 860 1507 C 956 1507 1041 1492 1116 1464 C 1191 1435 1254 1394 1305 1342 C 1356 1290 1395 1226 1422 1151 C 1448 1076 1462 993 1462 901 C 1462 775 1442 656 1404 542 C 1366 428 1311 329 1241 245 C 1171 160 1085 92 984 42 C 882 -7 769 -33 645 -33 C 553 -33 470 -18 397 10 C 323 38 261 79 211 132 C 161 185 122 250 95 326 C 68 402 55 486 55 580 C 55 701 73 818 111 930 C 149 1042 202 1141 272 1226 C 342 1311 426 1379 526 1430 C 626 1481 737 1507 860 1507 Z M 961 731 C 971 783 979 833 985 881 C 991 929 995 970 995 1004 C 995 1062 985 1109 966 1145 C 946 1180 908 1198 850 1198 C 809 1198 774 1188 744 1168 C 714 1148 687 1119 665 1081 C 642 1043 622 995 605 938 C 588 881 572 816 557 743 C 547 692 538 642 532 594 C 525 545 522 503 522 467 C 522 409 532 363 553 328 C 574 293 612 276 668 276 C 708 276 742 285 772 304 C 802 323 828 351 851 389 C 873 427 893 474 911 532 C 928 589 945 655 961 731 Z" unicode="Ö" />
<glyph horiz-adv-x="1706" d="M 1065 612 L 1481 201 L 1292 12 L 881 428 L 469 12 L 281 201 L 696 612 L 281 1024 L 469 1212 L 881 797 L 1292 1212 L 1481 1024 L 1065 612 Z" unicode="×" />
<glyph horiz-adv-x="1110" d="" unicode="Ø" />
<glyph horiz-adv-x="1479" d="M 920 1931 L 1098 1561 L 911 1561 L 616 1931 L 920 1931 Z M 1073 1475 L 1618 1475 L 1550 1161 L 1436 1161 L 1292 492 C 1274 408 1248 334 1214 269 C 1179 203 1136 148 1084 104 C 1032 59 970 25 899 2 C 827 -21 747 -33 657 -33 C 483 -33 353 0 265 66 C 177 132 133 226 133 348 C 133 358 133 370 135 386 C 136 401 138 417 140 434 C 142 450 144 467 147 484 C 149 500 152 516 156 530 L 291 1161 L 162 1161 L 229 1475 L 891 1475 L 823 1161 L 711 1161 L 580 551 C 578 542 575 531 573 519 C 571 507 569 495 568 483 C 566 471 565 461 564 451 C 563 441 563 434 563 430 C 563 385 578 350 610 324 C 642 298 683 285 733 285 C 763 285 792 289 820 298 C 848 306 873 320 896 339 C 919 357 939 382 957 412 C 975 442 988 478 997 520 L 1135 1161 L 1006 1161 L 1073 1475 Z" unicode="Ù" />
<glyph horiz-adv-x="1479" d="M 958 1931 L 1282 1931 L 915 1561 L 729 1561 L 958 1931 Z M 1073 1475 L 1618 1475 L 1550 1161 L 1436 1161 L 1292 492 C 1274 408 1248 334 1214 269 C 1179 203 1136 148 1084 104 C 1032 59 970 25 899 2 C 827 -21 747 -33 657 -33 C 483 -33 353 0 265 66 C 177 132 133 226 133 348 C 133 358 133 370 135 386 C 136 401 138 417 140 434 C 142 450 144 467 147 484 C 149 500 152 516 156 530 L 291 1161 L 162 1161 L 229 1475 L 891 1475 L 823 1161 L 711 1161 L 580 551 C 578 542 575 531 573 519 C 571 507 569 495 568 483 C 566 471 565 461 564 451 C 563 441 563 434 563 430 C 563 385 578 350 610 324 C 642 298 683 285 733 285 C 763 285 792 289 820 298 C 848 306 873 320 896 339 C 919 357 939 382 957 412 C 975 442 988 478 997 520 L 1135 1161 L 1006 1161 L 1073 1475 Z" unicode="Ú" />
<glyph horiz-adv-x="1479" d="M 1135 1931 L 1280 1561 L 1120 1561 L 985 1763 L 758 1561 L 598 1561 L 887 1931 L 1135 1931 Z M 1073 1475 L 1618 1475 L 1550 1161 L 1436 1161 L 1292 492 C 1274 408 1248 334 1214 269 C 1179 203 1136 148 1084 104 C 1032 59 970 25 899 2 C 827 -21 747 -33 657 -33 C 483 -33 353 0 265 66 C 177 132 133 226 133 348 C 133 358 133 370 135 386 C 136 401 138 417 140 434 C 142 450 144 467 147 484 C 149 500 152 516 156 530 L 291 1161 L 162 1161 L 229 1475 L 891 1475 L 823 1161 L 711 1161 L 580 551 C 578 542 575 531 573 519 C 571 507 569 495 568 483 C 566 471 565 461 564 451 C 563 441 563 434 563 430 C 563 385 578 350 610 324 C 642 298 683 285 733 285 C 763 285 792 289 820 298 C 848 306 873 320 896 339 C 919 357 939 382 957 412 C 975 442 988 478 997 520 L 1135 1161 L 1006 1161 L 1073 1475 Z" unicode="Û" />
<glyph horiz-adv-x="1479" d="M 651 1847 L 907 1847 L 850 1577 L 594 1577 L 651 1847 Z M 1049 1847 L 1307 1847 L 1249 1577 L 991 1577 L 1049 1847 Z M 1073 1475 L 1618 1475 L 1550 1161 L 1436 1161 L 1292 492 C 1274 408 1248 334 1214 269 C 1179 203 1136 148 1084 104 C 1032 59 970 25 899 2 C 827 -21 747 -33 657 -33 C 483 -33 353 0 265 66 C 177 132 133 226 133 348 C 133 358 133 370 135 386 C 136 401 138 417 140 434 C 142 450 144 467 147 484 C 149 500 152 516 156 530 L 291 1161 L 162 1161 L 229 1475 L 891 1475 L 823 1161 L 711 1161 L 580 551 C 578 542 575 531 573 519 C 571 507 569 495 568 483 C 566 471 565 461 564 451 C 563 441 563 434 563 430 C 563 385 578 350 610 324 C 642 298 683 285 733 285 C 763 285 792 289 820 298 C 848 306 873 320 896 339 C 919 357 939 382 957 412 C 975 442 988 478 997 520 L 1135 1161 L 1006 1161 L 1073 1475 Z" unicode="Ü" />
<glyph horiz-adv-x="1438" d="M 961 1931 L 1284 1931 L 918 1561 L 731 1561 L 961 1931 Z M 1034 1475 L 1599 1475 L 1532 1161 L 1432 1161 L 934 571 L 881 313 L 1030 313 L 963 0 L 258 0 L 326 313 L 463 313 L 516 571 L 252 1161 L 139 1161 L 207 1475 L 887 1475 L 819 1161 L 707 1161 L 834 840 L 1092 1161 L 967 1161 L 1034 1475 Z" unicode="Ý" />
<glyph horiz-adv-x="1241" d="M 803 1477 C 941 1477 1047 1450 1123 1397 C 1199 1344 1237 1271 1237 1178 C 1237 1093 1212 1019 1164 957 C 1115 895 1048 849 963 821 C 1043 795 1102 755 1141 700 C 1180 644 1200 583 1200 516 C 1200 452 1189 387 1167 322 C 1145 256 1114 198 1072 146 C 1030 94 977 52 914 20 C 850 -12 778 -29 696 -29 C 669 -29 637 -26 600 -22 C 563 -17 528 -10 494 0 L 545 246 C 549 245 558 244 570 243 C 582 242 591 242 596 242 C 636 242 670 250 698 267 C 726 284 749 307 767 335 C 784 363 797 395 805 431 C 813 467 817 505 817 543 C 817 599 803 640 775 668 C 747 695 710 709 664 709 L 641 709 L 686 915 C 746 916 793 934 828 969 C 863 1003 881 1050 881 1110 C 881 1144 871 1171 852 1193 C 832 1214 806 1225 774 1225 C 741 1225 712 1212 686 1187 C 660 1161 643 1130 635 1092 L 410 0 L -63 0 L -10 256 L 86 256 L 242 1026 C 271 1172 331 1284 421 1361 C 511 1438 639 1477 803 1477 Z" unicode="ß" />
<glyph horiz-adv-x="1204" d="M 702 1475 L 881 1104 L 694 1104 L 399 1475 L 702 1475 Z M 682 492 C 688 523 693 552 696 578 C 698 604 700 627 700 647 C 700 683 693 710 680 728 C 666 746 644 756 612 756 C 568 756 531 735 503 695 C 474 655 450 593 432 510 C 425 477 420 448 417 423 C 413 397 412 374 412 354 C 412 318 419 290 434 271 C 448 251 471 242 502 242 C 548 242 584 262 612 303 C 639 344 662 407 682 492 Z M 778 995 L 1247 995 L 1192 739 L 1100 739 L 997 256 L 1098 256 L 1042 0 L 578 0 L 602 115 C 562 74 521 41 479 17 C 437 -7 388 -20 332 -20 C 282 -20 239 -11 201 5 C 163 22 131 46 106 78 C 81 109 62 147 50 192 C 37 237 31 288 31 344 C 31 431 42 515 64 597 C 86 678 118 750 160 812 C 201 874 251 923 311 960 C 371 997 438 1016 512 1016 C 534 1016 558 1013 582 1009 C 606 1005 628 998 650 989 C 672 979 692 967 711 953 C 729 939 745 922 758 903 L 778 995 Z" unicode="à" />
<glyph horiz-adv-x="1204" d="M 780 1475 L 1104 1475 L 737 1104 L 551 1104 L 780 1475 Z M 682 492 C 688 523 693 552 696 578 C 698 604 700 627 700 647 C 700 683 693 710 680 728 C 666 746 644 756 612 756 C 568 756 531 735 503 695 C 474 655 450 593 432 510 C 425 477 420 448 417 423 C 413 397 412 374 412 354 C 412 318 419 290 434 271 C 448 251 471 242 502 242 C 548 242 584 262 612 303 C 639 344 662 407 682 492 Z M 778 995 L 1247 995 L 1192 739 L 1100 739 L 997 256 L 1098 256 L 1042 0 L 578 0 L 602 115 C 562 74 521 41 479 17 C 437 -7 388 -20 332 -20 C 282 -20 239 -11 201 5 C 163 22 131 46 106 78 C 81 109 62 147 50 192 C 37 237 31 288 31 344 C 31 431 42 515 64 597 C 86 678 118 750 160 812 C 201 874 251 923 311 960 C 371 997 438 1016 512 1016 C 534 1016 558 1013 582 1009 C 606 1005 628 998 650 989 C 672 979 692 967 711 953 C 729 939 745 922 758 903 L 778 995 Z" unicode="á" />
<glyph horiz-adv-x="1204" d="M 885 1475 L 1030 1104 L 870 1104 L 735 1307 L 508 1104 L 348 1104 L 637 1475 L 885 1475 Z M 682 492 C 688 523 693 552 696 578 C 698 604 700 627 700 647 C 700 683 693 710 680 728 C 666 746 644 756 612 756 C 568 756 531 735 503 695 C 474 655 450 593 432 510 C 425 477 420 448 417 423 C 413 397 412 374 412 354 C 412 318 419 290 434 271 C 448 251 471 242 502 242 C 548 242 584 262 612 303 C 639 344 662 407 682 492 Z M 778 995 L 1247 995 L 1192 739 L 1100 739 L 997 256 L 1098 256 L 1042 0 L 578 0 L 602 115 C 562 74 521 41 479 17 C 437 -7 388 -20 332 -20 C 282 -20 239 -11 201 5 C 163 22 131 46 106 78 C 81 109 62 147 50 192 C 37 237 31 288 31 344 C 31 431 42 515 64 597 C 86 678 118 750 160 812 C 201 874 251 923 311 960 C 371 997 438 1016 512 1016 C 534 1016 558 1013 582 1009 C 606 1005 628 998 650 989 C 672 979 692 967 711 953 C 729 939 745 922 758 903 L 778 995 Z" unicode="â" />
<glyph horiz-adv-x="1204" d="M 967 1417 L 1092 1417 C 1079 1378 1064 1342 1048 1309 C 1031 1275 1012 1247 990 1223 C 968 1199 942 1180 913 1166 C 883 1152 850 1145 813 1145 C 788 1145 765 1149 744 1158 C 723 1167 702 1177 682 1188 C 664 1196 647 1203 630 1211 C 613 1219 596 1223 580 1223 C 556 1223 537 1214 523 1196 C 509 1178 497 1154 487 1126 L 362 1126 C 388 1209 423 1275 468 1325 C 512 1374 569 1399 637 1399 C 662 1399 685 1394 707 1385 C 728 1375 749 1366 770 1356 C 785 1347 802 1339 821 1332 C 839 1324 858 1321 877 1321 C 897 1321 915 1329 929 1346 C 943 1362 956 1386 967 1417 Z M 682 492 C 688 523 693 552 696 578 C 698 604 700 627 700 647 C 700 683 693 710 680 728 C 666 746 644 756 612 756 C 568 756 531 735 503 695 C 474 655 450 593 432 510 C 425 477 420 448 417 423 C 413 397 412 374 412 354 C 412 318 419 290 434 271 C 448 251 471 242 502 242 C 548 242 584 262 612 303 C 639 344 662 407 682 492 Z M 778 995 L 1247 995 L 1192 739 L 1100 739 L 997 256 L 1098 256 L 1042 0 L 578 0 L 602 115 C 562 74 521 41 479 17 C 437 -7 388 -20 332 -20 C 282 -20 239 -11 201 5 C 163 22 131 46 106 78 C 81 109 62 147 50 192 C 37 237 31 288 31 344 C 31 431 42 515 64 597 C 86 678 118 750 160 812 C 201 874 251 923 311 960 C 371 997 438 1016 512 1016 C 534 1016 558 1013 582 1009 C 606 1005 628 998 650 989 C 672 979 692 967 711 953 C 729 939 745 922 758 903 L 778 995 Z" unicode="ã" />
<glyph horiz-adv-x="1204" d="M 436 1411 L 692 1411 L 635 1141 L 379 1141 L 436 1411 Z M 834 1411 L 1092 1411 L 1034 1141 L 776 1141 L 834 1411 Z M 682 492 C 688 523 693 552 696 578 C 698 604 700 627 700 647 C 700 683 693 710 680 728 C 666 746 644 756 612 756 C 568 756 531 735 503 695 C 474 655 450 593 432 510 C 425 477 420 448 417 423 C 413 397 412 374 412 354 C 412 318 419 290 434 271 C 448 251 471 242 502 242 C 548 242 584 262 612 303 C 639 344 662 407 682 492 Z M 778 995 L 1247 995 L 1192 739 L 1100 739 L 997 256 L 1098 256 L 1042 0 L 578 0 L 602 115 C 562 74 521 41 479 17 C 437 -7 388 -20 332 -20 C 282 -20 239 -11 201 5 C 163 22 131 46 106 78 C 81 109 62 147 50 192 C 37 237 31 288 31 344 C 31 431 42 515 64 597 C 86 678 118 750 160 812 C 201 874 251 923 311 960 C 371 997 438 1016 512 1016 C 534 1016 558 1013 582 1009 C 606 1005 628 998 650 989 C 672 979 692 967 711 953 C 729 939 745 922 758 903 L 778 995 Z" unicode="ä" />
<glyph horiz-adv-x="1204" d="M 719 1624 C 757 1624 793 1617 827 1603 C 861 1589 890 1570 916 1546 C 941 1522 961 1493 976 1461 C 991 1428 999 1393 999 1356 C 999 1318 991 1283 976 1251 C 961 1218 941 1190 916 1166 C 890 1142 861 1124 827 1110 C 793 1096 757 1090 719 1090 C 681 1090 644 1096 610 1110 C 576 1124 546 1142 521 1166 C 496 1189 476 1217 462 1250 C 447 1282 440 1318 440 1356 C 440 1393 447 1428 462 1461 C 476 1493 496 1522 521 1546 C 546 1570 576 1589 610 1603 C 644 1617 681 1624 719 1624 Z M 719 1237 C 751 1237 779 1248 803 1272 C 826 1295 838 1323 838 1356 C 838 1388 826 1416 803 1440 C 779 1463 751 1475 719 1475 C 686 1475 658 1463 635 1440 C 611 1416 600 1388 600 1356 C 600 1323 611 1295 634 1272 C 656 1248 685 1237 719 1237 Z M 682 492 C 688 523 693 552 696 578 C 698 604 700 627 700 647 C 700 683 693 710 680 728 C 666 746 644 756 612 756 C 568 756 531 735 503 695 C 474 655 450 593 432 510 C 425 477 420 448 417 423 C 413 397 412 374 412 354 C 412 318 419 290 434 271 C 448 251 471 242 502 242 C 548 242 584 262 612 303 C 639 344 662 407 682 492 Z M 778 995 L 1247 995 L 1192 739 L 1100 739 L 997 256 L 1098 256 L 1042 0 L 578 0 L 602 115 C 562 74 521 41 479 17 C 437 -7 388 -20 332 -20 C 282 -20 239 -11 201 5 C 163 22 131 46 106 78 C 81 109 62 147 50 192 C 37 237 31 288 31 344 C 31 431 42 515 64 597 C 86 678 118 750 160 812 C 201 874 251 923 311 960 C 371 997 438 1016 512 1016 C 534 1016 558 1013 582 1009 C 606 1005 628 998 650 989 C 672 979 692 967 711 953 C 729 939 745 922 758 903 L 778 995 Z" unicode="å" />
<glyph horiz-adv-x="1620" d="M 1237 598 C 1239 611 1240 625 1242 639 C 1244 653 1245 667 1245 682 C 1245 716 1238 744 1224 768 C 1210 791 1183 803 1145 803 C 1117 803 1094 796 1075 783 C 1056 770 1041 754 1029 734 C 1017 714 1007 692 1001 668 C 994 644 989 620 985 598 L 1237 598 Z M 1155 1022 C 1218 1022 1277 1014 1332 998 C 1386 982 1433 957 1473 925 C 1513 892 1544 851 1567 801 C 1590 751 1602 692 1602 625 C 1602 591 1598 557 1592 524 C 1586 491 1579 458 1573 426 L 954 426 C 951 409 948 392 946 376 C 943 359 942 342 942 326 C 942 288 950 258 968 237 C 986 215 1015 205 1055 205 C 1075 205 1092 208 1107 216 C 1122 224 1135 234 1147 246 C 1158 258 1168 272 1176 288 C 1184 304 1190 321 1196 338 L 1552 338 C 1535 278 1511 224 1479 178 C 1447 132 1409 93 1365 62 C 1321 31 1272 7 1218 -8 C 1163 -24 1105 -33 1044 -33 C 1010 -33 975 -30 939 -24 C 903 -18 869 -9 836 2 C 803 14 772 31 743 52 C 713 72 688 97 668 127 C 614 78 557 41 497 17 C 437 -7 371 -20 299 -20 C 253 -20 211 -14 173 -2 C 135 9 102 26 75 50 C 48 73 27 102 12 138 C -2 174 -10 216 -10 264 C -10 324 0 378 20 428 C 40 478 67 520 103 555 C 138 589 181 616 231 635 C 281 654 335 664 395 664 C 413 664 433 662 454 660 C 475 657 496 653 517 647 C 537 641 557 633 576 624 C 594 615 611 604 625 592 C 627 604 629 617 631 631 C 633 644 635 657 635 670 C 635 695 629 715 618 731 C 607 746 593 758 577 766 C 560 774 541 779 520 782 C 499 784 479 786 459 786 C 407 786 352 777 296 760 C 240 742 189 722 143 700 L 186 952 C 248 974 305 992 359 1004 C 413 1016 473 1022 541 1022 C 602 1022 659 1014 712 1000 C 765 986 817 962 868 928 C 886 942 908 954 932 966 C 956 977 980 987 1005 995 C 1030 1003 1056 1010 1082 1015 C 1108 1019 1132 1022 1155 1022 Z M 455 211 C 503 211 539 227 563 259 C 586 291 598 330 598 375 C 598 405 590 428 574 444 C 558 459 535 467 506 467 C 457 467 420 450 394 418 C 368 386 356 347 356 301 C 356 269 365 246 383 232 C 401 218 425 211 455 211 Z" unicode="æ" />
<glyph horiz-adv-x="1008" d="M 821 995 L 1053 995 L 965 580 L 696 580 C 698 592 700 607 702 624 C 704 640 705 653 705 662 C 705 692 697 718 682 739 C 666 759 642 770 608 770 C 556 770 515 743 486 691 C 457 638 435 568 420 481 C 415 455 412 432 410 410 C 408 388 408 369 408 352 C 408 308 417 274 436 252 C 454 230 481 219 516 219 C 537 219 556 223 573 233 C 589 243 603 255 615 271 C 627 287 636 304 644 324 C 652 343 658 362 662 381 L 973 381 C 940 247 882 146 799 76 C 715 6 608 -29 477 -29 L 463 -29 L 442 -84 L 467 -84 C 532 -84 581 -98 615 -126 C 649 -154 666 -192 666 -240 C 666 -277 658 -311 644 -342 C 629 -372 608 -398 582 -420 C 555 -442 523 -459 485 -471 C 447 -483 405 -489 360 -489 C 320 -489 281 -483 241 -473 C 201 -463 155 -448 102 -430 L 143 -295 C 170 -305 194 -313 215 -319 C 235 -325 254 -331 271 -335 C 287 -339 303 -341 317 -343 C 331 -345 345 -346 360 -346 C 390 -346 415 -339 435 -327 C 455 -315 465 -294 465 -266 C 465 -247 455 -233 437 -225 C 418 -217 394 -213 365 -213 C 357 -213 347 -213 335 -214 C 323 -215 311 -216 301 -217 L 365 -18 C 313 -8 266 9 224 34 C 182 58 146 89 116 126 C 86 163 63 206 47 254 C 31 302 23 356 23 414 C 23 494 35 571 61 645 C 87 718 122 782 168 837 C 214 892 268 936 331 969 C 394 1001 463 1018 537 1018 C 593 1018 644 1009 690 993 C 736 976 774 951 803 918 L 821 995 Z" unicode="ç" />
<glyph horiz-adv-x="1069" d="M 659 1475 L 838 1104 L 651 1104 L 356 1475 L 659 1475 Z M 598 1022 C 740 1022 851 987 931 918 C 1011 848 1051 750 1051 623 C 1051 599 1049 573 1046 547 C 1043 520 1040 497 1036 479 L 1024 426 L 403 426 C 399 404 396 385 394 367 C 392 349 391 336 391 326 C 391 286 400 255 418 235 C 436 215 464 205 500 205 C 538 205 570 217 594 241 C 618 265 637 297 649 338 L 1004 338 C 987 282 964 232 934 186 C 904 140 869 100 827 68 C 785 36 736 11 680 -6 C 624 -24 561 -33 492 -33 C 422 -33 358 -22 300 -1 C 242 19 193 49 153 88 C 112 126 80 174 58 230 C 36 286 25 348 25 418 C 25 502 38 581 66 655 C 93 729 131 793 181 847 C 231 901 291 943 362 975 C 433 1006 512 1022 598 1022 Z M 686 598 C 690 614 692 630 694 646 C 695 661 696 675 696 688 C 696 722 688 750 673 771 C 658 792 632 803 596 803 C 547 803 511 784 488 747 C 465 709 447 660 434 598 L 686 598 Z" unicode="è" />
<glyph horiz-adv-x="1069" d="M 700 1475 L 1024 1475 L 657 1104 L 471 1104 L 700 1475 Z M 598 1022 C 740 1022 851 987 931 918 C 1011 848 1051 750 1051 623 C 1051 599 1049 573 1046 547 C 1043 520 1040 497 1036 479 L 1024 426 L 403 426 C 399 404 396 385 394 367 C 392 349 391 336 391 326 C 391 286 400 255 418 235 C 436 215 464 205 500 205 C 538 205 570 217 594 241 C 618 265 637 297 649 338 L 1004 338 C 987 282 964 232 934 186 C 904 140 869 100 827 68 C 785 36 736 11 680 -6 C 624 -24 561 -33 492 -33 C 422 -33 358 -22 300 -1 C 242 19 193 49 153 88 C 112 126 80 174 58 230 C 36 286 25 348 25 418 C 25 502 38 581 66 655 C 93 729 131 793 181 847 C 231 901 291 943 362 975 C 433 1006 512 1022 598 1022 Z M 686 598 C 690 614 692 630 694 646 C 695 661 696 675 696 688 C 696 722 688 750 673 771 C 658 792 632 803 596 803 C 547 803 511 784 488 747 C 465 709 447 660 434 598 L 686 598 Z" unicode="é" />
<glyph horiz-adv-x="1069" d="M 825 1475 L 971 1104 L 811 1104 L 676 1307 L 449 1104 L 289 1104 L 578 1475 L 825 1475 Z M 598 1022 C 740 1022 851 987 931 918 C 1011 848 1051 750 1051 623 C 1051 599 1049 573 1046 547 C 1043 520 1040 497 1036 479 L 1024 426 L 403 426 C 399 404 396 385 394 367 C 392 349 391 336 391 326 C 391 286 400 255 418 235 C 436 215 464 205 500 205 C 538 205 570 217 594 241 C 618 265 637 297 649 338 L 1004 338 C 987 282 964 232 934 186 C 904 140 869 100 827 68 C 785 36 736 11 680 -6 C 624 -24 561 -33 492 -33 C 422 -33 358 -22 300 -1 C 242 19 193 49 153 88 C 112 126 80 174 58 230 C 36 286 25 348 25 418 C 25 502 38 581 66 655 C 93 729 131 793 181 847 C 231 901 291 943 362 975 C 433 1006 512 1022 598 1022 Z M 686 598 C 690 614 692 630 694 646 C 695 661 696 675 696 688 C 696 722 688 750 673 771 C 658 792 632 803 596 803 C 547 803 511 784 488 747 C 465 709 447 660 434 598 L 686 598 Z" unicode="ê" />
<glyph horiz-adv-x="1069" d="M 365 1411 L 621 1411 L 563 1141 L 307 1141 L 365 1411 Z M 762 1411 L 1020 1411 L 963 1141 L 705 1141 L 762 1411 Z M 598 1022 C 740 1022 851 987 931 918 C 1011 848 1051 750 1051 623 C 1051 599 1049 573 1046 547 C 1043 520 1040 497 1036 479 L 1024 426 L 403 426 C 399 404 396 385 394 367 C 392 349 391 336 391 326 C 391 286 400 255 418 235 C 436 215 464 205 500 205 C 538 205 570 217 594 241 C 618 265 637 297 649 338 L 1004 338 C 987 282 964 232 934 186 C 904 140 869 100 827 68 C 785 36 736 11 680 -6 C 624 -24 561 -33 492 -33 C 422 -33 358 -22 300 -1 C 242 19 193 49 153 88 C 112 126 80 174 58 230 C 36 286 25 348 25 418 C 25 502 38 581 66 655 C 93 729 131 793 181 847 C 231 901 291 943 362 975 C 433 1006 512 1022 598 1022 Z M 686 598 C 690 614 692 630 694 646 C 695 661 696 675 696 688 C 696 722 688 750 673 771 C 658 792 632 803 596 803 C 547 803 511 784 488 747 C 465 709 447 660 434 598 L 686 598 Z" unicode="ë" />
<glyph horiz-adv-x="657" d="M 420 1475 L 598 1104 L 412 1104 L 117 1475 L 420 1475 Z M 162 995 L 637 995 L 479 256 L 580 256 L 524 0 L -43 0 L 12 256 L 104 256 L 207 739 L 106 739 L 162 995 Z" unicode="ì" />
<glyph horiz-adv-x="657" d="M 543 1475 L 866 1475 L 500 1104 L 313 1104 L 543 1475 Z M 162 995 L 637 995 L 479 256 L 580 256 L 524 0 L -43 0 L 12 256 L 104 256 L 207 739 L 106 739 L 162 995 Z" unicode="í" />
<glyph horiz-adv-x="657" d="M 610 1475 L 745 1104 L 586 1104 L 461 1307 L 244 1104 L 84 1104 L 362 1475 L 610 1475 Z M 162 995 L 637 995 L 479 256 L 580 256 L 524 0 L -43 0 L 12 256 L 104 256 L 207 739 L 106 739 L 162 995 Z" unicode="î" />
<glyph horiz-adv-x="657" d="M 172 1411 L 428 1411 L 371 1141 L 115 1141 L 172 1411 Z M 561 1411 L 819 1411 L 762 1141 L 504 1141 L 561 1411 Z M 162 995 L 637 995 L 479 256 L 580 256 L 524 0 L -43 0 L 12 256 L 104 256 L 207 739 L 106 739 L 162 995 Z" unicode="ï" />
<glyph horiz-adv-x="1251" d="M 983 1417 L 1108 1417 C 1096 1378 1081 1342 1065 1309 C 1048 1275 1028 1247 1006 1223 C 984 1199 958 1180 929 1166 C 899 1152 866 1145 829 1145 C 804 1145 781 1149 760 1158 C 739 1167 718 1177 698 1188 C 681 1196 664 1203 647 1211 C 630 1219 613 1223 596 1223 C 572 1223 554 1214 540 1196 C 526 1178 514 1154 504 1126 L 379 1126 C 404 1209 439 1275 484 1325 C 528 1374 585 1399 653 1399 C 679 1399 702 1394 723 1385 C 744 1375 765 1366 786 1356 C 801 1347 818 1339 837 1332 C 855 1324 874 1321 893 1321 C 913 1321 931 1329 946 1346 C 960 1362 973 1386 983 1417 Z M 936 1016 C 1011 1016 1071 997 1115 960 C 1159 922 1182 869 1182 799 C 1182 787 1180 771 1178 749 C 1175 727 1172 709 1169 696 L 1075 256 L 1176 256 L 1120 0 L 643 0 L 764 567 C 766 579 768 592 770 606 C 771 619 772 628 772 633 C 772 659 764 680 749 696 C 733 711 712 719 686 719 C 656 719 629 707 603 684 C 577 661 561 632 553 596 L 479 256 L 580 256 L 524 0 L -43 0 L 12 256 L 104 256 L 207 739 L 106 739 L 162 995 L 633 995 L 602 850 C 648 898 700 937 758 969 C 816 1000 876 1016 936 1016 Z" unicode="ñ" />
<glyph horiz-adv-x="1106" d="M 670 1475 L 848 1104 L 662 1104 L 367 1475 L 670 1475 Z M 618 1022 C 690 1022 755 1011 813 990 C 870 969 918 939 958 901 C 998 863 1028 817 1049 763 C 1070 709 1081 649 1081 584 C 1081 500 1067 421 1039 346 C 1011 270 972 205 921 149 C 869 93 807 49 733 16 C 659 -16 576 -33 485 -33 C 411 -33 346 -22 289 0 C 231 21 183 51 144 90 C 105 128 75 175 55 230 C 35 284 25 344 25 410 C 25 495 39 575 68 650 C 97 724 137 789 189 844 C 241 899 303 942 377 974 C 450 1006 530 1022 618 1022 Z M 684 496 C 692 532 697 562 701 588 C 705 614 707 635 707 653 C 707 687 700 715 686 737 C 672 759 646 770 610 770 C 558 770 518 747 491 701 C 464 655 441 587 422 496 C 415 460 410 429 406 405 C 402 381 401 358 401 338 C 401 301 407 272 421 251 C 434 229 459 219 496 219 C 544 219 582 239 609 279 C 636 319 661 392 684 496 Z" unicode="ò" />
<glyph horiz-adv-x="1106" d="M 707 1475 L 1030 1475 L 664 1104 L 477 1104 L 707 1475 Z M 618 1022 C 690 1022 755 1011 813 990 C 870 969 918 939 958 901 C 998 863 1028 817 1049 763 C 1070 709 1081 649 1081 584 C 1081 500 1067 421 1039 346 C 1011 270 972 205 921 149 C 869 93 807 49 733 16 C 659 -16 576 -33 485 -33 C 411 -33 346 -22 289 0 C 231 21 183 51 144 90 C 105 128 75 175 55 230 C 35 284 25 344 25 410 C 25 495 39 575 68 650 C 97 724 137 789 189 844 C 241 899 303 942 377 974 C 450 1006 530 1022 618 1022 Z M 684 496 C 692 532 697 562 701 588 C 705 614 707 635 707 653 C 707 687 700 715 686 737 C 672 759 646 770 610 770 C 558 770 518 747 491 701 C 464 655 441 587 422 496 C 415 460 410 429 406 405 C 402 381 401 358 401 338 C 401 301 407 272 421 251 C 434 229 459 219 496 219 C 544 219 582 239 609 279 C 636 319 661 392 684 496 Z" unicode="ó" />
<glyph horiz-adv-x="1106" d="M 836 1475 L 981 1104 L 821 1104 L 686 1307 L 459 1104 L 299 1104 L 588 1475 L 836 1475 Z M 618 1022 C 690 1022 755 1011 813 990 C 870 969 918 939 958 901 C 998 863 1028 817 1049 763 C 1070 709 1081 649 1081 584 C 1081 500 1067 421 1039 346 C 1011 270 972 205 921 149 C 869 93 807 49 733 16 C 659 -16 576 -33 485 -33 C 411 -33 346 -22 289 0 C 231 21 183 51 144 90 C 105 128 75 175 55 230 C 35 284 25 344 25 410 C 25 495 39 575 68 650 C 97 724 137 789 189 844 C 241 899 303 942 377 974 C 450 1006 530 1022 618 1022 Z M 684 496 C 692 532 697 562 701 588 C 705 614 707 635 707 653 C 707 687 700 715 686 737 C 672 759 646 770 610 770 C 558 770 518 747 491 701 C 464 655 441 587 422 496 C 415 460 410 429 406 405 C 402 381 401 358 401 338 C 401 301 407 272 421 251 C 434 229 459 219 496 219 C 544 219 582 239 609 279 C 636 319 661 392 684 496 Z" unicode="ô" />
<glyph horiz-adv-x="1106" d="M 930 1417 L 1055 1417 C 1043 1378 1028 1342 1012 1309 C 995 1275 975 1247 953 1223 C 931 1199 905 1180 876 1166 C 846 1152 813 1145 776 1145 C 751 1145 728 1149 707 1158 C 686 1167 665 1177 645 1188 C 627 1196 610 1203 594 1211 C 577 1219 560 1223 543 1223 C 519 1223 501 1214 487 1196 C 473 1178 461 1154 451 1126 L 326 1126 C 351 1209 386 1275 431 1325 C 475 1374 532 1399 600 1399 C 625 1399 648 1394 670 1385 C 691 1375 712 1366 733 1356 C 748 1347 765 1339 784 1332 C 802 1324 821 1321 840 1321 C 860 1321 878 1329 892 1346 C 906 1362 919 1386 930 1417 Z M 618 1022 C 690 1022 755 1011 813 990 C 870 969 918 939 958 901 C 998 863 1028 817 1049 763 C 1070 709 1081 649 1081 584 C 1081 500 1067 421 1039 346 C 1011 270 972 205 921 149 C 869 93 807 49 733 16 C 659 -16 576 -33 485 -33 C 411 -33 346 -22 289 0 C 231 21 183 51 144 90 C 105 128 75 175 55 230 C 35 284 25 344 25 410 C 25 495 39 575 68 650 C 97 724 137 789 189 844 C 241 899 303 942 377 974 C 450 1006 530 1022 618 1022 Z M 684 496 C 692 532 697 562 701 588 C 705 614 707 635 707 653 C 707 687 700 715 686 737 C 672 759 646 770 610 770 C 558 770 518 747 491 701 C 464 655 441 587 422 496 C 415 460 410 429 406 405 C 402 381 401 358 401 338 C 401 301 407 272 421 251 C 434 229 459 219 496 219 C 544 219 582 239 609 279 C 636 319 661 392 684 496 Z" unicode="õ" />
<glyph horiz-adv-x="1106" d="M 389 1411 L 645 1411 L 588 1141 L 332 1141 L 389 1411 Z M 786 1411 L 1044 1411 L 987 1141 L 729 1141 L 786 1411 Z M 618 1022 C 690 1022 755 1011 813 990 C 870 969 918 939 958 901 C 998 863 1028 817 1049 763 C 1070 709 1081 649 1081 584 C 1081 500 1067 421 1039 346 C 1011 270 972 205 921 149 C 869 93 807 49 733 16 C 659 -16 576 -33 485 -33 C 411 -33 346 -22 289 0 C 231 21 183 51 144 90 C 105 128 75 175 55 230 C 35 284 25 344 25 410 C 25 495 39 575 68 650 C 97 724 137 789 189 844 C 241 899 303 942 377 974 C 450 1006 530 1022 618 1022 Z M 684 496 C 692 532 697 562 701 588 C 705 614 707 635 707 653 C 707 687 700 715 686 737 C 672 759 646 770 610 770 C 558 770 518 747 491 701 C 464 655 441 587 422 496 C 415 460 410 429 406 405 C 402 381 401 358 401 338 C 401 301 407 272 421 251 C 434 229 459 219 496 219 C 544 219 582 239 609 279 C 636 319 661 392 684 496 Z" unicode="ö" />
<glyph horiz-adv-x="1706" d="M 881 1225 C 905 1225 927 1220 949 1210 C 971 1200 990 1187 1006 1171 C 1022 1155 1034 1136 1044 1114 C 1054 1092 1059 1068 1059 1044 C 1059 1020 1054 998 1045 976 C 1035 954 1023 935 1007 919 C 991 903 972 890 950 880 C 928 870 904 866 879 866 C 853 866 830 870 808 880 C 786 889 768 902 752 918 C 736 934 723 952 714 974 C 704 996 700 1019 700 1044 C 700 1069 704 1093 714 1115 C 724 1137 737 1157 753 1173 C 769 1189 789 1201 811 1211 C 833 1220 856 1225 881 1225 Z M 1479 743 L 1479 479 L 281 479 L 281 743 L 1479 743 Z M 881 354 C 905 354 927 349 949 340 C 971 330 990 318 1006 302 C 1022 286 1034 267 1044 245 C 1054 223 1059 200 1059 176 C 1059 152 1054 130 1045 108 C 1035 86 1023 67 1007 51 C 991 35 972 22 950 12 C 928 2 904 -2 879 -2 C 853 -2 830 2 808 12 C 786 21 768 34 752 50 C 736 66 723 84 714 106 C 704 128 700 151 700 176 C 700 201 704 225 714 247 C 724 269 737 287 753 303 C 769 319 789 331 811 340 C 833 349 856 354 881 354 Z" unicode="÷" />
<glyph horiz-adv-x="1231" d="M 694 1475 L 872 1104 L 686 1104 L 391 1475 L 694 1475 Z M 729 995 L 1204 995 L 1047 256 L 1147 256 L 1092 0 L 621 0 L 651 145 C 605 97 552 57 494 26 C 436 -4 377 -20 317 -20 C 241 -20 182 -1 138 35 C 94 72 72 126 72 197 C 72 207 73 224 76 246 C 78 268 81 285 84 299 L 178 739 L 78 739 L 133 995 L 610 995 L 489 428 C 486 415 484 402 483 389 C 481 376 481 367 481 362 C 481 335 488 314 504 299 C 519 283 540 276 567 276 C 597 276 624 287 650 311 C 675 334 692 363 700 399 L 774 739 L 674 739 L 729 995 Z" unicode="ù" />
<glyph horiz-adv-x="1231" d="M 743 1475 L 1067 1475 L 700 1104 L 514 1104 L 743 1475 Z M 729 995 L 1204 995 L 1047 256 L 1147 256 L 1092 0 L 621 0 L 651 145 C 605 97 552 57 494 26 C 436 -4 377 -20 317 -20 C 241 -20 182 -1 138 35 C 94 72 72 126 72 197 C 72 207 73 224 76 246 C 78 268 81 285 84 299 L 178 739 L 78 739 L 133 995 L 610 995 L 489 428 C 486 415 484 402 483 389 C 481 376 481 367 481 362 C 481 335 488 314 504 299 C 519 283 540 276 567 276 C 597 276 624 287 650 311 C 675 334 692 363 700 399 L 774 739 L 674 739 L 729 995 Z" unicode="ú" />
<glyph horiz-adv-x="1231" d="M 883 1475 L 1028 1104 L 868 1104 L 733 1307 L 506 1104 L 346 1104 L 635 1475 L 883 1475 Z M 729 995 L 1204 995 L 1047 256 L 1147 256 L 1092 0 L 621 0 L 651 145 C 605 97 552 57 494 26 C 436 -4 377 -20 317 -20 C 241 -20 182 -1 138 35 C 94 72 72 126 72 197 C 72 207 73 224 76 246 C 78 268 81 285 84 299 L 178 739 L 78 739 L 133 995 L 610 995 L 489 428 C 486 415 484 402 483 389 C 481 376 481 367 481 362 C 481 335 488 314 504 299 C 519 283 540 276 567 276 C 597 276 624 287 650 311 C 675 334 692 363 700 399 L 774 739 L 674 739 L 729 995 Z" unicode="û" />
<glyph horiz-adv-x="1231" d="M 428 1411 L 684 1411 L 627 1141 L 371 1141 L 428 1411 Z M 825 1411 L 1083 1411 L 1026 1141 L 768 1141 L 825 1411 Z M 729 995 L 1204 995 L 1047 256 L 1147 256 L 1092 0 L 621 0 L 651 145 C 605 97 552 57 494 26 C 436 -4 377 -20 317 -20 C 241 -20 182 -1 138 35 C 94 72 72 126 72 197 C 72 207 73 224 76 246 C 78 268 81 285 84 299 L 178 739 L 78 739 L 133 995 L 610 995 L 489 428 C 486 415 484 402 483 389 C 481 376 481 367 481 362 C 481 335 488 314 504 299 C 519 283 540 276 567 276 C 597 276 624 287 650 311 C 675 334 692 363 700 399 L 774 739 L 674 739 L 729 995 Z" unicode="ü" />
<glyph horiz-adv-x="1182" d="M 766 1475 L 1090 1475 L 723 1104 L 537 1104 L 766 1475 Z M 797 995 L 1262 995 L 1206 739 L 1120 739 L 551 -139 L 715 -139 L 659 -395 L 82 -395 L 137 -139 L 283 -139 L 383 20 L 166 739 L 72 739 L 127 995 L 680 995 L 625 739 L 543 739 L 637 399 L 838 739 L 741 739 L 797 995 Z" unicode="ý" />
<glyph horiz-adv-x="1182" d="M 438 1411 L 694 1411 L 637 1141 L 381 1141 L 438 1411 Z M 836 1411 L 1094 1411 L 1036 1141 L 778 1141 L 836 1411 Z M 797 995 L 1262 995 L 1206 739 L 1120 739 L 551 -139 L 715 -139 L 659 -395 L 82 -395 L 137 -139 L 283 -139 L 383 20 L 166 739 L 72 739 L 127 995 L 680 995 L 625 739 L 543 739 L 637 399 L 838 739 L 741 739 L 797 995 Z" unicode="ÿ" />
<glyph horiz-adv-x="657" d="M 162 995 L 637 995 L 479 256 L 580 256 L 524 0 L -43 0 L 12 256 L 104 256 L 207 739 L 106 739 L 162 995 Z" unicode="ı" />
<glyph horiz-adv-x="2003" d="M 823 326 L 997 1149 C 972 1169 944 1183 914 1189 C 883 1195 855 1198 829 1198 C 774 1198 727 1172 688 1122 C 649 1072 617 1010 593 937 C 569 863 551 784 540 700 C 529 616 524 540 524 473 C 524 407 535 357 558 324 C 581 290 616 274 664 274 C 686 274 711 277 737 284 C 763 290 791 304 823 326 Z M 1135 1475 L 2101 1475 L 1980 911 L 1665 911 L 1718 1165 L 1413 1165 L 1358 909 L 1597 909 L 1530 588 L 1290 588 L 1231 309 L 1538 309 L 1599 588 L 1915 588 L 1790 0 L 829 0 C 778 -10 735 -17 700 -22 C 664 -26 628 -29 590 -29 C 506 -29 432 -14 366 14 C 300 43 244 84 198 136 C 152 188 117 250 93 324 C 69 397 57 477 57 565 C 57 698 76 822 116 937 C 155 1052 209 1151 278 1235 C 346 1318 428 1383 523 1431 C 617 1479 719 1503 829 1503 C 847 1503 870 1502 896 1501 C 922 1500 948 1498 976 1496 C 1004 1494 1031 1491 1059 1487 C 1087 1483 1112 1479 1135 1475 Z" unicode="Œ" />
<glyph horiz-adv-x="1698" d="M 1227 1022 C 1369 1022 1479 987 1559 918 C 1639 848 1679 750 1679 623 C 1679 599 1677 573 1675 547 C 1672 520 1669 497 1665 479 L 1653 426 L 1032 426 C 1028 404 1025 385 1023 367 C 1021 349 1020 336 1020 326 C 1020 286 1029 255 1047 235 C 1065 215 1092 205 1128 205 C 1166 205 1198 217 1222 241 C 1246 265 1265 297 1278 338 L 1632 338 C 1615 282 1592 232 1563 186 C 1533 140 1497 100 1455 68 C 1413 36 1364 11 1308 -6 C 1252 -24 1189 -33 1120 -33 C 1058 -33 1002 -23 951 -5 C 900 13 855 39 815 72 C 770 40 720 14 664 -4 C 608 -23 549 -33 485 -33 C 411 -33 346 -22 289 0 C 231 21 183 51 144 90 C 105 128 75 175 55 230 C 35 284 25 344 25 410 C 25 495 39 575 68 650 C 97 724 137 789 189 844 C 241 899 303 942 377 974 C 450 1006 530 1022 618 1022 C 679 1022 735 1013 785 996 C 835 978 880 955 918 926 C 960 954 1008 977 1060 995 C 1112 1013 1167 1022 1227 1022 Z M 1315 598 C 1319 614 1321 630 1323 646 C 1324 661 1325 675 1325 688 C 1325 722 1317 750 1302 771 C 1286 792 1261 803 1225 803 C 1175 803 1139 784 1115 747 C 1091 709 1073 660 1061 598 L 1315 598 Z M 684 496 C 692 532 697 562 701 588 C 705 614 707 635 707 653 C 707 687 700 715 686 737 C 672 759 646 770 610 770 C 558 770 518 747 491 701 C 464 655 441 587 422 496 C 415 460 410 429 406 405 C 402 381 401 358 401 338 C 401 301 407 272 421 251 C 434 229 459 219 496 219 C 544 219 582 239 609 279 C 636 319 661 392 684 496 Z" unicode="œ" />
<glyph horiz-adv-x="1438" d="M 649 1847 L 905 1847 L 848 1577 L 592 1577 L 649 1847 Z M 1047 1847 L 1305 1847 L 1247 1577 L 989 1577 L 1047 1847 Z M 1034 1475 L 1599 1475 L 1532 1161 L 1432 1161 L 934 571 L 881 313 L 1030 313 L 963 0 L 258 0 L 326 313 L 463 313 L 516 571 L 252 1161 L 139 1161 L 207 1475 L 887 1475 L 819 1161 L 707 1161 L 834 840 L 1092 1161 L 967 1161 L 1034 1475 Z" unicode="Ÿ" />
<glyph horiz-adv-x="981" d="M 844 1495 C 861 1495 879 1494 899 1493 C 918 1491 937 1489 956 1487 C 975 1484 993 1481 1011 1478 C 1028 1475 1043 1472 1057 1468 L 999 1194 C 984 1198 967 1202 949 1206 C 931 1210 911 1212 891 1212 C 851 1212 817 1200 789 1177 C 761 1153 742 1117 733 1069 L 688 838 L 911 838 L 862 614 L 651 614 L 547 76 C 534 11 512 -44 482 -91 C 451 -137 414 -176 371 -206 C 327 -236 279 -258 226 -272 C 172 -286 117 -293 59 -293 C 25 -293 -10 -290 -47 -285 C -84 -279 -116 -273 -143 -266 L -84 6 C -70 3 -54 0 -35 -4 C -15 -8 2 -10 18 -10 C 58 -10 92 0 120 18 C 148 37 168 75 178 131 L 268 614 L 78 614 L 127 838 L 309 838 L 367 1126 C 379 1190 400 1245 430 1292 C 460 1338 495 1377 537 1407 C 579 1437 626 1459 678 1473 C 730 1487 786 1495 844 1495 Z" unicode="ƒ" />
<glyph horiz-adv-x="1024" d="M 801 1475 L 946 1104 L 786 1104 L 651 1307 L 424 1104 L 264 1104 L 553 1475 L 801 1475 Z" unicode="ˆ" />
<glyph horiz-adv-x="1024" d="M 862 1475 L 1022 1475 L 733 1104 L 485 1104 L 340 1475 L 500 1475 L 635 1272 L 862 1475 Z" unicode="ˇ" />
<glyph horiz-adv-x="1024" d="M 338 1333 L 985 1333 L 948 1163 L 301 1163 L 338 1333 Z" unicode="ˉ" />
<glyph horiz-adv-x="1024" d="M 870 1475 L 1001 1475 C 988 1422 971 1374 950 1331 C 928 1288 903 1251 873 1221 C 843 1191 808 1167 768 1151 C 728 1134 683 1126 633 1126 C 588 1126 549 1133 516 1147 C 483 1161 456 1180 434 1205 C 412 1230 396 1261 386 1297 C 376 1333 371 1373 371 1417 C 371 1426 371 1435 371 1445 C 371 1454 372 1464 373 1475 L 504 1475 L 504 1454 C 504 1411 516 1375 542 1346 C 568 1317 608 1303 662 1303 C 691 1303 717 1307 741 1316 C 765 1325 785 1337 803 1353 C 821 1369 835 1387 846 1408 C 857 1429 865 1451 870 1475 Z" unicode="˘" />
<glyph horiz-adv-x="1024" d="M 553 1411 L 811 1411 L 754 1141 L 496 1141 L 553 1411 Z" unicode="˙" />
<glyph horiz-adv-x="1024" d="M 631 1624 C 669 1624 705 1617 739 1603 C 773 1589 802 1570 828 1546 C 853 1522 873 1493 888 1461 C 903 1428 911 1393 911 1356 C 911 1318 903 1283 888 1251 C 873 1218 853 1190 828 1166 C 802 1142 773 1124 739 1110 C 705 1096 669 1090 631 1090 C 593 1090 556 1096 522 1110 C 488 1124 458 1142 433 1166 C 408 1189 388 1217 374 1250 C 359 1282 352 1318 352 1356 C 352 1393 359 1428 374 1461 C 388 1493 408 1522 433 1546 C 458 1570 488 1589 522 1603 C 556 1617 593 1624 631 1624 Z M 631 1237 C 663 1237 691 1248 715 1272 C 738 1295 750 1323 750 1356 C 750 1388 738 1416 715 1440 C 691 1463 663 1475 631 1475 C 598 1475 570 1463 547 1440 C 523 1416 512 1388 512 1356 C 512 1323 523 1295 546 1272 C 568 1248 597 1237 631 1237 Z" unicode="˚" />
<glyph horiz-adv-x="1024" d="M 889 1417 L 1014 1417 C 1002 1378 987 1342 971 1309 C 954 1275 934 1247 912 1223 C 890 1199 864 1180 835 1166 C 805 1152 772 1145 735 1145 C 710 1145 687 1149 666 1158 C 645 1167 624 1177 604 1188 C 586 1196 569 1203 553 1211 C 536 1219 519 1223 502 1223 C 478 1223 460 1214 446 1196 C 432 1178 420 1154 410 1126 L 285 1126 C 310 1209 345 1275 390 1325 C 434 1374 491 1399 559 1399 C 584 1399 607 1394 629 1385 C 650 1375 671 1366 692 1356 C 707 1347 724 1339 743 1332 C 761 1324 780 1321 799 1321 C 819 1321 837 1329 851 1346 C 865 1362 878 1386 889 1417 Z" unicode="˜" />
<glyph horiz-adv-x="1622" d="" unicode="Ω" />
<glyph horiz-adv-x="1257" d="M 168 995 L 1303 995 L 1247 739 L 1133 739 L 1032 256 L 1155 256 L 1100 0 L 602 0 L 758 739 L 596 739 L 440 0 L 66 0 L 221 739 L 113 739 L 168 995 Z" unicode="π" />
<glyph horiz-adv-x="1108" d="M 115 639 L 1057 639 L 999 377 L 57 377 L 115 639 Z" unicode="–" />
<glyph horiz-adv-x="1710" d="M 115 639 L 1659 639 L 1602 377 L 57 377 L 115 639 Z" unicode="—" />
<glyph horiz-adv-x="1710" d="M 2 262 L 1436 262 L 1378 0 L -55 0 L 2 262 Z" unicode="―" />
<glyph horiz-adv-x="532" d="M 479 1475 L 713 1475 L 449 866 L 80 866 L 479 1475 Z" unicode="‘" />
<glyph horiz-adv-x="532" d="M 340 1475 L 709 1475 L 309 866 L 76 866 L 340 1475 Z" unicode="’" />
<glyph horiz-adv-x="532" d="M 119 385 L 487 385 L 88 -223 L -145 -223 L 119 385 Z" unicode="‚" />
<glyph horiz-adv-x="991" d="M 481 1475 L 715 1475 L 449 866 L 80 866 L 481 1475 Z M 940 1475 L 1174 1475 L 907 866 L 539 866 L 940 1475 Z" unicode="“" />
<glyph horiz-adv-x="991" d="M 340 1475 L 709 1475 L 309 866 L 76 866 L 340 1475 Z M 799 1475 L 1167 1475 L 768 866 L 535 866 L 799 1475 Z" unicode="”" />
<glyph horiz-adv-x="991" d="M 119 385 L 487 385 L 88 -223 L -145 -223 L 119 385 Z M 578 385 L 946 385 L 547 -223 L 313 -223 L 578 385 Z" unicode="„" />
<glyph horiz-adv-x="985" d="M 858 1087 L 1047 1087 L 967 713 L 778 713 L 797 799 L 647 799 L 422 -258 L 207 -258 L 432 799 L 283 799 L 264 713 L 76 713 L 156 1087 L 344 1087 L 324 997 L 473 997 L 535 1286 L 457 1286 L 498 1475 L 866 1475 L 825 1286 L 750 1286 L 688 997 L 838 997 L 858 1087 Z" unicode="†" />
<glyph horiz-adv-x="985" d="M 858 1098 L 1047 1098 L 967 723 L 778 723 L 797 809 L 647 809 L 561 403 L 711 403 L 729 489 L 918 489 L 838 115 L 649 115 L 668 205 L 518 205 L 459 -74 L 537 -74 L 498 -262 L 129 -262 L 168 -74 L 244 -74 L 303 205 L 154 205 L 135 115 L -53 115 L 27 489 L 215 489 L 197 403 L 346 403 L 432 809 L 283 809 L 264 723 L 76 723 L 156 1098 L 344 1098 L 326 1008 L 475 1008 L 535 1286 L 457 1286 L 496 1475 L 864 1475 L 825 1286 L 750 1286 L 690 1008 L 840 1008 L 858 1098 Z" unicode="‡" />
<glyph horiz-adv-x="866" d="M 829 717 C 829 663 818 611 797 563 C 776 515 748 473 712 437 C 676 401 635 372 587 351 C 539 329 488 319 434 319 C 379 319 327 329 279 351 C 231 372 189 401 153 437 C 117 473 89 515 68 563 C 47 611 37 663 37 717 C 37 771 47 822 68 870 C 89 918 117 961 153 997 C 189 1033 231 1061 279 1082 C 327 1103 379 1114 434 1114 C 488 1114 539 1103 587 1082 C 635 1061 676 1033 712 997 C 748 961 776 918 797 870 C 818 822 829 771 829 717 Z" unicode="•" />
<glyph horiz-adv-x="1597" d="M 68 399 L 426 399 L 342 0 L -16 0 L 68 399 Z M 600 399 L 958 399 L 874 0 L 516 0 L 600 399 Z M 1133 399 L 1491 399 L 1407 0 L 1049 0 L 1133 399 Z" unicode="…" />
<glyph horiz-adv-x="2718" d="M 600 1499 C 656 1499 705 1491 749 1475 C 792 1459 828 1436 858 1407 C 887 1378 909 1343 925 1301 C 940 1259 948 1213 948 1163 C 948 1098 937 1036 915 977 C 893 918 862 866 822 822 C 782 777 733 741 677 715 C 621 689 559 676 492 676 C 436 676 386 683 343 699 C 299 715 263 737 233 766 C 203 795 181 830 166 872 C 150 913 143 959 143 1010 C 143 1076 154 1139 176 1199 C 198 1259 229 1311 269 1355 C 309 1399 357 1434 414 1460 C 470 1486 532 1499 600 1499 Z M 1427 1499 L 1653 1499 L 498 -25 L 272 -25 L 1427 1499 Z M 659 1085 C 665 1111 669 1136 671 1160 C 673 1183 674 1204 674 1223 C 674 1249 667 1271 655 1289 C 643 1306 621 1315 590 1315 C 545 1315 512 1296 491 1260 C 469 1223 450 1168 434 1094 C 427 1064 423 1037 421 1014 C 419 991 418 970 418 952 C 418 923 424 900 437 884 C 449 868 471 860 502 860 C 542 860 574 876 598 910 C 622 943 642 1001 659 1085 Z M 1434 799 C 1490 799 1539 791 1583 775 C 1626 759 1662 736 1692 707 C 1721 678 1743 643 1759 601 C 1774 559 1782 513 1782 463 C 1782 398 1770 336 1748 277 C 1726 217 1695 165 1655 121 C 1615 77 1567 41 1511 15 C 1454 -11 1392 -25 1325 -25 C 1269 -25 1220 -17 1176 -1 C 1132 14 1096 36 1067 65 C 1037 94 1015 129 1000 171 C 984 212 977 258 977 309 C 977 375 988 439 1010 499 C 1032 559 1063 611 1103 655 C 1143 699 1191 734 1247 760 C 1303 786 1366 799 1434 799 Z M 2292 799 C 2348 799 2397 791 2441 775 C 2484 759 2520 736 2550 707 C 2579 678 2601 643 2617 601 C 2632 559 2640 513 2640 463 C 2640 398 2629 336 2607 277 C 2585 217 2554 165 2514 121 C 2474 77 2425 41 2369 15 C 2313 -11 2251 -25 2183 -25 C 2127 -25 2078 -17 2034 -1 C 1990 14 1954 36 1925 65 C 1895 94 1873 129 1858 171 C 1842 212 1835 258 1835 309 C 1835 375 1846 439 1868 499 C 1890 559 1921 611 1961 655 C 2001 699 2049 734 2105 760 C 2161 786 2224 799 2292 799 Z M 1493 385 C 1497 411 1501 436 1503 459 C 1505 482 1507 503 1507 522 C 1507 548 1501 570 1489 588 C 1477 605 1455 614 1423 614 C 1378 614 1345 595 1324 559 C 1302 523 1284 467 1268 393 C 1261 363 1256 337 1254 314 C 1252 291 1251 270 1251 252 C 1251 223 1257 200 1270 184 C 1282 168 1304 160 1335 160 C 1375 160 1407 176 1430 209 C 1453 241 1474 300 1493 385 Z M 2351 385 C 2355 411 2359 436 2361 459 C 2363 482 2365 503 2365 522 C 2365 548 2359 570 2347 588 C 2335 605 2313 614 2281 614 C 2236 614 2203 595 2182 559 C 2161 523 2142 467 2126 393 C 2120 363 2115 337 2113 314 C 2110 291 2109 270 2109 252 C 2109 223 2115 200 2128 184 C 2140 168 2162 160 2193 160 C 2233 160 2265 176 2288 209 C 2311 241 2332 300 2351 385 Z" unicode="‰" />
<glyph horiz-adv-x="629" d="M 449 995 L 659 995 L 311 494 L 432 0 L 236 0 L 102 510 L 449 995 Z" unicode="‹" />
<glyph horiz-adv-x="629" d="M 393 995 L 526 485 L 180 0 L -31 0 L 317 502 L 197 995 L 393 995 Z" unicode="›" />
<glyph horiz-adv-x="639" d="M 815 1499 L 1040 1499 L -115 -25 L -340 -25 L 815 1499 Z" unicode="⁄" />
<glyph horiz-adv-x="1319" d="M 1141 1475 L 1423 1475 L 1333 1051 L 1020 1051 C 1022 1061 1023 1071 1024 1082 C 1025 1093 1026 1102 1026 1108 C 1026 1139 1017 1166 999 1189 C 981 1211 949 1223 905 1223 C 841 1223 791 1201 755 1158 C 718 1114 688 1048 666 958 L 1137 958 L 1102 795 L 629 795 L 610 674 L 975 674 L 940 510 L 598 510 C 597 494 596 480 595 466 C 594 452 594 438 594 426 C 594 370 605 327 627 297 C 649 267 686 252 739 252 C 764 252 787 256 809 266 C 831 275 849 288 865 304 C 881 320 894 338 904 358 C 914 378 922 400 926 422 L 1276 422 C 1266 364 1247 307 1219 253 C 1191 198 1154 149 1107 107 C 1059 65 1001 31 933 5 C 864 -20 784 -33 692 -33 C 615 -33 545 -22 483 0 C 420 21 367 54 323 98 C 279 142 245 198 221 267 C 197 335 184 416 184 510 L 25 510 L 59 674 L 201 674 C 201 686 202 703 206 727 C 210 751 214 773 219 795 L 84 795 L 119 958 L 252 958 C 283 1050 321 1130 366 1200 C 410 1269 459 1326 512 1371 C 565 1416 622 1450 682 1473 C 742 1495 804 1507 868 1507 C 933 1507 985 1497 1024 1478 C 1063 1459 1097 1433 1126 1399 L 1141 1475 Z" unicode="€" />
<glyph horiz-adv-x="1720" d="M 846 1475 L 846 1206 L 705 1206 L 705 1339 L 618 1339 L 618 891 L 688 891 L 688 752 L 350 752 L 350 891 L 422 891 L 422 1339 L 334 1339 L 334 1206 L 195 1206 L 195 1475 L 846 1475 Z M 1778 891 L 1778 752 L 1460 752 L 1460 891 L 1522 891 L 1522 1272 L 1503 1276 L 1341 788 L 1284 788 L 1124 1276 L 1104 1272 L 1104 891 L 1165 891 L 1165 752 L 911 752 L 911 891 L 973 891 L 973 1333 L 911 1333 L 911 1475 L 1264 1475 L 1356 1163 L 1456 1475 L 1776 1475 L 1776 1333 L 1712 1333 L 1712 891 L 1778 891 Z" unicode="™" />
<glyph horiz-adv-x="1683" d="M 1272 1499 L 1497 1499 L 342 -25 L 117 -25 L 1272 1499 Z M 281 1475 L 635 1475 L 492 805 L 592 805 L 555 629 L 109 629 L 145 805 L 238 805 L 342 1294 L 242 1294 L 281 1475 Z M 1333 860 C 1424 860 1495 841 1545 804 C 1595 767 1620 719 1620 659 C 1620 631 1615 605 1605 581 C 1595 557 1581 535 1564 516 C 1547 496 1527 479 1505 465 C 1482 450 1458 438 1434 430 C 1482 419 1518 399 1544 370 C 1570 340 1583 306 1583 266 C 1583 226 1574 188 1556 154 C 1538 119 1511 89 1477 64 C 1443 38 1400 18 1350 4 C 1299 -10 1242 -18 1178 -18 C 1122 -18 1075 -11 1036 1 C 997 13 965 30 941 52 C 917 74 899 99 888 128 C 877 157 872 188 872 221 C 872 230 872 240 873 250 C 874 260 875 270 877 281 L 1112 281 C 1111 273 1110 266 1110 259 C 1110 252 1110 246 1110 242 C 1110 213 1117 191 1132 177 C 1146 163 1166 156 1192 156 C 1232 156 1261 167 1281 190 C 1301 213 1311 238 1311 266 C 1311 285 1305 302 1293 316 C 1281 330 1258 338 1223 338 L 1153 338 L 1192 512 L 1231 512 C 1277 512 1310 523 1329 546 C 1348 568 1358 594 1358 623 C 1358 642 1351 657 1337 668 C 1323 678 1305 684 1284 684 C 1265 684 1249 680 1237 673 C 1225 666 1215 657 1207 647 C 1199 637 1192 625 1188 612 C 1184 599 1180 587 1178 575 L 1174 559 L 944 559 C 952 608 967 651 989 689 C 1011 727 1039 758 1073 783 C 1106 808 1145 827 1189 840 C 1233 853 1281 860 1333 860 Z" unicode="⅓" />
<glyph horiz-adv-x="1919" d="M 1507 1499 L 1733 1499 L 578 -25 L 352 -25 L 1507 1499 Z M 586 1491 C 675 1491 746 1471 800 1431 C 854 1391 881 1338 881 1272 C 881 1210 860 1154 820 1104 C 779 1054 720 1007 643 963 C 608 943 569 922 527 898 C 485 874 446 847 410 817 L 623 817 L 643 909 L 850 909 L 791 629 L 92 629 C 92 637 92 646 94 656 C 95 666 96 673 96 676 C 100 706 108 735 120 761 C 131 787 146 812 165 837 C 184 861 207 886 235 912 C 262 937 294 964 330 993 C 374 1029 413 1058 448 1082 C 482 1106 508 1124 524 1137 C 547 1153 565 1171 578 1191 C 591 1211 598 1231 598 1253 C 598 1272 591 1287 579 1299 C 567 1311 548 1317 524 1317 C 488 1317 463 1302 447 1274 C 431 1246 422 1211 420 1171 L 418 1147 L 188 1147 C 198 1211 214 1265 238 1309 C 262 1353 291 1388 326 1415 C 360 1441 400 1461 444 1473 C 488 1485 536 1491 586 1491 Z M 1569 860 C 1659 860 1730 841 1780 804 C 1830 767 1855 719 1855 659 C 1855 631 1850 605 1840 581 C 1830 557 1816 535 1799 516 C 1782 496 1762 479 1740 465 C 1717 450 1693 438 1669 430 C 1717 419 1754 399 1780 370 C 1806 340 1819 306 1819 266 C 1819 226 1809 188 1791 154 C 1773 119 1746 89 1712 64 C 1678 38 1635 18 1585 4 C 1534 -10 1477 -18 1413 -18 C 1358 -18 1311 -11 1272 1 C 1233 13 1201 30 1177 52 C 1153 74 1135 99 1124 128 C 1113 157 1108 188 1108 221 C 1108 230 1108 240 1109 250 C 1110 260 1111 270 1112 281 L 1348 281 C 1347 273 1346 266 1346 259 C 1346 252 1346 246 1346 242 C 1346 213 1353 191 1367 177 C 1381 163 1401 156 1427 156 C 1467 156 1496 167 1516 190 C 1536 213 1546 238 1546 266 C 1546 285 1540 302 1529 316 C 1517 330 1494 338 1458 338 L 1389 338 L 1427 512 L 1466 512 C 1513 512 1546 523 1565 546 C 1583 568 1593 594 1593 623 C 1593 642 1586 657 1572 668 C 1558 678 1541 684 1520 684 C 1501 684 1485 680 1473 673 C 1460 666 1450 657 1442 647 C 1434 637 1428 625 1424 612 C 1419 599 1415 587 1413 575 L 1409 559 L 1180 559 C 1188 608 1203 651 1225 689 C 1247 727 1274 758 1308 783 C 1341 808 1380 827 1424 840 C 1468 853 1517 860 1569 860 Z" unicode="⅔" />
<glyph horiz-adv-x="1716" d="M 1272 1499 L 1497 1499 L 342 -25 L 117 -25 L 1272 1499 Z M 281 1475 L 635 1475 L 492 805 L 592 805 L 555 629 L 109 629 L 145 805 L 238 805 L 342 1294 L 242 1294 L 281 1475 Z M 1333 860 C 1431 860 1508 841 1566 805 C 1624 768 1653 718 1653 655 C 1653 601 1637 554 1607 514 C 1576 474 1526 444 1456 426 C 1512 412 1552 390 1576 358 C 1600 326 1612 290 1612 248 C 1612 210 1602 174 1584 141 C 1565 108 1539 79 1505 55 C 1471 31 1429 12 1381 -2 C 1333 -16 1279 -23 1221 -23 C 1108 -23 1020 -3 957 36 C 893 75 862 128 862 195 C 862 253 882 305 922 349 C 962 393 1022 421 1102 434 C 1050 450 1014 473 995 502 C 976 531 967 564 967 600 C 967 634 975 667 992 699 C 1009 731 1033 758 1065 782 C 1096 806 1134 825 1180 839 C 1225 853 1276 860 1333 860 Z M 1292 520 C 1324 520 1348 531 1366 553 C 1384 575 1393 601 1393 629 C 1393 647 1387 663 1375 677 C 1363 691 1346 698 1323 698 C 1306 698 1291 694 1279 687 C 1267 680 1257 671 1249 661 C 1241 650 1235 638 1231 625 C 1227 611 1225 598 1225 586 C 1225 568 1230 553 1241 540 C 1252 526 1269 520 1292 520 Z M 1219 139 C 1238 139 1255 142 1269 150 C 1283 158 1295 168 1305 180 C 1314 192 1321 205 1326 220 C 1330 235 1333 250 1333 264 C 1333 285 1327 303 1316 318 C 1305 332 1286 340 1260 340 C 1221 340 1192 327 1173 301 C 1154 275 1145 247 1145 215 C 1145 194 1151 176 1163 161 C 1175 146 1194 139 1219 139 Z" unicode="⅛" />
<glyph horiz-adv-x="1878" d="M 1434 1499 L 1659 1499 L 504 -25 L 279 -25 L 1434 1499 Z M 575 1491 C 666 1491 737 1472 787 1435 C 837 1398 862 1350 862 1290 C 862 1262 857 1236 847 1212 C 837 1188 823 1166 806 1147 C 789 1127 769 1110 747 1096 C 724 1081 700 1069 676 1061 C 724 1049 760 1029 786 1000 C 812 971 825 937 825 897 C 825 857 816 819 798 785 C 780 750 753 720 719 694 C 685 668 642 648 592 634 C 541 619 484 612 420 612 C 365 612 318 618 279 631 C 240 643 208 660 184 682 C 160 704 142 729 131 759 C 120 788 115 819 115 852 C 115 860 115 870 116 880 C 117 890 118 901 119 911 L 354 911 C 353 904 352 897 352 890 C 352 883 352 877 352 872 C 352 843 359 821 374 807 C 388 793 408 786 434 786 C 474 786 503 797 523 821 C 543 844 553 869 553 897 C 553 916 547 933 536 947 C 524 961 501 969 465 969 L 395 969 L 434 1143 L 473 1143 C 519 1143 552 1154 571 1176 C 590 1198 600 1224 600 1253 C 600 1272 593 1287 579 1298 C 565 1309 547 1315 526 1315 C 507 1315 491 1311 479 1304 C 467 1297 457 1288 449 1278 C 441 1267 435 1255 431 1243 C 426 1230 422 1218 420 1206 L 416 1190 L 186 1190 C 194 1238 209 1281 231 1319 C 253 1357 281 1388 315 1414 C 348 1439 387 1458 431 1471 C 475 1484 523 1491 575 1491 Z M 1495 860 C 1593 860 1670 841 1728 805 C 1786 768 1815 718 1815 655 C 1815 601 1799 554 1769 514 C 1738 474 1688 444 1618 426 C 1674 412 1714 390 1738 358 C 1762 326 1774 290 1774 248 C 1774 210 1764 174 1746 141 C 1727 108 1700 79 1666 55 C 1632 31 1590 12 1542 -2 C 1494 -16 1440 -23 1382 -23 C 1270 -23 1182 -3 1119 36 C 1055 75 1024 128 1024 195 C 1024 253 1044 305 1084 349 C 1124 393 1184 421 1264 434 C 1212 450 1176 473 1157 502 C 1137 531 1128 564 1128 600 C 1128 634 1136 667 1153 699 C 1170 731 1194 758 1226 782 C 1258 806 1296 825 1342 839 C 1387 853 1438 860 1495 860 Z M 1454 520 C 1486 520 1510 531 1528 553 C 1545 575 1554 601 1554 629 C 1554 647 1548 663 1537 677 C 1525 691 1508 698 1485 698 C 1468 698 1453 694 1441 687 C 1429 680 1418 671 1410 661 C 1402 650 1396 638 1392 625 C 1388 611 1386 598 1386 586 C 1386 568 1391 553 1403 540 C 1414 526 1431 520 1454 520 Z M 1380 139 C 1399 139 1416 142 1431 150 C 1445 158 1457 168 1467 180 C 1476 192 1483 205 1488 220 C 1492 235 1495 250 1495 264 C 1495 285 1489 303 1478 318 C 1466 332 1447 340 1421 340 C 1382 340 1353 327 1335 301 C 1316 275 1307 247 1307 215 C 1307 194 1313 176 1325 161 C 1337 146 1355 139 1380 139 Z" unicode="⅜" />
<glyph horiz-adv-x="1878" d="M 1434 1499 L 1659 1499 L 504 -25 L 279 -25 L 1434 1499 Z M 328 1475 L 924 1475 L 868 1237 L 657 1237 L 672 1290 L 492 1290 L 455 1169 C 476 1180 498 1189 522 1195 C 546 1201 570 1204 596 1204 C 673 1204 735 1183 782 1142 C 828 1101 852 1047 852 979 C 852 929 843 882 825 838 C 807 794 780 755 745 722 C 710 689 667 663 616 643 C 564 623 506 614 440 614 C 383 614 334 620 293 632 C 251 644 217 661 191 683 C 165 704 145 729 133 759 C 121 789 115 821 115 856 C 115 864 115 873 117 883 C 119 893 120 904 121 918 L 367 918 C 363 905 361 894 360 884 C 358 874 358 866 358 862 C 358 838 365 820 379 807 C 393 794 414 788 442 788 C 462 788 480 792 495 802 C 510 811 522 823 532 838 C 542 853 549 870 554 890 C 558 909 561 929 561 950 C 561 973 555 992 543 1008 C 531 1024 509 1032 479 1032 C 458 1032 438 1026 419 1016 C 399 1005 379 989 358 969 L 178 1026 L 328 1475 Z M 1495 860 C 1593 860 1670 841 1728 805 C 1786 768 1815 718 1815 655 C 1815 601 1799 554 1769 514 C 1738 474 1688 444 1618 426 C 1674 412 1714 390 1738 358 C 1762 326 1774 290 1774 248 C 1774 210 1764 174 1746 141 C 1727 108 1700 79 1666 55 C 1632 31 1590 12 1542 -2 C 1494 -16 1440 -23 1382 -23 C 1270 -23 1182 -3 1119 36 C 1055 75 1024 128 1024 195 C 1024 253 1044 305 1084 349 C 1124 393 1184 421 1264 434 C 1212 450 1176 473 1157 502 C 1137 531 1128 564 1128 600 C 1128 634 1136 667 1153 699 C 1170 731 1194 758 1226 782 C 1258 806 1296 825 1342 839 C 1387 853 1438 860 1495 860 Z M 1454 520 C 1486 520 1510 531 1528 553 C 1545 575 1554 601 1554 629 C 1554 647 1548 663 1537 677 C 1525 691 1508 698 1485 698 C 1468 698 1453 694 1441 687 C 1429 680 1418 671 1410 661 C 1402 650 1396 638 1392 625 C 1388 611 1386 598 1386 586 C 1386 568 1391 553 1403 540 C 1414 526 1431 520 1454 520 Z M 1380 139 C 1399 139 1416 142 1431 150 C 1445 158 1457 168 1467 180 C 1476 192 1483 205 1488 220 C 1492 235 1495 250 1495 264 C 1495 285 1489 303 1478 318 C 1466 332 1447 340 1421 340 C 1382 340 1353 327 1335 301 C 1316 275 1307 247 1307 215 C 1307 194 1313 176 1325 161 C 1337 146 1355 139 1380 139 Z" unicode="⅝" />
<glyph horiz-adv-x="1817" d="M 1372 1499 L 1597 1499 L 442 -25 L 217 -25 L 1372 1499 Z M 283 1475 L 958 1475 L 920 1307 L 582 809 L 672 809 L 631 633 L 170 633 L 211 809 L 299 809 L 623 1288 L 451 1288 L 416 1143 L 205 1143 L 283 1475 Z M 1434 860 C 1531 860 1608 841 1666 805 C 1724 768 1753 718 1753 655 C 1753 601 1737 554 1707 514 C 1677 474 1626 444 1556 426 C 1612 412 1652 390 1676 358 C 1700 326 1712 290 1712 248 C 1712 210 1702 174 1684 141 C 1665 108 1639 79 1605 55 C 1571 31 1529 12 1481 -2 C 1433 -16 1379 -23 1321 -23 C 1209 -23 1121 -3 1058 36 C 994 75 963 128 963 195 C 963 253 983 305 1023 349 C 1063 393 1122 421 1202 434 C 1150 450 1114 473 1095 502 C 1076 531 1067 564 1067 600 C 1067 634 1075 667 1092 699 C 1109 731 1133 758 1165 782 C 1196 806 1234 825 1280 839 C 1326 853 1377 860 1434 860 Z M 1393 520 C 1424 520 1448 531 1466 553 C 1484 575 1493 601 1493 629 C 1493 647 1487 663 1475 677 C 1463 691 1446 698 1423 698 C 1407 698 1392 694 1380 687 C 1368 680 1357 671 1349 661 C 1341 650 1335 638 1331 625 C 1327 611 1325 598 1325 586 C 1325 568 1330 553 1342 540 C 1353 526 1370 520 1393 520 Z M 1319 139 C 1338 139 1355 142 1370 150 C 1384 158 1396 168 1406 180 C 1415 192 1422 205 1427 220 C 1431 235 1434 250 1434 264 C 1434 285 1428 303 1417 318 C 1405 332 1386 340 1360 340 C 1321 340 1292 327 1273 301 C 1254 275 1245 247 1245 215 C 1245 194 1251 176 1263 161 C 1275 146 1294 139 1319 139 Z" unicode="⅞" />
<glyph horiz-adv-x="1706" d="M 1479 745 L 1479 479 L 281 479 L 281 745 L 1479 745 Z" unicode="−" />
<glyph horiz-adv-x="911" d="M 842 1507 L 1096 1507 L 90 -94 L -162 -94 L 842 1507 Z" unicode="∕" />
<glyph horiz-adv-x="573" d="M 166 811 L 524 811 L 440 412 L 82 412 L 166 811 Z" unicode="∙" />
<glyph horiz-adv-x="1706" d="M 1499 1503 L 1769 1503 L 979 -57 L 799 -57 L 485 692 L 229 563 L 143 764 L 680 1001 L 930 385 L 1499 1503 Z" unicode="√" />
<glyph horiz-adv-x="1706" d="M 1190 1094 C 1257 1094 1317 1081 1371 1055 C 1425 1029 1470 995 1508 951 C 1545 907 1574 856 1594 797 C 1614 737 1624 674 1624 608 C 1624 540 1614 477 1594 418 C 1574 359 1545 308 1508 264 C 1470 220 1425 186 1371 161 C 1317 135 1257 123 1190 123 C 1124 123 1065 136 1012 163 C 958 189 912 226 874 272 C 836 226 790 189 736 163 C 682 136 622 123 557 123 C 489 123 429 135 375 161 C 321 186 276 220 239 264 C 201 308 173 359 153 418 C 133 477 123 540 123 608 C 123 674 133 737 153 797 C 173 856 201 907 239 951 C 276 995 321 1029 375 1055 C 429 1081 489 1094 557 1094 C 622 1094 681 1079 735 1051 C 788 1023 834 986 872 942 C 910 988 957 1024 1011 1052 C 1065 1080 1124 1094 1190 1094 Z M 559 377 C 583 377 607 382 629 392 C 651 402 671 416 687 436 C 703 455 716 479 726 508 C 736 537 741 570 741 608 C 741 645 736 678 726 707 C 716 736 703 760 687 780 C 671 800 651 815 629 825 C 607 835 583 840 559 840 C 512 840 473 821 441 783 C 409 745 393 686 393 608 C 393 530 409 472 441 434 C 473 396 512 377 559 377 Z M 1188 377 C 1234 377 1274 396 1306 434 C 1338 472 1354 530 1354 608 C 1354 686 1338 745 1306 783 C 1274 821 1234 840 1188 840 C 1162 840 1139 835 1117 825 C 1095 815 1075 800 1059 780 C 1043 760 1030 736 1020 707 C 1010 678 1006 645 1006 608 C 1006 570 1010 537 1020 508 C 1030 479 1043 455 1059 436 C 1075 416 1095 402 1117 392 C 1139 382 1162 377 1188 377 Z" unicode="∞" />
<glyph horiz-adv-x="1096" d="M 987 1153 L 987 274 L 109 274 L 109 1153 L 987 1153 Z" unicode="■" />
<glyph horiz-adv-x="1200" d="M 600 1286 L 1159 156 L 41 156 L 600 1286 Z" unicode="▲" />
<glyph horiz-adv-x="1239" d="M 109 1276 L 1239 717 L 109 158 L 109 1276 Z" unicode="▶" />
<glyph horiz-adv-x="1200" d="M 41 1264 L 1159 1264 L 600 133 L 41 1264 Z" unicode="▼" />
<glyph horiz-adv-x="1239" d="M 1130 1276 L 1130 158 L 0 717 L 1130 1276 Z" unicode="◀" />
<glyph horiz-adv-x="1100" d="M 666 1386 L 1053 707 L 666 0 L 494 0 L 104 707 L 494 1386 L 666 1386 Z M 580 248 L 815 705 L 580 1143 L 340 705 L 580 248 Z" unicode="◊" />
<glyph horiz-adv-x="1548" d="M 1516 741 C 1516 639 1496 542 1458 452 C 1419 361 1366 282 1300 216 C 1233 149 1154 96 1064 58 C 973 19 876 0 774 0 C 671 0 574 19 484 58 C 394 96 315 149 249 216 C 182 282 129 361 91 452 C 52 542 33 639 33 741 C 33 843 52 940 91 1030 C 129 1120 182 1199 249 1265 C 315 1331 394 1384 484 1423 C 574 1461 671 1481 774 1481 C 876 1481 973 1461 1064 1423 C 1154 1384 1233 1331 1300 1265 C 1366 1199 1419 1120 1458 1030 C 1496 940 1516 843 1516 741 Z" unicode="⬤" />
<glyph horiz-adv-x="1350" d="M 1073 1475 L 1432 1475 L 1356 1128 L 997 1128 L 1073 1475 Z M 758 1495 C 792 1495 828 1492 866 1487 C 904 1481 936 1475 963 1468 L 905 1202 C 893 1204 875 1207 853 1211 C 830 1215 811 1217 795 1217 C 755 1217 723 1206 699 1186 C 675 1166 658 1129 647 1075 L 631 995 L 752 995 L 696 739 L 578 739 L 479 256 L 590 256 L 535 0 L -43 0 L 12 256 L 104 256 L 203 739 L 102 739 L 158 995 L 258 995 L 285 1122 C 299 1188 320 1244 350 1292 C 379 1339 414 1377 455 1407 C 496 1437 542 1459 594 1473 C 645 1487 700 1495 758 1495 Z M 854 995 L 1329 995 L 1171 256 L 1272 256 L 1217 0 L 649 0 L 705 256 L 797 256 L 899 739 L 799 739 L 854 995 Z" unicode="ﬁ" />
<glyph horiz-adv-x="1333" d="M 969 1475 L 1415 1475 L 1155 256 L 1253 256 L 1198 0 L 631 0 L 686 256 L 778 256 L 983 1223 L 807 1223 C 768 1223 734 1211 705 1189 C 676 1166 656 1128 645 1075 L 629 995 L 766 995 L 711 739 L 578 739 L 479 256 L 590 256 L 535 0 L -43 0 L 12 256 L 104 256 L 203 739 L 102 739 L 158 995 L 258 995 L 287 1126 C 301 1188 323 1243 354 1289 C 384 1335 421 1373 464 1403 C 507 1433 555 1455 608 1469 C 661 1483 716 1491 774 1491 C 808 1491 842 1489 876 1485 C 909 1481 940 1477 969 1475 Z" unicode="ﬂ" />
</font>
</defs>
</svg>
