<?xml version="1.0" encoding="utf-8" ?><svg version="1.1" xmlns = 'http://www.w3.org/2000/svg'><defs><font id='web' horiz-adv-x="1000">
<font-face font-family="web" descent="-483" cap-height="1434" units-per-em="2048" bbox="-207,-483,2597,2042" x-height="1024" ascent="1565" />
<missing-glyph horiz-adv-x="426" d="" /><glyph horiz-adv-x="392" d="" unicode=" " />
<glyph horiz-adv-x="692" d="M 469 1475 L 668 1475 L 399 332 L 254 332 L 469 1475 Z M 190 193 L 401 193 L 360 0 L 147 0 L 190 193 Z" unicode="!" />
<glyph horiz-adv-x="664" d="M 315 1475 L 471 1475 L 354 922 L 199 922 L 315 1475 Z M 637 1475 L 791 1475 L 674 922 L 520 922 L 637 1475 Z" unicode="&#x22;" />
<glyph horiz-adv-x="1208" d="M 754 594 C 754 594 757 603 764 623 C 770 642 779 666 789 695 C 799 723 809 754 821 788 C 833 821 844 851 854 879 L 580 879 L 479 594 L 754 594 Z M 1063 1018 L 1253 1018 L 1223 874 L 1012 874 L 913 598 L 1163 598 L 1135 455 L 864 455 L 702 0 L 543 0 L 705 455 L 430 455 L 270 0 L 109 0 L 270 455 L 84 455 L 113 598 L 319 598 C 319 598 322 607 329 626 C 336 644 345 667 355 695 C 365 722 375 752 387 784 C 398 816 408 846 418 874 L 172 874 L 203 1018 L 469 1018 C 484 1060 501 1108 520 1162 C 538 1215 556 1265 572 1311 C 588 1357 602 1395 614 1427 C 625 1459 631 1475 631 1475 L 793 1475 L 631 1018 L 903 1018 C 918 1060 935 1108 954 1162 C 973 1215 991 1265 1007 1311 C 1023 1357 1037 1395 1048 1427 C 1059 1459 1065 1475 1065 1475 L 1225 1475 L 1063 1018 Z" unicode="#" />
<glyph horiz-adv-x="1155" d="M 621 856 L 723 1335 L 719 1335 C 685 1335 650 1330 615 1321 C 579 1312 548 1297 520 1277 C 492 1256 469 1228 451 1194 C 433 1160 424 1118 424 1069 C 424 1041 429 1016 439 994 C 449 972 462 953 480 937 C 498 920 519 905 543 892 C 567 879 593 867 621 856 Z M 573 127 C 612 127 652 132 694 143 C 735 153 772 170 806 194 C 840 218 867 249 889 288 C 911 327 922 375 922 432 C 922 464 915 492 903 516 C 891 540 874 561 853 579 C 832 597 807 612 779 626 C 750 640 720 653 688 666 L 573 127 Z M 1087 1442 L 1223 1442 L 1143 1071 L 1004 1071 L 1034 1214 C 1009 1240 980 1263 947 1283 C 914 1303 875 1317 829 1325 L 721 817 C 765 801 808 783 851 763 C 894 743 933 718 967 690 C 1001 662 1028 628 1049 590 C 1070 551 1081 505 1081 453 C 1081 374 1065 306 1034 249 C 1003 191 963 144 914 108 C 865 71 810 44 749 26 C 687 8 627 0 567 0 L 551 0 L 506 -215 L 389 -215 L 436 8 C 381 14 333 25 293 43 C 253 61 216 84 182 113 L 164 33 L 25 33 L 106 416 L 250 416 L 217 256 C 247 226 283 201 323 180 C 363 158 411 143 467 135 L 588 702 C 547 717 507 735 467 756 C 427 776 392 801 362 829 C 332 857 307 889 288 925 C 269 961 260 1003 260 1051 C 260 1125 274 1189 303 1243 C 331 1297 368 1341 412 1375 C 456 1409 506 1433 561 1449 C 615 1465 669 1473 721 1473 L 748 1473 L 788 1669 L 905 1669 L 862 1460 C 911 1451 952 1438 986 1422 C 1020 1405 1047 1387 1069 1368 L 1087 1442 Z" unicode="$" />
<glyph horiz-adv-x="1833" d="M 625 1497 C 678 1497 726 1488 768 1472 C 810 1455 846 1432 875 1404 C 904 1375 926 1341 942 1302 C 957 1262 965 1220 965 1176 C 965 1108 953 1046 929 992 C 905 938 873 892 835 855 C 796 817 751 789 701 769 C 651 749 599 739 547 739 C 493 739 445 747 403 764 C 361 780 325 803 297 832 C 269 860 247 894 233 934 C 218 974 211 1017 211 1063 C 211 1126 222 1184 245 1238 C 268 1291 299 1337 337 1375 C 375 1413 420 1443 470 1465 C 520 1486 571 1497 625 1497 Z M 1507 1475 L 1665 1475 L 457 0 L 299 0 L 1507 1475 Z M 553 868 C 589 868 623 875 655 889 C 687 903 714 922 738 948 C 762 974 780 1005 794 1042 C 808 1078 815 1119 815 1165 C 815 1193 811 1220 803 1245 C 795 1269 784 1291 768 1309 C 752 1327 731 1342 707 1352 C 683 1362 654 1368 621 1368 C 583 1368 548 1360 516 1344 C 484 1328 456 1306 433 1279 C 410 1252 392 1220 379 1183 C 366 1146 360 1107 360 1065 C 360 1037 364 1011 372 987 C 380 963 392 942 408 924 C 424 906 444 893 468 883 C 492 873 521 868 553 868 Z M 1413 737 C 1467 737 1515 728 1558 712 C 1600 695 1636 672 1665 643 C 1694 614 1716 580 1732 541 C 1747 501 1755 459 1755 414 C 1755 346 1743 286 1719 232 C 1695 178 1663 132 1624 95 C 1585 58 1540 30 1490 10 C 1440 -10 1389 -20 1337 -20 C 1282 -20 1234 -11 1192 4 C 1150 20 1115 43 1087 72 C 1059 101 1037 135 1023 175 C 1008 214 1001 257 1001 303 C 1001 366 1012 424 1035 478 C 1058 531 1088 577 1126 615 C 1164 653 1208 683 1258 705 C 1308 726 1359 737 1413 737 Z M 1341 109 C 1377 109 1411 116 1443 130 C 1475 144 1503 163 1527 189 C 1551 214 1569 245 1583 282 C 1597 319 1604 360 1604 406 C 1604 434 1600 461 1592 486 C 1584 510 1572 532 1556 550 C 1540 568 1519 582 1495 592 C 1471 602 1442 608 1409 608 C 1371 608 1337 600 1305 584 C 1273 568 1246 546 1224 519 C 1201 492 1183 460 1170 423 C 1157 386 1151 347 1151 305 C 1151 277 1154 252 1162 228 C 1170 204 1181 183 1197 165 C 1213 147 1233 134 1257 124 C 1281 114 1309 109 1341 109 Z" unicode="%" />
<glyph horiz-adv-x="1475" d="M 662 956 C 696 976 729 996 759 1017 C 789 1037 816 1059 838 1082 C 860 1105 878 1130 891 1156 C 904 1182 911 1210 911 1241 C 911 1277 900 1309 878 1336 C 856 1362 822 1376 778 1376 C 724 1376 679 1355 645 1314 C 611 1272 594 1219 594 1153 C 594 1127 599 1099 611 1068 C 622 1037 639 1000 662 956 Z M 502 115 C 566 115 623 130 675 160 C 727 190 780 241 834 311 C 834 311 821 333 795 378 C 769 422 740 472 708 526 C 676 580 647 632 619 680 C 591 728 575 756 571 764 C 529 740 488 714 449 688 C 410 662 376 633 346 602 C 316 571 291 536 273 498 C 254 460 244 417 242 369 C 240 327 245 291 258 259 C 271 227 289 201 313 180 C 337 158 365 142 398 131 C 430 120 465 115 502 115 Z M 1155 854 L 1440 854 L 1409 713 L 1229 713 C 1229 713 1219 696 1199 662 C 1179 628 1157 589 1132 546 C 1107 502 1083 460 1059 420 C 1035 380 1020 354 1012 342 C 1012 342 1018 331 1030 310 C 1042 289 1056 266 1071 241 C 1085 216 1099 193 1111 172 C 1123 151 1128 141 1128 141 L 1350 141 L 1313 0 L 1014 0 L 903 193 C 841 119 776 64 706 27 C 636 -10 555 -29 463 -29 C 409 -29 358 -21 310 -6 C 262 9 220 31 184 61 C 148 91 120 128 99 172 C 78 216 68 266 68 324 C 68 392 79 452 103 506 C 126 560 158 608 198 651 C 238 694 286 734 340 770 C 394 806 451 840 512 874 C 483 929 462 978 448 1020 C 434 1062 428 1103 428 1143 C 428 1193 436 1241 454 1286 C 471 1331 496 1370 528 1403 C 560 1436 598 1462 643 1482 C 688 1501 738 1511 793 1511 C 837 1511 877 1504 912 1492 C 946 1479 975 1462 998 1440 C 1021 1418 1039 1391 1051 1361 C 1063 1331 1069 1298 1069 1264 C 1069 1214 1059 1168 1039 1128 C 1019 1087 993 1050 961 1017 C 928 983 891 953 849 925 C 807 897 765 870 721 846 C 724 839 737 815 761 775 C 784 735 809 692 835 647 C 861 602 884 561 906 524 C 927 487 938 469 938 469 C 940 475 953 498 977 539 C 1000 579 1025 623 1051 670 C 1077 716 1100 759 1122 797 C 1144 835 1155 854 1155 854 Z" unicode="&#x26;" />
<glyph horiz-adv-x="342" d="M 315 1475 L 471 1475 L 354 922 L 199 922 L 315 1475 Z" unicode="'" />
<glyph horiz-adv-x="743" d="M 710 1507 L 894 1507 C 716 1327 579 1143 481 955 C 383 767 329 568 318 360 C 314 296 315 232 319 168 C 323 103 332 39 346 -23 C 359 -86 377 -149 401 -211 C 424 -273 453 -334 488 -393 L 306 -393 C 276 -337 250 -278 229 -217 C 207 -155 190 -92 178 -28 C 165 35 157 101 153 169 C 149 236 149 303 153 371 C 165 579 218 779 314 969 C 410 1159 542 1339 710 1507 Z" unicode="(" />
<glyph horiz-adv-x="743" d="M 489 1507 C 519 1451 545 1392 567 1330 C 589 1268 606 1205 619 1141 C 632 1077 641 1011 645 944 C 649 876 649 809 645 743 C 633 528 578 327 482 140 C 386 -47 254 -225 86 -393 L -98 -393 C 80 -213 217 -29 315 156 C 412 342 467 542 479 754 C 483 816 482 879 478 944 C 473 1008 464 1072 450 1136 C 436 1199 418 1262 394 1325 C 370 1387 341 1448 307 1507 L 489 1507 Z" unicode=")" />
<glyph horiz-adv-x="1028" d="M 991 1241 L 1008 1108 L 705 1090 L 848 813 L 723 760 L 606 1047 L 385 831 L 295 932 L 535 1126 L 268 1266 L 338 1380 L 588 1221 L 637 1511 L 768 1485 L 694 1196 L 991 1241 Z" unicode="*" />
<glyph horiz-adv-x="1645" d="M 1464 762 L 1464 618 L 971 618 L 971 82 L 809 82 L 809 618 L 303 618 L 303 762 L 809 762 L 809 1300 L 971 1300 L 971 762 L 1464 762 Z" unicode="+" />
<glyph horiz-adv-x="602" d="M 172 207 L 373 207 L 152 -236 L 0 -236 L 172 207 Z" unicode="," />
<glyph horiz-adv-x="717" d="M 129 631 L 662 631 L 631 496 L 98 496 L 129 631 Z" unicode="-" />
<glyph horiz-adv-x="602" d="M 143 207 L 362 207 L 317 0 L 98 0 L 143 207 Z" unicode="." />
<glyph horiz-adv-x="946" d="M 883 1507 L 1051 1507 L 131 -190 L -37 -190 L 883 1507 Z" unicode="/" />
<glyph horiz-adv-x="1282" d="M 823 1501 C 891 1501 954 1489 1011 1467 C 1067 1445 1115 1412 1155 1369 C 1195 1325 1225 1271 1247 1206 C 1269 1141 1280 1067 1280 983 C 1280 940 1277 893 1272 842 C 1266 791 1258 740 1247 688 C 1218 556 1180 445 1134 354 C 1087 262 1035 189 977 133 C 919 77 857 37 791 12 C 724 -12 657 -25 590 -25 C 520 -25 457 -13 401 8 C 345 30 297 63 258 106 C 218 149 188 203 167 267 C 145 331 135 405 135 489 C 135 531 137 577 142 627 C 146 677 154 728 166 780 C 194 911 231 1023 278 1115 C 324 1207 376 1281 434 1338 C 492 1394 554 1436 621 1462 C 687 1488 755 1501 823 1501 Z M 1073 698 C 1084 748 1092 796 1097 842 C 1101 888 1104 931 1104 969 C 1104 1097 1077 1194 1023 1259 C 969 1323 898 1356 809 1356 C 762 1356 715 1345 669 1324 C 623 1303 579 1269 538 1223 C 497 1177 459 1116 425 1041 C 391 965 362 874 340 766 C 329 718 321 671 315 625 C 309 579 307 537 307 500 C 307 374 333 280 386 216 C 439 152 511 121 602 121 C 649 121 696 130 743 150 C 789 170 833 202 874 247 C 915 292 953 352 987 426 C 1021 500 1050 590 1073 698 Z" unicode="0" />
<glyph horiz-adv-x="739" d="M 369 1475 L 715 1475 L 432 141 L 586 141 L 555 0 L 55 0 L 86 141 L 264 141 L 518 1331 L 340 1331 L 369 1475 Z" unicode="1" />
<glyph horiz-adv-x="1157" d="M 756 1499 C 820 1499 877 1490 928 1474 C 979 1458 1022 1434 1057 1404 C 1092 1374 1119 1337 1138 1293 C 1157 1249 1167 1199 1167 1145 C 1167 1087 1159 1033 1144 985 C 1128 937 1103 890 1067 844 C 1031 798 982 752 922 705 C 862 657 787 606 698 551 C 610 496 537 448 480 408 C 423 368 377 332 342 302 C 307 271 280 243 262 217 C 244 191 229 164 217 137 L 807 137 L 862 401 L 1024 401 L 938 0 L -4 0 C 14 75 39 140 70 195 C 101 249 142 301 192 349 C 242 397 304 446 378 496 C 452 546 541 605 645 672 C 710 714 765 752 810 786 C 854 820 890 853 917 887 C 944 921 963 956 975 994 C 987 1032 993 1075 993 1124 C 993 1194 970 1251 926 1294 C 882 1336 818 1358 735 1358 C 653 1358 584 1333 528 1284 C 472 1234 431 1166 406 1079 L 242 1079 C 258 1143 281 1201 313 1253 C 344 1305 381 1349 425 1385 C 469 1421 518 1449 574 1469 C 630 1489 690 1499 756 1499 Z" unicode="2" />
<glyph horiz-adv-x="1151" d="M 759 1499 C 821 1499 878 1491 928 1475 C 978 1459 1020 1436 1055 1408 C 1089 1380 1116 1346 1134 1307 C 1152 1268 1162 1226 1162 1180 C 1161 1072 1130 981 1070 909 C 1009 837 928 790 826 770 C 899 749 955 712 993 659 C 1031 606 1050 542 1050 467 C 1050 393 1037 326 1012 266 C 986 205 951 153 905 110 C 859 67 803 34 737 10 C 671 -13 599 -25 519 -25 C 438 -25 368 -15 310 5 C 252 25 204 53 168 90 C 131 127 104 172 88 225 C 72 277 65 336 67 401 L 232 401 C 234 357 239 317 249 282 C 259 246 275 216 297 192 C 319 168 350 149 389 136 C 427 123 476 117 536 117 C 580 117 623 123 665 136 C 707 149 743 169 775 197 C 807 224 832 259 851 302 C 870 344 880 395 880 453 C 880 531 852 591 797 634 C 742 676 666 698 568 698 L 490 698 L 521 840 L 605 840 C 731 840 827 865 892 915 C 957 965 990 1039 990 1137 C 990 1167 984 1195 974 1222 C 964 1249 948 1273 928 1293 C 908 1313 882 1330 850 1342 C 818 1354 780 1360 738 1360 C 703 1360 668 1355 634 1346 C 600 1336 568 1321 539 1299 C 509 1277 483 1248 461 1212 C 439 1176 422 1131 411 1079 L 245 1079 C 260 1149 283 1211 315 1264 C 347 1317 385 1361 429 1396 C 473 1430 524 1456 580 1473 C 636 1490 695 1499 759 1499 Z" unicode="3" />
<glyph horiz-adv-x="1155" d="M 909 537 L 1128 537 L 1100 401 L 881 401 L 825 135 L 995 135 L 967 0 L 446 0 L 475 135 L 662 135 L 719 401 L 45 401 L 74 532 L 944 1477 L 1110 1477 L 909 537 Z M 748 537 L 899 1251 L 248 537 L 748 537 Z" unicode="4" />
<glyph horiz-adv-x="1149" d="M 353 1475 L 1185 1475 L 1105 1098 L 945 1098 L 996 1337 L 486 1337 L 390 881 C 412 895 436 906 460 915 C 484 923 508 930 531 935 C 554 939 576 943 596 945 C 616 947 634 948 648 948 C 722 948 787 938 843 918 C 898 898 943 870 979 836 C 1014 801 1040 760 1058 712 C 1075 664 1084 613 1084 559 C 1084 464 1068 380 1038 307 C 1008 233 967 172 915 123 C 863 73 802 36 732 11 C 662 -14 587 -27 509 -27 C 419 -27 343 -15 283 7 C 223 29 175 60 139 98 C 103 136 78 181 64 233 C 50 285 44 339 46 397 L 214 397 C 216 355 221 316 230 281 C 239 246 255 216 277 192 C 299 167 329 148 369 134 C 409 120 460 113 523 113 C 575 113 624 121 671 139 C 718 157 759 183 795 218 C 830 253 858 297 879 349 C 899 401 910 460 910 528 C 910 568 904 606 892 640 C 880 674 861 704 836 729 C 811 753 779 772 740 786 C 701 800 655 807 601 807 C 560 807 516 800 470 787 C 423 774 375 748 327 709 L 202 754 L 353 1475 Z" unicode="5" />
<glyph horiz-adv-x="1180" d="M 805 1505 C 894 1505 965 1492 1019 1466 C 1073 1440 1113 1408 1141 1369 C 1169 1329 1186 1285 1194 1237 C 1201 1189 1204 1142 1202 1098 L 1038 1098 C 1038 1127 1037 1158 1034 1190 C 1030 1222 1020 1251 1004 1277 C 987 1303 961 1324 927 1341 C 893 1357 846 1366 786 1366 C 720 1366 662 1350 612 1319 C 562 1288 518 1246 481 1194 C 444 1142 413 1080 387 1010 C 361 939 339 864 322 786 C 348 822 377 851 410 875 C 442 898 476 916 511 929 C 545 942 581 951 617 957 C 653 962 687 965 719 965 C 783 965 842 955 895 935 C 947 915 992 887 1029 852 C 1066 816 1095 774 1115 724 C 1135 674 1145 620 1145 561 C 1145 472 1129 391 1099 319 C 1069 247 1028 185 977 134 C 925 83 865 44 796 16 C 727 -11 654 -25 578 -25 C 500 -25 433 -13 375 11 C 317 35 269 68 231 110 C 193 152 164 201 145 259 C 126 317 117 379 117 446 C 117 467 117 490 118 516 C 119 542 121 568 123 595 C 125 621 128 648 132 676 C 136 703 140 729 145 754 C 168 862 198 963 235 1055 C 272 1147 317 1227 371 1293 C 424 1359 487 1411 559 1449 C 631 1486 713 1505 805 1505 Z M 596 115 C 642 115 687 124 733 143 C 779 161 819 189 855 225 C 891 261 920 305 942 359 C 964 413 975 474 975 543 C 975 581 968 617 956 651 C 944 685 925 715 899 741 C 873 767 841 787 801 802 C 761 817 713 825 659 825 C 607 825 558 815 512 795 C 466 775 427 748 394 713 C 360 678 334 636 314 587 C 294 537 285 483 285 424 C 285 380 291 339 305 301 C 318 263 338 231 364 203 C 390 175 422 154 461 138 C 500 122 545 115 596 115 Z" unicode="6" />
<glyph horiz-adv-x="1040" d="M 305 1475 L 1208 1475 L 1180 1339 L 473 141 L 637 141 L 606 0 L 119 0 L 150 141 L 303 141 L 1010 1337 L 436 1337 L 385 1098 L 225 1098 L 305 1475 Z" unicode="7" />
<glyph horiz-adv-x="1262" d="M 801 1501 C 874 1501 939 1491 996 1473 C 1052 1454 1099 1429 1137 1397 C 1175 1365 1203 1327 1223 1284 C 1243 1240 1253 1195 1253 1147 C 1253 1096 1245 1050 1230 1009 C 1215 968 1195 932 1169 901 C 1143 869 1112 842 1076 820 C 1040 798 1002 780 961 766 C 1023 736 1070 696 1103 644 C 1136 592 1153 532 1153 463 C 1153 378 1136 305 1103 243 C 1069 181 1026 130 974 90 C 922 50 863 21 797 2 C 731 -17 665 -27 600 -27 C 518 -27 446 -17 384 1 C 322 20 270 46 229 80 C 187 114 156 154 135 201 C 114 248 104 300 104 356 C 104 418 113 473 131 523 C 149 573 174 616 206 653 C 238 689 275 720 319 745 C 362 769 409 788 459 801 C 409 831 370 870 343 917 C 316 964 303 1017 303 1077 C 303 1145 316 1205 343 1258 C 369 1311 405 1355 451 1391 C 496 1427 549 1454 610 1473 C 670 1491 734 1501 801 1501 Z M 752 842 C 791 842 830 847 870 859 C 910 870 945 887 976 910 C 1007 932 1032 961 1052 997 C 1071 1032 1081 1074 1081 1122 C 1081 1154 1074 1185 1062 1215 C 1049 1244 1031 1270 1007 1292 C 983 1314 953 1331 918 1344 C 882 1357 842 1364 797 1364 C 755 1364 714 1357 674 1345 C 634 1333 599 1315 569 1291 C 539 1267 514 1236 496 1200 C 478 1164 469 1122 469 1075 C 469 1042 475 1011 487 983 C 499 955 518 930 542 909 C 566 888 595 872 631 860 C 666 848 706 842 752 842 Z M 610 113 C 653 113 697 119 741 133 C 785 146 825 166 861 194 C 896 222 925 257 947 300 C 969 343 981 394 981 453 C 981 490 973 525 958 557 C 943 589 921 616 893 639 C 865 661 830 679 788 692 C 746 704 698 711 645 711 C 598 711 552 704 508 692 C 463 679 423 659 389 632 C 354 605 326 571 305 529 C 284 487 274 437 274 379 C 274 340 281 304 296 272 C 310 239 332 211 360 187 C 388 163 423 145 465 132 C 507 119 555 113 610 113 Z" unicode="8" />
<glyph horiz-adv-x="1180" d="M 652 657 C 704 657 754 667 800 687 C 846 707 887 736 921 772 C 955 808 981 852 1001 902 C 1021 952 1031 1007 1031 1067 C 1031 1111 1024 1151 1010 1188 C 996 1224 976 1256 950 1282 C 924 1308 891 1329 851 1344 C 811 1358 766 1366 716 1366 C 669 1366 623 1356 578 1338 C 532 1319 492 1291 456 1255 C 420 1219 392 1174 370 1121 C 348 1067 337 1006 337 938 C 337 900 343 863 355 829 C 367 795 386 765 412 740 C 438 714 470 694 510 679 C 550 664 597 657 652 657 Z M 734 1505 C 810 1505 878 1493 936 1471 C 994 1449 1043 1418 1082 1378 C 1120 1338 1149 1291 1169 1235 C 1189 1179 1199 1117 1199 1051 C 1199 1003 1195 952 1189 898 C 1182 844 1173 791 1162 737 C 1138 627 1109 525 1074 431 C 1038 337 995 257 943 190 C 891 122 829 70 757 32 C 685 -6 602 -25 507 -25 C 417 -25 345 -12 291 13 C 237 39 197 71 170 111 C 142 151 125 195 118 244 C 110 292 108 339 110 385 L 275 385 C 274 355 275 324 279 292 C 283 260 293 231 310 205 C 326 179 352 157 386 140 C 420 123 466 115 525 115 C 591 115 648 130 698 161 C 747 192 790 234 826 286 C 862 338 893 400 919 470 C 944 540 966 615 984 694 C 958 658 929 629 897 606 C 865 582 833 564 799 551 C 765 538 730 529 695 524 C 659 518 625 516 593 516 C 528 516 469 526 417 546 C 364 566 319 593 282 629 C 245 664 217 706 197 756 C 177 806 167 860 167 920 C 167 1009 182 1090 212 1162 C 242 1234 283 1296 335 1346 C 386 1396 446 1435 515 1463 C 584 1491 657 1505 734 1505 Z" unicode="9" />
<glyph horiz-adv-x="602" d="M 299 944 L 518 944 L 477 737 L 256 737 L 299 944 Z M 143 207 L 362 207 L 319 0 L 98 0 L 143 207 Z" unicode=":" />
<glyph horiz-adv-x="602" d="M 303 944 L 524 944 L 481 737 L 260 737 L 303 944 Z M 160 207 L 358 207 L 139 -236 L -12 -236 L 160 207 Z" unicode=";" />
<glyph horiz-adv-x="1677" d="M 1479 268 L 1479 117 L 289 600 L 289 735 L 1479 1221 L 1479 1069 L 485 668 L 1479 268 Z" unicode="&#x3C;" />
<glyph horiz-adv-x="1645" d="M 1458 936 L 1458 793 L 309 793 L 309 936 L 1458 936 Z M 1458 516 L 1458 373 L 309 373 L 309 516 L 1458 516 Z" unicode="=" />
<glyph horiz-adv-x="1677" d="M 1479 735 L 1479 600 L 289 117 L 289 266 L 1282 668 L 289 1069 L 289 1221 L 1479 735 Z" unicode="&#x3E;" />
<glyph horiz-adv-x="1061" d="M 713 1507 C 779 1507 838 1498 892 1481 C 946 1463 991 1439 1029 1407 C 1066 1375 1095 1337 1115 1292 C 1135 1247 1145 1197 1145 1143 C 1145 1063 1131 993 1103 931 C 1075 869 1036 818 988 776 C 939 734 882 701 816 678 C 750 654 679 641 604 639 L 539 326 L 379 326 L 473 766 L 561 766 C 616 766 669 772 719 785 C 769 797 812 817 849 845 C 886 872 916 908 938 952 C 960 996 971 1050 971 1112 C 971 1186 947 1247 899 1294 C 851 1340 785 1364 700 1364 C 611 1364 536 1336 475 1281 C 414 1225 374 1146 356 1042 L 190 1042 C 204 1119 228 1187 261 1246 C 294 1304 333 1353 379 1391 C 425 1429 476 1458 533 1478 C 590 1497 650 1507 713 1507 Z M 326 193 L 537 193 L 496 0 L 283 0 L 326 193 Z" unicode="?" />
<glyph horiz-adv-x="1917" d="M 973 1421 C 1115 1421 1240 1400 1346 1359 C 1452 1317 1540 1262 1610 1194 C 1679 1125 1731 1045 1765 954 C 1799 863 1817 768 1817 670 C 1817 563 1801 475 1770 405 C 1738 335 1699 279 1651 239 C 1603 198 1551 169 1493 153 C 1435 137 1379 129 1327 129 L 1092 129 L 1112 229 C 1071 182 1026 150 978 132 C 930 114 884 106 840 106 C 784 106 735 115 691 133 C 647 151 611 175 581 206 C 551 237 528 274 512 317 C 496 359 489 405 489 455 C 489 533 502 603 528 663 C 554 723 587 774 629 814 C 671 854 718 885 772 905 C 825 925 878 936 932 936 C 1012 936 1076 921 1122 891 C 1168 861 1202 822 1223 772 L 1253 911 L 1511 911 L 1485 780 L 1374 780 L 1260 244 L 1354 244 C 1393 244 1433 250 1474 262 C 1515 274 1552 296 1585 328 C 1617 360 1644 403 1665 458 C 1685 513 1696 583 1696 668 C 1696 754 1681 837 1651 915 C 1621 993 1577 1061 1517 1119 C 1457 1177 1381 1223 1290 1257 C 1198 1291 1092 1309 971 1309 C 858 1309 756 1289 664 1250 C 572 1211 494 1157 430 1089 C 366 1021 316 939 281 845 C 246 751 229 649 229 541 C 229 433 246 335 280 245 C 314 155 364 78 428 14 C 492 -49 570 -98 662 -134 C 754 -170 858 -188 973 -188 C 1015 -188 1057 -186 1100 -182 C 1143 -178 1184 -172 1224 -165 C 1264 -158 1301 -149 1336 -139 C 1371 -128 1401 -116 1427 -104 L 1427 -227 C 1370 -248 1301 -266 1221 -280 C 1140 -294 1054 -301 963 -301 C 829 -301 710 -280 604 -238 C 498 -196 408 -137 335 -63 C 262 10 206 99 167 203 C 128 307 109 420 109 543 C 109 666 129 781 170 889 C 211 997 269 1090 344 1168 C 419 1246 510 1308 617 1353 C 723 1398 842 1421 973 1421 Z M 872 240 C 909 240 946 246 983 260 C 1019 274 1052 294 1081 322 C 1109 349 1133 384 1151 426 C 1169 468 1178 517 1178 573 C 1178 605 1173 635 1163 663 C 1153 691 1138 715 1118 735 C 1098 755 1073 771 1043 783 C 1012 795 976 801 936 801 C 901 801 866 794 831 780 C 795 766 764 745 736 717 C 708 689 685 653 667 611 C 649 569 641 520 641 465 C 641 432 645 402 655 374 C 665 346 679 323 699 303 C 718 283 742 268 771 257 C 800 245 834 240 872 240 Z" unicode="@" />
<glyph horiz-adv-x="1499" d="M 547 629 L 1034 629 L 942 1350 C 942 1350 921 1313 880 1238 C 838 1162 793 1080 744 990 C 695 900 650 818 609 742 C 567 666 547 629 547 629 Z M 1262 143 L 1364 143 L 1333 0 L 901 0 L 932 143 L 1098 143 L 1051 498 L 473 498 L 276 143 L 420 143 L 391 0 L -23 0 L 8 143 L 109 143 L 766 1331 L 623 1331 L 653 1475 L 1280 1475 L 1249 1331 L 1104 1331 L 1262 143 Z" unicode="A" />
<glyph horiz-adv-x="1341" d="M 778 1475 C 953 1475 1082 1446 1166 1388 C 1250 1330 1292 1253 1292 1155 C 1292 1059 1267 981 1217 919 C 1167 857 1098 814 1012 788 C 1048 777 1080 761 1108 741 C 1136 721 1159 697 1177 669 C 1195 641 1209 611 1219 577 C 1228 543 1233 508 1233 471 C 1233 384 1218 310 1188 250 C 1158 190 1118 141 1068 105 C 1018 68 961 41 895 25 C 829 8 760 0 690 0 L -23 0 L 8 141 L 150 141 L 401 1331 L 260 1331 L 291 1475 L 778 1475 Z M 829 864 C 871 864 910 870 946 882 C 982 894 1012 911 1038 933 C 1064 955 1084 982 1098 1014 C 1112 1046 1120 1083 1120 1124 C 1120 1192 1093 1244 1039 1279 C 985 1313 896 1331 774 1331 L 569 1331 L 471 864 L 829 864 Z M 700 141 C 748 141 794 146 839 158 C 883 169 923 187 957 213 C 991 238 1018 272 1038 314 C 1058 356 1069 409 1069 471 C 1069 558 1037 624 975 668 C 913 712 814 735 678 735 L 444 735 L 317 141 L 700 141 Z" unicode="B" />
<glyph horiz-adv-x="1532" d="M 1462 1475 L 1614 1475 L 1528 1069 L 1368 1069 L 1391 1178 C 1375 1198 1355 1219 1331 1241 C 1307 1263 1277 1282 1243 1300 C 1208 1318 1167 1332 1120 1344 C 1072 1356 1018 1362 956 1362 C 875 1362 795 1345 715 1313 C 635 1280 563 1233 500 1171 C 437 1109 386 1033 346 943 C 306 852 287 749 287 635 C 287 563 297 496 319 432 C 340 368 372 313 414 266 C 456 219 510 182 574 154 C 638 126 713 113 799 113 C 858 113 912 120 962 136 C 1011 152 1055 173 1094 200 C 1133 227 1167 259 1197 295 C 1226 331 1251 370 1272 412 L 1440 412 C 1414 347 1381 287 1341 233 C 1301 178 1253 131 1199 92 C 1145 52 1083 22 1014 0 C 944 -22 868 -33 786 -33 C 675 -33 577 -15 493 18 C 409 52 339 99 283 157 C 227 215 185 284 157 364 C 129 444 115 528 115 618 C 115 761 140 888 190 999 C 240 1110 306 1203 386 1278 C 466 1353 556 1410 657 1449 C 757 1487 858 1507 958 1507 C 1020 1507 1076 1502 1126 1493 C 1176 1483 1220 1471 1259 1455 C 1298 1439 1332 1422 1361 1402 C 1390 1382 1414 1361 1434 1341 L 1462 1475 Z" unicode="C" />
<glyph horiz-adv-x="1415" d="M 684 1475 C 805 1475 912 1460 1005 1432 C 1098 1403 1176 1362 1238 1310 C 1300 1258 1347 1194 1379 1118 C 1411 1042 1427 958 1427 866 C 1427 716 1403 587 1355 478 C 1307 368 1243 278 1163 208 C 1082 137 988 85 880 51 C 772 17 658 0 539 0 L -23 0 L 6 137 L 150 137 L 401 1331 L 260 1331 L 291 1475 L 684 1475 Z M 532 137 C 624 137 714 150 802 177 C 889 204 966 246 1033 304 C 1099 362 1153 436 1194 528 C 1234 619 1255 728 1255 856 C 1255 926 1243 991 1221 1049 C 1198 1107 1164 1157 1118 1199 C 1072 1241 1013 1273 941 1296 C 869 1319 785 1331 688 1331 L 571 1331 L 317 137 L 532 137 Z" unicode="D" />
<glyph horiz-adv-x="1212" d="M 291 1475 L 1323 1475 L 1237 1069 L 1081 1069 L 1139 1335 L 569 1335 L 465 836 L 756 836 L 786 979 L 922 979 L 829 541 L 692 541 L 727 696 L 434 696 L 315 137 L 905 137 L 963 412 L 1118 412 L 1030 0 L -23 0 L 8 141 L 150 141 L 401 1331 L 260 1331 L 291 1475 Z" unicode="E" />
<glyph horiz-adv-x="1182" d="M 291 1475 L 1313 1475 L 1227 1069 L 1065 1069 L 1122 1335 L 571 1335 L 465 836 L 756 836 L 786 977 L 922 977 L 829 543 L 694 543 L 727 696 L 436 696 L 317 141 L 485 141 L 455 0 L -23 0 L 8 141 L 150 141 L 401 1331 L 260 1331 L 291 1475 Z" unicode="F" />
<glyph horiz-adv-x="1620" d="M 1479 1475 L 1628 1475 L 1542 1069 L 1384 1069 L 1409 1176 C 1393 1195 1372 1216 1348 1238 C 1324 1260 1294 1280 1259 1298 C 1223 1316 1181 1332 1132 1344 C 1083 1356 1027 1362 963 1362 C 878 1362 795 1345 714 1313 C 632 1281 560 1234 497 1172 C 434 1110 383 1033 345 943 C 306 852 287 749 287 633 C 287 560 298 492 320 429 C 342 365 375 310 419 264 C 462 217 516 180 581 153 C 645 126 719 113 803 113 C 882 113 956 128 1025 160 C 1094 192 1159 233 1219 283 L 1280 575 L 831 575 L 860 713 L 1626 713 L 1597 575 L 1438 575 L 1315 0 L 1163 0 L 1190 117 C 1160 93 1126 71 1090 53 C 1054 34 1017 18 980 6 C 942 -5 905 -15 869 -21 C 832 -27 798 -31 768 -31 C 660 -31 566 -13 484 21 C 402 55 333 102 279 161 C 225 219 184 288 156 368 C 128 448 115 532 115 621 C 115 762 139 888 189 998 C 239 1108 303 1201 383 1276 C 463 1351 554 1408 656 1448 C 758 1487 860 1507 963 1507 C 1028 1507 1087 1501 1139 1491 C 1191 1481 1236 1467 1276 1451 C 1316 1434 1350 1415 1379 1395 C 1407 1375 1431 1355 1450 1335 L 1479 1475 Z" unicode="G" />
<glyph horiz-adv-x="1544" d="M 1210 1475 L 1690 1475 L 1659 1331 L 1518 1331 L 1266 141 L 1407 141 L 1376 0 L 897 0 L 928 141 L 1096 141 L 1217 707 L 438 707 L 319 141 L 485 141 L 455 0 L -23 0 L 8 141 L 150 141 L 401 1331 L 260 1331 L 291 1475 L 768 1475 L 737 1331 L 571 1331 L 469 850 L 1247 850 L 1350 1331 L 1182 1331 L 1210 1475 Z" unicode="H" />
<glyph horiz-adv-x="637" d="M 291 1475 L 784 1475 L 754 1331 L 592 1331 L 340 141 L 502 141 L 471 0 L -23 0 L 8 141 L 170 141 L 422 1331 L 260 1331 L 291 1475 Z" unicode="I" />
<glyph horiz-adv-x="600" d="M 291 1475 L 748 1475 L 717 1331 L 578 1331 L 303 39 C 289 -23 272 -75 252 -117 C 232 -159 206 -192 176 -216 C 146 -240 109 -258 66 -268 C 23 -278 -26 -283 -84 -283 L -143 -283 L -113 -139 L -86 -139 C -48 -139 -16 -135 8 -129 C 33 -123 54 -112 71 -97 C 87 -81 101 -61 111 -35 C 121 -9 131 23 139 63 L 408 1331 L 260 1331 L 291 1475 Z" unicode="J" />
<glyph horiz-adv-x="1384" d="M 1044 1475 L 1470 1475 L 1440 1331 L 1339 1331 C 1331 1324 1290 1291 1215 1232 C 1139 1173 1058 1110 971 1042 C 884 974 805 913 733 857 C 661 801 625 774 625 774 L 1135 141 L 1249 141 L 1219 0 L 793 0 L 823 139 L 940 139 L 446 743 L 317 139 L 455 139 L 426 0 L -23 0 L 8 141 L 150 141 L 401 1331 L 260 1331 L 291 1475 L 743 1475 L 715 1333 L 571 1333 L 459 801 C 459 801 488 823 544 867 C 600 911 665 963 740 1022 C 814 1081 889 1140 965 1200 C 1041 1259 1098 1303 1137 1333 L 1016 1333 L 1044 1475 Z" unicode="K" />
<glyph horiz-adv-x="1161" d="M 903 412 L 1067 412 L 979 0 L -23 0 L 8 143 L 150 143 L 401 1331 L 260 1331 L 291 1475 L 750 1475 L 719 1331 L 571 1331 L 319 141 L 846 141 L 903 412 Z" unicode="L" />
<glyph horiz-adv-x="1819" d="M 1571 1475 L 1966 1475 L 1935 1331 L 1794 1331 L 1542 141 L 1683 141 L 1653 0 L 1194 0 L 1225 141 L 1374 141 L 1612 1264 L 891 0 L 735 0 L 551 1294 L 307 141 L 461 141 L 430 0 L -23 0 L 8 141 L 150 141 L 401 1331 L 260 1331 L 291 1475 L 688 1475 L 862 229 L 1571 1475 Z" unicode="M" />
<glyph horiz-adv-x="1485" d="M 1208 1475 L 1630 1475 L 1599 1331 L 1483 1331 L 1200 0 L 1034 0 L 547 1257 L 311 141 L 477 141 L 446 0 L -23 0 L 8 141 L 150 141 L 401 1331 L 260 1331 L 291 1475 L 643 1475 L 1102 291 L 1323 1331 L 1178 1331 L 1208 1475 Z" unicode="N" />
<glyph horiz-adv-x="1661" d="M 967 1507 C 1082 1507 1184 1489 1272 1454 C 1360 1418 1433 1371 1492 1311 C 1551 1251 1596 1180 1626 1099 C 1656 1018 1671 932 1671 842 C 1671 702 1646 577 1596 468 C 1546 358 1482 267 1402 193 C 1322 119 1230 63 1128 25 C 1025 -13 921 -33 817 -33 C 703 -33 602 -15 514 20 C 426 55 353 103 295 163 C 236 223 192 293 162 375 C 132 456 117 542 117 633 C 117 772 142 896 192 1006 C 242 1115 307 1206 387 1280 C 467 1354 558 1410 660 1449 C 762 1487 864 1507 967 1507 Z M 819 113 C 902 113 984 128 1066 160 C 1147 192 1219 238 1283 299 C 1347 359 1398 434 1438 524 C 1477 614 1497 716 1497 831 C 1497 903 1485 972 1462 1037 C 1439 1102 1405 1158 1361 1206 C 1317 1254 1262 1292 1196 1320 C 1130 1348 1054 1362 969 1362 C 890 1362 810 1347 729 1317 C 648 1287 575 1243 510 1183 C 445 1123 392 1048 351 957 C 309 866 289 760 289 639 C 289 566 300 498 324 434 C 347 370 381 314 426 267 C 470 219 526 182 592 154 C 658 126 733 113 819 113 Z" unicode="O" />
<glyph horiz-adv-x="1239" d="M 780 1475 C 869 1475 946 1465 1012 1446 C 1078 1426 1132 1399 1174 1365 C 1216 1330 1248 1288 1269 1239 C 1289 1190 1300 1136 1300 1077 C 1300 990 1285 915 1255 851 C 1225 787 1184 734 1133 693 C 1081 652 1020 621 950 601 C 880 581 805 571 725 571 L 410 571 L 319 141 L 467 141 L 436 0 L -23 0 L 8 141 L 150 141 L 401 1331 L 260 1331 L 291 1475 L 780 1475 Z M 729 715 C 780 715 830 720 878 732 C 926 744 969 763 1006 790 C 1042 816 1072 852 1094 897 C 1116 941 1128 997 1128 1063 C 1128 1145 1098 1211 1040 1260 C 981 1308 892 1333 774 1333 L 571 1333 L 440 715 L 729 715 Z" unicode="P" />
<glyph horiz-adv-x="1661" d="M 819 113 C 902 113 984 128 1066 160 C 1147 192 1219 238 1283 299 C 1347 359 1398 434 1438 524 C 1477 614 1497 716 1497 831 C 1497 903 1485 972 1462 1037 C 1439 1102 1405 1158 1361 1206 C 1317 1254 1262 1292 1196 1320 C 1130 1348 1054 1362 969 1362 C 890 1362 810 1347 729 1317 C 648 1287 575 1243 510 1183 C 445 1123 392 1048 351 957 C 309 866 289 760 289 639 C 289 566 300 498 324 434 C 347 370 381 314 426 267 C 470 219 526 182 592 154 C 658 126 733 113 819 113 Z M 967 1507 C 1082 1507 1184 1489 1272 1454 C 1360 1418 1433 1371 1492 1311 C 1551 1251 1596 1180 1626 1099 C 1656 1018 1671 932 1671 842 C 1671 702 1646 577 1596 469 C 1546 361 1482 270 1402 197 C 1322 124 1230 69 1128 31 C 1025 -6 921 -25 817 -25 C 807 -25 797 -24 787 -24 C 777 -24 768 -23 758 -23 L 756 -33 C 789 -39 820 -48 850 -58 C 880 -68 909 -77 938 -87 C 967 -97 997 -105 1028 -112 C 1059 -119 1093 -123 1130 -123 C 1164 -123 1202 -116 1242 -103 C 1282 -90 1320 -74 1356 -55 L 1323 -217 C 1297 -231 1265 -244 1225 -256 C 1185 -268 1142 -274 1098 -274 C 1050 -274 1005 -268 964 -257 C 922 -245 882 -233 844 -220 C 805 -206 766 -194 726 -183 C 686 -171 643 -166 598 -166 C 552 -166 507 -172 465 -186 C 422 -200 382 -215 344 -231 L 373 -84 C 413 -66 454 -52 495 -42 C 536 -31 576 -25 616 -23 L 621 -4 C 539 14 466 43 403 83 C 339 123 287 170 245 226 C 203 282 171 344 149 414 C 127 483 117 556 117 633 C 117 772 142 896 192 1006 C 242 1115 307 1206 387 1280 C 467 1354 558 1410 660 1449 C 762 1487 864 1507 967 1507 Z" unicode="Q" />
<glyph horiz-adv-x="1356" d="M 836 799 C 880 799 921 805 961 818 C 1000 831 1034 850 1063 876 C 1092 902 1115 934 1132 972 C 1148 1010 1157 1055 1157 1106 C 1157 1175 1128 1230 1072 1270 C 1015 1310 927 1331 809 1331 L 571 1331 L 459 799 L 836 799 Z M 807 1475 C 976 1475 1106 1446 1197 1388 C 1287 1330 1333 1247 1333 1137 C 1333 1075 1324 1020 1306 972 C 1288 924 1265 883 1236 849 C 1207 815 1173 787 1135 766 C 1096 744 1056 729 1014 719 C 1048 707 1074 691 1092 669 C 1110 647 1121 622 1127 595 C 1133 567 1134 538 1131 507 C 1128 475 1124 445 1118 416 L 1061 141 L 1221 141 L 1190 0 L 862 0 L 948 395 C 956 435 962 472 964 504 C 966 536 962 564 950 586 C 938 608 918 625 888 637 C 858 649 816 655 762 655 L 428 655 L 319 141 L 471 141 L 440 0 L -23 0 L 8 141 L 150 141 L 401 1331 L 260 1331 L 291 1475 L 807 1475 Z" unicode="R" />
<glyph horiz-adv-x="1227" d="M 1135 1475 L 1278 1475 L 1192 1075 L 1042 1075 L 1071 1212 C 1037 1252 995 1288 943 1318 C 891 1348 822 1364 735 1364 C 701 1364 666 1358 630 1348 C 594 1337 561 1320 531 1297 C 501 1274 477 1244 457 1206 C 437 1168 428 1123 428 1071 C 428 995 464 941 537 909 C 610 877 690 845 777 815 C 863 784 943 743 1016 692 C 1089 640 1126 558 1126 444 C 1126 363 1111 292 1081 232 C 1051 172 1011 122 962 83 C 913 44 857 15 795 -4 C 732 -23 668 -33 604 -33 C 499 -33 415 -19 352 7 C 288 33 233 70 186 117 L 162 0 L 12 0 L 100 412 L 252 412 L 223 270 C 242 246 263 224 286 203 C 309 182 335 164 365 148 C 394 132 428 120 466 111 C 504 102 548 98 598 98 C 636 98 677 104 719 117 C 761 129 800 149 835 177 C 870 204 899 239 922 283 C 944 327 956 380 956 442 C 956 523 919 581 846 615 C 773 649 693 682 606 712 C 518 742 438 781 365 829 C 292 877 256 956 256 1065 C 256 1142 270 1209 300 1265 C 330 1321 368 1366 414 1402 C 460 1438 512 1464 569 1481 C 626 1498 682 1507 737 1507 C 787 1507 832 1503 872 1495 C 911 1487 946 1477 976 1465 C 1006 1452 1032 1437 1054 1421 C 1076 1404 1096 1387 1112 1370 L 1135 1475 Z" unicode="S" />
<glyph horiz-adv-x="1364" d="M 305 1475 L 1497 1475 L 1409 1069 L 1257 1069 L 1315 1339 L 956 1339 L 702 141 L 864 141 L 834 0 L 340 0 L 371 141 L 535 141 L 786 1339 L 430 1339 L 373 1069 L 219 1069 L 305 1475 Z" unicode="T" />
<glyph horiz-adv-x="1540" d="M 1221 1475 L 1686 1475 L 1657 1331 L 1524 1331 L 1350 504 C 1332 422 1307 348 1273 282 C 1239 215 1197 158 1147 112 C 1097 66 1037 30 968 5 C 898 -20 820 -33 733 -33 C 618 -33 524 -17 450 13 C 376 44 320 86 282 139 C 243 192 220 254 213 326 C 205 398 210 474 227 555 L 391 1331 L 260 1331 L 291 1475 L 758 1475 L 727 1331 L 561 1331 L 393 539 C 362 395 377 288 438 218 C 498 148 601 113 745 113 C 855 113 949 146 1026 213 C 1102 280 1157 389 1190 539 L 1360 1331 L 1192 1331 L 1221 1475 Z" unicode="U" />
<glyph horiz-adv-x="1503" d="M 1229 1475 L 1651 1475 L 1620 1331 L 1518 1331 L 741 -20 L 567 -20 L 365 1331 L 260 1331 L 291 1475 L 731 1475 L 700 1331 L 535 1331 L 696 178 L 1348 1331 L 1198 1331 L 1229 1475 Z" unicode="V" />
<glyph horiz-adv-x="2191" d="M 1919 1475 L 2339 1475 L 2308 1331 L 2193 1331 L 1516 -20 L 1354 -20 L 1255 1208 L 637 -20 L 475 -20 L 371 1331 L 260 1331 L 291 1475 L 700 1475 L 672 1331 L 541 1331 L 616 252 L 1233 1475 L 1393 1475 L 1489 250 L 2023 1331 L 1888 1331 L 1919 1475 Z" unicode="W" />
<glyph horiz-adv-x="1468" d="M 1212 1475 L 1575 1475 L 1544 1331 L 1452 1331 C 1440 1321 1405 1285 1346 1223 C 1287 1161 1225 1095 1159 1025 C 1093 955 1034 892 981 835 C 927 778 901 750 901 750 L 1225 143 L 1333 143 L 1303 0 L 868 0 L 897 139 L 1042 139 L 776 651 L 297 139 L 440 139 L 410 0 L -23 0 L 8 143 L 109 143 C 109 143 138 173 197 235 C 255 297 320 365 392 440 C 464 515 532 586 596 652 C 660 718 697 756 707 766 L 406 1331 L 301 1331 L 332 1475 L 762 1475 L 731 1333 L 586 1333 L 829 868 L 1264 1333 L 1182 1333 L 1212 1475 Z" unicode="X" />
<glyph horiz-adv-x="1493" d="M 1219 1475 L 1640 1475 L 1610 1331 L 1511 1331 C 1465 1280 1405 1215 1333 1136 C 1260 1056 1190 979 1122 905 C 1054 830 995 766 945 712 C 895 658 870 631 870 631 L 768 141 L 924 141 L 893 0 L 414 0 L 444 141 L 600 141 L 702 631 L 360 1331 L 260 1331 L 291 1475 L 731 1475 L 700 1331 L 539 1331 L 809 758 L 1329 1331 L 1188 1331 L 1219 1475 Z" unicode="Y" />
<glyph horiz-adv-x="1227" d="M 311 1475 L 1352 1475 L 1325 1348 L 219 137 L 942 137 L 999 412 L 1147 412 L 1059 0 L -23 0 L 4 119 L 1114 1337 L 430 1337 L 373 1069 L 225 1069 L 311 1475 Z" unicode="Z" />
<glyph horiz-adv-x="680" d="M 436 1475 L 788 1475 L 758 1331 L 575 1331 L 240 -250 L 422 -250 L 391 -393 L 39 -393 L 436 1475 Z" unicode="[" />
<glyph horiz-adv-x="946" d="M 516 1507 L 715 -190 L 551 -190 L 352 1507 L 516 1507 Z" unicode="\" />
<glyph horiz-adv-x="680" d="M 334 1475 L 686 1475 L 289 -393 L -63 -393 L -33 -250 L 150 -250 L 485 1331 L 303 1331 L 334 1475 Z" unicode="]" />
<glyph horiz-adv-x="1645" d="M 934 1501 L 1399 604 L 1235 604 L 881 1290 L 526 604 L 360 604 L 827 1501 L 934 1501 Z" unicode="^" />
<glyph horiz-adv-x="1010" d="M -106 -63 L 903 -63 L 874 -205 L -135 -205 L -106 -63 Z" unicode="_" />
<glyph horiz-adv-x="1069" d="M 606 1403 L 764 1042 L 639 1042 L 430 1403 L 606 1403 Z" unicode="`" />
<glyph horiz-adv-x="1178" d="M 473 111 C 561 111 637 141 699 201 C 761 261 802 345 821 451 C 829 493 830 535 825 577 C 819 619 807 656 787 688 C 767 720 740 747 705 767 C 669 787 626 797 575 797 C 528 797 483 787 439 769 C 395 751 356 724 322 689 C 288 654 261 611 241 560 C 221 509 211 451 211 387 C 211 347 216 310 227 276 C 238 242 254 213 276 189 C 297 164 324 145 357 131 C 390 117 429 111 473 111 Z M 922 909 L 1225 909 L 1196 770 L 1047 770 L 913 137 L 1061 137 L 1032 0 L 729 0 L 752 106 C 706 60 655 25 600 3 C 544 -19 490 -31 436 -31 C 372 -31 316 -21 268 -1 C 220 19 180 46 148 81 C 116 115 91 157 75 205 C 59 253 51 306 51 362 C 51 456 66 540 96 612 C 126 684 164 743 211 791 C 258 839 311 875 371 899 C 431 923 490 936 549 936 C 636 936 707 918 763 882 C 819 846 860 800 887 743 L 922 909 Z" unicode="a" />
<glyph horiz-adv-x="1188" d="M 743 936 C 808 936 866 926 916 906 C 966 886 1008 858 1042 823 C 1075 788 1100 746 1117 698 C 1134 650 1143 597 1143 541 C 1143 445 1127 362 1096 290 C 1064 218 1024 158 975 111 C 926 63 871 28 810 4 C 749 -19 689 -31 631 -31 C 541 -31 468 -12 410 24 C 352 60 310 108 285 168 L 250 0 L -31 0 L -2 137 L 125 137 L 379 1335 L 236 1335 L 266 1475 L 563 1475 L 418 797 C 464 843 516 877 573 901 C 630 924 687 936 743 936 Z M 604 109 C 652 109 699 118 745 136 C 790 154 830 180 865 214 C 900 248 928 290 949 341 C 970 391 981 449 981 514 C 981 554 975 591 963 625 C 951 659 934 689 911 714 C 888 739 859 759 825 773 C 791 787 751 795 707 795 C 661 795 619 787 579 771 C 539 755 503 733 472 704 C 441 674 415 638 394 596 C 372 553 357 505 348 453 C 340 409 339 367 345 326 C 351 284 365 248 386 216 C 407 184 436 158 472 138 C 508 118 552 109 604 109 Z" unicode="b" />
<glyph horiz-adv-x="1032" d="M 887 909 L 1014 909 L 944 578 L 807 578 L 827 668 C 817 684 804 699 790 715 C 775 731 757 745 737 757 C 716 769 692 778 664 786 C 636 793 603 797 567 797 C 527 797 486 788 444 771 C 402 754 364 729 330 695 C 296 661 268 619 246 568 C 224 516 213 457 213 389 C 213 349 218 311 230 277 C 242 242 259 212 282 187 C 305 162 334 142 369 128 C 404 113 445 106 492 106 C 566 106 623 121 663 153 C 703 185 737 226 764 276 L 911 276 C 897 236 879 198 855 161 C 831 123 801 90 766 62 C 730 34 689 11 642 -5 C 594 -22 541 -31 481 -31 C 408 -31 345 -20 291 1 C 237 23 192 52 157 89 C 122 126 96 169 79 219 C 61 269 53 321 53 377 C 53 469 68 550 100 620 C 131 690 171 749 221 795 C 270 841 325 876 387 900 C 448 924 508 936 567 936 C 637 936 697 926 747 907 C 796 888 836 859 868 819 L 887 909 Z" unicode="c" />
<glyph horiz-adv-x="1188" d="M 485 111 C 530 111 572 118 612 134 C 652 150 687 172 718 201 C 749 230 775 266 797 308 C 818 350 834 398 844 451 C 851 495 852 537 846 579 C 840 621 826 658 806 690 C 785 722 757 747 721 767 C 685 787 640 797 588 797 C 540 797 494 787 449 769 C 403 751 363 724 328 690 C 293 656 265 613 243 562 C 221 511 211 453 211 389 C 211 349 216 312 228 278 C 240 244 257 214 280 190 C 303 165 332 146 366 132 C 400 118 440 111 485 111 Z M 881 1475 L 1219 1475 L 934 137 L 1081 137 L 1053 0 L 750 0 L 772 109 C 726 63 674 28 618 4 C 561 -19 505 -31 449 -31 C 384 -31 327 -21 277 -1 C 227 19 185 46 152 82 C 118 117 93 159 76 208 C 59 256 51 309 51 365 C 51 459 66 542 98 614 C 129 686 169 745 218 793 C 266 840 321 876 382 900 C 442 924 502 936 561 936 C 650 936 723 917 780 880 C 836 842 878 795 905 737 L 1032 1335 L 850 1335 L 881 1475 Z" unicode="d" />
<glyph horiz-adv-x="1001" d="M 559 936 C 633 936 694 925 744 905 C 794 884 833 856 863 822 C 893 788 914 748 926 702 C 938 656 944 609 944 559 C 944 536 942 510 939 481 C 935 451 932 425 928 403 L 207 403 L 207 377 C 207 338 212 302 223 268 C 233 234 249 205 271 181 C 292 156 319 137 353 123 C 387 109 427 102 473 102 C 530 102 581 114 625 140 C 669 165 705 204 733 256 L 885 256 C 866 206 841 164 811 128 C 781 92 747 62 711 38 C 674 14 635 -2 593 -14 C 551 -25 511 -31 471 -31 C 397 -31 334 -20 281 0 C 227 21 184 50 150 86 C 116 122 91 164 75 213 C 59 261 51 313 51 369 C 51 463 66 546 97 618 C 128 689 168 748 217 795 C 265 842 320 877 380 901 C 440 924 500 936 559 936 Z M 791 535 C 791 541 792 546 792 550 C 792 554 793 558 793 563 C 792 594 788 624 781 653 C 773 681 761 706 743 728 C 725 750 700 767 670 780 C 639 792 601 799 555 799 C 520 799 486 793 452 782 C 418 770 387 753 358 731 C 329 709 303 681 281 648 C 259 615 241 577 229 535 L 791 535 Z" unicode="e" />
<glyph horiz-adv-x="610" d="M 385 1196 C 396 1248 411 1293 430 1329 C 449 1365 474 1393 505 1415 C 535 1437 574 1452 620 1461 C 666 1470 721 1475 786 1475 L 756 1331 C 717 1331 685 1327 659 1321 C 633 1315 612 1305 596 1291 C 580 1277 567 1260 558 1238 C 549 1216 541 1190 535 1159 L 479 909 L 668 909 L 637 770 L 451 770 L 315 137 L 504 137 L 473 0 L -31 0 L -2 137 L 162 137 L 295 770 L 133 770 L 162 909 L 326 909 L 385 1196 Z" unicode="f" />
<glyph horiz-adv-x="1188" d="M 485 111 C 530 111 572 118 612 134 C 652 150 687 172 718 201 C 749 230 775 266 797 308 C 818 350 834 398 844 451 C 851 495 852 537 846 579 C 840 621 826 658 806 690 C 785 722 757 747 721 767 C 685 787 640 797 588 797 C 540 797 494 787 449 769 C 403 751 363 724 328 690 C 293 656 265 613 243 562 C 221 511 211 453 211 389 C 211 349 216 312 228 278 C 240 244 257 214 280 190 C 303 165 332 146 366 132 C 400 118 440 111 485 111 Z M 942 909 L 1245 909 L 1217 770 L 1069 770 L 930 117 C 910 24 886 -55 859 -123 C 832 -190 798 -245 756 -288 C 714 -331 663 -363 603 -383 C 543 -403 470 -414 385 -414 C 349 -414 315 -412 282 -408 C 248 -404 218 -400 191 -395 C 163 -389 139 -384 118 -378 C 97 -372 81 -366 70 -362 L 100 -221 C 113 -225 130 -231 152 -237 C 173 -243 196 -249 222 -255 C 247 -261 274 -266 303 -270 C 332 -274 361 -276 391 -276 C 451 -276 502 -268 544 -252 C 586 -236 622 -212 651 -180 C 679 -148 703 -108 722 -60 C 741 -12 758 44 772 109 C 726 61 674 26 616 3 C 558 -19 501 -31 444 -31 C 380 -31 323 -20 274 0 C 224 20 183 48 150 84 C 117 120 92 162 76 211 C 59 260 51 313 51 369 C 51 463 66 546 98 618 C 129 689 169 748 218 795 C 266 842 321 877 382 901 C 442 924 502 936 561 936 C 650 936 723 917 781 880 C 838 842 879 795 905 737 L 942 909 Z" unicode="g" />
<glyph horiz-adv-x="1151" d="M 901 137 L 1044 137 L 1014 0 L 588 0 L 618 137 L 748 137 L 838 563 C 852 633 849 688 829 727 C 808 766 771 786 717 786 C 692 786 665 781 637 772 C 608 762 579 749 549 733 C 519 716 490 696 460 672 C 430 648 401 622 375 594 L 279 137 L 408 137 L 379 0 L -31 0 L -2 137 L 125 137 L 379 1335 L 236 1335 L 266 1475 L 563 1475 L 412 756 C 434 777 460 798 488 820 C 516 842 546 861 578 878 C 609 895 641 909 675 920 C 709 930 742 936 774 936 C 822 936 862 927 896 909 C 929 891 955 865 973 833 C 991 800 1001 760 1004 714 C 1007 667 1003 615 991 559 L 901 137 Z" unicode="h" />
<glyph horiz-adv-x="592" d="M 375 1272 L 575 1272 L 537 1090 L 338 1090 L 375 1272 Z M 315 137 L 485 137 L 455 0 L -31 0 L -2 137 L 162 137 L 295 770 L 133 770 L 162 909 L 479 909 L 315 137 Z" unicode="i" />
<glyph horiz-adv-x="518" d="M 375 1272 L 575 1272 L 537 1090 L 338 1090 L 375 1272 Z M 162 909 L 479 909 L 270 -74 C 255 -143 237 -199 217 -242 C 196 -285 170 -318 140 -341 C 110 -364 73 -379 31 -387 C -11 -395 -62 -399 -121 -399 L -90 -254 C -52 -254 -22 -250 1 -243 C 25 -235 44 -224 59 -208 C 74 -192 86 -171 94 -146 C 102 -120 111 -90 119 -55 L 295 770 L 133 770 L 162 909 Z" unicode="j" />
<glyph horiz-adv-x="1040" d="M 631 909 L 1042 909 L 1014 770 L 903 770 L 516 487 L 784 139 L 936 139 L 905 0 L 698 0 L 350 471 L 279 135 L 403 135 L 375 0 L -31 0 L -2 137 L 125 137 L 379 1335 L 236 1335 L 266 1475 L 563 1475 L 356 502 L 715 772 L 600 772 L 631 909 Z" unicode="k" />
<glyph horiz-adv-x="575" d="M 266 1475 L 584 1475 L 299 137 L 469 137 L 438 0 L -31 0 L -2 137 L 145 137 L 399 1335 L 236 1335 L 266 1475 Z" unicode="l" />
<glyph horiz-adv-x="1751" d="M 1516 137 L 1645 137 L 1614 0 L 1204 0 L 1233 137 L 1360 137 L 1450 563 C 1465 633 1463 688 1443 727 C 1423 766 1387 786 1333 786 C 1304 786 1274 780 1244 768 C 1214 756 1184 741 1155 723 C 1125 705 1097 684 1071 662 C 1045 639 1021 616 1001 594 C 1000 588 999 582 998 576 C 996 570 995 565 995 559 L 905 137 L 1024 137 L 995 0 L 602 0 L 631 137 L 750 137 L 842 563 C 856 633 854 688 834 727 C 814 766 777 786 723 786 C 694 786 664 780 633 768 C 602 756 572 740 543 722 C 513 703 485 682 459 660 C 433 637 410 615 391 594 L 295 137 L 422 137 L 393 0 L -31 0 L -2 137 L 141 137 L 274 770 L 133 770 L 162 909 L 459 909 L 428 756 C 450 778 475 799 503 821 C 531 843 560 862 590 879 C 620 895 652 909 684 920 C 716 930 748 936 780 936 C 849 936 902 917 938 881 C 974 844 997 797 1006 739 C 1030 763 1058 787 1088 811 C 1118 835 1150 856 1183 874 C 1216 892 1250 907 1286 919 C 1322 930 1357 936 1391 936 C 1441 936 1482 926 1515 906 C 1548 886 1573 859 1590 825 C 1607 791 1617 751 1619 705 C 1621 659 1617 610 1606 559 L 1516 137 Z" unicode="m" />
<glyph horiz-adv-x="1167" d="M 918 137 L 1061 137 L 1030 0 L 604 0 L 635 137 L 764 137 L 854 563 C 869 633 866 688 845 727 C 824 766 787 786 733 786 C 704 786 674 780 642 768 C 610 756 578 740 548 722 C 517 703 488 682 461 660 C 433 637 410 615 391 594 L 295 137 L 424 137 L 395 0 L -31 0 L -2 137 L 141 137 L 274 770 L 133 770 L 162 909 L 459 909 L 428 756 C 450 778 476 799 505 821 C 534 843 564 862 596 879 C 628 895 660 909 694 920 C 727 930 759 936 791 936 C 843 936 885 926 919 906 C 952 886 977 859 994 825 C 1011 791 1020 751 1022 705 C 1024 659 1019 610 1008 559 L 918 137 Z" unicode="n" />
<glyph horiz-adv-x="1075" d="M 582 936 C 651 936 713 925 769 904 C 824 882 871 853 909 816 C 947 779 976 735 996 684 C 1016 633 1026 578 1026 520 C 1026 426 1009 345 976 276 C 943 206 901 149 850 104 C 798 58 741 24 678 2 C 615 -19 554 -31 496 -31 C 426 -31 363 -20 308 0 C 253 21 207 50 169 86 C 131 122 103 166 83 217 C 63 267 53 322 53 381 C 53 469 68 547 100 617 C 132 686 173 744 223 791 C 273 838 329 874 393 899 C 456 923 519 936 582 936 Z M 502 109 C 547 109 592 117 636 135 C 680 153 719 178 753 212 C 787 245 815 286 836 336 C 857 385 868 441 868 504 C 868 544 861 581 849 617 C 836 652 817 682 793 708 C 769 734 738 754 701 770 C 664 785 621 793 573 793 C 525 793 480 783 436 763 C 392 743 354 716 321 681 C 287 646 261 604 241 555 C 221 506 211 453 211 395 C 211 355 217 318 229 283 C 241 248 260 218 284 192 C 308 166 338 146 375 131 C 411 116 454 109 502 109 Z" unicode="o" />
<glyph horiz-adv-x="1188" d="M 604 109 C 652 109 698 118 744 136 C 790 154 830 180 865 214 C 899 248 927 290 949 341 C 970 391 981 449 981 514 C 981 554 975 591 963 625 C 951 659 934 689 911 714 C 888 739 859 759 825 773 C 791 787 751 795 707 795 C 661 795 619 787 579 771 C 539 755 504 733 473 704 C 442 674 416 638 395 596 C 373 553 358 505 348 453 C 340 410 339 368 345 327 C 351 285 365 248 386 216 C 407 184 436 158 472 138 C 508 118 552 109 604 109 Z M 743 936 C 808 936 866 926 916 906 C 966 886 1008 858 1042 823 C 1075 788 1100 746 1117 698 C 1134 650 1143 597 1143 541 C 1143 447 1127 364 1096 292 C 1065 220 1025 160 977 113 C 928 65 873 29 812 5 C 751 -18 691 -31 631 -31 C 541 -31 468 -12 411 24 C 354 60 312 108 285 168 L 195 -258 L 365 -258 L 334 -393 L -135 -393 L -106 -258 L 41 -258 L 258 770 L 111 770 L 139 909 L 442 909 L 418 797 C 464 843 516 877 573 901 C 630 924 687 936 743 936 Z" unicode="p" />
<glyph horiz-adv-x="1188" d="M 942 909 L 1245 909 L 1217 770 L 1069 770 L 850 -258 L 997 -258 L 969 -393 L 500 -393 L 528 -258 L 694 -258 L 772 109 C 726 61 674 26 616 3 C 558 -19 501 -31 444 -31 C 380 -31 323 -20 274 0 C 224 20 183 48 150 84 C 117 120 92 162 76 211 C 59 260 51 313 51 369 C 51 463 66 546 98 618 C 129 689 169 748 218 795 C 266 842 321 877 382 901 C 442 924 502 936 561 936 C 650 936 723 917 781 880 C 838 842 879 795 905 737 L 942 909 Z M 485 111 C 530 111 572 118 612 134 C 652 150 687 172 718 201 C 749 230 775 266 797 308 C 818 350 834 398 844 451 C 851 495 852 537 846 579 C 840 621 826 658 806 690 C 785 722 757 747 721 767 C 685 787 640 797 588 797 C 540 797 494 787 449 769 C 403 751 363 724 328 690 C 293 656 265 613 243 562 C 221 511 211 453 211 389 C 211 349 216 312 228 278 C 240 244 257 214 280 190 C 303 165 332 146 366 132 C 400 118 440 111 485 111 Z" unicode="q" />
<glyph horiz-adv-x="690" d="M 422 735 C 438 753 458 774 483 796 C 507 818 535 838 566 858 C 597 878 631 895 668 910 C 704 924 742 934 782 938 L 752 788 C 718 784 683 775 649 761 C 614 747 581 730 549 710 C 517 690 488 669 461 646 C 433 622 409 600 389 578 L 295 137 L 442 137 L 412 0 L -31 0 L -2 137 L 141 137 L 274 770 L 133 770 L 162 909 L 459 909 L 422 735 Z" unicode="r" />
<glyph horiz-adv-x="897" d="M 756 909 L 877 909 L 813 604 L 676 604 L 698 702 C 674 732 644 756 606 774 C 568 792 520 801 463 801 C 443 801 423 798 403 793 C 383 787 364 779 348 768 C 332 756 318 741 308 723 C 298 705 293 683 293 657 C 293 611 319 579 371 561 C 423 543 480 525 542 507 C 604 489 661 465 713 435 C 765 404 791 354 791 285 C 791 220 778 167 752 126 C 726 85 694 53 658 30 C 621 7 582 -8 542 -16 C 502 -24 467 -29 438 -29 C 364 -29 302 -20 252 -2 C 201 15 157 42 121 78 C 121 78 120 74 118 66 C 116 58 114 49 112 39 C 110 29 108 20 106 12 C 104 4 104 0 104 0 L -16 0 L 57 340 L 193 340 L 168 223 C 197 183 233 152 277 132 C 321 112 374 102 438 102 C 452 102 469 103 491 105 C 513 107 534 114 554 124 C 574 134 592 150 607 171 C 621 192 629 221 629 258 C 629 306 603 339 551 358 C 499 377 443 395 381 413 C 319 430 262 454 210 484 C 158 514 133 563 133 633 C 133 689 143 736 165 775 C 186 813 213 844 246 868 C 278 891 314 908 353 918 C 392 928 429 934 465 934 C 534 934 591 924 637 904 C 683 884 717 863 741 840 L 756 909 Z" unicode="s" />
<glyph horiz-adv-x="614" d="M 463 909 L 672 909 L 641 770 L 434 770 L 299 137 L 508 137 L 477 0 L 115 0 L 279 770 L 111 770 L 139 909 L 309 909 L 385 1272 L 541 1272 L 463 909 Z" unicode="t" />
<glyph horiz-adv-x="1110" d="M 719 909 L 1022 909 L 858 139 L 1006 139 L 975 0 L 674 0 L 707 154 C 653 102 595 59 531 25 C 467 -9 406 -27 346 -27 C 296 -27 255 -17 222 1 C 188 19 163 45 146 79 C 129 112 120 152 118 200 C 116 247 121 299 133 356 L 221 770 L 80 770 L 109 909 L 406 909 L 285 344 C 269 272 272 217 292 179 C 312 140 350 121 406 121 C 434 121 464 126 494 137 C 524 148 553 162 582 180 C 610 198 638 218 665 241 C 692 264 717 288 741 313 L 838 770 L 690 770 L 719 909 Z" unicode="u" />
<glyph horiz-adv-x="1055" d="M 752 909 L 1112 909 L 1081 770 L 997 770 L 516 -23 L 346 -23 L 195 770 L 111 770 L 139 909 L 506 909 L 477 770 L 352 770 L 463 137 L 842 770 L 721 770 L 752 909 Z" unicode="v" />
<glyph horiz-adv-x="1567" d="M 1266 909 L 1624 909 L 1593 770 L 1503 770 L 1042 -23 L 903 -23 L 829 670 L 467 -23 L 328 -23 L 203 770 L 111 770 L 139 909 L 504 909 L 475 770 L 354 770 L 438 170 L 825 909 L 942 909 L 1018 178 L 1354 770 L 1237 770 L 1266 909 Z" unicode="w" />
<glyph horiz-adv-x="1106" d="M 752 909 L 1122 909 L 1092 770 L 997 770 L 668 465 L 889 137 L 999 137 L 969 0 L 557 0 L 586 131 L 715 131 L 547 391 L 272 131 L 401 131 L 375 0 L -31 0 L -2 137 L 98 137 L 469 477 L 270 770 L 174 770 L 203 909 L 569 909 L 541 776 L 444 776 L 590 551 L 827 776 L 723 776 L 752 909 Z" unicode="x" />
<glyph horiz-adv-x="1055" d="M 756 909 L 1112 909 L 1081 770 L 997 770 L 346 -250 L 502 -250 L 471 -393 L 0 -393 L 29 -250 L 201 -250 L 365 6 L 195 770 L 111 770 L 139 909 L 510 909 L 481 770 L 352 770 C 358 740 367 692 381 626 C 394 560 407 495 421 429 C 434 363 446 304 456 254 C 466 204 471 178 471 178 L 844 770 L 725 770 L 756 909 Z" unicode="y" />
<glyph horiz-adv-x="881" d="M 182 909 L 918 909 L 891 780 L 190 127 L 641 127 L 686 342 L 819 342 L 745 0 L -31 0 L -2 127 L 702 780 L 289 780 L 248 590 L 115 590 L 182 909 Z" unicode="z" />
<glyph horiz-adv-x="920" d="M 920 1475 L 1032 1475 L 1004 1331 L 954 1331 C 904 1331 863 1326 832 1316 C 800 1306 775 1289 755 1267 C 735 1244 720 1214 708 1177 C 696 1140 684 1095 672 1042 L 631 858 C 610 765 580 694 542 645 C 504 596 452 561 387 541 C 443 520 480 485 500 435 C 519 385 518 315 498 223 L 457 39 C 445 -14 437 -59 433 -96 C 429 -133 433 -163 443 -186 C 453 -208 472 -225 500 -235 C 527 -245 566 -250 616 -250 L 666 -250 L 635 -393 L 553 -393 C 490 -393 437 -386 395 -374 C 353 -361 320 -340 298 -312 C 275 -284 262 -246 259 -199 C 255 -151 261 -93 276 -25 L 322 182 C 333 232 340 276 342 313 C 344 349 338 379 326 402 C 313 425 291 442 261 453 C 231 463 189 469 137 469 L 90 469 L 121 612 L 197 612 C 243 612 281 617 312 628 C 342 638 368 655 388 678 C 408 701 424 731 437 768 C 450 804 462 848 473 899 L 516 1106 C 530 1174 547 1232 569 1280 C 590 1327 616 1365 648 1394 C 680 1422 718 1443 763 1456 C 807 1468 860 1475 920 1475 Z" unicode="{" />
<glyph horiz-adv-x="1059" d="M 684 1565 L 684 -483 L 526 -483 L 526 1565 L 684 1565 Z" unicode="|" />
<glyph horiz-adv-x="920" d="M 852 612 L 899 612 L 868 469 L 793 469 C 747 469 709 463 679 453 C 649 442 624 425 604 403 C 584 380 567 350 554 314 C 541 277 529 233 518 182 L 473 -25 C 457 -94 439 -152 418 -200 C 397 -247 371 -285 340 -313 C 308 -341 271 -362 227 -374 C 183 -386 130 -393 70 -393 L -43 -393 L -12 -250 L 37 -250 C 87 -250 127 -245 159 -235 C 191 -225 216 -208 236 -186 C 256 -163 272 -133 284 -96 C 296 -59 307 -14 319 39 L 358 223 C 377 316 406 387 446 436 C 486 485 538 520 602 541 C 547 561 510 596 492 645 C 474 694 474 765 494 858 L 532 1042 C 543 1095 550 1140 554 1177 C 558 1214 554 1244 544 1267 C 534 1289 515 1306 488 1316 C 461 1326 423 1331 373 1331 L 324 1331 L 354 1475 L 438 1475 C 500 1475 553 1468 595 1456 C 637 1444 669 1423 691 1395 C 713 1366 725 1328 729 1281 C 732 1233 727 1175 713 1106 L 670 899 C 659 847 652 803 650 767 C 648 730 653 700 665 678 C 677 655 698 638 728 628 C 758 617 799 612 852 612 Z" unicode="}" />
<glyph horiz-adv-x="1645" d="M 1309 1006 L 1464 1006 C 1462 934 1454 865 1441 799 C 1427 733 1408 675 1382 625 C 1356 575 1324 535 1285 505 C 1245 475 1199 461 1145 461 C 1103 461 1067 465 1038 475 C 1008 484 982 497 960 515 C 937 533 916 554 897 580 C 877 606 857 634 836 666 C 824 683 811 702 798 724 C 785 746 771 766 755 784 C 739 802 721 818 701 831 C 681 843 659 850 635 850 C 581 850 540 817 513 752 C 485 686 469 586 465 451 L 309 451 C 309 525 316 595 329 661 C 342 727 362 785 388 835 C 414 885 447 924 488 953 C 528 982 577 997 633 997 C 671 997 704 992 732 983 C 760 973 786 960 808 944 C 830 927 851 907 870 884 C 889 860 909 835 930 807 C 941 790 954 770 968 748 C 982 725 997 703 1014 683 C 1030 663 1049 645 1069 631 C 1089 617 1111 610 1135 610 C 1191 610 1231 642 1257 707 C 1283 772 1300 872 1309 1006 Z" unicode="~" />
<glyph horiz-adv-x="426" d="" unicode="" />
<glyph horiz-adv-x="692" d="M 463 1475 L 674 1475 L 633 1282 L 420 1282 L 463 1475 Z M 424 1143 L 569 1143 L 352 0 L 156 0 L 424 1143 Z" unicode="" />
<glyph horiz-adv-x="1141" d="M 510 311 L 657 1006 C 615 1003 573 992 531 973 C 489 953 452 926 419 891 C 385 856 358 813 338 762 C 317 711 307 653 307 588 C 307 554 311 521 320 491 C 328 460 341 433 358 409 C 374 385 395 364 421 347 C 447 330 476 318 510 311 Z M 991 1112 L 1116 1112 L 1047 782 L 911 782 L 932 874 C 916 900 895 924 867 948 C 839 972 802 988 758 997 L 610 303 C 677 307 730 325 769 359 C 808 393 840 433 866 479 L 1014 479 C 1000 443 981 407 957 371 C 933 335 904 302 870 274 C 836 246 795 222 748 204 C 701 185 648 175 588 174 L 551 0 L 438 0 L 475 182 C 421 190 373 206 333 230 C 292 253 258 282 231 316 C 204 350 184 389 170 433 C 156 477 150 523 150 573 C 150 661 165 740 195 810 C 225 880 265 940 314 988 C 363 1036 419 1074 483 1100 C 546 1126 610 1139 676 1139 L 680 1139 L 719 1319 L 831 1319 L 791 1126 C 828 1118 862 1104 892 1086 C 922 1068 948 1045 971 1018 L 991 1112 Z" unicode="" />
<glyph horiz-adv-x="1212" d="M 1190 1475 L 1337 1475 L 1255 1085 L 1100 1085 L 1124 1200 C 1116 1216 1106 1233 1092 1252 C 1078 1271 1061 1289 1039 1305 C 1017 1321 991 1334 959 1345 C 927 1356 890 1362 846 1362 C 808 1362 772 1357 738 1347 C 704 1337 673 1321 645 1299 C 617 1277 592 1247 571 1210 C 550 1173 534 1127 522 1073 C 516 1042 511 1004 508 958 C 505 912 502 863 500 813 L 815 813 L 784 678 L 500 678 C 499 626 497 575 493 526 C 489 476 483 433 475 395 C 469 365 462 337 455 309 C 447 281 439 255 430 231 C 444 217 460 204 478 191 C 496 178 517 166 541 156 C 564 146 590 137 620 131 C 649 124 681 121 717 121 C 790 121 849 142 894 185 C 938 227 967 299 981 401 L 1143 401 C 1133 335 1116 275 1094 223 C 1071 170 1042 125 1007 89 C 971 53 929 25 880 6 C 830 -13 774 -23 711 -23 C 665 -23 624 -19 586 -12 C 548 -4 514 5 484 17 C 454 29 427 42 403 58 C 379 74 358 90 340 106 C 302 70 253 44 195 26 C 137 8 63 0 -27 0 L 4 141 C 60 141 106 145 142 154 C 178 163 206 178 228 199 C 249 219 266 246 278 280 C 290 314 301 355 311 403 C 320 445 327 490 331 537 C 335 584 338 631 340 678 L 131 678 L 160 813 L 342 813 C 342 869 344 922 347 973 C 350 1023 355 1066 362 1100 C 378 1171 402 1232 434 1283 C 466 1334 502 1376 544 1408 C 586 1440 631 1463 681 1478 C 730 1493 780 1501 831 1501 C 874 1501 913 1497 949 1489 C 985 1481 1016 1471 1044 1459 C 1071 1446 1095 1431 1115 1415 C 1135 1399 1153 1382 1167 1366 L 1190 1475 Z" unicode="" />
<glyph horiz-adv-x="1419" d="M 1364 1475 L 1509 1475 L 1421 1069 L 1268 1069 L 1296 1202 C 1285 1222 1271 1241 1254 1261 C 1236 1280 1216 1297 1192 1312 C 1168 1326 1139 1338 1107 1348 C 1075 1357 1039 1362 999 1362 C 949 1362 902 1351 858 1330 C 814 1309 774 1280 738 1243 C 702 1206 669 1162 641 1111 C 612 1060 587 1005 567 946 L 1071 946 L 1049 834 L 535 834 C 526 800 519 765 513 729 C 507 693 502 658 500 623 L 899 623 L 874 510 L 496 510 L 496 504 C 496 448 502 397 514 349 C 526 301 545 260 570 226 C 595 191 627 164 666 144 C 704 124 750 115 803 115 C 848 115 889 123 925 139 C 961 155 993 176 1021 204 C 1049 232 1073 264 1093 301 C 1113 338 1131 378 1145 420 L 1305 420 C 1283 354 1255 293 1223 239 C 1191 184 1153 137 1109 98 C 1065 59 1015 29 959 7 C 902 -14 839 -25 770 -25 C 695 -25 630 -12 574 13 C 518 38 473 73 437 119 C 401 165 374 220 356 285 C 338 349 330 420 330 498 L 330 510 L 125 510 L 150 623 L 336 623 C 338 658 343 693 349 729 C 355 765 362 800 371 834 L 195 834 L 219 946 L 403 946 C 430 1025 464 1099 505 1167 C 545 1235 591 1293 642 1343 C 693 1392 749 1431 811 1459 C 872 1487 937 1501 1006 1501 C 1089 1501 1158 1487 1214 1461 C 1269 1435 1311 1404 1341 1370 L 1364 1475 Z" unicode="" />
<glyph horiz-adv-x="1350" d="M 1081 1475 L 1505 1475 L 1475 1331 L 1384 1331 C 1379 1326 1350 1291 1297 1227 C 1243 1163 1186 1093 1124 1019 C 1062 945 1006 877 955 815 C 904 753 879 723 879 723 L 1241 723 L 1217 610 L 797 610 L 752 397 L 1171 397 L 1149 287 L 729 287 L 698 141 L 854 141 L 823 0 L 344 0 L 375 141 L 530 141 L 561 287 L 160 287 L 182 397 L 584 397 L 629 610 L 227 610 L 252 723 L 596 723 L 352 1331 L 258 1331 L 287 1475 L 739 1475 L 709 1331 L 535 1331 L 748 768 L 1206 1331 L 1051 1331 L 1081 1475 Z" unicode="" />
<glyph horiz-adv-x="1145" d="M 702 346 C 747 346 784 360 812 390 C 840 420 855 456 856 498 C 856 529 849 560 834 590 C 818 620 797 654 770 692 L 657 844 C 635 873 616 895 600 910 C 584 924 560 932 530 932 C 507 932 486 927 468 919 C 449 911 433 899 420 885 C 406 871 396 854 389 835 C 381 816 377 796 377 776 C 376 745 383 715 398 685 C 412 655 433 622 461 586 L 569 438 C 588 411 607 389 626 372 C 645 354 670 346 702 346 Z M 846 1483 L 1151 1483 L 1077 1139 L 930 1139 L 975 1350 L 836 1350 C 765 1350 715 1337 685 1312 C 655 1286 641 1250 641 1204 C 641 1174 649 1143 666 1111 C 682 1078 706 1041 737 1001 L 913 770 C 945 727 971 684 990 642 C 1008 599 1018 556 1018 514 C 1018 474 1010 437 995 402 C 980 367 959 337 933 312 C 906 286 873 266 835 252 C 796 238 753 231 707 233 C 728 199 743 168 752 141 C 761 113 766 87 766 63 C 766 9 756 -34 738 -70 C 719 -105 693 -133 660 -153 C 626 -173 586 -188 539 -196 C 491 -204 439 -209 383 -209 L 80 -209 L 154 135 L 303 135 L 258 -76 L 395 -76 C 468 -76 519 -63 547 -38 C 575 -13 590 22 590 70 C 590 100 581 132 563 166 C 545 199 517 241 479 291 L 322 496 C 288 538 261 582 242 626 C 222 670 213 714 213 758 C 213 798 220 835 234 871 C 248 906 269 936 296 962 C 322 988 355 1008 393 1022 C 431 1036 474 1042 522 1040 C 501 1074 486 1105 478 1132 C 469 1159 465 1185 465 1210 C 465 1261 474 1304 494 1340 C 513 1375 540 1403 574 1424 C 608 1445 648 1460 695 1469 C 741 1478 792 1483 846 1483 Z" unicode="" />
<glyph horiz-adv-x="1069" d="M 446 1294 L 618 1294 L 580 1102 L 406 1102 L 446 1294 Z M 797 1294 L 971 1294 L 930 1102 L 758 1102 L 797 1294 Z" unicode="" />
<glyph horiz-adv-x="1710" d="M 932 1522 C 1042 1522 1144 1502 1239 1463 C 1334 1423 1416 1369 1485 1299 C 1553 1229 1607 1146 1647 1050 C 1686 954 1706 849 1706 737 C 1706 625 1686 521 1647 425 C 1607 329 1553 246 1485 176 C 1416 106 1334 52 1239 12 C 1144 -27 1042 -47 932 -47 C 822 -47 719 -27 624 12 C 528 52 446 106 377 176 C 308 246 254 329 215 425 C 175 521 156 625 156 737 C 156 849 175 954 215 1050 C 254 1146 308 1229 377 1299 C 446 1369 528 1423 624 1463 C 719 1502 822 1522 932 1522 Z M 932 41 C 1028 41 1117 58 1201 94 C 1285 129 1357 177 1418 239 C 1478 301 1526 374 1561 460 C 1596 545 1614 637 1614 737 C 1614 837 1596 929 1561 1015 C 1526 1101 1478 1174 1418 1236 C 1357 1298 1285 1346 1201 1381 C 1117 1416 1028 1434 932 1434 C 835 1434 745 1416 661 1381 C 577 1346 504 1298 444 1236 C 383 1174 335 1101 300 1015 C 265 929 248 837 248 737 C 248 637 265 545 300 460 C 335 374 383 301 444 239 C 504 177 577 129 661 94 C 745 58 835 41 932 41 Z M 1233 532 L 1376 532 C 1364 493 1348 454 1327 416 C 1306 377 1278 342 1243 312 C 1207 282 1163 257 1111 238 C 1058 218 995 209 922 209 C 844 209 775 222 713 248 C 651 274 599 309 557 354 C 515 399 482 453 460 515 C 437 577 426 645 426 717 C 426 789 438 857 462 920 C 486 983 519 1037 563 1083 C 607 1129 659 1165 721 1191 C 782 1217 850 1231 924 1231 C 988 1231 1045 1221 1097 1201 C 1148 1181 1191 1154 1225 1120 L 1225 1208 L 1348 1208 L 1348 895 L 1212 895 L 1212 985 C 1199 999 1184 1013 1167 1027 C 1150 1041 1131 1054 1109 1066 C 1087 1077 1061 1086 1033 1093 C 1004 1100 972 1104 936 1104 C 881 1104 831 1095 787 1077 C 742 1059 704 1033 674 1000 C 643 966 619 926 603 878 C 586 830 578 776 578 717 C 578 659 586 606 602 558 C 618 510 642 470 672 437 C 702 403 738 377 782 359 C 825 341 873 332 926 332 C 974 332 1015 337 1050 347 C 1084 357 1114 372 1138 390 C 1162 408 1181 429 1196 453 C 1211 477 1223 504 1233 532 Z" unicode="" />
<glyph horiz-adv-x="965" d="M 545 938 C 568 938 592 942 616 951 C 640 960 662 974 682 992 C 702 1010 720 1032 736 1060 C 752 1087 763 1119 770 1157 C 775 1187 775 1215 770 1242 C 765 1269 755 1293 741 1313 C 726 1333 706 1348 682 1360 C 658 1372 629 1378 596 1378 C 566 1378 537 1372 509 1362 C 480 1351 455 1335 433 1313 C 411 1291 393 1264 380 1230 C 366 1196 360 1157 360 1112 C 360 1056 375 1013 406 983 C 437 953 483 938 545 938 Z M 838 1477 L 1067 1477 L 1044 1366 L 940 1366 L 852 956 L 956 956 L 932 844 L 702 844 L 719 909 C 691 881 659 860 622 845 C 585 830 548 823 510 823 C 466 823 426 830 392 844 C 357 858 328 877 305 902 C 281 926 263 955 251 989 C 239 1023 233 1059 233 1098 C 233 1164 243 1222 265 1272 C 287 1322 314 1363 348 1396 C 382 1429 420 1454 462 1471 C 504 1488 546 1497 588 1497 C 648 1497 697 1486 735 1464 C 773 1442 799 1412 815 1372 L 838 1477 Z" unicode="" />
<glyph horiz-adv-x="1165" d="M 481 909 L 647 909 L 360 451 L 453 0 L 287 0 L 199 451 L 481 909 Z M 907 909 L 1073 909 L 786 451 L 879 0 L 713 0 L 625 451 L 907 909 Z" unicode="" />
<glyph horiz-adv-x="1645" d="M 1458 893 L 1458 287 L 1296 287 L 1296 750 L 303 750 L 303 893 L 1458 893 Z" unicode="" />
<glyph horiz-adv-x="717" d="M 129 631 L 662 631 L 631 496 L 98 496 L 129 631 Z" unicode="" />
<glyph horiz-adv-x="1036" d="M 670 1507 C 734 1507 792 1495 846 1473 C 900 1451 946 1420 985 1381 C 1023 1341 1053 1295 1075 1241 C 1097 1187 1108 1128 1108 1065 C 1108 1001 1097 942 1075 888 C 1053 834 1023 787 985 748 C 946 708 900 677 846 655 C 792 632 734 621 670 621 C 607 621 549 632 495 655 C 441 677 395 708 357 748 C 318 787 288 834 266 888 C 244 942 233 1001 233 1065 C 233 1128 244 1187 266 1241 C 288 1295 318 1341 357 1381 C 395 1420 441 1451 495 1473 C 549 1495 607 1507 670 1507 Z M 670 676 C 724 676 775 685 822 705 C 869 725 909 752 943 787 C 977 821 1003 862 1022 910 C 1041 958 1051 1009 1051 1065 C 1051 1119 1041 1170 1022 1218 C 1003 1266 977 1307 943 1341 C 909 1375 869 1402 822 1422 C 775 1442 724 1452 670 1452 C 615 1452 564 1442 518 1422 C 472 1402 432 1375 398 1341 C 364 1307 338 1266 319 1218 C 300 1170 291 1119 291 1065 C 291 1009 300 958 319 910 C 338 862 364 821 398 787 C 432 752 472 725 518 705 C 564 685 615 676 670 676 Z M 690 1104 C 724 1104 751 1110 769 1123 C 787 1136 797 1158 797 1188 C 797 1220 786 1241 765 1251 C 744 1261 714 1266 676 1266 L 578 1266 L 578 1104 L 690 1104 Z M 915 874 L 915 803 L 774 803 L 774 944 C 774 976 767 999 755 1011 C 743 1023 716 1030 676 1030 L 578 1030 L 578 874 L 633 874 L 633 803 L 444 803 L 444 874 L 494 874 L 494 1266 L 444 1266 L 444 1339 L 678 1339 C 744 1339 794 1328 830 1307 C 865 1285 883 1247 883 1192 C 883 1158 874 1130 857 1110 C 839 1090 818 1075 793 1065 C 821 1060 839 1047 847 1026 C 854 1005 858 980 858 952 L 858 874 L 915 874 Z" unicode="" />
<glyph horiz-adv-x="1069" d="M 381 1262 L 872 1262 L 846 1130 L 354 1130 L 381 1262 Z" unicode="" />
<glyph horiz-adv-x="758" d="M 565 1501 C 607 1501 644 1494 676 1481 C 708 1467 735 1449 757 1427 C 778 1404 794 1378 805 1348 C 815 1318 821 1286 821 1253 C 821 1205 812 1161 794 1122 C 776 1083 752 1050 723 1023 C 694 996 661 975 623 961 C 585 947 548 940 510 940 C 469 940 433 946 401 960 C 369 973 343 991 322 1013 C 301 1035 285 1060 274 1090 C 263 1120 258 1151 258 1184 C 258 1229 266 1271 283 1310 C 300 1349 323 1383 351 1411 C 379 1439 411 1461 449 1477 C 486 1493 525 1501 565 1501 Z M 518 1036 C 540 1036 564 1040 588 1049 C 612 1057 633 1070 653 1088 C 673 1106 689 1128 702 1154 C 714 1180 721 1211 721 1247 C 721 1291 706 1329 678 1359 C 650 1389 610 1405 559 1405 C 533 1405 507 1399 483 1389 C 459 1378 437 1363 419 1344 C 401 1324 386 1301 375 1275 C 363 1248 358 1219 358 1188 C 358 1145 372 1109 400 1080 C 428 1050 467 1036 518 1036 Z" unicode="" />
<glyph horiz-adv-x="1645" d="M 1452 834 L 1452 690 L 971 690 L 971 236 L 809 236 L 809 690 L 315 690 L 315 834 L 809 834 L 809 1300 L 971 1300 L 971 834 L 1452 834 Z M 1452 143 L 1452 0 L 315 0 L 315 143 L 1452 143 Z" unicode="" />
<glyph horiz-adv-x="920" d="M 655 1495 C 736 1495 799 1476 844 1439 C 888 1402 911 1350 911 1282 C 911 1240 904 1203 889 1171 C 873 1138 853 1108 827 1082 C 801 1056 770 1031 736 1009 C 701 986 665 964 627 942 C 576 912 535 887 503 867 C 471 847 446 829 428 815 C 410 801 398 788 390 778 C 382 768 377 758 375 750 L 684 750 L 715 889 L 838 889 L 786 647 L 197 647 C 207 688 218 723 232 753 C 246 782 265 810 291 836 C 316 862 350 889 392 918 C 434 947 489 982 555 1022 C 593 1045 625 1065 653 1083 C 681 1101 703 1118 721 1136 C 738 1153 751 1172 759 1192 C 767 1212 772 1237 772 1266 C 772 1301 761 1331 740 1355 C 718 1379 685 1391 639 1391 C 594 1391 557 1378 529 1354 C 500 1330 480 1295 469 1251 L 336 1251 C 354 1324 392 1383 448 1428 C 504 1472 573 1495 655 1495 Z" unicode="" />
<glyph horiz-adv-x="897" d="M 655 1495 C 738 1495 801 1478 845 1444 C 889 1410 911 1367 911 1315 C 911 1285 905 1257 895 1232 C 885 1206 871 1184 853 1165 C 835 1145 814 1129 790 1115 C 766 1101 739 1091 711 1083 C 753 1073 787 1052 811 1022 C 835 991 848 953 848 909 C 848 868 839 831 823 797 C 807 763 784 733 755 709 C 726 685 691 666 651 653 C 611 639 567 633 520 633 C 466 633 420 638 384 650 C 347 661 318 677 296 698 C 274 719 259 744 250 774 C 240 804 236 837 236 874 L 371 874 C 375 823 388 787 410 766 C 432 745 469 735 522 735 C 545 735 568 738 591 744 C 613 750 633 759 651 772 C 669 785 683 803 694 825 C 705 847 711 873 711 905 C 711 947 693 979 657 999 C 621 1019 569 1030 502 1030 L 475 1030 L 496 1133 L 520 1133 C 601 1133 662 1145 704 1170 C 746 1195 767 1237 768 1296 C 768 1324 757 1346 736 1364 C 714 1382 681 1391 637 1391 C 598 1391 562 1382 530 1365 C 498 1347 477 1311 467 1255 L 334 1255 C 342 1293 355 1328 375 1358 C 395 1388 419 1413 447 1433 C 475 1453 506 1469 542 1479 C 578 1489 615 1495 655 1495 Z" unicode="" />
<glyph horiz-adv-x="1069" d="M 829 1403 L 1026 1403 L 664 1042 L 518 1042 L 829 1403 Z" unicode="" />
<glyph horiz-adv-x="1174" d="M 696 1475 L 1323 1475 L 1292 1331 L 1145 1331 L 862 0 L 711 0 L 993 1331 L 827 1331 L 545 0 L 391 0 L 545 721 C 494 724 447 735 405 754 C 362 773 326 798 297 829 C 267 859 245 895 230 937 C 215 979 209 1024 213 1073 C 217 1137 233 1195 261 1245 C 288 1295 323 1337 366 1371 C 409 1405 459 1430 516 1448 C 572 1466 632 1475 696 1475 Z" unicode="" />
<glyph horiz-adv-x="598" d="M 268 825 L 492 825 L 449 618 L 225 618 L 268 825 Z" unicode="" />
<glyph horiz-adv-x="1069" d="M 494 -102 C 560 -102 607 -118 637 -151 C 667 -184 678 -227 672 -281 C 668 -312 658 -339 642 -362 C 626 -385 606 -404 582 -419 C 558 -433 530 -444 499 -452 C 467 -459 434 -463 399 -463 C 356 -463 314 -460 274 -454 C 233 -448 193 -438 154 -426 L 176 -324 C 216 -334 254 -341 290 -347 C 326 -353 360 -356 393 -356 C 437 -356 472 -349 500 -335 C 528 -321 544 -300 549 -270 C 553 -237 545 -212 525 -195 C 505 -178 470 -170 420 -170 C 415 -170 405 -170 391 -170 C 377 -170 366 -171 360 -172 L 395 0 L 492 0 L 469 -102 L 494 -102 Z" unicode="" />
<glyph horiz-adv-x="680" d="M 397 1475 L 637 1475 L 483 750 L 569 750 L 547 641 L 221 641 L 244 750 L 346 750 L 477 1366 L 375 1366 L 397 1475 Z" unicode="" />
<glyph horiz-adv-x="844" d="M 610 1495 C 658 1495 700 1487 738 1473 C 776 1458 807 1438 833 1413 C 859 1387 878 1357 892 1322 C 906 1286 913 1248 913 1208 C 913 1144 901 1087 878 1039 C 854 991 825 951 789 919 C 753 887 713 864 669 848 C 625 832 583 825 543 825 C 495 825 453 832 416 846 C 379 860 348 880 322 906 C 296 931 277 961 264 996 C 250 1031 244 1069 244 1110 C 244 1171 255 1226 277 1274 C 299 1322 328 1362 363 1395 C 398 1427 437 1452 481 1469 C 525 1486 568 1495 610 1495 Z M 549 940 C 580 940 610 945 639 957 C 667 969 692 986 714 1008 C 736 1030 753 1058 766 1090 C 779 1122 786 1159 786 1200 C 786 1224 782 1247 775 1269 C 768 1291 757 1310 743 1326 C 728 1342 709 1354 686 1364 C 662 1373 635 1378 604 1378 C 570 1378 539 1371 511 1358 C 482 1345 457 1327 436 1304 C 415 1280 399 1253 387 1221 C 375 1189 369 1154 369 1116 C 369 1067 383 1025 413 991 C 442 957 487 940 549 940 Z" unicode="" />
<glyph horiz-adv-x="1165" d="M 461 909 L 551 453 L 268 0 L 102 0 L 389 453 L 295 909 L 461 909 Z M 887 909 L 977 453 L 694 0 L 528 0 L 815 453 L 721 909 L 887 909 Z" unicode="" />
<glyph horiz-adv-x="1546" d="M 356 1475 L 596 1475 L 440 750 L 528 750 L 506 641 L 180 641 L 203 750 L 303 750 L 436 1366 L 334 1366 L 356 1475 Z M 1366 1475 L 1499 1475 L 272 0 L 137 0 L 1366 1475 Z M 1288 311 L 1411 311 L 1391 211 L 1266 211 L 1243 102 L 1341 102 L 1319 0 L 987 0 L 1008 102 L 1114 102 L 1137 211 L 741 211 L 762 307 L 1266 838 L 1401 838 L 1288 311 Z M 1157 311 L 1235 674 L 895 311 L 1157 311 Z" unicode="" />
<glyph horiz-adv-x="1634" d="M 356 1475 L 596 1475 L 440 750 L 528 750 L 506 641 L 180 641 L 203 750 L 303 750 L 436 1366 L 334 1366 L 356 1475 Z M 1366 1475 L 1499 1475 L 272 0 L 137 0 L 1366 1475 Z M 1305 848 C 1386 848 1449 829 1494 792 C 1538 755 1561 703 1561 635 C 1561 593 1554 556 1539 524 C 1523 491 1503 461 1477 435 C 1451 409 1420 384 1385 362 C 1350 339 1314 317 1276 295 C 1225 265 1184 240 1152 220 C 1120 200 1095 182 1077 168 C 1059 154 1047 141 1039 131 C 1031 121 1026 111 1024 102 L 1333 102 L 1364 242 L 1487 242 L 1436 0 L 846 0 C 856 41 867 76 881 106 C 895 135 914 163 940 189 C 965 215 999 242 1041 271 C 1083 300 1138 335 1204 375 C 1242 398 1274 418 1302 436 C 1330 454 1352 471 1370 489 C 1387 506 1400 525 1408 545 C 1416 565 1421 589 1421 618 C 1421 654 1410 683 1389 707 C 1367 731 1334 743 1288 743 C 1243 743 1206 731 1178 707 C 1149 683 1129 648 1118 604 L 985 604 C 1003 677 1041 736 1098 781 C 1154 825 1223 848 1305 848 Z" unicode="" />
<glyph horiz-adv-x="1704" d="M 1518 1475 L 1653 1475 L 424 0 L 289 0 L 1518 1475 Z M 625 1495 C 708 1495 771 1478 814 1444 C 857 1410 879 1367 879 1315 C 879 1255 859 1205 821 1165 C 783 1125 735 1098 678 1083 C 720 1073 754 1052 778 1022 C 802 991 815 953 815 909 C 815 868 806 831 790 797 C 774 763 751 733 722 709 C 693 685 658 666 618 653 C 578 639 534 633 487 633 C 433 633 387 638 351 650 C 314 661 285 677 263 698 C 241 719 226 744 217 774 C 207 804 203 837 203 874 L 338 874 C 340 848 344 827 350 809 C 355 791 363 777 375 766 C 386 755 401 747 420 742 C 438 737 462 735 492 735 C 514 735 537 738 559 744 C 581 750 601 759 619 772 C 636 785 650 803 661 825 C 671 847 677 873 678 905 C 678 947 660 979 624 999 C 588 1019 537 1030 471 1030 L 442 1030 L 465 1133 L 489 1133 C 569 1133 631 1145 673 1170 C 715 1195 737 1237 737 1296 C 737 1324 726 1346 705 1364 C 683 1382 650 1391 604 1391 C 565 1391 530 1382 498 1365 C 466 1347 444 1311 434 1255 L 301 1255 C 309 1293 322 1328 342 1358 C 362 1388 386 1413 414 1433 C 442 1453 475 1469 511 1479 C 547 1489 585 1495 625 1495 Z M 1440 311 L 1565 311 L 1542 211 L 1417 211 L 1395 102 L 1493 102 L 1470 0 L 1139 0 L 1161 102 L 1266 102 L 1288 211 L 893 211 L 913 307 L 1417 838 L 1552 838 L 1440 311 Z M 1309 311 L 1386 674 L 1047 311 L 1309 311 Z" unicode="" />
<glyph horiz-adv-x="1061" d="M 696 1475 L 907 1475 L 866 1282 L 653 1282 L 696 1475 Z M 836 432 L 999 432 C 985 354 961 286 929 228 C 896 170 857 121 811 83 C 765 44 714 15 657 -4 C 599 -23 539 -33 477 -33 C 411 -33 351 -24 298 -6 C 244 11 199 35 162 67 C 125 99 97 137 77 182 C 57 227 47 277 47 332 C 47 410 61 480 89 542 C 117 604 155 656 203 698 C 251 740 308 772 374 796 C 440 819 510 832 586 836 L 653 1149 L 811 1149 L 717 709 L 631 709 C 575 709 522 702 472 690 C 422 677 378 657 341 629 C 303 601 274 565 252 521 C 230 477 219 424 219 362 C 219 288 242 227 290 181 C 337 134 404 111 492 111 C 579 111 653 138 715 193 C 776 248 816 328 836 432 Z" unicode="" />
<glyph horiz-adv-x="1499" d="M 928 1937 L 1085 1577 L 961 1577 L 752 1937 L 928 1937 Z M 547 629 L 1034 629 L 942 1350 C 942 1350 921 1313 880 1238 C 838 1162 793 1080 744 990 C 695 900 650 818 609 742 C 567 666 547 629 547 629 Z M 1262 143 L 1364 143 L 1333 0 L 901 0 L 932 143 L 1098 143 L 1051 498 L 473 498 L 276 143 L 420 143 L 391 0 L -23 0 L 8 143 L 109 143 L 766 1331 L 623 1331 L 653 1475 L 1280 1475 L 1249 1331 L 1104 1331 L 1262 143 Z" unicode="" />
<glyph horiz-adv-x="1499" d="M 1149 1937 L 1346 1937 L 983 1577 L 838 1577 L 1149 1937 Z M 547 629 L 1034 629 L 942 1350 C 942 1350 921 1313 880 1238 C 838 1162 793 1080 744 990 C 695 900 650 818 609 742 C 567 666 547 629 547 629 Z M 1262 143 L 1364 143 L 1333 0 L 901 0 L 932 143 L 1098 143 L 1051 498 L 473 498 L 276 143 L 420 143 L 391 0 L -23 0 L 8 143 L 109 143 L 766 1331 L 623 1331 L 653 1475 L 1280 1475 L 1249 1331 L 1104 1331 L 1262 143 Z" unicode="" />
<glyph horiz-adv-x="1499" d="M 1120 1937 L 1290 1577 L 1171 1577 L 1028 1806 L 786 1577 L 659 1577 L 985 1937 L 1120 1937 Z M 547 629 L 1034 629 L 942 1350 C 942 1350 921 1313 880 1238 C 838 1162 793 1080 744 990 C 695 900 650 818 609 742 C 567 666 547 629 547 629 Z M 1262 143 L 1364 143 L 1333 0 L 901 0 L 932 143 L 1098 143 L 1051 498 L 473 498 L 276 143 L 420 143 L 391 0 L -23 0 L 8 143 L 109 143 L 766 1331 L 623 1331 L 653 1475 L 1280 1475 L 1249 1331 L 1104 1331 L 1262 143 Z" unicode="" />
<glyph horiz-adv-x="1499" d="M 1237 1843 L 1348 1843 C 1320 1775 1287 1722 1249 1686 C 1211 1650 1165 1632 1112 1632 C 1091 1632 1070 1636 1050 1644 C 1029 1652 1009 1662 990 1672 C 971 1682 952 1691 934 1699 C 916 1707 899 1712 883 1712 C 858 1712 836 1703 818 1687 C 799 1671 782 1651 768 1628 L 662 1628 C 687 1691 718 1742 756 1782 C 794 1821 839 1841 893 1841 C 914 1841 936 1836 958 1828 C 980 1819 1001 1809 1021 1799 C 1041 1788 1060 1778 1078 1770 C 1096 1761 1111 1757 1124 1757 C 1150 1757 1172 1765 1190 1781 C 1208 1797 1223 1817 1237 1843 Z M 547 629 L 1034 629 L 942 1350 C 942 1350 921 1313 880 1238 C 838 1162 793 1080 744 990 C 695 900 650 818 609 742 C 567 666 547 629 547 629 Z M 1262 143 L 1364 143 L 1333 0 L 901 0 L 932 143 L 1098 143 L 1051 498 L 473 498 L 276 143 L 420 143 L 391 0 L -23 0 L 8 143 L 109 143 L 766 1331 L 623 1331 L 653 1475 L 1280 1475 L 1249 1331 L 1104 1331 L 1262 143 Z" unicode="" />
<glyph horiz-adv-x="1499" d="M 756 1829 L 928 1829 L 889 1636 L 715 1636 L 756 1829 Z M 1106 1829 L 1280 1829 L 1239 1636 L 1067 1636 L 1106 1829 Z M 547 629 L 1034 629 L 942 1350 C 942 1350 921 1313 880 1238 C 838 1162 793 1080 744 990 C 695 900 650 818 609 742 C 567 666 547 629 547 629 Z M 1262 143 L 1364 143 L 1333 0 L 901 0 L 932 143 L 1098 143 L 1051 498 L 473 498 L 276 143 L 420 143 L 391 0 L -23 0 L 8 143 L 109 143 L 766 1331 L 623 1331 L 653 1475 L 1280 1475 L 1249 1331 L 1104 1331 L 1262 143 Z" unicode="" />
<glyph horiz-adv-x="1499" d="M 1042 2042 C 1076 2042 1106 2036 1132 2024 C 1158 2012 1181 1997 1199 1977 C 1217 1957 1231 1935 1241 1909 C 1250 1883 1255 1855 1255 1827 C 1255 1787 1247 1750 1231 1717 C 1215 1683 1195 1655 1170 1632 C 1145 1608 1116 1590 1084 1578 C 1051 1565 1018 1559 985 1559 C 951 1559 921 1564 895 1576 C 868 1588 846 1603 828 1623 C 810 1642 796 1665 786 1691 C 776 1717 772 1744 772 1772 C 772 1810 779 1846 794 1879 C 808 1912 828 1941 852 1965 C 876 1989 905 2007 938 2021 C 971 2035 1006 2042 1042 2042 Z M 995 1647 C 1013 1647 1033 1650 1053 1658 C 1073 1666 1091 1677 1107 1692 C 1123 1707 1137 1726 1147 1748 C 1157 1770 1163 1795 1163 1823 C 1163 1858 1151 1889 1129 1915 C 1107 1941 1074 1954 1030 1954 C 983 1954 944 1937 912 1903 C 880 1869 864 1826 864 1776 C 864 1740 875 1709 897 1684 C 919 1659 952 1647 995 1647 Z M 547 629 L 1034 629 L 942 1350 C 942 1350 921 1313 880 1238 C 838 1162 793 1080 744 990 C 695 900 650 818 609 742 C 567 666 547 629 547 629 Z M 1262 143 L 1364 143 L 1333 0 L 901 0 L 932 143 L 1098 143 L 1051 498 L 473 498 L 276 143 L 420 143 L 391 0 L -23 0 L 8 143 L 109 143 L 766 1331 L 623 1331 L 653 1475 L 1280 1475 L 1249 1331 L 1104 1331 L 1262 143 Z" unicode="" />
<glyph horiz-adv-x="2073" d="M 1092 629 L 1243 1343 L 678 629 L 1092 629 Z M 915 1475 L 2183 1475 L 2097 1069 L 1942 1069 L 1999 1335 L 1409 1335 L 1305 836 L 1616 836 L 1647 979 L 1782 979 L 1690 541 L 1552 541 L 1587 696 L 1274 696 L 1155 137 L 1765 137 L 1823 412 L 1978 412 L 1890 0 L 813 0 L 844 141 L 989 141 L 1065 498 L 575 498 L 291 141 L 440 141 L 410 0 L -27 0 L 4 141 L 115 141 L 1061 1331 L 885 1331 L 915 1475 Z" unicode="" />
<glyph horiz-adv-x="1532" d="M 1462 1475 L 1614 1475 L 1528 1069 L 1368 1069 L 1391 1178 C 1375 1198 1355 1219 1331 1241 C 1307 1263 1277 1282 1243 1300 C 1208 1318 1167 1332 1120 1344 C 1072 1356 1018 1362 956 1362 C 875 1362 795 1345 715 1313 C 635 1280 563 1233 500 1171 C 437 1109 386 1033 346 943 C 306 852 287 749 287 635 C 287 563 297 496 319 432 C 340 368 372 313 414 266 C 456 219 510 182 574 154 C 638 126 713 113 799 113 C 858 113 912 120 962 136 C 1011 152 1055 173 1094 200 C 1133 227 1167 259 1197 295 C 1226 331 1251 370 1272 412 L 1440 412 C 1414 347 1381 287 1341 233 C 1301 178 1253 131 1199 92 C 1145 52 1083 22 1014 0 C 944 -22 868 -33 786 -33 C 775 -33 764 -32 753 -32 C 741 -31 731 -31 721 -31 L 707 -102 L 731 -102 C 797 -102 845 -118 875 -151 C 905 -184 916 -227 909 -281 C 905 -312 895 -339 879 -362 C 863 -385 844 -404 820 -419 C 796 -433 768 -444 737 -452 C 705 -459 672 -463 637 -463 C 594 -463 552 -460 512 -454 C 471 -448 431 -438 391 -426 L 414 -324 C 454 -334 492 -341 528 -347 C 564 -353 598 -356 631 -356 C 675 -356 710 -349 738 -335 C 765 -321 781 -300 786 -270 C 791 -237 783 -212 763 -195 C 742 -178 707 -170 657 -170 C 652 -170 642 -170 628 -170 C 614 -170 604 -171 598 -172 L 629 -18 C 543 -3 468 23 404 62 C 340 100 286 148 244 204 C 201 260 169 323 147 394 C 125 464 115 539 115 618 C 115 761 140 888 190 999 C 240 1110 306 1203 386 1278 C 466 1353 556 1410 657 1449 C 757 1487 858 1507 958 1507 C 1020 1507 1076 1502 1126 1493 C 1176 1483 1220 1471 1259 1455 C 1298 1439 1332 1422 1361 1402 C 1390 1382 1414 1361 1434 1341 L 1462 1475 Z" unicode="" />
<glyph horiz-adv-x="1212" d="M 788 1937 L 946 1577 L 821 1577 L 612 1937 L 788 1937 Z M 291 1475 L 1323 1475 L 1237 1069 L 1081 1069 L 1139 1335 L 569 1335 L 465 836 L 756 836 L 786 979 L 922 979 L 829 541 L 692 541 L 727 696 L 434 696 L 315 137 L 905 137 L 963 412 L 1118 412 L 1030 0 L -23 0 L 8 141 L 150 141 L 401 1331 L 260 1331 L 291 1475 Z" unicode="" />
<glyph horiz-adv-x="1212" d="M 1010 1937 L 1206 1937 L 844 1577 L 698 1577 L 1010 1937 Z M 291 1475 L 1323 1475 L 1237 1069 L 1081 1069 L 1139 1335 L 569 1335 L 465 836 L 756 836 L 786 979 L 922 979 L 829 541 L 692 541 L 727 696 L 434 696 L 315 137 L 905 137 L 963 412 L 1118 412 L 1030 0 L -23 0 L 8 141 L 150 141 L 401 1331 L 260 1331 L 291 1475 Z" unicode="" />
<glyph horiz-adv-x="1212" d="M 977 1937 L 1147 1577 L 1028 1577 L 885 1806 L 643 1577 L 516 1577 L 842 1937 L 977 1937 Z M 291 1475 L 1323 1475 L 1237 1069 L 1081 1069 L 1139 1335 L 569 1335 L 465 836 L 756 836 L 786 979 L 922 979 L 829 541 L 692 541 L 727 696 L 434 696 L 315 137 L 905 137 L 963 412 L 1118 412 L 1030 0 L -23 0 L 8 141 L 150 141 L 401 1331 L 260 1331 L 291 1475 Z" unicode="" />
<glyph horiz-adv-x="1212" d="M 625 1829 L 797 1829 L 758 1636 L 584 1636 L 625 1829 Z M 975 1829 L 1149 1829 L 1108 1636 L 936 1636 L 975 1829 Z M 291 1475 L 1323 1475 L 1237 1069 L 1081 1069 L 1139 1335 L 569 1335 L 465 836 L 756 836 L 786 979 L 922 979 L 829 541 L 692 541 L 727 696 L 434 696 L 315 137 L 905 137 L 963 412 L 1118 412 L 1030 0 L -23 0 L 8 141 L 150 141 L 401 1331 L 260 1331 L 291 1475 Z" unicode="" />
<glyph horiz-adv-x="637" d="M 483 1937 L 641 1577 L 516 1577 L 307 1937 L 483 1937 Z M 291 1475 L 784 1475 L 754 1331 L 592 1331 L 340 141 L 502 141 L 471 0 L -23 0 L 8 141 L 170 141 L 422 1331 L 260 1331 L 291 1475 Z" unicode="" />
<glyph horiz-adv-x="637" d="M 758 1937 L 954 1937 L 592 1577 L 446 1577 L 758 1937 Z M 291 1475 L 784 1475 L 754 1331 L 592 1331 L 340 141 L 502 141 L 471 0 L -23 0 L 8 141 L 170 141 L 422 1331 L 260 1331 L 291 1475 Z" unicode="" />
<glyph horiz-adv-x="637" d="M 696 1937 L 866 1577 L 748 1577 L 604 1806 L 362 1577 L 236 1577 L 561 1937 L 696 1937 Z M 291 1475 L 784 1475 L 754 1331 L 592 1331 L 340 141 L 502 141 L 471 0 L -23 0 L 8 141 L 170 141 L 422 1331 L 260 1331 L 291 1475 Z" unicode="" />
<glyph horiz-adv-x="637" d="M 348 1829 L 520 1829 L 481 1636 L 307 1636 L 348 1829 Z M 698 1829 L 872 1829 L 831 1636 L 659 1636 L 698 1829 Z M 291 1475 L 784 1475 L 754 1331 L 592 1331 L 340 141 L 502 141 L 471 0 L -23 0 L 8 141 L 170 141 L 422 1331 L 260 1331 L 291 1475 Z" unicode="" />
<glyph horiz-adv-x="1485" d="M 1235 1843 L 1346 1843 C 1318 1775 1285 1722 1247 1686 C 1209 1650 1163 1632 1110 1632 C 1089 1632 1068 1636 1048 1644 C 1027 1652 1007 1662 988 1672 C 969 1682 950 1691 932 1699 C 914 1707 897 1712 881 1712 C 856 1712 834 1703 816 1687 C 797 1671 780 1651 766 1628 L 659 1628 C 685 1691 716 1742 754 1782 C 792 1821 837 1841 891 1841 C 912 1841 934 1836 956 1828 C 978 1819 999 1809 1019 1799 C 1039 1788 1058 1778 1076 1770 C 1094 1761 1109 1757 1122 1757 C 1148 1757 1170 1765 1188 1781 C 1206 1797 1221 1817 1235 1843 Z M 1208 1475 L 1630 1475 L 1599 1331 L 1483 1331 L 1200 0 L 1034 0 L 547 1257 L 311 141 L 477 141 L 446 0 L -23 0 L 8 141 L 150 141 L 401 1331 L 260 1331 L 291 1475 L 643 1475 L 1102 291 L 1323 1331 L 1178 1331 L 1208 1475 Z" unicode="" />
<glyph horiz-adv-x="1661" d="M 991 1937 L 1149 1577 L 1024 1577 L 815 1937 L 991 1937 Z M 967 1507 C 1082 1507 1184 1489 1272 1454 C 1360 1418 1433 1371 1492 1311 C 1551 1251 1596 1180 1626 1099 C 1656 1018 1671 932 1671 842 C 1671 702 1646 577 1596 468 C 1546 358 1482 267 1402 193 C 1322 119 1230 63 1128 25 C 1025 -13 921 -33 817 -33 C 703 -33 602 -15 514 20 C 426 55 353 103 295 163 C 236 223 192 293 162 375 C 132 456 117 542 117 633 C 117 772 142 896 192 1006 C 242 1115 307 1206 387 1280 C 467 1354 558 1410 660 1449 C 762 1487 864 1507 967 1507 Z M 819 113 C 902 113 984 128 1066 160 C 1147 192 1219 238 1283 299 C 1347 359 1398 434 1438 524 C 1477 614 1497 716 1497 831 C 1497 903 1485 972 1462 1037 C 1439 1102 1405 1158 1361 1206 C 1317 1254 1262 1292 1196 1320 C 1130 1348 1054 1362 969 1362 C 890 1362 810 1347 729 1317 C 648 1287 575 1243 510 1183 C 445 1123 392 1048 351 957 C 309 866 289 760 289 639 C 289 566 300 498 324 434 C 347 370 381 314 426 267 C 470 219 526 182 592 154 C 658 126 733 113 819 113 Z" unicode="" />
<glyph horiz-adv-x="1661" d="M 1204 1937 L 1401 1937 L 1038 1577 L 893 1577 L 1204 1937 Z M 967 1507 C 1082 1507 1184 1489 1272 1454 C 1360 1418 1433 1371 1492 1311 C 1551 1251 1596 1180 1626 1099 C 1656 1018 1671 932 1671 842 C 1671 702 1646 577 1596 468 C 1546 358 1482 267 1402 193 C 1322 119 1230 63 1128 25 C 1025 -13 921 -33 817 -33 C 703 -33 602 -15 514 20 C 426 55 353 103 295 163 C 236 223 192 293 162 375 C 132 456 117 542 117 633 C 117 772 142 896 192 1006 C 242 1115 307 1206 387 1280 C 467 1354 558 1410 660 1449 C 762 1487 864 1507 967 1507 Z M 819 113 C 902 113 984 128 1066 160 C 1147 192 1219 238 1283 299 C 1347 359 1398 434 1438 524 C 1477 614 1497 716 1497 831 C 1497 903 1485 972 1462 1037 C 1439 1102 1405 1158 1361 1206 C 1317 1254 1262 1292 1196 1320 C 1130 1348 1054 1362 969 1362 C 890 1362 810 1347 729 1317 C 648 1287 575 1243 510 1183 C 445 1123 392 1048 351 957 C 309 866 289 760 289 639 C 289 566 300 498 324 434 C 347 370 381 314 426 267 C 470 219 526 182 592 154 C 658 126 733 113 819 113 Z" unicode="" />
<glyph horiz-adv-x="1661" d="M 1159 1937 L 1329 1577 L 1210 1577 L 1067 1806 L 825 1577 L 698 1577 L 1024 1937 L 1159 1937 Z M 967 1507 C 1082 1507 1184 1489 1272 1454 C 1360 1418 1433 1371 1492 1311 C 1551 1251 1596 1180 1626 1099 C 1656 1018 1671 932 1671 842 C 1671 702 1646 577 1596 468 C 1546 358 1482 267 1402 193 C 1322 119 1230 63 1128 25 C 1025 -13 921 -33 817 -33 C 703 -33 602 -15 514 20 C 426 55 353 103 295 163 C 236 223 192 293 162 375 C 132 456 117 542 117 633 C 117 772 142 896 192 1006 C 242 1115 307 1206 387 1280 C 467 1354 558 1410 660 1449 C 762 1487 864 1507 967 1507 Z M 819 113 C 902 113 984 128 1066 160 C 1147 192 1219 238 1283 299 C 1347 359 1398 434 1438 524 C 1477 614 1497 716 1497 831 C 1497 903 1485 972 1462 1037 C 1439 1102 1405 1158 1361 1206 C 1317 1254 1262 1292 1196 1320 C 1130 1348 1054 1362 969 1362 C 890 1362 810 1347 729 1317 C 648 1287 575 1243 510 1183 C 445 1123 392 1048 351 957 C 309 866 289 760 289 639 C 289 566 300 498 324 434 C 347 370 381 314 426 267 C 470 219 526 182 592 154 C 658 126 733 113 819 113 Z" unicode="" />
<glyph horiz-adv-x="1661" d="M 1300 1843 L 1411 1843 C 1383 1775 1350 1722 1312 1686 C 1274 1650 1228 1632 1176 1632 C 1155 1632 1134 1636 1114 1644 C 1093 1652 1073 1662 1054 1672 C 1034 1682 1016 1691 998 1699 C 980 1707 962 1712 946 1712 C 921 1712 899 1703 881 1687 C 862 1671 845 1651 831 1628 L 725 1628 C 750 1691 782 1742 820 1782 C 858 1821 903 1841 956 1841 C 977 1841 999 1836 1021 1828 C 1043 1819 1065 1809 1085 1799 C 1105 1788 1124 1778 1142 1770 C 1160 1761 1175 1757 1188 1757 C 1214 1757 1236 1765 1254 1781 C 1272 1797 1287 1817 1300 1843 Z M 967 1507 C 1082 1507 1184 1489 1272 1454 C 1360 1418 1433 1371 1492 1311 C 1551 1251 1596 1180 1626 1099 C 1656 1018 1671 932 1671 842 C 1671 702 1646 577 1596 468 C 1546 358 1482 267 1402 193 C 1322 119 1230 63 1128 25 C 1025 -13 921 -33 817 -33 C 703 -33 602 -15 514 20 C 426 55 353 103 295 163 C 236 223 192 293 162 375 C 132 456 117 542 117 633 C 117 772 142 896 192 1006 C 242 1115 307 1206 387 1280 C 467 1354 558 1410 660 1449 C 762 1487 864 1507 967 1507 Z M 819 113 C 902 113 984 128 1066 160 C 1147 192 1219 238 1283 299 C 1347 359 1398 434 1438 524 C 1477 614 1497 716 1497 831 C 1497 903 1485 972 1462 1037 C 1439 1102 1405 1158 1361 1206 C 1317 1254 1262 1292 1196 1320 C 1130 1348 1054 1362 969 1362 C 890 1362 810 1347 729 1317 C 648 1287 575 1243 510 1183 C 445 1123 392 1048 351 957 C 309 866 289 760 289 639 C 289 566 300 498 324 434 C 347 370 381 314 426 267 C 470 219 526 182 592 154 C 658 126 733 113 819 113 Z" unicode="" />
<glyph horiz-adv-x="1661" d="M 795 1829 L 967 1829 L 928 1636 L 754 1636 L 795 1829 Z M 1145 1829 L 1319 1829 L 1278 1636 L 1106 1636 L 1145 1829 Z M 967 1507 C 1082 1507 1184 1489 1272 1454 C 1360 1418 1433 1371 1492 1311 C 1551 1251 1596 1180 1626 1099 C 1656 1018 1671 932 1671 842 C 1671 702 1646 577 1596 468 C 1546 358 1482 267 1402 193 C 1322 119 1230 63 1128 25 C 1025 -13 921 -33 817 -33 C 703 -33 602 -15 514 20 C 426 55 353 103 295 163 C 236 223 192 293 162 375 C 132 456 117 542 117 633 C 117 772 142 896 192 1006 C 242 1115 307 1206 387 1280 C 467 1354 558 1410 660 1449 C 762 1487 864 1507 967 1507 Z M 819 113 C 902 113 984 128 1066 160 C 1147 192 1219 238 1283 299 C 1347 359 1398 434 1438 524 C 1477 614 1497 716 1497 831 C 1497 903 1485 972 1462 1037 C 1439 1102 1405 1158 1361 1206 C 1317 1254 1262 1292 1196 1320 C 1130 1348 1054 1362 969 1362 C 890 1362 810 1347 729 1317 C 648 1287 575 1243 510 1183 C 445 1123 392 1048 351 957 C 309 866 289 760 289 639 C 289 566 300 498 324 434 C 347 370 381 314 426 267 C 470 219 526 182 592 154 C 658 126 733 113 819 113 Z" unicode="" />
<glyph horiz-adv-x="1659" d="M 1350 1235 L 1450 1137 L 993 680 L 1446 227 L 1343 125 L 891 578 L 438 125 L 338 223 L 791 678 L 334 1133 L 438 1235 L 893 780 L 1350 1235 Z" unicode="" />
<glyph horiz-adv-x="1540" d="M 946 1937 L 1104 1577 L 979 1577 L 770 1937 L 946 1937 Z M 1221 1475 L 1686 1475 L 1657 1331 L 1524 1331 L 1350 504 C 1332 422 1307 348 1273 282 C 1239 215 1197 158 1147 112 C 1097 66 1037 30 968 5 C 898 -20 820 -33 733 -33 C 618 -33 524 -17 450 13 C 376 44 320 86 282 139 C 243 192 220 254 213 326 C 205 398 210 474 227 555 L 391 1331 L 260 1331 L 291 1475 L 758 1475 L 727 1331 L 561 1331 L 393 539 C 362 395 377 288 438 218 C 498 148 601 113 745 113 C 855 113 949 146 1026 213 C 1102 280 1157 389 1190 539 L 1360 1331 L 1192 1331 L 1221 1475 Z" unicode="" />
<glyph horiz-adv-x="1540" d="M 1178 1937 L 1374 1937 L 1012 1577 L 866 1577 L 1178 1937 Z M 1221 1475 L 1686 1475 L 1657 1331 L 1524 1331 L 1350 504 C 1332 422 1307 348 1273 282 C 1239 215 1197 158 1147 112 C 1097 66 1037 30 968 5 C 898 -20 820 -33 733 -33 C 618 -33 524 -17 450 13 C 376 44 320 86 282 139 C 243 192 220 254 213 326 C 205 398 210 474 227 555 L 391 1331 L 260 1331 L 291 1475 L 758 1475 L 727 1331 L 561 1331 L 393 539 C 362 395 377 288 438 218 C 498 148 601 113 745 113 C 855 113 949 146 1026 213 C 1102 280 1157 389 1190 539 L 1360 1331 L 1192 1331 L 1221 1475 Z" unicode="" />
<glyph horiz-adv-x="1540" d="M 1145 1937 L 1315 1577 L 1196 1577 L 1053 1806 L 811 1577 L 684 1577 L 1010 1937 L 1145 1937 Z M 1221 1475 L 1686 1475 L 1657 1331 L 1524 1331 L 1350 504 C 1332 422 1307 348 1273 282 C 1239 215 1197 158 1147 112 C 1097 66 1037 30 968 5 C 898 -20 820 -33 733 -33 C 618 -33 524 -17 450 13 C 376 44 320 86 282 139 C 243 192 220 254 213 326 C 205 398 210 474 227 555 L 391 1331 L 260 1331 L 291 1475 L 758 1475 L 727 1331 L 561 1331 L 393 539 C 362 395 377 288 438 218 C 498 148 601 113 745 113 C 855 113 949 146 1026 213 C 1102 280 1157 389 1190 539 L 1360 1331 L 1192 1331 L 1221 1475 Z" unicode="" />
<glyph horiz-adv-x="1540" d="M 793 1829 L 965 1829 L 926 1636 L 752 1636 L 793 1829 Z M 1143 1829 L 1317 1829 L 1276 1636 L 1104 1636 L 1143 1829 Z M 1221 1475 L 1686 1475 L 1657 1331 L 1524 1331 L 1350 504 C 1332 422 1307 348 1273 282 C 1239 215 1197 158 1147 112 C 1097 66 1037 30 968 5 C 898 -20 820 -33 733 -33 C 618 -33 524 -17 450 13 C 376 44 320 86 282 139 C 243 192 220 254 213 326 C 205 398 210 474 227 555 L 391 1331 L 260 1331 L 291 1475 L 758 1475 L 727 1331 L 561 1331 L 393 539 C 362 395 377 288 438 218 C 498 148 601 113 745 113 C 855 113 949 146 1026 213 C 1102 280 1157 389 1190 539 L 1360 1331 L 1192 1331 L 1221 1475 Z" unicode="" />
<glyph horiz-adv-x="1493" d="M 1141 1937 L 1337 1937 L 975 1577 L 829 1577 L 1141 1937 Z M 1219 1475 L 1640 1475 L 1610 1331 L 1511 1331 C 1465 1280 1405 1215 1333 1136 C 1260 1056 1190 979 1122 905 C 1054 830 995 766 945 712 C 895 658 870 631 870 631 L 768 141 L 924 141 L 893 0 L 414 0 L 444 141 L 600 141 L 702 631 L 360 1331 L 260 1331 L 291 1475 L 731 1475 L 700 1331 L 539 1331 L 809 758 L 1329 1331 L 1188 1331 L 1219 1475 Z" unicode="" />
<glyph horiz-adv-x="1128" d="M 768 1495 C 824 1495 873 1487 915 1473 C 957 1458 991 1438 1019 1412 C 1047 1386 1067 1356 1081 1320 C 1095 1284 1102 1246 1102 1204 C 1102 1107 1075 1027 1023 963 C 971 899 901 855 815 829 C 857 817 895 800 928 778 C 961 756 988 729 1010 699 C 1032 669 1048 635 1060 598 C 1071 560 1077 521 1077 479 C 1077 395 1063 323 1036 263 C 1008 202 971 152 925 114 C 878 75 823 46 761 28 C 698 9 631 0 561 0 L 408 0 L 438 137 L 561 137 C 610 137 657 142 701 154 C 745 165 783 184 815 210 C 847 236 873 270 892 312 C 910 354 920 407 920 469 C 920 507 913 543 900 577 C 887 610 868 639 843 664 C 817 689 785 709 747 725 C 709 740 664 750 614 754 L 645 891 C 736 899 808 928 862 976 C 915 1024 942 1090 942 1176 C 942 1230 925 1273 892 1307 C 859 1341 812 1358 752 1358 C 676 1358 618 1335 577 1291 C 535 1247 505 1183 487 1100 L 252 0 L -29 0 L 2 137 L 127 137 L 332 1108 C 360 1241 411 1339 483 1401 C 555 1463 650 1495 768 1495 Z" unicode="" />
<glyph horiz-adv-x="1178" d="M 614 1403 L 772 1042 L 647 1042 L 438 1403 L 614 1403 Z M 473 111 C 561 111 637 141 699 201 C 761 261 802 345 821 451 C 829 493 830 535 825 577 C 819 619 807 656 787 688 C 767 720 740 747 705 767 C 669 787 626 797 575 797 C 528 797 483 787 439 769 C 395 751 356 724 322 689 C 288 654 261 611 241 560 C 221 509 211 451 211 387 C 211 347 216 310 227 276 C 238 242 254 213 276 189 C 297 164 324 145 357 131 C 390 117 429 111 473 111 Z M 922 909 L 1225 909 L 1196 770 L 1047 770 L 913 137 L 1061 137 L 1032 0 L 729 0 L 752 106 C 706 60 655 25 600 3 C 544 -19 490 -31 436 -31 C 372 -31 316 -21 268 -1 C 220 19 180 46 148 81 C 116 115 91 157 75 205 C 59 253 51 306 51 362 C 51 456 66 540 96 612 C 126 684 164 743 211 791 C 258 839 311 875 371 899 C 431 923 490 936 549 936 C 636 936 707 918 763 882 C 819 846 860 800 887 743 L 922 909 Z" unicode="" />
<glyph horiz-adv-x="1178" d="M 829 1403 L 1026 1403 L 664 1042 L 518 1042 L 829 1403 Z M 473 111 C 561 111 637 141 699 201 C 761 261 802 345 821 451 C 829 493 830 535 825 577 C 819 619 807 656 787 688 C 767 720 740 747 705 767 C 669 787 626 797 575 797 C 528 797 483 787 439 769 C 395 751 356 724 322 689 C 288 654 261 611 241 560 C 221 509 211 451 211 387 C 211 347 216 310 227 276 C 238 242 254 213 276 189 C 297 164 324 145 357 131 C 390 117 429 111 473 111 Z M 922 909 L 1225 909 L 1196 770 L 1047 770 L 913 137 L 1061 137 L 1032 0 L 729 0 L 752 106 C 706 60 655 25 600 3 C 544 -19 490 -31 436 -31 C 372 -31 316 -21 268 -1 C 220 19 180 46 148 81 C 116 115 91 157 75 205 C 59 253 51 306 51 362 C 51 456 66 540 96 612 C 126 684 164 743 211 791 C 258 839 311 875 371 899 C 431 923 490 936 549 936 C 636 936 707 918 763 882 C 819 846 860 800 887 743 L 922 909 Z" unicode="" />
<glyph horiz-adv-x="1178" d="M 805 1403 L 975 1042 L 856 1042 L 713 1272 L 471 1042 L 344 1042 L 670 1403 L 805 1403 Z M 473 111 C 561 111 637 141 699 201 C 761 261 802 345 821 451 C 829 493 830 535 825 577 C 819 619 807 656 787 688 C 767 720 740 747 705 767 C 669 787 626 797 575 797 C 528 797 483 787 439 769 C 395 751 356 724 322 689 C 288 654 261 611 241 560 C 221 509 211 451 211 387 C 211 347 216 310 227 276 C 238 242 254 213 276 189 C 297 164 324 145 357 131 C 390 117 429 111 473 111 Z M 922 909 L 1225 909 L 1196 770 L 1047 770 L 913 137 L 1061 137 L 1032 0 L 729 0 L 752 106 C 706 60 655 25 600 3 C 544 -19 490 -31 436 -31 C 372 -31 316 -21 268 -1 C 220 19 180 46 148 81 C 116 115 91 157 75 205 C 59 253 51 306 51 362 C 51 456 66 540 96 612 C 126 684 164 743 211 791 C 258 839 311 875 371 899 C 431 923 490 936 549 936 C 636 936 707 918 763 882 C 819 846 860 800 887 743 L 922 909 Z" unicode="" />
<glyph horiz-adv-x="1178" d="M 940 1309 L 1051 1309 C 1023 1240 990 1188 952 1152 C 914 1116 868 1098 815 1098 C 794 1098 773 1102 753 1110 C 732 1118 712 1128 693 1138 C 674 1148 655 1157 637 1165 C 619 1173 602 1178 586 1178 C 561 1178 539 1169 521 1153 C 502 1137 485 1117 471 1094 L 365 1094 C 390 1157 421 1208 459 1248 C 497 1287 542 1307 596 1307 C 617 1307 639 1302 661 1294 C 683 1285 704 1275 724 1265 C 744 1254 763 1244 781 1236 C 799 1227 814 1223 827 1223 C 853 1223 875 1230 893 1246 C 911 1262 926 1283 940 1309 Z M 473 111 C 561 111 637 141 699 201 C 761 261 802 345 821 451 C 829 493 830 535 825 577 C 819 619 807 656 787 688 C 767 720 740 747 705 767 C 669 787 626 797 575 797 C 528 797 483 787 439 769 C 395 751 356 724 322 689 C 288 654 261 611 241 560 C 221 509 211 451 211 387 C 211 347 216 310 227 276 C 238 242 254 213 276 189 C 297 164 324 145 357 131 C 390 117 429 111 473 111 Z M 922 909 L 1225 909 L 1196 770 L 1047 770 L 913 137 L 1061 137 L 1032 0 L 729 0 L 752 106 C 706 60 655 25 600 3 C 544 -19 490 -31 436 -31 C 372 -31 316 -21 268 -1 C 220 19 180 46 148 81 C 116 115 91 157 75 205 C 59 253 51 306 51 362 C 51 456 66 540 96 612 C 126 684 164 743 211 791 C 258 839 311 875 371 899 C 431 923 490 936 549 936 C 636 936 707 918 763 882 C 819 846 860 800 887 743 L 922 909 Z" unicode="" />
<glyph horiz-adv-x="1178" d="M 449 1294 L 621 1294 L 582 1102 L 408 1102 L 449 1294 Z M 799 1294 L 973 1294 L 932 1102 L 760 1102 L 799 1294 Z M 473 111 C 561 111 637 141 699 201 C 761 261 802 345 821 451 C 829 493 830 535 825 577 C 819 619 807 656 787 688 C 767 720 740 747 705 767 C 669 787 626 797 575 797 C 528 797 483 787 439 769 C 395 751 356 724 322 689 C 288 654 261 611 241 560 C 221 509 211 451 211 387 C 211 347 216 310 227 276 C 238 242 254 213 276 189 C 297 164 324 145 357 131 C 390 117 429 111 473 111 Z M 922 909 L 1225 909 L 1196 770 L 1047 770 L 913 137 L 1061 137 L 1032 0 L 729 0 L 752 106 C 706 60 655 25 600 3 C 544 -19 490 -31 436 -31 C 372 -31 316 -21 268 -1 C 220 19 180 46 148 81 C 116 115 91 157 75 205 C 59 253 51 306 51 362 C 51 456 66 540 96 612 C 126 684 164 743 211 791 C 258 839 311 875 371 899 C 431 923 490 936 549 936 C 636 936 707 918 763 882 C 819 846 860 800 887 743 L 922 909 Z" unicode="" />
<glyph horiz-adv-x="1178" d="M 735 1507 C 768 1507 798 1501 825 1489 C 851 1477 874 1462 892 1442 C 910 1422 923 1400 933 1374 C 943 1348 948 1320 948 1292 C 948 1252 940 1215 924 1182 C 908 1148 888 1120 863 1097 C 838 1073 809 1055 777 1043 C 744 1030 711 1024 678 1024 C 644 1024 614 1029 588 1041 C 561 1053 539 1068 521 1088 C 503 1107 489 1130 479 1156 C 469 1182 465 1209 465 1237 C 465 1275 472 1311 487 1345 C 501 1378 521 1406 545 1430 C 569 1454 598 1472 631 1486 C 664 1500 699 1507 735 1507 Z M 688 1112 C 706 1112 726 1116 746 1124 C 766 1132 784 1143 800 1158 C 816 1172 830 1191 840 1213 C 850 1235 856 1260 856 1288 C 856 1324 844 1354 822 1380 C 800 1406 767 1419 723 1419 C 676 1419 637 1402 605 1368 C 573 1334 557 1291 557 1241 C 557 1205 568 1174 590 1149 C 612 1124 645 1112 688 1112 Z M 473 111 C 561 111 637 141 699 201 C 761 261 802 345 821 451 C 829 493 830 535 825 577 C 819 619 807 656 787 688 C 767 720 740 747 705 767 C 669 787 626 797 575 797 C 528 797 483 787 439 769 C 395 751 356 724 322 689 C 288 654 261 611 241 560 C 221 509 211 451 211 387 C 211 347 216 310 227 276 C 238 242 254 213 276 189 C 297 164 324 145 357 131 C 390 117 429 111 473 111 Z M 922 909 L 1225 909 L 1196 770 L 1047 770 L 913 137 L 1061 137 L 1032 0 L 729 0 L 752 106 C 706 60 655 25 600 3 C 544 -19 490 -31 436 -31 C 372 -31 316 -21 268 -1 C 220 19 180 46 148 81 C 116 115 91 157 75 205 C 59 253 51 306 51 362 C 51 456 66 540 96 612 C 126 684 164 743 211 791 C 258 839 311 875 371 899 C 431 923 490 936 549 936 C 636 936 707 918 763 882 C 819 846 860 800 887 743 L 922 909 Z" unicode="" />
<glyph horiz-adv-x="1649" d="M 1438 535 C 1438 539 1439 544 1439 549 C 1439 553 1440 558 1440 563 C 1439 594 1435 624 1428 653 C 1420 681 1408 706 1390 728 C 1372 750 1348 767 1318 780 C 1287 792 1248 799 1202 799 C 1166 799 1132 793 1098 781 C 1064 769 1033 751 1005 729 C 976 707 950 679 928 646 C 906 613 889 576 877 535 L 1438 535 Z M 1210 936 C 1281 936 1341 925 1390 905 C 1439 885 1478 858 1508 824 C 1537 790 1558 750 1571 705 C 1584 659 1591 612 1591 563 C 1591 539 1589 513 1586 483 C 1582 453 1579 427 1575 403 L 852 403 L 852 371 C 852 333 857 297 868 264 C 879 231 896 203 918 179 C 940 155 967 136 1001 122 C 1035 108 1074 102 1120 102 C 1177 102 1228 114 1272 140 C 1316 165 1352 204 1380 256 L 1532 256 C 1513 206 1488 164 1458 128 C 1428 92 1394 62 1358 38 C 1321 14 1282 -2 1240 -14 C 1198 -25 1158 -31 1118 -31 C 1031 -31 957 -15 896 17 C 834 49 786 98 750 166 C 712 108 661 61 599 25 C 537 -11 463 -29 379 -29 C 263 -29 174 -2 112 50 C 49 102 18 172 18 260 C 18 330 30 389 55 437 C 80 485 112 523 152 553 C 191 582 235 603 285 616 C 335 628 384 635 434 635 C 500 635 558 625 610 606 C 662 587 702 562 731 530 C 732 541 734 553 736 566 C 738 579 739 591 741 603 C 743 614 744 624 746 633 C 747 642 748 648 748 651 C 748 699 730 737 694 765 C 658 793 603 807 530 807 C 478 807 427 803 377 795 C 327 787 280 775 238 758 L 264 889 C 289 899 315 907 342 913 C 369 919 395 924 421 928 C 447 932 471 934 493 936 C 515 937 535 938 551 938 C 647 938 720 922 769 892 C 818 861 850 822 864 774 C 912 825 966 865 1027 893 C 1087 921 1148 936 1210 936 Z M 412 94 C 446 94 480 99 514 110 C 548 120 579 136 606 156 C 633 176 655 202 672 232 C 689 262 698 297 698 336 C 698 362 692 387 681 410 C 670 433 654 453 633 470 C 611 486 584 499 551 509 C 518 519 480 524 436 524 C 398 524 364 518 332 508 C 300 497 273 481 250 461 C 227 441 209 416 196 386 C 182 356 176 321 176 283 C 176 229 195 184 234 148 C 273 112 332 94 412 94 Z" unicode="" />
<glyph horiz-adv-x="1032" d="M 887 909 L 1014 909 L 944 578 L 807 578 L 827 668 C 817 684 804 699 790 715 C 775 731 757 745 737 757 C 716 769 692 778 664 786 C 636 793 603 797 567 797 C 527 797 486 788 444 771 C 402 754 364 729 330 695 C 296 661 268 619 246 568 C 224 516 213 457 213 389 C 213 349 218 311 230 277 C 242 242 259 212 282 187 C 305 162 334 142 369 128 C 404 113 445 106 492 106 C 566 106 623 121 663 153 C 703 185 737 226 764 276 L 911 276 C 897 236 879 198 855 161 C 831 123 801 90 766 62 C 730 34 689 11 642 -5 C 594 -22 541 -31 481 -31 L 459 -31 L 444 -102 L 469 -102 C 535 -102 583 -118 613 -151 C 643 -184 654 -227 647 -281 C 643 -312 633 -339 617 -362 C 601 -385 582 -404 558 -419 C 534 -433 506 -444 475 -452 C 443 -459 410 -463 375 -463 C 332 -463 290 -460 250 -454 C 209 -448 169 -438 129 -426 L 152 -324 C 191 -334 229 -341 265 -347 C 301 -353 336 -356 369 -356 C 413 -356 448 -349 476 -335 C 503 -321 519 -300 524 -270 C 529 -237 521 -212 501 -195 C 480 -178 445 -170 395 -170 C 390 -170 380 -170 366 -170 C 352 -170 342 -171 336 -172 L 367 -18 C 314 -8 268 9 228 34 C 188 58 156 88 130 122 C 104 156 84 195 72 239 C 59 283 53 329 53 377 C 53 469 68 550 100 620 C 131 690 171 749 221 795 C 270 841 325 876 387 900 C 448 924 508 936 567 936 C 637 936 697 926 747 907 C 796 888 836 859 868 819 L 887 909 Z" unicode="" />
<glyph horiz-adv-x="1001" d="M 561 1403 L 719 1042 L 594 1042 L 385 1403 L 561 1403 Z M 559 936 C 633 936 694 925 744 905 C 794 884 833 856 863 822 C 893 788 914 748 926 702 C 938 656 944 609 944 559 C 944 536 942 510 939 481 C 935 451 932 425 928 403 L 207 403 L 207 377 C 207 338 212 302 223 268 C 233 234 249 205 271 181 C 292 156 319 137 353 123 C 387 109 427 102 473 102 C 530 102 581 114 625 140 C 669 165 705 204 733 256 L 885 256 C 866 206 841 164 811 128 C 781 92 747 62 711 38 C 674 14 635 -2 593 -14 C 551 -25 511 -31 471 -31 C 397 -31 334 -20 281 0 C 227 21 184 50 150 86 C 116 122 91 164 75 213 C 59 261 51 313 51 369 C 51 463 66 546 97 618 C 128 689 168 748 217 795 C 265 842 320 877 380 901 C 440 924 500 936 559 936 Z M 791 535 C 791 541 792 546 792 550 C 792 554 793 558 793 563 C 792 594 788 624 781 653 C 773 681 761 706 743 728 C 725 750 700 767 670 780 C 639 792 601 799 555 799 C 520 799 486 793 452 782 C 418 770 387 753 358 731 C 329 709 303 681 281 648 C 259 615 241 577 229 535 L 791 535 Z" unicode="" />
<glyph horiz-adv-x="1001" d="M 788 1403 L 985 1403 L 623 1042 L 477 1042 L 788 1403 Z M 559 936 C 633 936 694 925 744 905 C 794 884 833 856 863 822 C 893 788 914 748 926 702 C 938 656 944 609 944 559 C 944 536 942 510 939 481 C 935 451 932 425 928 403 L 207 403 L 207 377 C 207 338 212 302 223 268 C 233 234 249 205 271 181 C 292 156 319 137 353 123 C 387 109 427 102 473 102 C 530 102 581 114 625 140 C 669 165 705 204 733 256 L 885 256 C 866 206 841 164 811 128 C 781 92 747 62 711 38 C 674 14 635 -2 593 -14 C 551 -25 511 -31 471 -31 C 397 -31 334 -20 281 0 C 227 21 184 50 150 86 C 116 122 91 164 75 213 C 59 261 51 313 51 369 C 51 463 66 546 97 618 C 128 689 168 748 217 795 C 265 842 320 877 380 901 C 440 924 500 936 559 936 Z M 791 535 C 791 541 792 546 792 550 C 792 554 793 558 793 563 C 792 594 788 624 781 653 C 773 681 761 706 743 728 C 725 750 700 767 670 780 C 639 792 601 799 555 799 C 520 799 486 793 452 782 C 418 770 387 753 358 731 C 329 709 303 681 281 648 C 259 615 241 577 229 535 L 791 535 Z" unicode="" />
<glyph horiz-adv-x="1001" d="M 739 1403 L 909 1042 L 791 1042 L 647 1272 L 406 1042 L 279 1042 L 604 1403 L 739 1403 Z M 559 936 C 633 936 694 925 744 905 C 794 884 833 856 863 822 C 893 788 914 748 926 702 C 938 656 944 609 944 559 C 944 536 942 510 939 481 C 935 451 932 425 928 403 L 207 403 L 207 377 C 207 338 212 302 223 268 C 233 234 249 205 271 181 C 292 156 319 137 353 123 C 387 109 427 102 473 102 C 530 102 581 114 625 140 C 669 165 705 204 733 256 L 885 256 C 866 206 841 164 811 128 C 781 92 747 62 711 38 C 674 14 635 -2 593 -14 C 551 -25 511 -31 471 -31 C 397 -31 334 -20 281 0 C 227 21 184 50 150 86 C 116 122 91 164 75 213 C 59 261 51 313 51 369 C 51 463 66 546 97 618 C 128 689 168 748 217 795 C 265 842 320 877 380 901 C 440 924 500 936 559 936 Z M 791 535 C 791 541 792 546 792 550 C 792 554 793 558 793 563 C 792 594 788 624 781 653 C 773 681 761 706 743 728 C 725 750 700 767 670 780 C 639 792 601 799 555 799 C 520 799 486 793 452 782 C 418 770 387 753 358 731 C 329 709 303 681 281 648 C 259 615 241 577 229 535 L 791 535 Z" unicode="" />
<glyph horiz-adv-x="1001" d="M 389 1294 L 561 1294 L 522 1102 L 348 1102 L 389 1294 Z M 739 1294 L 913 1294 L 872 1102 L 700 1102 L 739 1294 Z M 559 936 C 633 936 694 925 744 905 C 794 884 833 856 863 822 C 893 788 914 748 926 702 C 938 656 944 609 944 559 C 944 536 942 510 939 481 C 935 451 932 425 928 403 L 207 403 L 207 377 C 207 338 212 302 223 268 C 233 234 249 205 271 181 C 292 156 319 137 353 123 C 387 109 427 102 473 102 C 530 102 581 114 625 140 C 669 165 705 204 733 256 L 885 256 C 866 206 841 164 811 128 C 781 92 747 62 711 38 C 674 14 635 -2 593 -14 C 551 -25 511 -31 471 -31 C 397 -31 334 -20 281 0 C 227 21 184 50 150 86 C 116 122 91 164 75 213 C 59 261 51 313 51 369 C 51 463 66 546 97 618 C 128 689 168 748 217 795 C 265 842 320 877 380 901 C 440 924 500 936 559 936 Z M 791 535 C 791 541 792 546 792 550 C 792 554 793 558 793 563 C 792 594 788 624 781 653 C 773 681 761 706 743 728 C 725 750 700 767 670 780 C 639 792 601 799 555 799 C 520 799 486 793 452 782 C 418 770 387 753 358 731 C 329 709 303 681 281 648 C 259 615 241 577 229 535 L 791 535 Z" unicode="" />
<glyph horiz-adv-x="592" d="M 334 1403 L 492 1042 L 367 1042 L 158 1403 L 334 1403 Z M 315 137 L 485 137 L 455 0 L -31 0 L -2 137 L 162 137 L 295 770 L 133 770 L 162 909 L 479 909 L 315 137 Z" unicode="" />
<glyph horiz-adv-x="592" d="M 584 1403 L 780 1403 L 418 1042 L 272 1042 L 584 1403 Z M 315 137 L 485 137 L 455 0 L -31 0 L -2 137 L 162 137 L 295 770 L 133 770 L 162 909 L 479 909 L 315 137 Z" unicode="" />
<glyph horiz-adv-x="592" d="M 504 1403 L 674 1042 L 555 1042 L 412 1272 L 170 1042 L 43 1042 L 369 1403 L 504 1403 Z M 315 137 L 485 137 L 455 0 L -31 0 L -2 137 L 162 137 L 295 770 L 133 770 L 162 909 L 479 909 L 315 137 Z" unicode="" />
<glyph horiz-adv-x="592" d="M 162 1294 L 334 1294 L 295 1102 L 121 1102 L 162 1294 Z M 512 1294 L 686 1294 L 645 1102 L 473 1102 L 512 1294 Z M 315 137 L 485 137 L 455 0 L -31 0 L -2 137 L 162 137 L 295 770 L 133 770 L 162 909 L 479 909 L 315 137 Z" unicode="" />
<glyph horiz-adv-x="1167" d="M 950 1309 L 1061 1309 C 1033 1240 1000 1188 962 1152 C 924 1116 878 1098 825 1098 C 804 1098 783 1102 763 1110 C 742 1118 722 1128 703 1138 C 684 1148 666 1157 648 1165 C 630 1173 612 1178 596 1178 C 571 1178 549 1169 531 1153 C 512 1137 495 1117 481 1094 L 375 1094 C 400 1157 432 1208 470 1248 C 508 1287 553 1307 606 1307 C 627 1307 649 1302 671 1294 C 693 1285 714 1275 734 1265 C 754 1254 774 1244 792 1236 C 810 1227 825 1223 838 1223 C 864 1223 886 1230 904 1246 C 922 1262 937 1283 950 1309 Z M 918 137 L 1061 137 L 1030 0 L 604 0 L 635 137 L 764 137 L 854 563 C 869 633 866 688 845 727 C 824 766 787 786 733 786 C 704 786 674 780 642 768 C 610 756 578 740 548 722 C 517 703 488 682 461 660 C 433 637 410 615 391 594 L 295 137 L 424 137 L 395 0 L -31 0 L -2 137 L 141 137 L 274 770 L 133 770 L 162 909 L 459 909 L 428 756 C 450 778 476 799 505 821 C 534 843 564 862 596 879 C 628 895 660 909 694 920 C 727 930 759 936 791 936 C 843 936 885 926 919 906 C 952 886 977 859 994 825 C 1011 791 1020 751 1022 705 C 1024 659 1019 610 1008 559 L 918 137 Z" unicode="" />
<glyph horiz-adv-x="1075" d="M 584 1403 L 741 1042 L 616 1042 L 408 1403 L 584 1403 Z M 582 936 C 651 936 713 925 769 904 C 824 882 871 853 909 816 C 947 779 976 735 996 684 C 1016 633 1026 578 1026 520 C 1026 426 1009 345 976 276 C 943 206 901 149 850 104 C 798 58 741 24 678 2 C 615 -19 554 -31 496 -31 C 426 -31 363 -20 308 0 C 253 21 207 50 169 86 C 131 122 103 166 83 217 C 63 267 53 322 53 381 C 53 469 68 547 100 617 C 132 686 173 744 223 791 C 273 838 329 874 393 899 C 456 923 519 936 582 936 Z M 502 109 C 547 109 592 117 636 135 C 680 153 719 178 753 212 C 787 245 815 286 836 336 C 857 385 868 441 868 504 C 868 544 861 581 849 617 C 836 652 817 682 793 708 C 769 734 738 754 701 770 C 664 785 621 793 573 793 C 525 793 480 783 436 763 C 392 743 354 716 321 681 C 287 646 261 604 241 555 C 221 506 211 453 211 395 C 211 355 217 318 229 283 C 241 248 260 218 284 192 C 308 166 338 146 375 131 C 411 116 454 109 502 109 Z" unicode="" />
<glyph horiz-adv-x="1075" d="M 823 1403 L 1020 1403 L 657 1042 L 512 1042 L 823 1403 Z M 582 936 C 651 936 713 925 769 904 C 824 882 871 853 909 816 C 947 779 976 735 996 684 C 1016 633 1026 578 1026 520 C 1026 426 1009 345 976 276 C 943 206 901 149 850 104 C 798 58 741 24 678 2 C 615 -19 554 -31 496 -31 C 426 -31 363 -20 308 0 C 253 21 207 50 169 86 C 131 122 103 166 83 217 C 63 267 53 322 53 381 C 53 469 68 547 100 617 C 132 686 173 744 223 791 C 273 838 329 874 393 899 C 456 923 519 936 582 936 Z M 502 109 C 547 109 592 117 636 135 C 680 153 719 178 753 212 C 787 245 815 286 836 336 C 857 385 868 441 868 504 C 868 544 861 581 849 617 C 836 652 817 682 793 708 C 769 734 738 754 701 770 C 664 785 621 793 573 793 C 525 793 480 783 436 763 C 392 743 354 716 321 681 C 287 646 261 604 241 555 C 221 506 211 453 211 395 C 211 355 217 318 229 283 C 241 248 260 218 284 192 C 308 166 338 146 375 131 C 411 116 454 109 502 109 Z" unicode="" />
<glyph horiz-adv-x="1075" d="M 766 1403 L 936 1042 L 817 1042 L 674 1272 L 432 1042 L 305 1042 L 631 1403 L 766 1403 Z M 582 936 C 651 936 713 925 769 904 C 824 882 871 853 909 816 C 947 779 976 735 996 684 C 1016 633 1026 578 1026 520 C 1026 426 1009 345 976 276 C 943 206 901 149 850 104 C 798 58 741 24 678 2 C 615 -19 554 -31 496 -31 C 426 -31 363 -20 308 0 C 253 21 207 50 169 86 C 131 122 103 166 83 217 C 63 267 53 322 53 381 C 53 469 68 547 100 617 C 132 686 173 744 223 791 C 273 838 329 874 393 899 C 456 923 519 936 582 936 Z M 502 109 C 547 109 592 117 636 135 C 680 153 719 178 753 212 C 787 245 815 286 836 336 C 857 385 868 441 868 504 C 868 544 861 581 849 617 C 836 652 817 682 793 708 C 769 734 738 754 701 770 C 664 785 621 793 573 793 C 525 793 480 783 436 763 C 392 743 354 716 321 681 C 287 646 261 604 241 555 C 221 506 211 453 211 395 C 211 355 217 318 229 283 C 241 248 260 218 284 192 C 308 166 338 146 375 131 C 411 116 454 109 502 109 Z" unicode="" />
<glyph horiz-adv-x="1075" d="M 893 1309 L 1004 1309 C 976 1240 942 1188 904 1152 C 866 1116 820 1098 768 1098 C 747 1098 726 1102 706 1110 C 685 1118 665 1128 646 1138 C 627 1148 608 1157 590 1165 C 572 1173 555 1178 539 1178 C 514 1178 492 1169 474 1153 C 455 1137 438 1117 424 1094 L 317 1094 C 343 1157 374 1208 412 1248 C 450 1287 495 1307 549 1307 C 570 1307 592 1302 614 1294 C 636 1285 657 1275 677 1265 C 697 1254 716 1244 734 1236 C 752 1227 767 1223 780 1223 C 806 1223 828 1230 846 1246 C 864 1262 879 1283 893 1309 Z M 582 936 C 651 936 713 925 769 904 C 824 882 871 853 909 816 C 947 779 976 735 996 684 C 1016 633 1026 578 1026 520 C 1026 426 1009 345 976 276 C 943 206 901 149 850 104 C 798 58 741 24 678 2 C 615 -19 554 -31 496 -31 C 426 -31 363 -20 308 0 C 253 21 207 50 169 86 C 131 122 103 166 83 217 C 63 267 53 322 53 381 C 53 469 68 547 100 617 C 132 686 173 744 223 791 C 273 838 329 874 393 899 C 456 923 519 936 582 936 Z M 502 109 C 547 109 592 117 636 135 C 680 153 719 178 753 212 C 787 245 815 286 836 336 C 857 385 868 441 868 504 C 868 544 861 581 849 617 C 836 652 817 682 793 708 C 769 734 738 754 701 770 C 664 785 621 793 573 793 C 525 793 480 783 436 763 C 392 743 354 716 321 681 C 287 646 261 604 241 555 C 221 506 211 453 211 395 C 211 355 217 318 229 283 C 241 248 260 218 284 192 C 308 166 338 146 375 131 C 411 116 454 109 502 109 Z" unicode="" />
<glyph horiz-adv-x="1075" d="M 418 1294 L 590 1294 L 551 1102 L 377 1102 L 418 1294 Z M 768 1294 L 942 1294 L 901 1102 L 729 1102 L 768 1294 Z M 582 936 C 651 936 713 925 769 904 C 824 882 871 853 909 816 C 947 779 976 735 996 684 C 1016 633 1026 578 1026 520 C 1026 426 1009 345 976 276 C 943 206 901 149 850 104 C 798 58 741 24 678 2 C 615 -19 554 -31 496 -31 C 426 -31 363 -20 308 0 C 253 21 207 50 169 86 C 131 122 103 166 83 217 C 63 267 53 322 53 381 C 53 469 68 547 100 617 C 132 686 173 744 223 791 C 273 838 329 874 393 899 C 456 923 519 936 582 936 Z M 502 109 C 547 109 592 117 636 135 C 680 153 719 178 753 212 C 787 245 815 286 836 336 C 857 385 868 441 868 504 C 868 544 861 581 849 617 C 836 652 817 682 793 708 C 769 734 738 754 701 770 C 664 785 621 793 573 793 C 525 793 480 783 436 763 C 392 743 354 716 321 681 C 287 646 261 604 241 555 C 221 506 211 453 211 395 C 211 355 217 318 229 283 C 241 248 260 218 284 192 C 308 166 338 146 375 131 C 411 116 454 109 502 109 Z" unicode="" />
<glyph horiz-adv-x="1645" d="M 995 1204 L 995 987 L 774 987 L 774 1204 L 995 1204 Z M 1464 762 L 1464 618 L 303 618 L 303 762 L 1464 762 Z M 995 377 L 995 160 L 774 160 L 774 377 L 995 377 Z" unicode="" />
<glyph horiz-adv-x="1110" d="M 565 1403 L 723 1042 L 598 1042 L 389 1403 L 565 1403 Z M 719 909 L 1022 909 L 858 139 L 1006 139 L 975 0 L 674 0 L 707 154 C 653 102 595 59 531 25 C 467 -9 406 -27 346 -27 C 296 -27 255 -17 222 1 C 188 19 163 45 146 79 C 129 112 120 152 118 200 C 116 247 121 299 133 356 L 221 770 L 80 770 L 109 909 L 406 909 L 285 344 C 269 272 272 217 292 179 C 312 140 350 121 406 121 C 434 121 464 126 494 137 C 524 148 553 162 582 180 C 610 198 638 218 665 241 C 692 264 717 288 741 313 L 838 770 L 690 770 L 719 909 Z" unicode="" />
<glyph horiz-adv-x="1110" d="M 791 1403 L 987 1403 L 625 1042 L 479 1042 L 791 1403 Z M 719 909 L 1022 909 L 858 139 L 1006 139 L 975 0 L 674 0 L 707 154 C 653 102 595 59 531 25 C 467 -9 406 -27 346 -27 C 296 -27 255 -17 222 1 C 188 19 163 45 146 79 C 129 112 120 152 118 200 C 116 247 121 299 133 356 L 221 770 L 80 770 L 109 909 L 406 909 L 285 344 C 269 272 272 217 292 179 C 312 140 350 121 406 121 C 434 121 464 126 494 137 C 524 148 553 162 582 180 C 610 198 638 218 665 241 C 692 264 717 288 741 313 L 838 770 L 690 770 L 719 909 Z" unicode="" />
<glyph horiz-adv-x="1110" d="M 762 1403 L 932 1042 L 813 1042 L 670 1272 L 428 1042 L 301 1042 L 627 1403 L 762 1403 Z M 719 909 L 1022 909 L 858 139 L 1006 139 L 975 0 L 674 0 L 707 154 C 653 102 595 59 531 25 C 467 -9 406 -27 346 -27 C 296 -27 255 -17 222 1 C 188 19 163 45 146 79 C 129 112 120 152 118 200 C 116 247 121 299 133 356 L 221 770 L 80 770 L 109 909 L 406 909 L 285 344 C 269 272 272 217 292 179 C 312 140 350 121 406 121 C 434 121 464 126 494 137 C 524 148 553 162 582 180 C 610 198 638 218 665 241 C 692 264 717 288 741 313 L 838 770 L 690 770 L 719 909 Z" unicode="" />
<glyph horiz-adv-x="1110" d="M 408 1294 L 580 1294 L 541 1102 L 367 1102 L 408 1294 Z M 758 1294 L 932 1294 L 891 1102 L 719 1102 L 758 1294 Z M 719 909 L 1022 909 L 858 139 L 1006 139 L 975 0 L 674 0 L 707 154 C 653 102 595 59 531 25 C 467 -9 406 -27 346 -27 C 296 -27 255 -17 222 1 C 188 19 163 45 146 79 C 129 112 120 152 118 200 C 116 247 121 299 133 356 L 221 770 L 80 770 L 109 909 L 406 909 L 285 344 C 269 272 272 217 292 179 C 312 140 350 121 406 121 C 434 121 464 126 494 137 C 524 148 553 162 582 180 C 610 198 638 218 665 241 C 692 264 717 288 741 313 L 838 770 L 690 770 L 719 909 Z" unicode="" />
<glyph horiz-adv-x="1055" d="M 793 1403 L 989 1403 L 627 1042 L 481 1042 L 793 1403 Z M 756 909 L 1112 909 L 1081 770 L 997 770 L 346 -250 L 502 -250 L 471 -393 L 0 -393 L 29 -250 L 201 -250 L 365 6 L 195 770 L 111 770 L 139 909 L 510 909 L 481 770 L 352 770 C 358 740 367 692 381 626 C 394 560 407 495 421 429 C 434 363 446 304 456 254 C 466 204 471 178 471 178 L 844 770 L 725 770 L 756 909 Z" unicode="" />
<glyph horiz-adv-x="1055" d="M 426 1294 L 598 1294 L 559 1102 L 385 1102 L 426 1294 Z M 776 1294 L 950 1294 L 909 1102 L 737 1102 L 776 1294 Z M 756 909 L 1112 909 L 1081 770 L 997 770 L 346 -250 L 502 -250 L 471 -393 L 0 -393 L 29 -250 L 201 -250 L 365 6 L 195 770 L 111 770 L 139 909 L 510 909 L 481 770 L 352 770 C 358 740 367 692 381 626 C 394 560 407 495 421 429 C 434 363 446 304 456 254 C 466 204 471 178 471 178 L 844 770 L 725 770 L 756 909 Z" unicode="" />
<glyph horiz-adv-x="592" d="M 315 137 L 485 137 L 455 0 L -31 0 L -2 137 L 162 137 L 295 770 L 133 770 L 162 909 L 479 909 L 315 137 Z" unicode="" />
<glyph horiz-adv-x="2071" d="M 993 141 L 1245 1331 L 1018 1331 C 927 1331 838 1318 751 1292 C 663 1266 586 1225 518 1169 C 450 1113 396 1041 355 951 C 313 861 293 753 293 627 C 293 554 304 487 326 427 C 348 367 382 316 427 274 C 472 232 529 199 598 176 C 667 152 748 141 840 141 L 993 141 Z M 1032 1475 L 2181 1475 L 2095 1069 L 1939 1069 L 1997 1335 L 1413 1335 L 1309 836 L 1614 836 L 1645 979 L 1780 979 L 1688 541 L 1550 541 L 1585 696 L 1278 696 L 1159 137 L 1763 137 L 1821 412 L 1976 412 L 1888 0 L 821 0 C 705 0 603 14 515 43 C 427 72 353 113 295 165 C 237 217 193 281 163 355 C 133 429 119 512 119 602 C 119 744 143 870 191 980 C 239 1089 304 1180 386 1253 C 468 1326 565 1381 677 1419 C 788 1456 906 1475 1032 1475 Z" unicode="" />
<glyph horiz-adv-x="1790" d="M 1348 936 C 1421 936 1482 925 1532 905 C 1581 884 1620 856 1650 822 C 1680 788 1701 748 1714 702 C 1726 656 1733 609 1733 559 C 1733 536 1731 510 1728 481 C 1725 451 1722 425 1718 403 L 995 403 L 995 377 C 995 338 1000 302 1011 268 C 1021 234 1037 205 1059 181 C 1081 156 1108 137 1142 123 C 1176 109 1216 102 1262 102 C 1318 102 1368 114 1412 140 C 1456 165 1493 204 1522 256 L 1673 256 C 1654 206 1629 164 1599 128 C 1569 92 1535 62 1498 38 C 1461 14 1422 -2 1381 -14 C 1339 -25 1299 -31 1260 -31 C 1162 -31 1083 -12 1023 24 C 963 60 918 108 889 168 C 837 102 776 52 707 19 C 637 -14 567 -31 496 -31 C 426 -31 363 -20 308 0 C 253 21 207 50 169 86 C 131 122 103 166 83 217 C 63 267 53 322 53 381 C 53 469 68 547 100 617 C 132 686 173 744 223 791 C 273 838 329 874 393 899 C 456 923 519 936 582 936 C 675 936 752 917 814 879 C 875 841 922 791 956 729 C 979 761 1006 790 1037 816 C 1067 842 1100 863 1134 881 C 1168 899 1203 912 1240 922 C 1276 931 1312 936 1348 936 Z M 1579 535 C 1579 541 1580 546 1580 551 C 1580 555 1581 560 1581 565 C 1580 596 1576 626 1569 654 C 1561 682 1549 707 1531 729 C 1513 750 1489 767 1459 780 C 1428 792 1389 799 1343 799 C 1308 799 1274 793 1240 782 C 1206 770 1175 753 1147 731 C 1118 709 1092 681 1070 648 C 1047 615 1030 577 1018 535 L 1579 535 Z M 502 109 C 547 109 591 117 635 135 C 678 153 716 178 750 212 C 783 245 810 286 831 336 C 851 385 862 441 862 504 C 862 544 856 581 844 617 C 832 652 814 682 790 708 C 766 734 736 754 700 770 C 664 785 621 793 573 793 C 525 793 480 783 436 763 C 392 743 354 716 321 681 C 287 646 261 604 241 555 C 221 506 211 453 211 395 C 211 355 217 318 229 283 C 241 248 260 218 284 192 C 308 166 338 146 375 131 C 411 116 454 109 502 109 Z" unicode="" />
<glyph horiz-adv-x="1493" d="M 766 1829 L 938 1829 L 899 1636 L 725 1636 L 766 1829 Z M 1116 1829 L 1290 1829 L 1249 1636 L 1077 1636 L 1116 1829 Z M 1219 1475 L 1640 1475 L 1610 1331 L 1511 1331 C 1465 1280 1405 1215 1333 1136 C 1260 1056 1190 979 1122 905 C 1054 830 995 766 945 712 C 895 658 870 631 870 631 L 768 141 L 924 141 L 893 0 L 414 0 L 444 141 L 600 141 L 702 631 L 360 1331 L 260 1331 L 291 1475 L 731 1475 L 700 1331 L 539 1331 L 809 758 L 1329 1331 L 1188 1331 L 1219 1475 Z" unicode="" />
<glyph horiz-adv-x="879" d="M 489 1190 C 501 1244 516 1289 536 1326 C 555 1362 581 1392 613 1414 C 645 1436 685 1451 734 1461 C 782 1470 841 1475 911 1475 L 881 1331 C 841 1331 807 1328 780 1322 C 753 1316 731 1305 713 1291 C 695 1277 681 1258 671 1235 C 661 1211 652 1183 645 1149 L 573 813 L 766 813 L 735 670 L 543 670 L 379 -106 C 368 -156 353 -200 334 -237 C 314 -273 289 -303 257 -326 C 225 -349 186 -366 138 -377 C 90 -387 32 -393 -35 -393 L -6 -250 C 33 -250 66 -247 92 -241 C 118 -235 140 -225 157 -211 C 174 -197 188 -178 198 -155 C 208 -131 216 -103 223 -70 L 377 670 L 209 670 L 240 813 L 408 813 L 489 1190 Z" unicode="" />
<glyph horiz-adv-x="1069" d="M 788 1403 L 958 1042 L 840 1042 L 696 1272 L 455 1042 L 328 1042 L 653 1403 L 788 1403 Z" unicode="" />
<glyph horiz-adv-x="1069" d="M 911 1403 L 1034 1403 L 711 1042 L 575 1042 L 406 1403 L 526 1403 L 670 1174 L 911 1403 Z" unicode="" />
<glyph horiz-adv-x="1069" d="M 381 1262 L 872 1262 L 846 1130 L 354 1130 L 381 1262 Z" unicode="" />
<glyph horiz-adv-x="1069" d="M 846 1368 L 958 1368 C 930 1271 890 1197 837 1147 C 783 1096 708 1071 610 1071 C 516 1071 448 1096 404 1147 C 360 1197 345 1271 360 1368 L 471 1368 C 463 1315 470 1272 492 1240 C 514 1208 557 1192 623 1192 C 689 1192 738 1207 772 1239 C 806 1271 830 1314 846 1368 Z" unicode="" />
<glyph horiz-adv-x="1069" d="M 594 1313 L 803 1313 L 758 1100 L 549 1100 L 594 1313 Z" unicode="" />
<glyph horiz-adv-x="1069" d="M 709 1507 C 742 1507 772 1501 799 1489 C 825 1477 848 1462 866 1442 C 884 1422 897 1400 907 1374 C 917 1348 922 1320 922 1292 C 922 1252 914 1215 898 1182 C 882 1148 862 1120 837 1097 C 811 1073 782 1055 750 1043 C 717 1030 684 1024 651 1024 C 617 1024 587 1029 561 1041 C 534 1053 512 1068 494 1088 C 476 1107 462 1130 452 1156 C 442 1182 438 1209 438 1237 C 438 1275 445 1311 460 1345 C 474 1378 494 1406 519 1430 C 543 1454 572 1472 605 1486 C 638 1500 673 1507 709 1507 Z M 662 1112 C 680 1112 699 1116 719 1124 C 739 1132 757 1143 773 1158 C 789 1172 803 1191 813 1213 C 823 1235 829 1260 829 1288 C 829 1324 817 1354 795 1380 C 773 1406 740 1419 696 1419 C 649 1419 610 1402 578 1368 C 546 1334 530 1291 530 1241 C 530 1205 541 1174 563 1149 C 585 1124 618 1112 662 1112 Z" unicode="" />
<glyph horiz-adv-x="1069" d="M 905 1309 L 1016 1309 C 988 1240 955 1188 917 1152 C 879 1116 833 1098 780 1098 C 759 1098 738 1102 718 1110 C 697 1118 677 1128 658 1138 C 639 1148 620 1157 602 1165 C 584 1173 567 1178 551 1178 C 526 1178 504 1169 486 1153 C 467 1137 450 1117 436 1094 L 330 1094 C 355 1157 387 1208 425 1248 C 463 1287 508 1307 561 1307 C 582 1307 604 1302 626 1294 C 648 1285 669 1275 689 1265 C 709 1254 729 1244 747 1236 C 765 1227 780 1223 793 1223 C 819 1223 841 1230 859 1246 C 877 1262 892 1283 905 1309 Z" unicode="" />
<glyph horiz-adv-x="1159" d="M 182 909 L 1176 909 L 1147 770 L 961 770 L 825 137 L 1006 137 L 977 0 L 641 0 L 805 770 L 477 770 L 313 0 L 158 0 L 322 770 L 154 770 L 182 909 Z" unicode="" />
<glyph horiz-adv-x="1026" d="M 82 631 L 1022 631 L 991 496 L 53 496 L 82 631 Z" unicode="" />
<glyph horiz-adv-x="1845" d="M 82 631 L 1841 631 L 1810 496 L 53 496 L 82 631 Z" unicode="" />
<glyph horiz-adv-x="1753" d="M 82 135 L 1559 135 L 1530 0 L 53 0 L 82 135 Z" unicode="" />
<glyph horiz-adv-x="535" d="M 502 1475 L 653 1475 L 446 950 L 246 950 L 502 1475 Z" unicode="" />
<glyph horiz-adv-x="535" d="M 389 1475 L 590 1475 L 334 950 L 182 950 L 389 1475 Z" unicode="" />
<glyph horiz-adv-x="535" d="M 156 233 L 356 233 L 100 -291 L -51 -291 L 156 233 Z" unicode="" />
<glyph horiz-adv-x="879" d="M 502 1475 L 649 1475 L 442 950 L 246 950 L 502 1475 Z M 848 1475 L 997 1475 L 791 950 L 594 950 L 848 1475 Z" unicode="" />
<glyph horiz-adv-x="879" d="M 389 1475 L 586 1475 L 332 950 L 182 950 L 389 1475 Z M 737 1475 L 934 1475 L 678 950 L 530 950 L 737 1475 Z" unicode="" />
<glyph horiz-adv-x="879" d="M 156 233 L 354 233 L 98 -291 L -51 -291 L 156 233 Z M 504 233 L 700 233 L 444 -291 L 297 -291 L 504 233 Z" unicode="" />
<glyph horiz-adv-x="1137" d="M 1034 1118 L 1159 1118 L 1079 741 L 952 741 L 981 866 L 731 866 L 543 -29 L 397 -29 L 586 866 L 338 866 L 309 741 L 184 741 L 266 1120 L 391 1120 L 365 995 L 614 995 L 688 1346 L 545 1346 L 571 1475 L 1006 1475 L 977 1346 L 834 1346 L 760 995 L 1008 995 L 1034 1118 Z" unicode="" />
<glyph horiz-adv-x="1137" d="M 1059 1188 L 1184 1188 L 1110 850 L 987 850 L 1010 948 L 760 948 L 668 524 L 913 524 L 934 623 L 1063 623 L 991 283 L 866 283 L 891 401 L 643 401 L 586 129 L 729 129 L 702 0 L 268 0 L 297 129 L 440 129 L 496 401 L 246 401 L 223 283 L 98 283 L 170 623 L 291 623 L 270 524 L 520 524 L 612 948 L 365 948 L 344 850 L 217 850 L 291 1190 L 414 1190 L 389 1071 L 637 1071 L 698 1348 L 555 1348 L 582 1477 L 1016 1477 L 987 1348 L 844 1348 L 784 1071 L 1034 1071 L 1059 1188 Z" unicode="" />
<glyph horiz-adv-x="866" d="M 434 1114 C 488 1114 539 1103 587 1082 C 635 1061 676 1033 712 997 C 748 961 776 918 797 870 C 818 822 829 771 829 717 C 829 663 818 611 797 563 C 776 515 748 473 712 437 C 676 401 635 372 587 351 C 539 329 488 319 434 319 C 379 319 327 329 279 351 C 231 372 189 401 153 437 C 117 473 89 515 68 563 C 47 611 37 663 37 717 C 37 771 47 822 68 870 C 89 918 117 961 153 997 C 189 1033 231 1061 279 1082 C 327 1103 379 1114 434 1114 Z" unicode="" />
<glyph horiz-adv-x="1806" d="M 143 207 L 362 207 L 317 0 L 98 0 L 143 207 Z M 745 207 L 965 207 L 920 0 L 700 0 L 745 207 Z M 1348 207 L 1567 207 L 1522 0 L 1303 0 L 1348 207 Z" unicode="" />
<glyph horiz-adv-x="2675" d="M 625 1497 C 678 1497 726 1488 768 1472 C 810 1455 846 1432 875 1404 C 904 1375 926 1341 942 1302 C 957 1262 965 1220 965 1176 C 965 1108 953 1046 929 992 C 905 938 873 892 835 855 C 796 817 751 789 701 769 C 651 749 599 739 547 739 C 493 739 445 747 403 764 C 361 780 325 803 297 832 C 269 860 247 894 233 934 C 218 974 211 1017 211 1063 C 211 1126 222 1184 245 1238 C 268 1291 299 1337 337 1375 C 375 1413 420 1443 470 1465 C 520 1486 571 1497 625 1497 Z M 1507 1475 L 1665 1475 L 457 0 L 299 0 L 1507 1475 Z M 553 868 C 589 868 623 875 655 889 C 687 903 714 922 738 948 C 762 974 780 1005 794 1042 C 808 1078 815 1119 815 1165 C 815 1193 811 1220 803 1245 C 795 1269 784 1291 768 1309 C 752 1327 731 1342 707 1352 C 683 1362 654 1368 621 1368 C 583 1368 548 1360 516 1344 C 484 1328 456 1306 433 1279 C 410 1252 392 1220 379 1183 C 366 1146 360 1107 360 1065 C 360 1037 364 1011 372 987 C 380 963 392 942 408 924 C 424 906 444 893 468 883 C 492 873 521 868 553 868 Z M 1413 737 C 1467 737 1515 728 1558 712 C 1600 695 1636 672 1665 643 C 1694 614 1716 580 1732 541 C 1747 501 1755 459 1755 414 C 1755 346 1743 286 1719 232 C 1695 178 1663 132 1624 95 C 1585 58 1540 30 1490 10 C 1440 -10 1389 -20 1337 -20 C 1282 -20 1234 -11 1192 4 C 1150 20 1115 43 1087 72 C 1059 101 1037 135 1023 175 C 1008 214 1001 257 1001 303 C 1001 366 1012 424 1035 478 C 1058 531 1088 577 1126 615 C 1164 653 1208 683 1258 705 C 1308 726 1359 737 1413 737 Z M 2257 737 C 2310 737 2358 728 2400 712 C 2442 695 2478 672 2507 643 C 2536 614 2558 580 2574 541 C 2589 501 2597 459 2597 414 C 2597 346 2585 286 2561 232 C 2537 178 2505 132 2467 95 C 2428 58 2383 30 2333 10 C 2283 -10 2231 -20 2179 -20 C 2125 -20 2077 -11 2035 4 C 1993 20 1957 43 1929 72 C 1901 101 1879 135 1865 175 C 1850 214 1843 257 1843 303 C 1843 366 1854 424 1877 478 C 1900 531 1931 577 1969 615 C 2007 653 2052 683 2102 705 C 2152 726 2203 737 2257 737 Z M 1341 109 C 1377 109 1411 116 1443 130 C 1475 144 1503 163 1527 189 C 1551 214 1569 245 1583 282 C 1597 319 1604 360 1604 406 C 1604 434 1600 461 1592 486 C 1584 510 1572 532 1556 550 C 1540 568 1519 582 1495 592 C 1471 602 1442 608 1409 608 C 1371 608 1337 600 1305 584 C 1273 568 1246 546 1224 519 C 1201 492 1183 460 1170 423 C 1157 386 1151 347 1151 305 C 1151 277 1154 252 1162 228 C 1170 204 1181 183 1197 165 C 1213 147 1233 134 1257 124 C 1281 114 1309 109 1341 109 Z M 2185 109 C 2221 109 2255 116 2287 130 C 2319 144 2346 163 2370 189 C 2394 214 2412 245 2426 282 C 2440 319 2447 360 2447 406 C 2447 434 2443 461 2435 486 C 2427 510 2415 532 2399 550 C 2383 568 2362 582 2338 592 C 2314 602 2285 608 2253 608 C 2215 608 2180 600 2148 584 C 2116 568 2088 546 2066 519 C 2043 492 2025 460 2012 423 C 1999 386 1993 347 1993 305 C 1993 277 1996 252 2004 228 C 2012 204 2023 183 2039 165 C 2055 147 2075 134 2099 124 C 2123 114 2152 109 2185 109 Z" unicode="" />
<glyph horiz-adv-x="743" d="M 483 909 L 651 909 L 360 451 L 455 0 L 291 0 L 199 451 L 483 909 Z" unicode="" />
<glyph horiz-adv-x="743" d="M 461 909 L 555 453 L 268 0 L 102 0 L 391 453 L 295 909 L 461 909 Z" unicode="" />
<glyph horiz-adv-x="821" d="M 1022 1475 L 1157 1475 L -72 0 L -207 0 L 1022 1475 Z" unicode="" />
<glyph horiz-adv-x="1419" d="M 1364 1475 L 1509 1475 L 1421 1069 L 1268 1069 L 1296 1202 C 1285 1222 1271 1241 1254 1261 C 1236 1280 1216 1297 1192 1312 C 1168 1326 1139 1338 1107 1348 C 1075 1357 1039 1362 999 1362 C 949 1362 902 1351 858 1330 C 814 1309 774 1280 738 1243 C 702 1206 669 1162 641 1111 C 612 1060 587 1005 567 946 L 1071 946 L 1049 834 L 535 834 C 526 800 519 765 513 729 C 507 693 502 658 500 623 L 899 623 L 874 510 L 496 510 L 496 504 C 496 448 502 397 514 349 C 526 301 545 260 570 226 C 595 191 627 164 666 144 C 704 124 750 115 803 115 C 848 115 889 123 925 139 C 961 155 993 176 1021 204 C 1049 232 1073 264 1093 301 C 1113 338 1131 378 1145 420 L 1305 420 C 1283 354 1255 293 1223 239 C 1191 184 1153 137 1109 98 C 1065 59 1015 29 959 7 C 902 -14 839 -25 770 -25 C 695 -25 630 -12 574 13 C 518 38 473 73 437 119 C 401 165 374 220 356 285 C 338 349 330 420 330 498 L 330 510 L 125 510 L 150 623 L 336 623 C 338 658 343 693 349 729 C 355 765 362 800 371 834 L 195 834 L 219 946 L 403 946 C 430 1025 464 1099 505 1167 C 545 1235 591 1293 642 1343 C 693 1392 749 1431 811 1459 C 872 1487 937 1501 1006 1501 C 1089 1501 1158 1487 1214 1461 C 1269 1435 1311 1404 1341 1370 L 1364 1475 Z" unicode="" />
<glyph horiz-adv-x="1692" d="M 754 1475 L 754 1262 L 664 1262 L 664 1395 L 514 1395 L 514 893 L 588 893 L 588 809 L 340 809 L 340 893 L 412 893 L 412 1395 L 260 1395 L 260 1262 L 174 1262 L 174 1475 L 754 1475 Z M 1614 893 L 1614 809 L 1384 809 L 1384 893 L 1452 893 L 1452 1354 L 1262 809 L 1165 809 L 979 1350 L 979 893 L 1049 893 L 1049 809 L 821 809 L 821 893 L 887 893 L 887 1389 L 821 1389 L 821 1475 L 1040 1475 L 1219 940 L 1395 1475 L 1614 1475 L 1614 1389 L 1550 1389 L 1550 893 L 1614 893 Z" unicode="" />
<glyph horiz-adv-x="1634" d="M 356 1475 L 596 1475 L 440 750 L 528 750 L 506 641 L 180 641 L 203 750 L 303 750 L 436 1366 L 334 1366 L 356 1475 Z M 1366 1475 L 1499 1475 L 272 0 L 137 0 L 1366 1475 Z M 1315 848 C 1398 848 1461 831 1504 797 C 1547 763 1569 720 1569 668 C 1569 608 1549 558 1511 518 C 1473 478 1425 451 1368 436 C 1410 426 1444 405 1468 375 C 1492 344 1505 306 1505 262 C 1505 221 1496 184 1480 150 C 1464 116 1441 86 1412 62 C 1383 38 1349 19 1309 6 C 1269 -7 1225 -14 1178 -14 C 1124 -14 1078 -8 1042 3 C 1005 14 976 30 954 51 C 932 72 916 97 907 127 C 897 157 893 190 893 227 L 1028 227 C 1030 201 1034 180 1040 162 C 1045 144 1053 130 1065 119 C 1076 108 1091 100 1110 95 C 1128 90 1152 88 1182 88 C 1204 88 1227 91 1249 97 C 1271 103 1291 112 1309 125 C 1326 138 1340 156 1351 178 C 1361 200 1367 226 1368 258 C 1368 300 1350 332 1314 352 C 1278 372 1227 383 1161 383 L 1133 383 L 1155 485 L 1180 485 C 1260 485 1321 497 1363 522 C 1405 547 1427 589 1427 649 C 1427 677 1416 699 1395 717 C 1373 734 1340 743 1294 743 C 1256 743 1220 734 1188 717 C 1156 700 1134 664 1124 608 L 991 608 C 999 646 1012 681 1032 711 C 1052 741 1076 766 1104 786 C 1132 806 1165 822 1201 832 C 1237 842 1275 848 1315 848 Z" unicode="" />
<glyph horiz-adv-x="1876" d="M 655 1495 C 736 1495 799 1476 844 1439 C 888 1402 911 1350 911 1282 C 911 1240 904 1203 889 1171 C 873 1138 853 1108 827 1082 C 801 1056 770 1031 736 1009 C 701 986 665 964 627 942 C 576 912 535 887 503 867 C 471 847 446 829 428 815 C 410 801 398 788 390 778 C 382 768 377 758 375 750 L 684 750 L 715 889 L 838 889 L 786 647 L 197 647 C 207 688 218 723 232 753 C 246 782 265 810 291 836 C 316 862 350 889 392 918 C 434 947 489 982 555 1022 C 593 1045 625 1065 653 1083 C 681 1101 703 1118 721 1136 C 738 1153 751 1172 759 1192 C 767 1212 772 1237 772 1266 C 772 1301 761 1331 740 1355 C 718 1379 685 1391 639 1391 C 594 1391 557 1378 529 1354 C 500 1330 480 1295 469 1251 L 336 1251 C 354 1324 392 1383 448 1428 C 504 1472 573 1495 655 1495 Z M 1608 1475 L 1741 1475 L 514 0 L 379 0 L 1608 1475 Z M 1556 848 C 1639 848 1702 831 1745 797 C 1788 763 1810 720 1810 668 C 1810 638 1804 610 1794 585 C 1784 559 1770 537 1752 518 C 1734 498 1713 482 1689 468 C 1665 454 1638 444 1610 436 C 1652 426 1686 405 1710 375 C 1734 344 1747 306 1747 262 C 1747 221 1738 184 1722 150 C 1706 116 1683 86 1654 62 C 1625 38 1590 19 1550 6 C 1510 -7 1466 -14 1419 -14 C 1365 -14 1319 -8 1283 3 C 1246 14 1217 30 1195 51 C 1173 72 1158 97 1149 127 C 1139 157 1135 190 1135 227 L 1270 227 C 1272 201 1276 180 1282 162 C 1287 144 1295 130 1307 119 C 1318 108 1333 100 1352 95 C 1370 90 1394 88 1423 88 C 1446 88 1469 91 1491 97 C 1513 103 1533 112 1551 125 C 1568 138 1582 156 1593 178 C 1603 200 1609 226 1610 258 C 1610 300 1592 332 1556 352 C 1520 372 1469 383 1403 383 L 1374 383 L 1397 485 L 1421 485 C 1501 485 1563 497 1605 522 C 1647 547 1669 589 1669 649 C 1669 677 1658 699 1637 717 C 1615 734 1582 743 1536 743 C 1497 743 1461 734 1429 717 C 1397 700 1376 664 1366 608 L 1233 608 C 1241 646 1254 681 1274 711 C 1294 741 1318 766 1346 786 C 1374 806 1406 822 1442 832 C 1478 842 1516 848 1556 848 Z" unicode="" />
<glyph horiz-adv-x="1659" d="M 356 1475 L 596 1475 L 440 750 L 528 750 L 506 641 L 180 641 L 203 750 L 303 750 L 436 1366 L 334 1366 L 356 1475 Z M 1366 1475 L 1499 1475 L 272 0 L 137 0 L 1366 1475 Z M 1315 848 C 1357 848 1396 842 1430 832 C 1464 821 1492 806 1516 788 C 1540 769 1558 747 1570 722 C 1582 696 1589 669 1589 641 C 1589 588 1574 544 1544 509 C 1514 473 1478 447 1436 430 C 1465 412 1488 390 1506 362 C 1523 334 1532 302 1532 266 C 1532 217 1521 175 1501 139 C 1481 103 1455 74 1424 52 C 1392 30 1357 13 1318 2 C 1278 -8 1240 -14 1202 -14 C 1107 -14 1033 6 981 47 C 929 88 903 141 903 207 C 903 240 908 270 918 298 C 928 325 941 349 958 369 C 975 389 995 407 1018 422 C 1041 436 1066 448 1092 457 C 1068 474 1049 495 1036 520 C 1022 545 1016 573 1016 604 C 1016 643 1024 678 1041 708 C 1057 738 1079 764 1107 785 C 1134 805 1166 821 1202 832 C 1238 842 1276 848 1315 848 Z M 1286 485 C 1308 485 1329 488 1350 494 C 1371 500 1390 508 1407 520 C 1423 532 1437 547 1447 565 C 1457 583 1462 605 1462 629 C 1462 660 1449 688 1423 713 C 1397 737 1361 750 1313 750 C 1290 750 1268 746 1247 740 C 1225 734 1207 724 1191 712 C 1175 699 1163 683 1153 665 C 1143 647 1139 626 1139 602 C 1139 570 1151 543 1176 520 C 1201 496 1238 485 1286 485 Z M 1208 86 C 1231 86 1255 89 1279 96 C 1303 103 1324 114 1343 128 C 1361 142 1377 161 1389 183 C 1401 205 1407 230 1407 260 C 1407 296 1391 327 1360 353 C 1329 378 1285 391 1227 391 C 1201 391 1176 387 1152 381 C 1128 374 1106 364 1088 350 C 1070 336 1055 319 1044 297 C 1033 275 1028 250 1028 221 C 1028 182 1043 150 1073 124 C 1103 98 1148 86 1208 86 Z" unicode="" />
<glyph horiz-adv-x="1810" d="M 1518 1475 L 1653 1475 L 424 0 L 289 0 L 1518 1475 Z M 625 1495 C 708 1495 771 1478 814 1444 C 857 1410 879 1367 879 1315 C 879 1255 859 1205 821 1165 C 783 1125 735 1098 678 1083 C 720 1073 754 1052 778 1022 C 802 991 815 953 815 909 C 815 868 806 831 790 797 C 774 763 751 733 722 709 C 693 685 658 666 618 653 C 578 639 534 633 487 633 C 433 633 387 638 351 650 C 314 661 285 677 263 698 C 241 719 226 744 217 774 C 207 804 203 837 203 874 L 338 874 C 340 848 344 827 350 809 C 355 791 363 777 375 766 C 386 755 401 747 420 742 C 438 737 462 735 492 735 C 514 735 537 738 559 744 C 581 750 600 759 617 772 C 634 785 648 803 659 825 C 669 847 675 873 676 905 C 676 947 658 979 623 999 C 587 1019 537 1030 471 1030 L 442 1030 L 465 1133 L 489 1133 C 569 1133 631 1145 673 1170 C 715 1195 737 1237 737 1296 C 737 1324 726 1346 705 1364 C 683 1382 650 1391 604 1391 C 565 1391 530 1382 498 1365 C 466 1347 444 1311 434 1255 L 301 1255 C 309 1293 322 1328 342 1358 C 362 1388 386 1413 414 1433 C 442 1453 475 1469 511 1479 C 547 1489 585 1495 625 1495 Z M 1466 848 C 1508 848 1547 842 1581 832 C 1615 821 1644 806 1668 788 C 1691 769 1709 747 1722 722 C 1734 696 1741 669 1741 641 C 1741 588 1726 544 1696 509 C 1666 473 1629 447 1587 430 C 1617 412 1640 390 1657 362 C 1674 334 1683 302 1683 266 C 1683 217 1672 175 1652 139 C 1632 103 1606 74 1575 52 C 1543 30 1508 13 1469 2 C 1429 -8 1391 -14 1354 -14 C 1258 -14 1185 6 1133 47 C 1081 88 1055 141 1055 207 C 1055 240 1060 270 1070 298 C 1080 325 1093 349 1110 369 C 1126 389 1146 407 1169 422 C 1192 436 1217 448 1243 457 C 1219 474 1201 495 1187 520 C 1173 545 1167 573 1167 604 C 1167 643 1175 678 1192 708 C 1208 738 1230 764 1258 785 C 1286 805 1318 821 1354 832 C 1390 842 1427 848 1466 848 Z M 1438 485 C 1460 485 1481 488 1502 494 C 1523 500 1542 508 1559 520 C 1575 532 1589 547 1599 565 C 1609 583 1614 605 1614 629 C 1614 660 1601 688 1575 713 C 1549 737 1512 750 1464 750 C 1441 750 1419 746 1398 740 C 1376 734 1358 724 1342 712 C 1326 699 1314 683 1304 665 C 1294 647 1290 626 1290 602 C 1290 570 1302 543 1328 520 C 1353 496 1390 485 1438 485 Z M 1360 86 C 1383 86 1406 89 1430 96 C 1454 103 1475 114 1494 128 C 1513 142 1529 161 1541 183 C 1553 205 1559 230 1559 260 C 1559 296 1543 327 1512 353 C 1480 378 1436 391 1378 391 C 1352 391 1328 387 1304 381 C 1280 374 1258 364 1240 350 C 1222 336 1207 319 1196 297 C 1185 275 1180 250 1180 221 C 1180 182 1195 150 1225 124 C 1255 98 1300 86 1360 86 Z" unicode="" />
<glyph horiz-adv-x="1815" d="M 1523 1475 L 1658 1475 L 429 0 L 294 0 L 1523 1475 Z M 392 1481 L 890 1481 L 841 1249 L 726 1249 L 755 1382 L 490 1382 L 445 1165 C 469 1176 492 1183 516 1187 C 539 1190 558 1192 572 1192 C 616 1192 654 1186 688 1175 C 721 1163 749 1148 771 1128 C 793 1108 809 1084 820 1056 C 831 1028 837 999 837 967 C 837 913 827 866 809 824 C 791 782 766 747 735 719 C 703 691 667 669 626 655 C 584 640 541 633 495 633 C 442 633 397 639 361 653 C 324 666 294 684 272 707 C 250 730 234 757 225 789 C 215 821 211 855 212 891 L 339 891 C 341 841 353 802 375 774 C 397 746 439 733 503 733 C 530 733 556 737 581 747 C 606 756 628 770 647 788 C 665 806 680 828 691 856 C 702 883 708 914 708 950 C 708 990 695 1024 670 1051 C 645 1078 604 1092 546 1092 C 524 1092 501 1088 475 1080 C 449 1072 422 1057 394 1034 L 302 1065 L 392 1481 Z M 1471 848 C 1513 848 1552 842 1586 832 C 1620 821 1649 806 1673 788 C 1696 769 1714 747 1727 722 C 1739 696 1746 669 1746 641 C 1746 588 1731 544 1701 509 C 1671 473 1634 447 1592 430 C 1622 412 1645 390 1663 362 C 1680 334 1689 302 1689 266 C 1689 217 1678 175 1658 139 C 1638 103 1612 74 1580 52 C 1548 30 1513 13 1474 2 C 1434 -8 1396 -14 1359 -14 C 1263 -14 1190 6 1138 47 C 1086 88 1060 141 1060 207 C 1060 240 1065 270 1075 298 C 1085 325 1098 349 1115 369 C 1131 389 1151 407 1174 422 C 1197 436 1222 448 1248 457 C 1224 474 1206 495 1192 520 C 1178 545 1172 573 1172 604 C 1172 643 1180 678 1197 708 C 1213 738 1235 764 1263 785 C 1291 805 1323 821 1359 832 C 1395 842 1432 848 1471 848 Z M 1443 485 C 1465 485 1486 488 1507 494 C 1528 500 1547 508 1564 520 C 1580 532 1594 547 1604 565 C 1614 583 1619 605 1619 629 C 1619 660 1606 688 1580 713 C 1554 737 1517 750 1469 750 C 1446 750 1424 746 1403 740 C 1381 734 1363 724 1347 712 C 1331 699 1319 683 1309 665 C 1299 647 1295 626 1295 602 C 1295 570 1307 543 1333 520 C 1358 496 1395 485 1443 485 Z M 1365 86 C 1388 86 1411 89 1435 96 C 1459 103 1480 114 1499 128 C 1518 142 1534 161 1546 183 C 1558 205 1564 230 1564 260 C 1564 296 1548 327 1517 353 C 1485 378 1441 391 1383 391 C 1357 391 1333 387 1309 381 C 1285 374 1263 364 1245 350 C 1227 336 1212 319 1201 297 C 1190 275 1185 250 1185 221 C 1185 182 1200 150 1230 124 C 1260 98 1305 86 1365 86 Z" unicode="" />
<glyph horiz-adv-x="1759" d="M 395 1481 L 954 1481 L 934 1391 L 526 750 L 612 750 L 590 649 L 281 649 L 303 750 L 393 750 L 791 1382 L 489 1382 L 461 1249 L 344 1249 L 395 1481 Z M 1458 1475 L 1593 1475 L 365 0 L 229 0 L 1458 1475 Z M 1415 848 C 1457 848 1496 842 1530 832 C 1564 821 1593 806 1617 788 C 1640 769 1658 747 1671 722 C 1683 696 1690 669 1690 641 C 1690 588 1675 544 1645 509 C 1615 473 1578 447 1536 430 C 1565 412 1588 390 1606 362 C 1623 334 1632 302 1632 266 C 1632 217 1621 175 1601 139 C 1581 103 1555 74 1524 52 C 1492 30 1457 13 1418 2 C 1378 -8 1340 -14 1303 -14 C 1207 -14 1134 6 1082 47 C 1030 88 1004 141 1004 207 C 1004 240 1008 270 1018 298 C 1028 325 1041 349 1058 369 C 1075 389 1095 407 1118 422 C 1141 436 1166 448 1192 457 C 1168 474 1150 495 1136 520 C 1122 545 1116 573 1116 604 C 1116 643 1124 678 1141 708 C 1157 738 1179 764 1207 785 C 1235 805 1267 821 1303 832 C 1339 842 1376 848 1415 848 Z M 1386 485 C 1408 485 1429 488 1451 494 C 1472 500 1491 508 1508 520 C 1524 532 1538 547 1548 565 C 1558 583 1563 605 1563 629 C 1563 660 1550 688 1524 713 C 1498 737 1461 750 1413 750 C 1390 750 1368 746 1347 740 C 1325 734 1307 724 1291 712 C 1275 699 1263 683 1253 665 C 1243 647 1239 626 1239 602 C 1239 570 1251 543 1276 520 C 1301 496 1338 485 1386 485 Z M 1309 86 C 1332 86 1355 89 1379 96 C 1403 103 1424 114 1443 128 C 1461 142 1477 161 1489 183 C 1501 205 1507 230 1507 260 C 1507 296 1491 327 1460 353 C 1429 378 1385 391 1327 391 C 1301 391 1277 387 1253 381 C 1229 374 1207 364 1189 350 C 1171 336 1156 319 1145 297 C 1133 275 1128 250 1128 221 C 1128 182 1143 150 1173 124 C 1203 98 1249 86 1309 86 Z" unicode="" />
<glyph horiz-adv-x="1645" d="M 1458 762 L 1458 618 L 299 618 L 299 762 L 1458 762 Z" unicode="" />
<glyph horiz-adv-x="987" d="M 903 1507 L 1071 1507 L 152 -190 L -16 -190 L 903 1507 Z" unicode="" />
<glyph horiz-adv-x="659" d="M 299 793 L 520 793 L 475 586 L 254 586 L 299 793 Z" unicode="" />
<glyph horiz-adv-x="1645" d="M 1522 1503 L 1675 1503 L 930 -57 L 842 -57 L 524 762 L 266 639 L 219 760 L 633 950 L 907 229 L 1522 1503 Z" unicode="" />
<glyph horiz-adv-x="1645" d="M 1186 979 C 1244 979 1296 968 1344 946 C 1391 924 1431 894 1464 856 C 1496 818 1522 772 1540 719 C 1558 666 1567 609 1567 547 C 1567 485 1558 427 1540 374 C 1522 321 1496 275 1464 237 C 1431 199 1391 169 1344 147 C 1296 125 1244 115 1186 115 C 1115 115 1053 132 999 168 C 945 203 902 249 870 305 C 838 249 795 203 740 168 C 685 132 623 115 553 115 C 495 115 442 125 395 147 C 347 169 307 199 274 237 C 241 275 216 321 198 374 C 180 427 172 485 172 547 C 172 609 180 666 198 719 C 216 772 241 818 274 856 C 307 894 347 924 395 946 C 442 968 495 979 553 979 C 623 979 685 960 739 924 C 793 887 836 841 868 786 C 900 841 943 887 998 924 C 1052 960 1115 979 1186 979 Z M 555 250 C 591 250 625 257 656 272 C 686 286 712 306 734 332 C 756 358 773 389 785 426 C 797 462 803 503 803 547 C 803 590 797 630 785 667 C 773 703 756 735 734 761 C 712 787 686 807 656 822 C 625 836 591 844 555 844 C 519 844 486 836 458 822 C 429 807 405 787 385 761 C 365 735 350 704 340 668 C 329 631 324 591 324 547 C 324 503 329 462 340 426 C 350 389 365 358 385 332 C 405 306 429 285 458 271 C 486 257 519 250 555 250 Z M 1184 250 C 1220 250 1252 257 1281 271 C 1309 285 1333 306 1353 332 C 1373 358 1388 389 1399 426 C 1409 462 1415 503 1415 547 C 1415 591 1409 631 1399 668 C 1388 704 1373 735 1353 761 C 1333 787 1309 807 1281 822 C 1252 836 1220 844 1184 844 C 1147 844 1113 836 1083 822 C 1052 807 1026 787 1004 761 C 982 735 966 703 954 667 C 942 630 936 590 936 547 C 936 503 942 462 954 426 C 966 389 982 358 1004 332 C 1026 306 1052 286 1083 272 C 1113 257 1147 250 1184 250 Z" unicode="" />
<glyph horiz-adv-x="1096" d="M 987 1153 L 987 274 L 109 274 L 109 1153 L 987 1153 Z" unicode="" />
<glyph horiz-adv-x="1200" d="M 600 1286 L 1159 156 L 41 156 L 600 1286 Z" unicode="" />
<glyph horiz-adv-x="1239" d="M 109 1276 L 1239 717 L 109 158 L 109 1276 Z" unicode="" />
<glyph horiz-adv-x="1200" d="M 41 1264 L 1159 1264 L 600 133 L 41 1264 Z" unicode="" />
<glyph horiz-adv-x="1239" d="M 1130 1276 L 1130 158 L 0 717 L 1130 1276 Z" unicode="" />
<glyph horiz-adv-x="993" d="M 612 1386 L 973 707 L 612 0 L 502 0 L 139 707 L 502 1386 L 612 1386 Z M 557 100 L 860 707 L 557 1286 L 250 707 L 557 100 Z" unicode="" />
<glyph horiz-adv-x="1548" d="M 774 1481 C 876 1481 973 1461 1064 1423 C 1154 1384 1233 1331 1300 1265 C 1366 1199 1419 1120 1458 1030 C 1496 940 1516 843 1516 741 C 1516 639 1496 542 1458 452 C 1419 361 1366 282 1300 216 C 1233 149 1154 96 1064 58 C 973 19 876 0 774 0 C 671 0 574 19 484 58 C 394 96 315 149 249 216 C 182 282 129 361 91 452 C 52 542 33 639 33 741 C 33 843 52 940 91 1030 C 129 1120 182 1199 249 1265 C 315 1331 394 1384 484 1423 C 574 1461 671 1481 774 1481 Z" unicode="" />
<glyph horiz-adv-x="1186" d="M 385 1196 C 395 1248 410 1292 429 1328 C 448 1364 473 1392 504 1414 C 535 1436 574 1451 620 1461 C 666 1470 721 1475 786 1475 L 756 1331 C 716 1331 684 1327 658 1321 C 632 1315 612 1305 596 1291 C 580 1277 567 1260 558 1238 C 549 1216 541 1190 535 1159 L 479 909 L 657 909 L 627 770 L 451 770 L 315 137 L 494 137 L 465 0 L -31 0 L -2 137 L 162 137 L 295 770 L 133 770 L 162 909 L 326 909 L 385 1196 Z M 971 1272 L 1169 1272 L 1133 1090 L 932 1090 L 971 1272 Z M 911 137 L 1079 137 L 1051 0 L 575 0 L 604 137 L 756 137 L 891 770 L 737 770 L 768 909 L 1075 909 L 911 137 Z" unicode="" />
<glyph horiz-adv-x="1188" d="M 846 1475 L 1196 1475 L 913 137 L 1081 137 L 1051 0 L 588 0 L 616 137 L 758 137 L 1012 1335 L 831 1335 C 771 1335 722 1331 686 1324 C 650 1316 621 1305 601 1290 C 580 1274 565 1255 556 1232 C 546 1209 538 1182 532 1151 L 479 909 L 668 909 L 637 770 L 451 770 L 315 137 L 494 137 L 465 0 L -31 0 L -2 137 L 162 137 L 295 770 L 133 770 L 162 909 L 326 909 L 381 1178 C 391 1230 406 1274 425 1312 C 443 1349 470 1380 504 1404 C 538 1428 583 1446 638 1458 C 693 1469 762 1475 846 1475 Z" unicode="" />
</font>
</defs>
</svg>
