<?xml version="1.0" encoding="utf-8" ?><svg version="1.1" xmlns = 'http://www.w3.org/2000/svg'><defs><font id='web' horiz-adv-x="1000">
<font-face font-family="web" descent="-208" cap-height="700" units-per-em="1000" bbox="-72,-171,839,997" x-height="500" ascent="792" />
<missing-glyph horiz-adv-x="158" d="" /><glyph horiz-adv-x="158" d="" unicode=" " />
<glyph horiz-adv-x="181" d="M 90 797 C 114 797 129 788 136 771 C 142 754 146 738 146 724 C 146 708 143 679 139 635 C 134 591 129 541 125 485 C 123 465 121 443 120 418 C 118 392 117 367 116 341 C 115 315 114 290 113 266 C 112 242 111 221 111 205 C 111 200 110 197 108 196 C 106 195 100 195 90 195 C 80 195 75 195 73 196 C 71 197 70 200 70 205 C 69 221 68 242 67 266 C 65 290 64 314 63 340 C 62 366 61 391 60 417 C 58 442 57 464 56 484 C 51 541 46 592 41 636 C 36 680 34 710 34 724 C 34 738 37 754 44 771 C 51 788 66 797 90 797 Z M 90 116 C 106 116 121 109 133 97 C 145 84 152 69 152 53 C 152 36 145 21 133 9 C 121 -3 106 -10 90 -10 C 73 -10 58 -3 46 9 C 34 21 28 36 28 53 C 28 69 34 84 46 97 C 58 109 73 116 90 116 Z" unicode="!" />
<glyph horiz-adv-x="290" d="M 209 797 C 219 797 230 792 240 784 C 250 775 256 761 256 743 C 256 737 254 728 252 716 C 250 704 247 690 244 674 C 240 658 237 640 234 622 C 230 604 228 585 226 567 C 225 564 223 561 221 559 C 218 557 214 556 209 556 C 203 556 199 557 196 559 C 193 561 191 564 191 567 C 189 585 186 604 183 622 C 179 640 176 658 173 674 C 170 690 167 704 165 716 C 163 728 162 737 162 743 C 162 761 167 775 177 784 C 187 792 198 797 209 797 Z M 82 797 C 92 797 103 792 113 784 C 123 775 128 761 128 743 C 128 737 126 728 124 716 C 122 704 119 690 116 674 C 113 658 110 640 107 622 C 103 604 101 585 99 567 C 98 564 96 561 94 559 C 91 557 87 556 81 556 C 76 556 72 557 69 559 C 66 561 64 564 64 567 C 62 585 59 604 56 622 C 52 640 49 658 46 674 C 42 690 39 704 37 716 C 35 728 34 737 34 743 C 34 761 39 775 50 784 C 60 792 71 797 82 797 Z" unicode="&#x22;" />
<glyph horiz-adv-x="420" d="M 308 499 L 393 499 L 383 419 L 299 419 L 278 264 L 364 264 L 354 184 L 268 184 L 243 -9 L 203 -9 L 228 184 L 151 184 L 126 -9 L 85 -9 L 110 184 L 27 184 L 37 264 L 120 264 L 140 419 L 55 419 L 65 499 L 150 499 L 175 685 L 215 685 L 191 499 L 267 499 L 292 685 L 333 685 L 308 499 Z M 238 264 L 258 419 L 181 419 L 161 264 L 238 264 Z" unicode="#" />
<glyph horiz-adv-x="332" d="M 227 409 C 246 389 265 363 284 331 C 302 299 312 258 312 206 C 312 156 299 113 274 78 C 248 42 217 20 181 12 L 181 -95 L 147 -95 L 147 8 C 109 8 76 21 49 45 C 22 69 9 102 9 144 C 9 163 13 178 22 189 C 31 199 43 205 58 205 C 71 205 82 200 90 190 C 98 180 103 167 103 151 C 103 142 100 133 96 125 C 91 116 85 109 79 104 C 80 94 86 84 98 76 C 109 67 125 63 146 63 L 146 353 C 138 360 130 367 123 374 C 115 380 109 387 103 393 C 76 420 56 449 43 479 C 29 509 23 539 23 571 C 23 593 26 614 32 635 C 38 656 46 675 57 692 C 68 709 81 724 97 736 C 113 748 130 756 149 761 L 149 802 L 183 802 L 183 765 C 223 764 255 751 278 727 C 300 703 312 675 312 643 C 312 623 306 608 296 598 C 286 587 273 582 259 582 C 246 582 235 587 227 598 C 219 608 215 622 215 638 C 215 646 217 655 222 663 C 226 671 232 677 239 683 C 236 689 231 695 224 703 C 216 710 203 714 184 714 L 184 453 C 192 444 200 436 208 428 C 216 420 222 413 227 409 Z M 144 485 C 144 484 145 483 146 483 C 147 482 148 481 149 481 L 149 709 C 134 701 121 688 110 670 C 99 652 94 631 94 606 C 94 584 97 562 105 542 C 112 521 125 502 144 485 Z M 180 68 C 190 72 199 79 207 89 C 214 99 220 109 225 120 C 229 131 233 142 235 154 C 237 165 238 175 238 184 C 238 210 233 234 224 258 C 215 281 202 302 185 320 C 184 320 183 321 182 322 C 181 323 180 324 180 325 L 180 68 Z" unicode="$" />
<glyph horiz-adv-x="605" d="M 142 797 C 162 797 180 790 194 777 C 208 764 220 747 230 725 C 239 703 246 677 250 647 C 254 617 257 586 257 554 C 257 521 255 490 251 461 C 247 431 240 406 231 384 C 222 362 210 345 195 332 C 180 319 162 313 141 313 C 121 313 104 319 90 332 C 76 345 64 363 55 385 C 45 407 38 432 34 462 C 30 492 28 523 28 556 C 28 588 30 619 34 648 C 38 677 44 703 53 725 C 62 747 74 764 89 777 C 103 790 121 797 142 797 Z M 419 787 L 472 787 L 184 0 L 131 0 L 419 787 Z M 141 358 C 147 358 153 361 158 367 C 162 373 166 383 170 398 C 173 412 175 432 177 458 C 179 484 180 516 180 556 C 180 631 176 682 170 710 C 164 738 154 752 142 752 C 129 752 120 738 114 710 C 108 682 105 631 105 556 C 105 516 105 484 107 458 C 109 432 111 412 114 398 C 116 383 120 373 125 367 C 129 361 135 358 141 358 Z M 462 477 C 482 477 500 470 514 457 C 528 444 540 427 550 405 C 559 383 566 357 570 327 C 574 297 577 266 577 234 C 577 201 575 170 571 141 C 567 111 560 86 551 64 C 541 42 529 25 515 12 C 500 0 482 -7 461 -7 C 441 -7 424 0 410 12 C 395 25 383 43 374 65 C 364 87 357 112 353 142 C 349 172 347 203 347 236 C 347 268 349 299 353 328 C 357 357 363 383 373 405 C 382 427 394 444 409 457 C 423 470 441 477 462 477 Z M 461 38 C 467 38 473 41 478 47 C 482 53 486 63 489 78 C 492 92 494 112 496 138 C 498 164 499 196 499 236 C 499 311 496 362 490 390 C 484 418 474 432 462 432 C 449 432 440 418 434 390 C 428 362 425 311 425 236 C 425 196 425 164 427 138 C 428 112 430 92 433 78 C 436 63 440 53 445 47 C 449 41 455 38 461 38 Z" unicode="%" />
<glyph horiz-adv-x="419" d="M 413 48 C 413 46 414 45 414 43 C 414 41 414 40 414 40 C 414 37 413 34 412 32 C 410 30 409 27 407 24 C 400 15 392 8 383 2 C 374 -4 364 -7 353 -7 C 332 -7 315 0 301 12 C 287 24 275 40 264 60 C 255 42 241 26 223 12 C 204 -2 185 -10 166 -10 C 140 -10 119 -4 101 7 C 83 18 68 33 56 52 C 44 71 36 93 31 118 C 25 143 23 169 23 197 C 23 229 26 258 33 283 C 39 308 47 330 57 349 C 67 368 77 384 89 398 C 100 411 110 422 119 432 C 109 463 101 494 95 525 C 89 556 86 585 86 612 C 86 678 98 725 122 754 C 146 782 174 797 206 797 C 234 797 258 785 278 761 C 298 737 308 698 308 645 C 308 605 299 568 281 533 C 263 498 236 466 201 437 C 203 425 208 408 214 388 C 220 368 228 346 236 324 C 244 302 252 279 260 257 C 268 235 276 216 283 201 C 289 215 295 235 300 261 C 305 286 308 309 308 329 C 308 341 305 351 301 359 C 296 367 288 373 277 378 C 273 379 271 381 269 385 C 267 389 267 393 267 398 L 267 429 L 406 429 L 406 398 C 406 393 405 389 404 385 C 402 381 400 379 396 378 C 387 374 379 368 372 359 C 365 349 360 336 357 318 C 352 294 345 265 337 233 C 329 200 319 172 309 149 C 327 111 344 87 358 77 C 372 67 384 63 395 63 C 395 63 397 63 399 63 C 401 63 403 64 404 64 C 406 64 407 63 409 61 C 410 59 411 54 413 48 Z M 185 485 C 203 501 216 523 224 553 C 231 583 235 610 235 636 C 235 670 231 696 225 714 C 218 732 209 742 197 742 C 184 742 175 735 169 721 C 163 707 160 684 160 653 C 160 639 160 624 162 608 C 164 592 166 576 168 561 C 170 545 173 531 176 518 C 179 504 182 493 185 485 Z M 194 73 C 202 73 210 76 219 82 C 228 88 234 95 237 101 C 231 113 223 131 214 153 C 204 175 195 199 185 225 C 175 251 166 277 157 305 C 147 333 140 358 134 382 C 120 363 112 339 109 311 C 105 282 104 255 104 230 C 104 212 105 194 108 176 C 110 157 115 140 122 125 C 129 109 138 97 150 87 C 162 77 176 73 194 73 Z" unicode="&#x26;" />
<glyph horiz-adv-x="163" d="M 82 797 C 92 797 103 792 113 784 C 123 775 128 761 128 743 C 128 737 126 728 124 716 C 122 704 119 690 116 674 C 113 658 110 640 107 622 C 103 604 101 585 99 567 C 98 564 96 561 94 559 C 91 557 87 556 81 556 C 76 556 72 557 69 559 C 66 561 64 564 64 567 C 62 585 59 604 56 622 C 52 640 49 658 46 674 C 42 690 39 704 37 716 C 35 728 34 737 34 743 C 34 761 39 775 50 784 C 60 792 71 797 82 797 Z" unicode="'" />
<glyph horiz-adv-x="213" d="M 193 -59 L 193 -105 C 164 -105 139 -93 118 -69 C 96 -45 79 -12 65 28 C 51 68 41 116 35 170 C 28 224 25 281 25 341 C 25 401 28 458 35 512 C 41 566 51 613 65 654 C 79 694 96 727 118 751 C 139 775 164 787 193 787 L 193 741 C 168 741 150 709 138 647 C 126 585 120 483 120 341 C 120 267 121 205 125 154 C 128 102 133 61 139 30 C 145 -1 152 -24 161 -38 C 170 -52 181 -59 193 -59 Z" unicode="(" />
<glyph horiz-adv-x="213" d="M 21 787 C 49 787 74 775 96 751 C 117 727 134 694 148 654 C 161 613 171 566 178 512 C 184 458 188 401 188 341 C 188 281 184 224 178 170 C 171 116 161 68 148 28 C 134 -12 117 -45 96 -69 C 74 -93 49 -105 21 -105 L 21 -59 C 32 -59 42 -52 51 -38 C 60 -24 68 -1 74 30 C 80 61 84 102 88 154 C 91 205 93 267 93 341 C 93 483 87 585 75 647 C 63 709 45 741 21 741 L 21 787 Z" unicode=")" />
<glyph horiz-adv-x="355" d="M 295 619 C 300 615 304 611 308 606 C 311 600 313 595 313 589 C 313 579 310 571 304 565 C 298 559 289 556 279 556 C 271 556 264 557 257 561 C 249 565 242 572 236 582 C 232 588 226 595 218 604 C 210 612 200 620 188 628 C 188 614 190 602 193 594 C 195 585 198 577 202 570 C 204 565 207 559 209 553 C 211 547 212 539 212 531 C 212 520 208 511 202 505 C 196 499 188 496 178 496 C 168 496 160 499 153 505 C 146 511 143 520 143 531 C 143 539 144 547 146 553 C 148 559 150 565 153 570 C 156 577 159 585 162 594 C 164 602 166 614 167 628 C 154 620 144 612 136 604 C 128 595 123 588 120 582 C 113 572 106 565 98 561 C 90 557 83 556 77 556 C 66 556 57 559 51 565 C 45 571 42 579 42 589 C 42 595 43 600 47 606 C 50 611 54 615 60 619 C 67 623 74 626 81 627 C 88 628 94 629 100 630 C 110 630 118 631 126 633 C 133 635 143 639 156 647 C 143 653 133 658 125 660 C 117 662 109 663 100 664 C 92 664 85 665 79 666 C 73 667 67 670 60 674 C 54 677 50 681 47 687 C 43 692 42 698 42 704 C 42 714 45 722 51 728 C 57 734 66 738 77 738 C 83 738 90 736 98 732 C 106 728 113 722 120 712 C 123 706 128 698 136 690 C 144 681 154 673 167 667 C 166 680 164 691 162 700 C 159 708 156 716 153 723 C 150 728 148 734 146 740 C 144 746 143 753 143 762 C 143 772 146 781 153 787 C 160 793 168 797 178 797 C 188 797 196 793 202 787 C 208 781 212 772 212 762 C 212 753 211 746 209 740 C 207 734 204 728 202 723 C 198 716 195 708 193 700 C 190 691 188 680 188 667 C 200 673 210 681 218 690 C 226 698 232 706 236 712 C 242 722 249 728 257 732 C 264 736 271 738 279 738 C 289 738 298 734 304 728 C 310 722 313 714 313 704 C 313 698 311 692 308 687 C 304 681 300 677 295 674 C 287 670 281 667 275 666 C 269 665 263 664 255 664 C 245 663 237 662 229 660 C 221 658 212 653 200 647 C 212 639 221 635 229 633 C 237 631 245 630 255 630 C 261 629 268 628 274 627 C 280 626 287 623 295 619 Z" unicode="*" />
<glyph horiz-adv-x="478" d="M 432 357 L 432 296 L 271 296 L 271 132 L 207 132 L 207 296 L 46 296 L 46 357 L 207 357 L 207 521 L 271 521 L 271 357 L 432 357 Z" unicode="+" />
<glyph horiz-adv-x="171" d="M 86 115 C 103 115 118 108 130 95 C 142 82 148 63 148 38 C 148 19 145 1 139 -14 C 133 -30 125 -45 116 -58 C 106 -71 96 -83 85 -93 C 73 -103 62 -110 52 -116 C 48 -118 43 -119 39 -121 C 35 -123 32 -124 30 -124 C 27 -124 25 -123 23 -122 C 21 -121 19 -119 19 -117 C 17 -114 16 -112 15 -110 C 14 -108 14 -107 14 -105 C 14 -102 15 -100 17 -98 C 19 -96 21 -95 23 -94 C 41 -82 55 -67 65 -50 C 75 -32 80 -16 80 -2 C 66 0 54 5 42 14 C 30 22 24 36 24 56 C 24 72 30 86 43 98 C 56 109 70 115 86 115 Z" unicode="," />
<glyph horiz-adv-x="181" d="M 157 297 L 157 221 L 24 221 L 24 297 L 157 297 Z" unicode="-" />
<glyph horiz-adv-x="171" d="M 86 116 C 102 116 117 109 129 97 C 141 84 148 69 148 53 C 148 36 141 21 129 9 C 117 -3 102 -10 86 -10 C 69 -10 54 -3 42 9 C 30 21 24 36 24 53 C 24 69 30 84 42 97 C 54 109 69 116 86 116 Z" unicode="." />
<glyph horiz-adv-x="249" d="M 202 787 L 258 787 L -3 -164 L -59 -164 L 202 787 Z" unicode="/" />
<glyph horiz-adv-x="359" d="M 180 797 C 208 797 231 786 251 764 C 271 742 287 712 300 675 C 312 638 321 595 327 546 C 333 496 336 445 336 391 C 336 337 333 285 327 236 C 321 187 312 144 300 108 C 288 72 272 43 252 22 C 232 0 207 -10 179 -10 C 151 -10 128 0 108 22 C 88 44 71 73 59 110 C 47 146 38 189 32 239 C 26 288 23 340 23 394 C 23 448 25 499 31 548 C 37 597 46 640 58 677 C 70 713 87 742 107 764 C 127 786 151 797 180 797 Z M 178 45 C 189 45 199 50 207 60 C 215 70 221 89 227 115 C 232 141 236 176 238 222 C 240 268 242 325 242 395 C 242 462 240 518 238 563 C 236 607 232 643 227 669 C 221 695 215 714 207 725 C 199 736 189 742 179 742 C 168 742 159 736 151 725 C 143 714 137 695 132 669 C 127 643 123 607 121 563 C 119 518 118 462 118 395 C 118 325 119 268 121 222 C 123 176 127 141 132 115 C 136 89 142 70 150 60 C 158 50 167 45 178 45 Z" unicode="0" />
<glyph horiz-adv-x="221" d="M 208 29 L 208 0 L 17 0 L 17 30 C 17 34 17 38 19 42 C 21 46 24 48 28 49 C 44 53 55 58 62 66 C 68 74 72 89 72 111 L 72 674 C 72 680 71 684 69 686 C 67 688 64 689 60 689 L 5 689 L 5 722 C 5 726 5 729 7 732 C 9 735 11 737 14 739 L 104 782 C 107 783 110 784 114 785 C 117 786 120 787 123 787 L 158 787 L 158 111 C 158 89 159 75 163 69 C 167 62 177 56 193 51 C 198 49 202 46 204 42 C 206 38 208 34 208 29 Z" unicode="1" />
<glyph horiz-adv-x="316" d="M 147 797 C 173 797 196 792 215 782 C 233 772 248 758 260 741 C 272 724 280 704 286 682 C 292 659 295 635 295 611 C 295 551 284 497 262 451 C 240 404 211 354 175 301 C 164 285 153 267 141 249 C 129 231 119 212 109 194 C 99 175 91 157 83 140 C 75 122 70 107 67 94 L 190 94 C 210 94 224 98 232 106 C 240 114 247 130 252 156 C 253 163 254 168 256 170 C 257 172 260 173 265 173 L 294 173 L 294 10 C 294 2 293 -1 293 -3 C 293 -4 291 -5 289 -5 C 285 -5 280 -4 273 -2 C 265 0 255 0 243 0 L 4 0 L 4 57 C 4 65 6 78 12 96 C 18 114 25 134 33 156 C 41 177 51 199 61 221 C 71 243 80 261 89 276 C 125 338 152 398 172 454 C 191 510 201 562 201 611 C 201 650 195 682 185 706 C 175 730 160 743 142 743 C 125 743 113 737 106 727 C 98 717 95 707 95 698 C 100 694 105 688 111 678 C 116 668 119 659 119 649 C 119 631 114 617 104 605 C 94 593 81 587 67 587 C 50 587 37 594 27 609 C 17 623 13 639 13 656 C 13 671 15 687 21 704 C 27 720 35 735 47 749 C 58 763 72 774 89 783 C 106 792 125 797 147 797 Z" unicode="2" />
<glyph horiz-adv-x="311" d="M 175 432 C 205 421 233 399 257 366 C 281 333 293 288 293 231 C 293 199 289 168 282 139 C 274 110 264 84 250 62 C 236 40 218 22 197 9 C 175 -3 151 -10 123 -10 C 104 -10 87 -6 72 1 C 57 8 44 18 34 30 C 23 42 15 56 9 72 C 3 88 1 104 1 121 C 1 139 6 155 16 167 C 26 179 37 185 50 185 C 64 185 76 180 86 170 C 96 160 101 147 101 131 C 101 125 99 118 95 108 C 91 98 85 90 77 84 C 77 72 82 63 91 55 C 100 47 111 44 124 44 C 153 44 173 62 183 99 C 193 135 199 184 199 245 C 199 301 190 342 173 366 C 156 390 130 402 96 404 L 96 458 C 134 458 160 471 176 497 C 191 522 199 562 199 616 C 199 654 194 684 186 708 C 178 731 163 743 141 743 C 132 743 123 740 114 736 C 105 731 99 723 97 713 C 103 706 109 699 113 691 C 117 683 119 674 119 666 C 119 650 114 637 105 627 C 95 617 85 613 73 613 C 59 613 48 618 38 628 C 28 638 23 652 23 672 C 23 690 26 706 33 722 C 40 737 49 750 61 761 C 73 772 86 781 101 787 C 115 793 130 797 146 797 C 164 797 181 793 198 786 C 215 779 230 768 244 754 C 257 740 268 722 276 701 C 284 679 288 654 288 626 C 288 576 276 533 254 499 C 231 465 205 442 175 432 Z" unicode="3" />
<glyph horiz-adv-x="319" d="M 315 241 L 315 179 L 259 179 L 259 88 C 259 77 259 69 261 63 C 263 57 269 53 279 49 C 283 47 285 45 287 41 C 288 37 289 33 289 29 L 289 0 L 144 0 L 144 29 C 144 33 144 37 146 41 C 148 45 151 47 155 49 C 164 53 170 57 172 63 C 174 69 175 77 175 88 L 175 179 L 3 179 L 3 229 C 3 235 3 240 4 244 C 5 248 7 253 9 259 L 199 779 C 199 781 201 783 203 785 C 205 786 207 787 210 787 L 259 787 L 259 241 L 315 241 Z M 174 489 C 174 494 174 502 174 512 C 174 522 175 533 175 545 C 175 557 176 568 177 580 C 177 591 178 601 178 609 C 176 604 174 596 171 586 C 167 575 164 564 161 553 C 157 541 154 531 151 521 C 148 511 146 505 145 502 L 58 256 C 57 253 56 251 56 250 C 55 248 55 247 55 246 C 55 244 55 243 57 242 C 58 241 60 241 64 241 L 174 241 L 174 489 Z" unicode="4" />
<glyph horiz-adv-x="304" d="M 149 492 C 171 492 191 485 209 473 C 226 461 240 444 252 423 C 263 402 272 377 278 348 C 284 318 287 287 287 254 C 287 215 283 179 275 147 C 267 115 255 87 241 64 C 227 40 210 22 190 9 C 170 -3 149 -10 126 -10 C 107 -10 90 -6 75 1 C 60 8 47 18 37 30 C 27 42 19 56 13 72 C 7 88 5 104 5 121 C 5 139 10 155 20 167 C 30 179 41 185 54 185 C 68 185 80 180 90 170 C 99 160 104 147 104 131 C 104 125 102 118 99 108 C 95 98 89 90 81 84 C 81 72 86 63 95 55 C 103 47 113 44 124 44 C 153 44 172 62 181 99 C 189 135 194 181 194 236 C 194 300 187 347 174 375 C 161 403 138 418 106 418 C 97 418 88 415 78 409 C 68 403 62 397 60 393 C 59 392 58 391 57 391 C 56 391 55 391 55 391 C 54 391 53 391 52 391 C 50 391 49 392 49 393 C 48 393 46 394 44 396 C 41 398 38 400 36 402 C 34 403 32 405 32 407 C 31 409 31 412 31 417 C 31 440 32 466 34 495 C 36 524 37 554 39 586 C 41 618 42 651 44 685 C 46 719 47 752 48 786 L 217 786 L 230 811 C 230 813 231 815 233 816 C 235 816 237 817 239 817 L 264 817 L 254 685 L 94 685 C 93 670 92 652 91 632 C 90 611 89 590 88 569 C 87 547 86 527 85 507 C 84 487 83 472 83 460 C 89 469 99 477 112 483 C 124 489 137 492 149 492 Z" unicode="5" />
<glyph horiz-adv-x="344" d="M 207 493 C 241 493 270 472 293 432 C 315 392 327 339 327 275 C 327 233 323 195 316 160 C 308 124 298 94 285 69 C 271 44 255 25 237 11 C 218 -3 197 -10 175 -10 C 143 -10 117 1 97 25 C 77 49 61 79 51 117 C 40 154 33 196 29 243 C 25 289 23 335 23 381 C 23 435 27 488 35 539 C 43 589 56 634 72 672 C 88 710 108 740 133 763 C 157 785 186 797 218 797 C 244 797 267 788 285 771 C 303 753 313 729 313 697 C 313 680 307 666 297 654 C 287 642 275 637 263 637 C 249 637 237 642 227 652 C 217 662 212 676 212 693 C 212 698 213 704 215 712 C 217 719 220 724 223 728 C 223 731 221 734 218 738 C 215 741 210 743 204 743 C 188 743 175 735 164 719 C 152 703 143 680 136 652 C 128 624 123 590 120 551 C 116 511 115 468 115 422 C 117 428 121 435 127 443 C 133 451 140 458 148 466 C 156 473 165 479 175 485 C 185 490 195 493 207 493 Z M 174 45 C 197 45 213 65 222 107 C 230 149 235 204 235 272 C 235 322 229 358 218 378 C 206 398 192 409 175 409 C 162 409 151 405 141 397 C 131 389 122 380 116 372 C 116 308 117 254 119 212 C 121 170 124 136 128 112 C 132 87 138 70 146 60 C 153 50 162 45 174 45 Z" unicode="6" />
<glyph horiz-adv-x="306" d="M 297 786 L 297 736 C 297 727 296 719 295 712 C 293 705 291 698 289 690 C 251 585 221 485 201 389 C 180 293 170 187 170 73 C 170 43 165 22 157 10 C 148 -1 135 -8 118 -8 C 102 -8 89 0 81 14 C 73 28 69 47 69 71 C 69 113 74 158 84 205 C 94 252 108 309 128 377 C 133 396 140 420 150 449 C 160 478 170 508 181 539 C 192 569 203 599 213 627 C 223 655 231 677 238 695 L 114 695 C 94 695 79 691 71 683 C 63 675 56 659 52 634 C 50 626 49 622 47 620 C 45 618 42 617 38 617 L 9 617 L 9 776 C 9 782 9 786 10 788 C 10 790 12 791 15 791 C 16 791 21 790 30 788 C 39 786 49 786 61 786 L 297 786 Z" unicode="7" />
<glyph horiz-adv-x="331" d="M 216 438 C 245 401 269 366 288 332 C 307 298 317 255 317 201 C 317 173 313 147 305 122 C 297 96 287 74 274 54 C 260 34 244 19 226 7 C 207 -5 187 -11 165 -11 C 141 -11 120 -6 101 3 C 82 13 66 26 54 43 C 41 59 31 79 24 102 C 17 125 14 149 14 175 C 14 201 17 225 24 248 C 30 270 39 291 49 310 C 59 328 70 345 82 361 C 94 376 106 389 118 400 C 93 430 73 462 58 494 C 43 526 36 562 36 602 C 36 628 39 654 46 678 C 53 702 63 722 75 740 C 87 758 102 772 120 782 C 138 792 157 798 178 798 C 198 798 215 793 231 785 C 247 777 260 765 271 751 C 282 737 290 720 296 702 C 302 683 305 664 305 644 C 305 596 295 556 276 522 C 256 488 236 460 216 438 Z M 188 470 C 205 492 217 515 225 541 C 232 567 236 597 236 631 C 236 644 234 657 232 671 C 230 684 226 696 221 707 C 216 717 209 726 201 733 C 193 739 183 743 172 743 C 151 743 135 733 124 714 C 112 695 107 673 107 649 C 107 608 114 576 128 552 C 142 528 162 500 188 470 Z M 163 44 C 189 44 209 55 222 79 C 235 102 242 130 242 162 C 242 203 233 239 215 270 C 197 300 173 333 144 369 C 126 345 111 319 101 289 C 91 259 86 224 86 184 C 86 144 92 110 104 84 C 116 57 136 44 163 44 Z" unicode="8" />
<glyph horiz-adv-x="344" d="M 170 797 C 202 797 227 785 247 761 C 267 737 282 707 293 670 C 304 632 311 590 315 544 C 319 497 321 451 321 406 C 321 351 316 298 308 248 C 300 197 288 153 272 115 C 256 77 235 46 211 24 C 186 1 158 -10 126 -10 C 99 -10 76 0 58 17 C 40 35 31 60 31 90 C 31 106 36 120 46 132 C 56 144 67 150 80 150 C 94 150 106 145 116 135 C 126 125 131 111 131 95 C 131 89 129 83 127 75 C 124 67 122 62 120 59 C 120 55 121 52 124 49 C 127 45 132 44 140 44 C 155 44 168 51 180 67 C 191 83 200 105 208 133 C 215 161 220 194 224 234 C 227 273 229 316 229 363 C 226 357 222 350 216 342 C 210 334 202 327 194 320 C 186 312 176 306 166 301 C 156 296 145 294 134 294 C 99 294 71 314 49 356 C 27 398 17 452 17 518 C 17 602 31 670 59 721 C 87 771 124 797 170 797 Z M 168 378 C 180 378 192 381 202 389 C 212 396 221 404 228 413 C 228 477 227 530 225 573 C 223 615 219 649 215 674 C 211 699 205 717 198 727 C 190 737 181 742 170 742 C 146 742 130 722 122 682 C 113 642 109 589 109 525 C 109 469 114 431 125 410 C 136 388 150 378 168 378 Z" unicode="9" />
<glyph horiz-adv-x="192" d="M 96 482 C 112 482 127 475 139 463 C 151 450 158 435 158 419 C 158 402 151 387 139 375 C 127 362 112 356 96 356 C 79 356 64 362 52 375 C 40 387 34 402 34 419 C 34 435 40 450 52 463 C 64 475 79 482 96 482 Z M 96 116 C 112 116 127 109 139 97 C 151 84 158 69 158 53 C 158 36 151 21 139 9 C 127 -3 112 -10 96 -10 C 79 -10 64 -3 52 9 C 40 21 34 36 34 53 C 34 69 40 84 52 97 C 64 109 79 116 96 116 Z" unicode=":" />
<glyph horiz-adv-x="192" d="M 96 482 C 112 482 127 475 139 463 C 151 450 158 435 158 419 C 158 402 151 387 139 375 C 127 362 112 356 96 356 C 79 356 64 362 52 375 C 40 387 34 402 34 419 C 34 435 40 450 52 463 C 64 475 79 482 96 482 Z M 96 115 C 113 115 128 108 140 95 C 152 82 158 63 158 38 C 158 19 155 1 149 -14 C 143 -30 135 -45 126 -58 C 116 -71 106 -83 95 -93 C 83 -103 72 -110 62 -116 C 58 -118 53 -119 49 -121 C 45 -123 42 -124 40 -124 C 37 -124 35 -123 33 -122 C 31 -121 29 -119 29 -117 C 27 -114 26 -112 25 -110 C 24 -108 24 -107 24 -105 C 24 -102 25 -100 27 -98 C 29 -96 31 -95 33 -94 C 51 -82 65 -67 75 -50 C 85 -32 90 -16 90 -2 C 76 0 64 5 52 14 C 40 22 34 36 34 56 C 34 72 40 86 53 98 C 66 109 80 115 96 115 Z" unicode=";" />
<glyph horiz-adv-x="478" d="M 430 163 L 430 93 L 48 295 L 48 357 L 430 559 L 430 489 L 116 326 L 430 163 Z" unicode="&#x3C;" />
<glyph horiz-adv-x="478" d="M 429 423 L 429 360 L 49 360 L 49 423 L 429 423 Z M 429 261 L 429 198 L 49 198 L 49 261 L 429 261 Z" unicode="=" />
<glyph horiz-adv-x="478" d="M 430 357 L 430 295 L 48 93 L 48 163 L 362 326 L 48 489 L 48 559 L 430 357 Z" unicode="&#x3E;" />
<glyph horiz-adv-x="306" d="M 149 797 C 166 797 183 794 200 788 C 216 782 231 772 244 759 C 256 745 266 728 274 707 C 282 686 286 661 286 632 C 286 598 278 565 264 534 C 250 502 231 468 209 430 C 191 398 177 366 168 334 C 158 301 153 271 151 244 C 150 236 150 229 150 223 C 150 216 149 210 149 206 C 148 201 147 198 145 197 C 143 195 137 195 128 195 C 118 195 113 195 111 197 C 109 198 107 201 107 206 C 106 216 105 226 105 236 C 104 246 104 255 104 265 C 104 309 108 348 118 384 C 128 419 139 453 153 485 C 163 510 173 537 181 565 C 189 593 193 618 193 640 C 193 674 188 699 180 716 C 171 733 159 742 144 742 C 132 742 122 739 115 733 C 108 727 102 720 98 711 C 104 705 109 698 113 690 C 117 681 119 672 119 664 C 119 648 114 635 104 625 C 94 615 83 611 71 611 C 56 611 44 616 35 626 C 25 636 21 651 21 671 C 21 689 24 705 32 721 C 39 736 48 749 60 761 C 72 772 85 781 101 787 C 117 793 133 797 149 797 Z M 126 116 C 142 116 157 109 169 97 C 181 84 188 69 188 53 C 188 36 181 21 169 9 C 157 -3 142 -10 126 -10 C 109 -10 94 -3 82 9 C 70 21 64 36 64 53 C 64 69 70 84 82 97 C 94 109 109 116 126 116 Z" unicode="?" />
<glyph horiz-adv-x="627" d="M 366 658 C 401 658 433 650 462 636 C 490 622 515 602 535 577 C 555 551 570 520 581 484 C 592 448 598 408 598 364 C 598 322 593 280 583 240 C 573 199 560 163 543 131 C 526 99 506 74 482 55 C 458 35 433 26 405 26 C 386 26 373 32 365 46 C 357 59 353 74 351 90 C 337 72 324 58 310 47 C 296 36 279 31 260 31 C 233 31 212 43 198 67 C 184 91 177 125 177 169 C 177 211 184 254 198 297 C 212 339 232 377 258 410 C 276 434 295 451 315 462 C 335 472 354 478 373 478 C 386 478 397 475 407 470 C 416 465 424 457 431 445 L 470 471 L 495 471 L 436 179 C 434 168 432 157 430 145 C 428 133 427 123 427 115 C 427 106 427 99 428 95 C 429 91 432 89 437 89 C 451 89 466 97 480 113 C 494 129 506 151 517 177 C 527 203 536 234 543 268 C 549 302 553 336 553 371 C 553 404 549 435 541 465 C 533 494 521 519 506 540 C 490 561 471 578 449 590 C 426 602 400 609 372 609 C 334 609 299 598 267 576 C 234 554 206 524 182 487 C 158 449 140 405 126 355 C 112 305 106 252 106 196 C 106 104 124 30 162 -24 C 200 -78 250 -106 314 -106 C 350 -106 384 -99 416 -85 C 448 -71 478 -49 508 -20 L 524 -62 C 490 -94 456 -118 420 -134 C 384 -149 348 -157 312 -157 C 270 -157 233 -148 199 -131 C 165 -113 137 -89 114 -58 C 90 -26 72 11 59 55 C 46 99 40 149 40 203 C 40 263 48 320 66 376 C 83 431 106 479 136 521 C 165 563 199 596 239 621 C 279 645 321 658 366 658 Z M 383 313 C 384 318 385 325 387 333 C 389 341 390 350 392 358 C 394 366 395 374 396 382 C 397 390 398 396 398 400 C 398 410 395 418 391 423 C 387 428 382 431 376 431 C 365 431 355 427 345 419 C 335 411 325 397 315 379 C 307 364 299 347 293 329 C 287 310 281 291 277 272 C 272 252 268 233 266 214 C 263 195 262 178 262 164 C 262 141 264 125 270 115 C 275 105 284 101 297 101 C 303 101 311 104 320 111 C 329 117 337 127 345 139 L 383 313 Z" unicode="@" />
<glyph horiz-adv-x="365" d="M 360 31 L 360 0 L 212 0 L 212 29 C 212 33 212 37 214 41 C 216 45 218 47 221 49 C 229 52 234 55 236 59 C 237 62 238 65 238 69 C 238 71 237 75 237 81 C 237 87 236 91 236 95 L 218 209 L 112 209 L 95 92 C 94 89 93 85 93 81 C 92 76 92 73 92 73 C 92 67 94 63 98 59 C 102 55 108 52 116 49 C 119 47 121 45 123 41 C 125 37 126 33 126 29 L 126 0 L 3 0 L 3 31 C 3 36 4 40 6 43 C 8 45 11 48 16 51 C 21 53 25 56 29 59 C 32 61 35 68 37 79 L 137 688 L 128 737 C 127 738 126 740 126 742 C 126 744 126 745 126 746 C 126 748 126 749 128 751 C 129 752 130 753 132 754 L 196 795 C 197 795 198 796 200 797 C 201 797 202 798 203 798 C 206 798 209 795 211 791 C 213 786 214 781 215 777 L 325 79 C 326 69 329 63 333 59 C 337 55 341 53 346 51 C 350 49 354 46 356 43 C 358 39 360 35 360 31 Z M 121 269 L 209 269 L 176 500 C 174 510 172 523 170 540 C 168 556 166 574 165 593 C 163 575 161 557 159 539 C 157 521 155 508 154 500 L 121 269 Z" unicode="A" />
<glyph horiz-adv-x="361" d="M 225 403 C 238 399 252 392 266 383 C 280 374 293 362 305 346 C 317 330 326 311 334 288 C 341 264 345 237 345 206 C 345 176 341 149 333 123 C 325 97 313 75 297 57 C 281 39 260 24 236 14 C 212 4 183 -1 150 -1 C 125 -1 100 0 74 0 C 48 0 30 0 20 0 L 20 29 C 20 33 20 37 22 41 C 23 45 25 47 29 49 C 39 53 44 57 46 63 C 48 69 49 77 49 88 L 49 699 C 49 709 48 717 46 723 C 44 729 39 734 29 738 C 25 739 23 741 22 745 C 20 749 20 753 20 758 L 20 787 C 32 787 48 787 70 787 C 92 787 113 788 133 788 C 193 788 241 772 277 742 C 313 712 332 664 332 598 C 332 566 328 539 322 517 C 316 495 307 476 297 461 C 287 446 275 434 263 425 C 250 416 237 409 225 403 Z M 149 429 C 179 429 201 441 217 466 C 232 490 240 531 240 588 C 240 643 230 680 211 699 C 191 718 172 728 153 728 L 137 728 L 137 429 L 149 429 Z M 159 59 C 182 59 203 69 221 91 C 239 113 249 152 249 208 C 249 270 240 312 222 336 C 204 359 181 371 155 371 L 137 371 L 137 59 L 159 59 Z" unicode="B" />
<glyph horiz-adv-x="318" d="M 300 196 C 302 196 303 195 304 194 C 304 193 305 190 305 186 C 305 166 303 144 299 121 C 295 98 288 77 278 58 C 268 38 256 22 240 9 C 224 -3 205 -10 182 -10 C 151 -10 125 2 105 26 C 85 50 68 80 56 117 C 44 154 35 195 30 241 C 24 286 22 330 22 374 C 22 516 35 622 63 692 C 91 762 130 797 182 797 C 196 797 208 794 218 790 C 228 785 237 780 243 775 C 243 774 244 773 246 772 C 248 771 249 771 250 771 C 251 771 252 771 253 772 C 254 772 255 773 256 775 C 257 776 258 777 259 778 C 260 779 262 780 265 780 L 298 780 L 298 578 L 272 578 C 266 578 262 579 260 581 C 258 583 257 586 257 591 C 249 637 240 673 229 701 C 218 728 202 742 181 742 C 171 742 162 736 154 725 C 146 713 139 694 134 668 C 128 641 124 605 122 561 C 119 516 118 461 118 395 C 118 273 123 186 133 136 C 143 86 162 61 192 61 C 204 61 215 66 223 76 C 231 86 238 99 243 114 C 248 128 252 144 254 160 C 256 176 258 189 258 201 L 300 196 Z" unicode="C" />
<glyph horiz-adv-x="369" d="M 118 788 C 163 788 200 778 230 758 C 260 738 283 711 300 677 C 317 643 329 602 336 556 C 343 510 347 461 347 409 C 347 349 343 293 336 243 C 328 193 316 150 298 114 C 280 78 257 49 227 29 C 197 9 161 -1 117 -1 C 104 -1 88 0 68 0 C 48 0 32 0 20 0 L 20 29 C 20 33 20 37 22 41 C 23 45 25 47 29 49 C 39 53 44 57 46 63 C 48 69 49 77 49 88 L 49 699 C 49 709 48 717 46 723 C 44 729 39 734 29 738 C 25 739 23 741 22 745 C 20 749 20 753 20 758 L 20 787 C 30 787 45 787 65 787 C 85 787 103 788 118 788 Z M 150 59 C 186 59 212 87 228 144 C 243 200 251 284 251 395 C 251 439 250 481 248 522 C 246 562 241 598 234 628 C 227 658 217 683 204 701 C 191 719 173 728 151 728 L 137 728 L 137 59 L 150 59 Z" unicode="D" />
<glyph horiz-adv-x="318" d="M 300 192 L 300 0 L 20 0 L 20 29 C 20 33 20 37 22 41 C 23 45 25 47 29 49 C 39 53 44 57 46 63 C 48 69 49 77 49 88 L 49 699 C 49 709 48 717 46 723 C 44 729 39 734 29 738 C 25 739 23 741 22 745 C 20 749 20 753 20 758 L 20 787 L 237 787 C 249 787 258 787 266 789 C 273 791 278 792 282 792 C 284 792 285 791 287 789 C 288 787 289 783 289 777 L 289 614 L 259 614 C 254 614 251 615 249 617 C 247 619 245 624 245 631 C 239 671 232 697 222 709 C 212 721 197 728 176 728 L 137 728 L 137 436 L 164 436 C 176 436 185 440 191 449 C 196 457 200 471 203 491 C 204 498 206 502 208 504 C 210 506 214 507 220 507 L 246 507 L 246 304 L 219 304 C 214 304 210 305 208 307 C 205 309 203 313 203 319 C 200 341 195 356 188 366 C 180 376 172 381 162 381 L 137 381 L 137 59 L 180 59 C 201 59 217 66 228 81 C 238 96 248 127 256 175 C 256 182 258 187 260 189 C 262 191 266 192 271 192 L 300 192 Z" unicode="E" />
<glyph horiz-adv-x="301" d="M 289 777 L 289 600 L 261 600 C 256 600 253 601 251 603 C 249 605 248 610 248 617 C 243 653 237 680 229 699 C 221 718 205 728 183 728 L 137 728 L 137 436 L 164 436 C 176 436 185 440 191 449 C 196 457 200 471 203 491 C 204 498 206 502 208 504 C 210 506 214 507 220 507 L 246 507 L 246 304 L 219 304 C 214 304 210 305 208 307 C 205 309 203 313 203 319 C 200 341 195 356 188 366 C 180 376 172 381 162 381 L 137 381 L 137 88 C 137 75 138 66 142 62 C 145 57 152 53 162 49 C 166 47 168 45 170 41 C 171 37 172 33 172 29 L 172 0 L 20 0 L 20 29 C 20 33 20 37 22 41 C 23 45 25 47 29 49 C 39 53 44 58 46 64 C 48 70 49 78 49 88 L 49 699 C 49 709 48 717 46 723 C 44 729 39 734 29 738 C 25 739 23 741 22 745 C 20 749 20 753 20 758 L 20 787 L 237 787 C 247 787 257 787 265 789 C 273 791 279 792 283 792 C 285 792 287 790 288 786 C 288 782 289 779 289 777 Z" unicode="F" />
<glyph horiz-adv-x="338" d="M 316 80 C 318 77 320 74 321 72 C 321 69 322 65 322 60 C 322 55 321 51 321 49 C 320 46 319 43 317 41 C 303 24 287 11 267 3 C 247 -5 223 -10 193 -10 C 155 -10 124 2 101 26 C 78 50 61 81 49 119 C 37 156 30 197 27 243 C 23 288 22 332 22 374 C 22 516 35 622 63 692 C 91 762 130 797 182 797 C 196 797 208 794 219 790 C 229 785 238 780 244 775 C 246 773 247 772 248 772 C 249 771 250 771 252 771 C 252 771 253 771 254 772 C 255 773 256 774 257 775 C 257 776 259 777 261 778 C 263 779 266 780 269 780 L 299 780 L 299 586 L 271 586 C 265 586 262 587 260 589 C 258 591 256 594 256 599 C 249 641 240 675 229 702 C 218 728 202 742 181 742 C 171 742 162 736 154 725 C 146 713 139 694 134 668 C 128 641 124 605 122 561 C 119 516 118 461 118 395 C 118 327 119 271 123 226 C 127 180 132 144 138 117 C 144 90 152 71 161 60 C 169 49 179 44 189 44 C 197 44 206 48 214 58 C 222 68 227 86 227 114 L 227 235 C 227 255 225 267 221 272 C 217 277 209 282 199 287 C 195 288 192 290 191 294 C 189 298 189 302 189 307 L 189 338 L 306 338 C 307 338 308 337 310 336 C 311 335 312 333 312 331 C 312 327 311 320 309 312 C 307 304 306 290 306 272 L 306 108 C 306 100 306 95 308 91 C 310 87 312 84 316 80 Z" unicode="G" />
<glyph horiz-adv-x="382" d="M 363 29 L 363 0 L 215 0 L 215 29 C 215 33 215 37 217 41 C 219 45 221 47 224 49 C 234 53 240 57 242 63 C 244 69 245 77 245 88 L 245 384 L 137 384 L 137 88 C 137 77 138 69 140 63 C 142 57 148 53 158 49 C 161 47 163 45 165 41 C 166 37 167 33 167 29 L 167 0 L 20 0 L 20 29 C 20 33 20 37 22 41 C 23 45 25 47 29 49 C 39 53 44 57 46 63 C 48 69 49 77 49 88 L 49 699 C 49 709 48 717 46 723 C 44 729 39 734 29 738 C 25 739 23 741 22 745 C 20 749 20 753 20 758 L 20 787 L 167 787 L 167 758 C 167 753 166 749 165 745 C 163 741 161 739 158 738 C 148 734 142 729 140 723 C 138 717 137 709 137 699 L 137 446 L 245 446 L 245 699 C 245 709 244 717 242 723 C 240 729 234 734 224 738 C 221 739 219 741 217 745 C 215 749 215 753 215 758 L 215 787 L 363 787 L 363 758 C 363 753 362 749 360 745 C 358 741 356 739 353 738 C 343 734 337 729 335 723 C 333 717 332 709 332 699 L 332 88 C 332 77 333 69 335 63 C 337 57 343 53 353 49 C 356 47 358 45 360 41 C 362 37 363 33 363 29 Z" unicode="H" />
<glyph horiz-adv-x="188" d="M 168 29 L 168 0 L 20 0 L 20 29 C 20 33 20 37 22 41 C 24 45 26 47 30 49 C 39 53 45 57 47 63 C 49 69 50 77 50 88 L 50 699 C 50 709 49 717 47 723 C 45 729 39 734 30 738 C 26 739 24 741 22 745 C 20 749 20 753 20 758 L 20 787 L 168 787 L 168 758 C 168 753 167 749 166 745 C 164 741 162 739 159 738 C 149 734 143 729 141 723 C 139 717 138 709 138 699 L 138 88 C 138 77 139 69 141 63 C 143 57 149 53 159 49 C 162 47 164 45 166 41 C 167 37 168 33 168 29 Z" unicode="I" />
<glyph horiz-adv-x="263" d="M 246 787 L 246 758 C 246 753 245 749 243 745 C 241 741 239 739 237 738 C 227 734 221 729 219 723 C 217 717 216 709 216 699 L 216 186 C 216 160 214 136 210 112 C 206 88 199 68 189 50 C 179 32 165 17 148 6 C 131 -4 110 -10 85 -10 C 59 -10 38 0 22 18 C 5 36 -3 57 -3 81 C -3 103 1 120 11 131 C 20 141 31 147 44 147 C 56 147 66 141 74 130 C 82 119 86 107 86 94 C 86 86 85 79 83 73 C 81 67 78 60 72 54 C 72 51 73 48 76 45 C 79 42 82 41 86 41 C 96 41 105 46 114 56 C 123 66 128 85 128 112 L 128 699 C 128 711 126 720 123 725 C 119 729 113 734 104 738 C 100 739 98 741 96 745 C 94 749 94 753 94 758 L 94 787 L 246 787 Z" unicode="J" />
<glyph horiz-adv-x="356" d="M 356 29 L 356 0 L 209 0 L 209 29 C 209 33 209 37 211 41 C 212 45 214 47 218 49 C 222 50 225 52 227 56 C 229 59 231 63 231 68 C 231 71 230 75 229 79 C 228 83 227 88 227 93 L 144 410 L 137 410 L 137 88 C 137 78 138 70 140 64 C 142 58 148 53 158 49 C 161 47 163 45 165 41 C 166 37 167 33 167 29 L 167 0 L 20 0 L 20 29 C 20 33 20 37 22 41 C 23 45 25 47 29 49 C 39 53 44 57 46 63 C 48 69 49 77 49 88 L 49 699 C 49 709 48 717 46 723 C 44 729 39 734 29 738 C 25 739 23 741 22 745 C 20 749 20 753 20 758 L 20 787 L 167 787 L 167 758 C 167 753 166 749 165 745 C 163 741 161 739 158 738 C 148 734 142 729 140 723 C 138 717 137 709 137 699 L 137 442 L 144 442 L 240 693 C 242 697 243 702 244 707 C 245 711 246 714 246 716 C 246 722 244 726 242 728 C 239 730 233 734 223 738 C 219 739 217 741 216 745 C 214 749 214 753 214 758 L 214 787 L 346 787 L 346 758 C 346 753 345 749 343 745 C 341 741 339 738 336 738 C 325 735 317 730 311 722 C 305 714 299 699 291 679 L 215 481 L 315 96 C 318 82 322 72 326 64 C 330 56 337 51 346 49 C 349 47 351 45 353 41 C 355 37 356 33 356 29 Z" unicode="K" />
<glyph horiz-adv-x="301" d="M 291 195 L 291 0 L 20 0 L 20 29 C 20 33 20 37 22 41 C 23 45 25 47 29 49 C 39 53 44 57 46 63 C 48 69 49 77 49 88 L 49 699 C 49 709 48 717 46 723 C 44 729 39 734 29 738 C 25 739 23 741 22 745 C 20 749 20 753 20 758 L 20 787 L 172 787 L 172 758 C 172 753 171 749 169 745 C 167 741 165 739 161 738 C 151 734 145 729 142 725 C 138 720 137 711 137 699 L 137 60 L 172 60 C 192 60 208 67 219 82 C 230 97 240 129 248 178 C 249 185 250 190 252 192 C 254 194 257 195 261 195 L 291 195 Z" unicode="L" />
<glyph horiz-adv-x="484" d="M 465 29 L 465 0 L 316 0 L 316 29 C 316 33 316 37 318 41 C 319 45 322 47 326 49 C 335 53 341 58 343 64 C 345 70 347 78 347 88 L 347 717 L 339 717 C 338 709 337 696 336 678 C 335 660 334 644 332 631 L 244 6 C 243 3 242 1 241 0 C 240 -2 238 -3 236 -3 L 216 -3 C 212 -3 210 -2 209 0 C 208 1 207 3 207 6 L 121 631 C 119 643 117 658 115 676 C 113 694 111 707 111 717 L 104 717 L 104 88 C 104 78 105 70 107 64 C 109 58 115 53 125 49 C 128 47 130 45 132 41 C 134 37 135 33 135 29 L 135 0 L 20 0 L 20 29 C 20 33 20 37 22 41 C 24 45 26 47 30 49 C 39 53 44 58 46 64 C 48 70 49 78 49 88 L 49 699 C 49 709 48 717 46 723 C 44 729 39 734 30 738 C 26 739 24 741 22 745 C 20 749 20 753 20 758 L 20 787 L 129 787 C 135 787 141 787 148 787 C 154 787 160 788 164 788 C 169 788 173 787 175 785 C 177 783 178 778 179 772 L 226 432 C 227 420 228 407 230 392 C 232 377 233 362 235 348 C 236 333 237 319 238 305 C 239 291 240 280 241 271 C 241 279 242 291 243 305 C 244 319 245 333 247 348 C 248 363 249 378 251 393 C 253 407 254 420 256 432 L 303 777 C 303 779 304 782 305 784 C 306 786 308 787 311 787 L 465 787 L 465 758 C 465 753 464 749 462 745 C 460 741 458 739 455 738 C 445 734 439 729 437 723 C 435 717 434 709 434 699 L 434 88 C 434 77 435 69 437 63 C 439 57 445 53 455 49 C 458 47 460 45 462 41 C 464 37 465 33 465 29 Z" unicode="M" />
<glyph horiz-adv-x="377" d="M 330 3 C 330 0 329 -2 328 -4 C 327 -5 326 -6 325 -6 L 290 -6 C 284 -6 280 -5 277 -4 C 273 -2 271 0 271 5 L 123 550 C 120 559 117 573 113 592 C 109 610 105 626 103 639 C 103 626 104 610 104 591 C 104 571 104 558 104 550 L 104 88 C 104 77 105 69 107 63 C 109 57 116 53 126 49 C 129 47 131 45 133 41 C 135 37 136 33 136 29 L 136 0 L 20 0 L 20 29 C 20 33 20 37 22 41 C 23 45 25 47 29 49 C 39 53 44 58 46 64 C 48 70 49 78 49 88 L 49 699 C 49 709 48 717 46 723 C 44 729 39 734 29 738 C 25 739 23 741 22 745 C 20 749 20 753 20 758 L 20 787 L 85 787 C 93 787 101 787 107 788 C 113 788 120 789 127 789 C 133 789 137 787 139 785 C 141 782 142 778 144 773 L 244 403 C 245 397 247 388 250 376 C 253 363 256 349 260 335 C 263 320 266 306 269 292 C 271 278 273 268 275 262 L 275 699 C 275 709 274 717 272 723 C 270 729 264 734 254 738 C 250 739 247 741 246 745 C 244 749 244 753 244 758 L 244 787 L 360 787 L 360 758 C 360 753 359 749 357 745 C 355 741 353 739 351 738 C 341 734 335 729 333 723 C 331 717 330 709 330 699 L 330 3 Z" unicode="N" />
<glyph horiz-adv-x="370" d="M 184 797 C 212 797 237 786 258 764 C 279 742 296 712 309 675 C 322 638 332 595 338 546 C 344 496 348 445 348 391 C 348 337 345 285 339 236 C 333 187 323 144 310 108 C 297 72 280 43 259 22 C 238 0 213 -10 183 -10 C 154 -10 129 0 109 22 C 89 44 72 73 59 110 C 46 146 37 189 31 239 C 25 288 22 340 22 394 C 22 448 25 499 31 548 C 37 597 46 640 59 677 C 71 713 88 742 109 764 C 129 786 154 797 184 797 Z M 183 45 C 193 45 203 50 212 60 C 220 70 227 89 233 115 C 239 141 243 176 247 222 C 250 268 252 325 252 395 C 252 462 250 518 248 563 C 245 607 241 643 235 669 C 229 695 222 714 214 725 C 205 736 195 742 183 742 C 173 742 163 736 155 725 C 147 714 140 695 135 669 C 129 643 125 607 122 563 C 119 518 118 462 118 395 C 118 325 119 268 122 222 C 124 176 128 141 134 115 C 139 89 146 70 154 60 C 162 50 172 45 183 45 Z" unicode="O" />
<glyph horiz-adv-x="340" d="M 129 788 C 200 788 251 768 281 729 C 311 690 326 638 326 574 C 326 528 319 491 306 463 C 293 435 277 413 259 397 C 241 381 221 371 201 365 C 181 359 163 357 149 357 L 137 357 L 137 88 C 137 75 138 66 142 62 C 145 57 152 53 162 49 C 166 47 168 45 170 41 C 171 37 172 33 172 29 L 172 0 L 20 0 L 20 29 C 20 33 20 37 22 41 C 23 45 25 47 29 49 C 39 53 44 57 46 63 C 48 69 49 77 49 88 L 49 699 C 49 709 48 717 46 723 C 44 729 39 734 29 738 C 25 739 23 741 22 745 C 20 749 20 753 20 758 L 20 787 C 42 787 63 787 82 787 C 101 787 117 788 129 788 Z M 148 416 C 179 416 201 428 214 454 C 227 480 234 520 234 576 C 234 634 226 673 211 695 C 195 717 176 728 153 728 L 137 728 L 137 416 L 148 416 Z" unicode="P" />
<glyph horiz-adv-x="370" d="M 360 -87 L 360 -107 C 360 -113 353 -121 340 -133 C 326 -145 310 -151 290 -151 C 276 -151 263 -147 251 -141 C 238 -134 225 -124 213 -112 C 206 -104 198 -93 188 -78 C 178 -63 170 -49 164 -36 C 159 -27 154 -20 150 -14 C 146 -8 142 -3 139 1 C 118 11 100 29 86 54 C 71 79 59 109 50 143 C 40 177 33 216 29 259 C 24 302 22 347 22 394 C 22 448 25 499 31 548 C 37 597 46 640 59 677 C 71 713 88 742 109 764 C 129 786 154 797 184 797 C 212 797 237 786 258 764 C 279 742 296 712 309 675 C 322 638 332 595 338 546 C 344 496 348 445 348 391 C 348 340 345 292 340 246 C 334 200 326 159 315 124 C 303 88 289 59 271 36 C 253 12 231 -1 206 -7 C 218 -18 229 -26 238 -30 C 247 -34 262 -42 284 -54 C 296 -60 308 -66 320 -71 C 331 -76 342 -79 354 -80 C 355 -80 356 -80 358 -82 C 359 -83 360 -85 360 -87 Z M 183 45 C 193 45 203 50 212 60 C 220 70 227 89 233 115 C 239 141 243 176 247 222 C 250 268 252 325 252 395 C 252 462 250 518 248 563 C 245 607 241 643 235 669 C 229 695 222 714 214 725 C 205 736 195 742 183 742 C 173 742 163 736 155 725 C 147 714 140 695 135 669 C 129 643 125 607 122 563 C 119 518 118 462 118 395 C 118 325 119 268 122 222 C 124 176 128 141 134 115 C 139 89 146 70 154 60 C 162 50 172 45 183 45 Z" unicode="Q" />
<glyph horiz-adv-x="363" d="M 363 29 L 363 0 L 273 0 C 264 0 257 1 253 4 C 249 6 246 13 244 24 L 194 294 C 190 314 183 332 175 347 C 167 361 158 369 149 369 L 137 369 L 137 88 C 137 77 138 69 140 63 C 142 57 148 53 158 49 C 161 47 163 45 165 41 C 166 37 167 33 167 29 L 167 0 L 20 0 L 20 29 C 20 33 20 37 22 41 C 23 45 25 47 29 49 C 39 53 44 57 46 63 C 48 69 49 77 49 88 L 49 699 C 49 709 48 717 46 723 C 44 729 39 734 29 738 C 25 739 23 741 22 745 C 20 749 20 753 20 758 L 20 787 C 24 787 32 787 42 787 C 52 787 64 787 76 787 C 88 787 100 788 112 788 C 124 788 134 788 142 788 C 177 788 206 782 230 772 C 253 762 272 748 286 731 C 300 714 309 694 315 671 C 321 647 324 623 324 598 C 324 536 313 489 292 458 C 271 427 244 405 211 391 C 233 384 251 370 263 348 C 275 326 285 300 291 270 C 293 256 296 241 299 225 C 302 209 305 192 308 176 C 311 160 314 144 317 129 C 319 113 322 100 325 88 C 327 77 330 69 333 63 C 336 57 343 53 353 49 C 357 47 359 45 361 41 C 362 37 363 33 363 29 Z M 149 425 C 179 425 201 439 213 468 C 225 496 231 536 231 586 C 231 634 224 669 212 693 C 199 716 180 728 154 728 L 137 728 L 137 425 L 149 425 Z" unicode="R" />
<glyph horiz-adv-x="305" d="M 217 421 C 237 393 254 364 268 332 C 282 300 289 262 289 218 C 289 185 285 155 279 127 C 273 99 264 74 252 54 C 240 34 225 18 207 7 C 189 -4 170 -10 149 -10 C 134 -10 121 -7 111 -2 C 101 2 93 7 87 12 C 85 14 83 15 81 16 C 79 17 77 18 76 18 C 74 18 73 17 72 17 C 71 16 69 15 67 13 L 55 4 C 53 2 51 1 49 1 C 47 0 45 0 44 0 L 31 0 C 28 0 26 0 25 2 C 24 3 24 5 24 7 L 24 227 L 57 227 C 61 227 64 226 66 224 C 68 222 69 218 70 212 C 78 162 86 122 96 91 C 105 60 123 45 150 45 C 170 45 186 57 198 82 C 209 106 215 134 215 164 C 215 189 210 216 201 245 C 192 274 179 300 162 324 C 154 334 145 346 135 358 C 125 370 115 383 105 398 C 72 440 51 477 41 509 C 31 540 27 573 27 607 C 27 665 38 711 62 745 C 86 779 114 797 148 797 C 162 797 174 794 185 790 C 195 785 204 780 210 775 C 211 774 212 773 214 772 C 215 771 216 771 218 771 C 218 771 218 771 220 772 C 221 773 222 774 223 775 C 223 776 225 777 227 779 C 229 780 231 781 233 781 L 265 781 L 265 586 L 237 586 C 231 586 227 587 225 589 C 223 591 222 594 222 599 C 215 641 207 675 197 702 C 187 728 171 742 147 742 C 136 742 125 734 114 718 C 103 702 98 681 98 653 C 98 632 101 610 108 587 C 114 563 129 538 151 510 C 166 489 179 472 190 458 C 200 444 209 431 217 421 Z" unicode="S" />
<glyph horiz-adv-x="335" d="M 324 777 L 324 591 L 296 591 C 290 591 287 592 285 594 C 283 596 281 601 281 608 C 276 635 272 657 268 674 C 264 691 260 704 256 713 C 251 722 245 728 238 731 C 231 734 222 736 211 736 L 211 88 C 211 75 212 66 216 62 C 219 57 226 53 236 49 C 239 47 241 45 243 41 C 244 37 245 33 245 29 L 245 0 L 89 0 L 89 29 C 89 33 89 37 91 41 C 92 45 95 47 99 49 C 109 53 115 57 119 62 C 122 66 124 75 124 88 L 124 736 C 112 736 103 734 96 732 C 89 729 83 723 78 714 C 73 705 69 692 65 675 C 61 658 57 636 53 608 C 52 601 51 596 49 594 C 47 592 43 591 39 591 L 10 591 L 10 777 C 10 783 10 787 11 789 C 12 791 14 792 16 792 C 19 792 24 791 32 789 C 40 787 50 787 62 787 L 273 787 C 284 787 294 787 303 789 C 311 791 316 792 318 792 C 320 792 321 791 322 789 C 323 787 324 783 324 777 Z" unicode="T" />
<glyph horiz-adv-x="370" d="M 351 787 L 351 758 C 351 753 350 749 349 745 C 347 741 345 739 341 738 C 331 734 326 729 324 723 C 322 717 321 709 321 699 L 321 161 C 321 141 318 120 314 100 C 310 80 302 61 292 45 C 282 29 268 15 251 5 C 233 -4 212 -10 186 -10 C 162 -10 141 -5 124 3 C 106 11 92 23 81 38 C 70 53 62 71 57 91 C 51 111 49 133 49 156 L 49 699 C 49 709 48 717 46 723 C 44 729 39 734 29 738 C 25 739 23 741 22 745 C 20 749 20 753 20 758 L 20 787 L 167 787 L 167 758 C 167 753 166 749 165 745 C 163 741 161 739 158 738 C 148 734 142 729 140 723 C 138 717 137 709 137 699 L 137 178 C 137 144 141 116 151 94 C 160 72 177 61 202 61 C 220 61 234 70 244 88 C 254 106 260 133 260 170 L 260 699 C 260 709 259 717 257 723 C 255 729 250 734 241 738 C 237 739 235 741 233 745 C 231 749 231 753 231 758 L 231 787 L 351 787 Z" unicode="U" />
<glyph horiz-adv-x="344" d="M 341 787 L 341 758 C 341 753 340 749 338 745 C 336 741 334 739 331 738 C 322 735 316 730 313 724 C 309 718 306 707 304 692 L 192 1 C 191 -2 190 -5 188 -7 C 186 -9 184 -10 180 -10 L 159 -10 C 154 -10 151 -9 150 -7 C 148 -5 147 -2 147 1 L 40 695 C 38 707 34 717 30 724 C 26 731 21 735 15 737 C 10 738 7 741 5 745 C 3 749 3 753 3 758 L 3 787 L 155 787 L 155 758 C 155 753 154 749 153 745 C 151 741 149 739 145 738 C 137 735 131 731 129 726 C 127 720 126 715 126 710 C 126 706 126 702 127 697 C 127 692 128 687 129 681 L 170 394 C 171 386 172 375 174 363 C 175 350 176 337 178 323 C 179 309 180 295 182 281 C 183 266 184 253 185 241 C 186 253 188 266 190 281 C 192 296 194 311 196 325 C 198 339 200 353 202 365 C 204 377 205 387 206 394 L 241 628 C 243 641 245 656 247 672 C 249 688 250 700 250 708 C 250 714 247 719 243 725 C 239 730 232 734 224 738 C 221 739 219 741 217 745 C 215 749 215 753 215 758 L 215 787 L 341 787 Z" unicode="V" />
<glyph horiz-adv-x="525" d="M 522 787 L 522 758 C 522 753 521 749 520 745 C 518 741 516 739 512 738 C 503 734 497 729 493 721 C 489 713 486 703 484 690 L 380 1 C 379 -3 378 -6 377 -8 C 375 -9 373 -10 369 -10 L 343 -10 C 338 -10 335 -9 334 -7 C 332 -5 332 -2 332 1 L 276 392 C 273 409 270 427 268 446 C 266 464 264 484 262 505 C 260 484 259 464 257 446 C 255 427 252 409 250 392 L 194 1 C 193 -3 192 -5 191 -7 C 189 -9 186 -10 182 -10 L 155 -10 C 151 -10 148 -9 146 -7 C 144 -5 143 -2 143 1 L 40 695 C 38 708 34 718 30 725 C 26 731 21 735 15 737 C 10 738 7 741 5 745 C 3 749 3 753 3 758 L 3 787 L 154 787 L 154 758 C 154 753 153 749 151 745 C 149 741 147 739 143 738 C 135 735 130 731 128 726 C 126 720 125 714 125 708 C 125 704 125 700 126 696 C 126 691 127 686 128 681 L 169 386 C 170 378 171 367 173 353 C 175 339 176 325 178 311 C 179 296 180 281 182 267 C 183 252 184 239 185 229 C 185 239 186 251 188 265 C 190 279 192 293 194 308 C 196 322 198 336 200 350 C 202 364 203 376 205 386 L 243 631 L 234 695 C 232 709 228 720 224 726 C 219 732 214 735 210 737 C 204 738 201 741 200 745 C 198 749 198 753 198 758 L 198 787 L 342 787 L 342 758 C 342 753 341 749 339 745 C 337 741 335 739 332 738 C 323 735 318 731 316 726 C 314 720 313 714 313 708 C 313 704 313 700 314 696 C 314 691 315 686 316 681 L 355 386 C 355 378 356 368 358 354 C 360 340 361 326 363 311 C 365 295 366 280 368 266 C 370 252 371 240 372 231 C 372 240 373 252 375 266 C 376 280 377 294 379 309 C 381 323 382 338 384 352 C 386 366 387 377 389 386 L 425 643 C 427 655 428 667 429 679 C 429 691 430 700 430 708 C 430 714 427 719 422 725 C 417 730 410 734 402 738 C 398 739 395 741 393 745 C 391 749 391 753 391 758 L 391 787 L 522 787 Z" unicode="W" />
<glyph horiz-adv-x="353" d="M 351 29 L 351 0 L 207 0 L 207 29 C 207 33 207 37 209 41 C 210 45 213 47 217 49 C 220 50 223 52 225 55 C 227 58 228 62 228 66 C 228 69 227 72 226 75 C 225 78 224 82 224 87 L 172 282 C 170 288 168 295 166 303 C 164 311 162 318 161 325 C 160 318 159 311 157 304 C 155 296 154 289 152 283 L 103 110 C 101 105 100 99 99 92 C 97 85 97 79 97 74 C 97 68 98 63 102 59 C 106 55 111 51 119 49 C 121 47 123 45 125 41 C 127 37 128 33 128 29 L 128 0 L 3 0 L 3 29 C 3 33 3 37 5 41 C 7 45 9 47 13 49 C 21 51 28 55 32 61 C 36 67 40 77 44 91 L 137 396 L 50 696 C 45 710 41 721 38 727 C 35 733 32 736 28 737 C 22 738 19 741 17 745 C 15 749 15 753 15 758 L 15 787 L 161 787 L 161 758 C 161 753 160 749 159 745 C 158 741 156 739 152 738 C 145 735 141 731 140 727 C 138 723 138 718 138 714 C 138 708 139 702 141 694 C 143 686 145 677 148 669 L 180 547 C 181 543 183 536 185 528 C 187 519 188 512 190 506 C 190 511 192 518 194 527 C 196 535 197 542 199 547 L 237 677 C 238 681 239 687 240 694 C 241 701 242 707 242 713 C 242 719 240 724 237 728 C 233 732 228 735 220 738 C 216 739 214 741 213 745 C 211 749 211 753 211 758 L 211 787 L 335 787 L 335 758 C 335 753 334 749 333 745 C 331 741 329 739 326 738 C 317 735 310 731 306 725 C 302 719 298 710 294 696 L 215 431 L 311 98 C 315 83 318 72 322 65 C 326 57 331 52 338 50 C 343 48 346 45 348 41 C 350 37 351 33 351 29 Z" unicode="X" />
<glyph horiz-adv-x="358" d="M 354 787 L 354 758 C 354 753 353 749 352 745 C 350 741 348 739 345 738 C 336 735 330 731 327 725 C 323 719 320 710 316 696 L 221 344 L 221 88 C 221 77 222 69 224 63 C 226 57 232 53 242 49 C 245 47 247 45 249 41 C 251 37 252 33 252 29 L 252 0 L 104 0 L 104 29 C 104 33 104 37 106 41 C 107 45 110 47 114 49 C 123 53 129 57 131 63 C 133 69 134 77 134 88 L 134 317 L 40 696 C 36 710 33 720 29 726 C 25 732 20 735 15 737 C 10 738 7 741 5 745 C 3 749 3 753 3 758 L 3 787 L 157 787 L 157 758 C 157 753 156 749 155 745 C 153 741 151 739 147 738 C 140 735 135 732 131 728 C 127 724 126 719 126 714 C 126 708 127 700 130 690 C 132 680 135 670 137 662 L 183 469 C 184 462 186 453 188 443 C 190 432 192 422 194 412 C 195 422 197 432 199 443 C 201 454 203 463 205 470 L 254 669 C 255 675 256 682 258 691 C 260 699 261 706 261 712 C 261 717 259 722 255 727 C 251 731 245 735 237 738 C 234 739 232 741 230 745 C 228 749 228 753 228 758 L 228 787 L 354 787 Z" unicode="Y" />
<glyph horiz-adv-x="302" d="M 291 778 L 291 755 C 291 751 290 747 288 743 C 286 738 285 733 285 729 L 118 99 C 116 93 115 87 113 81 C 111 75 111 71 111 69 C 111 65 112 63 115 61 C 118 59 121 59 124 59 L 162 59 C 184 59 201 66 212 80 C 222 94 232 126 240 175 C 241 182 243 187 245 189 C 247 191 250 192 255 192 L 284 192 L 284 10 C 284 4 283 0 283 -1 C 283 -3 281 -5 278 -5 C 275 -5 269 -4 261 -2 C 253 0 243 0 233 0 L 27 0 C 22 0 17 1 13 3 C 9 5 7 8 7 13 C 7 17 7 21 8 25 C 8 29 9 32 9 34 L 185 695 C 185 699 187 704 189 711 C 191 717 192 721 192 723 C 192 725 191 727 190 727 C 189 727 188 728 187 728 L 146 728 C 124 728 109 721 99 709 C 89 697 82 671 77 631 C 76 624 75 619 73 617 C 71 615 67 614 63 614 L 33 614 L 33 777 C 33 783 33 787 34 789 C 34 791 36 792 39 792 C 43 792 48 791 54 789 C 60 787 71 787 85 787 L 283 787 C 285 787 286 786 288 784 C 290 782 291 780 291 778 Z" unicode="Z" />
<glyph horiz-adv-x="222" d="M 201 -59 L 201 -105 L 52 -105 L 52 787 L 201 787 L 201 742 L 133 742 L 133 -59 L 201 -59 Z" unicode="[" />
<glyph horiz-adv-x="249" d="M 44 787 L 305 -164 L 249 -164 L -12 787 L 44 787 Z" unicode="\" />
<glyph horiz-adv-x="222" d="M 170 787 L 170 -105 L 21 -105 L 21 -59 L 89 -59 L 89 742 L 21 742 L 21 787 L 170 787 Z" unicode="]" />
<glyph horiz-adv-x="478" d="M 270 787 L 428 429 L 363 429 L 239 712 L 116 429 L 50 429 L 208 787 L 270 787 Z" unicode="^" />
<glyph horiz-adv-x="430" d="M 433 -50 L 433 -103 L -3 -103 L -3 -50 L 433 -50 Z" unicode="_" />
<glyph horiz-adv-x="292" d="M 132 686 L 217 563 L 194 543 L 89 620 C 78 628 70 636 65 644 C 60 652 58 660 58 669 C 58 679 61 689 67 698 C 73 707 81 712 91 712 C 96 712 102 710 109 708 C 116 705 124 698 132 686 Z" unicode="`" />
<glyph horiz-adv-x="287" d="M 283 31 C 283 29 284 28 284 26 C 284 24 285 23 285 23 C 285 21 284 20 284 19 C 283 17 282 16 281 15 C 276 7 270 2 262 -2 C 254 -6 244 -8 234 -8 C 221 -8 209 -4 199 4 C 188 12 181 26 177 48 C 167 29 155 15 142 6 C 128 -3 113 -8 95 -8 C 72 -8 52 2 36 23 C 20 43 12 75 12 119 C 12 163 25 202 52 238 C 78 274 116 297 166 309 L 166 364 C 166 390 163 410 158 424 C 152 438 142 445 128 445 C 118 445 112 443 108 439 C 104 435 102 432 102 430 C 104 427 106 423 108 417 C 110 411 111 405 111 397 C 111 385 107 374 100 365 C 92 355 83 351 71 351 C 56 351 45 356 38 366 C 30 376 27 389 27 405 C 27 427 36 448 55 466 C 73 484 98 493 129 493 C 173 493 203 478 221 449 C 239 419 248 378 248 324 L 248 86 C 248 72 249 62 252 57 C 255 52 259 50 265 50 C 265 50 267 50 269 50 C 271 50 272 51 273 51 C 274 51 275 50 276 49 C 277 48 278 46 279 44 L 283 31 Z M 128 62 C 140 62 150 68 156 80 C 162 92 166 106 166 122 L 166 258 C 142 251 124 236 112 212 C 100 188 95 162 95 136 C 95 110 98 91 104 79 C 110 67 118 62 128 62 Z" unicode="a" />
<glyph horiz-adv-x="306" d="M 183 493 C 215 493 241 471 259 429 C 277 387 286 327 286 250 C 286 156 274 90 251 50 C 228 10 200 -10 166 -10 C 158 -10 149 -8 140 -5 C 130 -2 123 1 119 5 C 110 11 103 16 98 18 C 93 20 89 22 85 22 C 77 22 71 18 65 12 C 59 6 55 0 51 -5 C 50 -5 49 -6 48 -7 C 46 -7 45 -8 44 -8 L 35 -8 L 35 715 C 35 723 33 729 30 732 C 27 734 23 737 19 741 C 15 743 12 746 10 748 C 8 750 8 753 8 757 L 8 787 C 16 787 26 788 37 789 C 47 789 57 790 67 790 C 77 790 85 791 93 791 C 100 791 105 792 108 792 C 112 792 114 791 115 790 C 116 789 117 787 117 784 L 117 454 C 123 461 131 469 143 479 C 155 488 168 493 183 493 Z M 145 50 C 166 50 180 66 187 100 C 194 133 198 183 198 251 C 198 318 194 364 186 389 C 178 414 166 427 148 427 C 143 427 138 426 132 424 C 126 422 121 419 117 415 L 117 69 C 117 64 119 60 123 56 C 127 52 134 50 145 50 Z" unicode="b" />
<glyph horiz-adv-x="263" d="M 243 131 C 247 130 249 128 251 126 C 252 124 253 119 253 113 C 253 104 251 93 248 79 C 244 65 238 52 230 40 C 222 27 211 16 197 7 C 183 -2 166 -7 146 -7 C 124 -7 105 0 89 12 C 73 25 59 43 49 66 C 39 88 31 115 26 146 C 21 176 19 209 19 243 C 19 277 21 309 27 339 C 33 369 41 396 52 419 C 63 441 77 459 93 473 C 109 486 128 493 150 493 C 182 493 207 483 224 464 C 240 445 249 424 249 402 C 249 387 245 374 237 364 C 229 354 219 349 205 349 C 192 349 182 353 174 362 C 166 370 163 381 163 393 C 163 401 164 407 167 413 C 170 419 173 423 175 426 C 173 432 170 437 166 440 C 162 443 156 445 150 445 C 136 445 125 432 118 408 C 110 384 107 337 107 267 C 107 199 110 148 116 114 C 122 79 138 62 165 62 C 179 62 190 69 196 83 C 202 97 207 113 211 130 C 211 132 212 133 212 134 C 212 135 213 136 215 136 C 216 136 218 135 220 135 C 222 135 223 135 224 135 L 243 131 Z" unicode="c" />
<glyph horiz-adv-x="310" d="M 292 30 L 292 0 L 201 0 C 198 0 196 0 195 2 C 193 3 193 5 193 8 L 193 46 C 190 42 186 36 180 30 C 174 24 168 18 161 12 C 154 6 147 0 139 -3 C 131 -7 124 -10 117 -10 C 80 -10 55 12 41 58 C 27 103 20 162 20 236 C 20 321 30 385 50 428 C 70 471 96 493 128 493 C 137 493 148 488 162 480 C 175 471 184 462 189 452 L 189 715 C 189 721 187 727 183 731 C 179 735 175 738 171 741 C 165 743 162 746 160 748 C 158 750 157 753 157 757 L 157 787 C 165 787 175 788 186 789 C 197 789 208 790 218 790 C 228 790 237 791 245 791 C 253 791 258 792 261 792 C 265 792 268 791 269 791 C 270 790 271 788 271 784 L 271 72 C 271 64 272 58 274 55 C 276 52 279 49 284 46 C 287 43 289 40 290 38 C 291 35 292 32 292 30 Z M 152 63 C 160 63 169 66 177 73 C 185 79 189 87 189 95 L 189 409 C 186 413 181 416 175 419 C 169 421 163 423 157 423 C 149 423 142 421 136 417 C 130 413 125 405 121 393 C 117 381 113 362 111 338 C 109 314 108 281 108 240 C 108 202 108 171 110 148 C 112 124 114 106 118 94 C 121 82 125 73 131 69 C 137 65 144 63 152 63 Z" unicode="d" />
<glyph horiz-adv-x="280" d="M 147 493 C 183 493 211 474 231 436 C 251 398 262 334 262 246 L 105 246 C 105 186 108 140 115 109 C 122 77 138 62 163 62 C 179 62 191 69 198 83 C 204 97 209 112 213 130 C 213 131 213 132 214 134 C 215 135 216 136 218 136 C 218 136 219 136 221 136 C 223 136 224 135 226 135 L 246 131 C 250 130 252 128 253 126 C 254 124 255 119 255 113 C 255 104 253 93 249 79 C 245 65 239 52 231 40 C 223 27 212 16 198 7 C 184 -2 167 -7 147 -7 C 125 -7 106 0 90 12 C 74 25 60 43 50 66 C 39 88 31 115 26 146 C 21 176 19 209 19 243 C 19 277 21 309 27 339 C 32 369 40 396 51 419 C 62 441 76 459 92 473 C 108 486 126 493 147 493 Z M 104 297 L 185 297 C 185 351 182 389 177 411 C 171 433 161 445 147 445 C 133 445 123 434 115 412 C 107 390 104 352 104 297 Z" unicode="e" />
<glyph horiz-adv-x="184" d="M 182 794 C 199 794 213 789 225 779 C 236 769 242 754 242 734 C 242 719 237 707 227 697 C 217 687 207 683 196 683 C 185 683 175 686 166 693 C 156 700 151 711 149 727 C 141 720 134 706 129 686 C 123 665 121 634 121 594 L 121 486 L 167 486 L 167 429 L 121 429 L 121 72 C 121 64 122 58 126 54 C 130 50 135 47 142 45 C 145 43 147 41 149 38 C 150 35 151 32 151 30 L 151 0 L 17 0 L 17 30 C 17 32 17 35 19 38 C 20 40 22 43 26 46 C 30 49 34 52 36 55 C 38 58 39 64 39 72 L 39 429 L 7 429 L 7 458 C 7 462 7 466 9 469 C 10 471 12 473 15 474 C 25 476 32 482 36 491 C 39 499 41 516 42 542 C 44 585 50 623 60 655 C 70 687 81 713 95 733 C 109 753 123 769 139 779 C 155 789 169 794 182 794 Z" unicode="f" />
<glyph horiz-adv-x="302" d="M 264 507 C 276 507 284 503 290 496 C 296 489 299 481 299 473 C 299 462 296 454 290 448 C 284 442 278 439 271 439 C 267 439 264 439 261 440 C 258 441 255 443 253 445 C 251 445 249 446 247 447 C 245 448 243 449 241 449 C 238 449 235 447 233 445 C 231 443 229 441 229 439 C 237 423 244 405 249 384 C 254 363 257 341 257 319 C 257 295 254 273 249 252 C 243 230 236 212 226 196 C 216 180 203 168 188 159 C 173 149 156 145 138 145 C 132 145 127 145 122 147 C 116 148 112 149 110 150 L 84 81 C 90 82 98 83 108 84 C 118 85 127 86 135 86 C 163 86 186 82 205 75 C 223 67 238 58 249 46 C 260 34 268 22 272 8 C 276 -6 279 -19 279 -33 C 279 -81 263 -116 233 -138 C 203 -160 167 -171 125 -171 C 98 -171 74 -164 53 -151 C 32 -137 22 -117 22 -91 C 22 -79 26 -68 34 -60 C 42 -51 52 -47 64 -47 C 75 -47 84 -51 92 -59 C 99 -67 103 -77 103 -89 C 103 -91 102 -95 102 -99 C 101 -103 100 -107 100 -109 C 104 -111 109 -114 115 -117 C 121 -120 131 -122 144 -122 C 162 -122 178 -116 192 -106 C 205 -95 212 -79 212 -57 C 212 -30 201 -12 181 -4 C 161 3 138 8 114 8 C 91 8 73 6 59 4 C 45 2 37 1 34 1 C 25 1 19 2 17 5 C 14 8 13 12 13 18 C 13 20 13 23 15 27 C 16 31 17 35 19 39 L 73 170 C 55 183 41 203 32 231 C 23 259 19 288 19 319 C 19 342 21 364 27 386 C 32 407 40 425 50 441 C 60 457 72 469 87 479 C 102 488 119 493 138 493 C 150 493 162 490 174 486 C 186 482 196 476 205 469 C 212 480 222 489 234 496 C 246 503 256 507 264 507 Z M 138 195 C 152 195 162 204 167 223 C 172 241 175 273 175 319 C 175 364 172 396 167 416 C 162 435 152 445 138 445 C 123 445 113 435 108 416 C 103 396 101 364 101 319 C 101 273 103 241 108 223 C 113 204 123 195 138 195 Z" unicode="g" />
<glyph horiz-adv-x="318" d="M 300 30 L 300 0 L 175 0 L 175 30 C 175 32 175 35 176 38 C 177 40 179 43 183 46 C 187 49 191 52 193 55 C 195 58 197 64 197 72 L 197 375 C 197 393 193 405 187 411 C 180 417 172 420 164 420 C 157 420 149 416 140 410 C 131 403 125 397 121 392 L 121 72 C 121 64 122 58 124 55 C 126 52 129 49 134 46 C 137 43 139 40 141 38 C 142 35 143 32 143 30 L 143 0 L 17 0 L 17 30 C 17 32 17 35 19 38 C 20 40 22 43 26 46 C 30 49 34 52 36 55 C 38 58 39 64 39 72 L 39 715 C 39 723 38 728 36 731 C 34 734 30 737 26 741 C 22 743 20 746 18 749 C 16 751 16 754 16 757 L 16 787 C 20 787 28 787 38 788 C 48 788 58 789 69 790 C 79 790 89 791 97 791 C 105 791 111 792 113 792 C 117 792 119 791 120 790 C 120 789 121 787 121 784 L 121 434 C 131 446 144 459 158 473 C 172 486 188 493 207 493 C 231 493 249 484 261 466 C 273 448 279 421 279 385 L 279 72 C 279 64 280 59 282 56 C 284 52 287 49 292 46 C 295 43 297 40 298 38 C 299 35 300 32 300 30 Z" unicode="h" />
<glyph horiz-adv-x="160" d="M 78 752 C 93 752 106 746 118 735 C 129 723 135 710 135 695 C 135 679 129 666 118 655 C 106 643 93 638 78 638 C 62 638 49 643 38 655 C 27 666 22 679 22 695 C 22 710 27 723 38 735 C 49 746 62 752 78 752 Z M 143 30 L 143 0 L 17 0 L 17 30 C 17 32 17 35 19 38 C 20 40 22 43 26 46 C 30 49 34 52 36 55 C 38 58 39 64 39 72 L 39 414 C 39 422 38 427 36 430 C 34 433 30 436 26 440 C 22 442 20 445 19 448 C 17 450 17 453 17 456 L 17 486 C 25 486 35 487 46 488 C 57 488 67 489 76 489 C 85 489 93 490 100 490 C 107 490 111 491 112 491 C 116 491 119 490 120 489 C 120 488 121 486 121 483 L 121 72 C 121 64 122 58 124 55 C 126 52 129 49 134 46 C 137 43 139 40 141 38 C 142 35 143 32 143 30 Z" unicode="i" />
<glyph horiz-adv-x="160" d="M 78 752 C 93 752 106 746 118 735 C 129 723 135 710 135 695 C 135 679 129 666 118 655 C 106 643 93 638 78 638 C 62 638 49 643 38 655 C 27 666 22 679 22 695 C 22 710 27 723 38 735 C 49 746 62 752 78 752 Z M 121 483 L 121 49 C 121 -27 109 -83 86 -118 C 62 -153 35 -171 4 -171 C -19 -171 -37 -165 -51 -154 C -65 -142 -72 -128 -72 -111 C -72 -96 -67 -84 -59 -76 C -51 -67 -41 -63 -30 -63 C -19 -63 -9 -67 0 -75 C 9 -83 14 -98 14 -120 C 18 -120 22 -118 25 -116 C 28 -114 31 -109 33 -101 C 35 -93 36 -81 37 -67 C 38 -52 39 -32 39 -8 L 39 414 C 39 420 37 425 34 429 C 30 433 26 436 22 440 C 18 442 16 445 14 448 C 12 450 12 453 12 456 L 12 486 C 20 486 30 487 41 488 C 52 488 62 489 72 489 C 82 489 90 490 98 490 C 105 490 110 491 112 491 C 116 491 119 490 120 490 C 120 489 121 487 121 483 Z" unicode="j" />
<glyph horiz-adv-x="320" d="M 309 30 L 309 0 L 176 0 L 176 30 C 176 32 176 35 178 39 C 179 42 181 44 184 46 C 189 48 193 51 196 54 C 198 57 200 60 200 64 C 200 68 199 71 198 74 C 197 77 196 81 196 86 L 163 218 C 162 220 161 225 160 233 C 159 241 158 248 158 254 C 156 248 154 242 152 236 C 150 230 148 225 146 222 L 121 172 L 121 72 C 121 64 121 58 123 55 C 125 52 128 49 133 46 C 136 43 138 40 139 38 C 139 35 140 32 140 30 L 140 0 L 17 0 L 17 30 C 17 32 17 35 19 38 C 20 40 22 43 26 46 C 30 49 34 52 36 55 C 38 58 39 64 39 72 L 39 715 C 39 723 37 728 35 731 C 33 734 29 737 25 741 C 21 743 19 746 18 749 C 16 751 16 754 16 757 L 16 787 C 33 787 51 788 69 790 C 87 791 102 792 112 792 C 116 792 119 791 120 790 C 120 789 121 787 121 784 L 121 247 C 123 252 127 260 131 271 C 135 282 139 290 142 296 L 185 381 C 187 384 189 389 191 396 C 193 403 195 409 195 414 C 195 420 193 425 189 429 C 185 433 181 436 177 440 C 173 442 171 445 170 447 C 168 449 168 452 168 456 L 168 486 L 300 486 L 300 458 C 300 453 299 449 297 446 C 295 443 293 441 291 440 C 280 434 271 429 263 423 C 255 417 248 408 242 396 L 213 339 L 281 77 C 283 68 285 61 288 56 C 291 50 295 47 300 45 C 302 43 304 41 306 38 C 308 35 309 32 309 30 Z" unicode="k" />
<glyph horiz-adv-x="160" d="M 143 30 L 143 0 L 17 0 L 17 30 C 17 32 17 35 19 38 C 20 40 22 43 26 46 C 30 49 34 52 36 55 C 38 58 39 64 39 72 L 39 715 C 39 723 38 728 36 731 C 34 734 30 737 26 741 C 22 743 20 746 18 749 C 16 751 16 754 16 757 L 16 787 C 33 787 52 788 73 790 C 94 791 107 792 112 792 C 116 792 119 791 120 790 C 120 789 121 787 121 784 L 121 72 C 121 64 122 58 124 55 C 126 52 129 49 134 46 C 137 43 139 40 141 38 C 142 35 143 32 143 30 Z" unicode="l" />
<glyph horiz-adv-x="470" d="M 452 30 L 452 0 L 328 0 L 328 30 C 328 32 328 35 330 38 C 331 40 333 43 337 46 C 341 49 344 52 346 55 C 348 58 349 64 349 72 L 349 380 C 349 393 345 403 339 410 C 333 416 325 420 316 420 C 309 420 302 417 294 411 C 286 405 280 400 276 396 L 276 72 C 276 64 277 59 279 55 C 281 51 283 48 287 46 C 290 43 292 40 294 38 C 295 35 296 32 296 30 L 296 0 L 175 0 L 175 30 C 175 32 175 35 177 38 C 178 40 180 43 183 46 C 187 49 190 52 192 55 C 193 58 194 64 194 72 L 194 380 C 194 393 191 403 186 410 C 180 416 173 420 163 420 C 156 420 148 416 139 409 C 130 402 124 396 121 391 L 121 72 C 121 64 122 58 124 55 C 126 52 129 49 134 46 C 137 43 139 40 141 38 C 142 35 143 32 143 30 L 143 0 L 17 0 L 17 30 C 17 32 17 35 19 38 C 20 40 22 43 26 46 C 30 49 34 52 36 55 C 38 58 39 64 39 72 L 39 414 C 39 422 38 427 36 430 C 34 433 30 436 26 440 C 22 442 20 445 19 448 C 17 450 17 453 17 456 L 17 486 C 35 486 54 487 74 489 C 94 490 105 491 108 491 C 112 491 115 490 116 490 C 117 489 118 487 118 483 L 118 430 C 128 444 141 458 157 472 C 173 486 189 493 206 493 C 223 493 237 488 248 478 C 259 468 267 453 272 435 C 278 445 290 458 306 472 C 322 486 340 493 359 493 C 383 493 401 484 413 466 C 425 448 431 422 431 386 L 431 72 C 431 64 432 58 434 55 C 436 52 439 49 444 46 C 447 43 449 40 450 38 C 451 35 452 32 452 30 Z" unicode="m" />
<glyph horiz-adv-x="318" d="M 300 30 L 300 0 L 175 0 L 175 30 C 175 32 175 35 176 38 C 177 40 179 43 183 46 C 187 49 191 52 193 55 C 195 58 197 64 197 72 L 197 375 C 197 393 193 405 187 411 C 180 417 172 420 164 420 C 157 420 149 416 140 410 C 131 403 125 397 121 392 L 121 72 C 121 64 122 58 124 55 C 126 52 129 49 134 46 C 137 43 139 40 141 38 C 142 35 143 32 143 30 L 143 0 L 17 0 L 17 30 C 17 32 17 35 19 38 C 20 40 22 43 26 46 C 30 49 34 52 36 55 C 38 58 39 64 39 72 L 39 414 C 39 422 38 427 36 430 C 34 433 30 436 26 440 C 22 442 20 445 19 448 C 17 450 17 453 17 456 L 17 486 C 35 486 53 487 73 489 C 93 490 104 491 108 491 C 112 491 115 490 116 489 C 117 487 118 485 118 483 L 118 433 C 128 445 141 458 156 472 C 171 486 188 493 207 493 C 231 493 249 484 261 466 C 273 448 279 421 279 385 L 279 72 C 279 64 280 59 282 56 C 284 52 287 49 292 46 C 295 43 297 40 298 38 C 299 35 300 32 300 30 Z" unicode="n" />
<glyph horiz-adv-x="296" d="M 148 493 C 170 493 190 486 206 473 C 222 460 236 442 246 420 C 256 397 264 370 269 340 C 274 309 277 277 277 243 C 277 209 274 176 269 146 C 263 116 255 89 245 67 C 235 44 221 26 205 13 C 189 0 170 -7 148 -7 C 125 -7 105 0 89 12 C 73 25 59 43 49 66 C 39 88 31 115 26 146 C 21 176 19 209 19 243 C 19 277 21 309 27 339 C 32 369 40 396 50 419 C 60 441 74 459 90 473 C 106 486 126 493 148 493 Z M 148 43 C 164 43 175 58 181 89 C 186 119 189 171 189 243 C 189 315 186 366 182 398 C 178 429 166 445 148 445 C 131 445 120 429 115 398 C 109 366 107 315 107 243 C 107 171 109 119 113 89 C 117 58 129 43 148 43 Z" unicode="o" />
<glyph horiz-adv-x="310" d="M 199 493 C 231 493 254 472 268 432 C 282 392 290 330 290 246 C 290 166 280 105 262 63 C 244 21 219 0 188 0 C 173 0 160 3 150 11 C 139 18 129 27 121 37 L 121 -92 C 121 -100 123 -105 127 -109 C 131 -113 136 -116 143 -119 C 146 -120 148 -122 149 -125 C 150 -128 151 -131 151 -134 L 151 -164 L 16 -164 L 16 -134 C 16 -131 16 -128 18 -126 C 19 -123 21 -120 25 -118 C 29 -114 33 -111 35 -108 C 37 -105 39 -100 39 -92 L 39 414 C 39 422 38 427 36 430 C 34 433 30 436 26 440 C 22 442 20 445 19 448 C 17 450 17 453 17 456 L 17 486 C 35 486 53 487 73 489 C 93 490 104 491 108 491 C 112 491 115 490 116 490 C 117 489 118 487 118 483 L 118 439 C 126 451 138 463 154 475 C 169 487 184 493 199 493 Z M 151 68 C 172 68 186 83 192 114 C 198 144 202 190 202 251 C 202 316 199 360 193 384 C 187 408 175 420 157 420 C 149 420 142 417 136 413 C 129 409 124 405 121 401 L 121 81 C 124 77 129 74 135 72 C 141 69 146 68 151 68 Z" unicode="p" />
<glyph horiz-adv-x="309" d="M 293 -133 L 293 -164 L 157 -164 L 157 -134 C 157 -131 157 -128 159 -125 C 160 -122 162 -120 166 -119 C 172 -116 178 -113 182 -109 C 186 -105 188 -100 188 -92 L 188 32 C 179 23 169 15 157 7 C 145 -1 133 -5 121 -5 C 84 -5 58 16 43 60 C 27 103 20 163 20 241 C 20 317 31 378 53 424 C 75 470 105 493 143 493 C 153 493 163 490 173 485 C 183 480 193 474 204 467 C 206 465 209 463 211 462 C 213 461 216 461 219 461 C 221 461 224 461 227 462 C 229 462 232 463 235 465 C 238 467 241 470 245 474 C 249 478 252 482 255 487 C 255 487 256 488 258 489 C 259 490 261 491 263 491 C 265 491 267 490 269 489 C 270 487 271 486 271 484 L 271 -91 C 271 -99 272 -104 274 -107 C 276 -110 280 -113 285 -117 C 288 -119 290 -122 291 -125 C 292 -127 293 -130 293 -133 Z M 159 61 C 163 61 169 62 175 64 C 181 66 185 70 189 74 L 189 421 C 186 425 182 428 176 430 C 170 432 164 434 158 434 C 138 434 125 417 118 384 C 111 350 108 306 108 251 C 108 185 110 137 115 107 C 120 76 135 61 159 61 Z" unicode="q" />
<glyph horiz-adv-x="246" d="M 191 493 C 207 493 219 486 226 474 C 233 462 237 450 237 440 C 237 420 232 406 223 397 C 214 387 205 383 196 383 C 189 383 182 385 176 389 C 170 393 165 397 163 401 C 155 392 146 373 136 344 C 126 315 121 278 121 232 L 121 72 C 121 64 123 58 127 54 C 131 50 136 47 143 45 C 146 43 148 41 149 38 C 150 35 151 32 151 30 L 151 0 L 17 0 L 17 30 C 17 32 17 35 19 38 C 20 40 22 43 26 46 C 30 49 34 52 36 55 C 38 58 39 64 39 72 L 39 414 C 39 422 38 427 36 430 C 34 433 30 436 26 440 C 22 442 20 445 19 448 C 17 451 17 454 17 456 L 17 486 C 35 486 51 487 67 488 C 83 489 93 490 99 490 C 103 490 106 489 107 489 C 107 488 108 486 108 482 L 108 356 C 109 363 112 375 118 393 C 123 411 127 423 130 431 C 140 456 151 473 161 481 C 171 489 181 493 191 493 Z" unicode="r" />
<glyph horiz-adv-x="252" d="M 157 290 C 183 268 203 246 218 224 C 232 202 240 174 240 140 C 240 121 237 103 232 85 C 226 67 218 52 208 38 C 198 24 184 13 168 5 C 152 -2 133 -7 112 -7 C 85 -7 61 1 40 19 C 18 36 8 61 8 94 C 8 110 12 124 21 135 C 29 145 41 151 55 151 C 71 151 82 146 90 136 C 98 126 102 115 102 104 C 102 96 100 87 96 79 C 92 70 89 64 86 61 C 88 56 91 52 97 48 C 102 44 109 42 118 42 C 135 42 148 49 156 63 C 164 77 169 92 169 108 C 169 126 163 144 153 161 C 143 178 126 196 104 214 C 76 236 55 259 42 281 C 29 303 23 330 23 362 C 23 404 34 437 58 459 C 82 481 108 493 138 493 C 172 493 197 483 211 465 C 225 447 233 426 233 403 C 233 388 228 376 220 367 C 211 358 202 354 192 354 C 179 354 168 358 160 366 C 152 374 148 384 148 398 C 148 405 149 412 152 419 C 154 425 157 430 160 433 C 158 435 155 438 151 441 C 147 443 142 445 134 445 C 125 445 116 441 106 433 C 96 425 91 411 91 393 C 91 371 95 354 105 341 C 115 327 132 310 157 290 Z" unicode="s" />
<glyph horiz-adv-x="193" d="M 179 40 C 179 38 180 36 181 34 C 181 32 182 31 182 31 C 182 30 181 29 180 28 C 179 26 178 25 177 24 C 169 16 158 8 145 2 C 132 -3 120 -7 108 -7 C 88 -7 71 0 58 11 C 45 23 39 48 39 86 L 39 429 L 7 429 L 7 458 C 7 462 7 466 9 469 C 10 471 12 473 15 474 C 21 476 27 479 31 483 C 35 487 38 496 40 509 C 40 517 41 533 43 557 C 44 580 45 601 46 619 C 46 627 48 633 50 635 C 52 637 57 639 67 640 L 121 645 L 121 486 L 176 486 L 176 429 L 121 429 L 121 103 C 121 86 123 75 129 70 C 135 64 141 62 148 62 C 152 62 155 62 159 63 C 162 64 165 65 167 65 C 168 65 169 64 170 63 C 171 62 172 61 173 59 L 179 40 Z" unicode="t" />
<glyph horiz-adv-x="318" d="M 300 30 L 300 0 L 209 0 C 206 0 204 0 203 2 C 201 3 201 5 201 8 L 201 54 C 188 37 175 23 161 11 C 147 -1 132 -7 116 -7 C 100 -7 87 -3 77 4 C 67 11 59 20 53 31 C 47 42 44 55 42 69 C 40 83 39 98 39 112 L 39 414 C 39 422 38 427 36 430 C 34 433 30 436 26 440 C 22 442 20 445 19 448 C 17 450 17 453 17 456 L 17 486 C 35 486 54 487 75 489 C 95 490 108 491 112 491 C 116 491 119 490 120 489 C 120 487 121 485 121 483 L 121 105 C 121 89 124 78 131 73 C 138 68 145 66 152 66 C 160 66 169 69 177 75 C 185 81 191 87 197 95 L 197 414 C 197 422 196 427 194 430 C 192 433 188 436 184 440 C 180 442 178 445 177 448 C 175 451 175 454 175 456 L 175 486 C 183 486 193 487 203 488 C 213 488 223 489 233 489 C 242 489 250 490 257 490 C 263 490 267 491 269 491 C 273 491 276 490 277 490 C 278 489 279 487 279 483 L 279 72 C 279 64 280 58 282 55 C 284 52 287 49 292 46 C 295 43 297 40 298 38 C 299 35 300 32 300 30 Z" unicode="u" />
<glyph horiz-adv-x="292" d="M 286 486 L 286 456 C 286 453 285 450 284 448 C 282 445 280 442 277 440 C 272 436 268 431 264 425 C 260 419 258 411 256 403 L 168 0 C 167 -2 166 -4 164 -5 C 162 -6 160 -7 158 -7 L 131 -7 C 128 -7 126 -6 124 -5 C 122 -4 121 -2 121 0 L 34 410 C 32 418 29 425 26 429 C 22 433 19 437 15 440 C 11 442 9 445 8 448 C 6 450 6 453 6 456 L 6 486 L 141 486 L 141 456 C 141 453 140 450 139 448 C 137 445 135 442 132 440 C 127 436 123 433 121 429 C 118 425 117 421 117 415 C 117 411 117 407 118 401 C 119 395 120 388 122 382 L 146 260 C 149 243 152 224 154 202 C 156 180 159 160 161 144 C 163 160 165 180 167 202 C 169 224 172 243 176 260 L 203 390 C 203 395 204 400 205 405 C 205 409 206 413 206 417 C 206 421 203 426 199 430 C 195 434 190 437 186 440 C 182 442 180 445 179 448 C 177 450 177 453 177 456 L 177 486 L 286 486 Z" unicode="v" />
<glyph horiz-adv-x="431" d="M 425 486 L 425 456 C 425 453 424 450 423 448 C 421 446 419 443 417 441 C 412 437 408 432 404 426 C 400 420 398 412 396 403 L 317 0 C 316 -3 315 -5 313 -6 C 311 -6 308 -7 306 -7 L 282 -7 C 279 -7 277 -6 276 -5 C 274 -4 273 -2 273 0 L 231 229 C 229 240 226 256 223 277 C 219 298 217 317 216 333 C 214 317 212 298 210 277 C 207 256 204 240 202 228 L 157 0 C 156 -3 155 -5 153 -6 C 151 -6 148 -7 146 -7 L 122 -7 C 119 -7 117 -6 116 -5 C 114 -4 113 -2 113 0 L 34 410 C 32 419 29 426 26 430 C 22 434 19 437 15 440 C 11 442 9 445 8 448 C 6 450 6 453 6 456 L 6 486 L 140 486 L 140 456 C 140 453 139 450 138 448 C 136 445 134 442 132 440 C 127 436 123 433 121 430 C 118 427 117 423 117 418 C 117 415 117 409 118 401 C 119 393 120 386 121 380 L 137 280 C 139 267 141 248 144 223 C 146 197 149 176 151 159 C 153 176 156 197 160 222 C 163 246 166 265 169 278 L 209 478 C 209 480 210 482 212 484 C 213 485 215 486 218 486 L 242 486 C 244 486 246 485 248 483 C 249 481 250 479 250 477 L 290 278 C 291 271 292 262 294 252 C 296 241 297 230 299 219 C 300 207 301 196 303 185 C 305 174 306 165 307 157 C 309 173 311 194 315 218 C 318 242 321 262 324 276 L 343 377 C 344 383 345 390 346 396 C 347 402 348 408 348 413 C 348 419 345 424 340 428 C 334 432 329 436 325 440 C 321 442 319 445 318 448 C 317 450 317 453 317 456 L 317 486 L 425 486 Z" unicode="w" />
<glyph horiz-adv-x="309" d="M 303 30 L 303 0 L 167 0 L 167 30 C 167 33 167 36 169 39 C 170 41 172 44 176 47 C 178 48 180 50 182 52 C 184 54 185 58 185 62 C 185 65 184 69 182 75 C 180 80 178 86 176 92 L 152 153 C 151 156 150 161 148 167 C 146 173 144 180 143 187 C 141 180 140 174 138 168 C 136 162 134 156 132 152 L 110 98 C 108 94 107 89 105 83 C 103 77 102 73 102 69 C 102 65 103 61 107 58 C 110 55 115 52 122 48 C 126 46 129 43 131 40 C 133 37 134 34 134 30 L 134 0 L 6 0 L 6 30 C 6 32 6 35 8 39 C 10 43 13 45 17 47 C 28 51 37 57 43 66 C 49 75 55 86 61 99 L 118 228 L 40 409 C 36 417 32 424 29 429 C 26 433 22 437 18 440 C 14 442 12 445 11 448 C 9 450 9 453 9 456 L 9 486 L 145 486 L 145 456 C 145 453 144 450 143 448 C 142 445 140 442 137 440 C 134 438 131 436 129 434 C 127 431 126 428 126 425 C 126 421 126 416 127 410 C 128 404 130 399 132 395 L 158 330 C 158 327 160 322 163 314 C 165 306 167 300 168 296 C 168 300 170 306 172 314 C 174 321 175 326 177 330 L 199 382 C 200 386 202 391 204 399 C 206 407 208 413 208 419 C 208 423 206 427 204 430 C 201 433 197 436 193 440 C 190 442 188 445 187 448 C 185 451 185 454 185 456 L 185 486 L 298 486 L 298 456 C 298 453 297 450 297 447 C 296 444 294 442 290 440 C 282 436 276 431 270 423 C 264 415 258 402 250 384 L 193 254 L 267 83 C 271 74 275 67 279 61 C 283 55 287 50 292 47 C 296 44 298 41 300 38 C 302 35 303 32 303 30 Z" unicode="x" />
<glyph horiz-adv-x="292" d="M 286 486 L 286 456 C 286 453 285 450 284 448 C 282 445 280 442 277 440 C 272 436 268 431 264 424 C 260 417 257 410 256 403 L 168 0 C 157 -48 144 -88 128 -121 C 112 -154 89 -171 58 -171 C 42 -171 29 -165 19 -155 C 9 -144 5 -131 5 -117 C 5 -103 9 -91 17 -81 C 25 -71 37 -66 51 -66 C 57 -66 63 -68 69 -73 C 75 -77 79 -82 83 -87 C 83 -87 84 -88 85 -89 C 86 -90 87 -91 88 -91 C 88 -91 89 -90 91 -89 C 92 -88 93 -86 95 -84 C 99 -78 103 -69 108 -56 C 112 -43 116 -29 119 -15 C 119 -12 120 -9 120 -7 C 120 -4 120 -2 120 0 C 120 1 120 3 120 5 C 120 7 119 9 119 11 L 34 410 C 32 418 30 424 26 429 C 22 433 19 437 15 440 C 11 442 9 445 8 448 C 6 450 6 453 6 456 L 6 486 L 141 486 L 141 456 C 141 453 140 450 139 448 C 137 445 135 442 132 440 C 127 436 123 433 121 430 C 118 426 117 422 117 418 C 117 414 117 409 118 404 C 118 398 119 392 121 386 L 146 260 C 149 243 152 224 154 202 C 156 180 159 160 161 144 C 163 160 165 180 167 202 C 169 224 172 243 176 260 L 201 380 C 202 387 203 393 204 399 C 205 405 206 410 206 414 C 206 420 204 424 201 428 C 197 432 192 436 186 440 C 182 442 180 444 179 447 C 177 450 177 453 177 456 L 177 486 L 286 486 Z" unicode="y" />
<glyph horiz-adv-x="255" d="M 243 486 L 243 447 C 243 442 242 438 242 435 C 241 432 240 429 238 425 L 103 82 C 102 78 101 74 99 70 C 97 65 96 62 96 61 C 96 58 97 56 100 56 C 102 56 105 56 107 56 L 133 56 C 151 56 164 62 173 74 C 181 86 188 107 194 138 C 194 143 196 146 198 147 C 200 148 203 149 206 149 L 232 149 L 232 8 C 232 5 231 3 231 1 C 231 -1 229 -2 227 -2 C 224 -2 219 -1 212 -1 C 205 0 198 0 192 0 L 12 0 L 12 49 C 12 54 12 59 12 63 C 12 67 14 71 16 76 L 157 434 L 114 434 C 98 434 87 427 80 413 C 72 399 67 383 64 363 C 63 358 62 355 60 354 C 58 352 54 352 50 352 L 24 352 L 24 482 C 24 485 24 487 25 489 C 25 490 27 491 29 491 C 31 491 35 490 43 488 C 51 486 58 486 64 486 L 243 486 Z" unicode="z" />
<glyph horiz-adv-x="244" d="M 224 -60 L 224 -105 C 180 -105 146 -88 120 -54 C 94 -20 82 21 82 73 L 82 223 C 82 247 78 268 71 288 C 64 307 47 317 21 317 L 21 365 C 47 365 64 374 71 394 C 78 413 82 435 82 459 L 82 609 C 82 660 94 702 120 736 C 146 770 180 787 224 787 L 224 742 C 203 742 188 733 180 716 C 172 698 168 664 168 612 L 168 511 C 168 495 166 478 163 460 C 159 442 154 425 147 409 C 140 393 131 378 119 366 C 107 354 94 345 78 341 C 94 336 107 327 119 315 C 131 303 140 289 147 273 C 154 257 159 240 163 222 C 166 204 168 187 168 171 L 168 70 C 168 18 172 -16 180 -34 C 188 -51 203 -60 224 -60 Z" unicode="{" />
<glyph horiz-adv-x="52" d="M 52 787 L 52 -164 L 0 -164 L 0 787 L 52 787 Z" unicode="|" />
<glyph horiz-adv-x="244" d="M 224 365 L 224 317 C 197 317 180 307 173 288 C 166 268 163 247 163 223 L 163 73 C 163 21 150 -20 124 -54 C 98 -88 63 -105 21 -105 L 21 -60 C 41 -60 56 -51 64 -34 C 72 -16 77 18 77 70 L 77 171 C 77 187 78 204 82 222 C 85 240 90 257 97 273 C 104 289 113 303 125 315 C 136 327 150 336 166 341 C 150 345 136 354 125 366 C 113 378 104 393 97 409 C 90 425 85 442 82 460 C 78 478 77 495 77 511 L 77 612 C 77 664 72 698 64 716 C 56 733 41 742 21 742 L 21 787 C 63 787 98 770 124 736 C 150 702 163 660 163 609 L 163 459 C 163 435 166 413 173 394 C 180 374 197 365 224 365 Z" unicode="}" />
<glyph horiz-adv-x="478" d="M 403 417 L 445 417 C 443 370 430 330 406 298 C 382 266 353 250 317 250 C 303 250 289 253 277 260 C 265 267 249 278 231 294 C 215 306 200 317 187 327 C 174 336 161 341 148 341 C 127 341 112 330 103 309 C 94 287 88 265 86 243 L 44 243 C 45 290 58 329 82 361 C 106 393 135 409 171 409 C 189 409 204 405 216 399 C 228 393 242 383 259 370 C 275 357 290 345 303 335 C 315 324 328 319 341 319 C 351 319 360 322 367 328 C 374 334 380 341 385 351 C 390 361 394 371 397 383 C 399 395 401 406 403 417 Z" unicode="~" />
<glyph horiz-adv-x="158" d="" unicode="" />
<glyph horiz-adv-x="181" d="M 90 636 C 106 636 121 629 133 617 C 145 604 152 589 152 573 C 152 556 145 541 133 529 C 121 516 106 510 90 510 C 73 510 58 516 46 529 C 34 541 28 556 28 573 C 28 589 34 604 46 617 C 58 629 73 636 90 636 Z M 125 142 C 129 84 134 33 139 -10 C 143 -54 146 -84 146 -98 C 146 -112 142 -128 136 -145 C 129 -162 114 -171 90 -171 C 66 -171 51 -162 44 -145 C 37 -128 34 -112 34 -98 C 34 -82 36 -53 41 -9 C 46 34 51 84 56 141 C 58 160 59 182 61 208 C 62 233 63 259 64 285 C 65 311 66 336 67 360 C 68 384 69 404 70 421 C 70 425 71 428 73 429 C 75 430 80 431 90 431 C 99 431 105 430 107 429 C 109 428 111 425 111 421 C 111 404 112 384 113 360 C 114 336 115 311 117 285 C 118 259 119 234 121 209 C 122 183 123 161 125 142 Z" unicode="" />
<glyph horiz-adv-x="264" d="M 237 236 C 239 235 241 234 243 232 C 244 230 245 226 245 220 C 245 213 243 204 241 193 C 238 182 234 171 228 161 C 222 150 213 140 203 131 C 193 122 180 116 165 114 L 165 -9 L 125 -9 L 125 113 C 106 115 90 123 77 136 C 63 148 52 165 44 185 C 35 205 29 228 25 254 C 21 280 19 307 19 337 C 19 365 21 393 25 419 C 29 445 36 469 45 489 C 54 509 65 525 79 538 C 92 550 107 558 125 561 L 125 666 L 165 666 L 165 560 C 188 555 206 544 219 526 C 231 508 238 490 238 472 C 238 459 234 448 227 438 C 219 428 209 423 197 423 C 185 423 175 427 167 437 C 159 446 156 456 156 467 C 156 474 157 480 159 485 C 161 490 164 494 167 496 C 165 502 162 507 158 511 C 154 514 148 516 140 516 C 127 516 117 505 111 484 C 104 463 101 422 101 360 C 101 299 104 252 110 219 C 116 186 132 170 157 170 C 171 170 182 177 190 192 C 197 206 202 221 205 235 C 205 237 206 239 208 241 C 209 242 210 242 212 242 L 237 236 Z" unicode="" />
<glyph horiz-adv-x="356" d="M 328 128 L 354 89 C 342 57 328 33 312 16 C 296 0 276 -9 254 -9 C 239 -9 222 -1 204 14 C 186 29 171 43 161 55 C 151 33 139 17 125 7 C 110 -3 94 -9 78 -9 C 60 -9 43 -1 27 14 C 11 30 4 52 4 81 C 4 115 12 139 29 155 C 45 170 61 178 76 178 C 86 178 96 176 106 173 C 116 170 125 165 134 157 L 134 172 C 134 198 131 226 127 255 C 123 283 116 313 108 344 L 22 344 L 22 404 L 92 404 C 85 429 79 455 74 483 C 68 510 66 537 66 565 C 66 590 68 616 74 644 C 80 671 89 696 101 719 C 113 741 128 760 148 775 C 167 789 190 797 217 797 C 238 797 256 792 271 784 C 286 775 298 764 308 751 C 317 737 324 722 328 706 C 332 689 335 673 335 658 C 335 641 330 625 321 611 C 312 596 300 589 284 589 C 269 589 257 595 248 607 C 239 619 235 633 235 651 C 235 661 237 670 242 680 C 246 690 251 696 256 700 C 256 709 252 718 245 728 C 238 738 228 743 215 743 C 200 743 189 737 181 726 C 173 715 167 701 164 685 C 160 669 158 651 158 631 C 158 611 158 593 158 577 C 158 549 160 521 164 491 C 168 461 173 432 180 404 L 309 404 L 309 344 L 192 344 C 195 324 197 306 199 288 C 201 270 202 254 202 239 C 202 218 199 197 194 177 C 189 156 184 139 180 125 C 190 115 203 107 219 100 C 234 93 247 90 259 90 C 274 90 287 93 298 101 C 309 109 319 118 328 128 Z M 80 47 C 91 47 100 51 106 60 C 112 68 118 79 122 92 C 117 99 111 105 104 111 C 97 116 89 119 81 119 C 73 119 66 115 60 109 C 54 103 51 95 51 85 C 51 76 53 67 58 59 C 62 51 70 47 80 47 Z" unicode="" />
<glyph horiz-adv-x="384" d="M 355 186 C 355 166 352 144 347 121 C 342 98 335 77 325 58 C 315 38 301 22 285 9 C 268 -3 248 -10 226 -10 C 200 -10 178 -1 159 15 C 140 31 124 54 112 82 C 99 110 89 142 82 179 C 75 216 70 255 68 295 L 21 295 L 21 351 L 65 351 L 65 381 C 65 389 65 398 65 408 C 65 417 66 426 67 435 L 21 435 L 21 491 L 70 491 C 74 533 81 573 91 611 C 101 648 113 680 128 708 C 143 736 161 757 181 773 C 201 789 224 797 250 797 C 281 797 306 788 325 771 C 343 753 353 729 353 697 C 353 680 348 666 338 654 C 328 642 316 637 304 637 C 290 637 277 642 267 652 C 257 662 252 676 252 693 C 252 698 253 704 256 712 C 259 719 261 724 263 728 C 263 731 261 734 257 738 C 253 741 248 743 241 743 C 214 743 193 720 179 674 C 164 628 155 567 152 491 L 280 491 L 280 435 L 149 435 L 149 351 L 256 351 L 256 295 L 153 295 C 155 210 164 150 178 114 C 192 78 212 61 236 61 C 248 61 259 66 269 76 C 278 86 285 99 291 114 C 297 128 301 144 304 160 C 307 176 309 189 309 201 L 351 196 C 352 196 353 195 354 194 C 354 193 355 190 355 186 Z" unicode="" />
<glyph horiz-adv-x="367" d="M 358 787 L 358 758 C 358 753 357 749 355 745 C 353 741 351 739 348 738 C 339 735 333 731 330 726 C 326 721 323 711 319 696 L 257 463 L 340 463 L 340 403 L 240 403 L 223 341 L 223 303 L 340 303 L 340 243 L 223 243 L 223 93 C 223 82 224 74 226 68 C 228 62 233 58 243 54 C 247 52 249 50 251 46 C 253 42 254 38 254 34 L 254 0 L 107 0 L 107 34 C 107 38 107 42 109 46 C 110 50 113 52 117 54 C 127 58 132 62 134 68 C 136 74 137 82 137 93 L 137 243 L 27 243 L 27 303 L 137 303 L 137 313 L 117 403 L 27 403 L 27 463 L 103 463 L 46 696 C 42 710 38 720 34 726 C 30 732 25 735 21 737 C 15 738 12 741 11 745 C 9 749 9 753 9 758 L 9 787 L 161 787 L 161 758 C 161 753 160 749 159 745 C 158 741 156 739 152 738 C 145 735 140 732 136 728 C 132 724 131 719 131 714 C 131 708 132 701 134 692 C 136 682 139 672 142 662 L 179 505 C 179 500 180 493 182 485 C 184 477 186 468 188 458 C 190 448 191 439 193 429 C 195 419 196 411 197 405 C 199 418 202 436 206 458 C 210 480 213 496 216 506 L 257 669 C 259 677 260 684 262 692 C 264 700 265 706 265 712 C 265 717 262 722 258 727 C 254 731 248 735 242 738 C 238 739 236 741 234 745 C 232 749 232 753 232 758 L 232 787 L 358 787 Z" unicode="" />
<glyph horiz-adv-x="341" d="M 249 475 C 270 454 286 430 298 403 C 310 375 316 343 316 307 C 316 275 309 248 296 224 C 283 200 269 182 254 172 C 272 148 285 124 292 102 C 299 79 303 57 303 35 C 303 9 299 -14 291 -35 C 283 -55 273 -73 260 -87 C 247 -101 232 -112 215 -120 C 198 -128 181 -132 163 -132 C 137 -132 116 -128 100 -120 C 83 -112 70 -103 60 -92 C 50 -80 44 -68 40 -55 C 36 -42 34 -30 34 -20 C 34 -4 39 9 49 23 C 59 36 72 43 89 43 C 105 43 117 37 126 26 C 135 14 140 0 140 -16 C 140 -24 137 -33 133 -42 C 129 -50 124 -56 120 -59 C 120 -61 124 -67 132 -75 C 140 -83 151 -87 167 -87 C 182 -87 196 -79 210 -64 C 224 -48 231 -29 231 -6 C 231 10 228 27 224 45 C 220 62 209 80 192 98 C 178 111 162 128 142 148 C 122 168 107 184 97 194 C 75 214 58 238 46 266 C 34 293 29 325 29 362 C 29 394 35 422 49 446 C 63 469 77 486 92 497 C 73 521 60 544 53 567 C 46 590 43 612 43 633 C 43 658 46 681 54 702 C 62 722 72 740 85 754 C 97 768 112 778 129 786 C 145 793 163 797 181 797 C 206 797 227 793 244 785 C 260 777 273 768 283 756 C 293 744 300 732 304 719 C 308 705 310 693 310 683 C 310 668 305 654 295 641 C 285 627 272 621 256 621 C 240 621 227 626 218 638 C 208 649 204 663 204 679 C 204 687 206 696 211 705 C 215 714 220 720 225 723 C 225 725 221 731 213 739 C 205 747 193 752 178 752 C 162 752 148 744 134 730 C 120 715 114 696 114 674 C 114 657 116 640 121 623 C 125 606 136 589 154 571 C 167 557 184 540 204 520 C 224 500 239 485 249 475 Z M 228 203 C 232 208 235 217 238 229 C 241 241 243 253 243 264 C 243 286 239 307 231 329 C 223 350 209 372 187 396 C 179 404 169 415 156 429 C 142 443 130 455 119 466 C 114 460 110 451 107 439 C 104 427 103 415 103 405 C 103 383 106 361 113 340 C 120 319 135 297 158 273 C 166 265 176 253 190 239 C 203 225 216 213 228 203 Z" unicode="" />
<glyph horiz-adv-x="292" d="M 210 664 C 222 664 233 659 242 650 C 251 640 256 629 256 617 C 256 604 251 593 242 584 C 233 574 222 570 210 570 C 197 570 186 574 177 584 C 168 593 164 604 164 617 C 164 629 168 640 177 650 C 186 659 197 664 210 664 Z M 79 664 C 91 664 102 659 111 650 C 120 640 125 629 125 617 C 125 604 120 593 111 584 C 102 574 91 570 79 570 C 66 570 55 574 46 584 C 37 593 33 604 33 617 C 33 629 37 640 46 650 C 55 659 66 664 79 664 Z" unicode="" />
<glyph horiz-adv-x="810" d="M 405 723 C 457 723 505 713 551 694 C 596 674 635 648 668 616 C 701 583 727 544 747 499 C 766 454 776 406 776 356 C 776 305 766 257 747 213 C 727 168 701 129 668 96 C 635 63 596 37 551 18 C 505 0 457 -10 405 -10 C 353 -10 304 0 259 18 C 213 37 174 63 141 96 C 108 129 82 168 63 213 C 43 257 34 305 34 356 C 34 406 43 454 63 499 C 82 544 108 583 141 616 C 174 648 213 674 259 694 C 304 713 353 723 405 723 Z M 405 27 C 451 27 494 35 534 53 C 574 70 608 93 638 123 C 668 153 691 188 708 228 C 725 268 734 310 734 356 C 734 401 725 444 708 484 C 691 524 668 559 638 589 C 608 619 574 642 534 660 C 494 677 451 686 405 686 C 359 686 316 677 276 660 C 236 642 201 619 172 589 C 142 559 119 524 102 484 C 85 444 77 401 77 356 C 77 310 85 268 102 228 C 119 188 142 153 172 123 C 201 93 236 70 276 53 C 316 35 359 27 405 27 Z M 545 270 L 576 240 C 571 229 564 218 554 206 C 544 194 532 184 518 174 C 504 164 489 156 471 150 C 453 143 433 140 412 140 C 379 140 350 145 325 157 C 299 169 278 184 261 204 C 244 223 231 245 223 271 C 214 297 210 324 210 352 C 210 387 216 418 228 445 C 240 472 255 495 274 513 C 293 531 314 544 338 553 C 361 562 384 567 407 567 C 425 567 442 564 457 560 C 472 556 488 549 505 539 C 506 538 507 537 508 536 C 509 535 510 535 512 536 C 517 539 521 541 523 543 C 525 544 528 545 531 545 L 555 545 L 555 424 L 525 424 C 519 424 514 425 512 428 C 509 431 507 435 506 439 C 499 459 488 478 473 495 C 457 511 439 520 417 520 C 404 520 391 517 377 511 C 363 505 351 495 340 482 C 329 468 320 451 313 430 C 305 409 302 384 302 355 C 302 303 312 263 334 235 C 356 207 383 193 415 193 C 431 193 447 195 461 201 C 475 207 487 213 498 221 C 508 229 518 237 526 246 C 534 255 540 263 545 270 Z" unicode="" />
<glyph horiz-adv-x="316" d="M 297 359 C 297 358 298 357 298 355 C 298 353 298 352 298 352 C 298 350 297 349 297 348 C 297 346 296 345 295 344 C 290 337 284 332 277 328 C 269 324 260 322 250 322 C 237 322 226 325 216 333 C 206 341 199 355 195 376 C 185 357 174 343 161 335 C 148 326 133 322 116 322 C 94 322 76 331 60 351 C 44 370 37 401 37 443 C 37 485 50 522 76 556 C 102 590 139 612 186 623 L 186 673 C 186 699 183 718 177 731 C 171 744 162 751 148 751 C 139 751 132 749 128 746 C 123 742 121 739 121 737 C 123 734 124 730 126 726 C 128 721 129 715 129 708 C 129 696 125 686 119 676 C 113 666 104 661 92 661 C 78 661 68 666 61 677 C 54 687 51 699 51 713 C 51 735 60 754 78 771 C 96 788 120 797 149 797 C 191 797 221 783 238 756 C 254 728 263 689 263 637 L 263 411 C 263 397 264 388 267 384 C 270 380 274 378 279 378 C 279 378 281 378 283 378 C 285 378 286 379 287 379 C 288 379 289 378 290 377 C 291 376 292 374 293 372 L 297 359 Z M 148 388 C 160 388 169 394 176 406 C 182 418 186 431 186 446 L 186 574 C 163 567 145 553 133 532 C 120 511 114 487 114 459 C 114 432 117 413 124 403 C 130 393 138 388 148 388 Z" unicode="" />
<glyph horiz-adv-x="330" d="M 241 256 L 301 77 L 250 77 L 175 224 C 172 228 170 233 168 238 C 166 243 165 249 165 256 C 165 262 166 268 168 273 C 170 278 172 283 175 288 L 250 435 L 301 435 L 241 256 Z M 108 256 L 167 77 L 117 77 L 42 224 C 39 228 37 233 35 238 C 33 243 32 249 32 256 C 32 262 33 268 35 273 C 37 278 39 283 42 288 L 117 435 L 167 435 L 108 256 Z" unicode="" />
<glyph horiz-adv-x="478" d="M 422 367 L 422 142 L 358 142 L 358 306 L 46 306 L 46 367 L 422 367 Z" unicode="" />
<glyph horiz-adv-x="181" d="M 157 297 L 157 221 L 24 221 L 24 297 L 157 297 Z" unicode="" />
<glyph horiz-adv-x="500" d="M 250 796 C 281 796 311 789 339 777 C 367 765 392 748 413 728 C 434 707 451 682 463 654 C 475 626 482 596 482 565 C 482 533 475 503 463 475 C 451 447 434 422 413 402 C 392 381 367 365 339 353 C 311 341 281 335 250 335 C 218 335 188 341 160 353 C 132 365 107 381 86 402 C 65 422 48 447 36 475 C 24 503 18 533 18 565 C 18 596 24 626 36 654 C 48 682 65 707 86 728 C 107 748 132 765 160 777 C 188 789 218 796 250 796 Z M 250 368 C 277 368 303 373 327 383 C 351 393 371 407 389 425 C 407 443 421 464 431 488 C 441 512 447 537 447 565 C 447 592 441 618 431 642 C 421 666 407 687 389 705 C 371 723 351 737 327 747 C 303 757 277 763 250 763 C 222 763 197 757 173 747 C 149 737 128 723 110 705 C 92 687 78 666 68 642 C 58 618 53 592 53 565 C 53 537 58 512 68 488 C 78 464 92 443 110 425 C 128 407 149 393 173 383 C 197 373 222 368 250 368 Z M 306 541 L 353 439 L 299 439 L 255 534 L 216 534 L 216 439 L 164 439 L 164 691 L 266 691 C 287 691 307 684 325 671 C 343 658 353 639 353 614 C 353 597 349 582 341 570 C 333 557 322 547 306 541 Z M 261 583 C 267 583 275 585 284 590 C 292 594 297 602 297 613 C 297 623 293 631 286 636 C 279 640 271 643 262 643 L 216 643 L 216 583 L 261 583 Z" unicode="" />
<glyph horiz-adv-x="292" d="M 250 643 L 250 589 L 43 589 L 43 643 L 250 643 Z" unicode="" />
<glyph horiz-adv-x="332" d="M 166 797 C 203 797 235 783 262 757 C 288 731 302 699 302 662 C 302 624 288 592 262 566 C 235 540 203 527 166 527 C 128 527 96 540 70 566 C 43 592 30 624 30 662 C 30 699 43 731 70 757 C 96 783 128 797 166 797 Z M 166 583 C 188 583 205 591 219 607 C 232 623 239 641 239 662 C 239 682 232 701 219 717 C 205 733 188 741 166 741 C 144 741 126 733 113 717 C 99 701 93 682 93 662 C 93 641 99 623 113 607 C 126 591 144 583 166 583 Z" unicode="" />
<glyph horiz-adv-x="478" d="M 432 377 L 432 316 L 271 316 L 271 152 L 207 152 L 207 316 L 46 316 L 46 377 L 207 377 L 207 541 L 271 541 L 271 377 L 432 377 Z M 432 61 L 432 0 L 46 0 L 46 61 L 432 61 Z" unicode="" />
<glyph horiz-adv-x="300" d="M 145 797 C 182 797 209 785 225 762 C 241 739 250 712 250 682 C 250 646 242 614 227 586 C 212 558 192 529 168 497 C 155 481 142 462 128 442 C 114 421 105 403 100 388 L 174 388 C 186 388 194 390 198 394 C 202 398 206 406 209 419 C 210 425 212 429 214 431 C 216 433 220 434 224 434 L 249 434 L 249 332 C 249 324 248 319 246 318 C 244 317 241 317 239 317 C 237 317 233 317 229 318 C 224 319 218 320 210 320 L 45 320 L 45 358 C 45 362 46 370 50 381 C 54 392 58 404 64 417 C 70 430 76 443 83 456 C 89 469 96 480 102 489 C 126 525 144 559 157 591 C 170 623 177 654 177 682 C 177 702 174 719 168 733 C 162 747 153 754 142 754 C 134 754 128 752 124 748 C 120 744 117 740 117 736 C 120 733 123 728 126 722 C 129 716 131 710 131 704 C 131 692 127 682 120 674 C 113 665 103 661 91 661 C 78 661 68 666 61 676 C 54 686 51 697 51 709 C 51 718 53 728 57 738 C 61 748 67 758 75 767 C 83 775 93 782 105 788 C 117 794 130 797 145 797 Z" unicode="" />
<glyph horiz-adv-x="297" d="M 175 577 C 193 568 209 554 223 535 C 237 515 244 490 244 460 C 244 440 241 422 236 404 C 231 386 224 370 214 357 C 204 343 191 333 177 325 C 162 317 145 313 126 313 C 99 313 78 321 62 338 C 46 355 38 374 38 395 C 38 407 41 418 49 427 C 57 435 66 440 76 440 C 86 440 95 436 103 429 C 111 421 115 412 115 401 C 115 398 114 393 112 387 C 110 381 106 375 102 371 C 102 366 105 362 110 360 C 115 357 121 356 127 356 C 145 356 157 366 163 387 C 169 407 173 434 173 468 C 173 498 167 520 155 534 C 143 547 126 554 103 555 L 103 599 C 128 599 146 606 157 620 C 167 634 173 655 173 685 C 173 705 170 722 165 735 C 160 747 151 754 139 754 C 134 754 129 753 125 751 C 120 749 117 747 115 744 C 119 739 122 734 124 730 C 126 725 127 720 127 714 C 127 703 123 694 116 687 C 108 679 100 676 92 676 C 81 676 72 679 65 687 C 57 694 54 704 54 718 C 54 740 63 759 81 774 C 99 789 120 797 142 797 C 166 797 189 788 210 770 C 231 752 242 726 242 691 C 242 664 235 641 221 621 C 207 601 192 586 175 577 Z" unicode="" />
<glyph horiz-adv-x="292" d="M 201 712 C 211 712 220 707 226 698 C 232 689 235 679 235 669 C 235 660 232 651 227 643 C 222 635 214 627 204 620 L 98 543 L 76 563 L 160 686 C 167 697 174 704 181 707 C 188 710 195 712 201 712 Z" unicode="" />
<glyph horiz-adv-x="440" d="M 412 -94 L 412 -123 L 318 -123 L 318 733 L 273 733 L 273 -123 L 178 -123 L 178 -94 C 178 -89 178 -85 180 -81 C 182 -77 184 -75 188 -74 C 198 -70 205 -65 207 -59 C 209 -53 210 -45 210 -35 L 210 364 C 198 364 182 365 162 368 C 142 370 122 378 102 392 C 82 405 64 426 49 455 C 34 484 27 525 27 578 C 27 639 41 689 69 728 C 97 767 143 787 209 787 L 412 787 L 412 758 C 412 753 411 749 409 745 C 407 741 405 739 401 738 C 391 734 385 729 383 723 C 381 717 380 709 380 699 L 380 -35 C 380 -45 381 -53 383 -59 C 385 -65 391 -70 401 -74 C 405 -75 407 -77 409 -81 C 411 -85 412 -89 412 -94 Z M 142 591 C 142 568 143 546 145 526 C 147 506 150 488 156 472 C 161 456 168 444 177 435 C 185 425 196 421 210 421 L 210 737 C 195 737 183 732 174 724 C 165 716 158 705 153 691 C 148 677 145 662 144 644 C 142 626 142 609 142 591 Z" unicode="" />
<glyph horiz-adv-x="150" d="M 75 444 C 90 444 103 438 115 427 C 126 415 132 402 132 387 C 132 371 126 358 115 347 C 103 335 90 330 75 330 C 59 330 46 335 35 347 C 24 358 19 371 19 387 C 19 402 24 415 35 427 C 46 438 59 444 75 444 Z" unicode="" />
<glyph horiz-adv-x="292" d="M 160 -39 C 176 -39 190 -43 203 -52 C 215 -61 222 -76 222 -98 C 222 -112 216 -128 206 -145 C 195 -162 175 -171 147 -171 C 132 -171 119 -169 108 -165 C 96 -161 87 -157 79 -152 C 76 -150 74 -148 73 -147 C 72 -145 72 -144 72 -142 C 72 -140 72 -139 73 -137 C 73 -135 74 -133 75 -131 C 76 -127 78 -124 80 -122 C 82 -120 83 -119 85 -119 C 85 -119 86 -119 87 -119 C 88 -119 89 -120 90 -121 C 96 -125 104 -128 112 -131 C 120 -134 128 -136 136 -136 C 147 -136 155 -132 160 -124 C 164 -116 167 -109 167 -101 C 167 -89 163 -81 157 -77 C 151 -73 145 -71 140 -71 C 133 -71 127 -71 122 -73 C 116 -75 112 -76 108 -76 C 106 -76 105 -75 104 -74 C 102 -72 102 -71 102 -70 C 102 -68 102 -67 103 -65 C 104 -63 105 -60 106 -58 L 129 0 L 161 0 L 143 -41 C 144 -40 146 -39 149 -39 C 152 -39 156 -39 160 -39 Z" unicode="" />
<glyph horiz-adv-x="246" d="M 194 342 L 194 319 L 55 319 L 55 342 C 55 346 56 349 58 353 C 60 356 63 358 66 359 C 75 361 82 364 86 368 C 90 372 93 379 93 390 L 93 719 C 93 719 92 720 91 721 C 90 721 89 722 89 722 L 47 722 L 47 747 C 47 751 47 754 49 757 C 51 760 53 762 56 763 L 118 789 C 120 789 123 790 125 790 C 127 790 130 791 132 791 L 160 791 L 160 390 C 160 379 161 372 163 369 C 165 365 170 362 180 360 C 185 358 189 356 191 353 C 193 350 194 346 194 342 Z" unicode="" />
<glyph horiz-adv-x="315" d="M 158 797 C 180 797 198 790 214 778 C 230 766 243 749 253 728 C 263 706 270 681 275 652 C 279 623 282 592 282 560 C 282 527 279 496 274 467 C 269 438 261 413 251 392 C 241 370 228 353 212 341 C 196 328 178 322 158 322 C 136 322 118 328 102 340 C 86 352 74 369 64 391 C 54 412 46 437 42 466 C 37 495 35 526 35 560 C 35 592 37 623 42 652 C 47 680 55 705 65 727 C 75 748 87 765 103 778 C 119 790 137 797 158 797 Z M 158 370 C 174 370 185 384 191 413 C 196 441 199 490 199 560 C 199 628 196 677 192 707 C 187 736 176 751 158 751 C 141 751 130 736 125 707 C 120 677 118 628 118 560 C 118 490 120 441 124 413 C 128 384 140 370 158 370 Z" unicode="" />
<glyph horiz-adv-x="330" d="M 288 288 C 290 283 293 278 295 273 C 297 268 298 262 298 256 C 298 249 297 243 295 238 C 293 233 290 228 288 224 L 213 77 L 162 77 L 222 256 L 162 435 L 213 435 L 288 288 Z M 155 288 C 157 283 159 278 161 273 C 163 268 164 262 164 256 C 164 249 163 243 161 238 C 159 233 157 228 155 224 L 79 77 L 29 77 L 88 256 L 29 435 L 79 435 L 155 288 Z" unicode="" />
<glyph horiz-adv-x="515" d="M 194 342 L 194 319 L 55 319 L 55 342 C 55 346 56 349 58 353 C 60 356 63 358 66 359 C 75 361 82 364 86 368 C 90 372 93 379 93 390 L 93 719 C 93 719 92 720 91 721 C 90 721 89 722 89 722 L 47 722 L 47 747 C 47 751 47 754 49 757 C 51 760 53 762 56 763 L 118 789 C 120 789 123 790 125 790 C 127 790 130 791 132 791 L 160 791 L 160 390 C 160 379 161 372 163 369 C 165 365 170 362 180 360 C 185 358 189 356 191 353 C 193 350 194 346 194 342 Z M 381 787 L 431 787 L 158 0 L 107 0 L 381 787 Z M 496 153 L 496 104 L 457 104 L 457 57 C 457 52 457 48 458 46 C 458 43 461 41 466 40 C 470 39 473 37 475 34 C 477 30 478 27 478 23 L 478 0 L 373 0 L 373 23 C 373 27 373 30 375 34 C 377 37 380 39 384 40 C 388 41 390 43 392 46 C 393 48 394 52 394 57 L 394 104 L 277 104 L 277 140 C 277 144 277 147 278 150 C 278 153 280 156 282 160 L 407 464 C 407 466 409 468 411 470 C 413 472 416 473 420 473 L 457 473 L 457 153 L 496 153 Z M 392 292 C 392 294 392 300 393 310 C 393 319 394 327 395 334 C 392 328 389 321 387 313 C 384 305 382 300 382 298 L 323 153 L 392 153 L 392 292 Z" unicode="" />
<glyph horiz-adv-x="566" d="M 194 342 L 194 319 L 55 319 L 55 342 C 55 346 56 349 58 353 C 60 356 63 358 66 359 C 75 361 82 364 86 368 C 90 372 93 379 93 390 L 93 719 C 93 719 92 720 91 721 C 90 721 89 722 89 722 L 47 722 L 47 747 C 47 751 47 754 49 757 C 51 760 53 762 56 763 L 118 789 C 120 789 123 790 125 790 C 127 790 130 791 132 791 L 160 791 L 160 390 C 160 379 161 372 163 369 C 165 365 170 362 180 360 C 185 358 189 356 191 353 C 193 350 194 346 194 342 Z M 381 787 L 431 787 L 158 0 L 107 0 L 381 787 Z M 428 477 C 465 477 492 465 508 442 C 524 419 533 392 533 362 C 533 326 525 294 510 266 C 495 238 475 209 451 177 C 438 161 425 142 411 122 C 397 101 388 83 383 68 L 457 68 C 469 68 477 70 481 74 C 485 78 489 86 492 99 C 493 105 495 109 497 111 C 499 113 503 114 507 114 L 532 114 L 532 12 C 532 4 531 0 529 -1 C 527 -2 524 -3 522 -3 C 520 -3 516 -2 512 -1 C 507 0 501 0 493 0 L 328 0 L 328 38 C 328 42 329 50 333 61 C 337 72 341 84 347 97 C 353 110 359 123 366 136 C 372 149 379 160 385 169 C 409 205 427 239 440 271 C 453 303 460 334 460 362 C 460 382 457 399 451 413 C 445 427 436 434 425 434 C 417 434 411 432 407 428 C 403 424 400 420 400 416 C 403 413 406 408 409 402 C 412 396 414 390 414 384 C 414 372 410 362 403 354 C 396 345 386 341 374 341 C 361 341 351 346 344 356 C 337 366 334 377 334 389 C 334 398 336 408 340 418 C 344 428 350 438 358 447 C 366 455 376 462 388 468 C 400 474 413 477 428 477 Z" unicode="" />
<glyph horiz-adv-x="542" d="M 175 577 C 193 568 209 554 223 535 C 237 515 244 490 244 460 C 244 440 241 422 236 404 C 231 386 224 370 214 357 C 204 343 191 333 177 325 C 162 317 145 313 126 313 C 99 313 78 321 62 338 C 46 355 38 374 38 395 C 38 407 41 418 49 427 C 57 435 66 440 76 440 C 86 440 95 436 103 429 C 111 421 115 412 115 401 C 115 398 114 393 112 387 C 110 381 106 375 102 371 C 102 366 105 362 110 360 C 115 357 121 356 127 356 C 145 356 157 366 163 387 C 169 407 173 434 173 468 C 173 498 167 520 155 534 C 143 547 126 554 103 555 L 103 599 C 128 599 146 606 157 620 C 167 634 173 655 173 685 C 173 705 170 722 165 735 C 160 747 151 754 139 754 C 134 754 129 753 125 751 C 120 749 117 747 115 744 C 119 739 122 734 124 730 C 126 725 127 720 127 714 C 127 703 123 694 116 687 C 108 679 100 676 92 676 C 81 676 72 679 65 687 C 57 694 54 704 54 718 C 54 740 63 759 81 774 C 99 789 120 797 142 797 C 166 797 189 788 210 770 C 231 752 242 726 242 691 C 242 664 235 641 221 621 C 207 601 192 586 175 577 Z M 408 787 L 458 787 L 184 0 L 135 0 L 408 787 Z M 523 153 L 523 104 L 484 104 L 484 57 C 484 52 484 48 485 46 C 486 43 489 41 494 40 C 498 39 500 37 502 34 C 504 30 505 27 505 23 L 505 0 L 401 0 L 401 23 C 401 27 401 30 403 34 C 405 37 407 39 411 40 C 415 41 418 43 420 46 C 421 48 422 52 422 57 L 422 104 L 305 104 L 305 140 C 305 144 305 147 306 150 C 306 153 308 156 310 160 L 434 464 C 434 466 436 468 438 470 C 440 472 443 473 447 473 L 484 473 L 484 153 L 523 153 Z M 420 292 C 420 294 420 300 421 310 C 421 319 422 327 423 334 C 420 328 417 321 414 313 C 411 305 409 300 409 298 L 351 153 L 420 153 L 420 292 Z" unicode="" />
<glyph horiz-adv-x="306" d="M 180 636 C 196 636 211 629 223 617 C 235 604 242 589 242 573 C 242 556 235 541 223 529 C 211 516 196 510 180 510 C 163 510 148 516 136 529 C 124 541 118 556 118 573 C 118 589 124 604 136 617 C 148 629 163 636 180 636 Z M 236 15 C 250 15 261 9 271 0 C 281 -10 286 -25 286 -45 C 286 -63 282 -79 275 -95 C 267 -110 258 -123 246 -135 C 234 -146 220 -155 204 -161 C 188 -167 173 -171 157 -171 C 139 -171 122 -168 106 -162 C 89 -156 74 -146 62 -133 C 49 -119 39 -102 31 -81 C 23 -60 20 -35 20 -6 C 20 28 27 60 41 92 C 55 123 74 158 97 196 C 115 227 128 259 138 292 C 147 324 153 354 155 382 C 155 389 156 396 156 403 C 156 409 157 415 157 420 C 157 424 159 427 161 429 C 163 430 168 431 178 431 C 187 431 193 430 195 429 C 197 427 198 424 199 420 C 199 409 200 399 201 389 C 201 379 202 370 202 361 C 202 317 197 277 187 242 C 177 206 166 173 153 141 C 142 115 133 88 125 60 C 117 32 113 7 113 -14 C 113 -48 117 -73 126 -90 C 135 -107 147 -116 163 -116 C 175 -116 184 -113 191 -107 C 197 -101 203 -94 208 -85 C 201 -79 196 -72 192 -64 C 188 -55 187 -46 187 -38 C 187 -22 192 -9 202 0 C 212 10 223 15 236 15 Z" unicode="" />
<glyph horiz-adv-x="365" d="M 154 974 L 251 863 L 230 841 L 118 904 C 106 910 98 918 93 926 C 87 934 85 943 85 952 C 85 962 87 972 93 981 C 98 989 106 994 116 994 C 120 994 126 992 132 990 C 138 988 146 982 154 974 Z M 360 31 L 360 0 L 212 0 L 212 29 C 212 33 212 37 214 41 C 216 45 218 47 221 49 C 229 52 234 55 236 59 C 237 62 238 65 238 69 C 238 71 237 75 237 81 C 237 87 236 91 236 95 L 218 209 L 112 209 L 95 92 C 94 89 93 85 93 81 C 92 76 92 73 92 73 C 92 67 94 63 98 59 C 102 55 108 52 116 49 C 119 47 121 45 123 41 C 125 37 126 33 126 29 L 126 0 L 3 0 L 3 31 C 3 36 4 40 6 43 C 8 45 11 48 16 51 C 21 53 25 56 29 59 C 32 61 35 68 37 79 L 137 688 L 128 737 C 127 738 126 740 126 742 C 126 744 126 745 126 746 C 126 748 126 749 128 751 C 129 752 130 753 132 754 L 196 795 C 197 795 198 796 200 797 C 201 797 202 798 203 798 C 206 798 209 795 211 791 C 213 786 214 781 215 777 L 325 79 C 326 69 329 63 333 59 C 337 55 341 53 346 51 C 350 49 354 46 356 43 C 358 39 360 35 360 31 Z M 121 269 L 209 269 L 176 500 C 174 510 172 523 170 540 C 168 556 166 574 165 593 C 163 575 161 557 159 539 C 157 521 155 508 154 500 L 121 269 Z" unicode="" />
<glyph horiz-adv-x="365" d="M 238 994 C 248 994 256 989 262 981 C 268 972 271 962 271 952 C 271 943 268 934 262 926 C 256 918 247 910 237 904 L 125 841 L 104 863 L 201 974 C 209 982 216 988 222 990 C 228 992 233 994 238 994 Z M 360 31 L 360 0 L 212 0 L 212 29 C 212 33 212 37 214 41 C 216 45 218 47 221 49 C 229 52 234 55 236 59 C 237 62 238 65 238 69 C 238 71 237 75 237 81 C 237 87 236 91 236 95 L 218 209 L 112 209 L 95 92 C 94 89 93 85 93 81 C 92 76 92 73 92 73 C 92 67 94 63 98 59 C 102 55 108 52 116 49 C 119 47 121 45 123 41 C 125 37 126 33 126 29 L 126 0 L 3 0 L 3 31 C 3 36 4 40 6 43 C 8 45 11 48 16 51 C 21 53 25 56 29 59 C 32 61 35 68 37 79 L 137 688 L 128 737 C 127 738 126 740 126 742 C 126 744 126 745 126 746 C 126 748 126 749 128 751 C 129 752 130 753 132 754 L 196 795 C 197 795 198 796 200 797 C 201 797 202 798 203 798 C 206 798 209 795 211 791 C 213 786 214 781 215 777 L 325 79 C 326 69 329 63 333 59 C 337 55 341 53 346 51 C 350 49 354 46 356 43 C 358 39 360 35 360 31 Z M 121 269 L 209 269 L 176 500 C 174 510 172 523 170 540 C 168 556 166 574 165 593 C 163 575 161 557 159 539 C 157 521 155 508 154 500 L 121 269 Z" unicode="" />
<glyph horiz-adv-x="365" d="M 205 997 L 294 841 L 257 841 L 183 921 L 110 841 L 73 841 L 162 997 L 205 997 Z M 360 31 L 360 0 L 212 0 L 212 29 C 212 33 212 37 214 41 C 216 45 218 47 221 49 C 229 52 234 55 236 59 C 237 62 238 65 238 69 C 238 71 237 75 237 81 C 237 87 236 91 236 95 L 218 209 L 112 209 L 95 92 C 94 89 93 85 93 81 C 92 76 92 73 92 73 C 92 67 94 63 98 59 C 102 55 108 52 116 49 C 119 47 121 45 123 41 C 125 37 126 33 126 29 L 126 0 L 3 0 L 3 31 C 3 36 4 40 6 43 C 8 45 11 48 16 51 C 21 53 25 56 29 59 C 32 61 35 68 37 79 L 137 688 L 128 737 C 127 738 126 740 126 742 C 126 744 126 745 126 746 C 126 748 126 749 128 751 C 129 752 130 753 132 754 L 196 795 C 197 795 198 796 200 797 C 201 797 202 798 203 798 C 206 798 209 795 211 791 C 213 786 214 781 215 777 L 325 79 C 326 69 329 63 333 59 C 337 55 341 53 346 51 C 350 49 354 46 356 43 C 358 39 360 35 360 31 Z M 121 269 L 209 269 L 176 500 C 174 510 172 523 170 540 C 168 556 166 574 165 593 C 163 575 161 557 159 539 C 157 521 155 508 154 500 L 121 269 Z" unicode="" />
<glyph horiz-adv-x="365" d="M 268 961 L 300 961 C 300 929 293 903 279 885 C 265 867 247 858 227 858 C 218 858 210 859 202 862 C 194 864 185 870 173 878 C 164 884 156 889 150 893 C 143 897 136 899 130 899 C 121 899 114 894 110 886 C 105 878 102 867 102 855 L 68 855 C 68 887 75 912 90 930 C 104 948 122 958 142 958 C 153 958 162 956 169 953 C 176 950 185 945 196 939 C 204 933 212 928 219 924 C 226 919 233 917 239 917 C 247 917 254 921 259 929 C 263 937 266 948 268 961 Z M 360 31 L 360 0 L 212 0 L 212 29 C 212 33 212 37 214 41 C 216 45 218 47 221 49 C 229 52 234 55 236 59 C 237 62 238 65 238 69 C 238 71 237 75 237 81 C 237 87 236 91 236 95 L 218 209 L 112 209 L 95 92 C 94 89 93 85 93 81 C 92 76 92 73 92 73 C 92 67 94 63 98 59 C 102 55 108 52 116 49 C 119 47 121 45 123 41 C 125 37 126 33 126 29 L 126 0 L 3 0 L 3 31 C 3 36 4 40 6 43 C 8 45 11 48 16 51 C 21 53 25 56 29 59 C 32 61 35 68 37 79 L 137 688 L 128 737 C 127 738 126 740 126 742 C 126 744 126 745 126 746 C 126 748 126 749 128 751 C 129 752 130 753 132 754 L 196 795 C 197 795 198 796 200 797 C 201 797 202 798 203 798 C 206 798 209 795 211 791 C 213 786 214 781 215 777 L 325 79 C 326 69 329 63 333 59 C 337 55 341 53 346 51 C 350 49 354 46 356 43 C 358 39 360 35 360 31 Z M 121 269 L 209 269 L 176 500 C 174 510 172 523 170 540 C 168 556 166 574 165 593 C 163 575 161 557 159 539 C 157 521 155 508 154 500 L 121 269 Z" unicode="" />
<glyph horiz-adv-x="365" d="M 251 951 C 263 951 274 946 283 937 C 292 927 297 916 297 904 C 297 891 292 880 283 871 C 274 861 263 857 251 857 C 238 857 227 861 218 871 C 209 880 205 891 205 904 C 205 916 209 927 218 937 C 227 946 238 951 251 951 Z M 114 951 C 126 951 137 946 146 937 C 155 927 160 916 160 904 C 160 891 155 880 146 871 C 137 861 126 857 114 857 C 101 857 90 861 81 871 C 72 880 68 891 68 904 C 68 916 72 927 81 937 C 90 946 101 951 114 951 Z M 360 31 L 360 0 L 212 0 L 212 29 C 212 33 212 37 214 41 C 216 45 218 47 221 49 C 229 52 234 55 236 59 C 237 62 238 65 238 69 C 238 71 237 75 237 81 C 237 87 236 91 236 95 L 218 209 L 112 209 L 95 92 C 94 89 93 85 93 81 C 92 76 92 73 92 73 C 92 67 94 63 98 59 C 102 55 108 52 116 49 C 119 47 121 45 123 41 C 125 37 126 33 126 29 L 126 0 L 3 0 L 3 31 C 3 36 4 40 6 43 C 8 45 11 48 16 51 C 21 53 25 56 29 59 C 32 61 35 68 37 79 L 137 688 L 128 737 C 127 738 126 740 126 742 C 126 744 126 745 126 746 C 126 748 126 749 128 751 C 129 752 130 753 132 754 L 196 795 C 197 795 198 796 200 797 C 201 797 202 798 203 798 C 206 798 209 795 211 791 C 213 786 214 781 215 777 L 325 79 C 326 69 329 63 333 59 C 337 55 341 53 346 51 C 350 49 354 46 356 43 C 358 39 360 35 360 31 Z M 121 269 L 209 269 L 176 500 C 174 510 172 523 170 540 C 168 556 166 574 165 593 C 163 575 161 557 159 539 C 157 521 155 508 154 500 L 121 269 Z" unicode="" />
<glyph horiz-adv-x="365" d="M 179 994 C 203 994 224 985 241 967 C 258 949 267 927 267 899 C 267 871 258 848 241 830 C 224 812 203 804 179 804 C 154 804 133 812 116 830 C 99 848 91 871 91 899 C 91 927 99 949 116 967 C 133 985 154 994 179 994 Z M 179 843 C 189 843 197 847 205 855 C 212 863 216 878 216 899 C 216 919 212 933 205 942 C 197 950 189 955 179 955 C 169 955 160 950 153 941 C 145 931 142 917 142 899 C 142 878 145 863 153 855 C 160 847 169 843 179 843 Z M 360 31 L 360 0 L 212 0 L 212 29 C 212 33 212 37 214 41 C 216 45 218 47 221 49 C 229 52 234 55 236 59 C 237 62 238 65 238 69 C 238 71 237 75 237 81 C 237 87 236 91 236 95 L 218 209 L 112 209 L 95 92 C 94 89 93 85 93 81 C 92 76 92 73 92 73 C 92 67 94 63 98 59 C 102 55 108 52 116 49 C 119 47 121 45 123 41 C 125 37 126 33 126 29 L 126 0 L 3 0 L 3 31 C 3 36 4 40 6 43 C 8 45 11 48 16 51 C 21 53 25 56 29 59 C 32 61 35 68 37 79 L 137 688 L 130 733 C 129 734 128 736 128 738 C 128 740 128 741 128 742 C 128 744 128 745 130 747 C 131 748 132 749 134 750 L 197 790 C 197 790 198 791 200 792 C 202 792 203 793 204 793 C 207 793 210 790 212 786 C 214 781 215 776 216 772 L 325 79 C 326 69 329 63 333 59 C 337 55 341 53 346 51 C 350 49 354 46 356 43 C 358 39 360 35 360 31 Z M 121 269 L 209 269 L 176 500 C 174 510 172 523 170 540 C 168 556 166 574 165 593 C 163 575 161 557 159 539 C 157 521 155 508 154 500 L 121 269 Z" unicode="" />
<glyph horiz-adv-x="500" d="M 482 192 L 482 0 L 201 0 L 201 29 C 201 33 201 37 203 41 C 204 45 207 47 211 49 C 220 53 226 57 228 63 C 230 69 231 77 231 88 L 231 365 L 146 365 L 96 96 C 95 91 94 86 94 81 C 94 76 94 73 94 73 C 93 67 95 63 99 59 C 103 55 109 52 117 49 C 121 47 123 45 124 41 C 125 37 126 33 126 29 L 126 0 L 3 0 L 3 31 C 3 36 5 40 7 43 C 9 45 13 48 18 51 C 22 53 26 56 30 59 C 33 61 36 68 38 79 L 157 691 C 157 695 158 700 159 705 C 159 710 160 713 160 714 C 160 718 157 723 153 727 C 148 731 142 734 134 738 C 130 739 128 741 127 745 C 125 749 125 753 125 758 L 126 787 L 419 787 C 431 787 441 787 449 789 C 456 791 461 792 464 792 C 466 792 467 791 469 789 C 470 787 471 783 471 777 L 471 614 L 441 614 C 436 614 433 615 431 617 C 429 619 427 624 427 631 C 421 671 414 697 405 709 C 395 721 380 728 358 728 L 319 728 L 319 426 L 346 426 C 358 426 367 430 373 439 C 378 447 382 461 385 481 C 386 488 388 492 390 494 C 392 496 396 497 401 497 L 428 497 L 428 294 L 400 294 C 395 294 391 295 389 297 C 387 299 385 303 385 309 C 382 331 377 346 369 356 C 361 366 353 371 343 371 L 319 371 L 319 59 L 362 59 C 383 59 399 66 410 81 C 421 96 431 127 439 175 C 439 182 441 187 443 189 C 445 191 448 192 453 192 L 482 192 Z M 157 420 L 231 420 L 231 738 L 211 738 C 210 729 209 719 207 708 C 205 696 204 685 202 675 C 200 664 199 654 198 645 C 196 636 195 629 195 625 L 157 420 Z" unicode="" />
<glyph horiz-adv-x="318" d="M 300 196 C 302 196 303 195 304 194 C 304 193 305 190 305 186 C 305 166 303 145 299 123 C 295 101 288 80 279 61 C 270 42 258 26 244 13 C 229 0 211 -7 190 -9 L 177 -41 C 178 -40 180 -39 183 -39 C 186 -39 190 -39 194 -39 C 208 -39 222 -43 234 -52 C 246 -61 253 -76 253 -98 C 253 -112 247 -128 237 -145 C 227 -162 208 -171 181 -171 C 167 -171 155 -169 144 -165 C 132 -161 123 -157 117 -152 C 114 -150 112 -148 111 -147 C 110 -145 110 -144 110 -142 C 110 -140 110 -139 111 -137 C 111 -135 112 -133 113 -131 C 114 -127 115 -124 117 -122 C 119 -120 121 -119 123 -119 C 123 -119 124 -119 125 -119 C 125 -119 126 -120 127 -121 C 133 -125 140 -128 148 -131 C 155 -134 163 -136 171 -136 C 181 -136 189 -132 193 -124 C 197 -116 200 -109 200 -101 C 200 -89 197 -81 191 -77 C 185 -73 179 -71 175 -71 C 168 -71 162 -71 157 -73 C 152 -75 148 -76 144 -76 C 143 -76 142 -75 141 -74 C 139 -72 139 -71 139 -70 C 139 -68 139 -67 140 -65 C 140 -63 141 -60 142 -58 L 161 -8 C 134 -2 112 13 94 39 C 76 64 62 94 52 130 C 41 166 33 205 29 248 C 24 291 22 333 22 374 C 22 516 35 622 63 692 C 91 762 130 797 182 797 C 196 797 208 794 218 790 C 228 785 237 780 243 775 C 243 774 244 773 246 772 C 248 771 249 771 250 771 C 251 771 252 771 253 772 C 254 772 255 773 256 775 C 256 776 257 777 259 778 C 260 779 262 780 265 780 L 298 780 L 298 578 L 271 578 C 265 578 262 579 260 581 C 258 583 257 586 257 591 C 249 637 240 673 229 701 C 218 728 202 742 181 742 C 171 742 162 736 154 725 C 146 713 139 694 134 668 C 128 641 124 605 122 561 C 119 516 118 461 118 395 C 118 273 123 186 133 136 C 143 86 162 61 192 61 C 204 61 215 66 223 76 C 231 86 238 99 243 114 C 248 128 252 144 254 160 C 256 176 258 189 258 201 L 300 196 Z" unicode="" />
<glyph horiz-adv-x="318" d="M 139 974 L 237 863 L 215 841 L 103 904 C 91 910 83 918 77 926 C 71 934 69 943 69 952 C 69 962 71 972 77 981 C 83 989 91 994 102 994 C 106 994 112 992 118 990 C 124 988 131 982 139 974 Z M 300 192 L 300 0 L 20 0 L 20 29 C 20 33 20 37 22 41 C 23 45 25 47 29 49 C 39 53 44 57 46 63 C 48 69 49 77 49 88 L 49 699 C 49 709 48 717 46 723 C 44 729 39 734 29 738 C 25 739 23 741 22 745 C 20 749 20 753 20 758 L 20 787 L 237 787 C 249 787 258 787 266 789 C 273 791 278 792 282 792 C 284 792 285 791 287 789 C 288 787 289 783 289 777 L 289 614 L 259 614 C 254 614 251 615 249 617 C 247 619 245 624 245 631 C 239 671 232 697 222 709 C 212 721 197 728 176 728 L 137 728 L 137 436 L 162 436 C 174 436 183 440 189 449 C 194 457 198 471 201 491 C 202 498 204 502 206 504 C 208 506 212 507 218 507 L 244 507 L 244 304 L 217 304 C 212 304 208 305 206 307 C 203 309 201 313 201 319 C 198 341 193 356 186 366 C 178 376 170 381 160 381 L 137 381 L 137 59 L 180 59 C 201 59 217 66 228 81 C 238 96 248 127 256 175 C 256 182 258 187 260 189 C 262 191 266 192 271 192 L 300 192 Z" unicode="" />
<glyph horiz-adv-x="318" d="M 222 994 C 232 994 239 989 245 981 C 251 972 254 962 254 952 C 254 943 251 934 245 926 C 239 918 231 910 220 904 L 108 841 L 87 863 L 184 974 C 192 982 199 988 205 990 C 211 992 217 994 222 994 Z M 300 192 L 300 0 L 20 0 L 20 29 C 20 33 20 37 22 41 C 23 45 25 47 29 49 C 39 53 44 57 46 63 C 48 69 49 77 49 88 L 49 699 C 49 709 48 717 46 723 C 44 729 39 734 29 738 C 25 739 23 741 22 745 C 20 749 20 753 20 758 L 20 787 L 237 787 C 249 787 258 787 266 789 C 273 791 278 792 282 792 C 284 792 285 791 287 789 C 288 787 289 783 289 777 L 289 614 L 259 614 C 254 614 251 615 249 617 C 247 619 245 624 245 631 C 239 671 232 697 222 709 C 212 721 197 728 176 728 L 137 728 L 137 436 L 162 436 C 174 436 183 440 189 449 C 194 457 198 471 201 491 C 202 498 204 502 206 504 C 208 506 212 507 218 507 L 244 507 L 244 304 L 217 304 C 212 304 208 305 206 307 C 203 309 201 313 201 319 C 198 341 193 356 186 366 C 178 376 170 381 160 381 L 137 381 L 137 59 L 180 59 C 201 59 217 66 228 81 C 238 96 248 127 256 175 C 256 182 258 187 260 189 C 262 191 266 192 271 192 L 300 192 Z" unicode="" />
<glyph horiz-adv-x="318" d="M 180 997 L 271 841 L 233 841 L 160 921 L 85 841 L 48 841 L 138 997 L 180 997 Z M 300 192 L 300 0 L 20 0 L 20 29 C 20 33 20 37 22 41 C 23 45 25 47 29 49 C 39 53 44 57 46 63 C 48 69 49 77 49 88 L 49 699 C 49 709 48 717 46 723 C 44 729 39 734 29 738 C 25 739 23 741 22 745 C 20 749 20 753 20 758 L 20 787 L 237 787 C 249 787 258 787 266 789 C 273 791 278 792 282 792 C 284 792 285 791 287 789 C 288 787 289 783 289 777 L 289 614 L 259 614 C 254 614 251 615 249 617 C 247 619 245 624 245 631 C 239 671 232 697 222 709 C 212 721 197 728 176 728 L 137 728 L 137 436 L 162 436 C 174 436 183 440 189 449 C 194 457 198 471 201 491 C 202 498 204 502 206 504 C 208 506 212 507 218 507 L 244 507 L 244 304 L 217 304 C 212 304 208 305 206 307 C 203 309 201 313 201 319 C 198 341 193 356 186 366 C 178 376 170 381 160 381 L 137 381 L 137 59 L 180 59 C 201 59 217 66 228 81 C 238 96 248 127 256 175 C 256 182 258 187 260 189 C 262 191 266 192 271 192 L 300 192 Z" unicode="" />
<glyph horiz-adv-x="318" d="M 228 951 C 240 951 251 946 260 937 C 269 927 274 916 274 904 C 274 891 269 880 260 871 C 251 861 240 857 228 857 C 215 857 204 861 195 871 C 186 880 182 891 182 904 C 182 916 186 927 195 937 C 204 946 215 951 228 951 Z M 91 951 C 103 951 114 946 123 937 C 132 927 137 916 137 904 C 137 891 132 880 123 871 C 114 861 103 857 91 857 C 78 857 67 861 58 871 C 49 880 45 891 45 904 C 45 916 49 927 58 937 C 67 946 78 951 91 951 Z M 300 192 L 300 0 L 20 0 L 20 29 C 20 33 20 37 22 41 C 23 45 25 47 29 49 C 39 53 44 57 46 63 C 48 69 49 77 49 88 L 49 699 C 49 709 48 717 46 723 C 44 729 39 734 29 738 C 25 739 23 741 22 745 C 20 749 20 753 20 758 L 20 787 L 237 787 C 249 787 258 787 266 789 C 273 791 278 792 282 792 C 284 792 285 791 287 789 C 288 787 289 783 289 777 L 289 614 L 259 614 C 254 614 251 615 249 617 C 247 619 245 624 245 631 C 239 671 232 697 222 709 C 212 721 197 728 176 728 L 137 728 L 137 436 L 162 436 C 174 436 183 440 189 449 C 194 457 198 471 201 491 C 202 498 204 502 206 504 C 208 506 212 507 218 507 L 244 507 L 244 304 L 217 304 C 212 304 208 305 206 307 C 203 309 201 313 201 319 C 198 341 193 356 186 366 C 178 376 170 381 160 381 L 137 381 L 137 59 L 180 59 C 201 59 217 66 228 81 C 238 96 248 127 256 175 C 256 182 258 187 260 189 C 262 191 266 192 271 192 L 300 192 Z" unicode="" />
<glyph horiz-adv-x="188" d="M 85 974 L 182 863 L 161 841 L 48 904 C 37 910 29 917 23 926 C 17 934 15 943 15 952 C 15 962 17 972 23 981 C 29 989 37 994 47 994 C 52 994 58 992 64 990 C 70 988 77 982 85 974 Z M 168 29 L 168 0 L 20 0 L 20 29 C 20 33 20 37 22 41 C 24 45 26 47 30 49 C 39 53 45 57 47 63 C 49 69 50 77 50 88 L 50 699 C 50 709 49 717 47 723 C 45 729 39 734 30 738 C 26 739 24 741 22 745 C 20 749 20 753 20 758 L 20 787 L 168 787 L 168 758 C 168 753 167 749 166 745 C 164 741 162 739 159 738 C 149 734 143 729 141 723 C 139 717 138 709 138 699 L 138 88 C 138 77 139 69 141 63 C 143 57 149 53 159 49 C 162 47 164 45 166 41 C 167 37 168 33 168 29 Z" unicode="" />
<glyph horiz-adv-x="188" d="M 154 994 C 164 994 171 989 177 981 C 182 972 185 962 185 952 C 185 943 182 934 177 926 C 171 918 163 910 152 904 L 40 841 L 19 863 L 116 974 C 123 982 130 988 136 990 C 142 992 148 994 154 994 Z M 168 29 L 168 0 L 20 0 L 20 29 C 20 33 20 37 22 41 C 24 45 26 47 30 49 C 39 53 45 57 47 63 C 49 69 50 77 50 88 L 50 699 C 50 709 49 717 47 723 C 45 729 39 734 30 738 C 26 739 24 741 22 745 C 20 749 20 753 20 758 L 20 787 L 168 787 L 168 758 C 168 753 167 749 166 745 C 164 741 162 739 159 738 C 149 734 143 729 141 723 C 139 717 138 709 138 699 L 138 88 C 138 77 139 69 141 63 C 143 57 149 53 159 49 C 162 47 164 45 166 41 C 167 37 168 33 168 29 Z" unicode="" />
<glyph horiz-adv-x="188" d="M 115 997 L 200 841 L 163 841 L 94 921 L 25 841 L -13 841 L 72 997 L 115 997 Z M 168 29 L 168 0 L 20 0 L 20 29 C 20 33 20 37 22 41 C 24 45 26 47 30 49 C 39 53 45 57 47 63 C 49 69 50 77 50 88 L 50 699 C 50 709 49 717 47 723 C 45 729 39 734 30 738 C 26 739 24 741 22 745 C 20 749 20 753 20 758 L 20 787 L 168 787 L 168 758 C 168 753 167 749 166 745 C 164 741 162 739 159 738 C 149 734 143 729 141 723 C 139 717 138 709 138 699 L 138 88 C 138 77 139 69 141 63 C 143 57 149 53 159 49 C 162 47 164 45 166 41 C 167 37 168 33 168 29 Z" unicode="" />
<glyph horiz-adv-x="188" d="M 160 951 C 172 951 183 946 192 937 C 201 927 206 916 206 904 C 206 891 201 880 192 871 C 183 861 172 857 160 857 C 147 857 136 861 127 871 C 118 880 114 891 114 904 C 114 916 118 927 127 937 C 136 946 147 951 160 951 Z M 28 951 C 40 951 51 946 60 937 C 69 927 74 916 74 904 C 74 891 69 880 60 871 C 51 861 40 857 28 857 C 15 857 4 861 -4 871 C -13 880 -18 891 -18 904 C -18 916 -13 927 -4 937 C 4 946 15 951 28 951 Z M 168 29 L 168 0 L 20 0 L 20 29 C 20 33 20 37 22 41 C 24 45 26 47 30 49 C 39 53 45 57 47 63 C 49 69 50 77 50 88 L 50 699 C 50 709 49 717 47 723 C 45 729 39 734 30 738 C 26 739 24 741 22 745 C 20 749 20 753 20 758 L 20 787 L 168 787 L 168 758 C 168 753 167 749 166 745 C 164 741 162 739 159 738 C 149 734 143 729 141 723 C 139 717 138 709 138 699 L 138 88 C 138 77 139 69 141 63 C 143 57 149 53 159 49 C 162 47 164 45 166 41 C 167 37 168 33 168 29 Z" unicode="" />
<glyph horiz-adv-x="377" d="M 278 963 L 312 963 C 312 931 304 905 290 887 C 275 869 257 860 237 860 C 228 860 220 861 213 864 C 205 866 196 872 184 880 C 175 886 167 891 161 895 C 155 899 148 901 141 901 C 132 901 125 896 121 888 C 116 880 113 869 112 857 L 80 857 C 80 889 87 914 101 932 C 115 950 132 960 153 960 C 164 960 173 958 180 955 C 186 952 195 947 206 941 C 214 935 222 929 229 925 C 236 921 243 919 250 919 C 258 919 265 923 270 931 C 274 939 277 950 278 963 Z M 330 3 C 330 0 329 -2 328 -4 C 327 -5 326 -6 325 -6 L 290 -6 C 284 -6 280 -5 277 -4 C 273 -2 271 0 271 5 L 123 550 C 120 559 117 573 113 592 C 109 610 105 626 103 639 C 103 626 104 610 104 591 C 104 571 104 558 104 550 L 104 88 C 104 77 105 69 107 63 C 109 57 116 53 126 49 C 129 47 131 45 133 41 C 135 37 136 33 136 29 L 136 0 L 20 0 L 20 29 C 20 33 20 37 22 41 C 23 45 25 47 29 49 C 39 53 44 58 46 64 C 48 70 49 78 49 88 L 49 699 C 49 709 48 717 46 723 C 44 729 39 734 29 738 C 25 739 23 741 22 745 C 20 749 20 753 20 758 L 20 787 L 85 787 C 93 787 101 787 107 788 C 113 788 120 789 127 789 C 133 789 137 787 139 785 C 141 782 142 778 144 773 L 244 403 C 245 397 247 388 250 376 C 253 363 256 349 260 335 C 263 320 266 306 269 292 C 271 278 273 268 275 262 L 275 699 C 275 709 274 717 272 723 C 270 729 264 734 254 738 C 250 739 247 741 246 745 C 244 749 244 753 244 758 L 244 787 L 360 787 L 360 758 C 360 753 359 749 357 745 C 355 741 353 739 351 738 C 341 734 335 729 333 723 C 331 717 330 709 330 699 L 330 3 Z" unicode="" />
<glyph horiz-adv-x="370" d="M 161 974 L 259 863 L 237 841 L 125 904 C 114 910 106 918 100 926 C 94 934 92 943 92 952 C 92 962 94 972 100 981 C 106 989 114 994 124 994 C 129 994 134 992 140 990 C 146 988 153 982 161 974 Z M 184 797 C 212 797 237 786 258 764 C 279 742 296 712 309 675 C 322 638 332 595 338 546 C 344 496 348 445 348 391 C 348 337 345 285 339 236 C 333 187 323 144 310 108 C 297 72 280 43 259 22 C 238 0 213 -10 183 -10 C 154 -10 129 0 109 22 C 89 44 72 73 59 110 C 46 146 37 189 31 239 C 25 288 22 340 22 394 C 22 448 25 499 31 548 C 37 597 46 640 59 677 C 71 713 88 742 109 764 C 129 786 154 797 184 797 Z M 183 45 C 193 45 203 50 212 60 C 220 70 227 89 233 115 C 239 141 243 176 247 222 C 250 268 252 325 252 395 C 252 462 250 518 248 563 C 245 607 241 643 235 669 C 229 695 222 714 214 725 C 205 736 195 742 183 742 C 173 742 163 736 155 725 C 147 714 140 695 135 669 C 129 643 125 607 122 563 C 119 518 118 462 118 395 C 118 325 119 268 122 222 C 124 176 128 141 134 115 C 139 89 146 70 154 60 C 162 50 172 45 183 45 Z" unicode="" />
<glyph horiz-adv-x="370" d="M 247 994 C 257 994 264 989 270 981 C 275 972 278 962 278 952 C 278 943 275 934 270 926 C 264 918 256 910 245 904 L 133 841 L 112 863 L 209 974 C 216 982 223 988 230 990 C 236 992 242 994 247 994 Z M 184 797 C 212 797 237 786 258 764 C 279 742 296 712 309 675 C 322 638 332 595 338 546 C 344 496 348 445 348 391 C 348 337 345 285 339 236 C 333 187 323 144 310 108 C 297 72 280 43 259 22 C 238 0 213 -10 183 -10 C 154 -10 129 0 109 22 C 89 44 72 73 59 110 C 46 146 37 189 31 239 C 25 288 22 340 22 394 C 22 448 25 499 31 548 C 37 597 46 640 59 677 C 71 713 88 742 109 764 C 129 786 154 797 184 797 Z M 183 45 C 193 45 203 50 212 60 C 220 70 227 89 233 115 C 239 141 243 176 247 222 C 250 268 252 325 252 395 C 252 462 250 518 248 563 C 245 607 241 643 235 669 C 229 695 222 714 214 725 C 205 736 195 742 183 742 C 173 742 163 736 155 725 C 147 714 140 695 135 669 C 129 643 125 607 122 563 C 119 518 118 462 118 395 C 118 325 119 268 122 222 C 124 176 128 141 134 115 C 139 89 146 70 154 60 C 162 50 172 45 183 45 Z" unicode="" />
<glyph horiz-adv-x="370" d="M 207 997 L 296 841 L 259 841 L 185 921 L 112 841 L 74 841 L 164 997 L 207 997 Z M 184 797 C 212 797 237 786 258 764 C 279 742 296 712 309 675 C 322 638 332 595 338 546 C 344 496 348 445 348 391 C 348 337 345 285 339 236 C 333 187 323 144 310 108 C 297 72 280 43 259 22 C 238 0 213 -10 183 -10 C 154 -10 129 0 109 22 C 89 44 72 73 59 110 C 46 146 37 189 31 239 C 25 288 22 340 22 394 C 22 448 25 499 31 548 C 37 597 46 640 59 677 C 71 713 88 742 109 764 C 129 786 154 797 184 797 Z M 183 45 C 193 45 203 50 212 60 C 220 70 227 89 233 115 C 239 141 243 176 247 222 C 250 268 252 325 252 395 C 252 462 250 518 248 563 C 245 607 241 643 235 669 C 229 695 222 714 214 725 C 205 736 195 742 183 742 C 173 742 163 736 155 725 C 147 714 140 695 135 669 C 129 643 125 607 122 563 C 119 518 118 462 118 395 C 118 325 119 268 122 222 C 124 176 128 141 134 115 C 139 89 146 70 154 60 C 162 50 172 45 183 45 Z" unicode="" />
<glyph horiz-adv-x="370" d="M 269 963 L 301 963 C 301 931 294 905 280 887 C 266 869 248 860 228 860 C 219 860 211 861 203 864 C 195 866 186 872 174 880 C 165 886 157 891 151 895 C 144 899 137 901 131 901 C 122 901 115 896 110 888 C 105 880 102 869 102 857 L 69 857 C 69 889 76 914 90 932 C 104 950 122 960 142 960 C 154 960 163 958 170 955 C 177 952 186 947 196 941 C 204 935 212 929 220 925 C 227 921 234 919 240 919 C 248 919 255 923 260 931 C 264 939 267 950 269 963 Z M 184 797 C 212 797 237 786 258 764 C 279 742 296 712 309 675 C 322 638 332 595 338 546 C 344 496 348 445 348 391 C 348 337 345 285 339 236 C 333 187 323 144 310 108 C 297 72 280 43 259 22 C 238 0 213 -10 183 -10 C 154 -10 129 0 109 22 C 89 44 72 73 59 110 C 46 146 37 189 31 239 C 25 288 22 340 22 394 C 22 448 25 499 31 548 C 37 597 46 640 59 677 C 71 713 88 742 109 764 C 129 786 154 797 184 797 Z M 183 45 C 193 45 203 50 212 60 C 220 70 227 89 233 115 C 239 141 243 176 247 222 C 250 268 252 325 252 395 C 252 462 250 518 248 563 C 245 607 241 643 235 669 C 229 695 222 714 214 725 C 205 736 195 742 183 742 C 173 742 163 736 155 725 C 147 714 140 695 135 669 C 129 643 125 607 122 563 C 119 518 118 462 118 395 C 118 325 119 268 122 222 C 124 176 128 141 134 115 C 139 89 146 70 154 60 C 162 50 172 45 183 45 Z" unicode="" />
<glyph horiz-adv-x="370" d="M 254 951 C 266 951 277 946 286 937 C 295 927 300 916 300 904 C 300 891 295 880 286 871 C 277 861 266 857 254 857 C 241 857 230 861 221 871 C 212 880 208 891 208 904 C 208 916 212 927 221 937 C 230 946 241 951 254 951 Z M 117 951 C 129 951 140 946 149 937 C 158 927 163 916 163 904 C 163 891 158 880 149 871 C 140 861 129 857 117 857 C 104 857 93 861 84 871 C 75 880 71 891 71 904 C 71 916 75 927 84 937 C 93 946 104 951 117 951 Z M 184 797 C 212 797 237 786 258 764 C 279 742 296 712 309 675 C 322 638 332 595 338 546 C 344 496 348 445 348 391 C 348 337 345 285 339 236 C 333 187 323 144 310 108 C 297 72 280 43 259 22 C 238 0 213 -10 183 -10 C 154 -10 129 0 109 22 C 89 44 72 73 59 110 C 46 146 37 189 31 239 C 25 288 22 340 22 394 C 22 448 25 499 31 548 C 37 597 46 640 59 677 C 71 713 88 742 109 764 C 129 786 154 797 184 797 Z M 183 45 C 193 45 203 50 212 60 C 220 70 227 89 233 115 C 239 141 243 176 247 222 C 250 268 252 325 252 395 C 252 462 250 518 248 563 C 245 607 241 643 235 669 C 229 695 222 714 214 725 C 205 736 195 742 183 742 C 173 742 163 736 155 725 C 147 714 140 695 135 669 C 129 643 125 607 122 563 C 119 518 118 462 118 395 C 118 325 119 268 122 222 C 124 176 128 141 134 115 C 139 89 146 70 154 60 C 162 50 172 45 183 45 Z" unicode="" />
<glyph horiz-adv-x="478" d="M 282 326 L 417 193 L 373 149 L 239 283 L 105 149 L 62 193 L 196 326 L 62 460 L 106 504 L 239 369 L 373 503 L 417 460 L 282 326 Z" unicode="" />
<glyph horiz-adv-x="370" d="M 268 751 C 281 733 293 712 303 687 C 313 661 321 633 328 602 C 334 571 339 538 343 502 C 346 466 348 429 348 391 C 348 337 345 285 339 236 C 333 187 323 144 310 108 C 297 72 280 43 259 22 C 238 0 213 -10 183 -10 C 173 -10 164 -8 156 -6 C 147 -3 139 0 132 5 L 124 -40 L 88 -40 L 102 34 C 88 50 77 71 67 97 C 57 122 48 150 42 181 C 35 212 30 246 27 282 C 23 318 22 356 22 394 C 22 448 25 499 31 548 C 37 597 46 640 59 677 C 71 713 88 742 109 764 C 129 786 154 797 184 797 C 194 797 203 795 212 792 C 220 789 229 785 237 780 L 246 827 L 282 827 L 268 751 Z M 125 158 L 225 710 C 219 722 213 730 206 735 C 199 739 191 742 183 742 C 173 742 163 736 155 725 C 146 714 139 695 133 669 C 127 643 123 607 120 563 C 116 518 115 462 115 395 C 115 342 115 296 117 257 C 119 217 121 184 125 158 Z M 183 45 C 193 45 203 50 212 60 C 221 70 229 89 235 115 C 241 141 246 176 250 222 C 253 268 255 325 255 395 C 255 446 254 491 252 530 C 250 569 248 602 245 628 L 145 75 C 149 64 155 56 162 52 C 168 47 175 45 183 45 Z" unicode="" />
<glyph horiz-adv-x="370" d="M 168 974 L 265 863 L 244 841 L 132 904 C 120 910 112 918 107 926 C 101 934 99 943 99 952 C 99 962 101 972 107 981 C 112 989 120 994 130 994 C 136 994 142 992 148 990 C 154 988 160 982 168 974 Z M 351 787 L 351 758 C 351 753 350 749 349 745 C 347 741 345 739 341 738 C 331 734 326 729 324 723 C 322 717 321 709 321 699 L 321 161 C 321 141 318 120 314 100 C 310 80 302 61 292 45 C 282 29 268 15 251 5 C 233 -4 212 -10 186 -10 C 162 -10 141 -5 124 3 C 106 11 92 23 81 38 C 70 53 62 71 57 91 C 51 111 49 133 49 156 L 49 699 C 49 709 48 717 46 723 C 44 729 39 734 29 738 C 25 739 23 741 22 745 C 20 749 20 753 20 758 L 20 787 L 167 787 L 167 758 C 167 753 166 749 165 745 C 163 741 161 739 158 738 C 148 734 142 729 140 723 C 138 717 137 709 137 699 L 137 178 C 137 144 141 116 151 94 C 160 72 177 61 202 61 C 220 61 234 70 244 88 C 254 106 260 133 260 170 L 260 699 C 260 709 259 717 257 723 C 255 729 250 734 241 738 C 237 739 235 741 233 745 C 231 749 231 753 231 758 L 231 787 L 351 787 Z" unicode="" />
<glyph horiz-adv-x="370" d="M 250 994 C 260 994 268 989 274 981 C 279 972 282 962 282 952 C 282 943 279 934 273 926 C 267 918 259 910 248 904 L 136 841 L 115 863 L 212 974 C 220 982 227 988 233 990 C 239 992 244 994 250 994 Z M 351 787 L 351 758 C 351 753 350 749 349 745 C 347 741 345 739 341 738 C 331 734 326 729 324 723 C 322 717 321 709 321 699 L 321 161 C 321 141 318 120 314 100 C 310 80 302 61 292 45 C 282 29 268 15 251 5 C 233 -4 212 -10 186 -10 C 162 -10 141 -5 124 3 C 106 11 92 23 81 38 C 70 53 62 71 57 91 C 51 111 49 133 49 156 L 49 699 C 49 709 48 717 46 723 C 44 729 39 734 29 738 C 25 739 23 741 22 745 C 20 749 20 753 20 758 L 20 787 L 167 787 L 167 758 C 167 753 166 749 165 745 C 163 741 161 739 158 738 C 148 734 142 729 140 723 C 138 717 137 709 137 699 L 137 178 C 137 144 141 116 151 94 C 160 72 177 61 202 61 C 220 61 234 70 244 88 C 254 106 260 133 260 170 L 260 699 C 260 709 259 717 257 723 C 255 729 250 734 241 738 C 237 739 235 741 233 745 C 231 749 231 753 231 758 L 231 787 L 351 787 Z" unicode="" />
<glyph horiz-adv-x="370" d="M 214 997 L 304 841 L 266 841 L 193 921 L 119 841 L 82 841 L 171 997 L 214 997 Z M 351 787 L 351 758 C 351 753 350 749 349 745 C 347 741 345 739 341 738 C 331 734 326 729 324 723 C 322 717 321 709 321 699 L 321 161 C 321 141 318 120 314 100 C 310 80 302 61 292 45 C 282 29 268 15 251 5 C 233 -4 212 -10 186 -10 C 162 -10 141 -5 124 3 C 106 11 92 23 81 38 C 70 53 62 71 57 91 C 51 111 49 133 49 156 L 49 699 C 49 709 48 717 46 723 C 44 729 39 734 29 738 C 25 739 23 741 22 745 C 20 749 20 753 20 758 L 20 787 L 167 787 L 167 758 C 167 753 166 749 165 745 C 163 741 161 739 158 738 C 148 734 142 729 140 723 C 138 717 137 709 137 699 L 137 178 C 137 144 141 116 151 94 C 160 72 177 61 202 61 C 220 61 234 70 244 88 C 254 106 260 133 260 170 L 260 699 C 260 709 259 717 257 723 C 255 729 250 734 241 738 C 237 739 235 741 233 745 C 231 749 231 753 231 758 L 231 787 L 351 787 Z" unicode="" />
<glyph horiz-adv-x="370" d="M 259 951 C 271 951 282 946 291 937 C 300 927 305 916 305 904 C 305 891 300 880 291 871 C 282 861 271 857 259 857 C 246 857 235 861 226 871 C 217 880 213 891 213 904 C 213 916 217 927 226 937 C 235 946 246 951 259 951 Z M 122 951 C 134 951 145 946 154 937 C 163 927 168 916 168 904 C 168 891 163 880 154 871 C 145 861 134 857 122 857 C 109 857 98 861 89 871 C 80 880 76 891 76 904 C 76 916 80 927 89 937 C 98 946 109 951 122 951 Z M 351 787 L 351 758 C 351 753 350 749 349 745 C 347 741 345 739 341 738 C 331 734 326 729 324 723 C 322 717 321 709 321 699 L 321 161 C 321 141 318 120 314 100 C 310 80 302 61 292 45 C 282 29 268 15 251 5 C 233 -4 212 -10 186 -10 C 162 -10 141 -5 124 3 C 106 11 92 23 81 38 C 70 53 62 71 57 91 C 51 111 49 133 49 156 L 49 699 C 49 709 48 717 46 723 C 44 729 39 734 29 738 C 25 739 23 741 22 745 C 20 749 20 753 20 758 L 20 787 L 167 787 L 167 758 C 167 753 166 749 165 745 C 163 741 161 739 158 738 C 148 734 142 729 140 723 C 138 717 137 709 137 699 L 137 178 C 137 144 141 116 151 94 C 160 72 177 61 202 61 C 220 61 234 70 244 88 C 254 106 260 133 260 170 L 260 699 C 260 709 259 717 257 723 C 255 729 250 734 241 738 C 237 739 235 741 233 745 C 231 749 231 753 231 758 L 231 787 L 351 787 Z" unicode="" />
<glyph horiz-adv-x="358" d="M 254 994 C 264 994 272 989 278 981 C 283 972 286 962 286 952 C 286 943 283 934 277 926 C 271 918 263 910 252 904 L 140 841 L 119 863 L 216 974 C 224 982 231 988 237 990 C 243 992 248 994 254 994 Z M 354 787 L 354 758 C 354 753 353 749 352 745 C 350 741 348 739 345 738 C 336 735 330 731 327 725 C 323 719 320 710 316 696 L 221 344 L 221 88 C 221 77 222 69 224 63 C 226 57 232 53 242 49 C 245 47 247 45 249 41 C 251 37 252 33 252 29 L 252 0 L 104 0 L 104 29 C 104 33 104 37 106 41 C 107 45 110 47 114 49 C 123 53 129 57 131 63 C 133 69 134 77 134 88 L 134 317 L 40 696 C 36 710 33 720 29 726 C 25 732 20 735 15 737 C 10 738 7 741 5 745 C 3 749 3 753 3 758 L 3 787 L 157 787 L 157 758 C 157 753 156 749 155 745 C 153 741 151 739 147 738 C 140 735 135 732 131 728 C 127 724 126 719 126 714 C 126 708 127 700 130 690 C 132 680 135 670 137 662 L 183 469 C 184 462 186 453 188 443 C 190 432 192 422 194 412 C 195 422 197 432 199 443 C 201 454 203 463 205 470 L 254 669 C 255 675 256 682 258 691 C 260 699 261 706 261 712 C 261 717 259 722 255 727 C 251 731 245 735 237 738 C 234 739 232 741 230 745 C 228 749 228 753 228 758 L 228 787 L 354 787 Z" unicode="" />
<glyph horiz-adv-x="321" d="M 202 444 C 239 425 265 398 280 362 C 294 326 302 279 302 220 C 302 191 299 163 293 136 C 287 108 278 84 267 62 C 256 40 243 23 227 10 C 211 -3 193 -10 173 -10 C 159 -10 150 -7 145 -3 C 140 0 138 7 138 16 C 138 26 140 34 145 38 C 150 42 156 44 164 44 C 174 44 183 49 189 61 C 195 72 200 86 204 104 C 207 121 209 140 211 161 C 212 182 213 202 213 221 C 213 237 212 255 212 275 C 212 295 210 315 207 333 C 204 351 199 367 192 381 C 184 395 174 403 160 407 C 153 408 147 410 143 413 C 138 416 136 424 136 436 C 136 446 137 454 141 458 C 145 462 149 465 154 466 C 165 468 174 474 180 486 C 186 498 190 511 193 526 C 196 541 198 557 198 574 C 198 591 199 606 199 620 C 199 656 197 687 193 711 C 189 735 179 747 163 747 C 141 747 129 729 126 695 C 122 660 121 606 121 532 L 121 0 L 17 0 L 17 30 C 17 32 17 35 19 38 C 20 40 22 43 26 46 C 30 49 34 52 36 55 C 38 58 39 64 39 72 L 39 545 C 38 628 49 690 72 732 C 95 773 127 794 167 794 C 202 794 230 779 252 750 C 273 721 284 680 284 627 C 284 579 277 541 263 511 C 249 481 228 459 202 444 Z" unicode="" />
<glyph horiz-adv-x="287" d="M 134 686 L 219 563 L 197 543 L 91 620 C 80 627 72 635 67 643 C 62 651 60 660 60 669 C 60 679 63 689 69 698 C 75 707 83 712 94 712 C 99 712 105 710 112 707 C 118 704 126 697 134 686 Z M 283 31 C 283 29 284 28 284 26 C 284 24 285 23 285 23 C 285 21 284 20 284 19 C 283 17 282 16 281 15 C 276 7 270 2 262 -2 C 254 -6 244 -8 234 -8 C 221 -8 209 -4 199 4 C 188 12 181 26 177 48 C 167 29 155 15 142 6 C 128 -3 113 -8 95 -8 C 72 -8 52 2 36 23 C 20 43 12 75 12 119 C 12 163 25 202 52 238 C 78 274 116 297 166 309 L 166 364 C 166 390 163 410 158 424 C 152 438 142 445 128 445 C 118 445 111 443 107 439 C 103 435 101 432 101 430 C 103 427 105 423 107 419 C 109 414 110 408 110 400 C 110 388 106 376 99 366 C 92 356 83 351 71 351 C 56 351 45 356 38 367 C 30 378 27 391 27 405 C 27 427 36 448 55 466 C 73 484 98 493 129 493 C 173 493 203 478 221 449 C 239 419 248 378 248 324 L 248 86 C 248 72 249 62 252 57 C 255 52 259 50 265 50 C 265 50 267 50 269 50 C 271 50 272 51 273 51 C 274 51 275 50 276 49 C 277 48 278 46 279 44 L 283 31 Z M 128 62 C 140 62 150 68 156 80 C 162 92 166 106 166 122 L 166 258 C 142 251 124 236 112 212 C 100 188 95 162 95 136 C 95 110 98 91 104 79 C 110 67 118 62 128 62 Z" unicode="" />
<glyph horiz-adv-x="287" d="M 193 712 C 203 712 211 707 217 698 C 223 689 226 679 226 669 C 226 660 223 652 218 644 C 213 636 205 628 195 620 L 89 543 L 67 563 L 151 686 C 159 697 166 704 173 707 C 180 710 187 712 193 712 Z M 283 31 C 283 29 284 28 284 26 C 284 24 285 23 285 23 C 285 21 284 20 284 19 C 283 17 282 16 281 15 C 276 7 270 2 262 -2 C 254 -6 244 -8 234 -8 C 221 -8 209 -4 199 4 C 188 12 181 26 177 48 C 167 29 155 15 142 6 C 128 -3 113 -8 95 -8 C 72 -8 52 2 36 23 C 20 43 12 75 12 119 C 12 163 25 202 52 238 C 78 274 116 297 166 309 L 166 364 C 166 390 163 410 158 424 C 152 438 142 445 128 445 C 118 445 111 443 107 439 C 103 435 101 432 101 430 C 103 427 105 423 107 419 C 109 414 110 408 110 400 C 110 388 106 376 99 366 C 92 356 83 351 71 351 C 56 351 45 356 38 367 C 30 378 27 391 27 405 C 27 427 36 448 55 466 C 73 484 98 493 129 493 C 173 493 203 478 221 449 C 239 419 248 378 248 324 L 248 86 C 248 72 249 62 252 57 C 255 52 259 50 265 50 C 265 50 267 50 269 50 C 271 50 272 51 273 51 C 274 51 275 50 276 49 C 277 48 278 46 279 44 L 283 31 Z M 128 62 C 140 62 150 68 156 80 C 162 92 166 106 166 122 L 166 258 C 142 251 124 236 112 212 C 100 188 95 162 95 136 C 95 110 98 91 104 79 C 110 67 118 62 128 62 Z" unicode="" />
<glyph horiz-adv-x="287" d="M 159 705 L 244 545 L 206 545 L 138 629 L 68 545 L 30 545 L 115 705 L 159 705 Z M 283 31 C 283 29 284 28 284 26 C 284 24 285 23 285 23 C 285 21 284 20 284 19 C 283 17 282 16 281 15 C 276 7 270 2 262 -2 C 254 -6 244 -8 234 -8 C 221 -8 209 -4 199 4 C 188 12 181 26 177 48 C 167 29 155 15 142 6 C 128 -3 113 -8 95 -8 C 72 -8 52 2 36 23 C 20 43 12 75 12 119 C 12 163 25 202 52 238 C 78 274 116 297 166 309 L 166 364 C 166 390 163 410 158 424 C 152 438 142 445 128 445 C 118 445 111 443 107 439 C 103 435 101 432 101 430 C 103 427 105 423 107 419 C 109 414 110 408 110 400 C 110 388 106 376 99 366 C 92 356 83 351 71 351 C 56 351 45 356 38 367 C 30 378 27 391 27 405 C 27 427 36 448 55 466 C 73 484 98 493 129 493 C 173 493 203 478 221 449 C 239 419 248 378 248 324 L 248 86 C 248 72 249 62 252 57 C 255 52 259 50 265 50 C 265 50 267 50 269 50 C 271 50 272 51 273 51 C 274 51 275 50 276 49 C 277 48 278 46 279 44 L 283 31 Z M 128 62 C 140 62 150 68 156 80 C 162 92 166 106 166 122 L 166 258 C 142 251 124 236 112 212 C 100 188 95 162 95 136 C 95 110 98 91 104 79 C 110 67 118 62 128 62 Z" unicode="" />
<glyph horiz-adv-x="287" d="M 222 665 L 253 665 C 253 633 246 607 233 589 C 219 571 202 562 182 562 C 173 562 165 563 159 565 C 152 567 143 572 132 581 C 123 586 115 591 109 596 C 102 600 95 603 89 603 C 81 603 74 598 70 590 C 65 582 62 571 62 559 L 31 559 C 31 591 37 616 51 634 C 65 652 81 662 101 662 C 111 662 120 660 127 657 C 134 653 143 648 153 642 C 161 636 169 631 175 627 C 181 623 188 621 194 621 C 202 621 209 625 213 633 C 217 641 220 652 222 665 Z M 283 31 C 283 29 284 28 284 26 C 284 24 285 23 285 23 C 285 21 284 20 284 19 C 283 17 282 16 281 15 C 276 7 270 2 262 -2 C 254 -6 244 -8 234 -8 C 221 -8 209 -4 199 4 C 188 12 181 26 177 48 C 167 29 155 15 142 6 C 128 -3 113 -8 95 -8 C 72 -8 52 2 36 23 C 20 43 12 75 12 119 C 12 163 25 202 52 238 C 78 274 116 297 166 309 L 166 364 C 166 390 163 410 158 424 C 152 438 142 445 128 445 C 118 445 111 443 107 439 C 103 435 101 432 101 430 C 103 427 105 423 107 419 C 109 414 110 408 110 400 C 110 388 106 376 99 366 C 92 356 83 351 71 351 C 56 351 45 356 38 367 C 30 378 27 391 27 405 C 27 427 36 448 55 466 C 73 484 98 493 129 493 C 173 493 203 478 221 449 C 239 419 248 378 248 324 L 248 86 C 248 72 249 62 252 57 C 255 52 259 50 265 50 C 265 50 267 50 269 50 C 271 50 272 51 273 51 C 274 51 275 50 276 49 C 277 48 278 46 279 44 L 283 31 Z M 128 62 C 140 62 150 68 156 80 C 162 92 166 106 166 122 L 166 258 C 142 251 124 236 112 212 C 100 188 95 162 95 136 C 95 110 98 91 104 79 C 110 67 118 62 128 62 Z" unicode="" />
<glyph horiz-adv-x="287" d="M 203 664 C 215 664 226 659 235 650 C 244 640 249 629 249 617 C 249 604 244 593 235 584 C 226 574 215 570 203 570 C 190 570 179 574 170 584 C 161 593 157 604 157 617 C 157 629 161 640 170 650 C 179 659 190 664 203 664 Z M 72 664 C 84 664 95 659 104 650 C 113 640 118 629 118 617 C 118 604 113 593 104 584 C 95 574 84 570 72 570 C 59 570 48 574 39 584 C 30 593 26 604 26 617 C 26 629 30 640 39 650 C 48 659 59 664 72 664 Z M 283 31 C 283 29 284 28 284 26 C 284 24 285 23 285 23 C 285 21 284 20 284 19 C 283 17 282 16 281 15 C 276 7 270 2 262 -2 C 254 -6 244 -8 234 -8 C 221 -8 209 -4 199 4 C 188 12 181 26 177 48 C 167 29 155 15 142 6 C 128 -3 113 -8 95 -8 C 72 -8 52 2 36 23 C 20 43 12 75 12 119 C 12 163 25 202 52 238 C 78 274 116 297 166 309 L 166 364 C 166 390 163 410 158 424 C 152 438 142 445 128 445 C 118 445 111 443 107 439 C 103 435 101 432 101 430 C 103 427 105 423 107 419 C 109 414 110 408 110 400 C 110 388 106 376 99 366 C 92 356 83 351 71 351 C 56 351 45 356 38 367 C 30 378 27 391 27 405 C 27 427 36 448 55 466 C 73 484 98 493 129 493 C 173 493 203 478 221 449 C 239 419 248 378 248 324 L 248 86 C 248 72 249 62 252 57 C 255 52 259 50 265 50 C 265 50 267 50 269 50 C 271 50 272 51 273 51 C 274 51 275 50 276 49 C 277 48 278 46 279 44 L 283 31 Z M 128 62 C 140 62 150 68 156 80 C 162 92 166 106 166 122 L 166 258 C 142 251 124 236 112 212 C 100 188 95 162 95 136 C 95 110 98 91 104 79 C 110 67 118 62 128 62 Z" unicode="" />
<glyph horiz-adv-x="287" d="M 138 712 C 162 712 183 703 200 685 C 217 667 226 645 226 617 C 226 589 217 566 200 548 C 183 530 162 522 138 522 C 113 522 92 530 75 548 C 58 566 50 589 50 617 C 50 645 58 667 75 685 C 92 703 113 712 138 712 Z M 138 561 C 148 561 156 565 164 573 C 171 581 175 596 175 617 C 175 637 171 651 164 660 C 156 668 148 673 138 673 C 128 673 119 668 112 659 C 104 649 101 635 101 617 C 101 596 104 581 112 573 C 119 565 128 561 138 561 Z M 283 31 C 283 29 284 28 284 26 C 284 24 285 23 285 23 C 285 21 284 20 284 19 C 283 17 282 16 281 15 C 276 7 270 2 262 -2 C 254 -6 244 -8 234 -8 C 221 -8 209 -4 199 4 C 188 12 181 26 177 48 C 167 29 155 15 142 6 C 128 -3 113 -8 95 -8 C 72 -8 52 2 36 23 C 20 43 12 75 12 119 C 12 163 25 202 52 238 C 78 274 116 297 166 309 L 166 364 C 166 390 163 410 158 424 C 152 438 142 445 128 445 C 118 445 111 443 107 439 C 103 435 101 432 101 430 C 103 427 105 423 107 419 C 109 414 110 408 110 400 C 110 388 106 376 99 366 C 92 356 83 351 71 351 C 56 351 45 356 38 367 C 30 378 27 391 27 405 C 27 427 36 448 55 466 C 73 484 98 493 129 493 C 173 493 203 478 221 449 C 239 419 248 378 248 324 L 248 86 C 248 72 249 62 252 57 C 255 52 259 50 265 50 C 265 50 267 50 269 50 C 271 50 272 51 273 51 C 274 51 275 50 276 49 C 277 48 278 46 279 44 L 283 31 Z M 128 62 C 140 62 150 68 156 80 C 162 92 166 106 166 122 L 166 258 C 142 251 124 236 112 212 C 100 188 95 162 95 136 C 95 110 98 91 104 79 C 110 67 118 62 128 62 Z" unicode="" />
<glyph horiz-adv-x="419" d="M 286 493 C 322 493 350 474 370 436 C 390 398 401 334 401 246 L 244 246 C 244 186 247 140 254 109 C 260 77 276 62 302 62 C 318 62 330 69 337 83 C 343 97 348 112 352 130 C 352 131 352 132 353 134 C 353 135 354 136 356 136 C 357 136 358 136 360 136 C 361 136 363 135 365 135 L 384 131 C 388 130 390 128 392 126 C 393 124 394 119 394 113 C 394 104 392 93 388 79 C 384 65 378 52 370 40 C 362 27 351 16 337 7 C 323 -2 306 -7 286 -7 C 264 -7 245 0 229 12 C 213 24 200 42 190 64 C 176 35 162 16 146 6 C 130 -3 113 -8 95 -8 C 72 -8 52 2 36 23 C 20 43 12 75 12 119 C 12 163 25 202 52 238 C 79 274 117 297 167 309 L 167 364 C 167 390 164 410 158 424 C 152 438 142 445 128 445 C 118 445 111 443 107 439 C 103 435 101 432 101 430 C 103 427 105 423 107 419 C 109 414 110 408 110 400 C 110 388 106 376 99 366 C 92 356 83 351 71 351 C 56 351 45 356 38 367 C 30 378 27 391 27 405 C 27 427 36 448 55 466 C 73 484 98 493 129 493 C 149 493 166 489 180 481 C 194 473 205 462 215 450 C 224 463 234 473 246 481 C 258 489 271 493 286 493 Z M 243 297 L 323 297 C 323 351 320 389 315 411 C 310 433 300 445 286 445 C 272 445 261 434 254 412 C 246 390 243 352 243 297 Z M 128 62 C 140 62 150 68 157 80 C 163 92 167 106 167 122 L 167 258 C 143 251 125 236 113 212 C 101 188 95 162 95 136 C 95 110 98 91 104 79 C 110 67 118 62 128 62 Z" unicode="" />
<glyph horiz-adv-x="263" d="M 243 131 C 247 130 249 128 251 126 C 252 124 253 119 253 113 C 253 105 251 94 248 81 C 244 68 239 55 232 43 C 224 31 214 20 202 11 C 190 1 175 -4 157 -6 L 142 -41 C 143 -40 145 -39 148 -39 C 151 -39 155 -39 159 -39 C 175 -39 189 -43 202 -52 C 214 -61 221 -76 221 -98 C 221 -112 215 -128 205 -145 C 194 -162 174 -171 146 -171 C 131 -171 118 -169 107 -165 C 95 -161 86 -157 78 -152 C 75 -150 73 -148 72 -147 C 71 -145 71 -144 71 -142 C 71 -140 71 -139 72 -137 C 72 -135 73 -133 74 -131 C 75 -127 77 -124 79 -122 C 81 -120 82 -119 84 -119 C 84 -119 85 -119 86 -119 C 87 -119 88 -120 89 -121 C 95 -125 103 -128 111 -131 C 119 -134 127 -136 135 -136 C 146 -136 154 -132 159 -124 C 163 -116 166 -109 166 -101 C 166 -89 162 -81 156 -77 C 150 -73 144 -71 139 -71 C 132 -71 126 -71 121 -73 C 115 -75 111 -76 107 -76 C 105 -76 104 -75 103 -74 C 101 -72 101 -71 101 -70 C 101 -68 101 -67 102 -65 C 103 -63 104 -60 105 -58 L 126 -5 C 107 -1 91 8 78 22 C 64 36 53 55 45 77 C 36 99 29 124 25 153 C 21 181 19 211 19 243 C 19 277 21 309 27 339 C 33 369 41 396 52 419 C 63 441 77 459 93 473 C 109 486 128 493 150 493 C 182 493 207 483 224 464 C 240 445 249 424 249 402 C 249 387 245 374 237 363 C 229 352 219 347 205 347 C 192 347 182 351 175 361 C 167 370 164 381 164 393 C 164 401 165 407 168 413 C 170 419 173 423 175 426 C 173 432 170 437 166 440 C 162 443 156 445 150 445 C 136 445 125 432 118 408 C 110 384 107 337 107 267 C 107 199 110 148 116 114 C 122 79 138 62 165 62 C 179 62 190 69 196 83 C 202 97 207 113 211 130 C 211 132 212 133 212 134 C 212 135 213 136 215 136 C 216 136 218 135 220 135 C 222 135 223 135 224 135 L 243 131 Z" unicode="" />
<glyph horiz-adv-x="280" d="M 135 686 L 220 563 L 198 543 L 92 620 C 81 627 73 635 68 643 C 63 651 61 660 61 669 C 61 679 64 689 70 698 C 76 707 84 712 95 712 C 100 712 106 710 113 707 C 119 704 127 697 135 686 Z M 147 493 C 183 493 211 474 231 436 C 251 398 262 334 262 246 L 105 246 C 105 186 108 140 115 109 C 122 77 138 62 163 62 C 179 62 191 69 198 83 C 204 97 209 112 213 130 C 213 131 213 132 214 134 C 215 135 216 136 218 136 C 218 136 219 136 221 136 C 223 136 224 135 226 135 L 246 131 C 250 130 252 128 253 126 C 254 124 255 119 255 113 C 255 104 253 93 249 79 C 245 65 239 52 231 40 C 223 27 212 16 198 7 C 184 -2 167 -7 147 -7 C 125 -7 106 0 90 12 C 74 25 60 43 50 66 C 39 88 31 115 26 146 C 21 176 19 209 19 243 C 19 277 21 309 27 339 C 32 369 40 396 51 419 C 62 441 76 459 92 473 C 108 486 126 493 147 493 Z M 104 300 L 185 300 C 185 352 182 389 177 411 C 171 433 161 445 147 445 C 133 445 123 434 115 412 C 107 390 104 353 104 300 Z" unicode="" />
<glyph horiz-adv-x="280" d="M 203 712 C 213 712 221 707 227 698 C 233 689 236 679 236 669 C 236 660 233 651 229 643 C 224 635 216 627 206 620 L 100 543 L 77 563 L 162 686 C 170 697 177 704 184 707 C 190 710 197 712 203 712 Z M 147 493 C 183 493 211 474 231 436 C 251 398 262 334 262 246 L 105 246 C 105 186 108 140 115 109 C 122 77 138 62 163 62 C 179 62 191 69 198 83 C 204 97 209 112 213 130 C 213 131 213 132 214 134 C 215 135 216 136 218 136 C 218 136 219 136 221 136 C 223 136 224 135 226 135 L 246 131 C 250 130 252 128 253 126 C 254 124 255 119 255 113 C 255 104 253 93 249 79 C 245 65 239 52 231 40 C 223 27 212 16 198 7 C 184 -2 167 -7 147 -7 C 125 -7 106 0 90 12 C 74 25 60 43 50 66 C 39 88 31 115 26 146 C 21 176 19 209 19 243 C 19 277 21 309 27 339 C 32 369 40 396 51 419 C 62 441 76 459 92 473 C 108 486 126 493 147 493 Z M 104 300 L 185 300 C 185 352 182 389 177 411 C 171 433 161 445 147 445 C 133 445 123 434 115 412 C 107 390 104 353 104 300 Z" unicode="" />
<glyph horiz-adv-x="280" d="M 169 705 L 255 545 L 217 545 L 148 629 L 78 545 L 40 545 L 126 705 L 169 705 Z M 147 493 C 183 493 211 474 231 436 C 251 398 262 334 262 246 L 105 246 C 105 186 108 140 115 109 C 122 77 138 62 163 62 C 179 62 191 69 198 83 C 204 97 209 112 213 130 C 213 131 213 132 214 134 C 215 135 216 136 218 136 C 218 136 219 136 221 136 C 223 136 224 135 226 135 L 246 131 C 250 130 252 128 253 126 C 254 124 255 119 255 113 C 255 104 253 93 249 79 C 245 65 239 52 231 40 C 223 27 212 16 198 7 C 184 -2 167 -7 147 -7 C 125 -7 106 0 90 12 C 74 25 60 43 50 66 C 39 88 31 115 26 146 C 21 176 19 209 19 243 C 19 277 21 309 27 339 C 32 369 40 396 51 419 C 62 441 76 459 92 473 C 108 486 126 493 147 493 Z M 104 300 L 185 300 C 185 352 182 389 177 411 C 171 433 161 445 147 445 C 133 445 123 434 115 412 C 107 390 104 353 104 300 Z" unicode="" />
<glyph horiz-adv-x="280" d="M 216 664 C 228 664 239 659 248 650 C 257 640 262 629 262 617 C 262 604 257 593 248 584 C 239 574 228 570 216 570 C 203 570 192 574 183 584 C 174 593 170 604 170 617 C 170 629 174 640 183 650 C 192 659 203 664 216 664 Z M 85 664 C 97 664 108 659 117 650 C 126 640 131 629 131 617 C 131 604 126 593 117 584 C 108 574 97 570 85 570 C 72 570 61 574 52 584 C 43 593 39 604 39 617 C 39 629 43 640 52 650 C 61 659 72 664 85 664 Z M 147 493 C 183 493 211 474 231 436 C 251 398 262 334 262 246 L 105 246 C 105 186 108 140 115 109 C 122 77 138 62 163 62 C 179 62 191 69 198 83 C 204 97 209 112 213 130 C 213 131 213 132 214 134 C 215 135 216 136 218 136 C 218 136 219 136 221 136 C 223 136 224 135 226 135 L 246 131 C 250 130 252 128 253 126 C 254 124 255 119 255 113 C 255 104 253 93 249 79 C 245 65 239 52 231 40 C 223 27 212 16 198 7 C 184 -2 167 -7 147 -7 C 125 -7 106 0 90 12 C 74 25 60 43 50 66 C 39 88 31 115 26 146 C 21 176 19 209 19 243 C 19 277 21 309 27 339 C 32 369 40 396 51 419 C 62 441 76 459 92 473 C 108 486 126 493 147 493 Z M 104 300 L 185 300 C 185 352 182 389 177 411 C 171 433 161 445 147 445 C 133 445 123 434 115 412 C 107 390 104 353 104 300 Z" unicode="" />
<glyph horiz-adv-x="162" d="M 60 686 L 145 563 L 122 543 L 17 620 C 6 628 -1 636 -6 644 C -11 652 -14 660 -14 669 C -14 679 -11 689 -5 698 C 1 707 9 712 19 712 C 24 712 30 710 37 708 C 44 705 52 698 60 686 Z M 144 30 L 144 0 L 18 0 L 18 30 C 18 32 18 35 20 38 C 21 40 23 43 27 46 C 31 49 35 52 37 55 C 39 58 40 64 40 72 L 40 414 C 40 422 39 427 37 430 C 35 433 31 436 27 440 C 23 442 21 445 20 448 C 18 450 18 453 18 456 L 18 486 C 26 486 36 487 47 488 C 58 488 68 489 77 489 C 86 489 94 490 101 490 C 108 490 112 491 113 491 C 117 491 120 490 121 489 C 121 488 122 486 122 483 L 122 72 C 122 64 123 58 125 55 C 127 52 130 49 135 46 C 138 43 140 40 142 38 C 143 35 144 32 144 30 Z" unicode="" />
<glyph horiz-adv-x="162" d="M 128 712 C 138 712 146 707 152 698 C 158 689 161 679 161 669 C 161 660 158 652 153 644 C 148 636 140 628 130 620 L 24 543 L 2 563 L 86 686 C 94 697 101 704 108 707 C 115 710 122 712 128 712 Z M 144 30 L 144 0 L 18 0 L 18 30 C 18 32 18 35 20 38 C 21 40 23 43 27 46 C 31 49 35 52 37 55 C 39 58 40 64 40 72 L 40 414 C 40 422 39 427 37 430 C 35 433 31 436 27 440 C 23 442 21 445 20 448 C 18 450 18 453 18 456 L 18 486 C 26 486 36 487 47 488 C 58 488 68 489 77 489 C 86 489 94 490 101 490 C 108 490 112 491 113 491 C 117 491 120 490 121 489 C 121 488 122 486 122 483 L 122 72 C 122 64 123 58 125 55 C 127 52 130 49 135 46 C 138 43 140 40 142 38 C 143 35 144 32 144 30 Z" unicode="" />
<glyph horiz-adv-x="164" d="M 96 705 L 174 545 L 136 545 L 74 634 L 12 545 L -26 545 L 52 705 L 96 705 Z M 145 30 L 145 0 L 19 0 L 19 30 C 19 32 19 35 21 38 C 22 40 24 43 28 46 C 32 49 36 52 38 55 C 40 58 41 64 41 72 L 41 414 C 41 422 40 427 38 430 C 36 433 32 436 28 440 C 24 442 22 445 21 448 C 19 450 19 453 19 456 L 19 486 C 27 486 37 487 48 488 C 59 488 69 489 78 489 C 87 489 95 490 102 490 C 109 490 113 491 114 491 C 118 491 121 490 122 489 C 122 488 123 486 123 483 L 123 72 C 123 64 124 58 126 55 C 128 52 131 49 136 46 C 139 43 141 40 143 38 C 144 35 145 32 145 30 Z" unicode="" />
<glyph horiz-adv-x="164" d="M 143 664 C 155 664 166 659 175 650 C 184 640 189 629 189 617 C 189 604 184 593 175 584 C 166 574 155 570 143 570 C 130 570 119 574 110 584 C 101 593 97 604 97 617 C 97 629 101 640 110 650 C 119 659 130 664 143 664 Z M 20 664 C 32 664 43 659 52 650 C 61 640 66 629 66 617 C 66 604 61 593 52 584 C 43 574 32 570 20 570 C 7 570 -3 574 -12 584 C -21 593 -26 604 -26 617 C -26 629 -21 640 -12 650 C -3 659 7 664 20 664 Z M 145 30 L 145 0 L 19 0 L 19 30 C 19 32 19 35 21 38 C 22 40 24 43 28 46 C 32 49 36 52 38 55 C 40 58 41 64 41 72 L 41 414 C 41 422 40 427 38 430 C 36 433 32 436 28 440 C 24 442 22 445 21 448 C 19 450 19 453 19 456 L 19 486 C 27 486 37 487 48 488 C 59 488 69 489 78 489 C 87 489 95 490 102 490 C 109 490 113 491 114 491 C 118 491 121 490 122 489 C 122 488 123 486 123 483 L 123 72 C 123 64 124 58 126 55 C 128 52 131 49 136 46 C 139 43 141 40 143 38 C 144 35 145 32 145 30 Z" unicode="" />
<glyph horiz-adv-x="318" d="M 238 665 L 269 665 C 269 633 262 607 249 589 C 235 571 219 562 199 562 C 190 562 182 563 175 565 C 168 567 159 573 148 581 C 139 587 131 592 125 596 C 119 600 112 603 106 603 C 98 603 91 598 87 590 C 82 582 79 571 78 559 L 47 559 C 47 591 53 616 67 634 C 81 652 98 662 118 662 C 128 662 137 660 144 657 C 151 653 160 648 170 642 C 178 636 186 631 192 627 C 198 623 205 621 211 621 C 219 621 226 625 230 633 C 234 641 237 652 238 665 Z M 300 30 L 300 0 L 176 0 L 176 30 C 176 32 176 35 177 38 C 178 40 180 43 184 46 C 188 49 192 52 194 55 C 196 58 197 64 197 72 L 197 373 C 197 391 193 403 187 409 C 180 415 172 418 164 418 C 157 418 149 415 140 409 C 131 403 125 397 121 392 L 121 72 C 121 64 122 58 124 55 C 126 52 129 49 134 46 C 137 43 139 40 141 38 C 142 35 143 32 143 30 L 143 0 L 17 0 L 17 30 C 17 32 17 35 19 38 C 20 40 22 43 26 46 C 30 49 34 52 36 55 C 38 58 39 64 39 72 L 39 414 C 39 422 38 427 36 430 C 34 433 30 436 26 440 C 22 442 20 445 19 448 C 17 450 17 453 17 456 L 17 486 C 35 486 53 487 73 489 C 93 490 104 491 108 491 C 112 491 115 490 116 489 C 117 487 118 485 118 483 L 118 433 C 128 445 141 458 156 472 C 171 486 188 493 207 493 C 231 493 249 484 261 466 C 273 448 279 421 279 385 L 279 72 C 279 64 280 59 282 56 C 284 52 287 49 292 46 C 295 43 297 40 298 38 C 299 35 300 32 300 30 Z" unicode="" />
<glyph horiz-adv-x="296" d="M 133 686 L 218 563 L 196 543 L 90 620 C 79 627 71 635 66 643 C 61 651 59 660 59 669 C 59 679 62 689 68 698 C 74 707 82 712 93 712 C 98 712 104 710 111 707 C 117 704 125 697 133 686 Z M 148 493 C 170 493 190 486 206 473 C 222 460 236 442 246 420 C 256 397 264 370 269 340 C 274 309 277 277 277 243 C 277 209 274 176 269 146 C 263 116 255 89 245 67 C 235 44 221 26 205 13 C 189 0 170 -7 148 -7 C 125 -7 105 0 89 12 C 73 25 59 43 49 66 C 39 88 31 115 26 146 C 21 176 19 209 19 243 C 19 277 21 309 27 339 C 32 369 40 396 50 419 C 60 441 74 459 90 473 C 106 486 126 493 148 493 Z M 148 43 C 164 43 175 58 181 89 C 186 119 189 171 189 243 C 189 315 186 366 182 398 C 178 429 166 445 148 445 C 131 445 120 429 115 398 C 109 366 107 315 107 243 C 107 171 109 119 113 89 C 117 58 129 43 148 43 Z" unicode="" />
<glyph horiz-adv-x="296" d="M 203 712 C 213 712 221 707 227 698 C 233 689 236 679 236 669 C 236 660 233 651 229 643 C 224 635 216 627 206 620 L 100 543 L 77 563 L 162 686 C 170 697 177 704 184 707 C 190 710 197 712 203 712 Z M 148 493 C 170 493 190 486 206 473 C 222 460 236 442 246 420 C 256 397 264 370 269 340 C 274 309 277 277 277 243 C 277 209 274 176 269 146 C 263 116 255 89 245 67 C 235 44 221 26 205 13 C 189 0 170 -7 148 -7 C 125 -7 105 0 89 12 C 73 25 59 43 49 66 C 39 88 31 115 26 146 C 21 176 19 209 19 243 C 19 277 21 309 27 339 C 32 369 40 396 50 419 C 60 441 74 459 90 473 C 106 486 126 493 148 493 Z M 148 43 C 164 43 175 58 181 89 C 186 119 189 171 189 243 C 189 315 186 366 182 398 C 178 429 166 445 148 445 C 131 445 120 429 115 398 C 109 366 107 315 107 243 C 107 171 109 119 113 89 C 117 58 129 43 148 43 Z" unicode="" />
<glyph horiz-adv-x="296" d="M 169 705 L 255 545 L 217 545 L 148 629 L 78 545 L 40 545 L 126 705 L 169 705 Z M 148 493 C 170 493 190 486 206 473 C 222 460 236 442 246 420 C 256 397 264 370 269 340 C 274 309 277 277 277 243 C 277 209 274 176 269 146 C 263 116 255 89 245 67 C 235 44 221 26 205 13 C 189 0 170 -7 148 -7 C 125 -7 105 0 89 12 C 73 25 59 43 49 66 C 39 88 31 115 26 146 C 21 176 19 209 19 243 C 19 277 21 309 27 339 C 32 369 40 396 50 419 C 60 441 74 459 90 473 C 106 486 126 493 148 493 Z M 148 43 C 164 43 175 58 181 89 C 186 119 189 171 189 243 C 189 315 186 366 182 398 C 178 429 166 445 148 445 C 131 445 120 429 115 398 C 109 366 107 315 107 243 C 107 171 109 119 113 89 C 117 58 129 43 148 43 Z" unicode="" />
<glyph horiz-adv-x="296" d="M 228 665 L 259 665 C 259 633 252 607 239 589 C 225 571 208 562 188 562 C 179 562 171 563 165 565 C 158 567 149 572 138 581 C 129 586 121 591 115 596 C 108 600 101 603 95 603 C 87 603 80 598 76 590 C 72 582 69 571 68 559 L 37 559 C 37 591 43 616 57 634 C 71 652 87 662 107 662 C 117 662 126 660 133 657 C 140 653 149 648 159 642 C 167 636 175 631 181 627 C 187 623 194 621 200 621 C 208 621 215 625 219 633 C 223 641 226 652 228 665 Z M 148 493 C 170 493 190 486 206 473 C 222 460 236 442 246 420 C 256 397 264 370 269 340 C 274 309 277 277 277 243 C 277 209 274 176 269 146 C 263 116 255 89 245 67 C 235 44 221 26 205 13 C 189 0 170 -7 148 -7 C 125 -7 105 0 89 12 C 73 25 59 43 49 66 C 39 88 31 115 26 146 C 21 176 19 209 19 243 C 19 277 21 309 27 339 C 32 369 40 396 50 419 C 60 441 74 459 90 473 C 106 486 126 493 148 493 Z M 148 43 C 164 43 175 58 181 89 C 186 119 189 171 189 243 C 189 315 186 366 182 398 C 178 429 166 445 148 445 C 131 445 120 429 115 398 C 109 366 107 315 107 243 C 107 171 109 119 113 89 C 117 58 129 43 148 43 Z" unicode="" />
<glyph horiz-adv-x="296" d="M 212 664 C 224 664 235 659 244 650 C 253 640 258 629 258 617 C 258 604 253 593 244 584 C 235 574 224 570 212 570 C 199 570 188 574 179 584 C 170 593 166 604 166 617 C 166 629 170 640 179 650 C 188 659 199 664 212 664 Z M 81 664 C 93 664 104 659 113 650 C 122 640 127 629 127 617 C 127 604 122 593 113 584 C 104 574 93 570 81 570 C 68 570 57 574 48 584 C 39 593 35 604 35 617 C 35 629 39 640 48 650 C 57 659 68 664 81 664 Z M 148 493 C 170 493 190 486 206 473 C 222 460 236 442 246 420 C 256 397 264 370 269 340 C 274 309 277 277 277 243 C 277 209 274 176 269 146 C 263 116 255 89 245 67 C 235 44 221 26 205 13 C 189 0 170 -7 148 -7 C 125 -7 105 0 89 12 C 73 25 59 43 49 66 C 39 88 31 115 26 146 C 21 176 19 209 19 243 C 19 277 21 309 27 339 C 32 369 40 396 50 419 C 60 441 74 459 90 473 C 106 486 126 493 148 493 Z M 148 43 C 164 43 175 58 181 89 C 186 119 189 171 189 243 C 189 315 186 366 182 398 C 178 429 166 445 148 445 C 131 445 120 429 115 398 C 109 366 107 315 107 243 C 107 171 109 119 113 89 C 117 58 129 43 148 43 Z" unicode="" />
<glyph horiz-adv-x="478" d="M 239 543 C 253 543 266 537 278 526 C 289 514 295 501 295 487 C 295 472 289 459 278 448 C 266 436 253 431 239 431 C 224 431 211 436 200 448 C 188 459 183 472 183 487 C 183 501 188 514 200 526 C 211 537 224 543 239 543 Z M 436 357 L 436 296 L 42 296 L 42 357 L 436 357 Z M 239 222 C 253 222 266 216 278 205 C 289 193 295 180 295 166 C 295 151 289 138 278 127 C 266 115 253 110 239 110 C 224 110 211 115 200 127 C 188 138 183 151 183 166 C 183 180 188 193 200 205 C 211 216 224 222 239 222 Z" unicode="" />
<glyph horiz-adv-x="296" d="M 222 456 C 240 434 254 404 263 366 C 272 328 277 287 277 243 C 277 209 274 176 269 146 C 263 116 255 89 245 67 C 235 44 221 26 205 13 C 189 0 170 -7 148 -7 C 138 -7 129 -5 121 -3 C 112 0 104 3 98 8 L 86 -33 L 57 -33 L 74 30 C 55 52 41 81 32 119 C 23 157 19 198 19 243 C 19 277 21 309 27 339 C 32 369 40 396 50 419 C 60 441 74 459 90 473 C 106 486 126 493 148 493 C 157 493 166 491 175 488 C 183 485 191 481 199 477 L 210 519 L 240 519 L 222 456 Z M 106 141 L 181 413 C 177 423 173 431 168 437 C 162 442 156 445 148 445 C 131 445 119 429 113 398 C 106 366 103 315 103 243 C 103 223 103 204 104 186 C 104 168 105 153 106 141 Z M 148 43 C 164 43 176 58 183 89 C 189 119 193 171 193 243 C 193 262 192 280 192 298 C 191 315 190 330 190 344 L 116 73 C 118 62 122 54 128 50 C 133 45 140 43 148 43 Z" unicode="" />
<glyph horiz-adv-x="318" d="M 145 686 L 230 563 L 207 543 L 102 620 C 91 628 83 636 78 644 C 73 652 71 660 71 669 C 71 679 74 689 80 698 C 86 707 94 712 104 712 C 109 712 115 710 122 708 C 129 705 137 698 145 686 Z M 300 30 L 300 0 L 209 0 C 206 0 204 0 203 2 C 201 3 201 5 201 8 L 201 54 C 188 37 175 23 161 11 C 147 -1 132 -7 116 -7 C 100 -7 87 -3 77 4 C 67 11 59 20 53 31 C 47 42 44 55 42 69 C 40 83 39 98 39 112 L 39 414 C 39 422 38 427 36 430 C 34 433 30 436 26 440 C 22 442 20 445 19 448 C 17 450 17 453 17 456 L 17 486 C 35 486 54 487 75 489 C 95 490 108 491 112 491 C 116 491 119 490 120 489 C 120 487 121 485 121 483 L 121 107 C 121 91 124 80 131 75 C 138 70 145 68 152 68 C 160 68 169 70 177 76 C 185 81 191 87 197 95 L 197 414 C 197 422 196 427 194 430 C 192 433 188 436 184 440 C 180 442 178 445 177 448 C 175 451 175 454 175 456 L 175 486 C 183 486 193 487 203 488 C 213 488 223 489 233 489 C 242 489 250 490 257 490 C 263 490 267 491 269 491 C 273 491 276 490 277 490 C 278 489 279 487 279 483 L 279 72 C 279 64 280 58 282 55 C 284 52 287 49 292 46 C 295 43 297 40 298 38 C 299 35 300 32 300 30 Z" unicode="" />
<glyph horiz-adv-x="318" d="M 213 712 C 223 712 231 707 237 698 C 243 689 246 679 246 669 C 246 660 243 652 238 644 C 233 636 225 628 215 620 L 109 543 L 87 563 L 171 686 C 179 697 186 704 193 707 C 200 710 207 712 213 712 Z M 300 30 L 300 0 L 209 0 C 206 0 204 0 203 2 C 201 3 201 5 201 8 L 201 54 C 188 37 175 23 161 11 C 147 -1 132 -7 116 -7 C 100 -7 87 -3 77 4 C 67 11 59 20 53 31 C 47 42 44 55 42 69 C 40 83 39 98 39 112 L 39 414 C 39 422 38 427 36 430 C 34 433 30 436 26 440 C 22 442 20 445 19 448 C 17 450 17 453 17 456 L 17 486 C 35 486 54 487 75 489 C 95 490 108 491 112 491 C 116 491 119 490 120 489 C 120 487 121 485 121 483 L 121 107 C 121 91 124 80 131 75 C 138 70 145 68 152 68 C 160 68 169 70 177 76 C 185 81 191 87 197 95 L 197 414 C 197 422 196 427 194 430 C 192 433 188 436 184 440 C 180 442 178 445 177 448 C 175 451 175 454 175 456 L 175 486 C 183 486 193 487 203 488 C 213 488 223 489 233 489 C 242 489 250 490 257 490 C 263 490 267 491 269 491 C 273 491 276 490 277 490 C 278 489 279 487 279 483 L 279 72 C 279 64 280 58 282 55 C 284 52 287 49 292 46 C 295 43 297 40 298 38 C 299 35 300 32 300 30 Z" unicode="" />
<glyph horiz-adv-x="318" d="M 177 705 L 262 545 L 225 545 L 156 629 L 86 545 L 48 545 L 133 705 L 177 705 Z M 300 30 L 300 0 L 209 0 C 206 0 204 0 203 2 C 201 3 201 5 201 8 L 201 54 C 188 37 175 23 161 11 C 147 -1 132 -7 116 -7 C 100 -7 87 -3 77 4 C 67 11 59 20 53 31 C 47 42 44 55 42 69 C 40 83 39 98 39 112 L 39 414 C 39 422 38 427 36 430 C 34 433 30 436 26 440 C 22 442 20 445 19 448 C 17 450 17 453 17 456 L 17 486 C 35 486 54 487 75 489 C 95 490 108 491 112 491 C 116 491 119 490 120 489 C 120 487 121 485 121 483 L 121 107 C 121 91 124 80 131 75 C 138 70 145 68 152 68 C 160 68 169 70 177 76 C 185 81 191 87 197 95 L 197 414 C 197 422 196 427 194 430 C 192 433 188 436 184 440 C 180 442 178 445 177 448 C 175 451 175 454 175 456 L 175 486 C 183 486 193 487 203 488 C 213 488 223 489 233 489 C 242 489 250 490 257 490 C 263 490 267 491 269 491 C 273 491 276 490 277 490 C 278 489 279 487 279 483 L 279 72 C 279 64 280 58 282 55 C 284 52 287 49 292 46 C 295 43 297 40 298 38 C 299 35 300 32 300 30 Z" unicode="" />
<glyph horiz-adv-x="318" d="M 220 664 C 232 664 243 659 252 650 C 261 640 266 629 266 617 C 266 604 261 593 252 584 C 243 574 232 570 220 570 C 207 570 196 574 187 584 C 178 593 174 604 174 617 C 174 629 178 640 187 650 C 196 659 207 664 220 664 Z M 89 664 C 101 664 112 659 121 650 C 130 640 135 629 135 617 C 135 604 130 593 121 584 C 112 574 101 570 89 570 C 76 570 65 574 56 584 C 47 593 43 604 43 617 C 43 629 47 640 56 650 C 65 659 76 664 89 664 Z M 300 30 L 300 0 L 209 0 C 206 0 204 0 203 2 C 201 3 201 5 201 8 L 201 54 C 188 37 175 23 161 11 C 147 -1 132 -7 116 -7 C 100 -7 87 -3 77 4 C 67 11 59 20 53 31 C 47 42 44 55 42 69 C 40 83 39 98 39 112 L 39 414 C 39 422 38 427 36 430 C 34 433 30 436 26 440 C 22 442 20 445 19 448 C 17 450 17 453 17 456 L 17 486 C 35 486 54 487 75 489 C 95 490 108 491 112 491 C 116 491 119 490 120 489 C 120 487 121 485 121 483 L 121 107 C 121 91 124 80 131 75 C 138 70 145 68 152 68 C 160 68 169 70 177 76 C 185 81 191 87 197 95 L 197 414 C 197 422 196 427 194 430 C 192 433 188 436 184 440 C 180 442 178 445 177 448 C 175 451 175 454 175 456 L 175 486 C 183 486 193 487 203 488 C 213 488 223 489 233 489 C 242 489 250 490 257 490 C 263 490 267 491 269 491 C 273 491 276 490 277 490 C 278 489 279 487 279 483 L 279 72 C 279 64 280 58 282 55 C 284 52 287 49 292 46 C 295 43 297 40 298 38 C 299 35 300 32 300 30 Z" unicode="" />
<glyph horiz-adv-x="292" d="M 215 712 C 225 712 233 707 239 698 C 245 689 248 679 248 669 C 248 660 245 652 240 644 C 235 636 227 628 217 620 L 111 543 L 89 563 L 173 686 C 181 697 188 704 195 707 C 202 710 209 712 215 712 Z M 286 486 L 286 456 C 286 453 285 450 284 448 C 282 445 280 442 277 440 C 272 436 268 431 264 424 C 260 417 257 410 256 403 L 168 0 C 157 -48 144 -88 128 -121 C 112 -154 89 -171 58 -171 C 42 -171 29 -165 19 -155 C 9 -144 5 -131 5 -117 C 5 -103 9 -91 17 -81 C 25 -71 37 -66 51 -66 C 57 -66 63 -68 69 -73 C 75 -77 79 -82 83 -87 C 83 -87 84 -88 85 -89 C 86 -90 87 -91 88 -91 C 88 -91 89 -90 91 -89 C 92 -88 93 -86 95 -84 C 99 -78 103 -69 108 -56 C 112 -43 116 -29 119 -15 C 119 -12 120 -9 120 -7 C 120 -4 120 -2 120 0 C 120 1 120 3 120 5 C 120 7 119 9 119 11 L 34 410 C 32 418 30 424 26 429 C 22 433 19 437 15 440 C 11 442 9 445 8 448 C 6 450 6 453 6 456 L 6 486 L 141 486 L 141 456 C 141 453 140 450 139 448 C 137 445 135 442 132 440 C 127 436 123 433 121 430 C 118 426 117 422 117 418 C 117 414 117 409 118 404 C 118 398 119 392 121 386 L 146 260 C 149 243 152 224 154 202 C 156 180 159 160 161 144 C 163 160 165 180 167 202 C 169 224 172 243 176 260 L 201 380 C 202 387 203 393 204 399 C 205 405 206 410 206 414 C 206 420 204 424 201 428 C 197 432 192 436 186 440 C 182 442 180 444 179 447 C 177 450 177 453 177 456 L 177 486 L 286 486 Z" unicode="" />
<glyph horiz-adv-x="292" d="M 217 664 C 229 664 240 659 249 650 C 258 640 263 629 263 617 C 263 604 258 593 249 584 C 240 574 229 570 217 570 C 204 570 193 574 184 584 C 175 593 171 604 171 617 C 171 629 175 640 184 650 C 193 659 204 664 217 664 Z M 86 664 C 98 664 109 659 118 650 C 127 640 132 629 132 617 C 132 604 127 593 118 584 C 109 574 98 570 86 570 C 73 570 62 574 53 584 C 44 593 40 604 40 617 C 40 629 44 640 53 650 C 62 659 73 664 86 664 Z M 286 486 L 286 456 C 286 453 285 450 284 448 C 282 445 280 442 277 440 C 272 436 268 431 264 424 C 260 417 257 410 256 403 L 168 0 C 157 -48 144 -88 128 -121 C 112 -154 89 -171 58 -171 C 42 -171 29 -165 19 -155 C 9 -144 5 -131 5 -117 C 5 -103 9 -91 17 -81 C 25 -71 37 -66 51 -66 C 57 -66 63 -68 69 -73 C 75 -77 79 -82 83 -87 C 83 -87 84 -88 85 -89 C 86 -90 87 -91 88 -91 C 88 -91 89 -90 91 -89 C 92 -88 93 -86 95 -84 C 99 -78 103 -69 108 -56 C 112 -43 116 -29 119 -15 C 119 -12 120 -9 120 -7 C 120 -4 120 -2 120 0 C 120 1 120 3 120 5 C 120 7 119 9 119 11 L 34 410 C 32 418 30 424 26 429 C 22 433 19 437 15 440 C 11 442 9 445 8 448 C 6 450 6 453 6 456 L 6 486 L 141 486 L 141 456 C 141 453 140 450 139 448 C 137 445 135 442 132 440 C 127 436 123 433 121 430 C 118 426 117 422 117 418 C 117 414 117 409 118 404 C 118 398 119 392 121 386 L 146 260 C 149 243 152 224 154 202 C 156 180 159 160 161 144 C 163 160 165 180 167 202 C 169 224 172 243 176 260 L 201 380 C 202 387 203 393 204 399 C 205 405 206 410 206 414 C 206 420 204 424 201 428 C 197 432 192 436 186 440 C 182 442 180 444 179 447 C 177 450 177 453 177 456 L 177 486 L 286 486 Z" unicode="" />
<glyph horiz-adv-x="160" d="M 143 30 L 143 0 L 17 0 L 17 30 C 17 32 17 35 19 38 C 20 40 22 43 26 46 C 30 49 34 52 36 55 C 38 58 39 64 39 72 L 39 414 C 39 422 38 427 36 430 C 34 433 30 436 26 440 C 22 442 20 445 19 448 C 17 450 17 453 17 456 L 17 486 C 25 486 35 487 46 488 C 57 488 67 489 76 489 C 85 489 93 490 100 490 C 107 490 111 491 112 491 C 116 491 119 490 120 489 C 120 488 121 486 121 483 L 121 72 C 121 64 122 58 124 55 C 126 52 129 49 134 46 C 137 43 139 40 141 38 C 142 35 143 32 143 30 Z" unicode="" />
<glyph horiz-adv-x="301" d="M 291 195 L 291 0 L 20 0 L 20 29 C 20 33 20 37 22 41 C 23 45 25 47 29 49 C 39 53 44 57 46 63 C 48 69 49 77 49 88 L 49 333 L 6 301 L 6 367 L 49 397 L 49 699 C 49 709 48 717 46 723 C 44 729 39 734 29 738 C 25 739 23 741 22 745 C 20 749 20 753 20 758 L 20 787 L 172 787 L 172 758 C 172 753 171 749 169 745 C 167 741 165 739 161 738 C 151 734 145 729 142 725 C 138 720 137 711 137 699 L 137 446 L 212 503 L 212 438 L 137 382 L 137 60 L 172 60 C 192 60 208 67 219 82 C 230 97 240 129 248 178 C 249 185 250 190 252 192 C 254 194 257 195 261 195 L 291 195 Z" unicode="" />
<glyph horiz-adv-x="168" d="M 164 483 L 164 426 L 125 392 L 125 72 C 125 64 126 58 128 55 C 130 52 133 49 138 46 C 141 43 143 40 145 38 C 146 35 147 32 147 30 L 147 0 L 21 0 L 21 30 C 21 32 21 35 23 38 C 24 40 26 43 30 46 C 34 49 38 52 40 55 C 42 58 43 64 43 72 L 43 346 L 6 312 L 6 370 L 43 403 L 43 715 C 43 723 42 728 40 731 C 38 734 34 737 30 741 C 26 743 24 746 22 749 C 20 751 20 754 20 757 L 20 787 C 37 787 56 788 77 790 C 98 791 111 792 116 792 C 120 792 123 791 124 790 C 124 789 125 787 125 784 L 125 448 L 164 483 Z" unicode="" />
<glyph horiz-adv-x="501" d="M 484 192 L 484 0 L 248 0 C 202 0 165 10 136 31 C 106 51 83 79 67 114 C 50 148 38 188 32 234 C 26 280 23 328 23 378 C 23 436 26 490 34 540 C 41 590 53 634 71 670 C 88 706 111 735 141 756 C 170 777 207 788 251 788 C 279 788 307 787 336 787 C 364 787 393 787 421 787 C 433 787 442 787 450 789 C 457 791 462 792 466 792 C 468 792 469 791 470 789 C 471 787 472 783 472 777 L 472 614 L 443 614 C 438 614 435 615 433 617 C 431 619 429 624 429 631 C 423 671 416 697 406 709 C 396 721 381 728 359 728 L 321 728 L 321 436 L 348 436 C 360 436 369 440 375 449 C 380 457 384 471 387 491 C 388 498 390 502 392 504 C 394 506 398 507 403 507 L 430 507 L 430 304 L 402 304 C 397 304 393 305 391 307 C 389 309 387 313 387 319 C 384 341 379 356 371 366 C 363 376 354 381 344 381 L 321 381 L 321 59 L 364 59 C 385 59 401 66 412 81 C 423 96 432 127 440 175 C 441 182 442 187 444 189 C 446 191 449 192 454 192 L 484 192 Z M 219 59 L 233 59 L 233 728 L 220 728 C 182 728 156 699 141 643 C 126 586 119 502 119 392 C 119 348 120 305 122 265 C 124 224 128 188 135 158 C 142 128 152 104 165 86 C 178 68 196 59 219 59 Z" unicode="" />
<glyph horiz-adv-x="442" d="M 309 493 C 345 493 373 474 393 436 C 413 398 424 334 424 246 L 267 246 C 267 186 270 140 277 109 C 283 77 299 62 325 62 C 341 62 353 69 360 83 C 366 97 371 112 375 130 C 375 131 375 132 376 134 C 377 135 378 136 379 136 C 380 136 381 136 383 136 C 384 136 386 135 388 135 L 408 131 C 411 130 413 128 415 126 C 416 124 417 119 417 113 C 417 104 415 93 411 79 C 407 65 401 52 393 40 C 385 27 374 16 360 7 C 346 -2 329 -7 309 -7 C 292 -7 277 -2 264 7 C 250 17 239 30 229 46 C 219 30 207 17 193 7 C 179 -2 164 -7 148 -7 C 125 -7 105 0 89 12 C 73 25 59 43 49 66 C 39 88 31 115 26 146 C 21 176 19 209 19 243 C 19 277 21 309 27 339 C 32 369 40 396 50 419 C 60 441 74 459 90 473 C 106 486 126 493 148 493 C 165 493 180 488 194 478 C 208 468 220 456 230 442 C 240 456 251 468 265 478 C 278 488 293 493 309 493 Z M 266 297 L 347 297 C 347 351 344 390 339 412 C 333 434 323 445 309 445 C 295 445 284 434 277 413 C 269 391 266 353 266 297 Z M 148 43 C 164 43 175 58 180 89 C 185 119 188 171 188 243 C 188 315 186 366 182 398 C 178 429 166 445 148 445 C 131 445 120 429 115 398 C 110 366 108 315 108 243 C 108 171 110 119 114 89 C 118 58 129 43 148 43 Z" unicode="" />
<glyph horiz-adv-x="305" d="M 234 997 L 271 997 L 182 841 L 139 841 L 49 997 L 87 997 L 160 917 L 234 997 Z M 217 421 C 237 393 254 364 268 332 C 282 300 289 262 289 218 C 289 185 285 155 279 127 C 273 99 264 74 252 54 C 240 34 225 18 207 7 C 189 -4 170 -10 149 -10 C 134 -10 121 -7 111 -2 C 101 2 93 7 87 12 C 85 14 83 15 81 16 C 79 17 77 18 76 18 C 74 18 73 17 72 17 C 71 16 69 15 67 13 L 55 4 C 53 2 51 1 49 1 C 47 0 45 0 44 0 L 31 0 C 28 0 26 0 25 2 C 24 3 24 5 24 7 L 24 227 L 57 227 C 61 227 64 226 66 224 C 68 222 69 218 70 212 C 78 162 86 122 96 91 C 105 60 123 45 150 45 C 170 45 186 57 198 82 C 209 106 215 134 215 164 C 215 189 210 216 201 245 C 192 274 179 300 162 324 C 154 334 145 346 135 358 C 125 370 115 383 105 398 C 72 440 51 477 41 509 C 31 540 27 573 27 607 C 27 665 38 711 62 745 C 86 779 114 797 148 797 C 162 797 174 794 185 790 C 195 785 204 780 210 775 C 211 774 212 773 214 772 C 215 771 216 771 218 771 C 218 771 218 771 220 772 C 221 773 222 774 223 775 C 223 776 225 777 227 779 C 229 780 231 781 233 781 L 265 781 L 265 586 L 237 586 C 231 586 227 587 225 589 C 223 591 222 594 222 599 C 215 641 207 675 197 702 C 187 728 171 742 147 742 C 136 742 125 734 114 718 C 103 702 98 681 98 653 C 98 632 101 610 108 587 C 114 563 129 538 151 510 C 166 489 179 472 190 458 C 200 444 209 431 217 421 Z" unicode="" />
<glyph horiz-adv-x="252" d="M 201 705 L 239 705 L 154 545 L 110 545 L 25 705 L 63 705 L 132 621 L 201 705 Z M 157 290 C 183 268 203 246 218 224 C 232 202 240 174 240 140 C 240 121 237 103 232 85 C 226 67 218 52 208 38 C 198 24 184 13 168 5 C 152 -2 133 -7 112 -7 C 85 -7 61 1 40 19 C 18 36 8 61 8 94 C 8 110 12 124 21 135 C 29 145 41 151 55 151 C 71 151 82 146 90 136 C 98 126 102 115 102 104 C 102 96 100 87 96 79 C 92 70 89 64 86 61 C 88 56 91 52 97 48 C 102 44 109 42 118 42 C 135 42 148 49 156 63 C 164 77 169 92 169 108 C 169 126 163 144 153 161 C 143 178 126 196 104 214 C 76 236 55 259 42 281 C 29 303 23 330 23 362 C 23 404 34 437 58 459 C 82 481 108 493 138 493 C 172 493 197 483 211 465 C 225 447 233 426 233 403 C 233 388 228 376 220 367 C 211 358 202 354 192 354 C 179 354 168 358 160 366 C 152 374 148 384 148 398 C 148 405 149 412 152 419 C 154 425 157 430 160 433 C 158 435 155 438 151 441 C 147 443 142 445 134 445 C 125 445 116 441 106 433 C 96 425 91 411 91 393 C 91 371 95 354 105 341 C 115 327 132 310 157 290 Z" unicode="" />
<glyph horiz-adv-x="358" d="M 255 951 C 267 951 278 946 287 937 C 296 927 301 916 301 904 C 301 891 296 880 287 871 C 278 861 267 857 255 857 C 242 857 231 861 222 871 C 213 880 209 891 209 904 C 209 916 213 927 222 937 C 231 946 242 951 255 951 Z M 118 951 C 130 951 141 946 150 937 C 159 927 164 916 164 904 C 164 891 159 880 150 871 C 141 861 130 857 118 857 C 105 857 94 861 85 871 C 76 880 72 891 72 904 C 72 916 76 927 85 937 C 94 946 105 951 118 951 Z M 354 787 L 354 758 C 354 753 353 749 352 745 C 350 741 348 739 345 738 C 336 735 330 731 327 725 C 323 719 320 710 316 696 L 221 344 L 221 88 C 221 77 222 69 224 63 C 226 57 232 53 242 49 C 245 47 247 45 249 41 C 251 37 252 33 252 29 L 252 0 L 104 0 L 104 29 C 104 33 104 37 106 41 C 107 45 110 47 114 49 C 123 53 129 57 131 63 C 133 69 134 77 134 88 L 134 317 L 40 696 C 36 710 33 720 29 726 C 25 732 20 735 15 737 C 10 738 7 741 5 745 C 3 749 3 753 3 758 L 3 787 L 157 787 L 157 758 C 157 753 156 749 155 745 C 153 741 151 739 147 738 C 140 735 135 732 131 728 C 127 724 126 719 126 714 C 126 708 127 700 130 690 C 132 680 135 670 137 662 L 183 471 C 184 464 186 456 188 446 C 190 436 192 426 194 416 C 195 426 197 436 199 446 C 201 456 203 465 205 472 L 254 669 C 255 675 256 682 258 691 C 260 699 261 706 261 712 C 261 717 259 722 255 727 C 251 731 245 735 237 738 C 234 739 232 741 230 745 C 228 749 228 753 228 758 L 228 787 L 354 787 Z" unicode="" />
<glyph horiz-adv-x="302" d="M 235 997 L 272 997 L 183 841 L 140 841 L 50 997 L 88 997 L 161 917 L 235 997 Z M 291 778 L 291 755 C 291 751 290 747 288 743 C 286 738 285 733 285 729 L 118 99 C 116 93 115 87 113 81 C 111 75 111 71 111 69 C 111 65 112 63 115 61 C 118 59 121 59 124 59 L 162 59 C 184 59 201 66 212 80 C 222 94 232 126 240 175 C 241 182 243 187 245 189 C 247 191 250 192 255 192 L 284 192 L 284 10 C 284 4 283 0 283 -1 C 283 -3 281 -5 278 -5 C 275 -5 269 -4 261 -2 C 253 0 243 0 233 0 L 27 0 C 22 0 17 1 13 3 C 9 5 7 8 7 13 C 7 17 7 21 8 25 C 8 29 9 32 9 34 L 185 695 C 185 699 187 704 189 711 C 191 717 192 721 192 723 C 192 725 191 727 190 727 C 189 727 188 728 187 728 L 146 728 C 124 728 109 721 99 709 C 89 697 82 671 77 631 C 76 624 75 619 73 617 C 71 615 67 614 63 614 L 33 614 L 33 777 C 33 783 33 787 34 789 C 34 791 36 792 39 792 C 43 792 48 791 54 789 C 60 787 71 787 85 787 L 283 787 C 285 787 286 786 288 784 C 290 782 291 780 291 778 Z" unicode="" />
<glyph horiz-adv-x="255" d="M 203 705 L 241 705 L 156 545 L 112 545 L 27 705 L 65 705 L 134 621 L 203 705 Z M 243 486 L 243 447 C 243 442 242 438 242 435 C 241 432 240 429 238 425 L 103 82 C 102 78 101 74 99 70 C 97 65 96 62 96 61 C 96 58 97 56 100 56 C 102 56 105 56 107 56 L 133 56 C 151 56 164 62 173 74 C 181 86 188 107 194 138 C 194 143 196 146 198 147 C 200 148 203 149 206 149 L 232 149 L 232 8 C 232 5 231 3 231 1 C 231 -1 229 -2 227 -2 C 224 -2 219 -1 212 -1 C 205 0 198 0 192 0 L 12 0 L 12 49 C 12 54 12 59 12 63 C 12 67 14 71 16 76 L 157 434 L 114 434 C 98 434 87 427 80 413 C 72 399 67 383 64 363 C 63 358 62 355 60 354 C 58 352 54 352 50 352 L 24 352 L 24 482 C 24 485 24 487 25 489 C 25 490 27 491 29 491 C 31 491 35 490 43 488 C 51 486 58 486 64 486 L 243 486 Z" unicode="" />
<glyph horiz-adv-x="279" d="M 238 794 C 252 794 265 789 276 781 C 286 772 292 759 292 741 C 292 728 287 716 279 705 C 270 694 260 689 248 689 C 236 689 226 693 218 701 C 209 709 204 719 203 732 C 196 726 190 718 186 708 C 181 698 177 687 174 675 C 171 663 169 652 167 640 C 165 628 164 618 164 610 L 149 426 L 216 426 L 211 369 L 144 369 L 102 -137 L 23 -137 L 65 369 L 24 369 L 26 407 C 26 415 29 420 33 422 C 37 423 42 424 48 426 C 54 427 59 431 64 437 C 68 443 72 455 74 473 C 76 498 80 525 84 553 C 88 581 95 608 103 634 C 111 660 121 684 133 708 C 145 731 161 751 179 767 C 187 774 197 780 207 786 C 217 791 227 794 238 794 Z" unicode="" />
<glyph horiz-adv-x="292" d="M 168 705 L 253 545 L 215 545 L 146 629 L 77 545 L 39 545 L 124 705 L 168 705 Z" unicode="" />
<glyph horiz-adv-x="292" d="M 215 705 L 253 705 L 168 545 L 124 545 L 39 705 L 77 705 L 146 621 L 215 705 Z" unicode="" />
<glyph horiz-adv-x="292" d="M 250 643 L 250 589 L 43 589 L 43 643 L 250 643 Z" unicode="" />
<glyph horiz-adv-x="292" d="M 214 705 L 244 705 C 238 647 229 607 216 583 C 202 559 179 548 147 548 C 114 548 91 559 77 583 C 63 607 53 647 49 705 L 79 705 C 85 674 92 651 100 635 C 108 619 123 611 147 611 C 169 611 184 618 192 633 C 200 648 207 672 214 705 Z" unicode="" />
<glyph horiz-adv-x="292" d="M 144 689 C 159 689 172 683 184 672 C 195 660 201 647 201 632 C 201 616 195 603 184 592 C 172 580 159 575 144 575 C 128 575 115 580 104 592 C 93 603 88 616 88 632 C 88 647 93 660 104 672 C 115 683 128 689 144 689 Z" unicode="" />
<glyph horiz-adv-x="292" d="M 146 712 C 170 712 191 703 208 685 C 225 667 234 645 234 617 C 234 589 225 566 208 548 C 191 530 170 522 146 522 C 121 522 100 530 83 548 C 66 566 58 589 58 617 C 58 645 66 667 83 685 C 100 703 121 712 146 712 Z M 146 561 C 156 561 164 565 172 573 C 179 581 183 596 183 617 C 183 637 179 651 172 660 C 164 668 156 673 146 673 C 136 673 127 668 120 659 C 112 649 109 635 109 617 C 109 596 112 581 120 573 C 127 565 136 561 146 561 Z" unicode="" />
<glyph horiz-adv-x="292" d="M 226 665 L 257 665 C 257 633 250 607 237 589 C 223 571 207 562 187 562 C 178 562 170 563 163 565 C 156 567 147 573 136 581 C 127 587 119 592 113 596 C 107 600 100 603 94 603 C 85 603 78 598 74 590 C 70 582 67 571 66 559 L 35 559 C 35 591 41 616 55 634 C 69 652 86 662 106 662 C 116 662 125 660 132 657 C 139 653 147 648 157 642 C 165 636 173 631 180 627 C 186 623 193 621 199 621 C 207 621 214 625 218 633 C 222 641 225 652 226 665 Z" unicode="" />
<glyph horiz-adv-x="368" d="M 350 40 C 350 38 351 36 352 34 C 352 32 353 31 353 31 C 353 30 352 29 351 28 C 350 26 349 25 349 24 C 341 16 330 8 317 2 C 303 -3 291 -7 279 -7 C 259 -7 243 0 232 11 C 220 23 215 48 215 86 L 215 416 L 157 416 C 155 363 154 311 152 260 C 150 208 146 163 140 123 C 134 83 124 51 110 27 C 96 2 77 -10 53 -10 C 40 -10 28 -5 18 3 C 8 11 3 24 3 41 C 3 55 7 67 16 75 C 25 83 35 88 46 88 C 52 88 58 86 64 83 C 70 79 74 75 78 71 C 82 79 85 96 88 122 C 90 147 92 176 94 209 C 96 241 97 276 99 313 C 100 350 101 384 103 416 C 84 415 71 408 64 396 C 57 383 52 365 48 343 L 11 344 C 14 392 27 427 49 451 C 71 474 97 486 128 486 L 348 486 L 348 416 L 295 416 L 295 103 C 295 86 297 75 302 70 C 306 64 312 62 319 62 C 323 62 326 62 330 63 C 333 64 336 65 338 65 C 340 65 341 64 342 63 C 342 62 343 61 344 59 L 350 40 Z" unicode="" />
<glyph horiz-adv-x="355" d="M 332 287 L 332 225 L 24 225 L 24 287 L 332 287 Z" unicode="" />
<glyph horiz-adv-x="699" d="M 676 287 L 676 225 L 24 225 L 24 287 L 676 287 Z" unicode="" />
<glyph horiz-adv-x="691" d="M 693 62 L 693 0 L -2 0 L -2 62 L 693 62 Z" unicode="" />
<glyph horiz-adv-x="160" d="M 138 788 C 139 786 140 784 141 782 C 142 780 143 779 143 777 C 143 775 142 774 141 772 C 139 770 137 769 135 767 C 121 754 109 740 100 725 C 91 709 85 692 81 674 C 91 672 102 667 114 659 C 125 650 131 637 131 621 C 131 604 125 590 115 579 C 104 568 91 563 77 563 C 60 563 46 569 35 582 C 24 595 19 612 19 633 C 19 667 28 699 47 727 C 65 755 85 775 105 788 C 109 790 113 792 117 794 C 120 796 123 797 126 797 C 128 797 129 796 131 795 C 133 793 135 791 138 788 Z" unicode="" />
<glyph horiz-adv-x="160" d="M 83 797 C 99 797 113 790 124 777 C 135 764 141 747 141 727 C 141 692 131 661 113 633 C 94 605 75 584 55 572 C 50 569 46 567 43 565 C 39 563 36 563 34 563 C 32 563 30 563 28 565 C 26 566 24 568 22 572 C 20 574 19 575 18 577 C 17 579 17 581 17 583 C 17 584 17 585 19 587 C 20 589 22 591 25 593 C 39 605 50 619 59 635 C 68 650 75 667 79 686 C 68 687 57 692 46 701 C 34 709 29 722 29 739 C 29 755 34 769 45 780 C 55 791 68 797 83 797 Z" unicode="" />
<glyph horiz-adv-x="160" d="M 83 110 C 99 110 113 103 124 90 C 135 77 141 60 141 40 C 141 5 131 -26 113 -54 C 94 -82 75 -102 55 -115 C 50 -117 46 -119 43 -121 C 39 -123 36 -124 34 -124 C 32 -124 30 -123 28 -122 C 26 -120 24 -118 22 -115 C 20 -113 19 -111 18 -109 C 17 -107 17 -106 17 -104 C 17 -102 17 -101 19 -99 C 20 -97 22 -96 25 -94 C 39 -81 50 -67 59 -52 C 68 -36 75 -19 79 -1 C 68 0 57 5 46 14 C 34 22 29 35 29 52 C 29 68 34 82 45 93 C 55 104 68 110 83 110 Z" unicode="" />
<glyph horiz-adv-x="300" d="M 278 788 C 279 786 280 784 281 782 C 282 780 283 779 283 777 C 283 775 282 774 281 772 C 279 770 277 769 275 767 C 261 754 249 740 240 725 C 231 709 225 692 221 674 C 231 672 242 667 254 659 C 265 650 271 637 271 621 C 271 604 265 590 255 579 C 244 568 231 563 217 563 C 200 563 186 569 175 582 C 164 595 159 612 159 633 C 159 667 168 699 187 727 C 205 755 225 775 245 788 C 249 790 253 792 257 794 C 260 796 263 797 266 797 C 268 797 269 796 271 795 C 273 793 275 791 278 788 Z M 138 788 C 139 786 140 784 141 782 C 142 780 143 779 143 777 C 143 775 142 774 141 772 C 139 770 137 769 135 767 C 121 754 109 740 100 725 C 91 709 85 692 81 674 C 91 672 102 667 114 659 C 125 650 131 637 131 621 C 131 604 125 590 115 579 C 104 568 91 563 77 563 C 60 563 46 569 35 582 C 24 595 19 612 19 633 C 19 667 28 699 47 727 C 65 755 85 775 105 788 C 109 790 113 792 117 794 C 120 796 123 797 126 797 C 128 797 129 796 131 795 C 133 793 135 791 138 788 Z" unicode="" />
<glyph horiz-adv-x="300" d="M 223 797 C 239 797 253 790 264 777 C 275 764 281 747 281 727 C 281 692 271 661 253 633 C 234 605 215 584 195 572 C 190 569 186 567 183 565 C 179 563 176 563 174 563 C 172 563 170 563 168 565 C 166 566 164 568 162 572 C 160 574 159 575 158 577 C 157 579 157 581 157 583 C 157 584 157 585 159 587 C 160 589 162 591 165 593 C 179 605 190 619 199 635 C 208 650 215 667 219 686 C 208 687 197 692 186 701 C 174 709 169 722 169 739 C 169 755 174 769 185 780 C 195 791 208 797 223 797 Z M 83 797 C 99 797 113 790 124 777 C 135 764 141 747 141 727 C 141 692 131 661 113 633 C 94 605 75 584 55 572 C 50 569 46 567 43 565 C 39 563 36 563 34 563 C 32 563 30 563 28 565 C 26 566 24 568 22 572 C 20 574 19 575 18 577 C 17 579 17 581 17 583 C 17 584 17 585 19 587 C 20 589 22 591 25 593 C 39 605 50 619 59 635 C 68 650 75 667 79 686 C 68 687 57 692 46 701 C 34 709 29 722 29 739 C 29 755 34 769 45 780 C 55 791 68 797 83 797 Z" unicode="" />
<glyph horiz-adv-x="300" d="M 223 110 C 239 110 253 103 264 90 C 275 77 281 60 281 40 C 281 5 271 -26 253 -54 C 234 -82 215 -102 195 -115 C 190 -117 186 -119 183 -121 C 179 -123 176 -124 174 -124 C 172 -124 170 -123 168 -122 C 166 -120 164 -118 162 -115 C 160 -113 159 -111 158 -109 C 157 -107 157 -106 157 -104 C 157 -102 157 -101 159 -99 C 160 -97 162 -96 165 -94 C 179 -81 190 -67 199 -52 C 208 -36 215 -19 219 -1 C 208 0 197 5 186 14 C 174 22 169 35 169 52 C 169 68 174 82 185 93 C 195 104 208 110 223 110 Z M 83 110 C 99 110 113 103 124 90 C 135 77 141 60 141 40 C 141 5 131 -26 113 -54 C 94 -82 75 -102 55 -115 C 50 -117 46 -119 43 -121 C 39 -123 36 -124 34 -124 C 32 -124 30 -123 28 -122 C 26 -120 24 -118 22 -115 C 20 -113 19 -111 18 -109 C 17 -107 17 -106 17 -104 C 17 -102 17 -101 19 -99 C 20 -97 22 -96 25 -94 C 39 -81 50 -67 59 -52 C 68 -36 75 -19 79 -1 C 68 0 57 5 46 14 C 34 22 29 35 29 52 C 29 68 34 82 45 93 C 55 104 68 110 83 110 Z" unicode="" />
<glyph horiz-adv-x="355" d="M 273 669 C 285 669 295 665 302 657 C 308 649 312 641 312 631 C 312 621 308 611 302 603 C 295 595 285 591 273 591 C 265 591 258 592 253 595 C 247 597 242 600 238 603 C 233 606 227 609 221 612 C 214 614 205 616 194 616 C 194 604 196 587 202 565 C 207 543 214 525 223 509 C 218 497 214 480 210 460 C 206 439 204 416 202 390 C 200 364 199 337 198 307 C 197 277 197 248 197 219 L 157 219 C 157 248 156 277 156 307 C 155 337 154 364 152 390 C 150 416 147 439 144 460 C 140 480 136 497 132 509 C 140 525 147 543 152 565 C 157 587 160 604 160 616 C 148 616 139 614 133 612 C 126 609 120 606 116 603 C 111 600 106 597 101 595 C 95 592 89 591 81 591 C 68 591 58 595 52 603 C 45 611 42 621 42 631 C 42 641 45 649 52 657 C 58 665 68 669 81 669 C 96 669 107 665 115 657 C 123 649 138 645 160 645 C 160 663 156 681 149 697 C 141 713 138 729 138 745 C 138 759 141 772 148 782 C 155 792 165 797 177 797 C 189 797 199 792 206 782 C 213 772 217 759 217 745 C 217 729 213 713 205 697 C 197 681 194 663 194 645 C 216 645 231 649 239 657 C 247 665 258 669 273 669 Z" unicode="" />
<glyph horiz-adv-x="355" d="M 273 425 C 285 425 295 420 302 412 C 308 404 312 395 312 385 C 312 375 308 366 302 358 C 295 350 285 347 273 347 C 258 347 247 351 239 359 C 231 367 216 371 194 371 C 194 352 197 335 205 319 C 213 303 217 287 217 271 C 217 256 213 244 206 234 C 199 224 189 219 177 219 C 165 219 155 224 148 234 C 141 244 138 256 138 271 C 138 287 141 303 149 319 C 156 335 160 352 160 371 C 138 371 123 367 115 359 C 107 351 96 347 81 347 C 68 347 58 350 52 358 C 45 366 42 375 42 385 C 42 395 45 404 52 412 C 58 420 68 425 81 425 C 89 425 95 423 101 421 C 106 418 111 415 116 413 C 120 410 126 407 133 405 C 139 402 148 401 160 401 C 160 413 157 429 152 451 C 147 473 140 492 132 508 C 140 524 147 543 152 565 C 157 587 160 604 160 616 C 148 616 139 614 133 612 C 126 609 120 606 116 603 C 111 600 106 597 101 595 C 95 592 89 591 81 591 C 68 591 58 595 52 603 C 45 611 42 621 42 631 C 42 641 45 649 52 657 C 58 665 68 669 81 669 C 96 669 107 665 115 657 C 123 649 138 645 160 645 C 160 663 156 681 149 697 C 141 713 138 729 138 745 C 138 759 141 772 148 782 C 155 792 165 797 177 797 C 189 797 199 792 206 782 C 213 772 217 759 217 745 C 217 729 213 713 205 697 C 197 681 194 663 194 645 C 216 645 231 649 239 657 C 247 665 258 669 273 669 C 285 669 295 665 302 657 C 308 649 312 641 312 631 C 312 621 308 611 302 603 C 295 595 285 591 273 591 C 265 591 258 592 253 595 C 247 597 242 600 238 603 C 233 606 227 609 221 612 C 214 614 205 616 194 616 C 194 604 196 587 202 565 C 207 543 214 525 223 509 C 214 493 207 473 202 451 C 196 429 194 412 194 400 C 205 400 214 401 221 404 C 227 406 233 409 238 412 C 242 415 247 418 253 421 C 258 423 265 425 273 425 Z" unicode="" />
<glyph horiz-adv-x="423" d="M 212 544 C 238 544 263 538 287 528 C 310 518 330 504 348 486 C 365 468 379 448 389 425 C 399 401 405 376 405 350 C 405 323 399 298 389 275 C 379 251 365 231 348 213 C 330 195 310 181 287 171 C 263 161 238 156 212 156 C 185 156 160 161 136 171 C 112 181 92 195 75 213 C 57 231 43 251 33 275 C 23 298 18 323 18 350 C 18 376 23 401 33 425 C 43 448 57 468 75 486 C 92 504 112 518 136 528 C 160 538 185 544 212 544 Z" unicode="" />
<glyph horiz-adv-x="537" d="M 448 116 C 464 116 479 109 491 97 C 503 84 510 69 510 53 C 510 36 503 21 491 9 C 479 -3 464 -10 448 -10 C 431 -10 416 -3 404 9 C 392 21 386 36 386 53 C 386 69 392 84 404 97 C 416 109 431 116 448 116 Z M 269 116 C 285 116 300 109 312 97 C 324 84 331 69 331 53 C 331 36 324 21 312 9 C 300 -3 285 -10 269 -10 C 252 -10 237 -3 225 9 C 213 21 207 36 207 53 C 207 69 213 84 225 97 C 237 109 252 116 269 116 Z M 90 116 C 106 116 121 109 133 97 C 145 84 152 69 152 53 C 152 36 145 21 133 9 C 121 -3 106 -10 90 -10 C 73 -10 58 -3 46 9 C 34 21 28 36 28 53 C 28 69 34 84 46 97 C 58 109 73 116 90 116 Z" unicode="" />
<glyph horiz-adv-x="867" d="M 142 797 C 162 797 180 790 194 777 C 208 764 220 747 230 725 C 239 703 246 677 250 647 C 254 617 257 586 257 554 C 257 521 255 490 251 461 C 247 431 240 406 231 384 C 222 362 210 345 195 332 C 180 319 162 313 141 313 C 121 313 104 319 90 332 C 76 345 64 363 55 385 C 45 407 38 432 34 462 C 30 492 28 523 28 556 C 28 588 30 619 34 648 C 38 677 44 703 53 725 C 62 747 74 764 89 777 C 103 790 121 797 142 797 Z M 419 787 L 472 787 L 184 0 L 131 0 L 419 787 Z M 141 358 C 147 358 153 361 158 367 C 162 373 166 383 170 398 C 173 412 175 432 177 458 C 179 484 180 516 180 556 C 180 631 176 682 170 710 C 164 738 154 752 142 752 C 129 752 120 738 114 710 C 108 682 105 631 105 556 C 105 516 105 484 107 458 C 109 432 111 412 114 398 C 116 383 120 373 125 367 C 129 361 135 358 141 358 Z M 724 477 C 744 477 762 470 776 457 C 790 444 802 427 812 405 C 821 383 828 357 832 327 C 836 297 839 266 839 234 C 839 201 837 170 833 141 C 829 111 822 86 813 64 C 803 42 791 25 777 12 C 762 0 744 -7 723 -7 C 703 -7 686 0 672 12 C 657 25 645 43 636 65 C 626 87 619 112 615 142 C 611 172 609 203 609 236 C 609 268 611 299 615 328 C 619 357 625 383 635 405 C 644 427 656 444 671 457 C 685 470 703 477 724 477 Z M 462 477 C 482 477 500 470 514 457 C 528 444 540 427 550 405 C 559 383 566 357 570 327 C 574 297 577 266 577 234 C 577 201 575 170 571 141 C 567 111 560 86 551 64 C 541 42 529 25 515 12 C 500 0 482 -7 461 -7 C 441 -7 424 0 410 12 C 395 25 383 43 374 65 C 364 87 357 112 353 142 C 349 172 347 203 347 236 C 347 268 349 299 353 328 C 357 357 363 383 373 405 C 382 427 394 444 409 457 C 423 470 441 477 462 477 Z M 723 38 C 729 38 735 41 740 47 C 744 53 748 63 751 78 C 754 92 756 112 758 138 C 760 164 761 196 761 236 C 761 311 758 362 752 390 C 746 418 736 432 724 432 C 711 432 702 418 696 390 C 690 362 687 311 687 236 C 687 196 687 164 689 138 C 690 112 692 92 695 78 C 698 63 702 53 707 47 C 711 41 717 38 723 38 Z M 461 38 C 467 38 473 41 478 47 C 482 53 486 63 489 78 C 492 92 494 112 496 138 C 498 164 499 196 499 236 C 499 311 496 362 490 390 C 484 418 474 432 462 432 C 449 432 440 418 434 390 C 428 362 425 311 425 236 C 425 196 425 164 427 138 C 428 112 430 92 433 78 C 436 63 440 53 445 47 C 449 41 455 38 461 38 Z" unicode="" />
<glyph horiz-adv-x="197" d="M 108 256 L 167 77 L 117 77 L 42 224 C 39 228 37 233 35 238 C 33 243 32 249 32 256 C 32 262 33 268 35 273 C 37 278 39 283 42 288 L 117 435 L 167 435 L 108 256 Z" unicode="" />
<glyph horiz-adv-x="197" d="M 155 288 C 157 283 159 278 161 273 C 163 268 164 262 164 256 C 164 249 163 243 161 238 C 159 233 157 228 155 224 L 79 77 L 29 77 L 88 256 L 29 435 L 79 435 L 155 288 Z" unicode="" />
<glyph horiz-adv-x="209" d="M 221 787 L 274 787 L -14 0 L -67 0 L 221 787 Z" unicode="" />
<glyph horiz-adv-x="384" d="M 355 186 C 355 166 352 144 347 121 C 342 98 335 77 325 58 C 315 38 301 22 285 9 C 268 -3 248 -10 226 -10 C 200 -10 178 -1 159 15 C 140 31 124 54 112 82 C 99 110 89 142 82 179 C 75 216 70 255 68 295 L 21 295 L 21 351 L 65 351 L 65 381 C 65 389 65 398 65 408 C 65 417 66 426 67 435 L 21 435 L 21 491 L 70 491 C 74 533 81 573 91 611 C 101 648 113 680 128 708 C 143 736 161 757 181 773 C 201 789 224 797 250 797 C 281 797 306 788 325 771 C 343 753 353 729 353 697 C 353 680 348 666 338 654 C 328 642 316 637 304 637 C 290 637 277 642 267 652 C 257 662 252 676 252 693 C 252 698 253 704 256 712 C 259 719 261 724 263 728 C 263 731 261 734 257 738 C 253 741 248 743 241 743 C 214 743 193 720 179 674 C 164 628 155 567 152 491 L 280 491 L 280 435 L 149 435 L 149 351 L 256 351 L 256 295 L 153 295 C 155 210 164 150 178 114 C 192 78 212 61 236 61 C 248 61 259 66 269 76 C 278 86 285 99 291 114 C 297 128 301 144 304 160 C 307 176 309 189 309 201 L 351 196 C 352 196 353 195 354 194 C 354 193 355 190 355 186 Z" unicode="" />
<glyph horiz-adv-x="480" d="M 428 787 L 435 576 L 398 576 L 391 728 L 336 576 L 314 576 L 260 728 L 252 576 L 216 576 L 227 787 L 282 787 L 326 653 L 371 787 L 428 787 Z M 193 787 L 193 752 L 136 752 L 136 576 L 96 576 L 96 753 L 40 753 L 40 787 L 193 787 Z" unicode="" />
<glyph horiz-adv-x="560" d="M 194 342 L 194 319 L 55 319 L 55 342 C 55 346 56 349 58 353 C 60 356 63 358 66 359 C 75 361 82 364 86 368 C 90 372 93 379 93 390 L 93 719 C 93 719 92 720 91 721 C 90 721 89 722 89 722 L 47 722 L 47 747 C 47 751 47 754 49 757 C 51 760 53 762 56 763 L 118 789 C 120 789 123 790 125 790 C 127 790 130 791 132 791 L 160 791 L 160 390 C 160 379 161 372 163 369 C 165 365 170 362 180 360 C 185 358 189 356 191 353 C 193 350 194 346 194 342 Z M 381 787 L 431 787 L 158 0 L 107 0 L 381 787 Z M 458 257 C 476 248 492 234 506 215 C 520 195 527 170 527 140 C 527 120 524 102 519 84 C 514 66 507 50 497 37 C 487 23 474 13 460 5 C 445 -3 428 -7 409 -7 C 382 -7 361 1 345 18 C 329 35 321 54 321 75 C 321 87 324 98 332 107 C 340 115 349 120 359 120 C 369 120 378 116 386 109 C 394 101 398 92 398 81 C 398 78 397 73 395 67 C 393 61 389 55 385 51 C 385 46 388 42 393 40 C 397 37 403 36 410 36 C 428 36 440 46 446 67 C 452 87 456 114 456 148 C 456 178 450 200 438 214 C 426 227 409 234 386 235 L 386 279 C 411 279 429 286 440 300 C 450 314 456 335 456 365 C 456 385 453 402 448 415 C 443 427 434 434 422 434 C 417 434 412 433 408 431 C 403 429 400 427 398 424 C 402 419 405 414 407 410 C 409 405 410 400 410 394 C 410 383 406 374 399 367 C 391 359 383 356 375 356 C 364 356 355 359 348 367 C 340 374 337 384 337 398 C 337 420 346 439 364 454 C 382 469 403 477 425 477 C 449 477 472 468 493 450 C 514 432 525 406 525 371 C 525 344 518 321 504 301 C 490 281 475 266 458 257 Z" unicode="" />
<glyph horiz-adv-x="595" d="M 133 797 C 170 797 197 785 213 762 C 229 739 237 712 237 682 C 237 646 229 614 215 586 C 201 558 181 528 157 497 C 144 480 131 461 117 441 C 103 421 93 403 88 388 L 161 388 C 171 388 179 390 184 394 C 189 398 193 406 196 419 C 197 425 198 429 200 431 C 202 433 205 434 210 434 L 235 434 L 235 332 C 235 324 234 319 232 318 C 230 317 228 317 226 317 C 223 317 219 317 215 318 C 211 319 205 320 197 320 L 32 320 L 32 358 C 32 362 33 370 37 381 C 41 392 45 404 51 417 C 57 430 63 443 70 456 C 76 469 83 480 89 489 C 113 525 132 559 145 591 C 158 623 165 654 165 682 C 165 702 162 719 156 733 C 150 747 141 754 130 754 C 122 754 116 752 112 748 C 108 744 105 740 105 736 C 108 733 111 728 115 722 C 118 716 120 710 120 704 C 120 692 116 682 109 674 C 101 665 92 661 80 661 C 67 661 57 666 50 676 C 42 686 39 697 39 709 C 39 718 41 728 45 738 C 49 748 55 758 63 767 C 71 775 80 782 92 788 C 104 794 117 797 133 797 Z M 415 787 L 465 787 L 192 0 L 142 0 L 415 787 Z M 492 257 C 510 248 526 234 540 215 C 554 195 561 170 561 140 C 561 120 558 102 553 84 C 548 66 541 50 531 37 C 521 23 509 13 495 5 C 480 -3 463 -7 444 -7 C 417 -7 395 1 379 18 C 363 35 355 54 355 75 C 355 87 358 98 366 107 C 374 115 383 120 393 120 C 403 120 412 116 420 109 C 428 101 432 92 432 81 C 432 78 431 73 429 67 C 427 61 423 55 419 51 C 419 46 422 42 427 40 C 432 37 438 36 445 36 C 463 36 475 46 481 67 C 487 87 490 114 490 148 C 490 178 484 200 472 214 C 460 227 443 234 420 235 L 420 279 C 445 279 463 286 474 300 C 484 314 490 335 490 365 C 490 385 487 402 483 415 C 478 427 469 434 456 434 C 451 434 446 433 442 431 C 437 429 434 427 432 424 C 436 419 439 414 441 410 C 443 405 445 400 445 394 C 445 383 441 374 433 367 C 425 359 417 356 409 356 C 399 356 390 359 382 367 C 374 374 371 384 371 398 C 371 420 380 439 398 454 C 416 469 437 477 459 477 C 483 477 506 468 528 450 C 549 432 560 406 560 371 C 560 344 553 321 539 301 C 525 281 509 266 492 257 Z" unicode="" />
<glyph horiz-adv-x="558" d="M 194 342 L 194 319 L 55 319 L 55 342 C 55 346 56 349 58 353 C 60 356 63 358 66 359 C 75 361 82 364 86 368 C 90 372 93 379 93 390 L 93 719 C 93 719 92 720 91 721 C 90 721 89 722 89 722 L 47 722 L 47 747 C 47 751 47 754 49 757 C 51 760 53 762 56 763 L 118 789 C 120 789 123 790 125 790 C 127 790 130 791 132 791 L 160 791 L 160 390 C 160 379 161 372 163 369 C 165 365 170 362 180 360 C 185 358 189 356 191 353 C 193 350 194 346 194 342 Z M 381 787 L 431 787 L 158 0 L 107 0 L 381 787 Z M 462 261 C 482 239 497 219 509 199 C 521 179 527 153 527 122 C 527 88 517 58 497 32 C 477 5 452 -8 422 -8 C 388 -8 361 3 343 25 C 324 47 315 75 315 107 C 315 137 322 163 337 185 C 351 207 366 225 381 239 C 366 257 354 275 344 294 C 334 312 330 333 330 357 C 330 389 339 418 357 442 C 375 466 399 478 428 478 C 456 478 479 468 495 448 C 511 428 519 406 519 381 C 519 354 513 331 501 311 C 489 291 476 275 462 261 Z M 436 287 C 446 299 453 312 457 326 C 461 340 463 356 463 374 C 463 388 460 401 455 414 C 449 426 440 433 426 433 C 414 433 404 428 398 418 C 392 408 389 396 389 384 C 389 362 393 344 401 331 C 409 318 421 303 436 287 Z M 420 36 C 434 36 446 42 454 55 C 462 67 466 82 466 99 C 466 121 460 141 450 158 C 439 175 425 193 408 212 C 397 199 389 185 383 169 C 377 153 374 134 374 112 C 374 90 377 72 385 58 C 392 43 404 36 420 36 Z" unicode="" />
</font>
</defs>
</svg>
