<?xml version="1.0" encoding="utf-8" ?><svg version="1.1" xmlns = 'http://www.w3.org/2000/svg'><defs><font id='web' horiz-adv-x="1000">
<font-face font-family="web" descent="-208" cap-height="700" units-per-em="1000" bbox="-164,-203,1147,992" x-height="500" ascent="792" />
<missing-glyph horiz-adv-x="230" d="" /><glyph horiz-adv-x="230" d="" unicode=" " />
<glyph horiz-adv-x="283" d="M 141 741 C 162 741 177 733 185 717 C 193 701 197 683 197 665 C 197 634 194 603 188 573 C 182 543 177 502 171 451 C 165 405 162 359 162 314 C 162 268 161 229 160 196 C 160 194 158 192 154 190 C 150 187 146 186 142 186 C 138 186 135 187 131 190 C 127 192 125 194 125 196 C 123 230 122 269 122 314 C 122 359 119 405 113 451 C 106 502 100 543 94 573 C 88 603 86 634 86 665 C 86 683 90 701 98 717 C 106 733 120 741 141 741 Z M 141 111 C 158 111 172 105 184 93 C 196 81 202 68 202 53 C 202 37 196 23 184 11 C 172 0 158 -6 141 -6 C 123 -6 109 0 98 11 C 87 23 82 37 82 53 C 82 68 87 81 98 93 C 109 105 123 111 141 111 Z" unicode="!" />
<glyph horiz-adv-x="398" d="M 280 740 C 297 740 309 734 317 724 C 325 714 329 701 329 685 C 329 675 327 662 325 646 C 323 629 320 610 317 590 C 313 569 309 547 305 523 C 300 499 296 476 292 454 C 290 452 289 450 288 449 C 286 448 284 448 280 448 C 276 448 274 448 272 449 C 270 450 269 452 267 454 C 263 476 258 498 254 522 C 250 546 246 568 242 589 C 238 609 235 628 233 645 C 231 662 230 675 230 685 C 230 701 234 714 242 724 C 250 734 262 740 280 740 Z M 118 740 C 135 740 148 734 156 724 C 164 714 169 701 169 685 C 169 675 167 662 165 646 C 163 629 160 610 156 590 C 152 569 148 547 144 523 C 140 499 136 476 132 454 C 130 452 129 450 127 449 C 125 448 122 448 118 448 C 114 448 112 448 110 449 C 108 450 107 452 106 454 C 102 476 97 498 93 522 C 88 546 84 568 81 589 C 77 609 74 628 72 645 C 70 662 69 675 69 685 C 69 701 72 714 80 724 C 88 734 100 740 118 740 Z" unicode="&#x22;" />
<glyph horiz-adv-x="764" d="M 502 496 L 667 496 L 656 423 L 489 423 L 466 269 L 633 269 L 622 196 L 453 196 L 420 -9 L 381 -9 L 414 196 L 297 196 L 265 -9 L 225 -9 L 257 196 L 93 196 L 104 269 L 270 269 L 294 423 L 127 423 L 138 496 L 306 496 L 336 685 L 375 685 L 345 496 L 462 496 L 491 685 L 530 685 L 502 496 Z M 425 269 L 450 423 L 334 423 L 309 269 L 425 269 Z" unicode="#" />
<glyph horiz-adv-x="549" d="M 398 359 C 432 341 460 319 482 293 C 503 267 514 235 514 198 C 514 175 509 152 501 129 C 493 106 480 85 463 67 C 445 48 424 32 398 20 C 372 7 341 0 307 -3 L 307 -136 L 265 -136 L 265 -6 C 221 -5 185 0 155 10 C 125 20 101 32 83 47 C 65 61 52 77 44 94 C 36 111 32 127 32 141 C 32 165 38 182 51 192 C 64 202 79 207 96 207 C 116 207 130 201 139 190 C 147 179 152 167 152 155 C 152 142 148 131 142 121 C 135 111 122 101 104 93 C 119 80 140 67 166 55 C 192 42 225 35 265 35 L 265 315 C 257 318 248 321 239 325 C 229 329 218 333 206 338 C 190 344 174 351 158 360 C 142 369 127 380 113 394 C 99 407 88 423 80 441 C 71 459 67 480 67 504 C 67 556 85 598 122 631 C 159 664 207 683 265 688 L 265 740 L 307 740 L 307 689 C 346 687 377 680 401 670 C 425 659 443 647 456 634 C 468 620 477 607 481 594 C 485 580 487 570 487 564 C 487 544 481 529 471 520 C 460 510 448 506 436 506 C 423 506 411 509 400 517 C 388 525 383 536 383 551 C 383 563 386 574 393 582 C 399 590 408 597 420 604 C 411 610 399 619 384 629 C 368 639 343 646 307 649 L 307 399 C 319 393 333 388 348 382 C 362 376 379 368 398 359 Z M 238 418 C 242 416 247 415 252 413 C 256 411 261 409 265 408 L 265 649 C 232 645 204 634 181 614 C 158 594 147 571 147 546 C 147 520 152 496 164 476 C 175 455 200 436 238 418 Z M 307 39 C 345 44 375 58 398 80 C 420 102 432 130 432 162 C 432 168 431 177 430 188 C 429 198 425 210 419 222 C 413 234 402 247 388 260 C 374 273 354 285 329 297 C 325 298 321 300 317 302 C 313 304 309 305 307 306 L 307 39 Z" unicode="$" />
<glyph horiz-adv-x="851" d="M 605 733 L 658 733 L 244 -10 L 191 -10 L 605 733 Z M 215 727 C 259 727 296 708 326 672 C 356 635 371 587 371 528 C 371 468 356 420 326 384 C 296 347 259 329 215 329 C 171 329 135 347 105 384 C 75 420 61 468 61 528 C 61 587 75 635 105 672 C 134 708 171 727 215 727 Z M 215 367 C 241 367 261 379 277 404 C 292 428 300 470 300 528 C 300 586 292 627 277 652 C 262 676 241 689 215 689 C 189 689 169 676 154 652 C 139 627 132 586 132 528 C 132 470 139 428 154 404 C 169 379 189 367 215 367 Z M 633 393 C 677 393 714 374 744 338 C 773 301 788 253 788 194 C 788 134 773 86 743 50 C 713 13 677 -5 633 -5 C 589 -5 553 13 523 50 C 493 86 479 134 479 194 C 479 253 493 301 523 338 C 552 374 589 393 633 393 Z M 633 33 C 658 33 678 45 694 70 C 709 94 717 136 717 194 C 717 252 709 293 694 318 C 679 342 659 355 633 355 C 607 355 587 342 572 318 C 557 293 550 252 550 194 C 550 136 557 94 572 70 C 587 45 607 33 633 33 Z" unicode="%" />
<glyph horiz-adv-x="664" d="M 655 59 L 667 29 C 649 19 632 10 616 2 C 599 -6 575 -10 543 -10 C 512 -10 485 -4 463 6 C 440 16 416 34 392 59 C 368 37 342 20 314 8 C 285 -3 255 -10 223 -10 C 189 -10 160 -5 136 3 C 112 12 92 24 76 39 C 60 54 49 71 41 91 C 33 111 30 131 30 153 C 30 191 42 226 67 257 C 92 287 133 315 190 339 C 176 361 165 382 157 403 C 149 423 145 445 145 468 C 145 506 160 538 190 565 C 220 592 260 606 310 606 C 333 606 353 602 371 595 C 389 587 403 578 415 567 C 426 556 434 544 440 530 C 445 516 448 503 448 491 C 448 452 432 419 401 393 C 370 366 331 347 283 335 C 292 320 302 305 313 290 C 323 274 335 258 347 240 C 362 217 376 197 390 181 C 403 164 416 148 429 134 C 451 158 469 182 483 207 C 497 232 505 248 505 254 C 505 262 502 269 497 274 C 492 278 481 284 464 290 C 455 292 449 294 446 296 C 443 298 442 300 442 304 L 442 322 L 645 322 L 645 303 C 645 297 641 292 634 290 C 626 287 620 285 615 284 C 609 282 603 280 598 278 C 592 276 587 273 581 269 C 575 265 568 258 560 249 C 552 240 543 228 533 212 C 519 191 506 172 492 156 C 478 140 464 124 449 110 C 467 91 488 74 511 58 C 533 42 556 34 580 34 C 591 34 603 36 617 42 C 631 48 643 53 655 59 Z M 269 362 C 293 370 313 380 327 392 C 341 404 352 417 359 429 C 366 441 370 453 372 464 C 374 475 375 483 375 489 C 375 517 367 539 352 553 C 336 567 320 574 304 574 C 280 574 262 566 248 551 C 234 536 227 519 227 499 C 227 470 231 446 239 426 C 247 406 257 384 269 362 Z M 259 42 C 279 42 299 45 318 53 C 337 61 355 70 371 82 C 354 100 337 120 321 140 C 305 160 288 183 272 207 C 263 219 252 235 240 253 C 228 271 215 291 203 312 C 173 296 152 277 138 254 C 124 230 117 206 117 180 C 117 141 129 108 153 82 C 177 55 212 42 259 42 Z" unicode="&#x26;" />
<glyph horiz-adv-x="238" d="M 118 740 C 135 740 148 734 156 724 C 164 714 169 701 169 685 C 169 675 167 662 165 646 C 163 629 160 610 156 590 C 152 569 148 547 144 523 C 140 499 136 476 132 454 C 130 452 129 450 127 449 C 125 448 122 448 118 448 C 114 448 112 448 110 449 C 108 450 107 452 106 454 C 102 476 97 498 93 522 C 88 546 84 568 81 589 C 77 609 74 628 72 645 C 70 662 69 675 69 685 C 69 701 72 714 80 724 C 88 734 100 740 118 740 Z" unicode="'" />
<glyph horiz-adv-x="345" d="M 140 276 C 140 178 156 93 189 20 C 221 -53 269 -113 333 -161 L 304 -190 C 269 -164 236 -134 206 -100 C 175 -66 148 -29 126 10 C 104 50 86 92 73 137 C 60 181 54 228 54 276 C 54 320 60 365 73 409 C 85 453 103 494 125 534 C 147 574 173 611 204 646 C 234 681 268 712 304 740 L 333 711 C 271 665 223 603 190 527 C 156 450 140 366 140 276 Z" unicode="(" />
<glyph horiz-adv-x="345" d="M 42 740 C 78 712 111 681 142 646 C 172 611 199 574 221 534 C 243 494 260 453 273 409 C 285 365 292 320 292 276 C 292 228 285 181 272 137 C 259 92 241 50 219 10 C 197 -29 170 -66 140 -100 C 109 -134 76 -164 42 -190 L 13 -161 C 76 -113 124 -53 157 20 C 189 93 206 178 206 276 C 206 366 189 450 156 527 C 122 603 75 665 13 711 L 42 740 Z" unicode=")" />
<glyph horiz-adv-x="451" d="M 372 650 C 383 650 392 646 400 639 C 408 631 412 623 412 613 C 412 606 410 600 406 594 C 402 588 397 583 389 579 C 376 571 365 567 357 565 C 348 563 339 562 330 561 C 320 559 309 557 296 553 C 283 549 266 541 245 530 C 265 518 282 511 296 507 C 309 503 320 501 330 499 C 339 497 348 496 357 494 C 365 492 376 488 388 482 C 396 477 401 472 405 466 C 409 460 411 453 411 447 C 411 437 407 428 399 420 C 391 412 383 409 373 409 C 360 409 348 413 338 423 C 327 433 317 443 309 454 C 303 462 295 471 286 479 C 276 487 259 498 235 512 C 235 488 237 470 240 458 C 243 445 246 434 250 426 C 253 417 256 409 259 401 C 261 393 263 382 263 368 C 263 355 259 345 251 338 C 243 331 234 328 225 328 C 213 328 204 331 196 339 C 188 346 185 356 185 368 C 185 382 186 393 189 401 C 191 409 194 417 198 426 C 201 434 204 445 207 458 C 210 470 212 488 213 512 C 189 499 173 489 164 481 C 154 473 147 466 141 459 C 134 449 125 439 114 428 C 103 416 91 411 77 411 C 66 411 57 414 49 422 C 41 429 37 438 37 448 C 37 454 38 460 42 466 C 46 472 52 477 60 482 C 72 489 83 493 91 495 C 99 497 108 498 118 500 C 128 501 139 503 152 507 C 165 511 182 518 204 530 C 182 541 165 549 152 553 C 138 557 127 559 118 561 C 108 563 99 565 91 567 C 83 569 73 573 61 580 C 53 584 47 589 43 595 C 39 601 38 607 38 614 C 38 624 42 632 50 640 C 58 648 66 652 76 652 C 88 652 100 647 111 637 C 122 627 132 617 140 607 C 146 598 154 589 163 581 C 171 572 188 561 214 549 C 213 571 211 589 208 602 C 205 614 202 625 199 634 C 195 643 192 652 190 660 C 187 668 186 679 186 693 C 186 705 190 715 198 722 C 206 729 215 733 225 733 C 235 733 244 729 252 722 C 260 714 264 705 264 693 C 264 679 262 668 260 660 C 257 652 254 643 251 634 C 247 625 244 614 241 602 C 238 589 236 571 236 549 C 259 561 276 571 286 579 C 296 587 303 594 308 602 C 314 611 323 621 334 633 C 345 644 358 650 372 650 Z" unicode="*" />
<glyph horiz-adv-x="766" d="M 652 319 L 652 267 L 411 267 L 411 35 L 355 35 L 355 267 L 114 267 L 114 319 L 355 319 L 355 551 L 411 551 L 411 319 L 652 319 Z" unicode="+" />
<glyph horiz-adv-x="230" d="M 114 112 C 138 112 155 105 164 91 C 173 77 178 59 178 37 C 178 22 175 6 170 -10 C 165 -27 157 -44 147 -61 C 137 -78 123 -95 107 -111 C 91 -127 71 -141 49 -153 L 26 -131 C 46 -117 66 -99 86 -79 C 106 -59 121 -32 130 1 C 100 1 80 7 71 19 C 61 30 57 42 57 55 C 57 73 62 87 74 97 C 86 107 99 112 114 112 Z" unicode="," />
<glyph horiz-adv-x="330" d="M 286 329 L 286 264 L 44 264 L 44 329 L 286 329 Z" unicode="-" />
<glyph horiz-adv-x="230" d="M 115 109 C 132 109 146 103 158 92 C 170 80 176 67 176 52 C 176 36 170 23 158 11 C 146 0 132 -6 115 -6 C 98 -6 84 0 73 11 C 62 23 57 36 57 52 C 57 67 62 80 73 92 C 84 103 98 109 115 109 Z" unicode="." />
<glyph horiz-adv-x="454" d="M 356 730 L 415 730 L 38 -190 L -19 -190 L 356 730 Z" unicode="/" />
<glyph horiz-adv-x="597" d="M 300 695 C 337 695 371 686 403 669 C 435 652 462 628 484 597 C 506 566 524 529 536 485 C 548 441 555 394 555 342 C 555 289 548 241 536 198 C 523 154 505 117 483 87 C 461 56 434 32 403 15 C 371 -1 337 -10 300 -10 C 262 -10 227 -1 195 15 C 163 32 135 56 113 87 C 91 117 73 154 61 198 C 48 241 42 289 42 342 C 42 394 48 441 60 485 C 72 529 90 566 113 597 C 135 628 163 652 195 669 C 227 686 262 695 300 695 Z M 300 30 C 347 30 385 53 414 100 C 443 147 458 228 458 342 C 458 455 443 535 415 583 C 386 631 348 655 300 655 C 250 655 210 631 182 583 C 153 535 139 454 139 342 C 139 229 153 149 182 101 C 210 53 250 30 300 30 Z" unicode="0" />
<glyph horiz-adv-x="385" d="M 345 22 L 345 0 L 66 0 L 66 21 C 66 31 71 37 83 39 C 94 41 106 44 118 46 C 138 48 151 54 156 62 C 160 70 163 82 163 99 L 163 592 L 49 592 L 49 625 L 219 687 L 248 687 L 248 99 C 248 85 251 73 258 65 C 264 56 278 50 298 48 C 308 46 318 44 329 41 C 339 38 345 32 345 22 Z" unicode="1" />
<glyph horiz-adv-x="503" d="M 257 695 C 322 695 374 679 413 647 C 451 615 471 574 471 522 C 471 488 462 457 446 428 C 430 399 410 373 388 349 C 365 325 341 304 317 286 C 292 267 271 251 255 239 C 224 214 194 189 165 163 C 135 137 108 108 84 76 L 353 76 C 371 76 385 79 397 85 C 409 91 418 107 425 133 C 427 141 430 145 435 146 C 439 146 444 147 450 147 L 470 147 L 466 0 L 23 0 L 23 56 C 33 72 47 91 64 112 C 80 133 99 155 119 177 C 139 199 160 221 182 244 C 204 266 225 288 245 308 C 279 342 309 377 335 413 C 361 449 374 488 374 530 C 374 568 360 598 334 620 C 308 642 273 654 230 654 C 200 654 173 645 149 629 C 125 613 111 597 107 581 C 117 573 125 564 132 556 C 139 547 143 536 143 522 C 143 506 138 494 129 485 C 120 475 108 471 94 471 C 73 471 58 476 48 488 C 38 500 34 516 34 537 C 34 555 40 573 52 592 C 64 611 80 628 100 643 C 120 658 144 670 171 680 C 198 690 227 695 257 695 Z" unicode="2" />
<glyph horiz-adv-x="511" d="M 290 378 C 312 376 335 371 359 363 C 382 355 403 345 421 331 C 439 317 453 299 465 277 C 477 255 483 230 483 201 C 483 166 475 135 459 109 C 443 82 422 60 397 43 C 371 25 343 12 311 3 C 279 -5 248 -10 217 -10 C 188 -10 161 -6 136 0 C 110 5 88 14 70 26 C 52 38 37 52 27 68 C 16 84 11 101 11 121 C 11 133 15 146 25 159 C 34 172 49 179 70 179 C 88 179 102 173 111 163 C 119 153 124 144 124 136 C 124 121 121 109 116 101 C 111 93 105 84 99 76 C 105 65 118 55 139 45 C 160 35 184 31 212 31 C 241 31 266 35 288 45 C 310 55 328 67 342 83 C 356 99 367 117 374 137 C 381 157 385 177 385 198 C 385 254 366 293 328 317 C 290 340 237 352 167 352 L 167 391 C 205 394 236 399 262 407 C 287 414 307 424 321 436 C 335 448 345 464 351 482 C 357 500 360 522 360 548 C 360 573 349 597 329 620 C 308 642 276 654 234 654 C 203 654 179 649 161 641 C 143 632 128 622 117 612 C 127 603 135 595 140 588 C 145 580 148 570 148 558 C 148 543 143 531 134 522 C 124 512 111 508 94 508 C 79 508 66 513 56 524 C 46 535 41 550 41 569 C 41 587 47 603 59 619 C 71 634 87 647 107 659 C 127 670 149 679 173 685 C 197 691 222 695 246 695 C 275 695 303 691 329 684 C 355 676 377 666 396 653 C 414 639 429 623 440 604 C 451 585 457 564 457 542 C 457 519 452 499 443 481 C 434 463 422 448 407 435 C 391 421 374 410 354 401 C 334 391 312 384 290 378 Z" unicode="3" />
<glyph horiz-adv-x="524" d="M 513 234 L 513 183 L 404 183 L 404 72 C 404 63 406 56 410 51 C 414 46 422 41 434 37 C 442 33 448 31 451 30 C 454 29 456 27 456 25 L 456 0 L 259 0 L 259 25 C 259 27 261 29 267 31 C 272 32 278 34 284 37 C 294 41 303 44 309 48 C 315 52 319 60 319 72 L 319 183 L -7 183 L -7 224 L 358 695 L 404 695 L 404 234 L 513 234 Z M 53 234 L 319 234 L 319 578 L 53 234 Z" unicode="4" />
<glyph horiz-adv-x="515" d="M 255 437 C 295 437 330 430 359 418 C 388 405 412 389 431 369 C 449 349 463 326 472 302 C 480 277 485 253 485 229 C 485 193 477 160 463 131 C 449 101 430 76 406 55 C 382 34 353 18 321 7 C 289 -4 255 -10 220 -10 C 192 -10 167 -6 143 0 C 119 6 99 15 81 27 C 63 38 50 51 40 67 C 30 83 25 100 25 118 C 25 132 29 146 39 159 C 48 172 63 179 84 179 C 100 179 113 173 122 163 C 130 153 135 143 135 135 C 135 120 133 109 129 101 C 125 93 119 85 111 75 C 116 64 130 54 152 45 C 174 35 199 31 226 31 C 252 31 275 36 295 46 C 315 56 332 70 346 87 C 359 103 369 122 376 143 C 383 164 387 185 387 207 C 387 231 384 253 378 275 C 372 297 363 315 351 331 C 339 347 323 359 304 369 C 284 378 261 383 234 383 C 204 383 177 378 154 368 C 131 358 109 344 87 326 L 60 344 L 78 684 L 354 684 C 376 684 389 685 394 688 C 399 691 404 699 408 713 C 410 721 413 726 416 727 C 419 728 423 729 428 729 L 449 729 L 441 609 L 122 609 L 111 392 C 135 408 160 419 184 426 C 208 433 232 437 255 437 Z" unicode="5" />
<glyph horiz-adv-x="568" d="M 331 422 C 361 422 389 417 415 407 C 441 397 463 383 481 366 C 499 348 513 328 523 304 C 533 280 539 255 539 228 C 539 196 533 166 521 137 C 509 108 493 83 471 61 C 449 39 423 22 392 9 C 361 -3 327 -10 289 -10 C 250 -10 215 -2 185 14 C 154 30 128 52 107 80 C 85 108 69 142 58 182 C 47 221 42 264 42 312 C 42 360 48 408 61 454 C 73 500 92 540 118 576 C 144 612 176 640 215 662 C 253 684 298 695 350 695 C 396 695 433 685 461 667 C 489 648 504 625 504 599 C 504 582 499 569 490 559 C 480 549 468 544 454 544 C 435 544 422 548 415 558 C 407 567 403 580 402 596 L 398 639 C 395 640 388 643 376 647 C 364 651 350 654 334 654 C 309 654 285 648 262 637 C 238 625 217 607 199 583 C 181 558 166 525 154 485 C 142 445 135 396 135 339 C 159 362 188 382 222 398 C 255 414 291 422 331 422 Z M 292 31 C 318 31 340 36 359 47 C 378 57 394 71 406 88 C 418 105 427 125 433 148 C 439 170 442 194 442 218 C 442 237 439 256 434 274 C 428 292 420 308 408 322 C 396 336 382 347 364 355 C 346 363 324 368 299 368 C 279 368 260 365 242 359 C 224 353 207 345 193 337 C 179 329 167 320 157 311 C 147 302 140 295 136 290 C 136 259 139 228 145 197 C 151 166 160 138 173 114 C 185 89 201 69 221 54 C 241 38 264 31 292 31 Z" unicode="6" />
<glyph horiz-adv-x="473" d="M 479 684 L 479 638 C 445 588 414 540 384 496 C 354 452 329 408 307 364 C 285 320 268 275 256 228 C 243 181 237 130 237 75 C 237 44 232 22 224 8 C 216 -5 201 -12 181 -12 C 163 -12 149 -7 139 3 C 129 13 124 30 124 54 C 124 80 133 116 151 162 C 169 208 192 257 220 309 C 248 361 278 413 312 466 C 345 519 376 566 406 606 L 100 606 C 86 606 77 602 73 596 C 68 589 64 579 62 565 C 60 558 57 554 53 553 C 48 551 43 551 39 551 L 14 551 L 27 690 C 39 688 58 687 84 686 C 109 684 135 684 162 684 L 479 684 Z" unicode="7" />
<glyph horiz-adv-x="527" d="M 331 380 C 382 359 424 333 456 303 C 488 272 505 233 505 185 C 505 155 498 128 484 104 C 470 80 452 59 429 42 C 406 25 379 12 348 3 C 317 -6 285 -11 252 -11 C 182 -11 126 6 85 40 C 43 74 23 116 23 166 C 23 190 28 212 38 232 C 48 252 60 269 75 285 C 90 300 107 313 126 324 C 145 335 164 344 182 351 C 146 369 115 391 91 419 C 66 446 54 478 54 516 C 54 542 59 567 71 589 C 83 611 98 629 118 645 C 137 661 160 673 186 682 C 212 690 239 695 267 695 C 328 695 377 681 415 653 C 452 625 471 588 471 543 C 471 523 466 505 458 488 C 449 470 438 454 424 440 C 410 426 395 413 379 403 C 362 393 346 385 331 380 Z M 290 399 C 316 411 341 429 364 452 C 387 474 399 505 399 544 C 399 574 386 600 361 622 C 336 644 303 655 263 655 C 224 655 192 644 167 624 C 142 603 130 577 130 545 C 130 524 134 506 144 492 C 153 477 165 464 180 453 C 194 442 211 432 231 424 C 250 415 270 407 290 399 Z M 260 30 C 280 30 300 33 320 39 C 340 45 357 53 373 65 C 388 76 400 90 410 107 C 419 124 424 143 424 165 C 424 192 416 215 401 234 C 385 252 366 268 344 281 C 327 289 309 297 291 305 C 273 313 253 321 232 330 C 220 325 207 319 192 311 C 177 303 163 293 150 281 C 136 269 125 253 116 235 C 106 217 102 195 102 169 C 102 127 116 94 145 68 C 174 42 212 30 260 30 Z" unicode="8" />
<glyph horiz-adv-x="568" d="M 279 695 C 319 695 355 686 386 669 C 416 651 442 628 463 599 C 483 570 499 536 509 497 C 519 458 525 417 525 374 C 525 328 518 282 506 236 C 494 190 475 148 450 112 C 424 76 392 46 353 24 C 314 1 269 -10 217 -10 C 164 -10 124 0 96 19 C 68 38 54 61 54 87 C 54 103 59 116 69 126 C 79 135 91 140 107 140 C 123 140 135 135 143 126 C 151 116 155 104 156 90 L 160 43 C 164 40 172 37 184 35 C 196 32 212 31 232 31 C 254 31 277 36 301 48 C 324 59 345 77 364 102 C 383 126 399 159 412 199 C 424 239 431 289 433 347 C 407 323 378 302 345 286 C 311 270 275 262 237 262 C 206 262 178 267 153 277 C 127 287 105 301 87 319 C 69 337 55 358 45 382 C 35 406 30 431 30 459 C 30 490 36 520 48 549 C 60 577 76 602 98 624 C 120 646 146 663 177 676 C 207 688 241 695 279 695 Z M 270 317 C 289 317 307 320 325 326 C 343 332 359 339 373 347 C 387 355 400 364 410 373 C 420 381 427 388 431 394 C 431 425 427 456 421 488 C 415 519 405 547 393 572 C 380 596 363 616 343 632 C 323 647 299 655 272 655 C 246 655 224 649 206 639 C 187 629 172 615 160 598 C 148 581 140 561 135 538 C 129 515 127 491 127 467 C 127 447 129 428 135 410 C 140 392 148 376 160 362 C 171 348 186 337 204 329 C 222 321 244 317 270 317 Z" unicode="9" />
<glyph horiz-adv-x="256" d="M 129 457 C 146 457 160 451 172 440 C 183 428 189 415 189 400 C 189 384 183 370 172 359 C 160 347 146 342 129 342 C 112 342 98 347 87 359 C 75 370 70 384 70 400 C 70 415 75 428 87 440 C 98 451 112 457 129 457 Z M 129 109 C 146 109 160 103 172 92 C 183 80 189 67 189 52 C 189 36 183 23 172 11 C 160 0 146 -6 129 -6 C 112 -6 98 0 87 11 C 75 23 70 36 70 52 C 70 67 75 80 87 92 C 98 103 112 109 129 109 Z" unicode=":" />
<glyph horiz-adv-x="256" d="M 129 457 C 146 457 160 451 172 440 C 183 428 189 415 189 400 C 189 384 183 370 172 359 C 160 347 146 342 129 342 C 112 342 98 347 87 359 C 75 370 70 384 70 400 C 70 415 75 428 87 440 C 98 451 112 457 129 457 Z M 129 112 C 152 112 168 105 177 91 C 186 77 191 59 191 37 C 191 22 188 6 183 -10 C 178 -27 170 -44 160 -61 C 150 -78 137 -95 121 -111 C 105 -127 86 -141 64 -153 L 39 -131 C 59 -117 79 -99 100 -79 C 120 -59 135 -32 143 1 C 113 1 93 7 84 19 C 74 30 70 42 70 55 C 70 73 76 87 88 97 C 100 107 114 112 129 112 Z" unicode=";" />
<glyph horiz-adv-x="766" d="M 649 87 L 649 28 L 117 273 L 117 313 L 649 558 L 649 499 L 203 293 L 649 87 Z" unicode="&#x3C;" />
<glyph horiz-adv-x="766" d="M 644 388 L 644 338 L 123 338 L 123 388 L 644 388 Z M 644 212 L 644 162 L 123 162 L 123 212 L 644 212 Z" unicode="=" />
<glyph horiz-adv-x="766" d="M 649 313 L 649 273 L 117 28 L 117 87 L 563 293 L 117 499 L 117 558 L 649 313 Z" unicode="&#x3E;" />
<glyph horiz-adv-x="440" d="M 222 741 C 278 741 322 727 356 700 C 390 672 407 637 407 593 C 407 560 398 533 382 511 C 365 489 343 463 317 435 C 296 413 279 392 267 372 C 255 352 245 333 239 315 C 232 296 227 277 225 259 C 223 240 221 220 221 200 C 221 197 219 193 216 189 C 213 185 208 183 201 183 C 191 183 185 185 182 189 C 179 193 178 197 178 200 C 177 230 181 264 190 303 C 198 342 214 381 236 421 C 247 441 257 458 267 473 C 276 488 284 502 291 515 C 297 527 302 540 306 552 C 310 564 312 578 312 593 C 312 616 308 635 302 651 C 296 666 287 678 277 687 C 267 695 255 701 242 705 C 229 708 216 710 204 710 C 189 710 173 706 156 699 C 139 692 127 681 119 665 C 131 654 139 644 142 636 C 144 628 146 621 146 617 C 146 599 141 586 133 578 C 124 569 112 565 98 565 C 80 565 66 570 56 581 C 46 591 41 605 41 621 C 41 635 44 649 52 663 C 60 677 71 690 87 702 C 102 713 121 722 144 730 C 166 737 192 741 222 741 Z M 200 111 C 218 111 232 105 243 93 C 254 81 260 68 260 53 C 260 37 254 23 243 11 C 232 0 218 -6 200 -6 C 183 -6 169 0 158 11 C 147 23 142 37 142 53 C 142 68 147 81 158 93 C 169 105 183 111 200 111 Z" unicode="?" />
<glyph horiz-adv-x="972" d="M 541 634 C 595 634 645 626 689 610 C 733 594 771 571 802 543 C 833 515 857 481 874 441 C 891 401 900 357 900 309 C 900 271 893 233 880 195 C 867 157 849 124 826 94 C 802 64 774 40 741 22 C 707 4 671 -5 631 -5 C 601 -5 582 2 573 17 C 563 32 558 47 558 62 C 530 42 507 27 487 17 C 467 7 441 2 411 2 C 371 2 341 13 321 36 C 301 59 291 90 291 130 C 291 171 302 212 324 254 C 346 296 375 333 411 365 C 435 386 462 402 490 414 C 518 426 545 432 573 432 C 592 432 609 429 624 423 C 638 417 651 408 662 395 L 699 426 L 721 426 L 644 127 C 642 118 639 108 637 98 C 634 88 633 78 633 70 C 633 57 635 47 641 41 C 646 35 653 32 662 32 C 688 32 713 40 737 56 C 760 72 780 94 797 121 C 814 147 828 178 838 213 C 848 247 853 283 853 320 C 853 356 846 391 832 424 C 818 457 799 486 773 511 C 747 535 716 555 678 569 C 640 583 598 591 551 591 C 495 591 442 580 394 559 C 345 538 303 509 268 473 C 232 437 204 394 184 344 C 164 294 154 240 154 183 C 154 132 162 86 180 44 C 198 2 222 -33 254 -63 C 286 -93 324 -116 369 -132 C 413 -148 462 -157 516 -157 C 566 -157 616 -149 664 -133 C 712 -117 760 -92 808 -58 L 825 -90 C 777 -126 727 -153 675 -171 C 623 -189 571 -198 517 -198 C 448 -198 386 -188 332 -168 C 278 -148 232 -121 195 -86 C 157 -51 129 -10 109 38 C 89 86 79 138 79 194 C 79 254 91 311 115 365 C 139 419 172 465 214 505 C 256 545 305 576 361 599 C 417 622 477 634 541 634 Z M 611 307 C 613 317 615 327 616 337 C 616 347 617 354 617 360 C 617 371 613 380 605 387 C 597 393 584 397 568 397 C 548 397 529 392 511 384 C 493 376 476 363 460 345 C 436 317 416 285 401 247 C 385 209 378 173 378 141 C 378 110 385 87 399 72 C 413 56 434 49 462 49 C 477 49 493 53 511 63 C 529 73 544 85 558 100 L 611 307 Z" unicode="@" />
<glyph horiz-adv-x="700" d="M 708 22 L 708 0 L 488 0 L 488 16 C 488 20 491 24 498 27 C 504 30 511 33 517 36 C 524 38 531 41 538 45 C 544 49 548 53 548 58 C 548 62 546 69 543 77 C 539 85 536 93 534 99 L 487 212 L 177 212 L 130 99 C 127 93 124 87 122 79 C 119 71 118 65 118 61 C 118 55 121 50 127 45 C 133 40 141 36 152 33 C 162 29 169 26 174 23 C 179 20 182 16 182 11 L 182 0 L -9 0 L -9 15 C -9 20 -6 24 -2 27 C 1 30 6 33 11 36 C 23 44 34 52 42 61 C 50 69 59 82 67 100 L 307 635 L 286 680 C 284 682 283 684 283 686 C 282 687 282 689 282 692 C 282 694 282 695 284 696 C 285 697 287 698 289 699 C 299 703 310 709 320 716 C 330 723 339 730 349 738 C 349 738 350 739 351 740 C 351 740 353 741 355 741 C 357 741 359 740 361 738 C 363 736 364 735 365 733 L 638 78 C 641 70 646 62 652 55 C 658 47 667 42 678 38 C 691 33 699 30 703 29 C 706 28 708 26 708 22 Z M 195 254 L 470 254 L 336 581 L 195 254 Z" unicode="A" />
<glyph horiz-adv-x="640" d="M 385 382 C 416 379 445 373 472 365 C 499 356 523 344 543 329 C 563 314 578 296 590 274 C 602 252 608 226 608 197 C 608 170 601 145 589 121 C 576 97 558 77 534 59 C 510 41 481 26 446 16 C 410 5 370 0 326 0 L 34 0 L 34 22 C 34 26 36 29 40 30 C 44 31 52 34 64 39 C 78 44 87 48 91 51 C 95 53 97 60 97 71 L 97 660 C 97 668 95 674 91 678 C 87 682 79 687 65 691 C 52 695 44 697 40 699 C 36 700 35 703 35 708 L 35 730 L 296 730 C 388 730 455 713 499 680 C 543 647 565 606 565 557 C 565 517 549 481 518 447 C 487 413 443 391 385 382 Z M 289 399 C 351 399 396 412 423 439 C 450 465 464 501 464 545 C 464 590 450 626 423 652 C 396 678 347 691 276 691 L 188 691 L 188 399 L 289 399 Z M 297 39 C 369 39 421 52 455 80 C 489 108 506 148 506 200 C 506 254 488 293 453 317 C 417 341 358 354 275 354 L 188 354 L 188 39 L 297 39 Z" unicode="B" />
<glyph horiz-adv-x="642" d="M 612 169 L 642 143 C 634 127 622 111 606 93 C 590 75 570 58 547 43 C 523 27 496 14 466 4 C 436 -5 403 -11 367 -11 C 310 -11 260 0 218 21 C 176 42 141 70 114 105 C 86 140 66 180 52 225 C 38 269 32 315 32 362 C 32 424 41 479 61 527 C 81 574 106 613 137 645 C 168 677 203 701 242 717 C 281 733 320 741 358 741 C 389 741 418 737 445 730 C 471 722 500 710 531 694 C 535 691 540 689 544 687 C 548 685 551 684 555 684 C 557 684 560 684 563 686 C 565 688 568 690 571 693 C 573 695 575 698 577 700 C 578 702 580 703 582 703 L 603 703 L 603 526 L 574 526 C 570 526 566 527 563 529 C 560 531 558 534 557 539 C 543 585 521 623 489 655 C 457 686 417 702 370 702 C 344 702 318 695 290 683 C 262 671 237 651 214 625 C 191 598 172 563 157 521 C 141 478 134 426 134 366 C 134 312 140 264 152 222 C 164 180 181 146 203 118 C 224 90 249 69 278 55 C 307 41 338 34 371 34 C 405 34 436 39 464 50 C 491 60 515 73 535 88 C 555 102 571 117 584 133 C 596 148 606 160 612 169 Z" unicode="C" />
<glyph horiz-adv-x="719" d="M 272 730 C 338 730 396 721 448 703 C 500 685 543 661 578 629 C 613 597 640 558 659 513 C 677 468 687 419 687 365 C 687 310 677 260 658 215 C 639 170 612 132 578 100 C 544 68 502 44 454 26 C 405 8 351 0 293 0 L 34 0 L 34 22 C 34 26 36 29 40 30 C 44 31 53 34 65 39 C 79 44 88 48 92 51 C 95 53 97 60 97 71 L 97 660 C 97 668 95 674 91 678 C 87 682 79 687 65 691 C 52 695 44 697 40 699 C 36 700 35 703 35 708 L 35 730 L 272 730 Z M 275 39 C 372 39 448 64 503 116 C 557 168 585 251 585 365 C 585 475 556 557 499 611 C 441 664 361 691 259 691 L 188 691 L 188 39 L 275 39 Z" unicode="D" />
<glyph horiz-adv-x="602" d="M 580 156 L 580 0 L 34 0 L 34 22 C 34 26 36 29 40 30 C 44 31 53 34 65 39 C 79 44 88 48 92 51 C 95 53 97 60 97 71 L 97 660 C 97 668 95 674 91 678 C 87 682 79 687 65 691 C 52 695 44 697 40 699 C 36 700 35 703 35 708 L 35 730 L 436 730 C 450 730 468 731 488 734 C 508 736 522 738 532 739 L 532 599 L 510 599 C 502 599 496 600 492 603 C 488 606 486 610 484 615 C 478 630 472 643 468 653 C 464 663 458 670 452 676 C 446 681 437 685 427 687 C 417 689 403 690 386 690 L 188 690 L 188 395 L 309 395 C 328 395 340 399 346 408 C 352 417 358 429 365 444 C 367 449 370 454 374 458 C 377 462 383 464 392 464 L 411 464 L 411 289 L 389 289 C 382 289 377 291 373 295 C 369 299 365 304 363 310 C 355 326 348 338 342 344 C 336 350 325 354 311 354 L 188 354 L 188 40 L 436 40 C 464 40 485 47 498 63 C 510 79 523 103 536 136 C 538 140 540 145 542 149 C 544 153 548 156 555 156 L 580 156 Z" unicode="E" />
<glyph horiz-adv-x="573" d="M 561 739 L 561 596 L 538 596 C 529 596 523 597 521 600 C 519 603 517 607 516 612 C 508 640 499 660 487 672 C 475 684 452 690 417 690 L 188 690 L 188 392 L 336 392 C 354 392 366 395 372 403 C 378 410 384 423 392 441 C 394 447 397 452 401 456 C 405 459 410 461 417 461 L 435 461 L 435 286 L 411 286 C 404 286 399 288 396 293 C 392 297 390 302 388 307 C 381 325 374 336 368 342 C 361 348 351 351 338 351 L 188 351 L 188 73 C 188 60 190 52 195 50 C 200 47 209 43 222 39 C 232 35 239 32 243 31 C 247 29 249 26 249 22 L 249 0 L 35 0 L 35 22 C 35 26 37 29 41 30 C 45 31 53 34 65 39 C 79 44 88 48 92 51 C 95 53 97 60 97 71 L 97 660 C 97 668 95 674 91 678 C 87 682 79 687 65 691 C 52 695 44 697 40 699 C 36 700 35 703 35 708 L 35 730 L 468 730 C 487 730 505 731 522 734 C 538 736 551 738 561 739 Z" unicode="F" />
<glyph horiz-adv-x="722" d="M 709 72 L 709 55 C 690 49 669 42 645 34 C 621 26 595 19 569 13 C 543 6 515 0 487 -4 C 459 -8 431 -11 405 -11 C 341 -11 285 0 238 21 C 190 42 151 70 121 105 C 91 140 68 180 54 225 C 39 269 32 315 32 362 C 32 422 42 476 62 524 C 82 572 108 611 140 643 C 172 675 209 699 250 716 C 290 732 331 741 373 741 C 402 741 431 737 459 730 C 487 723 516 711 546 695 C 551 691 556 689 560 687 C 564 685 568 685 572 685 C 574 685 577 685 580 687 C 582 688 584 690 586 692 C 588 694 589 697 591 699 C 593 701 595 703 597 703 L 619 703 L 619 526 L 591 526 C 587 526 583 526 580 528 C 576 529 574 533 573 539 C 566 561 557 582 545 602 C 533 622 520 639 504 654 C 488 668 469 680 448 689 C 427 697 404 702 380 702 C 350 702 321 695 291 682 C 261 669 235 649 212 622 C 189 595 170 560 156 518 C 141 475 134 424 134 365 C 134 313 141 266 155 224 C 169 182 188 146 212 117 C 236 87 265 65 299 49 C 333 33 369 25 409 25 C 469 25 510 34 532 52 C 554 70 566 91 566 117 L 566 237 C 566 247 564 254 562 260 C 560 266 552 271 539 276 C 529 279 522 282 517 284 C 512 286 510 290 510 294 L 510 315 L 662 315 C 660 304 659 292 657 278 C 655 264 654 253 654 244 L 654 114 C 654 106 655 100 658 96 C 660 92 668 88 681 86 C 694 83 702 81 705 80 C 707 79 709 76 709 72 Z" unicode="G" />
<glyph horiz-adv-x="769" d="M 733 22 L 733 0 L 519 0 L 519 22 C 519 26 521 29 525 30 C 529 31 537 34 549 39 C 563 44 572 48 576 51 C 579 53 581 60 581 71 L 581 354 L 188 354 L 188 73 C 188 60 190 52 195 50 C 200 47 209 43 222 39 C 232 35 239 32 243 31 C 247 29 249 26 249 22 L 249 0 L 35 0 L 35 22 C 35 26 37 29 41 30 C 45 31 53 34 65 39 C 79 44 88 48 92 51 C 95 53 97 60 97 71 L 97 660 C 97 668 95 674 91 678 C 87 682 79 687 65 691 C 52 695 44 697 40 699 C 36 700 35 703 35 708 L 35 730 L 249 730 L 249 708 C 249 703 247 700 243 698 C 239 696 232 694 222 691 C 208 686 198 682 194 680 C 190 677 188 670 188 660 L 188 398 L 581 398 L 581 660 C 581 668 579 675 575 679 C 571 683 563 687 549 691 C 536 695 528 697 524 699 C 520 700 519 703 519 708 L 519 730 L 733 730 L 733 708 C 733 703 731 700 727 698 C 723 696 716 694 706 691 C 692 686 682 682 678 680 C 674 677 672 670 672 660 L 672 73 C 672 61 674 54 679 51 C 684 47 693 43 706 39 C 716 35 723 32 727 31 C 731 29 733 26 733 22 Z" unicode="H" />
<glyph horiz-adv-x="295" d="M 254 22 L 254 0 L 40 0 L 40 22 C 40 26 42 29 46 30 C 50 31 58 34 70 39 C 84 44 93 48 97 51 C 100 53 102 60 102 71 L 102 660 C 102 668 100 674 96 678 C 92 682 84 687 70 691 C 57 695 49 697 45 699 C 41 700 40 703 40 708 L 40 730 L 254 730 L 254 708 C 254 703 252 700 248 698 C 244 696 237 694 227 691 C 213 686 203 682 199 680 C 195 677 193 670 193 660 L 193 73 C 193 60 195 52 200 50 C 205 47 214 43 227 39 C 237 35 244 32 248 31 C 252 29 254 26 254 22 Z" unicode="I" />
<glyph horiz-adv-x="457" d="M 431 730 L 431 708 C 431 703 429 700 425 698 C 421 696 414 694 404 691 C 390 686 380 682 376 680 C 372 677 370 670 370 660 L 370 199 C 370 169 365 142 356 116 C 347 90 334 68 316 50 C 298 31 276 16 250 5 C 224 -5 194 -11 161 -11 C 115 -11 77 0 47 21 C 17 43 3 67 3 95 C 3 113 8 128 19 141 C 30 154 44 161 62 161 C 77 161 89 156 99 147 C 108 138 113 127 113 115 C 113 103 110 92 106 84 C 101 75 93 67 83 61 C 85 50 95 40 112 32 C 128 24 145 20 162 20 C 176 20 190 22 204 27 C 218 31 230 39 241 50 C 252 61 261 75 268 93 C 275 110 279 131 279 156 L 279 660 C 279 668 276 674 272 678 C 268 682 259 687 245 691 C 232 695 224 697 220 699 C 216 700 214 703 214 708 L 214 730 L 431 730 Z" unicode="J" />
<glyph horiz-adv-x="662" d="M 690 23 L 690 0 L 454 0 L 454 21 C 454 24 456 27 462 29 C 467 31 474 34 483 37 C 485 37 489 38 494 40 C 498 42 501 44 501 47 C 501 51 498 56 493 63 C 488 69 483 75 479 80 L 188 384 L 188 73 C 188 60 190 52 195 50 C 200 47 209 43 222 39 C 232 35 239 32 243 31 C 247 29 249 26 249 22 L 249 0 L 35 0 L 35 22 C 35 26 37 29 41 30 C 45 31 53 34 65 39 C 79 44 88 48 92 51 C 95 53 97 60 97 71 L 97 660 C 97 668 95 674 91 678 C 87 682 79 687 65 691 C 52 695 44 697 40 699 C 36 700 35 703 35 708 L 35 730 L 249 730 L 249 708 C 249 703 247 700 243 698 C 239 696 232 694 222 691 C 208 686 198 682 194 680 C 190 677 188 670 188 660 L 188 390 L 451 638 C 457 643 462 649 468 656 C 473 663 476 668 476 671 C 476 675 473 679 468 681 C 463 683 456 686 448 689 C 433 693 424 697 421 701 C 418 704 417 710 417 718 L 417 730 L 638 730 L 638 709 C 638 703 636 700 632 698 C 628 696 617 692 601 688 C 581 682 565 675 555 668 C 545 660 533 651 520 639 L 274 416 L 595 79 C 605 68 614 60 623 54 C 632 48 644 42 659 38 C 671 34 679 31 683 30 C 687 29 690 27 690 23 Z" unicode="K" />
<glyph horiz-adv-x="581" d="M 575 159 L 575 0 L 34 0 L 34 22 C 34 26 36 29 40 30 C 44 31 52 34 64 39 C 78 44 87 48 91 51 C 95 53 97 60 97 71 L 97 660 C 97 668 95 674 91 678 C 87 682 79 687 65 691 C 52 695 44 697 40 699 C 36 700 35 703 35 708 L 35 730 L 249 730 L 249 708 C 249 703 247 700 243 698 C 239 696 232 694 222 691 C 208 686 198 682 194 680 C 190 677 188 670 188 660 L 188 40 L 432 40 C 460 40 481 48 493 64 C 505 80 518 105 531 139 C 533 147 536 152 539 155 C 541 157 545 159 551 159 L 575 159 Z" unicode="L" />
<glyph horiz-adv-x="895" d="M 859 22 L 859 0 L 646 0 L 646 22 C 646 26 648 29 652 30 C 656 31 664 34 676 39 C 690 44 699 48 703 51 C 706 53 708 60 708 71 L 708 667 L 457 12 C 456 9 454 6 450 3 C 446 0 440 -1 432 -1 C 423 -1 416 0 412 2 C 408 4 405 8 404 12 L 151 689 L 151 107 C 151 96 153 85 158 74 C 163 63 171 53 182 45 C 188 39 195 34 203 32 C 210 29 214 26 214 23 L 214 0 L 34 0 L 34 23 C 34 27 36 30 40 32 C 44 33 52 38 64 48 C 74 56 82 65 88 75 C 94 85 97 95 97 105 L 97 660 C 97 668 95 674 91 678 C 87 682 79 687 65 691 C 52 695 44 697 40 699 C 36 700 35 703 35 708 L 35 730 L 227 730 L 453 129 L 679 730 L 859 730 L 859 708 C 859 703 857 700 853 698 C 849 696 842 694 832 691 C 818 686 808 682 804 680 C 800 677 798 670 798 660 L 798 73 C 798 60 800 52 805 50 C 810 47 819 43 832 39 C 842 35 849 32 853 31 C 857 29 859 26 859 22 Z" unicode="M" />
<glyph horiz-adv-x="738" d="M 709 730 L 709 705 C 709 702 706 699 702 697 C 697 695 689 690 679 682 C 667 673 658 664 653 654 C 647 644 645 635 645 625 L 645 -4 L 610 -4 L 151 651 L 151 107 C 151 98 153 88 157 76 C 161 64 168 54 179 46 C 187 39 195 35 201 33 C 207 31 211 28 211 24 L 211 0 L 34 0 L 34 24 C 34 28 36 30 40 32 C 44 34 52 39 64 49 C 74 57 82 66 88 76 C 94 85 97 95 97 106 L 97 660 C 97 668 95 674 91 678 C 87 682 79 687 65 691 C 52 695 44 697 40 699 C 36 700 35 703 35 708 L 35 730 L 201 730 L 591 172 L 591 624 C 591 634 588 645 583 655 C 578 665 570 674 560 682 C 549 690 541 695 536 697 C 530 699 528 701 528 704 L 528 730 L 709 730 Z" unicode="N" />
<glyph horiz-adv-x="748" d="M 375 741 C 425 741 472 731 514 713 C 556 694 591 668 621 635 C 651 601 674 561 691 515 C 707 469 716 419 716 365 C 716 310 707 260 691 214 C 674 168 651 128 621 95 C 591 61 556 35 514 17 C 472 -1 425 -11 375 -11 C 324 -11 277 -1 235 16 C 193 34 157 60 127 93 C 97 126 73 166 57 212 C 40 258 32 309 32 365 C 32 419 40 469 57 515 C 73 561 97 601 127 635 C 157 668 193 694 235 713 C 277 731 324 741 375 741 Z M 375 28 C 445 28 503 56 547 113 C 591 170 614 254 614 365 C 614 473 591 557 547 615 C 503 673 445 702 375 702 C 303 702 245 673 201 615 C 156 557 134 473 134 365 C 134 256 156 173 201 115 C 245 57 303 28 375 28 Z" unicode="O" />
<glyph horiz-adv-x="583" d="M 293 730 C 342 730 384 725 420 715 C 455 705 484 691 506 674 C 528 657 545 637 556 614 C 566 591 572 567 572 542 C 572 515 566 489 555 463 C 544 437 527 415 503 395 C 479 375 447 359 408 347 C 369 335 322 329 266 329 L 188 329 L 188 73 C 188 60 190 52 195 50 C 200 47 209 43 222 39 C 232 35 239 32 243 31 C 247 29 249 26 249 22 L 249 0 L 35 0 L 35 22 C 35 26 37 29 41 30 C 45 31 53 34 65 39 C 79 44 88 48 92 51 C 95 53 97 60 97 71 L 97 660 C 97 668 95 674 91 678 C 87 682 79 687 65 691 C 52 695 44 697 40 699 C 36 700 35 703 35 708 L 35 730 L 293 730 Z M 279 373 C 345 373 393 388 424 418 C 454 448 470 490 470 542 C 470 586 453 621 421 649 C 389 676 340 690 275 690 L 188 690 L 188 373 L 279 373 Z" unicode="P" />
<glyph horiz-adv-x="750" d="M 778 -80 L 778 -113 C 766 -123 748 -136 723 -152 C 698 -167 666 -175 627 -175 C 587 -175 552 -166 523 -148 C 493 -130 464 -110 435 -89 C 401 -63 375 -45 359 -34 C 342 -22 324 -12 306 -3 C 264 4 227 18 193 39 C 159 60 130 87 106 119 C 82 151 64 187 51 229 C 38 271 32 316 32 365 C 32 419 40 469 57 515 C 73 561 97 601 127 635 C 157 668 193 694 235 713 C 277 731 324 741 374 741 C 424 741 471 731 513 713 C 555 694 591 668 621 635 C 651 601 674 561 691 515 C 707 469 716 419 716 365 C 716 314 708 267 694 223 C 679 179 658 140 631 108 C 604 76 572 50 534 30 C 496 10 455 -2 409 -7 C 425 -11 447 -19 474 -29 C 500 -39 530 -52 562 -68 C 588 -80 611 -89 632 -93 C 652 -97 677 -100 706 -100 C 721 -100 734 -97 746 -92 C 758 -86 768 -82 778 -80 Z M 374 29 C 445 29 503 57 547 114 C 591 170 614 254 614 365 C 614 473 591 557 547 615 C 503 673 445 702 374 702 C 303 702 245 673 201 615 C 156 557 134 473 134 365 C 134 256 156 173 201 115 C 245 57 303 29 374 29 Z" unicode="Q" />
<glyph horiz-adv-x="664" d="M 691 21 L 691 0 L 545 0 C 525 28 507 56 489 83 C 471 110 451 142 427 178 C 413 198 399 218 386 238 C 372 257 358 274 342 289 C 326 303 309 315 290 324 C 271 332 249 337 225 337 L 188 337 L 188 73 C 188 60 190 52 195 50 C 200 47 209 43 222 39 C 232 35 239 32 243 31 C 247 29 249 26 249 22 L 249 0 L 35 0 L 35 22 C 35 26 37 29 41 30 C 45 31 53 34 65 39 C 79 44 88 48 92 51 C 95 53 97 60 97 71 L 97 660 C 97 668 95 674 91 678 C 87 682 79 687 65 691 C 52 695 44 697 40 699 C 36 700 35 703 35 708 L 35 730 L 305 730 C 398 730 467 712 513 676 C 559 640 582 596 582 544 C 582 502 563 462 527 426 C 490 390 438 366 370 354 C 382 349 393 342 405 334 C 417 326 430 313 444 297 C 458 281 475 259 494 233 C 513 206 536 172 563 132 C 577 110 591 90 607 71 C 623 52 638 41 653 39 C 669 35 680 33 684 31 C 688 29 691 25 691 21 Z M 284 382 C 350 382 399 395 431 423 C 463 450 480 490 480 544 C 480 594 462 630 426 654 C 390 678 345 690 293 690 L 188 690 L 188 382 L 284 382 Z" unicode="R" />
<glyph horiz-adv-x="571" d="M 351 418 C 420 391 469 361 498 328 C 527 294 542 256 542 213 C 542 187 536 161 526 135 C 516 108 500 84 479 62 C 458 40 432 23 400 9 C 368 -4 330 -11 287 -11 C 253 -11 220 -7 190 0 C 159 6 133 14 113 23 C 110 23 107 24 104 26 C 100 28 97 29 95 29 C 91 29 87 28 85 26 C 82 24 78 21 74 15 C 70 11 67 7 64 4 C 61 0 57 -1 52 -1 L 32 -1 L 32 195 L 59 195 C 63 195 66 194 69 193 C 72 191 75 186 79 178 C 100 123 130 84 168 62 C 206 40 246 29 287 29 C 309 29 331 32 352 38 C 372 44 390 53 406 65 C 421 77 433 92 443 111 C 452 130 457 153 457 179 C 457 223 443 254 417 274 C 390 294 360 310 327 323 C 303 331 283 339 267 345 C 251 351 232 359 210 368 C 159 388 121 414 96 445 C 70 476 58 510 58 547 C 58 571 62 595 72 619 C 81 642 95 663 113 681 C 131 699 154 713 182 724 C 210 735 241 741 277 741 C 293 741 313 738 338 733 C 362 727 387 717 413 702 C 416 700 420 697 425 695 C 429 692 433 691 437 691 C 439 691 442 692 444 694 C 446 695 450 698 454 702 C 456 704 457 705 459 707 C 460 709 462 710 464 710 L 484 710 L 484 540 L 453 540 C 448 540 445 541 443 544 C 441 546 439 549 439 553 C 424 602 401 639 370 664 C 339 688 305 701 269 701 C 253 701 238 698 222 693 C 206 687 192 680 180 670 C 167 660 157 649 149 635 C 141 621 137 606 137 590 C 137 556 145 529 163 510 C 180 491 204 475 236 462 C 254 454 274 446 296 438 C 318 430 336 423 351 418 Z" unicode="S" />
<glyph horiz-adv-x="625" d="M 621 739 L 621 593 L 605 593 C 596 593 589 595 584 599 C 579 603 575 608 573 615 C 564 641 554 661 543 673 C 531 685 516 691 498 691 L 358 691 L 358 73 C 358 60 360 52 366 50 C 371 47 380 43 393 39 C 403 35 410 32 414 31 C 418 29 420 26 420 22 L 420 0 L 204 0 L 204 22 C 204 26 206 29 210 30 C 214 31 222 34 234 39 C 248 44 257 48 261 51 C 265 53 267 60 267 71 L 267 691 L 129 691 C 108 691 92 684 82 671 C 71 658 62 639 55 615 C 53 608 49 603 43 599 C 37 595 30 593 23 593 L 4 593 L 4 739 C 8 738 14 737 23 736 C 32 735 42 734 52 733 C 62 732 73 731 84 731 C 95 730 105 730 113 730 L 513 730 C 519 730 528 730 538 731 C 548 731 559 732 570 733 C 580 734 590 735 600 736 C 609 737 616 738 621 739 Z" unicode="T" />
<glyph horiz-adv-x="729" d="M 707 730 L 707 705 C 707 702 704 699 698 696 C 692 693 685 688 676 682 C 664 674 656 665 651 657 C 645 649 643 640 643 630 L 643 259 C 643 225 637 192 627 160 C 616 127 600 98 578 73 C 556 48 528 28 495 12 C 461 -3 422 -11 378 -11 C 328 -11 285 -4 249 8 C 213 21 183 39 160 62 C 136 84 119 111 107 143 C 95 174 90 208 90 244 L 90 660 C 90 668 88 674 84 678 C 80 682 72 687 58 691 C 45 695 37 697 33 699 C 29 700 28 703 28 708 L 28 730 L 242 730 L 242 708 C 242 703 240 700 236 698 C 232 696 225 694 215 691 C 201 686 191 682 187 680 C 183 677 181 670 181 660 L 181 253 C 181 189 198 139 233 103 C 267 66 317 48 381 48 C 452 48 504 67 538 105 C 572 143 589 197 589 266 L 589 629 C 589 639 586 649 581 658 C 576 666 568 675 556 683 C 546 689 538 694 533 697 C 527 699 525 702 525 705 L 525 730 L 707 730 Z" unicode="U" />
<glyph horiz-adv-x="709" d="M 716 730 L 716 713 C 716 707 714 704 711 702 C 708 700 703 696 695 692 C 679 683 667 676 661 671 C 654 665 647 654 641 638 L 376 1 C 374 -1 372 -4 370 -6 C 367 -8 364 -9 360 -9 L 353 -9 C 349 -9 347 -8 345 -6 C 343 -4 341 -1 340 1 L 63 652 C 58 662 52 670 45 676 C 38 682 29 687 17 691 C 5 695 -1 697 -5 699 C -9 700 -11 703 -11 708 L -11 730 L 207 730 L 207 711 C 207 707 204 703 198 700 C 192 697 185 694 179 692 C 172 690 166 687 162 683 C 157 679 155 674 155 670 C 155 666 155 661 157 657 C 159 652 160 648 162 644 L 378 128 L 582 638 C 583 642 585 647 588 654 C 590 661 592 666 592 670 C 592 677 589 682 583 686 C 577 689 568 692 558 696 C 548 699 540 702 536 704 C 532 706 530 710 530 717 L 530 730 L 716 730 Z" unicode="V" />
<glyph horiz-adv-x="1034" d="M 1043 730 L 1043 713 C 1043 708 1041 704 1038 702 C 1035 700 1029 696 1021 692 C 1004 684 993 677 987 672 C 981 667 974 656 968 638 L 727 2 C 726 0 724 -3 722 -5 C 719 -7 716 -8 713 -8 L 704 -8 C 700 -8 697 -7 694 -5 C 690 -3 688 -1 688 2 L 524 483 L 349 2 C 348 -1 346 -3 344 -5 C 342 -7 339 -8 336 -8 L 326 -8 C 322 -8 319 -7 317 -5 C 314 -3 312 -1 311 2 L 65 653 C 61 661 55 669 47 675 C 39 681 29 687 17 691 C 5 695 -1 697 -5 699 C -9 700 -11 703 -11 708 L -11 730 L 211 730 L 211 712 C 211 708 207 704 200 701 C 193 698 187 696 182 694 C 176 692 170 689 165 685 C 160 681 158 676 158 672 C 158 668 158 664 159 658 C 160 652 161 647 163 643 L 349 139 L 499 545 L 455 653 C 452 660 447 667 440 674 C 433 681 423 687 411 691 C 399 694 392 696 388 698 C 384 700 383 703 383 708 L 383 730 L 606 730 L 606 712 C 606 707 604 704 600 702 C 596 700 588 696 577 692 C 569 688 562 685 557 682 C 551 678 549 675 549 671 C 549 669 549 664 551 658 C 552 651 553 645 555 641 L 729 137 L 911 648 C 913 653 914 657 915 661 C 916 665 917 668 917 671 C 917 677 913 682 907 686 C 900 690 892 693 882 696 C 870 699 862 702 858 704 C 854 706 852 711 852 717 L 852 730 L 1043 730 Z" unicode="W" />
<glyph horiz-adv-x="638" d="M 648 21 L 648 0 L 431 0 L 431 13 C 431 19 432 24 434 27 C 436 29 443 33 455 38 C 461 40 466 43 472 46 C 478 49 481 53 481 58 C 481 60 478 66 473 76 C 468 86 464 93 461 98 L 303 328 L 150 104 C 145 96 140 88 134 78 C 128 68 126 62 126 59 C 126 53 131 48 142 44 C 153 40 164 37 175 34 C 179 32 184 30 188 28 C 192 25 195 21 195 16 L 195 0 L -12 0 L -12 17 C -12 21 -11 24 -9 28 C -7 31 -1 34 9 37 C 27 42 41 49 51 57 C 61 65 74 79 88 99 L 277 364 L 80 645 C 72 656 65 664 60 670 C 55 675 44 681 28 687 C 15 691 7 695 5 698 C 3 700 2 704 2 709 L 2 730 L 221 730 L 221 717 C 221 710 219 705 217 703 C 215 700 208 696 198 692 C 191 689 185 686 179 684 C 173 681 171 678 171 674 C 171 670 173 664 177 656 C 181 648 187 639 193 631 L 335 423 L 494 653 C 495 655 497 658 499 662 C 501 666 502 669 502 672 C 502 678 496 683 484 686 C 472 688 460 692 447 696 C 441 697 436 699 432 702 C 428 705 427 710 427 716 L 427 730 L 635 730 L 635 713 C 635 709 633 705 630 702 C 626 698 620 695 612 693 C 595 688 582 682 574 675 C 566 668 553 653 537 630 L 361 389 L 573 85 C 581 72 588 63 593 59 C 598 55 609 49 626 43 C 636 38 643 34 645 31 C 647 27 648 24 648 21 Z" unicode="X" />
<glyph horiz-adv-x="633" d="M 651 730 L 651 713 C 651 707 649 704 646 702 C 642 700 637 697 629 693 C 614 686 603 681 597 677 C 590 673 580 660 567 640 L 365 334 L 365 73 C 365 60 367 52 373 50 C 378 47 387 43 400 39 C 410 35 417 32 421 31 C 425 29 427 26 427 22 L 427 0 L 211 0 L 211 22 C 211 26 213 29 217 30 C 221 31 229 34 241 39 C 255 44 264 48 268 51 C 272 53 274 60 274 71 L 274 330 L 58 651 C 50 661 44 670 38 676 C 32 682 22 687 10 691 C 0 694 -8 696 -12 698 C -16 700 -18 703 -18 708 L -18 730 L 204 730 L 204 717 C 204 711 203 708 201 706 C 199 704 192 701 180 696 C 171 692 164 688 159 686 C 153 684 151 681 151 677 C 151 674 152 670 154 665 C 156 659 159 655 162 651 L 341 379 L 504 632 C 510 642 515 651 519 659 C 522 667 524 672 524 676 C 524 679 521 682 515 685 C 509 688 502 691 494 694 C 482 698 475 701 471 704 C 467 706 465 710 465 715 L 465 730 L 651 730 Z" unicode="Y" />
<glyph horiz-adv-x="611" d="M 586 156 L 586 -9 C 575 -8 559 -6 539 -4 C 519 -1 498 0 477 0 L 18 0 L 18 13 C 18 18 19 23 22 29 C 25 34 29 40 33 46 L 466 690 L 181 690 C 160 690 144 683 134 671 C 123 658 113 639 105 614 C 102 605 98 599 93 596 C 87 593 81 592 75 592 L 58 592 L 58 738 C 66 737 80 735 99 733 C 118 731 132 730 141 730 L 579 730 L 579 725 C 579 715 577 707 573 702 C 569 696 566 691 562 685 L 132 40 L 439 40 C 462 40 481 47 496 61 C 511 75 526 101 541 138 C 543 144 545 148 547 151 C 549 154 553 156 560 156 L 586 156 Z" unicode="Z" />
<glyph horiz-adv-x="328" d="M 294 -157 L 294 -190 L 67 -190 L 67 730 L 294 730 L 294 697 L 138 697 L 138 -157 L 294 -157 Z" unicode="[" />
<glyph horiz-adv-x="454" d="M 98 730 L 476 -190 L 418 -190 L 39 730 L 98 730 Z" unicode="\" />
<glyph horiz-adv-x="328" d="M 261 730 L 261 -190 L 35 -190 L 35 -157 L 190 -157 L 190 697 L 35 697 L 35 730 L 261 730 Z" unicode="]" />
<glyph horiz-adv-x="766" d="M 412 730 L 610 334 L 550 334 L 383 679 L 216 334 L 157 334 L 354 730 L 412 730 Z" unicode="^" />
<glyph horiz-adv-x="518" d="M 525 -62 L 525 -102 L -7 -102 L -7 -62 L 525 -62 Z" unicode="_" />
<glyph horiz-adv-x="418" d="M 193 800 L 324 661 L 298 644 L 135 735 C 120 743 109 752 103 761 C 96 769 93 778 93 787 C 93 798 96 808 104 817 C 111 825 121 830 134 830 C 143 830 152 828 161 824 C 169 820 180 812 193 800 Z" unicode="`" />
<glyph horiz-adv-x="593" d="M 599 20 L 599 0 L 399 0 L 399 15 C 399 18 401 21 407 24 C 412 26 417 29 423 31 C 429 33 436 36 442 39 C 448 42 451 45 451 49 C 451 51 449 56 447 63 C 444 70 441 77 439 83 L 401 173 L 152 173 L 114 83 C 112 79 110 73 107 66 C 104 59 103 54 103 52 C 103 48 106 45 112 41 C 118 37 126 33 135 31 C 143 28 150 25 154 23 C 158 21 160 17 160 13 L 160 0 L -9 0 L -9 14 C -9 18 -6 22 -2 24 C 1 26 5 28 9 31 C 19 37 28 44 36 51 C 44 58 51 69 58 84 L 254 507 L 233 551 C 232 553 231 555 231 556 C 230 557 230 559 230 561 C 230 562 230 563 231 564 C 232 565 234 566 236 567 C 247 571 258 577 268 583 C 278 589 288 596 296 602 C 296 602 297 603 298 604 C 299 604 300 605 302 605 C 304 605 306 604 307 603 C 308 601 309 600 310 598 L 538 66 C 540 59 544 53 550 47 C 555 41 562 36 572 33 C 583 29 590 26 594 25 C 597 24 599 22 599 20 Z M 168 209 L 386 209 L 279 459 L 168 209 Z" unicode="a" />
<glyph horiz-adv-x="556" d="M 333 312 C 359 310 384 305 408 298 C 432 291 452 281 469 269 C 486 257 500 242 510 224 C 520 206 525 185 525 161 C 525 139 519 119 509 99 C 498 79 482 62 462 48 C 441 33 415 21 385 13 C 355 4 320 0 282 0 L 33 0 L 33 20 C 33 24 34 26 38 27 C 41 27 48 30 59 34 C 71 38 79 42 82 44 C 85 46 87 52 87 61 L 87 536 C 87 542 85 547 82 551 C 79 555 72 558 60 562 C 49 565 42 567 39 569 C 35 570 34 572 34 576 L 34 596 L 257 596 C 336 596 394 582 432 555 C 469 528 488 495 488 455 C 488 422 474 392 448 364 C 421 336 383 319 333 312 Z M 254 326 C 303 326 338 336 360 358 C 381 380 392 409 392 445 C 392 481 381 510 359 531 C 337 551 299 562 243 562 L 175 562 L 175 326 L 254 326 Z M 262 34 C 319 34 361 45 388 67 C 414 89 428 121 428 163 C 428 207 413 238 385 258 C 357 278 310 288 244 288 L 175 288 L 175 34 L 262 34 Z" unicode="b" />
<glyph horiz-adv-x="549" d="M 521 142 L 547 119 C 540 106 530 92 516 77 C 502 62 486 48 466 35 C 446 22 424 11 398 3 C 372 -5 345 -10 315 -10 C 267 -10 225 -1 189 16 C 153 34 124 57 101 85 C 77 113 60 146 49 183 C 37 219 32 257 32 295 C 32 345 40 390 57 429 C 73 468 95 501 121 527 C 147 553 176 572 209 586 C 241 599 274 606 307 606 C 333 606 358 603 380 597 C 402 591 427 581 453 567 C 457 565 460 563 463 562 C 465 560 468 560 471 560 C 473 560 475 560 477 561 C 479 562 481 564 484 567 C 486 569 487 570 489 572 C 490 574 492 575 494 575 L 514 575 L 514 428 L 487 428 C 483 428 480 428 477 430 C 474 432 472 435 472 439 C 461 473 443 503 417 531 C 391 558 359 572 321 572 C 300 572 278 567 256 557 C 233 547 212 531 194 509 C 175 487 159 459 147 425 C 135 390 129 348 129 299 C 129 255 134 216 144 182 C 154 148 167 119 185 97 C 202 75 222 58 246 47 C 270 35 295 30 322 30 C 350 30 376 34 399 43 C 421 52 441 63 457 75 C 473 87 487 99 498 112 C 508 124 516 134 521 142 Z" unicode="c" />
<glyph horiz-adv-x="624" d="M 236 596 C 292 596 343 588 387 574 C 431 560 469 540 499 514 C 529 488 553 456 569 419 C 585 382 593 342 593 298 C 593 253 584 212 568 176 C 552 139 529 108 500 82 C 470 56 435 35 393 21 C 351 7 304 0 254 0 L 33 0 L 33 20 C 33 24 34 26 38 27 C 42 27 49 30 60 34 C 72 38 80 42 83 44 C 85 46 87 52 87 61 L 87 536 C 87 542 85 547 82 551 C 79 555 72 558 60 562 C 49 565 42 567 39 569 C 35 570 34 572 34 576 L 34 596 L 236 596 Z M 244 34 C 323 34 385 54 429 96 C 473 137 495 204 495 298 C 495 388 472 454 426 497 C 380 540 315 562 232 562 L 175 562 L 175 34 L 244 34 Z" unicode="d" />
<glyph horiz-adv-x="524" d="M 502 131 L 502 0 L 33 0 L 33 20 C 33 24 34 26 38 27 C 42 28 49 30 60 34 C 72 38 80 41 83 44 C 85 46 87 52 87 61 L 87 536 C 87 542 85 547 82 551 C 79 555 72 558 60 562 C 49 565 42 567 39 569 C 35 570 34 572 34 576 L 34 596 L 378 596 C 390 596 405 597 422 599 C 439 601 452 602 461 603 L 461 485 L 440 485 C 433 485 428 486 425 488 C 421 490 419 494 417 498 C 412 510 408 521 404 529 C 400 537 395 544 389 549 C 383 553 376 556 368 558 C 359 560 347 561 333 561 L 175 561 L 175 323 L 267 323 C 283 323 294 327 299 335 C 304 343 309 353 315 365 C 317 369 319 372 322 376 C 325 380 330 382 338 382 L 356 382 L 356 233 L 336 233 C 330 233 325 234 321 238 C 317 241 315 245 313 250 C 306 264 300 273 295 279 C 289 285 280 288 268 288 L 175 288 L 175 35 L 376 35 C 400 35 418 41 429 55 C 440 68 451 88 462 115 C 463 118 464 121 466 125 C 468 129 472 131 478 131 L 502 131 Z" unicode="e" />
<glyph horiz-adv-x="491" d="M 485 603 L 485 482 L 464 482 C 456 482 450 483 448 486 C 445 488 443 492 442 496 C 438 507 434 517 431 525 C 427 533 423 540 417 546 C 411 551 404 555 396 557 C 387 559 375 561 360 561 L 175 561 L 175 321 L 290 321 C 306 321 316 324 321 331 C 326 337 332 348 338 363 C 340 367 342 371 346 374 C 349 377 354 379 360 379 L 377 379 L 377 230 L 354 230 C 348 230 343 232 341 236 C 339 240 337 244 335 248 C 329 262 323 272 317 277 C 311 282 303 285 292 285 L 175 285 L 175 63 C 175 52 177 45 181 43 C 185 40 193 37 204 34 C 213 30 219 28 222 27 C 225 25 227 23 227 20 L 227 0 L 34 0 L 34 20 C 34 24 35 26 39 27 C 42 27 49 30 60 34 C 72 38 80 42 83 44 C 85 46 87 52 87 61 L 87 536 C 87 542 85 547 82 551 C 79 555 72 558 60 562 C 49 565 42 567 39 569 C 35 570 34 572 34 576 L 34 596 L 405 596 C 421 596 437 597 451 599 C 465 601 477 602 485 603 Z" unicode="f" />
<glyph horiz-adv-x="627" d="M 612 60 L 612 44 C 579 33 539 21 491 9 C 443 -3 397 -10 351 -10 C 295 -10 247 -1 207 16 C 167 34 134 57 108 85 C 82 113 62 146 50 183 C 38 219 32 257 32 295 C 32 345 40 389 57 428 C 74 466 96 499 124 525 C 151 551 182 571 217 585 C 252 599 287 606 323 606 C 348 606 372 603 396 598 C 420 592 445 582 471 568 C 475 565 479 563 482 562 C 485 561 488 561 491 561 C 493 561 496 561 498 562 C 500 563 501 564 503 566 C 504 568 505 570 507 572 C 509 574 510 575 512 575 L 533 575 L 533 426 L 507 426 C 503 426 500 426 498 428 C 495 429 493 432 492 437 C 480 473 460 504 431 531 C 401 558 367 572 327 572 C 303 572 279 566 255 556 C 231 546 210 530 192 508 C 173 486 158 457 146 422 C 134 387 129 346 129 298 C 129 255 134 216 146 182 C 157 148 172 119 192 95 C 212 71 235 53 263 40 C 290 27 320 21 352 21 C 400 21 434 28 453 42 C 471 56 481 74 481 95 L 481 191 C 481 199 479 206 476 210 C 473 214 466 219 455 223 C 446 225 440 228 436 230 C 432 232 430 234 430 238 L 430 257 L 571 257 C 569 248 568 238 566 227 C 564 216 564 207 564 199 L 564 94 C 564 88 565 83 568 79 C 570 75 577 73 588 71 C 598 69 605 67 608 66 C 610 65 612 63 612 60 Z" unicode="g" />
<glyph horiz-adv-x="667" d="M 632 20 L 632 0 L 439 0 L 439 20 C 439 24 440 26 444 27 C 447 27 454 30 465 34 C 477 38 485 42 488 44 C 491 46 493 52 493 61 L 493 288 L 175 288 L 175 63 C 175 52 177 45 181 43 C 185 40 193 37 204 34 C 213 30 219 28 222 27 C 225 25 227 23 227 20 L 227 0 L 34 0 L 34 20 C 34 24 35 26 39 27 C 42 27 49 30 60 34 C 72 38 80 42 83 44 C 85 46 87 52 87 61 L 87 536 C 87 542 85 547 82 551 C 79 555 72 558 60 562 C 49 565 42 567 39 569 C 35 570 34 572 34 576 L 34 596 L 227 596 L 227 576 C 227 572 225 570 222 568 C 219 566 213 564 204 562 C 192 558 184 555 180 553 C 176 550 175 544 175 536 L 175 326 L 493 326 L 493 536 C 493 542 491 547 488 551 C 484 555 477 558 465 562 C 454 565 447 567 444 569 C 440 570 439 572 439 576 L 439 596 L 632 596 L 632 576 C 632 572 630 570 627 568 C 624 566 618 564 609 562 C 597 558 589 555 585 553 C 581 550 580 544 580 536 L 580 63 C 580 53 582 47 586 44 C 590 40 598 37 609 34 C 618 30 624 28 627 27 C 630 25 632 23 632 20 Z" unicode="h" />
<glyph horiz-adv-x="275" d="M 233 20 L 233 0 L 40 0 L 40 20 C 40 24 41 26 45 27 C 49 27 56 30 66 34 C 78 38 86 42 89 44 C 92 46 94 52 94 61 L 94 536 C 94 542 92 547 89 551 C 85 555 78 558 66 562 C 55 565 48 567 45 569 C 41 570 40 572 40 576 L 40 596 L 233 596 L 233 576 C 233 572 231 570 228 568 C 225 566 219 564 210 562 C 198 558 190 555 186 553 C 182 550 181 544 181 536 L 181 63 C 181 52 183 45 187 43 C 191 40 199 37 210 34 C 219 30 225 28 228 27 C 231 25 233 23 233 20 Z" unicode="i" />
<glyph horiz-adv-x="401" d="M 375 596 L 375 576 C 375 572 373 570 370 568 C 366 566 360 564 351 562 C 339 558 331 555 327 553 C 323 550 322 544 322 536 L 322 162 C 322 114 306 73 276 40 C 245 6 201 -10 143 -10 C 103 -10 71 0 46 17 C 20 35 8 56 8 79 C 8 95 12 109 22 121 C 32 132 45 138 62 138 C 76 138 88 134 97 126 C 106 118 111 108 111 96 C 111 85 108 75 103 67 C 98 58 90 51 80 46 C 84 41 92 35 104 29 C 116 22 130 19 144 19 C 168 19 190 27 208 45 C 226 63 235 92 235 132 L 235 536 C 235 542 233 547 229 551 C 225 555 218 558 206 562 C 195 565 188 567 184 569 C 180 570 179 572 179 576 L 179 596 L 375 596 Z" unicode="j" />
<glyph horiz-adv-x="574" d="M 595 21 L 595 0 L 388 0 L 388 19 C 388 21 390 24 395 26 C 400 28 406 30 413 32 C 415 32 419 33 423 35 C 427 37 429 39 429 41 C 429 43 426 47 421 53 C 416 58 412 63 408 67 L 175 301 L 175 63 C 175 53 177 47 181 44 C 185 40 193 37 204 34 C 213 30 219 28 222 27 C 225 25 227 23 227 20 L 227 0 L 34 0 L 34 20 C 34 24 35 26 39 27 C 42 27 49 30 60 34 C 72 38 80 42 83 44 C 85 46 87 52 87 61 L 87 536 C 87 542 85 547 82 551 C 79 555 72 558 60 562 C 49 565 42 567 39 569 C 35 570 34 572 34 576 L 34 596 L 227 596 L 227 576 C 227 572 225 570 222 568 C 219 566 213 564 204 562 C 192 558 184 555 180 552 C 176 549 175 544 175 536 L 175 325 L 387 521 C 391 525 396 529 401 535 C 405 540 408 544 408 546 C 408 549 406 551 402 553 C 398 555 392 557 385 560 C 372 564 364 568 362 570 C 360 572 359 577 359 584 L 359 596 L 552 596 L 552 577 C 552 572 549 569 545 568 C 541 566 532 564 520 560 C 504 555 490 549 480 542 C 470 534 461 528 455 522 L 248 342 L 521 67 C 529 58 538 51 547 45 C 556 39 563 36 569 34 C 579 30 585 28 589 27 C 593 25 595 23 595 21 Z" unicode="k" />
<glyph horiz-adv-x="503" d="M 497 134 L 497 0 L 33 0 L 33 20 C 33 24 34 26 38 27 C 41 27 48 30 59 34 C 71 38 79 42 82 44 C 85 46 87 52 87 61 L 87 536 C 87 542 85 547 82 551 C 79 555 72 558 60 562 C 49 565 42 567 39 569 C 35 570 34 572 34 576 L 34 596 L 227 596 L 227 576 C 227 572 225 570 222 568 C 219 566 213 564 204 562 C 192 558 184 555 180 553 C 176 550 175 544 175 536 L 175 35 L 373 35 C 397 35 415 42 426 56 C 436 70 447 90 458 117 C 460 123 463 128 465 130 C 467 132 470 134 475 134 L 497 134 Z" unicode="l" />
<glyph horiz-adv-x="776" d="M 741 20 L 741 0 L 549 0 L 549 20 C 549 24 550 26 554 27 C 557 27 564 30 574 34 C 586 38 594 42 597 44 C 600 46 602 52 602 61 L 602 545 L 390 10 C 389 7 387 4 383 2 C 379 0 374 -1 368 -1 C 360 -1 355 0 352 2 C 348 4 346 6 345 10 L 135 548 L 135 89 C 135 80 137 71 141 62 C 145 52 152 44 162 38 C 168 33 174 30 180 28 C 186 26 189 23 189 21 L 189 0 L 33 0 L 33 21 C 33 24 34 26 38 27 C 42 28 49 32 59 40 C 67 46 74 54 79 62 C 84 70 87 79 87 88 L 87 536 C 87 542 85 547 82 551 C 79 555 72 558 60 562 C 49 565 42 567 39 569 C 35 570 34 572 34 576 L 34 596 L 204 596 L 390 121 L 576 596 L 741 596 L 741 576 C 741 572 739 570 736 568 C 732 566 726 564 718 562 C 705 558 697 554 693 552 C 689 550 688 544 688 536 L 688 63 C 688 52 690 45 694 43 C 698 41 706 38 718 34 C 726 31 732 29 736 27 C 739 25 741 23 741 20 Z" unicode="m" />
<glyph horiz-adv-x="637" d="M 608 596 L 608 573 C 608 571 605 569 601 568 C 597 566 590 562 582 556 C 571 548 563 540 559 532 C 555 524 553 516 553 508 L 553 -3 L 520 -3 L 135 515 L 135 89 C 135 82 136 74 140 64 C 144 54 150 45 159 39 C 166 33 172 29 178 28 C 183 26 186 24 186 22 L 186 0 L 33 0 L 33 22 C 33 24 34 26 38 27 C 42 28 49 33 59 41 C 67 47 74 55 79 63 C 84 71 87 80 87 89 L 87 535 C 87 541 85 546 82 550 C 79 554 72 558 60 562 C 49 565 42 567 39 569 C 35 570 34 572 34 576 L 34 596 L 178 596 L 505 156 L 505 507 C 505 515 503 524 499 533 C 495 541 488 549 479 556 C 469 562 462 566 458 568 C 453 569 451 571 451 573 L 451 596 L 608 596 Z" unicode="n" />
<glyph horiz-adv-x="649" d="M 325 606 C 368 606 408 598 444 583 C 480 567 511 546 537 519 C 562 491 582 459 596 421 C 610 383 618 342 618 298 C 618 253 610 212 596 174 C 582 136 562 104 537 77 C 511 49 480 28 444 13 C 408 -2 368 -10 325 -10 C 281 -10 242 -2 206 12 C 170 27 139 48 113 75 C 87 102 67 135 53 173 C 39 211 32 252 32 298 C 32 342 39 383 53 421 C 67 459 87 491 113 519 C 139 546 170 567 206 583 C 242 598 281 606 325 606 Z M 325 24 C 383 24 430 47 466 93 C 502 139 520 207 520 298 C 520 386 502 454 466 501 C 430 548 383 572 325 572 C 267 572 219 548 183 501 C 147 454 129 386 129 298 C 129 209 147 141 183 94 C 219 47 267 24 325 24 Z" unicode="o" />
<glyph horiz-adv-x="507" d="M 254 596 C 338 596 399 580 437 550 C 475 520 494 484 494 442 C 494 420 489 399 480 378 C 470 357 455 338 435 322 C 414 306 387 293 353 283 C 319 273 279 268 231 268 L 175 268 L 175 63 C 175 52 177 45 181 43 C 185 40 193 37 204 34 C 213 30 219 28 222 27 C 225 25 227 23 227 20 L 227 0 L 34 0 L 34 20 C 34 24 35 26 39 27 C 42 27 49 30 60 34 C 72 38 80 42 83 44 C 85 46 87 52 87 61 L 87 536 C 87 542 85 547 82 551 C 79 555 72 558 60 562 C 49 565 42 567 39 569 C 35 570 34 572 34 576 L 34 596 L 254 596 Z M 247 305 C 299 305 337 317 361 342 C 385 366 397 400 397 442 C 397 478 384 506 359 528 C 333 550 295 561 243 561 L 175 561 L 175 305 L 247 305 Z" unicode="p" />
<glyph horiz-adv-x="648" d="M 672 -70 L 672 -99 C 662 -109 646 -121 625 -135 C 604 -149 577 -157 543 -157 C 509 -157 479 -148 453 -132 C 427 -115 402 -97 377 -79 C 347 -57 326 -41 312 -31 C 298 -20 282 -11 266 -3 C 194 9 137 42 95 97 C 53 151 32 218 32 298 C 32 342 39 383 53 421 C 67 459 87 491 113 519 C 139 546 170 567 206 583 C 242 598 281 606 325 606 C 368 606 408 598 444 583 C 480 567 510 546 536 519 C 562 491 582 459 596 421 C 610 383 618 342 618 298 C 618 256 611 218 599 182 C 586 146 568 115 546 89 C 523 63 495 41 463 25 C 431 8 395 -2 357 -6 C 371 -10 389 -17 411 -27 C 433 -36 458 -47 486 -60 C 509 -70 529 -78 547 -82 C 564 -86 584 -88 607 -88 C 622 -88 635 -85 645 -81 C 655 -76 664 -72 672 -70 Z M 325 25 C 383 25 430 47 466 93 C 502 139 521 207 521 298 C 521 386 502 454 466 501 C 430 548 383 572 325 572 C 267 572 219 548 183 501 C 146 454 128 386 128 298 C 128 209 146 141 183 95 C 219 48 267 25 325 25 Z" unicode="q" />
<glyph horiz-adv-x="578" d="M 596 19 L 596 0 L 455 0 C 438 25 422 48 408 69 C 394 90 376 115 355 145 C 329 179 305 210 281 236 C 257 262 225 275 186 275 L 175 275 L 175 63 C 175 52 177 45 181 43 C 185 40 193 37 204 34 C 213 30 219 28 222 27 C 225 25 227 23 227 20 L 227 0 L 34 0 L 34 20 C 34 24 35 26 39 27 C 42 27 49 30 60 34 C 72 38 80 42 83 44 C 85 46 87 52 87 61 L 87 536 C 87 542 85 547 82 551 C 79 555 72 558 60 562 C 49 565 42 567 39 569 C 35 570 34 572 34 576 L 34 596 L 264 596 C 344 596 404 581 443 552 C 482 523 502 487 502 444 C 502 410 486 378 456 348 C 425 318 380 297 322 287 C 332 283 343 277 353 271 C 363 264 374 254 386 241 C 398 228 412 211 428 190 C 444 168 463 141 486 108 C 498 90 510 74 524 60 C 537 45 550 36 563 34 C 577 31 586 29 590 27 C 594 25 596 22 596 19 Z M 250 312 C 302 312 340 323 366 345 C 392 367 405 400 405 444 C 405 484 390 514 362 533 C 334 551 299 561 258 561 L 175 561 L 175 312 L 250 312 Z" unicode="r" />
<glyph horiz-adv-x="499" d="M 308 345 C 369 322 411 297 435 270 C 458 242 470 211 470 176 C 470 154 465 133 456 111 C 447 89 434 69 416 51 C 398 33 375 18 348 7 C 320 -4 288 -10 251 -10 C 221 -10 193 -7 167 -1 C 140 5 118 11 101 18 C 98 18 95 19 93 21 C 91 22 88 23 86 23 C 82 23 80 22 78 22 C 76 21 73 18 70 14 C 67 10 64 7 62 5 C 59 2 55 1 51 1 L 32 1 L 32 160 L 57 160 C 60 160 63 159 66 158 C 68 156 71 152 74 146 C 92 103 117 72 149 53 C 181 34 215 25 251 25 C 289 25 323 35 352 55 C 380 75 395 106 395 146 C 395 163 391 177 385 189 C 378 201 369 211 359 219 C 348 227 336 235 323 241 C 309 247 296 252 283 257 C 263 263 246 269 232 274 C 218 279 201 285 183 292 C 137 310 104 332 84 359 C 64 385 54 414 54 444 C 54 464 58 484 66 504 C 74 524 85 541 101 556 C 117 571 136 583 160 592 C 184 601 211 606 242 606 C 256 606 273 603 294 599 C 315 595 337 586 359 574 C 361 572 365 571 369 569 C 373 567 377 566 380 566 C 381 566 383 566 385 567 C 387 568 389 570 392 574 C 393 576 394 577 396 578 C 398 579 399 580 401 580 L 420 580 L 420 438 L 393 438 C 389 438 386 439 384 441 C 382 443 380 445 380 448 C 367 488 348 518 322 539 C 296 560 267 571 235 571 C 208 571 183 562 160 546 C 137 530 126 508 126 482 C 126 455 133 434 147 419 C 161 403 182 390 209 380 C 225 373 243 367 262 361 C 280 355 296 349 308 345 Z" unicode="s" />
<glyph horiz-adv-x="546" d="M 541 603 L 541 480 L 525 480 C 517 480 511 481 507 485 C 502 488 499 492 497 498 C 489 519 480 535 471 546 C 462 556 450 562 434 562 L 317 562 L 317 63 C 317 52 319 45 324 43 C 328 40 336 37 347 34 C 356 30 362 28 365 27 C 368 25 370 23 370 20 L 370 0 L 175 0 L 175 20 C 175 24 176 26 180 27 C 184 27 191 30 201 34 C 213 38 221 42 225 44 C 228 46 230 52 230 61 L 230 562 L 114 562 C 96 562 83 556 75 545 C 66 533 58 518 52 498 C 50 492 46 488 41 485 C 36 481 30 480 24 480 L 5 480 L 5 603 C 12 602 26 601 47 599 C 67 597 85 596 99 596 L 448 596 C 454 596 461 596 470 597 C 479 597 488 598 497 599 C 506 599 515 600 523 601 C 531 601 537 602 541 603 Z" unicode="t" />
<glyph horiz-adv-x="628" d="M 603 596 L 603 573 C 603 571 600 568 596 566 C 591 564 584 560 576 555 C 566 549 559 542 555 535 C 550 528 548 520 548 512 L 548 211 C 548 183 543 156 534 130 C 524 103 510 79 492 59 C 474 38 450 21 422 9 C 394 -3 361 -10 323 -10 C 281 -10 245 -4 215 6 C 184 16 159 31 139 50 C 119 68 105 90 95 116 C 85 142 81 169 81 199 L 81 536 C 81 542 79 547 76 551 C 73 555 66 558 54 562 C 43 565 36 567 33 569 C 29 570 28 572 28 576 L 28 596 L 221 596 L 221 576 C 221 572 219 570 216 568 C 213 566 207 564 198 562 C 186 558 178 555 174 553 C 170 550 169 544 169 536 L 169 209 C 169 157 182 116 210 86 C 238 56 278 41 330 41 C 388 41 430 56 458 88 C 486 120 500 164 500 220 L 500 511 C 500 519 497 527 493 534 C 489 541 481 548 471 555 C 462 560 455 564 451 566 C 446 568 444 571 444 573 L 444 596 L 603 596 Z" unicode="u" />
<glyph horiz-adv-x="600" d="M 607 596 L 607 580 C 607 575 605 572 602 570 C 599 568 594 566 588 563 C 574 556 564 550 558 546 C 552 541 547 532 541 519 L 318 1 C 317 -1 315 -3 313 -5 C 310 -6 307 -7 305 -7 L 299 -7 C 296 -7 293 -6 291 -5 C 289 -3 287 -1 287 1 L 54 530 C 50 538 45 545 39 550 C 33 554 25 558 15 562 C 5 565 -1 567 -5 568 C -8 569 -10 572 -10 576 L -10 596 L 190 596 L 190 578 C 190 575 187 572 183 570 C 178 567 173 565 167 563 C 161 561 156 559 151 556 C 146 552 144 549 144 545 C 144 541 144 538 146 534 C 147 530 148 526 150 524 L 324 122 L 489 519 C 489 521 491 526 493 532 C 495 538 496 543 496 546 C 496 550 493 554 487 556 C 481 558 474 560 466 563 C 457 565 451 567 448 569 C 444 571 443 574 443 580 L 443 596 L 607 596 Z" unicode="v" />
<glyph horiz-adv-x="883" d="M 892 596 L 892 580 C 892 576 890 573 888 571 C 886 569 881 566 873 563 C 859 556 849 550 843 546 C 837 541 831 532 826 519 L 621 2 C 620 0 618 -2 616 -4 C 614 -6 611 -7 609 -7 L 601 -7 C 598 -7 595 -6 593 -4 C 590 -2 588 0 588 2 L 449 394 L 298 2 C 297 0 296 -2 294 -4 C 292 -6 289 -7 287 -7 L 278 -7 C 275 -7 272 -6 270 -4 C 268 -2 266 0 265 2 L 56 531 C 53 538 48 544 40 549 C 32 554 24 558 14 562 C 4 565 -2 567 -5 569 C -8 570 -10 572 -10 576 L -10 596 L 193 596 L 193 579 C 193 575 189 571 183 569 C 177 567 171 565 167 564 C 161 562 156 560 152 557 C 147 553 145 550 145 546 C 145 543 145 539 147 535 C 148 530 149 526 151 523 L 303 131 L 426 447 L 390 531 C 387 536 383 542 377 548 C 371 554 363 558 352 562 C 342 564 336 566 332 568 C 328 570 327 572 327 576 L 327 596 L 532 596 L 532 579 C 532 575 530 572 526 570 C 522 568 515 566 505 563 C 498 560 492 557 488 554 C 483 551 481 548 481 546 C 481 544 481 540 483 535 C 484 530 485 525 487 521 L 628 132 L 775 526 C 775 528 776 532 777 536 C 778 540 779 543 779 545 C 779 549 776 553 772 555 C 767 557 760 559 752 562 C 742 565 734 567 730 569 C 726 571 724 574 724 579 L 724 596 L 892 596 Z" unicode="w" />
<glyph horiz-adv-x="560" d="M 564 19 L 564 0 L 370 0 L 370 13 C 370 17 371 21 373 24 C 375 26 380 29 390 33 C 395 35 400 37 404 40 C 408 42 411 45 411 49 C 411 51 408 56 404 64 C 399 72 395 78 393 82 L 263 261 L 141 87 C 137 82 133 75 128 67 C 122 58 120 52 120 50 C 120 45 124 41 132 38 C 140 35 149 32 158 30 C 162 29 166 27 170 25 C 174 23 176 19 176 15 L 176 0 L -4 0 L -4 16 C -4 18 -3 21 -1 24 C 1 26 6 29 14 32 C 29 36 41 42 51 49 C 61 55 72 67 84 83 L 238 293 L 70 524 C 63 533 56 540 50 546 C 43 552 36 556 28 559 C 17 562 11 565 9 567 C 7 569 6 573 6 577 L 6 596 L 202 596 L 202 583 C 202 578 201 574 199 571 C 197 568 191 565 182 563 C 175 561 170 558 166 556 C 162 554 160 551 160 548 C 160 545 162 540 166 534 C 170 527 174 520 180 513 L 296 352 L 424 531 C 424 532 426 534 428 538 C 430 541 431 544 431 546 C 431 551 426 555 418 558 C 409 560 399 563 387 566 C 382 567 378 569 376 571 C 373 573 372 577 372 582 L 372 596 L 551 596 L 551 580 C 551 576 549 573 547 571 C 544 569 539 566 531 564 C 516 560 505 555 498 549 C 490 543 479 531 465 512 L 320 320 L 503 71 C 510 61 517 53 524 48 C 531 43 538 39 545 37 C 554 32 559 28 561 26 C 563 24 564 21 564 19 Z" unicode="x" />
<glyph horiz-adv-x="547" d="M 562 596 L 562 580 C 562 575 560 572 557 570 C 553 568 548 566 542 564 C 529 558 520 553 514 550 C 508 546 500 536 489 520 L 320 273 L 320 63 C 320 52 322 45 327 43 C 331 40 339 37 350 34 C 359 30 365 28 368 27 C 371 25 373 23 373 20 L 373 0 L 178 0 L 178 20 C 178 24 179 26 183 27 C 187 27 194 30 204 34 C 216 38 224 42 228 44 C 231 46 233 52 233 61 L 233 269 L 52 529 C 46 537 40 544 35 549 C 29 554 21 558 11 562 C 1 564 -4 566 -8 568 C -12 570 -14 572 -14 576 L -14 596 L 186 596 L 186 583 C 186 578 184 575 181 573 C 178 571 173 568 167 566 C 159 563 152 560 147 558 C 142 556 140 553 140 551 C 140 548 140 544 142 540 C 144 536 146 532 149 529 L 298 311 L 432 514 C 436 521 440 527 443 533 C 446 539 448 544 448 549 C 448 551 445 554 440 556 C 434 558 428 560 422 562 C 412 564 405 567 402 569 C 399 571 398 575 398 580 L 398 596 L 562 596 Z" unicode="y" />
<glyph horiz-adv-x="529" d="M 505 131 L 505 -7 C 495 -6 482 -5 465 -3 C 447 -1 429 0 411 0 L 18 0 L 18 13 C 18 17 19 22 22 26 C 24 30 27 35 31 40 L 390 561 L 161 561 C 143 561 129 555 121 545 C 112 534 103 518 95 497 C 92 490 89 485 85 483 C 81 480 75 479 69 479 L 53 479 L 53 602 C 60 601 72 600 88 598 C 104 596 116 596 124 596 L 499 596 L 499 590 C 499 583 497 577 495 573 C 492 569 488 563 484 557 L 124 35 L 377 35 C 399 35 416 41 428 53 C 440 65 452 87 464 117 C 465 121 467 124 469 127 C 471 129 475 131 481 131 L 505 131 Z" unicode="z" />
<glyph horiz-adv-x="386" d="M 354 -168 L 354 -197 C 320 -197 290 -191 262 -181 C 234 -170 210 -155 190 -137 C 170 -118 154 -96 143 -71 C 132 -46 127 -19 127 9 C 127 29 128 49 130 69 C 132 88 134 107 134 126 C 134 160 125 189 109 211 C 93 233 66 248 29 255 L 29 282 C 66 288 93 303 109 325 C 125 347 134 375 134 410 C 134 428 132 447 130 467 C 128 486 127 506 127 527 C 127 555 132 582 143 607 C 154 632 170 654 190 673 C 210 691 234 706 262 717 C 290 727 320 733 354 733 L 354 704 C 299 690 261 671 241 647 C 221 623 211 590 211 550 C 211 526 211 505 213 487 C 215 469 216 451 216 435 C 216 400 203 367 179 335 C 154 303 125 281 92 269 C 125 256 154 234 179 202 C 203 170 216 137 216 101 C 216 84 215 66 213 48 C 211 30 211 9 211 -14 C 211 -54 221 -87 241 -111 C 261 -135 299 -154 354 -168 Z" unicode="{" />
<glyph horiz-adv-x="66" d="M 66 730 L 66 -190 L 0 -190 L 0 730 L 66 730 Z" unicode="|" />
<glyph horiz-adv-x="386" d="M 357 282 L 357 255 C 319 248 292 233 276 211 C 260 189 252 160 252 126 C 252 107 253 88 255 69 C 257 49 259 29 259 9 C 259 -19 253 -46 242 -71 C 230 -96 215 -118 195 -137 C 175 -155 151 -170 123 -181 C 95 -191 64 -197 32 -197 L 32 -168 C 86 -154 124 -135 144 -111 C 164 -87 175 -54 175 -14 C 175 9 174 30 172 48 C 170 66 170 84 170 101 C 170 137 182 170 207 202 C 231 234 260 256 294 269 C 260 281 231 303 207 335 C 182 367 170 400 170 435 C 170 451 170 469 172 487 C 174 505 175 526 175 550 C 175 590 164 623 144 647 C 124 671 86 690 32 704 L 32 733 C 65 733 95 727 123 717 C 151 706 175 691 195 673 C 215 654 230 632 242 607 C 253 582 259 555 259 527 C 259 506 257 486 255 467 C 253 447 252 428 252 410 C 252 375 260 347 276 325 C 292 303 319 288 357 282 Z" unicode="}" />
<glyph horiz-adv-x="766" d="M 623 394 L 659 394 C 657 370 652 347 644 325 C 635 302 623 282 609 265 C 595 247 578 233 558 223 C 538 212 516 207 492 207 C 473 207 456 210 440 218 C 424 226 404 238 378 255 C 354 271 333 284 315 296 C 296 307 276 313 256 313 C 240 313 226 309 214 302 C 202 295 193 286 185 275 C 177 264 171 252 167 239 C 162 226 159 214 158 202 L 122 202 C 123 225 128 248 137 270 C 145 292 157 312 172 329 C 186 346 203 360 223 371 C 243 381 264 387 288 387 C 312 387 332 383 348 377 C 363 370 382 359 405 345 C 429 329 450 314 469 302 C 488 289 506 283 524 283 C 540 283 554 286 566 293 C 578 300 587 309 595 320 C 603 331 609 343 614 356 C 618 369 621 382 623 394 Z" unicode="~" />
<glyph horiz-adv-x="230" d="" unicode="" />
<glyph horiz-adv-x="283" d="M 142 547 C 159 547 173 541 184 529 C 195 517 201 504 201 488 C 201 472 195 459 184 447 C 173 435 159 430 142 430 C 124 430 110 435 98 447 C 86 459 81 472 81 488 C 81 504 86 517 98 529 C 110 541 124 547 142 547 Z M 170 90 C 176 38 182 -2 188 -32 C 194 -62 197 -93 197 -124 C 197 -142 193 -160 185 -176 C 177 -192 162 -200 142 -200 C 120 -200 106 -192 98 -176 C 90 -160 86 -142 86 -124 C 86 -93 88 -62 94 -32 C 100 -2 106 38 112 90 C 117 136 120 181 120 227 C 120 272 121 311 123 345 C 123 346 125 348 129 351 C 133 353 137 355 141 355 C 144 355 148 353 152 351 C 156 348 158 346 158 345 C 159 311 160 271 160 226 C 160 181 164 136 170 90 Z" unicode="" />
<glyph horiz-adv-x="482" d="M 423 243 L 447 217 C 436 197 418 177 393 157 C 367 137 336 125 298 121 L 298 -9 L 250 -9 L 250 121 C 224 122 199 128 175 138 C 151 148 131 163 113 181 C 95 199 81 222 71 248 C 60 274 55 303 55 336 C 55 363 59 389 69 415 C 79 441 92 464 109 484 C 126 504 146 520 170 534 C 194 547 220 555 249 558 L 249 667 L 297 667 L 297 557 C 337 556 368 546 391 527 C 414 508 426 489 426 469 C 426 449 420 436 410 428 C 399 420 388 417 376 417 C 362 417 350 420 340 428 C 330 435 325 447 325 463 C 325 469 326 476 328 484 C 330 491 334 499 338 507 C 334 509 325 512 312 516 C 299 519 282 521 262 521 C 242 521 225 516 210 508 C 195 499 183 487 173 472 C 163 457 156 439 152 419 C 147 399 145 377 145 355 C 145 332 147 309 153 287 C 158 264 166 244 177 226 C 188 208 202 193 220 182 C 237 171 258 166 282 166 C 315 166 342 174 364 190 C 385 206 405 223 423 243 Z" unicode="" />
<glyph horiz-adv-x="562" d="M 552 111 L 578 89 C 561 65 541 43 519 22 C 496 0 464 -10 424 -10 C 384 -10 351 0 327 20 C 303 40 282 61 264 82 C 250 56 232 34 210 16 C 188 -1 161 -10 128 -10 C 103 -10 80 -2 58 13 C 36 28 25 51 25 82 C 25 117 37 143 61 160 C 85 177 111 186 141 186 C 159 186 176 183 192 178 C 208 173 224 167 239 160 C 237 195 229 226 216 252 C 202 278 192 298 184 311 C 182 313 181 316 179 319 C 177 321 175 324 174 327 L 49 327 L 49 364 L 155 364 C 147 382 140 401 134 423 C 128 444 126 468 126 494 C 126 519 131 544 142 568 C 152 592 168 613 188 632 C 208 650 232 665 260 677 C 288 689 320 695 356 695 C 404 695 445 683 478 661 C 510 639 527 612 527 580 C 527 557 521 541 511 533 C 500 525 489 521 477 521 C 463 521 451 524 439 531 C 427 537 422 550 422 569 C 422 577 424 586 429 594 C 433 602 443 611 459 622 C 443 636 426 645 410 649 C 393 653 377 656 363 656 C 321 656 285 644 257 622 C 229 599 215 564 215 516 C 215 492 220 467 230 441 C 240 415 250 389 261 364 L 451 364 L 451 327 L 275 327 C 281 311 286 295 290 280 C 294 265 297 250 297 235 C 297 219 296 202 295 184 C 293 166 290 149 285 131 C 305 116 329 101 356 87 C 382 72 412 65 444 65 C 460 65 479 68 501 75 C 522 82 539 94 552 111 Z M 130 23 C 151 23 171 30 191 46 C 211 62 224 84 231 112 C 219 122 205 130 190 138 C 175 145 158 149 139 149 C 117 149 99 142 86 129 C 72 115 66 100 66 84 C 66 67 71 53 81 41 C 91 29 107 23 130 23 Z" unicode="" />
<glyph horiz-adv-x="555" d="M 517 138 L 544 113 C 534 93 522 75 506 60 C 490 44 473 31 454 21 C 435 11 415 3 395 -2 C 375 -7 356 -10 338 -10 C 301 -10 268 -3 240 10 C 212 23 188 42 168 66 C 148 90 131 119 119 153 C 107 187 99 224 95 264 L 22 264 L 22 301 L 91 301 L 91 324 C 91 334 91 343 92 353 C 92 363 93 373 94 384 L 22 384 L 22 421 L 100 421 C 113 503 143 569 189 619 C 235 669 294 695 368 695 C 414 695 451 685 480 667 C 508 648 523 625 523 599 C 523 582 518 569 509 559 C 499 549 487 544 473 544 C 454 544 441 548 434 558 C 426 567 422 580 421 596 L 417 639 C 414 640 407 643 396 647 C 384 651 370 654 353 654 C 306 654 268 632 238 589 C 208 546 190 490 182 421 L 408 421 L 408 384 L 179 384 C 178 375 178 368 178 362 C 178 356 178 349 178 343 L 178 301 L 377 301 L 377 264 L 181 264 C 186 198 202 145 229 105 C 256 64 297 44 351 44 C 383 44 413 50 440 64 C 467 77 493 102 517 138 Z" unicode="" />
<glyph horiz-adv-x="632" d="M 630 684 L 630 663 C 630 658 628 655 625 653 C 622 651 617 648 609 645 C 596 639 586 633 578 629 C 570 625 560 613 548 595 L 416 393 L 542 393 L 542 356 L 389 356 L 363 312 L 363 283 L 542 283 L 542 245 L 364 245 L 364 71 C 364 63 366 57 370 53 C 374 49 382 45 394 41 C 404 37 412 34 416 34 C 420 34 422 31 422 25 L 422 0 L 219 0 L 219 25 C 219 31 221 34 225 35 C 229 35 237 37 247 41 C 261 45 270 49 274 52 C 278 55 281 61 281 71 L 281 245 L 94 245 L 94 283 L 282 283 L 282 309 L 251 356 L 94 356 L 94 393 L 224 393 L 82 605 C 74 615 67 624 60 630 C 53 636 45 640 35 643 C 29 644 23 646 16 648 C 9 650 6 653 6 657 L 6 684 L 211 684 L 211 667 C 211 661 208 657 204 654 C 200 650 195 648 191 647 C 183 644 176 641 171 638 C 165 635 163 632 163 629 C 163 625 164 621 168 616 C 171 610 175 604 180 597 L 341 355 L 501 606 C 503 610 506 614 508 618 C 510 622 511 625 511 629 C 511 632 508 635 504 637 C 499 639 492 642 484 646 C 479 648 473 650 466 652 C 459 654 456 659 456 666 L 456 684 L 630 684 Z" unicode="" />
<glyph horiz-adv-x="575" d="M 326 459 C 390 430 437 403 468 377 C 498 351 514 319 514 279 C 514 252 505 225 487 199 C 469 172 443 147 409 125 C 438 106 457 87 466 67 C 475 47 480 25 480 3 C 480 -17 474 -37 463 -56 C 452 -75 438 -92 420 -107 C 402 -121 380 -133 356 -142 C 332 -150 306 -155 280 -155 C 248 -155 220 -151 195 -144 C 170 -136 149 -127 133 -115 C 116 -103 103 -91 94 -77 C 85 -63 81 -49 81 -36 C 81 -12 86 3 98 11 C 110 19 121 24 133 24 C 146 24 158 20 170 13 C 182 6 188 -6 188 -25 C 188 -32 186 -39 183 -47 C 180 -55 171 -63 157 -72 C 171 -82 186 -92 204 -101 C 222 -109 247 -114 281 -114 C 299 -114 316 -111 331 -105 C 345 -99 358 -92 368 -84 C 378 -75 386 -66 392 -56 C 397 -46 400 -36 400 -28 C 400 -16 399 -5 398 5 C 397 15 392 25 383 36 C 373 46 358 58 337 71 C 315 83 285 98 246 116 C 186 142 140 169 110 196 C 79 222 64 255 64 295 C 64 317 72 342 88 370 C 104 397 132 423 170 448 C 139 468 119 488 110 507 C 101 525 97 546 97 569 C 97 589 102 609 113 629 C 123 648 138 665 156 680 C 174 695 195 707 220 716 C 244 725 271 730 300 730 C 331 730 359 726 383 719 C 407 711 427 702 443 690 C 459 678 472 664 481 650 C 489 636 494 622 494 608 C 494 586 488 570 477 562 C 466 553 455 549 444 549 C 431 549 418 552 406 560 C 393 567 387 580 387 599 C 387 605 388 613 392 622 C 395 630 404 638 419 646 C 402 656 385 666 368 674 C 351 682 328 687 298 687 C 280 687 263 684 248 678 C 232 672 219 665 209 657 C 198 648 190 639 184 629 C 178 619 175 609 175 601 C 175 588 175 576 177 566 C 179 556 184 546 194 536 C 204 526 219 514 239 502 C 259 490 288 475 326 459 Z M 373 145 C 391 155 406 169 419 187 C 432 205 439 221 439 237 C 439 261 432 283 420 302 C 408 321 386 339 356 355 C 325 371 296 385 269 397 C 241 409 220 420 206 429 C 187 416 171 401 158 384 C 144 367 138 351 138 337 C 138 310 145 287 159 269 C 173 250 194 233 224 218 C 258 199 284 185 304 176 C 324 167 347 157 373 145 Z" unicode="" />
<glyph horiz-adv-x="418" d="M 314 785 C 329 785 342 779 353 768 C 364 757 370 744 370 730 C 370 715 364 702 353 691 C 342 680 329 675 314 675 C 298 675 285 680 274 691 C 263 702 258 715 258 730 C 258 744 263 757 274 768 C 285 779 298 785 314 785 Z M 104 785 C 119 785 132 779 143 768 C 154 757 160 744 160 730 C 160 715 154 702 143 691 C 132 680 119 675 104 675 C 88 675 75 680 64 691 C 53 702 48 715 48 730 C 48 744 53 757 64 768 C 75 779 88 785 104 785 Z" unicode="" />
<glyph horiz-adv-x="828" d="M 414 723 C 467 723 517 713 564 694 C 610 674 651 648 685 616 C 719 583 746 544 766 499 C 786 454 796 406 796 356 C 796 305 786 257 766 213 C 746 168 719 129 685 96 C 651 63 610 37 564 18 C 517 0 467 -10 414 -10 C 360 -10 310 0 264 18 C 217 37 176 63 142 96 C 108 129 81 168 61 213 C 41 257 32 305 32 356 C 32 406 41 454 61 499 C 81 544 108 583 142 616 C 176 648 217 674 264 694 C 310 713 360 723 414 723 Z M 414 27 C 461 27 505 35 547 53 C 588 70 624 93 654 123 C 684 153 708 188 726 228 C 744 268 753 310 753 356 C 753 401 744 444 726 484 C 708 524 684 559 654 589 C 624 619 588 642 547 660 C 505 677 461 686 414 686 C 366 686 322 677 281 660 C 240 642 204 619 174 589 C 144 559 120 524 102 484 C 84 444 76 401 76 356 C 76 310 84 268 102 228 C 120 188 144 153 174 123 C 204 93 240 70 281 53 C 322 35 366 27 414 27 Z M 558 254 L 578 236 C 574 228 567 219 558 209 C 549 199 538 189 525 181 C 511 172 496 165 479 159 C 461 153 442 150 421 150 C 389 150 360 155 336 166 C 311 177 290 192 274 211 C 257 229 244 251 236 275 C 228 299 224 325 224 352 C 224 386 229 415 241 441 C 253 467 268 488 287 505 C 305 522 326 535 349 544 C 371 552 394 557 416 557 C 434 557 450 554 466 549 C 481 544 497 537 513 529 C 516 528 519 527 522 526 C 525 525 528 526 531 528 C 534 530 536 532 538 533 C 540 534 542 535 544 535 L 558 535 L 558 434 L 538 434 C 535 434 533 434 531 436 C 529 437 528 439 528 441 C 520 465 508 485 490 503 C 472 521 451 530 427 530 C 413 530 398 526 383 520 C 367 514 353 504 341 490 C 328 476 318 457 310 435 C 302 413 298 386 298 355 C 298 299 310 256 335 227 C 359 197 389 183 424 183 C 442 183 459 185 475 191 C 490 197 503 203 515 211 C 526 219 535 227 543 235 C 550 243 555 249 558 254 Z" unicode="" />
<glyph horiz-adv-x="409" d="M 397 346 L 397 329 L 262 329 L 262 343 C 262 345 263 348 267 351 C 271 353 275 355 280 357 C 281 357 283 358 285 358 C 287 358 288 359 290 360 C 290 360 291 361 292 361 C 293 361 294 362 294 363 C 294 364 293 367 291 372 C 289 376 287 379 287 381 L 265 433 L 119 433 L 97 381 C 96 379 95 376 93 372 C 91 368 90 365 90 365 C 90 363 91 362 95 361 C 98 359 102 358 107 357 C 112 355 116 353 120 351 C 123 349 125 346 125 342 L 125 329 L 12 329 L 12 342 C 12 344 13 347 15 349 C 17 351 19 353 21 354 C 29 358 35 363 40 367 C 44 371 49 377 53 386 L 172 636 L 160 660 C 159 661 158 662 158 664 C 158 665 158 666 158 668 C 158 670 158 671 159 673 C 160 674 162 675 165 676 C 171 678 178 681 184 685 C 190 689 195 692 200 696 C 200 696 202 697 205 698 C 208 698 210 699 211 699 C 213 699 215 698 217 697 C 218 695 219 694 220 692 L 359 375 C 360 371 362 368 365 365 C 368 362 372 360 377 358 C 380 357 383 356 385 356 C 387 355 389 354 391 354 C 392 353 393 352 395 351 C 396 349 397 348 397 346 Z M 133 464 L 251 464 L 193 595 L 133 464 Z" unicode="" />
<glyph horiz-adv-x="459" d="M 305 294 L 421 120 L 374 120 L 241 262 C 237 266 233 271 230 276 C 227 281 226 287 226 294 C 226 300 227 306 230 311 C 233 316 237 321 241 326 L 374 468 L 421 468 L 305 294 Z M 125 294 L 240 120 L 193 120 L 60 262 C 56 266 52 271 49 276 C 46 281 45 287 45 294 C 45 300 46 306 49 311 C 52 316 56 321 60 326 L 193 468 L 240 468 L 125 294 Z" unicode="" />
<glyph horiz-adv-x="766" d="M 634 329 L 634 45 L 578 45 L 578 277 L 122 277 L 122 329 L 634 329 Z" unicode="" />
<glyph horiz-adv-x="330" d="M 286 329 L 286 264 L 44 264 L 44 329 L 286 329 Z" unicode="" />
<glyph horiz-adv-x="509" d="M 254 730 C 286 730 317 723 346 711 C 375 699 400 682 422 662 C 444 641 461 616 474 588 C 486 560 493 530 493 499 C 493 467 486 437 474 409 C 461 381 444 356 422 336 C 400 315 375 299 346 287 C 317 275 286 269 254 269 C 221 269 190 275 162 287 C 133 299 108 315 86 336 C 64 356 47 381 35 409 C 22 437 16 467 16 499 C 16 530 22 560 35 588 C 47 616 64 641 86 662 C 108 682 133 699 162 711 C 190 723 221 730 254 730 Z M 254 302 C 282 302 308 307 333 317 C 358 327 380 341 398 359 C 416 377 430 398 441 422 C 451 446 457 471 457 499 C 457 526 451 552 441 576 C 430 600 416 621 398 639 C 380 657 358 671 333 681 C 308 691 282 697 254 697 C 226 697 199 691 175 681 C 150 671 129 657 111 639 C 93 621 78 600 68 576 C 57 552 52 526 52 499 C 52 471 57 446 68 422 C 78 398 93 377 111 359 C 129 341 150 327 175 317 C 199 307 226 302 254 302 Z M 271 625 C 293 625 314 618 333 606 C 351 593 361 574 361 550 C 361 533 356 518 348 506 C 340 493 326 483 308 476 L 359 373 L 309 373 L 262 471 L 213 471 L 213 373 L 166 373 L 166 625 L 271 625 Z M 266 513 C 273 513 282 515 293 521 C 303 527 309 536 309 549 C 309 561 304 570 296 576 C 287 581 277 584 267 584 L 213 584 L 213 513 L 266 513 Z" unicode="" />
<glyph horiz-adv-x="418" d="M 365 764 L 365 706 L 53 706 L 53 764 L 365 764 Z" unicode="" />
<glyph horiz-adv-x="324" d="M 162 730 C 198 730 229 717 256 692 C 282 666 296 636 296 601 C 296 565 282 535 256 510 C 229 484 198 472 162 472 C 126 472 94 484 68 510 C 41 535 28 565 28 601 C 28 636 41 666 68 692 C 94 717 126 730 162 730 Z M 162 518 C 185 518 204 526 219 543 C 233 559 241 579 241 601 C 241 623 233 642 219 659 C 204 675 185 684 162 684 C 138 684 118 675 104 659 C 90 642 83 623 83 601 C 83 579 90 559 104 543 C 118 526 138 518 162 518 Z" unicode="" />
<glyph horiz-adv-x="766" d="M 652 409 L 652 357 L 411 357 L 411 135 L 355 135 L 355 357 L 114 357 L 114 409 L 355 409 L 355 631 L 411 631 L 411 409 L 652 409 Z M 652 52 L 652 0 L 114 0 L 114 52 L 652 52 Z" unicode="" />
<glyph horiz-adv-x="448" d="M 352 416 L 374 416 L 372 317 L 73 317 L 73 359 C 86 377 106 400 132 428 C 158 456 186 483 215 509 C 239 530 258 550 273 569 C 288 587 296 608 296 631 C 296 651 288 667 273 679 C 258 690 238 696 212 696 C 197 696 183 692 170 686 C 157 680 149 673 146 665 C 152 660 156 654 160 648 C 164 641 166 634 166 628 C 166 617 162 608 155 602 C 147 595 138 592 127 592 C 110 592 98 596 91 604 C 84 612 81 623 81 637 C 81 659 95 681 124 702 C 153 723 188 734 230 734 C 274 734 309 724 335 704 C 361 684 374 658 374 627 C 374 608 369 590 359 573 C 349 556 336 541 322 527 C 308 513 292 500 276 488 C 260 476 246 467 234 459 C 218 448 202 435 184 420 C 166 404 150 390 138 376 L 293 376 C 302 376 310 377 317 381 C 324 384 329 392 332 406 C 333 412 335 415 339 415 C 343 415 347 416 352 416 Z" unicode="" />
<glyph horiz-adv-x="452" d="M 276 545 C 304 536 329 524 350 508 C 370 492 381 469 381 441 C 381 419 375 400 365 384 C 354 368 340 354 324 344 C 307 333 288 325 267 319 C 246 313 225 311 205 311 C 165 311 131 319 104 335 C 77 351 64 370 64 393 C 64 402 67 411 75 421 C 82 431 93 436 109 436 C 124 436 135 432 142 424 C 149 416 153 408 153 402 C 153 394 151 388 149 382 C 146 376 143 370 139 366 C 143 361 151 357 163 354 C 174 350 186 349 200 349 C 234 349 260 358 277 377 C 294 396 303 417 303 439 C 303 469 292 491 272 503 C 251 515 215 521 165 521 L 165 557 C 215 559 247 567 263 581 C 279 595 287 615 287 643 C 287 655 281 667 269 679 C 257 690 238 696 213 696 C 199 696 188 694 179 691 C 169 688 161 685 155 682 C 159 677 162 672 164 667 C 166 661 167 655 167 649 C 167 639 163 630 156 623 C 148 616 138 613 126 613 C 114 613 103 616 95 624 C 87 631 83 641 83 655 C 83 665 87 675 95 685 C 103 695 114 703 128 711 C 141 718 156 724 172 728 C 188 732 205 734 221 734 C 263 734 297 725 325 707 C 352 689 366 667 366 640 C 366 618 357 599 340 584 C 322 568 301 555 276 545 Z" unicode="" />
<glyph horiz-adv-x="418" d="M 288 830 C 300 830 310 825 318 817 C 325 808 329 798 329 787 C 329 778 325 769 319 761 C 312 752 301 743 287 735 L 124 644 L 98 661 L 229 800 C 240 812 250 820 260 824 C 269 828 278 830 288 830 Z" unicode="" />
<glyph horiz-adv-x="625" d="M 550 -120 L 550 -140 L 421 -140 L 421 690 L 346 690 L 346 -140 L 217 -140 L 217 -120 C 217 -115 218 -112 222 -110 C 225 -108 232 -104 243 -100 C 256 -94 265 -89 269 -84 C 273 -79 276 -72 276 -64 L 276 315 C 261 315 240 316 213 318 C 185 320 159 327 133 340 C 107 353 84 374 64 403 C 44 431 35 472 35 525 C 35 586 54 635 92 673 C 130 711 193 730 279 730 L 550 730 L 550 710 C 550 705 548 702 545 700 C 541 698 534 694 524 690 C 510 684 501 680 497 677 C 493 673 492 666 492 654 L 492 -64 C 492 -72 494 -79 498 -84 C 502 -89 511 -94 524 -100 C 534 -104 541 -108 545 -110 C 548 -112 550 -115 550 -120 Z M 142 528 C 142 504 144 482 149 461 C 153 439 161 421 171 405 C 181 389 195 376 213 366 C 230 356 251 352 276 352 L 276 688 C 248 688 225 683 208 673 C 190 663 177 651 167 636 C 157 621 150 604 147 585 C 143 565 142 546 142 528 Z" unicode="" />
<glyph horiz-adv-x="220" d="M 110 376 C 127 376 141 370 153 359 C 165 347 171 334 171 319 C 171 303 165 290 153 278 C 141 266 127 261 110 261 C 93 261 79 266 68 278 C 57 290 52 303 52 319 C 52 334 57 347 68 359 C 79 370 93 376 110 376 Z" unicode="" />
<glyph horiz-adv-x="418" d="M 230 -47 C 260 -47 284 -52 302 -64 C 319 -76 328 -95 328 -122 C 328 -142 318 -160 298 -177 C 278 -193 246 -202 204 -202 C 185 -202 166 -196 147 -186 C 127 -175 111 -164 97 -154 L 114 -127 C 126 -135 139 -142 154 -150 C 168 -158 184 -162 202 -162 C 223 -162 237 -157 244 -149 C 251 -141 255 -132 255 -123 C 255 -112 251 -103 243 -95 C 235 -87 222 -83 202 -83 C 199 -83 196 -83 192 -83 C 188 -83 184 -83 181 -84 L 219 0 L 251 0 L 230 -47 Z" unicode="" />
<glyph horiz-adv-x="341" d="M 267 336 L 267 315 L 71 315 L 71 335 C 71 343 74 349 82 351 C 90 353 99 356 109 358 C 120 360 127 363 130 366 C 132 368 134 373 134 380 L 134 658 L 64 658 L 64 689 L 178 728 L 206 728 L 206 380 C 206 374 207 369 211 365 C 214 361 221 359 231 358 C 240 356 248 354 256 352 C 263 349 267 344 267 336 Z" unicode="" />
<glyph horiz-adv-x="434" d="M 216 694 C 268 694 312 676 346 640 C 380 604 397 560 397 506 C 397 452 380 407 346 371 C 312 335 268 318 216 318 C 164 318 121 335 87 371 C 53 406 37 451 37 506 C 37 560 53 604 87 640 C 121 676 164 694 216 694 Z M 216 352 C 252 352 279 365 297 393 C 315 421 324 458 324 506 C 324 552 315 590 297 618 C 279 646 252 660 216 660 C 180 660 154 646 136 618 C 118 590 110 552 110 506 C 110 458 118 421 136 393 C 154 365 180 352 216 352 Z" unicode="" />
<glyph horiz-adv-x="459" d="M 399 326 C 403 321 406 316 409 311 C 412 306 414 300 414 294 C 414 287 412 281 409 276 C 406 271 403 266 399 262 L 266 120 L 219 120 L 334 294 L 219 468 L 266 468 L 399 326 Z M 218 326 C 222 321 225 316 228 311 C 231 306 233 300 233 294 C 233 287 231 281 228 276 C 225 271 222 266 218 262 L 85 120 L 38 120 L 154 294 L 38 468 L 85 468 L 218 326 Z" unicode="" />
<glyph horiz-adv-x="726" d="M 558 733 L 611 733 L 197 -10 L 144 -10 L 558 733 Z M 267 336 L 267 315 L 71 315 L 71 335 C 71 343 74 349 82 351 C 90 353 99 356 109 358 C 120 360 127 363 130 366 C 132 368 134 373 134 380 L 134 658 L 64 658 L 64 689 L 178 728 L 206 728 L 206 380 C 206 374 207 369 211 365 C 214 361 221 359 231 358 C 240 356 248 354 256 352 C 263 349 267 344 267 336 Z M 718 153 L 718 108 L 648 108 L 648 48 C 648 44 649 41 653 39 C 656 37 659 35 662 35 C 666 33 671 31 675 29 C 679 27 681 25 681 21 L 681 0 L 542 0 L 542 21 C 542 25 544 29 548 31 C 552 33 557 34 562 36 C 565 36 569 37 573 39 C 577 41 579 44 579 48 L 579 108 L 372 108 L 372 144 L 596 417 L 648 417 L 648 153 L 718 153 Z M 432 153 L 578 153 L 578 332 L 432 153 Z" unicode="" />
<glyph horiz-adv-x="816" d="M 558 733 L 611 733 L 197 -10 L 144 -10 L 558 733 Z M 267 336 L 267 315 L 71 315 L 71 335 C 71 343 74 349 82 351 C 90 353 99 356 109 358 C 120 360 127 363 130 366 C 132 368 134 373 134 380 L 134 658 L 64 658 L 64 689 L 178 728 L 206 728 L 206 380 C 206 374 207 369 211 365 C 214 361 221 359 231 358 C 240 356 248 354 256 352 C 263 349 267 344 267 336 Z M 725 99 L 747 99 L 745 0 L 446 0 L 446 42 C 459 60 479 83 505 111 C 531 139 559 166 588 192 C 612 213 631 233 646 252 C 661 270 669 291 669 314 C 669 334 661 350 646 362 C 631 373 611 379 585 379 C 570 379 556 375 543 369 C 530 363 522 356 519 348 C 525 343 529 337 533 331 C 537 324 539 317 539 311 C 539 300 535 291 528 285 C 520 278 511 275 500 275 C 483 275 471 279 464 287 C 457 295 454 306 454 320 C 454 342 468 364 497 385 C 526 406 561 417 603 417 C 647 417 682 407 708 387 C 734 367 747 341 747 310 C 747 291 742 273 732 256 C 722 239 709 224 695 210 C 681 196 665 183 649 171 C 633 159 619 150 607 142 C 591 131 575 118 557 103 C 539 87 523 73 511 59 L 666 59 C 675 59 683 60 690 64 C 697 67 702 75 705 89 C 706 95 708 98 712 98 C 716 98 720 99 725 99 Z" unicode="" />
<glyph horiz-adv-x="798" d="M 276 545 C 304 536 329 524 350 508 C 370 492 381 469 381 441 C 381 419 375 400 365 384 C 354 368 340 354 324 344 C 307 333 288 325 267 319 C 246 313 225 311 205 311 C 165 311 131 319 104 335 C 77 351 64 370 64 393 C 64 402 67 411 75 421 C 82 431 93 436 109 436 C 124 436 135 432 142 424 C 149 416 153 408 153 402 C 153 394 151 388 149 382 C 146 376 143 370 139 366 C 143 361 151 357 163 354 C 174 350 186 349 200 349 C 234 349 260 358 277 377 C 294 396 303 417 303 439 C 303 469 292 491 272 503 C 251 515 215 521 165 521 L 165 557 C 215 559 247 567 263 581 C 279 595 287 615 287 643 C 287 655 281 667 269 679 C 257 690 238 696 213 696 C 199 696 188 694 179 691 C 169 688 161 685 155 682 C 159 677 162 672 164 667 C 166 661 167 655 167 649 C 167 639 163 630 156 623 C 148 616 138 613 126 613 C 114 613 103 616 95 624 C 87 631 83 641 83 655 C 83 665 87 675 95 685 C 103 695 114 703 128 711 C 141 718 156 724 172 728 C 188 732 205 734 221 734 C 263 734 297 725 325 707 C 352 689 366 667 366 640 C 366 618 357 599 340 584 C 322 568 301 555 276 545 Z M 629 733 L 682 733 L 268 -10 L 215 -10 L 629 733 Z M 789 153 L 789 108 L 719 108 L 719 48 C 719 44 720 41 724 39 C 727 37 730 35 733 35 C 737 33 742 31 746 29 C 750 27 752 25 752 21 L 752 0 L 613 0 L 613 21 C 613 25 615 29 619 31 C 623 33 628 34 633 36 C 636 36 640 37 644 39 C 648 41 650 44 650 48 L 650 108 L 443 108 L 443 144 L 667 417 L 719 417 L 719 153 L 789 153 Z M 503 153 L 649 153 L 649 332 L 503 153 Z" unicode="" />
<glyph horiz-adv-x="440" d="M 239 547 C 255 547 269 541 280 529 C 291 517 297 504 297 488 C 297 472 291 459 280 447 C 269 435 255 430 239 430 C 221 430 206 435 195 447 C 183 459 178 472 178 488 C 178 504 183 517 195 529 C 206 541 221 547 239 547 Z M 341 -24 C 358 -24 372 -29 382 -40 C 392 -50 397 -64 397 -80 C 397 -94 393 -108 385 -122 C 377 -136 366 -149 351 -161 C 336 -172 317 -181 294 -189 C 271 -196 245 -200 215 -200 C 160 -200 116 -186 82 -159 C 48 -131 32 -96 32 -52 C 32 -19 39 8 55 30 C 71 52 92 78 119 106 C 140 128 157 149 169 169 C 181 189 191 208 198 226 C 204 244 209 263 211 282 C 213 300 215 320 216 341 C 216 343 217 347 220 351 C 223 355 229 358 238 358 C 246 358 252 355 255 351 C 258 347 260 343 260 341 C 260 311 256 276 248 237 C 240 198 225 159 203 120 C 192 100 182 82 173 67 C 163 52 155 38 148 26 C 141 13 136 0 132 -11 C 128 -23 127 -37 127 -52 C 127 -99 138 -130 161 -146 C 183 -161 208 -169 235 -169 C 249 -169 265 -165 282 -158 C 298 -151 311 -140 319 -124 C 305 -113 297 -103 295 -95 C 292 -87 291 -80 291 -76 C 291 -58 295 -45 305 -37 C 314 -28 326 -24 341 -24 Z" unicode="" />
<glyph horiz-adv-x="700" d="M 309 926 L 453 803 L 436 790 L 265 864 C 249 870 237 878 230 886 C 222 894 219 902 219 910 C 219 920 222 928 228 936 C 234 944 244 948 257 948 C 263 948 271 946 280 943 C 288 940 298 934 309 926 Z M 708 22 L 708 0 L 488 0 L 488 16 C 488 20 491 24 498 27 C 504 30 511 33 517 36 C 524 38 531 41 538 45 C 544 49 548 53 548 58 C 548 62 546 69 543 77 C 539 85 536 93 534 99 L 487 212 L 177 212 L 130 99 C 127 93 124 87 122 79 C 119 71 118 65 118 61 C 118 55 121 50 127 45 C 133 40 141 36 152 33 C 162 29 169 26 174 23 C 179 20 182 16 182 11 L 182 0 L -9 0 L -9 15 C -9 20 -6 24 -2 27 C 1 30 6 33 11 36 C 23 44 34 52 42 61 C 50 69 59 82 67 100 L 307 635 L 286 680 C 284 682 283 684 283 686 C 282 687 282 689 282 692 C 282 694 282 695 284 696 C 285 697 287 698 289 699 C 299 703 310 709 320 716 C 330 723 339 730 349 738 C 349 738 350 739 351 740 C 351 740 353 741 355 741 C 357 741 359 740 361 738 C 363 736 364 735 365 733 L 638 78 C 641 70 646 62 652 55 C 658 47 667 42 678 38 C 691 33 699 30 703 29 C 706 28 708 26 708 22 Z M 195 254 L 470 254 L 336 581 L 195 254 Z" unicode="" />
<glyph horiz-adv-x="700" d="M 431 948 C 443 948 453 944 459 936 C 465 928 469 920 469 910 C 469 902 465 894 458 886 C 450 878 439 870 423 864 L 252 790 L 235 803 L 379 926 C 389 934 399 940 408 943 C 416 946 424 948 431 948 Z M 708 22 L 708 0 L 488 0 L 488 16 C 488 20 491 24 498 27 C 504 30 511 33 517 36 C 524 38 531 41 538 45 C 544 49 548 53 548 58 C 548 62 546 69 543 77 C 539 85 536 93 534 99 L 487 212 L 177 212 L 130 99 C 127 93 124 87 122 79 C 119 71 118 65 118 61 C 118 55 121 50 127 45 C 133 40 141 36 152 33 C 162 29 169 26 174 23 C 179 20 182 16 182 11 L 182 0 L -9 0 L -9 15 C -9 20 -6 24 -2 27 C 1 30 6 33 11 36 C 23 44 34 52 42 61 C 50 69 59 82 67 100 L 307 635 L 286 680 C 284 682 283 684 283 686 C 282 687 282 689 282 692 C 282 694 282 695 284 696 C 285 697 287 698 289 699 C 299 703 310 709 320 716 C 330 723 339 730 349 738 C 349 738 350 739 351 740 C 351 740 353 741 355 741 C 357 741 359 740 361 738 C 363 736 364 735 365 733 L 638 78 C 641 70 646 62 652 55 C 658 47 667 42 678 38 C 691 33 699 30 703 29 C 706 28 708 26 708 22 Z M 195 254 L 470 254 L 336 581 L 195 254 Z" unicode="" />
<glyph horiz-adv-x="700" d="M 376 939 L 511 776 L 481 776 L 346 877 L 210 776 L 181 776 L 316 939 L 376 939 Z M 708 22 L 708 0 L 488 0 L 488 16 C 488 20 491 24 498 27 C 504 30 511 33 517 36 C 524 38 531 41 538 45 C 544 49 548 53 548 58 C 548 62 546 69 543 77 C 539 85 536 93 534 99 L 487 212 L 177 212 L 130 99 C 127 93 124 87 122 79 C 119 71 118 65 118 61 C 118 55 121 50 127 45 C 133 40 141 36 152 33 C 162 29 169 26 174 23 C 179 20 182 16 182 11 L 182 0 L -9 0 L -9 15 C -9 20 -6 24 -2 27 C 1 30 6 33 11 36 C 23 44 34 52 42 61 C 50 69 59 82 67 100 L 307 635 L 286 680 C 284 682 283 684 283 686 C 282 687 282 689 282 692 C 282 694 282 695 284 696 C 285 697 287 698 289 699 C 299 703 310 709 320 716 C 330 723 339 730 349 738 C 349 738 350 739 351 740 C 351 740 353 741 355 741 C 357 741 359 740 361 738 C 363 736 364 735 365 733 L 638 78 C 641 70 646 62 652 55 C 658 47 667 42 678 38 C 691 33 699 30 703 29 C 706 28 708 26 708 22 Z M 195 254 L 470 254 L 336 581 L 195 254 Z" unicode="" />
<glyph horiz-adv-x="700" d="M 487 910 L 515 910 C 513 880 503 855 483 835 C 463 815 438 806 410 806 C 397 806 385 807 375 810 C 365 813 350 819 332 829 C 320 835 308 842 296 848 C 283 854 270 857 257 857 C 241 857 229 851 219 840 C 209 829 203 817 201 803 L 173 803 C 173 833 184 857 204 877 C 224 897 249 907 278 907 C 294 907 308 905 318 901 C 328 897 340 892 355 885 C 365 880 377 874 391 867 C 405 859 417 856 429 856 C 445 856 458 861 468 872 C 478 883 485 896 487 910 Z M 708 22 L 708 0 L 488 0 L 488 16 C 488 20 491 24 498 27 C 504 30 511 33 517 36 C 524 38 531 41 538 45 C 544 49 548 53 548 58 C 548 62 546 69 543 77 C 539 85 536 93 534 99 L 487 212 L 177 212 L 130 99 C 127 93 124 87 122 79 C 119 71 118 65 118 61 C 118 55 121 50 127 45 C 133 40 141 36 152 33 C 162 29 169 26 174 23 C 179 20 182 16 182 11 L 182 0 L -9 0 L -9 15 C -9 20 -6 24 -2 27 C 1 30 6 33 11 36 C 23 44 34 52 42 61 C 50 69 59 82 67 100 L 307 635 L 286 680 C 284 682 283 684 283 686 C 282 687 282 689 282 692 C 282 694 282 695 284 696 C 285 697 287 698 289 699 C 299 703 310 709 320 716 C 330 723 339 730 349 738 C 349 738 350 739 351 740 C 351 740 353 741 355 741 C 357 741 359 740 361 738 C 363 736 364 735 365 733 L 638 78 C 641 70 646 62 652 55 C 658 47 667 42 678 38 C 691 33 699 30 703 29 C 706 28 708 26 708 22 Z M 195 254 L 470 254 L 336 581 L 195 254 Z" unicode="" />
<glyph horiz-adv-x="700" d="M 456 905 C 470 905 483 899 493 889 C 503 879 508 867 508 854 C 508 840 503 828 493 818 C 483 808 470 803 456 803 C 441 803 429 808 419 818 C 409 828 404 840 404 854 C 404 867 409 879 419 889 C 429 899 441 905 456 905 Z M 227 905 C 241 905 254 899 264 889 C 274 879 279 867 279 854 C 279 840 274 828 264 818 C 254 808 241 803 227 803 C 212 803 200 808 190 818 C 180 828 175 840 175 854 C 175 867 180 879 190 889 C 200 899 212 905 227 905 Z M 708 22 L 708 0 L 488 0 L 488 16 C 488 20 491 24 498 27 C 504 30 511 33 517 36 C 524 38 531 41 538 45 C 544 49 548 53 548 58 C 548 62 546 69 543 77 C 539 85 536 93 534 99 L 487 212 L 177 212 L 130 99 C 127 93 124 87 122 79 C 119 71 118 65 118 61 C 118 55 121 50 127 45 C 133 40 141 36 152 33 C 162 29 169 26 174 23 C 179 20 182 16 182 11 L 182 0 L -9 0 L -9 15 C -9 20 -6 24 -2 27 C 1 30 6 33 11 36 C 23 44 34 52 42 61 C 50 69 59 82 67 100 L 307 635 L 286 680 C 284 682 283 684 283 686 C 282 687 282 689 282 692 C 282 694 282 695 284 696 C 285 697 287 698 289 699 C 299 703 310 709 320 716 C 330 723 339 730 349 738 C 349 738 350 739 351 740 C 351 740 353 741 355 741 C 357 741 359 740 361 738 C 363 736 364 735 365 733 L 638 78 C 641 70 646 62 652 55 C 658 47 667 42 678 38 C 691 33 699 30 703 29 C 706 28 708 26 708 22 Z M 195 254 L 470 254 L 336 581 L 195 254 Z" unicode="" />
<glyph horiz-adv-x="700" d="M 346 992 C 381 992 410 981 432 961 C 454 940 466 914 466 883 C 466 851 454 825 432 805 C 410 784 381 774 346 774 C 310 774 281 784 259 805 C 236 825 225 851 225 883 C 225 913 236 939 259 960 C 281 981 310 992 346 992 Z M 346 798 C 366 798 382 805 394 820 C 405 835 411 856 411 883 C 411 909 405 930 394 945 C 382 960 366 968 346 968 C 325 968 309 960 298 945 C 286 930 281 909 281 883 C 281 856 286 835 298 820 C 309 805 325 798 346 798 Z M 708 22 L 708 0 L 488 0 L 488 16 C 488 20 491 24 498 27 C 504 30 511 33 517 36 C 524 38 531 41 538 45 C 544 49 548 53 548 58 C 548 62 546 69 543 77 C 539 85 536 93 534 99 L 487 212 L 177 212 L 130 99 C 127 93 124 87 122 79 C 119 71 118 65 118 61 C 118 55 121 50 127 45 C 133 40 141 36 152 33 C 162 29 169 26 174 23 C 179 20 182 16 182 11 L 182 0 L -9 0 L -9 15 C -9 20 -6 24 -2 27 C 1 30 6 33 11 36 C 23 44 34 52 42 61 C 50 69 59 82 67 100 L 307 635 L 286 680 C 284 682 283 684 283 686 C 282 687 282 689 282 692 C 282 694 282 695 284 696 C 285 697 287 698 289 699 C 299 703 310 709 320 716 C 330 723 339 730 349 738 C 349 738 350 739 351 740 C 351 740 353 741 355 741 C 357 741 359 740 361 738 C 363 736 364 735 365 733 L 638 78 C 641 70 646 62 652 55 C 658 47 667 42 678 38 C 691 33 699 30 703 29 C 706 28 708 26 708 22 Z M 195 254 L 470 254 L 336 581 L 195 254 Z" unicode="" />
<glyph horiz-adv-x="979" d="M 957 156 L 957 0 L 415 0 L 415 22 C 415 26 417 29 421 30 C 425 31 434 34 446 39 C 460 44 469 48 473 51 C 476 53 478 60 478 71 L 478 352 L 252 352 L 135 99 C 132 93 129 87 126 79 C 123 71 122 65 122 61 C 122 55 124 50 130 45 C 136 40 144 36 155 33 C 165 29 172 26 177 23 C 182 20 184 16 184 11 L 184 0 L -6 0 L -6 15 C -5 20 -2 24 1 27 C 5 30 10 33 15 36 C 27 44 38 52 47 61 C 56 69 65 82 73 100 L 314 609 C 318 618 323 628 327 640 C 331 652 334 660 334 664 C 334 670 332 675 328 679 C 324 683 316 687 302 691 C 289 695 281 697 277 699 C 273 700 272 703 272 708 L 272 730 L 813 730 C 827 730 845 731 865 734 C 885 736 899 738 909 739 L 909 599 L 887 599 C 879 599 873 600 869 603 C 865 606 863 610 861 615 C 855 630 849 643 845 653 C 841 663 835 670 829 676 C 823 681 814 685 804 687 C 794 689 780 690 763 690 L 569 690 L 569 393 L 686 393 C 705 393 717 397 723 406 C 729 415 735 427 742 442 C 744 447 747 452 751 456 C 754 460 760 462 769 462 L 788 462 L 788 287 L 766 287 C 759 287 754 289 750 293 C 746 297 742 302 740 308 C 732 324 725 336 719 342 C 713 348 702 352 688 352 L 569 352 L 569 40 L 813 40 C 841 40 862 47 875 63 C 887 79 900 103 913 136 C 915 140 917 145 919 149 C 921 153 925 156 932 156 L 957 156 Z M 271 393 L 478 392 L 478 615 C 478 639 475 658 471 672 C 467 686 455 693 437 693 C 422 693 410 685 401 669 C 391 653 382 635 373 614 L 271 393 Z" unicode="" />
<glyph horiz-adv-x="642" d="M 612 169 L 642 143 C 634 128 623 112 607 95 C 591 77 572 61 550 46 C 528 30 502 17 473 7 C 443 -3 412 -9 378 -11 L 360 -48 C 390 -48 416 -53 436 -65 C 456 -77 466 -96 466 -123 C 466 -144 455 -163 434 -179 C 413 -195 382 -203 340 -203 C 310 -203 285 -197 267 -186 C 249 -174 234 -164 222 -154 L 240 -127 C 250 -135 264 -143 280 -151 C 296 -159 313 -163 332 -163 C 352 -163 366 -159 376 -153 C 386 -146 391 -136 391 -124 C 391 -113 386 -104 378 -96 C 369 -88 354 -84 334 -84 C 330 -84 326 -84 322 -84 C 318 -84 314 -85 311 -86 L 347 -11 C 294 -8 248 4 208 26 C 168 48 136 77 110 111 C 84 145 64 184 51 228 C 38 272 32 316 32 362 C 32 424 41 479 61 527 C 81 574 106 613 137 645 C 168 677 203 701 242 717 C 281 733 320 741 358 741 C 389 741 418 737 445 730 C 471 722 500 710 531 694 C 535 691 540 689 544 687 C 548 685 551 684 555 684 C 557 684 560 684 563 686 C 565 688 568 690 571 693 C 573 695 575 698 577 700 C 578 702 580 703 582 703 L 603 703 L 603 526 L 574 526 C 570 526 566 527 563 529 C 560 531 558 534 557 539 C 543 585 521 623 489 655 C 457 686 417 702 370 702 C 344 702 318 695 290 683 C 262 671 237 651 214 625 C 191 598 172 563 157 521 C 141 478 134 426 134 366 C 134 312 140 264 152 222 C 164 180 181 146 203 118 C 224 90 249 69 278 55 C 307 41 338 34 371 34 C 405 34 436 39 464 50 C 491 60 515 73 535 88 C 555 102 571 117 584 133 C 596 148 606 160 612 169 Z" unicode="" />
<glyph horiz-adv-x="602" d="M 292 926 L 436 803 L 419 790 L 248 864 C 232 870 220 878 213 886 C 205 894 202 902 202 910 C 202 920 205 928 211 936 C 217 944 227 948 240 948 C 246 948 254 946 263 943 C 271 940 281 934 292 926 Z M 580 156 L 580 0 L 34 0 L 34 22 C 34 26 36 29 40 30 C 44 31 53 34 65 39 C 79 44 88 48 92 51 C 95 53 97 60 97 71 L 97 660 C 97 668 95 674 91 678 C 87 682 79 687 65 691 C 52 695 44 697 40 699 C 36 700 35 703 35 708 L 35 730 L 436 730 C 450 730 468 731 488 734 C 508 736 522 738 532 739 L 532 599 L 510 599 C 502 599 496 600 492 603 C 488 606 486 610 484 615 C 478 630 472 643 468 653 C 464 663 458 670 452 676 C 446 681 437 685 427 687 C 417 689 403 690 386 690 L 188 690 L 188 395 L 309 395 C 328 395 340 399 346 408 C 352 417 358 429 365 444 C 367 449 370 454 374 458 C 377 462 383 464 392 464 L 411 464 L 411 289 L 389 289 C 382 289 377 291 373 295 C 369 299 365 304 363 310 C 355 326 348 338 342 344 C 336 350 325 354 311 354 L 188 354 L 188 40 L 436 40 C 464 40 485 47 498 63 C 510 79 523 103 536 136 C 538 140 540 145 542 149 C 544 153 548 156 555 156 L 580 156 Z" unicode="" />
<glyph horiz-adv-x="602" d="M 394 948 C 406 948 416 944 422 936 C 428 928 432 920 432 910 C 432 902 428 894 421 886 C 413 878 402 870 386 864 L 215 790 L 198 803 L 342 926 C 352 934 362 940 371 943 C 379 946 387 948 394 948 Z M 580 156 L 580 0 L 34 0 L 34 22 C 34 26 36 29 40 30 C 44 31 53 34 65 39 C 79 44 88 48 92 51 C 95 53 97 60 97 71 L 97 660 C 97 668 95 674 91 678 C 87 682 79 687 65 691 C 52 695 44 697 40 699 C 36 700 35 703 35 708 L 35 730 L 436 730 C 450 730 468 731 488 734 C 508 736 522 738 532 739 L 532 599 L 510 599 C 502 599 496 600 492 603 C 488 606 486 610 484 615 C 478 630 472 643 468 653 C 464 663 458 670 452 676 C 446 681 437 685 427 687 C 417 689 403 690 386 690 L 188 690 L 188 395 L 309 395 C 328 395 340 399 346 408 C 352 417 358 429 365 444 C 367 449 370 454 374 458 C 377 462 383 464 392 464 L 411 464 L 411 289 L 389 289 C 382 289 377 291 373 295 C 369 299 365 304 363 310 C 355 326 348 338 342 344 C 336 350 325 354 311 354 L 188 354 L 188 40 L 436 40 C 464 40 485 47 498 63 C 510 79 523 103 536 136 C 538 140 540 145 542 149 C 544 153 548 156 555 156 L 580 156 Z" unicode="" />
<glyph horiz-adv-x="602" d="M 342 946 L 477 783 L 447 783 L 312 884 L 176 783 L 147 783 L 282 946 L 342 946 Z M 580 156 L 580 0 L 34 0 L 34 22 C 34 26 36 29 40 30 C 44 31 53 34 65 39 C 79 44 88 48 92 51 C 95 53 97 60 97 71 L 97 660 C 97 668 95 674 91 678 C 87 682 79 687 65 691 C 52 695 44 697 40 699 C 36 700 35 703 35 708 L 35 730 L 436 730 C 450 730 468 731 488 734 C 508 736 522 738 532 739 L 532 599 L 510 599 C 502 599 496 600 492 603 C 488 606 486 610 484 615 C 478 630 472 643 468 653 C 464 663 458 670 452 676 C 446 681 437 685 427 687 C 417 689 403 690 386 690 L 188 690 L 188 395 L 309 395 C 328 395 340 399 346 408 C 352 417 358 429 365 444 C 367 449 370 454 374 458 C 377 462 383 464 392 464 L 411 464 L 411 289 L 389 289 C 382 289 377 291 373 295 C 369 299 365 304 363 310 C 355 326 348 338 342 344 C 336 350 325 354 311 354 L 188 354 L 188 40 L 436 40 C 464 40 485 47 498 63 C 510 79 523 103 536 136 C 538 140 540 145 542 149 C 544 153 548 156 555 156 L 580 156 Z" unicode="" />
<glyph horiz-adv-x="602" d="M 424 909 C 438 909 451 903 461 893 C 471 883 476 871 476 858 C 476 844 471 832 461 822 C 451 812 438 807 424 807 C 409 807 397 812 387 822 C 377 832 372 844 372 858 C 372 871 377 883 387 893 C 397 903 409 909 424 909 Z M 195 909 C 209 909 222 903 232 893 C 242 883 247 871 247 858 C 247 844 242 832 232 822 C 222 812 209 807 195 807 C 180 807 168 812 158 822 C 148 832 143 844 143 858 C 143 871 148 883 158 893 C 168 903 180 909 195 909 Z M 580 156 L 580 0 L 34 0 L 34 22 C 34 26 36 29 40 30 C 44 31 53 34 65 39 C 79 44 88 48 92 51 C 95 53 97 60 97 71 L 97 660 C 97 668 95 674 91 678 C 87 682 79 687 65 691 C 52 695 44 697 40 699 C 36 700 35 703 35 708 L 35 730 L 436 730 C 450 730 468 731 488 734 C 508 736 522 738 532 739 L 532 599 L 510 599 C 502 599 496 600 492 603 C 488 606 486 610 484 615 C 478 630 472 643 468 653 C 464 663 458 670 452 676 C 446 681 437 685 427 687 C 417 689 403 690 386 690 L 188 690 L 188 395 L 309 395 C 328 395 340 399 346 408 C 352 417 358 429 365 444 C 367 449 370 454 374 458 C 377 462 383 464 392 464 L 411 464 L 411 289 L 389 289 C 382 289 377 291 373 295 C 369 299 365 304 363 310 C 355 326 348 338 342 344 C 336 350 325 354 311 354 L 188 354 L 188 40 L 436 40 C 464 40 485 47 498 63 C 510 79 523 103 536 136 C 538 140 540 145 542 149 C 544 153 548 156 555 156 L 580 156 Z" unicode="" />
<glyph horiz-adv-x="295" d="M 130 926 L 274 803 L 257 790 L 86 864 C 70 870 58 878 51 886 C 43 894 40 902 40 910 C 40 920 43 928 49 936 C 55 944 65 948 78 948 C 84 948 92 946 101 943 C 109 940 119 934 130 926 Z M 254 22 L 254 0 L 40 0 L 40 22 C 40 26 42 29 46 30 C 50 31 58 34 70 39 C 84 44 93 48 97 51 C 100 53 102 60 102 71 L 102 660 C 102 668 100 674 96 678 C 92 682 84 687 70 691 C 57 695 49 697 45 699 C 41 700 40 703 40 708 L 40 730 L 254 730 L 254 708 C 254 703 252 700 248 698 C 244 696 237 694 227 691 C 213 686 203 682 199 680 C 195 677 193 670 193 660 L 193 73 C 193 60 195 52 200 50 C 205 47 214 43 227 39 C 237 35 244 32 248 31 C 252 29 254 26 254 22 Z" unicode="" />
<glyph horiz-adv-x="295" d="M 233 948 C 245 948 255 944 261 936 C 267 928 271 920 271 910 C 271 902 267 894 260 886 C 252 878 241 870 225 864 L 54 790 L 37 803 L 181 926 C 191 934 201 940 210 943 C 218 946 226 948 233 948 Z M 254 22 L 254 0 L 40 0 L 40 22 C 40 26 42 29 46 30 C 50 31 58 34 70 39 C 84 44 93 48 97 51 C 100 53 102 60 102 71 L 102 660 C 102 668 100 674 96 678 C 92 682 84 687 70 691 C 57 695 49 697 45 699 C 41 700 40 703 40 708 L 40 730 L 254 730 L 254 708 C 254 703 252 700 248 698 C 244 696 237 694 227 691 C 213 686 203 682 199 680 C 195 677 193 670 193 660 L 193 73 C 193 60 195 52 200 50 C 205 47 214 43 227 39 C 237 35 244 32 248 31 C 252 29 254 26 254 22 Z" unicode="" />
<glyph horiz-adv-x="295" d="M 177 946 L 299 783 L 268 783 L 148 884 L 27 783 L -3 783 L 119 946 L 177 946 Z M 254 22 L 254 0 L 40 0 L 40 22 C 40 26 42 29 46 30 C 50 31 58 34 70 39 C 84 44 93 48 97 51 C 100 53 102 60 102 71 L 102 660 C 102 668 100 674 96 678 C 92 682 84 687 70 691 C 57 695 49 697 45 699 C 41 700 40 703 40 708 L 40 730 L 254 730 L 254 708 C 254 703 252 700 248 698 C 244 696 237 694 227 691 C 213 686 203 682 199 680 C 195 677 193 670 193 660 L 193 73 C 193 60 195 52 200 50 C 205 47 214 43 227 39 C 237 35 244 32 248 31 C 252 29 254 26 254 22 Z" unicode="" />
<glyph horiz-adv-x="295" d="M 247 909 C 261 909 274 903 284 893 C 294 883 299 871 299 858 C 299 844 294 832 284 822 C 274 812 261 807 247 807 C 232 807 220 812 210 822 C 200 832 195 844 195 858 C 195 871 200 883 210 893 C 220 903 232 909 247 909 Z M 49 909 C 63 909 76 903 86 893 C 96 883 101 871 101 858 C 101 844 96 832 86 822 C 76 812 63 807 49 807 C 34 807 22 812 12 822 C 2 832 -3 844 -3 858 C -3 871 2 883 12 893 C 22 903 34 909 49 909 Z M 254 22 L 254 0 L 40 0 L 40 22 C 40 26 42 29 46 30 C 50 31 58 34 70 39 C 84 44 93 48 97 51 C 100 53 102 60 102 71 L 102 660 C 102 668 100 674 96 678 C 92 682 84 687 70 691 C 57 695 49 697 45 699 C 41 700 40 703 40 708 L 40 730 L 254 730 L 254 708 C 254 703 252 700 248 698 C 244 696 237 694 227 691 C 213 686 203 682 199 680 C 195 677 193 670 193 660 L 193 73 C 193 60 195 52 200 50 C 205 47 214 43 227 39 C 237 35 244 32 248 31 C 252 29 254 26 254 22 Z" unicode="" />
<glyph horiz-adv-x="738" d="M 526 915 L 554 915 C 552 885 542 860 522 840 C 502 820 477 811 449 811 C 436 811 424 812 414 815 C 404 818 389 824 371 834 C 359 840 347 847 335 853 C 322 859 309 862 296 862 C 280 862 268 856 258 845 C 248 834 242 822 240 808 L 212 808 C 212 838 223 862 243 882 C 263 902 288 912 317 912 C 333 912 347 910 357 906 C 367 902 379 897 394 890 C 404 885 416 879 430 872 C 444 864 456 861 468 861 C 484 861 497 866 507 877 C 517 888 524 901 526 915 Z M 709 730 L 709 705 C 709 702 706 699 702 697 C 697 695 689 690 679 682 C 667 673 658 664 653 654 C 647 644 645 635 645 625 L 645 -4 L 610 -4 L 151 651 L 151 107 C 151 98 153 88 157 76 C 161 64 168 54 179 46 C 187 39 195 35 201 33 C 207 31 211 28 211 24 L 211 0 L 34 0 L 34 24 C 34 28 36 30 40 32 C 44 34 52 39 64 49 C 74 57 82 66 88 76 C 94 85 97 95 97 106 L 97 660 C 97 668 95 674 91 678 C 87 682 79 687 65 691 C 52 695 44 697 40 699 C 36 700 35 703 35 708 L 35 730 L 201 730 L 591 172 L 591 624 C 591 634 588 645 583 655 C 578 665 570 674 560 682 C 549 690 541 695 536 697 C 530 699 528 701 528 704 L 528 730 L 709 730 Z" unicode="" />
<glyph horiz-adv-x="748" d="M 348 926 L 492 803 L 475 790 L 304 864 C 288 870 276 878 269 886 C 261 894 258 902 258 910 C 258 920 261 928 267 936 C 273 944 283 948 296 948 C 302 948 310 946 319 943 C 327 940 337 934 348 926 Z M 375 741 C 425 741 472 731 514 713 C 556 694 591 668 621 635 C 651 601 674 561 691 515 C 707 469 716 419 716 365 C 716 310 707 260 691 214 C 674 168 651 128 621 95 C 591 61 556 35 514 17 C 472 -1 425 -11 375 -11 C 324 -11 277 -1 235 16 C 193 34 157 60 127 93 C 97 126 73 166 57 212 C 40 258 32 309 32 365 C 32 419 40 469 57 515 C 73 561 97 601 127 635 C 157 668 193 694 235 713 C 277 731 324 741 375 741 Z M 375 28 C 445 28 503 56 547 113 C 591 170 614 254 614 365 C 614 473 591 557 547 615 C 503 673 445 702 375 702 C 303 702 245 673 201 615 C 156 557 134 473 134 365 C 134 256 156 173 201 115 C 245 57 303 28 375 28 Z" unicode="" />
<glyph horiz-adv-x="748" d="M 465 948 C 477 948 487 944 493 936 C 499 928 503 920 503 910 C 503 902 499 894 492 886 C 484 878 473 870 457 864 L 286 790 L 269 803 L 413 926 C 423 934 433 940 442 943 C 450 946 458 948 465 948 Z M 375 741 C 425 741 472 731 514 713 C 556 694 591 668 621 635 C 651 601 674 561 691 515 C 707 469 716 419 716 365 C 716 310 707 260 691 214 C 674 168 651 128 621 95 C 591 61 556 35 514 17 C 472 -1 425 -11 375 -11 C 324 -11 277 -1 235 16 C 193 34 157 60 127 93 C 97 126 73 166 57 212 C 40 258 32 309 32 365 C 32 419 40 469 57 515 C 73 561 97 601 127 635 C 157 668 193 694 235 713 C 277 731 324 741 375 741 Z M 375 28 C 445 28 503 56 547 113 C 591 170 614 254 614 365 C 614 473 591 557 547 615 C 503 673 445 702 375 702 C 303 702 245 673 201 615 C 156 557 134 473 134 365 C 134 256 156 173 201 115 C 245 57 303 28 375 28 Z" unicode="" />
<glyph horiz-adv-x="748" d="M 403 946 L 538 783 L 508 783 L 373 884 L 237 783 L 208 783 L 343 946 L 403 946 Z M 375 741 C 425 741 472 731 514 713 C 556 694 591 668 621 635 C 651 601 674 561 691 515 C 707 469 716 419 716 365 C 716 310 707 260 691 214 C 674 168 651 128 621 95 C 591 61 556 35 514 17 C 472 -1 425 -11 375 -11 C 324 -11 277 -1 235 16 C 193 34 157 60 127 93 C 97 126 73 166 57 212 C 40 258 32 309 32 365 C 32 419 40 469 57 515 C 73 561 97 601 127 635 C 157 668 193 694 235 713 C 277 731 324 741 375 741 Z M 375 28 C 445 28 503 56 547 113 C 591 170 614 254 614 365 C 614 473 591 557 547 615 C 503 673 445 702 375 702 C 303 702 245 673 201 615 C 156 557 134 473 134 365 C 134 256 156 173 201 115 C 245 57 303 28 375 28 Z" unicode="" />
<glyph horiz-adv-x="748" d="M 517 915 L 545 915 C 543 885 533 860 513 840 C 493 820 468 811 440 811 C 427 811 415 812 405 815 C 395 818 380 824 362 834 C 350 840 338 847 326 853 C 313 859 300 862 287 862 C 271 862 259 856 249 845 C 239 834 233 822 231 808 L 203 808 C 203 838 214 862 234 882 C 254 902 279 912 308 912 C 324 912 338 910 348 906 C 358 902 370 897 385 890 C 395 885 407 879 421 872 C 435 864 447 861 459 861 C 475 861 488 866 498 877 C 508 888 515 901 517 915 Z M 375 741 C 425 741 472 731 514 713 C 556 694 591 668 621 635 C 651 601 674 561 691 515 C 707 469 716 419 716 365 C 716 310 707 260 691 214 C 674 168 651 128 621 95 C 591 61 556 35 514 17 C 472 -1 425 -11 375 -11 C 324 -11 277 -1 235 16 C 193 34 157 60 127 93 C 97 126 73 166 57 212 C 40 258 32 309 32 365 C 32 419 40 469 57 515 C 73 561 97 601 127 635 C 157 668 193 694 235 713 C 277 731 324 741 375 741 Z M 375 28 C 445 28 503 56 547 113 C 591 170 614 254 614 365 C 614 473 591 557 547 615 C 503 673 445 702 375 702 C 303 702 245 673 201 615 C 156 557 134 473 134 365 C 134 256 156 173 201 115 C 245 57 303 28 375 28 Z" unicode="" />
<glyph horiz-adv-x="748" d="M 488 909 C 502 909 515 903 525 893 C 535 883 540 871 540 858 C 540 844 535 832 525 822 C 515 812 502 807 488 807 C 473 807 461 812 451 822 C 441 832 436 844 436 858 C 436 871 441 883 451 893 C 461 903 473 909 488 909 Z M 259 909 C 273 909 286 903 296 893 C 306 883 311 871 311 858 C 311 844 306 832 296 822 C 286 812 273 807 259 807 C 244 807 232 812 222 822 C 212 832 207 844 207 858 C 207 871 212 883 222 893 C 232 903 244 909 259 909 Z M 375 741 C 425 741 472 731 514 713 C 556 694 591 668 621 635 C 651 601 674 561 691 515 C 707 469 716 419 716 365 C 716 310 707 260 691 214 C 674 168 651 128 621 95 C 591 61 556 35 514 17 C 472 -1 425 -11 375 -11 C 324 -11 277 -1 235 16 C 193 34 157 60 127 93 C 97 126 73 166 57 212 C 40 258 32 309 32 365 C 32 419 40 469 57 515 C 73 561 97 601 127 635 C 157 668 193 694 235 713 C 277 731 324 741 375 741 Z M 375 28 C 445 28 503 56 547 113 C 591 170 614 254 614 365 C 614 473 591 557 547 615 C 503 673 445 702 375 702 C 303 702 245 673 201 615 C 156 557 134 473 134 365 C 134 256 156 173 201 115 C 245 57 303 28 375 28 Z" unicode="" />
<glyph horiz-adv-x="766" d="M 419 293 L 616 101 L 580 66 L 383 258 L 186 66 L 149 101 L 347 293 L 149 484 L 185 519 L 383 328 L 580 520 L 616 484 L 419 293 Z" unicode="" />
<glyph horiz-adv-x="748" d="M 566 682 C 612 649 648 605 675 550 C 702 495 716 433 716 365 C 716 310 707 260 691 214 C 674 168 651 128 621 95 C 591 61 556 35 514 17 C 472 -1 425 -11 375 -11 C 346 -11 318 -7 292 -1 C 266 4 241 14 218 26 L 179 -48 L 132 -48 L 183 48 C 137 80 100 123 73 178 C 45 232 32 295 32 365 C 32 419 40 469 57 515 C 73 561 97 601 127 635 C 157 668 193 694 235 713 C 277 731 324 741 375 741 C 403 741 431 737 457 731 C 483 725 507 716 530 704 L 564 768 L 611 768 L 566 682 Z M 210 98 L 507 660 C 488 674 467 684 445 691 C 423 698 399 702 375 702 C 339 702 307 694 277 680 C 247 665 221 643 200 615 C 178 587 162 551 150 509 C 138 467 132 419 132 365 C 132 305 138 252 152 207 C 166 162 185 126 210 98 Z M 375 28 C 410 28 442 35 472 49 C 502 63 527 85 548 113 C 569 141 586 176 598 218 C 610 260 616 309 616 365 C 616 425 609 477 595 523 C 581 568 562 605 538 633 L 242 71 C 260 56 281 45 303 38 C 325 31 349 28 375 28 Z" unicode="" />
<glyph horiz-adv-x="729" d="M 358 926 L 502 803 L 485 790 L 314 864 C 298 870 286 878 279 886 C 271 894 268 902 268 910 C 268 920 271 928 277 936 C 283 944 293 948 306 948 C 312 948 320 946 329 943 C 337 940 347 934 358 926 Z M 707 730 L 707 705 C 707 702 704 699 698 696 C 692 693 685 688 676 682 C 664 674 656 665 651 657 C 645 649 643 640 643 630 L 643 259 C 643 225 637 192 627 160 C 616 127 600 98 578 73 C 556 48 528 28 495 12 C 461 -3 422 -11 378 -11 C 328 -11 285 -4 249 8 C 213 21 183 39 160 62 C 136 84 119 111 107 143 C 95 174 90 208 90 244 L 90 660 C 90 668 88 674 84 678 C 80 682 72 687 58 691 C 45 695 37 697 33 699 C 29 700 28 703 28 708 L 28 730 L 242 730 L 242 708 C 242 703 240 700 236 698 C 232 696 225 694 215 691 C 201 686 191 682 187 680 C 183 677 181 670 181 660 L 181 253 C 181 189 198 139 233 103 C 267 66 317 48 381 48 C 452 48 504 67 538 105 C 572 143 589 197 589 266 L 589 629 C 589 639 586 649 581 658 C 576 666 568 675 556 683 C 546 689 538 694 533 697 C 527 699 525 702 525 705 L 525 730 L 707 730 Z" unicode="" />
<glyph horiz-adv-x="729" d="M 473 948 C 485 948 495 944 501 936 C 507 928 511 920 511 910 C 511 902 507 894 500 886 C 492 878 481 870 465 864 L 294 790 L 277 803 L 421 926 C 431 934 441 940 450 943 C 458 946 466 948 473 948 Z M 707 730 L 707 705 C 707 702 704 699 698 696 C 692 693 685 688 676 682 C 664 674 656 665 651 657 C 645 649 643 640 643 630 L 643 259 C 643 225 637 192 627 160 C 616 127 600 98 578 73 C 556 48 528 28 495 12 C 461 -3 422 -11 378 -11 C 328 -11 285 -4 249 8 C 213 21 183 39 160 62 C 136 84 119 111 107 143 C 95 174 90 208 90 244 L 90 660 C 90 668 88 674 84 678 C 80 682 72 687 58 691 C 45 695 37 697 33 699 C 29 700 28 703 28 708 L 28 730 L 242 730 L 242 708 C 242 703 240 700 236 698 C 232 696 225 694 215 691 C 201 686 191 682 187 680 C 183 677 181 670 181 660 L 181 253 C 181 189 198 139 233 103 C 267 66 317 48 381 48 C 452 48 504 67 538 105 C 572 143 589 197 589 266 L 589 629 C 589 639 586 649 581 658 C 576 666 568 675 556 683 C 546 689 538 694 533 697 C 527 699 525 702 525 705 L 525 730 L 707 730 Z" unicode="" />
<glyph horiz-adv-x="729" d="M 410 946 L 545 783 L 515 783 L 380 884 L 244 783 L 215 783 L 350 946 L 410 946 Z M 707 730 L 707 705 C 707 702 704 699 698 696 C 692 693 685 688 676 682 C 664 674 656 665 651 657 C 645 649 643 640 643 630 L 643 259 C 643 225 637 192 627 160 C 616 127 600 98 578 73 C 556 48 528 28 495 12 C 461 -3 422 -11 378 -11 C 328 -11 285 -4 249 8 C 213 21 183 39 160 62 C 136 84 119 111 107 143 C 95 174 90 208 90 244 L 90 660 C 90 668 88 674 84 678 C 80 682 72 687 58 691 C 45 695 37 697 33 699 C 29 700 28 703 28 708 L 28 730 L 242 730 L 242 708 C 242 703 240 700 236 698 C 232 696 225 694 215 691 C 201 686 191 682 187 680 C 183 677 181 670 181 660 L 181 253 C 181 189 198 139 233 103 C 267 66 317 48 381 48 C 452 48 504 67 538 105 C 572 143 589 197 589 266 L 589 629 C 589 639 586 649 581 658 C 576 666 568 675 556 683 C 546 689 538 694 533 697 C 527 699 525 702 525 705 L 525 730 L 707 730 Z" unicode="" />
<glyph horiz-adv-x="729" d="M 498 909 C 512 909 525 903 535 893 C 545 883 550 871 550 858 C 550 844 545 832 535 822 C 525 812 512 807 498 807 C 483 807 471 812 461 822 C 451 832 446 844 446 858 C 446 871 451 883 461 893 C 471 903 483 909 498 909 Z M 269 909 C 283 909 296 903 306 893 C 316 883 321 871 321 858 C 321 844 316 832 306 822 C 296 812 283 807 269 807 C 254 807 242 812 232 822 C 222 832 217 844 217 858 C 217 871 222 883 232 893 C 242 903 254 909 269 909 Z M 707 730 L 707 705 C 707 702 704 699 698 696 C 692 693 685 688 676 682 C 664 674 656 665 651 657 C 645 649 643 640 643 630 L 643 259 C 643 225 637 192 627 160 C 616 127 600 98 578 73 C 556 48 528 28 495 12 C 461 -3 422 -11 378 -11 C 328 -11 285 -4 249 8 C 213 21 183 39 160 62 C 136 84 119 111 107 143 C 95 174 90 208 90 244 L 90 660 C 90 668 88 674 84 678 C 80 682 72 687 58 691 C 45 695 37 697 33 699 C 29 700 28 703 28 708 L 28 730 L 242 730 L 242 708 C 242 703 240 700 236 698 C 232 696 225 694 215 691 C 201 686 191 682 187 680 C 183 677 181 670 181 660 L 181 253 C 181 189 198 139 233 103 C 267 66 317 48 381 48 C 452 48 504 67 538 105 C 572 143 589 197 589 266 L 589 629 C 589 639 586 649 581 658 C 576 666 568 675 556 683 C 546 689 538 694 533 697 C 527 699 525 702 525 705 L 525 730 L 707 730 Z" unicode="" />
<glyph horiz-adv-x="633" d="M 455 948 C 467 948 477 944 483 936 C 489 928 493 920 493 910 C 493 902 489 894 482 886 C 474 878 463 870 447 864 L 276 790 L 259 803 L 403 926 C 413 934 423 940 432 943 C 440 946 448 948 455 948 Z M 651 730 L 651 713 C 651 707 649 704 646 702 C 642 700 637 697 629 693 C 614 686 603 681 597 677 C 590 673 580 660 567 640 L 365 334 L 365 73 C 365 60 367 52 373 50 C 378 47 387 43 400 39 C 410 35 417 32 421 31 C 425 29 427 26 427 22 L 427 0 L 211 0 L 211 22 C 211 26 213 29 217 30 C 221 31 229 34 241 39 C 255 44 264 48 268 51 C 272 53 274 60 274 71 L 274 330 L 58 651 C 50 661 44 670 38 676 C 32 682 22 687 10 691 C 0 694 -8 696 -12 698 C -16 700 -18 703 -18 708 L -18 730 L 204 730 L 204 717 C 204 711 203 708 201 706 C 199 704 192 701 180 696 C 171 692 164 688 159 686 C 153 684 151 681 151 677 C 151 674 152 670 154 665 C 156 659 159 655 162 651 L 341 379 L 504 632 C 510 642 515 651 519 659 C 522 667 524 672 524 676 C 524 679 521 682 515 685 C 509 688 502 691 494 694 C 482 698 475 701 471 704 C 467 706 465 710 465 715 L 465 730 L 651 730 Z" unicode="" />
<glyph horiz-adv-x="998" d="M 807 345 C 868 322 910 297 934 270 C 957 242 969 211 969 176 C 969 154 964 133 955 111 C 946 89 933 69 915 51 C 897 33 874 18 847 7 C 819 -4 787 -10 750 -10 C 720 -10 692 -7 666 -1 C 639 5 617 11 600 18 C 597 18 594 19 592 21 C 590 22 587 23 585 23 C 581 23 579 22 577 22 C 575 21 572 18 569 14 C 566 10 563 7 561 5 C 558 2 554 1 550 1 L 531 1 L 531 160 L 556 160 C 559 160 562 159 565 158 C 567 156 570 152 573 146 C 591 103 616 72 648 53 C 680 34 714 25 750 25 C 788 25 822 35 851 55 C 879 75 894 106 894 146 C 894 163 890 177 884 189 C 877 201 868 211 858 219 C 847 227 835 235 822 241 C 808 247 795 252 782 257 C 762 263 745 269 731 274 C 717 279 700 285 682 292 C 636 310 603 332 583 359 C 563 385 553 414 553 444 C 553 464 557 484 565 504 C 573 524 584 541 600 556 C 616 571 635 583 659 592 C 683 601 710 606 741 606 C 755 606 772 603 793 599 C 814 595 836 586 858 574 C 860 572 864 571 868 569 C 872 567 876 566 879 566 C 880 566 882 566 884 567 C 886 568 888 570 891 574 C 892 576 893 577 895 578 C 897 579 898 580 900 580 L 919 580 L 919 438 L 892 438 C 888 438 885 439 883 441 C 881 443 879 445 879 448 C 866 488 847 518 821 539 C 795 560 766 571 734 571 C 707 571 682 562 659 546 C 636 530 625 508 625 482 C 625 455 632 434 646 419 C 660 403 681 390 708 380 C 724 373 742 367 761 361 C 779 355 795 349 807 345 Z M 308 345 C 369 322 411 297 435 270 C 458 242 470 211 470 176 C 470 154 465 133 456 111 C 447 89 434 69 416 51 C 398 33 375 18 348 7 C 320 -4 288 -10 251 -10 C 221 -10 193 -7 167 -1 C 140 5 118 11 101 18 C 98 18 95 19 93 21 C 91 22 88 23 86 23 C 82 23 80 22 78 22 C 76 21 73 18 70 14 C 67 10 64 7 62 5 C 59 2 55 1 51 1 L 32 1 L 32 160 L 57 160 C 60 160 63 159 66 158 C 68 156 71 152 74 146 C 92 103 117 72 149 53 C 181 34 215 25 251 25 C 289 25 323 35 352 55 C 380 75 395 106 395 146 C 395 163 391 177 385 189 C 378 201 369 211 359 219 C 348 227 336 235 323 241 C 309 247 296 252 283 257 C 263 263 246 269 232 274 C 218 279 201 285 183 292 C 137 310 104 332 84 359 C 64 385 54 414 54 444 C 54 464 58 484 66 504 C 74 524 85 541 101 556 C 117 571 136 583 160 592 C 184 601 211 606 242 606 C 256 606 273 603 294 599 C 315 595 337 586 359 574 C 361 572 365 571 369 569 C 373 567 377 566 380 566 C 381 566 383 566 385 567 C 387 568 389 570 392 574 C 393 576 394 577 396 578 C 398 579 399 580 401 580 L 420 580 L 420 438 L 393 438 C 389 438 386 439 384 441 C 382 443 380 445 380 448 C 367 488 348 518 322 539 C 296 560 267 571 235 571 C 208 571 183 562 160 546 C 137 530 126 508 126 482 C 126 455 133 434 147 419 C 161 403 182 390 209 380 C 225 373 243 367 262 361 C 280 355 296 349 308 345 Z" unicode="" />
<glyph horiz-adv-x="593" d="M 271 800 L 402 661 L 376 644 L 213 735 C 198 743 187 752 181 761 C 174 769 171 778 171 787 C 171 798 174 808 182 817 C 189 825 199 830 212 830 C 221 830 230 828 239 824 C 247 820 258 812 271 800 Z M 599 20 L 599 0 L 399 0 L 399 15 C 399 18 401 21 407 24 C 412 26 417 29 423 31 C 429 33 436 36 442 39 C 448 42 451 45 451 49 C 451 53 449 58 447 65 C 444 71 441 77 439 83 L 401 173 L 152 173 L 114 83 C 112 79 110 73 107 66 C 104 59 103 54 103 52 C 103 48 106 45 112 41 C 118 37 126 33 135 31 C 143 28 150 25 154 23 C 158 21 160 17 160 13 L 160 0 L -9 0 L -9 14 C -9 18 -6 22 -2 24 C 1 26 5 28 9 31 C 19 37 28 44 36 51 C 44 58 51 69 58 84 L 254 507 L 233 551 C 232 553 231 555 231 556 C 230 557 230 559 230 561 C 230 562 230 563 231 564 C 232 565 234 566 236 567 C 247 571 258 577 268 583 C 278 589 288 596 296 602 C 296 602 297 603 298 604 C 299 604 300 605 302 605 C 304 605 306 604 307 603 C 308 601 309 600 310 598 L 538 66 C 540 59 544 53 550 47 C 555 41 562 36 572 33 C 583 29 590 26 594 25 C 597 24 599 22 599 20 Z M 168 209 L 386 209 L 279 459 L 168 209 Z" unicode="" />
<glyph horiz-adv-x="593" d="M 367 830 C 379 830 389 825 397 817 C 404 808 408 798 408 787 C 408 778 404 769 398 761 C 391 752 380 743 366 735 L 203 644 L 177 661 L 308 800 C 319 812 329 820 339 824 C 348 828 357 830 367 830 Z M 599 20 L 599 0 L 399 0 L 399 15 C 399 18 401 21 407 24 C 412 26 417 29 423 31 C 429 33 436 36 442 39 C 448 42 451 45 451 49 C 451 53 449 58 447 65 C 444 71 441 77 439 83 L 401 173 L 152 173 L 114 83 C 112 79 110 73 107 66 C 104 59 103 54 103 52 C 103 48 106 45 112 41 C 118 37 126 33 135 31 C 143 28 150 25 154 23 C 158 21 160 17 160 13 L 160 0 L -9 0 L -9 14 C -9 18 -6 22 -2 24 C 1 26 5 28 9 31 C 19 37 28 44 36 51 C 44 58 51 69 58 84 L 254 507 L 233 551 C 232 553 231 555 231 556 C 230 557 230 559 230 561 C 230 562 230 563 231 564 C 232 565 234 566 236 567 C 247 571 258 577 268 583 C 278 589 288 596 296 602 C 296 602 297 603 298 604 C 299 604 300 605 302 605 C 304 605 306 604 307 603 C 308 601 309 600 310 598 L 538 66 C 540 59 544 53 550 47 C 555 41 562 36 572 33 C 583 29 590 26 594 25 C 597 24 599 22 599 20 Z M 168 209 L 386 209 L 279 459 L 168 209 Z" unicode="" />
<glyph horiz-adv-x="593" d="M 306 815 L 442 639 L 405 639 L 275 741 L 145 639 L 108 639 L 244 815 L 306 815 Z M 599 20 L 599 0 L 399 0 L 399 15 C 399 18 401 21 407 24 C 412 26 417 29 423 31 C 429 33 436 36 442 39 C 448 42 451 45 451 49 C 451 53 449 58 447 65 C 444 71 441 77 439 83 L 401 173 L 152 173 L 114 83 C 112 79 110 73 107 66 C 104 59 103 54 103 52 C 103 48 106 45 112 41 C 118 37 126 33 135 31 C 143 28 150 25 154 23 C 158 21 160 17 160 13 L 160 0 L -9 0 L -9 14 C -9 18 -6 22 -2 24 C 1 26 5 28 9 31 C 19 37 28 44 36 51 C 44 58 51 69 58 84 L 254 507 L 233 551 C 232 553 231 555 231 556 C 230 557 230 559 230 561 C 230 562 230 563 231 564 C 232 565 234 566 236 567 C 247 571 258 577 268 583 C 278 589 288 596 296 602 C 296 602 297 603 298 604 C 299 604 300 605 302 605 C 304 605 306 604 307 603 C 308 601 309 600 310 598 L 538 66 C 540 59 544 53 550 47 C 555 41 562 36 572 33 C 583 29 590 26 594 25 C 597 24 599 22 599 20 Z M 168 209 L 386 209 L 279 459 L 168 209 Z" unicode="" />
<glyph horiz-adv-x="593" d="M 422 793 L 454 793 C 453 761 443 733 424 710 C 405 687 381 676 353 676 C 340 676 329 677 319 681 C 309 684 295 690 278 700 C 264 707 251 713 240 718 C 228 723 217 726 207 726 C 192 726 180 720 171 709 C 161 697 156 685 155 672 L 123 672 C 123 704 133 731 153 754 C 173 776 197 788 225 788 C 241 788 254 786 264 782 C 274 778 286 773 300 766 C 314 758 327 752 339 746 C 351 740 361 738 371 738 C 385 738 397 743 406 755 C 415 767 420 779 422 793 Z M 599 20 L 599 0 L 399 0 L 399 15 C 399 18 401 21 407 24 C 412 26 417 29 423 31 C 429 33 436 36 442 39 C 448 42 451 45 451 49 C 451 53 449 58 447 65 C 444 71 441 77 439 83 L 401 173 L 152 173 L 114 83 C 112 79 110 73 107 66 C 104 59 103 54 103 52 C 103 48 106 45 112 41 C 118 37 126 33 135 31 C 143 28 150 25 154 23 C 158 21 160 17 160 13 L 160 0 L -9 0 L -9 14 C -9 18 -6 22 -2 24 C 1 26 5 28 9 31 C 19 37 28 44 36 51 C 44 58 51 69 58 84 L 254 507 L 233 551 C 232 553 231 555 231 556 C 230 557 230 559 230 561 C 230 562 230 563 231 564 C 232 565 234 566 236 567 C 247 571 258 577 268 583 C 278 589 288 596 296 602 C 296 602 297 603 298 604 C 299 604 300 605 302 605 C 304 605 306 604 307 603 C 308 601 309 600 310 598 L 538 66 C 540 59 544 53 550 47 C 555 41 562 36 572 33 C 583 29 590 26 594 25 C 597 24 599 22 599 20 Z M 168 209 L 386 209 L 279 459 L 168 209 Z" unicode="" />
<glyph horiz-adv-x="593" d="M 383 780 C 398 780 411 774 422 763 C 433 752 439 739 439 725 C 439 710 433 697 422 686 C 411 675 398 670 383 670 C 367 670 354 675 343 686 C 332 697 327 710 327 725 C 327 739 332 752 343 763 C 354 774 367 780 383 780 Z M 177 780 C 192 780 205 774 216 763 C 227 752 233 739 233 725 C 233 710 227 697 216 686 C 205 675 192 670 177 670 C 161 670 148 675 137 686 C 126 697 121 710 121 725 C 121 739 126 752 137 763 C 148 774 161 780 177 780 Z M 599 20 L 599 0 L 399 0 L 399 15 C 399 18 401 21 407 24 C 412 26 417 29 423 31 C 429 33 436 36 442 39 C 448 42 451 45 451 49 C 451 53 449 58 447 65 C 444 71 441 77 439 83 L 401 173 L 152 173 L 114 83 C 112 79 110 73 107 66 C 104 59 103 54 103 52 C 103 48 106 45 112 41 C 118 37 126 33 135 31 C 143 28 150 25 154 23 C 158 21 160 17 160 13 L 160 0 L -9 0 L -9 14 C -9 18 -6 22 -2 24 C 1 26 5 28 9 31 C 19 37 28 44 36 51 C 44 58 51 69 58 84 L 254 507 L 233 551 C 232 553 231 555 231 556 C 230 557 230 559 230 561 C 230 562 230 563 231 564 C 232 565 234 566 236 567 C 247 571 258 577 268 583 C 278 589 288 596 296 602 C 296 602 297 603 298 604 C 299 604 300 605 302 605 C 304 605 306 604 307 603 C 308 601 309 600 310 598 L 538 66 C 540 59 544 53 550 47 C 555 41 562 36 572 33 C 583 29 590 26 594 25 C 597 24 599 22 599 20 Z M 168 209 L 386 209 L 279 459 L 168 209 Z" unicode="" />
<glyph horiz-adv-x="593" d="M 287 856 C 321 856 350 845 372 825 C 394 804 405 778 405 747 C 405 715 394 689 372 669 C 350 648 321 638 287 638 C 252 638 223 648 201 668 C 178 688 167 715 167 747 C 167 778 178 804 201 825 C 223 845 252 856 287 856 Z M 287 668 C 307 668 322 674 332 688 C 342 701 348 721 348 747 C 348 773 342 792 332 806 C 322 819 307 826 287 826 C 266 826 250 819 240 806 C 229 792 224 773 224 747 C 224 721 229 701 240 688 C 250 674 266 668 287 668 Z M 599 20 L 599 0 L 399 0 L 399 15 C 399 18 401 21 407 24 C 412 26 417 29 423 31 C 429 33 436 36 442 39 C 448 42 451 45 451 49 C 451 53 449 58 447 65 C 444 71 441 77 439 83 L 401 173 L 152 173 L 114 83 C 112 79 110 73 107 66 C 104 59 103 54 103 52 C 103 48 106 45 112 41 C 118 37 126 33 135 31 C 143 28 150 25 154 23 C 158 21 160 17 160 13 L 160 0 L -9 0 L -9 14 C -9 18 -6 22 -2 24 C 1 26 5 28 9 31 C 19 37 28 44 36 51 C 44 58 51 69 58 84 L 254 507 L 233 551 C 232 553 231 555 231 556 C 230 557 230 559 230 561 C 230 562 230 563 231 564 C 232 565 234 566 236 567 C 247 571 258 577 268 583 C 278 589 288 596 296 602 C 296 602 297 603 298 604 C 299 604 300 605 302 605 C 304 605 306 604 307 603 C 308 601 309 600 310 598 L 538 66 C 540 59 544 53 550 47 C 555 41 562 36 572 33 C 583 29 590 26 594 25 C 597 24 599 22 599 20 Z M 168 209 L 386 209 L 279 459 L 168 209 Z" unicode="" />
<glyph horiz-adv-x="820" d="M 798 131 L 798 0 L 333 0 L 333 20 C 333 24 334 26 338 27 C 342 28 349 30 360 34 C 372 38 380 41 383 44 C 385 46 387 52 387 61 L 387 285 L 204 285 L 114 84 C 112 80 110 74 107 67 C 104 60 103 55 103 53 C 103 49 106 45 112 41 C 118 37 126 33 135 31 C 143 28 149 25 153 23 C 157 21 159 17 159 13 L 159 0 L -11 0 L -11 14 C -11 18 -8 22 -4 24 C 0 26 4 28 8 31 C 18 37 27 44 35 52 C 43 59 50 70 57 85 L 248 495 C 252 503 255 511 259 521 C 263 531 265 537 265 540 C 265 544 263 548 259 552 C 255 555 248 558 238 562 C 227 564 220 567 217 569 C 214 571 213 573 213 577 L 213 596 L 674 596 C 686 596 701 597 718 599 C 735 601 748 602 757 603 L 757 485 L 736 485 C 729 485 724 486 721 488 C 717 490 715 494 713 498 C 708 510 704 521 700 529 C 696 537 691 544 685 549 C 679 553 672 556 664 558 C 655 560 643 561 629 561 L 475 561 L 475 323 L 565 323 C 581 323 592 327 597 335 C 602 343 607 353 613 365 C 615 369 617 372 620 376 C 623 380 628 382 636 382 L 654 382 L 654 233 L 634 233 C 628 233 623 234 619 238 C 615 241 613 245 611 250 C 604 264 598 273 593 279 C 587 285 578 288 566 288 L 475 288 L 475 35 L 672 35 C 696 35 714 41 725 55 C 736 68 747 88 758 115 C 759 118 760 121 762 125 C 764 129 768 131 774 131 L 798 131 Z M 219 321 L 387 320 L 387 498 C 387 518 385 533 382 544 C 378 555 369 561 354 561 C 342 561 332 554 324 542 C 316 530 308 515 300 497 L 219 321 Z" unicode="" />
<glyph horiz-adv-x="549" d="M 521 142 L 547 119 C 541 107 531 94 519 80 C 507 66 492 52 474 40 C 456 28 436 17 413 8 C 390 -1 365 -7 339 -9 L 323 -47 C 353 -47 377 -52 395 -64 C 412 -76 421 -95 421 -122 C 421 -142 411 -160 391 -177 C 371 -193 340 -202 297 -202 C 278 -202 259 -196 240 -186 C 220 -175 204 -164 190 -154 L 207 -127 C 219 -135 232 -142 247 -150 C 261 -158 277 -162 295 -162 C 316 -162 330 -157 338 -149 C 346 -141 350 -132 350 -123 C 350 -112 345 -103 337 -95 C 328 -87 313 -83 293 -83 C 290 -83 287 -83 284 -83 C 280 -83 277 -83 273 -84 L 306 -10 C 259 -8 218 1 184 19 C 150 37 121 60 99 88 C 76 116 59 149 48 185 C 37 221 32 257 32 295 C 32 345 40 390 57 429 C 73 468 95 501 121 527 C 147 553 176 572 209 586 C 241 599 274 606 307 606 C 333 606 358 603 380 597 C 402 591 427 581 453 567 C 457 565 460 563 463 562 C 465 560 468 560 471 560 C 473 560 475 560 477 561 C 479 562 481 564 484 567 C 486 569 487 570 489 572 C 490 574 492 575 494 575 L 514 575 L 514 428 L 487 428 C 483 428 480 428 477 430 C 474 432 472 435 472 439 C 461 473 443 503 417 531 C 391 558 359 572 321 572 C 300 572 278 567 256 557 C 233 547 212 531 194 509 C 175 487 159 459 147 425 C 135 390 129 348 129 299 C 129 255 134 216 144 182 C 154 148 167 119 185 97 C 202 75 222 58 246 47 C 270 35 295 30 322 30 C 350 30 376 34 399 43 C 421 52 441 63 457 75 C 473 87 487 99 498 112 C 508 124 516 134 521 142 Z" unicode="" />
<glyph horiz-adv-x="524" d="M 250 800 L 381 661 L 355 644 L 192 735 C 177 743 166 752 160 761 C 153 769 150 778 150 787 C 150 798 153 808 161 817 C 168 825 178 830 191 830 C 200 830 209 828 218 824 C 226 820 237 812 250 800 Z M 502 131 L 502 0 L 33 0 L 33 20 C 33 24 34 26 38 27 C 42 28 49 30 60 34 C 72 38 80 41 83 44 C 85 46 87 52 87 61 L 87 536 C 87 542 85 547 82 551 C 79 555 72 558 60 562 C 49 565 42 567 39 569 C 35 570 34 572 34 576 L 34 596 L 378 596 C 390 596 405 597 422 599 C 439 601 452 602 461 603 L 461 485 L 440 485 C 433 485 428 486 425 488 C 421 490 419 494 417 498 C 412 510 408 521 404 529 C 400 537 395 544 389 549 C 383 553 376 556 368 558 C 359 560 347 561 333 561 L 175 561 L 175 323 L 267 323 C 283 323 294 327 299 335 C 304 343 309 353 315 365 C 317 369 319 372 322 376 C 325 380 330 382 338 382 L 356 382 L 356 233 L 336 233 C 330 233 325 234 321 238 C 317 241 315 245 313 250 C 306 264 300 273 295 279 C 289 285 280 288 268 288 L 175 288 L 175 35 L 376 35 C 400 35 418 41 429 55 C 440 68 451 88 462 115 C 463 118 464 121 466 125 C 468 129 472 131 478 131 L 502 131 Z" unicode="" />
<glyph horiz-adv-x="524" d="M 353 830 C 365 830 375 825 383 817 C 390 808 394 798 394 787 C 394 778 390 769 384 761 C 377 752 366 743 352 735 L 189 644 L 163 661 L 294 800 C 305 812 315 820 325 824 C 334 828 343 830 353 830 Z M 502 131 L 502 0 L 33 0 L 33 20 C 33 24 34 26 38 27 C 42 28 49 30 60 34 C 72 38 80 41 83 44 C 85 46 87 52 87 61 L 87 536 C 87 542 85 547 82 551 C 79 555 72 558 60 562 C 49 565 42 567 39 569 C 35 570 34 572 34 576 L 34 596 L 378 596 C 390 596 405 597 422 599 C 439 601 452 602 461 603 L 461 485 L 440 485 C 433 485 428 486 425 488 C 421 490 419 494 417 498 C 412 510 408 521 404 529 C 400 537 395 544 389 549 C 383 553 376 556 368 558 C 359 560 347 561 333 561 L 175 561 L 175 323 L 267 323 C 283 323 294 327 299 335 C 304 343 309 353 315 365 C 317 369 319 372 322 376 C 325 380 330 382 338 382 L 356 382 L 356 233 L 336 233 C 330 233 325 234 321 238 C 317 241 315 245 313 250 C 306 264 300 273 295 279 C 289 285 280 288 268 288 L 175 288 L 175 35 L 376 35 C 400 35 418 41 429 55 C 440 68 451 88 462 115 C 463 118 464 121 466 125 C 468 129 472 131 478 131 L 502 131 Z" unicode="" />
<glyph horiz-adv-x="524" d="M 290 821 L 426 645 L 389 645 L 259 747 L 129 645 L 92 645 L 228 821 L 290 821 Z M 502 131 L 502 0 L 33 0 L 33 20 C 33 24 34 26 38 27 C 42 28 49 30 60 34 C 72 38 80 41 83 44 C 85 46 87 52 87 61 L 87 536 C 87 542 85 547 82 551 C 79 555 72 558 60 562 C 49 565 42 567 39 569 C 35 570 34 572 34 576 L 34 596 L 378 596 C 390 596 405 597 422 599 C 439 601 452 602 461 603 L 461 485 L 440 485 C 433 485 428 486 425 488 C 421 490 419 494 417 498 C 412 510 408 521 404 529 C 400 537 395 544 389 549 C 383 553 376 556 368 558 C 359 560 347 561 333 561 L 175 561 L 175 323 L 267 323 C 283 323 294 327 299 335 C 304 343 309 353 315 365 C 317 369 319 372 322 376 C 325 380 330 382 338 382 L 356 382 L 356 233 L 336 233 C 330 233 325 234 321 238 C 317 241 315 245 313 250 C 306 264 300 273 295 279 C 289 285 280 288 268 288 L 175 288 L 175 35 L 376 35 C 400 35 418 41 429 55 C 440 68 451 88 462 115 C 463 118 464 121 466 125 C 468 129 472 131 478 131 L 502 131 Z" unicode="" />
<glyph horiz-adv-x="524" d="M 365 787 C 380 787 393 781 404 770 C 415 759 421 746 421 732 C 421 717 415 704 404 693 C 393 682 380 677 365 677 C 349 677 336 682 325 693 C 314 704 309 717 309 732 C 309 746 314 759 325 770 C 336 781 349 787 365 787 Z M 155 787 C 170 787 183 781 194 770 C 205 759 211 746 211 732 C 211 717 205 704 194 693 C 183 682 170 677 155 677 C 139 677 126 682 115 693 C 104 704 99 717 99 732 C 99 746 104 759 115 770 C 126 781 139 787 155 787 Z M 502 131 L 502 0 L 33 0 L 33 20 C 33 24 34 26 38 27 C 42 28 49 30 60 34 C 72 38 80 41 83 44 C 85 46 87 52 87 61 L 87 536 C 87 542 85 547 82 551 C 79 555 72 558 60 562 C 49 565 42 567 39 569 C 35 570 34 572 34 576 L 34 596 L 378 596 C 390 596 405 597 422 599 C 439 601 452 602 461 603 L 461 485 L 440 485 C 433 485 428 486 425 488 C 421 490 419 494 417 498 C 412 510 408 521 404 529 C 400 537 395 544 389 549 C 383 553 376 556 368 558 C 359 560 347 561 333 561 L 175 561 L 175 323 L 267 323 C 283 323 294 327 299 335 C 304 343 309 353 315 365 C 317 369 319 372 322 376 C 325 380 330 382 338 382 L 356 382 L 356 233 L 336 233 C 330 233 325 234 321 238 C 317 241 315 245 313 250 C 306 264 300 273 295 279 C 289 285 280 288 268 288 L 175 288 L 175 35 L 376 35 C 400 35 418 41 429 55 C 440 68 451 88 462 115 C 463 118 464 121 466 125 C 468 129 472 131 478 131 L 502 131 Z" unicode="" />
<glyph horiz-adv-x="275" d="M 118 800 L 249 661 L 223 644 L 60 735 C 45 743 34 752 28 761 C 21 769 18 778 18 787 C 18 798 21 808 29 817 C 36 825 46 830 59 830 C 68 830 77 828 86 824 C 94 820 105 812 118 800 Z M 233 20 L 233 0 L 40 0 L 40 20 C 40 24 41 26 45 27 C 49 27 56 30 66 34 C 78 38 86 42 89 44 C 92 46 94 52 94 61 L 94 536 C 94 542 92 547 89 551 C 85 555 78 558 66 562 C 55 565 48 567 45 569 C 41 570 40 572 40 576 L 40 596 L 233 596 L 233 576 C 233 572 231 570 228 568 C 225 566 219 564 210 562 C 198 558 190 555 186 553 C 182 550 181 544 181 536 L 181 63 C 181 52 183 45 187 43 C 191 40 199 37 210 34 C 219 30 225 28 228 27 C 231 25 233 23 233 20 Z" unicode="" />
<glyph horiz-adv-x="275" d="M 217 830 C 229 830 239 825 247 817 C 254 808 258 798 258 787 C 258 778 254 769 248 761 C 241 752 230 743 216 735 L 53 644 L 27 661 L 158 800 C 169 812 179 820 189 824 C 198 828 207 830 217 830 Z M 233 20 L 233 0 L 40 0 L 40 20 C 40 24 41 26 45 27 C 49 27 56 30 66 34 C 78 38 86 42 89 44 C 92 46 94 52 94 61 L 94 536 C 94 542 92 547 89 551 C 85 555 78 558 66 562 C 55 565 48 567 45 569 C 41 570 40 572 40 576 L 40 596 L 233 596 L 233 576 C 233 572 231 570 228 568 C 225 566 219 564 210 562 C 198 558 190 555 186 553 C 182 550 181 544 181 536 L 181 63 C 181 52 183 45 187 43 C 191 40 199 37 210 34 C 219 30 225 28 228 27 C 231 25 233 23 233 20 Z" unicode="" />
<glyph horiz-adv-x="275" d="M 169 821 L 289 645 L 252 645 L 138 750 L 24 645 L -13 645 L 107 821 L 169 821 Z M 233 20 L 233 0 L 40 0 L 40 20 C 40 24 41 26 45 27 C 49 27 56 30 66 34 C 78 38 86 42 89 44 C 92 46 94 52 94 61 L 94 536 C 94 542 92 547 89 551 C 85 555 78 558 66 562 C 55 565 48 567 45 569 C 41 570 40 572 40 576 L 40 596 L 233 596 L 233 576 C 233 572 231 570 228 568 C 225 566 219 564 210 562 C 198 558 190 555 186 553 C 182 550 181 544 181 536 L 181 63 C 181 52 183 45 187 43 C 191 40 199 37 210 34 C 219 30 225 28 228 27 C 231 25 233 23 233 20 Z" unicode="" />
<glyph horiz-adv-x="275" d="M 228 787 C 243 787 256 781 267 770 C 278 759 284 746 284 732 C 284 717 278 704 267 693 C 256 682 243 677 228 677 C 212 677 199 682 188 693 C 177 704 172 717 172 732 C 172 746 177 759 188 770 C 199 781 212 787 228 787 Z M 48 787 C 63 787 76 781 87 770 C 98 759 104 746 104 732 C 104 717 98 704 87 693 C 76 682 63 677 48 677 C 32 677 19 682 8 693 C -2 704 -8 717 -8 732 C -8 746 -2 759 8 770 C 19 781 32 787 48 787 Z M 233 20 L 233 0 L 40 0 L 40 20 C 40 24 41 26 45 27 C 49 27 56 30 66 34 C 78 38 86 42 89 44 C 92 46 94 52 94 61 L 94 536 C 94 542 92 547 89 551 C 85 555 78 558 66 562 C 55 565 48 567 45 569 C 41 570 40 572 40 576 L 40 596 L 233 596 L 233 576 C 233 572 231 570 228 568 C 225 566 219 564 210 562 C 198 558 190 555 186 553 C 182 550 181 544 181 536 L 181 63 C 181 52 183 45 187 43 C 191 40 199 37 210 34 C 219 30 225 28 228 27 C 231 25 233 23 233 20 Z" unicode="" />
<glyph horiz-adv-x="637" d="M 475 795 L 507 795 C 506 763 496 735 477 712 C 458 689 434 678 406 678 C 393 678 382 679 372 683 C 362 686 348 692 331 702 C 317 709 304 715 293 720 C 281 725 270 728 260 728 C 245 728 233 722 224 711 C 214 699 209 687 208 674 L 176 674 C 176 706 186 733 206 756 C 226 778 250 790 278 790 C 294 790 307 788 317 784 C 327 780 339 775 353 768 C 367 760 380 754 392 748 C 404 742 414 740 424 740 C 438 740 450 745 459 757 C 468 769 473 781 475 795 Z M 608 596 L 608 573 C 608 571 605 569 601 568 C 597 566 590 562 582 556 C 571 548 563 540 559 532 C 555 524 553 516 553 508 L 553 -3 L 520 -3 L 135 515 L 135 89 C 135 82 136 74 140 64 C 144 54 150 45 159 39 C 166 33 172 29 178 28 C 183 26 186 24 186 22 L 186 0 L 33 0 L 33 22 C 33 24 34 26 38 27 C 42 28 49 33 59 41 C 67 47 74 55 79 63 C 84 71 87 80 87 89 L 87 535 C 87 541 85 546 82 550 C 79 554 72 558 60 562 C 49 565 42 567 39 569 C 35 570 34 572 34 576 L 34 596 L 178 596 L 505 156 L 505 507 C 505 515 503 524 499 533 C 495 541 488 549 479 556 C 469 562 462 566 458 568 C 453 569 451 571 451 573 L 451 596 L 608 596 Z" unicode="" />
<glyph horiz-adv-x="649" d="M 328 800 L 459 661 L 433 644 L 270 735 C 255 743 244 752 238 761 C 231 769 228 778 228 787 C 228 798 231 808 239 817 C 246 825 256 830 269 830 C 278 830 287 828 296 824 C 304 820 315 812 328 800 Z M 325 606 C 368 606 408 598 444 583 C 480 567 511 546 537 519 C 562 491 582 459 596 421 C 610 383 618 342 618 298 C 618 253 610 212 596 174 C 582 136 562 104 537 77 C 511 49 480 28 444 13 C 408 -2 368 -10 325 -10 C 281 -10 242 -2 206 12 C 170 27 139 48 113 75 C 87 102 67 135 53 173 C 39 211 32 252 32 298 C 32 342 39 383 53 421 C 67 459 87 491 113 519 C 139 546 170 567 206 583 C 242 598 281 606 325 606 Z M 325 24 C 383 24 430 47 466 93 C 502 139 520 207 520 298 C 520 386 502 454 466 501 C 430 548 383 572 325 572 C 267 572 219 548 183 501 C 147 454 129 386 129 298 C 129 209 147 141 183 94 C 219 47 267 24 325 24 Z" unicode="" />
<glyph horiz-adv-x="649" d="M 420 830 C 432 830 442 825 450 817 C 457 808 461 798 461 787 C 461 778 457 769 451 761 C 444 752 433 743 419 735 L 256 644 L 230 661 L 361 800 C 372 812 382 820 392 824 C 401 828 410 830 420 830 Z M 325 606 C 368 606 408 598 444 583 C 480 567 511 546 537 519 C 562 491 582 459 596 421 C 610 383 618 342 618 298 C 618 253 610 212 596 174 C 582 136 562 104 537 77 C 511 49 480 28 444 13 C 408 -2 368 -10 325 -10 C 281 -10 242 -2 206 12 C 170 27 139 48 113 75 C 87 102 67 135 53 173 C 39 211 32 252 32 298 C 32 342 39 383 53 421 C 67 459 87 491 113 519 C 139 546 170 567 206 583 C 242 598 281 606 325 606 Z M 325 24 C 383 24 430 47 466 93 C 502 139 520 207 520 298 C 520 386 502 454 466 501 C 430 548 383 572 325 572 C 267 572 219 548 183 501 C 147 454 129 386 129 298 C 129 209 147 141 183 94 C 219 47 267 24 325 24 Z" unicode="" />
<glyph horiz-adv-x="649" d="M 356 821 L 492 645 L 455 645 L 325 747 L 195 645 L 158 645 L 294 821 L 356 821 Z M 325 606 C 368 606 408 598 444 583 C 480 567 511 546 537 519 C 562 491 582 459 596 421 C 610 383 618 342 618 298 C 618 253 610 212 596 174 C 582 136 562 104 537 77 C 511 49 480 28 444 13 C 408 -2 368 -10 325 -10 C 281 -10 242 -2 206 12 C 170 27 139 48 113 75 C 87 102 67 135 53 173 C 39 211 32 252 32 298 C 32 342 39 383 53 421 C 67 459 87 491 113 519 C 139 546 170 567 206 583 C 242 598 281 606 325 606 Z M 325 24 C 383 24 430 47 466 93 C 502 139 520 207 520 298 C 520 386 502 454 466 501 C 430 548 383 572 325 572 C 267 572 219 548 183 501 C 147 454 129 386 129 298 C 129 209 147 141 183 94 C 219 47 267 24 325 24 Z" unicode="" />
<glyph horiz-adv-x="649" d="M 459 795 L 491 795 C 490 763 480 735 461 712 C 442 689 418 678 390 678 C 377 678 366 679 356 683 C 346 686 332 692 315 702 C 301 709 288 715 277 720 C 265 725 254 728 244 728 C 229 728 217 722 208 711 C 198 699 193 687 192 674 L 160 674 C 160 706 170 733 190 756 C 210 778 234 790 262 790 C 278 790 291 788 301 784 C 311 780 323 775 337 768 C 351 760 364 754 376 748 C 388 742 398 740 408 740 C 422 740 434 745 443 757 C 452 769 457 781 459 795 Z M 325 606 C 368 606 408 598 444 583 C 480 567 511 546 537 519 C 562 491 582 459 596 421 C 610 383 618 342 618 298 C 618 253 610 212 596 174 C 582 136 562 104 537 77 C 511 49 480 28 444 13 C 408 -2 368 -10 325 -10 C 281 -10 242 -2 206 12 C 170 27 139 48 113 75 C 87 102 67 135 53 173 C 39 211 32 252 32 298 C 32 342 39 383 53 421 C 67 459 87 491 113 519 C 139 546 170 567 206 583 C 242 598 281 606 325 606 Z M 325 24 C 383 24 430 47 466 93 C 502 139 520 207 520 298 C 520 386 502 454 466 501 C 430 548 383 572 325 572 C 267 572 219 548 183 501 C 147 454 129 386 129 298 C 129 209 147 141 183 94 C 219 47 267 24 325 24 Z" unicode="" />
<glyph horiz-adv-x="649" d="M 430 787 C 445 787 458 781 469 770 C 480 759 486 746 486 732 C 486 717 480 704 469 693 C 458 682 445 677 430 677 C 414 677 401 682 390 693 C 379 704 374 717 374 732 C 374 746 379 759 390 770 C 401 781 414 787 430 787 Z M 220 787 C 235 787 248 781 259 770 C 270 759 276 746 276 732 C 276 717 270 704 259 693 C 248 682 235 677 220 677 C 204 677 191 682 180 693 C 169 704 164 717 164 732 C 164 746 169 759 180 770 C 191 781 204 787 220 787 Z M 325 606 C 368 606 408 598 444 583 C 480 567 511 546 537 519 C 562 491 582 459 596 421 C 610 383 618 342 618 298 C 618 253 610 212 596 174 C 582 136 562 104 537 77 C 511 49 480 28 444 13 C 408 -2 368 -10 325 -10 C 281 -10 242 -2 206 12 C 170 27 139 48 113 75 C 87 102 67 135 53 173 C 39 211 32 252 32 298 C 32 342 39 383 53 421 C 67 459 87 491 113 519 C 139 546 170 567 206 583 C 242 598 281 606 325 606 Z M 325 24 C 383 24 430 47 466 93 C 502 139 520 207 520 298 C 520 386 502 454 466 501 C 430 548 383 572 325 572 C 267 572 219 548 183 501 C 147 454 129 386 129 298 C 129 209 147 141 183 94 C 219 47 267 24 325 24 Z" unicode="" />
<glyph horiz-adv-x="766" d="M 383 529 C 399 529 414 523 426 512 C 438 500 444 486 444 470 C 444 453 438 439 426 428 C 414 416 399 411 383 411 C 366 411 352 416 340 428 C 328 439 322 453 322 470 C 322 486 328 500 340 512 C 352 523 366 529 383 529 Z M 647 319 L 647 267 L 119 267 L 119 319 L 647 319 Z M 383 175 C 399 175 414 169 426 158 C 438 146 444 132 444 116 C 444 99 438 85 426 74 C 414 62 399 57 383 57 C 366 57 352 62 340 74 C 328 85 322 99 322 116 C 322 132 328 146 340 158 C 352 169 366 175 383 175 Z" unicode="" />
<glyph horiz-adv-x="649" d="M 486 559 C 526 532 558 496 582 451 C 606 405 618 354 618 298 C 618 253 610 212 596 174 C 582 136 562 104 537 77 C 511 49 480 28 444 13 C 408 -2 368 -10 325 -10 C 302 -10 280 -7 258 -3 C 236 1 216 8 198 17 L 164 -48 L 119 -48 L 163 36 C 123 62 91 97 67 143 C 43 188 32 240 32 298 C 32 342 39 383 53 421 C 67 459 87 491 113 519 C 139 546 170 567 206 583 C 242 598 281 606 325 606 C 347 606 369 603 391 599 C 412 594 432 587 451 579 L 486 645 L 531 645 L 486 559 Z M 189 83 L 430 540 C 415 550 399 558 381 564 C 363 569 345 572 325 572 C 267 572 219 548 182 502 C 145 456 127 388 127 298 C 127 250 132 207 143 171 C 154 135 169 105 189 83 Z M 325 24 C 383 24 430 46 467 92 C 503 138 522 206 522 298 C 522 346 516 388 505 425 C 494 461 479 491 460 514 L 220 57 C 234 46 250 38 268 32 C 286 26 305 24 325 24 Z" unicode="" />
<glyph horiz-adv-x="628" d="M 305 800 L 436 661 L 410 644 L 247 735 C 232 743 221 752 215 761 C 208 769 205 778 205 787 C 205 798 208 808 216 817 C 223 825 233 830 246 830 C 255 830 264 828 273 824 C 281 820 292 812 305 800 Z M 603 596 L 603 573 C 603 571 600 568 596 566 C 591 564 584 560 576 555 C 566 549 559 542 555 535 C 550 528 548 520 548 512 L 548 211 C 548 183 543 156 534 130 C 524 103 510 79 492 59 C 474 38 450 21 422 9 C 394 -3 361 -10 323 -10 C 281 -10 245 -4 215 6 C 184 16 159 31 139 50 C 119 68 105 90 95 116 C 85 142 81 169 81 199 L 81 536 C 81 542 79 547 76 551 C 73 555 66 558 54 562 C 43 565 36 567 33 569 C 29 570 28 572 28 576 L 28 596 L 221 596 L 221 576 C 221 572 219 570 216 568 C 213 566 207 564 198 562 C 186 558 178 555 174 553 C 170 550 169 544 169 536 L 169 209 C 169 157 182 116 210 86 C 238 56 278 41 330 41 C 388 41 430 56 458 88 C 486 120 500 164 500 220 L 500 511 C 500 519 497 527 493 534 C 489 541 481 548 471 555 C 462 560 455 564 451 566 C 446 568 444 571 444 573 L 444 596 L 603 596 Z" unicode="" />
<glyph horiz-adv-x="628" d="M 404 830 C 416 830 426 825 434 817 C 441 808 445 798 445 787 C 445 778 441 769 435 761 C 428 752 417 743 403 735 L 240 644 L 214 661 L 345 800 C 356 812 366 820 376 824 C 385 828 394 830 404 830 Z M 603 596 L 603 573 C 603 571 600 568 596 566 C 591 564 584 560 576 555 C 566 549 559 542 555 535 C 550 528 548 520 548 512 L 548 211 C 548 183 543 156 534 130 C 524 103 510 79 492 59 C 474 38 450 21 422 9 C 394 -3 361 -10 323 -10 C 281 -10 245 -4 215 6 C 184 16 159 31 139 50 C 119 68 105 90 95 116 C 85 142 81 169 81 199 L 81 536 C 81 542 79 547 76 551 C 73 555 66 558 54 562 C 43 565 36 567 33 569 C 29 570 28 572 28 576 L 28 596 L 221 596 L 221 576 C 221 572 219 570 216 568 C 213 566 207 564 198 562 C 186 558 178 555 174 553 C 170 550 169 544 169 536 L 169 209 C 169 157 182 116 210 86 C 238 56 278 41 330 41 C 388 41 430 56 458 88 C 486 120 500 164 500 220 L 500 511 C 500 519 497 527 493 534 C 489 541 481 548 471 555 C 462 560 455 564 451 566 C 446 568 444 571 444 573 L 444 596 L 603 596 Z" unicode="" />
<glyph horiz-adv-x="628" d="M 368 821 L 504 645 L 467 645 L 337 747 L 207 645 L 170 645 L 306 821 L 368 821 Z M 603 596 L 603 573 C 603 571 600 568 596 566 C 591 564 584 560 576 555 C 566 549 559 542 555 535 C 550 528 548 520 548 512 L 548 211 C 548 183 543 156 534 130 C 524 103 510 79 492 59 C 474 38 450 21 422 9 C 394 -3 361 -10 323 -10 C 281 -10 245 -4 215 6 C 184 16 159 31 139 50 C 119 68 105 90 95 116 C 85 142 81 169 81 199 L 81 536 C 81 542 79 547 76 551 C 73 555 66 558 54 562 C 43 565 36 567 33 569 C 29 570 28 572 28 576 L 28 596 L 221 596 L 221 576 C 221 572 219 570 216 568 C 213 566 207 564 198 562 C 186 558 178 555 174 553 C 170 550 169 544 169 536 L 169 209 C 169 157 182 116 210 86 C 238 56 278 41 330 41 C 388 41 430 56 458 88 C 486 120 500 164 500 220 L 500 511 C 500 519 497 527 493 534 C 489 541 481 548 471 555 C 462 560 455 564 451 566 C 446 568 444 571 444 573 L 444 596 L 603 596 Z" unicode="" />
<glyph horiz-adv-x="628" d="M 430 787 C 445 787 458 781 469 770 C 480 759 486 746 486 732 C 486 717 480 704 469 693 C 458 682 445 677 430 677 C 414 677 401 682 390 693 C 379 704 374 717 374 732 C 374 746 379 759 390 770 C 401 781 414 787 430 787 Z M 220 787 C 235 787 248 781 259 770 C 270 759 276 746 276 732 C 276 717 270 704 259 693 C 248 682 235 677 220 677 C 204 677 191 682 180 693 C 169 704 164 717 164 732 C 164 746 169 759 180 770 C 191 781 204 787 220 787 Z M 603 596 L 603 573 C 603 571 600 568 596 566 C 591 564 584 560 576 555 C 566 549 559 542 555 535 C 550 528 548 520 548 512 L 548 211 C 548 183 543 156 534 130 C 524 103 510 79 492 59 C 474 38 450 21 422 9 C 394 -3 361 -10 323 -10 C 281 -10 245 -4 215 6 C 184 16 159 31 139 50 C 119 68 105 90 95 116 C 85 142 81 169 81 199 L 81 536 C 81 542 79 547 76 551 C 73 555 66 558 54 562 C 43 565 36 567 33 569 C 29 570 28 572 28 576 L 28 596 L 221 596 L 221 576 C 221 572 219 570 216 568 C 213 566 207 564 198 562 C 186 558 178 555 174 553 C 170 550 169 544 169 536 L 169 209 C 169 157 182 116 210 86 C 238 56 278 41 330 41 C 388 41 430 56 458 88 C 486 120 500 164 500 220 L 500 511 C 500 519 497 527 493 534 C 489 541 481 548 471 555 C 462 560 455 564 451 566 C 446 568 444 571 444 573 L 444 596 L 603 596 Z" unicode="" />
<glyph horiz-adv-x="547" d="M 402 830 C 414 830 424 825 432 817 C 439 808 443 798 443 787 C 443 778 439 769 433 761 C 426 752 415 743 401 735 L 238 644 L 212 661 L 343 800 C 354 812 364 820 374 824 C 383 828 392 830 402 830 Z M 562 596 L 562 580 C 562 575 560 572 557 570 C 553 568 548 566 542 564 C 529 558 520 553 514 550 C 508 546 500 536 489 520 L 320 273 L 320 63 C 320 52 322 45 327 43 C 331 40 339 37 350 34 C 359 30 365 28 368 27 C 371 25 373 23 373 20 L 373 0 L 178 0 L 178 20 C 178 24 179 26 183 27 C 187 27 194 30 204 34 C 216 38 224 42 228 44 C 231 46 233 52 233 61 L 233 269 L 52 529 C 46 537 40 544 35 549 C 29 554 21 558 11 562 C 1 564 -4 566 -8 568 C -12 570 -14 572 -14 576 L -14 596 L 186 596 L 186 583 C 186 578 184 575 181 573 C 178 571 173 568 167 566 C 159 563 152 560 147 558 C 142 556 140 553 140 551 C 140 548 140 544 142 540 C 144 536 146 532 149 529 L 298 311 L 432 514 C 436 521 440 527 443 533 C 446 539 448 544 448 549 C 448 551 445 554 440 556 C 434 558 428 560 422 562 C 412 564 405 567 402 569 C 399 571 398 575 398 580 L 398 596 L 562 596 Z" unicode="" />
<glyph horiz-adv-x="547" d="M 395 787 C 410 787 423 781 434 770 C 445 759 451 746 451 732 C 451 717 445 704 434 693 C 423 682 410 677 395 677 C 379 677 366 682 355 693 C 344 704 339 717 339 732 C 339 746 344 759 355 770 C 366 781 379 787 395 787 Z M 185 787 C 200 787 213 781 224 770 C 235 759 241 746 241 732 C 241 717 235 704 224 693 C 213 682 200 677 185 677 C 169 677 156 682 145 693 C 134 704 129 717 129 732 C 129 746 134 759 145 770 C 156 781 169 787 185 787 Z M 562 596 L 562 580 C 562 575 560 572 557 570 C 553 568 548 566 542 564 C 529 558 520 553 514 550 C 508 546 500 536 489 520 L 320 273 L 320 63 C 320 52 322 45 327 43 C 331 40 339 37 350 34 C 359 30 365 28 368 27 C 371 25 373 23 373 20 L 373 0 L 178 0 L 178 20 C 178 24 179 26 183 27 C 187 27 194 30 204 34 C 216 38 224 42 228 44 C 231 46 233 52 233 61 L 233 269 L 52 529 C 46 537 40 544 35 549 C 29 554 21 558 11 562 C 1 564 -4 566 -8 568 C -12 570 -14 572 -14 576 L -14 596 L 186 596 L 186 583 C 186 578 184 575 181 573 C 178 571 173 568 167 566 C 159 563 152 560 147 558 C 142 556 140 553 140 551 C 140 548 140 544 142 540 C 144 536 146 532 149 529 L 298 311 L 432 514 C 436 521 440 527 443 533 C 446 539 448 544 448 549 C 448 551 445 554 440 556 C 434 558 428 560 422 562 C 412 564 405 567 402 569 C 399 571 398 575 398 580 L 398 596 L 562 596 Z" unicode="" />
<glyph horiz-adv-x="275" d="M 233 20 L 233 0 L 40 0 L 40 20 C 40 24 41 26 45 27 C 49 27 56 30 66 34 C 78 38 86 42 89 44 C 92 46 94 52 94 61 L 94 536 C 94 542 92 547 89 551 C 85 555 78 558 66 562 C 55 565 48 567 45 569 C 41 570 40 572 40 576 L 40 596 L 233 596 L 233 576 C 233 572 231 570 228 568 C 225 566 219 564 210 562 C 198 558 190 555 186 553 C 182 550 181 544 181 536 L 181 63 C 181 52 183 45 187 43 C 191 40 199 37 210 34 C 219 30 225 28 228 27 C 231 25 233 23 233 20 Z" unicode="" />
<glyph horiz-adv-x="581" d="M 575 159 L 575 0 L 34 0 L 34 22 C 34 26 36 29 40 30 C 44 31 52 34 64 39 C 78 44 87 48 91 51 C 95 53 97 60 97 71 L 97 328 L 23 282 L 23 330 L 97 375 L 97 660 C 97 668 95 674 91 678 C 87 682 79 687 65 691 C 52 695 44 697 40 699 C 36 700 35 703 35 708 L 35 730 L 249 730 L 249 708 C 249 703 247 700 243 698 C 239 696 232 694 222 691 C 208 686 198 682 194 680 C 190 677 188 670 188 660 L 188 415 L 311 491 L 311 441 L 188 368 L 188 40 L 432 40 C 460 40 481 48 493 64 C 505 80 518 105 531 139 C 533 147 536 152 539 155 C 541 157 545 159 551 159 L 575 159 Z" unicode="" />
<glyph horiz-adv-x="503" d="M 497 134 L 497 0 L 33 0 L 33 20 C 33 24 34 26 38 27 C 41 27 48 30 59 34 C 71 38 79 42 82 44 C 85 46 87 52 87 61 L 87 263 L 14 218 L 14 260 L 87 304 L 87 536 C 87 542 85 547 82 551 C 79 555 72 558 60 562 C 49 565 42 567 39 569 C 35 570 34 572 34 576 L 34 596 L 227 596 L 227 576 C 227 572 225 570 222 568 C 219 566 213 564 204 562 C 192 558 184 555 180 553 C 176 550 175 544 175 536 L 175 346 L 297 421 L 297 377 L 175 304 L 175 35 L 373 35 C 397 35 415 42 426 56 C 436 70 447 90 458 117 C 460 123 463 128 465 130 C 467 132 470 134 475 134 L 497 134 Z" unicode="" />
<glyph horiz-adv-x="1030" d="M 1008 156 L 1008 0 L 446 0 C 380 0 321 8 270 26 C 218 44 175 69 140 101 C 104 133 77 171 59 216 C 41 261 32 311 32 365 C 32 419 41 469 60 514 C 78 559 105 597 139 629 C 173 661 215 685 264 703 C 312 721 366 730 425 730 L 864 730 C 878 730 896 731 916 734 C 936 736 950 738 960 739 L 960 599 L 938 599 C 930 599 924 600 920 603 C 916 606 914 610 912 615 C 906 630 900 643 896 653 C 892 663 886 670 880 676 C 874 681 865 685 855 687 C 845 689 831 690 814 690 L 620 690 L 620 395 L 737 395 C 756 395 768 399 774 408 C 780 417 786 429 793 444 C 795 449 798 454 802 458 C 805 462 811 464 820 464 L 839 464 L 839 289 L 817 289 C 810 289 805 291 801 295 C 797 299 793 304 791 310 C 783 326 776 338 770 344 C 764 350 753 354 739 354 L 620 354 L 620 40 L 864 40 C 892 40 913 47 926 63 C 938 79 951 103 964 136 C 966 140 968 145 970 149 C 972 153 976 156 983 156 L 1008 156 Z M 469 38 C 489 38 504 42 514 50 C 524 58 529 74 529 96 L 529 635 C 529 661 522 677 509 683 C 495 689 478 692 457 692 L 443 692 C 345 692 269 666 215 614 C 161 562 134 479 134 365 C 134 254 162 172 219 118 C 276 64 356 38 459 38 L 469 38 Z" unicode="" />
<glyph horiz-adv-x="884" d="M 862 131 L 862 0 L 370 0 C 316 0 268 7 226 21 C 184 35 148 56 120 82 C 91 108 69 139 54 176 C 39 213 32 254 32 298 C 32 342 39 383 55 420 C 70 456 92 488 120 514 C 148 540 181 560 221 574 C 261 588 305 596 353 596 L 738 596 C 750 596 765 597 782 599 C 799 601 812 602 821 603 L 821 485 L 800 485 C 793 485 788 486 785 488 C 781 490 779 494 777 498 C 772 510 768 521 764 529 C 760 537 755 544 749 549 C 743 553 736 556 728 558 C 719 560 707 561 693 561 L 539 561 L 539 323 L 629 323 C 645 323 656 327 661 335 C 666 343 671 353 677 365 C 679 369 681 372 684 376 C 687 380 692 382 700 382 L 718 382 L 718 233 L 698 233 C 692 233 687 234 683 238 C 679 241 677 245 675 250 C 668 264 662 273 657 279 C 651 285 642 288 630 288 L 539 288 L 539 35 L 736 35 C 760 35 778 41 789 55 C 800 68 811 88 822 115 C 823 118 824 121 826 125 C 828 129 832 131 838 131 L 862 131 Z M 402 34 C 418 34 430 37 438 44 C 446 51 450 64 450 82 L 450 515 C 450 537 444 551 434 555 C 424 559 410 562 392 562 L 381 562 C 301 562 239 541 195 500 C 150 458 128 391 128 298 C 128 208 151 141 198 98 C 245 55 310 34 394 34 L 402 34 Z" unicode="" />
<glyph horiz-adv-x="571" d="M 425 946 L 455 946 L 320 783 L 260 783 L 125 946 L 154 946 L 290 845 L 425 946 Z M 351 418 C 420 391 469 361 498 328 C 527 294 542 256 542 213 C 542 187 536 161 526 135 C 516 108 500 84 479 62 C 458 40 432 23 400 9 C 368 -4 330 -11 287 -11 C 253 -11 220 -7 190 0 C 159 6 133 14 113 23 C 110 23 107 24 104 26 C 100 28 97 29 95 29 C 91 29 87 28 85 26 C 82 24 78 21 74 15 C 70 11 67 7 64 4 C 61 0 57 -1 52 -1 L 32 -1 L 32 195 L 59 195 C 63 195 66 194 69 193 C 72 191 75 186 79 178 C 100 123 130 84 168 62 C 206 40 246 29 287 29 C 309 29 331 32 352 38 C 372 44 390 53 406 65 C 421 77 433 92 443 111 C 452 130 457 153 457 179 C 457 223 443 254 417 274 C 390 294 360 310 327 323 C 303 331 283 339 267 345 C 251 351 232 359 210 368 C 159 388 121 414 96 445 C 70 476 58 510 58 547 C 58 571 62 595 72 619 C 81 642 95 663 113 681 C 131 699 154 713 182 724 C 210 735 241 741 277 741 C 293 741 313 738 338 733 C 362 727 387 717 413 702 C 416 700 420 697 425 695 C 429 692 433 691 437 691 C 439 691 442 692 444 694 C 446 695 450 698 454 702 C 456 704 457 705 459 707 C 460 709 462 710 464 710 L 484 710 L 484 540 L 453 540 C 448 540 445 541 443 544 C 441 546 439 549 439 553 C 424 602 401 639 370 664 C 339 688 305 701 269 701 C 253 701 238 698 222 693 C 206 687 192 680 180 670 C 167 660 157 649 149 635 C 141 621 137 606 137 590 C 137 556 145 529 163 510 C 180 491 204 475 236 462 C 254 454 274 446 296 438 C 318 430 336 423 351 418 Z" unicode="" />
<glyph horiz-adv-x="499" d="M 385 826 L 422 826 L 286 650 L 224 650 L 88 826 L 125 826 L 255 724 L 385 826 Z M 308 345 C 369 322 411 297 435 270 C 458 242 470 211 470 176 C 470 154 465 133 456 111 C 447 89 434 69 416 51 C 398 33 375 18 348 7 C 320 -4 288 -10 251 -10 C 221 -10 193 -7 167 -1 C 140 5 118 11 101 18 C 98 18 95 19 93 21 C 91 22 88 23 86 23 C 82 23 80 22 78 22 C 76 21 73 18 70 14 C 67 10 64 7 62 5 C 59 2 55 1 51 1 L 32 1 L 32 160 L 57 160 C 60 160 63 159 66 158 C 68 156 71 152 74 146 C 92 103 117 72 149 53 C 181 34 215 25 251 25 C 289 25 323 35 352 55 C 380 75 395 106 395 146 C 395 163 391 177 385 189 C 378 201 369 211 359 219 C 348 227 336 235 323 241 C 309 247 296 252 283 257 C 263 263 246 269 232 274 C 218 279 201 285 183 292 C 137 310 104 332 84 359 C 64 385 54 414 54 444 C 54 464 58 484 66 504 C 74 524 85 541 101 556 C 117 571 136 583 160 592 C 184 601 211 606 242 606 C 256 606 273 603 294 599 C 315 595 337 586 359 574 C 361 572 365 571 369 569 C 373 567 377 566 380 566 C 381 566 383 566 385 567 C 387 568 389 570 392 574 C 393 576 394 577 396 578 C 398 579 399 580 401 580 L 420 580 L 420 438 L 393 438 C 389 438 386 439 384 441 C 382 443 380 445 380 448 C 367 488 348 518 322 539 C 296 560 267 571 235 571 C 208 571 183 562 160 546 C 137 530 126 508 126 482 C 126 455 133 434 147 419 C 161 403 182 390 209 380 C 225 373 243 367 262 361 C 280 355 296 349 308 345 Z" unicode="" />
<glyph horiz-adv-x="633" d="M 453 909 C 467 909 480 903 490 893 C 500 883 505 871 505 858 C 505 844 500 832 490 822 C 480 812 467 807 453 807 C 438 807 426 812 416 822 C 406 832 401 844 401 858 C 401 871 406 883 416 893 C 426 903 438 909 453 909 Z M 224 909 C 238 909 251 903 261 893 C 271 883 276 871 276 858 C 276 844 271 832 261 822 C 251 812 238 807 224 807 C 209 807 197 812 187 822 C 177 832 172 844 172 858 C 172 871 177 883 187 893 C 197 903 209 909 224 909 Z M 651 730 L 651 713 C 651 707 649 704 646 702 C 642 700 637 697 629 693 C 614 686 603 681 597 677 C 590 673 580 660 567 640 L 365 334 L 365 73 C 365 60 367 52 373 50 C 378 47 387 43 400 39 C 410 35 417 32 421 31 C 425 29 427 26 427 22 L 427 0 L 211 0 L 211 22 C 211 26 213 29 217 30 C 221 31 229 34 241 39 C 255 44 264 48 268 51 C 272 53 274 60 274 71 L 274 330 L 58 651 C 50 661 44 670 38 676 C 32 682 22 687 10 691 C 0 694 -8 696 -12 698 C -16 700 -18 703 -18 708 L -18 730 L 204 730 L 204 717 C 204 711 203 708 201 706 C 199 704 192 701 180 696 C 171 692 164 688 159 686 C 153 684 151 681 151 677 C 151 674 152 670 154 665 C 156 659 159 655 162 651 L 341 379 L 504 632 C 510 642 515 651 519 659 C 522 667 524 672 524 676 C 524 679 521 682 515 685 C 509 688 502 691 494 694 C 482 698 475 701 471 704 C 467 706 465 710 465 715 L 465 730 L 651 730 Z" unicode="" />
<glyph horiz-adv-x="611" d="M 454 946 L 484 946 L 349 783 L 289 783 L 154 946 L 183 946 L 319 845 L 454 946 Z M 586 156 L 586 -9 C 575 -8 559 -6 539 -4 C 519 -1 498 0 477 0 L 18 0 L 18 13 C 18 18 19 23 22 29 C 25 34 29 40 33 46 L 466 690 L 181 690 C 160 690 144 683 134 671 C 123 658 113 639 105 614 C 102 605 98 599 93 596 C 87 593 81 592 75 592 L 58 592 L 58 738 C 66 737 80 735 99 733 C 118 731 132 730 141 730 L 579 730 L 579 725 C 579 715 577 707 573 702 C 569 696 566 691 562 685 L 132 40 L 439 40 C 462 40 481 47 496 61 C 511 75 526 101 541 138 C 543 144 545 148 547 151 C 549 154 553 156 560 156 L 586 156 Z" unicode="" />
<glyph horiz-adv-x="529" d="M 405 826 L 442 826 L 306 650 L 244 650 L 108 826 L 145 826 L 275 724 L 405 826 Z M 505 131 L 505 -7 C 495 -6 482 -5 465 -3 C 447 -1 429 0 411 0 L 18 0 L 18 13 C 18 17 19 22 22 26 C 24 30 27 35 31 40 L 390 561 L 161 561 C 143 561 129 555 121 545 C 112 534 103 518 95 497 C 92 490 89 485 85 483 C 81 480 75 479 69 479 L 53 479 L 53 602 C 60 601 72 600 88 598 C 104 596 116 596 124 596 L 499 596 L 499 590 C 499 583 497 577 495 573 C 492 569 488 563 484 557 L 124 35 L 377 35 C 399 35 416 41 428 53 C 440 65 452 87 464 117 C 465 121 467 124 469 127 C 471 129 475 131 481 131 L 505 131 Z" unicode="" />
<glyph horiz-adv-x="464" d="M 387 694 C 413 694 431 688 439 677 C 447 666 452 654 452 642 C 452 629 447 618 439 609 C 430 599 418 595 403 595 C 394 595 384 599 374 607 C 364 615 358 633 358 661 C 349 657 340 652 332 647 C 323 641 315 633 307 623 C 299 613 291 599 284 582 C 277 564 270 542 264 516 L 230 377 L 344 377 L 336 340 L 223 340 L 115 -137 L 32 -137 L 141 340 L 49 341 L 57 377 L 120 377 C 130 377 138 380 144 386 C 150 392 155 399 157 409 C 165 447 177 483 191 518 C 205 552 222 583 242 609 C 261 635 283 655 307 671 C 331 686 358 694 387 694 Z" unicode="" />
<glyph horiz-adv-x="418" d="M 240 821 L 376 645 L 339 645 L 209 747 L 79 645 L 42 645 L 178 821 L 240 821 Z" unicode="" />
<glyph horiz-adv-x="418" d="M 339 826 L 376 826 L 240 650 L 178 650 L 42 826 L 79 826 L 209 724 L 339 826 Z" unicode="" />
<glyph horiz-adv-x="418" d="M 365 764 L 365 706 L 53 706 L 53 764 L 365 764 Z" unicode="" />
<glyph horiz-adv-x="418" d="M 324 825 L 358 825 C 348 764 331 720 309 694 C 286 667 253 654 209 654 C 165 654 131 667 108 694 C 84 721 68 765 59 825 L 93 825 C 103 794 115 769 131 749 C 147 729 173 719 209 719 C 245 719 270 728 285 747 C 300 765 313 791 324 825 Z" unicode="" />
<glyph horiz-adv-x="418" d="M 208 802 C 225 802 240 796 252 784 C 264 772 270 757 270 741 C 270 724 264 710 252 698 C 240 686 225 680 208 680 C 190 680 176 686 164 698 C 152 710 146 724 146 741 C 146 757 152 772 164 784 C 176 796 190 802 208 802 Z" unicode="" />
<glyph horiz-adv-x="418" d="M 209 856 C 243 856 272 845 295 825 C 317 804 329 778 329 747 C 329 715 317 689 295 669 C 272 648 243 638 209 638 C 174 638 145 648 123 668 C 101 688 90 715 90 747 C 90 778 101 804 123 825 C 145 845 174 856 209 856 Z M 209 670 C 227 670 242 676 253 690 C 263 703 269 722 269 747 C 269 771 263 790 253 804 C 242 817 227 824 209 824 C 190 824 175 817 165 804 C 154 790 149 771 149 747 C 149 722 154 703 165 690 C 175 676 190 670 209 670 Z" unicode="" />
<glyph horiz-adv-x="418" d="M 340 792 L 372 792 C 371 760 361 732 342 710 C 323 687 299 676 271 676 C 258 676 247 677 238 681 C 229 684 216 690 199 700 C 185 707 172 713 162 718 C 152 723 141 726 131 726 C 116 726 104 720 95 709 C 85 697 80 685 79 672 L 47 672 C 47 704 57 731 77 753 C 97 775 121 787 149 787 C 165 787 177 785 186 781 C 195 777 207 772 221 765 C 235 757 248 751 259 745 C 269 739 279 737 289 737 C 303 737 315 742 324 754 C 333 766 338 778 340 792 Z" unicode="" />
<glyph horiz-adv-x="597" d="M 542 46 L 556 18 C 551 14 539 8 521 1 C 502 -5 481 -9 458 -9 C 420 -9 394 0 382 17 C 370 34 364 55 364 81 L 364 359 L 250 358 C 247 308 243 261 238 217 C 232 172 224 133 214 100 C 204 66 190 40 172 20 C 154 0 132 -9 105 -9 C 89 -9 75 -4 64 6 C 52 16 47 29 47 45 C 47 58 51 69 61 79 C 70 88 81 93 95 93 C 102 93 110 90 118 85 C 126 80 134 71 144 59 C 152 71 159 87 165 109 C 171 131 176 155 180 182 C 184 209 188 238 191 268 C 194 298 197 328 199 358 L 189 358 C 171 358 157 355 145 349 C 133 343 123 335 115 326 C 107 316 101 306 97 296 C 92 285 88 275 86 265 L 52 265 C 54 285 60 305 69 324 C 78 342 90 359 104 373 C 118 387 134 399 153 407 C 172 415 192 420 214 420 L 550 420 L 550 358 L 445 358 L 445 82 C 445 68 448 57 455 48 C 461 39 474 35 493 35 C 499 35 508 36 518 38 C 528 40 536 43 542 46 Z" unicode="" />
<glyph horiz-adv-x="571" d="M 537 319 L 537 267 L 40 267 L 40 319 L 537 319 Z" unicode="" />
<glyph horiz-adv-x="1125" d="M 1084 319 L 1084 267 L 40 267 L 40 319 L 1084 319 Z" unicode="" />
<glyph horiz-adv-x="1049" d="M 1056 40 L 1056 0 L -7 0 L -7 40 L 1056 40 Z" unicode="" />
<glyph horiz-adv-x="213" d="M 168 741 L 189 722 C 169 708 150 692 130 674 C 110 656 95 630 87 598 C 117 597 137 591 147 581 C 156 571 161 559 161 546 C 161 526 155 511 144 502 C 132 493 119 489 104 489 C 80 489 64 495 55 509 C 46 523 42 541 42 564 C 42 594 51 625 71 658 C 90 690 122 718 168 741 Z" unicode="" />
<glyph horiz-adv-x="213" d="M 107 740 C 129 740 145 733 155 719 C 164 705 169 688 169 666 C 169 636 159 605 140 571 C 121 537 89 509 44 487 L 20 507 C 40 521 61 537 81 555 C 101 573 115 598 123 631 C 93 631 74 637 64 647 C 54 657 50 669 50 682 C 50 702 55 717 67 726 C 78 735 91 740 107 740 Z" unicode="" />
<glyph horiz-adv-x="213" d="M 105 110 C 127 110 143 103 153 89 C 162 75 167 58 167 36 C 167 6 157 -24 138 -58 C 119 -92 87 -120 42 -143 L 18 -123 C 38 -109 59 -93 79 -75 C 99 -57 113 -31 121 1 C 91 1 72 7 62 17 C 52 27 48 39 48 52 C 48 72 53 87 65 96 C 76 105 89 110 105 110 Z" unicode="" />
<glyph horiz-adv-x="378" d="M 332 741 L 354 722 C 334 708 315 692 295 674 C 275 656 260 630 252 598 C 282 597 302 591 311 581 C 319 571 324 559 324 546 C 324 526 318 511 307 502 C 296 493 283 489 269 489 C 244 489 227 495 219 509 C 211 523 207 541 207 564 C 207 594 216 625 236 658 C 255 690 287 718 332 741 Z M 168 741 L 189 722 C 169 708 150 692 130 674 C 110 656 95 630 87 598 C 117 597 137 591 147 581 C 156 571 161 559 161 546 C 161 526 155 511 144 502 C 132 493 119 489 104 489 C 80 489 64 495 55 509 C 46 523 42 541 42 564 C 42 594 51 625 71 658 C 90 690 122 718 168 741 Z" unicode="" />
<glyph horiz-adv-x="378" d="M 272 740 C 295 740 311 733 320 719 C 328 705 333 686 333 664 C 333 634 323 603 304 570 C 284 537 253 509 209 487 L 185 507 C 205 521 225 537 245 555 C 265 573 280 598 288 631 C 257 631 237 637 228 647 C 219 657 215 669 215 682 C 215 702 220 717 232 726 C 243 735 256 740 272 740 Z M 107 740 C 130 740 146 733 155 719 C 164 705 169 686 169 664 C 169 634 159 603 140 570 C 121 537 89 509 44 487 L 20 507 C 40 521 61 537 81 555 C 101 573 115 598 123 631 C 93 631 74 637 64 647 C 54 657 50 669 50 682 C 50 702 55 717 67 726 C 78 735 91 740 107 740 Z" unicode="" />
<glyph horiz-adv-x="378" d="M 270 110 C 293 110 309 103 318 89 C 326 75 331 56 331 34 C 331 4 321 -26 302 -59 C 282 -92 251 -120 207 -143 L 183 -123 C 203 -109 223 -93 243 -75 C 263 -57 278 -31 286 1 C 255 1 235 7 226 17 C 217 27 213 39 213 52 C 213 72 218 87 230 96 C 241 105 254 110 270 110 Z M 105 110 C 127 110 143 103 153 89 C 162 75 167 58 167 36 C 167 6 157 -24 138 -58 C 119 -92 87 -120 42 -143 L 18 -123 C 38 -109 59 -93 79 -75 C 99 -57 113 -31 121 1 C 91 1 72 7 62 17 C 52 27 48 39 48 52 C 48 72 53 87 65 96 C 76 105 89 110 105 110 Z" unicode="" />
<glyph horiz-adv-x="451" d="M 382 572 C 394 572 404 568 410 560 C 416 552 420 543 420 535 C 420 524 416 515 409 508 C 401 501 392 498 382 498 C 367 498 356 499 348 501 C 340 503 331 506 323 509 C 315 511 304 514 292 516 C 280 518 262 520 238 520 C 238 504 240 480 244 450 C 248 420 257 392 271 368 C 254 330 244 274 242 201 C 240 127 239 43 239 -52 L 209 -52 C 209 43 208 127 206 201 C 204 274 194 330 178 368 C 190 392 199 420 203 450 C 207 480 210 504 210 520 C 186 519 167 517 155 515 C 142 513 132 510 124 508 C 116 505 108 503 100 501 C 92 499 81 498 67 498 C 54 498 44 501 38 509 C 31 517 28 525 28 534 C 28 544 31 553 39 561 C 46 568 55 572 67 572 C 81 572 92 570 100 568 C 108 566 116 563 124 561 C 132 558 142 555 154 553 C 166 550 185 549 210 549 C 209 574 207 593 205 607 C 203 621 200 632 197 641 C 194 650 191 659 189 667 C 187 675 186 687 186 702 C 186 712 190 720 198 725 C 206 730 215 733 224 733 C 233 733 242 730 250 725 C 258 719 262 712 262 702 C 262 687 260 675 258 667 C 256 659 253 650 250 641 C 247 632 244 621 242 607 C 239 593 238 574 238 549 C 262 549 281 551 293 553 C 305 555 316 558 324 561 C 332 563 339 566 347 568 C 355 570 366 572 382 572 Z" unicode="" />
<glyph horiz-adv-x="451" d="M 382 183 C 392 183 401 179 409 172 C 416 165 420 156 420 146 C 420 137 416 129 410 121 C 404 113 394 109 382 109 C 366 109 355 110 347 112 C 339 114 332 117 324 120 C 316 122 305 125 293 127 C 281 129 262 131 238 132 C 238 106 239 87 242 73 C 244 59 247 48 250 39 C 253 30 256 21 258 13 C 260 5 262 -6 262 -21 C 262 -31 258 -38 250 -44 C 242 -49 233 -52 224 -52 C 215 -52 206 -49 198 -44 C 190 -39 186 -31 186 -21 C 186 -6 187 5 189 13 C 191 21 194 30 197 39 C 200 48 203 59 205 73 C 207 87 209 106 210 132 C 185 132 166 130 154 128 C 142 125 132 122 124 120 C 116 117 108 114 100 112 C 92 110 81 109 67 109 C 55 109 46 112 39 120 C 31 127 28 136 28 147 C 28 155 31 163 38 171 C 44 179 54 183 67 183 C 81 183 92 182 100 180 C 108 178 116 175 124 173 C 132 170 142 167 155 165 C 167 163 186 161 210 161 C 210 169 209 180 208 195 C 207 210 205 226 203 243 C 201 260 197 277 193 295 C 189 312 183 327 177 340 C 183 352 189 367 193 385 C 197 402 201 419 203 437 C 205 454 207 470 208 485 C 209 500 210 512 210 520 C 186 519 167 517 155 515 C 142 513 132 510 124 508 C 116 505 108 503 100 501 C 92 499 81 498 67 498 C 54 498 44 501 38 509 C 31 517 28 525 28 534 C 28 544 31 553 39 561 C 46 568 55 572 67 572 C 81 572 92 570 100 568 C 108 566 116 563 124 561 C 132 558 142 555 154 553 C 166 550 185 549 210 549 C 209 574 207 593 205 607 C 203 621 200 632 197 641 C 194 650 191 659 189 667 C 187 675 186 687 186 702 C 186 712 190 720 198 725 C 206 730 215 733 224 733 C 233 733 242 730 250 725 C 258 719 262 712 262 702 C 262 687 260 675 258 667 C 256 659 253 650 250 641 C 247 632 244 621 242 607 C 239 593 238 574 238 549 C 262 549 281 551 293 553 C 305 555 316 558 324 561 C 332 563 339 566 347 568 C 355 570 366 572 382 572 C 394 572 404 568 410 560 C 416 552 420 543 420 535 C 420 524 416 515 409 508 C 401 501 392 498 382 498 C 367 498 356 499 348 501 C 340 503 331 506 323 509 C 315 511 304 514 292 516 C 280 518 262 520 238 520 C 238 512 238 500 239 485 C 240 470 242 454 245 437 C 247 419 251 402 255 385 C 259 367 265 352 272 340 C 265 327 259 312 255 295 C 251 277 247 260 245 243 C 242 226 240 210 239 195 C 238 180 238 169 238 161 C 262 161 280 162 292 164 C 304 166 315 169 323 172 C 331 174 340 177 348 179 C 356 181 367 183 382 183 Z" unicode="" />
<glyph horiz-adv-x="423" d="M 212 544 C 238 544 263 538 287 528 C 310 518 330 504 348 486 C 365 468 379 448 389 425 C 399 401 405 376 405 350 C 405 323 399 298 389 275 C 379 251 365 231 348 213 C 330 195 310 181 287 171 C 263 161 238 156 212 156 C 185 156 160 161 136 171 C 112 181 92 195 75 213 C 57 231 43 251 33 275 C 23 298 18 323 18 350 C 18 376 23 401 33 425 C 43 448 57 468 75 486 C 92 504 112 518 136 528 C 160 538 185 544 212 544 Z" unicode="" />
<glyph horiz-adv-x="810" d="M 675 109 C 692 109 706 103 718 92 C 730 80 736 67 736 52 C 736 36 730 23 718 11 C 706 0 692 -6 675 -6 C 658 -6 644 0 633 11 C 622 23 617 36 617 52 C 617 67 622 80 633 92 C 644 103 658 109 675 109 Z M 405 109 C 422 109 436 103 448 92 C 460 80 466 67 466 52 C 466 36 460 23 448 11 C 436 0 422 -6 405 -6 C 388 -6 374 0 363 11 C 352 23 347 36 347 52 C 347 67 352 80 363 92 C 374 103 388 109 405 109 Z M 135 109 C 152 109 166 103 178 92 C 190 80 196 67 196 52 C 196 36 190 23 178 11 C 166 0 152 -6 135 -6 C 118 -6 104 0 93 11 C 82 23 77 36 77 52 C 77 67 82 80 93 92 C 104 103 118 109 135 109 Z" unicode="" />
<glyph horiz-adv-x="1210" d="M 605 733 L 658 733 L 244 -10 L 191 -10 L 605 733 Z M 215 727 C 259 727 296 708 326 672 C 356 635 371 587 371 528 C 371 468 356 420 326 384 C 296 347 259 329 215 329 C 171 329 135 347 105 384 C 75 420 61 468 61 528 C 61 587 75 635 105 672 C 134 708 171 727 215 727 Z M 215 367 C 241 367 261 379 277 404 C 292 428 300 470 300 528 C 300 586 292 627 277 652 C 262 676 241 689 215 689 C 189 689 169 676 154 652 C 139 627 132 586 132 528 C 132 470 139 428 154 404 C 169 379 189 367 215 367 Z M 992 393 C 1036 393 1073 374 1103 338 C 1132 301 1147 253 1147 194 C 1147 134 1132 86 1102 50 C 1072 13 1036 -5 992 -5 C 948 -5 912 13 882 50 C 852 86 838 134 838 194 C 838 253 852 301 882 338 C 911 374 948 393 992 393 Z M 633 393 C 677 393 714 374 744 338 C 773 301 788 253 788 194 C 788 134 773 86 743 50 C 713 13 677 -5 633 -5 C 589 -5 553 13 523 50 C 493 86 479 134 479 194 C 479 253 493 301 523 338 C 552 374 589 393 633 393 Z M 992 33 C 1017 33 1037 45 1053 70 C 1068 94 1076 136 1076 194 C 1076 252 1068 293 1053 318 C 1038 342 1018 355 992 355 C 966 355 946 342 931 318 C 916 293 909 252 909 194 C 909 136 916 94 931 70 C 946 45 966 33 992 33 Z M 633 33 C 658 33 678 45 694 70 C 709 94 717 136 717 194 C 717 252 709 293 694 318 C 679 342 659 355 633 355 C 607 355 587 342 572 318 C 557 293 550 252 550 194 C 550 136 557 94 572 70 C 587 45 607 33 633 33 Z" unicode="" />
<glyph horiz-adv-x="278" d="M 127 294 L 240 120 L 193 120 L 60 262 C 56 266 52 271 49 276 C 46 281 45 287 45 294 C 45 300 46 306 49 311 C 52 316 56 321 60 326 L 193 468 L 240 468 L 127 294 Z" unicode="" />
<glyph horiz-adv-x="278" d="M 217 326 C 221 321 224 316 227 311 C 230 306 232 300 232 294 C 232 287 230 281 227 276 C 224 271 221 266 217 262 L 84 120 L 37 120 L 150 294 L 37 468 L 84 468 L 217 326 Z" unicode="" />
<glyph horiz-adv-x="126" d="M 250 733 L 303 733 L -111 -10 L -164 -10 L 250 733 Z" unicode="" />
<glyph horiz-adv-x="555" d="M 517 138 L 544 113 C 534 93 522 75 506 60 C 490 44 473 31 454 21 C 435 11 415 3 395 -2 C 375 -7 356 -10 338 -10 C 301 -10 268 -3 240 10 C 212 23 188 42 168 66 C 148 90 131 119 119 153 C 107 187 99 224 95 264 L 22 264 L 22 301 L 91 301 L 91 324 C 91 334 91 343 92 353 C 92 363 93 373 94 384 L 22 384 L 22 421 L 100 421 C 113 503 143 569 189 619 C 235 669 294 695 368 695 C 414 695 451 685 480 667 C 508 648 523 625 523 599 C 523 582 518 569 509 559 C 499 549 487 544 473 544 C 454 544 441 548 434 558 C 426 567 422 580 421 596 L 417 639 C 414 640 407 643 396 647 C 384 651 370 654 353 654 C 306 654 268 632 238 589 C 208 546 190 490 182 421 L 408 421 L 408 384 L 179 384 C 178 375 178 368 178 362 C 178 356 178 349 178 343 L 178 301 L 377 301 L 377 264 L 181 264 C 186 198 202 145 229 105 C 256 64 297 44 351 44 C 383 44 413 50 440 64 C 467 77 493 102 517 138 Z" unicode="" />
<glyph horiz-adv-x="500" d="M 438 730 L 445 519 L 408 519 L 401 671 L 346 519 L 324 519 L 270 671 L 262 519 L 226 519 L 237 730 L 292 730 L 336 596 L 381 730 L 438 730 Z M 203 730 L 203 695 L 146 695 L 146 519 L 106 519 L 106 696 L 50 696 L 50 730 L 203 730 Z" unicode="" />
<glyph horiz-adv-x="805" d="M 558 733 L 611 733 L 197 -10 L 144 -10 L 558 733 Z M 267 336 L 267 315 L 71 315 L 71 335 C 71 343 74 349 82 351 C 90 353 99 356 109 358 C 120 360 127 363 130 366 C 132 368 134 373 134 380 L 134 658 L 64 658 L 64 689 L 178 728 L 206 728 L 206 380 C 206 374 207 369 211 365 C 214 361 221 359 231 358 C 240 356 248 354 256 352 C 263 349 267 344 267 336 Z M 652 225 C 680 216 705 204 726 188 C 746 172 757 149 757 121 C 757 99 751 80 741 64 C 730 48 716 34 700 24 C 683 13 664 5 643 0 C 622 -6 601 -9 581 -9 C 541 -9 507 -1 480 15 C 453 31 440 50 440 73 C 440 82 443 91 451 101 C 458 111 469 116 485 116 C 500 116 511 112 518 104 C 525 96 529 88 529 82 C 529 74 527 68 525 62 C 522 56 519 50 515 46 C 519 41 527 37 539 34 C 550 30 562 29 576 29 C 610 29 636 38 653 57 C 670 76 679 97 679 119 C 679 149 668 171 648 183 C 627 195 591 201 541 201 L 541 237 C 591 239 623 247 639 261 C 655 275 663 295 663 323 C 663 335 657 347 645 359 C 633 370 614 376 589 376 C 575 376 564 374 555 371 C 545 368 537 365 531 362 C 535 357 538 352 540 347 C 542 341 543 335 543 329 C 543 319 539 310 532 303 C 524 296 514 293 502 293 C 490 293 479 296 471 304 C 463 311 459 321 459 335 C 459 345 463 355 471 365 C 479 375 490 383 504 391 C 517 398 532 404 548 408 C 564 412 581 414 597 414 C 639 414 673 405 701 387 C 728 369 742 347 742 320 C 742 298 733 279 716 264 C 698 248 677 235 652 225 Z" unicode="" />
<glyph horiz-adv-x="884" d="M 635 733 L 688 733 L 274 -10 L 221 -10 L 635 733 Z M 347 415 L 369 415 L 367 316 L 68 316 L 68 358 C 81 376 101 399 127 427 C 153 455 181 482 210 508 C 234 529 253 549 268 568 C 283 586 291 607 291 630 C 291 650 283 666 268 678 C 253 689 233 695 207 695 C 192 695 178 691 165 685 C 152 679 144 672 141 664 C 147 659 151 653 155 647 C 159 640 161 633 161 627 C 161 616 157 607 150 601 C 142 594 133 591 122 591 C 105 591 93 595 86 603 C 79 611 76 622 76 636 C 76 658 90 680 119 701 C 148 722 183 733 225 733 C 269 733 304 723 330 703 C 356 683 369 657 369 626 C 369 607 364 589 354 572 C 344 555 331 540 317 526 C 303 512 287 499 271 487 C 255 475 241 466 229 458 C 213 447 197 434 179 419 C 161 403 145 389 133 375 L 288 375 C 297 375 305 376 312 380 C 319 383 324 391 327 405 C 328 411 330 414 334 414 C 338 414 342 415 347 415 Z M 729 225 C 757 216 782 204 803 188 C 823 172 834 149 834 121 C 834 99 828 80 818 64 C 807 48 793 34 777 24 C 760 13 741 5 720 0 C 699 -6 678 -9 658 -9 C 618 -9 584 -1 557 15 C 530 31 517 50 517 73 C 517 82 520 91 528 101 C 535 111 546 116 562 116 C 577 116 588 112 595 104 C 602 96 606 88 606 82 C 606 74 604 68 602 62 C 599 56 596 50 592 46 C 596 41 604 37 616 34 C 627 30 639 29 653 29 C 687 29 713 38 730 57 C 747 76 756 97 756 119 C 756 149 745 171 725 183 C 704 195 668 201 618 201 L 618 237 C 668 239 700 247 716 261 C 732 275 740 295 740 323 C 740 335 734 347 722 359 C 710 370 691 376 666 376 C 652 376 641 374 632 371 C 622 368 614 365 608 362 C 612 357 615 352 617 347 C 619 341 620 335 620 329 C 620 319 616 310 609 303 C 601 296 591 293 579 293 C 567 293 556 296 548 304 C 540 311 536 321 536 335 C 536 345 540 355 548 365 C 556 375 567 383 581 391 C 594 398 609 404 625 408 C 641 412 658 414 674 414 C 716 414 750 405 778 387 C 805 369 819 347 819 320 C 819 298 810 279 793 264 C 775 248 754 235 729 225 Z" unicode="" />
<glyph horiz-adv-x="795" d="M 558 733 L 611 733 L 197 -10 L 144 -10 L 558 733 Z M 267 336 L 267 315 L 71 315 L 71 335 C 71 343 74 349 82 351 C 90 353 99 356 109 358 C 120 360 127 363 130 366 C 132 368 134 373 134 380 L 134 658 L 64 658 L 64 689 L 178 728 L 206 728 L 206 380 C 206 374 207 369 211 365 C 214 361 221 359 231 358 C 240 356 248 354 256 352 C 263 349 267 344 267 336 Z M 649 225 C 679 212 704 196 723 178 C 741 159 751 136 751 110 C 751 92 746 75 737 60 C 728 45 716 32 701 22 C 685 12 668 4 648 -1 C 628 -7 606 -10 584 -10 C 536 -10 499 0 471 22 C 443 43 429 69 429 100 C 429 124 439 146 459 164 C 479 182 501 196 525 207 C 503 218 486 232 472 248 C 458 264 451 282 451 303 C 451 336 465 363 494 383 C 522 403 555 414 593 414 C 635 414 668 404 693 386 C 717 368 730 345 730 318 C 730 298 721 279 704 263 C 687 247 669 234 649 225 Z M 613 241 C 627 246 640 255 652 268 C 663 281 669 298 669 318 C 669 334 662 347 648 359 C 634 370 615 376 591 376 C 569 376 551 370 536 359 C 521 348 514 335 514 319 C 514 298 524 282 546 270 C 567 258 589 248 613 241 Z M 589 28 C 613 28 635 34 655 46 C 675 58 685 76 685 99 C 685 113 680 126 670 136 C 660 146 648 154 632 162 C 624 166 613 170 601 175 C 588 180 575 185 563 190 C 550 184 535 174 519 160 C 503 146 495 126 495 100 C 495 79 503 62 520 48 C 537 34 560 28 589 28 Z" unicode="" />
<glyph horiz-adv-x="867" d="M 276 545 C 304 536 329 524 350 508 C 370 492 381 469 381 441 C 381 419 375 400 365 384 C 354 368 340 354 324 344 C 307 333 288 325 267 319 C 246 313 225 311 205 311 C 165 311 131 319 104 335 C 77 351 64 370 64 393 C 64 402 67 411 75 421 C 82 431 93 436 109 436 C 124 436 135 432 142 424 C 149 416 153 408 153 402 C 153 394 151 388 149 382 C 146 376 143 370 139 366 C 143 361 151 357 163 354 C 174 350 186 349 200 349 C 234 349 260 358 277 377 C 294 396 303 417 303 439 C 303 469 292 491 272 503 C 251 515 215 521 165 521 L 165 557 C 215 559 247 567 263 581 C 279 595 287 615 287 643 C 287 655 281 667 269 679 C 257 690 238 696 213 696 C 199 696 188 694 179 691 C 169 688 161 685 155 682 C 159 677 162 672 164 667 C 166 661 167 655 167 649 C 167 639 163 630 156 623 C 148 616 138 613 126 613 C 114 613 103 616 95 624 C 87 631 83 641 83 655 C 83 665 87 675 95 685 C 103 695 114 703 128 711 C 141 718 156 724 172 728 C 188 732 205 734 221 734 C 263 734 297 725 325 707 C 352 689 366 667 366 640 C 366 618 357 599 340 584 C 322 568 301 555 276 545 Z M 629 733 L 682 733 L 268 -10 L 215 -10 L 629 733 Z M 720 225 C 750 212 775 196 794 178 C 812 159 822 136 822 110 C 822 92 817 75 808 60 C 799 45 787 32 772 22 C 756 12 739 4 719 -1 C 699 -7 677 -10 655 -10 C 607 -10 570 0 542 22 C 514 43 500 69 500 100 C 500 124 510 146 530 164 C 550 182 572 196 596 207 C 574 218 557 232 543 248 C 529 264 522 282 522 303 C 522 336 536 363 565 383 C 593 403 626 414 664 414 C 706 414 739 404 764 386 C 788 368 801 345 801 318 C 801 298 792 279 775 263 C 758 247 740 234 720 225 Z M 684 241 C 698 246 711 255 723 268 C 734 281 740 298 740 318 C 740 334 733 347 719 359 C 705 370 686 376 662 376 C 640 376 622 370 607 359 C 592 348 585 335 585 319 C 585 298 595 282 617 270 C 638 258 660 248 684 241 Z M 660 28 C 684 28 706 34 726 46 C 746 58 756 76 756 99 C 756 113 751 126 741 136 C 731 146 719 154 703 162 C 695 166 684 170 672 175 C 659 180 646 185 634 190 C 621 184 606 174 590 160 C 574 146 566 126 566 100 C 566 79 574 62 591 48 C 608 34 631 28 660 28 Z" unicode="" />
<glyph horiz-adv-x="851" d="M 221 583 C 248 583 271 579 291 571 C 311 563 327 552 339 540 C 351 528 361 514 367 499 C 373 484 376 470 376 456 C 376 434 371 414 361 396 C 351 378 339 362 323 350 C 307 337 288 327 267 320 C 246 313 224 310 201 310 C 163 310 131 317 105 333 C 79 348 67 367 67 390 C 67 400 70 410 78 419 C 86 427 97 432 112 432 C 126 432 137 428 144 421 C 151 414 155 408 155 402 C 155 393 153 386 151 381 C 148 376 145 371 141 365 C 145 360 152 356 164 353 C 176 349 189 348 203 348 C 233 348 256 358 272 378 C 288 398 296 420 296 443 C 296 469 289 491 275 510 C 261 528 239 538 207 538 C 190 538 174 535 160 530 C 145 524 130 516 114 506 L 89 519 L 99 727 L 286 727 C 294 727 300 727 305 728 C 309 729 313 734 316 743 C 318 749 320 752 323 753 C 325 754 329 755 334 755 L 356 755 L 351 669 L 145 669 L 138 565 C 152 571 167 576 181 579 C 195 581 209 583 221 583 Z M 614 733 L 667 733 L 253 -10 L 200 -10 L 614 733 Z M 705 225 C 735 212 760 196 779 178 C 797 159 807 136 807 110 C 807 92 802 75 793 60 C 784 45 772 32 757 22 C 741 12 724 4 704 -1 C 684 -7 662 -10 640 -10 C 592 -10 555 0 527 22 C 499 43 485 69 485 100 C 485 124 495 146 515 164 C 535 182 557 196 581 207 C 559 218 542 232 528 248 C 514 264 507 282 507 303 C 507 336 521 363 550 383 C 578 403 611 414 649 414 C 691 414 724 404 749 386 C 773 368 786 345 786 318 C 786 298 777 279 760 263 C 743 247 725 234 705 225 Z M 669 241 C 683 246 696 255 708 268 C 719 281 725 298 725 318 C 725 334 718 347 704 359 C 690 370 671 376 647 376 C 625 376 607 370 592 359 C 577 348 570 335 570 319 C 570 298 580 282 602 270 C 623 258 645 248 669 241 Z M 645 28 C 669 28 691 34 711 46 C 731 58 741 76 741 99 C 741 113 736 126 726 136 C 716 146 704 154 688 162 C 680 166 669 170 657 175 C 644 180 631 185 619 190 C 606 184 591 174 575 160 C 559 146 551 126 551 100 C 551 79 559 62 576 48 C 593 34 616 28 645 28 Z" unicode="" />
<glyph horiz-adv-x="770" d="M 364 730 L 364 695 C 322 639 285 586 255 538 C 225 489 210 433 210 369 C 210 349 206 335 199 326 C 191 317 180 313 165 313 C 151 313 140 316 132 323 C 124 329 120 341 120 358 C 120 372 125 392 137 418 C 148 443 162 470 179 500 C 196 529 215 559 236 589 C 256 619 276 647 295 671 L 123 671 C 113 671 107 669 105 666 C 103 663 101 660 101 658 C 98 651 95 646 93 644 C 91 641 87 640 81 640 L 51 640 L 62 734 C 73 733 86 732 102 731 C 118 730 134 730 152 730 L 364 730 Z M 532 733 L 585 733 L 171 -10 L 118 -10 L 532 733 Z M 624 225 C 654 212 679 196 698 178 C 716 159 726 136 726 110 C 726 92 721 75 712 60 C 703 45 691 32 676 22 C 660 12 643 4 623 -1 C 603 -7 581 -10 559 -10 C 511 -10 474 0 446 22 C 418 43 404 69 404 100 C 404 124 414 146 434 164 C 454 182 476 196 500 207 C 478 218 461 232 447 248 C 433 264 426 282 426 303 C 426 336 440 363 469 383 C 497 403 530 414 568 414 C 610 414 643 404 668 386 C 692 368 705 345 705 318 C 705 298 696 279 679 263 C 662 247 644 234 624 225 Z M 588 241 C 602 246 615 255 627 268 C 638 281 644 298 644 318 C 644 334 637 347 623 359 C 609 371 590 377 566 377 C 544 377 526 371 511 360 C 496 348 489 335 489 319 C 489 298 499 282 521 270 C 542 258 564 248 588 241 Z M 564 27 C 588 27 610 33 630 46 C 650 58 660 76 660 99 C 660 113 655 126 645 136 C 635 146 623 154 607 162 C 599 166 588 170 576 175 C 563 180 550 185 538 190 C 525 184 510 174 494 160 C 478 146 470 126 470 100 C 470 79 478 62 495 48 C 512 34 535 27 564 27 Z" unicode="" />
<glyph horiz-adv-x="766" d="M 652 319 L 652 267 L 114 267 L 114 319 L 652 319 Z" unicode="" />
<glyph horiz-adv-x="474" d="M 366 730 L 425 730 L 48 -190 L -9 -190 L 366 730 Z" unicode="" />
<glyph horiz-adv-x="250" d="M 125 349 C 142 349 156 343 168 332 C 180 320 186 307 186 292 C 186 276 180 263 168 251 C 156 239 142 234 125 234 C 108 234 94 239 83 251 C 72 263 67 276 67 292 C 67 307 72 320 83 332 C 94 343 108 349 125 349 Z" unicode="" />
<glyph horiz-adv-x="780" d="M 660 731 L 713 731 L 452 -25 C 450 -26 449 -27 448 -27 C 447 -27 446 -28 446 -28 L 418 -28 C 416 -28 414 -27 414 -27 C 413 -26 412 -25 412 -25 L 219 393 L 112 344 L 93 381 L 249 457 C 251 458 254 459 257 460 C 259 460 261 461 262 461 L 267 461 C 269 461 270 460 271 460 C 271 460 272 459 273 458 L 441 89 L 660 731 Z" unicode="" />
<glyph horiz-adv-x="863" d="M 613 502 C 639 502 663 496 683 484 C 703 472 719 457 733 438 C 746 419 756 397 763 373 C 770 349 774 324 774 299 C 774 272 769 246 761 221 C 752 196 740 174 724 156 C 708 138 689 123 667 112 C 645 100 620 95 594 95 C 555 95 521 109 493 137 C 465 165 440 198 420 237 C 403 195 379 161 348 135 C 317 108 284 95 250 95 C 223 95 200 100 180 112 C 160 123 143 138 130 157 C 116 175 106 197 99 222 C 92 246 89 271 89 297 C 89 323 93 349 102 374 C 110 399 122 421 138 440 C 153 458 172 473 194 485 C 216 496 241 502 268 502 C 306 502 340 488 368 460 C 396 432 420 399 441 360 C 458 401 482 435 514 462 C 545 488 578 502 613 502 Z M 618 168 C 652 168 679 181 699 207 C 718 233 728 263 728 297 C 728 333 717 364 696 390 C 674 416 646 430 610 430 C 576 430 546 419 522 399 C 497 379 477 353 461 321 C 469 303 477 286 487 268 C 497 250 508 233 520 219 C 532 204 547 192 563 182 C 579 172 597 168 618 168 Z M 252 167 C 286 167 315 177 340 197 C 364 217 385 244 401 276 C 393 293 384 311 374 329 C 364 347 353 363 341 378 C 329 392 315 404 299 414 C 283 424 264 429 244 429 C 209 429 182 415 163 389 C 143 363 134 333 134 300 C 134 264 144 232 166 206 C 187 180 216 167 252 167 Z" unicode="" />
<glyph horiz-adv-x="766" d="M 626 480 L 659 480 C 657 457 651 435 643 414 C 634 393 622 374 608 358 C 594 342 577 329 558 319 C 538 309 517 305 494 305 C 475 305 458 308 444 316 C 430 323 409 335 383 352 C 371 360 359 367 349 374 C 338 380 328 386 318 391 C 308 396 297 400 286 403 C 275 405 264 407 254 407 C 237 407 223 403 211 397 C 199 390 190 381 182 371 C 174 361 168 349 164 337 C 160 324 157 312 155 300 L 122 300 C 124 322 129 344 138 365 C 146 386 158 404 172 420 C 186 436 203 448 223 458 C 242 468 263 473 286 473 C 310 473 330 469 344 463 C 358 457 377 446 400 432 C 412 424 424 416 435 409 C 445 402 456 396 466 391 C 475 385 485 380 496 377 C 506 374 516 373 526 373 C 542 373 557 376 569 383 C 581 389 591 398 599 408 C 607 418 613 430 617 443 C 621 455 624 468 626 480 Z M 626 290 L 659 290 C 657 267 651 245 643 224 C 634 203 622 184 608 168 C 594 152 577 139 558 129 C 538 119 517 115 494 115 C 475 115 458 118 444 126 C 430 133 409 145 383 162 C 371 170 359 177 349 184 C 338 190 328 196 318 201 C 308 206 297 210 286 213 C 275 215 264 217 254 217 C 237 217 223 213 211 207 C 199 200 190 191 182 181 C 174 171 168 159 164 147 C 160 134 157 122 155 110 L 122 110 C 124 132 129 154 138 175 C 146 196 158 214 172 230 C 186 246 203 258 223 268 C 242 278 263 283 286 283 C 310 283 330 279 344 273 C 358 267 377 256 400 242 C 412 234 424 226 435 219 C 445 212 456 206 466 201 C 475 195 485 190 496 187 C 506 184 516 183 526 183 C 542 183 557 186 569 193 C 581 199 591 208 599 218 C 607 228 613 240 617 253 C 621 265 624 278 626 290 Z" unicode="" />
<glyph horiz-adv-x="766" d="M 644 212 L 644 162 L 378 162 L 332 0 L 278 0 L 324 162 L 123 162 L 123 212 L 339 212 L 374 338 L 123 338 L 123 388 L 389 388 L 435 550 L 489 550 L 443 388 L 644 388 L 644 338 L 428 338 L 393 212 L 644 212 Z" unicode="" />
<glyph horiz-adv-x="766" d="M 649 175 L 649 116 L 117 338 L 117 380 L 649 602 L 649 543 L 201 359 L 649 175 Z M 649 52 L 649 0 L 117 0 L 117 52 L 649 52 Z" unicode="" />
<glyph horiz-adv-x="766" d="M 649 380 L 649 338 L 117 116 L 117 175 L 565 359 L 117 543 L 117 602 L 649 380 Z M 649 52 L 649 0 L 117 0 L 117 52 L 649 52 Z" unicode="" />
<glyph horiz-adv-x="535" d="M 482 563 L 482 134 L 53 134 L 53 563 L 482 563 Z" unicode="" />
<glyph horiz-adv-x="586" d="M 293 628 L 566 76 L 20 76 L 293 628 Z" unicode="" />
<glyph horiz-adv-x="605" d="M 53 623 L 605 350 L 53 77 L 53 623 Z" unicode="" />
<glyph horiz-adv-x="586" d="M 20 617 L 566 617 L 293 65 L 20 617 Z" unicode="" />
<glyph horiz-adv-x="605" d="M 552 623 L 552 77 L 0 350 L 552 623 Z" unicode="" />
<glyph horiz-adv-x="582" d="M 318 740 L 525 374 L 318 -5 L 254 -5 L 45 374 L 254 740 L 318 740 Z M 286 50 L 458 374 L 286 687 L 112 374 L 286 50 Z" unicode="" />
<glyph horiz-adv-x="756" d="M 378 723 C 428 723 475 713 519 694 C 563 675 602 649 634 617 C 666 585 692 547 711 503 C 730 459 740 412 740 362 C 740 312 730 264 711 220 C 692 176 666 137 634 105 C 602 73 563 47 519 28 C 475 9 428 0 378 0 C 328 0 280 9 236 28 C 192 47 153 73 121 105 C 89 137 63 176 44 220 C 25 264 16 312 16 362 C 16 412 25 459 44 503 C 63 547 89 585 121 617 C 153 649 192 675 236 694 C 280 713 328 723 378 723 Z" unicode="" />
<glyph horiz-adv-x="766" d="M 485 603 L 485 482 L 464 482 C 456 482 450 483 448 486 C 445 488 443 492 442 496 C 438 507 434 517 431 525 C 427 533 423 540 417 546 C 411 551 404 555 396 557 C 387 559 375 561 360 561 L 175 561 L 175 321 L 290 321 C 306 321 316 324 321 331 C 326 337 332 348 338 363 C 340 367 342 371 346 374 C 349 377 354 379 360 379 L 377 379 L 377 230 L 354 230 C 348 230 343 232 341 236 C 339 240 337 244 335 248 C 329 262 323 272 317 277 C 311 282 303 285 292 285 L 175 285 L 175 63 C 175 52 177 45 181 43 C 185 40 193 37 204 34 C 213 30 219 28 222 27 C 225 25 227 23 227 20 L 227 0 L 34 0 L 34 20 C 34 24 35 26 39 27 C 42 27 49 30 60 34 C 72 38 80 42 83 44 C 85 46 87 52 87 61 L 87 536 C 87 542 85 547 82 551 C 79 555 72 558 60 562 C 49 565 42 567 39 569 C 35 570 34 572 34 576 L 34 596 L 405 596 C 421 596 437 597 451 599 C 465 601 477 602 485 603 Z M 724 20 L 724 0 L 531 0 L 531 20 C 531 24 532 26 536 27 C 540 27 547 30 557 34 C 569 38 577 42 580 44 C 583 46 585 52 585 61 L 585 536 C 585 542 583 547 580 551 C 576 555 569 558 557 562 C 546 565 539 567 536 569 C 532 570 531 572 531 576 L 531 596 L 724 596 L 724 576 C 724 572 722 570 719 568 C 716 566 710 564 701 562 C 689 558 681 555 677 553 C 673 550 672 544 672 536 L 672 63 C 672 52 674 45 678 43 C 682 40 690 37 701 34 C 710 30 716 28 719 27 C 722 25 724 23 724 20 Z" unicode="" />
<glyph horiz-adv-x="994" d="M 485 603 L 485 482 L 464 482 C 456 482 450 483 448 486 C 445 488 443 492 442 496 C 438 507 434 517 431 525 C 427 533 423 540 417 546 C 411 551 404 555 396 557 C 387 559 375 561 360 561 L 175 561 L 175 321 L 290 321 C 306 321 316 324 321 331 C 326 337 332 348 338 363 C 340 367 342 371 346 374 C 349 377 354 379 360 379 L 377 379 L 377 230 L 354 230 C 348 230 343 232 341 236 C 339 240 337 244 335 248 C 329 262 323 272 317 277 C 311 282 303 285 292 285 L 175 285 L 175 63 C 175 52 177 45 181 43 C 185 40 193 37 204 34 C 213 30 219 28 222 27 C 225 25 227 23 227 20 L 227 0 L 34 0 L 34 20 C 34 24 35 26 39 27 C 42 27 49 30 60 34 C 72 38 80 42 83 44 C 85 46 87 52 87 61 L 87 536 C 87 542 85 547 82 551 C 79 555 72 558 60 562 C 49 565 42 567 39 569 C 35 570 34 572 34 576 L 34 596 L 405 596 C 421 596 437 597 451 599 C 465 601 477 602 485 603 Z M 988 134 L 988 0 L 524 0 L 524 20 C 524 24 525 26 529 27 C 532 27 539 30 550 34 C 562 38 570 42 573 44 C 576 46 578 52 578 61 L 578 536 C 578 542 576 547 573 551 C 570 555 563 558 551 562 C 540 565 533 567 530 569 C 526 570 525 572 525 576 L 525 596 L 718 596 L 718 576 C 718 572 716 570 713 568 C 710 566 704 564 695 562 C 683 558 675 555 671 553 C 667 550 666 544 666 536 L 666 35 L 864 35 C 888 35 906 42 917 56 C 927 70 938 90 949 117 C 951 123 954 128 956 130 C 958 132 961 134 966 134 L 988 134 Z" unicode="" />
</font>
</defs>
</svg>
